<?xml version="1.0" encoding="utf-8" standalone="no"?>
<!DOCTYPE svg PUBLIC "-//W3C//DTD SVG 1.1//EN"
  "http://www.w3.org/Graphics/SVG/1.1/DTD/svg11.dtd">
<!-- Created with matplotlib (https://matplotlib.org/) -->
<svg height="396pt" version="1.1" viewBox="0 0 684 396" width="684pt" xmlns="http://www.w3.org/2000/svg" xmlns:xlink="http://www.w3.org/1999/xlink">
 <defs>
  <style type="text/css">
*{stroke-linecap:butt;stroke-linejoin:round;}
  </style>
 </defs>
 <g id="figure_1">
  <g id="patch_1">
   <path d="M 0 396 
L 684 396 
L 684 0 
L 0 0 
z
" style="fill:#ffffff;"/>
  </g>
  <g id="axes_1">
   <g id="patch_2">
    <path d="M 83.472344 352.174167 
L 529.912969 352.174167 
L 529.912969 35.0625 
L 83.472344 35.0625 
z
" style="fill:#ffffff;"/>
   </g>
   <g id="matplotlib.axis_1">
    <g id="xtick_1">
     <g id="line2d_1">
      <defs>
       <path d="M 0 0 
L 0 3.5 
" id="m23e05f4fa1" style="stroke:#000000;stroke-width:0.8;"/>
      </defs>
      <g>
       <use style="stroke:#000000;stroke-width:0.8;" x="103.757747" xlink:href="#m23e05f4fa1" y="352.174167"/>
      </g>
     </g>
     <g id="text_1">
      <!-- 0 -->
      <defs>
       <path d="M 31.78125 66.40625 
Q 24.171875 66.40625 20.328125 58.90625 
Q 16.5 51.421875 16.5 36.375 
Q 16.5 21.390625 20.328125 13.890625 
Q 24.171875 6.390625 31.78125 6.390625 
Q 39.453125 6.390625 43.28125 13.890625 
Q 47.125 21.390625 47.125 36.375 
Q 47.125 51.421875 43.28125 58.90625 
Q 39.453125 66.40625 31.78125 66.40625 
z
M 31.78125 74.21875 
Q 44.046875 74.21875 50.515625 64.515625 
Q 56.984375 54.828125 56.984375 36.375 
Q 56.984375 17.96875 50.515625 8.265625 
Q 44.046875 -1.421875 31.78125 -1.421875 
Q 19.53125 -1.421875 13.0625 8.265625 
Q 6.59375 17.96875 6.59375 36.375 
Q 6.59375 54.828125 13.0625 64.515625 
Q 19.53125 74.21875 31.78125 74.21875 
z
" id="DejaVuSans-48"/>
      </defs>
      <g transform="translate(100.576497 366.772604)scale(0.1 -0.1)">
       <use xlink:href="#DejaVuSans-48"/>
      </g>
     </g>
    </g>
    <g id="xtick_2">
     <g id="line2d_2">
      <g>
       <use style="stroke:#000000;stroke-width:0.8;" x="177.286486" xlink:href="#m23e05f4fa1" y="352.174167"/>
      </g>
     </g>
     <g id="text_2">
      <!-- 50 -->
      <defs>
       <path d="M 10.796875 72.90625 
L 49.515625 72.90625 
L 49.515625 64.59375 
L 19.828125 64.59375 
L 19.828125 46.734375 
Q 21.96875 47.46875 24.109375 47.828125 
Q 26.265625 48.1875 28.421875 48.1875 
Q 40.625 48.1875 47.75 41.5 
Q 54.890625 34.8125 54.890625 23.390625 
Q 54.890625 11.625 47.5625 5.09375 
Q 40.234375 -1.421875 26.90625 -1.421875 
Q 22.3125 -1.421875 17.546875 -0.640625 
Q 12.796875 0.140625 7.71875 1.703125 
L 7.71875 11.625 
Q 12.109375 9.234375 16.796875 8.0625 
Q 21.484375 6.890625 26.703125 6.890625 
Q 35.15625 6.890625 40.078125 11.328125 
Q 45.015625 15.765625 45.015625 23.390625 
Q 45.015625 31 40.078125 35.4375 
Q 35.15625 39.890625 26.703125 39.890625 
Q 22.75 39.890625 18.8125 39.015625 
Q 14.890625 38.140625 10.796875 36.28125 
z
" id="DejaVuSans-53"/>
      </defs>
      <g transform="translate(170.923986 366.772604)scale(0.1 -0.1)">
       <use xlink:href="#DejaVuSans-53"/>
       <use x="63.623047" xlink:href="#DejaVuSans-48"/>
      </g>
     </g>
    </g>
    <g id="xtick_3">
     <g id="line2d_3">
      <g>
       <use style="stroke:#000000;stroke-width:0.8;" x="250.815226" xlink:href="#m23e05f4fa1" y="352.174167"/>
      </g>
     </g>
     <g id="text_3">
      <!-- 100 -->
      <defs>
       <path d="M 12.40625 8.296875 
L 28.515625 8.296875 
L 28.515625 63.921875 
L 10.984375 60.40625 
L 10.984375 69.390625 
L 28.421875 72.90625 
L 38.28125 72.90625 
L 38.28125 8.296875 
L 54.390625 8.296875 
L 54.390625 0 
L 12.40625 0 
z
" id="DejaVuSans-49"/>
      </defs>
      <g transform="translate(241.271476 366.772604)scale(0.1 -0.1)">
       <use xlink:href="#DejaVuSans-49"/>
       <use x="63.623047" xlink:href="#DejaVuSans-48"/>
       <use x="127.246094" xlink:href="#DejaVuSans-48"/>
      </g>
     </g>
    </g>
    <g id="xtick_4">
     <g id="line2d_4">
      <g>
       <use style="stroke:#000000;stroke-width:0.8;" x="324.343965" xlink:href="#m23e05f4fa1" y="352.174167"/>
      </g>
     </g>
     <g id="text_4">
      <!-- 150 -->
      <g transform="translate(314.800215 366.772604)scale(0.1 -0.1)">
       <use xlink:href="#DejaVuSans-49"/>
       <use x="63.623047" xlink:href="#DejaVuSans-53"/>
       <use x="127.246094" xlink:href="#DejaVuSans-48"/>
      </g>
     </g>
    </g>
    <g id="xtick_5">
     <g id="line2d_5">
      <g>
       <use style="stroke:#000000;stroke-width:0.8;" x="397.872705" xlink:href="#m23e05f4fa1" y="352.174167"/>
      </g>
     </g>
     <g id="text_5">
      <!-- 200 -->
      <defs>
       <path d="M 19.1875 8.296875 
L 53.609375 8.296875 
L 53.609375 0 
L 7.328125 0 
L 7.328125 8.296875 
Q 12.9375 14.109375 22.625 23.890625 
Q 32.328125 33.6875 34.8125 36.53125 
Q 39.546875 41.84375 41.421875 45.53125 
Q 43.3125 49.21875 43.3125 52.78125 
Q 43.3125 58.59375 39.234375 62.25 
Q 35.15625 65.921875 28.609375 65.921875 
Q 23.96875 65.921875 18.8125 64.3125 
Q 13.671875 62.703125 7.8125 59.421875 
L 7.8125 69.390625 
Q 13.765625 71.78125 18.9375 73 
Q 24.125 74.21875 28.421875 74.21875 
Q 39.75 74.21875 46.484375 68.546875 
Q 53.21875 62.890625 53.21875 53.421875 
Q 53.21875 48.921875 51.53125 44.890625 
Q 49.859375 40.875 45.40625 35.40625 
Q 44.1875 33.984375 37.640625 27.21875 
Q 31.109375 20.453125 19.1875 8.296875 
z
" id="DejaVuSans-50"/>
      </defs>
      <g transform="translate(388.328955 366.772604)scale(0.1 -0.1)">
       <use xlink:href="#DejaVuSans-50"/>
       <use x="63.623047" xlink:href="#DejaVuSans-48"/>
       <use x="127.246094" xlink:href="#DejaVuSans-48"/>
      </g>
     </g>
    </g>
    <g id="xtick_6">
     <g id="line2d_6">
      <g>
       <use style="stroke:#000000;stroke-width:0.8;" x="471.401445" xlink:href="#m23e05f4fa1" y="352.174167"/>
      </g>
     </g>
     <g id="text_6">
      <!-- 250 -->
      <g transform="translate(461.857695 366.772604)scale(0.1 -0.1)">
       <use xlink:href="#DejaVuSans-50"/>
       <use x="63.623047" xlink:href="#DejaVuSans-53"/>
       <use x="127.246094" xlink:href="#DejaVuSans-48"/>
      </g>
     </g>
    </g>
   </g>
   <g id="matplotlib.axis_2">
    <g id="ytick_1">
     <g id="line2d_7">
      <defs>
       <path d="M 0 0 
L -3.5 0 
" id="m4385b2bed8" style="stroke:#000000;stroke-width:0.8;"/>
      </defs>
      <g>
       <use style="stroke:#000000;stroke-width:0.8;" x="83.472344" xlink:href="#m4385b2bed8" y="352.174167"/>
      </g>
     </g>
     <g id="text_7">
      <!-- 0 -->
      <g transform="translate(70.109844 355.973385)scale(0.1 -0.1)">
       <use xlink:href="#DejaVuSans-48"/>
      </g>
     </g>
    </g>
    <g id="ytick_2">
     <g id="line2d_8">
      <g>
       <use style="stroke:#000000;stroke-width:0.8;" x="83.472344" xlink:href="#m4385b2bed8" y="313.944912"/>
      </g>
     </g>
     <g id="text_8">
      <!-- 10 -->
      <g transform="translate(63.747344 317.744131)scale(0.1 -0.1)">
       <use xlink:href="#DejaVuSans-49"/>
       <use x="63.623047" xlink:href="#DejaVuSans-48"/>
      </g>
     </g>
    </g>
    <g id="ytick_3">
     <g id="line2d_9">
      <g>
       <use style="stroke:#000000;stroke-width:0.8;" x="83.472344" xlink:href="#m4385b2bed8" y="275.715658"/>
      </g>
     </g>
     <g id="text_9">
      <!-- 20 -->
      <g transform="translate(63.747344 279.514876)scale(0.1 -0.1)">
       <use xlink:href="#DejaVuSans-50"/>
       <use x="63.623047" xlink:href="#DejaVuSans-48"/>
      </g>
     </g>
    </g>
    <g id="ytick_4">
     <g id="line2d_10">
      <g>
       <use style="stroke:#000000;stroke-width:0.8;" x="83.472344" xlink:href="#m4385b2bed8" y="237.486403"/>
      </g>
     </g>
     <g id="text_10">
      <!-- 30 -->
      <defs>
       <path d="M 40.578125 39.3125 
Q 47.65625 37.796875 51.625 33 
Q 55.609375 28.21875 55.609375 21.1875 
Q 55.609375 10.40625 48.1875 4.484375 
Q 40.765625 -1.421875 27.09375 -1.421875 
Q 22.515625 -1.421875 17.65625 -0.515625 
Q 12.796875 0.390625 7.625 2.203125 
L 7.625 11.71875 
Q 11.71875 9.328125 16.59375 8.109375 
Q 21.484375 6.890625 26.8125 6.890625 
Q 36.078125 6.890625 40.9375 10.546875 
Q 45.796875 14.203125 45.796875 21.1875 
Q 45.796875 27.640625 41.28125 31.265625 
Q 36.765625 34.90625 28.71875 34.90625 
L 20.21875 34.90625 
L 20.21875 43.015625 
L 29.109375 43.015625 
Q 36.375 43.015625 40.234375 45.921875 
Q 44.09375 48.828125 44.09375 54.296875 
Q 44.09375 59.90625 40.109375 62.90625 
Q 36.140625 65.921875 28.71875 65.921875 
Q 24.65625 65.921875 20.015625 65.03125 
Q 15.375 64.15625 9.8125 62.3125 
L 9.8125 71.09375 
Q 15.4375 72.65625 20.34375 73.4375 
Q 25.25 74.21875 29.59375 74.21875 
Q 40.828125 74.21875 47.359375 69.109375 
Q 53.90625 64.015625 53.90625 55.328125 
Q 53.90625 49.265625 50.4375 45.09375 
Q 46.96875 40.921875 40.578125 39.3125 
z
" id="DejaVuSans-51"/>
      </defs>
      <g transform="translate(63.747344 241.285622)scale(0.1 -0.1)">
       <use xlink:href="#DejaVuSans-51"/>
       <use x="63.623047" xlink:href="#DejaVuSans-48"/>
      </g>
     </g>
    </g>
    <g id="ytick_5">
     <g id="line2d_11">
      <g>
       <use style="stroke:#000000;stroke-width:0.8;" x="83.472344" xlink:href="#m4385b2bed8" y="199.257148"/>
      </g>
     </g>
     <g id="text_11">
      <!-- 40 -->
      <defs>
       <path d="M 37.796875 64.3125 
L 12.890625 25.390625 
L 37.796875 25.390625 
z
M 35.203125 72.90625 
L 47.609375 72.90625 
L 47.609375 25.390625 
L 58.015625 25.390625 
L 58.015625 17.1875 
L 47.609375 17.1875 
L 47.609375 0 
L 37.796875 0 
L 37.796875 17.1875 
L 4.890625 17.1875 
L 4.890625 26.703125 
z
" id="DejaVuSans-52"/>
      </defs>
      <g transform="translate(63.747344 203.056367)scale(0.1 -0.1)">
       <use xlink:href="#DejaVuSans-52"/>
       <use x="63.623047" xlink:href="#DejaVuSans-48"/>
      </g>
     </g>
    </g>
    <g id="ytick_6">
     <g id="line2d_12">
      <g>
       <use style="stroke:#000000;stroke-width:0.8;" x="83.472344" xlink:href="#m4385b2bed8" y="161.027894"/>
      </g>
     </g>
     <g id="text_12">
      <!-- 50 -->
      <g transform="translate(63.747344 164.827113)scale(0.1 -0.1)">
       <use xlink:href="#DejaVuSans-53"/>
       <use x="63.623047" xlink:href="#DejaVuSans-48"/>
      </g>
     </g>
    </g>
    <g id="ytick_7">
     <g id="line2d_13">
      <g>
       <use style="stroke:#000000;stroke-width:0.8;" x="83.472344" xlink:href="#m4385b2bed8" y="122.798639"/>
      </g>
     </g>
     <g id="text_13">
      <!-- 60 -->
      <defs>
       <path d="M 33.015625 40.375 
Q 26.375 40.375 22.484375 35.828125 
Q 18.609375 31.296875 18.609375 23.390625 
Q 18.609375 15.53125 22.484375 10.953125 
Q 26.375 6.390625 33.015625 6.390625 
Q 39.65625 6.390625 43.53125 10.953125 
Q 47.40625 15.53125 47.40625 23.390625 
Q 47.40625 31.296875 43.53125 35.828125 
Q 39.65625 40.375 33.015625 40.375 
z
M 52.59375 71.296875 
L 52.59375 62.3125 
Q 48.875 64.0625 45.09375 64.984375 
Q 41.3125 65.921875 37.59375 65.921875 
Q 27.828125 65.921875 22.671875 59.328125 
Q 17.53125 52.734375 16.796875 39.40625 
Q 19.671875 43.65625 24.015625 45.921875 
Q 28.375 48.1875 33.59375 48.1875 
Q 44.578125 48.1875 50.953125 41.515625 
Q 57.328125 34.859375 57.328125 23.390625 
Q 57.328125 12.15625 50.6875 5.359375 
Q 44.046875 -1.421875 33.015625 -1.421875 
Q 20.359375 -1.421875 13.671875 8.265625 
Q 6.984375 17.96875 6.984375 36.375 
Q 6.984375 53.65625 15.1875 63.9375 
Q 23.390625 74.21875 37.203125 74.21875 
Q 40.921875 74.21875 44.703125 73.484375 
Q 48.484375 72.75 52.59375 71.296875 
z
" id="DejaVuSans-54"/>
      </defs>
      <g transform="translate(63.747344 126.597858)scale(0.1 -0.1)">
       <use xlink:href="#DejaVuSans-54"/>
       <use x="63.623047" xlink:href="#DejaVuSans-48"/>
      </g>
     </g>
    </g>
    <g id="ytick_8">
     <g id="line2d_14">
      <g>
       <use style="stroke:#000000;stroke-width:0.8;" x="83.472344" xlink:href="#m4385b2bed8" y="84.569385"/>
      </g>
     </g>
     <g id="text_14">
      <!-- 70 -->
      <defs>
       <path d="M 8.203125 72.90625 
L 55.078125 72.90625 
L 55.078125 68.703125 
L 28.609375 0 
L 18.3125 0 
L 43.21875 64.59375 
L 8.203125 64.59375 
z
" id="DejaVuSans-55"/>
      </defs>
      <g transform="translate(63.747344 88.368603)scale(0.1 -0.1)">
       <use xlink:href="#DejaVuSans-55"/>
       <use x="63.623047" xlink:href="#DejaVuSans-48"/>
      </g>
     </g>
    </g>
    <g id="ytick_9">
     <g id="line2d_15">
      <g>
       <use style="stroke:#000000;stroke-width:0.8;" x="83.472344" xlink:href="#m4385b2bed8" y="46.34013"/>
      </g>
     </g>
     <g id="text_15">
      <!-- 80 -->
      <defs>
       <path d="M 31.78125 34.625 
Q 24.75 34.625 20.71875 30.859375 
Q 16.703125 27.09375 16.703125 20.515625 
Q 16.703125 13.921875 20.71875 10.15625 
Q 24.75 6.390625 31.78125 6.390625 
Q 38.8125 6.390625 42.859375 10.171875 
Q 46.921875 13.96875 46.921875 20.515625 
Q 46.921875 27.09375 42.890625 30.859375 
Q 38.875 34.625 31.78125 34.625 
z
M 21.921875 38.8125 
Q 15.578125 40.375 12.03125 44.71875 
Q 8.5 49.078125 8.5 55.328125 
Q 8.5 64.0625 14.71875 69.140625 
Q 20.953125 74.21875 31.78125 74.21875 
Q 42.671875 74.21875 48.875 69.140625 
Q 55.078125 64.0625 55.078125 55.328125 
Q 55.078125 49.078125 51.53125 44.71875 
Q 48 40.375 41.703125 38.8125 
Q 48.828125 37.15625 52.796875 32.3125 
Q 56.78125 27.484375 56.78125 20.515625 
Q 56.78125 9.90625 50.3125 4.234375 
Q 43.84375 -1.421875 31.78125 -1.421875 
Q 19.734375 -1.421875 13.25 4.234375 
Q 6.78125 9.90625 6.78125 20.515625 
Q 6.78125 27.484375 10.78125 32.3125 
Q 14.796875 37.15625 21.921875 38.8125 
z
M 18.3125 54.390625 
Q 18.3125 48.734375 21.84375 45.5625 
Q 25.390625 42.390625 31.78125 42.390625 
Q 38.140625 42.390625 41.71875 45.5625 
Q 45.3125 48.734375 45.3125 54.390625 
Q 45.3125 60.0625 41.71875 63.234375 
Q 38.140625 66.40625 31.78125 66.40625 
Q 25.390625 66.40625 21.84375 63.234375 
Q 18.3125 60.0625 18.3125 54.390625 
z
" id="DejaVuSans-56"/>
      </defs>
      <g transform="translate(63.747344 50.139349)scale(0.1 -0.1)">
       <use xlink:href="#DejaVuSans-56"/>
       <use x="63.623047" xlink:href="#DejaVuSans-48"/>
      </g>
     </g>
    </g>
    <g id="text_16">
     <!-- throughput -->
     <defs>
      <path d="M 18.3125 70.21875 
L 18.3125 54.6875 
L 36.8125 54.6875 
L 36.8125 47.703125 
L 18.3125 47.703125 
L 18.3125 18.015625 
Q 18.3125 11.328125 20.140625 9.421875 
Q 21.96875 7.515625 27.59375 7.515625 
L 36.8125 7.515625 
L 36.8125 0 
L 27.59375 0 
Q 17.1875 0 13.234375 3.875 
Q 9.28125 7.765625 9.28125 18.015625 
L 9.28125 47.703125 
L 2.6875 47.703125 
L 2.6875 54.6875 
L 9.28125 54.6875 
L 9.28125 70.21875 
z
" id="DejaVuSans-116"/>
      <path d="M 54.890625 33.015625 
L 54.890625 0 
L 45.90625 0 
L 45.90625 32.71875 
Q 45.90625 40.484375 42.875 44.328125 
Q 39.84375 48.1875 33.796875 48.1875 
Q 26.515625 48.1875 22.3125 43.546875 
Q 18.109375 38.921875 18.109375 30.90625 
L 18.109375 0 
L 9.078125 0 
L 9.078125 75.984375 
L 18.109375 75.984375 
L 18.109375 46.1875 
Q 21.34375 51.125 25.703125 53.5625 
Q 30.078125 56 35.796875 56 
Q 45.21875 56 50.046875 50.171875 
Q 54.890625 44.34375 54.890625 33.015625 
z
" id="DejaVuSans-104"/>
      <path d="M 41.109375 46.296875 
Q 39.59375 47.171875 37.8125 47.578125 
Q 36.03125 48 33.890625 48 
Q 26.265625 48 22.1875 43.046875 
Q 18.109375 38.09375 18.109375 28.8125 
L 18.109375 0 
L 9.078125 0 
L 9.078125 54.6875 
L 18.109375 54.6875 
L 18.109375 46.1875 
Q 20.953125 51.171875 25.484375 53.578125 
Q 30.03125 56 36.53125 56 
Q 37.453125 56 38.578125 55.875 
Q 39.703125 55.765625 41.0625 55.515625 
z
" id="DejaVuSans-114"/>
      <path d="M 30.609375 48.390625 
Q 23.390625 48.390625 19.1875 42.75 
Q 14.984375 37.109375 14.984375 27.296875 
Q 14.984375 17.484375 19.15625 11.84375 
Q 23.34375 6.203125 30.609375 6.203125 
Q 37.796875 6.203125 41.984375 11.859375 
Q 46.1875 17.53125 46.1875 27.296875 
Q 46.1875 37.015625 41.984375 42.703125 
Q 37.796875 48.390625 30.609375 48.390625 
z
M 30.609375 56 
Q 42.328125 56 49.015625 48.375 
Q 55.71875 40.765625 55.71875 27.296875 
Q 55.71875 13.875 49.015625 6.21875 
Q 42.328125 -1.421875 30.609375 -1.421875 
Q 18.84375 -1.421875 12.171875 6.21875 
Q 5.515625 13.875 5.515625 27.296875 
Q 5.515625 40.765625 12.171875 48.375 
Q 18.84375 56 30.609375 56 
z
" id="DejaVuSans-111"/>
      <path d="M 8.5 21.578125 
L 8.5 54.6875 
L 17.484375 54.6875 
L 17.484375 21.921875 
Q 17.484375 14.15625 20.5 10.265625 
Q 23.53125 6.390625 29.59375 6.390625 
Q 36.859375 6.390625 41.078125 11.03125 
Q 45.3125 15.671875 45.3125 23.6875 
L 45.3125 54.6875 
L 54.296875 54.6875 
L 54.296875 0 
L 45.3125 0 
L 45.3125 8.40625 
Q 42.046875 3.421875 37.71875 1 
Q 33.40625 -1.421875 27.6875 -1.421875 
Q 18.265625 -1.421875 13.375 4.4375 
Q 8.5 10.296875 8.5 21.578125 
z
M 31.109375 56 
z
" id="DejaVuSans-117"/>
      <path d="M 45.40625 27.984375 
Q 45.40625 37.75 41.375 43.109375 
Q 37.359375 48.484375 30.078125 48.484375 
Q 22.859375 48.484375 18.828125 43.109375 
Q 14.796875 37.75 14.796875 27.984375 
Q 14.796875 18.265625 18.828125 12.890625 
Q 22.859375 7.515625 30.078125 7.515625 
Q 37.359375 7.515625 41.375 12.890625 
Q 45.40625 18.265625 45.40625 27.984375 
z
M 54.390625 6.78125 
Q 54.390625 -7.171875 48.1875 -13.984375 
Q 42 -20.796875 29.203125 -20.796875 
Q 24.46875 -20.796875 20.265625 -20.09375 
Q 16.0625 -19.390625 12.109375 -17.921875 
L 12.109375 -9.1875 
Q 16.0625 -11.328125 19.921875 -12.34375 
Q 23.78125 -13.375 27.78125 -13.375 
Q 36.625 -13.375 41.015625 -8.765625 
Q 45.40625 -4.15625 45.40625 5.171875 
L 45.40625 9.625 
Q 42.625 4.78125 38.28125 2.390625 
Q 33.9375 0 27.875 0 
Q 17.828125 0 11.671875 7.65625 
Q 5.515625 15.328125 5.515625 27.984375 
Q 5.515625 40.671875 11.671875 48.328125 
Q 17.828125 56 27.875 56 
Q 33.9375 56 38.28125 53.609375 
Q 42.625 51.21875 45.40625 46.390625 
L 45.40625 54.6875 
L 54.390625 54.6875 
z
" id="DejaVuSans-103"/>
      <path d="M 18.109375 8.203125 
L 18.109375 -20.796875 
L 9.078125 -20.796875 
L 9.078125 54.6875 
L 18.109375 54.6875 
L 18.109375 46.390625 
Q 20.953125 51.265625 25.265625 53.625 
Q 29.59375 56 35.59375 56 
Q 45.5625 56 51.78125 48.09375 
Q 58.015625 40.1875 58.015625 27.296875 
Q 58.015625 14.40625 51.78125 6.484375 
Q 45.5625 -1.421875 35.59375 -1.421875 
Q 29.59375 -1.421875 25.265625 0.953125 
Q 20.953125 3.328125 18.109375 8.203125 
z
M 48.6875 27.296875 
Q 48.6875 37.203125 44.609375 42.84375 
Q 40.53125 48.484375 33.40625 48.484375 
Q 26.265625 48.484375 22.1875 42.84375 
Q 18.109375 37.203125 18.109375 27.296875 
Q 18.109375 17.390625 22.1875 11.75 
Q 26.265625 6.109375 33.40625 6.109375 
Q 40.53125 6.109375 44.609375 11.75 
Q 48.6875 17.390625 48.6875 27.296875 
z
" id="DejaVuSans-112"/>
     </defs>
     <g transform="translate(46.469844 221.675365)rotate(-90)scale(0.1 -0.1)">
      <use xlink:href="#DejaVuSans-116"/>
      <use x="39.208984" xlink:href="#DejaVuSans-104"/>
      <use x="102.587891" xlink:href="#DejaVuSans-114"/>
      <use x="143.669922" xlink:href="#DejaVuSans-111"/>
      <use x="204.851562" xlink:href="#DejaVuSans-117"/>
      <use x="268.230469" xlink:href="#DejaVuSans-103"/>
      <use x="331.707031" xlink:href="#DejaVuSans-104"/>
      <use x="395.085938" xlink:href="#DejaVuSans-112"/>
      <use x="458.5625" xlink:href="#DejaVuSans-117"/>
      <use x="521.941406" xlink:href="#DejaVuSans-116"/>
     </g>
     <!-- (mbit / second) -->
     <defs>
      <path d="M 31 75.875 
Q 24.46875 64.65625 21.28125 53.65625 
Q 18.109375 42.671875 18.109375 31.390625 
Q 18.109375 20.125 21.3125 9.0625 
Q 24.515625 -2 31 -13.1875 
L 23.1875 -13.1875 
Q 15.875 -1.703125 12.234375 9.375 
Q 8.59375 20.453125 8.59375 31.390625 
Q 8.59375 42.28125 12.203125 53.3125 
Q 15.828125 64.359375 23.1875 75.875 
z
" id="DejaVuSans-40"/>
      <path d="M 52 44.1875 
Q 55.375 50.25 60.0625 53.125 
Q 64.75 56 71.09375 56 
Q 79.640625 56 84.28125 50.015625 
Q 88.921875 44.046875 88.921875 33.015625 
L 88.921875 0 
L 79.890625 0 
L 79.890625 32.71875 
Q 79.890625 40.578125 77.09375 44.375 
Q 74.3125 48.1875 68.609375 48.1875 
Q 61.625 48.1875 57.5625 43.546875 
Q 53.515625 38.921875 53.515625 30.90625 
L 53.515625 0 
L 44.484375 0 
L 44.484375 32.71875 
Q 44.484375 40.625 41.703125 44.40625 
Q 38.921875 48.1875 33.109375 48.1875 
Q 26.21875 48.1875 22.15625 43.53125 
Q 18.109375 38.875 18.109375 30.90625 
L 18.109375 0 
L 9.078125 0 
L 9.078125 54.6875 
L 18.109375 54.6875 
L 18.109375 46.1875 
Q 21.1875 51.21875 25.484375 53.609375 
Q 29.78125 56 35.6875 56 
Q 41.65625 56 45.828125 52.96875 
Q 50 49.953125 52 44.1875 
z
" id="DejaVuSans-109"/>
      <path d="M 48.6875 27.296875 
Q 48.6875 37.203125 44.609375 42.84375 
Q 40.53125 48.484375 33.40625 48.484375 
Q 26.265625 48.484375 22.1875 42.84375 
Q 18.109375 37.203125 18.109375 27.296875 
Q 18.109375 17.390625 22.1875 11.75 
Q 26.265625 6.109375 33.40625 6.109375 
Q 40.53125 6.109375 44.609375 11.75 
Q 48.6875 17.390625 48.6875 27.296875 
z
M 18.109375 46.390625 
Q 20.953125 51.265625 25.265625 53.625 
Q 29.59375 56 35.59375 56 
Q 45.5625 56 51.78125 48.09375 
Q 58.015625 40.1875 58.015625 27.296875 
Q 58.015625 14.40625 51.78125 6.484375 
Q 45.5625 -1.421875 35.59375 -1.421875 
Q 29.59375 -1.421875 25.265625 0.953125 
Q 20.953125 3.328125 18.109375 8.203125 
L 18.109375 0 
L 9.078125 0 
L 9.078125 75.984375 
L 18.109375 75.984375 
z
" id="DejaVuSans-98"/>
      <path d="M 9.421875 54.6875 
L 18.40625 54.6875 
L 18.40625 0 
L 9.421875 0 
z
M 9.421875 75.984375 
L 18.40625 75.984375 
L 18.40625 64.59375 
L 9.421875 64.59375 
z
" id="DejaVuSans-105"/>
      <path id="DejaVuSans-32"/>
      <path d="M 25.390625 72.90625 
L 33.6875 72.90625 
L 8.296875 -9.28125 
L 0 -9.28125 
z
" id="DejaVuSans-47"/>
      <path d="M 44.28125 53.078125 
L 44.28125 44.578125 
Q 40.484375 46.53125 36.375 47.5 
Q 32.28125 48.484375 27.875 48.484375 
Q 21.1875 48.484375 17.84375 46.4375 
Q 14.5 44.390625 14.5 40.28125 
Q 14.5 37.15625 16.890625 35.375 
Q 19.28125 33.59375 26.515625 31.984375 
L 29.59375 31.296875 
Q 39.15625 29.25 43.1875 25.515625 
Q 47.21875 21.78125 47.21875 15.09375 
Q 47.21875 7.46875 41.1875 3.015625 
Q 35.15625 -1.421875 24.609375 -1.421875 
Q 20.21875 -1.421875 15.453125 -0.5625 
Q 10.6875 0.296875 5.421875 2 
L 5.421875 11.28125 
Q 10.40625 8.6875 15.234375 7.390625 
Q 20.0625 6.109375 24.8125 6.109375 
Q 31.15625 6.109375 34.5625 8.28125 
Q 37.984375 10.453125 37.984375 14.40625 
Q 37.984375 18.0625 35.515625 20.015625 
Q 33.0625 21.96875 24.703125 23.78125 
L 21.578125 24.515625 
Q 13.234375 26.265625 9.515625 29.90625 
Q 5.8125 33.546875 5.8125 39.890625 
Q 5.8125 47.609375 11.28125 51.796875 
Q 16.75 56 26.8125 56 
Q 31.78125 56 36.171875 55.265625 
Q 40.578125 54.546875 44.28125 53.078125 
z
" id="DejaVuSans-115"/>
      <path d="M 56.203125 29.59375 
L 56.203125 25.203125 
L 14.890625 25.203125 
Q 15.484375 15.921875 20.484375 11.0625 
Q 25.484375 6.203125 34.421875 6.203125 
Q 39.59375 6.203125 44.453125 7.46875 
Q 49.3125 8.734375 54.109375 11.28125 
L 54.109375 2.78125 
Q 49.265625 0.734375 44.1875 -0.34375 
Q 39.109375 -1.421875 33.890625 -1.421875 
Q 20.796875 -1.421875 13.15625 6.1875 
Q 5.515625 13.8125 5.515625 26.8125 
Q 5.515625 40.234375 12.765625 48.109375 
Q 20.015625 56 32.328125 56 
Q 43.359375 56 49.78125 48.890625 
Q 56.203125 41.796875 56.203125 29.59375 
z
M 47.21875 32.234375 
Q 47.125 39.59375 43.09375 43.984375 
Q 39.0625 48.390625 32.421875 48.390625 
Q 24.90625 48.390625 20.390625 44.140625 
Q 15.875 39.890625 15.1875 32.171875 
z
" id="DejaVuSans-101"/>
      <path d="M 48.78125 52.59375 
L 48.78125 44.1875 
Q 44.96875 46.296875 41.140625 47.34375 
Q 37.3125 48.390625 33.40625 48.390625 
Q 24.65625 48.390625 19.8125 42.84375 
Q 14.984375 37.3125 14.984375 27.296875 
Q 14.984375 17.28125 19.8125 11.734375 
Q 24.65625 6.203125 33.40625 6.203125 
Q 37.3125 6.203125 41.140625 7.25 
Q 44.96875 8.296875 48.78125 10.40625 
L 48.78125 2.09375 
Q 45.015625 0.34375 40.984375 -0.53125 
Q 36.96875 -1.421875 32.421875 -1.421875 
Q 20.0625 -1.421875 12.78125 6.34375 
Q 5.515625 14.109375 5.515625 27.296875 
Q 5.515625 40.671875 12.859375 48.328125 
Q 20.21875 56 33.015625 56 
Q 37.15625 56 41.109375 55.140625 
Q 45.0625 54.296875 48.78125 52.59375 
z
" id="DejaVuSans-99"/>
      <path d="M 54.890625 33.015625 
L 54.890625 0 
L 45.90625 0 
L 45.90625 32.71875 
Q 45.90625 40.484375 42.875 44.328125 
Q 39.84375 48.1875 33.796875 48.1875 
Q 26.515625 48.1875 22.3125 43.546875 
Q 18.109375 38.921875 18.109375 30.90625 
L 18.109375 0 
L 9.078125 0 
L 9.078125 54.6875 
L 18.109375 54.6875 
L 18.109375 46.1875 
Q 21.34375 51.125 25.703125 53.5625 
Q 30.078125 56 35.796875 56 
Q 45.21875 56 50.046875 50.171875 
Q 54.890625 44.34375 54.890625 33.015625 
z
" id="DejaVuSans-110"/>
      <path d="M 45.40625 46.390625 
L 45.40625 75.984375 
L 54.390625 75.984375 
L 54.390625 0 
L 45.40625 0 
L 45.40625 8.203125 
Q 42.578125 3.328125 38.25 0.953125 
Q 33.9375 -1.421875 27.875 -1.421875 
Q 17.96875 -1.421875 11.734375 6.484375 
Q 5.515625 14.40625 5.515625 27.296875 
Q 5.515625 40.1875 11.734375 48.09375 
Q 17.96875 56 27.875 56 
Q 33.9375 56 38.25 53.625 
Q 42.578125 51.265625 45.40625 46.390625 
z
M 14.796875 27.296875 
Q 14.796875 17.390625 18.875 11.75 
Q 22.953125 6.109375 30.078125 6.109375 
Q 37.203125 6.109375 41.296875 11.75 
Q 45.40625 17.390625 45.40625 27.296875 
Q 45.40625 37.203125 41.296875 42.84375 
Q 37.203125 48.484375 30.078125 48.484375 
Q 22.953125 48.484375 18.875 42.84375 
Q 14.796875 37.203125 14.796875 27.296875 
z
" id="DejaVuSans-100"/>
      <path d="M 8.015625 75.875 
L 15.828125 75.875 
Q 23.140625 64.359375 26.78125 53.3125 
Q 30.421875 42.28125 30.421875 31.390625 
Q 30.421875 20.453125 26.78125 9.375 
Q 23.140625 -1.703125 15.828125 -13.1875 
L 8.015625 -13.1875 
Q 14.5 -2 17.703125 9.0625 
Q 20.90625 20.125 20.90625 31.390625 
Q 20.90625 42.671875 17.703125 53.65625 
Q 14.5 64.65625 8.015625 75.875 
z
" id="DejaVuSans-41"/>
     </defs>
     <g transform="translate(57.667656 231.608958)rotate(-90)scale(0.1 -0.1)">
      <use xlink:href="#DejaVuSans-40"/>
      <use x="39.013672" xlink:href="#DejaVuSans-109"/>
      <use x="136.425781" xlink:href="#DejaVuSans-98"/>
      <use x="199.902344" xlink:href="#DejaVuSans-105"/>
      <use x="227.685547" xlink:href="#DejaVuSans-116"/>
      <use x="266.894531" xlink:href="#DejaVuSans-32"/>
      <use x="298.681641" xlink:href="#DejaVuSans-47"/>
      <use x="332.373047" xlink:href="#DejaVuSans-32"/>
      <use x="364.160156" xlink:href="#DejaVuSans-115"/>
      <use x="416.259766" xlink:href="#DejaVuSans-101"/>
      <use x="477.783203" xlink:href="#DejaVuSans-99"/>
      <use x="532.763672" xlink:href="#DejaVuSans-111"/>
      <use x="593.945312" xlink:href="#DejaVuSans-110"/>
      <use x="657.324219" xlink:href="#DejaVuSans-100"/>
      <use x="720.800781" xlink:href="#DejaVuSans-41"/>
     </g>
    </g>
   </g>
   <g id="line2d_16">
    <path clip-path="url(#p3820e4b4b5)" d="M 106.73419 283.361508 
L 107.469477 256.60103 
L 108.940052 256.60103 
L 109.67534 260.423956 
L 111.145914 252.778105 
L 111.881202 252.778105 
L 112.616489 241.309328 
L 114.087064 226.017627 
L 114.822351 229.840552 
L 115.557639 226.017627 
L 117.028213 210.725925 
L 117.763501 206.902999 
L 118.498788 161.027894 
L 119.234076 161.027894 
L 119.969363 168.673745 
L 121.439938 176.319596 
L 122.175225 172.49667 
L 122.910513 183.965447 
L 125.116375 172.49667 
L 125.851662 164.850819 
L 126.58695 168.673745 
L 127.322237 168.673745 
L 128.057524 164.850819 
L 128.792812 164.850819 
L 129.528099 168.673745 
L 130.998674 168.673745 
L 131.733961 164.850819 
L 132.469249 168.673745 
L 133.204536 256.60103 
L 133.939824 195.434223 
L 134.675111 168.673745 
L 135.410398 161.027894 
L 136.145686 164.850819 
L 136.880973 164.850819 
L 137.616261 161.027894 
L 138.351548 164.850819 
L 139.086835 149.559117 
L 139.822123 153.382043 
L 140.55741 164.850819 
L 141.292698 161.027894 
L 142.027985 164.850819 
L 142.763272 176.319596 
L 143.49856 180.142521 
L 144.233847 172.49667 
L 144.969135 168.673745 
L 145.704422 176.319596 
L 146.439709 164.850819 
L 147.910284 164.850819 
L 148.645572 283.361508 
L 149.380859 183.965447 
L 150.116146 180.142521 
L 150.851434 180.142521 
L 151.586721 176.319596 
L 152.322009 176.319596 
L 153.057296 180.142521 
L 153.792583 180.142521 
L 154.527871 172.49667 
L 155.263158 172.49667 
L 155.998445 180.142521 
L 156.733733 176.319596 
L 157.46902 183.965447 
L 158.204308 199.257148 
L 158.939595 195.434223 
L 159.674882 199.257148 
L 160.41017 206.902999 
L 161.145457 203.080074 
L 161.880745 206.902999 
L 162.616032 206.902999 
L 163.351319 226.017627 
L 164.086607 333.059539 
L 164.821894 260.423956 
L 166.292469 245.132254 
L 167.027756 252.778105 
L 168.498331 260.423956 
L 169.233619 260.423956 
L 169.968906 256.60103 
L 171.439481 264.246881 
L 172.174768 256.60103 
L 173.645343 256.60103 
L 174.38063 252.778105 
L 175.115918 264.246881 
L 175.851205 260.423956 
L 176.586493 264.246881 
L 177.32178 260.423956 
L 178.057067 268.069807 
L 178.792355 252.778105 
L 179.527642 298.65321 
L 180.26293 279.538583 
L 180.998217 279.538583 
L 181.733504 287.184434 
L 182.468792 283.361508 
L 183.204079 283.361508 
L 185.409941 271.892732 
L 186.145229 271.892732 
L 186.880516 264.246881 
L 187.615804 252.778105 
L 188.351091 245.132254 
L 189.086378 245.132254 
L 189.821666 241.309328 
L 191.292241 241.309328 
L 192.027528 237.486403 
L 192.762815 222.194701 
L 193.498103 210.725925 
L 194.23339 268.069807 
L 194.968678 252.778105 
L 197.17454 241.309328 
L 197.909827 245.132254 
L 199.380402 237.486403 
L 200.115689 241.309328 
L 201.586264 241.309328 
L 203.056839 233.663477 
L 204.527414 241.309328 
L 205.262701 241.309328 
L 205.997988 233.663477 
L 206.733276 229.840552 
L 207.468563 229.840552 
L 208.203851 222.194701 
L 208.939138 206.902999 
L 209.674425 264.246881 
L 210.409713 218.371776 
L 211.880288 218.371776 
L 212.615575 222.194701 
L 213.350862 214.54885 
L 214.08615 210.725925 
L 214.821437 210.725925 
L 215.556725 206.902999 
L 216.292012 210.725925 
L 217.027299 210.725925 
L 217.762587 206.902999 
L 219.233162 206.902999 
L 219.968449 203.080074 
L 220.703736 203.080074 
L 221.439024 206.902999 
L 222.909599 229.840552 
L 223.644886 222.194701 
L 224.380173 183.965447 
L 225.115461 161.027894 
L 225.850748 164.850819 
L 226.586036 172.49667 
L 227.321323 256.60103 
L 228.05661 191.611297 
L 228.791898 195.434223 
L 229.527185 195.434223 
L 230.262473 191.611297 
L 230.99776 195.434223 
L 231.733047 191.611297 
L 233.93891 191.611297 
L 235.409484 176.319596 
L 237.615347 164.850819 
L 238.350634 157.204968 
L 239.085921 145.736192 
L 239.821209 115.152788 
L 240.556496 118.975714 
L 241.291783 118.975714 
L 242.027071 134.267416 
L 242.762358 226.017627 
L 243.497646 138.090341 
L 244.232933 138.090341 
L 244.96822 141.913267 
L 245.703508 141.913267 
L 246.438795 138.090341 
L 247.174083 126.621565 
L 247.90937 126.621565 
L 248.644657 138.090341 
L 250.115232 130.44449 
L 251.585807 145.736192 
L 252.321094 157.204968 
L 253.056382 153.382043 
L 253.791669 145.736192 
L 254.526957 92.215236 
L 255.262244 115.152788 
L 255.997531 134.267416 
L 256.732819 138.090341 
L 257.468106 241.309328 
L 258.203394 191.611297 
L 258.938681 168.673745 
L 259.673968 176.319596 
L 261.144543 183.965447 
L 261.879831 180.142521 
L 262.615118 180.142521 
L 263.350405 176.319596 
L 264.82098 176.319596 
L 265.556268 183.965447 
L 266.291555 180.142521 
L 267.026842 180.142521 
L 267.76213 187.788372 
L 269.232705 195.434223 
L 269.967992 203.080074 
L 270.703279 203.080074 
L 271.438567 214.54885 
L 272.173854 222.194701 
L 272.909142 283.361508 
L 273.644429 218.371776 
L 274.379716 214.54885 
L 275.115004 214.54885 
L 275.850291 206.902999 
L 276.585579 206.902999 
L 277.320866 210.725925 
L 278.056153 210.725925 
L 278.791441 214.54885 
L 279.526728 214.54885 
L 280.262015 210.725925 
L 281.73259 218.371776 
L 282.467878 218.371776 
L 283.938452 203.080074 
L 284.67374 210.725925 
L 285.409027 210.725925 
L 286.144315 206.902999 
L 286.879602 214.54885 
L 287.614889 275.715658 
L 288.350177 218.371776 
L 289.085464 210.725925 
L 289.820752 206.902999 
L 290.556039 191.611297 
L 291.291326 183.965447 
L 292.026614 183.965447 
L 292.761901 176.319596 
L 293.497189 183.965447 
L 294.232476 176.319596 
L 294.967763 172.49667 
L 296.438338 172.49667 
L 297.173626 176.319596 
L 300.114775 176.319596 
L 300.850063 168.673745 
L 301.58535 168.673745 
L 302.320637 164.850819 
L 303.055925 252.778105 
L 303.791212 168.673745 
L 304.5265 161.027894 
L 305.997074 161.027894 
L 307.467649 153.382043 
L 308.938224 153.382043 
L 309.673511 149.559117 
L 310.408799 149.559117 
L 311.144086 161.027894 
L 311.879374 157.204968 
L 312.614661 168.673745 
L 313.349948 172.49667 
L 314.085236 180.142521 
L 314.820523 180.142521 
L 315.555811 183.965447 
L 316.291098 183.965447 
L 317.026385 176.319596 
L 317.761673 241.309328 
L 318.49696 256.60103 
L 319.232248 153.382043 
L 319.967535 153.382043 
L 320.702822 149.559117 
L 322.173397 149.559117 
L 322.908684 141.913267 
L 323.643972 138.090341 
L 324.379259 130.44449 
L 325.114547 130.44449 
L 325.849834 145.736192 
L 326.585121 153.382043 
L 328.055696 153.382043 
L 328.790984 157.204968 
L 329.526271 164.850819 
L 330.261558 161.027894 
L 330.996846 164.850819 
L 331.732133 176.319596 
L 332.467421 180.142521 
L 333.202708 248.955179 
L 333.937995 191.611297 
L 334.673283 183.965447 
L 336.143858 176.319596 
L 336.879145 164.850819 
L 337.614432 161.027894 
L 338.34972 161.027894 
L 339.085007 176.319596 
L 339.820295 187.788372 
L 342.026157 210.725925 
L 342.761444 206.902999 
L 343.496732 218.371776 
L 344.232019 222.194701 
L 344.967306 222.194701 
L 345.702594 229.840552 
L 347.173169 222.194701 
L 347.908456 226.017627 
L 348.643743 287.184434 
L 349.379031 222.194701 
L 351.584893 222.194701 
L 352.32018 206.902999 
L 353.055468 203.080074 
L 353.790755 191.611297 
L 355.26133 183.965447 
L 355.996617 183.965447 
L 356.731905 187.788372 
L 358.937767 187.788372 
L 359.673054 180.142521 
L 360.408342 183.965447 
L 361.143629 180.142521 
L 362.614204 187.788372 
L 363.349491 245.132254 
L 364.084779 180.142521 
L 364.820066 157.204968 
L 365.555353 164.850819 
L 366.290641 168.673745 
L 367.025928 164.850819 
L 367.761216 164.850819 
L 368.496503 161.027894 
L 369.23179 168.673745 
L 370.702365 191.611297 
L 371.437653 187.788372 
L 372.908227 195.434223 
L 373.643515 206.902999 
L 374.378802 206.902999 
L 375.11409 199.257148 
L 375.849377 203.080074 
L 376.584664 195.434223 
L 377.319952 195.434223 
L 378.055239 183.965447 
L 378.790527 264.246881 
L 379.525814 180.142521 
L 380.261101 183.965447 
L 380.996389 183.965447 
L 381.731676 172.49667 
L 382.466964 172.49667 
L 383.202251 164.850819 
L 384.672826 172.49667 
L 385.408113 164.850819 
L 386.143401 168.673745 
L 386.878688 176.319596 
L 387.613975 176.319596 
L 388.349263 172.49667 
L 389.08455 164.850819 
L 391.290412 164.850819 
L 392.0257 153.382043 
L 392.760987 149.559117 
L 393.496275 218.371776 
L 394.231562 195.434223 
L 394.966849 157.204968 
L 395.702137 153.382043 
L 396.437424 157.204968 
L 398.643286 157.204968 
L 399.378574 164.850819 
L 400.849149 172.49667 
L 401.584436 168.673745 
L 402.319723 172.49667 
L 403.790298 164.850819 
L 404.525585 164.850819 
L 405.260873 168.673745 
L 405.99616 168.673745 
L 406.731448 164.850819 
L 407.466735 164.850819 
L 408.202022 168.673745 
L 408.93731 306.299061 
L 409.672597 183.965447 
L 410.407885 168.673745 
L 411.143172 172.49667 
L 411.878459 172.49667 
L 413.349034 180.142521 
L 414.084322 180.142521 
L 414.819609 187.788372 
L 415.554896 187.788372 
L 417.025471 195.434223 
L 418.496046 195.434223 
L 419.231333 206.902999 
L 419.966621 214.54885 
L 421.437196 214.54885 
L 422.172483 226.017627 
L 422.90777 233.663477 
L 423.643058 237.486403 
L 424.378345 317.767838 
L 425.113633 264.246881 
L 425.84892 256.60103 
L 427.319495 264.246881 
L 428.054782 271.892732 
L 428.79007 268.069807 
L 429.525357 275.715658 
L 430.260644 279.538583 
L 431.731219 271.892732 
L 432.466507 264.246881 
L 433.937081 271.892732 
L 434.672369 268.069807 
L 435.407656 260.423956 
L 436.142944 264.246881 
L 436.878231 275.715658 
L 437.613518 268.069807 
L 438.348806 264.246881 
L 439.084093 264.246881 
L 439.819381 333.059539 
L 440.554668 245.132254 
L 441.289955 241.309328 
L 442.025243 241.309328 
L 443.495818 226.017627 
L 444.231105 206.902999 
L 444.966392 210.725925 
L 445.70168 191.611297 
L 446.436967 183.965447 
L 447.172254 195.434223 
L 447.907542 203.080074 
L 448.642829 199.257148 
L 449.378117 199.257148 
L 450.113404 195.434223 
L 450.848691 195.434223 
L 451.583979 191.611297 
L 453.054554 176.319596 
L 453.789841 176.319596 
L 454.525128 195.434223 
L 455.260416 241.309328 
L 455.995703 164.850819 
L 456.730991 161.027894 
L 457.466278 164.850819 
L 458.936853 164.850819 
L 459.67214 161.027894 
L 461.142715 145.736192 
L 462.61329 145.736192 
L 463.348577 153.382043 
L 464.083865 153.382043 
L 464.819152 157.204968 
L 465.554439 157.204968 
L 466.289727 153.382043 
L 467.025014 157.204968 
L 467.760302 157.204968 
L 468.495589 161.027894 
L 469.230876 176.319596 
L 469.966164 283.361508 
L 470.701451 268.069807 
L 471.436739 233.663477 
L 472.907313 248.955179 
L 473.642601 252.778105 
L 474.377888 260.423956 
L 475.848463 268.069807 
L 476.58375 268.069807 
L 477.319038 260.423956 
L 478.054325 264.246881 
L 480.260187 264.246881 
L 480.995475 256.60103 
L 483.201337 222.194701 
L 484.671912 229.840552 
L 485.407199 275.715658 
L 486.142486 233.663477 
L 486.877774 233.663477 
L 487.613061 237.486403 
L 489.083636 229.840552 
L 489.818923 222.194701 
L 490.554211 222.194701 
L 492.024786 214.54885 
L 493.49536 199.257148 
L 494.965935 199.257148 
L 496.43651 206.902999 
L 497.171797 203.080074 
L 497.907085 206.902999 
L 498.642372 206.902999 
L 499.37766 203.080074 
L 500.112947 222.194701 
L 500.848234 271.892732 
L 501.583522 241.309328 
L 502.318809 229.840552 
L 503.054097 229.840552 
L 503.789384 226.017627 
L 503.789384 226.017627 
" style="fill:none;stroke:#1f77b4;stroke-linecap:square;stroke-width:1.5;"/>
   </g>
   <g id="line2d_17">
    <path clip-path="url(#p3820e4b4b5)" d="M 109.687104 333.059539 
L 110.422392 348.351241 
L 111.157679 348.351241 
L 111.892966 344.528316 
L 112.628254 352.174167 
L 119.981128 352.174167 
L 121.451702 344.528316 
L 122.18699 344.528316 
L 122.922277 340.70539 
L 124.392852 348.351241 
L 125.128139 348.351241 
L 125.863427 352.174167 
L 127.334002 352.174167 
L 128.069289 348.351241 
L 128.804576 352.174167 
L 133.216301 352.174167 
L 133.951588 348.351241 
L 134.686876 352.174167 
L 142.775037 352.174167 
L 143.510324 348.351241 
L 144.245612 348.351241 
L 144.980899 352.174167 
L 147.922049 352.174167 
L 148.657336 348.351241 
L 149.392624 352.174167 
L 163.363084 352.174167 
L 164.098371 344.528316 
L 164.833659 352.174167 
L 165.568946 352.174167 
L 166.304234 348.351241 
L 168.510096 348.351241 
L 169.245383 352.174167 
L 176.598257 352.174167 
L 177.333545 348.351241 
L 178.068832 352.174167 
L 178.804119 352.174167 
L 179.539407 348.351241 
L 180.274694 352.174167 
L 181.009982 344.528316 
L 181.745269 340.70539 
L 182.480556 340.70539 
L 183.215844 344.528316 
L 184.686419 344.528316 
L 185.421706 348.351241 
L 186.156993 348.351241 
L 186.892281 352.174167 
L 189.83343 352.174167 
L 190.568718 348.351241 
L 191.304005 352.174167 
L 193.509867 352.174167 
L 194.245155 344.528316 
L 195.71573 352.174167 
L 197.186304 352.174167 
L 197.921592 348.351241 
L 198.656879 352.174167 
L 201.598029 352.174167 
L 202.333316 348.351241 
L 203.068603 352.174167 
L 208.950903 352.174167 
L 209.68619 348.351241 
L 217.039064 348.351241 
L 217.774351 352.174167 
L 219.244926 352.174167 
L 219.980214 348.351241 
L 220.715501 352.174167 
L 225.862513 352.174167 
L 227.333088 336.882465 
L 228.068375 344.528316 
L 229.53895 352.174167 
L 231.009525 352.174167 
L 231.744812 348.351241 
L 232.480099 352.174167 
L 242.038835 352.174167 
L 242.774123 348.351241 
L 243.50941 348.351241 
L 244.244698 352.174167 
L 250.862284 352.174167 
L 251.597572 348.351241 
L 252.332859 352.174167 
L 253.803434 352.174167 
L 254.538721 348.351241 
L 255.274009 348.351241 
L 256.009296 352.174167 
L 256.744583 352.174167 
L 257.479871 348.351241 
L 258.215158 348.351241 
L 258.950446 352.174167 
L 261.891595 352.174167 
L 262.626883 348.351241 
L 263.36217 348.351241 
L 264.097457 352.174167 
L 266.30332 352.174167 
L 267.038607 348.351241 
L 267.773894 352.174167 
L 272.185619 352.174167 
L 272.920906 348.351241 
L 273.656194 348.351241 
L 274.391481 352.174167 
L 275.126768 348.351241 
L 275.862056 352.174167 
L 287.626654 352.174167 
L 288.361941 348.351241 
L 289.097229 352.174167 
L 289.832516 348.351241 
L 290.567804 352.174167 
L 300.861827 352.174167 
L 301.597115 348.351241 
L 303.802977 348.351241 
L 304.538264 344.528316 
L 306.008839 352.174167 
L 306.744126 352.174167 
L 307.479414 348.351241 
L 308.214701 352.174167 
L 310.420563 352.174167 
L 311.155851 348.351241 
L 311.891138 348.351241 
L 312.626426 352.174167 
L 313.361713 348.351241 
L 314.097 352.174167 
L 314.832288 348.351241 
L 316.302863 348.351241 
L 317.03815 352.174167 
L 317.773437 352.174167 
L 318.508725 348.351241 
L 319.244012 352.174167 
L 325.126311 352.174167 
L 325.861599 348.351241 
L 330.273323 348.351241 
L 331.00861 352.174167 
L 333.214473 352.174167 
L 333.94976 348.351241 
L 334.685047 352.174167 
L 335.420335 352.174167 
L 336.155622 348.351241 
L 336.89091 352.174167 
L 343.508496 352.174167 
L 344.243784 348.351241 
L 344.979071 348.351241 
L 345.714358 344.528316 
L 346.449646 344.528316 
L 347.184933 348.351241 
L 347.920221 348.351241 
L 348.655508 344.528316 
L 351.596658 344.528316 
L 352.331945 348.351241 
L 353.067232 348.351241 
L 353.80252 352.174167 
L 356.743669 352.174167 
L 357.478957 348.351241 
L 358.214244 348.351241 
L 358.949532 352.174167 
L 359.684819 352.174167 
L 361.155394 344.528316 
L 362.625968 344.528316 
L 363.361256 336.882465 
L 364.096543 340.70539 
L 364.831831 352.174167 
L 365.567118 348.351241 
L 366.302405 352.174167 
L 383.949303 352.174167 
L 384.68459 348.351241 
L 385.419878 348.351241 
L 386.155165 352.174167 
L 393.508039 352.174167 
L 394.243327 348.351241 
L 394.978614 352.174167 
L 401.596201 352.174167 
L 402.331488 348.351241 
L 403.066775 352.174167 
L 410.419649 352.174167 
L 411.154937 348.351241 
L 411.890224 348.351241 
L 412.625511 352.174167 
L 413.360799 348.351241 
L 414.096086 352.174167 
L 417.037236 352.174167 
L 417.772523 348.351241 
L 418.507811 352.174167 
L 425.860685 352.174167 
L 426.595972 348.351241 
L 427.331259 352.174167 
L 428.801834 352.174167 
L 429.537122 348.351241 
L 430.272409 352.174167 
L 434.684133 352.174167 
L 435.419421 348.351241 
L 436.154708 352.174167 
L 439.095858 352.174167 
L 439.831145 348.351241 
L 440.566433 348.351241 
L 441.30172 352.174167 
L 444.978157 352.174167 
L 445.713444 348.351241 
L 446.448732 352.174167 
L 453.801606 352.174167 
L 455.27218 344.528316 
L 456.742755 352.174167 
L 459.683905 352.174167 
L 460.419192 348.351241 
L 461.15448 352.174167 
L 461.889767 348.351241 
L 462.625054 352.174167 
L 463.360342 352.174167 
L 464.095629 348.351241 
L 464.830917 352.174167 
L 465.566204 352.174167 
L 466.301491 348.351241 
L 469.242641 348.351241 
L 470.713216 340.70539 
L 471.448503 348.351241 
L 473.654365 348.351241 
L 474.389653 352.174167 
L 480.271952 352.174167 
L 481.007239 348.351241 
L 481.742527 348.351241 
L 482.477814 352.174167 
L 484.683676 352.174167 
L 485.418964 348.351241 
L 486.154251 348.351241 
L 486.889538 352.174167 
L 490.565975 352.174167 
L 491.301263 348.351241 
L 492.03655 348.351241 
L 492.771838 352.174167 
L 495.712987 352.174167 
L 496.448275 344.528316 
L 497.918849 352.174167 
L 500.124712 352.174167 
L 500.859999 348.351241 
L 501.595286 352.174167 
L 505.271723 352.174167 
L 506.007011 348.351241 
L 506.007011 348.351241 
" style="fill:none;stroke:#ff7f0e;stroke-linecap:square;stroke-width:1.5;"/>
   </g>
   <g id="line2d_18">
    <path clip-path="url(#p3820e4b4b5)" d="M 112.565019 348.351241 
L 113.300306 352.174167 
L 117.712031 352.174167 
L 118.447318 348.351241 
L 119.182606 352.174167 
L 119.917893 352.174167 
L 120.65318 348.351241 
L 124.329617 348.351241 
L 125.064905 352.174167 
L 128.741342 352.174167 
L 129.476629 348.351241 
L 130.211917 352.174167 
L 133.153066 352.174167 
L 133.888353 348.351241 
L 134.623641 352.174167 
L 150.799964 352.174167 
L 151.535251 348.351241 
L 152.270538 348.351241 
L 153.005826 352.174167 
L 163.299849 352.174167 
L 164.035137 344.528316 
L 165.505712 352.174167 
L 166.976286 352.174167 
L 167.711574 348.351241 
L 168.446861 348.351241 
L 169.182149 352.174167 
L 172.858586 352.174167 
L 173.593873 348.351241 
L 175.064448 348.351241 
L 175.799735 352.174167 
L 176.535022 348.351241 
L 177.27031 352.174167 
L 178.005597 352.174167 
L 178.740885 348.351241 
L 180.211459 348.351241 
L 180.946747 344.528316 
L 181.682034 344.528316 
L 182.417322 348.351241 
L 183.152609 344.528316 
L 183.887896 348.351241 
L 184.623184 348.351241 
L 185.358471 352.174167 
L 191.976058 352.174167 
L 192.711345 348.351241 
L 193.446633 352.174167 
L 194.18192 348.351241 
L 194.917207 352.174167 
L 200.799507 352.174167 
L 201.534794 348.351241 
L 202.270081 352.174167 
L 203.005369 352.174167 
L 203.740656 348.351241 
L 204.475944 348.351241 
L 205.211231 352.174167 
L 205.946518 352.174167 
L 206.681806 348.351241 
L 208.887668 348.351241 
L 209.622955 344.528316 
L 210.358243 348.351241 
L 212.564105 348.351241 
L 213.299392 352.174167 
L 214.03468 348.351241 
L 214.769967 348.351241 
L 215.505254 352.174167 
L 216.240542 348.351241 
L 216.975829 348.351241 
L 217.711117 352.174167 
L 218.446404 348.351241 
L 219.916979 348.351241 
L 220.652266 352.174167 
L 221.387554 348.351241 
L 222.122841 352.174167 
L 225.063991 352.174167 
L 226.534565 344.528316 
L 227.269853 344.528316 
L 228.740428 352.174167 
L 241.975601 352.174167 
L 242.710888 348.351241 
L 245.652038 348.351241 
L 246.387325 352.174167 
L 247.8579 352.174167 
L 248.593187 348.351241 
L 249.328475 348.351241 
L 250.063762 352.174167 
L 253.740199 352.174167 
L 254.475487 348.351241 
L 255.210774 348.351241 
L 255.946061 352.174167 
L 256.681349 352.174167 
L 257.416636 348.351241 
L 258.151923 352.174167 
L 261.82836 352.174167 
L 262.563648 348.351241 
L 263.298935 352.174167 
L 264.034223 352.174167 
L 264.76951 348.351241 
L 265.504797 348.351241 
L 266.240085 352.174167 
L 266.975372 352.174167 
L 267.71066 348.351241 
L 268.445947 352.174167 
L 272.122384 352.174167 
L 273.592959 344.528316 
L 274.328246 344.528316 
L 275.798821 352.174167 
L 280.210545 352.174167 
L 280.945833 348.351241 
L 281.68112 352.174167 
L 287.563419 352.174167 
L 288.298707 348.351241 
L 289.033994 352.174167 
L 291.239856 352.174167 
L 291.975144 348.351241 
L 292.710431 348.351241 
L 293.445719 352.174167 
L 296.386868 352.174167 
L 297.122155 348.351241 
L 297.857443 348.351241 
L 298.59273 352.174167 
L 299.328018 348.351241 
L 300.798592 348.351241 
L 301.53388 352.174167 
L 303.004455 344.528316 
L 304.475029 352.174167 
L 305.210317 352.174167 
L 305.945604 348.351241 
L 306.680892 352.174167 
L 311.092616 352.174167 
L 312.563191 344.528316 
L 313.298478 348.351241 
L 314.033766 344.528316 
L 315.50434 344.528316 
L 316.239628 348.351241 
L 316.974915 348.351241 
L 317.710203 352.174167 
L 318.44549 348.351241 
L 319.916065 348.351241 
L 320.651352 352.174167 
L 330.945376 352.174167 
L 331.680663 348.351241 
L 332.415951 352.174167 
L 333.151238 352.174167 
L 333.886525 348.351241 
L 334.621813 348.351241 
L 335.3571 352.174167 
L 342.709974 352.174167 
L 343.445261 348.351241 
L 344.915836 348.351241 
L 345.651124 344.528316 
L 346.386411 344.528316 
L 347.121698 348.351241 
L 347.856986 348.351241 
L 348.592273 344.528316 
L 349.327561 344.528316 
L 350.062848 348.351241 
L 352.26871 348.351241 
L 353.003998 352.174167 
L 355.945147 352.174167 
L 356.680435 348.351241 
L 358.886297 348.351241 
L 359.621584 352.174167 
L 360.356872 352.174167 
L 361.092159 348.351241 
L 362.562734 348.351241 
L 363.298021 344.528316 
L 364.033309 344.528316 
L 364.768596 352.174167 
L 369.18032 352.174167 
L 369.915608 348.351241 
L 370.650895 352.174167 
L 373.592045 352.174167 
L 374.327332 348.351241 
L 375.06262 348.351241 
L 375.797907 352.174167 
L 378.003769 352.174167 
L 378.739057 348.351241 
L 380.209631 348.351241 
L 380.944919 352.174167 
L 383.886068 352.174167 
L 384.621356 348.351241 
L 385.356643 352.174167 
L 390.503655 352.174167 
L 391.238942 348.351241 
L 391.97423 352.174167 
L 393.444804 352.174167 
L 394.180092 348.351241 
L 394.915379 352.174167 
L 395.650667 352.174167 
L 396.385954 348.351241 
L 397.121241 352.174167 
L 405.94469 352.174167 
L 406.679978 348.351241 
L 407.415265 352.174167 
L 408.88584 352.174167 
L 409.621127 348.351241 
L 410.356415 352.174167 
L 411.091702 348.351241 
L 411.826989 352.174167 
L 412.562277 348.351241 
L 413.297564 352.174167 
L 416.974001 352.174167 
L 417.709289 348.351241 
L 418.444576 352.174167 
L 419.915151 352.174167 
L 420.650438 348.351241 
L 421.385725 352.174167 
L 422.121013 348.351241 
L 422.8563 352.174167 
L 423.591588 352.174167 
L 424.326875 344.528316 
L 425.79745 352.174167 
L 426.532737 348.351241 
L 427.268025 352.174167 
L 435.356186 352.174167 
L 436.091473 348.351241 
L 436.826761 348.351241 
L 437.562048 352.174167 
L 438.297336 352.174167 
L 439.76791 344.528316 
L 441.238485 352.174167 
L 442.70906 344.528316 
L 443.444347 344.528316 
L 444.179635 348.351241 
L 444.914922 348.351241 
L 445.65021 352.174167 
L 446.385497 352.174167 
L 447.120784 348.351241 
L 447.856072 352.174167 
L 454.473658 352.174167 
L 455.208946 348.351241 
L 458.150095 348.351241 
L 458.885383 352.174167 
L 463.297107 352.174167 
L 464.032394 348.351241 
L 464.767682 348.351241 
L 465.502969 352.174167 
L 466.238257 348.351241 
L 466.973544 352.174167 
L 467.708831 352.174167 
L 468.444119 348.351241 
L 470.649981 348.351241 
L 471.385268 352.174167 
L 484.620442 352.174167 
L 485.355729 348.351241 
L 486.091016 348.351241 
L 486.826304 352.174167 
L 490.502741 352.174167 
L 491.238028 348.351241 
L 491.973316 348.351241 
L 492.708603 352.174167 
L 495.649753 352.174167 
L 496.38504 348.351241 
L 497.855615 348.351241 
L 498.590902 352.174167 
L 503.737914 352.174167 
L 504.473201 348.351241 
L 505.208489 352.174167 
L 507.414351 352.174167 
L 508.149638 348.351241 
L 509.620213 348.351241 
L 509.620213 348.351241 
" style="fill:none;stroke:#2ca02c;stroke-linecap:square;stroke-width:1.5;"/>
   </g>
   <g id="line2d_19">
    <path clip-path="url(#p3820e4b4b5)" d="M 103.765099 122.798639 
L 104.500387 50.163056 
L 105.970962 50.163056 
L 106.706249 118.975714 
L 107.441536 149.559117 
L 108.912111 149.559117 
L 109.647399 164.850819 
L 110.382686 153.382043 
L 111.853261 161.027894 
L 112.588548 172.49667 
L 113.323836 176.319596 
L 114.059123 183.965447 
L 114.79441 180.142521 
L 115.529698 183.965447 
L 116.264985 191.611297 
L 117.73556 199.257148 
L 118.470847 287.184434 
L 119.206135 245.132254 
L 119.941422 241.309328 
L 120.67671 245.132254 
L 121.411997 245.132254 
L 122.147284 248.955179 
L 122.882572 241.309328 
L 123.617859 237.486403 
L 124.353147 241.309328 
L 127.294296 241.309328 
L 128.029584 248.955179 
L 128.764871 241.309328 
L 129.500158 245.132254 
L 130.235446 241.309328 
L 131.70602 241.309328 
L 132.441308 245.132254 
L 133.176595 275.715658 
L 133.911883 248.955179 
L 134.64717 241.309328 
L 135.382457 248.955179 
L 136.117745 241.309328 
L 136.853032 248.955179 
L 138.323607 241.309328 
L 139.058894 260.423956 
L 139.794182 256.60103 
L 140.529469 245.132254 
L 142.000044 245.132254 
L 142.735331 233.663477 
L 143.470619 229.840552 
L 144.205906 241.309328 
L 144.941194 241.309328 
L 145.676481 233.663477 
L 146.411768 241.309328 
L 147.147056 245.132254 
L 147.882343 245.132254 
L 148.617631 287.184434 
L 149.352918 226.017627 
L 150.088205 229.840552 
L 150.823493 229.840552 
L 151.55878 233.663477 
L 152.294068 233.663477 
L 153.029355 229.840552 
L 153.764642 229.840552 
L 154.49993 237.486403 
L 155.235217 237.486403 
L 155.970505 229.840552 
L 156.705792 229.840552 
L 157.441079 226.017627 
L 158.176367 210.725925 
L 158.911654 214.54885 
L 160.382229 199.257148 
L 161.117516 206.902999 
L 161.852804 203.080074 
L 162.588091 203.080074 
L 163.323379 248.955179 
L 164.058666 172.49667 
L 164.793953 149.559117 
L 165.529241 161.027894 
L 166.264528 164.850819 
L 169.205678 149.559117 
L 169.940965 153.382043 
L 170.676253 153.382043 
L 171.41154 145.736192 
L 172.146827 153.382043 
L 172.882115 157.204968 
L 174.352689 157.204968 
L 175.087977 145.736192 
L 175.823264 145.736192 
L 176.558552 149.559117 
L 177.293839 149.559117 
L 178.029126 145.736192 
L 178.764414 298.65321 
L 179.499701 153.382043 
L 180.234989 134.267416 
L 180.970276 141.913267 
L 182.440851 141.913267 
L 183.176138 138.090341 
L 184.646713 145.736192 
L 185.382 141.913267 
L 186.117288 141.913267 
L 186.852575 145.736192 
L 187.587863 157.204968 
L 188.32315 164.850819 
L 189.058437 161.027894 
L 189.793725 168.673745 
L 190.529012 172.49667 
L 191.2643 164.850819 
L 191.999587 172.49667 
L 192.734874 187.788372 
L 193.470162 199.257148 
L 194.205449 264.246881 
L 194.940737 161.027894 
L 195.676024 157.204968 
L 196.411311 164.850819 
L 197.146599 164.850819 
L 197.881886 168.673745 
L 198.617174 168.673745 
L 199.352461 172.49667 
L 200.087748 168.673745 
L 200.823036 168.673745 
L 202.293611 176.319596 
L 203.764185 176.319596 
L 204.499473 168.673745 
L 205.23476 168.673745 
L 206.705335 183.965447 
L 207.440622 183.965447 
L 208.17591 191.611297 
L 208.911197 248.955179 
L 210.381772 195.434223 
L 211.117059 195.434223 
L 211.852347 199.257148 
L 212.587634 195.434223 
L 214.058209 203.080074 
L 216.264071 203.080074 
L 216.999358 206.902999 
L 217.734646 203.080074 
L 218.469933 206.902999 
L 219.205221 206.902999 
L 219.940508 210.725925 
L 220.675795 210.725925 
L 221.411083 203.080074 
L 222.881658 180.142521 
L 223.616945 183.965447 
L 224.352232 279.538583 
L 225.08752 248.955179 
L 226.558095 256.60103 
L 227.293382 248.955179 
L 228.763957 218.371776 
L 229.499244 210.725925 
L 230.234532 218.371776 
L 230.969819 214.54885 
L 231.705106 218.371776 
L 233.910969 218.371776 
L 234.646256 222.194701 
L 235.381543 233.663477 
L 236.116831 233.663477 
L 237.587406 241.309328 
L 238.322693 248.955179 
L 239.793268 294.830285 
L 240.528555 291.007359 
L 241.263843 291.007359 
L 241.99913 287.184434 
L 242.734417 287.184434 
L 243.469705 283.361508 
L 244.204992 275.715658 
L 244.94028 275.715658 
L 245.675567 271.892732 
L 246.410854 275.715658 
L 247.146142 283.361508 
L 247.881429 283.361508 
L 248.616717 275.715658 
L 249.352004 279.538583 
L 250.087291 279.538583 
L 250.822579 268.069807 
L 251.557866 268.069807 
L 252.293154 256.60103 
L 253.028441 256.60103 
L 253.763728 264.246881 
L 254.499016 329.236614 
L 255.96959 275.715658 
L 256.704878 271.892732 
L 257.440165 252.778105 
L 258.175453 222.194701 
L 258.91074 241.309328 
L 259.646027 233.663477 
L 261.116602 226.017627 
L 261.85189 229.840552 
L 262.587177 229.840552 
L 263.322464 233.663477 
L 264.793039 233.663477 
L 265.528327 226.017627 
L 266.263614 233.663477 
L 266.998901 233.663477 
L 267.734189 222.194701 
L 269.204764 214.54885 
L 269.940051 203.080074 
L 270.675338 206.902999 
L 271.410626 195.434223 
L 272.145913 206.902999 
L 272.881201 310.121987 
L 273.616488 203.080074 
L 274.351775 203.080074 
L 275.087063 199.257148 
L 275.82235 203.080074 
L 276.557638 203.080074 
L 277.292925 199.257148 
L 278.028212 199.257148 
L 278.7635 191.611297 
L 279.498787 191.611297 
L 280.234075 195.434223 
L 280.969362 195.434223 
L 281.704649 191.611297 
L 282.439937 191.611297 
L 283.910512 206.902999 
L 284.645799 199.257148 
L 286.851661 199.257148 
L 287.586949 214.54885 
L 288.322236 237.486403 
L 289.057523 195.434223 
L 289.792811 203.080074 
L 290.528098 218.371776 
L 291.263386 226.017627 
L 292.73396 233.663477 
L 293.469248 226.017627 
L 294.204535 229.840552 
L 294.939823 237.486403 
L 295.67511 237.486403 
L 296.410397 241.309328 
L 297.145685 233.663477 
L 297.880972 233.663477 
L 298.616259 237.486403 
L 299.351547 233.663477 
L 300.086834 233.663477 
L 300.822122 245.132254 
L 301.557409 245.132254 
L 302.292696 248.955179 
L 303.027984 294.830285 
L 303.763271 252.778105 
L 304.498559 256.60103 
L 305.233846 252.778105 
L 306.704421 252.778105 
L 307.439708 256.60103 
L 308.174996 256.60103 
L 308.910283 260.423956 
L 310.380858 260.423956 
L 311.116145 252.778105 
L 311.851433 256.60103 
L 312.58672 248.955179 
L 314.057295 241.309328 
L 314.792582 241.309328 
L 315.52787 237.486403 
L 316.263157 229.840552 
L 316.998444 237.486403 
L 317.733732 256.60103 
L 318.469019 325.413688 
L 319.204307 260.423956 
L 322.145456 260.423956 
L 323.616031 268.069807 
L 324.351318 279.538583 
L 325.086606 279.538583 
L 325.821893 268.069807 
L 326.557181 264.246881 
L 327.292468 256.60103 
L 328.027755 260.423956 
L 328.763043 252.778105 
L 329.49833 248.955179 
L 330.968905 248.955179 
L 331.704192 237.486403 
L 332.43948 233.663477 
L 333.174767 252.778105 
L 333.910055 268.069807 
L 334.645342 229.840552 
L 335.380629 229.840552 
L 336.851204 245.132254 
L 337.586491 245.132254 
L 338.321779 248.955179 
L 339.057066 233.663477 
L 339.792354 226.017627 
L 340.527641 214.54885 
L 341.998216 199.257148 
L 342.733503 199.257148 
L 343.468791 195.434223 
L 344.204078 195.434223 
L 344.939365 191.611297 
L 345.674653 195.434223 
L 346.40994 195.434223 
L 347.145228 191.611297 
L 347.880515 191.611297 
L 348.615802 264.246881 
L 349.35109 199.257148 
L 350.086377 195.434223 
L 350.821665 195.434223 
L 351.556952 199.257148 
L 352.292239 210.725925 
L 353.027527 206.902999 
L 354.498102 222.194701 
L 355.233389 226.017627 
L 356.703964 226.017627 
L 357.439251 229.840552 
L 358.174539 226.017627 
L 358.909826 226.017627 
L 359.645113 229.840552 
L 360.380401 229.840552 
L 361.115688 237.486403 
L 361.850976 237.486403 
L 362.586263 233.663477 
L 363.32155 256.60103 
L 364.056838 283.361508 
L 364.792125 256.60103 
L 365.527413 245.132254 
L 366.2627 241.309328 
L 366.997987 241.309328 
L 368.468562 248.955179 
L 369.939137 233.663477 
L 370.674424 222.194701 
L 371.409712 218.371776 
L 372.144999 218.371776 
L 372.880287 214.54885 
L 373.615574 206.902999 
L 374.350861 206.902999 
L 375.086149 210.725925 
L 375.821436 210.725925 
L 376.556724 214.54885 
L 377.292011 214.54885 
L 378.027298 222.194701 
L 378.762586 275.715658 
L 379.497873 233.663477 
L 380.23316 226.017627 
L 380.968448 229.840552 
L 381.703735 237.486403 
L 382.439023 237.486403 
L 383.17431 241.309328 
L 384.644885 241.309328 
L 385.380172 248.955179 
L 386.850747 233.663477 
L 387.586034 233.663477 
L 388.321322 237.486403 
L 389.056609 245.132254 
L 390.527184 245.132254 
L 391.262471 248.955179 
L 391.997759 256.60103 
L 392.733046 256.60103 
L 393.468334 264.246881 
L 394.203621 283.361508 
L 394.938908 256.60103 
L 395.674196 256.60103 
L 396.409483 252.778105 
L 398.615345 252.778105 
L 399.350633 245.132254 
L 400.08592 241.309328 
L 401.556495 241.309328 
L 402.291782 245.132254 
L 403.02707 241.309328 
L 403.762357 241.309328 
L 404.497645 245.132254 
L 405.232932 241.309328 
L 406.703507 248.955179 
L 408.174082 241.309328 
L 408.909369 306.299061 
L 409.644656 291.007359 
L 410.379944 241.309328 
L 411.850519 241.309328 
L 412.585806 237.486403 
L 413.321093 229.840552 
L 414.056381 229.840552 
L 414.791668 222.194701 
L 415.526956 222.194701 
L 416.99753 214.54885 
L 417.732818 214.54885 
L 418.468105 218.371776 
L 419.203393 199.257148 
L 419.93868 195.434223 
L 421.409255 195.434223 
L 422.879829 180.142521 
L 423.615117 168.673745 
L 424.350404 241.309328 
L 425.085692 149.559117 
L 425.820979 153.382043 
L 426.556266 153.382043 
L 427.291554 145.736192 
L 428.026841 134.267416 
L 428.762129 141.913267 
L 429.497416 134.267416 
L 430.232703 130.44449 
L 430.967991 134.267416 
L 431.703278 134.267416 
L 432.438566 141.913267 
L 433.173853 145.736192 
L 433.90914 138.090341 
L 434.644428 141.913267 
L 435.379715 149.559117 
L 436.115003 149.559117 
L 436.85029 134.267416 
L 437.585577 141.913267 
L 438.320865 145.736192 
L 439.056152 168.673745 
L 439.79144 329.236614 
L 440.526727 168.673745 
L 441.262014 168.673745 
L 441.997302 172.49667 
L 442.732589 183.965447 
L 443.467877 191.611297 
L 444.203164 203.080074 
L 444.938451 203.080074 
L 445.673739 218.371776 
L 446.409026 226.017627 
L 447.144314 218.371776 
L 447.879601 206.902999 
L 448.614888 210.725925 
L 449.350176 210.725925 
L 450.085463 214.54885 
L 450.820751 214.54885 
L 452.291325 222.194701 
L 453.026613 233.663477 
L 453.7619 233.663477 
L 454.497188 248.955179 
L 455.232475 283.361508 
L 455.967762 252.778105 
L 456.70305 248.955179 
L 458.173625 248.955179 
L 458.908912 245.132254 
L 459.644199 248.955179 
L 460.379487 256.60103 
L 461.850061 264.246881 
L 462.585349 264.246881 
L 463.320636 260.423956 
L 464.055924 260.423956 
L 464.791211 252.778105 
L 466.261786 260.423956 
L 466.997073 256.60103 
L 467.732361 256.60103 
L 468.467648 260.423956 
L 469.202935 241.309328 
L 469.938223 294.830285 
L 470.67351 203.080074 
L 471.408798 176.319596 
L 472.144085 176.319596 
L 472.879372 164.850819 
L 474.349947 149.559117 
L 475.820522 141.913267 
L 476.555809 141.913267 
L 477.291097 149.559117 
L 478.026384 141.913267 
L 478.761672 145.736192 
L 480.232246 145.736192 
L 480.967534 153.382043 
L 481.702821 168.673745 
L 482.438109 176.319596 
L 483.173396 187.788372 
L 484.643971 180.142521 
L 485.379258 264.246881 
L 486.114546 183.965447 
L 486.849833 172.49667 
L 487.58512 172.49667 
L 490.52627 187.788372 
L 491.261557 195.434223 
L 492.732132 203.080074 
L 493.46742 210.725925 
L 494.937994 210.725925 
L 495.673282 206.902999 
L 496.408569 210.725925 
L 497.143857 210.725925 
L 497.879144 203.080074 
L 498.614431 206.902999 
L 499.349719 206.902999 
L 500.085006 245.132254 
L 500.085006 245.132254 
" style="fill:none;stroke:#d62728;stroke-linecap:square;stroke-width:1.5;"/>
   </g>
   <g id="patch_3">
    <path d="M 83.472344 352.174167 
L 83.472344 35.0625 
" style="fill:none;stroke:#000000;stroke-linecap:square;stroke-linejoin:miter;stroke-width:0.8;"/>
   </g>
   <g id="patch_4">
    <path d="M 529.912969 352.174167 
L 529.912969 35.0625 
" style="fill:none;stroke:#000000;stroke-linecap:square;stroke-linejoin:miter;stroke-width:0.8;"/>
   </g>
   <g id="patch_5">
    <path d="M 83.472344 352.174167 
L 529.912969 352.174167 
" style="fill:none;stroke:#000000;stroke-linecap:square;stroke-linejoin:miter;stroke-width:0.8;"/>
   </g>
   <g id="patch_6">
    <path d="M 83.472344 35.0625 
L 529.912969 35.0625 
" style="fill:none;stroke:#000000;stroke-linecap:square;stroke-linejoin:miter;stroke-width:0.8;"/>
   </g>
   <g id="legend_1">
    <g id="patch_7">
     <path d="M 554.235 96.775 
L 625.430312 96.775 
Q 627.430312 96.775 627.430312 94.775 
L 627.430312 37.0625 
Q 627.430312 35.0625 625.430312 35.0625 
L 554.235 35.0625 
Q 552.235 35.0625 552.235 37.0625 
L 552.235 94.775 
Q 552.235 96.775 554.235 96.775 
z
" style="fill:#ffffff;opacity:0.8;stroke:#cccccc;stroke-linejoin:miter;"/>
    </g>
    <g id="line2d_20">
     <path d="M 556.235 43.160937 
L 576.235 43.160937 
" style="fill:none;stroke:#1f77b4;stroke-linecap:square;stroke-width:1.5;"/>
    </g>
    <g id="line2d_21"/>
    <g id="text_17">
     <!-- bbr-pi -->
     <defs>
      <path d="M 4.890625 31.390625 
L 31.203125 31.390625 
L 31.203125 23.390625 
L 4.890625 23.390625 
z
" id="DejaVuSans-45"/>
     </defs>
     <g transform="translate(584.235 46.660937)scale(0.1 -0.1)">
      <use xlink:href="#DejaVuSans-98"/>
      <use x="63.476562" xlink:href="#DejaVuSans-98"/>
      <use x="126.953125" xlink:href="#DejaVuSans-114"/>
      <use x="167.972656" xlink:href="#DejaVuSans-45"/>
      <use x="204.056641" xlink:href="#DejaVuSans-112"/>
      <use x="267.533203" xlink:href="#DejaVuSans-105"/>
     </g>
    </g>
    <g id="line2d_22">
     <path d="M 556.235 57.839063 
L 576.235 57.839063 
" style="fill:none;stroke:#ff7f0e;stroke-linecap:square;stroke-width:1.5;"/>
    </g>
    <g id="line2d_23"/>
    <g id="text_18">
     <!-- cubic-pi -->
     <g transform="translate(584.235 61.339063)scale(0.1 -0.1)">
      <use xlink:href="#DejaVuSans-99"/>
      <use x="54.980469" xlink:href="#DejaVuSans-117"/>
      <use x="118.359375" xlink:href="#DejaVuSans-98"/>
      <use x="181.835938" xlink:href="#DejaVuSans-105"/>
      <use x="209.619141" xlink:href="#DejaVuSans-99"/>
      <use x="264.599609" xlink:href="#DejaVuSans-45"/>
      <use x="300.683594" xlink:href="#DejaVuSans-112"/>
      <use x="364.160156" xlink:href="#DejaVuSans-105"/>
     </g>
    </g>
    <g id="line2d_24">
     <path d="M 556.235 72.517187 
L 576.235 72.517187 
" style="fill:none;stroke:#2ca02c;stroke-linecap:square;stroke-width:1.5;"/>
    </g>
    <g id="line2d_25"/>
    <g id="text_19">
     <!-- cubic-pi -->
     <g transform="translate(584.235 76.017187)scale(0.1 -0.1)">
      <use xlink:href="#DejaVuSans-99"/>
      <use x="54.980469" xlink:href="#DejaVuSans-117"/>
      <use x="118.359375" xlink:href="#DejaVuSans-98"/>
      <use x="181.835938" xlink:href="#DejaVuSans-105"/>
      <use x="209.619141" xlink:href="#DejaVuSans-99"/>
      <use x="264.599609" xlink:href="#DejaVuSans-45"/>
      <use x="300.683594" xlink:href="#DejaVuSans-112"/>
      <use x="364.160156" xlink:href="#DejaVuSans-105"/>
     </g>
    </g>
    <g id="line2d_26">
     <path d="M 556.235 87.195312 
L 576.235 87.195312 
" style="fill:none;stroke:#d62728;stroke-linecap:square;stroke-width:1.5;"/>
    </g>
    <g id="line2d_27"/>
    <g id="text_20">
     <!-- bbr-pi -->
     <g transform="translate(584.235 90.695312)scale(0.1 -0.1)">
      <use xlink:href="#DejaVuSans-98"/>
      <use x="63.476562" xlink:href="#DejaVuSans-98"/>
      <use x="126.953125" xlink:href="#DejaVuSans-114"/>
      <use x="167.972656" xlink:href="#DejaVuSans-45"/>
      <use x="204.056641" xlink:href="#DejaVuSans-112"/>
      <use x="267.533203" xlink:href="#DejaVuSans-105"/>
     </g>
    </g>
   </g>
  </g>
  <g id="text_21">
   <!-- result throughput -->
   <defs>
    <path d="M 9.421875 75.984375 
L 18.40625 75.984375 
L 18.40625 0 
L 9.421875 0 
z
" id="DejaVuSans-108"/>
   </defs>
   <g transform="translate(289.320938 17.038125)scale(0.12 -0.12)">
    <use xlink:href="#DejaVuSans-114"/>
    <use x="41.082031" xlink:href="#DejaVuSans-101"/>
    <use x="102.605469" xlink:href="#DejaVuSans-115"/>
    <use x="154.705078" xlink:href="#DejaVuSans-117"/>
    <use x="218.083984" xlink:href="#DejaVuSans-108"/>
    <use x="245.867188" xlink:href="#DejaVuSans-116"/>
    <use x="285.076172" xlink:href="#DejaVuSans-32"/>
    <use x="316.863281" xlink:href="#DejaVuSans-116"/>
    <use x="356.072266" xlink:href="#DejaVuSans-104"/>
    <use x="419.451172" xlink:href="#DejaVuSans-114"/>
    <use x="460.533203" xlink:href="#DejaVuSans-111"/>
    <use x="521.714844" xlink:href="#DejaVuSans-117"/>
    <use x="585.09375" xlink:href="#DejaVuSans-103"/>
    <use x="648.570312" xlink:href="#DejaVuSans-104"/>
    <use x="711.949219" xlink:href="#DejaVuSans-112"/>
    <use x="775.425781" xlink:href="#DejaVuSans-117"/>
    <use x="838.804688" xlink:href="#DejaVuSans-116"/>
   </g>
  </g>
 </g>
 <defs>
  <clipPath id="p3820e4b4b5">
   <rect height="317.111667" width="446.440625" x="83.472344" y="35.0625"/>
  </clipPath>
 </defs>
</svg>
