<?xml version="1.0" encoding="utf-8" standalone="no"?>
<!DOCTYPE svg PUBLIC "-//W3C//DTD SVG 1.1//EN"
  "http://www.w3.org/Graphics/SVG/1.1/DTD/svg11.dtd">
<!-- Created with matplotlib (https://matplotlib.org/) -->
<svg height="396pt" version="1.1" viewBox="0 0 684 396" width="684pt" xmlns="http://www.w3.org/2000/svg" xmlns:xlink="http://www.w3.org/1999/xlink">
 <defs>
  <style type="text/css">
*{stroke-linecap:butt;stroke-linejoin:round;}
  </style>
 </defs>
 <g id="figure_1">
  <g id="patch_1">
   <path d="M 0 396 
L 684 396 
L 684 0 
L 0 0 
z
" style="fill:#ffffff;"/>
  </g>
  <g id="axes_1">
   <g id="patch_2">
    <path d="M 120.878594 352.174167 
L 544.073906 352.174167 
L 544.073906 35.0625 
L 120.878594 35.0625 
z
" style="fill:#ffffff;"/>
   </g>
   <g id="matplotlib.axis_1">
    <g id="xtick_1">
     <g id="line2d_1">
      <defs>
       <path d="M 0 0 
L 0 3.5 
" id="m1e01c12429" style="stroke:#000000;stroke-width:0.8;"/>
      </defs>
      <g>
       <use style="stroke:#000000;stroke-width:0.8;" x="140.114744" xlink:href="#m1e01c12429" y="352.174167"/>
      </g>
     </g>
     <g id="text_1">
      <!-- 0 -->
      <defs>
       <path d="M 31.78125 66.40625 
Q 24.171875 66.40625 20.328125 58.90625 
Q 16.5 51.421875 16.5 36.375 
Q 16.5 21.390625 20.328125 13.890625 
Q 24.171875 6.390625 31.78125 6.390625 
Q 39.453125 6.390625 43.28125 13.890625 
Q 47.125 21.390625 47.125 36.375 
Q 47.125 51.421875 43.28125 58.90625 
Q 39.453125 66.40625 31.78125 66.40625 
z
M 31.78125 74.21875 
Q 44.046875 74.21875 50.515625 64.515625 
Q 56.984375 54.828125 56.984375 36.375 
Q 56.984375 17.96875 50.515625 8.265625 
Q 44.046875 -1.421875 31.78125 -1.421875 
Q 19.53125 -1.421875 13.0625 8.265625 
Q 6.59375 17.96875 6.59375 36.375 
Q 6.59375 54.828125 13.0625 64.515625 
Q 19.53125 74.21875 31.78125 74.21875 
z
" id="DejaVuSans-48"/>
      </defs>
      <g transform="translate(136.933494 366.772604)scale(0.1 -0.1)">
       <use xlink:href="#DejaVuSans-48"/>
      </g>
     </g>
    </g>
    <g id="xtick_2">
     <g id="line2d_2">
      <g>
       <use style="stroke:#000000;stroke-width:0.8;" x="210.02066" xlink:href="#m1e01c12429" y="352.174167"/>
      </g>
     </g>
     <g id="text_2">
      <!-- 50 -->
      <defs>
       <path d="M 10.796875 72.90625 
L 49.515625 72.90625 
L 49.515625 64.59375 
L 19.828125 64.59375 
L 19.828125 46.734375 
Q 21.96875 47.46875 24.109375 47.828125 
Q 26.265625 48.1875 28.421875 48.1875 
Q 40.625 48.1875 47.75 41.5 
Q 54.890625 34.8125 54.890625 23.390625 
Q 54.890625 11.625 47.5625 5.09375 
Q 40.234375 -1.421875 26.90625 -1.421875 
Q 22.3125 -1.421875 17.546875 -0.640625 
Q 12.796875 0.140625 7.71875 1.703125 
L 7.71875 11.625 
Q 12.109375 9.234375 16.796875 8.0625 
Q 21.484375 6.890625 26.703125 6.890625 
Q 35.15625 6.890625 40.078125 11.328125 
Q 45.015625 15.765625 45.015625 23.390625 
Q 45.015625 31 40.078125 35.4375 
Q 35.15625 39.890625 26.703125 39.890625 
Q 22.75 39.890625 18.8125 39.015625 
Q 14.890625 38.140625 10.796875 36.28125 
z
" id="DejaVuSans-53"/>
      </defs>
      <g transform="translate(203.65816 366.772604)scale(0.1 -0.1)">
       <use xlink:href="#DejaVuSans-53"/>
       <use x="63.623047" xlink:href="#DejaVuSans-48"/>
      </g>
     </g>
    </g>
    <g id="xtick_3">
     <g id="line2d_3">
      <g>
       <use style="stroke:#000000;stroke-width:0.8;" x="279.926575" xlink:href="#m1e01c12429" y="352.174167"/>
      </g>
     </g>
     <g id="text_3">
      <!-- 100 -->
      <defs>
       <path d="M 12.40625 8.296875 
L 28.515625 8.296875 
L 28.515625 63.921875 
L 10.984375 60.40625 
L 10.984375 69.390625 
L 28.421875 72.90625 
L 38.28125 72.90625 
L 38.28125 8.296875 
L 54.390625 8.296875 
L 54.390625 0 
L 12.40625 0 
z
" id="DejaVuSans-49"/>
      </defs>
      <g transform="translate(270.382825 366.772604)scale(0.1 -0.1)">
       <use xlink:href="#DejaVuSans-49"/>
       <use x="63.623047" xlink:href="#DejaVuSans-48"/>
       <use x="127.246094" xlink:href="#DejaVuSans-48"/>
      </g>
     </g>
    </g>
    <g id="xtick_4">
     <g id="line2d_4">
      <g>
       <use style="stroke:#000000;stroke-width:0.8;" x="349.832491" xlink:href="#m1e01c12429" y="352.174167"/>
      </g>
     </g>
     <g id="text_4">
      <!-- 150 -->
      <g transform="translate(340.288741 366.772604)scale(0.1 -0.1)">
       <use xlink:href="#DejaVuSans-49"/>
       <use x="63.623047" xlink:href="#DejaVuSans-53"/>
       <use x="127.246094" xlink:href="#DejaVuSans-48"/>
      </g>
     </g>
    </g>
    <g id="xtick_5">
     <g id="line2d_5">
      <g>
       <use style="stroke:#000000;stroke-width:0.8;" x="419.738406" xlink:href="#m1e01c12429" y="352.174167"/>
      </g>
     </g>
     <g id="text_5">
      <!-- 200 -->
      <defs>
       <path d="M 19.1875 8.296875 
L 53.609375 8.296875 
L 53.609375 0 
L 7.328125 0 
L 7.328125 8.296875 
Q 12.9375 14.109375 22.625 23.890625 
Q 32.328125 33.6875 34.8125 36.53125 
Q 39.546875 41.84375 41.421875 45.53125 
Q 43.3125 49.21875 43.3125 52.78125 
Q 43.3125 58.59375 39.234375 62.25 
Q 35.15625 65.921875 28.609375 65.921875 
Q 23.96875 65.921875 18.8125 64.3125 
Q 13.671875 62.703125 7.8125 59.421875 
L 7.8125 69.390625 
Q 13.765625 71.78125 18.9375 73 
Q 24.125 74.21875 28.421875 74.21875 
Q 39.75 74.21875 46.484375 68.546875 
Q 53.21875 62.890625 53.21875 53.421875 
Q 53.21875 48.921875 51.53125 44.890625 
Q 49.859375 40.875 45.40625 35.40625 
Q 44.1875 33.984375 37.640625 27.21875 
Q 31.109375 20.453125 19.1875 8.296875 
z
" id="DejaVuSans-50"/>
      </defs>
      <g transform="translate(410.194656 366.772604)scale(0.1 -0.1)">
       <use xlink:href="#DejaVuSans-50"/>
       <use x="63.623047" xlink:href="#DejaVuSans-48"/>
       <use x="127.246094" xlink:href="#DejaVuSans-48"/>
      </g>
     </g>
    </g>
    <g id="xtick_6">
     <g id="line2d_6">
      <g>
       <use style="stroke:#000000;stroke-width:0.8;" x="489.644322" xlink:href="#m1e01c12429" y="352.174167"/>
      </g>
     </g>
     <g id="text_6">
      <!-- 250 -->
      <g transform="translate(480.100572 366.772604)scale(0.1 -0.1)">
       <use xlink:href="#DejaVuSans-50"/>
       <use x="63.623047" xlink:href="#DejaVuSans-53"/>
       <use x="127.246094" xlink:href="#DejaVuSans-48"/>
      </g>
     </g>
    </g>
   </g>
   <g id="matplotlib.axis_2">
    <g id="ytick_1">
     <g id="line2d_7">
      <defs>
       <path d="M 0 0 
L -3.5 0 
" id="mca6b057534" style="stroke:#000000;stroke-width:0.8;"/>
      </defs>
      <g>
       <use style="stroke:#000000;stroke-width:0.8;" x="120.878594" xlink:href="#mca6b057534" y="352.174167"/>
      </g>
     </g>
     <g id="text_7">
      <!-- 0 -->
      <g transform="translate(107.516094 355.973385)scale(0.1 -0.1)">
       <use xlink:href="#DejaVuSans-48"/>
      </g>
     </g>
    </g>
    <g id="ytick_2">
     <g id="line2d_8">
      <g>
       <use style="stroke:#000000;stroke-width:0.8;" x="120.878594" xlink:href="#mca6b057534" y="293.406165"/>
      </g>
     </g>
     <g id="text_8">
      <!-- 50000 -->
      <g transform="translate(82.066094 297.205384)scale(0.1 -0.1)">
       <use xlink:href="#DejaVuSans-53"/>
       <use x="63.623047" xlink:href="#DejaVuSans-48"/>
       <use x="127.246094" xlink:href="#DejaVuSans-48"/>
       <use x="190.869141" xlink:href="#DejaVuSans-48"/>
       <use x="254.492188" xlink:href="#DejaVuSans-48"/>
      </g>
     </g>
    </g>
    <g id="ytick_3">
     <g id="line2d_9">
      <g>
       <use style="stroke:#000000;stroke-width:0.8;" x="120.878594" xlink:href="#mca6b057534" y="234.638163"/>
      </g>
     </g>
     <g id="text_9">
      <!-- 100000 -->
      <g transform="translate(75.703594 238.437382)scale(0.1 -0.1)">
       <use xlink:href="#DejaVuSans-49"/>
       <use x="63.623047" xlink:href="#DejaVuSans-48"/>
       <use x="127.246094" xlink:href="#DejaVuSans-48"/>
       <use x="190.869141" xlink:href="#DejaVuSans-48"/>
       <use x="254.492188" xlink:href="#DejaVuSans-48"/>
       <use x="318.115234" xlink:href="#DejaVuSans-48"/>
      </g>
     </g>
    </g>
    <g id="ytick_4">
     <g id="line2d_10">
      <g>
       <use style="stroke:#000000;stroke-width:0.8;" x="120.878594" xlink:href="#mca6b057534" y="175.870162"/>
      </g>
     </g>
     <g id="text_10">
      <!-- 150000 -->
      <g transform="translate(75.703594 179.669381)scale(0.1 -0.1)">
       <use xlink:href="#DejaVuSans-49"/>
       <use x="63.623047" xlink:href="#DejaVuSans-53"/>
       <use x="127.246094" xlink:href="#DejaVuSans-48"/>
       <use x="190.869141" xlink:href="#DejaVuSans-48"/>
       <use x="254.492188" xlink:href="#DejaVuSans-48"/>
       <use x="318.115234" xlink:href="#DejaVuSans-48"/>
      </g>
     </g>
    </g>
    <g id="ytick_5">
     <g id="line2d_11">
      <g>
       <use style="stroke:#000000;stroke-width:0.8;" x="120.878594" xlink:href="#mca6b057534" y="117.10216"/>
      </g>
     </g>
     <g id="text_11">
      <!-- 200000 -->
      <g transform="translate(75.703594 120.901379)scale(0.1 -0.1)">
       <use xlink:href="#DejaVuSans-50"/>
       <use x="63.623047" xlink:href="#DejaVuSans-48"/>
       <use x="127.246094" xlink:href="#DejaVuSans-48"/>
       <use x="190.869141" xlink:href="#DejaVuSans-48"/>
       <use x="254.492188" xlink:href="#DejaVuSans-48"/>
       <use x="318.115234" xlink:href="#DejaVuSans-48"/>
      </g>
     </g>
    </g>
    <g id="ytick_6">
     <g id="line2d_12">
      <g>
       <use style="stroke:#000000;stroke-width:0.8;" x="120.878594" xlink:href="#mca6b057534" y="58.334159"/>
      </g>
     </g>
     <g id="text_12">
      <!-- 250000 -->
      <g transform="translate(75.703594 62.133377)scale(0.1 -0.1)">
       <use xlink:href="#DejaVuSans-50"/>
       <use x="63.623047" xlink:href="#DejaVuSans-53"/>
       <use x="127.246094" xlink:href="#DejaVuSans-48"/>
       <use x="190.869141" xlink:href="#DejaVuSans-48"/>
       <use x="254.492188" xlink:href="#DejaVuSans-48"/>
       <use x="318.115234" xlink:href="#DejaVuSans-48"/>
      </g>
     </g>
    </g>
    <g id="text_13">
     <!-- inflight -->
     <defs>
      <path d="M 9.421875 54.6875 
L 18.40625 54.6875 
L 18.40625 0 
L 9.421875 0 
z
M 9.421875 75.984375 
L 18.40625 75.984375 
L 18.40625 64.59375 
L 9.421875 64.59375 
z
" id="DejaVuSans-105"/>
      <path d="M 54.890625 33.015625 
L 54.890625 0 
L 45.90625 0 
L 45.90625 32.71875 
Q 45.90625 40.484375 42.875 44.328125 
Q 39.84375 48.1875 33.796875 48.1875 
Q 26.515625 48.1875 22.3125 43.546875 
Q 18.109375 38.921875 18.109375 30.90625 
L 18.109375 0 
L 9.078125 0 
L 9.078125 54.6875 
L 18.109375 54.6875 
L 18.109375 46.1875 
Q 21.34375 51.125 25.703125 53.5625 
Q 30.078125 56 35.796875 56 
Q 45.21875 56 50.046875 50.171875 
Q 54.890625 44.34375 54.890625 33.015625 
z
" id="DejaVuSans-110"/>
      <path d="M 37.109375 75.984375 
L 37.109375 68.5 
L 28.515625 68.5 
Q 23.6875 68.5 21.796875 66.546875 
Q 19.921875 64.59375 19.921875 59.515625 
L 19.921875 54.6875 
L 34.71875 54.6875 
L 34.71875 47.703125 
L 19.921875 47.703125 
L 19.921875 0 
L 10.890625 0 
L 10.890625 47.703125 
L 2.296875 47.703125 
L 2.296875 54.6875 
L 10.890625 54.6875 
L 10.890625 58.5 
Q 10.890625 67.625 15.140625 71.796875 
Q 19.390625 75.984375 28.609375 75.984375 
z
" id="DejaVuSans-102"/>
      <path d="M 9.421875 75.984375 
L 18.40625 75.984375 
L 18.40625 0 
L 9.421875 0 
z
" id="DejaVuSans-108"/>
      <path d="M 45.40625 27.984375 
Q 45.40625 37.75 41.375 43.109375 
Q 37.359375 48.484375 30.078125 48.484375 
Q 22.859375 48.484375 18.828125 43.109375 
Q 14.796875 37.75 14.796875 27.984375 
Q 14.796875 18.265625 18.828125 12.890625 
Q 22.859375 7.515625 30.078125 7.515625 
Q 37.359375 7.515625 41.375 12.890625 
Q 45.40625 18.265625 45.40625 27.984375 
z
M 54.390625 6.78125 
Q 54.390625 -7.171875 48.1875 -13.984375 
Q 42 -20.796875 29.203125 -20.796875 
Q 24.46875 -20.796875 20.265625 -20.09375 
Q 16.0625 -19.390625 12.109375 -17.921875 
L 12.109375 -9.1875 
Q 16.0625 -11.328125 19.921875 -12.34375 
Q 23.78125 -13.375 27.78125 -13.375 
Q 36.625 -13.375 41.015625 -8.765625 
Q 45.40625 -4.15625 45.40625 5.171875 
L 45.40625 9.625 
Q 42.625 4.78125 38.28125 2.390625 
Q 33.9375 0 27.875 0 
Q 17.828125 0 11.671875 7.65625 
Q 5.515625 15.328125 5.515625 27.984375 
Q 5.515625 40.671875 11.671875 48.328125 
Q 17.828125 56 27.875 56 
Q 33.9375 56 38.28125 53.609375 
Q 42.625 51.21875 45.40625 46.390625 
L 45.40625 54.6875 
L 54.390625 54.6875 
z
" id="DejaVuSans-103"/>
      <path d="M 54.890625 33.015625 
L 54.890625 0 
L 45.90625 0 
L 45.90625 32.71875 
Q 45.90625 40.484375 42.875 44.328125 
Q 39.84375 48.1875 33.796875 48.1875 
Q 26.515625 48.1875 22.3125 43.546875 
Q 18.109375 38.921875 18.109375 30.90625 
L 18.109375 0 
L 9.078125 0 
L 9.078125 75.984375 
L 18.109375 75.984375 
L 18.109375 46.1875 
Q 21.34375 51.125 25.703125 53.5625 
Q 30.078125 56 35.796875 56 
Q 45.21875 56 50.046875 50.171875 
Q 54.890625 44.34375 54.890625 33.015625 
z
" id="DejaVuSans-104"/>
      <path d="M 18.3125 70.21875 
L 18.3125 54.6875 
L 36.8125 54.6875 
L 36.8125 47.703125 
L 18.3125 47.703125 
L 18.3125 18.015625 
Q 18.3125 11.328125 20.140625 9.421875 
Q 21.96875 7.515625 27.59375 7.515625 
L 36.8125 7.515625 
L 36.8125 0 
L 27.59375 0 
Q 17.1875 0 13.234375 3.875 
Q 9.28125 7.765625 9.28125 18.015625 
L 9.28125 47.703125 
L 2.6875 47.703125 
L 2.6875 54.6875 
L 9.28125 54.6875 
L 9.28125 70.21875 
z
" id="DejaVuSans-116"/>
     </defs>
     <g transform="translate(58.426094 211.017552)rotate(-90)scale(0.1 -0.1)">
      <use xlink:href="#DejaVuSans-105"/>
      <use x="27.783203" xlink:href="#DejaVuSans-110"/>
      <use x="91.162109" xlink:href="#DejaVuSans-102"/>
      <use x="126.367188" xlink:href="#DejaVuSans-108"/>
      <use x="154.150391" xlink:href="#DejaVuSans-105"/>
      <use x="181.933594" xlink:href="#DejaVuSans-103"/>
      <use x="245.410156" xlink:href="#DejaVuSans-104"/>
      <use x="308.789062" xlink:href="#DejaVuSans-116"/>
     </g>
     <!-- (bytes) -->
     <defs>
      <path d="M 31 75.875 
Q 24.46875 64.65625 21.28125 53.65625 
Q 18.109375 42.671875 18.109375 31.390625 
Q 18.109375 20.125 21.3125 9.0625 
Q 24.515625 -2 31 -13.1875 
L 23.1875 -13.1875 
Q 15.875 -1.703125 12.234375 9.375 
Q 8.59375 20.453125 8.59375 31.390625 
Q 8.59375 42.28125 12.203125 53.3125 
Q 15.828125 64.359375 23.1875 75.875 
z
" id="DejaVuSans-40"/>
      <path d="M 48.6875 27.296875 
Q 48.6875 37.203125 44.609375 42.84375 
Q 40.53125 48.484375 33.40625 48.484375 
Q 26.265625 48.484375 22.1875 42.84375 
Q 18.109375 37.203125 18.109375 27.296875 
Q 18.109375 17.390625 22.1875 11.75 
Q 26.265625 6.109375 33.40625 6.109375 
Q 40.53125 6.109375 44.609375 11.75 
Q 48.6875 17.390625 48.6875 27.296875 
z
M 18.109375 46.390625 
Q 20.953125 51.265625 25.265625 53.625 
Q 29.59375 56 35.59375 56 
Q 45.5625 56 51.78125 48.09375 
Q 58.015625 40.1875 58.015625 27.296875 
Q 58.015625 14.40625 51.78125 6.484375 
Q 45.5625 -1.421875 35.59375 -1.421875 
Q 29.59375 -1.421875 25.265625 0.953125 
Q 20.953125 3.328125 18.109375 8.203125 
L 18.109375 0 
L 9.078125 0 
L 9.078125 75.984375 
L 18.109375 75.984375 
z
" id="DejaVuSans-98"/>
      <path d="M 32.171875 -5.078125 
Q 28.375 -14.84375 24.75 -17.8125 
Q 21.140625 -20.796875 15.09375 -20.796875 
L 7.90625 -20.796875 
L 7.90625 -13.28125 
L 13.1875 -13.28125 
Q 16.890625 -13.28125 18.9375 -11.515625 
Q 21 -9.765625 23.484375 -3.21875 
L 25.09375 0.875 
L 2.984375 54.6875 
L 12.5 54.6875 
L 29.59375 11.921875 
L 46.6875 54.6875 
L 56.203125 54.6875 
z
" id="DejaVuSans-121"/>
      <path d="M 56.203125 29.59375 
L 56.203125 25.203125 
L 14.890625 25.203125 
Q 15.484375 15.921875 20.484375 11.0625 
Q 25.484375 6.203125 34.421875 6.203125 
Q 39.59375 6.203125 44.453125 7.46875 
Q 49.3125 8.734375 54.109375 11.28125 
L 54.109375 2.78125 
Q 49.265625 0.734375 44.1875 -0.34375 
Q 39.109375 -1.421875 33.890625 -1.421875 
Q 20.796875 -1.421875 13.15625 6.1875 
Q 5.515625 13.8125 5.515625 26.8125 
Q 5.515625 40.234375 12.765625 48.109375 
Q 20.015625 56 32.328125 56 
Q 43.359375 56 49.78125 48.890625 
Q 56.203125 41.796875 56.203125 29.59375 
z
M 47.21875 32.234375 
Q 47.125 39.59375 43.09375 43.984375 
Q 39.0625 48.390625 32.421875 48.390625 
Q 24.90625 48.390625 20.390625 44.140625 
Q 15.875 39.890625 15.1875 32.171875 
z
" id="DejaVuSans-101"/>
      <path d="M 44.28125 53.078125 
L 44.28125 44.578125 
Q 40.484375 46.53125 36.375 47.5 
Q 32.28125 48.484375 27.875 48.484375 
Q 21.1875 48.484375 17.84375 46.4375 
Q 14.5 44.390625 14.5 40.28125 
Q 14.5 37.15625 16.890625 35.375 
Q 19.28125 33.59375 26.515625 31.984375 
L 29.59375 31.296875 
Q 39.15625 29.25 43.1875 25.515625 
Q 47.21875 21.78125 47.21875 15.09375 
Q 47.21875 7.46875 41.1875 3.015625 
Q 35.15625 -1.421875 24.609375 -1.421875 
Q 20.21875 -1.421875 15.453125 -0.5625 
Q 10.6875 0.296875 5.421875 2 
L 5.421875 11.28125 
Q 10.40625 8.6875 15.234375 7.390625 
Q 20.0625 6.109375 24.8125 6.109375 
Q 31.15625 6.109375 34.5625 8.28125 
Q 37.984375 10.453125 37.984375 14.40625 
Q 37.984375 18.0625 35.515625 20.015625 
Q 33.0625 21.96875 24.703125 23.78125 
L 21.578125 24.515625 
Q 13.234375 26.265625 9.515625 29.90625 
Q 5.8125 33.546875 5.8125 39.890625 
Q 5.8125 47.609375 11.28125 51.796875 
Q 16.75 56 26.8125 56 
Q 31.78125 56 36.171875 55.265625 
Q 40.578125 54.546875 44.28125 53.078125 
z
" id="DejaVuSans-115"/>
      <path d="M 8.015625 75.875 
L 15.828125 75.875 
Q 23.140625 64.359375 26.78125 53.3125 
Q 30.421875 42.28125 30.421875 31.390625 
Q 30.421875 20.453125 26.78125 9.375 
Q 23.140625 -1.703125 15.828125 -13.1875 
L 8.015625 -13.1875 
Q 14.5 -2 17.703125 9.0625 
Q 20.90625 20.125 20.90625 31.390625 
Q 20.90625 42.671875 17.703125 53.65625 
Q 14.5 64.65625 8.015625 75.875 
z
" id="DejaVuSans-41"/>
     </defs>
     <g transform="translate(69.623906 211.294896)rotate(-90)scale(0.1 -0.1)">
      <use xlink:href="#DejaVuSans-40"/>
      <use x="39.013672" xlink:href="#DejaVuSans-98"/>
      <use x="102.490234" xlink:href="#DejaVuSans-121"/>
      <use x="161.669922" xlink:href="#DejaVuSans-116"/>
      <use x="200.878906" xlink:href="#DejaVuSans-101"/>
      <use x="262.402344" xlink:href="#DejaVuSans-115"/>
      <use x="314.501953" xlink:href="#DejaVuSans-41"/>
     </g>
    </g>
   </g>
   <g id="line2d_13">
    <path clip-path="url(#p82234feef3)" d="M 140.114744 205.808933 
L 140.813803 176.87627 
L 141.512863 164.191784 
L 142.211922 164.191784 
L 142.910981 162.489863 
L 143.61004 164.191784 
L 144.309099 176.105234 
L 145.008158 182.912919 
L 145.707218 136.030158 
L 146.406277 50.163056 
L 147.105336 176.105234 
L 147.804395 241.54928 
L 148.503454 175.174349 
L 149.202513 213.547503 
L 149.901572 133.557201 
L 150.600632 164.191784 
L 151.299691 277.289628 
L 151.99875 176.87627 
L 152.697809 173.472427 
L 153.396868 284.097314 
L 154.095927 246.655044 
L 154.794987 238.145438 
L 155.494046 211.845582 
L 156.193105 227.162874 
L 156.892164 216.951346 
L 157.591223 244.182087 
L 158.290282 248.356966 
L 158.989341 208.441739 
L 159.688401 268.008985 
L 160.38746 233.970559 
L 161.086519 240.778244 
L 161.785578 274.816671 
L 162.484637 222.05711 
L 163.183696 224.530067 
L 163.882756 263.674258 
L 164.581815 263.674258 
L 165.280874 275.587707 
L 165.979933 299.414606 
L 166.678992 265.376179 
L 167.378051 297.712684 
L 168.077111 294.308842 
L 168.77617 328.347268 
L 169.475229 314.731897 
L 170.174288 321.539583 
L 170.873347 311.328055 
L 171.572406 318.13574 
L 172.271465 307.924212 
L 172.970525 313.029976 
L 173.669584 316.433819 
L 174.368643 307.924212 
L 175.067702 316.433819 
L 175.766761 309.626133 
L 176.46582 314.731897 
L 177.16488 350.472245 
L 177.863939 301.116527 
L 178.562998 314.731897 
L 179.262057 304.52037 
L 179.961116 316.433819 
L 180.660175 313.029976 
L 182.058294 299.414606 
L 182.757353 294.308842 
L 183.456412 299.414606 
L 184.155471 289.203078 
L 184.85453 285.799235 
L 185.553589 311.328055 
L 186.252649 301.116527 
L 186.951708 296.010763 
L 187.650767 287.501156 
L 188.349826 311.328055 
L 189.048885 282.395392 
L 189.747944 278.99155 
L 191.146063 282.395392 
L 191.845122 350.472245 
L 192.544181 266.307064 
L 193.942299 240.778244 
L 194.641358 244.182087 
L 195.340418 222.05711 
L 196.039477 252.691694 
L 196.738536 266.307064 
L 197.437595 216.951346 
L 198.136654 247.58593 
L 198.835713 227.162874 
L 199.534772 201.634054 
L 200.233832 248.356966 
L 200.932891 197.299326 
L 201.63195 201.634054 
L 202.331009 273.114749 
L 203.030068 198.230211 
L 203.729127 239.076323 
L 204.428187 261.972336 
L 205.127246 239.076323 
L 205.826305 256.095536 
L 206.525364 223.759031 
L 207.224423 247.58593 
L 207.923482 215.249424 
L 208.622541 215.249424 
L 209.321601 201.634054 
L 210.02066 237.374402 
L 210.719719 228.864795 
L 211.418778 218.653267 
L 212.117837 170.99947 
L 212.816896 222.05711 
L 213.515956 194.826368 
L 214.215015 228.864795 
L 214.914074 216.02046 
L 215.613133 194.826368 
L 216.312192 227.162874 
L 217.011251 142.066807 
L 217.71031 121.643751 
L 218.40937 213.547503 
L 219.108429 243.251202 
L 219.807488 188.018683 
L 220.506547 224.530067 
L 221.205606 255.164651 
L 221.904665 254.393615 
L 222.603725 250.058887 
L 223.302784 256.866572 
L 224.001843 248.356966 
L 224.700902 260.270415 
L 225.399961 261.972336 
L 226.09902 251.760808 
L 228.895257 251.760808 
L 229.594316 257.797457 
L 230.293375 255.164651 
L 230.992434 253.46273 
L 231.691494 256.095536 
L 232.390553 251.760808 
L 233.089612 255.164651 
L 233.788671 265.376179 
L 234.48773 350.472245 
L 235.186789 222.05711 
L 235.885848 260.270415 
L 236.584908 255.164651 
L 237.283967 263.674258 
L 237.983026 248.356966 
L 238.682085 251.760808 
L 239.381144 244.953123 
L 240.080203 240.778244 
L 240.779263 242.480166 
L 241.478322 239.076323 
L 242.177381 250.989772 
L 242.87644 244.953123 
L 243.575499 260.270415 
L 244.274558 251.760808 
L 244.973618 255.164651 
L 245.672677 248.356966 
L 246.371736 250.058887 
L 247.070795 248.356966 
L 247.769854 245.884008 
L 248.468913 246.655044 
L 249.167972 210.14366 
L 249.867032 230.566716 
L 250.566091 216.951346 
L 251.26515 230.566716 
L 251.964209 213.547503 
L 252.663268 218.653267 
L 253.362327 211.845582 
L 254.061387 146.241686 
L 254.760446 230.566716 
L 255.459505 216.951346 
L 256.158564 213.547503 
L 256.857623 178.578191 
L 257.556682 196.52829 
L 258.255741 183.683955 
L 258.954801 203.335975 
L 259.65386 206.739818 
L 260.352919 213.547503 
L 261.051978 205.037896 
L 261.751037 215.249424 
L 262.450096 230.566716 
L 263.149156 225.460952 
L 263.848215 218.653267 
L 264.547274 213.547503 
L 265.246333 216.951346 
L 265.945392 213.547503 
L 266.644451 216.951346 
L 267.34351 213.547503 
L 268.04257 211.845582 
L 268.741629 215.249424 
L 269.440688 230.566716 
L 270.139747 216.951346 
L 270.838806 228.864795 
L 271.537865 215.249424 
L 272.236925 228.864795 
L 272.935984 215.249424 
L 273.635043 237.374402 
L 274.334102 188.018683 
L 275.033161 239.076323 
L 275.73222 211.845582 
L 276.431279 215.249424 
L 277.130339 350.472245 
L 277.829398 230.566716 
L 278.528457 198.230211 
L 279.227516 228.864795 
L 279.926575 215.249424 
L 280.625634 209.212775 
L 281.324694 181.210998 
L 282.023753 169.297548 
L 282.722812 188.018683 
L 283.421871 173.472427 
L 284.12093 193.124447 
L 284.819989 220.355188 
L 285.519048 176.87627 
L 286.218108 205.037896 
L 286.917167 180.280113 
L 287.616226 198.230211 
L 288.315285 205.808933 
L 289.014344 194.826368 
L 289.713403 195.597405 
L 290.412463 191.422526 
L 291.111522 185.385877 
L 291.810581 199.932132 
L 292.50964 188.789719 
L 293.208699 174.403312 
L 293.907758 228.864795 
L 294.606817 208.441739 
L 295.305877 192.193562 
L 296.004936 193.124447 
L 296.703995 227.162874 
L 297.403054 230.566716 
L 298.102113 230.566716 
L 298.801172 223.759031 
L 299.500232 230.566716 
L 300.199291 218.653267 
L 300.89835 230.566716 
L 301.597409 213.547503 
L 302.296468 211.845582 
L 302.995527 236.443516 
L 303.694586 186.316762 
L 304.393646 200.703169 
L 305.092705 184.61484 
L 305.791764 350.472245 
L 306.490823 182.912919 
L 307.189882 172.701391 
L 307.888941 214.318539 
L 308.588001 235.67248 
L 309.28706 205.037896 
L 309.986119 228.864795 
L 310.685178 205.037896 
L 311.384237 197.299326 
L 312.083296 216.951346 
L 312.782355 205.037896 
L 313.481415 195.597405 
L 314.180474 162.489863 
L 314.879533 205.037896 
L 315.578592 228.864795 
L 316.277651 185.385877 
L 316.97671 226.231988 
L 317.67577 219.424303 
L 318.374829 254.393615 
L 319.073888 158.155135 
L 319.772947 189.720604 
L 320.472006 235.67248 
L 321.171065 200.703169 
L 322.569184 242.480166 
L 323.268243 225.460952 
L 323.967302 240.778244 
L 324.666361 221.126224 
L 326.064479 250.989772 
L 326.763539 245.884008 
L 327.462598 247.58593 
L 328.161657 256.095536 
L 328.860716 248.356966 
L 329.559775 247.58593 
L 330.258834 250.058887 
L 330.957894 244.182087 
L 331.656953 243.251202 
L 332.356012 250.058887 
L 333.055071 254.393615 
L 333.75413 261.972336 
L 334.453189 350.472245 
L 335.152248 244.953123 
L 335.851308 253.46273 
L 336.550367 250.058887 
L 337.249426 255.164651 
L 337.948485 253.46273 
L 338.647544 256.866572 
L 340.045663 255.164651 
L 340.744722 267.0781 
L 341.443781 261.972336 
L 342.14284 258.568494 
L 342.841899 258.568494 
L 343.540958 261.972336 
L 344.240017 263.674258 
L 344.939077 258.568494 
L 345.638136 261.972336 
L 346.337195 267.0781 
L 347.735313 280.693471 
L 348.434372 267.0781 
L 349.133432 285.799235 
L 349.832491 256.866572 
L 350.53155 256.866572 
L 351.230609 260.270415 
L 351.929668 258.568494 
L 352.628727 260.270415 
L 353.327786 265.376179 
L 354.026846 265.376179 
L 354.725905 268.780022 
L 355.424964 263.674258 
L 356.124023 261.972336 
L 356.823082 265.376179 
L 357.522141 263.674258 
L 358.221201 267.0781 
L 358.92026 272.183864 
L 359.619319 261.972336 
L 360.318378 267.0781 
L 361.017437 265.376179 
L 361.716496 282.395392 
L 362.415555 267.0781 
L 363.114615 350.472245 
L 363.813674 251.760808 
L 364.512733 255.164651 
L 365.211792 248.356966 
L 365.910851 246.655044 
L 366.60991 255.164651 
L 367.30897 246.655044 
L 368.008029 261.972336 
L 368.707088 247.58593 
L 369.406147 239.847359 
L 370.105206 244.182087 
L 370.804265 251.760808 
L 371.503324 244.953123 
L 372.202384 246.655044 
L 372.901443 256.095536 
L 373.600502 247.58593 
L 375.697679 244.953123 
L 376.396739 255.164651 
L 377.095798 248.356966 
L 377.794857 261.972336 
L 378.493916 245.884008 
L 379.192975 258.568494 
L 379.892034 255.164651 
L 380.591093 260.270415 
L 381.290153 255.164651 
L 381.989212 260.270415 
L 382.688271 255.164651 
L 384.785448 260.270415 
L 385.484508 267.0781 
L 386.183567 261.972336 
L 386.882626 265.376179 
L 387.581685 258.568494 
L 388.280744 270.481943 
L 388.979803 261.972336 
L 389.678863 265.376179 
L 390.377922 260.270415 
L 391.076981 263.674258 
L 391.77604 352.174167 
L 392.475099 265.376179 
L 393.174158 268.780022 
L 393.873217 270.481943 
L 394.572277 275.587707 
L 395.271336 268.780022 
L 395.970395 270.481943 
L 397.368513 267.0781 
L 398.067572 268.780022 
L 398.766632 263.674258 
L 399.465691 270.481943 
L 400.16475 268.780022 
L 401.562868 258.568494 
L 402.261927 263.674258 
L 402.960986 261.972336 
L 403.660046 256.866572 
L 404.359105 260.270415 
L 405.058164 265.376179 
L 405.757223 263.674258 
L 406.456282 255.164651 
L 407.155341 261.972336 
L 407.854401 267.0781 
L 408.55346 261.972336 
L 409.252519 265.376179 
L 409.951578 263.674258 
L 410.650637 265.376179 
L 412.048755 265.376179 
L 412.747815 263.674258 
L 413.446874 267.0781 
L 414.145933 261.972336 
L 414.844992 263.674258 
L 415.544051 261.972336 
L 416.24311 261.972336 
L 416.94217 265.376179 
L 417.641229 265.376179 
L 418.340288 267.0781 
L 419.738406 267.0781 
L 420.437465 350.472245 
L 421.136524 282.395392 
L 421.835584 275.587707 
L 422.534643 273.885786 
L 423.233702 273.885786 
L 423.932761 275.587707 
L 425.330879 265.376179 
L 426.029939 263.674258 
L 426.728998 263.674258 
L 427.428057 272.183864 
L 428.127116 265.376179 
L 429.525234 268.780022 
L 430.224293 267.0781 
L 430.923353 261.972336 
L 431.622412 263.674258 
L 433.02053 263.674258 
L 433.719589 265.376179 
L 434.418648 260.270415 
L 435.117708 253.46273 
L 435.816767 261.972336 
L 436.515826 263.674258 
L 437.214885 258.568494 
L 437.913944 256.866572 
L 438.613003 263.674258 
L 439.312062 258.568494 
L 440.011122 263.674258 
L 440.710181 258.568494 
L 442.108299 258.568494 
L 442.807358 261.972336 
L 443.506417 263.674258 
L 444.205477 263.674258 
L 444.904536 270.481943 
L 445.603595 275.587707 
L 446.302654 270.481943 
L 447.001713 258.568494 
L 447.700772 258.568494 
L 448.399831 256.095536 
L 449.098891 352.174167 
L 449.79795 245.884008 
L 450.497009 259.499379 
L 451.196068 250.989772 
L 451.895127 252.691694 
L 452.594186 245.884008 
L 453.293246 245.884008 
L 453.992305 247.58593 
L 454.691364 246.655044 
L 455.390423 243.251202 
L 456.089482 247.58593 
L 456.788541 250.058887 
L 457.4876 244.182087 
L 458.18666 261.972336 
L 458.885719 245.884008 
L 459.584778 253.46273 
L 460.283837 247.58593 
L 460.982896 256.866572 
L 461.681955 247.58593 
L 462.381015 248.356966 
L 463.080074 255.164651 
L 463.779133 245.884008 
L 464.478192 253.46273 
L 465.177251 255.164651 
L 465.87631 252.691694 
L 466.57537 251.760808 
L 467.274429 256.095536 
L 467.973488 253.46273 
L 469.371606 258.568494 
L 470.070665 265.376179 
L 470.769724 256.866572 
L 471.468784 256.866572 
L 472.866902 251.760808 
L 473.565961 268.780022 
L 474.26502 250.058887 
L 474.964079 261.2013 
L 475.663139 252.691694 
L 476.362198 248.356966 
L 477.061257 250.989772 
L 477.760316 350.472245 
L 478.459375 250.989772 
L 479.158434 243.251202 
L 479.857493 250.989772 
L 480.556553 244.953123 
L 481.255612 249.287851 
L 481.954671 252.691694 
L 482.65373 248.356966 
L 483.352789 250.989772 
L 484.051848 254.393615 
L 484.750908 260.270415 
L 485.449967 250.989772 
L 486.149026 246.655044 
L 486.848085 255.164651 
L 487.547144 248.356966 
L 488.246203 248.356966 
L 489.644322 251.760808 
L 490.343381 248.356966 
L 491.04244 246.655044 
L 491.741499 271.412828 
L 492.440558 247.58593 
L 493.139617 268.780022 
L 493.838677 255.164651 
L 494.537736 251.760808 
L 495.236795 258.568494 
L 495.935854 256.095536 
L 496.634913 268.780022 
L 497.333972 247.58593 
L 498.033031 255.164651 
L 498.732091 257.797457 
L 499.43115 253.46273 
L 500.130209 258.568494 
L 500.829268 252.691694 
L 501.528327 255.164651 
L 502.227386 254.393615 
L 502.926446 252.691694 
L 503.625505 253.46273 
L 505.023623 251.760808 
L 505.722682 249.287851 
L 506.421741 350.472245 
L 507.1208 250.058887 
L 507.81986 255.164651 
L 508.518919 256.866572 
L 509.217978 250.058887 
L 509.917037 249.287851 
L 511.315155 261.972336 
L 512.014215 272.183864 
L 512.713274 268.780022 
L 513.412333 261.972336 
L 514.111392 260.270415 
L 514.810451 261.972336 
L 515.50951 261.972336 
L 516.208569 267.0781 
L 516.907629 265.376179 
L 516.907629 265.376179 
" style="fill:none;stroke:#1f77b4;stroke-linecap:square;stroke-width:1.5;"/>
   </g>
   <g id="line2d_14">
    <path clip-path="url(#p82234feef3)" d="M 143.69952 174.403312 
L 144.398579 198.230211 
L 145.097638 191.422526 
L 145.796697 165.893706 
L 146.495756 188.018683 
L 147.194815 138.662965 
L 147.893875 165.893706 
L 148.592934 181.210998 
L 149.291993 143.768729 
L 149.991052 199.932132 
L 150.690111 136.961043 
L 151.38917 229.635831 
L 152.08823 164.191784 
L 152.787289 189.720604 
L 153.486348 147.172571 
L 154.185407 294.308842 
L 154.884466 251.760808 
L 155.583525 294.308842 
L 156.282584 301.116527 
L 156.981644 296.010763 
L 157.680703 296.010763 
L 158.379762 307.924212 
L 159.078821 304.52037 
L 159.77788 307.924212 
L 160.476939 307.924212 
L 161.175999 316.433819 
L 161.875058 311.328055 
L 162.574117 313.029976 
L 163.273176 311.328055 
L 163.972235 272.183864 
L 164.671294 301.116527 
L 165.370353 314.731897 
L 166.069413 289.203078 
L 166.768472 306.222291 
L 167.467531 267.0781 
L 168.16659 274.816671 
L 168.865649 250.989772 
L 169.564708 215.249424 
L 170.263768 235.67248 
L 170.962827 276.518592 
L 171.661886 213.547503 
L 172.360945 222.828146 
L 173.060004 196.52829 
L 173.759063 199.932132 
L 174.458122 254.393615 
L 175.157182 257.797457 
L 175.856241 203.335975 
L 176.5553 269.710907 
L 177.254359 283.326277 
L 177.953418 244.182087 
L 178.652477 223.759031 
L 179.351537 273.885786 
L 180.050596 258.568494 
L 180.749655 280.693471 
L 181.448714 287.501156 
L 182.147773 290.904999 
L 182.846832 278.99155 
L 183.545891 278.99155 
L 184.244951 302.818448 
L 184.94401 284.097314 
L 185.643069 292.60692 
L 186.342128 299.414606 
L 187.041187 289.203078 
L 187.740246 282.395392 
L 188.439306 292.60692 
L 189.138365 313.029976 
L 189.837424 280.693471 
L 190.536483 275.587707 
L 191.235542 289.203078 
L 191.934601 282.395392 
L 192.63366 290.904999 
L 193.33272 316.433819 
L 194.031779 314.731897 
L 194.730838 299.414606 
L 195.429897 307.924212 
L 196.128956 304.52037 
L 196.828015 316.433819 
L 197.527075 307.924212 
L 198.226134 311.328055 
L 198.925193 309.626133 
L 199.624252 309.626133 
L 200.323311 311.328055 
L 201.02237 314.731897 
L 202.420489 307.924212 
L 203.119548 311.328055 
L 203.818607 307.924212 
L 204.517666 318.13574 
L 205.915784 311.328055 
L 206.614844 328.347268 
L 207.313903 311.328055 
L 208.012962 313.029976 
L 208.712021 313.029976 
L 209.41108 318.13574 
L 210.110139 328.347268 
L 210.809199 328.347268 
L 211.508258 316.433819 
L 212.207317 316.433819 
L 212.906376 314.731897 
L 213.605435 314.731897 
L 215.003553 318.13574 
L 215.702613 318.13574 
L 216.401672 314.731897 
L 217.100731 328.347268 
L 217.79979 307.924212 
L 218.498849 313.029976 
L 219.197908 313.029976 
L 219.896968 323.241504 
L 220.596027 316.433819 
L 221.295086 265.376179 
L 221.994145 287.501156 
L 222.693204 277.289628 
L 223.392263 280.693471 
L 224.091322 278.99155 
L 224.790382 278.99155 
L 225.489441 275.587707 
L 226.1885 273.885786 
L 226.887559 267.0781 
L 227.586618 272.183864 
L 228.285677 263.674258 
L 228.984737 265.376179 
L 229.683796 265.376179 
L 230.382855 268.780022 
L 231.081914 275.587707 
L 231.780973 265.376179 
L 232.480032 273.885786 
L 233.179091 268.780022 
L 234.57721 261.972336 
L 235.276269 292.60692 
L 235.975328 227.162874 
L 236.674387 261.972336 
L 237.373446 260.270415 
L 238.072506 261.972336 
L 238.771565 260.270415 
L 239.470624 261.972336 
L 240.169683 260.270415 
L 240.868742 261.972336 
L 241.567801 265.376179 
L 242.26686 265.376179 
L 243.664979 261.972336 
L 244.364038 256.866572 
L 245.063097 260.270415 
L 245.762156 250.058887 
L 246.461215 251.760808 
L 247.859334 258.568494 
L 248.558393 265.376179 
L 249.257452 350.472245 
L 249.956511 278.99155 
L 250.65557 272.183864 
L 251.354629 277.289628 
L 252.053689 273.885786 
L 252.752748 280.693471 
L 253.451807 275.587707 
L 254.150866 278.99155 
L 254.849925 265.376179 
L 255.548984 265.376179 
L 256.248044 273.885786 
L 256.947103 268.780022 
L 257.646162 278.99155 
L 258.345221 275.587707 
L 259.04428 277.289628 
L 259.743339 273.885786 
L 260.442398 272.183864 
L 261.141458 275.587707 
L 261.840517 270.481943 
L 262.539576 273.885786 
L 263.238635 268.780022 
L 263.937694 270.481943 
L 264.636753 273.885786 
L 265.335813 275.587707 
L 266.034872 273.885786 
L 266.733931 273.885786 
L 267.43299 277.289628 
L 268.132049 285.799235 
L 268.831108 273.885786 
L 270.928286 278.99155 
L 271.627345 284.097314 
L 272.326404 280.693471 
L 273.025463 287.501156 
L 273.724522 282.395392 
L 274.423582 290.904999 
L 275.122641 278.99155 
L 275.8217 273.885786 
L 276.520759 284.097314 
L 277.219818 277.289628 
L 277.918877 352.174167 
L 278.617936 278.99155 
L 279.316996 282.395392 
L 280.016055 282.395392 
L 280.715114 277.289628 
L 281.414173 284.097314 
L 282.113232 272.183864 
L 282.812291 268.780022 
L 283.511351 268.780022 
L 284.21041 272.183864 
L 284.909469 273.885786 
L 285.608528 272.183864 
L 286.307587 278.99155 
L 287.006646 275.587707 
L 288.404765 275.587707 
L 289.103824 278.99155 
L 289.802883 275.587707 
L 290.501942 275.587707 
L 291.201001 278.99155 
L 291.90006 275.587707 
L 292.59912 277.289628 
L 293.298179 275.587707 
L 293.997238 275.587707 
L 294.696297 278.99155 
L 295.395356 273.885786 
L 296.094415 275.587707 
L 296.793475 272.183864 
L 297.492534 273.885786 
L 298.191593 273.885786 
L 298.890652 272.183864 
L 299.589711 273.885786 
L 300.28877 278.99155 
L 300.987829 275.587707 
L 301.686889 280.693471 
L 302.385948 280.693471 
L 303.085007 273.885786 
L 303.784066 277.289628 
L 304.483125 272.183864 
L 305.182184 273.885786 
L 305.881244 270.481943 
L 306.580303 350.472245 
L 307.279362 272.183864 
L 307.978421 270.481943 
L 308.67748 278.99155 
L 309.376539 268.780022 
L 310.075598 270.481943 
L 310.774658 267.0781 
L 311.473717 270.481943 
L 312.172776 272.183864 
L 312.871835 278.99155 
L 313.570894 270.481943 
L 314.269953 272.183864 
L 314.969013 272.183864 
L 315.668072 267.0781 
L 316.367131 273.885786 
L 317.06619 272.183864 
L 317.765249 289.203078 
L 318.464308 278.99155 
L 319.163367 267.0781 
L 319.862427 268.780022 
L 320.561486 272.183864 
L 321.260545 292.60692 
L 321.959604 272.183864 
L 323.357722 268.780022 
L 324.056782 268.780022 
L 324.755841 272.183864 
L 325.4549 265.376179 
L 326.153959 268.780022 
L 326.853018 268.780022 
L 327.552077 272.183864 
L 328.251136 260.270415 
L 328.950196 268.780022 
L 329.649255 261.972336 
L 330.348314 263.674258 
L 331.047373 263.674258 
L 331.746432 267.0781 
L 332.445491 265.376179 
L 333.144551 260.270415 
L 334.542669 263.674258 
L 335.241728 350.472245 
L 335.940787 268.780022 
L 336.639846 273.885786 
L 337.338905 275.587707 
L 338.037965 272.183864 
L 338.737024 273.885786 
L 339.436083 272.183864 
L 340.135142 272.183864 
L 340.834201 263.674258 
L 341.53326 270.481943 
L 342.23232 265.376179 
L 342.931379 270.481943 
L 343.630438 261.972336 
L 344.329497 263.674258 
L 345.028556 261.972336 
L 345.727615 261.972336 
L 346.426674 268.780022 
L 347.125734 263.674258 
L 347.824793 267.0781 
L 348.523852 262.903221 
L 349.222911 256.866572 
L 349.92197 275.587707 
L 350.621029 253.46273 
L 351.320089 256.866572 
L 352.019148 258.568494 
L 352.718207 256.866572 
L 353.417266 261.972336 
L 354.116325 260.270415 
L 354.815384 261.972336 
L 355.514443 265.376179 
L 356.213503 261.972336 
L 357.611621 258.568494 
L 359.009739 258.568494 
L 359.708798 265.376179 
L 360.407858 261.972336 
L 361.106917 272.183864 
L 361.805976 270.481943 
L 362.505035 265.376179 
L 363.204094 261.972336 
L 363.903153 350.472245 
L 364.602213 255.164651 
L 365.301272 265.376179 
L 366.000331 260.270415 
L 366.69939 265.376179 
L 367.398449 268.780022 
L 368.097508 260.270415 
L 368.796567 268.780022 
L 369.495627 265.376179 
L 370.194686 267.0781 
L 370.893745 258.568494 
L 371.592804 260.270415 
L 372.291863 258.568494 
L 372.990922 260.270415 
L 373.689982 273.885786 
L 374.389041 256.866572 
L 375.0881 260.270415 
L 375.787159 258.568494 
L 376.486218 268.780022 
L 377.185277 272.183864 
L 377.884336 263.674258 
L 378.583396 265.376179 
L 379.282455 265.376179 
L 380.680573 258.568494 
L 381.379632 256.866572 
L 382.078691 258.568494 
L 382.777751 263.674258 
L 383.47681 255.164651 
L 384.175869 255.164651 
L 384.874928 242.480166 
L 385.573987 256.866572 
L 386.273046 249.287851 
L 386.972105 252.691694 
L 387.671165 252.691694 
L 388.370224 248.356966 
L 389.069283 261.2013 
L 389.768342 260.270415 
L 390.467401 248.356966 
L 391.16646 266.307064 
L 391.86552 243.251202 
L 392.564579 350.472245 
L 393.263638 257.797457 
L 393.962697 250.058887 
L 394.661756 256.866572 
L 395.360815 251.760808 
L 396.059874 250.058887 
L 396.758934 250.058887 
L 397.457993 250.989772 
L 398.157052 260.270415 
L 398.856111 255.164651 
L 399.55517 253.46273 
L 400.953289 251.760808 
L 401.652348 253.46273 
L 403.050466 250.058887 
L 403.749525 249.287851 
L 404.448584 256.095536 
L 405.147643 249.287851 
L 405.846703 251.760808 
L 406.545762 252.691694 
L 407.244821 244.953123 
L 407.94388 260.270415 
L 408.642939 256.866572 
L 409.341998 260.270415 
L 410.041058 258.568494 
L 410.740117 263.674258 
L 411.439176 255.164651 
L 412.138235 261.972336 
L 412.837294 256.866572 
L 413.536353 268.780022 
L 414.235412 268.780022 
L 414.934472 267.0781 
L 415.633531 268.780022 
L 416.33259 272.183864 
L 417.031649 265.376179 
L 417.730708 267.0781 
L 418.429767 265.376179 
L 419.128827 272.183864 
L 419.827886 268.780022 
L 420.526945 275.587707 
L 421.226004 352.174167 
L 421.925063 260.270415 
L 422.624122 258.568494 
L 423.323181 272.183864 
L 424.022241 263.674258 
L 424.7213 270.481943 
L 425.420359 263.674258 
L 426.119418 265.376179 
L 426.818477 268.780022 
L 427.517536 265.376179 
L 428.216596 275.587707 
L 428.915655 260.270415 
L 429.614714 272.183864 
L 430.313773 261.972336 
L 431.012832 267.0781 
L 431.711891 260.270415 
L 432.410951 263.674258 
L 433.809069 260.270415 
L 434.508128 265.376179 
L 435.207187 265.376179 
L 435.906246 258.568494 
L 436.605305 272.183864 
L 437.304365 260.270415 
L 438.003424 260.270415 
L 438.702483 270.481943 
L 439.401542 265.376179 
L 440.100601 273.885786 
L 440.79966 265.376179 
L 442.197779 261.972336 
L 442.896838 261.972336 
L 443.595897 258.568494 
L 444.294956 263.674258 
L 444.994015 256.866572 
L 445.693074 258.568494 
L 446.392134 268.780022 
L 447.091193 268.780022 
L 447.790252 267.0781 
L 448.489311 268.780022 
L 449.18837 273.885786 
L 449.887429 350.472245 
L 450.586489 275.587707 
L 451.285548 272.183864 
L 451.984607 270.481943 
L 452.683666 260.270415 
L 453.382725 265.376179 
L 454.081784 260.270415 
L 454.780843 261.972336 
L 455.479903 261.972336 
L 456.178962 267.0781 
L 456.878021 261.972336 
L 458.276139 261.972336 
L 458.975198 267.0781 
L 459.674258 260.270415 
L 460.373317 258.568494 
L 461.771435 261.972336 
L 462.470494 267.0781 
L 463.169553 260.270415 
L 463.868612 268.780022 
L 464.567672 268.780022 
L 465.266731 272.183864 
L 465.96579 277.289628 
L 466.664849 267.0781 
L 467.363908 275.587707 
L 468.062967 268.780022 
L 468.762027 275.587707 
L 469.461086 265.376179 
L 470.160145 260.270415 
L 470.859204 263.674258 
L 471.558263 261.972336 
L 472.257322 268.780022 
L 472.956381 261.972336 
L 473.655441 263.674258 
L 474.3545 261.972336 
L 475.053559 263.674258 
L 475.752618 263.674258 
L 476.451677 260.270415 
L 477.150736 268.780022 
L 477.849796 261.972336 
L 478.548855 350.472245 
L 479.247914 270.481943 
L 479.946973 272.183864 
L 480.646032 265.376179 
L 481.345091 267.0781 
L 482.04415 267.0781 
L 482.74321 278.99155 
L 483.442269 270.481943 
L 484.141328 263.674258 
L 484.840387 270.481943 
L 485.539446 270.481943 
L 486.937565 263.674258 
L 487.636624 263.674258 
L 488.335683 270.481943 
L 489.034742 268.780022 
L 489.733801 273.885786 
L 490.43286 272.183864 
L 491.131919 267.0781 
L 491.830979 267.0781 
L 492.530038 277.289628 
L 493.229097 265.376179 
L 493.928156 267.0781 
L 494.627215 273.885786 
L 495.326274 268.780022 
L 496.025334 282.395392 
L 496.724393 272.183864 
L 497.423452 280.693471 
L 498.122511 265.376179 
L 499.520629 275.587707 
L 500.219688 268.780022 
L 500.918748 265.376179 
L 501.617807 260.270415 
L 502.316866 260.270415 
L 503.015925 265.376179 
L 503.714984 261.972336 
L 504.414043 265.376179 
L 505.113103 261.972336 
L 505.812162 267.0781 
L 506.511221 268.780022 
L 507.21028 316.433819 
L 507.909339 263.674258 
L 508.608398 272.183864 
L 509.307458 270.481943 
L 510.006517 278.99155 
L 510.705576 267.0781 
L 511.404635 267.0781 
L 512.103694 273.885786 
L 512.802753 267.0781 
L 513.501812 270.481943 
L 514.200872 256.866572 
L 514.899931 267.0781 
L 515.59899 256.866572 
L 516.298049 263.674258 
L 516.997108 255.164651 
L 517.696167 253.46273 
L 518.395227 248.356966 
L 519.094286 255.164651 
L 519.793345 255.164651 
L 520.492404 258.568494 
L 520.492404 258.568494 
" style="fill:none;stroke:#ff7f0e;stroke-linecap:square;stroke-width:1.5;"/>
   </g>
   <g id="line2d_15">
    <path clip-path="url(#p82234feef3)" d="M 148.044871 109.730302 
L 148.743931 147.172571 
L 149.44299 193.124447 
L 150.142049 138.662965 
L 150.841108 181.210998 
L 151.540167 140.364886 
L 152.239226 336.085839 
L 153.637345 170.068585 
L 154.336404 230.566716 
L 155.035463 142.066807 
L 155.734522 179.509076 
L 156.433581 188.018683 
L 157.13264 204.107011 
L 157.8317 185.385877 
L 158.530759 148.874493 
L 159.229818 196.52829 
L 159.928877 256.866572 
L 160.627936 152.278335 
L 161.326995 147.172571 
L 162.026054 186.316762 
L 162.725114 179.509076 
L 163.424173 150.576414 
L 164.123232 240.778244 
L 164.822291 170.99947 
L 165.52135 216.02046 
L 166.220409 193.124447 
L 166.919469 212.616618 
L 167.618528 148.874493 
L 168.317587 170.068585 
L 169.016646 199.932132 
L 169.715705 142.066807 
L 170.414764 123.345673 
L 171.812883 164.191784 
L 172.511942 179.509076 
L 173.211001 238.145438 
L 173.91006 165.893706 
L 174.609119 167.595627 
L 175.308178 159.086021 
L 176.007238 239.847359 
L 176.706297 350.472245 
L 177.405356 191.422526 
L 178.104415 249.287851 
L 178.803474 188.018683 
L 179.502533 225.460952 
L 180.201592 193.895483 
L 180.900652 181.210998 
L 181.599711 179.509076 
L 182.29877 182.912919 
L 182.997829 199.932132 
L 183.696888 188.018683 
L 184.395947 142.066807 
L 185.095007 181.982034 
L 185.794066 162.489863 
L 186.493125 135.259122 
L 187.192184 140.364886 
L 187.891243 210.914697 
L 188.590302 176.105234 
L 189.289361 133.557201 
L 189.988421 125.047594 
L 190.68748 191.422526 
L 191.386539 181.210998 
L 192.085598 185.385877 
L 192.784657 219.424303 
L 193.483716 169.297548 
L 194.182776 195.597405 
L 194.881835 162.489863 
L 195.580894 236.443516 
L 196.279953 172.701391 
L 196.979012 157.384099 
L 197.678071 183.683955 
L 198.37713 157.384099 
L 199.07619 191.422526 
L 199.775249 207.510854 
L 200.474308 181.210998 
L 201.173367 181.210998 
L 201.872426 204.107011 
L 202.571485 121.643751 
L 203.270545 196.52829 
L 203.969604 230.566716 
L 204.668663 189.720604 
L 205.367722 350.472245 
L 206.066781 150.576414 
L 206.76584 200.703169 
L 207.4649 169.297548 
L 208.163959 272.183864 
L 208.863018 176.105234 
L 209.562077 206.739818 
L 210.261136 148.874493 
L 210.960195 210.914697 
L 211.659254 153.980257 
L 212.358314 181.210998 
L 213.057373 181.210998 
L 213.756432 152.278335 
L 214.455491 176.105234 
L 215.15455 248.356966 
L 215.853609 216.02046 
L 216.552669 193.124447 
L 217.251728 157.384099 
L 217.950787 170.068585 
L 218.649846 238.145438 
L 219.348905 240.778244 
L 220.047964 208.441739 
L 220.747023 256.095536 
L 221.446083 245.884008 
L 222.145142 246.655044 
L 222.844201 251.760808 
L 223.54326 244.953123 
L 224.242319 258.568494 
L 224.941378 258.568494 
L 225.640438 255.164651 
L 226.339497 258.568494 
L 227.038556 251.760808 
L 227.737615 255.164651 
L 228.436674 251.760808 
L 229.135733 258.568494 
L 230.533852 248.356966 
L 231.232911 260.270415 
L 231.93197 246.655044 
L 232.631029 248.356966 
L 233.330088 268.780022 
L 234.029147 296.010763 
L 234.728207 247.58593 
L 235.427266 260.270415 
L 236.126325 255.164651 
L 236.825384 256.866572 
L 238.223502 263.674258 
L 238.922561 268.780022 
L 239.621621 270.481943 
L 240.32068 278.99155 
L 241.019739 268.780022 
L 241.718798 270.481943 
L 242.417857 267.0781 
L 243.116916 275.587707 
L 243.815976 272.183864 
L 244.515035 273.885786 
L 245.214094 268.780022 
L 245.913153 278.99155 
L 246.612212 278.99155 
L 247.311271 270.481943 
L 248.01033 282.395392 
L 249.408449 275.587707 
L 250.107508 282.395392 
L 250.806567 277.289628 
L 251.505626 285.799235 
L 252.204685 273.885786 
L 252.903745 282.395392 
L 253.602804 280.693471 
L 254.301863 294.308842 
L 255.000922 273.885786 
L 256.39904 277.289628 
L 257.098099 272.183864 
L 257.797159 282.395392 
L 258.496218 277.289628 
L 259.195277 287.501156 
L 259.894336 289.203078 
L 260.593395 289.203078 
L 261.292454 280.693471 
L 261.991514 278.99155 
L 262.690573 294.308842 
L 263.389632 282.395392 
L 264.088691 280.693471 
L 264.78775 287.501156 
L 265.486809 280.693471 
L 266.884928 287.501156 
L 267.583987 277.289628 
L 268.283046 277.289628 
L 268.982105 280.693471 
L 269.681164 270.481943 
L 270.380223 282.395392 
L 271.079283 273.885786 
L 272.477401 280.693471 
L 273.17646 277.289628 
L 273.875519 272.183864 
L 274.574578 265.376179 
L 275.273637 277.289628 
L 275.972697 273.885786 
L 276.671756 350.472245 
L 277.370815 277.289628 
L 278.069874 284.097314 
L 278.768933 273.885786 
L 279.467992 272.183864 
L 280.167052 268.780022 
L 281.56517 268.780022 
L 282.264229 284.097314 
L 282.963288 268.780022 
L 283.662347 272.183864 
L 285.060466 272.183864 
L 285.759525 275.587707 
L 287.157643 275.587707 
L 287.856702 277.289628 
L 288.555761 277.289628 
L 289.254821 275.587707 
L 291.351998 275.587707 
L 292.051057 268.780022 
L 292.750116 272.183864 
L 293.449176 280.693471 
L 294.148235 280.693471 
L 294.847294 275.587707 
L 295.546353 275.587707 
L 296.245412 280.693471 
L 296.944471 280.693471 
L 297.64353 284.097314 
L 298.34259 280.693471 
L 299.041649 284.097314 
L 299.740708 280.693471 
L 300.439767 292.60692 
L 301.138826 282.395392 
L 301.837885 284.097314 
L 302.536945 275.587707 
L 303.236004 278.99155 
L 303.935063 285.799235 
L 304.634122 278.99155 
L 305.333181 350.472245 
L 306.03224 272.183864 
L 306.731299 275.587707 
L 307.430359 272.183864 
L 308.129418 275.587707 
L 308.828477 282.395392 
L 309.527536 272.183864 
L 310.226595 278.99155 
L 310.925654 267.0781 
L 311.624714 273.885786 
L 312.323773 275.587707 
L 313.721891 268.780022 
L 314.42095 270.481943 
L 315.120009 282.395392 
L 315.819068 268.780022 
L 316.518128 272.183864 
L 317.217187 268.780022 
L 317.916246 268.780022 
L 318.615305 278.99155 
L 319.314364 272.183864 
L 320.013423 277.289628 
L 320.712483 265.376179 
L 321.411542 267.0781 
L 322.110601 267.0781 
L 322.80966 268.780022 
L 324.207778 268.780022 
L 324.906837 272.183864 
L 325.605897 272.183864 
L 326.304956 265.376179 
L 327.004015 272.183864 
L 327.703074 268.780022 
L 328.402133 270.481943 
L 329.101192 263.674258 
L 329.800252 277.289628 
L 330.499311 265.376179 
L 331.19837 273.885786 
L 331.897429 263.674258 
L 332.596488 267.0781 
L 333.295547 265.376179 
L 333.994606 350.472245 
L 334.693666 251.760808 
L 335.392725 261.972336 
L 336.091784 251.760808 
L 336.790843 261.972336 
L 337.489902 255.164651 
L 338.188961 256.866572 
L 338.888021 249.287851 
L 339.58708 250.058887 
L 340.286139 252.691694 
L 340.985198 249.287851 
L 342.383316 249.287851 
L 343.082375 256.095536 
L 343.781435 248.356966 
L 344.480494 255.164651 
L 345.179553 252.691694 
L 345.878612 263.674258 
L 346.577671 253.46273 
L 347.27673 255.164651 
L 347.97579 252.691694 
L 348.674849 274.816671 
L 349.373908 256.866572 
L 350.072967 268.780022 
L 350.772026 253.46273 
L 351.471085 251.760808 
L 352.170145 244.182087 
L 352.869204 244.953123 
L 353.568263 256.866572 
L 354.267322 248.356966 
L 354.966381 256.866572 
L 355.66544 250.058887 
L 357.063559 243.251202 
L 357.762618 248.356966 
L 358.461677 255.164651 
L 359.160736 251.760808 
L 359.859795 253.46273 
L 360.558854 272.183864 
L 361.257914 258.568494 
L 361.956973 248.356966 
L 362.656032 350.472245 
L 363.355091 256.866572 
L 364.05415 270.481943 
L 364.753209 261.972336 
L 365.452268 268.780022 
L 366.151328 261.972336 
L 366.850387 265.376179 
L 367.549446 263.674258 
L 368.248505 268.780022 
L 368.947564 272.183864 
L 369.646623 261.972336 
L 370.345683 267.0781 
L 371.044742 265.376179 
L 371.743801 267.0781 
L 372.44286 267.0781 
L 373.141919 263.674258 
L 373.840978 267.0781 
L 374.540037 261.972336 
L 375.239097 272.183864 
L 375.938156 263.674258 
L 376.637215 267.0781 
L 377.336274 260.270415 
L 378.035333 258.568494 
L 378.734392 260.270415 
L 379.433452 258.568494 
L 380.83157 261.972336 
L 381.530629 272.183864 
L 382.229688 260.270415 
L 382.928747 260.270415 
L 383.627806 263.674258 
L 384.326866 263.674258 
L 385.025925 267.0781 
L 385.724984 261.972336 
L 387.822161 261.972336 
L 388.521221 284.097314 
L 389.22028 265.376179 
L 389.919339 270.481943 
L 390.618398 260.270415 
L 391.317457 352.174167 
L 392.016516 251.760808 
L 392.715575 263.674258 
L 393.414635 252.691694 
L 394.113694 255.164651 
L 394.812753 251.760808 
L 395.511812 250.058887 
L 396.210871 260.270415 
L 396.90993 250.989772 
L 397.60899 247.58593 
L 398.308049 250.989772 
L 399.007108 258.568494 
L 399.706167 261.972336 
L 400.405226 261.972336 
L 401.104285 267.0781 
L 401.803344 268.780022 
L 402.502404 267.0781 
L 403.201463 261.972336 
L 403.900522 265.376179 
L 404.599581 261.972336 
L 405.29864 261.972336 
L 405.997699 251.760808 
L 406.696759 265.376179 
L 407.395818 251.760808 
L 408.793936 255.164651 
L 410.192054 244.953123 
L 410.891113 244.953123 
L 411.590173 254.393615 
L 412.289232 248.356966 
L 412.988291 261.2013 
L 413.68735 250.058887 
L 414.386409 257.797457 
L 415.085468 246.655044 
L 415.784528 251.760808 
L 417.182646 237.374402 
L 417.881705 242.480166 
L 418.580764 245.884008 
L 419.279823 247.58593 
L 419.978882 350.472245 
L 420.677942 242.480166 
L 421.377001 249.287851 
L 422.07606 251.760808 
L 422.775119 243.251202 
L 423.474178 268.780022 
L 424.173237 253.46273 
L 424.872297 256.866572 
L 425.571356 250.989772 
L 426.270415 250.058887 
L 426.969474 260.270415 
L 427.668533 247.58593 
L 428.367592 249.287851 
L 429.066652 250.058887 
L 429.765711 256.866572 
L 430.46477 248.356966 
L 431.163829 246.655044 
L 431.862888 242.480166 
L 432.561947 245.884008 
L 433.960066 242.480166 
L 434.659125 244.953123 
L 435.358184 268.780022 
L 436.057243 250.989772 
L 436.756302 245.884008 
L 437.455361 251.760808 
L 438.154421 246.655044 
L 438.85348 272.183864 
L 439.552539 246.655044 
L 440.251598 250.058887 
L 440.950657 248.356966 
L 441.649716 250.058887 
L 442.348775 255.164651 
L 443.047835 251.760808 
L 443.746894 253.46273 
L 444.445953 248.356966 
L 445.145012 250.058887 
L 445.844071 261.972336 
L 446.54313 258.568494 
L 447.24219 256.866572 
L 447.941249 250.058887 
L 448.640308 350.472245 
L 449.339367 255.164651 
L 450.038426 261.972336 
L 450.737485 261.972336 
L 452.834663 267.0781 
L 453.533722 275.587707 
L 454.232781 268.780022 
L 454.93184 273.885786 
L 455.630899 270.481943 
L 456.329959 265.376179 
L 457.029018 267.0781 
L 457.728077 269.710907 
L 458.427136 267.0781 
L 459.126195 265.376179 
L 459.825254 268.780022 
L 460.524313 268.780022 
L 461.223373 273.885786 
L 461.922432 261.972336 
L 462.621491 263.674258 
L 463.32055 259.499379 
L 464.019609 253.46273 
L 464.718668 255.164651 
L 465.417728 250.058887 
L 466.116787 256.866572 
L 466.815846 250.058887 
L 467.514905 263.674258 
L 468.213964 252.691694 
L 469.612082 247.58593 
L 470.311142 253.46273 
L 471.010201 261.972336 
L 471.70926 258.568494 
L 472.408319 268.780022 
L 473.107378 263.674258 
L 473.806437 267.0781 
L 474.505497 272.183864 
L 475.204556 272.183864 
L 475.903615 265.376179 
L 476.602674 270.481943 
L 477.301733 350.472245 
L 478.000792 263.674258 
L 478.699851 272.183864 
L 479.398911 261.972336 
L 480.797029 272.183864 
L 481.496088 270.481943 
L 482.195147 261.972336 
L 482.894206 263.674258 
L 483.593266 261.972336 
L 484.292325 263.674258 
L 485.690443 260.270415 
L 486.389502 268.780022 
L 487.088561 263.674258 
L 487.78762 268.780022 
L 488.48668 255.164651 
L 489.185739 260.270415 
L 490.583857 256.866572 
L 491.282916 263.674258 
L 491.981975 255.164651 
L 493.380094 258.568494 
L 494.079153 261.972336 
L 494.778212 260.270415 
L 496.17633 263.674258 
L 496.875389 258.568494 
L 497.574449 255.164651 
L 498.273508 261.972336 
L 498.972567 261.972336 
L 499.671626 270.481943 
L 500.370685 265.376179 
L 501.069744 265.376179 
L 501.768804 261.972336 
L 502.467863 256.866572 
L 503.166922 265.376179 
L 503.865981 263.674258 
L 504.56504 275.587707 
L 505.264099 272.183864 
L 505.963159 345.366481 
L 506.662218 261.972336 
L 507.361277 270.481943 
L 508.060336 259.499379 
L 508.759395 267.0781 
L 509.458454 255.164651 
L 510.157513 252.691694 
L 510.856573 244.953123 
L 511.555632 256.866572 
L 512.254691 243.251202 
L 512.95375 258.568494 
L 513.652809 251.760808 
L 514.351868 258.568494 
L 515.050928 255.164651 
L 515.749987 258.568494 
L 516.449046 250.989772 
L 517.148105 248.356966 
L 517.847164 250.058887 
L 518.546223 246.655044 
L 519.245282 249.287851 
L 519.944342 258.568494 
L 520.643401 238.145438 
L 521.34246 259.499379 
L 522.041519 255.164651 
L 522.740578 260.270415 
L 523.439637 260.270415 
L 524.138697 265.376179 
L 524.837756 258.568494 
L 524.837756 258.568494 
" style="fill:none;stroke:#2ca02c;stroke-linecap:square;stroke-width:1.5;"/>
   </g>
   <g id="patch_3">
    <path d="M 120.878594 352.174167 
L 120.878594 35.0625 
" style="fill:none;stroke:#000000;stroke-linecap:square;stroke-linejoin:miter;stroke-width:0.8;"/>
   </g>
   <g id="patch_4">
    <path d="M 544.073906 352.174167 
L 544.073906 35.0625 
" style="fill:none;stroke:#000000;stroke-linecap:square;stroke-linejoin:miter;stroke-width:0.8;"/>
   </g>
   <g id="patch_5">
    <path d="M 120.878594 352.174167 
L 544.073906 352.174167 
" style="fill:none;stroke:#000000;stroke-linecap:square;stroke-linejoin:miter;stroke-width:0.8;"/>
   </g>
   <g id="patch_6">
    <path d="M 120.878594 35.0625 
L 544.073906 35.0625 
" style="fill:none;stroke:#000000;stroke-linecap:square;stroke-linejoin:miter;stroke-width:0.8;"/>
   </g>
   <g id="legend_1">
    <g id="patch_7">
     <path d="M 567.233672 82.096875 
L 628.766484 82.096875 
Q 630.766484 82.096875 630.766484 80.096875 
L 630.766484 37.0625 
Q 630.766484 35.0625 628.766484 35.0625 
L 567.233672 35.0625 
Q 565.233672 35.0625 565.233672 37.0625 
L 565.233672 80.096875 
Q 565.233672 82.096875 567.233672 82.096875 
z
" style="fill:#ffffff;opacity:0.8;stroke:#cccccc;stroke-linejoin:miter;"/>
    </g>
    <g id="line2d_16">
     <path d="M 569.233672 43.160937 
L 589.233672 43.160937 
" style="fill:none;stroke:#1f77b4;stroke-linecap:square;stroke-width:1.5;"/>
    </g>
    <g id="line2d_17"/>
    <g id="text_14">
     <!-- bbr-pi -->
     <defs>
      <path d="M 41.109375 46.296875 
Q 39.59375 47.171875 37.8125 47.578125 
Q 36.03125 48 33.890625 48 
Q 26.265625 48 22.1875 43.046875 
Q 18.109375 38.09375 18.109375 28.8125 
L 18.109375 0 
L 9.078125 0 
L 9.078125 54.6875 
L 18.109375 54.6875 
L 18.109375 46.1875 
Q 20.953125 51.171875 25.484375 53.578125 
Q 30.03125 56 36.53125 56 
Q 37.453125 56 38.578125 55.875 
Q 39.703125 55.765625 41.0625 55.515625 
z
" id="DejaVuSans-114"/>
      <path d="M 4.890625 31.390625 
L 31.203125 31.390625 
L 31.203125 23.390625 
L 4.890625 23.390625 
z
" id="DejaVuSans-45"/>
      <path d="M 18.109375 8.203125 
L 18.109375 -20.796875 
L 9.078125 -20.796875 
L 9.078125 54.6875 
L 18.109375 54.6875 
L 18.109375 46.390625 
Q 20.953125 51.265625 25.265625 53.625 
Q 29.59375 56 35.59375 56 
Q 45.5625 56 51.78125 48.09375 
Q 58.015625 40.1875 58.015625 27.296875 
Q 58.015625 14.40625 51.78125 6.484375 
Q 45.5625 -1.421875 35.59375 -1.421875 
Q 29.59375 -1.421875 25.265625 0.953125 
Q 20.953125 3.328125 18.109375 8.203125 
z
M 48.6875 27.296875 
Q 48.6875 37.203125 44.609375 42.84375 
Q 40.53125 48.484375 33.40625 48.484375 
Q 26.265625 48.484375 22.1875 42.84375 
Q 18.109375 37.203125 18.109375 27.296875 
Q 18.109375 17.390625 22.1875 11.75 
Q 26.265625 6.109375 33.40625 6.109375 
Q 40.53125 6.109375 44.609375 11.75 
Q 48.6875 17.390625 48.6875 27.296875 
z
" id="DejaVuSans-112"/>
     </defs>
     <g transform="translate(597.233672 46.660937)scale(0.1 -0.1)">
      <use xlink:href="#DejaVuSans-98"/>
      <use x="63.476562" xlink:href="#DejaVuSans-98"/>
      <use x="126.953125" xlink:href="#DejaVuSans-114"/>
      <use x="167.972656" xlink:href="#DejaVuSans-45"/>
      <use x="204.056641" xlink:href="#DejaVuSans-112"/>
      <use x="267.533203" xlink:href="#DejaVuSans-105"/>
     </g>
    </g>
    <g id="line2d_18">
     <path d="M 569.233672 57.839063 
L 589.233672 57.839063 
" style="fill:none;stroke:#ff7f0e;stroke-linecap:square;stroke-width:1.5;"/>
    </g>
    <g id="line2d_19"/>
    <g id="text_15">
     <!-- bbr-pi -->
     <g transform="translate(597.233672 61.339063)scale(0.1 -0.1)">
      <use xlink:href="#DejaVuSans-98"/>
      <use x="63.476562" xlink:href="#DejaVuSans-98"/>
      <use x="126.953125" xlink:href="#DejaVuSans-114"/>
      <use x="167.972656" xlink:href="#DejaVuSans-45"/>
      <use x="204.056641" xlink:href="#DejaVuSans-112"/>
      <use x="267.533203" xlink:href="#DejaVuSans-105"/>
     </g>
    </g>
    <g id="line2d_20">
     <path d="M 569.233672 72.517187 
L 589.233672 72.517187 
" style="fill:none;stroke:#2ca02c;stroke-linecap:square;stroke-width:1.5;"/>
    </g>
    <g id="line2d_21"/>
    <g id="text_16">
     <!-- bbr-pi -->
     <g transform="translate(597.233672 76.017187)scale(0.1 -0.1)">
      <use xlink:href="#DejaVuSans-98"/>
      <use x="63.476562" xlink:href="#DejaVuSans-98"/>
      <use x="126.953125" xlink:href="#DejaVuSans-114"/>
      <use x="167.972656" xlink:href="#DejaVuSans-45"/>
      <use x="204.056641" xlink:href="#DejaVuSans-112"/>
      <use x="267.533203" xlink:href="#DejaVuSans-105"/>
     </g>
    </g>
   </g>
  </g>
  <g id="text_17">
   <!-- result inflight -->
   <defs>
    <path d="M 8.5 21.578125 
L 8.5 54.6875 
L 17.484375 54.6875 
L 17.484375 21.921875 
Q 17.484375 14.15625 20.5 10.265625 
Q 23.53125 6.390625 29.59375 6.390625 
Q 36.859375 6.390625 41.078125 11.03125 
Q 45.3125 15.671875 45.3125 23.6875 
L 45.3125 54.6875 
L 54.296875 54.6875 
L 54.296875 0 
L 45.3125 0 
L 45.3125 8.40625 
Q 42.046875 3.421875 37.71875 1 
Q 33.40625 -1.421875 27.6875 -1.421875 
Q 18.265625 -1.421875 13.375 4.4375 
Q 8.5 10.296875 8.5 21.578125 
z
M 31.109375 56 
z
" id="DejaVuSans-117"/>
    <path id="DejaVuSans-32"/>
   </defs>
   <g transform="translate(302.110313 17.038125)scale(0.12 -0.12)">
    <use xlink:href="#DejaVuSans-114"/>
    <use x="41.082031" xlink:href="#DejaVuSans-101"/>
    <use x="102.605469" xlink:href="#DejaVuSans-115"/>
    <use x="154.705078" xlink:href="#DejaVuSans-117"/>
    <use x="218.083984" xlink:href="#DejaVuSans-108"/>
    <use x="245.867188" xlink:href="#DejaVuSans-116"/>
    <use x="285.076172" xlink:href="#DejaVuSans-32"/>
    <use x="316.863281" xlink:href="#DejaVuSans-105"/>
    <use x="344.646484" xlink:href="#DejaVuSans-110"/>
    <use x="408.025391" xlink:href="#DejaVuSans-102"/>
    <use x="443.230469" xlink:href="#DejaVuSans-108"/>
    <use x="471.013672" xlink:href="#DejaVuSans-105"/>
    <use x="498.796875" xlink:href="#DejaVuSans-103"/>
    <use x="562.273438" xlink:href="#DejaVuSans-104"/>
    <use x="625.652344" xlink:href="#DejaVuSans-116"/>
   </g>
  </g>
 </g>
 <defs>
  <clipPath id="p82234feef3">
   <rect height="317.111667" width="423.195312" x="120.878594" y="35.0625"/>
  </clipPath>
 </defs>
</svg>
