<?xml version="1.0" encoding="utf-8" standalone="no"?>
<!DOCTYPE svg PUBLIC "-//W3C//DTD SVG 1.1//EN"
  "http://www.w3.org/Graphics/SVG/1.1/DTD/svg11.dtd">
<!-- Created with matplotlib (https://matplotlib.org/) -->
<svg height="396pt" version="1.1" viewBox="0 0 684 396" width="684pt" xmlns="http://www.w3.org/2000/svg" xmlns:xlink="http://www.w3.org/1999/xlink">
 <defs>
  <style type="text/css">
*{stroke-linecap:butt;stroke-linejoin:round;}
  </style>
 </defs>
 <g id="figure_1">
  <g id="patch_1">
   <path d="M 0 396 
L 684 396 
L 684 0 
L 0 0 
z
" style="fill:#ffffff;"/>
  </g>
  <g id="axes_1">
   <g id="patch_2">
    <path d="M 92.823906 352.174167 
L 544.073906 352.174167 
L 544.073906 35.0625 
L 92.823906 35.0625 
z
" style="fill:#ffffff;"/>
   </g>
   <g id="matplotlib.axis_1">
    <g id="xtick_1">
     <g id="line2d_1">
      <defs>
       <path d="M 0 0 
L 0 3.5 
" id="mbb8434da19" style="stroke:#000000;stroke-width:0.8;"/>
      </defs>
      <g>
       <use style="stroke:#000000;stroke-width:0.8;" x="113.33527" xlink:href="#mbb8434da19" y="352.174167"/>
      </g>
     </g>
     <g id="text_1">
      <!-- 0 -->
      <defs>
       <path d="M 31.78125 66.40625 
Q 24.171875 66.40625 20.328125 58.90625 
Q 16.5 51.421875 16.5 36.375 
Q 16.5 21.390625 20.328125 13.890625 
Q 24.171875 6.390625 31.78125 6.390625 
Q 39.453125 6.390625 43.28125 13.890625 
Q 47.125 21.390625 47.125 36.375 
Q 47.125 51.421875 43.28125 58.90625 
Q 39.453125 66.40625 31.78125 66.40625 
z
M 31.78125 74.21875 
Q 44.046875 74.21875 50.515625 64.515625 
Q 56.984375 54.828125 56.984375 36.375 
Q 56.984375 17.96875 50.515625 8.265625 
Q 44.046875 -1.421875 31.78125 -1.421875 
Q 19.53125 -1.421875 13.0625 8.265625 
Q 6.59375 17.96875 6.59375 36.375 
Q 6.59375 54.828125 13.0625 64.515625 
Q 19.53125 74.21875 31.78125 74.21875 
z
" id="DejaVuSans-48"/>
      </defs>
      <g transform="translate(110.15402 366.772604)scale(0.1 -0.1)">
       <use xlink:href="#DejaVuSans-48"/>
      </g>
     </g>
    </g>
    <g id="xtick_2">
     <g id="line2d_2">
      <g>
       <use style="stroke:#000000;stroke-width:0.8;" x="187.801006" xlink:href="#mbb8434da19" y="352.174167"/>
      </g>
     </g>
     <g id="text_2">
      <!-- 50 -->
      <defs>
       <path d="M 10.796875 72.90625 
L 49.515625 72.90625 
L 49.515625 64.59375 
L 19.828125 64.59375 
L 19.828125 46.734375 
Q 21.96875 47.46875 24.109375 47.828125 
Q 26.265625 48.1875 28.421875 48.1875 
Q 40.625 48.1875 47.75 41.5 
Q 54.890625 34.8125 54.890625 23.390625 
Q 54.890625 11.625 47.5625 5.09375 
Q 40.234375 -1.421875 26.90625 -1.421875 
Q 22.3125 -1.421875 17.546875 -0.640625 
Q 12.796875 0.140625 7.71875 1.703125 
L 7.71875 11.625 
Q 12.109375 9.234375 16.796875 8.0625 
Q 21.484375 6.890625 26.703125 6.890625 
Q 35.15625 6.890625 40.078125 11.328125 
Q 45.015625 15.765625 45.015625 23.390625 
Q 45.015625 31 40.078125 35.4375 
Q 35.15625 39.890625 26.703125 39.890625 
Q 22.75 39.890625 18.8125 39.015625 
Q 14.890625 38.140625 10.796875 36.28125 
z
" id="DejaVuSans-53"/>
      </defs>
      <g transform="translate(181.438506 366.772604)scale(0.1 -0.1)">
       <use xlink:href="#DejaVuSans-53"/>
       <use x="63.623047" xlink:href="#DejaVuSans-48"/>
      </g>
     </g>
    </g>
    <g id="xtick_3">
     <g id="line2d_3">
      <g>
       <use style="stroke:#000000;stroke-width:0.8;" x="262.266742" xlink:href="#mbb8434da19" y="352.174167"/>
      </g>
     </g>
     <g id="text_3">
      <!-- 100 -->
      <defs>
       <path d="M 12.40625 8.296875 
L 28.515625 8.296875 
L 28.515625 63.921875 
L 10.984375 60.40625 
L 10.984375 69.390625 
L 28.421875 72.90625 
L 38.28125 72.90625 
L 38.28125 8.296875 
L 54.390625 8.296875 
L 54.390625 0 
L 12.40625 0 
z
" id="DejaVuSans-49"/>
      </defs>
      <g transform="translate(252.722992 366.772604)scale(0.1 -0.1)">
       <use xlink:href="#DejaVuSans-49"/>
       <use x="63.623047" xlink:href="#DejaVuSans-48"/>
       <use x="127.246094" xlink:href="#DejaVuSans-48"/>
      </g>
     </g>
    </g>
    <g id="xtick_4">
     <g id="line2d_4">
      <g>
       <use style="stroke:#000000;stroke-width:0.8;" x="336.732478" xlink:href="#mbb8434da19" y="352.174167"/>
      </g>
     </g>
     <g id="text_4">
      <!-- 150 -->
      <g transform="translate(327.188728 366.772604)scale(0.1 -0.1)">
       <use xlink:href="#DejaVuSans-49"/>
       <use x="63.623047" xlink:href="#DejaVuSans-53"/>
       <use x="127.246094" xlink:href="#DejaVuSans-48"/>
      </g>
     </g>
    </g>
    <g id="xtick_5">
     <g id="line2d_5">
      <g>
       <use style="stroke:#000000;stroke-width:0.8;" x="411.198215" xlink:href="#mbb8434da19" y="352.174167"/>
      </g>
     </g>
     <g id="text_5">
      <!-- 200 -->
      <defs>
       <path d="M 19.1875 8.296875 
L 53.609375 8.296875 
L 53.609375 0 
L 7.328125 0 
L 7.328125 8.296875 
Q 12.9375 14.109375 22.625 23.890625 
Q 32.328125 33.6875 34.8125 36.53125 
Q 39.546875 41.84375 41.421875 45.53125 
Q 43.3125 49.21875 43.3125 52.78125 
Q 43.3125 58.59375 39.234375 62.25 
Q 35.15625 65.921875 28.609375 65.921875 
Q 23.96875 65.921875 18.8125 64.3125 
Q 13.671875 62.703125 7.8125 59.421875 
L 7.8125 69.390625 
Q 13.765625 71.78125 18.9375 73 
Q 24.125 74.21875 28.421875 74.21875 
Q 39.75 74.21875 46.484375 68.546875 
Q 53.21875 62.890625 53.21875 53.421875 
Q 53.21875 48.921875 51.53125 44.890625 
Q 49.859375 40.875 45.40625 35.40625 
Q 44.1875 33.984375 37.640625 27.21875 
Q 31.109375 20.453125 19.1875 8.296875 
z
" id="DejaVuSans-50"/>
      </defs>
      <g transform="translate(401.654465 366.772604)scale(0.1 -0.1)">
       <use xlink:href="#DejaVuSans-50"/>
       <use x="63.623047" xlink:href="#DejaVuSans-48"/>
       <use x="127.246094" xlink:href="#DejaVuSans-48"/>
      </g>
     </g>
    </g>
    <g id="xtick_6">
     <g id="line2d_6">
      <g>
       <use style="stroke:#000000;stroke-width:0.8;" x="485.663951" xlink:href="#mbb8434da19" y="352.174167"/>
      </g>
     </g>
     <g id="text_6">
      <!-- 250 -->
      <g transform="translate(476.120201 366.772604)scale(0.1 -0.1)">
       <use xlink:href="#DejaVuSans-50"/>
       <use x="63.623047" xlink:href="#DejaVuSans-53"/>
       <use x="127.246094" xlink:href="#DejaVuSans-48"/>
      </g>
     </g>
    </g>
   </g>
   <g id="matplotlib.axis_2">
    <g id="ytick_1">
     <g id="line2d_7">
      <defs>
       <path d="M 0 0 
L -3.5 0 
" id="m53907342d5" style="stroke:#000000;stroke-width:0.8;"/>
      </defs>
      <g>
       <use style="stroke:#000000;stroke-width:0.8;" x="92.823906" xlink:href="#m53907342d5" y="352.174167"/>
      </g>
     </g>
     <g id="text_7">
      <!-- 0 -->
      <g transform="translate(79.461406 355.973385)scale(0.1 -0.1)">
       <use xlink:href="#DejaVuSans-48"/>
      </g>
     </g>
    </g>
    <g id="ytick_2">
     <g id="line2d_8">
      <g>
       <use style="stroke:#000000;stroke-width:0.8;" x="92.823906" xlink:href="#m53907342d5" y="304.595522"/>
      </g>
     </g>
     <g id="text_8">
      <!-- 100 -->
      <g transform="translate(66.736406 308.394741)scale(0.1 -0.1)">
       <use xlink:href="#DejaVuSans-49"/>
       <use x="63.623047" xlink:href="#DejaVuSans-48"/>
       <use x="127.246094" xlink:href="#DejaVuSans-48"/>
      </g>
     </g>
    </g>
    <g id="ytick_3">
     <g id="line2d_9">
      <g>
       <use style="stroke:#000000;stroke-width:0.8;" x="92.823906" xlink:href="#m53907342d5" y="257.016877"/>
      </g>
     </g>
     <g id="text_9">
      <!-- 200 -->
      <g transform="translate(66.736406 260.816096)scale(0.1 -0.1)">
       <use xlink:href="#DejaVuSans-50"/>
       <use x="63.623047" xlink:href="#DejaVuSans-48"/>
       <use x="127.246094" xlink:href="#DejaVuSans-48"/>
      </g>
     </g>
    </g>
    <g id="ytick_4">
     <g id="line2d_10">
      <g>
       <use style="stroke:#000000;stroke-width:0.8;" x="92.823906" xlink:href="#m53907342d5" y="209.438233"/>
      </g>
     </g>
     <g id="text_10">
      <!-- 300 -->
      <defs>
       <path d="M 40.578125 39.3125 
Q 47.65625 37.796875 51.625 33 
Q 55.609375 28.21875 55.609375 21.1875 
Q 55.609375 10.40625 48.1875 4.484375 
Q 40.765625 -1.421875 27.09375 -1.421875 
Q 22.515625 -1.421875 17.65625 -0.515625 
Q 12.796875 0.390625 7.625 2.203125 
L 7.625 11.71875 
Q 11.71875 9.328125 16.59375 8.109375 
Q 21.484375 6.890625 26.8125 6.890625 
Q 36.078125 6.890625 40.9375 10.546875 
Q 45.796875 14.203125 45.796875 21.1875 
Q 45.796875 27.640625 41.28125 31.265625 
Q 36.765625 34.90625 28.71875 34.90625 
L 20.21875 34.90625 
L 20.21875 43.015625 
L 29.109375 43.015625 
Q 36.375 43.015625 40.234375 45.921875 
Q 44.09375 48.828125 44.09375 54.296875 
Q 44.09375 59.90625 40.109375 62.90625 
Q 36.140625 65.921875 28.71875 65.921875 
Q 24.65625 65.921875 20.015625 65.03125 
Q 15.375 64.15625 9.8125 62.3125 
L 9.8125 71.09375 
Q 15.4375 72.65625 20.34375 73.4375 
Q 25.25 74.21875 29.59375 74.21875 
Q 40.828125 74.21875 47.359375 69.109375 
Q 53.90625 64.015625 53.90625 55.328125 
Q 53.90625 49.265625 50.4375 45.09375 
Q 46.96875 40.921875 40.578125 39.3125 
z
" id="DejaVuSans-51"/>
      </defs>
      <g transform="translate(66.736406 213.237451)scale(0.1 -0.1)">
       <use xlink:href="#DejaVuSans-51"/>
       <use x="63.623047" xlink:href="#DejaVuSans-48"/>
       <use x="127.246094" xlink:href="#DejaVuSans-48"/>
      </g>
     </g>
    </g>
    <g id="ytick_5">
     <g id="line2d_11">
      <g>
       <use style="stroke:#000000;stroke-width:0.8;" x="92.823906" xlink:href="#m53907342d5" y="161.859588"/>
      </g>
     </g>
     <g id="text_11">
      <!-- 400 -->
      <defs>
       <path d="M 37.796875 64.3125 
L 12.890625 25.390625 
L 37.796875 25.390625 
z
M 35.203125 72.90625 
L 47.609375 72.90625 
L 47.609375 25.390625 
L 58.015625 25.390625 
L 58.015625 17.1875 
L 47.609375 17.1875 
L 47.609375 0 
L 37.796875 0 
L 37.796875 17.1875 
L 4.890625 17.1875 
L 4.890625 26.703125 
z
" id="DejaVuSans-52"/>
      </defs>
      <g transform="translate(66.736406 165.658807)scale(0.1 -0.1)">
       <use xlink:href="#DejaVuSans-52"/>
       <use x="63.623047" xlink:href="#DejaVuSans-48"/>
       <use x="127.246094" xlink:href="#DejaVuSans-48"/>
      </g>
     </g>
    </g>
    <g id="ytick_6">
     <g id="line2d_12">
      <g>
       <use style="stroke:#000000;stroke-width:0.8;" x="92.823906" xlink:href="#m53907342d5" y="114.280943"/>
      </g>
     </g>
     <g id="text_12">
      <!-- 500 -->
      <g transform="translate(66.736406 118.080162)scale(0.1 -0.1)">
       <use xlink:href="#DejaVuSans-53"/>
       <use x="63.623047" xlink:href="#DejaVuSans-48"/>
       <use x="127.246094" xlink:href="#DejaVuSans-48"/>
      </g>
     </g>
    </g>
    <g id="ytick_7">
     <g id="line2d_13">
      <g>
       <use style="stroke:#000000;stroke-width:0.8;" x="92.823906" xlink:href="#m53907342d5" y="66.702299"/>
      </g>
     </g>
     <g id="text_13">
      <!-- 600 -->
      <defs>
       <path d="M 33.015625 40.375 
Q 26.375 40.375 22.484375 35.828125 
Q 18.609375 31.296875 18.609375 23.390625 
Q 18.609375 15.53125 22.484375 10.953125 
Q 26.375 6.390625 33.015625 6.390625 
Q 39.65625 6.390625 43.53125 10.953125 
Q 47.40625 15.53125 47.40625 23.390625 
Q 47.40625 31.296875 43.53125 35.828125 
Q 39.65625 40.375 33.015625 40.375 
z
M 52.59375 71.296875 
L 52.59375 62.3125 
Q 48.875 64.0625 45.09375 64.984375 
Q 41.3125 65.921875 37.59375 65.921875 
Q 27.828125 65.921875 22.671875 59.328125 
Q 17.53125 52.734375 16.796875 39.40625 
Q 19.671875 43.65625 24.015625 45.921875 
Q 28.375 48.1875 33.59375 48.1875 
Q 44.578125 48.1875 50.953125 41.515625 
Q 57.328125 34.859375 57.328125 23.390625 
Q 57.328125 12.15625 50.6875 5.359375 
Q 44.046875 -1.421875 33.015625 -1.421875 
Q 20.359375 -1.421875 13.671875 8.265625 
Q 6.984375 17.96875 6.984375 36.375 
Q 6.984375 53.65625 15.1875 63.9375 
Q 23.390625 74.21875 37.203125 74.21875 
Q 40.921875 74.21875 44.703125 73.484375 
Q 48.484375 72.75 52.59375 71.296875 
z
" id="DejaVuSans-54"/>
      </defs>
      <g transform="translate(66.736406 70.501517)scale(0.1 -0.1)">
       <use xlink:href="#DejaVuSans-54"/>
       <use x="63.623047" xlink:href="#DejaVuSans-48"/>
       <use x="127.246094" xlink:href="#DejaVuSans-48"/>
      </g>
     </g>
    </g>
    <g id="text_14">
     <!-- rtt -->
     <defs>
      <path d="M 41.109375 46.296875 
Q 39.59375 47.171875 37.8125 47.578125 
Q 36.03125 48 33.890625 48 
Q 26.265625 48 22.1875 43.046875 
Q 18.109375 38.09375 18.109375 28.8125 
L 18.109375 0 
L 9.078125 0 
L 9.078125 54.6875 
L 18.109375 54.6875 
L 18.109375 46.1875 
Q 20.953125 51.171875 25.484375 53.578125 
Q 30.03125 56 36.53125 56 
Q 37.453125 56 38.578125 55.875 
Q 39.703125 55.765625 41.0625 55.515625 
z
" id="DejaVuSans-114"/>
      <path d="M 18.3125 70.21875 
L 18.3125 54.6875 
L 36.8125 54.6875 
L 36.8125 47.703125 
L 18.3125 47.703125 
L 18.3125 18.015625 
Q 18.3125 11.328125 20.140625 9.421875 
Q 21.96875 7.515625 27.59375 7.515625 
L 36.8125 7.515625 
L 36.8125 0 
L 27.59375 0 
Q 17.1875 0 13.234375 3.875 
Q 9.28125 7.765625 9.28125 18.015625 
L 9.28125 47.703125 
L 2.6875 47.703125 
L 2.6875 54.6875 
L 9.28125 54.6875 
L 9.28125 70.21875 
z
" id="DejaVuSans-116"/>
     </defs>
     <g transform="translate(49.458906 199.594115)rotate(-90)scale(0.1 -0.1)">
      <use xlink:href="#DejaVuSans-114"/>
      <use x="41.113281" xlink:href="#DejaVuSans-116"/>
      <use x="80.322266" xlink:href="#DejaVuSans-116"/>
     </g>
     <!-- (ms) -->
     <defs>
      <path d="M 31 75.875 
Q 24.46875 64.65625 21.28125 53.65625 
Q 18.109375 42.671875 18.109375 31.390625 
Q 18.109375 20.125 21.3125 9.0625 
Q 24.515625 -2 31 -13.1875 
L 23.1875 -13.1875 
Q 15.875 -1.703125 12.234375 9.375 
Q 8.59375 20.453125 8.59375 31.390625 
Q 8.59375 42.28125 12.203125 53.3125 
Q 15.828125 64.359375 23.1875 75.875 
z
" id="DejaVuSans-40"/>
      <path d="M 52 44.1875 
Q 55.375 50.25 60.0625 53.125 
Q 64.75 56 71.09375 56 
Q 79.640625 56 84.28125 50.015625 
Q 88.921875 44.046875 88.921875 33.015625 
L 88.921875 0 
L 79.890625 0 
L 79.890625 32.71875 
Q 79.890625 40.578125 77.09375 44.375 
Q 74.3125 48.1875 68.609375 48.1875 
Q 61.625 48.1875 57.5625 43.546875 
Q 53.515625 38.921875 53.515625 30.90625 
L 53.515625 0 
L 44.484375 0 
L 44.484375 32.71875 
Q 44.484375 40.625 41.703125 44.40625 
Q 38.921875 48.1875 33.109375 48.1875 
Q 26.21875 48.1875 22.15625 43.53125 
Q 18.109375 38.875 18.109375 30.90625 
L 18.109375 0 
L 9.078125 0 
L 9.078125 54.6875 
L 18.109375 54.6875 
L 18.109375 46.1875 
Q 21.1875 51.21875 25.484375 53.609375 
Q 29.78125 56 35.6875 56 
Q 41.65625 56 45.828125 52.96875 
Q 50 49.953125 52 44.1875 
z
" id="DejaVuSans-109"/>
      <path d="M 44.28125 53.078125 
L 44.28125 44.578125 
Q 40.484375 46.53125 36.375 47.5 
Q 32.28125 48.484375 27.875 48.484375 
Q 21.1875 48.484375 17.84375 46.4375 
Q 14.5 44.390625 14.5 40.28125 
Q 14.5 37.15625 16.890625 35.375 
Q 19.28125 33.59375 26.515625 31.984375 
L 29.59375 31.296875 
Q 39.15625 29.25 43.1875 25.515625 
Q 47.21875 21.78125 47.21875 15.09375 
Q 47.21875 7.46875 41.1875 3.015625 
Q 35.15625 -1.421875 24.609375 -1.421875 
Q 20.21875 -1.421875 15.453125 -0.5625 
Q 10.6875 0.296875 5.421875 2 
L 5.421875 11.28125 
Q 10.40625 8.6875 15.234375 7.390625 
Q 20.0625 6.109375 24.8125 6.109375 
Q 31.15625 6.109375 34.5625 8.28125 
Q 37.984375 10.453125 37.984375 14.40625 
Q 37.984375 18.0625 35.515625 20.015625 
Q 33.0625 21.96875 24.703125 23.78125 
L 21.578125 24.515625 
Q 13.234375 26.265625 9.515625 29.90625 
Q 5.8125 33.546875 5.8125 39.890625 
Q 5.8125 47.609375 11.28125 51.796875 
Q 16.75 56 26.8125 56 
Q 31.78125 56 36.171875 55.265625 
Q 40.578125 54.546875 44.28125 53.078125 
z
" id="DejaVuSans-115"/>
      <path d="M 8.015625 75.875 
L 15.828125 75.875 
Q 23.140625 64.359375 26.78125 53.3125 
Q 30.421875 42.28125 30.421875 31.390625 
Q 30.421875 20.453125 26.78125 9.375 
Q 23.140625 -1.703125 15.828125 -13.1875 
L 8.015625 -13.1875 
Q 14.5 -2 17.703125 9.0625 
Q 20.90625 20.125 20.90625 31.390625 
Q 20.90625 42.671875 17.703125 53.65625 
Q 14.5 64.65625 8.015625 75.875 
z
" id="DejaVuSans-41"/>
     </defs>
     <g transform="translate(60.656719 204.994896)rotate(-90)scale(0.1 -0.1)">
      <use xlink:href="#DejaVuSans-40"/>
      <use x="39.013672" xlink:href="#DejaVuSans-109"/>
      <use x="136.425781" xlink:href="#DejaVuSans-115"/>
      <use x="188.525391" xlink:href="#DejaVuSans-41"/>
     </g>
    </g>
   </g>
   <g id="line2d_14">
    <path clip-path="url(#pdb3a2080aa)" d="M 113.33527 314.587037 
L 114.079927 338.37636 
L 114.824585 338.852146 
L 115.569242 339.803719 
L 116.313899 316.490183 
L 117.058557 308.401814 
L 117.803214 322.675407 
L 118.547871 326.481699 
L 119.292529 315.062824 
L 120.037186 225.614972 
L 120.781844 268.911539 
L 121.526501 284.612491 
L 122.271158 309.829173 
L 123.015816 272.71783 
L 123.760473 267.008393 
L 124.50513 276.048335 
L 125.249788 260.823169 
L 125.994445 280.330413 
L 126.739102 284.612491 
L 127.48376 300.313444 
L 128.228417 294.12822 
L 128.973074 282.709345 
L 129.717732 290.321929 
L 130.462389 269.863111 
L 131.207047 271.290471 
L 131.951704 281.281986 
L 132.696361 276.524122 
L 133.441019 285.088278 
L 134.185676 277.475695 
L 134.930333 272.242044 
L 135.674991 322.199621 
L 136.419648 296.982939 
L 137.164305 305.547095 
L 137.908963 305.547095 
L 138.65362 315.53861 
L 139.398278 320.296475 
L 140.142935 323.151193 
L 140.887592 322.199621 
L 141.63225 322.199621 
L 143.121564 321.248048 
L 143.866222 320.296475 
L 144.610879 319.820688 
L 145.355536 310.304959 
L 146.100194 319.820688 
L 146.844851 309.353386 
L 147.589509 318.393329 
L 148.334166 310.780746 
L 149.078823 311.256532 
L 149.823481 314.587037 
L 150.568138 309.829173 
L 151.312795 333.142709 
L 152.057453 322.199621 
L 152.80211 324.102766 
L 154.291425 325.054339 
L 157.270054 325.054339 
L 158.759369 324.102766 
L 159.504026 324.578553 
L 160.993341 324.578553 
L 161.737998 324.102766 
L 162.482656 324.102766 
L 163.227313 324.578553 
L 165.461285 324.578553 
L 166.205943 327.909058 
L 166.9506 333.142709 
L 167.695257 322.675407 
L 168.439915 324.578553 
L 169.929229 325.530126 
L 170.673887 325.530126 
L 172.163201 324.578553 
L 178.12046 324.578553 
L 178.865118 324.102766 
L 179.609775 324.578553 
L 181.09909 324.578553 
L 181.843747 337.900573 
L 182.588405 326.481699 
L 183.333062 323.151193 
L 184.077719 325.054339 
L 184.822377 323.62698 
L 185.567034 324.578553 
L 186.311691 324.102766 
L 187.056349 324.578553 
L 190.779636 324.578553 
L 191.524293 324.102766 
L 192.26895 324.578553 
L 195.24758 324.578553 
L 195.992237 324.102766 
L 196.736894 326.005912 
L 197.481552 335.521641 
L 198.226209 326.005912 
L 198.970867 324.578553 
L 200.460181 325.530126 
L 201.204839 325.530126 
L 201.949496 325.054339 
L 204.183468 325.054339 
L 204.928125 325.530126 
L 205.672783 325.054339 
L 209.39607 325.054339 
L 210.140727 325.530126 
L 210.885384 325.530126 
L 211.630042 325.054339 
L 212.374699 334.570068 
L 213.119356 328.384844 
L 213.864014 323.62698 
L 214.608671 324.578553 
L 215.353328 324.578553 
L 216.097986 325.054339 
L 216.842643 324.102766 
L 217.587301 324.578553 
L 226.523189 324.578553 
L 227.267846 326.005912 
L 228.012504 334.570068 
L 228.757161 322.675407 
L 229.501818 323.62698 
L 230.246476 325.054339 
L 230.991133 325.054339 
L 231.73579 324.578553 
L 232.480448 325.054339 
L 233.225105 324.578553 
L 233.969763 324.578553 
L 234.71442 325.054339 
L 238.437707 325.054339 
L 239.182364 324.102766 
L 239.927021 324.578553 
L 242.160993 324.578553 
L 242.905651 334.094282 
L 244.394966 322.199621 
L 245.139623 325.054339 
L 245.88428 325.530126 
L 248.118252 324.102766 
L 248.86291 324.102766 
L 249.607567 324.578553 
L 250.352224 324.578553 
L 251.096882 324.102766 
L 251.841539 324.102766 
L 252.586197 324.578553 
L 253.330854 324.102766 
L 255.564826 324.102766 
L 256.309483 324.578553 
L 257.054141 324.578553 
L 257.798798 325.530126 
L 258.543455 336.949 
L 259.288113 323.62698 
L 260.03277 323.151193 
L 260.777428 324.578553 
L 263.0114 324.578553 
L 263.756057 325.054339 
L 264.500714 324.578553 
L 268.968659 324.578553 
L 269.713316 324.102766 
L 270.457973 324.578553 
L 272.691945 324.578553 
L 273.436603 332.191136 
L 274.18126 328.860631 
L 274.925917 321.723834 
L 275.670575 324.102766 
L 276.415232 324.578553 
L 280.138519 324.578553 
L 280.883176 324.102766 
L 281.627834 324.578553 
L 288.32975 324.578553 
L 289.074407 336.949 
L 289.819065 324.578553 
L 290.563722 323.151193 
L 291.308379 324.578553 
L 293.542351 324.578553 
L 294.287009 325.054339 
L 295.031666 324.578553 
L 298.010296 324.578553 
L 298.754953 325.054339 
L 300.244268 324.102766 
L 300.988925 325.054339 
L 301.733582 324.578553 
L 303.222897 324.578553 
L 303.967555 328.384844 
L 304.712212 330.28799 
L 305.456869 321.723834 
L 306.201527 324.102766 
L 308.435499 324.102766 
L 309.180156 324.578553 
L 309.924813 324.102766 
L 310.669471 324.578553 
L 311.414128 324.102766 
L 312.903443 324.102766 
L 313.6481 324.578553 
L 316.62673 324.578553 
L 317.371387 324.102766 
L 318.116044 324.578553 
L 318.860702 324.578553 
L 319.605359 338.37636 
L 320.350016 325.054339 
L 321.094674 322.675407 
L 321.839331 325.054339 
L 326.307275 325.054339 
L 327.051933 325.530126 
L 328.541247 324.578553 
L 329.285905 324.578553 
L 330.030562 325.530126 
L 330.77522 325.054339 
L 332.264534 325.054339 
L 333.009192 324.102766 
L 333.753849 324.102766 
L 334.498506 326.957485 
L 335.243164 333.142709 
L 335.987821 321.723834 
L 336.732478 324.102766 
L 337.477136 325.054339 
L 340.455765 325.054339 
L 341.200423 324.578553 
L 343.434395 324.578553 
L 344.179052 324.102766 
L 344.923709 324.578553 
L 349.391654 324.578553 
L 350.136311 336.473214 
L 350.880968 326.005912 
L 351.625626 322.199621 
L 352.370283 325.054339 
L 353.11494 324.578553 
L 356.838227 324.578553 
L 357.582885 323.62698 
L 359.072199 324.578553 
L 359.816857 324.102766 
L 360.561514 324.102766 
L 361.306171 324.578553 
L 362.050829 324.102766 
L 362.795486 324.578553 
L 363.540143 324.102766 
L 364.284801 324.578553 
L 365.029458 326.005912 
L 365.774116 334.570068 
L 366.518773 322.199621 
L 367.26343 324.102766 
L 368.008088 324.578553 
L 368.752745 324.102766 
L 370.986717 324.102766 
L 371.731374 324.578553 
L 372.476032 324.102766 
L 373.220689 324.578553 
L 374.710004 324.578553 
L 375.454661 324.102766 
L 376.199319 324.578553 
L 379.922605 324.578553 
L 380.667263 335.045855 
L 382.156578 323.151193 
L 382.901235 325.054339 
L 385.879864 325.054339 
L 386.624522 324.578553 
L 391.092466 324.578553 
L 391.837123 324.102766 
L 392.581781 324.578553 
L 393.326438 324.102766 
L 394.815753 324.102766 
L 395.56041 325.054339 
L 396.305067 335.997427 
L 397.049725 324.102766 
L 397.794382 323.62698 
L 398.539039 324.578553 
L 399.283697 325.054339 
L 400.028354 324.578553 
L 400.773012 325.054339 
L 401.517669 324.578553 
L 406.73027 324.578553 
L 407.474928 324.102766 
L 408.219585 324.578553 
L 410.453557 324.578553 
L 411.198215 332.666922 
L 411.942872 327.909058 
L 412.687529 322.199621 
L 413.432187 324.578553 
L 414.921501 324.578553 
L 415.666159 324.102766 
L 416.410816 324.578553 
L 418.644788 324.578553 
L 419.389446 324.102766 
L 420.134103 324.578553 
L 420.87876 324.578553 
L 421.623418 324.102766 
L 422.368075 324.578553 
L 423.112732 324.102766 
L 423.85739 324.578553 
L 424.602047 324.578553 
L 425.346705 324.102766 
L 426.091362 324.578553 
L 426.836019 336.473214 
L 427.580677 324.102766 
L 428.325334 323.151193 
L 429.069991 325.054339 
L 429.814649 324.578553 
L 430.559306 324.578553 
L 431.303963 325.054339 
L 432.793278 325.054339 
L 433.537936 324.578553 
L 435.02725 325.530126 
L 435.771908 325.054339 
L 437.261222 325.054339 
L 438.00588 324.578553 
L 438.750537 325.054339 
L 440.984509 325.054339 
L 441.729166 331.239563 
L 442.473824 329.336417 
L 443.218481 322.199621 
L 443.963139 324.578553 
L 444.707796 325.054339 
L 445.452453 324.578553 
L 453.643684 324.578553 
L 454.388342 324.102766 
L 455.877656 324.102766 
L 456.622314 324.578553 
L 457.366971 337.424787 
L 458.111628 324.102766 
L 458.856286 322.675407 
L 459.600943 325.054339 
L 460.345601 324.578553 
L 464.068887 324.578553 
L 464.813545 324.102766 
L 465.558202 324.578553 
L 466.302859 323.62698 
L 467.047517 324.102766 
L 468.536832 324.102766 
L 469.281489 324.578553 
L 471.515461 324.578553 
L 472.260118 328.384844 
L 473.004776 329.812204 
L 473.749433 321.723834 
L 474.49409 325.054339 
L 475.238748 325.054339 
L 475.983405 324.578553 
L 476.728062 325.054339 
L 478.217377 325.054339 
L 478.962035 324.578553 
L 480.451349 325.530126 
L 481.196007 324.578553 
L 481.940664 324.578553 
L 482.685321 325.054339 
L 484.919293 325.054339 
L 485.663951 324.578553 
L 487.153266 324.578553 
L 487.897923 337.900573 
L 488.64258 324.578553 
L 489.387238 322.199621 
L 490.131895 324.578553 
L 490.876552 324.102766 
L 491.62121 324.102766 
L 492.365867 324.578553 
L 493.110524 324.102766 
L 493.855182 324.578553 
L 494.599839 324.102766 
L 496.089154 324.102766 
L 496.833811 324.578553 
L 500.557098 324.578553 
L 501.301755 324.102766 
L 502.046413 324.578553 
L 502.79107 327.433271 
L 503.535728 333.618495 
L 504.280385 322.199621 
L 505.025042 324.578553 
L 513.960931 324.578553 
L 514.705588 324.102766 
L 515.450245 324.578553 
L 516.194903 324.102766 
L 516.194903 324.102766 
" style="fill:none;stroke:#1f77b4;stroke-linecap:square;stroke-width:1.5;"/>
   </g>
   <g id="line2d_15">
    <path clip-path="url(#pdb3a2080aa)" d="M 122.192225 311.732319 
L 122.936882 276.999908 
L 123.681539 213.244524 
L 124.426197 249.880081 
L 125.170854 269.863111 
L 125.915511 260.823169 
L 126.660169 283.660918 
L 127.404826 283.185132 
L 128.149483 310.780746 
L 128.894141 293.652434 
L 129.638798 266.05682 
L 130.383456 290.321929 
L 131.128113 268.911539 
L 131.87277 262.726315 
L 133.362085 278.903054 
L 134.106742 284.136705 
L 134.8514 269.863111 
L 135.596057 299.361871 
L 136.340714 300.313444 
L 137.085372 295.55558 
L 137.830029 303.168163 
L 138.574687 313.635464 
L 139.319344 320.296475 
L 140.064001 323.151193 
L 140.808659 322.675407 
L 141.553316 321.723834 
L 142.297973 321.723834 
L 143.042631 321.248048 
L 143.787288 320.296475 
L 144.531945 319.820688 
L 145.276603 313.635464 
L 146.02126 320.296475 
L 146.765917 307.450241 
L 147.510575 306.498668 
L 148.255232 310.780746 
L 148.99989 305.071308 
L 149.744547 310.780746 
L 150.489204 310.304959 
L 151.233862 333.618495 
L 151.978519 322.675407 
L 152.723176 324.102766 
L 154.212491 325.054339 
L 157.191121 325.054339 
L 158.680435 324.102766 
L 159.425093 324.578553 
L 161.659065 324.578553 
L 162.403722 324.102766 
L 163.148379 324.578553 
L 163.893037 324.578553 
L 164.637694 324.102766 
L 165.382352 324.578553 
L 166.127009 326.481699 
L 166.871666 334.094282 
L 167.616324 322.675407 
L 168.360981 324.578553 
L 169.105638 325.054339 
L 169.850296 325.054339 
L 170.594953 325.530126 
L 172.084268 324.578553 
L 175.062897 324.578553 
L 175.807555 325.054339 
L 176.552212 324.578553 
L 178.041527 324.578553 
L 178.786184 324.102766 
L 179.530841 324.102766 
L 180.275499 324.578553 
L 181.020156 324.578553 
L 181.764814 335.045855 
L 182.509471 327.433271 
L 183.254128 322.675407 
L 183.998786 325.054339 
L 184.743443 324.102766 
L 185.4881 324.578553 
L 186.232758 324.102766 
L 186.977415 324.102766 
L 187.722072 324.578553 
L 188.46673 324.102766 
L 189.211387 324.578553 
L 189.956044 324.102766 
L 190.700702 324.578553 
L 195.168646 324.578553 
L 195.913303 324.102766 
L 196.657961 325.530126 
L 197.402618 335.997427 
L 198.147275 326.481699 
L 198.891933 324.578553 
L 200.381248 325.530126 
L 201.870562 325.530126 
L 202.61522 325.054339 
L 204.104534 325.054339 
L 204.849192 325.530126 
L 205.593849 325.054339 
L 207.083164 325.054339 
L 207.827821 324.578553 
L 208.572479 325.054339 
L 210.061793 325.054339 
L 210.806451 325.530126 
L 211.551108 325.054339 
L 212.295765 332.666922 
L 213.040423 329.812204 
L 213.78508 323.62698 
L 214.529737 324.578553 
L 215.274395 324.578553 
L 216.019052 325.054339 
L 216.76371 324.578553 
L 217.508367 324.578553 
L 218.253024 324.102766 
L 218.997682 324.578553 
L 226.444255 324.578553 
L 227.188913 325.530126 
L 227.93357 335.521641 
L 228.678227 323.151193 
L 229.422885 323.62698 
L 230.167542 324.578553 
L 230.912199 325.054339 
L 231.656857 324.578553 
L 232.401514 325.054339 
L 233.146171 324.578553 
L 233.890829 324.578553 
L 234.635486 325.054339 
L 235.380144 325.054339 
L 236.124801 325.530126 
L 236.869458 325.054339 
L 238.358773 325.054339 
L 239.10343 324.102766 
L 239.848088 324.578553 
L 242.08206 324.578553 
L 242.826717 330.28799 
L 243.571375 329.812204 
L 244.316032 322.199621 
L 245.060689 324.578553 
L 245.805347 325.054339 
L 246.550004 325.054339 
L 248.039319 324.102766 
L 248.783976 324.102766 
L 249.528633 324.578553 
L 250.273291 324.578553 
L 251.017948 324.102766 
L 251.762606 324.102766 
L 252.507263 324.578553 
L 253.25192 324.102766 
L 255.485892 324.102766 
L 256.23055 324.578553 
L 257.719864 324.578553 
L 258.464522 337.900573 
L 259.209179 324.578553 
L 259.953837 322.675407 
L 260.698494 324.578553 
L 262.932466 324.578553 
L 263.677123 325.054339 
L 264.421781 324.578553 
L 272.613012 324.578553 
L 274.102326 330.763777 
L 274.846984 321.723834 
L 275.591641 324.102766 
L 276.336298 324.578553 
L 280.059585 324.578553 
L 280.804243 324.102766 
L 281.5489 324.102766 
L 282.293557 324.578553 
L 287.506159 324.578553 
L 288.250816 324.102766 
L 288.995474 335.521641 
L 289.740131 325.530126 
L 290.484788 323.151193 
L 291.229446 325.054339 
L 291.974103 324.578553 
L 293.463418 324.578553 
L 294.208075 325.054339 
L 294.952733 324.578553 
L 295.69739 324.578553 
L 296.442047 325.054339 
L 297.186705 324.578553 
L 297.931362 324.578553 
L 298.676019 325.054339 
L 299.420677 324.578553 
L 300.165334 324.578553 
L 300.909991 325.054339 
L 301.654649 324.578553 
L 303.143963 324.578553 
L 303.888621 326.481699 
L 304.633278 331.715349 
L 305.377936 321.723834 
L 306.122593 324.102766 
L 308.356565 324.102766 
L 309.101222 324.578553 
L 309.84588 324.102766 
L 310.590537 324.578553 
L 311.335194 324.102766 
L 312.824509 324.102766 
L 313.569167 324.578553 
L 318.781768 324.578553 
L 319.526425 334.094282 
L 320.271083 326.481699 
L 321.01574 322.199621 
L 321.760398 325.054339 
L 328.462314 325.054339 
L 329.206971 324.578553 
L 329.951629 325.054339 
L 332.185601 325.054339 
L 332.930258 324.102766 
L 333.674915 324.102766 
L 334.419573 325.530126 
L 335.16423 334.094282 
L 335.908887 321.723834 
L 336.653545 323.62698 
L 337.398202 325.054339 
L 338.14286 325.530126 
L 338.887517 324.578553 
L 339.632174 325.054339 
L 340.376832 325.054339 
L 341.121489 324.578553 
L 341.866146 324.578553 
L 342.610804 324.102766 
L 343.355461 324.578553 
L 344.100118 324.102766 
L 344.844776 324.578553 
L 349.31272 324.578553 
L 350.057377 332.666922 
L 351.546692 322.199621 
L 352.291349 325.054339 
L 353.036007 324.578553 
L 353.780664 324.578553 
L 354.525321 324.102766 
L 355.269979 324.578553 
L 356.759294 324.578553 
L 357.503951 323.62698 
L 358.993266 324.578553 
L 359.737923 324.578553 
L 360.48258 324.102766 
L 361.227238 324.578553 
L 362.716552 324.578553 
L 363.46121 324.102766 
L 364.205867 324.578553 
L 364.950525 325.530126 
L 365.695182 335.521641 
L 366.439839 323.151193 
L 367.184497 323.62698 
L 367.929154 324.578553 
L 368.673811 324.578553 
L 369.418469 324.102766 
L 371.652441 324.102766 
L 372.397098 324.578553 
L 374.63107 324.578553 
L 375.375728 324.102766 
L 376.120385 324.102766 
L 376.865042 324.578553 
L 379.843672 324.578553 
L 380.588329 331.239563 
L 381.332986 330.763777 
L 382.077644 322.675407 
L 382.822301 325.054339 
L 385.800931 325.054339 
L 386.545588 324.578553 
L 391.013532 324.578553 
L 391.75819 324.102766 
L 392.502847 324.578553 
L 393.247504 324.102766 
L 394.736819 324.102766 
L 395.481476 325.054339 
L 396.226134 336.949 
L 396.970791 324.578553 
L 397.715448 323.62698 
L 398.460106 324.578553 
L 399.204763 325.054339 
L 399.949421 324.578553 
L 407.395994 324.578553 
L 408.140652 324.102766 
L 408.885309 325.054339 
L 409.629966 324.578553 
L 410.374624 324.578553 
L 411.119281 328.860631 
L 411.863938 329.336417 
L 412.608596 322.199621 
L 413.353253 324.578553 
L 414.842568 324.578553 
L 415.587225 324.102766 
L 416.331882 324.578553 
L 418.565855 324.578553 
L 419.310512 324.102766 
L 420.055169 325.054339 
L 420.799827 324.578553 
L 421.544484 324.578553 
L 422.289141 324.102766 
L 423.033799 324.578553 
L 424.523113 324.578553 
L 425.267771 324.102766 
L 426.012428 324.102766 
L 426.757086 336.949 
L 427.501743 325.054339 
L 428.2464 323.151193 
L 428.991058 325.054339 
L 429.735715 325.054339 
L 430.480372 324.578553 
L 431.22503 325.530126 
L 432.714344 324.578553 
L 433.459002 324.578553 
L 434.948317 325.530126 
L 435.692974 325.054339 
L 437.182289 325.054339 
L 437.926946 324.578553 
L 439.416261 325.530126 
L 440.160918 325.054339 
L 440.905575 325.530126 
L 441.650233 327.433271 
L 442.39489 331.239563 
L 443.139548 321.723834 
L 443.884205 324.102766 
L 444.628862 325.054339 
L 445.37352 324.578553 
L 454.309408 324.578553 
L 455.054065 324.102766 
L 456.54338 324.102766 
L 457.288037 336.473214 
L 458.032695 325.530126 
L 458.777352 322.675407 
L 459.522009 325.054339 
L 461.011324 324.102766 
L 461.755982 324.578553 
L 463.989954 324.578553 
L 464.734611 324.102766 
L 465.479268 324.578553 
L 466.223926 323.62698 
L 466.968583 324.102766 
L 468.457898 324.102766 
L 469.202555 324.578553 
L 471.436527 324.578553 
L 472.181185 326.005912 
L 472.925842 330.763777 
L 473.670499 321.723834 
L 474.415157 325.054339 
L 475.159814 325.054339 
L 475.904471 324.578553 
L 477.393786 325.530126 
L 478.883101 324.578553 
L 479.627758 324.578553 
L 480.372416 325.530126 
L 481.86173 324.578553 
L 482.606388 325.054339 
L 484.84036 325.054339 
L 485.585017 324.578553 
L 487.074332 324.578553 
L 487.818989 335.045855 
L 488.563647 325.530126 
L 489.308304 322.199621 
L 490.052961 324.578553 
L 490.797619 324.578553 
L 491.542276 324.102766 
L 492.286933 324.578553 
L 493.031591 324.102766 
L 493.776248 324.578553 
L 494.520905 324.102766 
L 495.265563 324.102766 
L 496.01022 324.578553 
L 496.754878 324.102766 
L 497.499535 324.578553 
L 500.478164 324.578553 
L 501.222822 324.102766 
L 501.967479 324.578553 
L 502.712136 326.481699 
L 503.456794 334.570068 
L 504.201451 322.199621 
L 504.946109 324.102766 
L 505.690766 325.054339 
L 506.435423 324.578553 
L 508.669395 324.578553 
L 509.414053 324.102766 
L 510.15871 324.578553 
L 510.903367 324.578553 
L 511.648025 324.102766 
L 512.392682 324.578553 
L 513.881997 324.578553 
L 514.626654 324.102766 
L 515.371312 324.578553 
L 516.115969 324.102766 
L 516.860626 324.102766 
L 517.605284 324.578553 
L 518.349941 333.618495 
L 519.094598 329.812204 
L 519.839256 322.199621 
L 520.583913 324.102766 
L 521.328571 325.530126 
L 522.073228 325.530126 
L 522.817885 325.054339 
L 523.562543 325.530126 
L 523.562543 325.530126 
" style="fill:none;stroke:#ff7f0e;stroke-linecap:square;stroke-width:1.5;"/>
   </g>
   <g id="line2d_16">
    <path clip-path="url(#pdb3a2080aa)" d="M 119.253807 303.643949 
L 119.998464 230.372836 
L 120.743121 267.008393 
L 121.487779 275.572549 
L 122.232436 303.643949 
L 122.977093 271.766257 
L 123.721751 205.631941 
L 124.466408 262.250528 
L 125.211065 272.71783 
L 125.955723 266.05682 
L 126.70038 267.959966 
L 128.189695 313.635464 
L 128.934352 290.797715 
L 129.67901 275.572549 
L 131.168324 283.185132 
L 131.912982 262.726315 
L 132.657639 273.669403 
L 133.402296 296.507152 
L 134.146954 292.700861 
L 134.891611 263.202101 
L 135.636269 257.96845 
L 136.380926 310.304959 
L 137.125583 301.740803 
L 137.870241 319.820688 
L 138.614898 313.159678 
L 139.359555 320.772261 
L 140.104213 323.151193 
L 141.593527 322.199621 
L 142.338185 322.199621 
L 143.8275 320.296475 
L 144.572157 319.820688 
L 145.316814 311.732319 
L 146.061472 320.296475 
L 146.806129 314.111251 
L 147.550786 317.441756 
L 149.040101 312.683892 
L 149.784758 307.926027 
L 150.529416 311.732319 
L 151.274073 334.570068 
L 152.018731 322.199621 
L 152.763388 324.102766 
L 154.252703 325.054339 
L 157.231332 325.054339 
L 158.720647 324.102766 
L 159.465304 324.578553 
L 161.699276 324.578553 
L 162.443934 324.102766 
L 163.188591 324.578553 
L 163.933248 324.578553 
L 164.677906 324.102766 
L 165.422563 324.578553 
L 166.16722 326.005912 
L 166.911878 333.142709 
L 167.656535 322.675407 
L 168.401192 324.578553 
L 169.14585 325.054339 
L 169.890507 325.054339 
L 170.635165 325.530126 
L 172.124479 324.578553 
L 175.103109 324.578553 
L 175.847766 325.054339 
L 176.592423 324.578553 
L 178.081738 324.578553 
L 178.826396 324.102766 
L 179.571053 324.102766 
L 180.31571 324.578553 
L 181.060368 324.578553 
L 181.805025 335.997427 
L 182.549682 326.957485 
L 183.29434 323.151193 
L 184.038997 324.578553 
L 184.783654 324.102766 
L 185.528312 324.578553 
L 186.272969 324.102766 
L 187.017627 324.102766 
L 187.762284 324.578553 
L 188.506941 324.102766 
L 189.251599 324.578553 
L 190.740913 324.578553 
L 191.485571 324.102766 
L 192.230228 324.578553 
L 195.208858 324.578553 
L 195.953515 324.102766 
L 196.698172 326.005912 
L 197.44283 335.997427 
L 198.187487 326.005912 
L 198.932144 324.578553 
L 200.421459 325.530126 
L 201.910774 325.530126 
L 202.655431 325.054339 
L 204.144746 325.054339 
L 204.889403 325.530126 
L 205.634061 325.054339 
L 210.102005 325.054339 
L 210.846662 325.530126 
L 211.591319 325.054339 
L 212.335977 333.618495 
L 213.825292 323.62698 
L 214.569949 324.578553 
L 215.314606 324.578553 
L 216.059264 325.054339 
L 216.803921 324.102766 
L 217.548578 324.578553 
L 226.484467 324.578553 
L 227.229124 325.530126 
L 227.973781 335.045855 
L 228.718439 323.151193 
L 229.463096 323.62698 
L 230.207754 325.054339 
L 230.952411 325.054339 
L 231.697068 324.578553 
L 232.441726 325.054339 
L 233.186383 324.578553 
L 233.93104 324.578553 
L 234.675698 325.054339 
L 235.420355 325.054339 
L 236.165012 325.530126 
L 236.90967 325.054339 
L 238.398985 325.054339 
L 239.143642 324.102766 
L 239.888299 324.578553 
L 242.122271 324.578553 
L 242.866929 331.715349 
L 243.611586 328.860631 
L 244.356243 321.723834 
L 245.100901 324.578553 
L 245.845558 325.054339 
L 246.590215 325.054339 
L 248.07953 324.102766 
L 248.824188 324.102766 
L 249.568845 324.578553 
L 250.313502 324.578553 
L 251.05816 324.102766 
L 253.292132 324.102766 
L 254.036789 324.578553 
L 254.781446 324.102766 
L 255.526104 324.102766 
L 256.270761 324.578553 
L 257.015419 324.578553 
L 257.760076 325.054339 
L 258.504733 337.424787 
L 259.249391 324.102766 
L 259.994048 323.151193 
L 260.738705 324.578553 
L 261.483363 324.102766 
L 262.22802 324.578553 
L 262.972677 324.578553 
L 263.717335 325.054339 
L 264.461992 324.578553 
L 268.929936 324.578553 
L 269.674594 324.102766 
L 270.419251 324.578553 
L 271.908566 324.578553 
L 272.653223 324.102766 
L 273.397881 328.384844 
L 274.142538 329.812204 
L 274.887195 321.723834 
L 275.631853 324.102766 
L 276.37651 324.578553 
L 277.121167 324.578553 
L 277.865825 324.102766 
L 278.610482 324.578553 
L 280.099797 324.578553 
L 280.844454 324.102766 
L 281.589111 324.578553 
L 282.333769 324.102766 
L 283.078426 324.578553 
L 287.54637 324.578553 
L 288.291028 324.102766 
L 289.035685 336.949 
L 289.780342 325.054339 
L 290.525 323.151193 
L 291.269657 325.054339 
L 292.014315 324.578553 
L 292.758972 325.054339 
L 293.503629 324.578553 
L 294.248287 325.054339 
L 294.992944 324.578553 
L 295.737601 324.578553 
L 296.482259 325.054339 
L 297.226916 324.578553 
L 297.971573 324.578553 
L 298.716231 325.054339 
L 299.460888 324.578553 
L 300.205546 324.578553 
L 300.950203 325.054339 
L 301.69486 324.578553 
L 303.184175 324.578553 
L 303.928832 326.957485 
L 304.67349 330.28799 
L 305.418147 322.199621 
L 306.162804 324.578553 
L 306.907462 324.102766 
L 307.652119 324.578553 
L 308.396777 324.102766 
L 309.141434 324.578553 
L 310.630749 324.578553 
L 311.375406 324.102766 
L 312.864721 324.102766 
L 313.609378 324.578553 
L 318.82198 324.578553 
L 319.566637 335.521641 
L 320.311294 325.530126 
L 321.055952 322.675407 
L 321.800609 325.054339 
L 327.757868 325.054339 
L 328.502525 324.578553 
L 329.247183 324.578553 
L 329.99184 325.530126 
L 330.736497 325.054339 
L 332.225812 325.054339 
L 332.970469 324.102766 
L 333.715127 324.102766 
L 334.459784 326.005912 
L 335.204442 333.142709 
L 335.949099 321.723834 
L 336.693756 323.62698 
L 337.438414 325.054339 
L 341.1617 325.054339 
L 341.906358 324.578553 
L 343.395673 324.578553 
L 344.14033 324.102766 
L 344.884987 324.578553 
L 349.352931 324.578553 
L 350.097589 334.094282 
L 350.842246 326.481699 
L 351.586904 322.199621 
L 352.331561 325.054339 
L 353.076218 324.578553 
L 356.799505 324.578553 
L 357.544162 323.62698 
L 359.033477 324.578553 
L 359.778134 324.102766 
L 360.522792 324.102766 
L 361.267449 324.578553 
L 362.012107 324.102766 
L 362.756764 324.578553 
L 363.501421 324.102766 
L 364.246079 324.578553 
L 364.990736 326.005912 
L 365.735393 335.045855 
L 366.480051 322.675407 
L 367.224708 324.102766 
L 367.969365 324.578553 
L 368.714023 324.578553 
L 369.45868 324.102766 
L 372.43731 324.102766 
L 373.181967 324.578553 
L 374.671282 324.578553 
L 375.415939 324.102766 
L 376.160596 324.578553 
L 379.883883 324.578553 
L 380.628541 332.191136 
L 381.373198 329.812204 
L 382.117855 322.675407 
L 382.862513 325.054339 
L 384.351827 325.054339 
L 385.096485 324.578553 
L 385.841142 325.054339 
L 386.5858 324.578553 
L 388.075114 324.578553 
L 388.819772 324.102766 
L 389.564429 324.578553 
L 391.053744 324.578553 
L 391.798401 324.102766 
L 392.543058 324.578553 
L 393.287716 324.102766 
L 394.777031 324.102766 
L 395.521688 325.054339 
L 396.266345 335.997427 
L 397.011003 324.578553 
L 397.75566 323.62698 
L 398.500317 324.578553 
L 399.244975 325.054339 
L 399.989632 324.578553 
L 400.734289 325.054339 
L 401.478947 324.578553 
L 406.691548 324.578553 
L 407.436206 324.102766 
L 408.92552 325.054339 
L 409.670178 324.578553 
L 410.414835 324.578553 
L 411.159492 329.812204 
L 411.90415 328.384844 
L 412.648807 322.675407 
L 413.393465 324.578553 
L 419.350723 324.578553 
L 420.095381 325.054339 
L 420.840038 325.054339 
L 421.584696 324.578553 
L 424.563325 324.578553 
L 425.307982 324.102766 
L 426.05264 325.054339 
L 426.797297 336.473214 
L 427.541954 324.578553 
L 428.286612 323.151193 
L 429.031269 325.054339 
L 429.775927 325.054339 
L 430.520584 324.578553 
L 431.265241 325.530126 
L 432.009899 325.054339 
L 432.754556 325.054339 
L 433.499213 324.578553 
L 434.988528 325.530126 
L 435.733185 325.054339 
L 437.2225 325.054339 
L 437.967157 324.578553 
L 439.456472 325.530126 
L 440.20113 325.054339 
L 440.945787 325.054339 
L 441.690444 328.384844 
L 442.435102 330.28799 
L 443.179759 322.199621 
L 443.924416 324.578553 
L 444.669074 325.054339 
L 445.413731 324.578553 
L 456.583592 324.578553 
L 457.328249 336.473214 
L 458.072906 324.578553 
L 458.817564 322.675407 
L 459.562221 325.054339 
L 460.306878 324.578553 
L 465.51948 324.578553 
L 466.264137 323.62698 
L 467.008795 324.102766 
L 468.498109 324.102766 
L 469.242767 324.578553 
L 471.476739 324.578553 
L 472.221396 327.909058 
L 472.966054 330.28799 
L 473.710711 321.723834 
L 474.455368 325.054339 
L 475.200026 325.054339 
L 475.944683 324.578553 
L 476.68934 325.054339 
L 478.178655 325.054339 
L 478.923312 324.578553 
L 480.412627 325.530126 
L 481.157284 324.578553 
L 481.901942 324.578553 
L 482.646599 325.054339 
L 484.880571 325.054339 
L 485.625229 324.578553 
L 487.114543 324.578553 
L 487.859201 335.521641 
L 488.603858 325.054339 
L 489.348515 322.199621 
L 490.093173 324.578553 
L 490.83783 324.578553 
L 491.582488 324.102766 
L 492.327145 324.578553 
L 493.071802 324.102766 
L 493.81646 324.578553 
L 494.561117 324.102766 
L 495.305774 324.102766 
L 496.050432 324.578553 
L 500.518376 324.578553 
L 501.263033 324.102766 
L 502.007691 324.578553 
L 502.752348 326.957485 
L 503.497005 333.618495 
L 504.241663 322.199621 
L 504.98632 324.102766 
L 505.730977 324.578553 
L 509.454264 324.578553 
L 510.198922 324.102766 
L 510.943579 324.578553 
L 511.688236 324.102766 
L 512.432894 324.578553 
L 513.177551 324.578553 
L 513.922208 324.102766 
L 514.666866 324.102766 
L 515.411523 324.578553 
L 516.15618 324.102766 
L 517.645495 324.102766 
L 518.390153 334.570068 
L 519.13481 328.860631 
L 519.879467 322.199621 
L 520.624125 324.578553 
L 520.624125 324.578553 
" style="fill:none;stroke:#2ca02c;stroke-linecap:square;stroke-width:1.5;"/>
   </g>
   <g id="line2d_17">
    <path clip-path="url(#pdb3a2080aa)" d="M 116.252837 317.917543 
L 116.997495 311.256532 
L 117.742152 322.675407 
L 118.48681 326.481699 
L 119.231467 324.102766 
L 119.976124 239.888565 
L 120.720782 299.361871 
L 121.465439 290.797715 
L 122.210096 303.643949 
L 122.954754 258.444237 
L 123.699411 240.840138 
L 124.444068 260.823169 
L 125.188726 262.250528 
L 125.933383 278.427267 
L 126.67804 271.766257 
L 127.422698 299.837658 
L 128.167355 316.96597 
L 128.912013 299.361871 
L 129.65667 257.016877 
L 130.401327 270.814684 
L 131.145985 271.766257 
L 131.890642 246.549576 
L 132.635299 275.096762 
L 133.379957 49.573987 
L 134.124614 296.982939 
L 134.869271 250.355867 
L 135.613929 305.071308 
L 136.358586 308.401814 
L 137.103244 310.304959 
L 137.847901 319.820688 
L 138.592558 318.393329 
L 140.081873 323.151193 
L 140.82653 322.675407 
L 141.571188 321.723834 
L 142.315845 321.723834 
L 143.060502 321.248048 
L 144.549817 319.344902 
L 145.294475 314.111251 
L 146.039132 319.820688 
L 146.783789 309.353386 
L 147.528447 314.587037 
L 148.273104 311.256532 
L 149.017761 306.974454 
L 149.762419 308.401814 
L 150.507076 306.974454 
L 151.251733 333.142709 
L 151.996391 322.199621 
L 152.741048 323.62698 
L 154.97502 325.054339 
L 155.719678 325.054339 
L 156.464335 324.578553 
L 157.208992 325.054339 
L 157.95365 324.102766 
L 158.698307 324.102766 
L 159.442964 324.578553 
L 160.187622 324.102766 
L 160.932279 324.578553 
L 161.676937 324.102766 
L 162.421594 324.102766 
L 163.166251 324.578553 
L 163.910909 324.578553 
L 164.655566 324.102766 
L 165.400223 324.578553 
L 166.144881 326.481699 
L 166.889538 334.094282 
L 167.634195 322.675407 
L 168.378853 324.102766 
L 169.12351 325.054339 
L 169.868167 325.054339 
L 170.612825 325.530126 
L 172.846797 324.102766 
L 173.591454 324.578553 
L 178.059398 324.578553 
L 178.804056 324.102766 
L 180.293371 324.102766 
L 181.038028 324.578553 
L 181.782685 336.473214 
L 182.527343 326.957485 
L 183.272 323.151193 
L 184.016657 325.054339 
L 184.761315 324.102766 
L 186.995287 324.102766 
L 187.739944 324.578553 
L 188.484602 324.102766 
L 189.229259 324.578553 
L 190.718574 324.578553 
L 191.463231 324.102766 
L 192.207888 324.102766 
L 192.952546 324.578553 
L 195.186518 324.578553 
L 195.931175 324.102766 
L 196.675833 326.005912 
L 197.42049 335.997427 
L 198.165147 326.481699 
L 198.909805 324.578553 
L 200.399119 325.530126 
L 201.143777 325.530126 
L 201.888434 325.054339 
L 204.122406 325.054339 
L 204.867063 325.530126 
L 205.611721 325.054339 
L 210.824322 325.054339 
L 211.56898 324.578553 
L 212.313637 334.570068 
L 213.802952 323.62698 
L 214.547609 324.578553 
L 219.015553 324.578553 
L 219.760211 324.102766 
L 220.504868 324.578553 
L 224.972812 324.578553 
L 225.71747 324.102766 
L 226.462127 324.578553 
L 227.206784 325.530126 
L 227.951442 335.045855 
L 228.696099 323.151193 
L 229.440756 323.62698 
L 230.185414 324.578553 
L 230.930071 325.054339 
L 231.674729 324.578553 
L 232.419386 325.054339 
L 233.164043 324.578553 
L 233.908701 324.578553 
L 234.653358 325.054339 
L 238.376645 325.054339 
L 239.121302 324.102766 
L 239.86596 324.578553 
L 242.099932 324.578553 
L 242.844589 330.763777 
L 243.589246 329.336417 
L 244.333904 322.199621 
L 245.078561 324.578553 
L 245.823218 325.054339 
L 246.567876 325.054339 
L 248.05719 324.102766 
L 248.801848 324.102766 
L 249.546505 324.578553 
L 250.291163 324.578553 
L 251.03582 324.102766 
L 253.269792 324.102766 
L 254.014449 324.578553 
L 254.759107 324.102766 
L 255.503764 324.102766 
L 256.248421 324.578553 
L 256.993079 324.578553 
L 257.737736 325.054339 
L 258.482394 337.424787 
L 259.227051 324.102766 
L 259.971708 322.675407 
L 260.716366 324.578553 
L 262.20568 324.578553 
L 262.950338 324.102766 
L 263.694995 325.054339 
L 264.439652 324.578553 
L 268.907597 324.578553 
L 269.652254 324.102766 
L 270.396911 324.102766 
L 271.141569 324.578553 
L 272.630883 324.578553 
L 273.375541 328.384844 
L 274.120198 330.28799 
L 274.864856 321.723834 
L 275.609513 324.102766 
L 276.35417 324.102766 
L 277.098828 324.578553 
L 280.077457 324.578553 
L 280.822114 324.102766 
L 281.566772 324.578553 
L 282.311429 324.102766 
L 283.056086 324.578553 
L 283.800744 324.102766 
L 284.545401 324.102766 
L 285.290059 324.578553 
L 287.524031 324.578553 
L 288.268688 324.102766 
L 289.013345 336.473214 
L 289.758003 325.054339 
L 290.50266 323.151193 
L 291.247317 324.578553 
L 293.48129 324.578553 
L 294.225947 325.054339 
L 294.970604 324.578553 
L 295.715262 324.578553 
L 296.459919 325.054339 
L 297.204576 324.578553 
L 297.949234 324.578553 
L 298.693891 325.054339 
L 299.438548 324.578553 
L 303.161835 324.578553 
L 303.906493 326.957485 
L 304.65115 330.763777 
L 305.395807 321.723834 
L 306.140465 324.102766 
L 308.374437 324.102766 
L 309.119094 324.578553 
L 310.608409 324.578553 
L 311.353066 324.102766 
L 313.587038 324.102766 
L 314.331696 324.578553 
L 317.310325 324.578553 
L 318.054983 324.102766 
L 318.79964 324.578553 
L 319.544297 335.997427 
L 320.288955 326.005912 
L 321.033612 322.199621 
L 321.778269 325.054339 
L 327.735528 325.054339 
L 328.480186 324.578553 
L 329.224843 324.578553 
L 329.9695 325.530126 
L 330.714158 325.054339 
L 332.203472 325.054339 
L 332.94813 324.102766 
L 333.692787 324.102766 
L 334.437444 325.530126 
L 335.182102 334.094282 
L 335.926759 321.723834 
L 336.671417 323.62698 
L 337.416074 325.054339 
L 338.160731 325.054339 
L 338.905389 324.578553 
L 339.650046 325.054339 
L 340.394703 325.054339 
L 341.884018 324.102766 
L 342.628675 324.102766 
L 343.373333 324.578553 
L 344.11799 324.102766 
L 344.862648 324.578553 
L 349.330592 324.578553 
L 350.075249 334.570068 
L 350.819906 326.957485 
L 351.564564 322.199621 
L 352.309221 324.578553 
L 353.798536 324.578553 
L 354.543193 324.102766 
L 355.287851 324.578553 
L 356.777165 324.578553 
L 357.521823 323.62698 
L 359.011137 324.578553 
L 359.755795 324.102766 
L 360.500452 324.102766 
L 361.245109 324.578553 
L 361.989767 324.102766 
L 362.734424 324.578553 
L 363.479082 324.102766 
L 364.223739 324.102766 
L 364.968396 325.530126 
L 365.713054 335.045855 
L 366.457711 322.675407 
L 367.947026 324.578553 
L 368.691683 324.578553 
L 369.43634 324.102766 
L 372.41497 324.102766 
L 373.159627 324.578553 
L 374.648942 324.578553 
L 375.393599 324.102766 
L 376.138257 324.578553 
L 379.861544 324.578553 
L 380.606201 332.666922 
L 381.350858 330.28799 
L 382.095516 322.675407 
L 382.840173 325.054339 
L 385.818802 325.054339 
L 386.56346 324.578553 
L 391.031404 324.578553 
L 391.776061 324.102766 
L 392.520719 324.578553 
L 393.265376 324.102766 
L 394.754691 324.102766 
L 395.499348 325.054339 
L 396.244006 336.473214 
L 396.988663 324.578553 
L 397.73332 323.62698 
L 398.477978 324.578553 
L 399.222635 325.054339 
L 399.967292 324.578553 
L 400.71195 325.054339 
L 401.456607 324.578553 
L 406.669209 324.578553 
L 407.413866 324.102766 
L 408.158523 324.102766 
L 408.903181 325.054339 
L 409.647838 324.578553 
L 410.392495 324.578553 
L 411.137153 330.28799 
L 411.88181 328.860631 
L 412.626467 322.675407 
L 413.371125 324.578553 
L 414.86044 324.578553 
L 415.605097 324.102766 
L 416.349754 324.578553 
L 418.583726 324.578553 
L 419.328384 324.102766 
L 420.073041 325.054339 
L 421.562356 324.102766 
L 422.307013 324.578553 
L 424.540985 324.578553 
L 425.285643 324.102766 
L 426.0303 324.102766 
L 426.774957 336.949 
L 427.519615 324.578553 
L 428.264272 323.151193 
L 429.008929 325.054339 
L 429.753587 325.054339 
L 430.498244 324.578553 
L 431.242902 325.530126 
L 431.987559 325.054339 
L 432.732216 325.054339 
L 433.476874 324.578553 
L 434.221531 324.578553 
L 434.966188 325.530126 
L 435.710846 325.054339 
L 437.20016 325.054339 
L 437.944818 324.578553 
L 438.689475 325.054339 
L 440.17879 325.054339 
L 440.923447 325.530126 
L 442.412762 331.239563 
L 443.157419 321.723834 
L 443.902077 324.102766 
L 444.646734 325.054339 
L 445.391391 324.578553 
L 446.136049 324.578553 
L 446.880706 325.054339 
L 447.625363 324.578553 
L 455.816594 324.578553 
L 456.561252 324.102766 
L 457.305909 336.949 
L 458.050567 325.054339 
L 458.795224 322.675407 
L 459.539881 325.054339 
L 461.029196 324.102766 
L 461.773853 324.578553 
L 464.007825 324.578553 
L 464.752483 324.102766 
L 465.49714 324.578553 
L 466.241798 323.62698 
L 466.986455 324.102766 
L 469.220427 324.102766 
L 469.965084 324.578553 
L 471.454399 324.578553 
L 472.199056 326.957485 
L 472.943714 331.239563 
L 473.688371 321.723834 
L 474.433029 325.054339 
L 475.177686 325.054339 
L 475.922343 324.578553 
L 476.667001 325.054339 
L 477.411658 325.054339 
L 478.156315 324.578553 
L 478.900973 324.578553 
L 480.390287 325.530126 
L 481.879602 324.578553 
L 482.624259 325.054339 
L 483.368917 325.054339 
L 484.113574 325.530126 
L 484.858232 324.578553 
L 487.092204 324.578553 
L 487.836861 336.473214 
L 488.581518 325.530126 
L 489.326176 322.199621 
L 490.070833 324.578553 
L 490.81549 324.578553 
L 491.560148 324.102766 
L 492.304805 324.578553 
L 493.049463 324.102766 
L 493.79412 324.578553 
L 494.538777 324.102766 
L 496.772749 324.102766 
L 497.517407 324.578553 
L 500.496036 324.578553 
L 501.240694 324.102766 
L 501.985351 324.578553 
L 502.730008 326.481699 
L 503.474666 334.570068 
L 504.219323 322.199621 
L 504.96398 324.102766 
L 505.708638 324.578553 
L 513.155211 324.578553 
L 513.899869 324.102766 
L 514.644526 324.102766 
L 515.389183 324.578553 
L 516.133841 324.102766 
L 517.623155 324.102766 
L 517.623155 324.102766 
" style="fill:none;stroke:#d62728;stroke-linecap:square;stroke-width:1.5;"/>
   </g>
   <g id="patch_3">
    <path d="M 92.823906 352.174167 
L 92.823906 35.0625 
" style="fill:none;stroke:#000000;stroke-linecap:square;stroke-linejoin:miter;stroke-width:0.8;"/>
   </g>
   <g id="patch_4">
    <path d="M 544.073906 352.174167 
L 544.073906 35.0625 
" style="fill:none;stroke:#000000;stroke-linecap:square;stroke-linejoin:miter;stroke-width:0.8;"/>
   </g>
   <g id="patch_5">
    <path d="M 92.823906 352.174167 
L 544.073906 352.174167 
" style="fill:none;stroke:#000000;stroke-linecap:square;stroke-linejoin:miter;stroke-width:0.8;"/>
   </g>
   <g id="patch_6">
    <path d="M 92.823906 35.0625 
L 544.073906 35.0625 
" style="fill:none;stroke:#000000;stroke-linecap:square;stroke-linejoin:miter;stroke-width:0.8;"/>
   </g>
   <g id="legend_1">
    <g id="patch_7">
     <path d="M 568.636406 96.775 
L 630.169219 96.775 
Q 632.169219 96.775 632.169219 94.775 
L 632.169219 37.0625 
Q 632.169219 35.0625 630.169219 35.0625 
L 568.636406 35.0625 
Q 566.636406 35.0625 566.636406 37.0625 
L 566.636406 94.775 
Q 566.636406 96.775 568.636406 96.775 
z
" style="fill:#ffffff;opacity:0.8;stroke:#cccccc;stroke-linejoin:miter;"/>
    </g>
    <g id="line2d_18">
     <path d="M 570.636406 43.160937 
L 590.636406 43.160937 
" style="fill:none;stroke:#1f77b4;stroke-linecap:square;stroke-width:1.5;"/>
    </g>
    <g id="line2d_19"/>
    <g id="text_15">
     <!-- bbr-pi -->
     <defs>
      <path d="M 48.6875 27.296875 
Q 48.6875 37.203125 44.609375 42.84375 
Q 40.53125 48.484375 33.40625 48.484375 
Q 26.265625 48.484375 22.1875 42.84375 
Q 18.109375 37.203125 18.109375 27.296875 
Q 18.109375 17.390625 22.1875 11.75 
Q 26.265625 6.109375 33.40625 6.109375 
Q 40.53125 6.109375 44.609375 11.75 
Q 48.6875 17.390625 48.6875 27.296875 
z
M 18.109375 46.390625 
Q 20.953125 51.265625 25.265625 53.625 
Q 29.59375 56 35.59375 56 
Q 45.5625 56 51.78125 48.09375 
Q 58.015625 40.1875 58.015625 27.296875 
Q 58.015625 14.40625 51.78125 6.484375 
Q 45.5625 -1.421875 35.59375 -1.421875 
Q 29.59375 -1.421875 25.265625 0.953125 
Q 20.953125 3.328125 18.109375 8.203125 
L 18.109375 0 
L 9.078125 0 
L 9.078125 75.984375 
L 18.109375 75.984375 
z
" id="DejaVuSans-98"/>
      <path d="M 4.890625 31.390625 
L 31.203125 31.390625 
L 31.203125 23.390625 
L 4.890625 23.390625 
z
" id="DejaVuSans-45"/>
      <path d="M 18.109375 8.203125 
L 18.109375 -20.796875 
L 9.078125 -20.796875 
L 9.078125 54.6875 
L 18.109375 54.6875 
L 18.109375 46.390625 
Q 20.953125 51.265625 25.265625 53.625 
Q 29.59375 56 35.59375 56 
Q 45.5625 56 51.78125 48.09375 
Q 58.015625 40.1875 58.015625 27.296875 
Q 58.015625 14.40625 51.78125 6.484375 
Q 45.5625 -1.421875 35.59375 -1.421875 
Q 29.59375 -1.421875 25.265625 0.953125 
Q 20.953125 3.328125 18.109375 8.203125 
z
M 48.6875 27.296875 
Q 48.6875 37.203125 44.609375 42.84375 
Q 40.53125 48.484375 33.40625 48.484375 
Q 26.265625 48.484375 22.1875 42.84375 
Q 18.109375 37.203125 18.109375 27.296875 
Q 18.109375 17.390625 22.1875 11.75 
Q 26.265625 6.109375 33.40625 6.109375 
Q 40.53125 6.109375 44.609375 11.75 
Q 48.6875 17.390625 48.6875 27.296875 
z
" id="DejaVuSans-112"/>
      <path d="M 9.421875 54.6875 
L 18.40625 54.6875 
L 18.40625 0 
L 9.421875 0 
z
M 9.421875 75.984375 
L 18.40625 75.984375 
L 18.40625 64.59375 
L 9.421875 64.59375 
z
" id="DejaVuSans-105"/>
     </defs>
     <g transform="translate(598.636406 46.660937)scale(0.1 -0.1)">
      <use xlink:href="#DejaVuSans-98"/>
      <use x="63.476562" xlink:href="#DejaVuSans-98"/>
      <use x="126.953125" xlink:href="#DejaVuSans-114"/>
      <use x="167.972656" xlink:href="#DejaVuSans-45"/>
      <use x="204.056641" xlink:href="#DejaVuSans-112"/>
      <use x="267.533203" xlink:href="#DejaVuSans-105"/>
     </g>
    </g>
    <g id="line2d_20">
     <path d="M 570.636406 57.839063 
L 590.636406 57.839063 
" style="fill:none;stroke:#ff7f0e;stroke-linecap:square;stroke-width:1.5;"/>
    </g>
    <g id="line2d_21"/>
    <g id="text_16">
     <!-- bbr-pi -->
     <g transform="translate(598.636406 61.339063)scale(0.1 -0.1)">
      <use xlink:href="#DejaVuSans-98"/>
      <use x="63.476562" xlink:href="#DejaVuSans-98"/>
      <use x="126.953125" xlink:href="#DejaVuSans-114"/>
      <use x="167.972656" xlink:href="#DejaVuSans-45"/>
      <use x="204.056641" xlink:href="#DejaVuSans-112"/>
      <use x="267.533203" xlink:href="#DejaVuSans-105"/>
     </g>
    </g>
    <g id="line2d_22">
     <path d="M 570.636406 72.517187 
L 590.636406 72.517187 
" style="fill:none;stroke:#2ca02c;stroke-linecap:square;stroke-width:1.5;"/>
    </g>
    <g id="line2d_23"/>
    <g id="text_17">
     <!-- bbr-pi -->
     <g transform="translate(598.636406 76.017187)scale(0.1 -0.1)">
      <use xlink:href="#DejaVuSans-98"/>
      <use x="63.476562" xlink:href="#DejaVuSans-98"/>
      <use x="126.953125" xlink:href="#DejaVuSans-114"/>
      <use x="167.972656" xlink:href="#DejaVuSans-45"/>
      <use x="204.056641" xlink:href="#DejaVuSans-112"/>
      <use x="267.533203" xlink:href="#DejaVuSans-105"/>
     </g>
    </g>
    <g id="line2d_24">
     <path d="M 570.636406 87.195312 
L 590.636406 87.195312 
" style="fill:none;stroke:#d62728;stroke-linecap:square;stroke-width:1.5;"/>
    </g>
    <g id="line2d_25"/>
    <g id="text_18">
     <!-- bbr-pi -->
     <g transform="translate(598.636406 90.695312)scale(0.1 -0.1)">
      <use xlink:href="#DejaVuSans-98"/>
      <use x="63.476562" xlink:href="#DejaVuSans-98"/>
      <use x="126.953125" xlink:href="#DejaVuSans-114"/>
      <use x="167.972656" xlink:href="#DejaVuSans-45"/>
      <use x="204.056641" xlink:href="#DejaVuSans-112"/>
      <use x="267.533203" xlink:href="#DejaVuSans-105"/>
     </g>
    </g>
   </g>
  </g>
  <g id="text_19">
   <!-- result rtt -->
   <defs>
    <path d="M 56.203125 29.59375 
L 56.203125 25.203125 
L 14.890625 25.203125 
Q 15.484375 15.921875 20.484375 11.0625 
Q 25.484375 6.203125 34.421875 6.203125 
Q 39.59375 6.203125 44.453125 7.46875 
Q 49.3125 8.734375 54.109375 11.28125 
L 54.109375 2.78125 
Q 49.265625 0.734375 44.1875 -0.34375 
Q 39.109375 -1.421875 33.890625 -1.421875 
Q 20.796875 -1.421875 13.15625 6.1875 
Q 5.515625 13.8125 5.515625 26.8125 
Q 5.515625 40.234375 12.765625 48.109375 
Q 20.015625 56 32.328125 56 
Q 43.359375 56 49.78125 48.890625 
Q 56.203125 41.796875 56.203125 29.59375 
z
M 47.21875 32.234375 
Q 47.125 39.59375 43.09375 43.984375 
Q 39.0625 48.390625 32.421875 48.390625 
Q 24.90625 48.390625 20.390625 44.140625 
Q 15.875 39.890625 15.1875 32.171875 
z
" id="DejaVuSans-101"/>
    <path d="M 8.5 21.578125 
L 8.5 54.6875 
L 17.484375 54.6875 
L 17.484375 21.921875 
Q 17.484375 14.15625 20.5 10.265625 
Q 23.53125 6.390625 29.59375 6.390625 
Q 36.859375 6.390625 41.078125 11.03125 
Q 45.3125 15.671875 45.3125 23.6875 
L 45.3125 54.6875 
L 54.296875 54.6875 
L 54.296875 0 
L 45.3125 0 
L 45.3125 8.40625 
Q 42.046875 3.421875 37.71875 1 
Q 33.40625 -1.421875 27.6875 -1.421875 
Q 18.265625 -1.421875 13.375 4.4375 
Q 8.5 10.296875 8.5 21.578125 
z
M 31.109375 56 
z
" id="DejaVuSans-117"/>
    <path d="M 9.421875 75.984375 
L 18.40625 75.984375 
L 18.40625 0 
L 9.421875 0 
z
" id="DejaVuSans-108"/>
    <path id="DejaVuSans-32"/>
   </defs>
   <g transform="translate(315.818438 17.038125)scale(0.12 -0.12)">
    <use xlink:href="#DejaVuSans-114"/>
    <use x="41.082031" xlink:href="#DejaVuSans-101"/>
    <use x="102.605469" xlink:href="#DejaVuSans-115"/>
    <use x="154.705078" xlink:href="#DejaVuSans-117"/>
    <use x="218.083984" xlink:href="#DejaVuSans-108"/>
    <use x="245.867188" xlink:href="#DejaVuSans-116"/>
    <use x="285.076172" xlink:href="#DejaVuSans-32"/>
    <use x="316.863281" xlink:href="#DejaVuSans-114"/>
    <use x="357.976562" xlink:href="#DejaVuSans-116"/>
    <use x="397.185547" xlink:href="#DejaVuSans-116"/>
   </g>
  </g>
 </g>
 <defs>
  <clipPath id="pdb3a2080aa">
   <rect height="317.111667" width="451.25" x="92.823906" y="35.0625"/>
  </clipPath>
 </defs>
</svg>
