<?xml version="1.0" encoding="utf-8" standalone="no"?>
<!DOCTYPE svg PUBLIC "-//W3C//DTD SVG 1.1//EN"
  "http://www.w3.org/Graphics/SVG/1.1/DTD/svg11.dtd">
<!-- Created with matplotlib (https://matplotlib.org/) -->
<svg height="396pt" version="1.1" viewBox="0 0 684 396" width="684pt" xmlns="http://www.w3.org/2000/svg" xmlns:xlink="http://www.w3.org/1999/xlink">
 <defs>
  <style type="text/css">
*{stroke-linecap:butt;stroke-linejoin:round;}
  </style>
 </defs>
 <g id="figure_1">
  <g id="patch_1">
   <path d="M 0 396 
L 684 396 
L 684 0 
L 0 0 
z
" style="fill:#ffffff;"/>
  </g>
  <g id="axes_1">
   <g id="patch_2">
    <path d="M 83.472344 352.174167 
L 529.912969 352.174167 
L 529.912969 35.0625 
L 83.472344 35.0625 
z
" style="fill:#ffffff;"/>
   </g>
   <g id="matplotlib.axis_1">
    <g id="xtick_1">
     <g id="line2d_1">
      <defs>
       <path d="M 0 0 
L 0 3.5 
" id="m60187ada51" style="stroke:#000000;stroke-width:0.8;"/>
      </defs>
      <g>
       <use style="stroke:#000000;stroke-width:0.8;" x="103.765099" xlink:href="#m60187ada51" y="352.174167"/>
      </g>
     </g>
     <g id="text_1">
      <!-- 0 -->
      <defs>
       <path d="M 31.78125 66.40625 
Q 24.171875 66.40625 20.328125 58.90625 
Q 16.5 51.421875 16.5 36.375 
Q 16.5 21.390625 20.328125 13.890625 
Q 24.171875 6.390625 31.78125 6.390625 
Q 39.453125 6.390625 43.28125 13.890625 
Q 47.125 21.390625 47.125 36.375 
Q 47.125 51.421875 43.28125 58.90625 
Q 39.453125 66.40625 31.78125 66.40625 
z
M 31.78125 74.21875 
Q 44.046875 74.21875 50.515625 64.515625 
Q 56.984375 54.828125 56.984375 36.375 
Q 56.984375 17.96875 50.515625 8.265625 
Q 44.046875 -1.421875 31.78125 -1.421875 
Q 19.53125 -1.421875 13.0625 8.265625 
Q 6.59375 17.96875 6.59375 36.375 
Q 6.59375 54.828125 13.0625 64.515625 
Q 19.53125 74.21875 31.78125 74.21875 
z
" id="DejaVuSans-48"/>
      </defs>
      <g transform="translate(100.583849 366.772604)scale(0.1 -0.1)">
       <use xlink:href="#DejaVuSans-48"/>
      </g>
     </g>
    </g>
    <g id="xtick_2">
     <g id="line2d_2">
      <g>
       <use style="stroke:#000000;stroke-width:0.8;" x="177.281852" xlink:href="#m60187ada51" y="352.174167"/>
      </g>
     </g>
     <g id="text_2">
      <!-- 50 -->
      <defs>
       <path d="M 10.796875 72.90625 
L 49.515625 72.90625 
L 49.515625 64.59375 
L 19.828125 64.59375 
L 19.828125 46.734375 
Q 21.96875 47.46875 24.109375 47.828125 
Q 26.265625 48.1875 28.421875 48.1875 
Q 40.625 48.1875 47.75 41.5 
Q 54.890625 34.8125 54.890625 23.390625 
Q 54.890625 11.625 47.5625 5.09375 
Q 40.234375 -1.421875 26.90625 -1.421875 
Q 22.3125 -1.421875 17.546875 -0.640625 
Q 12.796875 0.140625 7.71875 1.703125 
L 7.71875 11.625 
Q 12.109375 9.234375 16.796875 8.0625 
Q 21.484375 6.890625 26.703125 6.890625 
Q 35.15625 6.890625 40.078125 11.328125 
Q 45.015625 15.765625 45.015625 23.390625 
Q 45.015625 31 40.078125 35.4375 
Q 35.15625 39.890625 26.703125 39.890625 
Q 22.75 39.890625 18.8125 39.015625 
Q 14.890625 38.140625 10.796875 36.28125 
z
" id="DejaVuSans-53"/>
      </defs>
      <g transform="translate(170.919352 366.772604)scale(0.1 -0.1)">
       <use xlink:href="#DejaVuSans-53"/>
       <use x="63.623047" xlink:href="#DejaVuSans-48"/>
      </g>
     </g>
    </g>
    <g id="xtick_3">
     <g id="line2d_3">
      <g>
       <use style="stroke:#000000;stroke-width:0.8;" x="250.798604" xlink:href="#m60187ada51" y="352.174167"/>
      </g>
     </g>
     <g id="text_3">
      <!-- 100 -->
      <defs>
       <path d="M 12.40625 8.296875 
L 28.515625 8.296875 
L 28.515625 63.921875 
L 10.984375 60.40625 
L 10.984375 69.390625 
L 28.421875 72.90625 
L 38.28125 72.90625 
L 38.28125 8.296875 
L 54.390625 8.296875 
L 54.390625 0 
L 12.40625 0 
z
" id="DejaVuSans-49"/>
      </defs>
      <g transform="translate(241.254854 366.772604)scale(0.1 -0.1)">
       <use xlink:href="#DejaVuSans-49"/>
       <use x="63.623047" xlink:href="#DejaVuSans-48"/>
       <use x="127.246094" xlink:href="#DejaVuSans-48"/>
      </g>
     </g>
    </g>
    <g id="xtick_4">
     <g id="line2d_4">
      <g>
       <use style="stroke:#000000;stroke-width:0.8;" x="324.315357" xlink:href="#m60187ada51" y="352.174167"/>
      </g>
     </g>
     <g id="text_4">
      <!-- 150 -->
      <g transform="translate(314.771607 366.772604)scale(0.1 -0.1)">
       <use xlink:href="#DejaVuSans-49"/>
       <use x="63.623047" xlink:href="#DejaVuSans-53"/>
       <use x="127.246094" xlink:href="#DejaVuSans-48"/>
      </g>
     </g>
    </g>
    <g id="xtick_5">
     <g id="line2d_5">
      <g>
       <use style="stroke:#000000;stroke-width:0.8;" x="397.83211" xlink:href="#m60187ada51" y="352.174167"/>
      </g>
     </g>
     <g id="text_5">
      <!-- 200 -->
      <defs>
       <path d="M 19.1875 8.296875 
L 53.609375 8.296875 
L 53.609375 0 
L 7.328125 0 
L 7.328125 8.296875 
Q 12.9375 14.109375 22.625 23.890625 
Q 32.328125 33.6875 34.8125 36.53125 
Q 39.546875 41.84375 41.421875 45.53125 
Q 43.3125 49.21875 43.3125 52.78125 
Q 43.3125 58.59375 39.234375 62.25 
Q 35.15625 65.921875 28.609375 65.921875 
Q 23.96875 65.921875 18.8125 64.3125 
Q 13.671875 62.703125 7.8125 59.421875 
L 7.8125 69.390625 
Q 13.765625 71.78125 18.9375 73 
Q 24.125 74.21875 28.421875 74.21875 
Q 39.75 74.21875 46.484375 68.546875 
Q 53.21875 62.890625 53.21875 53.421875 
Q 53.21875 48.921875 51.53125 44.890625 
Q 49.859375 40.875 45.40625 35.40625 
Q 44.1875 33.984375 37.640625 27.21875 
Q 31.109375 20.453125 19.1875 8.296875 
z
" id="DejaVuSans-50"/>
      </defs>
      <g transform="translate(388.28836 366.772604)scale(0.1 -0.1)">
       <use xlink:href="#DejaVuSans-50"/>
       <use x="63.623047" xlink:href="#DejaVuSans-48"/>
       <use x="127.246094" xlink:href="#DejaVuSans-48"/>
      </g>
     </g>
    </g>
    <g id="xtick_6">
     <g id="line2d_6">
      <g>
       <use style="stroke:#000000;stroke-width:0.8;" x="471.348862" xlink:href="#m60187ada51" y="352.174167"/>
      </g>
     </g>
     <g id="text_6">
      <!-- 250 -->
      <g transform="translate(461.805112 366.772604)scale(0.1 -0.1)">
       <use xlink:href="#DejaVuSans-50"/>
       <use x="63.623047" xlink:href="#DejaVuSans-53"/>
       <use x="127.246094" xlink:href="#DejaVuSans-48"/>
      </g>
     </g>
    </g>
   </g>
   <g id="matplotlib.axis_2">
    <g id="ytick_1">
     <g id="line2d_7">
      <defs>
       <path d="M 0 0 
L -3.5 0 
" id="m5fd61a1a14" style="stroke:#000000;stroke-width:0.8;"/>
      </defs>
      <g>
       <use style="stroke:#000000;stroke-width:0.8;" x="83.472344" xlink:href="#m5fd61a1a14" y="352.174167"/>
      </g>
     </g>
     <g id="text_7">
      <!-- 0 -->
      <g transform="translate(70.109844 355.973385)scale(0.1 -0.1)">
       <use xlink:href="#DejaVuSans-48"/>
      </g>
     </g>
    </g>
    <g id="ytick_2">
     <g id="line2d_8">
      <g>
       <use style="stroke:#000000;stroke-width:0.8;" x="83.472344" xlink:href="#m5fd61a1a14" y="313.944912"/>
      </g>
     </g>
     <g id="text_8">
      <!-- 10 -->
      <g transform="translate(63.747344 317.744131)scale(0.1 -0.1)">
       <use xlink:href="#DejaVuSans-49"/>
       <use x="63.623047" xlink:href="#DejaVuSans-48"/>
      </g>
     </g>
    </g>
    <g id="ytick_3">
     <g id="line2d_9">
      <g>
       <use style="stroke:#000000;stroke-width:0.8;" x="83.472344" xlink:href="#m5fd61a1a14" y="275.715658"/>
      </g>
     </g>
     <g id="text_9">
      <!-- 20 -->
      <g transform="translate(63.747344 279.514876)scale(0.1 -0.1)">
       <use xlink:href="#DejaVuSans-50"/>
       <use x="63.623047" xlink:href="#DejaVuSans-48"/>
      </g>
     </g>
    </g>
    <g id="ytick_4">
     <g id="line2d_10">
      <g>
       <use style="stroke:#000000;stroke-width:0.8;" x="83.472344" xlink:href="#m5fd61a1a14" y="237.486403"/>
      </g>
     </g>
     <g id="text_10">
      <!-- 30 -->
      <defs>
       <path d="M 40.578125 39.3125 
Q 47.65625 37.796875 51.625 33 
Q 55.609375 28.21875 55.609375 21.1875 
Q 55.609375 10.40625 48.1875 4.484375 
Q 40.765625 -1.421875 27.09375 -1.421875 
Q 22.515625 -1.421875 17.65625 -0.515625 
Q 12.796875 0.390625 7.625 2.203125 
L 7.625 11.71875 
Q 11.71875 9.328125 16.59375 8.109375 
Q 21.484375 6.890625 26.8125 6.890625 
Q 36.078125 6.890625 40.9375 10.546875 
Q 45.796875 14.203125 45.796875 21.1875 
Q 45.796875 27.640625 41.28125 31.265625 
Q 36.765625 34.90625 28.71875 34.90625 
L 20.21875 34.90625 
L 20.21875 43.015625 
L 29.109375 43.015625 
Q 36.375 43.015625 40.234375 45.921875 
Q 44.09375 48.828125 44.09375 54.296875 
Q 44.09375 59.90625 40.109375 62.90625 
Q 36.140625 65.921875 28.71875 65.921875 
Q 24.65625 65.921875 20.015625 65.03125 
Q 15.375 64.15625 9.8125 62.3125 
L 9.8125 71.09375 
Q 15.4375 72.65625 20.34375 73.4375 
Q 25.25 74.21875 29.59375 74.21875 
Q 40.828125 74.21875 47.359375 69.109375 
Q 53.90625 64.015625 53.90625 55.328125 
Q 53.90625 49.265625 50.4375 45.09375 
Q 46.96875 40.921875 40.578125 39.3125 
z
" id="DejaVuSans-51"/>
      </defs>
      <g transform="translate(63.747344 241.285622)scale(0.1 -0.1)">
       <use xlink:href="#DejaVuSans-51"/>
       <use x="63.623047" xlink:href="#DejaVuSans-48"/>
      </g>
     </g>
    </g>
    <g id="ytick_5">
     <g id="line2d_11">
      <g>
       <use style="stroke:#000000;stroke-width:0.8;" x="83.472344" xlink:href="#m5fd61a1a14" y="199.257148"/>
      </g>
     </g>
     <g id="text_11">
      <!-- 40 -->
      <defs>
       <path d="M 37.796875 64.3125 
L 12.890625 25.390625 
L 37.796875 25.390625 
z
M 35.203125 72.90625 
L 47.609375 72.90625 
L 47.609375 25.390625 
L 58.015625 25.390625 
L 58.015625 17.1875 
L 47.609375 17.1875 
L 47.609375 0 
L 37.796875 0 
L 37.796875 17.1875 
L 4.890625 17.1875 
L 4.890625 26.703125 
z
" id="DejaVuSans-52"/>
      </defs>
      <g transform="translate(63.747344 203.056367)scale(0.1 -0.1)">
       <use xlink:href="#DejaVuSans-52"/>
       <use x="63.623047" xlink:href="#DejaVuSans-48"/>
      </g>
     </g>
    </g>
    <g id="ytick_6">
     <g id="line2d_12">
      <g>
       <use style="stroke:#000000;stroke-width:0.8;" x="83.472344" xlink:href="#m5fd61a1a14" y="161.027894"/>
      </g>
     </g>
     <g id="text_12">
      <!-- 50 -->
      <g transform="translate(63.747344 164.827113)scale(0.1 -0.1)">
       <use xlink:href="#DejaVuSans-53"/>
       <use x="63.623047" xlink:href="#DejaVuSans-48"/>
      </g>
     </g>
    </g>
    <g id="ytick_7">
     <g id="line2d_13">
      <g>
       <use style="stroke:#000000;stroke-width:0.8;" x="83.472344" xlink:href="#m5fd61a1a14" y="122.798639"/>
      </g>
     </g>
     <g id="text_13">
      <!-- 60 -->
      <defs>
       <path d="M 33.015625 40.375 
Q 26.375 40.375 22.484375 35.828125 
Q 18.609375 31.296875 18.609375 23.390625 
Q 18.609375 15.53125 22.484375 10.953125 
Q 26.375 6.390625 33.015625 6.390625 
Q 39.65625 6.390625 43.53125 10.953125 
Q 47.40625 15.53125 47.40625 23.390625 
Q 47.40625 31.296875 43.53125 35.828125 
Q 39.65625 40.375 33.015625 40.375 
z
M 52.59375 71.296875 
L 52.59375 62.3125 
Q 48.875 64.0625 45.09375 64.984375 
Q 41.3125 65.921875 37.59375 65.921875 
Q 27.828125 65.921875 22.671875 59.328125 
Q 17.53125 52.734375 16.796875 39.40625 
Q 19.671875 43.65625 24.015625 45.921875 
Q 28.375 48.1875 33.59375 48.1875 
Q 44.578125 48.1875 50.953125 41.515625 
Q 57.328125 34.859375 57.328125 23.390625 
Q 57.328125 12.15625 50.6875 5.359375 
Q 44.046875 -1.421875 33.015625 -1.421875 
Q 20.359375 -1.421875 13.671875 8.265625 
Q 6.984375 17.96875 6.984375 36.375 
Q 6.984375 53.65625 15.1875 63.9375 
Q 23.390625 74.21875 37.203125 74.21875 
Q 40.921875 74.21875 44.703125 73.484375 
Q 48.484375 72.75 52.59375 71.296875 
z
" id="DejaVuSans-54"/>
      </defs>
      <g transform="translate(63.747344 126.597858)scale(0.1 -0.1)">
       <use xlink:href="#DejaVuSans-54"/>
       <use x="63.623047" xlink:href="#DejaVuSans-48"/>
      </g>
     </g>
    </g>
    <g id="ytick_8">
     <g id="line2d_14">
      <g>
       <use style="stroke:#000000;stroke-width:0.8;" x="83.472344" xlink:href="#m5fd61a1a14" y="84.569385"/>
      </g>
     </g>
     <g id="text_14">
      <!-- 70 -->
      <defs>
       <path d="M 8.203125 72.90625 
L 55.078125 72.90625 
L 55.078125 68.703125 
L 28.609375 0 
L 18.3125 0 
L 43.21875 64.59375 
L 8.203125 64.59375 
z
" id="DejaVuSans-55"/>
      </defs>
      <g transform="translate(63.747344 88.368603)scale(0.1 -0.1)">
       <use xlink:href="#DejaVuSans-55"/>
       <use x="63.623047" xlink:href="#DejaVuSans-48"/>
      </g>
     </g>
    </g>
    <g id="ytick_9">
     <g id="line2d_15">
      <g>
       <use style="stroke:#000000;stroke-width:0.8;" x="83.472344" xlink:href="#m5fd61a1a14" y="46.34013"/>
      </g>
     </g>
     <g id="text_15">
      <!-- 80 -->
      <defs>
       <path d="M 31.78125 34.625 
Q 24.75 34.625 20.71875 30.859375 
Q 16.703125 27.09375 16.703125 20.515625 
Q 16.703125 13.921875 20.71875 10.15625 
Q 24.75 6.390625 31.78125 6.390625 
Q 38.8125 6.390625 42.859375 10.171875 
Q 46.921875 13.96875 46.921875 20.515625 
Q 46.921875 27.09375 42.890625 30.859375 
Q 38.875 34.625 31.78125 34.625 
z
M 21.921875 38.8125 
Q 15.578125 40.375 12.03125 44.71875 
Q 8.5 49.078125 8.5 55.328125 
Q 8.5 64.0625 14.71875 69.140625 
Q 20.953125 74.21875 31.78125 74.21875 
Q 42.671875 74.21875 48.875 69.140625 
Q 55.078125 64.0625 55.078125 55.328125 
Q 55.078125 49.078125 51.53125 44.71875 
Q 48 40.375 41.703125 38.8125 
Q 48.828125 37.15625 52.796875 32.3125 
Q 56.78125 27.484375 56.78125 20.515625 
Q 56.78125 9.90625 50.3125 4.234375 
Q 43.84375 -1.421875 31.78125 -1.421875 
Q 19.734375 -1.421875 13.25 4.234375 
Q 6.78125 9.90625 6.78125 20.515625 
Q 6.78125 27.484375 10.78125 32.3125 
Q 14.796875 37.15625 21.921875 38.8125 
z
M 18.3125 54.390625 
Q 18.3125 48.734375 21.84375 45.5625 
Q 25.390625 42.390625 31.78125 42.390625 
Q 38.140625 42.390625 41.71875 45.5625 
Q 45.3125 48.734375 45.3125 54.390625 
Q 45.3125 60.0625 41.71875 63.234375 
Q 38.140625 66.40625 31.78125 66.40625 
Q 25.390625 66.40625 21.84375 63.234375 
Q 18.3125 60.0625 18.3125 54.390625 
z
" id="DejaVuSans-56"/>
      </defs>
      <g transform="translate(63.747344 50.139349)scale(0.1 -0.1)">
       <use xlink:href="#DejaVuSans-56"/>
       <use x="63.623047" xlink:href="#DejaVuSans-48"/>
      </g>
     </g>
    </g>
    <g id="text_16">
     <!-- throughput -->
     <defs>
      <path d="M 18.3125 70.21875 
L 18.3125 54.6875 
L 36.8125 54.6875 
L 36.8125 47.703125 
L 18.3125 47.703125 
L 18.3125 18.015625 
Q 18.3125 11.328125 20.140625 9.421875 
Q 21.96875 7.515625 27.59375 7.515625 
L 36.8125 7.515625 
L 36.8125 0 
L 27.59375 0 
Q 17.1875 0 13.234375 3.875 
Q 9.28125 7.765625 9.28125 18.015625 
L 9.28125 47.703125 
L 2.6875 47.703125 
L 2.6875 54.6875 
L 9.28125 54.6875 
L 9.28125 70.21875 
z
" id="DejaVuSans-116"/>
      <path d="M 54.890625 33.015625 
L 54.890625 0 
L 45.90625 0 
L 45.90625 32.71875 
Q 45.90625 40.484375 42.875 44.328125 
Q 39.84375 48.1875 33.796875 48.1875 
Q 26.515625 48.1875 22.3125 43.546875 
Q 18.109375 38.921875 18.109375 30.90625 
L 18.109375 0 
L 9.078125 0 
L 9.078125 75.984375 
L 18.109375 75.984375 
L 18.109375 46.1875 
Q 21.34375 51.125 25.703125 53.5625 
Q 30.078125 56 35.796875 56 
Q 45.21875 56 50.046875 50.171875 
Q 54.890625 44.34375 54.890625 33.015625 
z
" id="DejaVuSans-104"/>
      <path d="M 41.109375 46.296875 
Q 39.59375 47.171875 37.8125 47.578125 
Q 36.03125 48 33.890625 48 
Q 26.265625 48 22.1875 43.046875 
Q 18.109375 38.09375 18.109375 28.8125 
L 18.109375 0 
L 9.078125 0 
L 9.078125 54.6875 
L 18.109375 54.6875 
L 18.109375 46.1875 
Q 20.953125 51.171875 25.484375 53.578125 
Q 30.03125 56 36.53125 56 
Q 37.453125 56 38.578125 55.875 
Q 39.703125 55.765625 41.0625 55.515625 
z
" id="DejaVuSans-114"/>
      <path d="M 30.609375 48.390625 
Q 23.390625 48.390625 19.1875 42.75 
Q 14.984375 37.109375 14.984375 27.296875 
Q 14.984375 17.484375 19.15625 11.84375 
Q 23.34375 6.203125 30.609375 6.203125 
Q 37.796875 6.203125 41.984375 11.859375 
Q 46.1875 17.53125 46.1875 27.296875 
Q 46.1875 37.015625 41.984375 42.703125 
Q 37.796875 48.390625 30.609375 48.390625 
z
M 30.609375 56 
Q 42.328125 56 49.015625 48.375 
Q 55.71875 40.765625 55.71875 27.296875 
Q 55.71875 13.875 49.015625 6.21875 
Q 42.328125 -1.421875 30.609375 -1.421875 
Q 18.84375 -1.421875 12.171875 6.21875 
Q 5.515625 13.875 5.515625 27.296875 
Q 5.515625 40.765625 12.171875 48.375 
Q 18.84375 56 30.609375 56 
z
" id="DejaVuSans-111"/>
      <path d="M 8.5 21.578125 
L 8.5 54.6875 
L 17.484375 54.6875 
L 17.484375 21.921875 
Q 17.484375 14.15625 20.5 10.265625 
Q 23.53125 6.390625 29.59375 6.390625 
Q 36.859375 6.390625 41.078125 11.03125 
Q 45.3125 15.671875 45.3125 23.6875 
L 45.3125 54.6875 
L 54.296875 54.6875 
L 54.296875 0 
L 45.3125 0 
L 45.3125 8.40625 
Q 42.046875 3.421875 37.71875 1 
Q 33.40625 -1.421875 27.6875 -1.421875 
Q 18.265625 -1.421875 13.375 4.4375 
Q 8.5 10.296875 8.5 21.578125 
z
M 31.109375 56 
z
" id="DejaVuSans-117"/>
      <path d="M 45.40625 27.984375 
Q 45.40625 37.75 41.375 43.109375 
Q 37.359375 48.484375 30.078125 48.484375 
Q 22.859375 48.484375 18.828125 43.109375 
Q 14.796875 37.75 14.796875 27.984375 
Q 14.796875 18.265625 18.828125 12.890625 
Q 22.859375 7.515625 30.078125 7.515625 
Q 37.359375 7.515625 41.375 12.890625 
Q 45.40625 18.265625 45.40625 27.984375 
z
M 54.390625 6.78125 
Q 54.390625 -7.171875 48.1875 -13.984375 
Q 42 -20.796875 29.203125 -20.796875 
Q 24.46875 -20.796875 20.265625 -20.09375 
Q 16.0625 -19.390625 12.109375 -17.921875 
L 12.109375 -9.1875 
Q 16.0625 -11.328125 19.921875 -12.34375 
Q 23.78125 -13.375 27.78125 -13.375 
Q 36.625 -13.375 41.015625 -8.765625 
Q 45.40625 -4.15625 45.40625 5.171875 
L 45.40625 9.625 
Q 42.625 4.78125 38.28125 2.390625 
Q 33.9375 0 27.875 0 
Q 17.828125 0 11.671875 7.65625 
Q 5.515625 15.328125 5.515625 27.984375 
Q 5.515625 40.671875 11.671875 48.328125 
Q 17.828125 56 27.875 56 
Q 33.9375 56 38.28125 53.609375 
Q 42.625 51.21875 45.40625 46.390625 
L 45.40625 54.6875 
L 54.390625 54.6875 
z
" id="DejaVuSans-103"/>
      <path d="M 18.109375 8.203125 
L 18.109375 -20.796875 
L 9.078125 -20.796875 
L 9.078125 54.6875 
L 18.109375 54.6875 
L 18.109375 46.390625 
Q 20.953125 51.265625 25.265625 53.625 
Q 29.59375 56 35.59375 56 
Q 45.5625 56 51.78125 48.09375 
Q 58.015625 40.1875 58.015625 27.296875 
Q 58.015625 14.40625 51.78125 6.484375 
Q 45.5625 -1.421875 35.59375 -1.421875 
Q 29.59375 -1.421875 25.265625 0.953125 
Q 20.953125 3.328125 18.109375 8.203125 
z
M 48.6875 27.296875 
Q 48.6875 37.203125 44.609375 42.84375 
Q 40.53125 48.484375 33.40625 48.484375 
Q 26.265625 48.484375 22.1875 42.84375 
Q 18.109375 37.203125 18.109375 27.296875 
Q 18.109375 17.390625 22.1875 11.75 
Q 26.265625 6.109375 33.40625 6.109375 
Q 40.53125 6.109375 44.609375 11.75 
Q 48.6875 17.390625 48.6875 27.296875 
z
" id="DejaVuSans-112"/>
     </defs>
     <g transform="translate(46.469844 221.675365)rotate(-90)scale(0.1 -0.1)">
      <use xlink:href="#DejaVuSans-116"/>
      <use x="39.208984" xlink:href="#DejaVuSans-104"/>
      <use x="102.587891" xlink:href="#DejaVuSans-114"/>
      <use x="143.669922" xlink:href="#DejaVuSans-111"/>
      <use x="204.851562" xlink:href="#DejaVuSans-117"/>
      <use x="268.230469" xlink:href="#DejaVuSans-103"/>
      <use x="331.707031" xlink:href="#DejaVuSans-104"/>
      <use x="395.085938" xlink:href="#DejaVuSans-112"/>
      <use x="458.5625" xlink:href="#DejaVuSans-117"/>
      <use x="521.941406" xlink:href="#DejaVuSans-116"/>
     </g>
     <!-- (mbit / second) -->
     <defs>
      <path d="M 31 75.875 
Q 24.46875 64.65625 21.28125 53.65625 
Q 18.109375 42.671875 18.109375 31.390625 
Q 18.109375 20.125 21.3125 9.0625 
Q 24.515625 -2 31 -13.1875 
L 23.1875 -13.1875 
Q 15.875 -1.703125 12.234375 9.375 
Q 8.59375 20.453125 8.59375 31.390625 
Q 8.59375 42.28125 12.203125 53.3125 
Q 15.828125 64.359375 23.1875 75.875 
z
" id="DejaVuSans-40"/>
      <path d="M 52 44.1875 
Q 55.375 50.25 60.0625 53.125 
Q 64.75 56 71.09375 56 
Q 79.640625 56 84.28125 50.015625 
Q 88.921875 44.046875 88.921875 33.015625 
L 88.921875 0 
L 79.890625 0 
L 79.890625 32.71875 
Q 79.890625 40.578125 77.09375 44.375 
Q 74.3125 48.1875 68.609375 48.1875 
Q 61.625 48.1875 57.5625 43.546875 
Q 53.515625 38.921875 53.515625 30.90625 
L 53.515625 0 
L 44.484375 0 
L 44.484375 32.71875 
Q 44.484375 40.625 41.703125 44.40625 
Q 38.921875 48.1875 33.109375 48.1875 
Q 26.21875 48.1875 22.15625 43.53125 
Q 18.109375 38.875 18.109375 30.90625 
L 18.109375 0 
L 9.078125 0 
L 9.078125 54.6875 
L 18.109375 54.6875 
L 18.109375 46.1875 
Q 21.1875 51.21875 25.484375 53.609375 
Q 29.78125 56 35.6875 56 
Q 41.65625 56 45.828125 52.96875 
Q 50 49.953125 52 44.1875 
z
" id="DejaVuSans-109"/>
      <path d="M 48.6875 27.296875 
Q 48.6875 37.203125 44.609375 42.84375 
Q 40.53125 48.484375 33.40625 48.484375 
Q 26.265625 48.484375 22.1875 42.84375 
Q 18.109375 37.203125 18.109375 27.296875 
Q 18.109375 17.390625 22.1875 11.75 
Q 26.265625 6.109375 33.40625 6.109375 
Q 40.53125 6.109375 44.609375 11.75 
Q 48.6875 17.390625 48.6875 27.296875 
z
M 18.109375 46.390625 
Q 20.953125 51.265625 25.265625 53.625 
Q 29.59375 56 35.59375 56 
Q 45.5625 56 51.78125 48.09375 
Q 58.015625 40.1875 58.015625 27.296875 
Q 58.015625 14.40625 51.78125 6.484375 
Q 45.5625 -1.421875 35.59375 -1.421875 
Q 29.59375 -1.421875 25.265625 0.953125 
Q 20.953125 3.328125 18.109375 8.203125 
L 18.109375 0 
L 9.078125 0 
L 9.078125 75.984375 
L 18.109375 75.984375 
z
" id="DejaVuSans-98"/>
      <path d="M 9.421875 54.6875 
L 18.40625 54.6875 
L 18.40625 0 
L 9.421875 0 
z
M 9.421875 75.984375 
L 18.40625 75.984375 
L 18.40625 64.59375 
L 9.421875 64.59375 
z
" id="DejaVuSans-105"/>
      <path id="DejaVuSans-32"/>
      <path d="M 25.390625 72.90625 
L 33.6875 72.90625 
L 8.296875 -9.28125 
L 0 -9.28125 
z
" id="DejaVuSans-47"/>
      <path d="M 44.28125 53.078125 
L 44.28125 44.578125 
Q 40.484375 46.53125 36.375 47.5 
Q 32.28125 48.484375 27.875 48.484375 
Q 21.1875 48.484375 17.84375 46.4375 
Q 14.5 44.390625 14.5 40.28125 
Q 14.5 37.15625 16.890625 35.375 
Q 19.28125 33.59375 26.515625 31.984375 
L 29.59375 31.296875 
Q 39.15625 29.25 43.1875 25.515625 
Q 47.21875 21.78125 47.21875 15.09375 
Q 47.21875 7.46875 41.1875 3.015625 
Q 35.15625 -1.421875 24.609375 -1.421875 
Q 20.21875 -1.421875 15.453125 -0.5625 
Q 10.6875 0.296875 5.421875 2 
L 5.421875 11.28125 
Q 10.40625 8.6875 15.234375 7.390625 
Q 20.0625 6.109375 24.8125 6.109375 
Q 31.15625 6.109375 34.5625 8.28125 
Q 37.984375 10.453125 37.984375 14.40625 
Q 37.984375 18.0625 35.515625 20.015625 
Q 33.0625 21.96875 24.703125 23.78125 
L 21.578125 24.515625 
Q 13.234375 26.265625 9.515625 29.90625 
Q 5.8125 33.546875 5.8125 39.890625 
Q 5.8125 47.609375 11.28125 51.796875 
Q 16.75 56 26.8125 56 
Q 31.78125 56 36.171875 55.265625 
Q 40.578125 54.546875 44.28125 53.078125 
z
" id="DejaVuSans-115"/>
      <path d="M 56.203125 29.59375 
L 56.203125 25.203125 
L 14.890625 25.203125 
Q 15.484375 15.921875 20.484375 11.0625 
Q 25.484375 6.203125 34.421875 6.203125 
Q 39.59375 6.203125 44.453125 7.46875 
Q 49.3125 8.734375 54.109375 11.28125 
L 54.109375 2.78125 
Q 49.265625 0.734375 44.1875 -0.34375 
Q 39.109375 -1.421875 33.890625 -1.421875 
Q 20.796875 -1.421875 13.15625 6.1875 
Q 5.515625 13.8125 5.515625 26.8125 
Q 5.515625 40.234375 12.765625 48.109375 
Q 20.015625 56 32.328125 56 
Q 43.359375 56 49.78125 48.890625 
Q 56.203125 41.796875 56.203125 29.59375 
z
M 47.21875 32.234375 
Q 47.125 39.59375 43.09375 43.984375 
Q 39.0625 48.390625 32.421875 48.390625 
Q 24.90625 48.390625 20.390625 44.140625 
Q 15.875 39.890625 15.1875 32.171875 
z
" id="DejaVuSans-101"/>
      <path d="M 48.78125 52.59375 
L 48.78125 44.1875 
Q 44.96875 46.296875 41.140625 47.34375 
Q 37.3125 48.390625 33.40625 48.390625 
Q 24.65625 48.390625 19.8125 42.84375 
Q 14.984375 37.3125 14.984375 27.296875 
Q 14.984375 17.28125 19.8125 11.734375 
Q 24.65625 6.203125 33.40625 6.203125 
Q 37.3125 6.203125 41.140625 7.25 
Q 44.96875 8.296875 48.78125 10.40625 
L 48.78125 2.09375 
Q 45.015625 0.34375 40.984375 -0.53125 
Q 36.96875 -1.421875 32.421875 -1.421875 
Q 20.0625 -1.421875 12.78125 6.34375 
Q 5.515625 14.109375 5.515625 27.296875 
Q 5.515625 40.671875 12.859375 48.328125 
Q 20.21875 56 33.015625 56 
Q 37.15625 56 41.109375 55.140625 
Q 45.0625 54.296875 48.78125 52.59375 
z
" id="DejaVuSans-99"/>
      <path d="M 54.890625 33.015625 
L 54.890625 0 
L 45.90625 0 
L 45.90625 32.71875 
Q 45.90625 40.484375 42.875 44.328125 
Q 39.84375 48.1875 33.796875 48.1875 
Q 26.515625 48.1875 22.3125 43.546875 
Q 18.109375 38.921875 18.109375 30.90625 
L 18.109375 0 
L 9.078125 0 
L 9.078125 54.6875 
L 18.109375 54.6875 
L 18.109375 46.1875 
Q 21.34375 51.125 25.703125 53.5625 
Q 30.078125 56 35.796875 56 
Q 45.21875 56 50.046875 50.171875 
Q 54.890625 44.34375 54.890625 33.015625 
z
" id="DejaVuSans-110"/>
      <path d="M 45.40625 46.390625 
L 45.40625 75.984375 
L 54.390625 75.984375 
L 54.390625 0 
L 45.40625 0 
L 45.40625 8.203125 
Q 42.578125 3.328125 38.25 0.953125 
Q 33.9375 -1.421875 27.875 -1.421875 
Q 17.96875 -1.421875 11.734375 6.484375 
Q 5.515625 14.40625 5.515625 27.296875 
Q 5.515625 40.1875 11.734375 48.09375 
Q 17.96875 56 27.875 56 
Q 33.9375 56 38.25 53.625 
Q 42.578125 51.265625 45.40625 46.390625 
z
M 14.796875 27.296875 
Q 14.796875 17.390625 18.875 11.75 
Q 22.953125 6.109375 30.078125 6.109375 
Q 37.203125 6.109375 41.296875 11.75 
Q 45.40625 17.390625 45.40625 27.296875 
Q 45.40625 37.203125 41.296875 42.84375 
Q 37.203125 48.484375 30.078125 48.484375 
Q 22.953125 48.484375 18.875 42.84375 
Q 14.796875 37.203125 14.796875 27.296875 
z
" id="DejaVuSans-100"/>
      <path d="M 8.015625 75.875 
L 15.828125 75.875 
Q 23.140625 64.359375 26.78125 53.3125 
Q 30.421875 42.28125 30.421875 31.390625 
Q 30.421875 20.453125 26.78125 9.375 
Q 23.140625 -1.703125 15.828125 -13.1875 
L 8.015625 -13.1875 
Q 14.5 -2 17.703125 9.0625 
Q 20.90625 20.125 20.90625 31.390625 
Q 20.90625 42.671875 17.703125 53.65625 
Q 14.5 64.65625 8.015625 75.875 
z
" id="DejaVuSans-41"/>
     </defs>
     <g transform="translate(57.667656 231.608958)rotate(-90)scale(0.1 -0.1)">
      <use xlink:href="#DejaVuSans-40"/>
      <use x="39.013672" xlink:href="#DejaVuSans-109"/>
      <use x="136.425781" xlink:href="#DejaVuSans-98"/>
      <use x="199.902344" xlink:href="#DejaVuSans-105"/>
      <use x="227.685547" xlink:href="#DejaVuSans-116"/>
      <use x="266.894531" xlink:href="#DejaVuSans-32"/>
      <use x="298.681641" xlink:href="#DejaVuSans-47"/>
      <use x="332.373047" xlink:href="#DejaVuSans-32"/>
      <use x="364.160156" xlink:href="#DejaVuSans-115"/>
      <use x="416.259766" xlink:href="#DejaVuSans-101"/>
      <use x="477.783203" xlink:href="#DejaVuSans-99"/>
      <use x="532.763672" xlink:href="#DejaVuSans-111"/>
      <use x="593.945312" xlink:href="#DejaVuSans-110"/>
      <use x="657.324219" xlink:href="#DejaVuSans-100"/>
      <use x="720.800781" xlink:href="#DejaVuSans-41"/>
     </g>
    </g>
   </g>
   <g id="line2d_16">
    <path clip-path="url(#p8eb59178bd)" d="M 109.706723 302.476136 
L 111.177058 176.319596 
L 111.912226 141.913267 
L 112.647393 157.204968 
L 113.382561 168.673745 
L 114.117729 176.319596 
L 114.852896 172.49667 
L 115.588064 172.49667 
L 116.323231 176.319596 
L 117.793566 176.319596 
L 118.528734 172.49667 
L 119.263901 199.257148 
L 119.999069 218.371776 
L 120.734236 241.309328 
L 122.204571 294.830285 
L 122.939739 313.944912 
L 124.410074 336.882465 
L 125.145241 336.882465 
L 125.880409 340.70539 
L 126.615576 340.70539 
L 127.350744 344.528316 
L 128.085912 340.70539 
L 128.821079 340.70539 
L 130.291414 348.351241 
L 131.026582 344.528316 
L 131.761749 344.528316 
L 133.232084 352.174167 
L 139.848592 352.174167 
L 140.583759 348.351241 
L 141.318927 340.70539 
L 142.054094 329.236614 
L 142.789262 313.944912 
L 145.729932 268.069807 
L 148.670602 237.486403 
L 149.40577 237.486403 
L 150.140937 226.017627 
L 150.876105 218.371776 
L 151.611272 226.017627 
L 152.34644 222.194701 
L 153.081607 222.194701 
L 154.551942 214.54885 
L 156.022277 214.54885 
L 156.757445 233.663477 
L 157.492613 245.132254 
L 158.22778 275.715658 
L 158.962948 298.65321 
L 159.698115 306.299061 
L 160.433283 321.590763 
L 161.16845 344.528316 
L 161.903618 352.174167 
L 172.931131 352.174167 
L 173.666298 348.351241 
L 174.401466 336.882465 
L 176.606968 291.007359 
L 178.077303 268.069807 
L 178.812471 260.423956 
L 179.547638 248.955179 
L 180.282806 245.132254 
L 181.017973 237.486403 
L 182.488308 229.840552 
L 183.223476 229.840552 
L 184.693811 222.194701 
L 185.428978 226.017627 
L 186.164146 256.60103 
L 186.899314 237.486403 
L 187.634481 237.486403 
L 188.369649 233.663477 
L 189.104816 275.715658 
L 189.839984 287.184434 
L 190.575151 287.184434 
L 191.310319 298.65321 
L 192.045486 325.413688 
L 192.780654 340.70539 
L 193.515821 348.351241 
L 194.250989 352.174167 
L 206.013669 352.174167 
L 207.484004 336.882465 
L 208.219172 306.299061 
L 209.689507 191.611297 
L 210.424674 161.027894 
L 212.630177 149.559117 
L 214.100512 149.559117 
L 214.835679 157.204968 
L 217.041182 168.673745 
L 219.246685 168.673745 
L 219.981852 191.611297 
L 220.71702 191.611297 
L 221.452187 187.788372 
L 222.187355 187.788372 
L 223.65769 256.60103 
L 224.392857 271.892732 
L 225.128025 291.007359 
L 226.59836 321.590763 
L 227.333527 340.70539 
L 228.068695 348.351241 
L 228.803862 348.351241 
L 229.53903 352.174167 
L 230.274198 352.174167 
L 231.009365 348.351241 
L 231.744533 352.174167 
L 239.096208 352.174167 
L 239.831375 340.70539 
L 242.772045 279.538583 
L 244.24238 256.60103 
L 245.712716 241.309328 
L 248.653386 226.017627 
L 249.388553 226.017627 
L 250.123721 222.194701 
L 250.858888 222.194701 
L 251.594056 218.371776 
L 252.329223 222.194701 
L 253.064391 222.194701 
L 254.534726 214.54885 
L 255.269893 237.486403 
L 257.475396 294.830285 
L 258.210563 310.121987 
L 259.680899 333.059539 
L 260.416066 336.882465 
L 261.151234 348.351241 
L 261.886401 352.174167 
L 272.178746 352.174167 
L 272.913914 344.528316 
L 275.854584 283.361508 
L 277.324919 260.423956 
L 279.530422 237.486403 
L 282.471092 222.194701 
L 284.676594 222.194701 
L 285.411762 218.371776 
L 286.146929 218.371776 
L 286.882097 214.54885 
L 287.617264 195.434223 
L 288.352432 203.080074 
L 289.0876 218.371776 
L 289.822767 237.486403 
L 290.557935 275.715658 
L 291.293102 294.830285 
L 292.02827 321.590763 
L 292.763437 336.882465 
L 294.233772 352.174167 
L 303.79095 352.174167 
L 304.526118 344.528316 
L 305.996453 321.590763 
L 306.73162 306.299061 
L 308.937123 271.892732 
L 309.67229 264.246881 
L 310.407458 252.778105 
L 311.142625 245.132254 
L 312.61296 237.486403 
L 313.348128 229.840552 
L 314.083295 229.840552 
L 314.818463 226.017627 
L 315.55363 226.017627 
L 317.023965 233.663477 
L 318.494301 233.663477 
L 319.229468 226.017627 
L 319.964636 245.132254 
L 320.699803 271.892732 
L 321.434971 283.361508 
L 322.170138 298.65321 
L 322.905306 310.121987 
L 323.640473 310.121987 
L 324.375641 329.236614 
L 325.110808 340.70539 
L 325.845976 344.528316 
L 326.581143 344.528316 
L 327.316311 340.70539 
L 328.051478 344.528316 
L 328.786646 344.528316 
L 329.521813 340.70539 
L 331.727316 352.174167 
L 339.814159 352.174167 
L 341.284494 344.528316 
L 343.489996 298.65321 
L 345.695499 264.246881 
L 347.165834 248.955179 
L 348.636169 241.309328 
L 349.371337 233.663477 
L 350.106504 229.840552 
L 350.841672 229.840552 
L 352.312007 222.194701 
L 354.517509 222.194701 
L 355.252677 214.54885 
L 355.987844 218.371776 
L 357.458179 275.715658 
L 358.193347 291.007359 
L 358.928514 298.65321 
L 360.398849 336.882465 
L 361.134017 348.351241 
L 361.869185 352.174167 
L 372.16153 352.174167 
L 372.896697 348.351241 
L 373.631865 336.882465 
L 374.367032 317.767838 
L 376.572535 271.892732 
L 377.307703 264.246881 
L 378.04287 252.778105 
L 378.778038 245.132254 
L 379.513205 241.309328 
L 380.248373 233.663477 
L 381.718708 226.017627 
L 382.453875 226.017627 
L 383.189043 233.663477 
L 384.659378 241.309328 
L 385.394545 237.486403 
L 388.335215 237.486403 
L 389.070383 252.778105 
L 389.80555 275.715658 
L 390.540718 283.361508 
L 391.275886 294.830285 
L 392.011053 313.944912 
L 392.746221 329.236614 
L 394.216556 344.528316 
L 394.951723 348.351241 
L 396.422058 348.351241 
L 397.157226 352.174167 
L 404.508901 352.174167 
L 405.244069 344.528316 
L 405.979236 333.059539 
L 406.714404 317.767838 
L 408.919906 283.361508 
L 409.655074 275.715658 
L 410.390241 264.246881 
L 411.860576 248.955179 
L 412.595744 245.132254 
L 413.330911 237.486403 
L 414.066079 233.663477 
L 414.801246 233.663477 
L 416.271581 226.017627 
L 417.006749 214.54885 
L 417.741916 218.371776 
L 418.477084 214.54885 
L 419.212251 214.54885 
L 419.947419 206.902999 
L 420.682587 229.840552 
L 421.417754 256.60103 
L 422.152922 271.892732 
L 422.888089 294.830285 
L 423.623257 321.590763 
L 424.358424 329.236614 
L 425.093592 340.70539 
L 425.828759 348.351241 
L 426.563927 348.351241 
L 427.299094 352.174167 
L 438.326607 352.174167 
L 439.061775 344.528316 
L 439.796942 329.236614 
L 440.53211 317.767838 
L 442.002445 287.184434 
L 444.207947 252.778105 
L 444.943115 245.132254 
L 446.41345 237.486403 
L 447.148617 229.840552 
L 447.883785 226.017627 
L 448.618952 226.017627 
L 450.089288 241.309328 
L 450.824455 245.132254 
L 451.559623 241.309328 
L 453.029958 241.309328 
L 453.765125 233.663477 
L 454.500293 248.955179 
L 455.23546 260.423956 
L 455.970628 268.069807 
L 456.705795 287.184434 
L 457.440963 310.121987 
L 458.17613 325.413688 
L 459.646465 333.059539 
L 460.381633 348.351241 
L 461.1168 344.528316 
L 461.851968 352.174167 
L 471.409146 352.174167 
L 472.144313 348.351241 
L 472.879481 336.882465 
L 473.614648 321.590763 
L 476.555318 275.715658 
L 477.290486 268.069807 
L 478.025654 256.60103 
L 478.760821 248.955179 
L 479.495989 245.132254 
L 480.231156 237.486403 
L 480.966324 233.663477 
L 481.701491 233.663477 
L 483.171826 226.017627 
L 486.112496 226.017627 
L 486.847664 214.54885 
L 487.582831 233.663477 
L 488.317999 245.132254 
L 489.788334 275.715658 
L 490.523501 287.184434 
L 491.258669 294.830285 
L 491.993836 325.413688 
L 493.464172 348.351241 
L 494.199339 348.351241 
L 494.934507 352.174167 
L 503.756517 352.174167 
L 504.491684 344.528316 
L 505.226852 329.236614 
L 505.962019 294.830285 
L 506.697187 241.309328 
L 506.697187 241.309328 
" style="fill:none;stroke:#1f77b4;stroke-linecap:square;stroke-width:1.5;"/>
   </g>
   <g id="line2d_17">
    <path clip-path="url(#p8eb59178bd)" d="M 106.805752 248.955179 
L 108.276087 191.611297 
L 109.011255 172.49667 
L 109.746422 187.788372 
L 111.216757 268.069807 
L 111.951925 291.007359 
L 112.687093 306.299061 
L 113.42226 317.767838 
L 114.157428 317.767838 
L 116.36293 329.236614 
L 117.098098 329.236614 
L 117.833265 333.059539 
L 118.568433 333.059539 
L 119.3036 329.236614 
L 120.773935 329.236614 
L 121.509103 340.70539 
L 122.24427 321.590763 
L 122.979438 306.299061 
L 124.449773 283.361508 
L 125.18494 275.715658 
L 125.920108 275.715658 
L 126.655275 264.246881 
L 127.390443 260.423956 
L 129.595946 260.423956 
L 130.331113 252.778105 
L 131.066281 248.955179 
L 131.801448 241.309328 
L 132.536616 245.132254 
L 133.271783 229.840552 
L 134.006951 218.371776 
L 134.742118 218.371776 
L 135.477286 214.54885 
L 136.212453 206.902999 
L 136.947621 206.902999 
L 137.682788 203.080074 
L 139.153123 210.725925 
L 139.888291 218.371776 
L 140.623458 294.830285 
L 141.358626 283.361508 
L 142.093794 287.184434 
L 142.828961 298.65321 
L 143.564129 302.476136 
L 144.299296 310.121987 
L 145.034464 313.944912 
L 145.769631 313.944912 
L 147.975134 325.413688 
L 148.710301 325.413688 
L 150.915804 336.882465 
L 151.650971 333.059539 
L 152.386139 336.882465 
L 153.856474 336.882465 
L 154.591641 340.70539 
L 155.326809 340.70539 
L 156.061977 344.528316 
L 156.797144 313.944912 
L 157.532312 298.65321 
L 158.267479 275.715658 
L 159.737814 245.132254 
L 160.472982 226.017627 
L 161.208149 214.54885 
L 161.943317 214.54885 
L 162.678484 210.725925 
L 164.883987 210.725925 
L 166.354322 203.080074 
L 167.824657 203.080074 
L 169.294992 210.725925 
L 170.030159 206.902999 
L 170.765327 214.54885 
L 171.500495 218.371776 
L 172.235662 226.017627 
L 172.97083 271.892732 
L 173.705997 172.49667 
L 174.441165 172.49667 
L 175.176332 191.611297 
L 176.646667 237.486403 
L 177.381835 256.60103 
L 178.85217 287.184434 
L 179.587337 298.65321 
L 181.79284 321.590763 
L 183.998342 333.059539 
L 184.73351 333.059539 
L 185.468678 336.882465 
L 187.67418 336.882465 
L 188.409348 344.528316 
L 189.144515 306.299061 
L 189.879683 279.538583 
L 190.61485 264.246881 
L 191.350018 245.132254 
L 192.085185 241.309328 
L 193.55552 218.371776 
L 194.290688 214.54885 
L 195.025855 203.080074 
L 195.761023 195.434223 
L 196.49619 195.434223 
L 197.231358 199.257148 
L 197.966525 199.257148 
L 198.701693 206.902999 
L 199.43686 210.725925 
L 200.172028 206.902999 
L 200.907196 218.371776 
L 201.642363 222.194701 
L 202.377531 222.194701 
L 203.112698 226.017627 
L 204.583033 226.017627 
L 205.318201 229.840552 
L 206.053368 229.840552 
L 206.788536 256.60103 
L 207.523703 176.319596 
L 208.994038 256.60103 
L 209.729206 298.65321 
L 210.464373 317.767838 
L 211.934708 333.059539 
L 212.669876 336.882465 
L 213.405043 336.882465 
L 214.140211 340.70539 
L 214.875379 336.882465 
L 218.551216 336.882465 
L 219.286384 340.70539 
L 220.021551 336.882465 
L 220.756719 336.882465 
L 221.491886 340.70539 
L 222.227054 336.882465 
L 223.697389 279.538583 
L 225.167724 256.60103 
L 225.902891 248.955179 
L 226.638059 233.663477 
L 227.373226 226.017627 
L 228.108394 222.194701 
L 228.843562 226.017627 
L 230.313897 226.017627 
L 231.049064 222.194701 
L 231.784232 222.194701 
L 233.254567 206.902999 
L 233.989734 206.902999 
L 234.724902 203.080074 
L 235.460069 195.434223 
L 236.195237 191.611297 
L 236.930404 199.257148 
L 237.665572 199.257148 
L 238.400739 203.080074 
L 239.135907 252.778105 
L 239.871074 161.027894 
L 241.341409 226.017627 
L 242.076577 245.132254 
L 242.811744 268.069807 
L 243.546912 287.184434 
L 244.28208 298.65321 
L 246.487582 321.590763 
L 247.957917 329.236614 
L 248.693085 329.236614 
L 249.428252 333.059539 
L 250.16342 333.059539 
L 250.898587 336.882465 
L 251.633755 336.882465 
L 252.368922 333.059539 
L 253.10409 336.882465 
L 253.839257 336.882465 
L 254.574425 340.70539 
L 255.309592 306.299061 
L 257.515095 229.840552 
L 258.250263 218.371776 
L 259.720598 203.080074 
L 260.455765 203.080074 
L 261.190933 210.725925 
L 262.661268 210.725925 
L 263.396435 218.371776 
L 264.131603 218.371776 
L 265.601938 233.663477 
L 266.337105 229.840552 
L 267.072273 222.194701 
L 267.80744 218.371776 
L 268.542608 222.194701 
L 269.277775 218.371776 
L 270.012943 222.194701 
L 270.74811 218.371776 
L 271.483278 222.194701 
L 272.218445 229.840552 
L 272.953613 268.069807 
L 273.688781 245.132254 
L 275.159116 268.069807 
L 275.894283 283.361508 
L 278.834953 313.944912 
L 280.305288 321.590763 
L 281.040456 329.236614 
L 281.775623 329.236614 
L 282.510791 333.059539 
L 283.981126 333.059539 
L 284.716293 336.882465 
L 286.186628 336.882465 
L 287.656964 344.528316 
L 289.862466 310.121987 
L 291.332801 264.246881 
L 292.803136 248.955179 
L 293.538304 245.132254 
L 295.008639 245.132254 
L 295.743806 241.309328 
L 296.478974 229.840552 
L 299.419644 229.840552 
L 300.154811 237.486403 
L 300.889979 229.840552 
L 301.625146 229.840552 
L 302.360314 226.017627 
L 303.095482 226.017627 
L 303.830649 248.955179 
L 304.565817 302.476136 
L 305.300984 279.538583 
L 307.506487 302.476136 
L 308.241654 302.476136 
L 313.387827 329.236614 
L 314.122994 329.236614 
L 314.858162 333.059539 
L 315.593329 333.059539 
L 316.328497 336.882465 
L 317.063665 333.059539 
L 318.534 333.059539 
L 319.269167 344.528316 
L 320.739502 294.830285 
L 322.945005 248.955179 
L 323.680172 248.955179 
L 325.150507 210.725925 
L 325.885675 203.080074 
L 326.620842 206.902999 
L 327.35601 203.080074 
L 328.091177 203.080074 
L 328.826345 210.725925 
L 330.29668 210.725925 
L 331.031848 199.257148 
L 332.502183 191.611297 
L 333.23735 195.434223 
L 335.442853 195.434223 
L 337.648355 183.965447 
L 338.383523 183.965447 
L 339.11869 187.788372 
L 339.853858 187.788372 
L 340.589025 260.423956 
L 341.324193 203.080074 
L 342.05936 218.371776 
L 342.794528 241.309328 
L 344.264863 271.892732 
L 346.470366 306.299061 
L 347.205533 310.121987 
L 347.940701 317.767838 
L 350.881371 333.059539 
L 351.616538 333.059539 
L 352.351706 336.882465 
L 353.086873 336.882465 
L 353.822041 333.059539 
L 354.557208 333.059539 
L 355.292376 336.882465 
L 356.027543 336.882465 
L 356.762711 313.944912 
L 357.497878 298.65321 
L 358.233046 279.538583 
L 358.968213 264.246881 
L 360.438549 210.725925 
L 361.173716 191.611297 
L 361.908884 183.965447 
L 362.644051 180.142521 
L 363.379219 180.142521 
L 364.849554 164.850819 
L 365.584721 164.850819 
L 366.319889 172.49667 
L 367.790224 172.49667 
L 368.525391 168.673745 
L 369.260559 172.49667 
L 369.995726 172.49667 
L 370.730894 168.673745 
L 372.201229 176.319596 
L 372.936396 310.121987 
L 373.671564 260.423956 
L 374.406731 264.246881 
L 375.141899 275.715658 
L 378.082569 306.299061 
L 378.817737 310.121987 
L 379.552904 317.767838 
L 383.228742 336.882465 
L 383.963909 336.882465 
L 384.699077 333.059539 
L 385.434244 336.882465 
L 387.639747 336.882465 
L 388.374914 344.528316 
L 389.110082 317.767838 
L 389.84525 298.65321 
L 390.580417 287.184434 
L 392.050752 256.60103 
L 393.521087 241.309328 
L 394.256255 229.840552 
L 394.991422 222.194701 
L 395.72659 222.194701 
L 396.461757 226.017627 
L 397.196925 222.194701 
L 397.932092 222.194701 
L 398.66726 214.54885 
L 399.402427 222.194701 
L 401.60793 210.725925 
L 403.078265 210.725925 
L 403.813433 206.902999 
L 404.5486 268.069807 
L 405.283768 310.121987 
L 406.018935 252.778105 
L 406.754103 245.132254 
L 407.48927 241.309328 
L 408.224438 241.309328 
L 409.694773 256.60103 
L 411.900275 291.007359 
L 414.105778 313.944912 
L 417.046448 329.236614 
L 419.251951 329.236614 
L 419.987118 336.882465 
L 420.722286 321.590763 
L 421.457453 287.184434 
L 422.927788 248.955179 
L 423.662956 233.663477 
L 424.398123 229.840552 
L 425.868458 199.257148 
L 426.603626 203.080074 
L 428.073961 203.080074 
L 428.809128 210.725925 
L 429.544296 206.902999 
L 430.279463 214.54885 
L 431.749798 214.54885 
L 432.484966 218.371776 
L 433.220134 214.54885 
L 433.955301 206.902999 
L 435.425636 206.902999 
L 436.160804 203.080074 
L 437.631139 203.080074 
L 438.366306 206.902999 
L 439.101474 268.069807 
L 439.836641 222.194701 
L 440.571809 237.486403 
L 441.306976 248.955179 
L 442.042144 264.246881 
L 444.247646 298.65321 
L 444.982814 306.299061 
L 445.717981 310.121987 
L 446.453149 317.767838 
L 449.393819 333.059539 
L 451.599322 333.059539 
L 452.334489 336.882465 
L 453.069657 336.882465 
L 453.804824 344.528316 
L 454.539992 321.590763 
L 455.275159 294.830285 
L 456.010327 283.361508 
L 457.480662 237.486403 
L 458.950997 206.902999 
L 459.686164 203.080074 
L 460.421332 187.788372 
L 461.156499 191.611297 
L 461.891667 187.788372 
L 463.362002 195.434223 
L 464.09717 187.788372 
L 464.832337 183.965447 
L 465.567505 183.965447 
L 466.302672 187.788372 
L 467.03784 176.319596 
L 467.773007 180.142521 
L 469.243342 180.142521 
L 470.713677 187.788372 
L 472.184012 126.621565 
L 472.91918 161.027894 
L 474.389515 199.257148 
L 475.124682 222.194701 
L 475.85985 241.309328 
L 477.330185 271.892732 
L 478.80052 294.830285 
L 479.535688 302.476136 
L 480.270855 313.944912 
L 483.946693 333.059539 
L 484.68186 329.236614 
L 485.417028 329.236614 
L 486.152195 333.059539 
L 486.887363 340.70539 
L 487.62253 325.413688 
L 488.357698 317.767838 
L 489.828033 287.184434 
L 490.5632 275.715658 
L 491.298368 256.60103 
L 492.033536 233.663477 
L 492.768703 218.371776 
L 493.503871 210.725925 
L 494.974206 203.080074 
L 495.709373 203.080074 
L 496.444541 199.257148 
L 497.914876 199.257148 
L 500.120378 210.725925 
L 501.590713 210.725925 
L 502.325881 203.080074 
L 503.061048 199.257148 
L 503.796216 256.60103 
L 504.531383 168.673745 
L 505.266551 183.965447 
L 506.736886 264.246881 
L 506.736886 264.246881 
" style="fill:none;stroke:#ff7f0e;stroke-linecap:square;stroke-width:1.5;"/>
   </g>
   <g id="line2d_18">
    <path clip-path="url(#p8eb59178bd)" d="M 112.629749 317.767838 
L 113.364917 294.830285 
L 114.100085 291.007359 
L 114.835252 283.361508 
L 115.57042 283.361508 
L 116.305587 275.715658 
L 118.51109 264.246881 
L 119.246257 275.715658 
L 120.716592 291.007359 
L 121.45176 283.361508 
L 122.186927 306.299061 
L 122.922095 310.121987 
L 125.862765 340.70539 
L 126.597932 344.528316 
L 128.068267 344.528316 
L 128.803435 348.351241 
L 129.538603 348.351241 
L 130.27377 344.528316 
L 131.744105 352.174167 
L 132.479273 348.351241 
L 133.21444 352.174167 
L 136.890278 352.174167 
L 137.625445 348.351241 
L 138.360613 352.174167 
L 139.830948 352.174167 
L 141.301283 344.528316 
L 142.03645 329.236614 
L 143.506786 306.299061 
L 144.241953 291.007359 
L 144.977121 283.361508 
L 146.447456 260.423956 
L 147.917791 245.132254 
L 150.858461 229.840552 
L 152.328796 229.840552 
L 153.063963 226.017627 
L 153.799131 226.017627 
L 154.534298 222.194701 
L 156.004633 222.194701 
L 157.474968 271.892732 
L 158.210136 283.361508 
L 158.945304 302.476136 
L 159.680471 317.767838 
L 160.415639 340.70539 
L 161.150806 348.351241 
L 161.885974 352.174167 
L 172.913487 352.174167 
L 173.648654 344.528316 
L 174.383822 333.059539 
L 176.589324 287.184434 
L 178.059659 264.246881 
L 180.265162 241.309328 
L 183.940999 222.194701 
L 184.676167 222.194701 
L 185.411334 214.54885 
L 186.146502 183.965447 
L 186.881669 203.080074 
L 187.616837 203.080074 
L 188.352005 195.434223 
L 189.087172 210.725925 
L 190.557507 291.007359 
L 192.027842 336.882465 
L 192.76301 344.528316 
L 193.498177 344.528316 
L 194.233345 352.174167 
L 205.996025 352.174167 
L 206.731193 348.351241 
L 207.46636 336.882465 
L 208.201528 321.590763 
L 208.936695 313.944912 
L 210.40703 306.299061 
L 211.142198 298.65321 
L 213.3477 287.184434 
L 214.082868 287.184434 
L 215.553203 279.538583 
L 216.288371 279.538583 
L 218.493873 268.069807 
L 219.229041 268.069807 
L 219.964208 245.132254 
L 221.434543 245.132254 
L 222.169711 241.309328 
L 222.904878 264.246881 
L 224.375213 294.830285 
L 225.110381 302.476136 
L 225.845548 317.767838 
L 227.315883 340.70539 
L 229.521386 352.174167 
L 230.991721 352.174167 
L 231.726889 348.351241 
L 232.462056 352.174167 
L 239.078564 352.174167 
L 239.813731 344.528316 
L 241.284066 306.299061 
L 242.019234 294.830285 
L 243.489569 264.246881 
L 245.695072 241.309328 
L 249.370909 222.194701 
L 253.781914 222.194701 
L 254.517082 214.54885 
L 255.252249 237.486403 
L 255.987417 256.60103 
L 256.722584 279.538583 
L 257.457752 298.65321 
L 259.663254 333.059539 
L 260.398422 340.70539 
L 261.13359 344.528316 
L 261.868757 352.174167 
L 272.161102 352.174167 
L 272.89627 344.528316 
L 275.83694 283.361508 
L 277.307275 260.423956 
L 279.512778 237.486403 
L 281.71828 226.017627 
L 282.453448 226.017627 
L 283.188615 222.194701 
L 283.923783 226.017627 
L 284.65895 222.194701 
L 286.129285 222.194701 
L 286.864453 218.371776 
L 287.59962 226.017627 
L 288.334788 245.132254 
L 289.069956 248.955179 
L 289.805123 268.069807 
L 290.540291 279.538583 
L 291.275458 306.299061 
L 292.010626 325.413688 
L 292.745793 340.70539 
L 293.480961 344.528316 
L 294.216128 352.174167 
L 303.773306 352.174167 
L 305.243641 344.528316 
L 306.713976 313.944912 
L 308.919479 279.538583 
L 309.654646 271.892732 
L 310.389814 260.423956 
L 311.124981 252.778105 
L 311.860149 248.955179 
L 312.595316 241.309328 
L 314.800819 229.840552 
L 315.535986 229.840552 
L 316.271154 218.371776 
L 317.741489 218.371776 
L 318.476657 214.54885 
L 319.211824 206.902999 
L 319.946992 229.840552 
L 320.682159 248.955179 
L 321.417327 271.892732 
L 322.152494 287.184434 
L 322.887662 298.65321 
L 323.622829 313.944912 
L 324.357997 325.413688 
L 325.093164 340.70539 
L 325.828332 348.351241 
L 328.033834 348.351241 
L 328.769002 344.528316 
L 329.504169 348.351241 
L 330.239337 348.351241 
L 330.974504 352.174167 
L 339.796515 352.174167 
L 340.531682 348.351241 
L 341.26685 336.882465 
L 344.20752 275.715658 
L 344.942687 268.069807 
L 345.677855 256.60103 
L 347.14819 241.309328 
L 350.824028 222.194701 
L 351.559195 222.194701 
L 352.294363 218.371776 
L 353.764698 226.017627 
L 354.499865 226.017627 
L 355.235033 222.194701 
L 355.9702 222.194701 
L 356.705368 248.955179 
L 357.440535 248.955179 
L 358.91087 302.476136 
L 359.646038 321.590763 
L 360.381205 336.882465 
L 361.116373 348.351241 
L 361.85154 352.174167 
L 368.468048 352.174167 
L 369.203216 348.351241 
L 369.938383 352.174167 
L 372.143886 352.174167 
L 372.879053 348.351241 
L 373.614221 336.882465 
L 374.349388 321.590763 
L 375.084556 302.476136 
L 376.554891 271.892732 
L 377.290059 264.246881 
L 378.025226 252.778105 
L 378.760394 245.132254 
L 379.495561 241.309328 
L 380.230729 233.663477 
L 380.965896 229.840552 
L 381.701064 229.840552 
L 382.436231 222.194701 
L 383.171399 210.725925 
L 383.906566 203.080074 
L 386.112069 203.080074 
L 387.582404 195.434223 
L 388.317571 195.434223 
L 389.052739 218.371776 
L 389.787906 248.955179 
L 390.523074 271.892732 
L 391.258242 302.476136 
L 391.993409 317.767838 
L 393.463744 340.70539 
L 394.934079 348.351241 
L 396.404414 348.351241 
L 397.139582 352.174167 
L 404.491257 352.174167 
L 405.961592 336.882465 
L 406.69676 321.590763 
L 409.63743 275.715658 
L 412.5781 245.132254 
L 414.783602 233.663477 
L 415.51877 233.663477 
L 416.253937 229.840552 
L 417.724272 237.486403 
L 418.45944 233.663477 
L 419.194607 233.663477 
L 419.929775 226.017627 
L 420.664943 241.309328 
L 422.870445 298.65321 
L 423.605613 294.830285 
L 424.34078 310.121987 
L 425.075948 333.059539 
L 425.811115 344.528316 
L 427.28145 352.174167 
L 439.044131 352.174167 
L 439.779298 340.70539 
L 440.514466 325.413688 
L 441.249633 313.944912 
L 442.719968 283.361508 
L 443.455136 271.892732 
L 446.395806 241.309328 
L 447.866141 233.663477 
L 448.601308 226.017627 
L 449.336476 210.725925 
L 450.071644 199.257148 
L 450.806811 203.080074 
L 452.277146 203.080074 
L 453.012314 199.257148 
L 453.747481 191.611297 
L 454.482649 210.725925 
L 455.217816 252.778105 
L 456.688151 291.007359 
L 457.423319 306.299061 
L 458.158486 317.767838 
L 458.893654 333.059539 
L 459.628821 340.70539 
L 461.834324 352.174167 
L 470.656334 352.174167 
L 472.126669 344.528316 
L 473.597004 321.590763 
L 474.332172 306.299061 
L 476.537674 271.892732 
L 479.478345 241.309328 
L 482.419015 226.017627 
L 483.154182 226.017627 
L 483.88935 222.194701 
L 486.094852 222.194701 
L 486.83002 214.54885 
L 487.565187 233.663477 
L 488.300355 241.309328 
L 489.035522 260.423956 
L 490.505857 291.007359 
L 491.241025 313.944912 
L 491.976192 321.590763 
L 492.71136 333.059539 
L 494.181695 348.351241 
L 496.387198 348.351241 
L 497.122365 352.174167 
L 503.738873 352.174167 
L 504.47404 344.528316 
L 505.944375 313.944912 
L 506.679543 306.299061 
L 507.41471 310.121987 
L 508.149878 317.767838 
L 508.885046 310.121987 
L 509.620213 306.299061 
L 509.620213 306.299061 
" style="fill:none;stroke:#2ca02c;stroke-linecap:square;stroke-width:1.5;"/>
   </g>
   <g id="line2d_19">
    <path clip-path="url(#p8eb59178bd)" d="M 103.765099 73.100608 
L 104.500267 50.163056 
L 105.970602 50.163056 
L 106.70577 149.559117 
L 107.440937 187.788372 
L 108.176105 210.725925 
L 108.911272 229.840552 
L 109.64644 264.246881 
L 111.116775 313.944912 
L 111.851942 325.413688 
L 113.322277 333.059539 
L 116.262947 333.059539 
L 116.998115 336.882465 
L 117.733282 336.882465 
L 118.46845 344.528316 
L 122.144288 195.434223 
L 122.879455 183.965447 
L 124.34979 168.673745 
L 125.084958 168.673745 
L 125.820125 157.204968 
L 126.555293 161.027894 
L 127.29046 161.027894 
L 128.025628 164.850819 
L 128.760795 164.850819 
L 129.495963 161.027894 
L 130.23113 164.850819 
L 130.966298 172.49667 
L 132.436633 172.49667 
L 133.906968 187.788372 
L 137.582806 206.902999 
L 138.317973 203.080074 
L 139.788308 187.788372 
L 140.523476 134.267416 
L 141.258643 138.090341 
L 141.993811 164.850819 
L 144.934481 241.309328 
L 147.139983 287.184434 
L 147.875151 294.830285 
L 148.610318 306.299061 
L 149.345486 313.944912 
L 150.080654 317.767838 
L 150.815821 325.413688 
L 151.550989 321.590763 
L 153.756491 333.059539 
L 154.491659 333.059539 
L 155.226826 340.70539 
L 155.961994 336.882465 
L 158.167496 279.538583 
L 158.902664 256.60103 
L 159.637831 245.132254 
L 161.108166 206.902999 
L 161.843334 195.434223 
L 164.048836 195.434223 
L 165.519172 203.080074 
L 166.254339 203.080074 
L 166.989507 206.902999 
L 169.195009 195.434223 
L 169.930177 199.257148 
L 170.665344 195.434223 
L 172.135679 180.142521 
L 172.870847 226.017627 
L 173.606014 298.65321 
L 174.341182 268.069807 
L 175.076349 283.361508 
L 175.811517 291.007359 
L 176.546684 294.830285 
L 177.281852 302.476136 
L 178.752187 310.121987 
L 179.487355 317.767838 
L 180.222522 321.590763 
L 180.95769 321.590763 
L 182.428025 329.236614 
L 183.163192 329.236614 
L 184.633527 336.882465 
L 187.574197 336.882465 
L 188.309365 344.528316 
L 189.044532 321.590763 
L 190.514867 271.892732 
L 191.250035 256.60103 
L 191.985202 210.725925 
L 192.72037 199.257148 
L 194.190705 199.257148 
L 195.66104 214.54885 
L 196.396208 210.725925 
L 197.866543 210.725925 
L 199.336878 195.434223 
L 200.072045 199.257148 
L 200.807213 191.611297 
L 202.277548 183.965447 
L 203.012715 183.965447 
L 203.747883 180.142521 
L 205.218218 180.142521 
L 205.953385 176.319596 
L 206.688553 325.413688 
L 207.42372 264.246881 
L 208.158888 271.892732 
L 208.894056 287.184434 
L 209.629223 310.121987 
L 210.364391 325.413688 
L 212.569893 336.882465 
L 215.510563 336.882465 
L 216.245731 333.059539 
L 216.980898 336.882465 
L 220.656736 336.882465 
L 222.127071 344.528316 
L 223.597406 298.65321 
L 224.332574 279.538583 
L 225.067741 264.246881 
L 225.802909 241.309328 
L 226.538076 226.017627 
L 227.273244 206.902999 
L 229.478746 183.965447 
L 230.213914 183.965447 
L 231.684249 191.611297 
L 232.419416 191.611297 
L 233.154584 203.080074 
L 233.889751 203.080074 
L 235.360086 210.725925 
L 236.095254 218.371776 
L 237.565589 210.725925 
L 238.300757 210.725925 
L 239.035924 283.361508 
L 239.771092 279.538583 
L 240.506259 264.246881 
L 244.917264 310.121987 
L 245.652432 313.944912 
L 246.387599 321.590763 
L 247.857934 329.236614 
L 248.593102 329.236614 
L 249.328269 333.059539 
L 250.063437 333.059539 
L 250.798604 336.882465 
L 251.533772 336.882465 
L 252.26894 333.059539 
L 253.004107 333.059539 
L 253.739275 336.882465 
L 254.474442 344.528316 
L 255.20961 329.236614 
L 255.944777 321.590763 
L 256.679945 302.476136 
L 257.415112 287.184434 
L 258.15028 275.715658 
L 259.620615 245.132254 
L 260.355782 233.663477 
L 261.09095 210.725925 
L 261.826117 199.257148 
L 262.561285 199.257148 
L 263.296452 191.611297 
L 264.766787 183.965447 
L 265.501955 176.319596 
L 266.237123 176.319596 
L 266.97229 183.965447 
L 267.707458 187.788372 
L 269.177793 187.788372 
L 269.91296 183.965447 
L 270.648128 187.788372 
L 271.383295 183.965447 
L 272.118463 187.788372 
L 272.85363 252.778105 
L 273.588798 206.902999 
L 274.323965 226.017627 
L 275.059133 248.955179 
L 275.7943 264.246881 
L 276.529468 283.361508 
L 277.264635 294.830285 
L 279.470138 317.767838 
L 282.410808 333.059539 
L 284.616311 333.059539 
L 285.351478 336.882465 
L 286.086646 336.882465 
L 287.556981 344.528316 
L 288.292148 336.882465 
L 289.027316 325.413688 
L 292.703153 191.611297 
L 294.173488 168.673745 
L 294.908656 164.850819 
L 295.643824 168.673745 
L 296.378991 176.319596 
L 298.584494 176.319596 
L 299.319661 180.142521 
L 300.054829 176.319596 
L 301.525164 176.319596 
L 302.995499 183.965447 
L 303.730666 168.673745 
L 304.465834 111.329863 
L 305.201001 153.382043 
L 305.936169 172.49667 
L 306.671336 195.434223 
L 308.876839 252.778105 
L 309.612006 268.069807 
L 310.347174 279.538583 
L 311.082342 294.830285 
L 313.287844 317.767838 
L 314.023012 321.590763 
L 314.758179 321.590763 
L 315.493347 325.413688 
L 316.228514 333.059539 
L 316.963682 325.413688 
L 317.698849 329.236614 
L 318.434017 329.236614 
L 319.169184 340.70539 
L 319.904352 321.590763 
L 320.639519 298.65321 
L 322.109854 268.069807 
L 322.845022 256.60103 
L 323.580189 241.309328 
L 324.315357 229.840552 
L 325.050525 222.194701 
L 326.52086 214.54885 
L 327.256027 218.371776 
L 327.991195 214.54885 
L 329.46153 214.54885 
L 330.196697 210.725925 
L 331.667032 210.725925 
L 332.4022 214.54885 
L 333.872535 214.54885 
L 334.607702 210.725925 
L 335.34287 214.54885 
L 336.078037 214.54885 
L 336.813205 222.194701 
L 337.548372 226.017627 
L 338.28354 222.194701 
L 339.753875 222.194701 
L 340.489043 268.069807 
L 341.22421 229.840552 
L 344.900048 287.184434 
L 347.10555 310.121987 
L 347.840718 313.944912 
L 348.575885 321.590763 
L 350.04622 329.236614 
L 350.781388 329.236614 
L 351.516555 333.059539 
L 352.251723 333.059539 
L 352.98689 336.882465 
L 353.722058 333.059539 
L 354.457226 333.059539 
L 355.192393 336.882465 
L 355.927561 336.882465 
L 356.662728 302.476136 
L 357.397896 291.007359 
L 358.133063 264.246881 
L 358.868231 252.778105 
L 359.603398 237.486403 
L 360.338566 226.017627 
L 363.279236 226.017627 
L 364.014403 237.486403 
L 364.749571 245.132254 
L 366.219906 237.486403 
L 367.690241 237.486403 
L 368.425409 245.132254 
L 369.160576 237.486403 
L 369.895744 241.309328 
L 370.630911 237.486403 
L 371.366079 241.309328 
L 372.101246 229.840552 
L 372.836414 260.423956 
L 373.571581 172.49667 
L 374.306749 206.902999 
L 375.777084 256.60103 
L 376.512251 275.715658 
L 377.247419 291.007359 
L 377.982586 302.476136 
L 378.717754 310.121987 
L 379.452921 313.944912 
L 380.188089 321.590763 
L 382.393591 333.059539 
L 384.599094 333.059539 
L 385.334262 336.882465 
L 386.804597 336.882465 
L 387.539764 340.70539 
L 388.274932 340.70539 
L 389.010099 321.590763 
L 389.745267 291.007359 
L 390.480434 271.892732 
L 391.215602 245.132254 
L 391.950769 226.017627 
L 392.685937 210.725925 
L 393.421104 199.257148 
L 394.156272 191.611297 
L 394.891439 195.434223 
L 396.361774 187.788372 
L 397.83211 187.788372 
L 398.567277 191.611297 
L 399.302445 187.788372 
L 400.037612 187.788372 
L 400.77278 195.434223 
L 401.507947 199.257148 
L 402.243115 195.434223 
L 402.978282 195.434223 
L 403.71345 199.257148 
L 404.448617 248.955179 
L 405.183785 130.44449 
L 405.918952 187.788372 
L 406.65412 226.017627 
L 407.389287 256.60103 
L 408.124455 279.538583 
L 408.859622 294.830285 
L 410.329957 310.121987 
L 411.800292 317.767838 
L 412.53546 325.413688 
L 413.270628 325.413688 
L 414.005795 329.236614 
L 414.740963 329.236614 
L 415.47613 333.059539 
L 416.211298 333.059539 
L 416.946465 336.882465 
L 417.681633 329.236614 
L 418.4168 333.059539 
L 419.151968 333.059539 
L 419.887135 340.70539 
L 420.622303 321.590763 
L 421.35747 310.121987 
L 422.827805 271.892732 
L 423.562973 260.423956 
L 425.033308 229.840552 
L 427.238811 206.902999 
L 427.973978 206.902999 
L 428.709146 199.257148 
L 429.444313 203.080074 
L 430.179481 195.434223 
L 430.914648 199.257148 
L 431.649816 195.434223 
L 432.384983 187.788372 
L 433.120151 191.611297 
L 433.855318 199.257148 
L 434.590486 199.257148 
L 435.325653 203.080074 
L 436.060821 203.080074 
L 436.795988 206.902999 
L 437.531156 203.080074 
L 438.266323 203.080074 
L 439.001491 268.069807 
L 439.736658 214.54885 
L 440.471826 233.663477 
L 441.942161 264.246881 
L 444.147664 298.65321 
L 445.617999 313.944912 
L 450.029004 336.882465 
L 450.764171 333.059539 
L 451.499339 333.059539 
L 452.234506 336.882465 
L 452.969674 336.882465 
L 453.704841 340.70539 
L 454.440009 333.059539 
L 455.175176 306.299061 
L 455.910344 291.007359 
L 456.645512 271.892732 
L 458.115847 248.955179 
L 458.851014 245.132254 
L 460.321349 229.840552 
L 461.056517 229.840552 
L 461.791684 222.194701 
L 463.262019 214.54885 
L 464.732354 222.194701 
L 465.467522 222.194701 
L 466.202689 226.017627 
L 467.673024 226.017627 
L 468.408192 229.840552 
L 469.143359 226.017627 
L 469.878527 226.017627 
L 470.613695 222.194701 
L 471.348862 248.955179 
L 472.08403 298.65321 
L 472.819197 283.361508 
L 473.554365 291.007359 
L 475.759867 302.476136 
L 476.495035 310.121987 
L 477.230202 313.944912 
L 477.96537 313.944912 
L 478.700537 321.590763 
L 479.435705 321.590763 
L 480.90604 329.236614 
L 481.641207 329.236614 
L 482.376375 333.059539 
L 486.052213 333.059539 
L 486.78738 344.528316 
L 487.522548 325.413688 
L 488.257715 310.121987 
L 488.992883 291.007359 
L 490.463218 260.423956 
L 492.66872 226.017627 
L 494.139055 210.725925 
L 495.60939 210.725925 
L 496.344558 214.54885 
L 497.079725 206.902999 
L 497.814893 210.725925 
L 498.55006 203.080074 
L 499.285228 203.080074 
L 500.755563 195.434223 
L 501.490731 203.080074 
L 502.225898 203.080074 
L 502.961066 210.725925 
L 504.431401 306.299061 
L 505.166568 271.892732 
L 505.901736 279.538583 
L 505.901736 279.538583 
" style="fill:none;stroke:#d62728;stroke-linecap:square;stroke-width:1.5;"/>
   </g>
   <g id="patch_3">
    <path d="M 83.472344 352.174167 
L 83.472344 35.0625 
" style="fill:none;stroke:#000000;stroke-linecap:square;stroke-linejoin:miter;stroke-width:0.8;"/>
   </g>
   <g id="patch_4">
    <path d="M 529.912969 352.174167 
L 529.912969 35.0625 
" style="fill:none;stroke:#000000;stroke-linecap:square;stroke-linejoin:miter;stroke-width:0.8;"/>
   </g>
   <g id="patch_5">
    <path d="M 83.472344 352.174167 
L 529.912969 352.174167 
" style="fill:none;stroke:#000000;stroke-linecap:square;stroke-linejoin:miter;stroke-width:0.8;"/>
   </g>
   <g id="patch_6">
    <path d="M 83.472344 35.0625 
L 529.912969 35.0625 
" style="fill:none;stroke:#000000;stroke-linecap:square;stroke-linejoin:miter;stroke-width:0.8;"/>
   </g>
   <g id="legend_1">
    <g id="patch_7">
     <path d="M 554.235 96.775 
L 625.430312 96.775 
Q 627.430312 96.775 627.430312 94.775 
L 627.430312 37.0625 
Q 627.430312 35.0625 625.430312 35.0625 
L 554.235 35.0625 
Q 552.235 35.0625 552.235 37.0625 
L 552.235 94.775 
Q 552.235 96.775 554.235 96.775 
z
" style="fill:#ffffff;opacity:0.8;stroke:#cccccc;stroke-linejoin:miter;"/>
    </g>
    <g id="line2d_20">
     <path d="M 556.235 43.160937 
L 576.235 43.160937 
" style="fill:none;stroke:#1f77b4;stroke-linecap:square;stroke-width:1.5;"/>
    </g>
    <g id="line2d_21"/>
    <g id="text_17">
     <!-- cubic-pi -->
     <defs>
      <path d="M 4.890625 31.390625 
L 31.203125 31.390625 
L 31.203125 23.390625 
L 4.890625 23.390625 
z
" id="DejaVuSans-45"/>
     </defs>
     <g transform="translate(584.235 46.660937)scale(0.1 -0.1)">
      <use xlink:href="#DejaVuSans-99"/>
      <use x="54.980469" xlink:href="#DejaVuSans-117"/>
      <use x="118.359375" xlink:href="#DejaVuSans-98"/>
      <use x="181.835938" xlink:href="#DejaVuSans-105"/>
      <use x="209.619141" xlink:href="#DejaVuSans-99"/>
      <use x="264.599609" xlink:href="#DejaVuSans-45"/>
      <use x="300.683594" xlink:href="#DejaVuSans-112"/>
      <use x="364.160156" xlink:href="#DejaVuSans-105"/>
     </g>
    </g>
    <g id="line2d_22">
     <path d="M 556.235 57.839063 
L 576.235 57.839063 
" style="fill:none;stroke:#ff7f0e;stroke-linecap:square;stroke-width:1.5;"/>
    </g>
    <g id="line2d_23"/>
    <g id="text_18">
     <!-- bbr-pi -->
     <g transform="translate(584.235 61.339063)scale(0.1 -0.1)">
      <use xlink:href="#DejaVuSans-98"/>
      <use x="63.476562" xlink:href="#DejaVuSans-98"/>
      <use x="126.953125" xlink:href="#DejaVuSans-114"/>
      <use x="167.972656" xlink:href="#DejaVuSans-45"/>
      <use x="204.056641" xlink:href="#DejaVuSans-112"/>
      <use x="267.533203" xlink:href="#DejaVuSans-105"/>
     </g>
    </g>
    <g id="line2d_24">
     <path d="M 556.235 72.517187 
L 576.235 72.517187 
" style="fill:none;stroke:#2ca02c;stroke-linecap:square;stroke-width:1.5;"/>
    </g>
    <g id="line2d_25"/>
    <g id="text_19">
     <!-- cubic-pi -->
     <g transform="translate(584.235 76.017187)scale(0.1 -0.1)">
      <use xlink:href="#DejaVuSans-99"/>
      <use x="54.980469" xlink:href="#DejaVuSans-117"/>
      <use x="118.359375" xlink:href="#DejaVuSans-98"/>
      <use x="181.835938" xlink:href="#DejaVuSans-105"/>
      <use x="209.619141" xlink:href="#DejaVuSans-99"/>
      <use x="264.599609" xlink:href="#DejaVuSans-45"/>
      <use x="300.683594" xlink:href="#DejaVuSans-112"/>
      <use x="364.160156" xlink:href="#DejaVuSans-105"/>
     </g>
    </g>
    <g id="line2d_26">
     <path d="M 556.235 87.195312 
L 576.235 87.195312 
" style="fill:none;stroke:#d62728;stroke-linecap:square;stroke-width:1.5;"/>
    </g>
    <g id="line2d_27"/>
    <g id="text_20">
     <!-- bbr-pi -->
     <g transform="translate(584.235 90.695312)scale(0.1 -0.1)">
      <use xlink:href="#DejaVuSans-98"/>
      <use x="63.476562" xlink:href="#DejaVuSans-98"/>
      <use x="126.953125" xlink:href="#DejaVuSans-114"/>
      <use x="167.972656" xlink:href="#DejaVuSans-45"/>
      <use x="204.056641" xlink:href="#DejaVuSans-112"/>
      <use x="267.533203" xlink:href="#DejaVuSans-105"/>
     </g>
    </g>
   </g>
  </g>
  <g id="text_21">
   <!-- result throughput -->
   <defs>
    <path d="M 9.421875 75.984375 
L 18.40625 75.984375 
L 18.40625 0 
L 9.421875 0 
z
" id="DejaVuSans-108"/>
   </defs>
   <g transform="translate(289.320938 17.038125)scale(0.12 -0.12)">
    <use xlink:href="#DejaVuSans-114"/>
    <use x="41.082031" xlink:href="#DejaVuSans-101"/>
    <use x="102.605469" xlink:href="#DejaVuSans-115"/>
    <use x="154.705078" xlink:href="#DejaVuSans-117"/>
    <use x="218.083984" xlink:href="#DejaVuSans-108"/>
    <use x="245.867188" xlink:href="#DejaVuSans-116"/>
    <use x="285.076172" xlink:href="#DejaVuSans-32"/>
    <use x="316.863281" xlink:href="#DejaVuSans-116"/>
    <use x="356.072266" xlink:href="#DejaVuSans-104"/>
    <use x="419.451172" xlink:href="#DejaVuSans-114"/>
    <use x="460.533203" xlink:href="#DejaVuSans-111"/>
    <use x="521.714844" xlink:href="#DejaVuSans-117"/>
    <use x="585.09375" xlink:href="#DejaVuSans-103"/>
    <use x="648.570312" xlink:href="#DejaVuSans-104"/>
    <use x="711.949219" xlink:href="#DejaVuSans-112"/>
    <use x="775.425781" xlink:href="#DejaVuSans-117"/>
    <use x="838.804688" xlink:href="#DejaVuSans-116"/>
   </g>
  </g>
 </g>
 <defs>
  <clipPath id="p8eb59178bd">
   <rect height="317.111667" width="446.440625" x="83.472344" y="35.0625"/>
  </clipPath>
 </defs>
</svg>
