<?xml version="1.0" encoding="utf-8" standalone="no"?>
<!DOCTYPE svg PUBLIC "-//W3C//DTD SVG 1.1//EN"
  "http://www.w3.org/Graphics/SVG/1.1/DTD/svg11.dtd">
<!-- Created with matplotlib (https://matplotlib.org/) -->
<svg height="396pt" version="1.1" viewBox="0 0 684 396" width="684pt" xmlns="http://www.w3.org/2000/svg" xmlns:xlink="http://www.w3.org/1999/xlink">
 <defs>
  <style type="text/css">
*{stroke-linecap:butt;stroke-linejoin:round;}
  </style>
 </defs>
 <g id="figure_1">
  <g id="patch_1">
   <path d="M 0 396 
L 684 396 
L 684 0 
L 0 0 
z
" style="fill:#ffffff;"/>
  </g>
  <g id="axes_1">
   <g id="patch_2">
    <path d="M 66.158594 352.174167 
L 516.019219 352.174167 
L 516.019219 35.0625 
L 66.158594 35.0625 
z
" style="fill:#ffffff;"/>
   </g>
   <g id="matplotlib.axis_1">
    <g id="xtick_1">
     <g id="line2d_1">
      <defs>
       <path d="M 0 0 
L 0 3.5 
" id="me7b00ac5a2" style="stroke:#000000;stroke-width:0.8;"/>
      </defs>
      <g>
       <use style="stroke:#000000;stroke-width:0.8;" x="92.301615" xlink:href="#me7b00ac5a2" y="352.174167"/>
      </g>
     </g>
     <g id="text_1">
      <!-- 0 -->
      <defs>
       <path d="M 31.78125 66.40625 
Q 24.171875 66.40625 20.328125 58.90625 
Q 16.5 51.421875 16.5 36.375 
Q 16.5 21.390625 20.328125 13.890625 
Q 24.171875 6.390625 31.78125 6.390625 
Q 39.453125 6.390625 43.28125 13.890625 
Q 47.125 21.390625 47.125 36.375 
Q 47.125 51.421875 43.28125 58.90625 
Q 39.453125 66.40625 31.78125 66.40625 
z
M 31.78125 74.21875 
Q 44.046875 74.21875 50.515625 64.515625 
Q 56.984375 54.828125 56.984375 36.375 
Q 56.984375 17.96875 50.515625 8.265625 
Q 44.046875 -1.421875 31.78125 -1.421875 
Q 19.53125 -1.421875 13.0625 8.265625 
Q 6.59375 17.96875 6.59375 36.375 
Q 6.59375 54.828125 13.0625 64.515625 
Q 19.53125 74.21875 31.78125 74.21875 
z
" id="DejaVuSans-48"/>
      </defs>
      <g transform="translate(89.120365 366.772604)scale(0.1 -0.1)">
       <use xlink:href="#DejaVuSans-48"/>
      </g>
     </g>
    </g>
    <g id="xtick_2">
     <g id="line2d_2">
      <g>
       <use style="stroke:#000000;stroke-width:0.8;" x="164.062957" xlink:href="#me7b00ac5a2" y="352.174167"/>
      </g>
     </g>
     <g id="text_2">
      <!-- 50 -->
      <defs>
       <path d="M 10.796875 72.90625 
L 49.515625 72.90625 
L 49.515625 64.59375 
L 19.828125 64.59375 
L 19.828125 46.734375 
Q 21.96875 47.46875 24.109375 47.828125 
Q 26.265625 48.1875 28.421875 48.1875 
Q 40.625 48.1875 47.75 41.5 
Q 54.890625 34.8125 54.890625 23.390625 
Q 54.890625 11.625 47.5625 5.09375 
Q 40.234375 -1.421875 26.90625 -1.421875 
Q 22.3125 -1.421875 17.546875 -0.640625 
Q 12.796875 0.140625 7.71875 1.703125 
L 7.71875 11.625 
Q 12.109375 9.234375 16.796875 8.0625 
Q 21.484375 6.890625 26.703125 6.890625 
Q 35.15625 6.890625 40.078125 11.328125 
Q 45.015625 15.765625 45.015625 23.390625 
Q 45.015625 31 40.078125 35.4375 
Q 35.15625 39.890625 26.703125 39.890625 
Q 22.75 39.890625 18.8125 39.015625 
Q 14.890625 38.140625 10.796875 36.28125 
z
" id="DejaVuSans-53"/>
      </defs>
      <g transform="translate(157.700457 366.772604)scale(0.1 -0.1)">
       <use xlink:href="#DejaVuSans-53"/>
       <use x="63.623047" xlink:href="#DejaVuSans-48"/>
      </g>
     </g>
    </g>
    <g id="xtick_3">
     <g id="line2d_3">
      <g>
       <use style="stroke:#000000;stroke-width:0.8;" x="235.824299" xlink:href="#me7b00ac5a2" y="352.174167"/>
      </g>
     </g>
     <g id="text_3">
      <!-- 100 -->
      <defs>
       <path d="M 12.40625 8.296875 
L 28.515625 8.296875 
L 28.515625 63.921875 
L 10.984375 60.40625 
L 10.984375 69.390625 
L 28.421875 72.90625 
L 38.28125 72.90625 
L 38.28125 8.296875 
L 54.390625 8.296875 
L 54.390625 0 
L 12.40625 0 
z
" id="DejaVuSans-49"/>
      </defs>
      <g transform="translate(226.280549 366.772604)scale(0.1 -0.1)">
       <use xlink:href="#DejaVuSans-49"/>
       <use x="63.623047" xlink:href="#DejaVuSans-48"/>
       <use x="127.246094" xlink:href="#DejaVuSans-48"/>
      </g>
     </g>
    </g>
    <g id="xtick_4">
     <g id="line2d_4">
      <g>
       <use style="stroke:#000000;stroke-width:0.8;" x="307.585642" xlink:href="#me7b00ac5a2" y="352.174167"/>
      </g>
     </g>
     <g id="text_4">
      <!-- 150 -->
      <g transform="translate(298.041892 366.772604)scale(0.1 -0.1)">
       <use xlink:href="#DejaVuSans-49"/>
       <use x="63.623047" xlink:href="#DejaVuSans-53"/>
       <use x="127.246094" xlink:href="#DejaVuSans-48"/>
      </g>
     </g>
    </g>
    <g id="xtick_5">
     <g id="line2d_5">
      <g>
       <use style="stroke:#000000;stroke-width:0.8;" x="379.346984" xlink:href="#me7b00ac5a2" y="352.174167"/>
      </g>
     </g>
     <g id="text_5">
      <!-- 200 -->
      <defs>
       <path d="M 19.1875 8.296875 
L 53.609375 8.296875 
L 53.609375 0 
L 7.328125 0 
L 7.328125 8.296875 
Q 12.9375 14.109375 22.625 23.890625 
Q 32.328125 33.6875 34.8125 36.53125 
Q 39.546875 41.84375 41.421875 45.53125 
Q 43.3125 49.21875 43.3125 52.78125 
Q 43.3125 58.59375 39.234375 62.25 
Q 35.15625 65.921875 28.609375 65.921875 
Q 23.96875 65.921875 18.8125 64.3125 
Q 13.671875 62.703125 7.8125 59.421875 
L 7.8125 69.390625 
Q 13.765625 71.78125 18.9375 73 
Q 24.125 74.21875 28.421875 74.21875 
Q 39.75 74.21875 46.484375 68.546875 
Q 53.21875 62.890625 53.21875 53.421875 
Q 53.21875 48.921875 51.53125 44.890625 
Q 49.859375 40.875 45.40625 35.40625 
Q 44.1875 33.984375 37.640625 27.21875 
Q 31.109375 20.453125 19.1875 8.296875 
z
" id="DejaVuSans-50"/>
      </defs>
      <g transform="translate(369.803234 366.772604)scale(0.1 -0.1)">
       <use xlink:href="#DejaVuSans-50"/>
       <use x="63.623047" xlink:href="#DejaVuSans-48"/>
       <use x="127.246094" xlink:href="#DejaVuSans-48"/>
      </g>
     </g>
    </g>
    <g id="xtick_6">
     <g id="line2d_6">
      <g>
       <use style="stroke:#000000;stroke-width:0.8;" x="451.108326" xlink:href="#me7b00ac5a2" y="352.174167"/>
      </g>
     </g>
     <g id="text_6">
      <!-- 250 -->
      <g transform="translate(441.564576 366.772604)scale(0.1 -0.1)">
       <use xlink:href="#DejaVuSans-50"/>
       <use x="63.623047" xlink:href="#DejaVuSans-53"/>
       <use x="127.246094" xlink:href="#DejaVuSans-48"/>
      </g>
     </g>
    </g>
   </g>
   <g id="matplotlib.axis_2">
    <g id="ytick_1">
     <g id="line2d_7">
      <defs>
       <path d="M 0 0 
L -3.5 0 
" id="m25a2e3f5a1" style="stroke:#000000;stroke-width:0.8;"/>
      </defs>
      <g>
       <use style="stroke:#000000;stroke-width:0.8;" x="66.158594" xlink:href="#m25a2e3f5a1" y="352.174167"/>
      </g>
     </g>
     <g id="text_7">
      <!-- 0 -->
      <g transform="translate(52.796094 355.973385)scale(0.1 -0.1)">
       <use xlink:href="#DejaVuSans-48"/>
      </g>
     </g>
    </g>
    <g id="ytick_2">
     <g id="line2d_8">
      <g>
       <use style="stroke:#000000;stroke-width:0.8;" x="66.158594" xlink:href="#m25a2e3f5a1" y="313.360146"/>
      </g>
     </g>
     <g id="text_8">
      <!-- 10 -->
      <g transform="translate(46.433594 317.159365)scale(0.1 -0.1)">
       <use xlink:href="#DejaVuSans-49"/>
       <use x="63.623047" xlink:href="#DejaVuSans-48"/>
      </g>
     </g>
    </g>
    <g id="ytick_3">
     <g id="line2d_9">
      <g>
       <use style="stroke:#000000;stroke-width:0.8;" x="66.158594" xlink:href="#m25a2e3f5a1" y="274.546126"/>
      </g>
     </g>
     <g id="text_9">
      <!-- 20 -->
      <g transform="translate(46.433594 278.345344)scale(0.1 -0.1)">
       <use xlink:href="#DejaVuSans-50"/>
       <use x="63.623047" xlink:href="#DejaVuSans-48"/>
      </g>
     </g>
    </g>
    <g id="ytick_4">
     <g id="line2d_10">
      <g>
       <use style="stroke:#000000;stroke-width:0.8;" x="66.158594" xlink:href="#m25a2e3f5a1" y="235.732105"/>
      </g>
     </g>
     <g id="text_10">
      <!-- 30 -->
      <defs>
       <path d="M 40.578125 39.3125 
Q 47.65625 37.796875 51.625 33 
Q 55.609375 28.21875 55.609375 21.1875 
Q 55.609375 10.40625 48.1875 4.484375 
Q 40.765625 -1.421875 27.09375 -1.421875 
Q 22.515625 -1.421875 17.65625 -0.515625 
Q 12.796875 0.390625 7.625 2.203125 
L 7.625 11.71875 
Q 11.71875 9.328125 16.59375 8.109375 
Q 21.484375 6.890625 26.8125 6.890625 
Q 36.078125 6.890625 40.9375 10.546875 
Q 45.796875 14.203125 45.796875 21.1875 
Q 45.796875 27.640625 41.28125 31.265625 
Q 36.765625 34.90625 28.71875 34.90625 
L 20.21875 34.90625 
L 20.21875 43.015625 
L 29.109375 43.015625 
Q 36.375 43.015625 40.234375 45.921875 
Q 44.09375 48.828125 44.09375 54.296875 
Q 44.09375 59.90625 40.109375 62.90625 
Q 36.140625 65.921875 28.71875 65.921875 
Q 24.65625 65.921875 20.015625 65.03125 
Q 15.375 64.15625 9.8125 62.3125 
L 9.8125 71.09375 
Q 15.4375 72.65625 20.34375 73.4375 
Q 25.25 74.21875 29.59375 74.21875 
Q 40.828125 74.21875 47.359375 69.109375 
Q 53.90625 64.015625 53.90625 55.328125 
Q 53.90625 49.265625 50.4375 45.09375 
Q 46.96875 40.921875 40.578125 39.3125 
z
" id="DejaVuSans-51"/>
      </defs>
      <g transform="translate(46.433594 239.531324)scale(0.1 -0.1)">
       <use xlink:href="#DejaVuSans-51"/>
       <use x="63.623047" xlink:href="#DejaVuSans-48"/>
      </g>
     </g>
    </g>
    <g id="ytick_5">
     <g id="line2d_11">
      <g>
       <use style="stroke:#000000;stroke-width:0.8;" x="66.158594" xlink:href="#m25a2e3f5a1" y="196.918084"/>
      </g>
     </g>
     <g id="text_11">
      <!-- 40 -->
      <defs>
       <path d="M 37.796875 64.3125 
L 12.890625 25.390625 
L 37.796875 25.390625 
z
M 35.203125 72.90625 
L 47.609375 72.90625 
L 47.609375 25.390625 
L 58.015625 25.390625 
L 58.015625 17.1875 
L 47.609375 17.1875 
L 47.609375 0 
L 37.796875 0 
L 37.796875 17.1875 
L 4.890625 17.1875 
L 4.890625 26.703125 
z
" id="DejaVuSans-52"/>
      </defs>
      <g transform="translate(46.433594 200.717303)scale(0.1 -0.1)">
       <use xlink:href="#DejaVuSans-52"/>
       <use x="63.623047" xlink:href="#DejaVuSans-48"/>
      </g>
     </g>
    </g>
    <g id="ytick_6">
     <g id="line2d_12">
      <g>
       <use style="stroke:#000000;stroke-width:0.8;" x="66.158594" xlink:href="#m25a2e3f5a1" y="158.104064"/>
      </g>
     </g>
     <g id="text_12">
      <!-- 50 -->
      <g transform="translate(46.433594 161.903283)scale(0.1 -0.1)">
       <use xlink:href="#DejaVuSans-53"/>
       <use x="63.623047" xlink:href="#DejaVuSans-48"/>
      </g>
     </g>
    </g>
    <g id="ytick_7">
     <g id="line2d_13">
      <g>
       <use style="stroke:#000000;stroke-width:0.8;" x="66.158594" xlink:href="#m25a2e3f5a1" y="119.290043"/>
      </g>
     </g>
     <g id="text_13">
      <!-- 60 -->
      <defs>
       <path d="M 33.015625 40.375 
Q 26.375 40.375 22.484375 35.828125 
Q 18.609375 31.296875 18.609375 23.390625 
Q 18.609375 15.53125 22.484375 10.953125 
Q 26.375 6.390625 33.015625 6.390625 
Q 39.65625 6.390625 43.53125 10.953125 
Q 47.40625 15.53125 47.40625 23.390625 
Q 47.40625 31.296875 43.53125 35.828125 
Q 39.65625 40.375 33.015625 40.375 
z
M 52.59375 71.296875 
L 52.59375 62.3125 
Q 48.875 64.0625 45.09375 64.984375 
Q 41.3125 65.921875 37.59375 65.921875 
Q 27.828125 65.921875 22.671875 59.328125 
Q 17.53125 52.734375 16.796875 39.40625 
Q 19.671875 43.65625 24.015625 45.921875 
Q 28.375 48.1875 33.59375 48.1875 
Q 44.578125 48.1875 50.953125 41.515625 
Q 57.328125 34.859375 57.328125 23.390625 
Q 57.328125 12.15625 50.6875 5.359375 
Q 44.046875 -1.421875 33.015625 -1.421875 
Q 20.359375 -1.421875 13.671875 8.265625 
Q 6.984375 17.96875 6.984375 36.375 
Q 6.984375 53.65625 15.1875 63.9375 
Q 23.390625 74.21875 37.203125 74.21875 
Q 40.921875 74.21875 44.703125 73.484375 
Q 48.484375 72.75 52.59375 71.296875 
z
" id="DejaVuSans-54"/>
      </defs>
      <g transform="translate(46.433594 123.089262)scale(0.1 -0.1)">
       <use xlink:href="#DejaVuSans-54"/>
       <use x="63.623047" xlink:href="#DejaVuSans-48"/>
      </g>
     </g>
    </g>
    <g id="ytick_8">
     <g id="line2d_14">
      <g>
       <use style="stroke:#000000;stroke-width:0.8;" x="66.158594" xlink:href="#m25a2e3f5a1" y="80.476023"/>
      </g>
     </g>
     <g id="text_14">
      <!-- 70 -->
      <defs>
       <path d="M 8.203125 72.90625 
L 55.078125 72.90625 
L 55.078125 68.703125 
L 28.609375 0 
L 18.3125 0 
L 43.21875 64.59375 
L 8.203125 64.59375 
z
" id="DejaVuSans-55"/>
      </defs>
      <g transform="translate(46.433594 84.275241)scale(0.1 -0.1)">
       <use xlink:href="#DejaVuSans-55"/>
       <use x="63.623047" xlink:href="#DejaVuSans-48"/>
      </g>
     </g>
    </g>
    <g id="ytick_9">
     <g id="line2d_15">
      <g>
       <use style="stroke:#000000;stroke-width:0.8;" x="66.158594" xlink:href="#m25a2e3f5a1" y="41.662002"/>
      </g>
     </g>
     <g id="text_15">
      <!-- 80 -->
      <defs>
       <path d="M 31.78125 34.625 
Q 24.75 34.625 20.71875 30.859375 
Q 16.703125 27.09375 16.703125 20.515625 
Q 16.703125 13.921875 20.71875 10.15625 
Q 24.75 6.390625 31.78125 6.390625 
Q 38.8125 6.390625 42.859375 10.171875 
Q 46.921875 13.96875 46.921875 20.515625 
Q 46.921875 27.09375 42.890625 30.859375 
Q 38.875 34.625 31.78125 34.625 
z
M 21.921875 38.8125 
Q 15.578125 40.375 12.03125 44.71875 
Q 8.5 49.078125 8.5 55.328125 
Q 8.5 64.0625 14.71875 69.140625 
Q 20.953125 74.21875 31.78125 74.21875 
Q 42.671875 74.21875 48.875 69.140625 
Q 55.078125 64.0625 55.078125 55.328125 
Q 55.078125 49.078125 51.53125 44.71875 
Q 48 40.375 41.703125 38.8125 
Q 48.828125 37.15625 52.796875 32.3125 
Q 56.78125 27.484375 56.78125 20.515625 
Q 56.78125 9.90625 50.3125 4.234375 
Q 43.84375 -1.421875 31.78125 -1.421875 
Q 19.734375 -1.421875 13.25 4.234375 
Q 6.78125 9.90625 6.78125 20.515625 
Q 6.78125 27.484375 10.78125 32.3125 
Q 14.796875 37.15625 21.921875 38.8125 
z
M 18.3125 54.390625 
Q 18.3125 48.734375 21.84375 45.5625 
Q 25.390625 42.390625 31.78125 42.390625 
Q 38.140625 42.390625 41.71875 45.5625 
Q 45.3125 48.734375 45.3125 54.390625 
Q 45.3125 60.0625 41.71875 63.234375 
Q 38.140625 66.40625 31.78125 66.40625 
Q 25.390625 66.40625 21.84375 63.234375 
Q 18.3125 60.0625 18.3125 54.390625 
z
" id="DejaVuSans-56"/>
      </defs>
      <g transform="translate(46.433594 45.461221)scale(0.1 -0.1)">
       <use xlink:href="#DejaVuSans-56"/>
       <use x="63.623047" xlink:href="#DejaVuSans-48"/>
      </g>
     </g>
    </g>
    <g id="text_16">
     <!-- droprate -->
     <defs>
      <path d="M 45.40625 46.390625 
L 45.40625 75.984375 
L 54.390625 75.984375 
L 54.390625 0 
L 45.40625 0 
L 45.40625 8.203125 
Q 42.578125 3.328125 38.25 0.953125 
Q 33.9375 -1.421875 27.875 -1.421875 
Q 17.96875 -1.421875 11.734375 6.484375 
Q 5.515625 14.40625 5.515625 27.296875 
Q 5.515625 40.1875 11.734375 48.09375 
Q 17.96875 56 27.875 56 
Q 33.9375 56 38.25 53.625 
Q 42.578125 51.265625 45.40625 46.390625 
z
M 14.796875 27.296875 
Q 14.796875 17.390625 18.875 11.75 
Q 22.953125 6.109375 30.078125 6.109375 
Q 37.203125 6.109375 41.296875 11.75 
Q 45.40625 17.390625 45.40625 27.296875 
Q 45.40625 37.203125 41.296875 42.84375 
Q 37.203125 48.484375 30.078125 48.484375 
Q 22.953125 48.484375 18.875 42.84375 
Q 14.796875 37.203125 14.796875 27.296875 
z
" id="DejaVuSans-100"/>
      <path d="M 41.109375 46.296875 
Q 39.59375 47.171875 37.8125 47.578125 
Q 36.03125 48 33.890625 48 
Q 26.265625 48 22.1875 43.046875 
Q 18.109375 38.09375 18.109375 28.8125 
L 18.109375 0 
L 9.078125 0 
L 9.078125 54.6875 
L 18.109375 54.6875 
L 18.109375 46.1875 
Q 20.953125 51.171875 25.484375 53.578125 
Q 30.03125 56 36.53125 56 
Q 37.453125 56 38.578125 55.875 
Q 39.703125 55.765625 41.0625 55.515625 
z
" id="DejaVuSans-114"/>
      <path d="M 30.609375 48.390625 
Q 23.390625 48.390625 19.1875 42.75 
Q 14.984375 37.109375 14.984375 27.296875 
Q 14.984375 17.484375 19.15625 11.84375 
Q 23.34375 6.203125 30.609375 6.203125 
Q 37.796875 6.203125 41.984375 11.859375 
Q 46.1875 17.53125 46.1875 27.296875 
Q 46.1875 37.015625 41.984375 42.703125 
Q 37.796875 48.390625 30.609375 48.390625 
z
M 30.609375 56 
Q 42.328125 56 49.015625 48.375 
Q 55.71875 40.765625 55.71875 27.296875 
Q 55.71875 13.875 49.015625 6.21875 
Q 42.328125 -1.421875 30.609375 -1.421875 
Q 18.84375 -1.421875 12.171875 6.21875 
Q 5.515625 13.875 5.515625 27.296875 
Q 5.515625 40.765625 12.171875 48.375 
Q 18.84375 56 30.609375 56 
z
" id="DejaVuSans-111"/>
      <path d="M 18.109375 8.203125 
L 18.109375 -20.796875 
L 9.078125 -20.796875 
L 9.078125 54.6875 
L 18.109375 54.6875 
L 18.109375 46.390625 
Q 20.953125 51.265625 25.265625 53.625 
Q 29.59375 56 35.59375 56 
Q 45.5625 56 51.78125 48.09375 
Q 58.015625 40.1875 58.015625 27.296875 
Q 58.015625 14.40625 51.78125 6.484375 
Q 45.5625 -1.421875 35.59375 -1.421875 
Q 29.59375 -1.421875 25.265625 0.953125 
Q 20.953125 3.328125 18.109375 8.203125 
z
M 48.6875 27.296875 
Q 48.6875 37.203125 44.609375 42.84375 
Q 40.53125 48.484375 33.40625 48.484375 
Q 26.265625 48.484375 22.1875 42.84375 
Q 18.109375 37.203125 18.109375 27.296875 
Q 18.109375 17.390625 22.1875 11.75 
Q 26.265625 6.109375 33.40625 6.109375 
Q 40.53125 6.109375 44.609375 11.75 
Q 48.6875 17.390625 48.6875 27.296875 
z
" id="DejaVuSans-112"/>
      <path d="M 34.28125 27.484375 
Q 23.390625 27.484375 19.1875 25 
Q 14.984375 22.515625 14.984375 16.5 
Q 14.984375 11.71875 18.140625 8.90625 
Q 21.296875 6.109375 26.703125 6.109375 
Q 34.1875 6.109375 38.703125 11.40625 
Q 43.21875 16.703125 43.21875 25.484375 
L 43.21875 27.484375 
z
M 52.203125 31.203125 
L 52.203125 0 
L 43.21875 0 
L 43.21875 8.296875 
Q 40.140625 3.328125 35.546875 0.953125 
Q 30.953125 -1.421875 24.3125 -1.421875 
Q 15.921875 -1.421875 10.953125 3.296875 
Q 6 8.015625 6 15.921875 
Q 6 25.140625 12.171875 29.828125 
Q 18.359375 34.515625 30.609375 34.515625 
L 43.21875 34.515625 
L 43.21875 35.40625 
Q 43.21875 41.609375 39.140625 45 
Q 35.0625 48.390625 27.6875 48.390625 
Q 23 48.390625 18.546875 47.265625 
Q 14.109375 46.140625 10.015625 43.890625 
L 10.015625 52.203125 
Q 14.9375 54.109375 19.578125 55.046875 
Q 24.21875 56 28.609375 56 
Q 40.484375 56 46.34375 49.84375 
Q 52.203125 43.703125 52.203125 31.203125 
z
" id="DejaVuSans-97"/>
      <path d="M 18.3125 70.21875 
L 18.3125 54.6875 
L 36.8125 54.6875 
L 36.8125 47.703125 
L 18.3125 47.703125 
L 18.3125 18.015625 
Q 18.3125 11.328125 20.140625 9.421875 
Q 21.96875 7.515625 27.59375 7.515625 
L 36.8125 7.515625 
L 36.8125 0 
L 27.59375 0 
Q 17.1875 0 13.234375 3.875 
Q 9.28125 7.765625 9.28125 18.015625 
L 9.28125 47.703125 
L 2.6875 47.703125 
L 2.6875 54.6875 
L 9.28125 54.6875 
L 9.28125 70.21875 
z
" id="DejaVuSans-116"/>
      <path d="M 56.203125 29.59375 
L 56.203125 25.203125 
L 14.890625 25.203125 
Q 15.484375 15.921875 20.484375 11.0625 
Q 25.484375 6.203125 34.421875 6.203125 
Q 39.59375 6.203125 44.453125 7.46875 
Q 49.3125 8.734375 54.109375 11.28125 
L 54.109375 2.78125 
Q 49.265625 0.734375 44.1875 -0.34375 
Q 39.109375 -1.421875 33.890625 -1.421875 
Q 20.796875 -1.421875 13.15625 6.1875 
Q 5.515625 13.8125 5.515625 26.8125 
Q 5.515625 40.234375 12.765625 48.109375 
Q 20.015625 56 32.328125 56 
Q 43.359375 56 49.78125 48.890625 
Q 56.203125 41.796875 56.203125 29.59375 
z
M 47.21875 32.234375 
Q 47.125 39.59375 43.09375 43.984375 
Q 39.0625 48.390625 32.421875 48.390625 
Q 24.90625 48.390625 20.390625 44.140625 
Q 15.875 39.890625 15.1875 32.171875 
z
" id="DejaVuSans-101"/>
     </defs>
     <g transform="translate(40.353906 215.236302)rotate(-90)scale(0.1 -0.1)">
      <use xlink:href="#DejaVuSans-100"/>
      <use x="63.476562" xlink:href="#DejaVuSans-114"/>
      <use x="104.558594" xlink:href="#DejaVuSans-111"/>
      <use x="165.740234" xlink:href="#DejaVuSans-112"/>
      <use x="229.216797" xlink:href="#DejaVuSans-114"/>
      <use x="270.330078" xlink:href="#DejaVuSans-97"/>
      <use x="331.609375" xlink:href="#DejaVuSans-116"/>
      <use x="370.818359" xlink:href="#DejaVuSans-101"/>
     </g>
    </g>
   </g>
   <g id="line2d_16">
    <path clip-path="url(#p15b5012fba)" d="M 86.606804 352.174167 
L 91.853126 352.174167 
L 92.005495 192.719983 
L 92.308333 352.174167 
L 92.459508 348.456349 
L 92.611132 352.174167 
L 92.762171 351.429176 
L 92.913746 352.174167 
L 94.58163 352.174167 
L 94.734124 308.268573 
L 94.886201 331.123746 
L 95.03837 257.631928 
L 95.189354 294.120598 
L 95.340111 293.579924 
L 95.492936 330.447153 
L 95.645012 316.317405 
L 95.796754 338.853816 
L 95.948858 335.507841 
L 96.100179 352.174167 
L 96.25184 333.602865 
L 96.403141 352.174167 
L 96.705284 352.174167 
L 96.856487 336.202847 
L 97.007799 352.174167 
L 97.158783 349.199912 
L 97.30988 352.174167 
L 97.461113 336.54436 
L 97.612884 333.321642 
L 97.764483 311.766065 
L 97.915501 254.395552 
L 98.066184 50.163056 
L 98.216825 109.213326 
L 98.367538 297.819227 
L 98.518354 284.622842 
L 98.66949 285.688907 
L 98.820199 266.708679 
L 99.12406 332.193641 
L 99.274786 329.802973 
L 99.575908 345.829567 
L 99.726578 332.748478 
L 99.877028 342.843873 
L 100.027507 341.330172 
L 100.177853 340.967038 
L 100.328216 336.484187 
L 100.630447 318.99023 
L 100.931607 242.076704 
L 101.082213 252.526633 
L 101.233132 251.406998 
L 101.534383 312.613723 
L 101.685014 342.470662 
L 101.835609 323.409204 
L 101.986692 352.174167 
L 102.137235 329.386339 
L 102.287721 352.174167 
L 102.438297 322.662062 
L 102.58905 340.231391 
L 102.739579 321.227349 
L 103.040607 345.829567 
L 103.191066 331.981902 
L 103.342277 328.751913 
L 103.492878 330.527886 
L 103.64364 340.604603 
L 103.794166 324.156346 
L 103.944734 328.288616 
L 104.095366 328.661827 
L 104.246627 343.242848 
L 104.397878 332.469731 
L 104.548448 329.781462 
L 104.698996 336.499274 
L 104.8502 350.685614 
L 105.000737 314.479781 
L 105.15133 329.386339 
L 105.301824 329.738317 
L 105.452413 343.971396 
L 105.603288 321.167779 
L 105.904394 338.738544 
L 106.055348 332.393945 
L 106.206613 352.174167 
L 106.357351 347.699928 
L 106.508039 293.579924 
L 106.658678 312.240511 
L 106.809233 312.240511 
L 106.959882 318.58511 
L 107.111304 333.602865 
L 107.261864 329.012768 
L 107.562881 334.989903 
L 107.714054 319.053861 
L 108.015298 336.872485 
L 108.165886 334.260003 
L 108.316837 326.074441 
L 108.467538 329.43012 
L 108.61829 347.699928 
L 108.768993 319.331534 
L 108.919768 315.972628 
L 109.07084 352.174167 
L 109.221406 315.190644 
L 109.372232 347.699928 
L 109.673636 327.565854 
L 109.824312 333.886792 
L 109.976028 350.318812 
L 110.12779 324.026594 
L 110.278737 345.982498 
L 110.581262 321.375278 
L 110.732823 349.949867 
L 110.883664 330.54868 
L 111.035513 331.43385 
L 111.186535 352.174167 
L 111.337357 325.328735 
L 111.488436 332.040093 
L 111.639168 348.452784 
L 111.941884 321.833369 
L 112.093492 323.258277 
L 112.395586 345.847816 
L 112.697689 331.667239 
L 112.848813 352.174167 
L 112.999804 309.047477 
L 113.150781 315.261698 
L 113.302009 333.213295 
L 113.453236 337.317125 
L 113.605094 329.931175 
L 113.756741 333.99169 
L 113.90912 345.545586 
L 114.061165 329.994726 
L 114.212763 327.312414 
L 114.364572 345.871986 
L 114.515837 328.031474 
L 114.667958 326.248771 
L 114.819742 330.343593 
L 114.970877 329.867258 
L 115.122932 347.368621 
L 115.426557 330.385135 
L 115.578957 327.823165 
L 115.730961 341.464304 
L 115.882235 322.05984 
L 116.186482 340.345132 
L 116.338171 337.730018 
L 116.490731 343.69627 
L 116.642948 308.965409 
L 116.794817 321.833369 
L 116.94731 323.764665 
L 117.09936 334.430614 
L 117.250995 326.594726 
L 117.402936 326.248771 
L 117.555328 322.629717 
L 117.707332 351.06625 
L 118.011496 323.026756 
L 118.163292 328.123534 
L 118.315333 337.730018 
L 118.467234 338.496845 
L 118.619337 339.963846 
L 118.770762 336.960258 
L 118.922817 314.767525 
L 119.075311 319.399519 
L 119.22763 342.581348 
L 119.379405 338.470743 
L 119.531177 316.180285 
L 119.683197 337.018216 
L 119.835092 329.255412 
L 120.138933 350.306312 
L 120.290865 323.313408 
L 120.442816 320.663262 
L 120.594584 337.743787 
L 120.746977 341.843439 
L 120.898967 339.998666 
L 121.051333 323.683418 
L 121.203221 337.032636 
L 121.355333 331.103698 
L 121.507292 320.35333 
L 121.659016 328.774327 
L 121.81012 352.174167 
L 121.962512 321.833369 
L 122.264784 350.684185 
L 122.415953 335.072204 
L 122.567237 339.136828 
L 122.718866 349.586565 
L 123.022455 319.031265 
L 123.175471 352.174167 
L 123.327361 320.075119 
L 123.486391 322.089063 
L 123.638191 352.174167 
L 123.789413 352.174167 
L 123.940267 349.566699 
L 124.09192 264.889049 
L 124.242841 288.910662 
L 124.393791 287.732463 
L 124.545059 262.860984 
L 124.69774 352.174167 
L 125.000639 352.174167 
L 125.154063 333.481862 
L 125.304744 352.174167 
L 125.45581 333.176901 
L 125.606649 352.174167 
L 125.758934 290.811048 
L 125.910559 308.800333 
L 126.061355 285.43344 
L 126.363942 334.208178 
L 126.515458 322.83151 
L 126.666204 323.119526 
L 126.817304 348.076717 
L 126.969099 316.619339 
L 127.121029 332.193641 
L 127.272676 322.516844 
L 127.424449 349.581627 
L 127.575295 313.770285 
L 127.878793 339.593836 
L 128.029858 311.983235 
L 128.180852 343.234277 
L 128.483129 318.745824 
L 128.634185 342.498572 
L 128.785423 321.286691 
L 128.936549 326.124488 
L 129.087422 336.901855 
L 129.239831 323.368328 
L 129.391173 325.802918 
L 129.542059 334.683668 
L 129.69302 334.294388 
L 129.843992 336.156865 
L 129.995316 320.572713 
L 130.146594 346.225658 
L 130.60047 322.488491 
L 130.751609 339.174255 
L 130.903096 323.202936 
L 131.054442 338.41824 
L 131.205415 339.149328 
L 131.35673 342.51709 
L 131.509747 320.902207 
L 131.968741 346.298818 
L 132.271517 314.588202 
L 132.422738 338.802829 
L 132.573788 341.382157 
L 132.724855 326.471984 
L 132.875989 339.161803 
L 133.178877 327.383515 
L 133.330268 352.174167 
L 133.481532 333.231439 
L 133.632617 352.174167 
L 133.784471 326.594726 
L 133.936335 322.971237 
L 134.088321 325.558838 
L 134.239564 349.194203 
L 134.391762 329.277218 
L 134.543897 324.793447 
L 134.695002 330.260031 
L 134.845821 340.98857 
L 134.997603 332.526191 
L 135.150723 352.174167 
L 135.302535 324.396957 
L 135.454458 340.345132 
L 135.605243 344.344249 
L 135.756859 317.664569 
L 135.907817 322.775244 
L 136.059989 350.32588 
L 136.212821 321.270112 
L 136.364456 325.853293 
L 136.669588 309.744391 
L 136.820315 342.126434 
L 136.971745 322.460084 
L 137.274633 335.491923 
L 137.577664 322.203379 
L 137.729887 312.251174 
L 137.884665 344.527877 
L 138.039003 334.332825 
L 138.193341 351.809716 
L 138.347573 315.364626 
L 138.499507 332.600969 
L 138.651415 307.360269 
L 138.955048 324.76732 
L 139.106791 321.063692 
L 139.260013 312.553049 
L 139.411176 330.962286 
L 139.563137 311.843106 
L 139.715178 341.084447 
L 139.867036 332.174576 
L 140.019171 338.496845 
L 140.322901 317.730427 
L 140.474784 323.285869 
L 140.626381 346.979173 
L 140.777351 324.261266 
L 140.928365 352.174167 
L 141.079467 352.174167 
L 141.230667 303.749765 
L 141.381994 318.406711 
L 141.533206 303.796193 
L 141.684557 310.24315 
L 141.986802 338.777189 
L 142.138074 322.83151 
L 142.289541 350.687039 
L 142.440602 326.14944 
L 142.591677 338.764332 
L 142.74294 339.521466 
L 142.894388 335.121206 
L 143.04523 352.174167 
L 143.196487 313.843926 
L 143.347572 352.174167 
L 143.499069 317.19317 
L 143.953555 352.174167 
L 144.104471 344.344249 
L 144.255253 330.54868 
L 144.556934 348.076717 
L 144.709484 326.371874 
L 145.012319 344.752748 
L 145.163633 329.495476 
L 145.314652 343.251403 
L 145.465451 326.422557 
L 145.616606 352.174167 
L 145.767685 317.598459 
L 145.918938 333.921892 
L 146.069852 322.775244 
L 146.221025 352.174167 
L 146.372591 312.803007 
L 146.524601 338.509859 
L 146.675846 335.039378 
L 146.979617 326.643495 
L 147.130733 334.666883 
L 147.281698 352.174167 
L 147.584295 325.82813 
L 147.73512 342.780648 
L 147.886592 326.941343 
L 148.038546 351.803804 
L 148.189359 331.68692 
L 148.340397 337.274351 
L 148.491288 337.646846 
L 148.64216 342.126434 
L 148.793033 329.057267 
L 148.944366 352.174167 
L 149.095605 325.726993 
L 149.398536 344.752748 
L 149.550501 338.853816 
L 149.70158 318.681723 
L 150.003288 336.916498 
L 150.154217 336.172221 
L 150.305415 329.101595 
L 150.456541 341.754295 
L 150.758882 325.777658 
L 150.910432 342.155251 
L 151.061427 336.887184 
L 151.212355 342.861782 
L 151.363514 338.032913 
L 151.514335 352.174167 
L 151.665223 324.583028 
L 151.816368 333.939392 
L 151.968351 332.933661 
L 152.271802 318.809679 
L 152.57477 339.223826 
L 152.877899 321.316277 
L 153.179887 343.971396 
L 153.331284 324.68864 
L 153.635271 345.884001 
L 153.786438 331.374309 
L 153.937566 333.567254 
L 154.088535 352.174167 
L 154.239647 314.960341 
L 154.390833 332.841513 
L 154.541809 329.057267 
L 154.692765 347.336369 
L 154.843625 318.649581 
L 154.995478 329.582036 
L 155.147495 351.065195 
L 155.299476 325.878408 
L 155.450697 320.944495 
L 155.602504 345.884001 
L 155.7533 333.531505 
L 155.905703 348.477593 
L 156.057729 322.288847 
L 156.208786 338.764332 
L 156.511709 325.085988 
L 156.663652 328.516097 
L 156.815537 344.026185 
L 156.967193 316.989701 
L 157.118738 335.104903 
L 157.270261 319.085586 
L 157.421515 332.822977 
L 157.572475 309.791041 
L 157.723379 348.821708 
L 157.876383 345.925697 
L 158.028465 351.434852 
L 158.179367 332.412946 
L 158.331163 343.293933 
L 158.483035 302.868868 
L 158.633873 300.446948 
L 158.784672 286.924853 
L 158.936039 291.260297 
L 159.087706 337.716222 
L 159.23875 335.784369 
L 159.390228 328.054555 
L 159.541081 339.881818 
L 159.691923 332.040093 
L 159.994699 338.841106 
L 160.146628 319.243301 
L 160.297496 321.629544 
L 160.449263 317.730427 
L 160.600087 317.125964 
L 160.75131 322.431622 
L 160.903016 352.174167 
L 161.054723 318.068246 
L 161.205993 341.392494 
L 161.356743 321.257049 
L 161.65847 325.008074 
L 161.809311 294.009064 
L 162.111578 324.370427 
L 162.262718 330.982604 
L 162.414337 313.211718 
L 162.565882 352.174167 
L 162.717509 312.098505 
L 163.17122 349.564194 
L 163.322163 331.314424 
L 163.472973 327.938707 
L 163.775953 350.320584 
L 163.926734 315.634551 
L 164.077382 352.174167 
L 164.227955 319.704746 
L 164.378799 349.191341 
L 164.529444 332.785799 
L 164.680182 350.308108 
L 164.83083 331.647521 
L 164.982368 327.312414 
L 165.134875 319.675272 
L 165.287342 343.704314 
L 165.592295 316.248976 
L 165.744161 318.809679 
L 165.895281 343.251403 
L 166.197382 313.099649 
L 166.501221 329.582036 
L 166.65225 334.277212 
L 166.804201 322.231922 
L 166.956563 345.526666 
L 167.108294 316.317405 
L 167.259355 313.770285 
L 167.410177 348.445634 
L 167.560962 310.454682 
L 167.711851 342.479983 
L 167.862536 340.999305 
L 168.014887 318.133272 
L 168.16647 318.068246 
L 168.317697 342.87071 
L 168.468577 324.290531 
L 168.619509 344.709932 
L 168.770412 314.924627 
L 168.921387 336.52936 
L 169.223594 319.085586 
L 169.376653 339.33399 
L 169.527781 331.294386 
L 169.678996 310.906386 
L 169.830099 340.277149 
L 169.981176 345.841745 
L 170.13244 326.496627 
L 170.283573 346.219954 
L 170.434525 347.336369 
L 170.586351 337.75753 
L 170.737347 339.521466 
L 170.889322 325.508046 
L 171.040011 346.954222 
L 171.190599 326.024201 
L 171.34124 351.427743 
L 171.49294 316.214663 
L 171.644705 334.75049 
L 171.796281 328.796697 
L 171.947929 342.544734 
L 172.09986 319.211878 
L 172.253123 337.839443 
L 172.405412 317.893978 
L 172.710698 351.437658 
L 173.016266 321.804418 
L 173.1683 342.941526 
L 173.320473 332.231663 
L 173.472383 352.174167 
L 173.625512 321.299378 
L 173.776714 352.174167 
L 173.927879 324.290531 
L 174.079124 341.020712 
L 174.230142 338.41824 
L 174.381062 341.010019 
L 174.532078 349.564194 
L 174.683265 312.355373 
L 174.834164 345.469249 
L 174.98537 340.277149 
L 175.13678 328.031474 
L 175.288062 327.264786 
L 175.4392 341.031386 
L 175.590265 336.126062 
L 175.892988 324.317214 
L 176.044031 339.917108 
L 176.194814 339.509323 
L 176.346276 335.443985 
L 176.49806 321.063692 
L 176.648971 342.116791 
L 176.801284 340.736575 
L 176.951894 323.063651 
L 177.102703 325.328735 
L 177.253964 351.058821 
L 177.405681 328.841311 
L 177.557068 328.751913 
L 177.707986 332.040093 
L 177.858928 342.414355 
L 178.0104 325.878408 
L 178.161603 345.469249 
L 178.31253 338.41824 
L 178.463348 319.363083 
L 178.614379 345.089955 
L 178.765966 331.043325 
L 178.918225 341.464304 
L 179.069059 343.606772 
L 179.373133 330.036893 
L 179.525985 350.33464 
L 179.677023 328.380131 
L 179.828417 329.145753 
L 179.979639 343.639535 
L 180.130536 327.938707 
L 180.281438 345.469249 
L 180.432781 326.14944 
L 180.584028 331.726167 
L 180.734889 332.040093 
L 181.039212 341.063283 
L 181.189935 330.54868 
L 181.341656 332.896907 
L 181.492344 352.174167 
L 181.643494 331.334424 
L 181.793996 332.374907 
L 181.944951 328.729456 
L 182.095708 344.33672 
L 182.247187 326.893004 
L 182.548907 342.498572 
L 182.85056 330.175826 
L 183.00159 333.939392 
L 183.152264 343.225689 
L 183.303064 323.464468 
L 183.454648 323.202936 
L 183.605898 327.264786 
L 183.759824 325.494096 
L 183.912895 346.666028 
L 184.066555 352.174167 
L 184.373535 352.174167 
L 184.524817 260.344061 
L 184.827778 242.442074 
L 185.132105 322.288847 
L 185.28329 322.83151 
L 185.434601 311.983235 
L 185.58551 318.277085 
L 185.736986 333.62062 
L 185.888428 332.117161 
L 186.040174 333.285664 
L 186.191033 336.156865 
L 186.494012 325.085988 
L 186.647128 294.498714 
L 186.799669 329.931175 
L 186.951811 324.10694 
L 187.104001 334.04369 
L 187.256152 318.968256 
L 187.560175 341.084447 
L 187.711501 335.831421 
L 187.863451 347.725568 
L 188.014749 325.802918 
L 188.166391 333.285664 
L 188.318722 328.538607 
L 188.470079 352.174167 
L 188.62103 320.914553 
L 188.92448 343.251403 
L 189.228447 319.33721 
L 189.379911 326.174344 
L 189.682634 348.818488 
L 189.987081 321.891106 
L 190.138738 342.906253 
L 190.591664 326.820147 
L 190.742492 325.777658 
L 190.895087 348.123368 
L 191.045999 324.982003 
L 191.347988 341.744295 
L 191.499216 335.427945 
L 191.801843 349.941337 
L 191.952873 325.75235 
L 192.104094 321.629544 
L 192.255019 352.174167 
L 192.558434 352.174167 
L 192.709527 281.840035 
L 192.86064 296.725566 
L 193.011537 300.07481 
L 193.162794 307.889714 
L 193.314073 336.202847 
L 193.466615 327.085256 
L 193.61766 340.277149 
L 193.769369 335.847045 
L 194.072825 312.658465 
L 194.375315 351.058821 
L 194.526312 323.175186 
L 194.677753 325.405877 
L 194.97988 347.336369 
L 195.130933 329.473733 
L 195.283775 325.634665 
L 195.434751 347.717054 
L 195.58688 322.545143 
L 195.738813 320.35333 
L 195.889636 330.218009 
L 196.040615 352.174167 
L 196.191804 303.424055 
L 196.342737 320.170276 
L 196.49501 309.253038 
L 196.797719 323.202936 
L 196.948801 315.669618 
L 197.250854 329.079452 
L 197.40203 330.962286 
L 197.552953 322.74703 
L 197.703883 338.405051 
L 197.855146 326.124488 
L 198.006525 338.802829 
L 198.159004 318.294756 
L 198.310095 341.744295 
L 198.461761 320.693329 
L 198.615163 352.174167 
L 198.766521 341.413109 
L 198.918249 352.174167 
L 199.37094 305.19466 
L 199.522112 309.791041 
L 199.826939 332.988529 
L 199.978979 334.833302 
L 200.13005 329.802973 
L 200.280994 329.867258 
L 200.43186 335.411874 
L 200.582959 331.706562 
L 200.733966 316.75311 
L 200.885607 325.482577 
L 201.037757 327.061385 
L 201.190116 352.174167 
L 201.494917 352.174167 
L 201.646732 347.35945 
L 201.798201 352.174167 
L 201.949238 274.695124 
L 202.100462 284.072865 
L 202.251544 276.70246 
L 202.403176 280.694148 
L 202.554755 330.652052 
L 202.705582 343.242848 
L 202.856712 328.706957 
L 203.007964 336.54436 
L 203.159844 335.169929 
L 203.311906 349.954108 
L 203.46304 327.613041 
L 203.613727 352.174167 
L 203.765657 326.570272 
L 204.069222 349.208434 
L 204.221396 324.819524 
L 204.372962 327.706876 
L 204.524535 347.712785 
L 204.675792 339.557755 
L 204.826819 317.532095 
L 204.978081 320.944495 
L 205.12933 318.309585 
L 205.282119 340.044785 
L 205.585048 320.200931 
L 205.736868 328.123534 
L 205.888022 323.119526 
L 206.03923 352.174167 
L 206.190612 320.602954 
L 206.492501 349.566699 
L 206.643807 326.917196 
L 206.796029 322.60158 
L 206.946945 352.174167 
L 207.250288 352.174167 
L 207.401639 293.74846 
L 207.552753 312.098505 
L 207.703509 312.240511 
L 207.855361 328.639198 
L 208.0073 315.102514 
L 208.310963 346.964231 
L 208.462319 333.974291 
L 208.614236 337.018216 
L 208.765477 352.174167 
L 208.91637 322.05984 
L 209.067427 352.174167 
L 209.219718 330.364384 
L 209.371575 338.853816 
L 209.52306 337.716222 
L 209.675165 335.153719 
L 209.826204 329.802973 
L 209.978128 352.174167 
L 210.130084 321.804418 
L 210.282609 332.269541 
L 210.433666 352.174167 
L 210.584582 323.864516 
L 210.735843 331.726167 
L 210.887761 351.063078 
L 211.040253 324.528853 
L 211.192537 331.453622 
L 211.343496 332.860013 
L 211.49563 345.877999 
L 211.646557 335.411874 
L 211.948959 337.674676 
L 212.099874 326.820147 
L 212.250702 330.196938 
L 212.402131 313.211718 
L 212.553108 339.136828 
L 212.705078 332.544939 
L 212.856189 352.174167 
L 213.007017 324.210175 
L 213.157958 336.172221 
L 213.309039 326.124488 
L 213.459976 328.334461 
L 213.610955 346.959231 
L 213.761919 319.767067 
L 214.065416 336.916498 
L 214.216233 319.022076 
L 214.366987 323.464468 
L 214.517856 311.494087 
L 214.819405 339.111756 
L 214.970168 326.820147 
L 215.120926 326.074441 
L 215.272133 301.240059 
L 215.575146 315.704617 
L 215.726153 307.145437 
L 215.877029 318.99023 
L 216.028275 299.27982 
L 216.482117 336.559331 
L 216.63428 323.285869 
L 216.786363 338.483807 
L 216.938642 334.497952 
L 217.089612 345.475678 
L 217.240927 310.041752 
L 217.392202 324.714917 
L 217.543352 318.342022 
L 217.694408 348.452784 
L 217.997189 319.82915 
L 218.148494 313.582789 
L 218.45069 347.704222 
L 218.752496 338.019342 
L 218.903577 343.234277 
L 219.207269 323.519521 
L 219.358353 345.482094 
L 219.661645 315.173194 
L 219.81276 316.517267 
L 219.964407 328.470948 
L 220.115163 350.682754 
L 220.26728 320.693329 
L 220.419282 349.958333 
L 220.723203 331.414041 
L 220.875064 347.738279 
L 221.177397 327.58947 
L 221.329231 324.76732 
L 221.481145 345.884001 
L 221.632917 302.127435 
L 221.784756 302.545553 
L 221.936627 311.103087 
L 222.240331 334.767115 
L 222.392083 312.915711 
L 222.543282 314.252422 
L 222.694224 312.727511 
L 222.846138 321.033978 
L 222.998083 343.663943 
L 223.14994 332.933661 
L 223.301793 337.359655 
L 223.45337 335.319443 
L 223.60395 352.174167 
L 223.754719 352.174167 
L 223.905928 275.141547 
L 224.056907 299.330534 
L 224.207723 298.856156 
L 224.509226 352.174167 
L 224.659992 352.174167 
L 224.811071 252.813251 
L 224.96212 299.702672 
L 225.11323 310.827177 
L 225.264066 292.890504 
L 225.415821 300.224235 
L 225.566628 329.845871 
L 225.717626 312.689654 
L 225.868528 349.566699 
L 226.17088 312.355373 
L 226.322091 314.960341 
L 226.473205 343.623185 
L 226.624113 327.58947 
L 226.775918 338.444542 
L 227.07848 328.357318 
L 227.229414 342.87071 
L 227.380389 343.242848 
L 227.531346 327.961966 
L 227.682584 351.058821 
L 227.833968 316.448894 
L 227.985145 338.431403 
L 228.136259 332.785799 
L 228.287933 348.467001 
L 228.439646 339.952195 
L 228.59049 345.475678 
L 228.741503 323.864516 
L 228.892961 325.457059 
L 229.044061 350.685614 
L 229.195443 326.496627 
L 229.346549 323.945788 
L 229.497455 332.804406 
L 229.648913 350.318812 
L 229.799959 336.52936 
L 229.95088 343.598543 
L 230.101787 323.492021 
L 230.252843 343.242848 
L 230.403805 322.345909 
L 230.554881 327.613041 
L 230.705896 326.496627 
L 230.857045 326.868765 
L 231.007908 339.881818 
L 231.160534 334.112562 
L 231.311627 315.704617 
L 231.462435 323.864516 
L 231.613746 350.685614 
L 231.765282 313.95386 
L 232.067287 336.872485 
L 232.218334 342.498572 
L 232.369245 329.495476 
L 232.672937 342.879622 
L 232.823889 352.174167 
L 232.975049 330.175826 
L 233.276911 340.98857 
L 233.427994 330.941929 
L 233.730244 349.566699 
L 233.881292 318.277085 
L 234.033706 328.930029 
L 234.185433 320.35333 
L 234.487524 334.31153 
L 234.638596 339.509323 
L 234.790025 321.316277 
L 234.940761 347.708508 
L 235.091853 324.156346 
L 235.39423 343.639535 
L 235.546291 334.800272 
L 235.698271 342.915097 
L 235.850029 332.174576 
L 236.000983 352.174167 
L 236.151802 330.921533 
L 236.303215 337.302894 
L 236.454415 335.800083 
L 236.605216 345.847816 
L 236.756182 322.374535 
L 237.058843 346.969221 
L 237.209887 315.704617 
L 237.360945 322.374535 
L 237.512738 343.293933 
L 237.663947 323.492021 
L 237.815131 331.334424 
L 237.965977 352.174167 
L 238.116872 308.592205 
L 238.420469 352.174167 
L 238.571656 329.845871 
L 238.723726 335.555414 
L 238.874817 318.720359 
L 239.025988 324.662313 
L 239.176808 347.331726 
L 239.328982 352.174167 
L 239.481454 352.174167 
L 239.634112 340.021769 
L 239.78643 275.800571 
L 239.938136 292.232591 
L 240.08985 293.173887 
L 240.241732 312.953135 
L 240.39326 352.174167 
L 240.544466 335.022918 
L 240.695354 352.174167 
L 240.846649 337.288636 
L 240.997618 345.859924 
L 241.301386 334.816803 
L 241.452244 343.979268 
L 241.602989 336.514331 
L 241.753765 338.005744 
L 242.056167 329.90991 
L 242.207061 345.835662 
L 242.357947 342.489286 
L 242.510528 341.85325 
L 242.661695 328.031474 
L 242.813771 329.582036 
L 242.964481 345.469249 
L 243.267598 325.676133 
L 243.419399 341.653425 
L 243.72161 325.75235 
L 243.872941 340.65996 
L 244.024157 328.054555 
L 244.17501 331.294386 
L 244.477041 324.609507 
L 244.627926 352.174167 
L 244.779615 324.026594 
L 244.931408 348.100176 
L 245.084441 338.338726 
L 245.235413 352.174167 
L 245.386899 328.4029 
L 245.539252 350.698348 
L 245.690925 335.878204 
L 245.841632 347.322414 
L 245.995511 334.964176 
L 246.147291 352.174167 
L 246.29816 335.784369 
L 246.44878 347.322414 
L 246.600089 342.50784 
L 246.751667 326.570272 
L 246.902696 349.941337 
L 247.053516 323.091615 
L 247.205235 330.301891 
L 247.35694 331.043325 
L 247.507709 346.208515 
L 247.658745 328.729456 
L 247.809476 351.801313 
L 247.960222 319.704746 
L 248.111009 326.074441 
L 248.262305 345.859924 
L 248.413608 347.712785 
L 248.564349 324.583028 
L 248.714969 346.202779 
L 248.866971 323.628994 
L 249.018562 332.915301 
L 249.169372 320.854496 
L 249.320213 347.699928 
L 249.47092 329.43012 
L 249.621661 326.049345 
L 249.773063 345.488498 
L 250.076899 329.255412 
L 250.229095 351.067303 
L 250.38026 325.034095 
L 250.531845 325.82813 
L 250.684169 347.373194 
L 250.834849 324.955881 
L 250.985577 325.302922 
L 251.137612 350.694128 
L 251.288904 328.751913 
L 251.439785 342.498572 
L 251.74164 333.567254 
L 251.892576 342.470662 
L 252.043814 326.893004 
L 252.194551 329.824443 
L 252.345559 344.724259 
L 252.648254 317.664569 
L 252.800669 319.031265 
L 252.952836 337.373778 
L 253.104844 327.061385 
L 253.25639 352.174167 
L 253.407798 314.960341 
L 253.55878 320.602954 
L 253.709865 331.294386 
L 253.860913 352.174167 
L 254.012763 325.508046 
L 254.164182 352.174167 
L 254.314986 352.174167 
L 254.466068 298.483302 
L 254.617014 300.07481 
L 254.768813 305.508455 
L 254.92027 330.610822 
L 255.071681 331.394194 
L 255.22236 317.498817 
L 255.373296 314.515991 
L 255.525072 318.873291 
L 255.676305 315.297122 
L 255.827156 348.080646 
L 255.97807 330.962286 
L 256.128909 335.022918 
L 256.431531 326.074441 
L 256.582336 331.667239 
L 256.733121 352.174167 
L 256.884572 326.174344 
L 257.036491 327.660048 
L 257.187642 322.516844 
L 257.339455 349.95199 
L 257.491328 328.100585 
L 257.793209 349.941337 
L 257.945125 340.322557 
L 258.096873 349.211264 
L 258.248566 350.318812 
L 258.401039 325.584162 
L 258.704951 348.847251 
L 258.857034 326.66781 
L 259.008309 350.691301 
L 259.15977 326.121954 
L 259.311797 334.04369 
L 259.463355 348.645619 
L 259.615053 352.174167 
L 259.769443 352.174167 
L 259.920705 295.083821 
L 260.07281 348.477593 
L 260.224736 311.473096 
L 260.376507 314.026799 
L 260.527646 352.174167 
L 260.679928 352.174167 
L 260.832518 311.375338 
L 260.984225 335.507841 
L 261.135563 338.777189 
L 261.287356 319.582241 
L 261.743362 348.840902 
L 261.895477 326.692079 
L 262.047526 326.298153 
L 262.19956 331.823632 
L 262.352186 351.436258 
L 262.504124 323.737634 
L 262.655714 336.218116 
L 262.806741 338.790022 
L 263.263075 324.423437 
L 263.415031 341.813894 
L 263.567199 342.202915 
L 263.719178 330.322762 
L 263.871197 342.941526 
L 264.023117 345.130553 
L 264.174728 322.488491 
L 264.326997 328.214895 
L 264.478828 325.137683 
L 264.631585 329.34239 
L 264.783611 346.624021 
L 265.087785 326.643495 
L 265.240145 334.060957 
L 265.543828 320.633137 
L 265.696255 327.477686 
L 265.847778 340.681954 
L 265.999751 317.393252 
L 266.30294 346.237032 
L 266.454353 340.277149 
L 266.606778 314.504994 
L 266.758344 341.063283 
L 266.910027 345.877999 
L 267.062399 320.413883 
L 267.213962 326.22401 
L 267.365563 338.086939 
L 267.671728 329.594295 
L 267.823681 352.174167 
L 267.975907 352.174167 
L 268.127048 305.745912 
L 268.278279 309.337196 
L 268.429711 309.501008 
L 268.581307 349.95199 
L 268.733026 334.379773 
L 268.888638 352.174167 
L 269.043583 352.174167 
L 269.19488 293.971672 
L 269.498288 326.965443 
L 269.801731 309.213509 
L 269.954284 315.647664 
L 270.106147 339.987081 
L 270.258223 331.804213 
L 270.411891 334.598006 
L 270.564256 323.764665 
L 270.715707 352.174167 
L 270.866754 316.414608 
L 271.017459 331.68692 
L 271.168464 329.057267 
L 271.320277 352.174167 
L 271.472503 326.692079 
L 271.776606 345.895971 
L 271.928777 335.784369 
L 272.080321 346.989088 
L 272.232304 335.507841 
L 272.384309 333.30367 
L 272.536613 350.691301 
L 272.68853 331.804213 
L 272.84007 328.819025 
L 272.992202 346.998964 
L 273.144315 326.322773 
L 273.296469 329.277218 
L 273.448791 338.113797 
L 273.601362 338.548751 
L 273.753774 319.675272 
L 274.209725 337.047029 
L 274.360531 332.078701 
L 274.511622 346.959231 
L 274.663025 304.306015 
L 274.814503 317.97024 
L 274.966369 319.243301 
L 275.117131 336.141478 
L 275.269077 336.618929 
L 275.420873 313.286074 
L 275.875613 352.174167 
L 276.027066 322.803404 
L 276.17835 336.559331 
L 276.480746 333.213295 
L 276.632109 343.259942 
L 276.783144 328.751913 
L 276.935256 335.153719 
L 277.087133 352.174167 
L 277.238024 327.961966 
L 277.539679 342.479983 
L 277.690802 324.609507 
L 277.842067 351.802385 
L 277.993149 322.74703 
L 278.145113 352.174167 
L 278.295963 327.58947 
L 278.447786 347.36404 
L 278.599522 325.878408 
L 278.750834 345.117072 
L 278.901815 346.219954 
L 279.052778 333.176901 
L 279.203793 339.881818 
L 279.355213 332.450839 
L 279.506088 330.982604 
L 279.656914 339.87001 
L 279.807441 317.125964 
L 279.959222 348.08848 
L 280.110805 328.031474 
L 280.262432 346.998964 
L 280.413115 324.92971 
L 280.564326 349.571694 
L 280.715753 323.945788 
L 280.866866 340.265742 
L 281.017578 335.379639 
L 281.169934 346.265277 
L 281.32206 313.802892 
L 281.473541 326.199201 
L 281.624677 328.729456 
L 281.776398 346.156489 
L 281.929068 318.99979 
L 282.080766 318.471153 
L 282.233257 321.919892 
L 282.385046 346.99403 
L 282.535921 341.744295 
L 282.68728 319.735936 
L 282.839203 329.667938 
L 282.990547 323.891659 
L 283.141744 326.174344 
L 283.292826 338.790022 
L 283.444387 320.262066 
L 283.595456 352.174167 
L 283.746547 352.174167 
L 283.897459 294.809875 
L 284.048275 322.002039 
L 284.199892 328.031474 
L 284.35126 295.454538 
L 284.502696 293.319894 
L 284.653825 324.962779 
L 284.805034 329.888605 
L 284.956261 349.943476 
L 285.107322 322.002039 
L 285.409249 313.024578 
L 285.7133 339.569805 
L 285.864735 346.613419 
L 286.016027 326.521222 
L 286.167177 350.687039 
L 286.318469 328.008349 
L 286.469568 339.905367 
L 286.620641 331.68692 
L 286.77205 337.331329 
L 287.225784 320.512058 
L 287.376758 347.327075 
L 287.528547 329.211674 
L 287.680285 332.174576 
L 287.982812 352.174167 
L 288.133994 326.868765 
L 288.28556 329.90991 
L 288.436935 352.174167 
L 288.591902 320.948668 
L 288.895652 341.3718 
L 289.047751 334.04369 
L 289.199471 345.507636 
L 289.350778 344.738531 
L 289.502799 319.952604 
L 289.653857 319.82915 
L 289.805785 317.763262 
L 290.10879 333.213295 
L 290.259761 311.238958 
L 290.410753 336.156865 
L 290.561721 315.704617 
L 290.712701 349.566699 
L 290.863774 329.079452 
L 291.014472 329.408251 
L 291.165685 331.374309 
L 291.316719 347.331726 
L 291.468212 323.202936 
L 291.770262 340.626809 
L 291.921665 318.002972 
L 292.07278 317.598459 
L 292.223953 349.569199 
L 292.374843 332.040093 
L 292.676779 352.174167 
L 292.828213 324.290531 
L 292.981596 323.925777 
L 293.132856 320.602954 
L 293.283904 320.231528 
L 293.435162 309.709691 
L 293.586103 335.784369 
L 293.73702 336.559331 
L 293.888591 325.777658 
L 294.193701 342.306195 
L 294.345008 333.249549 
L 294.496234 332.450839 
L 294.647126 337.671386 
L 294.797975 323.864516 
L 294.948797 343.598543 
L 295.099729 346.21424 
L 295.402467 330.982604 
L 295.553399 342.753288 
L 295.706716 325.342505 
L 295.857802 347.717054 
L 296.008662 334.666883 
L 296.159711 333.176901 
L 296.310586 344.351763 
L 296.461394 325.701588 
L 296.612323 324.609507 
L 296.763249 352.174167 
L 296.914863 325.085988 
L 297.06652 330.301891 
L 297.217656 330.962286 
L 297.36865 352.174167 
L 297.520415 327.336159 
L 297.822911 352.174167 
L 297.973733 324.609507 
L 298.12498 326.893004 
L 298.276009 342.87071 
L 298.426831 329.802973 
L 298.578129 352.174167 
L 298.729171 328.334461 
L 298.879904 324.955881 
L 299.03075 328.334461 
L 299.181673 346.586736 
L 299.332563 339.497157 
L 299.483595 315.297122 
L 299.785397 346.586736 
L 299.936555 322.431622 
L 300.088004 317.260119 
L 300.390173 329.079452 
L 300.541038 343.963508 
L 300.691941 314.960341 
L 300.842922 327.216975 
L 300.994715 352.174167 
L 301.145621 324.982003 
L 301.447757 352.174167 
L 301.599102 322.775244 
L 301.750257 338.41824 
L 301.901512 340.648931 
L 302.052911 332.841513 
L 302.2038 343.614987 
L 302.355132 334.700422 
L 302.506061 333.585076 
L 302.656882 352.174167 
L 302.809205 334.464347 
L 303.112401 352.174167 
L 303.263314 352.174167 
L 303.414375 302.259783 
L 303.56513 340.254314 
L 303.869307 324.555082 
L 304.02007 332.450839 
L 304.171141 332.040093 
L 304.322796 335.878204 
L 304.473795 333.567254 
L 304.624755 340.254314 
L 304.775681 329.079452 
L 305.077422 342.10713 
L 305.22831 319.767067 
L 305.379325 352.174167 
L 305.530106 325.354498 
L 305.834419 344.411363 
L 305.986381 341.794104 
L 306.290174 325.533466 
L 306.441958 350.322353 
L 306.593927 334.04369 
L 306.746031 336.248567 
L 306.896773 334.31153 
L 307.04853 345.130553 
L 307.201491 335.250518 
L 307.353547 352.174167 
L 307.505384 352.174167 
L 307.657186 338.457655 
L 307.960664 301.015286 
L 308.112545 311.103087 
L 308.416065 336.604072 
L 308.568844 328.237626 
L 308.720951 342.941526 
L 308.872778 336.248567 
L 309.024627 348.100176 
L 309.176608 327.013505 
L 309.480238 334.04369 
L 309.632086 330.343593 
L 309.783117 323.891659 
L 309.934971 323.99971 
L 310.087178 323.737634 
L 310.23905 331.43385 
L 310.390812 349.95199 
L 310.542855 331.453622 
L 310.694675 330.693125 
L 310.99817 338.470743 
L 311.149891 328.077592 
L 311.301599 338.457655 
L 311.453286 335.862639 
L 311.604648 345.123819 
L 311.755598 326.496627 
L 311.90706 335.411874 
L 312.059215 328.952103 
L 312.211071 345.143982 
L 312.515317 324.819524 
L 312.666067 329.845871 
L 312.816852 345.835662 
L 312.96831 317.97024 
L 313.120934 326.740478 
L 313.273173 323.340894 
L 313.57708 350.694128 
L 313.728863 325.137683 
L 313.880716 324.793447 
L 314.032684 350.320584 
L 314.184544 312.620831 
L 314.336746 330.734041 
L 314.488476 335.137478 
L 314.792275 316.248976 
L 314.944038 339.211469 
L 315.247731 323.285869 
L 315.400138 352.174167 
L 315.551168 352.174167 
L 315.855671 307.445629 
L 316.007689 308.513019 
L 316.159851 301.948602 
L 316.464229 334.800272 
L 316.616544 351.805912 
L 316.768394 316.619339 
L 317.070806 337.618909 
L 317.222596 325.82813 
L 317.374878 336.30912 
L 317.526648 329.211674 
L 317.678309 338.457655 
L 317.830095 334.767115 
L 317.98182 345.137274 
L 318.13367 315.50825 
L 318.285477 345.877999 
L 318.437407 318.503281 
L 318.740852 328.841311 
L 318.892326 351.431315 
L 319.044441 315.947747 
L 319.196312 322.573388 
L 319.348155 323.285869 
L 319.500159 338.483807 
L 319.803836 302.17519 
L 319.955718 302.915915 
L 320.109755 301.420179 
L 320.261755 342.932733 
L 320.56524 318.809679 
L 320.717083 346.248362 
L 320.868778 322.146128 
L 321.020685 339.223826 
L 321.172444 323.285869 
L 321.323756 340.254314 
L 321.475342 324.741144 
L 321.627649 350.309901 
L 321.781992 339.922266 
L 321.943086 352.174167 
L 322.095001 352.174167 
L 322.550593 240.431228 
L 322.702558 241.806055 
L 323.007593 336.354234 
L 323.159716 349.958333 
L 323.311465 320.72334 
L 323.463614 321.093349 
L 323.615624 328.863554 
L 323.767702 350.324118 
L 323.919734 321.152495 
L 324.071259 352.174167 
L 324.222233 320.139562 
L 324.374729 338.167208 
L 324.527394 327.823165 
L 324.678313 330.260031 
L 324.830583 320.35333 
L 324.982364 352.174167 
L 325.134458 321.463359 
L 325.286602 334.078191 
L 325.439899 326.860675 
L 325.591728 337.716222 
L 325.743909 334.430614 
L 326.04752 320.693329 
L 326.199799 326.273486 
L 326.351888 337.047029 
L 326.655807 326.643495 
L 326.960633 333.393189 
L 327.11192 335.088569 
L 327.264117 331.843013 
L 327.416193 332.600969 
L 327.567436 327.240903 
L 327.718397 352.174167 
L 327.869869 335.072204 
L 328.020892 352.174167 
L 328.172055 334.700422 
L 328.324445 352.174167 
L 328.629369 331.43385 
L 328.780433 351.058821 
L 328.93147 317.19317 
L 329.082264 321.227349 
L 329.233105 338.005744 
L 329.383858 329.057267 
L 329.6857 346.586736 
L 329.836529 322.718762 
L 330.139323 341.031386 
L 330.290319 319.890995 
L 330.592525 324.635935 
L 330.744264 348.096285 
L 330.895094 324.982003 
L 331.197819 328.493544 
L 331.348908 352.174167 
L 331.500815 329.931175 
L 331.652365 346.613419 
L 331.956673 323.737634 
L 332.108352 350.691301 
L 332.259816 330.260031 
L 332.412485 326.692079 
L 332.564333 346.270894 
L 332.716875 330.42652 
L 332.868095 345.469249 
L 333.019837 338.946409 
L 333.171178 352.174167 
L 333.322035 326.84448 
L 333.473311 352.174167 
L 333.624299 325.034095 
L 333.776421 345.15736 
L 333.928101 335.831421 
L 334.079951 348.10406 
L 334.231561 329.229918 
L 334.383662 352.174167 
L 334.536863 324.10694 
L 334.688423 352.174167 
L 334.839719 342.145664 
L 334.990817 352.174167 
L 335.142324 326.965443 
L 335.2947 352.174167 
L 335.44597 339.161803 
L 335.59683 352.174167 
L 335.899975 342.888516 
L 336.051962 329.994726 
L 336.203253 340.999305 
L 336.506033 332.431911 
L 336.657085 344.724259 
L 336.808153 328.380131 
L 336.959046 340.98857 
L 337.262347 323.710552 
L 337.565204 329.473733 
L 337.716731 342.136058 
L 337.867857 319.798138 
L 338.169914 337.288636 
L 338.320816 323.063651 
L 338.472214 333.602865 
L 338.623072 326.124488 
L 338.926473 336.931113 
L 339.077425 332.117161 
L 339.229586 332.600969 
L 339.380621 339.893604 
L 339.531803 334.294388 
L 339.682902 318.707172 
L 339.833839 335.022918 
L 339.98474 338.405051 
L 340.139723 334.349546 
L 340.291332 342.16482 
L 340.44264 328.054555 
L 340.593733 347.708508 
L 340.744878 318.309585 
L 340.89603 346.392535 
L 341.047239 314.960341 
L 341.199005 335.539586 
L 341.34995 328.334461 
L 341.50198 338.815613 
L 341.653472 330.672608 
L 341.805447 342.183904 
L 341.956566 334.666883 
L 342.107479 339.893604 
L 342.258444 333.531505 
L 342.409318 345.841745 
L 342.56081 320.914553 
L 342.711676 346.59744 
L 342.862653 344.344249 
L 343.01423 320.914553 
L 343.31737 345.513992 
L 343.470709 329.731937 
L 343.623412 346.293254 
L 343.775693 327.454211 
L 343.927848 341.823761 
L 344.079717 335.909244 
L 344.23055 340.626809 
L 344.381821 322.345909 
L 344.533107 338.073471 
L 344.684654 336.233356 
L 344.835754 326.471984 
L 344.988845 345.5644 
L 345.291439 330.54868 
L 345.443447 343.663943 
L 345.595579 326.66781 
L 345.747287 331.43385 
L 345.899551 319.274664 
L 346.051373 350.660949 
L 346.203302 333.67368 
L 346.355366 341.063283 
L 346.507065 339.593836 
L 346.810444 332.155474 
L 346.963178 345.919775 
L 347.114988 336.618929 
L 347.267052 336.989292 
L 347.418455 338.802829 
L 347.570604 350.849456 
L 347.722809 352.174167 
L 347.875063 352.174167 
L 348.026892 304.442912 
L 348.178707 301.064101 
L 348.330722 310.402887 
L 348.482513 337.359655 
L 348.634447 322.174781 
L 348.785758 319.488676 
L 348.93717 329.123695 
L 349.088826 352.174167 
L 349.240201 352.174167 
L 349.391353 298.214119 
L 349.693439 334.700422 
L 349.843873 311.120876 
L 350.146776 321.804418 
L 350.450069 338.699675 
L 350.601144 324.263797 
L 350.751876 343.606772 
L 350.902659 338.365332 
L 351.053352 326.820147 
L 351.204628 338.046458 
L 351.506738 326.84448 
L 351.659352 320.474207 
L 351.81149 346.998964 
L 351.962709 340.288534 
L 352.113852 342.87071 
L 352.415598 333.49562 
L 352.566346 343.225689 
L 352.717717 322.088658 
L 353.020348 351.431315 
L 353.17305 328.237626 
L 353.323857 341.744295 
L 353.475389 341.764276 
L 353.626684 352.174167 
L 353.777462 323.464468 
L 353.928601 339.87001 
L 354.07972 341.764276 
L 354.230716 352.174167 
L 354.382174 352.174167 
L 354.534749 328.237626 
L 354.685964 349.202758 
L 354.837611 283.220892 
L 354.988333 289.847807 
L 355.140012 286.431759 
L 355.290709 303.377269 
L 355.441908 341.392494 
L 355.593999 317.796034 
L 355.744775 318.99023 
L 355.896476 315.067072 
L 356.047687 322.460084 
L 356.198695 349.939194 
L 356.349963 326.14944 
L 356.653979 352.174167 
L 356.805828 329.582036 
L 356.956927 345.089955 
L 357.108382 338.444542 
L 357.259654 352.174167 
L 357.411304 321.775411 
L 357.714659 338.019342 
L 357.865631 321.629544 
L 358.017108 341.413109 
L 358.319773 330.941929 
L 358.470607 352.174167 
L 358.621783 317.937447 
L 358.77646 323.773664 
L 359.080416 341.392494 
L 359.231797 324.68864 
L 359.383709 334.4137 
L 359.534583 321.257049 
L 359.685654 349.941337 
L 359.83675 327.216975 
L 359.987887 341.392494 
L 360.139098 337.660775 
L 360.290561 329.167768 
L 360.592895 352.174167 
L 360.744513 352.174167 
L 360.896526 288.593104 
L 361.048133 321.688059 
L 361.199109 314.660137 
L 361.350662 293.916029 
L 361.502228 330.322762 
L 361.654163 332.21267 
L 361.805659 318.830076 
L 361.956521 325.726993 
L 362.108827 347.008803 
L 362.261148 322.60158 
L 362.412837 343.28546 
L 362.564795 346.99403 
L 362.715795 326.447294 
L 363.020555 352.174167 
L 363.174148 317.453527 
L 363.477671 351.803096 
L 363.630137 321.580019 
L 363.782762 352.174167 
L 364.086078 352.174167 
L 364.237282 331.354386 
L 364.388504 347.350244 
L 364.54033 286.928058 
L 364.692589 299.732769 
L 364.845289 301.035315 
L 365.299893 343.987125 
L 365.450697 317.498817 
L 365.602327 339.569805 
L 365.753546 327.98518 
L 365.904928 340.299897 
L 366.057511 342.590458 
L 366.209484 323.628994 
L 366.361778 331.143756 
L 366.512687 349.199912 
L 366.815513 328.841311 
L 366.967334 348.100176 
L 367.118665 325.802918 
L 367.269914 338.431403 
L 367.422195 336.960258 
L 367.574648 327.846291 
L 367.726077 346.979173 
L 367.877106 317.598459 
L 368.029096 321.404695 
L 368.33265 349.956223 
L 368.484755 328.863554 
L 368.635803 340.571133 
L 368.938697 325.65063 
L 369.241814 342.50784 
L 369.393658 343.293933 
L 369.695937 337.274351 
L 369.847168 347.350244 
L 369.999361 333.30367 
L 370.150163 341.392494 
L 370.453472 329.145753 
L 370.604998 348.052987 
L 370.756188 322.83151 
L 370.908077 325.878408 
L 371.060057 351.434147 
L 371.211553 318.809679 
L 371.514441 326.199201 
L 371.665495 347.712785 
L 371.818958 323.925777 
L 371.970502 331.374309 
L 372.122382 326.716301 
L 372.273467 345.462809 
L 372.42442 322.803404 
L 372.57564 335.039378 
L 372.726906 316.854895 
L 372.877997 351.430603 
L 373.029121 318.309585 
L 373.332297 345.488498 
L 373.634691 312.355373 
L 373.785895 331.002883 
L 373.937005 325.354498 
L 374.240345 330.301891 
L 374.391453 321.257049 
L 374.542632 338.431403 
L 374.694318 333.798447 
L 374.846217 318.809679 
L 374.997104 348.084567 
L 375.299092 323.918749 
L 375.449859 323.464468 
L 375.751554 343.598543 
L 376.053986 320.292545 
L 376.355949 339.893604 
L 376.506947 324.237012 
L 376.657581 329.408251 
L 376.80816 327.915404 
L 377.109707 333.122049 
L 377.260412 336.141478 
L 377.412907 308.268573 
L 377.564223 340.637881 
L 378.017921 319.331534 
L 378.168536 325.676133 
L 378.31952 352.174167 
L 378.470736 329.473733 
L 378.621608 338.405051 
L 378.772231 336.872485 
L 378.92335 326.496627 
L 379.074244 331.68692 
L 379.225044 331.294386 
L 379.375917 349.194203 
L 379.677272 329.43012 
L 379.828168 351.801671 
L 379.979201 324.583028 
L 380.281779 348.449213 
L 380.434385 331.532332 
L 380.585346 352.174167 
L 380.736472 330.590148 
L 380.887648 332.488587 
L 381.03862 352.174167 
L 381.189472 327.58947 
L 381.341981 351.805212 
L 381.495729 327.321498 
L 381.646393 345.048888 
L 381.799 331.493052 
L 381.949997 330.982604 
L 382.101875 348.107936 
L 382.253435 323.945788 
L 382.404511 345.117072 
L 382.555788 344.359263 
L 382.706625 341.3718 
L 382.857268 347.322414 
L 383.007832 325.277059 
L 383.160036 325.953468 
L 383.310909 351.417558 
L 383.461708 330.569434 
L 383.762899 344.630139 
L 383.913446 318.926353 
L 384.064004 347.261 
L 384.214681 320.824381 
L 384.36548 335.75285 
L 384.516417 331.314424 
L 384.667684 314.660137 
L 384.818608 335.768625 
L 384.971336 328.930029 
L 385.123388 339.998666 
L 385.274098 339.497157 
L 385.424823 323.063651 
L 385.576017 327.636567 
L 385.726767 326.074441 
L 385.877416 338.365332 
L 386.02917 335.088569 
L 386.180164 324.68864 
L 386.330918 328.31156 
L 386.63211 345.829567 
L 386.782744 318.958322 
L 386.933334 339.858179 
L 387.084191 339.124304 
L 387.234797 330.901098 
L 387.385442 348.442049 
L 387.536657 332.078701 
L 387.838021 343.217085 
L 387.988663 326.795769 
L 388.139224 352.174167 
L 388.289783 323.782775 
L 388.440382 352.174167 
L 388.591148 321.973056 
L 388.741852 329.781462 
L 388.892826 348.072781 
L 389.044227 330.280981 
L 389.195788 332.078701 
L 389.3475 344.396548 
L 389.498651 333.602865 
L 389.649513 352.174167 
L 389.800388 336.156865 
L 389.95156 334.666883 
L 390.102569 346.969221 
L 390.405595 321.004208 
L 390.556581 341.774238 
L 391.011781 321.434055 
L 391.314151 333.974291 
L 391.465111 331.334424 
L 391.768041 323.683418 
L 391.920232 332.544939 
L 392.071391 331.394194 
L 392.222482 328.357318 
L 392.373506 327.98518 
L 392.524548 334.666883 
L 392.675369 325.75235 
L 392.826333 328.684414 
L 392.977 327.193001 
L 393.128426 351.058821 
L 393.279941 329.167768 
L 393.432585 332.269541 
L 393.584642 326.322773 
L 393.73542 347.327075 
L 393.887123 324.714917 
L 394.188453 351.801671 
L 394.33952 322.403106 
L 394.490344 324.955881 
L 394.642122 349.94561 
L 394.794147 328.538607 
L 394.946165 327.776782 
L 395.097111 352.174167 
L 395.247874 326.049345 
L 395.398724 330.0483 
L 395.549735 348.449213 
L 395.700467 327.915404 
L 396.003869 347.738279 
L 396.155225 322.83151 
L 396.608984 341.744295 
L 396.76025 323.891659 
L 397.063035 339.223826 
L 397.214114 338.405051 
L 397.365242 320.170276 
L 397.517024 344.396548 
L 397.66888 331.43385 
L 397.820008 335.800083 
L 398.122229 324.343846 
L 398.273151 351.42846 
L 398.424188 324.263797 
L 398.575406 351.406332 
L 398.72632 327.565854 
L 398.877392 341.754295 
L 399.03099 343.011272 
L 399.1829 336.294025 
L 399.333992 337.288636 
L 399.48603 342.563076 
L 399.637204 330.921533 
L 399.788228 331.745735 
L 399.939434 348.452784 
L 400.090562 326.124488 
L 400.241532 326.84448 
L 400.393219 336.604072 
L 400.544524 338.431403 
L 400.695426 319.394572 
L 400.846157 342.10713 
L 401.14762 331.667239 
L 401.298405 344.622801 
L 401.449281 332.431911 
L 401.600116 347.699928 
L 401.902918 331.063488 
L 402.053913 343.614987 
L 402.204909 330.196938 
L 402.506885 338.019342 
L 402.657736 351.802385 
L 402.808639 324.671661 
L 402.95983 352.174167 
L 403.11089 352.174167 
L 403.26207 301.935501 
L 403.412901 289.222444 
L 403.56369 263.062246 
L 403.716131 279.051654 
L 404.019542 352.174167 
L 405.843966 352.174167 
L 405.999655 349.642031 
L 406.151585 331.512711 
L 406.302981 343.994967 
L 406.454225 343.647687 
L 406.605172 352.174167 
L 406.755842 324.183286 
L 406.906656 342.10713 
L 407.058027 338.059977 
L 407.209078 343.987125 
L 407.510784 329.824443 
L 407.662133 348.080646 
L 407.81325 328.008349 
L 408.115293 343.979268 
L 408.266031 335.055807 
L 408.416764 337.632891 
L 408.567827 329.824443 
L 408.719218 329.495476 
L 408.870694 333.249549 
L 409.173903 345.847816 
L 409.476593 328.077592 
L 409.627646 348.080646 
L 409.930073 316.787104 
L 410.081106 336.960258 
L 410.232185 335.768625 
L 410.534329 323.147382 
L 410.836578 338.046458 
L 410.987833 332.097949 
L 411.140244 352.174167 
L 411.291032 323.519521 
L 411.593117 346.208515 
L 411.744103 335.443985 
L 411.895478 336.945699 
L 412.046634 343.606772 
L 412.197822 339.905367 
L 412.348628 324.237012 
L 412.499104 351.408604 
L 412.64967 330.486178 
L 412.800658 326.099489 
L 412.952064 351.402516 
L 413.102645 322.718762 
L 413.253819 344.359263 
L 413.40556 339.714413 
L 413.557909 351.439748 
L 413.861309 331.063488 
L 414.014318 347.400446 
L 414.165299 333.195115 
L 414.466989 343.598543 
L 414.617831 336.887184 
L 414.769698 338.828372 
L 415.072444 321.629544 
L 415.223247 342.852836 
L 415.374066 340.626809 
L 415.52488 310.747664 
L 415.675649 339.497157 
L 415.826472 319.767067 
L 415.977249 329.035039 
L 416.279011 322.002039 
L 416.429955 330.941929 
L 416.58086 322.74703 
L 416.883489 341.382157 
L 417.034345 327.915404 
L 417.185287 332.078701 
L 417.336178 333.158652 
L 417.487084 345.841745 
L 417.638594 338.405051 
L 417.789543 312.803007 
L 417.940555 351.781312 
L 418.091388 318.244523 
L 418.393172 340.912067 
L 418.543972 352.174167 
L 418.845813 299.27982 
L 418.996569 318.99023 
L 419.148366 305.093167 
L 419.299378 306.029022 
L 419.753185 342.479983 
L 419.904982 313.990364 
L 420.056607 324.76732 
L 420.208222 320.231528 
L 420.359964 345.501269 
L 420.512334 316.016619 
L 420.664009 327.013505 
L 420.815449 316.111331 
L 421.117512 336.156865 
L 421.268569 334.683668 
L 421.419444 339.497157 
L 421.570648 328.334461 
L 421.873754 337.660775 
L 422.024867 324.635935 
L 422.176558 339.940521 
L 422.327469 329.43012 
L 422.479477 339.617776 
L 422.933115 330.941929 
L 423.08395 326.447294 
L 423.235649 350.322353 
L 423.389229 320.287294 
L 423.540314 350.638498 
L 423.691526 322.803404 
L 423.842432 331.314424 
L 423.993645 352.174167 
L 424.144629 322.431622 
L 424.446677 345.110312 
L 424.597659 327.961966 
L 424.74858 326.84448 
L 424.899766 323.864516 
L 425.050839 345.110312 
L 425.201844 343.614987 
L 425.353864 324.423437 
L 425.806641 341.3718 
L 425.957495 336.141478 
L 426.108461 336.156865 
L 426.259904 334.700422 
L 426.410966 339.913074 
L 426.56194 334.31153 
L 426.71271 344.709932 
L 427.014113 328.661827 
L 427.170824 350.009816 
L 427.328579 335.156826 
L 427.485674 352.174167 
L 427.636594 352.174167 
L 427.787891 335.443985 
L 427.939251 297.255667 
L 428.543581 335.104903 
L 428.694906 321.746349 
L 428.845643 349.188473 
L 429.147785 319.519924 
L 429.299556 351.432734 
L 429.450534 329.451947 
L 429.601305 332.412946 
L 429.751974 352.174167 
L 429.902689 321.600202 
L 430.355165 340.98857 
L 430.505945 320.481643 
L 430.808504 330.590148 
L 430.959605 352.174167 
L 431.110444 322.74703 
L 431.26134 351.801671 
L 431.412391 336.141478 
L 431.564563 352.174167 
L 431.715539 332.078701 
L 431.866472 348.449213 
L 432.16905 332.450839 
L 432.319994 342.116791 
L 432.470726 332.767156 
L 432.621557 335.768625 
L 432.772412 346.21424 
L 432.92325 326.074441 
L 433.074119 331.314424 
L 433.224916 330.921533 
L 433.375798 344.344249 
L 433.528982 325.659845 
L 433.679949 338.431403 
L 433.830973 338.032913 
L 434.134428 322.030968 
L 434.436883 341.042038 
L 434.588084 348.824922 
L 434.891056 326.199201 
L 435.042266 326.917196 
L 435.194516 351.804509 
L 435.345509 328.357318 
L 435.49691 352.174167 
L 435.64821 320.200931 
L 435.799189 352.174167 
L 435.950172 333.921892 
L 436.101516 352.174167 
L 436.252907 332.469731 
L 436.404578 352.174167 
L 436.555826 325.457059 
L 436.707586 352.174167 
L 437.009804 343.259942 
L 437.160946 346.219954 
L 437.311936 329.824443 
L 437.462969 349.893225 
L 437.613959 332.059415 
L 437.765664 352.174167 
L 437.916765 326.917196 
L 438.218912 346.505128 
L 438.369733 318.99023 
L 438.520558 352.174167 
L 438.671496 323.492021 
L 438.822463 317.532095 
L 438.974126 319.180396 
L 439.125221 329.079452 
L 439.277282 352.174167 
L 439.428919 326.22401 
L 439.730719 344.717102 
L 439.881618 323.864516 
L 440.032475 349.191341 
L 440.485072 314.479781 
L 440.637203 318.165691 
L 440.787995 343.971396 
L 440.938873 309.709691 
L 441.240136 330.54868 
L 441.390679 329.408251 
L 441.541266 349.55917 
L 441.6923 330.196938 
L 441.843151 334.666883 
L 441.994055 343.971396 
L 442.146148 324.793447 
L 442.29785 330.322762 
L 442.449693 345.137274 
L 442.601523 324.76732 
L 442.752664 322.775244 
L 442.903735 350.685614 
L 443.055594 330.713602 
L 443.20654 326.471984 
L 443.357708 347.336369 
L 443.509714 325.558838 
L 443.965161 344.351763 
L 444.117354 333.166321 
L 444.269265 341.031386 
L 444.420145 342.489286 
L 444.571211 327.240903 
L 444.722446 343.987125 
L 445.02552 329.538839 
L 445.17689 352.174167 
L 445.328266 316.517267 
L 445.479321 320.139562 
L 445.933864 347.336369 
L 446.084834 318.649581 
L 446.235644 329.802973 
L 446.387678 327.383515 
L 446.539401 352.174167 
L 446.690511 323.519521 
L 446.841478 330.196938 
L 446.992476 320.884553 
L 447.143285 339.086587 
L 447.29445 333.921892 
L 447.445844 322.83151 
L 447.596997 322.403106 
L 447.749331 344.049443 
L 447.900448 335.475974 
L 448.051491 336.141478 
L 448.202478 338.046458 
L 448.353427 349.564194 
L 448.506086 327.869372 
L 448.656907 345.096754 
L 448.80903 334.783709 
L 449.111612 347.717054 
L 449.262986 334.75049 
L 449.415146 341.454104 
L 449.566634 329.123695 
L 449.717721 351.058821 
L 449.869056 328.774327 
L 450.019851 328.706957 
L 450.170821 345.835662 
L 450.321988 328.7193 
L 450.625538 343.931807 
L 450.777687 350.327639 
L 450.928516 335.411874 
L 451.079866 342.136058 
L 451.231136 338.019342 
L 451.382318 349.57667 
L 451.533659 333.974291 
L 451.684683 343.242848 
L 451.835905 342.879622 
L 451.986881 325.701588 
L 452.142209 352.174167 
L 452.293586 326.989497 
L 452.444689 339.881818 
L 452.59601 338.802829 
L 452.747083 329.451947 
L 453.049282 339.545682 
L 453.201 339.174255 
L 453.351852 320.572713 
L 453.654703 335.055807 
L 453.806457 331.043325 
L 453.958686 320.753293 
L 454.262635 345.507636 
L 454.565828 321.833369 
L 454.716737 337.660775 
L 454.867702 337.274351 
L 455.019247 332.136336 
L 455.170186 322.775244 
L 455.321089 335.768625 
L 455.472108 336.901855 
L 455.774272 320.170276 
L 455.925257 335.800083 
L 456.076191 326.099489 
L 456.228114 352.174167 
L 456.379769 322.460084 
L 456.53172 331.103698 
L 456.683474 325.878408 
L 456.835375 352.174167 
L 456.987105 324.026594 
L 457.138805 337.359655 
L 457.289631 339.881818 
L 457.441434 336.604072 
L 457.593148 349.581627 
L 457.745075 325.878408 
L 457.89727 326.66781 
L 458.048516 340.923726 
L 458.351533 328.841311 
L 458.503384 352.174167 
L 458.654302 350.970009 
L 458.805204 352.174167 
L 458.957216 315.543203 
L 459.109171 328.493544 
L 459.412249 314.563682 
L 459.715406 339.928826 
L 459.866304 338.751451 
L 460.017242 343.234277 
L 460.168193 326.471984 
L 460.319184 327.240903 
L 460.621202 338.751451 
L 460.772588 329.517179 
L 460.923537 337.274351 
L 461.074469 326.496627 
L 461.225382 352.174167 
L 461.376202 322.718762 
L 461.52689 330.54868 
L 461.677909 352.174167 
L 461.828827 326.471984 
L 461.979691 336.887184 
L 462.131252 338.444542 
L 462.28349 319.644321 
L 462.436296 329.364031 
L 462.587231 346.586736 
L 462.7382 326.124488 
L 462.889157 345.469249 
L 463.040946 336.633397 
L 463.191987 337.288636 
L 463.342948 346.959231 
L 463.645278 323.891659 
L 463.796253 347.708508 
L 463.947376 332.822977 
L 464.098219 330.196938 
L 464.249001 345.835662 
L 464.399914 341.6636 
L 464.550802 329.824443 
L 464.701852 348.076717 
L 464.852962 352.174167 
L 465.307148 352.174167 
L 465.458176 287.732463 
L 465.609053 305.984737 
L 465.760008 309.337196 
L 465.910888 327.58947 
L 466.062522 322.488491 
L 466.213302 330.196938 
L 466.364285 345.749256 
L 466.515926 338.815613 
L 466.666983 322.403106 
L 466.818085 339.149328 
L 466.969111 334.683668 
L 467.119906 339.87001 
L 467.270737 339.124304 
L 467.421581 347.327075 
L 467.572504 325.354498 
L 467.874535 342.50784 
L 468.176552 324.583028 
L 468.328501 349.216908 
L 468.630226 321.600202 
L 468.781005 323.436863 
L 469.082884 347.327075 
L 469.23351 332.785799 
L 469.384812 329.867258 
L 469.535772 338.751451 
L 469.686814 330.610822 
L 469.837731 331.706562 
L 469.988645 326.471984 
L 470.139299 344.717102 
L 470.29014 335.379639 
L 470.44066 335.006427 
L 470.592212 322.11742 
L 470.744831 347.008803 
L 470.895585 324.609507 
L 471.046203 333.51358 
L 471.197 323.091615 
L 471.347492 350.679883 
L 471.498059 321.167779 
L 471.648639 342.834893 
L 472.100256 319.642184 
L 472.252111 338.470743 
L 472.40272 342.843873 
L 472.553501 352.174167 
L 472.704051 334.616333 
L 472.854568 352.174167 
L 473.005224 305.895911 
L 473.155719 310.707792 
L 473.306385 323.828972 
L 473.457082 352.174167 
L 473.608689 352.174167 
L 473.760879 327.823165 
L 473.911422 343.208464 
L 474.062317 274.620696 
L 474.212874 278.278243 
L 474.363578 270.067585 
L 474.514082 283.437114 
L 474.664736 310.00124 
L 474.81539 310.374452 
L 474.965827 293.8971 
L 475.117873 324.026594 
L 475.268948 321.658829 
L 475.419855 323.864516 
L 475.570671 317.125964 
L 475.721308 337.992121 
L 475.871973 331.274309 
L 476.022756 342.852836 
L 476.173643 312.689654 
L 476.324418 332.393945 
L 476.475914 285.317481 
L 476.778352 310.454682 
L 476.930736 314.909755 
L 477.384399 282.450614 
L 477.535915 311.727434 
L 477.686777 295.87333 
L 477.837662 337.632891 
L 478.139803 306.729728 
L 478.291038 319.053861 
L 478.442723 311.804622 
L 478.593759 333.921892 
L 478.744937 307.56035 
L 479.048355 322.146128 
L 479.200088 302.821731 
L 479.351903 305.182931 
L 479.503351 295.50866 
L 479.655046 307.688183 
L 479.958452 352.174167 
L 480.110204 352.174167 
L 480.261737 329.560458 
L 480.413164 349.569199 
L 480.564139 268.52326 
L 480.715086 268.655045 
L 480.866692 239.476342 
L 481.322347 343.69627 
L 481.474865 345.907896 
L 481.780283 325.609438 
L 481.932315 347.746712 
L 482.084448 327.383515 
L 482.236077 334.4137 
L 482.387239 325.328735 
L 482.538179 345.117072 
L 482.69015 339.952195 
L 482.842124 329.211674 
L 482.993939 331.103698 
L 483.146034 351.804157 
L 483.298176 312.990489 
L 483.450252 307.402989 
L 483.602344 319.274664 
L 483.754007 316.180285 
L 484.057946 338.496845 
L 484.209953 315.50825 
L 484.362097 318.19805 
L 484.514171 338.483807 
L 484.665955 319.613311 
L 484.969743 330.774802 
L 485.12274 346.65035 
L 485.274633 331.473356 
L 485.426395 338.086939 
L 485.577796 313.137077 
L 485.728613 325.034095 
L 485.879619 301.838981 
L 486.183065 338.904416 
L 486.334332 328.4029 
L 486.485662 330.982604 
L 486.637255 343.655822 
L 486.788917 325.060066 
L 486.940493 338.802829 
L 487.091656 326.174344 
L 487.24291 331.726167 
L 487.394286 325.060066 
L 487.54551 338.431403 
L 487.696788 326.521222 
L 487.999454 352.174167 
L 488.45349 330.590148 
L 488.604541 343.606772 
L 488.755265 304.076101 
L 488.905916 310.00124 
L 489.056987 341.351026 
L 489.20847 339.136828 
L 489.359659 321.004208 
L 489.512118 350.698348 
L 489.664262 329.255412 
L 489.816619 331.143756 
L 489.968833 316.754528 
L 490.119829 346.964231 
L 490.270736 324.982003 
L 490.421503 324.556498 
L 490.723194 340.615717 
L 491.027338 318.503281 
L 491.179145 345.520335 
L 491.33027 321.197593 
L 491.481288 319.735936 
L 491.783911 342.87071 
L 491.935496 324.824519 
L 492.086366 326.471984 
L 492.239178 343.69627 
L 492.391468 322.685832 
L 492.694166 339.940521 
L 492.845166 322.345909 
L 492.996268 340.637881 
L 493.147132 322.374535 
L 493.297998 344.717102 
L 493.449296 346.225658 
L 493.751786 329.867258 
L 493.903435 330.610822 
L 494.054508 348.837718 
L 494.205856 317.226677 
L 494.35691 352.174167 
L 494.508126 352.174167 
L 494.659075 338.405051 
L 494.813889 341.250896 
L 494.964926 341.020712 
L 495.116788 308.471357 
L 495.268345 302.868868 
L 495.419335 317.565308 
L 495.571009 347.725568 
L 495.571009 347.725568 
" style="fill:none;stroke:#1f77b4;stroke-linecap:square;stroke-width:1.5;"/>
   </g>
   <g id="patch_3">
    <path d="M 66.158594 352.174167 
L 66.158594 35.0625 
" style="fill:none;stroke:#000000;stroke-linecap:square;stroke-linejoin:miter;stroke-width:0.8;"/>
   </g>
   <g id="patch_4">
    <path d="M 516.019219 352.174167 
L 516.019219 35.0625 
" style="fill:none;stroke:#000000;stroke-linecap:square;stroke-linejoin:miter;stroke-width:0.8;"/>
   </g>
   <g id="patch_5">
    <path d="M 66.158594 352.174167 
L 516.019219 352.174167 
" style="fill:none;stroke:#000000;stroke-linecap:square;stroke-linejoin:miter;stroke-width:0.8;"/>
   </g>
   <g id="patch_6">
    <path d="M 66.158594 35.0625 
L 516.019219 35.0625 
" style="fill:none;stroke:#000000;stroke-linecap:square;stroke-linejoin:miter;stroke-width:0.8;"/>
   </g>
   <g id="legend_1">
    <g id="patch_7">
     <path d="M 540.51225 53.01875 
L 620.748187 53.01875 
Q 622.748187 53.01875 622.748187 51.01875 
L 622.748187 37.0625 
Q 622.748187 35.0625 620.748187 35.0625 
L 540.51225 35.0625 
Q 538.51225 35.0625 538.51225 37.0625 
L 538.51225 51.01875 
Q 538.51225 53.01875 540.51225 53.01875 
z
" style="fill:#ffffff;opacity:0.8;stroke:#cccccc;stroke-linejoin:miter;"/>
    </g>
    <g id="line2d_17">
     <path d="M 542.51225 43.160937 
L 562.51225 43.160937 
" style="fill:none;stroke:#1f77b4;stroke-linecap:square;stroke-width:1.5;"/>
    </g>
    <g id="line2d_18"/>
    <g id="text_17">
     <!-- drop_rate -->
     <defs>
      <path d="M 50.984375 -16.609375 
L 50.984375 -23.578125 
L -0.984375 -23.578125 
L -0.984375 -16.609375 
z
" id="DejaVuSans-95"/>
     </defs>
     <g transform="translate(570.51225 46.660937)scale(0.1 -0.1)">
      <use xlink:href="#DejaVuSans-100"/>
      <use x="63.476562" xlink:href="#DejaVuSans-114"/>
      <use x="104.558594" xlink:href="#DejaVuSans-111"/>
      <use x="165.740234" xlink:href="#DejaVuSans-112"/>
      <use x="229.216797" xlink:href="#DejaVuSans-95"/>
      <use x="279.216797" xlink:href="#DejaVuSans-114"/>
      <use x="320.330078" xlink:href="#DejaVuSans-97"/>
      <use x="381.609375" xlink:href="#DejaVuSans-116"/>
      <use x="420.818359" xlink:href="#DejaVuSans-101"/>
     </g>
    </g>
   </g>
  </g>
  <g id="text_18">
   <!-- result droprate -->
   <defs>
    <path d="M 44.28125 53.078125 
L 44.28125 44.578125 
Q 40.484375 46.53125 36.375 47.5 
Q 32.28125 48.484375 27.875 48.484375 
Q 21.1875 48.484375 17.84375 46.4375 
Q 14.5 44.390625 14.5 40.28125 
Q 14.5 37.15625 16.890625 35.375 
Q 19.28125 33.59375 26.515625 31.984375 
L 29.59375 31.296875 
Q 39.15625 29.25 43.1875 25.515625 
Q 47.21875 21.78125 47.21875 15.09375 
Q 47.21875 7.46875 41.1875 3.015625 
Q 35.15625 -1.421875 24.609375 -1.421875 
Q 20.21875 -1.421875 15.453125 -0.5625 
Q 10.6875 0.296875 5.421875 2 
L 5.421875 11.28125 
Q 10.40625 8.6875 15.234375 7.390625 
Q 20.0625 6.109375 24.8125 6.109375 
Q 31.15625 6.109375 34.5625 8.28125 
Q 37.984375 10.453125 37.984375 14.40625 
Q 37.984375 18.0625 35.515625 20.015625 
Q 33.0625 21.96875 24.703125 23.78125 
L 21.578125 24.515625 
Q 13.234375 26.265625 9.515625 29.90625 
Q 5.8125 33.546875 5.8125 39.890625 
Q 5.8125 47.609375 11.28125 51.796875 
Q 16.75 56 26.8125 56 
Q 31.78125 56 36.171875 55.265625 
Q 40.578125 54.546875 44.28125 53.078125 
z
" id="DejaVuSans-115"/>
    <path d="M 8.5 21.578125 
L 8.5 54.6875 
L 17.484375 54.6875 
L 17.484375 21.921875 
Q 17.484375 14.15625 20.5 10.265625 
Q 23.53125 6.390625 29.59375 6.390625 
Q 36.859375 6.390625 41.078125 11.03125 
Q 45.3125 15.671875 45.3125 23.6875 
L 45.3125 54.6875 
L 54.296875 54.6875 
L 54.296875 0 
L 45.3125 0 
L 45.3125 8.40625 
Q 42.046875 3.421875 37.71875 1 
Q 33.40625 -1.421875 27.6875 -1.421875 
Q 18.265625 -1.421875 13.375 4.4375 
Q 8.5 10.296875 8.5 21.578125 
z
M 31.109375 56 
z
" id="DejaVuSans-117"/>
    <path d="M 9.421875 75.984375 
L 18.40625 75.984375 
L 18.40625 0 
L 9.421875 0 
z
" id="DejaVuSans-108"/>
    <path id="DejaVuSans-32"/>
   </defs>
   <g transform="translate(297.047813 17.038125)scale(0.12 -0.12)">
    <use xlink:href="#DejaVuSans-114"/>
    <use x="41.082031" xlink:href="#DejaVuSans-101"/>
    <use x="102.605469" xlink:href="#DejaVuSans-115"/>
    <use x="154.705078" xlink:href="#DejaVuSans-117"/>
    <use x="218.083984" xlink:href="#DejaVuSans-108"/>
    <use x="245.867188" xlink:href="#DejaVuSans-116"/>
    <use x="285.076172" xlink:href="#DejaVuSans-32"/>
    <use x="316.863281" xlink:href="#DejaVuSans-100"/>
    <use x="380.339844" xlink:href="#DejaVuSans-114"/>
    <use x="421.421875" xlink:href="#DejaVuSans-111"/>
    <use x="482.603516" xlink:href="#DejaVuSans-112"/>
    <use x="546.080078" xlink:href="#DejaVuSans-114"/>
    <use x="587.193359" xlink:href="#DejaVuSans-97"/>
    <use x="648.472656" xlink:href="#DejaVuSans-116"/>
    <use x="687.681641" xlink:href="#DejaVuSans-101"/>
   </g>
  </g>
 </g>
 <defs>
  <clipPath id="p15b5012fba">
   <rect height="317.111667" width="449.860625" x="66.158594" y="35.0625"/>
  </clipPath>
 </defs>
</svg>
