<?xml version="1.0" encoding="utf-8" standalone="no"?>
<!DOCTYPE svg PUBLIC "-//W3C//DTD SVG 1.1//EN"
  "http://www.w3.org/Graphics/SVG/1.1/DTD/svg11.dtd">
<!-- Created with matplotlib (https://matplotlib.org/) -->
<svg height="396pt" version="1.1" viewBox="0 0 684 396" width="684pt" xmlns="http://www.w3.org/2000/svg" xmlns:xlink="http://www.w3.org/1999/xlink">
 <defs>
  <style type="text/css">
*{stroke-linecap:butt;stroke-linejoin:round;}
  </style>
 </defs>
 <g id="figure_1">
  <g id="patch_1">
   <path d="M 0 396 
L 684 396 
L 684 0 
L 0 0 
z
" style="fill:#ffffff;"/>
  </g>
  <g id="axes_1">
   <g id="patch_2">
    <path d="M 83.472344 352.174167 
L 488.365312 352.174167 
L 488.365312 35.0625 
L 83.472344 35.0625 
z
" style="fill:#ffffff;"/>
   </g>
   <g id="matplotlib.axis_1">
    <g id="xtick_1">
     <g id="line2d_1">
      <defs>
       <path d="M 0 0 
L 0 3.5 
" id="m878b38f81b" style="stroke:#000000;stroke-width:0.8;"/>
      </defs>
      <g>
       <use style="stroke:#000000;stroke-width:0.8;" x="101.849856" xlink:href="#m878b38f81b" y="352.174167"/>
      </g>
     </g>
     <g id="text_1">
      <!-- 0 -->
      <defs>
       <path d="M 31.78125 66.40625 
Q 24.171875 66.40625 20.328125 58.90625 
Q 16.5 51.421875 16.5 36.375 
Q 16.5 21.390625 20.328125 13.890625 
Q 24.171875 6.390625 31.78125 6.390625 
Q 39.453125 6.390625 43.28125 13.890625 
Q 47.125 21.390625 47.125 36.375 
Q 47.125 51.421875 43.28125 58.90625 
Q 39.453125 66.40625 31.78125 66.40625 
z
M 31.78125 74.21875 
Q 44.046875 74.21875 50.515625 64.515625 
Q 56.984375 54.828125 56.984375 36.375 
Q 56.984375 17.96875 50.515625 8.265625 
Q 44.046875 -1.421875 31.78125 -1.421875 
Q 19.53125 -1.421875 13.0625 8.265625 
Q 6.59375 17.96875 6.59375 36.375 
Q 6.59375 54.828125 13.0625 64.515625 
Q 19.53125 74.21875 31.78125 74.21875 
z
" id="DejaVuSans-48"/>
      </defs>
      <g transform="translate(98.668606 366.772604)scale(0.1 -0.1)">
       <use xlink:href="#DejaVuSans-48"/>
      </g>
     </g>
    </g>
    <g id="xtick_2">
     <g id="line2d_2">
      <g>
       <use style="stroke:#000000;stroke-width:0.8;" x="168.632977" xlink:href="#m878b38f81b" y="352.174167"/>
      </g>
     </g>
     <g id="text_2">
      <!-- 50 -->
      <defs>
       <path d="M 10.796875 72.90625 
L 49.515625 72.90625 
L 49.515625 64.59375 
L 19.828125 64.59375 
L 19.828125 46.734375 
Q 21.96875 47.46875 24.109375 47.828125 
Q 26.265625 48.1875 28.421875 48.1875 
Q 40.625 48.1875 47.75 41.5 
Q 54.890625 34.8125 54.890625 23.390625 
Q 54.890625 11.625 47.5625 5.09375 
Q 40.234375 -1.421875 26.90625 -1.421875 
Q 22.3125 -1.421875 17.546875 -0.640625 
Q 12.796875 0.140625 7.71875 1.703125 
L 7.71875 11.625 
Q 12.109375 9.234375 16.796875 8.0625 
Q 21.484375 6.890625 26.703125 6.890625 
Q 35.15625 6.890625 40.078125 11.328125 
Q 45.015625 15.765625 45.015625 23.390625 
Q 45.015625 31 40.078125 35.4375 
Q 35.15625 39.890625 26.703125 39.890625 
Q 22.75 39.890625 18.8125 39.015625 
Q 14.890625 38.140625 10.796875 36.28125 
z
" id="DejaVuSans-53"/>
      </defs>
      <g transform="translate(162.270477 366.772604)scale(0.1 -0.1)">
       <use xlink:href="#DejaVuSans-53"/>
       <use x="63.623047" xlink:href="#DejaVuSans-48"/>
      </g>
     </g>
    </g>
    <g id="xtick_3">
     <g id="line2d_3">
      <g>
       <use style="stroke:#000000;stroke-width:0.8;" x="235.416097" xlink:href="#m878b38f81b" y="352.174167"/>
      </g>
     </g>
     <g id="text_3">
      <!-- 100 -->
      <defs>
       <path d="M 12.40625 8.296875 
L 28.515625 8.296875 
L 28.515625 63.921875 
L 10.984375 60.40625 
L 10.984375 69.390625 
L 28.421875 72.90625 
L 38.28125 72.90625 
L 38.28125 8.296875 
L 54.390625 8.296875 
L 54.390625 0 
L 12.40625 0 
z
" id="DejaVuSans-49"/>
      </defs>
      <g transform="translate(225.872347 366.772604)scale(0.1 -0.1)">
       <use xlink:href="#DejaVuSans-49"/>
       <use x="63.623047" xlink:href="#DejaVuSans-48"/>
       <use x="127.246094" xlink:href="#DejaVuSans-48"/>
      </g>
     </g>
    </g>
    <g id="xtick_4">
     <g id="line2d_4">
      <g>
       <use style="stroke:#000000;stroke-width:0.8;" x="302.199217" xlink:href="#m878b38f81b" y="352.174167"/>
      </g>
     </g>
     <g id="text_4">
      <!-- 150 -->
      <g transform="translate(292.655467 366.772604)scale(0.1 -0.1)">
       <use xlink:href="#DejaVuSans-49"/>
       <use x="63.623047" xlink:href="#DejaVuSans-53"/>
       <use x="127.246094" xlink:href="#DejaVuSans-48"/>
      </g>
     </g>
    </g>
    <g id="xtick_5">
     <g id="line2d_5">
      <g>
       <use style="stroke:#000000;stroke-width:0.8;" x="368.982337" xlink:href="#m878b38f81b" y="352.174167"/>
      </g>
     </g>
     <g id="text_5">
      <!-- 200 -->
      <defs>
       <path d="M 19.1875 8.296875 
L 53.609375 8.296875 
L 53.609375 0 
L 7.328125 0 
L 7.328125 8.296875 
Q 12.9375 14.109375 22.625 23.890625 
Q 32.328125 33.6875 34.8125 36.53125 
Q 39.546875 41.84375 41.421875 45.53125 
Q 43.3125 49.21875 43.3125 52.78125 
Q 43.3125 58.59375 39.234375 62.25 
Q 35.15625 65.921875 28.609375 65.921875 
Q 23.96875 65.921875 18.8125 64.3125 
Q 13.671875 62.703125 7.8125 59.421875 
L 7.8125 69.390625 
Q 13.765625 71.78125 18.9375 73 
Q 24.125 74.21875 28.421875 74.21875 
Q 39.75 74.21875 46.484375 68.546875 
Q 53.21875 62.890625 53.21875 53.421875 
Q 53.21875 48.921875 51.53125 44.890625 
Q 49.859375 40.875 45.40625 35.40625 
Q 44.1875 33.984375 37.640625 27.21875 
Q 31.109375 20.453125 19.1875 8.296875 
z
" id="DejaVuSans-50"/>
      </defs>
      <g transform="translate(359.438587 366.772604)scale(0.1 -0.1)">
       <use xlink:href="#DejaVuSans-50"/>
       <use x="63.623047" xlink:href="#DejaVuSans-48"/>
       <use x="127.246094" xlink:href="#DejaVuSans-48"/>
      </g>
     </g>
    </g>
    <g id="xtick_6">
     <g id="line2d_6">
      <g>
       <use style="stroke:#000000;stroke-width:0.8;" x="435.765458" xlink:href="#m878b38f81b" y="352.174167"/>
      </g>
     </g>
     <g id="text_6">
      <!-- 250 -->
      <g transform="translate(426.221708 366.772604)scale(0.1 -0.1)">
       <use xlink:href="#DejaVuSans-50"/>
       <use x="63.623047" xlink:href="#DejaVuSans-53"/>
       <use x="127.246094" xlink:href="#DejaVuSans-48"/>
      </g>
     </g>
    </g>
   </g>
   <g id="matplotlib.axis_2">
    <g id="ytick_1">
     <g id="line2d_7">
      <defs>
       <path d="M 0 0 
L -3.5 0 
" id="m1739195efb" style="stroke:#000000;stroke-width:0.8;"/>
      </defs>
      <g>
       <use style="stroke:#000000;stroke-width:0.8;" x="83.472344" xlink:href="#m1739195efb" y="352.174167"/>
      </g>
     </g>
     <g id="text_7">
      <!-- 0 -->
      <g transform="translate(70.109844 355.973385)scale(0.1 -0.1)">
       <use xlink:href="#DejaVuSans-48"/>
      </g>
     </g>
    </g>
    <g id="ytick_2">
     <g id="line2d_8">
      <g>
       <use style="stroke:#000000;stroke-width:0.8;" x="83.472344" xlink:href="#m1739195efb" y="313.454793"/>
      </g>
     </g>
     <g id="text_8">
      <!-- 5 -->
      <g transform="translate(70.109844 317.254012)scale(0.1 -0.1)">
       <use xlink:href="#DejaVuSans-53"/>
      </g>
     </g>
    </g>
    <g id="ytick_3">
     <g id="line2d_9">
      <g>
       <use style="stroke:#000000;stroke-width:0.8;" x="83.472344" xlink:href="#m1739195efb" y="274.73542"/>
      </g>
     </g>
     <g id="text_9">
      <!-- 10 -->
      <g transform="translate(63.747344 278.534639)scale(0.1 -0.1)">
       <use xlink:href="#DejaVuSans-49"/>
       <use x="63.623047" xlink:href="#DejaVuSans-48"/>
      </g>
     </g>
    </g>
    <g id="ytick_4">
     <g id="line2d_10">
      <g>
       <use style="stroke:#000000;stroke-width:0.8;" x="83.472344" xlink:href="#m1739195efb" y="236.016047"/>
      </g>
     </g>
     <g id="text_10">
      <!-- 15 -->
      <g transform="translate(63.747344 239.815266)scale(0.1 -0.1)">
       <use xlink:href="#DejaVuSans-49"/>
       <use x="63.623047" xlink:href="#DejaVuSans-53"/>
      </g>
     </g>
    </g>
    <g id="ytick_5">
     <g id="line2d_11">
      <g>
       <use style="stroke:#000000;stroke-width:0.8;" x="83.472344" xlink:href="#m1739195efb" y="197.296674"/>
      </g>
     </g>
     <g id="text_11">
      <!-- 20 -->
      <g transform="translate(63.747344 201.095893)scale(0.1 -0.1)">
       <use xlink:href="#DejaVuSans-50"/>
       <use x="63.623047" xlink:href="#DejaVuSans-48"/>
      </g>
     </g>
    </g>
    <g id="ytick_6">
     <g id="line2d_12">
      <g>
       <use style="stroke:#000000;stroke-width:0.8;" x="83.472344" xlink:href="#m1739195efb" y="158.577301"/>
      </g>
     </g>
     <g id="text_12">
      <!-- 25 -->
      <g transform="translate(63.747344 162.376519)scale(0.1 -0.1)">
       <use xlink:href="#DejaVuSans-50"/>
       <use x="63.623047" xlink:href="#DejaVuSans-53"/>
      </g>
     </g>
    </g>
    <g id="ytick_7">
     <g id="line2d_13">
      <g>
       <use style="stroke:#000000;stroke-width:0.8;" x="83.472344" xlink:href="#m1739195efb" y="119.857927"/>
      </g>
     </g>
     <g id="text_13">
      <!-- 30 -->
      <defs>
       <path d="M 40.578125 39.3125 
Q 47.65625 37.796875 51.625 33 
Q 55.609375 28.21875 55.609375 21.1875 
Q 55.609375 10.40625 48.1875 4.484375 
Q 40.765625 -1.421875 27.09375 -1.421875 
Q 22.515625 -1.421875 17.65625 -0.515625 
Q 12.796875 0.390625 7.625 2.203125 
L 7.625 11.71875 
Q 11.71875 9.328125 16.59375 8.109375 
Q 21.484375 6.890625 26.8125 6.890625 
Q 36.078125 6.890625 40.9375 10.546875 
Q 45.796875 14.203125 45.796875 21.1875 
Q 45.796875 27.640625 41.28125 31.265625 
Q 36.765625 34.90625 28.71875 34.90625 
L 20.21875 34.90625 
L 20.21875 43.015625 
L 29.109375 43.015625 
Q 36.375 43.015625 40.234375 45.921875 
Q 44.09375 48.828125 44.09375 54.296875 
Q 44.09375 59.90625 40.109375 62.90625 
Q 36.140625 65.921875 28.71875 65.921875 
Q 24.65625 65.921875 20.015625 65.03125 
Q 15.375 64.15625 9.8125 62.3125 
L 9.8125 71.09375 
Q 15.4375 72.65625 20.34375 73.4375 
Q 25.25 74.21875 29.59375 74.21875 
Q 40.828125 74.21875 47.359375 69.109375 
Q 53.90625 64.015625 53.90625 55.328125 
Q 53.90625 49.265625 50.4375 45.09375 
Q 46.96875 40.921875 40.578125 39.3125 
z
" id="DejaVuSans-51"/>
      </defs>
      <g transform="translate(63.747344 123.657146)scale(0.1 -0.1)">
       <use xlink:href="#DejaVuSans-51"/>
       <use x="63.623047" xlink:href="#DejaVuSans-48"/>
      </g>
     </g>
    </g>
    <g id="ytick_8">
     <g id="line2d_14">
      <g>
       <use style="stroke:#000000;stroke-width:0.8;" x="83.472344" xlink:href="#m1739195efb" y="81.138554"/>
      </g>
     </g>
     <g id="text_14">
      <!-- 35 -->
      <g transform="translate(63.747344 84.937773)scale(0.1 -0.1)">
       <use xlink:href="#DejaVuSans-51"/>
       <use x="63.623047" xlink:href="#DejaVuSans-53"/>
      </g>
     </g>
    </g>
    <g id="ytick_9">
     <g id="line2d_15">
      <g>
       <use style="stroke:#000000;stroke-width:0.8;" x="83.472344" xlink:href="#m1739195efb" y="42.419181"/>
      </g>
     </g>
     <g id="text_15">
      <!-- 40 -->
      <defs>
       <path d="M 37.796875 64.3125 
L 12.890625 25.390625 
L 37.796875 25.390625 
z
M 35.203125 72.90625 
L 47.609375 72.90625 
L 47.609375 25.390625 
L 58.015625 25.390625 
L 58.015625 17.1875 
L 47.609375 17.1875 
L 47.609375 0 
L 37.796875 0 
L 37.796875 17.1875 
L 4.890625 17.1875 
L 4.890625 26.703125 
z
" id="DejaVuSans-52"/>
      </defs>
      <g transform="translate(63.747344 46.2184)scale(0.1 -0.1)">
       <use xlink:href="#DejaVuSans-52"/>
       <use x="63.623047" xlink:href="#DejaVuSans-48"/>
      </g>
     </g>
    </g>
    <g id="text_16">
     <!-- throughput -->
     <defs>
      <path d="M 18.3125 70.21875 
L 18.3125 54.6875 
L 36.8125 54.6875 
L 36.8125 47.703125 
L 18.3125 47.703125 
L 18.3125 18.015625 
Q 18.3125 11.328125 20.140625 9.421875 
Q 21.96875 7.515625 27.59375 7.515625 
L 36.8125 7.515625 
L 36.8125 0 
L 27.59375 0 
Q 17.1875 0 13.234375 3.875 
Q 9.28125 7.765625 9.28125 18.015625 
L 9.28125 47.703125 
L 2.6875 47.703125 
L 2.6875 54.6875 
L 9.28125 54.6875 
L 9.28125 70.21875 
z
" id="DejaVuSans-116"/>
      <path d="M 54.890625 33.015625 
L 54.890625 0 
L 45.90625 0 
L 45.90625 32.71875 
Q 45.90625 40.484375 42.875 44.328125 
Q 39.84375 48.1875 33.796875 48.1875 
Q 26.515625 48.1875 22.3125 43.546875 
Q 18.109375 38.921875 18.109375 30.90625 
L 18.109375 0 
L 9.078125 0 
L 9.078125 75.984375 
L 18.109375 75.984375 
L 18.109375 46.1875 
Q 21.34375 51.125 25.703125 53.5625 
Q 30.078125 56 35.796875 56 
Q 45.21875 56 50.046875 50.171875 
Q 54.890625 44.34375 54.890625 33.015625 
z
" id="DejaVuSans-104"/>
      <path d="M 41.109375 46.296875 
Q 39.59375 47.171875 37.8125 47.578125 
Q 36.03125 48 33.890625 48 
Q 26.265625 48 22.1875 43.046875 
Q 18.109375 38.09375 18.109375 28.8125 
L 18.109375 0 
L 9.078125 0 
L 9.078125 54.6875 
L 18.109375 54.6875 
L 18.109375 46.1875 
Q 20.953125 51.171875 25.484375 53.578125 
Q 30.03125 56 36.53125 56 
Q 37.453125 56 38.578125 55.875 
Q 39.703125 55.765625 41.0625 55.515625 
z
" id="DejaVuSans-114"/>
      <path d="M 30.609375 48.390625 
Q 23.390625 48.390625 19.1875 42.75 
Q 14.984375 37.109375 14.984375 27.296875 
Q 14.984375 17.484375 19.15625 11.84375 
Q 23.34375 6.203125 30.609375 6.203125 
Q 37.796875 6.203125 41.984375 11.859375 
Q 46.1875 17.53125 46.1875 27.296875 
Q 46.1875 37.015625 41.984375 42.703125 
Q 37.796875 48.390625 30.609375 48.390625 
z
M 30.609375 56 
Q 42.328125 56 49.015625 48.375 
Q 55.71875 40.765625 55.71875 27.296875 
Q 55.71875 13.875 49.015625 6.21875 
Q 42.328125 -1.421875 30.609375 -1.421875 
Q 18.84375 -1.421875 12.171875 6.21875 
Q 5.515625 13.875 5.515625 27.296875 
Q 5.515625 40.765625 12.171875 48.375 
Q 18.84375 56 30.609375 56 
z
" id="DejaVuSans-111"/>
      <path d="M 8.5 21.578125 
L 8.5 54.6875 
L 17.484375 54.6875 
L 17.484375 21.921875 
Q 17.484375 14.15625 20.5 10.265625 
Q 23.53125 6.390625 29.59375 6.390625 
Q 36.859375 6.390625 41.078125 11.03125 
Q 45.3125 15.671875 45.3125 23.6875 
L 45.3125 54.6875 
L 54.296875 54.6875 
L 54.296875 0 
L 45.3125 0 
L 45.3125 8.40625 
Q 42.046875 3.421875 37.71875 1 
Q 33.40625 -1.421875 27.6875 -1.421875 
Q 18.265625 -1.421875 13.375 4.4375 
Q 8.5 10.296875 8.5 21.578125 
z
M 31.109375 56 
z
" id="DejaVuSans-117"/>
      <path d="M 45.40625 27.984375 
Q 45.40625 37.75 41.375 43.109375 
Q 37.359375 48.484375 30.078125 48.484375 
Q 22.859375 48.484375 18.828125 43.109375 
Q 14.796875 37.75 14.796875 27.984375 
Q 14.796875 18.265625 18.828125 12.890625 
Q 22.859375 7.515625 30.078125 7.515625 
Q 37.359375 7.515625 41.375 12.890625 
Q 45.40625 18.265625 45.40625 27.984375 
z
M 54.390625 6.78125 
Q 54.390625 -7.171875 48.1875 -13.984375 
Q 42 -20.796875 29.203125 -20.796875 
Q 24.46875 -20.796875 20.265625 -20.09375 
Q 16.0625 -19.390625 12.109375 -17.921875 
L 12.109375 -9.1875 
Q 16.0625 -11.328125 19.921875 -12.34375 
Q 23.78125 -13.375 27.78125 -13.375 
Q 36.625 -13.375 41.015625 -8.765625 
Q 45.40625 -4.15625 45.40625 5.171875 
L 45.40625 9.625 
Q 42.625 4.78125 38.28125 2.390625 
Q 33.9375 0 27.875 0 
Q 17.828125 0 11.671875 7.65625 
Q 5.515625 15.328125 5.515625 27.984375 
Q 5.515625 40.671875 11.671875 48.328125 
Q 17.828125 56 27.875 56 
Q 33.9375 56 38.28125 53.609375 
Q 42.625 51.21875 45.40625 46.390625 
L 45.40625 54.6875 
L 54.390625 54.6875 
z
" id="DejaVuSans-103"/>
      <path d="M 18.109375 8.203125 
L 18.109375 -20.796875 
L 9.078125 -20.796875 
L 9.078125 54.6875 
L 18.109375 54.6875 
L 18.109375 46.390625 
Q 20.953125 51.265625 25.265625 53.625 
Q 29.59375 56 35.59375 56 
Q 45.5625 56 51.78125 48.09375 
Q 58.015625 40.1875 58.015625 27.296875 
Q 58.015625 14.40625 51.78125 6.484375 
Q 45.5625 -1.421875 35.59375 -1.421875 
Q 29.59375 -1.421875 25.265625 0.953125 
Q 20.953125 3.328125 18.109375 8.203125 
z
M 48.6875 27.296875 
Q 48.6875 37.203125 44.609375 42.84375 
Q 40.53125 48.484375 33.40625 48.484375 
Q 26.265625 48.484375 22.1875 42.84375 
Q 18.109375 37.203125 18.109375 27.296875 
Q 18.109375 17.390625 22.1875 11.75 
Q 26.265625 6.109375 33.40625 6.109375 
Q 40.53125 6.109375 44.609375 11.75 
Q 48.6875 17.390625 48.6875 27.296875 
z
" id="DejaVuSans-112"/>
     </defs>
     <g transform="translate(46.469844 221.675365)rotate(-90)scale(0.1 -0.1)">
      <use xlink:href="#DejaVuSans-116"/>
      <use x="39.208984" xlink:href="#DejaVuSans-104"/>
      <use x="102.587891" xlink:href="#DejaVuSans-114"/>
      <use x="143.669922" xlink:href="#DejaVuSans-111"/>
      <use x="204.851562" xlink:href="#DejaVuSans-117"/>
      <use x="268.230469" xlink:href="#DejaVuSans-103"/>
      <use x="331.707031" xlink:href="#DejaVuSans-104"/>
      <use x="395.085938" xlink:href="#DejaVuSans-112"/>
      <use x="458.5625" xlink:href="#DejaVuSans-117"/>
      <use x="521.941406" xlink:href="#DejaVuSans-116"/>
     </g>
     <!-- (mbit / second) -->
     <defs>
      <path d="M 31 75.875 
Q 24.46875 64.65625 21.28125 53.65625 
Q 18.109375 42.671875 18.109375 31.390625 
Q 18.109375 20.125 21.3125 9.0625 
Q 24.515625 -2 31 -13.1875 
L 23.1875 -13.1875 
Q 15.875 -1.703125 12.234375 9.375 
Q 8.59375 20.453125 8.59375 31.390625 
Q 8.59375 42.28125 12.203125 53.3125 
Q 15.828125 64.359375 23.1875 75.875 
z
" id="DejaVuSans-40"/>
      <path d="M 52 44.1875 
Q 55.375 50.25 60.0625 53.125 
Q 64.75 56 71.09375 56 
Q 79.640625 56 84.28125 50.015625 
Q 88.921875 44.046875 88.921875 33.015625 
L 88.921875 0 
L 79.890625 0 
L 79.890625 32.71875 
Q 79.890625 40.578125 77.09375 44.375 
Q 74.3125 48.1875 68.609375 48.1875 
Q 61.625 48.1875 57.5625 43.546875 
Q 53.515625 38.921875 53.515625 30.90625 
L 53.515625 0 
L 44.484375 0 
L 44.484375 32.71875 
Q 44.484375 40.625 41.703125 44.40625 
Q 38.921875 48.1875 33.109375 48.1875 
Q 26.21875 48.1875 22.15625 43.53125 
Q 18.109375 38.875 18.109375 30.90625 
L 18.109375 0 
L 9.078125 0 
L 9.078125 54.6875 
L 18.109375 54.6875 
L 18.109375 46.1875 
Q 21.1875 51.21875 25.484375 53.609375 
Q 29.78125 56 35.6875 56 
Q 41.65625 56 45.828125 52.96875 
Q 50 49.953125 52 44.1875 
z
" id="DejaVuSans-109"/>
      <path d="M 48.6875 27.296875 
Q 48.6875 37.203125 44.609375 42.84375 
Q 40.53125 48.484375 33.40625 48.484375 
Q 26.265625 48.484375 22.1875 42.84375 
Q 18.109375 37.203125 18.109375 27.296875 
Q 18.109375 17.390625 22.1875 11.75 
Q 26.265625 6.109375 33.40625 6.109375 
Q 40.53125 6.109375 44.609375 11.75 
Q 48.6875 17.390625 48.6875 27.296875 
z
M 18.109375 46.390625 
Q 20.953125 51.265625 25.265625 53.625 
Q 29.59375 56 35.59375 56 
Q 45.5625 56 51.78125 48.09375 
Q 58.015625 40.1875 58.015625 27.296875 
Q 58.015625 14.40625 51.78125 6.484375 
Q 45.5625 -1.421875 35.59375 -1.421875 
Q 29.59375 -1.421875 25.265625 0.953125 
Q 20.953125 3.328125 18.109375 8.203125 
L 18.109375 0 
L 9.078125 0 
L 9.078125 75.984375 
L 18.109375 75.984375 
z
" id="DejaVuSans-98"/>
      <path d="M 9.421875 54.6875 
L 18.40625 54.6875 
L 18.40625 0 
L 9.421875 0 
z
M 9.421875 75.984375 
L 18.40625 75.984375 
L 18.40625 64.59375 
L 9.421875 64.59375 
z
" id="DejaVuSans-105"/>
      <path id="DejaVuSans-32"/>
      <path d="M 25.390625 72.90625 
L 33.6875 72.90625 
L 8.296875 -9.28125 
L 0 -9.28125 
z
" id="DejaVuSans-47"/>
      <path d="M 44.28125 53.078125 
L 44.28125 44.578125 
Q 40.484375 46.53125 36.375 47.5 
Q 32.28125 48.484375 27.875 48.484375 
Q 21.1875 48.484375 17.84375 46.4375 
Q 14.5 44.390625 14.5 40.28125 
Q 14.5 37.15625 16.890625 35.375 
Q 19.28125 33.59375 26.515625 31.984375 
L 29.59375 31.296875 
Q 39.15625 29.25 43.1875 25.515625 
Q 47.21875 21.78125 47.21875 15.09375 
Q 47.21875 7.46875 41.1875 3.015625 
Q 35.15625 -1.421875 24.609375 -1.421875 
Q 20.21875 -1.421875 15.453125 -0.5625 
Q 10.6875 0.296875 5.421875 2 
L 5.421875 11.28125 
Q 10.40625 8.6875 15.234375 7.390625 
Q 20.0625 6.109375 24.8125 6.109375 
Q 31.15625 6.109375 34.5625 8.28125 
Q 37.984375 10.453125 37.984375 14.40625 
Q 37.984375 18.0625 35.515625 20.015625 
Q 33.0625 21.96875 24.703125 23.78125 
L 21.578125 24.515625 
Q 13.234375 26.265625 9.515625 29.90625 
Q 5.8125 33.546875 5.8125 39.890625 
Q 5.8125 47.609375 11.28125 51.796875 
Q 16.75 56 26.8125 56 
Q 31.78125 56 36.171875 55.265625 
Q 40.578125 54.546875 44.28125 53.078125 
z
" id="DejaVuSans-115"/>
      <path d="M 56.203125 29.59375 
L 56.203125 25.203125 
L 14.890625 25.203125 
Q 15.484375 15.921875 20.484375 11.0625 
Q 25.484375 6.203125 34.421875 6.203125 
Q 39.59375 6.203125 44.453125 7.46875 
Q 49.3125 8.734375 54.109375 11.28125 
L 54.109375 2.78125 
Q 49.265625 0.734375 44.1875 -0.34375 
Q 39.109375 -1.421875 33.890625 -1.421875 
Q 20.796875 -1.421875 13.15625 6.1875 
Q 5.515625 13.8125 5.515625 26.8125 
Q 5.515625 40.234375 12.765625 48.109375 
Q 20.015625 56 32.328125 56 
Q 43.359375 56 49.78125 48.890625 
Q 56.203125 41.796875 56.203125 29.59375 
z
M 47.21875 32.234375 
Q 47.125 39.59375 43.09375 43.984375 
Q 39.0625 48.390625 32.421875 48.390625 
Q 24.90625 48.390625 20.390625 44.140625 
Q 15.875 39.890625 15.1875 32.171875 
z
" id="DejaVuSans-101"/>
      <path d="M 48.78125 52.59375 
L 48.78125 44.1875 
Q 44.96875 46.296875 41.140625 47.34375 
Q 37.3125 48.390625 33.40625 48.390625 
Q 24.65625 48.390625 19.8125 42.84375 
Q 14.984375 37.3125 14.984375 27.296875 
Q 14.984375 17.28125 19.8125 11.734375 
Q 24.65625 6.203125 33.40625 6.203125 
Q 37.3125 6.203125 41.140625 7.25 
Q 44.96875 8.296875 48.78125 10.40625 
L 48.78125 2.09375 
Q 45.015625 0.34375 40.984375 -0.53125 
Q 36.96875 -1.421875 32.421875 -1.421875 
Q 20.0625 -1.421875 12.78125 6.34375 
Q 5.515625 14.109375 5.515625 27.296875 
Q 5.515625 40.671875 12.859375 48.328125 
Q 20.21875 56 33.015625 56 
Q 37.15625 56 41.109375 55.140625 
Q 45.0625 54.296875 48.78125 52.59375 
z
" id="DejaVuSans-99"/>
      <path d="M 54.890625 33.015625 
L 54.890625 0 
L 45.90625 0 
L 45.90625 32.71875 
Q 45.90625 40.484375 42.875 44.328125 
Q 39.84375 48.1875 33.796875 48.1875 
Q 26.515625 48.1875 22.3125 43.546875 
Q 18.109375 38.921875 18.109375 30.90625 
L 18.109375 0 
L 9.078125 0 
L 9.078125 54.6875 
L 18.109375 54.6875 
L 18.109375 46.1875 
Q 21.34375 51.125 25.703125 53.5625 
Q 30.078125 56 35.796875 56 
Q 45.21875 56 50.046875 50.171875 
Q 54.890625 44.34375 54.890625 33.015625 
z
" id="DejaVuSans-110"/>
      <path d="M 45.40625 46.390625 
L 45.40625 75.984375 
L 54.390625 75.984375 
L 54.390625 0 
L 45.40625 0 
L 45.40625 8.203125 
Q 42.578125 3.328125 38.25 0.953125 
Q 33.9375 -1.421875 27.875 -1.421875 
Q 17.96875 -1.421875 11.734375 6.484375 
Q 5.515625 14.40625 5.515625 27.296875 
Q 5.515625 40.1875 11.734375 48.09375 
Q 17.96875 56 27.875 56 
Q 33.9375 56 38.25 53.625 
Q 42.578125 51.265625 45.40625 46.390625 
z
M 14.796875 27.296875 
Q 14.796875 17.390625 18.875 11.75 
Q 22.953125 6.109375 30.078125 6.109375 
Q 37.203125 6.109375 41.296875 11.75 
Q 45.40625 17.390625 45.40625 27.296875 
Q 45.40625 37.203125 41.296875 42.84375 
Q 37.203125 48.484375 30.078125 48.484375 
Q 22.953125 48.484375 18.875 42.84375 
Q 14.796875 37.203125 14.796875 27.296875 
z
" id="DejaVuSans-100"/>
      <path d="M 8.015625 75.875 
L 15.828125 75.875 
Q 23.140625 64.359375 26.78125 53.3125 
Q 30.421875 42.28125 30.421875 31.390625 
Q 30.421875 20.453125 26.78125 9.375 
Q 23.140625 -1.703125 15.828125 -13.1875 
L 8.015625 -13.1875 
Q 14.5 -2 17.703125 9.0625 
Q 20.90625 20.125 20.90625 31.390625 
Q 20.90625 42.671875 17.703125 53.65625 
Q 14.5 64.65625 8.015625 75.875 
z
" id="DejaVuSans-41"/>
     </defs>
     <g transform="translate(57.667656 231.608958)rotate(-90)scale(0.1 -0.1)">
      <use xlink:href="#DejaVuSans-40"/>
      <use x="39.013672" xlink:href="#DejaVuSans-109"/>
      <use x="136.425781" xlink:href="#DejaVuSans-98"/>
      <use x="199.902344" xlink:href="#DejaVuSans-105"/>
      <use x="227.685547" xlink:href="#DejaVuSans-116"/>
      <use x="266.894531" xlink:href="#DejaVuSans-32"/>
      <use x="298.681641" xlink:href="#DejaVuSans-47"/>
      <use x="332.373047" xlink:href="#DejaVuSans-32"/>
      <use x="364.160156" xlink:href="#DejaVuSans-115"/>
      <use x="416.259766" xlink:href="#DejaVuSans-101"/>
      <use x="477.783203" xlink:href="#DejaVuSans-99"/>
      <use x="532.763672" xlink:href="#DejaVuSans-111"/>
      <use x="593.945312" xlink:href="#DejaVuSans-110"/>
      <use x="657.324219" xlink:href="#DejaVuSans-100"/>
      <use x="720.800781" xlink:href="#DejaVuSans-41"/>
     </g>
    </g>
   </g>
   <g id="line2d_16">
    <path clip-path="url(#p49ad8baca5)" d="M 104.529195 297.967044 
L 105.197026 274.73542 
L 106.532689 259.247671 
L 107.20052 274.73542 
L 107.868351 282.479295 
L 108.536182 266.991546 
L 109.871845 266.991546 
L 110.539676 290.22317 
L 111.207507 274.73542 
L 111.875338 282.479295 
L 112.54317 282.479295 
L 113.211001 297.967044 
L 114.546663 313.454793 
L 117.217988 313.454793 
L 117.885819 321.198668 
L 118.55365 321.198668 
L 119.221482 313.454793 
L 120.557144 328.942543 
L 121.892806 313.454793 
L 122.560638 297.967044 
L 123.228469 313.454793 
L 123.8963 290.22317 
L 124.564131 297.967044 
L 125.231962 290.22317 
L 125.899794 297.967044 
L 126.567625 297.967044 
L 127.235456 290.22317 
L 127.903287 259.247671 
L 128.571118 266.991546 
L 129.23895 266.991546 
L 129.906781 251.503796 
L 130.574612 228.272172 
L 131.242443 236.016047 
L 132.578106 236.016047 
L 133.245937 228.272172 
L 134.581599 259.247671 
L 135.917262 274.73542 
L 137.252924 259.247671 
L 137.920755 259.247671 
L 138.588586 251.503796 
L 139.256418 236.016047 
L 140.59208 251.503796 
L 141.259911 228.272172 
L 141.927742 251.503796 
L 142.595574 243.759922 
L 143.263405 243.759922 
L 143.931236 228.272172 
L 144.599067 205.040548 
L 145.266899 205.040548 
L 145.93473 305.710919 
L 146.602561 205.040548 
L 147.270392 220.528298 
L 148.606055 236.016047 
L 149.273886 228.272172 
L 151.277379 251.503796 
L 151.945211 251.503796 
L 153.280873 236.016047 
L 153.948704 220.528298 
L 154.616535 212.784423 
L 155.284367 220.528298 
L 155.952198 220.528298 
L 156.620029 228.272172 
L 157.955691 197.296674 
L 158.623523 197.296674 
L 159.291354 205.040548 
L 159.959185 205.040548 
L 160.627016 212.784423 
L 161.294847 297.967044 
L 161.962679 282.479295 
L 162.63051 259.247671 
L 163.298341 266.991546 
L 164.634003 266.991546 
L 165.301835 259.247671 
L 165.969666 259.247671 
L 166.637497 251.503796 
L 167.973159 251.503796 
L 168.640991 259.247671 
L 169.308822 259.247671 
L 169.976653 243.759922 
L 170.644484 251.503796 
L 171.312315 243.759922 
L 171.980147 266.991546 
L 173.315809 266.991546 
L 173.98364 243.759922 
L 174.651471 243.759922 
L 175.319303 297.967044 
L 175.987134 259.247671 
L 176.654965 205.040548 
L 177.322796 251.503796 
L 178.658459 236.016047 
L 179.32629 243.759922 
L 179.994121 274.73542 
L 180.661952 274.73542 
L 181.329783 266.991546 
L 181.997615 282.479295 
L 182.665446 259.247671 
L 183.333277 251.503796 
L 184.001108 236.016047 
L 185.336771 266.991546 
L 186.004602 274.73542 
L 186.672433 297.967044 
L 187.340264 297.967044 
L 188.675927 313.454793 
L 189.343758 305.710919 
L 191.347252 328.942543 
L 192.682914 328.942543 
L 193.350745 336.686417 
L 194.018576 321.198668 
L 194.686408 321.198668 
L 195.354239 328.942543 
L 196.689901 328.942543 
L 197.357732 352.174167 
L 199.361226 328.942543 
L 200.029057 352.174167 
L 200.696888 321.198668 
L 201.36472 336.686417 
L 202.032551 305.710919 
L 202.700382 313.454793 
L 203.368213 305.710919 
L 204.036044 328.942543 
L 205.371707 313.454793 
L 206.039538 313.454793 
L 207.3752 297.967044 
L 208.710863 297.967044 
L 209.378694 290.22317 
L 210.046525 266.991546 
L 210.714356 259.247671 
L 212.050019 259.247671 
L 212.71785 266.991546 
L 213.385681 266.991546 
L 215.389175 220.528298 
L 216.057006 174.06505 
L 216.724837 197.296674 
L 218.0605 181.808925 
L 220.063993 205.040548 
L 220.731824 189.552799 
L 222.067487 220.528298 
L 222.735318 220.528298 
L 223.403149 259.247671 
L 224.07098 290.22317 
L 224.738812 282.479295 
L 225.406643 290.22317 
L 226.074474 290.22317 
L 226.742305 274.73542 
L 227.410136 274.73542 
L 228.077968 305.710919 
L 228.745799 297.967044 
L 230.081461 297.967044 
L 230.749292 313.454793 
L 231.417124 297.967044 
L 232.752786 297.967044 
L 233.420617 282.479295 
L 234.088448 305.710919 
L 234.75628 305.710919 
L 235.424111 313.454793 
L 236.091942 305.710919 
L 237.427604 321.198668 
L 238.095436 305.710919 
L 238.763267 313.454793 
L 239.431098 305.710919 
L 240.098929 305.710919 
L 241.434592 321.198668 
L 242.102423 297.967044 
L 242.770254 297.967044 
L 243.438085 305.710919 
L 244.105917 305.710919 
L 246.10941 328.942543 
L 246.777241 321.198668 
L 248.112904 321.198668 
L 248.780735 328.942543 
L 249.448566 321.198668 
L 250.116397 328.942543 
L 251.45206 328.942543 
L 252.119891 336.686417 
L 252.787722 328.942543 
L 254.123385 328.942543 
L 254.791216 336.686417 
L 255.459047 352.174167 
L 256.794709 336.686417 
L 258.130372 336.686417 
L 259.466034 352.174167 
L 260.133865 344.430292 
L 262.80519 344.430292 
L 263.473021 352.174167 
L 264.140853 344.430292 
L 266.144346 344.430292 
L 268.815671 313.454793 
L 269.483502 297.967044 
L 270.151333 290.22317 
L 270.819165 297.967044 
L 272.154827 266.991546 
L 272.822658 290.22317 
L 274.826152 266.991546 
L 276.161814 266.991546 
L 276.829645 274.73542 
L 278.165308 274.73542 
L 278.833139 282.479295 
L 279.50097 297.967044 
L 280.168801 297.967044 
L 281.504464 282.479295 
L 282.172295 266.991546 
L 282.840126 266.991546 
L 283.507957 274.73542 
L 284.175789 321.198668 
L 284.84362 290.22317 
L 285.511451 290.22317 
L 286.179282 297.967044 
L 286.847113 321.198668 
L 287.514945 297.967044 
L 288.182776 290.22317 
L 290.18627 290.22317 
L 290.854101 282.479295 
L 291.521932 290.22317 
L 292.189763 290.22317 
L 292.857594 297.967044 
L 294.193257 297.967044 
L 294.861088 305.710919 
L 295.528919 328.942543 
L 296.19675 305.710919 
L 296.864582 313.454793 
L 297.532413 305.710919 
L 298.200244 305.710919 
L 298.868075 313.454793 
L 299.535906 305.710919 
L 300.203738 313.454793 
L 300.871569 305.710919 
L 301.5394 313.454793 
L 302.207231 297.967044 
L 302.875062 305.710919 
L 303.542894 328.942543 
L 304.210725 313.454793 
L 304.878556 321.198668 
L 305.546387 313.454793 
L 306.214218 313.454793 
L 306.88205 305.710919 
L 307.549881 313.454793 
L 308.217712 313.454793 
L 308.885543 321.198668 
L 309.553374 336.686417 
L 310.221206 321.198668 
L 310.889037 313.454793 
L 312.89253 313.454793 
L 313.560362 321.198668 
L 314.228193 321.198668 
L 314.896024 313.454793 
L 315.563855 313.454793 
L 316.231686 305.710919 
L 317.567349 336.686417 
L 318.23518 305.710919 
L 318.903011 290.22317 
L 319.570842 297.967044 
L 320.238674 282.479295 
L 320.906505 282.479295 
L 322.242167 297.967044 
L 322.909998 297.967044 
L 323.57783 305.710919 
L 324.245661 297.967044 
L 324.913492 305.710919 
L 325.581323 297.967044 
L 326.249154 282.479295 
L 326.916986 282.479295 
L 328.252648 297.967044 
L 328.920479 290.22317 
L 330.923973 290.22317 
L 331.591804 259.247671 
L 332.259635 282.479295 
L 332.927466 290.22317 
L 333.595298 282.479295 
L 334.263129 290.22317 
L 334.93096 290.22317 
L 335.598791 282.479295 
L 336.266623 282.479295 
L 336.934454 297.967044 
L 337.602285 290.22317 
L 338.270116 290.22317 
L 339.605779 305.710919 
L 340.27361 297.967044 
L 340.941441 297.967044 
L 341.609272 290.22317 
L 342.277103 228.272172 
L 342.944935 228.272172 
L 343.612766 236.016047 
L 344.280597 251.503796 
L 344.948428 274.73542 
L 345.616259 282.479295 
L 346.284091 282.479295 
L 346.951922 274.73542 
L 347.619753 282.479295 
L 348.287584 274.73542 
L 348.955415 274.73542 
L 349.623247 290.22317 
L 350.291078 290.22317 
L 350.958909 282.479295 
L 351.62674 290.22317 
L 352.294571 305.710919 
L 354.298065 305.710919 
L 355.633727 274.73542 
L 356.301559 274.73542 
L 357.637221 290.22317 
L 358.972883 290.22317 
L 359.640715 282.479295 
L 360.308546 251.503796 
L 360.976377 259.247671 
L 361.644208 236.016047 
L 362.312039 236.016047 
L 363.647702 220.528298 
L 364.983364 189.552799 
L 365.651195 205.040548 
L 366.319027 189.552799 
L 366.986858 282.479295 
L 367.654689 266.991546 
L 368.32252 282.479295 
L 368.990351 282.479295 
L 369.658183 274.73542 
L 370.326014 282.479295 
L 371.661676 282.479295 
L 372.329507 290.22317 
L 372.997339 290.22317 
L 374.333001 305.710919 
L 375.000832 290.22317 
L 375.668663 290.22317 
L 376.336495 274.73542 
L 377.004326 266.991546 
L 377.672157 251.503796 
L 378.339988 228.272172 
L 379.007819 251.503796 
L 379.675651 259.247671 
L 380.343482 251.503796 
L 381.011313 251.503796 
L 381.679144 243.759922 
L 382.346975 297.967044 
L 383.014807 266.991546 
L 384.350469 251.503796 
L 385.0183 266.991546 
L 386.353963 266.991546 
L 387.021794 274.73542 
L 387.689625 290.22317 
L 388.357456 297.967044 
L 389.025288 282.479295 
L 389.693119 297.967044 
L 390.36095 282.479295 
L 391.028781 274.73542 
L 392.364444 274.73542 
L 393.700106 259.247671 
L 395.035768 290.22317 
L 395.7036 297.967044 
L 397.039262 297.967044 
L 397.707093 344.430292 
L 398.374924 297.967044 
L 399.042756 344.430292 
L 399.710587 313.454793 
L 400.378418 305.710919 
L 401.046249 321.198668 
L 401.71408 313.454793 
L 403.049743 313.454793 
L 404.385405 297.967044 
L 405.053236 297.967044 
L 405.721068 290.22317 
L 406.388899 290.22317 
L 407.05673 282.479295 
L 407.724561 259.247671 
L 408.392392 266.991546 
L 409.060224 228.272172 
L 409.728055 228.272172 
L 410.395886 212.784423 
L 411.063717 228.272172 
L 411.731548 228.272172 
L 412.39938 205.040548 
L 417.074198 259.247671 
L 417.742029 259.247671 
L 419.077692 274.73542 
L 419.745523 212.784423 
L 420.413354 220.528298 
L 421.749016 189.552799 
L 422.416848 197.296674 
L 423.084679 212.784423 
L 423.75251 220.528298 
L 425.088172 251.503796 
L 425.756004 236.016047 
L 426.423835 243.759922 
L 427.091666 243.759922 
L 427.759497 228.272172 
L 428.427328 243.759922 
L 429.09516 243.759922 
L 429.762991 228.272172 
L 430.430822 259.247671 
L 431.098653 313.454793 
L 431.766484 305.710919 
L 432.434316 305.710919 
L 434.437809 282.479295 
L 435.105641 282.479295 
L 436.441303 297.967044 
L 437.776965 297.967044 
L 438.444797 282.479295 
L 439.780459 266.991546 
L 440.44829 266.991546 
L 441.783953 282.479295 
L 442.451784 274.73542 
L 443.119615 274.73542 
L 443.787446 282.479295 
L 444.455277 321.198668 
L 445.123109 297.967044 
L 445.79094 282.479295 
L 446.458771 274.73542 
L 447.126602 282.479295 
L 447.794433 259.247671 
L 448.462265 282.479295 
L 449.130096 282.479295 
L 449.797927 274.73542 
L 450.465758 282.479295 
L 451.133589 282.479295 
L 451.801421 305.710919 
L 452.469252 313.454793 
L 453.137083 328.942543 
L 453.804914 313.454793 
L 454.472745 305.710919 
L 455.140577 313.454793 
L 455.808408 305.710919 
L 456.476239 305.710919 
L 457.811901 290.22317 
L 458.479733 290.22317 
L 459.815395 259.247671 
L 460.483226 266.991546 
L 461.151057 290.22317 
L 461.818889 282.479295 
L 462.48672 290.22317 
L 463.154551 282.479295 
L 463.822382 290.22317 
L 464.490213 282.479295 
L 464.490213 282.479295 
" style="fill:none;stroke:#1f77b4;stroke-linecap:square;stroke-width:1.5;"/>
   </g>
   <g id="line2d_17">
    <path clip-path="url(#p49ad8baca5)" d="M 110.000068 274.73542 
L 110.6679 274.73542 
L 111.335731 282.479295 
L 112.003562 274.73542 
L 112.671393 321.198668 
L 113.339224 297.967044 
L 114.007056 305.710919 
L 115.342718 305.710919 
L 116.010549 336.686417 
L 116.67838 313.454793 
L 117.346212 321.198668 
L 118.014043 321.198668 
L 118.681874 328.942543 
L 119.349705 328.942543 
L 120.017536 321.198668 
L 120.685368 321.198668 
L 121.353199 313.454793 
L 122.02103 321.198668 
L 122.688861 321.198668 
L 123.356692 328.942543 
L 124.024524 313.454793 
L 124.692355 305.710919 
L 126.028017 305.710919 
L 126.695848 266.991546 
L 127.36368 305.710919 
L 128.031511 282.479295 
L 128.699342 290.22317 
L 129.367173 282.479295 
L 130.035004 290.22317 
L 130.702836 336.686417 
L 131.370667 305.710919 
L 132.038498 305.710919 
L 132.706329 313.454793 
L 133.37416 328.942543 
L 134.041992 313.454793 
L 135.377654 328.942543 
L 136.045485 321.198668 
L 137.381148 321.198668 
L 138.048979 313.454793 
L 138.71681 313.454793 
L 139.384641 321.198668 
L 140.052472 321.198668 
L 140.720304 305.710919 
L 141.388135 344.430292 
L 142.055966 321.198668 
L 142.723797 328.942543 
L 143.391628 321.198668 
L 144.05946 328.942543 
L 144.727291 328.942543 
L 145.395122 336.686417 
L 146.062953 336.686417 
L 146.730785 344.430292 
L 147.398616 328.942543 
L 148.066447 336.686417 
L 150.737772 336.686417 
L 151.405603 344.430292 
L 152.073434 344.430292 
L 152.741265 328.942543 
L 153.409097 328.942543 
L 154.076928 336.686417 
L 156.748253 336.686417 
L 157.416084 321.198668 
L 158.751746 352.174167 
L 159.419577 328.942543 
L 160.087409 344.430292 
L 160.75524 328.942543 
L 161.423071 344.430292 
L 162.090902 336.686417 
L 162.758733 336.686417 
L 164.762227 313.454793 
L 165.430058 336.686417 
L 166.097889 321.198668 
L 166.765721 336.686417 
L 167.433552 328.942543 
L 170.104877 328.942543 
L 171.440539 344.430292 
L 172.10837 344.430292 
L 172.776201 336.686417 
L 173.444033 336.686417 
L 174.111864 344.430292 
L 175.447526 328.942543 
L 176.115357 328.942543 
L 177.45102 313.454793 
L 178.118851 344.430292 
L 178.786682 336.686417 
L 179.454513 336.686417 
L 180.122345 328.942543 
L 180.790176 336.686417 
L 182.793669 336.686417 
L 183.461501 352.174167 
L 184.129332 344.430292 
L 184.797163 328.942543 
L 185.464994 328.942543 
L 186.132825 321.198668 
L 187.468488 321.198668 
L 188.136319 328.942543 
L 189.471981 328.942543 
L 190.139813 344.430292 
L 190.807644 328.942543 
L 191.475475 328.942543 
L 192.143306 344.430292 
L 192.811137 328.942543 
L 193.478969 328.942543 
L 194.814631 344.430292 
L 195.482462 336.686417 
L 196.150294 352.174167 
L 196.818125 336.686417 
L 199.48945 336.686417 
L 200.157281 352.174167 
L 200.825112 336.686417 
L 201.492943 344.430292 
L 204.164268 313.454793 
L 204.832099 321.198668 
L 206.167762 321.198668 
L 206.835593 328.942543 
L 207.503424 328.942543 
L 208.171255 321.198668 
L 210.174749 344.430292 
L 210.84258 336.686417 
L 212.178242 352.174167 
L 212.846074 336.686417 
L 214.181736 321.198668 
L 214.849567 321.198668 
L 215.517398 328.942543 
L 216.18523 344.430292 
L 216.853061 328.942543 
L 218.188723 328.942543 
L 219.524386 313.454793 
L 221.527879 313.454793 
L 222.19571 321.198668 
L 222.863542 321.198668 
L 223.531373 313.454793 
L 224.199204 328.942543 
L 225.534866 313.454793 
L 226.202698 328.942543 
L 226.870529 336.686417 
L 227.53836 352.174167 
L 228.206191 328.942543 
L 228.874022 328.942543 
L 229.541854 336.686417 
L 230.209685 274.73542 
L 230.877516 282.479295 
L 231.545347 297.967044 
L 232.213178 282.479295 
L 232.88101 282.479295 
L 233.548841 274.73542 
L 234.216672 290.22317 
L 234.884503 297.967044 
L 235.552334 297.967044 
L 236.220166 305.710919 
L 236.887997 290.22317 
L 238.223659 290.22317 
L 238.89149 274.73542 
L 240.227153 259.247671 
L 240.894984 266.991546 
L 242.230647 266.991546 
L 242.898478 259.247671 
L 244.23414 212.784423 
L 244.901971 205.040548 
L 245.569803 297.967044 
L 246.237634 236.016047 
L 246.905465 220.528298 
L 247.573296 228.272172 
L 248.908959 212.784423 
L 249.57679 212.784423 
L 250.244621 205.040548 
L 250.912452 189.552799 
L 252.248115 174.06505 
L 252.915946 174.06505 
L 253.583777 166.321175 
L 254.251608 166.321175 
L 254.919439 150.833426 
L 255.587271 150.833426 
L 256.255102 174.06505 
L 256.922933 181.808925 
L 257.590764 197.296674 
L 258.926427 197.296674 
L 260.262089 212.784423 
L 260.92992 228.272172 
L 261.597751 228.272172 
L 262.265583 220.528298 
L 262.933414 236.016047 
L 263.601245 236.016047 
L 264.269076 212.784423 
L 266.27257 189.552799 
L 266.940401 205.040548 
L 267.608232 212.784423 
L 268.276063 228.272172 
L 268.943895 220.528298 
L 269.611726 205.040548 
L 270.279557 205.040548 
L 270.947388 236.016047 
L 271.615219 236.016047 
L 272.283051 243.759922 
L 273.618713 243.759922 
L 274.286544 251.503796 
L 274.954375 251.503796 
L 275.622207 266.991546 
L 276.290038 266.991546 
L 276.957869 251.503796 
L 277.6257 243.759922 
L 278.293531 305.710919 
L 278.961363 251.503796 
L 279.629194 228.272172 
L 280.297025 228.272172 
L 280.964856 259.247671 
L 282.300519 243.759922 
L 282.96835 243.759922 
L 283.636181 251.503796 
L 284.304012 189.552799 
L 286.307506 212.784423 
L 286.975337 174.06505 
L 288.310999 174.06505 
L 289.646662 189.552799 
L 290.314493 189.552799 
L 290.982324 197.296674 
L 291.650156 181.808925 
L 292.317987 189.552799 
L 292.985818 181.808925 
L 294.989312 181.808925 
L 295.657143 158.577301 
L 296.992805 189.552799 
L 297.660636 181.808925 
L 298.996299 197.296674 
L 300.331961 197.296674 
L 300.999792 205.040548 
L 301.667624 205.040548 
L 302.335455 228.272172 
L 303.003286 220.528298 
L 303.671117 220.528298 
L 304.338948 243.759922 
L 305.00678 243.759922 
L 307.010273 266.991546 
L 307.678104 259.247671 
L 308.345936 313.454793 
L 309.013767 282.479295 
L 309.681598 282.479295 
L 310.349429 290.22317 
L 311.01726 290.22317 
L 311.685092 274.73542 
L 312.352923 290.22317 
L 313.020754 282.479295 
L 313.688585 321.198668 
L 314.356416 297.967044 
L 315.024248 313.454793 
L 315.692079 297.967044 
L 316.35991 297.967044 
L 317.027741 305.710919 
L 317.695572 297.967044 
L 318.363404 305.710919 
L 321.034728 305.710919 
L 321.70256 313.454793 
L 323.038222 313.454793 
L 323.706053 336.686417 
L 324.373884 321.198668 
L 325.041716 321.198668 
L 325.709547 336.686417 
L 326.377378 328.942543 
L 327.045209 313.454793 
L 328.380872 297.967044 
L 329.048703 313.454793 
L 329.716534 313.454793 
L 330.384365 297.967044 
L 331.052196 290.22317 
L 331.720028 297.967044 
L 332.387859 297.967044 
L 333.05569 282.479295 
L 333.723521 328.942543 
L 334.391352 313.454793 
L 335.059184 321.198668 
L 335.727015 336.686417 
L 336.394846 305.710919 
L 337.062677 305.710919 
L 337.730508 321.198668 
L 338.39834 305.710919 
L 339.066171 313.454793 
L 340.401833 297.967044 
L 341.069665 305.710919 
L 341.737496 321.198668 
L 342.405327 321.198668 
L 343.073158 313.454793 
L 343.740989 321.198668 
L 345.076652 305.710919 
L 345.744483 305.710919 
L 346.412314 297.967044 
L 347.080145 297.967044 
L 347.747977 290.22317 
L 348.415808 266.991546 
L 349.75147 266.991546 
L 350.419301 251.503796 
L 351.087133 220.528298 
L 351.754964 220.528298 
L 353.090626 236.016047 
L 353.758457 236.016047 
L 355.09412 251.503796 
L 355.761951 228.272172 
L 357.097613 259.247671 
L 357.765445 259.247671 
L 358.433276 266.991546 
L 359.101107 266.991546 
L 359.768938 274.73542 
L 360.436769 259.247671 
L 361.104601 266.991546 
L 361.772432 297.967044 
L 362.440263 282.479295 
L 363.108094 274.73542 
L 363.775925 290.22317 
L 364.443757 266.991546 
L 366.44725 290.22317 
L 367.115081 282.479295 
L 367.782913 297.967044 
L 369.786406 297.967044 
L 370.454237 290.22317 
L 371.7899 290.22317 
L 372.457731 313.454793 
L 373.125562 328.942543 
L 373.793393 297.967044 
L 375.796887 297.967044 
L 376.464718 305.710919 
L 377.132549 305.710919 
L 377.800381 328.942543 
L 378.468212 328.942543 
L 379.136043 321.198668 
L 379.803874 321.198668 
L 380.471705 328.942543 
L 382.475199 328.942543 
L 383.810861 344.430292 
L 384.478693 344.430292 
L 385.814355 313.454793 
L 386.482186 313.454793 
L 387.150018 305.710919 
L 387.817849 282.479295 
L 388.48568 282.479295 
L 389.153511 297.967044 
L 389.821342 297.967044 
L 390.489174 305.710919 
L 391.157005 305.710919 
L 391.824836 313.454793 
L 392.492667 290.22317 
L 393.160498 297.967044 
L 393.82833 282.479295 
L 394.496161 259.247671 
L 395.163992 274.73542 
L 395.831823 266.991546 
L 396.499654 266.991546 
L 397.167486 259.247671 
L 397.835317 259.247671 
L 398.503148 266.991546 
L 399.170979 251.503796 
L 399.83881 290.22317 
L 400.506642 282.479295 
L 401.174473 266.991546 
L 401.842304 274.73542 
L 402.510135 259.247671 
L 403.845798 259.247671 
L 404.513629 266.991546 
L 405.18146 259.247671 
L 405.849291 236.016047 
L 406.517122 236.016047 
L 407.184954 259.247671 
L 407.852785 274.73542 
L 408.520616 259.247671 
L 409.188447 274.73542 
L 409.856278 282.479295 
L 410.52411 297.967044 
L 413.195434 297.967044 
L 413.863266 313.454793 
L 414.531097 297.967044 
L 415.198928 321.198668 
L 415.866759 305.710919 
L 417.202422 321.198668 
L 418.538084 321.198668 
L 419.205915 305.710919 
L 419.873746 282.479295 
L 421.209409 297.967044 
L 421.87724 321.198668 
L 422.545071 290.22317 
L 423.212902 274.73542 
L 423.880734 274.73542 
L 424.548565 243.759922 
L 425.884227 243.759922 
L 426.552058 236.016047 
L 427.887721 236.016047 
L 429.223383 266.991546 
L 430.559046 251.503796 
L 431.226877 259.247671 
L 431.894708 282.479295 
L 433.898202 282.479295 
L 434.566033 266.991546 
L 435.233864 274.73542 
L 435.901695 305.710919 
L 436.569527 290.22317 
L 437.237358 282.479295 
L 437.905189 297.967044 
L 439.240851 297.967044 
L 439.908683 305.710919 
L 441.244345 305.710919 
L 441.912176 297.967044 
L 442.580007 297.967044 
L 443.247839 290.22317 
L 444.583501 259.247671 
L 445.251332 259.247671 
L 445.919163 282.479295 
L 446.586995 290.22317 
L 447.254826 313.454793 
L 447.922657 321.198668 
L 448.590488 282.479295 
L 449.258319 251.503796 
L 449.926151 181.808925 
L 450.593982 174.06505 
L 451.261813 174.06505 
L 451.929644 212.784423 
L 452.597475 220.528298 
L 453.265307 236.016047 
L 453.933138 236.016047 
L 455.936631 212.784423 
L 456.604463 212.784423 
L 457.272294 205.040548 
L 457.940125 228.272172 
L 458.607956 228.272172 
L 459.275787 220.528298 
L 459.943619 236.016047 
L 460.61145 236.016047 
L 461.279281 197.296674 
L 461.947112 205.040548 
L 462.614943 189.552799 
L 463.282775 205.040548 
L 465.286268 205.040548 
L 465.954099 212.784423 
L 466.621931 205.040548 
L 467.289762 205.040548 
L 468.625424 266.991546 
L 469.293255 259.247671 
L 469.961087 259.247671 
L 469.961087 259.247671 
" style="fill:none;stroke:#ff7f0e;stroke-linecap:square;stroke-width:1.5;"/>
   </g>
   <g id="line2d_18">
    <path clip-path="url(#p49ad8baca5)" d="M 107.239254 313.454793 
L 107.907085 297.967044 
L 108.574917 305.710919 
L 109.242748 305.710919 
L 109.910579 313.454793 
L 110.57841 282.479295 
L 111.914073 266.991546 
L 112.581904 251.503796 
L 113.249735 228.272172 
L 113.917566 220.528298 
L 114.585397 197.296674 
L 115.253229 181.808925 
L 115.92106 174.06505 
L 116.588891 181.808925 
L 117.256722 158.577301 
L 117.924553 143.089551 
L 119.260216 143.089551 
L 119.928047 158.577301 
L 120.595878 135.345677 
L 121.931541 166.321175 
L 123.267203 166.321175 
L 124.602865 212.784423 
L 125.270697 220.528298 
L 125.938528 212.784423 
L 126.606359 305.710919 
L 127.27419 274.73542 
L 127.942021 290.22317 
L 128.609853 282.479295 
L 129.277684 290.22317 
L 129.945515 282.479295 
L 130.613346 259.247671 
L 131.281177 274.73542 
L 131.949009 274.73542 
L 132.61684 297.967044 
L 133.284671 297.967044 
L 135.288165 251.503796 
L 135.955996 259.247671 
L 136.623827 259.247671 
L 137.291658 266.991546 
L 137.959489 259.247671 
L 138.627321 274.73542 
L 139.295152 282.479295 
L 139.962983 274.73542 
L 140.630814 274.73542 
L 141.298646 259.247671 
L 141.966477 251.503796 
L 142.634308 236.016047 
L 143.302139 243.759922 
L 143.96997 243.759922 
L 144.637802 259.247671 
L 145.305633 282.479295 
L 145.973464 259.247671 
L 146.641295 266.991546 
L 147.309126 266.991546 
L 147.976958 251.503796 
L 148.644789 251.503796 
L 149.31262 236.016047 
L 149.980451 228.272172 
L 150.648282 212.784423 
L 151.316114 205.040548 
L 151.983945 212.784423 
L 152.651776 197.296674 
L 153.319607 212.784423 
L 153.987438 212.784423 
L 154.65527 228.272172 
L 155.323101 220.528298 
L 155.990932 228.272172 
L 156.658763 220.528298 
L 157.326594 236.016047 
L 157.994426 243.759922 
L 158.662257 236.016047 
L 159.330088 236.016047 
L 159.997919 228.272172 
L 160.66575 243.759922 
L 161.333582 197.296674 
L 162.001413 205.040548 
L 162.669244 274.73542 
L 163.337075 228.272172 
L 164.004906 228.272172 
L 164.672738 236.016047 
L 165.340569 228.272172 
L 168.011894 259.247671 
L 168.679725 243.759922 
L 169.347556 236.016047 
L 170.015387 243.759922 
L 170.683218 243.759922 
L 172.018881 197.296674 
L 173.354543 197.296674 
L 174.022374 205.040548 
L 174.690206 228.272172 
L 175.358037 205.040548 
L 176.025868 274.73542 
L 176.693699 313.454793 
L 177.36153 266.991546 
L 178.029362 251.503796 
L 178.697193 243.759922 
L 179.365024 205.040548 
L 181.368518 228.272172 
L 182.036349 251.503796 
L 184.039842 274.73542 
L 185.375505 259.247671 
L 186.711167 274.73542 
L 187.378998 290.22317 
L 188.04683 266.991546 
L 188.714661 251.503796 
L 189.382492 259.247671 
L 190.050323 274.73542 
L 190.718155 251.503796 
L 191.385986 251.503796 
L 192.053817 243.759922 
L 192.721648 243.759922 
L 193.389479 259.247671 
L 194.057311 266.991546 
L 194.725142 259.247671 
L 195.392973 259.247671 
L 196.728635 228.272172 
L 197.396467 220.528298 
L 198.064298 236.016047 
L 199.39996 236.016047 
L 200.067791 205.040548 
L 200.735623 228.272172 
L 201.403454 212.784423 
L 202.071285 236.016047 
L 203.406947 236.016047 
L 204.074779 212.784423 
L 206.078272 212.784423 
L 206.746103 228.272172 
L 207.413935 236.016047 
L 208.081766 251.503796 
L 208.749597 243.759922 
L 210.085259 243.759922 
L 211.420922 259.247671 
L 212.088753 259.247671 
L 212.756584 251.503796 
L 213.424415 266.991546 
L 215.427909 290.22317 
L 216.09574 328.942543 
L 216.763571 297.967044 
L 217.431403 305.710919 
L 220.102727 305.710919 
L 220.770559 313.454793 
L 222.106221 297.967044 
L 222.774052 297.967044 
L 224.109715 251.503796 
L 224.777546 266.991546 
L 225.445377 274.73542 
L 226.113208 274.73542 
L 226.781039 282.479295 
L 227.448871 259.247671 
L 228.784533 243.759922 
L 229.452364 259.247671 
L 230.120195 290.22317 
L 230.788027 266.991546 
L 232.123689 266.991546 
L 232.79152 259.247671 
L 233.459351 243.759922 
L 234.795014 228.272172 
L 235.462845 228.272172 
L 236.130676 220.528298 
L 236.798507 220.528298 
L 237.466339 212.784423 
L 238.13417 212.784423 
L 238.802001 220.528298 
L 239.469832 243.759922 
L 240.137664 220.528298 
L 240.805495 243.759922 
L 242.141157 243.759922 
L 242.808988 251.503796 
L 243.47682 251.503796 
L 244.144651 266.991546 
L 244.812482 266.991546 
L 245.480313 197.296674 
L 246.148144 220.528298 
L 246.815976 236.016047 
L 247.483807 228.272172 
L 248.151638 228.272172 
L 248.819469 236.016047 
L 249.4873 236.016047 
L 250.822963 251.503796 
L 251.490794 266.991546 
L 252.158625 266.991546 
L 252.826456 274.73542 
L 253.494288 297.967044 
L 254.162119 282.479295 
L 254.82995 290.22317 
L 258.169106 251.503796 
L 258.836937 251.503796 
L 259.504768 259.247671 
L 260.1726 228.272172 
L 260.840431 212.784423 
L 262.176093 228.272172 
L 262.843924 220.528298 
L 263.511756 205.040548 
L 264.179587 243.759922 
L 264.847418 236.016047 
L 265.515249 243.759922 
L 266.850912 243.759922 
L 267.518743 251.503796 
L 268.186574 243.759922 
L 268.854405 259.247671 
L 269.522236 282.479295 
L 270.190068 321.198668 
L 270.857899 274.73542 
L 271.52573 274.73542 
L 272.193561 290.22317 
L 274.864886 290.22317 
L 275.532717 274.73542 
L 276.200548 266.991546 
L 277.536211 266.991546 
L 278.204042 282.479295 
L 278.871873 282.479295 
L 279.539704 290.22317 
L 280.207536 290.22317 
L 280.875367 282.479295 
L 281.543198 282.479295 
L 282.211029 297.967044 
L 282.87886 297.967044 
L 283.546692 282.479295 
L 284.214523 290.22317 
L 284.882354 305.710919 
L 285.550185 305.710919 
L 286.218017 297.967044 
L 286.885848 305.710919 
L 288.22151 336.686417 
L 288.889341 321.198668 
L 289.557173 321.198668 
L 290.225004 313.454793 
L 290.892835 313.454793 
L 291.560666 305.710919 
L 292.228497 313.454793 
L 292.896329 313.454793 
L 293.56416 305.710919 
L 294.899822 321.198668 
L 295.567653 313.454793 
L 296.235485 321.198668 
L 296.903316 321.198668 
L 298.238978 305.710919 
L 299.574641 305.710919 
L 300.242472 297.967044 
L 300.910303 297.967044 
L 301.578134 282.479295 
L 302.245965 274.73542 
L 302.913797 259.247671 
L 303.581628 251.503796 
L 304.249459 220.528298 
L 304.91729 228.272172 
L 305.585121 228.272172 
L 306.252953 236.016047 
L 306.920784 220.528298 
L 307.588615 212.784423 
L 308.256446 158.577301 
L 308.924277 174.06505 
L 309.592109 166.321175 
L 310.25994 166.321175 
L 311.595602 197.296674 
L 312.263433 197.296674 
L 312.931265 189.552799 
L 313.599096 150.833426 
L 314.266927 166.321175 
L 314.934758 143.089551 
L 315.602589 158.577301 
L 316.270421 266.991546 
L 316.938252 220.528298 
L 317.606083 228.272172 
L 318.273914 243.759922 
L 318.941745 251.503796 
L 319.609577 243.759922 
L 320.945239 259.247671 
L 321.61307 243.759922 
L 322.280901 251.503796 
L 323.616564 236.016047 
L 324.284395 236.016047 
L 324.952226 243.759922 
L 325.620057 243.759922 
L 326.287889 259.247671 
L 326.95572 282.479295 
L 327.623551 274.73542 
L 328.291382 274.73542 
L 329.627045 259.247671 
L 330.294876 282.479295 
L 330.962707 290.22317 
L 331.630538 336.686417 
L 332.298369 290.22317 
L 332.966201 290.22317 
L 333.634032 282.479295 
L 334.301863 259.247671 
L 334.969694 259.247671 
L 335.637526 251.503796 
L 336.305357 274.73542 
L 336.973188 290.22317 
L 337.641019 282.479295 
L 338.30885 290.22317 
L 338.976682 282.479295 
L 339.644513 297.967044 
L 340.312344 305.710919 
L 340.980175 305.710919 
L 341.648006 282.479295 
L 342.315838 290.22317 
L 343.6515 274.73542 
L 344.319331 259.247671 
L 344.987162 251.503796 
L 346.322825 266.991546 
L 346.990656 266.991546 
L 347.658487 259.247671 
L 348.326318 297.967044 
L 348.99415 282.479295 
L 350.329812 282.479295 
L 350.997643 321.198668 
L 351.665474 297.967044 
L 353.001137 313.454793 
L 353.668968 313.454793 
L 354.336799 305.710919 
L 355.00463 305.710919 
L 355.672462 290.22317 
L 356.340293 313.454793 
L 357.008124 305.710919 
L 357.675955 305.710919 
L 358.343786 313.454793 
L 359.679449 313.454793 
L 360.34728 336.686417 
L 361.015111 328.942543 
L 363.018605 328.942543 
L 365.022098 352.174167 
L 365.68993 328.942543 
L 366.357761 336.686417 
L 367.025592 274.73542 
L 368.361254 197.296674 
L 369.029086 205.040548 
L 369.696917 220.528298 
L 371.032579 220.528298 
L 371.70041 205.040548 
L 372.368242 197.296674 
L 373.036073 150.833426 
L 373.703904 166.321175 
L 375.039566 181.808925 
L 375.707398 197.296674 
L 376.375229 205.040548 
L 377.04306 197.296674 
L 377.710891 205.040548 
L 378.378722 205.040548 
L 379.046554 197.296674 
L 379.714385 181.808925 
L 380.382216 197.296674 
L 381.050047 189.552799 
L 381.717879 189.552799 
L 382.38571 166.321175 
L 383.053541 174.06505 
L 383.721372 174.06505 
L 385.057035 189.552799 
L 385.724866 189.552799 
L 386.392697 197.296674 
L 387.728359 181.808925 
L 389.064022 197.296674 
L 389.731853 181.808925 
L 390.399684 189.552799 
L 391.067515 181.808925 
L 392.403178 197.296674 
L 393.071009 228.272172 
L 394.406671 243.759922 
L 395.074503 212.784423 
L 395.742334 205.040548 
L 396.410165 205.040548 
L 397.077996 212.784423 
L 397.745827 181.808925 
L 398.413659 197.296674 
L 399.08149 174.06505 
L 399.749321 189.552799 
L 400.417152 181.808925 
L 401.084983 189.552799 
L 401.752815 189.552799 
L 402.420646 212.784423 
L 403.088477 205.040548 
L 403.756308 220.528298 
L 404.424139 228.272172 
L 405.091971 220.528298 
L 405.759802 236.016047 
L 406.427633 243.759922 
L 407.095464 259.247671 
L 407.763295 266.991546 
L 408.431127 266.991546 
L 409.098958 290.22317 
L 409.766789 290.22317 
L 410.43462 282.479295 
L 411.102451 259.247671 
L 411.770283 259.247671 
L 412.438114 282.479295 
L 413.105945 266.991546 
L 413.773776 266.991546 
L 414.441607 274.73542 
L 415.109439 266.991546 
L 415.77727 251.503796 
L 416.445101 243.759922 
L 417.112932 212.784423 
L 417.780763 220.528298 
L 418.448595 212.784423 
L 419.116426 243.759922 
L 419.784257 313.454793 
L 420.452088 282.479295 
L 421.119919 290.22317 
L 421.787751 282.479295 
L 422.455582 290.22317 
L 423.791244 290.22317 
L 424.459075 297.967044 
L 425.126907 297.967044 
L 425.794738 313.454793 
L 426.462569 290.22317 
L 427.798231 321.198668 
L 428.466063 290.22317 
L 429.133894 282.479295 
L 429.801725 290.22317 
L 431.137388 259.247671 
L 431.805219 251.503796 
L 432.47305 251.503796 
L 433.140881 266.991546 
L 433.808712 274.73542 
L 434.476544 321.198668 
L 435.144375 290.22317 
L 435.812206 282.479295 
L 437.147868 297.967044 
L 437.8157 282.479295 
L 438.483531 274.73542 
L 439.151362 274.73542 
L 439.819193 266.991546 
L 440.487024 274.73542 
L 441.154856 266.991546 
L 442.490518 282.479295 
L 443.82618 282.479295 
L 444.494012 274.73542 
L 445.161843 274.73542 
L 445.829674 282.479295 
L 446.497505 266.991546 
L 447.165336 259.247671 
L 447.833168 236.016047 
L 448.500999 251.503796 
L 449.16883 290.22317 
L 449.836661 352.174167 
L 451.172324 352.174167 
L 451.840155 282.479295 
L 452.507986 266.991546 
L 453.175817 236.016047 
L 453.843648 259.247671 
L 454.51148 266.991546 
L 455.179311 282.479295 
L 455.847142 274.73542 
L 456.514973 297.967044 
L 457.182804 297.967044 
L 457.850636 305.710919 
L 458.518467 297.967044 
L 459.186298 297.967044 
L 460.52196 313.454793 
L 461.189792 290.22317 
L 461.857623 305.710919 
L 462.525454 313.454793 
L 463.193285 305.710919 
L 463.861116 305.710919 
L 464.528948 313.454793 
L 465.196779 297.967044 
L 466.532441 282.479295 
L 467.200272 266.991546 
L 467.200272 266.991546 
" style="fill:none;stroke:#2ca02c;stroke-linecap:square;stroke-width:1.5;"/>
   </g>
   <g id="line2d_19">
    <path clip-path="url(#p49ad8baca5)" d="M 101.87657 112.114053 
L 102.544401 57.90693 
L 103.212232 57.90693 
L 103.880063 50.163056 
L 104.547894 104.370178 
L 105.215726 127.601802 
L 105.883557 143.089551 
L 106.551388 150.833426 
L 107.219219 166.321175 
L 107.88705 189.552799 
L 108.554882 189.552799 
L 109.222713 197.296674 
L 109.890544 251.503796 
L 110.558375 282.479295 
L 111.226206 297.967044 
L 112.561869 282.479295 
L 113.897531 297.967044 
L 114.565362 297.967044 
L 115.233194 313.454793 
L 115.901025 305.710919 
L 116.568856 305.710919 
L 117.236687 336.686417 
L 117.904518 328.942543 
L 122.579337 328.942543 
L 123.247168 305.710919 
L 123.914999 328.942543 
L 124.58283 297.967044 
L 125.918493 297.967044 
L 126.586324 274.73542 
L 127.254155 266.991546 
L 127.921987 282.479295 
L 128.589818 274.73542 
L 131.261143 305.710919 
L 131.928974 297.967044 
L 132.596805 297.967044 
L 133.264636 266.991546 
L 133.932467 282.479295 
L 135.26813 266.991546 
L 135.935961 266.991546 
L 136.603792 282.479295 
L 137.271623 274.73542 
L 137.939455 282.479295 
L 138.607286 274.73542 
L 139.275117 290.22317 
L 140.610779 290.22317 
L 141.278611 282.479295 
L 142.614273 313.454793 
L 143.282104 305.710919 
L 143.949935 321.198668 
L 144.617767 328.942543 
L 145.285598 297.967044 
L 145.953429 305.710919 
L 146.62126 297.967044 
L 147.289091 305.710919 
L 147.956923 321.198668 
L 151.296079 321.198668 
L 151.96391 305.710919 
L 152.631741 352.174167 
L 153.299572 344.430292 
L 159.977884 344.430292 
L 160.645715 336.686417 
L 161.313547 313.454793 
L 161.981378 297.967044 
L 162.649209 305.710919 
L 165.988365 305.710919 
L 166.656196 290.22317 
L 167.324027 290.22317 
L 167.991859 282.479295 
L 168.65969 282.479295 
L 169.327521 297.967044 
L 169.995352 297.967044 
L 170.663183 290.22317 
L 171.331015 313.454793 
L 171.998846 297.967044 
L 172.666677 313.454793 
L 173.334508 313.454793 
L 174.00234 321.198668 
L 174.670171 313.454793 
L 176.005833 282.479295 
L 176.673664 274.73542 
L 177.341496 290.22317 
L 178.009327 282.479295 
L 178.677158 297.967044 
L 179.344989 328.942543 
L 180.01282 297.967044 
L 180.680652 297.967044 
L 181.348483 282.479295 
L 182.016314 259.247671 
L 183.351976 259.247671 
L 184.019808 266.991546 
L 184.687639 266.991546 
L 186.023301 251.503796 
L 186.691132 228.272172 
L 187.358964 220.528298 
L 188.026795 220.528298 
L 188.694626 228.272172 
L 189.362457 228.272172 
L 190.030288 205.040548 
L 190.69812 212.784423 
L 191.365951 212.784423 
L 192.033782 205.040548 
L 192.701613 212.784423 
L 193.369444 197.296674 
L 195.372938 197.296674 
L 196.040769 205.040548 
L 196.7086 220.528298 
L 197.376432 220.528298 
L 198.044263 212.784423 
L 198.712094 212.784423 
L 199.379925 228.272172 
L 201.383419 228.272172 
L 202.05125 236.016047 
L 202.719081 236.016047 
L 204.054744 266.991546 
L 204.722575 274.73542 
L 205.390406 266.991546 
L 206.058237 274.73542 
L 206.726068 266.991546 
L 207.3939 251.503796 
L 208.061731 251.503796 
L 208.729562 259.247671 
L 209.397393 259.247671 
L 210.733056 274.73542 
L 211.400887 259.247671 
L 212.068718 251.503796 
L 213.40438 266.991546 
L 214.072212 266.991546 
L 214.740043 282.479295 
L 215.407874 290.22317 
L 216.075705 282.479295 
L 216.743536 290.22317 
L 218.079199 290.22317 
L 218.74703 297.967044 
L 219.414861 297.967044 
L 220.082692 305.710919 
L 220.750524 297.967044 
L 221.418355 297.967044 
L 222.086186 282.479295 
L 222.754017 282.479295 
L 223.421849 290.22317 
L 224.08968 251.503796 
L 224.757511 259.247671 
L 225.425342 251.503796 
L 226.093173 236.016047 
L 226.761005 236.016047 
L 227.428836 228.272172 
L 228.096667 236.016047 
L 228.764498 259.247671 
L 229.432329 243.759922 
L 230.767992 259.247671 
L 231.435823 259.247671 
L 232.771485 274.73542 
L 233.439317 328.942543 
L 234.107148 282.479295 
L 234.774979 290.22317 
L 235.44281 290.22317 
L 236.110641 282.479295 
L 236.778473 290.22317 
L 237.446304 290.22317 
L 238.114135 305.710919 
L 238.781966 313.454793 
L 239.449797 305.710919 
L 240.117629 352.174167 
L 240.78546 313.454793 
L 242.788953 313.454793 
L 243.456785 321.198668 
L 244.124616 321.198668 
L 244.792447 336.686417 
L 245.460278 328.942543 
L 246.128109 336.686417 
L 247.463772 336.686417 
L 248.131603 344.430292 
L 248.799434 336.686417 
L 249.467265 344.430292 
L 250.135097 336.686417 
L 250.802928 344.430292 
L 251.470759 336.686417 
L 252.13859 344.430292 
L 252.806421 336.686417 
L 254.142084 336.686417 
L 254.809915 344.430292 
L 255.477746 336.686417 
L 256.813409 336.686417 
L 257.48124 328.942543 
L 258.149071 336.686417 
L 258.816902 321.198668 
L 259.484733 321.198668 
L 260.152565 336.686417 
L 260.820396 328.942543 
L 261.488227 328.942543 
L 262.156058 336.686417 
L 262.823889 328.942543 
L 264.827383 328.942543 
L 265.495214 344.430292 
L 266.163045 336.686417 
L 266.830877 344.430292 
L 268.166539 328.942543 
L 268.83437 328.942543 
L 269.502201 336.686417 
L 270.170033 305.710919 
L 270.837864 321.198668 
L 271.505695 328.942543 
L 272.173526 321.198668 
L 272.841358 321.198668 
L 273.509189 313.454793 
L 274.17702 313.454793 
L 274.844851 305.710919 
L 275.512682 305.710919 
L 276.180514 313.454793 
L 276.848345 328.942543 
L 277.516176 328.942543 
L 278.184007 305.710919 
L 279.51967 305.710919 
L 280.187501 297.967044 
L 280.855332 297.967044 
L 281.523163 305.710919 
L 282.858826 305.710919 
L 284.862319 328.942543 
L 285.53015 313.454793 
L 286.197982 313.454793 
L 286.865813 321.198668 
L 288.201475 321.198668 
L 288.869306 328.942543 
L 289.537138 321.198668 
L 290.204969 328.942543 
L 290.8728 328.942543 
L 291.540631 336.686417 
L 292.208462 328.942543 
L 292.876294 328.942543 
L 293.544125 321.198668 
L 294.211956 328.942543 
L 295.547618 313.454793 
L 296.21545 313.454793 
L 296.883281 297.967044 
L 297.551112 328.942543 
L 298.218943 313.454793 
L 298.886774 305.710919 
L 299.554606 313.454793 
L 300.890268 313.454793 
L 301.558099 321.198668 
L 302.22593 321.198668 
L 302.893762 336.686417 
L 303.561593 328.942543 
L 304.229424 344.430292 
L 304.897255 328.942543 
L 305.565086 328.942543 
L 306.232918 321.198668 
L 306.900749 328.942543 
L 308.236411 328.942543 
L 308.904242 336.686417 
L 309.572074 328.942543 
L 310.239905 352.174167 
L 310.907736 328.942543 
L 311.575567 328.942543 
L 312.243398 336.686417 
L 314.246892 336.686417 
L 314.914723 352.174167 
L 315.582554 336.686417 
L 316.918217 274.73542 
L 317.586048 259.247671 
L 318.253879 266.991546 
L 318.921711 282.479295 
L 319.589542 274.73542 
L 320.925204 290.22317 
L 322.260867 259.247671 
L 322.928698 259.247671 
L 323.596529 251.503796 
L 324.932191 251.503796 
L 325.600023 243.759922 
L 326.267854 243.759922 
L 326.935685 236.016047 
L 328.271347 251.503796 
L 328.939179 251.503796 
L 329.60701 243.759922 
L 330.274841 251.503796 
L 330.942672 251.503796 
L 331.610503 228.272172 
L 332.278335 243.759922 
L 332.946166 251.503796 
L 333.613997 236.016047 
L 334.281828 251.503796 
L 334.949659 251.503796 
L 335.617491 259.247671 
L 336.285322 251.503796 
L 336.953153 228.272172 
L 337.620984 220.528298 
L 338.288815 228.272172 
L 339.624478 212.784423 
L 340.292309 220.528298 
L 340.96014 212.784423 
L 341.627971 243.759922 
L 342.295803 282.479295 
L 342.963634 297.967044 
L 343.631465 282.479295 
L 344.299296 290.22317 
L 344.967127 290.22317 
L 345.634959 274.73542 
L 346.30279 274.73542 
L 346.970621 282.479295 
L 347.638452 282.479295 
L 348.306283 274.73542 
L 348.974115 290.22317 
L 350.977608 290.22317 
L 351.645439 305.710919 
L 352.313271 282.479295 
L 352.981102 274.73542 
L 353.648933 259.247671 
L 354.316764 266.991546 
L 354.984595 282.479295 
L 355.652427 328.942543 
L 356.320258 290.22317 
L 356.988089 282.479295 
L 357.65592 259.247671 
L 358.323751 259.247671 
L 358.991583 266.991546 
L 359.659414 251.503796 
L 360.327245 274.73542 
L 360.995076 266.991546 
L 361.662907 266.991546 
L 362.99857 282.479295 
L 363.666401 282.479295 
L 364.334232 297.967044 
L 365.002063 297.967044 
L 365.669895 313.454793 
L 366.337726 305.710919 
L 367.673388 321.198668 
L 368.34122 336.686417 
L 369.009051 336.686417 
L 370.344713 321.198668 
L 371.012544 321.198668 
L 372.348207 336.686417 
L 373.016038 336.686417 
L 373.683869 344.430292 
L 375.019532 344.430292 
L 375.687363 336.686417 
L 376.355194 336.686417 
L 377.690856 352.174167 
L 378.358688 344.430292 
L 379.026519 352.174167 
L 379.69435 352.174167 
L 380.362181 344.430292 
L 387.040493 344.430292 
L 387.708324 352.174167 
L 389.043987 352.174167 
L 389.711818 344.430292 
L 390.379649 344.430292 
L 391.04748 352.174167 
L 391.715312 352.174167 
L 392.383143 336.686417 
L 393.050974 328.942543 
L 393.718805 344.430292 
L 394.386636 336.686417 
L 395.054468 344.430292 
L 397.057961 344.430292 
L 397.725792 336.686417 
L 399.061455 352.174167 
L 399.729286 344.430292 
L 400.397117 352.174167 
L 401.73278 336.686417 
L 402.400611 336.686417 
L 403.068442 344.430292 
L 403.736273 336.686417 
L 404.404104 336.686417 
L 405.739767 352.174167 
L 406.407598 352.174167 
L 407.075429 328.942543 
L 407.74326 321.198668 
L 408.411092 321.198668 
L 409.078923 344.430292 
L 409.746754 321.198668 
L 410.414585 328.942543 
L 412.418079 328.942543 
L 413.08591 344.430292 
L 413.753741 321.198668 
L 415.089404 305.710919 
L 416.425066 321.198668 
L 417.760729 321.198668 
L 418.42856 313.454793 
L 419.096391 321.198668 
L 419.764222 321.198668 
L 421.099885 336.686417 
L 421.767716 328.942543 
L 422.435547 344.430292 
L 423.103378 344.430292 
L 423.771209 328.942543 
L 424.439041 336.686417 
L 425.106872 328.942543 
L 426.442534 344.430292 
L 427.110365 344.430292 
L 427.778197 336.686417 
L 428.446028 336.686417 
L 429.113859 328.942543 
L 429.78169 344.430292 
L 430.449521 328.942543 
L 431.117353 297.967044 
L 431.785184 282.479295 
L 432.453015 282.479295 
L 433.120846 259.247671 
L 433.788677 266.991546 
L 434.456509 259.247671 
L 435.12434 274.73542 
L 435.792171 251.503796 
L 437.127833 236.016047 
L 437.795665 243.759922 
L 438.463496 259.247671 
L 439.131327 266.991546 
L 439.799158 282.479295 
L 440.466989 282.479295 
L 441.134821 266.991546 
L 441.802652 259.247671 
L 442.470483 259.247671 
L 443.138314 266.991546 
L 443.806145 282.479295 
L 445.809639 282.479295 
L 446.47747 290.22317 
L 447.813133 290.22317 
L 449.148795 305.710919 
L 449.816626 305.710919 
L 450.484457 313.454793 
L 451.152289 305.710919 
L 451.82012 321.198668 
L 452.487951 313.454793 
L 454.491445 313.454793 
L 455.159276 305.710919 
L 455.827107 321.198668 
L 456.494938 305.710919 
L 457.162769 313.454793 
L 458.498432 313.454793 
L 459.166263 328.942543 
L 459.834094 321.198668 
L 460.501925 305.710919 
L 461.169757 328.942543 
L 461.837588 328.942543 
L 461.837588 328.942543 
" style="fill:none;stroke:#d62728;stroke-linecap:square;stroke-width:1.5;"/>
   </g>
   <g id="patch_3">
    <path d="M 83.472344 352.174167 
L 83.472344 35.0625 
" style="fill:none;stroke:#000000;stroke-linecap:square;stroke-linejoin:miter;stroke-width:0.8;"/>
   </g>
   <g id="patch_4">
    <path d="M 488.365312 352.174167 
L 488.365312 35.0625 
" style="fill:none;stroke:#000000;stroke-linecap:square;stroke-linejoin:miter;stroke-width:0.8;"/>
   </g>
   <g id="patch_5">
    <path d="M 83.472344 352.174167 
L 488.365312 352.174167 
" style="fill:none;stroke:#000000;stroke-linecap:square;stroke-linejoin:miter;stroke-width:0.8;"/>
   </g>
   <g id="patch_6">
    <path d="M 83.472344 35.0625 
L 488.365312 35.0625 
" style="fill:none;stroke:#000000;stroke-linecap:square;stroke-linejoin:miter;stroke-width:0.8;"/>
   </g>
   <g id="legend_1">
    <g id="patch_7">
     <path d="M 510.609961 96.775 
L 609.680273 96.775 
Q 611.680273 96.775 611.680273 94.775 
L 611.680273 37.0625 
Q 611.680273 35.0625 609.680273 35.0625 
L 510.609961 35.0625 
Q 508.609961 35.0625 508.609961 37.0625 
L 508.609961 94.775 
Q 508.609961 96.775 510.609961 96.775 
z
" style="fill:#ffffff;opacity:0.8;stroke:#cccccc;stroke-linejoin:miter;"/>
    </g>
    <g id="line2d_20">
     <path d="M 512.609961 43.160937 
L 532.609961 43.160937 
" style="fill:none;stroke:#1f77b4;stroke-linecap:square;stroke-width:1.5;"/>
    </g>
    <g id="line2d_21"/>
    <g id="text_17">
     <!-- bbrshallow-pi -->
     <defs>
      <path d="M 34.28125 27.484375 
Q 23.390625 27.484375 19.1875 25 
Q 14.984375 22.515625 14.984375 16.5 
Q 14.984375 11.71875 18.140625 8.90625 
Q 21.296875 6.109375 26.703125 6.109375 
Q 34.1875 6.109375 38.703125 11.40625 
Q 43.21875 16.703125 43.21875 25.484375 
L 43.21875 27.484375 
z
M 52.203125 31.203125 
L 52.203125 0 
L 43.21875 0 
L 43.21875 8.296875 
Q 40.140625 3.328125 35.546875 0.953125 
Q 30.953125 -1.421875 24.3125 -1.421875 
Q 15.921875 -1.421875 10.953125 3.296875 
Q 6 8.015625 6 15.921875 
Q 6 25.140625 12.171875 29.828125 
Q 18.359375 34.515625 30.609375 34.515625 
L 43.21875 34.515625 
L 43.21875 35.40625 
Q 43.21875 41.609375 39.140625 45 
Q 35.0625 48.390625 27.6875 48.390625 
Q 23 48.390625 18.546875 47.265625 
Q 14.109375 46.140625 10.015625 43.890625 
L 10.015625 52.203125 
Q 14.9375 54.109375 19.578125 55.046875 
Q 24.21875 56 28.609375 56 
Q 40.484375 56 46.34375 49.84375 
Q 52.203125 43.703125 52.203125 31.203125 
z
" id="DejaVuSans-97"/>
      <path d="M 9.421875 75.984375 
L 18.40625 75.984375 
L 18.40625 0 
L 9.421875 0 
z
" id="DejaVuSans-108"/>
      <path d="M 4.203125 54.6875 
L 13.1875 54.6875 
L 24.421875 12.015625 
L 35.59375 54.6875 
L 46.1875 54.6875 
L 57.421875 12.015625 
L 68.609375 54.6875 
L 77.59375 54.6875 
L 63.28125 0 
L 52.6875 0 
L 40.921875 44.828125 
L 29.109375 0 
L 18.5 0 
z
" id="DejaVuSans-119"/>
      <path d="M 4.890625 31.390625 
L 31.203125 31.390625 
L 31.203125 23.390625 
L 4.890625 23.390625 
z
" id="DejaVuSans-45"/>
     </defs>
     <g transform="translate(540.609961 46.660937)scale(0.1 -0.1)">
      <use xlink:href="#DejaVuSans-98"/>
      <use x="63.476562" xlink:href="#DejaVuSans-98"/>
      <use x="126.953125" xlink:href="#DejaVuSans-114"/>
      <use x="168.066406" xlink:href="#DejaVuSans-115"/>
      <use x="220.166016" xlink:href="#DejaVuSans-104"/>
      <use x="283.544922" xlink:href="#DejaVuSans-97"/>
      <use x="344.824219" xlink:href="#DejaVuSans-108"/>
      <use x="372.607422" xlink:href="#DejaVuSans-108"/>
      <use x="400.390625" xlink:href="#DejaVuSans-111"/>
      <use x="461.572266" xlink:href="#DejaVuSans-119"/>
      <use x="543.359375" xlink:href="#DejaVuSans-45"/>
      <use x="579.443359" xlink:href="#DejaVuSans-112"/>
      <use x="642.919922" xlink:href="#DejaVuSans-105"/>
     </g>
    </g>
    <g id="line2d_22">
     <path d="M 512.609961 57.839063 
L 532.609961 57.839063 
" style="fill:none;stroke:#ff7f0e;stroke-linecap:square;stroke-width:1.5;"/>
    </g>
    <g id="line2d_23"/>
    <g id="text_18">
     <!-- bbrshallow-pi -->
     <g transform="translate(540.609961 61.339063)scale(0.1 -0.1)">
      <use xlink:href="#DejaVuSans-98"/>
      <use x="63.476562" xlink:href="#DejaVuSans-98"/>
      <use x="126.953125" xlink:href="#DejaVuSans-114"/>
      <use x="168.066406" xlink:href="#DejaVuSans-115"/>
      <use x="220.166016" xlink:href="#DejaVuSans-104"/>
      <use x="283.544922" xlink:href="#DejaVuSans-97"/>
      <use x="344.824219" xlink:href="#DejaVuSans-108"/>
      <use x="372.607422" xlink:href="#DejaVuSans-108"/>
      <use x="400.390625" xlink:href="#DejaVuSans-111"/>
      <use x="461.572266" xlink:href="#DejaVuSans-119"/>
      <use x="543.359375" xlink:href="#DejaVuSans-45"/>
      <use x="579.443359" xlink:href="#DejaVuSans-112"/>
      <use x="642.919922" xlink:href="#DejaVuSans-105"/>
     </g>
    </g>
    <g id="line2d_24">
     <path d="M 512.609961 72.517187 
L 532.609961 72.517187 
" style="fill:none;stroke:#2ca02c;stroke-linecap:square;stroke-width:1.5;"/>
    </g>
    <g id="line2d_25"/>
    <g id="text_19">
     <!-- bbrshallow-pi -->
     <g transform="translate(540.609961 76.017187)scale(0.1 -0.1)">
      <use xlink:href="#DejaVuSans-98"/>
      <use x="63.476562" xlink:href="#DejaVuSans-98"/>
      <use x="126.953125" xlink:href="#DejaVuSans-114"/>
      <use x="168.066406" xlink:href="#DejaVuSans-115"/>
      <use x="220.166016" xlink:href="#DejaVuSans-104"/>
      <use x="283.544922" xlink:href="#DejaVuSans-97"/>
      <use x="344.824219" xlink:href="#DejaVuSans-108"/>
      <use x="372.607422" xlink:href="#DejaVuSans-108"/>
      <use x="400.390625" xlink:href="#DejaVuSans-111"/>
      <use x="461.572266" xlink:href="#DejaVuSans-119"/>
      <use x="543.359375" xlink:href="#DejaVuSans-45"/>
      <use x="579.443359" xlink:href="#DejaVuSans-112"/>
      <use x="642.919922" xlink:href="#DejaVuSans-105"/>
     </g>
    </g>
    <g id="line2d_26">
     <path d="M 512.609961 87.195312 
L 532.609961 87.195312 
" style="fill:none;stroke:#d62728;stroke-linecap:square;stroke-width:1.5;"/>
    </g>
    <g id="line2d_27"/>
    <g id="text_20">
     <!-- bbrshallow-pi -->
     <g transform="translate(540.609961 90.695312)scale(0.1 -0.1)">
      <use xlink:href="#DejaVuSans-98"/>
      <use x="63.476562" xlink:href="#DejaVuSans-98"/>
      <use x="126.953125" xlink:href="#DejaVuSans-114"/>
      <use x="168.066406" xlink:href="#DejaVuSans-115"/>
      <use x="220.166016" xlink:href="#DejaVuSans-104"/>
      <use x="283.544922" xlink:href="#DejaVuSans-97"/>
      <use x="344.824219" xlink:href="#DejaVuSans-108"/>
      <use x="372.607422" xlink:href="#DejaVuSans-108"/>
      <use x="400.390625" xlink:href="#DejaVuSans-111"/>
      <use x="461.572266" xlink:href="#DejaVuSans-119"/>
      <use x="543.359375" xlink:href="#DejaVuSans-45"/>
      <use x="579.443359" xlink:href="#DejaVuSans-112"/>
      <use x="642.919922" xlink:href="#DejaVuSans-105"/>
     </g>
    </g>
   </g>
  </g>
  <g id="text_21">
   <!-- result throughput -->
   <g transform="translate(289.320938 17.038125)scale(0.12 -0.12)">
    <use xlink:href="#DejaVuSans-114"/>
    <use x="41.082031" xlink:href="#DejaVuSans-101"/>
    <use x="102.605469" xlink:href="#DejaVuSans-115"/>
    <use x="154.705078" xlink:href="#DejaVuSans-117"/>
    <use x="218.083984" xlink:href="#DejaVuSans-108"/>
    <use x="245.867188" xlink:href="#DejaVuSans-116"/>
    <use x="285.076172" xlink:href="#DejaVuSans-32"/>
    <use x="316.863281" xlink:href="#DejaVuSans-116"/>
    <use x="356.072266" xlink:href="#DejaVuSans-104"/>
    <use x="419.451172" xlink:href="#DejaVuSans-114"/>
    <use x="460.533203" xlink:href="#DejaVuSans-111"/>
    <use x="521.714844" xlink:href="#DejaVuSans-117"/>
    <use x="585.09375" xlink:href="#DejaVuSans-103"/>
    <use x="648.570312" xlink:href="#DejaVuSans-104"/>
    <use x="711.949219" xlink:href="#DejaVuSans-112"/>
    <use x="775.425781" xlink:href="#DejaVuSans-117"/>
    <use x="838.804688" xlink:href="#DejaVuSans-116"/>
   </g>
  </g>
 </g>
 <defs>
  <clipPath id="p49ad8baca5">
   <rect height="317.111667" width="404.892969" x="83.472344" y="35.0625"/>
  </clipPath>
 </defs>
</svg>
