<?xml version="1.0" encoding="utf-8" standalone="no"?>
<!DOCTYPE svg PUBLIC "-//W3C//DTD SVG 1.1//EN"
  "http://www.w3.org/Graphics/SVG/1.1/DTD/svg11.dtd">
<!-- Created with matplotlib (https://matplotlib.org/) -->
<svg height="396pt" version="1.1" viewBox="0 0 684 396" width="684pt" xmlns="http://www.w3.org/2000/svg" xmlns:xlink="http://www.w3.org/1999/xlink">
 <defs>
  <style type="text/css">
*{stroke-linecap:butt;stroke-linejoin:round;}
  </style>
 </defs>
 <g id="figure_1">
  <g id="patch_1">
   <path d="M 0 396 
L 684 396 
L 684 0 
L 0 0 
z
" style="fill:#ffffff;"/>
  </g>
  <g id="axes_1">
   <g id="patch_2">
    <path d="M 83.472344 352.174167 
L 544.073906 352.174167 
L 544.073906 35.0625 
L 83.472344 35.0625 
z
" style="fill:#ffffff;"/>
   </g>
   <g id="matplotlib.axis_1">
    <g id="xtick_1">
     <g id="line2d_1">
      <defs>
       <path d="M 0 0 
L 0 3.5 
" id="m18b194fce7" style="stroke:#000000;stroke-width:0.8;"/>
      </defs>
      <g>
       <use style="stroke:#000000;stroke-width:0.8;" x="104.408778" xlink:href="#m18b194fce7" y="352.174167"/>
      </g>
     </g>
     <g id="text_1">
      <!-- 0 -->
      <defs>
       <path d="M 31.78125 66.40625 
Q 24.171875 66.40625 20.328125 58.90625 
Q 16.5 51.421875 16.5 36.375 
Q 16.5 21.390625 20.328125 13.890625 
Q 24.171875 6.390625 31.78125 6.390625 
Q 39.453125 6.390625 43.28125 13.890625 
Q 47.125 21.390625 47.125 36.375 
Q 47.125 51.421875 43.28125 58.90625 
Q 39.453125 66.40625 31.78125 66.40625 
z
M 31.78125 74.21875 
Q 44.046875 74.21875 50.515625 64.515625 
Q 56.984375 54.828125 56.984375 36.375 
Q 56.984375 17.96875 50.515625 8.265625 
Q 44.046875 -1.421875 31.78125 -1.421875 
Q 19.53125 -1.421875 13.0625 8.265625 
Q 6.59375 17.96875 6.59375 36.375 
Q 6.59375 54.828125 13.0625 64.515625 
Q 19.53125 74.21875 31.78125 74.21875 
z
" id="DejaVuSans-48"/>
      </defs>
      <g transform="translate(101.227528 366.772604)scale(0.1 -0.1)">
       <use xlink:href="#DejaVuSans-48"/>
      </g>
     </g>
    </g>
    <g id="xtick_2">
     <g id="line2d_2">
      <g>
       <use style="stroke:#000000;stroke-width:0.8;" x="180.277796" xlink:href="#m18b194fce7" y="352.174167"/>
      </g>
     </g>
     <g id="text_2">
      <!-- 50 -->
      <defs>
       <path d="M 10.796875 72.90625 
L 49.515625 72.90625 
L 49.515625 64.59375 
L 19.828125 64.59375 
L 19.828125 46.734375 
Q 21.96875 47.46875 24.109375 47.828125 
Q 26.265625 48.1875 28.421875 48.1875 
Q 40.625 48.1875 47.75 41.5 
Q 54.890625 34.8125 54.890625 23.390625 
Q 54.890625 11.625 47.5625 5.09375 
Q 40.234375 -1.421875 26.90625 -1.421875 
Q 22.3125 -1.421875 17.546875 -0.640625 
Q 12.796875 0.140625 7.71875 1.703125 
L 7.71875 11.625 
Q 12.109375 9.234375 16.796875 8.0625 
Q 21.484375 6.890625 26.703125 6.890625 
Q 35.15625 6.890625 40.078125 11.328125 
Q 45.015625 15.765625 45.015625 23.390625 
Q 45.015625 31 40.078125 35.4375 
Q 35.15625 39.890625 26.703125 39.890625 
Q 22.75 39.890625 18.8125 39.015625 
Q 14.890625 38.140625 10.796875 36.28125 
z
" id="DejaVuSans-53"/>
      </defs>
      <g transform="translate(173.915296 366.772604)scale(0.1 -0.1)">
       <use xlink:href="#DejaVuSans-53"/>
       <use x="63.623047" xlink:href="#DejaVuSans-48"/>
      </g>
     </g>
    </g>
    <g id="xtick_3">
     <g id="line2d_3">
      <g>
       <use style="stroke:#000000;stroke-width:0.8;" x="256.146813" xlink:href="#m18b194fce7" y="352.174167"/>
      </g>
     </g>
     <g id="text_3">
      <!-- 100 -->
      <defs>
       <path d="M 12.40625 8.296875 
L 28.515625 8.296875 
L 28.515625 63.921875 
L 10.984375 60.40625 
L 10.984375 69.390625 
L 28.421875 72.90625 
L 38.28125 72.90625 
L 38.28125 8.296875 
L 54.390625 8.296875 
L 54.390625 0 
L 12.40625 0 
z
" id="DejaVuSans-49"/>
      </defs>
      <g transform="translate(246.603063 366.772604)scale(0.1 -0.1)">
       <use xlink:href="#DejaVuSans-49"/>
       <use x="63.623047" xlink:href="#DejaVuSans-48"/>
       <use x="127.246094" xlink:href="#DejaVuSans-48"/>
      </g>
     </g>
    </g>
    <g id="xtick_4">
     <g id="line2d_4">
      <g>
       <use style="stroke:#000000;stroke-width:0.8;" x="332.01583" xlink:href="#m18b194fce7" y="352.174167"/>
      </g>
     </g>
     <g id="text_4">
      <!-- 150 -->
      <g transform="translate(322.47208 366.772604)scale(0.1 -0.1)">
       <use xlink:href="#DejaVuSans-49"/>
       <use x="63.623047" xlink:href="#DejaVuSans-53"/>
       <use x="127.246094" xlink:href="#DejaVuSans-48"/>
      </g>
     </g>
    </g>
    <g id="xtick_5">
     <g id="line2d_5">
      <g>
       <use style="stroke:#000000;stroke-width:0.8;" x="407.884847" xlink:href="#m18b194fce7" y="352.174167"/>
      </g>
     </g>
     <g id="text_5">
      <!-- 200 -->
      <defs>
       <path d="M 19.1875 8.296875 
L 53.609375 8.296875 
L 53.609375 0 
L 7.328125 0 
L 7.328125 8.296875 
Q 12.9375 14.109375 22.625 23.890625 
Q 32.328125 33.6875 34.8125 36.53125 
Q 39.546875 41.84375 41.421875 45.53125 
Q 43.3125 49.21875 43.3125 52.78125 
Q 43.3125 58.59375 39.234375 62.25 
Q 35.15625 65.921875 28.609375 65.921875 
Q 23.96875 65.921875 18.8125 64.3125 
Q 13.671875 62.703125 7.8125 59.421875 
L 7.8125 69.390625 
Q 13.765625 71.78125 18.9375 73 
Q 24.125 74.21875 28.421875 74.21875 
Q 39.75 74.21875 46.484375 68.546875 
Q 53.21875 62.890625 53.21875 53.421875 
Q 53.21875 48.921875 51.53125 44.890625 
Q 49.859375 40.875 45.40625 35.40625 
Q 44.1875 33.984375 37.640625 27.21875 
Q 31.109375 20.453125 19.1875 8.296875 
z
" id="DejaVuSans-50"/>
      </defs>
      <g transform="translate(398.341097 366.772604)scale(0.1 -0.1)">
       <use xlink:href="#DejaVuSans-50"/>
       <use x="63.623047" xlink:href="#DejaVuSans-48"/>
       <use x="127.246094" xlink:href="#DejaVuSans-48"/>
      </g>
     </g>
    </g>
    <g id="xtick_6">
     <g id="line2d_6">
      <g>
       <use style="stroke:#000000;stroke-width:0.8;" x="483.753865" xlink:href="#m18b194fce7" y="352.174167"/>
      </g>
     </g>
     <g id="text_6">
      <!-- 250 -->
      <g transform="translate(474.210115 366.772604)scale(0.1 -0.1)">
       <use xlink:href="#DejaVuSans-50"/>
       <use x="63.623047" xlink:href="#DejaVuSans-53"/>
       <use x="127.246094" xlink:href="#DejaVuSans-48"/>
      </g>
     </g>
    </g>
   </g>
   <g id="matplotlib.axis_2">
    <g id="ytick_1">
     <g id="line2d_7">
      <defs>
       <path d="M 0 0 
L -3.5 0 
" id="m0d2234bee6" style="stroke:#000000;stroke-width:0.8;"/>
      </defs>
      <g>
       <use style="stroke:#000000;stroke-width:0.8;" x="83.472344" xlink:href="#m0d2234bee6" y="352.174167"/>
      </g>
     </g>
     <g id="text_7">
      <!-- 0 -->
      <g transform="translate(70.109844 355.973385)scale(0.1 -0.1)">
       <use xlink:href="#DejaVuSans-48"/>
      </g>
     </g>
    </g>
    <g id="ytick_2">
     <g id="line2d_8">
      <g>
       <use style="stroke:#000000;stroke-width:0.8;" x="83.472344" xlink:href="#m0d2234bee6" y="313.944912"/>
      </g>
     </g>
     <g id="text_8">
      <!-- 10 -->
      <g transform="translate(63.747344 317.744131)scale(0.1 -0.1)">
       <use xlink:href="#DejaVuSans-49"/>
       <use x="63.623047" xlink:href="#DejaVuSans-48"/>
      </g>
     </g>
    </g>
    <g id="ytick_3">
     <g id="line2d_9">
      <g>
       <use style="stroke:#000000;stroke-width:0.8;" x="83.472344" xlink:href="#m0d2234bee6" y="275.715658"/>
      </g>
     </g>
     <g id="text_9">
      <!-- 20 -->
      <g transform="translate(63.747344 279.514876)scale(0.1 -0.1)">
       <use xlink:href="#DejaVuSans-50"/>
       <use x="63.623047" xlink:href="#DejaVuSans-48"/>
      </g>
     </g>
    </g>
    <g id="ytick_4">
     <g id="line2d_10">
      <g>
       <use style="stroke:#000000;stroke-width:0.8;" x="83.472344" xlink:href="#m0d2234bee6" y="237.486403"/>
      </g>
     </g>
     <g id="text_10">
      <!-- 30 -->
      <defs>
       <path d="M 40.578125 39.3125 
Q 47.65625 37.796875 51.625 33 
Q 55.609375 28.21875 55.609375 21.1875 
Q 55.609375 10.40625 48.1875 4.484375 
Q 40.765625 -1.421875 27.09375 -1.421875 
Q 22.515625 -1.421875 17.65625 -0.515625 
Q 12.796875 0.390625 7.625 2.203125 
L 7.625 11.71875 
Q 11.71875 9.328125 16.59375 8.109375 
Q 21.484375 6.890625 26.8125 6.890625 
Q 36.078125 6.890625 40.9375 10.546875 
Q 45.796875 14.203125 45.796875 21.1875 
Q 45.796875 27.640625 41.28125 31.265625 
Q 36.765625 34.90625 28.71875 34.90625 
L 20.21875 34.90625 
L 20.21875 43.015625 
L 29.109375 43.015625 
Q 36.375 43.015625 40.234375 45.921875 
Q 44.09375 48.828125 44.09375 54.296875 
Q 44.09375 59.90625 40.109375 62.90625 
Q 36.140625 65.921875 28.71875 65.921875 
Q 24.65625 65.921875 20.015625 65.03125 
Q 15.375 64.15625 9.8125 62.3125 
L 9.8125 71.09375 
Q 15.4375 72.65625 20.34375 73.4375 
Q 25.25 74.21875 29.59375 74.21875 
Q 40.828125 74.21875 47.359375 69.109375 
Q 53.90625 64.015625 53.90625 55.328125 
Q 53.90625 49.265625 50.4375 45.09375 
Q 46.96875 40.921875 40.578125 39.3125 
z
" id="DejaVuSans-51"/>
      </defs>
      <g transform="translate(63.747344 241.285622)scale(0.1 -0.1)">
       <use xlink:href="#DejaVuSans-51"/>
       <use x="63.623047" xlink:href="#DejaVuSans-48"/>
      </g>
     </g>
    </g>
    <g id="ytick_5">
     <g id="line2d_11">
      <g>
       <use style="stroke:#000000;stroke-width:0.8;" x="83.472344" xlink:href="#m0d2234bee6" y="199.257148"/>
      </g>
     </g>
     <g id="text_11">
      <!-- 40 -->
      <defs>
       <path d="M 37.796875 64.3125 
L 12.890625 25.390625 
L 37.796875 25.390625 
z
M 35.203125 72.90625 
L 47.609375 72.90625 
L 47.609375 25.390625 
L 58.015625 25.390625 
L 58.015625 17.1875 
L 47.609375 17.1875 
L 47.609375 0 
L 37.796875 0 
L 37.796875 17.1875 
L 4.890625 17.1875 
L 4.890625 26.703125 
z
" id="DejaVuSans-52"/>
      </defs>
      <g transform="translate(63.747344 203.056367)scale(0.1 -0.1)">
       <use xlink:href="#DejaVuSans-52"/>
       <use x="63.623047" xlink:href="#DejaVuSans-48"/>
      </g>
     </g>
    </g>
    <g id="ytick_6">
     <g id="line2d_12">
      <g>
       <use style="stroke:#000000;stroke-width:0.8;" x="83.472344" xlink:href="#m0d2234bee6" y="161.027894"/>
      </g>
     </g>
     <g id="text_12">
      <!-- 50 -->
      <g transform="translate(63.747344 164.827113)scale(0.1 -0.1)">
       <use xlink:href="#DejaVuSans-53"/>
       <use x="63.623047" xlink:href="#DejaVuSans-48"/>
      </g>
     </g>
    </g>
    <g id="ytick_7">
     <g id="line2d_13">
      <g>
       <use style="stroke:#000000;stroke-width:0.8;" x="83.472344" xlink:href="#m0d2234bee6" y="122.798639"/>
      </g>
     </g>
     <g id="text_13">
      <!-- 60 -->
      <defs>
       <path d="M 33.015625 40.375 
Q 26.375 40.375 22.484375 35.828125 
Q 18.609375 31.296875 18.609375 23.390625 
Q 18.609375 15.53125 22.484375 10.953125 
Q 26.375 6.390625 33.015625 6.390625 
Q 39.65625 6.390625 43.53125 10.953125 
Q 47.40625 15.53125 47.40625 23.390625 
Q 47.40625 31.296875 43.53125 35.828125 
Q 39.65625 40.375 33.015625 40.375 
z
M 52.59375 71.296875 
L 52.59375 62.3125 
Q 48.875 64.0625 45.09375 64.984375 
Q 41.3125 65.921875 37.59375 65.921875 
Q 27.828125 65.921875 22.671875 59.328125 
Q 17.53125 52.734375 16.796875 39.40625 
Q 19.671875 43.65625 24.015625 45.921875 
Q 28.375 48.1875 33.59375 48.1875 
Q 44.578125 48.1875 50.953125 41.515625 
Q 57.328125 34.859375 57.328125 23.390625 
Q 57.328125 12.15625 50.6875 5.359375 
Q 44.046875 -1.421875 33.015625 -1.421875 
Q 20.359375 -1.421875 13.671875 8.265625 
Q 6.984375 17.96875 6.984375 36.375 
Q 6.984375 53.65625 15.1875 63.9375 
Q 23.390625 74.21875 37.203125 74.21875 
Q 40.921875 74.21875 44.703125 73.484375 
Q 48.484375 72.75 52.59375 71.296875 
z
" id="DejaVuSans-54"/>
      </defs>
      <g transform="translate(63.747344 126.597858)scale(0.1 -0.1)">
       <use xlink:href="#DejaVuSans-54"/>
       <use x="63.623047" xlink:href="#DejaVuSans-48"/>
      </g>
     </g>
    </g>
    <g id="ytick_8">
     <g id="line2d_14">
      <g>
       <use style="stroke:#000000;stroke-width:0.8;" x="83.472344" xlink:href="#m0d2234bee6" y="84.569385"/>
      </g>
     </g>
     <g id="text_14">
      <!-- 70 -->
      <defs>
       <path d="M 8.203125 72.90625 
L 55.078125 72.90625 
L 55.078125 68.703125 
L 28.609375 0 
L 18.3125 0 
L 43.21875 64.59375 
L 8.203125 64.59375 
z
" id="DejaVuSans-55"/>
      </defs>
      <g transform="translate(63.747344 88.368603)scale(0.1 -0.1)">
       <use xlink:href="#DejaVuSans-55"/>
       <use x="63.623047" xlink:href="#DejaVuSans-48"/>
      </g>
     </g>
    </g>
    <g id="ytick_9">
     <g id="line2d_15">
      <g>
       <use style="stroke:#000000;stroke-width:0.8;" x="83.472344" xlink:href="#m0d2234bee6" y="46.34013"/>
      </g>
     </g>
     <g id="text_15">
      <!-- 80 -->
      <defs>
       <path d="M 31.78125 34.625 
Q 24.75 34.625 20.71875 30.859375 
Q 16.703125 27.09375 16.703125 20.515625 
Q 16.703125 13.921875 20.71875 10.15625 
Q 24.75 6.390625 31.78125 6.390625 
Q 38.8125 6.390625 42.859375 10.171875 
Q 46.921875 13.96875 46.921875 20.515625 
Q 46.921875 27.09375 42.890625 30.859375 
Q 38.875 34.625 31.78125 34.625 
z
M 21.921875 38.8125 
Q 15.578125 40.375 12.03125 44.71875 
Q 8.5 49.078125 8.5 55.328125 
Q 8.5 64.0625 14.71875 69.140625 
Q 20.953125 74.21875 31.78125 74.21875 
Q 42.671875 74.21875 48.875 69.140625 
Q 55.078125 64.0625 55.078125 55.328125 
Q 55.078125 49.078125 51.53125 44.71875 
Q 48 40.375 41.703125 38.8125 
Q 48.828125 37.15625 52.796875 32.3125 
Q 56.78125 27.484375 56.78125 20.515625 
Q 56.78125 9.90625 50.3125 4.234375 
Q 43.84375 -1.421875 31.78125 -1.421875 
Q 19.734375 -1.421875 13.25 4.234375 
Q 6.78125 9.90625 6.78125 20.515625 
Q 6.78125 27.484375 10.78125 32.3125 
Q 14.796875 37.15625 21.921875 38.8125 
z
M 18.3125 54.390625 
Q 18.3125 48.734375 21.84375 45.5625 
Q 25.390625 42.390625 31.78125 42.390625 
Q 38.140625 42.390625 41.71875 45.5625 
Q 45.3125 48.734375 45.3125 54.390625 
Q 45.3125 60.0625 41.71875 63.234375 
Q 38.140625 66.40625 31.78125 66.40625 
Q 25.390625 66.40625 21.84375 63.234375 
Q 18.3125 60.0625 18.3125 54.390625 
z
" id="DejaVuSans-56"/>
      </defs>
      <g transform="translate(63.747344 50.139349)scale(0.1 -0.1)">
       <use xlink:href="#DejaVuSans-56"/>
       <use x="63.623047" xlink:href="#DejaVuSans-48"/>
      </g>
     </g>
    </g>
    <g id="text_16">
     <!-- throughput -->
     <defs>
      <path d="M 18.3125 70.21875 
L 18.3125 54.6875 
L 36.8125 54.6875 
L 36.8125 47.703125 
L 18.3125 47.703125 
L 18.3125 18.015625 
Q 18.3125 11.328125 20.140625 9.421875 
Q 21.96875 7.515625 27.59375 7.515625 
L 36.8125 7.515625 
L 36.8125 0 
L 27.59375 0 
Q 17.1875 0 13.234375 3.875 
Q 9.28125 7.765625 9.28125 18.015625 
L 9.28125 47.703125 
L 2.6875 47.703125 
L 2.6875 54.6875 
L 9.28125 54.6875 
L 9.28125 70.21875 
z
" id="DejaVuSans-116"/>
      <path d="M 54.890625 33.015625 
L 54.890625 0 
L 45.90625 0 
L 45.90625 32.71875 
Q 45.90625 40.484375 42.875 44.328125 
Q 39.84375 48.1875 33.796875 48.1875 
Q 26.515625 48.1875 22.3125 43.546875 
Q 18.109375 38.921875 18.109375 30.90625 
L 18.109375 0 
L 9.078125 0 
L 9.078125 75.984375 
L 18.109375 75.984375 
L 18.109375 46.1875 
Q 21.34375 51.125 25.703125 53.5625 
Q 30.078125 56 35.796875 56 
Q 45.21875 56 50.046875 50.171875 
Q 54.890625 44.34375 54.890625 33.015625 
z
" id="DejaVuSans-104"/>
      <path d="M 41.109375 46.296875 
Q 39.59375 47.171875 37.8125 47.578125 
Q 36.03125 48 33.890625 48 
Q 26.265625 48 22.1875 43.046875 
Q 18.109375 38.09375 18.109375 28.8125 
L 18.109375 0 
L 9.078125 0 
L 9.078125 54.6875 
L 18.109375 54.6875 
L 18.109375 46.1875 
Q 20.953125 51.171875 25.484375 53.578125 
Q 30.03125 56 36.53125 56 
Q 37.453125 56 38.578125 55.875 
Q 39.703125 55.765625 41.0625 55.515625 
z
" id="DejaVuSans-114"/>
      <path d="M 30.609375 48.390625 
Q 23.390625 48.390625 19.1875 42.75 
Q 14.984375 37.109375 14.984375 27.296875 
Q 14.984375 17.484375 19.15625 11.84375 
Q 23.34375 6.203125 30.609375 6.203125 
Q 37.796875 6.203125 41.984375 11.859375 
Q 46.1875 17.53125 46.1875 27.296875 
Q 46.1875 37.015625 41.984375 42.703125 
Q 37.796875 48.390625 30.609375 48.390625 
z
M 30.609375 56 
Q 42.328125 56 49.015625 48.375 
Q 55.71875 40.765625 55.71875 27.296875 
Q 55.71875 13.875 49.015625 6.21875 
Q 42.328125 -1.421875 30.609375 -1.421875 
Q 18.84375 -1.421875 12.171875 6.21875 
Q 5.515625 13.875 5.515625 27.296875 
Q 5.515625 40.765625 12.171875 48.375 
Q 18.84375 56 30.609375 56 
z
" id="DejaVuSans-111"/>
      <path d="M 8.5 21.578125 
L 8.5 54.6875 
L 17.484375 54.6875 
L 17.484375 21.921875 
Q 17.484375 14.15625 20.5 10.265625 
Q 23.53125 6.390625 29.59375 6.390625 
Q 36.859375 6.390625 41.078125 11.03125 
Q 45.3125 15.671875 45.3125 23.6875 
L 45.3125 54.6875 
L 54.296875 54.6875 
L 54.296875 0 
L 45.3125 0 
L 45.3125 8.40625 
Q 42.046875 3.421875 37.71875 1 
Q 33.40625 -1.421875 27.6875 -1.421875 
Q 18.265625 -1.421875 13.375 4.4375 
Q 8.5 10.296875 8.5 21.578125 
z
M 31.109375 56 
z
" id="DejaVuSans-117"/>
      <path d="M 45.40625 27.984375 
Q 45.40625 37.75 41.375 43.109375 
Q 37.359375 48.484375 30.078125 48.484375 
Q 22.859375 48.484375 18.828125 43.109375 
Q 14.796875 37.75 14.796875 27.984375 
Q 14.796875 18.265625 18.828125 12.890625 
Q 22.859375 7.515625 30.078125 7.515625 
Q 37.359375 7.515625 41.375 12.890625 
Q 45.40625 18.265625 45.40625 27.984375 
z
M 54.390625 6.78125 
Q 54.390625 -7.171875 48.1875 -13.984375 
Q 42 -20.796875 29.203125 -20.796875 
Q 24.46875 -20.796875 20.265625 -20.09375 
Q 16.0625 -19.390625 12.109375 -17.921875 
L 12.109375 -9.1875 
Q 16.0625 -11.328125 19.921875 -12.34375 
Q 23.78125 -13.375 27.78125 -13.375 
Q 36.625 -13.375 41.015625 -8.765625 
Q 45.40625 -4.15625 45.40625 5.171875 
L 45.40625 9.625 
Q 42.625 4.78125 38.28125 2.390625 
Q 33.9375 0 27.875 0 
Q 17.828125 0 11.671875 7.65625 
Q 5.515625 15.328125 5.515625 27.984375 
Q 5.515625 40.671875 11.671875 48.328125 
Q 17.828125 56 27.875 56 
Q 33.9375 56 38.28125 53.609375 
Q 42.625 51.21875 45.40625 46.390625 
L 45.40625 54.6875 
L 54.390625 54.6875 
z
" id="DejaVuSans-103"/>
      <path d="M 18.109375 8.203125 
L 18.109375 -20.796875 
L 9.078125 -20.796875 
L 9.078125 54.6875 
L 18.109375 54.6875 
L 18.109375 46.390625 
Q 20.953125 51.265625 25.265625 53.625 
Q 29.59375 56 35.59375 56 
Q 45.5625 56 51.78125 48.09375 
Q 58.015625 40.1875 58.015625 27.296875 
Q 58.015625 14.40625 51.78125 6.484375 
Q 45.5625 -1.421875 35.59375 -1.421875 
Q 29.59375 -1.421875 25.265625 0.953125 
Q 20.953125 3.328125 18.109375 8.203125 
z
M 48.6875 27.296875 
Q 48.6875 37.203125 44.609375 42.84375 
Q 40.53125 48.484375 33.40625 48.484375 
Q 26.265625 48.484375 22.1875 42.84375 
Q 18.109375 37.203125 18.109375 27.296875 
Q 18.109375 17.390625 22.1875 11.75 
Q 26.265625 6.109375 33.40625 6.109375 
Q 40.53125 6.109375 44.609375 11.75 
Q 48.6875 17.390625 48.6875 27.296875 
z
" id="DejaVuSans-112"/>
     </defs>
     <g transform="translate(46.469844 221.675365)rotate(-90)scale(0.1 -0.1)">
      <use xlink:href="#DejaVuSans-116"/>
      <use x="39.208984" xlink:href="#DejaVuSans-104"/>
      <use x="102.587891" xlink:href="#DejaVuSans-114"/>
      <use x="143.669922" xlink:href="#DejaVuSans-111"/>
      <use x="204.851562" xlink:href="#DejaVuSans-117"/>
      <use x="268.230469" xlink:href="#DejaVuSans-103"/>
      <use x="331.707031" xlink:href="#DejaVuSans-104"/>
      <use x="395.085938" xlink:href="#DejaVuSans-112"/>
      <use x="458.5625" xlink:href="#DejaVuSans-117"/>
      <use x="521.941406" xlink:href="#DejaVuSans-116"/>
     </g>
     <!-- (mbit / second) -->
     <defs>
      <path d="M 31 75.875 
Q 24.46875 64.65625 21.28125 53.65625 
Q 18.109375 42.671875 18.109375 31.390625 
Q 18.109375 20.125 21.3125 9.0625 
Q 24.515625 -2 31 -13.1875 
L 23.1875 -13.1875 
Q 15.875 -1.703125 12.234375 9.375 
Q 8.59375 20.453125 8.59375 31.390625 
Q 8.59375 42.28125 12.203125 53.3125 
Q 15.828125 64.359375 23.1875 75.875 
z
" id="DejaVuSans-40"/>
      <path d="M 52 44.1875 
Q 55.375 50.25 60.0625 53.125 
Q 64.75 56 71.09375 56 
Q 79.640625 56 84.28125 50.015625 
Q 88.921875 44.046875 88.921875 33.015625 
L 88.921875 0 
L 79.890625 0 
L 79.890625 32.71875 
Q 79.890625 40.578125 77.09375 44.375 
Q 74.3125 48.1875 68.609375 48.1875 
Q 61.625 48.1875 57.5625 43.546875 
Q 53.515625 38.921875 53.515625 30.90625 
L 53.515625 0 
L 44.484375 0 
L 44.484375 32.71875 
Q 44.484375 40.625 41.703125 44.40625 
Q 38.921875 48.1875 33.109375 48.1875 
Q 26.21875 48.1875 22.15625 43.53125 
Q 18.109375 38.875 18.109375 30.90625 
L 18.109375 0 
L 9.078125 0 
L 9.078125 54.6875 
L 18.109375 54.6875 
L 18.109375 46.1875 
Q 21.1875 51.21875 25.484375 53.609375 
Q 29.78125 56 35.6875 56 
Q 41.65625 56 45.828125 52.96875 
Q 50 49.953125 52 44.1875 
z
" id="DejaVuSans-109"/>
      <path d="M 48.6875 27.296875 
Q 48.6875 37.203125 44.609375 42.84375 
Q 40.53125 48.484375 33.40625 48.484375 
Q 26.265625 48.484375 22.1875 42.84375 
Q 18.109375 37.203125 18.109375 27.296875 
Q 18.109375 17.390625 22.1875 11.75 
Q 26.265625 6.109375 33.40625 6.109375 
Q 40.53125 6.109375 44.609375 11.75 
Q 48.6875 17.390625 48.6875 27.296875 
z
M 18.109375 46.390625 
Q 20.953125 51.265625 25.265625 53.625 
Q 29.59375 56 35.59375 56 
Q 45.5625 56 51.78125 48.09375 
Q 58.015625 40.1875 58.015625 27.296875 
Q 58.015625 14.40625 51.78125 6.484375 
Q 45.5625 -1.421875 35.59375 -1.421875 
Q 29.59375 -1.421875 25.265625 0.953125 
Q 20.953125 3.328125 18.109375 8.203125 
L 18.109375 0 
L 9.078125 0 
L 9.078125 75.984375 
L 18.109375 75.984375 
z
" id="DejaVuSans-98"/>
      <path d="M 9.421875 54.6875 
L 18.40625 54.6875 
L 18.40625 0 
L 9.421875 0 
z
M 9.421875 75.984375 
L 18.40625 75.984375 
L 18.40625 64.59375 
L 9.421875 64.59375 
z
" id="DejaVuSans-105"/>
      <path id="DejaVuSans-32"/>
      <path d="M 25.390625 72.90625 
L 33.6875 72.90625 
L 8.296875 -9.28125 
L 0 -9.28125 
z
" id="DejaVuSans-47"/>
      <path d="M 44.28125 53.078125 
L 44.28125 44.578125 
Q 40.484375 46.53125 36.375 47.5 
Q 32.28125 48.484375 27.875 48.484375 
Q 21.1875 48.484375 17.84375 46.4375 
Q 14.5 44.390625 14.5 40.28125 
Q 14.5 37.15625 16.890625 35.375 
Q 19.28125 33.59375 26.515625 31.984375 
L 29.59375 31.296875 
Q 39.15625 29.25 43.1875 25.515625 
Q 47.21875 21.78125 47.21875 15.09375 
Q 47.21875 7.46875 41.1875 3.015625 
Q 35.15625 -1.421875 24.609375 -1.421875 
Q 20.21875 -1.421875 15.453125 -0.5625 
Q 10.6875 0.296875 5.421875 2 
L 5.421875 11.28125 
Q 10.40625 8.6875 15.234375 7.390625 
Q 20.0625 6.109375 24.8125 6.109375 
Q 31.15625 6.109375 34.5625 8.28125 
Q 37.984375 10.453125 37.984375 14.40625 
Q 37.984375 18.0625 35.515625 20.015625 
Q 33.0625 21.96875 24.703125 23.78125 
L 21.578125 24.515625 
Q 13.234375 26.265625 9.515625 29.90625 
Q 5.8125 33.546875 5.8125 39.890625 
Q 5.8125 47.609375 11.28125 51.796875 
Q 16.75 56 26.8125 56 
Q 31.78125 56 36.171875 55.265625 
Q 40.578125 54.546875 44.28125 53.078125 
z
" id="DejaVuSans-115"/>
      <path d="M 56.203125 29.59375 
L 56.203125 25.203125 
L 14.890625 25.203125 
Q 15.484375 15.921875 20.484375 11.0625 
Q 25.484375 6.203125 34.421875 6.203125 
Q 39.59375 6.203125 44.453125 7.46875 
Q 49.3125 8.734375 54.109375 11.28125 
L 54.109375 2.78125 
Q 49.265625 0.734375 44.1875 -0.34375 
Q 39.109375 -1.421875 33.890625 -1.421875 
Q 20.796875 -1.421875 13.15625 6.1875 
Q 5.515625 13.8125 5.515625 26.8125 
Q 5.515625 40.234375 12.765625 48.109375 
Q 20.015625 56 32.328125 56 
Q 43.359375 56 49.78125 48.890625 
Q 56.203125 41.796875 56.203125 29.59375 
z
M 47.21875 32.234375 
Q 47.125 39.59375 43.09375 43.984375 
Q 39.0625 48.390625 32.421875 48.390625 
Q 24.90625 48.390625 20.390625 44.140625 
Q 15.875 39.890625 15.1875 32.171875 
z
" id="DejaVuSans-101"/>
      <path d="M 48.78125 52.59375 
L 48.78125 44.1875 
Q 44.96875 46.296875 41.140625 47.34375 
Q 37.3125 48.390625 33.40625 48.390625 
Q 24.65625 48.390625 19.8125 42.84375 
Q 14.984375 37.3125 14.984375 27.296875 
Q 14.984375 17.28125 19.8125 11.734375 
Q 24.65625 6.203125 33.40625 6.203125 
Q 37.3125 6.203125 41.140625 7.25 
Q 44.96875 8.296875 48.78125 10.40625 
L 48.78125 2.09375 
Q 45.015625 0.34375 40.984375 -0.53125 
Q 36.96875 -1.421875 32.421875 -1.421875 
Q 20.0625 -1.421875 12.78125 6.34375 
Q 5.515625 14.109375 5.515625 27.296875 
Q 5.515625 40.671875 12.859375 48.328125 
Q 20.21875 56 33.015625 56 
Q 37.15625 56 41.109375 55.140625 
Q 45.0625 54.296875 48.78125 52.59375 
z
" id="DejaVuSans-99"/>
      <path d="M 54.890625 33.015625 
L 54.890625 0 
L 45.90625 0 
L 45.90625 32.71875 
Q 45.90625 40.484375 42.875 44.328125 
Q 39.84375 48.1875 33.796875 48.1875 
Q 26.515625 48.1875 22.3125 43.546875 
Q 18.109375 38.921875 18.109375 30.90625 
L 18.109375 0 
L 9.078125 0 
L 9.078125 54.6875 
L 18.109375 54.6875 
L 18.109375 46.1875 
Q 21.34375 51.125 25.703125 53.5625 
Q 30.078125 56 35.796875 56 
Q 45.21875 56 50.046875 50.171875 
Q 54.890625 44.34375 54.890625 33.015625 
z
" id="DejaVuSans-110"/>
      <path d="M 45.40625 46.390625 
L 45.40625 75.984375 
L 54.390625 75.984375 
L 54.390625 0 
L 45.40625 0 
L 45.40625 8.203125 
Q 42.578125 3.328125 38.25 0.953125 
Q 33.9375 -1.421875 27.875 -1.421875 
Q 17.96875 -1.421875 11.734375 6.484375 
Q 5.515625 14.40625 5.515625 27.296875 
Q 5.515625 40.1875 11.734375 48.09375 
Q 17.96875 56 27.875 56 
Q 33.9375 56 38.25 53.625 
Q 42.578125 51.265625 45.40625 46.390625 
z
M 14.796875 27.296875 
Q 14.796875 17.390625 18.875 11.75 
Q 22.953125 6.109375 30.078125 6.109375 
Q 37.203125 6.109375 41.296875 11.75 
Q 45.40625 17.390625 45.40625 27.296875 
Q 45.40625 37.203125 41.296875 42.84375 
Q 37.203125 48.484375 30.078125 48.484375 
Q 22.953125 48.484375 18.875 42.84375 
Q 14.796875 37.203125 14.796875 27.296875 
z
" id="DejaVuSans-100"/>
      <path d="M 8.015625 75.875 
L 15.828125 75.875 
Q 23.140625 64.359375 26.78125 53.3125 
Q 30.421875 42.28125 30.421875 31.390625 
Q 30.421875 20.453125 26.78125 9.375 
Q 23.140625 -1.703125 15.828125 -13.1875 
L 8.015625 -13.1875 
Q 14.5 -2 17.703125 9.0625 
Q 20.90625 20.125 20.90625 31.390625 
Q 20.90625 42.671875 17.703125 53.65625 
Q 14.5 64.65625 8.015625 75.875 
z
" id="DejaVuSans-41"/>
     </defs>
     <g transform="translate(57.667656 231.608958)rotate(-90)scale(0.1 -0.1)">
      <use xlink:href="#DejaVuSans-40"/>
      <use x="39.013672" xlink:href="#DejaVuSans-109"/>
      <use x="136.425781" xlink:href="#DejaVuSans-98"/>
      <use x="199.902344" xlink:href="#DejaVuSans-105"/>
      <use x="227.685547" xlink:href="#DejaVuSans-116"/>
      <use x="266.894531" xlink:href="#DejaVuSans-32"/>
      <use x="298.681641" xlink:href="#DejaVuSans-47"/>
      <use x="332.373047" xlink:href="#DejaVuSans-32"/>
      <use x="364.160156" xlink:href="#DejaVuSans-115"/>
      <use x="416.259766" xlink:href="#DejaVuSans-101"/>
      <use x="477.783203" xlink:href="#DejaVuSans-99"/>
      <use x="532.763672" xlink:href="#DejaVuSans-111"/>
      <use x="593.945312" xlink:href="#DejaVuSans-110"/>
      <use x="657.324219" xlink:href="#DejaVuSans-100"/>
      <use x="720.800781" xlink:href="#DejaVuSans-41"/>
     </g>
    </g>
   </g>
   <g id="line2d_16">
    <path clip-path="url(#p0cfd380720)" d="M 107.393466 229.840552 
L 108.152156 187.788372 
L 109.669536 138.090341 
L 110.428226 203.080074 
L 111.186916 229.840552 
L 111.945607 229.840552 
L 112.704297 226.017627 
L 114.221677 298.65321 
L 115.739057 329.236614 
L 116.497748 336.882465 
L 117.256438 340.70539 
L 119.532508 340.70539 
L 120.291198 344.528316 
L 121.049889 344.528316 
L 122.567269 352.174167 
L 130.154171 352.174167 
L 130.912861 344.528316 
L 131.671551 321.590763 
L 132.430241 268.069807 
L 133.188931 245.132254 
L 133.947622 226.017627 
L 134.706312 210.725925 
L 135.465002 199.257148 
L 136.223692 191.611297 
L 136.982382 191.611297 
L 137.741072 180.142521 
L 139.258453 187.788372 
L 140.017143 183.965447 
L 140.775833 199.257148 
L 141.534523 206.902999 
L 142.293213 210.725925 
L 143.051904 183.965447 
L 143.810594 183.965447 
L 144.569284 218.371776 
L 145.327974 233.663477 
L 146.086664 256.60103 
L 146.845355 271.892732 
L 149.121425 306.299061 
L 150.638805 321.590763 
L 152.156186 329.236614 
L 153.673566 329.236614 
L 154.432256 333.059539 
L 155.190946 333.059539 
L 155.949637 336.882465 
L 156.708327 333.059539 
L 158.225707 333.059539 
L 159.743087 287.184434 
L 160.501778 287.184434 
L 162.019158 279.538583 
L 162.777848 279.538583 
L 163.536538 275.715658 
L 173.399511 275.715658 
L 174.158201 302.476136 
L 174.916891 256.60103 
L 175.675581 268.069807 
L 176.434271 271.892732 
L 177.951652 271.892732 
L 178.710342 275.715658 
L 183.262483 275.715658 
L 184.021173 279.538583 
L 185.538553 279.538583 
L 186.297244 275.715658 
L 187.814624 275.715658 
L 189.332004 283.361508 
L 190.090694 294.830285 
L 190.849385 287.184434 
L 192.366765 279.538583 
L 193.884145 279.538583 
L 194.642835 283.361508 
L 197.677596 283.361508 
L 198.436286 279.538583 
L 199.194976 283.361508 
L 200.712357 283.361508 
L 201.471047 279.538583 
L 202.988427 279.538583 
L 203.747117 283.361508 
L 204.505808 283.361508 
L 205.264498 298.65321 
L 206.023188 245.132254 
L 206.781878 264.246881 
L 208.299259 271.892732 
L 211.334019 271.892732 
L 212.092709 275.715658 
L 215.12747 275.715658 
L 215.88616 271.892732 
L 216.64485 275.715658 
L 218.162231 275.715658 
L 218.920921 271.892732 
L 219.679611 275.715658 
L 220.438301 283.361508 
L 221.196991 287.184434 
L 221.955682 283.361508 
L 222.714372 283.361508 
L 223.473062 279.538583 
L 224.231752 279.538583 
L 224.990442 275.715658 
L 229.542583 275.715658 
L 230.301274 279.538583 
L 231.818654 279.538583 
L 232.577344 275.715658 
L 233.336034 279.538583 
L 234.094724 275.715658 
L 235.612105 275.715658 
L 236.370795 302.476136 
L 237.129485 283.361508 
L 237.888175 291.007359 
L 239.405556 283.361508 
L 241.681626 283.361508 
L 242.440316 279.538583 
L 245.475077 279.538583 
L 246.233767 275.715658 
L 246.992457 279.538583 
L 248.509838 279.538583 
L 249.268528 275.715658 
L 250.785908 275.715658 
L 251.544598 287.184434 
L 252.303289 302.476136 
L 253.061979 302.476136 
L 253.820669 294.830285 
L 255.338049 287.184434 
L 256.85543 287.184434 
L 257.61412 283.361508 
L 259.89019 283.361508 
L 260.64888 279.538583 
L 261.407571 283.361508 
L 262.166261 283.361508 
L 262.924951 279.538583 
L 266.718402 279.538583 
L 267.477092 306.299061 
L 268.235782 291.007359 
L 268.994472 294.830285 
L 269.753162 291.007359 
L 270.511853 291.007359 
L 271.270543 287.184434 
L 273.546613 287.184434 
L 274.305304 283.361508 
L 275.822684 283.361508 
L 276.581374 279.538583 
L 281.892205 279.538583 
L 282.650895 291.007359 
L 284.168276 283.361508 
L 286.444346 283.361508 
L 287.203036 279.538583 
L 290.996487 279.538583 
L 291.755177 275.715658 
L 292.513868 279.538583 
L 297.824699 279.538583 
L 298.583389 310.121987 
L 299.342079 298.65321 
L 300.100769 313.944912 
L 300.85946 321.590763 
L 303.13553 333.059539 
L 312.998502 333.059539 
L 313.757193 336.882465 
L 314.515883 298.65321 
L 315.274573 248.955179 
L 316.033263 252.778105 
L 319.068024 283.361508 
L 319.826714 287.184434 
L 321.344094 287.184434 
L 322.102784 291.007359 
L 326.654925 291.007359 
L 327.413616 294.830285 
L 328.930996 294.830285 
L 329.689686 302.476136 
L 330.448376 306.299061 
L 331.207066 291.007359 
L 333.483137 279.538583 
L 334.241827 279.538583 
L 335.000517 275.715658 
L 335.759208 279.538583 
L 336.517898 275.715658 
L 341.070039 275.715658 
L 341.828729 271.892732 
L 342.587419 271.892732 
L 343.346109 275.715658 
L 344.86349 275.715658 
L 345.62218 302.476136 
L 346.38087 271.892732 
L 347.13956 271.892732 
L 347.89825 275.715658 
L 349.415631 275.715658 
L 350.174321 279.538583 
L 350.933011 279.538583 
L 351.691701 275.715658 
L 352.450391 275.715658 
L 353.209081 279.538583 
L 353.967772 279.538583 
L 354.726462 275.715658 
L 355.485152 279.538583 
L 360.037293 279.538583 
L 360.795983 287.184434 
L 361.554673 287.184434 
L 362.313364 275.715658 
L 363.072054 275.715658 
L 363.830744 271.892732 
L 364.589434 275.715658 
L 365.348124 275.715658 
L 366.106814 279.538583 
L 373.693716 279.538583 
L 374.452406 275.715658 
L 375.969787 275.715658 
L 376.728477 302.476136 
L 377.487167 271.892732 
L 381.280618 271.892732 
L 382.039308 275.715658 
L 382.797998 271.892732 
L 391.14359 271.892732 
L 391.90228 287.184434 
L 392.66097 283.361508 
L 393.419661 271.892732 
L 394.178351 271.892732 
L 394.937041 275.715658 
L 397.971802 275.715658 
L 398.730492 279.538583 
L 399.489182 279.538583 
L 400.247872 275.715658 
L 407.076084 275.715658 
L 407.834774 294.830285 
L 408.593464 260.423956 
L 409.352154 264.246881 
L 410.110844 264.246881 
L 410.869535 268.069807 
L 413.145605 268.069807 
L 414.662985 275.715658 
L 421.491197 275.715658 
L 422.249887 279.538583 
L 423.008577 294.830285 
L 424.525958 279.538583 
L 425.284648 279.538583 
L 426.043338 283.361508 
L 431.354169 283.361508 
L 432.112859 279.538583 
L 432.87155 283.361508 
L 435.90631 283.361508 
L 436.665 279.538583 
L 438.182381 279.538583 
L 438.941071 298.65321 
L 439.699761 268.069807 
L 440.458451 271.892732 
L 441.975832 271.892732 
L 442.734522 275.715658 
L 450.321424 275.715658 
L 451.080114 279.538583 
L 453.356184 279.538583 
L 454.114874 294.830285 
L 454.873565 279.538583 
L 455.632255 271.892732 
L 456.390945 275.715658 
L 460.943086 275.715658 
L 461.701776 279.538583 
L 462.460466 279.538583 
L 463.219157 275.715658 
L 463.977847 279.538583 
L 464.736537 275.715658 
L 467.012607 275.715658 
L 467.771298 279.538583 
L 469.288678 279.538583 
L 470.047368 306.299061 
L 470.806058 279.538583 
L 476.116889 279.538583 
L 476.87558 275.715658 
L 477.63427 279.538583 
L 478.39296 275.715658 
L 480.66903 275.715658 
L 481.427721 279.538583 
L 482.186411 275.715658 
L 482.945101 275.715658 
L 483.703791 279.538583 
L 484.462481 279.538583 
L 485.221172 298.65321 
L 485.979862 287.184434 
L 486.738552 283.361508 
L 492.049383 283.361508 
L 492.808073 279.538583 
L 493.566763 279.538583 
L 494.325454 283.361508 
L 500.394975 283.361508 
L 501.153665 306.299061 
L 501.912355 287.184434 
L 504.188426 287.184434 
L 504.947116 283.361508 
L 507.223187 283.361508 
L 507.981877 279.538583 
L 511.016637 279.538583 
L 511.775328 275.715658 
L 512.534018 279.538583 
L 515.568778 279.538583 
L 516.327469 302.476136 
L 516.327469 302.476136 
" style="fill:none;stroke:#1f77b4;stroke-linecap:square;stroke-width:1.5;"/>
   </g>
   <g id="line2d_17">
    <path clip-path="url(#p0cfd380720)" d="M 113.444778 283.361508 
L 114.203469 237.486403 
L 115.720849 222.194701 
L 116.479539 218.371776 
L 117.238229 218.371776 
L 117.996919 214.54885 
L 118.75561 214.54885 
L 119.5143 210.725925 
L 120.27299 210.725925 
L 121.03168 214.54885 
L 121.79037 210.725925 
L 122.54906 199.257148 
L 123.307751 199.257148 
L 124.066441 203.080074 
L 124.825131 199.257148 
L 125.583821 84.569385 
L 126.342511 161.027894 
L 127.859892 218.371776 
L 128.618582 241.309328 
L 129.377272 260.423956 
L 130.135962 275.715658 
L 130.894652 287.184434 
L 131.653343 306.299061 
L 133.170723 329.236614 
L 133.929413 333.059539 
L 134.688103 333.059539 
L 135.446793 340.70539 
L 136.964174 340.70539 
L 137.722864 344.528316 
L 138.481554 340.70539 
L 139.240244 340.70539 
L 139.998934 348.351241 
L 140.757625 348.351241 
L 142.275005 340.70539 
L 143.033695 329.236614 
L 143.792385 283.361508 
L 144.551075 264.246881 
L 146.068456 218.371776 
L 146.827146 210.725925 
L 147.585836 210.725925 
L 148.344526 218.371776 
L 149.103216 229.840552 
L 149.861907 252.778105 
L 150.620597 268.069807 
L 151.379287 287.184434 
L 152.137977 298.65321 
L 154.414048 321.590763 
L 156.690118 321.590763 
L 157.448808 325.413688 
L 158.207499 321.590763 
L 159.724879 248.955179 
L 162.000949 260.423956 
L 162.75964 260.423956 
L 163.51833 264.246881 
L 164.27702 264.246881 
L 165.03571 268.069807 
L 165.7944 268.069807 
L 166.55309 271.892732 
L 168.070471 271.892732 
L 168.829161 275.715658 
L 170.346541 275.715658 
L 171.105231 271.892732 
L 171.863922 271.892732 
L 172.622612 275.715658 
L 173.381302 271.892732 
L 174.139992 302.476136 
L 174.898682 264.246881 
L 175.657373 275.715658 
L 176.416063 279.538583 
L 179.450823 279.538583 
L 180.209514 283.361508 
L 180.968204 279.538583 
L 181.726894 283.361508 
L 183.244274 283.361508 
L 184.002964 279.538583 
L 188.555105 279.538583 
L 189.313796 283.361508 
L 190.072486 291.007359 
L 190.831176 283.361508 
L 200.694148 283.361508 
L 201.452838 279.538583 
L 202.211529 283.361508 
L 203.728909 283.361508 
L 204.487599 279.538583 
L 205.246289 302.476136 
L 206.004979 275.715658 
L 206.76367 283.361508 
L 207.52236 279.538583 
L 219.661403 279.538583 
L 221.178783 294.830285 
L 221.937473 287.184434 
L 223.454853 287.184434 
L 224.213544 283.361508 
L 227.248304 283.361508 
L 228.006994 279.538583 
L 229.524375 279.538583 
L 230.283065 275.715658 
L 235.593896 275.715658 
L 236.352586 302.476136 
L 237.111277 283.361508 
L 237.869967 291.007359 
L 238.628657 287.184434 
L 239.387347 287.184434 
L 240.146037 283.361508 
L 242.422108 283.361508 
L 243.180798 279.538583 
L 243.939488 283.361508 
L 244.698178 283.361508 
L 245.456868 279.538583 
L 248.491629 279.538583 
L 249.250319 275.715658 
L 250.009009 275.715658 
L 250.7677 279.538583 
L 251.52639 287.184434 
L 252.28508 287.184434 
L 253.04377 283.361508 
L 253.80246 283.361508 
L 254.56115 279.538583 
L 255.319841 279.538583 
L 256.078531 275.715658 
L 265.182813 275.715658 
L 265.941503 279.538583 
L 266.700193 279.538583 
L 267.458883 306.299061 
L 268.217574 279.538583 
L 268.976264 291.007359 
L 270.493644 283.361508 
L 271.252334 283.361508 
L 272.011024 279.538583 
L 277.321856 279.538583 
L 278.080546 283.361508 
L 278.839236 279.538583 
L 281.873997 279.538583 
L 282.632687 291.007359 
L 284.908757 279.538583 
L 285.667448 279.538583 
L 286.426138 275.715658 
L 297.80649 275.715658 
L 298.56518 310.121987 
L 299.323871 302.476136 
L 300.082561 313.944912 
L 300.841251 321.590763 
L 302.358631 329.236614 
L 303.117322 329.236614 
L 303.876012 333.059539 
L 312.980294 333.059539 
L 313.738984 336.882465 
L 314.497674 325.413688 
L 315.256364 302.476136 
L 316.773745 287.184434 
L 317.532435 275.715658 
L 318.291125 268.069807 
L 319.049815 264.246881 
L 319.808505 256.60103 
L 320.567195 252.778105 
L 326.636717 252.778105 
L 327.395407 248.955179 
L 328.912787 248.955179 
L 329.671478 256.60103 
L 330.430168 279.538583 
L 331.188858 264.246881 
L 331.947548 271.892732 
L 332.706238 271.892732 
L 334.223619 279.538583 
L 334.982309 279.538583 
L 335.740999 275.715658 
L 336.499689 275.715658 
L 337.258379 279.538583 
L 341.05183 279.538583 
L 341.81052 283.361508 
L 343.327901 283.361508 
L 344.086591 279.538583 
L 344.845281 279.538583 
L 345.603971 302.476136 
L 346.362661 275.715658 
L 347.121352 275.715658 
L 347.880042 279.538583 
L 360.019084 279.538583 
L 361.536465 294.830285 
L 362.295155 279.538583 
L 363.053845 275.715658 
L 363.812535 279.538583 
L 372.158127 279.538583 
L 372.916817 275.715658 
L 373.675508 279.538583 
L 374.434198 279.538583 
L 375.192888 275.715658 
L 375.951578 275.715658 
L 376.710268 302.476136 
L 377.468958 275.715658 
L 378.227649 275.715658 
L 378.986339 279.538583 
L 380.503719 279.538583 
L 381.262409 275.715658 
L 382.021099 279.538583 
L 391.125382 279.538583 
L 391.884072 291.007359 
L 392.642762 283.361508 
L 393.401452 271.892732 
L 394.160142 271.892732 
L 395.677523 279.538583 
L 401.747044 279.538583 
L 402.505734 275.715658 
L 407.057875 275.715658 
L 407.816565 302.476136 
L 408.575256 279.538583 
L 409.333946 283.361508 
L 410.092636 279.538583 
L 420.714298 279.538583 
L 421.472988 275.715658 
L 422.231679 279.538583 
L 422.990369 294.830285 
L 423.749059 291.007359 
L 424.507749 279.538583 
L 431.335961 279.538583 
L 432.094651 283.361508 
L 434.370721 283.361508 
L 435.129412 279.538583 
L 438.164172 279.538583 
L 438.922862 306.299061 
L 439.681553 283.361508 
L 440.440243 279.538583 
L 441.198933 283.361508 
L 441.957623 279.538583 
L 453.337976 279.538583 
L 454.096666 294.830285 
L 454.855356 283.361508 
L 455.614046 279.538583 
L 460.166187 279.538583 
L 460.924877 275.715658 
L 461.683568 275.715658 
L 462.442258 279.538583 
L 469.270469 279.538583 
L 470.02916 302.476136 
L 470.78785 283.361508 
L 474.581301 283.361508 
L 475.339991 279.538583 
L 476.098681 279.538583 
L 476.857371 283.361508 
L 477.616061 279.538583 
L 478.374751 283.361508 
L 479.133442 279.538583 
L 479.892132 279.538583 
L 480.650822 283.361508 
L 481.409512 279.538583 
L 482.926892 279.538583 
L 483.685583 283.361508 
L 484.444273 283.361508 
L 485.202963 302.476136 
L 485.961653 287.184434 
L 487.479033 279.538583 
L 493.548555 279.538583 
L 494.307245 283.361508 
L 497.342006 283.361508 
L 498.100696 279.538583 
L 500.376766 279.538583 
L 501.135457 298.65321 
L 501.894147 268.069807 
L 502.652837 268.069807 
L 503.411527 271.892732 
L 510.239739 271.892732 
L 510.998429 275.715658 
L 512.515809 275.715658 
L 513.274499 271.892732 
L 514.03319 271.892732 
L 514.79188 275.715658 
L 515.55057 275.715658 
L 516.30926 298.65321 
L 517.06795 279.538583 
L 517.82664 275.715658 
L 518.585331 279.538583 
L 519.344021 279.538583 
L 520.102711 275.715658 
L 520.861401 279.538583 
L 521.620091 275.715658 
L 522.378781 279.538583 
L 523.137472 279.538583 
L 523.137472 279.538583 
" style="fill:none;stroke:#ff7f0e;stroke-linecap:square;stroke-width:1.5;"/>
   </g>
   <g id="line2d_18">
    <path clip-path="url(#p0cfd380720)" d="M 110.41457 252.778105 
L 111.17326 210.725925 
L 111.93195 210.725925 
L 112.69064 214.54885 
L 113.449331 233.663477 
L 114.208021 237.486403 
L 114.966711 218.371776 
L 115.725401 210.725925 
L 116.484091 210.725925 
L 117.242781 203.080074 
L 118.001472 210.725925 
L 118.760162 206.902999 
L 120.277542 206.902999 
L 121.036232 203.080074 
L 121.794922 206.902999 
L 122.553613 214.54885 
L 123.312303 210.725925 
L 124.829683 210.725925 
L 125.588373 333.059539 
L 126.347063 248.955179 
L 128.623134 168.673745 
L 129.381824 149.559117 
L 130.140514 138.090341 
L 130.899204 141.913267 
L 131.657895 180.142521 
L 132.416585 229.840552 
L 134.692655 298.65321 
L 135.451346 310.121987 
L 136.968726 325.413688 
L 139.244796 336.882465 
L 140.003487 344.528316 
L 140.762177 344.528316 
L 141.520867 352.174167 
L 142.279557 344.528316 
L 143.038247 348.351241 
L 143.796937 340.70539 
L 145.314318 340.70539 
L 146.073008 333.059539 
L 146.831698 321.590763 
L 147.590388 306.299061 
L 148.349078 283.361508 
L 149.107769 256.60103 
L 149.866459 222.194701 
L 151.383839 168.673745 
L 152.142529 153.382043 
L 152.901219 141.913267 
L 154.4186 126.621565 
L 155.17729 122.798639 
L 155.93598 122.798639 
L 156.69467 118.975714 
L 157.453361 118.975714 
L 158.212051 130.44449 
L 158.970741 340.70539 
L 159.729431 264.246881 
L 161.246811 271.892732 
L 162.764192 287.184434 
L 164.281572 287.184434 
L 165.040262 291.007359 
L 173.385854 291.007359 
L 174.144544 256.60103 
L 174.903234 310.121987 
L 175.661925 283.361508 
L 177.179305 283.361508 
L 177.937995 279.538583 
L 180.972756 279.538583 
L 181.731446 275.715658 
L 182.490136 279.538583 
L 183.248826 279.538583 
L 184.007517 275.715658 
L 186.283587 275.715658 
L 187.042277 279.538583 
L 188.559658 279.538583 
L 189.318348 275.715658 
L 190.077038 268.069807 
L 192.353108 268.069807 
L 193.111799 271.892732 
L 193.870489 268.069807 
L 194.629179 271.892732 
L 195.387869 271.892732 
L 196.146559 275.715658 
L 202.216081 275.715658 
L 202.974771 279.538583 
L 204.492151 279.538583 
L 205.250841 271.892732 
L 206.009532 317.767838 
L 206.768222 291.007359 
L 207.526912 287.184434 
L 209.044292 287.184434 
L 209.802982 283.361508 
L 210.561673 283.361508 
L 211.320363 279.538583 
L 212.079053 283.361508 
L 219.665955 283.361508 
L 220.424645 279.538583 
L 221.183335 260.423956 
L 221.942025 260.423956 
L 224.976786 275.715658 
L 225.735476 275.715658 
L 226.494166 279.538583 
L 230.287617 279.538583 
L 231.046307 283.361508 
L 233.322378 283.361508 
L 234.081068 279.538583 
L 234.839758 279.538583 
L 235.598448 283.361508 
L 236.357138 229.840552 
L 237.115829 291.007359 
L 237.874519 260.423956 
L 240.150589 271.892732 
L 240.90928 271.892732 
L 241.66797 275.715658 
L 242.42666 275.715658 
L 243.18535 279.538583 
L 247.737491 279.538583 
L 248.496181 275.715658 
L 249.254871 279.538583 
L 250.772252 279.538583 
L 251.530942 271.892732 
L 252.289632 256.60103 
L 256.841773 279.538583 
L 260.635224 279.538583 
L 261.393914 275.715658 
L 262.152604 279.538583 
L 265.187365 279.538583 
L 265.946055 275.715658 
L 266.704745 275.715658 
L 267.463436 214.54885 
L 268.222126 287.184434 
L 268.980816 256.60103 
L 272.015577 271.892732 
L 274.291647 271.892732 
L 275.050337 275.715658 
L 277.326408 275.715658 
L 278.085098 279.538583 
L 280.361168 279.538583 
L 281.119859 275.715658 
L 281.878549 279.538583 
L 282.637239 264.246881 
L 283.395929 241.309328 
L 284.91331 264.246881 
L 287.94807 279.538583 
L 288.70676 279.538583 
L 289.465451 283.361508 
L 291.741521 283.361508 
L 292.500211 279.538583 
L 293.258901 283.361508 
L 294.017592 279.538583 
L 294.776282 283.361508 
L 296.293662 283.361508 
L 297.052352 279.538583 
L 297.811042 279.538583 
L 298.569733 237.486403 
L 299.328423 268.069807 
L 300.087113 206.902999 
L 300.845803 172.49667 
L 301.604493 145.736192 
L 302.363183 126.621565 
L 303.880564 118.975714 
L 304.639254 118.975714 
L 306.156634 111.329863 
L 306.915325 111.329863 
L 307.674015 115.152788 
L 312.984846 115.152788 
L 313.743536 107.506937 
L 314.502226 210.725925 
L 315.260916 264.246881 
L 316.778297 287.184434 
L 318.295677 302.476136 
L 319.054367 306.299061 
L 320.571748 306.299061 
L 321.330438 310.121987 
L 329.67603 310.121987 
L 330.43472 321.590763 
L 331.19341 302.476136 
L 331.9521 294.830285 
L 333.469481 287.184434 
L 334.228171 287.184434 
L 334.986861 283.361508 
L 338.780312 283.361508 
L 339.539002 279.538583 
L 344.091143 279.538583 
L 344.849833 275.715658 
L 345.608523 306.299061 
L 346.367214 283.361508 
L 347.125904 283.361508 
L 347.884594 279.538583 
L 348.643284 279.538583 
L 349.401974 275.715658 
L 350.160664 279.538583 
L 353.195425 279.538583 
L 353.954115 275.715658 
L 354.712805 279.538583 
L 355.471496 275.715658 
L 356.230186 279.538583 
L 360.023637 279.538583 
L 360.782327 287.184434 
L 361.541017 291.007359 
L 362.299707 275.715658 
L 363.058397 279.538583 
L 364.575778 279.538583 
L 365.334468 275.715658 
L 374.43875 275.715658 
L 375.19744 279.538583 
L 375.95613 279.538583 
L 376.71482 306.299061 
L 377.473511 283.361508 
L 378.232201 279.538583 
L 378.990891 279.538583 
L 379.749581 283.361508 
L 381.266961 283.361508 
L 382.025652 279.538583 
L 382.784342 283.361508 
L 383.543032 279.538583 
L 384.301722 283.361508 
L 387.336483 283.361508 
L 388.095173 279.538583 
L 388.853863 283.361508 
L 390.371244 283.361508 
L 391.129934 279.538583 
L 391.888624 291.007359 
L 392.647314 298.65321 
L 393.406004 283.361508 
L 394.164694 279.538583 
L 396.440765 279.538583 
L 397.199455 283.361508 
L 407.062427 283.361508 
L 407.821117 306.299061 
L 408.579808 283.361508 
L 413.890639 283.361508 
L 414.649329 279.538583 
L 417.68409 279.538583 
L 418.44278 283.361508 
L 419.96016 283.361508 
L 420.71885 279.538583 
L 422.236231 279.538583 
L 422.994921 291.007359 
L 423.753611 294.830285 
L 424.512301 279.538583 
L 438.168724 279.538583 
L 438.927415 302.476136 
L 439.686105 275.715658 
L 440.444795 279.538583 
L 447.273006 279.538583 
L 448.031697 275.715658 
L 448.790387 279.538583 
L 450.307767 279.538583 
L 451.066457 275.715658 
L 453.342528 275.715658 
L 454.101218 291.007359 
L 454.859908 287.184434 
L 455.618598 275.715658 
L 457.135979 275.715658 
L 457.894669 279.538583 
L 469.275021 279.538583 
L 470.033712 302.476136 
L 470.792402 279.538583 
L 471.551092 275.715658 
L 472.309782 279.538583 
L 479.137994 279.538583 
L 479.896684 275.715658 
L 481.414064 275.715658 
L 482.172754 279.538583 
L 482.931445 275.715658 
L 483.690135 279.538583 
L 484.448825 279.538583 
L 485.207515 294.830285 
L 485.966205 291.007359 
L 486.724895 283.361508 
L 491.277036 283.361508 
L 492.035727 279.538583 
L 493.553107 279.538583 
L 494.311797 275.715658 
L 497.346558 275.715658 
L 498.105248 279.538583 
L 500.381319 279.538583 
L 501.140009 306.299061 
L 501.898699 279.538583 
L 505.69215 279.538583 
L 506.45084 283.361508 
L 511.761671 283.361508 
L 512.520361 279.538583 
L 513.279051 283.361508 
L 514.037742 279.538583 
L 514.796432 283.361508 
L 515.555122 279.538583 
L 516.313812 302.476136 
L 517.072502 291.007359 
L 517.831193 283.361508 
L 518.589883 283.361508 
L 519.348573 279.538583 
L 520.865953 279.538583 
L 520.865953 279.538583 
" style="fill:none;stroke:#2ca02c;stroke-linecap:square;stroke-width:1.5;"/>
   </g>
   <g id="line2d_19">
    <path clip-path="url(#p0cfd380720)" d="M 104.408778 69.277683 
L 105.167469 50.163056 
L 105.926159 50.163056 
L 106.684849 53.985981 
L 107.443539 187.788372 
L 108.202229 222.194701 
L 109.71961 268.069807 
L 110.4783 313.944912 
L 111.23699 321.590763 
L 111.99568 317.767838 
L 112.75437 317.767838 
L 113.51306 329.236614 
L 114.271751 344.528316 
L 115.030441 352.174167 
L 115.789131 352.174167 
L 116.547821 348.351241 
L 119.582582 348.351241 
L 120.341272 352.174167 
L 121.099962 348.351241 
L 121.858652 348.351241 
L 122.617343 352.174167 
L 129.445554 352.174167 
L 130.204244 348.351241 
L 130.962934 333.059539 
L 131.721625 306.299061 
L 133.239005 291.007359 
L 134.756385 268.069807 
L 135.515075 264.246881 
L 136.273766 264.246881 
L 137.032456 252.778105 
L 138.549836 252.778105 
L 139.308526 245.132254 
L 141.584597 210.725925 
L 142.343287 214.54885 
L 143.101977 268.069807 
L 143.860667 298.65321 
L 144.619358 291.007359 
L 146.136738 306.299061 
L 146.895428 310.121987 
L 147.654118 317.767838 
L 149.171499 325.413688 
L 149.930189 325.413688 
L 151.447569 333.059539 
L 152.206259 333.059539 
L 152.964949 336.882465 
L 153.72364 333.059539 
L 154.48233 336.882465 
L 157.51709 336.882465 
L 158.275781 333.059539 
L 159.793161 310.121987 
L 161.310541 294.830285 
L 163.586612 283.361508 
L 164.345302 283.361508 
L 165.862682 275.715658 
L 169.656133 275.715658 
L 170.414823 271.892732 
L 171.173514 275.715658 
L 173.449584 275.715658 
L 174.208274 287.184434 
L 174.966964 287.184434 
L 176.484345 279.538583 
L 181.036486 279.538583 
L 181.795176 275.715658 
L 182.553866 279.538583 
L 183.312556 275.715658 
L 188.623388 275.715658 
L 189.382078 271.892732 
L 190.140768 291.007359 
L 190.899458 275.715658 
L 191.658148 279.538583 
L 193.175529 279.538583 
L 193.934219 275.715658 
L 200.76243 275.715658 
L 201.521121 271.892732 
L 204.555881 271.892732 
L 205.314571 283.361508 
L 206.073262 271.892732 
L 207.590642 279.538583 
L 219.729685 279.538583 
L 220.488375 275.715658 
L 221.247065 298.65321 
L 222.005755 279.538583 
L 234.144798 279.538583 
L 234.903488 283.361508 
L 235.662178 283.361508 
L 236.420868 294.830285 
L 237.179559 264.246881 
L 237.938249 271.892732 
L 238.696939 275.715658 
L 244.76646 275.715658 
L 245.525151 279.538583 
L 249.318601 279.538583 
L 250.077292 283.361508 
L 250.835982 279.538583 
L 251.594672 279.538583 
L 252.353362 283.361508 
L 253.112052 268.069807 
L 253.870742 268.069807 
L 255.388123 275.715658 
L 256.146813 271.892732 
L 256.905503 275.715658 
L 259.940264 275.715658 
L 260.698954 279.538583 
L 266.768475 279.538583 
L 267.527166 298.65321 
L 268.285856 256.60103 
L 269.044546 271.892732 
L 270.561926 271.892732 
L 271.320616 275.715658 
L 272.837997 275.715658 
L 273.596687 271.892732 
L 274.355377 275.715658 
L 278.907518 275.715658 
L 279.666208 279.538583 
L 280.424898 275.715658 
L 281.183589 279.538583 
L 281.942279 279.538583 
L 282.700969 283.361508 
L 283.459659 298.65321 
L 284.218349 291.007359 
L 284.977039 291.007359 
L 285.73573 283.361508 
L 287.25311 283.361508 
L 288.0118 279.538583 
L 294.840012 279.538583 
L 295.598702 275.715658 
L 296.357392 279.538583 
L 297.874772 279.538583 
L 298.633463 283.361508 
L 299.392153 248.955179 
L 300.150843 279.538583 
L 300.909533 302.476136 
L 301.668223 317.767838 
L 302.426913 325.413688 
L 303.944294 333.059539 
L 313.807266 333.059539 
L 314.565956 325.413688 
L 315.324646 298.65321 
L 316.083337 287.184434 
L 318.359407 264.246881 
L 320.635478 264.246881 
L 321.394168 260.423956 
L 325.946309 260.423956 
L 326.704999 256.60103 
L 327.463689 260.423956 
L 328.222379 256.60103 
L 328.98107 260.423956 
L 329.73976 271.892732 
L 330.49845 268.069807 
L 331.25714 256.60103 
L 334.291901 271.892732 
L 335.050591 271.892732 
L 335.809281 275.715658 
L 338.085352 275.715658 
L 338.844042 279.538583 
L 344.913563 279.538583 
L 345.672253 306.299061 
L 346.430943 283.361508 
L 349.465704 283.361508 
L 350.224394 279.538583 
L 360.087367 279.538583 
L 360.846057 294.830285 
L 361.604747 294.830285 
L 362.363437 283.361508 
L 364.639508 283.361508 
L 365.398198 279.538583 
L 372.226409 279.538583 
L 372.9851 283.361508 
L 376.01986 283.361508 
L 376.77855 306.299061 
L 377.537241 283.361508 
L 381.330691 283.361508 
L 382.089382 279.538583 
L 382.848072 283.361508 
L 387.400213 283.361508 
L 388.158903 279.538583 
L 388.917593 283.361508 
L 389.676283 283.361508 
L 390.434973 279.538583 
L 391.193664 279.538583 
L 391.952354 294.830285 
L 392.711044 298.65321 
L 393.469734 287.184434 
L 394.228424 283.361508 
L 394.987115 283.361508 
L 395.745805 279.538583 
L 397.263185 279.538583 
L 398.021875 275.715658 
L 401.056636 275.715658 
L 401.815326 279.538583 
L 407.126157 279.538583 
L 407.884847 306.299061 
L 408.643538 291.007359 
L 409.402228 287.184434 
L 410.919608 287.184434 
L 411.678298 283.361508 
L 413.195679 283.361508 
L 413.954369 279.538583 
L 422.299961 279.538583 
L 423.058651 294.830285 
L 423.817341 279.538583 
L 424.576031 275.715658 
L 426.093412 275.715658 
L 426.852102 271.892732 
L 427.610792 275.715658 
L 428.369482 275.715658 
L 429.128172 271.892732 
L 429.886862 275.715658 
L 430.645553 271.892732 
L 435.197694 271.892732 
L 435.956384 275.715658 
L 438.232454 275.715658 
L 438.991145 306.299061 
L 439.749835 283.361508 
L 448.095427 283.361508 
L 448.854117 279.538583 
L 452.647568 279.538583 
L 453.406258 283.361508 
L 454.164948 302.476136 
L 454.923638 291.007359 
L 455.682328 283.361508 
L 458.717089 283.361508 
L 459.475779 279.538583 
L 469.338751 279.538583 
L 470.097442 302.476136 
L 470.856132 275.715658 
L 479.960414 275.715658 
L 480.719104 279.538583 
L 481.477794 275.715658 
L 482.236484 279.538583 
L 482.995175 279.538583 
L 483.753865 275.715658 
L 484.512555 275.715658 
L 485.271245 298.65321 
L 486.029935 264.246881 
L 487.547316 271.892732 
L 492.099457 271.892732 
L 492.858147 275.715658 
L 493.616837 271.892732 
L 494.375527 275.715658 
L 495.134217 275.715658 
L 495.892907 271.892732 
L 498.168978 271.892732 
L 498.927668 275.715658 
L 500.445049 275.715658 
L 501.203739 306.299061 
L 501.962429 279.538583 
L 514.101472 279.538583 
L 514.860162 275.715658 
L 514.860162 275.715658 
" style="fill:none;stroke:#d62728;stroke-linecap:square;stroke-width:1.5;"/>
   </g>
   <g id="patch_3">
    <path d="M 83.472344 352.174167 
L 83.472344 35.0625 
" style="fill:none;stroke:#000000;stroke-linecap:square;stroke-linejoin:miter;stroke-width:0.8;"/>
   </g>
   <g id="patch_4">
    <path d="M 544.073906 352.174167 
L 544.073906 35.0625 
" style="fill:none;stroke:#000000;stroke-linecap:square;stroke-linejoin:miter;stroke-width:0.8;"/>
   </g>
   <g id="patch_5">
    <path d="M 83.472344 352.174167 
L 544.073906 352.174167 
" style="fill:none;stroke:#000000;stroke-linecap:square;stroke-linejoin:miter;stroke-width:0.8;"/>
   </g>
   <g id="patch_6">
    <path d="M 83.472344 35.0625 
L 544.073906 35.0625 
" style="fill:none;stroke:#000000;stroke-linecap:square;stroke-linejoin:miter;stroke-width:0.8;"/>
   </g>
   <g id="legend_1">
    <g id="patch_7">
     <path d="M 569.103984 96.775 
L 630.636797 96.775 
Q 632.636797 96.775 632.636797 94.775 
L 632.636797 37.0625 
Q 632.636797 35.0625 630.636797 35.0625 
L 569.103984 35.0625 
Q 567.103984 35.0625 567.103984 37.0625 
L 567.103984 94.775 
Q 567.103984 96.775 569.103984 96.775 
z
" style="fill:#ffffff;opacity:0.8;stroke:#cccccc;stroke-linejoin:miter;"/>
    </g>
    <g id="line2d_20">
     <path d="M 571.103984 43.160937 
L 591.103984 43.160937 
" style="fill:none;stroke:#1f77b4;stroke-linecap:square;stroke-width:1.5;"/>
    </g>
    <g id="line2d_21"/>
    <g id="text_17">
     <!-- bbr-pi -->
     <defs>
      <path d="M 4.890625 31.390625 
L 31.203125 31.390625 
L 31.203125 23.390625 
L 4.890625 23.390625 
z
" id="DejaVuSans-45"/>
     </defs>
     <g transform="translate(599.103984 46.660937)scale(0.1 -0.1)">
      <use xlink:href="#DejaVuSans-98"/>
      <use x="63.476562" xlink:href="#DejaVuSans-98"/>
      <use x="126.953125" xlink:href="#DejaVuSans-114"/>
      <use x="167.972656" xlink:href="#DejaVuSans-45"/>
      <use x="204.056641" xlink:href="#DejaVuSans-112"/>
      <use x="267.533203" xlink:href="#DejaVuSans-105"/>
     </g>
    </g>
    <g id="line2d_22">
     <path d="M 571.103984 57.839063 
L 591.103984 57.839063 
" style="fill:none;stroke:#ff7f0e;stroke-linecap:square;stroke-width:1.5;"/>
    </g>
    <g id="line2d_23"/>
    <g id="text_18">
     <!-- bbr-pi -->
     <g transform="translate(599.103984 61.339063)scale(0.1 -0.1)">
      <use xlink:href="#DejaVuSans-98"/>
      <use x="63.476562" xlink:href="#DejaVuSans-98"/>
      <use x="126.953125" xlink:href="#DejaVuSans-114"/>
      <use x="167.972656" xlink:href="#DejaVuSans-45"/>
      <use x="204.056641" xlink:href="#DejaVuSans-112"/>
      <use x="267.533203" xlink:href="#DejaVuSans-105"/>
     </g>
    </g>
    <g id="line2d_24">
     <path d="M 571.103984 72.517187 
L 591.103984 72.517187 
" style="fill:none;stroke:#2ca02c;stroke-linecap:square;stroke-width:1.5;"/>
    </g>
    <g id="line2d_25"/>
    <g id="text_19">
     <!-- bbr-pi -->
     <g transform="translate(599.103984 76.017187)scale(0.1 -0.1)">
      <use xlink:href="#DejaVuSans-98"/>
      <use x="63.476562" xlink:href="#DejaVuSans-98"/>
      <use x="126.953125" xlink:href="#DejaVuSans-114"/>
      <use x="167.972656" xlink:href="#DejaVuSans-45"/>
      <use x="204.056641" xlink:href="#DejaVuSans-112"/>
      <use x="267.533203" xlink:href="#DejaVuSans-105"/>
     </g>
    </g>
    <g id="line2d_26">
     <path d="M 571.103984 87.195312 
L 591.103984 87.195312 
" style="fill:none;stroke:#d62728;stroke-linecap:square;stroke-width:1.5;"/>
    </g>
    <g id="line2d_27"/>
    <g id="text_20">
     <!-- bbr-pi -->
     <g transform="translate(599.103984 90.695312)scale(0.1 -0.1)">
      <use xlink:href="#DejaVuSans-98"/>
      <use x="63.476562" xlink:href="#DejaVuSans-98"/>
      <use x="126.953125" xlink:href="#DejaVuSans-114"/>
      <use x="167.972656" xlink:href="#DejaVuSans-45"/>
      <use x="204.056641" xlink:href="#DejaVuSans-112"/>
      <use x="267.533203" xlink:href="#DejaVuSans-105"/>
     </g>
    </g>
   </g>
  </g>
  <g id="text_21">
   <!-- result throughput -->
   <defs>
    <path d="M 9.421875 75.984375 
L 18.40625 75.984375 
L 18.40625 0 
L 9.421875 0 
z
" id="DejaVuSans-108"/>
   </defs>
   <g transform="translate(289.320938 17.038125)scale(0.12 -0.12)">
    <use xlink:href="#DejaVuSans-114"/>
    <use x="41.082031" xlink:href="#DejaVuSans-101"/>
    <use x="102.605469" xlink:href="#DejaVuSans-115"/>
    <use x="154.705078" xlink:href="#DejaVuSans-117"/>
    <use x="218.083984" xlink:href="#DejaVuSans-108"/>
    <use x="245.867188" xlink:href="#DejaVuSans-116"/>
    <use x="285.076172" xlink:href="#DejaVuSans-32"/>
    <use x="316.863281" xlink:href="#DejaVuSans-116"/>
    <use x="356.072266" xlink:href="#DejaVuSans-104"/>
    <use x="419.451172" xlink:href="#DejaVuSans-114"/>
    <use x="460.533203" xlink:href="#DejaVuSans-111"/>
    <use x="521.714844" xlink:href="#DejaVuSans-117"/>
    <use x="585.09375" xlink:href="#DejaVuSans-103"/>
    <use x="648.570312" xlink:href="#DejaVuSans-104"/>
    <use x="711.949219" xlink:href="#DejaVuSans-112"/>
    <use x="775.425781" xlink:href="#DejaVuSans-117"/>
    <use x="838.804688" xlink:href="#DejaVuSans-116"/>
   </g>
  </g>
 </g>
 <defs>
  <clipPath id="p0cfd380720">
   <rect height="317.111667" width="460.601562" x="83.472344" y="35.0625"/>
  </clipPath>
 </defs>
</svg>
