<?xml version="1.0" encoding="utf-8" standalone="no"?>
<!DOCTYPE svg PUBLIC "-//W3C//DTD SVG 1.1//EN"
  "http://www.w3.org/Graphics/SVG/1.1/DTD/svg11.dtd">
<!-- Created with matplotlib (https://matplotlib.org/) -->
<svg height="396pt" version="1.1" viewBox="0 0 684 396" width="684pt" xmlns="http://www.w3.org/2000/svg" xmlns:xlink="http://www.w3.org/1999/xlink">
 <defs>
  <style type="text/css">
*{stroke-linecap:butt;stroke-linejoin:round;}
  </style>
 </defs>
 <g id="figure_1">
  <g id="patch_1">
   <path d="M 0 396 
L 684 396 
L 684 0 
L 0 0 
z
" style="fill:#ffffff;"/>
  </g>
  <g id="axes_1">
   <g id="patch_2">
    <path d="M 120.878594 352.174167 
L 540.734062 352.174167 
L 540.734062 35.0625 
L 120.878594 35.0625 
z
" style="fill:#ffffff;"/>
   </g>
   <g id="matplotlib.axis_1">
    <g id="xtick_1">
     <g id="line2d_1">
      <defs>
       <path d="M 0 0 
L 0 3.5 
" id="m77392e2356" style="stroke:#000000;stroke-width:0.8;"/>
      </defs>
      <g>
       <use style="stroke:#000000;stroke-width:0.8;" x="144.418238" xlink:href="#m77392e2356" y="352.174167"/>
      </g>
     </g>
     <g id="text_1">
      <!-- 0 -->
      <defs>
       <path d="M 31.78125 66.40625 
Q 24.171875 66.40625 20.328125 58.90625 
Q 16.5 51.421875 16.5 36.375 
Q 16.5 21.390625 20.328125 13.890625 
Q 24.171875 6.390625 31.78125 6.390625 
Q 39.453125 6.390625 43.28125 13.890625 
Q 47.125 21.390625 47.125 36.375 
Q 47.125 51.421875 43.28125 58.90625 
Q 39.453125 66.40625 31.78125 66.40625 
z
M 31.78125 74.21875 
Q 44.046875 74.21875 50.515625 64.515625 
Q 56.984375 54.828125 56.984375 36.375 
Q 56.984375 17.96875 50.515625 8.265625 
Q 44.046875 -1.421875 31.78125 -1.421875 
Q 19.53125 -1.421875 13.0625 8.265625 
Q 6.59375 17.96875 6.59375 36.375 
Q 6.59375 54.828125 13.0625 64.515625 
Q 19.53125 74.21875 31.78125 74.21875 
z
" id="DejaVuSans-48"/>
      </defs>
      <g transform="translate(141.236988 366.772604)scale(0.1 -0.1)">
       <use xlink:href="#DejaVuSans-48"/>
      </g>
     </g>
    </g>
    <g id="xtick_2">
     <g id="line2d_2">
      <g>
       <use style="stroke:#000000;stroke-width:0.8;" x="210.910982" xlink:href="#m77392e2356" y="352.174167"/>
      </g>
     </g>
     <g id="text_2">
      <!-- 50 -->
      <defs>
       <path d="M 10.796875 72.90625 
L 49.515625 72.90625 
L 49.515625 64.59375 
L 19.828125 64.59375 
L 19.828125 46.734375 
Q 21.96875 47.46875 24.109375 47.828125 
Q 26.265625 48.1875 28.421875 48.1875 
Q 40.625 48.1875 47.75 41.5 
Q 54.890625 34.8125 54.890625 23.390625 
Q 54.890625 11.625 47.5625 5.09375 
Q 40.234375 -1.421875 26.90625 -1.421875 
Q 22.3125 -1.421875 17.546875 -0.640625 
Q 12.796875 0.140625 7.71875 1.703125 
L 7.71875 11.625 
Q 12.109375 9.234375 16.796875 8.0625 
Q 21.484375 6.890625 26.703125 6.890625 
Q 35.15625 6.890625 40.078125 11.328125 
Q 45.015625 15.765625 45.015625 23.390625 
Q 45.015625 31 40.078125 35.4375 
Q 35.15625 39.890625 26.703125 39.890625 
Q 22.75 39.890625 18.8125 39.015625 
Q 14.890625 38.140625 10.796875 36.28125 
z
" id="DejaVuSans-53"/>
      </defs>
      <g transform="translate(204.548482 366.772604)scale(0.1 -0.1)">
       <use xlink:href="#DejaVuSans-53"/>
       <use x="63.623047" xlink:href="#DejaVuSans-48"/>
      </g>
     </g>
    </g>
    <g id="xtick_3">
     <g id="line2d_3">
      <g>
       <use style="stroke:#000000;stroke-width:0.8;" x="277.403726" xlink:href="#m77392e2356" y="352.174167"/>
      </g>
     </g>
     <g id="text_3">
      <!-- 100 -->
      <defs>
       <path d="M 12.40625 8.296875 
L 28.515625 8.296875 
L 28.515625 63.921875 
L 10.984375 60.40625 
L 10.984375 69.390625 
L 28.421875 72.90625 
L 38.28125 72.90625 
L 38.28125 8.296875 
L 54.390625 8.296875 
L 54.390625 0 
L 12.40625 0 
z
" id="DejaVuSans-49"/>
      </defs>
      <g transform="translate(267.859976 366.772604)scale(0.1 -0.1)">
       <use xlink:href="#DejaVuSans-49"/>
       <use x="63.623047" xlink:href="#DejaVuSans-48"/>
       <use x="127.246094" xlink:href="#DejaVuSans-48"/>
      </g>
     </g>
    </g>
    <g id="xtick_4">
     <g id="line2d_4">
      <g>
       <use style="stroke:#000000;stroke-width:0.8;" x="343.89647" xlink:href="#m77392e2356" y="352.174167"/>
      </g>
     </g>
     <g id="text_4">
      <!-- 150 -->
      <g transform="translate(334.35272 366.772604)scale(0.1 -0.1)">
       <use xlink:href="#DejaVuSans-49"/>
       <use x="63.623047" xlink:href="#DejaVuSans-53"/>
       <use x="127.246094" xlink:href="#DejaVuSans-48"/>
      </g>
     </g>
    </g>
    <g id="xtick_5">
     <g id="line2d_5">
      <g>
       <use style="stroke:#000000;stroke-width:0.8;" x="410.389213" xlink:href="#m77392e2356" y="352.174167"/>
      </g>
     </g>
     <g id="text_5">
      <!-- 200 -->
      <defs>
       <path d="M 19.1875 8.296875 
L 53.609375 8.296875 
L 53.609375 0 
L 7.328125 0 
L 7.328125 8.296875 
Q 12.9375 14.109375 22.625 23.890625 
Q 32.328125 33.6875 34.8125 36.53125 
Q 39.546875 41.84375 41.421875 45.53125 
Q 43.3125 49.21875 43.3125 52.78125 
Q 43.3125 58.59375 39.234375 62.25 
Q 35.15625 65.921875 28.609375 65.921875 
Q 23.96875 65.921875 18.8125 64.3125 
Q 13.671875 62.703125 7.8125 59.421875 
L 7.8125 69.390625 
Q 13.765625 71.78125 18.9375 73 
Q 24.125 74.21875 28.421875 74.21875 
Q 39.75 74.21875 46.484375 68.546875 
Q 53.21875 62.890625 53.21875 53.421875 
Q 53.21875 48.921875 51.53125 44.890625 
Q 49.859375 40.875 45.40625 35.40625 
Q 44.1875 33.984375 37.640625 27.21875 
Q 31.109375 20.453125 19.1875 8.296875 
z
" id="DejaVuSans-50"/>
      </defs>
      <g transform="translate(400.845463 366.772604)scale(0.1 -0.1)">
       <use xlink:href="#DejaVuSans-50"/>
       <use x="63.623047" xlink:href="#DejaVuSans-48"/>
       <use x="127.246094" xlink:href="#DejaVuSans-48"/>
      </g>
     </g>
    </g>
    <g id="xtick_6">
     <g id="line2d_6">
      <g>
       <use style="stroke:#000000;stroke-width:0.8;" x="476.881957" xlink:href="#m77392e2356" y="352.174167"/>
      </g>
     </g>
     <g id="text_6">
      <!-- 250 -->
      <g transform="translate(467.338207 366.772604)scale(0.1 -0.1)">
       <use xlink:href="#DejaVuSans-50"/>
       <use x="63.623047" xlink:href="#DejaVuSans-53"/>
       <use x="127.246094" xlink:href="#DejaVuSans-48"/>
      </g>
     </g>
    </g>
   </g>
   <g id="matplotlib.axis_2">
    <g id="ytick_1">
     <g id="line2d_7">
      <defs>
       <path d="M 0 0 
L -3.5 0 
" id="m2369f2e37f" style="stroke:#000000;stroke-width:0.8;"/>
      </defs>
      <g>
       <use style="stroke:#000000;stroke-width:0.8;" x="120.878594" xlink:href="#m2369f2e37f" y="352.174167"/>
      </g>
     </g>
     <g id="text_7">
      <!-- 0 -->
      <g transform="translate(107.516094 355.973385)scale(0.1 -0.1)">
       <use xlink:href="#DejaVuSans-48"/>
      </g>
     </g>
    </g>
    <g id="ytick_2">
     <g id="line2d_8">
      <g>
       <use style="stroke:#000000;stroke-width:0.8;" x="120.878594" xlink:href="#m2369f2e37f" y="283.388326"/>
      </g>
     </g>
     <g id="text_8">
      <!-- 50000 -->
      <g transform="translate(82.066094 287.187545)scale(0.1 -0.1)">
       <use xlink:href="#DejaVuSans-53"/>
       <use x="63.623047" xlink:href="#DejaVuSans-48"/>
       <use x="127.246094" xlink:href="#DejaVuSans-48"/>
       <use x="190.869141" xlink:href="#DejaVuSans-48"/>
       <use x="254.492188" xlink:href="#DejaVuSans-48"/>
      </g>
     </g>
    </g>
    <g id="ytick_3">
     <g id="line2d_9">
      <g>
       <use style="stroke:#000000;stroke-width:0.8;" x="120.878594" xlink:href="#m2369f2e37f" y="214.602486"/>
      </g>
     </g>
     <g id="text_9">
      <!-- 100000 -->
      <g transform="translate(75.703594 218.401705)scale(0.1 -0.1)">
       <use xlink:href="#DejaVuSans-49"/>
       <use x="63.623047" xlink:href="#DejaVuSans-48"/>
       <use x="127.246094" xlink:href="#DejaVuSans-48"/>
       <use x="190.869141" xlink:href="#DejaVuSans-48"/>
       <use x="254.492188" xlink:href="#DejaVuSans-48"/>
       <use x="318.115234" xlink:href="#DejaVuSans-48"/>
      </g>
     </g>
    </g>
    <g id="ytick_4">
     <g id="line2d_10">
      <g>
       <use style="stroke:#000000;stroke-width:0.8;" x="120.878594" xlink:href="#m2369f2e37f" y="145.816645"/>
      </g>
     </g>
     <g id="text_10">
      <!-- 150000 -->
      <g transform="translate(75.703594 149.615864)scale(0.1 -0.1)">
       <use xlink:href="#DejaVuSans-49"/>
       <use x="63.623047" xlink:href="#DejaVuSans-53"/>
       <use x="127.246094" xlink:href="#DejaVuSans-48"/>
       <use x="190.869141" xlink:href="#DejaVuSans-48"/>
       <use x="254.492188" xlink:href="#DejaVuSans-48"/>
       <use x="318.115234" xlink:href="#DejaVuSans-48"/>
      </g>
     </g>
    </g>
    <g id="ytick_5">
     <g id="line2d_11">
      <g>
       <use style="stroke:#000000;stroke-width:0.8;" x="120.878594" xlink:href="#m2369f2e37f" y="77.030805"/>
      </g>
     </g>
     <g id="text_11">
      <!-- 200000 -->
      <g transform="translate(75.703594 80.830024)scale(0.1 -0.1)">
       <use xlink:href="#DejaVuSans-50"/>
       <use x="63.623047" xlink:href="#DejaVuSans-48"/>
       <use x="127.246094" xlink:href="#DejaVuSans-48"/>
       <use x="190.869141" xlink:href="#DejaVuSans-48"/>
       <use x="254.492188" xlink:href="#DejaVuSans-48"/>
       <use x="318.115234" xlink:href="#DejaVuSans-48"/>
      </g>
     </g>
    </g>
    <g id="text_12">
     <!-- queue -->
     <defs>
      <path d="M 14.796875 27.296875 
Q 14.796875 17.390625 18.875 11.75 
Q 22.953125 6.109375 30.078125 6.109375 
Q 37.203125 6.109375 41.296875 11.75 
Q 45.40625 17.390625 45.40625 27.296875 
Q 45.40625 37.203125 41.296875 42.84375 
Q 37.203125 48.484375 30.078125 48.484375 
Q 22.953125 48.484375 18.875 42.84375 
Q 14.796875 37.203125 14.796875 27.296875 
z
M 45.40625 8.203125 
Q 42.578125 3.328125 38.25 0.953125 
Q 33.9375 -1.421875 27.875 -1.421875 
Q 17.96875 -1.421875 11.734375 6.484375 
Q 5.515625 14.40625 5.515625 27.296875 
Q 5.515625 40.1875 11.734375 48.09375 
Q 17.96875 56 27.875 56 
Q 33.9375 56 38.25 53.625 
Q 42.578125 51.265625 45.40625 46.390625 
L 45.40625 54.6875 
L 54.390625 54.6875 
L 54.390625 -20.796875 
L 45.40625 -20.796875 
z
" id="DejaVuSans-113"/>
      <path d="M 8.5 21.578125 
L 8.5 54.6875 
L 17.484375 54.6875 
L 17.484375 21.921875 
Q 17.484375 14.15625 20.5 10.265625 
Q 23.53125 6.390625 29.59375 6.390625 
Q 36.859375 6.390625 41.078125 11.03125 
Q 45.3125 15.671875 45.3125 23.6875 
L 45.3125 54.6875 
L 54.296875 54.6875 
L 54.296875 0 
L 45.3125 0 
L 45.3125 8.40625 
Q 42.046875 3.421875 37.71875 1 
Q 33.40625 -1.421875 27.6875 -1.421875 
Q 18.265625 -1.421875 13.375 4.4375 
Q 8.5 10.296875 8.5 21.578125 
z
M 31.109375 56 
z
" id="DejaVuSans-117"/>
      <path d="M 56.203125 29.59375 
L 56.203125 25.203125 
L 14.890625 25.203125 
Q 15.484375 15.921875 20.484375 11.0625 
Q 25.484375 6.203125 34.421875 6.203125 
Q 39.59375 6.203125 44.453125 7.46875 
Q 49.3125 8.734375 54.109375 11.28125 
L 54.109375 2.78125 
Q 49.265625 0.734375 44.1875 -0.34375 
Q 39.109375 -1.421875 33.890625 -1.421875 
Q 20.796875 -1.421875 13.15625 6.1875 
Q 5.515625 13.8125 5.515625 26.8125 
Q 5.515625 40.234375 12.765625 48.109375 
Q 20.015625 56 32.328125 56 
Q 43.359375 56 49.78125 48.890625 
Q 56.203125 41.796875 56.203125 29.59375 
z
M 47.21875 32.234375 
Q 47.125 39.59375 43.09375 43.984375 
Q 39.0625 48.390625 32.421875 48.390625 
Q 24.90625 48.390625 20.390625 44.140625 
Q 15.875 39.890625 15.1875 32.171875 
z
" id="DejaVuSans-101"/>
     </defs>
     <g transform="translate(58.426094 209.283177)rotate(-90)scale(0.1 -0.1)">
      <use xlink:href="#DejaVuSans-113"/>
      <use x="63.476562" xlink:href="#DejaVuSans-117"/>
      <use x="126.855469" xlink:href="#DejaVuSans-101"/>
      <use x="188.378906" xlink:href="#DejaVuSans-117"/>
      <use x="251.757812" xlink:href="#DejaVuSans-101"/>
     </g>
     <!-- (bytes) -->
     <defs>
      <path d="M 31 75.875 
Q 24.46875 64.65625 21.28125 53.65625 
Q 18.109375 42.671875 18.109375 31.390625 
Q 18.109375 20.125 21.3125 9.0625 
Q 24.515625 -2 31 -13.1875 
L 23.1875 -13.1875 
Q 15.875 -1.703125 12.234375 9.375 
Q 8.59375 20.453125 8.59375 31.390625 
Q 8.59375 42.28125 12.203125 53.3125 
Q 15.828125 64.359375 23.1875 75.875 
z
" id="DejaVuSans-40"/>
      <path d="M 48.6875 27.296875 
Q 48.6875 37.203125 44.609375 42.84375 
Q 40.53125 48.484375 33.40625 48.484375 
Q 26.265625 48.484375 22.1875 42.84375 
Q 18.109375 37.203125 18.109375 27.296875 
Q 18.109375 17.390625 22.1875 11.75 
Q 26.265625 6.109375 33.40625 6.109375 
Q 40.53125 6.109375 44.609375 11.75 
Q 48.6875 17.390625 48.6875 27.296875 
z
M 18.109375 46.390625 
Q 20.953125 51.265625 25.265625 53.625 
Q 29.59375 56 35.59375 56 
Q 45.5625 56 51.78125 48.09375 
Q 58.015625 40.1875 58.015625 27.296875 
Q 58.015625 14.40625 51.78125 6.484375 
Q 45.5625 -1.421875 35.59375 -1.421875 
Q 29.59375 -1.421875 25.265625 0.953125 
Q 20.953125 3.328125 18.109375 8.203125 
L 18.109375 0 
L 9.078125 0 
L 9.078125 75.984375 
L 18.109375 75.984375 
z
" id="DejaVuSans-98"/>
      <path d="M 32.171875 -5.078125 
Q 28.375 -14.84375 24.75 -17.8125 
Q 21.140625 -20.796875 15.09375 -20.796875 
L 7.90625 -20.796875 
L 7.90625 -13.28125 
L 13.1875 -13.28125 
Q 16.890625 -13.28125 18.9375 -11.515625 
Q 21 -9.765625 23.484375 -3.21875 
L 25.09375 0.875 
L 2.984375 54.6875 
L 12.5 54.6875 
L 29.59375 11.921875 
L 46.6875 54.6875 
L 56.203125 54.6875 
z
" id="DejaVuSans-121"/>
      <path d="M 18.3125 70.21875 
L 18.3125 54.6875 
L 36.8125 54.6875 
L 36.8125 47.703125 
L 18.3125 47.703125 
L 18.3125 18.015625 
Q 18.3125 11.328125 20.140625 9.421875 
Q 21.96875 7.515625 27.59375 7.515625 
L 36.8125 7.515625 
L 36.8125 0 
L 27.59375 0 
Q 17.1875 0 13.234375 3.875 
Q 9.28125 7.765625 9.28125 18.015625 
L 9.28125 47.703125 
L 2.6875 47.703125 
L 2.6875 54.6875 
L 9.28125 54.6875 
L 9.28125 70.21875 
z
" id="DejaVuSans-116"/>
      <path d="M 44.28125 53.078125 
L 44.28125 44.578125 
Q 40.484375 46.53125 36.375 47.5 
Q 32.28125 48.484375 27.875 48.484375 
Q 21.1875 48.484375 17.84375 46.4375 
Q 14.5 44.390625 14.5 40.28125 
Q 14.5 37.15625 16.890625 35.375 
Q 19.28125 33.59375 26.515625 31.984375 
L 29.59375 31.296875 
Q 39.15625 29.25 43.1875 25.515625 
Q 47.21875 21.78125 47.21875 15.09375 
Q 47.21875 7.46875 41.1875 3.015625 
Q 35.15625 -1.421875 24.609375 -1.421875 
Q 20.21875 -1.421875 15.453125 -0.5625 
Q 10.6875 0.296875 5.421875 2 
L 5.421875 11.28125 
Q 10.40625 8.6875 15.234375 7.390625 
Q 20.0625 6.109375 24.8125 6.109375 
Q 31.15625 6.109375 34.5625 8.28125 
Q 37.984375 10.453125 37.984375 14.40625 
Q 37.984375 18.0625 35.515625 20.015625 
Q 33.0625 21.96875 24.703125 23.78125 
L 21.578125 24.515625 
Q 13.234375 26.265625 9.515625 29.90625 
Q 5.8125 33.546875 5.8125 39.890625 
Q 5.8125 47.609375 11.28125 51.796875 
Q 16.75 56 26.8125 56 
Q 31.78125 56 36.171875 55.265625 
Q 40.578125 54.546875 44.28125 53.078125 
z
" id="DejaVuSans-115"/>
      <path d="M 8.015625 75.875 
L 15.828125 75.875 
Q 23.140625 64.359375 26.78125 53.3125 
Q 30.421875 42.28125 30.421875 31.390625 
Q 30.421875 20.453125 26.78125 9.375 
Q 23.140625 -1.703125 15.828125 -13.1875 
L 8.015625 -13.1875 
Q 14.5 -2 17.703125 9.0625 
Q 20.90625 20.125 20.90625 31.390625 
Q 20.90625 42.671875 17.703125 53.65625 
Q 14.5 64.65625 8.015625 75.875 
z
" id="DejaVuSans-41"/>
     </defs>
     <g transform="translate(69.623906 211.294896)rotate(-90)scale(0.1 -0.1)">
      <use xlink:href="#DejaVuSans-40"/>
      <use x="39.013672" xlink:href="#DejaVuSans-98"/>
      <use x="102.490234" xlink:href="#DejaVuSans-121"/>
      <use x="161.669922" xlink:href="#DejaVuSans-116"/>
      <use x="200.878906" xlink:href="#DejaVuSans-101"/>
      <use x="262.402344" xlink:href="#DejaVuSans-115"/>
      <use x="314.501953" xlink:href="#DejaVuSans-41"/>
     </g>
    </g>
   </g>
   <g id="line2d_12">
    <path clip-path="url(#pf9536b18dd)" d="M 139.962933 352.174167 
L 144.08095 352.174167 
L 144.511478 137.642136 
L 144.655171 62.660067 
L 144.795252 166.80183 
L 145.214215 148.056312 
L 146.34055 102.233937 
L 146.480275 81.314787 
L 146.620429 162.636159 
L 146.76124 158.470489 
L 147.048095 137.642136 
L 147.190772 133.476466 
L 147.333954 120.979454 
L 147.474052 118.896619 
L 147.755687 104.316772 
L 147.895925 87.65409 
L 148.03619 85.571255 
L 148.178992 85.571255 
L 148.31871 77.239914 
L 148.597913 56.411561 
L 148.73778 150.139148 
L 148.877395 145.973477 
L 149.017058 133.476466 
L 149.156942 81.405584 
L 149.297149 152.221983 
L 149.437207 131.39363 
L 149.57707 127.22796 
L 150.004323 89.736925 
L 150.423361 52.245891 
L 150.563396 160.553324 
L 150.985051 127.22796 
L 151.267558 95.985431 
L 151.692294 73.074243 
L 151.833536 70.991408 
L 151.973482 158.470489 
L 152.821118 79.322749 
L 152.961277 60.566226 
L 153.102788 66.825738 
L 153.243185 127.22796 
L 153.946954 54.328726 
L 154.091186 127.22796 
L 154.372003 95.985431 
L 154.514393 89.736925 
L 154.796525 54.328726 
L 154.936302 114.730948 
L 155.357138 68.908573 
L 155.497268 56.411561 
L 155.639101 116.813784 
L 155.779254 93.902596 
L 155.91958 89.736925 
L 156.199921 56.411561 
L 156.339369 148.056312 
L 156.47873 139.724971 
L 157.177179 62.660067 
L 157.31924 93.902596 
L 157.739364 56.411561 
L 157.878813 73.074243 
L 158.018803 56.411561 
L 158.158654 91.819761 
L 158.438351 60.566226 
L 158.580304 93.902596 
L 158.724139 95.985431 
L 159.282802 58.494397 
L 159.422606 112.648113 
L 159.981524 54.328726 
L 160.122999 177.216006 
L 160.408305 125.145125 
L 160.826918 73.074243 
L 161.105822 54.328726 
L 161.245264 133.476466 
L 161.949445 58.494397 
L 162.091626 73.074243 
L 162.234163 56.411561 
L 162.373753 85.571255 
L 162.656781 60.566226 
L 162.801043 110.565278 
L 163.224444 58.494397 
L 163.366757 56.411561 
L 163.50811 120.979454 
L 163.791404 98.068266 
L 164.214963 54.328726 
L 164.35708 154.304818 
L 164.500388 148.056312 
L 164.929241 89.736925 
L 165.214077 58.494397 
L 165.500833 133.476466 
L 165.781027 123.062289 
L 166.349426 52.245891 
L 166.49395 118.896619 
L 167.061844 52.245891 
L 167.201531 108.463182 
L 167.341775 106.399607 
L 167.620773 64.742902 
L 167.760211 56.411561 
L 167.899696 112.648113 
L 168.039869 120.979454 
L 168.318802 68.908573 
L 168.458201 60.566226 
L 168.597883 116.813784 
L 168.737976 110.565278 
L 169.296183 56.411561 
L 169.438542 116.813784 
L 169.999807 62.660067 
L 170.139833 112.648113 
L 170.279835 114.730948 
L 170.846439 56.411561 
L 170.986855 164.718994 
L 171.127189 177.216006 
L 171.549568 118.896619 
L 171.82831 83.48842 
L 171.967834 77.239914 
L 172.107906 56.411561 
L 172.248363 114.730948 
L 172.806072 60.566226 
L 172.94541 175.13317 
L 173.087186 177.216006 
L 174.069751 64.742902 
L 174.349526 108.463182 
L 174.488982 93.902596 
L 174.6295 95.985431 
L 174.769627 62.660067 
L 174.90916 106.399607 
L 175.048649 112.648113 
L 175.188115 98.068266 
L 175.327614 95.985431 
L 175.606961 56.411561 
L 175.746439 66.825738 
L 175.88593 64.742902 
L 176.026229 73.074243 
L 176.166437 116.813784 
L 176.306024 108.463182 
L 176.724475 58.494397 
L 176.864274 110.565278 
L 177.003842 118.896619 
L 177.284486 81.405584 
L 177.425246 77.239914 
L 177.569165 56.411561 
L 177.710789 191.795852 
L 178.129418 129.310795 
L 178.408303 102.233937 
L 178.547809 89.736925 
L 178.688166 95.985431 
L 178.827694 52.245891 
L 178.967117 131.39363 
L 179.529509 62.660067 
L 179.67142 60.566226 
L 179.813245 106.399607 
L 180.373521 56.411561 
L 180.513992 127.22796 
L 180.797956 85.571255 
L 180.941876 85.571255 
L 181.086152 54.328726 
L 181.225544 73.074243 
L 181.36562 141.807807 
L 181.785031 98.068266 
L 182.063975 62.602287 
L 182.203443 64.742902 
L 182.342787 160.553324 
L 182.621888 120.979454 
L 182.90184 95.985431 
L 183.320826 56.411561 
L 183.460139 120.979454 
L 183.599331 110.565278 
L 184.019174 60.566226 
L 184.301895 104.316772 
L 184.580878 81.405584 
L 184.859813 54.328726 
L 184.999275 145.973477 
L 185.281114 123.062289 
L 185.424164 120.979454 
L 185.851567 56.411561 
L 185.991399 73.074243 
L 186.13084 173.050335 
L 186.270283 162.636159 
L 186.83689 93.902596 
L 186.976516 83.48842 
L 187.115976 62.660067 
L 187.256198 60.566226 
L 187.396742 70.991408 
L 187.536346 66.825738 
L 187.676947 66.825738 
L 187.816528 137.642136 
L 188.235929 95.985431 
L 188.515218 62.660067 
L 188.654855 54.328726 
L 188.795805 152.221983 
L 189.080906 118.896619 
L 189.220412 110.565278 
L 189.64144 64.742902 
L 189.78196 118.896619 
L 190.066846 83.48842 
L 190.345828 54.328726 
L 190.486002 150.139148 
L 190.76871 110.565278 
L 191.328042 54.328726 
L 191.468792 137.642136 
L 191.7476 102.233937 
L 192.170146 52.245891 
L 192.309878 116.813784 
L 192.735758 70.991408 
L 192.877237 58.494397 
L 193.018095 66.825738 
L 193.157469 185.547347 
L 193.578112 129.310795 
L 193.717555 123.062289 
L 194.138841 60.566226 
L 194.280663 54.328726 
L 194.42011 143.890642 
L 195.266216 58.494397 
L 195.406669 95.985431 
L 195.685649 56.411561 
L 195.825047 110.565278 
L 196.105984 81.405584 
L 196.245413 62.660067 
L 196.384924 62.660067 
L 196.527437 208.458534 
L 196.953356 137.642136 
L 197.233987 100.151102 
L 197.377052 98.068266 
L 197.658633 56.411561 
L 197.798139 89.736925 
L 197.937911 66.825738 
L 198.077348 68.908573 
L 198.216787 123.062289 
L 198.356261 129.310795 
L 198.637857 118.896619 
L 198.918293 73.074243 
L 199.059153 62.660067 
L 199.200356 98.068266 
L 199.342998 91.819761 
L 199.761371 58.494397 
L 199.90201 68.908573 
L 200.042766 60.566226 
L 200.18234 106.399607 
L 200.601064 56.411561 
L 200.740501 114.730948 
L 201.019312 77.239914 
L 201.302059 54.328726 
L 201.443028 102.233937 
L 202.005242 64.742902 
L 202.144787 68.908573 
L 202.284276 60.566226 
L 202.423834 93.902596 
L 202.56492 89.736925 
L 202.849898 52.245891 
L 202.991482 114.730948 
L 203.557971 58.494397 
L 203.697508 123.062289 
L 204.257061 62.660067 
L 204.396498 108.463182 
L 204.535991 110.565278 
L 204.675573 104.316772 
L 205.094158 52.245891 
L 205.2362 156.387653 
L 205.519645 118.896619 
L 205.661063 114.730948 
L 205.942997 64.742902 
L 206.084415 60.566226 
L 206.224614 89.736925 
L 206.504573 62.660067 
L 206.645316 125.145125 
L 206.785153 135.559301 
L 207.064684 110.565278 
L 207.346202 81.405584 
L 207.487194 64.742902 
L 207.627745 110.565278 
L 208.190758 58.494397 
L 208.331132 58.494397 
L 208.472828 135.559301 
L 208.894353 93.902596 
L 209.034793 93.902596 
L 209.175315 62.660067 
L 209.320088 62.660067 
L 209.46025 108.463182 
L 209.601318 95.985431 
L 209.741138 102.233937 
L 210.020687 60.566226 
L 210.161195 125.145125 
L 210.301578 114.730948 
L 210.582021 66.825738 
L 210.724202 60.566226 
L 210.863933 104.316772 
L 211.145329 54.328726 
L 211.425866 143.890642 
L 211.56648 133.476466 
L 211.850934 91.819761 
L 211.995841 87.65409 
L 212.140316 66.825738 
L 212.284108 81.405584 
L 212.423771 64.742902 
L 212.564819 68.908573 
L 212.704456 100.093321 
L 213.123297 58.494397 
L 213.40403 112.648113 
L 213.545511 106.399607 
L 213.688027 83.48842 
L 213.834329 85.571255 
L 213.975013 60.566226 
L 214.116473 77.239914 
L 214.398534 52.245891 
L 214.540734 68.908573 
L 214.68243 54.328726 
L 214.824883 98.068266 
L 215.105997 58.494397 
L 215.248572 62.660067 
L 215.390282 135.559301 
L 215.672742 110.565278 
L 215.813457 112.648113 
L 215.953915 70.991408 
L 216.094003 62.660067 
L 216.375107 104.316772 
L 216.797216 64.742902 
L 216.937707 68.908573 
L 217.078197 87.65409 
L 217.359994 54.328726 
L 217.501015 166.80183 
L 217.782707 112.648113 
L 217.925834 104.316772 
L 218.365471 58.494397 
L 218.514662 123.062289 
L 218.655875 112.648113 
L 219.087502 62.660067 
L 219.22756 75.157079 
L 219.368702 116.813784 
L 219.658638 87.65409 
L 219.940843 54.328726 
L 220.082436 141.807807 
L 220.365677 89.736925 
L 220.648284 66.825738 
L 220.788535 79.322749 
L 220.928833 168.884665 
L 221.069181 158.470489 
L 221.491908 102.233937 
L 221.635497 95.985431 
L 221.916015 58.494397 
L 222.055558 93.902596 
L 222.200327 83.48842 
L 222.340785 52.245891 
L 222.482102 118.896619 
L 222.765287 89.736925 
L 223.049445 58.494397 
L 223.190775 85.571255 
L 223.332242 143.890642 
L 223.473299 145.973477 
L 223.755318 106.399607 
L 224.037029 70.991408 
L 224.176693 58.494397 
L 224.316634 133.476466 
L 224.87805 64.742902 
L 225.019139 64.742902 
L 225.164846 68.908573 
L 225.3053 60.566226 
L 225.585658 108.463182 
L 226.011223 62.660067 
L 226.151506 58.494397 
L 226.291453 120.979454 
L 226.573067 85.571255 
L 226.713421 79.322749 
L 226.854187 54.328726 
L 226.995057 125.145125 
L 227.427197 73.074243 
L 227.56891 62.660067 
L 227.852415 133.476466 
L 228.137725 106.399607 
L 228.563598 58.494397 
L 228.843998 141.807807 
L 229.129209 110.565278 
L 229.551067 62.660067 
L 229.691084 62.660067 
L 229.831722 143.890642 
L 230.117704 108.463182 
L 230.545711 62.660067 
L 230.687918 68.908573 
L 230.828313 120.979454 
L 231.532948 56.411561 
L 231.673094 156.387653 
L 232.378365 68.908573 
L 232.520635 56.411561 
L 232.661159 95.985431 
L 232.801751 102.233937 
L 233.082831 79.322749 
L 233.227525 60.566226 
L 233.371763 66.825738 
L 233.515623 108.463182 
L 233.940789 54.328726 
L 234.081274 173.050335 
L 234.509436 114.730948 
L 234.652954 104.316772 
L 234.935798 64.742902 
L 235.077401 58.494397 
L 235.218536 170.9675 
L 235.501531 116.813784 
L 235.645085 108.463182 
L 236.068595 60.566226 
L 236.350249 102.233937 
L 236.635533 75.157079 
L 236.776992 62.660067 
L 237.059004 175.13317 
L 237.48632 125.145125 
L 237.769969 91.819761 
L 238.050877 64.742902 
L 238.19078 68.908573 
L 238.330905 135.559301 
L 239.034845 60.566226 
L 239.176965 120.979454 
L 239.460717 95.985431 
L 239.603402 70.991408 
L 239.746363 81.405584 
L 239.887041 62.660067 
L 240.027199 73.074243 
L 240.172695 58.494397 
L 240.313119 62.660067 
L 240.455668 152.221983 
L 240.880318 102.233937 
L 241.164026 79.322749 
L 241.304807 52.245891 
L 241.445336 91.819761 
L 241.585661 95.985431 
L 242.005494 56.411561 
L 242.145976 152.221983 
L 242.567179 104.316772 
L 242.98735 62.660067 
L 243.127779 89.736925 
L 243.268545 139.724971 
L 243.689654 89.736925 
L 243.970657 62.660067 
L 244.111582 129.310795 
L 244.818387 54.328726 
L 244.959617 185.547347 
L 246.086433 62.660067 
L 246.230394 102.233937 
L 246.372979 98.068266 
L 246.655151 70.991408 
L 246.796083 60.566226 
L 246.937346 127.22796 
L 247.077658 133.476466 
L 247.359358 110.565278 
L 247.64181 79.322749 
L 247.782458 60.566226 
L 247.923048 75.157079 
L 248.06542 106.399607 
L 248.349523 75.157079 
L 248.632621 56.411561 
L 248.772984 131.39363 
L 249.476061 60.566226 
L 249.755969 108.463182 
L 250.037212 58.494397 
L 250.177027 73.074243 
L 250.317403 152.221983 
L 250.745194 104.316772 
L 251.165786 52.245891 
L 251.306149 77.239914 
L 251.586283 56.411561 
L 251.726173 120.979454 
L 252.011062 98.068266 
L 252.432655 54.328726 
L 252.57276 145.973477 
L 252.712763 139.724971 
L 252.992451 100.151102 
L 253.415861 64.742902 
L 253.696925 104.316772 
L 254.122939 66.825738 
L 254.263498 70.991408 
L 254.404013 66.825738 
L 254.544526 56.411561 
L 254.686226 179.298841 
L 255.107353 110.565278 
L 255.6689 60.566226 
L 255.809745 123.062289 
L 256.370025 62.660067 
L 256.513187 75.157079 
L 256.652929 106.399607 
L 256.932285 73.074243 
L 257.072071 66.825738 
L 257.212775 141.807807 
L 257.353002 141.807807 
L 257.634412 116.813784 
L 258.198678 56.411561 
L 258.339073 95.985431 
L 258.481644 93.902596 
L 258.621419 89.736925 
L 258.905942 56.411561 
L 259.046257 156.387653 
L 259.187098 145.973477 
L 259.60851 91.819761 
L 259.890429 60.566226 
L 260.030723 64.742902 
L 260.171305 73.074243 
L 260.312393 60.566226 
L 260.454013 143.890642 
L 260.594523 148.056312 
L 261.161898 83.48842 
L 261.303098 77.239914 
L 261.443119 52.245891 
L 261.583359 160.553324 
L 261.864146 120.979454 
L 262.146933 104.316772 
L 262.429243 60.566226 
L 262.57196 60.566226 
L 262.711946 141.807807 
L 262.852497 135.559301 
L 263.418004 66.825738 
L 263.560004 56.411561 
L 263.7006 73.074243 
L 263.841739 58.494397 
L 263.982179 112.648113 
L 264.122607 108.463182 
L 264.404689 79.322749 
L 264.68713 56.411561 
L 264.828338 116.813784 
L 265.528538 58.494397 
L 265.668962 131.39363 
L 265.809777 129.310795 
L 266.229062 77.239914 
L 266.513432 54.328726 
L 266.656138 162.636159 
L 266.797145 129.310795 
L 266.940974 127.22796 
L 267.224819 85.571255 
L 267.368666 93.902596 
L 267.513051 56.411561 
L 267.655365 93.902596 
L 267.941104 56.411561 
L 268.084381 212.624205 
L 268.369034 156.387653 
L 269.224731 54.328726 
L 269.368023 114.730948 
L 269.942707 52.245891 
L 270.085119 114.730948 
L 270.509595 58.494397 
L 270.651667 54.328726 
L 270.792526 160.553324 
L 271.080415 125.145125 
L 271.642509 62.660067 
L 271.785916 60.566226 
L 271.931169 70.991408 
L 272.077296 62.660067 
L 272.22516 133.476466 
L 272.646976 79.322749 
L 272.787224 73.074243 
L 272.928334 54.328726 
L 273.069188 156.387653 
L 273.631451 89.736925 
L 273.916664 60.566226 
L 274.060519 114.730948 
L 274.201461 104.316772 
L 274.48547 68.908573 
L 274.632522 60.566226 
L 274.773253 133.476466 
L 275.054326 89.736925 
L 275.475823 54.328726 
L 275.616417 137.642136 
L 275.75788 135.559301 
L 276.462281 54.328726 
L 276.603208 137.642136 
L 276.884498 83.48842 
L 277.16605 60.566226 
L 277.449828 102.233937 
L 277.88095 64.742902 
L 278.161601 143.890642 
L 278.585694 93.902596 
L 279.008881 52.245891 
L 279.149178 120.979454 
L 279.429551 89.736925 
L 279.709052 62.660067 
L 279.850154 87.65409 
L 280.132576 56.411561 
L 280.27434 191.795852 
L 280.416224 162.636159 
L 280.556556 158.470489 
L 280.980092 98.068266 
L 281.401265 66.825738 
L 281.541779 179.298841 
L 281.826299 125.145125 
L 282.270132 95.985431 
L 282.415622 58.494397 
L 282.558899 70.991408 
L 282.703298 70.991408 
L 282.847346 73.074243 
L 282.991303 114.730948 
L 283.132428 104.316772 
L 283.414676 70.991408 
L 283.555556 58.494397 
L 283.696571 75.157079 
L 283.837535 64.742902 
L 283.978511 73.074243 
L 284.11938 68.908573 
L 284.259395 52.245891 
L 284.400393 100.151102 
L 284.681891 77.239914 
L 284.82302 60.566226 
L 284.964035 62.660067 
L 285.108376 83.48842 
L 285.391706 62.660067 
L 285.532019 164.718994 
L 286.095227 104.316772 
L 286.235047 79.322749 
L 286.375421 75.157079 
L 286.515805 56.411561 
L 286.65671 177.216006 
L 286.938463 131.39363 
L 287.642626 60.566226 
L 287.78614 118.896619 
L 288.070772 81.405584 
L 288.352577 60.566226 
L 288.493798 110.565278 
L 288.634873 104.316772 
L 289.058041 56.411561 
L 289.198375 150.139148 
L 290.039989 58.494397 
L 290.180262 62.660067 
L 290.320924 112.648113 
L 290.752726 60.566226 
L 290.894102 56.411561 
L 291.035345 145.973477 
L 291.317847 108.463182 
L 291.741661 62.660067 
L 291.88666 133.476466 
L 292.602283 54.328726 
L 292.743246 118.896619 
L 293.02466 85.571255 
L 293.305341 58.494397 
L 293.445777 106.399607 
L 293.72599 77.239914 
L 293.871348 58.494397 
L 294.012199 60.566226 
L 294.154125 114.730948 
L 294.58322 68.908573 
L 294.723801 56.411561 
L 294.865374 173.050335 
L 295.005498 141.807807 
L 295.145864 137.642136 
L 295.568172 81.405584 
L 295.850856 60.566226 
L 295.990575 160.553324 
L 296.270051 114.730948 
L 296.409656 106.399607 
L 296.689182 68.908573 
L 296.829681 58.494397 
L 296.969623 168.884665 
L 297.250665 127.22796 
L 297.677881 68.908573 
L 297.821241 58.494397 
L 297.963103 98.068266 
L 298.104276 102.233937 
L 298.387674 75.157079 
L 298.527938 62.660067 
L 298.668303 87.65409 
L 298.953313 64.742902 
L 299.096086 58.494397 
L 299.23653 110.565278 
L 299.802692 58.494397 
L 299.944817 131.39363 
L 300.230637 87.65409 
L 300.518969 58.494397 
L 300.659958 87.65409 
L 300.943834 54.328726 
L 301.084543 160.553324 
L 301.651924 91.819761 
L 301.934854 60.566226 
L 302.075634 66.825738 
L 302.21951 93.902596 
L 302.502717 70.991408 
L 302.64559 60.566226 
L 302.788797 141.807807 
L 302.928515 108.463182 
L 303.072295 104.316772 
L 303.503142 58.494397 
L 303.645007 179.298841 
L 303.785599 133.476466 
L 303.926612 131.39363 
L 304.353426 70.991408 
L 304.496536 62.660067 
L 304.778289 108.424662 
L 305.342952 54.328726 
L 305.483188 120.979454 
L 305.904154 68.908573 
L 306.044469 60.566226 
L 306.325099 139.724971 
L 306.898178 85.571255 
L 307.187659 56.411561 
L 307.327413 112.648113 
L 307.891837 54.328726 
L 308.031631 116.813784 
L 308.453848 62.660067 
L 308.59436 52.245891 
L 308.734664 60.566226 
L 308.875242 58.494397 
L 309.015613 81.405584 
L 309.296471 60.566226 
L 309.438019 108.463182 
L 309.725641 81.405584 
L 309.867967 68.908573 
L 310.007851 68.908573 
L 310.149732 75.157079 
L 310.292907 58.494397 
L 310.438715 93.902596 
L 310.58187 175.13317 
L 311.292932 91.819761 
L 311.576481 73.074243 
L 311.858263 112.648113 
L 312.283533 64.742902 
L 312.426104 54.328726 
L 312.567813 137.642136 
L 312.711472 127.22796 
L 313.133711 77.239914 
L 313.275947 60.566226 
L 313.560914 148.056312 
L 314.416441 60.566226 
L 314.556647 125.145125 
L 314.697417 127.22796 
L 315.400381 56.411561 
L 315.540449 148.056312 
L 315.687568 143.890642 
L 316.110979 83.48842 
L 316.391843 68.908573 
L 316.531671 110.565278 
L 317.093075 52.245891 
L 317.233338 133.476466 
L 317.653941 79.322749 
L 317.934328 56.411561 
L 318.076785 150.139148 
L 318.218243 118.896619 
L 318.359118 116.813784 
L 318.499383 104.316772 
L 318.780537 70.991408 
L 318.926669 56.411561 
L 319.066781 116.813784 
L 319.634265 56.411561 
L 319.776832 100.151102 
L 319.919083 204.292864 
L 320.061322 191.795852 
L 320.628434 110.565278 
L 321.190492 54.328726 
L 321.331135 106.399607 
L 321.472516 102.233937 
L 321.753855 60.566226 
L 321.89451 87.65409 
L 322.035054 83.48842 
L 322.175538 54.328726 
L 322.316277 56.411561 
L 322.456554 177.216006 
L 323.01569 118.896619 
L 323.295187 81.405584 
L 323.57473 56.411561 
L 323.71556 66.825738 
L 323.855353 60.566226 
L 323.995157 133.476466 
L 324.419836 81.405584 
L 324.560354 75.157079 
L 324.700901 56.411561 
L 324.841429 120.979454 
L 324.985795 93.902596 
L 325.125472 89.736925 
L 325.404505 50.163056 
L 325.543984 93.902596 
L 325.822919 62.660067 
L 325.962402 158.470489 
L 326.241262 112.648113 
L 326.382517 106.399607 
L 326.804904 64.742902 
L 326.945057 75.157079 
L 327.085535 58.494397 
L 327.225291 81.405584 
L 327.364673 77.239914 
L 327.504045 77.239914 
L 327.646086 64.742902 
L 327.789946 125.145125 
L 328.215392 64.742902 
L 328.361127 81.405584 
L 328.500663 127.22796 
L 328.640133 116.813784 
L 329.061098 60.566226 
L 329.206321 64.742902 
L 329.351431 114.730948 
L 329.490861 104.316772 
L 329.769866 66.825738 
L 329.909352 54.328726 
L 330.049023 179.298841 
L 330.328909 135.559301 
L 330.754313 83.48842 
L 331.038263 58.494397 
L 331.179494 114.730948 
L 331.607273 68.908573 
L 331.750467 70.991408 
L 331.891477 135.559301 
L 332.173506 81.405584 
L 332.318969 75.157079 
L 332.460201 54.328726 
L 332.600426 95.985431 
L 332.884697 58.494397 
L 333.170843 100.151102 
L 333.311365 89.736925 
L 333.592785 58.494397 
L 333.732917 91.819761 
L 333.873161 66.825738 
L 334.012713 64.742902 
L 334.152384 123.062289 
L 334.71848 62.660067 
L 334.860879 58.494397 
L 335.000407 125.145125 
L 335.418833 68.908573 
L 335.559163 73.074243 
L 335.841344 141.807807 
L 336.681386 60.566226 
L 336.821325 66.825738 
L 336.968319 56.411561 
L 337.250807 150.139148 
L 338.095514 56.411561 
L 338.378452 102.233937 
L 338.802309 60.566226 
L 338.944415 79.322749 
L 339.084346 58.494397 
L 339.225016 79.322749 
L 339.366738 81.405584 
L 339.649392 58.494397 
L 339.930525 100.151102 
L 340.070223 87.65409 
L 340.211384 64.742902 
L 340.352781 73.074243 
L 340.49382 135.559301 
L 341.203205 62.660067 
L 341.343499 73.074243 
L 341.483195 60.566226 
L 341.622799 70.991408 
L 341.76267 108.463182 
L 342.184147 58.494397 
L 342.329066 56.411561 
L 342.46973 127.22796 
L 342.894031 77.239914 
L 343.035185 66.825738 
L 343.177363 64.742902 
L 343.318486 108.463182 
L 343.602161 87.65409 
L 343.883855 56.411561 
L 344.025142 141.807807 
L 344.165975 148.056312 
L 344.307359 139.724971 
L 344.591915 104.316772 
L 345.022048 58.494397 
L 345.162503 79.322749 
L 345.302608 70.991408 
L 345.445969 54.328726 
L 345.586581 152.221983 
L 345.870652 127.22796 
L 346.436653 64.742902 
L 346.717571 106.399607 
L 347.140183 58.494397 
L 347.424563 70.991408 
L 347.565548 64.742902 
L 347.709366 133.476466 
L 347.989215 91.819761 
L 348.133745 68.908573 
L 348.273657 68.908573 
L 348.413623 60.566226 
L 348.553353 102.233937 
L 348.832499 73.074243 
L 348.97599 66.825738 
L 349.118196 79.322749 
L 349.259958 104.316772 
L 349.400403 95.985431 
L 349.541891 79.322749 
L 349.68212 81.405584 
L 349.822499 58.494397 
L 349.963496 114.730948 
L 350.251634 85.571255 
L 350.536258 64.742902 
L 350.676557 77.239914 
L 350.959945 58.494397 
L 351.100228 139.724971 
L 351.523651 87.65409 
L 351.951059 54.328726 
L 352.093068 152.221983 
L 352.232916 141.807807 
L 352.794979 70.991408 
L 352.935835 77.239914 
L 353.219262 143.890642 
L 354.062673 56.411561 
L 354.205504 195.961523 
L 355.057254 81.405584 
L 355.197028 70.991408 
L 355.336741 52.245891 
L 355.47647 129.310795 
L 355.761115 87.65409 
L 355.903446 83.48842 
L 356.046917 60.566226 
L 356.186963 148.056312 
L 357.033239 52.245891 
L 357.173668 112.648113 
L 357.453669 75.157079 
L 357.595 58.494397 
L 357.735281 114.730948 
L 358.015697 104.316772 
L 358.297435 70.991408 
L 358.438782 62.660067 
L 358.57894 77.239914 
L 358.859562 54.328726 
L 358.999982 102.233937 
L 359.42048 58.494397 
L 359.563032 118.896619 
L 359.702919 118.896619 
L 359.842604 116.813784 
L 360.121902 77.239914 
L 360.261532 64.742902 
L 360.402185 62.660067 
L 360.541973 137.642136 
L 361.250258 64.742902 
L 361.391451 85.571255 
L 361.531937 125.145125 
L 361.672451 120.979454 
L 361.952742 79.322749 
L 362.233179 54.328726 
L 362.374263 114.730948 
L 362.934189 58.494397 
L 363.074177 116.813784 
L 363.357834 89.736925 
L 363.64038 58.494397 
L 363.780775 62.660067 
L 363.920837 127.22796 
L 364.200847 85.330504 
L 364.481437 58.494397 
L 364.622264 156.387653 
L 365.044992 100.151102 
L 365.185 100.151102 
L 365.325355 73.074243 
L 365.466388 79.322749 
L 365.607354 93.902596 
L 365.74842 95.985431 
L 366.030448 62.660067 
L 366.173823 54.328726 
L 366.31601 145.973477 
L 366.457019 137.642136 
L 366.880273 93.902596 
L 367.16234 60.566226 
L 367.302687 68.908573 
L 367.442798 106.399607 
L 367.867165 70.991408 
L 368.008715 56.411561 
L 368.149023 145.973477 
L 368.856884 62.428947 
L 368.997136 70.991408 
L 369.137014 123.062289 
L 369.419116 83.48842 
L 369.701732 58.494397 
L 369.841592 98.068266 
L 370.123606 60.566226 
L 370.410992 175.13317 
L 370.552428 160.553324 
L 370.694035 158.470489 
L 371.115723 91.819761 
L 371.539477 60.566226 
L 371.68165 68.908573 
L 371.823585 52.245891 
L 371.96714 79.322749 
L 372.107035 68.908573 
L 372.249198 108.463182 
L 372.391782 108.463182 
L 372.677011 75.157079 
L 372.818393 58.494397 
L 372.958551 58.494397 
L 373.098621 116.813784 
L 373.524313 70.991408 
L 373.664267 73.074243 
L 373.80428 79.322749 
L 373.944453 177.216006 
L 374.509189 108.463182 
L 374.653245 89.736925 
L 374.793669 89.736925 
L 374.935843 62.660067 
L 375.076863 66.825738 
L 375.218964 106.399607 
L 375.359306 100.151102 
L 375.641822 73.074243 
L 375.782518 54.328726 
L 375.925676 75.157079 
L 376.066591 60.566226 
L 376.350893 139.724971 
L 376.776341 98.068266 
L 377.061297 60.566226 
L 377.201665 60.566226 
L 377.343858 131.39363 
L 377.485615 123.062289 
L 377.628108 123.062289 
L 377.910902 81.405584 
L 378.052156 60.566226 
L 378.192655 91.819761 
L 378.332915 150.139148 
L 379.041669 66.825738 
L 379.182245 54.328726 
L 379.322516 150.139148 
L 379.462193 143.890642 
L 379.752644 102.233937 
L 379.895022 100.151102 
L 380.180415 62.660067 
L 380.323211 58.494397 
L 380.464345 102.233937 
L 380.607846 87.65409 
L 380.751767 87.65409 
L 381.039242 56.411561 
L 381.181276 104.316772 
L 381.32272 85.571255 
L 381.466957 81.405584 
L 381.750102 58.494397 
L 381.892014 175.13317 
L 382.319575 133.476466 
L 382.748365 77.239914 
L 382.892052 58.494397 
L 383.033063 64.742902 
L 383.174962 114.730948 
L 383.320808 106.399607 
L 383.746976 60.566226 
L 383.88905 106.399607 
L 384.029229 100.151102 
L 384.317501 70.991408 
L 384.458992 52.245891 
L 384.602433 125.145125 
L 385.032826 79.322749 
L 385.173476 87.65409 
L 385.317315 58.494397 
L 385.459229 164.718994 
L 385.740718 114.730948 
L 386.306878 62.660067 
L 386.588535 170.9675 
L 387.582583 54.328726 
L 387.725469 125.145125 
L 388.009249 83.48842 
L 388.149775 83.48842 
L 388.2919 54.328726 
L 388.433405 168.884665 
L 388.857254 104.316772 
L 388.999501 100.151102 
L 389.426448 58.494397 
L 389.566824 141.807807 
L 389.710667 133.476466 
L 390.281855 68.908573 
L 390.42544 56.411561 
L 390.566175 73.074243 
L 390.707649 68.908573 
L 390.851368 79.322749 
L 390.993669 139.724971 
L 391.135125 127.22796 
L 391.275988 127.22796 
L 391.416308 98.068266 
L 391.558559 100.151102 
L 391.844892 56.411561 
L 391.987356 114.730948 
L 392.271318 91.819761 
L 392.557971 58.494397 
L 392.844594 175.13317 
L 393.835345 56.411561 
L 393.978982 116.813784 
L 394.261851 79.322749 
L 394.54538 54.328726 
L 394.687743 133.476466 
L 394.82886 91.819761 
L 395.110093 68.908573 
L 395.251459 54.328726 
L 395.392165 154.304818 
L 396.238573 62.660067 
L 396.52307 112.648113 
L 396.951603 58.494397 
L 397.091973 60.566226 
L 397.232338 187.630182 
L 397.51572 118.896619 
L 398.087271 60.566226 
L 398.228508 177.216006 
L 398.515252 125.145125 
L 399.222595 52.245891 
L 399.362443 143.890642 
L 399.505205 131.39363 
L 399.646091 133.476466 
L 399.929247 85.571255 
L 400.21127 62.660067 
L 400.491926 137.642136 
L 401.201336 62.660067 
L 401.341638 75.157079 
L 401.481617 106.399607 
L 401.621729 98.068266 
L 401.908649 64.742902 
L 402.051671 62.660067 
L 402.195728 68.908573 
L 402.338816 58.494397 
L 402.482603 85.571255 
L 402.767606 62.660067 
L 402.907272 73.074243 
L 403.047175 110.565278 
L 403.613968 50.163056 
L 403.754042 104.316772 
L 404.034789 77.239914 
L 404.175493 62.660067 
L 404.31595 75.157079 
L 404.455978 77.239914 
L 404.601272 68.908573 
L 404.741915 95.985431 
L 405.163467 60.566226 
L 405.305264 95.985431 
L 405.731381 56.411561 
L 405.872614 235.535393 
L 406.297061 154.304818 
L 406.860286 91.819761 
L 407.142917 54.328726 
L 407.283456 91.819761 
L 407.428347 77.239914 
L 407.571572 50.163056 
L 407.714261 73.074243 
L 407.995573 54.328726 
L 408.138339 102.233937 
L 408.420554 62.660067 
L 408.560435 58.494397 
L 408.842701 131.39363 
L 409.127503 104.316772 
L 409.408691 68.908573 
L 409.549761 64.742902 
L 409.692764 98.068266 
L 410.117892 54.328726 
L 410.257849 123.062289 
L 410.399167 112.648113 
L 410.682827 73.074243 
L 410.826349 66.825738 
L 410.969239 89.736925 
L 411.392455 58.494397 
L 411.53398 125.145125 
L 411.817771 85.571255 
L 411.958947 79.322749 
L 412.10143 64.742902 
L 412.386928 89.736925 
L 412.529622 95.985431 
L 412.813567 56.411561 
L 412.955578 127.22796 
L 413.525204 62.660067 
L 413.665551 54.328726 
L 413.806708 131.39363 
L 414.235304 95.985431 
L 414.518464 64.742902 
L 414.659575 73.074243 
L 414.801424 104.316772 
L 414.945603 79.322749 
L 415.087634 75.157079 
L 415.228668 62.660067 
L 415.368518 145.973477 
L 415.65494 100.151102 
L 415.798883 100.151102 
L 415.939145 60.566226 
L 416.08129 56.411561 
L 416.22474 123.062289 
L 416.655045 70.991408 
L 416.802466 56.411561 
L 416.944212 125.145125 
L 417.652152 50.163056 
L 417.792816 116.813784 
L 418.35816 56.411561 
L 418.638985 98.068266 
L 418.918783 75.157079 
L 419.058403 54.328726 
L 419.198219 66.825738 
L 419.339422 127.22796 
L 419.765192 70.991408 
L 419.911581 56.411561 
L 420.195543 137.642136 
L 420.906464 66.825738 
L 421.047161 60.566226 
L 421.187479 106.399607 
L 421.469527 79.322749 
L 421.758705 58.494397 
L 421.901861 108.463182 
L 422.042168 104.316772 
L 422.323655 77.239914 
L 422.46457 77.239914 
L 422.60684 125.145125 
L 423.315871 60.566226 
L 423.458822 183.464511 
L 423.744548 112.648113 
L 423.884662 108.463182 
L 424.026896 93.902596 
L 424.167365 66.825738 
L 424.307137 62.660067 
L 424.446759 125.145125 
L 424.731118 77.239914 
L 424.871243 60.566226 
L 425.011096 62.660067 
L 425.150827 120.979454 
L 425.572099 75.157079 
L 425.712531 58.494397 
L 425.852167 73.074243 
L 425.99185 75.157079 
L 426.133205 62.660067 
L 426.275337 73.074243 
L 426.417131 141.807807 
L 427.262287 54.328726 
L 427.407034 164.718994 
L 427.695805 114.730948 
L 427.838992 104.316772 
L 428.125628 64.742902 
L 428.266309 60.566226 
L 428.406967 202.210029 
L 428.971144 116.813784 
L 429.113039 100.151102 
L 429.255045 98.068266 
L 429.535657 60.566226 
L 429.675718 118.896619 
L 429.958636 93.902596 
L 430.243219 66.825738 
L 430.384164 66.825738 
L 430.527302 106.399607 
L 431.092127 56.411561 
L 431.232044 152.221983 
L 431.513379 127.22796 
L 431.657674 104.316772 
L 431.801789 102.233937 
L 432.081444 60.566226 
L 432.22473 102.233937 
L 432.36517 106.399607 
L 432.510371 102.233937 
L 432.796071 58.494397 
L 432.936652 62.660067 
L 433.076393 112.648113 
L 433.638159 52.245891 
L 433.780148 123.062289 
L 433.920062 118.896619 
L 434.201885 70.991408 
L 434.342454 64.742902 
L 434.622617 95.985431 
L 434.763057 87.65409 
L 435.044639 54.328726 
L 435.185006 131.39363 
L 435.74709 66.825738 
L 435.888469 58.494397 
L 436.169435 173.050335 
L 437.159662 68.908573 
L 437.440985 112.648113 
L 437.731349 73.074243 
L 437.871019 58.494397 
L 438.011693 56.411561 
L 438.152258 137.642136 
L 438.863641 64.742902 
L 439.005689 95.985431 
L 439.145315 100.151102 
L 439.425932 73.074243 
L 439.708882 87.65409 
L 439.849667 87.65409 
L 440.132305 58.494397 
L 440.27321 164.718994 
L 440.412998 143.890642 
L 440.553103 158.412708 
L 440.836041 102.233937 
L 441.257804 50.163056 
L 441.399688 108.463182 
L 441.541447 104.316772 
L 441.972266 56.411561 
L 442.113469 141.807807 
L 442.253045 104.316772 
L 442.393233 108.463182 
L 442.674341 64.742902 
L 442.818653 58.494397 
L 442.962889 70.991408 
L 443.110065 62.660067 
L 443.397865 116.813784 
L 443.974013 52.245891 
L 444.116161 114.730948 
L 444.968869 54.328726 
L 445.110556 77.008793 
L 445.25215 60.566226 
L 445.537362 141.807807 
L 445.684001 133.476466 
L 446.394716 56.411561 
L 446.534856 145.973477 
L 446.676492 141.807807 
L 447.109914 102.233937 
L 447.249726 100.151102 
L 447.39274 60.566226 
L 447.538994 52.245891 
L 447.680203 143.890642 
L 447.822263 137.642136 
L 448.105951 98.068266 
L 448.247883 89.736925 
L 448.529211 56.411561 
L 448.670968 110.565278 
L 448.954027 79.322749 
L 449.239465 58.494397 
L 449.37962 64.742902 
L 449.523529 54.328726 
L 449.666404 131.39363 
L 449.960183 75.157079 
L 450.242903 54.328726 
L 450.383788 70.991408 
L 450.524614 127.22796 
L 451.231026 60.566226 
L 451.373482 145.973477 
L 451.802618 98.068266 
L 452.231528 60.566226 
L 452.372094 93.902596 
L 452.658714 54.328726 
L 452.800162 83.48842 
L 452.940809 60.566226 
L 453.081816 58.494397 
L 453.222289 125.145125 
L 453.794472 68.908573 
L 453.939359 66.825738 
L 454.079594 108.463182 
L 454.361712 81.405584 
L 454.648186 54.328726 
L 454.790714 112.648113 
L 455.073318 77.239914 
L 455.213818 70.991408 
L 455.354852 54.328726 
L 455.495936 158.470489 
L 456.205072 75.157079 
L 456.346814 62.660067 
L 456.487393 62.660067 
L 456.778088 77.239914 
L 456.917936 154.304818 
L 457.059114 150.139148 
L 457.340901 108.463182 
L 457.483117 106.399607 
L 457.909423 62.660067 
L 458.050092 108.463182 
L 458.615558 54.328726 
L 458.756167 154.304818 
L 459.046436 118.896619 
L 459.186933 108.463182 
L 459.472248 68.908573 
L 459.613511 66.825738 
L 459.893608 110.565278 
L 460.176144 83.48842 
L 460.318571 58.494397 
L 460.459048 56.411561 
L 460.604379 112.648113 
L 461.170334 54.328726 
L 461.31722 106.399607 
L 461.886959 58.494397 
L 462.028878 102.233937 
L 462.171493 104.316772 
L 462.600153 56.411561 
L 462.740781 52.245891 
L 462.884519 133.476466 
L 463.025803 125.145125 
L 463.597898 60.566226 
L 463.737858 56.411561 
L 463.878055 127.22796 
L 464.167244 83.48842 
L 464.453031 52.245891 
L 464.596631 110.565278 
L 464.73718 104.316772 
L 465.163151 62.660067 
L 465.306085 110.565278 
L 465.732054 58.494397 
L 465.872127 62.660067 
L 466.012378 179.298841 
L 466.154512 135.559301 
L 466.295846 127.22796 
L 466.858016 60.566226 
L 466.998384 54.328726 
L 467.138604 116.813784 
L 467.283244 118.896619 
L 467.565695 75.157079 
L 467.708137 56.411561 
L 467.84848 87.65409 
L 468.131317 54.328726 
L 468.271489 150.139148 
L 468.843136 87.65409 
L 468.983573 64.742902 
L 469.124335 60.566226 
L 469.404938 108.463182 
L 469.545809 98.068266 
L 469.826436 66.825738 
L 469.970613 58.494397 
L 470.11222 137.642136 
L 470.538935 98.068266 
L 470.826588 66.825738 
L 470.970259 56.411561 
L 471.114613 102.233937 
L 471.399531 68.908573 
L 471.547902 56.411561 
L 471.688611 120.979454 
L 471.971394 81.405584 
L 472.254414 52.245891 
L 472.394908 129.310795 
L 472.678 98.068266 
L 472.82011 85.571255 
L 472.959775 62.660067 
L 473.102769 58.494397 
L 473.244467 110.565278 
L 473.666227 62.660067 
L 473.807707 60.566226 
L 473.947712 106.399607 
L 474.229822 70.991408 
L 474.369812 60.566226 
L 474.512946 75.157079 
L 474.652858 75.157079 
L 474.792986 60.566226 
L 474.934353 66.825738 
L 475.078767 108.463182 
L 475.511419 64.742902 
L 475.792079 106.399607 
L 476.217406 64.742902 
L 476.502292 110.565278 
L 476.787862 83.48842 
L 477.07469 54.328726 
L 477.215923 123.062289 
L 477.497386 85.571255 
L 477.78283 68.908573 
L 478.070289 127.22796 
L 478.210982 120.979454 
L 478.781568 54.328726 
L 478.921992 137.642136 
L 479.203611 89.736925 
L 479.347346 93.902596 
L 479.490319 64.742902 
L 479.632462 60.566226 
L 479.773856 198.044358 
L 480.0564 156.387653 
L 480.201028 145.973477 
L 480.906416 56.411561 
L 481.049186 158.470489 
L 481.190071 156.387653 
L 481.475098 110.565278 
L 481.757889 79.322749 
L 481.898868 70.991408 
L 482.178918 104.316772 
L 482.321265 93.902596 
L 482.60588 52.245891 
L 482.750207 95.985431 
L 482.891947 102.233937 
L 483.317057 58.494397 
L 483.459594 98.068266 
L 483.74339 52.245891 
L 483.88353 177.216006 
L 484.166555 120.979454 
L 484.596375 70.991408 
L 484.737356 58.494397 
L 484.880968 166.80183 
L 485.446234 91.819761 
L 485.587031 81.405584 
L 485.727231 62.660067 
L 485.867803 60.566226 
L 486.007974 116.813784 
L 486.575228 56.411561 
L 486.715519 168.884665 
L 486.996604 120.979454 
L 487.566017 56.411561 
L 487.845564 150.139148 
L 488.125469 100.151102 
L 488.404742 77.239914 
L 488.544857 60.566226 
L 488.684614 83.48842 
L 488.964121 58.494397 
L 489.111648 158.470489 
L 489.251599 145.973477 
L 489.672707 93.902596 
L 490.097079 58.494397 
L 490.237539 91.819761 
L 490.377626 83.48842 
L 490.518346 62.660067 
L 490.658206 58.494397 
L 490.799458 110.565278 
L 491.367748 52.245891 
L 491.507449 89.736925 
L 491.647079 75.157079 
L 491.79253 83.48842 
L 491.932353 81.405584 
L 492.072029 66.825738 
L 492.212374 77.239914 
L 492.352129 127.22796 
L 492.496319 116.813784 
L 492.922147 66.825738 
L 493.062632 58.494397 
L 493.202565 118.896619 
L 493.765543 54.328726 
L 493.909237 216.789875 
L 494.053165 166.80183 
L 494.193074 158.470489 
L 494.618358 102.233937 
L 495.038781 56.411561 
L 495.179332 154.304818 
L 495.600029 108.463182 
L 495.884857 75.157079 
L 496.026082 54.328726 
L 496.166561 102.233937 
L 496.310688 98.068266 
L 496.735624 56.411561 
L 496.875566 89.736925 
L 497.155649 62.660067 
L 497.29535 87.65409 
L 497.435541 137.642136 
L 497.575402 129.310795 
L 498.142878 60.566226 
L 498.422479 104.316772 
L 498.8432 60.566226 
L 499.12379 73.074243 
L 499.268114 54.328726 
L 499.408274 131.39363 
L 500.112966 58.494397 
L 500.253969 64.742902 
L 500.397154 131.39363 
L 500.689972 108.463182 
L 500.829839 112.648113 
L 501.11016 62.660067 
L 501.250534 54.328726 
L 501.390195 83.48842 
L 501.530859 58.494397 
L 501.671548 56.411561 
L 501.811931 108.463182 
L 502.374705 52.245891 
L 502.515033 179.298841 
L 502.654953 170.9675 
L 503.077725 108.463182 
L 503.218626 102.233937 
L 503.649409 54.328726 
L 503.79349 68.908573 
L 503.934017 52.245891 
L 504.076487 148.056312 
L 504.360587 93.902596 
L 504.503073 89.736925 
L 504.783439 54.328726 
L 504.924133 164.718994 
L 505.064973 135.559301 
L 505.209071 129.310795 
L 505.495249 95.985431 
L 505.635851 75.157079 
L 505.776372 81.405584 
L 505.923767 52.245891 
L 506.064214 110.565278 
L 506.500192 66.825738 
L 506.643158 54.328726 
L 506.786285 160.553324 
L 506.928204 131.39363 
L 507.07242 125.145125 
L 507.501091 66.825738 
L 507.64324 58.494397 
L 507.787464 85.571255 
L 507.930424 64.742902 
L 508.073347 60.566226 
L 508.213068 120.979454 
L 508.500724 91.819761 
L 508.790049 56.411561 
L 508.93083 83.48842 
L 509.210173 56.411561 
L 509.349826 170.9675 
L 509.631967 120.979454 
L 510.199966 60.566226 
L 510.339646 102.233937 
L 510.479434 95.985431 
L 510.760548 66.825738 
L 510.900194 54.328726 
L 511.039838 116.813784 
L 511.181004 95.985431 
L 511.320804 100.151102 
L 511.601887 56.411561 
L 511.741584 102.233937 
L 512.162962 60.566226 
L 512.302656 83.48842 
L 512.590774 58.494397 
L 512.731226 120.979454 
L 513.306275 64.742902 
L 513.454971 110.565278 
L 513.883668 73.074243 
L 514.024891 73.074243 
L 514.165571 177.216006 
L 514.730442 83.48842 
L 515.011214 56.411561 
L 515.15353 127.22796 
L 515.865251 52.245891 
L 516.009176 127.22796 
L 516.431892 70.991408 
L 516.572961 60.566226 
L 516.854863 135.559301 
L 517.415719 77.182134 
L 517.555316 62.660067 
L 517.69509 62.660067 
L 517.835283 100.151102 
L 517.975086 79.322749 
L 518.115018 77.239914 
L 518.254849 56.411561 
L 518.395051 89.736925 
L 518.676156 62.660067 
L 518.819379 131.39363 
L 519.386667 58.494397 
L 519.527158 70.991408 
L 519.667969 162.636159 
L 519.951882 116.813784 
L 520.09557 108.463182 
L 520.522658 60.566226 
L 520.66292 64.742902 
L 520.804598 93.902596 
L 520.945896 93.902596 
L 521.228209 58.494397 
L 521.368334 64.742902 
L 521.508691 95.985431 
L 521.649723 81.405584 
L 521.649723 81.405584 
" style="fill:none;stroke:#1f77b4;stroke-linecap:square;stroke-width:1.5;"/>
   </g>
   <g id="patch_3">
    <path d="M 120.878594 352.174167 
L 120.878594 35.0625 
" style="fill:none;stroke:#000000;stroke-linecap:square;stroke-linejoin:miter;stroke-width:0.8;"/>
   </g>
   <g id="patch_4">
    <path d="M 540.734062 352.174167 
L 540.734062 35.0625 
" style="fill:none;stroke:#000000;stroke-linecap:square;stroke-linejoin:miter;stroke-width:0.8;"/>
   </g>
   <g id="patch_5">
    <path d="M 120.878594 352.174167 
L 540.734062 352.174167 
" style="fill:none;stroke:#000000;stroke-linecap:square;stroke-linejoin:miter;stroke-width:0.8;"/>
   </g>
   <g id="patch_6">
    <path d="M 120.878594 35.0625 
L 540.734062 35.0625 
" style="fill:none;stroke:#000000;stroke-linecap:square;stroke-linejoin:miter;stroke-width:0.8;"/>
   </g>
   <g id="legend_1">
    <g id="patch_7">
     <path d="M 563.726836 63.938438 
L 627.601836 63.938438 
Q 629.601836 63.938438 629.601836 61.938438 
L 629.601836 37.0625 
Q 629.601836 35.0625 627.601836 35.0625 
L 563.726836 35.0625 
Q 561.726836 35.0625 561.726836 37.0625 
L 561.726836 61.938438 
Q 561.726836 63.938438 563.726836 63.938438 
z
" style="fill:#ffffff;opacity:0.8;stroke:#cccccc;stroke-linejoin:miter;"/>
    </g>
    <g id="line2d_13">
     <path d="M 565.726836 49.799688 
L 585.726836 49.799688 
" style="fill:none;stroke:#1f77b4;stroke-linecap:square;stroke-width:1.5;"/>
    </g>
    <g id="line2d_14"/>
    <g id="text_13">
     <!-- queue -->
     <g transform="translate(593.726836 46.660937)scale(0.1 -0.1)">
      <use xlink:href="#DejaVuSans-113"/>
      <use x="63.476562" xlink:href="#DejaVuSans-117"/>
      <use x="126.855469" xlink:href="#DejaVuSans-101"/>
      <use x="188.378906" xlink:href="#DejaVuSans-117"/>
      <use x="251.757812" xlink:href="#DejaVuSans-101"/>
     </g>
     <!-- length -->
     <defs>
      <path d="M 9.421875 75.984375 
L 18.40625 75.984375 
L 18.40625 0 
L 9.421875 0 
z
" id="DejaVuSans-108"/>
      <path d="M 54.890625 33.015625 
L 54.890625 0 
L 45.90625 0 
L 45.90625 32.71875 
Q 45.90625 40.484375 42.875 44.328125 
Q 39.84375 48.1875 33.796875 48.1875 
Q 26.515625 48.1875 22.3125 43.546875 
Q 18.109375 38.921875 18.109375 30.90625 
L 18.109375 0 
L 9.078125 0 
L 9.078125 54.6875 
L 18.109375 54.6875 
L 18.109375 46.1875 
Q 21.34375 51.125 25.703125 53.5625 
Q 30.078125 56 35.796875 56 
Q 45.21875 56 50.046875 50.171875 
Q 54.890625 44.34375 54.890625 33.015625 
z
" id="DejaVuSans-110"/>
      <path d="M 45.40625 27.984375 
Q 45.40625 37.75 41.375 43.109375 
Q 37.359375 48.484375 30.078125 48.484375 
Q 22.859375 48.484375 18.828125 43.109375 
Q 14.796875 37.75 14.796875 27.984375 
Q 14.796875 18.265625 18.828125 12.890625 
Q 22.859375 7.515625 30.078125 7.515625 
Q 37.359375 7.515625 41.375 12.890625 
Q 45.40625 18.265625 45.40625 27.984375 
z
M 54.390625 6.78125 
Q 54.390625 -7.171875 48.1875 -13.984375 
Q 42 -20.796875 29.203125 -20.796875 
Q 24.46875 -20.796875 20.265625 -20.09375 
Q 16.0625 -19.390625 12.109375 -17.921875 
L 12.109375 -9.1875 
Q 16.0625 -11.328125 19.921875 -12.34375 
Q 23.78125 -13.375 27.78125 -13.375 
Q 36.625 -13.375 41.015625 -8.765625 
Q 45.40625 -4.15625 45.40625 5.171875 
L 45.40625 9.625 
Q 42.625 4.78125 38.28125 2.390625 
Q 33.9375 0 27.875 0 
Q 17.828125 0 11.671875 7.65625 
Q 5.515625 15.328125 5.515625 27.984375 
Q 5.515625 40.671875 11.671875 48.328125 
Q 17.828125 56 27.875 56 
Q 33.9375 56 38.28125 53.609375 
Q 42.625 51.21875 45.40625 46.390625 
L 45.40625 54.6875 
L 54.390625 54.6875 
z
" id="DejaVuSans-103"/>
      <path d="M 54.890625 33.015625 
L 54.890625 0 
L 45.90625 0 
L 45.90625 32.71875 
Q 45.90625 40.484375 42.875 44.328125 
Q 39.84375 48.1875 33.796875 48.1875 
Q 26.515625 48.1875 22.3125 43.546875 
Q 18.109375 38.921875 18.109375 30.90625 
L 18.109375 0 
L 9.078125 0 
L 9.078125 75.984375 
L 18.109375 75.984375 
L 18.109375 46.1875 
Q 21.34375 51.125 25.703125 53.5625 
Q 30.078125 56 35.796875 56 
Q 45.21875 56 50.046875 50.171875 
Q 54.890625 44.34375 54.890625 33.015625 
z
" id="DejaVuSans-104"/>
     </defs>
     <g transform="translate(593.726836 57.85875)scale(0.1 -0.1)">
      <use xlink:href="#DejaVuSans-108"/>
      <use x="27.783203" xlink:href="#DejaVuSans-101"/>
      <use x="89.306641" xlink:href="#DejaVuSans-110"/>
      <use x="152.685547" xlink:href="#DejaVuSans-103"/>
      <use x="216.162109" xlink:href="#DejaVuSans-116"/>
      <use x="255.371094" xlink:href="#DejaVuSans-104"/>
     </g>
    </g>
   </g>
  </g>
  <g id="text_14">
   <!-- result queue (bytes) -->
   <defs>
    <path d="M 41.109375 46.296875 
Q 39.59375 47.171875 37.8125 47.578125 
Q 36.03125 48 33.890625 48 
Q 26.265625 48 22.1875 43.046875 
Q 18.109375 38.09375 18.109375 28.8125 
L 18.109375 0 
L 9.078125 0 
L 9.078125 54.6875 
L 18.109375 54.6875 
L 18.109375 46.1875 
Q 20.953125 51.171875 25.484375 53.578125 
Q 30.03125 56 36.53125 56 
Q 37.453125 56 38.578125 55.875 
Q 39.703125 55.765625 41.0625 55.515625 
z
" id="DejaVuSans-114"/>
    <path id="DejaVuSans-32"/>
   </defs>
   <g transform="translate(281.072812 17.038125)scale(0.12 -0.12)">
    <use xlink:href="#DejaVuSans-114"/>
    <use x="41.082031" xlink:href="#DejaVuSans-101"/>
    <use x="102.605469" xlink:href="#DejaVuSans-115"/>
    <use x="154.705078" xlink:href="#DejaVuSans-117"/>
    <use x="218.083984" xlink:href="#DejaVuSans-108"/>
    <use x="245.867188" xlink:href="#DejaVuSans-116"/>
    <use x="285.076172" xlink:href="#DejaVuSans-32"/>
    <use x="316.863281" xlink:href="#DejaVuSans-113"/>
    <use x="380.339844" xlink:href="#DejaVuSans-117"/>
    <use x="443.71875" xlink:href="#DejaVuSans-101"/>
    <use x="505.242188" xlink:href="#DejaVuSans-117"/>
    <use x="568.621094" xlink:href="#DejaVuSans-101"/>
    <use x="630.144531" xlink:href="#DejaVuSans-32"/>
    <use x="661.931641" xlink:href="#DejaVuSans-40"/>
    <use x="700.945312" xlink:href="#DejaVuSans-98"/>
    <use x="764.421875" xlink:href="#DejaVuSans-121"/>
    <use x="823.601562" xlink:href="#DejaVuSans-116"/>
    <use x="862.810547" xlink:href="#DejaVuSans-101"/>
    <use x="924.333984" xlink:href="#DejaVuSans-115"/>
    <use x="976.433594" xlink:href="#DejaVuSans-41"/>
   </g>
  </g>
 </g>
 <defs>
  <clipPath id="pf9536b18dd">
   <rect height="317.111667" width="419.855469" x="120.878594" y="35.0625"/>
  </clipPath>
 </defs>
</svg>
