<?xml version="1.0" encoding="utf-8" standalone="no"?>
<!DOCTYPE svg PUBLIC "-//W3C//DTD SVG 1.1//EN"
  "http://www.w3.org/Graphics/SVG/1.1/DTD/svg11.dtd">
<!-- Created with matplotlib (https://matplotlib.org/) -->
<svg height="396pt" version="1.1" viewBox="0 0 684 396" width="684pt" xmlns="http://www.w3.org/2000/svg" xmlns:xlink="http://www.w3.org/1999/xlink">
 <defs>
  <style type="text/css">
*{stroke-linecap:butt;stroke-linejoin:round;}
  </style>
 </defs>
 <g id="figure_1">
  <g id="patch_1">
   <path d="M 0 396 
L 684 396 
L 684 0 
L 0 0 
z
" style="fill:#ffffff;"/>
  </g>
  <g id="axes_1">
   <g id="patch_2">
    <path d="M 83.472344 352.174167 
L 488.365312 352.174167 
L 488.365312 35.0625 
L 83.472344 35.0625 
z
" style="fill:#ffffff;"/>
   </g>
   <g id="matplotlib.axis_1">
    <g id="xtick_1">
     <g id="line2d_1">
      <defs>
       <path d="M 0 0 
L 0 3.5 
" id="m56977fcdbd" style="stroke:#000000;stroke-width:0.8;"/>
      </defs>
      <g>
       <use style="stroke:#000000;stroke-width:0.8;" x="101.87657" xlink:href="#m56977fcdbd" y="352.174167"/>
      </g>
     </g>
     <g id="text_1">
      <!-- 0 -->
      <defs>
       <path d="M 31.78125 66.40625 
Q 24.171875 66.40625 20.328125 58.90625 
Q 16.5 51.421875 16.5 36.375 
Q 16.5 21.390625 20.328125 13.890625 
Q 24.171875 6.390625 31.78125 6.390625 
Q 39.453125 6.390625 43.28125 13.890625 
Q 47.125 21.390625 47.125 36.375 
Q 47.125 51.421875 43.28125 58.90625 
Q 39.453125 66.40625 31.78125 66.40625 
z
M 31.78125 74.21875 
Q 44.046875 74.21875 50.515625 64.515625 
Q 56.984375 54.828125 56.984375 36.375 
Q 56.984375 17.96875 50.515625 8.265625 
Q 44.046875 -1.421875 31.78125 -1.421875 
Q 19.53125 -1.421875 13.0625 8.265625 
Q 6.59375 17.96875 6.59375 36.375 
Q 6.59375 54.828125 13.0625 64.515625 
Q 19.53125 74.21875 31.78125 74.21875 
z
" id="DejaVuSans-48"/>
      </defs>
      <g transform="translate(98.69532 366.772604)scale(0.1 -0.1)">
       <use xlink:href="#DejaVuSans-48"/>
      </g>
     </g>
    </g>
    <g id="xtick_2">
     <g id="line2d_2">
      <g>
       <use style="stroke:#000000;stroke-width:0.8;" x="168.534637" xlink:href="#m56977fcdbd" y="352.174167"/>
      </g>
     </g>
     <g id="text_2">
      <!-- 50 -->
      <defs>
       <path d="M 10.796875 72.90625 
L 49.515625 72.90625 
L 49.515625 64.59375 
L 19.828125 64.59375 
L 19.828125 46.734375 
Q 21.96875 47.46875 24.109375 47.828125 
Q 26.265625 48.1875 28.421875 48.1875 
Q 40.625 48.1875 47.75 41.5 
Q 54.890625 34.8125 54.890625 23.390625 
Q 54.890625 11.625 47.5625 5.09375 
Q 40.234375 -1.421875 26.90625 -1.421875 
Q 22.3125 -1.421875 17.546875 -0.640625 
Q 12.796875 0.140625 7.71875 1.703125 
L 7.71875 11.625 
Q 12.109375 9.234375 16.796875 8.0625 
Q 21.484375 6.890625 26.703125 6.890625 
Q 35.15625 6.890625 40.078125 11.328125 
Q 45.015625 15.765625 45.015625 23.390625 
Q 45.015625 31 40.078125 35.4375 
Q 35.15625 39.890625 26.703125 39.890625 
Q 22.75 39.890625 18.8125 39.015625 
Q 14.890625 38.140625 10.796875 36.28125 
z
" id="DejaVuSans-53"/>
      </defs>
      <g transform="translate(162.172137 366.772604)scale(0.1 -0.1)">
       <use xlink:href="#DejaVuSans-53"/>
       <use x="63.623047" xlink:href="#DejaVuSans-48"/>
      </g>
     </g>
    </g>
    <g id="xtick_3">
     <g id="line2d_3">
      <g>
       <use style="stroke:#000000;stroke-width:0.8;" x="235.192705" xlink:href="#m56977fcdbd" y="352.174167"/>
      </g>
     </g>
     <g id="text_3">
      <!-- 100 -->
      <defs>
       <path d="M 12.40625 8.296875 
L 28.515625 8.296875 
L 28.515625 63.921875 
L 10.984375 60.40625 
L 10.984375 69.390625 
L 28.421875 72.90625 
L 38.28125 72.90625 
L 38.28125 8.296875 
L 54.390625 8.296875 
L 54.390625 0 
L 12.40625 0 
z
" id="DejaVuSans-49"/>
      </defs>
      <g transform="translate(225.648955 366.772604)scale(0.1 -0.1)">
       <use xlink:href="#DejaVuSans-49"/>
       <use x="63.623047" xlink:href="#DejaVuSans-48"/>
       <use x="127.246094" xlink:href="#DejaVuSans-48"/>
      </g>
     </g>
    </g>
    <g id="xtick_4">
     <g id="line2d_4">
      <g>
       <use style="stroke:#000000;stroke-width:0.8;" x="301.850773" xlink:href="#m56977fcdbd" y="352.174167"/>
      </g>
     </g>
     <g id="text_4">
      <!-- 150 -->
      <g transform="translate(292.307023 366.772604)scale(0.1 -0.1)">
       <use xlink:href="#DejaVuSans-49"/>
       <use x="63.623047" xlink:href="#DejaVuSans-53"/>
       <use x="127.246094" xlink:href="#DejaVuSans-48"/>
      </g>
     </g>
    </g>
    <g id="xtick_5">
     <g id="line2d_5">
      <g>
       <use style="stroke:#000000;stroke-width:0.8;" x="368.508841" xlink:href="#m56977fcdbd" y="352.174167"/>
      </g>
     </g>
     <g id="text_5">
      <!-- 200 -->
      <defs>
       <path d="M 19.1875 8.296875 
L 53.609375 8.296875 
L 53.609375 0 
L 7.328125 0 
L 7.328125 8.296875 
Q 12.9375 14.109375 22.625 23.890625 
Q 32.328125 33.6875 34.8125 36.53125 
Q 39.546875 41.84375 41.421875 45.53125 
Q 43.3125 49.21875 43.3125 52.78125 
Q 43.3125 58.59375 39.234375 62.25 
Q 35.15625 65.921875 28.609375 65.921875 
Q 23.96875 65.921875 18.8125 64.3125 
Q 13.671875 62.703125 7.8125 59.421875 
L 7.8125 69.390625 
Q 13.765625 71.78125 18.9375 73 
Q 24.125 74.21875 28.421875 74.21875 
Q 39.75 74.21875 46.484375 68.546875 
Q 53.21875 62.890625 53.21875 53.421875 
Q 53.21875 48.921875 51.53125 44.890625 
Q 49.859375 40.875 45.40625 35.40625 
Q 44.1875 33.984375 37.640625 27.21875 
Q 31.109375 20.453125 19.1875 8.296875 
z
" id="DejaVuSans-50"/>
      </defs>
      <g transform="translate(358.965091 366.772604)scale(0.1 -0.1)">
       <use xlink:href="#DejaVuSans-50"/>
       <use x="63.623047" xlink:href="#DejaVuSans-48"/>
       <use x="127.246094" xlink:href="#DejaVuSans-48"/>
      </g>
     </g>
    </g>
    <g id="xtick_6">
     <g id="line2d_6">
      <g>
       <use style="stroke:#000000;stroke-width:0.8;" x="435.166908" xlink:href="#m56977fcdbd" y="352.174167"/>
      </g>
     </g>
     <g id="text_6">
      <!-- 250 -->
      <g transform="translate(425.623158 366.772604)scale(0.1 -0.1)">
       <use xlink:href="#DejaVuSans-50"/>
       <use x="63.623047" xlink:href="#DejaVuSans-53"/>
       <use x="127.246094" xlink:href="#DejaVuSans-48"/>
      </g>
     </g>
    </g>
   </g>
   <g id="matplotlib.axis_2">
    <g id="ytick_1">
     <g id="line2d_7">
      <defs>
       <path d="M 0 0 
L -3.5 0 
" id="m4cbf359292" style="stroke:#000000;stroke-width:0.8;"/>
      </defs>
      <g>
       <use style="stroke:#000000;stroke-width:0.8;" x="83.472344" xlink:href="#m4cbf359292" y="352.174167"/>
      </g>
     </g>
     <g id="text_7">
      <!-- 0 -->
      <g transform="translate(70.109844 355.973385)scale(0.1 -0.1)">
       <use xlink:href="#DejaVuSans-48"/>
      </g>
     </g>
    </g>
    <g id="ytick_2">
     <g id="line2d_8">
      <g>
       <use style="stroke:#000000;stroke-width:0.8;" x="83.472344" xlink:href="#m4cbf359292" y="313.944912"/>
      </g>
     </g>
     <g id="text_8">
      <!-- 10 -->
      <g transform="translate(63.747344 317.744131)scale(0.1 -0.1)">
       <use xlink:href="#DejaVuSans-49"/>
       <use x="63.623047" xlink:href="#DejaVuSans-48"/>
      </g>
     </g>
    </g>
    <g id="ytick_3">
     <g id="line2d_9">
      <g>
       <use style="stroke:#000000;stroke-width:0.8;" x="83.472344" xlink:href="#m4cbf359292" y="275.715658"/>
      </g>
     </g>
     <g id="text_9">
      <!-- 20 -->
      <g transform="translate(63.747344 279.514876)scale(0.1 -0.1)">
       <use xlink:href="#DejaVuSans-50"/>
       <use x="63.623047" xlink:href="#DejaVuSans-48"/>
      </g>
     </g>
    </g>
    <g id="ytick_4">
     <g id="line2d_10">
      <g>
       <use style="stroke:#000000;stroke-width:0.8;" x="83.472344" xlink:href="#m4cbf359292" y="237.486403"/>
      </g>
     </g>
     <g id="text_10">
      <!-- 30 -->
      <defs>
       <path d="M 40.578125 39.3125 
Q 47.65625 37.796875 51.625 33 
Q 55.609375 28.21875 55.609375 21.1875 
Q 55.609375 10.40625 48.1875 4.484375 
Q 40.765625 -1.421875 27.09375 -1.421875 
Q 22.515625 -1.421875 17.65625 -0.515625 
Q 12.796875 0.390625 7.625 2.203125 
L 7.625 11.71875 
Q 11.71875 9.328125 16.59375 8.109375 
Q 21.484375 6.890625 26.8125 6.890625 
Q 36.078125 6.890625 40.9375 10.546875 
Q 45.796875 14.203125 45.796875 21.1875 
Q 45.796875 27.640625 41.28125 31.265625 
Q 36.765625 34.90625 28.71875 34.90625 
L 20.21875 34.90625 
L 20.21875 43.015625 
L 29.109375 43.015625 
Q 36.375 43.015625 40.234375 45.921875 
Q 44.09375 48.828125 44.09375 54.296875 
Q 44.09375 59.90625 40.109375 62.90625 
Q 36.140625 65.921875 28.71875 65.921875 
Q 24.65625 65.921875 20.015625 65.03125 
Q 15.375 64.15625 9.8125 62.3125 
L 9.8125 71.09375 
Q 15.4375 72.65625 20.34375 73.4375 
Q 25.25 74.21875 29.59375 74.21875 
Q 40.828125 74.21875 47.359375 69.109375 
Q 53.90625 64.015625 53.90625 55.328125 
Q 53.90625 49.265625 50.4375 45.09375 
Q 46.96875 40.921875 40.578125 39.3125 
z
" id="DejaVuSans-51"/>
      </defs>
      <g transform="translate(63.747344 241.285622)scale(0.1 -0.1)">
       <use xlink:href="#DejaVuSans-51"/>
       <use x="63.623047" xlink:href="#DejaVuSans-48"/>
      </g>
     </g>
    </g>
    <g id="ytick_5">
     <g id="line2d_11">
      <g>
       <use style="stroke:#000000;stroke-width:0.8;" x="83.472344" xlink:href="#m4cbf359292" y="199.257148"/>
      </g>
     </g>
     <g id="text_11">
      <!-- 40 -->
      <defs>
       <path d="M 37.796875 64.3125 
L 12.890625 25.390625 
L 37.796875 25.390625 
z
M 35.203125 72.90625 
L 47.609375 72.90625 
L 47.609375 25.390625 
L 58.015625 25.390625 
L 58.015625 17.1875 
L 47.609375 17.1875 
L 47.609375 0 
L 37.796875 0 
L 37.796875 17.1875 
L 4.890625 17.1875 
L 4.890625 26.703125 
z
" id="DejaVuSans-52"/>
      </defs>
      <g transform="translate(63.747344 203.056367)scale(0.1 -0.1)">
       <use xlink:href="#DejaVuSans-52"/>
       <use x="63.623047" xlink:href="#DejaVuSans-48"/>
      </g>
     </g>
    </g>
    <g id="ytick_6">
     <g id="line2d_12">
      <g>
       <use style="stroke:#000000;stroke-width:0.8;" x="83.472344" xlink:href="#m4cbf359292" y="161.027894"/>
      </g>
     </g>
     <g id="text_12">
      <!-- 50 -->
      <g transform="translate(63.747344 164.827113)scale(0.1 -0.1)">
       <use xlink:href="#DejaVuSans-53"/>
       <use x="63.623047" xlink:href="#DejaVuSans-48"/>
      </g>
     </g>
    </g>
    <g id="ytick_7">
     <g id="line2d_13">
      <g>
       <use style="stroke:#000000;stroke-width:0.8;" x="83.472344" xlink:href="#m4cbf359292" y="122.798639"/>
      </g>
     </g>
     <g id="text_13">
      <!-- 60 -->
      <defs>
       <path d="M 33.015625 40.375 
Q 26.375 40.375 22.484375 35.828125 
Q 18.609375 31.296875 18.609375 23.390625 
Q 18.609375 15.53125 22.484375 10.953125 
Q 26.375 6.390625 33.015625 6.390625 
Q 39.65625 6.390625 43.53125 10.953125 
Q 47.40625 15.53125 47.40625 23.390625 
Q 47.40625 31.296875 43.53125 35.828125 
Q 39.65625 40.375 33.015625 40.375 
z
M 52.59375 71.296875 
L 52.59375 62.3125 
Q 48.875 64.0625 45.09375 64.984375 
Q 41.3125 65.921875 37.59375 65.921875 
Q 27.828125 65.921875 22.671875 59.328125 
Q 17.53125 52.734375 16.796875 39.40625 
Q 19.671875 43.65625 24.015625 45.921875 
Q 28.375 48.1875 33.59375 48.1875 
Q 44.578125 48.1875 50.953125 41.515625 
Q 57.328125 34.859375 57.328125 23.390625 
Q 57.328125 12.15625 50.6875 5.359375 
Q 44.046875 -1.421875 33.015625 -1.421875 
Q 20.359375 -1.421875 13.671875 8.265625 
Q 6.984375 17.96875 6.984375 36.375 
Q 6.984375 53.65625 15.1875 63.9375 
Q 23.390625 74.21875 37.203125 74.21875 
Q 40.921875 74.21875 44.703125 73.484375 
Q 48.484375 72.75 52.59375 71.296875 
z
" id="DejaVuSans-54"/>
      </defs>
      <g transform="translate(63.747344 126.597858)scale(0.1 -0.1)">
       <use xlink:href="#DejaVuSans-54"/>
       <use x="63.623047" xlink:href="#DejaVuSans-48"/>
      </g>
     </g>
    </g>
    <g id="ytick_8">
     <g id="line2d_14">
      <g>
       <use style="stroke:#000000;stroke-width:0.8;" x="83.472344" xlink:href="#m4cbf359292" y="84.569385"/>
      </g>
     </g>
     <g id="text_14">
      <!-- 70 -->
      <defs>
       <path d="M 8.203125 72.90625 
L 55.078125 72.90625 
L 55.078125 68.703125 
L 28.609375 0 
L 18.3125 0 
L 43.21875 64.59375 
L 8.203125 64.59375 
z
" id="DejaVuSans-55"/>
      </defs>
      <g transform="translate(63.747344 88.368603)scale(0.1 -0.1)">
       <use xlink:href="#DejaVuSans-55"/>
       <use x="63.623047" xlink:href="#DejaVuSans-48"/>
      </g>
     </g>
    </g>
    <g id="ytick_9">
     <g id="line2d_15">
      <g>
       <use style="stroke:#000000;stroke-width:0.8;" x="83.472344" xlink:href="#m4cbf359292" y="46.34013"/>
      </g>
     </g>
     <g id="text_15">
      <!-- 80 -->
      <defs>
       <path d="M 31.78125 34.625 
Q 24.75 34.625 20.71875 30.859375 
Q 16.703125 27.09375 16.703125 20.515625 
Q 16.703125 13.921875 20.71875 10.15625 
Q 24.75 6.390625 31.78125 6.390625 
Q 38.8125 6.390625 42.859375 10.171875 
Q 46.921875 13.96875 46.921875 20.515625 
Q 46.921875 27.09375 42.890625 30.859375 
Q 38.875 34.625 31.78125 34.625 
z
M 21.921875 38.8125 
Q 15.578125 40.375 12.03125 44.71875 
Q 8.5 49.078125 8.5 55.328125 
Q 8.5 64.0625 14.71875 69.140625 
Q 20.953125 74.21875 31.78125 74.21875 
Q 42.671875 74.21875 48.875 69.140625 
Q 55.078125 64.0625 55.078125 55.328125 
Q 55.078125 49.078125 51.53125 44.71875 
Q 48 40.375 41.703125 38.8125 
Q 48.828125 37.15625 52.796875 32.3125 
Q 56.78125 27.484375 56.78125 20.515625 
Q 56.78125 9.90625 50.3125 4.234375 
Q 43.84375 -1.421875 31.78125 -1.421875 
Q 19.734375 -1.421875 13.25 4.234375 
Q 6.78125 9.90625 6.78125 20.515625 
Q 6.78125 27.484375 10.78125 32.3125 
Q 14.796875 37.15625 21.921875 38.8125 
z
M 18.3125 54.390625 
Q 18.3125 48.734375 21.84375 45.5625 
Q 25.390625 42.390625 31.78125 42.390625 
Q 38.140625 42.390625 41.71875 45.5625 
Q 45.3125 48.734375 45.3125 54.390625 
Q 45.3125 60.0625 41.71875 63.234375 
Q 38.140625 66.40625 31.78125 66.40625 
Q 25.390625 66.40625 21.84375 63.234375 
Q 18.3125 60.0625 18.3125 54.390625 
z
" id="DejaVuSans-56"/>
      </defs>
      <g transform="translate(63.747344 50.139349)scale(0.1 -0.1)">
       <use xlink:href="#DejaVuSans-56"/>
       <use x="63.623047" xlink:href="#DejaVuSans-48"/>
      </g>
     </g>
    </g>
    <g id="text_16">
     <!-- throughput -->
     <defs>
      <path d="M 18.3125 70.21875 
L 18.3125 54.6875 
L 36.8125 54.6875 
L 36.8125 47.703125 
L 18.3125 47.703125 
L 18.3125 18.015625 
Q 18.3125 11.328125 20.140625 9.421875 
Q 21.96875 7.515625 27.59375 7.515625 
L 36.8125 7.515625 
L 36.8125 0 
L 27.59375 0 
Q 17.1875 0 13.234375 3.875 
Q 9.28125 7.765625 9.28125 18.015625 
L 9.28125 47.703125 
L 2.6875 47.703125 
L 2.6875 54.6875 
L 9.28125 54.6875 
L 9.28125 70.21875 
z
" id="DejaVuSans-116"/>
      <path d="M 54.890625 33.015625 
L 54.890625 0 
L 45.90625 0 
L 45.90625 32.71875 
Q 45.90625 40.484375 42.875 44.328125 
Q 39.84375 48.1875 33.796875 48.1875 
Q 26.515625 48.1875 22.3125 43.546875 
Q 18.109375 38.921875 18.109375 30.90625 
L 18.109375 0 
L 9.078125 0 
L 9.078125 75.984375 
L 18.109375 75.984375 
L 18.109375 46.1875 
Q 21.34375 51.125 25.703125 53.5625 
Q 30.078125 56 35.796875 56 
Q 45.21875 56 50.046875 50.171875 
Q 54.890625 44.34375 54.890625 33.015625 
z
" id="DejaVuSans-104"/>
      <path d="M 41.109375 46.296875 
Q 39.59375 47.171875 37.8125 47.578125 
Q 36.03125 48 33.890625 48 
Q 26.265625 48 22.1875 43.046875 
Q 18.109375 38.09375 18.109375 28.8125 
L 18.109375 0 
L 9.078125 0 
L 9.078125 54.6875 
L 18.109375 54.6875 
L 18.109375 46.1875 
Q 20.953125 51.171875 25.484375 53.578125 
Q 30.03125 56 36.53125 56 
Q 37.453125 56 38.578125 55.875 
Q 39.703125 55.765625 41.0625 55.515625 
z
" id="DejaVuSans-114"/>
      <path d="M 30.609375 48.390625 
Q 23.390625 48.390625 19.1875 42.75 
Q 14.984375 37.109375 14.984375 27.296875 
Q 14.984375 17.484375 19.15625 11.84375 
Q 23.34375 6.203125 30.609375 6.203125 
Q 37.796875 6.203125 41.984375 11.859375 
Q 46.1875 17.53125 46.1875 27.296875 
Q 46.1875 37.015625 41.984375 42.703125 
Q 37.796875 48.390625 30.609375 48.390625 
z
M 30.609375 56 
Q 42.328125 56 49.015625 48.375 
Q 55.71875 40.765625 55.71875 27.296875 
Q 55.71875 13.875 49.015625 6.21875 
Q 42.328125 -1.421875 30.609375 -1.421875 
Q 18.84375 -1.421875 12.171875 6.21875 
Q 5.515625 13.875 5.515625 27.296875 
Q 5.515625 40.765625 12.171875 48.375 
Q 18.84375 56 30.609375 56 
z
" id="DejaVuSans-111"/>
      <path d="M 8.5 21.578125 
L 8.5 54.6875 
L 17.484375 54.6875 
L 17.484375 21.921875 
Q 17.484375 14.15625 20.5 10.265625 
Q 23.53125 6.390625 29.59375 6.390625 
Q 36.859375 6.390625 41.078125 11.03125 
Q 45.3125 15.671875 45.3125 23.6875 
L 45.3125 54.6875 
L 54.296875 54.6875 
L 54.296875 0 
L 45.3125 0 
L 45.3125 8.40625 
Q 42.046875 3.421875 37.71875 1 
Q 33.40625 -1.421875 27.6875 -1.421875 
Q 18.265625 -1.421875 13.375 4.4375 
Q 8.5 10.296875 8.5 21.578125 
z
M 31.109375 56 
z
" id="DejaVuSans-117"/>
      <path d="M 45.40625 27.984375 
Q 45.40625 37.75 41.375 43.109375 
Q 37.359375 48.484375 30.078125 48.484375 
Q 22.859375 48.484375 18.828125 43.109375 
Q 14.796875 37.75 14.796875 27.984375 
Q 14.796875 18.265625 18.828125 12.890625 
Q 22.859375 7.515625 30.078125 7.515625 
Q 37.359375 7.515625 41.375 12.890625 
Q 45.40625 18.265625 45.40625 27.984375 
z
M 54.390625 6.78125 
Q 54.390625 -7.171875 48.1875 -13.984375 
Q 42 -20.796875 29.203125 -20.796875 
Q 24.46875 -20.796875 20.265625 -20.09375 
Q 16.0625 -19.390625 12.109375 -17.921875 
L 12.109375 -9.1875 
Q 16.0625 -11.328125 19.921875 -12.34375 
Q 23.78125 -13.375 27.78125 -13.375 
Q 36.625 -13.375 41.015625 -8.765625 
Q 45.40625 -4.15625 45.40625 5.171875 
L 45.40625 9.625 
Q 42.625 4.78125 38.28125 2.390625 
Q 33.9375 0 27.875 0 
Q 17.828125 0 11.671875 7.65625 
Q 5.515625 15.328125 5.515625 27.984375 
Q 5.515625 40.671875 11.671875 48.328125 
Q 17.828125 56 27.875 56 
Q 33.9375 56 38.28125 53.609375 
Q 42.625 51.21875 45.40625 46.390625 
L 45.40625 54.6875 
L 54.390625 54.6875 
z
" id="DejaVuSans-103"/>
      <path d="M 18.109375 8.203125 
L 18.109375 -20.796875 
L 9.078125 -20.796875 
L 9.078125 54.6875 
L 18.109375 54.6875 
L 18.109375 46.390625 
Q 20.953125 51.265625 25.265625 53.625 
Q 29.59375 56 35.59375 56 
Q 45.5625 56 51.78125 48.09375 
Q 58.015625 40.1875 58.015625 27.296875 
Q 58.015625 14.40625 51.78125 6.484375 
Q 45.5625 -1.421875 35.59375 -1.421875 
Q 29.59375 -1.421875 25.265625 0.953125 
Q 20.953125 3.328125 18.109375 8.203125 
z
M 48.6875 27.296875 
Q 48.6875 37.203125 44.609375 42.84375 
Q 40.53125 48.484375 33.40625 48.484375 
Q 26.265625 48.484375 22.1875 42.84375 
Q 18.109375 37.203125 18.109375 27.296875 
Q 18.109375 17.390625 22.1875 11.75 
Q 26.265625 6.109375 33.40625 6.109375 
Q 40.53125 6.109375 44.609375 11.75 
Q 48.6875 17.390625 48.6875 27.296875 
z
" id="DejaVuSans-112"/>
     </defs>
     <g transform="translate(46.469844 221.675365)rotate(-90)scale(0.1 -0.1)">
      <use xlink:href="#DejaVuSans-116"/>
      <use x="39.208984" xlink:href="#DejaVuSans-104"/>
      <use x="102.587891" xlink:href="#DejaVuSans-114"/>
      <use x="143.669922" xlink:href="#DejaVuSans-111"/>
      <use x="204.851562" xlink:href="#DejaVuSans-117"/>
      <use x="268.230469" xlink:href="#DejaVuSans-103"/>
      <use x="331.707031" xlink:href="#DejaVuSans-104"/>
      <use x="395.085938" xlink:href="#DejaVuSans-112"/>
      <use x="458.5625" xlink:href="#DejaVuSans-117"/>
      <use x="521.941406" xlink:href="#DejaVuSans-116"/>
     </g>
     <!-- (mbit / second) -->
     <defs>
      <path d="M 31 75.875 
Q 24.46875 64.65625 21.28125 53.65625 
Q 18.109375 42.671875 18.109375 31.390625 
Q 18.109375 20.125 21.3125 9.0625 
Q 24.515625 -2 31 -13.1875 
L 23.1875 -13.1875 
Q 15.875 -1.703125 12.234375 9.375 
Q 8.59375 20.453125 8.59375 31.390625 
Q 8.59375 42.28125 12.203125 53.3125 
Q 15.828125 64.359375 23.1875 75.875 
z
" id="DejaVuSans-40"/>
      <path d="M 52 44.1875 
Q 55.375 50.25 60.0625 53.125 
Q 64.75 56 71.09375 56 
Q 79.640625 56 84.28125 50.015625 
Q 88.921875 44.046875 88.921875 33.015625 
L 88.921875 0 
L 79.890625 0 
L 79.890625 32.71875 
Q 79.890625 40.578125 77.09375 44.375 
Q 74.3125 48.1875 68.609375 48.1875 
Q 61.625 48.1875 57.5625 43.546875 
Q 53.515625 38.921875 53.515625 30.90625 
L 53.515625 0 
L 44.484375 0 
L 44.484375 32.71875 
Q 44.484375 40.625 41.703125 44.40625 
Q 38.921875 48.1875 33.109375 48.1875 
Q 26.21875 48.1875 22.15625 43.53125 
Q 18.109375 38.875 18.109375 30.90625 
L 18.109375 0 
L 9.078125 0 
L 9.078125 54.6875 
L 18.109375 54.6875 
L 18.109375 46.1875 
Q 21.1875 51.21875 25.484375 53.609375 
Q 29.78125 56 35.6875 56 
Q 41.65625 56 45.828125 52.96875 
Q 50 49.953125 52 44.1875 
z
" id="DejaVuSans-109"/>
      <path d="M 48.6875 27.296875 
Q 48.6875 37.203125 44.609375 42.84375 
Q 40.53125 48.484375 33.40625 48.484375 
Q 26.265625 48.484375 22.1875 42.84375 
Q 18.109375 37.203125 18.109375 27.296875 
Q 18.109375 17.390625 22.1875 11.75 
Q 26.265625 6.109375 33.40625 6.109375 
Q 40.53125 6.109375 44.609375 11.75 
Q 48.6875 17.390625 48.6875 27.296875 
z
M 18.109375 46.390625 
Q 20.953125 51.265625 25.265625 53.625 
Q 29.59375 56 35.59375 56 
Q 45.5625 56 51.78125 48.09375 
Q 58.015625 40.1875 58.015625 27.296875 
Q 58.015625 14.40625 51.78125 6.484375 
Q 45.5625 -1.421875 35.59375 -1.421875 
Q 29.59375 -1.421875 25.265625 0.953125 
Q 20.953125 3.328125 18.109375 8.203125 
L 18.109375 0 
L 9.078125 0 
L 9.078125 75.984375 
L 18.109375 75.984375 
z
" id="DejaVuSans-98"/>
      <path d="M 9.421875 54.6875 
L 18.40625 54.6875 
L 18.40625 0 
L 9.421875 0 
z
M 9.421875 75.984375 
L 18.40625 75.984375 
L 18.40625 64.59375 
L 9.421875 64.59375 
z
" id="DejaVuSans-105"/>
      <path id="DejaVuSans-32"/>
      <path d="M 25.390625 72.90625 
L 33.6875 72.90625 
L 8.296875 -9.28125 
L 0 -9.28125 
z
" id="DejaVuSans-47"/>
      <path d="M 44.28125 53.078125 
L 44.28125 44.578125 
Q 40.484375 46.53125 36.375 47.5 
Q 32.28125 48.484375 27.875 48.484375 
Q 21.1875 48.484375 17.84375 46.4375 
Q 14.5 44.390625 14.5 40.28125 
Q 14.5 37.15625 16.890625 35.375 
Q 19.28125 33.59375 26.515625 31.984375 
L 29.59375 31.296875 
Q 39.15625 29.25 43.1875 25.515625 
Q 47.21875 21.78125 47.21875 15.09375 
Q 47.21875 7.46875 41.1875 3.015625 
Q 35.15625 -1.421875 24.609375 -1.421875 
Q 20.21875 -1.421875 15.453125 -0.5625 
Q 10.6875 0.296875 5.421875 2 
L 5.421875 11.28125 
Q 10.40625 8.6875 15.234375 7.390625 
Q 20.0625 6.109375 24.8125 6.109375 
Q 31.15625 6.109375 34.5625 8.28125 
Q 37.984375 10.453125 37.984375 14.40625 
Q 37.984375 18.0625 35.515625 20.015625 
Q 33.0625 21.96875 24.703125 23.78125 
L 21.578125 24.515625 
Q 13.234375 26.265625 9.515625 29.90625 
Q 5.8125 33.546875 5.8125 39.890625 
Q 5.8125 47.609375 11.28125 51.796875 
Q 16.75 56 26.8125 56 
Q 31.78125 56 36.171875 55.265625 
Q 40.578125 54.546875 44.28125 53.078125 
z
" id="DejaVuSans-115"/>
      <path d="M 56.203125 29.59375 
L 56.203125 25.203125 
L 14.890625 25.203125 
Q 15.484375 15.921875 20.484375 11.0625 
Q 25.484375 6.203125 34.421875 6.203125 
Q 39.59375 6.203125 44.453125 7.46875 
Q 49.3125 8.734375 54.109375 11.28125 
L 54.109375 2.78125 
Q 49.265625 0.734375 44.1875 -0.34375 
Q 39.109375 -1.421875 33.890625 -1.421875 
Q 20.796875 -1.421875 13.15625 6.1875 
Q 5.515625 13.8125 5.515625 26.8125 
Q 5.515625 40.234375 12.765625 48.109375 
Q 20.015625 56 32.328125 56 
Q 43.359375 56 49.78125 48.890625 
Q 56.203125 41.796875 56.203125 29.59375 
z
M 47.21875 32.234375 
Q 47.125 39.59375 43.09375 43.984375 
Q 39.0625 48.390625 32.421875 48.390625 
Q 24.90625 48.390625 20.390625 44.140625 
Q 15.875 39.890625 15.1875 32.171875 
z
" id="DejaVuSans-101"/>
      <path d="M 48.78125 52.59375 
L 48.78125 44.1875 
Q 44.96875 46.296875 41.140625 47.34375 
Q 37.3125 48.390625 33.40625 48.390625 
Q 24.65625 48.390625 19.8125 42.84375 
Q 14.984375 37.3125 14.984375 27.296875 
Q 14.984375 17.28125 19.8125 11.734375 
Q 24.65625 6.203125 33.40625 6.203125 
Q 37.3125 6.203125 41.140625 7.25 
Q 44.96875 8.296875 48.78125 10.40625 
L 48.78125 2.09375 
Q 45.015625 0.34375 40.984375 -0.53125 
Q 36.96875 -1.421875 32.421875 -1.421875 
Q 20.0625 -1.421875 12.78125 6.34375 
Q 5.515625 14.109375 5.515625 27.296875 
Q 5.515625 40.671875 12.859375 48.328125 
Q 20.21875 56 33.015625 56 
Q 37.15625 56 41.109375 55.140625 
Q 45.0625 54.296875 48.78125 52.59375 
z
" id="DejaVuSans-99"/>
      <path d="M 54.890625 33.015625 
L 54.890625 0 
L 45.90625 0 
L 45.90625 32.71875 
Q 45.90625 40.484375 42.875 44.328125 
Q 39.84375 48.1875 33.796875 48.1875 
Q 26.515625 48.1875 22.3125 43.546875 
Q 18.109375 38.921875 18.109375 30.90625 
L 18.109375 0 
L 9.078125 0 
L 9.078125 54.6875 
L 18.109375 54.6875 
L 18.109375 46.1875 
Q 21.34375 51.125 25.703125 53.5625 
Q 30.078125 56 35.796875 56 
Q 45.21875 56 50.046875 50.171875 
Q 54.890625 44.34375 54.890625 33.015625 
z
" id="DejaVuSans-110"/>
      <path d="M 45.40625 46.390625 
L 45.40625 75.984375 
L 54.390625 75.984375 
L 54.390625 0 
L 45.40625 0 
L 45.40625 8.203125 
Q 42.578125 3.328125 38.25 0.953125 
Q 33.9375 -1.421875 27.875 -1.421875 
Q 17.96875 -1.421875 11.734375 6.484375 
Q 5.515625 14.40625 5.515625 27.296875 
Q 5.515625 40.1875 11.734375 48.09375 
Q 17.96875 56 27.875 56 
Q 33.9375 56 38.25 53.625 
Q 42.578125 51.265625 45.40625 46.390625 
z
M 14.796875 27.296875 
Q 14.796875 17.390625 18.875 11.75 
Q 22.953125 6.109375 30.078125 6.109375 
Q 37.203125 6.109375 41.296875 11.75 
Q 45.40625 17.390625 45.40625 27.296875 
Q 45.40625 37.203125 41.296875 42.84375 
Q 37.203125 48.484375 30.078125 48.484375 
Q 22.953125 48.484375 18.875 42.84375 
Q 14.796875 37.203125 14.796875 27.296875 
z
" id="DejaVuSans-100"/>
      <path d="M 8.015625 75.875 
L 15.828125 75.875 
Q 23.140625 64.359375 26.78125 53.3125 
Q 30.421875 42.28125 30.421875 31.390625 
Q 30.421875 20.453125 26.78125 9.375 
Q 23.140625 -1.703125 15.828125 -13.1875 
L 8.015625 -13.1875 
Q 14.5 -2 17.703125 9.0625 
Q 20.90625 20.125 20.90625 31.390625 
Q 20.90625 42.671875 17.703125 53.65625 
Q 14.5 64.65625 8.015625 75.875 
z
" id="DejaVuSans-41"/>
     </defs>
     <g transform="translate(57.667656 231.608958)rotate(-90)scale(0.1 -0.1)">
      <use xlink:href="#DejaVuSans-40"/>
      <use x="39.013672" xlink:href="#DejaVuSans-109"/>
      <use x="136.425781" xlink:href="#DejaVuSans-98"/>
      <use x="199.902344" xlink:href="#DejaVuSans-105"/>
      <use x="227.685547" xlink:href="#DejaVuSans-116"/>
      <use x="266.894531" xlink:href="#DejaVuSans-32"/>
      <use x="298.681641" xlink:href="#DejaVuSans-47"/>
      <use x="332.373047" xlink:href="#DejaVuSans-32"/>
      <use x="364.160156" xlink:href="#DejaVuSans-115"/>
      <use x="416.259766" xlink:href="#DejaVuSans-101"/>
      <use x="477.783203" xlink:href="#DejaVuSans-99"/>
      <use x="532.763672" xlink:href="#DejaVuSans-111"/>
      <use x="593.945312" xlink:href="#DejaVuSans-110"/>
      <use x="657.324219" xlink:href="#DejaVuSans-100"/>
      <use x="720.800781" xlink:href="#DejaVuSans-41"/>
     </g>
    </g>
   </g>
   <g id="line2d_16">
    <path clip-path="url(#pf4d1e9819b)" d="M 101.87657 118.975714 
L 102.54315 50.163056 
L 103.876312 50.163056 
L 104.542892 149.559117 
L 105.209473 172.49667 
L 105.876054 172.49667 
L 106.542634 176.319596 
L 107.209215 222.194701 
L 107.875796 287.184434 
L 108.542376 283.361508 
L 109.208957 283.361508 
L 109.875538 302.476136 
L 110.542118 336.882465 
L 111.208699 333.059539 
L 111.87528 344.528316 
L 115.208183 344.528316 
L 115.874764 340.70539 
L 121.87399 340.70539 
L 122.540571 336.882465 
L 123.207151 325.413688 
L 123.873732 317.767838 
L 124.540313 306.299061 
L 125.206893 291.007359 
L 126.540055 252.778105 
L 127.873216 210.725925 
L 128.539797 195.434223 
L 129.206377 187.788372 
L 129.872958 183.965447 
L 130.539539 183.965447 
L 131.206119 187.788372 
L 132.539281 172.49667 
L 133.205861 172.49667 
L 133.872442 138.090341 
L 134.539023 145.736192 
L 135.205603 157.204968 
L 135.872184 164.850819 
L 136.538765 176.319596 
L 138.538507 199.257148 
L 139.205088 203.080074 
L 139.871668 210.725925 
L 143.204572 229.840552 
L 143.871152 229.840552 
L 145.204314 237.486403 
L 145.870894 237.486403 
L 146.537475 241.309328 
L 147.204056 252.778105 
L 147.870636 283.361508 
L 148.537217 256.60103 
L 149.203798 260.423956 
L 149.870378 260.423956 
L 151.20354 268.069807 
L 151.87012 268.069807 
L 152.536701 271.892732 
L 153.203282 271.892732 
L 153.869862 275.715658 
L 155.203024 275.715658 
L 155.869604 279.538583 
L 156.536185 275.715658 
L 157.202766 275.715658 
L 157.869347 279.538583 
L 158.535927 275.715658 
L 160.535669 275.715658 
L 161.20225 310.121987 
L 161.868831 275.715658 
L 162.535411 279.538583 
L 169.867799 279.538583 
L 170.534379 283.361508 
L 174.533863 283.361508 
L 175.200444 317.767838 
L 175.867025 291.007359 
L 176.533606 291.007359 
L 177.866767 283.361508 
L 179.866509 283.361508 
L 180.53309 279.538583 
L 186.532316 279.538583 
L 187.198896 275.715658 
L 187.865477 279.538583 
L 188.532058 310.121987 
L 189.198638 279.538583 
L 189.865219 283.361508 
L 191.19838 283.361508 
L 191.864961 279.538583 
L 193.198122 279.538583 
L 193.864703 275.715658 
L 194.531284 275.715658 
L 195.197864 271.892732 
L 197.197607 271.892732 
L 197.864187 268.069807 
L 199.863929 268.069807 
L 200.53051 264.246881 
L 201.197091 264.246881 
L 201.863671 260.423956 
L 202.530252 317.767838 
L 203.196833 294.830285 
L 203.863413 298.65321 
L 205.196575 291.007359 
L 205.863155 291.007359 
L 206.529736 287.184434 
L 208.529478 287.184434 
L 209.196059 283.361508 
L 210.52922 283.361508 
L 211.195801 279.538583 
L 215.195285 279.538583 
L 215.861865 298.65321 
L 216.528446 252.778105 
L 217.195027 248.955179 
L 219.86135 264.246881 
L 220.52793 264.246881 
L 221.194511 268.069807 
L 221.861092 268.069807 
L 222.527672 271.892732 
L 225.193995 271.892732 
L 225.860576 275.715658 
L 226.527156 271.892732 
L 227.193737 275.715658 
L 228.526898 275.715658 
L 229.193479 268.069807 
L 229.86006 306.299061 
L 230.52664 275.715658 
L 231.193221 279.538583 
L 235.192705 279.538583 
L 235.859286 275.715658 
L 237.859028 275.715658 
L 238.525609 279.538583 
L 239.192189 275.715658 
L 239.85877 279.538583 
L 240.525351 279.538583 
L 241.191931 283.361508 
L 242.525093 283.361508 
L 243.191673 306.299061 
L 243.858254 291.007359 
L 245.191415 291.007359 
L 245.857996 287.184434 
L 255.856706 287.184434 
L 256.523287 283.361508 
L 257.189867 313.944912 
L 257.856448 291.007359 
L 258.523029 294.830285 
L 259.18961 291.007359 
L 259.85619 291.007359 
L 260.522771 287.184434 
L 263.189094 287.184434 
L 263.855674 291.007359 
L 264.522255 287.184434 
L 265.188836 291.007359 
L 269.18832 291.007359 
L 269.8549 287.184434 
L 270.521481 306.299061 
L 271.188062 287.184434 
L 271.854642 287.184434 
L 272.521223 283.361508 
L 273.187804 283.361508 
L 273.854384 287.184434 
L 274.520965 283.361508 
L 276.520707 283.361508 
L 277.187288 279.538583 
L 277.853869 283.361508 
L 278.520449 279.538583 
L 282.519933 279.538583 
L 283.853095 271.892732 
L 284.519675 313.944912 
L 285.186256 291.007359 
L 285.852837 291.007359 
L 287.185998 283.361508 
L 287.852579 283.361508 
L 288.519159 279.538583 
L 289.18574 279.538583 
L 289.852321 275.715658 
L 290.518901 275.715658 
L 291.185482 271.892732 
L 297.184708 271.892732 
L 297.851289 298.65321 
L 298.51787 291.007359 
L 300.517612 291.007359 
L 301.184192 287.184434 
L 301.850773 291.007359 
L 303.850515 291.007359 
L 304.517096 287.184434 
L 306.516838 287.184434 
L 307.183418 283.361508 
L 309.18316 283.361508 
L 309.849741 279.538583 
L 310.516322 279.538583 
L 311.182902 275.715658 
L 311.849483 306.299061 
L 312.516064 275.715658 
L 313.182644 275.715658 
L 313.849225 279.538583 
L 315.848967 279.538583 
L 316.515548 283.361508 
L 318.51529 283.361508 
L 319.181871 287.184434 
L 321.848193 287.184434 
L 322.514774 283.361508 
L 323.181355 287.184434 
L 323.847935 287.184434 
L 324.514516 283.361508 
L 325.181097 306.299061 
L 325.847677 298.65321 
L 326.514258 294.830285 
L 327.180839 294.830285 
L 329.847161 279.538583 
L 330.513742 279.538583 
L 331.180323 275.715658 
L 331.846903 275.715658 
L 332.513484 271.892732 
L 333.846645 271.892732 
L 334.513226 275.715658 
L 337.846129 275.715658 
L 338.51271 271.892732 
L 339.179291 313.944912 
L 339.845872 291.007359 
L 340.512452 291.007359 
L 343.178775 275.715658 
L 343.845356 275.715658 
L 344.511936 271.892732 
L 345.178517 271.892732 
L 345.845098 268.069807 
L 347.178259 268.069807 
L 347.84484 264.246881 
L 348.51142 268.069807 
L 349.844582 268.069807 
L 350.511162 264.246881 
L 351.177743 268.069807 
L 351.844324 268.069807 
L 352.510904 294.830285 
L 353.177485 279.538583 
L 354.510646 279.538583 
L 355.177227 283.361508 
L 363.842776 283.361508 
L 364.509357 287.184434 
L 365.175937 283.361508 
L 365.842518 283.361508 
L 366.509099 310.121987 
L 367.175679 283.361508 
L 367.84226 287.184434 
L 369.842002 287.184434 
L 370.508583 283.361508 
L 373.841486 283.361508 
L 374.508067 279.538583 
L 376.507809 279.538583 
L 377.174389 275.715658 
L 379.174132 275.715658 
L 379.840712 294.830285 
L 380.507293 256.60103 
L 381.173874 248.955179 
L 383.173616 260.423956 
L 383.840196 260.423956 
L 384.506777 264.246881 
L 385.173358 264.246881 
L 385.839938 268.069807 
L 386.506519 268.069807 
L 387.1731 271.892732 
L 387.83968 271.892732 
L 388.506261 275.715658 
L 390.506003 275.715658 
L 391.172584 279.538583 
L 393.172326 279.538583 
L 393.838906 302.476136 
L 394.505487 275.715658 
L 401.171294 275.715658 
L 401.837875 271.892732 
L 406.503939 271.892732 
L 407.17052 298.65321 
L 407.837101 271.892732 
L 408.503681 268.069807 
L 409.170262 268.069807 
L 409.836843 271.892732 
L 411.170004 271.892732 
L 411.836585 275.715658 
L 412.503165 271.892732 
L 413.169746 275.715658 
L 418.502391 275.715658 
L 419.168972 279.538583 
L 419.835553 275.715658 
L 420.502134 275.715658 
L 421.168714 298.65321 
L 421.835295 260.423956 
L 422.501876 264.246881 
L 423.168456 260.423956 
L 423.835037 264.246881 
L 424.501618 264.246881 
L 425.168198 268.069807 
L 427.16794 268.069807 
L 427.834521 271.892732 
L 431.834005 271.892732 
L 432.500586 275.715658 
L 433.833747 275.715658 
L 434.500328 298.65321 
L 435.833489 283.361508 
L 436.50007 283.361508 
L 437.16665 287.184434 
L 443.165877 287.184434 
L 443.832457 283.361508 
L 445.832199 283.361508 
L 446.49878 279.538583 
L 447.831941 279.538583 
L 448.498522 310.121987 
L 449.165103 287.184434 
L 449.831683 291.007359 
L 450.498264 287.184434 
L 451.164845 291.007359 
L 457.164071 291.007359 
L 457.830651 287.184434 
L 458.497232 287.184434 
L 459.163813 283.361508 
L 461.163555 283.361508 
L 461.830136 298.65321 
L 462.496716 302.476136 
L 463.163297 291.007359 
L 463.829878 291.007359 
L 463.829878 291.007359 
" style="fill:none;stroke:#1f77b4;stroke-linecap:square;stroke-width:1.5;"/>
   </g>
   <g id="line2d_17">
    <path clip-path="url(#pf4d1e9819b)" d="M 107.333199 275.715658 
L 107.99978 168.673745 
L 108.66636 176.319596 
L 109.332941 172.49667 
L 109.999522 195.434223 
L 110.666102 271.892732 
L 111.332683 226.017627 
L 111.999264 195.434223 
L 112.665844 203.080074 
L 113.332425 203.080074 
L 114.665586 210.725925 
L 115.332167 203.080074 
L 116.665329 210.725925 
L 117.99849 210.725925 
L 118.665071 214.54885 
L 119.998232 214.54885 
L 120.664813 302.476136 
L 121.331393 279.538583 
L 121.997974 279.538583 
L 123.331135 287.184434 
L 123.997716 287.184434 
L 125.330877 294.830285 
L 125.997458 302.476136 
L 128.663781 317.767838 
L 130.663523 317.767838 
L 131.330103 313.944912 
L 131.996684 317.767838 
L 133.329845 317.767838 
L 133.996426 329.236614 
L 134.663007 329.236614 
L 135.329587 321.590763 
L 135.996168 321.590763 
L 136.662749 317.767838 
L 137.32933 317.767838 
L 137.99591 313.944912 
L 138.662491 313.944912 
L 139.995652 306.299061 
L 140.662233 306.299061 
L 143.328556 291.007359 
L 146.661459 291.007359 
L 147.32804 287.184434 
L 147.99462 302.476136 
L 148.661201 264.246881 
L 150.660943 264.246881 
L 151.327524 268.069807 
L 151.994104 268.069807 
L 152.660685 271.892732 
L 153.327266 268.069807 
L 153.993846 271.892732 
L 159.326492 271.892732 
L 159.993073 275.715658 
L 160.659653 275.715658 
L 161.326234 298.65321 
L 161.992815 294.830285 
L 162.659395 283.361508 
L 163.325976 287.184434 
L 163.992557 283.361508 
L 164.659137 283.361508 
L 165.325718 279.538583 
L 169.325202 279.538583 
L 169.991783 275.715658 
L 173.991267 275.715658 
L 174.657847 271.892732 
L 175.324428 313.944912 
L 175.991009 287.184434 
L 176.65759 283.361508 
L 177.990751 283.361508 
L 179.323912 275.715658 
L 179.990493 275.715658 
L 180.657074 271.892732 
L 181.323654 271.892732 
L 181.990235 268.069807 
L 187.989461 268.069807 
L 188.656042 294.830285 
L 189.322622 298.65321 
L 189.989203 287.184434 
L 190.655784 283.361508 
L 193.322106 283.361508 
L 193.988687 279.538583 
L 201.321075 279.538583 
L 201.987655 268.069807 
L 202.654236 310.121987 
L 203.320817 298.65321 
L 203.987397 291.007359 
L 205.320559 291.007359 
L 205.987139 287.184434 
L 207.320301 287.184434 
L 207.986881 283.361508 
L 210.653204 283.361508 
L 211.319785 279.538583 
L 211.986365 283.361508 
L 212.652946 279.538583 
L 215.319269 279.538583 
L 215.985849 298.65321 
L 216.65243 298.65321 
L 217.319011 283.361508 
L 218.652172 283.361508 
L 219.318753 279.538583 
L 225.98456 279.538583 
L 226.65114 275.715658 
L 227.317721 279.538583 
L 227.984302 275.715658 
L 228.650882 275.715658 
L 229.317463 271.892732 
L 229.984044 313.944912 
L 230.650624 287.184434 
L 231.317205 279.538583 
L 231.983786 283.361508 
L 232.650366 279.538583 
L 233.316947 283.361508 
L 242.649077 283.361508 
L 243.315657 294.830285 
L 243.982238 287.184434 
L 244.648819 271.892732 
L 246.648561 271.892732 
L 247.315141 275.715658 
L 247.981722 271.892732 
L 255.98069 271.892732 
L 256.647271 268.069807 
L 257.313852 291.007359 
L 257.980432 268.069807 
L 259.313594 268.069807 
L 259.980174 271.892732 
L 260.646755 268.069807 
L 262.646497 268.069807 
L 263.313078 264.246881 
L 269.312304 264.246881 
L 269.978884 268.069807 
L 270.645465 279.538583 
L 271.312046 298.65321 
L 271.978626 283.361508 
L 272.645207 279.538583 
L 283.310498 279.538583 
L 283.977079 275.715658 
L 284.643659 313.944912 
L 285.31024 298.65321 
L 286.643401 291.007359 
L 287.976563 291.007359 
L 288.643143 287.184434 
L 289.976305 287.184434 
L 290.642885 283.361508 
L 292.642627 283.361508 
L 293.309208 279.538583 
L 297.308692 279.538583 
L 298.641854 294.830285 
L 299.308434 271.892732 
L 303.307918 271.892732 
L 303.974499 268.069807 
L 304.64108 271.892732 
L 309.973725 271.892732 
L 310.640306 275.715658 
L 311.306886 271.892732 
L 311.973467 313.944912 
L 312.640048 291.007359 
L 313.306628 287.184434 
L 313.973209 287.184434 
L 314.63979 283.361508 
L 315.972951 283.361508 
L 317.306112 275.715658 
L 318.639274 275.715658 
L 319.305855 271.892732 
L 321.305597 271.892732 
L 321.972177 268.069807 
L 322.638758 271.892732 
L 323.305339 268.069807 
L 323.971919 271.892732 
L 324.6385 271.892732 
L 325.305081 264.246881 
L 325.971661 287.184434 
L 326.638242 268.069807 
L 327.971403 275.715658 
L 328.637984 275.715658 
L 329.304565 279.538583 
L 330.637726 279.538583 
L 331.304307 283.361508 
L 332.637468 283.361508 
L 333.304049 279.538583 
L 338.636694 279.538583 
L 339.303275 306.299061 
L 339.969856 291.007359 
L 340.636436 283.361508 
L 349.968566 283.361508 
L 350.635146 287.184434 
L 352.634888 287.184434 
L 353.301469 306.299061 
L 353.96805 287.184434 
L 356.634372 287.184434 
L 357.300953 283.361508 
L 357.967534 287.184434 
L 359.300695 287.184434 
L 359.967276 283.361508 
L 360.633857 287.184434 
L 365.966502 287.184434 
L 366.633083 310.121987 
L 367.299663 291.007359 
L 368.632825 283.361508 
L 369.299405 283.361508 
L 369.965986 279.538583 
L 371.299147 279.538583 
L 371.965728 275.715658 
L 372.632309 275.715658 
L 373.298889 271.892732 
L 376.631793 271.892732 
L 377.298373 275.715658 
L 379.298116 275.715658 
L 379.964696 287.184434 
L 380.631277 306.299061 
L 381.297858 287.184434 
L 381.964438 283.361508 
L 382.631019 283.361508 
L 383.2976 279.538583 
L 383.96418 279.538583 
L 384.630761 275.715658 
L 385.297342 275.715658 
L 385.963922 271.892732 
L 389.296826 271.892732 
L 389.963406 268.069807 
L 390.629987 271.892732 
L 393.29631 271.892732 
L 393.96289 306.299061 
L 394.629471 283.361508 
L 406.627923 283.361508 
L 407.294504 291.007359 
L 407.961085 310.121987 
L 408.627665 291.007359 
L 410.627407 279.538583 
L 411.293988 279.538583 
L 411.960569 275.715658 
L 412.627149 279.538583 
L 413.29373 275.715658 
L 413.960311 279.538583 
L 415.293472 279.538583 
L 415.960053 275.715658 
L 420.626118 275.715658 
L 421.292698 310.121987 
L 421.959279 294.830285 
L 422.62586 287.184434 
L 423.29244 287.184434 
L 423.959021 283.361508 
L 424.625602 283.361508 
L 425.292182 279.538583 
L 427.291924 279.538583 
L 427.958505 275.715658 
L 428.625086 279.538583 
L 429.291666 275.715658 
L 429.958247 275.715658 
L 430.624828 279.538583 
L 431.291408 275.715658 
L 431.957989 279.538583 
L 432.62457 275.715658 
L 433.29115 279.538583 
L 433.957731 275.715658 
L 434.624312 283.361508 
L 435.290892 310.121987 
L 435.957473 287.184434 
L 436.624054 283.361508 
L 444.623022 283.361508 
L 445.289603 287.184434 
L 447.955925 287.184434 
L 448.622506 313.944912 
L 449.289087 294.830285 
L 449.955667 287.184434 
L 450.622248 287.184434 
L 453.288571 271.892732 
L 454.621732 271.892732 
L 455.288313 268.069807 
L 458.621216 268.069807 
L 459.287797 271.892732 
L 461.287539 271.892732 
L 461.95412 279.538583 
L 462.6207 306.299061 
L 463.287281 291.007359 
L 463.953862 287.184434 
L 466.620184 287.184434 
L 466.620184 287.184434 
" style="fill:none;stroke:#ff7f0e;stroke-linecap:square;stroke-width:1.5;"/>
   </g>
   <g id="line2d_18">
    <path clip-path="url(#pf4d1e9819b)" d="M 110.007521 298.65321 
L 110.674101 168.673745 
L 111.340682 210.725925 
L 112.007263 229.840552 
L 112.673843 218.371776 
L 113.340424 214.54885 
L 114.007005 218.371776 
L 114.673585 214.54885 
L 116.006747 222.194701 
L 116.673327 214.54885 
L 118.67307 214.54885 
L 120.006231 222.194701 
L 120.672812 149.559117 
L 122.005973 180.142521 
L 122.672554 187.788372 
L 123.339134 203.080074 
L 124.005715 214.54885 
L 124.672296 229.840552 
L 125.338876 241.309328 
L 126.005457 256.60103 
L 126.672038 268.069807 
L 127.338618 283.361508 
L 128.005199 291.007359 
L 128.67178 302.476136 
L 129.33836 310.121987 
L 130.004941 310.121987 
L 130.671522 313.944912 
L 131.338102 313.944912 
L 132.004683 317.767838 
L 132.671264 325.413688 
L 133.337844 317.767838 
L 134.004425 333.059539 
L 134.671006 329.236614 
L 135.337586 329.236614 
L 136.004167 321.590763 
L 136.670748 317.767838 
L 138.003909 302.476136 
L 139.337071 294.830285 
L 140.670232 294.830285 
L 141.336813 291.007359 
L 142.003393 291.007359 
L 142.669974 294.830285 
L 147.336039 294.830285 
L 148.002619 317.767838 
L 148.6692 298.65321 
L 150.002361 291.007359 
L 151.335523 291.007359 
L 152.002103 287.184434 
L 153.335265 287.184434 
L 154.001845 283.361508 
L 154.668426 283.361508 
L 155.335007 279.538583 
L 156.001587 279.538583 
L 156.668168 283.361508 
L 158.00133 283.361508 
L 158.66791 279.538583 
L 159.334491 283.361508 
L 160.001072 279.538583 
L 160.667652 283.361508 
L 161.334233 310.121987 
L 162.000814 287.184434 
L 162.667394 283.361508 
L 166.000298 283.361508 
L 166.666878 279.538583 
L 167.333459 283.361508 
L 173.332685 283.361508 
L 173.999266 279.538583 
L 174.665846 279.538583 
L 175.332427 302.476136 
L 175.999008 264.246881 
L 177.332169 271.892732 
L 177.99875 271.892732 
L 178.665331 275.715658 
L 179.998492 275.715658 
L 180.665073 279.538583 
L 183.997976 279.538583 
L 184.664557 283.361508 
L 185.997718 283.361508 
L 186.664299 279.538583 
L 187.330879 283.361508 
L 187.99746 283.361508 
L 188.664041 252.778105 
L 189.330621 237.486403 
L 190.663783 252.778105 
L 191.330363 252.778105 
L 191.996944 256.60103 
L 192.663525 256.60103 
L 195.329847 271.892732 
L 195.996428 271.892732 
L 196.663009 279.538583 
L 198.662751 279.538583 
L 199.329332 283.361508 
L 201.329074 283.361508 
L 201.995654 310.121987 
L 202.662235 237.486403 
L 203.328816 222.194701 
L 203.995396 229.840552 
L 204.661977 233.663477 
L 205.328558 241.309328 
L 207.3283 252.778105 
L 207.99488 252.778105 
L 209.994622 264.246881 
L 210.661203 264.246881 
L 211.327784 268.069807 
L 212.660945 268.069807 
L 213.327526 271.892732 
L 215.327268 271.892732 
L 215.993848 306.299061 
L 216.660429 275.715658 
L 217.32701 279.538583 
L 228.658881 279.538583 
L 229.325462 302.476136 
L 229.992043 279.538583 
L 230.658623 268.069807 
L 231.325204 268.069807 
L 231.991785 271.892732 
L 235.324688 271.892732 
L 235.991269 275.715658 
L 237.991011 275.715658 
L 238.657591 271.892732 
L 241.990495 271.892732 
L 242.657076 268.069807 
L 243.323656 306.299061 
L 243.990237 264.246881 
L 244.656818 271.892732 
L 248.656302 271.892732 
L 249.322882 275.715658 
L 251.989205 275.715658 
L 252.655786 279.538583 
L 255.988689 279.538583 
L 256.65527 294.830285 
L 257.32185 275.715658 
L 258.655012 268.069807 
L 259.321593 268.069807 
L 259.988173 271.892732 
L 261.321335 271.892732 
L 261.987915 275.715658 
L 263.987657 275.715658 
L 264.654238 279.538583 
L 269.986883 279.538583 
L 270.653464 302.476136 
L 271.320045 245.132254 
L 271.986625 252.778105 
L 272.653206 252.778105 
L 274.652948 264.246881 
L 275.986109 264.246881 
L 276.65269 268.069807 
L 277.985851 268.069807 
L 278.652432 271.892732 
L 282.651916 271.892732 
L 283.318497 275.715658 
L 283.985078 291.007359 
L 284.651658 256.60103 
L 285.318239 237.486403 
L 285.98482 245.132254 
L 290.650884 271.892732 
L 291.317465 271.892732 
L 291.984046 275.715658 
L 292.650626 275.715658 
L 293.317207 279.538583 
L 295.98353 279.538583 
L 296.65011 283.361508 
L 297.316691 279.538583 
L 297.983272 310.121987 
L 298.649852 264.246881 
L 299.316433 271.892732 
L 299.983014 271.892732 
L 300.649595 275.715658 
L 303.315917 275.715658 
L 303.982498 279.538583 
L 305.315659 279.538583 
L 305.98224 283.361508 
L 310.648305 283.361508 
L 311.314885 294.830285 
L 311.981466 287.184434 
L 312.648047 264.246881 
L 313.314627 264.246881 
L 313.981208 268.069807 
L 314.647789 268.069807 
L 315.314369 271.892732 
L 315.98095 271.892732 
L 316.647531 275.715658 
L 317.314111 275.715658 
L 317.980692 279.538583 
L 323.979918 279.538583 
L 324.646499 283.361508 
L 325.31308 310.121987 
L 325.97966 241.309328 
L 326.646241 248.955179 
L 327.312822 248.955179 
L 327.979402 252.778105 
L 328.645983 252.778105 
L 329.979144 260.423956 
L 331.312306 260.423956 
L 331.978886 264.246881 
L 332.645467 264.246881 
L 333.312048 268.069807 
L 337.978112 268.069807 
L 338.644693 279.538583 
L 339.311274 271.892732 
L 339.977855 248.955179 
L 340.644435 248.955179 
L 343.310758 264.246881 
L 343.977339 264.246881 
L 344.643919 268.069807 
L 345.3105 268.069807 
L 345.977081 271.892732 
L 350.643145 271.892732 
L 351.309726 268.069807 
L 351.976307 268.069807 
L 352.642887 302.476136 
L 353.309468 233.663477 
L 353.976049 245.132254 
L 357.975533 268.069807 
L 359.308694 268.069807 
L 359.975275 271.892732 
L 361.975017 271.892732 
L 362.641598 275.715658 
L 364.64134 275.715658 
L 365.30792 279.538583 
L 366.641082 294.830285 
L 367.307662 271.892732 
L 367.974243 275.715658 
L 371.307146 275.715658 
L 371.973727 279.538583 
L 372.640308 275.715658 
L 373.306888 279.538583 
L 373.973469 275.715658 
L 374.64005 279.538583 
L 375.30663 279.538583 
L 375.973211 275.715658 
L 376.639792 279.538583 
L 377.306372 279.538583 
L 377.972953 275.715658 
L 379.306114 275.715658 
L 379.972695 313.944912 
L 380.639276 275.715658 
L 381.305857 283.361508 
L 381.972437 279.538583 
L 382.639018 283.361508 
L 392.637728 283.361508 
L 393.304309 287.184434 
L 393.970889 298.65321 
L 394.63747 275.715658 
L 400.636696 275.715658 
L 401.303277 279.538583 
L 403.303019 279.538583 
L 403.9696 283.361508 
L 404.63618 283.361508 
L 405.302761 279.538583 
L 406.635922 279.538583 
L 407.302503 313.944912 
L 407.969084 287.184434 
L 408.635664 291.007359 
L 410.635406 291.007359 
L 411.301987 287.184434 
L 412.635148 287.184434 
L 413.301729 283.361508 
L 415.301471 283.361508 
L 415.968052 279.538583 
L 416.634632 283.361508 
L 417.301213 283.361508 
L 417.967794 279.538583 
L 420.634117 279.538583 
L 421.300697 310.121987 
L 421.967278 283.361508 
L 422.633859 287.184434 
L 425.966762 287.184434 
L 426.633343 283.361508 
L 429.966246 283.361508 
L 430.632827 279.538583 
L 433.96573 279.538583 
L 434.632311 310.121987 
L 435.298891 271.892732 
L 437.298633 271.892732 
L 437.965214 275.715658 
L 439.298375 275.715658 
L 439.964956 271.892732 
L 441.298118 271.892732 
L 441.964698 275.715658 
L 442.631279 271.892732 
L 443.29786 275.715658 
L 445.964182 275.715658 
L 446.630763 279.538583 
L 447.963924 279.538583 
L 448.630505 298.65321 
L 449.297086 260.423956 
L 449.963666 264.246881 
L 451.296828 264.246881 
L 451.963408 268.069807 
L 452.629989 268.069807 
L 453.29657 271.892732 
L 455.296312 271.892732 
L 455.962892 275.715658 
L 461.295538 275.715658 
L 461.962119 310.121987 
L 462.628699 245.132254 
L 463.29528 252.778105 
L 464.628441 260.423956 
L 465.295022 260.423956 
L 466.628183 268.069807 
L 467.294764 268.069807 
L 467.961345 271.892732 
L 469.961087 271.892732 
L 469.961087 271.892732 
" style="fill:none;stroke:#2ca02c;stroke-linecap:square;stroke-width:1.5;"/>
   </g>
   <g id="line2d_19">
    <path clip-path="url(#pf4d1e9819b)" d="M 104.597552 252.778105 
L 105.264133 229.840552 
L 105.930713 233.663477 
L 106.597294 229.840552 
L 107.263875 256.60103 
L 107.930455 298.65321 
L 108.597036 298.65321 
L 109.263617 302.476136 
L 109.930197 310.121987 
L 110.596778 336.882465 
L 111.929939 344.528316 
L 112.59652 352.174167 
L 113.929681 344.528316 
L 117.262585 344.528316 
L 117.929165 348.351241 
L 118.595746 340.70539 
L 119.928908 333.059539 
L 120.595488 325.413688 
L 121.262069 325.413688 
L 121.92865 313.944912 
L 123.928392 291.007359 
L 124.594972 291.007359 
L 125.261553 287.184434 
L 126.594714 287.184434 
L 128.594456 298.65321 
L 129.261037 298.65321 
L 129.927618 302.476136 
L 130.594198 298.65321 
L 131.260779 298.65321 
L 131.92736 302.476136 
L 133.260521 302.476136 
L 133.927102 325.413688 
L 134.593682 310.121987 
L 135.260263 306.299061 
L 135.926844 306.299061 
L 136.593424 302.476136 
L 138.593166 302.476136 
L 139.259747 298.65321 
L 143.259231 298.65321 
L 143.925812 294.830285 
L 144.592393 294.830285 
L 145.258973 291.007359 
L 145.925554 291.007359 
L 146.592135 287.184434 
L 147.258715 287.184434 
L 147.925296 317.767838 
L 148.591877 294.830285 
L 149.258457 294.830285 
L 149.925038 291.007359 
L 150.591619 291.007359 
L 151.258199 287.184434 
L 151.92478 287.184434 
L 152.591361 283.361508 
L 153.924522 283.361508 
L 154.591103 279.538583 
L 155.257683 283.361508 
L 155.924264 279.538583 
L 156.590845 283.361508 
L 157.257425 279.538583 
L 157.924006 283.361508 
L 158.590587 279.538583 
L 159.923748 279.538583 
L 160.590329 283.361508 
L 161.25691 310.121987 
L 161.92349 256.60103 
L 162.590071 264.246881 
L 163.256652 264.246881 
L 163.923232 268.069807 
L 164.589813 268.069807 
L 165.256394 271.892732 
L 174.588523 271.892732 
L 175.255104 306.299061 
L 175.921684 271.892732 
L 176.588265 271.892732 
L 177.254846 275.715658 
L 178.588007 275.715658 
L 179.254588 279.538583 
L 181.25433 279.538583 
L 181.920911 283.361508 
L 187.920137 283.361508 
L 188.586717 313.944912 
L 189.253298 298.65321 
L 189.919879 298.65321 
L 190.586459 294.830285 
L 192.586201 294.830285 
L 193.252782 291.007359 
L 194.585943 291.007359 
L 195.252524 287.184434 
L 201.25175 287.184434 
L 201.918331 279.538583 
L 202.584912 313.944912 
L 203.251492 291.007359 
L 203.918073 294.830285 
L 204.584654 291.007359 
L 206.584396 291.007359 
L 207.250976 287.184434 
L 207.917557 287.184434 
L 208.584138 283.361508 
L 215.249944 283.361508 
L 215.916525 306.299061 
L 216.583106 298.65321 
L 217.249686 302.476136 
L 219.249428 291.007359 
L 219.916009 291.007359 
L 220.58259 287.184434 
L 221.915751 287.184434 
L 222.582332 283.361508 
L 228.581558 283.361508 
L 229.248139 275.715658 
L 229.914719 306.299061 
L 230.5813 279.538583 
L 231.247881 283.361508 
L 231.914461 279.538583 
L 238.580268 279.538583 
L 239.246849 275.715658 
L 239.913429 279.538583 
L 240.58001 275.715658 
L 242.579752 275.715658 
L 243.246333 302.476136 
L 243.912914 283.361508 
L 245.246075 283.361508 
L 245.912656 279.538583 
L 251.245301 279.538583 
L 251.911882 275.715658 
L 252.578462 279.538583 
L 253.245043 275.715658 
L 255.911366 275.715658 
L 256.577946 271.892732 
L 257.244527 313.944912 
L 257.911108 287.184434 
L 258.577688 283.361508 
L 265.910076 283.361508 
L 266.576657 279.538583 
L 269.242979 279.538583 
L 269.90956 275.715658 
L 270.576141 306.299061 
L 271.242721 291.007359 
L 271.909302 291.007359 
L 272.575883 294.830285 
L 273.909044 287.184434 
L 275.242205 287.184434 
L 275.908786 283.361508 
L 283.241174 283.361508 
L 283.907754 279.538583 
L 284.574335 313.944912 
L 285.240916 287.184434 
L 287.240658 287.184434 
L 287.907238 283.361508 
L 291.906722 283.361508 
L 292.573303 279.538583 
L 293.239884 283.361508 
L 293.906464 279.538583 
L 295.906206 279.538583 
L 296.572787 275.715658 
L 297.239368 279.538583 
L 297.905948 302.476136 
L 298.572529 279.538583 
L 300.572271 279.538583 
L 301.238852 275.715658 
L 304.571755 275.715658 
L 305.238336 271.892732 
L 305.904917 271.892732 
L 306.571497 275.715658 
L 307.904659 275.715658 
L 308.571239 271.892732 
L 309.23782 275.715658 
L 310.570981 275.715658 
L 311.237562 271.892732 
L 311.904143 310.121987 
L 312.570723 283.361508 
L 313.903885 283.361508 
L 314.570465 279.538583 
L 315.237046 279.538583 
L 315.903627 275.715658 
L 316.570207 279.538583 
L 317.236788 275.715658 
L 324.569176 275.715658 
L 325.235756 302.476136 
L 325.902337 302.476136 
L 326.568918 298.65321 
L 327.235498 302.476136 
L 328.56866 294.830285 
L 332.568144 294.830285 
L 333.234724 291.007359 
L 337.900789 291.007359 
L 338.56737 287.184434 
L 339.23395 313.944912 
L 339.900531 283.361508 
L 340.567112 287.184434 
L 345.899757 287.184434 
L 346.566338 291.007359 
L 347.232919 287.184434 
L 347.899499 291.007359 
L 351.898983 291.007359 
L 352.565564 310.121987 
L 354.565306 298.65321 
L 355.231887 291.007359 
L 355.898467 291.007359 
L 356.565048 283.361508 
L 357.231629 283.361508 
L 357.898209 275.715658 
L 359.231371 275.715658 
L 359.897951 271.892732 
L 361.897694 271.892732 
L 362.564274 268.069807 
L 363.230855 268.069807 
L 363.897436 264.246881 
L 364.564016 264.246881 
L 365.230597 260.423956 
L 365.897178 260.423956 
L 366.563758 298.65321 
L 367.230339 264.246881 
L 367.89692 264.246881 
L 368.5635 268.069807 
L 369.230081 268.069807 
L 369.896662 271.892732 
L 371.229823 271.892732 
L 372.562984 279.538583 
L 373.896146 279.538583 
L 374.562726 283.361508 
L 379.228791 283.361508 
L 379.895372 302.476136 
L 380.561952 302.476136 
L 381.228533 294.830285 
L 381.895114 294.830285 
L 382.561695 291.007359 
L 386.561179 291.007359 
L 387.227759 287.184434 
L 387.89434 287.184434 
L 388.560921 283.361508 
L 390.560663 283.361508 
L 391.227243 279.538583 
L 393.226985 279.538583 
L 393.893566 310.121987 
L 394.560147 279.538583 
L 395.226727 275.715658 
L 395.893308 279.538583 
L 398.559631 279.538583 
L 399.226211 275.715658 
L 399.892792 279.538583 
L 400.559373 275.715658 
L 406.558599 275.715658 
L 407.22518 298.65321 
L 407.89176 271.892732 
L 408.558341 264.246881 
L 409.891502 271.892732 
L 411.224664 271.892732 
L 411.891244 275.715658 
L 414.557567 275.715658 
L 415.224148 279.538583 
L 415.890728 275.715658 
L 416.557309 279.538583 
L 419.223632 279.538583 
L 419.890212 283.361508 
L 420.556793 279.538583 
L 421.223374 306.299061 
L 421.889954 275.715658 
L 422.556535 279.538583 
L 426.556019 279.538583 
L 427.2226 283.361508 
L 428.555761 283.361508 
L 429.222342 279.538583 
L 429.888923 279.538583 
L 430.555503 283.361508 
L 433.888407 283.361508 
L 434.554987 302.476136 
L 435.221568 279.538583 
L 435.888149 268.069807 
L 436.554729 271.892732 
L 437.22131 268.069807 
L 438.554471 268.069807 
L 439.221052 271.892732 
L 440.554213 271.892732 
L 441.220794 268.069807 
L 447.886601 268.069807 
L 448.553182 302.476136 
L 449.219762 271.892732 
L 449.886343 271.892732 
L 450.552924 275.715658 
L 452.552666 275.715658 
L 453.219246 279.538583 
L 461.218214 279.538583 
L 461.884795 298.65321 
L 462.551376 287.184434 
L 463.217957 279.538583 
L 463.884537 279.538583 
L 463.884537 279.538583 
" style="fill:none;stroke:#d62728;stroke-linecap:square;stroke-width:1.5;"/>
   </g>
   <g id="patch_3">
    <path d="M 83.472344 352.174167 
L 83.472344 35.0625 
" style="fill:none;stroke:#000000;stroke-linecap:square;stroke-linejoin:miter;stroke-width:0.8;"/>
   </g>
   <g id="patch_4">
    <path d="M 488.365312 352.174167 
L 488.365312 35.0625 
" style="fill:none;stroke:#000000;stroke-linecap:square;stroke-linejoin:miter;stroke-width:0.8;"/>
   </g>
   <g id="patch_5">
    <path d="M 83.472344 352.174167 
L 488.365312 352.174167 
" style="fill:none;stroke:#000000;stroke-linecap:square;stroke-linejoin:miter;stroke-width:0.8;"/>
   </g>
   <g id="patch_6">
    <path d="M 83.472344 35.0625 
L 488.365312 35.0625 
" style="fill:none;stroke:#000000;stroke-linecap:square;stroke-linejoin:miter;stroke-width:0.8;"/>
   </g>
   <g id="legend_1">
    <g id="patch_7">
     <path d="M 510.609961 96.775 
L 609.680273 96.775 
Q 611.680273 96.775 611.680273 94.775 
L 611.680273 37.0625 
Q 611.680273 35.0625 609.680273 35.0625 
L 510.609961 35.0625 
Q 508.609961 35.0625 508.609961 37.0625 
L 508.609961 94.775 
Q 508.609961 96.775 510.609961 96.775 
z
" style="fill:#ffffff;opacity:0.8;stroke:#cccccc;stroke-linejoin:miter;"/>
    </g>
    <g id="line2d_20">
     <path d="M 512.609961 43.160937 
L 532.609961 43.160937 
" style="fill:none;stroke:#1f77b4;stroke-linecap:square;stroke-width:1.5;"/>
    </g>
    <g id="line2d_21"/>
    <g id="text_17">
     <!-- bbrshallow-pi -->
     <defs>
      <path d="M 34.28125 27.484375 
Q 23.390625 27.484375 19.1875 25 
Q 14.984375 22.515625 14.984375 16.5 
Q 14.984375 11.71875 18.140625 8.90625 
Q 21.296875 6.109375 26.703125 6.109375 
Q 34.1875 6.109375 38.703125 11.40625 
Q 43.21875 16.703125 43.21875 25.484375 
L 43.21875 27.484375 
z
M 52.203125 31.203125 
L 52.203125 0 
L 43.21875 0 
L 43.21875 8.296875 
Q 40.140625 3.328125 35.546875 0.953125 
Q 30.953125 -1.421875 24.3125 -1.421875 
Q 15.921875 -1.421875 10.953125 3.296875 
Q 6 8.015625 6 15.921875 
Q 6 25.140625 12.171875 29.828125 
Q 18.359375 34.515625 30.609375 34.515625 
L 43.21875 34.515625 
L 43.21875 35.40625 
Q 43.21875 41.609375 39.140625 45 
Q 35.0625 48.390625 27.6875 48.390625 
Q 23 48.390625 18.546875 47.265625 
Q 14.109375 46.140625 10.015625 43.890625 
L 10.015625 52.203125 
Q 14.9375 54.109375 19.578125 55.046875 
Q 24.21875 56 28.609375 56 
Q 40.484375 56 46.34375 49.84375 
Q 52.203125 43.703125 52.203125 31.203125 
z
" id="DejaVuSans-97"/>
      <path d="M 9.421875 75.984375 
L 18.40625 75.984375 
L 18.40625 0 
L 9.421875 0 
z
" id="DejaVuSans-108"/>
      <path d="M 4.203125 54.6875 
L 13.1875 54.6875 
L 24.421875 12.015625 
L 35.59375 54.6875 
L 46.1875 54.6875 
L 57.421875 12.015625 
L 68.609375 54.6875 
L 77.59375 54.6875 
L 63.28125 0 
L 52.6875 0 
L 40.921875 44.828125 
L 29.109375 0 
L 18.5 0 
z
" id="DejaVuSans-119"/>
      <path d="M 4.890625 31.390625 
L 31.203125 31.390625 
L 31.203125 23.390625 
L 4.890625 23.390625 
z
" id="DejaVuSans-45"/>
     </defs>
     <g transform="translate(540.609961 46.660937)scale(0.1 -0.1)">
      <use xlink:href="#DejaVuSans-98"/>
      <use x="63.476562" xlink:href="#DejaVuSans-98"/>
      <use x="126.953125" xlink:href="#DejaVuSans-114"/>
      <use x="168.066406" xlink:href="#DejaVuSans-115"/>
      <use x="220.166016" xlink:href="#DejaVuSans-104"/>
      <use x="283.544922" xlink:href="#DejaVuSans-97"/>
      <use x="344.824219" xlink:href="#DejaVuSans-108"/>
      <use x="372.607422" xlink:href="#DejaVuSans-108"/>
      <use x="400.390625" xlink:href="#DejaVuSans-111"/>
      <use x="461.572266" xlink:href="#DejaVuSans-119"/>
      <use x="543.359375" xlink:href="#DejaVuSans-45"/>
      <use x="579.443359" xlink:href="#DejaVuSans-112"/>
      <use x="642.919922" xlink:href="#DejaVuSans-105"/>
     </g>
    </g>
    <g id="line2d_22">
     <path d="M 512.609961 57.839063 
L 532.609961 57.839063 
" style="fill:none;stroke:#ff7f0e;stroke-linecap:square;stroke-width:1.5;"/>
    </g>
    <g id="line2d_23"/>
    <g id="text_18">
     <!-- bbrshallow-pi -->
     <g transform="translate(540.609961 61.339063)scale(0.1 -0.1)">
      <use xlink:href="#DejaVuSans-98"/>
      <use x="63.476562" xlink:href="#DejaVuSans-98"/>
      <use x="126.953125" xlink:href="#DejaVuSans-114"/>
      <use x="168.066406" xlink:href="#DejaVuSans-115"/>
      <use x="220.166016" xlink:href="#DejaVuSans-104"/>
      <use x="283.544922" xlink:href="#DejaVuSans-97"/>
      <use x="344.824219" xlink:href="#DejaVuSans-108"/>
      <use x="372.607422" xlink:href="#DejaVuSans-108"/>
      <use x="400.390625" xlink:href="#DejaVuSans-111"/>
      <use x="461.572266" xlink:href="#DejaVuSans-119"/>
      <use x="543.359375" xlink:href="#DejaVuSans-45"/>
      <use x="579.443359" xlink:href="#DejaVuSans-112"/>
      <use x="642.919922" xlink:href="#DejaVuSans-105"/>
     </g>
    </g>
    <g id="line2d_24">
     <path d="M 512.609961 72.517187 
L 532.609961 72.517187 
" style="fill:none;stroke:#2ca02c;stroke-linecap:square;stroke-width:1.5;"/>
    </g>
    <g id="line2d_25"/>
    <g id="text_19">
     <!-- bbrshallow-pi -->
     <g transform="translate(540.609961 76.017187)scale(0.1 -0.1)">
      <use xlink:href="#DejaVuSans-98"/>
      <use x="63.476562" xlink:href="#DejaVuSans-98"/>
      <use x="126.953125" xlink:href="#DejaVuSans-114"/>
      <use x="168.066406" xlink:href="#DejaVuSans-115"/>
      <use x="220.166016" xlink:href="#DejaVuSans-104"/>
      <use x="283.544922" xlink:href="#DejaVuSans-97"/>
      <use x="344.824219" xlink:href="#DejaVuSans-108"/>
      <use x="372.607422" xlink:href="#DejaVuSans-108"/>
      <use x="400.390625" xlink:href="#DejaVuSans-111"/>
      <use x="461.572266" xlink:href="#DejaVuSans-119"/>
      <use x="543.359375" xlink:href="#DejaVuSans-45"/>
      <use x="579.443359" xlink:href="#DejaVuSans-112"/>
      <use x="642.919922" xlink:href="#DejaVuSans-105"/>
     </g>
    </g>
    <g id="line2d_26">
     <path d="M 512.609961 87.195312 
L 532.609961 87.195312 
" style="fill:none;stroke:#d62728;stroke-linecap:square;stroke-width:1.5;"/>
    </g>
    <g id="line2d_27"/>
    <g id="text_20">
     <!-- bbrshallow-pi -->
     <g transform="translate(540.609961 90.695312)scale(0.1 -0.1)">
      <use xlink:href="#DejaVuSans-98"/>
      <use x="63.476562" xlink:href="#DejaVuSans-98"/>
      <use x="126.953125" xlink:href="#DejaVuSans-114"/>
      <use x="168.066406" xlink:href="#DejaVuSans-115"/>
      <use x="220.166016" xlink:href="#DejaVuSans-104"/>
      <use x="283.544922" xlink:href="#DejaVuSans-97"/>
      <use x="344.824219" xlink:href="#DejaVuSans-108"/>
      <use x="372.607422" xlink:href="#DejaVuSans-108"/>
      <use x="400.390625" xlink:href="#DejaVuSans-111"/>
      <use x="461.572266" xlink:href="#DejaVuSans-119"/>
      <use x="543.359375" xlink:href="#DejaVuSans-45"/>
      <use x="579.443359" xlink:href="#DejaVuSans-112"/>
      <use x="642.919922" xlink:href="#DejaVuSans-105"/>
     </g>
    </g>
   </g>
  </g>
  <g id="text_21">
   <!-- result throughput -->
   <g transform="translate(289.320938 17.038125)scale(0.12 -0.12)">
    <use xlink:href="#DejaVuSans-114"/>
    <use x="41.082031" xlink:href="#DejaVuSans-101"/>
    <use x="102.605469" xlink:href="#DejaVuSans-115"/>
    <use x="154.705078" xlink:href="#DejaVuSans-117"/>
    <use x="218.083984" xlink:href="#DejaVuSans-108"/>
    <use x="245.867188" xlink:href="#DejaVuSans-116"/>
    <use x="285.076172" xlink:href="#DejaVuSans-32"/>
    <use x="316.863281" xlink:href="#DejaVuSans-116"/>
    <use x="356.072266" xlink:href="#DejaVuSans-104"/>
    <use x="419.451172" xlink:href="#DejaVuSans-114"/>
    <use x="460.533203" xlink:href="#DejaVuSans-111"/>
    <use x="521.714844" xlink:href="#DejaVuSans-117"/>
    <use x="585.09375" xlink:href="#DejaVuSans-103"/>
    <use x="648.570312" xlink:href="#DejaVuSans-104"/>
    <use x="711.949219" xlink:href="#DejaVuSans-112"/>
    <use x="775.425781" xlink:href="#DejaVuSans-117"/>
    <use x="838.804688" xlink:href="#DejaVuSans-116"/>
   </g>
  </g>
 </g>
 <defs>
  <clipPath id="pf4d1e9819b">
   <rect height="317.111667" width="404.892969" x="83.472344" y="35.0625"/>
  </clipPath>
 </defs>
</svg>
