<?xml version="1.0" encoding="utf-8" standalone="no"?>
<!DOCTYPE svg PUBLIC "-//W3C//DTD SVG 1.1//EN"
  "http://www.w3.org/Graphics/SVG/1.1/DTD/svg11.dtd">
<!-- Created with matplotlib (https://matplotlib.org/) -->
<svg height="396pt" version="1.1" viewBox="0 0 684 396" width="684pt" xmlns="http://www.w3.org/2000/svg" xmlns:xlink="http://www.w3.org/1999/xlink">
 <defs>
  <style type="text/css">
*{stroke-linecap:butt;stroke-linejoin:round;}
  </style>
 </defs>
 <g id="figure_1">
  <g id="patch_1">
   <path d="M 0 396 
L 684 396 
L 684 0 
L 0 0 
z
" style="fill:#ffffff;"/>
  </g>
  <g id="axes_1">
   <g id="patch_2">
    <path d="M 120.878594 352.174167 
L 529.912969 352.174167 
L 529.912969 35.0625 
L 120.878594 35.0625 
z
" style="fill:#ffffff;"/>
   </g>
   <g id="matplotlib.axis_1">
    <g id="xtick_1">
     <g id="line2d_1">
      <defs>
       <path d="M 0 0 
L 0 3.5 
" id="mbe58c67b58" style="stroke:#000000;stroke-width:0.8;"/>
      </defs>
      <g>
       <use style="stroke:#000000;stroke-width:0.8;" x="139.465666" xlink:href="#mbe58c67b58" y="352.174167"/>
      </g>
     </g>
     <g id="text_1">
      <!-- 0 -->
      <defs>
       <path d="M 31.78125 66.40625 
Q 24.171875 66.40625 20.328125 58.90625 
Q 16.5 51.421875 16.5 36.375 
Q 16.5 21.390625 20.328125 13.890625 
Q 24.171875 6.390625 31.78125 6.390625 
Q 39.453125 6.390625 43.28125 13.890625 
Q 47.125 21.390625 47.125 36.375 
Q 47.125 51.421875 43.28125 58.90625 
Q 39.453125 66.40625 31.78125 66.40625 
z
M 31.78125 74.21875 
Q 44.046875 74.21875 50.515625 64.515625 
Q 56.984375 54.828125 56.984375 36.375 
Q 56.984375 17.96875 50.515625 8.265625 
Q 44.046875 -1.421875 31.78125 -1.421875 
Q 19.53125 -1.421875 13.0625 8.265625 
Q 6.59375 17.96875 6.59375 36.375 
Q 6.59375 54.828125 13.0625 64.515625 
Q 19.53125 74.21875 31.78125 74.21875 
z
" id="DejaVuSans-48"/>
      </defs>
      <g transform="translate(136.284416 366.772604)scale(0.1 -0.1)">
       <use xlink:href="#DejaVuSans-48"/>
      </g>
     </g>
    </g>
    <g id="xtick_2">
     <g id="line2d_2">
      <g>
       <use style="stroke:#000000;stroke-width:0.8;" x="206.952197" xlink:href="#mbe58c67b58" y="352.174167"/>
      </g>
     </g>
     <g id="text_2">
      <!-- 50 -->
      <defs>
       <path d="M 10.796875 72.90625 
L 49.515625 72.90625 
L 49.515625 64.59375 
L 19.828125 64.59375 
L 19.828125 46.734375 
Q 21.96875 47.46875 24.109375 47.828125 
Q 26.265625 48.1875 28.421875 48.1875 
Q 40.625 48.1875 47.75 41.5 
Q 54.890625 34.8125 54.890625 23.390625 
Q 54.890625 11.625 47.5625 5.09375 
Q 40.234375 -1.421875 26.90625 -1.421875 
Q 22.3125 -1.421875 17.546875 -0.640625 
Q 12.796875 0.140625 7.71875 1.703125 
L 7.71875 11.625 
Q 12.109375 9.234375 16.796875 8.0625 
Q 21.484375 6.890625 26.703125 6.890625 
Q 35.15625 6.890625 40.078125 11.328125 
Q 45.015625 15.765625 45.015625 23.390625 
Q 45.015625 31 40.078125 35.4375 
Q 35.15625 39.890625 26.703125 39.890625 
Q 22.75 39.890625 18.8125 39.015625 
Q 14.890625 38.140625 10.796875 36.28125 
z
" id="DejaVuSans-53"/>
      </defs>
      <g transform="translate(200.589697 366.772604)scale(0.1 -0.1)">
       <use xlink:href="#DejaVuSans-53"/>
       <use x="63.623047" xlink:href="#DejaVuSans-48"/>
      </g>
     </g>
    </g>
    <g id="xtick_3">
     <g id="line2d_3">
      <g>
       <use style="stroke:#000000;stroke-width:0.8;" x="274.438727" xlink:href="#mbe58c67b58" y="352.174167"/>
      </g>
     </g>
     <g id="text_3">
      <!-- 100 -->
      <defs>
       <path d="M 12.40625 8.296875 
L 28.515625 8.296875 
L 28.515625 63.921875 
L 10.984375 60.40625 
L 10.984375 69.390625 
L 28.421875 72.90625 
L 38.28125 72.90625 
L 38.28125 8.296875 
L 54.390625 8.296875 
L 54.390625 0 
L 12.40625 0 
z
" id="DejaVuSans-49"/>
      </defs>
      <g transform="translate(264.894977 366.772604)scale(0.1 -0.1)">
       <use xlink:href="#DejaVuSans-49"/>
       <use x="63.623047" xlink:href="#DejaVuSans-48"/>
       <use x="127.246094" xlink:href="#DejaVuSans-48"/>
      </g>
     </g>
    </g>
    <g id="xtick_4">
     <g id="line2d_4">
      <g>
       <use style="stroke:#000000;stroke-width:0.8;" x="341.925257" xlink:href="#mbe58c67b58" y="352.174167"/>
      </g>
     </g>
     <g id="text_4">
      <!-- 150 -->
      <g transform="translate(332.381507 366.772604)scale(0.1 -0.1)">
       <use xlink:href="#DejaVuSans-49"/>
       <use x="63.623047" xlink:href="#DejaVuSans-53"/>
       <use x="127.246094" xlink:href="#DejaVuSans-48"/>
      </g>
     </g>
    </g>
    <g id="xtick_5">
     <g id="line2d_5">
      <g>
       <use style="stroke:#000000;stroke-width:0.8;" x="409.411787" xlink:href="#mbe58c67b58" y="352.174167"/>
      </g>
     </g>
     <g id="text_5">
      <!-- 200 -->
      <defs>
       <path d="M 19.1875 8.296875 
L 53.609375 8.296875 
L 53.609375 0 
L 7.328125 0 
L 7.328125 8.296875 
Q 12.9375 14.109375 22.625 23.890625 
Q 32.328125 33.6875 34.8125 36.53125 
Q 39.546875 41.84375 41.421875 45.53125 
Q 43.3125 49.21875 43.3125 52.78125 
Q 43.3125 58.59375 39.234375 62.25 
Q 35.15625 65.921875 28.609375 65.921875 
Q 23.96875 65.921875 18.8125 64.3125 
Q 13.671875 62.703125 7.8125 59.421875 
L 7.8125 69.390625 
Q 13.765625 71.78125 18.9375 73 
Q 24.125 74.21875 28.421875 74.21875 
Q 39.75 74.21875 46.484375 68.546875 
Q 53.21875 62.890625 53.21875 53.421875 
Q 53.21875 48.921875 51.53125 44.890625 
Q 49.859375 40.875 45.40625 35.40625 
Q 44.1875 33.984375 37.640625 27.21875 
Q 31.109375 20.453125 19.1875 8.296875 
z
" id="DejaVuSans-50"/>
      </defs>
      <g transform="translate(399.868037 366.772604)scale(0.1 -0.1)">
       <use xlink:href="#DejaVuSans-50"/>
       <use x="63.623047" xlink:href="#DejaVuSans-48"/>
       <use x="127.246094" xlink:href="#DejaVuSans-48"/>
      </g>
     </g>
    </g>
    <g id="xtick_6">
     <g id="line2d_6">
      <g>
       <use style="stroke:#000000;stroke-width:0.8;" x="476.898318" xlink:href="#mbe58c67b58" y="352.174167"/>
      </g>
     </g>
     <g id="text_6">
      <!-- 250 -->
      <g transform="translate(467.354568 366.772604)scale(0.1 -0.1)">
       <use xlink:href="#DejaVuSans-50"/>
       <use x="63.623047" xlink:href="#DejaVuSans-53"/>
       <use x="127.246094" xlink:href="#DejaVuSans-48"/>
      </g>
     </g>
    </g>
   </g>
   <g id="matplotlib.axis_2">
    <g id="ytick_1">
     <g id="line2d_7">
      <defs>
       <path d="M 0 0 
L -3.5 0 
" id="m813054f7b4" style="stroke:#000000;stroke-width:0.8;"/>
      </defs>
      <g>
       <use style="stroke:#000000;stroke-width:0.8;" x="120.878594" xlink:href="#m813054f7b4" y="352.174167"/>
      </g>
     </g>
     <g id="text_7">
      <!-- 0 -->
      <g transform="translate(107.516094 355.973385)scale(0.1 -0.1)">
       <use xlink:href="#DejaVuSans-48"/>
      </g>
     </g>
    </g>
    <g id="ytick_2">
     <g id="line2d_8">
      <g>
       <use style="stroke:#000000;stroke-width:0.8;" x="120.878594" xlink:href="#m813054f7b4" y="284.456242"/>
      </g>
     </g>
     <g id="text_8">
      <!-- 200000 -->
      <g transform="translate(75.703594 288.25546)scale(0.1 -0.1)">
       <use xlink:href="#DejaVuSans-50"/>
       <use x="63.623047" xlink:href="#DejaVuSans-48"/>
       <use x="127.246094" xlink:href="#DejaVuSans-48"/>
       <use x="190.869141" xlink:href="#DejaVuSans-48"/>
       <use x="254.492188" xlink:href="#DejaVuSans-48"/>
       <use x="318.115234" xlink:href="#DejaVuSans-48"/>
      </g>
     </g>
    </g>
    <g id="ytick_3">
     <g id="line2d_9">
      <g>
       <use style="stroke:#000000;stroke-width:0.8;" x="120.878594" xlink:href="#m813054f7b4" y="216.738316"/>
      </g>
     </g>
     <g id="text_9">
      <!-- 400000 -->
      <defs>
       <path d="M 37.796875 64.3125 
L 12.890625 25.390625 
L 37.796875 25.390625 
z
M 35.203125 72.90625 
L 47.609375 72.90625 
L 47.609375 25.390625 
L 58.015625 25.390625 
L 58.015625 17.1875 
L 47.609375 17.1875 
L 47.609375 0 
L 37.796875 0 
L 37.796875 17.1875 
L 4.890625 17.1875 
L 4.890625 26.703125 
z
" id="DejaVuSans-52"/>
      </defs>
      <g transform="translate(75.703594 220.537535)scale(0.1 -0.1)">
       <use xlink:href="#DejaVuSans-52"/>
       <use x="63.623047" xlink:href="#DejaVuSans-48"/>
       <use x="127.246094" xlink:href="#DejaVuSans-48"/>
       <use x="190.869141" xlink:href="#DejaVuSans-48"/>
       <use x="254.492188" xlink:href="#DejaVuSans-48"/>
       <use x="318.115234" xlink:href="#DejaVuSans-48"/>
      </g>
     </g>
    </g>
    <g id="ytick_4">
     <g id="line2d_10">
      <g>
       <use style="stroke:#000000;stroke-width:0.8;" x="120.878594" xlink:href="#m813054f7b4" y="149.020391"/>
      </g>
     </g>
     <g id="text_10">
      <!-- 600000 -->
      <defs>
       <path d="M 33.015625 40.375 
Q 26.375 40.375 22.484375 35.828125 
Q 18.609375 31.296875 18.609375 23.390625 
Q 18.609375 15.53125 22.484375 10.953125 
Q 26.375 6.390625 33.015625 6.390625 
Q 39.65625 6.390625 43.53125 10.953125 
Q 47.40625 15.53125 47.40625 23.390625 
Q 47.40625 31.296875 43.53125 35.828125 
Q 39.65625 40.375 33.015625 40.375 
z
M 52.59375 71.296875 
L 52.59375 62.3125 
Q 48.875 64.0625 45.09375 64.984375 
Q 41.3125 65.921875 37.59375 65.921875 
Q 27.828125 65.921875 22.671875 59.328125 
Q 17.53125 52.734375 16.796875 39.40625 
Q 19.671875 43.65625 24.015625 45.921875 
Q 28.375 48.1875 33.59375 48.1875 
Q 44.578125 48.1875 50.953125 41.515625 
Q 57.328125 34.859375 57.328125 23.390625 
Q 57.328125 12.15625 50.6875 5.359375 
Q 44.046875 -1.421875 33.015625 -1.421875 
Q 20.359375 -1.421875 13.671875 8.265625 
Q 6.984375 17.96875 6.984375 36.375 
Q 6.984375 53.65625 15.1875 63.9375 
Q 23.390625 74.21875 37.203125 74.21875 
Q 40.921875 74.21875 44.703125 73.484375 
Q 48.484375 72.75 52.59375 71.296875 
z
" id="DejaVuSans-54"/>
      </defs>
      <g transform="translate(75.703594 152.81961)scale(0.1 -0.1)">
       <use xlink:href="#DejaVuSans-54"/>
       <use x="63.623047" xlink:href="#DejaVuSans-48"/>
       <use x="127.246094" xlink:href="#DejaVuSans-48"/>
       <use x="190.869141" xlink:href="#DejaVuSans-48"/>
       <use x="254.492188" xlink:href="#DejaVuSans-48"/>
       <use x="318.115234" xlink:href="#DejaVuSans-48"/>
      </g>
     </g>
    </g>
    <g id="ytick_5">
     <g id="line2d_11">
      <g>
       <use style="stroke:#000000;stroke-width:0.8;" x="120.878594" xlink:href="#m813054f7b4" y="81.302466"/>
      </g>
     </g>
     <g id="text_11">
      <!-- 800000 -->
      <defs>
       <path d="M 31.78125 34.625 
Q 24.75 34.625 20.71875 30.859375 
Q 16.703125 27.09375 16.703125 20.515625 
Q 16.703125 13.921875 20.71875 10.15625 
Q 24.75 6.390625 31.78125 6.390625 
Q 38.8125 6.390625 42.859375 10.171875 
Q 46.921875 13.96875 46.921875 20.515625 
Q 46.921875 27.09375 42.890625 30.859375 
Q 38.875 34.625 31.78125 34.625 
z
M 21.921875 38.8125 
Q 15.578125 40.375 12.03125 44.71875 
Q 8.5 49.078125 8.5 55.328125 
Q 8.5 64.0625 14.71875 69.140625 
Q 20.953125 74.21875 31.78125 74.21875 
Q 42.671875 74.21875 48.875 69.140625 
Q 55.078125 64.0625 55.078125 55.328125 
Q 55.078125 49.078125 51.53125 44.71875 
Q 48 40.375 41.703125 38.8125 
Q 48.828125 37.15625 52.796875 32.3125 
Q 56.78125 27.484375 56.78125 20.515625 
Q 56.78125 9.90625 50.3125 4.234375 
Q 43.84375 -1.421875 31.78125 -1.421875 
Q 19.734375 -1.421875 13.25 4.234375 
Q 6.78125 9.90625 6.78125 20.515625 
Q 6.78125 27.484375 10.78125 32.3125 
Q 14.796875 37.15625 21.921875 38.8125 
z
M 18.3125 54.390625 
Q 18.3125 48.734375 21.84375 45.5625 
Q 25.390625 42.390625 31.78125 42.390625 
Q 38.140625 42.390625 41.71875 45.5625 
Q 45.3125 48.734375 45.3125 54.390625 
Q 45.3125 60.0625 41.71875 63.234375 
Q 38.140625 66.40625 31.78125 66.40625 
Q 25.390625 66.40625 21.84375 63.234375 
Q 18.3125 60.0625 18.3125 54.390625 
z
" id="DejaVuSans-56"/>
      </defs>
      <g transform="translate(75.703594 85.101685)scale(0.1 -0.1)">
       <use xlink:href="#DejaVuSans-56"/>
       <use x="63.623047" xlink:href="#DejaVuSans-48"/>
       <use x="127.246094" xlink:href="#DejaVuSans-48"/>
       <use x="190.869141" xlink:href="#DejaVuSans-48"/>
       <use x="254.492188" xlink:href="#DejaVuSans-48"/>
       <use x="318.115234" xlink:href="#DejaVuSans-48"/>
      </g>
     </g>
    </g>
    <g id="text_12">
     <!-- inflight -->
     <defs>
      <path d="M 9.421875 54.6875 
L 18.40625 54.6875 
L 18.40625 0 
L 9.421875 0 
z
M 9.421875 75.984375 
L 18.40625 75.984375 
L 18.40625 64.59375 
L 9.421875 64.59375 
z
" id="DejaVuSans-105"/>
      <path d="M 54.890625 33.015625 
L 54.890625 0 
L 45.90625 0 
L 45.90625 32.71875 
Q 45.90625 40.484375 42.875 44.328125 
Q 39.84375 48.1875 33.796875 48.1875 
Q 26.515625 48.1875 22.3125 43.546875 
Q 18.109375 38.921875 18.109375 30.90625 
L 18.109375 0 
L 9.078125 0 
L 9.078125 54.6875 
L 18.109375 54.6875 
L 18.109375 46.1875 
Q 21.34375 51.125 25.703125 53.5625 
Q 30.078125 56 35.796875 56 
Q 45.21875 56 50.046875 50.171875 
Q 54.890625 44.34375 54.890625 33.015625 
z
" id="DejaVuSans-110"/>
      <path d="M 37.109375 75.984375 
L 37.109375 68.5 
L 28.515625 68.5 
Q 23.6875 68.5 21.796875 66.546875 
Q 19.921875 64.59375 19.921875 59.515625 
L 19.921875 54.6875 
L 34.71875 54.6875 
L 34.71875 47.703125 
L 19.921875 47.703125 
L 19.921875 0 
L 10.890625 0 
L 10.890625 47.703125 
L 2.296875 47.703125 
L 2.296875 54.6875 
L 10.890625 54.6875 
L 10.890625 58.5 
Q 10.890625 67.625 15.140625 71.796875 
Q 19.390625 75.984375 28.609375 75.984375 
z
" id="DejaVuSans-102"/>
      <path d="M 9.421875 75.984375 
L 18.40625 75.984375 
L 18.40625 0 
L 9.421875 0 
z
" id="DejaVuSans-108"/>
      <path d="M 45.40625 27.984375 
Q 45.40625 37.75 41.375 43.109375 
Q 37.359375 48.484375 30.078125 48.484375 
Q 22.859375 48.484375 18.828125 43.109375 
Q 14.796875 37.75 14.796875 27.984375 
Q 14.796875 18.265625 18.828125 12.890625 
Q 22.859375 7.515625 30.078125 7.515625 
Q 37.359375 7.515625 41.375 12.890625 
Q 45.40625 18.265625 45.40625 27.984375 
z
M 54.390625 6.78125 
Q 54.390625 -7.171875 48.1875 -13.984375 
Q 42 -20.796875 29.203125 -20.796875 
Q 24.46875 -20.796875 20.265625 -20.09375 
Q 16.0625 -19.390625 12.109375 -17.921875 
L 12.109375 -9.1875 
Q 16.0625 -11.328125 19.921875 -12.34375 
Q 23.78125 -13.375 27.78125 -13.375 
Q 36.625 -13.375 41.015625 -8.765625 
Q 45.40625 -4.15625 45.40625 5.171875 
L 45.40625 9.625 
Q 42.625 4.78125 38.28125 2.390625 
Q 33.9375 0 27.875 0 
Q 17.828125 0 11.671875 7.65625 
Q 5.515625 15.328125 5.515625 27.984375 
Q 5.515625 40.671875 11.671875 48.328125 
Q 17.828125 56 27.875 56 
Q 33.9375 56 38.28125 53.609375 
Q 42.625 51.21875 45.40625 46.390625 
L 45.40625 54.6875 
L 54.390625 54.6875 
z
" id="DejaVuSans-103"/>
      <path d="M 54.890625 33.015625 
L 54.890625 0 
L 45.90625 0 
L 45.90625 32.71875 
Q 45.90625 40.484375 42.875 44.328125 
Q 39.84375 48.1875 33.796875 48.1875 
Q 26.515625 48.1875 22.3125 43.546875 
Q 18.109375 38.921875 18.109375 30.90625 
L 18.109375 0 
L 9.078125 0 
L 9.078125 75.984375 
L 18.109375 75.984375 
L 18.109375 46.1875 
Q 21.34375 51.125 25.703125 53.5625 
Q 30.078125 56 35.796875 56 
Q 45.21875 56 50.046875 50.171875 
Q 54.890625 44.34375 54.890625 33.015625 
z
" id="DejaVuSans-104"/>
      <path d="M 18.3125 70.21875 
L 18.3125 54.6875 
L 36.8125 54.6875 
L 36.8125 47.703125 
L 18.3125 47.703125 
L 18.3125 18.015625 
Q 18.3125 11.328125 20.140625 9.421875 
Q 21.96875 7.515625 27.59375 7.515625 
L 36.8125 7.515625 
L 36.8125 0 
L 27.59375 0 
Q 17.1875 0 13.234375 3.875 
Q 9.28125 7.765625 9.28125 18.015625 
L 9.28125 47.703125 
L 2.6875 47.703125 
L 2.6875 54.6875 
L 9.28125 54.6875 
L 9.28125 70.21875 
z
" id="DejaVuSans-116"/>
     </defs>
     <g transform="translate(58.426094 211.017552)rotate(-90)scale(0.1 -0.1)">
      <use xlink:href="#DejaVuSans-105"/>
      <use x="27.783203" xlink:href="#DejaVuSans-110"/>
      <use x="91.162109" xlink:href="#DejaVuSans-102"/>
      <use x="126.367188" xlink:href="#DejaVuSans-108"/>
      <use x="154.150391" xlink:href="#DejaVuSans-105"/>
      <use x="181.933594" xlink:href="#DejaVuSans-103"/>
      <use x="245.410156" xlink:href="#DejaVuSans-104"/>
      <use x="308.789062" xlink:href="#DejaVuSans-116"/>
     </g>
     <!-- (bytes) -->
     <defs>
      <path d="M 31 75.875 
Q 24.46875 64.65625 21.28125 53.65625 
Q 18.109375 42.671875 18.109375 31.390625 
Q 18.109375 20.125 21.3125 9.0625 
Q 24.515625 -2 31 -13.1875 
L 23.1875 -13.1875 
Q 15.875 -1.703125 12.234375 9.375 
Q 8.59375 20.453125 8.59375 31.390625 
Q 8.59375 42.28125 12.203125 53.3125 
Q 15.828125 64.359375 23.1875 75.875 
z
" id="DejaVuSans-40"/>
      <path d="M 48.6875 27.296875 
Q 48.6875 37.203125 44.609375 42.84375 
Q 40.53125 48.484375 33.40625 48.484375 
Q 26.265625 48.484375 22.1875 42.84375 
Q 18.109375 37.203125 18.109375 27.296875 
Q 18.109375 17.390625 22.1875 11.75 
Q 26.265625 6.109375 33.40625 6.109375 
Q 40.53125 6.109375 44.609375 11.75 
Q 48.6875 17.390625 48.6875 27.296875 
z
M 18.109375 46.390625 
Q 20.953125 51.265625 25.265625 53.625 
Q 29.59375 56 35.59375 56 
Q 45.5625 56 51.78125 48.09375 
Q 58.015625 40.1875 58.015625 27.296875 
Q 58.015625 14.40625 51.78125 6.484375 
Q 45.5625 -1.421875 35.59375 -1.421875 
Q 29.59375 -1.421875 25.265625 0.953125 
Q 20.953125 3.328125 18.109375 8.203125 
L 18.109375 0 
L 9.078125 0 
L 9.078125 75.984375 
L 18.109375 75.984375 
z
" id="DejaVuSans-98"/>
      <path d="M 32.171875 -5.078125 
Q 28.375 -14.84375 24.75 -17.8125 
Q 21.140625 -20.796875 15.09375 -20.796875 
L 7.90625 -20.796875 
L 7.90625 -13.28125 
L 13.1875 -13.28125 
Q 16.890625 -13.28125 18.9375 -11.515625 
Q 21 -9.765625 23.484375 -3.21875 
L 25.09375 0.875 
L 2.984375 54.6875 
L 12.5 54.6875 
L 29.59375 11.921875 
L 46.6875 54.6875 
L 56.203125 54.6875 
z
" id="DejaVuSans-121"/>
      <path d="M 56.203125 29.59375 
L 56.203125 25.203125 
L 14.890625 25.203125 
Q 15.484375 15.921875 20.484375 11.0625 
Q 25.484375 6.203125 34.421875 6.203125 
Q 39.59375 6.203125 44.453125 7.46875 
Q 49.3125 8.734375 54.109375 11.28125 
L 54.109375 2.78125 
Q 49.265625 0.734375 44.1875 -0.34375 
Q 39.109375 -1.421875 33.890625 -1.421875 
Q 20.796875 -1.421875 13.15625 6.1875 
Q 5.515625 13.8125 5.515625 26.8125 
Q 5.515625 40.234375 12.765625 48.109375 
Q 20.015625 56 32.328125 56 
Q 43.359375 56 49.78125 48.890625 
Q 56.203125 41.796875 56.203125 29.59375 
z
M 47.21875 32.234375 
Q 47.125 39.59375 43.09375 43.984375 
Q 39.0625 48.390625 32.421875 48.390625 
Q 24.90625 48.390625 20.390625 44.140625 
Q 15.875 39.890625 15.1875 32.171875 
z
" id="DejaVuSans-101"/>
      <path d="M 44.28125 53.078125 
L 44.28125 44.578125 
Q 40.484375 46.53125 36.375 47.5 
Q 32.28125 48.484375 27.875 48.484375 
Q 21.1875 48.484375 17.84375 46.4375 
Q 14.5 44.390625 14.5 40.28125 
Q 14.5 37.15625 16.890625 35.375 
Q 19.28125 33.59375 26.515625 31.984375 
L 29.59375 31.296875 
Q 39.15625 29.25 43.1875 25.515625 
Q 47.21875 21.78125 47.21875 15.09375 
Q 47.21875 7.46875 41.1875 3.015625 
Q 35.15625 -1.421875 24.609375 -1.421875 
Q 20.21875 -1.421875 15.453125 -0.5625 
Q 10.6875 0.296875 5.421875 2 
L 5.421875 11.28125 
Q 10.40625 8.6875 15.234375 7.390625 
Q 20.0625 6.109375 24.8125 6.109375 
Q 31.15625 6.109375 34.5625 8.28125 
Q 37.984375 10.453125 37.984375 14.40625 
Q 37.984375 18.0625 35.515625 20.015625 
Q 33.0625 21.96875 24.703125 23.78125 
L 21.578125 24.515625 
Q 13.234375 26.265625 9.515625 29.90625 
Q 5.8125 33.546875 5.8125 39.890625 
Q 5.8125 47.609375 11.28125 51.796875 
Q 16.75 56 26.8125 56 
Q 31.78125 56 36.171875 55.265625 
Q 40.578125 54.546875 44.28125 53.078125 
z
" id="DejaVuSans-115"/>
      <path d="M 8.015625 75.875 
L 15.828125 75.875 
Q 23.140625 64.359375 26.78125 53.3125 
Q 30.421875 42.28125 30.421875 31.390625 
Q 30.421875 20.453125 26.78125 9.375 
Q 23.140625 -1.703125 15.828125 -13.1875 
L 8.015625 -13.1875 
Q 14.5 -2 17.703125 9.0625 
Q 20.90625 20.125 20.90625 31.390625 
Q 20.90625 42.671875 17.703125 53.65625 
Q 14.5 64.65625 8.015625 75.875 
z
" id="DejaVuSans-41"/>
     </defs>
     <g transform="translate(69.623906 211.294896)rotate(-90)scale(0.1 -0.1)">
      <use xlink:href="#DejaVuSans-40"/>
      <use x="39.013672" xlink:href="#DejaVuSans-98"/>
      <use x="102.490234" xlink:href="#DejaVuSans-121"/>
      <use x="161.669922" xlink:href="#DejaVuSans-116"/>
      <use x="200.878906" xlink:href="#DejaVuSans-101"/>
      <use x="262.402344" xlink:href="#DejaVuSans-115"/>
      <use x="314.501953" xlink:href="#DejaVuSans-41"/>
     </g>
    </g>
   </g>
   <g id="line2d_12">
    <path clip-path="url(#p54b368140a)" d="M 144.879436 341.388056 
L 146.904032 329.621389 
L 147.578897 340.4075 
L 148.928628 332.563056 
L 149.603493 329.621389 
L 151.628089 318.345 
L 152.302954 314.913056 
L 152.97782 322.7575 
L 153.652685 295.792222 
L 154.32755 335.014444 
L 155.002415 338.936667 
L 155.677281 339.917222 
L 156.352146 341.878333 
L 157.027011 343.349167 
L 157.701877 347.271389 
L 159.051607 340.897778 
L 159.726473 341.878333 
L 160.401338 344.329722 
L 161.076203 340.897778 
L 161.751068 341.878333 
L 162.425934 343.349167 
L 163.100799 343.839444 
L 163.775664 344.82 
L 164.45053 345.310278 
L 165.125395 341.878333 
L 165.80026 343.349167 
L 166.475126 347.761667 
L 167.149991 344.82 
L 167.824856 344.82 
L 168.499721 345.310278 
L 169.174587 347.761667 
L 170.524317 339.426944 
L 171.199183 334.524167 
L 171.874048 331.092222 
L 173.898644 318.345 
L 175.248374 310.990833 
L 175.92324 286.476944 
L 176.598105 317.854722 
L 177.27297 313.442222 
L 177.947836 322.7575 
L 178.622701 319.325556 
L 179.297566 326.679722 
L 179.972432 323.738056 
L 182.671893 308.539444 
L 183.346758 319.325556 
L 184.021623 314.913056 
L 184.696489 332.563056 
L 185.371354 336.975556 
L 186.721085 349.722778 
L 187.39595 348.251944 
L 188.070815 352.174167 
L 188.745681 350.703333 
L 189.420546 350.703333 
L 190.095411 351.683889 
L 190.770276 352.174167 
L 191.445142 350.703333 
L 192.120007 352.174167 
L 192.794872 352.174167 
L 193.469738 351.683889 
L 194.144603 352.174167 
L 194.819468 350.703333 
L 195.494334 351.683889 
L 196.169199 352.174167 
L 196.844064 352.174167 
L 197.518929 349.722778 
L 198.193795 347.761667 
L 199.543525 339.917222 
L 200.218391 335.014444 
L 204.267582 311.481111 
L 205.617313 305.597778 
L 206.292178 303.636667 
L 206.967044 314.422778 
L 207.641909 309.52 
L 208.316774 306.088056 
L 208.99164 303.636667 
L 209.666505 316.383889 
L 210.34137 313.442222 
L 211.016235 308.049167 
L 211.691101 319.325556 
L 212.365966 327.17 
L 213.040831 332.563056 
L 213.715697 341.388056 
L 214.390562 348.742222 
L 215.065427 351.193611 
L 215.740293 347.761667 
L 216.415158 350.703333 
L 217.090023 350.703333 
L 217.764889 352.174167 
L 218.439754 350.703333 
L 219.114619 350.213056 
L 219.789484 350.703333 
L 220.46435 351.683889 
L 221.139215 352.174167 
L 223.838676 352.174167 
L 224.513542 351.193611 
L 225.863272 352.174167 
L 226.538137 351.683889 
L 227.213003 352.174167 
L 228.562733 349.2325 
L 229.912464 340.897778 
L 231.262195 331.5825 
L 233.28679 318.345 
L 234.636521 310.990833 
L 235.311386 307.068611 
L 235.986252 319.325556 
L 236.661117 313.9325 
L 237.335982 317.854722 
L 238.010848 308.539444 
L 240.035443 298.733889 
L 240.710309 310.990833 
L 241.385174 305.597778 
L 242.060039 303.146389 
L 242.734905 315.403333 
L 243.40977 324.718611 
L 244.084635 338.446389 
L 244.759501 340.4075 
L 245.434366 345.800556 
L 246.109231 348.251944 
L 246.784097 351.193611 
L 247.458962 352.174167 
L 248.133827 351.683889 
L 248.808692 351.683889 
L 249.483558 352.174167 
L 250.158423 351.193611 
L 250.833288 351.193611 
L 251.508154 352.174167 
L 252.857884 352.174167 
L 253.53275 349.722778 
L 254.207615 351.193611 
L 254.88248 347.761667 
L 255.557345 349.722778 
L 256.232211 350.703333 
L 257.581941 351.683889 
L 258.256807 351.193611 
L 258.931672 352.174167 
L 259.606537 351.683889 
L 260.281403 349.722778 
L 260.956268 346.290833 
L 261.631133 340.897778 
L 262.305998 336.975556 
L 264.330594 322.7575 
L 266.35519 310.990833 
L 267.030056 308.049167 
L 267.704921 277.161667 
L 268.379786 314.913056 
L 269.729517 308.539444 
L 270.404382 285.986667 
L 271.079247 316.383889 
L 272.428978 309.029722 
L 273.778709 301.675556 
L 274.453574 297.263056 
L 275.128439 311.971389 
L 275.803305 314.913056 
L 276.47817 335.504722 
L 277.153035 347.761667 
L 277.8279 347.271389 
L 278.502766 349.722778 
L 279.177631 351.193611 
L 279.852496 346.290833 
L 280.527362 351.193611 
L 281.877092 351.193611 
L 282.551958 352.174167 
L 283.226823 350.213056 
L 284.576553 352.174167 
L 285.926284 352.174167 
L 287.276015 351.193611 
L 287.95088 352.174167 
L 288.625745 350.703333 
L 289.300611 352.174167 
L 289.975476 350.213056 
L 290.650341 352.174167 
L 291.325206 351.193611 
L 292.000072 345.800556 
L 293.349802 337.465833 
L 294.024668 332.072778 
L 294.699533 330.111667 
L 295.374398 324.228333 
L 296.049264 319.815833 
L 296.724129 320.306111 
L 297.398994 311.971389 
L 298.748725 305.1075 
L 299.42359 315.403333 
L 300.773321 309.029722 
L 301.448186 320.796389 
L 303.472782 310.500556 
L 304.147647 309.52 
L 304.822513 266.375556 
L 305.497378 313.442222 
L 306.172243 309.52 
L 306.847108 323.738056 
L 308.196839 334.033889 
L 308.871704 342.858889 
L 309.54657 345.800556 
L 310.221435 345.800556 
L 310.8963 349.722778 
L 311.571166 351.683889 
L 312.246031 352.174167 
L 312.920896 352.174167 
L 313.595761 350.703333 
L 314.270627 351.193611 
L 314.945492 352.174167 
L 315.620357 352.174167 
L 316.970088 351.193611 
L 317.644953 348.742222 
L 318.319819 351.683889 
L 318.994684 351.193611 
L 319.669549 351.193611 
L 320.344414 350.703333 
L 321.01928 350.703333 
L 321.694145 352.174167 
L 323.043876 351.193611 
L 323.718741 352.174167 
L 324.393606 350.213056 
L 325.068472 350.703333 
L 325.743337 349.2325 
L 326.418202 351.193611 
L 327.093067 348.251944 
L 327.767933 349.722778 
L 329.117663 351.683889 
L 329.792529 350.213056 
L 330.467394 352.174167 
L 331.142259 351.193611 
L 331.817125 348.742222 
L 332.49199 350.213056 
L 333.166855 350.703333 
L 333.841721 350.703333 
L 334.516586 351.193611 
L 335.191451 351.193611 
L 335.866316 350.703333 
L 336.541182 351.683889 
L 337.890912 349.722778 
L 338.565778 351.683889 
L 339.240643 352.174167 
L 339.915508 352.174167 
L 340.590374 351.193611 
L 341.940104 344.329722 
L 342.614969 339.426944 
L 345.314431 323.247778 
L 345.989296 321.286667 
L 346.664161 315.403333 
L 347.339027 310.990833 
L 348.013892 308.539444 
L 348.688757 318.835278 
L 349.363622 313.442222 
L 350.038488 323.738056 
L 350.713353 320.306111 
L 351.388218 326.679722 
L 353.412814 317.364444 
L 354.08768 312.951944 
L 355.43741 330.601944 
L 356.112275 334.524167 
L 356.787141 342.858889 
L 358.811737 352.174167 
L 359.486602 352.174167 
L 360.161467 351.193611 
L 361.511198 352.174167 
L 362.860929 352.174167 
L 363.535794 351.193611 
L 364.210659 351.193611 
L 364.885524 352.174167 
L 365.56039 352.174167 
L 366.235255 350.703333 
L 366.91012 351.193611 
L 367.584986 350.703333 
L 368.259851 351.193611 
L 368.934716 352.174167 
L 370.284447 352.174167 
L 370.959312 351.193611 
L 374.333639 331.092222 
L 375.008504 326.189444 
L 377.0331 315.403333 
L 377.707965 311.481111 
L 378.38283 321.286667 
L 379.732561 313.9325 
L 381.757157 304.617222 
L 382.432022 300.695 
L 383.106888 312.951944 
L 383.781753 310.010278 
L 384.456618 305.1075 
L 385.131483 327.660278 
L 385.806349 324.228333 
L 386.481214 329.131111 
L 387.156079 347.271389 
L 387.830945 349.722778 
L 388.50581 351.193611 
L 389.180675 350.703333 
L 389.855541 352.174167 
L 390.530406 351.193611 
L 391.880137 351.193611 
L 392.555002 351.683889 
L 393.904732 351.683889 
L 394.579598 352.174167 
L 395.254463 351.683889 
L 395.929328 352.174167 
L 397.279059 350.213056 
L 397.953924 351.193611 
L 398.62879 348.251944 
L 399.303655 344.329722 
L 399.97852 338.936667 
L 402.003116 326.679722 
L 402.677981 321.776944 
L 403.352847 328.640833 
L 404.027712 325.208889 
L 404.702577 319.815833 
L 408.076904 302.165833 
L 408.751769 298.243611 
L 409.426634 310.500556 
L 410.1015 306.088056 
L 411.45123 300.204722 
L 412.126096 316.874167 
L 412.800961 285.496389 
L 413.475826 331.092222 
L 414.150691 340.897778 
L 414.825557 342.368611 
L 415.500422 349.2325 
L 416.175287 351.193611 
L 416.850153 349.722778 
L 417.525018 351.683889 
L 418.199883 350.213056 
L 418.874749 351.193611 
L 419.549614 348.742222 
L 420.224479 351.683889 
L 420.899345 352.174167 
L 421.57421 351.683889 
L 422.249075 350.213056 
L 422.92394 350.213056 
L 423.598806 350.703333 
L 424.273671 349.722778 
L 424.948536 352.174167 
L 425.623402 351.683889 
L 426.973132 345.310278 
L 427.647998 341.388056 
L 428.322863 336.485278 
L 428.997728 332.563056 
L 429.672593 333.053333 
L 430.347459 324.228333 
L 433.04692 309.029722 
L 433.721785 306.088056 
L 434.396651 315.893611 
L 436.421246 305.597778 
L 437.096112 317.364444 
L 437.770977 311.971389 
L 438.445842 310.010278 
L 439.120708 307.558889 
L 439.795573 303.146389 
L 440.470438 313.9325 
L 441.145304 322.7575 
L 441.820169 320.306111 
L 442.495034 340.4075 
L 443.169899 348.251944 
L 443.844765 346.781111 
L 444.51963 349.2325 
L 445.194495 349.2325 
L 445.869361 348.742222 
L 446.544226 344.329722 
L 447.219091 347.271389 
L 447.893957 345.800556 
L 448.568822 351.193611 
L 449.243687 351.193611 
L 449.918552 352.174167 
L 450.593418 352.174167 
L 451.268283 350.703333 
L 451.943148 352.174167 
L 452.618014 351.193611 
L 453.292879 352.174167 
L 453.967744 352.174167 
L 455.317475 351.193611 
L 455.99234 352.174167 
L 458.016936 352.174167 
L 458.691801 351.193611 
L 459.366667 351.683889 
L 460.716397 342.368611 
L 461.391263 337.956111 
L 462.066128 332.563056 
L 464.090724 320.306111 
L 465.440454 311.971389 
L 466.790185 305.597778 
L 467.46505 314.422778 
L 468.139916 325.208889 
L 468.814781 320.796389 
L 469.489646 293.831111 
L 470.164512 324.228333 
L 470.839377 321.776944 
L 471.514242 317.364444 
L 472.189107 325.699167 
L 473.538838 317.364444 
L 474.213703 325.699167 
L 474.888569 331.092222 
L 475.563434 340.897778 
L 476.238299 345.800556 
L 477.58803 351.683889 
L 478.262895 350.213056 
L 478.93776 352.174167 
L 479.612626 350.703333 
L 480.287491 350.213056 
L 481.637222 352.174167 
L 482.312087 351.683889 
L 482.986952 351.683889 
L 483.661818 351.193611 
L 484.336683 350.213056 
L 485.011548 352.174167 
L 485.686414 352.174167 
L 486.361279 349.722778 
L 487.036144 352.174167 
L 487.711009 352.174167 
L 488.385875 351.683889 
L 489.06074 350.703333 
L 489.735605 351.683889 
L 490.410471 352.174167 
L 491.085336 346.781111 
L 491.760201 342.368611 
L 492.435067 336.975556 
L 494.459662 325.699167 
L 495.134528 320.306111 
L 496.484258 311.481111 
L 497.159124 309.029722 
L 497.833989 305.597778 
L 498.508854 301.185278 
L 499.858585 294.321389 
L 500.53345 291.87 
L 501.208315 305.1075 
L 501.883181 299.714444 
L 502.558046 303.636667 
L 503.232911 293.831111 
L 503.907777 308.539444 
L 504.582642 304.617222 
L 505.257507 316.383889 
L 505.932373 325.208889 
L 506.607238 331.092222 
L 507.282103 325.699167 
L 507.956968 348.251944 
L 508.631834 349.2325 
L 508.631834 349.2325 
" style="fill:none;stroke:#1f77b4;stroke-linecap:square;stroke-width:1.5;"/>
   </g>
   <g id="line2d_13">
    <path clip-path="url(#p54b368140a)" d="M 139.471065 301.185278 
L 140.145931 303.146389 
L 140.820796 302.656111 
L 141.495661 305.1075 
L 142.170527 295.792222 
L 142.845392 315.403333 
L 143.520257 321.286667 
L 144.869988 335.014444 
L 146.219718 338.936667 
L 147.569449 340.897778 
L 148.244314 340.897778 
L 148.91918 341.388056 
L 150.26891 343.349167 
L 150.943775 341.388056 
L 151.618641 341.878333 
L 152.293506 341.388056 
L 152.968371 339.917222 
L 153.643237 308.049167 
L 154.318102 323.247778 
L 154.992967 312.951944 
L 155.667833 295.792222 
L 156.342698 295.301944 
L 157.017563 287.4575 
L 157.692429 292.360278 
L 158.367294 295.792222 
L 159.042159 288.438056 
L 159.717024 294.321389 
L 160.39189 287.947778 
L 161.066755 294.811667 
L 161.74162 295.792222 
L 162.416486 288.928333 
L 163.091351 292.850556 
L 163.766216 295.792222 
L 164.441082 283.535278 
L 165.115947 290.399167 
L 165.790812 280.593611 
L 166.465677 279.122778 
L 167.140543 220.779722 
L 167.815408 284.515833 
L 168.490273 273.729722 
L 169.840004 327.17 
L 170.514869 329.131111 
L 171.189735 334.524167 
L 171.8646 335.014444 
L 172.539465 335.995 
L 173.21433 337.956111 
L 173.889196 338.936667 
L 174.564061 341.388056 
L 175.238926 341.388056 
L 176.588657 342.368611 
L 177.263522 341.878333 
L 177.938388 342.858889 
L 178.613253 343.349167 
L 179.288118 341.878333 
L 179.962983 342.858889 
L 180.637849 341.388056 
L 181.312714 342.368611 
L 181.987579 341.878333 
L 182.662445 351.683889 
L 183.33731 336.975556 
L 184.012175 329.621389 
L 184.687041 328.640833 
L 185.361906 316.874167 
L 186.036771 296.772778 
L 186.711636 302.656111 
L 187.386502 261.963056 
L 188.061367 236.958889 
L 188.736232 302.165833 
L 189.411098 217.347778 
L 190.085963 204.110278 
L 190.760828 212.935278 
L 191.435694 286.967222 
L 192.110559 287.4575 
L 192.785424 161.456111 
L 193.46029 212.445 
L 194.135155 138.413056 
L 194.81002 219.799167 
L 196.159751 236.958889 
L 196.834616 310.500556 
L 197.509481 273.729722 
L 198.184347 286.967222 
L 198.859212 294.811667 
L 199.534077 298.733889 
L 200.208943 307.068611 
L 200.883808 310.990833 
L 201.558673 318.345 
L 202.233538 322.7575 
L 202.908404 326.189444 
L 203.583269 331.092222 
L 204.258134 334.033889 
L 204.933 335.995 
L 206.28273 338.936667 
L 206.957596 338.446389 
L 207.632461 335.014444 
L 208.307326 335.504722 
L 208.982191 337.956111 
L 209.657057 337.956111 
L 210.331922 351.683889 
L 211.006787 333.543611 
L 211.681653 326.189444 
L 212.356518 323.738056 
L 213.031383 297.753333 
L 213.706249 211.954722 
L 214.381114 285.496389 
L 215.055979 228.133889 
L 215.730844 250.686667 
L 216.40571 186.950556 
L 217.080575 193.814444 
L 217.75544 194.795 
L 218.430306 193.324167 
L 219.105171 218.328333 
L 219.780036 284.025556 
L 220.454902 276.181111 
L 221.129767 198.717222 
L 221.804632 188.911667 
L 223.154363 223.721389 
L 223.829228 219.799167 
L 224.504093 50.163056 
L 225.178959 189.401944 
L 225.853824 116.840833 
L 226.528689 245.783889 
L 227.203555 169.790833 
L 228.553285 311.971389 
L 229.903016 327.17 
L 231.927612 335.995 
L 233.277342 339.917222 
L 234.627073 341.878333 
L 235.301938 343.349167 
L 235.976804 342.858889 
L 236.651669 341.878333 
L 237.326534 343.349167 
L 238.001399 342.858889 
L 238.676265 342.858889 
L 239.35113 343.839444 
L 240.025995 343.349167 
L 240.700861 343.349167 
L 241.375726 342.858889 
L 242.050591 350.213056 
L 242.725457 333.053333 
L 243.400322 326.679722 
L 244.075187 324.228333 
L 244.750052 311.481111 
L 245.424918 302.165833 
L 246.099783 310.010278 
L 246.774648 251.667222 
L 247.449514 237.939444 
L 248.124379 235.488056 
L 248.799244 209.503333 
L 249.47411 294.321389 
L 250.148975 298.733889 
L 250.82384 209.013056 
L 251.498706 165.868611 
L 252.173571 233.526944 
L 252.848436 235.488056 
L 253.523301 236.958889 
L 254.198167 294.811667 
L 254.873032 228.133889 
L 255.547897 248.725556 
L 256.222763 225.6825 
L 256.897628 226.172778 
L 257.572493 259.021389 
L 258.247359 145.276944 
L 258.922224 227.153333 
L 259.597089 351.193611 
L 260.271954 314.913056 
L 261.621685 325.699167 
L 262.971416 332.072778 
L 263.646281 337.956111 
L 264.321146 336.975556 
L 264.996012 337.956111 
L 265.670877 339.917222 
L 266.345742 340.897778 
L 267.020607 342.368611 
L 267.695473 343.349167 
L 268.370338 342.858889 
L 270.394934 342.858889 
L 271.069799 343.349167 
L 271.744665 341.878333 
L 273.094395 342.858889 
L 273.76926 342.368611 
L 275.118991 332.072778 
L 275.793856 322.7575 
L 276.468722 309.52 
L 277.143587 251.176944 
L 277.818452 299.224167 
L 278.493318 266.865833 
L 279.168183 295.792222 
L 279.843048 261.472778 
L 280.517914 205.090833 
L 281.192779 207.051944 
L 281.867644 60.949167 
L 282.542509 223.721389 
L 283.217375 175.183889 
L 283.89224 199.2075 
L 284.567105 202.639444 
L 285.241971 151.650556 
L 285.916836 200.188056 
L 286.591701 123.704722 
L 287.266567 194.795 
L 287.941432 209.013056 
L 288.616297 174.693611 
L 289.291162 200.188056 
L 289.966028 198.226944 
L 290.640893 216.8575 
L 291.315758 338.936667 
L 291.990624 310.010278 
L 292.665489 315.403333 
L 293.340354 323.247778 
L 294.01522 326.189444 
L 294.690085 330.111667 
L 296.039815 335.995 
L 296.714681 337.465833 
L 297.389546 339.426944 
L 298.064411 339.917222 
L 298.739277 341.878333 
L 301.438738 341.878333 
L 302.113603 342.368611 
L 303.463334 342.368611 
L 304.138199 341.388056 
L 304.813064 334.033889 
L 305.48793 338.446389 
L 306.162795 335.014444 
L 306.83766 334.033889 
L 307.512526 326.189444 
L 308.187391 313.9325 
L 308.862256 298.733889 
L 309.537122 254.608889 
L 310.211987 265.395 
L 310.886852 232.546389 
L 311.561717 217.838056 
L 312.236583 288.928333 
L 312.911448 261.963056 
L 313.586313 160.475556 
L 314.261179 148.218611 
L 314.936044 212.445 
L 315.610909 258.531111 
L 316.285775 253.138056 
L 316.96064 272.749167 
L 317.635505 211.464444 
L 318.31037 171.751944 
L 318.985236 202.639444 
L 319.660101 276.181111 
L 320.334966 220.289444 
L 321.009832 201.658889 
L 321.684697 283.045 
L 322.359562 253.138056 
L 323.034428 128.6075 
L 323.709293 281.083889 
L 324.384158 210.483889 
L 325.059023 209.993611 
L 325.733889 225.192222 
L 326.408754 225.192222 
L 327.083619 292.850556 
L 327.758485 306.088056 
L 328.43335 299.224167 
L 329.108215 235.978333 
L 329.783081 292.360278 
L 330.457946 291.87 
L 331.132811 227.153333 
L 331.807676 243.3325 
L 332.482542 173.222778 
L 333.157407 133.02 
L 333.832272 197.246389 
L 334.507138 234.997778 
L 335.182003 215.386667 
L 335.856868 141.845 
L 337.206599 293.831111 
L 337.881464 251.667222 
L 338.55633 246.274167 
L 339.231195 297.263056 
L 339.90606 257.060278 
L 340.580925 268.336667 
L 341.255791 291.379722 
L 341.930656 294.811667 
L 342.605521 300.204722 
L 343.280387 308.049167 
L 343.955252 312.461667 
L 344.630117 319.325556 
L 345.979848 329.131111 
L 346.654713 332.563056 
L 347.329578 334.033889 
L 348.004444 336.975556 
L 348.679309 337.956111 
L 349.354174 337.956111 
L 350.02904 338.936667 
L 351.37877 339.917222 
L 352.053636 339.426944 
L 352.728501 338.446389 
L 353.403366 339.917222 
L 354.078231 348.251944 
L 354.753097 332.563056 
L 355.427962 320.306111 
L 357.452558 292.360278 
L 358.127423 276.181111 
L 358.802289 304.617222 
L 359.477154 289.908889 
L 360.152019 253.138056 
L 360.826884 201.168611 
L 361.50175 199.697778 
L 362.176615 236.468611 
L 362.85148 238.429722 
L 363.526346 210.483889 
L 364.201211 279.122778 
L 364.876076 229.114444 
L 365.550942 256.57 
L 366.225807 256.57 
L 366.900672 195.285278 
L 367.575538 204.600556 
L 368.250403 235.978333 
L 368.925268 237.939444 
L 369.600133 287.947778 
L 370.274999 316.874167 
L 370.949864 209.503333 
L 371.624729 297.753333 
L 372.299595 301.675556 
L 372.97446 313.9325 
L 373.649325 313.9325 
L 374.999056 322.267222 
L 375.673921 328.150556 
L 377.023652 332.072778 
L 378.373382 337.465833 
L 379.048248 336.485278 
L 379.723113 337.956111 
L 380.397978 338.446389 
L 381.072844 336.975556 
L 382.422574 337.956111 
L 383.097439 337.956111 
L 383.772305 338.936667 
L 384.44717 336.485278 
L 385.122035 326.679722 
L 385.796901 284.515833 
L 386.471766 311.971389 
L 387.146631 298.243611 
L 387.821497 247.745 
L 388.496362 183.518611 
L 389.171227 220.779722 
L 389.846092 218.328333 
L 390.520958 135.961667 
L 391.195823 189.401944 
L 391.870688 195.775556 
L 392.545554 200.188056 
L 393.220419 219.799167 
L 393.895284 252.647778 
L 394.57015 152.631111 
L 395.245015 138.903333 
L 395.91988 294.811667 
L 396.594746 238.429722 
L 397.269611 197.246389 
L 397.944476 351.683889 
L 398.619341 324.228333 
L 399.294207 333.053333 
L 400.643937 336.975556 
L 401.318803 337.956111 
L 401.993668 337.956111 
L 402.668533 340.897778 
L 403.343399 341.388056 
L 404.018264 338.446389 
L 404.693129 340.897778 
L 405.367994 340.897778 
L 406.04286 342.368611 
L 406.717725 341.878333 
L 407.39259 342.858889 
L 408.742321 342.858889 
L 409.417186 343.839444 
L 410.092052 341.878333 
L 411.441782 343.839444 
L 412.116647 325.208889 
L 412.791513 333.053333 
L 414.141243 318.345 
L 414.816109 279.122778 
L 415.490974 302.656111 
L 416.165839 160.475556 
L 416.840705 235.978333 
L 417.51557 201.658889 
L 418.190435 263.433889 
L 418.8653 299.224167 
L 419.540166 292.850556 
L 420.215031 285.006111 
L 420.889896 209.503333 
L 421.564762 206.071389 
L 422.239627 220.289444 
L 422.914492 191.363056 
L 423.589358 228.624167 
L 424.264223 223.721389 
L 424.939088 279.122778 
L 425.613954 241.861667 
L 426.288819 324.228333 
L 426.963684 330.111667 
L 427.638549 333.053333 
L 428.313415 334.033889 
L 428.98828 335.995 
L 430.338011 337.956111 
L 431.012876 339.426944 
L 431.687741 338.936667 
L 432.362607 341.388056 
L 433.037472 341.388056 
L 433.712337 341.878333 
L 434.387202 340.897778 
L 435.736933 340.897778 
L 436.411798 341.878333 
L 437.086664 341.878333 
L 437.761529 340.897778 
L 438.436394 340.4075 
L 439.11126 341.878333 
L 439.786125 351.683889 
L 440.46099 328.150556 
L 441.135855 319.325556 
L 441.810721 287.947778 
L 442.485586 308.049167 
L 443.160451 306.088056 
L 443.835317 278.6325 
L 444.510182 306.578333 
L 445.185047 249.215833 
L 445.859913 299.714444 
L 446.534778 298.243611 
L 447.209643 310.010278 
L 447.884508 257.060278 
L 448.559374 240.881111 
L 449.234239 217.347778 
L 449.909104 105.074167 
L 450.58397 194.795 
L 451.9337 289.418611 
L 452.608566 287.4575 
L 453.283431 225.6825 
L 453.958296 273.239444 
L 454.633161 198.226944 
L 455.308027 163.417222 
L 455.982892 200.188056 
L 456.657757 167.339444 
L 457.332623 151.160278 
L 458.007488 216.8575 
L 458.682353 215.386667 
L 459.357219 318.835278 
L 460.032084 314.422778 
L 460.706949 321.286667 
L 461.381815 326.189444 
L 462.731545 333.543611 
L 463.40641 336.975556 
L 464.081276 337.956111 
L 464.756141 340.4075 
L 465.431006 340.897778 
L 466.105872 341.878333 
L 466.780737 341.878333 
L 467.455602 342.858889 
L 468.130468 342.368611 
L 468.805333 342.858889 
L 469.480198 342.368611 
L 470.155063 342.858889 
L 470.829929 341.878333 
L 471.504794 342.858889 
L 472.179659 342.858889 
L 472.854525 351.683889 
L 473.52939 334.033889 
L 474.879121 310.500556 
L 475.553986 303.636667 
L 476.228851 293.340833 
L 476.903716 252.1575 
L 477.578582 231.075556 
L 478.253447 137.922778 
L 478.928312 223.721389 
L 479.603178 198.226944 
L 480.278043 177.145 
L 480.952908 203.62 
L 481.627774 186.950556 
L 482.302639 221.27 
L 482.977504 204.600556 
L 483.652369 231.565833 
L 484.327235 159.004722 
L 485.0021 210.483889 
L 485.676965 245.783889 
L 486.351831 266.375556 
L 487.026696 229.604722 
L 488.376427 207.542222 
L 489.051292 121.253333 
L 489.726157 211.954722 
L 490.401023 221.27 
L 491.075888 317.364444 
L 491.750753 326.189444 
L 493.100484 334.033889 
L 493.775349 335.014444 
L 494.450214 337.465833 
L 495.12508 337.956111 
L 495.799945 339.917222 
L 496.47481 340.897778 
L 497.149676 341.388056 
L 497.824541 342.858889 
L 498.499406 343.349167 
L 499.174271 342.858889 
L 500.524002 342.858889 
L 501.198867 341.878333 
L 501.873733 341.388056 
L 502.548598 341.388056 
L 503.223463 341.878333 
L 503.223463 341.878333 
" style="fill:none;stroke:#ff7f0e;stroke-linecap:square;stroke-width:1.5;"/>
   </g>
   <g id="line2d_14">
    <path clip-path="url(#p54b368140a)" d="M 142.163778 303.146389 
L 142.838643 297.753333 
L 143.513509 282.554722 
L 144.188374 283.045 
L 144.863239 278.142222 
L 145.538104 281.574167 
L 146.21297 281.083889 
L 146.887835 281.083889 
L 147.5627 285.986667 
L 148.237566 287.4575 
L 148.912431 296.772778 
L 149.587296 296.2825 
L 150.262162 305.1075 
L 150.937027 311.971389 
L 151.611892 312.951944 
L 152.286757 318.835278 
L 152.961623 314.422778 
L 153.636488 267.356111 
L 154.311353 310.500556 
L 154.986219 310.990833 
L 155.661084 323.247778 
L 156.335949 322.7575 
L 157.68568 322.7575 
L 158.360545 324.718611 
L 159.03541 325.208889 
L 159.710276 327.660278 
L 160.385141 328.150556 
L 161.060006 325.699167 
L 161.734872 327.660278 
L 162.409737 323.247778 
L 163.084602 324.228333 
L 163.759468 332.563056 
L 164.434333 324.718611 
L 165.109198 325.208889 
L 165.784063 325.208889 
L 166.458929 326.189444 
L 167.133794 306.088056 
L 167.808659 326.189444 
L 168.483525 325.208889 
L 169.15839 299.714444 
L 170.508121 317.854722 
L 171.182986 319.325556 
L 172.532716 329.131111 
L 173.882447 333.053333 
L 174.557312 335.995 
L 175.232178 337.956111 
L 175.907043 339.426944 
L 176.581908 339.917222 
L 177.256774 340.897778 
L 177.931639 340.4075 
L 178.606504 340.897778 
L 179.956235 340.897778 
L 180.6311 339.917222 
L 181.305965 340.897778 
L 181.980831 339.917222 
L 182.655696 341.388056 
L 183.330561 337.465833 
L 184.680292 317.364444 
L 185.355157 316.383889 
L 186.030023 311.481111 
L 186.704888 300.695 
L 187.379753 271.768611 
L 188.054618 268.826944 
L 188.729484 311.971389 
L 189.404349 248.235278 
L 190.079214 220.289444 
L 190.75408 234.997778 
L 191.428945 228.133889 
L 192.10381 279.613056 
L 192.778676 241.371389 
L 193.453541 221.760278 
L 194.128406 225.192222 
L 194.803271 219.308889 
L 195.478137 252.647778 
L 196.153002 226.663056 
L 196.827867 351.683889 
L 197.502733 320.796389 
L 198.177598 333.053333 
L 198.852463 334.033889 
L 199.527329 335.995 
L 200.202194 336.975556 
L 200.877059 338.446389 
L 201.551924 338.936667 
L 202.22679 340.4075 
L 203.57652 339.426944 
L 204.926251 342.368611 
L 205.601116 341.878333 
L 207.625712 341.878333 
L 208.300578 340.4075 
L 208.975443 341.878333 
L 210.325173 341.878333 
L 211.000039 340.4075 
L 211.674904 331.092222 
L 212.349769 327.660278 
L 213.024635 314.422778 
L 213.6995 271.278333 
L 214.374365 318.835278 
L 215.049231 280.103333 
L 215.724096 288.928333 
L 216.398961 239.410278 
L 217.073826 247.745 
L 217.748692 248.725556 
L 218.423557 243.3325 
L 219.098422 222.250556 
L 219.773288 298.733889 
L 220.448153 265.885278 
L 221.123018 255.099167 
L 221.797884 241.371389 
L 222.472749 243.3325 
L 223.147614 231.565833 
L 223.822479 305.597778 
L 224.497345 241.371389 
L 225.17221 258.531111 
L 225.847075 183.518611 
L 226.521941 220.779722 
L 227.196806 227.643611 
L 227.871671 351.683889 
L 228.546537 299.224167 
L 229.221402 316.383889 
L 229.896267 319.325556 
L 231.245998 326.679722 
L 231.920863 329.131111 
L 233.270594 335.014444 
L 233.945459 336.485278 
L 234.620324 338.936667 
L 235.29519 339.917222 
L 235.970055 342.368611 
L 236.64492 340.897778 
L 237.319786 334.524167 
L 237.994651 341.878333 
L 240.019247 341.878333 
L 240.694112 342.858889 
L 241.368977 340.4075 
L 242.043843 340.4075 
L 242.718708 330.111667 
L 243.393573 322.7575 
L 244.068439 311.971389 
L 244.743304 305.1075 
L 245.418169 290.399167 
L 246.093034 289.418611 
L 246.7679 246.764444 
L 247.442765 187.931111 
L 248.11763 274.22 
L 248.792496 228.624167 
L 249.467361 300.695 
L 250.142226 296.2825 
L 250.817092 228.133889 
L 251.491957 220.779722 
L 252.166822 237.939444 
L 252.841687 237.449167 
L 253.516553 240.390833 
L 254.191418 290.889444 
L 254.866283 221.27 
L 255.541149 267.356111 
L 256.890879 219.308889 
L 257.565745 218.818611 
L 258.24061 206.561667 
L 258.915475 220.779722 
L 259.59034 273.729722 
L 260.265206 314.913056 
L 260.940071 322.7575 
L 261.614936 323.738056 
L 262.964667 332.072778 
L 265.664128 339.917222 
L 267.688724 342.858889 
L 268.363589 342.858889 
L 269.038455 343.349167 
L 269.71332 341.878333 
L 270.388185 342.858889 
L 271.063051 341.878333 
L 271.737916 341.878333 
L 273.087647 342.858889 
L 273.762512 339.917222 
L 274.437377 337.956111 
L 275.112242 332.563056 
L 275.787108 315.893611 
L 276.461973 303.636667 
L 277.136838 264.414444 
L 277.811704 305.1075 
L 278.486569 278.142222 
L 279.161434 309.029722 
L 279.8363 286.476944 
L 280.511165 152.140833 
L 281.18603 234.997778 
L 281.860895 217.838056 
L 282.535761 246.274167 
L 283.210626 261.472778 
L 283.885491 211.464444 
L 284.560357 142.335278 
L 285.235222 196.756111 
L 285.910087 234.997778 
L 286.584953 207.051944 
L 287.259818 274.22 
L 287.934683 221.27 
L 288.609548 239.900556 
L 289.284414 238.429722 
L 290.634144 194.304722 
L 291.30901 337.465833 
L 291.983875 321.776944 
L 292.65874 328.640833 
L 293.333606 328.150556 
L 294.008471 331.5825 
L 294.683336 331.5825 
L 295.358202 333.053333 
L 296.033067 335.504722 
L 296.707932 336.975556 
L 297.382797 337.956111 
L 298.057663 339.917222 
L 298.732528 341.388056 
L 299.407393 340.4075 
L 300.757124 340.4075 
L 301.431989 341.878333 
L 302.106855 341.878333 
L 302.78172 341.388056 
L 303.456585 342.368611 
L 304.13145 341.878333 
L 304.806316 341.878333 
L 305.481181 339.917222 
L 306.156046 335.504722 
L 306.830912 332.072778 
L 307.505777 320.306111 
L 308.180642 304.126944 
L 308.855508 300.204722 
L 309.530373 265.395 
L 310.205238 283.045 
L 310.880103 227.643611 
L 311.554969 209.013056 
L 312.229834 297.753333 
L 312.904699 273.729722 
L 313.579565 133.02 
L 314.25443 208.0325 
L 314.929295 208.522778 
L 316.279026 247.745 
L 316.953891 274.22 
L 317.628756 252.1575 
L 318.303622 155.572778 
L 318.978487 213.425556 
L 319.653352 302.165833 
L 320.328218 254.118611 
L 321.003083 262.943611 
L 321.677948 305.597778 
L 322.352814 308.049167 
L 323.027679 250.686667 
L 323.702544 301.675556 
L 324.37741 304.126944 
L 325.052275 252.1575 
L 325.72714 259.021389 
L 326.402005 252.647778 
L 327.076871 298.733889 
L 327.751736 313.442222 
L 328.426601 301.675556 
L 329.101467 233.036667 
L 329.776332 290.399167 
L 330.451197 291.379722 
L 331.126063 256.079722 
L 331.800928 256.57 
L 332.475793 259.021389 
L 333.150658 234.997778 
L 333.825524 215.876944 
L 334.500389 205.090833 
L 335.175254 231.075556 
L 335.85012 127.626944 
L 336.524985 192.343611 
L 337.19985 200.188056 
L 337.874716 186.460278 
L 338.549581 164.397778 
L 339.899311 208.522778 
L 340.574177 308.539444 
L 341.249042 330.601944 
L 342.598773 337.465833 
L 343.273638 337.956111 
L 344.623369 339.917222 
L 345.298234 341.388056 
L 345.973099 340.897778 
L 346.647964 341.878333 
L 347.32283 342.368611 
L 347.997695 343.839444 
L 348.67256 342.858889 
L 349.347426 343.839444 
L 350.022291 342.368611 
L 350.697156 342.858889 
L 351.372022 343.839444 
L 352.046887 342.368611 
L 352.721752 342.858889 
L 353.396618 342.368611 
L 354.071483 351.683889 
L 354.746348 340.4075 
L 355.421213 332.072778 
L 356.096079 318.345 
L 356.770944 312.951944 
L 357.445809 304.617222 
L 358.120675 275.200556 
L 358.79554 276.181111 
L 359.470405 295.792222 
L 360.145271 263.433889 
L 360.820136 214.406111 
L 361.495001 236.958889 
L 362.169866 186.950556 
L 362.844732 254.118611 
L 363.519597 175.674167 
L 364.194462 268.826944 
L 364.869328 198.717222 
L 366.219058 250.196389 
L 366.893924 187.931111 
L 367.568789 222.250556 
L 368.243654 227.153333 
L 368.918519 262.943611 
L 370.26825 315.893611 
L 370.943115 300.204722 
L 371.617981 323.738056 
L 372.292846 326.189444 
L 372.967711 330.111667 
L 373.642577 331.092222 
L 374.317442 331.092222 
L 374.992307 333.053333 
L 375.667172 333.053333 
L 376.342038 335.014444 
L 377.691768 336.975556 
L 378.366634 338.446389 
L 380.39123 339.917222 
L 382.415826 339.917222 
L 383.090691 338.446389 
L 383.765556 338.936667 
L 384.440421 337.465833 
L 385.115287 330.601944 
L 385.790152 315.403333 
L 386.465017 308.539444 
L 387.139883 295.301944 
L 387.814748 213.425556 
L 388.489613 197.246389 
L 389.164479 232.546389 
L 389.839344 224.701944 
L 390.514209 239.900556 
L 391.189074 231.075556 
L 391.86394 232.056111 
L 392.538805 235.488056 
L 393.21367 221.27 
L 393.888536 275.690833 
L 394.563401 226.663056 
L 395.238266 241.861667 
L 395.913132 300.204722 
L 396.587997 257.550556 
L 397.262862 242.842222 
L 397.937727 311.971389 
L 398.612593 275.690833 
L 399.287458 297.753333 
L 399.962323 302.656111 
L 400.637189 311.481111 
L 401.312054 318.345 
L 401.986919 320.306111 
L 402.661785 326.189444 
L 403.33665 331.092222 
L 404.011515 326.189444 
L 404.68638 330.111667 
L 405.361246 332.072778 
L 406.036111 335.504722 
L 406.710976 335.995 
L 407.385842 337.956111 
L 408.060707 339.426944 
L 408.735572 339.917222 
L 409.410438 340.897778 
L 410.085303 339.426944 
L 410.760168 339.917222 
L 411.435034 351.683889 
L 412.109899 339.426944 
L 412.784764 324.718611 
L 413.459629 321.286667 
L 414.134495 314.913056 
L 414.80936 273.729722 
L 415.484225 291.379722 
L 416.159091 230.585278 
L 416.833956 202.149167 
L 417.508821 195.775556 
L 418.183687 209.013056 
L 418.858552 284.515833 
L 419.533417 280.103333 
L 420.208282 285.986667 
L 420.883148 167.829722 
L 421.558013 191.363056 
L 422.232878 152.140833 
L 422.907744 234.5075 
L 423.582609 253.138056 
L 424.257474 210.974167 
L 424.93234 279.122778 
L 425.607205 223.721389 
L 426.28207 270.297778 
L 426.956935 296.2825 
L 427.631801 301.675556 
L 428.981531 314.913056 
L 429.656397 320.306111 
L 430.331262 324.228333 
L 431.006127 327.17 
L 431.680993 331.5825 
L 432.355858 334.033889 
L 433.030723 336.975556 
L 433.705588 338.936667 
L 434.380454 337.465833 
L 435.055319 336.975556 
L 435.730184 337.956111 
L 436.40505 339.426944 
L 437.75478 338.446389 
L 438.429646 336.975556 
L 439.104511 338.936667 
L 439.779376 339.426944 
L 440.454241 330.601944 
L 441.129107 324.228333 
L 441.803972 307.558889 
L 442.478837 312.951944 
L 443.153703 310.500556 
L 443.828568 272.258889 
L 444.503433 303.146389 
L 445.178299 250.686667 
L 445.853164 299.224167 
L 446.528029 302.165833 
L 447.202895 313.9325 
L 447.87776 247.254722 
L 448.552625 253.138056 
L 449.22749 264.414444 
L 449.902356 200.188056 
L 450.577221 252.1575 
L 451.252086 262.943611 
L 451.926952 310.010278 
L 452.601817 302.656111 
L 453.276682 263.924167 
L 453.951548 299.714444 
L 454.626413 263.924167 
L 455.301278 304.126944 
L 456.651009 216.8575 
L 457.325874 283.045 
L 458.000739 279.122778 
L 458.675605 266.375556 
L 459.35047 335.504722 
L 460.025335 326.189444 
L 460.700201 326.189444 
L 461.375066 326.679722 
L 462.049931 326.189444 
L 462.724796 330.111667 
L 463.399662 332.072778 
L 464.074527 335.014444 
L 464.749392 336.975556 
L 466.099123 339.917222 
L 466.773988 340.897778 
L 467.448854 340.4075 
L 468.123719 341.878333 
L 468.798584 340.897778 
L 469.473449 341.878333 
L 470.148315 341.878333 
L 470.82318 342.858889 
L 471.498045 341.388056 
L 472.172911 341.878333 
L 472.847776 351.683889 
L 473.522641 337.956111 
L 474.872372 320.306111 
L 475.547237 314.913056 
L 476.222103 290.889444 
L 476.896968 297.753333 
L 477.571833 238.429722 
L 478.246698 245.293611 
L 478.921564 211.464444 
L 480.271294 187.931111 
L 480.94616 232.546389 
L 481.621025 255.099167 
L 482.29589 209.993611 
L 482.970756 179.596389 
L 483.645621 157.533889 
L 484.320486 231.565833 
L 484.995351 228.133889 
L 485.670217 235.978333 
L 486.345082 268.826944 
L 487.019947 224.211667 
L 487.694813 235.488056 
L 488.369678 242.351944 
L 489.044543 215.386667 
L 489.719409 229.114444 
L 490.394274 184.499167 
L 491.069139 308.049167 
L 491.744004 315.893611 
L 492.41887 319.325556 
L 493.093735 325.208889 
L 495.118331 334.033889 
L 497.142927 339.917222 
L 497.817792 340.897778 
L 498.492657 340.897778 
L 499.167523 341.878333 
L 501.192119 341.878333 
L 501.866984 340.897778 
L 502.541849 340.897778 
L 503.216715 341.878333 
L 503.89158 341.878333 
L 504.566445 351.683889 
L 505.241311 335.995 
L 505.916176 332.072778 
L 505.916176 332.072778 
" style="fill:none;stroke:#2ca02c;stroke-linecap:square;stroke-width:1.5;"/>
   </g>
   <g id="line2d_15">
    <path clip-path="url(#p54b368140a)" d="M 147.568099 336.975556 
L 150.26756 323.738056 
L 150.942426 329.131111 
L 151.617291 326.189444 
L 152.292156 332.072778 
L 152.967022 335.995 
L 153.641887 333.053333 
L 154.991618 340.4075 
L 155.666483 340.897778 
L 156.341348 342.368611 
L 157.016213 339.426944 
L 157.691079 335.504722 
L 158.365944 338.936667 
L 159.040809 341.388056 
L 159.715675 343.349167 
L 160.39054 339.917222 
L 161.065405 341.388056 
L 161.740271 337.956111 
L 162.415136 340.4075 
L 163.090001 341.388056 
L 163.764866 338.936667 
L 164.439732 340.4075 
L 165.114597 346.290833 
L 165.789462 346.290833 
L 166.464328 346.781111 
L 167.139193 338.446389 
L 167.814058 343.839444 
L 168.488924 344.82 
L 169.163789 343.349167 
L 169.838654 340.4075 
L 173.212981 318.835278 
L 174.562711 310.990833 
L 175.237577 308.539444 
L 177.262173 297.263056 
L 178.611903 289.908889 
L 179.286768 285.986667 
L 179.961634 301.675556 
L 180.636499 296.2825 
L 181.311364 310.990833 
L 182.661095 304.617222 
L 183.33596 316.383889 
L 184.010826 324.718611 
L 184.685691 331.5825 
L 185.360556 336.485278 
L 186.035421 339.426944 
L 186.710287 344.82 
L 187.385152 348.251944 
L 188.060017 348.742222 
L 188.734883 352.174167 
L 189.409748 352.174167 
L 190.084613 351.193611 
L 190.759479 352.174167 
L 191.434344 351.683889 
L 192.109209 350.703333 
L 192.784074 351.683889 
L 193.45894 350.213056 
L 194.133805 351.193611 
L 194.80867 351.193611 
L 195.483536 352.174167 
L 196.158401 352.174167 
L 197.508132 351.193611 
L 198.182997 348.742222 
L 200.882458 331.5825 
L 204.93165 308.539444 
L 205.606515 319.325556 
L 206.281381 315.403333 
L 206.956246 324.718611 
L 207.631111 320.306111 
L 208.305976 316.874167 
L 208.980842 311.971389 
L 209.655707 309.52 
L 210.330572 306.578333 
L 211.005438 317.364444 
L 213.030034 341.388056 
L 213.704899 344.82 
L 214.379764 351.193611 
L 215.054629 346.781111 
L 215.729495 350.703333 
L 216.40436 352.174167 
L 217.079225 351.683889 
L 217.754091 351.683889 
L 218.428956 350.703333 
L 219.103821 351.683889 
L 219.778687 352.174167 
L 220.453552 351.683889 
L 221.128417 351.683889 
L 221.803282 351.193611 
L 222.478148 352.174167 
L 223.153013 351.683889 
L 223.827878 351.683889 
L 224.502744 349.722778 
L 225.177609 351.683889 
L 225.852474 351.193611 
L 226.52734 351.193611 
L 227.87707 352.174167 
L 228.551936 349.2325 
L 230.576531 335.504722 
L 231.926262 325.699167 
L 233.950858 313.9325 
L 235.300589 307.558889 
L 235.975454 303.146389 
L 236.650319 299.714444 
L 237.325184 314.422778 
L 238.674915 304.126944 
L 239.34978 318.345 
L 240.024646 312.951944 
L 240.699511 322.267222 
L 241.374376 317.854722 
L 242.049242 314.422778 
L 242.724107 324.228333 
L 243.398972 331.092222 
L 244.073837 335.504722 
L 244.748703 338.446389 
L 245.423568 345.310278 
L 246.098433 348.742222 
L 246.773299 349.722778 
L 247.448164 352.174167 
L 248.123029 351.193611 
L 248.797895 352.174167 
L 249.47276 351.193611 
L 250.147625 352.174167 
L 250.82249 348.742222 
L 251.497356 350.213056 
L 252.172221 351.193611 
L 252.847086 350.703333 
L 253.521952 350.703333 
L 254.196817 352.174167 
L 254.871682 351.193611 
L 255.546548 350.703333 
L 256.221413 352.174167 
L 256.896278 351.193611 
L 258.246009 352.174167 
L 259.595739 352.174167 
L 260.94547 342.858889 
L 262.970066 328.640833 
L 264.994662 315.403333 
L 265.669527 313.9325 
L 266.344392 307.558889 
L 267.019258 304.617222 
L 267.694123 305.1075 
L 268.368988 296.772778 
L 269.043854 309.52 
L 269.718719 303.636667 
L 270.393584 286.476944 
L 271.06845 312.951944 
L 271.743315 308.049167 
L 272.41818 304.617222 
L 273.093045 302.165833 
L 274.442776 321.286667 
L 275.117641 329.131111 
L 275.792507 323.247778 
L 276.467372 330.601944 
L 277.142237 330.601944 
L 277.817103 346.290833 
L 278.491968 350.703333 
L 279.166833 352.174167 
L 279.841698 351.683889 
L 280.516564 350.703333 
L 281.191429 350.213056 
L 281.866294 350.703333 
L 282.54116 352.174167 
L 283.216025 350.703333 
L 283.89089 351.193611 
L 284.565756 352.174167 
L 285.240621 352.174167 
L 285.915486 351.193611 
L 286.590352 349.2325 
L 287.265217 352.174167 
L 287.940082 350.703333 
L 288.614947 352.174167 
L 289.289813 352.174167 
L 289.964678 350.213056 
L 290.639543 351.193611 
L 291.314409 351.193611 
L 291.989274 345.800556 
L 297.388196 310.990833 
L 298.737927 305.597778 
L 299.412792 301.185278 
L 300.087658 310.010278 
L 300.762523 305.1075 
L 301.437388 302.165833 
L 302.112253 302.165833 
L 302.787119 296.772778 
L 303.461984 311.481111 
L 304.811715 305.1075 
L 305.48658 300.204722 
L 306.161445 307.068611 
L 306.836311 331.5825 
L 307.511176 336.485278 
L 308.186041 339.426944 
L 308.860906 345.800556 
L 309.535772 348.742222 
L 310.210637 349.2325 
L 310.885502 351.683889 
L 311.560368 351.193611 
L 312.910098 351.193611 
L 313.584964 349.2325 
L 314.259829 351.193611 
L 314.934694 352.174167 
L 315.60956 350.703333 
L 316.284425 350.703333 
L 316.95929 349.722778 
L 317.634155 352.174167 
L 318.309021 351.193611 
L 318.983886 352.174167 
L 320.333617 350.213056 
L 321.008482 352.174167 
L 321.683347 351.683889 
L 322.358213 352.174167 
L 323.707943 352.174167 
L 324.382808 350.213056 
L 325.057674 349.2325 
L 325.732539 350.213056 
L 326.407404 348.251944 
L 327.757135 352.174167 
L 328.432 350.213056 
L 329.106866 347.761667 
L 329.781731 351.193611 
L 330.456596 351.193611 
L 331.131461 349.2325 
L 331.806327 351.193611 
L 332.481192 352.174167 
L 333.156057 350.703333 
L 333.830923 352.174167 
L 335.180653 351.193611 
L 335.855519 351.193611 
L 336.530384 350.703333 
L 337.205249 351.193611 
L 337.880114 352.174167 
L 338.55498 352.174167 
L 340.579576 350.703333 
L 341.254441 347.761667 
L 343.279037 335.504722 
L 343.953902 330.111667 
L 344.628767 327.17 
L 345.978498 318.345 
L 346.653363 317.364444 
L 347.328229 310.500556 
L 348.003094 307.068611 
L 348.677959 305.1075 
L 350.02769 295.792222 
L 350.702555 293.831111 
L 351.377421 289.908889 
L 352.052286 301.185278 
L 352.727151 297.263056 
L 353.402016 310.500556 
L 354.076882 307.558889 
L 354.751747 318.345 
L 355.426612 327.17 
L 356.101478 333.543611 
L 356.776343 342.368611 
L 357.451208 343.349167 
L 358.800939 349.722778 
L 359.475804 351.193611 
L 360.150669 350.703333 
L 360.825535 350.703333 
L 361.5004 352.174167 
L 362.175265 352.174167 
L 362.850131 351.193611 
L 363.524996 351.193611 
L 364.874727 352.174167 
L 365.549592 351.193611 
L 366.224457 352.174167 
L 366.899322 349.722778 
L 367.574188 352.174167 
L 368.249053 350.213056 
L 368.923918 352.174167 
L 370.273649 352.174167 
L 370.948514 351.193611 
L 371.62338 347.761667 
L 373.647975 335.014444 
L 374.322841 331.5825 
L 374.997706 326.679722 
L 375.672571 322.7575 
L 376.347437 317.854722 
L 377.022302 315.893611 
L 377.697167 311.971389 
L 378.372033 309.029722 
L 379.046898 305.1075 
L 379.721763 294.321389 
L 380.396629 311.971389 
L 381.071494 308.539444 
L 381.746359 319.815833 
L 382.421224 316.874167 
L 383.09609 312.461667 
L 384.44582 306.088056 
L 385.120686 316.383889 
L 385.795551 306.578333 
L 386.470416 337.465833 
L 387.145282 344.329722 
L 387.820147 345.800556 
L 388.495012 350.213056 
L 389.169877 352.174167 
L 389.844743 350.703333 
L 390.519608 350.703333 
L 391.194473 352.174167 
L 391.869339 351.683889 
L 392.544204 351.683889 
L 393.219069 352.174167 
L 393.893935 352.174167 
L 394.5688 350.703333 
L 395.243665 350.703333 
L 395.91853 352.174167 
L 397.943126 352.174167 
L 399.292857 345.800556 
L 399.967722 340.897778 
L 402.667183 324.718611 
L 403.342049 330.111667 
L 404.016914 325.699167 
L 404.691779 322.267222 
L 405.366645 317.364444 
L 407.391241 307.068611 
L 408.066106 319.815833 
L 408.740971 313.442222 
L 410.090702 307.068611 
L 410.765567 318.345 
L 411.440432 314.913056 
L 412.115298 323.247778 
L 412.790163 306.088056 
L 413.465028 335.995 
L 414.139894 341.388056 
L 414.814759 339.917222 
L 415.489624 348.742222 
L 416.16449 343.349167 
L 416.839355 352.174167 
L 417.51422 350.703333 
L 418.189085 350.213056 
L 418.863951 352.174167 
L 422.238277 352.174167 
L 422.913143 351.683889 
L 423.588008 352.174167 
L 424.262873 351.193611 
L 424.937738 352.174167 
L 426.287469 350.213056 
L 426.962334 347.271389 
L 430.336661 325.699167 
L 431.011526 322.267222 
L 431.686391 317.854722 
L 433.036122 311.481111 
L 433.710987 306.578333 
L 434.385853 316.874167 
L 435.735583 310.010278 
L 436.410449 308.049167 
L 437.085314 322.267222 
L 437.760179 313.9325 
L 439.784775 304.126944 
L 440.45964 314.913056 
L 441.134506 323.247778 
L 441.809371 323.247778 
L 442.484236 340.4075 
L 443.159102 346.781111 
L 443.833967 346.290833 
L 444.508832 346.290833 
L 445.183698 349.2325 
L 446.533428 348.251944 
L 447.208293 346.781111 
L 448.558024 351.683889 
L 449.232889 350.703333 
L 449.907755 352.174167 
L 450.58262 350.703333 
L 451.257485 352.174167 
L 453.956946 352.174167 
L 454.631812 351.193611 
L 455.306677 350.703333 
L 455.981542 351.683889 
L 456.656408 351.193611 
L 457.331273 352.174167 
L 458.006138 351.193611 
L 458.681004 349.2325 
L 459.355869 350.213056 
L 460.030734 346.290833 
L 462.05533 331.5825 
L 462.730195 327.660278 
L 464.079926 318.345 
L 465.429657 310.990833 
L 466.104522 314.422778 
L 466.779387 304.126944 
L 467.454253 299.714444 
L 470.153714 285.496389 
L 470.828579 301.185278 
L 471.503444 295.792222 
L 472.17831 252.647778 
L 472.853175 306.578333 
L 473.52804 303.146389 
L 474.202906 318.345 
L 474.877771 326.189444 
L 475.552636 338.936667 
L 476.227501 345.310278 
L 476.902367 347.761667 
L 477.577232 349.2325 
L 478.252097 351.193611 
L 478.926963 352.174167 
L 479.601828 350.703333 
L 480.276693 352.174167 
L 481.626424 352.174167 
L 482.301289 350.213056 
L 482.976154 351.193611 
L 483.65102 351.683889 
L 484.325885 351.193611 
L 485.00075 352.174167 
L 485.675616 352.174167 
L 486.350481 351.683889 
L 487.025346 352.174167 
L 487.700212 351.193611 
L 488.375077 351.683889 
L 489.049942 351.193611 
L 489.724807 351.193611 
L 490.399673 352.174167 
L 491.074538 346.290833 
L 492.424269 336.975556 
L 495.12373 319.325556 
L 495.798595 317.854722 
L 496.473461 311.481111 
L 497.823191 304.126944 
L 498.498056 314.913056 
L 499.172922 313.442222 
L 499.847787 325.699167 
L 500.522652 317.854722 
L 501.197518 325.208889 
L 502.547248 317.854722 
L 505.246709 303.636667 
L 506.59644 323.247778 
L 507.271305 325.208889 
L 507.946171 344.82 
L 508.621036 348.251944 
L 509.970767 351.193611 
L 510.645632 351.193611 
L 511.320497 352.174167 
L 511.320497 352.174167 
" style="fill:none;stroke:#d62728;stroke-linecap:square;stroke-width:1.5;"/>
   </g>
   <g id="patch_3">
    <path d="M 120.878594 352.174167 
L 120.878594 35.0625 
" style="fill:none;stroke:#000000;stroke-linecap:square;stroke-linejoin:miter;stroke-width:0.8;"/>
   </g>
   <g id="patch_4">
    <path d="M 529.912969 352.174167 
L 529.912969 35.0625 
" style="fill:none;stroke:#000000;stroke-linecap:square;stroke-linejoin:miter;stroke-width:0.8;"/>
   </g>
   <g id="patch_5">
    <path d="M 120.878594 352.174167 
L 529.912969 352.174167 
" style="fill:none;stroke:#000000;stroke-linecap:square;stroke-linejoin:miter;stroke-width:0.8;"/>
   </g>
   <g id="patch_6">
    <path d="M 120.878594 35.0625 
L 529.912969 35.0625 
" style="fill:none;stroke:#000000;stroke-linecap:square;stroke-linejoin:miter;stroke-width:0.8;"/>
   </g>
   <g id="legend_1">
    <g id="patch_7">
     <path d="M 552.364687 96.775 
L 623.56 96.775 
Q 625.56 96.775 625.56 94.775 
L 625.56 37.0625 
Q 625.56 35.0625 623.56 35.0625 
L 552.364687 35.0625 
Q 550.364687 35.0625 550.364687 37.0625 
L 550.364687 94.775 
Q 550.364687 96.775 552.364687 96.775 
z
" style="fill:#ffffff;opacity:0.8;stroke:#cccccc;stroke-linejoin:miter;"/>
    </g>
    <g id="line2d_16">
     <path d="M 554.364687 43.160937 
L 574.364687 43.160937 
" style="fill:none;stroke:#1f77b4;stroke-linecap:square;stroke-width:1.5;"/>
    </g>
    <g id="line2d_17"/>
    <g id="text_13">
     <!-- cubic-pi -->
     <defs>
      <path d="M 48.78125 52.59375 
L 48.78125 44.1875 
Q 44.96875 46.296875 41.140625 47.34375 
Q 37.3125 48.390625 33.40625 48.390625 
Q 24.65625 48.390625 19.8125 42.84375 
Q 14.984375 37.3125 14.984375 27.296875 
Q 14.984375 17.28125 19.8125 11.734375 
Q 24.65625 6.203125 33.40625 6.203125 
Q 37.3125 6.203125 41.140625 7.25 
Q 44.96875 8.296875 48.78125 10.40625 
L 48.78125 2.09375 
Q 45.015625 0.34375 40.984375 -0.53125 
Q 36.96875 -1.421875 32.421875 -1.421875 
Q 20.0625 -1.421875 12.78125 6.34375 
Q 5.515625 14.109375 5.515625 27.296875 
Q 5.515625 40.671875 12.859375 48.328125 
Q 20.21875 56 33.015625 56 
Q 37.15625 56 41.109375 55.140625 
Q 45.0625 54.296875 48.78125 52.59375 
z
" id="DejaVuSans-99"/>
      <path d="M 8.5 21.578125 
L 8.5 54.6875 
L 17.484375 54.6875 
L 17.484375 21.921875 
Q 17.484375 14.15625 20.5 10.265625 
Q 23.53125 6.390625 29.59375 6.390625 
Q 36.859375 6.390625 41.078125 11.03125 
Q 45.3125 15.671875 45.3125 23.6875 
L 45.3125 54.6875 
L 54.296875 54.6875 
L 54.296875 0 
L 45.3125 0 
L 45.3125 8.40625 
Q 42.046875 3.421875 37.71875 1 
Q 33.40625 -1.421875 27.6875 -1.421875 
Q 18.265625 -1.421875 13.375 4.4375 
Q 8.5 10.296875 8.5 21.578125 
z
M 31.109375 56 
z
" id="DejaVuSans-117"/>
      <path d="M 4.890625 31.390625 
L 31.203125 31.390625 
L 31.203125 23.390625 
L 4.890625 23.390625 
z
" id="DejaVuSans-45"/>
      <path d="M 18.109375 8.203125 
L 18.109375 -20.796875 
L 9.078125 -20.796875 
L 9.078125 54.6875 
L 18.109375 54.6875 
L 18.109375 46.390625 
Q 20.953125 51.265625 25.265625 53.625 
Q 29.59375 56 35.59375 56 
Q 45.5625 56 51.78125 48.09375 
Q 58.015625 40.1875 58.015625 27.296875 
Q 58.015625 14.40625 51.78125 6.484375 
Q 45.5625 -1.421875 35.59375 -1.421875 
Q 29.59375 -1.421875 25.265625 0.953125 
Q 20.953125 3.328125 18.109375 8.203125 
z
M 48.6875 27.296875 
Q 48.6875 37.203125 44.609375 42.84375 
Q 40.53125 48.484375 33.40625 48.484375 
Q 26.265625 48.484375 22.1875 42.84375 
Q 18.109375 37.203125 18.109375 27.296875 
Q 18.109375 17.390625 22.1875 11.75 
Q 26.265625 6.109375 33.40625 6.109375 
Q 40.53125 6.109375 44.609375 11.75 
Q 48.6875 17.390625 48.6875 27.296875 
z
" id="DejaVuSans-112"/>
     </defs>
     <g transform="translate(582.364687 46.660937)scale(0.1 -0.1)">
      <use xlink:href="#DejaVuSans-99"/>
      <use x="54.980469" xlink:href="#DejaVuSans-117"/>
      <use x="118.359375" xlink:href="#DejaVuSans-98"/>
      <use x="181.835938" xlink:href="#DejaVuSans-105"/>
      <use x="209.619141" xlink:href="#DejaVuSans-99"/>
      <use x="264.599609" xlink:href="#DejaVuSans-45"/>
      <use x="300.683594" xlink:href="#DejaVuSans-112"/>
      <use x="364.160156" xlink:href="#DejaVuSans-105"/>
     </g>
    </g>
    <g id="line2d_18">
     <path d="M 554.364687 57.839063 
L 574.364687 57.839063 
" style="fill:none;stroke:#ff7f0e;stroke-linecap:square;stroke-width:1.5;"/>
    </g>
    <g id="line2d_19"/>
    <g id="text_14">
     <!-- bbr-pi -->
     <defs>
      <path d="M 41.109375 46.296875 
Q 39.59375 47.171875 37.8125 47.578125 
Q 36.03125 48 33.890625 48 
Q 26.265625 48 22.1875 43.046875 
Q 18.109375 38.09375 18.109375 28.8125 
L 18.109375 0 
L 9.078125 0 
L 9.078125 54.6875 
L 18.109375 54.6875 
L 18.109375 46.1875 
Q 20.953125 51.171875 25.484375 53.578125 
Q 30.03125 56 36.53125 56 
Q 37.453125 56 38.578125 55.875 
Q 39.703125 55.765625 41.0625 55.515625 
z
" id="DejaVuSans-114"/>
     </defs>
     <g transform="translate(582.364687 61.339063)scale(0.1 -0.1)">
      <use xlink:href="#DejaVuSans-98"/>
      <use x="63.476562" xlink:href="#DejaVuSans-98"/>
      <use x="126.953125" xlink:href="#DejaVuSans-114"/>
      <use x="167.972656" xlink:href="#DejaVuSans-45"/>
      <use x="204.056641" xlink:href="#DejaVuSans-112"/>
      <use x="267.533203" xlink:href="#DejaVuSans-105"/>
     </g>
    </g>
    <g id="line2d_20">
     <path d="M 554.364687 72.517187 
L 574.364687 72.517187 
" style="fill:none;stroke:#2ca02c;stroke-linecap:square;stroke-width:1.5;"/>
    </g>
    <g id="line2d_21"/>
    <g id="text_15">
     <!-- bbr-pi -->
     <g transform="translate(582.364687 76.017187)scale(0.1 -0.1)">
      <use xlink:href="#DejaVuSans-98"/>
      <use x="63.476562" xlink:href="#DejaVuSans-98"/>
      <use x="126.953125" xlink:href="#DejaVuSans-114"/>
      <use x="167.972656" xlink:href="#DejaVuSans-45"/>
      <use x="204.056641" xlink:href="#DejaVuSans-112"/>
      <use x="267.533203" xlink:href="#DejaVuSans-105"/>
     </g>
    </g>
    <g id="line2d_22">
     <path d="M 554.364687 87.195312 
L 574.364687 87.195312 
" style="fill:none;stroke:#d62728;stroke-linecap:square;stroke-width:1.5;"/>
    </g>
    <g id="line2d_23"/>
    <g id="text_16">
     <!-- cubic-pi -->
     <g transform="translate(582.364687 90.695312)scale(0.1 -0.1)">
      <use xlink:href="#DejaVuSans-99"/>
      <use x="54.980469" xlink:href="#DejaVuSans-117"/>
      <use x="118.359375" xlink:href="#DejaVuSans-98"/>
      <use x="181.835938" xlink:href="#DejaVuSans-105"/>
      <use x="209.619141" xlink:href="#DejaVuSans-99"/>
      <use x="264.599609" xlink:href="#DejaVuSans-45"/>
      <use x="300.683594" xlink:href="#DejaVuSans-112"/>
      <use x="364.160156" xlink:href="#DejaVuSans-105"/>
     </g>
    </g>
   </g>
  </g>
  <g id="text_17">
   <!-- result inflight -->
   <defs>
    <path id="DejaVuSans-32"/>
   </defs>
   <g transform="translate(302.110313 17.038125)scale(0.12 -0.12)">
    <use xlink:href="#DejaVuSans-114"/>
    <use x="41.082031" xlink:href="#DejaVuSans-101"/>
    <use x="102.605469" xlink:href="#DejaVuSans-115"/>
    <use x="154.705078" xlink:href="#DejaVuSans-117"/>
    <use x="218.083984" xlink:href="#DejaVuSans-108"/>
    <use x="245.867188" xlink:href="#DejaVuSans-116"/>
    <use x="285.076172" xlink:href="#DejaVuSans-32"/>
    <use x="316.863281" xlink:href="#DejaVuSans-105"/>
    <use x="344.646484" xlink:href="#DejaVuSans-110"/>
    <use x="408.025391" xlink:href="#DejaVuSans-102"/>
    <use x="443.230469" xlink:href="#DejaVuSans-108"/>
    <use x="471.013672" xlink:href="#DejaVuSans-105"/>
    <use x="498.796875" xlink:href="#DejaVuSans-103"/>
    <use x="562.273438" xlink:href="#DejaVuSans-104"/>
    <use x="625.652344" xlink:href="#DejaVuSans-116"/>
   </g>
  </g>
 </g>
 <defs>
  <clipPath id="p54b368140a">
   <rect height="317.111667" width="409.034375" x="120.878594" y="35.0625"/>
  </clipPath>
 </defs>
</svg>
