<?xml version="1.0" encoding="utf-8" standalone="no"?>
<!DOCTYPE svg PUBLIC "-//W3C//DTD SVG 1.1//EN"
  "http://www.w3.org/Graphics/SVG/1.1/DTD/svg11.dtd">
<!-- Created with matplotlib (https://matplotlib.org/) -->
<svg height="396pt" version="1.1" viewBox="0 0 684 396" width="684pt" xmlns="http://www.w3.org/2000/svg" xmlns:xlink="http://www.w3.org/1999/xlink">
 <defs>
  <style type="text/css">
*{stroke-linecap:butt;stroke-linejoin:round;}
  </style>
 </defs>
 <g id="figure_1">
  <g id="patch_1">
   <path d="M 0 396 
L 684 396 
L 684 0 
L 0 0 
z
" style="fill:#ffffff;"/>
  </g>
  <g id="axes_1">
   <g id="patch_2">
    <path d="M 120.878594 352.174167 
L 540.734062 352.174167 
L 540.734062 35.0625 
L 120.878594 35.0625 
z
" style="fill:#ffffff;"/>
   </g>
   <g id="matplotlib.axis_1">
    <g id="xtick_1">
     <g id="line2d_1">
      <defs>
       <path d="M 0 0 
L 0 3.5 
" id="m4de3127ddc" style="stroke:#000000;stroke-width:0.8;"/>
      </defs>
      <g>
       <use style="stroke:#000000;stroke-width:0.8;" x="144.029747" xlink:href="#m4de3127ddc" y="352.174167"/>
      </g>
     </g>
     <g id="text_1">
      <!-- 0 -->
      <defs>
       <path d="M 31.78125 66.40625 
Q 24.171875 66.40625 20.328125 58.90625 
Q 16.5 51.421875 16.5 36.375 
Q 16.5 21.390625 20.328125 13.890625 
Q 24.171875 6.390625 31.78125 6.390625 
Q 39.453125 6.390625 43.28125 13.890625 
Q 47.125 21.390625 47.125 36.375 
Q 47.125 51.421875 43.28125 58.90625 
Q 39.453125 66.40625 31.78125 66.40625 
z
M 31.78125 74.21875 
Q 44.046875 74.21875 50.515625 64.515625 
Q 56.984375 54.828125 56.984375 36.375 
Q 56.984375 17.96875 50.515625 8.265625 
Q 44.046875 -1.421875 31.78125 -1.421875 
Q 19.53125 -1.421875 13.0625 8.265625 
Q 6.59375 17.96875 6.59375 36.375 
Q 6.59375 54.828125 13.0625 64.515625 
Q 19.53125 74.21875 31.78125 74.21875 
z
" id="DejaVuSans-48"/>
      </defs>
      <g transform="translate(140.848497 366.772604)scale(0.1 -0.1)">
       <use xlink:href="#DejaVuSans-48"/>
      </g>
     </g>
    </g>
    <g id="xtick_2">
     <g id="line2d_2">
      <g>
       <use style="stroke:#000000;stroke-width:0.8;" x="210.538571" xlink:href="#m4de3127ddc" y="352.174167"/>
      </g>
     </g>
     <g id="text_2">
      <!-- 50 -->
      <defs>
       <path d="M 10.796875 72.90625 
L 49.515625 72.90625 
L 49.515625 64.59375 
L 19.828125 64.59375 
L 19.828125 46.734375 
Q 21.96875 47.46875 24.109375 47.828125 
Q 26.265625 48.1875 28.421875 48.1875 
Q 40.625 48.1875 47.75 41.5 
Q 54.890625 34.8125 54.890625 23.390625 
Q 54.890625 11.625 47.5625 5.09375 
Q 40.234375 -1.421875 26.90625 -1.421875 
Q 22.3125 -1.421875 17.546875 -0.640625 
Q 12.796875 0.140625 7.71875 1.703125 
L 7.71875 11.625 
Q 12.109375 9.234375 16.796875 8.0625 
Q 21.484375 6.890625 26.703125 6.890625 
Q 35.15625 6.890625 40.078125 11.328125 
Q 45.015625 15.765625 45.015625 23.390625 
Q 45.015625 31 40.078125 35.4375 
Q 35.15625 39.890625 26.703125 39.890625 
Q 22.75 39.890625 18.8125 39.015625 
Q 14.890625 38.140625 10.796875 36.28125 
z
" id="DejaVuSans-53"/>
      </defs>
      <g transform="translate(204.176071 366.772604)scale(0.1 -0.1)">
       <use xlink:href="#DejaVuSans-53"/>
       <use x="63.623047" xlink:href="#DejaVuSans-48"/>
      </g>
     </g>
    </g>
    <g id="xtick_3">
     <g id="line2d_3">
      <g>
       <use style="stroke:#000000;stroke-width:0.8;" x="277.047395" xlink:href="#m4de3127ddc" y="352.174167"/>
      </g>
     </g>
     <g id="text_3">
      <!-- 100 -->
      <defs>
       <path d="M 12.40625 8.296875 
L 28.515625 8.296875 
L 28.515625 63.921875 
L 10.984375 60.40625 
L 10.984375 69.390625 
L 28.421875 72.90625 
L 38.28125 72.90625 
L 38.28125 8.296875 
L 54.390625 8.296875 
L 54.390625 0 
L 12.40625 0 
z
" id="DejaVuSans-49"/>
      </defs>
      <g transform="translate(267.503645 366.772604)scale(0.1 -0.1)">
       <use xlink:href="#DejaVuSans-49"/>
       <use x="63.623047" xlink:href="#DejaVuSans-48"/>
       <use x="127.246094" xlink:href="#DejaVuSans-48"/>
      </g>
     </g>
    </g>
    <g id="xtick_4">
     <g id="line2d_4">
      <g>
       <use style="stroke:#000000;stroke-width:0.8;" x="343.556219" xlink:href="#m4de3127ddc" y="352.174167"/>
      </g>
     </g>
     <g id="text_4">
      <!-- 150 -->
      <g transform="translate(334.012469 366.772604)scale(0.1 -0.1)">
       <use xlink:href="#DejaVuSans-49"/>
       <use x="63.623047" xlink:href="#DejaVuSans-53"/>
       <use x="127.246094" xlink:href="#DejaVuSans-48"/>
      </g>
     </g>
    </g>
    <g id="xtick_5">
     <g id="line2d_5">
      <g>
       <use style="stroke:#000000;stroke-width:0.8;" x="410.065044" xlink:href="#m4de3127ddc" y="352.174167"/>
      </g>
     </g>
     <g id="text_5">
      <!-- 200 -->
      <defs>
       <path d="M 19.1875 8.296875 
L 53.609375 8.296875 
L 53.609375 0 
L 7.328125 0 
L 7.328125 8.296875 
Q 12.9375 14.109375 22.625 23.890625 
Q 32.328125 33.6875 34.8125 36.53125 
Q 39.546875 41.84375 41.421875 45.53125 
Q 43.3125 49.21875 43.3125 52.78125 
Q 43.3125 58.59375 39.234375 62.25 
Q 35.15625 65.921875 28.609375 65.921875 
Q 23.96875 65.921875 18.8125 64.3125 
Q 13.671875 62.703125 7.8125 59.421875 
L 7.8125 69.390625 
Q 13.765625 71.78125 18.9375 73 
Q 24.125 74.21875 28.421875 74.21875 
Q 39.75 74.21875 46.484375 68.546875 
Q 53.21875 62.890625 53.21875 53.421875 
Q 53.21875 48.921875 51.53125 44.890625 
Q 49.859375 40.875 45.40625 35.40625 
Q 44.1875 33.984375 37.640625 27.21875 
Q 31.109375 20.453125 19.1875 8.296875 
z
" id="DejaVuSans-50"/>
      </defs>
      <g transform="translate(400.521294 366.772604)scale(0.1 -0.1)">
       <use xlink:href="#DejaVuSans-50"/>
       <use x="63.623047" xlink:href="#DejaVuSans-48"/>
       <use x="127.246094" xlink:href="#DejaVuSans-48"/>
      </g>
     </g>
    </g>
    <g id="xtick_6">
     <g id="line2d_6">
      <g>
       <use style="stroke:#000000;stroke-width:0.8;" x="476.573868" xlink:href="#m4de3127ddc" y="352.174167"/>
      </g>
     </g>
     <g id="text_6">
      <!-- 250 -->
      <g transform="translate(467.030118 366.772604)scale(0.1 -0.1)">
       <use xlink:href="#DejaVuSans-50"/>
       <use x="63.623047" xlink:href="#DejaVuSans-53"/>
       <use x="127.246094" xlink:href="#DejaVuSans-48"/>
      </g>
     </g>
    </g>
   </g>
   <g id="matplotlib.axis_2">
    <g id="ytick_1">
     <g id="line2d_7">
      <defs>
       <path d="M 0 0 
L -3.5 0 
" id="m47d0e720c1" style="stroke:#000000;stroke-width:0.8;"/>
      </defs>
      <g>
       <use style="stroke:#000000;stroke-width:0.8;" x="120.878594" xlink:href="#m47d0e720c1" y="352.174167"/>
      </g>
     </g>
     <g id="text_7">
      <!-- 0 -->
      <g transform="translate(107.516094 355.973385)scale(0.1 -0.1)">
       <use xlink:href="#DejaVuSans-48"/>
      </g>
     </g>
    </g>
    <g id="ytick_2">
     <g id="line2d_8">
      <g>
       <use style="stroke:#000000;stroke-width:0.8;" x="120.878594" xlink:href="#m47d0e720c1" y="290.415982"/>
      </g>
     </g>
     <g id="text_8">
      <!-- 100000 -->
      <g transform="translate(75.703594 294.2152)scale(0.1 -0.1)">
       <use xlink:href="#DejaVuSans-49"/>
       <use x="63.623047" xlink:href="#DejaVuSans-48"/>
       <use x="127.246094" xlink:href="#DejaVuSans-48"/>
       <use x="190.869141" xlink:href="#DejaVuSans-48"/>
       <use x="254.492188" xlink:href="#DejaVuSans-48"/>
       <use x="318.115234" xlink:href="#DejaVuSans-48"/>
      </g>
     </g>
    </g>
    <g id="ytick_3">
     <g id="line2d_9">
      <g>
       <use style="stroke:#000000;stroke-width:0.8;" x="120.878594" xlink:href="#m47d0e720c1" y="228.657797"/>
      </g>
     </g>
     <g id="text_9">
      <!-- 200000 -->
      <g transform="translate(75.703594 232.457016)scale(0.1 -0.1)">
       <use xlink:href="#DejaVuSans-50"/>
       <use x="63.623047" xlink:href="#DejaVuSans-48"/>
       <use x="127.246094" xlink:href="#DejaVuSans-48"/>
       <use x="190.869141" xlink:href="#DejaVuSans-48"/>
       <use x="254.492188" xlink:href="#DejaVuSans-48"/>
       <use x="318.115234" xlink:href="#DejaVuSans-48"/>
      </g>
     </g>
    </g>
    <g id="ytick_4">
     <g id="line2d_10">
      <g>
       <use style="stroke:#000000;stroke-width:0.8;" x="120.878594" xlink:href="#m47d0e720c1" y="166.899612"/>
      </g>
     </g>
     <g id="text_10">
      <!-- 300000 -->
      <defs>
       <path d="M 40.578125 39.3125 
Q 47.65625 37.796875 51.625 33 
Q 55.609375 28.21875 55.609375 21.1875 
Q 55.609375 10.40625 48.1875 4.484375 
Q 40.765625 -1.421875 27.09375 -1.421875 
Q 22.515625 -1.421875 17.65625 -0.515625 
Q 12.796875 0.390625 7.625 2.203125 
L 7.625 11.71875 
Q 11.71875 9.328125 16.59375 8.109375 
Q 21.484375 6.890625 26.8125 6.890625 
Q 36.078125 6.890625 40.9375 10.546875 
Q 45.796875 14.203125 45.796875 21.1875 
Q 45.796875 27.640625 41.28125 31.265625 
Q 36.765625 34.90625 28.71875 34.90625 
L 20.21875 34.90625 
L 20.21875 43.015625 
L 29.109375 43.015625 
Q 36.375 43.015625 40.234375 45.921875 
Q 44.09375 48.828125 44.09375 54.296875 
Q 44.09375 59.90625 40.109375 62.90625 
Q 36.140625 65.921875 28.71875 65.921875 
Q 24.65625 65.921875 20.015625 65.03125 
Q 15.375 64.15625 9.8125 62.3125 
L 9.8125 71.09375 
Q 15.4375 72.65625 20.34375 73.4375 
Q 25.25 74.21875 29.59375 74.21875 
Q 40.828125 74.21875 47.359375 69.109375 
Q 53.90625 64.015625 53.90625 55.328125 
Q 53.90625 49.265625 50.4375 45.09375 
Q 46.96875 40.921875 40.578125 39.3125 
z
" id="DejaVuSans-51"/>
      </defs>
      <g transform="translate(75.703594 170.698831)scale(0.1 -0.1)">
       <use xlink:href="#DejaVuSans-51"/>
       <use x="63.623047" xlink:href="#DejaVuSans-48"/>
       <use x="127.246094" xlink:href="#DejaVuSans-48"/>
       <use x="190.869141" xlink:href="#DejaVuSans-48"/>
       <use x="254.492188" xlink:href="#DejaVuSans-48"/>
       <use x="318.115234" xlink:href="#DejaVuSans-48"/>
      </g>
     </g>
    </g>
    <g id="ytick_5">
     <g id="line2d_11">
      <g>
       <use style="stroke:#000000;stroke-width:0.8;" x="120.878594" xlink:href="#m47d0e720c1" y="105.141427"/>
      </g>
     </g>
     <g id="text_11">
      <!-- 400000 -->
      <defs>
       <path d="M 37.796875 64.3125 
L 12.890625 25.390625 
L 37.796875 25.390625 
z
M 35.203125 72.90625 
L 47.609375 72.90625 
L 47.609375 25.390625 
L 58.015625 25.390625 
L 58.015625 17.1875 
L 47.609375 17.1875 
L 47.609375 0 
L 37.796875 0 
L 37.796875 17.1875 
L 4.890625 17.1875 
L 4.890625 26.703125 
z
" id="DejaVuSans-52"/>
      </defs>
      <g transform="translate(75.703594 108.940646)scale(0.1 -0.1)">
       <use xlink:href="#DejaVuSans-52"/>
       <use x="63.623047" xlink:href="#DejaVuSans-48"/>
       <use x="127.246094" xlink:href="#DejaVuSans-48"/>
       <use x="190.869141" xlink:href="#DejaVuSans-48"/>
       <use x="254.492188" xlink:href="#DejaVuSans-48"/>
       <use x="318.115234" xlink:href="#DejaVuSans-48"/>
      </g>
     </g>
    </g>
    <g id="ytick_6">
     <g id="line2d_12">
      <g>
       <use style="stroke:#000000;stroke-width:0.8;" x="120.878594" xlink:href="#m47d0e720c1" y="43.383242"/>
      </g>
     </g>
     <g id="text_12">
      <!-- 500000 -->
      <g transform="translate(75.703594 47.182461)scale(0.1 -0.1)">
       <use xlink:href="#DejaVuSans-53"/>
       <use x="63.623047" xlink:href="#DejaVuSans-48"/>
       <use x="127.246094" xlink:href="#DejaVuSans-48"/>
       <use x="190.869141" xlink:href="#DejaVuSans-48"/>
       <use x="254.492188" xlink:href="#DejaVuSans-48"/>
       <use x="318.115234" xlink:href="#DejaVuSans-48"/>
      </g>
     </g>
    </g>
    <g id="text_13">
     <!-- queue -->
     <defs>
      <path d="M 14.796875 27.296875 
Q 14.796875 17.390625 18.875 11.75 
Q 22.953125 6.109375 30.078125 6.109375 
Q 37.203125 6.109375 41.296875 11.75 
Q 45.40625 17.390625 45.40625 27.296875 
Q 45.40625 37.203125 41.296875 42.84375 
Q 37.203125 48.484375 30.078125 48.484375 
Q 22.953125 48.484375 18.875 42.84375 
Q 14.796875 37.203125 14.796875 27.296875 
z
M 45.40625 8.203125 
Q 42.578125 3.328125 38.25 0.953125 
Q 33.9375 -1.421875 27.875 -1.421875 
Q 17.96875 -1.421875 11.734375 6.484375 
Q 5.515625 14.40625 5.515625 27.296875 
Q 5.515625 40.1875 11.734375 48.09375 
Q 17.96875 56 27.875 56 
Q 33.9375 56 38.25 53.625 
Q 42.578125 51.265625 45.40625 46.390625 
L 45.40625 54.6875 
L 54.390625 54.6875 
L 54.390625 -20.796875 
L 45.40625 -20.796875 
z
" id="DejaVuSans-113"/>
      <path d="M 8.5 21.578125 
L 8.5 54.6875 
L 17.484375 54.6875 
L 17.484375 21.921875 
Q 17.484375 14.15625 20.5 10.265625 
Q 23.53125 6.390625 29.59375 6.390625 
Q 36.859375 6.390625 41.078125 11.03125 
Q 45.3125 15.671875 45.3125 23.6875 
L 45.3125 54.6875 
L 54.296875 54.6875 
L 54.296875 0 
L 45.3125 0 
L 45.3125 8.40625 
Q 42.046875 3.421875 37.71875 1 
Q 33.40625 -1.421875 27.6875 -1.421875 
Q 18.265625 -1.421875 13.375 4.4375 
Q 8.5 10.296875 8.5 21.578125 
z
M 31.109375 56 
z
" id="DejaVuSans-117"/>
      <path d="M 56.203125 29.59375 
L 56.203125 25.203125 
L 14.890625 25.203125 
Q 15.484375 15.921875 20.484375 11.0625 
Q 25.484375 6.203125 34.421875 6.203125 
Q 39.59375 6.203125 44.453125 7.46875 
Q 49.3125 8.734375 54.109375 11.28125 
L 54.109375 2.78125 
Q 49.265625 0.734375 44.1875 -0.34375 
Q 39.109375 -1.421875 33.890625 -1.421875 
Q 20.796875 -1.421875 13.15625 6.1875 
Q 5.515625 13.8125 5.515625 26.8125 
Q 5.515625 40.234375 12.765625 48.109375 
Q 20.015625 56 32.328125 56 
Q 43.359375 56 49.78125 48.890625 
Q 56.203125 41.796875 56.203125 29.59375 
z
M 47.21875 32.234375 
Q 47.125 39.59375 43.09375 43.984375 
Q 39.0625 48.390625 32.421875 48.390625 
Q 24.90625 48.390625 20.390625 44.140625 
Q 15.875 39.890625 15.1875 32.171875 
z
" id="DejaVuSans-101"/>
     </defs>
     <g transform="translate(58.426094 209.283177)rotate(-90)scale(0.1 -0.1)">
      <use xlink:href="#DejaVuSans-113"/>
      <use x="63.476562" xlink:href="#DejaVuSans-117"/>
      <use x="126.855469" xlink:href="#DejaVuSans-101"/>
      <use x="188.378906" xlink:href="#DejaVuSans-117"/>
      <use x="251.757812" xlink:href="#DejaVuSans-101"/>
     </g>
     <!-- (bytes) -->
     <defs>
      <path d="M 31 75.875 
Q 24.46875 64.65625 21.28125 53.65625 
Q 18.109375 42.671875 18.109375 31.390625 
Q 18.109375 20.125 21.3125 9.0625 
Q 24.515625 -2 31 -13.1875 
L 23.1875 -13.1875 
Q 15.875 -1.703125 12.234375 9.375 
Q 8.59375 20.453125 8.59375 31.390625 
Q 8.59375 42.28125 12.203125 53.3125 
Q 15.828125 64.359375 23.1875 75.875 
z
" id="DejaVuSans-40"/>
      <path d="M 48.6875 27.296875 
Q 48.6875 37.203125 44.609375 42.84375 
Q 40.53125 48.484375 33.40625 48.484375 
Q 26.265625 48.484375 22.1875 42.84375 
Q 18.109375 37.203125 18.109375 27.296875 
Q 18.109375 17.390625 22.1875 11.75 
Q 26.265625 6.109375 33.40625 6.109375 
Q 40.53125 6.109375 44.609375 11.75 
Q 48.6875 17.390625 48.6875 27.296875 
z
M 18.109375 46.390625 
Q 20.953125 51.265625 25.265625 53.625 
Q 29.59375 56 35.59375 56 
Q 45.5625 56 51.78125 48.09375 
Q 58.015625 40.1875 58.015625 27.296875 
Q 58.015625 14.40625 51.78125 6.484375 
Q 45.5625 -1.421875 35.59375 -1.421875 
Q 29.59375 -1.421875 25.265625 0.953125 
Q 20.953125 3.328125 18.109375 8.203125 
L 18.109375 0 
L 9.078125 0 
L 9.078125 75.984375 
L 18.109375 75.984375 
z
" id="DejaVuSans-98"/>
      <path d="M 32.171875 -5.078125 
Q 28.375 -14.84375 24.75 -17.8125 
Q 21.140625 -20.796875 15.09375 -20.796875 
L 7.90625 -20.796875 
L 7.90625 -13.28125 
L 13.1875 -13.28125 
Q 16.890625 -13.28125 18.9375 -11.515625 
Q 21 -9.765625 23.484375 -3.21875 
L 25.09375 0.875 
L 2.984375 54.6875 
L 12.5 54.6875 
L 29.59375 11.921875 
L 46.6875 54.6875 
L 56.203125 54.6875 
z
" id="DejaVuSans-121"/>
      <path d="M 18.3125 70.21875 
L 18.3125 54.6875 
L 36.8125 54.6875 
L 36.8125 47.703125 
L 18.3125 47.703125 
L 18.3125 18.015625 
Q 18.3125 11.328125 20.140625 9.421875 
Q 21.96875 7.515625 27.59375 7.515625 
L 36.8125 7.515625 
L 36.8125 0 
L 27.59375 0 
Q 17.1875 0 13.234375 3.875 
Q 9.28125 7.765625 9.28125 18.015625 
L 9.28125 47.703125 
L 2.6875 47.703125 
L 2.6875 54.6875 
L 9.28125 54.6875 
L 9.28125 70.21875 
z
" id="DejaVuSans-116"/>
      <path d="M 44.28125 53.078125 
L 44.28125 44.578125 
Q 40.484375 46.53125 36.375 47.5 
Q 32.28125 48.484375 27.875 48.484375 
Q 21.1875 48.484375 17.84375 46.4375 
Q 14.5 44.390625 14.5 40.28125 
Q 14.5 37.15625 16.890625 35.375 
Q 19.28125 33.59375 26.515625 31.984375 
L 29.59375 31.296875 
Q 39.15625 29.25 43.1875 25.515625 
Q 47.21875 21.78125 47.21875 15.09375 
Q 47.21875 7.46875 41.1875 3.015625 
Q 35.15625 -1.421875 24.609375 -1.421875 
Q 20.21875 -1.421875 15.453125 -0.5625 
Q 10.6875 0.296875 5.421875 2 
L 5.421875 11.28125 
Q 10.40625 8.6875 15.234375 7.390625 
Q 20.0625 6.109375 24.8125 6.109375 
Q 31.15625 6.109375 34.5625 8.28125 
Q 37.984375 10.453125 37.984375 14.40625 
Q 37.984375 18.0625 35.515625 20.015625 
Q 33.0625 21.96875 24.703125 23.78125 
L 21.578125 24.515625 
Q 13.234375 26.265625 9.515625 29.90625 
Q 5.8125 33.546875 5.8125 39.890625 
Q 5.8125 47.609375 11.28125 51.796875 
Q 16.75 56 26.8125 56 
Q 31.78125 56 36.171875 55.265625 
Q 40.578125 54.546875 44.28125 53.078125 
z
" id="DejaVuSans-115"/>
      <path d="M 8.015625 75.875 
L 15.828125 75.875 
Q 23.140625 64.359375 26.78125 53.3125 
Q 30.421875 42.28125 30.421875 31.390625 
Q 30.421875 20.453125 26.78125 9.375 
Q 23.140625 -1.703125 15.828125 -13.1875 
L 8.015625 -13.1875 
Q 14.5 -2 17.703125 9.0625 
Q 20.90625 20.125 20.90625 31.390625 
Q 20.90625 42.671875 17.703125 53.65625 
Q 14.5 64.65625 8.015625 75.875 
z
" id="DejaVuSans-41"/>
     </defs>
     <g transform="translate(69.623906 211.294896)rotate(-90)scale(0.1 -0.1)">
      <use xlink:href="#DejaVuSans-40"/>
      <use x="39.013672" xlink:href="#DejaVuSans-98"/>
      <use x="102.490234" xlink:href="#DejaVuSans-121"/>
      <use x="161.669922" xlink:href="#DejaVuSans-116"/>
      <use x="200.878906" xlink:href="#DejaVuSans-101"/>
      <use x="262.402344" xlink:href="#DejaVuSans-115"/>
      <use x="314.501953" xlink:href="#DejaVuSans-41"/>
     </g>
    </g>
   </g>
   <g id="line2d_13">
    <path clip-path="url(#p0c1ccad0ad)" d="M 139.962933 352.174167 
L 143.350212 352.174167 
L 143.647104 195.090988 
L 143.790912 322.253561 
L 144.072865 330.672437 
L 144.213208 332.538769 
L 144.354904 328.798694 
L 144.50078 311.033334 
L 144.645626 324.123599 
L 144.785873 323.18858 
L 144.926156 325.993637 
L 145.067155 320.383523 
L 145.213249 331.60375 
L 145.361244 334.408807 
L 145.505014 331.60375 
L 145.650338 318.513486 
L 145.935513 333.473788 
L 146.077277 335.343826 
L 146.359243 162.365326 
L 146.501822 142.729929 
L 146.645348 157.690231 
L 146.93175 252.127142 
L 147.072906 249.322085 
L 147.214081 241.841934 
L 147.358818 260.542313 
L 147.499257 250.257104 
L 147.641081 248.387067 
L 147.781523 254.932199 
L 147.923688 248.387067 
L 148.064872 250.257104 
L 148.205569 250.257104 
L 148.48696 246.517029 
L 148.771175 253.951479 
L 148.912083 205.376196 
L 149.054492 204.441177 
L 149.197126 199.764848 
L 149.479049 212.856348 
L 149.620029 203.506158 
L 149.761332 203.506158 
L 150.324503 169.845477 
L 150.46585 144.599966 
L 150.605707 139.924872 
L 151.166312 65.123358 
L 151.30666 53.903131 
L 151.449273 136.139095 
L 151.589753 119.313695 
L 151.874944 72.60351 
L 152.154957 55.773169 
L 152.295113 143.664948 
L 152.436493 151.145099 
L 152.857826 135.249777 
L 153.140072 131.509702 
L 153.280847 133.379739 
L 153.564854 123.094531 
L 153.704836 121.224493 
L 153.845576 117.484418 
L 153.985879 118.419437 
L 154.127809 112.809323 
L 154.267937 114.679361 
L 154.551318 110.939285 
L 154.691561 111.874304 
L 154.83309 109.069248 
L 154.97417 118.419437 
L 155.540123 105.329172 
L 155.681518 109.069248 
L 155.822143 100.654077 
L 155.962269 99.719058 
L 156.102176 99.719058 
L 156.384385 95.978983 
L 156.527921 95.978983 
L 156.667955 92.238907 
L 156.810002 108.134229 
L 156.951246 105.329172 
L 157.378744 81.01868 
L 157.519865 81.953699 
L 157.661028 79.148642 
L 157.802763 70.733472 
L 157.943413 70.733472 
L 158.224588 58.578226 
L 158.365908 58.578226 
L 158.506473 54.83815 
L 158.78756 154.885175 
L 159.209875 121.224493 
L 159.351542 106.264191 
L 159.494247 110.004266 
L 159.633947 117.484418 
L 160.055073 59.513245 
L 160.195376 89.43385 
L 160.335295 80.083661 
L 160.475933 54.83815 
L 160.615748 55.773169 
L 160.756245 54.83815 
L 160.897234 124.964569 
L 161.039035 132.444721 
L 161.319527 88.498831 
L 161.461224 96.914002 
L 161.602035 56.708188 
L 161.742854 74.473547 
L 161.883141 136.184796 
L 162.166525 60.448264 
L 162.307319 73.538529 
L 162.450845 124.02955 
L 162.735126 52.033093 
L 162.876791 100.654077 
L 163.157257 61.383283 
L 163.29757 116.549399 
L 163.721253 77.278604 
L 163.863034 126.834607 
L 164.143869 60.448264 
L 164.426152 52.968112 
L 164.566324 52.968112 
L 164.710007 83.823737 
L 164.850157 54.83815 
L 164.991721 51.098074 
L 165.133124 122.159512 
L 165.555701 60.448264 
L 165.696304 134.314758 
L 165.97863 59.513245 
L 166.119509 106.264191 
L 166.260368 59.513245 
L 166.402262 63.25332 
L 166.684262 52.033093 
L 166.827785 52.033093 
L 166.972092 51.098074 
L 167.114721 51.098074 
L 167.256276 52.968112 
L 167.398688 52.968112 
L 167.539355 55.773169 
L 167.821793 51.098074 
L 167.961903 51.098074 
L 168.102583 52.968112 
L 168.242754 52.033093 
L 168.385158 54.83815 
L 168.667241 51.098074 
L 168.808746 51.098074 
L 168.951288 56.708188 
L 169.233578 51.098074 
L 169.373428 52.968112 
L 169.653703 51.098074 
L 169.793803 56.708188 
L 169.933984 56.708188 
L 170.073998 50.163056 
L 170.214313 51.098074 
L 170.356105 50.163056 
L 170.637526 53.903131 
L 170.778424 52.033093 
L 170.918109 52.968112 
L 171.058028 52.968112 
L 171.198024 58.578226 
L 171.478883 52.033093 
L 171.619285 51.098074 
L 171.759818 52.033093 
L 171.899865 54.83815 
L 172.040121 51.098074 
L 172.186433 294.202994 
L 172.331636 329.733713 
L 172.613033 241.841934 
L 172.759802 243.711972 
L 172.902646 110.004266 
L 173.049007 121.224493 
L 173.188973 108.134229 
L 173.329753 116.549399 
L 173.469845 114.679361 
L 173.61047 195.090988 
L 173.892924 190.415894 
L 174.18487 201.636121 
L 174.327496 191.350912 
L 174.469011 172.650534 
L 174.616706 181.065704 
L 174.902609 158.62525 
L 175.045655 154.885175 
L 175.189524 135.249777 
L 175.331678 145.534985 
L 175.476131 134.314758 
L 175.616983 139.924872 
L 175.758635 124.02955 
L 175.899598 128.704645 
L 176.040132 139.924872 
L 176.180434 126.834607 
L 176.320712 132.444721 
L 176.462352 115.61438 
L 176.60281 127.769626 
L 176.743205 116.549399 
L 177.029056 129.639664 
L 177.170013 110.939285 
L 177.310729 140.859891 
L 177.453302 106.264191 
L 177.596179 116.549399 
L 177.881542 109.069248 
L 178.025192 123.094531 
L 178.169967 99.719058 
L 178.31269 114.679361 
L 178.456359 98.784039 
L 178.598399 103.459134 
L 178.740758 111.874304 
L 178.882507 98.784039 
L 179.022988 115.61438 
L 179.164836 98.784039 
L 179.304863 100.654077 
L 179.44589 86.628793 
L 179.587114 88.498831 
L 179.731297 94.108945 
L 179.8769 81.953699 
L 180.020142 85.693775 
L 180.44717 69.798453 
L 180.587506 73.538529 
L 180.72831 91.303888 
L 180.873469 72.60351 
L 181.016844 71.668491 
L 181.158981 64.188339 
L 181.30111 65.123358 
L 181.585678 52.968112 
L 181.869088 150.21008 
L 182.152912 111.874304 
L 182.293492 109.069248 
L 182.433748 95.043964 
L 182.574574 94.108945 
L 182.714638 106.264191 
L 182.85525 92.238907 
L 182.997736 100.654077 
L 183.138358 99.719058 
L 183.420571 81.953699 
L 183.561204 92.238907 
L 183.847312 84.758756 
L 183.98853 92.238907 
L 184.12824 86.628793 
L 184.267955 92.238907 
L 184.550421 87.563812 
L 184.691019 85.693775 
L 184.830826 93.173926 
L 184.971637 86.628793 
L 185.111827 87.563812 
L 185.251582 95.978983 
L 185.391289 82.888718 
L 185.530959 87.563812 
L 185.673883 98.784039 
L 185.954635 86.628793 
L 186.096421 80.083661 
L 186.236382 203.506158 
L 186.379233 176.39061 
L 186.660072 59.513245 
L 186.800143 52.033093 
L 186.942263 136.184796 
L 187.082524 133.379739 
L 187.363194 84.758756 
L 187.504256 62.318302 
L 187.786539 133.379739 
L 188.490133 53.903131 
L 188.630868 95.978983 
L 188.770873 92.238907 
L 188.913579 51.098074 
L 189.056308 106.264191 
L 189.196651 103.459134 
L 189.477752 64.188339 
L 189.617887 52.033093 
L 189.758027 99.719058 
L 189.89812 91.303888 
L 190.178587 53.903131 
L 190.32195 109.069248 
L 190.60912 60.448264 
L 190.750233 89.43385 
L 190.891128 64.188339 
L 191.032191 83.823737 
L 191.173096 53.903131 
L 191.313258 86.628793 
L 191.455513 52.033093 
L 191.741902 62.318302 
L 191.882338 53.903131 
L 192.023926 61.383283 
L 192.164511 51.098074 
L 192.448561 52.968112 
L 192.588661 51.098074 
L 192.735835 66.993396 
L 192.876982 54.83815 
L 193.017703 71.668491 
L 193.299726 59.513245 
L 193.443449 51.098074 
L 193.583676 110.939285 
L 193.724279 52.033093 
L 193.86454 128.704645 
L 194.145144 52.033093 
L 194.287751 87.563812 
L 194.428293 51.098074 
L 194.569922 52.033093 
L 194.71032 55.773169 
L 194.850268 52.968112 
L 194.990849 69.798453 
L 195.13101 51.098074 
L 195.270763 69.798453 
L 195.411177 50.163056 
L 195.551709 51.098074 
L 195.694939 51.098074 
L 195.835675 66.058377 
L 195.975645 52.968112 
L 196.115375 77.278604 
L 196.255832 54.83815 
L 196.398721 52.033093 
L 196.5386 54.83815 
L 196.678297 52.968112 
L 196.818012 52.968112 
L 196.959515 52.033093 
L 197.099459 52.033093 
L 197.239464 52.916235 
L 197.380979 50.163056 
L 197.662676 64.188339 
L 197.943272 51.098074 
L 198.083402 52.033093 
L 198.224208 51.098074 
L 198.36652 52.968112 
L 198.507557 52.968112 
L 198.648604 50.163056 
L 198.789467 91.303888 
L 198.929688 51.098074 
L 199.070757 55.773169 
L 199.211058 50.163056 
L 199.491401 53.903131 
L 199.634576 144.599966 
L 199.777965 352.174167 
L 199.918244 325.993637 
L 200.059154 196.026007 
L 200.199648 191.350912 
L 200.342072 190.415894 
L 200.765342 239.971896 
L 200.906177 236.231821 
L 201.188981 248.387067 
L 201.329709 236.231821 
L 201.610055 239.036877 
L 201.753163 234.361783 
L 202.033923 240.906915 
L 202.174429 235.296802 
L 202.456927 237.16684 
L 202.599804 227.81665 
L 202.740725 230.621707 
L 203.022367 240.906915 
L 203.161879 239.971896 
L 203.302584 235.296802 
L 203.442101 238.101858 
L 203.581626 227.81665 
L 203.72171 230.621707 
L 203.861329 225.011594 
L 204.0008 226.881631 
L 204.140308 226.881631 
L 204.283104 229.686688 
L 204.567465 219.40148 
L 204.851242 219.40148 
L 204.998859 221.266577 
L 205.139007 212.856348 
L 205.279562 213.791367 
L 205.422303 217.531442 
L 205.71206 210.051291 
L 206.001192 213.791367 
L 206.140862 203.506158 
L 206.281351 214.726385 
L 206.849158 196.026007 
L 206.990449 202.571139 
L 207.277599 190.415894 
L 207.417732 197.896045 
L 207.55992 191.350912 
L 207.704347 192.285931 
L 207.851177 185.740799 
L 207.992224 186.675818 
L 208.845784 131.509702 
L 208.986377 128.704645 
L 209.270468 101.589096 
L 209.556011 81.01868 
L 209.846589 54.83815 
L 209.993871 152.080118 
L 210.56317 123.094531 
L 210.707708 122.159512 
L 210.848883 115.61438 
L 210.995585 116.549399 
L 211.279258 98.784039 
L 211.421405 110.004266 
L 211.56267 97.84902 
L 211.703246 95.978983 
L 211.984348 87.563812 
L 212.125386 90.368869 
L 212.265935 78.213623 
L 212.41116 80.083661 
L 212.692276 73.538529 
L 212.8334 81.01868 
L 212.977012 55.773169 
L 213.120578 173.585553 
L 213.261303 176.39061 
L 213.403997 195.090988 
L 213.68637 151.145099 
L 214.107963 131.509702 
L 214.248645 137.119815 
L 214.672052 107.19921 
L 214.812308 104.394153 
L 214.954434 108.134229 
L 215.094423 92.238907 
L 215.235106 94.108945 
L 215.375441 94.108945 
L 215.660949 78.213623 
L 215.803137 81.953699 
L 215.943787 75.408566 
L 216.084963 57.643207 
L 216.224889 61.383283 
L 216.509027 149.275061 
L 216.928818 116.549399 
L 217.209851 96.914002 
L 217.35027 97.84902 
L 217.632162 62.318302 
L 217.772463 81.01868 
L 217.912514 142.729929 
L 218.193052 111.874304 
L 218.3346 100.654077 
L 218.615791 58.578226 
L 218.756392 54.83815 
L 218.896609 76.343585 
L 219.037222 154.885175 
L 219.459803 72.60351 
L 219.600457 52.033093 
L 219.882205 167.040421 
L 220.023452 153.015137 
L 220.445765 51.098074 
L 220.587241 129.639664 
L 221.152801 53.903131 
L 221.293804 61.383283 
L 221.433939 56.708188 
L 221.574845 97.84902 
L 221.715544 60.448264 
L 221.855698 75.408566 
L 221.996057 52.968112 
L 222.136238 133.379739 
L 222.419722 65.123358 
L 222.560124 125.899588 
L 222.845467 52.033093 
L 222.986655 100.654077 
L 223.126937 56.708188 
L 223.267933 68.857258 
L 223.408414 96.914002 
L 223.550676 66.993396 
L 223.832146 134.314758 
L 224.397215 52.968112 
L 224.537317 117.484418 
L 224.67787 103.459134 
L 224.818197 53.903131 
L 224.959643 125.899588 
L 225.099893 92.238907 
L 225.241561 86.628793 
L 225.383382 117.484418 
L 225.525514 82.888718 
L 225.806855 108.134229 
L 225.946783 55.773169 
L 226.086885 136.184796 
L 226.367707 52.968112 
L 226.507732 151.145099 
L 226.649655 109.069248 
L 226.790861 131.509702 
L 226.93658 352.174167 
L 227.084587 327.863675 
L 227.228913 199.764848 
L 227.368924 195.090988 
L 227.50915 201.636121 
L 227.795792 241.841934 
L 227.936383 233.426764 
L 228.077849 241.841934 
L 228.218204 237.16684 
L 228.360489 240.906915 
L 228.64107 238.101858 
L 228.782292 239.971896 
L 228.923249 237.16684 
L 229.204053 243.711972 
L 229.345696 243.711972 
L 229.628624 236.231821 
L 229.769766 245.58201 
L 229.913645 233.426764 
L 230.056136 235.296802 
L 230.339648 230.621707 
L 230.481374 231.556726 
L 231.047978 225.011594 
L 231.188486 226.881631 
L 231.475391 219.40148 
L 231.618411 220.336499 
L 231.759912 218.466461 
L 231.900616 214.726385 
L 232.043061 217.531442 
L 232.466522 210.98631 
L 232.607582 215.661404 
L 232.748346 207.246234 
L 232.888941 207.246234 
L 233.030611 214.726385 
L 233.315049 199.764848 
L 233.457065 196.961026 
L 233.59796 202.571139 
L 233.879752 192.285931 
L 234.020798 190.415894 
L 234.162223 192.285931 
L 234.304115 189.480875 
L 234.585133 181.065704 
L 234.726029 180.130685 
L 234.866409 180.130685 
L 235.007228 177.325629 
L 235.147292 178.263118 
L 235.287557 173.585553 
L 235.427695 172.650534 
L 235.855541 165.170383 
L 235.99612 165.170383 
L 236.136381 184.80578 
L 236.27718 156.761388 
L 236.41755 159.560269 
L 236.557647 158.62525 
L 236.839368 150.21008 
L 237.122554 155.820193 
L 237.403355 142.729929 
L 237.686553 131.509702 
L 238.261072 98.784039 
L 238.402631 92.238907 
L 238.825272 60.448264 
L 239.110231 152.080118 
L 239.390241 128.704645 
L 239.534324 124.964569 
L 239.817288 114.679361 
L 240.098141 107.19921 
L 240.238597 98.784039 
L 240.519826 122.159512 
L 240.660427 110.939285 
L 240.941152 68.857258 
L 241.08171 66.058377 
L 241.363961 52.968112 
L 241.647661 89.43385 
L 241.788535 81.01868 
L 241.928416 81.953699 
L 242.491706 50.163056 
L 242.632194 156.761388 
L 242.916745 148.340042 
L 243.197557 98.784039 
L 243.759952 63.25332 
L 244.040548 103.459134 
L 244.180858 80.083661 
L 244.32218 77.278604 
L 244.46263 53.903131 
L 244.602861 121.224493 
L 244.743093 114.679361 
L 245.170692 52.033093 
L 245.311223 84.758756 
L 245.451161 197.896045 
L 245.734033 110.004266 
L 246.01557 52.968112 
L 246.156293 77.278604 
L 246.296918 128.704645 
L 246.577295 97.84902 
L 246.717486 52.033093 
L 246.85858 73.538529 
L 247.000384 146.470004 
L 247.421535 66.058377 
L 247.562168 53.903131 
L 247.703912 62.318302 
L 247.843901 51.098074 
L 247.984896 103.459134 
L 248.125895 51.098074 
L 248.266673 118.419437 
L 248.408536 50.163056 
L 248.549496 64.188339 
L 248.69296 52.033093 
L 248.836525 66.058377 
L 248.976262 57.643207 
L 249.117159 97.84902 
L 249.257614 53.903131 
L 249.397438 110.939285 
L 249.540378 60.448264 
L 249.680216 94.108945 
L 249.962597 50.163056 
L 250.24465 81.01868 
L 250.385359 52.968112 
L 250.669903 103.459134 
L 250.811695 52.968112 
L 250.952936 106.264191 
L 251.094814 60.448264 
L 251.377115 51.098074 
L 251.520001 83.823737 
L 251.65999 62.318302 
L 251.801054 81.953699 
L 251.942467 54.83815 
L 252.083848 73.538529 
L 252.505898 52.033093 
L 252.647262 68.857258 
L 252.788499 51.098074 
L 252.93127 94.108945 
L 253.212496 50.163056 
L 253.354812 115.61438 
L 253.496633 56.708188 
L 253.637592 72.60351 
L 253.778477 51.098074 
L 253.919747 88.498831 
L 254.202839 52.033093 
L 254.343458 56.708188 
L 254.483802 51.098074 
L 254.624403 59.513245 
L 254.765016 52.033093 
L 254.906359 53.903131 
L 255.04698 63.25332 
L 255.187673 52.968112 
L 255.328271 52.033093 
L 255.469946 73.538529 
L 255.610839 57.643207 
L 255.75149 108.134229 
L 255.891219 63.25332 
L 256.031812 66.058377 
L 256.172407 52.033093 
L 256.312307 64.188339 
L 256.452865 50.163056 
L 256.733555 52.033093 
L 256.879735 52.033093 
L 257.024158 50.163056 
L 257.166922 53.851254 
L 257.448489 52.033093 
L 257.59029 56.708188 
L 257.731981 52.033093 
L 257.871883 55.773169 
L 258.012807 64.188339 
L 258.156599 52.033093 
L 258.297502 63.25332 
L 258.438628 53.903131 
L 258.58074 52.968112 
L 258.722965 50.163056 
L 258.866428 352.174167 
L 259.299832 352.174167 
L 259.442733 330.672437 
L 259.584025 202.571139 
L 259.724942 195.090988 
L 259.866777 195.039111 
L 260.009012 215.661404 
L 260.151261 255.867218 
L 260.435903 240.906915 
L 260.577596 241.841934 
L 260.720014 244.646991 
L 260.860385 239.971896 
L 261.140662 254.932199 
L 261.421194 241.841934 
L 261.560925 241.841934 
L 261.701495 242.768307 
L 261.841436 242.768307 
L 261.981383 240.906915 
L 262.12285 243.711972 
L 262.263984 242.768307 
L 262.404229 242.768307 
L 262.544491 241.841934 
L 262.684775 235.296802 
L 262.825311 239.971896 
L 262.965798 236.231821 
L 263.106313 237.16684 
L 263.389575 232.491745 
L 263.531013 236.231821 
L 263.815929 227.81665 
L 263.956175 231.556726 
L 264.098139 222.206537 
L 264.241405 224.076575 
L 264.52473 220.336499 
L 264.805291 218.466461 
L 264.948428 216.596423 
L 265.090152 223.141556 
L 265.231909 207.246234 
L 265.372376 208.181253 
L 265.655721 205.376196 
L 265.939697 205.376196 
L 266.079409 202.571139 
L 266.219434 209.116272 
L 266.499182 196.026007 
L 266.638866 195.090988 
L 266.778469 190.415894 
L 266.919312 191.350912 
L 267.059794 188.545856 
L 267.340648 180.130685 
L 267.482349 183.870761 
L 267.622697 167.040421 
L 267.763013 166.105402 
L 268.183284 145.426909 
L 268.323266 156.761388 
L 268.463273 129.639664 
L 268.603227 126.834607 
L 268.743373 128.704645 
L 269.024544 106.238252 
L 269.443767 81.01868 
L 269.588312 77.278604 
L 270.029048 52.968112 
L 270.173787 132.444721 
L 270.453257 103.459134 
L 271.290654 52.033093 
L 271.57177 154.885175 
L 271.990502 136.184796 
L 272.409274 119.354456 
L 272.548888 129.639664 
L 272.688504 124.02955 
L 272.830934 124.964569 
L 273.956567 63.25332 
L 274.097674 66.058377 
L 274.237983 50.163056 
L 274.37861 167.040421 
L 274.519026 161.430307 
L 274.801952 97.84902 
L 275.082326 86.628793 
L 275.503325 55.773169 
L 275.783983 126.834607 
L 276.206825 65.123358 
L 276.347938 52.033093 
L 276.48799 148.340042 
L 276.907803 104.394153 
L 277.187222 52.968112 
L 277.330899 161.430307 
L 277.475899 155.820193 
L 277.619822 133.379739 
L 277.763605 133.379739 
L 278.053093 92.238907 
L 278.194507 93.173926 
L 278.340274 129.639664 
L 278.487239 130.574683 
L 278.627263 124.964569 
L 278.908348 67.928415 
L 279.188271 118.419437 
L 279.608402 52.033093 
L 279.748514 74.473547 
L 279.888258 72.60351 
L 280.028148 82.888718 
L 280.167948 50.163056 
L 280.307719 103.459134 
L 280.447366 86.628793 
L 280.588377 52.968112 
L 280.729617 92.238907 
L 280.871417 99.719058 
L 281.151632 62.318302 
L 281.291789 78.213623 
L 281.43166 53.903131 
L 281.571783 58.578226 
L 281.711528 51.098074 
L 281.851436 67.928415 
L 281.991309 51.098074 
L 282.271764 55.773169 
L 282.411708 52.968112 
L 282.551614 80.083661 
L 282.69168 52.968112 
L 282.832484 73.538529 
L 283.112704 50.163056 
L 283.252716 73.538529 
L 283.392677 52.033093 
L 283.537257 54.83815 
L 283.684234 53.903131 
L 283.831223 55.773169 
L 283.975698 52.968112 
L 284.117494 57.643207 
L 284.257223 52.968112 
L 284.396977 52.033093 
L 284.536808 54.83815 
L 284.676881 62.318302 
L 284.820434 52.033093 
L 284.961201 54.83815 
L 285.101424 62.318302 
L 285.241085 50.163056 
L 285.382014 52.033093 
L 285.523119 61.383283 
L 285.663312 52.033093 
L 285.944683 56.708188 
L 286.225073 52.033093 
L 286.364796 50.163056 
L 286.504519 52.968112 
L 286.644189 52.033093 
L 286.783873 52.033093 
L 286.924092 54.83815 
L 287.064177 51.098074 
L 287.204007 52.968112 
L 287.343722 52.033093 
L 287.765564 52.033093 
L 287.905747 50.163056 
L 288.048998 52.968112 
L 288.189773 51.098074 
L 288.329992 51.098074 
L 288.470148 56.708188 
L 288.609867 56.708188 
L 288.751061 51.098074 
L 288.891269 53.903131 
L 289.031113 63.25332 
L 289.170912 52.968112 
L 289.451453 57.643207 
L 289.591416 52.033093 
L 289.731293 53.903131 
L 289.871914 61.383283 
L 290.011831 52.033093 
L 290.151872 52.033093 
L 290.29199 53.903131 
L 290.571895 52.033093 
L 290.712169 53.903131 
L 290.858472 352.174167 
L 291.300579 352.174167 
L 291.581636 263.347369 
L 291.721748 257.737256 
L 291.861551 267.087445 
L 292.001637 267.087445 
L 292.141661 257.737256 
L 292.281595 255.867218 
L 292.421685 258.672275 
L 292.561811 265.217407 
L 292.70171 258.672275 
L 292.841807 263.347369 
L 292.982106 256.802237 
L 293.122274 258.672275 
L 293.26224 252.127142 
L 293.403043 255.867218 
L 293.545999 255.867218 
L 293.686461 250.257104 
L 293.966877 253.99718 
L 294.109724 253.99718 
L 294.389869 245.58201 
L 294.529765 245.58201 
L 294.670175 244.646991 
L 294.810205 239.036877 
L 294.950908 241.841934 
L 295.090715 237.16684 
L 295.230838 236.231821 
L 295.372281 233.426764 
L 295.513895 236.231821 
L 295.654356 230.621707 
L 295.794614 231.556726 
L 296.075037 226.881631 
L 296.215495 224.076575 
L 296.498364 224.076575 
L 296.638743 220.336499 
L 296.779616 227.81665 
L 296.926527 210.98631 
L 297.073371 211.921329 
L 297.214257 210.98631 
L 297.355743 206.311215 
L 297.496236 212.856348 
L 297.636919 210.98631 
L 297.917105 198.831064 
L 298.058066 196.961026 
L 298.198353 207.246234 
L 298.338851 192.285931 
L 298.482604 192.285931 
L 298.629175 188.545856 
L 298.770098 188.545856 
L 298.911042 184.80578 
L 299.051851 185.740799 
L 299.474921 176.39061 
L 299.757397 169.845477 
L 300.037968 153.950156 
L 300.17836 144.599966 
L 300.318451 143.664948 
L 300.601525 127.769626 
L 300.74563 122.159512 
L 301.169261 96.914002 
L 301.880436 52.968112 
L 302.021551 150.21008 
L 302.164349 148.340042 
L 302.446033 133.379739 
L 302.587706 130.574683 
L 302.875035 113.744342 
L 303.018337 136.184796 
L 303.159038 105.329172 
L 303.723063 85.693775 
L 303.86522 85.693775 
L 304.006925 80.083661 
L 304.149964 87.563812 
L 304.296984 77.278604 
L 304.437018 76.343585 
L 304.580057 68.857258 
L 304.722372 95.978983 
L 305.147371 55.773169 
L 305.28774 136.184796 
L 305.42754 147.405023 
L 306.134351 63.25332 
L 306.274918 158.62525 
L 306.556498 108.134229 
L 306.978274 58.578226 
L 307.118926 53.903131 
L 307.403838 131.509702 
L 307.967775 54.83815 
L 308.110845 157.582155 
L 308.253184 146.470004 
L 308.395837 125.899588 
L 308.538913 123.094531 
L 308.823495 88.498831 
L 308.964164 105.329172 
L 309.104521 104.394153 
L 309.385936 83.823737 
L 309.526503 135.249777 
L 309.667952 138.989853 
L 309.809666 87.563812 
L 309.949619 124.964569 
L 310.232817 68.857258 
L 310.373606 145.534985 
L 311.081838 56.708188 
L 311.2227 67.928415 
L 311.366294 113.744342 
L 311.509782 105.329172 
L 311.650347 57.643207 
L 311.790276 103.459134 
L 312.071331 69.798453 
L 312.352955 133.379739 
L 312.776456 81.01868 
L 312.917692 52.033093 
L 313.058469 62.318302 
L 313.199552 109.069248 
L 313.339891 91.303888 
L 313.481631 53.903131 
L 313.627382 152.080118 
L 313.918632 52.033093 
L 314.060252 87.563812 
L 314.340836 52.968112 
L 314.481995 65.123358 
L 314.62305 65.123358 
L 314.764242 50.163056 
L 314.904815 52.968112 
L 315.045231 80.083661 
L 315.185232 52.033093 
L 315.46768 95.978983 
L 315.749374 52.033093 
L 316.034754 78.213623 
L 316.175938 51.098074 
L 316.316528 52.033093 
L 316.457297 112.809323 
L 316.599761 64.188339 
L 316.742525 66.058377 
L 316.885445 86.628793 
L 317.027766 51.098074 
L 317.170217 52.033093 
L 317.312129 79.148642 
L 317.593975 51.098074 
L 317.734037 51.098074 
L 317.87569 82.888718 
L 318.017324 54.83815 
L 318.158912 51.098074 
L 318.30015 124.964569 
L 318.582338 84.758756 
L 318.865063 160.495288 
L 319.284277 69.798453 
L 319.425892 52.033093 
L 319.566078 128.704645 
L 319.847459 82.888718 
L 320.129677 164.235364 
L 320.694935 99.719058 
L 320.838119 129.639664 
L 320.978151 115.61438 
L 321.118492 81.01868 
L 321.259206 161.430307 
L 321.400988 138.054834 
L 321.541889 86.628793 
L 321.68489 95.043964 
L 321.967953 50.163056 
L 322.110351 145.534985 
L 322.251144 127.769626 
L 322.39335 58.578226 
L 322.534421 95.978983 
L 322.820877 73.538529 
L 322.961104 139.924872 
L 323.242278 83.823737 
L 323.384863 97.84902 
L 323.527211 86.628793 
L 323.669185 99.719058 
L 323.810635 150.21008 
L 324.373123 66.058377 
L 324.655353 142.729929 
L 324.936776 95.978983 
L 325.077501 120.289475 
L 325.505599 58.578226 
L 325.647111 52.968112 
L 325.78752 101.589096 
L 326.069192 53.903131 
L 326.209473 128.704645 
L 326.490609 53.903131 
L 326.63258 144.599966 
L 326.915784 61.383283 
L 327.057203 150.21008 
L 327.340347 69.798453 
L 327.481614 143.664948 
L 327.763647 71.668491 
L 327.904709 136.184796 
L 328.046393 89.43385 
L 328.188818 82.888718 
L 328.331201 119.354456 
L 328.471773 76.343585 
L 328.61207 94.108945 
L 328.754665 137.119815 
L 329.319611 65.123358 
L 329.600951 133.379739 
L 330.170747 51.098074 
L 330.313756 158.62525 
L 330.456173 133.379739 
L 330.598647 61.383283 
L 330.738926 84.758756 
L 331.019498 52.033093 
L 331.160216 112.809323 
L 331.440343 52.968112 
L 331.580272 107.19921 
L 331.721636 61.383283 
L 331.862212 65.123358 
L 332.002283 78.213623 
L 332.144276 122.159512 
L 332.286432 352.174167 
L 332.43314 352.174167 
L 332.71659 256.802237 
L 332.858003 263.347369 
L 332.998006 253.062161 
L 333.138369 252.127142 
L 333.419543 253.99718 
L 333.5594 253.062161 
L 333.700825 241.841934 
L 333.843331 248.387067 
L 333.985872 247.452048 
L 334.126542 247.452048 
L 334.270421 249.322085 
L 334.411791 247.452048 
L 334.55311 238.101858 
L 334.69369 240.906915 
L 334.834423 239.971896 
L 334.975462 238.101858 
L 335.116956 240.906915 
L 335.398782 236.231821 
L 335.539634 232.491745 
L 335.679867 235.296802 
L 336.526787 224.076575 
L 336.66827 224.076575 
L 336.809512 217.531442 
L 336.949901 216.596423 
L 337.091041 223.141556 
L 337.231552 213.791367 
L 337.516003 211.921329 
L 337.657772 207.246234 
L 337.79813 208.181253 
L 338.22183 200.701102 
L 338.362091 200.701102 
L 338.502594 199.764848 
L 338.642791 193.22095 
L 338.928195 196.026007 
L 339.209185 189.480875 
L 339.349937 188.545856 
L 339.490374 186.675818 
L 339.630589 182.000723 
L 339.770602 181.065704 
L 340.052115 176.39061 
L 340.192593 180.130685 
L 340.33631 180.130685 
L 340.479958 170.780496 
L 340.620868 168.910458 
L 340.762201 169.845477 
L 340.902562 166.105402 
L 341.042725 166.105402 
L 341.183344 160.495288 
L 341.328156 164.235364 
L 341.609653 157.690231 
L 341.753341 153.015137 
L 341.89569 152.080118 
L 342.177819 144.599966 
L 342.318454 149.275061 
L 342.602012 138.989853 
L 342.743243 146.470004 
L 343.164813 121.224493 
L 343.305432 121.224493 
L 344.152518 55.773169 
L 344.296232 159.560269 
L 344.579364 137.119815 
L 344.721624 132.444721 
L 345.14517 113.744342 
L 345.287808 110.939285 
L 345.427972 101.589096 
L 345.56846 104.394153 
L 345.711077 98.784039 
L 345.851656 119.354456 
L 345.992974 122.159512 
L 346.136709 107.19921 
L 346.417687 58.578226 
L 346.557974 60.448264 
L 346.697871 67.928415 
L 346.837771 97.84902 
L 346.97856 76.343585 
L 347.118471 78.213623 
L 347.260639 70.733472 
L 347.401078 70.733472 
L 347.541275 59.513245 
L 347.681222 153.015137 
L 347.826406 151.145099 
L 348.247399 118.419437 
L 348.527824 105.329172 
L 348.809881 74.473547 
L 349.093761 59.513245 
L 349.23727 69.798453 
L 349.379504 128.704645 
L 349.520219 97.84902 
L 349.660145 92.238907 
L 349.941589 60.448264 
L 350.226177 80.083661 
L 350.366653 78.213623 
L 350.506611 68.857258 
L 350.646701 120.289475 
L 350.930265 61.383283 
L 351.213665 54.83815 
L 351.354037 123.094531 
L 351.495024 115.61438 
L 351.776541 81.953699 
L 351.917179 71.668491 
L 352.058495 111.874304 
L 352.344134 56.708188 
L 352.48499 114.679361 
L 352.76759 51.098074 
L 352.908869 136.184796 
L 353.331716 66.058377 
L 353.472411 124.964569 
L 353.752835 52.968112 
L 353.892727 105.329172 
L 354.033539 52.033093 
L 354.173669 102.524115 
L 354.313889 59.513245 
L 354.454032 57.643207 
L 354.594525 81.953699 
L 354.734625 59.513245 
L 354.876135 92.238907 
L 355.156508 51.098074 
L 355.297573 87.563812 
L 355.438559 59.513245 
L 355.578897 85.693775 
L 355.859735 63.25332 
L 356.14294 52.033093 
L 356.283205 53.903131 
L 356.423359 102.524115 
L 356.564955 51.098074 
L 356.705051 118.419437 
L 356.845189 55.773169 
L 356.984904 65.123358 
L 357.124606 81.953699 
L 357.264543 52.968112 
L 357.404309 108.134229 
L 357.544258 52.033093 
L 357.684065 87.563812 
L 357.824023 61.383283 
L 358.104896 67.928415 
L 358.244758 56.708188 
L 358.384431 110.004266 
L 358.52415 51.098074 
L 358.803768 111.874304 
L 358.943758 51.098074 
L 359.083464 84.758756 
L 359.364545 50.163056 
L 359.506432 89.43385 
L 359.647233 51.098074 
L 359.787033 77.278604 
L 359.928138 52.033093 
L 360.068794 55.773169 
L 360.209294 75.408566 
L 360.349555 64.188339 
L 360.490184 74.473547 
L 360.630878 66.0065 
L 360.771323 101.589096 
L 360.911421 53.903131 
L 361.05419 153.015137 
L 361.201404 352.174167 
L 361.348994 352.174167 
L 361.490186 317.578467 
L 361.630502 253.062161 
L 361.770789 249.322085 
L 361.911717 253.99718 
L 362.053985 263.347369 
L 362.194614 261.477331 
L 362.475352 248.387067 
L 362.615791 250.257104 
L 362.756272 247.452048 
L 362.900414 255.867218 
L 363.041116 255.867218 
L 363.324037 247.452048 
L 363.464746 246.517029 
L 363.60513 251.192123 
L 363.744943 246.517029 
L 363.88891 248.387067 
L 364.031481 242.768307 
L 364.313159 246.517029 
L 364.736939 239.971896 
L 365.021668 243.711972 
L 365.162017 239.036877 
L 365.302311 239.036877 
L 365.442997 238.101858 
L 365.729263 229.686688 
L 365.869954 233.426764 
L 366.294607 224.076575 
L 366.434612 224.076575 
L 366.574336 223.141556 
L 366.71648 221.266577 
L 366.859092 227.81665 
L 367.139775 217.531442 
L 367.28052 212.856348 
L 367.423893 220.336499 
L 367.56513 210.051291 
L 367.70564 213.791367 
L 367.84591 204.441177 
L 367.987614 205.376196 
L 368.408622 198.831064 
L 368.551405 200.701102 
L 369.115461 188.545856 
L 369.255164 192.285931 
L 369.394921 189.480875 
L 369.53479 196.026007 
L 369.67524 183.870761 
L 369.815851 182.935742 
L 370.385994 158.62525 
L 370.809035 140.859891 
L 371.236861 119.354456 
L 372.222978 64.188339 
L 372.363124 52.968112 
L 372.503048 171.715515 
L 372.645259 140.859891 
L 372.786211 138.989853 
L 373.066302 125.899588 
L 373.351394 117.484418 
L 373.63627 102.524115 
L 373.918364 94.108945 
L 374.059305 92.238907 
L 374.622579 75.408566 
L 374.764694 95.043964 
L 374.905574 94.108945 
L 375.046505 87.563812 
L 375.189837 59.513245 
L 375.330223 58.578226 
L 375.470347 55.773169 
L 375.61051 74.473547 
L 375.750902 153.950156 
L 376.033343 127.769626 
L 376.315375 82.888718 
L 376.455398 83.823737 
L 376.738173 56.708188 
L 376.878162 84.758756 
L 377.017866 153.015137 
L 377.157622 142.729929 
L 377.297369 116.549399 
L 377.437227 114.679361 
L 377.716929 75.408566 
L 377.857309 52.968112 
L 377.99724 123.094531 
L 378.138044 134.314758 
L 378.697994 52.007155 
L 378.837819 97.84902 
L 378.977515 91.303888 
L 379.117163 52.033093 
L 379.257311 67.928415 
L 379.40121 100.654077 
L 379.681652 53.903131 
L 379.821609 97.84902 
L 379.961633 104.394153 
L 380.24261 50.163056 
L 380.382603 93.173926 
L 380.664165 50.163056 
L 380.805258 114.679361 
L 381.089805 52.033093 
L 381.230537 57.643207 
L 381.37157 84.758756 
L 381.512142 71.668491 
L 381.652346 112.809323 
L 381.933695 51.098074 
L 382.076428 100.654077 
L 382.216527 50.163056 
L 382.356449 106.264191 
L 382.497729 64.188339 
L 382.637482 112.809323 
L 382.777346 57.643207 
L 382.91769 87.563812 
L 383.197831 52.968112 
L 383.337873 96.914002 
L 383.477852 55.773169 
L 383.617789 52.968112 
L 383.759285 111.874304 
L 383.898991 58.578226 
L 384.038741 75.408566 
L 384.31887 50.163056 
L 384.458567 117.484418 
L 384.600287 53.903131 
L 384.7432 124.02955 
L 385.025081 52.033093 
L 385.16528 56.708188 
L 385.445159 51.098074 
L 385.587942 51.098074 
L 385.733793 53.903131 
L 385.8791 67.928415 
L 386.021171 51.098074 
L 386.161719 57.643207 
L 386.302093 51.098074 
L 386.442222 53.903131 
L 386.582275 52.968112 
L 386.722396 51.098074 
L 386.862479 102.524115 
L 387.002357 53.903131 
L 387.142198 97.84902 
L 387.285596 53.903131 
L 387.429486 83.823737 
L 387.569974 55.773169 
L 387.714091 51.098074 
L 387.854385 116.549399 
L 387.994395 60.340187 
L 388.136185 113.744342 
L 388.276544 64.188339 
L 388.418785 98.784039 
L 388.559721 58.578226 
L 388.700128 51.098074 
L 388.841487 112.809323 
L 388.984278 51.098074 
L 389.125501 68.857258 
L 389.266571 119.354456 
L 389.549339 68.857258 
L 389.690362 55.773169 
L 389.833262 52.968112 
L 389.97391 58.578226 
L 390.11383 52.033093 
L 390.254347 92.238907 
L 390.394909 52.033093 
L 390.538172 88.498831 
L 390.819721 52.033093 
L 391.099669 54.83815 
L 391.240115 52.968112 
L 391.380134 52.968112 
L 391.520441 53.903131 
L 391.660598 67.928415 
L 391.801136 50.163056 
L 391.941378 54.83815 
L 392.225475 50.163056 
L 392.36695 52.968112 
L 392.507791 51.098074 
L 392.791529 52.968112 
L 393.07401 56.708188 
L 393.216946 50.163056 
L 393.358625 51.098074 
L 393.498991 51.098074 
L 393.639331 52.033093 
L 394.063963 62.318302 
L 394.204146 53.903131 
L 394.344217 52.968112 
L 394.484227 50.163056 
L 394.625082 50.163056 
L 394.905616 53.903131 
L 395.0456 54.83815 
L 395.329284 52.033093 
L 395.471212 56.708188 
L 395.753394 50.163056 
L 395.89379 51.098074 
L 396.038332 352.174167 
L 396.183813 352.174167 
L 396.332557 335.343826 
L 396.616369 263.347369 
L 396.758421 264.282388 
L 396.899059 262.41235 
L 397.039293 269.892502 
L 397.179396 270.827521 
L 397.319522 260.542313 
L 397.465304 259.607294 
L 397.606986 260.542313 
L 397.747092 259.607294 
L 397.887951 254.932199 
L 398.16956 261.477331 
L 398.316062 253.99718 
L 398.59682 260.542313 
L 398.736667 255.867218 
L 398.877153 256.802237 
L 399.017828 259.607294 
L 399.59234 249.322085 
L 399.8757 247.452048 
L 400.018988 245.58201 
L 400.16563 246.517029 
L 400.447218 241.841934 
L 400.593507 241.841934 
L 400.734564 236.231821 
L 400.874346 245.58201 
L 401.014573 236.231821 
L 401.157459 238.101858 
L 401.297176 228.751669 
L 401.437835 227.81665 
L 401.580955 229.686688 
L 401.726222 228.751669 
L 401.871627 218.466461 
L 402.013426 218.466461 
L 402.153707 216.596423 
L 402.294424 217.531442 
L 402.869488 208.181253 
L 403.154599 206.311215 
L 403.436646 201.636121 
L 403.579839 202.571139 
L 403.866138 194.155969 
L 404.007882 192.285931 
L 404.148376 194.155969 
L 404.575445 180.130685 
L 404.71585 181.065704 
L 405.137013 156.761388 
L 405.421441 145.534985 
L 405.562897 144.599966 
L 405.704323 132.444721 
L 405.84785 135.249777 
L 406.130778 110.939285 
L 406.698129 81.953699 
L 407.123401 51.098074 
L 407.266214 178.263118 
L 407.40708 144.599966 
L 407.547486 144.599966 
L 407.828267 126.834607 
L 408.686672 94.108945 
L 408.828621 93.173926 
L 408.972612 86.628793 
L 409.113873 85.693775 
L 409.255108 77.278604 
L 409.397558 77.278604 
L 409.540105 76.343585 
L 409.681637 90.368869 
L 409.822639 86.628793 
L 409.964067 78.213623 
L 410.245989 52.033093 
L 410.388316 183.870761 
L 410.529087 179.195666 
L 410.810514 156.761388 
L 411.233857 103.459134 
L 411.37546 88.498831 
L 411.515254 87.563812 
L 411.655553 81.953699 
L 412.076613 52.968112 
L 412.217131 149.275061 
L 412.357297 147.405023 
L 412.640639 131.509702 
L 412.925901 92.238907 
L 413.069225 85.693775 
L 413.49257 51.098074 
L 413.633692 179.195666 
L 413.915267 120.289475 
L 414.056474 118.419437 
L 414.338054 71.668491 
L 414.477616 81.01868 
L 414.759759 52.033093 
L 414.902505 145.534985 
L 415.328719 124.964569 
L 415.610753 92.238907 
L 415.751686 102.524115 
L 415.891619 138.054834 
L 416.033699 134.314758 
L 416.174521 141.79491 
L 416.45584 89.43385 
L 416.596722 92.238907 
L 416.738453 120.289475 
L 417.022636 99.719058 
L 417.303933 59.513245 
L 417.447512 80.083661 
L 417.590314 116.549399 
L 417.730441 106.264191 
L 418.011315 55.773169 
L 418.151433 78.213623 
L 418.293463 52.033093 
L 418.436631 78.213623 
L 418.57637 53.903131 
L 418.717922 77.278604 
L 418.858477 56.708188 
L 418.99829 68.857258 
L 419.138479 54.83815 
L 419.278427 97.84902 
L 419.420226 52.033093 
L 419.560948 52.033093 
L 419.700969 51.098074 
L 419.840899 52.968112 
L 419.98086 51.098074 
L 420.120852 73.538529 
L 420.260711 50.163056 
L 420.400594 52.033093 
L 420.541035 59.513245 
L 420.681641 53.903131 
L 420.961858 52.033093 
L 421.101784 52.968112 
L 421.241695 52.968112 
L 421.522334 51.098074 
L 421.663072 52.968112 
L 421.80379 52.033093 
L 421.945729 50.163056 
L 422.087461 51.098074 
L 422.22864 54.83815 
L 422.36972 51.098074 
L 422.509797 51.098074 
L 422.649777 52.968112 
L 422.79081 51.098074 
L 422.933122 52.033093 
L 423.075383 52.033093 
L 423.217234 65.123358 
L 423.499096 50.163056 
L 423.639631 66.058377 
L 423.922174 50.163056 
L 424.062401 51.098074 
L 424.203147 51.098074 
L 424.345154 52.033093 
L 424.485881 52.033093 
L 424.627125 54.83815 
L 424.908634 50.163056 
L 425.048531 50.163056 
L 425.188498 53.903131 
L 425.328681 52.968112 
L 425.469094 51.098074 
L 425.750262 54.83815 
L 425.890331 52.968112 
L 426.030672 52.968112 
L 426.171269 52.033093 
L 426.312603 65.123358 
L 426.596235 50.163056 
L 426.737495 55.773169 
L 426.880259 52.033093 
L 427.020851 117.484418 
L 427.168106 352.174167 
L 427.315862 352.174167 
L 427.741282 266.152426 
L 428.021484 263.347369 
L 428.161393 262.41235 
L 428.301211 260.542313 
L 428.442494 267.087445 
L 428.72441 254.932199 
L 428.864983 255.867218 
L 429.147636 265.217407 
L 429.432858 252.127142 
L 429.573444 255.867218 
L 429.714477 255.867218 
L 430.141207 248.387067 
L 430.282676 252.127142 
L 430.709203 242.768307 
L 430.851238 247.452048 
L 430.991799 239.971896 
L 431.137182 239.036877 
L 431.278489 247.452048 
L 431.421049 236.231821 
L 431.563349 235.296802 
L 431.705869 232.491745 
L 431.847578 235.296802 
L 431.989186 226.881631 
L 432.130472 226.881631 
L 432.274705 232.491745 
L 432.561205 224.076575 
L 432.704929 223.141556 
L 432.849766 223.141556 
L 433.138608 212.856348 
L 433.285024 225.946612 
L 433.574249 209.116272 
L 433.716355 208.181253 
L 433.857409 206.311215 
L 434.140937 199.764848 
L 434.282085 198.831064 
L 434.42897 198.831064 
L 434.571531 194.155969 
L 434.71469 195.090988 
L 434.85609 192.285931 
L 434.99901 205.376196 
L 435.282501 181.065704 
L 435.423522 182.000723 
L 435.56501 181.065704 
L 435.705097 182.935742 
L 435.845798 176.39061 
L 435.988042 177.325629 
L 436.128566 170.780496 
L 436.269713 169.845477 
L 436.413038 178.263118 
L 436.552875 161.430307 
L 436.694068 166.105402 
L 436.835077 165.170383 
L 437.541253 145.534985 
L 437.822653 132.444721 
L 438.246771 108.134229 
L 438.528449 101.589096 
L 439.092958 52.968112 
L 439.23388 146.470004 
L 439.375451 153.950156 
L 439.656831 138.054834 
L 439.939003 124.964569 
L 440.224949 109.069248 
L 440.365594 106.264191 
L 440.509367 109.069248 
L 440.650594 95.978983 
L 440.792238 116.549399 
L 440.932849 111.874304 
L 441.216821 67.928415 
L 441.639215 55.773169 
L 441.780851 69.798453 
L 441.921495 151.145099 
L 442.203458 115.61438 
L 442.344553 90.368869 
L 442.485924 88.498831 
L 442.627115 71.668491 
L 442.768102 74.473547 
L 442.909478 69.798453 
L 443.051225 155.820193 
L 443.19166 149.275061 
L 443.615461 91.303888 
L 444.04112 52.033093 
L 444.184205 153.015137 
L 444.328996 118.419437 
L 444.471998 110.939285 
L 444.903749 54.83815 
L 445.044306 62.318302 
L 445.18719 149.275061 
L 445.471541 56.708188 
L 445.611546 94.108945 
L 445.895514 55.773169 
L 446.036365 154.885175 
L 446.458355 54.83815 
L 446.59855 88.498831 
L 446.881473 53.903131 
L 447.025629 88.498831 
L 447.166945 80.083661 
L 447.312863 53.903131 
L 447.456953 68.857258 
L 447.600698 58.578226 
L 447.74143 58.578226 
L 447.885286 88.498831 
L 448.166731 52.968112 
L 448.312812 51.098074 
L 448.456119 124.02955 
L 448.596334 64.188339 
L 448.736635 76.343585 
L 448.881747 62.318302 
L 449.025102 79.148642 
L 449.16588 55.773169 
L 449.306555 52.033093 
L 449.447715 63.25332 
L 449.589277 63.25332 
L 449.729701 51.098074 
L 450.012052 62.318302 
L 450.15327 52.968112 
L 450.294513 66.058377 
L 450.43553 51.098074 
L 450.717649 51.098074 
L 451.004501 58.578226 
L 451.144562 52.033093 
L 451.284411 53.903131 
L 451.424224 63.25332 
L 451.704626 52.968112 
L 451.848512 75.408566 
L 452.131389 52.033093 
L 452.273621 89.43385 
L 452.415134 53.903131 
L 452.557822 51.098074 
L 453.121637 51.098074 
L 453.26438 52.033093 
L 453.404662 51.098074 
L 453.545851 52.033093 
L 453.690209 80.083661 
L 453.83137 54.83815 
L 453.972223 59.513245 
L 454.112762 103.459134 
L 454.253797 63.25332 
L 454.402069 62.318302 
L 454.543514 52.033093 
L 454.684292 77.278604 
L 454.824369 54.83815 
L 454.968941 52.033093 
L 455.111332 52.968112 
L 455.3962 52.968112 
L 455.538249 53.903131 
L 455.683387 51.098074 
L 455.824766 59.513245 
L 455.964907 52.033093 
L 456.105543 59.513245 
L 456.2461 78.213623 
L 456.392754 52.033093 
L 456.533476 99.719058 
L 456.674055 52.033093 
L 456.814837 52.033093 
L 456.955288 52.968112 
L 457.102001 116.549399 
L 457.246827 56.708188 
L 457.386811 74.473547 
L 457.531562 50.163056 
L 457.677375 352.174167 
L 457.973739 352.174167 
L 458.114656 219.40148 
L 458.254797 225.011594 
L 458.396095 218.466461 
L 458.538381 247.452048 
L 458.680596 246.517029 
L 458.823275 238.101858 
L 458.967515 259.607294 
L 459.110061 248.387067 
L 459.249991 247.452048 
L 459.392031 248.387067 
L 459.532798 243.711972 
L 459.672997 251.192123 
L 459.814883 249.322085 
L 460.106725 240.906915 
L 460.254814 244.646991 
L 460.400359 257.737256 
L 460.54162 243.711972 
L 460.68181 249.322085 
L 460.96778 241.841934 
L 461.111971 239.036877 
L 461.257157 244.646991 
L 461.398182 244.646991 
L 461.539121 243.711972 
L 461.824835 234.361783 
L 461.969421 229.686688 
L 462.25097 237.16684 
L 462.534954 224.076575 
L 462.676153 223.141556 
L 462.817778 220.336499 
L 462.963707 220.336499 
L 463.110839 225.011594 
L 463.251577 222.206537 
L 463.396507 212.856348 
L 463.542799 223.141556 
L 463.823562 210.051291 
L 463.970889 212.856348 
L 464.119389 211.921329 
L 464.26196 207.246234 
L 464.406785 208.181253 
L 464.832919 196.961026 
L 464.980617 194.155969 
L 465.12112 194.155969 
L 465.261854 190.415894 
L 465.406912 193.22095 
L 465.555135 190.415894 
L 465.697429 196.026007 
L 465.981688 182.935742 
L 466.124847 185.740799 
L 466.265644 178.263118 
L 466.40595 181.065704 
L 466.547391 177.325629 
L 466.688596 182.000723 
L 466.828943 169.845477 
L 466.971402 168.910458 
L 467.116963 163.300345 
L 467.257811 164.235364 
L 467.39842 162.365326 
L 467.538838 162.365326 
L 467.821643 154.777098 
L 467.961629 155.820193 
L 468.101487 162.365326 
L 468.382979 143.664948 
L 468.806228 124.02955 
L 469.088341 110.004266 
L 469.656419 60.448264 
L 469.798957 55.773169 
L 469.948006 167.975439 
L 470.08861 169.845477 
L 470.374676 146.470004 
L 471.223097 108.134229 
L 471.506526 139.924872 
L 471.786821 82.888718 
L 471.928714 81.01868 
L 472.496929 54.83815 
L 472.636724 146.470004 
L 472.778437 150.21008 
L 473.341743 85.693775 
L 473.482442 83.823737 
L 473.763163 53.903131 
L 473.902883 82.888718 
L 474.043085 169.845477 
L 474.322773 113.744342 
L 474.462632 108.134229 
L 475.025452 55.773169 
L 475.167518 157.690231 
L 475.729064 68.857258 
L 475.868794 55.773169 
L 476.148199 125.899588 
L 476.290225 97.84902 
L 476.429875 93.173926 
L 476.569435 80.083661 
L 476.709419 51.098074 
L 476.988807 118.419437 
L 477.407975 64.188339 
L 477.547975 86.628793 
L 477.687969 84.758756 
L 477.827658 52.968112 
L 477.968732 110.939285 
L 478.249692 51.098074 
L 478.389332 108.134229 
L 478.669892 52.033093 
L 478.812923 89.43385 
L 478.953386 56.708188 
L 479.094355 78.213623 
L 479.234723 66.993396 
L 479.379127 73.538529 
L 479.519232 56.708188 
L 479.658975 55.773169 
L 479.798541 50.163056 
L 479.938428 56.708188 
L 480.079594 52.968112 
L 480.360517 91.303888 
L 480.643696 68.857258 
L 480.785235 117.484418 
L 481.067867 57.643207 
L 481.209101 87.563812 
L 481.350108 55.773169 
L 481.489933 60.448264 
L 481.631374 70.733472 
L 481.771998 50.163056 
L 481.912373 51.098074 
L 482.053077 63.25332 
L 482.193714 51.098074 
L 482.333787 51.098074 
L 482.474318 56.708188 
L 482.615705 50.163056 
L 482.756557 65.123358 
L 482.898093 52.033093 
L 483.039129 63.25332 
L 483.179779 64.188339 
L 483.320573 51.098074 
L 483.462207 73.538529 
L 483.604435 52.033093 
L 483.885755 121.224493 
L 484.168312 57.643207 
L 484.308903 52.033093 
L 484.590421 52.033093 
L 484.730403 52.968112 
L 484.870132 51.098074 
L 485.009919 51.098074 
L 485.149705 54.83815 
L 485.430191 52.033093 
L 485.710927 53.903131 
L 485.99173 51.098074 
L 486.271568 51.098074 
L 486.692389 53.903131 
L 486.833413 50.163056 
L 486.974854 52.968112 
L 487.115319 52.033093 
L 487.255631 50.163056 
L 487.696463 352.174167 
L 487.985197 352.174167 
L 488.266272 255.867218 
L 488.552868 260.542313 
L 488.834198 253.062161 
L 488.974868 260.542313 
L 489.115573 249.322085 
L 489.255473 248.387067 
L 489.395397 252.127142 
L 490.240328 210.051291 
L 490.947231 134.314758 
L 491.513818 57.643207 
L 491.655175 147.405023 
L 491.796369 145.534985 
L 493.645977 95.043964 
L 493.788353 131.509702 
L 493.928396 92.238907 
L 494.634 70.733472 
L 495.059951 73.538529 
L 495.344043 63.25332 
L 495.486107 64.188339 
L 495.626182 62.318302 
L 495.766211 56.708188 
L 495.90813 58.578226 
L 496.048186 54.83815 
L 496.188421 64.188339 
L 496.329104 142.729929 
L 496.609603 132.444721 
L 496.749699 131.509702 
L 497.029827 122.159512 
L 497.459223 109.069248 
L 497.605894 108.134229 
L 497.747349 100.654077 
L 497.888653 101.589096 
L 498.171286 93.173926 
L 498.312928 94.108945 
L 498.454553 96.914002 
L 498.877152 67.928415 
L 499.01771 78.213623 
L 499.158444 78.213623 
L 499.302806 77.278604 
L 499.447018 77.278604 
L 499.88301 68.857258 
L 500.028145 70.733472 
L 500.168413 66.993396 
L 500.309103 80.083661 
L 500.592212 63.25332 
L 500.732485 63.25332 
L 500.872708 66.993396 
L 501.153067 57.643207 
L 501.298367 63.25332 
L 501.442258 75.408566 
L 501.58491 77.278604 
L 501.731544 64.188339 
L 501.879281 75.408566 
L 502.020072 123.094531 
L 502.582592 64.188339 
L 502.722516 148.340042 
L 503.003668 132.444721 
L 503.145747 94.108945 
L 503.2867 93.173926 
L 503.566618 71.668491 
L 503.70717 64.188339 
L 503.847121 83.823737 
L 503.989264 87.563812 
L 504.129509 70.733472 
L 504.270148 67.928415 
L 504.410548 73.538529 
L 504.550838 184.80578 
L 504.691619 120.289475 
L 504.832003 130.574683 
L 504.97235 112.809323 
L 505.113109 69.798453 
L 505.253836 83.823737 
L 505.534316 54.83815 
L 505.674487 154.885175 
L 505.814522 140.859891 
L 505.95446 95.043964 
L 506.096441 109.069248 
L 506.380398 53.903131 
L 506.522448 142.729929 
L 506.805564 54.83815 
L 506.949458 110.004266 
L 507.23333 59.513245 
L 507.373725 137.119815 
L 507.513965 116.549399 
L 507.656286 73.538529 
L 507.79993 77.278604 
L 507.941804 51.098074 
L 508.225302 147.405023 
L 508.365619 140.859891 
L 508.787166 73.538529 
L 508.928479 66.058377 
L 509.069994 98.784039 
L 509.355017 71.668491 
L 509.495814 133.379739 
L 510.063886 51.098074 
L 510.204819 88.498831 
L 510.345354 58.578226 
L 510.486181 88.498831 
L 510.626695 68.857258 
L 510.766748 114.653423 
L 510.907024 58.578226 
L 511.046735 96.914002 
L 511.187984 92.238907 
L 511.328449 52.033093 
L 511.468922 73.538529 
L 511.609316 76.343585 
L 511.749288 55.773169 
L 511.889276 70.733472 
L 512.029915 65.123358 
L 512.170103 52.033093 
L 512.311409 52.033093 
L 512.451367 52.968112 
L 512.591454 52.968112 
L 512.871856 54.83815 
L 513.012856 60.448264 
L 513.152884 52.033093 
L 513.295101 106.264191 
L 513.437193 52.033093 
L 513.717655 85.693775 
L 513.857375 50.163056 
L 513.997291 51.098074 
L 514.137295 74.473547 
L 514.277622 51.098074 
L 514.417571 51.098074 
L 514.557819 55.773169 
L 514.839994 51.098074 
L 514.980708 68.857258 
L 515.121368 52.033093 
L 515.262183 52.033093 
L 515.403272 89.43385 
L 515.543479 51.098074 
L 515.683364 51.098074 
L 515.823757 81.01868 
L 515.966903 51.981217 
L 516.109391 77.278604 
L 516.251234 81.01868 
L 516.391203 117.484418 
L 516.531562 67.928415 
L 516.673196 77.278604 
L 516.955905 52.968112 
L 517.096783 71.668491 
L 517.240305 52.033093 
L 517.380117 52.033093 
L 517.520633 53.903131 
L 517.661361 52.033093 
L 517.803928 63.25332 
L 517.94623 148.340042 
L 518.089181 352.174167 
L 518.380375 352.174167 
L 518.527495 316.643448 
L 518.66875 236.231821 
L 518.809898 229.686688 
L 519.091119 253.062161 
L 519.231735 253.062161 
L 519.375987 254.932199 
L 519.518518 258.672275 
L 519.659357 251.192123 
L 519.801327 251.192123 
L 520.085893 253.062161 
L 520.230845 251.192123 
L 520.371244 260.542313 
L 520.512899 250.257104 
L 520.656873 249.322085 
L 520.797321 250.257104 
L 520.937709 250.257104 
L 521.078528 248.387067 
L 521.220279 249.322085 
L 521.507853 242.768307 
L 521.649723 240.906915 
L 521.649723 240.906915 
" style="fill:none;stroke:#1f77b4;stroke-linecap:square;stroke-width:1.5;"/>
   </g>
   <g id="patch_3">
    <path d="M 120.878594 352.174167 
L 120.878594 35.0625 
" style="fill:none;stroke:#000000;stroke-linecap:square;stroke-linejoin:miter;stroke-width:0.8;"/>
   </g>
   <g id="patch_4">
    <path d="M 540.734062 352.174167 
L 540.734062 35.0625 
" style="fill:none;stroke:#000000;stroke-linecap:square;stroke-linejoin:miter;stroke-width:0.8;"/>
   </g>
   <g id="patch_5">
    <path d="M 120.878594 352.174167 
L 540.734062 352.174167 
" style="fill:none;stroke:#000000;stroke-linecap:square;stroke-linejoin:miter;stroke-width:0.8;"/>
   </g>
   <g id="patch_6">
    <path d="M 120.878594 35.0625 
L 540.734062 35.0625 
" style="fill:none;stroke:#000000;stroke-linecap:square;stroke-linejoin:miter;stroke-width:0.8;"/>
   </g>
   <g id="legend_1">
    <g id="patch_7">
     <path d="M 563.726836 63.938438 
L 627.601836 63.938438 
Q 629.601836 63.938438 629.601836 61.938438 
L 629.601836 37.0625 
Q 629.601836 35.0625 627.601836 35.0625 
L 563.726836 35.0625 
Q 561.726836 35.0625 561.726836 37.0625 
L 561.726836 61.938438 
Q 561.726836 63.938438 563.726836 63.938438 
z
" style="fill:#ffffff;opacity:0.8;stroke:#cccccc;stroke-linejoin:miter;"/>
    </g>
    <g id="line2d_14">
     <path d="M 565.726836 49.799688 
L 585.726836 49.799688 
" style="fill:none;stroke:#1f77b4;stroke-linecap:square;stroke-width:1.5;"/>
    </g>
    <g id="line2d_15"/>
    <g id="text_14">
     <!-- queue -->
     <g transform="translate(593.726836 46.660937)scale(0.1 -0.1)">
      <use xlink:href="#DejaVuSans-113"/>
      <use x="63.476562" xlink:href="#DejaVuSans-117"/>
      <use x="126.855469" xlink:href="#DejaVuSans-101"/>
      <use x="188.378906" xlink:href="#DejaVuSans-117"/>
      <use x="251.757812" xlink:href="#DejaVuSans-101"/>
     </g>
     <!-- length -->
     <defs>
      <path d="M 9.421875 75.984375 
L 18.40625 75.984375 
L 18.40625 0 
L 9.421875 0 
z
" id="DejaVuSans-108"/>
      <path d="M 54.890625 33.015625 
L 54.890625 0 
L 45.90625 0 
L 45.90625 32.71875 
Q 45.90625 40.484375 42.875 44.328125 
Q 39.84375 48.1875 33.796875 48.1875 
Q 26.515625 48.1875 22.3125 43.546875 
Q 18.109375 38.921875 18.109375 30.90625 
L 18.109375 0 
L 9.078125 0 
L 9.078125 54.6875 
L 18.109375 54.6875 
L 18.109375 46.1875 
Q 21.34375 51.125 25.703125 53.5625 
Q 30.078125 56 35.796875 56 
Q 45.21875 56 50.046875 50.171875 
Q 54.890625 44.34375 54.890625 33.015625 
z
" id="DejaVuSans-110"/>
      <path d="M 45.40625 27.984375 
Q 45.40625 37.75 41.375 43.109375 
Q 37.359375 48.484375 30.078125 48.484375 
Q 22.859375 48.484375 18.828125 43.109375 
Q 14.796875 37.75 14.796875 27.984375 
Q 14.796875 18.265625 18.828125 12.890625 
Q 22.859375 7.515625 30.078125 7.515625 
Q 37.359375 7.515625 41.375 12.890625 
Q 45.40625 18.265625 45.40625 27.984375 
z
M 54.390625 6.78125 
Q 54.390625 -7.171875 48.1875 -13.984375 
Q 42 -20.796875 29.203125 -20.796875 
Q 24.46875 -20.796875 20.265625 -20.09375 
Q 16.0625 -19.390625 12.109375 -17.921875 
L 12.109375 -9.1875 
Q 16.0625 -11.328125 19.921875 -12.34375 
Q 23.78125 -13.375 27.78125 -13.375 
Q 36.625 -13.375 41.015625 -8.765625 
Q 45.40625 -4.15625 45.40625 5.171875 
L 45.40625 9.625 
Q 42.625 4.78125 38.28125 2.390625 
Q 33.9375 0 27.875 0 
Q 17.828125 0 11.671875 7.65625 
Q 5.515625 15.328125 5.515625 27.984375 
Q 5.515625 40.671875 11.671875 48.328125 
Q 17.828125 56 27.875 56 
Q 33.9375 56 38.28125 53.609375 
Q 42.625 51.21875 45.40625 46.390625 
L 45.40625 54.6875 
L 54.390625 54.6875 
z
" id="DejaVuSans-103"/>
      <path d="M 54.890625 33.015625 
L 54.890625 0 
L 45.90625 0 
L 45.90625 32.71875 
Q 45.90625 40.484375 42.875 44.328125 
Q 39.84375 48.1875 33.796875 48.1875 
Q 26.515625 48.1875 22.3125 43.546875 
Q 18.109375 38.921875 18.109375 30.90625 
L 18.109375 0 
L 9.078125 0 
L 9.078125 75.984375 
L 18.109375 75.984375 
L 18.109375 46.1875 
Q 21.34375 51.125 25.703125 53.5625 
Q 30.078125 56 35.796875 56 
Q 45.21875 56 50.046875 50.171875 
Q 54.890625 44.34375 54.890625 33.015625 
z
" id="DejaVuSans-104"/>
     </defs>
     <g transform="translate(593.726836 57.85875)scale(0.1 -0.1)">
      <use xlink:href="#DejaVuSans-108"/>
      <use x="27.783203" xlink:href="#DejaVuSans-101"/>
      <use x="89.306641" xlink:href="#DejaVuSans-110"/>
      <use x="152.685547" xlink:href="#DejaVuSans-103"/>
      <use x="216.162109" xlink:href="#DejaVuSans-116"/>
      <use x="255.371094" xlink:href="#DejaVuSans-104"/>
     </g>
    </g>
   </g>
  </g>
  <g id="text_15">
   <!-- result queue (bytes) -->
   <defs>
    <path d="M 41.109375 46.296875 
Q 39.59375 47.171875 37.8125 47.578125 
Q 36.03125 48 33.890625 48 
Q 26.265625 48 22.1875 43.046875 
Q 18.109375 38.09375 18.109375 28.8125 
L 18.109375 0 
L 9.078125 0 
L 9.078125 54.6875 
L 18.109375 54.6875 
L 18.109375 46.1875 
Q 20.953125 51.171875 25.484375 53.578125 
Q 30.03125 56 36.53125 56 
Q 37.453125 56 38.578125 55.875 
Q 39.703125 55.765625 41.0625 55.515625 
z
" id="DejaVuSans-114"/>
    <path id="DejaVuSans-32"/>
   </defs>
   <g transform="translate(281.072812 17.038125)scale(0.12 -0.12)">
    <use xlink:href="#DejaVuSans-114"/>
    <use x="41.082031" xlink:href="#DejaVuSans-101"/>
    <use x="102.605469" xlink:href="#DejaVuSans-115"/>
    <use x="154.705078" xlink:href="#DejaVuSans-117"/>
    <use x="218.083984" xlink:href="#DejaVuSans-108"/>
    <use x="245.867188" xlink:href="#DejaVuSans-116"/>
    <use x="285.076172" xlink:href="#DejaVuSans-32"/>
    <use x="316.863281" xlink:href="#DejaVuSans-113"/>
    <use x="380.339844" xlink:href="#DejaVuSans-117"/>
    <use x="443.71875" xlink:href="#DejaVuSans-101"/>
    <use x="505.242188" xlink:href="#DejaVuSans-117"/>
    <use x="568.621094" xlink:href="#DejaVuSans-101"/>
    <use x="630.144531" xlink:href="#DejaVuSans-32"/>
    <use x="661.931641" xlink:href="#DejaVuSans-40"/>
    <use x="700.945312" xlink:href="#DejaVuSans-98"/>
    <use x="764.421875" xlink:href="#DejaVuSans-121"/>
    <use x="823.601562" xlink:href="#DejaVuSans-116"/>
    <use x="862.810547" xlink:href="#DejaVuSans-101"/>
    <use x="924.333984" xlink:href="#DejaVuSans-115"/>
    <use x="976.433594" xlink:href="#DejaVuSans-41"/>
   </g>
  </g>
 </g>
 <defs>
  <clipPath id="p0c1ccad0ad">
   <rect height="317.111667" width="419.855469" x="120.878594" y="35.0625"/>
  </clipPath>
 </defs>
</svg>
