<?xml version="1.0" encoding="utf-8" standalone="no"?>
<!DOCTYPE svg PUBLIC "-//W3C//DTD SVG 1.1//EN"
  "http://www.w3.org/Graphics/SVG/1.1/DTD/svg11.dtd">
<!-- Created with matplotlib (https://matplotlib.org/) -->
<svg height="396pt" version="1.1" viewBox="0 0 684 396" width="684pt" xmlns="http://www.w3.org/2000/svg" xmlns:xlink="http://www.w3.org/1999/xlink">
 <defs>
  <style type="text/css">
*{stroke-linecap:butt;stroke-linejoin:round;}
  </style>
 </defs>
 <g id="figure_1">
  <g id="patch_1">
   <path d="M 0 396 
L 684 396 
L 684 0 
L 0 0 
z
" style="fill:#ffffff;"/>
  </g>
  <g id="axes_1">
   <g id="patch_2">
    <path d="M 130.230156 352.174167 
L 488.365312 352.174167 
L 488.365312 35.0625 
L 130.230156 35.0625 
z
" style="fill:#ffffff;"/>
   </g>
   <g id="matplotlib.axis_1">
    <g id="xtick_1">
     <g id="line2d_1">
      <defs>
       <path d="M 0 0 
L 0 3.5 
" id="m486451b671" style="stroke:#000000;stroke-width:0.8;"/>
      </defs>
      <g>
       <use style="stroke:#000000;stroke-width:0.8;" x="146.509027" xlink:href="#m486451b671" y="352.174167"/>
      </g>
     </g>
     <g id="text_1">
      <!-- 0 -->
      <defs>
       <path d="M 31.78125 66.40625 
Q 24.171875 66.40625 20.328125 58.90625 
Q 16.5 51.421875 16.5 36.375 
Q 16.5 21.390625 20.328125 13.890625 
Q 24.171875 6.390625 31.78125 6.390625 
Q 39.453125 6.390625 43.28125 13.890625 
Q 47.125 21.390625 47.125 36.375 
Q 47.125 51.421875 43.28125 58.90625 
Q 39.453125 66.40625 31.78125 66.40625 
z
M 31.78125 74.21875 
Q 44.046875 74.21875 50.515625 64.515625 
Q 56.984375 54.828125 56.984375 36.375 
Q 56.984375 17.96875 50.515625 8.265625 
Q 44.046875 -1.421875 31.78125 -1.421875 
Q 19.53125 -1.421875 13.0625 8.265625 
Q 6.59375 17.96875 6.59375 36.375 
Q 6.59375 54.828125 13.0625 64.515625 
Q 19.53125 74.21875 31.78125 74.21875 
z
" id="DejaVuSans-48"/>
      </defs>
      <g transform="translate(143.327777 366.772604)scale(0.1 -0.1)">
       <use xlink:href="#DejaVuSans-48"/>
      </g>
     </g>
    </g>
    <g id="xtick_2">
     <g id="line2d_2">
      <g>
       <use style="stroke:#000000;stroke-width:0.8;" x="205.603064" xlink:href="#m486451b671" y="352.174167"/>
      </g>
     </g>
     <g id="text_2">
      <!-- 50 -->
      <defs>
       <path d="M 10.796875 72.90625 
L 49.515625 72.90625 
L 49.515625 64.59375 
L 19.828125 64.59375 
L 19.828125 46.734375 
Q 21.96875 47.46875 24.109375 47.828125 
Q 26.265625 48.1875 28.421875 48.1875 
Q 40.625 48.1875 47.75 41.5 
Q 54.890625 34.8125 54.890625 23.390625 
Q 54.890625 11.625 47.5625 5.09375 
Q 40.234375 -1.421875 26.90625 -1.421875 
Q 22.3125 -1.421875 17.546875 -0.640625 
Q 12.796875 0.140625 7.71875 1.703125 
L 7.71875 11.625 
Q 12.109375 9.234375 16.796875 8.0625 
Q 21.484375 6.890625 26.703125 6.890625 
Q 35.15625 6.890625 40.078125 11.328125 
Q 45.015625 15.765625 45.015625 23.390625 
Q 45.015625 31 40.078125 35.4375 
Q 35.15625 39.890625 26.703125 39.890625 
Q 22.75 39.890625 18.8125 39.015625 
Q 14.890625 38.140625 10.796875 36.28125 
z
" id="DejaVuSans-53"/>
      </defs>
      <g transform="translate(199.240564 366.772604)scale(0.1 -0.1)">
       <use xlink:href="#DejaVuSans-53"/>
       <use x="63.623047" xlink:href="#DejaVuSans-48"/>
      </g>
     </g>
    </g>
    <g id="xtick_3">
     <g id="line2d_3">
      <g>
       <use style="stroke:#000000;stroke-width:0.8;" x="264.697101" xlink:href="#m486451b671" y="352.174167"/>
      </g>
     </g>
     <g id="text_3">
      <!-- 100 -->
      <defs>
       <path d="M 12.40625 8.296875 
L 28.515625 8.296875 
L 28.515625 63.921875 
L 10.984375 60.40625 
L 10.984375 69.390625 
L 28.421875 72.90625 
L 38.28125 72.90625 
L 38.28125 8.296875 
L 54.390625 8.296875 
L 54.390625 0 
L 12.40625 0 
z
" id="DejaVuSans-49"/>
      </defs>
      <g transform="translate(255.153351 366.772604)scale(0.1 -0.1)">
       <use xlink:href="#DejaVuSans-49"/>
       <use x="63.623047" xlink:href="#DejaVuSans-48"/>
       <use x="127.246094" xlink:href="#DejaVuSans-48"/>
      </g>
     </g>
    </g>
    <g id="xtick_4">
     <g id="line2d_4">
      <g>
       <use style="stroke:#000000;stroke-width:0.8;" x="323.791138" xlink:href="#m486451b671" y="352.174167"/>
      </g>
     </g>
     <g id="text_4">
      <!-- 150 -->
      <g transform="translate(314.247388 366.772604)scale(0.1 -0.1)">
       <use xlink:href="#DejaVuSans-49"/>
       <use x="63.623047" xlink:href="#DejaVuSans-53"/>
       <use x="127.246094" xlink:href="#DejaVuSans-48"/>
      </g>
     </g>
    </g>
    <g id="xtick_5">
     <g id="line2d_5">
      <g>
       <use style="stroke:#000000;stroke-width:0.8;" x="382.885175" xlink:href="#m486451b671" y="352.174167"/>
      </g>
     </g>
     <g id="text_5">
      <!-- 200 -->
      <defs>
       <path d="M 19.1875 8.296875 
L 53.609375 8.296875 
L 53.609375 0 
L 7.328125 0 
L 7.328125 8.296875 
Q 12.9375 14.109375 22.625 23.890625 
Q 32.328125 33.6875 34.8125 36.53125 
Q 39.546875 41.84375 41.421875 45.53125 
Q 43.3125 49.21875 43.3125 52.78125 
Q 43.3125 58.59375 39.234375 62.25 
Q 35.15625 65.921875 28.609375 65.921875 
Q 23.96875 65.921875 18.8125 64.3125 
Q 13.671875 62.703125 7.8125 59.421875 
L 7.8125 69.390625 
Q 13.765625 71.78125 18.9375 73 
Q 24.125 74.21875 28.421875 74.21875 
Q 39.75 74.21875 46.484375 68.546875 
Q 53.21875 62.890625 53.21875 53.421875 
Q 53.21875 48.921875 51.53125 44.890625 
Q 49.859375 40.875 45.40625 35.40625 
Q 44.1875 33.984375 37.640625 27.21875 
Q 31.109375 20.453125 19.1875 8.296875 
z
" id="DejaVuSans-50"/>
      </defs>
      <g transform="translate(373.341425 366.772604)scale(0.1 -0.1)">
       <use xlink:href="#DejaVuSans-50"/>
       <use x="63.623047" xlink:href="#DejaVuSans-48"/>
       <use x="127.246094" xlink:href="#DejaVuSans-48"/>
      </g>
     </g>
    </g>
    <g id="xtick_6">
     <g id="line2d_6">
      <g>
       <use style="stroke:#000000;stroke-width:0.8;" x="441.979212" xlink:href="#m486451b671" y="352.174167"/>
      </g>
     </g>
     <g id="text_6">
      <!-- 250 -->
      <g transform="translate(432.435462 366.772604)scale(0.1 -0.1)">
       <use xlink:href="#DejaVuSans-50"/>
       <use x="63.623047" xlink:href="#DejaVuSans-53"/>
       <use x="127.246094" xlink:href="#DejaVuSans-48"/>
      </g>
     </g>
    </g>
   </g>
   <g id="matplotlib.axis_2">
    <g id="ytick_1">
     <g id="line2d_7">
      <defs>
       <path d="M 0 0 
L -3.5 0 
" id="md7474cdbe5" style="stroke:#000000;stroke-width:0.8;"/>
      </defs>
      <g>
       <use style="stroke:#000000;stroke-width:0.8;" x="130.230156" xlink:href="#md7474cdbe5" y="352.174167"/>
      </g>
     </g>
     <g id="text_7">
      <!-- 0 -->
      <g transform="translate(116.867656 355.973385)scale(0.1 -0.1)">
       <use xlink:href="#DejaVuSans-48"/>
      </g>
     </g>
    </g>
    <g id="ytick_2">
     <g id="line2d_8">
      <g>
       <use style="stroke:#000000;stroke-width:0.8;" x="130.230156" xlink:href="#md7474cdbe5" y="307.368321"/>
      </g>
     </g>
     <g id="text_8">
      <!-- 200000 -->
      <g transform="translate(85.055156 311.16754)scale(0.1 -0.1)">
       <use xlink:href="#DejaVuSans-50"/>
       <use x="63.623047" xlink:href="#DejaVuSans-48"/>
       <use x="127.246094" xlink:href="#DejaVuSans-48"/>
       <use x="190.869141" xlink:href="#DejaVuSans-48"/>
       <use x="254.492188" xlink:href="#DejaVuSans-48"/>
       <use x="318.115234" xlink:href="#DejaVuSans-48"/>
      </g>
     </g>
    </g>
    <g id="ytick_3">
     <g id="line2d_9">
      <g>
       <use style="stroke:#000000;stroke-width:0.8;" x="130.230156" xlink:href="#md7474cdbe5" y="262.562476"/>
      </g>
     </g>
     <g id="text_9">
      <!-- 400000 -->
      <defs>
       <path d="M 37.796875 64.3125 
L 12.890625 25.390625 
L 37.796875 25.390625 
z
M 35.203125 72.90625 
L 47.609375 72.90625 
L 47.609375 25.390625 
L 58.015625 25.390625 
L 58.015625 17.1875 
L 47.609375 17.1875 
L 47.609375 0 
L 37.796875 0 
L 37.796875 17.1875 
L 4.890625 17.1875 
L 4.890625 26.703125 
z
" id="DejaVuSans-52"/>
      </defs>
      <g transform="translate(85.055156 266.361695)scale(0.1 -0.1)">
       <use xlink:href="#DejaVuSans-52"/>
       <use x="63.623047" xlink:href="#DejaVuSans-48"/>
       <use x="127.246094" xlink:href="#DejaVuSans-48"/>
       <use x="190.869141" xlink:href="#DejaVuSans-48"/>
       <use x="254.492188" xlink:href="#DejaVuSans-48"/>
       <use x="318.115234" xlink:href="#DejaVuSans-48"/>
      </g>
     </g>
    </g>
    <g id="ytick_4">
     <g id="line2d_10">
      <g>
       <use style="stroke:#000000;stroke-width:0.8;" x="130.230156" xlink:href="#md7474cdbe5" y="217.756631"/>
      </g>
     </g>
     <g id="text_10">
      <!-- 600000 -->
      <defs>
       <path d="M 33.015625 40.375 
Q 26.375 40.375 22.484375 35.828125 
Q 18.609375 31.296875 18.609375 23.390625 
Q 18.609375 15.53125 22.484375 10.953125 
Q 26.375 6.390625 33.015625 6.390625 
Q 39.65625 6.390625 43.53125 10.953125 
Q 47.40625 15.53125 47.40625 23.390625 
Q 47.40625 31.296875 43.53125 35.828125 
Q 39.65625 40.375 33.015625 40.375 
z
M 52.59375 71.296875 
L 52.59375 62.3125 
Q 48.875 64.0625 45.09375 64.984375 
Q 41.3125 65.921875 37.59375 65.921875 
Q 27.828125 65.921875 22.671875 59.328125 
Q 17.53125 52.734375 16.796875 39.40625 
Q 19.671875 43.65625 24.015625 45.921875 
Q 28.375 48.1875 33.59375 48.1875 
Q 44.578125 48.1875 50.953125 41.515625 
Q 57.328125 34.859375 57.328125 23.390625 
Q 57.328125 12.15625 50.6875 5.359375 
Q 44.046875 -1.421875 33.015625 -1.421875 
Q 20.359375 -1.421875 13.671875 8.265625 
Q 6.984375 17.96875 6.984375 36.375 
Q 6.984375 53.65625 15.1875 63.9375 
Q 23.390625 74.21875 37.203125 74.21875 
Q 40.921875 74.21875 44.703125 73.484375 
Q 48.484375 72.75 52.59375 71.296875 
z
" id="DejaVuSans-54"/>
      </defs>
      <g transform="translate(85.055156 221.55585)scale(0.1 -0.1)">
       <use xlink:href="#DejaVuSans-54"/>
       <use x="63.623047" xlink:href="#DejaVuSans-48"/>
       <use x="127.246094" xlink:href="#DejaVuSans-48"/>
       <use x="190.869141" xlink:href="#DejaVuSans-48"/>
       <use x="254.492188" xlink:href="#DejaVuSans-48"/>
       <use x="318.115234" xlink:href="#DejaVuSans-48"/>
      </g>
     </g>
    </g>
    <g id="ytick_5">
     <g id="line2d_11">
      <g>
       <use style="stroke:#000000;stroke-width:0.8;" x="130.230156" xlink:href="#md7474cdbe5" y="172.950786"/>
      </g>
     </g>
     <g id="text_11">
      <!-- 800000 -->
      <defs>
       <path d="M 31.78125 34.625 
Q 24.75 34.625 20.71875 30.859375 
Q 16.703125 27.09375 16.703125 20.515625 
Q 16.703125 13.921875 20.71875 10.15625 
Q 24.75 6.390625 31.78125 6.390625 
Q 38.8125 6.390625 42.859375 10.171875 
Q 46.921875 13.96875 46.921875 20.515625 
Q 46.921875 27.09375 42.890625 30.859375 
Q 38.875 34.625 31.78125 34.625 
z
M 21.921875 38.8125 
Q 15.578125 40.375 12.03125 44.71875 
Q 8.5 49.078125 8.5 55.328125 
Q 8.5 64.0625 14.71875 69.140625 
Q 20.953125 74.21875 31.78125 74.21875 
Q 42.671875 74.21875 48.875 69.140625 
Q 55.078125 64.0625 55.078125 55.328125 
Q 55.078125 49.078125 51.53125 44.71875 
Q 48 40.375 41.703125 38.8125 
Q 48.828125 37.15625 52.796875 32.3125 
Q 56.78125 27.484375 56.78125 20.515625 
Q 56.78125 9.90625 50.3125 4.234375 
Q 43.84375 -1.421875 31.78125 -1.421875 
Q 19.734375 -1.421875 13.25 4.234375 
Q 6.78125 9.90625 6.78125 20.515625 
Q 6.78125 27.484375 10.78125 32.3125 
Q 14.796875 37.15625 21.921875 38.8125 
z
M 18.3125 54.390625 
Q 18.3125 48.734375 21.84375 45.5625 
Q 25.390625 42.390625 31.78125 42.390625 
Q 38.140625 42.390625 41.71875 45.5625 
Q 45.3125 48.734375 45.3125 54.390625 
Q 45.3125 60.0625 41.71875 63.234375 
Q 38.140625 66.40625 31.78125 66.40625 
Q 25.390625 66.40625 21.84375 63.234375 
Q 18.3125 60.0625 18.3125 54.390625 
z
" id="DejaVuSans-56"/>
      </defs>
      <g transform="translate(85.055156 176.750005)scale(0.1 -0.1)">
       <use xlink:href="#DejaVuSans-56"/>
       <use x="63.623047" xlink:href="#DejaVuSans-48"/>
       <use x="127.246094" xlink:href="#DejaVuSans-48"/>
       <use x="190.869141" xlink:href="#DejaVuSans-48"/>
       <use x="254.492188" xlink:href="#DejaVuSans-48"/>
       <use x="318.115234" xlink:href="#DejaVuSans-48"/>
      </g>
     </g>
    </g>
    <g id="ytick_6">
     <g id="line2d_12">
      <g>
       <use style="stroke:#000000;stroke-width:0.8;" x="130.230156" xlink:href="#md7474cdbe5" y="128.144941"/>
      </g>
     </g>
     <g id="text_12">
      <!-- 1000000 -->
      <g transform="translate(78.692656 131.944159)scale(0.1 -0.1)">
       <use xlink:href="#DejaVuSans-49"/>
       <use x="63.623047" xlink:href="#DejaVuSans-48"/>
       <use x="127.246094" xlink:href="#DejaVuSans-48"/>
       <use x="190.869141" xlink:href="#DejaVuSans-48"/>
       <use x="254.492188" xlink:href="#DejaVuSans-48"/>
       <use x="318.115234" xlink:href="#DejaVuSans-48"/>
       <use x="381.738281" xlink:href="#DejaVuSans-48"/>
      </g>
     </g>
    </g>
    <g id="ytick_7">
     <g id="line2d_13">
      <g>
       <use style="stroke:#000000;stroke-width:0.8;" x="130.230156" xlink:href="#md7474cdbe5" y="83.339096"/>
      </g>
     </g>
     <g id="text_13">
      <!-- 1200000 -->
      <g transform="translate(78.692656 87.138314)scale(0.1 -0.1)">
       <use xlink:href="#DejaVuSans-49"/>
       <use x="63.623047" xlink:href="#DejaVuSans-50"/>
       <use x="127.246094" xlink:href="#DejaVuSans-48"/>
       <use x="190.869141" xlink:href="#DejaVuSans-48"/>
       <use x="254.492188" xlink:href="#DejaVuSans-48"/>
       <use x="318.115234" xlink:href="#DejaVuSans-48"/>
       <use x="381.738281" xlink:href="#DejaVuSans-48"/>
      </g>
     </g>
    </g>
    <g id="ytick_8">
     <g id="line2d_14">
      <g>
       <use style="stroke:#000000;stroke-width:0.8;" x="130.230156" xlink:href="#md7474cdbe5" y="38.53325"/>
      </g>
     </g>
     <g id="text_14">
      <!-- 1400000 -->
      <g transform="translate(78.692656 42.332469)scale(0.1 -0.1)">
       <use xlink:href="#DejaVuSans-49"/>
       <use x="63.623047" xlink:href="#DejaVuSans-52"/>
       <use x="127.246094" xlink:href="#DejaVuSans-48"/>
       <use x="190.869141" xlink:href="#DejaVuSans-48"/>
       <use x="254.492188" xlink:href="#DejaVuSans-48"/>
       <use x="318.115234" xlink:href="#DejaVuSans-48"/>
       <use x="381.738281" xlink:href="#DejaVuSans-48"/>
      </g>
     </g>
    </g>
    <g id="text_15">
     <!-- inflight -->
     <defs>
      <path d="M 9.421875 54.6875 
L 18.40625 54.6875 
L 18.40625 0 
L 9.421875 0 
z
M 9.421875 75.984375 
L 18.40625 75.984375 
L 18.40625 64.59375 
L 9.421875 64.59375 
z
" id="DejaVuSans-105"/>
      <path d="M 54.890625 33.015625 
L 54.890625 0 
L 45.90625 0 
L 45.90625 32.71875 
Q 45.90625 40.484375 42.875 44.328125 
Q 39.84375 48.1875 33.796875 48.1875 
Q 26.515625 48.1875 22.3125 43.546875 
Q 18.109375 38.921875 18.109375 30.90625 
L 18.109375 0 
L 9.078125 0 
L 9.078125 54.6875 
L 18.109375 54.6875 
L 18.109375 46.1875 
Q 21.34375 51.125 25.703125 53.5625 
Q 30.078125 56 35.796875 56 
Q 45.21875 56 50.046875 50.171875 
Q 54.890625 44.34375 54.890625 33.015625 
z
" id="DejaVuSans-110"/>
      <path d="M 37.109375 75.984375 
L 37.109375 68.5 
L 28.515625 68.5 
Q 23.6875 68.5 21.796875 66.546875 
Q 19.921875 64.59375 19.921875 59.515625 
L 19.921875 54.6875 
L 34.71875 54.6875 
L 34.71875 47.703125 
L 19.921875 47.703125 
L 19.921875 0 
L 10.890625 0 
L 10.890625 47.703125 
L 2.296875 47.703125 
L 2.296875 54.6875 
L 10.890625 54.6875 
L 10.890625 58.5 
Q 10.890625 67.625 15.140625 71.796875 
Q 19.390625 75.984375 28.609375 75.984375 
z
" id="DejaVuSans-102"/>
      <path d="M 9.421875 75.984375 
L 18.40625 75.984375 
L 18.40625 0 
L 9.421875 0 
z
" id="DejaVuSans-108"/>
      <path d="M 45.40625 27.984375 
Q 45.40625 37.75 41.375 43.109375 
Q 37.359375 48.484375 30.078125 48.484375 
Q 22.859375 48.484375 18.828125 43.109375 
Q 14.796875 37.75 14.796875 27.984375 
Q 14.796875 18.265625 18.828125 12.890625 
Q 22.859375 7.515625 30.078125 7.515625 
Q 37.359375 7.515625 41.375 12.890625 
Q 45.40625 18.265625 45.40625 27.984375 
z
M 54.390625 6.78125 
Q 54.390625 -7.171875 48.1875 -13.984375 
Q 42 -20.796875 29.203125 -20.796875 
Q 24.46875 -20.796875 20.265625 -20.09375 
Q 16.0625 -19.390625 12.109375 -17.921875 
L 12.109375 -9.1875 
Q 16.0625 -11.328125 19.921875 -12.34375 
Q 23.78125 -13.375 27.78125 -13.375 
Q 36.625 -13.375 41.015625 -8.765625 
Q 45.40625 -4.15625 45.40625 5.171875 
L 45.40625 9.625 
Q 42.625 4.78125 38.28125 2.390625 
Q 33.9375 0 27.875 0 
Q 17.828125 0 11.671875 7.65625 
Q 5.515625 15.328125 5.515625 27.984375 
Q 5.515625 40.671875 11.671875 48.328125 
Q 17.828125 56 27.875 56 
Q 33.9375 56 38.28125 53.609375 
Q 42.625 51.21875 45.40625 46.390625 
L 45.40625 54.6875 
L 54.390625 54.6875 
z
" id="DejaVuSans-103"/>
      <path d="M 54.890625 33.015625 
L 54.890625 0 
L 45.90625 0 
L 45.90625 32.71875 
Q 45.90625 40.484375 42.875 44.328125 
Q 39.84375 48.1875 33.796875 48.1875 
Q 26.515625 48.1875 22.3125 43.546875 
Q 18.109375 38.921875 18.109375 30.90625 
L 18.109375 0 
L 9.078125 0 
L 9.078125 75.984375 
L 18.109375 75.984375 
L 18.109375 46.1875 
Q 21.34375 51.125 25.703125 53.5625 
Q 30.078125 56 35.796875 56 
Q 45.21875 56 50.046875 50.171875 
Q 54.890625 44.34375 54.890625 33.015625 
z
" id="DejaVuSans-104"/>
      <path d="M 18.3125 70.21875 
L 18.3125 54.6875 
L 36.8125 54.6875 
L 36.8125 47.703125 
L 18.3125 47.703125 
L 18.3125 18.015625 
Q 18.3125 11.328125 20.140625 9.421875 
Q 21.96875 7.515625 27.59375 7.515625 
L 36.8125 7.515625 
L 36.8125 0 
L 27.59375 0 
Q 17.1875 0 13.234375 3.875 
Q 9.28125 7.765625 9.28125 18.015625 
L 9.28125 47.703125 
L 2.6875 47.703125 
L 2.6875 54.6875 
L 9.28125 54.6875 
L 9.28125 70.21875 
z
" id="DejaVuSans-116"/>
     </defs>
     <g transform="translate(61.415156 211.017552)rotate(-90)scale(0.1 -0.1)">
      <use xlink:href="#DejaVuSans-105"/>
      <use x="27.783203" xlink:href="#DejaVuSans-110"/>
      <use x="91.162109" xlink:href="#DejaVuSans-102"/>
      <use x="126.367188" xlink:href="#DejaVuSans-108"/>
      <use x="154.150391" xlink:href="#DejaVuSans-105"/>
      <use x="181.933594" xlink:href="#DejaVuSans-103"/>
      <use x="245.410156" xlink:href="#DejaVuSans-104"/>
      <use x="308.789062" xlink:href="#DejaVuSans-116"/>
     </g>
     <!-- (bytes) -->
     <defs>
      <path d="M 31 75.875 
Q 24.46875 64.65625 21.28125 53.65625 
Q 18.109375 42.671875 18.109375 31.390625 
Q 18.109375 20.125 21.3125 9.0625 
Q 24.515625 -2 31 -13.1875 
L 23.1875 -13.1875 
Q 15.875 -1.703125 12.234375 9.375 
Q 8.59375 20.453125 8.59375 31.390625 
Q 8.59375 42.28125 12.203125 53.3125 
Q 15.828125 64.359375 23.1875 75.875 
z
" id="DejaVuSans-40"/>
      <path d="M 48.6875 27.296875 
Q 48.6875 37.203125 44.609375 42.84375 
Q 40.53125 48.484375 33.40625 48.484375 
Q 26.265625 48.484375 22.1875 42.84375 
Q 18.109375 37.203125 18.109375 27.296875 
Q 18.109375 17.390625 22.1875 11.75 
Q 26.265625 6.109375 33.40625 6.109375 
Q 40.53125 6.109375 44.609375 11.75 
Q 48.6875 17.390625 48.6875 27.296875 
z
M 18.109375 46.390625 
Q 20.953125 51.265625 25.265625 53.625 
Q 29.59375 56 35.59375 56 
Q 45.5625 56 51.78125 48.09375 
Q 58.015625 40.1875 58.015625 27.296875 
Q 58.015625 14.40625 51.78125 6.484375 
Q 45.5625 -1.421875 35.59375 -1.421875 
Q 29.59375 -1.421875 25.265625 0.953125 
Q 20.953125 3.328125 18.109375 8.203125 
L 18.109375 0 
L 9.078125 0 
L 9.078125 75.984375 
L 18.109375 75.984375 
z
" id="DejaVuSans-98"/>
      <path d="M 32.171875 -5.078125 
Q 28.375 -14.84375 24.75 -17.8125 
Q 21.140625 -20.796875 15.09375 -20.796875 
L 7.90625 -20.796875 
L 7.90625 -13.28125 
L 13.1875 -13.28125 
Q 16.890625 -13.28125 18.9375 -11.515625 
Q 21 -9.765625 23.484375 -3.21875 
L 25.09375 0.875 
L 2.984375 54.6875 
L 12.5 54.6875 
L 29.59375 11.921875 
L 46.6875 54.6875 
L 56.203125 54.6875 
z
" id="DejaVuSans-121"/>
      <path d="M 56.203125 29.59375 
L 56.203125 25.203125 
L 14.890625 25.203125 
Q 15.484375 15.921875 20.484375 11.0625 
Q 25.484375 6.203125 34.421875 6.203125 
Q 39.59375 6.203125 44.453125 7.46875 
Q 49.3125 8.734375 54.109375 11.28125 
L 54.109375 2.78125 
Q 49.265625 0.734375 44.1875 -0.34375 
Q 39.109375 -1.421875 33.890625 -1.421875 
Q 20.796875 -1.421875 13.15625 6.1875 
Q 5.515625 13.8125 5.515625 26.8125 
Q 5.515625 40.234375 12.765625 48.109375 
Q 20.015625 56 32.328125 56 
Q 43.359375 56 49.78125 48.890625 
Q 56.203125 41.796875 56.203125 29.59375 
z
M 47.21875 32.234375 
Q 47.125 39.59375 43.09375 43.984375 
Q 39.0625 48.390625 32.421875 48.390625 
Q 24.90625 48.390625 20.390625 44.140625 
Q 15.875 39.890625 15.1875 32.171875 
z
" id="DejaVuSans-101"/>
      <path d="M 44.28125 53.078125 
L 44.28125 44.578125 
Q 40.484375 46.53125 36.375 47.5 
Q 32.28125 48.484375 27.875 48.484375 
Q 21.1875 48.484375 17.84375 46.4375 
Q 14.5 44.390625 14.5 40.28125 
Q 14.5 37.15625 16.890625 35.375 
Q 19.28125 33.59375 26.515625 31.984375 
L 29.59375 31.296875 
Q 39.15625 29.25 43.1875 25.515625 
Q 47.21875 21.78125 47.21875 15.09375 
Q 47.21875 7.46875 41.1875 3.015625 
Q 35.15625 -1.421875 24.609375 -1.421875 
Q 20.21875 -1.421875 15.453125 -0.5625 
Q 10.6875 0.296875 5.421875 2 
L 5.421875 11.28125 
Q 10.40625 8.6875 15.234375 7.390625 
Q 20.0625 6.109375 24.8125 6.109375 
Q 31.15625 6.109375 34.5625 8.28125 
Q 37.984375 10.453125 37.984375 14.40625 
Q 37.984375 18.0625 35.515625 20.015625 
Q 33.0625 21.96875 24.703125 23.78125 
L 21.578125 24.515625 
Q 13.234375 26.265625 9.515625 29.90625 
Q 5.8125 33.546875 5.8125 39.890625 
Q 5.8125 47.609375 11.28125 51.796875 
Q 16.75 56 26.8125 56 
Q 31.78125 56 36.171875 55.265625 
Q 40.578125 54.546875 44.28125 53.078125 
z
" id="DejaVuSans-115"/>
      <path d="M 8.015625 75.875 
L 15.828125 75.875 
Q 23.140625 64.359375 26.78125 53.3125 
Q 30.421875 42.28125 30.421875 31.390625 
Q 30.421875 20.453125 26.78125 9.375 
Q 23.140625 -1.703125 15.828125 -13.1875 
L 8.015625 -13.1875 
Q 14.5 -2 17.703125 9.0625 
Q 20.90625 20.125 20.90625 31.390625 
Q 20.90625 42.671875 17.703125 53.65625 
Q 14.5 64.65625 8.015625 75.875 
z
" id="DejaVuSans-41"/>
     </defs>
     <g transform="translate(72.612969 211.294896)rotate(-90)scale(0.1 -0.1)">
      <use xlink:href="#DejaVuSans-40"/>
      <use x="39.013672" xlink:href="#DejaVuSans-98"/>
      <use x="102.490234" xlink:href="#DejaVuSans-121"/>
      <use x="161.669922" xlink:href="#DejaVuSans-116"/>
      <use x="200.878906" xlink:href="#DejaVuSans-101"/>
      <use x="262.402344" xlink:href="#DejaVuSans-115"/>
      <use x="314.501953" xlink:href="#DejaVuSans-41"/>
     </g>
    </g>
   </g>
   <g id="line2d_15">
    <path clip-path="url(#p9a40c67d9f)" d="M 151.172728 150.076506 
L 151.763669 228.579931 
L 152.354609 227.931142 
L 152.945549 236.365395 
L 153.53649 214.630975 
L 154.12743 218.199313 
L 154.718371 223.714016 
L 155.309311 272.373164 
L 155.900251 272.373164 
L 156.491192 288.268486 
L 157.082132 293.783189 
L 157.673072 297.027132 
L 158.264013 305.785779 
L 158.854953 301.244259 
L 159.445894 308.056539 
L 160.036834 312.922454 
L 160.627774 314.86882 
L 161.218715 315.517609 
L 161.809655 319.41034 
L 162.400595 322.005495 
L 162.991536 327.844593 
L 163.582476 316.166397 
L 164.173417 317.463975 
L 164.764357 320.059129 
L 165.355297 329.466564 
L 165.946238 329.790959 
L 166.537178 329.14217 
L 167.128118 329.790959 
L 167.719059 326.87141 
L 168.309999 325.249438 
L 168.900939 327.844593 
L 169.49188 321.032312 
L 170.08282 319.085946 
L 170.673761 321.681101 
L 171.264701 316.166397 
L 171.855641 314.86882 
L 172.446582 319.41034 
L 173.037522 312.922454 
L 173.628462 311.949271 
L 174.219403 316.490792 
L 175.401284 311.949271 
L 175.992224 316.166397 
L 176.583164 313.246848 
L 177.174105 351.849772 
L 177.765045 302.86623 
L 178.355985 311.949271 
L 178.946926 310.651694 
L 179.537866 314.544426 
L 180.128806 311.300482 
L 180.719747 314.544426 
L 181.310687 312.59806 
L 181.901628 311.300482 
L 182.492568 313.246848 
L 183.083508 310.976088 
L 183.674449 311.300482 
L 184.265389 310.002905 
L 184.856329 310.327299 
L 185.44727 311.949271 
L 186.03821 311.949271 
L 186.629151 313.571243 
L 187.220091 313.895637 
L 187.811031 315.842003 
L 188.401972 310.976088 
L 188.992912 318.112763 
L 189.583852 300.919864 
L 190.174793 306.110173 
L 190.765733 310.002905 
L 191.356674 308.705328 
L 191.947614 310.327299 
L 192.538554 309.354117 
L 193.129495 311.624877 
L 193.720435 310.002905 
L 194.311375 313.571243 
L 194.902316 310.976088 
L 195.493256 314.86882 
L 196.084196 310.651694 
L 196.675137 319.085946 
L 197.266077 311.624877 
L 197.857018 317.13958 
L 198.447958 313.246848 
L 199.038898 314.86882 
L 199.629839 315.193214 
L 200.220779 314.86882 
L 200.811719 314.86882 
L 201.40266 351.849772 
L 201.9936 293.458795 
L 202.584541 309.354117 
L 203.175481 301.568653 
L 203.766421 310.651694 
L 204.357362 306.758962 
L 204.948302 312.922454 
L 205.539242 308.705328 
L 206.130183 311.624877 
L 206.721123 310.327299 
L 207.312064 315.193214 
L 207.903004 310.327299 
L 208.493944 314.220031 
L 209.084885 310.976088 
L 209.675825 314.220031 
L 210.266765 311.949271 
L 210.857706 313.246848 
L 211.448646 318.437157 
L 212.039586 313.895637 
L 212.630527 314.220031 
L 213.221467 313.895637 
L 213.812408 303.515019 
L 214.994288 313.895637 
L 215.585229 314.544426 
L 216.176169 315.842003 
L 216.767109 313.571243 
L 217.35805 317.463975 
L 217.94899 315.193214 
L 218.539931 323.303072 
L 219.130871 316.490792 
L 219.721811 320.707918 
L 220.312752 318.437157 
L 220.903692 323.627467 
L 221.494632 321.681101 
L 222.085573 320.707918 
L 222.676513 320.059129 
L 223.267453 322.005495 
L 223.858394 320.383523 
L 224.449334 321.356706 
L 225.040275 324.60065 
L 225.631215 351.849772 
L 226.222155 303.839413 
L 226.813096 312.273665 
L 227.404036 314.86882 
L 227.994976 312.59806 
L 228.585917 314.86882 
L 229.767798 314.220031 
L 230.358738 315.193214 
L 230.949678 315.842003 
L 231.540619 316.166397 
L 232.131559 317.13958 
L 232.722499 317.463975 
L 233.31344 321.032312 
L 233.90438 317.788369 
L 234.495321 322.005495 
L 235.086261 319.41034 
L 235.677201 322.329889 
L 236.268142 318.761552 
L 236.859082 321.032312 
L 237.450022 319.734735 
L 238.040963 308.056539 
L 238.631903 309.354117 
L 239.222843 311.300482 
L 239.813784 307.732145 
L 240.404724 314.544426 
L 240.995665 309.354117 
L 241.586605 315.517609 
L 242.177545 310.976088 
L 242.768486 314.86882 
L 243.359426 310.976088 
L 243.950366 311.624877 
L 244.541307 313.246848 
L 245.132247 310.651694 
L 245.723188 313.246848 
L 246.314128 309.678511 
L 246.905068 310.002905 
L 247.496009 309.029722 
L 248.086949 310.976088 
L 248.677889 310.327299 
L 249.26883 311.300482 
L 249.85977 351.849772 
L 250.45071 311.300482 
L 251.041651 315.193214 
L 251.632591 318.112763 
L 252.223532 315.842003 
L 252.814472 319.085946 
L 253.405412 315.842003 
L 253.996353 320.059129 
L 254.587293 315.517609 
L 255.178233 322.005495 
L 255.769174 317.13958 
L 256.360114 318.761552 
L 257.541995 318.112763 
L 258.132935 320.059129 
L 258.723876 316.490792 
L 259.314816 318.112763 
L 259.905756 316.815186 
L 260.496697 318.112763 
L 261.087637 317.463975 
L 261.678578 318.761552 
L 262.269518 319.734735 
L 262.860458 315.517609 
L 263.451399 316.815186 
L 264.042339 317.788369 
L 264.633279 318.112763 
L 265.22422 317.788369 
L 266.4061 319.085946 
L 266.997041 323.303072 
L 268.178922 319.085946 
L 268.769862 322.978678 
L 269.360802 319.734735 
L 269.951743 324.276255 
L 270.542683 321.032312 
L 271.133623 323.627467 
L 271.724564 321.356706 
L 272.315504 320.383523 
L 272.906445 320.707918 
L 273.497385 320.059129 
L 274.088325 351.849772 
L 274.679266 320.059129 
L 275.270206 321.681101 
L 275.861146 321.032312 
L 276.452087 322.978678 
L 277.043027 322.005495 
L 277.633967 325.249438 
L 278.224908 323.951861 
L 278.815848 321.681101 
L 279.406789 323.627467 
L 279.997729 321.681101 
L 280.588669 322.005495 
L 281.17961 322.978678 
L 281.77055 321.356706 
L 282.36149 321.032312 
L 282.952431 320.383523 
L 283.543371 323.951861 
L 284.134312 320.059129 
L 284.725252 321.032312 
L 285.316192 320.383523 
L 285.907133 321.356706 
L 286.498073 324.60065 
L 287.089013 313.895637 
L 287.679954 317.13958 
L 288.270894 316.490792 
L 288.861835 318.437157 
L 289.452775 317.788369 
L 290.043715 317.463975 
L 290.634656 318.437157 
L 291.225596 317.788369 
L 291.816536 319.085946 
L 292.407477 319.085946 
L 292.998417 320.059129 
L 294.180298 319.41034 
L 294.771238 320.059129 
L 295.362179 322.654284 
L 295.953119 322.654284 
L 296.544059 322.978678 
L 297.135 321.356706 
L 297.72594 322.329889 
L 298.31688 351.849772 
L 298.907821 320.383523 
L 299.498761 322.978678 
L 300.089702 324.276255 
L 300.680642 322.005495 
L 301.271582 324.925044 
L 301.862523 320.383523 
L 302.453463 325.573832 
L 303.044403 321.032312 
L 303.635344 323.951861 
L 304.226284 322.005495 
L 304.817224 324.60065 
L 305.408165 319.41034 
L 305.999105 322.005495 
L 306.590046 319.085946 
L 307.180986 319.734735 
L 307.771926 319.41034 
L 308.362867 318.761552 
L 308.953807 318.761552 
L 309.544747 316.815186 
L 310.135688 320.707918 
L 310.726628 322.654284 
L 311.317569 308.380934 
L 311.908509 312.59806 
L 312.499449 310.651694 
L 313.09039 310.002905 
L 313.68133 311.949271 
L 314.27227 311.624877 
L 314.863211 310.976088 
L 315.454151 310.002905 
L 316.045092 311.949271 
L 316.636032 309.678511 
L 317.226972 310.327299 
L 317.817913 308.705328 
L 318.408853 310.651694 
L 318.999793 309.678511 
L 319.590734 311.949271 
L 320.181674 309.354117 
L 320.772614 313.895637 
L 321.363555 309.029722 
L 321.954495 312.922454 
L 322.545436 351.849772 
L 323.136376 304.163807 
L 323.727316 307.083356 
L 324.318257 307.407751 
L 324.909197 310.327299 
L 325.500137 309.354117 
L 326.091078 311.949271 
L 326.682018 310.976088 
L 327.272959 312.273665 
L 327.863899 310.976088 
L 328.454839 315.517609 
L 329.04578 315.193214 
L 329.63672 319.085946 
L 330.22766 313.895637 
L 330.818601 322.654284 
L 331.409541 315.517609 
L 332.000481 319.085946 
L 332.591422 315.517609 
L 333.182362 320.059129 
L 333.773303 317.463975 
L 334.364243 319.085946 
L 334.955183 329.14217 
L 335.546124 311.300482 
L 336.137064 315.193214 
L 336.728004 315.517609 
L 337.318945 317.788369 
L 337.909885 315.517609 
L 338.500826 318.437157 
L 339.091766 316.490792 
L 339.682706 317.788369 
L 340.273647 317.13958 
L 340.864587 319.085946 
L 341.455527 318.112763 
L 342.046468 321.356706 
L 342.637408 318.112763 
L 343.228349 322.978678 
L 343.819289 316.490792 
L 344.410229 321.032312 
L 345.00117 318.112763 
L 345.59211 321.032312 
L 346.18305 317.788369 
L 346.773991 352.174167 
L 347.364931 312.922454 
L 347.955871 317.463975 
L 348.546812 316.166397 
L 349.137752 317.788369 
L 349.728693 317.13958 
L 350.319633 319.734735 
L 350.910573 318.112763 
L 351.501514 319.41034 
L 352.092454 317.463975 
L 352.683394 319.734735 
L 353.274335 319.734735 
L 353.865275 321.032312 
L 354.456216 319.734735 
L 355.047156 322.005495 
L 355.638096 321.356706 
L 356.229037 323.303072 
L 356.819977 321.356706 
L 357.410917 324.276255 
L 358.001858 322.654284 
L 358.592798 323.627467 
L 359.183738 328.817776 
L 359.774679 315.842003 
L 360.365619 319.085946 
L 360.95656 319.41034 
L 361.5475 317.788369 
L 362.13844 322.005495 
L 362.729381 318.761552 
L 363.320321 323.303072 
L 363.911261 318.761552 
L 364.502202 324.276255 
L 365.093142 318.761552 
L 365.684083 320.707918 
L 366.275023 318.761552 
L 366.865963 322.329889 
L 367.456904 319.085946 
L 368.047844 318.112763 
L 368.638784 320.059129 
L 369.229725 318.761552 
L 369.820665 319.085946 
L 370.411606 319.734735 
L 371.002546 347.957041 
L 371.593486 319.41034 
L 372.184427 318.112763 
L 372.775367 320.707918 
L 373.366307 318.761552 
L 373.957248 319.734735 
L 374.548188 321.681101 
L 375.139128 319.734735 
L 375.730069 319.41034 
L 376.321009 321.356706 
L 376.91195 319.41034 
L 377.50289 322.005495 
L 378.09383 318.761552 
L 378.684771 323.951861 
L 379.275711 318.761552 
L 379.866651 320.707918 
L 380.457592 318.761552 
L 381.048532 319.41034 
L 381.639473 318.437157 
L 382.230413 319.085946 
L 382.821353 320.383523 
L 383.412294 349.579012 
L 384.003234 319.085946 
L 384.594174 321.032312 
L 385.185115 320.707918 
L 385.776055 323.627467 
L 386.366996 321.681101 
L 386.957936 322.329889 
L 387.548876 323.303072 
L 388.139817 323.627467 
L 388.730757 324.276255 
L 389.321697 327.520198 
L 389.912638 325.898227 
L 390.503578 330.439747 
L 391.094518 325.573832 
L 391.685459 326.87141 
L 392.276399 324.276255 
L 392.86734 323.951861 
L 393.45828 321.681101 
L 394.04922 322.654284 
L 394.640161 322.978678 
L 395.231101 322.005495 
L 395.822041 320.383523 
L 396.412982 321.032312 
L 397.594863 321.681101 
L 398.185803 321.681101 
L 398.776743 320.383523 
L 399.958624 323.627467 
L 400.549564 322.654284 
L 401.140505 322.329889 
L 402.322385 323.627467 
L 404.095207 324.60065 
L 404.686147 324.60065 
L 405.277087 326.222621 
L 405.868028 323.951861 
L 406.458968 327.195804 
L 407.049908 324.276255 
L 407.640849 351.849772 
L 408.231789 323.303072 
L 408.82273 323.627467 
L 409.41367 322.978678 
L 410.00461 323.627467 
L 411.186491 323.627467 
L 411.777431 325.573832 
L 412.368372 323.303072 
L 412.959312 326.547015 
L 413.550253 322.978678 
L 414.141193 323.627467 
L 414.732133 323.951861 
L 415.323074 321.356706 
L 416.504954 318.112763 
L 417.095895 318.112763 
L 417.686835 317.788369 
L 418.277775 318.437157 
L 418.868716 317.13958 
L 419.459656 317.463975 
L 420.050597 324.60065 
L 420.641537 317.788369 
L 421.232477 324.925044 
L 421.823418 316.490792 
L 422.414358 320.707918 
L 423.005298 317.13958 
L 423.596239 317.13958 
L 424.187179 315.842003 
L 424.77812 314.86882 
L 425.36906 315.842003 
L 425.96 314.544426 
L 426.550941 313.895637 
L 427.141881 312.273665 
L 427.732821 314.220031 
L 428.323762 313.895637 
L 428.914702 312.59806 
L 429.505642 310.976088 
L 430.096583 310.651694 
L 430.687523 311.949271 
L 431.278464 310.327299 
L 431.869404 351.849772 
L 432.460344 301.244259 
L 433.051285 305.13699 
L 433.642225 303.515019 
L 434.233165 305.461385 
L 434.824106 303.515019 
L 435.415046 304.488202 
L 436.005987 303.839413 
L 436.596927 303.839413 
L 437.187867 304.488202 
L 437.778808 308.380934 
L 438.369748 304.163807 
L 438.960688 307.732145 
L 439.551629 303.515019 
L 440.142569 306.434568 
L 440.73351 305.13699 
L 441.32445 309.029722 
L 441.91539 304.488202 
L 442.506331 309.678511 
L 443.097271 306.110173 
L 443.688211 308.380934 
L 444.279152 302.541836 
L 444.870092 314.220031 
L 445.461032 308.056539 
L 446.051973 314.220031 
L 446.642913 306.434568 
L 447.233854 314.220031 
L 447.824794 307.732145 
L 448.415734 312.59806 
L 449.006675 307.083356 
L 449.597615 310.651694 
L 450.188555 307.732145 
L 450.779496 313.246848 
L 451.370436 308.380934 
L 451.961377 315.193214 
L 452.552317 310.651694 
L 453.143257 310.976088 
L 453.734198 310.327299 
L 454.325138 310.327299 
L 454.916078 311.300482 
L 455.507019 310.651694 
L 456.097959 351.849772 
L 456.688899 309.354117 
L 457.27984 318.761552 
L 457.87078 311.624877 
L 458.461721 317.788369 
L 459.052661 313.571243 
L 460.234542 316.490792 
L 460.825482 315.517609 
L 462.007363 315.517609 
L 462.598303 317.13958 
L 463.189244 316.166397 
L 463.780184 316.815186 
L 464.371124 318.761552 
L 464.962065 317.463975 
L 465.553005 317.788369 
L 466.143945 319.085946 
L 466.734886 319.085946 
L 467.325826 320.383523 
L 467.916767 318.437157 
L 468.507707 322.005495 
L 469.098647 318.437157 
L 469.689588 320.383523 
L 469.689588 320.383523 
" style="fill:none;stroke:#1f77b4;stroke-linecap:square;stroke-width:1.5;"/>
   </g>
   <g id="line2d_16">
    <path clip-path="url(#p9a40c67d9f)" d="M 146.509027 236.041 
L 147.099967 243.177675 
L 147.690908 259.721786 
L 148.281848 259.397391 
L 148.872788 229.22872 
L 149.463729 277.239079 
L 150.054669 286.646514 
L 150.64561 291.188035 
L 151.23655 288.917274 
L 151.82749 327.195804 
L 152.418431 330.439747 
L 153.009371 336.278845 
L 153.600311 336.927634 
L 154.191252 336.927634 
L 154.782192 345.68628 
L 155.373133 346.010675 
L 155.964073 347.632646 
L 156.555013 347.308252 
L 157.736894 347.308252 
L 158.327834 345.68628 
L 158.918775 343.091126 
L 159.509715 343.091126 
L 160.100655 339.847183 
L 160.691596 333.68369 
L 161.282536 331.737325 
L 161.873477 330.439747 
L 162.464417 324.276255 
L 163.055357 326.547015 
L 163.646298 311.300482 
L 164.237238 310.976088 
L 164.828178 308.380934 
L 165.419119 320.383523 
L 166.010059 324.276255 
L 166.601 324.60065 
L 167.19194 323.951861 
L 167.78288 324.925044 
L 168.373821 320.383523 
L 168.964761 319.41034 
L 169.555701 323.303072 
L 170.146642 319.734735 
L 170.737582 317.788369 
L 171.328523 318.761552 
L 171.919463 318.761552 
L 172.510403 320.383523 
L 173.101344 316.490792 
L 173.692284 316.490792 
L 174.283224 323.303072 
L 174.874165 317.13958 
L 175.465105 316.166397 
L 176.056045 319.085946 
L 176.646986 317.788369 
L 177.237926 345.037492 
L 177.828867 316.166397 
L 179.010747 321.032312 
L 179.601688 321.356706 
L 180.192628 318.761552 
L 180.783568 321.032312 
L 181.374509 318.437157 
L 181.965449 320.707918 
L 182.55639 318.112763 
L 183.14733 322.005495 
L 183.73827 319.734735 
L 184.329211 320.707918 
L 184.920151 319.085946 
L 185.511091 321.681101 
L 186.102032 317.788369 
L 186.692972 323.303072 
L 187.283912 317.788369 
L 187.874853 322.329889 
L 188.465793 317.13958 
L 189.056734 325.249438 
L 189.647674 307.732145 
L 190.238614 319.734735 
L 190.829555 317.463975 
L 191.420495 318.761552 
L 192.011435 315.193214 
L 192.602376 319.085946 
L 193.193316 317.13958 
L 193.784257 316.815186 
L 194.375197 320.707918 
L 194.966137 316.166397 
L 195.557078 316.815186 
L 196.148018 317.13958 
L 196.738958 318.761552 
L 197.329899 318.112763 
L 197.920839 318.437157 
L 199.10272 320.383523 
L 199.69366 319.41034 
L 200.284601 321.681101 
L 200.875541 320.383523 
L 201.466481 351.849772 
L 202.057422 319.085946 
L 202.648362 324.925044 
L 203.239302 323.627467 
L 203.830243 326.87141 
L 204.421183 323.627467 
L 205.012124 327.844593 
L 205.603064 324.60065 
L 206.194004 324.925044 
L 206.784945 323.951861 
L 207.966825 323.951861 
L 208.557766 323.627467 
L 209.148706 323.951861 
L 209.739647 322.978678 
L 210.921527 321.681101 
L 211.512468 323.627467 
L 212.103408 323.627467 
L 212.694348 325.573832 
L 213.285289 322.329889 
L 213.876229 311.300482 
L 214.467169 316.490792 
L 215.05811 319.085946 
L 215.64905 317.13958 
L 216.239991 319.085946 
L 216.830931 318.112763 
L 217.421871 320.059129 
L 218.012812 319.41034 
L 218.603752 320.707918 
L 219.194692 320.059129 
L 219.785633 322.005495 
L 220.376573 321.032312 
L 220.967514 322.005495 
L 221.558454 321.356706 
L 222.149394 325.249438 
L 222.740335 322.005495 
L 223.331275 326.87141 
L 223.922215 323.303072 
L 224.513156 328.493381 
L 225.104096 324.925044 
L 225.695037 351.849772 
L 226.285977 323.951861 
L 226.876917 332.710508 
L 227.467858 328.168987 
L 228.058798 328.168987 
L 228.649738 327.520198 
L 229.240679 327.844593 
L 229.831619 327.844593 
L 230.422559 327.195804 
L 231.0135 328.168987 
L 231.60444 327.520198 
L 232.195381 329.790959 
L 232.786321 326.87141 
L 233.377261 330.439747 
L 233.968202 326.222621 
L 234.559142 329.14217 
L 235.150082 325.573832 
L 235.741023 324.60065 
L 236.331963 324.60065 
L 236.922904 323.303072 
L 237.513844 325.249438 
L 238.104784 323.303072 
L 238.695725 325.898227 
L 239.286665 326.87141 
L 239.877605 326.222621 
L 240.468546 329.14217 
L 241.059486 326.87141 
L 241.650427 330.115353 
L 242.241367 327.520198 
L 242.832307 330.764142 
L 243.423248 328.168987 
L 244.014188 330.115353 
L 244.605128 328.493381 
L 245.196069 327.844593 
L 245.787009 327.844593 
L 246.377949 327.195804 
L 246.96889 327.844593 
L 247.55983 327.195804 
L 248.150771 326.87141 
L 249.332651 327.520198 
L 249.923592 351.849772 
L 250.514532 325.249438 
L 251.105472 327.520198 
L 251.696413 328.817776 
L 252.287353 326.547015 
L 252.878294 329.14217 
L 253.469234 326.547015 
L 254.060174 328.817776 
L 254.651115 326.547015 
L 255.242055 329.14217 
L 255.832995 327.520198 
L 256.423936 330.115353 
L 257.014876 326.222621 
L 257.605816 330.439747 
L 258.196757 325.573832 
L 258.787697 327.844593 
L 259.378638 324.60065 
L 259.969578 324.276255 
L 260.560518 324.60065 
L 261.151459 323.951861 
L 261.742399 322.978678 
L 262.333339 321.356706 
L 262.92428 323.951861 
L 263.51522 319.41034 
L 264.106161 325.573832 
L 264.697101 319.41034 
L 265.288041 322.654284 
L 265.878982 318.761552 
L 266.469922 321.356706 
L 267.060862 317.788369 
L 267.651803 323.627467 
L 268.242743 316.490792 
L 268.833684 318.761552 
L 269.424624 316.166397 
L 270.015564 316.166397 
L 270.606505 315.842003 
L 271.197445 314.220031 
L 271.788385 314.86882 
L 272.379326 314.220031 
L 272.970266 314.220031 
L 273.561206 316.490792 
L 274.152147 351.849772 
L 274.743087 322.329889 
L 275.334028 317.13958 
L 275.924968 320.383523 
L 276.515908 317.788369 
L 277.106849 319.085946 
L 277.697789 318.437157 
L 278.87967 318.437157 
L 279.47061 318.112763 
L 280.061551 319.085946 
L 280.652491 319.085946 
L 281.243431 319.41034 
L 281.834372 318.112763 
L 282.425312 319.734735 
L 283.016252 319.41034 
L 283.607193 320.707918 
L 284.198133 320.707918 
L 284.789073 319.734735 
L 285.380014 323.303072 
L 285.970954 320.059129 
L 286.561895 324.60065 
L 287.152835 321.032312 
L 287.743775 319.734735 
L 288.334716 321.356706 
L 288.925656 322.005495 
L 289.516596 321.356706 
L 290.107537 322.005495 
L 290.698477 321.681101 
L 291.289418 322.654284 
L 291.880358 321.356706 
L 292.471298 323.627467 
L 293.062239 321.356706 
L 293.653179 326.222621 
L 294.244119 320.383523 
L 294.83506 321.681101 
L 295.426 321.681101 
L 296.016941 321.356706 
L 296.607881 321.356706 
L 297.198821 322.005495 
L 297.789762 323.303072 
L 298.380702 351.849772 
L 298.971642 323.303072 
L 299.562583 326.87141 
L 300.153523 325.249438 
L 300.744463 322.978678 
L 301.335404 325.898227 
L 301.926344 322.654284 
L 302.517285 325.573832 
L 303.108225 323.303072 
L 303.699165 325.573832 
L 304.290106 325.249438 
L 304.881046 327.520198 
L 305.471986 325.573832 
L 306.062927 326.87141 
L 306.653867 324.60065 
L 307.244808 328.168987 
L 307.835748 324.925044 
L 308.426688 328.817776 
L 309.017629 326.547015 
L 309.608569 328.493381 
L 310.199509 327.195804 
L 310.79045 333.68369 
L 311.38139 329.14217 
L 311.97233 326.222621 
L 312.563271 327.195804 
L 313.154211 325.898227 
L 313.745152 325.573832 
L 314.336092 325.898227 
L 314.927032 324.276255 
L 316.108913 324.276255 
L 316.699853 324.925044 
L 317.290794 324.276255 
L 317.881734 323.951861 
L 318.472675 324.60065 
L 319.063615 325.898227 
L 319.654555 323.951861 
L 320.245496 326.87141 
L 320.836436 324.276255 
L 321.427376 328.817776 
L 322.018317 324.60065 
L 322.609257 351.849772 
L 323.200198 325.249438 
L 323.791138 326.547015 
L 324.382078 325.898227 
L 324.973019 328.493381 
L 325.563959 325.249438 
L 326.154899 328.817776 
L 326.74584 324.60065 
L 327.33678 329.14217 
L 327.92772 324.60065 
L 328.518661 326.547015 
L 329.109601 324.60065 
L 329.700542 324.60065 
L 330.882422 323.303072 
L 331.473363 323.951861 
L 332.064303 322.654284 
L 332.655243 323.951861 
L 333.246184 324.60065 
L 333.837124 324.276255 
L 334.428065 324.276255 
L 335.019005 331.41293 
L 335.609945 323.303072 
L 336.200886 324.925044 
L 336.791826 325.898227 
L 337.382766 324.276255 
L 337.973707 325.249438 
L 338.564647 325.898227 
L 339.746528 325.898227 
L 340.337468 327.844593 
L 340.928409 325.898227 
L 341.519349 328.493381 
L 342.110289 325.898227 
L 342.70123 326.87141 
L 343.29217 326.547015 
L 343.88311 324.925044 
L 344.474051 326.547015 
L 345.064991 323.303072 
L 345.655932 325.249438 
L 346.246872 322.978678 
L 346.837812 351.849772 
L 347.428753 320.059129 
L 348.019693 320.059129 
L 349.201574 319.41034 
L 349.792514 320.707918 
L 350.383455 319.41034 
L 350.974395 319.734735 
L 351.565335 319.41034 
L 352.156276 319.734735 
L 352.747216 320.707918 
L 353.338156 323.627467 
L 353.929097 320.383523 
L 354.520037 324.925044 
L 355.110977 320.383523 
L 355.701918 323.951861 
L 356.292858 320.383523 
L 356.883799 323.303072 
L 357.474739 321.032312 
L 358.065679 321.356706 
L 358.65662 320.707918 
L 359.24756 331.088536 
L 359.8385 320.383523 
L 360.429441 322.329889 
L 361.020381 322.005495 
L 362.202262 323.303072 
L 362.793202 322.329889 
L 363.384143 322.978678 
L 363.975083 323.303072 
L 364.566023 322.005495 
L 365.156964 326.222621 
L 365.747904 322.654284 
L 366.338844 327.520198 
L 366.929785 322.654284 
L 367.520725 328.168987 
L 368.111666 322.978678 
L 368.702606 325.573832 
L 369.293546 323.303072 
L 369.884487 322.005495 
L 370.475427 322.654284 
L 371.066367 351.849772 
L 371.657308 321.681101 
L 372.248248 323.303072 
L 372.839189 323.303072 
L 373.430129 323.627467 
L 374.021069 324.276255 
L 374.61201 325.573832 
L 375.20295 324.60065 
L 375.79389 324.276255 
L 376.384831 325.249438 
L 376.975771 327.520198 
L 377.566712 324.276255 
L 378.157652 327.520198 
L 378.748592 325.249438 
L 379.339533 325.249438 
L 379.930473 324.60065 
L 380.521413 324.925044 
L 381.703294 323.627467 
L 382.294234 323.627467 
L 382.885175 324.276255 
L 383.476115 334.656873 
L 384.067056 328.168987 
L 384.657996 324.925044 
L 385.248936 326.87141 
L 385.839877 322.654284 
L 386.430817 323.627467 
L 387.021757 320.383523 
L 387.612698 320.059129 
L 388.794579 316.815186 
L 389.385519 317.788369 
L 389.976459 315.842003 
L 390.5674 317.788369 
L 391.15834 317.13958 
L 391.74928 315.517609 
L 392.340221 316.166397 
L 392.931161 318.437157 
L 393.522101 318.112763 
L 394.113042 319.085946 
L 394.703982 317.788369 
L 395.294923 351.849772 
L 395.885863 317.463975 
L 396.476803 319.41034 
L 397.658684 316.815186 
L 398.249624 317.463975 
L 398.840565 316.166397 
L 399.431505 315.842003 
L 400.022446 315.842003 
L 400.613386 317.13958 
L 401.204326 315.842003 
L 401.795267 316.490792 
L 402.386207 315.193214 
L 402.977147 319.085946 
L 403.568088 315.193214 
L 404.159028 321.681101 
L 404.749969 317.13958 
L 405.340909 326.547015 
L 405.931849 317.13958 
L 406.52279 320.707918 
L 407.11373 317.788369 
L 407.70467 342.766731 
L 408.295611 316.815186 
L 408.886551 321.032312 
L 409.477491 322.005495 
L 410.068432 319.085946 
L 410.659372 322.978678 
L 411.250313 319.41034 
L 411.841253 324.276255 
L 412.432193 317.13958 
L 413.023134 320.707918 
L 413.614074 318.437157 
L 414.205014 323.627467 
L 414.795955 319.41034 
L 415.386895 319.085946 
L 415.977836 319.41034 
L 416.568776 318.112763 
L 417.159716 319.085946 
L 417.750657 318.112763 
L 418.341597 320.383523 
L 418.932537 317.788369 
L 419.523478 324.60065 
L 420.114418 317.463975 
L 420.705359 319.734735 
L 421.296299 318.761552 
L 421.887239 320.383523 
L 422.47818 317.788369 
L 423.06912 320.383523 
L 423.66006 317.788369 
L 424.251001 321.356706 
L 424.841941 319.41034 
L 425.432881 322.654284 
L 426.023822 321.356706 
L 426.614762 324.60065 
L 427.205703 322.005495 
L 427.796643 324.60065 
L 428.387583 321.356706 
L 428.978524 325.249438 
L 429.569464 322.005495 
L 430.160404 323.951861 
L 430.751345 323.627467 
L 431.342285 322.978678 
L 431.933226 351.849772 
L 432.524166 321.681101 
L 433.115106 325.573832 
L 433.706047 324.60065 
L 434.296987 323.951861 
L 434.887927 323.951861 
L 435.478868 324.60065 
L 436.069808 325.898227 
L 436.660748 324.925044 
L 437.251689 325.573832 
L 437.842629 325.249438 
L 438.43357 325.573832 
L 439.02451 324.925044 
L 439.61545 327.195804 
L 440.206391 324.925044 
L 440.797331 327.520198 
L 441.388271 327.520198 
L 441.979212 328.493381 
L 442.570152 327.520198 
L 443.161093 327.195804 
L 443.752033 325.898227 
L 444.342973 325.573832 
L 444.933914 329.466564 
L 445.524854 326.222621 
L 446.115794 328.817776 
L 446.706735 327.195804 
L 447.297675 332.061719 
L 447.888616 327.195804 
L 448.479556 332.386113 
L 449.070496 328.168987 
L 449.661437 331.737325 
L 450.252377 328.493381 
L 450.843317 328.493381 
L 451.434258 327.844593 
L 452.025198 326.547015 
L 452.616138 327.195804 
L 453.207079 325.573832 
L 453.798019 325.898227 
L 454.38896 323.951861 
L 454.9799 326.547015 
L 455.57084 323.951861 
L 456.161781 351.849772 
L 456.752721 322.654284 
L 457.343661 327.195804 
L 457.934602 324.60065 
L 458.525542 327.844593 
L 459.116483 324.276255 
L 459.707423 328.168987 
L 460.298363 324.60065 
L 460.889304 329.14217 
L 461.480244 324.925044 
L 462.071184 329.14217 
L 462.662125 324.276255 
L 463.253065 326.222621 
L 463.844005 324.925044 
L 464.434946 325.249438 
L 465.616827 325.249438 
L 465.616827 325.249438 
" style="fill:none;stroke:#ff7f0e;stroke-linecap:square;stroke-width:1.5;"/>
   </g>
   <g id="line2d_17">
    <path clip-path="url(#p9a40c67d9f)" d="M 153.569583 199.708837 
L 154.160523 50.163056 
L 154.751463 238.960549 
L 155.342404 184.462304 
L 155.933344 212.684609 
L 156.524284 210.089455 
L 157.115225 194.518528 
L 157.706165 190.301401 
L 158.297105 191.598979 
L 158.888046 178.9476 
L 159.478986 179.271995 
L 160.069927 178.623206 
L 160.660867 156.239998 
L 161.251807 184.137909 
L 161.842748 176.028051 
L 162.433688 166.296222 
L 163.024628 207.4943 
L 163.615569 164.349856 
L 164.206509 171.810925 
L 164.79745 185.435487 
L 165.38839 284.375754 
L 165.97933 297.027132 
L 166.570271 294.756372 
L 167.161211 303.839413 
L 167.752151 297.351527 
L 168.343092 306.110173 
L 168.934032 302.541836 
L 169.524973 310.327299 
L 170.115913 308.380934 
L 170.706853 314.544426 
L 171.297794 314.220031 
L 171.888734 319.734735 
L 172.479674 322.654284 
L 173.070615 322.978678 
L 173.661555 321.032312 
L 174.252495 323.627467 
L 174.843436 324.276255 
L 175.434376 323.627467 
L 176.025317 325.249438 
L 176.616257 325.898227 
L 177.207197 351.849772 
L 177.798138 328.493381 
L 178.389078 328.168987 
L 178.980018 328.817776 
L 179.570959 328.168987 
L 180.161899 326.87141 
L 180.75284 329.14217 
L 181.34378 327.520198 
L 181.93472 328.817776 
L 182.525661 327.195804 
L 183.116601 330.115353 
L 183.707541 326.87141 
L 184.298482 327.844593 
L 184.889422 326.87141 
L 185.480362 327.195804 
L 186.071303 326.87141 
L 186.662243 328.493381 
L 187.253184 327.520198 
L 187.844124 329.14217 
L 188.435064 327.195804 
L 189.026005 330.439747 
L 189.616945 328.168987 
L 190.207885 329.466564 
L 190.798826 331.088536 
L 191.389766 330.115353 
L 192.571647 330.764142 
L 193.162587 329.14217 
L 193.753528 330.439747 
L 194.344468 327.844593 
L 194.935408 328.168987 
L 195.526349 325.573832 
L 196.117289 327.195804 
L 197.29917 325.249438 
L 197.89011 324.925044 
L 198.481051 323.951861 
L 199.071991 324.60065 
L 199.662931 322.654284 
L 200.253872 322.654284 
L 200.844812 322.329889 
L 201.435752 352.174167 
L 202.026693 327.844593 
L 202.617633 328.817776 
L 203.208574 327.520198 
L 203.799514 325.898227 
L 204.390454 326.222621 
L 204.981395 325.249438 
L 205.572335 323.627467 
L 206.163275 322.978678 
L 206.754216 323.303072 
L 207.345156 322.978678 
L 207.936097 323.303072 
L 208.527037 322.978678 
L 209.117977 323.951861 
L 209.708918 323.303072 
L 210.299858 323.951861 
L 210.890798 323.951861 
L 211.481739 324.276255 
L 212.072679 323.627467 
L 212.663619 323.627467 
L 213.25456 324.925044 
L 213.8455 324.276255 
L 214.436441 325.573832 
L 215.027381 329.466564 
L 215.618321 322.329889 
L 216.209262 328.168987 
L 216.800202 321.032312 
L 217.391142 322.978678 
L 217.982083 316.490792 
L 218.573023 320.707918 
L 219.163964 315.842003 
L 219.754904 313.571243 
L 220.345844 316.166397 
L 220.936785 312.59806 
L 221.527725 311.624877 
L 222.118665 311.624877 
L 222.709606 310.327299 
L 223.300546 309.354117 
L 223.891487 307.732145 
L 224.482427 306.758962 
L 225.073367 310.651694 
L 225.664308 351.849772 
L 226.255248 303.839413 
L 226.846188 308.056539 
L 227.437129 310.651694 
L 228.028069 307.083356 
L 228.619009 309.029722 
L 229.20995 307.732145 
L 229.80089 305.461385 
L 230.391831 311.624877 
L 230.982771 306.434568 
L 231.573711 306.758962 
L 232.164652 304.488202 
L 232.755592 304.163807 
L 233.346532 305.13699 
L 233.937473 305.461385 
L 234.528413 304.488202 
L 235.119354 306.758962 
L 235.710294 306.110173 
L 236.301234 309.678511 
L 236.892175 308.056539 
L 237.483115 312.59806 
L 238.074055 313.571243 
L 238.664996 313.895637 
L 239.255936 313.571243 
L 239.846876 314.86882 
L 240.437817 314.220031 
L 241.028757 315.517609 
L 241.619698 314.220031 
L 242.210638 315.842003 
L 242.801578 315.517609 
L 243.392519 316.490792 
L 243.983459 316.490792 
L 244.574399 318.761552 
L 245.16534 317.788369 
L 246.347221 319.734735 
L 246.938161 320.383523 
L 247.529101 322.005495 
L 248.710982 320.707918 
L 249.301922 322.654284 
L 249.892863 351.849772 
L 250.483803 316.815186 
L 251.074744 320.383523 
L 251.665684 322.654284 
L 252.256624 321.356706 
L 252.847565 320.707918 
L 253.438505 317.463975 
L 254.029445 319.734735 
L 254.620386 316.815186 
L 255.211326 317.463975 
L 256.393207 316.166397 
L 256.984147 317.788369 
L 257.575088 317.788369 
L 258.166028 319.085946 
L 258.756968 318.112763 
L 259.347909 317.463975 
L 259.938849 320.059129 
L 260.529789 317.463975 
L 261.12073 318.112763 
L 261.71167 317.463975 
L 262.302611 321.032312 
L 262.893551 316.815186 
L 263.484491 318.112763 
L 264.075432 319.085946 
L 264.666372 318.761552 
L 265.257312 319.085946 
L 265.848253 319.085946 
L 266.439193 320.707918 
L 267.030133 318.437157 
L 267.621074 323.303072 
L 268.212014 318.437157 
L 268.802955 322.978678 
L 269.393895 318.761552 
L 269.984835 322.978678 
L 270.575776 319.085946 
L 271.166716 320.059129 
L 271.757656 320.707918 
L 272.348597 320.383523 
L 272.939537 319.734735 
L 273.530478 320.059129 
L 274.121418 351.849772 
L 274.712358 319.41034 
L 275.303299 324.276255 
L 275.894239 321.032312 
L 276.485179 322.329889 
L 277.07612 319.734735 
L 277.66706 319.734735 
L 278.258001 320.059129 
L 278.848941 320.059129 
L 279.439881 320.383523 
L 280.030822 318.437157 
L 280.621762 319.734735 
L 281.212702 318.761552 
L 281.803643 320.059129 
L 282.394583 320.059129 
L 282.985523 322.654284 
L 283.576464 320.383523 
L 284.167404 322.005495 
L 284.758345 320.059129 
L 285.349285 322.978678 
L 285.940225 320.383523 
L 286.531166 328.168987 
L 287.122106 319.734735 
L 287.713046 320.059129 
L 288.303987 318.761552 
L 288.894927 316.815186 
L 289.485868 318.437157 
L 290.076808 314.544426 
L 290.667748 319.085946 
L 291.258689 312.922454 
L 291.849629 318.437157 
L 292.440569 312.59806 
L 293.03151 316.490792 
L 293.62245 313.571243 
L 294.21339 311.949271 
L 294.804331 308.705328 
L 295.395271 308.056539 
L 295.986212 309.354117 
L 296.577152 306.434568 
L 297.759033 305.785779 
L 298.349973 351.849772 
L 298.940913 307.407751 
L 299.531854 310.002905 
L 300.122794 313.571243 
L 300.713735 309.029722 
L 301.304675 312.273665 
L 301.895615 305.13699 
L 302.486556 309.354117 
L 303.077496 305.13699 
L 303.668436 307.407751 
L 304.259377 303.839413 
L 304.850317 305.13699 
L 305.441258 304.163807 
L 306.623138 304.812596 
L 307.214079 305.785779 
L 307.805019 305.13699 
L 308.9869 309.678511 
L 309.57784 307.732145 
L 310.16878 310.327299 
L 310.759721 321.032312 
L 311.350661 310.327299 
L 311.941602 311.300482 
L 312.532542 316.815186 
L 313.123482 310.976088 
L 313.714423 317.463975 
L 314.305363 312.59806 
L 314.896303 314.544426 
L 315.487244 313.571243 
L 316.078184 314.220031 
L 316.669125 313.895637 
L 317.260065 314.544426 
L 317.851005 315.842003 
L 318.441946 318.112763 
L 319.032886 317.788369 
L 319.623826 318.112763 
L 320.214767 318.112763 
L 320.805707 321.356706 
L 321.396648 318.761552 
L 321.987588 318.761552 
L 322.578528 351.849772 
L 323.169469 319.085946 
L 323.760409 322.654284 
L 324.351349 319.41034 
L 324.94229 324.276255 
L 325.53323 318.761552 
L 326.12417 323.303072 
L 326.715111 317.788369 
L 327.306051 322.005495 
L 327.896992 317.463975 
L 328.487932 319.085946 
L 329.078872 315.842003 
L 329.669813 318.112763 
L 330.260753 315.842003 
L 330.851693 315.517609 
L 331.442634 319.41034 
L 332.033574 314.544426 
L 333.215455 318.112763 
L 333.806395 316.166397 
L 334.397336 316.815186 
L 334.988276 328.817776 
L 335.579216 316.166397 
L 336.170157 315.842003 
L 336.761097 316.166397 
L 337.352037 317.788369 
L 337.942978 314.86882 
L 338.533918 315.517609 
L 339.124859 313.895637 
L 339.715799 315.842003 
L 340.306739 314.544426 
L 340.89768 316.815186 
L 341.48862 316.166397 
L 342.07956 319.734735 
L 342.670501 317.13958 
L 343.261441 321.356706 
L 343.852382 319.41034 
L 344.443322 323.951861 
L 345.034262 319.41034 
L 345.625203 325.249438 
L 346.216143 321.032312 
L 346.807083 351.849772 
L 347.398024 321.032312 
L 347.988964 324.925044 
L 348.579905 320.383523 
L 349.170845 324.276255 
L 349.761785 317.788369 
L 350.352726 323.303072 
L 350.943666 317.13958 
L 351.534606 320.059129 
L 352.125547 316.490792 
L 352.716487 317.463975 
L 353.307427 317.788369 
L 353.898368 316.166397 
L 354.489308 313.895637 
L 355.080249 312.59806 
L 355.671189 312.59806 
L 356.262129 310.327299 
L 356.85307 310.651694 
L 357.44401 307.732145 
L 358.03495 308.705328 
L 358.625891 306.434568 
L 359.216831 322.005495 
L 359.807772 310.651694 
L 360.398712 309.678511 
L 360.989652 309.354117 
L 361.580593 308.705328 
L 362.171533 308.705328 
L 362.762473 309.354117 
L 363.353414 312.922454 
L 363.944354 308.705328 
L 364.535294 312.273665 
L 365.126235 308.705328 
L 365.717175 308.705328 
L 366.308116 312.59806 
L 366.899056 309.354117 
L 367.489996 312.922454 
L 368.080937 311.300482 
L 368.671877 315.842003 
L 369.262817 309.678511 
L 369.853758 311.300482 
L 370.444698 308.380934 
L 371.035639 351.849772 
L 371.626579 308.705328 
L 372.217519 310.976088 
L 372.80846 312.273665 
L 373.3994 309.678511 
L 373.99034 311.300482 
L 374.581281 312.273665 
L 375.172221 316.490792 
L 375.763162 312.59806 
L 377.535983 317.788369 
L 378.126923 314.544426 
L 378.717863 322.654284 
L 379.308804 316.166397 
L 379.899744 320.383523 
L 380.490684 319.734735 
L 381.081625 318.437157 
L 381.672565 317.463975 
L 382.263506 318.761552 
L 382.854446 318.761552 
L 383.445386 334.981268 
L 384.036327 316.166397 
L 385.218207 320.059129 
L 385.809148 319.734735 
L 386.400088 323.627467 
L 386.991029 321.032312 
L 387.581969 324.276255 
L 388.172909 320.707918 
L 388.76385 324.60065 
L 389.35479 322.654284 
L 389.94573 321.356706 
L 390.536671 323.303072 
L 391.127611 322.329889 
L 391.718551 322.329889 
L 392.900432 322.978678 
L 394.082313 324.276255 
L 394.673253 323.951861 
L 395.264194 326.547015 
L 395.855134 322.978678 
L 396.446074 323.951861 
L 397.037015 322.329889 
L 397.627955 322.978678 
L 398.218896 323.951861 
L 398.809836 323.303072 
L 399.400776 323.303072 
L 399.991717 322.978678 
L 400.582657 322.329889 
L 401.173597 322.329889 
L 401.764538 322.654284 
L 402.355478 321.032312 
L 402.946419 320.707918 
L 403.537359 318.112763 
L 404.128299 322.329889 
L 404.71924 318.112763 
L 405.31018 322.978678 
L 405.90112 318.761552 
L 406.492061 320.059129 
L 407.083001 317.463975 
L 407.673941 351.849772 
L 408.264882 319.085946 
L 408.855822 319.734735 
L 409.446763 322.978678 
L 410.037703 318.437157 
L 410.628643 322.978678 
L 411.219584 319.734735 
L 411.810524 321.681101 
L 412.401464 318.761552 
L 413.583345 320.707918 
L 414.174286 319.085946 
L 414.765226 321.356706 
L 415.356166 319.734735 
L 415.947107 320.707918 
L 416.538047 319.41034 
L 417.128987 322.005495 
L 417.719928 319.734735 
L 418.310868 322.978678 
L 418.901808 322.329889 
L 419.492749 322.978678 
L 420.083689 319.41034 
L 420.67463 322.005495 
L 421.26557 322.005495 
L 421.85651 322.654284 
L 422.447451 320.059129 
L 423.038391 322.329889 
L 423.629331 320.383523 
L 424.220272 322.654284 
L 424.811212 320.059129 
L 425.402153 322.329889 
L 425.993093 319.734735 
L 426.584033 322.329889 
L 427.174974 320.059129 
L 427.765914 322.654284 
L 428.356854 320.059129 
L 428.947795 320.383523 
L 430.129676 320.383523 
L 430.720616 322.654284 
L 431.311556 319.734735 
L 431.902497 351.849772 
L 432.493437 320.059129 
L 433.084377 321.681101 
L 433.675318 322.005495 
L 434.266258 322.978678 
L 434.857198 324.276255 
L 435.448139 323.951861 
L 436.039079 327.195804 
L 436.63002 324.276255 
L 437.22096 328.817776 
L 437.8119 326.222621 
L 438.402841 329.466564 
L 438.993781 327.195804 
L 439.584721 330.764142 
L 440.175662 325.898227 
L 440.766602 326.87141 
L 441.357543 329.14217 
L 441.948483 326.547015 
L 442.539423 328.817776 
L 443.130364 327.195804 
L 443.721304 329.14217 
L 444.312244 325.249438 
L 444.903185 332.061719 
L 445.494125 327.195804 
L 446.085065 330.764142 
L 446.676006 327.195804 
L 447.857887 325.898227 
L 448.448827 323.303072 
L 449.039767 322.329889 
L 449.630708 322.329889 
L 450.221648 320.059129 
L 450.812588 321.356706 
L 451.403529 319.734735 
L 451.994469 316.490792 
L 452.58541 320.383523 
L 453.17635 319.41034 
L 453.76729 322.654284 
L 454.358231 316.490792 
L 454.949171 320.059129 
L 455.540111 316.490792 
L 456.131052 351.849772 
L 456.721992 310.651694 
L 457.312933 313.895637 
L 458.494813 314.544426 
L 459.085754 314.544426 
L 459.676694 315.842003 
L 460.267634 315.842003 
L 460.858575 316.815186 
L 461.449515 316.490792 
L 462.040455 319.41034 
L 462.631396 316.490792 
L 463.222336 322.654284 
L 463.813277 318.761552 
L 464.404217 322.654284 
L 464.995157 318.437157 
L 465.586098 320.707918 
L 466.177038 318.761552 
L 466.767978 320.383523 
L 467.358919 319.085946 
L 467.949859 320.059129 
L 468.5408 323.951861 
L 469.13174 321.356706 
L 469.72268 323.627467 
L 470.313621 319.41034 
L 470.904561 320.707918 
L 471.495501 317.788369 
L 472.086442 317.788369 
L 472.086442 317.788369 
" style="fill:none;stroke:#2ca02c;stroke-linecap:square;stroke-width:1.5;"/>
   </g>
   <g id="line2d_18">
    <path clip-path="url(#p9a40c67d9f)" d="M 148.866879 207.818695 
L 149.457819 274.968319 
L 150.04876 277.563473 
L 150.6397 282.429388 
L 151.230641 274.968319 
L 151.821581 280.807416 
L 152.412521 305.461385 
L 153.003462 314.220031 
L 153.594402 318.761552 
L 154.185342 320.059129 
L 154.776283 325.249438 
L 155.367223 338.874 
L 155.958163 338.874 
L 156.549104 342.117943 
L 157.140044 343.41552 
L 158.912865 345.361886 
L 159.503806 345.361886 
L 160.094746 346.010675 
L 160.685686 345.361886 
L 161.276627 342.117943 
L 161.867567 339.847183 
L 162.458508 335.630056 
L 163.640388 319.734735 
L 164.231329 324.60065 
L 164.822269 325.573832 
L 165.413209 323.627467 
L 166.00415 325.573832 
L 166.59509 326.222621 
L 167.186031 324.925044 
L 167.776971 323.951861 
L 168.367911 325.573832 
L 168.958852 324.925044 
L 169.549792 324.60065 
L 170.140732 322.329889 
L 170.731673 322.978678 
L 171.322613 324.60065 
L 171.913553 322.654284 
L 172.504494 322.005495 
L 173.095434 323.951861 
L 173.686375 318.761552 
L 175.459196 320.707918 
L 176.050136 317.13958 
L 176.641076 321.356706 
L 177.232017 331.088536 
L 177.822957 310.976088 
L 179.004838 322.978678 
L 179.595778 320.059129 
L 180.186719 320.059129 
L 180.777659 320.707918 
L 181.368599 319.085946 
L 181.95954 319.734735 
L 182.55048 318.437157 
L 183.141421 320.383523 
L 183.732361 318.761552 
L 184.323301 321.356706 
L 184.914242 320.059129 
L 185.505182 320.707918 
L 186.096122 319.734735 
L 186.687063 322.005495 
L 187.278003 321.032312 
L 187.868943 323.627467 
L 188.459884 323.303072 
L 189.050824 348.605829 
L 189.641765 320.059129 
L 190.232705 322.654284 
L 191.414586 323.303072 
L 192.005526 325.898227 
L 192.596466 324.60065 
L 193.187407 323.627467 
L 193.778347 322.005495 
L 194.369288 324.925044 
L 194.960228 322.329889 
L 195.551168 325.573832 
L 196.142109 322.005495 
L 196.733049 326.87141 
L 197.323989 321.032312 
L 197.91493 325.898227 
L 198.50587 318.761552 
L 199.09681 324.60065 
L 199.687751 319.085946 
L 200.278691 321.032312 
L 200.869632 318.761552 
L 201.460572 350.552195 
L 202.051512 319.085946 
L 202.642453 327.520198 
L 203.233393 321.356706 
L 203.824333 324.925044 
L 204.415274 322.654284 
L 205.006214 323.951861 
L 205.597155 319.41034 
L 206.188095 323.951861 
L 206.779035 319.734735 
L 207.369976 319.734735 
L 207.960916 317.463975 
L 208.551856 317.788369 
L 209.142797 316.490792 
L 209.733737 317.463975 
L 210.324678 316.166397 
L 210.915618 314.220031 
L 211.506558 319.734735 
L 212.097499 314.86882 
L 212.688439 315.517609 
L 213.279379 317.463975 
L 213.87032 315.842003 
L 214.46126 324.276255 
L 215.0522 323.303072 
L 215.643141 325.249438 
L 216.234081 322.005495 
L 216.825022 323.627467 
L 217.415962 322.654284 
L 218.006902 323.951861 
L 218.597843 322.005495 
L 219.188783 322.978678 
L 219.779723 322.329889 
L 220.370664 322.654284 
L 220.961604 324.276255 
L 221.552545 322.329889 
L 222.143485 323.951861 
L 222.734425 322.005495 
L 223.325366 322.978678 
L 223.916306 322.329889 
L 224.507246 325.898227 
L 225.098187 325.249438 
L 225.689127 351.849772 
L 226.280067 321.356706 
L 226.871008 328.817776 
L 227.461948 326.222621 
L 228.052889 328.817776 
L 228.643829 325.573832 
L 229.234769 328.817776 
L 229.82571 325.249438 
L 230.41665 324.925044 
L 231.00759 326.87141 
L 231.598531 325.249438 
L 232.189471 325.573832 
L 233.371352 324.925044 
L 233.962292 325.898227 
L 234.553233 327.195804 
L 235.144173 324.276255 
L 235.735113 329.466564 
L 236.326054 327.195804 
L 236.916994 330.764142 
L 237.507935 327.844593 
L 238.689815 327.844593 
L 239.280756 327.195804 
L 239.871696 324.925044 
L 240.462636 324.925044 
L 241.053577 324.60065 
L 241.644517 322.654284 
L 242.235457 322.978678 
L 242.826398 322.005495 
L 243.417338 322.978678 
L 244.008279 322.654284 
L 244.599219 321.032312 
L 245.190159 318.761552 
L 245.7811 322.978678 
L 246.37204 318.112763 
L 246.96298 324.60065 
L 247.553921 316.490792 
L 248.144861 318.437157 
L 248.735802 316.490792 
L 249.326742 316.490792 
L 249.917682 352.174167 
L 250.508623 310.976088 
L 251.099563 313.571243 
L 251.690503 318.112763 
L 252.281444 314.220031 
L 252.872384 317.788369 
L 253.463324 313.571243 
L 254.054265 317.463975 
L 254.645205 314.86882 
L 255.236146 318.761552 
L 255.827086 316.490792 
L 256.418026 318.437157 
L 257.008967 316.490792 
L 257.599907 321.032312 
L 258.190847 315.842003 
L 258.781788 321.032312 
L 259.372728 320.059129 
L 259.963669 321.681101 
L 260.554609 317.13958 
L 261.145549 318.761552 
L 261.73649 319.734735 
L 262.32743 319.734735 
L 262.91837 320.707918 
L 263.509311 318.112763 
L 264.691192 318.761552 
L 265.282132 318.761552 
L 265.873072 323.303072 
L 266.464013 318.761552 
L 267.054953 322.329889 
L 267.645893 319.734735 
L 268.236834 321.356706 
L 268.827774 320.059129 
L 269.418714 322.005495 
L 270.009655 320.383523 
L 270.600595 319.41034 
L 271.191536 320.059129 
L 271.782476 319.734735 
L 272.373416 320.383523 
L 272.964357 319.41034 
L 273.555297 318.761552 
L 274.146237 351.849772 
L 274.737178 312.922454 
L 275.328118 319.085946 
L 275.919059 315.842003 
L 276.509999 319.734735 
L 277.100939 315.517609 
L 277.69188 319.085946 
L 278.28282 315.842003 
L 278.87376 319.41034 
L 279.464701 316.166397 
L 280.055641 318.437157 
L 280.646581 316.815186 
L 281.237522 315.842003 
L 281.828462 318.761552 
L 282.419403 315.842003 
L 283.010343 317.13958 
L 283.601283 315.193214 
L 284.192224 317.463975 
L 284.783164 316.490792 
L 285.374104 316.815186 
L 285.965045 318.112763 
L 286.555985 329.14217 
L 287.146926 323.627467 
L 287.737866 323.627467 
L 288.328806 320.059129 
L 288.919747 324.276255 
L 289.510687 321.681101 
L 290.101627 320.059129 
L 290.692568 322.329889 
L 291.283508 320.383523 
L 291.874449 322.329889 
L 293.056329 322.329889 
L 293.64727 323.951861 
L 294.23821 323.303072 
L 294.82915 323.627467 
L 295.420091 326.222621 
L 296.011031 326.547015 
L 296.601971 329.466564 
L 297.192912 325.898227 
L 297.783852 330.764142 
L 298.374793 351.849772 
L 298.965733 323.951861 
L 299.556673 329.14217 
L 300.147614 328.493381 
L 300.738554 326.87141 
L 301.329494 329.14217 
L 301.920435 325.898227 
L 302.511375 327.520198 
L 303.102316 326.547015 
L 304.284196 328.493381 
L 304.875137 328.817776 
L 305.466077 327.195804 
L 306.057017 328.817776 
L 306.647958 325.898227 
L 307.238898 328.493381 
L 307.829838 325.249438 
L 308.420779 328.493381 
L 309.011719 325.898227 
L 309.60266 326.87141 
L 310.1936 327.195804 
L 310.78454 334.332479 
L 311.375481 325.249438 
L 311.966421 325.573832 
L 312.557361 325.573832 
L 313.148302 325.249438 
L 313.739242 326.222621 
L 314.330183 325.573832 
L 314.921123 325.249438 
L 315.512063 324.60065 
L 316.103004 324.276255 
L 316.693944 323.627467 
L 317.284884 327.195804 
L 317.875825 325.249438 
L 318.466765 328.168987 
L 319.057706 324.276255 
L 319.648646 325.249438 
L 320.239586 324.925044 
L 320.830527 323.303072 
L 321.421467 323.627467 
L 322.012407 323.303072 
L 322.603348 351.849772 
L 323.194288 322.654284 
L 324.376169 325.249438 
L 324.967109 322.978678 
L 325.55805 326.547015 
L 326.14899 323.303072 
L 326.73993 325.573832 
L 327.330871 322.978678 
L 327.921811 328.168987 
L 328.512751 322.654284 
L 329.103692 323.627467 
L 329.694632 322.329889 
L 330.285573 323.627467 
L 330.876513 322.654284 
L 331.467453 322.978678 
L 332.649334 320.059129 
L 333.240274 322.329889 
L 333.831215 320.059129 
L 334.422155 319.41034 
L 335.013096 327.520198 
L 335.604036 319.085946 
L 336.194976 318.112763 
L 336.785917 321.032312 
L 337.376857 318.437157 
L 337.967797 322.329889 
L 338.558738 318.761552 
L 339.149678 320.383523 
L 339.740618 319.41034 
L 340.331559 322.654284 
L 340.922499 321.032312 
L 341.51344 323.951861 
L 342.10438 320.383523 
L 342.69532 322.005495 
L 343.286261 319.734735 
L 343.877201 319.41034 
L 344.468141 320.059129 
L 345.059082 318.112763 
L 345.650022 319.41034 
L 346.240963 316.815186 
L 346.831903 351.849772 
L 347.422843 317.788369 
L 348.013784 319.085946 
L 348.604724 323.303072 
L 349.195664 319.734735 
L 349.786605 324.925044 
L 350.377545 320.707918 
L 350.968485 326.547015 
L 351.559426 320.383523 
L 352.150366 323.627467 
L 352.741307 320.383523 
L 353.332247 321.681101 
L 353.923187 321.356706 
L 354.514128 321.356706 
L 355.105068 322.329889 
L 355.696008 322.005495 
L 356.286949 322.654284 
L 356.877889 322.978678 
L 357.46883 324.276255 
L 358.05977 323.951861 
L 358.65071 326.222621 
L 359.241651 329.790959 
L 359.832591 322.978678 
L 360.423531 324.276255 
L 361.014472 324.276255 
L 362.196353 324.925044 
L 362.787293 324.276255 
L 363.378233 326.87141 
L 363.969174 323.627467 
L 364.560114 327.520198 
L 365.151054 323.627467 
L 365.741995 328.817776 
L 366.332935 323.627467 
L 366.923875 328.493381 
L 367.514816 324.60065 
L 368.105756 325.898227 
L 368.696697 323.627467 
L 369.287637 323.627467 
L 369.878577 324.925044 
L 370.469518 324.925044 
L 371.060458 351.849772 
L 371.651398 321.356706 
L 372.242339 321.681101 
L 372.833279 325.249438 
L 373.42422 320.707918 
L 374.01516 322.654284 
L 374.6061 319.734735 
L 375.197041 322.654284 
L 375.787981 321.032312 
L 376.378921 318.437157 
L 376.969862 318.112763 
L 377.560802 318.437157 
L 378.151742 317.463975 
L 378.742683 316.166397 
L 379.333623 316.166397 
L 379.924564 315.193214 
L 380.515504 316.490792 
L 381.106444 314.544426 
L 381.697385 315.517609 
L 382.288325 314.220031 
L 382.879265 313.571243 
L 383.470206 323.627467 
L 384.061146 310.002905 
L 384.652087 312.273665 
L 385.243027 311.300482 
L 385.833967 311.300482 
L 386.424908 311.949271 
L 387.015848 310.651694 
L 387.606788 312.59806 
L 388.788669 311.300482 
L 389.37961 312.59806 
L 390.56149 312.59806 
L 391.152431 314.544426 
L 391.743371 311.300482 
L 392.334311 316.815186 
L 392.925252 311.624877 
L 393.516192 314.220031 
L 394.107132 312.273665 
L 394.698073 311.624877 
L 395.289013 348.930223 
L 395.879954 307.407751 
L 396.470894 312.273665 
L 397.061834 314.86882 
L 397.652775 313.571243 
L 398.243715 313.246848 
L 398.834655 312.273665 
L 399.425596 313.246848 
L 400.016536 313.571243 
L 400.607477 314.86882 
L 401.198417 315.842003 
L 401.789357 313.895637 
L 402.380298 316.815186 
L 402.971238 316.166397 
L 403.562178 318.437157 
L 404.153119 318.437157 
L 404.744059 319.41034 
L 405.334999 316.490792 
L 405.92594 318.761552 
L 406.51688 316.166397 
L 407.107821 320.383523 
L 407.698761 328.817776 
L 408.289701 312.273665 
L 408.880642 313.571243 
L 409.471582 316.166397 
L 410.062522 314.86882 
L 410.653463 317.13958 
L 411.244403 316.815186 
L 411.835344 318.437157 
L 412.426284 316.166397 
L 413.017224 322.978678 
L 413.608165 315.842003 
L 414.199105 322.329889 
L 414.790045 319.734735 
L 415.380986 319.41034 
L 415.971926 318.761552 
L 416.562867 318.761552 
L 417.153807 320.383523 
L 417.744747 318.761552 
L 418.335688 322.005495 
L 418.926628 318.437157 
L 419.517568 330.764142 
L 420.108509 318.437157 
L 420.699449 319.734735 
L 421.290389 320.059129 
L 421.88133 321.356706 
L 422.47227 322.978678 
L 423.654151 321.681101 
L 424.245091 322.978678 
L 424.836032 320.707918 
L 425.426972 322.978678 
L 426.017912 321.032312 
L 426.608853 324.925044 
L 427.199793 321.032312 
L 427.790734 326.222621 
L 428.381674 322.654284 
L 428.972614 326.87141 
L 429.563555 323.303072 
L 430.154495 325.573832 
L 430.745435 324.925044 
L 431.336376 323.627467 
L 431.927316 341.793548 
L 432.518256 322.978678 
L 433.109197 326.547015 
L 433.700137 322.978678 
L 434.291078 324.925044 
L 434.882018 322.654284 
L 435.472958 322.654284 
L 436.063899 321.681101 
L 436.654839 321.032312 
L 437.245779 323.951861 
L 437.83672 318.761552 
L 438.42766 320.707918 
L 439.018601 319.734735 
L 439.609541 320.707918 
L 440.200481 319.41034 
L 440.791422 319.734735 
L 441.382362 321.032312 
L 441.973302 318.112763 
L 442.564243 319.734735 
L 443.155183 318.761552 
L 443.746124 320.383523 
L 444.337064 309.678511 
L 444.928004 318.437157 
L 445.518945 314.220031 
L 446.109885 315.842003 
L 446.700825 315.193214 
L 447.291766 316.490792 
L 447.882706 315.842003 
L 448.473646 317.463975 
L 449.064587 316.166397 
L 449.655527 321.032312 
L 450.246468 317.788369 
L 450.837408 324.925044 
L 451.428348 319.085946 
L 452.019289 325.249438 
L 452.610229 322.005495 
L 453.201169 327.844593 
L 453.79211 323.303072 
L 454.38305 323.303072 
L 454.973991 324.60065 
L 455.564931 323.303072 
L 456.155871 351.849772 
L 456.746812 324.60065 
L 457.928692 324.60065 
L 458.519633 322.978678 
L 459.110573 322.329889 
L 459.701513 320.707918 
L 461.474335 319.734735 
L 462.065275 318.761552 
L 462.656215 318.761552 
L 463.247156 315.842003 
L 463.838096 318.761552 
L 464.429036 315.193214 
L 465.019977 319.734735 
L 465.610917 314.86882 
L 466.201858 320.059129 
L 466.792798 312.922454 
L 467.383738 316.815186 
L 467.383738 316.815186 
" style="fill:none;stroke:#d62728;stroke-linecap:square;stroke-width:1.5;"/>
   </g>
   <g id="patch_3">
    <path d="M 130.230156 352.174167 
L 130.230156 35.0625 
" style="fill:none;stroke:#000000;stroke-linecap:square;stroke-linejoin:miter;stroke-width:0.8;"/>
   </g>
   <g id="patch_4">
    <path d="M 488.365312 352.174167 
L 488.365312 35.0625 
" style="fill:none;stroke:#000000;stroke-linecap:square;stroke-linejoin:miter;stroke-width:0.8;"/>
   </g>
   <g id="patch_5">
    <path d="M 130.230156 352.174167 
L 488.365312 352.174167 
" style="fill:none;stroke:#000000;stroke-linecap:square;stroke-linejoin:miter;stroke-width:0.8;"/>
   </g>
   <g id="patch_6">
    <path d="M 130.230156 35.0625 
L 488.365312 35.0625 
" style="fill:none;stroke:#000000;stroke-linecap:square;stroke-linejoin:miter;stroke-width:0.8;"/>
   </g>
   <g id="legend_1">
    <g id="patch_7">
     <path d="M 508.27207 96.775 
L 607.342383 96.775 
Q 609.342383 96.775 609.342383 94.775 
L 609.342383 37.0625 
Q 609.342383 35.0625 607.342383 35.0625 
L 508.27207 35.0625 
Q 506.27207 35.0625 506.27207 37.0625 
L 506.27207 94.775 
Q 506.27207 96.775 508.27207 96.775 
z
" style="fill:#ffffff;opacity:0.8;stroke:#cccccc;stroke-linejoin:miter;"/>
    </g>
    <g id="line2d_19">
     <path d="M 510.27207 43.160937 
L 530.27207 43.160937 
" style="fill:none;stroke:#1f77b4;stroke-linecap:square;stroke-width:1.5;"/>
    </g>
    <g id="line2d_20"/>
    <g id="text_16">
     <!-- bbrshallow-pi -->
     <defs>
      <path d="M 41.109375 46.296875 
Q 39.59375 47.171875 37.8125 47.578125 
Q 36.03125 48 33.890625 48 
Q 26.265625 48 22.1875 43.046875 
Q 18.109375 38.09375 18.109375 28.8125 
L 18.109375 0 
L 9.078125 0 
L 9.078125 54.6875 
L 18.109375 54.6875 
L 18.109375 46.1875 
Q 20.953125 51.171875 25.484375 53.578125 
Q 30.03125 56 36.53125 56 
Q 37.453125 56 38.578125 55.875 
Q 39.703125 55.765625 41.0625 55.515625 
z
" id="DejaVuSans-114"/>
      <path d="M 34.28125 27.484375 
Q 23.390625 27.484375 19.1875 25 
Q 14.984375 22.515625 14.984375 16.5 
Q 14.984375 11.71875 18.140625 8.90625 
Q 21.296875 6.109375 26.703125 6.109375 
Q 34.1875 6.109375 38.703125 11.40625 
Q 43.21875 16.703125 43.21875 25.484375 
L 43.21875 27.484375 
z
M 52.203125 31.203125 
L 52.203125 0 
L 43.21875 0 
L 43.21875 8.296875 
Q 40.140625 3.328125 35.546875 0.953125 
Q 30.953125 -1.421875 24.3125 -1.421875 
Q 15.921875 -1.421875 10.953125 3.296875 
Q 6 8.015625 6 15.921875 
Q 6 25.140625 12.171875 29.828125 
Q 18.359375 34.515625 30.609375 34.515625 
L 43.21875 34.515625 
L 43.21875 35.40625 
Q 43.21875 41.609375 39.140625 45 
Q 35.0625 48.390625 27.6875 48.390625 
Q 23 48.390625 18.546875 47.265625 
Q 14.109375 46.140625 10.015625 43.890625 
L 10.015625 52.203125 
Q 14.9375 54.109375 19.578125 55.046875 
Q 24.21875 56 28.609375 56 
Q 40.484375 56 46.34375 49.84375 
Q 52.203125 43.703125 52.203125 31.203125 
z
" id="DejaVuSans-97"/>
      <path d="M 30.609375 48.390625 
Q 23.390625 48.390625 19.1875 42.75 
Q 14.984375 37.109375 14.984375 27.296875 
Q 14.984375 17.484375 19.15625 11.84375 
Q 23.34375 6.203125 30.609375 6.203125 
Q 37.796875 6.203125 41.984375 11.859375 
Q 46.1875 17.53125 46.1875 27.296875 
Q 46.1875 37.015625 41.984375 42.703125 
Q 37.796875 48.390625 30.609375 48.390625 
z
M 30.609375 56 
Q 42.328125 56 49.015625 48.375 
Q 55.71875 40.765625 55.71875 27.296875 
Q 55.71875 13.875 49.015625 6.21875 
Q 42.328125 -1.421875 30.609375 -1.421875 
Q 18.84375 -1.421875 12.171875 6.21875 
Q 5.515625 13.875 5.515625 27.296875 
Q 5.515625 40.765625 12.171875 48.375 
Q 18.84375 56 30.609375 56 
z
" id="DejaVuSans-111"/>
      <path d="M 4.203125 54.6875 
L 13.1875 54.6875 
L 24.421875 12.015625 
L 35.59375 54.6875 
L 46.1875 54.6875 
L 57.421875 12.015625 
L 68.609375 54.6875 
L 77.59375 54.6875 
L 63.28125 0 
L 52.6875 0 
L 40.921875 44.828125 
L 29.109375 0 
L 18.5 0 
z
" id="DejaVuSans-119"/>
      <path d="M 4.890625 31.390625 
L 31.203125 31.390625 
L 31.203125 23.390625 
L 4.890625 23.390625 
z
" id="DejaVuSans-45"/>
      <path d="M 18.109375 8.203125 
L 18.109375 -20.796875 
L 9.078125 -20.796875 
L 9.078125 54.6875 
L 18.109375 54.6875 
L 18.109375 46.390625 
Q 20.953125 51.265625 25.265625 53.625 
Q 29.59375 56 35.59375 56 
Q 45.5625 56 51.78125 48.09375 
Q 58.015625 40.1875 58.015625 27.296875 
Q 58.015625 14.40625 51.78125 6.484375 
Q 45.5625 -1.421875 35.59375 -1.421875 
Q 29.59375 -1.421875 25.265625 0.953125 
Q 20.953125 3.328125 18.109375 8.203125 
z
M 48.6875 27.296875 
Q 48.6875 37.203125 44.609375 42.84375 
Q 40.53125 48.484375 33.40625 48.484375 
Q 26.265625 48.484375 22.1875 42.84375 
Q 18.109375 37.203125 18.109375 27.296875 
Q 18.109375 17.390625 22.1875 11.75 
Q 26.265625 6.109375 33.40625 6.109375 
Q 40.53125 6.109375 44.609375 11.75 
Q 48.6875 17.390625 48.6875 27.296875 
z
" id="DejaVuSans-112"/>
     </defs>
     <g transform="translate(538.27207 46.660937)scale(0.1 -0.1)">
      <use xlink:href="#DejaVuSans-98"/>
      <use x="63.476562" xlink:href="#DejaVuSans-98"/>
      <use x="126.953125" xlink:href="#DejaVuSans-114"/>
      <use x="168.066406" xlink:href="#DejaVuSans-115"/>
      <use x="220.166016" xlink:href="#DejaVuSans-104"/>
      <use x="283.544922" xlink:href="#DejaVuSans-97"/>
      <use x="344.824219" xlink:href="#DejaVuSans-108"/>
      <use x="372.607422" xlink:href="#DejaVuSans-108"/>
      <use x="400.390625" xlink:href="#DejaVuSans-111"/>
      <use x="461.572266" xlink:href="#DejaVuSans-119"/>
      <use x="543.359375" xlink:href="#DejaVuSans-45"/>
      <use x="579.443359" xlink:href="#DejaVuSans-112"/>
      <use x="642.919922" xlink:href="#DejaVuSans-105"/>
     </g>
    </g>
    <g id="line2d_21">
     <path d="M 510.27207 57.839063 
L 530.27207 57.839063 
" style="fill:none;stroke:#ff7f0e;stroke-linecap:square;stroke-width:1.5;"/>
    </g>
    <g id="line2d_22"/>
    <g id="text_17">
     <!-- bbrshallow-pi -->
     <g transform="translate(538.27207 61.339063)scale(0.1 -0.1)">
      <use xlink:href="#DejaVuSans-98"/>
      <use x="63.476562" xlink:href="#DejaVuSans-98"/>
      <use x="126.953125" xlink:href="#DejaVuSans-114"/>
      <use x="168.066406" xlink:href="#DejaVuSans-115"/>
      <use x="220.166016" xlink:href="#DejaVuSans-104"/>
      <use x="283.544922" xlink:href="#DejaVuSans-97"/>
      <use x="344.824219" xlink:href="#DejaVuSans-108"/>
      <use x="372.607422" xlink:href="#DejaVuSans-108"/>
      <use x="400.390625" xlink:href="#DejaVuSans-111"/>
      <use x="461.572266" xlink:href="#DejaVuSans-119"/>
      <use x="543.359375" xlink:href="#DejaVuSans-45"/>
      <use x="579.443359" xlink:href="#DejaVuSans-112"/>
      <use x="642.919922" xlink:href="#DejaVuSans-105"/>
     </g>
    </g>
    <g id="line2d_23">
     <path d="M 510.27207 72.517187 
L 530.27207 72.517187 
" style="fill:none;stroke:#2ca02c;stroke-linecap:square;stroke-width:1.5;"/>
    </g>
    <g id="line2d_24"/>
    <g id="text_18">
     <!-- bbrshallow-pi -->
     <g transform="translate(538.27207 76.017187)scale(0.1 -0.1)">
      <use xlink:href="#DejaVuSans-98"/>
      <use x="63.476562" xlink:href="#DejaVuSans-98"/>
      <use x="126.953125" xlink:href="#DejaVuSans-114"/>
      <use x="168.066406" xlink:href="#DejaVuSans-115"/>
      <use x="220.166016" xlink:href="#DejaVuSans-104"/>
      <use x="283.544922" xlink:href="#DejaVuSans-97"/>
      <use x="344.824219" xlink:href="#DejaVuSans-108"/>
      <use x="372.607422" xlink:href="#DejaVuSans-108"/>
      <use x="400.390625" xlink:href="#DejaVuSans-111"/>
      <use x="461.572266" xlink:href="#DejaVuSans-119"/>
      <use x="543.359375" xlink:href="#DejaVuSans-45"/>
      <use x="579.443359" xlink:href="#DejaVuSans-112"/>
      <use x="642.919922" xlink:href="#DejaVuSans-105"/>
     </g>
    </g>
    <g id="line2d_25">
     <path d="M 510.27207 87.195312 
L 530.27207 87.195312 
" style="fill:none;stroke:#d62728;stroke-linecap:square;stroke-width:1.5;"/>
    </g>
    <g id="line2d_26"/>
    <g id="text_19">
     <!-- bbrshallow-pi -->
     <g transform="translate(538.27207 90.695312)scale(0.1 -0.1)">
      <use xlink:href="#DejaVuSans-98"/>
      <use x="63.476562" xlink:href="#DejaVuSans-98"/>
      <use x="126.953125" xlink:href="#DejaVuSans-114"/>
      <use x="168.066406" xlink:href="#DejaVuSans-115"/>
      <use x="220.166016" xlink:href="#DejaVuSans-104"/>
      <use x="283.544922" xlink:href="#DejaVuSans-97"/>
      <use x="344.824219" xlink:href="#DejaVuSans-108"/>
      <use x="372.607422" xlink:href="#DejaVuSans-108"/>
      <use x="400.390625" xlink:href="#DejaVuSans-111"/>
      <use x="461.572266" xlink:href="#DejaVuSans-119"/>
      <use x="543.359375" xlink:href="#DejaVuSans-45"/>
      <use x="579.443359" xlink:href="#DejaVuSans-112"/>
      <use x="642.919922" xlink:href="#DejaVuSans-105"/>
     </g>
    </g>
   </g>
  </g>
  <g id="text_20">
   <!-- result inflight -->
   <defs>
    <path d="M 8.5 21.578125 
L 8.5 54.6875 
L 17.484375 54.6875 
L 17.484375 21.921875 
Q 17.484375 14.15625 20.5 10.265625 
Q 23.53125 6.390625 29.59375 6.390625 
Q 36.859375 6.390625 41.078125 11.03125 
Q 45.3125 15.671875 45.3125 23.6875 
L 45.3125 54.6875 
L 54.296875 54.6875 
L 54.296875 0 
L 45.3125 0 
L 45.3125 8.40625 
Q 42.046875 3.421875 37.71875 1 
Q 33.40625 -1.421875 27.6875 -1.421875 
Q 18.265625 -1.421875 13.375 4.4375 
Q 8.5 10.296875 8.5 21.578125 
z
M 31.109375 56 
z
" id="DejaVuSans-117"/>
    <path id="DejaVuSans-32"/>
   </defs>
   <g transform="translate(302.110313 17.038125)scale(0.12 -0.12)">
    <use xlink:href="#DejaVuSans-114"/>
    <use x="41.082031" xlink:href="#DejaVuSans-101"/>
    <use x="102.605469" xlink:href="#DejaVuSans-115"/>
    <use x="154.705078" xlink:href="#DejaVuSans-117"/>
    <use x="218.083984" xlink:href="#DejaVuSans-108"/>
    <use x="245.867188" xlink:href="#DejaVuSans-116"/>
    <use x="285.076172" xlink:href="#DejaVuSans-32"/>
    <use x="316.863281" xlink:href="#DejaVuSans-105"/>
    <use x="344.646484" xlink:href="#DejaVuSans-110"/>
    <use x="408.025391" xlink:href="#DejaVuSans-102"/>
    <use x="443.230469" xlink:href="#DejaVuSans-108"/>
    <use x="471.013672" xlink:href="#DejaVuSans-105"/>
    <use x="498.796875" xlink:href="#DejaVuSans-103"/>
    <use x="562.273438" xlink:href="#DejaVuSans-104"/>
    <use x="625.652344" xlink:href="#DejaVuSans-116"/>
   </g>
  </g>
 </g>
 <defs>
  <clipPath id="p9a40c67d9f">
   <rect height="317.111667" width="358.135156" x="130.230156" y="35.0625"/>
  </clipPath>
 </defs>
</svg>
