<?xml version="1.0" encoding="utf-8" standalone="no"?>
<!DOCTYPE svg PUBLIC "-//W3C//DTD SVG 1.1//EN"
  "http://www.w3.org/Graphics/SVG/1.1/DTD/svg11.dtd">
<!-- Created with matplotlib (https://matplotlib.org/) -->
<svg height="396pt" version="1.1" viewBox="0 0 684 396" width="684pt" xmlns="http://www.w3.org/2000/svg" xmlns:xlink="http://www.w3.org/1999/xlink">
 <defs>
  <style type="text/css">
*{stroke-linecap:butt;stroke-linejoin:round;}
  </style>
 </defs>
 <g id="figure_1">
  <g id="patch_1">
   <path d="M 0 396 
L 684 396 
L 684 0 
L 0 0 
z
" style="fill:#ffffff;"/>
  </g>
  <g id="axes_1">
   <g id="patch_2">
    <path d="M 83.472344 352.174167 
L 529.912969 352.174167 
L 529.912969 35.0625 
L 83.472344 35.0625 
z
" style="fill:#ffffff;"/>
   </g>
   <g id="matplotlib.axis_1">
    <g id="xtick_1">
     <g id="line2d_1">
      <defs>
       <path d="M 0 0 
L 0 3.5 
" id="m89cd192545" style="stroke:#000000;stroke-width:0.8;"/>
      </defs>
      <g>
       <use style="stroke:#000000;stroke-width:0.8;" x="103.765099" xlink:href="#m89cd192545" y="352.174167"/>
      </g>
     </g>
     <g id="text_1">
      <!-- 0 -->
      <defs>
       <path d="M 31.78125 66.40625 
Q 24.171875 66.40625 20.328125 58.90625 
Q 16.5 51.421875 16.5 36.375 
Q 16.5 21.390625 20.328125 13.890625 
Q 24.171875 6.390625 31.78125 6.390625 
Q 39.453125 6.390625 43.28125 13.890625 
Q 47.125 21.390625 47.125 36.375 
Q 47.125 51.421875 43.28125 58.90625 
Q 39.453125 66.40625 31.78125 66.40625 
z
M 31.78125 74.21875 
Q 44.046875 74.21875 50.515625 64.515625 
Q 56.984375 54.828125 56.984375 36.375 
Q 56.984375 17.96875 50.515625 8.265625 
Q 44.046875 -1.421875 31.78125 -1.421875 
Q 19.53125 -1.421875 13.0625 8.265625 
Q 6.59375 17.96875 6.59375 36.375 
Q 6.59375 54.828125 13.0625 64.515625 
Q 19.53125 74.21875 31.78125 74.21875 
z
" id="DejaVuSans-48"/>
      </defs>
      <g transform="translate(100.583849 366.772604)scale(0.1 -0.1)">
       <use xlink:href="#DejaVuSans-48"/>
      </g>
     </g>
    </g>
    <g id="xtick_2">
     <g id="line2d_2">
      <g>
       <use style="stroke:#000000;stroke-width:0.8;" x="177.433978" xlink:href="#m89cd192545" y="352.174167"/>
      </g>
     </g>
     <g id="text_2">
      <!-- 50 -->
      <defs>
       <path d="M 10.796875 72.90625 
L 49.515625 72.90625 
L 49.515625 64.59375 
L 19.828125 64.59375 
L 19.828125 46.734375 
Q 21.96875 47.46875 24.109375 47.828125 
Q 26.265625 48.1875 28.421875 48.1875 
Q 40.625 48.1875 47.75 41.5 
Q 54.890625 34.8125 54.890625 23.390625 
Q 54.890625 11.625 47.5625 5.09375 
Q 40.234375 -1.421875 26.90625 -1.421875 
Q 22.3125 -1.421875 17.546875 -0.640625 
Q 12.796875 0.140625 7.71875 1.703125 
L 7.71875 11.625 
Q 12.109375 9.234375 16.796875 8.0625 
Q 21.484375 6.890625 26.703125 6.890625 
Q 35.15625 6.890625 40.078125 11.328125 
Q 45.015625 15.765625 45.015625 23.390625 
Q 45.015625 31 40.078125 35.4375 
Q 35.15625 39.890625 26.703125 39.890625 
Q 22.75 39.890625 18.8125 39.015625 
Q 14.890625 38.140625 10.796875 36.28125 
z
" id="DejaVuSans-53"/>
      </defs>
      <g transform="translate(171.071478 366.772604)scale(0.1 -0.1)">
       <use xlink:href="#DejaVuSans-53"/>
       <use x="63.623047" xlink:href="#DejaVuSans-48"/>
      </g>
     </g>
    </g>
    <g id="xtick_3">
     <g id="line2d_3">
      <g>
       <use style="stroke:#000000;stroke-width:0.8;" x="251.102857" xlink:href="#m89cd192545" y="352.174167"/>
      </g>
     </g>
     <g id="text_3">
      <!-- 100 -->
      <defs>
       <path d="M 12.40625 8.296875 
L 28.515625 8.296875 
L 28.515625 63.921875 
L 10.984375 60.40625 
L 10.984375 69.390625 
L 28.421875 72.90625 
L 38.28125 72.90625 
L 38.28125 8.296875 
L 54.390625 8.296875 
L 54.390625 0 
L 12.40625 0 
z
" id="DejaVuSans-49"/>
      </defs>
      <g transform="translate(241.559107 366.772604)scale(0.1 -0.1)">
       <use xlink:href="#DejaVuSans-49"/>
       <use x="63.623047" xlink:href="#DejaVuSans-48"/>
       <use x="127.246094" xlink:href="#DejaVuSans-48"/>
      </g>
     </g>
    </g>
    <g id="xtick_4">
     <g id="line2d_4">
      <g>
       <use style="stroke:#000000;stroke-width:0.8;" x="324.771736" xlink:href="#m89cd192545" y="352.174167"/>
      </g>
     </g>
     <g id="text_4">
      <!-- 150 -->
      <g transform="translate(315.227986 366.772604)scale(0.1 -0.1)">
       <use xlink:href="#DejaVuSans-49"/>
       <use x="63.623047" xlink:href="#DejaVuSans-53"/>
       <use x="127.246094" xlink:href="#DejaVuSans-48"/>
      </g>
     </g>
    </g>
    <g id="xtick_5">
     <g id="line2d_5">
      <g>
       <use style="stroke:#000000;stroke-width:0.8;" x="398.440615" xlink:href="#m89cd192545" y="352.174167"/>
      </g>
     </g>
     <g id="text_5">
      <!-- 200 -->
      <defs>
       <path d="M 19.1875 8.296875 
L 53.609375 8.296875 
L 53.609375 0 
L 7.328125 0 
L 7.328125 8.296875 
Q 12.9375 14.109375 22.625 23.890625 
Q 32.328125 33.6875 34.8125 36.53125 
Q 39.546875 41.84375 41.421875 45.53125 
Q 43.3125 49.21875 43.3125 52.78125 
Q 43.3125 58.59375 39.234375 62.25 
Q 35.15625 65.921875 28.609375 65.921875 
Q 23.96875 65.921875 18.8125 64.3125 
Q 13.671875 62.703125 7.8125 59.421875 
L 7.8125 69.390625 
Q 13.765625 71.78125 18.9375 73 
Q 24.125 74.21875 28.421875 74.21875 
Q 39.75 74.21875 46.484375 68.546875 
Q 53.21875 62.890625 53.21875 53.421875 
Q 53.21875 48.921875 51.53125 44.890625 
Q 49.859375 40.875 45.40625 35.40625 
Q 44.1875 33.984375 37.640625 27.21875 
Q 31.109375 20.453125 19.1875 8.296875 
z
" id="DejaVuSans-50"/>
      </defs>
      <g transform="translate(388.896865 366.772604)scale(0.1 -0.1)">
       <use xlink:href="#DejaVuSans-50"/>
       <use x="63.623047" xlink:href="#DejaVuSans-48"/>
       <use x="127.246094" xlink:href="#DejaVuSans-48"/>
      </g>
     </g>
    </g>
    <g id="xtick_6">
     <g id="line2d_6">
      <g>
       <use style="stroke:#000000;stroke-width:0.8;" x="472.109493" xlink:href="#m89cd192545" y="352.174167"/>
      </g>
     </g>
     <g id="text_6">
      <!-- 250 -->
      <g transform="translate(462.565743 366.772604)scale(0.1 -0.1)">
       <use xlink:href="#DejaVuSans-50"/>
       <use x="63.623047" xlink:href="#DejaVuSans-53"/>
       <use x="127.246094" xlink:href="#DejaVuSans-48"/>
      </g>
     </g>
    </g>
   </g>
   <g id="matplotlib.axis_2">
    <g id="ytick_1">
     <g id="line2d_7">
      <defs>
       <path d="M 0 0 
L -3.5 0 
" id="m3188aa3559" style="stroke:#000000;stroke-width:0.8;"/>
      </defs>
      <g>
       <use style="stroke:#000000;stroke-width:0.8;" x="83.472344" xlink:href="#m3188aa3559" y="352.174167"/>
      </g>
     </g>
     <g id="text_7">
      <!-- 0 -->
      <g transform="translate(70.109844 355.973385)scale(0.1 -0.1)">
       <use xlink:href="#DejaVuSans-48"/>
      </g>
     </g>
    </g>
    <g id="ytick_2">
     <g id="line2d_8">
      <g>
       <use style="stroke:#000000;stroke-width:0.8;" x="83.472344" xlink:href="#m3188aa3559" y="313.944912"/>
      </g>
     </g>
     <g id="text_8">
      <!-- 10 -->
      <g transform="translate(63.747344 317.744131)scale(0.1 -0.1)">
       <use xlink:href="#DejaVuSans-49"/>
       <use x="63.623047" xlink:href="#DejaVuSans-48"/>
      </g>
     </g>
    </g>
    <g id="ytick_3">
     <g id="line2d_9">
      <g>
       <use style="stroke:#000000;stroke-width:0.8;" x="83.472344" xlink:href="#m3188aa3559" y="275.715658"/>
      </g>
     </g>
     <g id="text_9">
      <!-- 20 -->
      <g transform="translate(63.747344 279.514876)scale(0.1 -0.1)">
       <use xlink:href="#DejaVuSans-50"/>
       <use x="63.623047" xlink:href="#DejaVuSans-48"/>
      </g>
     </g>
    </g>
    <g id="ytick_4">
     <g id="line2d_10">
      <g>
       <use style="stroke:#000000;stroke-width:0.8;" x="83.472344" xlink:href="#m3188aa3559" y="237.486403"/>
      </g>
     </g>
     <g id="text_10">
      <!-- 30 -->
      <defs>
       <path d="M 40.578125 39.3125 
Q 47.65625 37.796875 51.625 33 
Q 55.609375 28.21875 55.609375 21.1875 
Q 55.609375 10.40625 48.1875 4.484375 
Q 40.765625 -1.421875 27.09375 -1.421875 
Q 22.515625 -1.421875 17.65625 -0.515625 
Q 12.796875 0.390625 7.625 2.203125 
L 7.625 11.71875 
Q 11.71875 9.328125 16.59375 8.109375 
Q 21.484375 6.890625 26.8125 6.890625 
Q 36.078125 6.890625 40.9375 10.546875 
Q 45.796875 14.203125 45.796875 21.1875 
Q 45.796875 27.640625 41.28125 31.265625 
Q 36.765625 34.90625 28.71875 34.90625 
L 20.21875 34.90625 
L 20.21875 43.015625 
L 29.109375 43.015625 
Q 36.375 43.015625 40.234375 45.921875 
Q 44.09375 48.828125 44.09375 54.296875 
Q 44.09375 59.90625 40.109375 62.90625 
Q 36.140625 65.921875 28.71875 65.921875 
Q 24.65625 65.921875 20.015625 65.03125 
Q 15.375 64.15625 9.8125 62.3125 
L 9.8125 71.09375 
Q 15.4375 72.65625 20.34375 73.4375 
Q 25.25 74.21875 29.59375 74.21875 
Q 40.828125 74.21875 47.359375 69.109375 
Q 53.90625 64.015625 53.90625 55.328125 
Q 53.90625 49.265625 50.4375 45.09375 
Q 46.96875 40.921875 40.578125 39.3125 
z
" id="DejaVuSans-51"/>
      </defs>
      <g transform="translate(63.747344 241.285622)scale(0.1 -0.1)">
       <use xlink:href="#DejaVuSans-51"/>
       <use x="63.623047" xlink:href="#DejaVuSans-48"/>
      </g>
     </g>
    </g>
    <g id="ytick_5">
     <g id="line2d_11">
      <g>
       <use style="stroke:#000000;stroke-width:0.8;" x="83.472344" xlink:href="#m3188aa3559" y="199.257148"/>
      </g>
     </g>
     <g id="text_11">
      <!-- 40 -->
      <defs>
       <path d="M 37.796875 64.3125 
L 12.890625 25.390625 
L 37.796875 25.390625 
z
M 35.203125 72.90625 
L 47.609375 72.90625 
L 47.609375 25.390625 
L 58.015625 25.390625 
L 58.015625 17.1875 
L 47.609375 17.1875 
L 47.609375 0 
L 37.796875 0 
L 37.796875 17.1875 
L 4.890625 17.1875 
L 4.890625 26.703125 
z
" id="DejaVuSans-52"/>
      </defs>
      <g transform="translate(63.747344 203.056367)scale(0.1 -0.1)">
       <use xlink:href="#DejaVuSans-52"/>
       <use x="63.623047" xlink:href="#DejaVuSans-48"/>
      </g>
     </g>
    </g>
    <g id="ytick_6">
     <g id="line2d_12">
      <g>
       <use style="stroke:#000000;stroke-width:0.8;" x="83.472344" xlink:href="#m3188aa3559" y="161.027894"/>
      </g>
     </g>
     <g id="text_12">
      <!-- 50 -->
      <g transform="translate(63.747344 164.827113)scale(0.1 -0.1)">
       <use xlink:href="#DejaVuSans-53"/>
       <use x="63.623047" xlink:href="#DejaVuSans-48"/>
      </g>
     </g>
    </g>
    <g id="ytick_7">
     <g id="line2d_13">
      <g>
       <use style="stroke:#000000;stroke-width:0.8;" x="83.472344" xlink:href="#m3188aa3559" y="122.798639"/>
      </g>
     </g>
     <g id="text_13">
      <!-- 60 -->
      <defs>
       <path d="M 33.015625 40.375 
Q 26.375 40.375 22.484375 35.828125 
Q 18.609375 31.296875 18.609375 23.390625 
Q 18.609375 15.53125 22.484375 10.953125 
Q 26.375 6.390625 33.015625 6.390625 
Q 39.65625 6.390625 43.53125 10.953125 
Q 47.40625 15.53125 47.40625 23.390625 
Q 47.40625 31.296875 43.53125 35.828125 
Q 39.65625 40.375 33.015625 40.375 
z
M 52.59375 71.296875 
L 52.59375 62.3125 
Q 48.875 64.0625 45.09375 64.984375 
Q 41.3125 65.921875 37.59375 65.921875 
Q 27.828125 65.921875 22.671875 59.328125 
Q 17.53125 52.734375 16.796875 39.40625 
Q 19.671875 43.65625 24.015625 45.921875 
Q 28.375 48.1875 33.59375 48.1875 
Q 44.578125 48.1875 50.953125 41.515625 
Q 57.328125 34.859375 57.328125 23.390625 
Q 57.328125 12.15625 50.6875 5.359375 
Q 44.046875 -1.421875 33.015625 -1.421875 
Q 20.359375 -1.421875 13.671875 8.265625 
Q 6.984375 17.96875 6.984375 36.375 
Q 6.984375 53.65625 15.1875 63.9375 
Q 23.390625 74.21875 37.203125 74.21875 
Q 40.921875 74.21875 44.703125 73.484375 
Q 48.484375 72.75 52.59375 71.296875 
z
" id="DejaVuSans-54"/>
      </defs>
      <g transform="translate(63.747344 126.597858)scale(0.1 -0.1)">
       <use xlink:href="#DejaVuSans-54"/>
       <use x="63.623047" xlink:href="#DejaVuSans-48"/>
      </g>
     </g>
    </g>
    <g id="ytick_8">
     <g id="line2d_14">
      <g>
       <use style="stroke:#000000;stroke-width:0.8;" x="83.472344" xlink:href="#m3188aa3559" y="84.569385"/>
      </g>
     </g>
     <g id="text_14">
      <!-- 70 -->
      <defs>
       <path d="M 8.203125 72.90625 
L 55.078125 72.90625 
L 55.078125 68.703125 
L 28.609375 0 
L 18.3125 0 
L 43.21875 64.59375 
L 8.203125 64.59375 
z
" id="DejaVuSans-55"/>
      </defs>
      <g transform="translate(63.747344 88.368603)scale(0.1 -0.1)">
       <use xlink:href="#DejaVuSans-55"/>
       <use x="63.623047" xlink:href="#DejaVuSans-48"/>
      </g>
     </g>
    </g>
    <g id="ytick_9">
     <g id="line2d_15">
      <g>
       <use style="stroke:#000000;stroke-width:0.8;" x="83.472344" xlink:href="#m3188aa3559" y="46.34013"/>
      </g>
     </g>
     <g id="text_15">
      <!-- 80 -->
      <defs>
       <path d="M 31.78125 34.625 
Q 24.75 34.625 20.71875 30.859375 
Q 16.703125 27.09375 16.703125 20.515625 
Q 16.703125 13.921875 20.71875 10.15625 
Q 24.75 6.390625 31.78125 6.390625 
Q 38.8125 6.390625 42.859375 10.171875 
Q 46.921875 13.96875 46.921875 20.515625 
Q 46.921875 27.09375 42.890625 30.859375 
Q 38.875 34.625 31.78125 34.625 
z
M 21.921875 38.8125 
Q 15.578125 40.375 12.03125 44.71875 
Q 8.5 49.078125 8.5 55.328125 
Q 8.5 64.0625 14.71875 69.140625 
Q 20.953125 74.21875 31.78125 74.21875 
Q 42.671875 74.21875 48.875 69.140625 
Q 55.078125 64.0625 55.078125 55.328125 
Q 55.078125 49.078125 51.53125 44.71875 
Q 48 40.375 41.703125 38.8125 
Q 48.828125 37.15625 52.796875 32.3125 
Q 56.78125 27.484375 56.78125 20.515625 
Q 56.78125 9.90625 50.3125 4.234375 
Q 43.84375 -1.421875 31.78125 -1.421875 
Q 19.734375 -1.421875 13.25 4.234375 
Q 6.78125 9.90625 6.78125 20.515625 
Q 6.78125 27.484375 10.78125 32.3125 
Q 14.796875 37.15625 21.921875 38.8125 
z
M 18.3125 54.390625 
Q 18.3125 48.734375 21.84375 45.5625 
Q 25.390625 42.390625 31.78125 42.390625 
Q 38.140625 42.390625 41.71875 45.5625 
Q 45.3125 48.734375 45.3125 54.390625 
Q 45.3125 60.0625 41.71875 63.234375 
Q 38.140625 66.40625 31.78125 66.40625 
Q 25.390625 66.40625 21.84375 63.234375 
Q 18.3125 60.0625 18.3125 54.390625 
z
" id="DejaVuSans-56"/>
      </defs>
      <g transform="translate(63.747344 50.139349)scale(0.1 -0.1)">
       <use xlink:href="#DejaVuSans-56"/>
       <use x="63.623047" xlink:href="#DejaVuSans-48"/>
      </g>
     </g>
    </g>
    <g id="text_16">
     <!-- throughput -->
     <defs>
      <path d="M 18.3125 70.21875 
L 18.3125 54.6875 
L 36.8125 54.6875 
L 36.8125 47.703125 
L 18.3125 47.703125 
L 18.3125 18.015625 
Q 18.3125 11.328125 20.140625 9.421875 
Q 21.96875 7.515625 27.59375 7.515625 
L 36.8125 7.515625 
L 36.8125 0 
L 27.59375 0 
Q 17.1875 0 13.234375 3.875 
Q 9.28125 7.765625 9.28125 18.015625 
L 9.28125 47.703125 
L 2.6875 47.703125 
L 2.6875 54.6875 
L 9.28125 54.6875 
L 9.28125 70.21875 
z
" id="DejaVuSans-116"/>
      <path d="M 54.890625 33.015625 
L 54.890625 0 
L 45.90625 0 
L 45.90625 32.71875 
Q 45.90625 40.484375 42.875 44.328125 
Q 39.84375 48.1875 33.796875 48.1875 
Q 26.515625 48.1875 22.3125 43.546875 
Q 18.109375 38.921875 18.109375 30.90625 
L 18.109375 0 
L 9.078125 0 
L 9.078125 75.984375 
L 18.109375 75.984375 
L 18.109375 46.1875 
Q 21.34375 51.125 25.703125 53.5625 
Q 30.078125 56 35.796875 56 
Q 45.21875 56 50.046875 50.171875 
Q 54.890625 44.34375 54.890625 33.015625 
z
" id="DejaVuSans-104"/>
      <path d="M 41.109375 46.296875 
Q 39.59375 47.171875 37.8125 47.578125 
Q 36.03125 48 33.890625 48 
Q 26.265625 48 22.1875 43.046875 
Q 18.109375 38.09375 18.109375 28.8125 
L 18.109375 0 
L 9.078125 0 
L 9.078125 54.6875 
L 18.109375 54.6875 
L 18.109375 46.1875 
Q 20.953125 51.171875 25.484375 53.578125 
Q 30.03125 56 36.53125 56 
Q 37.453125 56 38.578125 55.875 
Q 39.703125 55.765625 41.0625 55.515625 
z
" id="DejaVuSans-114"/>
      <path d="M 30.609375 48.390625 
Q 23.390625 48.390625 19.1875 42.75 
Q 14.984375 37.109375 14.984375 27.296875 
Q 14.984375 17.484375 19.15625 11.84375 
Q 23.34375 6.203125 30.609375 6.203125 
Q 37.796875 6.203125 41.984375 11.859375 
Q 46.1875 17.53125 46.1875 27.296875 
Q 46.1875 37.015625 41.984375 42.703125 
Q 37.796875 48.390625 30.609375 48.390625 
z
M 30.609375 56 
Q 42.328125 56 49.015625 48.375 
Q 55.71875 40.765625 55.71875 27.296875 
Q 55.71875 13.875 49.015625 6.21875 
Q 42.328125 -1.421875 30.609375 -1.421875 
Q 18.84375 -1.421875 12.171875 6.21875 
Q 5.515625 13.875 5.515625 27.296875 
Q 5.515625 40.765625 12.171875 48.375 
Q 18.84375 56 30.609375 56 
z
" id="DejaVuSans-111"/>
      <path d="M 8.5 21.578125 
L 8.5 54.6875 
L 17.484375 54.6875 
L 17.484375 21.921875 
Q 17.484375 14.15625 20.5 10.265625 
Q 23.53125 6.390625 29.59375 6.390625 
Q 36.859375 6.390625 41.078125 11.03125 
Q 45.3125 15.671875 45.3125 23.6875 
L 45.3125 54.6875 
L 54.296875 54.6875 
L 54.296875 0 
L 45.3125 0 
L 45.3125 8.40625 
Q 42.046875 3.421875 37.71875 1 
Q 33.40625 -1.421875 27.6875 -1.421875 
Q 18.265625 -1.421875 13.375 4.4375 
Q 8.5 10.296875 8.5 21.578125 
z
M 31.109375 56 
z
" id="DejaVuSans-117"/>
      <path d="M 45.40625 27.984375 
Q 45.40625 37.75 41.375 43.109375 
Q 37.359375 48.484375 30.078125 48.484375 
Q 22.859375 48.484375 18.828125 43.109375 
Q 14.796875 37.75 14.796875 27.984375 
Q 14.796875 18.265625 18.828125 12.890625 
Q 22.859375 7.515625 30.078125 7.515625 
Q 37.359375 7.515625 41.375 12.890625 
Q 45.40625 18.265625 45.40625 27.984375 
z
M 54.390625 6.78125 
Q 54.390625 -7.171875 48.1875 -13.984375 
Q 42 -20.796875 29.203125 -20.796875 
Q 24.46875 -20.796875 20.265625 -20.09375 
Q 16.0625 -19.390625 12.109375 -17.921875 
L 12.109375 -9.1875 
Q 16.0625 -11.328125 19.921875 -12.34375 
Q 23.78125 -13.375 27.78125 -13.375 
Q 36.625 -13.375 41.015625 -8.765625 
Q 45.40625 -4.15625 45.40625 5.171875 
L 45.40625 9.625 
Q 42.625 4.78125 38.28125 2.390625 
Q 33.9375 0 27.875 0 
Q 17.828125 0 11.671875 7.65625 
Q 5.515625 15.328125 5.515625 27.984375 
Q 5.515625 40.671875 11.671875 48.328125 
Q 17.828125 56 27.875 56 
Q 33.9375 56 38.28125 53.609375 
Q 42.625 51.21875 45.40625 46.390625 
L 45.40625 54.6875 
L 54.390625 54.6875 
z
" id="DejaVuSans-103"/>
      <path d="M 18.109375 8.203125 
L 18.109375 -20.796875 
L 9.078125 -20.796875 
L 9.078125 54.6875 
L 18.109375 54.6875 
L 18.109375 46.390625 
Q 20.953125 51.265625 25.265625 53.625 
Q 29.59375 56 35.59375 56 
Q 45.5625 56 51.78125 48.09375 
Q 58.015625 40.1875 58.015625 27.296875 
Q 58.015625 14.40625 51.78125 6.484375 
Q 45.5625 -1.421875 35.59375 -1.421875 
Q 29.59375 -1.421875 25.265625 0.953125 
Q 20.953125 3.328125 18.109375 8.203125 
z
M 48.6875 27.296875 
Q 48.6875 37.203125 44.609375 42.84375 
Q 40.53125 48.484375 33.40625 48.484375 
Q 26.265625 48.484375 22.1875 42.84375 
Q 18.109375 37.203125 18.109375 27.296875 
Q 18.109375 17.390625 22.1875 11.75 
Q 26.265625 6.109375 33.40625 6.109375 
Q 40.53125 6.109375 44.609375 11.75 
Q 48.6875 17.390625 48.6875 27.296875 
z
" id="DejaVuSans-112"/>
     </defs>
     <g transform="translate(46.469844 221.675365)rotate(-90)scale(0.1 -0.1)">
      <use xlink:href="#DejaVuSans-116"/>
      <use x="39.208984" xlink:href="#DejaVuSans-104"/>
      <use x="102.587891" xlink:href="#DejaVuSans-114"/>
      <use x="143.669922" xlink:href="#DejaVuSans-111"/>
      <use x="204.851562" xlink:href="#DejaVuSans-117"/>
      <use x="268.230469" xlink:href="#DejaVuSans-103"/>
      <use x="331.707031" xlink:href="#DejaVuSans-104"/>
      <use x="395.085938" xlink:href="#DejaVuSans-112"/>
      <use x="458.5625" xlink:href="#DejaVuSans-117"/>
      <use x="521.941406" xlink:href="#DejaVuSans-116"/>
     </g>
     <!-- (mbit / second) -->
     <defs>
      <path d="M 31 75.875 
Q 24.46875 64.65625 21.28125 53.65625 
Q 18.109375 42.671875 18.109375 31.390625 
Q 18.109375 20.125 21.3125 9.0625 
Q 24.515625 -2 31 -13.1875 
L 23.1875 -13.1875 
Q 15.875 -1.703125 12.234375 9.375 
Q 8.59375 20.453125 8.59375 31.390625 
Q 8.59375 42.28125 12.203125 53.3125 
Q 15.828125 64.359375 23.1875 75.875 
z
" id="DejaVuSans-40"/>
      <path d="M 52 44.1875 
Q 55.375 50.25 60.0625 53.125 
Q 64.75 56 71.09375 56 
Q 79.640625 56 84.28125 50.015625 
Q 88.921875 44.046875 88.921875 33.015625 
L 88.921875 0 
L 79.890625 0 
L 79.890625 32.71875 
Q 79.890625 40.578125 77.09375 44.375 
Q 74.3125 48.1875 68.609375 48.1875 
Q 61.625 48.1875 57.5625 43.546875 
Q 53.515625 38.921875 53.515625 30.90625 
L 53.515625 0 
L 44.484375 0 
L 44.484375 32.71875 
Q 44.484375 40.625 41.703125 44.40625 
Q 38.921875 48.1875 33.109375 48.1875 
Q 26.21875 48.1875 22.15625 43.53125 
Q 18.109375 38.875 18.109375 30.90625 
L 18.109375 0 
L 9.078125 0 
L 9.078125 54.6875 
L 18.109375 54.6875 
L 18.109375 46.1875 
Q 21.1875 51.21875 25.484375 53.609375 
Q 29.78125 56 35.6875 56 
Q 41.65625 56 45.828125 52.96875 
Q 50 49.953125 52 44.1875 
z
" id="DejaVuSans-109"/>
      <path d="M 48.6875 27.296875 
Q 48.6875 37.203125 44.609375 42.84375 
Q 40.53125 48.484375 33.40625 48.484375 
Q 26.265625 48.484375 22.1875 42.84375 
Q 18.109375 37.203125 18.109375 27.296875 
Q 18.109375 17.390625 22.1875 11.75 
Q 26.265625 6.109375 33.40625 6.109375 
Q 40.53125 6.109375 44.609375 11.75 
Q 48.6875 17.390625 48.6875 27.296875 
z
M 18.109375 46.390625 
Q 20.953125 51.265625 25.265625 53.625 
Q 29.59375 56 35.59375 56 
Q 45.5625 56 51.78125 48.09375 
Q 58.015625 40.1875 58.015625 27.296875 
Q 58.015625 14.40625 51.78125 6.484375 
Q 45.5625 -1.421875 35.59375 -1.421875 
Q 29.59375 -1.421875 25.265625 0.953125 
Q 20.953125 3.328125 18.109375 8.203125 
L 18.109375 0 
L 9.078125 0 
L 9.078125 75.984375 
L 18.109375 75.984375 
z
" id="DejaVuSans-98"/>
      <path d="M 9.421875 54.6875 
L 18.40625 54.6875 
L 18.40625 0 
L 9.421875 0 
z
M 9.421875 75.984375 
L 18.40625 75.984375 
L 18.40625 64.59375 
L 9.421875 64.59375 
z
" id="DejaVuSans-105"/>
      <path id="DejaVuSans-32"/>
      <path d="M 25.390625 72.90625 
L 33.6875 72.90625 
L 8.296875 -9.28125 
L 0 -9.28125 
z
" id="DejaVuSans-47"/>
      <path d="M 44.28125 53.078125 
L 44.28125 44.578125 
Q 40.484375 46.53125 36.375 47.5 
Q 32.28125 48.484375 27.875 48.484375 
Q 21.1875 48.484375 17.84375 46.4375 
Q 14.5 44.390625 14.5 40.28125 
Q 14.5 37.15625 16.890625 35.375 
Q 19.28125 33.59375 26.515625 31.984375 
L 29.59375 31.296875 
Q 39.15625 29.25 43.1875 25.515625 
Q 47.21875 21.78125 47.21875 15.09375 
Q 47.21875 7.46875 41.1875 3.015625 
Q 35.15625 -1.421875 24.609375 -1.421875 
Q 20.21875 -1.421875 15.453125 -0.5625 
Q 10.6875 0.296875 5.421875 2 
L 5.421875 11.28125 
Q 10.40625 8.6875 15.234375 7.390625 
Q 20.0625 6.109375 24.8125 6.109375 
Q 31.15625 6.109375 34.5625 8.28125 
Q 37.984375 10.453125 37.984375 14.40625 
Q 37.984375 18.0625 35.515625 20.015625 
Q 33.0625 21.96875 24.703125 23.78125 
L 21.578125 24.515625 
Q 13.234375 26.265625 9.515625 29.90625 
Q 5.8125 33.546875 5.8125 39.890625 
Q 5.8125 47.609375 11.28125 51.796875 
Q 16.75 56 26.8125 56 
Q 31.78125 56 36.171875 55.265625 
Q 40.578125 54.546875 44.28125 53.078125 
z
" id="DejaVuSans-115"/>
      <path d="M 56.203125 29.59375 
L 56.203125 25.203125 
L 14.890625 25.203125 
Q 15.484375 15.921875 20.484375 11.0625 
Q 25.484375 6.203125 34.421875 6.203125 
Q 39.59375 6.203125 44.453125 7.46875 
Q 49.3125 8.734375 54.109375 11.28125 
L 54.109375 2.78125 
Q 49.265625 0.734375 44.1875 -0.34375 
Q 39.109375 -1.421875 33.890625 -1.421875 
Q 20.796875 -1.421875 13.15625 6.1875 
Q 5.515625 13.8125 5.515625 26.8125 
Q 5.515625 40.234375 12.765625 48.109375 
Q 20.015625 56 32.328125 56 
Q 43.359375 56 49.78125 48.890625 
Q 56.203125 41.796875 56.203125 29.59375 
z
M 47.21875 32.234375 
Q 47.125 39.59375 43.09375 43.984375 
Q 39.0625 48.390625 32.421875 48.390625 
Q 24.90625 48.390625 20.390625 44.140625 
Q 15.875 39.890625 15.1875 32.171875 
z
" id="DejaVuSans-101"/>
      <path d="M 48.78125 52.59375 
L 48.78125 44.1875 
Q 44.96875 46.296875 41.140625 47.34375 
Q 37.3125 48.390625 33.40625 48.390625 
Q 24.65625 48.390625 19.8125 42.84375 
Q 14.984375 37.3125 14.984375 27.296875 
Q 14.984375 17.28125 19.8125 11.734375 
Q 24.65625 6.203125 33.40625 6.203125 
Q 37.3125 6.203125 41.140625 7.25 
Q 44.96875 8.296875 48.78125 10.40625 
L 48.78125 2.09375 
Q 45.015625 0.34375 40.984375 -0.53125 
Q 36.96875 -1.421875 32.421875 -1.421875 
Q 20.0625 -1.421875 12.78125 6.34375 
Q 5.515625 14.109375 5.515625 27.296875 
Q 5.515625 40.671875 12.859375 48.328125 
Q 20.21875 56 33.015625 56 
Q 37.15625 56 41.109375 55.140625 
Q 45.0625 54.296875 48.78125 52.59375 
z
" id="DejaVuSans-99"/>
      <path d="M 54.890625 33.015625 
L 54.890625 0 
L 45.90625 0 
L 45.90625 32.71875 
Q 45.90625 40.484375 42.875 44.328125 
Q 39.84375 48.1875 33.796875 48.1875 
Q 26.515625 48.1875 22.3125 43.546875 
Q 18.109375 38.921875 18.109375 30.90625 
L 18.109375 0 
L 9.078125 0 
L 9.078125 54.6875 
L 18.109375 54.6875 
L 18.109375 46.1875 
Q 21.34375 51.125 25.703125 53.5625 
Q 30.078125 56 35.796875 56 
Q 45.21875 56 50.046875 50.171875 
Q 54.890625 44.34375 54.890625 33.015625 
z
" id="DejaVuSans-110"/>
      <path d="M 45.40625 46.390625 
L 45.40625 75.984375 
L 54.390625 75.984375 
L 54.390625 0 
L 45.40625 0 
L 45.40625 8.203125 
Q 42.578125 3.328125 38.25 0.953125 
Q 33.9375 -1.421875 27.875 -1.421875 
Q 17.96875 -1.421875 11.734375 6.484375 
Q 5.515625 14.40625 5.515625 27.296875 
Q 5.515625 40.1875 11.734375 48.09375 
Q 17.96875 56 27.875 56 
Q 33.9375 56 38.25 53.625 
Q 42.578125 51.265625 45.40625 46.390625 
z
M 14.796875 27.296875 
Q 14.796875 17.390625 18.875 11.75 
Q 22.953125 6.109375 30.078125 6.109375 
Q 37.203125 6.109375 41.296875 11.75 
Q 45.40625 17.390625 45.40625 27.296875 
Q 45.40625 37.203125 41.296875 42.84375 
Q 37.203125 48.484375 30.078125 48.484375 
Q 22.953125 48.484375 18.875 42.84375 
Q 14.796875 37.203125 14.796875 27.296875 
z
" id="DejaVuSans-100"/>
      <path d="M 8.015625 75.875 
L 15.828125 75.875 
Q 23.140625 64.359375 26.78125 53.3125 
Q 30.421875 42.28125 30.421875 31.390625 
Q 30.421875 20.453125 26.78125 9.375 
Q 23.140625 -1.703125 15.828125 -13.1875 
L 8.015625 -13.1875 
Q 14.5 -2 17.703125 9.0625 
Q 20.90625 20.125 20.90625 31.390625 
Q 20.90625 42.671875 17.703125 53.65625 
Q 14.5 64.65625 8.015625 75.875 
z
" id="DejaVuSans-41"/>
     </defs>
     <g transform="translate(57.667656 231.608958)rotate(-90)scale(0.1 -0.1)">
      <use xlink:href="#DejaVuSans-40"/>
      <use x="39.013672" xlink:href="#DejaVuSans-109"/>
      <use x="136.425781" xlink:href="#DejaVuSans-98"/>
      <use x="199.902344" xlink:href="#DejaVuSans-105"/>
      <use x="227.685547" xlink:href="#DejaVuSans-116"/>
      <use x="266.894531" xlink:href="#DejaVuSans-32"/>
      <use x="298.681641" xlink:href="#DejaVuSans-47"/>
      <use x="332.373047" xlink:href="#DejaVuSans-32"/>
      <use x="364.160156" xlink:href="#DejaVuSans-115"/>
      <use x="416.259766" xlink:href="#DejaVuSans-101"/>
      <use x="477.783203" xlink:href="#DejaVuSans-99"/>
      <use x="532.763672" xlink:href="#DejaVuSans-111"/>
      <use x="593.945312" xlink:href="#DejaVuSans-110"/>
      <use x="657.324219" xlink:href="#DejaVuSans-100"/>
      <use x="720.800781" xlink:href="#DejaVuSans-41"/>
     </g>
    </g>
   </g>
   <g id="line2d_16">
    <path clip-path="url(#p8a8dbd3689)" d="M 106.655866 214.54885 
L 107.392555 183.965447 
L 108.129244 176.319596 
L 108.865933 176.319596 
L 109.602621 172.49667 
L 110.33931 172.49667 
L 111.075999 161.027894 
L 111.812688 161.027894 
L 112.549377 187.788372 
L 113.286065 168.673745 
L 114.759443 153.382043 
L 115.496132 164.850819 
L 116.23282 168.673745 
L 116.969509 164.850819 
L 117.706198 153.382043 
L 118.442887 130.44449 
L 119.916264 153.382043 
L 120.652953 176.319596 
L 121.389642 187.788372 
L 122.86302 203.080074 
L 123.599708 187.788372 
L 124.336397 191.611297 
L 125.073086 199.257148 
L 125.809775 203.080074 
L 126.546464 195.434223 
L 127.283152 195.434223 
L 128.019841 191.611297 
L 128.75653 191.611297 
L 129.493219 187.788372 
L 130.229907 180.142521 
L 130.966596 176.319596 
L 132.439974 176.319596 
L 133.176663 268.069807 
L 133.913351 264.246881 
L 134.65004 268.069807 
L 136.123418 283.361508 
L 136.860107 283.361508 
L 137.596795 287.184434 
L 138.333484 287.184434 
L 139.070173 291.007359 
L 140.54355 291.007359 
L 141.280239 287.184434 
L 142.016928 291.007359 
L 144.226994 291.007359 
L 144.963683 287.184434 
L 145.700372 287.184434 
L 147.17375 294.830285 
L 147.910438 302.476136 
L 148.647127 298.65321 
L 149.383816 252.778105 
L 150.120505 229.840552 
L 150.857194 222.194701 
L 151.593882 222.194701 
L 152.330571 218.371776 
L 154.540637 241.309328 
L 156.014015 241.309328 
L 156.750704 237.486403 
L 158.224081 222.194701 
L 158.96077 218.371776 
L 160.434148 218.371776 
L 161.907525 233.663477 
L 162.644214 237.486403 
L 163.380903 218.371776 
L 164.117592 218.371776 
L 164.85428 226.017627 
L 165.590969 218.371776 
L 166.327658 271.892732 
L 167.064347 187.788372 
L 169.274413 256.60103 
L 170.011102 275.715658 
L 170.747791 291.007359 
L 172.957857 291.007359 
L 174.431235 298.65321 
L 175.167924 298.65321 
L 175.904612 294.830285 
L 176.641301 302.476136 
L 177.37799 298.65321 
L 178.114679 298.65321 
L 178.851367 302.476136 
L 179.588056 302.476136 
L 180.324745 306.299061 
L 181.061434 302.476136 
L 181.798123 317.767838 
L 183.2715 245.132254 
L 184.008189 226.017627 
L 184.744878 218.371776 
L 185.481567 229.840552 
L 186.218255 233.663477 
L 186.954944 226.017627 
L 187.691633 229.840552 
L 188.428322 222.194701 
L 189.16501 199.257148 
L 189.901699 180.142521 
L 190.638388 172.49667 
L 191.375077 172.49667 
L 192.111766 161.027894 
L 192.848454 164.850819 
L 193.585143 153.382043 
L 195.058521 145.736192 
L 195.79521 157.204968 
L 196.531898 164.850819 
L 197.268587 161.027894 
L 198.005276 164.850819 
L 198.741965 195.434223 
L 199.478654 306.299061 
L 200.215342 245.132254 
L 200.952031 245.132254 
L 201.68872 260.423956 
L 202.425409 271.892732 
L 203.162097 279.538583 
L 203.898786 291.007359 
L 204.635475 294.830285 
L 205.372164 291.007359 
L 206.108853 294.830285 
L 206.845541 291.007359 
L 208.318919 298.65321 
L 210.528985 298.65321 
L 211.265674 302.476136 
L 212.739052 302.476136 
L 213.47574 298.65321 
L 214.212429 313.944912 
L 214.949118 298.65321 
L 216.422496 248.955179 
L 217.159184 233.663477 
L 217.895873 229.840552 
L 218.632562 214.54885 
L 219.369251 210.725925 
L 220.10594 222.194701 
L 221.579317 229.840552 
L 222.316006 226.017627 
L 223.052695 218.371776 
L 223.789384 218.371776 
L 224.526072 214.54885 
L 225.262761 218.371776 
L 229.682894 218.371776 
L 230.419583 233.663477 
L 231.156271 310.121987 
L 231.89296 264.246881 
L 232.629649 260.423956 
L 233.366338 271.892732 
L 234.839715 279.538583 
L 235.576404 271.892732 
L 236.313093 271.892732 
L 237.049782 275.715658 
L 238.523159 275.715658 
L 239.259848 279.538583 
L 239.996537 279.538583 
L 240.733226 283.361508 
L 241.469914 279.538583 
L 242.206603 279.538583 
L 242.943292 275.715658 
L 243.679981 275.715658 
L 244.41667 279.538583 
L 245.153358 279.538583 
L 245.890047 306.299061 
L 246.626736 268.069807 
L 247.363425 237.486403 
L 248.100114 214.54885 
L 248.836802 195.434223 
L 250.31018 164.850819 
L 251.046869 141.913267 
L 251.783557 138.090341 
L 253.256935 122.798639 
L 253.993624 122.798639 
L 254.730313 115.152788 
L 255.467001 118.975714 
L 256.20369 107.506937 
L 256.940379 103.684012 
L 257.677068 107.506937 
L 258.413757 118.975714 
L 259.150445 115.152788 
L 259.887134 118.975714 
L 260.623823 103.684012 
L 261.360512 126.621565 
L 262.0972 134.267416 
L 264.307267 168.673745 
L 265.043956 172.49667 
L 265.780644 172.49667 
L 266.517333 180.142521 
L 267.254022 287.184434 
L 267.990711 268.069807 
L 269.464088 291.007359 
L 270.200777 298.65321 
L 278.304354 298.65321 
L 279.041043 302.476136 
L 279.777731 298.65321 
L 280.51442 298.65321 
L 281.251109 302.476136 
L 281.987798 313.944912 
L 282.724487 287.184434 
L 283.461175 287.184434 
L 284.197864 291.007359 
L 285.671242 291.007359 
L 286.40793 287.184434 
L 287.144619 291.007359 
L 288.617997 291.007359 
L 289.354686 287.184434 
L 290.091374 291.007359 
L 291.564752 291.007359 
L 293.03813 283.361508 
L 293.774818 287.184434 
L 294.511507 287.184434 
L 295.248196 291.007359 
L 295.984885 287.184434 
L 296.721574 279.538583 
L 297.458262 310.121987 
L 298.194951 252.778105 
L 298.93164 229.840552 
L 299.668329 210.725925 
L 300.405017 199.257148 
L 301.878395 214.54885 
L 302.615084 203.080074 
L 303.351773 210.725925 
L 304.088461 199.257148 
L 304.82515 210.725925 
L 305.561839 218.371776 
L 306.298528 222.194701 
L 307.035217 214.54885 
L 307.771905 237.486403 
L 308.508594 241.309328 
L 309.981972 241.309328 
L 311.455349 248.955179 
L 312.192038 164.850819 
L 312.928727 164.850819 
L 314.402104 203.080074 
L 315.138793 218.371776 
L 316.612171 241.309328 
L 318.085548 256.60103 
L 320.295615 268.069807 
L 321.032304 268.069807 
L 321.768992 271.892732 
L 322.505681 271.892732 
L 323.24237 275.715658 
L 324.715747 275.715658 
L 325.452436 268.069807 
L 326.189125 268.069807 
L 326.925814 310.121987 
L 327.662503 245.132254 
L 328.399191 214.54885 
L 329.13588 195.434223 
L 329.872569 191.611297 
L 330.609258 199.257148 
L 331.345947 214.54885 
L 332.082635 222.194701 
L 333.556013 245.132254 
L 334.292702 245.132254 
L 335.02939 256.60103 
L 335.766079 264.246881 
L 337.239457 271.892732 
L 337.976146 264.246881 
L 338.712834 264.246881 
L 340.186212 256.60103 
L 340.922901 268.069807 
L 341.65959 271.892732 
L 342.396278 336.882465 
L 343.132967 256.60103 
L 344.606345 199.257148 
L 345.343034 191.611297 
L 346.079722 187.788372 
L 346.816411 172.49667 
L 347.5531 161.027894 
L 348.289789 161.027894 
L 349.026477 164.850819 
L 349.763166 172.49667 
L 351.236544 180.142521 
L 352.709921 164.850819 
L 353.44661 161.027894 
L 354.919988 168.673745 
L 355.656677 176.319596 
L 356.393365 176.319596 
L 357.130054 126.621565 
L 357.866743 145.736192 
L 358.603432 161.027894 
L 359.34012 172.49667 
L 360.813498 180.142521 
L 361.550187 195.434223 
L 362.286876 214.54885 
L 363.023564 222.194701 
L 363.760253 222.194701 
L 364.496942 226.017627 
L 365.233631 233.663477 
L 366.707008 241.309328 
L 367.443697 233.663477 
L 368.180386 229.840552 
L 369.653764 237.486403 
L 370.390452 233.663477 
L 371.127141 233.663477 
L 371.86383 283.361508 
L 372.600519 237.486403 
L 373.337207 241.309328 
L 374.810585 241.309328 
L 375.547274 233.663477 
L 376.283963 229.840552 
L 377.020651 229.840552 
L 377.75734 226.017627 
L 378.494029 226.017627 
L 379.230718 229.840552 
L 380.704095 229.840552 
L 381.440784 233.663477 
L 382.177473 229.840552 
L 382.914162 229.840552 
L 383.65085 237.486403 
L 385.124228 245.132254 
L 385.860917 245.132254 
L 386.597606 275.715658 
L 387.334294 252.778105 
L 388.070983 245.132254 
L 388.807672 256.60103 
L 389.544361 271.892732 
L 390.28105 268.069807 
L 391.017738 275.715658 
L 392.491116 283.361508 
L 393.964494 283.361508 
L 394.701182 279.538583 
L 396.17456 287.184434 
L 397.647937 287.184434 
L 398.384626 279.538583 
L 399.121315 283.361508 
L 399.858004 283.361508 
L 400.594693 279.538583 
L 401.331381 283.361508 
L 402.06807 310.121987 
L 402.804759 264.246881 
L 404.278137 241.309328 
L 405.751514 226.017627 
L 407.96158 237.486403 
L 408.698269 245.132254 
L 410.171647 237.486403 
L 410.908336 237.486403 
L 411.645024 245.132254 
L 412.381713 241.309328 
L 413.118402 245.132254 
L 413.855091 237.486403 
L 415.328468 229.840552 
L 416.065157 229.840552 
L 416.801846 264.246881 
L 417.538535 279.538583 
L 418.275224 256.60103 
L 419.011912 271.892732 
L 419.748601 275.715658 
L 420.48529 283.361508 
L 421.958667 283.361508 
L 422.695356 287.184434 
L 423.432045 287.184434 
L 424.168734 283.361508 
L 424.905423 283.361508 
L 425.642111 287.184434 
L 426.3788 283.361508 
L 427.115489 287.184434 
L 429.325555 287.184434 
L 430.062244 291.007359 
L 430.798933 291.007359 
L 431.535622 279.538583 
L 432.27231 306.299061 
L 433.008999 275.715658 
L 433.745688 283.361508 
L 434.482377 283.361508 
L 435.219066 287.184434 
L 435.955754 279.538583 
L 436.692443 283.361508 
L 437.429132 279.538583 
L 438.90251 287.184434 
L 440.375887 287.184434 
L 441.112576 291.007359 
L 441.849265 287.184434 
L 442.585954 291.007359 
L 443.322642 275.715658 
L 444.059331 279.538583 
L 444.79602 279.538583 
L 445.532709 275.715658 
L 446.269397 283.361508 
L 447.006086 302.476136 
L 447.742775 283.361508 
L 449.216153 229.840552 
L 449.952841 218.371776 
L 450.68953 210.725925 
L 451.426219 206.902999 
L 452.162908 206.902999 
L 452.899597 222.194701 
L 453.636285 206.902999 
L 455.109663 199.257148 
L 455.846352 203.080074 
L 456.58304 203.080074 
L 457.319729 206.902999 
L 458.056418 203.080074 
L 458.793107 195.434223 
L 460.266484 203.080074 
L 461.003173 199.257148 
L 461.739862 172.49667 
L 462.476551 138.090341 
L 463.21324 153.382043 
L 463.949928 164.850819 
L 464.686617 183.965447 
L 465.423306 199.257148 
L 466.159995 210.725925 
L 466.896684 214.54885 
L 467.633372 222.194701 
L 468.370061 233.663477 
L 469.10675 241.309328 
L 469.843439 233.663477 
L 470.580127 241.309328 
L 471.316816 241.309328 
L 472.053505 248.955179 
L 473.526883 241.309328 
L 475.736949 252.778105 
L 476.473638 264.246881 
L 477.210327 291.007359 
L 477.947015 245.132254 
L 478.683704 241.309328 
L 480.157082 241.309328 
L 480.89377 237.486403 
L 481.630459 237.486403 
L 482.367148 233.663477 
L 483.103837 226.017627 
L 484.577214 241.309328 
L 485.313903 241.309328 
L 486.050592 233.663477 
L 486.787281 245.132254 
L 487.52397 245.132254 
L 488.260658 233.663477 
L 488.997347 237.486403 
L 489.734036 237.486403 
L 490.470725 245.132254 
L 491.207414 237.486403 
L 491.944102 291.007359 
L 492.680791 271.892732 
L 494.890857 283.361508 
L 497.100924 283.361508 
L 497.837613 287.184434 
L 499.31099 287.184434 
L 500.047679 291.007359 
L 501.521057 291.007359 
L 502.257745 287.184434 
L 503.731123 287.184434 
L 504.467812 291.007359 
L 504.467812 291.007359 
" style="fill:none;stroke:#1f77b4;stroke-linecap:square;stroke-width:1.5;"/>
   </g>
   <g id="line2d_17">
    <path clip-path="url(#p8a8dbd3689)" d="M 109.590834 336.882465 
L 111.064212 336.882465 
L 111.800901 340.70539 
L 112.53759 340.70539 
L 113.274278 336.882465 
L 116.221033 336.882465 
L 116.957722 329.236614 
L 117.694411 340.70539 
L 118.4311 336.882465 
L 119.167789 344.528316 
L 119.904477 344.528316 
L 121.377855 336.882465 
L 122.114544 329.236614 
L 122.851233 317.767838 
L 123.587921 329.236614 
L 124.32461 333.059539 
L 125.061299 333.059539 
L 125.797988 325.413688 
L 126.534676 333.059539 
L 127.271365 336.882465 
L 128.008054 336.882465 
L 129.481432 329.236614 
L 130.21812 333.059539 
L 130.954809 340.70539 
L 131.691498 344.528316 
L 132.428187 344.528316 
L 133.164876 329.236614 
L 133.901564 336.882465 
L 134.638253 333.059539 
L 135.374942 317.767838 
L 136.111631 310.121987 
L 136.84832 310.121987 
L 137.585008 294.830285 
L 138.321697 298.65321 
L 139.058386 306.299061 
L 139.795075 294.830285 
L 140.531763 279.538583 
L 141.268452 279.538583 
L 142.005141 283.361508 
L 142.74183 294.830285 
L 143.478519 294.830285 
L 144.215207 279.538583 
L 144.951896 283.361508 
L 145.688585 279.538583 
L 147.161963 248.955179 
L 147.898651 206.902999 
L 148.63534 248.955179 
L 149.372029 302.476136 
L 150.108718 336.882465 
L 150.845406 344.528316 
L 151.582095 340.70539 
L 153.792162 352.174167 
L 154.52885 348.351241 
L 158.948983 348.351241 
L 159.685672 352.174167 
L 160.422361 348.351241 
L 163.369116 348.351241 
L 164.105805 352.174167 
L 164.842493 344.528316 
L 166.315871 344.528316 
L 167.05256 340.70539 
L 167.789249 333.059539 
L 169.999315 287.184434 
L 170.736004 275.715658 
L 171.472693 275.715658 
L 172.209381 271.892732 
L 172.94607 275.715658 
L 173.682759 271.892732 
L 174.419448 252.778105 
L 175.156136 252.778105 
L 175.892825 260.423956 
L 176.629514 245.132254 
L 177.366203 245.132254 
L 178.102892 256.60103 
L 179.576269 226.017627 
L 180.312958 214.54885 
L 181.049647 237.486403 
L 181.786336 218.371776 
L 182.523024 271.892732 
L 183.259713 306.299061 
L 183.996402 329.236614 
L 184.733091 348.351241 
L 185.46978 344.528316 
L 186.206468 352.174167 
L 186.943157 352.174167 
L 187.679846 348.351241 
L 189.153223 348.351241 
L 189.889912 352.174167 
L 192.099979 352.174167 
L 192.836667 348.351241 
L 193.573356 352.174167 
L 194.310045 348.351241 
L 195.046734 352.174167 
L 195.783423 348.351241 
L 197.993489 348.351241 
L 198.730178 352.174167 
L 199.466866 344.528316 
L 200.203555 340.70539 
L 200.940244 329.236614 
L 201.676933 310.121987 
L 203.15031 279.538583 
L 203.886999 268.069807 
L 204.623688 260.423956 
L 205.360377 268.069807 
L 206.097066 260.423956 
L 206.833754 268.069807 
L 207.570443 264.246881 
L 208.307132 275.715658 
L 209.043821 260.423956 
L 210.517198 275.715658 
L 211.253887 279.538583 
L 211.990576 264.246881 
L 212.727265 275.715658 
L 213.463953 264.246881 
L 214.200642 241.309328 
L 214.937331 268.069807 
L 215.67402 302.476136 
L 216.410709 329.236614 
L 217.147397 348.351241 
L 217.884086 348.351241 
L 218.620775 352.174167 
L 230.407796 352.174167 
L 231.144484 348.351241 
L 231.881173 352.174167 
L 232.617862 344.528316 
L 233.354551 333.059539 
L 234.827928 325.413688 
L 235.564617 313.944912 
L 236.301306 306.299061 
L 238.511372 317.767838 
L 239.248061 313.944912 
L 239.98475 321.590763 
L 240.721439 325.413688 
L 241.458127 313.944912 
L 242.194816 298.65321 
L 243.668194 291.007359 
L 244.404883 298.65321 
L 245.141571 287.184434 
L 245.87826 271.892732 
L 246.614949 310.121987 
L 247.351638 329.236614 
L 248.825015 344.528316 
L 249.561704 348.351241 
L 250.298393 348.351241 
L 251.035082 352.174167 
L 251.77177 352.174167 
L 252.508459 348.351241 
L 253.245148 352.174167 
L 253.981837 348.351241 
L 254.718526 348.351241 
L 255.455214 352.174167 
L 259.875347 352.174167 
L 260.612036 344.528316 
L 261.348725 344.528316 
L 262.822102 352.174167 
L 266.505546 352.174167 
L 267.978924 344.528316 
L 268.715613 333.059539 
L 269.452301 317.767838 
L 270.18899 306.299061 
L 271.662368 313.944912 
L 272.399056 313.944912 
L 273.135745 302.476136 
L 273.872434 306.299061 
L 274.609123 291.007359 
L 275.345812 291.007359 
L 276.819189 313.944912 
L 277.555878 317.767838 
L 278.292567 317.767838 
L 279.029256 313.944912 
L 279.765944 313.944912 
L 280.502633 302.476136 
L 281.239322 317.767838 
L 281.976011 275.715658 
L 282.7127 302.476136 
L 284.186077 287.184434 
L 284.922766 291.007359 
L 285.659455 298.65321 
L 287.132832 291.007359 
L 287.869521 271.892732 
L 288.60621 268.069807 
L 289.342899 271.892732 
L 290.079587 283.361508 
L 290.816276 291.007359 
L 292.289654 275.715658 
L 293.026343 279.538583 
L 293.763031 264.246881 
L 294.49972 271.892732 
L 295.236409 268.069807 
L 295.973098 260.423956 
L 296.709786 260.423956 
L 297.446475 248.955179 
L 298.183164 298.65321 
L 298.919853 317.767838 
L 299.656542 340.70539 
L 300.39323 348.351241 
L 301.129919 348.351241 
L 301.866608 344.528316 
L 302.603297 348.351241 
L 303.339986 348.351241 
L 304.076674 352.174167 
L 305.550052 352.174167 
L 306.286741 348.351241 
L 309.233496 348.351241 
L 309.970185 352.174167 
L 310.706873 352.174167 
L 311.443562 348.351241 
L 312.180251 340.70539 
L 312.91694 344.528316 
L 313.653629 336.882465 
L 314.390317 317.767838 
L 315.127006 306.299061 
L 315.863695 291.007359 
L 316.600384 291.007359 
L 317.337073 287.184434 
L 318.073761 271.892732 
L 318.81045 283.361508 
L 319.547139 271.892732 
L 320.283828 256.60103 
L 321.020516 264.246881 
L 321.757205 275.715658 
L 322.493894 291.007359 
L 323.230583 291.007359 
L 323.967272 275.715658 
L 324.70396 264.246881 
L 326.177338 287.184434 
L 326.914027 279.538583 
L 328.387404 336.882465 
L 329.124093 344.528316 
L 330.597471 352.174167 
L 331.33416 348.351241 
L 332.070848 352.174167 
L 333.544226 344.528316 
L 334.280915 348.351241 
L 335.017603 348.351241 
L 335.754292 352.174167 
L 336.490981 352.174167 
L 337.22767 348.351241 
L 337.964359 352.174167 
L 341.647803 352.174167 
L 342.384491 344.528316 
L 343.12118 348.351241 
L 344.594558 348.351241 
L 345.331246 340.70539 
L 346.067935 336.882465 
L 346.804624 340.70539 
L 347.541313 340.70539 
L 349.01469 348.351241 
L 349.751379 348.351241 
L 350.488068 344.528316 
L 351.224757 344.528316 
L 352.698134 336.882465 
L 353.434823 340.70539 
L 354.171512 336.882465 
L 354.908201 340.70539 
L 357.118267 340.70539 
L 357.854956 348.351241 
L 358.591645 333.059539 
L 360.801711 333.059539 
L 361.5384 336.882465 
L 362.275089 329.236614 
L 363.011777 310.121987 
L 363.748466 306.299061 
L 364.485155 317.767838 
L 365.221844 306.299061 
L 366.695221 275.715658 
L 367.43191 283.361508 
L 368.168599 298.65321 
L 368.905288 283.361508 
L 369.641976 275.715658 
L 370.378665 287.184434 
L 371.115354 294.830285 
L 371.852043 248.955179 
L 372.588732 298.65321 
L 373.32542 302.476136 
L 374.062109 291.007359 
L 375.535487 313.944912 
L 376.272176 313.944912 
L 378.482242 325.413688 
L 379.218931 313.944912 
L 379.95562 313.944912 
L 380.692308 325.413688 
L 381.428997 321.590763 
L 382.165686 325.413688 
L 382.902375 325.413688 
L 383.639063 321.590763 
L 384.375752 321.590763 
L 385.112441 313.944912 
L 385.84913 313.944912 
L 386.585819 306.299061 
L 387.322507 283.361508 
L 388.059196 298.65321 
L 388.795885 283.361508 
L 389.532574 271.892732 
L 391.005951 271.892732 
L 391.74264 279.538583 
L 392.479329 283.361508 
L 393.216018 283.361508 
L 393.952706 275.715658 
L 395.426084 283.361508 
L 396.162773 279.538583 
L 396.899462 271.892732 
L 397.63615 283.361508 
L 398.372839 283.361508 
L 399.109528 275.715658 
L 399.846217 260.423956 
L 400.582906 268.069807 
L 401.319594 264.246881 
L 402.056283 222.194701 
L 402.792972 271.892732 
L 404.26635 329.236614 
L 405.003038 344.528316 
L 405.739727 348.351241 
L 406.476416 348.351241 
L 407.213105 352.174167 
L 408.686482 344.528316 
L 410.15986 352.174167 
L 416.790059 352.174167 
L 417.526748 344.528316 
L 418.263436 344.528316 
L 419.000125 329.236614 
L 419.736814 329.236614 
L 420.473503 317.767838 
L 421.210192 329.236614 
L 421.94688 313.944912 
L 422.683569 302.476136 
L 423.420258 313.944912 
L 424.156947 310.121987 
L 424.893636 313.944912 
L 426.367013 313.944912 
L 427.103702 310.121987 
L 427.840391 317.767838 
L 428.57708 306.299061 
L 430.050457 275.715658 
L 430.787146 279.538583 
L 431.523835 271.892732 
L 432.260523 256.60103 
L 432.997212 291.007359 
L 433.733901 275.715658 
L 434.47059 287.184434 
L 435.207279 279.538583 
L 435.943967 283.361508 
L 436.680656 275.715658 
L 437.417345 279.538583 
L 438.154034 271.892732 
L 438.890723 260.423956 
L 439.627411 271.892732 
L 441.100789 241.309328 
L 441.837478 256.60103 
L 442.574166 268.069807 
L 443.310855 287.184434 
L 444.784233 294.830285 
L 445.520922 294.830285 
L 446.25761 283.361508 
L 446.994299 248.955179 
L 448.467677 313.944912 
L 449.204366 333.059539 
L 449.941054 344.528316 
L 450.677743 348.351241 
L 451.414432 348.351241 
L 452.151121 344.528316 
L 453.624498 352.174167 
L 454.361187 348.351241 
L 455.097876 348.351241 
L 455.834565 352.174167 
L 456.571253 352.174167 
L 457.307942 348.351241 
L 458.044631 352.174167 
L 459.518009 352.174167 
L 460.254697 348.351241 
L 460.991386 352.174167 
L 461.728075 348.351241 
L 463.201453 348.351241 
L 465.411519 325.413688 
L 466.148208 310.121987 
L 466.884896 313.944912 
L 468.358274 283.361508 
L 469.094963 271.892732 
L 469.831652 279.538583 
L 470.56834 283.361508 
L 471.305029 294.830285 
L 472.041718 287.184434 
L 472.778407 283.361508 
L 473.515096 291.007359 
L 474.251784 302.476136 
L 474.988473 298.65321 
L 475.725162 291.007359 
L 476.461851 294.830285 
L 477.19854 271.892732 
L 477.935228 306.299061 
L 478.671917 306.299061 
L 479.408606 302.476136 
L 480.145295 313.944912 
L 480.881983 317.767838 
L 481.618672 317.767838 
L 482.355361 321.590763 
L 483.09205 333.059539 
L 483.828739 329.236614 
L 484.565427 317.767838 
L 486.038805 333.059539 
L 486.775494 317.767838 
L 487.512183 317.767838 
L 488.248871 329.236614 
L 488.98556 336.882465 
L 489.722249 333.059539 
L 490.458938 333.059539 
L 491.195626 340.70539 
L 491.932315 329.236614 
L 492.669004 340.70539 
L 493.405693 333.059539 
L 494.142382 317.767838 
L 495.615759 294.830285 
L 496.352448 294.830285 
L 497.089137 298.65321 
L 497.825826 306.299061 
L 498.562514 294.830285 
L 499.299203 279.538583 
L 500.035892 268.069807 
L 500.772581 252.778105 
L 501.50927 271.892732 
L 502.245958 287.184434 
L 502.982647 298.65321 
L 503.719336 302.476136 
L 504.456025 294.830285 
L 505.192713 306.299061 
L 505.929402 302.476136 
L 506.666091 287.184434 
L 506.666091 287.184434 
" style="fill:none;stroke:#ff7f0e;stroke-linecap:square;stroke-width:1.5;"/>
   </g>
   <g id="line2d_18">
    <path clip-path="url(#p8a8dbd3689)" d="M 103.765099 69.277683 
L 104.501788 50.163056 
L 105.238477 50.163056 
L 105.975166 53.985981 
L 106.711855 206.902999 
L 107.448543 218.371776 
L 108.185232 226.017627 
L 108.921921 229.840552 
L 109.65861 248.955179 
L 110.395299 248.955179 
L 111.131987 260.423956 
L 111.868676 256.60103 
L 112.605365 275.715658 
L 114.078742 275.715658 
L 114.815431 279.538583 
L 115.55212 275.715658 
L 117.762186 275.715658 
L 118.498875 313.944912 
L 119.235564 283.361508 
L 119.972253 279.538583 
L 120.708942 268.069807 
L 121.44563 252.778105 
L 122.182319 248.955179 
L 122.919008 252.778105 
L 123.655697 252.778105 
L 125.129074 245.132254 
L 125.865763 248.955179 
L 128.075829 248.955179 
L 128.812518 252.778105 
L 129.549207 260.423956 
L 130.285896 256.60103 
L 131.022585 256.60103 
L 131.759273 264.246881 
L 132.495962 264.246881 
L 133.232651 206.902999 
L 133.96934 176.319596 
L 134.706029 180.142521 
L 135.442717 199.257148 
L 136.179406 214.54885 
L 136.916095 214.54885 
L 138.389472 222.194701 
L 139.126161 229.840552 
L 139.86285 241.309328 
L 140.599539 245.132254 
L 141.336228 237.486403 
L 142.809605 245.132254 
L 144.282983 245.132254 
L 145.019672 252.778105 
L 145.75636 248.955179 
L 146.493049 252.778105 
L 147.229738 260.423956 
L 147.966427 302.476136 
L 148.703115 252.778105 
L 149.439804 233.663477 
L 150.176493 218.371776 
L 150.913182 206.902999 
L 151.649871 206.902999 
L 152.386559 203.080074 
L 153.123248 183.965447 
L 153.859937 180.142521 
L 154.596626 172.49667 
L 155.333315 172.49667 
L 156.806692 180.142521 
L 157.543381 191.611297 
L 159.016759 199.257148 
L 159.753447 195.434223 
L 160.490136 199.257148 
L 161.226825 183.965447 
L 161.963514 180.142521 
L 162.700202 183.965447 
L 163.436891 195.434223 
L 164.17358 191.611297 
L 164.910269 199.257148 
L 165.646958 199.257148 
L 166.383646 287.184434 
L 167.120335 245.132254 
L 167.857024 245.132254 
L 169.330402 260.423956 
L 170.803779 283.361508 
L 171.540468 275.715658 
L 172.277157 283.361508 
L 173.013845 275.715658 
L 174.487223 283.361508 
L 175.223912 283.361508 
L 175.960601 279.538583 
L 176.697289 287.184434 
L 178.170667 287.184434 
L 178.907356 291.007359 
L 179.644045 291.007359 
L 180.380733 294.830285 
L 181.117422 291.007359 
L 181.854111 313.944912 
L 182.5908 264.246881 
L 184.064177 218.371776 
L 185.537555 187.788372 
L 186.274244 176.319596 
L 187.010932 183.965447 
L 187.747621 187.788372 
L 188.48431 195.434223 
L 189.220999 218.371776 
L 189.957688 226.017627 
L 190.694376 241.309328 
L 191.431065 241.309328 
L 192.167754 248.955179 
L 192.904443 248.955179 
L 193.641132 260.423956 
L 194.37782 264.246881 
L 195.114509 264.246881 
L 195.851198 256.60103 
L 196.587887 252.778105 
L 197.324575 252.778105 
L 198.061264 248.955179 
L 198.797953 271.892732 
L 200.271331 191.611297 
L 201.008019 210.725925 
L 201.744708 233.663477 
L 203.218086 271.892732 
L 203.954775 287.184434 
L 204.691463 294.830285 
L 205.428152 287.184434 
L 206.164841 294.830285 
L 206.90153 287.184434 
L 207.638219 294.830285 
L 208.374907 298.65321 
L 209.848285 298.65321 
L 210.584974 302.476136 
L 211.321662 298.65321 
L 213.531729 298.65321 
L 214.268418 321.590763 
L 216.478484 206.902999 
L 217.215173 183.965447 
L 218.68855 199.257148 
L 219.425239 199.257148 
L 220.161928 191.611297 
L 220.898617 187.788372 
L 221.635305 180.142521 
L 222.371994 183.965447 
L 223.108683 191.611297 
L 223.845372 195.434223 
L 224.582061 195.434223 
L 225.318749 191.611297 
L 229.738882 191.611297 
L 230.475571 176.319596 
L 231.21226 111.329863 
L 231.948949 149.559117 
L 232.685637 164.850819 
L 233.422326 183.965447 
L 234.159015 195.434223 
L 235.632392 226.017627 
L 236.369081 229.840552 
L 237.10577 229.840552 
L 237.842459 237.486403 
L 238.579148 233.663477 
L 239.315836 237.486403 
L 240.789214 252.778105 
L 241.525903 252.778105 
L 242.262592 256.60103 
L 242.99928 256.60103 
L 243.735969 260.423956 
L 244.472658 260.423956 
L 245.209347 264.246881 
L 245.946035 294.830285 
L 246.682724 237.486403 
L 247.419413 226.017627 
L 248.156102 226.017627 
L 248.892791 229.840552 
L 249.629479 237.486403 
L 250.366168 252.778105 
L 251.102857 271.892732 
L 251.839546 275.715658 
L 252.576235 287.184434 
L 253.312923 291.007359 
L 254.049612 287.184434 
L 254.786301 298.65321 
L 255.52299 294.830285 
L 256.259679 302.476136 
L 256.996367 306.299061 
L 258.469745 291.007359 
L 259.206434 298.65321 
L 259.943122 291.007359 
L 260.679811 321.590763 
L 261.4165 287.184434 
L 262.153189 275.715658 
L 262.889878 268.069807 
L 263.626566 248.955179 
L 264.363255 241.309328 
L 265.099944 241.309328 
L 265.836633 237.486403 
L 266.573322 229.840552 
L 267.31001 130.44449 
L 268.046699 153.382043 
L 268.783388 164.850819 
L 269.520077 172.49667 
L 270.256765 183.965447 
L 270.993454 180.142521 
L 272.466832 195.434223 
L 273.203521 206.902999 
L 274.676898 214.54885 
L 275.413587 206.902999 
L 276.150276 206.902999 
L 276.886965 210.725925 
L 277.623653 210.725925 
L 278.360342 199.257148 
L 279.097031 203.080074 
L 280.570409 203.080074 
L 281.307097 206.902999 
L 282.043786 271.892732 
L 282.780475 226.017627 
L 284.253852 264.246881 
L 284.990541 275.715658 
L 285.72723 283.361508 
L 286.463919 275.715658 
L 287.200608 283.361508 
L 287.937296 287.184434 
L 288.673985 287.184434 
L 289.410674 283.361508 
L 290.884052 291.007359 
L 291.62074 287.184434 
L 292.357429 287.184434 
L 293.094118 283.361508 
L 294.567495 283.361508 
L 295.304184 287.184434 
L 296.040873 283.361508 
L 296.777562 302.476136 
L 297.514251 279.538583 
L 298.250939 252.778105 
L 298.987628 237.486403 
L 299.724317 218.371776 
L 301.934383 206.902999 
L 302.671072 210.725925 
L 303.407761 206.902999 
L 304.14445 210.725925 
L 304.881139 203.080074 
L 305.617827 191.611297 
L 307.091205 199.257148 
L 307.827894 176.319596 
L 308.564582 172.49667 
L 309.301271 176.319596 
L 310.03796 168.673745 
L 310.774649 164.850819 
L 311.511338 164.850819 
L 312.248026 302.476136 
L 312.984715 256.60103 
L 313.721404 256.60103 
L 315.194782 279.538583 
L 317.404848 291.007359 
L 319.614914 291.007359 
L 320.351603 294.830285 
L 321.088292 291.007359 
L 321.824981 291.007359 
L 322.561669 294.830285 
L 323.298358 291.007359 
L 324.035047 291.007359 
L 325.508425 283.361508 
L 326.981802 291.007359 
L 327.718491 287.184434 
L 328.45518 248.955179 
L 329.191869 229.840552 
L 330.665246 206.902999 
L 331.401935 199.257148 
L 332.138624 187.788372 
L 332.875312 180.142521 
L 333.612001 168.673745 
L 334.34869 164.850819 
L 335.085379 157.204968 
L 335.822068 145.736192 
L 337.295445 138.090341 
L 338.032134 145.736192 
L 338.768823 145.736192 
L 340.2422 153.382043 
L 340.978889 141.913267 
L 341.715578 134.267416 
L 342.452267 96.038161 
L 343.188955 161.027894 
L 343.925644 195.434223 
L 344.662333 218.371776 
L 345.399022 237.486403 
L 346.135711 241.309328 
L 346.872399 252.778105 
L 347.609088 268.069807 
L 348.345777 260.423956 
L 349.082466 260.423956 
L 349.819155 252.778105 
L 351.292532 252.778105 
L 352.029221 256.60103 
L 352.76591 264.246881 
L 354.239287 264.246881 
L 354.975976 256.60103 
L 355.712665 252.778105 
L 356.449354 252.778105 
L 357.186042 306.299061 
L 357.922731 271.892732 
L 360.869486 287.184434 
L 361.606175 283.361508 
L 362.342864 283.361508 
L 363.079553 279.538583 
L 363.816242 283.361508 
L 364.55293 279.538583 
L 365.289619 279.538583 
L 366.762997 287.184434 
L 367.499685 283.361508 
L 368.236374 283.361508 
L 368.973063 287.184434 
L 369.709752 287.184434 
L 370.446441 279.538583 
L 371.183129 283.361508 
L 371.919818 302.476136 
L 372.656507 271.892732 
L 373.393196 268.069807 
L 374.129885 268.069807 
L 376.339951 256.60103 
L 377.07664 256.60103 
L 377.813329 252.778105 
L 378.550017 252.778105 
L 379.286706 248.955179 
L 380.023395 241.309328 
L 381.496772 233.663477 
L 382.233461 245.132254 
L 382.97015 237.486403 
L 385.916905 237.486403 
L 386.653594 226.017627 
L 387.390283 287.184434 
L 388.126972 260.423956 
L 389.600349 283.361508 
L 390.337038 279.538583 
L 392.547104 291.007359 
L 393.283793 291.007359 
L 394.020482 287.184434 
L 394.757171 279.538583 
L 395.493859 287.184434 
L 396.230548 287.184434 
L 396.967237 291.007359 
L 397.703926 291.007359 
L 398.440615 287.184434 
L 399.177303 287.184434 
L 399.913992 294.830285 
L 400.650681 287.184434 
L 401.38737 291.007359 
L 402.124059 313.944912 
L 402.860747 271.892732 
L 404.334125 203.080074 
L 405.070814 191.611297 
L 405.807502 195.434223 
L 406.544191 183.965447 
L 407.28088 176.319596 
L 408.017569 176.319596 
L 408.754258 172.49667 
L 410.227635 172.49667 
L 411.701013 164.850819 
L 412.437702 168.673745 
L 413.17439 164.850819 
L 413.911079 172.49667 
L 416.121145 183.965447 
L 416.857834 145.736192 
L 417.594523 145.736192 
L 418.331212 161.027894 
L 419.804589 168.673745 
L 420.541278 180.142521 
L 421.277967 183.965447 
L 422.014656 195.434223 
L 422.751345 210.725925 
L 423.488033 203.080074 
L 424.224722 210.725925 
L 424.961411 214.54885 
L 426.434789 214.54885 
L 427.171477 210.725925 
L 427.908166 203.080074 
L 428.644855 206.902999 
L 430.118232 222.194701 
L 430.854921 218.371776 
L 431.59161 260.423956 
L 432.328299 245.132254 
L 433.064988 237.486403 
L 433.801676 256.60103 
L 434.538365 268.069807 
L 436.011743 275.715658 
L 436.748432 283.361508 
L 437.48512 279.538583 
L 438.221809 283.361508 
L 438.958498 283.361508 
L 439.695187 287.184434 
L 440.431875 287.184434 
L 441.168564 291.007359 
L 441.905253 287.184434 
L 442.641942 291.007359 
L 443.378631 275.715658 
L 444.115319 279.538583 
L 444.852008 279.538583 
L 445.588697 275.715658 
L 446.325386 283.361508 
L 447.062075 310.121987 
L 447.798763 264.246881 
L 448.535452 241.309328 
L 450.00883 203.080074 
L 450.745519 203.080074 
L 451.482207 210.725925 
L 452.218896 206.902999 
L 452.955585 199.257148 
L 454.428962 214.54885 
L 455.165651 214.54885 
L 455.90234 206.902999 
L 456.639029 206.902999 
L 457.375718 203.080074 
L 458.112406 210.725925 
L 458.849095 214.54885 
L 460.322473 206.902999 
L 461.059162 214.54885 
L 461.79585 260.423956 
L 462.532539 275.715658 
L 463.269228 268.069807 
L 464.005917 275.715658 
L 464.742605 279.538583 
L 465.479294 287.184434 
L 466.952672 287.184434 
L 467.689361 291.007359 
L 469.162738 291.007359 
L 469.899427 287.184434 
L 470.636116 291.007359 
L 471.372805 291.007359 
L 472.109493 298.65321 
L 472.846182 291.007359 
L 476.529626 291.007359 
L 477.266315 310.121987 
L 478.003004 264.246881 
L 478.739692 256.60103 
L 479.476381 252.778105 
L 480.21307 252.778105 
L 481.686448 237.486403 
L 482.423136 233.663477 
L 483.159825 222.194701 
L 483.896514 218.371776 
L 484.633203 218.371776 
L 485.369892 214.54885 
L 486.10658 206.902999 
L 486.843269 218.371776 
L 487.579958 214.54885 
L 488.316647 214.54885 
L 489.790024 206.902999 
L 490.526713 195.434223 
L 491.263402 203.080074 
L 492.000091 168.673745 
L 492.736779 161.027894 
L 493.473468 168.673745 
L 494.946846 199.257148 
L 495.683535 206.902999 
L 497.156912 206.902999 
L 497.893601 210.725925 
L 498.63029 210.725925 
L 499.366979 214.54885 
L 500.840356 237.486403 
L 501.577045 229.840552 
L 501.577045 229.840552 
" style="fill:none;stroke:#2ca02c;stroke-linecap:square;stroke-width:1.5;"/>
   </g>
   <g id="line2d_19">
    <path clip-path="url(#p8a8dbd3689)" d="M 112.544956 310.121987 
L 113.281645 333.059539 
L 114.018334 344.528316 
L 114.755023 344.528316 
L 115.491712 336.882465 
L 116.2284 333.059539 
L 116.965089 344.528316 
L 117.701778 340.70539 
L 118.438467 333.059539 
L 119.175155 344.528316 
L 120.648533 329.236614 
L 121.385222 333.059539 
L 122.121911 340.70539 
L 122.858599 336.882465 
L 123.595288 340.70539 
L 125.068666 333.059539 
L 125.805355 336.882465 
L 126.542043 336.882465 
L 127.278732 329.236614 
L 128.015421 336.882465 
L 129.488799 336.882465 
L 130.225487 340.70539 
L 130.962176 336.882465 
L 131.698865 329.236614 
L 132.435554 325.413688 
L 133.172242 306.299061 
L 133.908931 333.059539 
L 134.64562 333.059539 
L 135.382309 321.590763 
L 136.118998 306.299061 
L 136.855686 306.299061 
L 137.592375 313.944912 
L 138.329064 302.476136 
L 139.065753 287.184434 
L 139.802442 287.184434 
L 140.53913 298.65321 
L 141.275819 306.299061 
L 142.012508 298.65321 
L 142.749197 283.361508 
L 143.485885 283.361508 
L 144.222574 294.830285 
L 144.959263 287.184434 
L 145.695952 298.65321 
L 146.432641 302.476136 
L 147.169329 310.121987 
L 147.906018 306.299061 
L 148.642707 306.299061 
L 149.379396 321.590763 
L 150.116085 329.236614 
L 150.852773 340.70539 
L 153.06284 352.174167 
L 153.799529 348.351241 
L 154.536217 348.351241 
L 155.272906 352.174167 
L 156.009595 344.528316 
L 156.746284 348.351241 
L 160.429728 348.351241 
L 161.166416 352.174167 
L 161.903105 352.174167 
L 162.639794 348.351241 
L 164.113172 348.351241 
L 164.84986 344.528316 
L 165.586549 348.351241 
L 166.323238 344.528316 
L 167.059927 336.882465 
L 167.796615 325.413688 
L 170.006682 279.538583 
L 170.743371 268.069807 
L 171.480059 268.069807 
L 172.216748 264.246881 
L 172.953437 271.892732 
L 173.690126 264.246881 
L 174.426815 275.715658 
L 175.163503 275.715658 
L 175.900192 279.538583 
L 177.37357 279.538583 
L 178.110259 268.069807 
L 179.583636 291.007359 
L 180.320325 298.65321 
L 181.057014 283.361508 
L 181.793702 260.423956 
L 182.530391 294.830285 
L 183.26708 317.767838 
L 184.003769 336.882465 
L 184.740458 344.528316 
L 185.477146 348.351241 
L 186.213835 348.351241 
L 186.950524 352.174167 
L 187.687213 348.351241 
L 189.16059 348.351241 
L 189.897279 352.174167 
L 191.370657 352.174167 
L 192.107345 348.351241 
L 192.844034 352.174167 
L 194.317412 352.174167 
L 195.054101 348.351241 
L 195.790789 348.351241 
L 196.527478 352.174167 
L 198.737545 352.174167 
L 199.474233 344.528316 
L 200.210922 340.70539 
L 200.947611 329.236614 
L 201.6843 313.944912 
L 202.420989 294.830285 
L 203.157677 283.361508 
L 203.894366 268.069807 
L 204.631055 260.423956 
L 205.367744 268.069807 
L 206.104432 264.246881 
L 206.841121 268.069807 
L 207.57781 260.423956 
L 208.314499 245.132254 
L 209.051188 256.60103 
L 209.787876 248.955179 
L 210.524565 237.486403 
L 211.261254 229.840552 
L 211.997943 248.955179 
L 212.734632 233.663477 
L 213.47132 248.955179 
L 214.208009 237.486403 
L 214.944698 260.423956 
L 215.681387 287.184434 
L 216.418075 325.413688 
L 217.154764 344.528316 
L 217.891453 344.528316 
L 219.364831 352.174167 
L 220.101519 348.351241 
L 220.838208 348.351241 
L 221.574897 352.174167 
L 222.311586 348.351241 
L 223.048275 352.174167 
L 231.151851 352.174167 
L 231.88854 348.351241 
L 232.625229 340.70539 
L 233.361918 329.236614 
L 234.835295 298.65321 
L 235.571984 298.65321 
L 236.308673 302.476136 
L 237.045362 298.65321 
L 237.78205 283.361508 
L 239.255428 283.361508 
L 239.992117 268.069807 
L 240.728805 256.60103 
L 241.465494 264.246881 
L 242.202183 279.538583 
L 242.938872 287.184434 
L 243.675561 287.184434 
L 244.412249 271.892732 
L 245.148938 283.361508 
L 245.885627 237.486403 
L 246.622316 294.830285 
L 247.359005 321.590763 
L 248.095693 336.882465 
L 248.832382 344.528316 
L 249.569071 348.351241 
L 250.30576 348.351241 
L 251.042449 352.174167 
L 251.779137 348.351241 
L 253.252515 348.351241 
L 253.989204 352.174167 
L 257.672648 352.174167 
L 258.409336 348.351241 
L 259.146025 352.174167 
L 259.882714 352.174167 
L 260.619403 348.351241 
L 262.829469 348.351241 
L 263.566158 352.174167 
L 266.512913 352.174167 
L 267.986291 344.528316 
L 268.722979 336.882465 
L 270.933046 325.413688 
L 272.406423 302.476136 
L 273.143112 306.299061 
L 273.879801 298.65321 
L 274.61649 310.121987 
L 275.353179 313.944912 
L 276.089867 306.299061 
L 276.826556 291.007359 
L 277.563245 283.361508 
L 278.299934 294.830285 
L 279.036622 298.65321 
L 279.773311 298.65321 
L 280.51 306.299061 
L 281.246689 291.007359 
L 281.983378 256.60103 
L 282.720066 294.830285 
L 283.456755 287.184434 
L 285.666822 241.309328 
L 286.40351 252.778105 
L 287.140199 248.955179 
L 287.876888 264.246881 
L 288.613577 264.246881 
L 289.350265 268.069807 
L 290.086954 252.778105 
L 290.823643 241.309328 
L 291.560332 252.778105 
L 293.033709 268.069807 
L 293.770398 279.538583 
L 294.507087 268.069807 
L 295.243776 268.069807 
L 295.980465 279.538583 
L 296.717153 275.715658 
L 297.453842 264.246881 
L 298.190531 306.299061 
L 298.92722 321.590763 
L 299.663909 344.528316 
L 300.400597 348.351241 
L 301.873975 348.351241 
L 302.610664 352.174167 
L 303.347352 348.351241 
L 304.084041 352.174167 
L 304.82073 348.351241 
L 305.557419 352.174167 
L 306.294108 348.351241 
L 307.767485 348.351241 
L 308.504174 352.174167 
L 309.240863 344.528316 
L 309.977552 348.351241 
L 310.71424 348.351241 
L 311.450929 352.174167 
L 312.187618 340.70539 
L 312.924307 344.528316 
L 313.660995 336.882465 
L 314.397684 325.413688 
L 315.134373 310.121987 
L 315.871062 310.121987 
L 316.607751 294.830285 
L 317.344439 287.184434 
L 318.081128 294.830285 
L 318.817817 279.538583 
L 319.554506 283.361508 
L 320.291195 294.830285 
L 321.027883 287.184434 
L 322.501261 256.60103 
L 323.23795 256.60103 
L 323.974639 271.892732 
L 324.711327 283.361508 
L 325.448016 287.184434 
L 326.184705 271.892732 
L 326.921394 237.486403 
L 327.658082 268.069807 
L 328.394771 313.944912 
L 329.13146 340.70539 
L 329.868149 352.174167 
L 341.655169 352.174167 
L 342.391858 344.528316 
L 343.128547 348.351241 
L 344.601925 348.351241 
L 345.338613 344.528316 
L 346.075302 348.351241 
L 346.811991 348.351241 
L 347.54868 344.528316 
L 348.285369 348.351241 
L 349.758746 340.70539 
L 350.495435 340.70539 
L 351.232124 336.882465 
L 353.44219 348.351241 
L 354.178879 344.528316 
L 357.125634 344.528316 
L 357.862323 348.351241 
L 358.599012 344.528316 
L 359.3357 329.236614 
L 360.809078 313.944912 
L 362.282455 283.361508 
L 363.019144 302.476136 
L 363.755833 302.476136 
L 364.492522 287.184434 
L 366.702588 310.121987 
L 367.439277 310.121987 
L 368.175966 302.476136 
L 368.912655 310.121987 
L 369.649343 313.944912 
L 370.386032 310.121987 
L 371.122721 302.476136 
L 371.85941 279.538583 
L 372.596099 302.476136 
L 373.332787 298.65321 
L 374.069476 313.944912 
L 374.806165 306.299061 
L 375.542854 306.299061 
L 376.279542 310.121987 
L 377.016231 306.299061 
L 377.75292 313.944912 
L 378.489609 310.121987 
L 379.226298 321.590763 
L 379.962986 325.413688 
L 380.699675 325.413688 
L 381.436364 321.590763 
L 382.173053 310.121987 
L 382.909742 321.590763 
L 383.64643 313.944912 
L 384.383119 317.767838 
L 385.856497 317.767838 
L 386.593185 310.121987 
L 387.329874 287.184434 
L 388.066563 313.944912 
L 389.539941 291.007359 
L 390.276629 287.184434 
L 391.013318 287.184434 
L 391.750007 268.069807 
L 392.486696 252.778105 
L 393.223385 252.778105 
L 393.960073 268.069807 
L 394.696762 275.715658 
L 395.433451 260.423956 
L 396.17014 260.423956 
L 396.906829 264.246881 
L 397.643517 252.778105 
L 399.853584 275.715658 
L 400.590272 279.538583 
L 401.326961 279.538583 
L 402.06365 268.069807 
L 402.800339 298.65321 
L 404.273716 336.882465 
L 405.010405 344.528316 
L 405.747094 344.528316 
L 407.220472 352.174167 
L 407.95716 352.174167 
L 408.693849 348.351241 
L 409.430538 352.174167 
L 415.324048 352.174167 
L 416.060737 348.351241 
L 418.270803 348.351241 
L 419.007492 344.528316 
L 419.744181 344.528316 
L 420.48087 329.236614 
L 421.217559 317.767838 
L 421.954247 321.590763 
L 423.427625 306.299061 
L 424.164314 310.121987 
L 424.901002 306.299061 
L 425.637691 294.830285 
L 426.37438 302.476136 
L 427.111069 306.299061 
L 427.847758 306.299061 
L 428.584446 310.121987 
L 429.321135 321.590763 
L 430.057824 325.413688 
L 430.794513 325.413688 
L 431.531202 313.944912 
L 432.26789 294.830285 
L 433.004579 310.121987 
L 434.477957 279.538583 
L 435.214645 271.892732 
L 435.951334 275.715658 
L 436.688023 271.892732 
L 437.424712 275.715658 
L 438.161401 271.892732 
L 438.898089 279.538583 
L 439.634778 268.069807 
L 441.108156 291.007359 
L 442.581533 268.069807 
L 443.318222 271.892732 
L 444.7916 256.60103 
L 445.528289 264.246881 
L 446.264977 264.246881 
L 447.001666 252.778105 
L 447.738355 287.184434 
L 448.475044 298.65321 
L 449.948421 344.528316 
L 450.68511 348.351241 
L 453.631865 348.351241 
L 454.368554 352.174167 
L 455.105243 348.351241 
L 455.841932 352.174167 
L 456.57862 352.174167 
L 457.315309 348.351241 
L 458.051998 352.174167 
L 458.788687 352.174167 
L 459.525375 348.351241 
L 460.262064 352.174167 
L 460.998753 352.174167 
L 462.472131 344.528316 
L 463.208819 344.528316 
L 463.945508 329.236614 
L 464.682197 317.767838 
L 465.418886 302.476136 
L 466.155575 306.299061 
L 466.892263 298.65321 
L 467.628952 302.476136 
L 468.365641 302.476136 
L 469.10233 313.944912 
L 469.839019 313.944912 
L 471.312396 283.361508 
L 472.049085 279.538583 
L 472.785774 291.007359 
L 473.522462 291.007359 
L 474.259151 275.715658 
L 475.732529 275.715658 
L 476.469218 264.246881 
L 477.205906 237.486403 
L 477.942595 291.007359 
L 478.679284 310.121987 
L 479.415973 317.767838 
L 480.152662 302.476136 
L 480.88935 313.944912 
L 481.626039 321.590763 
L 482.362728 325.413688 
L 483.099417 333.059539 
L 483.836105 329.236614 
L 484.572794 333.059539 
L 485.309483 333.059539 
L 486.046172 336.882465 
L 486.782861 336.882465 
L 487.519549 333.059539 
L 488.256238 336.882465 
L 488.992927 329.236614 
L 490.466305 336.882465 
L 491.202993 329.236614 
L 491.939682 325.413688 
L 492.676371 340.70539 
L 493.41306 333.059539 
L 494.886437 325.413688 
L 495.623126 329.236614 
L 497.096504 321.590763 
L 497.833192 306.299061 
L 498.569881 317.767838 
L 500.043259 333.059539 
L 500.779948 333.059539 
L 501.516636 321.590763 
L 502.990014 291.007359 
L 503.726703 279.538583 
L 504.463392 291.007359 
L 505.20008 287.184434 
L 505.936769 291.007359 
L 506.673458 268.069807 
L 507.410147 275.715658 
L 508.146835 287.184434 
L 508.883524 287.184434 
L 509.620213 294.830285 
L 509.620213 294.830285 
" style="fill:none;stroke:#d62728;stroke-linecap:square;stroke-width:1.5;"/>
   </g>
   <g id="patch_3">
    <path d="M 83.472344 352.174167 
L 83.472344 35.0625 
" style="fill:none;stroke:#000000;stroke-linecap:square;stroke-linejoin:miter;stroke-width:0.8;"/>
   </g>
   <g id="patch_4">
    <path d="M 529.912969 352.174167 
L 529.912969 35.0625 
" style="fill:none;stroke:#000000;stroke-linecap:square;stroke-linejoin:miter;stroke-width:0.8;"/>
   </g>
   <g id="patch_5">
    <path d="M 83.472344 352.174167 
L 529.912969 352.174167 
" style="fill:none;stroke:#000000;stroke-linecap:square;stroke-linejoin:miter;stroke-width:0.8;"/>
   </g>
   <g id="patch_6">
    <path d="M 83.472344 35.0625 
L 529.912969 35.0625 
" style="fill:none;stroke:#000000;stroke-linecap:square;stroke-linejoin:miter;stroke-width:0.8;"/>
   </g>
   <g id="legend_1">
    <g id="patch_7">
     <path d="M 554.235 96.775 
L 625.430312 96.775 
Q 627.430312 96.775 627.430312 94.775 
L 627.430312 37.0625 
Q 627.430312 35.0625 625.430312 35.0625 
L 554.235 35.0625 
Q 552.235 35.0625 552.235 37.0625 
L 552.235 94.775 
Q 552.235 96.775 554.235 96.775 
z
" style="fill:#ffffff;opacity:0.8;stroke:#cccccc;stroke-linejoin:miter;"/>
    </g>
    <g id="line2d_20">
     <path d="M 556.235 43.160937 
L 576.235 43.160937 
" style="fill:none;stroke:#1f77b4;stroke-linecap:square;stroke-width:1.5;"/>
    </g>
    <g id="line2d_21"/>
    <g id="text_17">
     <!-- bbr-pi -->
     <defs>
      <path d="M 4.890625 31.390625 
L 31.203125 31.390625 
L 31.203125 23.390625 
L 4.890625 23.390625 
z
" id="DejaVuSans-45"/>
     </defs>
     <g transform="translate(584.235 46.660937)scale(0.1 -0.1)">
      <use xlink:href="#DejaVuSans-98"/>
      <use x="63.476562" xlink:href="#DejaVuSans-98"/>
      <use x="126.953125" xlink:href="#DejaVuSans-114"/>
      <use x="167.972656" xlink:href="#DejaVuSans-45"/>
      <use x="204.056641" xlink:href="#DejaVuSans-112"/>
      <use x="267.533203" xlink:href="#DejaVuSans-105"/>
     </g>
    </g>
    <g id="line2d_22">
     <path d="M 556.235 57.839063 
L 576.235 57.839063 
" style="fill:none;stroke:#ff7f0e;stroke-linecap:square;stroke-width:1.5;"/>
    </g>
    <g id="line2d_23"/>
    <g id="text_18">
     <!-- cubic-pi -->
     <g transform="translate(584.235 61.339063)scale(0.1 -0.1)">
      <use xlink:href="#DejaVuSans-99"/>
      <use x="54.980469" xlink:href="#DejaVuSans-117"/>
      <use x="118.359375" xlink:href="#DejaVuSans-98"/>
      <use x="181.835938" xlink:href="#DejaVuSans-105"/>
      <use x="209.619141" xlink:href="#DejaVuSans-99"/>
      <use x="264.599609" xlink:href="#DejaVuSans-45"/>
      <use x="300.683594" xlink:href="#DejaVuSans-112"/>
      <use x="364.160156" xlink:href="#DejaVuSans-105"/>
     </g>
    </g>
    <g id="line2d_24">
     <path d="M 556.235 72.517187 
L 576.235 72.517187 
" style="fill:none;stroke:#2ca02c;stroke-linecap:square;stroke-width:1.5;"/>
    </g>
    <g id="line2d_25"/>
    <g id="text_19">
     <!-- bbr-pi -->
     <g transform="translate(584.235 76.017187)scale(0.1 -0.1)">
      <use xlink:href="#DejaVuSans-98"/>
      <use x="63.476562" xlink:href="#DejaVuSans-98"/>
      <use x="126.953125" xlink:href="#DejaVuSans-114"/>
      <use x="167.972656" xlink:href="#DejaVuSans-45"/>
      <use x="204.056641" xlink:href="#DejaVuSans-112"/>
      <use x="267.533203" xlink:href="#DejaVuSans-105"/>
     </g>
    </g>
    <g id="line2d_26">
     <path d="M 556.235 87.195312 
L 576.235 87.195312 
" style="fill:none;stroke:#d62728;stroke-linecap:square;stroke-width:1.5;"/>
    </g>
    <g id="line2d_27"/>
    <g id="text_20">
     <!-- cubic-pi -->
     <g transform="translate(584.235 90.695312)scale(0.1 -0.1)">
      <use xlink:href="#DejaVuSans-99"/>
      <use x="54.980469" xlink:href="#DejaVuSans-117"/>
      <use x="118.359375" xlink:href="#DejaVuSans-98"/>
      <use x="181.835938" xlink:href="#DejaVuSans-105"/>
      <use x="209.619141" xlink:href="#DejaVuSans-99"/>
      <use x="264.599609" xlink:href="#DejaVuSans-45"/>
      <use x="300.683594" xlink:href="#DejaVuSans-112"/>
      <use x="364.160156" xlink:href="#DejaVuSans-105"/>
     </g>
    </g>
   </g>
  </g>
  <g id="text_21">
   <!-- result throughput -->
   <defs>
    <path d="M 9.421875 75.984375 
L 18.40625 75.984375 
L 18.40625 0 
L 9.421875 0 
z
" id="DejaVuSans-108"/>
   </defs>
   <g transform="translate(289.320938 17.038125)scale(0.12 -0.12)">
    <use xlink:href="#DejaVuSans-114"/>
    <use x="41.082031" xlink:href="#DejaVuSans-101"/>
    <use x="102.605469" xlink:href="#DejaVuSans-115"/>
    <use x="154.705078" xlink:href="#DejaVuSans-117"/>
    <use x="218.083984" xlink:href="#DejaVuSans-108"/>
    <use x="245.867188" xlink:href="#DejaVuSans-116"/>
    <use x="285.076172" xlink:href="#DejaVuSans-32"/>
    <use x="316.863281" xlink:href="#DejaVuSans-116"/>
    <use x="356.072266" xlink:href="#DejaVuSans-104"/>
    <use x="419.451172" xlink:href="#DejaVuSans-114"/>
    <use x="460.533203" xlink:href="#DejaVuSans-111"/>
    <use x="521.714844" xlink:href="#DejaVuSans-117"/>
    <use x="585.09375" xlink:href="#DejaVuSans-103"/>
    <use x="648.570312" xlink:href="#DejaVuSans-104"/>
    <use x="711.949219" xlink:href="#DejaVuSans-112"/>
    <use x="775.425781" xlink:href="#DejaVuSans-117"/>
    <use x="838.804688" xlink:href="#DejaVuSans-116"/>
   </g>
  </g>
 </g>
 <defs>
  <clipPath id="p8a8dbd3689">
   <rect height="317.111667" width="446.440625" x="83.472344" y="35.0625"/>
  </clipPath>
 </defs>
</svg>
