<?xml version="1.0" encoding="utf-8" standalone="no"?>
<!DOCTYPE svg PUBLIC "-//W3C//DTD SVG 1.1//EN"
  "http://www.w3.org/Graphics/SVG/1.1/DTD/svg11.dtd">
<!-- Created with matplotlib (https://matplotlib.org/) -->
<svg height="396pt" version="1.1" viewBox="0 0 684 396" width="684pt" xmlns="http://www.w3.org/2000/svg" xmlns:xlink="http://www.w3.org/1999/xlink">
 <defs>
  <style type="text/css">
*{stroke-linecap:butt;stroke-linejoin:round;}
  </style>
 </defs>
 <g id="figure_1">
  <g id="patch_1">
   <path d="M 0 396 
L 684 396 
L 684 0 
L 0 0 
z
" style="fill:#ffffff;"/>
  </g>
  <g id="axes_1">
   <g id="patch_2">
    <path d="M 70.834375 352.174167 
L 516.019219 352.174167 
L 516.019219 35.0625 
L 70.834375 35.0625 
z
" style="fill:#ffffff;"/>
   </g>
   <g id="matplotlib.axis_1">
    <g id="xtick_1">
     <g id="line2d_1">
      <defs>
       <path d="M 0 0 
L 0 3.5 
" id="m46a4c4b870" style="stroke:#000000;stroke-width:0.8;"/>
      </defs>
      <g>
       <use style="stroke:#000000;stroke-width:0.8;" x="95.179742" xlink:href="#m46a4c4b870" y="352.174167"/>
      </g>
     </g>
     <g id="text_1">
      <!-- 0 -->
      <defs>
       <path d="M 31.78125 66.40625 
Q 24.171875 66.40625 20.328125 58.90625 
Q 16.5 51.421875 16.5 36.375 
Q 16.5 21.390625 20.328125 13.890625 
Q 24.171875 6.390625 31.78125 6.390625 
Q 39.453125 6.390625 43.28125 13.890625 
Q 47.125 21.390625 47.125 36.375 
Q 47.125 51.421875 43.28125 58.90625 
Q 39.453125 66.40625 31.78125 66.40625 
z
M 31.78125 74.21875 
Q 44.046875 74.21875 50.515625 64.515625 
Q 56.984375 54.828125 56.984375 36.375 
Q 56.984375 17.96875 50.515625 8.265625 
Q 44.046875 -1.421875 31.78125 -1.421875 
Q 19.53125 -1.421875 13.0625 8.265625 
Q 6.59375 17.96875 6.59375 36.375 
Q 6.59375 54.828125 13.0625 64.515625 
Q 19.53125 74.21875 31.78125 74.21875 
z
" id="DejaVuSans-48"/>
      </defs>
      <g transform="translate(91.998492 366.772604)scale(0.1 -0.1)">
       <use xlink:href="#DejaVuSans-48"/>
      </g>
     </g>
    </g>
    <g id="xtick_2">
     <g id="line2d_2">
      <g>
       <use style="stroke:#000000;stroke-width:0.8;" x="165.478455" xlink:href="#m46a4c4b870" y="352.174167"/>
      </g>
     </g>
     <g id="text_2">
      <!-- 50 -->
      <defs>
       <path d="M 10.796875 72.90625 
L 49.515625 72.90625 
L 49.515625 64.59375 
L 19.828125 64.59375 
L 19.828125 46.734375 
Q 21.96875 47.46875 24.109375 47.828125 
Q 26.265625 48.1875 28.421875 48.1875 
Q 40.625 48.1875 47.75 41.5 
Q 54.890625 34.8125 54.890625 23.390625 
Q 54.890625 11.625 47.5625 5.09375 
Q 40.234375 -1.421875 26.90625 -1.421875 
Q 22.3125 -1.421875 17.546875 -0.640625 
Q 12.796875 0.140625 7.71875 1.703125 
L 7.71875 11.625 
Q 12.109375 9.234375 16.796875 8.0625 
Q 21.484375 6.890625 26.703125 6.890625 
Q 35.15625 6.890625 40.078125 11.328125 
Q 45.015625 15.765625 45.015625 23.390625 
Q 45.015625 31 40.078125 35.4375 
Q 35.15625 39.890625 26.703125 39.890625 
Q 22.75 39.890625 18.8125 39.015625 
Q 14.890625 38.140625 10.796875 36.28125 
z
" id="DejaVuSans-53"/>
      </defs>
      <g transform="translate(159.115955 366.772604)scale(0.1 -0.1)">
       <use xlink:href="#DejaVuSans-53"/>
       <use x="63.623047" xlink:href="#DejaVuSans-48"/>
      </g>
     </g>
    </g>
    <g id="xtick_3">
     <g id="line2d_3">
      <g>
       <use style="stroke:#000000;stroke-width:0.8;" x="235.777168" xlink:href="#m46a4c4b870" y="352.174167"/>
      </g>
     </g>
     <g id="text_3">
      <!-- 100 -->
      <defs>
       <path d="M 12.40625 8.296875 
L 28.515625 8.296875 
L 28.515625 63.921875 
L 10.984375 60.40625 
L 10.984375 69.390625 
L 28.421875 72.90625 
L 38.28125 72.90625 
L 38.28125 8.296875 
L 54.390625 8.296875 
L 54.390625 0 
L 12.40625 0 
z
" id="DejaVuSans-49"/>
      </defs>
      <g transform="translate(226.233418 366.772604)scale(0.1 -0.1)">
       <use xlink:href="#DejaVuSans-49"/>
       <use x="63.623047" xlink:href="#DejaVuSans-48"/>
       <use x="127.246094" xlink:href="#DejaVuSans-48"/>
      </g>
     </g>
    </g>
    <g id="xtick_4">
     <g id="line2d_4">
      <g>
       <use style="stroke:#000000;stroke-width:0.8;" x="306.075881" xlink:href="#m46a4c4b870" y="352.174167"/>
      </g>
     </g>
     <g id="text_4">
      <!-- 150 -->
      <g transform="translate(296.532131 366.772604)scale(0.1 -0.1)">
       <use xlink:href="#DejaVuSans-49"/>
       <use x="63.623047" xlink:href="#DejaVuSans-53"/>
       <use x="127.246094" xlink:href="#DejaVuSans-48"/>
      </g>
     </g>
    </g>
    <g id="xtick_5">
     <g id="line2d_5">
      <g>
       <use style="stroke:#000000;stroke-width:0.8;" x="376.374595" xlink:href="#m46a4c4b870" y="352.174167"/>
      </g>
     </g>
     <g id="text_5">
      <!-- 200 -->
      <defs>
       <path d="M 19.1875 8.296875 
L 53.609375 8.296875 
L 53.609375 0 
L 7.328125 0 
L 7.328125 8.296875 
Q 12.9375 14.109375 22.625 23.890625 
Q 32.328125 33.6875 34.8125 36.53125 
Q 39.546875 41.84375 41.421875 45.53125 
Q 43.3125 49.21875 43.3125 52.78125 
Q 43.3125 58.59375 39.234375 62.25 
Q 35.15625 65.921875 28.609375 65.921875 
Q 23.96875 65.921875 18.8125 64.3125 
Q 13.671875 62.703125 7.8125 59.421875 
L 7.8125 69.390625 
Q 13.765625 71.78125 18.9375 73 
Q 24.125 74.21875 28.421875 74.21875 
Q 39.75 74.21875 46.484375 68.546875 
Q 53.21875 62.890625 53.21875 53.421875 
Q 53.21875 48.921875 51.53125 44.890625 
Q 49.859375 40.875 45.40625 35.40625 
Q 44.1875 33.984375 37.640625 27.21875 
Q 31.109375 20.453125 19.1875 8.296875 
z
" id="DejaVuSans-50"/>
      </defs>
      <g transform="translate(366.830845 366.772604)scale(0.1 -0.1)">
       <use xlink:href="#DejaVuSans-50"/>
       <use x="63.623047" xlink:href="#DejaVuSans-48"/>
       <use x="127.246094" xlink:href="#DejaVuSans-48"/>
      </g>
     </g>
    </g>
    <g id="xtick_6">
     <g id="line2d_6">
      <g>
       <use style="stroke:#000000;stroke-width:0.8;" x="446.673308" xlink:href="#m46a4c4b870" y="352.174167"/>
      </g>
     </g>
     <g id="text_6">
      <!-- 250 -->
      <g transform="translate(437.129558 366.772604)scale(0.1 -0.1)">
       <use xlink:href="#DejaVuSans-50"/>
       <use x="63.623047" xlink:href="#DejaVuSans-53"/>
       <use x="127.246094" xlink:href="#DejaVuSans-48"/>
      </g>
     </g>
    </g>
   </g>
   <g id="matplotlib.axis_2">
    <g id="ytick_1">
     <g id="line2d_7">
      <defs>
       <path d="M 0 0 
L -3.5 0 
" id="mfcfd46781a" style="stroke:#000000;stroke-width:0.8;"/>
      </defs>
      <g>
       <use style="stroke:#000000;stroke-width:0.8;" x="70.834375" xlink:href="#mfcfd46781a" y="352.174167"/>
      </g>
     </g>
     <g id="text_7">
      <!-- 0.0 -->
      <defs>
       <path d="M 10.6875 12.40625 
L 21 12.40625 
L 21 0 
L 10.6875 0 
z
" id="DejaVuSans-46"/>
      </defs>
      <g transform="translate(47.93125 355.973385)scale(0.1 -0.1)">
       <use xlink:href="#DejaVuSans-48"/>
       <use x="63.623047" xlink:href="#DejaVuSans-46"/>
       <use x="95.410156" xlink:href="#DejaVuSans-48"/>
      </g>
     </g>
    </g>
    <g id="ytick_2">
     <g id="line2d_8">
      <g>
       <use style="stroke:#000000;stroke-width:0.8;" x="70.834375" xlink:href="#mfcfd46781a" y="314.982058"/>
      </g>
     </g>
     <g id="text_8">
      <!-- 0.5 -->
      <g transform="translate(47.93125 318.781276)scale(0.1 -0.1)">
       <use xlink:href="#DejaVuSans-48"/>
       <use x="63.623047" xlink:href="#DejaVuSans-46"/>
       <use x="95.410156" xlink:href="#DejaVuSans-53"/>
      </g>
     </g>
    </g>
    <g id="ytick_3">
     <g id="line2d_9">
      <g>
       <use style="stroke:#000000;stroke-width:0.8;" x="70.834375" xlink:href="#mfcfd46781a" y="277.789949"/>
      </g>
     </g>
     <g id="text_9">
      <!-- 1.0 -->
      <g transform="translate(47.93125 281.589167)scale(0.1 -0.1)">
       <use xlink:href="#DejaVuSans-49"/>
       <use x="63.623047" xlink:href="#DejaVuSans-46"/>
       <use x="95.410156" xlink:href="#DejaVuSans-48"/>
      </g>
     </g>
    </g>
    <g id="ytick_4">
     <g id="line2d_10">
      <g>
       <use style="stroke:#000000;stroke-width:0.8;" x="70.834375" xlink:href="#mfcfd46781a" y="240.59784"/>
      </g>
     </g>
     <g id="text_10">
      <!-- 1.5 -->
      <g transform="translate(47.93125 244.397058)scale(0.1 -0.1)">
       <use xlink:href="#DejaVuSans-49"/>
       <use x="63.623047" xlink:href="#DejaVuSans-46"/>
       <use x="95.410156" xlink:href="#DejaVuSans-53"/>
      </g>
     </g>
    </g>
    <g id="ytick_5">
     <g id="line2d_11">
      <g>
       <use style="stroke:#000000;stroke-width:0.8;" x="70.834375" xlink:href="#mfcfd46781a" y="203.40573"/>
      </g>
     </g>
     <g id="text_11">
      <!-- 2.0 -->
      <g transform="translate(47.93125 207.204949)scale(0.1 -0.1)">
       <use xlink:href="#DejaVuSans-50"/>
       <use x="63.623047" xlink:href="#DejaVuSans-46"/>
       <use x="95.410156" xlink:href="#DejaVuSans-48"/>
      </g>
     </g>
    </g>
    <g id="ytick_6">
     <g id="line2d_12">
      <g>
       <use style="stroke:#000000;stroke-width:0.8;" x="70.834375" xlink:href="#mfcfd46781a" y="166.213621"/>
      </g>
     </g>
     <g id="text_12">
      <!-- 2.5 -->
      <g transform="translate(47.93125 170.01284)scale(0.1 -0.1)">
       <use xlink:href="#DejaVuSans-50"/>
       <use x="63.623047" xlink:href="#DejaVuSans-46"/>
       <use x="95.410156" xlink:href="#DejaVuSans-53"/>
      </g>
     </g>
    </g>
    <g id="ytick_7">
     <g id="line2d_13">
      <g>
       <use style="stroke:#000000;stroke-width:0.8;" x="70.834375" xlink:href="#mfcfd46781a" y="129.021512"/>
      </g>
     </g>
     <g id="text_13">
      <!-- 3.0 -->
      <defs>
       <path d="M 40.578125 39.3125 
Q 47.65625 37.796875 51.625 33 
Q 55.609375 28.21875 55.609375 21.1875 
Q 55.609375 10.40625 48.1875 4.484375 
Q 40.765625 -1.421875 27.09375 -1.421875 
Q 22.515625 -1.421875 17.65625 -0.515625 
Q 12.796875 0.390625 7.625 2.203125 
L 7.625 11.71875 
Q 11.71875 9.328125 16.59375 8.109375 
Q 21.484375 6.890625 26.8125 6.890625 
Q 36.078125 6.890625 40.9375 10.546875 
Q 45.796875 14.203125 45.796875 21.1875 
Q 45.796875 27.640625 41.28125 31.265625 
Q 36.765625 34.90625 28.71875 34.90625 
L 20.21875 34.90625 
L 20.21875 43.015625 
L 29.109375 43.015625 
Q 36.375 43.015625 40.234375 45.921875 
Q 44.09375 48.828125 44.09375 54.296875 
Q 44.09375 59.90625 40.109375 62.90625 
Q 36.140625 65.921875 28.71875 65.921875 
Q 24.65625 65.921875 20.015625 65.03125 
Q 15.375 64.15625 9.8125 62.3125 
L 9.8125 71.09375 
Q 15.4375 72.65625 20.34375 73.4375 
Q 25.25 74.21875 29.59375 74.21875 
Q 40.828125 74.21875 47.359375 69.109375 
Q 53.90625 64.015625 53.90625 55.328125 
Q 53.90625 49.265625 50.4375 45.09375 
Q 46.96875 40.921875 40.578125 39.3125 
z
" id="DejaVuSans-51"/>
      </defs>
      <g transform="translate(47.93125 132.820731)scale(0.1 -0.1)">
       <use xlink:href="#DejaVuSans-51"/>
       <use x="63.623047" xlink:href="#DejaVuSans-46"/>
       <use x="95.410156" xlink:href="#DejaVuSans-48"/>
      </g>
     </g>
    </g>
    <g id="ytick_8">
     <g id="line2d_14">
      <g>
       <use style="stroke:#000000;stroke-width:0.8;" x="70.834375" xlink:href="#mfcfd46781a" y="91.829403"/>
      </g>
     </g>
     <g id="text_14">
      <!-- 3.5 -->
      <g transform="translate(47.93125 95.628622)scale(0.1 -0.1)">
       <use xlink:href="#DejaVuSans-51"/>
       <use x="63.623047" xlink:href="#DejaVuSans-46"/>
       <use x="95.410156" xlink:href="#DejaVuSans-53"/>
      </g>
     </g>
    </g>
    <g id="ytick_9">
     <g id="line2d_15">
      <g>
       <use style="stroke:#000000;stroke-width:0.8;" x="70.834375" xlink:href="#mfcfd46781a" y="54.637294"/>
      </g>
     </g>
     <g id="text_15">
      <!-- 4.0 -->
      <defs>
       <path d="M 37.796875 64.3125 
L 12.890625 25.390625 
L 37.796875 25.390625 
z
M 35.203125 72.90625 
L 47.609375 72.90625 
L 47.609375 25.390625 
L 58.015625 25.390625 
L 58.015625 17.1875 
L 47.609375 17.1875 
L 47.609375 0 
L 37.796875 0 
L 37.796875 17.1875 
L 4.890625 17.1875 
L 4.890625 26.703125 
z
" id="DejaVuSans-52"/>
      </defs>
      <g transform="translate(47.93125 58.436513)scale(0.1 -0.1)">
       <use xlink:href="#DejaVuSans-52"/>
       <use x="63.623047" xlink:href="#DejaVuSans-46"/>
       <use x="95.410156" xlink:href="#DejaVuSans-48"/>
      </g>
     </g>
    </g>
    <g id="text_16">
     <!-- droprate -->
     <defs>
      <path d="M 45.40625 46.390625 
L 45.40625 75.984375 
L 54.390625 75.984375 
L 54.390625 0 
L 45.40625 0 
L 45.40625 8.203125 
Q 42.578125 3.328125 38.25 0.953125 
Q 33.9375 -1.421875 27.875 -1.421875 
Q 17.96875 -1.421875 11.734375 6.484375 
Q 5.515625 14.40625 5.515625 27.296875 
Q 5.515625 40.1875 11.734375 48.09375 
Q 17.96875 56 27.875 56 
Q 33.9375 56 38.25 53.625 
Q 42.578125 51.265625 45.40625 46.390625 
z
M 14.796875 27.296875 
Q 14.796875 17.390625 18.875 11.75 
Q 22.953125 6.109375 30.078125 6.109375 
Q 37.203125 6.109375 41.296875 11.75 
Q 45.40625 17.390625 45.40625 27.296875 
Q 45.40625 37.203125 41.296875 42.84375 
Q 37.203125 48.484375 30.078125 48.484375 
Q 22.953125 48.484375 18.875 42.84375 
Q 14.796875 37.203125 14.796875 27.296875 
z
" id="DejaVuSans-100"/>
      <path d="M 41.109375 46.296875 
Q 39.59375 47.171875 37.8125 47.578125 
Q 36.03125 48 33.890625 48 
Q 26.265625 48 22.1875 43.046875 
Q 18.109375 38.09375 18.109375 28.8125 
L 18.109375 0 
L 9.078125 0 
L 9.078125 54.6875 
L 18.109375 54.6875 
L 18.109375 46.1875 
Q 20.953125 51.171875 25.484375 53.578125 
Q 30.03125 56 36.53125 56 
Q 37.453125 56 38.578125 55.875 
Q 39.703125 55.765625 41.0625 55.515625 
z
" id="DejaVuSans-114"/>
      <path d="M 30.609375 48.390625 
Q 23.390625 48.390625 19.1875 42.75 
Q 14.984375 37.109375 14.984375 27.296875 
Q 14.984375 17.484375 19.15625 11.84375 
Q 23.34375 6.203125 30.609375 6.203125 
Q 37.796875 6.203125 41.984375 11.859375 
Q 46.1875 17.53125 46.1875 27.296875 
Q 46.1875 37.015625 41.984375 42.703125 
Q 37.796875 48.390625 30.609375 48.390625 
z
M 30.609375 56 
Q 42.328125 56 49.015625 48.375 
Q 55.71875 40.765625 55.71875 27.296875 
Q 55.71875 13.875 49.015625 6.21875 
Q 42.328125 -1.421875 30.609375 -1.421875 
Q 18.84375 -1.421875 12.171875 6.21875 
Q 5.515625 13.875 5.515625 27.296875 
Q 5.515625 40.765625 12.171875 48.375 
Q 18.84375 56 30.609375 56 
z
" id="DejaVuSans-111"/>
      <path d="M 18.109375 8.203125 
L 18.109375 -20.796875 
L 9.078125 -20.796875 
L 9.078125 54.6875 
L 18.109375 54.6875 
L 18.109375 46.390625 
Q 20.953125 51.265625 25.265625 53.625 
Q 29.59375 56 35.59375 56 
Q 45.5625 56 51.78125 48.09375 
Q 58.015625 40.1875 58.015625 27.296875 
Q 58.015625 14.40625 51.78125 6.484375 
Q 45.5625 -1.421875 35.59375 -1.421875 
Q 29.59375 -1.421875 25.265625 0.953125 
Q 20.953125 3.328125 18.109375 8.203125 
z
M 48.6875 27.296875 
Q 48.6875 37.203125 44.609375 42.84375 
Q 40.53125 48.484375 33.40625 48.484375 
Q 26.265625 48.484375 22.1875 42.84375 
Q 18.109375 37.203125 18.109375 27.296875 
Q 18.109375 17.390625 22.1875 11.75 
Q 26.265625 6.109375 33.40625 6.109375 
Q 40.53125 6.109375 44.609375 11.75 
Q 48.6875 17.390625 48.6875 27.296875 
z
" id="DejaVuSans-112"/>
      <path d="M 34.28125 27.484375 
Q 23.390625 27.484375 19.1875 25 
Q 14.984375 22.515625 14.984375 16.5 
Q 14.984375 11.71875 18.140625 8.90625 
Q 21.296875 6.109375 26.703125 6.109375 
Q 34.1875 6.109375 38.703125 11.40625 
Q 43.21875 16.703125 43.21875 25.484375 
L 43.21875 27.484375 
z
M 52.203125 31.203125 
L 52.203125 0 
L 43.21875 0 
L 43.21875 8.296875 
Q 40.140625 3.328125 35.546875 0.953125 
Q 30.953125 -1.421875 24.3125 -1.421875 
Q 15.921875 -1.421875 10.953125 3.296875 
Q 6 8.015625 6 15.921875 
Q 6 25.140625 12.171875 29.828125 
Q 18.359375 34.515625 30.609375 34.515625 
L 43.21875 34.515625 
L 43.21875 35.40625 
Q 43.21875 41.609375 39.140625 45 
Q 35.0625 48.390625 27.6875 48.390625 
Q 23 48.390625 18.546875 47.265625 
Q 14.109375 46.140625 10.015625 43.890625 
L 10.015625 52.203125 
Q 14.9375 54.109375 19.578125 55.046875 
Q 24.21875 56 28.609375 56 
Q 40.484375 56 46.34375 49.84375 
Q 52.203125 43.703125 52.203125 31.203125 
z
" id="DejaVuSans-97"/>
      <path d="M 18.3125 70.21875 
L 18.3125 54.6875 
L 36.8125 54.6875 
L 36.8125 47.703125 
L 18.3125 47.703125 
L 18.3125 18.015625 
Q 18.3125 11.328125 20.140625 9.421875 
Q 21.96875 7.515625 27.59375 7.515625 
L 36.8125 7.515625 
L 36.8125 0 
L 27.59375 0 
Q 17.1875 0 13.234375 3.875 
Q 9.28125 7.765625 9.28125 18.015625 
L 9.28125 47.703125 
L 2.6875 47.703125 
L 2.6875 54.6875 
L 9.28125 54.6875 
L 9.28125 70.21875 
z
" id="DejaVuSans-116"/>
      <path d="M 56.203125 29.59375 
L 56.203125 25.203125 
L 14.890625 25.203125 
Q 15.484375 15.921875 20.484375 11.0625 
Q 25.484375 6.203125 34.421875 6.203125 
Q 39.59375 6.203125 44.453125 7.46875 
Q 49.3125 8.734375 54.109375 11.28125 
L 54.109375 2.78125 
Q 49.265625 0.734375 44.1875 -0.34375 
Q 39.109375 -1.421875 33.890625 -1.421875 
Q 20.796875 -1.421875 13.15625 6.1875 
Q 5.515625 13.8125 5.515625 26.8125 
Q 5.515625 40.234375 12.765625 48.109375 
Q 20.015625 56 32.328125 56 
Q 43.359375 56 49.78125 48.890625 
Q 56.203125 41.796875 56.203125 29.59375 
z
M 47.21875 32.234375 
Q 47.125 39.59375 43.09375 43.984375 
Q 39.0625 48.390625 32.421875 48.390625 
Q 24.90625 48.390625 20.390625 44.140625 
Q 15.875 39.890625 15.1875 32.171875 
z
" id="DejaVuSans-101"/>
     </defs>
     <g transform="translate(41.851562 215.236302)rotate(-90)scale(0.1 -0.1)">
      <use xlink:href="#DejaVuSans-100"/>
      <use x="63.476562" xlink:href="#DejaVuSans-114"/>
      <use x="104.558594" xlink:href="#DejaVuSans-111"/>
      <use x="165.740234" xlink:href="#DejaVuSans-112"/>
      <use x="229.216797" xlink:href="#DejaVuSans-114"/>
      <use x="270.330078" xlink:href="#DejaVuSans-97"/>
      <use x="331.609375" xlink:href="#DejaVuSans-116"/>
      <use x="370.818359" xlink:href="#DejaVuSans-101"/>
     </g>
    </g>
   </g>
   <g id="line2d_16">
    <path clip-path="url(#p5290e1d2b5)" d="M 91.07005 352.174167 
L 95.562675 352.174167 
L 95.713611 194.580484 
L 95.86261 352.174167 
L 97.498665 352.174167 
L 97.648983 152.273156 
L 97.79803 352.174167 
L 100.196495 352.174167 
L 100.345665 182.878649 
L 100.495111 352.174167 
L 102.468352 352.174167 
L 102.616041 330.768636 
L 102.764671 352.174167 
L 103.214058 352.174167 
L 103.365268 320.744215 
L 103.513806 330.891129 
L 103.661943 352.174167 
L 103.960129 309.668899 
L 104.109114 352.174167 
L 105.151863 352.174167 
L 105.299788 341.486779 
L 105.448374 352.174167 
L 105.74712 352.174167 
L 105.896414 309.729534 
L 106.045733 352.174167 
L 107.687535 352.174167 
L 107.83917 331.250336 
L 107.987382 352.174167 
L 109.02976 352.174167 
L 109.180631 289.136694 
L 109.329531 352.174167 
L 110.522408 352.174167 
L 110.670466 341.486779 
L 110.819217 341.517402 
L 110.96786 352.174167 
L 111.267514 352.174167 
L 111.416128 320.295216 
L 111.564735 352.174167 
L 112.30815 352.174167 
L 112.457374 320.295216 
L 112.606665 352.174167 
L 113.513773 352.174167 
L 113.663223 299.193954 
L 113.815428 352.174167 
L 115.17695 352.174167 
L 115.325071 341.486779 
L 115.473451 352.174167 
L 115.770353 352.174167 
L 115.918476 330.799391 
L 116.221903 352.174167 
L 116.371027 352.174167 
L 116.520333 309.729534 
L 116.669385 352.174167 
L 117.264969 352.174167 
L 117.413842 330.921533 
L 117.564968 352.174167 
L 118.614203 352.174167 
L 118.763974 331.012227 
L 118.913652 352.174167 
L 119.958045 352.174167 
L 120.106252 309.424616 
L 120.25576 352.174167 
L 120.850301 352.174167 
L 120.999089 341.517402 
L 121.153052 352.174167 
L 121.604581 352.174167 
L 121.754333 331.072261 
L 121.902755 352.174167 
L 122.794806 352.174167 
L 122.943757 309.729534 
L 123.095233 352.174167 
L 124.291793 352.174167 
L 124.447573 341.998487 
L 124.603261 352.174167 
L 125.049059 352.174167 
L 125.197032 288.049841 
L 125.345421 352.174167 
L 126.981693 352.174167 
L 127.130043 341.502112 
L 127.278543 341.517402 
L 127.430391 352.174167 
L 127.584375 352.174167 
L 127.735106 299.790914 
L 127.88352 352.174167 
L 129.369532 352.174167 
L 129.522416 321.051063 
L 129.670862 352.174167 
L 130.417849 352.174167 
L 130.569351 341.697516 
L 130.718487 352.174167 
L 131.014786 352.174167 
L 131.163254 298.813895 
L 131.313941 352.174167 
L 132.510586 352.174167 
L 132.66135 331.131955 
L 132.810402 352.174167 
L 133.2596 352.174167 
L 133.412276 341.77078 
L 133.560767 352.174167 
L 133.708932 352.174167 
L 133.859629 331.072261 
L 134.008102 352.174167 
L 134.453536 352.174167 
L 134.601678 298.660341 
L 134.75043 352.174167 
L 136.098782 352.174167 
L 136.247704 320.203872 
L 136.395889 330.830058 
L 136.544244 352.174167 
L 137.435535 352.174167 
L 137.583925 298.890343 
L 137.732326 352.174167 
L 139.536464 352.174167 
L 139.685707 320.386039 
L 139.837125 352.174167 
L 140.437241 352.174167 
L 140.585524 330.768636 
L 140.733463 352.174167 
L 141.477776 352.174167 
L 141.630036 331.338251 
L 141.933708 352.174167 
L 142.973131 352.174167 
L 143.123241 320.566142 
L 143.272472 352.174167 
L 144.17179 352.174167 
L 144.321607 330.982082 
L 144.471787 352.174167 
L 144.620893 352.174167 
L 144.770599 330.951851 
L 144.919012 330.921533 
L 145.068026 352.174167 
L 146.421788 352.174167 
L 146.570458 288.688348 
L 146.71871 352.174167 
L 147.918127 352.174167 
L 148.066815 341.517402 
L 148.21568 352.174167 
L 148.665353 352.174167 
L 148.81414 320.203872 
L 148.962683 352.174167 
L 149.563106 352.174167 
L 149.712344 320.295216 
L 150.012045 352.174167 
L 151.21063 352.174167 
L 151.359928 309.729534 
L 151.509625 352.174167 
L 152.866256 352.174167 
L 153.013943 330.768636 
L 153.164046 352.174167 
L 154.069796 352.174167 
L 154.370452 320.610849 
L 154.519124 352.174167 
L 156.165993 352.174167 
L 156.314433 309.547108 
L 156.464146 352.174167 
L 157.817191 352.174167 
L 157.966629 320.24961 
L 158.114571 352.174167 
L 158.858994 352.174167 
L 159.006763 298.5059 
L 159.154557 352.174167 
L 160.497568 352.174167 
L 160.649607 320.920294 
L 160.797308 352.174167 
L 161.539155 352.174167 
L 161.686848 320.019606 
L 161.834534 352.174167 
L 163.196051 352.174167 
L 163.345126 309.850287 
L 163.493395 352.174167 
L 164.84984 352.174167 
L 165.150501 331.161676 
L 165.301935 352.174167 
L 166.512563 352.174167 
L 166.662326 320.699885 
L 166.812049 352.174167 
L 168.17239 352.174167 
L 168.322811 331.220866 
L 168.471989 352.174167 
L 169.224938 352.174167 
L 169.377275 331.338251 
L 169.527702 352.174167 
L 170.281477 352.174167 
L 170.431405 320.431257 
L 170.730455 352.174167 
L 171.338758 352.174167 
L 171.48775 330.891129 
L 171.636918 352.174167 
L 171.934201 352.174167 
L 172.086334 289.490837 
L 172.234275 352.174167 
L 173.444272 352.174167 
L 173.595385 320.699885 
L 173.747048 352.174167 
L 174.801432 352.174167 
L 174.954473 320.964005 
L 175.105751 352.174167 
L 176.466939 352.174167 
L 176.615402 309.48595 
L 176.76692 352.174167 
L 177.972494 352.174167 
L 178.121281 320.24961 
L 178.271116 352.174167 
L 179.623231 352.174167 
L 179.773821 331.161676 
L 179.922869 352.174167 
L 180.221394 352.174167 
L 180.373059 341.712251 
L 180.521468 352.174167 
L 180.671076 352.174167 
L 180.820123 320.340692 
L 180.9698 352.174167 
L 182.167547 352.174167 
L 182.315626 341.299281 
L 182.464024 352.174167 
L 183.058228 352.174167 
L 183.20636 330.799391 
L 183.35737 352.174167 
L 184.110847 352.174167 
L 184.261556 331.161676 
L 184.4121 352.174167 
L 184.708671 352.174167 
L 184.857322 211.622592 
L 185.005645 352.174167 
L 186.794613 352.174167 
L 186.942867 309.424616 
L 187.091553 352.174167 
L 188.285127 352.174167 
L 188.43407 341.54785 
L 188.586131 352.174167 
L 188.882999 352.174167 
L 189.031456 298.890343 
L 189.179684 352.174167 
L 189.923569 352.174167 
L 190.073391 309.850287 
L 190.221944 352.174167 
L 191.565312 352.174167 
L 191.714974 320.386039 
L 191.862823 352.174167 
L 193.217033 352.174167 
L 193.364679 309.48595 
L 193.513769 352.174167 
L 194.253548 352.174167 
L 194.402021 341.517402 
L 194.55024 352.174167 
L 194.997173 352.174167 
L 195.151436 321.266597 
L 195.299649 352.174167 
L 196.193682 352.174167 
L 196.343667 320.521308 
L 196.492081 352.174167 
L 197.383146 352.174167 
L 197.532261 320.295216 
L 197.681152 352.174167 
L 198.428714 352.174167 
L 198.57736 330.891129 
L 198.876676 352.174167 
L 199.476226 352.174167 
L 199.625346 341.578124 
L 199.774015 341.563009 
L 199.92227 352.174167 
L 200.677388 352.174167 
L 200.8261 320.158004 
L 200.975001 352.174167 
L 202.471559 352.174167 
L 202.619947 320.112004 
L 202.771109 352.174167 
L 203.520701 352.174167 
L 203.669073 299.118376 
L 203.817278 352.174167 
L 205.017072 352.174167 
L 205.164848 320.24961 
L 205.31274 320.019606 
L 205.460269 352.174167 
L 207.095509 352.174167 
L 207.24309 319.973206 
L 207.390573 352.174167 
L 207.850555 352.174167 
L 208.001287 320.610849 
L 208.149167 352.174167 
L 209.50259 352.174167 
L 209.650628 309.48595 
L 209.801967 352.174167 
L 211.153075 352.174167 
L 211.306343 321.223729 
L 211.460499 352.174167 
L 212.812252 352.174167 
L 212.960368 330.768636 
L 213.108297 352.174167 
L 213.410022 352.174167 
L 213.565519 321.60531 
L 213.861351 352.174167 
L 214.910031 352.174167 
L 215.058712 320.203872 
L 215.354761 352.174167 
L 216.698706 352.174167 
L 216.849372 310.089743 
L 217.003176 352.174167 
L 218.790769 352.174167 
L 218.940445 310.030134 
L 219.090051 352.174167 
L 220.294179 352.174167 
L 220.442479 341.471401 
L 220.590838 341.502112 
L 220.739903 352.174167 
L 221.036542 352.174167 
L 221.184523 298.737228 
L 221.333053 352.174167 
L 222.687765 352.174167 
L 222.83585 320.203872 
L 222.983643 352.174167 
L 223.877892 352.174167 
L 224.027581 288.778526 
L 224.175707 352.174167 
L 225.366593 352.174167 
L 225.514585 320.019606 
L 225.662256 352.174167 
L 226.863462 352.174167 
L 227.012031 309.60809 
L 227.161609 352.174167 
L 228.068764 352.174167 
L 228.219701 341.653061 
L 228.369002 352.174167 
L 228.670516 352.174167 
L 228.821288 341.697516 
L 228.974587 352.174167 
L 229.125687 352.174167 
L 229.278682 310.792126 
L 229.426764 352.174167 
L 230.332001 352.174167 
L 230.484681 341.77078 
L 230.63358 352.174167 
L 230.931723 352.174167 
L 231.082632 320.65543 
L 231.233277 352.174167 
L 232.586471 352.174167 
L 232.734567 320.112004 
L 232.886248 352.174167 
L 233.639384 352.174167 
L 233.787323 330.768636 
L 233.936122 330.891129 
L 234.084248 352.174167 
L 235.277944 352.174167 
L 235.426215 309.48595 
L 235.574581 352.174167 
L 236.345212 352.174167 
L 236.499524 331.62604 
L 236.650576 352.174167 
L 237.098384 352.174167 
L 237.246721 330.830058 
L 237.395333 352.174167 
L 237.543859 352.174167 
L 237.692099 341.486779 
L 237.840107 352.174167 
L 238.284095 352.174167 
L 238.432066 341.471401 
L 238.58084 352.174167 
L 239.026601 352.174167 
L 239.174938 330.799391 
L 239.323093 352.174167 
L 240.066257 352.174167 
L 240.214307 330.830058 
L 240.361974 352.174167 
L 241.401269 352.174167 
L 241.549468 320.158004 
L 241.698173 352.174167 
L 242.449953 352.174167 
L 242.6016 320.788421 
L 242.904759 352.174167 
L 244.107414 352.174167 
L 244.258573 320.699885 
L 244.40772 352.174167 
L 245.767293 352.174167 
L 245.916383 309.729534 
L 246.066365 352.174167 
L 247.269642 352.174167 
L 247.420361 320.610849 
L 247.569905 352.174167 
L 248.026002 352.174167 
L 248.174531 298.428344 
L 248.326664 352.174167 
L 249.663333 352.174167 
L 249.811863 330.891129 
L 250.109155 352.174167 
L 250.257976 352.174167 
L 250.406241 341.502112 
L 250.554112 352.174167 
L 250.852541 352.174167 
L 251.001204 309.48595 
L 251.298882 352.174167 
L 252.934415 352.174167 
L 253.087842 331.483146 
L 253.239959 331.511884 
L 253.388995 352.174167 
L 254.579613 352.174167 
L 254.728296 330.860637 
L 254.876636 352.174167 
L 255.766599 352.174167 
L 255.91485 309.48595 
L 256.062869 352.174167 
L 257.843434 352.174167 
L 257.992358 330.891129 
L 258.141176 352.174167 
L 259.044297 352.174167 
L 259.19275 320.203872 
L 259.340742 352.174167 
L 260.528502 352.174167 
L 260.676341 298.737228 
L 260.824222 352.174167 
L 262.162954 352.174167 
L 262.310752 309.301418 
L 262.459479 352.174167 
L 263.643106 352.174167 
L 263.791556 330.799391 
L 263.945015 352.174167 
L 264.841046 352.174167 
L 264.988544 319.926673 
L 265.136286 352.174167 
L 266.324108 352.174167 
L 266.471927 341.471401 
L 266.620547 320.158004 
L 266.769177 352.174167 
L 267.806153 352.174167 
L 267.958107 331.309028 
L 268.107416 331.042287 
L 268.255395 352.174167 
L 268.995045 352.174167 
L 269.142763 320.019606 
L 269.291157 352.174167 
L 270.190566 352.174167 
L 270.341093 320.65543 
L 270.489114 330.392551 
L 270.636687 352.174167 
L 271.679555 352.174167 
L 271.828337 330.675838 
L 271.976543 352.174167 
L 272.273922 352.174167 
L 272.424862 50.163056 
L 272.573918 352.174167 
L 274.52233 352.174167 
L 274.671344 330.921533 
L 274.969376 352.174167 
L 276.180363 352.174167 
L 276.330258 341.608227 
L 276.479961 320.386039 
L 276.630247 352.174167 
L 278.274593 352.174167 
L 278.423993 330.982082 
L 278.573176 330.982082 
L 278.722745 352.174167 
L 279.918613 352.174167 
L 280.068307 341.608227 
L 280.218105 320.476346 
L 280.367566 352.174167 
L 280.985082 352.174167 
L 281.139075 321.351977 
L 281.44663 352.174167 
L 283.090252 352.174167 
L 283.239007 298.966571 
L 283.387647 352.174167 
L 284.726058 352.174167 
L 284.874778 330.830058 
L 285.025431 352.174167 
L 285.324752 352.174167 
L 285.475484 320.566142 
L 285.772221 352.174167 
L 286.972474 352.174167 
L 287.1251 321.007595 
L 287.277512 352.174167 
L 288.172883 352.174167 
L 288.322314 320.386039 
L 288.470448 352.174167 
L 289.820458 352.174167 
L 289.968397 298.660341 
L 290.117345 352.174167 
L 291.916141 352.174167 
L 292.066067 310.149185 
L 292.214911 352.174167 
L 293.259812 352.174167 
L 293.408639 341.517402 
L 293.556847 341.517402 
L 293.704944 352.174167 
L 294.298143 352.174167 
L 294.446625 330.799391 
L 294.594653 352.174167 
L 294.891355 352.174167 
L 295.039313 298.660341 
L 295.186973 352.174167 
L 296.383436 352.174167 
L 296.5337 331.131955 
L 296.683322 331.042287 
L 296.833701 352.174167 
L 298.027811 352.174167 
L 298.183295 321.60531 
L 298.339781 352.174167 
L 299.682152 352.174167 
L 299.830939 330.830058 
L 299.979572 352.174167 
L 300.27593 352.174167 
L 300.42537 320.431257 
L 300.576991 352.174167 
L 301.771427 352.174167 
L 301.920216 309.547108 
L 302.068269 352.174167 
L 303.73465 352.174167 
L 303.889865 331.766974 
L 304.045178 352.174167 
L 304.791194 352.174167 
L 304.939055 330.830058 
L 305.087381 330.768636 
L 305.235674 352.174167 
L 306.587978 352.174167 
L 306.740323 310.560618 
L 306.891866 352.174167 
L 307.041042 352.174167 
L 307.189703 341.517402 
L 307.338423 320.24961 
L 307.486666 352.174167 
L 308.677962 352.174167 
L 308.831929 321.180742 
L 308.980409 352.174167 
L 310.48298 352.174167 
L 310.638012 311.415691 
L 310.786357 352.174167 
L 311.985028 352.174167 
L 312.133152 341.471401 
L 312.282333 352.174167 
L 312.431452 352.174167 
L 312.731153 330.799391 
L 312.879586 352.174167 
L 313.775632 352.174167 
L 313.924755 341.563009 
L 314.074139 352.174167 
L 314.223232 352.174167 
L 314.372381 330.951851 
L 314.521043 352.174167 
L 315.426985 352.174167 
L 315.5757 320.24961 
L 315.724411 352.174167 
L 316.946096 352.174167 
L 317.095873 341.608227 
L 317.244958 320.340692 
L 317.395272 352.174167 
L 318.144797 352.174167 
L 318.295152 310.149185 
L 318.447391 352.174167 
L 318.90042 352.174167 
L 319.049668 341.563009 
L 319.198844 352.174167 
L 319.497796 352.174167 
L 319.646978 330.951851 
L 319.796109 352.174167 
L 320.39702 352.174167 
L 320.549665 331.309028 
L 320.703033 352.174167 
L 321.754345 352.174167 
L 321.903433 309.789997 
L 322.052575 352.174167 
L 323.249231 352.174167 
L 323.399205 299.269317 
L 323.548416 352.174167 
L 324.902182 352.174167 
L 325.051156 330.982082 
L 325.200531 352.174167 
L 326.10283 352.174167 
L 326.255845 341.857354 
L 326.404892 352.174167 
L 326.861971 352.174167 
L 327.010448 320.295216 
L 327.161545 352.174167 
L 327.91163 352.174167 
L 328.06138 331.042287 
L 328.359728 352.174167 
L 329.257078 352.174167 
L 329.405771 330.860637 
L 329.557908 352.174167 
L 329.855855 352.174167 
L 330.154411 330.951851 
L 330.302929 352.174167 
L 331.501389 352.174167 
L 331.656239 321.436886 
L 331.803965 352.174167 
L 332.397561 352.174167 
L 332.545997 330.830058 
L 332.694703 352.174167 
L 333.141549 352.174167 
L 333.438513 330.70686 
L 333.586314 352.174167 
L 334.785573 352.174167 
L 334.936765 310.267565 
L 335.086382 352.174167 
L 336.43888 352.174167 
L 336.739179 331.279723 
L 336.890367 352.174167 
L 337.492622 352.174167 
L 337.643171 341.638158 
L 337.79083 352.174167 
L 338.094374 352.174167 
L 338.245057 331.220866 
L 338.395261 352.174167 
L 339.298718 352.174167 
L 339.448564 331.072261 
L 339.600582 352.174167 
L 340.361327 352.174167 
L 340.515362 321.309346 
L 340.66704 352.174167 
L 341.869456 352.174167 
L 342.018414 309.729534 
L 342.170607 352.174167 
L 343.827944 352.174167 
L 343.977242 320.340692 
L 344.127149 352.174167 
L 345.628389 352.174167 
L 345.778085 341.593197 
L 345.927075 352.174167 
L 346.076556 352.174167 
L 346.226111 330.982082 
L 346.378617 331.367392 
L 346.527864 352.174167 
L 347.274829 352.174167 
L 347.424725 341.638158 
L 347.573881 352.174167 
L 348.028024 352.174167 
L 348.181808 310.906917 
L 348.334093 352.174167 
L 349.230677 352.174167 
L 349.381119 331.10215 
L 349.533271 352.174167 
L 350.285333 352.174167 
L 350.434369 309.729534 
L 350.583293 352.174167 
L 351.932662 352.174167 
L 352.083126 341.667921 
L 352.231747 320.24961 
L 352.380639 352.174167 
L 352.976373 352.174167 
L 353.126176 341.593197 
L 353.277036 352.174167 
L 353.727035 352.174167 
L 353.879109 310.502336 
L 354.02774 352.174167 
L 354.920542 352.174167 
L 355.071087 331.10215 
L 355.219998 352.174167 
L 356.110569 352.174167 
L 356.264067 341.814248 
L 356.412472 341.532648 
L 356.566381 352.174167 
L 357.313705 352.174167 
L 357.462232 320.158004 
L 357.61064 352.174167 
L 358.951033 352.174167 
L 359.099984 341.532648 
L 359.248997 352.174167 
L 359.549512 352.174167 
L 359.698986 341.593197 
L 359.853175 341.885893 
L 360.003717 352.174167 
L 360.756856 352.174167 
L 360.908163 331.309028 
L 361.057132 352.174167 
L 361.951671 352.174167 
L 362.101295 320.340692 
L 362.251324 352.174167 
L 363.001815 352.174167 
L 363.150863 341.532648 
L 363.301916 341.68274 
L 363.452712 352.174167 
L 364.056882 352.174167 
L 364.205431 320.158004 
L 364.353466 352.174167 
L 364.504187 352.174167 
L 364.655295 331.250336 
L 364.806644 352.174167 
L 364.956691 352.174167 
L 365.11027 341.828656 
L 365.261809 352.174167 
L 365.413942 352.174167 
L 365.564954 331.309028 
L 365.713826 352.174167 
L 366.464056 352.174167 
L 366.612696 320.340692 
L 366.765092 352.174167 
L 367.674931 352.174167 
L 367.826652 310.502336 
L 367.976039 352.174167 
L 369.025616 352.174167 
L 369.176755 320.744215 
L 369.325804 352.174167 
L 370.22214 352.174167 
L 370.370881 341.532648 
L 370.519431 352.174167 
L 370.966272 352.174167 
L 371.1226 311.471448 
L 371.272133 352.174167 
L 372.46604 352.174167 
L 372.615206 341.563009 
L 372.76411 352.174167 
L 373.211349 352.174167 
L 373.360339 320.295216 
L 373.509851 352.174167 
L 374.704586 352.174167 
L 374.852918 330.891129 
L 375.000628 330.737793 
L 375.149152 352.174167 
L 376.341031 352.174167 
L 376.489333 341.517402 
L 376.637892 352.174167 
L 377.090638 352.174167 
L 377.242536 320.920294 
L 377.39267 352.174167 
L 378.149492 352.174167 
L 378.299377 320.431257 
L 378.447047 352.174167 
L 379.19282 352.174167 
L 379.348192 341.984548 
L 379.503645 341.984548 
L 379.658978 352.174167 
L 379.969691 352.174167 
L 380.117689 320.295216 
L 380.265496 352.174167 
L 381.008995 352.174167 
L 381.156765 320.019606 
L 381.304573 352.174167 
L 382.051158 352.174167 
L 382.199026 341.471401 
L 382.347781 341.502112 
L 382.500949 352.174167 
L 383.101628 352.174167 
L 383.250291 309.424616 
L 383.402499 352.174167 
L 383.851257 352.174167 
L 384.147317 330.768636 
L 384.295551 352.174167 
L 384.897322 352.174167 
L 385.04507 298.660341 
L 385.193456 352.174167 
L 386.551422 352.174167 
L 386.703489 320.964005 
L 386.857254 352.174167 
L 387.767248 352.174167 
L 387.915981 309.48595 
L 388.065618 352.174167 
L 388.963648 352.174167 
L 389.111805 330.830058 
L 389.261208 352.174167 
L 390.156431 352.174167 
L 390.305121 330.860637 
L 390.461203 352.174167 
L 390.764351 352.174167 
L 390.912644 309.424616 
L 391.06096 352.174167 
L 392.270394 352.174167 
L 392.420573 309.970355 
L 392.570318 352.174167 
L 392.870391 352.174167 
L 393.021218 331.161676 
L 393.170386 352.174167 
L 393.623932 352.174167 
L 393.772262 320.295216 
L 393.92262 352.174167 
L 394.817874 352.174167 
L 394.96586 320.158004 
L 395.114565 352.174167 
L 395.861056 352.174167 
L 396.0099 341.54785 
L 396.159143 341.578124 
L 396.308786 352.174167 
L 396.609703 352.174167 
L 396.762468 321.137636 
L 396.911718 352.174167 
L 398.117643 352.174167 
L 398.267074 331.012227 
L 398.415221 352.174167 
L 399.316197 352.174167 
L 399.468501 300.157231 
L 399.618568 352.174167 
L 400.830166 352.174167 
L 400.98143 320.699885 
L 401.284548 352.174167 
L 401.878173 352.174167 
L 402.026556 341.471401 
L 402.174967 352.174167 
L 402.619471 352.174167 
L 402.767905 330.891129 
L 403.065565 352.174167 
L 403.821906 352.174167 
L 403.970951 320.476346 
L 404.120846 352.174167 
L 405.321732 352.174167 
L 405.471548 341.608227 
L 405.621837 320.566142 
L 405.775192 352.174167 
L 406.530909 352.174167 
L 406.67971 341.517402 
L 406.830175 352.174167 
L 406.983233 352.174167 
L 407.131736 330.891129 
L 407.432003 352.174167 
L 408.326763 352.174167 
L 408.475501 309.668899 
L 408.624578 352.174167 
L 409.960228 352.174167 
L 410.109197 341.54785 
L 410.257653 352.174167 
L 410.406344 352.174167 
L 410.559537 331.454329 
L 410.709284 352.174167 
L 411.603895 352.174167 
L 411.752895 341.563009 
L 411.901827 352.174167 
L 412.20177 352.174167 
L 412.35223 310.089743 
L 412.50241 352.174167 
L 413.842378 352.174167 
L 413.99043 341.486779 
L 414.138442 352.174167 
L 414.583827 352.174167 
L 414.73292 330.860637 
L 414.880731 352.174167 
L 415.620913 352.174167 
L 415.769623 309.48595 
L 415.917296 352.174167 
L 417.261242 352.174167 
L 417.409629 330.799391 
L 417.562739 352.174167 
L 418.452174 352.174167 
L 418.601558 330.921533 
L 418.749039 352.174167 
L 419.340719 352.174167 
L 419.493728 331.367392 
L 419.641656 352.174167 
L 420.380211 352.174167 
L 420.528408 320.112004 
L 420.682045 352.174167 
L 421.718728 352.174167 
L 421.867072 320.112004 
L 422.014546 352.174167 
L 423.345163 352.174167 
L 423.492959 330.70686 
L 423.643795 352.174167 
L 424.685939 352.174167 
L 424.836875 341.653061 
L 424.984512 352.174167 
L 425.136925 352.174167 
L 425.286152 309.729534 
L 425.43363 352.174167 
L 426.3301 352.174167 
L 426.477611 341.440513 
L 426.62514 352.174167 
L 426.921693 352.174167 
L 427.069733 320.065871 
L 427.218229 352.174167 
L 428.261753 352.174167 
L 428.416039 310.964074 
L 428.569954 352.174167 
L 429.320251 352.174167 
L 429.616994 330.799391 
L 429.765942 352.174167 
L 430.956323 352.174167 
L 431.108371 310.44389 
L 431.260488 352.174167 
L 432.159087 352.174167 
L 432.306958 287.957575 
L 432.455219 352.174167 
L 434.111951 352.174167 
L 434.260578 309.547108 
L 434.409158 352.174167 
L 436.199852 352.174167 
L 436.347846 320.112004 
L 436.496357 352.174167 
L 437.240431 352.174167 
L 437.38867 330.799391 
L 437.536755 352.174167 
L 438.444242 352.174167 
L 438.59295 320.340692 
L 438.74254 352.174167 
L 439.635058 352.174167 
L 439.783553 309.363106 
L 439.93456 352.174167 
L 440.684878 352.174167 
L 440.835758 320.699885 
L 441.134848 352.174167 
L 442.478769 352.174167 
L 442.627476 309.60809 
L 442.777271 352.174167 
L 443.987294 352.174167 
L 444.138938 341.697516 
L 444.290672 352.174167 
L 444.441906 352.174167 
L 444.592151 331.072261 
L 444.743384 352.174167 
L 445.641843 352.174167 
L 445.792458 320.610849 
L 445.942554 352.174167 
L 446.838623 352.174167 
L 446.987849 330.891129 
L 447.138771 352.174167 
L 447.439888 352.174167 
L 447.591585 320.832502 
L 447.745346 352.174167 
L 448.654916 352.174167 
L 448.803831 320.295216 
L 448.952146 352.174167 
L 449.400433 352.174167 
L 449.548848 330.830058 
L 449.69811 352.174167 
L 450.442329 352.174167 
L 450.590866 330.860637 
L 450.738915 352.174167 
L 451.487271 352.174167 
L 451.637638 320.566142 
L 451.786049 352.174167 
L 452.53377 352.174167 
L 452.840058 331.483146 
L 452.989031 352.174167 
L 454.490713 352.174167 
L 454.64012 309.850287 
L 454.790712 352.174167 
L 455.991191 352.174167 
L 456.141285 331.072261 
L 456.289091 352.174167 
L 457.182855 352.174167 
L 457.330486 309.239553 
L 457.478117 352.174167 
L 458.667466 352.174167 
L 458.815122 341.45598 
L 458.964716 352.174167 
L 459.416921 352.174167 
L 459.564618 330.737793 
L 459.863954 352.174167 
L 460.611986 352.174167 
L 460.762348 331.161676 
L 460.910312 352.174167 
L 461.516342 352.174167 
L 461.673605 342.067615 
L 461.825172 341.785309 
L 461.974318 352.174167 
L 462.425947 352.174167 
L 462.574665 341.502112 
L 462.731635 352.174167 
L 463.185207 352.174167 
L 463.335527 310.089743 
L 463.490392 352.174167 
L 464.539203 352.174167 
L 464.693912 311.077914 
L 464.847324 352.174167 
L 466.075991 352.174167 
L 466.227858 331.250336 
L 466.377573 352.174167 
L 466.680476 352.174167 
L 466.834131 321.180742 
L 466.990525 352.174167 
L 467.739844 352.174167 
L 467.889869 341.623214 
L 468.039126 341.593197 
L 468.18788 352.174167 
L 469.091499 352.174167 
L 469.248287 311.802814 
L 469.405002 352.174167 
L 470.013592 352.174167 
L 470.31667 330.830058 
L 470.467423 352.174167 
L 470.924089 352.174167 
L 471.07453 331.161676 
L 471.374793 352.174167 
L 471.994 352.174167 
L 472.151612 332.015842 
L 472.300717 352.174167 
L 473.211636 352.174167 
L 473.361863 320.386039 
L 473.513624 352.174167 
L 474.571803 352.174167 
L 474.720746 309.789997 
L 474.870455 352.174167 
L 476.241695 352.174167 
L 476.39523 341.871643 
L 476.547637 352.174167 
L 476.699456 352.174167 
L 477.008217 331.250336 
L 477.16387 352.174167 
L 477.761087 352.174167 
L 477.910032 309.668899 
L 478.063514 352.174167 
L 478.520624 352.174167 
L 478.828742 321.351977 
L 478.978247 352.174167 
L 480.644563 352.174167 
L 480.797381 331.454329 
L 480.949759 352.174167 
L 481.102834 341.843025 
L 481.259893 352.174167 
L 481.86995 352.174167 
L 482.019655 331.072261 
L 482.172601 352.174167 
L 483.088377 352.174167 
L 483.243315 341.9425 
L 483.391543 352.174167 
L 483.69815 352.174167 
L 483.853483 341.9425 
L 484.011717 352.174167 
L 484.322534 352.174167 
L 484.479281 331.98849 
L 484.776731 352.174167 
L 485.992953 352.174167 
L 486.145386 320.876459 
L 486.303812 352.174167 
L 487.666916 352.174167 
L 487.815833 299.269317 
L 487.965341 352.174167 
L 489.158062 352.174167 
L 489.310811 289.753844 
L 489.461169 341.68274 
L 489.611174 352.174167 
L 490.818993 352.174167 
L 490.968115 320.24961 
L 491.11689 352.174167 
L 492.018222 352.174167 
L 492.167427 330.951851 
L 492.31656 352.174167 
L 492.628859 352.174167 
L 492.778106 341.608227 
L 492.927226 352.174167 
L 493.229256 352.174167 
L 493.37869 330.982082 
L 493.528472 352.174167 
L 494.424984 352.174167 
L 494.5769 310.38528 
L 494.726304 352.174167 
L 495.783544 352.174167 
L 495.783544 352.174167 
" style="fill:none;stroke:#1f77b4;stroke-linecap:square;stroke-width:1.5;"/>
   </g>
   <g id="patch_3">
    <path d="M 70.834375 352.174167 
L 70.834375 35.0625 
" style="fill:none;stroke:#000000;stroke-linecap:square;stroke-linejoin:miter;stroke-width:0.8;"/>
   </g>
   <g id="patch_4">
    <path d="M 516.019219 352.174167 
L 516.019219 35.0625 
" style="fill:none;stroke:#000000;stroke-linecap:square;stroke-linejoin:miter;stroke-width:0.8;"/>
   </g>
   <g id="patch_5">
    <path d="M 70.834375 352.174167 
L 516.019219 352.174167 
" style="fill:none;stroke:#000000;stroke-linecap:square;stroke-linejoin:miter;stroke-width:0.8;"/>
   </g>
   <g id="patch_6">
    <path d="M 70.834375 35.0625 
L 516.019219 35.0625 
" style="fill:none;stroke:#000000;stroke-linecap:square;stroke-linejoin:miter;stroke-width:0.8;"/>
   </g>
   <g id="legend_1">
    <g id="patch_7">
     <path d="M 540.278461 53.01875 
L 620.514398 53.01875 
Q 622.514398 53.01875 622.514398 51.01875 
L 622.514398 37.0625 
Q 622.514398 35.0625 620.514398 35.0625 
L 540.278461 35.0625 
Q 538.278461 35.0625 538.278461 37.0625 
L 538.278461 51.01875 
Q 538.278461 53.01875 540.278461 53.01875 
z
" style="fill:#ffffff;opacity:0.8;stroke:#cccccc;stroke-linejoin:miter;"/>
    </g>
    <g id="line2d_17">
     <path d="M 542.278461 43.160937 
L 562.278461 43.160937 
" style="fill:none;stroke:#1f77b4;stroke-linecap:square;stroke-width:1.5;"/>
    </g>
    <g id="line2d_18"/>
    <g id="text_17">
     <!-- drop_rate -->
     <defs>
      <path d="M 50.984375 -16.609375 
L 50.984375 -23.578125 
L -0.984375 -23.578125 
L -0.984375 -16.609375 
z
" id="DejaVuSans-95"/>
     </defs>
     <g transform="translate(570.278461 46.660937)scale(0.1 -0.1)">
      <use xlink:href="#DejaVuSans-100"/>
      <use x="63.476562" xlink:href="#DejaVuSans-114"/>
      <use x="104.558594" xlink:href="#DejaVuSans-111"/>
      <use x="165.740234" xlink:href="#DejaVuSans-112"/>
      <use x="229.216797" xlink:href="#DejaVuSans-95"/>
      <use x="279.216797" xlink:href="#DejaVuSans-114"/>
      <use x="320.330078" xlink:href="#DejaVuSans-97"/>
      <use x="381.609375" xlink:href="#DejaVuSans-116"/>
      <use x="420.818359" xlink:href="#DejaVuSans-101"/>
     </g>
    </g>
   </g>
  </g>
  <g id="text_18">
   <!-- result droprate -->
   <defs>
    <path d="M 44.28125 53.078125 
L 44.28125 44.578125 
Q 40.484375 46.53125 36.375 47.5 
Q 32.28125 48.484375 27.875 48.484375 
Q 21.1875 48.484375 17.84375 46.4375 
Q 14.5 44.390625 14.5 40.28125 
Q 14.5 37.15625 16.890625 35.375 
Q 19.28125 33.59375 26.515625 31.984375 
L 29.59375 31.296875 
Q 39.15625 29.25 43.1875 25.515625 
Q 47.21875 21.78125 47.21875 15.09375 
Q 47.21875 7.46875 41.1875 3.015625 
Q 35.15625 -1.421875 24.609375 -1.421875 
Q 20.21875 -1.421875 15.453125 -0.5625 
Q 10.6875 0.296875 5.421875 2 
L 5.421875 11.28125 
Q 10.40625 8.6875 15.234375 7.390625 
Q 20.0625 6.109375 24.8125 6.109375 
Q 31.15625 6.109375 34.5625 8.28125 
Q 37.984375 10.453125 37.984375 14.40625 
Q 37.984375 18.0625 35.515625 20.015625 
Q 33.0625 21.96875 24.703125 23.78125 
L 21.578125 24.515625 
Q 13.234375 26.265625 9.515625 29.90625 
Q 5.8125 33.546875 5.8125 39.890625 
Q 5.8125 47.609375 11.28125 51.796875 
Q 16.75 56 26.8125 56 
Q 31.78125 56 36.171875 55.265625 
Q 40.578125 54.546875 44.28125 53.078125 
z
" id="DejaVuSans-115"/>
    <path d="M 8.5 21.578125 
L 8.5 54.6875 
L 17.484375 54.6875 
L 17.484375 21.921875 
Q 17.484375 14.15625 20.5 10.265625 
Q 23.53125 6.390625 29.59375 6.390625 
Q 36.859375 6.390625 41.078125 11.03125 
Q 45.3125 15.671875 45.3125 23.6875 
L 45.3125 54.6875 
L 54.296875 54.6875 
L 54.296875 0 
L 45.3125 0 
L 45.3125 8.40625 
Q 42.046875 3.421875 37.71875 1 
Q 33.40625 -1.421875 27.6875 -1.421875 
Q 18.265625 -1.421875 13.375 4.4375 
Q 8.5 10.296875 8.5 21.578125 
z
M 31.109375 56 
z
" id="DejaVuSans-117"/>
    <path d="M 9.421875 75.984375 
L 18.40625 75.984375 
L 18.40625 0 
L 9.421875 0 
z
" id="DejaVuSans-108"/>
    <path id="DejaVuSans-32"/>
   </defs>
   <g transform="translate(297.047813 17.038125)scale(0.12 -0.12)">
    <use xlink:href="#DejaVuSans-114"/>
    <use x="41.082031" xlink:href="#DejaVuSans-101"/>
    <use x="102.605469" xlink:href="#DejaVuSans-115"/>
    <use x="154.705078" xlink:href="#DejaVuSans-117"/>
    <use x="218.083984" xlink:href="#DejaVuSans-108"/>
    <use x="245.867188" xlink:href="#DejaVuSans-116"/>
    <use x="285.076172" xlink:href="#DejaVuSans-32"/>
    <use x="316.863281" xlink:href="#DejaVuSans-100"/>
    <use x="380.339844" xlink:href="#DejaVuSans-114"/>
    <use x="421.421875" xlink:href="#DejaVuSans-111"/>
    <use x="482.603516" xlink:href="#DejaVuSans-112"/>
    <use x="546.080078" xlink:href="#DejaVuSans-114"/>
    <use x="587.193359" xlink:href="#DejaVuSans-97"/>
    <use x="648.472656" xlink:href="#DejaVuSans-116"/>
    <use x="687.681641" xlink:href="#DejaVuSans-101"/>
   </g>
  </g>
 </g>
 <defs>
  <clipPath id="p5290e1d2b5">
   <rect height="317.111667" width="445.184844" x="70.834375" y="35.0625"/>
  </clipPath>
 </defs>
</svg>
