<?xml version="1.0" encoding="utf-8" standalone="no"?>
<!DOCTYPE svg PUBLIC "-//W3C//DTD SVG 1.1//EN"
  "http://www.w3.org/Graphics/SVG/1.1/DTD/svg11.dtd">
<!-- Created with matplotlib (https://matplotlib.org/) -->
<svg height="396pt" version="1.1" viewBox="0 0 684 396" width="684pt" xmlns="http://www.w3.org/2000/svg" xmlns:xlink="http://www.w3.org/1999/xlink">
 <defs>
  <style type="text/css">
*{stroke-linecap:butt;stroke-linejoin:round;}
  </style>
 </defs>
 <g id="figure_1">
  <g id="patch_1">
   <path d="M 0 396 
L 684 396 
L 684 0 
L 0 0 
z
" style="fill:#ffffff;"/>
  </g>
  <g id="axes_1">
   <g id="patch_2">
    <path d="M 83.472344 352.174167 
L 529.912969 352.174167 
L 529.912969 35.0625 
L 83.472344 35.0625 
z
" style="fill:#ffffff;"/>
   </g>
   <g id="matplotlib.axis_1">
    <g id="xtick_1">
     <g id="line2d_1">
      <defs>
       <path d="M 0 0 
L 0 3.5 
" id="mf01b27478f" style="stroke:#000000;stroke-width:0.8;"/>
      </defs>
      <g>
       <use style="stroke:#000000;stroke-width:0.8;" x="103.765099" xlink:href="#mf01b27478f" y="352.174167"/>
      </g>
     </g>
     <g id="text_1">
      <!-- 0 -->
      <defs>
       <path d="M 31.78125 66.40625 
Q 24.171875 66.40625 20.328125 58.90625 
Q 16.5 51.421875 16.5 36.375 
Q 16.5 21.390625 20.328125 13.890625 
Q 24.171875 6.390625 31.78125 6.390625 
Q 39.453125 6.390625 43.28125 13.890625 
Q 47.125 21.390625 47.125 36.375 
Q 47.125 51.421875 43.28125 58.90625 
Q 39.453125 66.40625 31.78125 66.40625 
z
M 31.78125 74.21875 
Q 44.046875 74.21875 50.515625 64.515625 
Q 56.984375 54.828125 56.984375 36.375 
Q 56.984375 17.96875 50.515625 8.265625 
Q 44.046875 -1.421875 31.78125 -1.421875 
Q 19.53125 -1.421875 13.0625 8.265625 
Q 6.59375 17.96875 6.59375 36.375 
Q 6.59375 54.828125 13.0625 64.515625 
Q 19.53125 74.21875 31.78125 74.21875 
z
" id="DejaVuSans-48"/>
      </defs>
      <g transform="translate(100.583849 366.772604)scale(0.1 -0.1)">
       <use xlink:href="#DejaVuSans-48"/>
      </g>
     </g>
    </g>
    <g id="xtick_2">
     <g id="line2d_2">
      <g>
       <use style="stroke:#000000;stroke-width:0.8;" x="177.425688" xlink:href="#mf01b27478f" y="352.174167"/>
      </g>
     </g>
     <g id="text_2">
      <!-- 50 -->
      <defs>
       <path d="M 10.796875 72.90625 
L 49.515625 72.90625 
L 49.515625 64.59375 
L 19.828125 64.59375 
L 19.828125 46.734375 
Q 21.96875 47.46875 24.109375 47.828125 
Q 26.265625 48.1875 28.421875 48.1875 
Q 40.625 48.1875 47.75 41.5 
Q 54.890625 34.8125 54.890625 23.390625 
Q 54.890625 11.625 47.5625 5.09375 
Q 40.234375 -1.421875 26.90625 -1.421875 
Q 22.3125 -1.421875 17.546875 -0.640625 
Q 12.796875 0.140625 7.71875 1.703125 
L 7.71875 11.625 
Q 12.109375 9.234375 16.796875 8.0625 
Q 21.484375 6.890625 26.703125 6.890625 
Q 35.15625 6.890625 40.078125 11.328125 
Q 45.015625 15.765625 45.015625 23.390625 
Q 45.015625 31 40.078125 35.4375 
Q 35.15625 39.890625 26.703125 39.890625 
Q 22.75 39.890625 18.8125 39.015625 
Q 14.890625 38.140625 10.796875 36.28125 
z
" id="DejaVuSans-53"/>
      </defs>
      <g transform="translate(171.063188 366.772604)scale(0.1 -0.1)">
       <use xlink:href="#DejaVuSans-53"/>
       <use x="63.623047" xlink:href="#DejaVuSans-48"/>
      </g>
     </g>
    </g>
    <g id="xtick_3">
     <g id="line2d_3">
      <g>
       <use style="stroke:#000000;stroke-width:0.8;" x="251.086278" xlink:href="#mf01b27478f" y="352.174167"/>
      </g>
     </g>
     <g id="text_3">
      <!-- 100 -->
      <defs>
       <path d="M 12.40625 8.296875 
L 28.515625 8.296875 
L 28.515625 63.921875 
L 10.984375 60.40625 
L 10.984375 69.390625 
L 28.421875 72.90625 
L 38.28125 72.90625 
L 38.28125 8.296875 
L 54.390625 8.296875 
L 54.390625 0 
L 12.40625 0 
z
" id="DejaVuSans-49"/>
      </defs>
      <g transform="translate(241.542528 366.772604)scale(0.1 -0.1)">
       <use xlink:href="#DejaVuSans-49"/>
       <use x="63.623047" xlink:href="#DejaVuSans-48"/>
       <use x="127.246094" xlink:href="#DejaVuSans-48"/>
      </g>
     </g>
    </g>
    <g id="xtick_4">
     <g id="line2d_4">
      <g>
       <use style="stroke:#000000;stroke-width:0.8;" x="324.746867" xlink:href="#mf01b27478f" y="352.174167"/>
      </g>
     </g>
     <g id="text_4">
      <!-- 150 -->
      <g transform="translate(315.203117 366.772604)scale(0.1 -0.1)">
       <use xlink:href="#DejaVuSans-49"/>
       <use x="63.623047" xlink:href="#DejaVuSans-53"/>
       <use x="127.246094" xlink:href="#DejaVuSans-48"/>
      </g>
     </g>
    </g>
    <g id="xtick_5">
     <g id="line2d_5">
      <g>
       <use style="stroke:#000000;stroke-width:0.8;" x="398.407456" xlink:href="#mf01b27478f" y="352.174167"/>
      </g>
     </g>
     <g id="text_5">
      <!-- 200 -->
      <defs>
       <path d="M 19.1875 8.296875 
L 53.609375 8.296875 
L 53.609375 0 
L 7.328125 0 
L 7.328125 8.296875 
Q 12.9375 14.109375 22.625 23.890625 
Q 32.328125 33.6875 34.8125 36.53125 
Q 39.546875 41.84375 41.421875 45.53125 
Q 43.3125 49.21875 43.3125 52.78125 
Q 43.3125 58.59375 39.234375 62.25 
Q 35.15625 65.921875 28.609375 65.921875 
Q 23.96875 65.921875 18.8125 64.3125 
Q 13.671875 62.703125 7.8125 59.421875 
L 7.8125 69.390625 
Q 13.765625 71.78125 18.9375 73 
Q 24.125 74.21875 28.421875 74.21875 
Q 39.75 74.21875 46.484375 68.546875 
Q 53.21875 62.890625 53.21875 53.421875 
Q 53.21875 48.921875 51.53125 44.890625 
Q 49.859375 40.875 45.40625 35.40625 
Q 44.1875 33.984375 37.640625 27.21875 
Q 31.109375 20.453125 19.1875 8.296875 
z
" id="DejaVuSans-50"/>
      </defs>
      <g transform="translate(388.863706 366.772604)scale(0.1 -0.1)">
       <use xlink:href="#DejaVuSans-50"/>
       <use x="63.623047" xlink:href="#DejaVuSans-48"/>
       <use x="127.246094" xlink:href="#DejaVuSans-48"/>
      </g>
     </g>
    </g>
    <g id="xtick_6">
     <g id="line2d_6">
      <g>
       <use style="stroke:#000000;stroke-width:0.8;" x="472.068045" xlink:href="#mf01b27478f" y="352.174167"/>
      </g>
     </g>
     <g id="text_6">
      <!-- 250 -->
      <g transform="translate(462.524295 366.772604)scale(0.1 -0.1)">
       <use xlink:href="#DejaVuSans-50"/>
       <use x="63.623047" xlink:href="#DejaVuSans-53"/>
       <use x="127.246094" xlink:href="#DejaVuSans-48"/>
      </g>
     </g>
    </g>
   </g>
   <g id="matplotlib.axis_2">
    <g id="ytick_1">
     <g id="line2d_7">
      <defs>
       <path d="M 0 0 
L -3.5 0 
" id="m9157c14816" style="stroke:#000000;stroke-width:0.8;"/>
      </defs>
      <g>
       <use style="stroke:#000000;stroke-width:0.8;" x="83.472344" xlink:href="#m9157c14816" y="352.174167"/>
      </g>
     </g>
     <g id="text_7">
      <!-- 0 -->
      <g transform="translate(70.109844 355.973385)scale(0.1 -0.1)">
       <use xlink:href="#DejaVuSans-48"/>
      </g>
     </g>
    </g>
    <g id="ytick_2">
     <g id="line2d_8">
      <g>
       <use style="stroke:#000000;stroke-width:0.8;" x="83.472344" xlink:href="#m9157c14816" y="313.75967"/>
      </g>
     </g>
     <g id="text_8">
      <!-- 10 -->
      <g transform="translate(63.747344 317.558889)scale(0.1 -0.1)">
       <use xlink:href="#DejaVuSans-49"/>
       <use x="63.623047" xlink:href="#DejaVuSans-48"/>
      </g>
     </g>
    </g>
    <g id="ytick_3">
     <g id="line2d_9">
      <g>
       <use style="stroke:#000000;stroke-width:0.8;" x="83.472344" xlink:href="#m9157c14816" y="275.345174"/>
      </g>
     </g>
     <g id="text_9">
      <!-- 20 -->
      <g transform="translate(63.747344 279.144393)scale(0.1 -0.1)">
       <use xlink:href="#DejaVuSans-50"/>
       <use x="63.623047" xlink:href="#DejaVuSans-48"/>
      </g>
     </g>
    </g>
    <g id="ytick_4">
     <g id="line2d_10">
      <g>
       <use style="stroke:#000000;stroke-width:0.8;" x="83.472344" xlink:href="#m9157c14816" y="236.930678"/>
      </g>
     </g>
     <g id="text_10">
      <!-- 30 -->
      <defs>
       <path d="M 40.578125 39.3125 
Q 47.65625 37.796875 51.625 33 
Q 55.609375 28.21875 55.609375 21.1875 
Q 55.609375 10.40625 48.1875 4.484375 
Q 40.765625 -1.421875 27.09375 -1.421875 
Q 22.515625 -1.421875 17.65625 -0.515625 
Q 12.796875 0.390625 7.625 2.203125 
L 7.625 11.71875 
Q 11.71875 9.328125 16.59375 8.109375 
Q 21.484375 6.890625 26.8125 6.890625 
Q 36.078125 6.890625 40.9375 10.546875 
Q 45.796875 14.203125 45.796875 21.1875 
Q 45.796875 27.640625 41.28125 31.265625 
Q 36.765625 34.90625 28.71875 34.90625 
L 20.21875 34.90625 
L 20.21875 43.015625 
L 29.109375 43.015625 
Q 36.375 43.015625 40.234375 45.921875 
Q 44.09375 48.828125 44.09375 54.296875 
Q 44.09375 59.90625 40.109375 62.90625 
Q 36.140625 65.921875 28.71875 65.921875 
Q 24.65625 65.921875 20.015625 65.03125 
Q 15.375 64.15625 9.8125 62.3125 
L 9.8125 71.09375 
Q 15.4375 72.65625 20.34375 73.4375 
Q 25.25 74.21875 29.59375 74.21875 
Q 40.828125 74.21875 47.359375 69.109375 
Q 53.90625 64.015625 53.90625 55.328125 
Q 53.90625 49.265625 50.4375 45.09375 
Q 46.96875 40.921875 40.578125 39.3125 
z
" id="DejaVuSans-51"/>
      </defs>
      <g transform="translate(63.747344 240.729897)scale(0.1 -0.1)">
       <use xlink:href="#DejaVuSans-51"/>
       <use x="63.623047" xlink:href="#DejaVuSans-48"/>
      </g>
     </g>
    </g>
    <g id="ytick_5">
     <g id="line2d_11">
      <g>
       <use style="stroke:#000000;stroke-width:0.8;" x="83.472344" xlink:href="#m9157c14816" y="198.516182"/>
      </g>
     </g>
     <g id="text_11">
      <!-- 40 -->
      <defs>
       <path d="M 37.796875 64.3125 
L 12.890625 25.390625 
L 37.796875 25.390625 
z
M 35.203125 72.90625 
L 47.609375 72.90625 
L 47.609375 25.390625 
L 58.015625 25.390625 
L 58.015625 17.1875 
L 47.609375 17.1875 
L 47.609375 0 
L 37.796875 0 
L 37.796875 17.1875 
L 4.890625 17.1875 
L 4.890625 26.703125 
z
" id="DejaVuSans-52"/>
      </defs>
      <g transform="translate(63.747344 202.3154)scale(0.1 -0.1)">
       <use xlink:href="#DejaVuSans-52"/>
       <use x="63.623047" xlink:href="#DejaVuSans-48"/>
      </g>
     </g>
    </g>
    <g id="ytick_6">
     <g id="line2d_12">
      <g>
       <use style="stroke:#000000;stroke-width:0.8;" x="83.472344" xlink:href="#m9157c14816" y="160.101685"/>
      </g>
     </g>
     <g id="text_12">
      <!-- 50 -->
      <g transform="translate(63.747344 163.900904)scale(0.1 -0.1)">
       <use xlink:href="#DejaVuSans-53"/>
       <use x="63.623047" xlink:href="#DejaVuSans-48"/>
      </g>
     </g>
    </g>
    <g id="ytick_7">
     <g id="line2d_13">
      <g>
       <use style="stroke:#000000;stroke-width:0.8;" x="83.472344" xlink:href="#m9157c14816" y="121.687189"/>
      </g>
     </g>
     <g id="text_13">
      <!-- 60 -->
      <defs>
       <path d="M 33.015625 40.375 
Q 26.375 40.375 22.484375 35.828125 
Q 18.609375 31.296875 18.609375 23.390625 
Q 18.609375 15.53125 22.484375 10.953125 
Q 26.375 6.390625 33.015625 6.390625 
Q 39.65625 6.390625 43.53125 10.953125 
Q 47.40625 15.53125 47.40625 23.390625 
Q 47.40625 31.296875 43.53125 35.828125 
Q 39.65625 40.375 33.015625 40.375 
z
M 52.59375 71.296875 
L 52.59375 62.3125 
Q 48.875 64.0625 45.09375 64.984375 
Q 41.3125 65.921875 37.59375 65.921875 
Q 27.828125 65.921875 22.671875 59.328125 
Q 17.53125 52.734375 16.796875 39.40625 
Q 19.671875 43.65625 24.015625 45.921875 
Q 28.375 48.1875 33.59375 48.1875 
Q 44.578125 48.1875 50.953125 41.515625 
Q 57.328125 34.859375 57.328125 23.390625 
Q 57.328125 12.15625 50.6875 5.359375 
Q 44.046875 -1.421875 33.015625 -1.421875 
Q 20.359375 -1.421875 13.671875 8.265625 
Q 6.984375 17.96875 6.984375 36.375 
Q 6.984375 53.65625 15.1875 63.9375 
Q 23.390625 74.21875 37.203125 74.21875 
Q 40.921875 74.21875 44.703125 73.484375 
Q 48.484375 72.75 52.59375 71.296875 
z
" id="DejaVuSans-54"/>
      </defs>
      <g transform="translate(63.747344 125.486408)scale(0.1 -0.1)">
       <use xlink:href="#DejaVuSans-54"/>
       <use x="63.623047" xlink:href="#DejaVuSans-48"/>
      </g>
     </g>
    </g>
    <g id="ytick_8">
     <g id="line2d_14">
      <g>
       <use style="stroke:#000000;stroke-width:0.8;" x="83.472344" xlink:href="#m9157c14816" y="83.272693"/>
      </g>
     </g>
     <g id="text_14">
      <!-- 70 -->
      <defs>
       <path d="M 8.203125 72.90625 
L 55.078125 72.90625 
L 55.078125 68.703125 
L 28.609375 0 
L 18.3125 0 
L 43.21875 64.59375 
L 8.203125 64.59375 
z
" id="DejaVuSans-55"/>
      </defs>
      <g transform="translate(63.747344 87.071912)scale(0.1 -0.1)">
       <use xlink:href="#DejaVuSans-55"/>
       <use x="63.623047" xlink:href="#DejaVuSans-48"/>
      </g>
     </g>
    </g>
    <g id="ytick_9">
     <g id="line2d_15">
      <g>
       <use style="stroke:#000000;stroke-width:0.8;" x="83.472344" xlink:href="#m9157c14816" y="44.858197"/>
      </g>
     </g>
     <g id="text_15">
      <!-- 80 -->
      <defs>
       <path d="M 31.78125 34.625 
Q 24.75 34.625 20.71875 30.859375 
Q 16.703125 27.09375 16.703125 20.515625 
Q 16.703125 13.921875 20.71875 10.15625 
Q 24.75 6.390625 31.78125 6.390625 
Q 38.8125 6.390625 42.859375 10.171875 
Q 46.921875 13.96875 46.921875 20.515625 
Q 46.921875 27.09375 42.890625 30.859375 
Q 38.875 34.625 31.78125 34.625 
z
M 21.921875 38.8125 
Q 15.578125 40.375 12.03125 44.71875 
Q 8.5 49.078125 8.5 55.328125 
Q 8.5 64.0625 14.71875 69.140625 
Q 20.953125 74.21875 31.78125 74.21875 
Q 42.671875 74.21875 48.875 69.140625 
Q 55.078125 64.0625 55.078125 55.328125 
Q 55.078125 49.078125 51.53125 44.71875 
Q 48 40.375 41.703125 38.8125 
Q 48.828125 37.15625 52.796875 32.3125 
Q 56.78125 27.484375 56.78125 20.515625 
Q 56.78125 9.90625 50.3125 4.234375 
Q 43.84375 -1.421875 31.78125 -1.421875 
Q 19.734375 -1.421875 13.25 4.234375 
Q 6.78125 9.90625 6.78125 20.515625 
Q 6.78125 27.484375 10.78125 32.3125 
Q 14.796875 37.15625 21.921875 38.8125 
z
M 18.3125 54.390625 
Q 18.3125 48.734375 21.84375 45.5625 
Q 25.390625 42.390625 31.78125 42.390625 
Q 38.140625 42.390625 41.71875 45.5625 
Q 45.3125 48.734375 45.3125 54.390625 
Q 45.3125 60.0625 41.71875 63.234375 
Q 38.140625 66.40625 31.78125 66.40625 
Q 25.390625 66.40625 21.84375 63.234375 
Q 18.3125 60.0625 18.3125 54.390625 
z
" id="DejaVuSans-56"/>
      </defs>
      <g transform="translate(63.747344 48.657415)scale(0.1 -0.1)">
       <use xlink:href="#DejaVuSans-56"/>
       <use x="63.623047" xlink:href="#DejaVuSans-48"/>
      </g>
     </g>
    </g>
    <g id="text_16">
     <!-- throughput -->
     <defs>
      <path d="M 18.3125 70.21875 
L 18.3125 54.6875 
L 36.8125 54.6875 
L 36.8125 47.703125 
L 18.3125 47.703125 
L 18.3125 18.015625 
Q 18.3125 11.328125 20.140625 9.421875 
Q 21.96875 7.515625 27.59375 7.515625 
L 36.8125 7.515625 
L 36.8125 0 
L 27.59375 0 
Q 17.1875 0 13.234375 3.875 
Q 9.28125 7.765625 9.28125 18.015625 
L 9.28125 47.703125 
L 2.6875 47.703125 
L 2.6875 54.6875 
L 9.28125 54.6875 
L 9.28125 70.21875 
z
" id="DejaVuSans-116"/>
      <path d="M 54.890625 33.015625 
L 54.890625 0 
L 45.90625 0 
L 45.90625 32.71875 
Q 45.90625 40.484375 42.875 44.328125 
Q 39.84375 48.1875 33.796875 48.1875 
Q 26.515625 48.1875 22.3125 43.546875 
Q 18.109375 38.921875 18.109375 30.90625 
L 18.109375 0 
L 9.078125 0 
L 9.078125 75.984375 
L 18.109375 75.984375 
L 18.109375 46.1875 
Q 21.34375 51.125 25.703125 53.5625 
Q 30.078125 56 35.796875 56 
Q 45.21875 56 50.046875 50.171875 
Q 54.890625 44.34375 54.890625 33.015625 
z
" id="DejaVuSans-104"/>
      <path d="M 41.109375 46.296875 
Q 39.59375 47.171875 37.8125 47.578125 
Q 36.03125 48 33.890625 48 
Q 26.265625 48 22.1875 43.046875 
Q 18.109375 38.09375 18.109375 28.8125 
L 18.109375 0 
L 9.078125 0 
L 9.078125 54.6875 
L 18.109375 54.6875 
L 18.109375 46.1875 
Q 20.953125 51.171875 25.484375 53.578125 
Q 30.03125 56 36.53125 56 
Q 37.453125 56 38.578125 55.875 
Q 39.703125 55.765625 41.0625 55.515625 
z
" id="DejaVuSans-114"/>
      <path d="M 30.609375 48.390625 
Q 23.390625 48.390625 19.1875 42.75 
Q 14.984375 37.109375 14.984375 27.296875 
Q 14.984375 17.484375 19.15625 11.84375 
Q 23.34375 6.203125 30.609375 6.203125 
Q 37.796875 6.203125 41.984375 11.859375 
Q 46.1875 17.53125 46.1875 27.296875 
Q 46.1875 37.015625 41.984375 42.703125 
Q 37.796875 48.390625 30.609375 48.390625 
z
M 30.609375 56 
Q 42.328125 56 49.015625 48.375 
Q 55.71875 40.765625 55.71875 27.296875 
Q 55.71875 13.875 49.015625 6.21875 
Q 42.328125 -1.421875 30.609375 -1.421875 
Q 18.84375 -1.421875 12.171875 6.21875 
Q 5.515625 13.875 5.515625 27.296875 
Q 5.515625 40.765625 12.171875 48.375 
Q 18.84375 56 30.609375 56 
z
" id="DejaVuSans-111"/>
      <path d="M 8.5 21.578125 
L 8.5 54.6875 
L 17.484375 54.6875 
L 17.484375 21.921875 
Q 17.484375 14.15625 20.5 10.265625 
Q 23.53125 6.390625 29.59375 6.390625 
Q 36.859375 6.390625 41.078125 11.03125 
Q 45.3125 15.671875 45.3125 23.6875 
L 45.3125 54.6875 
L 54.296875 54.6875 
L 54.296875 0 
L 45.3125 0 
L 45.3125 8.40625 
Q 42.046875 3.421875 37.71875 1 
Q 33.40625 -1.421875 27.6875 -1.421875 
Q 18.265625 -1.421875 13.375 4.4375 
Q 8.5 10.296875 8.5 21.578125 
z
M 31.109375 56 
z
" id="DejaVuSans-117"/>
      <path d="M 45.40625 27.984375 
Q 45.40625 37.75 41.375 43.109375 
Q 37.359375 48.484375 30.078125 48.484375 
Q 22.859375 48.484375 18.828125 43.109375 
Q 14.796875 37.75 14.796875 27.984375 
Q 14.796875 18.265625 18.828125 12.890625 
Q 22.859375 7.515625 30.078125 7.515625 
Q 37.359375 7.515625 41.375 12.890625 
Q 45.40625 18.265625 45.40625 27.984375 
z
M 54.390625 6.78125 
Q 54.390625 -7.171875 48.1875 -13.984375 
Q 42 -20.796875 29.203125 -20.796875 
Q 24.46875 -20.796875 20.265625 -20.09375 
Q 16.0625 -19.390625 12.109375 -17.921875 
L 12.109375 -9.1875 
Q 16.0625 -11.328125 19.921875 -12.34375 
Q 23.78125 -13.375 27.78125 -13.375 
Q 36.625 -13.375 41.015625 -8.765625 
Q 45.40625 -4.15625 45.40625 5.171875 
L 45.40625 9.625 
Q 42.625 4.78125 38.28125 2.390625 
Q 33.9375 0 27.875 0 
Q 17.828125 0 11.671875 7.65625 
Q 5.515625 15.328125 5.515625 27.984375 
Q 5.515625 40.671875 11.671875 48.328125 
Q 17.828125 56 27.875 56 
Q 33.9375 56 38.28125 53.609375 
Q 42.625 51.21875 45.40625 46.390625 
L 45.40625 54.6875 
L 54.390625 54.6875 
z
" id="DejaVuSans-103"/>
      <path d="M 18.109375 8.203125 
L 18.109375 -20.796875 
L 9.078125 -20.796875 
L 9.078125 54.6875 
L 18.109375 54.6875 
L 18.109375 46.390625 
Q 20.953125 51.265625 25.265625 53.625 
Q 29.59375 56 35.59375 56 
Q 45.5625 56 51.78125 48.09375 
Q 58.015625 40.1875 58.015625 27.296875 
Q 58.015625 14.40625 51.78125 6.484375 
Q 45.5625 -1.421875 35.59375 -1.421875 
Q 29.59375 -1.421875 25.265625 0.953125 
Q 20.953125 3.328125 18.109375 8.203125 
z
M 48.6875 27.296875 
Q 48.6875 37.203125 44.609375 42.84375 
Q 40.53125 48.484375 33.40625 48.484375 
Q 26.265625 48.484375 22.1875 42.84375 
Q 18.109375 37.203125 18.109375 27.296875 
Q 18.109375 17.390625 22.1875 11.75 
Q 26.265625 6.109375 33.40625 6.109375 
Q 40.53125 6.109375 44.609375 11.75 
Q 48.6875 17.390625 48.6875 27.296875 
z
" id="DejaVuSans-112"/>
     </defs>
     <g transform="translate(46.469844 221.675365)rotate(-90)scale(0.1 -0.1)">
      <use xlink:href="#DejaVuSans-116"/>
      <use x="39.208984" xlink:href="#DejaVuSans-104"/>
      <use x="102.587891" xlink:href="#DejaVuSans-114"/>
      <use x="143.669922" xlink:href="#DejaVuSans-111"/>
      <use x="204.851562" xlink:href="#DejaVuSans-117"/>
      <use x="268.230469" xlink:href="#DejaVuSans-103"/>
      <use x="331.707031" xlink:href="#DejaVuSans-104"/>
      <use x="395.085938" xlink:href="#DejaVuSans-112"/>
      <use x="458.5625" xlink:href="#DejaVuSans-117"/>
      <use x="521.941406" xlink:href="#DejaVuSans-116"/>
     </g>
     <!-- (mbit / second) -->
     <defs>
      <path d="M 31 75.875 
Q 24.46875 64.65625 21.28125 53.65625 
Q 18.109375 42.671875 18.109375 31.390625 
Q 18.109375 20.125 21.3125 9.0625 
Q 24.515625 -2 31 -13.1875 
L 23.1875 -13.1875 
Q 15.875 -1.703125 12.234375 9.375 
Q 8.59375 20.453125 8.59375 31.390625 
Q 8.59375 42.28125 12.203125 53.3125 
Q 15.828125 64.359375 23.1875 75.875 
z
" id="DejaVuSans-40"/>
      <path d="M 52 44.1875 
Q 55.375 50.25 60.0625 53.125 
Q 64.75 56 71.09375 56 
Q 79.640625 56 84.28125 50.015625 
Q 88.921875 44.046875 88.921875 33.015625 
L 88.921875 0 
L 79.890625 0 
L 79.890625 32.71875 
Q 79.890625 40.578125 77.09375 44.375 
Q 74.3125 48.1875 68.609375 48.1875 
Q 61.625 48.1875 57.5625 43.546875 
Q 53.515625 38.921875 53.515625 30.90625 
L 53.515625 0 
L 44.484375 0 
L 44.484375 32.71875 
Q 44.484375 40.625 41.703125 44.40625 
Q 38.921875 48.1875 33.109375 48.1875 
Q 26.21875 48.1875 22.15625 43.53125 
Q 18.109375 38.875 18.109375 30.90625 
L 18.109375 0 
L 9.078125 0 
L 9.078125 54.6875 
L 18.109375 54.6875 
L 18.109375 46.1875 
Q 21.1875 51.21875 25.484375 53.609375 
Q 29.78125 56 35.6875 56 
Q 41.65625 56 45.828125 52.96875 
Q 50 49.953125 52 44.1875 
z
" id="DejaVuSans-109"/>
      <path d="M 48.6875 27.296875 
Q 48.6875 37.203125 44.609375 42.84375 
Q 40.53125 48.484375 33.40625 48.484375 
Q 26.265625 48.484375 22.1875 42.84375 
Q 18.109375 37.203125 18.109375 27.296875 
Q 18.109375 17.390625 22.1875 11.75 
Q 26.265625 6.109375 33.40625 6.109375 
Q 40.53125 6.109375 44.609375 11.75 
Q 48.6875 17.390625 48.6875 27.296875 
z
M 18.109375 46.390625 
Q 20.953125 51.265625 25.265625 53.625 
Q 29.59375 56 35.59375 56 
Q 45.5625 56 51.78125 48.09375 
Q 58.015625 40.1875 58.015625 27.296875 
Q 58.015625 14.40625 51.78125 6.484375 
Q 45.5625 -1.421875 35.59375 -1.421875 
Q 29.59375 -1.421875 25.265625 0.953125 
Q 20.953125 3.328125 18.109375 8.203125 
L 18.109375 0 
L 9.078125 0 
L 9.078125 75.984375 
L 18.109375 75.984375 
z
" id="DejaVuSans-98"/>
      <path d="M 9.421875 54.6875 
L 18.40625 54.6875 
L 18.40625 0 
L 9.421875 0 
z
M 9.421875 75.984375 
L 18.40625 75.984375 
L 18.40625 64.59375 
L 9.421875 64.59375 
z
" id="DejaVuSans-105"/>
      <path id="DejaVuSans-32"/>
      <path d="M 25.390625 72.90625 
L 33.6875 72.90625 
L 8.296875 -9.28125 
L 0 -9.28125 
z
" id="DejaVuSans-47"/>
      <path d="M 44.28125 53.078125 
L 44.28125 44.578125 
Q 40.484375 46.53125 36.375 47.5 
Q 32.28125 48.484375 27.875 48.484375 
Q 21.1875 48.484375 17.84375 46.4375 
Q 14.5 44.390625 14.5 40.28125 
Q 14.5 37.15625 16.890625 35.375 
Q 19.28125 33.59375 26.515625 31.984375 
L 29.59375 31.296875 
Q 39.15625 29.25 43.1875 25.515625 
Q 47.21875 21.78125 47.21875 15.09375 
Q 47.21875 7.46875 41.1875 3.015625 
Q 35.15625 -1.421875 24.609375 -1.421875 
Q 20.21875 -1.421875 15.453125 -0.5625 
Q 10.6875 0.296875 5.421875 2 
L 5.421875 11.28125 
Q 10.40625 8.6875 15.234375 7.390625 
Q 20.0625 6.109375 24.8125 6.109375 
Q 31.15625 6.109375 34.5625 8.28125 
Q 37.984375 10.453125 37.984375 14.40625 
Q 37.984375 18.0625 35.515625 20.015625 
Q 33.0625 21.96875 24.703125 23.78125 
L 21.578125 24.515625 
Q 13.234375 26.265625 9.515625 29.90625 
Q 5.8125 33.546875 5.8125 39.890625 
Q 5.8125 47.609375 11.28125 51.796875 
Q 16.75 56 26.8125 56 
Q 31.78125 56 36.171875 55.265625 
Q 40.578125 54.546875 44.28125 53.078125 
z
" id="DejaVuSans-115"/>
      <path d="M 56.203125 29.59375 
L 56.203125 25.203125 
L 14.890625 25.203125 
Q 15.484375 15.921875 20.484375 11.0625 
Q 25.484375 6.203125 34.421875 6.203125 
Q 39.59375 6.203125 44.453125 7.46875 
Q 49.3125 8.734375 54.109375 11.28125 
L 54.109375 2.78125 
Q 49.265625 0.734375 44.1875 -0.34375 
Q 39.109375 -1.421875 33.890625 -1.421875 
Q 20.796875 -1.421875 13.15625 6.1875 
Q 5.515625 13.8125 5.515625 26.8125 
Q 5.515625 40.234375 12.765625 48.109375 
Q 20.015625 56 32.328125 56 
Q 43.359375 56 49.78125 48.890625 
Q 56.203125 41.796875 56.203125 29.59375 
z
M 47.21875 32.234375 
Q 47.125 39.59375 43.09375 43.984375 
Q 39.0625 48.390625 32.421875 48.390625 
Q 24.90625 48.390625 20.390625 44.140625 
Q 15.875 39.890625 15.1875 32.171875 
z
" id="DejaVuSans-101"/>
      <path d="M 48.78125 52.59375 
L 48.78125 44.1875 
Q 44.96875 46.296875 41.140625 47.34375 
Q 37.3125 48.390625 33.40625 48.390625 
Q 24.65625 48.390625 19.8125 42.84375 
Q 14.984375 37.3125 14.984375 27.296875 
Q 14.984375 17.28125 19.8125 11.734375 
Q 24.65625 6.203125 33.40625 6.203125 
Q 37.3125 6.203125 41.140625 7.25 
Q 44.96875 8.296875 48.78125 10.40625 
L 48.78125 2.09375 
Q 45.015625 0.34375 40.984375 -0.53125 
Q 36.96875 -1.421875 32.421875 -1.421875 
Q 20.0625 -1.421875 12.78125 6.34375 
Q 5.515625 14.109375 5.515625 27.296875 
Q 5.515625 40.671875 12.859375 48.328125 
Q 20.21875 56 33.015625 56 
Q 37.15625 56 41.109375 55.140625 
Q 45.0625 54.296875 48.78125 52.59375 
z
" id="DejaVuSans-99"/>
      <path d="M 54.890625 33.015625 
L 54.890625 0 
L 45.90625 0 
L 45.90625 32.71875 
Q 45.90625 40.484375 42.875 44.328125 
Q 39.84375 48.1875 33.796875 48.1875 
Q 26.515625 48.1875 22.3125 43.546875 
Q 18.109375 38.921875 18.109375 30.90625 
L 18.109375 0 
L 9.078125 0 
L 9.078125 54.6875 
L 18.109375 54.6875 
L 18.109375 46.1875 
Q 21.34375 51.125 25.703125 53.5625 
Q 30.078125 56 35.796875 56 
Q 45.21875 56 50.046875 50.171875 
Q 54.890625 44.34375 54.890625 33.015625 
z
" id="DejaVuSans-110"/>
      <path d="M 45.40625 46.390625 
L 45.40625 75.984375 
L 54.390625 75.984375 
L 54.390625 0 
L 45.40625 0 
L 45.40625 8.203125 
Q 42.578125 3.328125 38.25 0.953125 
Q 33.9375 -1.421875 27.875 -1.421875 
Q 17.96875 -1.421875 11.734375 6.484375 
Q 5.515625 14.40625 5.515625 27.296875 
Q 5.515625 40.1875 11.734375 48.09375 
Q 17.96875 56 27.875 56 
Q 33.9375 56 38.25 53.625 
Q 42.578125 51.265625 45.40625 46.390625 
z
M 14.796875 27.296875 
Q 14.796875 17.390625 18.875 11.75 
Q 22.953125 6.109375 30.078125 6.109375 
Q 37.203125 6.109375 41.296875 11.75 
Q 45.40625 17.390625 45.40625 27.296875 
Q 45.40625 37.203125 41.296875 42.84375 
Q 37.203125 48.484375 30.078125 48.484375 
Q 22.953125 48.484375 18.875 42.84375 
Q 14.796875 37.203125 14.796875 27.296875 
z
" id="DejaVuSans-100"/>
      <path d="M 8.015625 75.875 
L 15.828125 75.875 
Q 23.140625 64.359375 26.78125 53.3125 
Q 30.421875 42.28125 30.421875 31.390625 
Q 30.421875 20.453125 26.78125 9.375 
Q 23.140625 -1.703125 15.828125 -13.1875 
L 8.015625 -13.1875 
Q 14.5 -2 17.703125 9.0625 
Q 20.90625 20.125 20.90625 31.390625 
Q 20.90625 42.671875 17.703125 53.65625 
Q 14.5 64.65625 8.015625 75.875 
z
" id="DejaVuSans-41"/>
     </defs>
     <g transform="translate(57.667656 231.608958)rotate(-90)scale(0.1 -0.1)">
      <use xlink:href="#DejaVuSans-40"/>
      <use x="39.013672" xlink:href="#DejaVuSans-109"/>
      <use x="136.425781" xlink:href="#DejaVuSans-98"/>
      <use x="199.902344" xlink:href="#DejaVuSans-105"/>
      <use x="227.685547" xlink:href="#DejaVuSans-116"/>
      <use x="266.894531" xlink:href="#DejaVuSans-32"/>
      <use x="298.681641" xlink:href="#DejaVuSans-47"/>
      <use x="332.373047" xlink:href="#DejaVuSans-32"/>
      <use x="364.160156" xlink:href="#DejaVuSans-115"/>
      <use x="416.259766" xlink:href="#DejaVuSans-101"/>
      <use x="477.783203" xlink:href="#DejaVuSans-99"/>
      <use x="532.763672" xlink:href="#DejaVuSans-111"/>
      <use x="593.945312" xlink:href="#DejaVuSans-110"/>
      <use x="657.324219" xlink:href="#DejaVuSans-100"/>
      <use x="720.800781" xlink:href="#DejaVuSans-41"/>
     </g>
    </g>
   </g>
   <g id="line2d_16">
    <path clip-path="url(#p70b879ae50)" d="M 103.765099 129.370088 
L 104.501705 48.699646 
L 105.974917 48.699646 
L 106.711523 114.00429 
L 107.448129 144.735887 
L 108.184735 152.418786 
L 108.921341 183.150383 
L 109.657947 240.772127 
L 110.394552 248.455027 
L 111.131158 259.979376 
L 111.867764 267.662275 
L 112.60437 283.028073 
L 113.340976 283.028073 
L 114.077582 271.503725 
L 114.814188 252.296476 
L 115.550794 259.979376 
L 116.2874 275.345174 
L 117.024005 286.869523 
L 117.760611 294.552422 
L 118.497217 298.393872 
L 119.233823 298.393872 
L 119.970429 302.235322 
L 120.707035 302.235322 
L 121.443641 298.393872 
L 122.180247 302.235322 
L 122.916853 294.552422 
L 123.653458 298.393872 
L 125.12667 290.710973 
L 125.863276 302.235322 
L 126.599882 290.710973 
L 127.336488 275.345174 
L 128.073094 248.455027 
L 128.8097 267.662275 
L 130.282911 275.345174 
L 131.019517 294.552422 
L 131.756123 302.235322 
L 132.492729 298.393872 
L 133.965941 283.028073 
L 134.702547 286.869523 
L 135.439153 271.503725 
L 136.175759 275.345174 
L 136.912365 256.137926 
L 137.64897 259.979376 
L 138.385576 279.186624 
L 139.858788 309.918221 
L 140.595394 313.75967 
L 141.332 309.918221 
L 142.068606 290.710973 
L 142.805212 286.869523 
L 143.541818 290.710973 
L 144.278423 279.186624 
L 145.015029 259.979376 
L 145.751635 248.455027 
L 147.224847 256.137926 
L 147.961453 252.296476 
L 148.698059 252.296476 
L 149.434665 267.662275 
L 150.171271 259.979376 
L 150.907876 248.455027 
L 151.644482 275.345174 
L 152.381088 275.345174 
L 153.117694 298.393872 
L 153.8543 298.393872 
L 154.590906 286.869523 
L 155.327512 263.820825 
L 156.064118 248.455027 
L 156.800724 236.930678 
L 157.537329 248.455027 
L 158.273935 248.455027 
L 159.010541 267.662275 
L 159.747147 259.979376 
L 160.483753 271.503725 
L 161.220359 271.503725 
L 161.956965 267.662275 
L 162.693571 279.186624 
L 163.430177 279.186624 
L 164.166782 275.345174 
L 164.903388 290.710973 
L 165.639994 290.710973 
L 166.3766 283.028073 
L 167.113206 279.186624 
L 167.849812 271.503725 
L 168.586418 275.345174 
L 169.323024 283.028073 
L 170.05963 283.028073 
L 171.532841 298.393872 
L 172.269447 279.186624 
L 173.006053 279.186624 
L 173.742659 294.552422 
L 175.215871 263.820825 
L 175.952477 271.503725 
L 176.689083 286.869523 
L 177.425688 290.710973 
L 178.162294 263.820825 
L 178.8989 259.979376 
L 179.635506 275.345174 
L 180.372112 286.869523 
L 181.108718 275.345174 
L 184.055142 306.076771 
L 184.791747 309.918221 
L 185.528353 321.44257 
L 186.264959 313.75967 
L 187.001565 286.869523 
L 187.738171 267.662275 
L 188.474777 271.503725 
L 189.211383 279.186624 
L 189.947989 283.028073 
L 190.684595 279.186624 
L 191.4212 271.503725 
L 192.894412 294.552422 
L 193.631018 283.028073 
L 194.367624 286.869523 
L 195.10423 263.820825 
L 195.840836 275.345174 
L 196.577442 256.137926 
L 197.314048 256.137926 
L 198.050653 271.503725 
L 198.787259 263.820825 
L 199.523865 271.503725 
L 200.260471 290.710973 
L 200.997077 286.869523 
L 201.733683 302.235322 
L 203.206895 309.918221 
L 203.943501 306.076771 
L 204.680106 313.75967 
L 205.416712 306.076771 
L 206.153318 302.235322 
L 206.889924 290.710973 
L 207.62653 271.503725 
L 208.363136 279.186624 
L 209.099742 283.028073 
L 209.836348 302.235322 
L 210.572954 302.235322 
L 211.309559 283.028073 
L 212.046165 267.662275 
L 212.782771 283.028073 
L 213.519377 279.186624 
L 214.255983 279.186624 
L 214.992589 271.503725 
L 215.729195 279.186624 
L 216.465801 259.979376 
L 217.202407 244.613577 
L 217.939012 275.345174 
L 218.675618 294.552422 
L 219.412224 279.186624 
L 220.14883 286.869523 
L 220.885436 283.028073 
L 221.622042 313.75967 
L 222.358648 317.60112 
L 223.095254 298.393872 
L 223.83186 302.235322 
L 224.568466 309.918221 
L 225.305071 298.393872 
L 226.778283 259.979376 
L 227.514889 271.503725 
L 228.988101 279.186624 
L 230.461313 263.820825 
L 231.197919 275.345174 
L 231.934524 279.186624 
L 232.67113 252.296476 
L 233.407736 252.296476 
L 234.144342 275.345174 
L 234.880948 283.028073 
L 235.617554 275.345174 
L 236.35416 283.028073 
L 237.090766 271.503725 
L 237.827372 275.345174 
L 238.563977 294.552422 
L 239.300583 290.710973 
L 240.037189 267.662275 
L 240.773795 275.345174 
L 241.510401 290.710973 
L 242.247007 267.662275 
L 242.983613 263.820825 
L 243.720219 263.820825 
L 244.456825 279.186624 
L 245.19343 298.393872 
L 245.930036 290.710973 
L 246.666642 290.710973 
L 247.403248 294.552422 
L 248.139854 294.552422 
L 248.87646 302.235322 
L 249.613066 283.028073 
L 250.349672 279.186624 
L 251.822883 279.186624 
L 252.559489 294.552422 
L 254.032701 286.869523 
L 254.769307 267.662275 
L 255.505913 256.137926 
L 256.242519 271.503725 
L 258.452336 283.028073 
L 259.188942 294.552422 
L 260.662154 256.137926 
L 261.39876 256.137926 
L 262.135366 275.345174 
L 262.871972 290.710973 
L 263.608578 271.503725 
L 264.345184 271.503725 
L 265.081789 279.186624 
L 265.818395 271.503725 
L 266.555001 248.455027 
L 267.291607 252.296476 
L 268.028213 252.296476 
L 268.764819 263.820825 
L 269.501425 271.503725 
L 270.238031 286.869523 
L 270.974637 271.503725 
L 271.711243 271.503725 
L 272.447848 256.137926 
L 273.184454 267.662275 
L 273.92106 298.393872 
L 274.657666 298.393872 
L 275.394272 283.028073 
L 276.867484 290.710973 
L 277.60409 298.393872 
L 278.340696 283.028073 
L 279.077301 286.869523 
L 279.813907 263.820825 
L 280.550513 256.137926 
L 281.287119 279.186624 
L 282.023725 290.710973 
L 282.760331 271.503725 
L 283.496937 275.345174 
L 284.233543 290.710973 
L 284.970149 271.503725 
L 285.706754 283.028073 
L 286.44336 290.710973 
L 287.179966 290.710973 
L 287.916572 275.345174 
L 288.653178 256.137926 
L 289.389784 244.613577 
L 290.12639 248.455027 
L 290.862996 248.455027 
L 291.599602 267.662275 
L 292.336207 271.503725 
L 293.072813 279.186624 
L 293.809419 283.028073 
L 294.546025 279.186624 
L 295.282631 279.186624 
L 296.019237 271.503725 
L 297.492449 294.552422 
L 298.229055 286.869523 
L 298.96566 283.028073 
L 299.702266 259.979376 
L 300.438872 256.137926 
L 301.175478 271.503725 
L 301.912084 267.662275 
L 302.64869 271.503725 
L 303.385296 283.028073 
L 304.121902 286.869523 
L 304.858508 271.503725 
L 305.595113 263.820825 
L 306.331719 259.979376 
L 307.068325 267.662275 
L 308.541537 244.613577 
L 309.278143 256.137926 
L 310.014749 259.979376 
L 311.487961 283.028073 
L 312.224566 271.503725 
L 312.961172 286.869523 
L 313.697778 294.552422 
L 314.434384 290.710973 
L 315.17099 294.552422 
L 315.907596 294.552422 
L 316.644202 306.076771 
L 318.117414 306.076771 
L 318.85402 298.393872 
L 319.590625 283.028073 
L 320.327231 279.186624 
L 321.063837 259.979376 
L 321.800443 263.820825 
L 322.537049 252.296476 
L 323.273655 252.296476 
L 324.010261 256.137926 
L 324.746867 256.137926 
L 325.483473 275.345174 
L 326.956684 275.345174 
L 327.69329 259.979376 
L 328.429896 263.820825 
L 329.166502 263.820825 
L 329.903108 271.503725 
L 330.639714 286.869523 
L 331.37632 298.393872 
L 332.112926 290.710973 
L 332.849531 290.710973 
L 333.586137 286.869523 
L 334.322743 302.235322 
L 335.059349 309.918221 
L 335.795955 298.393872 
L 336.532561 279.186624 
L 337.269167 283.028073 
L 338.005773 256.137926 
L 338.742379 275.345174 
L 339.478984 290.710973 
L 340.21559 294.552422 
L 341.688802 294.552422 
L 342.425408 279.186624 
L 343.162014 259.979376 
L 343.89862 248.455027 
L 345.371832 256.137926 
L 346.108437 248.455027 
L 346.845043 263.820825 
L 347.581649 283.028073 
L 348.318255 306.076771 
L 349.054861 302.235322 
L 349.791467 290.710973 
L 350.528073 286.869523 
L 351.264679 294.552422 
L 352.73789 286.869523 
L 353.474496 275.345174 
L 354.211102 283.028073 
L 354.947708 313.75967 
L 355.684314 313.75967 
L 356.42092 306.076771 
L 357.157526 306.076771 
L 359.367343 317.60112 
L 360.103949 302.235322 
L 360.840555 290.710973 
L 361.577161 290.710973 
L 362.313767 294.552422 
L 363.050373 286.869523 
L 363.786979 271.503725 
L 364.523585 283.028073 
L 365.996797 290.710973 
L 366.733402 286.869523 
L 367.470008 263.820825 
L 368.206614 244.613577 
L 368.94322 233.089228 
L 369.679826 256.137926 
L 370.416432 263.820825 
L 371.153038 248.455027 
L 371.889644 240.772127 
L 372.62625 259.979376 
L 373.362855 271.503725 
L 374.836067 279.186624 
L 375.572673 259.979376 
L 376.309279 283.028073 
L 377.045885 283.028073 
L 377.782491 259.979376 
L 378.519097 248.455027 
L 379.255703 256.137926 
L 379.992308 236.930678 
L 380.728914 240.772127 
L 381.46552 256.137926 
L 382.938732 271.503725 
L 383.675338 252.296476 
L 384.411944 240.772127 
L 385.14855 267.662275 
L 385.885156 283.028073 
L 386.621761 275.345174 
L 387.358367 263.820825 
L 388.094973 290.710973 
L 388.831579 283.028073 
L 389.568185 283.028073 
L 390.304791 279.186624 
L 391.041397 294.552422 
L 391.778003 294.552422 
L 392.514609 302.235322 
L 393.251214 302.235322 
L 393.98782 283.028073 
L 394.724426 306.076771 
L 395.461032 309.918221 
L 396.197638 290.710973 
L 396.934244 294.552422 
L 397.67085 283.028073 
L 398.407456 275.345174 
L 399.144062 271.503725 
L 399.880667 271.503725 
L 401.353879 263.820825 
L 402.090485 240.772127 
L 402.827091 221.564879 
L 403.563697 244.613577 
L 404.300303 271.503725 
L 405.036909 283.028073 
L 405.773515 283.028073 
L 406.51012 271.503725 
L 407.246726 279.186624 
L 407.983332 283.028073 
L 408.719938 263.820825 
L 409.456544 252.296476 
L 410.929756 283.028073 
L 411.666362 294.552422 
L 412.402968 294.552422 
L 413.139574 283.028073 
L 413.876179 283.028073 
L 414.612785 271.503725 
L 415.349391 286.869523 
L 416.085997 294.552422 
L 416.822603 290.710973 
L 417.559209 290.710973 
L 418.295815 294.552422 
L 419.032421 306.076771 
L 419.769027 302.235322 
L 420.505632 283.028073 
L 421.242238 283.028073 
L 421.978844 259.979376 
L 422.71545 252.296476 
L 424.925268 298.393872 
L 425.661874 294.552422 
L 426.39848 283.028073 
L 427.135085 263.820825 
L 427.871691 271.503725 
L 428.608297 256.137926 
L 429.344903 263.820825 
L 430.081509 267.662275 
L 430.818115 267.662275 
L 431.554721 286.869523 
L 432.291327 290.710973 
L 433.027933 275.345174 
L 433.764538 275.345174 
L 434.501144 256.137926 
L 435.23775 271.503725 
L 435.974356 252.296476 
L 436.710962 259.979376 
L 437.447568 252.296476 
L 438.184174 271.503725 
L 438.92078 283.028073 
L 439.657386 275.345174 
L 440.393991 279.186624 
L 441.130597 275.345174 
L 441.867203 275.345174 
L 442.603809 279.186624 
L 443.340415 298.393872 
L 444.077021 302.235322 
L 444.813627 290.710973 
L 445.550233 275.345174 
L 446.286839 279.186624 
L 447.023444 275.345174 
L 447.76005 286.869523 
L 448.496656 309.918221 
L 449.233262 309.918221 
L 449.969868 302.235322 
L 451.44308 256.137926 
L 452.179686 236.930678 
L 452.916292 248.455027 
L 453.652897 263.820825 
L 454.389503 275.345174 
L 455.126109 267.662275 
L 455.862715 267.662275 
L 456.599321 283.028073 
L 457.335927 286.869523 
L 458.072533 294.552422 
L 459.545745 263.820825 
L 460.282351 279.186624 
L 461.018956 290.710973 
L 461.755562 290.710973 
L 462.492168 298.393872 
L 463.228774 309.918221 
L 463.96538 313.75967 
L 464.701986 313.75967 
L 465.438592 306.076771 
L 466.175198 283.028073 
L 466.911804 283.028073 
L 467.648409 271.503725 
L 468.385015 244.613577 
L 469.121621 271.503725 
L 469.858227 279.186624 
L 470.594833 259.979376 
L 471.331439 275.345174 
L 472.068045 275.345174 
L 472.804651 286.869523 
L 473.541257 302.235322 
L 474.277862 294.552422 
L 475.014468 279.186624 
L 475.751074 275.345174 
L 476.48768 256.137926 
L 477.224286 263.820825 
L 477.960892 248.455027 
L 478.697498 244.613577 
L 479.434104 263.820825 
L 480.17071 279.186624 
L 480.907315 279.186624 
L 481.643921 283.028073 
L 482.380527 294.552422 
L 483.117133 309.918221 
L 483.853739 306.076771 
L 484.590345 283.028073 
L 485.326951 271.503725 
L 486.063557 286.869523 
L 487.536768 286.869523 
L 488.273374 298.393872 
L 489.00998 302.235322 
L 489.746586 313.75967 
L 490.483192 298.393872 
L 491.219798 279.186624 
L 491.956404 283.028073 
L 492.69301 271.503725 
L 493.429616 279.186624 
L 494.166221 263.820825 
L 494.902827 271.503725 
L 495.639433 263.820825 
L 496.376039 275.345174 
L 497.112645 271.503725 
L 497.849251 256.137926 
L 499.322463 279.186624 
L 500.059069 275.345174 
L 500.795674 290.710973 
L 501.53228 275.345174 
L 501.53228 275.345174 
" style="fill:none;stroke:#1f77b4;stroke-linecap:square;stroke-width:1.5;"/>
   </g>
   <g id="line2d_17">
    <path clip-path="url(#p70b879ae50)" d="M 106.822014 279.186624 
L 107.55862 256.137926 
L 108.295226 248.455027 
L 109.031832 217.72343 
L 109.768437 259.979376 
L 110.505043 259.979376 
L 111.241649 236.930678 
L 111.978255 252.296476 
L 112.714861 271.503725 
L 113.451467 271.503725 
L 114.188073 286.869523 
L 114.924679 294.552422 
L 115.661285 271.503725 
L 116.39789 256.137926 
L 117.134496 271.503725 
L 117.871102 294.552422 
L 118.607708 302.235322 
L 119.344314 279.186624 
L 120.08092 263.820825 
L 120.817526 275.345174 
L 121.554132 279.186624 
L 122.290738 259.979376 
L 123.027343 263.820825 
L 123.763949 283.028073 
L 124.500555 283.028073 
L 125.237161 306.076771 
L 125.973767 309.918221 
L 126.710373 302.235322 
L 127.446979 313.75967 
L 128.183585 309.918221 
L 128.920191 294.552422 
L 129.656796 286.869523 
L 130.393402 267.662275 
L 131.130008 256.137926 
L 132.60322 294.552422 
L 133.339826 294.552422 
L 134.813038 271.503725 
L 135.549644 267.662275 
L 136.28625 248.455027 
L 137.022855 271.503725 
L 137.759461 298.393872 
L 138.496067 302.235322 
L 139.232673 283.028073 
L 139.969279 286.869523 
L 140.705885 271.503725 
L 142.179097 279.186624 
L 142.915703 286.869523 
L 143.652308 271.503725 
L 144.388914 275.345174 
L 145.12552 294.552422 
L 145.862126 294.552422 
L 146.598732 275.345174 
L 147.335338 252.296476 
L 148.071944 263.820825 
L 148.80855 271.503725 
L 149.545156 283.028073 
L 150.281761 279.186624 
L 151.754973 286.869523 
L 152.491579 267.662275 
L 153.228185 275.345174 
L 153.964791 256.137926 
L 154.701397 271.503725 
L 155.438003 267.662275 
L 156.174609 267.662275 
L 156.911214 259.979376 
L 157.64782 259.979376 
L 158.384426 263.820825 
L 159.121032 256.137926 
L 159.857638 275.345174 
L 160.594244 279.186624 
L 161.33085 279.186624 
L 162.067456 290.710973 
L 162.804062 271.503725 
L 163.540667 263.820825 
L 164.277273 267.662275 
L 165.750485 229.247779 
L 166.487091 206.199081 
L 167.223697 213.88198 
L 168.696909 271.503725 
L 169.433515 283.028073 
L 170.17012 279.186624 
L 170.906726 271.503725 
L 171.643332 275.345174 
L 172.379938 298.393872 
L 173.116544 294.552422 
L 173.85315 302.235322 
L 174.589756 294.552422 
L 175.326362 279.186624 
L 176.062968 286.869523 
L 176.799573 283.028073 
L 177.536179 271.503725 
L 178.272785 279.186624 
L 179.009391 283.028073 
L 179.745997 283.028073 
L 180.482603 275.345174 
L 181.219209 275.345174 
L 181.955815 267.662275 
L 182.692421 271.503725 
L 183.429027 252.296476 
L 184.165632 252.296476 
L 184.902238 256.137926 
L 185.638844 263.820825 
L 186.37545 263.820825 
L 187.112056 279.186624 
L 188.585268 294.552422 
L 189.321874 298.393872 
L 190.05848 283.028073 
L 190.795085 263.820825 
L 191.531691 286.869523 
L 192.268297 279.186624 
L 193.004903 256.137926 
L 193.741509 263.820825 
L 194.478115 252.296476 
L 195.214721 263.820825 
L 195.951327 248.455027 
L 196.687933 279.186624 
L 198.161144 294.552422 
L 198.89775 313.75967 
L 199.634356 317.60112 
L 200.370962 298.393872 
L 201.844174 290.710973 
L 202.58078 283.028073 
L 203.317386 286.869523 
L 204.790597 248.455027 
L 205.527203 252.296476 
L 206.263809 267.662275 
L 207.000415 275.345174 
L 207.737021 271.503725 
L 208.473627 256.137926 
L 209.210233 267.662275 
L 209.946839 256.137926 
L 210.683444 279.186624 
L 211.42005 286.869523 
L 212.893262 271.503725 
L 214.366474 294.552422 
L 215.10308 283.028073 
L 215.839686 267.662275 
L 216.576292 271.503725 
L 217.312897 279.186624 
L 218.049503 283.028073 
L 219.522715 252.296476 
L 220.259321 244.613577 
L 220.995927 252.296476 
L 221.732533 233.089228 
L 222.469139 217.72343 
L 223.205745 259.979376 
L 223.94235 252.296476 
L 224.678956 240.772127 
L 225.415562 259.979376 
L 226.152168 283.028073 
L 226.888774 298.393872 
L 227.62538 294.552422 
L 228.361986 309.918221 
L 229.098592 302.235322 
L 229.835198 306.076771 
L 230.571804 302.235322 
L 231.308409 302.235322 
L 232.045015 306.076771 
L 232.781621 321.44257 
L 233.518227 306.076771 
L 234.254833 286.869523 
L 234.991439 294.552422 
L 236.464651 302.235322 
L 237.201257 309.918221 
L 237.937862 302.235322 
L 238.674468 290.710973 
L 239.411074 290.710973 
L 240.14768 286.869523 
L 240.884286 267.662275 
L 241.620892 279.186624 
L 242.357498 298.393872 
L 243.094104 283.028073 
L 243.83071 286.869523 
L 244.567315 294.552422 
L 245.303921 298.393872 
L 246.040527 294.552422 
L 246.777133 286.869523 
L 247.513739 286.869523 
L 248.250345 267.662275 
L 248.986951 271.503725 
L 249.723557 267.662275 
L 250.460163 271.503725 
L 251.196768 271.503725 
L 251.933374 259.979376 
L 252.66998 236.930678 
L 253.406586 267.662275 
L 254.879798 298.393872 
L 255.616404 309.918221 
L 256.35301 313.75967 
L 257.089616 306.076771 
L 257.826221 302.235322 
L 258.562827 283.028073 
L 259.299433 283.028073 
L 260.036039 271.503725 
L 261.509251 279.186624 
L 262.245857 290.710973 
L 263.719069 283.028073 
L 264.455674 283.028073 
L 265.19228 263.820825 
L 265.928886 279.186624 
L 266.665492 298.393872 
L 267.402098 290.710973 
L 268.138704 271.503725 
L 268.87531 267.662275 
L 269.611916 275.345174 
L 270.348522 279.186624 
L 271.085127 267.662275 
L 271.821733 267.662275 
L 273.294945 283.028073 
L 274.768157 252.296476 
L 275.504763 259.979376 
L 276.241369 252.296476 
L 276.977975 263.820825 
L 277.714581 271.503725 
L 278.451186 283.028073 
L 279.187792 275.345174 
L 279.924398 283.028073 
L 280.661004 294.552422 
L 281.39761 302.235322 
L 282.134216 298.393872 
L 282.870822 302.235322 
L 283.607428 290.710973 
L 284.344034 267.662275 
L 285.080639 279.186624 
L 285.817245 263.820825 
L 287.290457 294.552422 
L 288.027063 286.869523 
L 288.763669 267.662275 
L 289.500275 259.979376 
L 290.236881 275.345174 
L 291.710092 290.710973 
L 292.446698 290.710973 
L 293.183304 294.552422 
L 293.91991 290.710973 
L 294.656516 283.028073 
L 295.393122 283.028073 
L 296.129728 290.710973 
L 296.866334 286.869523 
L 297.60294 294.552422 
L 299.076151 294.552422 
L 299.812757 279.186624 
L 300.549363 275.345174 
L 301.285969 286.869523 
L 302.759181 302.235322 
L 303.495787 279.186624 
L 304.232393 267.662275 
L 304.968998 283.028073 
L 305.705604 294.552422 
L 307.178816 294.552422 
L 307.915422 306.076771 
L 308.652028 306.076771 
L 309.388634 294.552422 
L 310.12524 290.710973 
L 310.861846 267.662275 
L 311.598451 248.455027 
L 312.335057 233.089228 
L 313.071663 210.04053 
L 313.808269 213.88198 
L 314.544875 252.296476 
L 315.281481 240.772127 
L 316.018087 256.137926 
L 316.754693 248.455027 
L 317.491299 267.662275 
L 318.96451 267.662275 
L 320.437722 275.345174 
L 321.174328 286.869523 
L 321.910934 306.076771 
L 322.64754 290.710973 
L 323.384146 290.710973 
L 324.120752 283.028073 
L 324.857358 279.186624 
L 325.593963 286.869523 
L 326.330569 267.662275 
L 327.067175 275.345174 
L 327.803781 256.137926 
L 328.540387 256.137926 
L 329.276993 275.345174 
L 330.013599 259.979376 
L 331.486811 236.930678 
L 332.223416 248.455027 
L 332.960022 267.662275 
L 333.696628 271.503725 
L 334.433234 252.296476 
L 335.16984 229.247779 
L 335.906446 225.406329 
L 336.643052 248.455027 
L 338.116264 263.820825 
L 338.852869 256.137926 
L 339.589475 259.979376 
L 340.326081 256.137926 
L 341.062687 275.345174 
L 341.799293 267.662275 
L 342.535899 271.503725 
L 343.272505 286.869523 
L 344.009111 294.552422 
L 344.745717 279.186624 
L 345.482322 256.137926 
L 346.218928 271.503725 
L 347.69214 233.089228 
L 348.428746 252.296476 
L 349.165352 256.137926 
L 349.901958 275.345174 
L 350.638564 267.662275 
L 351.37517 267.662275 
L 352.111775 279.186624 
L 352.848381 275.345174 
L 353.584987 286.869523 
L 355.058199 271.503725 
L 355.794805 267.662275 
L 357.268017 267.662275 
L 358.004623 275.345174 
L 358.741228 248.455027 
L 359.477834 263.820825 
L 360.21444 252.296476 
L 360.951046 248.455027 
L 361.687652 267.662275 
L 362.424258 275.345174 
L 363.160864 286.869523 
L 363.89747 294.552422 
L 364.634076 294.552422 
L 365.370682 279.186624 
L 366.107287 271.503725 
L 366.843893 283.028073 
L 367.580499 286.869523 
L 368.317105 283.028073 
L 369.053711 286.869523 
L 369.790317 271.503725 
L 370.526923 263.820825 
L 371.263529 267.662275 
L 372.000135 259.979376 
L 373.473346 252.296476 
L 374.209952 263.820825 
L 374.946558 279.186624 
L 375.683164 279.186624 
L 377.156376 271.503725 
L 377.892982 275.345174 
L 378.629588 294.552422 
L 380.102799 294.552422 
L 380.839405 271.503725 
L 381.576011 271.503725 
L 382.312617 263.820825 
L 383.049223 275.345174 
L 383.785829 279.186624 
L 384.522435 275.345174 
L 385.259041 290.710973 
L 385.995646 302.235322 
L 386.732252 283.028073 
L 387.468858 286.869523 
L 388.94207 279.186624 
L 389.678676 259.979376 
L 390.415282 267.662275 
L 391.151888 283.028073 
L 391.888494 283.028073 
L 392.625099 271.503725 
L 393.361705 279.186624 
L 394.098311 283.028073 
L 394.834917 259.979376 
L 395.571523 263.820825 
L 396.308129 252.296476 
L 397.044735 244.613577 
L 397.781341 271.503725 
L 398.517947 283.028073 
L 399.254552 275.345174 
L 399.991158 271.503725 
L 400.727764 286.869523 
L 401.46437 279.186624 
L 402.200976 298.393872 
L 402.937582 302.235322 
L 403.674188 302.235322 
L 404.410794 317.60112 
L 405.1474 313.75967 
L 405.884005 313.75967 
L 406.620611 309.918221 
L 407.357217 298.393872 
L 409.567035 309.918221 
L 410.303641 302.235322 
L 411.040247 275.345174 
L 411.776853 259.979376 
L 412.513459 263.820825 
L 413.250064 256.137926 
L 413.98667 263.820825 
L 414.723276 275.345174 
L 415.459882 252.296476 
L 416.196488 236.930678 
L 417.6697 267.662275 
L 418.406306 248.455027 
L 419.142912 244.613577 
L 419.879517 271.503725 
L 420.616123 286.869523 
L 421.352729 267.662275 
L 422.089335 259.979376 
L 422.825941 259.979376 
L 423.562547 252.296476 
L 425.035759 267.662275 
L 425.772365 267.662275 
L 426.50897 259.979376 
L 427.982182 283.028073 
L 428.718788 290.710973 
L 429.455394 271.503725 
L 430.192 271.503725 
L 430.928606 275.345174 
L 431.665212 283.028073 
L 432.401818 263.820825 
L 433.138423 248.455027 
L 433.875029 259.979376 
L 435.348241 290.710973 
L 436.821453 290.710973 
L 437.558059 294.552422 
L 439.031271 279.186624 
L 439.767876 279.186624 
L 440.504482 267.662275 
L 441.241088 283.028073 
L 441.977694 283.028073 
L 442.7143 286.869523 
L 443.450906 279.186624 
L 444.187512 279.186624 
L 444.924118 283.028073 
L 445.660724 290.710973 
L 446.397329 271.503725 
L 447.133935 267.662275 
L 447.870541 267.662275 
L 448.607147 286.869523 
L 449.343753 279.186624 
L 450.080359 256.137926 
L 450.816965 267.662275 
L 451.553571 298.393872 
L 452.290177 302.235322 
L 453.026782 309.918221 
L 453.763388 306.076771 
L 454.499994 306.076771 
L 455.2366 298.393872 
L 455.973206 306.076771 
L 456.709812 306.076771 
L 458.183024 267.662275 
L 458.91963 252.296476 
L 459.656236 279.186624 
L 460.392841 271.503725 
L 461.129447 271.503725 
L 461.866053 286.869523 
L 462.602659 275.345174 
L 463.339265 286.869523 
L 464.075871 294.552422 
L 464.812477 290.710973 
L 465.549083 271.503725 
L 466.285689 279.186624 
L 467.022294 279.186624 
L 467.7589 267.662275 
L 468.495506 275.345174 
L 469.232112 256.137926 
L 469.968718 263.820825 
L 470.705324 279.186624 
L 471.44193 271.503725 
L 472.178536 271.503725 
L 472.915142 248.455027 
L 473.651747 229.247779 
L 474.388353 263.820825 
L 475.124959 279.186624 
L 475.861565 283.028073 
L 476.598171 283.028073 
L 477.334777 256.137926 
L 478.071383 267.662275 
L 478.807989 271.503725 
L 479.544595 263.820825 
L 480.2812 244.613577 
L 481.017806 267.662275 
L 481.754412 267.662275 
L 482.491018 252.296476 
L 483.96423 275.345174 
L 484.700836 279.186624 
L 485.437442 294.552422 
L 486.174048 290.710973 
L 486.910653 290.710973 
L 487.647259 283.028073 
L 488.383865 283.028073 
L 489.120471 267.662275 
L 489.857077 271.503725 
L 490.593683 283.028073 
L 491.330289 271.503725 
L 492.803501 294.552422 
L 493.540106 298.393872 
L 494.276712 294.552422 
L 495.013318 275.345174 
L 495.749924 271.503725 
L 496.48653 263.820825 
L 497.223136 267.662275 
L 497.959742 283.028073 
L 498.696348 275.345174 
L 499.432954 283.028073 
L 500.169559 302.235322 
L 500.906165 290.710973 
L 501.642771 290.710973 
L 502.379377 298.393872 
L 503.115983 283.028073 
L 503.852589 256.137926 
L 503.852589 256.137926 
" style="fill:none;stroke:#ff7f0e;stroke-linecap:square;stroke-width:1.5;"/>
   </g>
   <g id="line2d_18">
    <path clip-path="url(#p70b879ae50)" d="M 109.621116 267.662275 
L 110.357722 252.296476 
L 111.094328 259.979376 
L 111.830934 244.613577 
L 112.56754 256.137926 
L 113.304146 263.820825 
L 114.040752 275.345174 
L 114.777357 267.662275 
L 115.513963 271.503725 
L 116.250569 283.028073 
L 116.987175 290.710973 
L 117.723781 275.345174 
L 118.460387 248.455027 
L 119.196993 229.247779 
L 119.933599 252.296476 
L 120.670205 263.820825 
L 121.406811 244.613577 
L 122.143416 259.979376 
L 122.880022 267.662275 
L 123.616628 256.137926 
L 124.353234 267.662275 
L 125.08984 252.296476 
L 125.826446 240.772127 
L 126.563052 259.979376 
L 127.299658 283.028073 
L 128.772869 306.076771 
L 129.509475 298.393872 
L 130.982687 259.979376 
L 131.719293 236.930678 
L 132.455899 240.772127 
L 133.192505 256.137926 
L 133.929111 256.137926 
L 134.665717 240.772127 
L 135.402322 256.137926 
L 136.138928 275.345174 
L 136.875534 298.393872 
L 137.61214 283.028073 
L 138.348746 256.137926 
L 139.085352 240.772127 
L 139.821958 221.564879 
L 140.558564 240.772127 
L 142.031775 256.137926 
L 142.768381 271.503725 
L 143.504987 283.028073 
L 144.241593 279.186624 
L 144.978199 279.186624 
L 145.714805 275.345174 
L 146.451411 283.028073 
L 147.188017 298.393872 
L 148.661228 283.028073 
L 149.397834 271.503725 
L 150.13444 279.186624 
L 150.871046 302.235322 
L 151.607652 294.552422 
L 153.080864 294.552422 
L 155.290681 306.076771 
L 156.027287 302.235322 
L 156.763893 309.918221 
L 157.500499 298.393872 
L 158.237105 290.710973 
L 158.973711 271.503725 
L 159.710317 279.186624 
L 160.446923 263.820825 
L 161.183529 286.869523 
L 161.920134 294.552422 
L 162.65674 286.869523 
L 163.393346 290.710973 
L 164.129952 290.710973 
L 164.866558 275.345174 
L 166.33977 290.710973 
L 167.076376 309.918221 
L 167.812982 294.552422 
L 168.549588 275.345174 
L 170.022799 275.345174 
L 170.759405 286.869523 
L 171.496011 271.503725 
L 172.232617 267.662275 
L 172.969223 271.503725 
L 173.705829 256.137926 
L 174.442435 271.503725 
L 175.179041 279.186624 
L 175.915646 248.455027 
L 176.652252 236.930678 
L 177.388858 256.137926 
L 178.125464 267.662275 
L 178.86207 259.979376 
L 179.598676 271.503725 
L 180.335282 271.503725 
L 181.071888 267.662275 
L 181.808494 283.028073 
L 182.545099 290.710973 
L 183.281705 294.552422 
L 184.018311 306.076771 
L 184.754917 309.918221 
L 185.491523 306.076771 
L 186.228129 306.076771 
L 186.964735 309.918221 
L 187.701341 298.393872 
L 189.174552 252.296476 
L 189.911158 252.296476 
L 190.647764 275.345174 
L 191.38437 263.820825 
L 192.120976 259.979376 
L 192.857582 279.186624 
L 193.594188 290.710973 
L 196.540611 306.076771 
L 197.277217 298.393872 
L 198.013823 286.869523 
L 198.750429 267.662275 
L 199.487035 271.503725 
L 200.223641 252.296476 
L 200.960247 256.137926 
L 201.696853 248.455027 
L 202.433458 248.455027 
L 203.170064 271.503725 
L 203.90667 271.503725 
L 204.643276 286.869523 
L 205.379882 283.028073 
L 206.116488 256.137926 
L 206.853094 252.296476 
L 208.326306 290.710973 
L 209.062912 275.345174 
L 209.799517 279.186624 
L 210.536123 263.820825 
L 211.272729 267.662275 
L 212.009335 283.028073 
L 212.745941 263.820825 
L 213.482547 256.137926 
L 214.219153 256.137926 
L 214.955759 263.820825 
L 215.692365 263.820825 
L 216.42897 283.028073 
L 217.165576 298.393872 
L 217.902182 286.869523 
L 218.638788 267.662275 
L 219.375394 286.869523 
L 220.112 290.710973 
L 220.848606 302.235322 
L 221.585212 302.235322 
L 222.321818 298.393872 
L 223.795029 259.979376 
L 224.531635 271.503725 
L 225.268241 279.186624 
L 226.004847 267.662275 
L 226.741453 275.345174 
L 227.478059 252.296476 
L 228.214665 256.137926 
L 229.687876 248.455027 
L 230.424482 259.979376 
L 231.161088 259.979376 
L 231.897694 244.613577 
L 232.6343 236.930678 
L 234.107512 275.345174 
L 234.844118 283.028073 
L 235.580724 279.186624 
L 236.317329 279.186624 
L 237.053935 263.820825 
L 238.527147 225.406329 
L 239.263753 240.772127 
L 240.000359 263.820825 
L 240.736965 294.552422 
L 241.473571 294.552422 
L 242.210177 298.393872 
L 242.946782 298.393872 
L 243.683388 302.235322 
L 244.419994 298.393872 
L 245.1566 271.503725 
L 245.893206 279.186624 
L 246.629812 283.028073 
L 247.366418 294.552422 
L 248.103024 294.552422 
L 248.83963 309.918221 
L 249.576235 306.076771 
L 250.312841 298.393872 
L 251.049447 294.552422 
L 252.522659 317.60112 
L 253.259265 306.076771 
L 253.995871 302.235322 
L 254.732477 279.186624 
L 255.469083 283.028073 
L 256.205689 275.345174 
L 256.942294 275.345174 
L 257.6789 283.028073 
L 258.415506 263.820825 
L 259.152112 271.503725 
L 259.888718 286.869523 
L 260.625324 309.918221 
L 261.36193 313.75967 
L 262.098536 294.552422 
L 262.835142 294.552422 
L 263.571747 286.869523 
L 264.308353 298.393872 
L 265.044959 298.393872 
L 265.781565 286.869523 
L 266.518171 294.552422 
L 267.254777 298.393872 
L 267.991383 298.393872 
L 268.727989 306.076771 
L 270.2012 267.662275 
L 270.937806 271.503725 
L 271.674412 263.820825 
L 272.411018 271.503725 
L 273.147624 244.613577 
L 273.88423 229.247779 
L 274.620836 252.296476 
L 275.357442 271.503725 
L 276.094048 283.028073 
L 276.830653 259.979376 
L 277.567259 263.820825 
L 278.303865 279.186624 
L 279.040471 267.662275 
L 279.777077 279.186624 
L 280.513683 279.186624 
L 281.250289 256.137926 
L 281.986895 240.772127 
L 282.723501 240.772127 
L 283.460106 263.820825 
L 284.196712 283.028073 
L 284.933318 290.710973 
L 285.669924 286.869523 
L 286.40653 279.186624 
L 287.143136 267.662275 
L 287.879742 271.503725 
L 288.616348 298.393872 
L 289.352954 306.076771 
L 290.089559 294.552422 
L 290.826165 286.869523 
L 291.562771 267.662275 
L 292.299377 279.186624 
L 293.035983 283.028073 
L 293.772589 263.820825 
L 294.509195 259.979376 
L 295.245801 263.820825 
L 296.719012 279.186624 
L 297.455618 256.137926 
L 298.192224 236.930678 
L 298.92883 256.137926 
L 299.665436 267.662275 
L 300.402042 283.028073 
L 301.138648 275.345174 
L 301.875254 271.503725 
L 302.61186 248.455027 
L 304.085071 256.137926 
L 304.821677 267.662275 
L 305.558283 256.137926 
L 306.294889 267.662275 
L 307.031495 275.345174 
L 307.768101 263.820825 
L 308.504707 271.503725 
L 309.241313 275.345174 
L 309.977919 275.345174 
L 310.714524 283.028073 
L 311.45113 275.345174 
L 312.187736 290.710973 
L 312.924342 294.552422 
L 313.660948 306.076771 
L 314.397554 294.552422 
L 315.13416 294.552422 
L 315.870766 298.393872 
L 316.607372 279.186624 
L 317.343977 263.820825 
L 318.080583 271.503725 
L 318.817189 263.820825 
L 319.553795 271.503725 
L 321.027007 279.186624 
L 321.763613 279.186624 
L 322.500219 290.710973 
L 323.236825 271.503725 
L 323.97343 263.820825 
L 324.710036 271.503725 
L 325.446642 244.613577 
L 326.183248 271.503725 
L 326.919854 290.710973 
L 327.65646 306.076771 
L 328.393066 309.918221 
L 329.129672 298.393872 
L 329.866278 290.710973 
L 330.602883 286.869523 
L 331.339489 286.869523 
L 332.812701 256.137926 
L 333.549307 259.979376 
L 335.022519 298.393872 
L 335.759125 306.076771 
L 336.495731 306.076771 
L 337.232336 286.869523 
L 337.968942 309.918221 
L 338.705548 290.710973 
L 339.442154 275.345174 
L 340.17876 275.345174 
L 340.915366 259.979376 
L 341.651972 275.345174 
L 342.388578 286.869523 
L 343.125184 267.662275 
L 343.861789 256.137926 
L 344.598395 267.662275 
L 345.335001 290.710973 
L 346.071607 294.552422 
L 346.808213 302.235322 
L 347.544819 286.869523 
L 348.281425 267.662275 
L 349.018031 290.710973 
L 349.754637 298.393872 
L 350.491243 286.869523 
L 351.227848 259.979376 
L 351.964454 252.296476 
L 352.70106 259.979376 
L 353.437666 248.455027 
L 354.174272 252.296476 
L 354.910878 236.930678 
L 355.647484 225.406329 
L 357.120696 256.137926 
L 357.857301 236.930678 
L 358.593907 240.772127 
L 359.330513 240.772127 
L 360.067119 275.345174 
L 360.803725 283.028073 
L 361.540331 275.345174 
L 362.276937 259.979376 
L 363.013543 252.296476 
L 363.750149 256.137926 
L 364.486754 244.613577 
L 365.22336 256.137926 
L 365.959966 259.979376 
L 366.696572 248.455027 
L 368.169784 279.186624 
L 369.642996 279.186624 
L 370.379602 302.235322 
L 371.116207 298.393872 
L 371.852813 298.393872 
L 372.589419 286.869523 
L 373.326025 298.393872 
L 374.062631 286.869523 
L 374.799237 263.820825 
L 375.535843 263.820825 
L 376.272449 259.979376 
L 377.009055 263.820825 
L 377.74566 275.345174 
L 378.482266 290.710973 
L 379.218872 298.393872 
L 379.955478 302.235322 
L 380.692084 302.235322 
L 381.42869 290.710973 
L 382.901902 275.345174 
L 383.638508 309.918221 
L 384.375113 317.60112 
L 385.111719 298.393872 
L 385.848325 290.710973 
L 386.584931 294.552422 
L 387.321537 286.869523 
L 388.058143 271.503725 
L 389.531355 271.503725 
L 390.267961 286.869523 
L 391.004566 275.345174 
L 391.741172 271.503725 
L 392.477778 263.820825 
L 393.214384 236.930678 
L 393.95099 252.296476 
L 394.687596 263.820825 
L 395.424202 286.869523 
L 396.160808 290.710973 
L 397.63402 306.076771 
L 398.370625 302.235322 
L 399.107231 294.552422 
L 399.843837 283.028073 
L 400.580443 283.028073 
L 401.317049 286.869523 
L 402.053655 302.235322 
L 402.790261 302.235322 
L 404.263473 263.820825 
L 405.000078 267.662275 
L 405.736684 256.137926 
L 406.47329 275.345174 
L 407.209896 271.503725 
L 407.946502 252.296476 
L 408.683108 256.137926 
L 409.419714 263.820825 
L 410.892926 286.869523 
L 411.629531 294.552422 
L 413.102743 302.235322 
L 413.839349 283.028073 
L 414.575955 290.710973 
L 415.312561 279.186624 
L 416.049167 290.710973 
L 416.785773 286.869523 
L 417.522379 286.869523 
L 418.258984 290.710973 
L 418.99559 279.186624 
L 419.732196 256.137926 
L 420.468802 240.772127 
L 421.205408 252.296476 
L 421.942014 275.345174 
L 422.67862 286.869523 
L 423.415226 283.028073 
L 424.151832 263.820825 
L 425.625043 271.503725 
L 426.361649 286.869523 
L 427.098255 298.393872 
L 427.834861 298.393872 
L 428.571467 294.552422 
L 429.308073 302.235322 
L 430.044679 294.552422 
L 430.781285 290.710973 
L 431.51789 271.503725 
L 432.254496 263.820825 
L 432.991102 286.869523 
L 433.727708 294.552422 
L 434.464314 298.393872 
L 435.20092 283.028073 
L 435.937526 286.869523 
L 436.674132 283.028073 
L 437.410738 290.710973 
L 438.147343 283.028073 
L 439.620555 275.345174 
L 440.357161 286.869523 
L 441.093767 302.235322 
L 441.830373 298.393872 
L 442.566979 302.235322 
L 443.303585 302.235322 
L 444.040191 283.028073 
L 444.776797 283.028073 
L 445.513402 271.503725 
L 446.250008 275.345174 
L 446.986614 267.662275 
L 447.72322 267.662275 
L 448.459826 240.772127 
L 449.196432 225.406329 
L 449.933038 244.613577 
L 450.669644 286.869523 
L 452.142855 279.186624 
L 452.879461 256.137926 
L 453.616067 263.820825 
L 454.352673 275.345174 
L 455.089279 267.662275 
L 455.825885 240.772127 
L 456.562491 221.564879 
L 457.299097 233.089228 
L 458.035703 240.772127 
L 458.772308 275.345174 
L 459.508914 259.979376 
L 460.24552 252.296476 
L 460.982126 256.137926 
L 461.718732 248.455027 
L 462.455338 256.137926 
L 463.191944 240.772127 
L 463.92855 252.296476 
L 464.665156 240.772127 
L 466.138367 263.820825 
L 466.874973 267.662275 
L 468.348185 290.710973 
L 469.084791 298.393872 
L 469.821397 279.186624 
L 470.558003 302.235322 
L 471.294609 313.75967 
L 472.031214 306.076771 
L 473.504426 306.076771 
L 474.241032 286.869523 
L 474.977638 271.503725 
L 475.714244 275.345174 
L 476.45085 286.869523 
L 477.187456 302.235322 
L 477.924062 306.076771 
L 480.133879 283.028073 
L 480.870485 283.028073 
L 482.343697 290.710973 
L 483.080303 286.869523 
L 483.816909 271.503725 
L 484.553515 271.503725 
L 485.29012 286.869523 
L 486.026726 294.552422 
L 486.763332 275.345174 
L 487.499938 298.393872 
L 488.236544 286.869523 
L 489.709756 248.455027 
L 490.446362 248.455027 
L 491.182968 271.503725 
L 491.919574 263.820825 
L 492.656179 267.662275 
L 493.392785 267.662275 
L 494.129391 271.503725 
L 494.865997 290.710973 
L 495.602603 290.710973 
L 496.339209 286.869523 
L 497.075815 279.186624 
L 497.812421 275.345174 
L 498.549027 279.186624 
L 500.022238 240.772127 
L 501.49545 263.820825 
L 502.232056 256.137926 
L 503.705268 279.186624 
L 504.441874 275.345174 
L 505.17848 294.552422 
L 505.915085 283.028073 
L 506.651691 259.979376 
L 506.651691 259.979376 
" style="fill:none;stroke:#2ca02c;stroke-linecap:square;stroke-width:1.5;"/>
   </g>
   <g id="line2d_19">
    <path clip-path="url(#p70b879ae50)" d="M 112.589638 302.235322 
L 113.326244 294.552422 
L 114.06285 283.028073 
L 114.799456 294.552422 
L 115.536062 309.918221 
L 116.272667 294.552422 
L 117.009273 267.662275 
L 117.745879 252.296476 
L 118.482485 263.820825 
L 119.219091 298.393872 
L 119.955697 298.393872 
L 120.692303 275.345174 
L 121.428909 286.869523 
L 122.165515 290.710973 
L 122.90212 286.869523 
L 123.638726 275.345174 
L 125.111938 267.662275 
L 125.848544 256.137926 
L 126.58515 259.979376 
L 127.321756 244.613577 
L 128.058362 256.137926 
L 128.794968 240.772127 
L 129.531573 248.455027 
L 130.268179 283.028073 
L 131.004785 302.235322 
L 131.741391 302.235322 
L 132.477997 279.186624 
L 133.214603 271.503725 
L 133.951209 283.028073 
L 134.687815 313.75967 
L 135.424421 317.60112 
L 136.161027 313.75967 
L 136.897632 290.710973 
L 137.634238 271.503725 
L 138.370844 275.345174 
L 139.10745 290.710973 
L 139.844056 294.552422 
L 140.580662 279.186624 
L 141.317268 279.186624 
L 142.053874 286.869523 
L 142.79048 267.662275 
L 143.527085 263.820825 
L 144.263691 279.186624 
L 145.000297 275.345174 
L 145.736903 290.710973 
L 147.210115 306.076771 
L 147.946721 309.918221 
L 148.683327 306.076771 
L 149.419933 290.710973 
L 150.156538 294.552422 
L 150.893144 275.345174 
L 151.62975 259.979376 
L 152.366356 267.662275 
L 153.102962 244.613577 
L 153.839568 256.137926 
L 154.576174 252.296476 
L 155.31278 275.345174 
L 156.049386 294.552422 
L 156.785991 306.076771 
L 157.522597 302.235322 
L 158.259203 313.75967 
L 158.995809 313.75967 
L 159.732415 302.235322 
L 160.469021 298.393872 
L 161.205627 275.345174 
L 161.942233 256.137926 
L 162.678839 271.503725 
L 163.415444 279.186624 
L 164.15205 275.345174 
L 164.888656 290.710973 
L 165.625262 309.918221 
L 166.361868 321.44257 
L 167.098474 317.60112 
L 167.83508 306.076771 
L 168.571686 298.393872 
L 169.308292 271.503725 
L 170.044897 271.503725 
L 170.781503 263.820825 
L 171.518109 267.662275 
L 172.991321 267.662275 
L 173.727927 256.137926 
L 174.464533 259.979376 
L 175.201139 290.710973 
L 175.937745 306.076771 
L 176.67435 302.235322 
L 177.410956 294.552422 
L 178.147562 306.076771 
L 178.884168 306.076771 
L 179.620774 279.186624 
L 180.35738 271.503725 
L 181.093986 294.552422 
L 181.830592 279.186624 
L 182.567198 256.137926 
L 183.303804 267.662275 
L 184.040409 248.455027 
L 185.513621 217.72343 
L 186.250227 233.089228 
L 186.986833 233.089228 
L 187.723439 256.137926 
L 188.460045 271.503725 
L 189.196651 283.028073 
L 189.933257 290.710973 
L 190.669862 294.552422 
L 191.406468 294.552422 
L 192.87968 279.186624 
L 193.616286 275.345174 
L 195.089498 283.028073 
L 195.826104 290.710973 
L 196.56271 275.345174 
L 198.035921 259.979376 
L 198.772527 271.503725 
L 199.509133 248.455027 
L 200.245739 267.662275 
L 201.718951 275.345174 
L 202.455557 271.503725 
L 203.192163 244.613577 
L 203.928768 259.979376 
L 204.665374 263.820825 
L 206.138586 286.869523 
L 207.611798 294.552422 
L 208.348404 286.869523 
L 209.08501 286.869523 
L 209.821616 279.186624 
L 210.558221 267.662275 
L 211.294827 271.503725 
L 212.031433 279.186624 
L 212.768039 294.552422 
L 213.504645 290.710973 
L 214.241251 283.028073 
L 214.977857 294.552422 
L 215.714463 302.235322 
L 216.451069 294.552422 
L 217.187674 290.710973 
L 217.92428 271.503725 
L 218.660886 275.345174 
L 219.397492 290.710973 
L 220.134098 294.552422 
L 220.870704 275.345174 
L 221.60731 259.979376 
L 222.343916 279.186624 
L 223.817127 286.869523 
L 224.553733 294.552422 
L 225.290339 275.345174 
L 226.026945 283.028073 
L 226.763551 279.186624 
L 227.500157 294.552422 
L 228.236763 271.503725 
L 228.973369 283.028073 
L 230.446581 283.028073 
L 231.183186 279.186624 
L 231.919792 279.186624 
L 232.656398 302.235322 
L 233.393004 294.552422 
L 234.12961 271.503725 
L 234.866216 256.137926 
L 235.602822 259.979376 
L 236.339428 248.455027 
L 238.549245 306.076771 
L 239.285851 286.869523 
L 240.022457 286.869523 
L 240.759063 271.503725 
L 241.495669 248.455027 
L 242.232275 248.455027 
L 242.968881 259.979376 
L 243.705487 259.979376 
L 244.442092 244.613577 
L 245.178698 240.772127 
L 246.65191 248.455027 
L 247.388516 233.089228 
L 248.125122 248.455027 
L 248.861728 233.089228 
L 249.598334 252.296476 
L 250.33494 263.820825 
L 251.071545 267.662275 
L 251.808151 259.979376 
L 252.544757 259.979376 
L 253.281363 252.296476 
L 254.017969 240.772127 
L 254.754575 267.662275 
L 255.491181 267.662275 
L 256.227787 248.455027 
L 256.964393 252.296476 
L 257.700998 244.613577 
L 258.437604 279.186624 
L 259.17421 263.820825 
L 259.910816 279.186624 
L 260.647422 267.662275 
L 261.384028 271.503725 
L 262.120634 252.296476 
L 262.85724 240.772127 
L 263.593846 267.662275 
L 264.330451 263.820825 
L 265.067057 263.820825 
L 265.803663 279.186624 
L 266.540269 271.503725 
L 267.276875 267.662275 
L 268.013481 283.028073 
L 268.750087 279.186624 
L 269.486693 279.186624 
L 270.223299 275.345174 
L 270.959904 302.235322 
L 271.69651 306.076771 
L 272.433116 313.75967 
L 273.906328 313.75967 
L 274.642934 306.076771 
L 275.37954 294.552422 
L 276.116146 294.552422 
L 276.852752 298.393872 
L 277.589358 279.186624 
L 278.325963 263.820825 
L 279.062569 279.186624 
L 279.799175 286.869523 
L 280.535781 286.869523 
L 281.272387 279.186624 
L 282.008993 283.028073 
L 282.745599 294.552422 
L 283.482205 283.028073 
L 284.218811 263.820825 
L 284.955416 271.503725 
L 285.692022 275.345174 
L 287.165234 259.979376 
L 288.638446 283.028073 
L 289.375052 302.235322 
L 290.111658 294.552422 
L 290.848264 298.393872 
L 291.584869 290.710973 
L 293.058081 252.296476 
L 294.531293 290.710973 
L 295.267899 286.869523 
L 296.004505 279.186624 
L 296.741111 263.820825 
L 297.477717 267.662275 
L 298.214322 286.869523 
L 298.950928 279.186624 
L 299.687534 294.552422 
L 300.42414 302.235322 
L 301.160746 279.186624 
L 301.897352 279.186624 
L 302.633958 290.710973 
L 303.370564 290.710973 
L 304.10717 302.235322 
L 304.843775 290.710973 
L 305.580381 298.393872 
L 306.316987 286.869523 
L 307.053593 271.503725 
L 307.790199 286.869523 
L 310.736623 286.869523 
L 311.473228 298.393872 
L 312.209834 313.75967 
L 312.94644 317.60112 
L 314.419652 279.186624 
L 315.156258 283.028073 
L 315.892864 259.979376 
L 316.62947 279.186624 
L 317.366076 279.186624 
L 318.102681 267.662275 
L 318.839287 286.869523 
L 321.049105 286.869523 
L 321.785711 263.820825 
L 322.522317 275.345174 
L 323.258923 294.552422 
L 323.995529 306.076771 
L 324.732135 306.076771 
L 325.46874 309.918221 
L 326.205346 294.552422 
L 326.941952 275.345174 
L 327.678558 283.028073 
L 328.415164 286.869523 
L 329.15177 279.186624 
L 329.888376 283.028073 
L 330.624982 294.552422 
L 331.361588 290.710973 
L 332.098193 298.393872 
L 332.834799 298.393872 
L 333.571405 290.710973 
L 334.308011 271.503725 
L 335.044617 271.503725 
L 335.781223 283.028073 
L 336.517829 279.186624 
L 337.254435 283.028073 
L 337.991041 283.028073 
L 338.727646 290.710973 
L 339.464252 279.186624 
L 340.200858 286.869523 
L 340.937464 286.869523 
L 341.67407 267.662275 
L 342.410676 279.186624 
L 343.147282 298.393872 
L 343.883888 313.75967 
L 346.093705 302.235322 
L 346.830311 290.710973 
L 347.566917 306.076771 
L 348.303523 290.710973 
L 349.040129 267.662275 
L 349.776735 248.455027 
L 350.513341 267.662275 
L 351.249947 294.552422 
L 351.986552 286.869523 
L 352.723158 294.552422 
L 353.459764 298.393872 
L 354.19637 290.710973 
L 354.932976 294.552422 
L 355.669582 302.235322 
L 356.406188 302.235322 
L 357.142794 283.028073 
L 357.8794 290.710973 
L 358.616005 302.235322 
L 359.352611 290.710973 
L 360.089217 275.345174 
L 360.825823 290.710973 
L 361.562429 283.028073 
L 363.035641 283.028073 
L 363.772247 290.710973 
L 364.508853 290.710973 
L 365.245458 286.869523 
L 368.191882 302.235322 
L 368.928488 309.918221 
L 369.665094 298.393872 
L 370.4017 283.028073 
L 371.138306 294.552422 
L 371.874912 313.75967 
L 373.348123 290.710973 
L 374.084729 290.710973 
L 374.821335 294.552422 
L 375.557941 306.076771 
L 377.031153 290.710973 
L 377.767759 302.235322 
L 378.504365 283.028073 
L 379.24097 259.979376 
L 379.977576 275.345174 
L 380.714182 294.552422 
L 381.450788 298.393872 
L 382.187394 298.393872 
L 382.924 294.552422 
L 383.660606 271.503725 
L 384.397212 279.186624 
L 385.133818 259.979376 
L 385.870423 236.930678 
L 386.607029 252.296476 
L 387.343635 279.186624 
L 388.080241 267.662275 
L 388.816847 275.345174 
L 389.553453 290.710973 
L 390.290059 279.186624 
L 391.026665 263.820825 
L 391.763271 263.820825 
L 392.499876 275.345174 
L 393.236482 290.710973 
L 393.973088 294.552422 
L 395.4463 256.137926 
L 396.919512 279.186624 
L 397.656118 256.137926 
L 398.392724 248.455027 
L 399.865935 286.869523 
L 400.602541 275.345174 
L 401.339147 279.186624 
L 402.075753 275.345174 
L 402.812359 286.869523 
L 403.548965 286.869523 
L 404.285571 259.979376 
L 405.022177 248.455027 
L 405.758782 259.979376 
L 406.495388 252.296476 
L 407.231994 259.979376 
L 407.9686 279.186624 
L 409.441812 286.869523 
L 410.178418 267.662275 
L 410.915024 259.979376 
L 411.65163 259.979376 
L 412.388236 256.137926 
L 413.124841 271.503725 
L 413.861447 283.028073 
L 414.598053 271.503725 
L 415.334659 286.869523 
L 416.807871 286.869523 
L 417.544477 271.503725 
L 418.281083 275.345174 
L 419.017689 286.869523 
L 419.754294 283.028073 
L 420.4909 298.393872 
L 421.227506 302.235322 
L 421.964112 313.75967 
L 422.700718 309.918221 
L 423.437324 309.918221 
L 424.17393 306.076771 
L 424.910536 279.186624 
L 425.647142 275.345174 
L 427.120353 283.028073 
L 427.856959 259.979376 
L 428.593565 275.345174 
L 429.330171 279.186624 
L 430.803383 279.186624 
L 431.539989 267.662275 
L 432.276595 286.869523 
L 433.0132 298.393872 
L 433.749806 279.186624 
L 434.486412 283.028073 
L 435.223018 271.503725 
L 435.959624 279.186624 
L 436.69623 279.186624 
L 437.432836 271.503725 
L 438.169442 271.503725 
L 438.906048 263.820825 
L 439.642653 279.186624 
L 440.379259 275.345174 
L 441.115865 256.137926 
L 441.852471 259.979376 
L 442.589077 244.613577 
L 443.325683 233.089228 
L 444.062289 244.613577 
L 444.798895 252.296476 
L 445.535501 271.503725 
L 446.272106 283.028073 
L 447.008712 302.235322 
L 447.745318 294.552422 
L 448.481924 279.186624 
L 449.955136 302.235322 
L 450.691742 283.028073 
L 451.428348 275.345174 
L 452.164954 290.710973 
L 452.901559 298.393872 
L 453.638165 279.186624 
L 454.374771 256.137926 
L 455.111377 279.186624 
L 455.847983 298.393872 
L 456.584589 302.235322 
L 457.321195 302.235322 
L 458.057801 306.076771 
L 458.794407 306.076771 
L 459.531013 313.75967 
L 460.267618 306.076771 
L 461.004224 294.552422 
L 462.477436 279.186624 
L 463.214042 279.186624 
L 463.950648 252.296476 
L 464.687254 259.979376 
L 465.42386 279.186624 
L 466.160466 283.028073 
L 466.897071 283.028073 
L 468.370283 298.393872 
L 469.106889 286.869523 
L 469.843495 290.710973 
L 471.316707 252.296476 
L 472.053313 259.979376 
L 472.789919 271.503725 
L 473.526524 267.662275 
L 474.26313 271.503725 
L 474.999736 283.028073 
L 475.736342 279.186624 
L 477.94616 290.710973 
L 478.682766 298.393872 
L 479.419372 290.710973 
L 480.155977 302.235322 
L 480.892583 286.869523 
L 481.629189 267.662275 
L 482.365795 275.345174 
L 483.102401 252.296476 
L 483.839007 259.979376 
L 484.575613 271.503725 
L 485.312219 259.979376 
L 486.048825 240.772127 
L 486.78543 259.979376 
L 487.522036 240.772127 
L 488.258642 244.613577 
L 488.995248 275.345174 
L 489.731854 286.869523 
L 490.46846 279.186624 
L 491.205066 290.710973 
L 491.941672 283.028073 
L 492.678278 283.028073 
L 493.414883 267.662275 
L 494.151489 271.503725 
L 494.888095 271.503725 
L 495.624701 290.710973 
L 496.361307 283.028073 
L 497.097913 294.552422 
L 497.834519 298.393872 
L 498.571125 290.710973 
L 500.044336 298.393872 
L 500.780942 275.345174 
L 501.517548 283.028073 
L 502.254154 286.869523 
L 503.727366 302.235322 
L 504.463972 302.235322 
L 505.200578 279.186624 
L 505.937184 263.820825 
L 506.67379 252.296476 
L 507.410395 286.869523 
L 508.147001 294.552422 
L 508.883607 298.393872 
L 509.620213 294.552422 
L 509.620213 294.552422 
" style="fill:none;stroke:#d62728;stroke-linecap:square;stroke-width:1.5;"/>
   </g>
   <g id="patch_3">
    <path d="M 83.472344 352.174167 
L 83.472344 35.0625 
" style="fill:none;stroke:#000000;stroke-linecap:square;stroke-linejoin:miter;stroke-width:0.8;"/>
   </g>
   <g id="patch_4">
    <path d="M 529.912969 352.174167 
L 529.912969 35.0625 
" style="fill:none;stroke:#000000;stroke-linecap:square;stroke-linejoin:miter;stroke-width:0.8;"/>
   </g>
   <g id="patch_5">
    <path d="M 83.472344 352.174167 
L 529.912969 352.174167 
" style="fill:none;stroke:#000000;stroke-linecap:square;stroke-linejoin:miter;stroke-width:0.8;"/>
   </g>
   <g id="patch_6">
    <path d="M 83.472344 35.0625 
L 529.912969 35.0625 
" style="fill:none;stroke:#000000;stroke-linecap:square;stroke-linejoin:miter;stroke-width:0.8;"/>
   </g>
   <g id="legend_1">
    <g id="patch_7">
     <path d="M 554.235 96.775 
L 625.430312 96.775 
Q 627.430312 96.775 627.430312 94.775 
L 627.430312 37.0625 
Q 627.430312 35.0625 625.430312 35.0625 
L 554.235 35.0625 
Q 552.235 35.0625 552.235 37.0625 
L 552.235 94.775 
Q 552.235 96.775 554.235 96.775 
z
" style="fill:#ffffff;opacity:0.8;stroke:#cccccc;stroke-linejoin:miter;"/>
    </g>
    <g id="line2d_20">
     <path d="M 556.235 43.160937 
L 576.235 43.160937 
" style="fill:none;stroke:#1f77b4;stroke-linecap:square;stroke-width:1.5;"/>
    </g>
    <g id="line2d_21"/>
    <g id="text_17">
     <!-- cubic-pi -->
     <defs>
      <path d="M 4.890625 31.390625 
L 31.203125 31.390625 
L 31.203125 23.390625 
L 4.890625 23.390625 
z
" id="DejaVuSans-45"/>
     </defs>
     <g transform="translate(584.235 46.660937)scale(0.1 -0.1)">
      <use xlink:href="#DejaVuSans-99"/>
      <use x="54.980469" xlink:href="#DejaVuSans-117"/>
      <use x="118.359375" xlink:href="#DejaVuSans-98"/>
      <use x="181.835938" xlink:href="#DejaVuSans-105"/>
      <use x="209.619141" xlink:href="#DejaVuSans-99"/>
      <use x="264.599609" xlink:href="#DejaVuSans-45"/>
      <use x="300.683594" xlink:href="#DejaVuSans-112"/>
      <use x="364.160156" xlink:href="#DejaVuSans-105"/>
     </g>
    </g>
    <g id="line2d_22">
     <path d="M 556.235 57.839063 
L 576.235 57.839063 
" style="fill:none;stroke:#ff7f0e;stroke-linecap:square;stroke-width:1.5;"/>
    </g>
    <g id="line2d_23"/>
    <g id="text_18">
     <!-- cubic-pi -->
     <g transform="translate(584.235 61.339063)scale(0.1 -0.1)">
      <use xlink:href="#DejaVuSans-99"/>
      <use x="54.980469" xlink:href="#DejaVuSans-117"/>
      <use x="118.359375" xlink:href="#DejaVuSans-98"/>
      <use x="181.835938" xlink:href="#DejaVuSans-105"/>
      <use x="209.619141" xlink:href="#DejaVuSans-99"/>
      <use x="264.599609" xlink:href="#DejaVuSans-45"/>
      <use x="300.683594" xlink:href="#DejaVuSans-112"/>
      <use x="364.160156" xlink:href="#DejaVuSans-105"/>
     </g>
    </g>
    <g id="line2d_24">
     <path d="M 556.235 72.517187 
L 576.235 72.517187 
" style="fill:none;stroke:#2ca02c;stroke-linecap:square;stroke-width:1.5;"/>
    </g>
    <g id="line2d_25"/>
    <g id="text_19">
     <!-- cubic-pi -->
     <g transform="translate(584.235 76.017187)scale(0.1 -0.1)">
      <use xlink:href="#DejaVuSans-99"/>
      <use x="54.980469" xlink:href="#DejaVuSans-117"/>
      <use x="118.359375" xlink:href="#DejaVuSans-98"/>
      <use x="181.835938" xlink:href="#DejaVuSans-105"/>
      <use x="209.619141" xlink:href="#DejaVuSans-99"/>
      <use x="264.599609" xlink:href="#DejaVuSans-45"/>
      <use x="300.683594" xlink:href="#DejaVuSans-112"/>
      <use x="364.160156" xlink:href="#DejaVuSans-105"/>
     </g>
    </g>
    <g id="line2d_26">
     <path d="M 556.235 87.195312 
L 576.235 87.195312 
" style="fill:none;stroke:#d62728;stroke-linecap:square;stroke-width:1.5;"/>
    </g>
    <g id="line2d_27"/>
    <g id="text_20">
     <!-- cubic-pi -->
     <g transform="translate(584.235 90.695312)scale(0.1 -0.1)">
      <use xlink:href="#DejaVuSans-99"/>
      <use x="54.980469" xlink:href="#DejaVuSans-117"/>
      <use x="118.359375" xlink:href="#DejaVuSans-98"/>
      <use x="181.835938" xlink:href="#DejaVuSans-105"/>
      <use x="209.619141" xlink:href="#DejaVuSans-99"/>
      <use x="264.599609" xlink:href="#DejaVuSans-45"/>
      <use x="300.683594" xlink:href="#DejaVuSans-112"/>
      <use x="364.160156" xlink:href="#DejaVuSans-105"/>
     </g>
    </g>
   </g>
  </g>
  <g id="text_21">
   <!-- result throughput -->
   <defs>
    <path d="M 9.421875 75.984375 
L 18.40625 75.984375 
L 18.40625 0 
L 9.421875 0 
z
" id="DejaVuSans-108"/>
   </defs>
   <g transform="translate(289.320938 17.038125)scale(0.12 -0.12)">
    <use xlink:href="#DejaVuSans-114"/>
    <use x="41.082031" xlink:href="#DejaVuSans-101"/>
    <use x="102.605469" xlink:href="#DejaVuSans-115"/>
    <use x="154.705078" xlink:href="#DejaVuSans-117"/>
    <use x="218.083984" xlink:href="#DejaVuSans-108"/>
    <use x="245.867188" xlink:href="#DejaVuSans-116"/>
    <use x="285.076172" xlink:href="#DejaVuSans-32"/>
    <use x="316.863281" xlink:href="#DejaVuSans-116"/>
    <use x="356.072266" xlink:href="#DejaVuSans-104"/>
    <use x="419.451172" xlink:href="#DejaVuSans-114"/>
    <use x="460.533203" xlink:href="#DejaVuSans-111"/>
    <use x="521.714844" xlink:href="#DejaVuSans-117"/>
    <use x="585.09375" xlink:href="#DejaVuSans-103"/>
    <use x="648.570312" xlink:href="#DejaVuSans-104"/>
    <use x="711.949219" xlink:href="#DejaVuSans-112"/>
    <use x="775.425781" xlink:href="#DejaVuSans-117"/>
    <use x="838.804688" xlink:href="#DejaVuSans-116"/>
   </g>
  </g>
 </g>
 <defs>
  <clipPath id="p70b879ae50">
   <rect height="317.111667" width="446.440625" x="83.472344" y="35.0625"/>
  </clipPath>
 </defs>
</svg>
