<?xml version="1.0" encoding="utf-8" standalone="no"?>
<!DOCTYPE svg PUBLIC "-//W3C//DTD SVG 1.1//EN"
  "http://www.w3.org/Graphics/SVG/1.1/DTD/svg11.dtd">
<!-- Created with matplotlib (https://matplotlib.org/) -->
<svg height="396pt" version="1.1" viewBox="0 0 684 396" width="684pt" xmlns="http://www.w3.org/2000/svg" xmlns:xlink="http://www.w3.org/1999/xlink">
 <defs>
  <style type="text/css">
*{stroke-linecap:butt;stroke-linejoin:round;}
  </style>
 </defs>
 <g id="figure_1">
  <g id="patch_1">
   <path d="M 0 396 
L 684 396 
L 684 0 
L 0 0 
z
" style="fill:#ffffff;"/>
  </g>
  <g id="axes_1">
   <g id="patch_2">
    <path d="M 130.230156 352.174167 
L 529.912969 352.174167 
L 529.912969 35.0625 
L 130.230156 35.0625 
z
" style="fill:#ffffff;"/>
   </g>
   <g id="matplotlib.axis_1">
    <g id="xtick_1">
     <g id="line2d_1">
      <defs>
       <path d="M 0 0 
L 0 3.5 
" id="m6be4c6c244" style="stroke:#000000;stroke-width:0.8;"/>
      </defs>
      <g>
       <use style="stroke:#000000;stroke-width:0.8;" x="148.373816" xlink:href="#m6be4c6c244" y="352.174167"/>
      </g>
     </g>
     <g id="text_1">
      <!-- 0 -->
      <defs>
       <path d="M 31.78125 66.40625 
Q 24.171875 66.40625 20.328125 58.90625 
Q 16.5 51.421875 16.5 36.375 
Q 16.5 21.390625 20.328125 13.890625 
Q 24.171875 6.390625 31.78125 6.390625 
Q 39.453125 6.390625 43.28125 13.890625 
Q 47.125 21.390625 47.125 36.375 
Q 47.125 51.421875 43.28125 58.90625 
Q 39.453125 66.40625 31.78125 66.40625 
z
M 31.78125 74.21875 
Q 44.046875 74.21875 50.515625 64.515625 
Q 56.984375 54.828125 56.984375 36.375 
Q 56.984375 17.96875 50.515625 8.265625 
Q 44.046875 -1.421875 31.78125 -1.421875 
Q 19.53125 -1.421875 13.0625 8.265625 
Q 6.59375 17.96875 6.59375 36.375 
Q 6.59375 54.828125 13.0625 64.515625 
Q 19.53125 74.21875 31.78125 74.21875 
z
" id="DejaVuSans-48"/>
      </defs>
      <g transform="translate(145.192566 366.772604)scale(0.1 -0.1)">
       <use xlink:href="#DejaVuSans-48"/>
      </g>
     </g>
    </g>
    <g id="xtick_2">
     <g id="line2d_2">
      <g>
       <use style="stroke:#000000;stroke-width:0.8;" x="214.320784" xlink:href="#m6be4c6c244" y="352.174167"/>
      </g>
     </g>
     <g id="text_2">
      <!-- 50 -->
      <defs>
       <path d="M 10.796875 72.90625 
L 49.515625 72.90625 
L 49.515625 64.59375 
L 19.828125 64.59375 
L 19.828125 46.734375 
Q 21.96875 47.46875 24.109375 47.828125 
Q 26.265625 48.1875 28.421875 48.1875 
Q 40.625 48.1875 47.75 41.5 
Q 54.890625 34.8125 54.890625 23.390625 
Q 54.890625 11.625 47.5625 5.09375 
Q 40.234375 -1.421875 26.90625 -1.421875 
Q 22.3125 -1.421875 17.546875 -0.640625 
Q 12.796875 0.140625 7.71875 1.703125 
L 7.71875 11.625 
Q 12.109375 9.234375 16.796875 8.0625 
Q 21.484375 6.890625 26.703125 6.890625 
Q 35.15625 6.890625 40.078125 11.328125 
Q 45.015625 15.765625 45.015625 23.390625 
Q 45.015625 31 40.078125 35.4375 
Q 35.15625 39.890625 26.703125 39.890625 
Q 22.75 39.890625 18.8125 39.015625 
Q 14.890625 38.140625 10.796875 36.28125 
z
" id="DejaVuSans-53"/>
      </defs>
      <g transform="translate(207.958284 366.772604)scale(0.1 -0.1)">
       <use xlink:href="#DejaVuSans-53"/>
       <use x="63.623047" xlink:href="#DejaVuSans-48"/>
      </g>
     </g>
    </g>
    <g id="xtick_3">
     <g id="line2d_3">
      <g>
       <use style="stroke:#000000;stroke-width:0.8;" x="280.267753" xlink:href="#m6be4c6c244" y="352.174167"/>
      </g>
     </g>
     <g id="text_3">
      <!-- 100 -->
      <defs>
       <path d="M 12.40625 8.296875 
L 28.515625 8.296875 
L 28.515625 63.921875 
L 10.984375 60.40625 
L 10.984375 69.390625 
L 28.421875 72.90625 
L 38.28125 72.90625 
L 38.28125 8.296875 
L 54.390625 8.296875 
L 54.390625 0 
L 12.40625 0 
z
" id="DejaVuSans-49"/>
      </defs>
      <g transform="translate(270.724003 366.772604)scale(0.1 -0.1)">
       <use xlink:href="#DejaVuSans-49"/>
       <use x="63.623047" xlink:href="#DejaVuSans-48"/>
       <use x="127.246094" xlink:href="#DejaVuSans-48"/>
      </g>
     </g>
    </g>
    <g id="xtick_4">
     <g id="line2d_4">
      <g>
       <use style="stroke:#000000;stroke-width:0.8;" x="346.214721" xlink:href="#m6be4c6c244" y="352.174167"/>
      </g>
     </g>
     <g id="text_4">
      <!-- 150 -->
      <g transform="translate(336.670971 366.772604)scale(0.1 -0.1)">
       <use xlink:href="#DejaVuSans-49"/>
       <use x="63.623047" xlink:href="#DejaVuSans-53"/>
       <use x="127.246094" xlink:href="#DejaVuSans-48"/>
      </g>
     </g>
    </g>
    <g id="xtick_5">
     <g id="line2d_5">
      <g>
       <use style="stroke:#000000;stroke-width:0.8;" x="412.161689" xlink:href="#m6be4c6c244" y="352.174167"/>
      </g>
     </g>
     <g id="text_5">
      <!-- 200 -->
      <defs>
       <path d="M 19.1875 8.296875 
L 53.609375 8.296875 
L 53.609375 0 
L 7.328125 0 
L 7.328125 8.296875 
Q 12.9375 14.109375 22.625 23.890625 
Q 32.328125 33.6875 34.8125 36.53125 
Q 39.546875 41.84375 41.421875 45.53125 
Q 43.3125 49.21875 43.3125 52.78125 
Q 43.3125 58.59375 39.234375 62.25 
Q 35.15625 65.921875 28.609375 65.921875 
Q 23.96875 65.921875 18.8125 64.3125 
Q 13.671875 62.703125 7.8125 59.421875 
L 7.8125 69.390625 
Q 13.765625 71.78125 18.9375 73 
Q 24.125 74.21875 28.421875 74.21875 
Q 39.75 74.21875 46.484375 68.546875 
Q 53.21875 62.890625 53.21875 53.421875 
Q 53.21875 48.921875 51.53125 44.890625 
Q 49.859375 40.875 45.40625 35.40625 
Q 44.1875 33.984375 37.640625 27.21875 
Q 31.109375 20.453125 19.1875 8.296875 
z
" id="DejaVuSans-50"/>
      </defs>
      <g transform="translate(402.617939 366.772604)scale(0.1 -0.1)">
       <use xlink:href="#DejaVuSans-50"/>
       <use x="63.623047" xlink:href="#DejaVuSans-48"/>
       <use x="127.246094" xlink:href="#DejaVuSans-48"/>
      </g>
     </g>
    </g>
    <g id="xtick_6">
     <g id="line2d_6">
      <g>
       <use style="stroke:#000000;stroke-width:0.8;" x="478.108658" xlink:href="#m6be4c6c244" y="352.174167"/>
      </g>
     </g>
     <g id="text_6">
      <!-- 250 -->
      <g transform="translate(468.564908 366.772604)scale(0.1 -0.1)">
       <use xlink:href="#DejaVuSans-50"/>
       <use x="63.623047" xlink:href="#DejaVuSans-53"/>
       <use x="127.246094" xlink:href="#DejaVuSans-48"/>
      </g>
     </g>
    </g>
   </g>
   <g id="matplotlib.axis_2">
    <g id="ytick_1">
     <g id="line2d_7">
      <defs>
       <path d="M 0 0 
L -3.5 0 
" id="me7ebad036f" style="stroke:#000000;stroke-width:0.8;"/>
      </defs>
      <g>
       <use style="stroke:#000000;stroke-width:0.8;" x="130.230156" xlink:href="#me7ebad036f" y="352.174167"/>
      </g>
     </g>
     <g id="text_7">
      <!-- 0 -->
      <g transform="translate(116.867656 355.973385)scale(0.1 -0.1)">
       <use xlink:href="#DejaVuSans-48"/>
      </g>
     </g>
    </g>
    <g id="ytick_2">
     <g id="line2d_8">
      <g>
       <use style="stroke:#000000;stroke-width:0.8;" x="130.230156" xlink:href="#me7ebad036f" y="292.239911"/>
      </g>
     </g>
     <g id="text_8">
      <!-- 200000 -->
      <g transform="translate(85.055156 296.03913)scale(0.1 -0.1)">
       <use xlink:href="#DejaVuSans-50"/>
       <use x="63.623047" xlink:href="#DejaVuSans-48"/>
       <use x="127.246094" xlink:href="#DejaVuSans-48"/>
       <use x="190.869141" xlink:href="#DejaVuSans-48"/>
       <use x="254.492188" xlink:href="#DejaVuSans-48"/>
       <use x="318.115234" xlink:href="#DejaVuSans-48"/>
      </g>
     </g>
    </g>
    <g id="ytick_3">
     <g id="line2d_9">
      <g>
       <use style="stroke:#000000;stroke-width:0.8;" x="130.230156" xlink:href="#me7ebad036f" y="232.305656"/>
      </g>
     </g>
     <g id="text_9">
      <!-- 400000 -->
      <defs>
       <path d="M 37.796875 64.3125 
L 12.890625 25.390625 
L 37.796875 25.390625 
z
M 35.203125 72.90625 
L 47.609375 72.90625 
L 47.609375 25.390625 
L 58.015625 25.390625 
L 58.015625 17.1875 
L 47.609375 17.1875 
L 47.609375 0 
L 37.796875 0 
L 37.796875 17.1875 
L 4.890625 17.1875 
L 4.890625 26.703125 
z
" id="DejaVuSans-52"/>
      </defs>
      <g transform="translate(85.055156 236.104874)scale(0.1 -0.1)">
       <use xlink:href="#DejaVuSans-52"/>
       <use x="63.623047" xlink:href="#DejaVuSans-48"/>
       <use x="127.246094" xlink:href="#DejaVuSans-48"/>
       <use x="190.869141" xlink:href="#DejaVuSans-48"/>
       <use x="254.492188" xlink:href="#DejaVuSans-48"/>
       <use x="318.115234" xlink:href="#DejaVuSans-48"/>
      </g>
     </g>
    </g>
    <g id="ytick_4">
     <g id="line2d_10">
      <g>
       <use style="stroke:#000000;stroke-width:0.8;" x="130.230156" xlink:href="#me7ebad036f" y="172.3714"/>
      </g>
     </g>
     <g id="text_10">
      <!-- 600000 -->
      <defs>
       <path d="M 33.015625 40.375 
Q 26.375 40.375 22.484375 35.828125 
Q 18.609375 31.296875 18.609375 23.390625 
Q 18.609375 15.53125 22.484375 10.953125 
Q 26.375 6.390625 33.015625 6.390625 
Q 39.65625 6.390625 43.53125 10.953125 
Q 47.40625 15.53125 47.40625 23.390625 
Q 47.40625 31.296875 43.53125 35.828125 
Q 39.65625 40.375 33.015625 40.375 
z
M 52.59375 71.296875 
L 52.59375 62.3125 
Q 48.875 64.0625 45.09375 64.984375 
Q 41.3125 65.921875 37.59375 65.921875 
Q 27.828125 65.921875 22.671875 59.328125 
Q 17.53125 52.734375 16.796875 39.40625 
Q 19.671875 43.65625 24.015625 45.921875 
Q 28.375 48.1875 33.59375 48.1875 
Q 44.578125 48.1875 50.953125 41.515625 
Q 57.328125 34.859375 57.328125 23.390625 
Q 57.328125 12.15625 50.6875 5.359375 
Q 44.046875 -1.421875 33.015625 -1.421875 
Q 20.359375 -1.421875 13.671875 8.265625 
Q 6.984375 17.96875 6.984375 36.375 
Q 6.984375 53.65625 15.1875 63.9375 
Q 23.390625 74.21875 37.203125 74.21875 
Q 40.921875 74.21875 44.703125 73.484375 
Q 48.484375 72.75 52.59375 71.296875 
z
" id="DejaVuSans-54"/>
      </defs>
      <g transform="translate(85.055156 176.170619)scale(0.1 -0.1)">
       <use xlink:href="#DejaVuSans-54"/>
       <use x="63.623047" xlink:href="#DejaVuSans-48"/>
       <use x="127.246094" xlink:href="#DejaVuSans-48"/>
       <use x="190.869141" xlink:href="#DejaVuSans-48"/>
       <use x="254.492188" xlink:href="#DejaVuSans-48"/>
       <use x="318.115234" xlink:href="#DejaVuSans-48"/>
      </g>
     </g>
    </g>
    <g id="ytick_5">
     <g id="line2d_11">
      <g>
       <use style="stroke:#000000;stroke-width:0.8;" x="130.230156" xlink:href="#me7ebad036f" y="112.437144"/>
      </g>
     </g>
     <g id="text_11">
      <!-- 800000 -->
      <defs>
       <path d="M 31.78125 34.625 
Q 24.75 34.625 20.71875 30.859375 
Q 16.703125 27.09375 16.703125 20.515625 
Q 16.703125 13.921875 20.71875 10.15625 
Q 24.75 6.390625 31.78125 6.390625 
Q 38.8125 6.390625 42.859375 10.171875 
Q 46.921875 13.96875 46.921875 20.515625 
Q 46.921875 27.09375 42.890625 30.859375 
Q 38.875 34.625 31.78125 34.625 
z
M 21.921875 38.8125 
Q 15.578125 40.375 12.03125 44.71875 
Q 8.5 49.078125 8.5 55.328125 
Q 8.5 64.0625 14.71875 69.140625 
Q 20.953125 74.21875 31.78125 74.21875 
Q 42.671875 74.21875 48.875 69.140625 
Q 55.078125 64.0625 55.078125 55.328125 
Q 55.078125 49.078125 51.53125 44.71875 
Q 48 40.375 41.703125 38.8125 
Q 48.828125 37.15625 52.796875 32.3125 
Q 56.78125 27.484375 56.78125 20.515625 
Q 56.78125 9.90625 50.3125 4.234375 
Q 43.84375 -1.421875 31.78125 -1.421875 
Q 19.734375 -1.421875 13.25 4.234375 
Q 6.78125 9.90625 6.78125 20.515625 
Q 6.78125 27.484375 10.78125 32.3125 
Q 14.796875 37.15625 21.921875 38.8125 
z
M 18.3125 54.390625 
Q 18.3125 48.734375 21.84375 45.5625 
Q 25.390625 42.390625 31.78125 42.390625 
Q 38.140625 42.390625 41.71875 45.5625 
Q 45.3125 48.734375 45.3125 54.390625 
Q 45.3125 60.0625 41.71875 63.234375 
Q 38.140625 66.40625 31.78125 66.40625 
Q 25.390625 66.40625 21.84375 63.234375 
Q 18.3125 60.0625 18.3125 54.390625 
z
" id="DejaVuSans-56"/>
      </defs>
      <g transform="translate(85.055156 116.236363)scale(0.1 -0.1)">
       <use xlink:href="#DejaVuSans-56"/>
       <use x="63.623047" xlink:href="#DejaVuSans-48"/>
       <use x="127.246094" xlink:href="#DejaVuSans-48"/>
       <use x="190.869141" xlink:href="#DejaVuSans-48"/>
       <use x="254.492188" xlink:href="#DejaVuSans-48"/>
       <use x="318.115234" xlink:href="#DejaVuSans-48"/>
      </g>
     </g>
    </g>
    <g id="ytick_6">
     <g id="line2d_12">
      <g>
       <use style="stroke:#000000;stroke-width:0.8;" x="130.230156" xlink:href="#me7ebad036f" y="52.502889"/>
      </g>
     </g>
     <g id="text_12">
      <!-- 1000000 -->
      <g transform="translate(78.692656 56.302108)scale(0.1 -0.1)">
       <use xlink:href="#DejaVuSans-49"/>
       <use x="63.623047" xlink:href="#DejaVuSans-48"/>
       <use x="127.246094" xlink:href="#DejaVuSans-48"/>
       <use x="190.869141" xlink:href="#DejaVuSans-48"/>
       <use x="254.492188" xlink:href="#DejaVuSans-48"/>
       <use x="318.115234" xlink:href="#DejaVuSans-48"/>
       <use x="381.738281" xlink:href="#DejaVuSans-48"/>
      </g>
     </g>
    </g>
    <g id="text_13">
     <!-- inflight -->
     <defs>
      <path d="M 9.421875 54.6875 
L 18.40625 54.6875 
L 18.40625 0 
L 9.421875 0 
z
M 9.421875 75.984375 
L 18.40625 75.984375 
L 18.40625 64.59375 
L 9.421875 64.59375 
z
" id="DejaVuSans-105"/>
      <path d="M 54.890625 33.015625 
L 54.890625 0 
L 45.90625 0 
L 45.90625 32.71875 
Q 45.90625 40.484375 42.875 44.328125 
Q 39.84375 48.1875 33.796875 48.1875 
Q 26.515625 48.1875 22.3125 43.546875 
Q 18.109375 38.921875 18.109375 30.90625 
L 18.109375 0 
L 9.078125 0 
L 9.078125 54.6875 
L 18.109375 54.6875 
L 18.109375 46.1875 
Q 21.34375 51.125 25.703125 53.5625 
Q 30.078125 56 35.796875 56 
Q 45.21875 56 50.046875 50.171875 
Q 54.890625 44.34375 54.890625 33.015625 
z
" id="DejaVuSans-110"/>
      <path d="M 37.109375 75.984375 
L 37.109375 68.5 
L 28.515625 68.5 
Q 23.6875 68.5 21.796875 66.546875 
Q 19.921875 64.59375 19.921875 59.515625 
L 19.921875 54.6875 
L 34.71875 54.6875 
L 34.71875 47.703125 
L 19.921875 47.703125 
L 19.921875 0 
L 10.890625 0 
L 10.890625 47.703125 
L 2.296875 47.703125 
L 2.296875 54.6875 
L 10.890625 54.6875 
L 10.890625 58.5 
Q 10.890625 67.625 15.140625 71.796875 
Q 19.390625 75.984375 28.609375 75.984375 
z
" id="DejaVuSans-102"/>
      <path d="M 9.421875 75.984375 
L 18.40625 75.984375 
L 18.40625 0 
L 9.421875 0 
z
" id="DejaVuSans-108"/>
      <path d="M 45.40625 27.984375 
Q 45.40625 37.75 41.375 43.109375 
Q 37.359375 48.484375 30.078125 48.484375 
Q 22.859375 48.484375 18.828125 43.109375 
Q 14.796875 37.75 14.796875 27.984375 
Q 14.796875 18.265625 18.828125 12.890625 
Q 22.859375 7.515625 30.078125 7.515625 
Q 37.359375 7.515625 41.375 12.890625 
Q 45.40625 18.265625 45.40625 27.984375 
z
M 54.390625 6.78125 
Q 54.390625 -7.171875 48.1875 -13.984375 
Q 42 -20.796875 29.203125 -20.796875 
Q 24.46875 -20.796875 20.265625 -20.09375 
Q 16.0625 -19.390625 12.109375 -17.921875 
L 12.109375 -9.1875 
Q 16.0625 -11.328125 19.921875 -12.34375 
Q 23.78125 -13.375 27.78125 -13.375 
Q 36.625 -13.375 41.015625 -8.765625 
Q 45.40625 -4.15625 45.40625 5.171875 
L 45.40625 9.625 
Q 42.625 4.78125 38.28125 2.390625 
Q 33.9375 0 27.875 0 
Q 17.828125 0 11.671875 7.65625 
Q 5.515625 15.328125 5.515625 27.984375 
Q 5.515625 40.671875 11.671875 48.328125 
Q 17.828125 56 27.875 56 
Q 33.9375 56 38.28125 53.609375 
Q 42.625 51.21875 45.40625 46.390625 
L 45.40625 54.6875 
L 54.390625 54.6875 
z
" id="DejaVuSans-103"/>
      <path d="M 54.890625 33.015625 
L 54.890625 0 
L 45.90625 0 
L 45.90625 32.71875 
Q 45.90625 40.484375 42.875 44.328125 
Q 39.84375 48.1875 33.796875 48.1875 
Q 26.515625 48.1875 22.3125 43.546875 
Q 18.109375 38.921875 18.109375 30.90625 
L 18.109375 0 
L 9.078125 0 
L 9.078125 75.984375 
L 18.109375 75.984375 
L 18.109375 46.1875 
Q 21.34375 51.125 25.703125 53.5625 
Q 30.078125 56 35.796875 56 
Q 45.21875 56 50.046875 50.171875 
Q 54.890625 44.34375 54.890625 33.015625 
z
" id="DejaVuSans-104"/>
      <path d="M 18.3125 70.21875 
L 18.3125 54.6875 
L 36.8125 54.6875 
L 36.8125 47.703125 
L 18.3125 47.703125 
L 18.3125 18.015625 
Q 18.3125 11.328125 20.140625 9.421875 
Q 21.96875 7.515625 27.59375 7.515625 
L 36.8125 7.515625 
L 36.8125 0 
L 27.59375 0 
Q 17.1875 0 13.234375 3.875 
Q 9.28125 7.765625 9.28125 18.015625 
L 9.28125 47.703125 
L 2.6875 47.703125 
L 2.6875 54.6875 
L 9.28125 54.6875 
L 9.28125 70.21875 
z
" id="DejaVuSans-116"/>
     </defs>
     <g transform="translate(61.415156 211.017552)rotate(-90)scale(0.1 -0.1)">
      <use xlink:href="#DejaVuSans-105"/>
      <use x="27.783203" xlink:href="#DejaVuSans-110"/>
      <use x="91.162109" xlink:href="#DejaVuSans-102"/>
      <use x="126.367188" xlink:href="#DejaVuSans-108"/>
      <use x="154.150391" xlink:href="#DejaVuSans-105"/>
      <use x="181.933594" xlink:href="#DejaVuSans-103"/>
      <use x="245.410156" xlink:href="#DejaVuSans-104"/>
      <use x="308.789062" xlink:href="#DejaVuSans-116"/>
     </g>
     <!-- (bytes) -->
     <defs>
      <path d="M 31 75.875 
Q 24.46875 64.65625 21.28125 53.65625 
Q 18.109375 42.671875 18.109375 31.390625 
Q 18.109375 20.125 21.3125 9.0625 
Q 24.515625 -2 31 -13.1875 
L 23.1875 -13.1875 
Q 15.875 -1.703125 12.234375 9.375 
Q 8.59375 20.453125 8.59375 31.390625 
Q 8.59375 42.28125 12.203125 53.3125 
Q 15.828125 64.359375 23.1875 75.875 
z
" id="DejaVuSans-40"/>
      <path d="M 48.6875 27.296875 
Q 48.6875 37.203125 44.609375 42.84375 
Q 40.53125 48.484375 33.40625 48.484375 
Q 26.265625 48.484375 22.1875 42.84375 
Q 18.109375 37.203125 18.109375 27.296875 
Q 18.109375 17.390625 22.1875 11.75 
Q 26.265625 6.109375 33.40625 6.109375 
Q 40.53125 6.109375 44.609375 11.75 
Q 48.6875 17.390625 48.6875 27.296875 
z
M 18.109375 46.390625 
Q 20.953125 51.265625 25.265625 53.625 
Q 29.59375 56 35.59375 56 
Q 45.5625 56 51.78125 48.09375 
Q 58.015625 40.1875 58.015625 27.296875 
Q 58.015625 14.40625 51.78125 6.484375 
Q 45.5625 -1.421875 35.59375 -1.421875 
Q 29.59375 -1.421875 25.265625 0.953125 
Q 20.953125 3.328125 18.109375 8.203125 
L 18.109375 0 
L 9.078125 0 
L 9.078125 75.984375 
L 18.109375 75.984375 
z
" id="DejaVuSans-98"/>
      <path d="M 32.171875 -5.078125 
Q 28.375 -14.84375 24.75 -17.8125 
Q 21.140625 -20.796875 15.09375 -20.796875 
L 7.90625 -20.796875 
L 7.90625 -13.28125 
L 13.1875 -13.28125 
Q 16.890625 -13.28125 18.9375 -11.515625 
Q 21 -9.765625 23.484375 -3.21875 
L 25.09375 0.875 
L 2.984375 54.6875 
L 12.5 54.6875 
L 29.59375 11.921875 
L 46.6875 54.6875 
L 56.203125 54.6875 
z
" id="DejaVuSans-121"/>
      <path d="M 56.203125 29.59375 
L 56.203125 25.203125 
L 14.890625 25.203125 
Q 15.484375 15.921875 20.484375 11.0625 
Q 25.484375 6.203125 34.421875 6.203125 
Q 39.59375 6.203125 44.453125 7.46875 
Q 49.3125 8.734375 54.109375 11.28125 
L 54.109375 2.78125 
Q 49.265625 0.734375 44.1875 -0.34375 
Q 39.109375 -1.421875 33.890625 -1.421875 
Q 20.796875 -1.421875 13.15625 6.1875 
Q 5.515625 13.8125 5.515625 26.8125 
Q 5.515625 40.234375 12.765625 48.109375 
Q 20.015625 56 32.328125 56 
Q 43.359375 56 49.78125 48.890625 
Q 56.203125 41.796875 56.203125 29.59375 
z
M 47.21875 32.234375 
Q 47.125 39.59375 43.09375 43.984375 
Q 39.0625 48.390625 32.421875 48.390625 
Q 24.90625 48.390625 20.390625 44.140625 
Q 15.875 39.890625 15.1875 32.171875 
z
" id="DejaVuSans-101"/>
      <path d="M 44.28125 53.078125 
L 44.28125 44.578125 
Q 40.484375 46.53125 36.375 47.5 
Q 32.28125 48.484375 27.875 48.484375 
Q 21.1875 48.484375 17.84375 46.4375 
Q 14.5 44.390625 14.5 40.28125 
Q 14.5 37.15625 16.890625 35.375 
Q 19.28125 33.59375 26.515625 31.984375 
L 29.59375 31.296875 
Q 39.15625 29.25 43.1875 25.515625 
Q 47.21875 21.78125 47.21875 15.09375 
Q 47.21875 7.46875 41.1875 3.015625 
Q 35.15625 -1.421875 24.609375 -1.421875 
Q 20.21875 -1.421875 15.453125 -0.5625 
Q 10.6875 0.296875 5.421875 2 
L 5.421875 11.28125 
Q 10.40625 8.6875 15.234375 7.390625 
Q 20.0625 6.109375 24.8125 6.109375 
Q 31.15625 6.109375 34.5625 8.28125 
Q 37.984375 10.453125 37.984375 14.40625 
Q 37.984375 18.0625 35.515625 20.015625 
Q 33.0625 21.96875 24.703125 23.78125 
L 21.578125 24.515625 
Q 13.234375 26.265625 9.515625 29.90625 
Q 5.8125 33.546875 5.8125 39.890625 
Q 5.8125 47.609375 11.28125 51.796875 
Q 16.75 56 26.8125 56 
Q 31.78125 56 36.171875 55.265625 
Q 40.578125 54.546875 44.28125 53.078125 
z
" id="DejaVuSans-115"/>
      <path d="M 8.015625 75.875 
L 15.828125 75.875 
Q 23.140625 64.359375 26.78125 53.3125 
Q 30.421875 42.28125 30.421875 31.390625 
Q 30.421875 20.453125 26.78125 9.375 
Q 23.140625 -1.703125 15.828125 -13.1875 
L 8.015625 -13.1875 
Q 14.5 -2 17.703125 9.0625 
Q 20.90625 20.125 20.90625 31.390625 
Q 20.90625 42.671875 17.703125 53.65625 
Q 14.5 64.65625 8.015625 75.875 
z
" id="DejaVuSans-41"/>
     </defs>
     <g transform="translate(72.612969 211.294896)rotate(-90)scale(0.1 -0.1)">
      <use xlink:href="#DejaVuSans-40"/>
      <use x="39.013672" xlink:href="#DejaVuSans-98"/>
      <use x="102.490234" xlink:href="#DejaVuSans-121"/>
      <use x="161.669922" xlink:href="#DejaVuSans-116"/>
      <use x="200.878906" xlink:href="#DejaVuSans-101"/>
      <use x="262.402344" xlink:href="#DejaVuSans-115"/>
      <use x="314.501953" xlink:href="#DejaVuSans-41"/>
     </g>
    </g>
   </g>
   <g id="line2d_13">
    <path clip-path="url(#pe6dd3c3e23)" d="M 150.990592 237.618228 
L 151.650061 289.689109 
L 152.309531 284.482021 
L 152.969001 281.444553 
L 153.62847 264.955441 
L 154.28794 276.671389 
L 154.94741 291.858729 
L 156.266349 304.442526 
L 156.925819 312.687082 
L 157.585288 323.101258 
L 158.244758 316.592398 
L 158.904228 321.365562 
L 160.223167 328.308346 
L 161.542107 332.647586 
L 162.201576 333.515434 
L 162.861046 321.365562 
L 163.520516 334.817206 
L 164.179985 333.949358 
L 164.839455 320.497714 
L 165.498925 320.931638 
L 166.158394 311.819234 
L 166.817864 308.347842 
L 167.477334 297.065817 
L 168.136803 299.669361 
L 168.796273 239.787848 
L 169.455743 205.941775 
L 170.774682 179.906335 
L 171.434152 146.060262 
L 172.093621 100.498241 
L 172.753091 126.099757 
L 173.412561 179.472411 
L 174.072031 182.943803 
L 174.7315 183.811651 
L 175.39097 176.868867 
L 176.05044 167.322538 
L 176.709909 135.212162 
L 177.369379 164.28507 
L 178.028849 188.150891 
L 178.688318 351.740243 
L 179.347788 325.704802 
L 180.007258 332.213662 
L 180.666727 333.515434 
L 181.326197 335.25113 
L 181.985667 337.42075 
L 182.645136 338.722522 
L 183.304606 339.156446 
L 183.964076 341.326066 
L 184.623545 342.627838 
L 185.283015 342.627838 
L 185.942485 343.495686 
L 186.601955 344.797458 
L 187.261424 344.797458 
L 187.920894 345.231383 
L 188.580364 346.533155 
L 191.877712 346.533155 
L 192.537182 345.231383 
L 193.196651 334.383282 
L 193.856121 328.308346 
L 195.17506 305.310374 
L 195.83453 303.140754 
L 196.494 294.462273 
L 197.153469 294.462273 
L 197.812939 240.221772 
L 198.472409 210.281015 
L 199.131878 241.957468 
L 199.791348 199.866839 
L 200.450818 144.75849 
L 201.110288 161.681526 
L 201.769757 206.809623 
L 202.429227 195.527599 
L 203.088697 203.772155 
L 203.748166 182.509879 
L 204.407636 185.113423 
L 205.067106 193.791903 
L 205.726575 189.018739 
L 206.386045 166.45469 
L 207.045515 187.716967 
L 207.704984 328.308346 
L 208.364454 309.649614 
L 209.683393 323.969106 
L 210.342863 330.477966 
L 211.002333 332.647586 
L 212.321272 338.722522 
L 212.980742 340.892142 
L 213.640212 341.75999 
L 214.299681 343.061762 
L 214.959151 343.92961 
L 215.618621 343.92961 
L 216.93756 345.665307 
L 218.915969 345.665307 
L 219.575439 346.533155 
L 220.234908 346.533155 
L 220.894378 351.740243 
L 221.553848 342.193914 
L 222.213317 330.91189 
L 222.872787 322.667334 
L 223.532257 310.517462 
L 224.191726 290.123033 
L 224.851196 302.70683 
L 225.510666 287.953413 
L 226.170135 276.671389 
L 226.829605 188.584815 
L 227.489075 216.355951 
L 228.148545 264.087593 
L 228.808014 193.357979 
L 229.467484 227.637976 
L 230.126954 121.326593 
L 230.786423 231.977216 
L 231.445893 166.888614 
L 232.105363 188.150891 
L 232.764832 99.196469 
L 233.424302 170.79393 
L 234.083772 110.912417 
L 234.743241 177.302791 
L 235.402711 209.413167 
L 236.062181 231.109368 
L 236.72165 129.571149 
L 237.38112 183.811651 
L 238.04059 258.880504 
L 239.359529 306.612146 
L 240.018999 317.460246 
L 240.678469 317.89417 
L 241.337938 324.836954 
L 241.997408 329.176194 
L 242.656878 332.647586 
L 243.975817 336.118978 
L 245.294756 340.458218 
L 247.932635 343.92961 
L 248.592105 344.363534 
L 249.251574 345.231383 
L 249.911044 345.665307 
L 251.229983 345.665307 
L 251.889453 343.061762 
L 252.548923 342.193914 
L 253.208393 325.704802 
L 253.867862 323.535182 
L 254.527332 323.535182 
L 255.186802 311.38531 
L 255.846271 302.70683 
L 256.505741 274.935693 
L 257.165211 176.001019 
L 257.82468 264.521517 
L 258.48415 141.287098 
L 259.14362 169.058234 
L 259.803089 169.492158 
L 260.462559 86.612672 
L 261.122029 198.131143 
L 261.781498 168.190386 
L 262.440968 99.630393 
L 263.100438 256.27696 
L 263.759907 179.472411 
L 264.419377 168.62431 
L 265.078847 96.592925 
L 265.738316 69.689636 
L 266.397786 50.163056 
L 267.057256 105.705329 
L 267.716726 245.42886 
L 268.376195 323.535182 
L 269.035665 325.270878 
L 269.695135 327.874422 
L 270.354604 331.779738 
L 271.014074 333.515434 
L 271.673544 336.118978 
L 272.333013 337.854674 
L 272.992483 338.722522 
L 273.651953 340.458218 
L 274.311422 340.892142 
L 274.970892 343.061762 
L 275.630362 343.92961 
L 276.289831 343.92961 
L 277.608771 345.665307 
L 278.26824 346.967079 
L 278.92771 346.967079 
L 279.58718 346.099231 
L 280.24665 346.967079 
L 280.906119 346.533155 
L 281.565589 351.740243 
L 282.225059 346.533155 
L 282.884528 329.176194 
L 283.543998 329.176194 
L 284.203468 316.592398 
L 284.862937 322.23341 
L 285.522407 307.04607 
L 286.181877 300.971133 
L 286.841346 270.162529 
L 287.500816 295.764045 
L 288.160286 229.373672 
L 288.819755 227.637976 
L 289.479225 237.184304 
L 290.138695 229.373672 
L 290.798164 290.123033 
L 291.457634 229.807596 
L 292.117104 289.689109 
L 292.776574 275.803541 
L 293.436043 227.637976 
L 294.095513 123.930137 
L 294.754983 92.253685 
L 295.414452 141.721022 
L 296.073922 208.979243 
L 296.733392 182.075955 
L 297.392861 139.551402 
L 298.052331 300.103285 
L 298.711801 320.497714 
L 299.37127 324.40303 
L 300.03074 329.176194 
L 300.69021 332.647586 
L 302.009149 337.854674 
L 302.668619 338.722522 
L 303.328088 340.458218 
L 303.987558 340.892142 
L 304.647028 343.061762 
L 305.965967 343.92961 
L 306.625437 344.797458 
L 307.284907 345.231383 
L 307.944376 346.099231 
L 308.603846 345.231383 
L 309.263316 346.533155 
L 309.922785 348.702775 
L 310.582255 346.533155 
L 311.241725 346.533155 
L 311.901194 344.363534 
L 313.220134 337.854674 
L 313.879603 321.799486 
L 314.539073 317.89417 
L 315.198543 253.673416 
L 315.858012 302.70683 
L 316.517482 301.838981 
L 317.176952 271.030377 
L 317.836421 267.558985 
L 318.495891 249.334176 
L 319.814831 162.549374 
L 320.4743 147.795958 
L 321.13377 159.94583 
L 321.79324 160.379754 
L 322.452709 139.117478 
L 323.112179 94.857229 
L 323.771649 223.73266 
L 324.431118 178.604563 
L 325.090588 190.320511 
L 325.750058 219.827344 
L 326.409527 280.576705 
L 327.068997 289.255185 
L 327.728467 172.529626 
L 328.387936 162.983298 
L 329.047406 319.195942 
L 329.706876 309.21569 
L 330.366345 316.158474 
L 331.025815 319.629866 
L 332.344754 332.213662 
L 333.004224 333.515434 
L 334.323164 339.156446 
L 334.982633 340.024294 
L 335.642103 341.326066 
L 336.301573 341.75999 
L 336.961042 343.495686 
L 338.939451 344.797458 
L 339.598921 345.665307 
L 341.57733 345.665307 
L 342.2368 351.740243 
L 343.555739 330.044042 
L 344.215209 323.969106 
L 344.874678 323.101258 
L 345.534148 316.158474 
L 346.193618 313.988854 
L 346.853088 242.825316 
L 347.512557 309.21569 
L 348.172027 304.008602 
L 348.831497 289.255185 
L 349.490966 283.180249 
L 350.150436 283.614173 
L 350.809906 278.841009 
L 351.469375 195.527599 
L 352.128845 173.831398 
L 352.788315 195.527599 
L 353.447784 123.062289 
L 354.107254 115.685581 
L 354.766724 197.697219 
L 355.426193 182.943803 
L 356.085663 234.58076 
L 356.745133 257.144808 
L 357.404602 267.125061 
L 358.064072 351.740243 
L 358.723542 325.270878 
L 360.042481 331.779738 
L 360.701951 333.515434 
L 361.361421 336.118978 
L 362.02089 337.854674 
L 362.68036 338.722522 
L 363.33983 340.458218 
L 364.658769 342.193914 
L 365.318239 343.92961 
L 365.977708 343.061762 
L 366.637178 344.797458 
L 367.296648 344.797458 
L 367.956117 345.665307 
L 369.934526 345.665307 
L 370.593996 346.967079 
L 371.253466 346.533155 
L 371.912935 343.495686 
L 372.572405 342.193914 
L 373.231875 336.986826 
L 373.891345 336.118978 
L 374.550814 327.440498 
L 375.210284 285.349869 
L 375.869754 312.253158 
L 376.529223 306.178222 
L 377.188693 259.314428 
L 377.848163 294.896197 
L 378.507632 182.509879 
L 379.167102 280.576705 
L 379.826572 284.048097 
L 380.486041 217.657723 
L 381.145511 190.320511 
L 381.804981 98.762545 
L 382.46445 86.612672 
L 383.12392 150.833426 
L 383.78339 160.379754 
L 384.442859 147.795958 
L 385.761799 321.365562 
L 386.421269 331.345814 
L 387.080738 331.345814 
L 387.740208 333.949358 
L 388.399678 332.647586 
L 389.059147 333.949358 
L 389.718617 334.817206 
L 390.378087 336.986826 
L 391.037556 337.854674 
L 391.697026 339.59037 
L 392.356496 340.458218 
L 393.015965 342.193914 
L 393.675435 342.193914 
L 394.994374 343.92961 
L 395.653844 345.665307 
L 396.313314 344.363534 
L 396.972783 344.797458 
L 397.632253 345.665307 
L 398.291723 345.665307 
L 398.951193 344.363534 
L 399.610662 342.627838 
L 400.270132 336.118978 
L 400.929602 327.006574 
L 401.589071 320.931638 
L 402.248541 308.781766 
L 402.908011 306.612146 
L 403.56748 295.764045 
L 404.22695 226.770128 
L 404.88642 233.278988 
L 405.545889 277.105313 
L 406.205359 262.785821 
L 406.864829 93.989381 
L 407.524298 173.831398 
L 408.183768 100.064317 
L 408.843238 172.96355 
L 409.502707 188.584815 
L 410.162177 261.917973 
L 410.821647 191.622283 
L 411.481116 262.351897 
L 412.140586 267.558985 
L 412.800056 146.060262 
L 413.459526 143.456718 
L 414.118995 181.208107 
L 414.778465 158.210134 
L 415.437935 325.704802 
L 416.097404 317.026322 
L 416.756874 319.629866 
L 417.416344 325.270878 
L 418.735283 331.779738 
L 419.394753 333.515434 
L 420.054222 336.986826 
L 421.373162 339.59037 
L 422.032631 341.75999 
L 422.692101 342.193914 
L 425.32998 345.665307 
L 425.98945 346.967079 
L 426.648919 345.665307 
L 427.967859 345.665307 
L 428.627328 351.740243 
L 429.286798 343.92961 
L 429.946268 338.288598 
L 430.605737 333.949358 
L 431.265207 326.138726 
L 431.924677 326.138726 
L 432.584146 327.006574 
L 433.243616 320.497714 
L 433.903086 317.026322 
L 434.562555 311.819234 
L 435.222025 309.21569 
L 435.881495 307.913918 
L 436.540964 304.442526 
L 437.200434 299.235437 
L 437.859904 301.405057 
L 438.519373 290.556957 
L 439.178843 302.70683 
L 439.838313 248.032404 
L 440.497783 297.499741 
L 441.157252 251.93772 
L 441.816722 243.693164 
L 442.476192 156.474438 
L 443.135661 225.90228 
L 443.795131 160.813678 
L 444.454601 234.58076 
L 445.11407 150.399502 
L 445.77354 137.815706 
L 446.43301 218.525572 
L 447.092479 192.490131 
L 447.751949 276.237465 
L 448.411419 212.016711 
L 449.070888 264.955441 
L 449.730358 275.369617 
L 450.389828 251.503796 
L 451.049297 245.862784 
L 451.708767 218.525572 
L 452.368237 351.740243 
L 453.027707 329.176194 
L 453.687176 332.647586 
L 454.346646 334.383282 
L 455.006116 339.59037 
L 455.665585 343.061762 
L 457.643994 345.665307 
L 458.303464 345.665307 
L 458.962934 346.967079 
L 460.281873 346.967079 
L 460.941343 346.099231 
L 461.600812 346.533155 
L 462.260282 347.401003 
L 463.579221 346.533155 
L 464.238691 346.533155 
L 464.898161 346.967079 
L 465.557631 346.967079 
L 466.2171 343.061762 
L 466.87657 340.892142 
L 467.53604 337.854674 
L 468.195509 331.345814 
L 468.854979 326.138726 
L 469.514449 322.667334 
L 470.173918 305.744298 
L 470.833388 307.913918 
L 471.492858 258.880504 
L 472.152327 295.764045 
L 472.811797 290.990881 
L 473.471267 216.789875 
L 474.130736 284.048097 
L 474.790206 267.125061 
L 475.449676 208.545319 
L 476.109145 266.691137 
L 476.768615 271.464301 
L 477.428085 260.616201 
L 478.087554 253.673416 
L 478.747024 267.558985 
L 479.406494 294.896197 
L 480.065964 288.821261 
L 480.725433 295.330121 
L 481.384903 299.235437 
L 482.044373 304.008602 
L 484.022782 314.422778 
L 484.682251 318.762018 
L 485.341721 322.23341 
L 486.66066 327.440498 
L 487.32013 330.91189 
L 487.9796 332.213662 
L 488.639069 334.383282 
L 489.298539 335.685054 
L 489.958009 338.722522 
L 490.617478 340.458218 
L 491.276948 340.024294 
L 491.936418 341.326066 
L 492.595888 351.740243 
L 493.255357 334.817206 
L 493.914827 325.704802 
L 494.574297 323.101258 
L 495.233766 318.328094 
L 496.552706 299.235437 
L 497.212175 284.048097 
L 497.871645 275.369617 
L 498.531115 228.505824 
L 499.190584 267.125061 
L 499.850054 199.432915 
L 500.509524 283.180249 
L 501.168993 265.823289 
L 501.828463 257.578732 
L 502.487933 207.243547 
L 503.147402 99.630393 
L 503.806872 170.79393 
L 504.466342 185.113423 
L 505.125812 264.087593 
L 505.785281 91.819761 
L 506.444751 216.789875 
L 507.104221 240.655696 
L 507.76369 334.383282 
L 508.42316 328.74227 
L 509.742099 333.949358 
L 509.742099 333.949358 
" style="fill:none;stroke:#1f77b4;stroke-linecap:square;stroke-width:1.5;"/>
   </g>
   <g id="line2d_14">
    <path clip-path="url(#pe6dd3c3e23)" d="M 153.611324 324.836954 
L 154.270794 305.744298 
L 154.930264 276.671389 
L 155.589733 294.028349 
L 156.249203 285.783793 
L 156.908673 301.838981 
L 157.568142 257.578732 
L 158.227612 311.819234 
L 158.887082 310.083538 
L 159.546551 308.781766 
L 160.865491 303.140754 
L 161.52496 300.971133 
L 162.18443 298.367589 
L 162.8439 280.142781 
L 163.503369 309.21569 
L 164.162839 286.217717 
L 164.822309 327.874422 
L 165.481778 326.138726 
L 166.141248 332.647586 
L 166.800718 337.42075 
L 167.460187 340.892142 
L 168.119657 349.136699 
L 168.779127 344.797458 
L 169.438597 350.438471 
L 170.098066 351.306319 
L 170.757536 350.872395 
L 171.417006 351.740243 
L 172.076475 352.174167 
L 172.735945 351.740243 
L 173.395415 351.740243 
L 174.054884 352.174167 
L 174.714354 351.740243 
L 175.373824 350.438471 
L 176.033293 351.306319 
L 176.692763 351.740243 
L 178.011702 351.740243 
L 178.671172 352.174167 
L 179.990111 343.061762 
L 180.649581 340.024294 
L 181.309051 334.383282 
L 181.968521 331.345814 
L 182.62799 326.57265 
L 183.28746 323.969106 
L 184.606399 316.158474 
L 185.265869 313.121006 
L 185.925339 310.951386 
L 186.584808 307.479994 
L 187.244278 305.310374 
L 187.903748 300.971133 
L 188.563217 298.801513 
L 189.222687 313.55493 
L 189.882157 308.781766 
L 191.201096 302.272905 
L 191.860566 299.669361 
L 192.520035 284.915945 
L 193.179505 313.55493 
L 193.838975 310.951386 
L 194.498444 321.365562 
L 195.157914 318.762018 
L 195.817384 327.440498 
L 196.476854 325.704802 
L 197.136323 338.288598 
L 197.795793 336.118978 
L 198.455263 345.231383 
L 199.114732 351.306319 
L 199.774202 350.438471 
L 201.093141 352.174167 
L 201.752611 351.306319 
L 202.412081 351.740243 
L 203.07155 351.306319 
L 204.39049 351.306319 
L 205.049959 352.174167 
L 205.709429 352.174167 
L 206.368899 351.306319 
L 207.028368 352.174167 
L 207.687838 351.740243 
L 208.347308 345.665307 
L 209.666247 337.42075 
L 210.325717 334.383282 
L 212.963596 318.762018 
L 213.623065 315.72455 
L 214.282535 311.819234 
L 216.260944 302.70683 
L 216.920414 301.405057 
L 217.579883 297.499741 
L 218.239353 294.896197 
L 218.898823 280.576705 
L 219.558292 295.764045 
L 220.217762 287.953413 
L 220.877232 284.915945 
L 221.536702 281.010629 
L 222.196171 304.442526 
L 222.855641 294.896197 
L 223.515111 309.21569 
L 224.17458 320.06379 
L 224.83405 328.74227 
L 225.49352 334.383282 
L 226.152989 335.25113 
L 227.471929 351.306319 
L 228.131398 350.872395 
L 228.790868 350.872395 
L 229.450338 352.174167 
L 230.109807 350.438471 
L 230.769277 351.740243 
L 231.428747 352.174167 
L 232.088216 351.306319 
L 232.747686 352.174167 
L 233.407156 351.306319 
L 234.066625 351.306319 
L 234.726095 352.174167 
L 235.385565 352.174167 
L 236.704504 350.438471 
L 237.363974 352.174167 
L 238.023444 352.174167 
L 238.682913 349.136699 
L 239.342383 345.231383 
L 240.001853 343.061762 
L 241.320792 334.817206 
L 241.980262 331.345814 
L 243.299201 322.667334 
L 243.958671 320.931638 
L 245.93708 310.517462 
L 246.596549 308.347842 
L 247.256019 305.744298 
L 249.234428 295.764045 
L 249.893898 283.614173 
L 250.553368 298.801513 
L 251.212837 293.160501 
L 251.872307 290.556957 
L 252.531777 264.955441 
L 253.191246 301.405057 
L 253.850716 314.856702 
L 254.510186 325.270878 
L 255.169655 332.647586 
L 255.829125 329.176194 
L 256.488595 341.75999 
L 257.148064 346.967079 
L 257.807534 350.872395 
L 258.467004 352.174167 
L 259.126473 352.174167 
L 259.785943 350.872395 
L 260.445413 351.740243 
L 261.104882 350.438471 
L 261.764352 351.740243 
L 263.083292 351.740243 
L 263.742761 351.306319 
L 264.402231 352.174167 
L 265.72117 352.174167 
L 266.38064 351.306319 
L 267.04011 352.174167 
L 267.699579 352.174167 
L 268.359049 350.872395 
L 269.018519 348.268851 
L 270.337458 339.156446 
L 270.996928 336.552902 
L 272.315867 328.308346 
L 272.975337 324.836954 
L 273.634806 320.497714 
L 274.294276 317.89417 
L 274.953746 317.89417 
L 275.613216 310.517462 
L 276.272685 307.04607 
L 276.932155 305.310374 
L 277.591625 301.405057 
L 278.251094 300.103285 
L 278.910564 314.422778 
L 280.229503 305.310374 
L 280.888973 302.272905 
L 281.548443 300.971133 
L 282.207912 316.592398 
L 282.867382 312.687082 
L 283.526852 323.969106 
L 284.186321 321.799486 
L 284.845791 329.176194 
L 285.505261 327.006574 
L 286.16473 333.515434 
L 286.8242 336.986826 
L 287.48367 345.231383 
L 288.14314 346.967079 
L 288.802609 350.004547 
L 289.462079 346.099231 
L 290.121549 351.306319 
L 291.440488 352.174167 
L 292.099958 351.740243 
L 292.759427 351.740243 
L 293.418897 350.872395 
L 294.078367 350.872395 
L 294.737836 350.004547 
L 295.397306 350.872395 
L 296.056776 352.174167 
L 298.035185 352.174167 
L 298.694654 350.438471 
L 303.310942 322.667334 
L 303.970412 320.06379 
L 304.629882 316.158474 
L 305.289351 313.55493 
L 305.948821 309.649614 
L 306.608291 307.479994 
L 307.92723 300.971133 
L 308.5867 294.896197 
L 309.246169 280.142781 
L 309.905639 295.764045 
L 311.224578 283.614173 
L 312.543518 276.671389 
L 313.202987 299.235437 
L 313.862457 295.330121 
L 314.521927 308.781766 
L 315.181397 307.04607 
L 315.840866 318.328094 
L 316.500336 327.440498 
L 317.159806 333.515434 
L 317.819275 343.92961 
L 318.478745 348.268851 
L 319.138215 349.570623 
L 319.797684 349.570623 
L 320.457154 351.740243 
L 321.116624 350.872395 
L 322.435563 351.740243 
L 323.095033 351.740243 
L 323.754502 350.872395 
L 324.413972 351.740243 
L 325.073442 351.740243 
L 325.732911 351.306319 
L 326.392381 352.174167 
L 327.051851 351.306319 
L 327.711321 351.740243 
L 328.37079 351.306319 
L 329.03026 352.174167 
L 329.68973 348.702775 
L 331.668139 336.118978 
L 332.987078 328.74227 
L 334.965487 317.026322 
L 337.603366 306.178222 
L 339.581775 295.330121 
L 340.241244 281.878477 
L 340.900714 298.367589 
L 341.560184 292.292653 
L 342.219654 287.953413 
L 342.879123 284.915945 
L 343.538593 302.272905 
L 344.198063 299.235437 
L 344.857532 317.89417 
L 345.517002 313.988854 
L 346.176472 324.40303 
L 346.835941 321.799486 
L 348.154881 337.854674 
L 348.81435 333.08151 
L 350.13329 343.92961 
L 350.792759 344.363534 
L 352.111699 351.740243 
L 353.430638 350.872395 
L 354.090108 350.872395 
L 354.749578 352.174167 
L 355.409047 351.306319 
L 356.068517 352.174167 
L 356.727987 351.740243 
L 357.387456 352.174167 
L 358.046926 351.740243 
L 358.706396 350.438471 
L 360.684805 337.854674 
L 364.641623 314.856702 
L 365.301092 311.38531 
L 365.960562 309.21569 
L 367.938971 300.971133 
L 368.598441 300.971133 
L 369.257911 293.594425 
L 369.91738 279.274933 
L 370.57685 297.499741 
L 371.23632 291.424805 
L 371.895789 287.953413 
L 372.555259 306.612146 
L 373.214729 301.838981 
L 373.874198 315.290626 
L 374.533668 297.499741 
L 375.193138 314.856702 
L 375.852607 323.535182 
L 376.512077 340.458218 
L 377.171547 340.458218 
L 377.831016 347.834927 
L 378.490486 350.872395 
L 379.149956 352.174167 
L 379.809425 351.740243 
L 380.468895 350.872395 
L 381.128365 352.174167 
L 381.787835 349.570623 
L 382.447304 352.174167 
L 383.106774 351.740243 
L 383.766244 350.872395 
L 384.425713 351.740243 
L 385.085183 352.174167 
L 386.404122 345.665307 
L 387.063592 340.892142 
L 387.723062 338.288598 
L 388.382531 334.817206 
L 389.701471 326.57265 
L 390.36094 322.667334 
L 391.02041 320.497714 
L 391.67988 316.592398 
L 392.998819 310.951386 
L 393.658289 304.008602 
L 394.977228 274.935693 
L 395.636698 221.996964 
L 396.296168 281.878477 
L 396.955637 275.369617 
L 398.274577 267.125061 
L 398.934046 265.389365 
L 399.593516 294.028349 
L 400.912455 320.06379 
L 401.571925 317.460246 
L 402.231395 326.57265 
L 402.890864 333.08151 
L 403.550334 337.42075 
L 404.209804 336.552902 
L 405.528743 349.136699 
L 406.188213 351.306319 
L 407.507152 352.174167 
L 408.166622 352.174167 
L 408.826092 351.740243 
L 410.145031 351.740243 
L 410.804501 352.174167 
L 411.46397 351.740243 
L 412.12344 352.174167 
L 412.78291 350.872395 
L 413.442379 351.740243 
L 414.101849 352.174167 
L 414.761319 352.174167 
L 415.420788 351.740243 
L 417.399197 340.892142 
L 418.058667 335.25113 
L 418.718137 333.08151 
L 420.037076 324.836954 
L 422.015485 314.856702 
L 422.674955 312.253158 
L 423.334425 308.347842 
L 423.993894 306.612146 
L 424.653364 303.140754 
L 425.312834 300.537209 
L 425.972303 278.841009 
L 426.631773 310.517462 
L 427.291243 310.517462 
L 427.950712 303.574678 
L 428.610182 301.405057 
L 429.269652 299.669361 
L 429.929121 298.801513 
L 430.588591 298.801513 
L 431.248061 299.235437 
L 432.567 322.667334 
L 433.22647 330.477966 
L 433.88594 336.552902 
L 434.545409 334.383282 
L 435.204879 339.156446 
L 436.523818 343.92961 
L 437.183288 346.099231 
L 437.842758 346.967079 
L 438.502227 348.268851 
L 439.161697 350.004547 
L 439.821167 350.438471 
L 440.480636 350.438471 
L 441.140106 349.570623 
L 441.799576 349.136699 
L 442.459045 351.740243 
L 443.118515 352.174167 
L 443.777985 352.174167 
L 444.437454 351.740243 
L 445.096924 349.570623 
L 445.756394 351.740243 
L 446.415863 351.740243 
L 447.075333 351.306319 
L 447.734803 351.740243 
L 451.032151 351.740243 
L 451.691621 352.174167 
L 452.351091 352.174167 
L 454.3295 342.193914 
L 455.648439 336.986826 
L 456.307909 339.59037 
L 457.626848 335.25113 
L 458.286318 331.779738 
L 458.945787 330.477966 
L 459.605257 328.74227 
L 460.264727 326.57265 
L 460.924197 323.535182 
L 461.583666 321.799486 
L 462.243136 318.762018 
L 462.902606 317.026322 
L 463.562075 316.158474 
L 464.221545 312.253158 
L 464.881015 310.951386 
L 465.540484 320.497714 
L 466.199954 317.026322 
L 466.859424 314.422778 
L 467.518893 323.969106 
L 468.837833 319.629866 
L 469.497302 327.006574 
L 470.156772 323.969106 
L 470.816242 330.91189 
L 471.475711 329.610118 
L 472.135181 344.363534 
L 472.794651 346.099231 
L 473.45412 344.797458 
L 474.11359 351.306319 
L 474.77306 349.136699 
L 475.43253 350.438471 
L 476.091999 352.174167 
L 477.410939 352.174167 
L 478.070408 351.306319 
L 478.729878 351.306319 
L 479.389348 351.740243 
L 480.708287 345.665307 
L 481.367757 341.326066 
L 482.027226 339.59037 
L 484.005635 329.610118 
L 484.665105 327.006574 
L 485.984044 320.497714 
L 487.302984 314.856702 
L 487.962454 315.72455 
L 489.281393 303.574678 
L 490.600332 279.274933 
L 491.259802 296.631893 
L 491.919272 296.197969 
L 492.578741 287.085565 
L 493.238211 284.048097 
L 493.897681 280.142781 
L 494.55715 303.574678 
L 495.21662 292.292653 
L 495.87609 310.083538 
L 496.535559 322.23341 
L 497.195029 329.610118 
L 497.854499 335.685054 
L 498.513968 343.92961 
L 499.173438 348.702775 
L 499.832908 347.401003 
L 500.492378 351.740243 
L 501.151847 352.174167 
L 501.811317 352.174167 
L 502.470787 351.306319 
L 503.130256 351.306319 
L 503.789726 352.174167 
L 504.449196 351.306319 
L 505.108665 352.174167 
L 506.427605 352.174167 
L 507.087074 351.740243 
L 507.746544 352.174167 
L 508.406014 349.570623 
L 509.065483 345.665307 
L 509.065483 345.665307 
" style="fill:none;stroke:#ff7f0e;stroke-linecap:square;stroke-width:1.5;"/>
   </g>
   <g id="line2d_15">
    <path clip-path="url(#pe6dd3c3e23)" d="M 148.397557 292.726577 
L 149.716496 302.272905 
L 150.375966 302.272905 
L 151.035436 286.651641 
L 151.694905 319.629866 
L 152.354375 329.176194 
L 153.013845 333.515434 
L 153.673314 339.59037 
L 154.332784 342.193914 
L 155.651723 345.665307 
L 156.311193 345.665307 
L 156.970663 346.533155 
L 157.630132 346.967079 
L 158.289602 346.099231 
L 158.949072 346.533155 
L 159.608541 346.533155 
L 160.268011 346.099231 
L 160.927481 346.533155 
L 161.58695 341.75999 
L 162.24642 334.817206 
L 162.90589 333.949358 
L 163.56536 321.365562 
L 164.224829 312.687082 
L 164.884299 306.612146 
L 165.543769 280.142781 
L 166.203238 274.501769 
L 166.862708 273.633921 
L 167.522178 265.823289 
L 168.181647 275.369617 
L 169.500587 119.156973 
L 170.160056 199.866839 
L 170.819526 189.886587 
L 171.478996 185.113423 
L 172.138465 201.602535 
L 172.797935 182.943803 
L 173.457405 186.415195 
L 174.116874 103.969633 
L 174.776344 186.415195 
L 175.435814 184.679499 
L 176.095284 208.979243 
L 176.754753 152.135198 
L 177.414223 233.712912 
L 178.073693 215.054179 
L 178.733162 319.629866 
L 179.392632 310.951386 
L 180.052102 323.535182 
L 180.711571 325.704802 
L 181.371041 330.477966 
L 182.68998 336.118978 
L 183.34945 338.722522 
L 184.00892 340.458218 
L 184.668389 341.326066 
L 185.327859 343.061762 
L 186.646798 344.797458 
L 187.306268 345.231383 
L 187.965738 346.099231 
L 188.625207 346.533155 
L 189.944147 346.533155 
L 190.603617 346.967079 
L 191.263086 346.533155 
L 191.922556 351.740243 
L 192.582026 337.854674 
L 193.241495 340.458218 
L 193.900965 334.383282 
L 194.560435 331.345814 
L 195.219904 321.799486 
L 195.879374 320.497714 
L 196.538844 306.612146 
L 197.198313 312.253158 
L 197.857783 260.616201 
L 198.517253 237.618228 
L 199.176722 238.052152 
L 199.836192 238.052152 
L 200.495662 153.003046 
L 201.155131 168.190386 
L 201.814601 201.602535 
L 202.474071 215.922027 
L 203.133541 224.166584 
L 203.79301 274.501769 
L 204.45248 200.734687 
L 205.11195 208.545319 
L 205.771419 128.269377 
L 206.430889 149.965578 
L 207.090359 157.77621 
L 207.749828 351.740243 
L 208.409298 330.044042 
L 209.068768 333.515434 
L 209.728237 334.383282 
L 210.387707 336.118978 
L 211.047177 336.986826 
L 211.706646 338.722522 
L 212.366116 339.156446 
L 213.025586 341.326066 
L 215.003995 343.92961 
L 215.663465 343.92961 
L 216.322934 344.797458 
L 216.982404 346.099231 
L 217.641874 345.665307 
L 218.301343 345.665307 
L 218.960813 346.533155 
L 219.620283 346.099231 
L 220.279752 346.967079 
L 220.939222 346.533155 
L 221.598692 343.92961 
L 222.258161 344.797458 
L 222.917631 334.383282 
L 223.577101 329.610118 
L 224.23657 326.57265 
L 224.89604 325.704802 
L 225.55551 310.083538 
L 226.214979 298.367589 
L 226.874449 221.56304 
L 227.533919 214.186331 
L 228.193388 240.221772 
L 228.852858 210.714939 
L 229.512328 285.349869 
L 230.171798 269.294681 
L 230.831267 187.283043 
L 231.490737 123.496213 
L 232.150207 196.395447 
L 232.809676 184.679499 
L 233.469146 200.300763 
L 234.128616 158.210134 
L 234.788085 136.947858 
L 235.447555 206.809623 
L 236.107025 189.018739 
L 236.766494 260.182277 
L 237.425964 238.92 
L 238.085434 184.245575 
L 238.744903 324.836954 
L 239.404373 330.044042 
L 240.063843 332.647586 
L 240.723312 333.515434 
L 242.042252 336.986826 
L 242.701722 337.854674 
L 244.020661 340.458218 
L 245.3396 342.193914 
L 245.99907 343.495686 
L 246.65854 343.92961 
L 247.318009 343.92961 
L 247.977479 345.231383 
L 248.636949 344.797458 
L 249.296418 345.231383 
L 249.955888 346.099231 
L 250.615358 345.665307 
L 251.274827 345.665307 
L 251.934297 351.740243 
L 252.593767 344.363534 
L 253.253236 327.006574 
L 253.912706 318.762018 
L 254.572176 308.781766 
L 255.231645 306.612146 
L 255.891115 306.612146 
L 256.550585 238.92 
L 257.210055 211.582787 
L 257.869524 275.369617 
L 258.528994 135.212162 
L 259.188464 130.872921 
L 259.847933 163.417222 
L 260.507403 119.156973 
L 261.166873 162.11545 
L 261.826342 126.967605 
L 262.485812 203.338231 
L 263.145282 240.221772 
L 263.804751 142.154946 
L 264.464221 221.129116 
L 265.123691 277.973161 
L 266.44263 175.13317 
L 267.1021 236.316456 
L 267.761569 235.882532 
L 268.421039 308.347842 
L 269.080509 317.89417 
L 269.739979 321.365562 
L 270.399448 328.308346 
L 271.058918 330.91189 
L 271.718388 334.383282 
L 272.377857 336.986826 
L 274.356266 342.193914 
L 275.675206 343.92961 
L 276.334675 345.231383 
L 276.994145 344.797458 
L 277.653615 346.099231 
L 278.313084 346.967079 
L 278.972554 348.268851 
L 279.632024 346.533155 
L 280.950963 346.533155 
L 281.610433 351.740243 
L 282.269903 345.665307 
L 282.929372 338.288598 
L 283.588842 334.383282 
L 284.248312 319.629866 
L 284.907781 320.931638 
L 285.567251 304.442526 
L 286.226721 300.537209 
L 286.88619 244.127088 
L 287.54566 277.973161 
L 288.20513 198.565067 
L 288.864599 275.803541 
L 289.524069 256.710884 
L 290.183539 257.144808 
L 290.843008 259.748352 
L 291.502478 270.596453 
L 292.161948 264.521517 
L 292.821417 252.805568 
L 293.480887 218.525572 
L 294.140357 223.73266 
L 295.459296 122.194441 
L 296.118766 237.618228 
L 296.778236 205.073927 
L 297.437705 201.168611 
L 298.097175 336.552902 
L 298.756645 318.762018 
L 299.416114 322.667334 
L 300.075584 323.969106 
L 300.735054 325.704802 
L 301.394523 330.044042 
L 303.372932 337.854674 
L 304.032402 339.59037 
L 304.691872 340.458218 
L 305.351341 342.193914 
L 306.670281 343.92961 
L 307.32975 343.92961 
L 307.98922 344.797458 
L 309.30816 345.665307 
L 309.967629 346.967079 
L 310.627099 346.533155 
L 311.286569 350.438471 
L 311.946038 342.193914 
L 312.605508 340.458218 
L 313.264978 339.156446 
L 313.924447 324.40303 
L 314.583917 323.535182 
L 315.243387 320.931638 
L 315.902856 314.422778 
L 316.562326 306.178222 
L 317.221796 270.596453 
L 317.881265 300.971133 
L 318.540735 299.235437 
L 319.200205 235.882532 
L 319.859674 196.829371 
L 320.519144 286.651641 
L 321.178614 282.746325 
L 321.838084 179.038487 
L 322.497553 152.569122 
L 323.157023 193.357979 
L 323.816493 135.212162 
L 324.475962 197.263295 
L 325.135432 118.723049 
L 325.794902 279.274933 
L 326.454371 263.653669 
L 327.113841 285.349869 
L 327.773311 201.168611 
L 328.43278 149.965578 
L 329.09225 326.138726 
L 329.75172 326.57265 
L 330.411189 329.610118 
L 331.070659 330.477966 
L 331.730129 332.647586 
L 332.389598 333.949358 
L 333.049068 336.118978 
L 333.708538 336.986826 
L 334.368007 339.59037 
L 335.027477 340.458218 
L 335.686947 342.193914 
L 336.346417 342.627838 
L 337.005886 342.627838 
L 337.665356 344.797458 
L 338.324826 345.231383 
L 338.984295 345.231383 
L 339.643765 344.797458 
L 340.303235 345.665307 
L 340.962704 346.099231 
L 341.622174 346.099231 
L 342.281644 351.740243 
L 342.941113 340.458218 
L 343.600583 340.024294 
L 344.260053 331.779738 
L 344.919522 334.817206 
L 345.578992 322.667334 
L 346.238462 321.365562 
L 346.897931 289.255185 
L 347.557401 312.253158 
L 348.216871 303.574678 
L 348.876341 289.255185 
L 349.53581 287.519489 
L 350.19528 271.030377 
L 350.85475 280.142781 
L 351.514219 273.199997 
L 352.833159 204.640003 
L 353.492628 157.77621 
L 354.152098 214.620255 
L 354.811568 235.448608 
L 355.471037 145.626338 
L 356.130507 171.661778 
L 356.789977 239.353924 
L 357.449446 202.904307 
L 358.108916 352.174167 
L 358.768386 315.72455 
L 359.427855 317.89417 
L 360.746795 326.57265 
L 361.406264 331.779738 
L 362.065734 332.647586 
L 362.725204 336.118978 
L 363.384674 337.854674 
L 364.044143 340.458218 
L 366.022552 343.061762 
L 366.682022 344.363534 
L 367.341492 344.797458 
L 368.000961 344.797458 
L 368.660431 345.665307 
L 371.29831 345.665307 
L 371.957779 344.363534 
L 372.617249 342.193914 
L 373.276719 325.270878 
L 373.936188 319.195942 
L 374.595658 306.612146 
L 375.255128 252.371644 
L 375.914598 287.953413 
L 376.574067 274.501769 
L 377.233537 269.728605 
L 377.893007 202.904307 
L 378.552476 176.001019 
L 379.211946 202.904307 
L 379.871416 241.08962 
L 380.530885 260.616201 
L 381.190355 172.095702 
L 381.849825 168.190386 
L 382.509294 187.716967 
L 383.168764 133.042542 
L 383.828234 225.034432 
L 384.487703 142.154946 
L 385.147173 323.101258 
L 385.806643 299.669361 
L 386.466112 310.951386 
L 387.125582 312.687082 
L 387.785052 318.328094 
L 388.444522 322.23341 
L 389.763461 332.213662 
L 391.74187 338.722522 
L 392.40134 339.59037 
L 393.060809 341.326066 
L 393.720279 341.75999 
L 394.379749 343.061762 
L 395.039218 343.92961 
L 395.698688 345.665307 
L 396.358158 344.797458 
L 397.017627 345.231383 
L 397.677097 346.099231 
L 398.336567 346.099231 
L 398.996036 345.231383 
L 400.314976 326.57265 
L 400.974445 313.121006 
L 401.633915 280.576705 
L 402.293385 295.330121 
L 402.952855 294.462273 
L 403.612324 287.519489 
L 404.271794 235.014684 
L 404.931264 289.689109 
L 405.590733 250.202024 
L 406.250203 251.069872 
L 406.909673 202.470383 
L 407.569142 143.456718 
L 408.228612 138.683554 
L 408.888082 198.565067 
L 409.547551 157.77621 
L 410.207021 253.673416 
L 410.866491 221.996964 
L 411.52596 258.880504 
L 412.18543 272.766073 
L 412.8449 213.752407 
L 413.504369 213.752407 
L 414.163839 230.24152 
L 414.823309 161.247602 
L 415.482779 327.440498 
L 416.142248 322.23341 
L 416.801718 325.704802 
L 417.461188 327.006574 
L 418.120657 330.477966 
L 418.780127 332.647586 
L 419.439597 335.25113 
L 420.758536 337.854674 
L 421.418006 340.024294 
L 422.077475 340.458218 
L 422.736945 342.193914 
L 424.055884 343.92961 
L 424.715354 345.231383 
L 425.374824 344.797458 
L 426.034293 346.533155 
L 426.693763 346.099231 
L 427.353233 346.099231 
L 428.012703 346.533155 
L 428.672172 351.740243 
L 429.331642 343.061762 
L 429.991112 331.779738 
L 430.650581 317.89417 
L 431.310051 258.44658 
L 431.969521 289.689109 
L 432.62899 293.594425 
L 433.28846 293.160501 
L 433.94793 294.462273 
L 434.607399 285.349869 
L 435.266869 281.010629 
L 435.926339 274.935693 
L 436.585808 273.199997 
L 437.245278 257.144808 
L 437.904748 272.766073 
L 438.564217 251.93772 
L 439.223687 271.898225 
L 439.883157 158.210134 
L 440.542626 261.484049 
L 441.202096 198.131143 
L 441.861566 156.908362 
L 442.521036 185.547347 
L 443.180505 158.210134 
L 443.839975 174.699246 
L 444.499445 248.032404 
L 445.158914 220.261268 
L 445.818384 146.92811 
L 446.477854 252.805568 
L 447.137323 197.263295 
L 447.796793 186.415195 
L 448.456263 102.233937 
L 449.115732 165.586842 
L 449.775202 179.472411 
L 450.434672 169.058234 
L 451.094141 166.888614 
L 451.753611 153.43697 
L 452.413081 319.195942 
L 453.07255 305.744298 
L 454.39149 324.40303 
L 455.710429 338.722522 
L 456.369899 342.627838 
L 457.029369 343.92961 
L 457.688838 346.099231 
L 458.348308 346.533155 
L 459.667247 346.533155 
L 460.326717 346.099231 
L 460.986187 346.099231 
L 461.645656 346.533155 
L 463.624065 346.533155 
L 464.283535 346.967079 
L 464.943005 346.533155 
L 465.602474 351.740243 
L 466.261944 340.458218 
L 466.921414 336.118978 
L 467.580883 333.949358 
L 468.240353 323.101258 
L 468.899823 318.328094 
L 469.559293 306.612146 
L 470.218762 273.633921 
L 470.878232 261.484049 
L 471.537702 286.651641 
L 472.197171 219.39342 
L 472.856641 270.596453 
L 473.516111 287.085565 
L 474.17558 261.484049 
L 474.83505 272.332149 
L 475.49452 220.695192 
L 476.153989 275.369617 
L 476.813459 263.653669 
L 477.472929 254.975188 
L 478.132398 200.734687 
L 478.791868 230.675444 
L 479.451338 305.744298 
L 480.110807 318.328094 
L 480.770277 326.138726 
L 481.429747 328.74227 
L 482.089217 329.610118 
L 482.748686 330.91189 
L 483.408156 332.647586 
L 484.067626 333.949358 
L 484.727095 335.685054 
L 485.386565 336.552902 
L 486.046035 336.986826 
L 487.364974 338.722522 
L 488.024444 340.024294 
L 489.343383 340.892142 
L 490.002853 343.061762 
L 490.662322 339.156446 
L 491.321792 342.193914 
L 491.981262 343.061762 
L 492.640731 350.872395 
L 493.300201 340.892142 
L 493.959671 334.817206 
L 494.619141 332.647586 
L 495.27861 295.330121 
L 495.93808 321.799486 
L 496.59755 315.72455 
L 497.257019 306.612146 
L 497.916489 282.312401 
L 498.575959 226.336204 
L 499.235428 281.444553 
L 499.894898 268.860757 
L 500.554368 286.651641 
L 501.213837 237.618228 
L 501.873307 264.955441 
L 503.192246 139.551402 
L 503.851716 272.332149 
L 504.511186 130.872921 
L 505.170655 264.521517 
L 505.830125 202.904307 
L 506.489595 187.716967 
L 507.149064 200.300763 
L 507.808534 313.55493 
L 508.468004 309.21569 
L 509.127474 313.55493 
L 509.127474 313.55493 
" style="fill:none;stroke:#2ca02c;stroke-linecap:square;stroke-width:1.5;"/>
   </g>
   <g id="line2d_16">
    <path clip-path="url(#pe6dd3c3e23)" d="M 156.291409 325.704802 
L 156.950879 309.21569 
L 157.610348 311.38531 
L 158.269818 303.574678 
L 159.588757 295.330121 
L 160.248227 294.028349 
L 160.907697 291.858729 
L 162.226636 290.990881 
L 162.886106 241.523544 
L 163.545575 303.574678 
L 164.864515 332.213662 
L 165.523984 322.667334 
L 166.183454 330.044042 
L 166.842924 335.25113 
L 167.502394 338.722522 
L 168.161863 335.25113 
L 168.821333 343.92961 
L 169.480803 350.872395 
L 170.140272 351.740243 
L 170.799742 351.740243 
L 171.459212 350.872395 
L 172.118681 352.174167 
L 172.778151 350.872395 
L 173.437621 351.306319 
L 174.09709 352.174167 
L 175.41603 352.174167 
L 176.075499 350.872395 
L 176.734969 350.872395 
L 177.394439 351.740243 
L 178.053908 351.740243 
L 178.713378 350.438471 
L 182.010727 329.176194 
L 183.329666 321.799486 
L 183.989136 318.762018 
L 184.648605 314.422778 
L 186.627014 306.178222 
L 187.945954 282.746325 
L 188.605423 266.691137 
L 189.264893 285.783793 
L 189.924363 279.274933 
L 191.243302 270.162529 
L 191.902772 267.558985 
L 192.562242 223.298736 
L 193.221711 287.519489 
L 193.881181 271.898225 
L 194.540651 312.253158 
L 195.20012 307.913918 
L 195.85959 318.762018 
L 196.51906 327.006574 
L 197.178529 345.231383 
L 197.837999 340.024294 
L 199.156938 351.306319 
L 200.475878 351.306319 
L 201.135347 351.740243 
L 202.454287 351.740243 
L 203.113756 352.174167 
L 203.773226 351.740243 
L 204.432696 352.174167 
L 205.092165 350.438471 
L 205.751635 350.438471 
L 206.411105 351.740243 
L 207.070575 352.174167 
L 207.730044 352.174167 
L 208.389514 349.136699 
L 209.708453 340.024294 
L 210.367923 336.118978 
L 211.027393 330.91189 
L 211.686862 328.308346 
L 212.346332 323.535182 
L 213.005802 320.931638 
L 216.30315 304.008602 
L 216.96262 301.405057 
L 217.622089 299.669361 
L 218.281559 296.631893 
L 218.941029 292.292653 
L 219.600499 303.140754 
L 220.259968 297.499741 
L 221.578908 289.255185 
L 222.238377 306.612146 
L 222.897847 303.140754 
L 223.557317 301.405057 
L 224.216786 315.290626 
L 224.876256 333.515434 
L 225.535726 337.42075 
L 226.195195 345.231383 
L 226.854665 348.268851 
L 227.514135 348.268851 
L 228.173604 351.306319 
L 228.833074 349.136699 
L 229.492544 350.872395 
L 230.152013 348.268851 
L 230.811483 351.740243 
L 231.470953 351.740243 
L 232.130422 350.004547 
L 232.789892 351.740243 
L 233.449362 350.438471 
L 234.108832 351.740243 
L 235.427771 350.872395 
L 236.087241 350.872395 
L 238.06565 352.174167 
L 238.725119 350.004547 
L 239.384589 346.533155 
L 240.044059 341.326066 
L 243.341407 323.535182 
L 244.000877 319.195942 
L 244.660346 316.592398 
L 246.638756 306.612146 
L 247.298225 304.442526 
L 247.957695 300.971133 
L 248.617165 299.669361 
L 249.276634 296.631893 
L 249.936104 284.048097 
L 250.595574 298.367589 
L 251.255043 297.065817 
L 251.914513 288.387337 
L 252.573983 306.178222 
L 253.233452 301.838981 
L 253.892922 314.856702 
L 254.552392 331.779738 
L 255.211861 336.552902 
L 255.871331 340.458218 
L 256.530801 346.099231 
L 257.19027 348.702775 
L 258.50921 352.174167 
L 259.828149 351.306319 
L 261.147089 352.174167 
L 261.806558 350.438471 
L 262.466028 352.174167 
L 264.444437 352.174167 
L 265.103907 351.306319 
L 265.763376 352.174167 
L 266.422846 352.174167 
L 267.082316 350.872395 
L 267.741785 352.174167 
L 268.401255 349.570623 
L 269.060725 346.099231 
L 269.720194 341.326066 
L 270.379664 338.288598 
L 271.039134 333.949358 
L 271.698603 330.477966 
L 272.358073 328.74227 
L 273.017543 321.799486 
L 273.677013 317.460246 
L 274.336482 315.290626 
L 274.995952 311.819234 
L 275.655422 307.479994 
L 276.314891 306.178222 
L 276.974361 302.70683 
L 277.633831 284.915945 
L 278.2933 270.162529 
L 278.95277 286.651641 
L 279.61224 281.444553 
L 280.271709 274.067845 
L 280.931179 269.294681 
L 281.590649 265.389365 
L 282.250118 290.990881 
L 282.909588 285.783793 
L 283.569058 304.87645 
L 284.228527 300.971133 
L 284.887997 314.422778 
L 285.547467 308.781766 
L 286.206937 322.23341 
L 286.866406 323.969106 
L 287.525876 340.892142 
L 288.185346 340.458218 
L 288.844815 350.004547 
L 289.504285 350.004547 
L 290.163755 351.306319 
L 290.823224 351.740243 
L 291.482694 351.306319 
L 292.142164 351.306319 
L 292.801633 349.570623 
L 293.461103 350.872395 
L 294.120573 350.438471 
L 294.780042 351.306319 
L 295.439512 351.306319 
L 296.758451 352.174167 
L 297.417921 351.740243 
L 298.077391 352.174167 
L 298.736861 348.702775 
L 300.71527 336.118978 
L 303.353148 320.931638 
L 309.288375 293.160501 
L 309.947845 305.310374 
L 310.607315 299.235437 
L 311.266784 294.462273 
L 311.926254 290.556957 
L 312.585724 306.612146 
L 313.245194 318.328094 
L 313.904663 316.592398 
L 314.564133 326.57265 
L 315.223603 306.612146 
L 315.883072 331.345814 
L 316.542542 336.552902 
L 317.202012 337.854674 
L 317.861481 345.665307 
L 318.520951 349.136699 
L 319.180421 350.004547 
L 319.83989 348.268851 
L 320.49936 346.967079 
L 321.15883 352.174167 
L 321.818299 350.438471 
L 322.477769 352.174167 
L 323.137239 351.740243 
L 323.796708 352.174167 
L 324.456178 352.174167 
L 325.115648 350.438471 
L 325.775118 351.306319 
L 326.434587 351.306319 
L 327.094057 350.438471 
L 327.753527 350.438471 
L 328.412996 351.740243 
L 329.072466 351.306319 
L 329.731936 347.401003 
L 330.391405 344.363534 
L 331.050875 339.59037 
L 331.710345 336.552902 
L 334.348223 320.497714 
L 336.326632 312.253158 
L 336.986102 307.479994 
L 337.645572 305.310374 
L 338.964511 300.103285 
L 339.623981 294.896197 
L 340.283451 280.576705 
L 340.94292 298.801513 
L 341.60239 292.292653 
L 342.921329 284.915945 
L 343.580799 301.405057 
L 344.240269 300.103285 
L 344.899738 312.687082 
L 345.559208 311.38531 
L 346.218678 321.365562 
L 346.878147 316.592398 
L 347.537617 335.25113 
L 348.197087 340.892142 
L 348.856556 341.75999 
L 349.516026 344.797458 
L 350.175496 346.533155 
L 350.834965 349.570623 
L 351.494435 351.306319 
L 352.153905 352.174167 
L 352.813375 350.872395 
L 353.472844 350.872395 
L 354.132314 352.174167 
L 358.089132 352.174167 
L 359.408071 344.797458 
L 360.067541 339.59037 
L 362.70542 324.40303 
L 364.683829 313.988854 
L 365.343299 311.38531 
L 366.662238 304.442526 
L 367.321708 302.70683 
L 367.981177 299.669361 
L 368.640647 297.499741 
L 369.300117 293.160501 
L 369.959586 278.841009 
L 370.619056 297.065817 
L 371.278526 290.990881 
L 371.937995 287.085565 
L 372.597465 304.87645 
L 373.256935 300.537209 
L 373.916404 315.290626 
L 374.575874 323.535182 
L 375.235344 321.799486 
L 375.894813 340.458218 
L 376.554283 340.458218 
L 377.213753 346.099231 
L 377.873222 346.967079 
L 378.532692 350.872395 
L 379.192162 352.174167 
L 379.851632 352.174167 
L 380.511101 351.740243 
L 381.170571 350.438471 
L 381.830041 352.174167 
L 382.48951 350.872395 
L 383.14898 352.174167 
L 383.80845 351.740243 
L 384.467919 352.174167 
L 385.127389 352.174167 
L 385.786859 350.004547 
L 386.446328 345.665307 
L 387.105798 343.061762 
L 387.765268 339.59037 
L 389.084207 330.91189 
L 390.403146 324.40303 
L 391.062616 320.931638 
L 391.722086 318.328094 
L 393.041025 311.819234 
L 393.700495 309.649614 
L 394.359965 305.744298 
L 395.019434 303.574678 
L 395.678904 329.176194 
L 396.338374 312.687082 
L 396.997843 309.649614 
L 397.657313 305.310374 
L 398.316783 303.574678 
L 398.976252 303.140754 
L 399.635722 302.272905 
L 400.295192 301.838981 
L 400.954661 315.290626 
L 401.614131 309.649614 
L 402.273601 321.799486 
L 402.93307 328.74227 
L 403.59254 334.383282 
L 404.25201 343.061762 
L 404.91148 348.702775 
L 405.570949 348.702775 
L 406.230419 350.438471 
L 406.889889 351.740243 
L 407.549358 351.306319 
L 408.208828 351.306319 
L 408.868298 352.174167 
L 409.527767 351.740243 
L 410.187237 350.872395 
L 410.846707 350.438471 
L 411.506176 350.872395 
L 412.165646 352.174167 
L 412.825116 352.174167 
L 413.484585 351.740243 
L 414.144055 352.174167 
L 414.803525 351.740243 
L 415.462994 352.174167 
L 416.122464 349.136699 
L 417.441403 340.458218 
L 418.100873 336.986826 
L 418.760343 332.213662 
L 420.079282 325.704802 
L 421.398222 318.328094 
L 422.057691 314.422778 
L 422.717161 312.687082 
L 423.376631 309.21569 
L 424.0361 301.838981 
L 425.35504 274.935693 
L 426.014509 220.695192 
L 426.673979 282.312401 
L 427.333449 275.369617 
L 427.992918 270.162529 
L 428.652388 270.162529 
L 429.311858 290.990881 
L 429.971327 286.217717 
L 430.630797 273.199997 
L 431.290267 307.913918 
L 431.949737 323.969106 
L 433.268676 336.986826 
L 433.928146 342.627838 
L 434.587615 343.92961 
L 435.247085 345.665307 
L 435.906555 343.061762 
L 437.225494 346.533155 
L 437.884964 349.570623 
L 438.544433 350.004547 
L 439.203903 350.004547 
L 439.863373 348.702775 
L 440.522842 352.174167 
L 441.182312 352.174167 
L 441.841782 351.740243 
L 442.501251 350.872395 
L 443.160721 351.306319 
L 443.820191 351.306319 
L 444.47966 352.174167 
L 445.7986 352.174167 
L 446.45807 351.306319 
L 447.117539 351.306319 
L 447.777009 352.174167 
L 448.436479 350.872395 
L 449.095948 352.174167 
L 449.755418 350.004547 
L 450.414888 350.438471 
L 452.393297 350.438471 
L 453.052766 345.665307 
L 453.712236 335.25113 
L 454.371706 315.72455 
L 455.031175 280.142781 
L 455.690645 233.712912 
L 456.350115 261.050125 
L 457.669054 246.296708 
L 458.328524 241.08962 
L 459.647463 234.58076 
L 460.306933 267.125061 
L 460.966403 261.050125 
L 461.625872 258.880504 
L 462.285342 255.843036 
L 462.944812 254.10734 
L 463.604281 253.239492 
L 464.263751 251.503796 
L 464.923221 252.371644 
L 465.58269 277.539237 
L 466.24216 271.030377 
L 466.90163 265.823289 
L 467.561099 288.821261 
L 468.220569 284.482021 
L 468.880039 302.272905 
L 469.539508 299.235437 
L 470.198978 297.499741 
L 471.517918 337.42075 
L 472.177387 340.458218 
L 472.836857 347.401003 
L 473.496327 349.570623 
L 474.155796 350.004547 
L 474.815266 351.740243 
L 475.474736 349.570623 
L 476.134205 351.740243 
L 476.793675 351.306319 
L 477.453145 349.570623 
L 478.112614 350.872395 
L 478.772084 351.306319 
L 479.431554 349.136699 
L 480.091023 347.834927 
L 480.750493 345.231383 
L 482.728902 335.25113 
L 486.68572 317.026322 
L 487.34519 313.121006 
L 488.00466 314.856702 
L 488.664129 308.781766 
L 489.323599 306.178222 
L 489.983069 300.103285 
L 490.642538 267.125061 
L 491.302008 303.140754 
L 492.620947 294.896197 
L 493.280417 310.517462 
L 493.939887 306.612146 
L 494.599356 319.195942 
L 495.258826 298.367589 
L 495.918296 325.704802 
L 496.577765 332.213662 
L 497.237235 337.42075 
L 497.896705 341.326066 
L 498.556175 342.627838 
L 499.215644 349.136699 
L 499.875114 351.306319 
L 500.534584 351.306319 
L 501.194053 352.174167 
L 501.853523 352.174167 
L 502.512993 350.438471 
L 503.172462 352.174167 
L 503.831932 349.570623 
L 504.491402 351.306319 
L 505.810341 352.174167 
L 506.469811 351.740243 
L 507.12928 351.740243 
L 507.78875 352.174167 
L 508.44822 348.268851 
L 509.107689 345.231383 
L 511.086098 332.647586 
L 511.745568 329.176194 
L 511.745568 329.176194 
" style="fill:none;stroke:#d62728;stroke-linecap:square;stroke-width:1.5;"/>
   </g>
   <g id="patch_3">
    <path d="M 130.230156 352.174167 
L 130.230156 35.0625 
" style="fill:none;stroke:#000000;stroke-linecap:square;stroke-linejoin:miter;stroke-width:0.8;"/>
   </g>
   <g id="patch_4">
    <path d="M 529.912969 352.174167 
L 529.912969 35.0625 
" style="fill:none;stroke:#000000;stroke-linecap:square;stroke-linejoin:miter;stroke-width:0.8;"/>
   </g>
   <g id="patch_5">
    <path d="M 130.230156 352.174167 
L 529.912969 352.174167 
" style="fill:none;stroke:#000000;stroke-linecap:square;stroke-linejoin:miter;stroke-width:0.8;"/>
   </g>
   <g id="patch_6">
    <path d="M 130.230156 35.0625 
L 529.912969 35.0625 
" style="fill:none;stroke:#000000;stroke-linecap:square;stroke-linejoin:miter;stroke-width:0.8;"/>
   </g>
   <g id="legend_1">
    <g id="patch_7">
     <path d="M 551.897109 96.775 
L 623.092422 96.775 
Q 625.092422 96.775 625.092422 94.775 
L 625.092422 37.0625 
Q 625.092422 35.0625 623.092422 35.0625 
L 551.897109 35.0625 
Q 549.897109 35.0625 549.897109 37.0625 
L 549.897109 94.775 
Q 549.897109 96.775 551.897109 96.775 
z
" style="fill:#ffffff;opacity:0.8;stroke:#cccccc;stroke-linejoin:miter;"/>
    </g>
    <g id="line2d_17">
     <path d="M 553.897109 43.160937 
L 573.897109 43.160937 
" style="fill:none;stroke:#1f77b4;stroke-linecap:square;stroke-width:1.5;"/>
    </g>
    <g id="line2d_18"/>
    <g id="text_14">
     <!-- bbr-pi -->
     <defs>
      <path d="M 41.109375 46.296875 
Q 39.59375 47.171875 37.8125 47.578125 
Q 36.03125 48 33.890625 48 
Q 26.265625 48 22.1875 43.046875 
Q 18.109375 38.09375 18.109375 28.8125 
L 18.109375 0 
L 9.078125 0 
L 9.078125 54.6875 
L 18.109375 54.6875 
L 18.109375 46.1875 
Q 20.953125 51.171875 25.484375 53.578125 
Q 30.03125 56 36.53125 56 
Q 37.453125 56 38.578125 55.875 
Q 39.703125 55.765625 41.0625 55.515625 
z
" id="DejaVuSans-114"/>
      <path d="M 4.890625 31.390625 
L 31.203125 31.390625 
L 31.203125 23.390625 
L 4.890625 23.390625 
z
" id="DejaVuSans-45"/>
      <path d="M 18.109375 8.203125 
L 18.109375 -20.796875 
L 9.078125 -20.796875 
L 9.078125 54.6875 
L 18.109375 54.6875 
L 18.109375 46.390625 
Q 20.953125 51.265625 25.265625 53.625 
Q 29.59375 56 35.59375 56 
Q 45.5625 56 51.78125 48.09375 
Q 58.015625 40.1875 58.015625 27.296875 
Q 58.015625 14.40625 51.78125 6.484375 
Q 45.5625 -1.421875 35.59375 -1.421875 
Q 29.59375 -1.421875 25.265625 0.953125 
Q 20.953125 3.328125 18.109375 8.203125 
z
M 48.6875 27.296875 
Q 48.6875 37.203125 44.609375 42.84375 
Q 40.53125 48.484375 33.40625 48.484375 
Q 26.265625 48.484375 22.1875 42.84375 
Q 18.109375 37.203125 18.109375 27.296875 
Q 18.109375 17.390625 22.1875 11.75 
Q 26.265625 6.109375 33.40625 6.109375 
Q 40.53125 6.109375 44.609375 11.75 
Q 48.6875 17.390625 48.6875 27.296875 
z
" id="DejaVuSans-112"/>
     </defs>
     <g transform="translate(581.897109 46.660937)scale(0.1 -0.1)">
      <use xlink:href="#DejaVuSans-98"/>
      <use x="63.476562" xlink:href="#DejaVuSans-98"/>
      <use x="126.953125" xlink:href="#DejaVuSans-114"/>
      <use x="167.972656" xlink:href="#DejaVuSans-45"/>
      <use x="204.056641" xlink:href="#DejaVuSans-112"/>
      <use x="267.533203" xlink:href="#DejaVuSans-105"/>
     </g>
    </g>
    <g id="line2d_19">
     <path d="M 553.897109 57.839063 
L 573.897109 57.839063 
" style="fill:none;stroke:#ff7f0e;stroke-linecap:square;stroke-width:1.5;"/>
    </g>
    <g id="line2d_20"/>
    <g id="text_15">
     <!-- cubic-pi -->
     <defs>
      <path d="M 48.78125 52.59375 
L 48.78125 44.1875 
Q 44.96875 46.296875 41.140625 47.34375 
Q 37.3125 48.390625 33.40625 48.390625 
Q 24.65625 48.390625 19.8125 42.84375 
Q 14.984375 37.3125 14.984375 27.296875 
Q 14.984375 17.28125 19.8125 11.734375 
Q 24.65625 6.203125 33.40625 6.203125 
Q 37.3125 6.203125 41.140625 7.25 
Q 44.96875 8.296875 48.78125 10.40625 
L 48.78125 2.09375 
Q 45.015625 0.34375 40.984375 -0.53125 
Q 36.96875 -1.421875 32.421875 -1.421875 
Q 20.0625 -1.421875 12.78125 6.34375 
Q 5.515625 14.109375 5.515625 27.296875 
Q 5.515625 40.671875 12.859375 48.328125 
Q 20.21875 56 33.015625 56 
Q 37.15625 56 41.109375 55.140625 
Q 45.0625 54.296875 48.78125 52.59375 
z
" id="DejaVuSans-99"/>
      <path d="M 8.5 21.578125 
L 8.5 54.6875 
L 17.484375 54.6875 
L 17.484375 21.921875 
Q 17.484375 14.15625 20.5 10.265625 
Q 23.53125 6.390625 29.59375 6.390625 
Q 36.859375 6.390625 41.078125 11.03125 
Q 45.3125 15.671875 45.3125 23.6875 
L 45.3125 54.6875 
L 54.296875 54.6875 
L 54.296875 0 
L 45.3125 0 
L 45.3125 8.40625 
Q 42.046875 3.421875 37.71875 1 
Q 33.40625 -1.421875 27.6875 -1.421875 
Q 18.265625 -1.421875 13.375 4.4375 
Q 8.5 10.296875 8.5 21.578125 
z
M 31.109375 56 
z
" id="DejaVuSans-117"/>
     </defs>
     <g transform="translate(581.897109 61.339063)scale(0.1 -0.1)">
      <use xlink:href="#DejaVuSans-99"/>
      <use x="54.980469" xlink:href="#DejaVuSans-117"/>
      <use x="118.359375" xlink:href="#DejaVuSans-98"/>
      <use x="181.835938" xlink:href="#DejaVuSans-105"/>
      <use x="209.619141" xlink:href="#DejaVuSans-99"/>
      <use x="264.599609" xlink:href="#DejaVuSans-45"/>
      <use x="300.683594" xlink:href="#DejaVuSans-112"/>
      <use x="364.160156" xlink:href="#DejaVuSans-105"/>
     </g>
    </g>
    <g id="line2d_21">
     <path d="M 553.897109 72.517187 
L 573.897109 72.517187 
" style="fill:none;stroke:#2ca02c;stroke-linecap:square;stroke-width:1.5;"/>
    </g>
    <g id="line2d_22"/>
    <g id="text_16">
     <!-- bbr-pi -->
     <g transform="translate(581.897109 76.017187)scale(0.1 -0.1)">
      <use xlink:href="#DejaVuSans-98"/>
      <use x="63.476562" xlink:href="#DejaVuSans-98"/>
      <use x="126.953125" xlink:href="#DejaVuSans-114"/>
      <use x="167.972656" xlink:href="#DejaVuSans-45"/>
      <use x="204.056641" xlink:href="#DejaVuSans-112"/>
      <use x="267.533203" xlink:href="#DejaVuSans-105"/>
     </g>
    </g>
    <g id="line2d_23">
     <path d="M 553.897109 87.195312 
L 573.897109 87.195312 
" style="fill:none;stroke:#d62728;stroke-linecap:square;stroke-width:1.5;"/>
    </g>
    <g id="line2d_24"/>
    <g id="text_17">
     <!-- cubic-pi -->
     <g transform="translate(581.897109 90.695312)scale(0.1 -0.1)">
      <use xlink:href="#DejaVuSans-99"/>
      <use x="54.980469" xlink:href="#DejaVuSans-117"/>
      <use x="118.359375" xlink:href="#DejaVuSans-98"/>
      <use x="181.835938" xlink:href="#DejaVuSans-105"/>
      <use x="209.619141" xlink:href="#DejaVuSans-99"/>
      <use x="264.599609" xlink:href="#DejaVuSans-45"/>
      <use x="300.683594" xlink:href="#DejaVuSans-112"/>
      <use x="364.160156" xlink:href="#DejaVuSans-105"/>
     </g>
    </g>
   </g>
  </g>
  <g id="text_18">
   <!-- result inflight -->
   <defs>
    <path id="DejaVuSans-32"/>
   </defs>
   <g transform="translate(302.110313 17.038125)scale(0.12 -0.12)">
    <use xlink:href="#DejaVuSans-114"/>
    <use x="41.082031" xlink:href="#DejaVuSans-101"/>
    <use x="102.605469" xlink:href="#DejaVuSans-115"/>
    <use x="154.705078" xlink:href="#DejaVuSans-117"/>
    <use x="218.083984" xlink:href="#DejaVuSans-108"/>
    <use x="245.867188" xlink:href="#DejaVuSans-116"/>
    <use x="285.076172" xlink:href="#DejaVuSans-32"/>
    <use x="316.863281" xlink:href="#DejaVuSans-105"/>
    <use x="344.646484" xlink:href="#DejaVuSans-110"/>
    <use x="408.025391" xlink:href="#DejaVuSans-102"/>
    <use x="443.230469" xlink:href="#DejaVuSans-108"/>
    <use x="471.013672" xlink:href="#DejaVuSans-105"/>
    <use x="498.796875" xlink:href="#DejaVuSans-103"/>
    <use x="562.273438" xlink:href="#DejaVuSans-104"/>
    <use x="625.652344" xlink:href="#DejaVuSans-116"/>
   </g>
  </g>
 </g>
 <defs>
  <clipPath id="pe6dd3c3e23">
   <rect height="317.111667" width="399.682812" x="130.230156" y="35.0625"/>
  </clipPath>
 </defs>
</svg>
