<?xml version="1.0" encoding="utf-8" standalone="no"?>
<!DOCTYPE svg PUBLIC "-//W3C//DTD SVG 1.1//EN"
  "http://www.w3.org/Graphics/SVG/1.1/DTD/svg11.dtd">
<!-- Created with matplotlib (https://matplotlib.org/) -->
<svg height="396pt" version="1.1" viewBox="0 0 684 396" width="684pt" xmlns="http://www.w3.org/2000/svg" xmlns:xlink="http://www.w3.org/1999/xlink">
 <defs>
  <style type="text/css">
*{stroke-linecap:butt;stroke-linejoin:round;}
  </style>
 </defs>
 <g id="figure_1">
  <g id="patch_1">
   <path d="M 0 396 
L 684 396 
L 684 0 
L 0 0 
z
" style="fill:#ffffff;"/>
  </g>
  <g id="axes_1">
   <g id="patch_2">
    <path d="M 66.158594 352.174167 
L 516.019219 352.174167 
L 516.019219 35.0625 
L 66.158594 35.0625 
z
" style="fill:#ffffff;"/>
   </g>
   <g id="matplotlib.axis_1">
    <g id="xtick_1">
     <g id="line2d_1">
      <defs>
       <path d="M 0 0 
L 0 3.5 
" id="maf2e6ff960" style="stroke:#000000;stroke-width:0.8;"/>
      </defs>
      <g>
       <use style="stroke:#000000;stroke-width:0.8;" x="91.775733" xlink:href="#maf2e6ff960" y="352.174167"/>
      </g>
     </g>
     <g id="text_1">
      <!-- 0 -->
      <defs>
       <path d="M 31.78125 66.40625 
Q 24.171875 66.40625 20.328125 58.90625 
Q 16.5 51.421875 16.5 36.375 
Q 16.5 21.390625 20.328125 13.890625 
Q 24.171875 6.390625 31.78125 6.390625 
Q 39.453125 6.390625 43.28125 13.890625 
Q 47.125 21.390625 47.125 36.375 
Q 47.125 51.421875 43.28125 58.90625 
Q 39.453125 66.40625 31.78125 66.40625 
z
M 31.78125 74.21875 
Q 44.046875 74.21875 50.515625 64.515625 
Q 56.984375 54.828125 56.984375 36.375 
Q 56.984375 17.96875 50.515625 8.265625 
Q 44.046875 -1.421875 31.78125 -1.421875 
Q 19.53125 -1.421875 13.0625 8.265625 
Q 6.59375 17.96875 6.59375 36.375 
Q 6.59375 54.828125 13.0625 64.515625 
Q 19.53125 74.21875 31.78125 74.21875 
z
" id="DejaVuSans-48"/>
      </defs>
      <g transform="translate(88.594483 366.772604)scale(0.1 -0.1)">
       <use xlink:href="#DejaVuSans-48"/>
      </g>
     </g>
    </g>
    <g id="xtick_2">
     <g id="line2d_2">
      <g>
       <use style="stroke:#000000;stroke-width:0.8;" x="162.798921" xlink:href="#maf2e6ff960" y="352.174167"/>
      </g>
     </g>
     <g id="text_2">
      <!-- 50 -->
      <defs>
       <path d="M 10.796875 72.90625 
L 49.515625 72.90625 
L 49.515625 64.59375 
L 19.828125 64.59375 
L 19.828125 46.734375 
Q 21.96875 47.46875 24.109375 47.828125 
Q 26.265625 48.1875 28.421875 48.1875 
Q 40.625 48.1875 47.75 41.5 
Q 54.890625 34.8125 54.890625 23.390625 
Q 54.890625 11.625 47.5625 5.09375 
Q 40.234375 -1.421875 26.90625 -1.421875 
Q 22.3125 -1.421875 17.546875 -0.640625 
Q 12.796875 0.140625 7.71875 1.703125 
L 7.71875 11.625 
Q 12.109375 9.234375 16.796875 8.0625 
Q 21.484375 6.890625 26.703125 6.890625 
Q 35.15625 6.890625 40.078125 11.328125 
Q 45.015625 15.765625 45.015625 23.390625 
Q 45.015625 31 40.078125 35.4375 
Q 35.15625 39.890625 26.703125 39.890625 
Q 22.75 39.890625 18.8125 39.015625 
Q 14.890625 38.140625 10.796875 36.28125 
z
" id="DejaVuSans-53"/>
      </defs>
      <g transform="translate(156.436421 366.772604)scale(0.1 -0.1)">
       <use xlink:href="#DejaVuSans-53"/>
       <use x="63.623047" xlink:href="#DejaVuSans-48"/>
      </g>
     </g>
    </g>
    <g id="xtick_3">
     <g id="line2d_3">
      <g>
       <use style="stroke:#000000;stroke-width:0.8;" x="233.82211" xlink:href="#maf2e6ff960" y="352.174167"/>
      </g>
     </g>
     <g id="text_3">
      <!-- 100 -->
      <defs>
       <path d="M 12.40625 8.296875 
L 28.515625 8.296875 
L 28.515625 63.921875 
L 10.984375 60.40625 
L 10.984375 69.390625 
L 28.421875 72.90625 
L 38.28125 72.90625 
L 38.28125 8.296875 
L 54.390625 8.296875 
L 54.390625 0 
L 12.40625 0 
z
" id="DejaVuSans-49"/>
      </defs>
      <g transform="translate(224.27836 366.772604)scale(0.1 -0.1)">
       <use xlink:href="#DejaVuSans-49"/>
       <use x="63.623047" xlink:href="#DejaVuSans-48"/>
       <use x="127.246094" xlink:href="#DejaVuSans-48"/>
      </g>
     </g>
    </g>
    <g id="xtick_4">
     <g id="line2d_4">
      <g>
       <use style="stroke:#000000;stroke-width:0.8;" x="304.845298" xlink:href="#maf2e6ff960" y="352.174167"/>
      </g>
     </g>
     <g id="text_4">
      <!-- 150 -->
      <g transform="translate(295.301548 366.772604)scale(0.1 -0.1)">
       <use xlink:href="#DejaVuSans-49"/>
       <use x="63.623047" xlink:href="#DejaVuSans-53"/>
       <use x="127.246094" xlink:href="#DejaVuSans-48"/>
      </g>
     </g>
    </g>
    <g id="xtick_5">
     <g id="line2d_5">
      <g>
       <use style="stroke:#000000;stroke-width:0.8;" x="375.868486" xlink:href="#maf2e6ff960" y="352.174167"/>
      </g>
     </g>
     <g id="text_5">
      <!-- 200 -->
      <defs>
       <path d="M 19.1875 8.296875 
L 53.609375 8.296875 
L 53.609375 0 
L 7.328125 0 
L 7.328125 8.296875 
Q 12.9375 14.109375 22.625 23.890625 
Q 32.328125 33.6875 34.8125 36.53125 
Q 39.546875 41.84375 41.421875 45.53125 
Q 43.3125 49.21875 43.3125 52.78125 
Q 43.3125 58.59375 39.234375 62.25 
Q 35.15625 65.921875 28.609375 65.921875 
Q 23.96875 65.921875 18.8125 64.3125 
Q 13.671875 62.703125 7.8125 59.421875 
L 7.8125 69.390625 
Q 13.765625 71.78125 18.9375 73 
Q 24.125 74.21875 28.421875 74.21875 
Q 39.75 74.21875 46.484375 68.546875 
Q 53.21875 62.890625 53.21875 53.421875 
Q 53.21875 48.921875 51.53125 44.890625 
Q 49.859375 40.875 45.40625 35.40625 
Q 44.1875 33.984375 37.640625 27.21875 
Q 31.109375 20.453125 19.1875 8.296875 
z
" id="DejaVuSans-50"/>
      </defs>
      <g transform="translate(366.324736 366.772604)scale(0.1 -0.1)">
       <use xlink:href="#DejaVuSans-50"/>
       <use x="63.623047" xlink:href="#DejaVuSans-48"/>
       <use x="127.246094" xlink:href="#DejaVuSans-48"/>
      </g>
     </g>
    </g>
    <g id="xtick_6">
     <g id="line2d_6">
      <g>
       <use style="stroke:#000000;stroke-width:0.8;" x="446.891674" xlink:href="#maf2e6ff960" y="352.174167"/>
      </g>
     </g>
     <g id="text_6">
      <!-- 250 -->
      <g transform="translate(437.347924 366.772604)scale(0.1 -0.1)">
       <use xlink:href="#DejaVuSans-50"/>
       <use x="63.623047" xlink:href="#DejaVuSans-53"/>
       <use x="127.246094" xlink:href="#DejaVuSans-48"/>
      </g>
     </g>
    </g>
   </g>
   <g id="matplotlib.axis_2">
    <g id="ytick_1">
     <g id="line2d_7">
      <defs>
       <path d="M 0 0 
L -3.5 0 
" id="mf3ea9554cc" style="stroke:#000000;stroke-width:0.8;"/>
      </defs>
      <g>
       <use style="stroke:#000000;stroke-width:0.8;" x="66.158594" xlink:href="#mf3ea9554cc" y="352.174167"/>
      </g>
     </g>
     <g id="text_7">
      <!-- 0 -->
      <g transform="translate(52.796094 355.973385)scale(0.1 -0.1)">
       <use xlink:href="#DejaVuSans-48"/>
      </g>
     </g>
    </g>
    <g id="ytick_2">
     <g id="line2d_8">
      <g>
       <use style="stroke:#000000;stroke-width:0.8;" x="66.158594" xlink:href="#mf3ea9554cc" y="311.608837"/>
      </g>
     </g>
     <g id="text_8">
      <!-- 10 -->
      <g transform="translate(46.433594 315.408055)scale(0.1 -0.1)">
       <use xlink:href="#DejaVuSans-49"/>
       <use x="63.623047" xlink:href="#DejaVuSans-48"/>
      </g>
     </g>
    </g>
    <g id="ytick_3">
     <g id="line2d_9">
      <g>
       <use style="stroke:#000000;stroke-width:0.8;" x="66.158594" xlink:href="#mf3ea9554cc" y="271.043507"/>
      </g>
     </g>
     <g id="text_9">
      <!-- 20 -->
      <g transform="translate(46.433594 274.842725)scale(0.1 -0.1)">
       <use xlink:href="#DejaVuSans-50"/>
       <use x="63.623047" xlink:href="#DejaVuSans-48"/>
      </g>
     </g>
    </g>
    <g id="ytick_4">
     <g id="line2d_10">
      <g>
       <use style="stroke:#000000;stroke-width:0.8;" x="66.158594" xlink:href="#mf3ea9554cc" y="230.478177"/>
      </g>
     </g>
     <g id="text_10">
      <!-- 30 -->
      <defs>
       <path d="M 40.578125 39.3125 
Q 47.65625 37.796875 51.625 33 
Q 55.609375 28.21875 55.609375 21.1875 
Q 55.609375 10.40625 48.1875 4.484375 
Q 40.765625 -1.421875 27.09375 -1.421875 
Q 22.515625 -1.421875 17.65625 -0.515625 
Q 12.796875 0.390625 7.625 2.203125 
L 7.625 11.71875 
Q 11.71875 9.328125 16.59375 8.109375 
Q 21.484375 6.890625 26.8125 6.890625 
Q 36.078125 6.890625 40.9375 10.546875 
Q 45.796875 14.203125 45.796875 21.1875 
Q 45.796875 27.640625 41.28125 31.265625 
Q 36.765625 34.90625 28.71875 34.90625 
L 20.21875 34.90625 
L 20.21875 43.015625 
L 29.109375 43.015625 
Q 36.375 43.015625 40.234375 45.921875 
Q 44.09375 48.828125 44.09375 54.296875 
Q 44.09375 59.90625 40.109375 62.90625 
Q 36.140625 65.921875 28.71875 65.921875 
Q 24.65625 65.921875 20.015625 65.03125 
Q 15.375 64.15625 9.8125 62.3125 
L 9.8125 71.09375 
Q 15.4375 72.65625 20.34375 73.4375 
Q 25.25 74.21875 29.59375 74.21875 
Q 40.828125 74.21875 47.359375 69.109375 
Q 53.90625 64.015625 53.90625 55.328125 
Q 53.90625 49.265625 50.4375 45.09375 
Q 46.96875 40.921875 40.578125 39.3125 
z
" id="DejaVuSans-51"/>
      </defs>
      <g transform="translate(46.433594 234.277395)scale(0.1 -0.1)">
       <use xlink:href="#DejaVuSans-51"/>
       <use x="63.623047" xlink:href="#DejaVuSans-48"/>
      </g>
     </g>
    </g>
    <g id="ytick_5">
     <g id="line2d_11">
      <g>
       <use style="stroke:#000000;stroke-width:0.8;" x="66.158594" xlink:href="#mf3ea9554cc" y="189.912846"/>
      </g>
     </g>
     <g id="text_11">
      <!-- 40 -->
      <defs>
       <path d="M 37.796875 64.3125 
L 12.890625 25.390625 
L 37.796875 25.390625 
z
M 35.203125 72.90625 
L 47.609375 72.90625 
L 47.609375 25.390625 
L 58.015625 25.390625 
L 58.015625 17.1875 
L 47.609375 17.1875 
L 47.609375 0 
L 37.796875 0 
L 37.796875 17.1875 
L 4.890625 17.1875 
L 4.890625 26.703125 
z
" id="DejaVuSans-52"/>
      </defs>
      <g transform="translate(46.433594 193.712065)scale(0.1 -0.1)">
       <use xlink:href="#DejaVuSans-52"/>
       <use x="63.623047" xlink:href="#DejaVuSans-48"/>
      </g>
     </g>
    </g>
    <g id="ytick_6">
     <g id="line2d_12">
      <g>
       <use style="stroke:#000000;stroke-width:0.8;" x="66.158594" xlink:href="#mf3ea9554cc" y="149.347516"/>
      </g>
     </g>
     <g id="text_12">
      <!-- 50 -->
      <g transform="translate(46.433594 153.146735)scale(0.1 -0.1)">
       <use xlink:href="#DejaVuSans-53"/>
       <use x="63.623047" xlink:href="#DejaVuSans-48"/>
      </g>
     </g>
    </g>
    <g id="ytick_7">
     <g id="line2d_13">
      <g>
       <use style="stroke:#000000;stroke-width:0.8;" x="66.158594" xlink:href="#mf3ea9554cc" y="108.782186"/>
      </g>
     </g>
     <g id="text_13">
      <!-- 60 -->
      <defs>
       <path d="M 33.015625 40.375 
Q 26.375 40.375 22.484375 35.828125 
Q 18.609375 31.296875 18.609375 23.390625 
Q 18.609375 15.53125 22.484375 10.953125 
Q 26.375 6.390625 33.015625 6.390625 
Q 39.65625 6.390625 43.53125 10.953125 
Q 47.40625 15.53125 47.40625 23.390625 
Q 47.40625 31.296875 43.53125 35.828125 
Q 39.65625 40.375 33.015625 40.375 
z
M 52.59375 71.296875 
L 52.59375 62.3125 
Q 48.875 64.0625 45.09375 64.984375 
Q 41.3125 65.921875 37.59375 65.921875 
Q 27.828125 65.921875 22.671875 59.328125 
Q 17.53125 52.734375 16.796875 39.40625 
Q 19.671875 43.65625 24.015625 45.921875 
Q 28.375 48.1875 33.59375 48.1875 
Q 44.578125 48.1875 50.953125 41.515625 
Q 57.328125 34.859375 57.328125 23.390625 
Q 57.328125 12.15625 50.6875 5.359375 
Q 44.046875 -1.421875 33.015625 -1.421875 
Q 20.359375 -1.421875 13.671875 8.265625 
Q 6.984375 17.96875 6.984375 36.375 
Q 6.984375 53.65625 15.1875 63.9375 
Q 23.390625 74.21875 37.203125 74.21875 
Q 40.921875 74.21875 44.703125 73.484375 
Q 48.484375 72.75 52.59375 71.296875 
z
" id="DejaVuSans-54"/>
      </defs>
      <g transform="translate(46.433594 112.581405)scale(0.1 -0.1)">
       <use xlink:href="#DejaVuSans-54"/>
       <use x="63.623047" xlink:href="#DejaVuSans-48"/>
      </g>
     </g>
    </g>
    <g id="ytick_8">
     <g id="line2d_14">
      <g>
       <use style="stroke:#000000;stroke-width:0.8;" x="66.158594" xlink:href="#mf3ea9554cc" y="68.216856"/>
      </g>
     </g>
     <g id="text_14">
      <!-- 70 -->
      <defs>
       <path d="M 8.203125 72.90625 
L 55.078125 72.90625 
L 55.078125 68.703125 
L 28.609375 0 
L 18.3125 0 
L 43.21875 64.59375 
L 8.203125 64.59375 
z
" id="DejaVuSans-55"/>
      </defs>
      <g transform="translate(46.433594 72.016075)scale(0.1 -0.1)">
       <use xlink:href="#DejaVuSans-55"/>
       <use x="63.623047" xlink:href="#DejaVuSans-48"/>
      </g>
     </g>
    </g>
    <g id="text_15">
     <!-- droprate -->
     <defs>
      <path d="M 45.40625 46.390625 
L 45.40625 75.984375 
L 54.390625 75.984375 
L 54.390625 0 
L 45.40625 0 
L 45.40625 8.203125 
Q 42.578125 3.328125 38.25 0.953125 
Q 33.9375 -1.421875 27.875 -1.421875 
Q 17.96875 -1.421875 11.734375 6.484375 
Q 5.515625 14.40625 5.515625 27.296875 
Q 5.515625 40.1875 11.734375 48.09375 
Q 17.96875 56 27.875 56 
Q 33.9375 56 38.25 53.625 
Q 42.578125 51.265625 45.40625 46.390625 
z
M 14.796875 27.296875 
Q 14.796875 17.390625 18.875 11.75 
Q 22.953125 6.109375 30.078125 6.109375 
Q 37.203125 6.109375 41.296875 11.75 
Q 45.40625 17.390625 45.40625 27.296875 
Q 45.40625 37.203125 41.296875 42.84375 
Q 37.203125 48.484375 30.078125 48.484375 
Q 22.953125 48.484375 18.875 42.84375 
Q 14.796875 37.203125 14.796875 27.296875 
z
" id="DejaVuSans-100"/>
      <path d="M 41.109375 46.296875 
Q 39.59375 47.171875 37.8125 47.578125 
Q 36.03125 48 33.890625 48 
Q 26.265625 48 22.1875 43.046875 
Q 18.109375 38.09375 18.109375 28.8125 
L 18.109375 0 
L 9.078125 0 
L 9.078125 54.6875 
L 18.109375 54.6875 
L 18.109375 46.1875 
Q 20.953125 51.171875 25.484375 53.578125 
Q 30.03125 56 36.53125 56 
Q 37.453125 56 38.578125 55.875 
Q 39.703125 55.765625 41.0625 55.515625 
z
" id="DejaVuSans-114"/>
      <path d="M 30.609375 48.390625 
Q 23.390625 48.390625 19.1875 42.75 
Q 14.984375 37.109375 14.984375 27.296875 
Q 14.984375 17.484375 19.15625 11.84375 
Q 23.34375 6.203125 30.609375 6.203125 
Q 37.796875 6.203125 41.984375 11.859375 
Q 46.1875 17.53125 46.1875 27.296875 
Q 46.1875 37.015625 41.984375 42.703125 
Q 37.796875 48.390625 30.609375 48.390625 
z
M 30.609375 56 
Q 42.328125 56 49.015625 48.375 
Q 55.71875 40.765625 55.71875 27.296875 
Q 55.71875 13.875 49.015625 6.21875 
Q 42.328125 -1.421875 30.609375 -1.421875 
Q 18.84375 -1.421875 12.171875 6.21875 
Q 5.515625 13.875 5.515625 27.296875 
Q 5.515625 40.765625 12.171875 48.375 
Q 18.84375 56 30.609375 56 
z
" id="DejaVuSans-111"/>
      <path d="M 18.109375 8.203125 
L 18.109375 -20.796875 
L 9.078125 -20.796875 
L 9.078125 54.6875 
L 18.109375 54.6875 
L 18.109375 46.390625 
Q 20.953125 51.265625 25.265625 53.625 
Q 29.59375 56 35.59375 56 
Q 45.5625 56 51.78125 48.09375 
Q 58.015625 40.1875 58.015625 27.296875 
Q 58.015625 14.40625 51.78125 6.484375 
Q 45.5625 -1.421875 35.59375 -1.421875 
Q 29.59375 -1.421875 25.265625 0.953125 
Q 20.953125 3.328125 18.109375 8.203125 
z
M 48.6875 27.296875 
Q 48.6875 37.203125 44.609375 42.84375 
Q 40.53125 48.484375 33.40625 48.484375 
Q 26.265625 48.484375 22.1875 42.84375 
Q 18.109375 37.203125 18.109375 27.296875 
Q 18.109375 17.390625 22.1875 11.75 
Q 26.265625 6.109375 33.40625 6.109375 
Q 40.53125 6.109375 44.609375 11.75 
Q 48.6875 17.390625 48.6875 27.296875 
z
" id="DejaVuSans-112"/>
      <path d="M 34.28125 27.484375 
Q 23.390625 27.484375 19.1875 25 
Q 14.984375 22.515625 14.984375 16.5 
Q 14.984375 11.71875 18.140625 8.90625 
Q 21.296875 6.109375 26.703125 6.109375 
Q 34.1875 6.109375 38.703125 11.40625 
Q 43.21875 16.703125 43.21875 25.484375 
L 43.21875 27.484375 
z
M 52.203125 31.203125 
L 52.203125 0 
L 43.21875 0 
L 43.21875 8.296875 
Q 40.140625 3.328125 35.546875 0.953125 
Q 30.953125 -1.421875 24.3125 -1.421875 
Q 15.921875 -1.421875 10.953125 3.296875 
Q 6 8.015625 6 15.921875 
Q 6 25.140625 12.171875 29.828125 
Q 18.359375 34.515625 30.609375 34.515625 
L 43.21875 34.515625 
L 43.21875 35.40625 
Q 43.21875 41.609375 39.140625 45 
Q 35.0625 48.390625 27.6875 48.390625 
Q 23 48.390625 18.546875 47.265625 
Q 14.109375 46.140625 10.015625 43.890625 
L 10.015625 52.203125 
Q 14.9375 54.109375 19.578125 55.046875 
Q 24.21875 56 28.609375 56 
Q 40.484375 56 46.34375 49.84375 
Q 52.203125 43.703125 52.203125 31.203125 
z
" id="DejaVuSans-97"/>
      <path d="M 18.3125 70.21875 
L 18.3125 54.6875 
L 36.8125 54.6875 
L 36.8125 47.703125 
L 18.3125 47.703125 
L 18.3125 18.015625 
Q 18.3125 11.328125 20.140625 9.421875 
Q 21.96875 7.515625 27.59375 7.515625 
L 36.8125 7.515625 
L 36.8125 0 
L 27.59375 0 
Q 17.1875 0 13.234375 3.875 
Q 9.28125 7.765625 9.28125 18.015625 
L 9.28125 47.703125 
L 2.6875 47.703125 
L 2.6875 54.6875 
L 9.28125 54.6875 
L 9.28125 70.21875 
z
" id="DejaVuSans-116"/>
      <path d="M 56.203125 29.59375 
L 56.203125 25.203125 
L 14.890625 25.203125 
Q 15.484375 15.921875 20.484375 11.0625 
Q 25.484375 6.203125 34.421875 6.203125 
Q 39.59375 6.203125 44.453125 7.46875 
Q 49.3125 8.734375 54.109375 11.28125 
L 54.109375 2.78125 
Q 49.265625 0.734375 44.1875 -0.34375 
Q 39.109375 -1.421875 33.890625 -1.421875 
Q 20.796875 -1.421875 13.15625 6.1875 
Q 5.515625 13.8125 5.515625 26.8125 
Q 5.515625 40.234375 12.765625 48.109375 
Q 20.015625 56 32.328125 56 
Q 43.359375 56 49.78125 48.890625 
Q 56.203125 41.796875 56.203125 29.59375 
z
M 47.21875 32.234375 
Q 47.125 39.59375 43.09375 43.984375 
Q 39.0625 48.390625 32.421875 48.390625 
Q 24.90625 48.390625 20.390625 44.140625 
Q 15.875 39.890625 15.1875 32.171875 
z
" id="DejaVuSans-101"/>
     </defs>
     <g transform="translate(40.353906 215.236302)rotate(-90)scale(0.1 -0.1)">
      <use xlink:href="#DejaVuSans-100"/>
      <use x="63.476562" xlink:href="#DejaVuSans-114"/>
      <use x="104.558594" xlink:href="#DejaVuSans-111"/>
      <use x="165.740234" xlink:href="#DejaVuSans-112"/>
      <use x="229.216797" xlink:href="#DejaVuSans-114"/>
      <use x="270.330078" xlink:href="#DejaVuSans-97"/>
      <use x="331.609375" xlink:href="#DejaVuSans-116"/>
      <use x="370.818359" xlink:href="#DejaVuSans-101"/>
     </g>
    </g>
   </g>
   <g id="line2d_15">
    <path clip-path="url(#p1d376c0117)" d="M 86.606804 352.174167 
L 91.339363 352.174167 
L 91.495778 50.163056 
L 91.947148 352.174167 
L 93.780343 352.174167 
L 93.930731 338.14581 
L 94.081 352.174167 
L 94.231166 265.827964 
L 94.38119 287.083666 
L 94.530719 247.26383 
L 94.680196 296.725154 
L 94.979191 309.044362 
L 95.128404 352.174167 
L 95.277585 325.870999 
L 95.427009 352.174167 
L 95.576589 326.492519 
L 95.727537 352.174167 
L 95.880135 328.682944 
L 96.031482 347.577529 
L 96.183388 334.362195 
L 96.339931 349.846171 
L 96.642251 335.64099 
L 96.799116 349.932988 
L 96.949823 317.285617 
L 97.100412 331.891502 
L 97.250682 333.023152 
L 97.401078 326.675959 
L 97.550644 339.351792 
L 97.700463 328.860759 
L 97.850493 342.99649 
L 98.000272 327.14821 
L 98.151846 341.420471 
L 98.455581 336.085934 
L 98.608979 345.924606 
L 98.764754 323.57415 
L 98.915476 352.174167 
L 99.071846 322.948425 
L 99.222083 352.174167 
L 99.373804 316.977777 
L 99.524289 352.174167 
L 99.980129 279.957724 
L 100.284218 308.118731 
L 100.437336 339.070198 
L 100.588579 334.887804 
L 100.742832 340.293108 
L 100.89311 320.301407 
L 101.043329 348.11183 
L 101.19324 334.714197 
L 101.346544 337.360984 
L 101.497895 346.995614 
L 101.649299 326.207739 
L 101.798839 328.346394 
L 101.953915 309.176048 
L 102.104645 315.244136 
L 102.262932 296.202878 
L 102.415672 304.450249 
L 102.565859 320.25581 
L 102.71897 315.608235 
L 102.870369 316.499692 
L 103.025686 318.41661 
L 103.176703 329.701896 
L 103.332548 323.519986 
L 103.483071 306.458602 
L 103.634309 318.225876 
L 103.784075 293.392268 
L 103.937155 328.782064 
L 104.087322 282.534115 
L 104.246604 333.409252 
L 104.397765 304.045809 
L 104.555465 335.04167 
L 104.706687 312.93601 
L 104.857465 326.133655 
L 105.008183 302.986534 
L 105.157528 325.363747 
L 105.311173 312.180179 
L 105.462271 331.401025 
L 105.611791 315.61314 
L 105.762378 339.406824 
L 105.912518 313.068021 
L 106.062618 351.016811 
L 106.212217 324.741497 
L 106.36172 352.174167 
L 106.511898 326.002986 
L 106.663687 346.995614 
L 106.813795 317.836226 
L 107.114304 343.506361 
L 107.26964 330.20128 
L 107.420099 330.823993 
L 107.572036 292.333112 
L 107.723754 325.743498 
L 107.874422 288.610259 
L 108.024006 318.904759 
L 108.173516 300.884669 
L 108.327513 349.941213 
L 108.481685 352.174167 
L 108.6385 326.32922 
L 108.792357 352.174167 
L 109.098971 308.626092 
L 109.248388 259.768902 
L 109.549576 274.605901 
L 109.69911 342.251712 
L 109.850331 332.527141 
L 110.000401 352.174167 
L 110.150521 326.566211 
L 110.300906 352.174167 
L 110.450566 325.908845 
L 110.599945 352.174167 
L 110.74938 327.659866 
L 110.898749 352.174167 
L 111.048625 325.402213 
L 111.198114 352.174167 
L 111.349766 326.784771 
L 111.499865 352.174167 
L 111.649523 327.695088 
L 111.801502 352.174167 
L 111.951206 328.346394 
L 112.10177 348.034847 
L 112.253154 321.634927 
L 112.404649 324.476644 
L 112.554922 309.870322 
L 112.705818 346.958624 
L 112.856235 333.050511 
L 113.00683 351.593833 
L 113.156749 323.697073 
L 113.306902 351.592168 
L 113.456354 319.000224 
L 113.606883 339.425063 
L 113.757616 329.027045 
L 113.909163 338.325405 
L 114.060221 338.921289 
L 114.210201 333.550199 
L 114.362734 341.052359 
L 114.512957 331.891502 
L 114.663896 341.179284 
L 114.814472 321.416477 
L 114.965105 352.174167 
L 115.115768 315.138773 
L 115.267365 352.174167 
L 115.419409 318.273962 
L 115.570157 352.174167 
L 115.72131 315.924297 
L 115.872234 352.174167 
L 116.023636 324.515987 
L 116.175192 352.174167 
L 116.327423 318.032163 
L 116.477611 352.174167 
L 116.632117 320.882538 
L 116.783803 352.174167 
L 116.935353 319.86039 
L 117.089554 352.174167 
L 117.23955 319.095142 
L 117.3901 352.174167 
L 117.543281 327.035089 
L 117.696322 345.871644 
L 117.846999 346.387386 
L 117.99738 326.320694 
L 118.147855 352.174167 
L 118.298152 322.277753 
L 118.44882 352.174167 
L 118.600899 319.721903 
L 118.750525 352.174167 
L 118.901029 330.640204 
L 119.051451 352.174167 
L 119.205413 326.03964 
L 119.355793 344.349993 
L 119.657305 332.386201 
L 119.808812 344.107198 
L 119.95959 319.768197 
L 120.11017 319.768197 
L 120.411106 335.948035 
L 120.561522 331.831671 
L 120.712011 344.629828 
L 120.862845 322.039921 
L 121.015548 343.032684 
L 121.165732 327.834969 
L 121.316433 352.174167 
L 121.471089 315.244136 
L 121.628786 351.619995 
L 121.77821 317.983388 
L 121.927516 352.174167 
L 122.079461 318.801271 
L 122.229412 352.174167 
L 122.379507 318.1636 
L 122.529246 352.174167 
L 122.678982 328.793573 
L 122.829188 352.174167 
L 122.978862 316.038384 
L 123.129212 352.174167 
L 123.279244 338.044008 
L 123.434473 352.174167 
L 123.592107 352.174167 
L 123.750131 343.058362 
L 124.049992 207.090726 
L 124.349869 243.922353 
L 124.499759 352.174167 
L 124.962917 352.174167 
L 125.112751 345.200184 
L 125.267906 349.920537 
L 125.56829 339.425063 
L 126.028772 352.174167 
L 126.182813 343.121931 
L 126.334653 352.174167 
L 126.485477 341.7728 
L 126.635043 350.425661 
L 126.787489 310.12835 
L 126.937619 344.084215 
L 127.088694 323.899612 
L 127.237837 352.174167 
L 127.387111 316.433788 
L 127.543093 352.174167 
L 127.698459 320.579473 
L 127.856178 352.174167 
L 128.010138 322.380421 
L 128.160954 352.174167 
L 128.312567 318.904759 
L 128.462752 352.174167 
L 128.612273 322.779 
L 128.761783 352.174167 
L 128.91099 324.62257 
L 129.060187 350.954157 
L 129.216823 338.166801 
L 129.373184 339.830636 
L 129.522712 346.370829 
L 129.674023 328.448367 
L 129.825123 352.174167 
L 129.977241 325.870999 
L 130.127128 352.174167 
L 130.278209 321.416477 
L 130.428938 352.174167 
L 130.582751 323.885931 
L 130.734776 352.174167 
L 130.886436 320.616979 
L 131.036758 352.174167 
L 131.188598 332.063876 
L 131.340018 340.872975 
L 131.490763 324.437189 
L 131.641868 349.128721 
L 131.794008 333.813621 
L 131.94511 352.174167 
L 132.098109 323.607033 
L 132.249271 352.174167 
L 132.402824 318.942682 
L 132.557589 352.174167 
L 132.709381 320.661552 
L 132.862686 352.174167 
L 133.013151 330.701817 
L 133.163986 341.637717 
L 133.314674 341.757962 
L 133.469816 329.83384 
L 133.620584 352.174167 
L 133.772027 318.272306 
L 133.922676 352.174167 
L 134.072864 321.883803 
L 134.222983 352.174167 
L 134.3734 321.416477 
L 134.528368 352.174167 
L 134.679332 317.075087 
L 134.832916 352.174167 
L 134.983926 315.244136 
L 135.138378 352.174167 
L 135.288562 323.818943 
L 135.437985 352.174167 
L 135.5881 324.238215 
L 135.742274 344.095723 
L 135.892735 330.763079 
L 136.04454 343.530986 
L 136.198146 340.827221 
L 136.348413 333.050511 
L 136.49846 341.713193 
L 136.65018 329.605723 
L 136.801208 352.174167 
L 136.959045 320.148906 
L 137.113461 352.174167 
L 137.264544 328.209058 
L 137.415002 352.174167 
L 137.565645 320.32287 
L 137.716518 352.174167 
L 137.867385 313.825849 
L 138.018224 352.174167 
L 138.169541 319.488433 
L 138.321268 352.174167 
L 138.471519 320.25581 
L 138.623073 352.174167 
L 138.773923 317.885421 
L 138.924373 352.174167 
L 139.077447 324.178376 
L 139.229086 352.174167 
L 139.37986 322.125774 
L 139.53138 352.174167 
L 139.682107 323.818943 
L 139.835553 352.174167 
L 139.986786 338.345077 
L 140.290919 347.484533 
L 140.441882 328.793573 
L 140.597651 352.174167 
L 140.752003 328.177774 
L 140.902944 352.174167 
L 141.054275 334.286183 
L 141.204714 352.174167 
L 141.363339 327.790635 
L 141.514932 345.308384 
L 141.665362 330.547118 
L 141.815653 329.54115 
L 141.971252 339.709959 
L 142.130716 326.4097 
L 142.281359 348.594873 
L 142.431761 343.46916 
L 142.582607 328.860759 
L 142.738433 352.174167 
L 142.888715 318.808744 
L 143.047907 352.174167 
L 143.20838 326.548219 
L 143.358668 352.174167 
L 143.508822 322.990476 
L 143.66398 352.174167 
L 143.814381 320.346875 
L 143.968884 352.174167 
L 144.120049 327.97326 
L 144.270226 352.174167 
L 144.420987 324.318146 
L 144.573173 352.174167 
L 144.725582 336.682456 
L 144.876034 339.756208 
L 145.026929 352.174167 
L 145.177225 327.679637 
L 145.334274 352.174167 
L 145.485524 327.219815 
L 145.643394 352.174167 
L 145.795439 327.432192 
L 145.948711 352.174167 
L 146.107198 326.577388 
L 146.263399 352.174167 
L 146.419545 324.313363 
L 146.571465 352.174167 
L 146.722689 326.244623 
L 146.879355 352.174167 
L 147.033454 327.070446 
L 147.185785 348.656942 
L 147.337073 332.638455 
L 147.637021 349.791475 
L 147.78787 329.603983 
L 147.940567 352.174167 
L 148.090827 323.440391 
L 148.245304 352.174167 
L 148.396347 352.174167 
L 148.547459 263.437507 
L 148.698746 276.475331 
L 149.000734 259.453412 
L 149.304289 352.174167 
L 149.759066 352.174167 
L 149.909881 345.23003 
L 150.060449 352.174167 
L 150.217084 343.769747 
L 150.377411 352.174167 
L 150.53021 338.557832 
L 150.682947 352.174167 
L 150.832559 346.936176 
L 150.983262 352.174167 
L 151.133492 351.593833 
L 151.286644 346.476789 
L 151.441993 352.174167 
L 151.593783 324.059581 
L 151.744726 352.174167 
L 151.898384 330.524131 
L 152.05528 344.373142 
L 152.208613 340.827221 
L 152.36254 341.976179 
L 152.51403 328.616397 
L 152.664297 335.344488 
L 152.814538 335.344488 
L 152.96465 329.508724 
L 153.122564 350.507098 
L 153.276407 320.015282 
L 153.427447 352.174167 
L 153.581706 323.806803 
L 153.731466 352.174167 
L 153.883959 321.850295 
L 154.03407 352.174167 
L 154.184176 319.095142 
L 154.333787 352.174167 
L 154.484271 320.25581 
L 154.634478 352.174167 
L 154.784773 319.675476 
L 154.934982 348.692164 
L 155.087875 335.58186 
L 155.389089 349.852832 
L 155.543269 328.139795 
L 155.692698 352.174167 
L 155.849175 320.037209 
L 156.00862 352.174167 
L 156.16762 320.885617 
L 156.326661 341.210564 
L 156.478717 321.72144 
L 156.792541 333.193063 
L 156.943532 275.313541 
L 157.093166 320.701066 
L 157.243108 295.138265 
L 157.394828 338.940087 
L 157.545237 316.824379 
L 157.695924 352.174167 
L 157.851778 318.463366 
L 158.002594 352.174167 
L 158.155393 317.941821 
L 158.308618 352.174167 
L 158.459123 320.25581 
L 158.608971 352.174167 
L 158.765169 338.576849 
L 158.922883 336.482707 
L 159.072403 352.174167 
L 159.224613 319.671899 
L 159.376145 352.174167 
L 159.530793 318.573366 
L 159.68179 352.174167 
L 159.8346 321.239455 
L 159.984802 352.174167 
L 160.137997 315.608235 
L 160.288526 352.174167 
L 160.440837 321.190746 
L 160.590299 352.174167 
L 160.739853 320.701066 
L 160.889307 352.174167 
L 161.042901 323.727231 
L 161.195352 352.174167 
L 161.345654 325.247685 
L 161.500643 350.394986 
L 161.650547 337.519062 
L 161.805808 349.187029 
L 162.110613 330.70505 
L 162.264155 345.375508 
L 162.413821 329.508724 
L 162.564153 348.692164 
L 162.715619 322.787351 
L 162.865784 352.174167 
L 163.015739 324.820214 
L 163.167773 352.174167 
L 163.319965 322.650637 
L 163.477366 352.174167 
L 163.628459 325.630707 
L 163.781142 352.174167 
L 163.931678 323.281481 
L 164.081436 352.174167 
L 164.233201 324.515987 
L 164.383353 352.174167 
L 164.535794 320.616979 
L 164.687847 352.174167 
L 164.838564 321.504231 
L 164.98986 352.174167 
L 165.14078 322.661587 
L 165.291981 352.174167 
L 165.443891 322.829034 
L 165.594872 352.174167 
L 165.745934 321.54792 
L 165.896973 352.174167 
L 166.047843 330.215726 
L 166.203812 344.808953 
L 166.355464 337.171342 
L 166.510053 335.36853 
L 166.668159 352.174167 
L 166.822163 325.325171 
L 166.972548 352.174167 
L 167.124873 320.463805 
L 167.275002 352.174167 
L 167.425431 321.910219 
L 167.575777 352.174167 
L 167.726016 318.369725 
L 167.876604 352.174167 
L 168.027912 319.768197 
L 168.180624 352.174167 
L 168.336335 318.090349 
L 168.486729 352.174167 
L 168.638364 324.476644 
L 168.791356 352.174167 
L 168.942406 323.445179 
L 169.092911 350.368588 
L 169.243913 335.392504 
L 169.550235 341.194946 
L 169.707002 333.555865 
L 169.858051 350.450427 
L 170.014407 325.321061 
L 170.168681 352.174167 
L 170.321391 325.630707 
L 170.479561 352.174167 
L 170.63174 329.637872 
L 170.783698 352.174167 
L 170.935215 322.703628 
L 171.085455 352.174167 
L 171.238759 318.559638 
L 171.392018 352.174167 
L 171.542378 323.240265 
L 171.692623 352.174167 
L 171.845081 316.077898 
L 171.9975 352.174167 
L 172.147363 319.582223 
L 172.299955 352.174167 
L 172.45109 333.761535 
L 172.600798 352.174167 
L 172.751196 323.737812 
L 172.903801 352.174167 
L 173.054966 325.053676 
L 173.20553 327.255464 
L 173.356186 312.245382 
L 173.506698 345.799615 
L 173.657181 316.773807 
L 173.808639 339.515482 
L 173.958573 298.706969 
L 174.109743 323.281481 
L 174.26081 296.779121 
L 174.411149 325.478814 
L 174.562387 300.818343 
L 174.721265 328.993978 
L 174.873093 321.893005 
L 175.023636 336.992531 
L 175.175802 315.401063 
L 175.325736 328.346394 
L 175.476024 324.318146 
L 175.626498 326.231223 
L 175.777108 318.032163 
L 175.927575 318.46828 
L 176.229929 253.501742 
L 176.380447 265.827964 
L 176.680937 352.174167 
L 176.831438 332.527141 
L 176.982878 350.443072 
L 177.437566 314.214989 
L 177.58705 317.836226 
L 177.73683 297.970493 
L 177.888551 297.43402 
L 178.192811 337.707216 
L 178.344992 304.045809 
L 178.495322 307.615958 
L 178.649033 291.212224 
L 178.802826 289.110418 
L 179.102457 333.550199 
L 179.258814 331.507696 
L 179.412665 325.01746 
L 179.566999 339.143404 
L 179.723636 313.061589 
L 179.874059 334.863215 
L 180.024597 314.560095 
L 180.174437 323.074217 
L 180.32443 301.540254 
L 180.476569 319.423121 
L 180.627615 307.679431 
L 180.780378 325.396491 
L 180.93221 312.471929 
L 181.082419 328.380482 
L 181.232333 312.073769 
L 181.382939 337.107044 
L 181.536833 310.131668 
L 181.687434 352.174167 
L 181.838779 318.129295 
L 181.991556 347.02483 
L 182.150169 325.130613 
L 182.303609 352.174167 
L 182.456216 352.174167 
L 182.610108 345.375508 
L 182.761326 212.154633 
L 182.912689 218.302807 
L 183.366073 352.174167 
L 183.82087 352.174167 
L 184.122931 346.973483 
L 184.273944 351.020103 
L 184.425014 346.387386 
L 184.575864 349.86604 
L 184.726627 348.117634 
L 184.878 352.174167 
L 185.028897 352.174167 
L 185.180529 342.941659 
L 185.333106 349.321471 
L 185.785799 315.296594 
L 185.939293 332.261312 
L 186.089622 322.125774 
L 186.240841 332.488051 
L 186.391248 308.711313 
L 186.542395 352.174167 
L 186.698903 352.174167 
L 187.002264 179.886756 
L 187.153184 190.144318 
L 187.304576 233.067453 
L 187.457504 317.893606 
L 187.609547 340.142077 
L 187.760452 330.763079 
L 188.223062 349.384254 
L 188.373393 327.255464 
L 188.523938 349.276643 
L 188.674286 327.800149 
L 188.824567 347.531497 
L 188.97479 329.86617 
L 189.124482 352.174167 
L 189.275951 329.733771 
L 189.433192 352.174167 
L 189.584016 323.363563 
L 189.735012 327.938834 
L 189.886233 339.479469 
L 190.036627 329.573483 
L 190.189007 336.085934 
L 190.339272 334.260702 
L 190.48965 336.482707 
L 190.641114 349.297193 
L 190.792456 322.449571 
L 190.942921 352.174167 
L 191.093484 317.885421 
L 191.243586 352.174167 
L 191.399564 317.699382 
L 191.550115 352.174167 
L 191.704011 322.170224 
L 191.855417 352.174167 
L 192.008989 324.711038 
L 192.162082 352.174167 
L 192.31366 320.482503 
L 192.468377 352.174167 
L 192.618842 327.938834 
L 192.770024 343.685159 
L 193.071845 334.224906 
L 193.222319 348.697138 
L 193.373804 321.058715 
L 193.524233 352.174167 
L 193.677763 318.129295 
L 193.831415 352.174167 
L 193.982518 319.768197 
L 194.136373 352.174167 
L 194.289796 319.423121 
L 194.441862 352.174167 
L 194.594065 320.088595 
L 194.747735 352.174167 
L 194.899482 320.705998 
L 195.054674 352.174167 
L 195.211862 324.945383 
L 195.365516 352.174167 
L 195.517061 319.90629 
L 195.667623 352.174167 
L 195.818522 318.610841 
L 195.969127 351.594662 
L 196.119848 331.891502 
L 196.272574 339.014751 
L 196.42407 327.397047 
L 196.726385 352.174167 
L 196.878343 311.473167 
L 197.036272 352.174167 
L 197.186171 352.174167 
L 197.342656 241.490371 
L 197.645375 288.395815 
L 197.795757 352.174167 
L 198.571892 352.174167 
L 198.877509 345.200184 
L 199.034355 351.056664 
L 199.336119 346.995614 
L 199.491636 351.047352 
L 199.642209 341.787596 
L 199.79371 349.297193 
L 199.94564 331.547728 
L 200.395859 319.675476 
L 200.549058 341.918887 
L 200.702553 311.836093 
L 200.85606 348.760534 
L 201.009478 321.451476 
L 201.160293 352.174167 
L 201.315402 317.047764 
L 201.466963 351.602018 
L 201.618286 318.706327 
L 201.767594 352.174167 
L 201.921495 318.610841 
L 202.072965 352.174167 
L 202.224519 320.791247 
L 202.378595 352.174167 
L 202.528989 321.54792 
L 202.685517 352.174167 
L 202.835925 322.829034 
L 202.990071 351.010169 
L 203.141823 336.726157 
L 203.296141 339.050089 
L 203.451563 347.039315 
L 203.601908 331.325612 
L 203.75269 348.129191 
L 203.903029 324.662327 
L 204.053411 352.174167 
L 204.204032 322.805602 
L 204.354403 352.174167 
L 204.504692 321.660423 
L 204.655055 352.174167 
L 204.804705 321.558823 
L 204.961289 352.174167 
L 205.11728 324.979532 
L 205.267812 352.174167 
L 205.418909 327.076193 
L 205.572763 352.174167 
L 205.871612 352.174167 
L 206.175528 236.435323 
L 206.325065 253.517427 
L 206.474766 257.754864 
L 206.77592 352.174167 
L 207.234937 352.174167 
L 207.393141 348.853676 
L 207.542825 342.902091 
L 207.694392 349.86604 
L 207.844608 347.538129 
L 207.995217 352.174167 
L 208.147228 337.298305 
L 208.751987 352.174167 
L 208.902055 352.174167 
L 209.052166 320.210081 
L 209.20393 352.174167 
L 209.35648 321.935594 
L 209.509704 352.174167 
L 209.66647 326.32922 
L 209.825012 352.174167 
L 209.974809 324.157824 
L 210.126599 352.174167 
L 210.277155 324.278238 
L 210.429105 352.174167 
L 210.579433 333.550199 
L 210.886339 346.602006 
L 211.046196 327.210887 
L 211.198669 329.985557 
L 211.350677 342.433904 
L 211.500823 339.70728 
L 211.655525 352.174167 
L 211.809178 352.174167 
L 211.964663 325.767373 
L 212.264385 213.459389 
L 212.415312 221.764998 
L 212.564743 240.692468 
L 212.864179 352.174167 
L 213.46738 352.174167 
L 213.617393 351.011836 
L 213.772194 348.202736 
L 213.922447 352.174167 
L 214.22366 346.980881 
L 214.373885 342.875524 
L 214.527049 341.918887 
L 214.676795 352.174167 
L 214.831755 327.869689 
L 214.98276 348.726688 
L 215.135182 317.124802 
L 215.285544 342.928507 
L 215.587848 291.499528 
L 215.889949 305.301246 
L 216.040739 318.080798 
L 216.192666 313.622718 
L 216.347135 318.180873 
L 216.499904 331.123434 
L 216.653521 332.233344 
L 216.805346 319.886277 
L 216.95897 328.378861 
L 217.109975 322.168517 
L 217.259552 321.823128 
L 217.561194 336.460194 
L 217.711662 327.904311 
L 217.86309 295.625058 
L 218.163884 288.917786 
L 218.315424 313.513041 
L 218.467046 307.868771 
L 218.618998 325.780883 
L 218.771132 312.640159 
L 218.924389 340.763385 
L 219.074747 333.104994 
L 219.375307 309.167943 
L 219.524874 325.908845 
L 219.675175 316.193473 
L 219.825639 294.14079 
L 219.975766 302.775126 
L 220.125877 286.502501 
L 220.432483 352.174167 
L 220.582658 352.174167 
L 220.732284 323.91385 
L 220.882638 348.646747 
L 221.033096 235.024291 
L 221.183648 248.442823 
L 221.333974 234.946746 
L 221.487658 274.120091 
L 221.641296 351.606819 
L 221.791573 352.174167 
L 222.39536 352.174167 
L 222.545033 343.444182 
L 222.695044 348.100174 
L 222.845666 348.12342 
L 222.995916 351.593001 
L 223.146466 339.425063 
L 223.302921 349.895216 
L 223.453327 351.597135 
L 223.603719 342.308493 
L 223.754096 325.478814 
L 223.904547 340.567491 
L 224.0585 327.210887 
L 224.212599 330.078526 
L 224.364702 318.942682 
L 224.516744 323.526335 
L 224.666114 316.621219 
L 224.817193 333.682848 
L 224.968937 317.318031 
L 225.120829 322.8706 
L 225.270633 332.9682 
L 225.722819 292.01372 
L 226.026366 329.416618 
L 226.327481 308.319756 
L 226.478685 329.092898 
L 226.632892 297.784897 
L 226.788111 328.543877 
L 226.937781 315.085865 
L 227.087316 347.511485 
L 227.237063 320.118231 
L 227.387106 335.901541 
L 227.53675 311.900674 
L 227.687179 323.737812 
L 227.994706 307.290958 
L 228.144268 313.817264 
L 228.295933 326.281403 
L 228.445289 321.779395 
L 228.595525 352.174167 
L 228.744902 317.737412 
L 228.8973 347.002949 
L 229.053627 324.198077 
L 229.203805 331.891502 
L 229.359202 349.923663 
L 229.509315 320.392213 
L 229.659444 349.255798 
L 229.959867 335.025558 
L 230.111785 352.174167 
L 230.265165 315.141211 
L 230.415575 352.174167 
L 230.567628 318.942682 
L 230.718413 342.928507 
L 230.871361 337.298305 
L 231.020929 338.226202 
L 231.321713 321.283901 
L 231.471275 343.431639 
L 231.621499 320.746221 
L 231.771135 321.866736 
L 231.921112 310.330273 
L 232.073197 329.733771 
L 232.22386 315.138773 
L 232.37836 319.405516 
L 232.530545 310.921289 
L 232.680641 323.198931 
L 232.832006 322.787351 
L 232.981765 332.35777 
L 233.136175 305.716666 
L 233.440339 290.728786 
L 233.594428 299.63133 
L 233.745947 319.952061 
L 233.897102 280.045201 
L 234.051576 334.610965 
L 234.201209 309.229468 
L 234.360089 352.174167 
L 234.510703 318.801271 
L 234.664158 336.221509 
L 234.816746 316.60061 
L 234.967372 352.174167 
L 235.120651 333.7074 
L 235.277493 352.174167 
L 235.432286 352.174167 
L 235.58387 330.884561 
L 235.73739 349.842826 
L 235.887515 230.710643 
L 236.038839 252.783329 
L 236.192328 230.250281 
L 236.49379 346.988258 
L 236.64389 351.593001 
L 236.794592 352.174167 
L 236.94417 352.174167 
L 237.243699 345.180144 
L 237.393707 343.431639 
L 237.543663 334.106275 
L 237.693552 336.482707 
L 237.998725 351.605228 
L 238.149898 349.862752 
L 238.302144 342.447642 
L 238.452632 350.435653 
L 238.602944 341.147825 
L 238.752734 343.444182 
L 238.902822 330.640204 
L 239.057852 352.174167 
L 239.208635 323.281481 
L 239.366695 346.888782 
L 239.524026 352.174167 
L 239.675006 306.668187 
L 239.82448 305.480262 
L 239.973885 298.476176 
L 240.276847 324.257015 
L 240.427313 316.925091 
L 240.579159 330.309166 
L 240.730081 321.54792 
L 240.881652 326.820835 
L 241.033017 317.601442 
L 241.190378 331.891502 
L 241.491091 320.164222 
L 241.643747 319.036291 
L 241.793814 322.619426 
L 241.945988 321.72144 
L 242.097965 326.318078 
L 242.247388 320.164222 
L 242.396878 334.89965 
L 242.546345 329.410888 
L 242.69567 346.921102 
L 242.845487 311.669292 
L 242.995385 352.174167 
L 243.145746 314.579989 
L 243.296327 352.174167 
L 243.447558 320.701066 
L 243.599413 352.174167 
L 243.749843 317.354141 
L 243.903411 352.174167 
L 244.058604 319.541862 
L 244.208496 352.174167 
L 244.357813 333.469692 
L 244.657757 352.174167 
L 244.807533 314.221941 
L 244.957134 352.174167 
L 245.109828 320.275613 
L 245.262358 352.174167 
L 245.414901 317.796768 
L 245.567165 352.174167 
L 245.716302 327.076193 
L 245.865862 352.174167 
L 246.014968 329.962603 
L 246.166953 338.883531 
L 246.319156 331.004671 
L 246.471107 334.961155 
L 246.620451 320.072107 
L 246.770312 352.174167 
L 246.919486 331.131632 
L 247.072169 352.174167 
L 247.221997 318.321085 
L 247.372254 352.174167 
L 247.521489 331.161909 
L 247.671179 344.014474 
L 247.821547 335.924821 
L 247.971843 337.665823 
L 248.122944 334.158046 
L 248.274644 292.333112 
L 248.424801 306.972799 
L 248.574756 298.04826 
L 249.032641 324.451696 
L 249.185827 322.547802 
L 249.340796 326.257428 
L 249.490021 324.278238 
L 249.640188 313.707043 
L 249.789428 315.402716 
L 249.942007 312.584241 
L 250.099604 303.34039 
L 250.550278 328.549472 
L 250.703752 328.84768 
L 250.853345 317.304255 
L 251.003045 324.198077 
L 251.303175 303.798845 
L 251.453789 306.393294 
L 251.606404 306.910592 
L 251.757119 310.5687 
L 251.910572 320.838589 
L 252.061171 345.817776 
L 252.214159 312.751522 
L 252.366551 326.391118 
L 252.517464 307.742724 
L 252.668454 304.280534 
L 253.124206 331.123434 
L 253.28232 321.717769 
L 253.440385 352.174167 
L 253.590508 327.361803 
L 253.892348 242.804019 
L 254.041723 253.234337 
L 254.345179 339.551292 
L 254.504979 329.088206 
L 254.806621 352.174167 
L 254.958557 328.616397 
L 255.109752 351.596313 
L 255.261838 320.13385 
L 255.41372 352.174167 
L 255.564586 330.763079 
L 255.715034 352.174167 
L 255.865808 325.51695 
L 256.0162 352.174167 
L 256.166291 323.074217 
L 256.317194 352.174167 
L 256.470448 325.358829 
L 256.623242 351.604429 
L 256.775056 338.940087 
L 256.9277 343.61608 
L 257.079432 315.401063 
L 257.231409 352.174167 
L 257.384249 320.268851 
L 257.535812 352.174167 
L 257.686681 319.283359 
L 257.836719 352.174167 
L 257.987879 316.975232 
L 258.140103 352.174167 
L 258.290885 316.874807 
L 258.443328 352.174167 
L 258.595041 318.273962 
L 258.749816 352.174167 
L 258.906314 326.436164 
L 259.056872 344.68341 
L 259.206756 346.354177 
L 259.356885 327.659866 
L 259.507986 352.174167 
L 259.658085 321.416477 
L 259.81179 352.174167 
L 259.964828 318.51236 
L 260.117381 352.174167 
L 260.26778 318.418225 
L 260.417831 352.174167 
L 260.568226 322.577145 
L 260.720437 352.174167 
L 260.872469 312.991746 
L 261.022677 352.174167 
L 261.174754 317.223812 
L 261.325155 352.174167 
L 261.47628 329.092898 
L 261.777486 347.511485 
L 261.93275 323.899612 
L 262.083443 352.174167 
L 262.234717 318.61504 
L 262.38586 352.174167 
L 262.537538 313.512195 
L 262.688303 352.174167 
L 262.840396 321.807465 
L 262.992156 352.174167 
L 263.143267 322.745549 
L 263.293315 342.798513 
L 263.444422 331.371433 
L 263.746646 344.026181 
L 263.897925 326.709799 
L 264.04837 352.174167 
L 264.198407 320.970067 
L 264.348245 352.174167 
L 264.498101 315.455549 
L 264.647916 352.174167 
L 264.801593 318.51236 
L 264.953829 352.174167 
L 265.103755 312.654934 
L 265.256073 352.174167 
L 265.409384 319.129375 
L 265.560431 352.174167 
L 265.711323 320.392213 
L 265.862431 349.21751 
L 266.164696 333.73538 
L 266.31568 346.958624 
L 266.466154 329.027045 
L 266.616664 352.174167 
L 266.767264 320.925553 
L 266.920654 352.174167 
L 267.071459 320.970067 
L 267.223249 347.596979 
L 267.378038 330.79358 
L 267.531123 349.329473 
L 267.684253 322.630789 
L 267.835592 341.787596 
L 267.986651 315.19153 
L 268.140175 352.174167 
L 268.289641 332.295291 
L 268.442079 352.174167 
L 268.592394 326.712333 
L 268.743028 340.584072 
L 268.895297 343.567661 
L 269.048142 329.860374 
L 269.203081 352.174167 
L 269.356506 317.468905 
L 269.507011 352.174167 
L 269.656827 318.369725 
L 269.814002 352.174167 
L 269.964178 318.032163 
L 270.115896 352.174167 
L 270.267673 321.72144 
L 270.418434 352.174167 
L 270.568816 319.189519 
L 270.719107 351.590493 
L 270.869346 324.859403 
L 271.02179 342.993894 
L 271.174948 324.217751 
L 271.326438 350.452866 
L 271.478583 320.043212 
L 271.628879 352.174167 
L 271.780561 323.404429 
L 271.936743 347.117547 
L 272.087265 318.177654 
L 272.23677 341.100298 
L 272.387247 331.862485 
L 272.537563 350.433165 
L 272.68903 320.164222 
L 272.841693 352.174167 
L 272.992173 319.236506 
L 273.14465 352.174167 
L 273.294463 320.836143 
L 273.444842 352.174167 
L 273.594374 319.650943 
L 273.748033 352.174167 
L 273.897572 324.238215 
L 274.052882 352.174167 
L 274.207894 323.480244 
L 274.358622 352.174167 
L 274.514928 323.964619 
L 274.665367 352.174167 
L 274.816074 328.414473 
L 274.966289 344.629828 
L 275.116821 344.640605 
L 275.26716 328.73642 
L 275.419019 352.174167 
L 275.569289 320.148906 
L 275.723623 352.174167 
L 275.873425 323.198931 
L 276.023849 352.174167 
L 276.174327 320.210081 
L 276.32671 352.174167 
L 276.479886 318.559638 
L 276.633518 352.174167 
L 276.787912 321.665423 
L 276.937127 352.174167 
L 277.08763 324.859403 
L 277.238019 352.174167 
L 277.388422 317.354141 
L 277.538983 352.174167 
L 277.697126 352.174167 
L 277.85661 339.197775 
L 278.006956 253.517427 
L 278.15653 259.37003 
L 278.464517 339.727343 
L 278.619276 352.174167 
L 278.769653 338.921289 
L 278.919962 346.951163 
L 279.219222 337.603287 
L 279.369491 337.063872 
L 279.520031 346.958624 
L 279.672976 345.308384 
L 279.822221 306.778245 
L 279.972796 313.347351 
L 280.125151 302.256434 
L 280.276862 301.682667 
L 280.428259 315.821168 
L 280.577901 312.598235 
L 280.729112 333.077792 
L 280.879668 320.970067 
L 281.029968 326.021733 
L 281.184466 321.013648 
L 281.334992 334.286183 
L 281.484558 330.578236 
L 281.634205 352.174167 
L 281.784962 321.504231 
L 281.935408 352.174167 
L 282.08578 319.095142 
L 282.237516 349.86604 
L 282.387997 338.864572 
L 282.541026 336.747914 
L 282.694264 315.141211 
L 282.846177 347.571009 
L 282.997122 333.18614 
L 283.150875 348.186002 
L 283.307614 327.467238 
L 283.458545 352.174167 
L 283.608817 323.778436 
L 283.762855 352.174167 
L 283.914282 319.698284 
L 284.065396 352.174167 
L 284.216396 316.824379 
L 284.369718 352.174167 
L 284.520412 325.668411 
L 284.679002 352.174167 
L 284.829957 317.650482 
L 284.981907 352.174167 
L 285.134393 324.099291 
L 285.285303 352.174167 
L 285.434812 321.283901 
L 285.585422 352.174167 
L 285.736397 322.082909 
L 285.886887 352.174167 
L 286.038776 321.14686 
L 286.191089 352.174167 
L 286.34225 319.768197 
L 286.491648 352.174167 
L 286.643694 335.487719 
L 286.797509 340.192846 
L 286.94876 331.518553 
L 287.100599 338.940087 
L 287.257622 325.427795 
L 287.410955 347.609854 
L 287.56218 343.456689 
L 287.713511 334.588041 
L 287.863121 352.174167 
L 288.013212 323.697073 
L 288.16497 352.174167 
L 288.314618 325.363747 
L 288.464486 352.174167 
L 288.616144 324.019759 
L 288.770244 352.174167 
L 288.921088 323.818943 
L 289.07425 352.174167 
L 289.230931 325.354114 
L 289.380511 350.435653 
L 289.53049 326.529418 
L 289.682062 349.301268 
L 289.831908 318.369725 
L 289.982522 352.174167 
L 290.134822 325.892404 
L 290.284715 352.174167 
L 290.434884 327.219815 
L 290.584804 338.226202 
L 290.735286 335.344488 
L 290.886575 338.864572 
L 291.037292 346.966064 
L 291.193312 323.519986 
L 291.346019 351.034691 
L 291.497117 320.970067 
L 291.652869 352.174167 
L 291.803246 319.283359 
L 291.954347 351.596313 
L 292.109435 318.737736 
L 292.267009 352.174167 
L 292.416547 352.174167 
L 292.566381 264.418223 
L 292.715928 262.872073 
L 292.867417 253.641902 
L 293.017183 352.174167 
L 293.779814 352.174167 
L 293.930927 342.941659 
L 294.080775 346.936176 
L 294.232726 346.428369 
L 294.384825 341.210564 
L 294.535161 345.210162 
L 294.689898 342.542734 
L 294.840261 349.86604 
L 294.990393 342.294358 
L 295.140131 352.174167 
L 295.289704 332.35777 
L 295.440256 349.856148 
L 295.589974 331.161909 
L 295.740534 352.174167 
L 295.896492 315.731087 
L 296.052954 352.174167 
L 296.207699 321.792366 
L 296.364619 352.174167 
L 296.51575 319.814359 
L 296.668703 352.174167 
L 296.819353 337.665823 
L 296.971733 339.846063 
L 297.128555 352.174167 
L 297.279405 321.062114 
L 297.433207 352.174167 
L 297.588829 322.948425 
L 297.745717 352.174167 
L 297.899177 323.198931 
L 298.056037 352.174167 
L 298.207227 319.515638 
L 298.360141 352.174167 
L 298.513432 325.471498 
L 298.663291 352.174167 
L 298.812883 323.615242 
L 298.963197 349.770295 
L 299.264018 333.000008 
L 299.414566 348.692164 
L 299.568549 332.003561 
L 299.726345 352.174167 
L 299.884067 352.174167 
L 300.03512 260.691523 
L 300.187013 282.075438 
L 300.341724 269.687562 
L 300.495548 340.293108 
L 300.64968 342.542734 
L 300.801245 340.107992 
L 300.95313 339.533412 
L 301.104508 344.11864 
L 301.255809 341.226137 
L 301.408821 328.716077 
L 301.558937 333.630016 
L 301.71072 329.158377 
L 301.863908 331.06422 
L 302.017508 347.629032 
L 302.323684 339.515482 
L 302.475908 352.174167 
L 302.627304 338.345077 
L 302.778062 340.039239 
L 303.084415 297.970493 
L 303.695453 340.983731 
L 303.997406 312.880115 
L 304.148627 300.818343 
L 304.299783 301.829178 
L 304.456692 306.482449 
L 304.60742 327.326457 
L 304.761268 307.982885 
L 304.913663 316.850424 
L 305.063434 314.235369 
L 305.214166 327.291011 
L 305.520114 320.043212 
L 305.671506 315.924297 
L 305.824562 323.607033 
L 305.977687 319.175721 
L 306.132039 295.597695 
L 306.292595 326.548219 
L 306.446922 314.425873 
L 306.752854 345.805983 
L 307.059748 337.085489 
L 307.361894 195.79857 
L 307.662854 272.895276 
L 307.813899 342.928507 
L 307.969465 322.396293 
L 308.120716 328.007587 
L 308.272041 313.513041 
L 308.425486 328.278741 
L 308.575992 317.453485 
L 308.727857 323.485814 
L 308.881054 319.607634 
L 309.031712 323.899612 
L 309.182197 324.89848 
L 309.333245 331.949287 
L 309.483232 326.021733 
L 309.634503 342.954773 
L 309.787001 334.387388 
L 309.936456 337.304178 
L 310.090451 328.278741 
L 310.241677 349.301268 
L 310.395871 299.978218 
L 310.546344 342.364627 
L 310.696896 317.983388 
L 310.848254 347.531497 
L 310.998747 327.255464 
L 311.148957 330.121484 
L 311.299615 330.069348 
L 311.452267 313.786072 
L 311.603561 332.499114 
L 311.905863 318.225876 
L 312.056468 318.562893 
L 312.206831 285.435784 
L 312.356865 302.775126 
L 312.507655 294.885041 
L 312.661291 313.540519 
L 312.815327 300.473256 
L 312.968073 327.175924 
L 313.119928 302.690218 
L 313.270416 316.296129 
L 313.420455 310.330273 
L 313.572442 329.158377 
L 313.726546 330.61497 
L 313.878613 320.661552 
L 314.034134 318.369725 
L 314.185854 321.794845 
L 314.344273 352.174167 
L 314.502536 352.174167 
L 314.653645 329.060018 
L 314.806706 351.578494 
L 314.961947 236.11225 
L 315.263563 252.92471 
L 315.565756 326.783931 
L 315.720499 352.174167 
L 315.872603 325.207116 
L 316.030391 352.174167 
L 316.181569 326.318078 
L 316.333848 352.174167 
L 316.486994 319.79008 
L 316.639542 352.174167 
L 316.790623 326.784771 
L 316.943597 352.174167 
L 317.093473 322.577145 
L 317.244908 352.174167 
L 317.400801 324.159436 
L 317.551953 352.174167 
L 317.702741 323.737812 
L 317.853332 334.813826 
L 318.003493 328.894207 
L 318.15683 328.312208 
L 318.307695 330.215726 
L 318.459071 316.3982 
L 318.610261 334.863215 
L 318.763212 303.746455 
L 318.914282 349.862752 
L 319.067712 321.451476 
L 319.218065 352.174167 
L 319.368639 331.920436 
L 319.675148 345.259622 
L 319.83161 323.91385 
L 319.985101 351.609976 
L 320.137382 320.088595 
L 320.287286 352.174167 
L 320.438078 322.564437 
L 320.589936 352.174167 
L 320.744107 325.60299 
L 320.898029 352.174167 
L 321.048398 318.658652 
L 321.201912 352.174167 
L 321.355668 322.146758 
L 321.510462 350.433165 
L 321.821187 333.922712 
L 321.974285 352.174167 
L 322.127626 325.092199 
L 322.278741 352.174167 
L 322.430008 324.437189 
L 322.582288 352.174167 
L 322.733021 317.403884 
L 322.883798 343.506361 
L 323.034735 339.479469 
L 323.335481 327.291011 
L 323.490803 322.795376 
L 323.797798 291.585836 
L 323.948138 326.639481 
L 324.103017 315.769383 
L 324.257418 328.01476 
L 324.41021 321.850295 
L 324.5598 321.910219 
L 324.710136 329.508724 
L 324.860535 314.50636 
L 325.011819 320.392213 
L 325.316782 337.768865 
L 325.471804 340.342612 
L 325.778666 316.449018 
L 325.931964 312.695919 
L 326.082845 330.309166 
L 326.233349 327.834969 
L 326.383648 332.471006 
L 326.533193 325.286484 
L 326.684038 329.027045 
L 326.986947 322.534742 
L 327.140104 339.622306 
L 327.291872 295.210086 
L 327.443332 324.019759 
L 327.596416 301.324668 
L 327.747347 336.017278 
L 327.896929 304.450249 
L 328.047336 317.354141 
L 328.198477 278.891138 
L 328.348166 328.277923 
L 328.498707 317.354141 
L 328.651037 338.442602 
L 328.804735 306.219038 
L 328.954363 352.174167 
L 329.104195 345.74543 
L 329.26158 352.174167 
L 329.411856 343.816809 
L 329.712682 242.225341 
L 329.864151 249.608417 
L 330.018055 343.652039 
L 330.172324 352.174167 
L 330.624555 352.174167 
L 330.774999 348.117634 
L 330.925298 337.085489 
L 331.227448 352.174167 
L 331.37908 338.65239 
L 331.529569 352.174167 
L 331.685909 352.174167 
L 331.836456 345.239922 
L 331.988958 352.174167 
L 332.140327 324.555219 
L 332.292157 342.980891 
L 332.442233 335.901541 
L 332.592877 314.560095 
L 332.743199 329.54115 
L 332.893975 318.032163 
L 333.045637 341.241666 
L 333.197554 316.550222 
L 333.348653 340.633532 
L 333.498884 312.654934 
L 333.649221 306.972799 
L 333.949631 352.174167 
L 334.102752 321.19488 
L 334.253172 352.174167 
L 334.403761 246.854765 
L 334.553714 249.160344 
L 334.703471 182.569123 
L 335.156396 352.174167 
L 335.309221 320.882538 
L 335.458866 338.186122 
L 335.608273 338.186122 
L 335.771339 324.690881 
L 335.921247 293.02884 
L 336.071575 338.78819 
L 336.221053 323.074217 
L 336.370728 352.174167 
L 336.522609 320.879225 
L 336.67247 351.010169 
L 336.821954 325.363747 
L 336.971485 334.080278 
L 337.121127 330.609264 
L 337.273025 331.771486 
L 337.575695 340.056501 
L 337.727816 336.131381 
L 337.878875 343.518691 
L 338.028648 328.312208 
L 338.178655 327.155901 
L 338.329188 322.016268 
L 338.479374 324.89848 
L 338.631296 315.838115 
L 338.78138 327.800149 
L 338.932714 329.66993 
L 339.08355 328.482165 
L 339.235617 322.619426 
L 339.385463 331.282151 
L 339.537091 326.820835 
L 339.838685 333.603486 
L 339.9888 304.722568 
L 340.291141 300.818343 
L 340.444373 303.746455 
L 340.748985 329.223485 
L 340.902602 319.79008 
L 341.054367 321.928087 
L 341.20495 320.346875 
L 341.356194 330.701817 
L 341.508522 325.855335 
L 341.661081 352.174167 
L 341.813384 317.174377 
L 341.963802 344.037854 
L 342.114272 327.291011 
L 342.264319 342.308493 
L 342.565308 325.554977 
L 342.717407 317.174377 
L 342.869428 332.09232 
L 343.022447 330.974771 
L 343.172282 326.133655 
L 343.322079 334.132198 
L 343.622947 315.50823 
L 343.7738 338.845558 
L 343.924872 337.768865 
L 344.075087 346.345815 
L 344.226793 325.051998 
L 344.378603 352.174167 
L 344.528343 317.78689 
L 344.678176 352.174167 
L 344.830276 318.320231 
L 344.980768 345.790495 
L 345.130924 331.537734 
L 345.281336 337.107044 
L 345.582366 330.152987 
L 345.733802 344.694035 
L 345.888235 314.161899 
L 346.038741 347.551337 
L 346.189751 325.053676 
L 346.340424 344.061101 
L 346.491133 326.675959 
L 346.642567 344.70463 
L 347.094245 318.95256 
L 347.393554 325.908845 
L 347.692372 313.068021 
L 347.842255 280.58829 
L 347.991591 324.117454 
L 348.140991 294.390459 
L 348.290261 346.913533 
L 348.595891 331.282151 
L 348.753125 352.174167 
L 348.911346 325.57395 
L 349.063208 262.219974 
L 349.213493 257.984013 
L 349.363619 241.594357 
L 349.513136 344.597309 
L 349.812369 322.492218 
L 349.963543 326.784771 
L 350.264476 320.791247 
L 350.564542 345.772178 
L 351.014399 322.449571 
L 351.164033 321.910219 
L 351.313984 327.112253 
L 351.464841 340.617093 
L 351.616714 328.075951 
L 351.767992 330.309166 
L 351.919691 315.821168 
L 352.069685 331.862485 
L 352.219537 319.535395 
L 352.369377 345.772178 
L 352.521405 352.174167 
L 352.676778 352.174167 
L 352.831735 275.869607 
L 352.981921 340.600606 
L 353.131789 302.122253 
L 353.281628 346.354177 
L 353.431381 316.038384 
L 353.580885 352.174167 
L 353.73058 326.529418 
L 353.880183 352.174167 
L 354.029606 317.737412 
L 354.181562 352.174167 
L 354.332087 322.125774 
L 354.488806 352.174167 
L 354.645799 319.388489 
L 354.800173 351.573199 
L 354.949583 334.739211 
L 355.098783 336.242164 
L 355.248073 352.174167 
L 355.397505 324.972925 
L 355.549951 352.174167 
L 355.704089 326.455514 
L 355.859457 352.174167 
L 356.011678 326.463746 
L 356.169213 352.174167 
L 356.318896 318.032163 
L 356.468497 352.174167 
L 356.618143 318.369725 
L 356.767734 352.174167 
L 356.917027 320.02585 
L 357.07132 352.174167 
L 357.220858 319.000224 
L 357.370218 352.174167 
L 357.519288 332.857343 
L 357.670155 342.121534 
L 357.819258 342.835386 
L 357.968414 331.131632 
L 358.117581 346.320584 
L 358.267179 325.090489 
L 358.416528 352.174167 
L 358.569336 315.504942 
L 358.718695 352.174167 
L 358.867848 318.369725 
L 359.016973 352.174167 
L 359.166199 315.351471 
L 359.315367 352.174167 
L 359.464674 318.674269 
L 359.613762 352.174167 
L 359.763003 316.207813 
L 359.913933 352.174167 
L 360.066533 320.616979 
L 360.216072 352.174167 
L 360.365303 319.441335 
L 360.517211 352.174167 
L 360.666533 327.112253 
L 360.81569 346.625717 
L 360.964856 325.247685 
L 361.113998 342.696286 
L 361.263598 345.753755 
L 361.414526 328.520913 
L 361.564557 348.100174 
L 361.713958 323.790262 
L 361.863162 352.174167 
L 362.012567 324.651966 
L 362.16186 352.174167 
L 362.311117 323.198931 
L 362.460384 352.174167 
L 362.609854 326.418402 
L 362.767429 352.174167 
L 362.917059 321.460417 
L 363.066334 352.174167 
L 363.215636 338.710926 
L 363.364998 338.749669 
L 363.514306 346.337429 
L 363.663543 331.131632 
L 363.812681 348.662017 
L 363.962086 323.790262 
L 364.111633 352.174167 
L 364.2659 322.104761 
L 364.41985 352.174167 
L 364.571137 324.198077 
L 364.723233 352.174167 
L 364.87486 323.831578 
L 365.026319 352.174167 
L 365.177521 324.476644 
L 365.328247 352.174167 
L 365.481269 322.422444 
L 365.631206 352.174167 
L 365.781308 317.254227 
L 365.930521 352.174167 
L 366.079868 322.36391 
L 366.230954 352.174167 
L 366.380132 315.349732 
L 366.529409 352.174167 
L 366.678481 315.934246 
L 366.827838 352.174167 
L 366.978044 317.254227 
L 367.127781 352.174167 
L 367.277096 329.410888 
L 367.42664 346.642531 
L 367.725442 333.140581 
L 368.025288 338.82649 
L 368.174836 336.998648 
L 368.32604 316.672228 
L 368.479532 323.687278 
L 368.629227 312.598235 
L 368.779379 336.460194 
L 368.931802 317.796768 
L 369.090177 348.835456 
L 369.242723 352.174167 
L 369.398627 253.152002 
L 369.698459 229.372378 
L 369.850589 237.582839 
L 370.001081 330.701817 
L 370.150678 352.174167 
L 370.749881 352.174167 
L 370.899213 343.990959 
L 371.048451 351.006819 
L 371.197829 344.575474 
L 371.347825 351.591331 
L 371.498772 342.322587 
L 371.648918 343.493996 
L 371.947753 352.174167 
L 372.096999 352.174167 
L 372.246129 334.028059 
L 372.395574 346.921102 
L 372.544978 337.561296 
L 372.695917 337.128538 
L 372.846794 337.982214 
L 372.996383 327.14821 
L 373.145973 345.170081 
L 373.297231 321.504231 
L 373.447139 352.174167 
L 373.596814 323.074217 
L 373.746459 352.174167 
L 373.897688 316.3982 
L 374.04762 352.174167 
L 374.202832 319.451091 
L 374.352478 352.174167 
L 374.501951 318.272306 
L 374.652132 350.42817 
L 374.802063 325.440568 
L 374.951467 352.174167 
L 375.101005 318.760528 
L 375.254279 352.174167 
L 375.404067 322.103937 
L 375.555155 352.174167 
L 375.705092 321.953577 
L 375.856448 352.174167 
L 376.006279 319.582223 
L 376.15823 352.174167 
L 376.309588 322.29602 
L 376.45999 346.217437 
L 376.609606 339.164877 
L 376.759319 352.174167 
L 376.909255 319.000224 
L 377.059675 352.174167 
L 377.209269 318.95256 
L 377.358971 349.839471 
L 377.511264 321.764513 
L 377.661161 339.952188 
L 377.810782 327.14821 
L 377.961689 352.174167 
L 378.115853 319.359813 
L 378.266486 352.174167 
L 378.41692 319.721903 
L 378.566596 352.174167 
L 378.716468 320.118231 
L 378.866105 352.174167 
L 379.018854 325.283186 
L 379.17172 352.174167 
L 379.323698 319.768197 
L 379.473904 352.174167 
L 379.628041 323.239456 
L 379.777688 352.174167 
L 380.088933 352.174167 
L 380.239264 237.595916 
L 380.39015 247.283813 
L 380.53961 244.349654 
L 380.688758 265.66597 
L 380.837857 334.613418 
L 380.989392 352.174167 
L 381.290895 352.174167 
L 381.739718 341.100298 
L 381.889528 351.010169 
L 382.039263 352.174167 
L 382.188752 346.345815 
L 382.338519 347.504776 
L 382.489176 345.799615 
L 382.790413 348.12342 
L 382.9404 344.619019 
L 383.091106 346.966064 
L 383.240431 331.716147 
L 383.391581 352.174167 
L 383.542417 319.814359 
L 383.692756 352.174167 
L 383.842228 318.026284 
L 383.992375 352.174167 
L 384.14326 313.981417 
L 384.293309 352.174167 
L 384.443728 319.189519 
L 384.593995 352.174167 
L 384.744501 317.354141 
L 384.894727 352.174167 
L 385.044934 313.817264 
L 385.195902 352.174167 
L 385.346242 317.934475 
L 385.497818 352.174167 
L 385.648173 316.824379 
L 385.802008 351.606025 
L 385.954228 314.359028 
L 386.106883 352.174167 
L 386.264582 352.174167 
L 386.573625 295.785481 
L 386.874233 330.215726 
L 387.025632 326.820835 
L 387.327417 309.351992 
L 387.629344 298.510217 
L 387.779641 324.89848 
L 387.930496 326.059147 
L 388.082538 320.572281 
L 388.234356 325.207116 
L 388.385099 323.954807 
L 388.536662 326.427483 
L 388.686399 323.656216 
L 388.987962 304.14389 
L 389.138786 319.721903 
L 389.289569 319.236506 
L 389.441239 322.829034 
L 389.592596 331.430532 
L 389.74312 324.89848 
L 389.893187 324.278238 
L 390.043241 316.824379 
L 390.192973 316.570064 
L 390.342343 308.982304 
L 390.492309 331.192099 
L 390.645073 319.74466 
L 390.796333 337.707216 
L 390.946348 329.508724 
L 391.09575 332.9682 
L 391.246786 328.993978 
L 391.399001 338.423207 
L 391.548869 318.418225 
L 391.698928 344.049494 
L 391.84917 328.312208 
L 392.001386 345.862729 
L 392.302602 328.515866 
L 392.452641 324.820214 
L 392.606498 337.38176 
L 392.756674 317.403884 
L 392.906653 319.047751 
L 393.056876 317.934475 
L 393.209308 331.57682 
L 393.508804 290.393635 
L 393.658995 296.963474 
L 393.808723 293.476483 
L 393.958708 317.204055 
L 394.108497 318.418225 
L 394.258185 323.032407 
L 394.407984 291.064272 
L 394.560416 303.977735 
L 394.712051 287.246655 
L 394.862057 332.386201 
L 395.01184 292.22827 
L 395.162967 294.470994 
L 395.313406 285.435784 
L 395.465152 311.321139 
L 395.615513 307.03728 
L 395.765696 320.210081 
L 395.915615 312.541373 
L 396.065338 339.952188 
L 396.215204 317.836226 
L 396.364711 346.92865 
L 396.514996 325.402213 
L 396.665758 341.194946 
L 396.816089 329.54115 
L 396.967795 341.068385 
L 397.117832 317.836226 
L 397.268834 344.575474 
L 397.419015 325.833043 
L 397.568745 324.859403 
L 397.718014 315.934246 
L 397.868344 330.701817 
L 398.020835 303.909468 
L 398.321682 334.739211 
L 398.473578 326.712333 
L 398.625578 304.045809 
L 398.775829 312.654934 
L 398.926398 303.495771 
L 399.076034 307.360244 
L 399.225821 335.271946 
L 399.378992 324.78829 
L 399.533391 323.320166 
L 399.68372 331.192099 
L 399.834737 320.392213 
L 399.985478 323.240265 
L 400.135819 329.54115 
L 400.286206 328.414473 
L 400.593741 319.792553 
L 400.748622 352.174167 
L 400.904732 334.876708 
L 401.054744 352.174167 
L 401.204625 206.301705 
L 401.50459 230.770013 
L 401.806354 352.174167 
L 402.565438 352.174167 
L 402.868938 345.835834 
L 403.019217 352.174167 
L 403.169575 344.619019 
L 403.470439 352.174167 
L 403.622519 346.428369 
L 403.773084 352.174167 
L 404.082727 352.174167 
L 404.233159 237.278145 
L 404.384438 269.081599 
L 404.534807 218.308577 
L 404.986006 352.174167 
L 405.595714 352.174167 
L 405.895977 341.147825 
L 406.046869 351.597135 
L 406.197535 340.584072 
L 406.348112 342.902091 
L 406.500052 352.174167 
L 406.802235 345.259622 
L 406.9532 352.174167 
L 407.103819 337.707216 
L 407.256087 338.423207 
L 407.406728 337.707216 
L 407.557993 336.017278 
L 407.708541 328.414473 
L 407.859832 350.440606 
L 408.010665 316.925091 
L 408.162187 352.174167 
L 408.321993 325.240546 
L 408.47247 352.174167 
L 408.621798 310.829886 
L 408.772272 352.174167 
L 408.92273 315.032806 
L 409.073094 352.174167 
L 409.223465 313.291805 
L 409.377318 352.174167 
L 409.526752 323.157479 
L 409.678752 352.174167 
L 409.832722 321.451476 
L 409.985863 352.174167 
L 410.135308 318.369725 
L 410.287507 352.174167 
L 410.440816 320.794516 
L 410.593496 352.174167 
L 410.743043 324.318146 
L 410.897399 346.973483 
L 411.048982 332.721117 
L 411.199346 336.732021 
L 411.350567 329.092898 
L 411.501021 341.683133 
L 411.805604 333.319858 
L 411.955901 349.849506 
L 412.106095 324.462386 
L 412.256073 335.320376 
L 412.406782 328.993978 
L 412.556999 304.586798 
L 412.709236 328.109988 
L 413.168284 296.551346 
L 413.31859 310.5687 
L 413.47444 283.628872 
L 413.625313 325.130613 
L 413.776184 297.778432 
L 413.931212 311.608837 
L 414.081588 286.876698 
L 414.232623 307.03728 
L 414.383156 290.834295 
L 414.533521 326.639481 
L 414.68411 308.131808 
L 414.83444 313.872138 
L 414.984725 309.809802 
L 415.135822 329.092898 
L 415.285404 316.801801 
L 415.443438 352.174167 
L 415.755574 299.704407 
L 415.908443 288.933273 
L 416.061435 291.781962 
L 416.214155 323.607033 
L 416.364515 311.608837 
L 416.51583 347.531497 
L 416.667076 328.960816 
L 416.820647 328.24518 
L 416.971046 329.67166 
L 417.121582 326.675959 
L 417.271557 330.058205 
L 417.422448 327.904311 
L 417.573285 333.077792 
L 417.874523 313.146298 
L 418.174858 330.763079 
L 418.325379 338.266054 
L 418.47567 352.174167 
L 418.627947 352.174167 
L 418.782572 274.553319 
L 418.937276 258.085137 
L 419.091764 258.953004 
L 419.542956 341.163577 
L 419.693532 322.577145 
L 419.843968 344.072674 
L 419.993603 324.198077 
L 420.142912 342.237414 
L 420.293433 327.219815 
L 420.443798 339.425063 
L 420.59415 319.095142 
L 420.746321 337.256224 
L 420.896999 320.925553 
L 421.046904 349.846171 
L 421.196458 335.901541 
L 421.345801 334.054207 
L 421.495966 323.656216 
L 421.645598 321.32822 
L 421.795783 323.074217 
L 421.946101 338.266054 
L 422.096068 331.222203 
L 422.246303 336.460194 
L 422.397358 335.100225 
L 422.551215 321.013648 
L 422.702186 344.095723 
L 422.852607 308.711313 
L 423.002415 349.213194 
L 423.15189 316.621219 
L 423.301298 342.265968 
L 423.450473 328.174476 
L 423.600928 338.266054 
L 423.751334 326.675959 
L 423.901116 345.180144 
L 424.050954 313.651695 
L 424.500766 291.585836 
L 424.649977 304.760145 
L 424.799152 300.736861 
L 425.250197 329.962603 
L 425.399778 321.32822 
L 425.54954 332.912931 
L 425.699372 312.654934 
L 425.849213 322.492218 
L 426.00165 310.862939 
L 426.151109 331.774935 
L 426.300626 336.414974 
L 426.45134 327.904311 
L 426.751566 286.40828 
L 426.9023 282.154125 
L 427.351054 317.737412 
L 427.500344 308.982304 
L 427.649559 329.378088 
L 427.798663 310.028369 
L 427.948055 335.223236 
L 428.098549 313.872138 
L 428.24938 326.748604 
L 428.399759 304.006464 
L 428.549746 324.780912 
L 428.699664 308.005612 
L 428.852432 328.749117 
L 429.002762 291.239122 
L 429.152717 323.115907 
L 429.308236 306.53817 
L 429.466304 309.619256 
L 429.617046 327.467238 
L 429.76761 329.508724 
L 429.92485 352.174167 
L 430.081111 352.174167 
L 430.239896 270.815931 
L 430.390484 277.053185 
L 430.539957 254.116966 
L 430.840468 352.174167 
L 431.599784 352.174167 
L 431.749758 348.687176 
L 431.899882 349.268341 
L 432.049624 352.174167 
L 432.199137 343.834745 
L 432.35132 348.726688 
L 432.501628 343.481596 
L 432.651211 345.762979 
L 432.800602 351.005137 
L 432.950081 332.03955 
L 433.103655 352.174167 
L 433.253052 352.174167 
L 433.40261 279.169269 
L 433.552226 330.609264 
L 433.852798 324.397621 
L 434.003234 327.834969 
L 434.152697 312.484347 
L 434.302699 319.000224 
L 434.603512 274.07425 
L 434.753014 279.902602 
L 435.206258 321.408326 
L 435.359333 316.850424 
L 435.509941 331.949287 
L 435.660503 320.880912 
L 435.810986 298.859733 
L 435.961549 300.671822 
L 436.111883 313.236099 
L 436.26232 315.085865 
L 436.412879 315.032806 
L 436.562311 326.529418 
L 436.7131 319.189519 
L 437.1643 270.112308 
L 437.464417 320.210081 
L 437.61507 335.994263 
L 437.920815 319.405516 
L 438.074348 318.13333 
L 438.224715 300.671822 
L 438.375019 325.478814 
L 438.525252 305.099787 
L 438.675509 328.380482 
L 438.826028 306.393294 
L 438.97624 334.739211 
L 439.126558 308.068801 
L 439.276879 341.147825 
L 439.577662 320.836143 
L 439.728032 317.354141 
L 439.87833 337.665823 
L 440.029542 304.212309 
L 440.179328 337.624192 
L 440.328796 319.535395 
L 440.479137 342.308493 
L 440.779716 326.059147 
L 440.930042 325.478814 
L 441.079989 315.50823 
L 441.229408 331.161909 
L 441.379596 320.746221 
L 441.529381 321.910219 
L 441.679822 320.880912 
L 441.83009 317.354141 
L 441.980394 321.416477 
L 442.130749 312.711471 
L 442.281411 321.460417 
L 442.43215 317.78689 
L 442.582251 328.312208 
L 442.731986 313.88241 
L 442.884263 323.485814 
L 443.038014 319.74466 
L 443.189211 319.952061 
L 443.340089 320.970067 
L 443.490731 332.471006 
L 443.641335 326.712333 
L 443.796544 336.877185 
L 443.946487 318.514808 
L 444.247651 344.651352 
L 444.398327 326.669019 
L 444.549431 352.174167 
L 444.699779 326.675959 
L 444.850015 254.44057 
L 445.15157 238.568292 
L 445.303221 326.281403 
L 445.453087 327.184064 
L 445.603007 327.112253 
L 445.755514 341.875493 
L 445.905512 324.318146 
L 446.054843 337.582321 
L 446.204085 327.624543 
L 446.353515 334.89965 
L 446.503034 328.209058 
L 446.653399 313.872138 
L 446.80331 313.762233 
L 446.952593 320.610365 
L 447.102013 321.239455 
L 447.251919 338.78819 
L 447.401437 327.076193 
L 447.551201 347.688269 
L 447.706124 352.174167 
L 447.864308 352.174167 
L 448.014537 241.910752 
L 448.164437 269.530309 
L 448.314069 255.423523 
L 448.613454 352.174167 
L 449.382347 352.174167 
L 449.533375 344.662069 
L 449.682773 352.174167 
L 449.832074 352.174167 
L 449.981574 345.753755 
L 450.131214 346.345815 
L 450.281465 347.531497 
L 450.430877 352.174167 
L 450.583156 323.485814 
L 450.732685 352.174167 
L 450.882803 319.582223 
L 451.032529 352.174167 
L 451.18307 320.346875 
L 451.33521 335.534922 
L 451.487152 307.360244 
L 451.638515 344.107198 
L 451.788088 320.164222 
L 451.939034 337.686549 
L 452.091548 326.391118 
L 452.244102 351.584554 
L 452.39346 328.312208 
L 452.546239 335.558424 
L 452.696966 331.25222 
L 452.847991 338.305678 
L 452.998743 332.527141 
L 453.151692 320.705998 
L 453.301847 333.050511 
L 453.451483 302.633175 
L 453.601048 349.191422 
L 453.751825 337.727824 
L 453.901894 351.011836 
L 454.202617 299.514466 
L 454.354262 284.277586 
L 454.505486 286.969582 
L 454.65679 292.739899 
L 454.806033 312.541373 
L 454.95615 298.125804 
L 455.110691 328.378861 
L 455.261287 311.088026 
L 455.411873 331.920436 
L 455.561874 312.598235 
L 455.71406 337.256224 
L 455.864875 310.627883 
L 456.016099 329.092898 
L 456.166059 316.72309 
L 456.315781 334.106275 
L 456.466635 318.658652 
L 456.617227 323.778436 
L 456.768312 306.523724 
L 456.918668 310.449827 
L 457.069719 299.439238 
L 457.523845 340.073713 
L 457.67428 327.964872 
L 457.823589 352.174167 
L 457.973327 313.707043 
L 458.123778 352.174167 
L 458.274055 316.72309 
L 458.42438 352.174167 
L 458.574605 314.768934 
L 458.724294 352.174167 
L 458.874487 322.577145 
L 459.024709 352.174167 
L 459.174988 325.16975 
L 459.325481 352.174167 
L 459.476348 327.938834 
L 459.77696 351.010169 
L 459.927859 324.036365 
L 460.07803 352.174167 
L 460.227953 324.239957 
L 460.378765 352.174167 
L 460.532938 322.893928 
L 460.689661 352.174167 
L 460.84046 329.060018 
L 460.990885 352.174167 
L 461.141118 323.656216 
L 461.291524 352.174167 
L 461.44182 338.206191 
L 461.592402 339.45966 
L 461.742676 351.594662 
L 461.892923 319.865497 
L 462.042563 352.174167 
L 462.195697 315.982051 
L 462.353691 352.174167 
L 462.508282 352.174167 
L 462.658766 268.145983 
L 462.809082 291.819455 
L 462.959097 287.083666 
L 463.108869 278.736931 
L 463.259768 309.351992 
L 463.559797 319.582223 
L 463.709935 313.236099 
L 463.859522 338.768957 
L 464.009064 316.570064 
L 464.158537 342.835386 
L 464.309125 309.229468 
L 464.459579 327.869689 
L 464.609825 309.749108 
L 464.760107 337.085489 
L 465.064308 323.767073 
L 465.214814 316.3982 
L 465.365177 336.505155 
L 465.516525 327.97326 
L 465.66686 327.800149 
L 466.11636 283.596675 
L 466.265921 288.154277 
L 466.415475 307.231283 
L 466.565472 308.586778 
L 466.714865 314.819043 
L 466.86404 311.258128 
L 467.014485 316.141925 
L 467.164997 306.972799 
L 467.315286 323.737812 
L 467.464628 325.908845 
L 467.766062 316.486193 
L 468.066612 333.023152 
L 468.216817 311.550803 
L 468.367133 340.550863 
L 468.517453 317.934475 
L 468.668103 348.11183 
L 468.818495 317.354141 
L 468.968858 347.531497 
L 469.12176 314.412364 
L 469.277067 352.174167 
L 469.428386 319.469445 
L 469.579335 352.174167 
L 469.7301 318.129295 
L 469.880412 348.10601 
L 470.031204 333.077792 
L 470.182511 344.11864 
L 470.332903 326.602898 
L 470.48272 344.026181 
L 470.632361 328.486383 
L 470.78227 352.174167 
L 470.931901 323.748826 
L 471.082111 352.174167 
L 471.232469 320.836143 
L 471.383414 352.174167 
L 471.533636 314.344232 
L 471.683253 350.42817 
L 471.833478 329.279118 
L 471.983177 349.783283 
L 472.134838 352.174167 
L 472.284558 308.586778 
L 472.438355 202.902868 
L 472.595731 200.262848 
L 472.900677 352.174167 
L 473.352168 352.174167 
L 473.501474 351.591331 
L 473.653875 342.980891 
L 473.808784 352.174167 
L 473.958397 338.749669 
L 474.108738 347.531497 
L 474.258982 345.210162 
L 474.409342 346.370829 
L 474.559463 348.56836 
L 474.709564 346.354177 
L 474.859459 348.10601 
L 475.010056 344.486859 
L 475.459529 322.534742 
L 475.608871 328.793573 
L 475.75892 316.090229 
L 475.908399 330.578236 
L 476.207572 324.34102 
L 476.357261 321.823128 
L 476.659152 326.675959 
L 476.809089 333.824744 
L 476.966952 352.174167 
L 477.122541 352.174167 
L 477.426811 218.896396 
L 477.72522 240.95609 
L 477.876788 331.978056 
L 478.02755 352.174167 
L 478.178257 325.51695 
L 478.328082 352.174167 
L 478.47774 331.774935 
L 478.627671 352.174167 
L 478.777358 322.770303 
L 478.927093 352.174167 
L 479.077382 330.51591 
L 479.227505 352.174167 
L 479.380969 328.24354 
L 479.53101 352.174167 
L 479.680925 324.238215 
L 479.830539 352.174167 
L 479.982955 330.294907 
L 480.132845 352.174167 
L 480.283193 323.074217 
L 480.436325 352.174167 
L 480.589627 321.978064 
L 480.743957 352.174167 
L 480.89356 337.665823 
L 481.043374 334.912324 
L 481.192921 346.345815 
L 481.342646 327.374402 
L 481.493045 352.174167 
L 481.643064 325.48645 
L 481.792964 352.174167 
L 481.944213 323.074217 
L 482.095922 352.174167 
L 482.246 324.198077 
L 482.396113 352.174167 
L 482.545833 327.040028 
L 482.695957 350.963261 
L 483.003675 333.18614 
L 483.15765 352.174167 
L 483.307926 323.241107 
L 483.458083 352.174167 
L 483.609009 322.849832 
L 483.760114 352.174167 
L 483.910855 320.346875 
L 484.060975 352.174167 
L 484.210813 319.628916 
L 484.360857 352.174167 
L 484.510219 318.904759 
L 484.660493 352.174167 
L 484.810408 327.14821 
L 485.110524 350.99836 
L 485.265637 326.343855 
L 485.415709 352.174167 
L 485.568051 322.534742 
L 485.720533 352.174167 
L 485.871059 321.839389 
L 486.022195 352.174167 
L 486.172443 333.550199 
L 486.325193 352.174167 
L 486.478787 326.35465 
L 486.636679 352.174167 
L 486.94909 352.174167 
L 487.101129 243.312405 
L 487.250901 270.229875 
L 487.401462 263.636428 
L 487.552095 278.577068 
L 487.857152 344.68341 
L 488.007762 319.721903 
L 488.157775 325.440568 
L 488.30906 322.211139 
L 488.4586 338.768957 
L 488.610199 321.19488 
L 488.760981 352.174167 
L 488.912219 329.637872 
L 489.061973 346.936176 
L 489.212518 339.425063 
L 489.362476 342.294358 
L 489.512605 335.901541 
L 489.664276 334.912324 
L 489.816168 336.638508 
L 489.967582 334.912324 
L 490.117715 336.482707 
L 490.270932 331.192099 
L 490.421987 334.863215 
L 490.572868 311.204914 
L 490.725325 321.807465 
L 490.876271 307.165692 
L 491.028745 314.879309 
L 491.17916 300.093144 
L 491.638749 352.174167 
L 491.791674 352.174167 
L 491.944861 327.361803 
L 492.09654 346.412046 
L 492.246268 216.9564 
L 492.395734 241.276142 
L 492.545501 216.373565 
L 492.69676 346.403849 
L 492.852238 352.174167 
L 493.005391 352.174167 
L 493.155536 346.370829 
L 493.305674 346.936176 
L 493.457469 345.844824 
L 493.610237 348.174768 
L 493.760024 335.901541 
L 493.909924 336.527539 
L 494.210764 345.790495 
L 494.362565 345.826818 
L 494.664596 341.831731 
L 494.815267 342.941659 
L 495.119196 352.174167 
L 495.269638 329.573483 
L 495.42086 344.672754 
L 495.571009 317.885421 
L 495.571009 317.885421 
" style="fill:none;stroke:#1f77b4;stroke-linecap:square;stroke-width:1.5;"/>
   </g>
   <g id="patch_3">
    <path d="M 66.158594 352.174167 
L 66.158594 35.0625 
" style="fill:none;stroke:#000000;stroke-linecap:square;stroke-linejoin:miter;stroke-width:0.8;"/>
   </g>
   <g id="patch_4">
    <path d="M 516.019219 352.174167 
L 516.019219 35.0625 
" style="fill:none;stroke:#000000;stroke-linecap:square;stroke-linejoin:miter;stroke-width:0.8;"/>
   </g>
   <g id="patch_5">
    <path d="M 66.158594 352.174167 
L 516.019219 352.174167 
" style="fill:none;stroke:#000000;stroke-linecap:square;stroke-linejoin:miter;stroke-width:0.8;"/>
   </g>
   <g id="patch_6">
    <path d="M 66.158594 35.0625 
L 516.019219 35.0625 
" style="fill:none;stroke:#000000;stroke-linecap:square;stroke-linejoin:miter;stroke-width:0.8;"/>
   </g>
   <g id="legend_1">
    <g id="patch_7">
     <path d="M 540.51225 53.01875 
L 620.748187 53.01875 
Q 622.748187 53.01875 622.748187 51.01875 
L 622.748187 37.0625 
Q 622.748187 35.0625 620.748187 35.0625 
L 540.51225 35.0625 
Q 538.51225 35.0625 538.51225 37.0625 
L 538.51225 51.01875 
Q 538.51225 53.01875 540.51225 53.01875 
z
" style="fill:#ffffff;opacity:0.8;stroke:#cccccc;stroke-linejoin:miter;"/>
    </g>
    <g id="line2d_16">
     <path d="M 542.51225 43.160937 
L 562.51225 43.160937 
" style="fill:none;stroke:#1f77b4;stroke-linecap:square;stroke-width:1.5;"/>
    </g>
    <g id="line2d_17"/>
    <g id="text_16">
     <!-- drop_rate -->
     <defs>
      <path d="M 50.984375 -16.609375 
L 50.984375 -23.578125 
L -0.984375 -23.578125 
L -0.984375 -16.609375 
z
" id="DejaVuSans-95"/>
     </defs>
     <g transform="translate(570.51225 46.660937)scale(0.1 -0.1)">
      <use xlink:href="#DejaVuSans-100"/>
      <use x="63.476562" xlink:href="#DejaVuSans-114"/>
      <use x="104.558594" xlink:href="#DejaVuSans-111"/>
      <use x="165.740234" xlink:href="#DejaVuSans-112"/>
      <use x="229.216797" xlink:href="#DejaVuSans-95"/>
      <use x="279.216797" xlink:href="#DejaVuSans-114"/>
      <use x="320.330078" xlink:href="#DejaVuSans-97"/>
      <use x="381.609375" xlink:href="#DejaVuSans-116"/>
      <use x="420.818359" xlink:href="#DejaVuSans-101"/>
     </g>
    </g>
   </g>
  </g>
  <g id="text_17">
   <!-- result droprate -->
   <defs>
    <path d="M 44.28125 53.078125 
L 44.28125 44.578125 
Q 40.484375 46.53125 36.375 47.5 
Q 32.28125 48.484375 27.875 48.484375 
Q 21.1875 48.484375 17.84375 46.4375 
Q 14.5 44.390625 14.5 40.28125 
Q 14.5 37.15625 16.890625 35.375 
Q 19.28125 33.59375 26.515625 31.984375 
L 29.59375 31.296875 
Q 39.15625 29.25 43.1875 25.515625 
Q 47.21875 21.78125 47.21875 15.09375 
Q 47.21875 7.46875 41.1875 3.015625 
Q 35.15625 -1.421875 24.609375 -1.421875 
Q 20.21875 -1.421875 15.453125 -0.5625 
Q 10.6875 0.296875 5.421875 2 
L 5.421875 11.28125 
Q 10.40625 8.6875 15.234375 7.390625 
Q 20.0625 6.109375 24.8125 6.109375 
Q 31.15625 6.109375 34.5625 8.28125 
Q 37.984375 10.453125 37.984375 14.40625 
Q 37.984375 18.0625 35.515625 20.015625 
Q 33.0625 21.96875 24.703125 23.78125 
L 21.578125 24.515625 
Q 13.234375 26.265625 9.515625 29.90625 
Q 5.8125 33.546875 5.8125 39.890625 
Q 5.8125 47.609375 11.28125 51.796875 
Q 16.75 56 26.8125 56 
Q 31.78125 56 36.171875 55.265625 
Q 40.578125 54.546875 44.28125 53.078125 
z
" id="DejaVuSans-115"/>
    <path d="M 8.5 21.578125 
L 8.5 54.6875 
L 17.484375 54.6875 
L 17.484375 21.921875 
Q 17.484375 14.15625 20.5 10.265625 
Q 23.53125 6.390625 29.59375 6.390625 
Q 36.859375 6.390625 41.078125 11.03125 
Q 45.3125 15.671875 45.3125 23.6875 
L 45.3125 54.6875 
L 54.296875 54.6875 
L 54.296875 0 
L 45.3125 0 
L 45.3125 8.40625 
Q 42.046875 3.421875 37.71875 1 
Q 33.40625 -1.421875 27.6875 -1.421875 
Q 18.265625 -1.421875 13.375 4.4375 
Q 8.5 10.296875 8.5 21.578125 
z
M 31.109375 56 
z
" id="DejaVuSans-117"/>
    <path d="M 9.421875 75.984375 
L 18.40625 75.984375 
L 18.40625 0 
L 9.421875 0 
z
" id="DejaVuSans-108"/>
    <path id="DejaVuSans-32"/>
   </defs>
   <g transform="translate(297.047813 17.038125)scale(0.12 -0.12)">
    <use xlink:href="#DejaVuSans-114"/>
    <use x="41.082031" xlink:href="#DejaVuSans-101"/>
    <use x="102.605469" xlink:href="#DejaVuSans-115"/>
    <use x="154.705078" xlink:href="#DejaVuSans-117"/>
    <use x="218.083984" xlink:href="#DejaVuSans-108"/>
    <use x="245.867188" xlink:href="#DejaVuSans-116"/>
    <use x="285.076172" xlink:href="#DejaVuSans-32"/>
    <use x="316.863281" xlink:href="#DejaVuSans-100"/>
    <use x="380.339844" xlink:href="#DejaVuSans-114"/>
    <use x="421.421875" xlink:href="#DejaVuSans-111"/>
    <use x="482.603516" xlink:href="#DejaVuSans-112"/>
    <use x="546.080078" xlink:href="#DejaVuSans-114"/>
    <use x="587.193359" xlink:href="#DejaVuSans-97"/>
    <use x="648.472656" xlink:href="#DejaVuSans-116"/>
    <use x="687.681641" xlink:href="#DejaVuSans-101"/>
   </g>
  </g>
 </g>
 <defs>
  <clipPath id="p1d376c0117">
   <rect height="317.111667" width="449.860625" x="66.158594" y="35.0625"/>
  </clipPath>
 </defs>
</svg>
