<?xml version="1.0" encoding="utf-8" standalone="no"?>
<!DOCTYPE svg PUBLIC "-//W3C//DTD SVG 1.1//EN"
  "http://www.w3.org/Graphics/SVG/1.1/DTD/svg11.dtd">
<!-- Created with matplotlib (https://matplotlib.org/) -->
<svg height="396pt" version="1.1" viewBox="0 0 684 396" width="684pt" xmlns="http://www.w3.org/2000/svg" xmlns:xlink="http://www.w3.org/1999/xlink">
 <defs>
  <style type="text/css">
*{stroke-linecap:butt;stroke-linejoin:round;}
  </style>
 </defs>
 <g id="figure_1">
  <g id="patch_1">
   <path d="M 0 396 
L 684 396 
L 684 0 
L 0 0 
z
" style="fill:#ffffff;"/>
  </g>
  <g id="axes_1">
   <g id="patch_2">
    <path d="M 120.878594 352.174167 
L 540.734062 352.174167 
L 540.734062 35.0625 
L 120.878594 35.0625 
z
" style="fill:#ffffff;"/>
   </g>
   <g id="matplotlib.axis_1">
    <g id="xtick_1">
     <g id="line2d_1">
      <defs>
       <path d="M 0 0 
L 0 3.5 
" id="m5884d20370" style="stroke:#000000;stroke-width:0.8;"/>
      </defs>
      <g>
       <use style="stroke:#000000;stroke-width:0.8;" x="144.781926" xlink:href="#m5884d20370" y="352.174167"/>
      </g>
     </g>
     <g id="text_1">
      <!-- 0 -->
      <defs>
       <path d="M 31.78125 66.40625 
Q 24.171875 66.40625 20.328125 58.90625 
Q 16.5 51.421875 16.5 36.375 
Q 16.5 21.390625 20.328125 13.890625 
Q 24.171875 6.390625 31.78125 6.390625 
Q 39.453125 6.390625 43.28125 13.890625 
Q 47.125 21.390625 47.125 36.375 
Q 47.125 51.421875 43.28125 58.90625 
Q 39.453125 66.40625 31.78125 66.40625 
z
M 31.78125 74.21875 
Q 44.046875 74.21875 50.515625 64.515625 
Q 56.984375 54.828125 56.984375 36.375 
Q 56.984375 17.96875 50.515625 8.265625 
Q 44.046875 -1.421875 31.78125 -1.421875 
Q 19.53125 -1.421875 13.0625 8.265625 
Q 6.59375 17.96875 6.59375 36.375 
Q 6.59375 54.828125 13.0625 64.515625 
Q 19.53125 74.21875 31.78125 74.21875 
z
" id="DejaVuSans-48"/>
      </defs>
      <g transform="translate(141.600676 366.772604)scale(0.1 -0.1)">
       <use xlink:href="#DejaVuSans-48"/>
      </g>
     </g>
    </g>
    <g id="xtick_2">
     <g id="line2d_2">
      <g>
       <use style="stroke:#000000;stroke-width:0.8;" x="211.680316" xlink:href="#m5884d20370" y="352.174167"/>
      </g>
     </g>
     <g id="text_2">
      <!-- 50 -->
      <defs>
       <path d="M 10.796875 72.90625 
L 49.515625 72.90625 
L 49.515625 64.59375 
L 19.828125 64.59375 
L 19.828125 46.734375 
Q 21.96875 47.46875 24.109375 47.828125 
Q 26.265625 48.1875 28.421875 48.1875 
Q 40.625 48.1875 47.75 41.5 
Q 54.890625 34.8125 54.890625 23.390625 
Q 54.890625 11.625 47.5625 5.09375 
Q 40.234375 -1.421875 26.90625 -1.421875 
Q 22.3125 -1.421875 17.546875 -0.640625 
Q 12.796875 0.140625 7.71875 1.703125 
L 7.71875 11.625 
Q 12.109375 9.234375 16.796875 8.0625 
Q 21.484375 6.890625 26.703125 6.890625 
Q 35.15625 6.890625 40.078125 11.328125 
Q 45.015625 15.765625 45.015625 23.390625 
Q 45.015625 31 40.078125 35.4375 
Q 35.15625 39.890625 26.703125 39.890625 
Q 22.75 39.890625 18.8125 39.015625 
Q 14.890625 38.140625 10.796875 36.28125 
z
" id="DejaVuSans-53"/>
      </defs>
      <g transform="translate(205.317816 366.772604)scale(0.1 -0.1)">
       <use xlink:href="#DejaVuSans-53"/>
       <use x="63.623047" xlink:href="#DejaVuSans-48"/>
      </g>
     </g>
    </g>
    <g id="xtick_3">
     <g id="line2d_3">
      <g>
       <use style="stroke:#000000;stroke-width:0.8;" x="278.578706" xlink:href="#m5884d20370" y="352.174167"/>
      </g>
     </g>
     <g id="text_3">
      <!-- 100 -->
      <defs>
       <path d="M 12.40625 8.296875 
L 28.515625 8.296875 
L 28.515625 63.921875 
L 10.984375 60.40625 
L 10.984375 69.390625 
L 28.421875 72.90625 
L 38.28125 72.90625 
L 38.28125 8.296875 
L 54.390625 8.296875 
L 54.390625 0 
L 12.40625 0 
z
" id="DejaVuSans-49"/>
      </defs>
      <g transform="translate(269.034956 366.772604)scale(0.1 -0.1)">
       <use xlink:href="#DejaVuSans-49"/>
       <use x="63.623047" xlink:href="#DejaVuSans-48"/>
       <use x="127.246094" xlink:href="#DejaVuSans-48"/>
      </g>
     </g>
    </g>
    <g id="xtick_4">
     <g id="line2d_4">
      <g>
       <use style="stroke:#000000;stroke-width:0.8;" x="345.477096" xlink:href="#m5884d20370" y="352.174167"/>
      </g>
     </g>
     <g id="text_4">
      <!-- 150 -->
      <g transform="translate(335.933346 366.772604)scale(0.1 -0.1)">
       <use xlink:href="#DejaVuSans-49"/>
       <use x="63.623047" xlink:href="#DejaVuSans-53"/>
       <use x="127.246094" xlink:href="#DejaVuSans-48"/>
      </g>
     </g>
    </g>
    <g id="xtick_5">
     <g id="line2d_5">
      <g>
       <use style="stroke:#000000;stroke-width:0.8;" x="412.375485" xlink:href="#m5884d20370" y="352.174167"/>
      </g>
     </g>
     <g id="text_5">
      <!-- 200 -->
      <defs>
       <path d="M 19.1875 8.296875 
L 53.609375 8.296875 
L 53.609375 0 
L 7.328125 0 
L 7.328125 8.296875 
Q 12.9375 14.109375 22.625 23.890625 
Q 32.328125 33.6875 34.8125 36.53125 
Q 39.546875 41.84375 41.421875 45.53125 
Q 43.3125 49.21875 43.3125 52.78125 
Q 43.3125 58.59375 39.234375 62.25 
Q 35.15625 65.921875 28.609375 65.921875 
Q 23.96875 65.921875 18.8125 64.3125 
Q 13.671875 62.703125 7.8125 59.421875 
L 7.8125 69.390625 
Q 13.765625 71.78125 18.9375 73 
Q 24.125 74.21875 28.421875 74.21875 
Q 39.75 74.21875 46.484375 68.546875 
Q 53.21875 62.890625 53.21875 53.421875 
Q 53.21875 48.921875 51.53125 44.890625 
Q 49.859375 40.875 45.40625 35.40625 
Q 44.1875 33.984375 37.640625 27.21875 
Q 31.109375 20.453125 19.1875 8.296875 
z
" id="DejaVuSans-50"/>
      </defs>
      <g transform="translate(402.831735 366.772604)scale(0.1 -0.1)">
       <use xlink:href="#DejaVuSans-50"/>
       <use x="63.623047" xlink:href="#DejaVuSans-48"/>
       <use x="127.246094" xlink:href="#DejaVuSans-48"/>
      </g>
     </g>
    </g>
    <g id="xtick_6">
     <g id="line2d_6">
      <g>
       <use style="stroke:#000000;stroke-width:0.8;" x="479.273875" xlink:href="#m5884d20370" y="352.174167"/>
      </g>
     </g>
     <g id="text_6">
      <!-- 250 -->
      <g transform="translate(469.730125 366.772604)scale(0.1 -0.1)">
       <use xlink:href="#DejaVuSans-50"/>
       <use x="63.623047" xlink:href="#DejaVuSans-53"/>
       <use x="127.246094" xlink:href="#DejaVuSans-48"/>
      </g>
     </g>
    </g>
   </g>
   <g id="matplotlib.axis_2">
    <g id="ytick_1">
     <g id="line2d_7">
      <defs>
       <path d="M 0 0 
L -3.5 0 
" id="mba0a2a55f1" style="stroke:#000000;stroke-width:0.8;"/>
      </defs>
      <g>
       <use style="stroke:#000000;stroke-width:0.8;" x="120.878594" xlink:href="#mba0a2a55f1" y="352.174167"/>
      </g>
     </g>
     <g id="text_7">
      <!-- 0 -->
      <g transform="translate(107.516094 355.973385)scale(0.1 -0.1)">
       <use xlink:href="#DejaVuSans-48"/>
      </g>
     </g>
    </g>
    <g id="ytick_2">
     <g id="line2d_8">
      <g>
       <use style="stroke:#000000;stroke-width:0.8;" x="120.878594" xlink:href="#mba0a2a55f1" y="311.875391"/>
      </g>
     </g>
     <g id="text_8">
      <!-- 100000 -->
      <g transform="translate(75.703594 315.67461)scale(0.1 -0.1)">
       <use xlink:href="#DejaVuSans-49"/>
       <use x="63.623047" xlink:href="#DejaVuSans-48"/>
       <use x="127.246094" xlink:href="#DejaVuSans-48"/>
       <use x="190.869141" xlink:href="#DejaVuSans-48"/>
       <use x="254.492188" xlink:href="#DejaVuSans-48"/>
       <use x="318.115234" xlink:href="#DejaVuSans-48"/>
      </g>
     </g>
    </g>
    <g id="ytick_3">
     <g id="line2d_9">
      <g>
       <use style="stroke:#000000;stroke-width:0.8;" x="120.878594" xlink:href="#mba0a2a55f1" y="271.576616"/>
      </g>
     </g>
     <g id="text_9">
      <!-- 200000 -->
      <g transform="translate(75.703594 275.375835)scale(0.1 -0.1)">
       <use xlink:href="#DejaVuSans-50"/>
       <use x="63.623047" xlink:href="#DejaVuSans-48"/>
       <use x="127.246094" xlink:href="#DejaVuSans-48"/>
       <use x="190.869141" xlink:href="#DejaVuSans-48"/>
       <use x="254.492188" xlink:href="#DejaVuSans-48"/>
       <use x="318.115234" xlink:href="#DejaVuSans-48"/>
      </g>
     </g>
    </g>
    <g id="ytick_4">
     <g id="line2d_10">
      <g>
       <use style="stroke:#000000;stroke-width:0.8;" x="120.878594" xlink:href="#mba0a2a55f1" y="231.277841"/>
      </g>
     </g>
     <g id="text_10">
      <!-- 300000 -->
      <defs>
       <path d="M 40.578125 39.3125 
Q 47.65625 37.796875 51.625 33 
Q 55.609375 28.21875 55.609375 21.1875 
Q 55.609375 10.40625 48.1875 4.484375 
Q 40.765625 -1.421875 27.09375 -1.421875 
Q 22.515625 -1.421875 17.65625 -0.515625 
Q 12.796875 0.390625 7.625 2.203125 
L 7.625 11.71875 
Q 11.71875 9.328125 16.59375 8.109375 
Q 21.484375 6.890625 26.8125 6.890625 
Q 36.078125 6.890625 40.9375 10.546875 
Q 45.796875 14.203125 45.796875 21.1875 
Q 45.796875 27.640625 41.28125 31.265625 
Q 36.765625 34.90625 28.71875 34.90625 
L 20.21875 34.90625 
L 20.21875 43.015625 
L 29.109375 43.015625 
Q 36.375 43.015625 40.234375 45.921875 
Q 44.09375 48.828125 44.09375 54.296875 
Q 44.09375 59.90625 40.109375 62.90625 
Q 36.140625 65.921875 28.71875 65.921875 
Q 24.65625 65.921875 20.015625 65.03125 
Q 15.375 64.15625 9.8125 62.3125 
L 9.8125 71.09375 
Q 15.4375 72.65625 20.34375 73.4375 
Q 25.25 74.21875 29.59375 74.21875 
Q 40.828125 74.21875 47.359375 69.109375 
Q 53.90625 64.015625 53.90625 55.328125 
Q 53.90625 49.265625 50.4375 45.09375 
Q 46.96875 40.921875 40.578125 39.3125 
z
" id="DejaVuSans-51"/>
      </defs>
      <g transform="translate(75.703594 235.07706)scale(0.1 -0.1)">
       <use xlink:href="#DejaVuSans-51"/>
       <use x="63.623047" xlink:href="#DejaVuSans-48"/>
       <use x="127.246094" xlink:href="#DejaVuSans-48"/>
       <use x="190.869141" xlink:href="#DejaVuSans-48"/>
       <use x="254.492188" xlink:href="#DejaVuSans-48"/>
       <use x="318.115234" xlink:href="#DejaVuSans-48"/>
      </g>
     </g>
    </g>
    <g id="ytick_5">
     <g id="line2d_11">
      <g>
       <use style="stroke:#000000;stroke-width:0.8;" x="120.878594" xlink:href="#mba0a2a55f1" y="190.979066"/>
      </g>
     </g>
     <g id="text_11">
      <!-- 400000 -->
      <defs>
       <path d="M 37.796875 64.3125 
L 12.890625 25.390625 
L 37.796875 25.390625 
z
M 35.203125 72.90625 
L 47.609375 72.90625 
L 47.609375 25.390625 
L 58.015625 25.390625 
L 58.015625 17.1875 
L 47.609375 17.1875 
L 47.609375 0 
L 37.796875 0 
L 37.796875 17.1875 
L 4.890625 17.1875 
L 4.890625 26.703125 
z
" id="DejaVuSans-52"/>
      </defs>
      <g transform="translate(75.703594 194.778285)scale(0.1 -0.1)">
       <use xlink:href="#DejaVuSans-52"/>
       <use x="63.623047" xlink:href="#DejaVuSans-48"/>
       <use x="127.246094" xlink:href="#DejaVuSans-48"/>
       <use x="190.869141" xlink:href="#DejaVuSans-48"/>
       <use x="254.492188" xlink:href="#DejaVuSans-48"/>
       <use x="318.115234" xlink:href="#DejaVuSans-48"/>
      </g>
     </g>
    </g>
    <g id="ytick_6">
     <g id="line2d_12">
      <g>
       <use style="stroke:#000000;stroke-width:0.8;" x="120.878594" xlink:href="#mba0a2a55f1" y="150.680291"/>
      </g>
     </g>
     <g id="text_12">
      <!-- 500000 -->
      <g transform="translate(75.703594 154.479509)scale(0.1 -0.1)">
       <use xlink:href="#DejaVuSans-53"/>
       <use x="63.623047" xlink:href="#DejaVuSans-48"/>
       <use x="127.246094" xlink:href="#DejaVuSans-48"/>
       <use x="190.869141" xlink:href="#DejaVuSans-48"/>
       <use x="254.492188" xlink:href="#DejaVuSans-48"/>
       <use x="318.115234" xlink:href="#DejaVuSans-48"/>
      </g>
     </g>
    </g>
    <g id="ytick_7">
     <g id="line2d_13">
      <g>
       <use style="stroke:#000000;stroke-width:0.8;" x="120.878594" xlink:href="#mba0a2a55f1" y="110.381515"/>
      </g>
     </g>
     <g id="text_13">
      <!-- 600000 -->
      <defs>
       <path d="M 33.015625 40.375 
Q 26.375 40.375 22.484375 35.828125 
Q 18.609375 31.296875 18.609375 23.390625 
Q 18.609375 15.53125 22.484375 10.953125 
Q 26.375 6.390625 33.015625 6.390625 
Q 39.65625 6.390625 43.53125 10.953125 
Q 47.40625 15.53125 47.40625 23.390625 
Q 47.40625 31.296875 43.53125 35.828125 
Q 39.65625 40.375 33.015625 40.375 
z
M 52.59375 71.296875 
L 52.59375 62.3125 
Q 48.875 64.0625 45.09375 64.984375 
Q 41.3125 65.921875 37.59375 65.921875 
Q 27.828125 65.921875 22.671875 59.328125 
Q 17.53125 52.734375 16.796875 39.40625 
Q 19.671875 43.65625 24.015625 45.921875 
Q 28.375 48.1875 33.59375 48.1875 
Q 44.578125 48.1875 50.953125 41.515625 
Q 57.328125 34.859375 57.328125 23.390625 
Q 57.328125 12.15625 50.6875 5.359375 
Q 44.046875 -1.421875 33.015625 -1.421875 
Q 20.359375 -1.421875 13.671875 8.265625 
Q 6.984375 17.96875 6.984375 36.375 
Q 6.984375 53.65625 15.1875 63.9375 
Q 23.390625 74.21875 37.203125 74.21875 
Q 40.921875 74.21875 44.703125 73.484375 
Q 48.484375 72.75 52.59375 71.296875 
z
" id="DejaVuSans-54"/>
      </defs>
      <g transform="translate(75.703594 114.180734)scale(0.1 -0.1)">
       <use xlink:href="#DejaVuSans-54"/>
       <use x="63.623047" xlink:href="#DejaVuSans-48"/>
       <use x="127.246094" xlink:href="#DejaVuSans-48"/>
       <use x="190.869141" xlink:href="#DejaVuSans-48"/>
       <use x="254.492188" xlink:href="#DejaVuSans-48"/>
       <use x="318.115234" xlink:href="#DejaVuSans-48"/>
      </g>
     </g>
    </g>
    <g id="ytick_8">
     <g id="line2d_14">
      <g>
       <use style="stroke:#000000;stroke-width:0.8;" x="120.878594" xlink:href="#mba0a2a55f1" y="70.08274"/>
      </g>
     </g>
     <g id="text_14">
      <!-- 700000 -->
      <defs>
       <path d="M 8.203125 72.90625 
L 55.078125 72.90625 
L 55.078125 68.703125 
L 28.609375 0 
L 18.3125 0 
L 43.21875 64.59375 
L 8.203125 64.59375 
z
" id="DejaVuSans-55"/>
      </defs>
      <g transform="translate(75.703594 73.881959)scale(0.1 -0.1)">
       <use xlink:href="#DejaVuSans-55"/>
       <use x="63.623047" xlink:href="#DejaVuSans-48"/>
       <use x="127.246094" xlink:href="#DejaVuSans-48"/>
       <use x="190.869141" xlink:href="#DejaVuSans-48"/>
       <use x="254.492188" xlink:href="#DejaVuSans-48"/>
       <use x="318.115234" xlink:href="#DejaVuSans-48"/>
      </g>
     </g>
    </g>
    <g id="text_15">
     <!-- queue -->
     <defs>
      <path d="M 14.796875 27.296875 
Q 14.796875 17.390625 18.875 11.75 
Q 22.953125 6.109375 30.078125 6.109375 
Q 37.203125 6.109375 41.296875 11.75 
Q 45.40625 17.390625 45.40625 27.296875 
Q 45.40625 37.203125 41.296875 42.84375 
Q 37.203125 48.484375 30.078125 48.484375 
Q 22.953125 48.484375 18.875 42.84375 
Q 14.796875 37.203125 14.796875 27.296875 
z
M 45.40625 8.203125 
Q 42.578125 3.328125 38.25 0.953125 
Q 33.9375 -1.421875 27.875 -1.421875 
Q 17.96875 -1.421875 11.734375 6.484375 
Q 5.515625 14.40625 5.515625 27.296875 
Q 5.515625 40.1875 11.734375 48.09375 
Q 17.96875 56 27.875 56 
Q 33.9375 56 38.25 53.625 
Q 42.578125 51.265625 45.40625 46.390625 
L 45.40625 54.6875 
L 54.390625 54.6875 
L 54.390625 -20.796875 
L 45.40625 -20.796875 
z
" id="DejaVuSans-113"/>
      <path d="M 8.5 21.578125 
L 8.5 54.6875 
L 17.484375 54.6875 
L 17.484375 21.921875 
Q 17.484375 14.15625 20.5 10.265625 
Q 23.53125 6.390625 29.59375 6.390625 
Q 36.859375 6.390625 41.078125 11.03125 
Q 45.3125 15.671875 45.3125 23.6875 
L 45.3125 54.6875 
L 54.296875 54.6875 
L 54.296875 0 
L 45.3125 0 
L 45.3125 8.40625 
Q 42.046875 3.421875 37.71875 1 
Q 33.40625 -1.421875 27.6875 -1.421875 
Q 18.265625 -1.421875 13.375 4.4375 
Q 8.5 10.296875 8.5 21.578125 
z
M 31.109375 56 
z
" id="DejaVuSans-117"/>
      <path d="M 56.203125 29.59375 
L 56.203125 25.203125 
L 14.890625 25.203125 
Q 15.484375 15.921875 20.484375 11.0625 
Q 25.484375 6.203125 34.421875 6.203125 
Q 39.59375 6.203125 44.453125 7.46875 
Q 49.3125 8.734375 54.109375 11.28125 
L 54.109375 2.78125 
Q 49.265625 0.734375 44.1875 -0.34375 
Q 39.109375 -1.421875 33.890625 -1.421875 
Q 20.796875 -1.421875 13.15625 6.1875 
Q 5.515625 13.8125 5.515625 26.8125 
Q 5.515625 40.234375 12.765625 48.109375 
Q 20.015625 56 32.328125 56 
Q 43.359375 56 49.78125 48.890625 
Q 56.203125 41.796875 56.203125 29.59375 
z
M 47.21875 32.234375 
Q 47.125 39.59375 43.09375 43.984375 
Q 39.0625 48.390625 32.421875 48.390625 
Q 24.90625 48.390625 20.390625 44.140625 
Q 15.875 39.890625 15.1875 32.171875 
z
" id="DejaVuSans-101"/>
     </defs>
     <g transform="translate(58.426094 209.283177)rotate(-90)scale(0.1 -0.1)">
      <use xlink:href="#DejaVuSans-113"/>
      <use x="63.476562" xlink:href="#DejaVuSans-117"/>
      <use x="126.855469" xlink:href="#DejaVuSans-101"/>
      <use x="188.378906" xlink:href="#DejaVuSans-117"/>
      <use x="251.757812" xlink:href="#DejaVuSans-101"/>
     </g>
     <!-- (bytes) -->
     <defs>
      <path d="M 31 75.875 
Q 24.46875 64.65625 21.28125 53.65625 
Q 18.109375 42.671875 18.109375 31.390625 
Q 18.109375 20.125 21.3125 9.0625 
Q 24.515625 -2 31 -13.1875 
L 23.1875 -13.1875 
Q 15.875 -1.703125 12.234375 9.375 
Q 8.59375 20.453125 8.59375 31.390625 
Q 8.59375 42.28125 12.203125 53.3125 
Q 15.828125 64.359375 23.1875 75.875 
z
" id="DejaVuSans-40"/>
      <path d="M 48.6875 27.296875 
Q 48.6875 37.203125 44.609375 42.84375 
Q 40.53125 48.484375 33.40625 48.484375 
Q 26.265625 48.484375 22.1875 42.84375 
Q 18.109375 37.203125 18.109375 27.296875 
Q 18.109375 17.390625 22.1875 11.75 
Q 26.265625 6.109375 33.40625 6.109375 
Q 40.53125 6.109375 44.609375 11.75 
Q 48.6875 17.390625 48.6875 27.296875 
z
M 18.109375 46.390625 
Q 20.953125 51.265625 25.265625 53.625 
Q 29.59375 56 35.59375 56 
Q 45.5625 56 51.78125 48.09375 
Q 58.015625 40.1875 58.015625 27.296875 
Q 58.015625 14.40625 51.78125 6.484375 
Q 45.5625 -1.421875 35.59375 -1.421875 
Q 29.59375 -1.421875 25.265625 0.953125 
Q 20.953125 3.328125 18.109375 8.203125 
L 18.109375 0 
L 9.078125 0 
L 9.078125 75.984375 
L 18.109375 75.984375 
z
" id="DejaVuSans-98"/>
      <path d="M 32.171875 -5.078125 
Q 28.375 -14.84375 24.75 -17.8125 
Q 21.140625 -20.796875 15.09375 -20.796875 
L 7.90625 -20.796875 
L 7.90625 -13.28125 
L 13.1875 -13.28125 
Q 16.890625 -13.28125 18.9375 -11.515625 
Q 21 -9.765625 23.484375 -3.21875 
L 25.09375 0.875 
L 2.984375 54.6875 
L 12.5 54.6875 
L 29.59375 11.921875 
L 46.6875 54.6875 
L 56.203125 54.6875 
z
" id="DejaVuSans-121"/>
      <path d="M 18.3125 70.21875 
L 18.3125 54.6875 
L 36.8125 54.6875 
L 36.8125 47.703125 
L 18.3125 47.703125 
L 18.3125 18.015625 
Q 18.3125 11.328125 20.140625 9.421875 
Q 21.96875 7.515625 27.59375 7.515625 
L 36.8125 7.515625 
L 36.8125 0 
L 27.59375 0 
Q 17.1875 0 13.234375 3.875 
Q 9.28125 7.765625 9.28125 18.015625 
L 9.28125 47.703125 
L 2.6875 47.703125 
L 2.6875 54.6875 
L 9.28125 54.6875 
L 9.28125 70.21875 
z
" id="DejaVuSans-116"/>
      <path d="M 44.28125 53.078125 
L 44.28125 44.578125 
Q 40.484375 46.53125 36.375 47.5 
Q 32.28125 48.484375 27.875 48.484375 
Q 21.1875 48.484375 17.84375 46.4375 
Q 14.5 44.390625 14.5 40.28125 
Q 14.5 37.15625 16.890625 35.375 
Q 19.28125 33.59375 26.515625 31.984375 
L 29.59375 31.296875 
Q 39.15625 29.25 43.1875 25.515625 
Q 47.21875 21.78125 47.21875 15.09375 
Q 47.21875 7.46875 41.1875 3.015625 
Q 35.15625 -1.421875 24.609375 -1.421875 
Q 20.21875 -1.421875 15.453125 -0.5625 
Q 10.6875 0.296875 5.421875 2 
L 5.421875 11.28125 
Q 10.40625 8.6875 15.234375 7.390625 
Q 20.0625 6.109375 24.8125 6.109375 
Q 31.15625 6.109375 34.5625 8.28125 
Q 37.984375 10.453125 37.984375 14.40625 
Q 37.984375 18.0625 35.515625 20.015625 
Q 33.0625 21.96875 24.703125 23.78125 
L 21.578125 24.515625 
Q 13.234375 26.265625 9.515625 29.90625 
Q 5.8125 33.546875 5.8125 39.890625 
Q 5.8125 47.609375 11.28125 51.796875 
Q 16.75 56 26.8125 56 
Q 31.78125 56 36.171875 55.265625 
Q 40.578125 54.546875 44.28125 53.078125 
z
" id="DejaVuSans-115"/>
      <path d="M 8.015625 75.875 
L 15.828125 75.875 
Q 23.140625 64.359375 26.78125 53.3125 
Q 30.421875 42.28125 30.421875 31.390625 
Q 30.421875 20.453125 26.78125 9.375 
Q 23.140625 -1.703125 15.828125 -13.1875 
L 8.015625 -13.1875 
Q 14.5 -2 17.703125 9.0625 
Q 20.90625 20.125 20.90625 31.390625 
Q 20.90625 42.671875 17.703125 53.65625 
Q 14.5 64.65625 8.015625 75.875 
z
" id="DejaVuSans-41"/>
     </defs>
     <g transform="translate(69.623906 211.294896)rotate(-90)scale(0.1 -0.1)">
      <use xlink:href="#DejaVuSans-40"/>
      <use x="39.013672" xlink:href="#DejaVuSans-98"/>
      <use x="102.490234" xlink:href="#DejaVuSans-121"/>
      <use x="161.669922" xlink:href="#DejaVuSans-116"/>
      <use x="200.878906" xlink:href="#DejaVuSans-101"/>
      <use x="262.402344" xlink:href="#DejaVuSans-115"/>
      <use x="314.501953" xlink:href="#DejaVuSans-41"/>
     </g>
    </g>
   </g>
   <g id="line2d_15">
    <path clip-path="url(#p679890ed42)" d="M 139.962933 352.174167 
L 144.261641 352.174167 
L 144.403133 310.685772 
L 144.685581 75.178117 
L 144.826033 59.314907 
L 144.971775 337.531204 
L 145.25364 260.655648 
L 145.394188 262.486019 
L 145.67562 238.692816 
L 145.957211 50.163056 
L 146.099172 52.603549 
L 146.239729 174.46624 
L 146.382578 61.755401 
L 146.523111 167.302729 
L 146.663742 50.773179 
L 146.804788 85.550216 
L 146.945804 53.506242 
L 147.087287 57.45794 
L 147.23046 105.074167 
L 147.372124 50.773179 
L 147.5128 97.752685 
L 147.653431 50.773179 
L 147.794764 50.773179 
L 147.93514 50.163056 
L 148.076431 50.773179 
L 148.217657 50.743358 
L 148.358691 69.687006 
L 148.500583 131.598821 
L 148.641291 52.603549 
L 148.782009 58.704784 
L 148.922831 51.993426 
L 149.204009 50.773179 
L 149.344789 53.821378 
L 149.485848 50.295236 
L 149.626916 54.407323 
L 149.768812 76.371767 
L 149.909873 73.95787 
L 150.050639 56.26429 
L 150.191379 68.466759 
L 150.332111 52.603549 
L 150.472538 73.347747 
L 150.613156 50.773179 
L 151.035019 50.773179 
L 151.175854 51.092345 
L 151.31697 56.874414 
L 151.598071 50.773179 
L 151.738374 51.383302 
L 151.879579 51.383302 
L 152.020015 51.993426 
L 152.161297 51.383302 
L 152.584627 51.383302 
L 152.725388 51.993426 
L 152.867179 50.773179 
L 153.149384 50.773179 
L 153.29106 51.383302 
L 153.432111 52.858238 
L 153.714879 50.163056 
L 153.856187 51.383302 
L 153.996974 51.383302 
L 154.137475 50.707895 
L 154.278399 51.276108 
L 154.41947 50.28234 
L 154.560238 51.085898 
L 154.701096 50.773179 
L 154.842116 51.383302 
L 155.126577 51.383302 
L 155.267406 50.773179 
L 155.408058 50.746582 
L 155.548691 53.213673 
L 155.689381 50.163056 
L 155.829984 51.383302 
L 155.970332 51.40587 
L 156.110915 83.109722 
L 156.251285 51.383302 
L 156.391994 53.213673 
L 156.533428 59.925031 
L 156.674121 51.383302 
L 156.814854 53.821378 
L 157.095741 50.773179 
L 157.236091 51.993426 
L 157.376434 56.26429 
L 157.517307 69.502438 
L 157.657836 50.773179 
L 157.799124 72.1275 
L 157.9397 50.773179 
L 158.080325 51.993426 
L 158.221881 50.773179 
L 158.503217 50.773179 
L 158.643738 50.163056 
L 158.92516 51.993426 
L 159.207207 59.925031 
L 159.348539 58.09466 
L 159.489183 51.383302 
L 159.629928 52.603549 
L 159.770693 51.383302 
L 159.911161 51.993426 
L 160.052032 50.773179 
L 160.192904 50.773179 
L 160.333583 51.383302 
L 160.617264 51.383302 
L 160.758449 52.528594 
L 161.039911 87.99071 
L 161.180413 83.109722 
L 161.321124 50.211414 
L 161.462387 51.383302 
L 161.60329 50.163056 
L 161.744872 51.383302 
L 161.885695 50.773179 
L 162.027163 51.993426 
L 162.167995 92.261574 
L 162.449543 50.163056 
L 162.591092 51.993426 
L 162.731393 50.773179 
L 162.872025 51.993426 
L 163.01318 51.993426 
L 163.296661 50.773179 
L 163.437615 51.383302 
L 163.861071 51.383302 
L 164.001352 50.163056 
L 164.141771 50.163056 
L 164.282391 53.213673 
L 164.564568 50.773179 
L 164.705496 50.773179 
L 164.845811 52.603549 
L 164.986862 50.163056 
L 165.269506 51.993426 
L 165.410603 50.773179 
L 165.551283 51.993426 
L 165.694139 50.163056 
L 165.976762 52.603549 
L 166.117215 50.163056 
L 166.398804 52.603549 
L 166.539299 51.993426 
L 166.82029 53.213673 
L 166.960918 50.163056 
L 167.102485 51.993426 
L 167.244911 51.993426 
L 167.386512 50.773179 
L 167.808251 52.603549 
L 167.948694 51.383302 
L 168.089038 53.213673 
L 168.230159 53.213673 
L 168.371124 51.383302 
L 168.653613 52.603549 
L 168.934787 50.773179 
L 169.075186 51.383302 
L 169.356794 51.383302 
L 169.497371 50.773179 
L 169.638102 51.993426 
L 169.778713 50.163056 
L 169.920843 50.773179 
L 170.061828 50.773179 
L 170.202819 51.383302 
L 170.625522 51.383302 
L 170.766215 50.773179 
L 171.048155 51.993426 
L 171.189904 54.43392 
L 171.471196 51.383302 
L 171.753771 51.383302 
L 171.895945 51.993426 
L 172.036519 51.383302 
L 172.177086 51.993426 
L 172.461023 50.163056 
L 172.601746 51.993426 
L 172.742662 50.773179 
L 172.883538 53.213673 
L 173.165195 51.993426 
L 173.306129 51.993426 
L 173.446691 50.773179 
L 173.587773 51.383302 
L 173.728635 51.383302 
L 173.871242 50.773179 
L 174.013108 50.773179 
L 174.154209 51.993426 
L 174.295068 51.383302 
L 174.436016 50.163056 
L 174.576755 50.773179 
L 174.717599 352.174167 
L 175.010809 352.174167 
L 175.152956 341.802068 
L 175.435897 87.380586 
L 175.71755 81.279352 
L 175.858494 81.279352 
L 175.999459 91.651451 
L 176.421318 157.544784 
L 176.562699 168.527006 
L 176.703798 156.93466 
L 176.844652 168.527006 
L 176.985465 156.324537 
L 177.126731 178.288981 
L 177.267869 167.916883 
L 177.408997 177.068735 
L 177.69114 158.154907 
L 177.832911 164.866265 
L 177.974274 156.324537 
L 178.115093 162.425772 
L 178.255734 161.815648 
L 178.396798 158.154907 
L 178.537869 157.544784 
L 178.678756 164.866265 
L 178.819474 154.494167 
L 178.960421 166.086512 
L 179.101435 156.93466 
L 179.242908 162.425772 
L 179.524268 154.494167 
L 179.665439 156.93466 
L 179.80668 144.732191 
L 179.947664 159.375154 
L 180.088198 145.342315 
L 180.229009 153.884043 
L 180.369822 140.461327 
L 180.65193 152.663796 
L 180.793329 156.93466 
L 180.933943 145.342315 
L 181.075502 154.494167 
L 181.216153 150.223302 
L 181.356682 159.375154 
L 181.638186 142.291698 
L 181.780321 148.392932 
L 181.923277 138.020833 
L 182.065023 149.613179 
L 182.20595 136.190463 
L 182.347455 139.241886 
L 182.488374 138.020833 
L 182.629266 145.342315 
L 182.770777 139.851204 
L 182.911504 139.241886 
L 183.052605 127.648735 
L 183.195521 140.461327 
L 183.337474 127.648735 
L 183.479317 140.461327 
L 183.620233 128.258858 
L 183.761415 128.868981 
L 184.043078 122.767747 
L 184.184631 132.529722 
L 184.468397 117.276636 
L 184.752833 114.226019 
L 184.89402 120.937377 
L 185.034892 119.71713 
L 185.1764 131.919599 
L 185.458092 106.904537 
L 185.599076 130.699352 
L 185.741003 106.904537 
L 185.88291 115.42934 
L 186.024657 112.395648 
L 186.165388 99.583056 
L 186.305853 108.734907 
L 186.449358 102.023549 
L 186.590308 116.666512 
L 186.871404 89.82108 
L 187.012814 103.243796 
L 187.153855 100.803302 
L 187.295759 102.006624 
L 187.437945 104.464043 
L 187.719619 75.178117 
L 187.860959 97.752685 
L 188.00181 95.922315 
L 188.142175 75.788241 
L 188.28303 95.312191 
L 188.425173 349.733673 
L 188.573133 352.174167 
L 188.722928 349.123549 
L 188.86465 253.334167 
L 189.005717 59.314907 
L 189.147301 56.874414 
L 189.42937 63.585772 
L 189.570226 58.704784 
L 190.277385 152.053673 
L 190.418386 144.122068 
L 190.559006 145.952438 
L 190.840969 164.256142 
L 190.982032 166.086512 
L 191.122618 164.866265 
L 191.265176 161.815648 
L 191.406673 162.425772 
L 191.548781 163.646019 
L 191.830538 159.375154 
L 191.971105 160.595401 
L 192.111656 163.646019 
L 192.252465 163.035895 
L 192.393489 158.765031 
L 192.535294 158.765031 
L 192.676026 151.443549 
L 192.817496 153.272308 
L 193.100365 150.223302 
L 193.241226 151.443549 
L 193.382703 167.302729 
L 193.806743 151.443549 
L 193.947768 161.205525 
L 194.088292 149.003056 
L 194.229973 156.324537 
L 194.371507 152.053673 
L 194.513395 160.595401 
L 194.655166 146.562562 
L 194.797111 155.10429 
L 194.939097 153.272308 
L 195.08025 156.93466 
L 195.222849 151.443549 
L 195.363955 163.035895 
L 195.505537 153.884043 
L 195.646989 160.595401 
L 195.788614 153.884043 
L 195.929768 164.256142 
L 196.071278 151.443549 
L 196.213027 162.425772 
L 196.35443 155.10429 
L 196.49639 162.425772 
L 196.638501 159.985278 
L 197.063155 169.13713 
L 197.205001 164.866265 
L 197.346724 164.256142 
L 197.488589 163.035895 
L 197.630132 157.544784 
L 197.770748 161.205525 
L 197.912497 154.494167 
L 198.053199 161.205525 
L 198.194297 157.544784 
L 198.334894 156.93466 
L 198.475662 156.93466 
L 198.616721 167.302729 
L 198.757467 158.765031 
L 198.898124 161.205525 
L 199.038745 154.494167 
L 199.179412 162.425772 
L 199.320969 149.613179 
L 199.462443 161.205525 
L 199.603795 152.053673 
L 199.744955 156.93466 
L 199.886139 153.272308 
L 200.026937 160.595401 
L 200.168076 155.714414 
L 200.30916 166.086512 
L 200.450578 159.375154 
L 200.592414 166.696636 
L 200.733438 161.205525 
L 200.874106 168.527006 
L 201.015492 159.375154 
L 201.156211 165.476389 
L 201.296901 157.544784 
L 201.437513 171.577623 
L 201.578266 158.765031 
L 201.718747 164.866265 
L 201.859365 158.765031 
L 202.000313 161.815648 
L 202.289301 352.174167 
L 202.437099 352.174167 
L 202.578244 341.191944 
L 202.999786 98.972932 
L 203.287971 96.532438 
L 203.429791 98.362809 
L 203.713145 151.443549 
L 203.853803 161.205525 
L 203.99486 160.595401 
L 204.135821 172.187747 
L 204.277469 164.866265 
L 204.418041 163.646019 
L 204.559593 166.086512 
L 204.70209 161.205525 
L 204.844203 170.357377 
L 204.984897 163.646019 
L 205.125865 165.476389 
L 205.267059 161.205525 
L 205.408077 168.527006 
L 205.54886 157.544784 
L 205.689928 166.696636 
L 205.830836 156.324537 
L 205.973763 170.9675 
L 206.115051 159.375154 
L 206.256895 173.407994 
L 206.397566 158.765031 
L 206.539257 173.407994 
L 206.680713 158.765031 
L 206.822693 172.79787 
L 206.96382 154.494167 
L 207.105365 167.916883 
L 207.247758 158.154907 
L 207.389153 167.916883 
L 207.530383 158.154907 
L 207.671512 168.527006 
L 207.812448 155.714414 
L 207.954527 166.696636 
L 208.096386 153.884043 
L 208.238258 161.205525 
L 208.380019 157.544784 
L 208.663308 163.035895 
L 208.805023 163.035895 
L 208.94683 164.866265 
L 209.088478 164.866265 
L 209.22983 169.13713 
L 209.371565 161.815648 
L 209.512948 164.866265 
L 209.654823 156.324537 
L 209.7966 166.086512 
L 209.939142 156.93466 
L 210.080314 167.302729 
L 210.221446 164.256142 
L 210.362935 168.527006 
L 210.504805 162.425772 
L 210.646536 168.527006 
L 210.7881 158.154907 
L 210.929955 169.13713 
L 211.071549 159.375154 
L 211.213753 167.302729 
L 211.355678 158.765031 
L 211.497941 167.302729 
L 211.640425 154.494167 
L 211.781898 163.035895 
L 211.923958 152.663796 
L 212.066027 162.425772 
L 212.208292 152.053673 
L 212.349403 163.646019 
L 212.491389 154.494167 
L 212.63354 161.205525 
L 212.775376 154.494167 
L 212.91631 161.205525 
L 213.05737 161.205525 
L 213.198159 164.866265 
L 213.339166 160.595401 
L 213.480211 163.646019 
L 213.62129 164.256142 
L 213.761999 163.035895 
L 213.902862 164.256142 
L 214.043889 161.815648 
L 214.185112 162.425772 
L 214.326932 162.425772 
L 214.467798 161.815648 
L 214.608804 163.646019 
L 214.750174 169.13713 
L 214.891182 164.866265 
L 215.031676 164.256142 
L 215.172566 164.866265 
L 215.45584 160.595401 
L 215.596372 167.302729 
L 215.737637 158.765031 
L 216.024062 352.174167 
L 216.170975 352.174167 
L 216.3137 342.412191 
L 216.737387 95.312191 
L 216.878522 97.142562 
L 217.019392 97.142562 
L 217.160566 95.922315 
L 217.441603 147.172685 
L 217.582473 164.256142 
L 217.723356 155.10429 
L 217.864197 172.187747 
L 218.006381 152.053673 
L 218.147065 172.187747 
L 218.288234 156.93466 
L 218.429087 170.357377 
L 218.570874 160.595401 
L 218.71169 171.577623 
L 218.852957 166.696636 
L 218.994324 171.577623 
L 219.134983 169.13713 
L 219.275817 169.13713 
L 219.417594 175.238364 
L 219.558249 164.866265 
L 219.698994 178.288981 
L 219.840031 169.13713 
L 219.980744 183.169969 
L 220.121349 170.357377 
L 220.261803 179.509228 
L 220.4029 166.086512 
L 220.544516 174.628241 
L 220.687233 162.425772 
L 220.828386 171.577623 
L 220.969462 155.10429 
L 221.109754 171.577623 
L 221.250702 152.663796 
L 221.392007 170.357377 
L 221.533763 158.765031 
L 221.674243 174.628241 
L 221.815914 157.544784 
L 221.956541 175.238364 
L 222.098798 158.154907 
L 222.239581 175.238364 
L 222.380575 161.205525 
L 222.521571 171.577623 
L 222.662493 158.765031 
L 222.803551 167.916883 
L 222.944352 158.765031 
L 223.22611 172.187747 
L 223.36837 174.018117 
L 223.509272 161.205525 
L 223.79127 170.9675 
L 223.933405 167.916883 
L 224.073759 176.458611 
L 224.214501 168.527006 
L 224.355365 177.068735 
L 224.496783 172.79787 
L 224.637802 172.79787 
L 224.779422 165.476389 
L 224.920354 173.407994 
L 225.061187 161.205525 
L 225.201605 170.357377 
L 225.342527 163.646019 
L 225.483529 169.13713 
L 225.624884 158.154907 
L 225.766251 169.13713 
L 225.906937 156.93466 
L 226.049267 175.848488 
L 226.190485 160.595401 
L 226.331684 172.187747 
L 226.472573 153.272308 
L 226.613658 172.79787 
L 226.754364 159.375154 
L 226.894997 170.9675 
L 227.036158 160.595401 
L 227.177455 171.577623 
L 227.31999 161.205525 
L 227.462064 172.187747 
L 227.603305 160.595401 
L 227.744266 171.577623 
L 227.884483 164.256142 
L 228.025833 173.407994 
L 228.166385 163.646019 
L 228.307613 169.747253 
L 228.448539 169.747253 
L 228.5899 166.086512 
L 228.732252 168.527006 
L 228.87322 161.815648 
L 229.014087 167.916883 
L 229.154568 161.205525 
L 229.295829 170.357377 
L 229.436619 161.205525 
L 229.578337 195.982562 
L 229.721141 352.174167 
L 230.01676 352.174167 
L 230.439246 126.428488 
L 230.580323 114.836142 
L 230.721537 124.598117 
L 230.862353 120.937377 
L 231.004185 155.714414 
L 231.144904 145.952438 
L 231.286129 164.866265 
L 231.428315 157.544784 
L 231.569974 167.302729 
L 231.711031 164.866265 
L 231.851994 169.747253 
L 231.993344 163.035895 
L 232.133836 170.357377 
L 232.274536 161.205525 
L 232.415024 168.527006 
L 232.555752 158.154907 
L 232.697869 169.13713 
L 232.83854 159.985278 
L 232.978999 169.747253 
L 233.120176 156.324537 
L 233.260909 168.527006 
L 233.401654 159.375154 
L 233.542626 167.302729 
L 233.68348 156.324537 
L 233.824798 167.916883 
L 233.96588 153.884043 
L 234.10704 167.916883 
L 234.24791 155.10429 
L 234.388653 172.79787 
L 234.529287 159.985278 
L 234.670214 174.018117 
L 234.811459 162.425772 
L 234.95194 172.187747 
L 235.093606 161.205525 
L 235.234668 168.527006 
L 235.377143 161.815648 
L 235.517965 172.79787 
L 235.658651 166.086512 
L 235.940208 171.577623 
L 236.362039 161.205525 
L 236.502291 169.747253 
L 236.643567 166.086512 
L 236.785902 167.916883 
L 236.927109 164.256142 
L 237.067798 167.916883 
L 237.208729 166.086512 
L 237.349294 169.747253 
L 237.490337 166.696636 
L 237.630671 174.018117 
L 237.771033 167.916883 
L 237.911718 176.458611 
L 238.054033 167.302729 
L 238.195814 177.068735 
L 238.336481 162.425772 
L 238.477066 174.018117 
L 238.617828 156.93466 
L 238.758973 169.747253 
L 238.899852 153.272308 
L 239.040583 172.187747 
L 239.181288 152.053673 
L 239.321862 170.9675 
L 239.464348 149.613179 
L 239.605326 166.086512 
L 239.745904 153.272308 
L 239.886688 165.476389 
L 240.027867 155.10429 
L 240.168313 165.476389 
L 240.309291 155.714414 
L 240.45024 169.13713 
L 240.590778 158.765031 
L 240.732484 166.696636 
L 240.874863 163.646019 
L 241.016638 166.086512 
L 241.15808 163.646019 
L 241.29934 166.086512 
L 241.440634 170.9675 
L 241.582244 167.916883 
L 241.722979 170.357377 
L 241.864379 165.476389 
L 242.00547 170.357377 
L 242.147258 158.765031 
L 242.287852 170.357377 
L 242.429324 162.425772 
L 242.570016 172.187747 
L 242.710454 159.375154 
L 242.851253 169.13713 
L 242.992233 159.985278 
L 243.132955 167.302729 
L 243.274241 156.93466 
L 243.419401 352.174167 
L 243.709089 352.174167 
L 243.990769 225.878611 
L 244.131457 130.089228 
L 244.272234 117.276636 
L 244.413043 116.666512 
L 244.554008 120.327253 
L 245.11736 161.205525 
L 245.257779 162.425772 
L 245.540865 160.595401 
L 245.682961 159.985278 
L 245.823533 159.985278 
L 245.964607 155.714414 
L 246.106651 163.035895 
L 246.248174 152.053673 
L 246.389853 167.916883 
L 246.530873 155.714414 
L 246.6718 166.696636 
L 246.813165 152.663796 
L 246.954139 165.476389 
L 247.09569 158.154907 
L 247.236144 166.086512 
L 247.376783 155.714414 
L 247.518347 162.425772 
L 247.660391 160.595401 
L 247.801854 163.035895 
L 247.943321 161.815648 
L 248.085442 163.035895 
L 248.226166 160.595401 
L 248.36705 164.256142 
L 248.508907 159.375154 
L 248.650617 166.696636 
L 248.793018 160.595401 
L 248.934647 170.9675 
L 249.075676 167.916883 
L 249.216407 159.985278 
L 249.357023 159.985278 
L 249.497924 165.476389 
L 249.639642 159.375154 
L 249.780345 165.476389 
L 249.92237 153.884043 
L 250.064915 159.375154 
L 250.205737 158.154907 
L 250.346178 164.256142 
L 250.48745 158.765031 
L 250.770013 161.205525 
L 251.052379 158.765031 
L 251.333943 161.815648 
L 251.617328 164.256142 
L 251.758445 164.256142 
L 252.040733 167.302729 
L 252.181976 164.256142 
L 252.322572 165.476389 
L 252.463883 165.476389 
L 252.605115 159.985278 
L 252.747317 163.035895 
L 252.888642 159.985278 
L 253.030202 167.302729 
L 253.171497 161.205525 
L 253.311979 167.916883 
L 253.452845 163.035895 
L 253.593634 166.696636 
L 253.734481 159.375154 
L 253.874848 166.086512 
L 254.016152 160.595401 
L 254.15899 164.866265 
L 254.300012 158.154907 
L 254.441091 159.985278 
L 254.581854 155.714414 
L 254.722958 163.646019 
L 254.864823 160.595401 
L 255.005936 166.086512 
L 255.14744 156.324537 
L 255.288034 163.035895 
L 255.431173 156.324537 
L 255.572696 165.476389 
L 255.713236 156.324537 
L 255.854453 163.646019 
L 255.995358 161.815648 
L 256.136474 166.086512 
L 256.419167 159.985278 
L 256.560747 162.425772 
L 256.70244 161.205525 
L 256.844873 161.815648 
L 256.986043 159.375154 
L 257.128818 336.92108 
L 257.275643 352.174167 
L 257.424316 352.174167 
L 257.567022 311.295895 
L 257.989682 116.666512 
L 258.131646 113.005772 
L 258.273312 114.836142 
L 258.697651 158.765031 
L 258.838285 155.070439 
L 258.97931 166.086512 
L 259.120071 160.595401 
L 259.260876 172.187747 
L 259.401503 167.302729 
L 259.543617 174.018117 
L 259.68457 164.256142 
L 259.825334 172.187747 
L 259.966787 161.815648 
L 260.108323 170.357377 
L 260.249813 158.765031 
L 260.391376 169.747253 
L 260.532963 164.866265 
L 260.674496 170.9675 
L 260.815603 161.205525 
L 260.956434 163.646019 
L 261.097244 153.884043 
L 261.23808 164.866265 
L 261.379095 157.544784 
L 261.52016 170.9675 
L 261.661121 154.494167 
L 261.802054 164.866265 
L 261.943 156.324537 
L 262.084034 167.302729 
L 262.2256 154.494167 
L 262.367129 165.476389 
L 262.508155 159.375154 
L 262.648828 165.476389 
L 262.78971 162.425772 
L 262.9306 167.916883 
L 263.071551 164.256142 
L 263.21232 163.646019 
L 263.353163 167.302729 
L 263.494746 161.205525 
L 263.6363 165.476389 
L 263.777229 161.815648 
L 263.918207 168.527006 
L 264.059113 163.646019 
L 264.20036 169.747253 
L 264.341522 159.985278 
L 264.482489 169.13713 
L 264.624511 161.815648 
L 264.766545 170.357377 
L 264.908045 163.646019 
L 265.049394 166.086512 
L 265.1902 163.035895 
L 265.331405 166.696636 
L 265.472345 155.714414 
L 265.613249 163.035895 
L 265.754217 154.494167 
L 265.894977 164.256142 
L 266.035758 155.10429 
L 266.177059 164.256142 
L 266.318164 156.93466 
L 266.458931 166.086512 
L 266.599936 155.10429 
L 266.740853 166.696636 
L 266.881822 156.93466 
L 267.022663 166.086512 
L 267.163452 154.494167 
L 267.304145 166.696636 
L 267.44511 158.154907 
L 267.586277 164.866265 
L 267.727274 161.205525 
L 267.868031 164.256142 
L 268.008716 163.646019 
L 268.149881 161.815648 
L 268.290666 163.646019 
L 268.431642 167.916883 
L 268.572757 163.646019 
L 268.713687 166.696636 
L 268.856744 165.476389 
L 268.998299 166.696636 
L 269.279638 156.93466 
L 269.420256 161.815648 
L 269.561183 155.714414 
L 269.70182 160.595401 
L 269.842333 158.154907 
L 269.982883 160.595401 
L 270.123643 157.544784 
L 270.26484 165.476389 
L 270.405448 158.154907 
L 270.545964 163.035895 
L 270.686701 156.324537 
L 270.827375 213.676142 
L 270.967906 352.174167 
L 271.24893 352.174167 
L 271.672022 136.190463 
L 271.812985 125.211465 
L 271.953769 125.211465 
L 272.376628 141.071451 
L 272.517363 144.732191 
L 272.799535 163.646019 
L 272.941167 155.714414 
L 273.082268 167.302729 
L 273.223134 158.154907 
L 273.363771 171.577623 
L 273.504768 156.93466 
L 273.645885 169.13713 
L 273.78659 152.053673 
L 273.927353 164.256142 
L 274.068224 156.93466 
L 274.209602 170.357377 
L 274.350833 160.595401 
L 274.491631 167.916883 
L 274.632715 165.476389 
L 275.055446 170.9675 
L 275.337125 167.302729 
L 275.477861 171.577623 
L 275.619287 170.357377 
L 275.760225 167.302729 
L 275.900901 167.916883 
L 276.041821 167.916883 
L 276.182669 163.035895 
L 276.32351 166.696636 
L 276.464199 166.086512 
L 276.7463 163.646019 
L 276.887477 163.646019 
L 277.028694 162.425772 
L 277.169734 167.302729 
L 277.310333 159.375154 
L 277.451724 168.527006 
L 277.59241 157.544784 
L 277.733069 173.407994 
L 277.873596 155.10429 
L 278.014077 173.407994 
L 278.156178 156.324537 
L 278.299612 175.848488 
L 278.442599 157.544784 
L 278.584261 177.068735 
L 278.725825 162.425772 
L 278.86755 172.79787 
L 279.009399 165.476389 
L 279.151364 175.848488 
L 279.292179 170.357377 
L 279.432866 172.79787 
L 279.716493 171.577623 
L 279.857984 166.086512 
L 279.999467 166.696636 
L 280.140994 163.646019 
L 280.282712 164.256142 
L 280.424484 163.035895 
L 280.56599 163.035895 
L 280.707473 164.256142 
L 280.848948 164.256142 
L 281.132391 159.985278 
L 281.274026 163.035895 
L 281.416389 156.93466 
L 281.558405 171.577623 
L 281.700127 155.714414 
L 281.841859 172.79787 
L 281.983535 153.884043 
L 282.124396 170.357377 
L 282.266065 156.324537 
L 282.407143 173.407994 
L 282.549006 162.425772 
L 282.691014 171.577623 
L 282.833015 165.476389 
L 282.975034 174.018117 
L 283.116786 170.9675 
L 283.25916 172.187747 
L 283.401522 171.577623 
L 283.544116 169.13713 
L 283.828087 170.357377 
L 283.969707 165.476389 
L 284.111549 166.086512 
L 284.253425 164.256142 
L 284.536662 174.018117 
L 284.680975 352.174167 
L 284.977565 352.174167 
L 285.403523 127.648735 
L 285.54551 117.886759 
L 285.687488 126.428488 
L 285.829205 116.666512 
L 286.252921 163.646019 
L 286.394493 158.765031 
L 286.536111 170.9675 
L 286.677622 161.205525 
L 286.81918 172.79787 
L 286.960439 160.595401 
L 287.102296 171.577623 
L 287.244117 164.866265 
L 287.38574 170.9675 
L 287.527286 154.494167 
L 287.669095 164.866265 
L 287.810571 152.663796 
L 287.955085 164.866265 
L 288.099577 157.544784 
L 288.240501 169.13713 
L 288.381187 161.205525 
L 288.521746 166.086512 
L 288.663045 159.375154 
L 288.806018 165.476389 
L 289.088787 163.646019 
L 289.230737 169.13713 
L 289.372353 162.425772 
L 289.514164 167.302729 
L 289.655997 160.595401 
L 289.797694 166.086512 
L 289.939858 156.93466 
L 290.080588 167.916883 
L 290.222924 162.425772 
L 290.364906 164.866265 
L 290.506655 161.815648 
L 290.648503 166.696636 
L 290.790249 163.035895 
L 290.932154 166.696636 
L 291.073916 162.425772 
L 291.215638 170.9675 
L 291.357306 158.154907 
L 291.498998 167.916883 
L 291.641043 156.93466 
L 291.782669 167.916883 
L 291.92415 159.375154 
L 292.065604 172.187747 
L 292.20706 170.9675 
L 292.348707 175.238364 
L 292.490229 155.10429 
L 292.631871 166.086512 
L 292.773275 154.494167 
L 292.915423 162.425772 
L 293.057036 157.544784 
L 293.340084 162.425772 
L 293.48153 162.425772 
L 293.623166 164.256142 
L 293.906062 161.815648 
L 294.047493 164.866265 
L 294.189188 162.425772 
L 294.331252 164.866265 
L 294.755958 161.815648 
L 294.897421 165.476389 
L 295.180497 160.595401 
L 295.322046 162.425772 
L 295.463441 158.154907 
L 295.746619 161.205525 
L 295.888198 163.646019 
L 296.029856 158.765031 
L 296.171796 167.302729 
L 296.313703 155.714414 
L 296.455308 166.696636 
L 296.596871 159.375154 
L 296.737677 164.866265 
L 296.878549 158.154907 
L 297.019842 133.139846 
L 297.302145 170.357377 
L 297.443291 158.154907 
L 297.584228 164.256142 
L 297.725124 159.375154 
L 297.86581 166.696636 
L 298.006507 159.375154 
L 298.147231 161.205525 
L 298.289259 187.440833 
L 298.434266 352.174167 
L 298.579165 352.174167 
L 298.727977 343.022315 
L 299.295465 121.5475 
L 299.436203 134.360093 
L 299.578471 123.987994 
L 299.72022 142.291698 
L 299.86175 136.190463 
L 300.003249 158.765031 
L 300.144736 156.324537 
L 300.285322 181.949722 
L 300.426216 166.086512 
L 300.566946 174.628241 
L 300.707558 162.425772 
L 300.848775 170.357377 
L 300.989863 160.595401 
L 301.131687 170.357377 
L 301.271977 164.866265 
L 301.412829 168.527006 
L 301.553646 161.205525 
L 301.695848 167.302729 
L 301.836507 164.866265 
L 301.977916 169.13713 
L 302.11923 160.595401 
L 302.26115 167.916883 
L 302.403726 160.595401 
L 302.544733 161.815648 
L 302.686513 160.595401 
L 302.969067 160.595401 
L 303.251051 159.375154 
L 303.392615 163.035895 
L 303.675872 158.765031 
L 303.817626 160.595401 
L 303.958372 155.714414 
L 304.099737 163.035895 
L 304.240787 155.10429 
L 304.381653 166.696636 
L 304.522718 159.375154 
L 304.663605 172.187747 
L 304.806426 159.985278 
L 304.948096 174.018117 
L 305.089853 158.154907 
L 305.230929 169.13713 
L 305.371723 156.93466 
L 305.512674 170.357377 
L 305.653439 161.815648 
L 305.794023 169.747253 
L 305.934727 162.425772 
L 306.075583 168.527006 
L 306.216426 159.375154 
L 306.35883 168.527006 
L 306.499855 160.595401 
L 306.64073 166.696636 
L 306.781619 159.375154 
L 306.922191 161.205525 
L 307.06326 160.595401 
L 307.204323 163.646019 
L 307.345072 159.375154 
L 307.485812 159.985278 
L 307.62769 156.93466 
L 307.769237 161.205525 
L 307.909964 158.765031 
L 308.050626 163.035895 
L 308.191309 161.205525 
L 308.332921 163.646019 
L 308.614058 157.544784 
L 308.754773 164.866265 
L 308.89537 162.425772 
L 309.037463 166.086512 
L 309.178288 155.714414 
L 309.319017 169.13713 
L 309.459767 158.765031 
L 309.600473 168.527006 
L 309.741194 159.375154 
L 309.881881 169.747253 
L 310.022691 164.256142 
L 310.163363 164.866265 
L 310.304592 159.985278 
L 310.445926 169.747253 
L 310.586784 163.646019 
L 310.727385 169.747253 
L 310.868945 160.595401 
L 311.009775 167.302729 
L 311.151432 163.646019 
L 311.292855 166.696636 
L 311.434312 161.205525 
L 311.574867 166.696636 
L 311.716189 162.425772 
L 311.856837 163.035895 
L 311.99749 163.035895 
L 312.141523 352.174167 
L 312.439354 352.174167 
L 313.020426 133.139846 
L 313.16144 137.41071 
L 313.303324 133.139846 
L 313.444878 149.003056 
L 313.586734 142.291698 
L 314.011648 176.458611 
L 314.153185 156.93466 
L 314.294949 175.848488 
L 314.436299 154.494167 
L 314.577718 167.302729 
L 314.718495 149.613179 
L 314.860197 167.916883 
L 315.002451 149.003056 
L 315.144153 166.086512 
L 315.28571 150.223302 
L 315.427233 159.985278 
L 315.568784 156.324537 
L 315.710258 164.256142 
L 315.993718 166.086512 
L 316.276756 171.577623 
L 316.41852 177.678858 
L 316.560126 170.357377 
L 316.700986 175.848488 
L 316.842499 168.527006 
L 316.983609 178.899105 
L 317.124428 161.205525 
L 317.265752 174.628241 
L 317.407446 164.256142 
L 317.548911 178.899105 
L 317.690563 164.866265 
L 317.832124 173.407994 
L 317.973615 159.985278 
L 318.114345 171.577623 
L 318.255032 161.205525 
L 318.396427 175.238364 
L 318.537143 161.815648 
L 318.678701 173.407994 
L 318.820196 157.544784 
L 318.961706 166.696636 
L 319.103259 152.053673 
L 319.244607 169.747253 
L 319.386116 154.494167 
L 319.526807 170.357377 
L 319.668335 150.833426 
L 319.810006 169.747253 
L 319.951423 150.833426 
L 320.092863 170.9675 
L 320.23426 157.544784 
L 320.375943 172.187747 
L 320.517426 159.375154 
L 320.658933 170.9675 
L 320.80058 166.696636 
L 321.083918 169.747253 
L 321.225462 169.747253 
L 321.36697 173.407994 
L 321.508388 167.916883 
L 321.649784 175.238364 
L 321.791409 171.577623 
L 321.932862 175.848488 
L 322.074246 168.527006 
L 322.215727 181.339599 
L 322.356764 170.9675 
L 322.498453 177.068735 
L 322.639894 163.646019 
L 322.781511 176.458611 
L 322.92295 163.035895 
L 323.06463 171.577623 
L 323.206104 161.815648 
L 323.34713 180.119352 
L 323.487996 163.035895 
L 323.62965 180.119352 
L 323.7711 158.154907 
L 323.912839 174.018117 
L 324.053655 155.714414 
L 324.195246 175.848488 
L 324.336617 163.035895 
L 324.478247 177.678858 
L 324.619111 159.985278 
L 324.759784 177.678858 
L 324.900592 166.696636 
L 325.04166 181.339599 
L 325.183382 163.035895 
L 325.324919 167.302729 
L 325.466157 164.256142 
L 325.607638 175.238364 
L 325.749296 170.357377 
L 325.890597 352.174167 
L 326.031873 352.174167 
L 326.17278 350.343796 
L 326.737078 127.038611 
L 326.878101 130.089228 
L 327.019025 125.818364 
L 327.442652 144.732191 
L 327.583271 161.205525 
L 327.725103 163.646019 
L 327.866216 170.9675 
L 328.148964 163.035895 
L 328.289919 160.595401 
L 328.430712 161.205525 
L 328.571543 163.035895 
L 328.712336 162.425772 
L 328.853823 162.425772 
L 328.994482 161.815648 
L 329.135997 163.646019 
L 329.278185 159.375154 
L 329.41987 162.425772 
L 329.560914 157.544784 
L 329.70193 162.425772 
L 329.84304 158.154907 
L 329.983696 163.646019 
L 330.124802 159.985278 
L 330.265716 164.256142 
L 330.408268 158.765031 
L 330.548866 161.205525 
L 330.68924 156.93466 
L 330.829574 161.205525 
L 331.110543 155.714414 
L 331.250949 159.375154 
L 331.391456 159.985278 
L 331.532057 159.375154 
L 331.81368 156.93466 
L 331.954247 161.815648 
L 332.094607 160.595401 
L 332.235031 167.916883 
L 332.375497 160.595401 
L 332.515914 164.256142 
L 332.65647 163.646019 
L 332.797407 164.84934 
L 332.938029 161.205525 
L 333.079468 161.205525 
L 333.220128 165.476389 
L 333.641326 161.205525 
L 333.781888 165.476389 
L 333.922168 158.765031 
L 334.062528 164.866265 
L 334.203083 161.205525 
L 334.343412 164.866265 
L 334.485362 160.595401 
L 334.625989 161.815648 
L 334.766625 161.815648 
L 334.907177 160.595401 
L 335.047702 157.544784 
L 335.46963 159.375154 
L 335.610253 156.324537 
L 335.752032 161.205525 
L 335.892833 158.154907 
L 336.033391 161.815648 
L 336.174029 156.93466 
L 336.314587 160.595401 
L 336.456023 157.544784 
L 336.596589 160.595401 
L 336.737099 159.375154 
L 336.877803 166.696636 
L 337.019835 155.714414 
L 337.16187 165.476389 
L 337.303522 162.425772 
L 337.444985 162.425772 
L 337.585868 161.815648 
L 337.726615 165.476389 
L 337.867705 164.256142 
L 338.008258 166.086512 
L 338.14909 163.035895 
L 338.291403 164.866265 
L 338.433183 168.527006 
L 338.57398 165.476389 
L 338.714746 166.086512 
L 338.855586 167.302729 
L 338.996133 166.696636 
L 339.137101 164.866265 
L 339.277926 161.205525 
L 339.418944 161.205525 
L 339.702676 352.174167 
L 339.851053 352.174167 
L 339.994877 330.209722 
L 340.281743 203.304043 
L 340.424696 131.309475 
L 340.567824 121.5475 
L 340.852104 125.818364 
L 340.993648 139.241886 
L 341.13615 138.630957 
L 341.419237 155.714414 
L 341.56098 171.577623 
L 341.702612 161.815648 
L 341.844035 169.13713 
L 341.98531 161.205525 
L 342.12657 167.302729 
L 342.268181 167.302729 
L 342.410059 166.086512 
L 342.552002 169.747253 
L 342.694327 164.256142 
L 342.836471 168.527006 
L 342.977997 161.815648 
L 343.119643 170.9675 
L 343.261182 163.035895 
L 343.403147 168.527006 
L 343.545341 158.154907 
L 343.68706 171.577623 
L 343.828457 155.10429 
L 343.970211 171.577623 
L 344.111838 156.324537 
L 344.253452 166.696636 
L 344.395381 153.272308 
L 344.537643 168.527006 
L 344.679739 153.272308 
L 344.822184 169.747253 
L 344.964458 155.714414 
L 345.105889 164.256142 
L 345.247663 150.833426 
L 345.389304 164.256142 
L 345.531112 153.272308 
L 345.672898 161.815648 
L 345.814085 157.544784 
L 345.95564 158.765031 
L 346.09711 158.765031 
L 346.522285 170.9675 
L 346.664085 171.577623 
L 346.80489 166.696636 
L 346.945845 169.13713 
L 347.086943 160.595401 
L 347.227834 169.13713 
L 347.368878 159.985278 
L 347.509784 174.018117 
L 347.650872 163.035895 
L 347.791912 172.79787 
L 347.933173 158.765031 
L 348.074579 174.628241 
L 348.216136 162.425772 
L 348.357112 172.79787 
L 348.498099 158.154907 
L 348.639021 174.018117 
L 348.780622 153.272308 
L 348.921519 168.527006 
L 349.062126 156.93466 
L 349.203639 167.302729 
L 349.344319 158.765031 
L 349.48513 163.646019 
L 349.626025 156.324537 
L 349.766936 167.302729 
L 349.908369 160.595401 
L 350.049269 161.205525 
L 350.190267 157.544784 
L 350.330876 163.035895 
L 350.472411 158.765031 
L 350.613876 158.765031 
L 350.896128 166.086512 
L 351.178462 164.256142 
L 351.319542 167.916883 
L 351.460138 164.256142 
L 351.601124 166.696636 
L 351.741904 161.815648 
L 351.883777 165.476389 
L 352.024568 165.476389 
L 352.16539 169.747253 
L 352.305941 160.595401 
L 352.446573 165.476389 
L 352.587304 161.205525 
L 352.727835 166.086512 
L 352.868579 160.595401 
L 353.009849 161.205525 
L 353.151521 153.272308 
L 353.442107 352.174167 
L 353.590534 352.174167 
L 353.880629 250.893673 
L 354.164355 126.428488 
L 354.305136 127.648735 
L 354.587579 121.5475 
L 354.869282 136.800586 
L 355.151481 174.018117 
L 355.292563 167.916883 
L 355.433376 166.696636 
L 355.574342 164.256142 
L 355.715476 164.866265 
L 355.857896 160.595401 
L 355.998672 161.205525 
L 356.139524 159.985278 
L 356.280552 160.595401 
L 356.421774 155.714414 
L 356.562887 162.425772 
L 356.703702 157.544784 
L 356.844599 160.595401 
L 356.985633 160.595401 
L 357.128185 164.256142 
L 357.270878 164.256142 
L 357.41239 159.985278 
L 357.554407 161.815648 
L 357.695123 155.714414 
L 357.835881 161.205525 
L 357.976506 155.714414 
L 358.116919 164.866265 
L 358.258409 161.205525 
L 358.399963 163.646019 
L 358.541206 160.595401 
L 358.684277 160.595401 
L 358.827945 162.425772 
L 358.971279 162.425772 
L 359.1139 157.544784 
L 359.257599 164.866265 
L 359.401337 155.714414 
L 359.54502 164.866265 
L 359.686 159.375154 
L 359.828333 164.866265 
L 359.96954 155.714414 
L 360.110638 161.815648 
L 360.251522 155.10429 
L 360.392574 163.035895 
L 360.533632 153.272308 
L 360.67429 163.035895 
L 360.814946 154.494167 
L 360.955503 158.765031 
L 361.096968 156.93466 
L 361.238422 161.205525 
L 361.379584 159.375154 
L 361.520329 159.375154 
L 361.661206 160.595401 
L 361.802942 159.375154 
L 361.943899 164.256142 
L 362.085078 164.256142 
L 362.225752 161.205525 
L 362.366623 167.916883 
L 362.649362 163.035895 
L 362.790528 164.256142 
L 362.931625 169.120204 
L 363.213555 159.985278 
L 363.354605 161.815648 
L 363.495426 159.985278 
L 363.636915 163.035895 
L 363.777785 158.154907 
L 363.91918 164.256142 
L 364.060877 155.714414 
L 364.202732 163.646019 
L 364.343627 156.93466 
L 364.484691 159.985278 
L 364.62591 153.272308 
L 364.766793 159.375154 
L 364.907583 152.053673 
L 365.049202 159.985278 
L 365.190771 156.324537 
L 365.332006 163.646019 
L 365.472777 152.663796 
L 365.613873 161.205525 
L 365.755102 155.714414 
L 365.896658 164.256142 
L 366.038004 156.93466 
L 366.179215 164.256142 
L 366.320565 162.425772 
L 366.461865 163.646019 
L 366.604203 161.815648 
L 366.886059 166.696636 
L 367.321148 352.174167 
L 367.885544 126.428488 
L 368.026654 127.648735 
L 368.167508 123.37787 
L 368.308305 133.139846 
L 368.449487 133.733044 
L 368.590796 139.241886 
L 369.01417 172.187747 
L 369.155912 170.357377 
L 369.297056 163.646019 
L 369.438132 169.747253 
L 369.578976 158.765031 
L 369.719574 171.577623 
L 369.861166 165.476389 
L 370.002744 172.79787 
L 370.143565 159.985278 
L 370.283904 174.018117 
L 370.425017 155.714414 
L 370.567009 169.13713 
L 370.708184 152.663796 
L 370.849748 167.916883 
L 370.990501 152.053673 
L 371.132177 170.9675 
L 371.27295 156.324537 
L 371.413474 173.407994 
L 371.554072 155.10429 
L 371.694925 167.302729 
L 371.835926 154.494167 
L 371.976935 164.866265 
L 372.118064 155.714414 
L 372.259682 166.696636 
L 372.400885 159.375154 
L 372.541963 167.302729 
L 372.682464 161.815648 
L 372.823075 170.9675 
L 372.963901 164.866265 
L 373.104807 169.747253 
L 373.246442 166.086512 
L 373.388547 166.086512 
L 373.529413 162.425772 
L 373.671001 161.815648 
L 373.811635 168.527006 
L 373.952414 159.375154 
L 374.093089 170.357377 
L 374.233912 162.425772 
L 374.374541 172.79787 
L 374.516024 166.086512 
L 374.6574 172.187747 
L 374.79816 162.425772 
L 374.938727 167.916883 
L 375.079571 157.544784 
L 375.21999 169.747253 
L 375.360949 155.714414 
L 375.501937 167.916883 
L 375.642553 157.544784 
L 375.783651 167.916883 
L 375.925551 154.494167 
L 376.066267 169.747253 
L 376.207026 154.494167 
L 376.347618 169.747253 
L 376.488838 156.324537 
L 376.629895 172.79787 
L 376.771381 158.154907 
L 376.911848 174.628241 
L 377.052443 160.595401 
L 377.195735 168.527006 
L 377.338078 161.815648 
L 377.479903 164.866265 
L 377.621266 165.476389 
L 377.762576 167.302729 
L 377.904488 167.302729 
L 378.046326 169.747253 
L 378.327722 163.646019 
L 378.468449 161.815648 
L 378.610534 157.544784 
L 378.753153 164.256142 
L 378.893977 161.205525 
L 379.034423 163.646019 
L 379.175045 155.714414 
L 379.315761 166.696636 
L 379.457488 162.425772 
L 379.5987 164.866265 
L 379.739261 157.544784 
L 379.881768 168.527006 
L 380.022809 160.595401 
L 380.164551 170.357377 
L 380.305347 157.544784 
L 380.446031 167.916883 
L 380.586606 157.544784 
L 380.727955 180.119352 
L 380.872072 352.174167 
L 381.020079 352.174167 
L 381.164797 333.870463 
L 381.450167 177.068735 
L 381.59126 138.630957 
L 381.732252 132.529722 
L 382.015013 136.800586 
L 382.298817 146.562562 
L 382.440158 167.916883 
L 382.582355 169.747253 
L 382.865312 159.375154 
L 383.006919 163.646019 
L 383.148312 158.765031 
L 383.289099 161.815648 
L 383.430741 153.272308 
L 383.572057 161.815648 
L 383.713341 153.272308 
L 383.854425 164.256142 
L 383.995807 152.663796 
L 384.137925 161.205525 
L 384.280013 157.544784 
L 384.42203 164.866265 
L 384.563937 153.272308 
L 384.704899 167.916883 
L 384.846841 156.93466 
L 384.988733 169.13713 
L 385.130844 156.93466 
L 385.271959 169.13713 
L 385.413048 159.985278 
L 385.55378 163.035895 
L 385.695711 162.425772 
L 385.836735 167.302729 
L 385.977775 162.425772 
L 386.11914 166.696636 
L 386.261386 163.035895 
L 386.54439 165.476389 
L 386.828248 165.476389 
L 386.970222 168.527006 
L 387.111947 165.476389 
L 387.25363 158.765031 
L 387.395145 166.696636 
L 387.536676 160.595401 
L 387.678323 167.916883 
L 387.820098 158.765031 
L 387.961746 164.866265 
L 388.103892 153.884043 
L 388.245687 159.375154 
L 388.387163 153.272308 
L 388.528871 163.035895 
L 388.670713 156.93466 
L 388.812748 161.205525 
L 388.954562 155.714414 
L 389.096429 162.425772 
L 389.238742 155.714414 
L 389.380494 165.476389 
L 389.522129 156.93466 
L 389.664026 172.187747 
L 389.806025 157.544784 
L 389.947853 163.646019 
L 390.089567 159.985278 
L 390.23107 170.9675 
L 390.372118 164.866265 
L 390.512906 169.13713 
L 390.654382 164.866265 
L 390.796384 166.086512 
L 390.938387 165.476389 
L 391.080261 166.696636 
L 391.221963 170.357377 
L 391.505147 162.425772 
L 391.646623 153.272308 
L 391.788241 163.035895 
L 391.929512 155.10429 
L 392.070614 165.476389 
L 392.212208 158.765031 
L 392.353654 164.256142 
L 392.495111 159.375154 
L 392.636546 159.985278 
L 392.778126 158.765031 
L 392.91957 164.239216 
L 393.06036 159.985278 
L 393.201422 164.256142 
L 393.342742 160.595401 
L 393.484961 172.187747 
L 393.626635 158.765031 
L 393.768246 168.527006 
L 393.910178 156.324537 
L 394.051886 166.696636 
L 394.193477 151.443549 
L 394.335141 165.476389 
L 394.4762 158.765031 
L 394.620908 352.174167 
L 394.768543 352.174167 
L 394.910267 329.599599 
L 395.051764 287.50108 
L 395.334971 142.291698 
L 395.476645 125.818364 
L 395.618148 128.258858 
L 395.902039 139.241886 
L 396.043608 142.901821 
L 396.184997 139.851204 
L 396.468614 174.018117 
L 396.751994 164.866265 
L 396.893952 170.9675 
L 397.03568 161.815648 
L 397.177654 170.357377 
L 397.318837 159.375154 
L 397.460665 175.848488 
L 397.602238 162.425772 
L 397.743911 172.187747 
L 397.885559 153.272308 
L 398.027049 172.79787 
L 398.1687 159.375154 
L 398.310151 175.238364 
L 398.451679 162.425772 
L 398.593257 177.068735 
L 398.734372 161.815648 
L 398.875486 174.628241 
L 399.016356 159.985278 
L 399.157928 174.018117 
L 399.299428 156.93466 
L 399.441009 172.187747 
L 399.582482 158.154907 
L 399.724434 175.238364 
L 399.865852 160.595401 
L 400.007611 176.458611 
L 400.148909 162.425772 
L 400.290724 167.302729 
L 400.433195 159.985278 
L 400.575535 168.527006 
L 400.85912 162.425772 
L 401.000686 162.425772 
L 401.142374 161.815648 
L 401.284542 166.086512 
L 401.425407 162.425772 
L 401.567052 165.476389 
L 401.708615 164.866265 
L 401.850322 169.747253 
L 401.992324 167.916883 
L 402.134235 171.577623 
L 402.275861 164.866265 
L 402.416874 170.357377 
L 402.558778 160.595401 
L 402.700194 167.916883 
L 402.842394 157.544784 
L 402.984295 172.79787 
L 403.126349 159.985278 
L 403.26781 168.527006 
L 403.409421 155.10429 
L 403.550959 169.13713 
L 403.692555 155.10429 
L 403.835666 167.302729 
L 403.977361 161.205525 
L 404.118706 168.527006 
L 404.260049 158.765031 
L 404.400735 164.866265 
L 404.683138 161.205525 
L 404.823937 161.815648 
L 404.964971 166.696636 
L 405.105814 165.476389 
L 405.246505 160.595401 
L 405.529512 167.916883 
L 405.810465 156.93466 
L 406.091836 163.035895 
L 406.232219 162.425772 
L 406.372739 159.985278 
L 406.514796 163.575496 
L 406.656627 161.815648 
L 406.797954 166.086512 
L 406.939754 156.93466 
L 407.080327 170.357377 
L 407.221227 158.765031 
L 407.36188 172.187747 
L 407.502984 156.324537 
L 407.643951 174.628241 
L 407.784598 155.10429 
L 407.92535 172.187747 
L 408.066178 155.714414 
L 408.20727 176.458611 
L 408.348193 352.174167 
L 408.496193 352.174167 
L 408.637101 341.802068 
L 409.199782 126.428488 
L 409.483494 122.767747 
L 409.625669 131.309475 
L 409.766769 128.258858 
L 410.192071 166.086512 
L 410.333654 160.595401 
L 410.475313 166.086512 
L 410.617519 155.10429 
L 410.759334 170.9675 
L 410.901222 160.595401 
L 411.043201 163.035895 
L 411.184371 156.93466 
L 411.326219 163.035895 
L 411.4684 159.985278 
L 411.610277 164.256142 
L 411.751918 162.425772 
L 411.892738 169.747253 
L 412.03392 162.425772 
L 412.176053 163.646019 
L 412.317827 161.205525 
L 412.459656 165.476389 
L 412.601384 159.375154 
L 412.743086 163.646019 
L 412.884382 161.815648 
L 413.026125 161.815648 
L 413.167965 158.765031 
L 413.309831 161.205525 
L 413.452918 155.10429 
L 413.59376 156.324537 
L 413.734953 155.714414 
L 413.875945 155.714414 
L 414.016974 161.815648 
L 414.158352 156.324537 
L 414.299261 161.815648 
L 414.440102 157.544784 
L 414.581302 159.985278 
L 414.723625 156.324537 
L 414.864952 163.035895 
L 415.006344 159.375154 
L 415.147863 165.476389 
L 415.429176 156.324537 
L 415.570418 155.10429 
L 415.711336 158.765031 
L 415.994932 159.985278 
L 416.13609 159.375154 
L 416.277002 161.205525 
L 416.417982 159.375154 
L 416.558608 161.815648 
L 416.699374 159.985278 
L 416.840642 163.035895 
L 416.981436 159.985278 
L 417.122118 162.425772 
L 417.262863 157.544784 
L 417.404764 163.646019 
L 417.545807 158.154907 
L 417.68711 161.205525 
L 417.82792 158.154907 
L 417.969195 164.866265 
L 418.110129 158.154907 
L 418.251443 162.425772 
L 418.392266 157.544784 
L 418.533168 163.646019 
L 418.674397 155.714414 
L 418.956949 159.985278 
L 419.097676 158.154907 
L 419.241099 159.375154 
L 419.527878 158.154907 
L 419.671188 160.595401 
L 419.813952 157.544784 
L 420.237329 164.256142 
L 420.518929 155.10429 
L 420.659498 158.765031 
L 420.800195 159.375154 
L 420.940996 158.154907 
L 421.222444 161.205525 
L 421.363651 159.985278 
L 421.504623 159.985278 
L 421.645452 159.375154 
L 421.786309 154.494167 
L 421.927349 165.476389 
L 422.067957 352.174167 
L 422.358554 352.174167 
L 422.640419 266.146759 
L 422.922758 127.648735 
L 423.064154 127.038611 
L 423.205176 124.598117 
L 423.3462 132.529722 
L 423.48744 126.428488 
L 423.769134 154.494167 
L 423.910093 174.018117 
L 424.052307 159.985278 
L 424.193626 165.476389 
L 424.334981 153.884043 
L 424.475892 164.866265 
L 424.617363 154.494167 
L 424.758413 164.256142 
L 424.899349 155.714414 
L 425.039925 163.646019 
L 425.180795 155.10429 
L 425.322219 163.646019 
L 425.463685 156.324537 
L 425.604588 161.205525 
L 425.745863 159.375154 
L 425.888871 163.646019 
L 426.029808 159.985278 
L 426.171096 162.425772 
L 426.311872 157.544784 
L 426.453714 161.205525 
L 426.735757 162.425772 
L 426.877709 160.595401 
L 427.019505 162.425772 
L 427.161012 166.696636 
L 427.302689 166.086512 
L 427.585843 162.425772 
L 427.726815 168.527006 
L 427.868561 159.375154 
L 428.009747 173.407994 
L 428.150874 164.256142 
L 428.292511 169.13713 
L 428.434105 155.714414 
L 428.57628 166.086512 
L 428.718109 156.324537 
L 428.859863 167.916883 
L 429.001405 156.324537 
L 429.143252 170.357377 
L 429.283974 161.815648 
L 429.425485 166.696636 
L 429.567612 161.205525 
L 429.708694 169.747253 
L 429.84964 157.544784 
L 429.990739 166.086512 
L 430.131553 158.765031 
L 430.272546 164.866265 
L 430.41323 155.10429 
L 430.554202 167.302729 
L 430.695271 160.595401 
L 430.836858 170.357377 
L 430.979405 159.985278 
L 431.120074 165.476389 
L 431.260746 160.595401 
L 431.401925 168.527006 
L 431.54264 161.205525 
L 431.683156 166.086512 
L 431.823599 161.815648 
L 431.963963 166.696636 
L 432.105003 156.93466 
L 432.386806 161.815648 
L 432.527264 159.985278 
L 432.667885 164.866265 
L 432.808662 159.985278 
L 432.9494 168.527006 
L 433.090072 160.595401 
L 433.231266 169.747253 
L 433.372486 160.595401 
L 433.5136 172.187747 
L 433.654555 164.256142 
L 433.795534 173.407994 
L 433.936288 165.476389 
L 434.076661 175.848488 
L 434.217378 162.425772 
L 434.358936 175.238364 
L 434.499493 161.815648 
L 434.640367 171.577623 
L 434.781293 163.646019 
L 434.922169 170.9675 
L 435.062757 163.646019 
L 435.203345 170.357377 
L 435.344333 160.595401 
L 435.48521 172.79787 
L 435.626598 159.375154 
L 436.064215 352.174167 
L 436.206953 328.989475 
L 436.772328 130.699352 
L 436.91399 142.851045 
L 437.05528 129.479105 
L 437.195688 144.122068 
L 437.337174 133.749969 
L 437.478921 159.375154 
L 437.619593 157.544784 
L 437.760071 172.79787 
L 437.901337 163.035895 
L 438.042342 170.357377 
L 438.182806 159.375154 
L 438.323406 164.256142 
L 438.463973 159.375154 
L 438.604256 163.035895 
L 438.746083 158.765031 
L 438.886889 169.747253 
L 439.169238 159.985278 
L 439.310008 155.714414 
L 439.451301 164.256142 
L 439.592578 156.324537 
L 439.733386 161.205525 
L 439.873926 155.10429 
L 440.014762 169.13713 
L 440.156103 156.324537 
L 440.297556 166.086512 
L 440.439091 155.714414 
L 440.580069 170.357377 
L 440.721211 157.544784 
L 440.861961 163.646019 
L 441.002716 159.985278 
L 441.143521 163.646019 
L 441.284273 163.646019 
L 441.426354 167.302729 
L 441.567148 161.205525 
L 441.708098 163.035895 
L 441.849257 170.357377 
L 441.990201 164.256142 
L 442.131577 173.407994 
L 442.272666 163.646019 
L 442.413676 169.747253 
L 442.554095 161.205525 
L 442.695588 174.628241 
L 442.836669 161.205525 
L 442.977603 170.9675 
L 443.118502 162.425772 
L 443.259246 169.747253 
L 443.399937 159.985278 
L 443.540953 167.302729 
L 443.681723 154.494167 
L 443.822535 170.9675 
L 443.963324 158.154907 
L 444.107776 161.205525 
L 444.248741 152.663796 
L 444.389492 163.035895 
L 444.530317 152.053673 
L 444.671084 170.9675 
L 444.811891 153.272308 
L 444.95264 169.13713 
L 445.093485 153.884043 
L 445.233966 172.79787 
L 445.375063 154.494167 
L 445.517104 166.696636 
L 445.658032 157.544784 
L 445.798913 172.187747 
L 445.93967 160.595401 
L 446.080321 164.866265 
L 446.22134 159.985278 
L 446.362501 163.646019 
L 446.503326 161.815648 
L 446.64432 163.575496 
L 446.785533 169.747253 
L 446.928068 161.815648 
L 447.069937 167.302729 
L 447.210921 157.544784 
L 447.351507 166.696636 
L 447.49306 163.035895 
L 447.633891 164.256142 
L 447.774592 159.375154 
L 447.915603 163.646019 
L 448.056113 155.714414 
L 448.197209 165.476389 
L 448.337869 161.815648 
L 448.478803 166.696636 
L 448.619415 159.985278 
L 448.760443 177.068735 
L 448.901141 160.595401 
L 449.042235 169.747253 
L 449.182957 156.324537 
L 449.324565 170.357377 
L 449.46587 155.714414 
L 449.609839 352.174167 
L 449.758019 352.174167 
L 449.906337 345.462809 
L 450.188485 244.182315 
L 450.470366 120.327253 
L 450.89358 132.529722 
L 451.03519 134.360093 
L 451.458191 167.916883 
L 451.599008 155.10429 
L 451.740102 163.035895 
L 451.881134 154.494167 
L 452.021764 161.815648 
L 452.162905 150.223302 
L 452.303795 160.595401 
L 452.444941 154.494167 
L 452.585986 163.646019 
L 452.726699 158.154907 
L 453.00938 159.985278 
L 453.150305 165.476389 
L 453.291026 160.595401 
L 453.432545 172.187747 
L 453.715229 163.646019 
L 453.855872 161.815648 
L 453.99656 167.302729 
L 454.137284 163.035895 
L 454.277873 170.357377 
L 454.418628 163.035895 
L 454.559348 168.527006 
L 454.700057 162.425772 
L 454.844894 163.646019 
L 454.986605 158.765031 
L 455.127335 164.256142 
L 455.267995 159.985278 
L 455.408647 159.985278 
L 455.549268 155.714414 
L 455.690028 159.375154 
L 455.971414 157.544784 
L 456.112469 163.035895 
L 456.253276 159.375154 
L 456.394084 159.375154 
L 456.675271 162.425772 
L 456.815856 159.375154 
L 456.957324 167.302729 
L 457.099002 156.93466 
L 457.239808 164.256142 
L 457.381243 162.425772 
L 457.522666 169.747253 
L 457.6636 165.476389 
L 457.804328 168.527006 
L 457.94544 163.646019 
L 458.086793 169.747253 
L 458.227744 163.035895 
L 458.368712 162.425772 
L 458.510048 167.302729 
L 458.650838 164.256142 
L 458.932868 165.476389 
L 459.073694 160.595401 
L 459.214658 166.696636 
L 459.355484 164.866265 
L 459.49621 166.086512 
L 459.636752 162.425772 
L 459.777584 165.476389 
L 459.918436 156.93466 
L 460.059599 161.815648 
L 460.201476 154.494167 
L 460.342471 160.595401 
L 460.48342 151.443549 
L 460.624935 159.985278 
L 460.765439 154.494167 
L 460.905978 164.866265 
L 461.047723 152.053673 
L 461.188213 159.375154 
L 461.329177 157.544784 
L 461.470472 164.866265 
L 461.611018 155.714414 
L 461.751581 159.985278 
L 461.892074 158.154907 
L 462.03248 162.425772 
L 462.17318 159.375154 
L 462.454199 165.476389 
L 462.595062 163.646019 
L 462.736056 167.302729 
L 462.877147 165.476389 
L 463.15862 166.696636 
L 463.301778 352.174167 
L 463.597136 352.174167 
L 463.878287 278.349228 
L 464.162782 141.071451 
L 464.303629 127.038611 
L 464.725711 136.190463 
L 464.866459 136.800586 
L 465.289117 168.527006 
L 465.429937 165.476389 
L 465.571061 109.955154 
L 465.712964 161.815648 
L 465.853848 159.985278 
L 465.994557 160.595401 
L 466.136217 158.154907 
L 466.278188 161.815648 
L 466.420116 161.815648 
L 466.561158 156.93466 
L 466.701738 161.205525 
L 466.984293 153.884043 
L 467.12553 158.765031 
L 467.267156 155.10429 
L 467.407879 161.815648 
L 467.54847 155.714414 
L 467.971523 159.985278 
L 468.112683 157.544784 
L 468.254357 164.866265 
L 468.395852 155.714414 
L 468.53721 162.425772 
L 468.677741 158.154907 
L 468.8183 163.646019 
L 468.958925 158.765031 
L 469.099595 166.696636 
L 469.240126 163.035895 
L 469.38069 166.086512 
L 469.522262 163.035895 
L 469.663366 166.696636 
L 469.804316 162.408846 
L 469.945073 166.086512 
L 470.085796 163.035895 
L 470.226427 163.035895 
L 470.366981 161.815648 
L 470.508135 166.086512 
L 470.789911 161.815648 
L 470.931486 161.815648 
L 471.072565 161.205525 
L 471.213605 163.646019 
L 471.354116 160.595401 
L 471.495057 162.425772 
L 471.919584 153.884043 
L 472.060647 156.324537 
L 472.202215 152.663796 
L 472.343358 160.595401 
L 472.484514 155.10429 
L 472.625386 156.93466 
L 472.766302 156.324537 
L 472.907106 155.10429 
L 473.048095 156.324537 
L 473.188667 159.375154 
L 473.329443 155.714414 
L 473.470355 161.205525 
L 473.611749 158.765031 
L 473.753438 161.205525 
L 473.895035 160.595401 
L 474.035705 164.866265 
L 474.176647 161.188599 
L 474.317286 166.086512 
L 474.459013 159.985278 
L 474.600822 166.696636 
L 474.742004 159.375154 
L 474.883126 164.256142 
L 475.024105 159.375154 
L 475.16536 163.646019 
L 475.306327 160.578476 
L 475.588905 165.476389 
L 475.870977 161.815648 
L 476.011904 161.815648 
L 476.152574 164.866265 
L 476.71654 155.10429 
L 476.857195 156.324537 
L 476.998232 168.527006 
L 477.146212 352.174167 
L 477.294533 352.174167 
L 477.581082 283.230216 
L 477.862965 147.782809 
L 478.004207 128.868981 
L 478.14518 127.648735 
L 478.287043 131.919599 
L 478.427738 127.038611 
L 478.708751 140.444402 
L 478.99103 177.678858 
L 479.132162 165.476389 
L 479.413625 162.425772 
L 479.554328 161.815648 
L 479.695093 162.425772 
L 479.835778 160.595401 
L 479.976341 163.646019 
L 480.117467 161.205525 
L 480.259021 162.425772 
L 480.400687 159.375154 
L 480.541465 163.646019 
L 480.682268 159.985278 
L 480.823015 161.205525 
L 480.963654 161.205525 
L 481.104345 166.696636 
L 481.245059 161.205525 
L 481.385751 167.302729 
L 481.52771 156.324537 
L 481.66952 169.747253 
L 481.810557 158.765031 
L 481.951228 174.018117 
L 482.091986 161.815648 
L 482.232885 171.577623 
L 482.373671 158.154907 
L 482.514638 171.577623 
L 482.655807 155.10429 
L 482.797179 168.527006 
L 482.939211 161.205525 
L 483.080397 167.916883 
L 483.221202 162.425772 
L 483.362203 169.747253 
L 483.503003 161.815648 
L 483.643613 169.13713 
L 483.7844 161.205525 
L 483.925072 166.086512 
L 484.065518 161.205525 
L 484.206925 169.747253 
L 484.348393 164.866265 
L 484.489215 164.256142 
L 484.630054 164.256142 
L 484.911388 159.985278 
L 485.052311 159.985278 
L 485.193328 161.815648 
L 485.334113 158.765031 
L 485.618372 162.425772 
L 485.901236 159.985278 
L 486.041514 161.205525 
L 486.182202 159.985278 
L 486.322762 164.256142 
L 486.463611 159.985278 
L 486.604301 166.696636 
L 486.744962 154.494167 
L 486.886333 169.747253 
L 487.027262 155.714414 
L 487.168145 169.747253 
L 487.30898 159.985278 
L 487.449473 169.747253 
L 487.589882 157.544784 
L 487.730464 170.9675 
L 487.871329 158.765031 
L 488.012393 169.747253 
L 488.152898 161.815648 
L 488.29431 166.696636 
L 488.436186 161.815648 
L 488.577138 169.13713 
L 488.717783 163.035895 
L 488.85952 167.302729 
L 489.000472 159.375154 
L 489.14178 162.425772 
L 489.282609 159.985278 
L 489.423123 162.425772 
L 489.56481 160.595401 
L 489.705928 161.205525 
L 489.847024 162.425772 
L 489.987726 162.425772 
L 490.128514 161.205525 
L 490.269438 164.866265 
L 490.410499 159.985278 
L 490.551205 163.035895 
L 490.692127 158.765031 
L 490.835022 352.174167 
L 491.130539 352.174167 
L 491.412352 266.146759 
L 491.694037 144.122068 
L 491.835276 131.309475 
L 491.976151 128.868981 
L 492.116705 134.360093 
L 492.258081 124.598117 
L 492.541167 148.392932 
L 492.682413 163.035895 
L 492.823087 162.425772 
L 492.964057 164.256142 
L 493.105149 160.595401 
L 493.245971 166.696636 
L 493.386861 150.833426 
L 493.527615 158.765031 
L 493.669052 150.223302 
L 493.809727 160.595401 
L 493.950396 153.884043 
L 494.091217 163.646019 
L 494.232031 156.324537 
L 494.373124 170.9675 
L 494.513946 159.985278 
L 494.65461 169.13713 
L 494.794906 162.425772 
L 494.936982 164.866265 
L 495.078226 170.9675 
L 495.219054 166.086512 
L 495.360204 170.357377 
L 495.500781 168.527006 
L 495.641465 171.577623 
L 495.782845 163.646019 
L 495.923854 167.302729 
L 496.064945 158.765031 
L 496.205691 169.13713 
L 496.346595 161.205525 
L 496.487105 166.696636 
L 496.627231 160.595401 
L 496.76828 164.256142 
L 496.909029 156.93466 
L 497.050329 164.866265 
L 497.332702 159.375154 
L 497.474457 158.154907 
L 497.615993 161.205525 
L 497.756962 158.154907 
L 497.897715 160.595401 
L 498.0385 154.494167 
L 498.179617 166.086512 
L 498.320247 153.884043 
L 498.461503 173.407994 
L 498.602679 156.93466 
L 498.743514 166.086512 
L 498.884612 155.10429 
L 499.026776 166.696636 
L 499.168503 156.93466 
L 499.309826 165.476389 
L 499.45115 162.425772 
L 499.592315 165.476389 
L 499.733145 166.086512 
L 499.873832 163.035895 
L 500.015288 168.527006 
L 500.155977 167.916883 
L 500.297785 168.527006 
L 500.440043 164.866265 
L 500.580802 166.086512 
L 500.721402 163.035895 
L 500.862017 168.527006 
L 501.002667 160.595401 
L 501.14318 167.916883 
L 501.283866 165.476389 
L 501.424442 167.302729 
L 501.564942 162.425772 
L 501.706679 167.916883 
L 502.128699 160.595401 
L 502.269264 164.866265 
L 502.40994 164.256142 
L 502.550666 166.086512 
L 502.69135 158.154907 
L 502.832053 168.527006 
L 502.973132 159.375154 
L 503.113882 167.916883 
L 503.254712 157.544784 
L 503.39618 171.577623 
L 503.53769 155.714414 
L 503.679155 166.696636 
L 503.820624 151.443549 
L 503.96219 163.646019 
L 504.103582 161.815648 
L 504.24503 167.916883 
L 504.386936 158.154907 
L 504.811225 352.174167 
L 504.953142 332.650216 
L 505.236051 234.42034 
L 505.519267 120.937377 
L 505.661203 130.089228 
L 505.802803 120.327253 
L 505.944406 140.461327 
L 506.085889 129.479105 
L 506.22734 154.494167 
L 506.368807 151.443549 
L 506.510273 181.339599 
L 506.651858 169.747253 
L 506.793638 175.238364 
L 506.935067 162.425772 
L 507.076959 172.79787 
L 507.218645 157.544784 
L 507.3601 170.357377 
L 507.501576 156.324537 
L 507.643139 170.357377 
L 507.784648 160.595401 
L 507.926261 169.747253 
L 508.067868 158.154907 
L 508.209459 166.086512 
L 508.351334 156.93466 
L 508.492894 166.086512 
L 508.63445 157.544784 
L 508.775929 167.302729 
L 508.917363 154.494167 
L 509.058948 161.815648 
L 509.200756 155.10429 
L 509.342298 164.256142 
L 509.483725 161.815648 
L 509.624515 164.866265 
L 509.765344 161.815648 
L 509.90704 170.357377 
L 510.048547 167.916883 
L 510.190062 163.035895 
L 510.331698 173.407994 
L 510.473278 158.154907 
L 510.614069 172.79787 
L 510.754838 159.375154 
L 510.895676 172.780945 
L 511.036992 157.544784 
L 511.179192 174.628241 
L 511.320252 160.595401 
L 511.461788 168.527006 
L 511.602412 163.646019 
L 511.743424 170.357377 
L 511.884274 165.476389 
L 512.025824 172.79787 
L 512.167172 166.086512 
L 512.308401 174.018117 
L 512.449372 163.646019 
L 512.590521 172.79787 
L 512.73166 166.086512 
L 512.872296 172.79787 
L 513.013057 162.425772 
L 513.154065 170.9675 
L 513.295132 159.985278 
L 513.435875 170.357377 
L 513.576986 159.985278 
L 513.718793 166.086512 
L 513.860489 155.714414 
L 514.001734 166.086512 
L 514.142445 158.154907 
L 514.283372 163.646019 
L 514.424146 155.10429 
L 514.565452 163.035895 
L 514.707171 159.985278 
L 514.847888 159.985278 
L 515.13376 163.035895 
L 515.41538 167.302729 
L 515.556047 166.086512 
L 515.837231 172.187747 
L 515.9782 168.527006 
L 516.119093 169.13713 
L 516.260042 165.459463 
L 516.40129 172.79787 
L 516.542888 163.035895 
L 516.684454 170.9675 
L 516.825926 160.595401 
L 516.967346 174.628241 
L 517.108724 164.866265 
L 517.250519 169.747253 
L 517.391292 159.375154 
L 517.532993 170.9675 
L 517.674242 158.154907 
L 517.815121 171.577623 
L 517.956674 157.544784 
L 518.098078 164.866265 
L 518.239601 155.714414 
L 518.382797 352.174167 
L 518.526303 352.174167 
L 518.677996 349.123549 
L 518.964107 235.640586 
L 519.247314 128.868981 
L 519.388864 133.749969 
L 519.530378 128.868981 
L 519.671849 144.122068 
L 519.813281 136.190463 
L 520.237059 169.747253 
L 520.378313 160.595401 
L 520.519449 165.476389 
L 520.661419 155.10429 
L 520.802172 161.205525 
L 520.942914 153.884043 
L 521.083857 158.765031 
L 521.224951 156.324537 
L 521.365923 163.646019 
L 521.507248 159.985278 
L 521.649723 166.086512 
L 521.649723 166.086512 
" style="fill:none;stroke:#1f77b4;stroke-linecap:square;stroke-width:1.5;"/>
   </g>
   <g id="patch_3">
    <path d="M 120.878594 352.174167 
L 120.878594 35.0625 
" style="fill:none;stroke:#000000;stroke-linecap:square;stroke-linejoin:miter;stroke-width:0.8;"/>
   </g>
   <g id="patch_4">
    <path d="M 540.734062 352.174167 
L 540.734062 35.0625 
" style="fill:none;stroke:#000000;stroke-linecap:square;stroke-linejoin:miter;stroke-width:0.8;"/>
   </g>
   <g id="patch_5">
    <path d="M 120.878594 352.174167 
L 540.734062 352.174167 
" style="fill:none;stroke:#000000;stroke-linecap:square;stroke-linejoin:miter;stroke-width:0.8;"/>
   </g>
   <g id="patch_6">
    <path d="M 120.878594 35.0625 
L 540.734062 35.0625 
" style="fill:none;stroke:#000000;stroke-linecap:square;stroke-linejoin:miter;stroke-width:0.8;"/>
   </g>
   <g id="legend_1">
    <g id="patch_7">
     <path d="M 563.726836 63.938438 
L 627.601836 63.938438 
Q 629.601836 63.938438 629.601836 61.938438 
L 629.601836 37.0625 
Q 629.601836 35.0625 627.601836 35.0625 
L 563.726836 35.0625 
Q 561.726836 35.0625 561.726836 37.0625 
L 561.726836 61.938438 
Q 561.726836 63.938438 563.726836 63.938438 
z
" style="fill:#ffffff;opacity:0.8;stroke:#cccccc;stroke-linejoin:miter;"/>
    </g>
    <g id="line2d_16">
     <path d="M 565.726836 49.799688 
L 585.726836 49.799688 
" style="fill:none;stroke:#1f77b4;stroke-linecap:square;stroke-width:1.5;"/>
    </g>
    <g id="line2d_17"/>
    <g id="text_16">
     <!-- queue -->
     <g transform="translate(593.726836 46.660937)scale(0.1 -0.1)">
      <use xlink:href="#DejaVuSans-113"/>
      <use x="63.476562" xlink:href="#DejaVuSans-117"/>
      <use x="126.855469" xlink:href="#DejaVuSans-101"/>
      <use x="188.378906" xlink:href="#DejaVuSans-117"/>
      <use x="251.757812" xlink:href="#DejaVuSans-101"/>
     </g>
     <!-- length -->
     <defs>
      <path d="M 9.421875 75.984375 
L 18.40625 75.984375 
L 18.40625 0 
L 9.421875 0 
z
" id="DejaVuSans-108"/>
      <path d="M 54.890625 33.015625 
L 54.890625 0 
L 45.90625 0 
L 45.90625 32.71875 
Q 45.90625 40.484375 42.875 44.328125 
Q 39.84375 48.1875 33.796875 48.1875 
Q 26.515625 48.1875 22.3125 43.546875 
Q 18.109375 38.921875 18.109375 30.90625 
L 18.109375 0 
L 9.078125 0 
L 9.078125 54.6875 
L 18.109375 54.6875 
L 18.109375 46.1875 
Q 21.34375 51.125 25.703125 53.5625 
Q 30.078125 56 35.796875 56 
Q 45.21875 56 50.046875 50.171875 
Q 54.890625 44.34375 54.890625 33.015625 
z
" id="DejaVuSans-110"/>
      <path d="M 45.40625 27.984375 
Q 45.40625 37.75 41.375 43.109375 
Q 37.359375 48.484375 30.078125 48.484375 
Q 22.859375 48.484375 18.828125 43.109375 
Q 14.796875 37.75 14.796875 27.984375 
Q 14.796875 18.265625 18.828125 12.890625 
Q 22.859375 7.515625 30.078125 7.515625 
Q 37.359375 7.515625 41.375 12.890625 
Q 45.40625 18.265625 45.40625 27.984375 
z
M 54.390625 6.78125 
Q 54.390625 -7.171875 48.1875 -13.984375 
Q 42 -20.796875 29.203125 -20.796875 
Q 24.46875 -20.796875 20.265625 -20.09375 
Q 16.0625 -19.390625 12.109375 -17.921875 
L 12.109375 -9.1875 
Q 16.0625 -11.328125 19.921875 -12.34375 
Q 23.78125 -13.375 27.78125 -13.375 
Q 36.625 -13.375 41.015625 -8.765625 
Q 45.40625 -4.15625 45.40625 5.171875 
L 45.40625 9.625 
Q 42.625 4.78125 38.28125 2.390625 
Q 33.9375 0 27.875 0 
Q 17.828125 0 11.671875 7.65625 
Q 5.515625 15.328125 5.515625 27.984375 
Q 5.515625 40.671875 11.671875 48.328125 
Q 17.828125 56 27.875 56 
Q 33.9375 56 38.28125 53.609375 
Q 42.625 51.21875 45.40625 46.390625 
L 45.40625 54.6875 
L 54.390625 54.6875 
z
" id="DejaVuSans-103"/>
      <path d="M 54.890625 33.015625 
L 54.890625 0 
L 45.90625 0 
L 45.90625 32.71875 
Q 45.90625 40.484375 42.875 44.328125 
Q 39.84375 48.1875 33.796875 48.1875 
Q 26.515625 48.1875 22.3125 43.546875 
Q 18.109375 38.921875 18.109375 30.90625 
L 18.109375 0 
L 9.078125 0 
L 9.078125 75.984375 
L 18.109375 75.984375 
L 18.109375 46.1875 
Q 21.34375 51.125 25.703125 53.5625 
Q 30.078125 56 35.796875 56 
Q 45.21875 56 50.046875 50.171875 
Q 54.890625 44.34375 54.890625 33.015625 
z
" id="DejaVuSans-104"/>
     </defs>
     <g transform="translate(593.726836 57.85875)scale(0.1 -0.1)">
      <use xlink:href="#DejaVuSans-108"/>
      <use x="27.783203" xlink:href="#DejaVuSans-101"/>
      <use x="89.306641" xlink:href="#DejaVuSans-110"/>
      <use x="152.685547" xlink:href="#DejaVuSans-103"/>
      <use x="216.162109" xlink:href="#DejaVuSans-116"/>
      <use x="255.371094" xlink:href="#DejaVuSans-104"/>
     </g>
    </g>
   </g>
  </g>
  <g id="text_17">
   <!-- result queue (bytes) -->
   <defs>
    <path d="M 41.109375 46.296875 
Q 39.59375 47.171875 37.8125 47.578125 
Q 36.03125 48 33.890625 48 
Q 26.265625 48 22.1875 43.046875 
Q 18.109375 38.09375 18.109375 28.8125 
L 18.109375 0 
L 9.078125 0 
L 9.078125 54.6875 
L 18.109375 54.6875 
L 18.109375 46.1875 
Q 20.953125 51.171875 25.484375 53.578125 
Q 30.03125 56 36.53125 56 
Q 37.453125 56 38.578125 55.875 
Q 39.703125 55.765625 41.0625 55.515625 
z
" id="DejaVuSans-114"/>
    <path id="DejaVuSans-32"/>
   </defs>
   <g transform="translate(281.072812 17.038125)scale(0.12 -0.12)">
    <use xlink:href="#DejaVuSans-114"/>
    <use x="41.082031" xlink:href="#DejaVuSans-101"/>
    <use x="102.605469" xlink:href="#DejaVuSans-115"/>
    <use x="154.705078" xlink:href="#DejaVuSans-117"/>
    <use x="218.083984" xlink:href="#DejaVuSans-108"/>
    <use x="245.867188" xlink:href="#DejaVuSans-116"/>
    <use x="285.076172" xlink:href="#DejaVuSans-32"/>
    <use x="316.863281" xlink:href="#DejaVuSans-113"/>
    <use x="380.339844" xlink:href="#DejaVuSans-117"/>
    <use x="443.71875" xlink:href="#DejaVuSans-101"/>
    <use x="505.242188" xlink:href="#DejaVuSans-117"/>
    <use x="568.621094" xlink:href="#DejaVuSans-101"/>
    <use x="630.144531" xlink:href="#DejaVuSans-32"/>
    <use x="661.931641" xlink:href="#DejaVuSans-40"/>
    <use x="700.945312" xlink:href="#DejaVuSans-98"/>
    <use x="764.421875" xlink:href="#DejaVuSans-121"/>
    <use x="823.601562" xlink:href="#DejaVuSans-116"/>
    <use x="862.810547" xlink:href="#DejaVuSans-101"/>
    <use x="924.333984" xlink:href="#DejaVuSans-115"/>
    <use x="976.433594" xlink:href="#DejaVuSans-41"/>
   </g>
  </g>
 </g>
 <defs>
  <clipPath id="p679890ed42">
   <rect height="317.111667" width="419.855469" x="120.878594" y="35.0625"/>
  </clipPath>
 </defs>
</svg>
