<?xml version="1.0" encoding="utf-8" standalone="no"?>
<!DOCTYPE svg PUBLIC "-//W3C//DTD SVG 1.1//EN"
  "http://www.w3.org/Graphics/SVG/1.1/DTD/svg11.dtd">
<!-- Created with matplotlib (https://matplotlib.org/) -->
<svg height="396pt" version="1.1" viewBox="0 0 684 396" width="684pt" xmlns="http://www.w3.org/2000/svg" xmlns:xlink="http://www.w3.org/1999/xlink">
 <defs>
  <style type="text/css">
*{stroke-linecap:butt;stroke-linejoin:round;}
  </style>
 </defs>
 <g id="figure_1">
  <g id="patch_1">
   <path d="M 0 396 
L 684 396 
L 684 0 
L 0 0 
z
" style="fill:#ffffff;"/>
  </g>
  <g id="axes_1">
   <g id="patch_2">
    <path d="M 83.472344 352.174167 
L 488.365312 352.174167 
L 488.365312 35.0625 
L 83.472344 35.0625 
z
" style="fill:#ffffff;"/>
   </g>
   <g id="matplotlib.axis_1">
    <g id="xtick_1">
     <g id="line2d_1">
      <defs>
       <path d="M 0 0 
L 0 3.5 
" id="mc8e659f3dc" style="stroke:#000000;stroke-width:0.8;"/>
      </defs>
      <g>
       <use style="stroke:#000000;stroke-width:0.8;" x="101.87657" xlink:href="#mc8e659f3dc" y="352.174167"/>
      </g>
     </g>
     <g id="text_1">
      <!-- 0 -->
      <defs>
       <path d="M 31.78125 66.40625 
Q 24.171875 66.40625 20.328125 58.90625 
Q 16.5 51.421875 16.5 36.375 
Q 16.5 21.390625 20.328125 13.890625 
Q 24.171875 6.390625 31.78125 6.390625 
Q 39.453125 6.390625 43.28125 13.890625 
Q 47.125 21.390625 47.125 36.375 
Q 47.125 51.421875 43.28125 58.90625 
Q 39.453125 66.40625 31.78125 66.40625 
z
M 31.78125 74.21875 
Q 44.046875 74.21875 50.515625 64.515625 
Q 56.984375 54.828125 56.984375 36.375 
Q 56.984375 17.96875 50.515625 8.265625 
Q 44.046875 -1.421875 31.78125 -1.421875 
Q 19.53125 -1.421875 13.0625 8.265625 
Q 6.59375 17.96875 6.59375 36.375 
Q 6.59375 54.828125 13.0625 64.515625 
Q 19.53125 74.21875 31.78125 74.21875 
z
" id="DejaVuSans-48"/>
      </defs>
      <g transform="translate(98.69532 366.772604)scale(0.1 -0.1)">
       <use xlink:href="#DejaVuSans-48"/>
      </g>
     </g>
    </g>
    <g id="xtick_2">
     <g id="line2d_2">
      <g>
       <use style="stroke:#000000;stroke-width:0.8;" x="168.654117" xlink:href="#mc8e659f3dc" y="352.174167"/>
      </g>
     </g>
     <g id="text_2">
      <!-- 50 -->
      <defs>
       <path d="M 10.796875 72.90625 
L 49.515625 72.90625 
L 49.515625 64.59375 
L 19.828125 64.59375 
L 19.828125 46.734375 
Q 21.96875 47.46875 24.109375 47.828125 
Q 26.265625 48.1875 28.421875 48.1875 
Q 40.625 48.1875 47.75 41.5 
Q 54.890625 34.8125 54.890625 23.390625 
Q 54.890625 11.625 47.5625 5.09375 
Q 40.234375 -1.421875 26.90625 -1.421875 
Q 22.3125 -1.421875 17.546875 -0.640625 
Q 12.796875 0.140625 7.71875 1.703125 
L 7.71875 11.625 
Q 12.109375 9.234375 16.796875 8.0625 
Q 21.484375 6.890625 26.703125 6.890625 
Q 35.15625 6.890625 40.078125 11.328125 
Q 45.015625 15.765625 45.015625 23.390625 
Q 45.015625 31 40.078125 35.4375 
Q 35.15625 39.890625 26.703125 39.890625 
Q 22.75 39.890625 18.8125 39.015625 
Q 14.890625 38.140625 10.796875 36.28125 
z
" id="DejaVuSans-53"/>
      </defs>
      <g transform="translate(162.291617 366.772604)scale(0.1 -0.1)">
       <use xlink:href="#DejaVuSans-53"/>
       <use x="63.623047" xlink:href="#DejaVuSans-48"/>
      </g>
     </g>
    </g>
    <g id="xtick_3">
     <g id="line2d_3">
      <g>
       <use style="stroke:#000000;stroke-width:0.8;" x="235.431664" xlink:href="#mc8e659f3dc" y="352.174167"/>
      </g>
     </g>
     <g id="text_3">
      <!-- 100 -->
      <defs>
       <path d="M 12.40625 8.296875 
L 28.515625 8.296875 
L 28.515625 63.921875 
L 10.984375 60.40625 
L 10.984375 69.390625 
L 28.421875 72.90625 
L 38.28125 72.90625 
L 38.28125 8.296875 
L 54.390625 8.296875 
L 54.390625 0 
L 12.40625 0 
z
" id="DejaVuSans-49"/>
      </defs>
      <g transform="translate(225.887914 366.772604)scale(0.1 -0.1)">
       <use xlink:href="#DejaVuSans-49"/>
       <use x="63.623047" xlink:href="#DejaVuSans-48"/>
       <use x="127.246094" xlink:href="#DejaVuSans-48"/>
      </g>
     </g>
    </g>
    <g id="xtick_4">
     <g id="line2d_4">
      <g>
       <use style="stroke:#000000;stroke-width:0.8;" x="302.209211" xlink:href="#mc8e659f3dc" y="352.174167"/>
      </g>
     </g>
     <g id="text_4">
      <!-- 150 -->
      <g transform="translate(292.665461 366.772604)scale(0.1 -0.1)">
       <use xlink:href="#DejaVuSans-49"/>
       <use x="63.623047" xlink:href="#DejaVuSans-53"/>
       <use x="127.246094" xlink:href="#DejaVuSans-48"/>
      </g>
     </g>
    </g>
    <g id="xtick_5">
     <g id="line2d_5">
      <g>
       <use style="stroke:#000000;stroke-width:0.8;" x="368.986758" xlink:href="#mc8e659f3dc" y="352.174167"/>
      </g>
     </g>
     <g id="text_5">
      <!-- 200 -->
      <defs>
       <path d="M 19.1875 8.296875 
L 53.609375 8.296875 
L 53.609375 0 
L 7.328125 0 
L 7.328125 8.296875 
Q 12.9375 14.109375 22.625 23.890625 
Q 32.328125 33.6875 34.8125 36.53125 
Q 39.546875 41.84375 41.421875 45.53125 
Q 43.3125 49.21875 43.3125 52.78125 
Q 43.3125 58.59375 39.234375 62.25 
Q 35.15625 65.921875 28.609375 65.921875 
Q 23.96875 65.921875 18.8125 64.3125 
Q 13.671875 62.703125 7.8125 59.421875 
L 7.8125 69.390625 
Q 13.765625 71.78125 18.9375 73 
Q 24.125 74.21875 28.421875 74.21875 
Q 39.75 74.21875 46.484375 68.546875 
Q 53.21875 62.890625 53.21875 53.421875 
Q 53.21875 48.921875 51.53125 44.890625 
Q 49.859375 40.875 45.40625 35.40625 
Q 44.1875 33.984375 37.640625 27.21875 
Q 31.109375 20.453125 19.1875 8.296875 
z
" id="DejaVuSans-50"/>
      </defs>
      <g transform="translate(359.443008 366.772604)scale(0.1 -0.1)">
       <use xlink:href="#DejaVuSans-50"/>
       <use x="63.623047" xlink:href="#DejaVuSans-48"/>
       <use x="127.246094" xlink:href="#DejaVuSans-48"/>
      </g>
     </g>
    </g>
    <g id="xtick_6">
     <g id="line2d_6">
      <g>
       <use style="stroke:#000000;stroke-width:0.8;" x="435.764305" xlink:href="#mc8e659f3dc" y="352.174167"/>
      </g>
     </g>
     <g id="text_6">
      <!-- 250 -->
      <g transform="translate(426.220555 366.772604)scale(0.1 -0.1)">
       <use xlink:href="#DejaVuSans-50"/>
       <use x="63.623047" xlink:href="#DejaVuSans-53"/>
       <use x="127.246094" xlink:href="#DejaVuSans-48"/>
      </g>
     </g>
    </g>
   </g>
   <g id="matplotlib.axis_2">
    <g id="ytick_1">
     <g id="line2d_7">
      <defs>
       <path d="M 0 0 
L -3.5 0 
" id="m23d8727cf3" style="stroke:#000000;stroke-width:0.8;"/>
      </defs>
      <g>
       <use style="stroke:#000000;stroke-width:0.8;" x="83.472344" xlink:href="#m23d8727cf3" y="352.174167"/>
      </g>
     </g>
     <g id="text_7">
      <!-- 0 -->
      <g transform="translate(70.109844 355.973385)scale(0.1 -0.1)">
       <use xlink:href="#DejaVuSans-48"/>
      </g>
     </g>
    </g>
    <g id="ytick_2">
     <g id="line2d_8">
      <g>
       <use style="stroke:#000000;stroke-width:0.8;" x="83.472344" xlink:href="#m23d8727cf3" y="313.898769"/>
      </g>
     </g>
     <g id="text_8">
      <!-- 10 -->
      <g transform="translate(63.747344 317.697988)scale(0.1 -0.1)">
       <use xlink:href="#DejaVuSans-49"/>
       <use x="63.623047" xlink:href="#DejaVuSans-48"/>
      </g>
     </g>
    </g>
    <g id="ytick_3">
     <g id="line2d_9">
      <g>
       <use style="stroke:#000000;stroke-width:0.8;" x="83.472344" xlink:href="#m23d8727cf3" y="275.623372"/>
      </g>
     </g>
     <g id="text_9">
      <!-- 20 -->
      <g transform="translate(63.747344 279.422591)scale(0.1 -0.1)">
       <use xlink:href="#DejaVuSans-50"/>
       <use x="63.623047" xlink:href="#DejaVuSans-48"/>
      </g>
     </g>
    </g>
    <g id="ytick_4">
     <g id="line2d_10">
      <g>
       <use style="stroke:#000000;stroke-width:0.8;" x="83.472344" xlink:href="#m23d8727cf3" y="237.347975"/>
      </g>
     </g>
     <g id="text_10">
      <!-- 30 -->
      <defs>
       <path d="M 40.578125 39.3125 
Q 47.65625 37.796875 51.625 33 
Q 55.609375 28.21875 55.609375 21.1875 
Q 55.609375 10.40625 48.1875 4.484375 
Q 40.765625 -1.421875 27.09375 -1.421875 
Q 22.515625 -1.421875 17.65625 -0.515625 
Q 12.796875 0.390625 7.625 2.203125 
L 7.625 11.71875 
Q 11.71875 9.328125 16.59375 8.109375 
Q 21.484375 6.890625 26.8125 6.890625 
Q 36.078125 6.890625 40.9375 10.546875 
Q 45.796875 14.203125 45.796875 21.1875 
Q 45.796875 27.640625 41.28125 31.265625 
Q 36.765625 34.90625 28.71875 34.90625 
L 20.21875 34.90625 
L 20.21875 43.015625 
L 29.109375 43.015625 
Q 36.375 43.015625 40.234375 45.921875 
Q 44.09375 48.828125 44.09375 54.296875 
Q 44.09375 59.90625 40.109375 62.90625 
Q 36.140625 65.921875 28.71875 65.921875 
Q 24.65625 65.921875 20.015625 65.03125 
Q 15.375 64.15625 9.8125 62.3125 
L 9.8125 71.09375 
Q 15.4375 72.65625 20.34375 73.4375 
Q 25.25 74.21875 29.59375 74.21875 
Q 40.828125 74.21875 47.359375 69.109375 
Q 53.90625 64.015625 53.90625 55.328125 
Q 53.90625 49.265625 50.4375 45.09375 
Q 46.96875 40.921875 40.578125 39.3125 
z
" id="DejaVuSans-51"/>
      </defs>
      <g transform="translate(63.747344 241.147194)scale(0.1 -0.1)">
       <use xlink:href="#DejaVuSans-51"/>
       <use x="63.623047" xlink:href="#DejaVuSans-48"/>
      </g>
     </g>
    </g>
    <g id="ytick_5">
     <g id="line2d_11">
      <g>
       <use style="stroke:#000000;stroke-width:0.8;" x="83.472344" xlink:href="#m23d8727cf3" y="199.072577"/>
      </g>
     </g>
     <g id="text_11">
      <!-- 40 -->
      <defs>
       <path d="M 37.796875 64.3125 
L 12.890625 25.390625 
L 37.796875 25.390625 
z
M 35.203125 72.90625 
L 47.609375 72.90625 
L 47.609375 25.390625 
L 58.015625 25.390625 
L 58.015625 17.1875 
L 47.609375 17.1875 
L 47.609375 0 
L 37.796875 0 
L 37.796875 17.1875 
L 4.890625 17.1875 
L 4.890625 26.703125 
z
" id="DejaVuSans-52"/>
      </defs>
      <g transform="translate(63.747344 202.871796)scale(0.1 -0.1)">
       <use xlink:href="#DejaVuSans-52"/>
       <use x="63.623047" xlink:href="#DejaVuSans-48"/>
      </g>
     </g>
    </g>
    <g id="ytick_6">
     <g id="line2d_12">
      <g>
       <use style="stroke:#000000;stroke-width:0.8;" x="83.472344" xlink:href="#m23d8727cf3" y="160.79718"/>
      </g>
     </g>
     <g id="text_12">
      <!-- 50 -->
      <g transform="translate(63.747344 164.596399)scale(0.1 -0.1)">
       <use xlink:href="#DejaVuSans-53"/>
       <use x="63.623047" xlink:href="#DejaVuSans-48"/>
      </g>
     </g>
    </g>
    <g id="ytick_7">
     <g id="line2d_13">
      <g>
       <use style="stroke:#000000;stroke-width:0.8;" x="83.472344" xlink:href="#m23d8727cf3" y="122.521783"/>
      </g>
     </g>
     <g id="text_13">
      <!-- 60 -->
      <defs>
       <path d="M 33.015625 40.375 
Q 26.375 40.375 22.484375 35.828125 
Q 18.609375 31.296875 18.609375 23.390625 
Q 18.609375 15.53125 22.484375 10.953125 
Q 26.375 6.390625 33.015625 6.390625 
Q 39.65625 6.390625 43.53125 10.953125 
Q 47.40625 15.53125 47.40625 23.390625 
Q 47.40625 31.296875 43.53125 35.828125 
Q 39.65625 40.375 33.015625 40.375 
z
M 52.59375 71.296875 
L 52.59375 62.3125 
Q 48.875 64.0625 45.09375 64.984375 
Q 41.3125 65.921875 37.59375 65.921875 
Q 27.828125 65.921875 22.671875 59.328125 
Q 17.53125 52.734375 16.796875 39.40625 
Q 19.671875 43.65625 24.015625 45.921875 
Q 28.375 48.1875 33.59375 48.1875 
Q 44.578125 48.1875 50.953125 41.515625 
Q 57.328125 34.859375 57.328125 23.390625 
Q 57.328125 12.15625 50.6875 5.359375 
Q 44.046875 -1.421875 33.015625 -1.421875 
Q 20.359375 -1.421875 13.671875 8.265625 
Q 6.984375 17.96875 6.984375 36.375 
Q 6.984375 53.65625 15.1875 63.9375 
Q 23.390625 74.21875 37.203125 74.21875 
Q 40.921875 74.21875 44.703125 73.484375 
Q 48.484375 72.75 52.59375 71.296875 
z
" id="DejaVuSans-54"/>
      </defs>
      <g transform="translate(63.747344 126.321002)scale(0.1 -0.1)">
       <use xlink:href="#DejaVuSans-54"/>
       <use x="63.623047" xlink:href="#DejaVuSans-48"/>
      </g>
     </g>
    </g>
    <g id="ytick_8">
     <g id="line2d_14">
      <g>
       <use style="stroke:#000000;stroke-width:0.8;" x="83.472344" xlink:href="#m23d8727cf3" y="84.246386"/>
      </g>
     </g>
     <g id="text_14">
      <!-- 70 -->
      <defs>
       <path d="M 8.203125 72.90625 
L 55.078125 72.90625 
L 55.078125 68.703125 
L 28.609375 0 
L 18.3125 0 
L 43.21875 64.59375 
L 8.203125 64.59375 
z
" id="DejaVuSans-55"/>
      </defs>
      <g transform="translate(63.747344 88.045604)scale(0.1 -0.1)">
       <use xlink:href="#DejaVuSans-55"/>
       <use x="63.623047" xlink:href="#DejaVuSans-48"/>
      </g>
     </g>
    </g>
    <g id="ytick_9">
     <g id="line2d_15">
      <g>
       <use style="stroke:#000000;stroke-width:0.8;" x="83.472344" xlink:href="#m23d8727cf3" y="45.970988"/>
      </g>
     </g>
     <g id="text_15">
      <!-- 80 -->
      <defs>
       <path d="M 31.78125 34.625 
Q 24.75 34.625 20.71875 30.859375 
Q 16.703125 27.09375 16.703125 20.515625 
Q 16.703125 13.921875 20.71875 10.15625 
Q 24.75 6.390625 31.78125 6.390625 
Q 38.8125 6.390625 42.859375 10.171875 
Q 46.921875 13.96875 46.921875 20.515625 
Q 46.921875 27.09375 42.890625 30.859375 
Q 38.875 34.625 31.78125 34.625 
z
M 21.921875 38.8125 
Q 15.578125 40.375 12.03125 44.71875 
Q 8.5 49.078125 8.5 55.328125 
Q 8.5 64.0625 14.71875 69.140625 
Q 20.953125 74.21875 31.78125 74.21875 
Q 42.671875 74.21875 48.875 69.140625 
Q 55.078125 64.0625 55.078125 55.328125 
Q 55.078125 49.078125 51.53125 44.71875 
Q 48 40.375 41.703125 38.8125 
Q 48.828125 37.15625 52.796875 32.3125 
Q 56.78125 27.484375 56.78125 20.515625 
Q 56.78125 9.90625 50.3125 4.234375 
Q 43.84375 -1.421875 31.78125 -1.421875 
Q 19.734375 -1.421875 13.25 4.234375 
Q 6.78125 9.90625 6.78125 20.515625 
Q 6.78125 27.484375 10.78125 32.3125 
Q 14.796875 37.15625 21.921875 38.8125 
z
M 18.3125 54.390625 
Q 18.3125 48.734375 21.84375 45.5625 
Q 25.390625 42.390625 31.78125 42.390625 
Q 38.140625 42.390625 41.71875 45.5625 
Q 45.3125 48.734375 45.3125 54.390625 
Q 45.3125 60.0625 41.71875 63.234375 
Q 38.140625 66.40625 31.78125 66.40625 
Q 25.390625 66.40625 21.84375 63.234375 
Q 18.3125 60.0625 18.3125 54.390625 
z
" id="DejaVuSans-56"/>
      </defs>
      <g transform="translate(63.747344 49.770207)scale(0.1 -0.1)">
       <use xlink:href="#DejaVuSans-56"/>
       <use x="63.623047" xlink:href="#DejaVuSans-48"/>
      </g>
     </g>
    </g>
    <g id="text_16">
     <!-- throughput -->
     <defs>
      <path d="M 18.3125 70.21875 
L 18.3125 54.6875 
L 36.8125 54.6875 
L 36.8125 47.703125 
L 18.3125 47.703125 
L 18.3125 18.015625 
Q 18.3125 11.328125 20.140625 9.421875 
Q 21.96875 7.515625 27.59375 7.515625 
L 36.8125 7.515625 
L 36.8125 0 
L 27.59375 0 
Q 17.1875 0 13.234375 3.875 
Q 9.28125 7.765625 9.28125 18.015625 
L 9.28125 47.703125 
L 2.6875 47.703125 
L 2.6875 54.6875 
L 9.28125 54.6875 
L 9.28125 70.21875 
z
" id="DejaVuSans-116"/>
      <path d="M 54.890625 33.015625 
L 54.890625 0 
L 45.90625 0 
L 45.90625 32.71875 
Q 45.90625 40.484375 42.875 44.328125 
Q 39.84375 48.1875 33.796875 48.1875 
Q 26.515625 48.1875 22.3125 43.546875 
Q 18.109375 38.921875 18.109375 30.90625 
L 18.109375 0 
L 9.078125 0 
L 9.078125 75.984375 
L 18.109375 75.984375 
L 18.109375 46.1875 
Q 21.34375 51.125 25.703125 53.5625 
Q 30.078125 56 35.796875 56 
Q 45.21875 56 50.046875 50.171875 
Q 54.890625 44.34375 54.890625 33.015625 
z
" id="DejaVuSans-104"/>
      <path d="M 41.109375 46.296875 
Q 39.59375 47.171875 37.8125 47.578125 
Q 36.03125 48 33.890625 48 
Q 26.265625 48 22.1875 43.046875 
Q 18.109375 38.09375 18.109375 28.8125 
L 18.109375 0 
L 9.078125 0 
L 9.078125 54.6875 
L 18.109375 54.6875 
L 18.109375 46.1875 
Q 20.953125 51.171875 25.484375 53.578125 
Q 30.03125 56 36.53125 56 
Q 37.453125 56 38.578125 55.875 
Q 39.703125 55.765625 41.0625 55.515625 
z
" id="DejaVuSans-114"/>
      <path d="M 30.609375 48.390625 
Q 23.390625 48.390625 19.1875 42.75 
Q 14.984375 37.109375 14.984375 27.296875 
Q 14.984375 17.484375 19.15625 11.84375 
Q 23.34375 6.203125 30.609375 6.203125 
Q 37.796875 6.203125 41.984375 11.859375 
Q 46.1875 17.53125 46.1875 27.296875 
Q 46.1875 37.015625 41.984375 42.703125 
Q 37.796875 48.390625 30.609375 48.390625 
z
M 30.609375 56 
Q 42.328125 56 49.015625 48.375 
Q 55.71875 40.765625 55.71875 27.296875 
Q 55.71875 13.875 49.015625 6.21875 
Q 42.328125 -1.421875 30.609375 -1.421875 
Q 18.84375 -1.421875 12.171875 6.21875 
Q 5.515625 13.875 5.515625 27.296875 
Q 5.515625 40.765625 12.171875 48.375 
Q 18.84375 56 30.609375 56 
z
" id="DejaVuSans-111"/>
      <path d="M 8.5 21.578125 
L 8.5 54.6875 
L 17.484375 54.6875 
L 17.484375 21.921875 
Q 17.484375 14.15625 20.5 10.265625 
Q 23.53125 6.390625 29.59375 6.390625 
Q 36.859375 6.390625 41.078125 11.03125 
Q 45.3125 15.671875 45.3125 23.6875 
L 45.3125 54.6875 
L 54.296875 54.6875 
L 54.296875 0 
L 45.3125 0 
L 45.3125 8.40625 
Q 42.046875 3.421875 37.71875 1 
Q 33.40625 -1.421875 27.6875 -1.421875 
Q 18.265625 -1.421875 13.375 4.4375 
Q 8.5 10.296875 8.5 21.578125 
z
M 31.109375 56 
z
" id="DejaVuSans-117"/>
      <path d="M 45.40625 27.984375 
Q 45.40625 37.75 41.375 43.109375 
Q 37.359375 48.484375 30.078125 48.484375 
Q 22.859375 48.484375 18.828125 43.109375 
Q 14.796875 37.75 14.796875 27.984375 
Q 14.796875 18.265625 18.828125 12.890625 
Q 22.859375 7.515625 30.078125 7.515625 
Q 37.359375 7.515625 41.375 12.890625 
Q 45.40625 18.265625 45.40625 27.984375 
z
M 54.390625 6.78125 
Q 54.390625 -7.171875 48.1875 -13.984375 
Q 42 -20.796875 29.203125 -20.796875 
Q 24.46875 -20.796875 20.265625 -20.09375 
Q 16.0625 -19.390625 12.109375 -17.921875 
L 12.109375 -9.1875 
Q 16.0625 -11.328125 19.921875 -12.34375 
Q 23.78125 -13.375 27.78125 -13.375 
Q 36.625 -13.375 41.015625 -8.765625 
Q 45.40625 -4.15625 45.40625 5.171875 
L 45.40625 9.625 
Q 42.625 4.78125 38.28125 2.390625 
Q 33.9375 0 27.875 0 
Q 17.828125 0 11.671875 7.65625 
Q 5.515625 15.328125 5.515625 27.984375 
Q 5.515625 40.671875 11.671875 48.328125 
Q 17.828125 56 27.875 56 
Q 33.9375 56 38.28125 53.609375 
Q 42.625 51.21875 45.40625 46.390625 
L 45.40625 54.6875 
L 54.390625 54.6875 
z
" id="DejaVuSans-103"/>
      <path d="M 18.109375 8.203125 
L 18.109375 -20.796875 
L 9.078125 -20.796875 
L 9.078125 54.6875 
L 18.109375 54.6875 
L 18.109375 46.390625 
Q 20.953125 51.265625 25.265625 53.625 
Q 29.59375 56 35.59375 56 
Q 45.5625 56 51.78125 48.09375 
Q 58.015625 40.1875 58.015625 27.296875 
Q 58.015625 14.40625 51.78125 6.484375 
Q 45.5625 -1.421875 35.59375 -1.421875 
Q 29.59375 -1.421875 25.265625 0.953125 
Q 20.953125 3.328125 18.109375 8.203125 
z
M 48.6875 27.296875 
Q 48.6875 37.203125 44.609375 42.84375 
Q 40.53125 48.484375 33.40625 48.484375 
Q 26.265625 48.484375 22.1875 42.84375 
Q 18.109375 37.203125 18.109375 27.296875 
Q 18.109375 17.390625 22.1875 11.75 
Q 26.265625 6.109375 33.40625 6.109375 
Q 40.53125 6.109375 44.609375 11.75 
Q 48.6875 17.390625 48.6875 27.296875 
z
" id="DejaVuSans-112"/>
     </defs>
     <g transform="translate(46.469844 221.675365)rotate(-90)scale(0.1 -0.1)">
      <use xlink:href="#DejaVuSans-116"/>
      <use x="39.208984" xlink:href="#DejaVuSans-104"/>
      <use x="102.587891" xlink:href="#DejaVuSans-114"/>
      <use x="143.669922" xlink:href="#DejaVuSans-111"/>
      <use x="204.851562" xlink:href="#DejaVuSans-117"/>
      <use x="268.230469" xlink:href="#DejaVuSans-103"/>
      <use x="331.707031" xlink:href="#DejaVuSans-104"/>
      <use x="395.085938" xlink:href="#DejaVuSans-112"/>
      <use x="458.5625" xlink:href="#DejaVuSans-117"/>
      <use x="521.941406" xlink:href="#DejaVuSans-116"/>
     </g>
     <!-- (mbit / second) -->
     <defs>
      <path d="M 31 75.875 
Q 24.46875 64.65625 21.28125 53.65625 
Q 18.109375 42.671875 18.109375 31.390625 
Q 18.109375 20.125 21.3125 9.0625 
Q 24.515625 -2 31 -13.1875 
L 23.1875 -13.1875 
Q 15.875 -1.703125 12.234375 9.375 
Q 8.59375 20.453125 8.59375 31.390625 
Q 8.59375 42.28125 12.203125 53.3125 
Q 15.828125 64.359375 23.1875 75.875 
z
" id="DejaVuSans-40"/>
      <path d="M 52 44.1875 
Q 55.375 50.25 60.0625 53.125 
Q 64.75 56 71.09375 56 
Q 79.640625 56 84.28125 50.015625 
Q 88.921875 44.046875 88.921875 33.015625 
L 88.921875 0 
L 79.890625 0 
L 79.890625 32.71875 
Q 79.890625 40.578125 77.09375 44.375 
Q 74.3125 48.1875 68.609375 48.1875 
Q 61.625 48.1875 57.5625 43.546875 
Q 53.515625 38.921875 53.515625 30.90625 
L 53.515625 0 
L 44.484375 0 
L 44.484375 32.71875 
Q 44.484375 40.625 41.703125 44.40625 
Q 38.921875 48.1875 33.109375 48.1875 
Q 26.21875 48.1875 22.15625 43.53125 
Q 18.109375 38.875 18.109375 30.90625 
L 18.109375 0 
L 9.078125 0 
L 9.078125 54.6875 
L 18.109375 54.6875 
L 18.109375 46.1875 
Q 21.1875 51.21875 25.484375 53.609375 
Q 29.78125 56 35.6875 56 
Q 41.65625 56 45.828125 52.96875 
Q 50 49.953125 52 44.1875 
z
" id="DejaVuSans-109"/>
      <path d="M 48.6875 27.296875 
Q 48.6875 37.203125 44.609375 42.84375 
Q 40.53125 48.484375 33.40625 48.484375 
Q 26.265625 48.484375 22.1875 42.84375 
Q 18.109375 37.203125 18.109375 27.296875 
Q 18.109375 17.390625 22.1875 11.75 
Q 26.265625 6.109375 33.40625 6.109375 
Q 40.53125 6.109375 44.609375 11.75 
Q 48.6875 17.390625 48.6875 27.296875 
z
M 18.109375 46.390625 
Q 20.953125 51.265625 25.265625 53.625 
Q 29.59375 56 35.59375 56 
Q 45.5625 56 51.78125 48.09375 
Q 58.015625 40.1875 58.015625 27.296875 
Q 58.015625 14.40625 51.78125 6.484375 
Q 45.5625 -1.421875 35.59375 -1.421875 
Q 29.59375 -1.421875 25.265625 0.953125 
Q 20.953125 3.328125 18.109375 8.203125 
L 18.109375 0 
L 9.078125 0 
L 9.078125 75.984375 
L 18.109375 75.984375 
z
" id="DejaVuSans-98"/>
      <path d="M 9.421875 54.6875 
L 18.40625 54.6875 
L 18.40625 0 
L 9.421875 0 
z
M 9.421875 75.984375 
L 18.40625 75.984375 
L 18.40625 64.59375 
L 9.421875 64.59375 
z
" id="DejaVuSans-105"/>
      <path id="DejaVuSans-32"/>
      <path d="M 25.390625 72.90625 
L 33.6875 72.90625 
L 8.296875 -9.28125 
L 0 -9.28125 
z
" id="DejaVuSans-47"/>
      <path d="M 44.28125 53.078125 
L 44.28125 44.578125 
Q 40.484375 46.53125 36.375 47.5 
Q 32.28125 48.484375 27.875 48.484375 
Q 21.1875 48.484375 17.84375 46.4375 
Q 14.5 44.390625 14.5 40.28125 
Q 14.5 37.15625 16.890625 35.375 
Q 19.28125 33.59375 26.515625 31.984375 
L 29.59375 31.296875 
Q 39.15625 29.25 43.1875 25.515625 
Q 47.21875 21.78125 47.21875 15.09375 
Q 47.21875 7.46875 41.1875 3.015625 
Q 35.15625 -1.421875 24.609375 -1.421875 
Q 20.21875 -1.421875 15.453125 -0.5625 
Q 10.6875 0.296875 5.421875 2 
L 5.421875 11.28125 
Q 10.40625 8.6875 15.234375 7.390625 
Q 20.0625 6.109375 24.8125 6.109375 
Q 31.15625 6.109375 34.5625 8.28125 
Q 37.984375 10.453125 37.984375 14.40625 
Q 37.984375 18.0625 35.515625 20.015625 
Q 33.0625 21.96875 24.703125 23.78125 
L 21.578125 24.515625 
Q 13.234375 26.265625 9.515625 29.90625 
Q 5.8125 33.546875 5.8125 39.890625 
Q 5.8125 47.609375 11.28125 51.796875 
Q 16.75 56 26.8125 56 
Q 31.78125 56 36.171875 55.265625 
Q 40.578125 54.546875 44.28125 53.078125 
z
" id="DejaVuSans-115"/>
      <path d="M 56.203125 29.59375 
L 56.203125 25.203125 
L 14.890625 25.203125 
Q 15.484375 15.921875 20.484375 11.0625 
Q 25.484375 6.203125 34.421875 6.203125 
Q 39.59375 6.203125 44.453125 7.46875 
Q 49.3125 8.734375 54.109375 11.28125 
L 54.109375 2.78125 
Q 49.265625 0.734375 44.1875 -0.34375 
Q 39.109375 -1.421875 33.890625 -1.421875 
Q 20.796875 -1.421875 13.15625 6.1875 
Q 5.515625 13.8125 5.515625 26.8125 
Q 5.515625 40.234375 12.765625 48.109375 
Q 20.015625 56 32.328125 56 
Q 43.359375 56 49.78125 48.890625 
Q 56.203125 41.796875 56.203125 29.59375 
z
M 47.21875 32.234375 
Q 47.125 39.59375 43.09375 43.984375 
Q 39.0625 48.390625 32.421875 48.390625 
Q 24.90625 48.390625 20.390625 44.140625 
Q 15.875 39.890625 15.1875 32.171875 
z
" id="DejaVuSans-101"/>
      <path d="M 48.78125 52.59375 
L 48.78125 44.1875 
Q 44.96875 46.296875 41.140625 47.34375 
Q 37.3125 48.390625 33.40625 48.390625 
Q 24.65625 48.390625 19.8125 42.84375 
Q 14.984375 37.3125 14.984375 27.296875 
Q 14.984375 17.28125 19.8125 11.734375 
Q 24.65625 6.203125 33.40625 6.203125 
Q 37.3125 6.203125 41.140625 7.25 
Q 44.96875 8.296875 48.78125 10.40625 
L 48.78125 2.09375 
Q 45.015625 0.34375 40.984375 -0.53125 
Q 36.96875 -1.421875 32.421875 -1.421875 
Q 20.0625 -1.421875 12.78125 6.34375 
Q 5.515625 14.109375 5.515625 27.296875 
Q 5.515625 40.671875 12.859375 48.328125 
Q 20.21875 56 33.015625 56 
Q 37.15625 56 41.109375 55.140625 
Q 45.0625 54.296875 48.78125 52.59375 
z
" id="DejaVuSans-99"/>
      <path d="M 54.890625 33.015625 
L 54.890625 0 
L 45.90625 0 
L 45.90625 32.71875 
Q 45.90625 40.484375 42.875 44.328125 
Q 39.84375 48.1875 33.796875 48.1875 
Q 26.515625 48.1875 22.3125 43.546875 
Q 18.109375 38.921875 18.109375 30.90625 
L 18.109375 0 
L 9.078125 0 
L 9.078125 54.6875 
L 18.109375 54.6875 
L 18.109375 46.1875 
Q 21.34375 51.125 25.703125 53.5625 
Q 30.078125 56 35.796875 56 
Q 45.21875 56 50.046875 50.171875 
Q 54.890625 44.34375 54.890625 33.015625 
z
" id="DejaVuSans-110"/>
      <path d="M 45.40625 46.390625 
L 45.40625 75.984375 
L 54.390625 75.984375 
L 54.390625 0 
L 45.40625 0 
L 45.40625 8.203125 
Q 42.578125 3.328125 38.25 0.953125 
Q 33.9375 -1.421875 27.875 -1.421875 
Q 17.96875 -1.421875 11.734375 6.484375 
Q 5.515625 14.40625 5.515625 27.296875 
Q 5.515625 40.1875 11.734375 48.09375 
Q 17.96875 56 27.875 56 
Q 33.9375 56 38.25 53.625 
Q 42.578125 51.265625 45.40625 46.390625 
z
M 14.796875 27.296875 
Q 14.796875 17.390625 18.875 11.75 
Q 22.953125 6.109375 30.078125 6.109375 
Q 37.203125 6.109375 41.296875 11.75 
Q 45.40625 17.390625 45.40625 27.296875 
Q 45.40625 37.203125 41.296875 42.84375 
Q 37.203125 48.484375 30.078125 48.484375 
Q 22.953125 48.484375 18.875 42.84375 
Q 14.796875 37.203125 14.796875 27.296875 
z
" id="DejaVuSans-100"/>
      <path d="M 8.015625 75.875 
L 15.828125 75.875 
Q 23.140625 64.359375 26.78125 53.3125 
Q 30.421875 42.28125 30.421875 31.390625 
Q 30.421875 20.453125 26.78125 9.375 
Q 23.140625 -1.703125 15.828125 -13.1875 
L 8.015625 -13.1875 
Q 14.5 -2 17.703125 9.0625 
Q 20.90625 20.125 20.90625 31.390625 
Q 20.90625 42.671875 17.703125 53.65625 
Q 14.5 64.65625 8.015625 75.875 
z
" id="DejaVuSans-41"/>
     </defs>
     <g transform="translate(57.667656 231.608958)rotate(-90)scale(0.1 -0.1)">
      <use xlink:href="#DejaVuSans-40"/>
      <use x="39.013672" xlink:href="#DejaVuSans-109"/>
      <use x="136.425781" xlink:href="#DejaVuSans-98"/>
      <use x="199.902344" xlink:href="#DejaVuSans-105"/>
      <use x="227.685547" xlink:href="#DejaVuSans-116"/>
      <use x="266.894531" xlink:href="#DejaVuSans-32"/>
      <use x="298.681641" xlink:href="#DejaVuSans-47"/>
      <use x="332.373047" xlink:href="#DejaVuSans-32"/>
      <use x="364.160156" xlink:href="#DejaVuSans-115"/>
      <use x="416.259766" xlink:href="#DejaVuSans-101"/>
      <use x="477.783203" xlink:href="#DejaVuSans-99"/>
      <use x="532.763672" xlink:href="#DejaVuSans-111"/>
      <use x="593.945312" xlink:href="#DejaVuSans-110"/>
      <use x="657.324219" xlink:href="#DejaVuSans-100"/>
      <use x="720.800781" xlink:href="#DejaVuSans-41"/>
     </g>
    </g>
   </g>
   <g id="line2d_16">
    <path clip-path="url(#p45a6ca54c6)" d="M 101.87657 118.694243 
L 102.544345 49.798528 
L 103.879896 49.798528 
L 104.547671 145.487021 
L 105.215447 183.762419 
L 105.883222 191.417498 
L 106.550998 195.245038 
L 107.218773 241.175514 
L 107.886549 294.761071 
L 108.554324 294.761071 
L 109.2221 298.58861 
L 109.889875 310.07123 
L 110.557651 329.208928 
L 113.896528 329.208928 
L 114.564304 333.036468 
L 115.232079 340.691547 
L 115.899854 325.381389 
L 116.56763 325.381389 
L 117.903181 317.726309 
L 118.570956 317.726309 
L 119.238732 302.41615 
L 119.906507 298.58861 
L 120.574283 275.623372 
L 121.242058 279.450912 
L 124.580936 279.450912 
L 125.248711 275.623372 
L 129.255364 275.623372 
L 129.923139 271.795832 
L 130.590915 271.795832 
L 131.25869 267.968293 
L 132.594241 267.968293 
L 133.262017 271.795832 
L 134.597568 302.41615 
L 135.265343 294.761071 
L 136.600894 287.105991 
L 137.26867 287.105991 
L 137.936445 290.933531 
L 138.60422 290.933531 
L 139.271996 287.105991 
L 139.939771 287.105991 
L 140.607547 290.933531 
L 141.275322 290.933531 
L 141.943098 287.105991 
L 143.946424 287.105991 
L 144.6142 290.933531 
L 145.281975 287.105991 
L 145.949751 290.933531 
L 147.285302 290.933531 
L 147.953077 310.07123 
L 148.620853 290.933531 
L 149.288628 287.105991 
L 149.956403 290.933531 
L 150.624179 287.105991 
L 151.291954 287.105991 
L 151.95973 283.278452 
L 152.627505 283.278452 
L 153.295281 279.450912 
L 154.630832 279.450912 
L 155.298607 275.623372 
L 158.637485 275.623372 
L 159.30526 271.795832 
L 160.640811 271.795832 
L 161.976362 294.761071 
L 162.644137 279.450912 
L 163.311913 279.450912 
L 163.979688 283.278452 
L 165.315239 283.278452 
L 165.983015 287.105991 
L 170.657443 287.105991 
L 171.325219 290.933531 
L 172.660769 290.933531 
L 173.328545 287.105991 
L 173.99632 287.105991 
L 174.664096 283.278452 
L 175.331871 310.07123 
L 175.999647 298.58861 
L 176.667422 294.761071 
L 177.335198 294.761071 
L 178.002973 290.933531 
L 178.670749 290.933531 
L 179.338524 287.105991 
L 180.0063 287.105991 
L 181.341851 279.450912 
L 183.345177 279.450912 
L 184.012952 275.623372 
L 185.348503 275.623372 
L 186.016279 279.450912 
L 188.019605 279.450912 
L 188.687381 290.933531 
L 189.355156 306.24369 
L 190.022932 294.761071 
L 192.026258 283.278452 
L 192.694034 283.278452 
L 194.029585 275.623372 
L 196.032911 275.623372 
L 196.700686 271.795832 
L 198.036237 271.795832 
L 198.704013 275.623372 
L 201.375115 275.623372 
L 202.04289 279.450912 
L 202.710666 306.24369 
L 203.378441 271.795832 
L 204.046217 275.623372 
L 205.381768 275.623372 
L 206.049543 279.450912 
L 206.717318 275.623372 
L 208.052869 275.623372 
L 208.720645 271.795832 
L 210.723971 271.795832 
L 211.391747 267.968293 
L 213.395073 267.968293 
L 214.062849 264.140753 
L 214.730624 267.968293 
L 215.3984 264.140753 
L 216.733951 294.761071 
L 217.401726 271.795832 
L 218.069501 271.795832 
L 218.737277 275.623372 
L 219.405052 275.623372 
L 220.072828 279.450912 
L 221.408379 279.450912 
L 222.076154 283.278452 
L 224.079481 283.278452 
L 224.747256 287.105991 
L 226.082807 287.105991 
L 226.750583 283.278452 
L 229.421684 283.278452 
L 230.08946 313.898769 
L 230.757235 279.450912 
L 231.425011 283.278452 
L 232.760562 283.278452 
L 233.428337 279.450912 
L 234.096113 283.278452 
L 240.106092 283.278452 
L 240.773867 279.450912 
L 242.109418 279.450912 
L 243.444969 287.105991 
L 244.112745 306.24369 
L 244.78052 287.105991 
L 245.448296 283.278452 
L 246.783847 283.278452 
L 247.451622 287.105991 
L 256.800479 287.105991 
L 257.468254 313.898769 
L 258.13603 287.105991 
L 258.803805 290.933531 
L 260.139356 290.933531 
L 260.807132 287.105991 
L 262.142683 287.105991 
L 262.810458 283.278452 
L 264.146009 283.278452 
L 264.813784 279.450912 
L 266.817111 279.450912 
L 267.484886 283.278452 
L 270.155988 283.278452 
L 270.823764 287.105991 
L 271.491539 298.58861 
L 272.159315 275.623372 
L 273.494865 275.623372 
L 274.162641 279.450912 
L 274.830416 275.623372 
L 275.498192 279.450912 
L 276.165967 275.623372 
L 276.833743 275.623372 
L 277.501518 279.450912 
L 283.511498 279.450912 
L 284.179273 275.623372 
L 284.847048 302.41615 
L 285.514824 267.968293 
L 286.850375 275.623372 
L 288.853701 275.623372 
L 289.521477 279.450912 
L 291.524803 279.450912 
L 292.192579 283.278452 
L 294.863681 283.278452 
L 295.531456 287.105991 
L 297.534782 287.105991 
L 298.202558 290.933531 
L 298.870333 298.58861 
L 299.538109 275.623372 
L 300.205884 279.450912 
L 303.544762 279.450912 
L 304.212537 283.278452 
L 304.880313 279.450912 
L 305.548088 283.278452 
L 306.215864 279.450912 
L 311.558067 279.450912 
L 312.225843 310.07123 
L 312.893618 290.933531 
L 314.229169 290.933531 
L 314.896945 287.105991 
L 317.568047 287.105991 
L 318.235822 283.278452 
L 318.903597 283.278452 
L 319.571373 287.105991 
L 320.239148 283.278452 
L 324.913577 283.278452 
L 325.581352 290.933531 
L 326.249128 306.24369 
L 326.916903 287.105991 
L 334.930209 287.105991 
L 335.597984 283.278452 
L 338.936862 283.278452 
L 339.604637 310.07123 
L 340.272413 283.278452 
L 341.607963 283.278452 
L 342.275739 279.450912 
L 343.61129 279.450912 
L 344.279065 283.278452 
L 344.946841 279.450912 
L 350.289045 279.450912 
L 350.95682 283.278452 
L 351.624596 279.450912 
L 352.960146 287.105991 
L 353.627922 306.24369 
L 354.295697 283.278452 
L 354.963473 279.450912 
L 359.637901 279.450912 
L 360.305677 275.623372 
L 360.973452 279.450912 
L 361.641228 275.623372 
L 362.309003 279.450912 
L 362.976779 275.623372 
L 364.980105 275.623372 
L 365.64788 279.450912 
L 366.315656 275.623372 
L 366.983431 310.07123 
L 367.651207 279.450912 
L 368.318982 279.450912 
L 368.986758 283.278452 
L 372.993411 283.278452 
L 373.661186 279.450912 
L 374.996737 279.450912 
L 375.664512 283.278452 
L 376.332288 279.450912 
L 377.000063 283.278452 
L 377.667839 279.450912 
L 379.00339 279.450912 
L 380.338941 287.105991 
L 381.006716 306.24369 
L 381.674492 283.278452 
L 383.010043 283.278452 
L 383.677818 287.105991 
L 384.345594 287.105991 
L 385.013369 290.933531 
L 385.681145 287.105991 
L 393.69445 287.105991 
L 394.362226 313.898769 
L 395.030001 283.278452 
L 404.378858 283.278452 
L 405.046633 287.105991 
L 405.714409 283.278452 
L 407.717735 283.278452 
L 408.385511 313.898769 
L 409.053286 287.105991 
L 409.721061 287.105991 
L 410.388837 283.278452 
L 413.059939 283.278452 
L 413.727714 279.450912 
L 421.073244 279.450912 
L 421.74102 310.07123 
L 422.408795 267.968293 
L 423.076571 267.968293 
L 423.744346 271.795832 
L 428.418775 271.795832 
L 429.08655 267.968293 
L 433.760978 267.968293 
L 434.428754 271.795832 
L 435.096529 271.795832 
L 435.764305 310.07123 
L 436.43208 279.450912 
L 437.099856 275.623372 
L 438.435407 283.278452 
L 440.438733 283.278452 
L 441.106509 287.105991 
L 445.113161 287.105991 
L 445.780937 290.933531 
L 446.448712 287.105991 
L 448.452039 287.105991 
L 449.119814 310.07123 
L 449.78759 279.450912 
L 453.126467 279.450912 
L 453.794243 275.623372 
L 454.462018 279.450912 
L 455.797569 279.450912 
L 456.465344 275.623372 
L 460.471997 275.623372 
L 461.139773 279.450912 
L 462.475324 279.450912 
L 463.143099 310.07123 
L 463.810875 283.278452 
L 464.47865 283.278452 
L 464.47865 283.278452 
" style="fill:none;stroke:#1f77b4;stroke-linecap:square;stroke-width:1.5;"/>
   </g>
   <g id="line2d_17">
    <path clip-path="url(#p45a6ca54c6)" d="M 107.322946 264.140753 
L 107.990722 172.279799 
L 108.658497 156.96964 
L 109.326273 153.142101 
L 109.994048 168.45226 
L 110.661824 191.417498 
L 111.329599 176.107339 
L 111.997375 176.107339 
L 112.66515 179.934879 
L 114.000701 179.934879 
L 114.668477 176.107339 
L 115.336252 168.45226 
L 116.004027 179.934879 
L 116.671803 183.762419 
L 117.339578 191.417498 
L 118.007354 191.417498 
L 120.01068 214.382736 
L 120.678456 321.553849 
L 121.346231 283.278452 
L 126.688435 283.278452 
L 127.35621 287.105991 
L 129.359537 287.105991 
L 130.027312 290.933531 
L 131.362863 290.933531 
L 132.030639 294.761071 
L 133.36619 294.761071 
L 134.033965 275.623372 
L 134.701741 294.761071 
L 135.369516 267.968293 
L 136.037292 264.140753 
L 136.705067 267.968293 
L 143.382822 267.968293 
L 144.050597 271.795832 
L 147.389475 271.795832 
L 148.05725 290.933531 
L 148.725026 279.450912 
L 149.392801 271.795832 
L 150.060576 271.795832 
L 150.728352 275.623372 
L 152.731678 275.623372 
L 153.399454 279.450912 
L 154.067229 279.450912 
L 154.735005 283.278452 
L 160.744984 283.278452 
L 161.412759 279.450912 
L 162.080535 317.726309 
L 162.74831 294.761071 
L 163.416086 290.933531 
L 164.083861 290.933531 
L 164.751637 287.105991 
L 166.754963 287.105991 
L 167.422739 283.278452 
L 172.097167 283.278452 
L 172.764942 279.450912 
L 173.432718 283.278452 
L 174.100493 279.450912 
L 174.768269 279.450912 
L 175.436044 290.933531 
L 176.10382 260.313213 
L 176.771595 264.140753 
L 184.784901 264.140753 
L 185.452676 267.968293 
L 186.120452 264.140753 
L 186.788227 267.968293 
L 188.123778 267.968293 
L 188.791554 264.140753 
L 189.459329 317.726309 
L 190.127105 287.105991 
L 190.79488 283.278452 
L 192.130431 283.278452 
L 192.798207 287.105991 
L 198.808186 287.105991 
L 200.143737 279.450912 
L 201.479288 279.450912 
L 202.147063 275.623372 
L 202.814839 306.24369 
L 203.482614 279.450912 
L 204.818165 271.795832 
L 205.48594 271.795832 
L 206.153716 267.968293 
L 208.824818 267.968293 
L 209.492593 271.795832 
L 210.828144 271.795832 
L 211.49592 275.623372 
L 213.499246 275.623372 
L 214.167022 279.450912 
L 216.170348 279.450912 
L 216.838123 317.726309 
L 217.505899 290.933531 
L 218.173674 287.105991 
L 218.84145 279.450912 
L 219.509225 279.450912 
L 220.177001 271.795832 
L 220.844776 271.795832 
L 221.512552 267.968293 
L 222.180327 267.968293 
L 222.848103 264.140753 
L 224.851429 264.140753 
L 225.519205 260.313213 
L 226.18698 260.313213 
L 226.854756 264.140753 
L 227.522531 264.140753 
L 228.190306 267.968293 
L 229.525857 267.968293 
L 230.193633 306.24369 
L 230.861408 290.933531 
L 232.196959 283.278452 
L 234.200286 283.278452 
L 234.868061 279.450912 
L 239.542489 279.450912 
L 240.210265 275.623372 
L 240.87804 279.450912 
L 241.545816 275.623372 
L 242.881367 275.623372 
L 243.549142 271.795832 
L 244.216918 256.485673 
L 245.552469 256.485673 
L 246.220244 260.313213 
L 250.226897 260.313213 
L 250.894672 264.140753 
L 251.562448 260.313213 
L 252.230223 264.140753 
L 256.236876 264.140753 
L 256.904652 267.968293 
L 257.572427 294.761071 
L 258.240203 245.003054 
L 260.243529 256.485673 
L 261.57908 256.485673 
L 262.246855 260.313213 
L 264.250182 260.313213 
L 264.917957 264.140753 
L 267.589059 264.140753 
L 268.256835 267.968293 
L 268.92461 267.968293 
L 269.592386 264.140753 
L 270.260161 264.140753 
L 270.927937 302.41615 
L 271.595712 248.830594 
L 272.263488 248.830594 
L 274.266814 260.313213 
L 274.934589 260.313213 
L 275.602365 264.140753 
L 276.27014 264.140753 
L 276.937916 267.968293 
L 278.273467 267.968293 
L 278.941242 271.795832 
L 283.615671 271.795832 
L 284.283446 275.623372 
L 284.951221 298.58861 
L 285.618997 245.003054 
L 286.286772 252.658134 
L 286.954548 252.658134 
L 287.622323 256.485673 
L 288.957874 256.485673 
L 289.62565 260.313213 
L 290.293425 256.485673 
L 290.961201 260.313213 
L 291.628976 256.485673 
L 292.296752 260.313213 
L 294.300078 260.313213 
L 294.967854 264.140753 
L 297.638955 264.140753 
L 298.306731 302.41615 
L 298.974506 241.175514 
L 299.642282 237.347975 
L 304.31671 264.140753 
L 304.984486 264.140753 
L 306.320037 271.795832 
L 308.991138 271.795832 
L 309.658914 275.623372 
L 310.994465 275.623372 
L 311.66224 279.450912 
L 312.330016 302.41615 
L 312.997791 260.313213 
L 313.665567 264.140753 
L 315.001118 264.140753 
L 315.668893 267.968293 
L 316.336669 267.968293 
L 317.004444 271.795832 
L 320.343321 271.795832 
L 321.011097 275.623372 
L 321.678872 271.795832 
L 322.346648 271.795832 
L 323.014423 275.623372 
L 325.01775 275.623372 
L 325.685525 302.41615 
L 326.353301 287.105991 
L 327.021076 275.623372 
L 328.356627 275.623372 
L 329.024403 279.450912 
L 336.369933 279.450912 
L 337.037708 275.623372 
L 339.041035 275.623372 
L 339.70881 310.07123 
L 340.376586 275.623372 
L 341.712136 275.623372 
L 342.379912 279.450912 
L 343.715463 279.450912 
L 344.383238 283.278452 
L 345.718789 283.278452 
L 346.386565 279.450912 
L 349.725442 279.450912 
L 350.393218 283.278452 
L 351.060993 283.278452 
L 351.728769 279.450912 
L 352.396544 279.450912 
L 353.064319 298.58861 
L 353.732095 298.58861 
L 354.39987 279.450912 
L 355.067646 283.278452 
L 358.406523 283.278452 
L 359.074299 279.450912 
L 359.742074 283.278452 
L 360.40985 279.450912 
L 366.419829 279.450912 
L 367.087604 310.07123 
L 367.75538 271.795832 
L 369.758706 271.795832 
L 370.426482 267.968293 
L 376.436461 267.968293 
L 377.104236 264.140753 
L 377.772012 267.968293 
L 378.439787 264.140753 
L 379.775338 264.140753 
L 380.443114 279.450912 
L 381.110889 283.278452 
L 381.778665 264.140753 
L 382.44644 264.140753 
L 383.114216 267.968293 
L 386.453093 267.968293 
L 387.120868 271.795832 
L 393.798623 271.795832 
L 394.466399 302.41615 
L 395.134174 260.313213 
L 395.80195 260.313213 
L 396.469725 264.140753 
L 397.1375 264.140753 
L 397.805276 267.968293 
L 399.808602 267.968293 
L 400.476378 271.795832 
L 401.811929 271.795832 
L 402.479704 275.623372 
L 403.14748 271.795832 
L 403.815255 275.623372 
L 407.154133 275.623372 
L 407.821908 290.933531 
L 408.489683 283.278452 
L 409.157459 260.313213 
L 411.160785 271.795832 
L 413.831887 271.795832 
L 414.499663 275.623372 
L 415.167438 275.623372 
L 415.835214 279.450912 
L 421.177417 279.450912 
L 421.845193 310.07123 
L 422.512968 287.105991 
L 423.180744 287.105991 
L 423.848519 283.278452 
L 424.516295 287.105991 
L 434.532927 287.105991 
L 435.200702 298.58861 
L 435.868478 298.58861 
L 436.536253 283.278452 
L 437.204029 283.278452 
L 437.871804 287.105991 
L 439.207355 287.105991 
L 439.875131 283.278452 
L 440.542906 283.278452 
L 441.210682 287.105991 
L 444.549559 287.105991 
L 445.217334 283.278452 
L 446.552885 283.278452 
L 447.220661 279.450912 
L 448.556212 279.450912 
L 449.223987 306.24369 
L 449.891763 256.485673 
L 451.227314 264.140753 
L 451.895089 264.140753 
L 452.562865 267.968293 
L 453.898415 267.968293 
L 454.566191 271.795832 
L 461.911721 271.795832 
L 462.579497 287.105991 
L 463.247272 275.623372 
L 463.915048 248.830594 
L 464.582823 248.830594 
L 465.250598 256.485673 
L 466.586149 264.140753 
L 467.253925 264.140753 
L 467.253925 264.140753 
" style="fill:none;stroke:#ff7f0e;stroke-linecap:square;stroke-width:1.5;"/>
   </g>
   <g id="line2d_18">
    <path clip-path="url(#p45a6ca54c6)" d="M 110.030108 317.726309 
L 110.697884 267.968293 
L 111.365659 279.450912 
L 114.036761 279.450912 
L 114.704536 275.623372 
L 115.372312 275.623372 
L 118.043414 260.313213 
L 119.378965 267.968293 
L 120.04674 267.968293 
L 120.714516 229.692895 
L 121.382291 256.485673 
L 122.050067 260.313213 
L 122.717842 260.313213 
L 123.385618 264.140753 
L 124.053393 264.140753 
L 125.388944 271.795832 
L 127.39227 271.795832 
L 128.060046 275.623372 
L 128.727821 275.623372 
L 129.395597 279.450912 
L 130.063372 279.450912 
L 130.731148 283.278452 
L 131.398923 283.278452 
L 132.066699 287.105991 
L 133.40225 287.105991 
L 134.070025 317.726309 
L 134.737801 294.761071 
L 135.405576 298.58861 
L 136.073351 298.58861 
L 136.741127 290.933531 
L 139.412229 275.623372 
L 140.080004 275.623372 
L 140.74778 271.795832 
L 143.418882 271.795832 
L 144.086657 267.968293 
L 144.754433 267.968293 
L 145.422208 264.140753 
L 147.425534 264.140753 
L 148.09331 283.278452 
L 148.761085 245.003054 
L 149.428861 256.485673 
L 150.096636 256.485673 
L 150.764412 260.313213 
L 151.432187 260.313213 
L 152.099963 264.140753 
L 157.442166 264.140753 
L 158.109942 267.968293 
L 158.777717 264.140753 
L 159.445493 267.968293 
L 160.781044 267.968293 
L 161.448819 302.41615 
L 162.116595 248.830594 
L 162.78437 241.175514 
L 163.452146 248.830594 
L 166.123248 264.140753 
L 166.791023 264.140753 
L 168.126574 271.795832 
L 170.797676 271.795832 
L 171.465451 275.623372 
L 174.136553 275.623372 
L 174.804329 279.450912 
L 175.472104 294.761071 
L 176.13988 267.968293 
L 176.807655 271.795832 
L 178.143206 271.795832 
L 178.810982 275.623372 
L 180.146532 275.623372 
L 180.814308 279.450912 
L 183.48541 279.450912 
L 184.153185 283.278452 
L 184.820961 279.450912 
L 185.488736 283.278452 
L 186.156512 283.278452 
L 186.824287 279.450912 
L 188.159838 279.450912 
L 188.827614 306.24369 
L 189.495389 260.313213 
L 190.163165 252.658134 
L 190.83094 260.313213 
L 191.498715 260.313213 
L 192.166491 264.140753 
L 194.169817 264.140753 
L 194.837593 267.968293 
L 195.505368 264.140753 
L 196.173144 267.968293 
L 198.844246 267.968293 
L 199.512021 271.795832 
L 202.183123 271.795832 
L 202.850898 306.24369 
L 203.518674 267.968293 
L 204.854225 275.623372 
L 206.857551 275.623372 
L 207.525327 279.450912 
L 210.864204 279.450912 
L 211.53198 283.278452 
L 215.538632 283.278452 
L 216.206408 298.58861 
L 216.874183 287.105991 
L 217.541959 271.795832 
L 218.209734 275.623372 
L 219.545285 275.623372 
L 220.213061 279.450912 
L 222.216387 279.450912 
L 222.884163 283.278452 
L 223.551938 279.450912 
L 224.887489 279.450912 
L 225.555264 283.278452 
L 226.22304 279.450912 
L 226.890815 283.278452 
L 227.558591 279.450912 
L 229.561917 279.450912 
L 230.229693 306.24369 
L 230.897468 267.968293 
L 232.233019 267.968293 
L 232.900795 271.795832 
L 234.236346 271.795832 
L 234.904121 267.968293 
L 235.571897 271.795832 
L 242.917427 271.795832 
L 243.585202 287.105991 
L 244.252978 298.58861 
L 244.920753 279.450912 
L 250.262957 279.450912 
L 250.930732 275.623372 
L 251.598508 279.450912 
L 256.940712 279.450912 
L 257.608487 313.898769 
L 258.276263 298.58861 
L 260.947364 283.278452 
L 262.950691 283.278452 
L 263.618466 279.450912 
L 268.96067 279.450912 
L 269.628446 283.278452 
L 270.296221 279.450912 
L 270.963996 290.933531 
L 271.631772 310.07123 
L 272.299547 294.761071 
L 272.967323 298.58861 
L 273.635098 294.761071 
L 277.641751 294.761071 
L 278.977302 287.105991 
L 280.312853 287.105991 
L 280.980629 283.278452 
L 283.65173 283.278452 
L 284.319506 279.450912 
L 284.987281 313.898769 
L 285.655057 302.41615 
L 286.990608 294.761071 
L 288.326159 294.761071 
L 288.993934 290.933531 
L 291.665036 290.933531 
L 292.332812 287.105991 
L 294.336138 287.105991 
L 295.003913 283.278452 
L 297.675015 283.278452 
L 298.342791 290.933531 
L 299.010566 313.898769 
L 299.678342 302.41615 
L 301.013893 287.105991 
L 301.681668 287.105991 
L 302.349444 279.450912 
L 303.684995 279.450912 
L 304.35277 275.623372 
L 311.6983 275.623372 
L 312.366076 302.41615 
L 313.033851 287.105991 
L 313.701627 287.105991 
L 314.369402 283.278452 
L 316.372728 283.278452 
L 317.040504 279.450912 
L 319.04383 279.450912 
L 319.711606 275.623372 
L 320.379381 279.450912 
L 321.047157 275.623372 
L 321.714932 279.450912 
L 322.382708 279.450912 
L 323.050483 275.623372 
L 323.718259 279.450912 
L 324.386034 275.623372 
L 325.05381 275.623372 
L 325.721585 283.278452 
L 326.389361 306.24369 
L 327.057136 283.278452 
L 331.731564 283.278452 
L 332.39934 287.105991 
L 337.741544 287.105991 
L 338.409319 283.278452 
L 339.077094 283.278452 
L 339.74487 310.07123 
L 340.412645 287.105991 
L 341.080421 283.278452 
L 342.415972 283.278452 
L 343.083747 279.450912 
L 343.751523 283.278452 
L 344.419298 283.278452 
L 345.087074 279.450912 
L 345.754849 279.450912 
L 346.422625 283.278452 
L 347.0904 279.450912 
L 347.758176 283.278452 
L 349.761502 283.278452 
L 350.429277 279.450912 
L 351.097053 283.278452 
L 352.432604 283.278452 
L 353.100379 287.105991 
L 353.768155 310.07123 
L 354.43593 283.278452 
L 355.771481 283.278452 
L 356.439257 279.450912 
L 366.455889 279.450912 
L 367.123664 310.07123 
L 367.79144 287.105991 
L 368.459215 287.105991 
L 369.126991 283.278452 
L 371.798092 283.278452 
L 372.465868 287.105991 
L 375.804745 287.105991 
L 376.472521 283.278452 
L 380.479174 283.278452 
L 381.146949 313.898769 
L 381.814725 283.278452 
L 387.156928 283.278452 
L 387.824704 279.450912 
L 388.492479 279.450912 
L 389.160255 283.278452 
L 393.834683 283.278452 
L 394.502458 310.07123 
L 395.170234 287.105991 
L 395.838009 279.450912 
L 397.17356 279.450912 
L 397.841336 275.623372 
L 398.509111 279.450912 
L 404.519091 279.450912 
L 405.186866 275.623372 
L 407.190192 275.623372 
L 407.857968 267.968293 
L 408.525743 317.726309 
L 409.193519 290.933531 
L 410.52907 283.278452 
L 412.532396 283.278452 
L 413.200172 279.450912 
L 414.535723 279.450912 
L 415.203498 275.623372 
L 415.871274 279.450912 
L 416.539049 275.623372 
L 421.213477 275.623372 
L 421.881253 306.24369 
L 422.549028 290.933531 
L 423.216804 287.105991 
L 434.568987 287.105991 
L 435.236762 283.278452 
L 435.904538 321.553849 
L 436.572313 294.761071 
L 437.240089 294.761071 
L 437.907864 287.105991 
L 439.243415 279.450912 
L 439.91119 279.450912 
L 441.246741 271.795832 
L 443.250068 271.795832 
L 443.917843 267.968293 
L 446.588945 267.968293 
L 447.256721 271.795832 
L 448.592272 271.795832 
L 449.260047 306.24369 
L 449.927823 290.933531 
L 450.595598 287.105991 
L 451.263373 287.105991 
L 451.931149 283.278452 
L 455.270026 283.278452 
L 455.937802 279.450912 
L 456.605577 283.278452 
L 462.615556 283.278452 
L 463.283332 321.553849 
L 463.951107 298.58861 
L 464.618883 294.761071 
L 465.286658 294.761071 
L 465.954434 290.933531 
L 466.622209 290.933531 
L 467.289985 287.105991 
L 469.961087 287.105991 
L 469.961087 287.105991 
" style="fill:none;stroke:#2ca02c;stroke-linecap:square;stroke-width:1.5;"/>
   </g>
   <g id="line2d_19">
    <path clip-path="url(#p45a6ca54c6)" d="M 104.607771 256.485673 
L 105.275547 222.037816 
L 106.611098 206.727657 
L 107.946649 294.761071 
L 108.614424 306.24369 
L 109.2822 306.24369 
L 109.949975 313.898769 
L 110.617751 325.381389 
L 113.956628 325.381389 
L 114.624403 329.208928 
L 115.292179 329.208928 
L 116.62773 336.864008 
L 117.295505 336.864008 
L 117.963281 344.519087 
L 118.631056 333.036468 
L 119.298832 329.208928 
L 119.966607 333.036468 
L 120.634383 302.41615 
L 121.302158 290.933531 
L 121.969934 290.933531 
L 122.637709 287.105991 
L 123.305484 287.105991 
L 123.97326 283.278452 
L 125.308811 283.278452 
L 125.976586 279.450912 
L 127.312137 279.450912 
L 128.647688 271.795832 
L 129.315464 271.795832 
L 129.983239 267.968293 
L 131.31879 267.968293 
L 133.322117 256.485673 
L 133.989892 271.795832 
L 134.657667 267.968293 
L 135.325443 248.830594 
L 135.993218 260.313213 
L 138.66432 275.623372 
L 139.332096 275.623372 
L 139.999871 279.450912 
L 140.667647 279.450912 
L 141.335422 283.278452 
L 142.670973 283.278452 
L 143.338749 287.105991 
L 147.345401 287.105991 
L 148.013177 310.07123 
L 148.680952 294.761071 
L 149.348728 298.58861 
L 150.016503 294.761071 
L 150.684279 294.761071 
L 151.352054 290.933531 
L 154.690932 290.933531 
L 155.358707 287.105991 
L 160.700911 287.105991 
L 161.368686 302.41615 
L 162.036462 306.24369 
L 162.704237 294.761071 
L 166.71089 271.795832 
L 168.714216 271.795832 
L 169.381992 267.968293 
L 171.385318 267.968293 
L 172.053094 264.140753 
L 172.720869 267.968293 
L 174.05642 267.968293 
L 174.724196 271.795832 
L 175.391971 302.41615 
L 176.059747 279.450912 
L 176.727522 283.278452 
L 178.730848 283.278452 
L 179.398624 287.105991 
L 182.737501 287.105991 
L 183.405277 290.933531 
L 184.740828 290.933531 
L 185.408603 287.105991 
L 187.41193 287.105991 
L 188.079705 283.278452 
L 188.747481 294.761071 
L 189.415256 294.761071 
L 190.083031 279.450912 
L 192.754133 279.450912 
L 193.421909 283.278452 
L 199.431888 283.278452 
L 200.099664 287.105991 
L 202.10299 287.105991 
L 202.770765 310.07123 
L 203.438541 287.105991 
L 204.106316 290.933531 
L 205.441867 290.933531 
L 206.109643 287.105991 
L 206.777418 290.933531 
L 208.112969 290.933531 
L 208.780745 287.105991 
L 209.44852 290.933531 
L 210.116296 287.105991 
L 210.784071 290.933531 
L 211.451847 287.105991 
L 215.458499 287.105991 
L 216.126275 294.761071 
L 216.79405 298.58861 
L 217.461826 279.450912 
L 219.465152 279.450912 
L 220.132928 283.278452 
L 229.481784 283.278452 
L 230.14956 310.07123 
L 230.817335 275.623372 
L 232.152886 275.623372 
L 232.820662 279.450912 
L 237.49509 279.450912 
L 238.162865 283.278452 
L 242.837294 283.278452 
L 243.505069 290.933531 
L 244.172845 313.898769 
L 244.84062 290.933531 
L 247.511722 290.933531 
L 248.179497 287.105991 
L 252.853926 287.105991 
L 253.521701 283.278452 
L 255.525028 283.278452 
L 256.192803 279.450912 
L 256.860579 279.450912 
L 257.528354 306.24369 
L 258.196129 279.450912 
L 259.53168 279.450912 
L 260.199456 283.278452 
L 262.870558 283.278452 
L 263.538333 287.105991 
L 267.544986 287.105991 
L 268.212762 283.278452 
L 270.883863 283.278452 
L 271.551639 313.898769 
L 272.219414 290.933531 
L 274.222741 279.450912 
L 274.890516 279.450912 
L 275.558292 275.623372 
L 278.897169 275.623372 
L 279.564945 279.450912 
L 280.23272 275.623372 
L 280.900495 279.450912 
L 281.568271 275.623372 
L 282.236046 279.450912 
L 284.239373 279.450912 
L 284.907148 310.07123 
L 285.574924 294.761071 
L 286.910475 287.105991 
L 290.249352 287.105991 
L 290.917128 283.278452 
L 292.920454 283.278452 
L 293.588229 279.450912 
L 295.591556 279.450912 
L 296.259331 275.623372 
L 296.927107 279.450912 
L 298.262658 279.450912 
L 298.930433 317.726309 
L 299.598209 298.58861 
L 302.269311 298.58861 
L 302.937086 294.761071 
L 304.272637 294.761071 
L 305.608188 287.105991 
L 308.27929 287.105991 
L 308.947065 283.278452 
L 310.282616 283.278452 
L 310.950392 279.450912 
L 311.618167 279.450912 
L 312.285943 306.24369 
L 312.953718 279.450912 
L 313.621494 271.795832 
L 314.289269 271.795832 
L 314.957044 275.623372 
L 317.628146 275.623372 
L 318.295922 279.450912 
L 318.963697 275.623372 
L 319.631473 275.623372 
L 320.299248 279.450912 
L 320.967024 275.623372 
L 321.634799 279.450912 
L 322.302575 275.623372 
L 325.641452 275.623372 
L 326.309227 298.58861 
L 326.977003 267.968293 
L 327.644778 267.968293 
L 328.312554 264.140753 
L 331.651431 264.140753 
L 332.319207 260.313213 
L 335.658084 260.313213 
L 336.32586 264.140753 
L 336.993635 264.140753 
L 337.66141 267.968293 
L 338.329186 267.968293 
L 338.996961 271.795832 
L 339.664737 306.24369 
L 340.332512 267.968293 
L 341.000288 267.968293 
L 341.668063 271.795832 
L 343.003614 271.795832 
L 343.67139 267.968293 
L 344.339165 271.795832 
L 345.006941 267.968293 
L 345.674716 267.968293 
L 346.342492 271.795832 
L 349.013593 271.795832 
L 349.681369 267.968293 
L 353.020246 267.968293 
L 353.688022 298.58861 
L 354.355797 264.140753 
L 355.023573 267.968293 
L 355.691348 267.968293 
L 356.359124 271.795832 
L 359.698001 271.795832 
L 360.365776 275.623372 
L 363.036878 275.623372 
L 363.704654 279.450912 
L 364.372429 275.623372 
L 365.040205 279.450912 
L 365.70798 275.623372 
L 366.375756 279.450912 
L 367.043531 306.24369 
L 367.711307 275.623372 
L 368.379082 271.795832 
L 369.046858 271.795832 
L 369.714633 275.623372 
L 373.05351 275.623372 
L 373.721286 279.450912 
L 376.392388 279.450912 
L 377.060163 283.278452 
L 380.399041 283.278452 
L 381.066816 313.898769 
L 381.734591 283.278452 
L 382.402367 283.278452 
L 383.737918 275.623372 
L 385.073469 275.623372 
L 385.741244 271.795832 
L 386.40902 275.623372 
L 387.076795 271.795832 
L 393.75455 271.795832 
L 394.422325 306.24369 
L 395.090101 283.278452 
L 395.757876 287.105991 
L 396.425652 287.105991 
L 397.093427 283.278452 
L 398.428978 283.278452 
L 399.096754 279.450912 
L 401.767856 279.450912 
L 402.435631 275.623372 
L 405.774508 275.623372 
L 406.442284 279.450912 
L 407.110059 279.450912 
L 407.777835 275.623372 
L 408.44561 310.07123 
L 409.113386 271.795832 
L 409.781161 275.623372 
L 412.452263 275.623372 
L 413.120039 279.450912 
L 421.133344 279.450912 
L 421.80112 310.07123 
L 422.468895 267.968293 
L 426.475548 267.968293 
L 427.143323 271.795832 
L 431.817752 271.795832 
L 432.485527 267.968293 
L 433.821078 267.968293 
L 434.488854 271.795832 
L 435.156629 267.968293 
L 435.824405 298.58861 
L 436.49218 256.485673 
L 437.159956 256.485673 
L 438.495506 264.140753 
L 439.831057 264.140753 
L 440.498833 267.968293 
L 443.169935 267.968293 
L 443.83771 271.795832 
L 447.176588 271.795832 
L 447.844363 275.623372 
L 448.512139 271.795832 
L 449.179914 306.24369 
L 449.847689 283.278452 
L 450.515465 283.278452 
L 451.18324 287.105991 
L 452.518791 287.105991 
L 453.186567 283.278452 
L 453.854342 283.278452 
L 454.522118 279.450912 
L 455.189893 283.278452 
L 455.857669 279.450912 
L 456.525444 283.278452 
L 457.860995 283.278452 
L 458.528771 279.450912 
L 459.864322 279.450912 
L 460.532097 283.278452 
L 461.199872 279.450912 
L 461.867648 279.450912 
L 462.535423 275.623372 
L 463.203199 313.898769 
L 463.870974 283.278452 
L 465.874301 283.278452 
L 465.874301 283.278452 
" style="fill:none;stroke:#d62728;stroke-linecap:square;stroke-width:1.5;"/>
   </g>
   <g id="patch_3">
    <path d="M 83.472344 352.174167 
L 83.472344 35.0625 
" style="fill:none;stroke:#000000;stroke-linecap:square;stroke-linejoin:miter;stroke-width:0.8;"/>
   </g>
   <g id="patch_4">
    <path d="M 488.365312 352.174167 
L 488.365312 35.0625 
" style="fill:none;stroke:#000000;stroke-linecap:square;stroke-linejoin:miter;stroke-width:0.8;"/>
   </g>
   <g id="patch_5">
    <path d="M 83.472344 352.174167 
L 488.365312 352.174167 
" style="fill:none;stroke:#000000;stroke-linecap:square;stroke-linejoin:miter;stroke-width:0.8;"/>
   </g>
   <g id="patch_6">
    <path d="M 83.472344 35.0625 
L 488.365312 35.0625 
" style="fill:none;stroke:#000000;stroke-linecap:square;stroke-linejoin:miter;stroke-width:0.8;"/>
   </g>
   <g id="legend_1">
    <g id="patch_7">
     <path d="M 510.609961 96.775 
L 609.680273 96.775 
Q 611.680273 96.775 611.680273 94.775 
L 611.680273 37.0625 
Q 611.680273 35.0625 609.680273 35.0625 
L 510.609961 35.0625 
Q 508.609961 35.0625 508.609961 37.0625 
L 508.609961 94.775 
Q 508.609961 96.775 510.609961 96.775 
z
" style="fill:#ffffff;opacity:0.8;stroke:#cccccc;stroke-linejoin:miter;"/>
    </g>
    <g id="line2d_20">
     <path d="M 512.609961 43.160937 
L 532.609961 43.160937 
" style="fill:none;stroke:#1f77b4;stroke-linecap:square;stroke-width:1.5;"/>
    </g>
    <g id="line2d_21"/>
    <g id="text_17">
     <!-- bbrshallow-pi -->
     <defs>
      <path d="M 34.28125 27.484375 
Q 23.390625 27.484375 19.1875 25 
Q 14.984375 22.515625 14.984375 16.5 
Q 14.984375 11.71875 18.140625 8.90625 
Q 21.296875 6.109375 26.703125 6.109375 
Q 34.1875 6.109375 38.703125 11.40625 
Q 43.21875 16.703125 43.21875 25.484375 
L 43.21875 27.484375 
z
M 52.203125 31.203125 
L 52.203125 0 
L 43.21875 0 
L 43.21875 8.296875 
Q 40.140625 3.328125 35.546875 0.953125 
Q 30.953125 -1.421875 24.3125 -1.421875 
Q 15.921875 -1.421875 10.953125 3.296875 
Q 6 8.015625 6 15.921875 
Q 6 25.140625 12.171875 29.828125 
Q 18.359375 34.515625 30.609375 34.515625 
L 43.21875 34.515625 
L 43.21875 35.40625 
Q 43.21875 41.609375 39.140625 45 
Q 35.0625 48.390625 27.6875 48.390625 
Q 23 48.390625 18.546875 47.265625 
Q 14.109375 46.140625 10.015625 43.890625 
L 10.015625 52.203125 
Q 14.9375 54.109375 19.578125 55.046875 
Q 24.21875 56 28.609375 56 
Q 40.484375 56 46.34375 49.84375 
Q 52.203125 43.703125 52.203125 31.203125 
z
" id="DejaVuSans-97"/>
      <path d="M 9.421875 75.984375 
L 18.40625 75.984375 
L 18.40625 0 
L 9.421875 0 
z
" id="DejaVuSans-108"/>
      <path d="M 4.203125 54.6875 
L 13.1875 54.6875 
L 24.421875 12.015625 
L 35.59375 54.6875 
L 46.1875 54.6875 
L 57.421875 12.015625 
L 68.609375 54.6875 
L 77.59375 54.6875 
L 63.28125 0 
L 52.6875 0 
L 40.921875 44.828125 
L 29.109375 0 
L 18.5 0 
z
" id="DejaVuSans-119"/>
      <path d="M 4.890625 31.390625 
L 31.203125 31.390625 
L 31.203125 23.390625 
L 4.890625 23.390625 
z
" id="DejaVuSans-45"/>
     </defs>
     <g transform="translate(540.609961 46.660937)scale(0.1 -0.1)">
      <use xlink:href="#DejaVuSans-98"/>
      <use x="63.476562" xlink:href="#DejaVuSans-98"/>
      <use x="126.953125" xlink:href="#DejaVuSans-114"/>
      <use x="168.066406" xlink:href="#DejaVuSans-115"/>
      <use x="220.166016" xlink:href="#DejaVuSans-104"/>
      <use x="283.544922" xlink:href="#DejaVuSans-97"/>
      <use x="344.824219" xlink:href="#DejaVuSans-108"/>
      <use x="372.607422" xlink:href="#DejaVuSans-108"/>
      <use x="400.390625" xlink:href="#DejaVuSans-111"/>
      <use x="461.572266" xlink:href="#DejaVuSans-119"/>
      <use x="543.359375" xlink:href="#DejaVuSans-45"/>
      <use x="579.443359" xlink:href="#DejaVuSans-112"/>
      <use x="642.919922" xlink:href="#DejaVuSans-105"/>
     </g>
    </g>
    <g id="line2d_22">
     <path d="M 512.609961 57.839063 
L 532.609961 57.839063 
" style="fill:none;stroke:#ff7f0e;stroke-linecap:square;stroke-width:1.5;"/>
    </g>
    <g id="line2d_23"/>
    <g id="text_18">
     <!-- bbrshallow-pi -->
     <g transform="translate(540.609961 61.339063)scale(0.1 -0.1)">
      <use xlink:href="#DejaVuSans-98"/>
      <use x="63.476562" xlink:href="#DejaVuSans-98"/>
      <use x="126.953125" xlink:href="#DejaVuSans-114"/>
      <use x="168.066406" xlink:href="#DejaVuSans-115"/>
      <use x="220.166016" xlink:href="#DejaVuSans-104"/>
      <use x="283.544922" xlink:href="#DejaVuSans-97"/>
      <use x="344.824219" xlink:href="#DejaVuSans-108"/>
      <use x="372.607422" xlink:href="#DejaVuSans-108"/>
      <use x="400.390625" xlink:href="#DejaVuSans-111"/>
      <use x="461.572266" xlink:href="#DejaVuSans-119"/>
      <use x="543.359375" xlink:href="#DejaVuSans-45"/>
      <use x="579.443359" xlink:href="#DejaVuSans-112"/>
      <use x="642.919922" xlink:href="#DejaVuSans-105"/>
     </g>
    </g>
    <g id="line2d_24">
     <path d="M 512.609961 72.517187 
L 532.609961 72.517187 
" style="fill:none;stroke:#2ca02c;stroke-linecap:square;stroke-width:1.5;"/>
    </g>
    <g id="line2d_25"/>
    <g id="text_19">
     <!-- bbrshallow-pi -->
     <g transform="translate(540.609961 76.017187)scale(0.1 -0.1)">
      <use xlink:href="#DejaVuSans-98"/>
      <use x="63.476562" xlink:href="#DejaVuSans-98"/>
      <use x="126.953125" xlink:href="#DejaVuSans-114"/>
      <use x="168.066406" xlink:href="#DejaVuSans-115"/>
      <use x="220.166016" xlink:href="#DejaVuSans-104"/>
      <use x="283.544922" xlink:href="#DejaVuSans-97"/>
      <use x="344.824219" xlink:href="#DejaVuSans-108"/>
      <use x="372.607422" xlink:href="#DejaVuSans-108"/>
      <use x="400.390625" xlink:href="#DejaVuSans-111"/>
      <use x="461.572266" xlink:href="#DejaVuSans-119"/>
      <use x="543.359375" xlink:href="#DejaVuSans-45"/>
      <use x="579.443359" xlink:href="#DejaVuSans-112"/>
      <use x="642.919922" xlink:href="#DejaVuSans-105"/>
     </g>
    </g>
    <g id="line2d_26">
     <path d="M 512.609961 87.195312 
L 532.609961 87.195312 
" style="fill:none;stroke:#d62728;stroke-linecap:square;stroke-width:1.5;"/>
    </g>
    <g id="line2d_27"/>
    <g id="text_20">
     <!-- bbrshallow-pi -->
     <g transform="translate(540.609961 90.695312)scale(0.1 -0.1)">
      <use xlink:href="#DejaVuSans-98"/>
      <use x="63.476562" xlink:href="#DejaVuSans-98"/>
      <use x="126.953125" xlink:href="#DejaVuSans-114"/>
      <use x="168.066406" xlink:href="#DejaVuSans-115"/>
      <use x="220.166016" xlink:href="#DejaVuSans-104"/>
      <use x="283.544922" xlink:href="#DejaVuSans-97"/>
      <use x="344.824219" xlink:href="#DejaVuSans-108"/>
      <use x="372.607422" xlink:href="#DejaVuSans-108"/>
      <use x="400.390625" xlink:href="#DejaVuSans-111"/>
      <use x="461.572266" xlink:href="#DejaVuSans-119"/>
      <use x="543.359375" xlink:href="#DejaVuSans-45"/>
      <use x="579.443359" xlink:href="#DejaVuSans-112"/>
      <use x="642.919922" xlink:href="#DejaVuSans-105"/>
     </g>
    </g>
   </g>
  </g>
  <g id="text_21">
   <!-- result throughput -->
   <g transform="translate(289.320938 17.038125)scale(0.12 -0.12)">
    <use xlink:href="#DejaVuSans-114"/>
    <use x="41.082031" xlink:href="#DejaVuSans-101"/>
    <use x="102.605469" xlink:href="#DejaVuSans-115"/>
    <use x="154.705078" xlink:href="#DejaVuSans-117"/>
    <use x="218.083984" xlink:href="#DejaVuSans-108"/>
    <use x="245.867188" xlink:href="#DejaVuSans-116"/>
    <use x="285.076172" xlink:href="#DejaVuSans-32"/>
    <use x="316.863281" xlink:href="#DejaVuSans-116"/>
    <use x="356.072266" xlink:href="#DejaVuSans-104"/>
    <use x="419.451172" xlink:href="#DejaVuSans-114"/>
    <use x="460.533203" xlink:href="#DejaVuSans-111"/>
    <use x="521.714844" xlink:href="#DejaVuSans-117"/>
    <use x="585.09375" xlink:href="#DejaVuSans-103"/>
    <use x="648.570312" xlink:href="#DejaVuSans-104"/>
    <use x="711.949219" xlink:href="#DejaVuSans-112"/>
    <use x="775.425781" xlink:href="#DejaVuSans-117"/>
    <use x="838.804688" xlink:href="#DejaVuSans-116"/>
   </g>
  </g>
 </g>
 <defs>
  <clipPath id="p45a6ca54c6">
   <rect height="317.111667" width="404.892969" x="83.472344" y="35.0625"/>
  </clipPath>
 </defs>
</svg>
