<?xml version="1.0" encoding="utf-8" standalone="no"?>
<!DOCTYPE svg PUBLIC "-//W3C//DTD SVG 1.1//EN"
  "http://www.w3.org/Graphics/SVG/1.1/DTD/svg11.dtd">
<!-- Created with matplotlib (https://matplotlib.org/) -->
<svg height="396pt" version="1.1" viewBox="0 0 684 396" width="684pt" xmlns="http://www.w3.org/2000/svg" xmlns:xlink="http://www.w3.org/1999/xlink">
 <defs>
  <style type="text/css">
*{stroke-linecap:butt;stroke-linejoin:round;}
  </style>
 </defs>
 <g id="figure_1">
  <g id="patch_1">
   <path d="M 0 396 
L 684 396 
L 684 0 
L 0 0 
z
" style="fill:#ffffff;"/>
  </g>
  <g id="axes_1">
   <g id="patch_2">
    <path d="M 92.823906 352.174167 
L 488.365312 352.174167 
L 488.365312 35.0625 
L 92.823906 35.0625 
z
" style="fill:#ffffff;"/>
   </g>
   <g id="matplotlib.axis_1">
    <g id="xtick_1">
     <g id="line2d_1">
      <defs>
       <path d="M 0 0 
L 0 3.5 
" id="m120c01886a" style="stroke:#000000;stroke-width:0.8;"/>
      </defs>
      <g>
       <use style="stroke:#000000;stroke-width:0.8;" x="110.773044" xlink:href="#m120c01886a" y="352.174167"/>
      </g>
     </g>
     <g id="text_1">
      <!-- 0 -->
      <defs>
       <path d="M 31.78125 66.40625 
Q 24.171875 66.40625 20.328125 58.90625 
Q 16.5 51.421875 16.5 36.375 
Q 16.5 21.390625 20.328125 13.890625 
Q 24.171875 6.390625 31.78125 6.390625 
Q 39.453125 6.390625 43.28125 13.890625 
Q 47.125 21.390625 47.125 36.375 
Q 47.125 51.421875 43.28125 58.90625 
Q 39.453125 66.40625 31.78125 66.40625 
z
M 31.78125 74.21875 
Q 44.046875 74.21875 50.515625 64.515625 
Q 56.984375 54.828125 56.984375 36.375 
Q 56.984375 17.96875 50.515625 8.265625 
Q 44.046875 -1.421875 31.78125 -1.421875 
Q 19.53125 -1.421875 13.0625 8.265625 
Q 6.59375 17.96875 6.59375 36.375 
Q 6.59375 54.828125 13.0625 64.515625 
Q 19.53125 74.21875 31.78125 74.21875 
z
" id="DejaVuSans-48"/>
      </defs>
      <g transform="translate(107.591794 366.772604)scale(0.1 -0.1)">
       <use xlink:href="#DejaVuSans-48"/>
      </g>
     </g>
    </g>
    <g id="xtick_2">
     <g id="line2d_2">
      <g>
       <use style="stroke:#000000;stroke-width:0.8;" x="176.027923" xlink:href="#m120c01886a" y="352.174167"/>
      </g>
     </g>
     <g id="text_2">
      <!-- 50 -->
      <defs>
       <path d="M 10.796875 72.90625 
L 49.515625 72.90625 
L 49.515625 64.59375 
L 19.828125 64.59375 
L 19.828125 46.734375 
Q 21.96875 47.46875 24.109375 47.828125 
Q 26.265625 48.1875 28.421875 48.1875 
Q 40.625 48.1875 47.75 41.5 
Q 54.890625 34.8125 54.890625 23.390625 
Q 54.890625 11.625 47.5625 5.09375 
Q 40.234375 -1.421875 26.90625 -1.421875 
Q 22.3125 -1.421875 17.546875 -0.640625 
Q 12.796875 0.140625 7.71875 1.703125 
L 7.71875 11.625 
Q 12.109375 9.234375 16.796875 8.0625 
Q 21.484375 6.890625 26.703125 6.890625 
Q 35.15625 6.890625 40.078125 11.328125 
Q 45.015625 15.765625 45.015625 23.390625 
Q 45.015625 31 40.078125 35.4375 
Q 35.15625 39.890625 26.703125 39.890625 
Q 22.75 39.890625 18.8125 39.015625 
Q 14.890625 38.140625 10.796875 36.28125 
z
" id="DejaVuSans-53"/>
      </defs>
      <g transform="translate(169.665423 366.772604)scale(0.1 -0.1)">
       <use xlink:href="#DejaVuSans-53"/>
       <use x="63.623047" xlink:href="#DejaVuSans-48"/>
      </g>
     </g>
    </g>
    <g id="xtick_3">
     <g id="line2d_3">
      <g>
       <use style="stroke:#000000;stroke-width:0.8;" x="241.282802" xlink:href="#m120c01886a" y="352.174167"/>
      </g>
     </g>
     <g id="text_3">
      <!-- 100 -->
      <defs>
       <path d="M 12.40625 8.296875 
L 28.515625 8.296875 
L 28.515625 63.921875 
L 10.984375 60.40625 
L 10.984375 69.390625 
L 28.421875 72.90625 
L 38.28125 72.90625 
L 38.28125 8.296875 
L 54.390625 8.296875 
L 54.390625 0 
L 12.40625 0 
z
" id="DejaVuSans-49"/>
      </defs>
      <g transform="translate(231.739052 366.772604)scale(0.1 -0.1)">
       <use xlink:href="#DejaVuSans-49"/>
       <use x="63.623047" xlink:href="#DejaVuSans-48"/>
       <use x="127.246094" xlink:href="#DejaVuSans-48"/>
      </g>
     </g>
    </g>
    <g id="xtick_4">
     <g id="line2d_4">
      <g>
       <use style="stroke:#000000;stroke-width:0.8;" x="306.537681" xlink:href="#m120c01886a" y="352.174167"/>
      </g>
     </g>
     <g id="text_4">
      <!-- 150 -->
      <g transform="translate(296.993931 366.772604)scale(0.1 -0.1)">
       <use xlink:href="#DejaVuSans-49"/>
       <use x="63.623047" xlink:href="#DejaVuSans-53"/>
       <use x="127.246094" xlink:href="#DejaVuSans-48"/>
      </g>
     </g>
    </g>
    <g id="xtick_5">
     <g id="line2d_5">
      <g>
       <use style="stroke:#000000;stroke-width:0.8;" x="371.792561" xlink:href="#m120c01886a" y="352.174167"/>
      </g>
     </g>
     <g id="text_5">
      <!-- 200 -->
      <defs>
       <path d="M 19.1875 8.296875 
L 53.609375 8.296875 
L 53.609375 0 
L 7.328125 0 
L 7.328125 8.296875 
Q 12.9375 14.109375 22.625 23.890625 
Q 32.328125 33.6875 34.8125 36.53125 
Q 39.546875 41.84375 41.421875 45.53125 
Q 43.3125 49.21875 43.3125 52.78125 
Q 43.3125 58.59375 39.234375 62.25 
Q 35.15625 65.921875 28.609375 65.921875 
Q 23.96875 65.921875 18.8125 64.3125 
Q 13.671875 62.703125 7.8125 59.421875 
L 7.8125 69.390625 
Q 13.765625 71.78125 18.9375 73 
Q 24.125 74.21875 28.421875 74.21875 
Q 39.75 74.21875 46.484375 68.546875 
Q 53.21875 62.890625 53.21875 53.421875 
Q 53.21875 48.921875 51.53125 44.890625 
Q 49.859375 40.875 45.40625 35.40625 
Q 44.1875 33.984375 37.640625 27.21875 
Q 31.109375 20.453125 19.1875 8.296875 
z
" id="DejaVuSans-50"/>
      </defs>
      <g transform="translate(362.248811 366.772604)scale(0.1 -0.1)">
       <use xlink:href="#DejaVuSans-50"/>
       <use x="63.623047" xlink:href="#DejaVuSans-48"/>
       <use x="127.246094" xlink:href="#DejaVuSans-48"/>
      </g>
     </g>
    </g>
    <g id="xtick_6">
     <g id="line2d_6">
      <g>
       <use style="stroke:#000000;stroke-width:0.8;" x="437.04744" xlink:href="#m120c01886a" y="352.174167"/>
      </g>
     </g>
     <g id="text_6">
      <!-- 250 -->
      <g transform="translate(427.50369 366.772604)scale(0.1 -0.1)">
       <use xlink:href="#DejaVuSans-50"/>
       <use x="63.623047" xlink:href="#DejaVuSans-53"/>
       <use x="127.246094" xlink:href="#DejaVuSans-48"/>
      </g>
     </g>
    </g>
   </g>
   <g id="matplotlib.axis_2">
    <g id="ytick_1">
     <g id="line2d_7">
      <defs>
       <path d="M 0 0 
L -3.5 0 
" id="mf2c7f1a7d3" style="stroke:#000000;stroke-width:0.8;"/>
      </defs>
      <g>
       <use style="stroke:#000000;stroke-width:0.8;" x="92.823906" xlink:href="#mf2c7f1a7d3" y="352.174167"/>
      </g>
     </g>
     <g id="text_7">
      <!-- 0 -->
      <g transform="translate(79.461406 355.973385)scale(0.1 -0.1)">
       <use xlink:href="#DejaVuSans-48"/>
      </g>
     </g>
    </g>
    <g id="ytick_2">
     <g id="line2d_8">
      <g>
       <use style="stroke:#000000;stroke-width:0.8;" x="92.823906" xlink:href="#mf2c7f1a7d3" y="304.64544"/>
      </g>
     </g>
     <g id="text_8">
      <!-- 50 -->
      <g transform="translate(73.098906 308.444658)scale(0.1 -0.1)">
       <use xlink:href="#DejaVuSans-53"/>
       <use x="63.623047" xlink:href="#DejaVuSans-48"/>
      </g>
     </g>
    </g>
    <g id="ytick_3">
     <g id="line2d_9">
      <g>
       <use style="stroke:#000000;stroke-width:0.8;" x="92.823906" xlink:href="#mf2c7f1a7d3" y="257.116713"/>
      </g>
     </g>
     <g id="text_9">
      <!-- 100 -->
      <g transform="translate(66.736406 260.915931)scale(0.1 -0.1)">
       <use xlink:href="#DejaVuSans-49"/>
       <use x="63.623047" xlink:href="#DejaVuSans-48"/>
       <use x="127.246094" xlink:href="#DejaVuSans-48"/>
      </g>
     </g>
    </g>
    <g id="ytick_4">
     <g id="line2d_10">
      <g>
       <use style="stroke:#000000;stroke-width:0.8;" x="92.823906" xlink:href="#mf2c7f1a7d3" y="209.587986"/>
      </g>
     </g>
     <g id="text_10">
      <!-- 150 -->
      <g transform="translate(66.736406 213.387204)scale(0.1 -0.1)">
       <use xlink:href="#DejaVuSans-49"/>
       <use x="63.623047" xlink:href="#DejaVuSans-53"/>
       <use x="127.246094" xlink:href="#DejaVuSans-48"/>
      </g>
     </g>
    </g>
    <g id="ytick_5">
     <g id="line2d_11">
      <g>
       <use style="stroke:#000000;stroke-width:0.8;" x="92.823906" xlink:href="#mf2c7f1a7d3" y="162.059259"/>
      </g>
     </g>
     <g id="text_11">
      <!-- 200 -->
      <g transform="translate(66.736406 165.858477)scale(0.1 -0.1)">
       <use xlink:href="#DejaVuSans-50"/>
       <use x="63.623047" xlink:href="#DejaVuSans-48"/>
       <use x="127.246094" xlink:href="#DejaVuSans-48"/>
      </g>
     </g>
    </g>
    <g id="ytick_6">
     <g id="line2d_12">
      <g>
       <use style="stroke:#000000;stroke-width:0.8;" x="92.823906" xlink:href="#mf2c7f1a7d3" y="114.530532"/>
      </g>
     </g>
     <g id="text_12">
      <!-- 250 -->
      <g transform="translate(66.736406 118.32975)scale(0.1 -0.1)">
       <use xlink:href="#DejaVuSans-50"/>
       <use x="63.623047" xlink:href="#DejaVuSans-53"/>
       <use x="127.246094" xlink:href="#DejaVuSans-48"/>
      </g>
     </g>
    </g>
    <g id="ytick_7">
     <g id="line2d_13">
      <g>
       <use style="stroke:#000000;stroke-width:0.8;" x="92.823906" xlink:href="#mf2c7f1a7d3" y="67.001805"/>
      </g>
     </g>
     <g id="text_13">
      <!-- 300 -->
      <defs>
       <path d="M 40.578125 39.3125 
Q 47.65625 37.796875 51.625 33 
Q 55.609375 28.21875 55.609375 21.1875 
Q 55.609375 10.40625 48.1875 4.484375 
Q 40.765625 -1.421875 27.09375 -1.421875 
Q 22.515625 -1.421875 17.65625 -0.515625 
Q 12.796875 0.390625 7.625 2.203125 
L 7.625 11.71875 
Q 11.71875 9.328125 16.59375 8.109375 
Q 21.484375 6.890625 26.8125 6.890625 
Q 36.078125 6.890625 40.9375 10.546875 
Q 45.796875 14.203125 45.796875 21.1875 
Q 45.796875 27.640625 41.28125 31.265625 
Q 36.765625 34.90625 28.71875 34.90625 
L 20.21875 34.90625 
L 20.21875 43.015625 
L 29.109375 43.015625 
Q 36.375 43.015625 40.234375 45.921875 
Q 44.09375 48.828125 44.09375 54.296875 
Q 44.09375 59.90625 40.109375 62.90625 
Q 36.140625 65.921875 28.71875 65.921875 
Q 24.65625 65.921875 20.015625 65.03125 
Q 15.375 64.15625 9.8125 62.3125 
L 9.8125 71.09375 
Q 15.4375 72.65625 20.34375 73.4375 
Q 25.25 74.21875 29.59375 74.21875 
Q 40.828125 74.21875 47.359375 69.109375 
Q 53.90625 64.015625 53.90625 55.328125 
Q 53.90625 49.265625 50.4375 45.09375 
Q 46.96875 40.921875 40.578125 39.3125 
z
" id="DejaVuSans-51"/>
      </defs>
      <g transform="translate(66.736406 70.801023)scale(0.1 -0.1)">
       <use xlink:href="#DejaVuSans-51"/>
       <use x="63.623047" xlink:href="#DejaVuSans-48"/>
       <use x="127.246094" xlink:href="#DejaVuSans-48"/>
      </g>
     </g>
    </g>
    <g id="text_14">
     <!-- rtt -->
     <defs>
      <path d="M 41.109375 46.296875 
Q 39.59375 47.171875 37.8125 47.578125 
Q 36.03125 48 33.890625 48 
Q 26.265625 48 22.1875 43.046875 
Q 18.109375 38.09375 18.109375 28.8125 
L 18.109375 0 
L 9.078125 0 
L 9.078125 54.6875 
L 18.109375 54.6875 
L 18.109375 46.1875 
Q 20.953125 51.171875 25.484375 53.578125 
Q 30.03125 56 36.53125 56 
Q 37.453125 56 38.578125 55.875 
Q 39.703125 55.765625 41.0625 55.515625 
z
" id="DejaVuSans-114"/>
      <path d="M 18.3125 70.21875 
L 18.3125 54.6875 
L 36.8125 54.6875 
L 36.8125 47.703125 
L 18.3125 47.703125 
L 18.3125 18.015625 
Q 18.3125 11.328125 20.140625 9.421875 
Q 21.96875 7.515625 27.59375 7.515625 
L 36.8125 7.515625 
L 36.8125 0 
L 27.59375 0 
Q 17.1875 0 13.234375 3.875 
Q 9.28125 7.765625 9.28125 18.015625 
L 9.28125 47.703125 
L 2.6875 47.703125 
L 2.6875 54.6875 
L 9.28125 54.6875 
L 9.28125 70.21875 
z
" id="DejaVuSans-116"/>
     </defs>
     <g transform="translate(49.458906 199.594115)rotate(-90)scale(0.1 -0.1)">
      <use xlink:href="#DejaVuSans-114"/>
      <use x="41.113281" xlink:href="#DejaVuSans-116"/>
      <use x="80.322266" xlink:href="#DejaVuSans-116"/>
     </g>
     <!-- (ms) -->
     <defs>
      <path d="M 31 75.875 
Q 24.46875 64.65625 21.28125 53.65625 
Q 18.109375 42.671875 18.109375 31.390625 
Q 18.109375 20.125 21.3125 9.0625 
Q 24.515625 -2 31 -13.1875 
L 23.1875 -13.1875 
Q 15.875 -1.703125 12.234375 9.375 
Q 8.59375 20.453125 8.59375 31.390625 
Q 8.59375 42.28125 12.203125 53.3125 
Q 15.828125 64.359375 23.1875 75.875 
z
" id="DejaVuSans-40"/>
      <path d="M 52 44.1875 
Q 55.375 50.25 60.0625 53.125 
Q 64.75 56 71.09375 56 
Q 79.640625 56 84.28125 50.015625 
Q 88.921875 44.046875 88.921875 33.015625 
L 88.921875 0 
L 79.890625 0 
L 79.890625 32.71875 
Q 79.890625 40.578125 77.09375 44.375 
Q 74.3125 48.1875 68.609375 48.1875 
Q 61.625 48.1875 57.5625 43.546875 
Q 53.515625 38.921875 53.515625 30.90625 
L 53.515625 0 
L 44.484375 0 
L 44.484375 32.71875 
Q 44.484375 40.625 41.703125 44.40625 
Q 38.921875 48.1875 33.109375 48.1875 
Q 26.21875 48.1875 22.15625 43.53125 
Q 18.109375 38.875 18.109375 30.90625 
L 18.109375 0 
L 9.078125 0 
L 9.078125 54.6875 
L 18.109375 54.6875 
L 18.109375 46.1875 
Q 21.1875 51.21875 25.484375 53.609375 
Q 29.78125 56 35.6875 56 
Q 41.65625 56 45.828125 52.96875 
Q 50 49.953125 52 44.1875 
z
" id="DejaVuSans-109"/>
      <path d="M 44.28125 53.078125 
L 44.28125 44.578125 
Q 40.484375 46.53125 36.375 47.5 
Q 32.28125 48.484375 27.875 48.484375 
Q 21.1875 48.484375 17.84375 46.4375 
Q 14.5 44.390625 14.5 40.28125 
Q 14.5 37.15625 16.890625 35.375 
Q 19.28125 33.59375 26.515625 31.984375 
L 29.59375 31.296875 
Q 39.15625 29.25 43.1875 25.515625 
Q 47.21875 21.78125 47.21875 15.09375 
Q 47.21875 7.46875 41.1875 3.015625 
Q 35.15625 -1.421875 24.609375 -1.421875 
Q 20.21875 -1.421875 15.453125 -0.5625 
Q 10.6875 0.296875 5.421875 2 
L 5.421875 11.28125 
Q 10.40625 8.6875 15.234375 7.390625 
Q 20.0625 6.109375 24.8125 6.109375 
Q 31.15625 6.109375 34.5625 8.28125 
Q 37.984375 10.453125 37.984375 14.40625 
Q 37.984375 18.0625 35.515625 20.015625 
Q 33.0625 21.96875 24.703125 23.78125 
L 21.578125 24.515625 
Q 13.234375 26.265625 9.515625 29.90625 
Q 5.8125 33.546875 5.8125 39.890625 
Q 5.8125 47.609375 11.28125 51.796875 
Q 16.75 56 26.8125 56 
Q 31.78125 56 36.171875 55.265625 
Q 40.578125 54.546875 44.28125 53.078125 
z
" id="DejaVuSans-115"/>
      <path d="M 8.015625 75.875 
L 15.828125 75.875 
Q 23.140625 64.359375 26.78125 53.3125 
Q 30.421875 42.28125 30.421875 31.390625 
Q 30.421875 20.453125 26.78125 9.375 
Q 23.140625 -1.703125 15.828125 -13.1875 
L 8.015625 -13.1875 
Q 14.5 -2 17.703125 9.0625 
Q 20.90625 20.125 20.90625 31.390625 
Q 20.90625 42.671875 17.703125 53.65625 
Q 14.5 64.65625 8.015625 75.875 
z
" id="DejaVuSans-41"/>
     </defs>
     <g transform="translate(60.656719 204.994896)rotate(-90)scale(0.1 -0.1)">
      <use xlink:href="#DejaVuSans-40"/>
      <use x="39.013672" xlink:href="#DejaVuSans-109"/>
      <use x="136.425781" xlink:href="#DejaVuSans-115"/>
      <use x="188.525391" xlink:href="#DejaVuSans-41"/>
     </g>
    </g>
   </g>
   <g id="line2d_14">
    <path clip-path="url(#p613b743bf0)" d="M 116.046943 298.941992 
L 117.352041 291.337396 
L 118.00459 277.078778 
L 118.657138 281.831651 
L 119.309687 295.139694 
L 119.962236 292.287971 
L 121.267334 290.386822 
L 121.919882 290.386822 
L 122.572431 289.436247 
L 123.22498 287.535098 
L 123.877529 288.485672 
L 124.530077 282.782225 
L 125.182626 289.436247 
L 125.835175 285.633949 
L 126.487724 293.238545 
L 127.140273 293.238545 
L 127.792821 289.436247 
L 129.097919 285.633949 
L 130.403017 283.7328 
L 131.055565 287.535098 
L 131.708114 284.683374 
L 132.360663 280.881076 
L 133.013212 290.386822 
L 133.665761 286.584523 
L 134.318309 283.7328 
L 134.970858 286.584523 
L 135.623407 283.7328 
L 136.275956 278.029353 
L 136.928505 292.287971 
L 137.581053 286.584523 
L 138.233602 284.683374 
L 138.886151 278.029353 
L 139.5387 296.090269 
L 140.191248 293.238545 
L 140.843797 279.930502 
L 141.496346 294.18912 
L 142.148895 280.881076 
L 142.801444 288.485672 
L 143.453992 273.27648 
L 144.106541 291.337396 
L 144.75909 279.930502 
L 145.411639 283.7328 
L 146.064188 279.930502 
L 147.369285 278.029353 
L 148.021834 278.029353 
L 148.674383 274.227054 
L 149.326932 285.633949 
L 149.97948 292.287971 
L 150.632029 268.523607 
L 151.284578 220.044306 
L 151.937127 308.447738 
L 152.589676 275.177629 
L 153.242224 316.052334 
L 153.894773 296.090269 
L 154.547322 308.447738 
L 155.852419 308.447738 
L 157.157517 306.546589 
L 157.810066 304.64544 
L 159.115163 302.744291 
L 159.767712 298.941992 
L 161.07281 289.436247 
L 161.725359 278.029353 
L 162.377907 301.793716 
L 163.030456 296.090269 
L 164.335554 290.386822 
L 164.988103 289.436247 
L 165.640651 301.793716 
L 166.2932 303.694865 
L 166.945749 297.040843 
L 167.598298 287.535098 
L 168.250847 283.7328 
L 168.903395 278.979927 
L 169.555944 294.18912 
L 170.208493 285.633949 
L 170.861042 282.782225 
L 171.513591 288.485672 
L 172.166139 283.7328 
L 172.818688 270.424756 
L 173.471237 292.287971 
L 174.123786 290.386822 
L 174.776334 290.386822 
L 175.428883 283.7328 
L 176.081432 292.287971 
L 176.733981 284.683374 
L 177.38653 285.633949 
L 178.039078 283.7328 
L 178.691627 289.436247 
L 179.344176 283.7328 
L 179.996725 316.052334 
L 180.649274 309.398312 
L 182.60692 306.546589 
L 183.259469 306.546589 
L 183.912018 304.64544 
L 185.217115 302.744291 
L 185.869664 300.843141 
L 186.522213 299.892567 
L 187.82731 296.090269 
L 188.479859 295.139694 
L 189.132408 293.238545 
L 189.784957 289.436247 
L 190.437505 284.683374 
L 191.090054 294.18912 
L 191.742603 289.436247 
L 192.395152 286.584523 
L 193.047701 285.633949 
L 193.700249 285.633949 
L 194.352798 295.139694 
L 195.005347 287.535098 
L 195.657896 288.485672 
L 196.310445 283.7328 
L 196.962993 295.139694 
L 197.615542 281.831651 
L 198.268091 288.485672 
L 198.92064 277.078778 
L 199.573189 281.831651 
L 200.225737 281.831651 
L 200.878286 279.930502 
L 201.530835 272.325905 
L 202.183384 278.029353 
L 202.835933 279.930502 
L 203.488481 280.881076 
L 204.14103 278.029353 
L 204.793579 268.523607 
L 205.446128 299.892567 
L 206.098676 257.116713 
L 206.751225 252.36384 
L 207.403774 289.436247 
L 208.056323 268.523607 
L 208.708872 301.793716 
L 209.36142 279.930502 
L 210.013969 291.337396 
L 210.666518 285.633949 
L 211.319067 286.584523 
L 211.971616 290.386822 
L 212.624164 287.535098 
L 213.276713 287.535098 
L 213.929262 284.683374 
L 214.581811 285.633949 
L 215.23436 278.979927 
L 215.886908 287.535098 
L 216.539457 281.831651 
L 217.192006 288.485672 
L 217.844555 278.029353 
L 218.497104 287.535098 
L 219.149652 278.979927 
L 219.802201 287.535098 
L 220.45475 290.386822 
L 221.107299 286.584523 
L 221.759847 319.854632 
L 222.412396 304.64544 
L 223.717494 302.744291 
L 224.370043 300.843141 
L 225.67514 298.941992 
L 226.980238 295.139694 
L 227.632787 294.18912 
L 228.285335 292.287971 
L 228.937884 289.436247 
L 229.590433 285.633949 
L 230.242982 276.128203 
L 230.895531 297.040843 
L 231.548079 292.287971 
L 232.853177 286.584523 
L 233.505726 284.683374 
L 234.158275 283.7328 
L 234.810823 281.831651 
L 235.463372 295.139694 
L 236.115921 285.633949 
L 236.76847 288.485672 
L 237.421019 283.7328 
L 238.073567 292.287971 
L 238.726116 283.7328 
L 239.378665 294.18912 
L 240.031214 276.128203 
L 240.683762 285.633949 
L 241.336311 291.337396 
L 241.98886 283.7328 
L 242.641409 283.7328 
L 243.293958 291.337396 
L 243.946506 265.671883 
L 244.599055 277.078778 
L 245.251604 285.633949 
L 245.904153 275.177629 
L 246.556702 268.523607 
L 247.20925 300.843141 
L 247.861799 283.7328 
L 248.514348 291.337396 
L 249.166897 286.584523 
L 249.819446 297.040843 
L 250.471994 276.128203 
L 251.124543 278.029353 
L 251.777092 290.386822 
L 252.429641 286.584523 
L 253.08219 278.979927 
L 253.734738 279.930502 
L 254.387287 258.067287 
L 255.039836 252.36384 
L 255.692385 291.337396 
L 256.344933 295.139694 
L 256.997482 279.930502 
L 257.650031 277.078778 
L 258.30258 291.337396 
L 258.955129 283.7328 
L 259.607677 286.584523 
L 260.260226 298.941992 
L 260.912775 280.881076 
L 261.565324 297.991418 
L 262.217873 291.337396 
L 262.870421 282.782225 
L 263.52297 278.029353 
L 264.175519 289.436247 
L 264.828068 277.078778 
L 266.133165 292.287971 
L 266.785714 294.18912 
L 267.438263 279.930502 
L 268.090812 289.436247 
L 268.743361 289.436247 
L 269.395909 309.398312 
L 270.048458 316.052334 
L 270.701007 307.497163 
L 271.353556 307.497163 
L 272.658653 305.596014 
L 273.311202 303.694865 
L 273.963751 303.694865 
L 274.6163 301.793716 
L 275.921397 299.892567 
L 276.573946 297.991418 
L 277.226495 297.040843 
L 278.531592 293.238545 
L 279.184141 292.287971 
L 279.83669 287.535098 
L 280.489239 280.881076 
L 281.141788 294.18912 
L 281.794336 289.436247 
L 282.446885 286.584523 
L 283.099434 290.386822 
L 283.751983 285.633949 
L 284.404532 279.930502 
L 285.05708 296.090269 
L 285.709629 282.782225 
L 286.362178 293.238545 
L 287.014727 279.930502 
L 287.667275 284.683374 
L 288.319824 278.979927 
L 288.972373 284.683374 
L 289.624922 274.227054 
L 290.277471 289.436247 
L 290.930019 286.584523 
L 291.582568 273.27648 
L 292.887666 283.7328 
L 293.540215 288.485672 
L 294.192763 278.029353 
L 294.845312 284.683374 
L 295.497861 285.633949 
L 296.15041 278.979927 
L 296.802959 291.337396 
L 297.455507 289.436247 
L 298.108056 297.040843 
L 298.760605 290.386822 
L 299.413154 276.128203 
L 300.065703 276.128203 
L 300.718251 281.831651 
L 301.3708 296.090269 
L 302.023349 282.782225 
L 303.328447 295.139694 
L 303.980995 315.10176 
L 304.633544 315.10176 
L 305.286093 309.398312 
L 309.201386 303.694865 
L 309.853934 301.793716 
L 310.506483 300.843141 
L 311.811581 297.040843 
L 312.46413 292.287971 
L 313.116678 286.584523 
L 313.769227 287.535098 
L 314.421776 292.287971 
L 315.074325 288.485672 
L 315.726874 285.633949 
L 317.031971 283.7328 
L 317.68452 288.485672 
L 318.337069 288.485672 
L 319.642166 284.683374 
L 320.294715 278.029353 
L 320.947264 286.584523 
L 321.599813 270.424756 
L 322.252361 283.7328 
L 322.90491 288.485672 
L 323.557459 256.166138 
L 324.210008 141.146619 
L 324.862557 269.474182 
L 325.515105 276.128203 
L 326.167654 297.040843 
L 326.820203 282.782225 
L 327.472752 289.436247 
L 328.125301 263.770734 
L 328.777849 284.683374 
L 329.430398 299.892567 
L 330.082947 277.078778 
L 330.735496 279.930502 
L 331.388045 286.584523 
L 332.040593 262.82016 
L 332.693142 286.584523 
L 333.345691 305.596014 
L 333.99824 309.398312 
L 334.650789 310.348887 
L 335.303337 309.398312 
L 335.955886 307.497163 
L 337.913532 304.64544 
L 338.566081 302.744291 
L 339.21863 301.793716 
L 339.871179 301.793716 
L 341.176276 297.991418 
L 341.828825 297.040843 
L 342.481374 291.337396 
L 343.133923 277.078778 
L 343.786472 294.18912 
L 344.43902 289.436247 
L 345.091569 286.584523 
L 345.744118 285.633949 
L 346.396667 282.782225 
L 347.049216 297.040843 
L 347.701764 279.930502 
L 348.354313 293.238545 
L 349.006862 281.831651 
L 349.659411 279.930502 
L 350.31196 269.474182 
L 351.617057 283.7328 
L 352.269606 277.078778 
L 352.922155 292.287971 
L 353.574703 289.436247 
L 354.227252 283.7328 
L 354.879801 295.139694 
L 355.53235 280.881076 
L 356.184899 288.485672 
L 356.837447 278.029353 
L 357.489996 280.881076 
L 358.142545 279.930502 
L 358.795094 284.683374 
L 359.447643 284.683374 
L 360.100191 289.436247 
L 360.75274 297.040843 
L 361.405289 295.139694 
L 362.057838 275.177629 
L 362.710387 268.523607 
L 363.362935 296.090269 
L 364.015484 268.523607 
L 364.668033 297.040843 
L 365.320582 287.535098 
L 365.973131 319.854632 
L 366.625679 301.793716 
L 367.278228 309.398312 
L 367.930777 308.447738 
L 368.583326 308.447738 
L 369.235875 306.546589 
L 371.84607 302.744291 
L 373.151167 298.941992 
L 373.803716 297.991418 
L 374.456265 296.090269 
L 375.108814 290.386822 
L 375.761362 279.930502 
L 376.413911 293.238545 
L 377.06646 289.436247 
L 377.719009 287.535098 
L 379.024106 285.633949 
L 379.676655 283.7328 
L 380.329204 301.793716 
L 380.981753 291.337396 
L 381.634302 278.029353 
L 382.28685 297.040843 
L 382.939399 287.535098 
L 383.591948 284.683374 
L 384.244497 293.238545 
L 384.897046 285.633949 
L 385.549594 288.485672 
L 386.202143 276.128203 
L 386.854692 296.090269 
L 387.507241 286.584523 
L 388.159789 286.584523 
L 388.812338 287.535098 
L 389.464887 283.7328 
L 390.117436 287.535098 
L 390.769985 287.535098 
L 391.422533 286.584523 
L 392.075082 284.683374 
L 392.727631 288.485672 
L 393.38018 319.854632 
L 394.032729 305.596014 
L 396.642924 301.793716 
L 397.295473 299.892567 
L 398.60057 297.991418 
L 400.558217 292.287971 
L 401.210765 291.337396 
L 402.515863 287.535098 
L 403.168412 281.831651 
L 403.82096 294.18912 
L 404.473509 289.436247 
L 405.126058 285.633949 
L 405.778607 283.7328 
L 406.431156 289.436247 
L 407.083704 293.238545 
L 407.736253 278.979927 
L 408.388802 295.139694 
L 409.041351 280.881076 
L 409.6939 294.18912 
L 410.998997 277.078778 
L 411.651546 277.078778 
L 412.304095 282.782225 
L 412.956644 278.979927 
L 413.609192 281.831651 
L 414.261741 287.535098 
L 414.91429 278.979927 
L 415.566839 259.968436 
L 416.219388 281.831651 
L 416.871936 273.27648 
L 417.524485 276.128203 
L 418.177034 276.128203 
L 418.829583 300.843141 
L 419.482131 281.831651 
L 420.13468 281.831651 
L 420.787229 273.27648 
L 421.439778 320.805207 
L 422.092327 296.090269 
L 422.744875 309.398312 
L 423.397424 308.447738 
L 424.049973 308.447738 
L 424.702522 306.546589 
L 425.355071 306.546589 
L 427.965266 302.744291 
L 428.617815 300.843141 
L 429.270363 299.892567 
L 429.922912 297.991418 
L 430.575461 292.287971 
L 431.22801 278.979927 
L 431.880559 295.139694 
L 432.533107 290.386822 
L 433.185656 287.535098 
L 433.838205 286.584523 
L 434.490754 287.535098 
L 435.143303 284.683374 
L 435.795851 290.386822 
L 436.4484 282.782225 
L 437.100949 281.831651 
L 437.753498 278.979927 
L 438.406046 283.7328 
L 439.058595 278.979927 
L 439.711144 278.029353 
L 440.363693 266.622458 
L 441.016242 290.386822 
L 441.66879 287.535098 
L 442.321339 280.881076 
L 442.973888 288.485672 
L 443.626437 279.930502 
L 444.931534 297.991418 
L 445.584083 284.683374 
L 446.236632 283.7328 
L 446.889181 292.287971 
L 447.54173 272.325905 
L 448.194278 287.535098 
L 448.846827 277.078778 
L 449.499376 273.27648 
L 450.151925 297.991418 
L 450.804474 283.7328 
L 451.457022 280.881076 
L 452.109571 281.831651 
L 452.76212 280.881076 
L 453.414669 290.386822 
L 454.067217 292.287971 
L 454.719766 288.485672 
L 455.372315 294.18912 
L 456.024864 276.128203 
L 456.677413 291.337396 
L 457.329961 290.386822 
L 457.98251 279.930502 
L 458.635059 292.287971 
L 459.287608 287.535098 
L 459.940157 286.584523 
L 460.592705 286.584523 
L 461.245254 285.633949 
L 461.897803 285.633949 
L 462.550352 278.979927 
L 463.202901 288.485672 
L 463.855449 278.979927 
L 464.507998 287.535098 
L 465.160547 285.633949 
L 465.813096 285.633949 
L 466.465645 292.287971 
L 467.118193 294.18912 
L 467.770742 288.485672 
L 467.770742 288.485672 
" style="fill:none;stroke:#1f77b4;stroke-linecap:square;stroke-width:1.5;"/>
   </g>
   <g id="line2d_15">
    <path clip-path="url(#p613b743bf0)" d="M 110.803061 277.078778 
L 111.45561 324.607505 
L 112.760707 326.508654 
L 113.413256 310.348887 
L 114.065805 278.029353 
L 114.718354 303.694865 
L 115.370903 311.299461 
L 116.676 295.139694 
L 117.328549 293.238545 
L 117.981098 286.584523 
L 118.633647 281.831651 
L 119.286195 296.090269 
L 119.938744 294.18912 
L 121.243842 292.287971 
L 122.548939 292.287971 
L 123.201488 290.386822 
L 123.854037 291.337396 
L 124.506586 274.227054 
L 125.159135 290.386822 
L 125.811683 285.633949 
L 126.464232 296.090269 
L 127.116781 294.18912 
L 127.76933 289.436247 
L 128.421878 287.535098 
L 130.379525 284.683374 
L 131.032074 287.535098 
L 131.684622 285.633949 
L 132.337171 281.831651 
L 132.98972 291.337396 
L 133.642269 287.535098 
L 134.294818 284.683374 
L 134.947366 287.535098 
L 135.599915 284.683374 
L 136.252464 277.078778 
L 136.905013 286.584523 
L 137.557562 287.535098 
L 138.21011 285.633949 
L 138.862659 287.535098 
L 139.515208 292.287971 
L 140.167757 291.337396 
L 140.820306 286.584523 
L 141.472854 288.485672 
L 142.125403 281.831651 
L 142.777952 281.831651 
L 143.430501 264.721309 
L 144.083049 290.386822 
L 144.735598 271.375331 
L 145.388147 274.227054 
L 146.040696 278.979927 
L 146.693245 259.968436 
L 147.345793 274.227054 
L 147.998342 264.721309 
L 149.30344 248.561542 
L 149.955989 256.166138 
L 150.608537 241.90752 
L 151.261086 234.302924 
L 151.913635 262.82016 
L 152.566184 259.017862 
L 153.218733 294.18912 
L 153.871281 296.090269 
L 154.52383 306.546589 
L 155.176379 307.497163 
L 156.481477 307.497163 
L 157.786574 305.596014 
L 158.439123 303.694865 
L 159.091672 302.744291 
L 159.74422 299.892567 
L 160.396769 296.090269 
L 161.049318 290.386822 
L 161.701867 288.485672 
L 162.354416 302.744291 
L 163.006964 297.040843 
L 163.659513 295.139694 
L 164.312062 292.287971 
L 164.964611 297.040843 
L 165.61716 303.694865 
L 166.269708 302.744291 
L 166.922257 297.040843 
L 167.574806 288.485672 
L 168.227355 281.831651 
L 168.879904 279.930502 
L 169.532452 295.139694 
L 170.185001 283.7328 
L 170.83755 277.078778 
L 171.490099 287.535098 
L 172.142648 280.881076 
L 172.795196 272.325905 
L 173.447745 291.337396 
L 174.100294 276.128203 
L 174.752843 271.375331 
L 175.405391 279.930502 
L 176.05794 280.881076 
L 176.710489 274.227054 
L 177.363038 289.436247 
L 178.015587 288.485672 
L 178.668135 273.27648 
L 179.320684 279.930502 
L 180.625782 310.348887 
L 181.278331 307.497163 
L 181.930879 307.497163 
L 182.583428 306.546589 
L 183.235977 306.546589 
L 183.888526 305.596014 
L 184.541075 303.694865 
L 185.846172 301.793716 
L 186.498721 299.892567 
L 187.803819 297.991418 
L 188.456367 296.090269 
L 189.108916 295.139694 
L 189.761465 291.337396 
L 190.414014 286.584523 
L 191.066563 296.090269 
L 191.719111 291.337396 
L 192.37166 288.485672 
L 193.024209 288.485672 
L 193.676758 275.177629 
L 194.329306 296.090269 
L 194.981855 288.485672 
L 195.634404 290.386822 
L 196.286953 289.436247 
L 196.939502 295.139694 
L 197.59205 283.7328 
L 198.244599 287.535098 
L 198.897148 276.128203 
L 199.549697 279.930502 
L 200.202246 268.523607 
L 200.854794 274.227054 
L 201.507343 274.227054 
L 202.159892 273.27648 
L 202.812441 259.968436 
L 203.46499 263.770734 
L 204.117538 277.078778 
L 204.770087 262.82016 
L 205.422636 262.82016 
L 206.075185 224.797178 
L 206.727734 261.869585 
L 207.380282 275.177629 
L 208.032831 249.512116 
L 208.68538 269.474182 
L 209.337929 276.128203 
L 209.990477 259.017862 
L 211.295575 274.227054 
L 211.948124 285.633949 
L 212.600673 274.227054 
L 213.253221 284.683374 
L 213.90577 264.721309 
L 214.558319 273.27648 
L 215.210868 275.177629 
L 215.863417 285.633949 
L 216.515965 287.535098 
L 217.168514 286.584523 
L 217.821063 276.128203 
L 218.473612 285.633949 
L 219.126161 276.128203 
L 219.778709 275.177629 
L 220.431258 288.485672 
L 221.083807 274.227054 
L 221.736356 298.941992 
L 222.388905 305.596014 
L 223.041453 303.694865 
L 225.651648 299.892567 
L 226.304197 297.991418 
L 226.956746 297.040843 
L 227.609295 295.139694 
L 228.261844 294.18912 
L 228.914392 291.337396 
L 229.566941 287.535098 
L 230.21949 288.485672 
L 230.872039 299.892567 
L 231.524588 294.18912 
L 232.177136 291.337396 
L 233.482234 287.535098 
L 234.134783 286.584523 
L 234.787332 283.7328 
L 235.43988 296.090269 
L 236.092429 286.584523 
L 236.744978 289.436247 
L 237.397527 289.436247 
L 238.050076 293.238545 
L 238.702624 282.782225 
L 239.355173 295.139694 
L 240.007722 278.979927 
L 240.660271 284.683374 
L 241.312819 292.287971 
L 241.965368 282.782225 
L 242.617917 277.078778 
L 243.270466 289.436247 
L 243.923015 262.82016 
L 244.575563 261.869585 
L 245.228112 270.424756 
L 245.880661 253.314414 
L 246.53321 259.968436 
L 247.185759 271.375331 
L 247.838307 277.078778 
L 248.490856 244.759244 
L 249.143405 261.869585 
L 249.795954 268.523607 
L 250.448503 259.017862 
L 251.101051 263.770734 
L 251.7536 270.424756 
L 252.406149 259.968436 
L 253.058698 255.215564 
L 253.711247 265.671883 
L 254.363795 249.512116 
L 255.016344 261.869585 
L 255.668893 248.561542 
L 256.321442 279.930502 
L 256.973991 265.671883 
L 257.626539 277.078778 
L 258.279088 266.622458 
L 258.931637 262.82016 
L 259.584186 267.573033 
L 260.236734 262.82016 
L 260.889283 273.27648 
L 261.541832 271.375331 
L 262.194381 286.584523 
L 262.84693 260.919011 
L 263.499478 278.979927 
L 264.152027 278.029353 
L 264.804576 278.029353 
L 265.457125 271.375331 
L 266.109674 280.881076 
L 266.762222 280.881076 
L 267.414771 264.721309 
L 268.06732 278.979927 
L 268.719869 282.782225 
L 269.372418 277.078778 
L 270.024966 313.200611 
L 270.677515 306.546589 
L 271.330064 307.497163 
L 273.28771 304.64544 
L 273.940259 304.64544 
L 274.592808 302.744291 
L 275.897905 300.843141 
L 276.550454 298.941992 
L 277.203003 297.991418 
L 277.855552 296.090269 
L 279.160649 294.18912 
L 279.813198 289.436247 
L 280.465747 294.18912 
L 281.118296 296.090269 
L 281.770845 291.337396 
L 282.423393 288.485672 
L 283.075942 293.238545 
L 283.728491 284.683374 
L 284.38104 279.930502 
L 285.033589 297.040843 
L 285.686137 277.078778 
L 286.338686 293.238545 
L 286.991235 278.979927 
L 287.643784 284.683374 
L 288.296333 278.979927 
L 288.948881 278.979927 
L 289.60143 275.177629 
L 290.253979 273.27648 
L 290.906528 279.930502 
L 291.559076 274.227054 
L 292.211625 279.930502 
L 292.864174 278.029353 
L 293.516723 280.881076 
L 294.169272 280.881076 
L 294.82182 261.869585 
L 295.474369 265.671883 
L 296.126918 268.523607 
L 296.779467 275.177629 
L 297.432016 277.078778 
L 298.084564 287.535098 
L 298.737113 271.375331 
L 299.389662 276.128203 
L 300.042211 278.979927 
L 300.69476 275.177629 
L 301.347308 280.881076 
L 301.999857 271.375331 
L 302.652406 266.622458 
L 303.304955 269.474182 
L 303.957504 289.436247 
L 304.610052 314.151185 
L 305.262601 308.447738 
L 305.91515 308.447738 
L 309.177894 303.694865 
L 309.830443 301.793716 
L 310.482991 301.793716 
L 311.788089 297.991418 
L 312.440638 294.18912 
L 313.093187 287.535098 
L 313.745735 295.139694 
L 314.398284 294.18912 
L 315.050833 290.386822 
L 315.703382 288.485672 
L 317.008479 286.584523 
L 318.313577 297.040843 
L 319.618675 281.831651 
L 320.271223 280.881076 
L 320.923772 287.535098 
L 321.576321 285.633949 
L 322.22887 273.27648 
L 322.881419 278.979927 
L 323.533967 278.029353 
L 324.186516 256.166138 
L 324.839065 260.919011 
L 325.491614 263.770734 
L 326.144162 269.474182 
L 326.796711 277.078778 
L 328.101809 222.896029 
L 328.754358 259.968436 
L 329.406906 250.462691 
L 330.059455 220.044306 
L 331.364553 232.401775 
L 332.017102 241.90752 
L 332.66965 247.610967 
L 333.322199 301.793716 
L 333.974748 308.447738 
L 335.279846 308.447738 
L 340.500236 300.843141 
L 341.152785 298.941992 
L 341.805333 297.991418 
L 342.457882 293.238545 
L 343.110431 281.831651 
L 343.76298 296.090269 
L 344.415529 291.337396 
L 345.720626 287.535098 
L 346.373175 294.18912 
L 347.025724 282.782225 
L 347.678273 287.535098 
L 348.330821 280.881076 
L 348.98337 276.128203 
L 349.635919 259.017862 
L 350.288468 267.573033 
L 350.941017 258.067287 
L 351.593565 270.424756 
L 352.246114 256.166138 
L 352.898663 270.424756 
L 353.551212 264.721309 
L 354.203761 244.759244 
L 354.856309 266.622458 
L 355.508858 253.314414 
L 356.161407 261.869585 
L 356.813956 240.006371 
L 357.466504 259.017862 
L 358.119053 243.808669 
L 358.771602 271.375331 
L 359.424151 277.078778 
L 360.729248 237.154647 
L 361.381797 249.512116 
L 362.034346 249.512116 
L 362.686895 237.154647 
L 363.339444 259.968436 
L 363.991992 264.721309 
L 364.644541 257.116713 
L 365.29709 266.622458 
L 365.949639 296.090269 
L 366.602188 303.694865 
L 367.254736 306.546589 
L 367.907285 307.497163 
L 368.559834 307.497163 
L 372.475127 301.793716 
L 373.127676 299.892567 
L 373.780224 298.941992 
L 374.432773 297.040843 
L 375.085322 291.337396 
L 376.390419 295.139694 
L 377.042968 291.337396 
L 377.695517 289.436247 
L 379.000615 287.535098 
L 379.653163 292.287971 
L 380.305712 294.18912 
L 380.958261 291.337396 
L 381.61081 271.375331 
L 382.263359 297.040843 
L 382.915907 288.485672 
L 383.568456 292.287971 
L 384.221005 293.238545 
L 385.526103 279.930502 
L 386.178651 270.424756 
L 386.8312 289.436247 
L 387.483749 286.584523 
L 388.136298 292.287971 
L 388.788847 287.535098 
L 389.441395 289.436247 
L 390.093944 278.979927 
L 390.746493 275.177629 
L 391.399042 286.584523 
L 392.05159 283.7328 
L 392.704139 273.27648 
L 393.356688 301.793716 
L 394.009237 305.596014 
L 394.661786 304.64544 
L 395.314334 304.64544 
L 396.619432 302.744291 
L 397.271981 300.843141 
L 398.577078 298.941992 
L 399.882176 295.139694 
L 400.534725 294.18912 
L 401.187274 292.287971 
L 401.839822 291.337396 
L 402.492371 289.436247 
L 403.14492 285.633949 
L 403.797469 297.040843 
L 404.450018 291.337396 
L 405.102566 287.535098 
L 405.755115 286.584523 
L 406.407664 291.337396 
L 407.060213 293.238545 
L 407.712761 276.128203 
L 408.36531 296.090269 
L 409.017859 291.337396 
L 409.670408 295.139694 
L 410.322957 278.029353 
L 410.975505 281.831651 
L 411.628054 288.485672 
L 412.280603 278.979927 
L 412.933152 275.177629 
L 413.585701 278.029353 
L 414.238249 265.671883 
L 414.890798 263.770734 
L 415.543347 260.919011 
L 416.195896 250.462691 
L 416.848445 258.067287 
L 417.500993 249.512116 
L 418.153542 254.264989 
L 418.806091 246.660393 
L 419.45864 253.314414 
L 420.111189 245.709818 
L 420.763737 240.006371 
L 421.416286 263.770734 
L 422.068835 296.090269 
L 422.721384 307.497163 
L 423.373932 308.447738 
L 424.67903 306.546589 
L 425.331579 306.546589 
L 429.246872 300.843141 
L 429.89942 298.941992 
L 430.551969 294.18912 
L 431.204518 281.831651 
L 431.857067 297.040843 
L 432.509616 292.287971 
L 433.814713 288.485672 
L 434.467262 289.436247 
L 435.119811 292.287971 
L 435.77236 291.337396 
L 436.424908 280.881076 
L 437.077457 290.386822 
L 437.730006 276.128203 
L 438.382555 275.177629 
L 439.035104 278.029353 
L 439.687652 272.325905 
L 440.340201 275.177629 
L 440.99275 265.671883 
L 441.645299 270.424756 
L 442.297847 271.375331 
L 442.950396 267.573033 
L 443.602945 250.462691 
L 444.255494 258.067287 
L 444.908043 259.968436 
L 446.21314 267.573033 
L 447.518238 240.956945 
L 448.170787 240.006371 
L 448.823335 235.253498 
L 449.475884 231.4512 
L 450.128433 237.154647 
L 450.780982 179.1696 
L 451.433531 236.204073 
L 452.086079 254.264989 
L 452.738628 252.36384 
L 453.391177 255.215564 
L 454.043726 240.006371 
L 454.696275 266.622458 
L 455.348823 266.622458 
L 456.001372 285.633949 
L 456.653921 285.633949 
L 457.30647 287.535098 
L 457.959018 283.7328 
L 458.611567 289.436247 
L 459.264116 285.633949 
L 459.916665 284.683374 
L 460.569214 285.633949 
L 461.221762 284.683374 
L 461.874311 285.633949 
L 462.52686 248.561542 
L 462.52686 248.561542 
" style="fill:none;stroke:#ff7f0e;stroke-linecap:square;stroke-width:1.5;"/>
   </g>
   <g id="line2d_16">
    <path clip-path="url(#p613b743bf0)" d="M 113.46546 280.881076 
L 114.118009 285.633949 
L 114.770558 304.64544 
L 115.423107 312.250036 
L 116.075655 301.793716 
L 116.728204 295.139694 
L 117.380753 292.287971 
L 118.033302 280.881076 
L 118.68585 283.7328 
L 119.338399 295.139694 
L 119.990948 293.238545 
L 120.643497 293.238545 
L 121.296046 292.287971 
L 121.948594 292.287971 
L 123.253692 290.386822 
L 123.906241 290.386822 
L 124.55879 285.633949 
L 125.211338 290.386822 
L 125.863887 287.535098 
L 126.516436 301.793716 
L 127.168985 294.18912 
L 127.821534 290.386822 
L 128.474082 288.485672 
L 130.431729 285.633949 
L 131.084278 288.485672 
L 131.736826 285.633949 
L 133.041924 291.337396 
L 133.694473 287.535098 
L 134.347021 284.683374 
L 134.99957 288.485672 
L 135.652119 285.633949 
L 136.304668 284.683374 
L 136.957217 292.287971 
L 137.609765 287.535098 
L 138.262314 285.633949 
L 138.914863 281.831651 
L 139.567412 294.18912 
L 140.219961 277.078778 
L 140.872509 273.27648 
L 141.525058 294.18912 
L 142.177607 289.436247 
L 142.830156 279.930502 
L 143.482705 279.930502 
L 144.135253 277.078778 
L 144.787802 283.7328 
L 145.440351 276.128203 
L 146.0929 278.029353 
L 146.745449 265.671883 
L 147.397997 262.82016 
L 148.050546 267.573033 
L 148.703095 260.919011 
L 149.355644 264.721309 
L 150.008193 251.413265 
L 150.660741 255.215564 
L 151.31329 252.36384 
L 151.965839 256.166138 
L 152.618388 259.017862 
L 153.270936 312.250036 
L 153.923485 296.090269 
L 154.576034 306.546589 
L 155.228583 307.497163 
L 155.881132 307.497163 
L 159.143876 302.744291 
L 159.796424 299.892567 
L 161.101522 290.386822 
L 161.754071 290.386822 
L 162.40662 301.793716 
L 163.059168 297.040843 
L 163.711717 294.18912 
L 164.364266 292.287971 
L 165.016815 292.287971 
L 165.669364 302.744291 
L 166.321912 302.744291 
L 166.974461 296.090269 
L 167.62701 287.535098 
L 168.279559 281.831651 
L 168.932107 282.782225 
L 169.584656 293.238545 
L 170.889754 279.930502 
L 171.542303 287.535098 
L 172.8474 273.27648 
L 173.499949 290.386822 
L 174.152498 280.881076 
L 174.805047 276.128203 
L 175.457595 280.881076 
L 176.110144 276.128203 
L 176.762693 277.078778 
L 177.415242 282.782225 
L 178.067791 275.177629 
L 178.720339 279.930502 
L 179.372888 280.881076 
L 180.025437 304.64544 
L 180.677986 309.398312 
L 181.330535 307.497163 
L 181.983083 307.497163 
L 182.635632 306.546589 
L 183.288181 306.546589 
L 183.94073 304.64544 
L 185.898376 301.793716 
L 186.550925 299.892567 
L 187.856022 297.991418 
L 189.16112 294.18912 
L 189.813669 291.337396 
L 190.466218 287.535098 
L 191.118766 295.139694 
L 191.771315 291.337396 
L 192.423864 288.485672 
L 193.076413 288.485672 
L 193.728962 275.177629 
L 194.38151 296.090269 
L 195.034059 288.485672 
L 195.686608 290.386822 
L 196.339157 281.831651 
L 196.991706 295.139694 
L 197.644254 282.782225 
L 198.296803 280.881076 
L 198.949352 283.7328 
L 199.601901 279.930502 
L 200.254449 273.27648 
L 200.906998 275.177629 
L 201.559547 272.325905 
L 202.212096 272.325905 
L 202.864645 264.721309 
L 203.517193 267.573033 
L 204.169742 280.881076 
L 204.822291 266.622458 
L 205.47484 263.770734 
L 206.127389 225.747753 
L 206.779937 267.573033 
L 207.432486 276.128203 
L 208.085035 250.462691 
L 208.737584 279.930502 
L 209.390133 270.424756 
L 210.042681 265.671883 
L 210.69523 270.424756 
L 211.347779 284.683374 
L 212.000328 286.584523 
L 212.652877 284.683374 
L 213.305425 274.227054 
L 213.957974 275.177629 
L 214.610523 267.573033 
L 215.915621 285.633949 
L 216.568169 288.485672 
L 217.220718 285.633949 
L 217.873267 276.128203 
L 218.525816 285.633949 
L 219.178364 277.078778 
L 219.830913 286.584523 
L 220.483462 288.485672 
L 221.136011 276.128203 
L 221.78856 303.694865 
L 222.441108 304.64544 
L 224.398755 301.793716 
L 225.051304 299.892567 
L 225.703852 299.892567 
L 226.356401 297.991418 
L 227.00895 297.040843 
L 227.661499 295.139694 
L 228.314048 294.18912 
L 229.619145 288.485672 
L 230.271694 281.831651 
L 230.924243 298.941992 
L 231.576792 294.18912 
L 232.881889 288.485672 
L 234.186987 286.584523 
L 234.839535 292.287971 
L 235.492084 294.18912 
L 236.144633 286.584523 
L 236.797182 288.485672 
L 237.449731 286.584523 
L 238.102279 292.287971 
L 238.754828 290.386822 
L 239.407377 294.18912 
L 240.059926 274.227054 
L 241.365023 290.386822 
L 242.017572 281.831651 
L 242.670121 279.930502 
L 243.32267 290.386822 
L 243.975219 259.968436 
L 245.280316 274.227054 
L 245.932865 267.573033 
L 246.585414 259.017862 
L 247.237963 275.177629 
L 247.890511 262.82016 
L 248.54306 271.375331 
L 249.848158 260.919011 
L 250.500706 267.573033 
L 251.153255 270.424756 
L 251.805804 265.671883 
L 252.458353 268.523607 
L 253.110902 270.424756 
L 253.76345 252.36384 
L 254.415999 258.067287 
L 255.068548 258.067287 
L 255.721097 242.858095 
L 256.373646 281.831651 
L 257.026194 262.82016 
L 257.678743 276.128203 
L 258.331292 257.116713 
L 259.63639 257.116713 
L 260.288938 269.474182 
L 260.941487 265.671883 
L 261.594036 280.881076 
L 262.246585 285.633949 
L 262.899134 272.325905 
L 264.204231 259.968436 
L 264.85678 275.177629 
L 265.509329 272.325905 
L 266.161878 271.375331 
L 266.814426 280.881076 
L 267.466975 272.325905 
L 268.119524 273.27648 
L 268.772073 281.831651 
L 269.424621 265.671883 
L 270.07717 278.979927 
L 270.729719 306.546589 
L 271.382268 307.497163 
L 272.687365 305.596014 
L 273.339914 303.694865 
L 273.992463 303.694865 
L 275.950109 300.843141 
L 276.602658 298.941992 
L 277.255207 297.991418 
L 278.560305 294.18912 
L 279.212853 293.238545 
L 279.865402 289.436247 
L 280.517951 295.139694 
L 281.1705 295.139694 
L 281.823049 291.337396 
L 282.475597 288.485672 
L 283.128146 292.287971 
L 283.780695 285.633949 
L 284.433244 275.177629 
L 285.085792 295.139694 
L 285.738341 285.633949 
L 286.39089 292.287971 
L 287.043439 276.128203 
L 287.695988 285.633949 
L 288.348536 269.474182 
L 289.001085 278.979927 
L 289.653634 274.227054 
L 290.306183 267.573033 
L 290.958732 281.831651 
L 291.61128 268.523607 
L 292.263829 273.27648 
L 292.916378 266.622458 
L 293.568927 275.177629 
L 294.874024 261.869585 
L 295.526573 265.671883 
L 296.179122 264.721309 
L 297.48422 276.128203 
L 298.136768 286.584523 
L 298.789317 269.474182 
L 299.441866 278.029353 
L 300.094415 267.573033 
L 300.746963 276.128203 
L 301.399512 277.078778 
L 302.052061 276.128203 
L 302.70461 271.375331 
L 303.357159 263.770734 
L 304.009707 279.930502 
L 304.662256 313.200611 
L 305.314805 308.447738 
L 305.967354 308.447738 
L 310.535195 301.793716 
L 311.840293 297.991418 
L 312.492842 293.238545 
L 313.145391 287.535098 
L 313.797939 299.892567 
L 314.450488 294.18912 
L 315.103037 290.386822 
L 315.755586 288.485672 
L 317.060683 286.584523 
L 317.713232 291.337396 
L 319.01833 287.535098 
L 319.670878 291.337396 
L 320.323427 275.177629 
L 320.975976 280.881076 
L 321.628525 280.881076 
L 322.281074 275.177629 
L 322.933622 279.930502 
L 323.586171 275.177629 
L 324.23872 268.523607 
L 324.891269 255.215564 
L 325.543818 261.869585 
L 326.196366 276.128203 
L 326.848915 273.27648 
L 327.501464 240.956945 
L 328.806562 259.968436 
L 329.45911 239.055796 
L 330.111659 245.709818 
L 330.764208 249.512116 
L 331.416757 231.4512 
L 332.069306 234.302924 
L 332.721854 292.287971 
L 334.026952 309.398312 
L 334.679501 308.447738 
L 335.332049 308.447738 
L 340.55244 300.843141 
L 341.204989 298.941992 
L 341.857537 297.991418 
L 342.510086 292.287971 
L 343.162635 283.7328 
L 343.815184 296.090269 
L 344.467733 291.337396 
L 345.120281 288.485672 
L 345.77283 288.485672 
L 346.425379 275.177629 
L 347.077928 296.090269 
L 347.730477 275.177629 
L 348.383025 293.238545 
L 349.035574 278.979927 
L 349.688123 275.177629 
L 350.340672 270.424756 
L 350.99322 264.721309 
L 351.645769 267.573033 
L 352.298318 255.215564 
L 352.950867 274.227054 
L 353.603416 270.424756 
L 354.255964 259.968436 
L 354.908513 275.177629 
L 355.561062 267.573033 
L 356.213611 265.671883 
L 356.86616 264.721309 
L 357.518708 275.177629 
L 358.171257 263.770734 
L 358.823806 278.029353 
L 359.476355 278.979927 
L 360.128904 270.424756 
L 360.781452 259.968436 
L 361.434001 259.017862 
L 362.08655 265.671883 
L 362.739099 239.055796 
L 364.044196 267.573033 
L 364.696745 260.919011 
L 366.001843 264.721309 
L 366.654391 301.793716 
L 367.30694 306.546589 
L 367.959489 307.497163 
L 368.612038 307.497163 
L 369.264587 306.546589 
L 369.917135 306.546589 
L 370.569684 304.64544 
L 371.874782 302.744291 
L 372.527331 300.843141 
L 373.832428 298.941992 
L 374.484977 297.040843 
L 375.790075 286.584523 
L 376.442623 295.139694 
L 377.747721 289.436247 
L 378.40027 288.485672 
L 379.052819 288.485672 
L 379.705367 261.869585 
L 380.357916 297.991418 
L 381.010465 292.287971 
L 381.663014 278.979927 
L 382.315562 297.040843 
L 382.968111 287.535098 
L 383.62066 286.584523 
L 384.273209 293.238545 
L 384.925758 286.584523 
L 385.578306 288.485672 
L 386.230855 285.633949 
L 386.883404 296.090269 
L 387.535953 277.078778 
L 388.188502 294.18912 
L 388.84105 287.535098 
L 389.493599 289.436247 
L 390.146148 278.979927 
L 390.798697 287.535098 
L 391.451246 286.584523 
L 392.103794 292.287971 
L 392.756343 287.535098 
L 393.408892 305.596014 
L 394.71399 305.596014 
L 396.671636 302.744291 
L 397.324185 300.843141 
L 398.629282 298.941992 
L 399.281831 297.040843 
L 399.93438 296.090269 
L 400.586929 294.18912 
L 401.239477 293.238545 
L 402.544575 289.436247 
L 403.197124 289.436247 
L 403.849673 296.090269 
L 404.502221 291.337396 
L 405.15477 287.535098 
L 405.807319 286.584523 
L 406.459868 292.287971 
L 407.112417 293.238545 
L 407.764965 278.979927 
L 408.417514 294.18912 
L 409.070063 275.177629 
L 409.722612 293.238545 
L 410.375161 276.128203 
L 411.027709 267.573033 
L 411.680258 273.27648 
L 412.332807 272.325905 
L 412.985356 279.930502 
L 413.637905 275.177629 
L 414.290453 262.82016 
L 414.943002 260.919011 
L 415.595551 256.166138 
L 416.2481 253.314414 
L 416.900648 260.919011 
L 417.553197 212.439709 
L 418.205746 255.215564 
L 418.858295 253.314414 
L 419.510844 249.512116 
L 420.163392 246.660393 
L 420.815941 240.006371 
L 421.46849 296.090269 
L 422.121039 296.090269 
L 422.773588 307.497163 
L 424.078685 307.497163 
L 424.731234 306.546589 
L 425.383783 306.546589 
L 427.993978 302.744291 
L 428.646527 300.843141 
L 429.951624 298.941992 
L 430.604173 293.238545 
L 431.256722 292.287971 
L 431.909271 296.090269 
L 432.561819 292.287971 
L 433.214368 289.436247 
L 433.866917 288.485672 
L 434.519466 289.436247 
L 435.172015 278.979927 
L 435.824563 289.436247 
L 436.477112 269.474182 
L 437.129661 278.029353 
L 437.78221 260.919011 
L 438.434759 273.27648 
L 439.087307 271.375331 
L 439.739856 263.770734 
L 440.392405 250.462691 
L 441.044954 272.325905 
L 441.697503 267.573033 
L 442.350051 265.671883 
L 443.0026 266.622458 
L 443.655149 247.610967 
L 444.307698 261.869585 
L 444.960247 268.523607 
L 445.612795 265.671883 
L 446.265344 271.375331 
L 446.917893 259.968436 
L 447.570442 255.215564 
L 448.22299 252.36384 
L 448.875539 245.709818 
L 449.528088 242.858095 
L 450.180637 256.166138 
L 450.833186 202.933964 
L 451.485734 240.006371 
L 452.138283 268.523607 
L 452.790832 243.808669 
L 453.443381 258.067287 
L 454.09593 266.622458 
L 454.748478 271.375331 
L 455.401027 274.227054 
L 456.053576 285.633949 
L 456.706125 259.968436 
L 457.358674 275.177629 
L 458.011222 270.424756 
L 458.663771 289.436247 
L 459.31632 284.683374 
L 462.579064 284.683374 
L 463.231613 286.584523 
L 463.884162 284.683374 
L 464.53671 286.584523 
L 465.189259 271.375331 
L 465.189259 271.375331 
" style="fill:none;stroke:#2ca02c;stroke-linecap:square;stroke-width:1.5;"/>
   </g>
   <g id="line2d_17">
    <path clip-path="url(#p613b743bf0)" d="M 118.662359 276.128203 
L 119.314908 295.139694 
L 119.967456 292.287971 
L 120.620005 292.287971 
L 123.2302 288.485672 
L 123.882749 288.485672 
L 124.535298 283.7328 
L 125.187847 289.436247 
L 125.840395 275.177629 
L 126.492944 297.040843 
L 127.145493 294.18912 
L 127.798042 289.436247 
L 128.450591 287.535098 
L 129.755688 285.633949 
L 130.408237 278.979927 
L 131.060786 287.535098 
L 131.713335 284.683374 
L 132.365883 288.485672 
L 133.018432 290.386822 
L 133.670981 286.584523 
L 134.32353 284.683374 
L 134.976079 280.881076 
L 135.628627 284.683374 
L 136.281176 283.7328 
L 136.933725 292.287971 
L 137.586274 287.535098 
L 138.238822 284.683374 
L 138.891371 287.535098 
L 139.54392 297.040843 
L 140.196469 285.633949 
L 140.849018 280.881076 
L 141.501566 294.18912 
L 142.154115 282.782225 
L 142.806664 287.535098 
L 143.459213 282.782225 
L 144.111762 291.337396 
L 144.76431 283.7328 
L 145.416859 281.831651 
L 146.069408 280.881076 
L 146.721957 267.573033 
L 147.374506 284.683374 
L 148.027054 278.029353 
L 148.679603 279.930502 
L 149.332152 284.683374 
L 149.984701 292.287971 
L 150.63725 282.782225 
L 151.289798 278.979927 
L 151.942347 291.337396 
L 152.594896 283.7328 
L 153.247445 314.151185 
L 153.899994 300.843141 
L 154.552542 306.546589 
L 155.205091 308.447738 
L 159.120384 302.744291 
L 160.425481 295.139694 
L 161.07803 289.436247 
L 161.730579 271.375331 
L 162.383128 301.793716 
L 163.035677 296.090269 
L 163.688225 293.238545 
L 164.340774 291.337396 
L 164.993323 290.386822 
L 165.645872 301.793716 
L 166.298421 303.694865 
L 166.950969 297.991418 
L 167.603518 287.535098 
L 168.256067 291.337396 
L 168.908616 279.930502 
L 169.561165 294.18912 
L 170.213713 288.485672 
L 170.866262 289.436247 
L 171.518811 283.7328 
L 172.17136 284.683374 
L 172.823908 283.7328 
L 173.476457 291.337396 
L 174.129006 288.485672 
L 174.781555 283.7328 
L 175.434104 282.782225 
L 176.086652 290.386822 
L 176.739201 280.881076 
L 177.39175 289.436247 
L 178.044299 282.782225 
L 178.696848 280.881076 
L 179.349396 293.238545 
L 180.001945 320.805207 
L 180.654494 310.348887 
L 181.307043 308.447738 
L 182.61214 306.546589 
L 183.264689 306.546589 
L 183.917238 304.64544 
L 185.222336 302.744291 
L 186.527433 298.941992 
L 187.179982 297.991418 
L 187.832531 296.090269 
L 188.485079 295.139694 
L 189.137628 293.238545 
L 189.790177 289.436247 
L 190.442726 281.831651 
L 191.095275 294.18912 
L 191.747823 289.436247 
L 192.400372 286.584523 
L 193.052921 285.633949 
L 193.70547 285.633949 
L 194.358019 295.139694 
L 195.010567 287.535098 
L 195.663116 289.436247 
L 196.315665 283.7328 
L 196.968214 295.139694 
L 197.620763 284.683374 
L 198.273311 288.485672 
L 198.92586 280.881076 
L 199.578409 284.683374 
L 200.230958 282.782225 
L 200.883507 278.029353 
L 201.536055 278.029353 
L 202.188604 275.177629 
L 202.841153 283.7328 
L 203.493702 288.485672 
L 204.14625 283.7328 
L 204.798799 251.413265 
L 205.451348 284.683374 
L 206.103897 281.831651 
L 206.756446 283.7328 
L 207.408994 282.782225 
L 208.061543 48.940888 
L 208.714092 298.941992 
L 209.366641 296.090269 
L 210.01919 273.27648 
L 210.671738 295.139694 
L 211.324287 291.337396 
L 211.976836 291.337396 
L 213.281934 285.633949 
L 213.934482 286.584523 
L 214.587031 285.633949 
L 215.892129 285.633949 
L 216.544678 282.782225 
L 217.197226 286.584523 
L 219.154873 286.584523 
L 219.807422 279.930502 
L 220.45997 288.485672 
L 221.112519 284.683374 
L 221.765068 318.904058 
L 222.417617 304.64544 
L 223.722714 302.744291 
L 224.375263 300.843141 
L 225.027812 299.892567 
L 225.680361 297.991418 
L 226.332909 297.040843 
L 227.638007 293.238545 
L 228.290556 292.287971 
L 228.943105 289.436247 
L 229.595653 278.029353 
L 230.248202 277.078778 
L 230.900751 297.991418 
L 231.5533 292.287971 
L 232.858397 286.584523 
L 233.510946 285.633949 
L 234.163495 283.7328 
L 235.468593 295.139694 
L 236.77369 276.128203 
L 237.426239 286.584523 
L 238.078788 292.287971 
L 238.731336 282.782225 
L 239.383885 295.139694 
L 240.036434 277.078778 
L 240.688983 286.584523 
L 241.341532 292.287971 
L 241.99408 284.683374 
L 242.646629 283.7328 
L 243.299178 292.287971 
L 243.951727 276.128203 
L 244.604276 262.82016 
L 245.256824 279.930502 
L 245.909373 265.671883 
L 247.214471 281.831651 
L 247.86702 296.090269 
L 248.519568 278.029353 
L 249.172117 284.683374 
L 249.824666 268.523607 
L 250.477215 277.078778 
L 251.129764 292.287971 
L 251.782312 291.337396 
L 252.434861 246.660393 
L 253.08741 294.18912 
L 253.739959 240.006371 
L 255.045056 299.892567 
L 255.697605 261.869585 
L 256.350154 302.744291 
L 257.002703 282.782225 
L 257.655251 289.436247 
L 258.3078 289.436247 
L 258.960349 282.782225 
L 259.612898 292.287971 
L 260.265447 275.177629 
L 261.570544 285.633949 
L 262.223093 286.584523 
L 262.875642 280.881076 
L 263.528191 285.633949 
L 264.180739 293.238545 
L 264.833288 278.029353 
L 266.138386 293.238545 
L 266.790935 283.7328 
L 267.443483 290.386822 
L 268.096032 280.881076 
L 268.748581 281.831651 
L 269.40113 307.497163 
L 270.053678 315.10176 
L 270.706227 308.447738 
L 274.62152 302.744291 
L 275.274069 300.843141 
L 275.926618 299.892567 
L 276.579166 297.991418 
L 277.231715 297.040843 
L 279.189362 291.337396 
L 279.84191 287.535098 
L 280.494459 280.881076 
L 281.147008 294.18912 
L 281.799557 289.436247 
L 282.452106 286.584523 
L 283.104654 291.337396 
L 284.409752 278.029353 
L 285.062301 296.090269 
L 285.71485 284.683374 
L 286.367398 293.238545 
L 287.019947 286.584523 
L 287.672496 284.683374 
L 288.325045 278.029353 
L 288.977593 283.7328 
L 289.630142 275.177629 
L 290.282691 272.325905 
L 290.93524 293.238545 
L 291.587789 281.831651 
L 292.240337 287.535098 
L 292.892886 280.881076 
L 293.545435 286.584523 
L 294.197984 268.523607 
L 294.850533 285.633949 
L 295.503081 285.633949 
L 296.15563 298.941992 
L 296.808179 296.090269 
L 297.460728 279.930502 
L 298.113277 292.287971 
L 298.765825 276.128203 
L 299.418374 287.535098 
L 300.070923 289.436247 
L 300.723472 283.7328 
L 301.376021 283.7328 
L 302.028569 288.485672 
L 302.681118 283.7328 
L 303.333667 278.029353 
L 303.986216 311.299461 
L 304.638764 315.10176 
L 305.291313 309.398312 
L 305.943862 309.398312 
L 306.596411 308.447738 
L 307.24896 306.546589 
L 307.901508 305.596014 
L 308.554057 303.694865 
L 309.206606 303.694865 
L 309.859155 301.793716 
L 310.511704 300.843141 
L 311.816801 297.040843 
L 312.46935 292.287971 
L 313.121899 286.584523 
L 313.774448 284.683374 
L 314.426996 292.287971 
L 315.079545 288.485672 
L 316.384643 284.683374 
L 317.037192 283.7328 
L 317.68974 288.485672 
L 318.342289 282.782225 
L 318.994838 288.485672 
L 319.647387 285.633949 
L 320.299935 287.535098 
L 320.952484 286.584523 
L 322.257582 277.078778 
L 323.562679 284.683374 
L 324.215228 276.128203 
L 324.867777 261.869585 
L 325.520326 276.128203 
L 326.172875 281.831651 
L 326.825423 280.881076 
L 327.477972 274.227054 
L 328.130521 281.831651 
L 328.78307 286.584523 
L 329.435619 285.633949 
L 330.088167 267.573033 
L 330.740716 280.881076 
L 331.393265 223.846604 
L 332.045814 290.386822 
L 332.698363 285.633949 
L 333.350911 307.497163 
L 334.00346 311.299461 
L 334.656009 309.398312 
L 335.308558 309.398312 
L 335.961106 307.497163 
L 337.918753 304.64544 
L 338.571302 302.744291 
L 341.181497 298.941992 
L 341.834046 297.040843 
L 342.486594 291.337396 
L 343.139143 282.782225 
L 343.791692 294.18912 
L 344.444241 289.436247 
L 345.09679 286.584523 
L 345.749338 285.633949 
L 346.401887 285.633949 
L 347.054436 297.040843 
L 347.706985 280.881076 
L 348.359534 293.238545 
L 349.012082 278.979927 
L 349.664631 272.325905 
L 350.969729 281.831651 
L 351.622278 280.881076 
L 352.274826 277.078778 
L 352.927375 289.436247 
L 353.579924 291.337396 
L 354.232473 272.325905 
L 354.885021 295.139694 
L 355.53757 282.782225 
L 356.190119 290.386822 
L 356.842668 271.375331 
L 357.495217 281.831651 
L 358.800314 289.436247 
L 359.452863 294.18912 
L 360.105412 287.535098 
L 360.757961 288.485672 
L 361.410509 281.831651 
L 362.063058 278.979927 
L 362.715607 285.633949 
L 363.368156 298.941992 
L 364.020705 280.881076 
L 364.673253 295.139694 
L 365.325802 271.375331 
L 365.978351 319.854632 
L 366.6309 304.64544 
L 367.283449 308.447738 
L 367.935997 307.497163 
L 368.588546 307.497163 
L 371.85129 302.744291 
L 373.156388 298.941992 
L 373.808936 297.991418 
L 374.461485 296.090269 
L 375.766583 282.782225 
L 376.419132 293.238545 
L 377.07168 289.436247 
L 377.724229 287.535098 
L 379.681876 284.683374 
L 380.334424 297.040843 
L 380.986973 291.337396 
L 381.639522 276.128203 
L 382.292071 297.040843 
L 382.94462 287.535098 
L 383.597168 281.831651 
L 384.249717 293.238545 
L 384.902266 285.633949 
L 385.554815 280.881076 
L 386.207363 278.029353 
L 386.859912 296.090269 
L 387.512461 280.881076 
L 388.16501 294.18912 
L 388.817559 281.831651 
L 389.470107 289.436247 
L 390.122656 280.881076 
L 390.775205 281.831651 
L 391.427754 287.535098 
L 392.080303 287.535098 
L 392.732851 282.782225 
L 393.3854 318.904058 
L 394.037949 305.596014 
L 394.690498 304.64544 
L 395.343047 304.64544 
L 395.995595 303.694865 
L 397.300693 299.892567 
L 398.605791 297.991418 
L 399.910888 294.18912 
L 400.563437 293.238545 
L 403.173632 285.633949 
L 403.826181 294.18912 
L 404.47873 289.436247 
L 405.131278 285.633949 
L 405.783827 283.7328 
L 406.436376 278.029353 
L 407.088925 293.238545 
L 407.741474 280.881076 
L 408.394022 295.139694 
L 409.046571 278.979927 
L 409.69912 294.18912 
L 410.351669 278.979927 
L 411.004218 281.831651 
L 411.656766 290.386822 
L 412.309315 277.078778 
L 412.961864 282.782225 
L 413.614413 278.029353 
L 414.266962 271.375331 
L 414.91951 276.128203 
L 415.572059 281.831651 
L 416.224608 293.238545 
L 417.529706 278.029353 
L 418.182254 293.238545 
L 418.834803 266.622458 
L 419.487352 298.941992 
L 420.139901 272.325905 
L 420.792449 288.485672 
L 421.444998 285.633949 
L 422.097547 298.941992 
L 422.750096 309.398312 
L 423.402645 308.447738 
L 424.055193 308.447738 
L 424.707742 306.546589 
L 425.360291 306.546589 
L 427.317937 303.694865 
L 427.970486 301.793716 
L 429.275584 299.892567 
L 429.928133 297.991418 
L 430.580681 292.287971 
L 431.23323 279.930502 
L 431.885779 295.139694 
L 432.538328 290.386822 
L 433.190877 287.535098 
L 433.843425 286.584523 
L 434.495974 287.535098 
L 435.148523 286.584523 
L 435.801072 290.386822 
L 436.45362 281.831651 
L 437.106169 282.782225 
L 437.758718 286.584523 
L 438.411267 282.782225 
L 439.063816 276.128203 
L 439.716364 278.979927 
L 440.368913 278.029353 
L 441.021462 285.633949 
L 442.32656 285.633949 
L 442.979108 287.535098 
L 443.631657 262.82016 
L 444.936755 299.892567 
L 445.589304 284.683374 
L 446.241852 286.584523 
L 446.894401 278.029353 
L 447.54695 281.831651 
L 448.199499 266.622458 
L 448.852048 263.770734 
L 449.504596 298.941992 
L 450.157145 284.683374 
L 450.809694 286.584523 
L 451.462243 278.979927 
L 452.114791 284.683374 
L 452.76734 296.090269 
L 453.419889 279.930502 
L 454.724987 297.040843 
L 455.377535 295.139694 
L 456.030084 287.535098 
L 456.682633 289.436247 
L 457.335182 282.782225 
L 457.987731 284.683374 
L 458.640279 291.337396 
L 459.292828 287.535098 
L 459.945377 286.584523 
L 460.597926 284.683374 
L 461.250475 285.633949 
L 462.555572 285.633949 
L 463.208121 287.535098 
L 463.86067 285.633949 
L 464.513219 286.584523 
L 465.165767 284.683374 
L 465.818316 284.683374 
L 466.470865 291.337396 
L 467.123414 293.238545 
L 467.775963 281.831651 
L 468.428511 317.002909 
L 469.08106 303.694865 
L 470.386158 301.793716 
L 470.386158 301.793716 
" style="fill:none;stroke:#d62728;stroke-linecap:square;stroke-width:1.5;"/>
   </g>
   <g id="patch_3">
    <path d="M 92.823906 352.174167 
L 92.823906 35.0625 
" style="fill:none;stroke:#000000;stroke-linecap:square;stroke-linejoin:miter;stroke-width:0.8;"/>
   </g>
   <g id="patch_4">
    <path d="M 488.365312 352.174167 
L 488.365312 35.0625 
" style="fill:none;stroke:#000000;stroke-linecap:square;stroke-linejoin:miter;stroke-width:0.8;"/>
   </g>
   <g id="patch_5">
    <path d="M 92.823906 352.174167 
L 488.365312 352.174167 
" style="fill:none;stroke:#000000;stroke-linecap:square;stroke-linejoin:miter;stroke-width:0.8;"/>
   </g>
   <g id="patch_6">
    <path d="M 92.823906 35.0625 
L 488.365312 35.0625 
" style="fill:none;stroke:#000000;stroke-linecap:square;stroke-linejoin:miter;stroke-width:0.8;"/>
   </g>
   <g id="legend_1">
    <g id="patch_7">
     <path d="M 510.142383 96.775 
L 609.212695 96.775 
Q 611.212695 96.775 611.212695 94.775 
L 611.212695 37.0625 
Q 611.212695 35.0625 609.212695 35.0625 
L 510.142383 35.0625 
Q 508.142383 35.0625 508.142383 37.0625 
L 508.142383 94.775 
Q 508.142383 96.775 510.142383 96.775 
z
" style="fill:#ffffff;opacity:0.8;stroke:#cccccc;stroke-linejoin:miter;"/>
    </g>
    <g id="line2d_18">
     <path d="M 512.142383 43.160937 
L 532.142383 43.160937 
" style="fill:none;stroke:#1f77b4;stroke-linecap:square;stroke-width:1.5;"/>
    </g>
    <g id="line2d_19"/>
    <g id="text_15">
     <!-- cubic-pi -->
     <defs>
      <path d="M 48.78125 52.59375 
L 48.78125 44.1875 
Q 44.96875 46.296875 41.140625 47.34375 
Q 37.3125 48.390625 33.40625 48.390625 
Q 24.65625 48.390625 19.8125 42.84375 
Q 14.984375 37.3125 14.984375 27.296875 
Q 14.984375 17.28125 19.8125 11.734375 
Q 24.65625 6.203125 33.40625 6.203125 
Q 37.3125 6.203125 41.140625 7.25 
Q 44.96875 8.296875 48.78125 10.40625 
L 48.78125 2.09375 
Q 45.015625 0.34375 40.984375 -0.53125 
Q 36.96875 -1.421875 32.421875 -1.421875 
Q 20.0625 -1.421875 12.78125 6.34375 
Q 5.515625 14.109375 5.515625 27.296875 
Q 5.515625 40.671875 12.859375 48.328125 
Q 20.21875 56 33.015625 56 
Q 37.15625 56 41.109375 55.140625 
Q 45.0625 54.296875 48.78125 52.59375 
z
" id="DejaVuSans-99"/>
      <path d="M 8.5 21.578125 
L 8.5 54.6875 
L 17.484375 54.6875 
L 17.484375 21.921875 
Q 17.484375 14.15625 20.5 10.265625 
Q 23.53125 6.390625 29.59375 6.390625 
Q 36.859375 6.390625 41.078125 11.03125 
Q 45.3125 15.671875 45.3125 23.6875 
L 45.3125 54.6875 
L 54.296875 54.6875 
L 54.296875 0 
L 45.3125 0 
L 45.3125 8.40625 
Q 42.046875 3.421875 37.71875 1 
Q 33.40625 -1.421875 27.6875 -1.421875 
Q 18.265625 -1.421875 13.375 4.4375 
Q 8.5 10.296875 8.5 21.578125 
z
M 31.109375 56 
z
" id="DejaVuSans-117"/>
      <path d="M 48.6875 27.296875 
Q 48.6875 37.203125 44.609375 42.84375 
Q 40.53125 48.484375 33.40625 48.484375 
Q 26.265625 48.484375 22.1875 42.84375 
Q 18.109375 37.203125 18.109375 27.296875 
Q 18.109375 17.390625 22.1875 11.75 
Q 26.265625 6.109375 33.40625 6.109375 
Q 40.53125 6.109375 44.609375 11.75 
Q 48.6875 17.390625 48.6875 27.296875 
z
M 18.109375 46.390625 
Q 20.953125 51.265625 25.265625 53.625 
Q 29.59375 56 35.59375 56 
Q 45.5625 56 51.78125 48.09375 
Q 58.015625 40.1875 58.015625 27.296875 
Q 58.015625 14.40625 51.78125 6.484375 
Q 45.5625 -1.421875 35.59375 -1.421875 
Q 29.59375 -1.421875 25.265625 0.953125 
Q 20.953125 3.328125 18.109375 8.203125 
L 18.109375 0 
L 9.078125 0 
L 9.078125 75.984375 
L 18.109375 75.984375 
z
" id="DejaVuSans-98"/>
      <path d="M 9.421875 54.6875 
L 18.40625 54.6875 
L 18.40625 0 
L 9.421875 0 
z
M 9.421875 75.984375 
L 18.40625 75.984375 
L 18.40625 64.59375 
L 9.421875 64.59375 
z
" id="DejaVuSans-105"/>
      <path d="M 4.890625 31.390625 
L 31.203125 31.390625 
L 31.203125 23.390625 
L 4.890625 23.390625 
z
" id="DejaVuSans-45"/>
      <path d="M 18.109375 8.203125 
L 18.109375 -20.796875 
L 9.078125 -20.796875 
L 9.078125 54.6875 
L 18.109375 54.6875 
L 18.109375 46.390625 
Q 20.953125 51.265625 25.265625 53.625 
Q 29.59375 56 35.59375 56 
Q 45.5625 56 51.78125 48.09375 
Q 58.015625 40.1875 58.015625 27.296875 
Q 58.015625 14.40625 51.78125 6.484375 
Q 45.5625 -1.421875 35.59375 -1.421875 
Q 29.59375 -1.421875 25.265625 0.953125 
Q 20.953125 3.328125 18.109375 8.203125 
z
M 48.6875 27.296875 
Q 48.6875 37.203125 44.609375 42.84375 
Q 40.53125 48.484375 33.40625 48.484375 
Q 26.265625 48.484375 22.1875 42.84375 
Q 18.109375 37.203125 18.109375 27.296875 
Q 18.109375 17.390625 22.1875 11.75 
Q 26.265625 6.109375 33.40625 6.109375 
Q 40.53125 6.109375 44.609375 11.75 
Q 48.6875 17.390625 48.6875 27.296875 
z
" id="DejaVuSans-112"/>
     </defs>
     <g transform="translate(540.142383 46.660937)scale(0.1 -0.1)">
      <use xlink:href="#DejaVuSans-99"/>
      <use x="54.980469" xlink:href="#DejaVuSans-117"/>
      <use x="118.359375" xlink:href="#DejaVuSans-98"/>
      <use x="181.835938" xlink:href="#DejaVuSans-105"/>
      <use x="209.619141" xlink:href="#DejaVuSans-99"/>
      <use x="264.599609" xlink:href="#DejaVuSans-45"/>
      <use x="300.683594" xlink:href="#DejaVuSans-112"/>
      <use x="364.160156" xlink:href="#DejaVuSans-105"/>
     </g>
    </g>
    <g id="line2d_20">
     <path d="M 512.142383 57.839063 
L 532.142383 57.839063 
" style="fill:none;stroke:#ff7f0e;stroke-linecap:square;stroke-width:1.5;"/>
    </g>
    <g id="line2d_21"/>
    <g id="text_16">
     <!-- bbrshallow-pi -->
     <defs>
      <path d="M 54.890625 33.015625 
L 54.890625 0 
L 45.90625 0 
L 45.90625 32.71875 
Q 45.90625 40.484375 42.875 44.328125 
Q 39.84375 48.1875 33.796875 48.1875 
Q 26.515625 48.1875 22.3125 43.546875 
Q 18.109375 38.921875 18.109375 30.90625 
L 18.109375 0 
L 9.078125 0 
L 9.078125 75.984375 
L 18.109375 75.984375 
L 18.109375 46.1875 
Q 21.34375 51.125 25.703125 53.5625 
Q 30.078125 56 35.796875 56 
Q 45.21875 56 50.046875 50.171875 
Q 54.890625 44.34375 54.890625 33.015625 
z
" id="DejaVuSans-104"/>
      <path d="M 34.28125 27.484375 
Q 23.390625 27.484375 19.1875 25 
Q 14.984375 22.515625 14.984375 16.5 
Q 14.984375 11.71875 18.140625 8.90625 
Q 21.296875 6.109375 26.703125 6.109375 
Q 34.1875 6.109375 38.703125 11.40625 
Q 43.21875 16.703125 43.21875 25.484375 
L 43.21875 27.484375 
z
M 52.203125 31.203125 
L 52.203125 0 
L 43.21875 0 
L 43.21875 8.296875 
Q 40.140625 3.328125 35.546875 0.953125 
Q 30.953125 -1.421875 24.3125 -1.421875 
Q 15.921875 -1.421875 10.953125 3.296875 
Q 6 8.015625 6 15.921875 
Q 6 25.140625 12.171875 29.828125 
Q 18.359375 34.515625 30.609375 34.515625 
L 43.21875 34.515625 
L 43.21875 35.40625 
Q 43.21875 41.609375 39.140625 45 
Q 35.0625 48.390625 27.6875 48.390625 
Q 23 48.390625 18.546875 47.265625 
Q 14.109375 46.140625 10.015625 43.890625 
L 10.015625 52.203125 
Q 14.9375 54.109375 19.578125 55.046875 
Q 24.21875 56 28.609375 56 
Q 40.484375 56 46.34375 49.84375 
Q 52.203125 43.703125 52.203125 31.203125 
z
" id="DejaVuSans-97"/>
      <path d="M 9.421875 75.984375 
L 18.40625 75.984375 
L 18.40625 0 
L 9.421875 0 
z
" id="DejaVuSans-108"/>
      <path d="M 30.609375 48.390625 
Q 23.390625 48.390625 19.1875 42.75 
Q 14.984375 37.109375 14.984375 27.296875 
Q 14.984375 17.484375 19.15625 11.84375 
Q 23.34375 6.203125 30.609375 6.203125 
Q 37.796875 6.203125 41.984375 11.859375 
Q 46.1875 17.53125 46.1875 27.296875 
Q 46.1875 37.015625 41.984375 42.703125 
Q 37.796875 48.390625 30.609375 48.390625 
z
M 30.609375 56 
Q 42.328125 56 49.015625 48.375 
Q 55.71875 40.765625 55.71875 27.296875 
Q 55.71875 13.875 49.015625 6.21875 
Q 42.328125 -1.421875 30.609375 -1.421875 
Q 18.84375 -1.421875 12.171875 6.21875 
Q 5.515625 13.875 5.515625 27.296875 
Q 5.515625 40.765625 12.171875 48.375 
Q 18.84375 56 30.609375 56 
z
" id="DejaVuSans-111"/>
      <path d="M 4.203125 54.6875 
L 13.1875 54.6875 
L 24.421875 12.015625 
L 35.59375 54.6875 
L 46.1875 54.6875 
L 57.421875 12.015625 
L 68.609375 54.6875 
L 77.59375 54.6875 
L 63.28125 0 
L 52.6875 0 
L 40.921875 44.828125 
L 29.109375 0 
L 18.5 0 
z
" id="DejaVuSans-119"/>
     </defs>
     <g transform="translate(540.142383 61.339063)scale(0.1 -0.1)">
      <use xlink:href="#DejaVuSans-98"/>
      <use x="63.476562" xlink:href="#DejaVuSans-98"/>
      <use x="126.953125" xlink:href="#DejaVuSans-114"/>
      <use x="168.066406" xlink:href="#DejaVuSans-115"/>
      <use x="220.166016" xlink:href="#DejaVuSans-104"/>
      <use x="283.544922" xlink:href="#DejaVuSans-97"/>
      <use x="344.824219" xlink:href="#DejaVuSans-108"/>
      <use x="372.607422" xlink:href="#DejaVuSans-108"/>
      <use x="400.390625" xlink:href="#DejaVuSans-111"/>
      <use x="461.572266" xlink:href="#DejaVuSans-119"/>
      <use x="543.359375" xlink:href="#DejaVuSans-45"/>
      <use x="579.443359" xlink:href="#DejaVuSans-112"/>
      <use x="642.919922" xlink:href="#DejaVuSans-105"/>
     </g>
    </g>
    <g id="line2d_22">
     <path d="M 512.142383 72.517187 
L 532.142383 72.517187 
" style="fill:none;stroke:#2ca02c;stroke-linecap:square;stroke-width:1.5;"/>
    </g>
    <g id="line2d_23"/>
    <g id="text_17">
     <!-- bbrshallow-pi -->
     <g transform="translate(540.142383 76.017187)scale(0.1 -0.1)">
      <use xlink:href="#DejaVuSans-98"/>
      <use x="63.476562" xlink:href="#DejaVuSans-98"/>
      <use x="126.953125" xlink:href="#DejaVuSans-114"/>
      <use x="168.066406" xlink:href="#DejaVuSans-115"/>
      <use x="220.166016" xlink:href="#DejaVuSans-104"/>
      <use x="283.544922" xlink:href="#DejaVuSans-97"/>
      <use x="344.824219" xlink:href="#DejaVuSans-108"/>
      <use x="372.607422" xlink:href="#DejaVuSans-108"/>
      <use x="400.390625" xlink:href="#DejaVuSans-111"/>
      <use x="461.572266" xlink:href="#DejaVuSans-119"/>
      <use x="543.359375" xlink:href="#DejaVuSans-45"/>
      <use x="579.443359" xlink:href="#DejaVuSans-112"/>
      <use x="642.919922" xlink:href="#DejaVuSans-105"/>
     </g>
    </g>
    <g id="line2d_24">
     <path d="M 512.142383 87.195312 
L 532.142383 87.195312 
" style="fill:none;stroke:#d62728;stroke-linecap:square;stroke-width:1.5;"/>
    </g>
    <g id="line2d_25"/>
    <g id="text_18">
     <!-- cubic-pi -->
     <g transform="translate(540.142383 90.695312)scale(0.1 -0.1)">
      <use xlink:href="#DejaVuSans-99"/>
      <use x="54.980469" xlink:href="#DejaVuSans-117"/>
      <use x="118.359375" xlink:href="#DejaVuSans-98"/>
      <use x="181.835938" xlink:href="#DejaVuSans-105"/>
      <use x="209.619141" xlink:href="#DejaVuSans-99"/>
      <use x="264.599609" xlink:href="#DejaVuSans-45"/>
      <use x="300.683594" xlink:href="#DejaVuSans-112"/>
      <use x="364.160156" xlink:href="#DejaVuSans-105"/>
     </g>
    </g>
   </g>
  </g>
  <g id="text_19">
   <!-- result rtt -->
   <defs>
    <path d="M 56.203125 29.59375 
L 56.203125 25.203125 
L 14.890625 25.203125 
Q 15.484375 15.921875 20.484375 11.0625 
Q 25.484375 6.203125 34.421875 6.203125 
Q 39.59375 6.203125 44.453125 7.46875 
Q 49.3125 8.734375 54.109375 11.28125 
L 54.109375 2.78125 
Q 49.265625 0.734375 44.1875 -0.34375 
Q 39.109375 -1.421875 33.890625 -1.421875 
Q 20.796875 -1.421875 13.15625 6.1875 
Q 5.515625 13.8125 5.515625 26.8125 
Q 5.515625 40.234375 12.765625 48.109375 
Q 20.015625 56 32.328125 56 
Q 43.359375 56 49.78125 48.890625 
Q 56.203125 41.796875 56.203125 29.59375 
z
M 47.21875 32.234375 
Q 47.125 39.59375 43.09375 43.984375 
Q 39.0625 48.390625 32.421875 48.390625 
Q 24.90625 48.390625 20.390625 44.140625 
Q 15.875 39.890625 15.1875 32.171875 
z
" id="DejaVuSans-101"/>
    <path id="DejaVuSans-32"/>
   </defs>
   <g transform="translate(315.818438 17.038125)scale(0.12 -0.12)">
    <use xlink:href="#DejaVuSans-114"/>
    <use x="41.082031" xlink:href="#DejaVuSans-101"/>
    <use x="102.605469" xlink:href="#DejaVuSans-115"/>
    <use x="154.705078" xlink:href="#DejaVuSans-117"/>
    <use x="218.083984" xlink:href="#DejaVuSans-108"/>
    <use x="245.867188" xlink:href="#DejaVuSans-116"/>
    <use x="285.076172" xlink:href="#DejaVuSans-32"/>
    <use x="316.863281" xlink:href="#DejaVuSans-114"/>
    <use x="357.976562" xlink:href="#DejaVuSans-116"/>
    <use x="397.185547" xlink:href="#DejaVuSans-116"/>
   </g>
  </g>
 </g>
 <defs>
  <clipPath id="p613b743bf0">
   <rect height="317.111667" width="395.541406" x="92.823906" y="35.0625"/>
  </clipPath>
 </defs>
</svg>
