<?xml version="1.0" encoding="utf-8" standalone="no"?>
<!DOCTYPE svg PUBLIC "-//W3C//DTD SVG 1.1//EN"
  "http://www.w3.org/Graphics/SVG/1.1/DTD/svg11.dtd">
<!-- Created with matplotlib (https://matplotlib.org/) -->
<svg height="396pt" version="1.1" viewBox="0 0 684 396" width="684pt" xmlns="http://www.w3.org/2000/svg" xmlns:xlink="http://www.w3.org/1999/xlink">
 <defs>
  <style type="text/css">
*{stroke-linecap:butt;stroke-linejoin:round;}
  </style>
 </defs>
 <g id="figure_1">
  <g id="patch_1">
   <path d="M 0 396 
L 684 396 
L 684 0 
L 0 0 
z
" style="fill:#ffffff;"/>
  </g>
  <g id="axes_1">
   <g id="patch_2">
    <path d="M 83.472344 352.174167 
L 488.365312 352.174167 
L 488.365312 35.0625 
L 83.472344 35.0625 
z
" style="fill:#ffffff;"/>
   </g>
   <g id="matplotlib.axis_1">
    <g id="xtick_1">
     <g id="line2d_1">
      <defs>
       <path d="M 0 0 
L 0 3.5 
" id="m620eaca585" style="stroke:#000000;stroke-width:0.8;"/>
      </defs>
      <g>
       <use style="stroke:#000000;stroke-width:0.8;" x="101.849896" xlink:href="#m620eaca585" y="352.174167"/>
      </g>
     </g>
     <g id="text_1">
      <!-- 0 -->
      <defs>
       <path d="M 31.78125 66.40625 
Q 24.171875 66.40625 20.328125 58.90625 
Q 16.5 51.421875 16.5 36.375 
Q 16.5 21.390625 20.328125 13.890625 
Q 24.171875 6.390625 31.78125 6.390625 
Q 39.453125 6.390625 43.28125 13.890625 
Q 47.125 21.390625 47.125 36.375 
Q 47.125 51.421875 43.28125 58.90625 
Q 39.453125 66.40625 31.78125 66.40625 
z
M 31.78125 74.21875 
Q 44.046875 74.21875 50.515625 64.515625 
Q 56.984375 54.828125 56.984375 36.375 
Q 56.984375 17.96875 50.515625 8.265625 
Q 44.046875 -1.421875 31.78125 -1.421875 
Q 19.53125 -1.421875 13.0625 8.265625 
Q 6.59375 17.96875 6.59375 36.375 
Q 6.59375 54.828125 13.0625 64.515625 
Q 19.53125 74.21875 31.78125 74.21875 
z
" id="DejaVuSans-48"/>
      </defs>
      <g transform="translate(98.668646 366.772604)scale(0.1 -0.1)">
       <use xlink:href="#DejaVuSans-48"/>
      </g>
     </g>
    </g>
    <g id="xtick_2">
     <g id="line2d_2">
      <g>
       <use style="stroke:#000000;stroke-width:0.8;" x="168.534773" xlink:href="#m620eaca585" y="352.174167"/>
      </g>
     </g>
     <g id="text_2">
      <!-- 50 -->
      <defs>
       <path d="M 10.796875 72.90625 
L 49.515625 72.90625 
L 49.515625 64.59375 
L 19.828125 64.59375 
L 19.828125 46.734375 
Q 21.96875 47.46875 24.109375 47.828125 
Q 26.265625 48.1875 28.421875 48.1875 
Q 40.625 48.1875 47.75 41.5 
Q 54.890625 34.8125 54.890625 23.390625 
Q 54.890625 11.625 47.5625 5.09375 
Q 40.234375 -1.421875 26.90625 -1.421875 
Q 22.3125 -1.421875 17.546875 -0.640625 
Q 12.796875 0.140625 7.71875 1.703125 
L 7.71875 11.625 
Q 12.109375 9.234375 16.796875 8.0625 
Q 21.484375 6.890625 26.703125 6.890625 
Q 35.15625 6.890625 40.078125 11.328125 
Q 45.015625 15.765625 45.015625 23.390625 
Q 45.015625 31 40.078125 35.4375 
Q 35.15625 39.890625 26.703125 39.890625 
Q 22.75 39.890625 18.8125 39.015625 
Q 14.890625 38.140625 10.796875 36.28125 
z
" id="DejaVuSans-53"/>
      </defs>
      <g transform="translate(162.172273 366.772604)scale(0.1 -0.1)">
       <use xlink:href="#DejaVuSans-53"/>
       <use x="63.623047" xlink:href="#DejaVuSans-48"/>
      </g>
     </g>
    </g>
    <g id="xtick_3">
     <g id="line2d_3">
      <g>
       <use style="stroke:#000000;stroke-width:0.8;" x="235.21965" xlink:href="#m620eaca585" y="352.174167"/>
      </g>
     </g>
     <g id="text_3">
      <!-- 100 -->
      <defs>
       <path d="M 12.40625 8.296875 
L 28.515625 8.296875 
L 28.515625 63.921875 
L 10.984375 60.40625 
L 10.984375 69.390625 
L 28.421875 72.90625 
L 38.28125 72.90625 
L 38.28125 8.296875 
L 54.390625 8.296875 
L 54.390625 0 
L 12.40625 0 
z
" id="DejaVuSans-49"/>
      </defs>
      <g transform="translate(225.6759 366.772604)scale(0.1 -0.1)">
       <use xlink:href="#DejaVuSans-49"/>
       <use x="63.623047" xlink:href="#DejaVuSans-48"/>
       <use x="127.246094" xlink:href="#DejaVuSans-48"/>
      </g>
     </g>
    </g>
    <g id="xtick_4">
     <g id="line2d_4">
      <g>
       <use style="stroke:#000000;stroke-width:0.8;" x="301.904527" xlink:href="#m620eaca585" y="352.174167"/>
      </g>
     </g>
     <g id="text_4">
      <!-- 150 -->
      <g transform="translate(292.360777 366.772604)scale(0.1 -0.1)">
       <use xlink:href="#DejaVuSans-49"/>
       <use x="63.623047" xlink:href="#DejaVuSans-53"/>
       <use x="127.246094" xlink:href="#DejaVuSans-48"/>
      </g>
     </g>
    </g>
    <g id="xtick_5">
     <g id="line2d_5">
      <g>
       <use style="stroke:#000000;stroke-width:0.8;" x="368.589404" xlink:href="#m620eaca585" y="352.174167"/>
      </g>
     </g>
     <g id="text_5">
      <!-- 200 -->
      <defs>
       <path d="M 19.1875 8.296875 
L 53.609375 8.296875 
L 53.609375 0 
L 7.328125 0 
L 7.328125 8.296875 
Q 12.9375 14.109375 22.625 23.890625 
Q 32.328125 33.6875 34.8125 36.53125 
Q 39.546875 41.84375 41.421875 45.53125 
Q 43.3125 49.21875 43.3125 52.78125 
Q 43.3125 58.59375 39.234375 62.25 
Q 35.15625 65.921875 28.609375 65.921875 
Q 23.96875 65.921875 18.8125 64.3125 
Q 13.671875 62.703125 7.8125 59.421875 
L 7.8125 69.390625 
Q 13.765625 71.78125 18.9375 73 
Q 24.125 74.21875 28.421875 74.21875 
Q 39.75 74.21875 46.484375 68.546875 
Q 53.21875 62.890625 53.21875 53.421875 
Q 53.21875 48.921875 51.53125 44.890625 
Q 49.859375 40.875 45.40625 35.40625 
Q 44.1875 33.984375 37.640625 27.21875 
Q 31.109375 20.453125 19.1875 8.296875 
z
" id="DejaVuSans-50"/>
      </defs>
      <g transform="translate(359.045654 366.772604)scale(0.1 -0.1)">
       <use xlink:href="#DejaVuSans-50"/>
       <use x="63.623047" xlink:href="#DejaVuSans-48"/>
       <use x="127.246094" xlink:href="#DejaVuSans-48"/>
      </g>
     </g>
    </g>
    <g id="xtick_6">
     <g id="line2d_6">
      <g>
       <use style="stroke:#000000;stroke-width:0.8;" x="435.274281" xlink:href="#m620eaca585" y="352.174167"/>
      </g>
     </g>
     <g id="text_6">
      <!-- 250 -->
      <g transform="translate(425.730531 366.772604)scale(0.1 -0.1)">
       <use xlink:href="#DejaVuSans-50"/>
       <use x="63.623047" xlink:href="#DejaVuSans-53"/>
       <use x="127.246094" xlink:href="#DejaVuSans-48"/>
      </g>
     </g>
    </g>
   </g>
   <g id="matplotlib.axis_2">
    <g id="ytick_1">
     <g id="line2d_7">
      <defs>
       <path d="M 0 0 
L -3.5 0 
" id="m1d4ba714e1" style="stroke:#000000;stroke-width:0.8;"/>
      </defs>
      <g>
       <use style="stroke:#000000;stroke-width:0.8;" x="83.472344" xlink:href="#m1d4ba714e1" y="352.174167"/>
      </g>
     </g>
     <g id="text_7">
      <!-- 0 -->
      <g transform="translate(70.109844 355.973385)scale(0.1 -0.1)">
       <use xlink:href="#DejaVuSans-48"/>
      </g>
     </g>
    </g>
    <g id="ytick_2">
     <g id="line2d_8">
      <g>
       <use style="stroke:#000000;stroke-width:0.8;" x="83.472344" xlink:href="#m1d4ba714e1" y="313.921855"/>
      </g>
     </g>
     <g id="text_8">
      <!-- 10 -->
      <g transform="translate(63.747344 317.721073)scale(0.1 -0.1)">
       <use xlink:href="#DejaVuSans-49"/>
       <use x="63.623047" xlink:href="#DejaVuSans-48"/>
      </g>
     </g>
    </g>
    <g id="ytick_3">
     <g id="line2d_9">
      <g>
       <use style="stroke:#000000;stroke-width:0.8;" x="83.472344" xlink:href="#m1d4ba714e1" y="275.669543"/>
      </g>
     </g>
     <g id="text_9">
      <!-- 20 -->
      <g transform="translate(63.747344 279.468761)scale(0.1 -0.1)">
       <use xlink:href="#DejaVuSans-50"/>
       <use x="63.623047" xlink:href="#DejaVuSans-48"/>
      </g>
     </g>
    </g>
    <g id="ytick_4">
     <g id="line2d_10">
      <g>
       <use style="stroke:#000000;stroke-width:0.8;" x="83.472344" xlink:href="#m1d4ba714e1" y="237.417231"/>
      </g>
     </g>
     <g id="text_10">
      <!-- 30 -->
      <defs>
       <path d="M 40.578125 39.3125 
Q 47.65625 37.796875 51.625 33 
Q 55.609375 28.21875 55.609375 21.1875 
Q 55.609375 10.40625 48.1875 4.484375 
Q 40.765625 -1.421875 27.09375 -1.421875 
Q 22.515625 -1.421875 17.65625 -0.515625 
Q 12.796875 0.390625 7.625 2.203125 
L 7.625 11.71875 
Q 11.71875 9.328125 16.59375 8.109375 
Q 21.484375 6.890625 26.8125 6.890625 
Q 36.078125 6.890625 40.9375 10.546875 
Q 45.796875 14.203125 45.796875 21.1875 
Q 45.796875 27.640625 41.28125 31.265625 
Q 36.765625 34.90625 28.71875 34.90625 
L 20.21875 34.90625 
L 20.21875 43.015625 
L 29.109375 43.015625 
Q 36.375 43.015625 40.234375 45.921875 
Q 44.09375 48.828125 44.09375 54.296875 
Q 44.09375 59.90625 40.109375 62.90625 
Q 36.140625 65.921875 28.71875 65.921875 
Q 24.65625 65.921875 20.015625 65.03125 
Q 15.375 64.15625 9.8125 62.3125 
L 9.8125 71.09375 
Q 15.4375 72.65625 20.34375 73.4375 
Q 25.25 74.21875 29.59375 74.21875 
Q 40.828125 74.21875 47.359375 69.109375 
Q 53.90625 64.015625 53.90625 55.328125 
Q 53.90625 49.265625 50.4375 45.09375 
Q 46.96875 40.921875 40.578125 39.3125 
z
" id="DejaVuSans-51"/>
      </defs>
      <g transform="translate(63.747344 241.216449)scale(0.1 -0.1)">
       <use xlink:href="#DejaVuSans-51"/>
       <use x="63.623047" xlink:href="#DejaVuSans-48"/>
      </g>
     </g>
    </g>
    <g id="ytick_5">
     <g id="line2d_11">
      <g>
       <use style="stroke:#000000;stroke-width:0.8;" x="83.472344" xlink:href="#m1d4ba714e1" y="199.164919"/>
      </g>
     </g>
     <g id="text_11">
      <!-- 40 -->
      <defs>
       <path d="M 37.796875 64.3125 
L 12.890625 25.390625 
L 37.796875 25.390625 
z
M 35.203125 72.90625 
L 47.609375 72.90625 
L 47.609375 25.390625 
L 58.015625 25.390625 
L 58.015625 17.1875 
L 47.609375 17.1875 
L 47.609375 0 
L 37.796875 0 
L 37.796875 17.1875 
L 4.890625 17.1875 
L 4.890625 26.703125 
z
" id="DejaVuSans-52"/>
      </defs>
      <g transform="translate(63.747344 202.964137)scale(0.1 -0.1)">
       <use xlink:href="#DejaVuSans-52"/>
       <use x="63.623047" xlink:href="#DejaVuSans-48"/>
      </g>
     </g>
    </g>
    <g id="ytick_6">
     <g id="line2d_12">
      <g>
       <use style="stroke:#000000;stroke-width:0.8;" x="83.472344" xlink:href="#m1d4ba714e1" y="160.912607"/>
      </g>
     </g>
     <g id="text_12">
      <!-- 50 -->
      <g transform="translate(63.747344 164.711825)scale(0.1 -0.1)">
       <use xlink:href="#DejaVuSans-53"/>
       <use x="63.623047" xlink:href="#DejaVuSans-48"/>
      </g>
     </g>
    </g>
    <g id="ytick_7">
     <g id="line2d_13">
      <g>
       <use style="stroke:#000000;stroke-width:0.8;" x="83.472344" xlink:href="#m1d4ba714e1" y="122.660295"/>
      </g>
     </g>
     <g id="text_13">
      <!-- 60 -->
      <defs>
       <path d="M 33.015625 40.375 
Q 26.375 40.375 22.484375 35.828125 
Q 18.609375 31.296875 18.609375 23.390625 
Q 18.609375 15.53125 22.484375 10.953125 
Q 26.375 6.390625 33.015625 6.390625 
Q 39.65625 6.390625 43.53125 10.953125 
Q 47.40625 15.53125 47.40625 23.390625 
Q 47.40625 31.296875 43.53125 35.828125 
Q 39.65625 40.375 33.015625 40.375 
z
M 52.59375 71.296875 
L 52.59375 62.3125 
Q 48.875 64.0625 45.09375 64.984375 
Q 41.3125 65.921875 37.59375 65.921875 
Q 27.828125 65.921875 22.671875 59.328125 
Q 17.53125 52.734375 16.796875 39.40625 
Q 19.671875 43.65625 24.015625 45.921875 
Q 28.375 48.1875 33.59375 48.1875 
Q 44.578125 48.1875 50.953125 41.515625 
Q 57.328125 34.859375 57.328125 23.390625 
Q 57.328125 12.15625 50.6875 5.359375 
Q 44.046875 -1.421875 33.015625 -1.421875 
Q 20.359375 -1.421875 13.671875 8.265625 
Q 6.984375 17.96875 6.984375 36.375 
Q 6.984375 53.65625 15.1875 63.9375 
Q 23.390625 74.21875 37.203125 74.21875 
Q 40.921875 74.21875 44.703125 73.484375 
Q 48.484375 72.75 52.59375 71.296875 
z
" id="DejaVuSans-54"/>
      </defs>
      <g transform="translate(63.747344 126.459513)scale(0.1 -0.1)">
       <use xlink:href="#DejaVuSans-54"/>
       <use x="63.623047" xlink:href="#DejaVuSans-48"/>
      </g>
     </g>
    </g>
    <g id="ytick_8">
     <g id="line2d_14">
      <g>
       <use style="stroke:#000000;stroke-width:0.8;" x="83.472344" xlink:href="#m1d4ba714e1" y="84.407983"/>
      </g>
     </g>
     <g id="text_14">
      <!-- 70 -->
      <defs>
       <path d="M 8.203125 72.90625 
L 55.078125 72.90625 
L 55.078125 68.703125 
L 28.609375 0 
L 18.3125 0 
L 43.21875 64.59375 
L 8.203125 64.59375 
z
" id="DejaVuSans-55"/>
      </defs>
      <g transform="translate(63.747344 88.207201)scale(0.1 -0.1)">
       <use xlink:href="#DejaVuSans-55"/>
       <use x="63.623047" xlink:href="#DejaVuSans-48"/>
      </g>
     </g>
    </g>
    <g id="ytick_9">
     <g id="line2d_15">
      <g>
       <use style="stroke:#000000;stroke-width:0.8;" x="83.472344" xlink:href="#m1d4ba714e1" y="46.15567"/>
      </g>
     </g>
     <g id="text_15">
      <!-- 80 -->
      <defs>
       <path d="M 31.78125 34.625 
Q 24.75 34.625 20.71875 30.859375 
Q 16.703125 27.09375 16.703125 20.515625 
Q 16.703125 13.921875 20.71875 10.15625 
Q 24.75 6.390625 31.78125 6.390625 
Q 38.8125 6.390625 42.859375 10.171875 
Q 46.921875 13.96875 46.921875 20.515625 
Q 46.921875 27.09375 42.890625 30.859375 
Q 38.875 34.625 31.78125 34.625 
z
M 21.921875 38.8125 
Q 15.578125 40.375 12.03125 44.71875 
Q 8.5 49.078125 8.5 55.328125 
Q 8.5 64.0625 14.71875 69.140625 
Q 20.953125 74.21875 31.78125 74.21875 
Q 42.671875 74.21875 48.875 69.140625 
Q 55.078125 64.0625 55.078125 55.328125 
Q 55.078125 49.078125 51.53125 44.71875 
Q 48 40.375 41.703125 38.8125 
Q 48.828125 37.15625 52.796875 32.3125 
Q 56.78125 27.484375 56.78125 20.515625 
Q 56.78125 9.90625 50.3125 4.234375 
Q 43.84375 -1.421875 31.78125 -1.421875 
Q 19.734375 -1.421875 13.25 4.234375 
Q 6.78125 9.90625 6.78125 20.515625 
Q 6.78125 27.484375 10.78125 32.3125 
Q 14.796875 37.15625 21.921875 38.8125 
z
M 18.3125 54.390625 
Q 18.3125 48.734375 21.84375 45.5625 
Q 25.390625 42.390625 31.78125 42.390625 
Q 38.140625 42.390625 41.71875 45.5625 
Q 45.3125 48.734375 45.3125 54.390625 
Q 45.3125 60.0625 41.71875 63.234375 
Q 38.140625 66.40625 31.78125 66.40625 
Q 25.390625 66.40625 21.84375 63.234375 
Q 18.3125 60.0625 18.3125 54.390625 
z
" id="DejaVuSans-56"/>
      </defs>
      <g transform="translate(63.747344 49.954889)scale(0.1 -0.1)">
       <use xlink:href="#DejaVuSans-56"/>
       <use x="63.623047" xlink:href="#DejaVuSans-48"/>
      </g>
     </g>
    </g>
    <g id="text_16">
     <!-- throughput -->
     <defs>
      <path d="M 18.3125 70.21875 
L 18.3125 54.6875 
L 36.8125 54.6875 
L 36.8125 47.703125 
L 18.3125 47.703125 
L 18.3125 18.015625 
Q 18.3125 11.328125 20.140625 9.421875 
Q 21.96875 7.515625 27.59375 7.515625 
L 36.8125 7.515625 
L 36.8125 0 
L 27.59375 0 
Q 17.1875 0 13.234375 3.875 
Q 9.28125 7.765625 9.28125 18.015625 
L 9.28125 47.703125 
L 2.6875 47.703125 
L 2.6875 54.6875 
L 9.28125 54.6875 
L 9.28125 70.21875 
z
" id="DejaVuSans-116"/>
      <path d="M 54.890625 33.015625 
L 54.890625 0 
L 45.90625 0 
L 45.90625 32.71875 
Q 45.90625 40.484375 42.875 44.328125 
Q 39.84375 48.1875 33.796875 48.1875 
Q 26.515625 48.1875 22.3125 43.546875 
Q 18.109375 38.921875 18.109375 30.90625 
L 18.109375 0 
L 9.078125 0 
L 9.078125 75.984375 
L 18.109375 75.984375 
L 18.109375 46.1875 
Q 21.34375 51.125 25.703125 53.5625 
Q 30.078125 56 35.796875 56 
Q 45.21875 56 50.046875 50.171875 
Q 54.890625 44.34375 54.890625 33.015625 
z
" id="DejaVuSans-104"/>
      <path d="M 41.109375 46.296875 
Q 39.59375 47.171875 37.8125 47.578125 
Q 36.03125 48 33.890625 48 
Q 26.265625 48 22.1875 43.046875 
Q 18.109375 38.09375 18.109375 28.8125 
L 18.109375 0 
L 9.078125 0 
L 9.078125 54.6875 
L 18.109375 54.6875 
L 18.109375 46.1875 
Q 20.953125 51.171875 25.484375 53.578125 
Q 30.03125 56 36.53125 56 
Q 37.453125 56 38.578125 55.875 
Q 39.703125 55.765625 41.0625 55.515625 
z
" id="DejaVuSans-114"/>
      <path d="M 30.609375 48.390625 
Q 23.390625 48.390625 19.1875 42.75 
Q 14.984375 37.109375 14.984375 27.296875 
Q 14.984375 17.484375 19.15625 11.84375 
Q 23.34375 6.203125 30.609375 6.203125 
Q 37.796875 6.203125 41.984375 11.859375 
Q 46.1875 17.53125 46.1875 27.296875 
Q 46.1875 37.015625 41.984375 42.703125 
Q 37.796875 48.390625 30.609375 48.390625 
z
M 30.609375 56 
Q 42.328125 56 49.015625 48.375 
Q 55.71875 40.765625 55.71875 27.296875 
Q 55.71875 13.875 49.015625 6.21875 
Q 42.328125 -1.421875 30.609375 -1.421875 
Q 18.84375 -1.421875 12.171875 6.21875 
Q 5.515625 13.875 5.515625 27.296875 
Q 5.515625 40.765625 12.171875 48.375 
Q 18.84375 56 30.609375 56 
z
" id="DejaVuSans-111"/>
      <path d="M 8.5 21.578125 
L 8.5 54.6875 
L 17.484375 54.6875 
L 17.484375 21.921875 
Q 17.484375 14.15625 20.5 10.265625 
Q 23.53125 6.390625 29.59375 6.390625 
Q 36.859375 6.390625 41.078125 11.03125 
Q 45.3125 15.671875 45.3125 23.6875 
L 45.3125 54.6875 
L 54.296875 54.6875 
L 54.296875 0 
L 45.3125 0 
L 45.3125 8.40625 
Q 42.046875 3.421875 37.71875 1 
Q 33.40625 -1.421875 27.6875 -1.421875 
Q 18.265625 -1.421875 13.375 4.4375 
Q 8.5 10.296875 8.5 21.578125 
z
M 31.109375 56 
z
" id="DejaVuSans-117"/>
      <path d="M 45.40625 27.984375 
Q 45.40625 37.75 41.375 43.109375 
Q 37.359375 48.484375 30.078125 48.484375 
Q 22.859375 48.484375 18.828125 43.109375 
Q 14.796875 37.75 14.796875 27.984375 
Q 14.796875 18.265625 18.828125 12.890625 
Q 22.859375 7.515625 30.078125 7.515625 
Q 37.359375 7.515625 41.375 12.890625 
Q 45.40625 18.265625 45.40625 27.984375 
z
M 54.390625 6.78125 
Q 54.390625 -7.171875 48.1875 -13.984375 
Q 42 -20.796875 29.203125 -20.796875 
Q 24.46875 -20.796875 20.265625 -20.09375 
Q 16.0625 -19.390625 12.109375 -17.921875 
L 12.109375 -9.1875 
Q 16.0625 -11.328125 19.921875 -12.34375 
Q 23.78125 -13.375 27.78125 -13.375 
Q 36.625 -13.375 41.015625 -8.765625 
Q 45.40625 -4.15625 45.40625 5.171875 
L 45.40625 9.625 
Q 42.625 4.78125 38.28125 2.390625 
Q 33.9375 0 27.875 0 
Q 17.828125 0 11.671875 7.65625 
Q 5.515625 15.328125 5.515625 27.984375 
Q 5.515625 40.671875 11.671875 48.328125 
Q 17.828125 56 27.875 56 
Q 33.9375 56 38.28125 53.609375 
Q 42.625 51.21875 45.40625 46.390625 
L 45.40625 54.6875 
L 54.390625 54.6875 
z
" id="DejaVuSans-103"/>
      <path d="M 18.109375 8.203125 
L 18.109375 -20.796875 
L 9.078125 -20.796875 
L 9.078125 54.6875 
L 18.109375 54.6875 
L 18.109375 46.390625 
Q 20.953125 51.265625 25.265625 53.625 
Q 29.59375 56 35.59375 56 
Q 45.5625 56 51.78125 48.09375 
Q 58.015625 40.1875 58.015625 27.296875 
Q 58.015625 14.40625 51.78125 6.484375 
Q 45.5625 -1.421875 35.59375 -1.421875 
Q 29.59375 -1.421875 25.265625 0.953125 
Q 20.953125 3.328125 18.109375 8.203125 
z
M 48.6875 27.296875 
Q 48.6875 37.203125 44.609375 42.84375 
Q 40.53125 48.484375 33.40625 48.484375 
Q 26.265625 48.484375 22.1875 42.84375 
Q 18.109375 37.203125 18.109375 27.296875 
Q 18.109375 17.390625 22.1875 11.75 
Q 26.265625 6.109375 33.40625 6.109375 
Q 40.53125 6.109375 44.609375 11.75 
Q 48.6875 17.390625 48.6875 27.296875 
z
" id="DejaVuSans-112"/>
     </defs>
     <g transform="translate(46.469844 221.675365)rotate(-90)scale(0.1 -0.1)">
      <use xlink:href="#DejaVuSans-116"/>
      <use x="39.208984" xlink:href="#DejaVuSans-104"/>
      <use x="102.587891" xlink:href="#DejaVuSans-114"/>
      <use x="143.669922" xlink:href="#DejaVuSans-111"/>
      <use x="204.851562" xlink:href="#DejaVuSans-117"/>
      <use x="268.230469" xlink:href="#DejaVuSans-103"/>
      <use x="331.707031" xlink:href="#DejaVuSans-104"/>
      <use x="395.085938" xlink:href="#DejaVuSans-112"/>
      <use x="458.5625" xlink:href="#DejaVuSans-117"/>
      <use x="521.941406" xlink:href="#DejaVuSans-116"/>
     </g>
     <!-- (mbit / second) -->
     <defs>
      <path d="M 31 75.875 
Q 24.46875 64.65625 21.28125 53.65625 
Q 18.109375 42.671875 18.109375 31.390625 
Q 18.109375 20.125 21.3125 9.0625 
Q 24.515625 -2 31 -13.1875 
L 23.1875 -13.1875 
Q 15.875 -1.703125 12.234375 9.375 
Q 8.59375 20.453125 8.59375 31.390625 
Q 8.59375 42.28125 12.203125 53.3125 
Q 15.828125 64.359375 23.1875 75.875 
z
" id="DejaVuSans-40"/>
      <path d="M 52 44.1875 
Q 55.375 50.25 60.0625 53.125 
Q 64.75 56 71.09375 56 
Q 79.640625 56 84.28125 50.015625 
Q 88.921875 44.046875 88.921875 33.015625 
L 88.921875 0 
L 79.890625 0 
L 79.890625 32.71875 
Q 79.890625 40.578125 77.09375 44.375 
Q 74.3125 48.1875 68.609375 48.1875 
Q 61.625 48.1875 57.5625 43.546875 
Q 53.515625 38.921875 53.515625 30.90625 
L 53.515625 0 
L 44.484375 0 
L 44.484375 32.71875 
Q 44.484375 40.625 41.703125 44.40625 
Q 38.921875 48.1875 33.109375 48.1875 
Q 26.21875 48.1875 22.15625 43.53125 
Q 18.109375 38.875 18.109375 30.90625 
L 18.109375 0 
L 9.078125 0 
L 9.078125 54.6875 
L 18.109375 54.6875 
L 18.109375 46.1875 
Q 21.1875 51.21875 25.484375 53.609375 
Q 29.78125 56 35.6875 56 
Q 41.65625 56 45.828125 52.96875 
Q 50 49.953125 52 44.1875 
z
" id="DejaVuSans-109"/>
      <path d="M 48.6875 27.296875 
Q 48.6875 37.203125 44.609375 42.84375 
Q 40.53125 48.484375 33.40625 48.484375 
Q 26.265625 48.484375 22.1875 42.84375 
Q 18.109375 37.203125 18.109375 27.296875 
Q 18.109375 17.390625 22.1875 11.75 
Q 26.265625 6.109375 33.40625 6.109375 
Q 40.53125 6.109375 44.609375 11.75 
Q 48.6875 17.390625 48.6875 27.296875 
z
M 18.109375 46.390625 
Q 20.953125 51.265625 25.265625 53.625 
Q 29.59375 56 35.59375 56 
Q 45.5625 56 51.78125 48.09375 
Q 58.015625 40.1875 58.015625 27.296875 
Q 58.015625 14.40625 51.78125 6.484375 
Q 45.5625 -1.421875 35.59375 -1.421875 
Q 29.59375 -1.421875 25.265625 0.953125 
Q 20.953125 3.328125 18.109375 8.203125 
L 18.109375 0 
L 9.078125 0 
L 9.078125 75.984375 
L 18.109375 75.984375 
z
" id="DejaVuSans-98"/>
      <path d="M 9.421875 54.6875 
L 18.40625 54.6875 
L 18.40625 0 
L 9.421875 0 
z
M 9.421875 75.984375 
L 18.40625 75.984375 
L 18.40625 64.59375 
L 9.421875 64.59375 
z
" id="DejaVuSans-105"/>
      <path id="DejaVuSans-32"/>
      <path d="M 25.390625 72.90625 
L 33.6875 72.90625 
L 8.296875 -9.28125 
L 0 -9.28125 
z
" id="DejaVuSans-47"/>
      <path d="M 44.28125 53.078125 
L 44.28125 44.578125 
Q 40.484375 46.53125 36.375 47.5 
Q 32.28125 48.484375 27.875 48.484375 
Q 21.1875 48.484375 17.84375 46.4375 
Q 14.5 44.390625 14.5 40.28125 
Q 14.5 37.15625 16.890625 35.375 
Q 19.28125 33.59375 26.515625 31.984375 
L 29.59375 31.296875 
Q 39.15625 29.25 43.1875 25.515625 
Q 47.21875 21.78125 47.21875 15.09375 
Q 47.21875 7.46875 41.1875 3.015625 
Q 35.15625 -1.421875 24.609375 -1.421875 
Q 20.21875 -1.421875 15.453125 -0.5625 
Q 10.6875 0.296875 5.421875 2 
L 5.421875 11.28125 
Q 10.40625 8.6875 15.234375 7.390625 
Q 20.0625 6.109375 24.8125 6.109375 
Q 31.15625 6.109375 34.5625 8.28125 
Q 37.984375 10.453125 37.984375 14.40625 
Q 37.984375 18.0625 35.515625 20.015625 
Q 33.0625 21.96875 24.703125 23.78125 
L 21.578125 24.515625 
Q 13.234375 26.265625 9.515625 29.90625 
Q 5.8125 33.546875 5.8125 39.890625 
Q 5.8125 47.609375 11.28125 51.796875 
Q 16.75 56 26.8125 56 
Q 31.78125 56 36.171875 55.265625 
Q 40.578125 54.546875 44.28125 53.078125 
z
" id="DejaVuSans-115"/>
      <path d="M 56.203125 29.59375 
L 56.203125 25.203125 
L 14.890625 25.203125 
Q 15.484375 15.921875 20.484375 11.0625 
Q 25.484375 6.203125 34.421875 6.203125 
Q 39.59375 6.203125 44.453125 7.46875 
Q 49.3125 8.734375 54.109375 11.28125 
L 54.109375 2.78125 
Q 49.265625 0.734375 44.1875 -0.34375 
Q 39.109375 -1.421875 33.890625 -1.421875 
Q 20.796875 -1.421875 13.15625 6.1875 
Q 5.515625 13.8125 5.515625 26.8125 
Q 5.515625 40.234375 12.765625 48.109375 
Q 20.015625 56 32.328125 56 
Q 43.359375 56 49.78125 48.890625 
Q 56.203125 41.796875 56.203125 29.59375 
z
M 47.21875 32.234375 
Q 47.125 39.59375 43.09375 43.984375 
Q 39.0625 48.390625 32.421875 48.390625 
Q 24.90625 48.390625 20.390625 44.140625 
Q 15.875 39.890625 15.1875 32.171875 
z
" id="DejaVuSans-101"/>
      <path d="M 48.78125 52.59375 
L 48.78125 44.1875 
Q 44.96875 46.296875 41.140625 47.34375 
Q 37.3125 48.390625 33.40625 48.390625 
Q 24.65625 48.390625 19.8125 42.84375 
Q 14.984375 37.3125 14.984375 27.296875 
Q 14.984375 17.28125 19.8125 11.734375 
Q 24.65625 6.203125 33.40625 6.203125 
Q 37.3125 6.203125 41.140625 7.25 
Q 44.96875 8.296875 48.78125 10.40625 
L 48.78125 2.09375 
Q 45.015625 0.34375 40.984375 -0.53125 
Q 36.96875 -1.421875 32.421875 -1.421875 
Q 20.0625 -1.421875 12.78125 6.34375 
Q 5.515625 14.109375 5.515625 27.296875 
Q 5.515625 40.671875 12.859375 48.328125 
Q 20.21875 56 33.015625 56 
Q 37.15625 56 41.109375 55.140625 
Q 45.0625 54.296875 48.78125 52.59375 
z
" id="DejaVuSans-99"/>
      <path d="M 54.890625 33.015625 
L 54.890625 0 
L 45.90625 0 
L 45.90625 32.71875 
Q 45.90625 40.484375 42.875 44.328125 
Q 39.84375 48.1875 33.796875 48.1875 
Q 26.515625 48.1875 22.3125 43.546875 
Q 18.109375 38.921875 18.109375 30.90625 
L 18.109375 0 
L 9.078125 0 
L 9.078125 54.6875 
L 18.109375 54.6875 
L 18.109375 46.1875 
Q 21.34375 51.125 25.703125 53.5625 
Q 30.078125 56 35.796875 56 
Q 45.21875 56 50.046875 50.171875 
Q 54.890625 44.34375 54.890625 33.015625 
z
" id="DejaVuSans-110"/>
      <path d="M 45.40625 46.390625 
L 45.40625 75.984375 
L 54.390625 75.984375 
L 54.390625 0 
L 45.40625 0 
L 45.40625 8.203125 
Q 42.578125 3.328125 38.25 0.953125 
Q 33.9375 -1.421875 27.875 -1.421875 
Q 17.96875 -1.421875 11.734375 6.484375 
Q 5.515625 14.40625 5.515625 27.296875 
Q 5.515625 40.1875 11.734375 48.09375 
Q 17.96875 56 27.875 56 
Q 33.9375 56 38.25 53.625 
Q 42.578125 51.265625 45.40625 46.390625 
z
M 14.796875 27.296875 
Q 14.796875 17.390625 18.875 11.75 
Q 22.953125 6.109375 30.078125 6.109375 
Q 37.203125 6.109375 41.296875 11.75 
Q 45.40625 17.390625 45.40625 27.296875 
Q 45.40625 37.203125 41.296875 42.84375 
Q 37.203125 48.484375 30.078125 48.484375 
Q 22.953125 48.484375 18.875 42.84375 
Q 14.796875 37.203125 14.796875 27.296875 
z
" id="DejaVuSans-100"/>
      <path d="M 8.015625 75.875 
L 15.828125 75.875 
Q 23.140625 64.359375 26.78125 53.3125 
Q 30.421875 42.28125 30.421875 31.390625 
Q 30.421875 20.453125 26.78125 9.375 
Q 23.140625 -1.703125 15.828125 -13.1875 
L 8.015625 -13.1875 
Q 14.5 -2 17.703125 9.0625 
Q 20.90625 20.125 20.90625 31.390625 
Q 20.90625 42.671875 17.703125 53.65625 
Q 14.5 64.65625 8.015625 75.875 
z
" id="DejaVuSans-41"/>
     </defs>
     <g transform="translate(57.667656 231.608958)rotate(-90)scale(0.1 -0.1)">
      <use xlink:href="#DejaVuSans-40"/>
      <use x="39.013672" xlink:href="#DejaVuSans-109"/>
      <use x="136.425781" xlink:href="#DejaVuSans-98"/>
      <use x="199.902344" xlink:href="#DejaVuSans-105"/>
      <use x="227.685547" xlink:href="#DejaVuSans-116"/>
      <use x="266.894531" xlink:href="#DejaVuSans-32"/>
      <use x="298.681641" xlink:href="#DejaVuSans-47"/>
      <use x="332.373047" xlink:href="#DejaVuSans-32"/>
      <use x="364.160156" xlink:href="#DejaVuSans-115"/>
      <use x="416.259766" xlink:href="#DejaVuSans-101"/>
      <use x="477.783203" xlink:href="#DejaVuSans-99"/>
      <use x="532.763672" xlink:href="#DejaVuSans-111"/>
      <use x="593.945312" xlink:href="#DejaVuSans-110"/>
      <use x="657.324219" xlink:href="#DejaVuSans-100"/>
      <use x="720.800781" xlink:href="#DejaVuSans-41"/>
     </g>
    </g>
   </g>
   <g id="line2d_16">
    <path clip-path="url(#pc7ac782173)" d="M 109.86275 294.795699 
L 110.529599 172.3883 
L 111.196448 187.689225 
L 111.863297 172.3883 
L 112.530146 168.563069 
L 114.530692 145.611682 
L 115.197541 134.135988 
L 115.864389 134.135988 
L 116.531238 130.310757 
L 117.864936 130.310757 
L 118.531784 137.961219 
L 119.865482 145.611682 
L 120.532331 145.611682 
L 121.19918 172.3883 
L 121.866028 183.863994 
L 122.532877 199.164919 
L 123.199726 290.970467 
L 123.866575 271.844311 
L 124.533423 264.193849 
L 125.200272 268.01908 
L 125.867121 268.01908 
L 127.867667 279.494774 
L 128.534516 279.494774 
L 129.201365 283.320005 
L 129.868214 283.320005 
L 130.535062 287.145236 
L 133.202457 287.145236 
L 133.869306 290.970467 
L 135.869853 290.970467 
L 136.536701 306.271392 
L 137.20355 302.446161 
L 137.870399 294.795699 
L 139.204096 294.795699 
L 139.870945 290.970467 
L 140.537794 290.970467 
L 141.204643 294.795699 
L 141.871491 294.795699 
L 142.53834 290.970467 
L 143.872038 290.970467 
L 144.538887 287.145236 
L 146.539433 287.145236 
L 147.206282 283.320005 
L 147.87313 287.145236 
L 148.539979 283.320005 
L 149.206828 287.145236 
L 149.873677 287.145236 
L 150.540525 313.921855 
L 151.207374 283.320005 
L 151.874223 283.320005 
L 152.541072 287.145236 
L 153.207921 283.320005 
L 156.542164 283.320005 
L 157.209013 279.494774 
L 157.875862 283.320005 
L 163.210652 283.320005 
L 163.877501 290.970467 
L 164.54435 302.446161 
L 165.211198 279.494774 
L 169.87914 279.494774 
L 170.545989 275.669543 
L 171.212837 279.494774 
L 171.879686 275.669543 
L 175.880779 275.669543 
L 176.547628 279.494774 
L 177.214476 279.494774 
L 177.881325 310.096623 
L 178.548174 283.320005 
L 179.881871 283.320005 
L 180.54872 279.494774 
L 181.215569 279.494774 
L 181.882418 275.669543 
L 183.216115 275.669543 
L 183.882964 271.844311 
L 189.217754 271.844311 
L 189.884603 275.669543 
L 190.551452 275.669543 
L 191.218301 287.145236 
L 191.885149 302.446161 
L 192.551998 279.494774 
L 193.218847 275.669543 
L 196.553091 275.669543 
L 197.219939 271.844311 
L 200.554183 271.844311 
L 201.221032 275.669543 
L 201.887881 271.844311 
L 202.55473 275.669543 
L 203.221578 275.669543 
L 203.888427 279.494774 
L 204.555276 279.494774 
L 205.222125 306.271392 
L 205.888973 279.494774 
L 206.555822 279.494774 
L 207.222671 283.320005 
L 207.88952 279.494774 
L 209.223217 279.494774 
L 209.890066 283.320005 
L 210.556915 279.494774 
L 213.22431 279.494774 
L 213.891159 283.320005 
L 217.892251 283.320005 
L 218.5591 290.970467 
L 219.225949 310.096623 
L 219.892798 290.970467 
L 220.559646 287.145236 
L 223.227041 287.145236 
L 223.89389 283.320005 
L 231.896076 283.320005 
L 232.562924 313.921855 
L 233.229773 283.320005 
L 233.896622 283.320005 
L 234.563471 279.494774 
L 237.897714 279.494774 
L 238.564563 275.669543 
L 239.231412 279.494774 
L 239.898261 275.669543 
L 245.8999 275.669543 
L 246.566748 310.096623 
L 247.233597 279.494774 
L 253.902085 279.494774 
L 254.568934 283.320005 
L 255.235782 279.494774 
L 259.236875 279.494774 
L 259.903724 310.096623 
L 260.570573 283.320005 
L 263.237968 283.320005 
L 263.904817 279.494774 
L 273.240699 279.494774 
L 273.907548 317.747086 
L 274.574397 283.320005 
L 275.241246 283.320005 
L 275.908094 279.494774 
L 283.243431 279.494774 
L 283.91028 283.320005 
L 284.577128 279.494774 
L 285.243977 283.320005 
L 286.577675 283.320005 
L 287.244523 310.096623 
L 287.911372 283.320005 
L 288.578221 279.494774 
L 289.24507 279.494774 
L 289.911919 283.320005 
L 294.57986 283.320005 
L 295.246709 279.494774 
L 295.913557 279.494774 
L 296.580406 275.669543 
L 300.581499 275.669543 
L 301.248348 310.096623 
L 301.915196 279.494774 
L 308.583684 279.494774 
L 309.250533 275.669543 
L 313.918474 275.669543 
L 314.585323 298.62093 
L 315.252172 283.320005 
L 315.919021 275.669543 
L 318.586416 275.669543 
L 319.253264 279.494774 
L 323.254357 279.494774 
L 323.921206 283.320005 
L 327.922298 283.320005 
L 328.589147 310.096623 
L 329.255996 279.494774 
L 330.589694 279.494774 
L 331.256542 283.320005 
L 339.258728 283.320005 
L 339.925576 287.145236 
L 340.592425 283.320005 
L 341.259274 283.320005 
L 341.926123 306.271392 
L 343.25982 283.320005 
L 355.263098 283.320005 
L 355.929947 317.747086 
L 356.596796 287.145236 
L 357.263644 283.320005 
L 359.264191 283.320005 
L 359.931039 279.494774 
L 363.265283 279.494774 
L 363.932132 275.669543 
L 367.933225 275.669543 
L 368.600074 271.844311 
L 369.266922 290.970467 
L 369.933771 290.970467 
L 370.60062 279.494774 
L 379.269654 279.494774 
L 379.936503 275.669543 
L 380.603351 275.669543 
L 381.2702 279.494774 
L 381.937049 275.669543 
L 382.603898 275.669543 
L 383.270746 310.096623 
L 383.937595 275.669543 
L 384.604444 275.669543 
L 385.271293 279.494774 
L 387.271839 279.494774 
L 387.938688 283.320005 
L 395.940873 283.320005 
L 396.607722 298.62093 
L 397.274571 302.446161 
L 397.941419 290.970467 
L 398.608268 287.145236 
L 409.277849 287.145236 
L 409.944697 283.320005 
L 410.611546 313.921855 
L 411.278395 287.145236 
L 414.612639 287.145236 
L 415.279487 283.320005 
L 418.613731 283.320005 
L 419.28058 279.494774 
L 419.947429 283.320005 
L 421.281126 283.320005 
L 421.947975 279.494774 
L 423.281673 279.494774 
L 423.948521 287.145236 
L 424.61537 302.446161 
L 425.282219 283.320005 
L 427.282765 283.320005 
L 427.949614 279.494774 
L 437.285497 279.494774 
L 437.952346 313.921855 
L 438.619194 287.145236 
L 439.286043 283.320005 
L 440.619741 283.320005 
L 441.28659 279.494774 
L 441.953438 283.320005 
L 442.620287 279.494774 
L 445.287682 279.494774 
L 445.954531 283.320005 
L 446.62138 279.494774 
L 450.622472 279.494774 
L 451.289321 287.145236 
L 451.95617 302.446161 
L 452.623019 279.494774 
L 464.626296 279.494774 
L 465.293145 310.096623 
L 465.959994 283.320005 
L 466.626843 283.320005 
L 467.293692 279.494774 
L 467.96054 279.494774 
L 468.627389 275.669543 
L 469.294238 275.669543 
L 469.961087 271.844311 
L 469.961087 271.844311 
" style="fill:none;stroke:#1f77b4;stroke-linecap:square;stroke-width:1.5;"/>
   </g>
   <g id="line2d_17">
    <path clip-path="url(#pc7ac782173)" d="M 104.497285 252.718155 
L 105.164134 202.99015 
L 105.830983 206.815381 
L 106.497832 206.815381 
L 107.16468 248.892924 
L 107.831529 302.446161 
L 108.498378 298.62093 
L 109.165227 310.096623 
L 109.832075 317.747086 
L 110.498924 336.873242 
L 111.165773 340.698473 
L 115.166866 340.698473 
L 115.833714 344.523704 
L 117.167412 344.523704 
L 117.834261 348.348935 
L 118.501109 340.698473 
L 119.167958 336.873242 
L 119.834807 336.873242 
L 122.502202 321.572317 
L 123.169051 298.62093 
L 123.8359 290.970467 
L 124.502748 294.795699 
L 125.169597 290.970467 
L 126.503295 290.970467 
L 127.836992 283.320005 
L 131.838085 283.320005 
L 132.504934 279.494774 
L 133.171782 279.494774 
L 134.50548 271.844311 
L 135.839177 271.844311 
L 136.506026 287.145236 
L 137.172875 294.795699 
L 137.839724 268.01908 
L 139.173421 268.01908 
L 139.84027 271.844311 
L 144.508212 271.844311 
L 145.17506 275.669543 
L 149.843002 275.669543 
L 150.50985 310.096623 
L 151.176699 275.669543 
L 152.510397 275.669543 
L 153.177246 279.494774 
L 153.844094 279.494774 
L 154.510943 283.320005 
L 156.511489 283.320005 
L 157.178338 287.145236 
L 159.178884 287.145236 
L 159.845733 290.970467 
L 160.512582 290.970467 
L 161.179431 287.145236 
L 161.84628 290.970467 
L 162.513128 287.145236 
L 163.846826 294.795699 
L 164.513675 310.096623 
L 165.180523 287.145236 
L 165.847372 283.320005 
L 166.514221 283.320005 
L 167.847918 275.669543 
L 169.181616 275.669543 
L 169.848465 271.844311 
L 171.849011 271.844311 
L 172.51586 268.01908 
L 173.182709 268.01908 
L 173.849557 264.193849 
L 174.516406 264.193849 
L 175.183255 268.01908 
L 175.850104 264.193849 
L 176.516953 268.01908 
L 177.183801 264.193849 
L 177.85065 306.271392 
L 178.517499 271.844311 
L 179.184348 271.844311 
L 179.851196 275.669543 
L 180.518045 275.669543 
L 181.184894 279.494774 
L 188.52023 279.494774 
L 189.187079 283.320005 
L 189.853928 283.320005 
L 190.520777 279.494774 
L 191.187625 287.145236 
L 191.854474 310.096623 
L 192.521323 279.494774 
L 193.188172 283.320005 
L 197.856113 283.320005 
L 198.522962 279.494774 
L 199.189811 283.320005 
L 202.524055 283.320005 
L 203.190903 279.494774 
L 203.857752 283.320005 
L 204.524601 283.320005 
L 205.19145 313.921855 
L 205.858298 283.320005 
L 209.192542 283.320005 
L 209.859391 279.494774 
L 211.859937 279.494774 
L 212.526786 275.669543 
L 213.860484 275.669543 
L 214.527332 279.494774 
L 218.528425 279.494774 
L 219.195274 302.446161 
L 219.862123 271.844311 
L 220.528971 271.844311 
L 221.19582 275.669543 
L 221.862669 271.844311 
L 225.196913 271.844311 
L 225.863762 268.01908 
L 226.53061 271.844311 
L 228.531157 271.844311 
L 229.198005 268.01908 
L 231.8654 268.01908 
L 232.532249 306.271392 
L 233.199098 264.193849 
L 233.865947 268.01908 
L 235.199644 268.01908 
L 235.866493 271.844311 
L 238.533888 271.844311 
L 239.200737 275.669543 
L 244.535527 275.669543 
L 245.202376 271.844311 
L 245.869225 271.844311 
L 246.536073 306.271392 
L 247.202922 271.844311 
L 247.869771 271.844311 
L 248.53662 275.669543 
L 249.203469 275.669543 
L 249.870317 279.494774 
L 251.870864 279.494774 
L 252.537712 283.320005 
L 259.2062 283.320005 
L 259.873049 313.921855 
L 260.539898 283.320005 
L 261.873595 283.320005 
L 262.540444 279.494774 
L 263.874141 279.494774 
L 264.54099 283.320005 
L 265.207839 279.494774 
L 265.874688 283.320005 
L 266.541537 279.494774 
L 269.208932 279.494774 
L 269.87578 275.669543 
L 271.209478 275.669543 
L 271.876327 271.844311 
L 273.210024 271.844311 
L 273.876873 306.271392 
L 274.543722 271.844311 
L 275.210571 275.669543 
L 276.544268 275.669543 
L 277.211117 279.494774 
L 277.877966 279.494774 
L 278.544814 283.320005 
L 286.547 283.320005 
L 287.213848 306.271392 
L 287.880697 287.145236 
L 288.547546 279.494774 
L 290.548092 279.494774 
L 291.214941 275.669543 
L 298.550278 275.669543 
L 299.217126 271.844311 
L 300.550824 271.844311 
L 301.217673 306.271392 
L 301.884521 268.01908 
L 307.219312 268.01908 
L 307.88616 271.844311 
L 313.22095 271.844311 
L 313.887799 275.669543 
L 314.554648 298.62093 
L 315.888346 275.669543 
L 327.891623 275.669543 
L 328.558472 310.096623 
L 329.225321 279.494774 
L 330.559019 279.494774 
L 331.225867 275.669543 
L 331.892716 279.494774 
L 333.226414 279.494774 
L 333.893262 275.669543 
L 335.893809 275.669543 
L 336.560657 279.494774 
L 337.227506 275.669543 
L 337.894355 279.494774 
L 341.228599 279.494774 
L 341.895448 298.62093 
L 342.562296 287.145236 
L 343.229145 271.844311 
L 344.562843 271.844311 
L 345.229691 268.01908 
L 347.230238 268.01908 
L 347.897087 264.193849 
L 351.23133 264.193849 
L 351.898179 268.01908 
L 352.565028 264.193849 
L 353.898726 264.193849 
L 354.565574 268.01908 
L 355.232423 268.01908 
L 355.899272 306.271392 
L 356.566121 271.844311 
L 357.899818 271.844311 
L 358.566667 275.669543 
L 359.233516 271.844311 
L 361.234062 271.844311 
L 361.900911 275.669543 
L 368.569398 275.669543 
L 369.236247 290.970467 
L 369.903096 287.145236 
L 370.569945 271.844311 
L 373.23734 271.844311 
L 373.904189 275.669543 
L 374.571037 271.844311 
L 375.237886 271.844311 
L 375.904735 275.669543 
L 376.571584 271.844311 
L 377.238432 275.669543 
L 379.238979 275.669543 
L 379.905828 279.494774 
L 380.572676 275.669543 
L 382.573223 275.669543 
L 383.240071 310.096623 
L 383.90692 275.669543 
L 384.573769 279.494774 
L 385.240618 275.669543 
L 391.909105 275.669543 
L 392.575954 271.844311 
L 394.576501 271.844311 
L 395.243349 268.01908 
L 395.910198 271.844311 
L 396.577047 283.320005 
L 397.243896 287.145236 
L 397.910744 264.193849 
L 398.577593 268.01908 
L 399.244442 268.01908 
L 400.578139 275.669543 
L 401.911837 275.669543 
L 402.578686 279.494774 
L 405.91293 279.494774 
L 406.579778 283.320005 
L 407.246627 279.494774 
L 407.913476 283.320005 
L 409.914022 283.320005 
L 410.580871 313.921855 
L 411.24772 275.669543 
L 411.914569 275.669543 
L 412.581417 271.844311 
L 413.915115 271.844311 
L 414.581964 268.01908 
L 415.248812 271.844311 
L 415.915661 268.01908 
L 417.916207 268.01908 
L 418.583056 264.193849 
L 423.250998 264.193849 
L 423.917846 279.494774 
L 424.584695 302.446161 
L 425.251544 279.494774 
L 427.918939 279.494774 
L 428.585788 283.320005 
L 437.254822 283.320005 
L 437.921671 310.096623 
L 438.588519 275.669543 
L 439.255368 271.844311 
L 440.589066 271.844311 
L 441.255914 275.669543 
L 442.589612 275.669543 
L 443.256461 279.494774 
L 445.923856 279.494774 
L 446.590705 275.669543 
L 449.2581 275.669543 
L 449.924948 279.494774 
L 450.591797 275.669543 
L 451.258646 283.320005 
L 451.925495 306.271392 
L 452.592344 275.669543 
L 453.926041 275.669543 
L 454.59289 279.494774 
L 459.92768 279.494774 
L 460.594529 283.320005 
L 464.595621 283.320005 
L 464.595621 283.320005 
" style="fill:none;stroke:#ff7f0e;stroke-linecap:square;stroke-width:1.5;"/>
   </g>
   <g id="line2d_18">
    <path clip-path="url(#pc7ac782173)" d="M 101.87657 118.835063 
L 102.543418 49.980902 
L 103.877116 49.980902 
L 104.543965 153.262144 
L 105.210813 202.99015 
L 105.877662 199.164919 
L 106.544511 199.164919 
L 107.878209 302.446161 
L 108.545057 290.970467 
L 109.211906 298.62093 
L 109.878755 313.921855 
L 110.545604 336.873242 
L 111.212452 340.698473 
L 111.879301 336.873242 
L 112.54615 340.698473 
L 114.546696 340.698473 
L 115.213545 348.348935 
L 115.880394 340.698473 
L 117.88094 329.222779 
L 118.547789 321.572317 
L 119.214638 317.747086 
L 119.881486 310.096623 
L 120.548335 294.795699 
L 121.215184 290.970467 
L 121.882033 283.320005 
L 122.548881 279.494774 
L 123.21573 260.368618 
L 123.882579 271.844311 
L 127.216823 271.844311 
L 127.883672 268.01908 
L 129.217369 268.01908 
L 129.884218 271.844311 
L 130.551067 268.01908 
L 133.218462 268.01908 
L 133.885311 271.844311 
L 135.219008 271.844311 
L 135.885857 268.01908 
L 136.552706 283.320005 
L 137.219554 283.320005 
L 137.886403 268.01908 
L 138.553252 271.844311 
L 139.220101 268.01908 
L 149.889681 268.01908 
L 150.55653 306.271392 
L 151.223379 268.01908 
L 151.890227 268.01908 
L 152.557076 271.844311 
L 158.558715 271.844311 
L 159.225564 275.669543 
L 162.559808 275.669543 
L 163.226657 271.844311 
L 163.893505 287.145236 
L 164.560354 294.795699 
L 165.227203 275.669543 
L 165.894052 275.669543 
L 166.5609 279.494774 
L 167.894598 279.494774 
L 168.561447 283.320005 
L 169.228295 279.494774 
L 169.895144 283.320005 
L 172.562539 283.320005 
L 173.229388 287.145236 
L 177.230481 287.145236 
L 177.897329 313.921855 
L 178.564178 283.320005 
L 179.897876 275.669543 
L 180.564725 279.494774 
L 181.231573 275.669543 
L 187.233212 275.669543 
L 187.900061 279.494774 
L 188.56691 275.669543 
L 190.567456 275.669543 
L 191.234305 283.320005 
L 191.901154 306.271392 
L 192.568002 279.494774 
L 193.234851 275.669543 
L 193.9017 275.669543 
L 194.568549 279.494774 
L 195.235397 275.669543 
L 195.902246 279.494774 
L 196.569095 275.669543 
L 197.235944 279.494774 
L 197.902793 275.669543 
L 198.569641 279.494774 
L 199.23649 275.669543 
L 203.237583 275.669543 
L 203.904432 271.844311 
L 204.57128 271.844311 
L 205.238129 306.271392 
L 205.904978 271.844311 
L 206.571827 275.669543 
L 207.238675 271.844311 
L 211.906617 271.844311 
L 212.573466 275.669543 
L 213.240314 271.844311 
L 215.907709 271.844311 
L 216.574558 268.01908 
L 217.241407 271.844311 
L 217.908256 268.01908 
L 218.575104 275.669543 
L 219.241953 306.271392 
L 219.908802 275.669543 
L 220.575651 279.494774 
L 225.243592 279.494774 
L 225.910441 283.320005 
L 226.57729 283.320005 
L 227.244138 279.494774 
L 227.910987 283.320005 
L 231.91208 283.320005 
L 232.578929 313.921855 
L 233.245777 283.320005 
L 241.914811 283.320005 
L 242.58166 279.494774 
L 243.248509 283.320005 
L 245.249055 283.320005 
L 245.915904 287.145236 
L 246.582753 313.921855 
L 247.249602 283.320005 
L 249.250148 283.320005 
L 249.916997 279.494774 
L 251.917543 279.494774 
L 252.584392 275.669543 
L 255.918636 275.669543 
L 256.585484 279.494774 
L 257.919182 279.494774 
L 258.586031 275.669543 
L 259.252879 275.669543 
L 259.919728 310.096623 
L 260.586577 279.494774 
L 273.256704 279.494774 
L 273.923552 310.096623 
L 274.590401 275.669543 
L 275.25725 271.844311 
L 279.258343 271.844311 
L 279.925191 268.01908 
L 281.925738 268.01908 
L 282.592586 264.193849 
L 283.259435 268.01908 
L 283.926284 264.193849 
L 286.593679 264.193849 
L 287.260528 298.62093 
L 287.927377 268.01908 
L 288.594225 264.193849 
L 289.261074 268.01908 
L 294.595864 268.01908 
L 295.262713 271.844311 
L 297.263259 271.844311 
L 297.930108 275.669543 
L 298.596957 275.669543 
L 299.263806 279.494774 
L 300.597503 279.494774 
L 301.264352 313.921855 
L 301.931201 283.320005 
L 307.265991 283.320005 
L 307.93284 279.494774 
L 308.599689 283.320005 
L 313.934479 283.320005 
L 314.601327 306.271392 
L 315.268176 287.145236 
L 315.935025 279.494774 
L 323.93721 279.494774 
L 324.604059 283.320005 
L 325.270908 283.320005 
L 325.937757 279.494774 
L 326.604605 283.320005 
L 327.271454 279.494774 
L 327.938303 283.320005 
L 328.605152 310.096623 
L 329.272 275.669543 
L 335.273639 275.669543 
L 335.940488 271.844311 
L 341.275278 271.844311 
L 341.942127 290.970467 
L 342.608976 287.145236 
L 343.275825 271.844311 
L 343.942673 275.669543 
L 348.610615 275.669543 
L 349.277464 279.494774 
L 352.611707 279.494774 
L 353.278556 283.320005 
L 353.945405 283.320005 
L 354.612254 279.494774 
L 355.279102 279.494774 
L 355.945951 313.921855 
L 356.6128 283.320005 
L 365.948683 283.320005 
L 366.615532 287.145236 
L 368.616078 287.145236 
L 369.282927 302.446161 
L 369.949775 298.62093 
L 370.616624 283.320005 
L 374.617717 283.320005 
L 375.284566 279.494774 
L 375.951414 283.320005 
L 377.951961 283.320005 
L 378.618809 279.494774 
L 382.619902 279.494774 
L 383.286751 313.921855 
L 383.9536 279.494774 
L 384.620448 275.669543 
L 392.622634 275.669543 
L 393.289482 279.494774 
L 393.956331 279.494774 
L 394.62318 275.669543 
L 395.290029 279.494774 
L 395.956877 275.669543 
L 396.623726 294.795699 
L 397.290575 298.62093 
L 397.957424 283.320005 
L 398.624273 279.494774 
L 403.292214 279.494774 
L 403.959063 275.669543 
L 409.960702 275.669543 
L 410.62755 310.096623 
L 411.294399 279.494774 
L 415.295492 279.494774 
L 415.962341 283.320005 
L 423.297677 283.320005 
L 423.964526 294.795699 
L 424.631375 294.795699 
L 425.298223 275.669543 
L 426.631921 275.669543 
L 427.29877 279.494774 
L 428.632467 279.494774 
L 429.299316 275.669543 
L 429.966165 275.669543 
L 430.633014 279.494774 
L 437.301501 279.494774 
L 437.96835 313.921855 
L 438.635199 283.320005 
L 441.969443 283.320005 
L 442.636291 279.494774 
L 443.30314 283.320005 
L 443.969989 279.494774 
L 444.636838 283.320005 
L 445.303687 279.494774 
L 445.970535 283.320005 
L 446.637384 283.320005 
L 447.304233 279.494774 
L 450.638477 279.494774 
L 451.305325 287.145236 
L 451.972174 306.271392 
L 452.639023 279.494774 
L 457.306964 279.494774 
L 457.973813 283.320005 
L 463.308603 283.320005 
L 463.308603 283.320005 
" style="fill:none;stroke:#2ca02c;stroke-linecap:square;stroke-width:1.5;"/>
   </g>
   <g id="line2d_19">
    <path clip-path="url(#pc7ac782173)" d="M 107.187353 264.193849 
L 107.854202 160.912607 
L 108.521051 168.563069 
L 109.1879 153.262144 
L 109.854748 176.213531 
L 110.521597 264.193849 
L 111.188446 248.892924 
L 111.855295 260.368618 
L 112.522143 260.368618 
L 113.188992 271.844311 
L 114.52269 279.494774 
L 116.523236 302.446161 
L 117.190085 306.271392 
L 117.856934 306.271392 
L 118.523782 313.921855 
L 119.85748 321.572317 
L 120.524329 336.873242 
L 121.191177 321.572317 
L 122.524875 313.921855 
L 123.191724 287.145236 
L 123.858572 279.494774 
L 124.525421 283.320005 
L 125.19227 279.494774 
L 126.525968 279.494774 
L 127.192816 283.320005 
L 127.859665 279.494774 
L 129.193363 279.494774 
L 129.860211 275.669543 
L 132.527606 275.669543 
L 133.194455 279.494774 
L 133.861304 275.669543 
L 134.528153 279.494774 
L 135.195002 279.494774 
L 135.86185 283.320005 
L 136.528699 298.62093 
L 137.195548 298.62093 
L 137.862397 283.320005 
L 144.530884 283.320005 
L 145.197733 287.145236 
L 147.198279 287.145236 
L 147.865128 283.320005 
L 149.865675 283.320005 
L 150.532523 313.921855 
L 151.199372 283.320005 
L 151.866221 283.320005 
L 152.53307 279.494774 
L 153.199918 279.494774 
L 153.866767 275.669543 
L 157.201011 275.669543 
L 158.534709 268.01908 
L 163.20265 268.01908 
L 163.869499 283.320005 
L 164.536347 290.970467 
L 165.203196 271.844311 
L 166.536894 271.844311 
L 167.870591 279.494774 
L 169.871138 279.494774 
L 170.537986 283.320005 
L 177.206474 283.320005 
L 177.873323 310.096623 
L 178.540172 275.669543 
L 179.20702 279.494774 
L 181.207567 279.494774 
L 181.874416 283.320005 
L 183.208113 283.320005 
L 183.874962 287.145236 
L 185.208659 287.145236 
L 185.875508 283.320005 
L 188.542903 283.320005 
L 189.209752 279.494774 
L 190.54345 279.494774 
L 191.210298 290.970467 
L 191.877147 294.795699 
L 192.543996 275.669543 
L 193.210845 275.669543 
L 193.877693 279.494774 
L 197.211937 279.494774 
L 197.878786 283.320005 
L 199.212484 283.320005 
L 199.879332 279.494774 
L 200.546181 283.320005 
L 201.879879 283.320005 
L 202.546727 279.494774 
L 203.213576 279.494774 
L 203.880425 283.320005 
L 204.547274 283.320005 
L 205.214123 317.747086 
L 205.880971 275.669543 
L 207.881518 275.669543 
L 208.548366 279.494774 
L 209.215215 275.669543 
L 209.882064 279.494774 
L 211.215761 279.494774 
L 211.88261 283.320005 
L 213.216308 283.320005 
L 213.883157 279.494774 
L 217.884249 279.494774 
L 218.551098 287.145236 
L 219.217947 302.446161 
L 219.884795 275.669543 
L 220.551644 271.844311 
L 221.885342 271.844311 
L 222.552191 275.669543 
L 226.553283 275.669543 
L 227.220132 279.494774 
L 227.886981 275.669543 
L 229.220678 275.669543 
L 229.887527 279.494774 
L 230.554376 275.669543 
L 231.221225 279.494774 
L 231.888073 275.669543 
L 232.554922 313.921855 
L 233.221771 279.494774 
L 245.225049 279.494774 
L 245.891898 283.320005 
L 246.558746 302.446161 
L 247.225595 279.494774 
L 247.892444 275.669543 
L 252.560385 275.669543 
L 253.227234 271.844311 
L 257.895175 271.844311 
L 258.562024 275.669543 
L 259.228873 271.844311 
L 259.895722 310.096623 
L 260.56257 268.01908 
L 261.229419 264.193849 
L 261.896268 268.01908 
L 262.563117 268.01908 
L 263.229966 271.844311 
L 265.230512 271.844311 
L 265.897361 275.669543 
L 268.564756 275.669543 
L 269.231604 279.494774 
L 272.565848 279.494774 
L 273.232697 283.320005 
L 273.899546 313.921855 
L 274.566395 287.145236 
L 276.566941 287.145236 
L 277.23379 283.320005 
L 281.234882 283.320005 
L 281.901731 279.494774 
L 282.56858 283.320005 
L 285.902824 283.320005 
L 286.569673 287.145236 
L 287.236521 317.747086 
L 287.90337 287.145236 
L 300.573497 287.145236 
L 301.240345 317.747086 
L 301.907194 279.494774 
L 302.574043 283.320005 
L 313.910472 283.320005 
L 314.577321 310.096623 
L 315.24417 283.320005 
L 316.577867 283.320005 
L 317.244716 279.494774 
L 320.57896 279.494774 
L 321.245809 275.669543 
L 323.913204 275.669543 
L 324.580052 271.844311 
L 326.580599 271.844311 
L 327.247448 275.669543 
L 327.914296 275.669543 
L 328.581145 310.096623 
L 329.247994 279.494774 
L 333.915935 279.494774 
L 334.582784 275.669543 
L 335.916482 275.669543 
L 336.58333 279.494774 
L 337.917028 279.494774 
L 338.583877 275.669543 
L 339.250725 279.494774 
L 340.584423 279.494774 
L 341.251272 275.669543 
L 341.91812 302.446161 
L 342.584969 290.970467 
L 343.251818 283.320005 
L 344.585516 283.320005 
L 345.252364 287.145236 
L 349.253457 287.145236 
L 349.920306 283.320005 
L 353.921398 283.320005 
L 354.588247 279.494774 
L 355.255096 279.494774 
L 355.921945 306.271392 
L 356.588793 271.844311 
L 359.256189 271.844311 
L 359.923037 275.669543 
L 368.592071 275.669543 
L 369.25892 298.62093 
L 369.925769 287.145236 
L 370.592618 279.494774 
L 373.926861 279.494774 
L 374.59371 275.669543 
L 376.594257 275.669543 
L 377.261105 279.494774 
L 382.595896 279.494774 
L 383.262744 313.921855 
L 383.929593 279.494774 
L 385.263291 279.494774 
L 385.930139 283.320005 
L 386.596988 283.320005 
L 387.263837 279.494774 
L 395.932871 279.494774 
L 396.59972 298.62093 
L 397.266568 294.795699 
L 397.933417 279.494774 
L 398.600266 279.494774 
L 399.267115 275.669543 
L 399.933964 275.669543 
L 400.600812 271.844311 
L 401.93451 271.844311 
L 402.601359 268.01908 
L 403.268207 271.844311 
L 403.935056 268.01908 
L 404.601905 271.844311 
L 405.268754 268.01908 
L 405.935602 271.844311 
L 406.602451 268.01908 
L 407.2693 271.844311 
L 408.602998 271.844311 
L 409.269846 268.01908 
L 409.936695 271.844311 
L 410.603544 310.096623 
L 411.270393 271.844311 
L 413.270939 271.844311 
L 413.937788 275.669543 
L 415.271485 275.669543 
L 415.938334 279.494774 
L 417.93888 279.494774 
L 418.605729 283.320005 
L 422.606822 283.320005 
L 423.273671 287.145236 
L 423.940519 298.62093 
L 424.607368 290.970467 
L 425.274217 271.844311 
L 425.941066 275.669543 
L 426.607914 275.669543 
L 427.274763 271.844311 
L 437.277495 271.844311 
L 437.944343 302.446161 
L 438.611192 268.01908 
L 439.94489 275.669543 
L 442.612285 275.669543 
L 443.279134 271.844311 
L 445.946529 271.844311 
L 446.613377 275.669543 
L 447.947075 275.669543 
L 448.613924 279.494774 
L 449.280773 275.669543 
L 449.947621 279.494774 
L 450.61447 279.494774 
L 451.281319 294.795699 
L 451.948168 294.795699 
L 452.615016 275.669543 
L 453.948714 275.669543 
L 454.615563 271.844311 
L 458.616655 271.844311 
L 459.283504 268.01908 
L 463.284597 268.01908 
L 463.951446 264.193849 
L 464.618294 264.193849 
L 465.285143 306.271392 
L 465.951992 268.01908 
L 466.618841 268.01908 
L 466.618841 268.01908 
" style="fill:none;stroke:#d62728;stroke-linecap:square;stroke-width:1.5;"/>
   </g>
   <g id="patch_3">
    <path d="M 83.472344 352.174167 
L 83.472344 35.0625 
" style="fill:none;stroke:#000000;stroke-linecap:square;stroke-linejoin:miter;stroke-width:0.8;"/>
   </g>
   <g id="patch_4">
    <path d="M 488.365312 352.174167 
L 488.365312 35.0625 
" style="fill:none;stroke:#000000;stroke-linecap:square;stroke-linejoin:miter;stroke-width:0.8;"/>
   </g>
   <g id="patch_5">
    <path d="M 83.472344 352.174167 
L 488.365312 352.174167 
" style="fill:none;stroke:#000000;stroke-linecap:square;stroke-linejoin:miter;stroke-width:0.8;"/>
   </g>
   <g id="patch_6">
    <path d="M 83.472344 35.0625 
L 488.365312 35.0625 
" style="fill:none;stroke:#000000;stroke-linecap:square;stroke-linejoin:miter;stroke-width:0.8;"/>
   </g>
   <g id="legend_1">
    <g id="patch_7">
     <path d="M 510.609961 96.775 
L 609.680273 96.775 
Q 611.680273 96.775 611.680273 94.775 
L 611.680273 37.0625 
Q 611.680273 35.0625 609.680273 35.0625 
L 510.609961 35.0625 
Q 508.609961 35.0625 508.609961 37.0625 
L 508.609961 94.775 
Q 508.609961 96.775 510.609961 96.775 
z
" style="fill:#ffffff;opacity:0.8;stroke:#cccccc;stroke-linejoin:miter;"/>
    </g>
    <g id="line2d_20">
     <path d="M 512.609961 43.160937 
L 532.609961 43.160937 
" style="fill:none;stroke:#1f77b4;stroke-linecap:square;stroke-width:1.5;"/>
    </g>
    <g id="line2d_21"/>
    <g id="text_17">
     <!-- bbrshallow-pi -->
     <defs>
      <path d="M 34.28125 27.484375 
Q 23.390625 27.484375 19.1875 25 
Q 14.984375 22.515625 14.984375 16.5 
Q 14.984375 11.71875 18.140625 8.90625 
Q 21.296875 6.109375 26.703125 6.109375 
Q 34.1875 6.109375 38.703125 11.40625 
Q 43.21875 16.703125 43.21875 25.484375 
L 43.21875 27.484375 
z
M 52.203125 31.203125 
L 52.203125 0 
L 43.21875 0 
L 43.21875 8.296875 
Q 40.140625 3.328125 35.546875 0.953125 
Q 30.953125 -1.421875 24.3125 -1.421875 
Q 15.921875 -1.421875 10.953125 3.296875 
Q 6 8.015625 6 15.921875 
Q 6 25.140625 12.171875 29.828125 
Q 18.359375 34.515625 30.609375 34.515625 
L 43.21875 34.515625 
L 43.21875 35.40625 
Q 43.21875 41.609375 39.140625 45 
Q 35.0625 48.390625 27.6875 48.390625 
Q 23 48.390625 18.546875 47.265625 
Q 14.109375 46.140625 10.015625 43.890625 
L 10.015625 52.203125 
Q 14.9375 54.109375 19.578125 55.046875 
Q 24.21875 56 28.609375 56 
Q 40.484375 56 46.34375 49.84375 
Q 52.203125 43.703125 52.203125 31.203125 
z
" id="DejaVuSans-97"/>
      <path d="M 9.421875 75.984375 
L 18.40625 75.984375 
L 18.40625 0 
L 9.421875 0 
z
" id="DejaVuSans-108"/>
      <path d="M 4.203125 54.6875 
L 13.1875 54.6875 
L 24.421875 12.015625 
L 35.59375 54.6875 
L 46.1875 54.6875 
L 57.421875 12.015625 
L 68.609375 54.6875 
L 77.59375 54.6875 
L 63.28125 0 
L 52.6875 0 
L 40.921875 44.828125 
L 29.109375 0 
L 18.5 0 
z
" id="DejaVuSans-119"/>
      <path d="M 4.890625 31.390625 
L 31.203125 31.390625 
L 31.203125 23.390625 
L 4.890625 23.390625 
z
" id="DejaVuSans-45"/>
     </defs>
     <g transform="translate(540.609961 46.660937)scale(0.1 -0.1)">
      <use xlink:href="#DejaVuSans-98"/>
      <use x="63.476562" xlink:href="#DejaVuSans-98"/>
      <use x="126.953125" xlink:href="#DejaVuSans-114"/>
      <use x="168.066406" xlink:href="#DejaVuSans-115"/>
      <use x="220.166016" xlink:href="#DejaVuSans-104"/>
      <use x="283.544922" xlink:href="#DejaVuSans-97"/>
      <use x="344.824219" xlink:href="#DejaVuSans-108"/>
      <use x="372.607422" xlink:href="#DejaVuSans-108"/>
      <use x="400.390625" xlink:href="#DejaVuSans-111"/>
      <use x="461.572266" xlink:href="#DejaVuSans-119"/>
      <use x="543.359375" xlink:href="#DejaVuSans-45"/>
      <use x="579.443359" xlink:href="#DejaVuSans-112"/>
      <use x="642.919922" xlink:href="#DejaVuSans-105"/>
     </g>
    </g>
    <g id="line2d_22">
     <path d="M 512.609961 57.839063 
L 532.609961 57.839063 
" style="fill:none;stroke:#ff7f0e;stroke-linecap:square;stroke-width:1.5;"/>
    </g>
    <g id="line2d_23"/>
    <g id="text_18">
     <!-- bbrshallow-pi -->
     <g transform="translate(540.609961 61.339063)scale(0.1 -0.1)">
      <use xlink:href="#DejaVuSans-98"/>
      <use x="63.476562" xlink:href="#DejaVuSans-98"/>
      <use x="126.953125" xlink:href="#DejaVuSans-114"/>
      <use x="168.066406" xlink:href="#DejaVuSans-115"/>
      <use x="220.166016" xlink:href="#DejaVuSans-104"/>
      <use x="283.544922" xlink:href="#DejaVuSans-97"/>
      <use x="344.824219" xlink:href="#DejaVuSans-108"/>
      <use x="372.607422" xlink:href="#DejaVuSans-108"/>
      <use x="400.390625" xlink:href="#DejaVuSans-111"/>
      <use x="461.572266" xlink:href="#DejaVuSans-119"/>
      <use x="543.359375" xlink:href="#DejaVuSans-45"/>
      <use x="579.443359" xlink:href="#DejaVuSans-112"/>
      <use x="642.919922" xlink:href="#DejaVuSans-105"/>
     </g>
    </g>
    <g id="line2d_24">
     <path d="M 512.609961 72.517187 
L 532.609961 72.517187 
" style="fill:none;stroke:#2ca02c;stroke-linecap:square;stroke-width:1.5;"/>
    </g>
    <g id="line2d_25"/>
    <g id="text_19">
     <!-- bbrshallow-pi -->
     <g transform="translate(540.609961 76.017187)scale(0.1 -0.1)">
      <use xlink:href="#DejaVuSans-98"/>
      <use x="63.476562" xlink:href="#DejaVuSans-98"/>
      <use x="126.953125" xlink:href="#DejaVuSans-114"/>
      <use x="168.066406" xlink:href="#DejaVuSans-115"/>
      <use x="220.166016" xlink:href="#DejaVuSans-104"/>
      <use x="283.544922" xlink:href="#DejaVuSans-97"/>
      <use x="344.824219" xlink:href="#DejaVuSans-108"/>
      <use x="372.607422" xlink:href="#DejaVuSans-108"/>
      <use x="400.390625" xlink:href="#DejaVuSans-111"/>
      <use x="461.572266" xlink:href="#DejaVuSans-119"/>
      <use x="543.359375" xlink:href="#DejaVuSans-45"/>
      <use x="579.443359" xlink:href="#DejaVuSans-112"/>
      <use x="642.919922" xlink:href="#DejaVuSans-105"/>
     </g>
    </g>
    <g id="line2d_26">
     <path d="M 512.609961 87.195312 
L 532.609961 87.195312 
" style="fill:none;stroke:#d62728;stroke-linecap:square;stroke-width:1.5;"/>
    </g>
    <g id="line2d_27"/>
    <g id="text_20">
     <!-- bbrshallow-pi -->
     <g transform="translate(540.609961 90.695312)scale(0.1 -0.1)">
      <use xlink:href="#DejaVuSans-98"/>
      <use x="63.476562" xlink:href="#DejaVuSans-98"/>
      <use x="126.953125" xlink:href="#DejaVuSans-114"/>
      <use x="168.066406" xlink:href="#DejaVuSans-115"/>
      <use x="220.166016" xlink:href="#DejaVuSans-104"/>
      <use x="283.544922" xlink:href="#DejaVuSans-97"/>
      <use x="344.824219" xlink:href="#DejaVuSans-108"/>
      <use x="372.607422" xlink:href="#DejaVuSans-108"/>
      <use x="400.390625" xlink:href="#DejaVuSans-111"/>
      <use x="461.572266" xlink:href="#DejaVuSans-119"/>
      <use x="543.359375" xlink:href="#DejaVuSans-45"/>
      <use x="579.443359" xlink:href="#DejaVuSans-112"/>
      <use x="642.919922" xlink:href="#DejaVuSans-105"/>
     </g>
    </g>
   </g>
  </g>
  <g id="text_21">
   <!-- result throughput -->
   <g transform="translate(289.320938 17.038125)scale(0.12 -0.12)">
    <use xlink:href="#DejaVuSans-114"/>
    <use x="41.082031" xlink:href="#DejaVuSans-101"/>
    <use x="102.605469" xlink:href="#DejaVuSans-115"/>
    <use x="154.705078" xlink:href="#DejaVuSans-117"/>
    <use x="218.083984" xlink:href="#DejaVuSans-108"/>
    <use x="245.867188" xlink:href="#DejaVuSans-116"/>
    <use x="285.076172" xlink:href="#DejaVuSans-32"/>
    <use x="316.863281" xlink:href="#DejaVuSans-116"/>
    <use x="356.072266" xlink:href="#DejaVuSans-104"/>
    <use x="419.451172" xlink:href="#DejaVuSans-114"/>
    <use x="460.533203" xlink:href="#DejaVuSans-111"/>
    <use x="521.714844" xlink:href="#DejaVuSans-117"/>
    <use x="585.09375" xlink:href="#DejaVuSans-103"/>
    <use x="648.570312" xlink:href="#DejaVuSans-104"/>
    <use x="711.949219" xlink:href="#DejaVuSans-112"/>
    <use x="775.425781" xlink:href="#DejaVuSans-117"/>
    <use x="838.804688" xlink:href="#DejaVuSans-116"/>
   </g>
  </g>
 </g>
 <defs>
  <clipPath id="pc7ac782173">
   <rect height="317.111667" width="404.892969" x="83.472344" y="35.0625"/>
  </clipPath>
 </defs>
</svg>
