<?xml version="1.0" encoding="utf-8" standalone="no"?>
<!DOCTYPE svg PUBLIC "-//W3C//DTD SVG 1.1//EN"
  "http://www.w3.org/Graphics/SVG/1.1/DTD/svg11.dtd">
<!-- Created with matplotlib (https://matplotlib.org/) -->
<svg height="396pt" version="1.1" viewBox="0 0 684 396" width="684pt" xmlns="http://www.w3.org/2000/svg" xmlns:xlink="http://www.w3.org/1999/xlink">
 <defs>
  <style type="text/css">
*{stroke-linecap:butt;stroke-linejoin:round;}
  </style>
 </defs>
 <g id="figure_1">
  <g id="patch_1">
   <path d="M 0 396 
L 684 396 
L 684 0 
L 0 0 
z
" style="fill:#ffffff;"/>
  </g>
  <g id="axes_1">
   <g id="patch_2">
    <path d="M 66.158594 352.174167 
L 516.019219 352.174167 
L 516.019219 35.0625 
L 66.158594 35.0625 
z
" style="fill:#ffffff;"/>
   </g>
   <g id="matplotlib.axis_1">
    <g id="xtick_1">
     <g id="line2d_1">
      <defs>
       <path d="M 0 0 
L 0 3.5 
" id="mffab257484" style="stroke:#000000;stroke-width:0.8;"/>
      </defs>
      <g>
       <use style="stroke:#000000;stroke-width:0.8;" x="92.264326" xlink:href="#mffab257484" y="352.174167"/>
      </g>
     </g>
     <g id="text_1">
      <!-- 0 -->
      <defs>
       <path d="M 31.78125 66.40625 
Q 24.171875 66.40625 20.328125 58.90625 
Q 16.5 51.421875 16.5 36.375 
Q 16.5 21.390625 20.328125 13.890625 
Q 24.171875 6.390625 31.78125 6.390625 
Q 39.453125 6.390625 43.28125 13.890625 
Q 47.125 21.390625 47.125 36.375 
Q 47.125 51.421875 43.28125 58.90625 
Q 39.453125 66.40625 31.78125 66.40625 
z
M 31.78125 74.21875 
Q 44.046875 74.21875 50.515625 64.515625 
Q 56.984375 54.828125 56.984375 36.375 
Q 56.984375 17.96875 50.515625 8.265625 
Q 44.046875 -1.421875 31.78125 -1.421875 
Q 19.53125 -1.421875 13.0625 8.265625 
Q 6.59375 17.96875 6.59375 36.375 
Q 6.59375 54.828125 13.0625 64.515625 
Q 19.53125 74.21875 31.78125 74.21875 
z
" id="DejaVuSans-48"/>
      </defs>
      <g transform="translate(89.083076 366.772604)scale(0.1 -0.1)">
       <use xlink:href="#DejaVuSans-48"/>
      </g>
     </g>
    </g>
    <g id="xtick_2">
     <g id="line2d_2">
      <g>
       <use style="stroke:#000000;stroke-width:0.8;" x="163.975094" xlink:href="#mffab257484" y="352.174167"/>
      </g>
     </g>
     <g id="text_2">
      <!-- 50 -->
      <defs>
       <path d="M 10.796875 72.90625 
L 49.515625 72.90625 
L 49.515625 64.59375 
L 19.828125 64.59375 
L 19.828125 46.734375 
Q 21.96875 47.46875 24.109375 47.828125 
Q 26.265625 48.1875 28.421875 48.1875 
Q 40.625 48.1875 47.75 41.5 
Q 54.890625 34.8125 54.890625 23.390625 
Q 54.890625 11.625 47.5625 5.09375 
Q 40.234375 -1.421875 26.90625 -1.421875 
Q 22.3125 -1.421875 17.546875 -0.640625 
Q 12.796875 0.140625 7.71875 1.703125 
L 7.71875 11.625 
Q 12.109375 9.234375 16.796875 8.0625 
Q 21.484375 6.890625 26.703125 6.890625 
Q 35.15625 6.890625 40.078125 11.328125 
Q 45.015625 15.765625 45.015625 23.390625 
Q 45.015625 31 40.078125 35.4375 
Q 35.15625 39.890625 26.703125 39.890625 
Q 22.75 39.890625 18.8125 39.015625 
Q 14.890625 38.140625 10.796875 36.28125 
z
" id="DejaVuSans-53"/>
      </defs>
      <g transform="translate(157.612594 366.772604)scale(0.1 -0.1)">
       <use xlink:href="#DejaVuSans-53"/>
       <use x="63.623047" xlink:href="#DejaVuSans-48"/>
      </g>
     </g>
    </g>
    <g id="xtick_3">
     <g id="line2d_3">
      <g>
       <use style="stroke:#000000;stroke-width:0.8;" x="235.685862" xlink:href="#mffab257484" y="352.174167"/>
      </g>
     </g>
     <g id="text_3">
      <!-- 100 -->
      <defs>
       <path d="M 12.40625 8.296875 
L 28.515625 8.296875 
L 28.515625 63.921875 
L 10.984375 60.40625 
L 10.984375 69.390625 
L 28.421875 72.90625 
L 38.28125 72.90625 
L 38.28125 8.296875 
L 54.390625 8.296875 
L 54.390625 0 
L 12.40625 0 
z
" id="DejaVuSans-49"/>
      </defs>
      <g transform="translate(226.142112 366.772604)scale(0.1 -0.1)">
       <use xlink:href="#DejaVuSans-49"/>
       <use x="63.623047" xlink:href="#DejaVuSans-48"/>
       <use x="127.246094" xlink:href="#DejaVuSans-48"/>
      </g>
     </g>
    </g>
    <g id="xtick_4">
     <g id="line2d_4">
      <g>
       <use style="stroke:#000000;stroke-width:0.8;" x="307.396631" xlink:href="#mffab257484" y="352.174167"/>
      </g>
     </g>
     <g id="text_4">
      <!-- 150 -->
      <g transform="translate(297.852881 366.772604)scale(0.1 -0.1)">
       <use xlink:href="#DejaVuSans-49"/>
       <use x="63.623047" xlink:href="#DejaVuSans-53"/>
       <use x="127.246094" xlink:href="#DejaVuSans-48"/>
      </g>
     </g>
    </g>
    <g id="xtick_5">
     <g id="line2d_5">
      <g>
       <use style="stroke:#000000;stroke-width:0.8;" x="379.107399" xlink:href="#mffab257484" y="352.174167"/>
      </g>
     </g>
     <g id="text_5">
      <!-- 200 -->
      <defs>
       <path d="M 19.1875 8.296875 
L 53.609375 8.296875 
L 53.609375 0 
L 7.328125 0 
L 7.328125 8.296875 
Q 12.9375 14.109375 22.625 23.890625 
Q 32.328125 33.6875 34.8125 36.53125 
Q 39.546875 41.84375 41.421875 45.53125 
Q 43.3125 49.21875 43.3125 52.78125 
Q 43.3125 58.59375 39.234375 62.25 
Q 35.15625 65.921875 28.609375 65.921875 
Q 23.96875 65.921875 18.8125 64.3125 
Q 13.671875 62.703125 7.8125 59.421875 
L 7.8125 69.390625 
Q 13.765625 71.78125 18.9375 73 
Q 24.125 74.21875 28.421875 74.21875 
Q 39.75 74.21875 46.484375 68.546875 
Q 53.21875 62.890625 53.21875 53.421875 
Q 53.21875 48.921875 51.53125 44.890625 
Q 49.859375 40.875 45.40625 35.40625 
Q 44.1875 33.984375 37.640625 27.21875 
Q 31.109375 20.453125 19.1875 8.296875 
z
" id="DejaVuSans-50"/>
      </defs>
      <g transform="translate(369.563649 366.772604)scale(0.1 -0.1)">
       <use xlink:href="#DejaVuSans-50"/>
       <use x="63.623047" xlink:href="#DejaVuSans-48"/>
       <use x="127.246094" xlink:href="#DejaVuSans-48"/>
      </g>
     </g>
    </g>
    <g id="xtick_6">
     <g id="line2d_6">
      <g>
       <use style="stroke:#000000;stroke-width:0.8;" x="450.818167" xlink:href="#mffab257484" y="352.174167"/>
      </g>
     </g>
     <g id="text_6">
      <!-- 250 -->
      <g transform="translate(441.274417 366.772604)scale(0.1 -0.1)">
       <use xlink:href="#DejaVuSans-50"/>
       <use x="63.623047" xlink:href="#DejaVuSans-53"/>
       <use x="127.246094" xlink:href="#DejaVuSans-48"/>
      </g>
     </g>
    </g>
   </g>
   <g id="matplotlib.axis_2">
    <g id="ytick_1">
     <g id="line2d_7">
      <defs>
       <path d="M 0 0 
L -3.5 0 
" id="m2d38637b2e" style="stroke:#000000;stroke-width:0.8;"/>
      </defs>
      <g>
       <use style="stroke:#000000;stroke-width:0.8;" x="66.158594" xlink:href="#m2d38637b2e" y="352.174167"/>
      </g>
     </g>
     <g id="text_7">
      <!-- 0 -->
      <g transform="translate(52.796094 355.973385)scale(0.1 -0.1)">
       <use xlink:href="#DejaVuSans-48"/>
      </g>
     </g>
    </g>
    <g id="ytick_2">
     <g id="line2d_8">
      <g>
       <use style="stroke:#000000;stroke-width:0.8;" x="66.158594" xlink:href="#m2d38637b2e" y="311.203667"/>
      </g>
     </g>
     <g id="text_8">
      <!-- 10 -->
      <g transform="translate(46.433594 315.002886)scale(0.1 -0.1)">
       <use xlink:href="#DejaVuSans-49"/>
       <use x="63.623047" xlink:href="#DejaVuSans-48"/>
      </g>
     </g>
    </g>
    <g id="ytick_3">
     <g id="line2d_9">
      <g>
       <use style="stroke:#000000;stroke-width:0.8;" x="66.158594" xlink:href="#m2d38637b2e" y="270.233168"/>
      </g>
     </g>
     <g id="text_9">
      <!-- 20 -->
      <g transform="translate(46.433594 274.032386)scale(0.1 -0.1)">
       <use xlink:href="#DejaVuSans-50"/>
       <use x="63.623047" xlink:href="#DejaVuSans-48"/>
      </g>
     </g>
    </g>
    <g id="ytick_4">
     <g id="line2d_10">
      <g>
       <use style="stroke:#000000;stroke-width:0.8;" x="66.158594" xlink:href="#m2d38637b2e" y="229.262668"/>
      </g>
     </g>
     <g id="text_10">
      <!-- 30 -->
      <defs>
       <path d="M 40.578125 39.3125 
Q 47.65625 37.796875 51.625 33 
Q 55.609375 28.21875 55.609375 21.1875 
Q 55.609375 10.40625 48.1875 4.484375 
Q 40.765625 -1.421875 27.09375 -1.421875 
Q 22.515625 -1.421875 17.65625 -0.515625 
Q 12.796875 0.390625 7.625 2.203125 
L 7.625 11.71875 
Q 11.71875 9.328125 16.59375 8.109375 
Q 21.484375 6.890625 26.8125 6.890625 
Q 36.078125 6.890625 40.9375 10.546875 
Q 45.796875 14.203125 45.796875 21.1875 
Q 45.796875 27.640625 41.28125 31.265625 
Q 36.765625 34.90625 28.71875 34.90625 
L 20.21875 34.90625 
L 20.21875 43.015625 
L 29.109375 43.015625 
Q 36.375 43.015625 40.234375 45.921875 
Q 44.09375 48.828125 44.09375 54.296875 
Q 44.09375 59.90625 40.109375 62.90625 
Q 36.140625 65.921875 28.71875 65.921875 
Q 24.65625 65.921875 20.015625 65.03125 
Q 15.375 64.15625 9.8125 62.3125 
L 9.8125 71.09375 
Q 15.4375 72.65625 20.34375 73.4375 
Q 25.25 74.21875 29.59375 74.21875 
Q 40.828125 74.21875 47.359375 69.109375 
Q 53.90625 64.015625 53.90625 55.328125 
Q 53.90625 49.265625 50.4375 45.09375 
Q 46.96875 40.921875 40.578125 39.3125 
z
" id="DejaVuSans-51"/>
      </defs>
      <g transform="translate(46.433594 233.061887)scale(0.1 -0.1)">
       <use xlink:href="#DejaVuSans-51"/>
       <use x="63.623047" xlink:href="#DejaVuSans-48"/>
      </g>
     </g>
    </g>
    <g id="ytick_5">
     <g id="line2d_11">
      <g>
       <use style="stroke:#000000;stroke-width:0.8;" x="66.158594" xlink:href="#m2d38637b2e" y="188.292168"/>
      </g>
     </g>
     <g id="text_11">
      <!-- 40 -->
      <defs>
       <path d="M 37.796875 64.3125 
L 12.890625 25.390625 
L 37.796875 25.390625 
z
M 35.203125 72.90625 
L 47.609375 72.90625 
L 47.609375 25.390625 
L 58.015625 25.390625 
L 58.015625 17.1875 
L 47.609375 17.1875 
L 47.609375 0 
L 37.796875 0 
L 37.796875 17.1875 
L 4.890625 17.1875 
L 4.890625 26.703125 
z
" id="DejaVuSans-52"/>
      </defs>
      <g transform="translate(46.433594 192.091387)scale(0.1 -0.1)">
       <use xlink:href="#DejaVuSans-52"/>
       <use x="63.623047" xlink:href="#DejaVuSans-48"/>
      </g>
     </g>
    </g>
    <g id="ytick_6">
     <g id="line2d_12">
      <g>
       <use style="stroke:#000000;stroke-width:0.8;" x="66.158594" xlink:href="#m2d38637b2e" y="147.321669"/>
      </g>
     </g>
     <g id="text_12">
      <!-- 50 -->
      <g transform="translate(46.433594 151.120888)scale(0.1 -0.1)">
       <use xlink:href="#DejaVuSans-53"/>
       <use x="63.623047" xlink:href="#DejaVuSans-48"/>
      </g>
     </g>
    </g>
    <g id="ytick_7">
     <g id="line2d_13">
      <g>
       <use style="stroke:#000000;stroke-width:0.8;" x="66.158594" xlink:href="#m2d38637b2e" y="106.351169"/>
      </g>
     </g>
     <g id="text_13">
      <!-- 60 -->
      <defs>
       <path d="M 33.015625 40.375 
Q 26.375 40.375 22.484375 35.828125 
Q 18.609375 31.296875 18.609375 23.390625 
Q 18.609375 15.53125 22.484375 10.953125 
Q 26.375 6.390625 33.015625 6.390625 
Q 39.65625 6.390625 43.53125 10.953125 
Q 47.40625 15.53125 47.40625 23.390625 
Q 47.40625 31.296875 43.53125 35.828125 
Q 39.65625 40.375 33.015625 40.375 
z
M 52.59375 71.296875 
L 52.59375 62.3125 
Q 48.875 64.0625 45.09375 64.984375 
Q 41.3125 65.921875 37.59375 65.921875 
Q 27.828125 65.921875 22.671875 59.328125 
Q 17.53125 52.734375 16.796875 39.40625 
Q 19.671875 43.65625 24.015625 45.921875 
Q 28.375 48.1875 33.59375 48.1875 
Q 44.578125 48.1875 50.953125 41.515625 
Q 57.328125 34.859375 57.328125 23.390625 
Q 57.328125 12.15625 50.6875 5.359375 
Q 44.046875 -1.421875 33.015625 -1.421875 
Q 20.359375 -1.421875 13.671875 8.265625 
Q 6.984375 17.96875 6.984375 36.375 
Q 6.984375 53.65625 15.1875 63.9375 
Q 23.390625 74.21875 37.203125 74.21875 
Q 40.921875 74.21875 44.703125 73.484375 
Q 48.484375 72.75 52.59375 71.296875 
z
" id="DejaVuSans-54"/>
      </defs>
      <g transform="translate(46.433594 110.150388)scale(0.1 -0.1)">
       <use xlink:href="#DejaVuSans-54"/>
       <use x="63.623047" xlink:href="#DejaVuSans-48"/>
      </g>
     </g>
    </g>
    <g id="ytick_8">
     <g id="line2d_14">
      <g>
       <use style="stroke:#000000;stroke-width:0.8;" x="66.158594" xlink:href="#m2d38637b2e" y="65.38067"/>
      </g>
     </g>
     <g id="text_14">
      <!-- 70 -->
      <defs>
       <path d="M 8.203125 72.90625 
L 55.078125 72.90625 
L 55.078125 68.703125 
L 28.609375 0 
L 18.3125 0 
L 43.21875 64.59375 
L 8.203125 64.59375 
z
" id="DejaVuSans-55"/>
      </defs>
      <g transform="translate(46.433594 69.179888)scale(0.1 -0.1)">
       <use xlink:href="#DejaVuSans-55"/>
       <use x="63.623047" xlink:href="#DejaVuSans-48"/>
      </g>
     </g>
    </g>
    <g id="text_15">
     <!-- droprate -->
     <defs>
      <path d="M 45.40625 46.390625 
L 45.40625 75.984375 
L 54.390625 75.984375 
L 54.390625 0 
L 45.40625 0 
L 45.40625 8.203125 
Q 42.578125 3.328125 38.25 0.953125 
Q 33.9375 -1.421875 27.875 -1.421875 
Q 17.96875 -1.421875 11.734375 6.484375 
Q 5.515625 14.40625 5.515625 27.296875 
Q 5.515625 40.1875 11.734375 48.09375 
Q 17.96875 56 27.875 56 
Q 33.9375 56 38.25 53.625 
Q 42.578125 51.265625 45.40625 46.390625 
z
M 14.796875 27.296875 
Q 14.796875 17.390625 18.875 11.75 
Q 22.953125 6.109375 30.078125 6.109375 
Q 37.203125 6.109375 41.296875 11.75 
Q 45.40625 17.390625 45.40625 27.296875 
Q 45.40625 37.203125 41.296875 42.84375 
Q 37.203125 48.484375 30.078125 48.484375 
Q 22.953125 48.484375 18.875 42.84375 
Q 14.796875 37.203125 14.796875 27.296875 
z
" id="DejaVuSans-100"/>
      <path d="M 41.109375 46.296875 
Q 39.59375 47.171875 37.8125 47.578125 
Q 36.03125 48 33.890625 48 
Q 26.265625 48 22.1875 43.046875 
Q 18.109375 38.09375 18.109375 28.8125 
L 18.109375 0 
L 9.078125 0 
L 9.078125 54.6875 
L 18.109375 54.6875 
L 18.109375 46.1875 
Q 20.953125 51.171875 25.484375 53.578125 
Q 30.03125 56 36.53125 56 
Q 37.453125 56 38.578125 55.875 
Q 39.703125 55.765625 41.0625 55.515625 
z
" id="DejaVuSans-114"/>
      <path d="M 30.609375 48.390625 
Q 23.390625 48.390625 19.1875 42.75 
Q 14.984375 37.109375 14.984375 27.296875 
Q 14.984375 17.484375 19.15625 11.84375 
Q 23.34375 6.203125 30.609375 6.203125 
Q 37.796875 6.203125 41.984375 11.859375 
Q 46.1875 17.53125 46.1875 27.296875 
Q 46.1875 37.015625 41.984375 42.703125 
Q 37.796875 48.390625 30.609375 48.390625 
z
M 30.609375 56 
Q 42.328125 56 49.015625 48.375 
Q 55.71875 40.765625 55.71875 27.296875 
Q 55.71875 13.875 49.015625 6.21875 
Q 42.328125 -1.421875 30.609375 -1.421875 
Q 18.84375 -1.421875 12.171875 6.21875 
Q 5.515625 13.875 5.515625 27.296875 
Q 5.515625 40.765625 12.171875 48.375 
Q 18.84375 56 30.609375 56 
z
" id="DejaVuSans-111"/>
      <path d="M 18.109375 8.203125 
L 18.109375 -20.796875 
L 9.078125 -20.796875 
L 9.078125 54.6875 
L 18.109375 54.6875 
L 18.109375 46.390625 
Q 20.953125 51.265625 25.265625 53.625 
Q 29.59375 56 35.59375 56 
Q 45.5625 56 51.78125 48.09375 
Q 58.015625 40.1875 58.015625 27.296875 
Q 58.015625 14.40625 51.78125 6.484375 
Q 45.5625 -1.421875 35.59375 -1.421875 
Q 29.59375 -1.421875 25.265625 0.953125 
Q 20.953125 3.328125 18.109375 8.203125 
z
M 48.6875 27.296875 
Q 48.6875 37.203125 44.609375 42.84375 
Q 40.53125 48.484375 33.40625 48.484375 
Q 26.265625 48.484375 22.1875 42.84375 
Q 18.109375 37.203125 18.109375 27.296875 
Q 18.109375 17.390625 22.1875 11.75 
Q 26.265625 6.109375 33.40625 6.109375 
Q 40.53125 6.109375 44.609375 11.75 
Q 48.6875 17.390625 48.6875 27.296875 
z
" id="DejaVuSans-112"/>
      <path d="M 34.28125 27.484375 
Q 23.390625 27.484375 19.1875 25 
Q 14.984375 22.515625 14.984375 16.5 
Q 14.984375 11.71875 18.140625 8.90625 
Q 21.296875 6.109375 26.703125 6.109375 
Q 34.1875 6.109375 38.703125 11.40625 
Q 43.21875 16.703125 43.21875 25.484375 
L 43.21875 27.484375 
z
M 52.203125 31.203125 
L 52.203125 0 
L 43.21875 0 
L 43.21875 8.296875 
Q 40.140625 3.328125 35.546875 0.953125 
Q 30.953125 -1.421875 24.3125 -1.421875 
Q 15.921875 -1.421875 10.953125 3.296875 
Q 6 8.015625 6 15.921875 
Q 6 25.140625 12.171875 29.828125 
Q 18.359375 34.515625 30.609375 34.515625 
L 43.21875 34.515625 
L 43.21875 35.40625 
Q 43.21875 41.609375 39.140625 45 
Q 35.0625 48.390625 27.6875 48.390625 
Q 23 48.390625 18.546875 47.265625 
Q 14.109375 46.140625 10.015625 43.890625 
L 10.015625 52.203125 
Q 14.9375 54.109375 19.578125 55.046875 
Q 24.21875 56 28.609375 56 
Q 40.484375 56 46.34375 49.84375 
Q 52.203125 43.703125 52.203125 31.203125 
z
" id="DejaVuSans-97"/>
      <path d="M 18.3125 70.21875 
L 18.3125 54.6875 
L 36.8125 54.6875 
L 36.8125 47.703125 
L 18.3125 47.703125 
L 18.3125 18.015625 
Q 18.3125 11.328125 20.140625 9.421875 
Q 21.96875 7.515625 27.59375 7.515625 
L 36.8125 7.515625 
L 36.8125 0 
L 27.59375 0 
Q 17.1875 0 13.234375 3.875 
Q 9.28125 7.765625 9.28125 18.015625 
L 9.28125 47.703125 
L 2.6875 47.703125 
L 2.6875 54.6875 
L 9.28125 54.6875 
L 9.28125 70.21875 
z
" id="DejaVuSans-116"/>
      <path d="M 56.203125 29.59375 
L 56.203125 25.203125 
L 14.890625 25.203125 
Q 15.484375 15.921875 20.484375 11.0625 
Q 25.484375 6.203125 34.421875 6.203125 
Q 39.59375 6.203125 44.453125 7.46875 
Q 49.3125 8.734375 54.109375 11.28125 
L 54.109375 2.78125 
Q 49.265625 0.734375 44.1875 -0.34375 
Q 39.109375 -1.421875 33.890625 -1.421875 
Q 20.796875 -1.421875 13.15625 6.1875 
Q 5.515625 13.8125 5.515625 26.8125 
Q 5.515625 40.234375 12.765625 48.109375 
Q 20.015625 56 32.328125 56 
Q 43.359375 56 49.78125 48.890625 
Q 56.203125 41.796875 56.203125 29.59375 
z
M 47.21875 32.234375 
Q 47.125 39.59375 43.09375 43.984375 
Q 39.0625 48.390625 32.421875 48.390625 
Q 24.90625 48.390625 20.390625 44.140625 
Q 15.875 39.890625 15.1875 32.171875 
z
" id="DejaVuSans-101"/>
     </defs>
     <g transform="translate(40.353906 215.236302)rotate(-90)scale(0.1 -0.1)">
      <use xlink:href="#DejaVuSans-100"/>
      <use x="63.476562" xlink:href="#DejaVuSans-114"/>
      <use x="104.558594" xlink:href="#DejaVuSans-111"/>
      <use x="165.740234" xlink:href="#DejaVuSans-112"/>
      <use x="229.216797" xlink:href="#DejaVuSans-114"/>
      <use x="270.330078" xlink:href="#DejaVuSans-97"/>
      <use x="331.609375" xlink:href="#DejaVuSans-116"/>
      <use x="370.818359" xlink:href="#DejaVuSans-101"/>
     </g>
    </g>
   </g>
   <g id="line2d_15">
    <path clip-path="url(#pe6cb944b7e)" d="M 86.606804 352.174167 
L 91.84438 352.174167 
L 91.997785 201.923185 
L 92.149171 195.74135 
L 92.300994 352.174167 
L 94.575559 352.174167 
L 94.726979 343.173961 
L 94.879407 318.744727 
L 95.182622 205.150843 
L 95.334389 50.163056 
L 95.485832 160.455752 
L 95.637289 179.996327 
L 95.788353 297.625321 
L 95.940219 298.172935 
L 96.091437 352.174167 
L 97.609331 352.174167 
L 97.761747 345.170662 
L 97.913241 351.390792 
L 98.065349 347.491824 
L 98.216137 352.174167 
L 98.368393 345.553459 
L 98.520533 352.174167 
L 98.672513 341.638895 
L 98.824505 352.174167 
L 98.976494 338.894882 
L 99.127572 352.174167 
L 99.278541 352.174167 
L 99.430625 349.835223 
L 99.732968 350.996853 
L 99.885468 339.447859 
L 100.037284 352.174167 
L 100.189364 352.174167 
L 100.341002 349.445399 
L 100.492696 338.504315 
L 100.644286 343.182549 
L 100.795739 339.248483 
L 100.946746 352.174167 
L 101.097574 338.412483 
L 101.248592 352.174167 
L 101.399491 338.019292 
L 101.550273 350.601403 
L 101.851805 338.005694 
L 102.002595 352.174167 
L 102.153325 340.378437 
L 102.305139 352.174167 
L 102.456874 341.22785 
L 102.607855 352.174167 
L 102.759522 340.44597 
L 102.911088 352.174167 
L 103.214512 344.355369 
L 103.366216 352.174167 
L 103.517875 350.219467 
L 103.669491 344.746309 
L 103.821487 351.783971 
L 103.973205 344.75339 
L 104.124424 352.174167 
L 104.275293 352.174167 
L 104.427221 340.847718 
L 104.5786 352.174167 
L 104.730391 340.46831 
L 104.882076 352.174167 
L 105.033772 345.913154 
L 105.185631 352.174167 
L 105.337208 343.964429 
L 105.48863 352.174167 
L 105.639728 340.389747 
L 105.791677 352.174167 
L 105.94442 345.966515 
L 106.097062 345.508684 
L 106.250876 352.174167 
L 106.403345 352.174167 
L 106.554682 304.734641 
L 106.70674 317.446791 
L 106.857688 316.85477 
L 107.010552 321.077013 
L 107.162824 351.784713 
L 107.31488 342.428567 
L 107.466748 352.174167 
L 107.61924 345.164005 
L 107.771499 346.332365 
L 107.922699 352.174167 
L 108.075078 346.326807 
L 108.226929 352.174167 
L 108.378714 347.869721 
L 108.530653 352.174167 
L 108.683272 345.94883 
L 108.835059 352.174167 
L 109.290289 352.174167 
L 109.441263 351.389291 
L 109.593009 352.174167 
L 109.743899 349.817283 
L 109.89585 352.174167 
L 110.047673 352.174167 
L 110.199875 349.447993 
L 110.350793 352.174167 
L 111.56307 352.174167 
L 111.714021 351.388539 
L 111.864674 352.174167 
L 114.43475 352.174167 
L 114.585968 351.782104 
L 114.737375 352.174167 
L 114.888094 350.211978 
L 115.038633 352.174167 
L 117.006698 352.174167 
L 117.157772 351.781729 
L 117.308384 352.174167 
L 118.367875 352.174167 
L 118.520504 351.398944 
L 118.672129 352.174167 
L 119.728469 352.174167 
L 119.880085 350.999105 
L 120.031017 352.174167 
L 120.181833 350.994594 
L 120.332893 352.174167 
L 121.089897 352.174167 
L 121.242086 344.370262 
L 121.394038 352.174167 
L 123.215001 352.174167 
L 123.367234 351.396738 
L 123.520131 352.174167 
L 125.637748 352.174167 
L 125.788869 350.21573 
L 125.939838 352.174167 
L 128.66747 352.174167 
L 128.818838 350.607417 
L 128.970525 352.174167 
L 130.031244 352.174167 
L 130.181926 351.780598 
L 130.332857 352.174167 
L 131.845518 352.174167 
L 131.996663 351.781729 
L 132.149013 351.784343 
L 132.301178 352.174167 
L 133.359947 352.174167 
L 133.512268 351.394519 
L 133.664205 352.174167 
L 134.57189 352.174167 
L 134.874485 351.387785 
L 135.025278 352.174167 
L 135.784573 352.174167 
L 135.935531 334.497537 
L 136.086863 352.174167 
L 136.992688 352.174167 
L 137.144118 351.39154 
L 137.296149 352.174167 
L 137.597712 352.174167 
L 137.748674 350.995725 
L 137.89945 352.174167 
L 138.050079 349.812755 
L 138.201104 352.174167 
L 139.561244 352.174167 
L 139.712501 351.781729 
L 139.864404 352.174167 
L 141.225154 352.174167 
L 141.376627 351.39154 
L 141.527904 352.174167 
L 141.678613 351.780976 
L 141.829811 352.174167 
L 143.040788 352.174167 
L 143.191732 350.996853 
L 143.342741 352.174167 
L 143.493876 350.213856 
L 143.644681 352.174167 
L 144.701832 352.174167 
L 144.852658 351.780976 
L 145.003616 352.174167 
L 145.154912 350.996853 
L 145.306262 352.174167 
L 145.45795 351.393032 
L 145.610369 352.174167 
L 147.270529 352.174167 
L 147.421244 349.812755 
L 147.573809 352.174167 
L 148.481644 352.174167 
L 148.632781 351.388539 
L 148.784638 352.174167 
L 149.539252 352.174167 
L 149.690452 351.389291 
L 149.841169 351.387029 
L 149.992601 352.174167 
L 151.813975 352.174167 
L 151.965327 351.389291 
L 152.116192 352.174167 
L 153.477508 352.174167 
L 153.628448 350.996853 
L 153.779265 352.174167 
L 155.898312 352.174167 
L 156.049152 350.204431 
L 156.199932 352.174167 
L 156.803358 352.174167 
L 156.954248 351.387785 
L 157.105503 352.174167 
L 158.315108 352.174167 
L 158.466425 350.99798 
L 158.617946 352.174167 
L 159.830967 352.174167 
L 159.98267 351.782853 
L 160.134059 352.174167 
L 160.739658 352.174167 
L 160.890702 351.781353 
L 161.041872 352.174167 
L 161.949353 352.174167 
L 162.100743 351.389291 
L 162.251817 352.174167 
L 163.614292 352.174167 
L 163.765516 350.996853 
L 163.916335 352.174167 
L 165.124289 352.174167 
L 165.274989 324.624359 
L 165.425976 349.028639 
L 165.576755 349.815021 
L 165.879395 352.174167 
L 166.786484 352.174167 
L 166.937891 350.605918 
L 167.08922 352.174167 
L 167.391988 352.174167 
L 167.543575 351.000227 
L 167.694702 351.781729 
L 167.84574 350.602911 
L 167.997293 352.174167 
L 168.299798 352.174167 
L 168.456389 351.794459 
L 168.6087 351.010232 
L 168.759815 352.174167 
L 169.062233 352.174167 
L 169.213376 351.781729 
L 169.364466 352.174167 
L 169.515403 351.387785 
L 169.666369 352.174167 
L 170.57407 352.174167 
L 170.725342 351.782104 
L 170.876699 352.174167 
L 171.329561 352.174167 
L 171.632089 351.390042 
L 171.782877 352.174167 
L 172.536804 352.174167 
L 172.689132 351.003581 
L 172.840609 352.174167 
L 173.143777 352.174167 
L 173.294255 351.77984 
L 173.445893 352.174167 
L 173.899862 352.174167 
L 174.355669 351.010232 
L 174.506424 352.174167 
L 175.112257 352.174167 
L 175.262508 350.596862 
L 175.41379 352.174167 
L 176.019508 352.174167 
L 176.170773 351.390042 
L 176.321451 352.174167 
L 176.472523 349.429731 
L 176.623116 352.174167 
L 177.378918 352.174167 
L 177.832493 350.999105 
L 177.983319 352.174167 
L 178.586782 352.174167 
L 178.738167 350.999105 
L 178.889536 352.174167 
L 179.799708 352.174167 
L 179.950477 347.853213 
L 180.101726 339.211305 
L 180.252707 352.174167 
L 180.403925 345.130528 
L 180.555742 352.174167 
L 180.706475 349.812755 
L 180.857114 349.42183 
L 181.008237 351.389291 
L 181.158826 346.653599 
L 181.462348 351.785083 
L 181.615123 350.617832 
L 181.766391 352.174167 
L 182.068339 351.387785 
L 182.220005 352.174167 
L 184.796095 352.174167 
L 184.948223 351.785083 
L 185.09923 352.174167 
L 185.401959 352.174167 
L 185.553234 351.389291 
L 185.704899 352.174167 
L 185.858422 351.401867 
L 186.009356 352.174167 
L 187.22274 352.174167 
L 187.374824 351.393776 
L 187.525796 352.174167 
L 187.829179 351.004695 
L 187.980474 352.174167 
L 188.131825 352.174167 
L 188.282423 351.384754 
L 188.434263 352.174167 
L 188.889686 352.174167 
L 189.040651 351.778316 
L 189.192079 352.174167 
L 191.012256 352.174167 
L 191.164309 351.784343 
L 191.316174 352.174167 
L 191.770345 352.174167 
L 191.92152 351.782853 
L 192.07265 352.174167 
L 192.223424 351.387785 
L 192.525569 352.174167 
L 192.827802 350.604416 
L 192.979855 352.174167 
L 194.494187 352.174167 
L 194.645181 338.032863 
L 194.947184 352.174167 
L 195.098515 351.782104 
L 195.249326 350.602911 
L 195.400171 352.174167 
L 195.554376 349.471118 
L 195.71209 352.174167 
L 196.165466 352.174167 
L 196.316792 350.99798 
L 196.467943 352.174167 
L 197.980891 352.174167 
L 198.132098 351.387785 
L 198.283112 352.174167 
L 199.038496 352.174167 
L 199.190286 351.783599 
L 199.341482 352.174167 
L 200.701919 352.174167 
L 200.853052 351.782104 
L 201.004251 352.174167 
L 201.911564 352.174167 
L 202.062867 351.782853 
L 202.213812 351.780976 
L 202.365016 352.174167 
L 202.667215 352.174167 
L 202.818338 351.782479 
L 202.969872 352.174167 
L 203.726826 352.174167 
L 203.877543 350.994594 
L 204.028274 352.174167 
L 205.237403 352.174167 
L 205.387839 351.385514 
L 205.53833 352.174167 
L 205.688944 350.206323 
L 205.839493 352.174167 
L 205.990411 351.388539 
L 206.140956 352.174167 
L 206.291659 350.206323 
L 206.442303 352.174167 
L 208.100741 352.174167 
L 208.251205 351.78022 
L 208.401672 352.174167 
L 208.552322 350.992325 
L 208.702801 352.174167 
L 209.307791 352.174167 
L 209.458931 341.578348 
L 209.610124 350.996853 
L 209.761356 352.174167 
L 209.91198 347.844911 
L 210.062832 352.174167 
L 210.81904 352.174167 
L 210.969449 350.596862 
L 211.119876 352.174167 
L 211.27039 350.992325 
L 211.420965 351.78022 
L 211.571486 349.810484 
L 211.722399 352.174167 
L 211.873126 349.815021 
L 212.024426 352.174167 
L 214.28714 352.174167 
L 214.437809 349.416537 
L 214.589045 352.174167 
L 215.793988 352.174167 
L 215.945906 351.393032 
L 216.097136 352.174167 
L 216.247775 352.174167 
L 216.398565 351.78022 
L 216.549 352.174167 
L 216.699689 352.174167 
L 216.850183 350.992325 
L 217.000625 352.174167 
L 220.194098 352.174167 
L 220.345787 351.783227 
L 220.49719 352.174167 
L 220.647696 352.174167 
L 220.798303 351.387029 
L 220.948773 352.174167 
L 222.15423 352.174167 
L 222.304927 351.387029 
L 222.60606 352.174167 
L 223.210961 352.174167 
L 223.362102 351.388539 
L 223.513581 352.174167 
L 223.969445 352.174167 
L 224.120428 350.995725 
L 224.272433 352.174167 
L 226.239386 352.174167 
L 226.390801 350.605918 
L 226.542012 352.174167 
L 228.810529 352.174167 
L 228.961942 351.782104 
L 229.112772 352.174167 
L 229.416631 352.174167 
L 229.56851 351.784343 
L 229.870955 351.781353 
L 230.023365 351.396738 
L 230.17442 352.174167 
L 231.388196 352.174167 
L 231.539507 350.607417 
L 231.691603 352.174167 
L 233.057131 352.174167 
L 233.209059 351.783599 
L 233.360151 351.781729 
L 233.511166 352.174167 
L 234.26637 352.174167 
L 234.418687 351.784343 
L 234.571192 352.174167 
L 235.479159 352.174167 
L 235.63017 351.782104 
L 235.781345 351.782479 
L 235.932232 351.387785 
L 236.083511 352.174167 
L 237.749512 352.174167 
L 237.901506 349.440196 
L 238.052804 352.174167 
L 238.807072 352.174167 
L 238.958576 350.608914 
L 239.260368 352.174167 
L 240.921903 352.174167 
L 241.073459 351.392287 
L 241.225314 352.174167 
L 243.19202 352.174167 
L 243.343266 351.387785 
L 243.494012 352.174167 
L 244.551691 352.174167 
L 244.703153 351.39154 
L 244.854075 352.174167 
L 245.759889 352.174167 
L 245.910796 350.602911 
L 246.061967 352.174167 
L 246.212848 350.994594 
L 246.364063 352.174167 
L 246.968583 352.174167 
L 247.119474 351.781353 
L 247.271469 352.174167 
L 248.63134 352.174167 
L 248.782294 351.782104 
L 248.933785 352.174167 
L 251.209066 352.174167 
L 251.359899 351.780598 
L 251.510935 352.174167 
L 253.336306 352.174167 
L 253.487384 350.211978 
L 253.639256 351.783599 
L 253.790608 352.174167 
L 255.908573 352.174167 
L 256.060285 351.782853 
L 256.211375 352.174167 
L 257.421317 352.174167 
L 257.573734 350.230595 
L 257.725542 352.174167 
L 257.876259 350.994594 
L 258.027322 352.174167 
L 259.539732 352.174167 
L 259.691249 351.390042 
L 259.842148 352.174167 
L 261.353943 352.174167 
L 261.505603 351.390792 
L 261.656406 352.174167 
L 263.168784 352.174167 
L 263.321877 351.011333 
L 263.474523 352.174167 
L 263.625239 349.817283 
L 263.776598 352.174167 
L 265.137678 352.174167 
L 265.288946 351.390042 
L 265.440115 349.817283 
L 265.591121 352.174167 
L 266.648883 352.174167 
L 266.799908 350.994594 
L 266.951227 352.174167 
L 268.617145 352.174167 
L 268.768213 351.389291 
L 268.919538 352.174167 
L 270.13037 352.174167 
L 270.281595 350.607417 
L 270.433241 352.174167 
L 271.189398 352.174167 
L 271.340372 350.604416 
L 271.491245 352.174167 
L 273.308357 352.174167 
L 273.459969 350.610407 
L 273.611026 352.174167 
L 274.365267 352.174167 
L 274.515748 351.77984 
L 274.667455 351.783599 
L 274.819869 352.174167 
L 275.725591 352.174167 
L 276.02798 351.390792 
L 276.179578 352.174167 
L 276.330346 349.42183 
L 276.48131 352.174167 
L 278.599824 352.174167 
L 278.752042 350.614871 
L 278.904644 352.174167 
L 279.208924 352.174167 
L 279.360343 351.39154 
L 279.511414 352.174167 
L 281.481757 352.174167 
L 281.632858 351.782104 
L 281.784841 351.783599 
L 281.936233 352.174167 
L 283.758422 352.174167 
L 283.909309 351.388539 
L 284.060148 352.174167 
L 284.817608 352.174167 
L 284.9699 349.835223 
L 285.120997 352.174167 
L 285.423684 352.174167 
L 285.575292 351.783599 
L 285.726674 352.174167 
L 285.877777 349.81954 
L 286.029695 352.174167 
L 286.938916 352.174167 
L 287.090409 351.782479 
L 287.24212 351.783227 
L 287.393292 350.996853 
L 287.544719 351.39154 
L 287.696304 352.174167 
L 288.001176 352.174167 
L 288.152878 351.392287 
L 288.304727 352.174167 
L 288.911733 352.174167 
L 289.063425 351.783227 
L 289.214563 352.174167 
L 289.365673 351.781353 
L 289.671116 351.785821 
L 289.82381 352.174167 
L 290.581328 352.174167 
L 290.732768 351.782104 
L 290.884571 352.174167 
L 291.644599 352.174167 
L 291.796443 351.393776 
L 291.947938 352.174167 
L 293.311391 352.174167 
L 293.46469 351.011333 
L 293.616124 352.174167 
L 295.128682 352.174167 
L 295.280047 351.781729 
L 295.431274 352.174167 
L 296.490329 352.174167 
L 296.64159 350.211978 
L 296.793066 352.174167 
L 298.012938 352.174167 
L 298.164458 351.782479 
L 298.315407 352.174167 
L 299.222595 352.174167 
L 299.373245 351.780598 
L 299.524689 352.174167 
L 301.194195 352.174167 
L 301.344918 351.386272 
L 301.495615 352.174167 
L 302.406761 352.174167 
L 302.557783 351.388539 
L 302.709191 352.174167 
L 303.770171 352.174167 
L 303.920967 351.780976 
L 304.072646 352.174167 
L 304.224364 352.174167 
L 304.526776 350.996853 
L 304.678328 351.390792 
L 304.830975 350.230595 
L 304.983314 352.174167 
L 305.588273 352.174167 
L 305.739557 351.389291 
L 305.891656 352.174167 
L 306.19564 352.174167 
L 306.347038 351.782104 
L 306.497646 352.174167 
L 307.859597 352.174167 
L 308.011507 351.783599 
L 308.163419 352.174167 
L 310.13168 352.174167 
L 310.283136 351.390792 
L 310.43604 352.174167 
L 313.629366 352.174167 
L 313.785641 351.030804 
L 313.937028 352.174167 
L 315.906879 352.174167 
L 316.058275 350.999105 
L 316.210269 352.174167 
L 317.120403 352.174167 
L 317.271423 350.995725 
L 317.422421 352.174167 
L 318.937165 352.174167 
L 319.088869 351.39154 
L 319.241141 352.174167 
L 319.392597 352.174167 
L 319.544904 351.39526 
L 319.695717 352.174167 
L 320.604488 352.174167 
L 320.755214 351.387785 
L 320.906859 352.174167 
L 321.058693 351.783227 
L 321.210439 352.174167 
L 322.426007 352.174167 
L 322.578908 350.619309 
L 322.730768 352.174167 
L 324.70721 352.174167 
L 324.858174 351.389291 
L 325.009793 352.174167 
L 326.074763 352.174167 
L 326.226557 351.393032 
L 326.37821 352.174167 
L 328.051778 352.174167 
L 328.202545 350.996853 
L 328.353188 352.174167 
L 330.015578 352.174167 
L 330.167453 351.394519 
L 330.318995 352.174167 
L 331.077667 352.174167 
L 331.229569 351.39526 
L 331.381422 352.174167 
L 332.290971 352.174167 
L 332.442104 350.211978 
L 332.593301 352.174167 
L 333.197929 352.174167 
L 333.34912 351.390042 
L 333.501714 352.174167 
L 333.653135 351.392287 
L 333.804839 352.174167 
L 334.867961 352.174167 
L 335.022778 351.404768 
L 335.173818 352.174167 
L 335.325872 351.393776 
L 335.477836 352.174167 
L 335.630075 351.785083 
L 335.782076 352.174167 
L 335.933665 349.437587 
L 336.085758 352.174167 
L 336.389128 352.174167 
L 336.540095 351.388539 
L 336.692107 352.174167 
L 336.84454 350.228749 
L 336.996369 352.174167 
L 338.364109 352.174167 
L 338.516197 351.784713 
L 338.668186 352.174167 
L 338.820126 351.002465 
L 338.971961 352.174167 
L 339.730497 352.174167 
L 339.882482 351.783599 
L 340.185791 351.783227 
L 340.337559 352.174167 
L 341.865478 352.174167 
L 342.019013 349.084968 
L 342.170477 352.174167 
L 342.475467 352.174167 
L 342.627219 351.392287 
L 342.779557 352.174167 
L 343.843085 352.174167 
L 343.994819 351.003581 
L 344.146733 352.174167 
L 345.057869 352.174167 
L 345.209106 350.605918 
L 345.360789 352.174167 
L 345.967543 352.174167 
L 346.119102 350.2176 
L 346.270814 352.174167 
L 347.181393 352.174167 
L 347.333575 351.783971 
L 347.485685 352.174167 
L 348.242768 352.174167 
L 348.394426 351.001347 
L 348.547808 352.174167 
L 348.699528 351.002465 
L 348.851289 352.174167 
L 349.002967 349.046648 
L 349.154667 352.174167 
L 349.758696 352.174167 
L 349.909462 350.206323 
L 350.060069 352.174167 
L 350.815388 352.174167 
L 350.965935 351.385514 
L 351.116544 352.174167 
L 351.26844 351.003581 
L 351.419111 352.174167 
L 353.83579 352.174167 
L 353.987178 350.607417 
L 354.138571 352.174167 
L 354.593939 352.174167 
L 354.745644 351.783599 
L 354.897353 352.174167 
L 357.48365 352.174167 
L 357.635528 351.001347 
L 357.787007 352.174167 
L 357.939651 351.785452 
L 358.091473 351.783599 
L 358.242297 351.387785 
L 358.393209 352.174167 
L 359.298922 352.174167 
L 359.450156 350.213856 
L 359.601853 352.174167 
L 360.054398 352.174167 
L 360.205133 351.387029 
L 360.355821 352.174167 
L 361.864768 352.174167 
L 362.015452 351.780976 
L 362.166229 352.174167 
L 363.829349 352.174167 
L 363.980732 351.782479 
L 364.132671 352.174167 
L 365.038563 352.174167 
L 365.191745 351.786922 
L 365.343647 352.174167 
L 365.646469 352.174167 
L 365.797498 351.781353 
L 365.94796 350.993461 
L 366.249938 352.174167 
L 366.705594 352.174167 
L 366.856891 351.389291 
L 367.008263 352.174167 
L 367.160473 352.174167 
L 367.311946 351.001347 
L 367.46284 352.174167 
L 368.676471 352.174167 
L 368.828311 351.000227 
L 368.979254 352.174167 
L 369.586213 352.174167 
L 369.737075 350.208212 
L 369.888001 352.174167 
L 372.011527 352.174167 
L 372.163401 350.613386 
L 372.316721 352.174167 
L 372.619967 352.174167 
L 372.77099 350.605918 
L 372.922249 352.174167 
L 374.132202 352.174167 
L 374.283413 351.387785 
L 374.434875 352.174167 
L 374.586078 350.99798 
L 374.736913 352.174167 
L 374.887517 351.78022 
L 375.038642 352.174167 
L 375.945371 352.174167 
L 376.095985 351.780598 
L 376.246654 350.598378 
L 376.397411 352.174167 
L 379.430339 352.174167 
L 379.581597 351.39154 
L 379.732681 352.174167 
L 380.4942 352.174167 
L 380.646318 349.835223 
L 380.798158 352.174167 
L 381.406651 352.174167 
L 381.558512 351.783599 
L 381.710298 352.174167 
L 381.862024 351.002465 
L 382.013818 351.392287 
L 382.165546 352.174167 
L 383.380354 352.174167 
L 383.532306 351.783971 
L 383.684178 352.174167 
L 387.025338 352.174167 
L 387.176228 350.601403 
L 387.327427 352.174167 
L 387.781489 352.174167 
L 387.932601 350.602911 
L 388.084312 352.174167 
L 389.292757 352.174167 
L 389.444311 350.21573 
L 389.595566 352.174167 
L 390.503294 352.174167 
L 390.654876 351.782479 
L 390.806919 352.174167 
L 392.166357 352.174167 
L 392.31778 350.21573 
L 392.468986 352.174167 
L 393.076126 352.174167 
L 393.226908 350.995725 
L 393.37861 352.174167 
L 395.196922 352.174167 
L 395.34791 351.388539 
L 395.499772 352.174167 
L 395.651464 351.783227 
L 395.803168 350.610407 
L 395.955099 352.174167 
L 399.293294 352.174167 
L 399.445228 350.611898 
L 399.596565 352.174167 
L 402.935951 352.174167 
L 403.087783 351.002465 
L 403.239272 352.174167 
L 403.542632 352.174167 
L 403.694267 351.392287 
L 403.845897 352.174167 
L 405.818145 352.174167 
L 405.970024 351.783599 
L 406.12211 352.174167 
L 408.395578 352.174167 
L 408.548402 351.010232 
L 408.700302 352.174167 
L 409.760887 352.174167 
L 409.91254 351.001347 
L 410.064343 352.174167 
L 411.580694 352.174167 
L 411.732327 351.783227 
L 411.883237 352.174167 
L 412.033797 350.206323 
L 412.18462 352.174167 
L 413.547831 352.174167 
L 413.699263 351.392287 
L 413.850831 351.39154 
L 414.003791 352.174167 
L 417.026767 352.174167 
L 417.178489 351.390792 
L 417.329686 352.174167 
L 417.933424 352.174167 
L 418.084348 351.780976 
L 418.237674 352.174167 
L 419.751819 352.174167 
L 420.056195 351.001347 
L 420.207699 351.390792 
L 420.359331 352.174167 
L 422.322923 352.174167 
L 422.474911 351.783227 
L 422.626279 352.174167 
L 422.928492 352.174167 
L 423.079289 350.602911 
L 423.230612 352.174167 
L 424.286575 352.174167 
L 424.437231 351.387029 
L 424.588165 352.174167 
L 424.738911 349.815021 
L 424.88963 352.174167 
L 426.098831 352.174167 
L 426.249652 351.388539 
L 426.400468 352.174167 
L 428.063916 352.174167 
L 428.215073 351.389291 
L 428.365981 352.174167 
L 429.121635 352.174167 
L 429.424057 350.211978 
L 429.575152 352.174167 
L 431.708026 352.174167 
L 431.858805 351.387785 
L 432.010528 352.174167 
L 433.066812 352.174167 
L 433.367909 351.386272 
L 433.518427 352.174167 
L 434.572968 352.174167 
L 434.723787 350.995725 
L 435.02481 352.174167 
L 435.780421 352.174167 
L 435.93098 351.386272 
L 436.081606 352.174167 
L 437.441349 352.174167 
L 437.593047 351.001347 
L 437.743634 352.174167 
L 438.652242 352.174167 
L 438.803941 351.393032 
L 438.955171 352.174167 
L 439.106445 349.81954 
L 439.257526 352.174167 
L 439.559618 352.174167 
L 439.71153 351.783971 
L 439.86273 352.174167 
L 440.16421 352.174167 
L 440.31595 351.783227 
L 440.46761 352.174167 
L 441.523858 352.174167 
L 441.674486 350.993461 
L 441.825344 352.174167 
L 442.126711 352.174167 
L 442.277488 351.780598 
L 442.428178 352.174167 
L 443.334191 352.174167 
L 443.63709 349.817283 
L 443.788928 352.174167 
L 446.207265 352.174167 
L 446.357931 351.780598 
L 446.508623 350.993461 
L 446.810476 352.174167 
L 447.262621 352.174167 
L 447.41335 351.387029 
L 447.564531 352.174167 
L 447.716788 352.174167 
L 447.86884 351.784343 
L 448.019629 352.174167 
L 449.077208 352.174167 
L 449.228424 351.781729 
L 449.379071 352.174167 
L 449.529814 351.78022 
L 449.68107 352.174167 
L 449.832178 351.780976 
L 450.134061 351.780598 
L 450.285054 352.174167 
L 451.343097 352.174167 
L 451.493844 351.781353 
L 451.64577 352.174167 
L 452.854383 352.174167 
L 453.005414 351.388539 
L 453.15612 352.174167 
L 454.66644 352.174167 
L 454.968469 351.388539 
L 455.11935 352.174167 
L 456.629723 352.174167 
L 456.780464 351.386272 
L 456.932576 352.174167 
L 458.141003 352.174167 
L 458.293121 351.394519 
L 458.444471 352.174167 
L 458.747444 350.605918 
L 458.899063 352.174167 
L 460.41575 352.174167 
L 460.566934 351.781729 
L 460.719734 352.174167 
L 461.93196 352.174167 
L 462.083736 351.783971 
L 462.234657 352.174167 
L 463.445107 352.174167 
L 463.748218 350.605918 
L 463.899563 352.174167 
L 464.051034 351.39154 
L 464.203066 352.174167 
L 465.10782 352.174167 
L 465.258623 351.388539 
L 465.410659 352.174167 
L 466.9236 352.174167 
L 467.074462 351.781353 
L 467.226003 352.174167 
L 468.885679 352.174167 
L 469.036561 351.388539 
L 469.187576 352.174167 
L 470.246626 352.174167 
L 470.397555 351.781353 
L 470.548305 352.174167 
L 470.699235 350.598378 
L 470.850032 352.174167 
L 471.755218 352.174167 
L 471.905959 351.780598 
L 472.056778 352.174167 
L 472.208452 351.782853 
L 472.359879 352.174167 
L 475.392806 352.174167 
L 475.543981 350.605918 
L 475.694926 352.174167 
L 476.605878 352.174167 
L 476.758476 351.785452 
L 476.910096 352.174167 
L 480.250856 352.174167 
L 480.402658 351.393032 
L 480.554505 351.393032 
L 480.706068 352.174167 
L 481.767663 352.174167 
L 481.919432 351.783599 
L 482.071304 352.174167 
L 483.438553 352.174167 
L 483.590308 351.001347 
L 483.742142 352.174167 
L 485.868099 352.174167 
L 486.020101 351.004695 
L 486.171984 352.174167 
L 488.141482 352.174167 
L 488.293294 351.393032 
L 488.445332 351.783227 
L 488.596314 351.736915 
L 488.748313 352.174167 
L 490.26705 352.174167 
L 490.419179 350.614871 
L 490.570871 352.174167 
L 491.633385 352.174167 
L 491.785505 351.003581 
L 491.937347 352.174167 
L 493.455803 352.174167 
L 493.607089 350.99798 
L 493.758229 352.174167 
L 494.81612 352.174167 
L 494.967096 351.388539 
L 495.117882 352.174167 
L 495.571009 352.174167 
L 495.571009 352.174167 
" style="fill:none;stroke:#1f77b4;stroke-linecap:square;stroke-width:1.5;"/>
   </g>
   <g id="patch_3">
    <path d="M 66.158594 352.174167 
L 66.158594 35.0625 
" style="fill:none;stroke:#000000;stroke-linecap:square;stroke-linejoin:miter;stroke-width:0.8;"/>
   </g>
   <g id="patch_4">
    <path d="M 516.019219 352.174167 
L 516.019219 35.0625 
" style="fill:none;stroke:#000000;stroke-linecap:square;stroke-linejoin:miter;stroke-width:0.8;"/>
   </g>
   <g id="patch_5">
    <path d="M 66.158594 352.174167 
L 516.019219 352.174167 
" style="fill:none;stroke:#000000;stroke-linecap:square;stroke-linejoin:miter;stroke-width:0.8;"/>
   </g>
   <g id="patch_6">
    <path d="M 66.158594 35.0625 
L 516.019219 35.0625 
" style="fill:none;stroke:#000000;stroke-linecap:square;stroke-linejoin:miter;stroke-width:0.8;"/>
   </g>
   <g id="legend_1">
    <g id="patch_7">
     <path d="M 540.51225 53.01875 
L 620.748187 53.01875 
Q 622.748187 53.01875 622.748187 51.01875 
L 622.748187 37.0625 
Q 622.748187 35.0625 620.748187 35.0625 
L 540.51225 35.0625 
Q 538.51225 35.0625 538.51225 37.0625 
L 538.51225 51.01875 
Q 538.51225 53.01875 540.51225 53.01875 
z
" style="fill:#ffffff;opacity:0.8;stroke:#cccccc;stroke-linejoin:miter;"/>
    </g>
    <g id="line2d_16">
     <path d="M 542.51225 43.160937 
L 562.51225 43.160937 
" style="fill:none;stroke:#1f77b4;stroke-linecap:square;stroke-width:1.5;"/>
    </g>
    <g id="line2d_17"/>
    <g id="text_16">
     <!-- drop_rate -->
     <defs>
      <path d="M 50.984375 -16.609375 
L 50.984375 -23.578125 
L -0.984375 -23.578125 
L -0.984375 -16.609375 
z
" id="DejaVuSans-95"/>
     </defs>
     <g transform="translate(570.51225 46.660937)scale(0.1 -0.1)">
      <use xlink:href="#DejaVuSans-100"/>
      <use x="63.476562" xlink:href="#DejaVuSans-114"/>
      <use x="104.558594" xlink:href="#DejaVuSans-111"/>
      <use x="165.740234" xlink:href="#DejaVuSans-112"/>
      <use x="229.216797" xlink:href="#DejaVuSans-95"/>
      <use x="279.216797" xlink:href="#DejaVuSans-114"/>
      <use x="320.330078" xlink:href="#DejaVuSans-97"/>
      <use x="381.609375" xlink:href="#DejaVuSans-116"/>
      <use x="420.818359" xlink:href="#DejaVuSans-101"/>
     </g>
    </g>
   </g>
  </g>
  <g id="text_17">
   <!-- result droprate -->
   <defs>
    <path d="M 44.28125 53.078125 
L 44.28125 44.578125 
Q 40.484375 46.53125 36.375 47.5 
Q 32.28125 48.484375 27.875 48.484375 
Q 21.1875 48.484375 17.84375 46.4375 
Q 14.5 44.390625 14.5 40.28125 
Q 14.5 37.15625 16.890625 35.375 
Q 19.28125 33.59375 26.515625 31.984375 
L 29.59375 31.296875 
Q 39.15625 29.25 43.1875 25.515625 
Q 47.21875 21.78125 47.21875 15.09375 
Q 47.21875 7.46875 41.1875 3.015625 
Q 35.15625 -1.421875 24.609375 -1.421875 
Q 20.21875 -1.421875 15.453125 -0.5625 
Q 10.6875 0.296875 5.421875 2 
L 5.421875 11.28125 
Q 10.40625 8.6875 15.234375 7.390625 
Q 20.0625 6.109375 24.8125 6.109375 
Q 31.15625 6.109375 34.5625 8.28125 
Q 37.984375 10.453125 37.984375 14.40625 
Q 37.984375 18.0625 35.515625 20.015625 
Q 33.0625 21.96875 24.703125 23.78125 
L 21.578125 24.515625 
Q 13.234375 26.265625 9.515625 29.90625 
Q 5.8125 33.546875 5.8125 39.890625 
Q 5.8125 47.609375 11.28125 51.796875 
Q 16.75 56 26.8125 56 
Q 31.78125 56 36.171875 55.265625 
Q 40.578125 54.546875 44.28125 53.078125 
z
" id="DejaVuSans-115"/>
    <path d="M 8.5 21.578125 
L 8.5 54.6875 
L 17.484375 54.6875 
L 17.484375 21.921875 
Q 17.484375 14.15625 20.5 10.265625 
Q 23.53125 6.390625 29.59375 6.390625 
Q 36.859375 6.390625 41.078125 11.03125 
Q 45.3125 15.671875 45.3125 23.6875 
L 45.3125 54.6875 
L 54.296875 54.6875 
L 54.296875 0 
L 45.3125 0 
L 45.3125 8.40625 
Q 42.046875 3.421875 37.71875 1 
Q 33.40625 -1.421875 27.6875 -1.421875 
Q 18.265625 -1.421875 13.375 4.4375 
Q 8.5 10.296875 8.5 21.578125 
z
M 31.109375 56 
z
" id="DejaVuSans-117"/>
    <path d="M 9.421875 75.984375 
L 18.40625 75.984375 
L 18.40625 0 
L 9.421875 0 
z
" id="DejaVuSans-108"/>
    <path id="DejaVuSans-32"/>
   </defs>
   <g transform="translate(297.047813 17.038125)scale(0.12 -0.12)">
    <use xlink:href="#DejaVuSans-114"/>
    <use x="41.082031" xlink:href="#DejaVuSans-101"/>
    <use x="102.605469" xlink:href="#DejaVuSans-115"/>
    <use x="154.705078" xlink:href="#DejaVuSans-117"/>
    <use x="218.083984" xlink:href="#DejaVuSans-108"/>
    <use x="245.867188" xlink:href="#DejaVuSans-116"/>
    <use x="285.076172" xlink:href="#DejaVuSans-32"/>
    <use x="316.863281" xlink:href="#DejaVuSans-100"/>
    <use x="380.339844" xlink:href="#DejaVuSans-114"/>
    <use x="421.421875" xlink:href="#DejaVuSans-111"/>
    <use x="482.603516" xlink:href="#DejaVuSans-112"/>
    <use x="546.080078" xlink:href="#DejaVuSans-114"/>
    <use x="587.193359" xlink:href="#DejaVuSans-97"/>
    <use x="648.472656" xlink:href="#DejaVuSans-116"/>
    <use x="687.681641" xlink:href="#DejaVuSans-101"/>
   </g>
  </g>
 </g>
 <defs>
  <clipPath id="pe6cb944b7e">
   <rect height="317.111667" width="449.860625" x="66.158594" y="35.0625"/>
  </clipPath>
 </defs>
</svg>
