<?xml version="1.0" encoding="utf-8" standalone="no"?>
<!DOCTYPE svg PUBLIC "-//W3C//DTD SVG 1.1//EN"
  "http://www.w3.org/Graphics/SVG/1.1/DTD/svg11.dtd">
<!-- Created with matplotlib (https://matplotlib.org/) -->
<svg height="396pt" version="1.1" viewBox="0 0 684 396" width="684pt" xmlns="http://www.w3.org/2000/svg" xmlns:xlink="http://www.w3.org/1999/xlink">
 <defs>
  <style type="text/css">
*{stroke-linecap:butt;stroke-linejoin:round;}
  </style>
 </defs>
 <g id="figure_1">
  <g id="patch_1">
   <path d="M 0 396 
L 684 396 
L 684 0 
L 0 0 
z
" style="fill:#ffffff;"/>
  </g>
  <g id="axes_1">
   <g id="patch_2">
    <path d="M 66.158594 352.174167 
L 516.019219 352.174167 
L 516.019219 35.0625 
L 66.158594 35.0625 
z
" style="fill:#ffffff;"/>
   </g>
   <g id="matplotlib.axis_1">
    <g id="xtick_1">
     <g id="line2d_1">
      <defs>
       <path d="M 0 0 
L 0 3.5 
" id="m47424057a0" style="stroke:#000000;stroke-width:0.8;"/>
      </defs>
      <g>
       <use style="stroke:#000000;stroke-width:0.8;" x="91.931933" xlink:href="#m47424057a0" y="352.174167"/>
      </g>
     </g>
     <g id="text_1">
      <!-- 0 -->
      <defs>
       <path d="M 31.78125 66.40625 
Q 24.171875 66.40625 20.328125 58.90625 
Q 16.5 51.421875 16.5 36.375 
Q 16.5 21.390625 20.328125 13.890625 
Q 24.171875 6.390625 31.78125 6.390625 
Q 39.453125 6.390625 43.28125 13.890625 
Q 47.125 21.390625 47.125 36.375 
Q 47.125 51.421875 43.28125 58.90625 
Q 39.453125 66.40625 31.78125 66.40625 
z
M 31.78125 74.21875 
Q 44.046875 74.21875 50.515625 64.515625 
Q 56.984375 54.828125 56.984375 36.375 
Q 56.984375 17.96875 50.515625 8.265625 
Q 44.046875 -1.421875 31.78125 -1.421875 
Q 19.53125 -1.421875 13.0625 8.265625 
Q 6.59375 17.96875 6.59375 36.375 
Q 6.59375 54.828125 13.0625 64.515625 
Q 19.53125 74.21875 31.78125 74.21875 
z
" id="DejaVuSans-48"/>
      </defs>
      <g transform="translate(88.750683 366.772604)scale(0.1 -0.1)">
       <use xlink:href="#DejaVuSans-48"/>
      </g>
     </g>
    </g>
    <g id="xtick_2">
     <g id="line2d_2">
      <g>
       <use style="stroke:#000000;stroke-width:0.8;" x="162.908805" xlink:href="#m47424057a0" y="352.174167"/>
      </g>
     </g>
     <g id="text_2">
      <!-- 50 -->
      <defs>
       <path d="M 10.796875 72.90625 
L 49.515625 72.90625 
L 49.515625 64.59375 
L 19.828125 64.59375 
L 19.828125 46.734375 
Q 21.96875 47.46875 24.109375 47.828125 
Q 26.265625 48.1875 28.421875 48.1875 
Q 40.625 48.1875 47.75 41.5 
Q 54.890625 34.8125 54.890625 23.390625 
Q 54.890625 11.625 47.5625 5.09375 
Q 40.234375 -1.421875 26.90625 -1.421875 
Q 22.3125 -1.421875 17.546875 -0.640625 
Q 12.796875 0.140625 7.71875 1.703125 
L 7.71875 11.625 
Q 12.109375 9.234375 16.796875 8.0625 
Q 21.484375 6.890625 26.703125 6.890625 
Q 35.15625 6.890625 40.078125 11.328125 
Q 45.015625 15.765625 45.015625 23.390625 
Q 45.015625 31 40.078125 35.4375 
Q 35.15625 39.890625 26.703125 39.890625 
Q 22.75 39.890625 18.8125 39.015625 
Q 14.890625 38.140625 10.796875 36.28125 
z
" id="DejaVuSans-53"/>
      </defs>
      <g transform="translate(156.546305 366.772604)scale(0.1 -0.1)">
       <use xlink:href="#DejaVuSans-53"/>
       <use x="63.623047" xlink:href="#DejaVuSans-48"/>
      </g>
     </g>
    </g>
    <g id="xtick_3">
     <g id="line2d_3">
      <g>
       <use style="stroke:#000000;stroke-width:0.8;" x="233.885677" xlink:href="#m47424057a0" y="352.174167"/>
      </g>
     </g>
     <g id="text_3">
      <!-- 100 -->
      <defs>
       <path d="M 12.40625 8.296875 
L 28.515625 8.296875 
L 28.515625 63.921875 
L 10.984375 60.40625 
L 10.984375 69.390625 
L 28.421875 72.90625 
L 38.28125 72.90625 
L 38.28125 8.296875 
L 54.390625 8.296875 
L 54.390625 0 
L 12.40625 0 
z
" id="DejaVuSans-49"/>
      </defs>
      <g transform="translate(224.341927 366.772604)scale(0.1 -0.1)">
       <use xlink:href="#DejaVuSans-49"/>
       <use x="63.623047" xlink:href="#DejaVuSans-48"/>
       <use x="127.246094" xlink:href="#DejaVuSans-48"/>
      </g>
     </g>
    </g>
    <g id="xtick_4">
     <g id="line2d_4">
      <g>
       <use style="stroke:#000000;stroke-width:0.8;" x="304.862549" xlink:href="#m47424057a0" y="352.174167"/>
      </g>
     </g>
     <g id="text_4">
      <!-- 150 -->
      <g transform="translate(295.318799 366.772604)scale(0.1 -0.1)">
       <use xlink:href="#DejaVuSans-49"/>
       <use x="63.623047" xlink:href="#DejaVuSans-53"/>
       <use x="127.246094" xlink:href="#DejaVuSans-48"/>
      </g>
     </g>
    </g>
    <g id="xtick_5">
     <g id="line2d_5">
      <g>
       <use style="stroke:#000000;stroke-width:0.8;" x="375.839421" xlink:href="#m47424057a0" y="352.174167"/>
      </g>
     </g>
     <g id="text_5">
      <!-- 200 -->
      <defs>
       <path d="M 19.1875 8.296875 
L 53.609375 8.296875 
L 53.609375 0 
L 7.328125 0 
L 7.328125 8.296875 
Q 12.9375 14.109375 22.625 23.890625 
Q 32.328125 33.6875 34.8125 36.53125 
Q 39.546875 41.84375 41.421875 45.53125 
Q 43.3125 49.21875 43.3125 52.78125 
Q 43.3125 58.59375 39.234375 62.25 
Q 35.15625 65.921875 28.609375 65.921875 
Q 23.96875 65.921875 18.8125 64.3125 
Q 13.671875 62.703125 7.8125 59.421875 
L 7.8125 69.390625 
Q 13.765625 71.78125 18.9375 73 
Q 24.125 74.21875 28.421875 74.21875 
Q 39.75 74.21875 46.484375 68.546875 
Q 53.21875 62.890625 53.21875 53.421875 
Q 53.21875 48.921875 51.53125 44.890625 
Q 49.859375 40.875 45.40625 35.40625 
Q 44.1875 33.984375 37.640625 27.21875 
Q 31.109375 20.453125 19.1875 8.296875 
z
" id="DejaVuSans-50"/>
      </defs>
      <g transform="translate(366.295671 366.772604)scale(0.1 -0.1)">
       <use xlink:href="#DejaVuSans-50"/>
       <use x="63.623047" xlink:href="#DejaVuSans-48"/>
       <use x="127.246094" xlink:href="#DejaVuSans-48"/>
      </g>
     </g>
    </g>
    <g id="xtick_6">
     <g id="line2d_6">
      <g>
       <use style="stroke:#000000;stroke-width:0.8;" x="446.816293" xlink:href="#m47424057a0" y="352.174167"/>
      </g>
     </g>
     <g id="text_6">
      <!-- 250 -->
      <g transform="translate(437.272543 366.772604)scale(0.1 -0.1)">
       <use xlink:href="#DejaVuSans-50"/>
       <use x="63.623047" xlink:href="#DejaVuSans-53"/>
       <use x="127.246094" xlink:href="#DejaVuSans-48"/>
      </g>
     </g>
    </g>
   </g>
   <g id="matplotlib.axis_2">
    <g id="ytick_1">
     <g id="line2d_7">
      <defs>
       <path d="M 0 0 
L -3.5 0 
" id="meba5d4333a" style="stroke:#000000;stroke-width:0.8;"/>
      </defs>
      <g>
       <use style="stroke:#000000;stroke-width:0.8;" x="66.158594" xlink:href="#meba5d4333a" y="352.174167"/>
      </g>
     </g>
     <g id="text_7">
      <!-- 0 -->
      <g transform="translate(52.796094 355.973385)scale(0.1 -0.1)">
       <use xlink:href="#DejaVuSans-48"/>
      </g>
     </g>
    </g>
    <g id="ytick_2">
     <g id="line2d_8">
      <g>
       <use style="stroke:#000000;stroke-width:0.8;" x="66.158594" xlink:href="#meba5d4333a" y="304.885585"/>
      </g>
     </g>
     <g id="text_8">
      <!-- 10 -->
      <g transform="translate(46.433594 308.684804)scale(0.1 -0.1)">
       <use xlink:href="#DejaVuSans-49"/>
       <use x="63.623047" xlink:href="#DejaVuSans-48"/>
      </g>
     </g>
    </g>
    <g id="ytick_3">
     <g id="line2d_9">
      <g>
       <use style="stroke:#000000;stroke-width:0.8;" x="66.158594" xlink:href="#meba5d4333a" y="257.597003"/>
      </g>
     </g>
     <g id="text_9">
      <!-- 20 -->
      <g transform="translate(46.433594 261.396222)scale(0.1 -0.1)">
       <use xlink:href="#DejaVuSans-50"/>
       <use x="63.623047" xlink:href="#DejaVuSans-48"/>
      </g>
     </g>
    </g>
    <g id="ytick_4">
     <g id="line2d_10">
      <g>
       <use style="stroke:#000000;stroke-width:0.8;" x="66.158594" xlink:href="#meba5d4333a" y="210.308421"/>
      </g>
     </g>
     <g id="text_10">
      <!-- 30 -->
      <defs>
       <path d="M 40.578125 39.3125 
Q 47.65625 37.796875 51.625 33 
Q 55.609375 28.21875 55.609375 21.1875 
Q 55.609375 10.40625 48.1875 4.484375 
Q 40.765625 -1.421875 27.09375 -1.421875 
Q 22.515625 -1.421875 17.65625 -0.515625 
Q 12.796875 0.390625 7.625 2.203125 
L 7.625 11.71875 
Q 11.71875 9.328125 16.59375 8.109375 
Q 21.484375 6.890625 26.8125 6.890625 
Q 36.078125 6.890625 40.9375 10.546875 
Q 45.796875 14.203125 45.796875 21.1875 
Q 45.796875 27.640625 41.28125 31.265625 
Q 36.765625 34.90625 28.71875 34.90625 
L 20.21875 34.90625 
L 20.21875 43.015625 
L 29.109375 43.015625 
Q 36.375 43.015625 40.234375 45.921875 
Q 44.09375 48.828125 44.09375 54.296875 
Q 44.09375 59.90625 40.109375 62.90625 
Q 36.140625 65.921875 28.71875 65.921875 
Q 24.65625 65.921875 20.015625 65.03125 
Q 15.375 64.15625 9.8125 62.3125 
L 9.8125 71.09375 
Q 15.4375 72.65625 20.34375 73.4375 
Q 25.25 74.21875 29.59375 74.21875 
Q 40.828125 74.21875 47.359375 69.109375 
Q 53.90625 64.015625 53.90625 55.328125 
Q 53.90625 49.265625 50.4375 45.09375 
Q 46.96875 40.921875 40.578125 39.3125 
z
" id="DejaVuSans-51"/>
      </defs>
      <g transform="translate(46.433594 214.10764)scale(0.1 -0.1)">
       <use xlink:href="#DejaVuSans-51"/>
       <use x="63.623047" xlink:href="#DejaVuSans-48"/>
      </g>
     </g>
    </g>
    <g id="ytick_5">
     <g id="line2d_11">
      <g>
       <use style="stroke:#000000;stroke-width:0.8;" x="66.158594" xlink:href="#meba5d4333a" y="163.019839"/>
      </g>
     </g>
     <g id="text_11">
      <!-- 40 -->
      <defs>
       <path d="M 37.796875 64.3125 
L 12.890625 25.390625 
L 37.796875 25.390625 
z
M 35.203125 72.90625 
L 47.609375 72.90625 
L 47.609375 25.390625 
L 58.015625 25.390625 
L 58.015625 17.1875 
L 47.609375 17.1875 
L 47.609375 0 
L 37.796875 0 
L 37.796875 17.1875 
L 4.890625 17.1875 
L 4.890625 26.703125 
z
" id="DejaVuSans-52"/>
      </defs>
      <g transform="translate(46.433594 166.819058)scale(0.1 -0.1)">
       <use xlink:href="#DejaVuSans-52"/>
       <use x="63.623047" xlink:href="#DejaVuSans-48"/>
      </g>
     </g>
    </g>
    <g id="ytick_6">
     <g id="line2d_12">
      <g>
       <use style="stroke:#000000;stroke-width:0.8;" x="66.158594" xlink:href="#meba5d4333a" y="115.731257"/>
      </g>
     </g>
     <g id="text_12">
      <!-- 50 -->
      <g transform="translate(46.433594 119.530476)scale(0.1 -0.1)">
       <use xlink:href="#DejaVuSans-53"/>
       <use x="63.623047" xlink:href="#DejaVuSans-48"/>
      </g>
     </g>
    </g>
    <g id="ytick_7">
     <g id="line2d_13">
      <g>
       <use style="stroke:#000000;stroke-width:0.8;" x="66.158594" xlink:href="#meba5d4333a" y="68.442675"/>
      </g>
     </g>
     <g id="text_13">
      <!-- 60 -->
      <defs>
       <path d="M 33.015625 40.375 
Q 26.375 40.375 22.484375 35.828125 
Q 18.609375 31.296875 18.609375 23.390625 
Q 18.609375 15.53125 22.484375 10.953125 
Q 26.375 6.390625 33.015625 6.390625 
Q 39.65625 6.390625 43.53125 10.953125 
Q 47.40625 15.53125 47.40625 23.390625 
Q 47.40625 31.296875 43.53125 35.828125 
Q 39.65625 40.375 33.015625 40.375 
z
M 52.59375 71.296875 
L 52.59375 62.3125 
Q 48.875 64.0625 45.09375 64.984375 
Q 41.3125 65.921875 37.59375 65.921875 
Q 27.828125 65.921875 22.671875 59.328125 
Q 17.53125 52.734375 16.796875 39.40625 
Q 19.671875 43.65625 24.015625 45.921875 
Q 28.375 48.1875 33.59375 48.1875 
Q 44.578125 48.1875 50.953125 41.515625 
Q 57.328125 34.859375 57.328125 23.390625 
Q 57.328125 12.15625 50.6875 5.359375 
Q 44.046875 -1.421875 33.015625 -1.421875 
Q 20.359375 -1.421875 13.671875 8.265625 
Q 6.984375 17.96875 6.984375 36.375 
Q 6.984375 53.65625 15.1875 63.9375 
Q 23.390625 74.21875 37.203125 74.21875 
Q 40.921875 74.21875 44.703125 73.484375 
Q 48.484375 72.75 52.59375 71.296875 
z
" id="DejaVuSans-54"/>
      </defs>
      <g transform="translate(46.433594 72.241894)scale(0.1 -0.1)">
       <use xlink:href="#DejaVuSans-54"/>
       <use x="63.623047" xlink:href="#DejaVuSans-48"/>
      </g>
     </g>
    </g>
    <g id="text_14">
     <!-- droprate -->
     <defs>
      <path d="M 45.40625 46.390625 
L 45.40625 75.984375 
L 54.390625 75.984375 
L 54.390625 0 
L 45.40625 0 
L 45.40625 8.203125 
Q 42.578125 3.328125 38.25 0.953125 
Q 33.9375 -1.421875 27.875 -1.421875 
Q 17.96875 -1.421875 11.734375 6.484375 
Q 5.515625 14.40625 5.515625 27.296875 
Q 5.515625 40.1875 11.734375 48.09375 
Q 17.96875 56 27.875 56 
Q 33.9375 56 38.25 53.625 
Q 42.578125 51.265625 45.40625 46.390625 
z
M 14.796875 27.296875 
Q 14.796875 17.390625 18.875 11.75 
Q 22.953125 6.109375 30.078125 6.109375 
Q 37.203125 6.109375 41.296875 11.75 
Q 45.40625 17.390625 45.40625 27.296875 
Q 45.40625 37.203125 41.296875 42.84375 
Q 37.203125 48.484375 30.078125 48.484375 
Q 22.953125 48.484375 18.875 42.84375 
Q 14.796875 37.203125 14.796875 27.296875 
z
" id="DejaVuSans-100"/>
      <path d="M 41.109375 46.296875 
Q 39.59375 47.171875 37.8125 47.578125 
Q 36.03125 48 33.890625 48 
Q 26.265625 48 22.1875 43.046875 
Q 18.109375 38.09375 18.109375 28.8125 
L 18.109375 0 
L 9.078125 0 
L 9.078125 54.6875 
L 18.109375 54.6875 
L 18.109375 46.1875 
Q 20.953125 51.171875 25.484375 53.578125 
Q 30.03125 56 36.53125 56 
Q 37.453125 56 38.578125 55.875 
Q 39.703125 55.765625 41.0625 55.515625 
z
" id="DejaVuSans-114"/>
      <path d="M 30.609375 48.390625 
Q 23.390625 48.390625 19.1875 42.75 
Q 14.984375 37.109375 14.984375 27.296875 
Q 14.984375 17.484375 19.15625 11.84375 
Q 23.34375 6.203125 30.609375 6.203125 
Q 37.796875 6.203125 41.984375 11.859375 
Q 46.1875 17.53125 46.1875 27.296875 
Q 46.1875 37.015625 41.984375 42.703125 
Q 37.796875 48.390625 30.609375 48.390625 
z
M 30.609375 56 
Q 42.328125 56 49.015625 48.375 
Q 55.71875 40.765625 55.71875 27.296875 
Q 55.71875 13.875 49.015625 6.21875 
Q 42.328125 -1.421875 30.609375 -1.421875 
Q 18.84375 -1.421875 12.171875 6.21875 
Q 5.515625 13.875 5.515625 27.296875 
Q 5.515625 40.765625 12.171875 48.375 
Q 18.84375 56 30.609375 56 
z
" id="DejaVuSans-111"/>
      <path d="M 18.109375 8.203125 
L 18.109375 -20.796875 
L 9.078125 -20.796875 
L 9.078125 54.6875 
L 18.109375 54.6875 
L 18.109375 46.390625 
Q 20.953125 51.265625 25.265625 53.625 
Q 29.59375 56 35.59375 56 
Q 45.5625 56 51.78125 48.09375 
Q 58.015625 40.1875 58.015625 27.296875 
Q 58.015625 14.40625 51.78125 6.484375 
Q 45.5625 -1.421875 35.59375 -1.421875 
Q 29.59375 -1.421875 25.265625 0.953125 
Q 20.953125 3.328125 18.109375 8.203125 
z
M 48.6875 27.296875 
Q 48.6875 37.203125 44.609375 42.84375 
Q 40.53125 48.484375 33.40625 48.484375 
Q 26.265625 48.484375 22.1875 42.84375 
Q 18.109375 37.203125 18.109375 27.296875 
Q 18.109375 17.390625 22.1875 11.75 
Q 26.265625 6.109375 33.40625 6.109375 
Q 40.53125 6.109375 44.609375 11.75 
Q 48.6875 17.390625 48.6875 27.296875 
z
" id="DejaVuSans-112"/>
      <path d="M 34.28125 27.484375 
Q 23.390625 27.484375 19.1875 25 
Q 14.984375 22.515625 14.984375 16.5 
Q 14.984375 11.71875 18.140625 8.90625 
Q 21.296875 6.109375 26.703125 6.109375 
Q 34.1875 6.109375 38.703125 11.40625 
Q 43.21875 16.703125 43.21875 25.484375 
L 43.21875 27.484375 
z
M 52.203125 31.203125 
L 52.203125 0 
L 43.21875 0 
L 43.21875 8.296875 
Q 40.140625 3.328125 35.546875 0.953125 
Q 30.953125 -1.421875 24.3125 -1.421875 
Q 15.921875 -1.421875 10.953125 3.296875 
Q 6 8.015625 6 15.921875 
Q 6 25.140625 12.171875 29.828125 
Q 18.359375 34.515625 30.609375 34.515625 
L 43.21875 34.515625 
L 43.21875 35.40625 
Q 43.21875 41.609375 39.140625 45 
Q 35.0625 48.390625 27.6875 48.390625 
Q 23 48.390625 18.546875 47.265625 
Q 14.109375 46.140625 10.015625 43.890625 
L 10.015625 52.203125 
Q 14.9375 54.109375 19.578125 55.046875 
Q 24.21875 56 28.609375 56 
Q 40.484375 56 46.34375 49.84375 
Q 52.203125 43.703125 52.203125 31.203125 
z
" id="DejaVuSans-97"/>
      <path d="M 18.3125 70.21875 
L 18.3125 54.6875 
L 36.8125 54.6875 
L 36.8125 47.703125 
L 18.3125 47.703125 
L 18.3125 18.015625 
Q 18.3125 11.328125 20.140625 9.421875 
Q 21.96875 7.515625 27.59375 7.515625 
L 36.8125 7.515625 
L 36.8125 0 
L 27.59375 0 
Q 17.1875 0 13.234375 3.875 
Q 9.28125 7.765625 9.28125 18.015625 
L 9.28125 47.703125 
L 2.6875 47.703125 
L 2.6875 54.6875 
L 9.28125 54.6875 
L 9.28125 70.21875 
z
" id="DejaVuSans-116"/>
      <path d="M 56.203125 29.59375 
L 56.203125 25.203125 
L 14.890625 25.203125 
Q 15.484375 15.921875 20.484375 11.0625 
Q 25.484375 6.203125 34.421875 6.203125 
Q 39.59375 6.203125 44.453125 7.46875 
Q 49.3125 8.734375 54.109375 11.28125 
L 54.109375 2.78125 
Q 49.265625 0.734375 44.1875 -0.34375 
Q 39.109375 -1.421875 33.890625 -1.421875 
Q 20.796875 -1.421875 13.15625 6.1875 
Q 5.515625 13.8125 5.515625 26.8125 
Q 5.515625 40.234375 12.765625 48.109375 
Q 20.015625 56 32.328125 56 
Q 43.359375 56 49.78125 48.890625 
Q 56.203125 41.796875 56.203125 29.59375 
z
M 47.21875 32.234375 
Q 47.125 39.59375 43.09375 43.984375 
Q 39.0625 48.390625 32.421875 48.390625 
Q 24.90625 48.390625 20.390625 44.140625 
Q 15.875 39.890625 15.1875 32.171875 
z
" id="DejaVuSans-101"/>
     </defs>
     <g transform="translate(40.353906 215.236302)rotate(-90)scale(0.1 -0.1)">
      <use xlink:href="#DejaVuSans-100"/>
      <use x="63.476562" xlink:href="#DejaVuSans-114"/>
      <use x="104.558594" xlink:href="#DejaVuSans-111"/>
      <use x="165.740234" xlink:href="#DejaVuSans-112"/>
      <use x="229.216797" xlink:href="#DejaVuSans-114"/>
      <use x="270.330078" xlink:href="#DejaVuSans-97"/>
      <use x="331.609375" xlink:href="#DejaVuSans-116"/>
      <use x="370.818359" xlink:href="#DejaVuSans-101"/>
     </g>
    </g>
   </g>
   <g id="line2d_14">
    <path clip-path="url(#p6c889164d0)" d="M 86.606804 352.174167 
L 91.479341 352.174167 
L 91.788721 50.163056 
L 91.93974 341.34472 
L 92.098016 352.174167 
L 92.255099 330.500233 
L 92.411373 346.328051 
L 92.560864 346.552939 
L 92.7178 341.781072 
L 92.871744 352.174167 
L 93.024853 345.541827 
L 93.174019 352.174167 
L 93.324906 345.370054 
L 93.479061 352.174167 
L 93.635314 348.260629 
L 93.792036 352.174167 
L 93.941035 346.527769 
L 94.090554 352.174167 
L 94.244064 345.300826 
L 94.393439 352.174167 
L 94.706325 346.998946 
L 94.858322 352.174167 
L 95.007778 349.464219 
L 95.158755 352.174167 
L 95.309731 341.696637 
L 95.460012 352.174167 
L 95.611331 345.240357 
L 95.762531 352.174167 
L 95.913585 350.159028 
L 96.064696 352.174167 
L 96.220285 346.730877 
L 96.378041 348.308615 
L 96.536138 352.174167 
L 96.694193 351.535994 
L 96.84527 352.174167 
L 96.998452 344.558143 
L 97.147709 352.174167 
L 97.29712 348.085817 
L 97.446615 352.174167 
L 97.598803 346.627119 
L 97.90298 352.174167 
L 98.054443 344.795806 
L 98.203575 352.174167 
L 98.356968 344.159153 
L 98.51306 352.174167 
L 98.669083 348.271395 
L 98.826837 352.174167 
L 98.981199 346.068037 
L 99.13139 352.174167 
L 99.288733 347.595742 
L 99.446736 347.676611 
L 99.596518 352.174167 
L 99.748785 344.847767 
L 99.898683 352.174167 
L 100.048341 323.083909 
L 100.198057 335.820767 
L 100.348097 310.847469 
L 100.504311 348.255223 
L 100.654437 336.614261 
L 100.80445 352.174167 
L 100.956103 340.317148 
L 101.107335 352.174167 
L 101.257543 345.189147 
L 101.411066 332.221179 
L 101.564233 352.174167 
L 101.715548 331.35107 
L 101.868361 352.174167 
L 102.01866 346.610804 
L 102.169857 352.174167 
L 102.322574 349.494927 
L 102.474355 352.174167 
L 102.625184 334.814188 
L 102.775127 346.754272 
L 102.926354 349.392485 
L 103.078911 348.172312 
L 103.229936 352.174167 
L 103.382461 328.095115 
L 103.5335 352.174167 
L 103.68459 327.537568 
L 103.835897 352.174167 
L 103.987454 349.494927 
L 104.138134 352.174167 
L 104.289153 334.940718 
L 104.442404 349.517505 
L 104.595914 348.026045 
L 104.746258 336.658655 
L 104.897003 352.174167 
L 105.050095 344.136447 
L 105.199943 352.174167 
L 105.350484 348.776998 
L 105.502933 352.174167 
L 105.654236 345.19945 
L 105.804058 352.174167 
L 105.953473 345.095038 
L 106.103845 352.174167 
L 106.257314 350.845836 
L 106.408676 337.459191 
L 106.561332 346.723033 
L 106.713384 322.744215 
L 106.866008 352.174167 
L 107.018513 343.454286 
L 107.169787 352.174167 
L 107.321659 343.32882 
L 107.472643 352.174167 
L 107.625028 333.0952 
L 107.774354 352.174167 
L 107.925998 332.984597 
L 108.07605 344.743104 
L 108.227508 345.970125 
L 108.376865 328.325458 
L 108.526028 352.174167 
L 108.675192 346.723033 
L 108.825152 352.174167 
L 108.97755 346.651413 
L 109.127393 352.174167 
L 109.281205 334.457983 
L 109.435734 352.174167 
L 109.589922 339.996849 
L 109.740486 344.764275 
L 110.041778 331.965371 
L 110.193125 352.174167 
L 110.343688 327.285439 
L 110.500069 352.174167 
L 110.657553 346.162906 
L 110.812678 352.174167 
L 110.962205 349.468096 
L 111.111783 352.174167 
L 111.262811 336.273035 
L 111.413346 346.777467 
L 111.564228 341.819003 
L 111.713466 341.967998 
L 111.870441 352.174167 
L 112.027717 337.961751 
L 112.185124 352.174167 
L 112.342472 344.303668 
L 112.492085 352.174167 
L 112.641517 346.723033 
L 112.7911 352.174167 
L 113.094765 330.256706 
L 113.24764 352.174167 
L 113.396621 350.135866 
L 113.546373 352.174167 
L 113.696706 350.141706 
L 113.846149 352.174167 
L 113.999965 336.569613 
L 114.15172 352.174167 
L 114.3043 343.877924 
L 114.453724 344.711119 
L 114.603288 342.565456 
L 114.753069 342.675743 
L 114.90244 352.174167 
L 115.051671 346.050465 
L 115.200856 352.174167 
L 115.351203 346.094206 
L 115.501645 352.174167 
L 115.652258 336.202986 
L 115.802988 352.174167 
L 115.953441 339.619676 
L 116.103675 352.174167 
L 116.253016 337.440336 
L 116.403132 337.290779 
L 116.554873 337.90606 
L 116.865304 352.174167 
L 117.01537 334.559509 
L 117.165444 352.174167 
L 117.315531 336.852388 
L 117.465654 352.174167 
L 117.617535 323.881853 
L 117.773839 352.174167 
L 118.075254 325.865255 
L 118.226073 352.174167 
L 118.376693 329.238193 
L 118.527598 352.174167 
L 118.678217 346.738697 
L 118.830387 352.174167 
L 118.982678 349.502495 
L 119.137724 352.174167 
L 119.292523 336.702796 
L 119.447327 350.206542 
L 119.602383 328.960978 
L 119.904547 352.174167 
L 120.054558 335.960939 
L 120.20449 352.174167 
L 120.354263 344.711119 
L 120.503688 352.174167 
L 120.652965 335.310482 
L 120.802469 352.174167 
L 120.951809 349.452522 
L 121.101991 352.174167 
L 121.251945 333.723419 
L 121.401871 339.961907 
L 121.551899 339.82011 
L 121.852427 352.174167 
L 122.002715 327.819532 
L 122.153623 352.174167 
L 122.304176 342.423944 
L 122.454822 352.174167 
L 122.605567 333.534872 
L 122.755895 352.174167 
L 122.906293 342.957502 
L 123.05689 352.174167 
L 123.360015 342.810091 
L 123.512296 344.689643 
L 123.66338 338.720801 
L 123.813372 352.174167 
L 123.965267 327.356046 
L 124.124221 352.174167 
L 124.281589 337.248072 
L 124.431834 352.174167 
L 124.582522 346.769757 
L 124.732492 348.109246 
L 124.8838 339.019217 
L 125.033119 342.675743 
L 125.183869 352.174167 
L 125.339689 334.465544 
L 125.491536 352.174167 
L 125.640587 345.896921 
L 125.79163 352.174167 
L 125.944794 337.096648 
L 126.095093 352.174167 
L 126.246165 348.019972 
L 126.396078 352.174167 
L 126.545422 335.557388 
L 126.696809 334.012122 
L 126.998243 348.801229 
L 127.148919 352.174167 
L 127.299916 329.335931 
L 127.455158 352.174167 
L 127.60729 338.037072 
L 127.756762 352.174167 
L 127.908455 348.810825 
L 128.059766 352.174167 
L 128.367062 339.501627 
L 128.517925 343.316075 
L 128.671049 336.898361 
L 128.822431 352.174167 
L 128.974226 324.121618 
L 129.126817 352.174167 
L 129.279296 346.627119 
L 129.429012 352.174167 
L 129.580668 335.357459 
L 129.730666 352.174167 
L 130.03461 336.790328 
L 130.184718 348.727477 
L 130.336919 346.830824 
L 130.493837 352.174167 
L 130.65147 332.443187 
L 130.80403 352.174167 
L 130.957123 339.766084 
L 131.11194 352.174167 
L 131.261665 343.865777 
L 131.413301 349.491127 
L 131.563918 336.388428 
L 131.866261 352.174167 
L 132.015626 338.565942 
L 132.165222 352.174167 
L 132.315969 346.769757 
L 132.467453 352.174167 
L 132.620839 335.630056 
L 132.776346 352.174167 
L 132.925666 346.586151 
L 133.078058 352.174167 
L 133.233999 331.936542 
L 133.383747 352.174167 
L 133.682733 337.226626 
L 133.832404 352.174167 
L 133.981956 348.097565 
L 134.132709 352.174167 
L 134.283515 351.503407 
L 134.434785 352.174167 
L 134.587287 334.559509 
L 134.736553 352.174167 
L 134.890269 341.014619 
L 135.043371 352.174167 
L 135.196013 348.825117 
L 135.345067 337.248072 
L 135.494788 352.174167 
L 135.643715 339.227725 
L 135.795347 352.174167 
L 135.946746 344.721811 
L 136.096512 352.174167 
L 136.249452 335.773502 
L 136.399367 352.174167 
L 136.553662 328.163039 
L 136.705877 352.174167 
L 136.855327 345.095038 
L 137.005405 352.174167 
L 137.304831 337.226626 
L 137.464208 352.174167 
L 137.614762 332.749678 
L 137.763707 352.174167 
L 137.912652 328.702462 
L 138.063578 352.174167 
L 138.213037 343.890036 
L 138.362 352.174167 
L 138.511698 350.132933 
L 138.66163 352.174167 
L 138.817368 333.392886 
L 139.121466 352.174167 
L 139.270794 334.508892 
L 139.419657 352.174167 
L 139.571787 345.466566 
L 139.722602 352.174167 
L 139.871453 332.730991 
L 140.022323 352.174167 
L 140.175151 330.070439 
L 140.325759 352.174167 
L 140.475692 352.174167 
L 140.625567 332.49886 
L 140.775606 348.767208 
L 140.926352 326.503222 
L 141.077978 352.174167 
L 141.228162 346.769757 
L 141.380835 352.174167 
L 141.532899 334.277469 
L 141.700726 352.174167 
L 141.85521 346.032792 
L 142.00579 350.824992 
L 142.156057 336.94212 
L 142.457748 352.174167 
L 142.608663 348.126642 
L 142.761526 352.174167 
L 142.91152 338.585494 
L 143.063335 352.174167 
L 143.216499 343.950065 
L 143.368351 352.174167 
L 143.520867 335.749768 
L 143.671896 346.120152 
L 143.822591 335.139375 
L 144.125563 352.174167 
L 144.27477 332.470591 
L 144.428907 352.174167 
L 144.579963 343.316075 
L 144.730514 352.174167 
L 144.882187 351.505304 
L 145.03225 352.174167 
L 145.184521 336.829789 
L 145.335334 352.174167 
L 145.637436 337.417446 
L 145.79039 351.489817 
L 145.942752 348.183569 
L 146.092433 352.174167 
L 146.243091 345.126688 
L 146.393977 352.174167 
L 146.54588 346.66749 
L 146.697815 352.174167 
L 146.849214 337.118468 
L 146.99965 352.174167 
L 147.150214 333.589134 
L 147.301167 351.501498 
L 147.454883 346.635241 
L 147.606286 348.160991 
L 147.758778 352.174167 
L 147.91604 348.276756 
L 148.06778 352.174167 
L 148.219959 335.015755 
L 148.370788 352.174167 
L 148.523138 345.270724 
L 148.672311 352.174167 
L 148.827028 336.524708 
L 148.976876 352.174167 
L 149.126771 343.742324 
L 149.428022 352.174167 
L 149.578023 333.204535 
L 149.727885 352.174167 
L 149.877913 343.804506 
L 150.027899 352.174167 
L 150.181925 347.544515 
L 150.33145 352.174167 
L 150.484817 339.152673 
L 150.634202 352.174167 
L 150.783721 332.154183 
L 150.934187 348.109246 
L 151.085766 351.501498 
L 151.235821 347.445308 
L 151.386427 352.174167 
L 151.535719 335.139375 
L 151.685845 352.174167 
L 151.83524 343.012444 
L 151.985443 352.174167 
L 152.135522 333.397818 
L 152.286358 352.174167 
L 152.590601 334.832797 
L 152.741815 350.801494 
L 152.892844 339.375263 
L 153.044971 352.174167 
L 153.195035 345.310802 
L 153.346253 352.174167 
L 153.497893 350.167579 
L 153.651276 352.174167 
L 153.804978 339.171518 
L 153.957192 352.174167 
L 154.111394 332.61113 
L 154.261464 350.150404 
L 154.418632 344.774815 
L 154.720979 352.174167 
L 154.871259 335.914482 
L 155.021364 352.174167 
L 155.171635 343.853595 
L 155.323125 352.174167 
L 155.473284 329.525064 
L 155.623283 352.174167 
L 155.77585 342.537483 
L 155.926164 352.174167 
L 156.077876 334.990816 
L 156.227668 348.781872 
L 156.379127 352.174167 
L 156.530367 341.411474 
L 156.680462 352.174167 
L 156.832504 328.730819 
L 156.981917 352.174167 
L 157.131522 326.39273 
L 157.281914 352.174167 
L 157.432031 345.887649 
L 157.582981 352.174167 
L 157.733771 349.483493 
L 157.884336 352.174167 
L 158.033763 340.139647 
L 158.335786 352.174167 
L 158.487414 336.030127 
L 158.638973 352.174167 
L 158.78976 347.334692 
L 158.939712 352.174167 
L 159.090276 338.743927 
L 159.24049 352.174167 
L 159.389945 349.456432 
L 159.540151 352.174167 
L 159.691595 337.676937 
L 159.991809 352.174167 
L 160.14505 349.510021 
L 160.300631 352.174167 
L 160.451527 336.702796 
L 160.604808 352.174167 
L 160.755514 345.19945 
L 160.908495 352.174167 
L 161.061963 333.803063 
L 161.213096 352.174167 
L 161.364061 343.816833 
L 161.518092 352.174167 
L 161.67296 346.023918 
L 161.829382 335.285387 
L 161.978771 352.174167 
L 162.128286 329.040184 
L 162.278123 352.174167 
L 162.427538 322.916483 
L 162.57953 352.174167 
L 162.731496 341.602949 
L 162.883319 352.174167 
L 163.033919 340.103508 
L 163.184626 352.174167 
L 163.485754 340.014246 
L 163.63594 352.174167 
L 163.78619 344.044325 
L 163.936609 352.174167 
L 164.08714 335.533023 
L 164.23776 352.174167 
L 164.39339 340.506447 
L 164.550215 352.174167 
L 164.860166 344.136447 
L 165.012376 345.997139 
L 165.162954 346.111528 
L 165.313624 352.174167 
L 165.464217 346.785154 
L 165.615704 352.174167 
L 165.767249 337.417446 
L 165.916751 352.174167 
L 166.067474 336.273035 
L 166.217917 352.174167 
L 166.367777 339.582532 
L 166.51769 352.174167 
L 166.667947 342.99877 
L 166.818763 352.174167 
L 166.969262 348.806034 
L 167.11963 342.70292 
L 167.272898 352.174167 
L 167.427292 344.25976 
L 167.580075 352.174167 
L 167.731207 338.326851 
L 167.881897 352.174167 
L 168.032492 328.256531 
L 168.183056 352.174167 
L 168.333418 341.650002 
L 168.483054 344.009232 
L 168.635989 341.11251 
L 168.943226 352.174167 
L 169.093458 344.753704 
L 169.2469 352.174167 
L 169.397063 344.513277 
L 169.548046 352.174167 
L 169.69874 345.915384 
L 169.849632 352.174167 
L 170.002062 335.090141 
L 170.159955 352.174167 
L 170.310112 335.630056 
L 170.463363 340.219188 
L 170.615211 350.109163 
L 170.76744 324.121618 
L 170.917715 352.174167 
L 171.069448 345.399298 
L 171.219378 352.174167 
L 171.369789 329.392806 
L 171.525898 352.174167 
L 171.675693 331.857591 
L 171.82536 352.174167 
L 171.975045 348.767208 
L 172.124794 339.264927 
L 172.27621 350.115157 
L 172.427876 345.466566 
L 172.587015 352.174167 
L 172.737194 334.965804 
L 172.890697 352.174167 
L 173.042113 329.817101 
L 173.191457 352.174167 
L 173.342612 343.576243 
L 173.492495 352.174167 
L 173.793783 345.418655 
L 173.946864 352.174167 
L 174.097217 349.479661 
L 174.248138 352.174167 
L 174.402081 337.864942 
L 174.552141 352.174167 
L 174.70396 330.866811 
L 174.855252 352.174167 
L 175.004391 345.859668 
L 175.154068 352.174167 
L 175.306938 335.749768 
L 175.458412 347.485497 
L 175.916274 352.174167 
L 176.068051 336.790328 
L 176.219046 352.174167 
L 176.370176 343.816833 
L 176.521756 352.174167 
L 176.671264 334.711618 
L 176.82031 352.174167 
L 176.970742 346.577885 
L 177.122367 345.457039 
L 177.273607 342.380673 
L 177.5758 352.174167 
L 177.72846 339.519476 
L 177.878753 352.174167 
L 178.028914 344.524543 
L 178.17947 352.174167 
L 178.335288 344.989437 
L 178.487418 352.174167 
L 178.640259 346.683475 
L 178.790486 352.174167 
L 178.941789 336.658655 
L 179.244025 352.174167 
L 179.395383 344.785326 
L 179.545145 352.174167 
L 179.696469 331.849561 
L 179.846706 352.174167 
L 180.001551 345.389578 
L 180.153453 352.174167 
L 180.304349 335.630056 
L 180.454933 352.174167 
L 180.604931 327.679362 
L 180.754187 352.174167 
L 180.904681 345.970125 
L 181.205891 352.174167 
L 181.356347 338.682417 
L 181.509717 352.174167 
L 181.660911 333.723419 
L 181.811977 352.174167 
L 181.961298 325.445838 
L 182.117375 352.174167 
L 182.417526 344.721811 
L 182.567654 345.250509 
L 182.718755 344.090648 
L 182.870678 352.174167 
L 183.022738 334.783741 
L 183.173518 352.174167 
L 183.324816 331.081418 
L 183.476854 352.174167 
L 183.627831 349.428821 
L 183.777922 352.174167 
L 183.928975 339.601132 
L 184.079231 352.174167 
L 184.237002 345.476067 
L 184.539487 352.174167 
L 184.690567 332.694495 
L 184.840171 352.174167 
L 184.992673 337.008732 
L 185.144327 352.174167 
L 185.294669 339.545169 
L 185.444634 352.174167 
L 185.596054 329.976113 
L 185.747664 330.101703 
L 185.899158 348.085817 
L 186.050521 343.454286 
L 186.201305 352.174167 
L 186.353452 346.171385 
L 186.503952 352.174167 
L 186.655066 348.820367 
L 186.806794 352.174167 
L 186.956606 332.124914 
L 187.110255 352.174167 
L 187.266359 330.318099 
L 187.417459 352.174167 
L 187.721869 336.256551 
L 187.873645 352.174167 
L 188.024895 347.465489 
L 188.175093 352.174167 
L 188.32585 348.103414 
L 188.476067 352.174167 
L 188.627741 345.87835 
L 188.779509 352.174167 
L 188.930582 342.452579 
L 189.081385 352.174167 
L 189.232626 348.132408 
L 189.38392 352.174167 
L 189.53472 335.557388 
L 189.836627 352.174167 
L 189.986125 337.248072 
L 190.138535 352.174167 
L 190.290107 344.753704 
L 190.442872 352.174167 
L 190.596137 337.226626 
L 190.747663 352.174167 
L 190.902007 343.985668 
L 191.055699 352.174167 
L 191.205863 348.786732 
L 191.358208 338.128053 
L 191.514157 352.174167 
L 191.670793 345.019086 
L 191.82204 352.174167 
L 191.97253 348.115061 
L 192.123936 352.174167 
L 192.277584 337.161918 
L 192.428777 352.174167 
L 192.580832 343.779744 
L 192.731879 352.174167 
L 192.883843 348.160991 
L 193.037027 337.541975 
L 193.18809 352.174167 
L 193.338723 340.673367 
L 193.491149 352.174167 
L 193.642598 344.501978 
L 193.795087 352.174167 
L 193.946165 348.115061 
L 194.098389 352.174167 
L 194.256316 342.055355 
L 194.406109 350.153287 
L 194.557344 346.586151 
L 194.708915 348.155307 
L 194.859206 352.174167 
L 195.009478 335.960939 
L 195.160741 352.174167 
L 195.312081 345.250509 
L 195.46416 352.174167 
L 195.617906 337.118468 
L 195.76755 352.174167 
L 195.917697 345.178814 
L 196.222086 343.264724 
L 196.524766 352.174167 
L 196.676769 338.777968 
L 196.827006 352.174167 
L 196.982127 347.557429 
L 197.133322 352.174167 
L 197.285479 333.855778 
L 197.438644 352.174167 
L 197.58951 347.334692 
L 197.740048 348.806034 
L 197.889723 338.82375 
L 198.039432 341.982662 
L 198.18913 352.174167 
L 198.338731 348.085817 
L 198.489596 352.174167 
L 198.640079 339.301917 
L 198.790303 352.174167 
L 198.940506 338.843558 
L 199.090544 352.174167 
L 199.247224 338.701636 
L 199.404521 349.586556 
L 199.703335 333.829458 
L 199.854023 352.174167 
L 200.003723 339.909117 
L 200.153316 352.174167 
L 200.304204 345.896921 
L 200.454282 352.174167 
L 200.603544 337.18355 
L 200.752399 352.174167 
L 200.90139 337.418443 
L 201.050467 352.174167 
L 201.199568 336.692786 
L 201.350011 352.174167 
L 201.499224 345.02007 
L 201.648259 350.127042 
L 201.804141 347.424955 
L 201.960484 334.659877 
L 202.112881 352.174167 
L 202.265105 343.792143 
L 202.417352 352.174167 
L 202.571113 333.882022 
L 202.72131 352.174167 
L 202.871028 343.653701 
L 203.021263 352.174167 
L 203.170829 349.460331 
L 203.320306 339.264927 
L 203.469994 344.501978 
L 203.61938 324.957717 
L 203.76949 352.174167 
L 203.918802 343.997467 
L 204.068264 352.174167 
L 204.218621 348.810825 
L 204.368511 352.174167 
L 204.518028 341.634364 
L 204.66761 352.174167 
L 204.817922 328.668146 
L 204.967821 352.174167 
L 205.274204 334.563247 
L 205.424217 352.174167 
L 205.574538 346.085508 
L 205.724317 352.174167 
L 205.874789 333.231673 
L 206.026316 352.174167 
L 206.178475 344.591449 
L 206.337738 352.174167 
L 206.496962 341.562423 
L 206.652849 348.260629 
L 206.961976 324.750802 
L 207.112732 352.174167 
L 207.264343 319.747711 
L 207.414519 352.174167 
L 207.564818 332.558162 
L 207.714816 352.174167 
L 207.864027 342.395139 
L 208.013407 352.174167 
L 208.162927 346.544574 
L 208.313172 352.174167 
L 208.472173 338.226692 
L 208.787405 352.174167 
L 208.944968 339.916553 
L 209.103519 352.174167 
L 209.253191 344.42194 
L 209.402653 352.174167 
L 209.551862 344.42194 
L 209.70189 352.174167 
L 209.852891 345.924574 
L 210.002475 352.174167 
L 210.152092 334.581688 
L 210.302513 335.960939 
L 210.451929 352.174167 
L 210.601537 322.279086 
L 210.75116 352.174167 
L 210.900914 345.399298 
L 211.050519 352.174167 
L 211.200888 337.118468 
L 211.355513 352.174167 
L 211.510134 328.196858 
L 211.664934 352.174167 
L 211.818131 346.66749 
L 211.972375 335.685819 
L 212.125297 352.174167 
L 212.279768 338.872175 
L 212.432741 352.174167 
L 212.587299 338.02801 
L 212.73826 352.174167 
L 212.889026 347.9955 
L 213.039199 352.174167 
L 213.1904 338.999928 
L 213.340746 352.174167 
L 213.4905 346.476747 
L 213.639988 352.174167 
L 213.790391 348.786732 
L 213.939841 337.226626 
L 214.09214 352.174167 
L 214.241443 335.867759 
L 214.398394 352.174167 
L 214.549763 343.160214 
L 214.702023 352.174167 
L 214.851825 336.06102 
L 215.000836 352.174167 
L 215.149951 330.338169 
L 215.299593 346.730877 
L 215.60213 341.396142 
L 215.751566 352.174167 
L 215.900905 327.679362 
L 216.050607 352.174167 
L 216.200898 342.337017 
L 216.350427 352.174167 
L 216.50086 333.507621 
L 216.650933 352.174167 
L 216.801788 327.501863 
L 216.95384 349.494927 
L 217.255367 321.81773 
L 217.406044 352.174167 
L 217.556487 336.502158 
L 217.706863 352.174167 
L 217.857562 324.317387 
L 218.007678 352.174167 
L 218.157758 348.068067 
L 218.310908 348.853339 
L 218.462858 326.466497 
L 218.61574 329.56078 
L 218.768141 352.174167 
L 218.926769 346.359997 
L 219.082679 352.174167 
L 219.233546 336.964389 
L 219.385045 352.174167 
L 219.53775 331.761829 
L 219.689646 352.174167 
L 219.839884 344.433476 
L 219.989728 346.762026 
L 220.290693 327.749648 
L 220.444282 352.174167 
L 220.596431 341.457208 
L 220.745656 352.174167 
L 220.898324 333.643082 
L 221.049228 352.174167 
L 221.203689 343.012444 
L 221.362569 352.174167 
L 221.512132 344.501978 
L 221.662187 352.174167 
L 221.814093 337.074765 
L 222.116012 352.174167 
L 222.266459 342.689351 
L 222.418032 352.174167 
L 222.57231 334.34188 
L 222.723963 352.174167 
L 222.874903 336.00713 
L 223.027525 352.174167 
L 223.177603 342.2782 
L 223.327861 352.174167 
L 223.481209 335.212695 
L 223.630785 335.236996 
L 223.783081 352.174167 
L 223.934517 345.476067 
L 224.084794 352.174167 
L 224.236032 336.680757 
L 224.386365 352.174167 
L 224.538038 330.494588 
L 224.68844 352.174167 
L 224.839454 348.815603 
L 224.99062 352.174167 
L 225.142547 334.355281 
L 225.292999 349.479661 
L 225.444779 346.643338 
L 225.596198 347.478846 
L 225.745425 352.174167 
L 225.895395 348.77211 
L 226.04541 352.174167 
L 226.197847 335.773502 
L 226.346996 352.174167 
L 226.49612 331.342192 
L 226.64527 352.174167 
L 226.795895 342.438282 
L 226.945543 350.13879 
L 227.243698 328.325458 
L 227.392777 351.482813 
L 227.541849 348.079917 
L 227.691079 352.174167 
L 227.84013 332.413808 
L 227.989258 352.174167 
L 228.138237 324.87917 
L 228.289736 352.174167 
L 228.439633 345.915384 
L 228.590884 352.174167 
L 228.740399 337.613166 
L 228.889589 344.009232 
L 229.044922 334.978319 
L 229.346616 352.174167 
L 229.496285 345.37983 
L 229.647178 352.174167 
L 229.797697 348.050162 
L 229.947825 352.174167 
L 230.097961 335.508587 
L 230.247919 352.174167 
L 230.397882 345.137175 
L 230.54813 352.174167 
L 230.698158 347.233569 
L 230.848187 352.174167 
L 230.998172 338.467331 
L 231.30123 350.775096 
L 231.454262 345.513803 
L 231.610808 352.174167 
L 231.767051 333.336682 
L 231.923869 352.174167 
L 232.073475 345.915384 
L 232.222753 352.174167 
L 232.372868 328.804809 
L 232.524869 352.174167 
L 232.676626 331.342192 
L 232.825947 344.044325 
L 232.975199 345.831436 
L 233.127172 335.428918 
L 233.281041 352.174167 
L 233.433979 345.476067 
L 233.583558 352.174167 
L 233.733141 336.761592 
L 233.882746 352.174167 
L 234.038768 327.906795 
L 234.188745 352.174167 
L 234.34506 332.332804 
L 234.49444 349.464219 
L 234.648977 350.135866 
L 234.798416 346.762026 
L 234.948763 352.174167 
L 235.100364 334.734406 
L 235.251513 352.174167 
L 235.404137 345.250509 
L 235.557909 352.174167 
L 235.710844 335.065418 
L 235.860853 352.174167 
L 236.010506 348.001645 
L 236.164197 352.174167 
L 236.314302 335.41012 
L 236.616404 352.174167 
L 236.769281 350.176058 
L 236.922492 352.174167 
L 237.074227 336.502158 
L 237.225804 352.174167 
L 237.376341 323.042232 
L 237.526497 352.174167 
L 237.675878 345.745205 
L 237.826051 352.174167 
L 237.976186 346.762026 
L 238.12632 333.231673 
L 238.284458 352.174167 
L 238.435508 327.992505 
L 238.586647 352.174167 
L 238.737616 348.138157 
L 238.888814 352.174167 
L 239.039481 333.562043 
L 239.189897 352.174167 
L 239.340394 343.066736 
L 239.491217 345.418655 
L 239.64105 338.999928 
L 239.793143 342.810091 
L 239.943157 352.174167 
L 240.095904 344.827071 
L 240.248948 352.174167 
L 240.405721 344.827071 
L 240.557065 352.174167 
L 240.70821 328.804809 
L 240.867141 352.174167 
L 241.019286 330.587368 
L 241.168877 351.495708 
L 241.319094 345.219963 
L 241.469278 332.555156 
L 241.619369 352.174167 
L 241.769459 343.379438 
L 241.919572 352.174167 
L 242.069625 344.467879 
L 242.219555 352.174167 
L 242.369463 335.360449 
L 242.520031 352.174167 
L 242.671156 340.066137 
L 242.822119 352.174167 
L 243.124164 339.375263 
L 243.274487 346.627119 
L 243.424498 343.366838 
L 243.574521 352.174167 
L 243.724748 331.878638 
L 243.874785 352.174167 
L 244.025248 318.444793 
L 244.176842 352.174167 
L 244.32977 340.352021 
L 244.482725 352.174167 
L 244.636252 338.546333 
L 244.789091 337.541975 
L 245.095052 347.525008 
L 245.248378 352.174167 
L 245.398147 345.399298 
L 245.547362 352.174167 
L 245.697076 333.986251 
L 245.847314 352.174167 
L 245.99736 343.804506 
L 246.14735 352.174167 
L 246.296835 345.821969 
L 246.446318 352.174167 
L 246.596094 336.692786 
L 246.746475 344.055955 
L 247.046249 334.559509 
L 247.197241 352.174167 
L 247.34704 335.914482 
L 247.496889 352.174167 
L 247.646646 346.651413 
L 247.796448 352.174167 
L 247.945822 333.534872 
L 248.096762 352.174167 
L 248.246295 328.082458 
L 248.396204 352.174167 
L 248.546096 333.480291 
L 248.695731 352.174167 
L 248.996771 346.120152 
L 249.147063 352.174167 
L 249.297313 350.821131 
L 249.449211 352.174167 
L 249.602428 339.190307 
L 249.752898 352.174167 
L 249.903185 329.492143 
L 250.053368 352.174167 
L 250.203568 343.093641 
L 250.353278 352.174167 
L 250.505791 350.832647 
L 250.657984 345.513803 
L 250.812167 352.174167 
L 250.967772 344.368624 
L 251.118622 352.174167 
L 251.267977 333.803063 
L 251.417547 352.174167 
L 251.566928 329.720595 
L 251.716165 352.174167 
L 251.865166 340.84756 
L 252.014365 352.174167 
L 252.16359 334.198975 
L 252.31284 352.174167 
L 252.621208 335.499772 
L 252.771501 352.174167 
L 252.920509 348.77211 
L 253.070938 352.174167 
L 253.220679 334.839643 
L 253.369773 352.174167 
L 253.519533 343.039671 
L 253.673154 352.174167 
L 253.828051 345.437901 
L 253.977205 352.174167 
L 254.133865 337.417446 
L 254.43273 352.174167 
L 254.583752 338.00783 
L 254.732782 352.174167 
L 254.881768 348.079917 
L 255.030645 352.174167 
L 255.180064 336.761592 
L 255.332715 352.174167 
L 255.484189 346.627119 
L 255.6336 352.174167 
L 255.783229 346.618973 
L 255.933016 352.174167 
L 256.084792 348.138157 
L 256.234563 352.174167 
L 256.384108 347.418131 
L 256.533899 335.212695 
L 256.683615 352.174167 
L 256.83318 333.150025 
L 256.983788 352.174167 
L 257.136063 346.635241 
L 257.285742 352.174167 
L 257.439579 333.776592 
L 257.590121 352.174167 
L 257.741917 341.665593 
L 257.891463 352.174167 
L 258.042812 349.471962 
L 258.192274 352.174167 
L 258.342592 350.13879 
L 258.492832 340.689797 
L 258.641882 352.174167 
L 258.790872 328.939892 
L 258.94014 352.174167 
L 259.089287 345.147631 
L 259.238399 352.174167 
L 259.387462 334.659877 
L 259.5374 352.174167 
L 259.689159 332.956746 
L 259.841987 352.174167 
L 260.142728 342.71645 
L 260.29231 350.066206 
L 260.441837 327.714555 
L 260.591543 352.174167 
L 260.741813 323.760426 
L 260.893216 352.174167 
L 261.047578 338.682417 
L 261.19691 352.174167 
L 261.347047 327.466054 
L 261.497092 352.174167 
L 261.797959 344.055955 
L 261.948939 341.982662 
L 262.09811 327.714555 
L 262.247381 352.174167 
L 262.398973 346.128751 
L 262.551891 352.174167 
L 262.705667 335.773502 
L 262.856625 352.174167 
L 263.014303 345.504409 
L 263.164896 352.174167 
L 263.315916 352.174167 
L 263.617839 341.160814 
L 263.918939 352.174167 
L 264.06841 337.248072 
L 264.217755 352.174167 
L 264.375638 335.121419 
L 264.535012 352.174167 
L 264.695254 324.170161 
L 264.855451 346.461452 
L 265.012827 341.709197 
L 265.162349 344.743104 
L 265.313654 352.174167 
L 265.464189 331.261955 
L 265.616727 352.174167 
L 265.766175 345.869022 
L 265.916447 352.174167 
L 266.067128 334.814188 
L 266.217791 352.174167 
L 266.36827 340.24678 
L 266.518455 352.174167 
L 266.668488 341.287587 
L 266.818848 342.71645 
L 266.969008 352.174167 
L 267.119009 345.399298 
L 267.270359 352.174167 
L 267.420615 337.967297 
L 267.570654 352.174167 
L 267.720677 340.175571 
L 267.871015 352.174167 
L 268.021882 332.24148 
L 268.174619 352.174167 
L 268.476001 340.031592 
L 268.626714 343.938129 
L 268.776725 335.236996 
L 268.928338 352.174167 
L 269.078485 333.908191 
L 269.22851 352.174167 
L 269.379557 321.81773 
L 269.530565 352.174167 
L 269.681283 343.779744 
L 269.831745 352.174167 
L 269.982738 345.209722 
L 270.133313 352.174167 
L 270.284041 334.865022 
L 270.434693 338.663143 
L 270.585788 345.961068 
L 270.736066 343.40453 
L 270.885867 352.174167 
L 271.041891 344.939474 
L 271.199187 352.174167 
L 271.350775 348.172312 
L 271.501729 352.174167 
L 271.655198 335.114794 
L 271.805872 352.174167 
L 272.125523 337.535709 
L 272.280563 352.174167 
L 272.430495 348.103414 
L 272.585521 352.174167 
L 272.736719 347.458781 
L 272.886747 352.174167 
L 273.037401 343.779744 
L 273.18798 352.174167 
L 273.338463 345.951985 
L 273.488929 352.174167 
L 273.790557 329.849085 
L 273.942373 350.141706 
L 274.094889 346.845876 
L 274.245847 352.174167 
L 274.396214 333.960305 
L 274.547096 352.174167 
L 274.697662 345.896921 
L 274.850056 352.174167 
L 275.003597 346.738697 
L 275.155206 352.174167 
L 275.305746 339.619676 
L 275.456081 352.174167 
L 275.606637 347.452054 
L 275.757365 348.12086 
L 275.910411 352.174167 
L 276.061047 346.785154 
L 276.210815 352.174167 
L 276.360494 336.108622 
L 276.513242 352.174167 
L 276.663124 330.616137 
L 276.812494 352.174167 
L 276.962537 344.467879 
L 277.112058 352.174167 
L 277.261896 338.60499 
L 277.411436 339.944361 
L 277.561111 352.174167 
L 277.71148 347.445308 
L 277.861127 352.174167 
L 278.016249 339.00186 
L 278.171572 352.174167 
L 278.324813 344.657196 
L 278.475319 352.174167 
L 278.625701 346.050465 
L 278.775906 352.174167 
L 278.926111 346.094206 
L 279.075637 333.177319 
L 279.225728 352.174167 
L 279.377486 342.112766 
L 279.531567 352.174167 
L 279.687497 349.561538 
L 279.837489 352.174167 
L 279.990358 337.802818 
L 280.140075 352.174167 
L 280.289986 348.103414 
L 280.441673 348.155307 
L 280.595674 342.888891 
L 280.906822 352.174167 
L 281.059635 346.808086 
L 281.214661 352.174167 
L 281.363792 348.079917 
L 281.512916 352.174167 
L 281.663886 333.534872 
L 281.81304 352.174167 
L 281.962881 336.852388 
L 282.11379 343.417022 
L 282.269891 342.16953 
L 282.419545 342.040899 
L 282.571021 352.174167 
L 282.721134 348.109246 
L 282.87122 352.174167 
L 283.023039 336.702796 
L 283.173333 352.174167 
L 283.327078 345.350417 
L 283.477975 352.174167 
L 283.63218 344.602487 
L 283.781894 352.174167 
L 283.931496 323.596894 
L 284.083547 352.174167 
L 284.239376 343.40453 
L 284.393701 346.230071 
L 284.549775 352.174167 
L 284.701078 337.459191 
L 284.853939 352.174167 
L 285.006872 346.830824 
L 285.157521 352.174167 
L 285.307233 334.119789 
L 285.457768 352.174167 
L 285.607811 344.613492 
L 285.757353 350.815299 
L 285.907061 334.093238 
L 286.213304 352.174167 
L 286.365301 348.183569 
L 286.520726 352.174167 
L 286.67577 340.607175 
L 286.827133 352.174167 
L 286.976975 330.616137 
L 287.126939 352.174167 
L 287.279056 341.014619 
L 287.429728 344.764275 
L 287.729134 335.163885 
L 287.879267 352.174167 
L 288.029613 346.094206 
L 288.180836 352.174167 
L 288.330971 336.226404 
L 288.484008 352.174167 
L 288.634158 344.513277 
L 288.784047 352.174167 
L 288.933358 332.673721 
L 289.084384 352.174167 
L 289.387854 340.151646 
L 289.537815 345.933738 
L 289.687583 341.318825 
L 289.839799 352.174167 
L 289.992331 349.502495 
L 290.143431 352.174167 
L 290.294435 336.897385 
L 290.443685 352.174167 
L 290.593161 342.99877 
L 290.746464 352.174167 
L 290.901046 348.216963 
L 291.051873 340.083336 
L 291.203647 345.310802 
L 291.355056 325.305654 
L 291.511434 352.174167 
L 291.662884 348.155307 
L 291.816343 352.174167 
L 292.121304 352.174167 
L 292.277225 332.443187 
L 292.427273 346.085508 
L 292.726735 322.321977 
L 292.876344 352.174167 
L 293.026246 345.389578 
L 293.184932 352.174167 
L 293.335615 349.479661 
L 293.485459 352.174167 
L 293.635122 338.763972 
L 293.784874 352.174167 
L 293.934324 348.091699 
L 294.083774 352.174167 
L 294.384898 337.396485 
L 294.534248 352.174167 
L 294.685231 346.79282 
L 294.836981 352.174167 
L 294.990013 346.076785 
L 295.140048 352.174167 
L 295.290308 338.224732 
L 295.443255 352.174167 
L 295.593486 340.965021 
L 295.745058 352.174167 
L 295.901008 333.258734 
L 296.20047 350.760457 
L 296.350936 335.261226 
L 296.501707 352.174167 
L 296.651278 333.150025 
L 296.802255 352.174167 
L 296.954296 334.990816 
L 297.104416 352.174167 
L 297.255267 345.158057 
L 297.411095 352.174167 
L 297.569294 348.957256 
L 297.719188 338.720801 
L 297.875353 348.820367 
L 298.027628 329.56078 
L 298.177145 352.174167 
L 298.327187 343.841377 
L 298.478569 352.174167 
L 298.62843 350.135866 
L 298.778086 352.174167 
L 298.930823 344.602487 
L 299.080428 352.174167 
L 299.23401 331.761829 
L 299.383522 346.094206 
L 299.532812 346.407266 
L 299.83664 352.174167 
L 299.985849 337.226626 
L 300.135407 352.174167 
L 300.285115 340.813546 
L 300.434515 352.174167 
L 300.586783 340.352021 
L 300.737268 352.174167 
L 300.892662 341.096314 
L 301.042981 352.174167 
L 301.195345 344.535776 
L 301.500744 352.174167 
L 301.650651 340.689797 
L 301.801111 352.174167 
L 301.950281 332.095559 
L 302.101638 352.174167 
L 302.251971 341.240391 
L 302.400881 352.174167 
L 302.550463 339.507582 
L 302.7046 352.174167 
L 303.012951 337.068092 
L 303.162924 352.174167 
L 303.312729 329.073423 
L 303.470573 352.174167 
L 303.625427 347.397542 
L 303.781724 352.174167 
L 303.932457 348.796411 
L 304.082155 352.174167 
L 304.232802 337.57034 
L 304.382589 352.174167 
L 304.532824 348.791579 
L 304.685542 338.187403 
L 304.842216 352.174167 
L 304.992679 344.090648 
L 305.142888 352.174167 
L 305.295072 332.413808 
L 305.447373 352.174167 
L 305.599129 345.209722 
L 305.75218 352.174167 
L 305.902212 348.019972 
L 306.05266 347.438543 
L 306.353847 338.682417 
L 306.50534 352.174167 
L 306.654773 329.106566 
L 306.805157 352.174167 
L 306.962434 344.125046 
L 307.113394 352.174167 
L 307.263007 334.839643 
L 307.412752 352.174167 
L 307.562657 345.859668 
L 307.714294 352.174167 
L 308.014117 328.428107 
L 308.164015 352.174167 
L 308.314116 349.464219 
L 308.465302 352.174167 
L 308.617534 334.432419 
L 308.767674 352.174167 
L 308.917422 345.189147 
L 309.070184 352.174167 
L 309.220552 333.562043 
L 309.370272 352.174167 
L 309.520368 347.383717 
L 309.671766 352.174167 
L 309.820994 350.813344 
L 309.970902 329.106566 
L 310.120534 352.174167 
L 310.272723 323.24943 
L 310.426365 352.174167 
L 310.583705 341.160814 
L 310.741718 352.174167 
L 310.899092 346.18827 
L 311.05193 350.184465 
L 311.202832 348.032101 
L 311.353472 331.936542 
L 311.50288 352.174167 
L 311.65282 337.248072 
L 311.804056 352.174167 
L 311.955988 345.260631 
L 312.11 352.174167 
L 312.262719 333.472468 
L 312.414339 352.174167 
L 312.564426 338.803883 
L 312.871595 352.174167 
L 313.02202 331.261955 
L 313.176408 352.174167 
L 313.329002 343.186571 
L 313.482256 352.174167 
L 313.631687 328.952095 
L 313.782034 352.174167 
L 313.93567 343.290474 
L 314.085902 352.174167 
L 314.236516 331.433561 
L 314.386423 347.431759 
L 314.535935 350.081752 
L 314.686401 331.23208 
L 314.836759 352.174167 
L 314.986999 325.15212 
L 315.137055 352.174167 
L 315.286541 340.981603 
L 315.43733 352.174167 
L 315.588748 330.147462 
L 315.739771 352.174167 
L 315.8896 348.702171 
L 316.044502 352.174167 
L 316.194406 348.796411 
L 316.344903 335.261226 
L 316.494834 352.174167 
L 316.644774 342.648409 
L 316.799485 352.174167 
L 316.94968 347.458781 
L 317.100049 352.174167 
L 317.249951 332.7595 
L 317.399596 352.174167 
L 317.552408 331.643668 
L 317.705857 352.174167 
L 317.864981 345.340557 
L 318.024852 347.089373 
L 318.174917 352.174167 
L 318.325431 348.109246 
L 318.475704 352.174167 
L 318.62839 338.427486 
L 318.778259 352.174167 
L 318.930324 341.080071 
L 319.081136 352.174167 
L 319.231633 335.557388 
L 319.381424 344.721811 
L 319.531574 337.802818 
L 319.831109 352.174167 
L 319.981078 333.882022 
L 320.131145 352.174167 
L 320.280932 342.675743 
L 320.431789 352.174167 
L 320.583875 330.274968 
L 320.740873 352.174167 
L 320.890579 345.19945 
L 321.042161 352.174167 
L 321.193 349.483493 
L 321.342561 352.174167 
L 321.492264 334.146262 
L 321.793425 352.174167 
L 321.943858 346.769757 
L 322.095538 352.174167 
L 322.246892 336.680757 
L 322.402385 352.174167 
L 322.553505 332.036591 
L 322.705901 352.174167 
L 322.859066 346.032792 
L 323.009383 352.174167 
L 323.160289 350.153287 
L 323.309543 338.585494 
L 323.460483 350.087906 
L 323.612609 328.095115 
L 323.76796 352.174167 
L 323.92328 346.068037 
L 324.074389 352.174167 
L 324.229684 336.614261 
L 324.382236 352.174167 
L 324.534853 345.250509 
L 324.686399 352.174167 
L 324.83888 337.57034 
L 325.138766 352.174167 
L 325.288531 347.424955 
L 325.441011 352.174167 
L 325.590292 335.964966 
L 325.742309 352.174167 
L 325.895323 341.14476 
L 326.045185 352.174167 
L 326.195794 343.053224 
L 326.347637 352.174167 
L 326.499172 349.487315 
L 326.650392 333.366208 
L 326.80501 352.174167 
L 326.956711 330.830942 
L 327.110416 352.174167 
L 327.259645 343.133702 
L 327.408809 352.174167 
L 327.558825 341.665593 
L 327.709188 352.174167 
L 327.860342 345.961068 
L 328.011455 352.174167 
L 328.167707 338.720801 
L 328.47052 352.174167 
L 328.61977 350.132933 
L 328.769883 352.174167 
L 328.920135 345.87835 
L 329.072785 352.174167 
L 329.223858 337.740152 
L 329.374645 352.174167 
L 329.528361 325.419665 
L 329.680559 352.174167 
L 329.830413 348.115061 
L 329.981057 337.333242 
L 330.132982 352.174167 
L 330.282648 345.37983 
L 330.435457 352.174167 
L 330.589907 339.320332 
L 330.744517 352.174167 
L 330.894396 343.792143 
L 331.045465 352.174167 
L 331.19501 334.119789 
L 331.345805 352.174167 
L 331.649761 336.569613 
L 331.799051 352.174167 
L 331.948885 347.424955 
L 332.099359 352.174167 
L 332.249944 337.312041 
L 332.401176 352.174167 
L 332.553006 330.43229 
L 332.70316 352.174167 
L 332.853299 344.965541 
L 333.004682 352.174167 
L 333.154388 350.821131 
L 333.304027 348.097565 
L 333.604217 325.599892 
L 333.756552 352.174167 
L 333.906668 334.609836 
L 334.056072 352.174167 
L 334.205494 322.874325 
L 334.357406 352.174167 
L 334.506721 327.57317 
L 334.655939 352.174167 
L 334.806397 341.587171 
L 334.959399 352.174167 
L 335.113512 348.085817 
L 335.264894 334.759108 
L 335.414372 351.478746 
L 335.563851 327.714555 
L 335.714255 352.174167 
L 335.865365 342.729942 
L 336.015023 352.174167 
L 336.169079 346.032792 
L 336.323592 352.174167 
L 336.473733 351.498615 
L 336.627589 352.174167 
L 336.783863 334.832797 
L 336.935596 334.832797 
L 337.086486 346.715167 
L 337.238879 344.827071 
L 337.393443 352.174167 
L 337.550353 338.476784 
L 337.701644 352.174167 
L 337.856094 348.876497 
L 338.0069 352.174167 
L 338.158023 335.67815 
L 338.307297 352.174167 
L 338.456541 345.084424 
L 338.606266 352.174167 
L 338.755458 350.132933 
L 338.90532 334.534237 
L 339.065492 352.174167 
L 339.215794 348.109246 
L 339.366715 352.174167 
L 339.517414 347.438543 
L 339.666582 352.174167 
L 339.819128 338.796916 
L 339.968777 352.174167 
L 340.118301 345.887649 
L 340.268442 350.144614 
L 340.568796 328.563605 
L 340.718112 352.174167 
L 340.868056 345.389578 
L 341.017318 352.174167 
L 341.166662 349.4486 
L 341.315975 352.174167 
L 341.46547 336.87492 
L 341.614799 352.174167 
L 341.764029 346.536184 
L 341.914953 352.174167 
L 342.066791 351.503407 
L 342.370845 344.501978 
L 342.52354 344.816679 
L 342.67945 352.174167 
L 342.833869 337.66442 
L 342.991617 352.174167 
L 343.14093 343.053224 
L 343.290845 352.174167 
L 343.44322 344.58038 
L 343.592488 352.174167 
L 343.749307 338.068198 
L 344.052054 348.776998 
L 344.203534 344.113613 
L 344.360085 352.174167 
L 344.513298 331.64271 
L 344.666882 352.174167 
L 344.819078 346.838361 
L 344.96909 352.174167 
L 345.122759 333.312624 
L 345.272841 352.174167 
L 345.427821 348.77211 
L 345.577529 337.333242 
L 345.727492 352.174167 
L 345.877151 345.399298 
L 346.02935 352.174167 
L 346.1842 347.445308 
L 346.33527 352.174167 
L 346.488172 334.534237 
L 346.640575 352.174167 
L 346.794797 332.831869 
L 346.949689 337.068092 
L 347.100161 348.752417 
L 347.249871 344.020963 
L 347.405512 352.174167 
L 347.565239 348.350292 
L 347.724735 352.174167 
L 347.876591 338.387408 
L 348.027782 352.174167 
L 348.332304 339.996849 
L 348.486586 342.16953 
L 348.78937 352.174167 
L 348.942056 337.5007 
L 349.092771 352.174167 
L 349.243373 328.256531 
L 349.396324 352.174167 
L 349.548552 338.367281 
L 349.705174 352.174167 
L 349.864016 344.785326 
L 350.169317 352.174167 
L 350.326758 348.287434 
L 350.477472 352.174167 
L 350.633794 332.164894 
L 350.786974 352.174167 
L 350.941724 347.518469 
L 351.098547 352.174167 
L 351.249346 348.815603 
L 351.40418 335.073984 
L 351.561439 352.174167 
L 351.712044 328.630776 
L 351.86714 352.174167 
L 352.023095 342.026402 
L 352.173858 352.174167 
L 352.324751 332.872705 
L 352.480448 352.174167 
L 352.788316 332.249202 
L 352.938702 352.174167 
L 353.090488 332.079868 
L 353.243455 352.174167 
L 353.397231 346.675494 
L 353.547753 352.174167 
L 353.698539 336.226404 
L 353.848955 352.174167 
L 354.000551 347.327606 
L 354.151533 351.501498 
L 354.305403 336.301076 
L 354.611114 352.174167 
L 354.762107 336.030127 
L 354.911556 352.174167 
L 355.060893 348.77211 
L 355.210138 352.174167 
L 355.364816 336.411306 
L 355.515181 352.174167 
L 355.667646 349.502495 
L 355.816695 340.607175 
L 355.966019 346.635241 
L 356.116499 328.529876 
L 356.269896 352.174167 
L 356.419044 343.341529 
L 356.569668 352.174167 
L 356.722328 346.586151 
L 356.871465 352.174167 
L 357.025529 335.285387 
L 357.174639 352.174167 
L 357.323996 343.997467 
L 357.473834 350.819193 
L 357.62562 336.00713 
L 357.925702 352.174167 
L 358.076003 336.63649 
L 358.227461 352.174167 
L 358.37721 347.418131 
L 358.531726 352.174167 
L 358.68429 346.651413 
L 358.839572 352.174167 
L 358.989443 346.762026 
L 359.139263 352.174167 
L 359.289128 347.976955 
L 359.441503 352.174167 
L 359.593345 337.655742 
L 359.897638 352.174167 
L 360.04899 333.392886 
L 360.198754 352.174167 
L 360.349331 322.364745 
L 360.498914 352.174167 
L 360.648649 330.679357 
L 360.798995 352.174167 
L 360.948444 347.418131 
L 361.100809 350.170413 
L 361.258375 338.909487 
L 361.409046 349.487315 
L 361.559033 352.174167 
L 361.713767 344.899 
L 361.866181 352.174167 
L 362.016379 347.452054 
L 362.166317 352.174167 
L 362.316199 348.786732 
L 362.465965 352.174167 
L 362.615499 347.945679 
L 362.767025 352.174167 
L 363.066971 325.75218 
L 363.216495 352.174167 
L 363.371771 346.246629 
L 363.52657 352.174167 
L 363.679057 345.915384 
L 363.828795 352.174167 
L 363.979404 336.807124 
L 364.128856 352.174167 
L 364.27821 331.219108 
L 364.432659 352.174167 
L 364.584921 346.059264 
L 364.735433 351.499579 
L 364.885515 345.87835 
L 365.035796 333.177319 
L 365.185261 352.174167 
L 365.335304 344.044325 
L 365.48517 352.174167 
L 365.635135 345.389578 
L 365.788633 352.174167 
L 365.9448 334.759108 
L 366.095888 352.174167 
L 366.24556 342.817217 
L 366.396285 352.174167 
L 366.696997 343.985668 
L 366.846988 343.779744 
L 366.99622 342.648409 
L 367.146209 352.174167 
L 367.296537 347.431759 
L 367.451471 352.174167 
L 367.601931 343.792143 
L 367.752022 352.174167 
L 367.901428 347.397542 
L 368.050965 352.174167 
L 368.203119 334.432419 
L 368.353636 345.437901 
L 368.509165 333.127377 
L 368.659126 336.680757 
L 368.811963 352.174167 
L 368.962584 343.429479 
L 369.112306 352.174167 
L 369.261914 338.204128 
L 369.411515 352.174167 
L 369.563312 338.306547 
L 369.716855 352.174167 
L 369.865928 338.882997 
L 370.015863 352.174167 
L 370.170204 340.590508 
L 370.475877 352.174167 
L 370.627486 332.722126 
L 370.782854 352.174167 
L 370.932371 322.916483 
L 371.082807 352.174167 
L 371.234021 343.792143 
L 371.384463 352.174167 
L 371.539992 344.764275 
L 371.694233 350.858768 
L 371.844509 332.730991 
L 372.144366 352.174167 
L 372.294224 346.076785 
L 372.44404 352.174167 
L 372.593838 331.820401 
L 372.746234 352.174167 
L 372.896106 346.746496 
L 373.047012 352.174167 
L 373.198196 336.296249 
L 373.348194 352.174167 
L 373.497784 342.2782 
L 373.647228 352.174167 
L 373.801126 336.524708 
L 373.952349 350.838331 
L 374.101868 347.945679 
L 374.252468 348.115061 
L 374.403398 352.174167 
L 374.553702 335.960939 
L 374.704197 352.174167 
L 374.85507 342.351613 
L 375.005173 352.174167 
L 375.157524 340.352021 
L 375.309844 352.174167 
L 375.460231 340.673367 
L 375.61049 352.174167 
L 375.914183 330.830942 
L 376.067919 352.174167 
L 376.219658 340.117588 
L 376.369259 352.174167 
L 376.522017 331.111724 
L 376.675759 352.174167 
L 376.827503 334.277469 
L 376.978408 352.174167 
L 377.131678 339.076746 
L 377.433896 350.754089 
L 377.585597 348.820367 
L 377.735447 352.174167 
L 377.887966 338.108158 
L 378.038245 352.174167 
L 378.187865 338.783957 
L 378.341233 352.174167 
L 378.493804 336.319394 
L 378.645642 352.174167 
L 378.79722 336.524708 
L 378.948973 352.174167 
L 379.103109 351.516467 
L 379.254235 342.055355 
L 379.405709 352.174167 
L 379.559082 330.890979 
L 379.709517 352.174167 
L 379.860444 343.080209 
L 380.011415 352.174167 
L 380.165611 332.079868 
L 380.321192 343.017318 
L 380.470512 336.502158 
L 380.619881 317.473193 
L 380.769015 352.174167 
L 380.918248 340.590508 
L 381.068346 352.174167 
L 381.217847 333.0952 
L 381.367764 352.174167 
L 381.51724 324.277305 
L 381.667863 352.174167 
L 381.820428 346.618973 
L 381.97481 352.174167 
L 382.127001 349.506264 
L 382.27826 344.806257 
L 382.580685 348.825117 
L 382.737939 352.174167 
L 382.888691 351.506249 
L 383.043914 352.174167 
L 383.196315 333.258734 
L 383.346357 352.174167 
L 383.495571 345.850285 
L 383.644723 352.174167 
L 383.793922 333.202522 
L 383.943976 350.819193 
L 384.242243 339.891418 
L 384.391941 352.174167 
L 384.541983 346.754272 
L 384.691274 352.174167 
L 384.840425 346.032792 
L 384.989552 352.174167 
L 385.138678 337.994682 
L 385.287792 352.174167 
L 385.436984 343.012444 
L 385.586381 352.174167 
L 385.735702 336.013136 
L 385.885438 344.711119 
L 386.042899 344.795806 
L 386.196989 340.96209 
L 386.352119 352.174167 
L 386.507738 335.30948 
L 386.658742 352.174167 
L 386.809778 330.369633 
L 386.959732 352.174167 
L 387.109475 333.562043 
L 387.26157 352.174167 
L 387.411677 343.729777 
L 387.716136 352.174167 
L 387.868143 332.80455 
L 388.020348 352.174167 
L 388.171709 344.569278 
L 388.321798 352.174167 
L 388.47106 334.06661 
L 388.621757 352.174167 
L 388.771621 329.985976 
L 388.921022 352.174167 
L 389.070445 347.233569 
L 389.368968 345.209722 
L 389.518299 346.050465 
L 389.667564 352.174167 
L 389.816739 351.494733 
L 389.965792 352.174167 
L 390.115198 335.163885 
L 390.267135 352.174167 
L 390.417761 326.816521 
L 390.569079 352.174167 
L 390.72027 346.723033 
L 390.87171 352.174167 
L 391.026037 333.882022 
L 391.177374 346.838361 
L 391.328278 347.958246 
L 391.478427 338.663143 
L 391.628241 352.174167 
L 391.782416 343.564201 
L 391.932017 352.174167 
L 392.084929 332.527048 
L 392.234819 352.174167 
L 392.392263 346.18827 
L 392.542963 352.174167 
L 392.693598 333.562043 
L 392.843398 352.174167 
L 392.997565 346.769757 
L 393.153725 347.589401 
L 393.303756 352.174167 
L 393.453006 332.44224 
L 393.602251 352.174167 
L 393.751352 339.296792 
L 393.900621 352.174167 
L 394.050145 346.594393 
L 394.199318 352.174167 
L 394.350863 335.964966 
L 394.500916 352.174167 
L 394.651067 345.147631 
L 394.800249 351.493755 
L 394.949374 338.121096 
L 395.247773 352.174167 
L 395.396961 335.820767 
L 395.54618 352.174167 
L 395.695328 334.457983 
L 395.84581 352.174167 
L 395.995771 330.274968 
L 396.145287 352.174167 
L 396.295496 345.168451 
L 396.445446 352.174167 
L 396.594773 333.850722 
L 396.744055 352.174167 
L 396.893544 347.369811 
L 397.04267 352.174167 
L 397.193182 352.174167 
L 397.34258 336.547193 
L 397.492418 352.174167 
L 397.642027 347.397542 
L 397.791431 352.174167 
L 397.942241 338.245277 
L 398.094233 352.174167 
L 398.251016 345.437901 
L 398.400778 352.174167 
L 398.552326 345.942875 
L 398.705301 352.174167 
L 398.854729 335.557388 
L 399.153248 350.063069 
L 399.302566 341.287587 
L 399.451957 352.174167 
L 399.601187 346.041642 
L 399.750517 352.174167 
L 399.900618 334.55547 
L 400.056886 352.174167 
L 400.208551 347.424955 
L 400.358677 352.174167 
L 400.50789 345.840874 
L 400.658097 344.732473 
L 400.808154 337.88553 
L 401.108239 352.174167 
L 401.257599 335.163885 
L 401.409299 352.174167 
L 401.560967 343.290474 
L 401.712611 352.174167 
L 401.864104 335.30948 
L 402.017099 352.174167 
L 402.168694 340.33461 
L 402.320326 352.174167 
L 402.618971 340.590508 
L 402.768965 348.007772 
L 402.91896 344.044325 
L 403.068369 352.174167 
L 403.218771 333.908191 
L 403.367941 352.174167 
L 403.517227 341.377687 
L 403.666452 352.174167 
L 403.818152 348.14389 
L 403.96738 352.174167 
L 404.116584 335.360449 
L 404.266259 352.174167 
L 404.565521 342.675743 
L 404.714802 345.300826 
L 404.864828 343.354202 
L 405.014188 352.174167 
L 405.163372 345.370054 
L 405.312566 352.174167 
L 405.461757 349.452522 
L 405.611679 352.174167 
L 405.762841 337.030807 
L 405.912394 352.174167 
L 406.06182 328.117475 
L 406.211476 352.174167 
L 406.361126 342.128034 
L 406.510493 352.174167 
L 406.662584 350.167579 
L 406.815224 330.830942 
L 406.96484 352.174167 
L 407.117527 324.82816 
L 407.267044 352.174167 
L 407.417632 330.959318 
L 407.571244 352.174167 
L 407.722027 345.290821 
L 407.871607 352.174167 
L 408.022247 332.036591 
L 408.171634 352.174167 
L 408.323014 344.535776 
L 408.473448 346.785154 
L 408.623923 339.729803 
L 408.930484 352.174167 
L 409.088132 349.593616 
L 409.245924 352.174167 
L 409.403811 339.572721 
L 409.561678 352.174167 
L 409.877038 339.916553 
L 410.027316 352.174167 
L 410.177706 344.753704 
L 410.327743 352.174167 
L 410.47708 345.389578 
L 410.626601 352.174167 
L 410.775732 333.776592 
L 410.925072 352.174167 
L 411.074186 331.857591 
L 411.223373 352.174167 
L 411.374317 337.548832 
L 411.52437 352.174167 
L 411.673853 325.979325 
L 411.823347 352.174167 
L 411.972688 348.097565 
L 412.123196 338.643814 
L 412.272743 350.781278 
L 412.424851 343.466637 
L 412.574373 352.174167 
L 412.725406 346.076785 
L 412.875871 352.174167 
L 413.025409 350.13879 
L 413.174663 352.174167 
L 413.324901 334.40678 
L 413.475307 352.174167 
L 413.625517 341.681138 
L 413.776478 352.174167 
L 413.927196 348.806034 
L 414.07654 339.926764 
L 414.22986 352.174167 
L 414.380622 343.429479 
L 414.535464 352.174167 
L 414.685459 334.06661 
L 414.83514 352.174167 
L 414.984636 337.527261 
L 415.134423 352.174167 
L 415.284672 325.32912 
L 415.434048 351.493755 
L 415.585061 330.928572 
L 415.742707 335.285387 
L 415.896373 352.174167 
L 416.047431 333.339454 
L 416.198463 352.174167 
L 416.350954 339.076746 
L 416.501265 352.174167 
L 416.652911 347.341757 
L 416.802964 352.174167 
L 416.95345 338.682417 
L 417.103944 352.174167 
L 417.25335 345.073779 
L 417.405688 346.823266 
L 417.556325 352.174167 
L 417.705906 336.547193 
L 417.856495 352.174167 
L 418.009904 345.40899 
L 418.163 352.174167 
L 418.312578 346.746496 
L 418.467371 352.174167 
L 418.617056 345.178814 
L 418.767369 352.174167 
L 418.920354 345.340557 
L 419.073793 349.521231 
L 419.224018 341.712091 
L 419.373556 343.354202 
L 419.523547 352.174167 
L 419.673558 331.849561 
L 419.823322 352.174167 
L 419.973335 337.57034 
L 420.1242 352.174167 
L 420.275776 332.49886 
L 420.426439 352.174167 
L 420.5761 328.393989 
L 420.725915 345.37983 
L 420.877265 340.489488 
L 421.178562 352.174167 
L 421.332451 336.301076 
L 421.482839 352.174167 
L 421.633622 345.87835 
L 421.783584 352.174167 
L 421.933381 350.817249 
L 422.083587 352.174167 
L 422.238331 335.188325 
L 422.391429 352.174167 
L 422.544919 344.613492 
L 422.84887 352.174167 
L 422.998314 346.746496 
L 423.151875 352.174167 
L 423.302985 343.841377 
L 423.454346 352.174167 
L 423.607101 337.096648 
L 423.758741 352.174167 
L 423.90807 330.115353 
L 424.057585 352.174167 
L 424.213233 332.749678 
L 424.514262 352.174167 
L 424.66615 345.504409 
L 424.815966 352.174167 
L 424.965388 334.483474 
L 425.115681 352.174167 
L 425.265891 344.467879 
L 425.417452 352.174167 
L 425.575232 339.283449 
L 425.725768 352.174167 
L 425.876472 336.919785 
L 426.028418 333.419488 
L 426.179044 350.807445 
L 426.329892 343.40453 
L 426.484842 352.174167 
L 426.642672 346.154404 
L 426.792911 352.174167 
L 426.947906 334.709634 
L 427.098174 352.174167 
L 427.249638 332.816268 
L 427.399729 352.174167 
L 427.705691 332.332804 
L 427.859929 352.174167 
L 428.013926 346.254873 
L 428.164514 352.174167 
L 428.315752 348.149607 
L 428.465291 352.174167 
L 428.621012 338.41987 
L 428.774886 352.174167 
L 428.928222 323.413077 
L 429.078734 351.501498 
L 429.230795 343.133702 
L 429.54521 352.174167 
L 429.701439 347.639645 
L 429.854378 352.174167 
L 430.004357 335.484079 
L 430.158494 352.174167 
L 430.46463 335.984067 
L 430.771172 346.205061 
L 430.926929 352.174167 
L 431.078353 338.796916 
L 431.230431 352.174167 
L 431.380493 343.093641 
L 431.536224 352.174167 
L 431.686799 329.849085 
L 431.837134 352.174167 
L 431.986935 330.866811 
L 432.136087 352.174167 
L 432.286335 347.958246 
L 432.440053 331.556079 
L 432.590073 352.174167 
L 432.744673 341.636321 
L 432.89641 352.174167 
L 433.050054 333.040058 
L 433.207794 352.174167 
L 433.357276 349.471962 
L 433.506651 352.174167 
L 433.657429 336.807124 
L 433.969329 352.174167 
L 434.119598 342.743395 
L 434.27312 352.174167 
L 434.425422 333.0952 
L 434.574775 352.174167 
L 434.727524 339.729803 
L 434.879427 352.174167 
L 435.036528 348.912885 
L 435.190349 352.174167 
L 435.344718 350.858768 
L 435.49524 336.00713 
L 435.652004 352.174167 
L 435.806746 343.303293 
L 435.961204 352.174167 
L 436.113098 333.803063 
L 436.264367 352.174167 
L 436.417804 343.316075 
L 436.572368 352.174167 
L 436.879384 345.504409 
L 437.036005 352.174167 
L 437.190506 350.198321 
L 437.340076 352.174167 
L 437.490693 333.934285 
L 437.641127 352.174167 
L 437.79086 331.020544 
L 437.941337 352.174167 
L 438.092826 344.795806 
L 438.242745 352.174167 
L 438.398302 333.074322 
L 438.554049 333.258734 
L 438.706684 342.225657 
L 438.859906 312.324238 
L 439.015831 352.174167 
L 439.166403 343.4419 
L 439.318079 352.174167 
L 439.470553 343.454286 
L 439.6229 352.174167 
L 439.775159 345.485541 
L 439.927697 352.174167 
L 440.085773 339.271416 
L 440.234889 342.689351 
L 440.386822 338.720801 
L 440.539425 342.888891 
L 440.693897 352.174167 
L 440.845314 325.484518 
L 441.004881 352.174167 
L 441.160314 342.376809 
L 441.310651 352.174167 
L 441.462385 339.411623 
L 441.612953 352.174167 
L 441.763284 329.752856 
L 441.915435 352.174167 
L 442.068158 345.504409 
L 442.369223 352.174167 
L 442.520984 349.483493 
L 442.674966 352.174167 
L 442.827405 339.555023 
L 442.985305 352.174167 
L 443.143031 344.159153 
L 443.296536 352.174167 
L 443.452476 335.285387 
L 443.605843 352.174167 
L 443.757928 346.171385 
L 443.90835 332.61113 
L 444.061174 352.174167 
L 444.212207 329.303444 
L 444.362487 352.174167 
L 444.514666 347.478846 
L 444.668573 352.174167 
L 444.824109 335.557388 
L 444.974236 352.174167 
L 445.12622 342.452579 
L 445.280093 352.174167 
L 445.435677 350.217398 
L 445.585589 329.849085 
L 445.735593 352.174167 
L 445.886391 346.769757 
L 446.042248 352.174167 
L 446.191798 346.738697 
L 446.343376 352.174167 
L 446.497522 347.544515 
L 446.649678 352.174167 
L 446.799958 335.989087 
L 446.953728 352.174167 
L 447.105002 342.337017 
L 447.258384 340.930728 
L 447.411071 352.174167 
L 447.564938 331.010046 
L 447.715111 352.174167 
L 447.86987 330.494588 
L 448.019767 352.174167 
L 448.169228 331.011067 
L 448.321459 352.174167 
L 448.472355 346.777467 
L 448.62176 335.212695 
L 448.773374 335.360449 
L 448.925091 322.785782 
L 449.081557 352.174167 
L 449.238945 343.752912 
L 449.388332 352.174167 
L 449.537502 329.920716 
L 449.688974 352.174167 
L 449.845796 323.841493 
L 449.994976 352.174167 
L 450.144723 346.738697 
L 450.295005 352.174167 
L 450.445847 347.376774 
L 450.599047 338.946591 
L 450.748912 352.174167 
L 450.900818 326.685286 
L 451.059573 352.174167 
L 451.220011 329.966822 
L 451.36923 352.174167 
L 451.522436 346.171385 
L 451.677432 352.174167 
L 451.829074 337.5007 
L 451.978912 348.109246 
L 452.129405 347.445308 
L 452.278445 332.413808 
L 452.428537 352.174167 
L 452.580831 345.504409 
L 452.73155 352.174167 
L 452.880975 344.700397 
L 453.030431 352.174167 
L 453.184454 346.213421 
L 453.334271 352.174167 
L 453.490551 339.074837 
L 453.63966 352.174167 
L 453.792185 346.137326 
L 453.945866 352.174167 
L 454.103291 349.583011 
L 454.254933 336.121466 
L 454.409416 352.174167 
L 454.558873 341.303228 
L 454.708937 352.174167 
L 454.858037 343.316075 
L 455.007682 352.174167 
L 455.157552 326.990898 
L 455.308569 352.174167 
L 455.462739 321.422921 
L 455.612714 352.174167 
L 455.762025 345.36025 
L 455.914515 345.504409 
L 456.064499 344.546976 
L 456.214461 325.75218 
L 456.364328 352.174167 
L 456.515604 346.777467 
L 456.664827 352.174167 
L 456.8209 335.405166 
L 456.97012 352.174167 
L 457.119818 330.050854 
L 457.27356 352.174167 
L 457.425658 348.16666 
L 457.575656 352.174167 
L 457.726794 332.066119 
L 457.881451 330.43986 
L 458.030844 347.3205 
L 458.185109 347.544515 
L 458.340521 352.174167 
L 458.489828 349.471962 
L 458.639855 352.174167 
L 458.78994 335.236996 
L 458.939082 352.174167 
L 459.088157 347.404425 
L 459.237295 352.174167 
L 459.390731 348.183569 
L 459.544193 348.200336 
L 459.701384 340.689797 
L 460.006854 352.174167 
L 460.157351 331.321449 
L 460.309642 352.174167 
L 460.460379 342.423944 
L 460.609939 352.174167 
L 460.765156 343.63595 
L 460.918071 352.174167 
L 461.076579 332.079868 
L 461.226983 352.174167 
L 461.378689 348.14389 
L 461.531418 336.189294 
L 461.682521 352.174167 
L 461.832667 342.689351 
L 461.985028 352.174167 
L 462.139675 341.365348 
L 462.289774 352.174167 
L 462.443028 328.838727 
L 462.599155 352.174167 
L 462.749535 344.067553 
L 462.906552 352.174167 
L 463.057991 348.160991 
L 463.211234 332.249202 
L 463.362757 352.174167 
L 463.51379 327.992505 
L 463.669089 352.174167 
L 463.819871 340.085356 
L 463.97314 352.174167 
L 464.128016 344.113613 
L 464.278517 352.174167 
L 464.432995 334.865022 
L 464.589985 352.174167 
L 464.741653 346.154404 
L 464.893947 330.830942 
L 465.046527 352.174167 
L 465.204268 333.465178 
L 465.355669 352.174167 
L 465.507964 334.165821 
L 465.660125 352.174167 
L 465.810656 343.366838 
L 465.961477 352.174167 
L 466.273051 343.787379 
L 466.425864 347.538031 
L 466.58071 326.523893 
L 466.737185 352.174167 
L 466.889956 343.478954 
L 467.042429 352.174167 
L 467.201244 345.687393 
L 467.357228 352.174167 
L 467.509736 351.50813 
L 467.660457 352.174167 
L 467.816738 333.285717 
L 467.974764 348.952874 
L 468.127359 352.174167 
L 468.277585 338.60499 
L 468.428123 352.174167 
L 468.580166 344.806257 
L 468.736072 352.174167 
L 468.888478 340.851548 
L 469.039107 352.174167 
L 469.18903 326.329595 
L 469.340842 352.174167 
L 469.647601 341.636321 
L 469.797352 342.026402 
L 469.947756 338.682417 
L 470.097855 352.174167 
L 470.247926 339.301917 
L 470.398137 352.174167 
L 470.548271 338.643814 
L 470.704865 352.174167 
L 470.854318 321.378419 
L 471.004635 352.174167 
L 471.154896 341.240391 
L 471.310042 352.174167 
L 471.61946 332.886278 
L 471.769099 348.103414 
L 471.921596 336.833724 
L 472.071354 352.174167 
L 472.220643 331.702919 
L 472.372283 352.174167 
L 472.523817 342.112766 
L 472.673507 352.174167 
L 472.824015 331.20212 
L 472.976453 352.174167 
L 473.130485 327.714555 
L 473.280131 352.174167 
L 473.431319 348.806034 
L 473.584708 331.613914 
L 473.735871 352.174167 
L 473.886316 348.12086 
L 474.03715 352.174167 
L 474.191862 349.536031 
L 474.342964 352.174167 
L 474.494899 337.613166 
L 474.645597 352.174167 
L 474.801129 346.934435 
L 474.951446 352.174167 
L 475.102155 332.644959 
L 475.251607 348.776998 
L 475.400985 348.091699 
L 475.550819 333.177319 
L 475.701559 352.174167 
L 475.851578 348.786732 
L 476.001532 352.174167 
L 476.151551 348.786732 
L 476.301699 352.174167 
L 476.451148 331.761829 
L 476.600458 352.174167 
L 476.751894 336.658655 
L 476.901104 352.174167 
L 477.052117 344.753704 
L 477.201957 344.044325 
L 477.351699 342.351613 
L 477.501502 342.662096 
L 477.652364 352.174167 
L 477.802058 332.527048 
L 477.952369 352.174167 
L 478.107216 338.506946 
L 478.261064 352.174167 
L 478.411719 336.784392 
L 478.561945 352.174167 
L 478.711438 340.506447 
L 478.860882 352.174167 
L 479.010016 344.009232 
L 479.159832 350.135866 
L 479.309338 330.326983 
L 479.458938 335.891154 
L 479.609305 345.821969 
L 479.758936 344.721811 
L 479.908713 352.174167 
L 480.05812 346.059264 
L 480.207866 352.174167 
L 480.357589 331.820401 
L 480.507206 352.174167 
L 480.657331 345.389578 
L 480.807248 352.174167 
L 480.957447 341.349885 
L 481.106802 352.174167 
L 481.257217 324.647977 
L 481.407316 352.174167 
L 481.559044 345.447484 
L 481.712326 350.187251 
L 482.014126 344.03266 
L 482.165539 352.174167 
L 482.316371 334.634892 
L 482.466861 352.174167 
L 482.616312 342.662096 
L 482.769789 352.174167 
L 482.918966 332.956746 
L 483.070511 352.174167 
L 483.219925 343.973835 
L 483.369401 352.174167 
L 483.519133 346.032792 
L 483.668926 352.174167 
L 483.819019 348.103414 
L 483.968287 335.212695 
L 484.117765 351.471513 
L 484.269443 342.098475 
L 484.422653 352.174167 
L 484.575798 329.59254 
L 484.729052 352.174167 
L 484.879085 331.157019 
L 485.028587 352.174167 
L 485.179484 343.039671 
L 485.328967 352.174167 
L 485.478594 329.520954 
L 485.62838 352.174167 
L 485.77813 347.424955 
L 485.928007 337.926531 
L 486.077574 352.174167 
L 486.229682 330.132879 
L 486.379637 352.174167 
L 486.52934 347.424955 
L 486.679366 352.174167 
L 486.833249 334.965804 
L 486.982692 352.174167 
L 487.131957 325.670242 
L 487.281102 352.174167 
L 487.430208 346.023918 
L 487.579245 352.174167 
L 487.728486 350.129992 
L 487.877534 339.209043 
L 488.029409 346.643338 
L 488.178812 324.957717 
L 488.328076 352.174167 
L 488.479685 344.795806 
L 488.636467 352.174167 
L 488.785972 345.418655 
L 488.935427 352.174167 
L 489.087978 331.372738 
L 489.237839 352.174167 
L 489.38758 343.366838 
L 489.537281 350.815299 
L 489.686526 330.552544 
L 489.838608 348.825117 
L 489.991969 350.164737 
L 490.143786 345.504409 
L 490.295904 352.174167 
L 490.448355 334.140385 
L 490.602309 352.174167 
L 490.754633 337.844293 
L 490.908014 352.174167 
L 491.060062 318.636165 
L 491.209936 352.174167 
L 491.360136 344.479279 
L 491.510017 352.174167 
L 491.659857 327.654161 
L 491.809366 346.738697 
L 492.108882 344.03266 
L 492.259078 352.174167 
L 492.412248 334.241699 
L 492.561438 352.174167 
L 492.711401 347.411288 
L 492.860971 352.174167 
L 493.010716 335.285387 
L 493.160344 352.174167 
L 493.310065 346.068037 
L 493.459664 352.174167 
L 493.609831 333.480291 
L 493.759907 352.174167 
L 494.059031 344.020963 
L 494.208349 342.218676 
L 494.506663 352.174167 
L 494.655623 345.37983 
L 494.806568 352.174167 
L 494.95938 344.18173 
L 495.112148 352.174167 
L 495.266785 335.236996 
L 495.420773 352.174167 
L 495.571009 328.4251 
L 495.571009 328.4251 
" style="fill:none;stroke:#1f77b4;stroke-linecap:square;stroke-width:1.5;"/>
   </g>
   <g id="patch_3">
    <path d="M 66.158594 352.174167 
L 66.158594 35.0625 
" style="fill:none;stroke:#000000;stroke-linecap:square;stroke-linejoin:miter;stroke-width:0.8;"/>
   </g>
   <g id="patch_4">
    <path d="M 516.019219 352.174167 
L 516.019219 35.0625 
" style="fill:none;stroke:#000000;stroke-linecap:square;stroke-linejoin:miter;stroke-width:0.8;"/>
   </g>
   <g id="patch_5">
    <path d="M 66.158594 352.174167 
L 516.019219 352.174167 
" style="fill:none;stroke:#000000;stroke-linecap:square;stroke-linejoin:miter;stroke-width:0.8;"/>
   </g>
   <g id="patch_6">
    <path d="M 66.158594 35.0625 
L 516.019219 35.0625 
" style="fill:none;stroke:#000000;stroke-linecap:square;stroke-linejoin:miter;stroke-width:0.8;"/>
   </g>
   <g id="legend_1">
    <g id="patch_7">
     <path d="M 540.51225 53.01875 
L 620.748187 53.01875 
Q 622.748187 53.01875 622.748187 51.01875 
L 622.748187 37.0625 
Q 622.748187 35.0625 620.748187 35.0625 
L 540.51225 35.0625 
Q 538.51225 35.0625 538.51225 37.0625 
L 538.51225 51.01875 
Q 538.51225 53.01875 540.51225 53.01875 
z
" style="fill:#ffffff;opacity:0.8;stroke:#cccccc;stroke-linejoin:miter;"/>
    </g>
    <g id="line2d_15">
     <path d="M 542.51225 43.160937 
L 562.51225 43.160937 
" style="fill:none;stroke:#1f77b4;stroke-linecap:square;stroke-width:1.5;"/>
    </g>
    <g id="line2d_16"/>
    <g id="text_15">
     <!-- drop_rate -->
     <defs>
      <path d="M 50.984375 -16.609375 
L 50.984375 -23.578125 
L -0.984375 -23.578125 
L -0.984375 -16.609375 
z
" id="DejaVuSans-95"/>
     </defs>
     <g transform="translate(570.51225 46.660937)scale(0.1 -0.1)">
      <use xlink:href="#DejaVuSans-100"/>
      <use x="63.476562" xlink:href="#DejaVuSans-114"/>
      <use x="104.558594" xlink:href="#DejaVuSans-111"/>
      <use x="165.740234" xlink:href="#DejaVuSans-112"/>
      <use x="229.216797" xlink:href="#DejaVuSans-95"/>
      <use x="279.216797" xlink:href="#DejaVuSans-114"/>
      <use x="320.330078" xlink:href="#DejaVuSans-97"/>
      <use x="381.609375" xlink:href="#DejaVuSans-116"/>
      <use x="420.818359" xlink:href="#DejaVuSans-101"/>
     </g>
    </g>
   </g>
  </g>
  <g id="text_16">
   <!-- result droprate -->
   <defs>
    <path d="M 44.28125 53.078125 
L 44.28125 44.578125 
Q 40.484375 46.53125 36.375 47.5 
Q 32.28125 48.484375 27.875 48.484375 
Q 21.1875 48.484375 17.84375 46.4375 
Q 14.5 44.390625 14.5 40.28125 
Q 14.5 37.15625 16.890625 35.375 
Q 19.28125 33.59375 26.515625 31.984375 
L 29.59375 31.296875 
Q 39.15625 29.25 43.1875 25.515625 
Q 47.21875 21.78125 47.21875 15.09375 
Q 47.21875 7.46875 41.1875 3.015625 
Q 35.15625 -1.421875 24.609375 -1.421875 
Q 20.21875 -1.421875 15.453125 -0.5625 
Q 10.6875 0.296875 5.421875 2 
L 5.421875 11.28125 
Q 10.40625 8.6875 15.234375 7.390625 
Q 20.0625 6.109375 24.8125 6.109375 
Q 31.15625 6.109375 34.5625 8.28125 
Q 37.984375 10.453125 37.984375 14.40625 
Q 37.984375 18.0625 35.515625 20.015625 
Q 33.0625 21.96875 24.703125 23.78125 
L 21.578125 24.515625 
Q 13.234375 26.265625 9.515625 29.90625 
Q 5.8125 33.546875 5.8125 39.890625 
Q 5.8125 47.609375 11.28125 51.796875 
Q 16.75 56 26.8125 56 
Q 31.78125 56 36.171875 55.265625 
Q 40.578125 54.546875 44.28125 53.078125 
z
" id="DejaVuSans-115"/>
    <path d="M 8.5 21.578125 
L 8.5 54.6875 
L 17.484375 54.6875 
L 17.484375 21.921875 
Q 17.484375 14.15625 20.5 10.265625 
Q 23.53125 6.390625 29.59375 6.390625 
Q 36.859375 6.390625 41.078125 11.03125 
Q 45.3125 15.671875 45.3125 23.6875 
L 45.3125 54.6875 
L 54.296875 54.6875 
L 54.296875 0 
L 45.3125 0 
L 45.3125 8.40625 
Q 42.046875 3.421875 37.71875 1 
Q 33.40625 -1.421875 27.6875 -1.421875 
Q 18.265625 -1.421875 13.375 4.4375 
Q 8.5 10.296875 8.5 21.578125 
z
M 31.109375 56 
z
" id="DejaVuSans-117"/>
    <path d="M 9.421875 75.984375 
L 18.40625 75.984375 
L 18.40625 0 
L 9.421875 0 
z
" id="DejaVuSans-108"/>
    <path id="DejaVuSans-32"/>
   </defs>
   <g transform="translate(297.047813 17.038125)scale(0.12 -0.12)">
    <use xlink:href="#DejaVuSans-114"/>
    <use x="41.082031" xlink:href="#DejaVuSans-101"/>
    <use x="102.605469" xlink:href="#DejaVuSans-115"/>
    <use x="154.705078" xlink:href="#DejaVuSans-117"/>
    <use x="218.083984" xlink:href="#DejaVuSans-108"/>
    <use x="245.867188" xlink:href="#DejaVuSans-116"/>
    <use x="285.076172" xlink:href="#DejaVuSans-32"/>
    <use x="316.863281" xlink:href="#DejaVuSans-100"/>
    <use x="380.339844" xlink:href="#DejaVuSans-114"/>
    <use x="421.421875" xlink:href="#DejaVuSans-111"/>
    <use x="482.603516" xlink:href="#DejaVuSans-112"/>
    <use x="546.080078" xlink:href="#DejaVuSans-114"/>
    <use x="587.193359" xlink:href="#DejaVuSans-97"/>
    <use x="648.472656" xlink:href="#DejaVuSans-116"/>
    <use x="687.681641" xlink:href="#DejaVuSans-101"/>
   </g>
  </g>
 </g>
 <defs>
  <clipPath id="p6c889164d0">
   <rect height="317.111667" width="449.860625" x="66.158594" y="35.0625"/>
  </clipPath>
 </defs>
</svg>
