<?xml version="1.0" encoding="utf-8" standalone="no"?>
<!DOCTYPE svg PUBLIC "-//W3C//DTD SVG 1.1//EN"
  "http://www.w3.org/Graphics/SVG/1.1/DTD/svg11.dtd">
<!-- Created with matplotlib (https://matplotlib.org/) -->
<svg height="396pt" version="1.1" viewBox="0 0 684 396" width="684pt" xmlns="http://www.w3.org/2000/svg" xmlns:xlink="http://www.w3.org/1999/xlink">
 <defs>
  <style type="text/css">
*{stroke-linecap:butt;stroke-linejoin:round;}
  </style>
 </defs>
 <g id="figure_1">
  <g id="patch_1">
   <path d="M 0 396 
L 684 396 
L 684 0 
L 0 0 
z
" style="fill:#ffffff;"/>
  </g>
  <g id="axes_1">
   <g id="patch_2">
    <path d="M 120.878594 352.174167 
L 540.734062 352.174167 
L 540.734062 35.0625 
L 120.878594 35.0625 
z
" style="fill:#ffffff;"/>
   </g>
   <g id="matplotlib.axis_1">
    <g id="xtick_1">
     <g id="line2d_1">
      <defs>
       <path d="M 0 0 
L 0 3.5 
" id="m33ab874402" style="stroke:#000000;stroke-width:0.8;"/>
      </defs>
      <g>
       <use style="stroke:#000000;stroke-width:0.8;" x="144.924669" xlink:href="#m33ab874402" y="352.174167"/>
      </g>
     </g>
     <g id="text_1">
      <!-- 0 -->
      <defs>
       <path d="M 31.78125 66.40625 
Q 24.171875 66.40625 20.328125 58.90625 
Q 16.5 51.421875 16.5 36.375 
Q 16.5 21.390625 20.328125 13.890625 
Q 24.171875 6.390625 31.78125 6.390625 
Q 39.453125 6.390625 43.28125 13.890625 
Q 47.125 21.390625 47.125 36.375 
Q 47.125 51.421875 43.28125 58.90625 
Q 39.453125 66.40625 31.78125 66.40625 
z
M 31.78125 74.21875 
Q 44.046875 74.21875 50.515625 64.515625 
Q 56.984375 54.828125 56.984375 36.375 
Q 56.984375 17.96875 50.515625 8.265625 
Q 44.046875 -1.421875 31.78125 -1.421875 
Q 19.53125 -1.421875 13.0625 8.265625 
Q 6.59375 17.96875 6.59375 36.375 
Q 6.59375 54.828125 13.0625 64.515625 
Q 19.53125 74.21875 31.78125 74.21875 
z
" id="DejaVuSans-48"/>
      </defs>
      <g transform="translate(141.743419 366.772604)scale(0.1 -0.1)">
       <use xlink:href="#DejaVuSans-48"/>
      </g>
     </g>
    </g>
    <g id="xtick_2">
     <g id="line2d_2">
      <g>
       <use style="stroke:#000000;stroke-width:0.8;" x="210.468109" xlink:href="#m33ab874402" y="352.174167"/>
      </g>
     </g>
     <g id="text_2">
      <!-- 50 -->
      <defs>
       <path d="M 10.796875 72.90625 
L 49.515625 72.90625 
L 49.515625 64.59375 
L 19.828125 64.59375 
L 19.828125 46.734375 
Q 21.96875 47.46875 24.109375 47.828125 
Q 26.265625 48.1875 28.421875 48.1875 
Q 40.625 48.1875 47.75 41.5 
Q 54.890625 34.8125 54.890625 23.390625 
Q 54.890625 11.625 47.5625 5.09375 
Q 40.234375 -1.421875 26.90625 -1.421875 
Q 22.3125 -1.421875 17.546875 -0.640625 
Q 12.796875 0.140625 7.71875 1.703125 
L 7.71875 11.625 
Q 12.109375 9.234375 16.796875 8.0625 
Q 21.484375 6.890625 26.703125 6.890625 
Q 35.15625 6.890625 40.078125 11.328125 
Q 45.015625 15.765625 45.015625 23.390625 
Q 45.015625 31 40.078125 35.4375 
Q 35.15625 39.890625 26.703125 39.890625 
Q 22.75 39.890625 18.8125 39.015625 
Q 14.890625 38.140625 10.796875 36.28125 
z
" id="DejaVuSans-53"/>
      </defs>
      <g transform="translate(204.105609 366.772604)scale(0.1 -0.1)">
       <use xlink:href="#DejaVuSans-53"/>
       <use x="63.623047" xlink:href="#DejaVuSans-48"/>
      </g>
     </g>
    </g>
    <g id="xtick_3">
     <g id="line2d_3">
      <g>
       <use style="stroke:#000000;stroke-width:0.8;" x="276.011549" xlink:href="#m33ab874402" y="352.174167"/>
      </g>
     </g>
     <g id="text_3">
      <!-- 100 -->
      <defs>
       <path d="M 12.40625 8.296875 
L 28.515625 8.296875 
L 28.515625 63.921875 
L 10.984375 60.40625 
L 10.984375 69.390625 
L 28.421875 72.90625 
L 38.28125 72.90625 
L 38.28125 8.296875 
L 54.390625 8.296875 
L 54.390625 0 
L 12.40625 0 
z
" id="DejaVuSans-49"/>
      </defs>
      <g transform="translate(266.467799 366.772604)scale(0.1 -0.1)">
       <use xlink:href="#DejaVuSans-49"/>
       <use x="63.623047" xlink:href="#DejaVuSans-48"/>
       <use x="127.246094" xlink:href="#DejaVuSans-48"/>
      </g>
     </g>
    </g>
    <g id="xtick_4">
     <g id="line2d_4">
      <g>
       <use style="stroke:#000000;stroke-width:0.8;" x="341.554989" xlink:href="#m33ab874402" y="352.174167"/>
      </g>
     </g>
     <g id="text_4">
      <!-- 150 -->
      <g transform="translate(332.011239 366.772604)scale(0.1 -0.1)">
       <use xlink:href="#DejaVuSans-49"/>
       <use x="63.623047" xlink:href="#DejaVuSans-53"/>
       <use x="127.246094" xlink:href="#DejaVuSans-48"/>
      </g>
     </g>
    </g>
    <g id="xtick_5">
     <g id="line2d_5">
      <g>
       <use style="stroke:#000000;stroke-width:0.8;" x="407.09843" xlink:href="#m33ab874402" y="352.174167"/>
      </g>
     </g>
     <g id="text_5">
      <!-- 200 -->
      <defs>
       <path d="M 19.1875 8.296875 
L 53.609375 8.296875 
L 53.609375 0 
L 7.328125 0 
L 7.328125 8.296875 
Q 12.9375 14.109375 22.625 23.890625 
Q 32.328125 33.6875 34.8125 36.53125 
Q 39.546875 41.84375 41.421875 45.53125 
Q 43.3125 49.21875 43.3125 52.78125 
Q 43.3125 58.59375 39.234375 62.25 
Q 35.15625 65.921875 28.609375 65.921875 
Q 23.96875 65.921875 18.8125 64.3125 
Q 13.671875 62.703125 7.8125 59.421875 
L 7.8125 69.390625 
Q 13.765625 71.78125 18.9375 73 
Q 24.125 74.21875 28.421875 74.21875 
Q 39.75 74.21875 46.484375 68.546875 
Q 53.21875 62.890625 53.21875 53.421875 
Q 53.21875 48.921875 51.53125 44.890625 
Q 49.859375 40.875 45.40625 35.40625 
Q 44.1875 33.984375 37.640625 27.21875 
Q 31.109375 20.453125 19.1875 8.296875 
z
" id="DejaVuSans-50"/>
      </defs>
      <g transform="translate(397.55468 366.772604)scale(0.1 -0.1)">
       <use xlink:href="#DejaVuSans-50"/>
       <use x="63.623047" xlink:href="#DejaVuSans-48"/>
       <use x="127.246094" xlink:href="#DejaVuSans-48"/>
      </g>
     </g>
    </g>
    <g id="xtick_6">
     <g id="line2d_6">
      <g>
       <use style="stroke:#000000;stroke-width:0.8;" x="472.64187" xlink:href="#m33ab874402" y="352.174167"/>
      </g>
     </g>
     <g id="text_6">
      <!-- 250 -->
      <g transform="translate(463.09812 366.772604)scale(0.1 -0.1)">
       <use xlink:href="#DejaVuSans-50"/>
       <use x="63.623047" xlink:href="#DejaVuSans-53"/>
       <use x="127.246094" xlink:href="#DejaVuSans-48"/>
      </g>
     </g>
    </g>
    <g id="xtick_7">
     <g id="line2d_7">
      <g>
       <use style="stroke:#000000;stroke-width:0.8;" x="538.18531" xlink:href="#m33ab874402" y="352.174167"/>
      </g>
     </g>
     <g id="text_7">
      <!-- 300 -->
      <defs>
       <path d="M 40.578125 39.3125 
Q 47.65625 37.796875 51.625 33 
Q 55.609375 28.21875 55.609375 21.1875 
Q 55.609375 10.40625 48.1875 4.484375 
Q 40.765625 -1.421875 27.09375 -1.421875 
Q 22.515625 -1.421875 17.65625 -0.515625 
Q 12.796875 0.390625 7.625 2.203125 
L 7.625 11.71875 
Q 11.71875 9.328125 16.59375 8.109375 
Q 21.484375 6.890625 26.8125 6.890625 
Q 36.078125 6.890625 40.9375 10.546875 
Q 45.796875 14.203125 45.796875 21.1875 
Q 45.796875 27.640625 41.28125 31.265625 
Q 36.765625 34.90625 28.71875 34.90625 
L 20.21875 34.90625 
L 20.21875 43.015625 
L 29.109375 43.015625 
Q 36.375 43.015625 40.234375 45.921875 
Q 44.09375 48.828125 44.09375 54.296875 
Q 44.09375 59.90625 40.109375 62.90625 
Q 36.140625 65.921875 28.71875 65.921875 
Q 24.65625 65.921875 20.015625 65.03125 
Q 15.375 64.15625 9.8125 62.3125 
L 9.8125 71.09375 
Q 15.4375 72.65625 20.34375 73.4375 
Q 25.25 74.21875 29.59375 74.21875 
Q 40.828125 74.21875 47.359375 69.109375 
Q 53.90625 64.015625 53.90625 55.328125 
Q 53.90625 49.265625 50.4375 45.09375 
Q 46.96875 40.921875 40.578125 39.3125 
z
" id="DejaVuSans-51"/>
      </defs>
      <g transform="translate(528.64156 366.772604)scale(0.1 -0.1)">
       <use xlink:href="#DejaVuSans-51"/>
       <use x="63.623047" xlink:href="#DejaVuSans-48"/>
       <use x="127.246094" xlink:href="#DejaVuSans-48"/>
      </g>
     </g>
    </g>
   </g>
   <g id="matplotlib.axis_2">
    <g id="ytick_1">
     <g id="line2d_8">
      <defs>
       <path d="M 0 0 
L -3.5 0 
" id="mcfba256c83" style="stroke:#000000;stroke-width:0.8;"/>
      </defs>
      <g>
       <use style="stroke:#000000;stroke-width:0.8;" x="120.878594" xlink:href="#mcfba256c83" y="352.174167"/>
      </g>
     </g>
     <g id="text_8">
      <!-- 0 -->
      <g transform="translate(107.516094 355.973385)scale(0.1 -0.1)">
       <use xlink:href="#DejaVuSans-48"/>
      </g>
     </g>
    </g>
    <g id="ytick_2">
     <g id="line2d_9">
      <g>
       <use style="stroke:#000000;stroke-width:0.8;" x="120.878594" xlink:href="#mcfba256c83" y="291.726004"/>
      </g>
     </g>
     <g id="text_9">
      <!-- 100000 -->
      <g transform="translate(75.703594 295.525223)scale(0.1 -0.1)">
       <use xlink:href="#DejaVuSans-49"/>
       <use x="63.623047" xlink:href="#DejaVuSans-48"/>
       <use x="127.246094" xlink:href="#DejaVuSans-48"/>
       <use x="190.869141" xlink:href="#DejaVuSans-48"/>
       <use x="254.492188" xlink:href="#DejaVuSans-48"/>
       <use x="318.115234" xlink:href="#DejaVuSans-48"/>
      </g>
     </g>
    </g>
    <g id="ytick_3">
     <g id="line2d_10">
      <g>
       <use style="stroke:#000000;stroke-width:0.8;" x="120.878594" xlink:href="#mcfba256c83" y="231.277841"/>
      </g>
     </g>
     <g id="text_10">
      <!-- 200000 -->
      <g transform="translate(75.703594 235.07706)scale(0.1 -0.1)">
       <use xlink:href="#DejaVuSans-50"/>
       <use x="63.623047" xlink:href="#DejaVuSans-48"/>
       <use x="127.246094" xlink:href="#DejaVuSans-48"/>
       <use x="190.869141" xlink:href="#DejaVuSans-48"/>
       <use x="254.492188" xlink:href="#DejaVuSans-48"/>
       <use x="318.115234" xlink:href="#DejaVuSans-48"/>
      </g>
     </g>
    </g>
    <g id="ytick_4">
     <g id="line2d_11">
      <g>
       <use style="stroke:#000000;stroke-width:0.8;" x="120.878594" xlink:href="#mcfba256c83" y="170.829678"/>
      </g>
     </g>
     <g id="text_11">
      <!-- 300000 -->
      <g transform="translate(75.703594 174.628897)scale(0.1 -0.1)">
       <use xlink:href="#DejaVuSans-51"/>
       <use x="63.623047" xlink:href="#DejaVuSans-48"/>
       <use x="127.246094" xlink:href="#DejaVuSans-48"/>
       <use x="190.869141" xlink:href="#DejaVuSans-48"/>
       <use x="254.492188" xlink:href="#DejaVuSans-48"/>
       <use x="318.115234" xlink:href="#DejaVuSans-48"/>
      </g>
     </g>
    </g>
    <g id="ytick_5">
     <g id="line2d_12">
      <g>
       <use style="stroke:#000000;stroke-width:0.8;" x="120.878594" xlink:href="#mcfba256c83" y="110.381515"/>
      </g>
     </g>
     <g id="text_12">
      <!-- 400000 -->
      <defs>
       <path d="M 37.796875 64.3125 
L 12.890625 25.390625 
L 37.796875 25.390625 
z
M 35.203125 72.90625 
L 47.609375 72.90625 
L 47.609375 25.390625 
L 58.015625 25.390625 
L 58.015625 17.1875 
L 47.609375 17.1875 
L 47.609375 0 
L 37.796875 0 
L 37.796875 17.1875 
L 4.890625 17.1875 
L 4.890625 26.703125 
z
" id="DejaVuSans-52"/>
      </defs>
      <g transform="translate(75.703594 114.180734)scale(0.1 -0.1)">
       <use xlink:href="#DejaVuSans-52"/>
       <use x="63.623047" xlink:href="#DejaVuSans-48"/>
       <use x="127.246094" xlink:href="#DejaVuSans-48"/>
       <use x="190.869141" xlink:href="#DejaVuSans-48"/>
       <use x="254.492188" xlink:href="#DejaVuSans-48"/>
       <use x="318.115234" xlink:href="#DejaVuSans-48"/>
      </g>
     </g>
    </g>
    <g id="ytick_6">
     <g id="line2d_13">
      <g>
       <use style="stroke:#000000;stroke-width:0.8;" x="120.878594" xlink:href="#mcfba256c83" y="49.933353"/>
      </g>
     </g>
     <g id="text_13">
      <!-- 500000 -->
      <g transform="translate(75.703594 53.732571)scale(0.1 -0.1)">
       <use xlink:href="#DejaVuSans-53"/>
       <use x="63.623047" xlink:href="#DejaVuSans-48"/>
       <use x="127.246094" xlink:href="#DejaVuSans-48"/>
       <use x="190.869141" xlink:href="#DejaVuSans-48"/>
       <use x="254.492188" xlink:href="#DejaVuSans-48"/>
       <use x="318.115234" xlink:href="#DejaVuSans-48"/>
      </g>
     </g>
    </g>
    <g id="text_14">
     <!-- queue -->
     <defs>
      <path d="M 14.796875 27.296875 
Q 14.796875 17.390625 18.875 11.75 
Q 22.953125 6.109375 30.078125 6.109375 
Q 37.203125 6.109375 41.296875 11.75 
Q 45.40625 17.390625 45.40625 27.296875 
Q 45.40625 37.203125 41.296875 42.84375 
Q 37.203125 48.484375 30.078125 48.484375 
Q 22.953125 48.484375 18.875 42.84375 
Q 14.796875 37.203125 14.796875 27.296875 
z
M 45.40625 8.203125 
Q 42.578125 3.328125 38.25 0.953125 
Q 33.9375 -1.421875 27.875 -1.421875 
Q 17.96875 -1.421875 11.734375 6.484375 
Q 5.515625 14.40625 5.515625 27.296875 
Q 5.515625 40.1875 11.734375 48.09375 
Q 17.96875 56 27.875 56 
Q 33.9375 56 38.25 53.625 
Q 42.578125 51.265625 45.40625 46.390625 
L 45.40625 54.6875 
L 54.390625 54.6875 
L 54.390625 -20.796875 
L 45.40625 -20.796875 
z
" id="DejaVuSans-113"/>
      <path d="M 8.5 21.578125 
L 8.5 54.6875 
L 17.484375 54.6875 
L 17.484375 21.921875 
Q 17.484375 14.15625 20.5 10.265625 
Q 23.53125 6.390625 29.59375 6.390625 
Q 36.859375 6.390625 41.078125 11.03125 
Q 45.3125 15.671875 45.3125 23.6875 
L 45.3125 54.6875 
L 54.296875 54.6875 
L 54.296875 0 
L 45.3125 0 
L 45.3125 8.40625 
Q 42.046875 3.421875 37.71875 1 
Q 33.40625 -1.421875 27.6875 -1.421875 
Q 18.265625 -1.421875 13.375 4.4375 
Q 8.5 10.296875 8.5 21.578125 
z
M 31.109375 56 
z
" id="DejaVuSans-117"/>
      <path d="M 56.203125 29.59375 
L 56.203125 25.203125 
L 14.890625 25.203125 
Q 15.484375 15.921875 20.484375 11.0625 
Q 25.484375 6.203125 34.421875 6.203125 
Q 39.59375 6.203125 44.453125 7.46875 
Q 49.3125 8.734375 54.109375 11.28125 
L 54.109375 2.78125 
Q 49.265625 0.734375 44.1875 -0.34375 
Q 39.109375 -1.421875 33.890625 -1.421875 
Q 20.796875 -1.421875 13.15625 6.1875 
Q 5.515625 13.8125 5.515625 26.8125 
Q 5.515625 40.234375 12.765625 48.109375 
Q 20.015625 56 32.328125 56 
Q 43.359375 56 49.78125 48.890625 
Q 56.203125 41.796875 56.203125 29.59375 
z
M 47.21875 32.234375 
Q 47.125 39.59375 43.09375 43.984375 
Q 39.0625 48.390625 32.421875 48.390625 
Q 24.90625 48.390625 20.390625 44.140625 
Q 15.875 39.890625 15.1875 32.171875 
z
" id="DejaVuSans-101"/>
     </defs>
     <g transform="translate(58.426094 209.283177)rotate(-90)scale(0.1 -0.1)">
      <use xlink:href="#DejaVuSans-113"/>
      <use x="63.476562" xlink:href="#DejaVuSans-117"/>
      <use x="126.855469" xlink:href="#DejaVuSans-101"/>
      <use x="188.378906" xlink:href="#DejaVuSans-117"/>
      <use x="251.757812" xlink:href="#DejaVuSans-101"/>
     </g>
     <!-- (bytes) -->
     <defs>
      <path d="M 31 75.875 
Q 24.46875 64.65625 21.28125 53.65625 
Q 18.109375 42.671875 18.109375 31.390625 
Q 18.109375 20.125 21.3125 9.0625 
Q 24.515625 -2 31 -13.1875 
L 23.1875 -13.1875 
Q 15.875 -1.703125 12.234375 9.375 
Q 8.59375 20.453125 8.59375 31.390625 
Q 8.59375 42.28125 12.203125 53.3125 
Q 15.828125 64.359375 23.1875 75.875 
z
" id="DejaVuSans-40"/>
      <path d="M 48.6875 27.296875 
Q 48.6875 37.203125 44.609375 42.84375 
Q 40.53125 48.484375 33.40625 48.484375 
Q 26.265625 48.484375 22.1875 42.84375 
Q 18.109375 37.203125 18.109375 27.296875 
Q 18.109375 17.390625 22.1875 11.75 
Q 26.265625 6.109375 33.40625 6.109375 
Q 40.53125 6.109375 44.609375 11.75 
Q 48.6875 17.390625 48.6875 27.296875 
z
M 18.109375 46.390625 
Q 20.953125 51.265625 25.265625 53.625 
Q 29.59375 56 35.59375 56 
Q 45.5625 56 51.78125 48.09375 
Q 58.015625 40.1875 58.015625 27.296875 
Q 58.015625 14.40625 51.78125 6.484375 
Q 45.5625 -1.421875 35.59375 -1.421875 
Q 29.59375 -1.421875 25.265625 0.953125 
Q 20.953125 3.328125 18.109375 8.203125 
L 18.109375 0 
L 9.078125 0 
L 9.078125 75.984375 
L 18.109375 75.984375 
z
" id="DejaVuSans-98"/>
      <path d="M 32.171875 -5.078125 
Q 28.375 -14.84375 24.75 -17.8125 
Q 21.140625 -20.796875 15.09375 -20.796875 
L 7.90625 -20.796875 
L 7.90625 -13.28125 
L 13.1875 -13.28125 
Q 16.890625 -13.28125 18.9375 -11.515625 
Q 21 -9.765625 23.484375 -3.21875 
L 25.09375 0.875 
L 2.984375 54.6875 
L 12.5 54.6875 
L 29.59375 11.921875 
L 46.6875 54.6875 
L 56.203125 54.6875 
z
" id="DejaVuSans-121"/>
      <path d="M 18.3125 70.21875 
L 18.3125 54.6875 
L 36.8125 54.6875 
L 36.8125 47.703125 
L 18.3125 47.703125 
L 18.3125 18.015625 
Q 18.3125 11.328125 20.140625 9.421875 
Q 21.96875 7.515625 27.59375 7.515625 
L 36.8125 7.515625 
L 36.8125 0 
L 27.59375 0 
Q 17.1875 0 13.234375 3.875 
Q 9.28125 7.765625 9.28125 18.015625 
L 9.28125 47.703125 
L 2.6875 47.703125 
L 2.6875 54.6875 
L 9.28125 54.6875 
L 9.28125 70.21875 
z
" id="DejaVuSans-116"/>
      <path d="M 44.28125 53.078125 
L 44.28125 44.578125 
Q 40.484375 46.53125 36.375 47.5 
Q 32.28125 48.484375 27.875 48.484375 
Q 21.1875 48.484375 17.84375 46.4375 
Q 14.5 44.390625 14.5 40.28125 
Q 14.5 37.15625 16.890625 35.375 
Q 19.28125 33.59375 26.515625 31.984375 
L 29.59375 31.296875 
Q 39.15625 29.25 43.1875 25.515625 
Q 47.21875 21.78125 47.21875 15.09375 
Q 47.21875 7.46875 41.1875 3.015625 
Q 35.15625 -1.421875 24.609375 -1.421875 
Q 20.21875 -1.421875 15.453125 -0.5625 
Q 10.6875 0.296875 5.421875 2 
L 5.421875 11.28125 
Q 10.40625 8.6875 15.234375 7.390625 
Q 20.0625 6.109375 24.8125 6.109375 
Q 31.15625 6.109375 34.5625 8.28125 
Q 37.984375 10.453125 37.984375 14.40625 
Q 37.984375 18.0625 35.515625 20.015625 
Q 33.0625 21.96875 24.703125 23.78125 
L 21.578125 24.515625 
Q 13.234375 26.265625 9.515625 29.90625 
Q 5.8125 33.546875 5.8125 39.890625 
Q 5.8125 47.609375 11.28125 51.796875 
Q 16.75 56 26.8125 56 
Q 31.78125 56 36.171875 55.265625 
Q 40.578125 54.546875 44.28125 53.078125 
z
" id="DejaVuSans-115"/>
      <path d="M 8.015625 75.875 
L 15.828125 75.875 
Q 23.140625 64.359375 26.78125 53.3125 
Q 30.421875 42.28125 30.421875 31.390625 
Q 30.421875 20.453125 26.78125 9.375 
Q 23.140625 -1.703125 15.828125 -13.1875 
L 8.015625 -13.1875 
Q 14.5 -2 17.703125 9.0625 
Q 20.90625 20.125 20.90625 31.390625 
Q 20.90625 42.671875 17.703125 53.65625 
Q 14.5 64.65625 8.015625 75.875 
z
" id="DejaVuSans-41"/>
     </defs>
     <g transform="translate(69.623906 211.294896)rotate(-90)scale(0.1 -0.1)">
      <use xlink:href="#DejaVuSans-40"/>
      <use x="39.013672" xlink:href="#DejaVuSans-98"/>
      <use x="102.490234" xlink:href="#DejaVuSans-121"/>
      <use x="161.669922" xlink:href="#DejaVuSans-116"/>
      <use x="200.878906" xlink:href="#DejaVuSans-101"/>
      <use x="262.402344" xlink:href="#DejaVuSans-115"/>
      <use x="314.501953" xlink:href="#DejaVuSans-41"/>
     </g>
    </g>
   </g>
   <g id="line2d_14">
    <path clip-path="url(#p3154cb1f4f)" d="M 139.962933 352.174167 
L 144.464896 352.174167 
L 144.603574 185.610463 
L 144.748534 181.034537 
L 144.894262 343.022315 
L 145.034555 340.276759 
L 145.177258 317.39713 
L 145.322993 336.616019 
L 145.468208 332.040093 
L 146.03358 343.9375 
L 146.171345 345.76787 
L 146.308837 344.852685 
L 146.446731 345.76787 
L 146.589638 347.598241 
L 146.735009 336.616019 
L 146.879061 347.598241 
L 147.159045 195.6775 
L 147.449212 178.288981 
L 147.5867 236.860833 
L 147.725299 204.829352 
L 147.864279 213.981204 
L 148.009773 244.182315 
L 148.30039 236.860833 
L 148.590607 243.26713 
L 148.735518 247.843056 
L 148.880497 259.740463 
L 149.02553 259.740463 
L 149.171402 268.892315 
L 149.315086 258.825278 
L 149.452771 263.401204 
L 149.727882 239.606389 
L 149.865498 198.423056 
L 150.140552 52.908611 
L 150.278256 51.078241 
L 150.415842 56.569352 
L 150.560746 51.993426 
L 150.69849 53.821378 
L 150.839021 52.908611 
L 150.983276 149.003056 
L 151.129326 87.685648 
L 151.267053 91.346389 
L 151.405122 114.226019 
L 151.543196 115.141204 
L 151.685091 108.734907 
L 151.967043 127.953796 
L 152.11247 133.444907 
L 152.956944 51.078241 
L 153.099144 72.1275 
L 153.378393 51.993426 
L 153.516768 53.821378 
L 153.655549 51.078241 
L 153.794055 51.078241 
L 153.932118 50.163056 
L 154.074688 73.042685 
L 154.359767 50.163056 
L 154.503449 52.908611 
L 154.64615 51.993426 
L 154.791713 53.821378 
L 154.929572 51.078241 
L 155.208303 85.855278 
L 155.491804 52.908611 
L 155.629612 51.078241 
L 155.76822 67.551574 
L 155.906353 104.158981 
L 156.182257 50.163056 
L 156.326833 51.078241 
L 156.472028 95.922315 
L 156.76272 51.078241 
L 157.048873 152.663796 
L 157.464499 51.078241 
L 157.742593 64.806019 
L 157.882633 105.074167 
L 158.165845 50.163056 
L 158.446853 74.867011 
L 158.733547 53.821378 
L 158.878661 59.314907 
L 159.017874 51.993426 
L 159.157123 52.908611 
L 159.296208 51.993426 
L 159.578128 51.993426 
L 159.721374 62.060463 
L 159.862091 51.078241 
L 160.000879 51.993426 
L 160.139698 90.431204 
L 160.417899 51.078241 
L 160.556221 53.821378 
L 160.694455 79.448981 
L 160.832502 76.703426 
L 160.9708 51.078241 
L 161.109762 51.993426 
L 161.254069 75.788241 
L 161.544143 51.078241 
L 161.682874 92.261574 
L 161.822264 51.078241 
L 161.960975 64.806019 
L 162.100255 52.908611 
L 162.245178 50.163056 
L 162.528717 73.95787 
L 162.67392 72.1275 
L 163.0874 256.994907 
L 163.225009 247.843056 
L 163.640832 58.399722 
L 163.786731 54.738981 
L 163.934374 65.721204 
L 164.079776 61.145278 
L 164.223881 64.806019 
L 164.367182 72.1275 
L 164.510673 66.636389 
L 164.942286 105.074167 
L 165.087986 99.583056 
L 165.516265 123.37787 
L 165.66194 108.734907 
L 165.801344 106.904537 
L 165.939711 121.5475 
L 166.223031 103.243796 
L 166.36665 111.480463 
L 166.510655 127.038611 
L 166.794368 109.650093 
L 167.084745 116.971574 
L 167.232094 107.819722 
L 167.375078 115.141204 
L 167.516681 128.868981 
L 167.806797 116.971574 
L 167.950803 113.310833 
L 168.091207 126.123426 
L 168.232663 116.056389 
L 168.376444 117.886759 
L 168.516924 116.056389 
L 168.658245 116.056389 
L 168.798807 103.243796 
L 169.090403 113.310833 
L 169.230253 104.158981 
L 169.375119 113.310833 
L 169.519196 102.328611 
L 169.798945 112.395648 
L 169.938053 109.650093 
L 170.076989 111.480463 
L 170.360396 109.650093 
L 170.502567 93.176759 
L 170.642478 116.056389 
L 170.785414 104.158981 
L 170.925348 105.989352 
L 171.064184 96.8375 
L 171.207848 104.158981 
L 171.353873 93.176759 
L 171.645674 109.650093 
L 171.787911 100.498241 
L 171.930453 101.413426 
L 172.074068 87.685648 
L 172.221079 109.650093 
L 172.360704 107.819722 
L 172.640506 93.176759 
L 172.779427 100.498241 
L 172.9202 92.261574 
L 173.203517 102.328611 
L 173.489327 86.770463 
L 173.636994 86.770463 
L 173.779572 85.855278 
L 173.923821 104.158981 
L 174.21379 82.194537 
L 174.353165 83.109722 
L 174.633404 73.95787 
L 174.77143 92.261574 
L 174.912688 86.770463 
L 175.198926 70.29713 
L 175.342843 74.867011 
L 175.488611 85.855278 
L 175.627009 84.024907 
L 176.052338 69.381944 
L 176.194071 51.078241 
L 176.338027 102.328611 
L 176.482453 352.174167 
L 176.627724 352.174167 
L 176.773746 351.258981 
L 177.200953 221.302685 
L 177.485492 216.726759 
L 177.625315 219.472315 
L 178.197327 256.079722 
L 178.335474 253.334167 
L 178.614473 246.012685 
L 178.757467 242.351944 
L 179.040855 246.92787 
L 179.324503 241.436759 
L 179.470685 245.089037 
L 179.615109 245.089037 
L 179.754322 243.26713 
L 179.898456 246.012685 
L 180.042953 245.089037 
L 180.328049 251.503796 
L 180.469028 246.92787 
L 180.611935 246.012685 
L 180.756014 230.454537 
L 180.900148 246.012685 
L 181.044113 245.089037 
L 181.183759 246.012685 
L 181.329372 240.521574 
L 181.468758 247.843056 
L 181.607541 247.843056 
L 181.747983 246.92787 
L 181.887 241.436759 
L 182.030048 246.012685 
L 182.175564 242.351944 
L 182.313579 246.92787 
L 182.455093 242.351944 
L 182.595864 252.418981 
L 183.022264 244.182315 
L 183.163034 245.089037 
L 183.309505 249.673426 
L 183.5947 246.92787 
L 183.739777 240.521574 
L 183.879633 246.012685 
L 184.020412 241.436759 
L 184.161485 244.182315 
L 184.301252 243.26713 
L 184.442233 245.089037 
L 184.585053 242.351944 
L 184.724568 246.012685 
L 184.862385 243.26713 
L 185.001366 247.843056 
L 185.146724 242.351944 
L 185.286136 243.26713 
L 185.423803 242.351944 
L 185.564589 245.089037 
L 185.704569 243.26713 
L 185.842266 249.673426 
L 185.98678 242.351944 
L 186.130189 251.503796 
L 186.275638 245.089037 
L 186.700948 249.673426 
L 186.842298 246.012685 
L 187.126059 248.758241 
L 187.273014 247.843056 
L 187.412394 248.758241 
L 187.553493 250.588611 
L 187.837906 247.843056 
L 187.982219 247.843056 
L 188.266798 246.012685 
L 188.409705 246.012685 
L 188.554685 247.843056 
L 188.694057 244.182315 
L 188.838579 251.503796 
L 188.984382 242.351944 
L 189.122987 246.92787 
L 189.262187 244.182315 
L 189.400865 251.503796 
L 189.540886 242.351944 
L 189.679392 249.673426 
L 189.819913 246.92787 
L 189.965846 352.174167 
L 190.111319 352.174167 
L 190.257057 347.598241 
L 190.963467 234.115278 
L 191.103894 233.200093 
L 191.250169 235.030463 
L 191.393304 234.115278 
L 191.81508 244.182315 
L 191.953996 247.843056 
L 192.094673 245.089037 
L 192.237027 246.012685 
L 192.375803 245.089037 
L 192.518772 248.758241 
L 192.65709 244.182315 
L 192.939523 246.92787 
L 193.078821 245.089037 
L 193.355739 251.503796 
L 193.498525 247.843056 
L 193.64128 248.758241 
L 193.78595 246.012685 
L 193.930189 247.843056 
L 194.075777 246.92787 
L 194.361015 246.92787 
L 194.648791 243.26713 
L 194.794157 245.089037 
L 194.936645 245.089037 
L 195.080144 246.012685 
L 195.225989 245.089037 
L 195.370006 246.012685 
L 195.516171 250.588611 
L 195.661764 249.673426 
L 195.809234 251.503796 
L 195.954221 248.758241 
L 196.097694 248.758241 
L 196.389453 246.012685 
L 196.531347 246.012685 
L 196.673341 246.92787 
L 196.813038 246.012685 
L 196.958172 242.351944 
L 197.1033 244.182315 
L 197.243065 242.351944 
L 197.389346 242.351944 
L 197.535055 243.26713 
L 197.676803 246.92787 
L 197.817832 245.089037 
L 197.958049 252.418981 
L 198.102579 246.012685 
L 198.241241 249.673426 
L 198.383661 246.92787 
L 198.524089 250.588611 
L 198.663948 242.351944 
L 198.805089 250.588611 
L 198.947124 245.089037 
L 199.087778 250.588611 
L 199.22758 248.758241 
L 199.366608 245.089037 
L 199.511769 247.843056 
L 199.651644 245.089037 
L 199.790282 246.92787 
L 199.934099 245.089037 
L 200.221517 245.089037 
L 200.365185 244.182315 
L 200.645076 244.182315 
L 201.067763 241.436759 
L 201.209187 246.012685 
L 201.349641 245.089037 
L 201.494807 245.089037 
L 201.636936 244.182315 
L 201.781818 247.766891 
L 201.922663 246.92787 
L 202.061334 250.588611 
L 202.350384 246.012685 
L 202.490137 245.089037 
L 202.628763 243.26713 
L 202.769243 246.92787 
L 202.909834 243.26713 
L 203.051848 243.26713 
L 203.192542 249.673426 
L 203.331114 246.92787 
L 203.472891 352.174167 
L 203.618333 352.174167 
L 203.909654 307.330093 
L 204.332846 230.454537 
L 204.470709 231.344334 
L 204.6093 229.539352 
L 204.885456 235.030463 
L 205.298477 245.089037 
L 205.436156 243.26713 
L 205.577193 244.182315 
L 205.716572 243.26713 
L 205.854481 244.182315 
L 205.992332 240.521574 
L 206.132826 243.241741 
L 206.2728 241.436759 
L 206.55201 245.089037 
L 206.691502 244.182315 
L 206.831205 249.673426 
L 206.977603 246.012685 
L 207.115504 247.843056 
L 207.253338 244.182315 
L 207.397273 249.673426 
L 207.542452 244.182315 
L 207.687974 249.673426 
L 207.83341 245.089037 
L 207.978995 250.588611 
L 208.117103 246.92787 
L 208.255373 246.92787 
L 208.393337 245.089037 
L 208.531101 246.012685 
L 208.668875 243.26713 
L 208.806528 247.843056 
L 208.944392 245.089037 
L 209.082074 246.012685 
L 209.219707 245.089037 
L 209.357394 242.351944 
L 209.635625 246.012685 
L 209.781124 242.351944 
L 210.059751 245.089037 
L 210.197523 245.089037 
L 210.335263 246.012685 
L 210.472991 245.089037 
L 210.611544 247.843056 
L 210.750116 245.089037 
L 210.892258 247.843056 
L 211.033675 243.26713 
L 211.175547 249.673426 
L 211.313972 246.012685 
L 211.451681 250.588611 
L 211.58948 245.089037 
L 211.727173 246.92787 
L 211.864798 241.436759 
L 212.002482 244.182315 
L 212.143334 239.606389 
L 212.281041 245.089037 
L 212.418676 241.436759 
L 212.55642 247.843056 
L 212.697344 244.182315 
L 212.835379 249.673426 
L 212.973298 246.92787 
L 213.111657 247.843056 
L 213.249444 243.26713 
L 213.387096 252.418981 
L 213.813412 242.351944 
L 213.953264 249.673426 
L 214.094072 245.089037 
L 214.232748 253.334167 
L 214.372371 244.182315 
L 214.515233 248.758241 
L 214.661307 245.089037 
L 214.80021 251.503796 
L 214.938804 244.182315 
L 215.080799 246.92787 
L 215.221941 246.012685 
L 215.360249 250.588611 
L 215.797463 244.182315 
L 215.943034 243.26713 
L 216.085112 246.92787 
L 216.223015 246.012685 
L 216.360849 247.843056 
L 216.504727 246.92787 
L 216.783567 246.92787 
L 216.927964 352.174167 
L 217.07278 352.174167 
L 217.218383 348.513426 
L 217.509939 293.602315 
L 217.793216 225.878611 
L 218.077131 224.043405 
L 218.21588 231.369722 
L 218.354566 232.284907 
L 218.494072 242.351944 
L 218.633842 241.436759 
L 218.77431 254.249352 
L 218.914837 252.418981 
L 219.055749 255.164537 
L 219.196306 246.012685 
L 219.336293 246.012685 
L 219.481556 243.26713 
L 219.626995 249.673426 
L 219.772394 244.182315 
L 219.920061 255.164537 
L 220.062259 244.182315 
L 220.204569 244.182315 
L 220.346549 240.521574 
L 220.486808 245.089037 
L 220.627141 239.606389 
L 220.766932 247.843056 
L 220.906528 245.089037 
L 221.046242 253.334167 
L 221.191154 241.436759 
L 221.33132 245.089037 
L 221.469777 242.351944 
L 221.609628 246.012685 
L 221.748777 241.436759 
L 221.894373 243.26713 
L 222.039041 240.521574 
L 222.184085 246.92787 
L 222.329349 245.089037 
L 222.468765 246.92787 
L 222.608264 246.012685 
L 222.885523 250.588611 
L 223.023872 248.758241 
L 223.167667 249.673426 
L 223.313169 246.92787 
L 223.458368 252.418981 
L 223.603468 245.089037 
L 223.747336 246.92787 
L 223.885123 244.182315 
L 224.029948 250.588611 
L 224.171664 244.182315 
L 224.312896 247.843056 
L 224.455741 243.26713 
L 224.598954 249.673426 
L 224.740377 245.089037 
L 224.881502 251.503796 
L 225.022912 241.436759 
L 225.169142 246.012685 
L 225.310818 242.351944 
L 225.454838 249.673426 
L 225.60016 242.351944 
L 225.894944 248.758241 
L 226.188215 254.249352 
L 226.33398 248.758241 
L 226.481289 251.503796 
L 226.620866 247.843056 
L 226.759656 256.079722 
L 226.898572 246.92787 
L 227.043451 253.334167 
L 227.186942 251.503796 
L 227.327154 254.249352 
L 227.466887 246.012685 
L 227.60675 252.418981 
L 227.746487 241.436759 
L 227.888521 249.673426 
L 228.026645 249.673426 
L 228.165265 252.418981 
L 228.303819 243.26713 
L 228.444234 250.588611 
L 228.591198 243.26713 
L 228.737896 248.758241 
L 228.884536 242.351944 
L 229.030003 250.588611 
L 229.175543 246.92787 
L 229.32213 246.92787 
L 229.467386 254.249352 
L 229.606308 249.673426 
L 229.747763 257.910093 
L 229.886815 252.418981 
L 230.025903 256.079722 
L 230.164961 247.843056 
L 230.304003 257.910093 
L 230.443565 352.174167 
L 230.589589 352.174167 
L 230.737635 348.513426 
L 231.019484 289.941574 
L 231.298206 223.133056 
L 231.43673 227.708981 
L 231.575213 225.878611 
L 231.997552 241.436759 
L 232.137707 237.776019 
L 232.276668 243.26713 
L 232.41578 242.351944 
L 232.554535 247.843056 
L 232.69379 244.182315 
L 232.833357 246.012685 
L 232.972914 242.351944 
L 233.113208 246.92787 
L 233.256811 238.691204 
L 233.543619 247.843056 
L 233.681337 252.418981 
L 233.82017 244.182315 
L 233.960795 250.588611 
L 234.241896 246.012685 
L 234.524405 250.588611 
L 234.668449 246.92787 
L 234.811309 247.843056 
L 234.956617 250.588611 
L 235.099534 246.92787 
L 235.239964 253.334167 
L 235.380658 243.26713 
L 235.520738 249.673426 
L 235.660471 243.26713 
L 235.805748 246.92787 
L 235.951401 242.351944 
L 236.093466 244.182315 
L 236.233289 241.436759 
L 236.373611 248.758241 
L 236.514645 244.182315 
L 236.655309 246.012685 
L 236.796598 242.351944 
L 236.93662 248.758241 
L 237.080024 243.26713 
L 237.221056 251.503796 
L 237.362911 246.012685 
L 237.502926 252.418981 
L 237.642895 244.182315 
L 237.783092 247.843056 
L 237.923574 242.351944 
L 238.065077 250.588611 
L 238.204581 245.089037 
L 238.34427 247.843056 
L 238.486203 242.351944 
L 238.628519 248.758241 
L 238.766572 247.843056 
L 238.907112 250.588611 
L 239.184854 245.089037 
L 239.324811 250.588611 
L 239.463077 243.26713 
L 239.602593 247.843056 
L 239.744287 244.182315 
L 239.883591 249.673426 
L 240.023812 245.089037 
L 240.165716 254.249352 
L 240.307023 245.089037 
L 240.451785 248.758241 
L 240.594206 239.606389 
L 240.733716 247.843056 
L 240.875076 239.606389 
L 241.018808 247.843056 
L 241.158916 243.26713 
L 241.300427 252.418981 
L 241.440981 246.92787 
L 241.583989 249.673426 
L 241.72432 244.182315 
L 241.86793 251.503796 
L 242.007883 242.351944 
L 242.151294 248.758241 
L 242.294031 242.351944 
L 242.439504 246.92787 
L 242.582764 246.92787 
L 242.723514 247.843056 
L 242.868014 245.089037 
L 243.153043 250.588611 
L 243.294872 244.182315 
L 243.433189 246.92787 
L 243.576227 241.436759 
L 243.720193 251.503796 
L 243.865521 352.174167 
L 244.155629 352.174167 
L 244.865093 238.691204 
L 245.009724 233.200093 
L 245.153495 238.691204 
L 245.297527 232.284907 
L 245.440099 237.776019 
L 245.583625 238.691204 
L 245.727575 243.26713 
L 245.87252 244.182315 
L 246.015108 250.588611 
L 246.157619 246.012685 
L 246.298855 246.92787 
L 246.442517 249.673426 
L 246.581586 244.182315 
L 246.860977 249.673426 
L 246.999343 251.503796 
L 247.142265 250.588611 
L 247.43179 246.012685 
L 247.57717 249.673426 
L 247.724889 246.012685 
L 247.870533 250.588611 
L 248.009004 244.182315 
L 248.14694 247.843056 
L 248.284928 246.012685 
L 248.422815 254.249352 
L 248.560866 242.351944 
L 248.698766 246.92787 
L 248.837681 242.351944 
L 248.982653 246.012685 
L 249.128064 239.606389 
L 249.275624 248.758241 
L 249.421222 242.351944 
L 249.565231 246.012685 
L 249.710754 244.182315 
L 249.855933 245.089037 
L 250.001495 247.843056 
L 250.147719 246.012685 
L 250.286378 246.012685 
L 250.424215 241.436759 
L 250.562683 248.758241 
L 250.700579 244.182315 
L 250.840811 248.758241 
L 250.979243 243.26713 
L 251.117055 250.588611 
L 251.254861 247.843056 
L 251.392738 257.910093 
L 251.533234 247.843056 
L 251.673721 252.418981 
L 251.815927 246.92787 
L 251.961026 247.843056 
L 252.103477 245.089037 
L 252.386492 246.92787 
L 252.525847 250.588611 
L 252.665932 241.436759 
L 252.808074 243.26713 
L 252.952011 241.436759 
L 253.09244 245.089037 
L 253.234185 242.351944 
L 253.511456 244.182315 
L 253.649274 244.182315 
L 253.787017 245.089037 
L 253.924762 244.182315 
L 254.062395 246.012685 
L 254.206871 243.26713 
L 254.345249 246.92787 
L 254.763135 246.92787 
L 254.901064 248.758241 
L 255.039758 246.92787 
L 255.315472 248.758241 
L 255.458854 247.843056 
L 255.598439 243.26713 
L 255.736243 248.758241 
L 255.874268 244.182315 
L 256.012139 246.012685 
L 256.150085 245.089037 
L 256.288116 251.503796 
L 256.425931 246.012685 
L 256.563673 248.758241 
L 256.705132 245.089037 
L 256.84942 247.843056 
L 256.992106 244.182315 
L 257.137828 247.843056 
L 257.427266 352.174167 
L 257.572742 352.174167 
L 258.290398 234.115278 
L 258.429063 229.539352 
L 258.567514 234.115278 
L 258.706796 231.369722 
L 258.844596 235.030463 
L 258.982308 234.115278 
L 259.120016 250.588611 
L 259.257908 249.673426 
L 259.402385 251.503796 
L 259.541889 242.351944 
L 259.683539 254.249352 
L 259.823026 243.26713 
L 259.964121 250.588611 
L 260.103284 243.26713 
L 260.244323 253.334167 
L 260.388685 244.182315 
L 260.534175 256.079722 
L 260.673625 246.012685 
L 260.819244 253.334167 
L 260.958858 246.012685 
L 261.102186 252.418981 
L 261.244152 246.92787 
L 261.388391 249.673426 
L 261.67389 242.351944 
L 261.817617 251.503796 
L 262.244167 246.012685 
L 262.382765 249.673426 
L 262.523588 247.843056 
L 262.663455 254.249352 
L 262.802097 251.503796 
L 262.940401 255.164537 
L 263.07865 246.92787 
L 263.219431 249.673426 
L 263.358636 240.521574 
L 263.50213 248.758241 
L 263.642159 239.606389 
L 263.780673 248.758241 
L 263.919762 238.691204 
L 264.066805 250.588611 
L 264.205005 242.351944 
L 264.349232 251.503796 
L 264.487838 243.26713 
L 264.627723 252.418981 
L 264.767444 241.436759 
L 264.908439 246.92787 
L 265.049098 246.92787 
L 265.193264 249.673426 
L 265.33697 249.673426 
L 265.482966 256.079722 
L 265.624506 253.334167 
L 265.767826 247.843056 
L 265.91017 249.673426 
L 266.056135 249.673426 
L 266.194024 250.588611 
L 266.332175 249.673426 
L 266.470898 252.418981 
L 266.61008 247.843056 
L 266.749572 253.334167 
L 266.889272 247.843056 
L 267.028787 252.418981 
L 267.168736 246.92787 
L 267.307711 253.334167 
L 267.447424 246.012685 
L 267.587249 256.079722 
L 267.728902 246.012685 
L 267.868131 255.164537 
L 268.009321 243.26713 
L 268.150214 254.249352 
L 268.295059 248.758241 
L 268.440612 253.334167 
L 268.587025 246.92787 
L 268.734504 253.334167 
L 268.880284 246.92787 
L 269.019977 247.843056 
L 269.159574 253.334167 
L 269.298752 247.843056 
L 269.438197 249.673426 
L 269.857896 245.089037 
L 269.996037 253.334167 
L 270.139307 248.758241 
L 270.284362 253.334167 
L 270.425864 244.182315 
L 270.567159 251.503796 
L 270.710929 265.231574 
L 270.856218 352.174167 
L 271.001629 352.174167 
L 271.147637 347.598241 
L 271.288269 329.294537 
L 271.704761 234.115278 
L 271.844087 239.606389 
L 271.988043 229.539352 
L 272.12683 235.945648 
L 272.268088 231.369722 
L 272.697615 250.588611 
L 272.83979 242.351944 
L 272.983328 249.673426 
L 273.128333 247.843056 
L 273.274288 250.588611 
L 273.418316 245.089037 
L 273.559138 252.418981 
L 273.700574 246.92787 
L 273.843549 249.673426 
L 273.982146 247.843056 
L 274.257716 251.503796 
L 274.534891 246.012685 
L 274.673411 242.351944 
L 274.812713 248.758241 
L 274.956305 244.182315 
L 275.098792 245.089037 
L 275.238765 242.351944 
L 275.376823 251.503796 
L 275.524593 244.182315 
L 275.672693 250.588611 
L 275.818744 242.351944 
L 275.966365 252.418981 
L 276.114063 246.92787 
L 276.261854 250.563223 
L 276.405803 246.92787 
L 276.551872 246.92787 
L 276.699536 249.673426 
L 276.845397 249.673426 
L 277.132479 245.089037 
L 277.27097 249.673426 
L 277.409422 244.182315 
L 277.547922 247.843056 
L 277.68642 242.351944 
L 277.828237 249.673426 
L 277.967206 246.012685 
L 278.109736 250.588611 
L 278.247726 246.012685 
L 278.392384 256.994907 
L 278.533395 248.758241 
L 278.673195 255.164537 
L 278.814868 246.92787 
L 278.955378 255.164537 
L 279.101292 247.843056 
L 279.241198 253.334167 
L 279.379813 245.089037 
L 279.520022 251.503796 
L 279.663692 243.26713 
L 279.806271 248.758241 
L 280.093105 244.182315 
L 280.235125 248.758241 
L 280.37924 249.673426 
L 280.519149 247.843056 
L 280.662566 247.843056 
L 280.948371 246.012685 
L 281.093174 244.182315 
L 281.236378 244.182315 
L 281.381266 245.089037 
L 281.523152 244.182315 
L 281.668806 250.588611 
L 281.810125 245.089037 
L 281.951288 251.503796 
L 282.090906 246.012685 
L 282.234128 251.503796 
L 282.374298 244.182315 
L 282.512936 251.503796 
L 282.651509 246.92787 
L 282.790376 251.503796 
L 282.933077 242.351944 
L 283.0712 247.843056 
L 283.209817 244.182315 
L 283.348419 249.673426 
L 283.48699 244.182315 
L 283.625405 254.249352 
L 283.763937 246.92787 
L 283.902548 249.673426 
L 284.042688 244.182315 
L 284.181091 270.722685 
L 284.325342 352.174167 
L 284.470703 352.174167 
L 284.752076 310.082902 
L 285.190538 227.708981 
L 285.335571 231.369722 
L 285.480449 231.369722 
L 285.623147 233.200093 
L 285.76174 232.284907 
L 286.18176 246.92787 
L 286.32202 251.503796 
L 286.463918 252.418981 
L 286.607625 248.758241 
L 286.746733 250.588611 
L 286.890535 248.758241 
L 287.034122 245.089037 
L 287.175477 246.012685 
L 287.318151 246.012685 
L 287.461474 247.843056 
L 287.606665 242.351944 
L 287.745458 245.089037 
L 287.887413 244.182315 
L 288.028764 244.182315 
L 288.171613 243.26713 
L 288.315977 245.089037 
L 288.459966 241.436759 
L 288.606749 245.089037 
L 288.746991 245.089037 
L 288.888156 241.436759 
L 289.031307 246.92787 
L 289.170847 245.089037 
L 289.312553 251.503796 
L 289.598308 246.92787 
L 289.739658 248.758241 
L 289.881687 247.843056 
L 290.025183 249.673426 
L 290.164664 248.758241 
L 290.307162 249.673426 
L 290.449446 252.418981 
L 290.591167 246.012685 
L 290.734161 247.843056 
L 290.877427 246.92787 
L 291.158256 243.26713 
L 291.297187 242.351944 
L 291.576331 245.089037 
L 291.71867 241.436759 
L 291.862625 246.92787 
L 292.006695 243.26713 
L 292.153563 246.012685 
L 292.29165 241.436759 
L 292.430254 245.089037 
L 292.569562 242.351944 
L 292.712072 246.92787 
L 292.853687 247.843056 
L 292.991899 246.92787 
L 293.135694 244.182315 
L 293.28085 248.758241 
L 293.425274 248.758241 
L 293.70953 245.089037 
L 293.993469 249.673426 
L 294.13539 243.26713 
L 294.563086 243.26713 
L 294.702758 237.776019 
L 294.849073 246.92787 
L 294.99525 239.606389 
L 295.139083 244.991716 
L 295.282189 241.436759 
L 295.423367 247.843056 
L 295.567367 241.436759 
L 295.709355 245.089037 
L 295.850048 240.521574 
L 295.991227 246.012685 
L 296.130502 245.089037 
L 296.269401 249.673426 
L 296.41104 244.182315 
L 296.550008 250.588611 
L 296.688943 246.012685 
L 296.835009 248.758241 
L 296.980277 246.012685 
L 297.122044 248.758241 
L 297.266365 246.92787 
L 297.406557 247.843056 
L 297.545605 250.588611 
L 297.834702 352.174167 
L 297.978379 352.174167 
L 298.677234 232.284907 
L 298.965351 230.454537 
L 299.104558 231.369722 
L 299.525841 253.334167 
L 299.665925 246.012685 
L 299.80436 253.334167 
L 299.942577 250.588611 
L 300.084811 256.994907 
L 300.222819 250.588611 
L 300.360448 254.249352 
L 300.498272 248.758241 
L 300.63616 250.588611 
L 300.774112 247.843056 
L 300.912152 250.588611 
L 301.049783 248.758241 
L 301.190799 249.673426 
L 301.333852 245.089037 
L 301.479565 247.843056 
L 301.61879 247.843056 
L 301.759032 249.673426 
L 301.897496 249.673426 
L 302.03773 248.758241 
L 302.176254 251.503796 
L 302.318116 248.758241 
L 302.462709 255.164537 
L 302.608295 250.588611 
L 302.753066 255.164537 
L 302.892555 246.012685 
L 303.033018 256.994907 
L 303.177407 245.089037 
L 303.316067 255.164537 
L 303.459279 244.182315 
L 303.601721 251.503796 
L 303.742559 243.26713 
L 303.882919 249.673426 
L 304.027316 240.521574 
L 304.173082 248.758241 
L 304.31646 248.758241 
L 304.460719 251.503796 
L 304.603617 250.588611 
L 304.745193 252.418981 
L 304.885731 249.673426 
L 305.029708 249.673426 
L 305.174759 250.588611 
L 305.319178 245.089037 
L 305.45692 253.334167 
L 305.598686 250.588611 
L 305.741434 253.334167 
L 305.880246 248.758241 
L 306.02369 256.994907 
L 306.166049 248.758241 
L 306.309156 257.910093 
L 306.452139 247.843056 
L 306.595502 252.418981 
L 306.734348 240.521574 
L 306.871965 260.655648 
L 307.009524 245.089037 
L 307.147022 256.994907 
L 307.288996 244.182315 
L 307.426452 256.994907 
L 307.563957 247.843056 
L 307.701588 254.249352 
L 307.841741 244.182315 
L 307.980502 255.164537 
L 308.118429 244.182315 
L 308.256619 247.843056 
L 308.39489 244.182315 
L 308.535246 250.588611 
L 308.673551 249.673426 
L 308.816965 251.503796 
L 309.094551 247.843056 
L 309.234205 254.249352 
L 309.373327 250.588611 
L 309.511719 254.249352 
L 309.650189 250.588611 
L 309.788827 252.418981 
L 309.926843 247.843056 
L 310.07237 252.418981 
L 310.209999 246.92787 
L 310.348529 253.334167 
L 310.493567 246.92787 
L 310.6344 252.418981 
L 310.774707 246.92787 
L 310.916438 251.503796 
L 311.054945 246.92787 
L 311.193873 352.174167 
L 311.483262 352.174167 
L 311.776635 295.432685 
L 312.058849 226.793796 
L 312.197856 228.624167 
L 312.337044 225.878611 
L 312.626052 232.284907 
L 312.77329 240.521574 
L 312.913538 237.776019 
L 313.053187 245.089037 
L 313.194656 240.521574 
L 313.335631 251.503796 
L 313.475909 243.26713 
L 313.618573 246.92787 
L 313.760392 246.92787 
L 313.899463 251.503796 
L 314.03839 246.012685 
L 314.178079 248.758241 
L 314.317215 247.843056 
L 314.456893 248.758241 
L 314.595637 246.012685 
L 315.014307 250.588611 
L 315.155538 247.843056 
L 315.29504 247.843056 
L 315.436119 249.673426 
L 315.574727 249.673426 
L 315.716536 247.843056 
L 315.855589 248.758241 
L 315.995021 252.418981 
L 316.133252 247.843056 
L 316.272418 250.588611 
L 316.554542 247.843056 
L 316.973995 247.843056 
L 317.11615 241.436759 
L 317.25475 243.26713 
L 317.396331 247.843056 
L 317.535095 247.843056 
L 317.673654 246.92787 
L 317.953216 246.92787 
L 318.093957 243.26713 
L 318.231767 246.92787 
L 318.37496 241.436759 
L 318.519855 250.588611 
L 318.657568 245.089037 
L 318.795767 250.588611 
L 318.936136 245.089037 
L 319.076838 248.758241 
L 319.221003 246.012685 
L 319.365474 250.588611 
L 319.508473 246.012685 
L 319.654215 246.012685 
L 319.801775 244.182315 
L 319.949138 246.92787 
L 320.096585 246.012685 
L 320.384869 242.351944 
L 320.525244 245.089037 
L 320.665628 245.089037 
L 320.808858 241.436759 
L 320.952582 252.418981 
L 321.091713 241.436759 
L 321.231502 248.758241 
L 321.371472 244.182315 
L 321.511997 248.758241 
L 321.653874 241.436759 
L 321.801505 251.503796 
L 321.948578 246.92787 
L 322.094687 248.758241 
L 322.240589 253.334167 
L 322.386633 249.673426 
L 322.525214 251.503796 
L 322.664062 245.089037 
L 322.803554 250.588611 
L 322.942748 251.503796 
L 323.082231 249.673426 
L 323.221349 249.673426 
L 323.359961 248.758241 
L 323.502308 246.92787 
L 323.641079 249.673426 
L 323.780398 248.758241 
L 324.057843 248.758241 
L 324.196906 252.418981 
L 324.340541 246.92787 
L 324.480023 251.503796 
L 324.763552 352.174167 
L 324.908905 352.174167 
L 325.201135 302.754167 
L 325.48086 233.200093 
L 325.625357 228.624167 
L 325.769571 227.708981 
L 325.915435 235.030463 
L 326.056169 235.030463 
L 326.346712 241.436759 
L 326.630079 250.588611 
L 326.770568 256.079722 
L 326.909921 246.92787 
L 327.049043 255.164537 
L 327.325653 245.089037 
L 327.46402 239.606389 
L 327.608175 250.588611 
L 327.74787 243.26713 
L 327.886681 246.012685 
L 328.029082 243.26713 
L 328.168399 249.673426 
L 328.313016 249.673426 
L 328.457857 250.588611 
L 328.59725 246.012685 
L 328.736118 247.843056 
L 328.874654 242.351944 
L 329.012912 244.182315 
L 329.156329 241.436759 
L 329.298973 243.26713 
L 329.582411 243.26713 
L 329.725852 246.012685 
L 329.866871 241.436759 
L 330.008998 248.758241 
L 330.150304 240.521574 
L 330.2908 246.012685 
L 330.430681 240.521574 
L 330.570208 246.92787 
L 330.710568 242.351944 
L 330.85186 247.843056 
L 330.993409 243.26713 
L 331.135438 244.182315 
L 331.279127 244.156927 
L 331.419266 243.26713 
L 331.706429 245.089037 
L 331.845106 239.606389 
L 331.987598 246.012685 
L 332.128221 240.521574 
L 332.416694 247.843056 
L 332.560968 246.92787 
L 332.703066 242.351944 
L 332.98944 245.089037 
L 333.27314 245.089037 
L 333.414379 241.436759 
L 333.553829 246.012685 
L 333.696767 238.691204 
L 333.836651 247.843056 
L 333.978957 239.606389 
L 334.12273 244.182315 
L 334.266611 242.351944 
L 334.405674 246.012685 
L 334.551582 241.436759 
L 334.693756 243.26713 
L 334.83706 241.436759 
L 335.122028 246.012685 
L 335.263688 245.089037 
L 335.407391 245.089037 
L 335.547642 249.673426 
L 335.830663 245.089037 
L 335.971986 246.012685 
L 336.114481 246.012685 
L 336.256425 246.92787 
L 336.395021 245.089037 
L 336.534463 248.758241 
L 336.675339 244.156927 
L 336.813766 253.334167 
L 336.951413 246.012685 
L 337.097107 249.673426 
L 337.242027 243.26713 
L 337.3869 246.92787 
L 337.526663 242.351944 
L 337.668726 248.758241 
L 337.811778 242.351944 
L 337.954746 245.089037 
L 338.098035 335.700833 
L 338.242711 352.174167 
L 338.388027 352.174167 
L 338.954736 246.012685 
L 339.09427 232.284907 
L 339.237456 234.115278 
L 339.381625 237.776019 
L 339.526329 235.030463 
L 339.666269 240.521574 
L 339.8079 236.860833 
L 339.947087 251.503796 
L 340.087317 246.92787 
L 340.226927 252.418981 
L 340.369251 247.843056 
L 340.51105 252.418981 
L 340.652163 242.351944 
L 340.79178 245.089037 
L 340.931376 237.776019 
L 341.072094 249.673426 
L 341.210659 242.351944 
L 341.353157 248.758241 
L 341.497013 243.26713 
L 341.635579 247.843056 
L 341.778544 243.26713 
L 341.919742 245.089037 
L 342.060509 243.26713 
L 342.199121 246.012685 
L 342.337109 241.436759 
L 342.615802 246.012685 
L 342.753647 245.089037 
L 342.891922 247.843056 
L 343.03011 246.012685 
L 343.168604 246.92787 
L 343.30751 248.758241 
L 343.447966 247.843056 
L 343.586518 249.673426 
L 343.725437 247.843056 
L 343.864415 249.673426 
L 344.003156 246.92787 
L 344.145875 246.92787 
L 344.28389 249.673426 
L 344.424669 248.758241 
L 344.566246 246.92787 
L 344.712459 242.351944 
L 344.852935 249.673426 
L 344.99112 244.182315 
L 345.129085 248.758241 
L 345.266881 243.26713 
L 345.404667 251.503796 
L 345.54254 242.351944 
L 345.686415 251.503796 
L 345.83182 241.436759 
L 345.973794 242.351944 
L 346.115232 242.351944 
L 346.256362 250.588611 
L 346.399372 245.089037 
L 346.546958 247.843056 
L 346.694389 245.089037 
L 346.840395 246.012685 
L 347.116615 241.436759 
L 347.258071 244.182315 
L 347.40099 250.588611 
L 347.689801 243.26713 
L 347.827593 243.26713 
L 347.966799 244.182315 
L 348.10469 246.92787 
L 348.242427 244.182315 
L 348.380161 245.089037 
L 348.518291 248.758241 
L 348.794661 242.351944 
L 348.932366 243.26713 
L 349.070086 246.012685 
L 349.207724 246.012685 
L 349.346287 240.521574 
L 349.485225 246.012685 
L 349.623047 243.26713 
L 349.760901 244.182315 
L 349.899124 244.182315 
L 350.037898 243.26713 
L 350.175879 241.436759 
L 350.316584 244.182315 
L 350.454332 242.351944 
L 350.594905 242.351944 
L 350.732708 238.691204 
L 350.870417 246.012685 
L 351.008359 246.012685 
L 351.155335 246.92787 
L 351.303007 239.606389 
L 351.448688 246.012685 
L 351.596169 352.174167 
L 351.887404 352.174167 
L 352.316132 271.63787 
L 352.59647 238.691204 
L 352.735208 233.200093 
L 352.875805 242.351944 
L 353.016417 235.945648 
L 353.15593 243.26713 
L 353.295394 240.521574 
L 353.434942 256.079722 
L 353.579286 247.843056 
L 353.725204 256.994907 
L 353.868715 247.843056 
L 354.007217 256.994907 
L 354.145024 243.26713 
L 354.282796 253.334167 
L 354.420458 245.089037 
L 354.561184 255.164537 
L 354.699056 246.92787 
L 354.837574 249.673426 
L 354.975883 243.26713 
L 355.114434 247.843056 
L 355.253594 244.182315 
L 355.396672 255.164537 
L 355.544157 246.012685 
L 355.689603 256.079722 
L 355.83463 251.503796 
L 355.97241 257.910093 
L 356.110344 250.588611 
L 356.248421 252.418981 
L 356.677943 252.393593 
L 356.816887 249.673426 
L 356.955433 251.503796 
L 357.097614 251.503796 
L 357.238676 253.334167 
L 357.377652 249.673426 
L 357.517119 254.249352 
L 357.656176 248.758241 
L 357.79848 256.994907 
L 357.936469 252.418981 
L 358.075092 255.164537 
L 358.214937 246.012685 
L 358.354992 254.249352 
L 358.497938 243.26713 
L 358.640304 256.079722 
L 358.781202 244.182315 
L 358.921482 252.418981 
L 359.064057 243.26713 
L 359.209055 252.418981 
L 359.35009 245.089037 
L 359.492724 250.588611 
L 359.634979 246.012685 
L 359.780258 246.92787 
L 359.92129 246.92787 
L 360.062279 250.588611 
L 360.202724 248.758241 
L 360.342809 244.182315 
L 360.483901 246.92787 
L 360.624638 246.012685 
L 360.764566 247.843056 
L 360.903634 246.012685 
L 361.045022 246.92787 
L 361.187465 245.089037 
L 361.464752 253.334167 
L 361.606501 246.92787 
L 361.751455 246.92787 
L 361.898918 251.503796 
L 362.044018 246.012685 
L 362.184108 251.503796 
L 362.325758 245.089037 
L 362.467079 254.249352 
L 362.608485 248.758241 
L 362.748641 253.334167 
L 362.890761 246.012685 
L 363.036585 251.503796 
L 363.17949 246.92787 
L 363.317666 250.588611 
L 363.46474 245.089037 
L 363.61089 251.503796 
L 363.753816 247.843056 
L 363.899373 250.588611 
L 364.184221 246.012685 
L 364.324529 253.334167 
L 364.751592 240.521574 
L 364.8954 246.92787 
L 365.187218 352.174167 
L 365.332795 352.174167 
L 366.18839 229.539352 
L 366.327957 240.521574 
L 366.466524 235.945648 
L 366.604967 242.351944 
L 366.743517 236.860833 
L 366.885193 246.92787 
L 367.024591 246.92787 
L 367.163155 252.418981 
L 367.301561 250.588611 
L 367.439987 256.994907 
L 367.578384 253.334167 
L 367.716873 254.249352 
L 367.855405 250.588611 
L 367.993486 252.418981 
L 368.13834 244.182315 
L 368.281545 254.249352 
L 368.421982 242.351944 
L 368.561301 255.164537 
L 368.698986 247.843056 
L 368.837516 254.249352 
L 368.978427 248.758241 
L 369.117187 258.825278 
L 369.255164 247.843056 
L 369.393656 255.164537 
L 369.53185 243.26713 
L 369.67247 253.334167 
L 369.81102 240.521574 
L 369.949449 254.249352 
L 370.088033 240.521574 
L 370.226578 252.418981 
L 370.365258 245.089037 
L 370.503723 256.079722 
L 370.642177 245.089037 
L 370.785643 255.164537 
L 370.926439 249.673426 
L 371.064549 256.079722 
L 371.203894 251.503796 
L 371.493135 255.164537 
L 371.635771 252.418981 
L 371.780102 252.418981 
L 371.923037 253.334167 
L 372.065964 255.164537 
L 372.211983 248.758241 
L 372.357336 253.334167 
L 372.496503 248.758241 
L 372.635375 250.588611 
L 372.775051 243.26713 
L 372.916962 255.164537 
L 373.057848 241.436759 
L 373.200657 253.334167 
L 373.342853 241.436759 
L 373.482246 254.249352 
L 373.620751 245.089037 
L 373.763366 254.249352 
L 373.902015 243.26713 
L 374.040338 250.588611 
L 374.186449 245.089037 
L 374.329667 252.418981 
L 374.613831 248.758241 
L 374.759344 248.758241 
L 374.905505 246.92787 
L 375.046838 254.249352 
L 375.185225 246.92787 
L 375.325739 249.673426 
L 375.467347 246.92787 
L 375.610449 247.843056 
L 375.749719 240.521574 
L 375.890098 248.758241 
L 376.034909 248.758241 
L 376.178669 255.164537 
L 376.316825 244.182315 
L 376.455175 254.249352 
L 376.593583 246.012685 
L 376.734913 253.334167 
L 376.880335 245.089037 
L 377.026109 249.673426 
L 377.167644 241.436759 
L 377.307034 252.418981 
L 377.450621 246.92787 
L 377.594175 253.334167 
L 377.732726 248.758241 
L 377.871081 253.334167 
L 378.009464 252.418981 
L 378.294933 247.843056 
L 378.437441 254.249352 
L 378.578702 352.174167 
L 378.724261 352.174167 
L 379.012775 324.718611 
L 379.566947 232.284907 
L 379.70937 226.793796 
L 379.84969 230.454537 
L 379.995218 228.624167 
L 380.14153 232.284907 
L 380.419827 253.334167 
L 380.558859 243.26713 
L 380.69847 256.079722 
L 380.838029 248.758241 
L 380.977303 251.503796 
L 381.115983 249.673426 
L 381.257987 252.418981 
L 381.39928 249.673426 
L 381.538323 249.673426 
L 381.676529 256.994907 
L 381.815527 252.418981 
L 381.954287 253.334167 
L 382.236994 253.334167 
L 382.37671 247.843056 
L 382.51592 255.164537 
L 382.661701 245.089037 
L 382.801766 256.079722 
L 382.940922 248.758241 
L 383.081076 255.164537 
L 383.2212 247.843056 
L 383.361406 256.079722 
L 383.501357 244.182315 
L 383.646412 255.164537 
L 383.786843 243.26713 
L 383.92817 254.249352 
L 384.066283 242.351944 
L 384.204536 256.994907 
L 384.347664 241.436759 
L 384.486697 256.994907 
L 384.62503 246.92787 
L 384.763544 256.994907 
L 384.902209 243.26713 
L 385.040776 251.503796 
L 385.184517 245.089037 
L 385.328373 250.588611 
L 385.469642 249.673426 
L 385.610093 250.588611 
L 385.75115 247.843056 
L 385.890664 251.503796 
L 386.036604 250.588611 
L 386.182371 248.758241 
L 386.3215 254.249352 
L 386.459925 251.503796 
L 386.598337 252.418981 
L 386.737196 246.92787 
L 386.876105 256.994907 
L 387.016078 251.427632 
L 387.155494 254.249352 
L 387.295476 251.503796 
L 387.434812 257.910093 
L 387.57416 251.503796 
L 387.713193 253.334167 
L 387.857035 249.673426 
L 388.001782 256.079722 
L 388.146274 245.089037 
L 388.291042 250.588611 
L 388.434435 242.351944 
L 388.574029 253.334167 
L 388.712488 239.606389 
L 388.850481 250.588611 
L 388.988039 240.521574 
L 389.129141 250.588611 
L 389.266516 242.351944 
L 389.404143 252.418981 
L 389.542801 246.012685 
L 389.68077 251.503796 
L 389.818234 247.843056 
L 389.9558 252.418981 
L 390.093322 246.012685 
L 390.230791 250.588611 
L 390.368332 243.26713 
L 390.513097 250.588611 
L 390.656771 248.758241 
L 390.794419 249.673426 
L 390.932167 248.758241 
L 391.207336 253.334167 
L 391.344787 251.503796 
L 391.48214 247.843056 
L 391.619417 248.758241 
L 391.760258 252.418981 
L 391.898791 249.673426 
L 392.042359 352.174167 
L 392.187982 352.174167 
L 392.333481 348.513426 
L 392.914734 229.539352 
L 393.059927 238.691204 
L 393.204357 231.369722 
L 393.61718 248.758241 
L 393.754587 244.182315 
L 393.895896 251.503796 
L 394.033411 245.089037 
L 394.170924 253.334167 
L 394.308407 249.673426 
L 394.447989 256.994907 
L 394.585781 249.673426 
L 394.723319 253.334167 
L 394.86137 246.012685 
L 394.998838 256.994907 
L 395.136288 244.182315 
L 395.273817 258.825278 
L 395.411317 242.351944 
L 395.548883 254.249352 
L 395.69051 244.182315 
L 395.833244 249.673426 
L 395.977945 241.436759 
L 396.123128 252.418981 
L 396.268251 246.92787 
L 396.413435 249.673426 
L 396.551123 246.92787 
L 396.688657 246.92787 
L 396.826583 252.418981 
L 397.107261 252.393593 
L 397.246366 251.503796 
L 397.385844 254.249352 
L 397.525559 247.843056 
L 397.664739 254.249352 
L 397.809388 249.673426 
L 397.948184 257.910093 
L 398.087086 255.164537 
L 398.225594 256.079722 
L 398.369879 248.758241 
L 398.513163 256.994907 
L 398.651119 246.012685 
L 398.796338 253.334167 
L 398.937747 243.26713 
L 399.082434 251.503796 
L 399.220214 246.92787 
L 399.360044 251.503796 
L 399.49771 241.436759 
L 399.636623 251.503796 
L 399.77475 242.351944 
L 399.918532 252.418981 
L 400.056289 242.351944 
L 400.19411 249.673426 
L 400.332556 243.26713 
L 400.473105 252.418981 
L 400.610868 246.012685 
L 400.749364 248.758241 
L 400.89436 246.012685 
L 401.039884 248.758241 
L 401.185054 255.164537 
L 401.329975 251.503796 
L 401.468812 254.249352 
L 401.606637 253.334167 
L 401.744913 255.164537 
L 401.883924 251.503796 
L 402.022602 256.994907 
L 402.161824 252.418981 
L 402.300713 255.164537 
L 402.442935 252.418981 
L 402.581102 252.418981 
L 402.720109 248.758241 
L 402.865204 255.164537 
L 403.004212 243.26713 
L 403.147832 257.910093 
L 403.285834 245.089037 
L 403.426021 253.334167 
L 403.565241 245.089037 
L 403.70348 251.503796 
L 403.850157 245.089037 
L 403.995708 251.503796 
L 404.133472 246.012685 
L 404.271184 250.588611 
L 404.411872 248.758241 
L 404.549395 256.994907 
L 404.686894 251.503796 
L 404.825002 252.418981 
L 404.962778 247.843056 
L 405.100641 251.503796 
L 405.239362 249.673426 
L 405.379955 261.570833 
L 405.517715 352.174167 
L 405.662057 352.174167 
L 405.808604 345.76787 
L 406.386012 239.606389 
L 406.666919 231.369722 
L 406.807348 238.691204 
L 406.947312 234.115278 
L 407.091369 243.26713 
L 407.230878 241.436759 
L 407.373302 256.079722 
L 407.656126 249.673426 
L 407.795783 248.758241 
L 407.937533 252.418981 
L 408.079438 248.758241 
L 408.221992 249.673426 
L 408.362844 244.182315 
L 408.501124 249.673426 
L 408.639231 243.26713 
L 408.779197 249.673426 
L 408.924911 249.673426 
L 409.072471 254.249352 
L 409.217563 241.436759 
L 409.357021 256.994907 
L 409.496361 246.012685 
L 409.639579 255.164537 
L 409.784754 243.26713 
L 409.924267 250.588611 
L 410.062245 245.089037 
L 410.205572 252.418981 
L 410.344429 245.089037 
L 410.48322 250.588611 
L 410.623374 251.503796 
L 410.761373 250.588611 
L 410.899713 246.92787 
L 411.038367 249.673426 
L 411.317937 246.012685 
L 411.457113 248.758241 
L 411.595256 246.012685 
L 411.741159 252.418981 
L 411.886992 250.588611 
L 412.02708 251.503796 
L 412.3188 249.673426 
L 412.464575 246.92787 
L 412.610838 256.994907 
L 412.753938 245.089037 
L 412.892778 248.758241 
L 413.031505 242.351944 
L 413.170282 252.313197 
L 413.308822 244.182315 
L 413.448053 251.503796 
L 413.591558 244.182315 
L 413.730507 249.673426 
L 413.869286 243.26713 
L 414.011005 250.588611 
L 414.158093 247.843056 
L 414.301793 251.503796 
L 414.443008 246.92787 
L 414.724736 256.079722 
L 414.863235 253.334167 
L 415.001779 253.334167 
L 415.14025 255.164537 
L 415.422648 248.758241 
L 415.564084 259.740463 
L 415.702712 256.079722 
L 415.841638 258.825278 
L 415.988183 252.418981 
L 416.135171 256.994907 
L 416.274344 250.588611 
L 416.412621 255.164537 
L 416.554782 247.843056 
L 416.698986 251.503796 
L 416.839686 243.26713 
L 416.978387 254.249352 
L 417.116876 246.012685 
L 417.255779 256.994907 
L 417.394586 246.012685 
L 417.535834 253.334167 
L 417.674706 245.089037 
L 417.813583 256.994907 
L 417.952135 245.089037 
L 418.091026 255.164537 
L 418.231695 243.26713 
L 418.371146 255.164537 
L 418.510486 244.182315 
L 418.790915 253.334167 
L 418.930197 352.174167 
L 419.21674 352.174167 
L 419.498472 295.432685 
L 419.778022 220.3875 
L 419.924811 222.21787 
L 420.072164 220.3875 
L 420.490797 237.776019 
L 420.636169 234.115278 
L 420.781971 246.92787 
L 420.920763 246.92787 
L 421.059238 250.588611 
L 421.197627 249.673426 
L 421.336818 252.418981 
L 421.477509 246.92787 
L 421.615715 252.418981 
L 421.754931 245.089037 
L 421.893276 248.758241 
L 422.033375 244.182315 
L 422.180671 254.249352 
L 422.328732 240.521574 
L 422.467165 249.673426 
L 422.605645 242.351944 
L 422.74612 250.588611 
L 422.884845 240.521574 
L 423.023403 247.843056 
L 423.161888 243.26713 
L 423.301033 250.588611 
L 423.445744 245.089037 
L 423.58479 252.418981 
L 423.723509 246.012685 
L 423.863645 250.588611 
L 424.146402 247.843056 
L 424.433403 251.503796 
L 424.713755 248.758241 
L 424.852388 254.249352 
L 424.990978 246.92787 
L 425.129487 248.758241 
L 425.268003 244.182315 
L 425.407181 252.418981 
L 425.546438 247.843056 
L 425.685729 253.334167 
L 425.829681 250.588611 
L 425.967815 251.503796 
L 426.387747 242.351944 
L 426.527747 246.012685 
L 426.66644 242.351944 
L 426.805218 245.089037 
L 426.944682 243.26713 
L 427.083876 246.92787 
L 427.222628 246.92787 
L 427.364414 251.503796 
L 427.502476 247.843056 
L 427.644862 249.673426 
L 427.789755 245.089037 
L 427.935857 253.334167 
L 428.082275 244.182315 
L 428.222827 254.249352 
L 428.36193 243.26713 
L 428.504512 242.351944 
L 428.650717 247.843056 
L 428.792497 257.910093 
L 428.93047 252.418981 
L 429.071011 256.079722 
L 429.218084 250.588611 
L 429.358954 251.503796 
L 429.497009 256.079722 
L 429.635213 251.503796 
L 429.77616 251.503796 
L 429.91987 255.164537 
L 430.063859 255.164537 
L 430.203118 250.588611 
L 430.342364 253.334167 
L 430.481502 246.92787 
L 430.62323 249.673426 
L 430.763396 246.012685 
L 430.902262 250.588611 
L 431.040884 246.012685 
L 431.181294 250.588611 
L 431.319946 246.012685 
L 431.599386 253.334167 
L 431.743915 255.164537 
L 431.886955 245.089037 
L 432.030231 251.503796 
L 432.174748 238.691204 
L 432.318891 261.570833 
L 432.463184 352.174167 
L 432.609098 352.174167 
L 432.902604 292.68713 
L 433.181413 231.369722 
L 433.32065 227.708981 
L 433.464838 228.624167 
L 433.604924 234.115278 
L 433.749975 230.454537 
L 434.035383 239.606389 
L 434.17749 252.418981 
L 434.317821 249.673426 
L 434.458971 250.588611 
L 434.741293 244.182315 
L 434.882768 244.182315 
L 435.021431 246.92787 
L 435.16725 246.92787 
L 435.308132 246.012685 
L 435.445988 241.436759 
L 435.583936 247.843056 
L 435.724421 242.351944 
L 435.864081 246.012685 
L 436.006176 244.182315 
L 436.149876 246.012685 
L 436.289023 241.436759 
L 436.437164 246.92787 
L 436.583399 238.691204 
L 436.729207 244.182315 
L 436.868268 239.606389 
L 437.007318 242.351944 
L 437.147746 241.436759 
L 437.287348 242.351944 
L 437.566446 246.012685 
L 437.71425 242.351944 
L 437.858487 249.673426 
L 437.998776 246.92787 
L 438.139958 250.588611 
L 438.280145 249.673426 
L 438.559832 243.26713 
L 438.704047 244.182315 
L 438.847301 243.26713 
L 438.994811 241.436759 
L 439.140592 246.92787 
L 439.28831 242.351944 
L 439.435932 245.089037 
L 439.583411 244.182315 
L 439.728958 245.089037 
L 439.868706 242.351944 
L 440.160548 246.012685 
L 440.44127 251.503796 
L 440.580553 248.758241 
L 440.725419 249.597261 
L 440.86866 243.26713 
L 441.011872 243.26713 
L 441.150958 238.691204 
L 441.290856 244.182315 
L 441.429188 240.521574 
L 441.570669 246.012685 
L 441.716451 242.351944 
L 441.857146 249.673426 
L 442.003066 244.182315 
L 442.150525 249.673426 
L 442.297697 239.606389 
L 442.43694 246.012685 
L 442.5769 242.351944 
L 442.720196 246.92787 
L 443.003799 244.182315 
L 443.142626 246.012685 
L 443.281173 244.182315 
L 443.419869 248.732853 
L 443.559889 242.351944 
L 443.699718 246.92787 
L 443.84021 246.012685 
L 443.980903 249.673426 
L 444.126783 247.843056 
L 444.274757 247.843056 
L 444.419489 243.26713 
L 444.695957 246.92787 
L 444.834549 246.92787 
L 444.973097 245.089037 
L 445.250276 245.089037 
L 445.390037 246.92787 
L 445.532088 246.012685 
L 445.670799 250.588611 
L 445.809986 284.450463 
L 445.94898 352.174167 
L 446.092332 352.174167 
L 446.384539 310.990833 
L 446.967804 231.369722 
L 447.113939 235.945648 
L 447.25286 234.115278 
L 447.391006 237.776019 
L 447.530085 236.860833 
L 447.807955 246.92787 
L 447.947503 255.164537 
L 448.087058 248.758241 
L 448.23299 256.994907 
L 448.380273 249.673426 
L 448.525993 258.825278 
L 448.671137 252.418981 
L 448.815302 254.249352 
L 448.954382 247.843056 
L 449.095477 248.758241 
L 449.377659 248.758241 
L 449.523316 253.334167 
L 449.661725 248.758241 
L 450.081325 255.164537 
L 450.220593 249.673426 
L 450.360036 255.164537 
L 450.499161 250.588611 
L 450.63843 256.079722 
L 450.777708 248.758241 
L 450.916632 256.079722 
L 451.055149 245.089037 
L 451.195048 251.503796 
L 451.335813 245.089037 
L 451.477027 258.825278 
L 451.617844 249.673426 
L 451.760801 255.164537 
L 451.902804 243.26713 
L 452.048978 250.588611 
L 452.195062 246.92787 
L 452.342672 253.334167 
L 452.623056 246.012685 
L 452.761749 245.089037 
L 452.901176 247.843056 
L 453.040613 246.92787 
L 453.180082 248.758241 
L 453.319428 245.089037 
L 453.459472 245.089037 
L 453.599099 243.26713 
L 453.878546 246.012685 
L 454.018421 244.182315 
L 454.158368 246.012685 
L 454.298072 241.436759 
L 454.439187 246.92787 
L 454.583252 246.92787 
L 454.723889 248.758241 
L 454.867049 241.436759 
L 455.007464 246.92787 
L 455.146454 245.089037 
L 455.285504 249.673426 
L 455.425223 246.012685 
L 455.564619 248.758241 
L 455.703793 244.182315 
L 455.843798 248.758241 
L 455.984354 246.012685 
L 456.128193 251.503796 
L 456.269772 246.012685 
L 456.547829 249.673426 
L 456.826766 249.673426 
L 456.971883 250.588611 
L 457.262445 245.089037 
L 457.402242 248.758241 
L 457.542865 246.92787 
L 457.684048 248.758241 
L 457.824549 244.182315 
L 457.965851 245.089037 
L 458.107417 245.089037 
L 458.393862 242.351944 
L 458.535851 244.182315 
L 458.68211 244.182315 
L 458.827602 249.673426 
L 458.973014 246.92787 
L 459.117329 248.758241 
L 459.26191 267.97713 
L 459.40737 352.174167 
L 459.552686 352.174167 
L 460.124383 229.539352 
L 460.269119 231.369722 
L 460.414337 229.539352 
L 460.560295 242.351944 
L 460.701873 240.521574 
L 460.846024 246.012685 
L 460.987319 241.436759 
L 461.130844 254.249352 
L 461.277141 247.843056 
L 461.420105 249.673426 
L 461.560812 246.012685 
L 461.70561 251.503796 
L 461.846819 245.089037 
L 461.991123 246.92787 
L 462.134855 244.182315 
L 462.279663 244.182315 
L 462.420951 240.521574 
L 462.561445 244.182315 
L 462.707165 244.182315 
L 462.849875 243.26713 
L 462.993156 246.92787 
L 463.136106 240.521574 
L 463.281395 247.843056 
L 463.422738 239.606389 
L 463.564573 250.588611 
L 463.708332 241.436759 
L 463.847394 250.588611 
L 463.988985 248.758241 
L 464.12935 256.079722 
L 464.270396 247.843056 
L 464.41221 248.758241 
L 464.551291 246.012685 
L 464.691306 253.334167 
L 464.83059 246.92787 
L 464.971241 251.503796 
L 465.116857 246.92787 
L 465.262518 249.673426 
L 465.403681 244.182315 
L 465.546582 245.089037 
L 465.690314 240.521574 
L 465.833212 243.26713 
L 465.975979 242.351944 
L 466.403513 246.92787 
L 466.547743 247.843056 
L 466.686971 241.436759 
L 466.832154 252.418981 
L 466.970279 246.012685 
L 467.108401 249.673426 
L 467.247312 245.089037 
L 467.389179 248.758241 
L 467.52953 246.92787 
L 467.668754 250.588611 
L 467.808059 245.089037 
L 467.947218 249.673426 
L 468.088018 246.92787 
L 468.229103 249.673426 
L 468.368209 245.089037 
L 468.506474 252.418981 
L 468.644763 246.92787 
L 468.787407 246.92787 
L 468.928925 242.351944 
L 469.070286 245.089037 
L 469.209709 243.26713 
L 469.347888 246.012685 
L 469.485762 238.691204 
L 469.630342 246.012685 
L 469.7688 238.691204 
L 469.908443 245.089037 
L 470.18417 242.351944 
L 470.322007 242.351944 
L 470.460442 246.92787 
L 470.598618 245.089037 
L 470.737254 250.588611 
L 470.875262 243.26713 
L 471.013082 246.92787 
L 471.150883 243.26713 
L 471.28865 243.26713 
L 471.430331 247.843056 
L 471.568266 243.26713 
L 471.706417 243.26713 
L 471.987958 249.673426 
L 472.126154 241.436759 
L 472.264588 246.92787 
L 472.402897 244.182315 
L 472.542641 248.758241 
L 472.681973 245.089037 
L 472.826254 352.174167 
L 472.971332 352.174167 
L 473.257098 319.2275 
L 473.686461 233.200093 
L 473.824107 229.539352 
L 473.961896 234.115278 
L 474.099679 231.369722 
L 474.655829 246.012685 
L 474.794071 244.182315 
L 474.932332 246.92787 
L 475.208822 245.089037 
L 475.347065 243.26713 
L 475.485145 243.26713 
L 475.624675 241.436759 
L 475.763087 244.182315 
L 475.900718 244.182315 
L 476.180087 250.588611 
L 476.317692 247.843056 
L 476.45551 248.758241 
L 476.595815 247.843056 
L 476.735298 254.249352 
L 476.873436 249.673426 
L 477.012565 251.503796 
L 477.152535 245.089037 
L 477.292587 250.588611 
L 477.431161 243.26713 
L 477.569152 249.673426 
L 477.706852 242.351944 
L 477.844452 251.503796 
L 477.982225 248.758241 
L 478.119856 254.249352 
L 478.260734 244.182315 
L 478.408072 246.92787 
L 478.555382 242.351944 
L 478.694277 246.92787 
L 478.837119 241.436759 
L 478.975592 246.92787 
L 479.113884 241.436759 
L 479.252463 245.089037 
L 479.39153 241.436759 
L 479.531217 246.92787 
L 479.673729 244.182315 
L 479.812749 252.418981 
L 479.951461 244.182315 
L 480.089459 245.089037 
L 480.22857 245.089037 
L 480.366647 250.588611 
L 480.505492 244.182315 
L 480.649295 247.843056 
L 480.788592 245.089037 
L 480.930168 250.588611 
L 481.361041 246.012685 
L 481.501596 246.92787 
L 481.779936 243.26713 
L 481.919565 246.012685 
L 482.065224 245.089037 
L 482.208045 248.758241 
L 482.347904 243.26713 
L 482.490266 248.758241 
L 482.628778 244.182315 
L 482.769463 248.758241 
L 482.908684 243.26713 
L 483.048508 245.089037 
L 483.187712 242.351944 
L 483.326804 247.843056 
L 483.466125 246.012685 
L 483.61244 246.92787 
L 483.758053 242.351944 
L 483.904869 249.673426 
L 484.049232 245.089037 
L 484.188072 250.588611 
L 484.327865 246.012685 
L 484.467079 246.012685 
L 484.60611 243.26713 
L 484.751058 244.182315 
L 484.892651 241.436759 
L 485.033566 246.012685 
L 485.17328 244.182315 
L 485.732329 247.843056 
L 485.874225 244.182315 
L 486.166535 253.334167 
L 486.312126 352.174167 
L 486.455049 352.174167 
L 486.598384 345.76787 
L 487.016888 229.539352 
L 487.15723 223.133056 
L 487.297678 224.963426 
L 487.439197 224.043405 
L 487.585127 227.708981 
L 487.870416 241.436759 
L 488.010036 238.691204 
L 488.149385 249.673426 
L 488.288729 242.351944 
L 488.429886 249.673426 
L 488.571207 243.26713 
L 488.712212 247.843056 
L 488.859619 244.182315 
L 489.005749 246.012685 
L 489.153361 244.182315 
L 489.297122 246.012685 
L 489.439609 240.521574 
L 490.013464 248.758241 
L 490.159855 244.182315 
L 490.299616 248.758241 
L 490.441844 242.351944 
L 490.585641 246.012685 
L 490.724636 244.182315 
L 490.866122 252.418981 
L 491.006664 244.182315 
L 491.146796 249.673426 
L 491.285397 242.351944 
L 491.428845 250.588611 
L 491.573338 242.351944 
L 491.716776 247.843056 
L 491.859763 240.521574 
L 491.998555 249.673426 
L 492.137244 241.436759 
L 492.275872 247.843056 
L 492.559876 243.26713 
L 492.84989 246.012685 
L 492.99163 244.182315 
L 493.1351 239.606389 
L 493.273768 246.92787 
L 493.412274 244.182315 
L 493.550722 250.588611 
L 493.68907 239.606389 
L 493.832538 248.758241 
L 493.97844 244.182315 
L 494.11748 247.843056 
L 494.260447 245.089037 
L 494.40119 246.851706 
L 494.540412 244.182315 
L 494.679871 246.012685 
L 494.820588 245.089037 
L 494.960283 249.673426 
L 495.101045 244.182315 
L 495.241021 249.673426 
L 495.536188 246.012685 
L 495.684023 246.92787 
L 495.831378 245.089037 
L 495.976501 246.92787 
L 496.115719 243.26713 
L 496.258058 247.843056 
L 496.400192 242.351944 
L 496.540349 249.673426 
L 496.683922 247.843056 
L 496.824381 243.26713 
L 496.965298 246.012685 
L 497.106472 245.072112 
L 497.245248 246.92787 
L 497.524465 243.26713 
L 497.663964 246.92787 
L 497.806046 246.92787 
L 497.949818 247.843056 
L 498.094812 243.26713 
L 498.238653 248.758241 
L 498.377318 242.351944 
L 498.519226 251.503796 
L 498.663659 240.521574 
L 498.8058 248.758241 
L 498.951468 243.26713 
L 499.091108 246.012685 
L 499.23564 242.351944 
L 499.520661 247.843056 
L 499.80522 352.174167 
L 499.950276 352.174167 
L 500.095893 341.191944 
L 500.383793 282.620093 
L 500.675753 231.369722 
L 500.821553 230.454537 
L 500.967758 228.624167 
L 501.256093 238.691204 
L 501.394974 235.945648 
L 501.535488 248.758241 
L 501.674456 248.758241 
L 501.815613 249.673426 
L 501.955958 251.503796 
L 502.10017 251.503796 
L 502.381941 256.079722 
L 502.525001 251.503796 
L 502.668212 261.570833 
L 502.811507 258.825278 
L 503.093271 250.588611 
L 503.239393 256.994907 
L 503.381069 250.588611 
L 503.521872 253.334167 
L 503.66625 241.436759 
L 503.807953 262.486019 
L 503.94964 249.673426 
L 504.093189 260.655648 
L 504.234561 244.182315 
L 504.376647 251.503796 
L 504.522183 242.351944 
L 504.666523 251.503796 
L 504.811189 246.012685 
L 504.956397 251.503796 
L 505.101801 250.588611 
L 505.242374 251.503796 
L 505.383513 255.164537 
L 505.524258 249.673426 
L 505.665606 251.503796 
L 505.805584 247.843056 
L 505.943515 257.910093 
L 506.087872 250.588611 
L 506.226167 254.249352 
L 506.364743 249.673426 
L 506.510901 252.418981 
L 506.654419 242.351944 
L 506.795001 250.588611 
L 506.936559 244.182315 
L 507.080934 256.079722 
L 507.21989 244.182315 
L 507.359078 256.994907 
L 507.501131 247.843056 
L 507.639985 253.334167 
L 507.781132 243.26713 
L 507.920087 247.843056 
L 508.060659 241.436759 
L 508.199042 248.758241 
L 508.340657 245.089037 
L 508.485897 251.503796 
L 508.631011 249.673426 
L 508.772641 253.334167 
L 508.911963 249.673426 
L 509.191513 251.503796 
L 509.334169 248.758241 
L 509.474856 249.673426 
L 509.619271 248.758241 
L 509.762498 250.588611 
L 509.908095 248.758241 
L 510.048463 253.334167 
L 510.190967 247.843056 
L 510.335755 254.249352 
L 510.479171 245.089037 
L 510.619545 253.334167 
L 510.76399 244.182315 
L 510.903575 253.334167 
L 511.046154 246.92787 
L 511.184942 246.92787 
L 511.32528 247.843056 
L 511.466827 252.418981 
L 511.605087 246.012685 
L 511.743505 250.588611 
L 511.882543 247.843056 
L 512.022683 253.334167 
L 512.16188 246.92787 
L 512.302058 256.079722 
L 512.447275 246.012685 
L 512.589384 251.503796 
L 512.730339 247.843056 
L 512.874494 251.503796 
L 513.019408 250.588611 
L 513.162537 334.785648 
L 513.304661 352.174167 
L 513.450031 352.174167 
L 514.156975 230.454537 
L 514.438163 230.454537 
L 514.581235 234.115278 
L 514.723796 234.115278 
L 514.866272 235.945648 
L 515.148837 245.089037 
L 515.288734 247.843056 
L 515.428678 246.012685 
L 515.569346 246.012685 
L 515.712209 240.521574 
L 515.852127 249.673426 
L 515.994057 243.26713 
L 516.136884 246.92787 
L 516.279831 242.351944 
L 516.421855 244.182315 
L 516.560391 243.26713 
L 516.700007 246.012685 
L 516.840327 246.012685 
L 516.980517 239.606389 
L 517.263496 243.26713 
L 517.406144 241.436759 
L 517.546604 243.26713 
L 517.687423 241.436759 
L 517.82905 246.012685 
L 517.971109 245.089037 
L 518.113557 243.26713 
L 518.256199 243.26713 
L 518.398086 244.182315 
L 518.538821 241.436759 
L 518.822985 246.92787 
L 519.109529 245.089037 
L 519.249446 240.521574 
L 519.388292 246.012685 
L 519.528301 244.182315 
L 519.668711 249.673426 
L 519.811836 245.089037 
L 519.951965 249.673426 
L 520.094112 242.351944 
L 520.237744 244.182315 
L 520.38128 241.436759 
L 520.52388 246.92787 
L 520.66334 241.436759 
L 520.803624 241.436759 
L 520.942171 245.089037 
L 521.080447 244.182315 
L 521.222598 246.012685 
L 521.364488 245.089037 
L 521.50446 239.606389 
L 521.649723 240.521574 
L 521.649723 240.521574 
" style="fill:none;stroke:#1f77b4;stroke-linecap:square;stroke-width:1.5;"/>
   </g>
   <g id="patch_3">
    <path d="M 120.878594 352.174167 
L 120.878594 35.0625 
" style="fill:none;stroke:#000000;stroke-linecap:square;stroke-linejoin:miter;stroke-width:0.8;"/>
   </g>
   <g id="patch_4">
    <path d="M 540.734062 352.174167 
L 540.734062 35.0625 
" style="fill:none;stroke:#000000;stroke-linecap:square;stroke-linejoin:miter;stroke-width:0.8;"/>
   </g>
   <g id="patch_5">
    <path d="M 120.878594 352.174167 
L 540.734062 352.174167 
" style="fill:none;stroke:#000000;stroke-linecap:square;stroke-linejoin:miter;stroke-width:0.8;"/>
   </g>
   <g id="patch_6">
    <path d="M 120.878594 35.0625 
L 540.734062 35.0625 
" style="fill:none;stroke:#000000;stroke-linecap:square;stroke-linejoin:miter;stroke-width:0.8;"/>
   </g>
   <g id="legend_1">
    <g id="patch_7">
     <path d="M 563.726836 63.938438 
L 627.601836 63.938438 
Q 629.601836 63.938438 629.601836 61.938438 
L 629.601836 37.0625 
Q 629.601836 35.0625 627.601836 35.0625 
L 563.726836 35.0625 
Q 561.726836 35.0625 561.726836 37.0625 
L 561.726836 61.938438 
Q 561.726836 63.938438 563.726836 63.938438 
z
" style="fill:#ffffff;opacity:0.8;stroke:#cccccc;stroke-linejoin:miter;"/>
    </g>
    <g id="line2d_15">
     <path d="M 565.726836 49.799688 
L 585.726836 49.799688 
" style="fill:none;stroke:#1f77b4;stroke-linecap:square;stroke-width:1.5;"/>
    </g>
    <g id="line2d_16"/>
    <g id="text_15">
     <!-- queue -->
     <g transform="translate(593.726836 46.660937)scale(0.1 -0.1)">
      <use xlink:href="#DejaVuSans-113"/>
      <use x="63.476562" xlink:href="#DejaVuSans-117"/>
      <use x="126.855469" xlink:href="#DejaVuSans-101"/>
      <use x="188.378906" xlink:href="#DejaVuSans-117"/>
      <use x="251.757812" xlink:href="#DejaVuSans-101"/>
     </g>
     <!-- length -->
     <defs>
      <path d="M 9.421875 75.984375 
L 18.40625 75.984375 
L 18.40625 0 
L 9.421875 0 
z
" id="DejaVuSans-108"/>
      <path d="M 54.890625 33.015625 
L 54.890625 0 
L 45.90625 0 
L 45.90625 32.71875 
Q 45.90625 40.484375 42.875 44.328125 
Q 39.84375 48.1875 33.796875 48.1875 
Q 26.515625 48.1875 22.3125 43.546875 
Q 18.109375 38.921875 18.109375 30.90625 
L 18.109375 0 
L 9.078125 0 
L 9.078125 54.6875 
L 18.109375 54.6875 
L 18.109375 46.1875 
Q 21.34375 51.125 25.703125 53.5625 
Q 30.078125 56 35.796875 56 
Q 45.21875 56 50.046875 50.171875 
Q 54.890625 44.34375 54.890625 33.015625 
z
" id="DejaVuSans-110"/>
      <path d="M 45.40625 27.984375 
Q 45.40625 37.75 41.375 43.109375 
Q 37.359375 48.484375 30.078125 48.484375 
Q 22.859375 48.484375 18.828125 43.109375 
Q 14.796875 37.75 14.796875 27.984375 
Q 14.796875 18.265625 18.828125 12.890625 
Q 22.859375 7.515625 30.078125 7.515625 
Q 37.359375 7.515625 41.375 12.890625 
Q 45.40625 18.265625 45.40625 27.984375 
z
M 54.390625 6.78125 
Q 54.390625 -7.171875 48.1875 -13.984375 
Q 42 -20.796875 29.203125 -20.796875 
Q 24.46875 -20.796875 20.265625 -20.09375 
Q 16.0625 -19.390625 12.109375 -17.921875 
L 12.109375 -9.1875 
Q 16.0625 -11.328125 19.921875 -12.34375 
Q 23.78125 -13.375 27.78125 -13.375 
Q 36.625 -13.375 41.015625 -8.765625 
Q 45.40625 -4.15625 45.40625 5.171875 
L 45.40625 9.625 
Q 42.625 4.78125 38.28125 2.390625 
Q 33.9375 0 27.875 0 
Q 17.828125 0 11.671875 7.65625 
Q 5.515625 15.328125 5.515625 27.984375 
Q 5.515625 40.671875 11.671875 48.328125 
Q 17.828125 56 27.875 56 
Q 33.9375 56 38.28125 53.609375 
Q 42.625 51.21875 45.40625 46.390625 
L 45.40625 54.6875 
L 54.390625 54.6875 
z
" id="DejaVuSans-103"/>
      <path d="M 54.890625 33.015625 
L 54.890625 0 
L 45.90625 0 
L 45.90625 32.71875 
Q 45.90625 40.484375 42.875 44.328125 
Q 39.84375 48.1875 33.796875 48.1875 
Q 26.515625 48.1875 22.3125 43.546875 
Q 18.109375 38.921875 18.109375 30.90625 
L 18.109375 0 
L 9.078125 0 
L 9.078125 75.984375 
L 18.109375 75.984375 
L 18.109375 46.1875 
Q 21.34375 51.125 25.703125 53.5625 
Q 30.078125 56 35.796875 56 
Q 45.21875 56 50.046875 50.171875 
Q 54.890625 44.34375 54.890625 33.015625 
z
" id="DejaVuSans-104"/>
     </defs>
     <g transform="translate(593.726836 57.85875)scale(0.1 -0.1)">
      <use xlink:href="#DejaVuSans-108"/>
      <use x="27.783203" xlink:href="#DejaVuSans-101"/>
      <use x="89.306641" xlink:href="#DejaVuSans-110"/>
      <use x="152.685547" xlink:href="#DejaVuSans-103"/>
      <use x="216.162109" xlink:href="#DejaVuSans-116"/>
      <use x="255.371094" xlink:href="#DejaVuSans-104"/>
     </g>
    </g>
   </g>
  </g>
  <g id="text_16">
   <!-- result queue (bytes) -->
   <defs>
    <path d="M 41.109375 46.296875 
Q 39.59375 47.171875 37.8125 47.578125 
Q 36.03125 48 33.890625 48 
Q 26.265625 48 22.1875 43.046875 
Q 18.109375 38.09375 18.109375 28.8125 
L 18.109375 0 
L 9.078125 0 
L 9.078125 54.6875 
L 18.109375 54.6875 
L 18.109375 46.1875 
Q 20.953125 51.171875 25.484375 53.578125 
Q 30.03125 56 36.53125 56 
Q 37.453125 56 38.578125 55.875 
Q 39.703125 55.765625 41.0625 55.515625 
z
" id="DejaVuSans-114"/>
    <path id="DejaVuSans-32"/>
   </defs>
   <g transform="translate(281.072812 17.038125)scale(0.12 -0.12)">
    <use xlink:href="#DejaVuSans-114"/>
    <use x="41.082031" xlink:href="#DejaVuSans-101"/>
    <use x="102.605469" xlink:href="#DejaVuSans-115"/>
    <use x="154.705078" xlink:href="#DejaVuSans-117"/>
    <use x="218.083984" xlink:href="#DejaVuSans-108"/>
    <use x="245.867188" xlink:href="#DejaVuSans-116"/>
    <use x="285.076172" xlink:href="#DejaVuSans-32"/>
    <use x="316.863281" xlink:href="#DejaVuSans-113"/>
    <use x="380.339844" xlink:href="#DejaVuSans-117"/>
    <use x="443.71875" xlink:href="#DejaVuSans-101"/>
    <use x="505.242188" xlink:href="#DejaVuSans-117"/>
    <use x="568.621094" xlink:href="#DejaVuSans-101"/>
    <use x="630.144531" xlink:href="#DejaVuSans-32"/>
    <use x="661.931641" xlink:href="#DejaVuSans-40"/>
    <use x="700.945312" xlink:href="#DejaVuSans-98"/>
    <use x="764.421875" xlink:href="#DejaVuSans-121"/>
    <use x="823.601562" xlink:href="#DejaVuSans-116"/>
    <use x="862.810547" xlink:href="#DejaVuSans-101"/>
    <use x="924.333984" xlink:href="#DejaVuSans-115"/>
    <use x="976.433594" xlink:href="#DejaVuSans-41"/>
   </g>
  </g>
 </g>
 <defs>
  <clipPath id="p3154cb1f4f">
   <rect height="317.111667" width="419.855469" x="120.878594" y="35.0625"/>
  </clipPath>
 </defs>
</svg>
