<?xml version="1.0" encoding="utf-8" standalone="no"?>
<!DOCTYPE svg PUBLIC "-//W3C//DTD SVG 1.1//EN"
  "http://www.w3.org/Graphics/SVG/1.1/DTD/svg11.dtd">
<!-- Created with matplotlib (https://matplotlib.org/) -->
<svg height="396pt" version="1.1" viewBox="0 0 684 396" width="684pt" xmlns="http://www.w3.org/2000/svg" xmlns:xlink="http://www.w3.org/1999/xlink">
 <defs>
  <style type="text/css">
*{stroke-linecap:butt;stroke-linejoin:round;}
  </style>
 </defs>
 <g id="figure_1">
  <g id="patch_1">
   <path d="M 0 396 
L 684 396 
L 684 0 
L 0 0 
z
" style="fill:#ffffff;"/>
  </g>
  <g id="axes_1">
   <g id="patch_2">
    <path d="M 120.878594 352.174167 
L 540.734062 352.174167 
L 540.734062 35.0625 
L 120.878594 35.0625 
z
" style="fill:#ffffff;"/>
   </g>
   <g id="matplotlib.axis_1">
    <g id="xtick_1">
     <g id="line2d_1">
      <defs>
       <path d="M 0 0 
L 0 3.5 
" id="mf3adb67675" style="stroke:#000000;stroke-width:0.8;"/>
      </defs>
      <g>
       <use style="stroke:#000000;stroke-width:0.8;" x="143.81372" xlink:href="#mf3adb67675" y="352.174167"/>
      </g>
     </g>
     <g id="text_1">
      <!-- 0 -->
      <defs>
       <path d="M 31.78125 66.40625 
Q 24.171875 66.40625 20.328125 58.90625 
Q 16.5 51.421875 16.5 36.375 
Q 16.5 21.390625 20.328125 13.890625 
Q 24.171875 6.390625 31.78125 6.390625 
Q 39.453125 6.390625 43.28125 13.890625 
Q 47.125 21.390625 47.125 36.375 
Q 47.125 51.421875 43.28125 58.90625 
Q 39.453125 66.40625 31.78125 66.40625 
z
M 31.78125 74.21875 
Q 44.046875 74.21875 50.515625 64.515625 
Q 56.984375 54.828125 56.984375 36.375 
Q 56.984375 17.96875 50.515625 8.265625 
Q 44.046875 -1.421875 31.78125 -1.421875 
Q 19.53125 -1.421875 13.0625 8.265625 
Q 6.59375 17.96875 6.59375 36.375 
Q 6.59375 54.828125 13.0625 64.515625 
Q 19.53125 74.21875 31.78125 74.21875 
z
" id="DejaVuSans-48"/>
      </defs>
      <g transform="translate(140.63247 366.772604)scale(0.1 -0.1)">
       <use xlink:href="#DejaVuSans-48"/>
      </g>
     </g>
    </g>
    <g id="xtick_2">
     <g id="line2d_2">
      <g>
       <use style="stroke:#000000;stroke-width:0.8;" x="210.396179" xlink:href="#mf3adb67675" y="352.174167"/>
      </g>
     </g>
     <g id="text_2">
      <!-- 50 -->
      <defs>
       <path d="M 10.796875 72.90625 
L 49.515625 72.90625 
L 49.515625 64.59375 
L 19.828125 64.59375 
L 19.828125 46.734375 
Q 21.96875 47.46875 24.109375 47.828125 
Q 26.265625 48.1875 28.421875 48.1875 
Q 40.625 48.1875 47.75 41.5 
Q 54.890625 34.8125 54.890625 23.390625 
Q 54.890625 11.625 47.5625 5.09375 
Q 40.234375 -1.421875 26.90625 -1.421875 
Q 22.3125 -1.421875 17.546875 -0.640625 
Q 12.796875 0.140625 7.71875 1.703125 
L 7.71875 11.625 
Q 12.109375 9.234375 16.796875 8.0625 
Q 21.484375 6.890625 26.703125 6.890625 
Q 35.15625 6.890625 40.078125 11.328125 
Q 45.015625 15.765625 45.015625 23.390625 
Q 45.015625 31 40.078125 35.4375 
Q 35.15625 39.890625 26.703125 39.890625 
Q 22.75 39.890625 18.8125 39.015625 
Q 14.890625 38.140625 10.796875 36.28125 
z
" id="DejaVuSans-53"/>
      </defs>
      <g transform="translate(204.033679 366.772604)scale(0.1 -0.1)">
       <use xlink:href="#DejaVuSans-53"/>
       <use x="63.623047" xlink:href="#DejaVuSans-48"/>
      </g>
     </g>
    </g>
    <g id="xtick_3">
     <g id="line2d_3">
      <g>
       <use style="stroke:#000000;stroke-width:0.8;" x="276.978637" xlink:href="#mf3adb67675" y="352.174167"/>
      </g>
     </g>
     <g id="text_3">
      <!-- 100 -->
      <defs>
       <path d="M 12.40625 8.296875 
L 28.515625 8.296875 
L 28.515625 63.921875 
L 10.984375 60.40625 
L 10.984375 69.390625 
L 28.421875 72.90625 
L 38.28125 72.90625 
L 38.28125 8.296875 
L 54.390625 8.296875 
L 54.390625 0 
L 12.40625 0 
z
" id="DejaVuSans-49"/>
      </defs>
      <g transform="translate(267.434887 366.772604)scale(0.1 -0.1)">
       <use xlink:href="#DejaVuSans-49"/>
       <use x="63.623047" xlink:href="#DejaVuSans-48"/>
       <use x="127.246094" xlink:href="#DejaVuSans-48"/>
      </g>
     </g>
    </g>
    <g id="xtick_4">
     <g id="line2d_4">
      <g>
       <use style="stroke:#000000;stroke-width:0.8;" x="343.561096" xlink:href="#mf3adb67675" y="352.174167"/>
      </g>
     </g>
     <g id="text_4">
      <!-- 150 -->
      <g transform="translate(334.017346 366.772604)scale(0.1 -0.1)">
       <use xlink:href="#DejaVuSans-49"/>
       <use x="63.623047" xlink:href="#DejaVuSans-53"/>
       <use x="127.246094" xlink:href="#DejaVuSans-48"/>
      </g>
     </g>
    </g>
    <g id="xtick_5">
     <g id="line2d_5">
      <g>
       <use style="stroke:#000000;stroke-width:0.8;" x="410.143555" xlink:href="#mf3adb67675" y="352.174167"/>
      </g>
     </g>
     <g id="text_5">
      <!-- 200 -->
      <defs>
       <path d="M 19.1875 8.296875 
L 53.609375 8.296875 
L 53.609375 0 
L 7.328125 0 
L 7.328125 8.296875 
Q 12.9375 14.109375 22.625 23.890625 
Q 32.328125 33.6875 34.8125 36.53125 
Q 39.546875 41.84375 41.421875 45.53125 
Q 43.3125 49.21875 43.3125 52.78125 
Q 43.3125 58.59375 39.234375 62.25 
Q 35.15625 65.921875 28.609375 65.921875 
Q 23.96875 65.921875 18.8125 64.3125 
Q 13.671875 62.703125 7.8125 59.421875 
L 7.8125 69.390625 
Q 13.765625 71.78125 18.9375 73 
Q 24.125 74.21875 28.421875 74.21875 
Q 39.75 74.21875 46.484375 68.546875 
Q 53.21875 62.890625 53.21875 53.421875 
Q 53.21875 48.921875 51.53125 44.890625 
Q 49.859375 40.875 45.40625 35.40625 
Q 44.1875 33.984375 37.640625 27.21875 
Q 31.109375 20.453125 19.1875 8.296875 
z
" id="DejaVuSans-50"/>
      </defs>
      <g transform="translate(400.599805 366.772604)scale(0.1 -0.1)">
       <use xlink:href="#DejaVuSans-50"/>
       <use x="63.623047" xlink:href="#DejaVuSans-48"/>
       <use x="127.246094" xlink:href="#DejaVuSans-48"/>
      </g>
     </g>
    </g>
    <g id="xtick_6">
     <g id="line2d_6">
      <g>
       <use style="stroke:#000000;stroke-width:0.8;" x="476.726014" xlink:href="#mf3adb67675" y="352.174167"/>
      </g>
     </g>
     <g id="text_6">
      <!-- 250 -->
      <g transform="translate(467.182264 366.772604)scale(0.1 -0.1)">
       <use xlink:href="#DejaVuSans-50"/>
       <use x="63.623047" xlink:href="#DejaVuSans-53"/>
       <use x="127.246094" xlink:href="#DejaVuSans-48"/>
      </g>
     </g>
    </g>
   </g>
   <g id="matplotlib.axis_2">
    <g id="ytick_1">
     <g id="line2d_7">
      <defs>
       <path d="M 0 0 
L -3.5 0 
" id="m58f5c3f815" style="stroke:#000000;stroke-width:0.8;"/>
      </defs>
      <g>
       <use style="stroke:#000000;stroke-width:0.8;" x="120.878594" xlink:href="#m58f5c3f815" y="352.174167"/>
      </g>
     </g>
     <g id="text_7">
      <!-- 0 -->
      <g transform="translate(107.516094 355.973385)scale(0.1 -0.1)">
       <use xlink:href="#DejaVuSans-48"/>
      </g>
     </g>
    </g>
    <g id="ytick_2">
     <g id="line2d_8">
      <g>
       <use style="stroke:#000000;stroke-width:0.8;" x="120.878594" xlink:href="#m58f5c3f815" y="287.826122"/>
      </g>
     </g>
     <g id="text_8">
      <!-- 100000 -->
      <g transform="translate(75.703594 291.625341)scale(0.1 -0.1)">
       <use xlink:href="#DejaVuSans-49"/>
       <use x="63.623047" xlink:href="#DejaVuSans-48"/>
       <use x="127.246094" xlink:href="#DejaVuSans-48"/>
       <use x="190.869141" xlink:href="#DejaVuSans-48"/>
       <use x="254.492188" xlink:href="#DejaVuSans-48"/>
       <use x="318.115234" xlink:href="#DejaVuSans-48"/>
      </g>
     </g>
    </g>
    <g id="ytick_3">
     <g id="line2d_9">
      <g>
       <use style="stroke:#000000;stroke-width:0.8;" x="120.878594" xlink:href="#m58f5c3f815" y="223.478078"/>
      </g>
     </g>
     <g id="text_9">
      <!-- 200000 -->
      <g transform="translate(75.703594 227.277297)scale(0.1 -0.1)">
       <use xlink:href="#DejaVuSans-50"/>
       <use x="63.623047" xlink:href="#DejaVuSans-48"/>
       <use x="127.246094" xlink:href="#DejaVuSans-48"/>
       <use x="190.869141" xlink:href="#DejaVuSans-48"/>
       <use x="254.492188" xlink:href="#DejaVuSans-48"/>
       <use x="318.115234" xlink:href="#DejaVuSans-48"/>
      </g>
     </g>
    </g>
    <g id="ytick_4">
     <g id="line2d_10">
      <g>
       <use style="stroke:#000000;stroke-width:0.8;" x="120.878594" xlink:href="#m58f5c3f815" y="159.130034"/>
      </g>
     </g>
     <g id="text_10">
      <!-- 300000 -->
      <defs>
       <path d="M 40.578125 39.3125 
Q 47.65625 37.796875 51.625 33 
Q 55.609375 28.21875 55.609375 21.1875 
Q 55.609375 10.40625 48.1875 4.484375 
Q 40.765625 -1.421875 27.09375 -1.421875 
Q 22.515625 -1.421875 17.65625 -0.515625 
Q 12.796875 0.390625 7.625 2.203125 
L 7.625 11.71875 
Q 11.71875 9.328125 16.59375 8.109375 
Q 21.484375 6.890625 26.8125 6.890625 
Q 36.078125 6.890625 40.9375 10.546875 
Q 45.796875 14.203125 45.796875 21.1875 
Q 45.796875 27.640625 41.28125 31.265625 
Q 36.765625 34.90625 28.71875 34.90625 
L 20.21875 34.90625 
L 20.21875 43.015625 
L 29.109375 43.015625 
Q 36.375 43.015625 40.234375 45.921875 
Q 44.09375 48.828125 44.09375 54.296875 
Q 44.09375 59.90625 40.109375 62.90625 
Q 36.140625 65.921875 28.71875 65.921875 
Q 24.65625 65.921875 20.015625 65.03125 
Q 15.375 64.15625 9.8125 62.3125 
L 9.8125 71.09375 
Q 15.4375 72.65625 20.34375 73.4375 
Q 25.25 74.21875 29.59375 74.21875 
Q 40.828125 74.21875 47.359375 69.109375 
Q 53.90625 64.015625 53.90625 55.328125 
Q 53.90625 49.265625 50.4375 45.09375 
Q 46.96875 40.921875 40.578125 39.3125 
z
" id="DejaVuSans-51"/>
      </defs>
      <g transform="translate(75.703594 162.929253)scale(0.1 -0.1)">
       <use xlink:href="#DejaVuSans-51"/>
       <use x="63.623047" xlink:href="#DejaVuSans-48"/>
       <use x="127.246094" xlink:href="#DejaVuSans-48"/>
       <use x="190.869141" xlink:href="#DejaVuSans-48"/>
       <use x="254.492188" xlink:href="#DejaVuSans-48"/>
       <use x="318.115234" xlink:href="#DejaVuSans-48"/>
      </g>
     </g>
    </g>
    <g id="ytick_5">
     <g id="line2d_11">
      <g>
       <use style="stroke:#000000;stroke-width:0.8;" x="120.878594" xlink:href="#m58f5c3f815" y="94.781989"/>
      </g>
     </g>
     <g id="text_11">
      <!-- 400000 -->
      <defs>
       <path d="M 37.796875 64.3125 
L 12.890625 25.390625 
L 37.796875 25.390625 
z
M 35.203125 72.90625 
L 47.609375 72.90625 
L 47.609375 25.390625 
L 58.015625 25.390625 
L 58.015625 17.1875 
L 47.609375 17.1875 
L 47.609375 0 
L 37.796875 0 
L 37.796875 17.1875 
L 4.890625 17.1875 
L 4.890625 26.703125 
z
" id="DejaVuSans-52"/>
      </defs>
      <g transform="translate(75.703594 98.581208)scale(0.1 -0.1)">
       <use xlink:href="#DejaVuSans-52"/>
       <use x="63.623047" xlink:href="#DejaVuSans-48"/>
       <use x="127.246094" xlink:href="#DejaVuSans-48"/>
       <use x="190.869141" xlink:href="#DejaVuSans-48"/>
       <use x="254.492188" xlink:href="#DejaVuSans-48"/>
       <use x="318.115234" xlink:href="#DejaVuSans-48"/>
      </g>
     </g>
    </g>
    <g id="text_12">
     <!-- queue -->
     <defs>
      <path d="M 14.796875 27.296875 
Q 14.796875 17.390625 18.875 11.75 
Q 22.953125 6.109375 30.078125 6.109375 
Q 37.203125 6.109375 41.296875 11.75 
Q 45.40625 17.390625 45.40625 27.296875 
Q 45.40625 37.203125 41.296875 42.84375 
Q 37.203125 48.484375 30.078125 48.484375 
Q 22.953125 48.484375 18.875 42.84375 
Q 14.796875 37.203125 14.796875 27.296875 
z
M 45.40625 8.203125 
Q 42.578125 3.328125 38.25 0.953125 
Q 33.9375 -1.421875 27.875 -1.421875 
Q 17.96875 -1.421875 11.734375 6.484375 
Q 5.515625 14.40625 5.515625 27.296875 
Q 5.515625 40.1875 11.734375 48.09375 
Q 17.96875 56 27.875 56 
Q 33.9375 56 38.25 53.625 
Q 42.578125 51.265625 45.40625 46.390625 
L 45.40625 54.6875 
L 54.390625 54.6875 
L 54.390625 -20.796875 
L 45.40625 -20.796875 
z
" id="DejaVuSans-113"/>
      <path d="M 8.5 21.578125 
L 8.5 54.6875 
L 17.484375 54.6875 
L 17.484375 21.921875 
Q 17.484375 14.15625 20.5 10.265625 
Q 23.53125 6.390625 29.59375 6.390625 
Q 36.859375 6.390625 41.078125 11.03125 
Q 45.3125 15.671875 45.3125 23.6875 
L 45.3125 54.6875 
L 54.296875 54.6875 
L 54.296875 0 
L 45.3125 0 
L 45.3125 8.40625 
Q 42.046875 3.421875 37.71875 1 
Q 33.40625 -1.421875 27.6875 -1.421875 
Q 18.265625 -1.421875 13.375 4.4375 
Q 8.5 10.296875 8.5 21.578125 
z
M 31.109375 56 
z
" id="DejaVuSans-117"/>
      <path d="M 56.203125 29.59375 
L 56.203125 25.203125 
L 14.890625 25.203125 
Q 15.484375 15.921875 20.484375 11.0625 
Q 25.484375 6.203125 34.421875 6.203125 
Q 39.59375 6.203125 44.453125 7.46875 
Q 49.3125 8.734375 54.109375 11.28125 
L 54.109375 2.78125 
Q 49.265625 0.734375 44.1875 -0.34375 
Q 39.109375 -1.421875 33.890625 -1.421875 
Q 20.796875 -1.421875 13.15625 6.1875 
Q 5.515625 13.8125 5.515625 26.8125 
Q 5.515625 40.234375 12.765625 48.109375 
Q 20.015625 56 32.328125 56 
Q 43.359375 56 49.78125 48.890625 
Q 56.203125 41.796875 56.203125 29.59375 
z
M 47.21875 32.234375 
Q 47.125 39.59375 43.09375 43.984375 
Q 39.0625 48.390625 32.421875 48.390625 
Q 24.90625 48.390625 20.390625 44.140625 
Q 15.875 39.890625 15.1875 32.171875 
z
" id="DejaVuSans-101"/>
     </defs>
     <g transform="translate(58.426094 209.283177)rotate(-90)scale(0.1 -0.1)">
      <use xlink:href="#DejaVuSans-113"/>
      <use x="63.476562" xlink:href="#DejaVuSans-117"/>
      <use x="126.855469" xlink:href="#DejaVuSans-101"/>
      <use x="188.378906" xlink:href="#DejaVuSans-117"/>
      <use x="251.757812" xlink:href="#DejaVuSans-101"/>
     </g>
     <!-- (bytes) -->
     <defs>
      <path d="M 31 75.875 
Q 24.46875 64.65625 21.28125 53.65625 
Q 18.109375 42.671875 18.109375 31.390625 
Q 18.109375 20.125 21.3125 9.0625 
Q 24.515625 -2 31 -13.1875 
L 23.1875 -13.1875 
Q 15.875 -1.703125 12.234375 9.375 
Q 8.59375 20.453125 8.59375 31.390625 
Q 8.59375 42.28125 12.203125 53.3125 
Q 15.828125 64.359375 23.1875 75.875 
z
" id="DejaVuSans-40"/>
      <path d="M 48.6875 27.296875 
Q 48.6875 37.203125 44.609375 42.84375 
Q 40.53125 48.484375 33.40625 48.484375 
Q 26.265625 48.484375 22.1875 42.84375 
Q 18.109375 37.203125 18.109375 27.296875 
Q 18.109375 17.390625 22.1875 11.75 
Q 26.265625 6.109375 33.40625 6.109375 
Q 40.53125 6.109375 44.609375 11.75 
Q 48.6875 17.390625 48.6875 27.296875 
z
M 18.109375 46.390625 
Q 20.953125 51.265625 25.265625 53.625 
Q 29.59375 56 35.59375 56 
Q 45.5625 56 51.78125 48.09375 
Q 58.015625 40.1875 58.015625 27.296875 
Q 58.015625 14.40625 51.78125 6.484375 
Q 45.5625 -1.421875 35.59375 -1.421875 
Q 29.59375 -1.421875 25.265625 0.953125 
Q 20.953125 3.328125 18.109375 8.203125 
L 18.109375 0 
L 9.078125 0 
L 9.078125 75.984375 
L 18.109375 75.984375 
z
" id="DejaVuSans-98"/>
      <path d="M 32.171875 -5.078125 
Q 28.375 -14.84375 24.75 -17.8125 
Q 21.140625 -20.796875 15.09375 -20.796875 
L 7.90625 -20.796875 
L 7.90625 -13.28125 
L 13.1875 -13.28125 
Q 16.890625 -13.28125 18.9375 -11.515625 
Q 21 -9.765625 23.484375 -3.21875 
L 25.09375 0.875 
L 2.984375 54.6875 
L 12.5 54.6875 
L 29.59375 11.921875 
L 46.6875 54.6875 
L 56.203125 54.6875 
z
" id="DejaVuSans-121"/>
      <path d="M 18.3125 70.21875 
L 18.3125 54.6875 
L 36.8125 54.6875 
L 36.8125 47.703125 
L 18.3125 47.703125 
L 18.3125 18.015625 
Q 18.3125 11.328125 20.140625 9.421875 
Q 21.96875 7.515625 27.59375 7.515625 
L 36.8125 7.515625 
L 36.8125 0 
L 27.59375 0 
Q 17.1875 0 13.234375 3.875 
Q 9.28125 7.765625 9.28125 18.015625 
L 9.28125 47.703125 
L 2.6875 47.703125 
L 2.6875 54.6875 
L 9.28125 54.6875 
L 9.28125 70.21875 
z
" id="DejaVuSans-116"/>
      <path d="M 44.28125 53.078125 
L 44.28125 44.578125 
Q 40.484375 46.53125 36.375 47.5 
Q 32.28125 48.484375 27.875 48.484375 
Q 21.1875 48.484375 17.84375 46.4375 
Q 14.5 44.390625 14.5 40.28125 
Q 14.5 37.15625 16.890625 35.375 
Q 19.28125 33.59375 26.515625 31.984375 
L 29.59375 31.296875 
Q 39.15625 29.25 43.1875 25.515625 
Q 47.21875 21.78125 47.21875 15.09375 
Q 47.21875 7.46875 41.1875 3.015625 
Q 35.15625 -1.421875 24.609375 -1.421875 
Q 20.21875 -1.421875 15.453125 -0.5625 
Q 10.6875 0.296875 5.421875 2 
L 5.421875 11.28125 
Q 10.40625 8.6875 15.234375 7.390625 
Q 20.0625 6.109375 24.8125 6.109375 
Q 31.15625 6.109375 34.5625 8.28125 
Q 37.984375 10.453125 37.984375 14.40625 
Q 37.984375 18.0625 35.515625 20.015625 
Q 33.0625 21.96875 24.703125 23.78125 
L 21.578125 24.515625 
Q 13.234375 26.265625 9.515625 29.90625 
Q 5.8125 33.546875 5.8125 39.890625 
Q 5.8125 47.609375 11.28125 51.796875 
Q 16.75 56 26.8125 56 
Q 31.78125 56 36.171875 55.265625 
Q 40.578125 54.546875 44.28125 53.078125 
z
" id="DejaVuSans-115"/>
      <path d="M 8.015625 75.875 
L 15.828125 75.875 
Q 23.140625 64.359375 26.78125 53.3125 
Q 30.421875 42.28125 30.421875 31.390625 
Q 30.421875 20.453125 26.78125 9.375 
Q 23.140625 -1.703125 15.828125 -13.1875 
L 8.015625 -13.1875 
Q 14.5 -2 17.703125 9.0625 
Q 20.90625 20.125 20.90625 31.390625 
Q 20.90625 42.671875 17.703125 53.65625 
Q 14.5 64.65625 8.015625 75.875 
z
" id="DejaVuSans-41"/>
     </defs>
     <g transform="translate(69.623906 211.294896)rotate(-90)scale(0.1 -0.1)">
      <use xlink:href="#DejaVuSans-40"/>
      <use x="39.013672" xlink:href="#DejaVuSans-98"/>
      <use x="102.490234" xlink:href="#DejaVuSans-121"/>
      <use x="161.669922" xlink:href="#DejaVuSans-116"/>
      <use x="200.878906" xlink:href="#DejaVuSans-101"/>
      <use x="262.402344" xlink:href="#DejaVuSans-115"/>
      <use x="314.501953" xlink:href="#DejaVuSans-41"/>
     </g>
    </g>
   </g>
   <g id="line2d_12">
    <path clip-path="url(#pa4bfd85150)" d="M 139.962933 352.174167 
L 143.208101 352.174167 
L 143.356115 155.37983 
L 143.495941 334.638038 
L 143.635659 321.973056 
L 143.916167 326.844203 
L 144.055995 319.050367 
L 144.335854 321.973056 
L 144.478092 320.998826 
L 144.61944 315.15345 
L 144.760268 301.514238 
L 144.901588 320.024597 
L 145.042729 320.024597 
L 145.183117 321.973056 
L 145.324138 325.869973 
L 145.465188 321.973056 
L 145.605294 325.869973 
L 145.748571 325.869973 
L 145.890033 296.643091 
L 146.031348 138.81793 
L 146.312155 106.66836 
L 146.592512 219.67897 
L 146.732708 218.70474 
L 146.872868 220.653199 
L 147.013306 252.802769 
L 147.154099 246.957392 
L 147.294524 223.575887 
L 147.44239 232.343952 
L 147.590134 225.524346 
L 147.881898 238.180319 
L 148.022505 234.29241 
L 148.162947 235.26664 
L 148.30325 232.343952 
L 148.444301 233.318181 
L 148.586326 232.296334 
L 148.729153 192.358077 
L 148.870222 50.163056 
L 149.010554 66.724955 
L 149.151026 58.93112 
L 149.290925 83.286855 
L 149.571313 51.137285 
L 149.711305 59.905349 
L 149.851773 125.178719 
L 149.99212 106.66836 
L 150.132396 106.66836 
L 150.2737 98.874525 
L 150.415696 115.436425 
L 150.556621 110.565278 
L 150.697953 86.209543 
L 150.838987 109.591048 
L 150.97987 94.977608 
L 151.12028 110.565278 
L 151.402263 95.951837 
L 151.543517 55.034203 
L 151.684697 68.074977 
L 151.825537 52.111514 
L 151.966725 50.163056 
L 152.107979 53.188701 
L 152.248128 73.544561 
L 152.529404 51.137285 
L 152.670979 50.163056 
L 152.811307 52.111514 
L 152.951372 56.976226 
L 153.092548 52.111514 
L 153.233702 51.137285 
L 153.374953 54.059973 
L 153.515868 54.059973 
L 153.657126 53.085744 
L 153.798111 51.137285 
L 153.938478 52.111514 
L 154.079812 61.853808 
L 154.220325 80.364167 
L 154.361654 61.853808 
L 154.502813 68.673414 
L 154.786288 56.008432 
L 154.927489 51.137285 
L 155.069331 76.467249 
L 155.210386 52.111514 
L 155.35167 81.338396 
L 155.497005 51.137285 
L 155.638502 109.591048 
L 155.780149 51.137285 
L 155.921637 106.66836 
L 156.063317 53.085744 
L 156.204649 57.956891 
L 156.346232 58.93112 
L 156.48893 50.163056 
L 156.630367 78.415708 
L 156.771787 52.111514 
L 156.91291 89.132231 
L 157.054065 50.163056 
L 157.195269 142.714848 
L 157.336574 59.905349 
L 157.476804 71.596102 
L 157.617777 98.874525 
L 157.758408 53.085744 
L 157.898764 80.364167 
L 158.043415 54.059973 
L 158.18688 91.08069 
L 158.331408 51.137285 
L 158.472523 98.874525 
L 158.61355 50.163056 
L 158.755075 70.621873 
L 158.895775 52.111514 
L 159.036338 64.776496 
L 159.176984 53.085744 
L 159.317209 55.034203 
L 159.457132 52.111514 
L 159.597752 78.415708 
L 159.737792 52.111514 
L 159.87762 54.059973 
L 160.017772 101.797213 
L 160.157635 51.137285 
L 160.297415 94.977608 
L 160.578881 52.111514 
L 160.860219 52.111514 
L 161.001337 54.059973 
L 161.141211 50.163056 
L 161.282088 53.085744 
L 161.422883 59.905349 
L 161.563334 57.956891 
L 161.706569 54.059973 
L 161.851465 72.570332 
L 161.993278 74.51879 
L 162.134184 236.240869 
L 162.27473 240.137787 
L 162.415421 203.11707 
L 162.555564 79.389937 
L 162.697411 93.029149 
L 162.839285 52.111514 
L 162.981418 89.132231 
L 163.122097 71.596102 
L 163.263626 75.49302 
L 163.404458 69.647643 
L 163.545326 72.570332 
L 163.686098 52.111514 
L 163.825831 117.384884 
L 163.965972 59.905349 
L 164.106562 106.66836 
L 164.247205 78.415708 
L 164.389616 83.286855 
L 164.531149 106.66836 
L 164.671791 56.008432 
L 164.812793 87.183772 
L 164.954286 54.059973 
L 165.094744 116.410654 
L 165.234868 120.307572 
L 165.376207 57.956891 
L 165.518893 95.951837 
L 165.801796 51.137285 
L 165.943283 60.879579 
L 166.084966 56.008432 
L 166.227585 174.864418 
L 166.509504 58.93112 
L 166.651769 58.93112 
L 166.792701 128.101407 
L 166.933222 54.059973 
L 167.073791 95.951837 
L 167.21691 57.956891 
L 167.357802 124.204489 
L 167.640248 57.956891 
L 167.78036 75.49302 
L 167.920809 53.085744 
L 168.062068 102.771443 
L 168.203553 52.111514 
L 168.344258 94.977608 
L 168.485774 52.111514 
L 168.626226 63.802267 
L 168.768808 55.034203 
L 168.910652 54.059973 
L 169.053378 97.900296 
L 169.194742 68.673414 
L 169.478036 124.204489 
L 169.618946 60.879579 
L 169.759828 52.111514 
L 170.045762 55.034203 
L 170.186589 52.111514 
L 170.327304 98.874525 
L 170.46806 55.034203 
L 170.608603 78.415708 
L 170.74932 53.085744 
L 170.88991 56.976226 
L 171.030546 66.724955 
L 171.17136 51.137285 
L 171.312178 90.106461 
L 171.452787 96.926066 
L 171.734194 59.905349 
L 171.875102 59.905349 
L 172.016108 140.739363 
L 172.158639 60.879579 
L 172.30187 108.616819 
L 172.443672 59.905349 
L 172.72535 138.790904 
L 172.86607 53.085744 
L 173.148582 53.085744 
L 173.290423 136.869471 
L 173.431625 73.544561 
L 173.5726 91.08069 
L 173.713353 144.663306 
L 173.853864 51.137285 
L 173.995232 118.359113 
L 174.136789 61.853808 
L 174.420204 107.64259 
L 174.561518 56.008432 
L 174.702868 125.178719 
L 174.847148 53.085744 
L 174.989086 206.039758 
L 175.411463 56.976226 
L 175.551481 52.111514 
L 175.69162 352.174167 
L 175.839531 352.174167 
L 175.984127 179.735565 
L 176.125547 186.55517 
L 176.266506 179.735565 
L 176.687879 232.343952 
L 176.828607 233.318181 
L 176.970585 245.008934 
L 177.110916 244.034704 
L 177.251203 237.215099 
L 177.391705 237.215099 
L 177.532117 245.983163 
L 177.67284 244.034704 
L 177.954174 236.240869 
L 178.095265 245.008934 
L 178.236113 245.008934 
L 178.376384 247.931622 
L 178.79789 242.086246 
L 178.939191 247.931622 
L 179.360596 235.26664 
L 179.643508 247.931622 
L 179.783599 246.957392 
L 180.065692 248.905851 
L 180.346974 240.137787 
L 180.629033 247.931622 
L 180.769075 247.931622 
L 180.908904 239.163557 
L 181.048802 238.180319 
L 181.188724 245.008934 
L 181.32878 245.983163 
L 181.468737 244.034704 
L 181.749381 248.905851 
L 181.889792 245.008934 
L 182.032981 248.905851 
L 182.175496 242.086246 
L 182.318922 245.983163 
L 182.466142 245.008934 
L 182.608463 247.931622 
L 182.749131 245.983163 
L 182.893517 246.957392 
L 183.034827 239.163557 
L 183.177107 241.112016 
L 183.459093 252.802769 
L 183.59929 248.905851 
L 183.741478 238.180319 
L 183.884033 237.215099 
L 184.027643 245.983163 
L 184.168333 246.957392 
L 184.309505 244.034704 
L 184.59316 254.751228 
L 184.881732 241.112016 
L 185.024686 239.163557 
L 185.167373 245.983163 
L 185.309946 246.957392 
L 185.450388 242.086246 
L 185.592066 242.086246 
L 185.732804 240.137787 
L 186.014224 244.034704 
L 186.154989 244.034704 
L 186.29562 247.931622 
L 186.436638 239.163557 
L 186.578649 238.180319 
L 187.000295 257.673916 
L 187.140665 251.828539 
L 187.281145 241.112016 
L 187.422632 243.060475 
L 187.564527 243.060475 
L 187.705229 244.034704 
L 187.846557 249.880081 
L 187.988318 237.215099 
L 188.129801 240.137787 
L 188.411957 249.880081 
L 188.553269 248.905851 
L 188.69382 246.957392 
L 188.834887 246.957392 
L 188.977563 243.060475 
L 189.118774 246.957392 
L 189.259939 352.174167 
L 189.405378 352.174167 
L 189.55448 344.380332 
L 189.83768 233.318181 
L 190.259931 250.85431 
L 190.400729 249.880081 
L 190.682445 247.931622 
L 190.964534 258.648145 
L 191.246007 247.931622 
L 191.386117 254.751228 
L 191.526071 247.931622 
L 191.807694 254.751228 
L 191.948585 246.957392 
L 192.229724 254.751228 
L 192.370492 249.880081 
L 192.51058 252.802769 
L 192.65147 252.802769 
L 192.792166 248.905851 
L 192.932977 253.776998 
L 193.073048 252.802769 
L 193.21388 252.802769 
L 193.35484 249.880081 
L 193.495885 250.85431 
L 193.780585 247.931622 
L 194.061776 247.931622 
L 194.202529 253.776998 
L 194.484053 243.060475 
L 194.624826 249.880081 
L 194.764782 248.905851 
L 194.905585 252.802769 
L 195.046086 251.828539 
L 195.191033 254.751228 
L 195.474124 245.008934 
L 195.615059 252.802769 
L 195.75505 250.85431 
L 196.038441 254.751228 
L 196.319943 246.957392 
L 196.601632 254.751228 
L 196.742612 249.880081 
L 196.883594 254.751228 
L 197.02428 248.905851 
L 197.164894 250.85431 
L 197.306394 244.034704 
L 197.587961 251.828539 
L 197.728638 251.828539 
L 197.869703 257.673916 
L 198.155107 245.008934 
L 198.439353 257.673916 
L 198.580191 256.699686 
L 198.72111 257.673916 
L 199.002641 244.034704 
L 199.14301 248.905851 
L 199.283847 258.648145 
L 199.42473 252.802769 
L 199.565505 252.802769 
L 199.70626 247.931622 
L 199.847001 250.85431 
L 199.98791 245.983163 
L 200.128571 258.648145 
L 200.27144 253.776998 
L 200.414434 256.699686 
L 200.554505 248.905851 
L 200.698 252.802769 
L 200.838811 248.905851 
L 200.979602 257.673916 
L 201.261104 254.751228 
L 201.40201 247.931622 
L 201.542765 246.957392 
L 201.68334 245.008934 
L 201.823775 256.699686 
L 201.963923 258.648145 
L 202.244687 244.034704 
L 202.384757 250.85431 
L 202.52491 246.957392 
L 202.665028 249.880081 
L 202.806054 267.41621 
L 202.945938 352.174167 
L 203.091155 352.174167 
L 203.233895 318.076138 
L 203.376025 247.931622 
L 203.516092 238.180319 
L 203.796215 242.086246 
L 204.078428 250.85431 
L 204.218584 248.905851 
L 204.360405 251.828539 
L 204.501523 251.828539 
L 204.641967 247.931622 
L 204.782674 251.828539 
L 205.064735 247.931622 
L 205.20606 253.776998 
L 205.347914 253.776998 
L 205.489 250.85431 
L 205.630305 245.008934 
L 205.771305 252.802769 
L 205.911767 249.880081 
L 206.052045 252.802769 
L 206.192436 247.931622 
L 206.332933 251.828539 
L 206.474242 246.957392 
L 206.614811 248.905851 
L 206.755188 247.931622 
L 206.895354 252.802769 
L 207.036361 251.828539 
L 207.180272 249.880081 
L 207.321037 255.725457 
L 207.461465 246.957392 
L 207.601915 246.957392 
L 207.882676 250.85431 
L 208.023207 244.034704 
L 208.309364 248.905851 
L 208.452707 248.905851 
L 208.593219 250.85431 
L 208.87366 245.983163 
L 209.014106 246.957392 
L 209.154338 251.828539 
L 209.437608 243.060475 
L 209.578368 254.751228 
L 209.719031 245.008934 
L 209.859278 252.802769 
L 210.000676 250.85431 
L 210.141578 251.828539 
L 210.282766 248.905851 
L 210.423816 251.828539 
L 210.564938 250.85431 
L 210.705729 248.905851 
L 210.986064 250.85431 
L 211.126839 246.957392 
L 211.267202 251.828539 
L 211.407284 249.880081 
L 211.547722 242.086246 
L 211.687952 255.725457 
L 211.96836 247.931622 
L 212.110758 248.905851 
L 212.251104 252.802769 
L 212.392881 246.957392 
L 212.673999 256.699686 
L 212.81438 245.983163 
L 213.095672 249.880081 
L 213.23624 245.983163 
L 213.376566 251.828539 
L 213.516976 251.828539 
L 213.658465 249.880081 
L 213.938676 251.828539 
L 214.07873 245.983163 
L 214.218695 254.751228 
L 214.498644 241.112016 
L 214.640526 250.85431 
L 214.780545 251.828539 
L 214.921441 251.828539 
L 215.06175 245.983163 
L 215.203829 257.673916 
L 215.346092 248.905851 
L 215.487522 251.828539 
L 215.629441 251.828539 
L 215.771402 253.776998 
L 215.913307 245.008934 
L 216.053428 257.673916 
L 216.19336 249.880081 
L 216.336117 250.85431 
L 216.628832 352.174167 
L 216.774946 352.174167 
L 217.059594 232.343952 
L 217.340906 237.215099 
L 217.622068 256.699686 
L 217.763347 245.008934 
L 217.903432 243.060475 
L 218.045248 252.802769 
L 218.185492 254.751228 
L 218.325838 254.751228 
L 218.466148 252.802769 
L 218.75162 245.008934 
L 218.892855 254.751228 
L 219.03511 254.751228 
L 219.175849 256.699686 
L 219.597017 244.034704 
L 219.8782 254.751228 
L 220.018541 253.776998 
L 220.15879 250.85431 
L 220.299416 244.034704 
L 220.44026 245.008934 
L 220.580378 255.725457 
L 220.721017 253.776998 
L 221.003888 248.905851 
L 221.145508 250.85431 
L 221.28599 245.008934 
L 221.567209 253.776998 
L 221.708136 257.673916 
L 221.848736 247.931622 
L 222.13249 253.776998 
L 222.412546 245.008934 
L 222.552984 252.802769 
L 222.693165 248.905851 
L 222.834155 252.802769 
L 222.974777 248.905851 
L 223.115326 248.905851 
L 223.256985 247.931622 
L 223.399163 258.648145 
L 223.541384 248.905851 
L 223.681029 248.905851 
L 223.820664 249.880081 
L 223.964085 246.957392 
L 224.103804 250.85431 
L 224.243915 250.85431 
L 224.384131 251.828539 
L 224.523941 249.880081 
L 224.663871 251.828539 
L 224.943616 244.034704 
L 225.364507 251.828539 
L 225.504637 249.880081 
L 225.647435 250.85431 
L 225.789035 248.905851 
L 225.930244 244.034704 
L 226.071504 253.776998 
L 226.211626 245.983163 
L 226.49209 253.776998 
L 226.632276 251.828539 
L 226.772473 245.983163 
L 226.912865 251.828539 
L 227.053295 247.931622 
L 227.193334 247.931622 
L 227.333427 248.905851 
L 227.474497 248.905851 
L 227.614868 249.880081 
L 227.755218 245.008934 
L 227.898599 254.751228 
L 228.040433 248.905851 
L 228.180415 249.880081 
L 228.320694 247.931622 
L 228.602669 242.086246 
L 228.747037 248.905851 
L 228.889733 248.905851 
L 229.032662 245.983163 
L 229.175891 251.828539 
L 229.3191 245.008934 
L 229.740795 251.828539 
L 229.88161 249.880081 
L 230.021854 255.725457 
L 230.161698 352.174167 
L 230.301653 352.174167 
L 230.442317 325.869973 
L 230.723716 233.318181 
L 230.864411 236.240869 
L 231.004623 246.957392 
L 231.145552 246.957392 
L 231.287408 251.828539 
L 231.568881 246.957392 
L 231.709748 245.008934 
L 231.852192 249.880081 
L 231.99389 247.931622 
L 232.134875 251.828539 
L 232.275907 249.880081 
L 232.416185 254.751228 
L 232.557724 248.905851 
L 232.698182 248.905851 
L 232.838443 246.957392 
L 232.978639 247.931622 
L 233.1199 255.725457 
L 233.261068 254.751228 
L 233.401907 246.957392 
L 233.683677 246.957392 
L 233.9657 251.828539 
L 234.246196 247.931622 
L 234.386668 248.905851 
L 234.526844 248.905851 
L 234.66714 245.983163 
L 234.807633 261.570833 
L 234.947458 251.828539 
L 235.089647 250.85431 
L 235.230554 244.034704 
L 235.371473 248.905851 
L 235.512404 246.957392 
L 235.653262 257.673916 
L 235.793898 255.725457 
L 236.075806 245.008934 
L 236.216945 252.802769 
L 236.357795 250.85431 
L 236.498183 253.776998 
L 236.639757 251.828539 
L 236.920786 243.060475 
L 237.060784 252.802769 
L 237.200744 253.776998 
L 237.341691 252.802769 
L 237.481773 256.699686 
L 237.762689 249.880081 
L 237.905706 252.802769 
L 238.046075 247.931622 
L 238.189606 251.828539 
L 238.472974 247.931622 
L 238.612782 247.931622 
L 238.753166 251.828539 
L 239.034996 247.931622 
L 239.175522 256.699686 
L 239.456007 245.983163 
L 239.599859 253.776998 
L 239.740266 252.802769 
L 239.880947 255.725457 
L 240.302815 246.957392 
L 240.584754 246.957392 
L 240.865547 250.85431 
L 241.007023 245.008934 
L 241.28859 245.008934 
L 241.572339 249.880081 
L 241.712916 247.931622 
L 241.854352 249.880081 
L 241.994445 249.880081 
L 242.135194 247.931622 
L 242.27798 247.931622 
L 242.418971 246.957392 
L 242.699599 244.034704 
L 242.98413 249.880081 
L 243.126158 248.905851 
L 243.266314 249.880081 
L 243.410228 253.776998 
L 243.550488 245.983163 
L 243.690573 245.008934 
L 243.8345 352.174167 
L 243.975974 352.174167 
L 244.122184 320.998826 
L 244.261915 240.137787 
L 244.403224 233.318181 
L 244.828397 253.776998 
L 244.96868 246.957392 
L 245.109384 246.957392 
L 245.390276 250.85431 
L 245.673006 246.957392 
L 245.816463 247.931622 
L 245.958463 251.828539 
L 246.23826 245.008934 
L 246.378161 247.904596 
L 246.518069 247.931622 
L 246.799628 254.751228 
L 246.939552 251.828539 
L 247.080364 245.983163 
L 247.220842 247.931622 
L 247.361322 252.802769 
L 247.502233 252.802769 
L 247.643034 257.673916 
L 247.923207 248.905851 
L 248.064536 247.931622 
L 248.206596 250.85431 
L 248.348822 250.85431 
L 248.491626 255.725457 
L 248.633541 255.725457 
L 248.774519 248.905851 
L 248.917753 248.905851 
L 249.058423 247.931622 
L 249.198909 248.905851 
L 249.34182 255.725457 
L 249.482404 253.776998 
L 249.625646 245.983163 
L 249.768704 250.85431 
L 250.052176 245.983163 
L 250.192589 251.828539 
L 250.474342 248.905851 
L 250.615052 259.622375 
L 250.898785 243.060475 
L 251.039691 249.880081 
L 251.181923 248.905851 
L 251.322724 248.905851 
L 251.463318 250.85431 
L 251.744369 243.060475 
L 252.0264 255.725457 
L 252.16695 248.905851 
L 252.310485 252.802769 
L 252.451823 246.957392 
L 252.592729 251.828539 
L 252.734302 251.828539 
L 252.875419 253.776998 
L 253.017068 252.802769 
L 253.159388 250.85431 
L 253.303033 245.008934 
L 253.445703 251.828539 
L 253.586777 245.983163 
L 253.731651 258.648145 
L 253.87173 243.060475 
L 254.013578 251.828539 
L 254.155014 241.112016 
L 254.296854 247.931622 
L 254.438469 246.957392 
L 254.579887 258.648145 
L 254.721684 255.725457 
L 254.863754 246.957392 
L 255.006222 245.983163 
L 255.150212 245.983163 
L 255.291309 247.931622 
L 255.431614 254.751228 
L 255.572967 251.828539 
L 255.71499 253.776998 
L 255.855728 246.957392 
L 255.996992 251.828539 
L 256.137528 251.828539 
L 256.279941 248.905851 
L 256.560994 253.776998 
L 256.701318 254.751228 
L 256.844256 252.802769 
L 256.985228 248.905851 
L 257.126398 248.905851 
L 257.266738 252.802769 
L 257.411007 352.174167 
L 257.558672 352.174167 
L 257.702084 340.483414 
L 257.983366 241.112016 
L 258.123241 242.086246 
L 258.265658 237.215099 
L 258.405879 256.699686 
L 258.547533 247.931622 
L 258.688105 249.880081 
L 258.829923 245.008934 
L 258.971856 258.648145 
L 259.113412 252.802769 
L 259.254756 253.776998 
L 259.537756 244.034704 
L 259.681582 246.957392 
L 259.824124 255.725457 
L 260.108851 257.673916 
L 260.249627 253.776998 
L 260.392244 245.983163 
L 260.534317 245.983163 
L 260.675148 247.931622 
L 260.817515 258.648145 
L 260.958014 247.931622 
L 261.09835 253.776998 
L 261.23922 249.880081 
L 261.380673 241.112016 
L 261.663915 266.44198 
L 261.94621 251.828539 
L 262.086578 247.931622 
L 262.227198 248.905851 
L 262.507617 252.802769 
L 262.648201 259.622375 
L 262.788782 246.957392 
L 263.071738 246.957392 
L 263.213845 243.060475 
L 263.354035 255.725457 
L 263.494083 256.699686 
L 263.914512 246.957392 
L 264.054548 245.008934 
L 264.194507 256.699686 
L 264.341986 256.699686 
L 264.482843 255.725457 
L 264.62306 258.648145 
L 264.902983 246.957392 
L 265.044954 260.596604 
L 265.606771 248.905851 
L 265.746886 248.905851 
L 265.887076 254.751228 
L 266.028043 250.85431 
L 266.168811 253.776998 
L 266.309653 247.931622 
L 266.450488 251.828539 
L 266.591214 247.931622 
L 266.732024 247.931622 
L 267.013482 257.673916 
L 267.444773 245.983163 
L 267.58553 248.905851 
L 267.726213 247.931622 
L 267.866917 254.751228 
L 268.007839 251.828539 
L 268.148112 251.828539 
L 268.289484 252.802769 
L 268.430417 246.957392 
L 268.57205 254.751228 
L 268.712371 252.802769 
L 268.852649 254.751228 
L 269.272849 247.931622 
L 269.413723 248.905851 
L 269.553951 247.931622 
L 269.696066 255.725457 
L 269.976283 250.85431 
L 270.120606 243.060475 
L 270.26692 250.85431 
L 270.413217 249.880081 
L 270.559444 254.751228 
L 270.707448 246.957392 
L 270.855168 246.957392 
L 270.997313 279.106962 
L 271.145296 352.174167 
L 271.290643 352.174167 
L 271.577455 235.26664 
L 271.717253 236.240869 
L 271.857064 238.180319 
L 272.139982 261.570833 
L 272.424595 256.699686 
L 272.705939 252.802769 
L 272.845761 259.622375 
L 272.986227 260.596604 
L 273.26695 251.828539 
L 273.407924 259.622375 
L 273.548933 248.905851 
L 273.831139 257.673916 
L 273.971423 254.751228 
L 274.112298 248.905851 
L 274.252971 247.931622 
L 274.396082 253.776998 
L 274.538195 253.776998 
L 274.681282 255.725457 
L 274.821538 250.85431 
L 274.963251 249.880081 
L 275.106057 245.983163 
L 275.248316 246.957392 
L 275.389356 245.983163 
L 275.531953 256.699686 
L 275.67266 257.673916 
L 275.813738 247.931622 
L 275.954528 249.880081 
L 276.095447 248.905851 
L 276.238942 246.957392 
L 276.383057 248.905851 
L 276.667797 248.905851 
L 276.808167 250.85431 
L 277.08827 243.060475 
L 277.230727 250.85431 
L 277.372051 249.880081 
L 277.513171 249.880081 
L 277.654618 245.008934 
L 277.796628 251.828539 
L 277.937536 247.931622 
L 278.078376 247.931622 
L 278.219979 250.85431 
L 278.360603 247.931622 
L 278.502504 252.802769 
L 278.645969 251.828539 
L 278.929704 243.060475 
L 279.072038 253.776998 
L 279.213571 252.802769 
L 279.354725 252.802769 
L 279.495079 249.880081 
L 279.635248 251.828539 
L 279.775528 244.034704 
L 280.203585 258.648145 
L 280.349197 251.828539 
L 280.492424 256.699686 
L 280.633071 245.008934 
L 280.773915 246.957392 
L 281.056119 254.751228 
L 281.338599 247.931622 
L 281.48034 250.85431 
L 281.625345 247.931622 
L 281.772587 253.776998 
L 281.914822 251.828539 
L 282.056887 252.802769 
L 282.33975 245.008934 
L 282.624678 260.596604 
L 282.7647 247.931622 
L 282.906764 246.957392 
L 283.048605 247.931622 
L 283.188962 246.957392 
L 283.32988 247.931622 
L 283.470912 254.751228 
L 283.611111 248.905851 
L 283.751938 248.905851 
L 284.035747 245.983163 
L 284.178341 246.957392 
L 284.321711 249.880081 
L 284.461962 249.880081 
L 284.602945 250.85431 
L 284.746137 352.174167 
L 284.892978 352.174167 
L 285.325416 236.240869 
L 285.473518 237.215099 
L 286.041297 260.596604 
L 286.181939 248.905851 
L 286.323808 248.905851 
L 286.607809 250.85431 
L 286.747961 260.596604 
L 287.031806 244.034704 
L 287.171863 246.957392 
L 287.312102 246.957392 
L 287.452753 244.034704 
L 287.594706 256.699686 
L 287.738004 253.776998 
L 288.018551 242.086246 
L 288.158663 252.802769 
L 288.299456 247.931622 
L 288.439823 259.622375 
L 288.719645 254.751228 
L 288.861556 246.957392 
L 289.002123 247.931622 
L 289.143535 246.957392 
L 289.288006 254.751228 
L 289.432758 247.931622 
L 289.575325 247.931622 
L 289.856996 251.828539 
L 289.997221 251.828539 
L 290.138646 262.545063 
L 290.421067 253.776998 
L 290.706786 248.905851 
L 290.991182 261.570833 
L 291.414408 244.034704 
L 291.843981 257.673916 
L 291.984303 256.699686 
L 292.125771 246.957392 
L 292.267936 246.957392 
L 292.411834 248.905851 
L 292.554683 259.622375 
L 292.837607 249.880081 
L 293.121542 245.008934 
L 293.404814 251.828539 
L 293.544868 254.751228 
L 293.827081 245.983163 
L 294.393731 252.802769 
L 294.534436 250.85431 
L 294.675712 244.034704 
L 294.81843 245.008934 
L 295.243127 254.751228 
L 295.384243 247.931622 
L 295.52554 249.880081 
L 295.666558 248.905851 
L 295.946705 248.905851 
L 296.088474 251.828539 
L 296.512212 245.983163 
L 296.652674 256.699686 
L 296.793303 246.957392 
L 296.936121 248.905851 
L 297.222197 246.957392 
L 297.362967 247.931622 
L 297.504445 251.828539 
L 297.646152 244.034704 
L 297.787664 251.828539 
L 298.070027 245.008934 
L 298.210907 245.983163 
L 298.357365 352.174167 
L 298.502425 352.174167 
L 298.642851 321.973056 
L 298.928077 232.343952 
L 299.21396 245.983163 
L 299.502568 253.776998 
L 299.643384 252.802769 
L 299.783895 254.751228 
L 299.926854 245.983163 
L 300.068107 250.85431 
L 300.208611 244.034704 
L 300.353613 255.725457 
L 300.494552 252.802769 
L 300.635209 256.699686 
L 300.91591 252.802769 
L 301.057401 243.060475 
L 301.339307 253.776998 
L 301.479702 250.85431 
L 301.622317 256.699686 
L 301.903759 246.957392 
L 302.046618 249.880081 
L 302.18678 259.622375 
L 302.4677 252.802769 
L 302.751449 245.983163 
L 303.034574 255.725457 
L 303.176203 254.751228 
L 303.316836 255.725457 
L 303.45844 245.008934 
L 303.599676 245.008934 
L 303.740152 247.931622 
L 304.022014 256.699686 
L 304.16197 256.699686 
L 304.305062 245.983163 
L 304.447764 250.85431 
L 304.589633 242.086246 
L 304.731111 249.880081 
L 304.875012 250.85431 
L 305.157728 248.905851 
L 305.298025 249.880081 
L 305.439633 248.905851 
L 305.727024 261.570833 
L 306.009347 245.008934 
L 306.150239 244.034704 
L 306.292207 247.931622 
L 306.43226 255.725457 
L 306.573669 253.776998 
L 306.715553 254.751228 
L 306.85639 245.983163 
L 306.998225 249.880081 
L 307.139681 243.060475 
L 307.282299 245.983163 
L 307.423096 245.983163 
L 307.565983 250.85431 
L 307.707962 246.957392 
L 307.99091 256.699686 
L 308.133056 244.034704 
L 308.275239 252.802769 
L 308.417352 252.802769 
L 308.557461 248.905851 
L 308.700537 250.85431 
L 308.842736 249.880081 
L 308.984044 246.957392 
L 309.125683 253.776998 
L 309.266799 252.802769 
L 309.407347 246.957392 
L 309.551113 251.828539 
L 309.691956 248.905851 
L 309.833256 248.905851 
L 309.975569 254.751228 
L 310.118188 252.802769 
L 310.258832 257.673916 
L 310.399341 248.905851 
L 310.54032 248.905851 
L 310.681581 249.880081 
L 310.822051 251.828539 
L 310.962704 256.699686 
L 311.103662 255.725457 
L 311.245152 247.931622 
L 311.388038 248.905851 
L 311.528478 248.905851 
L 311.669842 250.85431 
L 311.810608 259.622375 
L 311.953727 352.174167 
L 312.101409 352.174167 
L 312.246507 333.663808 
L 312.528895 241.112016 
L 312.671576 243.060475 
L 312.81441 243.060475 
L 312.955216 247.931622 
L 313.095084 242.086246 
L 313.236915 251.828539 
L 313.378218 247.931622 
L 313.518232 247.931622 
L 313.659177 246.957392 
L 313.803519 248.905851 
L 313.944506 245.008934 
L 314.08544 246.957392 
L 314.36655 254.751228 
L 314.506735 255.725457 
L 314.791689 243.060475 
L 315.074079 254.751228 
L 315.214339 250.85431 
L 315.354841 255.725457 
L 315.639483 245.983163 
L 315.922883 256.699686 
L 316.351253 245.008934 
L 316.493471 245.008934 
L 316.778287 253.776998 
L 316.919318 252.802769 
L 317.061589 246.957392 
L 317.20294 245.983163 
L 317.344769 246.957392 
L 317.626325 254.751228 
L 317.767215 255.725457 
L 318.054073 247.931622 
L 318.198972 246.957392 
L 318.621872 264.493522 
L 318.762441 245.983163 
L 318.904228 245.008934 
L 319.04546 243.060475 
L 319.328531 259.622375 
L 319.611299 245.983163 
L 319.751371 245.983163 
L 320.175831 255.725457 
L 320.463444 240.137787 
L 320.607555 249.880081 
L 320.748845 250.85431 
L 320.889629 250.85431 
L 321.031043 251.828539 
L 321.172236 253.776998 
L 321.314214 246.957392 
L 321.455348 246.957392 
L 321.598585 245.008934 
L 321.880595 254.751228 
L 322.021738 246.957392 
L 322.306067 251.828539 
L 322.44785 249.880081 
L 322.590089 250.85431 
L 322.73082 257.673916 
L 323.013626 247.931622 
L 323.155624 251.828539 
L 323.438415 247.931622 
L 323.581097 253.776998 
L 323.722847 246.957392 
L 323.865866 246.957392 
L 324.009126 247.931622 
L 324.152928 245.008934 
L 324.295268 254.751228 
L 324.436978 254.751228 
L 324.580684 249.880081 
L 324.721019 253.776998 
L 324.863731 248.905851 
L 325.006478 251.828539 
L 325.14882 258.648145 
L 325.431094 245.983163 
L 325.575682 352.174167 
L 325.722859 352.174167 
L 325.870621 344.380332 
L 326.160976 239.163557 
L 326.304383 240.137787 
L 326.589864 250.85431 
L 326.73078 250.85431 
L 326.872023 255.725457 
L 327.01444 246.957392 
L 327.155806 254.751228 
L 327.298281 247.931622 
L 327.4396 246.957392 
L 327.580849 246.957392 
L 327.721306 247.931622 
L 327.862413 245.008934 
L 328.007071 249.880081 
L 328.290456 245.983163 
L 328.430944 241.112016 
L 328.715509 251.828539 
L 328.856393 244.034704 
L 328.9972 249.880081 
L 329.137561 249.880081 
L 329.419841 247.931622 
L 329.560405 254.751228 
L 329.841989 245.983163 
L 329.983156 248.905851 
L 330.124539 246.957392 
L 330.266483 252.802769 
L 330.4075 243.060475 
L 330.549126 244.034704 
L 330.975341 254.751228 
L 331.116466 250.85431 
L 331.257317 252.802769 
L 331.540715 243.060475 
L 331.681642 254.751228 
L 331.822502 246.957392 
L 331.962993 249.880081 
L 332.10383 245.008934 
L 332.244953 251.828539 
L 332.386088 246.957392 
L 332.527541 248.905851 
L 332.668592 255.725457 
L 332.80969 247.931622 
L 332.950888 247.931622 
L 333.092578 248.905851 
L 333.234194 245.008934 
L 333.375102 249.880081 
L 333.516464 250.85431 
L 333.659366 254.751228 
L 333.8022 249.880081 
L 334.084007 247.931622 
L 334.22471 252.802769 
L 334.365486 249.880081 
L 334.506298 255.725457 
L 334.647321 249.880081 
L 334.78737 248.905851 
L 334.931233 246.957392 
L 335.075646 246.957392 
L 335.497425 255.725457 
L 335.921615 246.957392 
L 336.062561 250.85431 
L 336.208231 248.905851 
L 336.350343 255.725457 
L 336.492606 252.802769 
L 336.633419 254.751228 
L 336.775199 252.802769 
L 336.917154 252.802769 
L 337.057896 256.699686 
L 337.340028 254.751228 
L 337.481402 250.85431 
L 337.623279 251.828539 
L 337.765728 254.751228 
L 337.907612 252.802769 
L 338.049069 253.776998 
L 338.192357 251.828539 
L 338.333758 242.086246 
L 338.616266 250.85431 
L 338.757225 249.880081 
L 338.898246 247.931622 
L 339.039542 253.776998 
L 339.323942 352.174167 
L 339.47141 352.174167 
L 339.770142 246.957392 
L 339.920393 245.983163 
L 340.061383 247.931622 
L 340.205336 246.957392 
L 340.34665 246.957392 
L 340.632797 251.828539 
L 340.777987 250.85431 
L 341.059501 246.957392 
L 341.200262 245.983163 
L 341.489465 251.828539 
L 341.77145 249.880081 
L 341.912259 245.008934 
L 342.053235 245.983163 
L 342.477858 253.776998 
L 342.619662 254.751228 
L 342.760475 245.008934 
L 342.901312 246.957392 
L 343.042425 251.828539 
L 343.183379 249.880081 
L 343.324373 255.725457 
L 343.605998 242.086246 
L 343.887467 252.802769 
L 344.029393 252.802769 
L 344.171318 251.828539 
L 344.312531 253.776998 
L 344.597376 242.086246 
L 344.738231 248.905851 
L 344.878996 243.060475 
L 345.019693 260.596604 
L 345.301422 245.983163 
L 345.442169 249.880081 
L 345.582688 245.983163 
L 345.722909 254.638619 
L 345.86313 254.751228 
L 346.003201 250.85431 
L 346.143138 251.828539 
L 346.283928 241.112016 
L 346.565342 248.905851 
L 346.848535 255.725457 
L 346.988684 252.802769 
L 347.128814 245.008934 
L 347.269911 248.905851 
L 347.41075 245.983163 
L 347.692255 254.751228 
L 347.833018 246.957392 
L 347.973909 246.957392 
L 348.114725 249.880081 
L 348.255322 249.880081 
L 348.396074 252.802769 
L 348.53688 250.85431 
L 348.677212 245.008934 
L 348.817308 245.983163 
L 348.957827 250.85431 
L 349.099609 243.060475 
L 349.381925 256.699686 
L 349.523442 245.983163 
L 349.666232 245.008934 
L 349.808013 249.880081 
L 349.950542 245.983163 
L 350.371704 253.776998 
L 350.512157 245.983163 
L 350.654285 250.85431 
L 350.941676 247.931622 
L 351.087701 252.802769 
L 351.233715 246.957392 
L 351.378947 247.931622 
L 351.660429 243.060475 
L 351.941418 251.828539 
L 352.081793 251.828539 
L 352.22559 248.905851 
L 352.367239 248.905851 
L 352.511227 245.008934 
L 352.655336 252.802769 
L 352.799356 252.802769 
L 352.944478 352.174167 
L 353.089147 352.174167 
L 353.235093 316.127679 
L 353.375663 245.008934 
L 353.51838 234.29241 
L 353.662085 239.163557 
L 353.950993 257.673916 
L 354.091293 256.699686 
L 354.232007 254.751228 
L 354.372728 247.931622 
L 354.513494 252.802769 
L 354.653799 248.905851 
L 354.936791 255.725457 
L 355.078927 250.85431 
L 355.219796 250.85431 
L 355.359986 249.880081 
L 355.502478 253.776998 
L 355.642606 253.776998 
L 355.78254 254.751228 
L 355.923105 249.880081 
L 356.063911 250.85431 
L 356.204519 250.85431 
L 356.344822 251.828539 
L 356.484758 245.008934 
L 356.625272 247.931622 
L 356.767726 246.957392 
L 356.914265 248.905851 
L 357.053943 246.957392 
L 357.196616 251.828539 
L 357.336521 247.931622 
L 357.477894 247.931622 
L 357.617716 252.802769 
L 357.75737 251.828539 
L 357.896978 244.034704 
L 358.036767 244.034704 
L 358.179226 249.880081 
L 358.319033 249.880081 
L 358.458658 252.802769 
L 358.598599 248.905851 
L 358.738221 254.751228 
L 358.879242 246.957392 
L 359.019314 251.828539 
L 359.159198 251.828539 
L 359.299832 250.85431 
L 359.440431 246.957392 
L 359.580219 254.751228 
L 359.862671 245.008934 
L 360.290693 255.725457 
L 360.71049 244.034704 
L 360.990887 253.776998 
L 361.130684 248.905851 
L 361.270646 254.751228 
L 361.412681 246.957392 
L 361.560963 251.828539 
L 361.702385 247.931622 
L 361.842887 259.622375 
L 361.982869 245.983163 
L 362.124007 255.725457 
L 362.266164 247.931622 
L 362.691874 254.751228 
L 362.838657 246.957392 
L 362.978897 247.931622 
L 363.119948 244.034704 
L 363.402532 258.648145 
L 363.544801 251.828539 
L 363.685797 250.85431 
L 363.825937 253.776998 
L 363.966204 246.957392 
L 364.106371 253.776998 
L 364.24761 247.931622 
L 364.387831 250.85431 
L 364.527884 246.957392 
L 364.668512 251.828539 
L 364.80869 245.983163 
L 364.95183 255.725457 
L 365.093393 253.776998 
L 365.235318 259.622375 
L 365.379929 245.008934 
L 365.521671 252.802769 
L 365.802654 245.983163 
L 365.942624 253.776998 
L 366.082621 251.828539 
L 366.222506 245.008934 
L 366.362412 248.905851 
L 366.502218 352.174167 
L 366.646626 352.174167 
L 366.788121 341.457643 
L 366.928546 255.725457 
L 367.073043 238.180319 
L 367.214235 241.112016 
L 367.495679 256.699686 
L 367.635848 251.828539 
L 367.776647 250.85431 
L 367.917977 252.802769 
L 368.059374 252.802769 
L 368.20145 251.828539 
L 368.345095 248.905851 
L 368.485326 248.905851 
L 368.629348 244.034704 
L 368.770714 252.802769 
L 368.911547 252.802769 
L 369.052192 255.725457 
L 369.192941 251.828539 
L 369.333186 255.725457 
L 369.486759 248.905851 
L 369.773742 255.725457 
L 369.914976 254.751228 
L 370.056286 255.725457 
L 370.197353 245.008934 
L 370.338898 245.983163 
L 370.62072 253.776998 
L 370.764286 250.85431 
L 370.906382 251.828539 
L 371.04707 250.85431 
L 371.187502 246.957392 
L 371.474306 256.699686 
L 371.614605 255.725457 
L 371.755134 249.880081 
L 371.895736 251.828539 
L 372.036519 248.905851 
L 372.177144 253.776998 
L 372.31771 254.751228 
L 372.457957 259.622375 
L 372.598543 244.034704 
L 372.738653 245.008934 
L 372.878792 244.034704 
L 373.022187 246.957392 
L 373.162701 253.776998 
L 373.442527 247.931622 
L 373.583102 245.983163 
L 373.727034 246.957392 
L 373.867197 248.905851 
L 374.007314 259.622375 
L 374.428242 242.086246 
L 375.141925 256.699686 
L 375.422063 248.905851 
L 375.565279 248.905851 
L 375.848902 251.828539 
L 375.989223 251.828539 
L 376.131474 249.880081 
L 376.416091 251.828539 
L 376.559484 253.776998 
L 376.6997 247.931622 
L 376.842527 246.957392 
L 376.986884 249.880081 
L 377.128393 245.008934 
L 377.411126 256.699686 
L 377.833712 249.880081 
L 378.117679 251.828539 
L 378.259597 249.880081 
L 378.400665 251.828539 
L 378.541304 251.828539 
L 378.681761 250.85431 
L 378.824144 256.699686 
L 378.96677 245.008934 
L 379.10777 247.931622 
L 379.24997 247.931622 
L 379.391117 256.699686 
L 379.673303 247.931622 
L 379.814396 246.957392 
L 379.955921 253.749972 
L 380.244856 352.174167 
L 380.392864 352.174167 
L 380.67741 235.26664 
L 381.11036 245.008934 
L 381.250686 255.725457 
L 381.392557 245.983163 
L 381.541557 249.880081 
L 381.683956 248.905851 
L 381.825091 248.905851 
L 381.966799 244.034704 
L 382.108667 247.931622 
L 382.249503 246.957392 
L 382.390624 260.596604 
L 382.532627 246.957392 
L 382.674179 244.034704 
L 382.819192 246.957392 
L 382.961301 256.699686 
L 383.103238 250.85431 
L 383.243741 252.802769 
L 383.384983 245.983163 
L 383.667241 249.880081 
L 383.80766 249.880081 
L 383.949028 253.776998 
L 384.23164 244.034704 
L 384.375373 245.008934 
L 384.659191 248.905851 
L 384.801738 245.983163 
L 384.941624 251.828539 
L 385.221302 247.931622 
L 385.501712 254.751228 
L 385.642716 249.880081 
L 385.782914 249.880081 
L 386.06654 245.983163 
L 386.20721 251.828539 
L 386.348037 250.85431 
L 386.48918 251.828539 
L 386.630583 249.880081 
L 386.913279 243.060475 
L 387.335956 251.828539 
L 387.476786 249.880081 
L 387.617717 245.008934 
L 387.758487 247.931622 
L 388.041759 245.983163 
L 388.324004 250.85431 
L 388.464031 245.008934 
L 388.745104 255.725457 
L 388.885849 248.905851 
L 389.026033 250.85431 
L 389.166156 246.957392 
L 389.306992 248.905851 
L 389.447963 247.931622 
L 389.58824 248.905851 
L 389.728433 247.931622 
L 389.870116 253.776998 
L 390.15527 245.983163 
L 390.296668 248.905851 
L 390.437854 246.957392 
L 390.862385 249.880081 
L 391.002597 248.905851 
L 391.143226 243.060475 
L 391.425078 246.957392 
L 391.565937 246.957392 
L 391.847349 253.776998 
L 391.988184 245.008934 
L 392.130702 244.034704 
L 392.270832 246.957392 
L 392.410797 246.957392 
L 392.551592 245.008934 
L 392.692468 256.699686 
L 392.973983 249.880081 
L 393.114716 246.957392 
L 393.394612 246.957392 
L 393.535341 255.725457 
L 393.675621 251.828539 
L 393.815637 352.174167 
L 393.958647 352.174167 
L 394.102184 320.998826 
L 394.383997 242.086246 
L 394.524806 245.983163 
L 394.665052 238.180319 
L 394.809421 253.776998 
L 394.955149 250.85431 
L 395.095945 255.725457 
L 395.236641 256.699686 
L 395.377428 256.699686 
L 395.51816 261.570833 
L 395.798829 243.060475 
L 395.93872 261.570833 
L 396.220384 256.699686 
L 396.360595 256.699686 
L 396.642013 245.008934 
L 396.781926 250.85431 
L 396.921734 249.880081 
L 397.06256 257.673916 
L 397.343518 248.905851 
L 397.485694 245.008934 
L 397.626499 252.802769 
L 397.766461 253.776998 
L 397.906408 253.776998 
L 398.046412 251.828539 
L 398.326188 246.957392 
L 398.60604 252.802769 
L 398.746096 254.751228 
L 399.028573 252.802769 
L 399.308525 245.983163 
L 399.448805 250.85431 
L 399.589227 248.905851 
L 400.009156 253.776998 
L 400.149611 249.880081 
L 400.429697 251.828539 
L 400.569582 254.751228 
L 400.709558 253.776998 
L 400.849396 254.751228 
L 400.989228 245.983163 
L 401.552543 254.751228 
L 401.695383 253.776998 
L 401.838523 248.905851 
L 402.120942 250.85431 
L 402.261246 255.725457 
L 402.40222 255.725457 
L 402.542674 258.648145 
L 402.683125 249.880081 
L 402.968148 251.828539 
L 403.108021 246.957392 
L 403.248338 257.673916 
L 403.52804 246.957392 
L 403.667864 246.957392 
L 403.807669 248.905851 
L 403.947552 248.905851 
L 404.230308 252.802769 
L 404.371319 245.983163 
L 404.654006 250.85431 
L 404.936213 254.751228 
L 405.359408 245.983163 
L 405.500842 251.828539 
L 405.641958 251.828539 
L 405.783093 252.802769 
L 405.924858 243.060475 
L 406.06589 250.85431 
L 406.207195 246.957392 
L 406.348386 250.85431 
L 406.489295 258.648145 
L 406.77476 246.957392 
L 406.915 247.931622 
L 407.05517 249.880081 
L 407.196476 249.880081 
L 407.337276 251.828539 
L 407.481258 352.174167 
L 407.627752 352.174167 
L 407.769148 309.308073 
L 407.909381 231.369722 
L 408.051188 230.395493 
L 408.473046 253.776998 
L 408.754845 247.931622 
L 408.895641 245.983163 
L 409.037883 246.957392 
L 409.182351 251.828539 
L 409.322627 249.880081 
L 409.607176 245.008934 
L 409.74774 248.905851 
L 409.889474 248.905851 
L 410.172479 252.802769 
L 410.31279 252.802769 
L 410.453222 250.85431 
L 410.734727 244.034704 
L 410.876269 243.060475 
L 411.018463 251.828539 
L 411.158897 252.802769 
L 411.299406 249.880081 
L 411.441448 251.828539 
L 411.583005 246.957392 
L 411.724446 247.931622 
L 411.865356 255.725457 
L 412.005805 256.699686 
L 412.432626 247.931622 
L 412.715288 251.828539 
L 412.859603 252.802769 
L 413.000209 245.983163 
L 413.283011 248.905851 
L 413.424485 246.957392 
L 413.565583 249.880081 
L 413.706044 255.725457 
L 414.27082 243.060475 
L 414.693325 252.802769 
L 414.834964 253.776998 
L 414.976801 244.034704 
L 415.117058 249.880081 
L 415.258378 249.880081 
L 415.405616 250.85431 
L 415.546378 248.905851 
L 415.687559 251.828539 
L 415.832567 245.983163 
L 415.973964 253.776998 
L 416.116628 252.802769 
L 416.399772 246.957392 
L 416.539785 255.725457 
L 416.683399 245.008934 
L 416.963258 250.85431 
L 417.103373 243.060475 
L 417.66882 252.802769 
L 417.809773 252.802769 
L 417.950225 244.034704 
L 418.37134 250.85431 
L 418.653459 255.725457 
L 418.795123 249.880081 
L 418.935651 249.880081 
L 419.076023 247.931622 
L 419.217062 244.034704 
L 419.360738 244.034704 
L 419.501302 249.880081 
L 419.641686 248.905851 
L 419.781939 250.85431 
L 419.922867 250.85431 
L 420.063946 243.060475 
L 420.346722 250.85431 
L 420.486971 245.983163 
L 420.629516 252.802769 
L 420.771668 250.85431 
L 420.915757 245.983163 
L 421.059634 352.174167 
L 421.207001 352.174167 
L 421.354304 331.715349 
L 421.636371 236.240869 
L 421.777406 233.318181 
L 421.918895 240.137787 
L 422.059549 254.751228 
L 422.200387 251.828539 
L 422.341264 258.648145 
L 422.482596 247.931622 
L 422.624085 247.931622 
L 422.767553 256.699686 
L 423.049528 249.880081 
L 423.19057 257.673916 
L 423.333318 248.905851 
L 423.476652 250.85431 
L 423.618017 256.699686 
L 423.759313 246.957392 
L 423.9033 249.880081 
L 424.189142 249.880081 
L 424.471598 251.828539 
L 424.614706 251.828539 
L 424.756963 254.751228 
L 424.89826 245.983163 
L 425.039539 245.008934 
L 425.179656 250.85431 
L 425.462696 244.034704 
L 425.607819 249.880081 
L 425.751112 249.880081 
L 426.033131 251.828539 
L 426.173101 248.905851 
L 426.31404 248.905851 
L 426.454333 253.776998 
L 426.598635 246.957392 
L 426.741005 246.957392 
L 426.882813 250.85431 
L 427.025578 249.880081 
L 427.166629 249.880081 
L 427.306929 248.905851 
L 427.447452 253.776998 
L 427.588148 247.931622 
L 427.729547 248.905851 
L 427.871014 248.905851 
L 428.012494 245.983163 
L 428.440437 254.751228 
L 428.723242 246.957392 
L 428.864963 247.931622 
L 429.007958 245.983163 
L 429.150341 242.086246 
L 429.290834 248.905851 
L 429.43556 247.931622 
L 429.582098 254.751228 
L 429.724583 248.905851 
L 429.866656 248.905851 
L 430.147254 251.828539 
L 430.287759 247.931622 
L 430.42834 251.828539 
L 430.570377 244.034704 
L 430.852265 251.828539 
L 430.993584 248.905851 
L 431.133331 248.905851 
L 431.273214 250.85431 
L 431.413041 248.905851 
L 431.552688 244.034704 
L 431.693762 259.622375 
L 432.116433 248.905851 
L 432.256775 251.828539 
L 432.397161 244.034704 
L 432.537371 253.776998 
L 432.67773 252.802769 
L 432.817832 255.725457 
L 432.95783 248.905851 
L 433.097792 249.880081 
L 433.237692 249.880081 
L 433.379578 248.905851 
L 433.520427 252.802769 
L 433.660862 246.957392 
L 433.800775 250.85431 
L 433.940823 247.931622 
L 434.081548 242.086246 
L 434.222183 247.931622 
L 434.362049 247.931622 
L 434.502232 250.85431 
L 434.784746 352.174167 
L 434.933262 352.174167 
L 435.35289 237.215099 
L 435.492692 239.163557 
L 435.632368 249.880081 
L 435.772079 251.828539 
L 435.914152 248.905851 
L 436.056625 248.905851 
L 436.199586 247.931622 
L 436.339637 248.905851 
L 436.619139 251.828539 
L 436.759398 245.008934 
L 436.899259 249.880081 
L 437.038985 248.905851 
L 437.17876 249.880081 
L 437.318807 254.751228 
L 437.738558 249.880081 
L 437.87829 243.060475 
L 438.018144 254.751228 
L 438.297849 252.802769 
L 438.437706 247.931622 
L 438.578005 249.880081 
L 438.719416 245.983163 
L 438.998949 252.802769 
L 439.138652 256.699686 
L 439.417991 245.983163 
L 439.557997 243.060475 
L 439.697611 254.751228 
L 439.837239 247.931622 
L 439.978041 254.751228 
L 440.121205 249.880081 
L 440.2629 250.85431 
L 440.40462 247.931622 
L 440.546134 250.85431 
L 440.829425 260.596604 
L 441.254489 239.163557 
L 441.397372 243.060475 
L 441.676981 261.570833 
L 441.956554 256.699686 
L 442.096256 248.905851 
L 442.375728 252.802769 
L 442.515395 258.648145 
L 442.796083 250.85431 
L 442.935887 254.751228 
L 443.075627 247.931622 
L 443.215341 250.85431 
L 443.355154 261.570833 
L 443.634171 253.776998 
L 443.773662 251.828539 
L 443.913974 245.983163 
L 444.054522 245.008934 
L 444.194327 247.931622 
L 444.334027 256.699686 
L 444.613503 249.880081 
L 444.753203 250.85431 
L 444.89281 245.008934 
L 445.3128 260.596604 
L 445.594952 246.957392 
L 445.734608 245.008934 
L 445.874204 245.008934 
L 446.153576 255.725457 
L 446.293182 254.751228 
L 446.572575 244.034704 
L 446.713829 244.034704 
L 446.993357 255.725457 
L 447.133082 257.673916 
L 447.413033 252.802769 
L 447.552544 244.034704 
L 447.692031 246.957392 
L 447.971352 257.673916 
L 448.111704 251.828539 
L 448.252312 260.596604 
L 448.400363 352.174167 
L 448.547545 352.174167 
L 448.990632 239.163557 
L 449.138171 245.008934 
L 449.286094 241.112016 
L 449.427381 250.85431 
L 449.568385 246.957392 
L 449.852879 250.85431 
L 449.99288 251.828539 
L 450.132856 245.983163 
L 450.412257 253.776998 
L 450.553272 247.931622 
L 450.694694 252.802769 
L 450.836976 245.008934 
L 450.978729 245.983163 
L 451.120372 245.983163 
L 451.262057 251.828539 
L 451.401839 248.905851 
L 451.541566 248.905851 
L 451.681272 242.086246 
L 451.961055 247.931622 
L 452.104367 246.957392 
L 452.244153 257.673916 
L 452.523702 246.957392 
L 452.663611 248.905851 
L 452.943263 248.905851 
L 453.082952 247.931622 
L 453.22269 251.828539 
L 453.363518 249.880081 
L 453.506005 241.112016 
L 453.794085 249.880081 
L 453.937013 249.880081 
L 454.076947 248.905851 
L 454.216957 244.034704 
L 454.356657 247.931622 
L 454.496561 246.957392 
L 454.63668 254.751228 
L 454.777229 245.008934 
L 454.920043 247.931622 
L 455.060572 245.983163 
L 455.200668 248.905851 
L 455.341528 246.957392 
L 455.482101 250.85431 
L 455.762158 243.060475 
L 456.325466 249.880081 
L 456.466176 248.905851 
L 456.606761 245.008934 
L 456.749752 246.957392 
L 456.890217 250.85431 
L 457.030795 247.931622 
L 457.170881 256.699686 
L 457.310942 253.776998 
L 457.59313 245.008934 
L 457.734335 254.751228 
L 457.876466 248.905851 
L 458.159822 250.85431 
L 458.301122 250.85431 
L 458.442939 245.008934 
L 458.583259 256.699686 
L 458.724116 244.034704 
L 459.006228 254.751228 
L 459.146347 252.802769 
L 459.427849 247.931622 
L 459.569934 246.957392 
L 459.711818 259.622375 
L 460.137948 245.008934 
L 460.420477 256.699686 
L 460.563289 252.802769 
L 460.703614 245.008934 
L 460.988884 251.828539 
L 461.129908 246.957392 
L 461.556118 253.776998 
L 461.69615 252.802769 
L 461.841125 248.905851 
L 461.986527 352.174167 
L 462.131389 352.174167 
L 462.278616 321.973056 
L 462.559541 237.215099 
L 463.125571 255.725457 
L 463.26603 249.853054 
L 463.40752 250.85431 
L 463.547888 253.776998 
L 463.83045 245.008934 
L 463.972476 247.931622 
L 464.114673 246.957392 
L 464.256114 242.086246 
L 464.398399 249.880081 
L 464.539455 248.905851 
L 464.682133 249.880081 
L 464.822758 248.905851 
L 464.963703 246.957392 
L 465.104872 242.086246 
L 465.245251 251.828539 
L 465.532054 248.905851 
L 465.81279 254.751228 
L 465.953045 248.905851 
L 466.234853 256.699686 
L 466.375547 255.725457 
L 466.51615 252.802769 
L 466.656786 256.699686 
L 466.800479 246.957392 
L 466.942267 248.905851 
L 467.085228 255.725457 
L 467.226161 255.725457 
L 467.367268 254.751228 
L 467.508215 252.802769 
L 467.652978 246.957392 
L 467.9387 257.673916 
L 468.503817 243.060475 
L 468.644539 252.802769 
L 468.78507 254.751228 
L 468.927374 251.828539 
L 469.067493 260.596604 
L 469.209659 246.957392 
L 469.355215 247.931622 
L 469.639664 255.725457 
L 469.779731 254.751228 
L 469.921619 251.828539 
L 470.063543 244.034704 
L 470.204955 245.008934 
L 470.487105 258.648145 
L 470.627935 259.622375 
L 470.769474 247.931622 
L 470.910739 246.957392 
L 471.054374 249.880081 
L 471.199457 262.545063 
L 471.763204 245.983163 
L 472.045155 258.648145 
L 472.18646 257.673916 
L 472.329186 254.751228 
L 472.619319 243.060475 
L 472.759404 253.776998 
L 472.899314 252.802769 
L 473.040592 253.776998 
L 473.322744 245.008934 
L 473.466215 248.905851 
L 473.607135 247.931622 
L 473.888757 257.673916 
L 474.170407 247.931622 
L 474.311161 250.85431 
L 474.593717 263.519292 
L 474.734136 249.880081 
L 474.875153 248.905851 
L 475.015299 246.957392 
L 475.156194 248.905851 
L 475.297219 257.673916 
L 475.438244 247.931622 
L 475.581749 352.174167 
L 475.72912 352.174167 
L 475.877173 349.251478 
L 476.159199 240.137787 
L 476.30019 237.215099 
L 476.441196 242.086246 
L 476.582136 255.725457 
L 476.863797 245.008934 
L 477.00448 245.983163 
L 477.145314 253.776998 
L 477.427099 245.983163 
L 477.56713 245.983163 
L 477.709079 253.776998 
L 477.850232 246.957392 
L 477.991963 258.648145 
L 478.273582 245.008934 
L 478.414403 250.85431 
L 478.556304 246.957392 
L 478.699902 247.931622 
L 478.841671 255.725457 
L 478.982532 253.776998 
L 479.123367 245.983163 
L 479.264607 252.802769 
L 479.548082 243.060475 
L 479.830413 256.699686 
L 479.972221 248.905851 
L 480.113108 249.880081 
L 480.254024 245.983163 
L 480.535798 249.880081 
L 480.676876 257.673916 
L 480.959221 254.751228 
L 481.243019 246.957392 
L 481.52845 254.751228 
L 481.670608 249.880081 
L 481.811953 250.85431 
L 481.953713 245.983163 
L 482.095025 248.905851 
L 482.235711 248.905851 
L 482.378272 251.828539 
L 482.519518 251.828539 
L 482.661408 250.85431 
L 482.802149 247.931622 
L 482.942294 251.828539 
L 483.083236 245.983163 
L 483.365235 255.725457 
L 483.505965 250.85431 
L 483.646603 249.880081 
L 483.787369 250.85431 
L 484.069842 245.983163 
L 484.355654 256.699686 
L 484.638721 249.880081 
L 484.779584 248.905851 
L 485.061401 253.776998 
L 485.343318 249.880081 
L 485.486692 249.880081 
L 485.626922 247.931622 
L 485.766903 251.828539 
L 485.908147 250.85431 
L 486.049011 263.519292 
L 486.190188 247.931622 
L 486.330841 250.85431 
L 486.613029 245.008934 
L 486.755118 245.008934 
L 487.037946 250.85431 
L 487.179391 247.931622 
L 487.321312 250.85431 
L 487.462746 244.034704 
L 487.887074 252.802769 
L 488.029126 246.90334 
L 488.171338 249.880081 
L 488.312628 244.034704 
L 488.45295 244.034704 
L 488.5943 245.983163 
L 488.735655 250.85431 
L 489.018622 248.905851 
L 489.158697 245.008934 
L 489.303058 352.174167 
L 489.451347 352.174167 
L 489.593387 316.127679 
L 489.7345 239.163557 
L 489.878364 232.343952 
L 490.158861 248.905851 
L 490.299007 250.85431 
L 490.439566 257.673916 
L 490.729086 255.725457 
L 491.150939 248.905851 
L 491.291498 255.725457 
L 491.572932 250.85431 
L 491.712575 257.673916 
L 491.852398 247.931622 
L 491.999076 245.983163 
L 492.425812 250.85431 
L 492.565608 247.931622 
L 492.705172 255.725457 
L 492.844757 248.905851 
L 492.984428 257.673916 
L 493.124045 254.751228 
L 493.264849 255.725457 
L 493.407386 262.545063 
L 493.695598 250.85431 
L 494.115911 256.699686 
L 494.255595 254.751228 
L 494.395319 245.008934 
L 494.676923 251.828539 
L 494.96 258.648145 
L 495.099659 251.828539 
L 495.239494 256.699686 
L 495.379103 245.008934 
L 495.518937 247.931622 
L 495.798483 262.545063 
L 496.221799 244.034704 
L 496.786287 255.725457 
L 496.926274 249.880081 
L 497.066531 251.828539 
L 497.208554 247.931622 
L 497.491473 249.880081 
L 497.63177 251.828539 
L 497.772169 247.931622 
L 497.913724 249.880081 
L 498.054184 245.008934 
L 498.194366 247.904596 
L 498.334949 245.983163 
L 498.47513 253.776998 
L 498.898327 243.060475 
L 499.038934 245.008934 
L 499.182458 258.648145 
L 499.323107 248.905851 
L 499.46348 249.880081 
L 499.604415 245.008934 
L 499.744575 246.957392 
L 499.8894 245.983163 
L 500.03027 254.751228 
L 500.170336 252.802769 
L 500.310181 263.519292 
L 500.730619 247.931622 
L 500.870567 251.828539 
L 501.01069 247.931622 
L 501.151904 252.802769 
L 501.293674 248.905851 
L 501.438864 250.85431 
L 501.578777 248.905851 
L 501.86019 253.776998 
L 502.000791 248.905851 
L 502.140652 247.931622 
L 502.422268 247.931622 
L 502.705342 252.802769 
L 502.849192 352.174167 
L 502.997286 352.174167 
L 503.147153 349.251478 
L 503.427139 234.29241 
L 503.707527 242.086246 
L 503.848737 259.622375 
L 504.129994 249.880081 
L 504.270102 251.828539 
L 504.410434 255.725457 
L 504.551199 251.828539 
L 504.691456 259.622375 
L 504.831716 259.622375 
L 505.112103 247.931622 
L 505.393267 260.596604 
L 505.537586 255.725457 
L 505.680649 254.751228 
L 505.96259 247.931622 
L 506.244895 258.648145 
L 506.525361 250.85431 
L 506.667409 253.776998 
L 506.807661 246.957392 
L 506.947568 249.880081 
L 507.088238 249.880081 
L 507.229274 255.725457 
L 507.36941 250.85431 
L 507.509694 249.880081 
L 507.650904 244.034704 
L 507.791524 255.725457 
L 507.931913 251.828539 
L 508.072477 255.725457 
L 508.21287 245.008934 
L 508.354844 249.880081 
L 508.498685 245.983163 
L 508.783064 254.751228 
L 508.922774 250.85431 
L 509.062733 250.85431 
L 509.204324 251.828539 
L 509.347827 250.85431 
L 509.62877 252.802769 
L 509.769877 255.725457 
L 510.051029 247.931622 
L 510.192077 247.931622 
L 510.331965 248.905851 
L 510.613458 260.596604 
L 510.896148 247.931622 
L 511.037058 250.85431 
L 511.179324 248.905851 
L 511.319779 255.725457 
L 511.460117 255.725457 
L 511.600345 261.570833 
L 511.880624 251.828539 
L 512.022245 249.880081 
L 512.304641 257.673916 
L 512.44567 255.725457 
L 512.587108 245.983163 
L 512.727454 250.85431 
L 512.867631 243.060475 
L 513.153281 253.776998 
L 513.294723 256.699686 
L 513.437549 255.725457 
L 513.580006 248.905851 
L 513.863586 248.905851 
L 514.004038 259.622375 
L 514.144207 255.725457 
L 514.425994 245.008934 
L 514.566533 250.85431 
L 514.709615 248.905851 
L 514.99382 252.802769 
L 515.133859 247.931622 
L 515.275409 248.905851 
L 515.415828 247.931622 
L 515.558974 248.905851 
L 515.84148 252.802769 
L 515.985167 245.008934 
L 516.125641 248.905851 
L 516.406693 243.060475 
L 516.548749 352.174167 
L 516.696456 352.174167 
L 516.844187 328.792661 
L 517.124672 240.137787 
L 517.265762 234.29241 
L 517.406149 244.034704 
L 517.546245 245.008934 
L 517.686766 252.802769 
L 517.827587 253.776998 
L 517.969055 252.802769 
L 518.250119 245.008934 
L 518.39174 245.008934 
L 518.53873 257.673916 
L 518.679839 258.648145 
L 518.820086 256.699686 
L 518.960267 249.880081 
L 519.103109 252.802769 
L 519.246034 245.983163 
L 519.533468 254.751228 
L 519.673682 256.699686 
L 519.813742 246.957392 
L 519.95523 251.828539 
L 520.100594 246.957392 
L 520.244103 257.673916 
L 520.383929 254.751228 
L 520.525349 246.957392 
L 520.665989 248.905851 
L 520.806509 246.957392 
L 520.946666 248.905851 
L 521.228489 257.673916 
L 521.509361 251.828539 
L 521.649723 245.983163 
L 521.649723 245.983163 
" style="fill:none;stroke:#1f77b4;stroke-linecap:square;stroke-width:1.5;"/>
   </g>
   <g id="patch_3">
    <path d="M 120.878594 352.174167 
L 120.878594 35.0625 
" style="fill:none;stroke:#000000;stroke-linecap:square;stroke-linejoin:miter;stroke-width:0.8;"/>
   </g>
   <g id="patch_4">
    <path d="M 540.734062 352.174167 
L 540.734062 35.0625 
" style="fill:none;stroke:#000000;stroke-linecap:square;stroke-linejoin:miter;stroke-width:0.8;"/>
   </g>
   <g id="patch_5">
    <path d="M 120.878594 352.174167 
L 540.734063 352.174167 
" style="fill:none;stroke:#000000;stroke-linecap:square;stroke-linejoin:miter;stroke-width:0.8;"/>
   </g>
   <g id="patch_6">
    <path d="M 120.878594 35.0625 
L 540.734063 35.0625 
" style="fill:none;stroke:#000000;stroke-linecap:square;stroke-linejoin:miter;stroke-width:0.8;"/>
   </g>
   <g id="legend_1">
    <g id="patch_7">
     <path d="M 563.726836 63.938438 
L 627.601836 63.938438 
Q 629.601836 63.938438 629.601836 61.938438 
L 629.601836 37.0625 
Q 629.601836 35.0625 627.601836 35.0625 
L 563.726836 35.0625 
Q 561.726836 35.0625 561.726836 37.0625 
L 561.726836 61.938438 
Q 561.726836 63.938438 563.726836 63.938438 
z
" style="fill:#ffffff;opacity:0.8;stroke:#cccccc;stroke-linejoin:miter;"/>
    </g>
    <g id="line2d_13">
     <path d="M 565.726836 49.799688 
L 585.726836 49.799688 
" style="fill:none;stroke:#1f77b4;stroke-linecap:square;stroke-width:1.5;"/>
    </g>
    <g id="line2d_14"/>
    <g id="text_13">
     <!-- queue -->
     <g transform="translate(593.726836 46.660937)scale(0.1 -0.1)">
      <use xlink:href="#DejaVuSans-113"/>
      <use x="63.476562" xlink:href="#DejaVuSans-117"/>
      <use x="126.855469" xlink:href="#DejaVuSans-101"/>
      <use x="188.378906" xlink:href="#DejaVuSans-117"/>
      <use x="251.757812" xlink:href="#DejaVuSans-101"/>
     </g>
     <!-- length -->
     <defs>
      <path d="M 9.421875 75.984375 
L 18.40625 75.984375 
L 18.40625 0 
L 9.421875 0 
z
" id="DejaVuSans-108"/>
      <path d="M 54.890625 33.015625 
L 54.890625 0 
L 45.90625 0 
L 45.90625 32.71875 
Q 45.90625 40.484375 42.875 44.328125 
Q 39.84375 48.1875 33.796875 48.1875 
Q 26.515625 48.1875 22.3125 43.546875 
Q 18.109375 38.921875 18.109375 30.90625 
L 18.109375 0 
L 9.078125 0 
L 9.078125 54.6875 
L 18.109375 54.6875 
L 18.109375 46.1875 
Q 21.34375 51.125 25.703125 53.5625 
Q 30.078125 56 35.796875 56 
Q 45.21875 56 50.046875 50.171875 
Q 54.890625 44.34375 54.890625 33.015625 
z
" id="DejaVuSans-110"/>
      <path d="M 45.40625 27.984375 
Q 45.40625 37.75 41.375 43.109375 
Q 37.359375 48.484375 30.078125 48.484375 
Q 22.859375 48.484375 18.828125 43.109375 
Q 14.796875 37.75 14.796875 27.984375 
Q 14.796875 18.265625 18.828125 12.890625 
Q 22.859375 7.515625 30.078125 7.515625 
Q 37.359375 7.515625 41.375 12.890625 
Q 45.40625 18.265625 45.40625 27.984375 
z
M 54.390625 6.78125 
Q 54.390625 -7.171875 48.1875 -13.984375 
Q 42 -20.796875 29.203125 -20.796875 
Q 24.46875 -20.796875 20.265625 -20.09375 
Q 16.0625 -19.390625 12.109375 -17.921875 
L 12.109375 -9.1875 
Q 16.0625 -11.328125 19.921875 -12.34375 
Q 23.78125 -13.375 27.78125 -13.375 
Q 36.625 -13.375 41.015625 -8.765625 
Q 45.40625 -4.15625 45.40625 5.171875 
L 45.40625 9.625 
Q 42.625 4.78125 38.28125 2.390625 
Q 33.9375 0 27.875 0 
Q 17.828125 0 11.671875 7.65625 
Q 5.515625 15.328125 5.515625 27.984375 
Q 5.515625 40.671875 11.671875 48.328125 
Q 17.828125 56 27.875 56 
Q 33.9375 56 38.28125 53.609375 
Q 42.625 51.21875 45.40625 46.390625 
L 45.40625 54.6875 
L 54.390625 54.6875 
z
" id="DejaVuSans-103"/>
      <path d="M 54.890625 33.015625 
L 54.890625 0 
L 45.90625 0 
L 45.90625 32.71875 
Q 45.90625 40.484375 42.875 44.328125 
Q 39.84375 48.1875 33.796875 48.1875 
Q 26.515625 48.1875 22.3125 43.546875 
Q 18.109375 38.921875 18.109375 30.90625 
L 18.109375 0 
L 9.078125 0 
L 9.078125 75.984375 
L 18.109375 75.984375 
L 18.109375 46.1875 
Q 21.34375 51.125 25.703125 53.5625 
Q 30.078125 56 35.796875 56 
Q 45.21875 56 50.046875 50.171875 
Q 54.890625 44.34375 54.890625 33.015625 
z
" id="DejaVuSans-104"/>
     </defs>
     <g transform="translate(593.726836 57.85875)scale(0.1 -0.1)">
      <use xlink:href="#DejaVuSans-108"/>
      <use x="27.783203" xlink:href="#DejaVuSans-101"/>
      <use x="89.306641" xlink:href="#DejaVuSans-110"/>
      <use x="152.685547" xlink:href="#DejaVuSans-103"/>
      <use x="216.162109" xlink:href="#DejaVuSans-116"/>
      <use x="255.371094" xlink:href="#DejaVuSans-104"/>
     </g>
    </g>
   </g>
  </g>
  <g id="text_14">
   <!-- result queue (bytes) -->
   <defs>
    <path d="M 41.109375 46.296875 
Q 39.59375 47.171875 37.8125 47.578125 
Q 36.03125 48 33.890625 48 
Q 26.265625 48 22.1875 43.046875 
Q 18.109375 38.09375 18.109375 28.8125 
L 18.109375 0 
L 9.078125 0 
L 9.078125 54.6875 
L 18.109375 54.6875 
L 18.109375 46.1875 
Q 20.953125 51.171875 25.484375 53.578125 
Q 30.03125 56 36.53125 56 
Q 37.453125 56 38.578125 55.875 
Q 39.703125 55.765625 41.0625 55.515625 
z
" id="DejaVuSans-114"/>
    <path id="DejaVuSans-32"/>
   </defs>
   <g transform="translate(281.072812 17.038125)scale(0.12 -0.12)">
    <use xlink:href="#DejaVuSans-114"/>
    <use x="41.082031" xlink:href="#DejaVuSans-101"/>
    <use x="102.605469" xlink:href="#DejaVuSans-115"/>
    <use x="154.705078" xlink:href="#DejaVuSans-117"/>
    <use x="218.083984" xlink:href="#DejaVuSans-108"/>
    <use x="245.867188" xlink:href="#DejaVuSans-116"/>
    <use x="285.076172" xlink:href="#DejaVuSans-32"/>
    <use x="316.863281" xlink:href="#DejaVuSans-113"/>
    <use x="380.339844" xlink:href="#DejaVuSans-117"/>
    <use x="443.71875" xlink:href="#DejaVuSans-101"/>
    <use x="505.242188" xlink:href="#DejaVuSans-117"/>
    <use x="568.621094" xlink:href="#DejaVuSans-101"/>
    <use x="630.144531" xlink:href="#DejaVuSans-32"/>
    <use x="661.931641" xlink:href="#DejaVuSans-40"/>
    <use x="700.945312" xlink:href="#DejaVuSans-98"/>
    <use x="764.421875" xlink:href="#DejaVuSans-121"/>
    <use x="823.601562" xlink:href="#DejaVuSans-116"/>
    <use x="862.810547" xlink:href="#DejaVuSans-101"/>
    <use x="924.333984" xlink:href="#DejaVuSans-115"/>
    <use x="976.433594" xlink:href="#DejaVuSans-41"/>
   </g>
  </g>
 </g>
 <defs>
  <clipPath id="pa4bfd85150">
   <rect height="317.111667" width="419.855469" x="120.878594" y="35.0625"/>
  </clipPath>
 </defs>
</svg>
