<?xml version="1.0" encoding="utf-8" standalone="no"?>
<!DOCTYPE svg PUBLIC "-//W3C//DTD SVG 1.1//EN"
  "http://www.w3.org/Graphics/SVG/1.1/DTD/svg11.dtd">
<!-- Created with matplotlib (https://matplotlib.org/) -->
<svg height="396pt" version="1.1" viewBox="0 0 684 396" width="684pt" xmlns="http://www.w3.org/2000/svg" xmlns:xlink="http://www.w3.org/1999/xlink">
 <defs>
  <style type="text/css">
*{stroke-linecap:butt;stroke-linejoin:round;}
  </style>
 </defs>
 <g id="figure_1">
  <g id="patch_1">
   <path d="M 0 396 
L 684 396 
L 684 0 
L 0 0 
z
" style="fill:#ffffff;"/>
  </g>
  <g id="axes_1">
   <g id="patch_2">
    <path d="M 70.834375 352.174167 
L 516.019219 352.174167 
L 516.019219 35.0625 
L 70.834375 35.0625 
z
" style="fill:#ffffff;"/>
   </g>
   <g id="matplotlib.axis_1">
    <g id="xtick_1">
     <g id="line2d_1">
      <defs>
       <path d="M 0 0 
L 0 3.5 
" id="m85dc01e240" style="stroke:#000000;stroke-width:0.8;"/>
      </defs>
      <g>
       <use style="stroke:#000000;stroke-width:0.8;" x="95.259729" xlink:href="#m85dc01e240" y="352.174167"/>
      </g>
     </g>
     <g id="text_1">
      <!-- 0 -->
      <defs>
       <path d="M 31.78125 66.40625 
Q 24.171875 66.40625 20.328125 58.90625 
Q 16.5 51.421875 16.5 36.375 
Q 16.5 21.390625 20.328125 13.890625 
Q 24.171875 6.390625 31.78125 6.390625 
Q 39.453125 6.390625 43.28125 13.890625 
Q 47.125 21.390625 47.125 36.375 
Q 47.125 51.421875 43.28125 58.90625 
Q 39.453125 66.40625 31.78125 66.40625 
z
M 31.78125 74.21875 
Q 44.046875 74.21875 50.515625 64.515625 
Q 56.984375 54.828125 56.984375 36.375 
Q 56.984375 17.96875 50.515625 8.265625 
Q 44.046875 -1.421875 31.78125 -1.421875 
Q 19.53125 -1.421875 13.0625 8.265625 
Q 6.59375 17.96875 6.59375 36.375 
Q 6.59375 54.828125 13.0625 64.515625 
Q 19.53125 74.21875 31.78125 74.21875 
z
" id="DejaVuSans-48"/>
      </defs>
      <g transform="translate(92.078479 366.772604)scale(0.1 -0.1)">
       <use xlink:href="#DejaVuSans-48"/>
      </g>
     </g>
    </g>
    <g id="xtick_2">
     <g id="line2d_2">
      <g>
       <use style="stroke:#000000;stroke-width:0.8;" x="165.643789" xlink:href="#m85dc01e240" y="352.174167"/>
      </g>
     </g>
     <g id="text_2">
      <!-- 50 -->
      <defs>
       <path d="M 10.796875 72.90625 
L 49.515625 72.90625 
L 49.515625 64.59375 
L 19.828125 64.59375 
L 19.828125 46.734375 
Q 21.96875 47.46875 24.109375 47.828125 
Q 26.265625 48.1875 28.421875 48.1875 
Q 40.625 48.1875 47.75 41.5 
Q 54.890625 34.8125 54.890625 23.390625 
Q 54.890625 11.625 47.5625 5.09375 
Q 40.234375 -1.421875 26.90625 -1.421875 
Q 22.3125 -1.421875 17.546875 -0.640625 
Q 12.796875 0.140625 7.71875 1.703125 
L 7.71875 11.625 
Q 12.109375 9.234375 16.796875 8.0625 
Q 21.484375 6.890625 26.703125 6.890625 
Q 35.15625 6.890625 40.078125 11.328125 
Q 45.015625 15.765625 45.015625 23.390625 
Q 45.015625 31 40.078125 35.4375 
Q 35.15625 39.890625 26.703125 39.890625 
Q 22.75 39.890625 18.8125 39.015625 
Q 14.890625 38.140625 10.796875 36.28125 
z
" id="DejaVuSans-53"/>
      </defs>
      <g transform="translate(159.281289 366.772604)scale(0.1 -0.1)">
       <use xlink:href="#DejaVuSans-53"/>
       <use x="63.623047" xlink:href="#DejaVuSans-48"/>
      </g>
     </g>
    </g>
    <g id="xtick_3">
     <g id="line2d_3">
      <g>
       <use style="stroke:#000000;stroke-width:0.8;" x="236.027848" xlink:href="#m85dc01e240" y="352.174167"/>
      </g>
     </g>
     <g id="text_3">
      <!-- 100 -->
      <defs>
       <path d="M 12.40625 8.296875 
L 28.515625 8.296875 
L 28.515625 63.921875 
L 10.984375 60.40625 
L 10.984375 69.390625 
L 28.421875 72.90625 
L 38.28125 72.90625 
L 38.28125 8.296875 
L 54.390625 8.296875 
L 54.390625 0 
L 12.40625 0 
z
" id="DejaVuSans-49"/>
      </defs>
      <g transform="translate(226.484098 366.772604)scale(0.1 -0.1)">
       <use xlink:href="#DejaVuSans-49"/>
       <use x="63.623047" xlink:href="#DejaVuSans-48"/>
       <use x="127.246094" xlink:href="#DejaVuSans-48"/>
      </g>
     </g>
    </g>
    <g id="xtick_4">
     <g id="line2d_4">
      <g>
       <use style="stroke:#000000;stroke-width:0.8;" x="306.411907" xlink:href="#m85dc01e240" y="352.174167"/>
      </g>
     </g>
     <g id="text_4">
      <!-- 150 -->
      <g transform="translate(296.868157 366.772604)scale(0.1 -0.1)">
       <use xlink:href="#DejaVuSans-49"/>
       <use x="63.623047" xlink:href="#DejaVuSans-53"/>
       <use x="127.246094" xlink:href="#DejaVuSans-48"/>
      </g>
     </g>
    </g>
    <g id="xtick_5">
     <g id="line2d_5">
      <g>
       <use style="stroke:#000000;stroke-width:0.8;" x="376.795967" xlink:href="#m85dc01e240" y="352.174167"/>
      </g>
     </g>
     <g id="text_5">
      <!-- 200 -->
      <defs>
       <path d="M 19.1875 8.296875 
L 53.609375 8.296875 
L 53.609375 0 
L 7.328125 0 
L 7.328125 8.296875 
Q 12.9375 14.109375 22.625 23.890625 
Q 32.328125 33.6875 34.8125 36.53125 
Q 39.546875 41.84375 41.421875 45.53125 
Q 43.3125 49.21875 43.3125 52.78125 
Q 43.3125 58.59375 39.234375 62.25 
Q 35.15625 65.921875 28.609375 65.921875 
Q 23.96875 65.921875 18.8125 64.3125 
Q 13.671875 62.703125 7.8125 59.421875 
L 7.8125 69.390625 
Q 13.765625 71.78125 18.9375 73 
Q 24.125 74.21875 28.421875 74.21875 
Q 39.75 74.21875 46.484375 68.546875 
Q 53.21875 62.890625 53.21875 53.421875 
Q 53.21875 48.921875 51.53125 44.890625 
Q 49.859375 40.875 45.40625 35.40625 
Q 44.1875 33.984375 37.640625 27.21875 
Q 31.109375 20.453125 19.1875 8.296875 
z
" id="DejaVuSans-50"/>
      </defs>
      <g transform="translate(367.252217 366.772604)scale(0.1 -0.1)">
       <use xlink:href="#DejaVuSans-50"/>
       <use x="63.623047" xlink:href="#DejaVuSans-48"/>
       <use x="127.246094" xlink:href="#DejaVuSans-48"/>
      </g>
     </g>
    </g>
    <g id="xtick_6">
     <g id="line2d_6">
      <g>
       <use style="stroke:#000000;stroke-width:0.8;" x="447.180026" xlink:href="#m85dc01e240" y="352.174167"/>
      </g>
     </g>
     <g id="text_6">
      <!-- 250 -->
      <g transform="translate(437.636276 366.772604)scale(0.1 -0.1)">
       <use xlink:href="#DejaVuSans-50"/>
       <use x="63.623047" xlink:href="#DejaVuSans-53"/>
       <use x="127.246094" xlink:href="#DejaVuSans-48"/>
      </g>
     </g>
    </g>
   </g>
   <g id="matplotlib.axis_2">
    <g id="ytick_1">
     <g id="line2d_7">
      <defs>
       <path d="M 0 0 
L -3.5 0 
" id="m1a23a18dad" style="stroke:#000000;stroke-width:0.8;"/>
      </defs>
      <g>
       <use style="stroke:#000000;stroke-width:0.8;" x="70.834375" xlink:href="#m1a23a18dad" y="352.174167"/>
      </g>
     </g>
     <g id="text_7">
      <!-- 0.0 -->
      <defs>
       <path d="M 10.6875 12.40625 
L 21 12.40625 
L 21 0 
L 10.6875 0 
z
" id="DejaVuSans-46"/>
      </defs>
      <g transform="translate(47.93125 355.973385)scale(0.1 -0.1)">
       <use xlink:href="#DejaVuSans-48"/>
       <use x="63.623047" xlink:href="#DejaVuSans-46"/>
       <use x="95.410156" xlink:href="#DejaVuSans-48"/>
      </g>
     </g>
    </g>
    <g id="ytick_2">
     <g id="line2d_8">
      <g>
       <use style="stroke:#000000;stroke-width:0.8;" x="70.834375" xlink:href="#m1a23a18dad" y="309.832209"/>
      </g>
     </g>
     <g id="text_8">
      <!-- 0.5 -->
      <g transform="translate(47.93125 313.631428)scale(0.1 -0.1)">
       <use xlink:href="#DejaVuSans-48"/>
       <use x="63.623047" xlink:href="#DejaVuSans-46"/>
       <use x="95.410156" xlink:href="#DejaVuSans-53"/>
      </g>
     </g>
    </g>
    <g id="ytick_3">
     <g id="line2d_9">
      <g>
       <use style="stroke:#000000;stroke-width:0.8;" x="70.834375" xlink:href="#m1a23a18dad" y="267.490251"/>
      </g>
     </g>
     <g id="text_9">
      <!-- 1.0 -->
      <g transform="translate(47.93125 271.28947)scale(0.1 -0.1)">
       <use xlink:href="#DejaVuSans-49"/>
       <use x="63.623047" xlink:href="#DejaVuSans-46"/>
       <use x="95.410156" xlink:href="#DejaVuSans-48"/>
      </g>
     </g>
    </g>
    <g id="ytick_4">
     <g id="line2d_10">
      <g>
       <use style="stroke:#000000;stroke-width:0.8;" x="70.834375" xlink:href="#m1a23a18dad" y="225.148293"/>
      </g>
     </g>
     <g id="text_10">
      <!-- 1.5 -->
      <g transform="translate(47.93125 228.947512)scale(0.1 -0.1)">
       <use xlink:href="#DejaVuSans-49"/>
       <use x="63.623047" xlink:href="#DejaVuSans-46"/>
       <use x="95.410156" xlink:href="#DejaVuSans-53"/>
      </g>
     </g>
    </g>
    <g id="ytick_5">
     <g id="line2d_11">
      <g>
       <use style="stroke:#000000;stroke-width:0.8;" x="70.834375" xlink:href="#m1a23a18dad" y="182.806336"/>
      </g>
     </g>
     <g id="text_11">
      <!-- 2.0 -->
      <g transform="translate(47.93125 186.605554)scale(0.1 -0.1)">
       <use xlink:href="#DejaVuSans-50"/>
       <use x="63.623047" xlink:href="#DejaVuSans-46"/>
       <use x="95.410156" xlink:href="#DejaVuSans-48"/>
      </g>
     </g>
    </g>
    <g id="ytick_6">
     <g id="line2d_12">
      <g>
       <use style="stroke:#000000;stroke-width:0.8;" x="70.834375" xlink:href="#m1a23a18dad" y="140.464378"/>
      </g>
     </g>
     <g id="text_12">
      <!-- 2.5 -->
      <g transform="translate(47.93125 144.263597)scale(0.1 -0.1)">
       <use xlink:href="#DejaVuSans-50"/>
       <use x="63.623047" xlink:href="#DejaVuSans-46"/>
       <use x="95.410156" xlink:href="#DejaVuSans-53"/>
      </g>
     </g>
    </g>
    <g id="ytick_7">
     <g id="line2d_13">
      <g>
       <use style="stroke:#000000;stroke-width:0.8;" x="70.834375" xlink:href="#m1a23a18dad" y="98.12242"/>
      </g>
     </g>
     <g id="text_13">
      <!-- 3.0 -->
      <defs>
       <path d="M 40.578125 39.3125 
Q 47.65625 37.796875 51.625 33 
Q 55.609375 28.21875 55.609375 21.1875 
Q 55.609375 10.40625 48.1875 4.484375 
Q 40.765625 -1.421875 27.09375 -1.421875 
Q 22.515625 -1.421875 17.65625 -0.515625 
Q 12.796875 0.390625 7.625 2.203125 
L 7.625 11.71875 
Q 11.71875 9.328125 16.59375 8.109375 
Q 21.484375 6.890625 26.8125 6.890625 
Q 36.078125 6.890625 40.9375 10.546875 
Q 45.796875 14.203125 45.796875 21.1875 
Q 45.796875 27.640625 41.28125 31.265625 
Q 36.765625 34.90625 28.71875 34.90625 
L 20.21875 34.90625 
L 20.21875 43.015625 
L 29.109375 43.015625 
Q 36.375 43.015625 40.234375 45.921875 
Q 44.09375 48.828125 44.09375 54.296875 
Q 44.09375 59.90625 40.109375 62.90625 
Q 36.140625 65.921875 28.71875 65.921875 
Q 24.65625 65.921875 20.015625 65.03125 
Q 15.375 64.15625 9.8125 62.3125 
L 9.8125 71.09375 
Q 15.4375 72.65625 20.34375 73.4375 
Q 25.25 74.21875 29.59375 74.21875 
Q 40.828125 74.21875 47.359375 69.109375 
Q 53.90625 64.015625 53.90625 55.328125 
Q 53.90625 49.265625 50.4375 45.09375 
Q 46.96875 40.921875 40.578125 39.3125 
z
" id="DejaVuSans-51"/>
      </defs>
      <g transform="translate(47.93125 101.921639)scale(0.1 -0.1)">
       <use xlink:href="#DejaVuSans-51"/>
       <use x="63.623047" xlink:href="#DejaVuSans-46"/>
       <use x="95.410156" xlink:href="#DejaVuSans-48"/>
      </g>
     </g>
    </g>
    <g id="ytick_8">
     <g id="line2d_14">
      <g>
       <use style="stroke:#000000;stroke-width:0.8;" x="70.834375" xlink:href="#m1a23a18dad" y="55.780462"/>
      </g>
     </g>
     <g id="text_14">
      <!-- 3.5 -->
      <g transform="translate(47.93125 59.579681)scale(0.1 -0.1)">
       <use xlink:href="#DejaVuSans-51"/>
       <use x="63.623047" xlink:href="#DejaVuSans-46"/>
       <use x="95.410156" xlink:href="#DejaVuSans-53"/>
      </g>
     </g>
    </g>
    <g id="text_15">
     <!-- droprate -->
     <defs>
      <path d="M 45.40625 46.390625 
L 45.40625 75.984375 
L 54.390625 75.984375 
L 54.390625 0 
L 45.40625 0 
L 45.40625 8.203125 
Q 42.578125 3.328125 38.25 0.953125 
Q 33.9375 -1.421875 27.875 -1.421875 
Q 17.96875 -1.421875 11.734375 6.484375 
Q 5.515625 14.40625 5.515625 27.296875 
Q 5.515625 40.1875 11.734375 48.09375 
Q 17.96875 56 27.875 56 
Q 33.9375 56 38.25 53.625 
Q 42.578125 51.265625 45.40625 46.390625 
z
M 14.796875 27.296875 
Q 14.796875 17.390625 18.875 11.75 
Q 22.953125 6.109375 30.078125 6.109375 
Q 37.203125 6.109375 41.296875 11.75 
Q 45.40625 17.390625 45.40625 27.296875 
Q 45.40625 37.203125 41.296875 42.84375 
Q 37.203125 48.484375 30.078125 48.484375 
Q 22.953125 48.484375 18.875 42.84375 
Q 14.796875 37.203125 14.796875 27.296875 
z
" id="DejaVuSans-100"/>
      <path d="M 41.109375 46.296875 
Q 39.59375 47.171875 37.8125 47.578125 
Q 36.03125 48 33.890625 48 
Q 26.265625 48 22.1875 43.046875 
Q 18.109375 38.09375 18.109375 28.8125 
L 18.109375 0 
L 9.078125 0 
L 9.078125 54.6875 
L 18.109375 54.6875 
L 18.109375 46.1875 
Q 20.953125 51.171875 25.484375 53.578125 
Q 30.03125 56 36.53125 56 
Q 37.453125 56 38.578125 55.875 
Q 39.703125 55.765625 41.0625 55.515625 
z
" id="DejaVuSans-114"/>
      <path d="M 30.609375 48.390625 
Q 23.390625 48.390625 19.1875 42.75 
Q 14.984375 37.109375 14.984375 27.296875 
Q 14.984375 17.484375 19.15625 11.84375 
Q 23.34375 6.203125 30.609375 6.203125 
Q 37.796875 6.203125 41.984375 11.859375 
Q 46.1875 17.53125 46.1875 27.296875 
Q 46.1875 37.015625 41.984375 42.703125 
Q 37.796875 48.390625 30.609375 48.390625 
z
M 30.609375 56 
Q 42.328125 56 49.015625 48.375 
Q 55.71875 40.765625 55.71875 27.296875 
Q 55.71875 13.875 49.015625 6.21875 
Q 42.328125 -1.421875 30.609375 -1.421875 
Q 18.84375 -1.421875 12.171875 6.21875 
Q 5.515625 13.875 5.515625 27.296875 
Q 5.515625 40.765625 12.171875 48.375 
Q 18.84375 56 30.609375 56 
z
" id="DejaVuSans-111"/>
      <path d="M 18.109375 8.203125 
L 18.109375 -20.796875 
L 9.078125 -20.796875 
L 9.078125 54.6875 
L 18.109375 54.6875 
L 18.109375 46.390625 
Q 20.953125 51.265625 25.265625 53.625 
Q 29.59375 56 35.59375 56 
Q 45.5625 56 51.78125 48.09375 
Q 58.015625 40.1875 58.015625 27.296875 
Q 58.015625 14.40625 51.78125 6.484375 
Q 45.5625 -1.421875 35.59375 -1.421875 
Q 29.59375 -1.421875 25.265625 0.953125 
Q 20.953125 3.328125 18.109375 8.203125 
z
M 48.6875 27.296875 
Q 48.6875 37.203125 44.609375 42.84375 
Q 40.53125 48.484375 33.40625 48.484375 
Q 26.265625 48.484375 22.1875 42.84375 
Q 18.109375 37.203125 18.109375 27.296875 
Q 18.109375 17.390625 22.1875 11.75 
Q 26.265625 6.109375 33.40625 6.109375 
Q 40.53125 6.109375 44.609375 11.75 
Q 48.6875 17.390625 48.6875 27.296875 
z
" id="DejaVuSans-112"/>
      <path d="M 34.28125 27.484375 
Q 23.390625 27.484375 19.1875 25 
Q 14.984375 22.515625 14.984375 16.5 
Q 14.984375 11.71875 18.140625 8.90625 
Q 21.296875 6.109375 26.703125 6.109375 
Q 34.1875 6.109375 38.703125 11.40625 
Q 43.21875 16.703125 43.21875 25.484375 
L 43.21875 27.484375 
z
M 52.203125 31.203125 
L 52.203125 0 
L 43.21875 0 
L 43.21875 8.296875 
Q 40.140625 3.328125 35.546875 0.953125 
Q 30.953125 -1.421875 24.3125 -1.421875 
Q 15.921875 -1.421875 10.953125 3.296875 
Q 6 8.015625 6 15.921875 
Q 6 25.140625 12.171875 29.828125 
Q 18.359375 34.515625 30.609375 34.515625 
L 43.21875 34.515625 
L 43.21875 35.40625 
Q 43.21875 41.609375 39.140625 45 
Q 35.0625 48.390625 27.6875 48.390625 
Q 23 48.390625 18.546875 47.265625 
Q 14.109375 46.140625 10.015625 43.890625 
L 10.015625 52.203125 
Q 14.9375 54.109375 19.578125 55.046875 
Q 24.21875 56 28.609375 56 
Q 40.484375 56 46.34375 49.84375 
Q 52.203125 43.703125 52.203125 31.203125 
z
" id="DejaVuSans-97"/>
      <path d="M 18.3125 70.21875 
L 18.3125 54.6875 
L 36.8125 54.6875 
L 36.8125 47.703125 
L 18.3125 47.703125 
L 18.3125 18.015625 
Q 18.3125 11.328125 20.140625 9.421875 
Q 21.96875 7.515625 27.59375 7.515625 
L 36.8125 7.515625 
L 36.8125 0 
L 27.59375 0 
Q 17.1875 0 13.234375 3.875 
Q 9.28125 7.765625 9.28125 18.015625 
L 9.28125 47.703125 
L 2.6875 47.703125 
L 2.6875 54.6875 
L 9.28125 54.6875 
L 9.28125 70.21875 
z
" id="DejaVuSans-116"/>
      <path d="M 56.203125 29.59375 
L 56.203125 25.203125 
L 14.890625 25.203125 
Q 15.484375 15.921875 20.484375 11.0625 
Q 25.484375 6.203125 34.421875 6.203125 
Q 39.59375 6.203125 44.453125 7.46875 
Q 49.3125 8.734375 54.109375 11.28125 
L 54.109375 2.78125 
Q 49.265625 0.734375 44.1875 -0.34375 
Q 39.109375 -1.421875 33.890625 -1.421875 
Q 20.796875 -1.421875 13.15625 6.1875 
Q 5.515625 13.8125 5.515625 26.8125 
Q 5.515625 40.234375 12.765625 48.109375 
Q 20.015625 56 32.328125 56 
Q 43.359375 56 49.78125 48.890625 
Q 56.203125 41.796875 56.203125 29.59375 
z
M 47.21875 32.234375 
Q 47.125 39.59375 43.09375 43.984375 
Q 39.0625 48.390625 32.421875 48.390625 
Q 24.90625 48.390625 20.390625 44.140625 
Q 15.875 39.890625 15.1875 32.171875 
z
" id="DejaVuSans-101"/>
     </defs>
     <g transform="translate(41.851562 215.236302)rotate(-90)scale(0.1 -0.1)">
      <use xlink:href="#DejaVuSans-100"/>
      <use x="63.476562" xlink:href="#DejaVuSans-114"/>
      <use x="104.558594" xlink:href="#DejaVuSans-111"/>
      <use x="165.740234" xlink:href="#DejaVuSans-112"/>
      <use x="229.216797" xlink:href="#DejaVuSans-114"/>
      <use x="270.330078" xlink:href="#DejaVuSans-97"/>
      <use x="331.609375" xlink:href="#DejaVuSans-116"/>
      <use x="370.818359" xlink:href="#DejaVuSans-101"/>
     </g>
    </g>
   </g>
   <g id="line2d_15">
    <path clip-path="url(#pa9deb434a2)" d="M 91.07005 352.174167 
L 96.011094 352.174167 
L 96.164897 128.391914 
L 96.316052 352.174167 
L 97.666827 352.174167 
L 97.816222 50.163056 
L 97.966733 352.174167 
L 100.37939 352.174167 
L 100.527499 194.453407 
L 100.825332 352.174167 
L 103.057214 352.174167 
L 103.206943 279.89771 
L 103.356615 352.174167 
L 104.848178 352.174167 
L 104.99708 315.829139 
L 105.145871 352.174167 
L 106.944551 352.174167 
L 107.094879 340.179278 
L 107.243946 315.829139 
L 107.393198 352.174167 
L 109.795997 352.174167 
L 109.948183 316.59269 
L 110.097802 352.174167 
L 110.696408 352.174167 
L 110.845473 291.685656 
L 110.994225 352.174167 
L 112.345129 352.174167 
L 112.494294 315.984459 
L 112.642952 352.174167 
L 113.843753 352.174167 
L 113.994378 304.262475 
L 114.143911 352.174167 
L 115.94237 352.174167 
L 116.093609 316.291152 
L 116.241931 352.174167 
L 117.435994 352.174167 
L 117.584261 303.50525 
L 117.732878 352.174167 
L 120.116502 352.174167 
L 120.264456 327.874621 
L 120.413625 352.174167 
L 121.303413 352.174167 
L 121.451775 315.619959 
L 121.600108 352.174167 
L 122.505482 352.174167 
L 122.657001 328.353093 
L 122.961827 352.174167 
L 124.473469 352.174167 
L 124.625452 328.419913 
L 124.775501 352.174167 
L 125.373624 352.174167 
L 125.524217 316.1895 
L 125.672823 352.174167 
L 127.932695 352.174167 
L 128.083479 316.392231 
L 128.235149 352.174167 
L 129.279131 352.174167 
L 129.427777 340.024394 
L 129.578068 340.145201 
L 129.72582 352.174167 
L 130.325971 352.174167 
L 130.473721 327.804695 
L 130.621376 352.174167 
L 131.221193 352.174167 
L 131.372164 292.621483 
L 131.520072 352.174167 
L 134.206664 352.174167 
L 134.354886 291.33802 
L 134.50593 352.174167 
L 136.003626 352.174167 
L 136.153441 340.145201 
L 136.30246 352.174167 
L 136.900759 352.174167 
L 137.051601 340.196244 
L 137.200929 352.174167 
L 137.798965 352.174167 
L 137.949401 316.138458 
L 138.101604 352.174167 
L 140.210942 352.174167 
L 140.359677 340.093722 
L 140.508899 340.041801 
L 140.659662 352.174167 
L 142.023357 352.174167 
L 142.172152 340.093722 
L 142.32169 352.174167 
L 142.927725 352.174167 
L 143.07773 303.921223 
L 143.227408 352.174167 
L 145.028224 352.174167 
L 145.178725 316.138458 
L 145.327569 352.174167 
L 147.584773 352.174167 
L 147.738918 328.748464 
L 147.886892 352.174167 
L 149.394741 352.174167 
L 149.545808 304.330147 
L 149.696852 352.174167 
L 150.901966 352.174167 
L 151.05664 328.716018 
L 151.205455 352.174167 
L 152.868892 352.174167 
L 153.020236 316.392231 
L 153.170703 352.174167 
L 153.621627 352.174167 
L 153.770954 328.013278 
L 153.924336 352.174167 
L 155.583948 352.174167 
L 155.885641 328.252157 
L 156.034684 352.174167 
L 157.244272 352.174167 
L 157.395977 316.492742 
L 157.545234 352.174167 
L 159.667797 352.174167 
L 159.817615 328.116236 
L 159.967945 352.174167 
L 161.329445 352.174167 
L 161.47908 340.145201 
L 161.630959 352.174167 
L 162.234015 352.174167 
L 162.384551 328.150361 
L 162.687379 352.174167 
L 163.892496 352.174167 
L 164.043441 328.252157 
L 164.192252 352.174167 
L 164.944804 352.174167 
L 165.093545 327.874621 
L 165.242721 352.174167 
L 166.59742 352.174167 
L 166.749373 328.519442 
L 167.047225 352.174167 
L 168.104609 352.174167 
L 168.254731 328.184389 
L 168.40574 352.174167 
L 169.472006 352.174167 
L 169.625403 305.062114 
L 169.774972 352.174167 
L 171.430625 352.174167 
L 171.582446 316.392231 
L 171.731873 352.174167 
L 172.934444 352.174167 
L 173.08312 327.909434 
L 173.231492 352.174167 
L 174.423651 352.174167 
L 174.5717 339.971873 
L 174.720233 352.174167 
L 175.166549 352.174167 
L 175.315116 315.724849 
L 175.463667 352.174167 
L 176.512024 352.174167 
L 176.66036 279.275531 
L 176.808902 352.174167 
L 179.675961 352.174167 
L 179.82473 327.909434 
L 179.973785 352.174167 
L 181.178365 352.174167 
L 181.327211 327.909434 
L 181.624121 352.174167 
L 182.827278 352.174167 
L 182.978077 328.218321 
L 183.127567 352.174167 
L 184.951605 352.174167 
L 185.100679 340.145201 
L 185.251093 352.174167 
L 185.548046 352.174167 
L 185.698028 328.082014 
L 185.846613 352.174167 
L 186.145592 352.174167 
L 186.454055 328.683483 
L 186.603504 352.174167 
L 187.648511 352.174167 
L 187.797347 315.777068 
L 187.950165 352.174167 
L 189.147606 352.174167 
L 189.297507 340.179278 
L 189.447064 352.174167 
L 189.745768 328.013278 
L 189.894892 352.174167 
L 190.504289 352.174167 
L 190.660209 305.322761 
L 190.808694 352.174167 
L 192.16278 352.174167 
L 192.310906 339.989431 
L 192.458933 303.435222 
L 192.610622 352.174167 
L 194.557172 352.174167 
L 194.710276 316.642454 
L 194.861328 352.174167 
L 196.956952 352.174167 
L 197.105122 327.874621 
L 197.257128 352.174167 
L 198.300989 352.174167 
L 198.450122 328.047695 
L 198.750616 352.174167 
L 200.242703 352.174167 
L 200.391897 303.714129 
L 200.541723 352.174167 
L 201.897244 352.174167 
L 202.045682 340.059157 
L 202.194708 340.076464 
L 202.343389 352.174167 
L 203.53334 352.174167 
L 203.681901 303.575076 
L 203.833497 352.174167 
L 205.325771 352.174167 
L 205.473377 327.734364 
L 205.620995 352.174167 
L 206.215427 352.174167 
L 206.363136 327.699047 
L 206.511055 352.174167 
L 207.872155 352.174167 
L 208.023444 304.464918 
L 208.171719 352.174167 
L 209.52515 352.174167 
L 209.675106 340.12809 
L 209.830988 352.174167 
L 210.578332 352.174167 
L 210.731259 316.642454 
L 210.880089 352.174167 
L 212.224678 352.174167 
L 212.373094 303.575076 
L 212.523424 352.174167 
L 214.620906 352.174167 
L 214.770237 328.082014 
L 214.918432 352.174167 
L 215.662858 352.174167 
L 215.815787 304.79855 
L 215.964876 352.174167 
L 218.061703 352.174167 
L 218.215401 316.790915 
L 218.365542 352.174167 
L 219.723719 352.174167 
L 219.875262 340.280358 
L 220.027007 352.174167 
L 220.329009 352.174167 
L 220.480579 328.252157 
L 220.781707 352.174167 
L 222.587214 352.174167 
L 222.738145 316.291152 
L 222.888365 352.174167 
L 224.860702 352.174167 
L 225.009456 327.909434 
L 225.159575 328.116236 
L 225.308433 352.174167 
L 227.413116 352.174167 
L 227.56321 316.138458 
L 227.713748 352.174167 
L 228.312763 352.174167 
L 228.466919 317.035612 
L 228.616773 352.174167 
L 230.563015 352.174167 
L 230.711215 315.672479 
L 230.859186 352.174167 
L 232.218585 352.174167 
L 232.368962 340.145201 
L 232.518624 304.058306 
L 232.672753 352.174167 
L 234.028167 352.174167 
L 234.181967 293.447457 
L 234.331607 352.174167 
L 236.433339 352.174167 
L 236.584261 328.285897 
L 236.881552 352.174167 
L 238.233431 352.174167 
L 238.38353 340.145201 
L 238.532726 340.12809 
L 238.682094 352.174167 
L 239.881483 352.174167 
L 240.034434 328.519442 
L 240.182976 352.174167 
L 241.396065 352.174167 
L 241.546682 304.058306 
L 241.696153 352.174167 
L 244.388257 352.174167 
L 244.539953 328.38655 
L 244.692766 352.174167 
L 246.196298 352.174167 
L 246.352099 317.324819 
L 246.50321 352.174167 
L 247.856935 352.174167 
L 248.0068 328.184389 
L 248.159621 352.174167 
L 248.61702 352.174167 
L 248.770775 317.035612 
L 248.924146 352.174167 
L 250.129227 352.174167 
L 250.27945 328.116236 
L 250.579718 352.174167 
L 251.630911 352.174167 
L 251.781118 316.035938 
L 251.93318 352.174167 
L 253.433012 352.174167 
L 253.736115 327.978762 
L 253.884634 352.174167 
L 255.850056 352.174167 
L 256.0058 340.57363 
L 256.160917 340.557717 
L 256.313289 352.174167 
L 257.670262 352.174167 
L 257.82207 328.319543 
L 257.970562 352.174167 
L 258.87969 352.174167 
L 259.030972 316.341762 
L 259.181798 352.174167 
L 260.543045 352.174167 
L 260.844033 328.047695 
L 260.993898 352.174167 
L 262.04974 352.174167 
L 262.20283 316.741566 
L 262.352586 352.174167 
L 263.547306 352.174167 
L 263.696635 340.145201 
L 263.844576 352.174167 
L 264.737729 352.174167 
L 264.886365 327.909434 
L 265.036019 352.174167 
L 266.533881 352.174167 
L 266.683878 340.110931 
L 266.832623 352.174167 
L 267.578982 352.174167 
L 267.729857 316.291152 
L 267.879507 352.174167 
L 269.089887 352.174167 
L 269.241829 304.732197 
L 269.390868 352.174167 
L 271.489689 352.174167 
L 271.637954 327.978762 
L 271.785941 352.174167 
L 272.686337 352.174167 
L 272.834431 327.804695 
L 272.982361 352.174167 
L 274.336298 352.174167 
L 274.486083 315.984459 
L 274.636811 352.174167 
L 276.007436 352.174167 
L 276.155375 315.619959 
L 276.455982 352.174167 
L 278.556526 352.174167 
L 278.705435 303.644702 
L 278.853521 352.174167 
L 281.121875 352.174167 
L 281.26979 303.364993 
L 281.417994 352.174167 
L 283.51092 352.174167 
L 283.664514 305.062114 
L 283.815278 352.174167 
L 285.178305 352.174167 
L 285.334315 317.420166 
L 285.483589 352.174167 
L 287.447076 352.174167 
L 287.599785 304.996498 
L 287.748171 352.174167 
L 290.59458 352.174167 
L 290.742655 339.989431 
L 290.890531 352.174167 
L 291.786917 352.174167 
L 291.93614 315.829139 
L 292.085928 352.174167 
L 294.033576 352.174167 
L 294.183098 328.047695 
L 294.33385 352.174167 
L 295.085711 352.174167 
L 295.234229 315.777068 
L 295.382672 352.174167 
L 296.729622 352.174167 
L 296.878553 315.829139 
L 297.026922 352.174167 
L 298.385952 352.174167 
L 298.535127 327.978762 
L 298.683239 352.174167 
L 299.869075 352.174167 
L 300.017866 340.041801 
L 300.166579 352.174167 
L 300.763595 352.174167 
L 300.911639 291.250486 
L 301.059559 352.174167 
L 303.898818 352.174167 
L 304.049554 328.150361 
L 304.197514 352.174167 
L 305.242446 352.174167 
L 305.390713 327.909434 
L 305.538951 327.839708 
L 305.686869 352.174167 
L 307.638915 352.174167 
L 307.787479 327.909434 
L 307.935841 352.174167 
L 309.57853 352.174167 
L 309.726852 303.575076 
L 309.877204 352.174167 
L 312.718579 352.174167 
L 312.868957 316.240398 
L 313.017282 352.174167 
L 314.522004 352.174167 
L 314.67613 328.716018 
L 314.824564 352.174167 
L 316.179104 352.174167 
L 316.328482 328.082014 
L 316.476987 352.174167 
L 318.114483 352.174167 
L 318.262173 291.07466 
L 318.412781 352.174167 
L 319.619632 352.174167 
L 319.769147 315.829139 
L 319.917246 352.174167 
L 322.310668 352.174167 
L 322.606703 327.76958 
L 322.754836 352.174167 
L 323.941546 352.174167 
L 324.089701 315.619959 
L 324.386156 352.174167 
L 327.210376 352.174167 
L 327.358456 303.435222 
L 327.506579 352.174167 
L 328.843469 352.174167 
L 328.99212 315.829139 
L 329.13993 352.174167 
L 330.471986 352.174167 
L 330.619893 303.364993 
L 330.767892 352.174167 
L 331.811795 352.174167 
L 331.959764 303.364993 
L 332.107671 352.174167 
L 334.068054 352.174167 
L 334.216185 315.619959 
L 334.365808 352.174167 
L 335.996031 352.174167 
L 336.144118 315.619959 
L 336.440088 352.174167 
L 338.518505 352.174167 
L 338.667251 340.041801 
L 338.816013 340.041801 
L 338.965031 352.174167 
L 340.467172 352.174167 
L 340.616269 327.944148 
L 340.765539 352.174167 
L 341.968272 352.174167 
L 342.118262 316.035938 
L 342.267736 352.174167 
L 344.236137 352.174167 
L 344.387552 328.319543 
L 344.538303 352.174167 
L 345.290063 352.174167 
L 345.440775 328.218321 
L 345.737938 352.174167 
L 346.633531 352.174167 
L 346.785283 328.353093 
L 346.933954 327.978762 
L 347.08215 352.174167 
L 349.031575 352.174167 
L 349.1801 340.024394 
L 349.32838 352.174167 
L 349.925626 352.174167 
L 350.073424 327.734364 
L 350.221453 352.174167 
L 351.568961 352.174167 
L 351.719136 316.035938 
L 351.86721 352.174167 
L 353.958819 352.174167 
L 354.111484 340.346804 
L 354.261361 340.179278 
L 354.409625 352.174167 
L 355.750174 352.174167 
L 355.898979 291.425303 
L 356.047342 352.174167 
L 358.138771 352.174167 
L 358.287165 340.024394 
L 358.435767 315.724849 
L 358.586416 352.174167 
L 361.437681 352.174167 
L 361.586312 315.724849 
L 361.734679 352.174167 
L 363.077414 352.174167 
L 363.226022 315.724849 
L 363.374871 352.174167 
L 364.577283 352.174167 
L 364.725765 340.024394 
L 364.874159 339.989431 
L 365.024217 352.174167 
L 365.485241 352.174167 
L 365.786341 327.909434 
L 365.935041 352.174167 
L 368.021887 352.174167 
L 368.170726 327.909434 
L 368.319021 352.174167 
L 369.524008 352.174167 
L 369.673206 340.076464 
L 369.821448 352.174167 
L 370.564309 352.174167 
L 370.717208 316.741566 
L 370.865869 327.944148 
L 371.013973 352.174167 
L 372.95784 352.174167 
L 373.106444 327.944148 
L 373.404234 352.174167 
L 373.557321 352.174167 
L 373.706163 328.013278 
L 374.006291 352.174167 
L 374.304475 352.174167 
L 374.602085 315.724849 
L 374.750382 352.174167 
L 376.692222 352.174167 
L 376.840866 315.724849 
L 376.990393 352.174167 
L 378.643703 352.174167 
L 378.796429 340.330262 
L 378.946014 340.145201 
L 379.098001 352.174167 
L 379.39854 352.174167 
L 379.546335 340.006937 
L 379.694264 352.174167 
L 380.138062 352.174167 
L 380.285923 315.619959 
L 380.434139 352.174167 
L 381.773163 352.174167 
L 381.923488 316.087271 
L 382.071408 327.804695 
L 382.219242 352.174167 
L 383.25338 352.174167 
L 383.401471 339.971873 
L 383.549037 352.174167 
L 384.142123 352.174167 
L 384.293556 316.291152 
L 384.447213 352.174167 
L 386.083781 352.174167 
L 386.232106 315.672479 
L 386.379908 352.174167 
L 388.469325 352.174167 
L 388.764801 327.734364 
L 388.912736 352.174167 
L 390.100557 352.174167 
L 390.248325 315.619959 
L 390.396588 352.174167 
L 392.325395 352.174167 
L 392.473096 327.734364 
L 392.769186 352.174167 
L 393.964414 352.174167 
L 394.112511 315.619959 
L 394.261589 352.174167 
L 395.594646 352.174167 
L 395.742228 339.954265 
L 395.889936 339.954265 
L 396.039255 352.174167 
L 397.075346 352.174167 
L 397.223045 339.989431 
L 397.371721 352.174167 
L 398.262972 352.174167 
L 398.410543 303.223926 
L 398.558061 352.174167 
L 400.496216 352.174167 
L 400.643859 315.514463 
L 400.791615 352.174167 
L 403.019244 352.174167 
L 403.167026 315.619959 
L 403.314681 352.174167 
L 405.240938 352.174167 
L 405.388557 339.954265 
L 405.536739 340.006937 
L 405.684497 352.174167 
L 407.163751 352.174167 
L 407.315677 340.313674 
L 407.463576 352.174167 
L 407.907182 352.174167 
L 408.055358 327.804695 
L 408.203645 352.174167 
L 409.710828 352.174167 
L 409.864537 316.986944 
L 410.014573 352.174167 
L 411.505795 352.174167 
L 411.657147 340.230032 
L 411.808733 352.174167 
L 412.257036 352.174167 
L 412.405406 315.724849 
L 412.55396 352.174167 
L 414.199952 352.174167 
L 414.353401 316.790915 
L 414.503331 352.174167 
L 416.747903 352.174167 
L 416.895918 315.619959 
L 417.04402 352.174167 
L 418.238515 352.174167 
L 418.390117 340.246855 
L 418.541384 340.230032 
L 418.691565 352.174167 
L 420.040658 352.174167 
L 420.191149 328.218321 
L 420.340229 352.174167 
L 420.941063 352.174167 
L 421.091333 316.087271 
L 421.39169 352.174167 
L 422.442137 352.174167 
L 422.590778 327.978762 
L 422.743094 352.174167 
L 423.199164 352.174167 
L 423.348528 303.921223 
L 423.497614 352.174167 
L 425.009348 352.174167 
L 425.164092 294.012137 
L 425.312433 352.174167 
L 427.700504 352.174167 
L 427.84928 327.874621 
L 428.145974 352.174167 
L 428.600069 352.174167 
L 428.748536 315.672479 
L 428.90065 352.174167 
L 429.947078 352.174167 
L 430.09733 328.184389 
L 430.247342 352.174167 
L 431.742316 352.174167 
L 431.892265 316.138458 
L 432.0429 352.174167 
L 434.141835 352.174167 
L 434.290267 315.619959 
L 434.586802 352.174167 
L 437.428546 352.174167 
L 437.577688 327.978762 
L 437.883632 352.174167 
L 439.83955 352.174167 
L 439.987478 291.1627 
L 440.135326 352.174167 
L 441.630075 352.174167 
L 441.779876 328.047695 
L 441.929685 352.174167 
L 443.138675 352.174167 
L 443.290337 340.29704 
L 443.441927 340.26363 
L 443.593636 352.174167 
L 444.938266 352.174167 
L 445.08776 328.047695 
L 445.238302 352.174167 
L 446.729367 352.174167 
L 446.883715 317.084146 
L 447.036038 352.174167 
L 448.091123 352.174167 
L 448.239975 340.059157 
L 448.388928 352.174167 
L 448.984638 352.174167 
L 449.133583 327.944148 
L 449.282745 352.174167 
L 450.027453 352.174167 
L 450.325767 327.804695 
L 450.474985 352.174167 
L 451.673394 352.174167 
L 451.822684 315.88106 
L 452.120874 352.174167 
L 452.567959 352.174167 
L 452.716564 303.714129 
L 452.865028 352.174167 
L 454.51012 352.174167 
L 454.658337 327.874621 
L 454.806851 352.174167 
L 456.445666 352.174167 
L 456.602288 294.644333 
L 456.750705 352.174167 
L 458.250396 352.174167 
L 458.407165 329.162233 
L 458.563668 352.174167 
L 459.015875 352.174167 
L 459.165884 328.116236 
L 459.316905 352.174167 
L 460.650187 352.174167 
L 460.801434 304.262475 
L 460.951976 352.174167 
L 463.497024 352.174167 
L 463.646931 316.240398 
L 463.796354 352.174167 
L 465.441139 352.174167 
L 465.737968 315.724849 
L 465.886143 352.174167 
L 467.673459 352.174167 
L 467.824348 340.213162 
L 467.975023 340.196244 
L 468.124079 352.174167 
L 468.867248 352.174167 
L 469.015543 340.024394 
L 469.165098 352.174167 
L 469.760099 352.174167 
L 470.058364 327.909434 
L 470.20681 352.174167 
L 471.267637 352.174167 
L 471.415395 327.944148 
L 471.713546 352.174167 
L 473.359254 352.174167 
L 473.508545 303.783358 
L 473.657113 352.174167 
L 475.768635 352.174167 
L 475.924238 294.171485 
L 476.07974 352.174167 
L 478.03275 352.174167 
L 478.184092 340.230032 
L 478.332187 340.041801 
L 478.481264 352.174167 
L 479.685694 352.174167 
L 479.834554 340.059157 
L 479.983203 352.174167 
L 480.580037 352.174167 
L 480.729634 303.921223 
L 480.878313 352.174167 
L 482.07916 352.174167 
L 482.23311 305.322761 
L 482.387762 352.174167 
L 483.602136 352.174167 
L 483.752028 340.162264 
L 483.901386 340.093722 
L 484.052233 352.174167 
L 485.424653 352.174167 
L 485.580587 329.068051 
L 485.738613 352.174167 
L 486.494143 352.174167 
L 486.643285 340.059157 
L 486.792584 352.174167 
L 487.539781 352.174167 
L 487.690045 304.126555 
L 487.990302 352.174167 
L 490.681483 352.174167 
L 490.829356 339.971873 
L 490.980344 352.174167 
L 491.575741 352.174167 
L 491.726467 180.600387 
L 491.879003 352.174167 
L 494.890537 352.174167 
L 495.040508 328.116236 
L 495.189148 352.174167 
L 495.783544 352.174167 
L 495.783544 352.174167 
" style="fill:none;stroke:#1f77b4;stroke-linecap:square;stroke-width:1.5;"/>
   </g>
   <g id="patch_3">
    <path d="M 70.834375 352.174167 
L 70.834375 35.0625 
" style="fill:none;stroke:#000000;stroke-linecap:square;stroke-linejoin:miter;stroke-width:0.8;"/>
   </g>
   <g id="patch_4">
    <path d="M 516.019219 352.174167 
L 516.019219 35.0625 
" style="fill:none;stroke:#000000;stroke-linecap:square;stroke-linejoin:miter;stroke-width:0.8;"/>
   </g>
   <g id="patch_5">
    <path d="M 70.834375 352.174167 
L 516.019219 352.174167 
" style="fill:none;stroke:#000000;stroke-linecap:square;stroke-linejoin:miter;stroke-width:0.8;"/>
   </g>
   <g id="patch_6">
    <path d="M 70.834375 35.0625 
L 516.019219 35.0625 
" style="fill:none;stroke:#000000;stroke-linecap:square;stroke-linejoin:miter;stroke-width:0.8;"/>
   </g>
   <g id="legend_1">
    <g id="patch_7">
     <path d="M 540.278461 53.01875 
L 620.514398 53.01875 
Q 622.514398 53.01875 622.514398 51.01875 
L 622.514398 37.0625 
Q 622.514398 35.0625 620.514398 35.0625 
L 540.278461 35.0625 
Q 538.278461 35.0625 538.278461 37.0625 
L 538.278461 51.01875 
Q 538.278461 53.01875 540.278461 53.01875 
z
" style="fill:#ffffff;opacity:0.8;stroke:#cccccc;stroke-linejoin:miter;"/>
    </g>
    <g id="line2d_16">
     <path d="M 542.278461 43.160937 
L 562.278461 43.160937 
" style="fill:none;stroke:#1f77b4;stroke-linecap:square;stroke-width:1.5;"/>
    </g>
    <g id="line2d_17"/>
    <g id="text_16">
     <!-- drop_rate -->
     <defs>
      <path d="M 50.984375 -16.609375 
L 50.984375 -23.578125 
L -0.984375 -23.578125 
L -0.984375 -16.609375 
z
" id="DejaVuSans-95"/>
     </defs>
     <g transform="translate(570.278461 46.660937)scale(0.1 -0.1)">
      <use xlink:href="#DejaVuSans-100"/>
      <use x="63.476562" xlink:href="#DejaVuSans-114"/>
      <use x="104.558594" xlink:href="#DejaVuSans-111"/>
      <use x="165.740234" xlink:href="#DejaVuSans-112"/>
      <use x="229.216797" xlink:href="#DejaVuSans-95"/>
      <use x="279.216797" xlink:href="#DejaVuSans-114"/>
      <use x="320.330078" xlink:href="#DejaVuSans-97"/>
      <use x="381.609375" xlink:href="#DejaVuSans-116"/>
      <use x="420.818359" xlink:href="#DejaVuSans-101"/>
     </g>
    </g>
   </g>
  </g>
  <g id="text_17">
   <!-- result droprate -->
   <defs>
    <path d="M 44.28125 53.078125 
L 44.28125 44.578125 
Q 40.484375 46.53125 36.375 47.5 
Q 32.28125 48.484375 27.875 48.484375 
Q 21.1875 48.484375 17.84375 46.4375 
Q 14.5 44.390625 14.5 40.28125 
Q 14.5 37.15625 16.890625 35.375 
Q 19.28125 33.59375 26.515625 31.984375 
L 29.59375 31.296875 
Q 39.15625 29.25 43.1875 25.515625 
Q 47.21875 21.78125 47.21875 15.09375 
Q 47.21875 7.46875 41.1875 3.015625 
Q 35.15625 -1.421875 24.609375 -1.421875 
Q 20.21875 -1.421875 15.453125 -0.5625 
Q 10.6875 0.296875 5.421875 2 
L 5.421875 11.28125 
Q 10.40625 8.6875 15.234375 7.390625 
Q 20.0625 6.109375 24.8125 6.109375 
Q 31.15625 6.109375 34.5625 8.28125 
Q 37.984375 10.453125 37.984375 14.40625 
Q 37.984375 18.0625 35.515625 20.015625 
Q 33.0625 21.96875 24.703125 23.78125 
L 21.578125 24.515625 
Q 13.234375 26.265625 9.515625 29.90625 
Q 5.8125 33.546875 5.8125 39.890625 
Q 5.8125 47.609375 11.28125 51.796875 
Q 16.75 56 26.8125 56 
Q 31.78125 56 36.171875 55.265625 
Q 40.578125 54.546875 44.28125 53.078125 
z
" id="DejaVuSans-115"/>
    <path d="M 8.5 21.578125 
L 8.5 54.6875 
L 17.484375 54.6875 
L 17.484375 21.921875 
Q 17.484375 14.15625 20.5 10.265625 
Q 23.53125 6.390625 29.59375 6.390625 
Q 36.859375 6.390625 41.078125 11.03125 
Q 45.3125 15.671875 45.3125 23.6875 
L 45.3125 54.6875 
L 54.296875 54.6875 
L 54.296875 0 
L 45.3125 0 
L 45.3125 8.40625 
Q 42.046875 3.421875 37.71875 1 
Q 33.40625 -1.421875 27.6875 -1.421875 
Q 18.265625 -1.421875 13.375 4.4375 
Q 8.5 10.296875 8.5 21.578125 
z
M 31.109375 56 
z
" id="DejaVuSans-117"/>
    <path d="M 9.421875 75.984375 
L 18.40625 75.984375 
L 18.40625 0 
L 9.421875 0 
z
" id="DejaVuSans-108"/>
    <path id="DejaVuSans-32"/>
   </defs>
   <g transform="translate(297.047813 17.038125)scale(0.12 -0.12)">
    <use xlink:href="#DejaVuSans-114"/>
    <use x="41.082031" xlink:href="#DejaVuSans-101"/>
    <use x="102.605469" xlink:href="#DejaVuSans-115"/>
    <use x="154.705078" xlink:href="#DejaVuSans-117"/>
    <use x="218.083984" xlink:href="#DejaVuSans-108"/>
    <use x="245.867188" xlink:href="#DejaVuSans-116"/>
    <use x="285.076172" xlink:href="#DejaVuSans-32"/>
    <use x="316.863281" xlink:href="#DejaVuSans-100"/>
    <use x="380.339844" xlink:href="#DejaVuSans-114"/>
    <use x="421.421875" xlink:href="#DejaVuSans-111"/>
    <use x="482.603516" xlink:href="#DejaVuSans-112"/>
    <use x="546.080078" xlink:href="#DejaVuSans-114"/>
    <use x="587.193359" xlink:href="#DejaVuSans-97"/>
    <use x="648.472656" xlink:href="#DejaVuSans-116"/>
    <use x="687.681641" xlink:href="#DejaVuSans-101"/>
   </g>
  </g>
 </g>
 <defs>
  <clipPath id="pa9deb434a2">
   <rect height="317.111667" width="445.184844" x="70.834375" y="35.0625"/>
  </clipPath>
 </defs>
</svg>
