<?xml version="1.0" encoding="utf-8" standalone="no"?>
<!DOCTYPE svg PUBLIC "-//W3C//DTD SVG 1.1//EN"
  "http://www.w3.org/Graphics/SVG/1.1/DTD/svg11.dtd">
<!-- Created with matplotlib (https://matplotlib.org/) -->
<svg height="396pt" version="1.1" viewBox="0 0 684 396" width="684pt" xmlns="http://www.w3.org/2000/svg" xmlns:xlink="http://www.w3.org/1999/xlink">
 <defs>
  <style type="text/css">
*{stroke-linecap:butt;stroke-linejoin:round;}
  </style>
 </defs>
 <g id="figure_1">
  <g id="patch_1">
   <path d="M 0 396 
L 684 396 
L 684 0 
L 0 0 
z
" style="fill:#ffffff;"/>
  </g>
  <g id="axes_1">
   <g id="patch_2">
    <path d="M 83.472344 352.174167 
L 529.912969 352.174167 
L 529.912969 35.0625 
L 83.472344 35.0625 
z
" style="fill:#ffffff;"/>
   </g>
   <g id="matplotlib.axis_1">
    <g id="xtick_1">
     <g id="line2d_1">
      <defs>
       <path d="M 0 0 
L 0 3.5 
" id="mf529bcbc63" style="stroke:#000000;stroke-width:0.8;"/>
      </defs>
      <g>
       <use style="stroke:#000000;stroke-width:0.8;" x="103.765099" xlink:href="#mf529bcbc63" y="352.174167"/>
      </g>
     </g>
     <g id="text_1">
      <!-- 0 -->
      <defs>
       <path d="M 31.78125 66.40625 
Q 24.171875 66.40625 20.328125 58.90625 
Q 16.5 51.421875 16.5 36.375 
Q 16.5 21.390625 20.328125 13.890625 
Q 24.171875 6.390625 31.78125 6.390625 
Q 39.453125 6.390625 43.28125 13.890625 
Q 47.125 21.390625 47.125 36.375 
Q 47.125 51.421875 43.28125 58.90625 
Q 39.453125 66.40625 31.78125 66.40625 
z
M 31.78125 74.21875 
Q 44.046875 74.21875 50.515625 64.515625 
Q 56.984375 54.828125 56.984375 36.375 
Q 56.984375 17.96875 50.515625 8.265625 
Q 44.046875 -1.421875 31.78125 -1.421875 
Q 19.53125 -1.421875 13.0625 8.265625 
Q 6.59375 17.96875 6.59375 36.375 
Q 6.59375 54.828125 13.0625 64.515625 
Q 19.53125 74.21875 31.78125 74.21875 
z
" id="DejaVuSans-48"/>
      </defs>
      <g transform="translate(100.583849 366.772604)scale(0.1 -0.1)">
       <use xlink:href="#DejaVuSans-48"/>
      </g>
     </g>
    </g>
    <g id="xtick_2">
     <g id="line2d_2">
      <g>
       <use style="stroke:#000000;stroke-width:0.8;" x="177.286114" xlink:href="#mf529bcbc63" y="352.174167"/>
      </g>
     </g>
     <g id="text_2">
      <!-- 50 -->
      <defs>
       <path d="M 10.796875 72.90625 
L 49.515625 72.90625 
L 49.515625 64.59375 
L 19.828125 64.59375 
L 19.828125 46.734375 
Q 21.96875 47.46875 24.109375 47.828125 
Q 26.265625 48.1875 28.421875 48.1875 
Q 40.625 48.1875 47.75 41.5 
Q 54.890625 34.8125 54.890625 23.390625 
Q 54.890625 11.625 47.5625 5.09375 
Q 40.234375 -1.421875 26.90625 -1.421875 
Q 22.3125 -1.421875 17.546875 -0.640625 
Q 12.796875 0.140625 7.71875 1.703125 
L 7.71875 11.625 
Q 12.109375 9.234375 16.796875 8.0625 
Q 21.484375 6.890625 26.703125 6.890625 
Q 35.15625 6.890625 40.078125 11.328125 
Q 45.015625 15.765625 45.015625 23.390625 
Q 45.015625 31 40.078125 35.4375 
Q 35.15625 39.890625 26.703125 39.890625 
Q 22.75 39.890625 18.8125 39.015625 
Q 14.890625 38.140625 10.796875 36.28125 
z
" id="DejaVuSans-53"/>
      </defs>
      <g transform="translate(170.923614 366.772604)scale(0.1 -0.1)">
       <use xlink:href="#DejaVuSans-53"/>
       <use x="63.623047" xlink:href="#DejaVuSans-48"/>
      </g>
     </g>
    </g>
    <g id="xtick_3">
     <g id="line2d_3">
      <g>
       <use style="stroke:#000000;stroke-width:0.8;" x="250.807128" xlink:href="#mf529bcbc63" y="352.174167"/>
      </g>
     </g>
     <g id="text_3">
      <!-- 100 -->
      <defs>
       <path d="M 12.40625 8.296875 
L 28.515625 8.296875 
L 28.515625 63.921875 
L 10.984375 60.40625 
L 10.984375 69.390625 
L 28.421875 72.90625 
L 38.28125 72.90625 
L 38.28125 8.296875 
L 54.390625 8.296875 
L 54.390625 0 
L 12.40625 0 
z
" id="DejaVuSans-49"/>
      </defs>
      <g transform="translate(241.263378 366.772604)scale(0.1 -0.1)">
       <use xlink:href="#DejaVuSans-49"/>
       <use x="63.623047" xlink:href="#DejaVuSans-48"/>
       <use x="127.246094" xlink:href="#DejaVuSans-48"/>
      </g>
     </g>
    </g>
    <g id="xtick_4">
     <g id="line2d_4">
      <g>
       <use style="stroke:#000000;stroke-width:0.8;" x="324.328142" xlink:href="#mf529bcbc63" y="352.174167"/>
      </g>
     </g>
     <g id="text_4">
      <!-- 150 -->
      <g transform="translate(314.784392 366.772604)scale(0.1 -0.1)">
       <use xlink:href="#DejaVuSans-49"/>
       <use x="63.623047" xlink:href="#DejaVuSans-53"/>
       <use x="127.246094" xlink:href="#DejaVuSans-48"/>
      </g>
     </g>
    </g>
    <g id="xtick_5">
     <g id="line2d_5">
      <g>
       <use style="stroke:#000000;stroke-width:0.8;" x="397.849156" xlink:href="#mf529bcbc63" y="352.174167"/>
      </g>
     </g>
     <g id="text_5">
      <!-- 200 -->
      <defs>
       <path d="M 19.1875 8.296875 
L 53.609375 8.296875 
L 53.609375 0 
L 7.328125 0 
L 7.328125 8.296875 
Q 12.9375 14.109375 22.625 23.890625 
Q 32.328125 33.6875 34.8125 36.53125 
Q 39.546875 41.84375 41.421875 45.53125 
Q 43.3125 49.21875 43.3125 52.78125 
Q 43.3125 58.59375 39.234375 62.25 
Q 35.15625 65.921875 28.609375 65.921875 
Q 23.96875 65.921875 18.8125 64.3125 
Q 13.671875 62.703125 7.8125 59.421875 
L 7.8125 69.390625 
Q 13.765625 71.78125 18.9375 73 
Q 24.125 74.21875 28.421875 74.21875 
Q 39.75 74.21875 46.484375 68.546875 
Q 53.21875 62.890625 53.21875 53.421875 
Q 53.21875 48.921875 51.53125 44.890625 
Q 49.859375 40.875 45.40625 35.40625 
Q 44.1875 33.984375 37.640625 27.21875 
Q 31.109375 20.453125 19.1875 8.296875 
z
" id="DejaVuSans-50"/>
      </defs>
      <g transform="translate(388.305406 366.772604)scale(0.1 -0.1)">
       <use xlink:href="#DejaVuSans-50"/>
       <use x="63.623047" xlink:href="#DejaVuSans-48"/>
       <use x="127.246094" xlink:href="#DejaVuSans-48"/>
      </g>
     </g>
    </g>
    <g id="xtick_6">
     <g id="line2d_6">
      <g>
       <use style="stroke:#000000;stroke-width:0.8;" x="471.37017" xlink:href="#mf529bcbc63" y="352.174167"/>
      </g>
     </g>
     <g id="text_6">
      <!-- 250 -->
      <g transform="translate(461.82642 366.772604)scale(0.1 -0.1)">
       <use xlink:href="#DejaVuSans-50"/>
       <use x="63.623047" xlink:href="#DejaVuSans-53"/>
       <use x="127.246094" xlink:href="#DejaVuSans-48"/>
      </g>
     </g>
    </g>
   </g>
   <g id="matplotlib.axis_2">
    <g id="ytick_1">
     <g id="line2d_7">
      <defs>
       <path d="M 0 0 
L -3.5 0 
" id="m83e15ea92d" style="stroke:#000000;stroke-width:0.8;"/>
      </defs>
      <g>
       <use style="stroke:#000000;stroke-width:0.8;" x="83.472344" xlink:href="#m83e15ea92d" y="352.174167"/>
      </g>
     </g>
     <g id="text_7">
      <!-- 0 -->
      <g transform="translate(70.109844 355.973385)scale(0.1 -0.1)">
       <use xlink:href="#DejaVuSans-48"/>
      </g>
     </g>
    </g>
    <g id="ytick_2">
     <g id="line2d_8">
      <g>
       <use style="stroke:#000000;stroke-width:0.8;" x="83.472344" xlink:href="#m83e15ea92d" y="313.782924"/>
      </g>
     </g>
     <g id="text_8">
      <!-- 10 -->
      <g transform="translate(63.747344 317.582142)scale(0.1 -0.1)">
       <use xlink:href="#DejaVuSans-49"/>
       <use x="63.623047" xlink:href="#DejaVuSans-48"/>
      </g>
     </g>
    </g>
    <g id="ytick_3">
     <g id="line2d_9">
      <g>
       <use style="stroke:#000000;stroke-width:0.8;" x="83.472344" xlink:href="#m83e15ea92d" y="275.391681"/>
      </g>
     </g>
     <g id="text_9">
      <!-- 20 -->
      <g transform="translate(63.747344 279.1909)scale(0.1 -0.1)">
       <use xlink:href="#DejaVuSans-50"/>
       <use x="63.623047" xlink:href="#DejaVuSans-48"/>
      </g>
     </g>
    </g>
    <g id="ytick_4">
     <g id="line2d_10">
      <g>
       <use style="stroke:#000000;stroke-width:0.8;" x="83.472344" xlink:href="#m83e15ea92d" y="237.000438"/>
      </g>
     </g>
     <g id="text_10">
      <!-- 30 -->
      <defs>
       <path d="M 40.578125 39.3125 
Q 47.65625 37.796875 51.625 33 
Q 55.609375 28.21875 55.609375 21.1875 
Q 55.609375 10.40625 48.1875 4.484375 
Q 40.765625 -1.421875 27.09375 -1.421875 
Q 22.515625 -1.421875 17.65625 -0.515625 
Q 12.796875 0.390625 7.625 2.203125 
L 7.625 11.71875 
Q 11.71875 9.328125 16.59375 8.109375 
Q 21.484375 6.890625 26.8125 6.890625 
Q 36.078125 6.890625 40.9375 10.546875 
Q 45.796875 14.203125 45.796875 21.1875 
Q 45.796875 27.640625 41.28125 31.265625 
Q 36.765625 34.90625 28.71875 34.90625 
L 20.21875 34.90625 
L 20.21875 43.015625 
L 29.109375 43.015625 
Q 36.375 43.015625 40.234375 45.921875 
Q 44.09375 48.828125 44.09375 54.296875 
Q 44.09375 59.90625 40.109375 62.90625 
Q 36.140625 65.921875 28.71875 65.921875 
Q 24.65625 65.921875 20.015625 65.03125 
Q 15.375 64.15625 9.8125 62.3125 
L 9.8125 71.09375 
Q 15.4375 72.65625 20.34375 73.4375 
Q 25.25 74.21875 29.59375 74.21875 
Q 40.828125 74.21875 47.359375 69.109375 
Q 53.90625 64.015625 53.90625 55.328125 
Q 53.90625 49.265625 50.4375 45.09375 
Q 46.96875 40.921875 40.578125 39.3125 
z
" id="DejaVuSans-51"/>
      </defs>
      <g transform="translate(63.747344 240.799657)scale(0.1 -0.1)">
       <use xlink:href="#DejaVuSans-51"/>
       <use x="63.623047" xlink:href="#DejaVuSans-48"/>
      </g>
     </g>
    </g>
    <g id="ytick_5">
     <g id="line2d_11">
      <g>
       <use style="stroke:#000000;stroke-width:0.8;" x="83.472344" xlink:href="#m83e15ea92d" y="198.609195"/>
      </g>
     </g>
     <g id="text_11">
      <!-- 40 -->
      <defs>
       <path d="M 37.796875 64.3125 
L 12.890625 25.390625 
L 37.796875 25.390625 
z
M 35.203125 72.90625 
L 47.609375 72.90625 
L 47.609375 25.390625 
L 58.015625 25.390625 
L 58.015625 17.1875 
L 47.609375 17.1875 
L 47.609375 0 
L 37.796875 0 
L 37.796875 17.1875 
L 4.890625 17.1875 
L 4.890625 26.703125 
z
" id="DejaVuSans-52"/>
      </defs>
      <g transform="translate(63.747344 202.408414)scale(0.1 -0.1)">
       <use xlink:href="#DejaVuSans-52"/>
       <use x="63.623047" xlink:href="#DejaVuSans-48"/>
      </g>
     </g>
    </g>
    <g id="ytick_6">
     <g id="line2d_12">
      <g>
       <use style="stroke:#000000;stroke-width:0.8;" x="83.472344" xlink:href="#m83e15ea92d" y="160.217952"/>
      </g>
     </g>
     <g id="text_12">
      <!-- 50 -->
      <g transform="translate(63.747344 164.017171)scale(0.1 -0.1)">
       <use xlink:href="#DejaVuSans-53"/>
       <use x="63.623047" xlink:href="#DejaVuSans-48"/>
      </g>
     </g>
    </g>
    <g id="ytick_7">
     <g id="line2d_13">
      <g>
       <use style="stroke:#000000;stroke-width:0.8;" x="83.472344" xlink:href="#m83e15ea92d" y="121.826709"/>
      </g>
     </g>
     <g id="text_13">
      <!-- 60 -->
      <defs>
       <path d="M 33.015625 40.375 
Q 26.375 40.375 22.484375 35.828125 
Q 18.609375 31.296875 18.609375 23.390625 
Q 18.609375 15.53125 22.484375 10.953125 
Q 26.375 6.390625 33.015625 6.390625 
Q 39.65625 6.390625 43.53125 10.953125 
Q 47.40625 15.53125 47.40625 23.390625 
Q 47.40625 31.296875 43.53125 35.828125 
Q 39.65625 40.375 33.015625 40.375 
z
M 52.59375 71.296875 
L 52.59375 62.3125 
Q 48.875 64.0625 45.09375 64.984375 
Q 41.3125 65.921875 37.59375 65.921875 
Q 27.828125 65.921875 22.671875 59.328125 
Q 17.53125 52.734375 16.796875 39.40625 
Q 19.671875 43.65625 24.015625 45.921875 
Q 28.375 48.1875 33.59375 48.1875 
Q 44.578125 48.1875 50.953125 41.515625 
Q 57.328125 34.859375 57.328125 23.390625 
Q 57.328125 12.15625 50.6875 5.359375 
Q 44.046875 -1.421875 33.015625 -1.421875 
Q 20.359375 -1.421875 13.671875 8.265625 
Q 6.984375 17.96875 6.984375 36.375 
Q 6.984375 53.65625 15.1875 63.9375 
Q 23.390625 74.21875 37.203125 74.21875 
Q 40.921875 74.21875 44.703125 73.484375 
Q 48.484375 72.75 52.59375 71.296875 
z
" id="DejaVuSans-54"/>
      </defs>
      <g transform="translate(63.747344 125.625928)scale(0.1 -0.1)">
       <use xlink:href="#DejaVuSans-54"/>
       <use x="63.623047" xlink:href="#DejaVuSans-48"/>
      </g>
     </g>
    </g>
    <g id="ytick_8">
     <g id="line2d_14">
      <g>
       <use style="stroke:#000000;stroke-width:0.8;" x="83.472344" xlink:href="#m83e15ea92d" y="83.435466"/>
      </g>
     </g>
     <g id="text_14">
      <!-- 70 -->
      <defs>
       <path d="M 8.203125 72.90625 
L 55.078125 72.90625 
L 55.078125 68.703125 
L 28.609375 0 
L 18.3125 0 
L 43.21875 64.59375 
L 8.203125 64.59375 
z
" id="DejaVuSans-55"/>
      </defs>
      <g transform="translate(63.747344 87.234685)scale(0.1 -0.1)">
       <use xlink:href="#DejaVuSans-55"/>
       <use x="63.623047" xlink:href="#DejaVuSans-48"/>
      </g>
     </g>
    </g>
    <g id="ytick_9">
     <g id="line2d_15">
      <g>
       <use style="stroke:#000000;stroke-width:0.8;" x="83.472344" xlink:href="#m83e15ea92d" y="45.044223"/>
      </g>
     </g>
     <g id="text_15">
      <!-- 80 -->
      <defs>
       <path d="M 31.78125 34.625 
Q 24.75 34.625 20.71875 30.859375 
Q 16.703125 27.09375 16.703125 20.515625 
Q 16.703125 13.921875 20.71875 10.15625 
Q 24.75 6.390625 31.78125 6.390625 
Q 38.8125 6.390625 42.859375 10.171875 
Q 46.921875 13.96875 46.921875 20.515625 
Q 46.921875 27.09375 42.890625 30.859375 
Q 38.875 34.625 31.78125 34.625 
z
M 21.921875 38.8125 
Q 15.578125 40.375 12.03125 44.71875 
Q 8.5 49.078125 8.5 55.328125 
Q 8.5 64.0625 14.71875 69.140625 
Q 20.953125 74.21875 31.78125 74.21875 
Q 42.671875 74.21875 48.875 69.140625 
Q 55.078125 64.0625 55.078125 55.328125 
Q 55.078125 49.078125 51.53125 44.71875 
Q 48 40.375 41.703125 38.8125 
Q 48.828125 37.15625 52.796875 32.3125 
Q 56.78125 27.484375 56.78125 20.515625 
Q 56.78125 9.90625 50.3125 4.234375 
Q 43.84375 -1.421875 31.78125 -1.421875 
Q 19.734375 -1.421875 13.25 4.234375 
Q 6.78125 9.90625 6.78125 20.515625 
Q 6.78125 27.484375 10.78125 32.3125 
Q 14.796875 37.15625 21.921875 38.8125 
z
M 18.3125 54.390625 
Q 18.3125 48.734375 21.84375 45.5625 
Q 25.390625 42.390625 31.78125 42.390625 
Q 38.140625 42.390625 41.71875 45.5625 
Q 45.3125 48.734375 45.3125 54.390625 
Q 45.3125 60.0625 41.71875 63.234375 
Q 38.140625 66.40625 31.78125 66.40625 
Q 25.390625 66.40625 21.84375 63.234375 
Q 18.3125 60.0625 18.3125 54.390625 
z
" id="DejaVuSans-56"/>
      </defs>
      <g transform="translate(63.747344 48.843442)scale(0.1 -0.1)">
       <use xlink:href="#DejaVuSans-56"/>
       <use x="63.623047" xlink:href="#DejaVuSans-48"/>
      </g>
     </g>
    </g>
    <g id="text_16">
     <!-- throughput -->
     <defs>
      <path d="M 18.3125 70.21875 
L 18.3125 54.6875 
L 36.8125 54.6875 
L 36.8125 47.703125 
L 18.3125 47.703125 
L 18.3125 18.015625 
Q 18.3125 11.328125 20.140625 9.421875 
Q 21.96875 7.515625 27.59375 7.515625 
L 36.8125 7.515625 
L 36.8125 0 
L 27.59375 0 
Q 17.1875 0 13.234375 3.875 
Q 9.28125 7.765625 9.28125 18.015625 
L 9.28125 47.703125 
L 2.6875 47.703125 
L 2.6875 54.6875 
L 9.28125 54.6875 
L 9.28125 70.21875 
z
" id="DejaVuSans-116"/>
      <path d="M 54.890625 33.015625 
L 54.890625 0 
L 45.90625 0 
L 45.90625 32.71875 
Q 45.90625 40.484375 42.875 44.328125 
Q 39.84375 48.1875 33.796875 48.1875 
Q 26.515625 48.1875 22.3125 43.546875 
Q 18.109375 38.921875 18.109375 30.90625 
L 18.109375 0 
L 9.078125 0 
L 9.078125 75.984375 
L 18.109375 75.984375 
L 18.109375 46.1875 
Q 21.34375 51.125 25.703125 53.5625 
Q 30.078125 56 35.796875 56 
Q 45.21875 56 50.046875 50.171875 
Q 54.890625 44.34375 54.890625 33.015625 
z
" id="DejaVuSans-104"/>
      <path d="M 41.109375 46.296875 
Q 39.59375 47.171875 37.8125 47.578125 
Q 36.03125 48 33.890625 48 
Q 26.265625 48 22.1875 43.046875 
Q 18.109375 38.09375 18.109375 28.8125 
L 18.109375 0 
L 9.078125 0 
L 9.078125 54.6875 
L 18.109375 54.6875 
L 18.109375 46.1875 
Q 20.953125 51.171875 25.484375 53.578125 
Q 30.03125 56 36.53125 56 
Q 37.453125 56 38.578125 55.875 
Q 39.703125 55.765625 41.0625 55.515625 
z
" id="DejaVuSans-114"/>
      <path d="M 30.609375 48.390625 
Q 23.390625 48.390625 19.1875 42.75 
Q 14.984375 37.109375 14.984375 27.296875 
Q 14.984375 17.484375 19.15625 11.84375 
Q 23.34375 6.203125 30.609375 6.203125 
Q 37.796875 6.203125 41.984375 11.859375 
Q 46.1875 17.53125 46.1875 27.296875 
Q 46.1875 37.015625 41.984375 42.703125 
Q 37.796875 48.390625 30.609375 48.390625 
z
M 30.609375 56 
Q 42.328125 56 49.015625 48.375 
Q 55.71875 40.765625 55.71875 27.296875 
Q 55.71875 13.875 49.015625 6.21875 
Q 42.328125 -1.421875 30.609375 -1.421875 
Q 18.84375 -1.421875 12.171875 6.21875 
Q 5.515625 13.875 5.515625 27.296875 
Q 5.515625 40.765625 12.171875 48.375 
Q 18.84375 56 30.609375 56 
z
" id="DejaVuSans-111"/>
      <path d="M 8.5 21.578125 
L 8.5 54.6875 
L 17.484375 54.6875 
L 17.484375 21.921875 
Q 17.484375 14.15625 20.5 10.265625 
Q 23.53125 6.390625 29.59375 6.390625 
Q 36.859375 6.390625 41.078125 11.03125 
Q 45.3125 15.671875 45.3125 23.6875 
L 45.3125 54.6875 
L 54.296875 54.6875 
L 54.296875 0 
L 45.3125 0 
L 45.3125 8.40625 
Q 42.046875 3.421875 37.71875 1 
Q 33.40625 -1.421875 27.6875 -1.421875 
Q 18.265625 -1.421875 13.375 4.4375 
Q 8.5 10.296875 8.5 21.578125 
z
M 31.109375 56 
z
" id="DejaVuSans-117"/>
      <path d="M 45.40625 27.984375 
Q 45.40625 37.75 41.375 43.109375 
Q 37.359375 48.484375 30.078125 48.484375 
Q 22.859375 48.484375 18.828125 43.109375 
Q 14.796875 37.75 14.796875 27.984375 
Q 14.796875 18.265625 18.828125 12.890625 
Q 22.859375 7.515625 30.078125 7.515625 
Q 37.359375 7.515625 41.375 12.890625 
Q 45.40625 18.265625 45.40625 27.984375 
z
M 54.390625 6.78125 
Q 54.390625 -7.171875 48.1875 -13.984375 
Q 42 -20.796875 29.203125 -20.796875 
Q 24.46875 -20.796875 20.265625 -20.09375 
Q 16.0625 -19.390625 12.109375 -17.921875 
L 12.109375 -9.1875 
Q 16.0625 -11.328125 19.921875 -12.34375 
Q 23.78125 -13.375 27.78125 -13.375 
Q 36.625 -13.375 41.015625 -8.765625 
Q 45.40625 -4.15625 45.40625 5.171875 
L 45.40625 9.625 
Q 42.625 4.78125 38.28125 2.390625 
Q 33.9375 0 27.875 0 
Q 17.828125 0 11.671875 7.65625 
Q 5.515625 15.328125 5.515625 27.984375 
Q 5.515625 40.671875 11.671875 48.328125 
Q 17.828125 56 27.875 56 
Q 33.9375 56 38.28125 53.609375 
Q 42.625 51.21875 45.40625 46.390625 
L 45.40625 54.6875 
L 54.390625 54.6875 
z
" id="DejaVuSans-103"/>
      <path d="M 18.109375 8.203125 
L 18.109375 -20.796875 
L 9.078125 -20.796875 
L 9.078125 54.6875 
L 18.109375 54.6875 
L 18.109375 46.390625 
Q 20.953125 51.265625 25.265625 53.625 
Q 29.59375 56 35.59375 56 
Q 45.5625 56 51.78125 48.09375 
Q 58.015625 40.1875 58.015625 27.296875 
Q 58.015625 14.40625 51.78125 6.484375 
Q 45.5625 -1.421875 35.59375 -1.421875 
Q 29.59375 -1.421875 25.265625 0.953125 
Q 20.953125 3.328125 18.109375 8.203125 
z
M 48.6875 27.296875 
Q 48.6875 37.203125 44.609375 42.84375 
Q 40.53125 48.484375 33.40625 48.484375 
Q 26.265625 48.484375 22.1875 42.84375 
Q 18.109375 37.203125 18.109375 27.296875 
Q 18.109375 17.390625 22.1875 11.75 
Q 26.265625 6.109375 33.40625 6.109375 
Q 40.53125 6.109375 44.609375 11.75 
Q 48.6875 17.390625 48.6875 27.296875 
z
" id="DejaVuSans-112"/>
     </defs>
     <g transform="translate(46.469844 221.675365)rotate(-90)scale(0.1 -0.1)">
      <use xlink:href="#DejaVuSans-116"/>
      <use x="39.208984" xlink:href="#DejaVuSans-104"/>
      <use x="102.587891" xlink:href="#DejaVuSans-114"/>
      <use x="143.669922" xlink:href="#DejaVuSans-111"/>
      <use x="204.851562" xlink:href="#DejaVuSans-117"/>
      <use x="268.230469" xlink:href="#DejaVuSans-103"/>
      <use x="331.707031" xlink:href="#DejaVuSans-104"/>
      <use x="395.085938" xlink:href="#DejaVuSans-112"/>
      <use x="458.5625" xlink:href="#DejaVuSans-117"/>
      <use x="521.941406" xlink:href="#DejaVuSans-116"/>
     </g>
     <!-- (mbit / second) -->
     <defs>
      <path d="M 31 75.875 
Q 24.46875 64.65625 21.28125 53.65625 
Q 18.109375 42.671875 18.109375 31.390625 
Q 18.109375 20.125 21.3125 9.0625 
Q 24.515625 -2 31 -13.1875 
L 23.1875 -13.1875 
Q 15.875 -1.703125 12.234375 9.375 
Q 8.59375 20.453125 8.59375 31.390625 
Q 8.59375 42.28125 12.203125 53.3125 
Q 15.828125 64.359375 23.1875 75.875 
z
" id="DejaVuSans-40"/>
      <path d="M 52 44.1875 
Q 55.375 50.25 60.0625 53.125 
Q 64.75 56 71.09375 56 
Q 79.640625 56 84.28125 50.015625 
Q 88.921875 44.046875 88.921875 33.015625 
L 88.921875 0 
L 79.890625 0 
L 79.890625 32.71875 
Q 79.890625 40.578125 77.09375 44.375 
Q 74.3125 48.1875 68.609375 48.1875 
Q 61.625 48.1875 57.5625 43.546875 
Q 53.515625 38.921875 53.515625 30.90625 
L 53.515625 0 
L 44.484375 0 
L 44.484375 32.71875 
Q 44.484375 40.625 41.703125 44.40625 
Q 38.921875 48.1875 33.109375 48.1875 
Q 26.21875 48.1875 22.15625 43.53125 
Q 18.109375 38.875 18.109375 30.90625 
L 18.109375 0 
L 9.078125 0 
L 9.078125 54.6875 
L 18.109375 54.6875 
L 18.109375 46.1875 
Q 21.1875 51.21875 25.484375 53.609375 
Q 29.78125 56 35.6875 56 
Q 41.65625 56 45.828125 52.96875 
Q 50 49.953125 52 44.1875 
z
" id="DejaVuSans-109"/>
      <path d="M 48.6875 27.296875 
Q 48.6875 37.203125 44.609375 42.84375 
Q 40.53125 48.484375 33.40625 48.484375 
Q 26.265625 48.484375 22.1875 42.84375 
Q 18.109375 37.203125 18.109375 27.296875 
Q 18.109375 17.390625 22.1875 11.75 
Q 26.265625 6.109375 33.40625 6.109375 
Q 40.53125 6.109375 44.609375 11.75 
Q 48.6875 17.390625 48.6875 27.296875 
z
M 18.109375 46.390625 
Q 20.953125 51.265625 25.265625 53.625 
Q 29.59375 56 35.59375 56 
Q 45.5625 56 51.78125 48.09375 
Q 58.015625 40.1875 58.015625 27.296875 
Q 58.015625 14.40625 51.78125 6.484375 
Q 45.5625 -1.421875 35.59375 -1.421875 
Q 29.59375 -1.421875 25.265625 0.953125 
Q 20.953125 3.328125 18.109375 8.203125 
L 18.109375 0 
L 9.078125 0 
L 9.078125 75.984375 
L 18.109375 75.984375 
z
" id="DejaVuSans-98"/>
      <path d="M 9.421875 54.6875 
L 18.40625 54.6875 
L 18.40625 0 
L 9.421875 0 
z
M 9.421875 75.984375 
L 18.40625 75.984375 
L 18.40625 64.59375 
L 9.421875 64.59375 
z
" id="DejaVuSans-105"/>
      <path id="DejaVuSans-32"/>
      <path d="M 25.390625 72.90625 
L 33.6875 72.90625 
L 8.296875 -9.28125 
L 0 -9.28125 
z
" id="DejaVuSans-47"/>
      <path d="M 44.28125 53.078125 
L 44.28125 44.578125 
Q 40.484375 46.53125 36.375 47.5 
Q 32.28125 48.484375 27.875 48.484375 
Q 21.1875 48.484375 17.84375 46.4375 
Q 14.5 44.390625 14.5 40.28125 
Q 14.5 37.15625 16.890625 35.375 
Q 19.28125 33.59375 26.515625 31.984375 
L 29.59375 31.296875 
Q 39.15625 29.25 43.1875 25.515625 
Q 47.21875 21.78125 47.21875 15.09375 
Q 47.21875 7.46875 41.1875 3.015625 
Q 35.15625 -1.421875 24.609375 -1.421875 
Q 20.21875 -1.421875 15.453125 -0.5625 
Q 10.6875 0.296875 5.421875 2 
L 5.421875 11.28125 
Q 10.40625 8.6875 15.234375 7.390625 
Q 20.0625 6.109375 24.8125 6.109375 
Q 31.15625 6.109375 34.5625 8.28125 
Q 37.984375 10.453125 37.984375 14.40625 
Q 37.984375 18.0625 35.515625 20.015625 
Q 33.0625 21.96875 24.703125 23.78125 
L 21.578125 24.515625 
Q 13.234375 26.265625 9.515625 29.90625 
Q 5.8125 33.546875 5.8125 39.890625 
Q 5.8125 47.609375 11.28125 51.796875 
Q 16.75 56 26.8125 56 
Q 31.78125 56 36.171875 55.265625 
Q 40.578125 54.546875 44.28125 53.078125 
z
" id="DejaVuSans-115"/>
      <path d="M 56.203125 29.59375 
L 56.203125 25.203125 
L 14.890625 25.203125 
Q 15.484375 15.921875 20.484375 11.0625 
Q 25.484375 6.203125 34.421875 6.203125 
Q 39.59375 6.203125 44.453125 7.46875 
Q 49.3125 8.734375 54.109375 11.28125 
L 54.109375 2.78125 
Q 49.265625 0.734375 44.1875 -0.34375 
Q 39.109375 -1.421875 33.890625 -1.421875 
Q 20.796875 -1.421875 13.15625 6.1875 
Q 5.515625 13.8125 5.515625 26.8125 
Q 5.515625 40.234375 12.765625 48.109375 
Q 20.015625 56 32.328125 56 
Q 43.359375 56 49.78125 48.890625 
Q 56.203125 41.796875 56.203125 29.59375 
z
M 47.21875 32.234375 
Q 47.125 39.59375 43.09375 43.984375 
Q 39.0625 48.390625 32.421875 48.390625 
Q 24.90625 48.390625 20.390625 44.140625 
Q 15.875 39.890625 15.1875 32.171875 
z
" id="DejaVuSans-101"/>
      <path d="M 48.78125 52.59375 
L 48.78125 44.1875 
Q 44.96875 46.296875 41.140625 47.34375 
Q 37.3125 48.390625 33.40625 48.390625 
Q 24.65625 48.390625 19.8125 42.84375 
Q 14.984375 37.3125 14.984375 27.296875 
Q 14.984375 17.28125 19.8125 11.734375 
Q 24.65625 6.203125 33.40625 6.203125 
Q 37.3125 6.203125 41.140625 7.25 
Q 44.96875 8.296875 48.78125 10.40625 
L 48.78125 2.09375 
Q 45.015625 0.34375 40.984375 -0.53125 
Q 36.96875 -1.421875 32.421875 -1.421875 
Q 20.0625 -1.421875 12.78125 6.34375 
Q 5.515625 14.109375 5.515625 27.296875 
Q 5.515625 40.671875 12.859375 48.328125 
Q 20.21875 56 33.015625 56 
Q 37.15625 56 41.109375 55.140625 
Q 45.0625 54.296875 48.78125 52.59375 
z
" id="DejaVuSans-99"/>
      <path d="M 54.890625 33.015625 
L 54.890625 0 
L 45.90625 0 
L 45.90625 32.71875 
Q 45.90625 40.484375 42.875 44.328125 
Q 39.84375 48.1875 33.796875 48.1875 
Q 26.515625 48.1875 22.3125 43.546875 
Q 18.109375 38.921875 18.109375 30.90625 
L 18.109375 0 
L 9.078125 0 
L 9.078125 54.6875 
L 18.109375 54.6875 
L 18.109375 46.1875 
Q 21.34375 51.125 25.703125 53.5625 
Q 30.078125 56 35.796875 56 
Q 45.21875 56 50.046875 50.171875 
Q 54.890625 44.34375 54.890625 33.015625 
z
" id="DejaVuSans-110"/>
      <path d="M 45.40625 46.390625 
L 45.40625 75.984375 
L 54.390625 75.984375 
L 54.390625 0 
L 45.40625 0 
L 45.40625 8.203125 
Q 42.578125 3.328125 38.25 0.953125 
Q 33.9375 -1.421875 27.875 -1.421875 
Q 17.96875 -1.421875 11.734375 6.484375 
Q 5.515625 14.40625 5.515625 27.296875 
Q 5.515625 40.1875 11.734375 48.09375 
Q 17.96875 56 27.875 56 
Q 33.9375 56 38.25 53.625 
Q 42.578125 51.265625 45.40625 46.390625 
z
M 14.796875 27.296875 
Q 14.796875 17.390625 18.875 11.75 
Q 22.953125 6.109375 30.078125 6.109375 
Q 37.203125 6.109375 41.296875 11.75 
Q 45.40625 17.390625 45.40625 27.296875 
Q 45.40625 37.203125 41.296875 42.84375 
Q 37.203125 48.484375 30.078125 48.484375 
Q 22.953125 48.484375 18.875 42.84375 
Q 14.796875 37.203125 14.796875 27.296875 
z
" id="DejaVuSans-100"/>
      <path d="M 8.015625 75.875 
L 15.828125 75.875 
Q 23.140625 64.359375 26.78125 53.3125 
Q 30.421875 42.28125 30.421875 31.390625 
Q 30.421875 20.453125 26.78125 9.375 
Q 23.140625 -1.703125 15.828125 -13.1875 
L 8.015625 -13.1875 
Q 14.5 -2 17.703125 9.0625 
Q 20.90625 20.125 20.90625 31.390625 
Q 20.90625 42.671875 17.703125 53.65625 
Q 14.5 64.65625 8.015625 75.875 
z
" id="DejaVuSans-41"/>
     </defs>
     <g transform="translate(57.667656 231.608958)rotate(-90)scale(0.1 -0.1)">
      <use xlink:href="#DejaVuSans-40"/>
      <use x="39.013672" xlink:href="#DejaVuSans-109"/>
      <use x="136.425781" xlink:href="#DejaVuSans-98"/>
      <use x="199.902344" xlink:href="#DejaVuSans-105"/>
      <use x="227.685547" xlink:href="#DejaVuSans-116"/>
      <use x="266.894531" xlink:href="#DejaVuSans-32"/>
      <use x="298.681641" xlink:href="#DejaVuSans-47"/>
      <use x="332.373047" xlink:href="#DejaVuSans-32"/>
      <use x="364.160156" xlink:href="#DejaVuSans-115"/>
      <use x="416.259766" xlink:href="#DejaVuSans-101"/>
      <use x="477.783203" xlink:href="#DejaVuSans-99"/>
      <use x="532.763672" xlink:href="#DejaVuSans-111"/>
      <use x="593.945312" xlink:href="#DejaVuSans-110"/>
      <use x="657.324219" xlink:href="#DejaVuSans-100"/>
      <use x="720.800781" xlink:href="#DejaVuSans-41"/>
     </g>
    </g>
   </g>
   <g id="line2d_16">
    <path clip-path="url(#p6542ebc5e6)" d="M 109.705597 309.943799 
L 110.440808 294.587302 
L 111.176018 294.587302 
L 111.911228 286.909054 
L 112.646438 294.587302 
L 113.381648 290.748178 
L 114.116858 290.748178 
L 114.852068 286.909054 
L 115.587279 275.391681 
L 116.322489 271.552556 
L 117.057699 260.035184 
L 117.792909 252.356935 
L 118.528119 248.517811 
L 119.263329 237.000438 
L 119.998539 233.161314 
L 120.73375 240.839562 
L 122.20417 248.517811 
L 122.93938 260.035184 
L 123.67459 263.874308 
L 124.4098 275.391681 
L 125.14501 275.391681 
L 125.88022 263.874308 
L 126.615431 275.391681 
L 127.350641 283.069929 
L 128.085851 275.391681 
L 128.821061 263.874308 
L 131.026691 263.874308 
L 131.761902 267.713432 
L 132.497112 283.069929 
L 133.232322 275.391681 
L 133.967532 271.552556 
L 135.437952 279.230805 
L 136.173162 271.552556 
L 136.908373 267.713432 
L 137.643583 256.196059 
L 138.378793 267.713432 
L 139.849213 283.069929 
L 140.584423 283.069929 
L 142.054844 290.748178 
L 143.525264 283.069929 
L 144.260474 290.748178 
L 144.995684 286.909054 
L 145.730894 302.265551 
L 146.466104 298.426427 
L 147.201315 302.265551 
L 147.936525 298.426427 
L 148.671735 286.909054 
L 150.142155 271.552556 
L 150.877365 260.035184 
L 151.612575 260.035184 
L 152.347786 252.356935 
L 153.082996 237.000438 
L 154.553416 229.322189 
L 155.288626 240.839562 
L 156.023836 244.678686 
L 157.494257 260.035184 
L 158.964677 260.035184 
L 159.699887 263.874308 
L 160.435097 271.552556 
L 161.170307 286.909054 
L 162.640728 271.552556 
L 164.846358 271.552556 
L 165.581568 275.391681 
L 166.316778 275.391681 
L 167.051988 271.552556 
L 169.992829 286.909054 
L 170.728039 283.069929 
L 171.463249 263.874308 
L 172.198459 267.713432 
L 172.93367 275.391681 
L 173.66888 279.230805 
L 174.40409 271.552556 
L 175.1393 260.035184 
L 176.60972 252.356935 
L 177.34493 260.035184 
L 178.080141 260.035184 
L 179.550561 283.069929 
L 180.285771 267.713432 
L 181.020981 263.874308 
L 181.756191 248.517811 
L 183.226612 263.874308 
L 183.961822 263.874308 
L 184.697032 271.552556 
L 185.432242 275.391681 
L 186.167452 275.391681 
L 186.902662 279.230805 
L 187.637872 279.230805 
L 188.373083 260.035184 
L 189.108293 260.035184 
L 189.843503 267.713432 
L 190.578713 271.552556 
L 191.313923 267.713432 
L 192.049133 271.552556 
L 192.784343 283.069929 
L 193.519554 275.391681 
L 194.254764 271.552556 
L 194.989974 275.391681 
L 195.725184 275.391681 
L 196.460394 267.713432 
L 197.195604 256.196059 
L 197.930814 260.035184 
L 198.666025 267.713432 
L 199.401235 267.713432 
L 200.136445 271.552556 
L 200.871655 279.230805 
L 201.606865 279.230805 
L 202.342075 263.874308 
L 203.812496 263.874308 
L 204.547706 267.713432 
L 205.282916 267.713432 
L 206.018126 283.069929 
L 208.223756 306.104675 
L 208.958966 298.426427 
L 209.694177 286.909054 
L 210.429387 286.909054 
L 211.164597 279.230805 
L 211.899807 267.713432 
L 212.635017 271.552556 
L 213.370227 279.230805 
L 215.575858 279.230805 
L 216.311068 267.713432 
L 217.046278 263.874308 
L 217.781488 248.517811 
L 218.516698 256.196059 
L 219.987119 263.874308 
L 220.722329 263.874308 
L 221.457539 267.713432 
L 222.192749 267.713432 
L 222.927959 279.230805 
L 223.663169 279.230805 
L 224.398379 260.035184 
L 225.13359 263.874308 
L 225.8688 271.552556 
L 226.60401 275.391681 
L 227.33922 271.552556 
L 228.07443 256.196059 
L 228.80964 260.035184 
L 229.54485 267.713432 
L 230.280061 267.713432 
L 231.015271 275.391681 
L 231.750481 279.230805 
L 233.956111 256.196059 
L 234.691321 252.356935 
L 235.426532 275.391681 
L 236.161742 283.069929 
L 236.896952 283.069929 
L 237.632162 279.230805 
L 238.367372 263.874308 
L 239.102582 260.035184 
L 239.837792 260.035184 
L 240.573003 271.552556 
L 242.043423 263.874308 
L 242.778633 283.069929 
L 243.513843 267.713432 
L 244.249053 271.552556 
L 244.984263 279.230805 
L 246.454684 263.874308 
L 247.189894 267.713432 
L 247.925104 283.069929 
L 248.660314 279.230805 
L 249.395524 267.713432 
L 251.601155 290.748178 
L 252.336365 290.748178 
L 253.806785 298.426427 
L 254.541995 306.104675 
L 255.277205 302.265551 
L 256.012416 294.587302 
L 257.482836 294.587302 
L 258.953256 286.909054 
L 260.423676 294.587302 
L 261.158887 290.748178 
L 261.894097 302.265551 
L 263.364517 309.943799 
L 264.099727 317.622048 
L 265.570147 294.587302 
L 266.305358 294.587302 
L 268.510988 271.552556 
L 269.246198 279.230805 
L 269.981408 279.230805 
L 270.716618 271.552556 
L 271.451829 267.713432 
L 272.187039 260.035184 
L 272.922249 256.196059 
L 273.657459 267.713432 
L 274.392669 271.552556 
L 275.127879 283.069929 
L 275.863089 283.069929 
L 277.33351 290.748178 
L 278.06872 298.426427 
L 278.80393 294.587302 
L 279.53914 286.909054 
L 281.744771 286.909054 
L 282.479981 275.391681 
L 283.215191 279.230805 
L 283.950401 286.909054 
L 284.685611 306.104675 
L 285.420821 309.943799 
L 286.156031 306.104675 
L 286.891242 298.426427 
L 287.626452 286.909054 
L 288.361662 283.069929 
L 289.096872 275.391681 
L 289.832082 263.874308 
L 290.567292 267.713432 
L 291.302502 275.391681 
L 292.772923 283.069929 
L 293.508133 283.069929 
L 294.243343 267.713432 
L 295.713763 260.035184 
L 296.448973 248.517811 
L 297.184183 256.196059 
L 297.919394 260.035184 
L 298.654604 271.552556 
L 299.389814 290.748178 
L 300.125024 302.265551 
L 300.860234 306.104675 
L 301.595444 302.265551 
L 302.330654 294.587302 
L 303.065865 279.230805 
L 303.801075 279.230805 
L 304.536285 286.909054 
L 305.271495 283.069929 
L 306.006705 275.391681 
L 306.741915 271.552556 
L 307.477125 286.909054 
L 308.212336 286.909054 
L 308.947546 294.587302 
L 309.682756 290.748178 
L 311.153176 275.391681 
L 312.623596 283.069929 
L 313.358807 283.069929 
L 314.094017 290.748178 
L 314.829227 286.909054 
L 315.564437 294.587302 
L 317.034857 286.909054 
L 317.770067 294.587302 
L 318.505278 294.587302 
L 319.240488 306.104675 
L 319.975698 309.943799 
L 320.710908 309.943799 
L 321.446118 302.265551 
L 322.181328 309.943799 
L 323.651749 294.587302 
L 324.386959 302.265551 
L 325.122169 317.622048 
L 325.857379 306.104675 
L 326.592589 309.943799 
L 327.327799 309.943799 
L 328.79822 294.587302 
L 330.26864 302.265551 
L 331.73906 302.265551 
L 333.20948 309.943799 
L 334.679901 309.943799 
L 335.415111 302.265551 
L 336.885531 279.230805 
L 337.620741 271.552556 
L 338.355951 271.552556 
L 339.091162 260.035184 
L 340.561582 275.391681 
L 341.296792 286.909054 
L 342.032002 286.909054 
L 342.767212 290.748178 
L 343.502422 290.748178 
L 344.237633 275.391681 
L 345.708053 267.713432 
L 346.443263 248.517811 
L 347.178473 248.517811 
L 347.913683 260.035184 
L 348.648893 260.035184 
L 349.384104 271.552556 
L 350.854524 286.909054 
L 352.324944 294.587302 
L 353.060154 294.587302 
L 353.795364 290.748178 
L 354.530575 294.587302 
L 355.265785 294.587302 
L 356.736205 279.230805 
L 357.471415 279.230805 
L 358.206625 290.748178 
L 360.412256 290.748178 
L 361.147466 294.587302 
L 361.882676 290.748178 
L 362.617886 298.426427 
L 363.353096 298.426427 
L 364.088306 286.909054 
L 364.823517 290.748178 
L 365.558727 298.426427 
L 366.293937 286.909054 
L 367.029147 283.069929 
L 367.764357 275.391681 
L 368.499567 290.748178 
L 369.234777 283.069929 
L 369.969988 279.230805 
L 370.705198 271.552556 
L 371.440408 260.035184 
L 372.175618 271.552556 
L 372.910828 279.230805 
L 373.646038 290.748178 
L 375.116458 275.391681 
L 375.851669 260.035184 
L 376.586879 256.196059 
L 377.322089 267.713432 
L 378.057299 275.391681 
L 378.792509 267.713432 
L 379.527719 286.909054 
L 380.262929 294.587302 
L 381.73335 294.587302 
L 382.46856 302.265551 
L 383.20377 290.748178 
L 383.93898 286.909054 
L 384.67419 271.552556 
L 385.4094 275.391681 
L 386.144611 286.909054 
L 386.879821 275.391681 
L 387.615031 267.713432 
L 388.350241 267.713432 
L 389.085451 275.391681 
L 389.820661 275.391681 
L 392.026292 298.426427 
L 392.761502 298.426427 
L 393.496712 302.265551 
L 394.231922 298.426427 
L 394.967132 302.265551 
L 395.702342 302.265551 
L 397.172763 279.230805 
L 397.907973 279.230805 
L 398.643183 286.909054 
L 399.378393 290.748178 
L 400.113603 298.426427 
L 400.848813 302.265551 
L 401.584024 302.265551 
L 402.319234 298.426427 
L 403.054444 286.909054 
L 403.789654 283.069929 
L 404.524864 271.552556 
L 407.465705 240.839562 
L 408.200915 237.000438 
L 409.671335 213.965692 
L 410.406545 206.287444 
L 411.141755 225.483065 
L 411.876966 233.161314 
L 412.612176 256.196059 
L 413.347386 252.356935 
L 414.082596 252.356935 
L 414.817806 237.000438 
L 415.553016 244.678686 
L 417.023437 252.356935 
L 417.758647 271.552556 
L 418.493857 267.713432 
L 419.229067 252.356935 
L 419.964277 252.356935 
L 420.699487 275.391681 
L 421.434697 286.909054 
L 422.169908 286.909054 
L 422.905118 290.748178 
L 423.640328 290.748178 
L 424.375538 294.587302 
L 425.845958 294.587302 
L 426.581168 298.426427 
L 427.316379 294.587302 
L 428.051589 279.230805 
L 429.522009 271.552556 
L 430.257219 271.552556 
L 430.992429 275.391681 
L 431.727639 275.391681 
L 432.46285 267.713432 
L 433.19806 275.391681 
L 433.93327 290.748178 
L 434.66848 294.587302 
L 435.40369 294.587302 
L 436.87411 309.943799 
L 437.609321 306.104675 
L 438.344531 290.748178 
L 439.814951 283.069929 
L 440.550161 271.552556 
L 441.285371 263.874308 
L 442.755792 279.230805 
L 443.491002 298.426427 
L 444.226212 309.943799 
L 444.961422 302.265551 
L 445.696632 306.104675 
L 446.431842 306.104675 
L 447.167052 294.587302 
L 447.902263 290.748178 
L 448.637473 294.587302 
L 450.107893 294.587302 
L 450.843103 290.748178 
L 451.578313 290.748178 
L 453.048734 275.391681 
L 453.783944 256.196059 
L 455.254364 256.196059 
L 455.989574 244.678686 
L 456.724784 252.356935 
L 457.459994 256.196059 
L 458.930415 248.517811 
L 459.665625 260.035184 
L 460.400835 267.713432 
L 461.136045 279.230805 
L 461.871255 283.069929 
L 462.606465 298.426427 
L 464.076886 283.069929 
L 464.812096 267.713432 
L 465.547306 260.035184 
L 466.282516 256.196059 
L 467.752936 240.839562 
L 468.488146 237.000438 
L 469.223357 237.000438 
L 470.693777 244.678686 
L 471.428987 256.196059 
L 472.164197 260.035184 
L 474.369828 283.069929 
L 475.105038 283.069929 
L 475.840248 286.909054 
L 476.575458 294.587302 
L 477.310668 279.230805 
L 478.045878 275.391681 
L 478.781088 275.391681 
L 479.516299 279.230805 
L 480.251509 279.230805 
L 480.986719 267.713432 
L 481.721929 267.713432 
L 482.457139 275.391681 
L 483.192349 275.391681 
L 483.927559 271.552556 
L 484.66277 263.874308 
L 485.39798 271.552556 
L 486.13319 271.552556 
L 486.8684 267.713432 
L 487.60361 279.230805 
L 488.33882 286.909054 
L 489.07403 279.230805 
L 490.544451 286.909054 
L 491.279661 294.587302 
L 492.750081 286.909054 
L 493.485291 275.391681 
L 494.220501 275.391681 
L 494.955712 279.230805 
L 495.690922 279.230805 
L 496.426132 275.391681 
L 497.161342 260.035184 
L 497.896552 260.035184 
L 498.631762 267.713432 
L 499.366972 267.713432 
L 500.102183 260.035184 
L 500.837393 260.035184 
L 501.572603 267.713432 
L 502.307813 267.713432 
L 503.778233 260.035184 
L 504.513443 275.391681 
L 505.248654 275.391681 
L 505.983864 263.874308 
L 506.719074 260.035184 
L 506.719074 260.035184 
" style="fill:none;stroke:#1f77b4;stroke-linecap:square;stroke-width:1.5;"/>
   </g>
   <g id="line2d_17">
    <path clip-path="url(#p6542ebc5e6)" d="M 106.836807 317.622048 
L 107.572018 302.265551 
L 108.307228 298.426427 
L 109.042438 290.748178 
L 109.777648 298.426427 
L 110.512858 298.426427 
L 111.983278 290.748178 
L 112.718489 298.426427 
L 113.453699 290.748178 
L 114.188909 290.748178 
L 114.924119 286.909054 
L 115.659329 275.391681 
L 116.394539 271.552556 
L 117.129749 263.874308 
L 117.86496 275.391681 
L 118.60017 275.391681 
L 119.33538 267.713432 
L 120.07059 286.909054 
L 120.8058 275.391681 
L 121.54101 271.552556 
L 122.27622 263.874308 
L 123.011431 248.517811 
L 123.746641 252.356935 
L 124.481851 267.713432 
L 125.217061 271.552556 
L 125.952271 283.069929 
L 126.687481 279.230805 
L 127.422691 283.069929 
L 128.893112 298.426427 
L 129.628322 298.426427 
L 130.363532 294.587302 
L 131.098742 294.587302 
L 132.569162 279.230805 
L 134.039583 286.909054 
L 134.774793 279.230805 
L 135.510003 275.391681 
L 136.245213 286.909054 
L 136.980423 290.748178 
L 137.715633 298.426427 
L 138.450843 302.265551 
L 139.186054 302.265551 
L 139.921264 306.104675 
L 142.126894 306.104675 
L 142.862104 298.426427 
L 143.597314 298.426427 
L 144.332525 302.265551 
L 145.067735 302.265551 
L 145.802945 309.943799 
L 147.273365 309.943799 
L 148.008575 306.104675 
L 148.743785 313.782924 
L 149.478996 302.265551 
L 150.214206 298.426427 
L 150.949416 286.909054 
L 152.419836 279.230805 
L 153.155046 290.748178 
L 153.890256 298.426427 
L 154.625467 298.426427 
L 155.360677 302.265551 
L 156.095887 298.426427 
L 156.831097 302.265551 
L 157.566307 302.265551 
L 158.301517 306.104675 
L 159.036727 302.265551 
L 159.771938 294.587302 
L 160.507148 290.748178 
L 162.712778 267.713432 
L 163.447988 267.713432 
L 164.183198 271.552556 
L 167.124039 271.552556 
L 168.594459 279.230805 
L 169.329669 267.713432 
L 170.06488 260.035184 
L 170.80009 260.035184 
L 171.5353 267.713432 
L 172.27051 267.713432 
L 173.00572 256.196059 
L 174.47614 256.196059 
L 175.946561 279.230805 
L 176.681771 286.909054 
L 177.416981 290.748178 
L 178.152191 290.748178 
L 179.622611 275.391681 
L 180.357822 283.069929 
L 181.093032 283.069929 
L 181.828242 275.391681 
L 182.563452 275.391681 
L 183.298662 283.069929 
L 184.033872 283.069929 
L 184.769082 290.748178 
L 186.974713 290.748178 
L 187.709923 294.587302 
L 189.180343 294.587302 
L 189.915553 298.426427 
L 190.650764 294.587302 
L 191.385974 294.587302 
L 192.121184 286.909054 
L 192.856394 275.391681 
L 193.591604 267.713432 
L 194.326814 283.069929 
L 195.062024 290.748178 
L 195.797235 290.748178 
L 196.532445 294.587302 
L 198.002865 294.587302 
L 198.738075 298.426427 
L 199.473285 294.587302 
L 200.208495 283.069929 
L 200.943706 275.391681 
L 201.678916 275.391681 
L 202.414126 286.909054 
L 203.149336 294.587302 
L 203.884546 290.748178 
L 204.619756 283.069929 
L 205.354966 279.230805 
L 206.825387 263.874308 
L 207.560597 260.035184 
L 208.295807 244.678686 
L 209.031017 252.356935 
L 210.501437 260.035184 
L 211.236648 256.196059 
L 211.971858 275.391681 
L 212.707068 283.069929 
L 213.442278 286.909054 
L 215.647908 286.909054 
L 216.383119 271.552556 
L 217.118329 275.391681 
L 217.853539 283.069929 
L 218.588749 283.069929 
L 219.323959 290.748178 
L 220.059169 290.748178 
L 220.794379 286.909054 
L 222.2648 286.909054 
L 223.00001 271.552556 
L 223.73522 271.552556 
L 224.47043 279.230805 
L 225.20564 279.230805 
L 225.94085 286.909054 
L 226.67606 290.748178 
L 227.411271 286.909054 
L 228.146481 294.587302 
L 228.881691 294.587302 
L 229.616901 298.426427 
L 231.822531 298.426427 
L 233.292952 283.069929 
L 234.028162 271.552556 
L 234.763372 271.552556 
L 235.498582 263.874308 
L 236.233792 271.552556 
L 236.969002 271.552556 
L 237.704213 286.909054 
L 239.174633 279.230805 
L 239.909843 267.713432 
L 240.645053 260.035184 
L 241.380263 256.196059 
L 242.115473 248.517811 
L 242.850684 244.678686 
L 243.585894 260.035184 
L 244.321104 256.196059 
L 245.056314 248.517811 
L 246.526734 263.874308 
L 247.261944 263.874308 
L 247.997155 275.391681 
L 248.732365 279.230805 
L 249.467575 290.748178 
L 251.673205 302.265551 
L 252.408415 302.265551 
L 253.143626 290.748178 
L 253.878836 286.909054 
L 254.614046 275.391681 
L 255.349256 286.909054 
L 256.084466 294.587302 
L 257.554886 286.909054 
L 259.025307 286.909054 
L 260.495727 263.874308 
L 261.230937 263.874308 
L 261.966147 252.356935 
L 263.436568 244.678686 
L 264.171778 263.874308 
L 264.906988 263.874308 
L 265.642198 271.552556 
L 266.377408 271.552556 
L 267.112618 290.748178 
L 267.847828 283.069929 
L 268.583039 298.426427 
L 269.318249 302.265551 
L 270.053459 302.265551 
L 270.788669 290.748178 
L 271.523879 286.909054 
L 272.259089 302.265551 
L 272.994299 294.587302 
L 273.72951 283.069929 
L 274.46472 279.230805 
L 275.19993 267.713432 
L 275.93514 267.713432 
L 276.67035 252.356935 
L 277.40556 256.196059 
L 278.14077 263.874308 
L 278.875981 267.713432 
L 279.611191 283.069929 
L 280.346401 286.909054 
L 281.081611 286.909054 
L 281.816821 283.069929 
L 282.552031 271.552556 
L 283.287241 267.713432 
L 284.757662 252.356935 
L 285.492872 233.161314 
L 286.228082 240.839562 
L 286.963292 263.874308 
L 287.698502 248.517811 
L 289.168923 248.517811 
L 289.904133 263.874308 
L 290.639343 275.391681 
L 291.374553 279.230805 
L 292.109763 286.909054 
L 292.844973 286.909054 
L 293.580183 290.748178 
L 294.315394 298.426427 
L 295.785814 306.104675 
L 296.521024 313.782924 
L 297.256234 317.622048 
L 297.991444 313.782924 
L 299.461865 298.426427 
L 300.932285 275.391681 
L 301.667495 275.391681 
L 302.402705 290.748178 
L 303.137915 279.230805 
L 304.608335 286.909054 
L 305.343546 286.909054 
L 306.078756 294.587302 
L 306.813966 290.748178 
L 309.019596 267.713432 
L 309.754806 263.874308 
L 310.490017 271.552556 
L 311.225227 275.391681 
L 311.960437 283.069929 
L 312.695647 283.069929 
L 313.430857 286.909054 
L 314.166067 286.909054 
L 314.901277 283.069929 
L 315.636488 267.713432 
L 316.371698 267.713432 
L 317.106908 263.874308 
L 317.842118 248.517811 
L 318.577328 248.517811 
L 319.312538 237.000438 
L 320.047748 252.356935 
L 320.782959 263.874308 
L 321.518169 279.230805 
L 322.253379 267.713432 
L 322.988589 260.035184 
L 324.459009 252.356935 
L 325.194219 256.196059 
L 326.66464 271.552556 
L 327.39985 275.391681 
L 329.60548 252.356935 
L 330.34069 248.517811 
L 331.075901 256.196059 
L 331.811111 260.035184 
L 332.546321 252.356935 
L 333.281531 248.517811 
L 334.016741 260.035184 
L 334.751951 263.874308 
L 336.222372 279.230805 
L 336.957582 283.069929 
L 337.692792 283.069929 
L 338.428002 286.909054 
L 339.163212 294.587302 
L 339.898422 286.909054 
L 340.633632 283.069929 
L 341.368843 267.713432 
L 342.104053 271.552556 
L 342.839263 279.230805 
L 343.574473 279.230805 
L 345.044893 286.909054 
L 345.780103 286.909054 
L 346.515314 290.748178 
L 347.250524 290.748178 
L 347.985734 294.587302 
L 348.720944 294.587302 
L 350.926574 306.104675 
L 351.661785 306.104675 
L 352.396995 294.587302 
L 353.132205 290.748178 
L 353.867415 283.069929 
L 354.602625 260.035184 
L 355.337835 260.035184 
L 356.073045 256.196059 
L 357.543466 240.839562 
L 358.278676 237.000438 
L 359.749096 244.678686 
L 361.219516 260.035184 
L 361.954727 260.035184 
L 362.689937 275.391681 
L 363.425147 279.230805 
L 364.895567 302.265551 
L 365.630777 302.265551 
L 366.365987 286.909054 
L 367.101198 283.069929 
L 367.836408 275.391681 
L 368.571618 263.874308 
L 369.306828 275.391681 
L 370.042038 279.230805 
L 370.777248 298.426427 
L 371.512458 309.943799 
L 372.247669 313.782924 
L 372.982879 309.943799 
L 373.718089 302.265551 
L 374.453299 290.748178 
L 375.188509 286.909054 
L 375.923719 294.587302 
L 376.658929 294.587302 
L 378.12935 302.265551 
L 379.59977 286.909054 
L 380.33498 267.713432 
L 381.07019 267.713432 
L 381.8054 260.035184 
L 382.540611 256.196059 
L 383.275821 267.713432 
L 384.011031 271.552556 
L 384.746241 283.069929 
L 385.481451 279.230805 
L 386.216661 271.552556 
L 386.951871 275.391681 
L 387.687082 275.391681 
L 388.422292 279.230805 
L 389.157502 286.909054 
L 389.892712 286.909054 
L 390.627922 275.391681 
L 391.363132 271.552556 
L 392.098342 286.909054 
L 393.568763 263.874308 
L 394.303973 263.874308 
L 395.774393 248.517811 
L 396.509603 248.517811 
L 397.244813 256.196059 
L 397.980023 260.035184 
L 398.715234 248.517811 
L 399.450444 244.678686 
L 400.185654 237.000438 
L 400.920864 221.643941 
L 401.656074 217.804816 
L 402.391284 217.804816 
L 403.126494 233.161314 
L 404.596915 240.839562 
L 405.332125 256.196059 
L 406.067335 267.713432 
L 406.802545 275.391681 
L 407.537755 286.909054 
L 409.008176 302.265551 
L 409.743386 306.104675 
L 410.478596 306.104675 
L 411.213806 294.587302 
L 411.949016 290.748178 
L 412.684226 283.069929 
L 413.419436 290.748178 
L 414.154647 290.748178 
L 414.889857 283.069929 
L 415.625067 283.069929 
L 416.360277 286.909054 
L 417.095487 286.909054 
L 417.830697 271.552556 
L 420.036328 283.069929 
L 420.771538 275.391681 
L 421.506748 260.035184 
L 423.712378 271.552556 
L 424.447589 279.230805 
L 425.918009 279.230805 
L 426.653219 286.909054 
L 427.388429 286.909054 
L 428.123639 290.748178 
L 428.858849 290.748178 
L 429.59406 286.909054 
L 430.32927 267.713432 
L 431.06448 263.874308 
L 431.79969 271.552556 
L 432.5349 290.748178 
L 433.27011 298.426427 
L 434.740531 298.426427 
L 436.210951 283.069929 
L 436.946161 271.552556 
L 437.681371 271.552556 
L 438.416581 275.391681 
L 439.151791 275.391681 
L 439.887002 286.909054 
L 440.622212 286.909054 
L 441.357422 283.069929 
L 442.092632 271.552556 
L 442.827842 267.713432 
L 445.033473 244.678686 
L 445.768683 260.035184 
L 446.503893 260.035184 
L 447.239103 275.391681 
L 447.974313 275.391681 
L 448.709523 283.069929 
L 449.444733 286.909054 
L 450.179944 283.069929 
L 451.650364 283.069929 
L 452.385574 290.748178 
L 453.855994 298.426427 
L 454.591204 298.426427 
L 456.061625 283.069929 
L 456.796835 286.909054 
L 457.532045 286.909054 
L 458.267255 290.748178 
L 459.002465 298.426427 
L 459.737675 286.909054 
L 460.472886 283.069929 
L 461.208096 290.748178 
L 461.943306 290.748178 
L 463.413726 313.782924 
L 464.148936 321.461172 
L 464.884146 321.461172 
L 465.619357 317.622048 
L 468.560197 286.909054 
L 470.765828 286.909054 
L 471.501038 290.748178 
L 472.236248 290.748178 
L 473.706668 275.391681 
L 474.441878 279.230805 
L 475.912298 279.230805 
L 476.647509 267.713432 
L 478.117929 275.391681 
L 478.853139 271.552556 
L 479.588349 256.196059 
L 480.323559 256.196059 
L 481.058769 271.552556 
L 481.79398 271.552556 
L 482.52919 252.356935 
L 483.2644 256.196059 
L 483.99961 275.391681 
L 484.73482 275.391681 
L 486.20524 283.069929 
L 487.675661 267.713432 
L 488.410871 279.230805 
L 489.146081 279.230805 
L 489.881291 290.748178 
L 491.351711 298.426427 
L 492.822132 290.748178 
L 493.557342 298.426427 
L 494.292552 298.426427 
L 495.027762 302.265551 
L 496.498182 294.587302 
L 497.233393 302.265551 
L 497.968603 298.426427 
L 498.703813 306.104675 
L 499.439023 302.265551 
L 500.174233 290.748178 
L 500.909443 286.909054 
L 501.644653 290.748178 
L 502.379864 290.748178 
L 503.115074 294.587302 
L 503.850284 302.265551 
L 503.850284 302.265551 
" style="fill:none;stroke:#ff7f0e;stroke-linecap:square;stroke-width:1.5;"/>
   </g>
   <g id="line2d_18">
    <path clip-path="url(#p6542ebc5e6)" d="M 112.606737 290.748178 
L 113.341947 275.391681 
L 114.812367 275.391681 
L 115.547577 286.909054 
L 116.282787 290.748178 
L 117.017997 298.426427 
L 118.488418 306.104675 
L 119.223628 313.782924 
L 119.958838 306.104675 
L 122.899679 306.104675 
L 123.634889 302.265551 
L 124.370099 290.748178 
L 125.105309 290.748178 
L 125.840519 298.426427 
L 126.575729 294.587302 
L 128.04615 302.265551 
L 128.78136 290.748178 
L 129.51657 286.909054 
L 130.98699 286.909054 
L 131.7222 283.069929 
L 132.45741 271.552556 
L 133.192621 275.391681 
L 133.927831 283.069929 
L 134.663041 275.391681 
L 135.398251 271.552556 
L 136.133461 260.035184 
L 136.868671 260.035184 
L 137.603881 275.391681 
L 138.339092 267.713432 
L 139.074302 263.874308 
L 139.809512 244.678686 
L 140.544722 244.678686 
L 141.279932 233.161314 
L 142.015142 229.322189 
L 142.750352 240.839562 
L 143.485563 248.517811 
L 144.220773 233.161314 
L 144.955983 237.000438 
L 145.691193 225.483065 
L 146.426403 240.839562 
L 147.161613 248.517811 
L 147.896823 252.356935 
L 148.632034 237.000438 
L 149.367244 252.356935 
L 150.102454 256.196059 
L 150.837664 271.552556 
L 151.572874 275.391681 
L 152.308084 294.587302 
L 153.043294 302.265551 
L 154.513715 294.587302 
L 155.248925 302.265551 
L 155.984135 298.426427 
L 158.189765 298.426427 
L 158.924976 294.587302 
L 160.395396 294.587302 
L 161.130606 286.909054 
L 161.865816 302.265551 
L 162.601026 309.943799 
L 163.336236 306.104675 
L 164.071447 306.104675 
L 164.806657 298.426427 
L 165.541867 294.587302 
L 166.277077 294.587302 
L 167.012287 298.426427 
L 167.747497 309.943799 
L 168.482707 309.943799 
L 169.217917 306.104675 
L 169.953128 309.943799 
L 170.688338 306.104675 
L 172.158758 306.104675 
L 172.893968 294.587302 
L 173.629178 290.748178 
L 174.364388 283.069929 
L 175.099599 271.552556 
L 175.834809 263.874308 
L 176.570019 260.035184 
L 177.305229 267.713432 
L 178.040439 267.713432 
L 179.510859 260.035184 
L 180.24607 267.713432 
L 180.98128 271.552556 
L 181.71649 286.909054 
L 182.4517 279.230805 
L 183.18691 263.874308 
L 183.92212 267.713432 
L 184.65733 248.517811 
L 185.392541 244.678686 
L 186.127751 252.356935 
L 187.598171 260.035184 
L 188.333381 271.552556 
L 189.068591 271.552556 
L 191.274222 283.069929 
L 192.009432 294.587302 
L 192.744642 290.748178 
L 193.479852 298.426427 
L 194.215062 294.587302 
L 194.950272 298.426427 
L 196.420693 298.426427 
L 197.155903 302.265551 
L 197.891113 298.426427 
L 198.626323 279.230805 
L 200.096743 279.230805 
L 200.831954 283.069929 
L 201.567164 283.069929 
L 202.302374 294.587302 
L 203.037584 290.748178 
L 204.508004 290.748178 
L 205.243214 294.587302 
L 205.978425 302.265551 
L 206.713635 302.265551 
L 207.448845 309.943799 
L 208.184055 298.426427 
L 208.919265 294.587302 
L 209.654475 298.426427 
L 210.389685 298.426427 
L 211.124896 309.943799 
L 211.860106 317.622048 
L 213.330526 302.265551 
L 214.065736 302.265551 
L 215.536156 294.587302 
L 216.271367 306.104675 
L 217.006577 302.265551 
L 217.741787 290.748178 
L 218.476997 283.069929 
L 219.212207 271.552556 
L 222.153048 271.552556 
L 222.888258 283.069929 
L 223.623468 286.909054 
L 224.358678 294.587302 
L 225.093888 290.748178 
L 226.564309 275.391681 
L 227.299519 294.587302 
L 228.034729 283.069929 
L 228.769939 279.230805 
L 229.505149 263.874308 
L 230.240359 263.874308 
L 230.975569 271.552556 
L 231.71078 271.552556 
L 233.91641 294.587302 
L 234.65162 298.426427 
L 235.38683 290.748178 
L 236.12204 271.552556 
L 236.857251 271.552556 
L 237.592461 267.713432 
L 238.327671 275.391681 
L 239.062881 279.230805 
L 239.798091 275.391681 
L 240.533301 286.909054 
L 241.268511 294.587302 
L 242.003722 313.782924 
L 242.738932 309.943799 
L 243.474142 294.587302 
L 244.209352 290.748178 
L 244.944562 283.069929 
L 245.679772 286.909054 
L 247.150193 286.909054 
L 247.885403 271.552556 
L 248.620613 275.391681 
L 249.355823 286.909054 
L 250.091033 279.230805 
L 250.826243 275.391681 
L 251.561453 283.069929 
L 252.296664 283.069929 
L 253.031874 271.552556 
L 253.767084 271.552556 
L 254.502294 283.069929 
L 255.237504 283.069929 
L 255.972714 279.230805 
L 259.648765 279.230805 
L 260.383975 283.069929 
L 261.119185 283.069929 
L 261.854395 294.587302 
L 262.589605 298.426427 
L 263.324816 306.104675 
L 264.060026 298.426427 
L 265.530446 298.426427 
L 267.000866 290.748178 
L 267.736076 279.230805 
L 268.471287 275.391681 
L 269.206497 256.196059 
L 269.941707 252.356935 
L 270.676917 263.874308 
L 271.412127 271.552556 
L 272.147337 263.874308 
L 272.882547 260.035184 
L 273.617758 275.391681 
L 274.352968 275.391681 
L 275.088178 263.874308 
L 275.823388 260.035184 
L 276.558598 244.678686 
L 277.293808 244.678686 
L 278.029018 225.483065 
L 278.764229 229.322189 
L 279.499439 217.804816 
L 280.234649 225.483065 
L 280.969859 229.322189 
L 281.705069 237.000438 
L 282.440279 256.196059 
L 283.175489 256.196059 
L 284.64591 240.839562 
L 285.38112 256.196059 
L 286.11633 256.196059 
L 286.85154 248.517811 
L 287.58675 267.713432 
L 288.32196 275.391681 
L 289.057171 290.748178 
L 289.792381 279.230805 
L 291.262801 263.874308 
L 293.468431 275.391681 
L 294.203642 286.909054 
L 294.938852 294.587302 
L 295.674062 298.426427 
L 296.409272 309.943799 
L 297.144482 298.426427 
L 297.879692 290.748178 
L 298.614902 286.909054 
L 299.350113 279.230805 
L 300.085323 275.391681 
L 300.820533 279.230805 
L 301.555743 279.230805 
L 302.290953 275.391681 
L 303.026163 283.069929 
L 303.761373 286.909054 
L 304.496584 294.587302 
L 305.231794 290.748178 
L 306.702214 275.391681 
L 307.437424 290.748178 
L 308.907844 275.391681 
L 309.643055 271.552556 
L 311.113475 256.196059 
L 311.848685 263.874308 
L 312.583895 263.874308 
L 313.319105 256.196059 
L 314.054315 244.678686 
L 314.789526 248.517811 
L 315.524736 260.035184 
L 316.259946 260.035184 
L 316.995156 256.196059 
L 317.730366 271.552556 
L 318.465576 275.391681 
L 319.200786 263.874308 
L 319.935997 256.196059 
L 320.671207 252.356935 
L 321.406417 244.678686 
L 322.141627 263.874308 
L 322.876837 267.713432 
L 323.612047 279.230805 
L 325.082468 271.552556 
L 325.817678 279.230805 
L 326.552888 283.069929 
L 327.288098 290.748178 
L 328.023308 290.748178 
L 328.758518 298.426427 
L 329.493728 290.748178 
L 330.228939 286.909054 
L 330.964149 290.748178 
L 331.699359 290.748178 
L 332.434569 283.069929 
L 333.169779 279.230805 
L 333.904989 260.035184 
L 334.640199 256.196059 
L 336.11062 271.552556 
L 337.58104 279.230805 
L 338.31625 279.230805 
L 339.05146 263.874308 
L 339.78667 260.035184 
L 340.52188 252.356935 
L 341.257091 267.713432 
L 341.992301 267.713432 
L 342.727511 279.230805 
L 344.197931 279.230805 
L 344.933141 283.069929 
L 345.668351 283.069929 
L 346.403562 290.748178 
L 347.138772 290.748178 
L 347.873982 294.587302 
L 348.609192 294.587302 
L 350.079612 279.230805 
L 350.814822 286.909054 
L 351.550033 286.909054 
L 352.285243 290.748178 
L 353.020453 298.426427 
L 353.755663 286.909054 
L 354.490873 290.748178 
L 355.226083 290.748178 
L 355.961293 294.587302 
L 356.696504 302.265551 
L 357.431714 313.782924 
L 358.166924 317.622048 
L 358.902134 302.265551 
L 359.637344 298.426427 
L 360.372554 290.748178 
L 361.107764 275.391681 
L 361.842975 275.391681 
L 363.313395 260.035184 
L 364.048605 248.517811 
L 364.783815 244.678686 
L 365.519025 237.000438 
L 366.254235 252.356935 
L 366.989446 256.196059 
L 367.724656 279.230805 
L 368.459866 267.713432 
L 369.195076 260.035184 
L 369.930286 256.196059 
L 370.665496 248.517811 
L 371.400706 237.000438 
L 372.135917 229.322189 
L 372.871127 225.483065 
L 373.606337 213.965692 
L 374.341547 229.322189 
L 375.076757 240.839562 
L 376.547177 256.196059 
L 378.017598 240.839562 
L 378.752808 263.874308 
L 379.488018 260.035184 
L 380.223228 267.713432 
L 380.958438 271.552556 
L 381.693648 267.713432 
L 382.428859 260.035184 
L 383.164069 271.552556 
L 383.899279 275.391681 
L 384.634489 290.748178 
L 385.369699 283.069929 
L 386.104909 271.552556 
L 386.840119 279.230805 
L 388.31054 279.230805 
L 389.04575 260.035184 
L 389.78096 260.035184 
L 390.51617 271.552556 
L 391.25138 275.391681 
L 391.98659 263.874308 
L 392.721801 267.713432 
L 393.457011 275.391681 
L 394.192221 275.391681 
L 394.927431 267.713432 
L 395.662641 267.713432 
L 396.397851 283.069929 
L 397.133061 290.748178 
L 397.868272 286.909054 
L 398.603482 279.230805 
L 399.338692 275.391681 
L 400.073902 286.909054 
L 400.809112 294.587302 
L 401.544322 294.587302 
L 402.279532 290.748178 
L 403.014743 294.587302 
L 403.749953 294.587302 
L 405.220373 279.230805 
L 406.690793 286.909054 
L 407.426003 279.230805 
L 408.161214 279.230805 
L 408.896424 290.748178 
L 410.366844 298.426427 
L 411.102054 298.426427 
L 411.837264 302.265551 
L 414.042895 279.230805 
L 414.778105 290.748178 
L 415.513315 283.069929 
L 416.248525 271.552556 
L 416.983735 275.391681 
L 417.718945 260.035184 
L 418.454156 260.035184 
L 419.189366 271.552556 
L 419.924576 271.552556 
L 420.659786 263.874308 
L 421.394996 279.230805 
L 422.865416 286.909054 
L 423.600626 286.909054 
L 424.335837 271.552556 
L 425.071047 267.713432 
L 425.806257 260.035184 
L 426.541467 244.678686 
L 427.276677 248.517811 
L 428.011887 256.196059 
L 428.747097 260.035184 
L 429.482308 256.196059 
L 430.217518 263.874308 
L 430.952728 267.713432 
L 431.687938 267.713432 
L 433.158358 252.356935 
L 433.893568 237.000438 
L 434.628779 229.322189 
L 436.834409 263.874308 
L 438.304829 279.230805 
L 439.040039 279.230805 
L 439.77525 275.391681 
L 441.24567 283.069929 
L 441.98088 275.391681 
L 442.71609 271.552556 
L 443.4513 263.874308 
L 444.921721 279.230805 
L 445.656931 267.713432 
L 446.392141 263.874308 
L 447.127351 275.391681 
L 447.862561 279.230805 
L 448.597771 286.909054 
L 451.538612 286.909054 
L 453.009032 294.587302 
L 453.744242 302.265551 
L 454.479452 302.265551 
L 455.214663 306.104675 
L 455.949873 306.104675 
L 456.685083 290.748178 
L 457.420293 286.909054 
L 458.890713 294.587302 
L 459.625923 286.909054 
L 460.361134 283.069929 
L 461.096344 271.552556 
L 461.831554 267.713432 
L 462.566764 252.356935 
L 464.037184 267.713432 
L 464.772394 271.552556 
L 465.507605 279.230805 
L 466.242815 283.069929 
L 466.978025 290.748178 
L 468.448445 298.426427 
L 469.183655 298.426427 
L 469.918865 294.587302 
L 470.654076 294.587302 
L 471.389286 298.426427 
L 472.124496 298.426427 
L 473.594916 283.069929 
L 474.330126 286.909054 
L 475.800547 286.909054 
L 476.535757 298.426427 
L 477.270967 302.265551 
L 478.006177 302.265551 
L 478.741387 298.426427 
L 479.476597 302.265551 
L 480.211807 298.426427 
L 480.947018 290.748178 
L 481.682228 286.909054 
L 482.417438 290.748178 
L 483.152648 290.748178 
L 483.887858 286.909054 
L 484.623068 279.230805 
L 485.358278 260.035184 
L 486.093489 256.196059 
L 486.828699 267.713432 
L 487.563909 275.391681 
L 488.299119 267.713432 
L 489.034329 279.230805 
L 489.769539 279.230805 
L 490.504749 275.391681 
L 491.23996 252.356935 
L 491.97517 256.196059 
L 493.44559 286.909054 
L 494.1808 286.909054 
L 494.91601 271.552556 
L 495.65122 271.552556 
L 496.386431 283.069929 
L 497.856851 275.391681 
L 498.592061 283.069929 
L 499.327271 283.069929 
L 500.062481 290.748178 
L 501.532902 298.426427 
L 503.003322 298.426427 
L 503.738532 306.104675 
L 504.473742 290.748178 
L 505.208952 290.748178 
L 505.944162 298.426427 
L 506.679373 294.587302 
L 507.414583 294.587302 
L 508.149793 298.426427 
L 508.885003 294.587302 
L 509.620213 283.069929 
L 509.620213 283.069929 
" style="fill:none;stroke:#2ca02c;stroke-linecap:square;stroke-width:1.5;"/>
   </g>
   <g id="line2d_19">
    <path clip-path="url(#p6542ebc5e6)" d="M 103.765099 94.952839 
L 104.50031 48.883347 
L 105.97073 48.883347 
L 106.70594 79.596342 
L 107.44115 98.791963 
L 108.17636 106.470212 
L 108.91157 110.309336 
L 109.646781 148.700579 
L 110.381991 164.057076 
L 111.852411 179.413573 
L 112.587621 225.483065 
L 113.322831 252.356935 
L 114.793252 260.035184 
L 115.528462 275.391681 
L 116.263672 279.230805 
L 116.998882 290.748178 
L 117.734092 283.069929 
L 118.469302 279.230805 
L 119.204512 290.748178 
L 119.939723 286.909054 
L 120.674933 286.909054 
L 121.410143 290.748178 
L 122.145353 290.748178 
L 122.880563 294.587302 
L 123.615773 290.748178 
L 124.350983 279.230805 
L 125.086194 279.230805 
L 125.821404 263.874308 
L 126.556614 263.874308 
L 127.291824 252.356935 
L 128.027034 244.678686 
L 128.762244 260.035184 
L 129.497454 263.874308 
L 130.232665 263.874308 
L 130.967875 267.713432 
L 131.703085 267.713432 
L 132.438295 283.069929 
L 133.908715 267.713432 
L 134.643925 279.230805 
L 135.379136 283.069929 
L 136.114346 294.587302 
L 136.849556 294.587302 
L 137.584766 283.069929 
L 138.319976 275.391681 
L 139.055186 271.552556 
L 141.996027 286.909054 
L 143.466447 279.230805 
L 144.201657 286.909054 
L 144.936867 286.909054 
L 147.142498 252.356935 
L 147.877708 256.196059 
L 148.612918 271.552556 
L 149.348128 275.391681 
L 150.818548 290.748178 
L 151.553759 294.587302 
L 152.288969 290.748178 
L 153.024179 279.230805 
L 153.759389 283.069929 
L 154.494599 290.748178 
L 155.229809 271.552556 
L 155.965019 271.552556 
L 156.70023 260.035184 
L 157.43544 252.356935 
L 158.90586 252.356935 
L 159.64107 256.196059 
L 160.37628 256.196059 
L 161.11149 252.356935 
L 161.846701 252.356935 
L 162.581911 267.713432 
L 165.522751 267.713432 
L 166.257961 271.552556 
L 166.993172 267.713432 
L 167.728382 252.356935 
L 168.463592 248.517811 
L 169.198802 252.356935 
L 169.934012 260.035184 
L 170.669222 260.035184 
L 171.404432 271.552556 
L 172.139643 271.552556 
L 172.874853 283.069929 
L 173.610063 286.909054 
L 174.345273 302.265551 
L 175.080483 309.943799 
L 175.815693 313.782924 
L 176.550903 313.782924 
L 177.286114 298.426427 
L 178.756534 290.748178 
L 179.491744 290.748178 
L 180.226954 294.587302 
L 180.962164 290.748178 
L 181.697374 298.426427 
L 182.432585 302.265551 
L 185.373425 302.265551 
L 186.108635 290.748178 
L 186.843845 283.069929 
L 187.579056 279.230805 
L 188.314266 286.909054 
L 189.049476 286.909054 
L 189.784686 275.391681 
L 190.519896 267.713432 
L 191.255106 263.874308 
L 191.990316 256.196059 
L 192.725527 256.196059 
L 193.460737 267.713432 
L 194.195947 263.874308 
L 194.931157 248.517811 
L 195.666367 244.678686 
L 197.136787 260.035184 
L 197.871998 260.035184 
L 198.607208 271.552556 
L 199.342418 271.552556 
L 200.812838 279.230805 
L 201.548048 279.230805 
L 202.283258 267.713432 
L 203.018469 263.874308 
L 203.753679 263.874308 
L 204.488889 267.713432 
L 205.224099 267.713432 
L 205.959309 256.196059 
L 206.694519 252.356935 
L 207.429729 244.678686 
L 208.16494 263.874308 
L 208.90015 263.874308 
L 209.63536 271.552556 
L 210.37057 271.552556 
L 211.10578 267.713432 
L 211.84099 252.356935 
L 212.5762 248.517811 
L 213.311411 240.839562 
L 214.046621 240.839562 
L 215.517041 248.517811 
L 216.252251 263.874308 
L 216.987461 271.552556 
L 217.722671 283.069929 
L 219.193092 290.748178 
L 220.663512 290.748178 
L 221.398722 286.909054 
L 222.133932 286.909054 
L 222.869142 275.391681 
L 223.604353 271.552556 
L 224.339563 279.230805 
L 225.074773 279.230805 
L 225.809983 271.552556 
L 226.545193 267.713432 
L 227.280403 260.035184 
L 228.015613 275.391681 
L 229.486034 283.069929 
L 230.221244 283.069929 
L 230.956454 263.874308 
L 231.691664 260.035184 
L 233.162084 275.391681 
L 233.897294 286.909054 
L 234.632505 290.748178 
L 235.367715 283.069929 
L 236.102925 286.909054 
L 236.838135 286.909054 
L 237.573345 283.069929 
L 239.043765 290.748178 
L 239.778976 306.104675 
L 240.514186 294.587302 
L 241.249396 290.748178 
L 242.719816 275.391681 
L 243.455026 286.909054 
L 244.190236 290.748178 
L 244.925447 298.426427 
L 247.131077 298.426427 
L 247.866287 283.069929 
L 248.601497 279.230805 
L 249.336707 267.713432 
L 250.071918 263.874308 
L 250.807128 256.196059 
L 251.542338 240.839562 
L 252.277548 237.000438 
L 253.747968 260.035184 
L 254.483178 244.678686 
L 255.953599 244.678686 
L 258.159229 256.196059 
L 258.894439 256.196059 
L 259.629649 260.035184 
L 260.36486 267.713432 
L 261.10007 271.552556 
L 261.83528 260.035184 
L 262.57049 256.196059 
L 263.3057 248.517811 
L 264.04091 237.000438 
L 264.77612 240.839562 
L 265.511331 248.517811 
L 266.246541 248.517811 
L 266.981751 244.678686 
L 267.716961 271.552556 
L 268.452171 267.713432 
L 269.187381 275.391681 
L 269.922591 275.391681 
L 270.657802 279.230805 
L 271.393012 286.909054 
L 272.128222 283.069929 
L 272.863432 298.426427 
L 273.598642 286.909054 
L 274.333852 286.909054 
L 275.804273 302.265551 
L 276.539483 325.300297 
L 278.009903 325.300297 
L 278.745113 321.461172 
L 279.480323 325.300297 
L 280.215533 313.782924 
L 280.950744 306.104675 
L 281.685954 302.265551 
L 282.421164 309.943799 
L 283.156374 309.943799 
L 283.891584 313.782924 
L 284.626794 309.943799 
L 285.362004 313.782924 
L 286.097215 309.943799 
L 286.832425 302.265551 
L 287.567635 306.104675 
L 288.302845 306.104675 
L 289.038055 298.426427 
L 289.773265 306.104675 
L 290.508475 302.265551 
L 291.978896 279.230805 
L 292.714106 271.552556 
L 293.449316 271.552556 
L 294.184526 256.196059 
L 294.919736 252.356935 
L 296.390157 237.000438 
L 297.125367 244.678686 
L 297.860577 248.517811 
L 298.595787 248.517811 
L 299.330997 240.839562 
L 300.066207 244.678686 
L 300.801417 252.356935 
L 301.536628 256.196059 
L 302.271838 252.356935 
L 303.007048 267.713432 
L 303.742258 267.713432 
L 304.477468 244.678686 
L 305.212678 248.517811 
L 305.947888 260.035184 
L 306.683099 267.713432 
L 307.418309 252.356935 
L 308.153519 260.035184 
L 308.888729 275.391681 
L 309.623939 283.069929 
L 310.359149 298.426427 
L 311.094359 302.265551 
L 311.82957 286.909054 
L 312.56478 283.069929 
L 313.29999 286.909054 
L 314.77041 286.909054 
L 315.50562 294.587302 
L 316.24083 290.748178 
L 316.976041 302.265551 
L 318.446461 294.587302 
L 319.181671 302.265551 
L 319.916881 298.426427 
L 321.387301 283.069929 
L 322.122511 271.552556 
L 322.857722 279.230805 
L 323.592932 283.069929 
L 324.328142 279.230805 
L 325.063352 267.713432 
L 326.533772 252.356935 
L 327.268982 240.839562 
L 328.004193 248.517811 
L 328.739403 260.035184 
L 329.474613 267.713432 
L 330.209823 279.230805 
L 330.945033 263.874308 
L 331.680243 260.035184 
L 333.150664 275.391681 
L 334.621084 283.069929 
L 335.356294 279.230805 
L 336.091504 267.713432 
L 338.297135 279.230805 
L 339.032345 290.748178 
L 340.502765 298.426427 
L 341.237975 286.909054 
L 341.973185 286.909054 
L 342.708395 263.874308 
L 343.443606 263.874308 
L 344.178816 271.552556 
L 344.914026 275.391681 
L 345.649236 271.552556 
L 346.384446 283.069929 
L 347.119656 283.069929 
L 347.854866 267.713432 
L 349.325287 260.035184 
L 350.795707 237.000438 
L 353.001337 225.483065 
L 353.736548 252.356935 
L 354.471758 263.874308 
L 355.206968 263.874308 
L 356.677388 279.230805 
L 357.412598 271.552556 
L 358.147808 267.713432 
L 358.883019 275.391681 
L 359.618229 275.391681 
L 361.088649 283.069929 
L 361.823859 283.069929 
L 362.559069 275.391681 
L 363.294279 271.552556 
L 364.02949 283.069929 
L 364.7647 279.230805 
L 365.49991 271.552556 
L 366.23512 283.069929 
L 366.97033 286.909054 
L 367.70554 279.230805 
L 368.44075 290.748178 
L 369.911171 298.426427 
L 370.646381 294.587302 
L 371.381591 302.265551 
L 372.852011 294.587302 
L 373.587221 302.265551 
L 374.322432 306.104675 
L 375.057642 306.104675 
L 375.792852 309.943799 
L 376.528062 306.104675 
L 377.263272 298.426427 
L 377.998482 294.587302 
L 379.468903 279.230805 
L 380.204113 283.069929 
L 380.939323 283.069929 
L 381.674533 286.909054 
L 382.409743 298.426427 
L 383.144953 283.069929 
L 383.880163 283.069929 
L 384.615374 267.713432 
L 385.350584 267.713432 
L 386.085794 283.069929 
L 386.821004 283.069929 
L 387.556214 286.909054 
L 388.291424 286.909054 
L 389.026634 290.748178 
L 389.761845 290.748178 
L 391.967475 267.713432 
L 392.702685 267.713432 
L 393.437895 271.552556 
L 394.173105 271.552556 
L 394.908316 283.069929 
L 395.643526 286.909054 
L 397.849156 286.909054 
L 398.584366 298.426427 
L 399.319576 298.426427 
L 400.054787 286.909054 
L 401.525207 294.587302 
L 402.260417 302.265551 
L 403.730837 294.587302 
L 404.466047 309.943799 
L 405.201257 313.782924 
L 406.671678 298.426427 
L 407.406888 306.104675 
L 408.142098 306.104675 
L 408.877308 294.587302 
L 410.347728 302.265551 
L 411.082939 290.748178 
L 412.553359 275.391681 
L 413.288569 283.069929 
L 414.023779 286.909054 
L 414.758989 298.426427 
L 415.494199 298.426427 
L 416.22941 302.265551 
L 416.96462 298.426427 
L 417.69983 306.104675 
L 418.43504 306.104675 
L 419.17025 309.943799 
L 419.90546 306.104675 
L 420.64067 298.426427 
L 421.375881 286.909054 
L 422.111091 283.069929 
L 422.846301 260.035184 
L 425.787141 275.391681 
L 426.522352 283.069929 
L 427.257562 283.069929 
L 427.992772 286.909054 
L 428.727982 286.909054 
L 429.463192 294.587302 
L 430.198402 306.104675 
L 430.933612 306.104675 
L 431.668823 302.265551 
L 433.139243 286.909054 
L 433.874453 286.909054 
L 434.609663 290.748178 
L 435.344873 286.909054 
L 436.080083 275.391681 
L 436.815294 267.713432 
L 437.550504 263.874308 
L 439.020924 271.552556 
L 439.756134 267.713432 
L 440.491344 271.552556 
L 441.226554 283.069929 
L 441.961765 290.748178 
L 442.696975 294.587302 
L 444.167395 279.230805 
L 445.637815 286.909054 
L 447.843446 263.874308 
L 448.578656 248.517811 
L 449.313866 244.678686 
L 450.049076 248.517811 
L 450.784286 248.517811 
L 451.519496 252.356935 
L 452.989917 244.678686 
L 453.725127 252.356935 
L 454.460337 256.196059 
L 455.195547 256.196059 
L 455.930757 275.391681 
L 457.401178 283.069929 
L 458.136388 279.230805 
L 458.871598 271.552556 
L 459.606808 279.230805 
L 460.342018 283.069929 
L 461.077228 271.552556 
L 461.812438 271.552556 
L 462.547649 256.196059 
L 463.282859 252.356935 
L 464.018069 240.839562 
L 465.488489 256.196059 
L 466.223699 256.196059 
L 466.958909 275.391681 
L 467.69412 279.230805 
L 468.42933 290.748178 
L 469.16454 286.909054 
L 470.63496 286.909054 
L 471.37017 271.552556 
L 472.10538 263.874308 
L 473.575801 279.230805 
L 474.311011 267.713432 
L 475.046221 260.035184 
L 475.781431 260.035184 
L 476.516641 248.517811 
L 477.251851 256.196059 
L 478.722272 263.874308 
L 479.457482 271.552556 
L 480.192692 271.552556 
L 480.927902 283.069929 
L 482.398322 290.748178 
L 483.133533 290.748178 
L 483.868743 286.909054 
L 484.603953 290.748178 
L 485.339163 302.265551 
L 486.074373 302.265551 
L 488.280003 279.230805 
L 489.015214 275.391681 
L 489.750424 263.874308 
L 490.485634 256.196059 
L 491.220844 267.713432 
L 491.956054 267.713432 
L 492.691264 263.874308 
L 493.426474 252.356935 
L 494.161685 252.356935 
L 494.896895 260.035184 
L 495.632105 263.874308 
L 496.367315 256.196059 
L 497.102525 271.552556 
L 497.837735 275.391681 
L 498.572945 256.196059 
L 499.308156 256.196059 
L 500.043366 267.713432 
L 500.043366 267.713432 
" style="fill:none;stroke:#d62728;stroke-linecap:square;stroke-width:1.5;"/>
   </g>
   <g id="patch_3">
    <path d="M 83.472344 352.174167 
L 83.472344 35.0625 
" style="fill:none;stroke:#000000;stroke-linecap:square;stroke-linejoin:miter;stroke-width:0.8;"/>
   </g>
   <g id="patch_4">
    <path d="M 529.912969 352.174167 
L 529.912969 35.0625 
" style="fill:none;stroke:#000000;stroke-linecap:square;stroke-linejoin:miter;stroke-width:0.8;"/>
   </g>
   <g id="patch_5">
    <path d="M 83.472344 352.174167 
L 529.912969 352.174167 
" style="fill:none;stroke:#000000;stroke-linecap:square;stroke-linejoin:miter;stroke-width:0.8;"/>
   </g>
   <g id="patch_6">
    <path d="M 83.472344 35.0625 
L 529.912969 35.0625 
" style="fill:none;stroke:#000000;stroke-linecap:square;stroke-linejoin:miter;stroke-width:0.8;"/>
   </g>
   <g id="legend_1">
    <g id="patch_7">
     <path d="M 554.235 96.775 
L 625.430312 96.775 
Q 627.430312 96.775 627.430312 94.775 
L 627.430312 37.0625 
Q 627.430312 35.0625 625.430312 35.0625 
L 554.235 35.0625 
Q 552.235 35.0625 552.235 37.0625 
L 552.235 94.775 
Q 552.235 96.775 554.235 96.775 
z
" style="fill:#ffffff;opacity:0.8;stroke:#cccccc;stroke-linejoin:miter;"/>
    </g>
    <g id="line2d_20">
     <path d="M 556.235 43.160937 
L 576.235 43.160937 
" style="fill:none;stroke:#1f77b4;stroke-linecap:square;stroke-width:1.5;"/>
    </g>
    <g id="line2d_21"/>
    <g id="text_17">
     <!-- cubic-pi -->
     <defs>
      <path d="M 4.890625 31.390625 
L 31.203125 31.390625 
L 31.203125 23.390625 
L 4.890625 23.390625 
z
" id="DejaVuSans-45"/>
     </defs>
     <g transform="translate(584.235 46.660937)scale(0.1 -0.1)">
      <use xlink:href="#DejaVuSans-99"/>
      <use x="54.980469" xlink:href="#DejaVuSans-117"/>
      <use x="118.359375" xlink:href="#DejaVuSans-98"/>
      <use x="181.835938" xlink:href="#DejaVuSans-105"/>
      <use x="209.619141" xlink:href="#DejaVuSans-99"/>
      <use x="264.599609" xlink:href="#DejaVuSans-45"/>
      <use x="300.683594" xlink:href="#DejaVuSans-112"/>
      <use x="364.160156" xlink:href="#DejaVuSans-105"/>
     </g>
    </g>
    <g id="line2d_22">
     <path d="M 556.235 57.839063 
L 576.235 57.839063 
" style="fill:none;stroke:#ff7f0e;stroke-linecap:square;stroke-width:1.5;"/>
    </g>
    <g id="line2d_23"/>
    <g id="text_18">
     <!-- cubic-pi -->
     <g transform="translate(584.235 61.339063)scale(0.1 -0.1)">
      <use xlink:href="#DejaVuSans-99"/>
      <use x="54.980469" xlink:href="#DejaVuSans-117"/>
      <use x="118.359375" xlink:href="#DejaVuSans-98"/>
      <use x="181.835938" xlink:href="#DejaVuSans-105"/>
      <use x="209.619141" xlink:href="#DejaVuSans-99"/>
      <use x="264.599609" xlink:href="#DejaVuSans-45"/>
      <use x="300.683594" xlink:href="#DejaVuSans-112"/>
      <use x="364.160156" xlink:href="#DejaVuSans-105"/>
     </g>
    </g>
    <g id="line2d_24">
     <path d="M 556.235 72.517187 
L 576.235 72.517187 
" style="fill:none;stroke:#2ca02c;stroke-linecap:square;stroke-width:1.5;"/>
    </g>
    <g id="line2d_25"/>
    <g id="text_19">
     <!-- cubic-pi -->
     <g transform="translate(584.235 76.017187)scale(0.1 -0.1)">
      <use xlink:href="#DejaVuSans-99"/>
      <use x="54.980469" xlink:href="#DejaVuSans-117"/>
      <use x="118.359375" xlink:href="#DejaVuSans-98"/>
      <use x="181.835938" xlink:href="#DejaVuSans-105"/>
      <use x="209.619141" xlink:href="#DejaVuSans-99"/>
      <use x="264.599609" xlink:href="#DejaVuSans-45"/>
      <use x="300.683594" xlink:href="#DejaVuSans-112"/>
      <use x="364.160156" xlink:href="#DejaVuSans-105"/>
     </g>
    </g>
    <g id="line2d_26">
     <path d="M 556.235 87.195312 
L 576.235 87.195312 
" style="fill:none;stroke:#d62728;stroke-linecap:square;stroke-width:1.5;"/>
    </g>
    <g id="line2d_27"/>
    <g id="text_20">
     <!-- cubic-pi -->
     <g transform="translate(584.235 90.695312)scale(0.1 -0.1)">
      <use xlink:href="#DejaVuSans-99"/>
      <use x="54.980469" xlink:href="#DejaVuSans-117"/>
      <use x="118.359375" xlink:href="#DejaVuSans-98"/>
      <use x="181.835938" xlink:href="#DejaVuSans-105"/>
      <use x="209.619141" xlink:href="#DejaVuSans-99"/>
      <use x="264.599609" xlink:href="#DejaVuSans-45"/>
      <use x="300.683594" xlink:href="#DejaVuSans-112"/>
      <use x="364.160156" xlink:href="#DejaVuSans-105"/>
     </g>
    </g>
   </g>
  </g>
  <g id="text_21">
   <!-- result throughput -->
   <defs>
    <path d="M 9.421875 75.984375 
L 18.40625 75.984375 
L 18.40625 0 
L 9.421875 0 
z
" id="DejaVuSans-108"/>
   </defs>
   <g transform="translate(289.320938 17.038125)scale(0.12 -0.12)">
    <use xlink:href="#DejaVuSans-114"/>
    <use x="41.082031" xlink:href="#DejaVuSans-101"/>
    <use x="102.605469" xlink:href="#DejaVuSans-115"/>
    <use x="154.705078" xlink:href="#DejaVuSans-117"/>
    <use x="218.083984" xlink:href="#DejaVuSans-108"/>
    <use x="245.867188" xlink:href="#DejaVuSans-116"/>
    <use x="285.076172" xlink:href="#DejaVuSans-32"/>
    <use x="316.863281" xlink:href="#DejaVuSans-116"/>
    <use x="356.072266" xlink:href="#DejaVuSans-104"/>
    <use x="419.451172" xlink:href="#DejaVuSans-114"/>
    <use x="460.533203" xlink:href="#DejaVuSans-111"/>
    <use x="521.714844" xlink:href="#DejaVuSans-117"/>
    <use x="585.09375" xlink:href="#DejaVuSans-103"/>
    <use x="648.570312" xlink:href="#DejaVuSans-104"/>
    <use x="711.949219" xlink:href="#DejaVuSans-112"/>
    <use x="775.425781" xlink:href="#DejaVuSans-117"/>
    <use x="838.804688" xlink:href="#DejaVuSans-116"/>
   </g>
  </g>
 </g>
 <defs>
  <clipPath id="p6542ebc5e6">
   <rect height="317.111667" width="446.440625" x="83.472344" y="35.0625"/>
  </clipPath>
 </defs>
</svg>
