<?xml version="1.0" encoding="utf-8" standalone="no"?>
<!DOCTYPE svg PUBLIC "-//W3C//DTD SVG 1.1//EN"
  "http://www.w3.org/Graphics/SVG/1.1/DTD/svg11.dtd">
<!-- Created with matplotlib (https://matplotlib.org/) -->
<svg height="396pt" version="1.1" viewBox="0 0 684 396" width="684pt" xmlns="http://www.w3.org/2000/svg" xmlns:xlink="http://www.w3.org/1999/xlink">
 <defs>
  <style type="text/css">
*{stroke-linecap:butt;stroke-linejoin:round;}
  </style>
 </defs>
 <g id="figure_1">
  <g id="patch_1">
   <path d="M 0 396 
L 684 396 
L 684 0 
L 0 0 
z
" style="fill:#ffffff;"/>
  </g>
  <g id="axes_1">
   <g id="patch_2">
    <path d="M 83.472344 352.174167 
L 529.912969 352.174167 
L 529.912969 35.0625 
L 83.472344 35.0625 
z
" style="fill:#ffffff;"/>
   </g>
   <g id="matplotlib.axis_1">
    <g id="xtick_1">
     <g id="line2d_1">
      <defs>
       <path d="M 0 0 
L 0 3.5 
" id="m6eda7cb65f" style="stroke:#000000;stroke-width:0.8;"/>
      </defs>
      <g>
       <use style="stroke:#000000;stroke-width:0.8;" x="103.765099" xlink:href="#m6eda7cb65f" y="352.174167"/>
      </g>
     </g>
     <g id="text_1">
      <!-- 0 -->
      <defs>
       <path d="M 31.78125 66.40625 
Q 24.171875 66.40625 20.328125 58.90625 
Q 16.5 51.421875 16.5 36.375 
Q 16.5 21.390625 20.328125 13.890625 
Q 24.171875 6.390625 31.78125 6.390625 
Q 39.453125 6.390625 43.28125 13.890625 
Q 47.125 21.390625 47.125 36.375 
Q 47.125 51.421875 43.28125 58.90625 
Q 39.453125 66.40625 31.78125 66.40625 
z
M 31.78125 74.21875 
Q 44.046875 74.21875 50.515625 64.515625 
Q 56.984375 54.828125 56.984375 36.375 
Q 56.984375 17.96875 50.515625 8.265625 
Q 44.046875 -1.421875 31.78125 -1.421875 
Q 19.53125 -1.421875 13.0625 8.265625 
Q 6.59375 17.96875 6.59375 36.375 
Q 6.59375 54.828125 13.0625 64.515625 
Q 19.53125 74.21875 31.78125 74.21875 
z
" id="DejaVuSans-48"/>
      </defs>
      <g transform="translate(100.583849 366.772604)scale(0.1 -0.1)">
       <use xlink:href="#DejaVuSans-48"/>
      </g>
     </g>
    </g>
    <g id="xtick_2">
     <g id="line2d_2">
      <g>
       <use style="stroke:#000000;stroke-width:0.8;" x="177.274662" xlink:href="#m6eda7cb65f" y="352.174167"/>
      </g>
     </g>
     <g id="text_2">
      <!-- 50 -->
      <defs>
       <path d="M 10.796875 72.90625 
L 49.515625 72.90625 
L 49.515625 64.59375 
L 19.828125 64.59375 
L 19.828125 46.734375 
Q 21.96875 47.46875 24.109375 47.828125 
Q 26.265625 48.1875 28.421875 48.1875 
Q 40.625 48.1875 47.75 41.5 
Q 54.890625 34.8125 54.890625 23.390625 
Q 54.890625 11.625 47.5625 5.09375 
Q 40.234375 -1.421875 26.90625 -1.421875 
Q 22.3125 -1.421875 17.546875 -0.640625 
Q 12.796875 0.140625 7.71875 1.703125 
L 7.71875 11.625 
Q 12.109375 9.234375 16.796875 8.0625 
Q 21.484375 6.890625 26.703125 6.890625 
Q 35.15625 6.890625 40.078125 11.328125 
Q 45.015625 15.765625 45.015625 23.390625 
Q 45.015625 31 40.078125 35.4375 
Q 35.15625 39.890625 26.703125 39.890625 
Q 22.75 39.890625 18.8125 39.015625 
Q 14.890625 38.140625 10.796875 36.28125 
z
" id="DejaVuSans-53"/>
      </defs>
      <g transform="translate(170.912162 366.772604)scale(0.1 -0.1)">
       <use xlink:href="#DejaVuSans-53"/>
       <use x="63.623047" xlink:href="#DejaVuSans-48"/>
      </g>
     </g>
    </g>
    <g id="xtick_3">
     <g id="line2d_3">
      <g>
       <use style="stroke:#000000;stroke-width:0.8;" x="250.784224" xlink:href="#m6eda7cb65f" y="352.174167"/>
      </g>
     </g>
     <g id="text_3">
      <!-- 100 -->
      <defs>
       <path d="M 12.40625 8.296875 
L 28.515625 8.296875 
L 28.515625 63.921875 
L 10.984375 60.40625 
L 10.984375 69.390625 
L 28.421875 72.90625 
L 38.28125 72.90625 
L 38.28125 8.296875 
L 54.390625 8.296875 
L 54.390625 0 
L 12.40625 0 
z
" id="DejaVuSans-49"/>
      </defs>
      <g transform="translate(241.240474 366.772604)scale(0.1 -0.1)">
       <use xlink:href="#DejaVuSans-49"/>
       <use x="63.623047" xlink:href="#DejaVuSans-48"/>
       <use x="127.246094" xlink:href="#DejaVuSans-48"/>
      </g>
     </g>
    </g>
    <g id="xtick_4">
     <g id="line2d_4">
      <g>
       <use style="stroke:#000000;stroke-width:0.8;" x="324.293786" xlink:href="#m6eda7cb65f" y="352.174167"/>
      </g>
     </g>
     <g id="text_4">
      <!-- 150 -->
      <g transform="translate(314.750036 366.772604)scale(0.1 -0.1)">
       <use xlink:href="#DejaVuSans-49"/>
       <use x="63.623047" xlink:href="#DejaVuSans-53"/>
       <use x="127.246094" xlink:href="#DejaVuSans-48"/>
      </g>
     </g>
    </g>
    <g id="xtick_5">
     <g id="line2d_5">
      <g>
       <use style="stroke:#000000;stroke-width:0.8;" x="397.803348" xlink:href="#m6eda7cb65f" y="352.174167"/>
      </g>
     </g>
     <g id="text_5">
      <!-- 200 -->
      <defs>
       <path d="M 19.1875 8.296875 
L 53.609375 8.296875 
L 53.609375 0 
L 7.328125 0 
L 7.328125 8.296875 
Q 12.9375 14.109375 22.625 23.890625 
Q 32.328125 33.6875 34.8125 36.53125 
Q 39.546875 41.84375 41.421875 45.53125 
Q 43.3125 49.21875 43.3125 52.78125 
Q 43.3125 58.59375 39.234375 62.25 
Q 35.15625 65.921875 28.609375 65.921875 
Q 23.96875 65.921875 18.8125 64.3125 
Q 13.671875 62.703125 7.8125 59.421875 
L 7.8125 69.390625 
Q 13.765625 71.78125 18.9375 73 
Q 24.125 74.21875 28.421875 74.21875 
Q 39.75 74.21875 46.484375 68.546875 
Q 53.21875 62.890625 53.21875 53.421875 
Q 53.21875 48.921875 51.53125 44.890625 
Q 49.859375 40.875 45.40625 35.40625 
Q 44.1875 33.984375 37.640625 27.21875 
Q 31.109375 20.453125 19.1875 8.296875 
z
" id="DejaVuSans-50"/>
      </defs>
      <g transform="translate(388.259598 366.772604)scale(0.1 -0.1)">
       <use xlink:href="#DejaVuSans-50"/>
       <use x="63.623047" xlink:href="#DejaVuSans-48"/>
       <use x="127.246094" xlink:href="#DejaVuSans-48"/>
      </g>
     </g>
    </g>
    <g id="xtick_6">
     <g id="line2d_6">
      <g>
       <use style="stroke:#000000;stroke-width:0.8;" x="471.31291" xlink:href="#m6eda7cb65f" y="352.174167"/>
      </g>
     </g>
     <g id="text_6">
      <!-- 250 -->
      <g transform="translate(461.76916 366.772604)scale(0.1 -0.1)">
       <use xlink:href="#DejaVuSans-50"/>
       <use x="63.623047" xlink:href="#DejaVuSans-53"/>
       <use x="127.246094" xlink:href="#DejaVuSans-48"/>
      </g>
     </g>
    </g>
   </g>
   <g id="matplotlib.axis_2">
    <g id="ytick_1">
     <g id="line2d_7">
      <defs>
       <path d="M 0 0 
L -3.5 0 
" id="m39ee17d0c3" style="stroke:#000000;stroke-width:0.8;"/>
      </defs>
      <g>
       <use style="stroke:#000000;stroke-width:0.8;" x="83.472344" xlink:href="#m39ee17d0c3" y="352.174167"/>
      </g>
     </g>
     <g id="text_7">
      <!-- 0 -->
      <g transform="translate(70.109844 355.973385)scale(0.1 -0.1)">
       <use xlink:href="#DejaVuSans-48"/>
      </g>
     </g>
    </g>
    <g id="ytick_2">
     <g id="line2d_8">
      <g>
       <use style="stroke:#000000;stroke-width:0.8;" x="83.472344" xlink:href="#m39ee17d0c3" y="313.75967"/>
      </g>
     </g>
     <g id="text_8">
      <!-- 10 -->
      <g transform="translate(63.747344 317.558889)scale(0.1 -0.1)">
       <use xlink:href="#DejaVuSans-49"/>
       <use x="63.623047" xlink:href="#DejaVuSans-48"/>
      </g>
     </g>
    </g>
    <g id="ytick_3">
     <g id="line2d_9">
      <g>
       <use style="stroke:#000000;stroke-width:0.8;" x="83.472344" xlink:href="#m39ee17d0c3" y="275.345174"/>
      </g>
     </g>
     <g id="text_9">
      <!-- 20 -->
      <g transform="translate(63.747344 279.144393)scale(0.1 -0.1)">
       <use xlink:href="#DejaVuSans-50"/>
       <use x="63.623047" xlink:href="#DejaVuSans-48"/>
      </g>
     </g>
    </g>
    <g id="ytick_4">
     <g id="line2d_10">
      <g>
       <use style="stroke:#000000;stroke-width:0.8;" x="83.472344" xlink:href="#m39ee17d0c3" y="236.930678"/>
      </g>
     </g>
     <g id="text_10">
      <!-- 30 -->
      <defs>
       <path d="M 40.578125 39.3125 
Q 47.65625 37.796875 51.625 33 
Q 55.609375 28.21875 55.609375 21.1875 
Q 55.609375 10.40625 48.1875 4.484375 
Q 40.765625 -1.421875 27.09375 -1.421875 
Q 22.515625 -1.421875 17.65625 -0.515625 
Q 12.796875 0.390625 7.625 2.203125 
L 7.625 11.71875 
Q 11.71875 9.328125 16.59375 8.109375 
Q 21.484375 6.890625 26.8125 6.890625 
Q 36.078125 6.890625 40.9375 10.546875 
Q 45.796875 14.203125 45.796875 21.1875 
Q 45.796875 27.640625 41.28125 31.265625 
Q 36.765625 34.90625 28.71875 34.90625 
L 20.21875 34.90625 
L 20.21875 43.015625 
L 29.109375 43.015625 
Q 36.375 43.015625 40.234375 45.921875 
Q 44.09375 48.828125 44.09375 54.296875 
Q 44.09375 59.90625 40.109375 62.90625 
Q 36.140625 65.921875 28.71875 65.921875 
Q 24.65625 65.921875 20.015625 65.03125 
Q 15.375 64.15625 9.8125 62.3125 
L 9.8125 71.09375 
Q 15.4375 72.65625 20.34375 73.4375 
Q 25.25 74.21875 29.59375 74.21875 
Q 40.828125 74.21875 47.359375 69.109375 
Q 53.90625 64.015625 53.90625 55.328125 
Q 53.90625 49.265625 50.4375 45.09375 
Q 46.96875 40.921875 40.578125 39.3125 
z
" id="DejaVuSans-51"/>
      </defs>
      <g transform="translate(63.747344 240.729897)scale(0.1 -0.1)">
       <use xlink:href="#DejaVuSans-51"/>
       <use x="63.623047" xlink:href="#DejaVuSans-48"/>
      </g>
     </g>
    </g>
    <g id="ytick_5">
     <g id="line2d_11">
      <g>
       <use style="stroke:#000000;stroke-width:0.8;" x="83.472344" xlink:href="#m39ee17d0c3" y="198.516182"/>
      </g>
     </g>
     <g id="text_11">
      <!-- 40 -->
      <defs>
       <path d="M 37.796875 64.3125 
L 12.890625 25.390625 
L 37.796875 25.390625 
z
M 35.203125 72.90625 
L 47.609375 72.90625 
L 47.609375 25.390625 
L 58.015625 25.390625 
L 58.015625 17.1875 
L 47.609375 17.1875 
L 47.609375 0 
L 37.796875 0 
L 37.796875 17.1875 
L 4.890625 17.1875 
L 4.890625 26.703125 
z
" id="DejaVuSans-52"/>
      </defs>
      <g transform="translate(63.747344 202.3154)scale(0.1 -0.1)">
       <use xlink:href="#DejaVuSans-52"/>
       <use x="63.623047" xlink:href="#DejaVuSans-48"/>
      </g>
     </g>
    </g>
    <g id="ytick_6">
     <g id="line2d_12">
      <g>
       <use style="stroke:#000000;stroke-width:0.8;" x="83.472344" xlink:href="#m39ee17d0c3" y="160.101685"/>
      </g>
     </g>
     <g id="text_12">
      <!-- 50 -->
      <g transform="translate(63.747344 163.900904)scale(0.1 -0.1)">
       <use xlink:href="#DejaVuSans-53"/>
       <use x="63.623047" xlink:href="#DejaVuSans-48"/>
      </g>
     </g>
    </g>
    <g id="ytick_7">
     <g id="line2d_13">
      <g>
       <use style="stroke:#000000;stroke-width:0.8;" x="83.472344" xlink:href="#m39ee17d0c3" y="121.687189"/>
      </g>
     </g>
     <g id="text_13">
      <!-- 60 -->
      <defs>
       <path d="M 33.015625 40.375 
Q 26.375 40.375 22.484375 35.828125 
Q 18.609375 31.296875 18.609375 23.390625 
Q 18.609375 15.53125 22.484375 10.953125 
Q 26.375 6.390625 33.015625 6.390625 
Q 39.65625 6.390625 43.53125 10.953125 
Q 47.40625 15.53125 47.40625 23.390625 
Q 47.40625 31.296875 43.53125 35.828125 
Q 39.65625 40.375 33.015625 40.375 
z
M 52.59375 71.296875 
L 52.59375 62.3125 
Q 48.875 64.0625 45.09375 64.984375 
Q 41.3125 65.921875 37.59375 65.921875 
Q 27.828125 65.921875 22.671875 59.328125 
Q 17.53125 52.734375 16.796875 39.40625 
Q 19.671875 43.65625 24.015625 45.921875 
Q 28.375 48.1875 33.59375 48.1875 
Q 44.578125 48.1875 50.953125 41.515625 
Q 57.328125 34.859375 57.328125 23.390625 
Q 57.328125 12.15625 50.6875 5.359375 
Q 44.046875 -1.421875 33.015625 -1.421875 
Q 20.359375 -1.421875 13.671875 8.265625 
Q 6.984375 17.96875 6.984375 36.375 
Q 6.984375 53.65625 15.1875 63.9375 
Q 23.390625 74.21875 37.203125 74.21875 
Q 40.921875 74.21875 44.703125 73.484375 
Q 48.484375 72.75 52.59375 71.296875 
z
" id="DejaVuSans-54"/>
      </defs>
      <g transform="translate(63.747344 125.486408)scale(0.1 -0.1)">
       <use xlink:href="#DejaVuSans-54"/>
       <use x="63.623047" xlink:href="#DejaVuSans-48"/>
      </g>
     </g>
    </g>
    <g id="ytick_8">
     <g id="line2d_14">
      <g>
       <use style="stroke:#000000;stroke-width:0.8;" x="83.472344" xlink:href="#m39ee17d0c3" y="83.272693"/>
      </g>
     </g>
     <g id="text_14">
      <!-- 70 -->
      <defs>
       <path d="M 8.203125 72.90625 
L 55.078125 72.90625 
L 55.078125 68.703125 
L 28.609375 0 
L 18.3125 0 
L 43.21875 64.59375 
L 8.203125 64.59375 
z
" id="DejaVuSans-55"/>
      </defs>
      <g transform="translate(63.747344 87.071912)scale(0.1 -0.1)">
       <use xlink:href="#DejaVuSans-55"/>
       <use x="63.623047" xlink:href="#DejaVuSans-48"/>
      </g>
     </g>
    </g>
    <g id="ytick_9">
     <g id="line2d_15">
      <g>
       <use style="stroke:#000000;stroke-width:0.8;" x="83.472344" xlink:href="#m39ee17d0c3" y="44.858197"/>
      </g>
     </g>
     <g id="text_15">
      <!-- 80 -->
      <defs>
       <path d="M 31.78125 34.625 
Q 24.75 34.625 20.71875 30.859375 
Q 16.703125 27.09375 16.703125 20.515625 
Q 16.703125 13.921875 20.71875 10.15625 
Q 24.75 6.390625 31.78125 6.390625 
Q 38.8125 6.390625 42.859375 10.171875 
Q 46.921875 13.96875 46.921875 20.515625 
Q 46.921875 27.09375 42.890625 30.859375 
Q 38.875 34.625 31.78125 34.625 
z
M 21.921875 38.8125 
Q 15.578125 40.375 12.03125 44.71875 
Q 8.5 49.078125 8.5 55.328125 
Q 8.5 64.0625 14.71875 69.140625 
Q 20.953125 74.21875 31.78125 74.21875 
Q 42.671875 74.21875 48.875 69.140625 
Q 55.078125 64.0625 55.078125 55.328125 
Q 55.078125 49.078125 51.53125 44.71875 
Q 48 40.375 41.703125 38.8125 
Q 48.828125 37.15625 52.796875 32.3125 
Q 56.78125 27.484375 56.78125 20.515625 
Q 56.78125 9.90625 50.3125 4.234375 
Q 43.84375 -1.421875 31.78125 -1.421875 
Q 19.734375 -1.421875 13.25 4.234375 
Q 6.78125 9.90625 6.78125 20.515625 
Q 6.78125 27.484375 10.78125 32.3125 
Q 14.796875 37.15625 21.921875 38.8125 
z
M 18.3125 54.390625 
Q 18.3125 48.734375 21.84375 45.5625 
Q 25.390625 42.390625 31.78125 42.390625 
Q 38.140625 42.390625 41.71875 45.5625 
Q 45.3125 48.734375 45.3125 54.390625 
Q 45.3125 60.0625 41.71875 63.234375 
Q 38.140625 66.40625 31.78125 66.40625 
Q 25.390625 66.40625 21.84375 63.234375 
Q 18.3125 60.0625 18.3125 54.390625 
z
" id="DejaVuSans-56"/>
      </defs>
      <g transform="translate(63.747344 48.657415)scale(0.1 -0.1)">
       <use xlink:href="#DejaVuSans-56"/>
       <use x="63.623047" xlink:href="#DejaVuSans-48"/>
      </g>
     </g>
    </g>
    <g id="text_16">
     <!-- throughput -->
     <defs>
      <path d="M 18.3125 70.21875 
L 18.3125 54.6875 
L 36.8125 54.6875 
L 36.8125 47.703125 
L 18.3125 47.703125 
L 18.3125 18.015625 
Q 18.3125 11.328125 20.140625 9.421875 
Q 21.96875 7.515625 27.59375 7.515625 
L 36.8125 7.515625 
L 36.8125 0 
L 27.59375 0 
Q 17.1875 0 13.234375 3.875 
Q 9.28125 7.765625 9.28125 18.015625 
L 9.28125 47.703125 
L 2.6875 47.703125 
L 2.6875 54.6875 
L 9.28125 54.6875 
L 9.28125 70.21875 
z
" id="DejaVuSans-116"/>
      <path d="M 54.890625 33.015625 
L 54.890625 0 
L 45.90625 0 
L 45.90625 32.71875 
Q 45.90625 40.484375 42.875 44.328125 
Q 39.84375 48.1875 33.796875 48.1875 
Q 26.515625 48.1875 22.3125 43.546875 
Q 18.109375 38.921875 18.109375 30.90625 
L 18.109375 0 
L 9.078125 0 
L 9.078125 75.984375 
L 18.109375 75.984375 
L 18.109375 46.1875 
Q 21.34375 51.125 25.703125 53.5625 
Q 30.078125 56 35.796875 56 
Q 45.21875 56 50.046875 50.171875 
Q 54.890625 44.34375 54.890625 33.015625 
z
" id="DejaVuSans-104"/>
      <path d="M 41.109375 46.296875 
Q 39.59375 47.171875 37.8125 47.578125 
Q 36.03125 48 33.890625 48 
Q 26.265625 48 22.1875 43.046875 
Q 18.109375 38.09375 18.109375 28.8125 
L 18.109375 0 
L 9.078125 0 
L 9.078125 54.6875 
L 18.109375 54.6875 
L 18.109375 46.1875 
Q 20.953125 51.171875 25.484375 53.578125 
Q 30.03125 56 36.53125 56 
Q 37.453125 56 38.578125 55.875 
Q 39.703125 55.765625 41.0625 55.515625 
z
" id="DejaVuSans-114"/>
      <path d="M 30.609375 48.390625 
Q 23.390625 48.390625 19.1875 42.75 
Q 14.984375 37.109375 14.984375 27.296875 
Q 14.984375 17.484375 19.15625 11.84375 
Q 23.34375 6.203125 30.609375 6.203125 
Q 37.796875 6.203125 41.984375 11.859375 
Q 46.1875 17.53125 46.1875 27.296875 
Q 46.1875 37.015625 41.984375 42.703125 
Q 37.796875 48.390625 30.609375 48.390625 
z
M 30.609375 56 
Q 42.328125 56 49.015625 48.375 
Q 55.71875 40.765625 55.71875 27.296875 
Q 55.71875 13.875 49.015625 6.21875 
Q 42.328125 -1.421875 30.609375 -1.421875 
Q 18.84375 -1.421875 12.171875 6.21875 
Q 5.515625 13.875 5.515625 27.296875 
Q 5.515625 40.765625 12.171875 48.375 
Q 18.84375 56 30.609375 56 
z
" id="DejaVuSans-111"/>
      <path d="M 8.5 21.578125 
L 8.5 54.6875 
L 17.484375 54.6875 
L 17.484375 21.921875 
Q 17.484375 14.15625 20.5 10.265625 
Q 23.53125 6.390625 29.59375 6.390625 
Q 36.859375 6.390625 41.078125 11.03125 
Q 45.3125 15.671875 45.3125 23.6875 
L 45.3125 54.6875 
L 54.296875 54.6875 
L 54.296875 0 
L 45.3125 0 
L 45.3125 8.40625 
Q 42.046875 3.421875 37.71875 1 
Q 33.40625 -1.421875 27.6875 -1.421875 
Q 18.265625 -1.421875 13.375 4.4375 
Q 8.5 10.296875 8.5 21.578125 
z
M 31.109375 56 
z
" id="DejaVuSans-117"/>
      <path d="M 45.40625 27.984375 
Q 45.40625 37.75 41.375 43.109375 
Q 37.359375 48.484375 30.078125 48.484375 
Q 22.859375 48.484375 18.828125 43.109375 
Q 14.796875 37.75 14.796875 27.984375 
Q 14.796875 18.265625 18.828125 12.890625 
Q 22.859375 7.515625 30.078125 7.515625 
Q 37.359375 7.515625 41.375 12.890625 
Q 45.40625 18.265625 45.40625 27.984375 
z
M 54.390625 6.78125 
Q 54.390625 -7.171875 48.1875 -13.984375 
Q 42 -20.796875 29.203125 -20.796875 
Q 24.46875 -20.796875 20.265625 -20.09375 
Q 16.0625 -19.390625 12.109375 -17.921875 
L 12.109375 -9.1875 
Q 16.0625 -11.328125 19.921875 -12.34375 
Q 23.78125 -13.375 27.78125 -13.375 
Q 36.625 -13.375 41.015625 -8.765625 
Q 45.40625 -4.15625 45.40625 5.171875 
L 45.40625 9.625 
Q 42.625 4.78125 38.28125 2.390625 
Q 33.9375 0 27.875 0 
Q 17.828125 0 11.671875 7.65625 
Q 5.515625 15.328125 5.515625 27.984375 
Q 5.515625 40.671875 11.671875 48.328125 
Q 17.828125 56 27.875 56 
Q 33.9375 56 38.28125 53.609375 
Q 42.625 51.21875 45.40625 46.390625 
L 45.40625 54.6875 
L 54.390625 54.6875 
z
" id="DejaVuSans-103"/>
      <path d="M 18.109375 8.203125 
L 18.109375 -20.796875 
L 9.078125 -20.796875 
L 9.078125 54.6875 
L 18.109375 54.6875 
L 18.109375 46.390625 
Q 20.953125 51.265625 25.265625 53.625 
Q 29.59375 56 35.59375 56 
Q 45.5625 56 51.78125 48.09375 
Q 58.015625 40.1875 58.015625 27.296875 
Q 58.015625 14.40625 51.78125 6.484375 
Q 45.5625 -1.421875 35.59375 -1.421875 
Q 29.59375 -1.421875 25.265625 0.953125 
Q 20.953125 3.328125 18.109375 8.203125 
z
M 48.6875 27.296875 
Q 48.6875 37.203125 44.609375 42.84375 
Q 40.53125 48.484375 33.40625 48.484375 
Q 26.265625 48.484375 22.1875 42.84375 
Q 18.109375 37.203125 18.109375 27.296875 
Q 18.109375 17.390625 22.1875 11.75 
Q 26.265625 6.109375 33.40625 6.109375 
Q 40.53125 6.109375 44.609375 11.75 
Q 48.6875 17.390625 48.6875 27.296875 
z
" id="DejaVuSans-112"/>
     </defs>
     <g transform="translate(46.469844 221.675365)rotate(-90)scale(0.1 -0.1)">
      <use xlink:href="#DejaVuSans-116"/>
      <use x="39.208984" xlink:href="#DejaVuSans-104"/>
      <use x="102.587891" xlink:href="#DejaVuSans-114"/>
      <use x="143.669922" xlink:href="#DejaVuSans-111"/>
      <use x="204.851562" xlink:href="#DejaVuSans-117"/>
      <use x="268.230469" xlink:href="#DejaVuSans-103"/>
      <use x="331.707031" xlink:href="#DejaVuSans-104"/>
      <use x="395.085938" xlink:href="#DejaVuSans-112"/>
      <use x="458.5625" xlink:href="#DejaVuSans-117"/>
      <use x="521.941406" xlink:href="#DejaVuSans-116"/>
     </g>
     <!-- (mbit / second) -->
     <defs>
      <path d="M 31 75.875 
Q 24.46875 64.65625 21.28125 53.65625 
Q 18.109375 42.671875 18.109375 31.390625 
Q 18.109375 20.125 21.3125 9.0625 
Q 24.515625 -2 31 -13.1875 
L 23.1875 -13.1875 
Q 15.875 -1.703125 12.234375 9.375 
Q 8.59375 20.453125 8.59375 31.390625 
Q 8.59375 42.28125 12.203125 53.3125 
Q 15.828125 64.359375 23.1875 75.875 
z
" id="DejaVuSans-40"/>
      <path d="M 52 44.1875 
Q 55.375 50.25 60.0625 53.125 
Q 64.75 56 71.09375 56 
Q 79.640625 56 84.28125 50.015625 
Q 88.921875 44.046875 88.921875 33.015625 
L 88.921875 0 
L 79.890625 0 
L 79.890625 32.71875 
Q 79.890625 40.578125 77.09375 44.375 
Q 74.3125 48.1875 68.609375 48.1875 
Q 61.625 48.1875 57.5625 43.546875 
Q 53.515625 38.921875 53.515625 30.90625 
L 53.515625 0 
L 44.484375 0 
L 44.484375 32.71875 
Q 44.484375 40.625 41.703125 44.40625 
Q 38.921875 48.1875 33.109375 48.1875 
Q 26.21875 48.1875 22.15625 43.53125 
Q 18.109375 38.875 18.109375 30.90625 
L 18.109375 0 
L 9.078125 0 
L 9.078125 54.6875 
L 18.109375 54.6875 
L 18.109375 46.1875 
Q 21.1875 51.21875 25.484375 53.609375 
Q 29.78125 56 35.6875 56 
Q 41.65625 56 45.828125 52.96875 
Q 50 49.953125 52 44.1875 
z
" id="DejaVuSans-109"/>
      <path d="M 48.6875 27.296875 
Q 48.6875 37.203125 44.609375 42.84375 
Q 40.53125 48.484375 33.40625 48.484375 
Q 26.265625 48.484375 22.1875 42.84375 
Q 18.109375 37.203125 18.109375 27.296875 
Q 18.109375 17.390625 22.1875 11.75 
Q 26.265625 6.109375 33.40625 6.109375 
Q 40.53125 6.109375 44.609375 11.75 
Q 48.6875 17.390625 48.6875 27.296875 
z
M 18.109375 46.390625 
Q 20.953125 51.265625 25.265625 53.625 
Q 29.59375 56 35.59375 56 
Q 45.5625 56 51.78125 48.09375 
Q 58.015625 40.1875 58.015625 27.296875 
Q 58.015625 14.40625 51.78125 6.484375 
Q 45.5625 -1.421875 35.59375 -1.421875 
Q 29.59375 -1.421875 25.265625 0.953125 
Q 20.953125 3.328125 18.109375 8.203125 
L 18.109375 0 
L 9.078125 0 
L 9.078125 75.984375 
L 18.109375 75.984375 
z
" id="DejaVuSans-98"/>
      <path d="M 9.421875 54.6875 
L 18.40625 54.6875 
L 18.40625 0 
L 9.421875 0 
z
M 9.421875 75.984375 
L 18.40625 75.984375 
L 18.40625 64.59375 
L 9.421875 64.59375 
z
" id="DejaVuSans-105"/>
      <path id="DejaVuSans-32"/>
      <path d="M 25.390625 72.90625 
L 33.6875 72.90625 
L 8.296875 -9.28125 
L 0 -9.28125 
z
" id="DejaVuSans-47"/>
      <path d="M 44.28125 53.078125 
L 44.28125 44.578125 
Q 40.484375 46.53125 36.375 47.5 
Q 32.28125 48.484375 27.875 48.484375 
Q 21.1875 48.484375 17.84375 46.4375 
Q 14.5 44.390625 14.5 40.28125 
Q 14.5 37.15625 16.890625 35.375 
Q 19.28125 33.59375 26.515625 31.984375 
L 29.59375 31.296875 
Q 39.15625 29.25 43.1875 25.515625 
Q 47.21875 21.78125 47.21875 15.09375 
Q 47.21875 7.46875 41.1875 3.015625 
Q 35.15625 -1.421875 24.609375 -1.421875 
Q 20.21875 -1.421875 15.453125 -0.5625 
Q 10.6875 0.296875 5.421875 2 
L 5.421875 11.28125 
Q 10.40625 8.6875 15.234375 7.390625 
Q 20.0625 6.109375 24.8125 6.109375 
Q 31.15625 6.109375 34.5625 8.28125 
Q 37.984375 10.453125 37.984375 14.40625 
Q 37.984375 18.0625 35.515625 20.015625 
Q 33.0625 21.96875 24.703125 23.78125 
L 21.578125 24.515625 
Q 13.234375 26.265625 9.515625 29.90625 
Q 5.8125 33.546875 5.8125 39.890625 
Q 5.8125 47.609375 11.28125 51.796875 
Q 16.75 56 26.8125 56 
Q 31.78125 56 36.171875 55.265625 
Q 40.578125 54.546875 44.28125 53.078125 
z
" id="DejaVuSans-115"/>
      <path d="M 56.203125 29.59375 
L 56.203125 25.203125 
L 14.890625 25.203125 
Q 15.484375 15.921875 20.484375 11.0625 
Q 25.484375 6.203125 34.421875 6.203125 
Q 39.59375 6.203125 44.453125 7.46875 
Q 49.3125 8.734375 54.109375 11.28125 
L 54.109375 2.78125 
Q 49.265625 0.734375 44.1875 -0.34375 
Q 39.109375 -1.421875 33.890625 -1.421875 
Q 20.796875 -1.421875 13.15625 6.1875 
Q 5.515625 13.8125 5.515625 26.8125 
Q 5.515625 40.234375 12.765625 48.109375 
Q 20.015625 56 32.328125 56 
Q 43.359375 56 49.78125 48.890625 
Q 56.203125 41.796875 56.203125 29.59375 
z
M 47.21875 32.234375 
Q 47.125 39.59375 43.09375 43.984375 
Q 39.0625 48.390625 32.421875 48.390625 
Q 24.90625 48.390625 20.390625 44.140625 
Q 15.875 39.890625 15.1875 32.171875 
z
" id="DejaVuSans-101"/>
      <path d="M 48.78125 52.59375 
L 48.78125 44.1875 
Q 44.96875 46.296875 41.140625 47.34375 
Q 37.3125 48.390625 33.40625 48.390625 
Q 24.65625 48.390625 19.8125 42.84375 
Q 14.984375 37.3125 14.984375 27.296875 
Q 14.984375 17.28125 19.8125 11.734375 
Q 24.65625 6.203125 33.40625 6.203125 
Q 37.3125 6.203125 41.140625 7.25 
Q 44.96875 8.296875 48.78125 10.40625 
L 48.78125 2.09375 
Q 45.015625 0.34375 40.984375 -0.53125 
Q 36.96875 -1.421875 32.421875 -1.421875 
Q 20.0625 -1.421875 12.78125 6.34375 
Q 5.515625 14.109375 5.515625 27.296875 
Q 5.515625 40.671875 12.859375 48.328125 
Q 20.21875 56 33.015625 56 
Q 37.15625 56 41.109375 55.140625 
Q 45.0625 54.296875 48.78125 52.59375 
z
" id="DejaVuSans-99"/>
      <path d="M 54.890625 33.015625 
L 54.890625 0 
L 45.90625 0 
L 45.90625 32.71875 
Q 45.90625 40.484375 42.875 44.328125 
Q 39.84375 48.1875 33.796875 48.1875 
Q 26.515625 48.1875 22.3125 43.546875 
Q 18.109375 38.921875 18.109375 30.90625 
L 18.109375 0 
L 9.078125 0 
L 9.078125 54.6875 
L 18.109375 54.6875 
L 18.109375 46.1875 
Q 21.34375 51.125 25.703125 53.5625 
Q 30.078125 56 35.796875 56 
Q 45.21875 56 50.046875 50.171875 
Q 54.890625 44.34375 54.890625 33.015625 
z
" id="DejaVuSans-110"/>
      <path d="M 45.40625 46.390625 
L 45.40625 75.984375 
L 54.390625 75.984375 
L 54.390625 0 
L 45.40625 0 
L 45.40625 8.203125 
Q 42.578125 3.328125 38.25 0.953125 
Q 33.9375 -1.421875 27.875 -1.421875 
Q 17.96875 -1.421875 11.734375 6.484375 
Q 5.515625 14.40625 5.515625 27.296875 
Q 5.515625 40.1875 11.734375 48.09375 
Q 17.96875 56 27.875 56 
Q 33.9375 56 38.25 53.625 
Q 42.578125 51.265625 45.40625 46.390625 
z
M 14.796875 27.296875 
Q 14.796875 17.390625 18.875 11.75 
Q 22.953125 6.109375 30.078125 6.109375 
Q 37.203125 6.109375 41.296875 11.75 
Q 45.40625 17.390625 45.40625 27.296875 
Q 45.40625 37.203125 41.296875 42.84375 
Q 37.203125 48.484375 30.078125 48.484375 
Q 22.953125 48.484375 18.875 42.84375 
Q 14.796875 37.203125 14.796875 27.296875 
z
" id="DejaVuSans-100"/>
      <path d="M 8.015625 75.875 
L 15.828125 75.875 
Q 23.140625 64.359375 26.78125 53.3125 
Q 30.421875 42.28125 30.421875 31.390625 
Q 30.421875 20.453125 26.78125 9.375 
Q 23.140625 -1.703125 15.828125 -13.1875 
L 8.015625 -13.1875 
Q 14.5 -2 17.703125 9.0625 
Q 20.90625 20.125 20.90625 31.390625 
Q 20.90625 42.671875 17.703125 53.65625 
Q 14.5 64.65625 8.015625 75.875 
z
" id="DejaVuSans-41"/>
     </defs>
     <g transform="translate(57.667656 231.608958)rotate(-90)scale(0.1 -0.1)">
      <use xlink:href="#DejaVuSans-40"/>
      <use x="39.013672" xlink:href="#DejaVuSans-109"/>
      <use x="136.425781" xlink:href="#DejaVuSans-98"/>
      <use x="199.902344" xlink:href="#DejaVuSans-105"/>
      <use x="227.685547" xlink:href="#DejaVuSans-116"/>
      <use x="266.894531" xlink:href="#DejaVuSans-32"/>
      <use x="298.681641" xlink:href="#DejaVuSans-47"/>
      <use x="332.373047" xlink:href="#DejaVuSans-32"/>
      <use x="364.160156" xlink:href="#DejaVuSans-115"/>
      <use x="416.259766" xlink:href="#DejaVuSans-101"/>
      <use x="477.783203" xlink:href="#DejaVuSans-99"/>
      <use x="532.763672" xlink:href="#DejaVuSans-111"/>
      <use x="593.945312" xlink:href="#DejaVuSans-110"/>
      <use x="657.324219" xlink:href="#DejaVuSans-100"/>
      <use x="720.800781" xlink:href="#DejaVuSans-41"/>
     </g>
    </g>
   </g>
   <g id="line2d_16">
    <path clip-path="url(#pe1bf35f655)" d="M 112.668578 321.44257 
L 114.138769 306.076771 
L 114.873864 290.710973 
L 115.60896 290.710973 
L 117.079151 275.345174 
L 117.814247 263.820825 
L 118.549343 259.979376 
L 119.284438 271.503725 
L 120.019534 271.503725 
L 120.754629 267.662275 
L 121.489725 275.345174 
L 122.224821 294.552422 
L 122.959916 298.393872 
L 123.695012 286.869523 
L 124.430108 283.028073 
L 125.165203 271.503725 
L 125.900299 271.503725 
L 126.635394 279.186624 
L 127.37049 279.186624 
L 128.105586 271.503725 
L 128.840681 283.028073 
L 129.575777 283.028073 
L 130.310873 271.503725 
L 131.045968 267.662275 
L 131.781064 252.296476 
L 132.516159 252.296476 
L 134.721446 263.820825 
L 135.456542 271.503725 
L 136.191637 271.503725 
L 136.926733 286.869523 
L 137.661829 298.393872 
L 138.396924 298.393872 
L 139.13202 290.710973 
L 139.867116 279.186624 
L 140.602211 275.345174 
L 141.337307 279.186624 
L 142.072402 279.186624 
L 142.807498 275.345174 
L 143.542594 267.662275 
L 144.277689 275.345174 
L 145.012785 279.186624 
L 147.218072 256.137926 
L 147.953167 240.772127 
L 150.158454 229.247779 
L 150.89355 240.772127 
L 151.628646 240.772127 
L 153.098837 286.869523 
L 153.833932 298.393872 
L 155.304124 313.75967 
L 156.774315 313.75967 
L 157.50941 309.918221 
L 158.244506 313.75967 
L 158.979602 306.076771 
L 159.714697 290.710973 
L 160.449793 286.869523 
L 161.919984 286.869523 
L 162.65508 283.028073 
L 163.390175 286.869523 
L 164.860367 302.235322 
L 165.595462 306.076771 
L 166.330558 286.869523 
L 167.065654 283.028073 
L 167.800749 286.869523 
L 169.27094 286.869523 
L 170.006036 290.710973 
L 170.741132 290.710973 
L 171.476227 283.028073 
L 172.211323 279.186624 
L 172.946419 263.820825 
L 173.681514 267.662275 
L 174.41661 286.869523 
L 175.151705 290.710973 
L 175.886801 279.186624 
L 176.621897 271.503725 
L 177.356992 271.503725 
L 178.092088 263.820825 
L 178.827184 263.820825 
L 179.562279 275.345174 
L 181.03247 259.979376 
L 181.767566 271.503725 
L 183.237757 279.186624 
L 184.707948 279.186624 
L 185.443044 302.235322 
L 186.17814 306.076771 
L 188.383427 306.076771 
L 189.118522 309.918221 
L 189.853618 306.076771 
L 190.588713 294.552422 
L 191.323809 290.710973 
L 192.058905 302.235322 
L 192.794 294.552422 
L 193.529096 294.552422 
L 194.264192 302.235322 
L 194.999287 306.076771 
L 195.734383 306.076771 
L 196.469478 294.552422 
L 197.204574 294.552422 
L 197.93967 298.393872 
L 198.674765 294.552422 
L 200.880052 271.503725 
L 201.615148 279.186624 
L 202.350243 283.028073 
L 203.085339 294.552422 
L 203.820435 302.235322 
L 204.55553 302.235322 
L 205.290626 298.393872 
L 206.025721 298.393872 
L 206.760817 294.552422 
L 208.966104 294.552422 
L 209.7012 286.869523 
L 211.171391 263.820825 
L 211.906486 259.979376 
L 212.641582 252.296476 
L 213.376678 248.455027 
L 214.111773 252.296476 
L 214.846869 259.979376 
L 215.581965 256.137926 
L 216.31706 244.613577 
L 217.052156 244.613577 
L 217.787251 263.820825 
L 218.522347 263.820825 
L 219.257443 267.662275 
L 219.992538 275.345174 
L 220.727634 267.662275 
L 221.46273 286.869523 
L 222.197825 302.235322 
L 222.932921 306.076771 
L 223.668016 321.44257 
L 224.403112 313.75967 
L 225.138208 302.235322 
L 225.873303 302.235322 
L 226.608399 306.076771 
L 227.343495 306.076771 
L 228.07859 313.75967 
L 228.813686 317.60112 
L 230.283877 309.918221 
L 231.018973 321.44257 
L 231.754068 317.60112 
L 233.959355 294.552422 
L 234.694451 294.552422 
L 235.429546 298.393872 
L 236.164642 294.552422 
L 236.899738 283.028073 
L 239.105024 283.028073 
L 239.84012 286.869523 
L 241.310311 302.235322 
L 242.045407 302.235322 
L 242.780503 306.076771 
L 243.515598 306.076771 
L 244.985789 298.393872 
L 245.720885 306.076771 
L 246.455981 306.076771 
L 247.191076 290.710973 
L 248.661268 283.028073 
L 249.396363 275.345174 
L 250.131459 263.820825 
L 250.866554 259.979376 
L 251.60165 275.345174 
L 253.071841 259.979376 
L 254.542032 290.710973 
L 255.277128 298.393872 
L 256.012224 298.393872 
L 257.482415 306.076771 
L 258.217511 302.235322 
L 258.952606 302.235322 
L 259.687702 306.076771 
L 260.422797 306.076771 
L 261.157893 309.918221 
L 261.892989 302.235322 
L 262.628084 306.076771 
L 263.36318 306.076771 
L 264.098276 298.393872 
L 264.833371 294.552422 
L 265.568467 302.235322 
L 266.303562 298.393872 
L 267.038658 286.869523 
L 267.773754 283.028073 
L 268.508849 290.710973 
L 269.243945 286.869523 
L 269.979041 279.186624 
L 270.714136 275.345174 
L 271.449232 267.662275 
L 272.184327 267.662275 
L 272.919423 271.503725 
L 273.654519 271.503725 
L 274.389614 283.028073 
L 275.12471 283.028073 
L 275.859806 263.820825 
L 276.594901 267.662275 
L 277.329997 275.345174 
L 278.065092 279.186624 
L 278.800188 267.662275 
L 279.535284 271.503725 
L 280.270379 279.186624 
L 281.005475 279.186624 
L 281.74057 263.820825 
L 282.475666 267.662275 
L 283.210762 279.186624 
L 283.945857 286.869523 
L 284.680953 298.393872 
L 286.88624 286.869523 
L 287.621335 298.393872 
L 288.356431 294.552422 
L 289.091527 283.028073 
L 290.561718 275.345174 
L 291.296814 286.869523 
L 292.031909 286.869523 
L 292.767005 283.028073 
L 293.5021 283.028073 
L 294.237196 290.710973 
L 294.972292 294.552422 
L 295.707387 302.235322 
L 297.177579 309.918221 
L 297.912674 302.235322 
L 299.382865 294.552422 
L 300.117961 294.552422 
L 300.853057 302.235322 
L 302.323248 302.235322 
L 303.058343 306.076771 
L 304.528535 306.076771 
L 305.26363 309.918221 
L 305.998726 309.918221 
L 306.733822 298.393872 
L 308.204013 290.710973 
L 308.939108 294.552422 
L 309.674204 290.710973 
L 310.4093 298.393872 
L 311.879491 306.076771 
L 312.614587 302.235322 
L 313.349682 290.710973 
L 314.084778 286.869523 
L 314.819873 290.710973 
L 315.554969 302.235322 
L 317.02516 309.918221 
L 317.760256 309.918221 
L 318.495352 302.235322 
L 319.230447 290.710973 
L 319.965543 286.869523 
L 320.700638 294.552422 
L 321.435734 290.710973 
L 322.17083 302.235322 
L 323.641021 302.235322 
L 325.111212 294.552422 
L 325.846308 294.552422 
L 326.581403 290.710973 
L 327.316499 294.552422 
L 328.78669 294.552422 
L 329.521786 298.393872 
L 332.462168 298.393872 
L 333.197264 302.235322 
L 333.93236 298.393872 
L 335.402551 283.028073 
L 336.137646 279.186624 
L 336.872742 263.820825 
L 337.607838 271.503725 
L 338.342933 275.345174 
L 339.078029 275.345174 
L 339.813125 259.979376 
L 340.54822 263.820825 
L 341.283316 271.503725 
L 342.018411 271.503725 
L 342.753507 294.552422 
L 343.488603 283.028073 
L 344.223698 290.710973 
L 345.69389 298.393872 
L 348.634272 283.028073 
L 349.369368 283.028073 
L 350.839559 313.75967 
L 351.574655 321.44257 
L 353.044846 306.076771 
L 353.779941 306.076771 
L 355.250133 298.393872 
L 355.985228 290.710973 
L 356.720324 279.186624 
L 357.455419 275.345174 
L 358.190515 286.869523 
L 358.925611 290.710973 
L 359.660706 298.393872 
L 360.395802 302.235322 
L 361.130898 302.235322 
L 361.865993 290.710973 
L 363.336184 290.710973 
L 364.07128 286.869523 
L 364.806376 290.710973 
L 366.276567 306.076771 
L 367.011663 302.235322 
L 367.746758 290.710973 
L 368.481854 286.869523 
L 369.216949 275.345174 
L 369.952045 283.028073 
L 372.157332 294.552422 
L 372.892428 283.028073 
L 373.627523 279.186624 
L 374.362619 271.503725 
L 375.83281 279.186624 
L 376.567906 275.345174 
L 377.303001 275.345174 
L 378.038097 283.028073 
L 378.773192 286.869523 
L 379.508288 294.552422 
L 380.243384 306.076771 
L 380.978479 302.235322 
L 381.713575 306.076771 
L 382.448671 302.235322 
L 383.183766 290.710973 
L 383.918862 290.710973 
L 384.653957 294.552422 
L 385.389053 290.710973 
L 386.859244 290.710973 
L 388.329436 283.028073 
L 389.064531 286.869523 
L 389.799627 286.869523 
L 390.534722 290.710973 
L 392.004914 290.710973 
L 393.475105 275.345174 
L 394.945296 275.345174 
L 395.680392 271.503725 
L 397.150583 256.137926 
L 397.885679 252.296476 
L 398.620774 252.296476 
L 399.35587 256.137926 
L 400.090966 256.137926 
L 400.826061 244.613577 
L 402.296252 236.930678 
L 403.031348 256.137926 
L 403.766444 252.296476 
L 404.501539 240.772127 
L 407.441922 256.137926 
L 408.177017 256.137926 
L 408.912113 259.979376 
L 409.647209 259.979376 
L 410.382304 263.820825 
L 411.1174 263.820825 
L 413.322687 286.869523 
L 414.057782 286.869523 
L 414.792878 294.552422 
L 415.527974 298.393872 
L 416.263069 306.076771 
L 416.998165 309.918221 
L 417.73326 309.918221 
L 418.468356 306.076771 
L 419.203452 306.076771 
L 419.938547 302.235322 
L 421.408739 286.869523 
L 422.143834 290.710973 
L 422.87893 290.710973 
L 424.349121 283.028073 
L 425.084217 271.503725 
L 425.819312 271.503725 
L 427.289503 279.186624 
L 428.024599 290.710973 
L 428.759695 286.869523 
L 429.49479 275.345174 
L 430.964982 283.028073 
L 431.700077 283.028073 
L 432.435173 290.710973 
L 433.170268 290.710973 
L 433.905364 271.503725 
L 434.64046 267.662275 
L 435.375555 267.662275 
L 436.110651 271.503725 
L 436.845747 271.503725 
L 437.580842 275.345174 
L 438.315938 286.869523 
L 439.051033 279.186624 
L 439.786129 275.345174 
L 440.521225 259.979376 
L 441.25632 267.662275 
L 441.991416 271.503725 
L 442.726512 271.503725 
L 443.461607 263.820825 
L 444.196703 252.296476 
L 444.931798 248.455027 
L 445.666894 240.772127 
L 448.607277 256.137926 
L 450.077468 256.137926 
L 451.547659 240.772127 
L 452.282755 236.930678 
L 453.01785 248.455027 
L 453.752946 248.455027 
L 454.488041 259.979376 
L 455.223137 267.662275 
L 455.958233 279.186624 
L 456.693328 286.869523 
L 457.428424 286.869523 
L 458.898615 279.186624 
L 460.368806 263.820825 
L 461.103902 275.345174 
L 461.838998 279.186624 
L 462.574093 279.186624 
L 463.309189 298.393872 
L 464.044285 298.393872 
L 464.77938 294.552422 
L 465.514476 279.186624 
L 466.249571 275.345174 
L 466.984667 275.345174 
L 467.719763 283.028073 
L 468.454858 279.186624 
L 469.189954 271.503725 
L 469.92505 267.662275 
L 470.660145 252.296476 
L 471.395241 252.296476 
L 472.130336 244.613577 
L 472.865432 252.296476 
L 473.600528 256.137926 
L 474.335623 252.296476 
L 475.070719 263.820825 
L 476.54091 279.186624 
L 478.011101 286.869523 
L 481.686579 286.869523 
L 482.421675 294.552422 
L 483.156771 290.710973 
L 484.626962 267.662275 
L 485.362058 271.503725 
L 486.097153 290.710973 
L 486.832249 298.393872 
L 487.567344 298.393872 
L 488.30244 294.552422 
L 489.037536 294.552422 
L 491.242823 306.076771 
L 491.977918 302.235322 
L 494.183205 279.186624 
L 494.918301 267.662275 
L 495.653396 252.296476 
L 496.388492 252.296476 
L 497.123588 271.503725 
L 497.858683 275.345174 
L 498.593779 286.869523 
L 499.328874 294.552422 
L 500.799066 302.235322 
L 501.534161 302.235322 
L 502.269257 283.028073 
L 503.004352 279.186624 
L 505.209639 279.186624 
L 505.944735 275.345174 
L 506.679831 279.186624 
L 507.414926 286.869523 
L 508.150022 275.345174 
L 508.885117 275.345174 
L 509.620213 283.028073 
L 509.620213 283.028073 
" style="fill:none;stroke:#1f77b4;stroke-linecap:square;stroke-width:1.5;"/>
   </g>
   <g id="line2d_17">
    <path clip-path="url(#pe1bf35f655)" d="M 103.765099 94.797042 
L 104.500195 48.699646 
L 105.970386 48.699646 
L 106.705482 83.272693 
L 107.440578 98.638491 
L 108.175673 106.321391 
L 108.910769 110.16284 
L 109.645864 167.784585 
L 110.38096 198.516182 
L 111.851151 206.199081 
L 112.586247 225.406329 
L 113.321343 233.089228 
L 114.056438 236.930678 
L 114.791534 244.613577 
L 115.526629 248.455027 
L 116.261725 244.613577 
L 116.996821 229.247779 
L 117.731916 248.455027 
L 118.467012 252.296476 
L 119.202107 233.089228 
L 119.937203 236.930678 
L 120.672299 256.137926 
L 121.407394 263.820825 
L 122.14249 267.662275 
L 122.877586 275.345174 
L 123.612681 286.869523 
L 124.347777 290.710973 
L 125.082872 298.393872 
L 125.817968 298.393872 
L 126.553064 302.235322 
L 128.023255 294.552422 
L 129.493446 294.552422 
L 130.228542 286.869523 
L 130.963637 283.028073 
L 131.698733 290.710973 
L 132.433829 290.710973 
L 133.90402 267.662275 
L 134.639116 267.662275 
L 136.109307 275.345174 
L 136.844402 271.503725 
L 137.579498 283.028073 
L 138.314594 286.869523 
L 139.049689 298.393872 
L 140.51988 306.076771 
L 141.254976 290.710973 
L 141.990072 283.028073 
L 142.725167 283.028073 
L 143.460263 294.552422 
L 144.195359 298.393872 
L 144.930454 298.393872 
L 145.66555 294.552422 
L 146.400645 283.028073 
L 147.135741 275.345174 
L 148.605932 283.028073 
L 150.076124 298.393872 
L 151.546315 298.393872 
L 152.28141 294.552422 
L 153.016506 286.869523 
L 153.751602 283.028073 
L 154.486697 294.552422 
L 155.221793 294.552422 
L 155.956889 298.393872 
L 156.691984 286.869523 
L 157.42708 286.869523 
L 158.162175 290.710973 
L 158.897271 290.710973 
L 159.632367 294.552422 
L 160.367462 294.552422 
L 161.102558 290.710973 
L 162.572749 290.710973 
L 163.307845 286.869523 
L 164.04294 275.345174 
L 164.778036 279.186624 
L 165.513132 286.869523 
L 166.248227 290.710973 
L 167.718418 290.710973 
L 168.453514 294.552422 
L 169.18861 294.552422 
L 169.923705 275.345174 
L 170.658801 275.345174 
L 171.393897 283.028073 
L 172.128992 286.869523 
L 172.864088 275.345174 
L 173.599183 275.345174 
L 174.334279 263.820825 
L 175.069375 244.613577 
L 175.80447 252.296476 
L 177.274662 259.979376 
L 178.744853 252.296476 
L 179.479948 263.820825 
L 180.215044 271.503725 
L 180.95014 283.028073 
L 182.420331 259.979376 
L 183.155427 267.662275 
L 183.890522 271.503725 
L 184.625618 271.503725 
L 185.360713 263.820825 
L 186.095809 252.296476 
L 186.830905 259.979376 
L 187.566 263.820825 
L 188.301096 263.820825 
L 189.771287 248.455027 
L 190.506383 259.979376 
L 191.241478 263.820825 
L 191.976574 259.979376 
L 192.71167 252.296476 
L 193.446765 248.455027 
L 194.181861 263.820825 
L 195.652052 256.137926 
L 196.387148 271.503725 
L 197.122243 271.503725 
L 197.857339 252.296476 
L 198.592435 252.296476 
L 199.32753 244.613577 
L 200.062626 244.613577 
L 200.797721 259.979376 
L 202.267913 244.613577 
L 203.003008 244.613577 
L 204.4732 259.979376 
L 205.208295 259.979376 
L 205.943391 263.820825 
L 206.678486 263.820825 
L 207.413582 267.662275 
L 208.148678 275.345174 
L 208.883773 275.345174 
L 209.618869 267.662275 
L 210.353965 256.137926 
L 211.08906 267.662275 
L 211.824156 271.503725 
L 212.559251 283.028073 
L 213.294347 286.869523 
L 214.029443 286.869523 
L 214.764538 290.710973 
L 215.499634 286.869523 
L 216.969825 294.552422 
L 217.704921 283.028073 
L 218.440016 279.186624 
L 219.175112 298.393872 
L 219.910208 294.552422 
L 220.645303 302.235322 
L 221.380399 298.393872 
L 222.115494 286.869523 
L 222.85059 283.028073 
L 223.585686 271.503725 
L 224.320781 271.503725 
L 225.055877 275.345174 
L 225.790973 275.345174 
L 226.526068 263.820825 
L 227.261164 263.820825 
L 227.996259 252.296476 
L 228.731355 267.662275 
L 229.466451 267.662275 
L 230.201546 259.979376 
L 230.936642 256.137926 
L 231.671738 256.137926 
L 232.406833 263.820825 
L 233.141929 263.820825 
L 233.877024 248.455027 
L 234.61212 248.455027 
L 235.347216 233.089228 
L 236.082311 236.930678 
L 236.817407 256.137926 
L 237.552502 256.137926 
L 238.287598 259.979376 
L 239.757789 259.979376 
L 240.492885 248.455027 
L 241.227981 240.772127 
L 241.963076 244.613577 
L 242.698172 259.979376 
L 243.433267 259.979376 
L 244.168363 263.820825 
L 245.638554 263.820825 
L 246.37365 252.296476 
L 247.108746 259.979376 
L 248.578937 259.979376 
L 249.314032 252.296476 
L 250.049128 259.979376 
L 250.784224 271.503725 
L 251.519319 256.137926 
L 252.254415 263.820825 
L 252.989511 275.345174 
L 253.724606 271.503725 
L 254.459702 259.979376 
L 255.194797 252.296476 
L 255.929893 236.930678 
L 256.664989 236.930678 
L 257.400084 225.406329 
L 258.13518 217.72343 
L 258.870276 229.247779 
L 260.340467 244.613577 
L 261.075562 259.979376 
L 261.810658 271.503725 
L 262.545754 279.186624 
L 263.280849 271.503725 
L 264.015945 259.979376 
L 264.75104 259.979376 
L 265.486136 275.345174 
L 266.221232 271.503725 
L 266.956327 275.345174 
L 267.691423 286.869523 
L 268.426519 271.503725 
L 269.89671 256.137926 
L 270.631805 252.296476 
L 271.366901 275.345174 
L 273.572188 275.345174 
L 274.307284 263.820825 
L 275.042379 259.979376 
L 275.777475 271.503725 
L 276.51257 271.503725 
L 277.982762 286.869523 
L 278.717857 275.345174 
L 279.452953 271.503725 
L 280.188049 248.455027 
L 280.923144 252.296476 
L 281.65824 267.662275 
L 282.393335 271.503725 
L 283.128431 283.028073 
L 283.863527 283.028073 
L 284.598622 279.186624 
L 286.068814 279.186624 
L 286.803909 275.345174 
L 288.2741 259.979376 
L 289.009196 244.613577 
L 289.744292 248.455027 
L 290.479387 271.503725 
L 291.214483 283.028073 
L 293.41977 283.028073 
L 294.154865 275.345174 
L 294.889961 271.503725 
L 295.625057 256.137926 
L 296.360152 263.820825 
L 297.095248 275.345174 
L 297.830343 290.710973 
L 298.565439 294.552422 
L 300.03563 286.869523 
L 300.770726 279.186624 
L 302.240917 286.869523 
L 302.976013 283.028073 
L 305.916395 298.393872 
L 306.651491 286.869523 
L 308.121682 279.186624 
L 308.856778 283.028073 
L 309.591873 283.028073 
L 310.326969 275.345174 
L 311.062065 271.503725 
L 311.79716 279.186624 
L 312.532256 279.186624 
L 314.002447 263.820825 
L 314.737543 275.345174 
L 315.472638 275.345174 
L 316.207734 267.662275 
L 316.94283 263.820825 
L 317.677925 256.137926 
L 318.413021 252.296476 
L 319.148116 267.662275 
L 319.883212 267.662275 
L 320.618308 275.345174 
L 321.353403 275.345174 
L 322.823595 290.710973 
L 323.55869 286.869523 
L 325.028881 286.869523 
L 325.763977 283.028073 
L 327.234168 283.028073 
L 327.969264 263.820825 
L 328.70436 263.820825 
L 329.439455 271.503725 
L 330.174551 271.503725 
L 330.909646 275.345174 
L 331.644742 283.028073 
L 332.379838 283.028073 
L 333.114933 263.820825 
L 333.850029 259.979376 
L 335.32022 275.345174 
L 336.055316 290.710973 
L 336.790411 302.235322 
L 337.525507 302.235322 
L 338.260603 306.076771 
L 338.995698 302.235322 
L 339.730794 309.918221 
L 340.465889 306.076771 
L 341.200985 309.918221 
L 341.936081 306.076771 
L 342.671176 298.393872 
L 343.406272 306.076771 
L 344.141368 302.235322 
L 344.876463 294.552422 
L 345.611559 275.345174 
L 346.346654 275.345174 
L 347.816846 267.662275 
L 350.022133 267.662275 
L 350.757228 259.979376 
L 351.492324 248.455027 
L 352.227419 256.137926 
L 352.962515 267.662275 
L 354.432706 267.662275 
L 355.167802 271.503725 
L 355.902898 263.820825 
L 356.637993 271.503725 
L 357.373089 275.345174 
L 358.108184 263.820825 
L 358.84328 263.820825 
L 359.578376 252.296476 
L 361.048567 244.613577 
L 361.783662 259.979376 
L 363.253854 259.979376 
L 363.988949 263.820825 
L 364.724045 259.979376 
L 365.459141 252.296476 
L 366.194236 263.820825 
L 366.929332 271.503725 
L 367.664427 283.028073 
L 368.399523 286.869523 
L 369.134619 294.552422 
L 369.869714 290.710973 
L 370.60481 283.028073 
L 371.339906 286.869523 
L 372.075001 286.869523 
L 372.810097 290.710973 
L 373.545192 298.393872 
L 374.280288 294.552422 
L 375.750479 294.552422 
L 376.485575 290.710973 
L 377.220671 283.028073 
L 377.955766 271.503725 
L 378.690862 263.820825 
L 379.425957 259.979376 
L 380.161053 275.345174 
L 380.896149 275.345174 
L 381.631244 283.028073 
L 382.36634 279.186624 
L 383.101436 263.820825 
L 383.836531 267.662275 
L 384.571627 275.345174 
L 386.041818 275.345174 
L 386.776914 279.186624 
L 387.512009 279.186624 
L 388.247105 290.710973 
L 388.9822 279.186624 
L 390.452392 271.503725 
L 391.187487 256.137926 
L 391.922583 256.137926 
L 392.657679 275.345174 
L 393.392774 298.393872 
L 394.12787 294.552422 
L 394.862965 294.552422 
L 396.333157 279.186624 
L 397.068252 286.869523 
L 397.803348 290.710973 
L 398.538444 290.710973 
L 399.273539 286.869523 
L 400.008635 286.869523 
L 400.74373 298.393872 
L 401.478826 298.393872 
L 402.949017 313.75967 
L 403.684113 309.918221 
L 404.419209 298.393872 
L 405.154304 298.393872 
L 406.624495 290.710973 
L 408.829782 290.710973 
L 409.564878 286.869523 
L 411.035069 286.869523 
L 412.50526 271.503725 
L 413.240356 279.186624 
L 413.975452 279.186624 
L 414.710547 283.028073 
L 415.445643 294.552422 
L 416.915834 309.918221 
L 417.65093 313.75967 
L 418.386025 306.076771 
L 419.121121 306.076771 
L 419.856217 302.235322 
L 421.326408 286.869523 
L 422.061503 286.869523 
L 422.796599 290.710973 
L 423.531695 290.710973 
L 424.26679 283.028073 
L 425.001886 294.552422 
L 425.736982 294.552422 
L 426.472077 298.393872 
L 427.207173 294.552422 
L 427.942268 283.028073 
L 428.677364 279.186624 
L 429.41246 263.820825 
L 430.147555 259.979376 
L 430.882651 244.613577 
L 431.617747 248.455027 
L 432.352842 256.137926 
L 433.823033 263.820825 
L 434.558129 271.503725 
L 437.498511 271.503725 
L 438.233607 259.979376 
L 438.968703 252.296476 
L 439.703798 248.455027 
L 440.438894 267.662275 
L 441.17399 267.662275 
L 441.909085 275.345174 
L 442.644181 275.345174 
L 443.379276 294.552422 
L 444.114372 283.028073 
L 444.849468 279.186624 
L 445.584563 271.503725 
L 446.319659 271.503725 
L 447.054755 275.345174 
L 449.995137 275.345174 
L 450.730233 286.869523 
L 451.465328 294.552422 
L 452.200424 298.393872 
L 452.93552 279.186624 
L 453.670615 279.186624 
L 454.405711 286.869523 
L 455.140806 290.710973 
L 455.875902 283.028073 
L 456.610998 279.186624 
L 458.816284 279.186624 
L 459.55138 290.710973 
L 460.286476 286.869523 
L 461.021571 290.710973 
L 461.756667 298.393872 
L 462.491763 309.918221 
L 463.226858 298.393872 
L 463.961954 283.028073 
L 464.697049 283.028073 
L 465.432145 286.869523 
L 466.902336 286.869523 
L 467.637432 290.710973 
L 468.372528 290.710973 
L 469.107623 279.186624 
L 469.842719 275.345174 
L 470.577814 290.710973 
L 471.31291 294.552422 
L 472.048006 302.235322 
L 473.518197 302.235322 
L 474.253293 298.393872 
L 474.988388 286.869523 
L 475.723484 279.186624 
L 476.458579 263.820825 
L 477.193675 259.979376 
L 477.928771 248.455027 
L 478.663866 240.772127 
L 479.398962 240.772127 
L 480.869153 248.455027 
L 481.604249 248.455027 
L 482.339344 240.772127 
L 483.07444 256.137926 
L 483.809536 267.662275 
L 484.544631 275.345174 
L 485.279727 275.345174 
L 486.014822 267.662275 
L 486.749918 283.028073 
L 488.955205 283.028073 
L 490.425396 267.662275 
L 491.160492 275.345174 
L 491.895587 275.345174 
L 492.630683 271.503725 
L 493.365779 263.820825 
L 494.83597 279.186624 
L 495.571066 283.028073 
L 496.306161 283.028073 
L 497.041257 275.345174 
L 497.776352 271.503725 
L 498.511448 283.028073 
L 499.246544 286.869523 
L 500.716735 302.235322 
L 500.716735 302.235322 
" style="fill:none;stroke:#ff7f0e;stroke-linecap:square;stroke-width:1.5;"/>
   </g>
   <g id="line2d_18">
    <path clip-path="url(#pe1bf35f655)" d="M 109.698791 298.393872 
L 110.433887 275.345174 
L 111.168983 275.345174 
L 111.904078 271.503725 
L 114.844461 286.869523 
L 115.579556 286.869523 
L 116.314652 279.186624 
L 117.049747 294.552422 
L 117.784843 283.028073 
L 118.519939 283.028073 
L 119.255034 290.710973 
L 119.99013 290.710973 
L 121.460321 275.345174 
L 122.195417 263.820825 
L 122.930512 256.137926 
L 123.665608 267.662275 
L 124.400704 271.503725 
L 125.135799 259.979376 
L 125.870895 263.820825 
L 126.605991 271.503725 
L 127.341086 271.503725 
L 128.076182 286.869523 
L 128.811277 298.393872 
L 129.546373 294.552422 
L 131.016564 302.235322 
L 131.75166 290.710973 
L 132.486756 290.710973 
L 133.221851 306.076771 
L 136.162234 306.076771 
L 136.897329 298.393872 
L 137.632425 286.869523 
L 138.367521 286.869523 
L 139.102616 294.552422 
L 139.837712 286.869523 
L 140.572807 283.028073 
L 141.307903 286.869523 
L 142.042999 286.869523 
L 142.778094 290.710973 
L 143.51319 298.393872 
L 144.248285 302.235322 
L 144.983381 302.235322 
L 145.718477 294.552422 
L 147.188668 302.235322 
L 148.658859 302.235322 
L 149.393955 298.393872 
L 150.12905 290.710973 
L 150.864146 294.552422 
L 151.599242 294.552422 
L 155.27472 256.137926 
L 156.009815 256.137926 
L 157.480007 263.820825 
L 158.215102 275.345174 
L 158.950198 275.345174 
L 159.685294 279.186624 
L 160.420389 279.186624 
L 161.155485 283.028073 
L 162.625676 283.028073 
L 163.360772 279.186624 
L 164.095867 267.662275 
L 164.830963 259.979376 
L 165.566059 256.137926 
L 167.03625 263.820825 
L 167.771345 259.979376 
L 168.506441 244.613577 
L 169.241537 248.455027 
L 169.976632 256.137926 
L 170.711728 256.137926 
L 172.181919 248.455027 
L 172.917015 267.662275 
L 174.387206 267.662275 
L 176.592493 279.186624 
L 177.327588 279.186624 
L 178.062684 286.869523 
L 178.79778 290.710973 
L 179.532875 279.186624 
L 180.267971 275.345174 
L 181.003067 267.662275 
L 181.738162 267.662275 
L 182.473258 275.345174 
L 183.208353 279.186624 
L 184.678545 279.186624 
L 185.41364 271.503725 
L 186.148736 259.979376 
L 186.883832 267.662275 
L 187.618927 271.503725 
L 188.354023 267.662275 
L 189.089118 259.979376 
L 189.824214 275.345174 
L 191.294405 267.662275 
L 192.029501 267.662275 
L 192.764596 286.869523 
L 193.499692 302.235322 
L 194.234788 290.710973 
L 195.704979 298.393872 
L 196.440075 286.869523 
L 197.17517 286.869523 
L 197.910266 290.710973 
L 198.645361 290.710973 
L 199.380457 298.393872 
L 200.850648 306.076771 
L 201.585744 302.235322 
L 203.055935 286.869523 
L 203.791031 286.869523 
L 204.526126 290.710973 
L 205.261222 290.710973 
L 205.996318 286.869523 
L 206.731413 286.869523 
L 207.466509 279.186624 
L 208.201605 263.820825 
L 208.9367 263.820825 
L 209.671796 259.979376 
L 210.406891 275.345174 
L 211.141987 283.028073 
L 211.877083 286.869523 
L 212.612178 279.186624 
L 214.08237 286.869523 
L 214.817465 279.186624 
L 215.552561 290.710973 
L 216.287656 290.710973 
L 217.022752 286.869523 
L 217.757848 271.503725 
L 218.492943 271.503725 
L 219.963134 256.137926 
L 220.69823 244.613577 
L 221.433326 240.772127 
L 222.168421 229.247779 
L 222.903517 229.247779 
L 223.638613 217.72343 
L 225.108804 225.406329 
L 225.843899 233.089228 
L 226.578995 252.296476 
L 227.314091 256.137926 
L 228.049186 244.613577 
L 228.784282 236.930678 
L 229.519378 240.772127 
L 230.254473 259.979376 
L 230.989569 248.455027 
L 231.724664 252.296476 
L 232.45976 263.820825 
L 233.194856 267.662275 
L 233.929951 279.186624 
L 235.400143 286.869523 
L 236.135238 286.869523 
L 236.870334 271.503725 
L 237.605429 275.345174 
L 239.075621 275.345174 
L 239.810716 279.186624 
L 240.545812 286.869523 
L 241.280907 279.186624 
L 242.016003 275.345174 
L 242.751099 263.820825 
L 244.22129 263.820825 
L 244.956386 267.662275 
L 245.691481 267.662275 
L 246.426577 283.028073 
L 250.837151 306.076771 
L 251.572246 294.552422 
L 252.307342 298.393872 
L 253.042437 298.393872 
L 253.777533 294.552422 
L 255.247724 279.186624 
L 258.188107 294.552422 
L 258.923202 283.028073 
L 259.658298 275.345174 
L 260.393394 271.503725 
L 261.128489 259.979376 
L 261.863585 256.137926 
L 262.598681 256.137926 
L 263.333776 271.503725 
L 264.068872 279.186624 
L 264.803967 283.028073 
L 265.539063 271.503725 
L 266.274159 279.186624 
L 267.009254 294.552422 
L 268.479445 302.235322 
L 269.214541 298.393872 
L 270.684732 306.076771 
L 271.419828 298.393872 
L 272.154924 294.552422 
L 272.890019 294.552422 
L 273.625115 290.710973 
L 274.36021 283.028073 
L 275.095306 279.186624 
L 275.830402 283.028073 
L 276.565497 283.028073 
L 277.300593 275.345174 
L 278.035689 271.503725 
L 278.770784 283.028073 
L 279.50588 283.028073 
L 280.240975 290.710973 
L 280.976071 286.869523 
L 282.446262 271.503725 
L 283.181358 259.979376 
L 283.916454 259.979376 
L 284.651549 256.137926 
L 285.386645 256.137926 
L 286.12174 259.979376 
L 286.856836 259.979376 
L 287.591932 252.296476 
L 288.327027 275.345174 
L 289.062123 283.028073 
L 289.797218 286.869523 
L 290.532314 279.186624 
L 291.26741 267.662275 
L 293.472697 267.662275 
L 294.207792 263.820825 
L 294.942888 256.137926 
L 295.677983 279.186624 
L 297.148175 263.820825 
L 297.88327 259.979376 
L 298.618366 259.979376 
L 299.353462 263.820825 
L 300.088557 263.820825 
L 300.823653 279.186624 
L 301.558748 279.186624 
L 302.293844 267.662275 
L 303.02894 263.820825 
L 303.764035 244.613577 
L 304.499131 240.772127 
L 305.969322 240.772127 
L 306.704418 252.296476 
L 307.439513 256.137926 
L 308.174609 275.345174 
L 308.909705 256.137926 
L 309.6448 256.137926 
L 310.379896 267.662275 
L 311.114992 275.345174 
L 311.850087 256.137926 
L 312.585183 259.979376 
L 314.055374 275.345174 
L 314.79047 267.662275 
L 315.525565 256.137926 
L 316.260661 248.455027 
L 316.995756 259.979376 
L 317.730852 267.662275 
L 318.465948 263.820825 
L 319.201043 275.345174 
L 319.936139 275.345174 
L 320.671235 256.137926 
L 321.40633 256.137926 
L 322.141426 248.455027 
L 322.876521 244.613577 
L 325.081808 256.137926 
L 325.816904 256.137926 
L 327.287095 263.820825 
L 328.022191 271.503725 
L 328.757286 271.503725 
L 329.492382 256.137926 
L 330.227478 252.296476 
L 330.962573 256.137926 
L 331.697669 263.820825 
L 332.432765 263.820825 
L 333.16786 271.503725 
L 333.902956 275.345174 
L 335.373147 259.979376 
L 336.108243 256.137926 
L 336.843338 271.503725 
L 337.578434 263.820825 
L 338.313529 252.296476 
L 339.048625 256.137926 
L 339.783721 271.503725 
L 340.518816 271.503725 
L 341.253912 256.137926 
L 341.989008 256.137926 
L 342.724103 248.455027 
L 343.459199 236.930678 
L 344.194294 229.247779 
L 344.92939 225.406329 
L 345.664486 236.930678 
L 346.399581 240.772127 
L 347.134677 256.137926 
L 347.869773 267.662275 
L 348.604868 271.503725 
L 349.339964 271.503725 
L 350.075059 267.662275 
L 350.810155 259.979376 
L 351.545251 279.186624 
L 353.750538 290.710973 
L 354.485633 286.869523 
L 355.220729 286.869523 
L 355.955824 279.186624 
L 356.69092 267.662275 
L 357.426016 263.820825 
L 358.161111 279.186624 
L 358.896207 283.028073 
L 359.631303 290.710973 
L 361.101494 283.028073 
L 361.836589 290.710973 
L 363.306781 290.710973 
L 364.776972 283.028073 
L 365.512067 275.345174 
L 366.247163 263.820825 
L 366.982259 259.979376 
L 367.717354 244.613577 
L 368.45245 252.296476 
L 369.187546 263.820825 
L 370.657737 279.186624 
L 371.392832 263.820825 
L 372.127928 259.979376 
L 373.598119 275.345174 
L 374.333215 290.710973 
L 375.068311 279.186624 
L 376.538502 271.503725 
L 377.273597 271.503725 
L 378.008693 283.028073 
L 378.743789 275.345174 
L 379.478884 271.503725 
L 380.21398 256.137926 
L 380.949076 263.820825 
L 382.419267 271.503725 
L 383.154362 283.028073 
L 384.624554 290.710973 
L 385.359649 286.869523 
L 386.094745 290.710973 
L 386.82984 286.869523 
L 387.564936 286.869523 
L 388.300032 279.186624 
L 389.035127 283.028073 
L 389.770223 283.028073 
L 391.240414 290.710973 
L 391.97551 290.710973 
L 393.445701 275.345174 
L 394.915892 275.345174 
L 395.650988 279.186624 
L 397.121179 294.552422 
L 397.856275 298.393872 
L 398.59137 298.393872 
L 399.326466 294.552422 
L 400.061562 294.552422 
L 400.796657 279.186624 
L 402.266849 294.552422 
L 403.001944 283.028073 
L 403.73704 283.028073 
L 404.472135 294.552422 
L 405.207231 294.552422 
L 405.942327 290.710973 
L 406.677422 290.710973 
L 407.412518 286.869523 
L 409.617805 286.869523 
L 410.3529 283.028073 
L 411.087996 283.028073 
L 411.823092 279.186624 
L 412.558187 271.503725 
L 413.293283 256.137926 
L 414.028378 252.296476 
L 414.763474 244.613577 
L 415.49857 240.772127 
L 416.233665 229.247779 
L 416.968761 225.406329 
L 417.703857 229.247779 
L 418.438952 252.296476 
L 419.174048 283.028073 
L 419.909143 283.028073 
L 420.644239 286.869523 
L 421.379335 294.552422 
L 422.11443 298.393872 
L 422.849526 298.393872 
L 423.584622 294.552422 
L 424.319717 286.869523 
L 425.054813 298.393872 
L 425.789908 286.869523 
L 426.525004 279.186624 
L 427.2601 279.186624 
L 427.995195 263.820825 
L 428.730291 267.662275 
L 429.465387 279.186624 
L 430.935578 286.869523 
L 431.670673 283.028073 
L 432.405769 263.820825 
L 433.140865 263.820825 
L 433.87596 271.503725 
L 434.611056 271.503725 
L 435.346151 275.345174 
L 436.816343 275.345174 
L 437.551438 271.503725 
L 438.286534 263.820825 
L 439.02163 275.345174 
L 439.756725 279.186624 
L 440.491821 290.710973 
L 441.226916 283.028073 
L 441.962012 271.503725 
L 443.432203 263.820825 
L 444.167299 279.186624 
L 444.902395 283.028073 
L 445.63749 290.710973 
L 447.107681 290.710973 
L 447.842777 286.869523 
L 450.048064 286.869523 
L 451.518255 302.235322 
L 452.988446 309.918221 
L 453.723542 306.076771 
L 454.458638 294.552422 
L 455.193733 290.710973 
L 455.928829 298.393872 
L 456.663925 298.393872 
L 457.39902 294.552422 
L 458.869211 294.552422 
L 459.604307 302.235322 
L 462.544689 271.503725 
L 463.279785 267.662275 
L 464.014881 275.345174 
L 464.749976 275.345174 
L 466.220168 283.028073 
L 466.955263 279.186624 
L 467.690359 259.979376 
L 468.425454 263.820825 
L 469.16055 271.503725 
L 469.895646 275.345174 
L 470.630741 290.710973 
L 471.365837 286.869523 
L 472.100933 294.552422 
L 472.836028 283.028073 
L 473.571124 283.028073 
L 474.306219 290.710973 
L 475.041315 306.076771 
L 479.451889 306.076771 
L 481.657176 294.552422 
L 482.392271 283.028073 
L 483.127367 279.186624 
L 483.862462 279.186624 
L 484.597558 283.028073 
L 485.332654 283.028073 
L 486.067749 275.345174 
L 486.802845 263.820825 
L 488.273036 263.820825 
L 489.008132 267.662275 
L 490.478323 283.028073 
L 491.213419 267.662275 
L 491.948514 263.820825 
L 493.418706 279.186624 
L 494.153801 271.503725 
L 494.888897 271.503725 
L 495.623992 279.186624 
L 496.359088 279.186624 
L 497.094184 267.662275 
L 497.829279 263.820825 
L 498.564375 248.455027 
L 500.034566 240.772127 
L 500.769662 221.564879 
L 501.504757 221.564879 
L 502.239853 233.089228 
L 505.180236 248.455027 
L 505.915331 259.979376 
L 506.650427 267.662275 
L 506.650427 267.662275 
" style="fill:none;stroke:#2ca02c;stroke-linecap:square;stroke-width:1.5;"/>
   </g>
   <g id="line2d_19">
    <path clip-path="url(#pe1bf35f655)" d="M 106.759879 317.60112 
L 107.494975 306.076771 
L 108.965166 290.710973 
L 109.700261 290.710973 
L 110.435357 283.028073 
L 111.170453 279.186624 
L 111.905548 279.186624 
L 112.640644 283.028073 
L 113.37574 283.028073 
L 114.845931 290.710973 
L 115.581026 286.869523 
L 116.316122 302.235322 
L 117.051218 313.75967 
L 118.521409 313.75967 
L 119.256505 317.60112 
L 119.9916 313.75967 
L 121.461791 298.393872 
L 122.196887 286.869523 
L 123.667078 271.503725 
L 124.402174 267.662275 
L 125.13727 279.186624 
L 125.872365 275.345174 
L 126.607461 259.979376 
L 127.342556 263.820825 
L 128.077652 256.137926 
L 128.812748 236.930678 
L 129.547843 236.930678 
L 130.282939 252.296476 
L 131.018034 259.979376 
L 131.75313 271.503725 
L 132.488226 275.345174 
L 133.223321 275.345174 
L 133.958417 279.186624 
L 134.693513 279.186624 
L 135.428608 259.979376 
L 136.163704 259.979376 
L 136.898799 256.137926 
L 137.633895 240.772127 
L 138.368991 240.772127 
L 139.104086 229.247779 
L 140.574278 252.296476 
L 141.309373 256.137926 
L 142.044469 263.820825 
L 142.779564 259.979376 
L 143.51466 252.296476 
L 144.249756 236.930678 
L 144.984851 233.089228 
L 145.719947 248.455027 
L 146.455043 267.662275 
L 147.925234 283.028073 
L 150.130521 294.552422 
L 150.865616 279.186624 
L 151.600712 279.186624 
L 154.541094 248.455027 
L 155.27619 244.613577 
L 156.011286 244.613577 
L 157.481477 252.296476 
L 158.216572 229.247779 
L 158.951668 236.930678 
L 159.686764 248.455027 
L 161.156955 248.455027 
L 161.892051 256.137926 
L 162.627146 256.137926 
L 163.362242 259.979376 
L 164.097337 275.345174 
L 164.832433 267.662275 
L 165.567529 263.820825 
L 166.302624 271.503725 
L 167.03772 275.345174 
L 167.772816 275.345174 
L 168.507911 283.028073 
L 169.243007 283.028073 
L 169.978102 286.869523 
L 170.713198 286.869523 
L 171.448294 290.710973 
L 172.918485 306.076771 
L 174.388676 298.393872 
L 175.123772 302.235322 
L 176.593963 302.235322 
L 177.329059 298.393872 
L 178.064154 306.076771 
L 178.79925 306.076771 
L 179.534345 294.552422 
L 180.269441 294.552422 
L 181.004537 302.235322 
L 182.474728 302.235322 
L 183.209824 290.710973 
L 183.944919 283.028073 
L 184.680015 283.028073 
L 185.41511 275.345174 
L 186.150206 290.710973 
L 186.885302 275.345174 
L 187.620397 271.503725 
L 188.355493 275.345174 
L 189.090589 286.869523 
L 189.825684 279.186624 
L 190.56078 286.869523 
L 191.295875 290.710973 
L 192.030971 283.028073 
L 192.766067 279.186624 
L 194.236258 256.137926 
L 195.706449 248.455027 
L 196.441545 259.979376 
L 197.17664 259.979376 
L 197.911736 271.503725 
L 198.646832 271.503725 
L 199.381927 283.028073 
L 200.117023 283.028073 
L 200.852119 275.345174 
L 202.32231 290.710973 
L 203.057405 283.028073 
L 203.792501 267.662275 
L 204.527597 259.979376 
L 205.262692 263.820825 
L 205.997788 263.820825 
L 208.203075 275.345174 
L 208.93817 275.345174 
L 209.673266 298.393872 
L 210.408362 306.076771 
L 211.143457 294.552422 
L 211.878553 290.710973 
L 212.613648 298.393872 
L 213.348744 298.393872 
L 214.08384 286.869523 
L 214.818935 279.186624 
L 215.554031 275.345174 
L 216.289127 283.028073 
L 217.024222 283.028073 
L 217.759318 294.552422 
L 218.494413 294.552422 
L 219.229509 286.869523 
L 219.964605 286.869523 
L 220.6997 294.552422 
L 221.434796 286.869523 
L 222.169892 298.393872 
L 222.904987 298.393872 
L 224.375178 306.076771 
L 225.110274 306.076771 
L 225.84537 302.235322 
L 226.580465 290.710973 
L 227.315561 286.869523 
L 228.050656 302.235322 
L 228.785752 290.710973 
L 229.520848 286.869523 
L 230.255943 279.186624 
L 230.991039 286.869523 
L 231.726135 283.028073 
L 232.46123 275.345174 
L 233.196326 279.186624 
L 233.931421 286.869523 
L 234.666517 286.869523 
L 235.401613 294.552422 
L 236.136708 290.710973 
L 236.871804 298.393872 
L 237.6069 298.393872 
L 238.341995 294.552422 
L 239.077091 294.552422 
L 239.812186 290.710973 
L 240.547282 279.186624 
L 241.282378 290.710973 
L 242.017473 290.710973 
L 242.752569 279.186624 
L 243.487665 283.028073 
L 244.22276 283.028073 
L 244.957856 279.186624 
L 245.692951 279.186624 
L 246.428047 267.662275 
L 247.163143 275.345174 
L 248.633334 275.345174 
L 249.36843 283.028073 
L 250.103525 283.028073 
L 250.838621 279.186624 
L 251.573716 286.869523 
L 252.308812 283.028073 
L 253.043908 275.345174 
L 254.514099 275.345174 
L 255.249194 283.028073 
L 255.98429 294.552422 
L 256.719386 290.710973 
L 257.454481 294.552422 
L 258.189577 294.552422 
L 258.924673 298.393872 
L 259.659768 298.393872 
L 260.394864 294.552422 
L 261.129959 283.028073 
L 261.865055 279.186624 
L 263.335246 263.820825 
L 264.070342 275.345174 
L 264.805438 275.345174 
L 265.540533 263.820825 
L 266.275629 263.820825 
L 267.010724 252.296476 
L 267.74582 244.613577 
L 268.480916 256.137926 
L 269.216011 259.979376 
L 269.951107 271.503725 
L 270.686203 279.186624 
L 271.421298 271.503725 
L 273.626585 271.503725 
L 274.361681 283.028073 
L 275.831872 290.710973 
L 276.566968 290.710973 
L 278.037159 275.345174 
L 278.772254 286.869523 
L 279.50735 286.869523 
L 280.242446 294.552422 
L 280.977541 294.552422 
L 281.712637 298.393872 
L 282.447732 298.393872 
L 283.182828 290.710973 
L 284.653019 283.028073 
L 286.123211 283.028073 
L 286.858306 290.710973 
L 287.593402 294.552422 
L 288.328497 286.869523 
L 289.063593 294.552422 
L 289.798689 294.552422 
L 290.533784 286.869523 
L 291.26888 275.345174 
L 293.474167 275.345174 
L 294.944358 290.710973 
L 295.679454 275.345174 
L 296.414549 275.345174 
L 297.884741 259.979376 
L 298.619836 259.979376 
L 299.354932 263.820825 
L 300.090027 263.820825 
L 300.825123 252.296476 
L 301.560219 248.455027 
L 303.765505 271.503725 
L 304.500601 275.345174 
L 305.235697 267.662275 
L 305.970792 267.662275 
L 306.705888 275.345174 
L 307.440984 275.345174 
L 308.176079 267.662275 
L 308.911175 279.186624 
L 309.64627 279.186624 
L 310.381366 271.503725 
L 311.116462 267.662275 
L 311.851557 275.345174 
L 312.586653 275.345174 
L 313.321749 279.186624 
L 314.056844 286.869523 
L 314.79194 279.186624 
L 316.262131 286.869523 
L 316.997227 279.186624 
L 317.732322 275.345174 
L 318.467418 294.552422 
L 319.202514 279.186624 
L 320.672705 286.869523 
L 321.4078 286.869523 
L 322.142896 279.186624 
L 322.877992 275.345174 
L 327.288565 275.345174 
L 328.023661 283.028073 
L 328.758757 283.028073 
L 330.228948 290.710973 
L 331.699139 267.662275 
L 332.434235 267.662275 
L 333.16933 275.345174 
L 333.904426 275.345174 
L 335.374617 290.710973 
L 336.109713 283.028073 
L 336.844808 271.503725 
L 338.315 279.186624 
L 339.050095 279.186624 
L 339.785191 267.662275 
L 341.255382 275.345174 
L 341.990478 275.345174 
L 342.725573 271.503725 
L 343.460669 283.028073 
L 344.93086 298.393872 
L 345.665956 302.235322 
L 346.401052 302.235322 
L 347.136147 294.552422 
L 347.871243 290.710973 
L 348.606338 290.710973 
L 350.07653 283.028073 
L 351.546721 267.662275 
L 352.281816 256.137926 
L 353.016912 252.296476 
L 354.487103 252.296476 
L 355.222199 256.137926 
L 355.957295 279.186624 
L 356.69239 290.710973 
L 357.427486 294.552422 
L 358.162581 283.028073 
L 358.897677 279.186624 
L 359.632773 267.662275 
L 360.367868 275.345174 
L 361.102964 279.186624 
L 361.83806 267.662275 
L 362.573155 271.503725 
L 364.043346 271.503725 
L 365.513538 286.869523 
L 366.248633 275.345174 
L 366.983729 275.345174 
L 367.718825 290.710973 
L 370.659207 259.979376 
L 371.394303 267.662275 
L 372.129398 271.503725 
L 372.864494 263.820825 
L 374.334685 256.137926 
L 375.804876 263.820825 
L 376.539972 271.503725 
L 377.275068 283.028073 
L 378.010163 275.345174 
L 378.745259 286.869523 
L 379.480354 286.869523 
L 380.21545 275.345174 
L 380.950546 267.662275 
L 381.685641 256.137926 
L 382.420737 259.979376 
L 383.155833 271.503725 
L 383.890928 267.662275 
L 384.626024 252.296476 
L 385.361119 256.137926 
L 386.831311 256.137926 
L 387.566406 259.979376 
L 388.301502 256.137926 
L 389.036598 263.820825 
L 389.771693 263.820825 
L 390.506789 271.503725 
L 391.241884 275.345174 
L 391.97698 275.345174 
L 392.712076 267.662275 
L 393.447171 263.820825 
L 394.182267 263.820825 
L 395.652458 271.503725 
L 396.387554 283.028073 
L 397.122649 275.345174 
L 397.857745 271.503725 
L 399.327936 271.503725 
L 400.063032 275.345174 
L 400.798127 286.869523 
L 401.533223 283.028073 
L 402.268319 275.345174 
L 403.003414 263.820825 
L 403.73851 263.820825 
L 404.473606 275.345174 
L 405.208701 279.186624 
L 405.943797 279.186624 
L 406.678892 275.345174 
L 407.413988 279.186624 
L 408.149084 275.345174 
L 408.884179 279.186624 
L 411.089466 279.186624 
L 412.559657 286.869523 
L 413.294753 294.552422 
L 414.029849 294.552422 
L 418.440422 248.455027 
L 419.175518 217.72343 
L 420.645709 233.089228 
L 421.380805 248.455027 
L 422.115901 236.930678 
L 422.850996 229.247779 
L 423.586092 236.930678 
L 424.321187 263.820825 
L 425.056283 252.296476 
L 427.26157 263.820825 
L 427.996665 279.186624 
L 428.731761 279.186624 
L 429.466857 290.710973 
L 430.937048 298.393872 
L 431.672144 298.393872 
L 432.407239 302.235322 
L 433.142335 298.393872 
L 435.347622 298.393872 
L 436.082717 294.552422 
L 437.552909 294.552422 
L 438.288004 302.235322 
L 439.0231 306.076771 
L 439.758195 306.076771 
L 440.493291 294.552422 
L 441.228387 294.552422 
L 441.963482 298.393872 
L 443.433674 290.710973 
L 444.168769 298.393872 
L 445.63896 306.076771 
L 446.374056 306.076771 
L 448.579343 294.552422 
L 449.314438 294.552422 
L 450.049534 290.710973 
L 450.78463 279.186624 
L 452.254821 271.503725 
L 452.989917 275.345174 
L 453.725012 275.345174 
L 454.460108 267.662275 
L 455.195203 263.820825 
L 455.930299 252.296476 
L 456.665395 248.455027 
L 458.135586 256.137926 
L 458.870682 256.137926 
L 459.605777 244.613577 
L 460.340873 267.662275 
L 461.075968 259.979376 
L 463.281255 248.455027 
L 464.016351 256.137926 
L 464.751447 256.137926 
L 465.486542 263.820825 
L 466.956733 271.503725 
L 467.691829 279.186624 
L 468.426925 279.186624 
L 469.16202 286.869523 
L 469.897116 290.710973 
L 470.632212 279.186624 
L 471.367307 275.345174 
L 472.102403 267.662275 
L 472.837498 271.503725 
L 474.30769 271.503725 
L 475.042785 259.979376 
L 475.777881 256.137926 
L 476.512976 263.820825 
L 477.248072 263.820825 
L 478.718263 279.186624 
L 479.453359 275.345174 
L 480.188455 275.345174 
L 481.658646 283.028073 
L 482.393741 290.710973 
L 483.863933 283.028073 
L 484.599028 286.869523 
L 485.334124 286.869523 
L 486.06922 279.186624 
L 486.804315 267.662275 
L 488.274506 267.662275 
L 489.009602 271.503725 
L 490.479793 256.137926 
L 491.214889 263.820825 
L 491.949985 267.662275 
L 494.890367 298.393872 
L 496.360558 298.393872 
L 497.095654 302.235322 
L 497.830749 302.235322 
L 498.565845 290.710973 
L 499.300941 286.869523 
L 500.036036 279.186624 
L 500.771132 286.869523 
L 501.506228 286.869523 
L 502.241323 290.710973 
L 502.976419 290.710973 
L 502.976419 290.710973 
" style="fill:none;stroke:#d62728;stroke-linecap:square;stroke-width:1.5;"/>
   </g>
   <g id="patch_3">
    <path d="M 83.472344 352.174167 
L 83.472344 35.0625 
" style="fill:none;stroke:#000000;stroke-linecap:square;stroke-linejoin:miter;stroke-width:0.8;"/>
   </g>
   <g id="patch_4">
    <path d="M 529.912969 352.174167 
L 529.912969 35.0625 
" style="fill:none;stroke:#000000;stroke-linecap:square;stroke-linejoin:miter;stroke-width:0.8;"/>
   </g>
   <g id="patch_5">
    <path d="M 83.472344 352.174167 
L 529.912969 352.174167 
" style="fill:none;stroke:#000000;stroke-linecap:square;stroke-linejoin:miter;stroke-width:0.8;"/>
   </g>
   <g id="patch_6">
    <path d="M 83.472344 35.0625 
L 529.912969 35.0625 
" style="fill:none;stroke:#000000;stroke-linecap:square;stroke-linejoin:miter;stroke-width:0.8;"/>
   </g>
   <g id="legend_1">
    <g id="patch_7">
     <path d="M 554.235 96.775 
L 625.430312 96.775 
Q 627.430312 96.775 627.430312 94.775 
L 627.430312 37.0625 
Q 627.430312 35.0625 625.430312 35.0625 
L 554.235 35.0625 
Q 552.235 35.0625 552.235 37.0625 
L 552.235 94.775 
Q 552.235 96.775 554.235 96.775 
z
" style="fill:#ffffff;opacity:0.8;stroke:#cccccc;stroke-linejoin:miter;"/>
    </g>
    <g id="line2d_20">
     <path d="M 556.235 43.160937 
L 576.235 43.160937 
" style="fill:none;stroke:#1f77b4;stroke-linecap:square;stroke-width:1.5;"/>
    </g>
    <g id="line2d_21"/>
    <g id="text_17">
     <!-- cubic-pi -->
     <defs>
      <path d="M 4.890625 31.390625 
L 31.203125 31.390625 
L 31.203125 23.390625 
L 4.890625 23.390625 
z
" id="DejaVuSans-45"/>
     </defs>
     <g transform="translate(584.235 46.660937)scale(0.1 -0.1)">
      <use xlink:href="#DejaVuSans-99"/>
      <use x="54.980469" xlink:href="#DejaVuSans-117"/>
      <use x="118.359375" xlink:href="#DejaVuSans-98"/>
      <use x="181.835938" xlink:href="#DejaVuSans-105"/>
      <use x="209.619141" xlink:href="#DejaVuSans-99"/>
      <use x="264.599609" xlink:href="#DejaVuSans-45"/>
      <use x="300.683594" xlink:href="#DejaVuSans-112"/>
      <use x="364.160156" xlink:href="#DejaVuSans-105"/>
     </g>
    </g>
    <g id="line2d_22">
     <path d="M 556.235 57.839063 
L 576.235 57.839063 
" style="fill:none;stroke:#ff7f0e;stroke-linecap:square;stroke-width:1.5;"/>
    </g>
    <g id="line2d_23"/>
    <g id="text_18">
     <!-- cubic-pi -->
     <g transform="translate(584.235 61.339063)scale(0.1 -0.1)">
      <use xlink:href="#DejaVuSans-99"/>
      <use x="54.980469" xlink:href="#DejaVuSans-117"/>
      <use x="118.359375" xlink:href="#DejaVuSans-98"/>
      <use x="181.835938" xlink:href="#DejaVuSans-105"/>
      <use x="209.619141" xlink:href="#DejaVuSans-99"/>
      <use x="264.599609" xlink:href="#DejaVuSans-45"/>
      <use x="300.683594" xlink:href="#DejaVuSans-112"/>
      <use x="364.160156" xlink:href="#DejaVuSans-105"/>
     </g>
    </g>
    <g id="line2d_24">
     <path d="M 556.235 72.517187 
L 576.235 72.517187 
" style="fill:none;stroke:#2ca02c;stroke-linecap:square;stroke-width:1.5;"/>
    </g>
    <g id="line2d_25"/>
    <g id="text_19">
     <!-- cubic-pi -->
     <g transform="translate(584.235 76.017187)scale(0.1 -0.1)">
      <use xlink:href="#DejaVuSans-99"/>
      <use x="54.980469" xlink:href="#DejaVuSans-117"/>
      <use x="118.359375" xlink:href="#DejaVuSans-98"/>
      <use x="181.835938" xlink:href="#DejaVuSans-105"/>
      <use x="209.619141" xlink:href="#DejaVuSans-99"/>
      <use x="264.599609" xlink:href="#DejaVuSans-45"/>
      <use x="300.683594" xlink:href="#DejaVuSans-112"/>
      <use x="364.160156" xlink:href="#DejaVuSans-105"/>
     </g>
    </g>
    <g id="line2d_26">
     <path d="M 556.235 87.195312 
L 576.235 87.195312 
" style="fill:none;stroke:#d62728;stroke-linecap:square;stroke-width:1.5;"/>
    </g>
    <g id="line2d_27"/>
    <g id="text_20">
     <!-- cubic-pi -->
     <g transform="translate(584.235 90.695312)scale(0.1 -0.1)">
      <use xlink:href="#DejaVuSans-99"/>
      <use x="54.980469" xlink:href="#DejaVuSans-117"/>
      <use x="118.359375" xlink:href="#DejaVuSans-98"/>
      <use x="181.835938" xlink:href="#DejaVuSans-105"/>
      <use x="209.619141" xlink:href="#DejaVuSans-99"/>
      <use x="264.599609" xlink:href="#DejaVuSans-45"/>
      <use x="300.683594" xlink:href="#DejaVuSans-112"/>
      <use x="364.160156" xlink:href="#DejaVuSans-105"/>
     </g>
    </g>
   </g>
  </g>
  <g id="text_21">
   <!-- result throughput -->
   <defs>
    <path d="M 9.421875 75.984375 
L 18.40625 75.984375 
L 18.40625 0 
L 9.421875 0 
z
" id="DejaVuSans-108"/>
   </defs>
   <g transform="translate(289.320938 17.038125)scale(0.12 -0.12)">
    <use xlink:href="#DejaVuSans-114"/>
    <use x="41.082031" xlink:href="#DejaVuSans-101"/>
    <use x="102.605469" xlink:href="#DejaVuSans-115"/>
    <use x="154.705078" xlink:href="#DejaVuSans-117"/>
    <use x="218.083984" xlink:href="#DejaVuSans-108"/>
    <use x="245.867188" xlink:href="#DejaVuSans-116"/>
    <use x="285.076172" xlink:href="#DejaVuSans-32"/>
    <use x="316.863281" xlink:href="#DejaVuSans-116"/>
    <use x="356.072266" xlink:href="#DejaVuSans-104"/>
    <use x="419.451172" xlink:href="#DejaVuSans-114"/>
    <use x="460.533203" xlink:href="#DejaVuSans-111"/>
    <use x="521.714844" xlink:href="#DejaVuSans-117"/>
    <use x="585.09375" xlink:href="#DejaVuSans-103"/>
    <use x="648.570312" xlink:href="#DejaVuSans-104"/>
    <use x="711.949219" xlink:href="#DejaVuSans-112"/>
    <use x="775.425781" xlink:href="#DejaVuSans-117"/>
    <use x="838.804688" xlink:href="#DejaVuSans-116"/>
   </g>
  </g>
 </g>
 <defs>
  <clipPath id="pe1bf35f655">
   <rect height="317.111667" width="446.440625" x="83.472344" y="35.0625"/>
  </clipPath>
 </defs>
</svg>
