<?xml version="1.0" encoding="utf-8" standalone="no"?>
<!DOCTYPE svg PUBLIC "-//W3C//DTD SVG 1.1//EN"
  "http://www.w3.org/Graphics/SVG/1.1/DTD/svg11.dtd">
<!-- Created with matplotlib (https://matplotlib.org/) -->
<svg height="396pt" version="1.1" viewBox="0 0 684 396" width="684pt" xmlns="http://www.w3.org/2000/svg" xmlns:xlink="http://www.w3.org/1999/xlink">
 <defs>
  <style type="text/css">
*{stroke-linecap:butt;stroke-linejoin:round;}
  </style>
 </defs>
 <g id="figure_1">
  <g id="patch_1">
   <path d="M 0 396 
L 684 396 
L 684 0 
L 0 0 
z
" style="fill:#ffffff;"/>
  </g>
  <g id="axes_1">
   <g id="patch_2">
    <path d="M 83.472344 352.174167 
L 529.912969 352.174167 
L 529.912969 35.0625 
L 83.472344 35.0625 
z
" style="fill:#ffffff;"/>
   </g>
   <g id="matplotlib.axis_1">
    <g id="xtick_1">
     <g id="line2d_1">
      <defs>
       <path d="M 0 0 
L 0 3.5 
" id="m887da53b72" style="stroke:#000000;stroke-width:0.8;"/>
      </defs>
      <g>
       <use style="stroke:#000000;stroke-width:0.8;" x="103.765099" xlink:href="#m887da53b72" y="352.174167"/>
      </g>
     </g>
     <g id="text_1">
      <!-- 0 -->
      <defs>
       <path d="M 31.78125 66.40625 
Q 24.171875 66.40625 20.328125 58.90625 
Q 16.5 51.421875 16.5 36.375 
Q 16.5 21.390625 20.328125 13.890625 
Q 24.171875 6.390625 31.78125 6.390625 
Q 39.453125 6.390625 43.28125 13.890625 
Q 47.125 21.390625 47.125 36.375 
Q 47.125 51.421875 43.28125 58.90625 
Q 39.453125 66.40625 31.78125 66.40625 
z
M 31.78125 74.21875 
Q 44.046875 74.21875 50.515625 64.515625 
Q 56.984375 54.828125 56.984375 36.375 
Q 56.984375 17.96875 50.515625 8.265625 
Q 44.046875 -1.421875 31.78125 -1.421875 
Q 19.53125 -1.421875 13.0625 8.265625 
Q 6.59375 17.96875 6.59375 36.375 
Q 6.59375 54.828125 13.0625 64.515625 
Q 19.53125 74.21875 31.78125 74.21875 
z
" id="DejaVuSans-48"/>
      </defs>
      <g transform="translate(100.583849 366.772604)scale(0.1 -0.1)">
       <use xlink:href="#DejaVuSans-48"/>
      </g>
     </g>
    </g>
    <g id="xtick_2">
     <g id="line2d_2">
      <g>
       <use style="stroke:#000000;stroke-width:0.8;" x="177.415529" xlink:href="#m887da53b72" y="352.174167"/>
      </g>
     </g>
     <g id="text_2">
      <!-- 50 -->
      <defs>
       <path d="M 10.796875 72.90625 
L 49.515625 72.90625 
L 49.515625 64.59375 
L 19.828125 64.59375 
L 19.828125 46.734375 
Q 21.96875 47.46875 24.109375 47.828125 
Q 26.265625 48.1875 28.421875 48.1875 
Q 40.625 48.1875 47.75 41.5 
Q 54.890625 34.8125 54.890625 23.390625 
Q 54.890625 11.625 47.5625 5.09375 
Q 40.234375 -1.421875 26.90625 -1.421875 
Q 22.3125 -1.421875 17.546875 -0.640625 
Q 12.796875 0.140625 7.71875 1.703125 
L 7.71875 11.625 
Q 12.109375 9.234375 16.796875 8.0625 
Q 21.484375 6.890625 26.703125 6.890625 
Q 35.15625 6.890625 40.078125 11.328125 
Q 45.015625 15.765625 45.015625 23.390625 
Q 45.015625 31 40.078125 35.4375 
Q 35.15625 39.890625 26.703125 39.890625 
Q 22.75 39.890625 18.8125 39.015625 
Q 14.890625 38.140625 10.796875 36.28125 
z
" id="DejaVuSans-53"/>
      </defs>
      <g transform="translate(171.053029 366.772604)scale(0.1 -0.1)">
       <use xlink:href="#DejaVuSans-53"/>
       <use x="63.623047" xlink:href="#DejaVuSans-48"/>
      </g>
     </g>
    </g>
    <g id="xtick_3">
     <g id="line2d_3">
      <g>
       <use style="stroke:#000000;stroke-width:0.8;" x="251.065959" xlink:href="#m887da53b72" y="352.174167"/>
      </g>
     </g>
     <g id="text_3">
      <!-- 100 -->
      <defs>
       <path d="M 12.40625 8.296875 
L 28.515625 8.296875 
L 28.515625 63.921875 
L 10.984375 60.40625 
L 10.984375 69.390625 
L 28.421875 72.90625 
L 38.28125 72.90625 
L 38.28125 8.296875 
L 54.390625 8.296875 
L 54.390625 0 
L 12.40625 0 
z
" id="DejaVuSans-49"/>
      </defs>
      <g transform="translate(241.522209 366.772604)scale(0.1 -0.1)">
       <use xlink:href="#DejaVuSans-49"/>
       <use x="63.623047" xlink:href="#DejaVuSans-48"/>
       <use x="127.246094" xlink:href="#DejaVuSans-48"/>
      </g>
     </g>
    </g>
    <g id="xtick_4">
     <g id="line2d_4">
      <g>
       <use style="stroke:#000000;stroke-width:0.8;" x="324.716389" xlink:href="#m887da53b72" y="352.174167"/>
      </g>
     </g>
     <g id="text_4">
      <!-- 150 -->
      <g transform="translate(315.172639 366.772604)scale(0.1 -0.1)">
       <use xlink:href="#DejaVuSans-49"/>
       <use x="63.623047" xlink:href="#DejaVuSans-53"/>
       <use x="127.246094" xlink:href="#DejaVuSans-48"/>
      </g>
     </g>
    </g>
    <g id="xtick_5">
     <g id="line2d_5">
      <g>
       <use style="stroke:#000000;stroke-width:0.8;" x="398.36682" xlink:href="#m887da53b72" y="352.174167"/>
      </g>
     </g>
     <g id="text_5">
      <!-- 200 -->
      <defs>
       <path d="M 19.1875 8.296875 
L 53.609375 8.296875 
L 53.609375 0 
L 7.328125 0 
L 7.328125 8.296875 
Q 12.9375 14.109375 22.625 23.890625 
Q 32.328125 33.6875 34.8125 36.53125 
Q 39.546875 41.84375 41.421875 45.53125 
Q 43.3125 49.21875 43.3125 52.78125 
Q 43.3125 58.59375 39.234375 62.25 
Q 35.15625 65.921875 28.609375 65.921875 
Q 23.96875 65.921875 18.8125 64.3125 
Q 13.671875 62.703125 7.8125 59.421875 
L 7.8125 69.390625 
Q 13.765625 71.78125 18.9375 73 
Q 24.125 74.21875 28.421875 74.21875 
Q 39.75 74.21875 46.484375 68.546875 
Q 53.21875 62.890625 53.21875 53.421875 
Q 53.21875 48.921875 51.53125 44.890625 
Q 49.859375 40.875 45.40625 35.40625 
Q 44.1875 33.984375 37.640625 27.21875 
Q 31.109375 20.453125 19.1875 8.296875 
z
" id="DejaVuSans-50"/>
      </defs>
      <g transform="translate(388.82307 366.772604)scale(0.1 -0.1)">
       <use xlink:href="#DejaVuSans-50"/>
       <use x="63.623047" xlink:href="#DejaVuSans-48"/>
       <use x="127.246094" xlink:href="#DejaVuSans-48"/>
      </g>
     </g>
    </g>
    <g id="xtick_6">
     <g id="line2d_6">
      <g>
       <use style="stroke:#000000;stroke-width:0.8;" x="472.01725" xlink:href="#m887da53b72" y="352.174167"/>
      </g>
     </g>
     <g id="text_6">
      <!-- 250 -->
      <g transform="translate(462.4735 366.772604)scale(0.1 -0.1)">
       <use xlink:href="#DejaVuSans-50"/>
       <use x="63.623047" xlink:href="#DejaVuSans-53"/>
       <use x="127.246094" xlink:href="#DejaVuSans-48"/>
      </g>
     </g>
    </g>
   </g>
   <g id="matplotlib.axis_2">
    <g id="ytick_1">
     <g id="line2d_7">
      <defs>
       <path d="M 0 0 
L -3.5 0 
" id="m140d786f3d" style="stroke:#000000;stroke-width:0.8;"/>
      </defs>
      <g>
       <use style="stroke:#000000;stroke-width:0.8;" x="83.472344" xlink:href="#m140d786f3d" y="352.174167"/>
      </g>
     </g>
     <g id="text_7">
      <!-- 0 -->
      <g transform="translate(70.109844 355.973385)scale(0.1 -0.1)">
       <use xlink:href="#DejaVuSans-48"/>
      </g>
     </g>
    </g>
    <g id="ytick_2">
     <g id="line2d_8">
      <g>
       <use style="stroke:#000000;stroke-width:0.8;" x="83.472344" xlink:href="#m140d786f3d" y="313.944912"/>
      </g>
     </g>
     <g id="text_8">
      <!-- 10 -->
      <g transform="translate(63.747344 317.744131)scale(0.1 -0.1)">
       <use xlink:href="#DejaVuSans-49"/>
       <use x="63.623047" xlink:href="#DejaVuSans-48"/>
      </g>
     </g>
    </g>
    <g id="ytick_3">
     <g id="line2d_9">
      <g>
       <use style="stroke:#000000;stroke-width:0.8;" x="83.472344" xlink:href="#m140d786f3d" y="275.715658"/>
      </g>
     </g>
     <g id="text_9">
      <!-- 20 -->
      <g transform="translate(63.747344 279.514876)scale(0.1 -0.1)">
       <use xlink:href="#DejaVuSans-50"/>
       <use x="63.623047" xlink:href="#DejaVuSans-48"/>
      </g>
     </g>
    </g>
    <g id="ytick_4">
     <g id="line2d_10">
      <g>
       <use style="stroke:#000000;stroke-width:0.8;" x="83.472344" xlink:href="#m140d786f3d" y="237.486403"/>
      </g>
     </g>
     <g id="text_10">
      <!-- 30 -->
      <defs>
       <path d="M 40.578125 39.3125 
Q 47.65625 37.796875 51.625 33 
Q 55.609375 28.21875 55.609375 21.1875 
Q 55.609375 10.40625 48.1875 4.484375 
Q 40.765625 -1.421875 27.09375 -1.421875 
Q 22.515625 -1.421875 17.65625 -0.515625 
Q 12.796875 0.390625 7.625 2.203125 
L 7.625 11.71875 
Q 11.71875 9.328125 16.59375 8.109375 
Q 21.484375 6.890625 26.8125 6.890625 
Q 36.078125 6.890625 40.9375 10.546875 
Q 45.796875 14.203125 45.796875 21.1875 
Q 45.796875 27.640625 41.28125 31.265625 
Q 36.765625 34.90625 28.71875 34.90625 
L 20.21875 34.90625 
L 20.21875 43.015625 
L 29.109375 43.015625 
Q 36.375 43.015625 40.234375 45.921875 
Q 44.09375 48.828125 44.09375 54.296875 
Q 44.09375 59.90625 40.109375 62.90625 
Q 36.140625 65.921875 28.71875 65.921875 
Q 24.65625 65.921875 20.015625 65.03125 
Q 15.375 64.15625 9.8125 62.3125 
L 9.8125 71.09375 
Q 15.4375 72.65625 20.34375 73.4375 
Q 25.25 74.21875 29.59375 74.21875 
Q 40.828125 74.21875 47.359375 69.109375 
Q 53.90625 64.015625 53.90625 55.328125 
Q 53.90625 49.265625 50.4375 45.09375 
Q 46.96875 40.921875 40.578125 39.3125 
z
" id="DejaVuSans-51"/>
      </defs>
      <g transform="translate(63.747344 241.285622)scale(0.1 -0.1)">
       <use xlink:href="#DejaVuSans-51"/>
       <use x="63.623047" xlink:href="#DejaVuSans-48"/>
      </g>
     </g>
    </g>
    <g id="ytick_5">
     <g id="line2d_11">
      <g>
       <use style="stroke:#000000;stroke-width:0.8;" x="83.472344" xlink:href="#m140d786f3d" y="199.257148"/>
      </g>
     </g>
     <g id="text_11">
      <!-- 40 -->
      <defs>
       <path d="M 37.796875 64.3125 
L 12.890625 25.390625 
L 37.796875 25.390625 
z
M 35.203125 72.90625 
L 47.609375 72.90625 
L 47.609375 25.390625 
L 58.015625 25.390625 
L 58.015625 17.1875 
L 47.609375 17.1875 
L 47.609375 0 
L 37.796875 0 
L 37.796875 17.1875 
L 4.890625 17.1875 
L 4.890625 26.703125 
z
" id="DejaVuSans-52"/>
      </defs>
      <g transform="translate(63.747344 203.056367)scale(0.1 -0.1)">
       <use xlink:href="#DejaVuSans-52"/>
       <use x="63.623047" xlink:href="#DejaVuSans-48"/>
      </g>
     </g>
    </g>
    <g id="ytick_6">
     <g id="line2d_12">
      <g>
       <use style="stroke:#000000;stroke-width:0.8;" x="83.472344" xlink:href="#m140d786f3d" y="161.027894"/>
      </g>
     </g>
     <g id="text_12">
      <!-- 50 -->
      <g transform="translate(63.747344 164.827113)scale(0.1 -0.1)">
       <use xlink:href="#DejaVuSans-53"/>
       <use x="63.623047" xlink:href="#DejaVuSans-48"/>
      </g>
     </g>
    </g>
    <g id="ytick_7">
     <g id="line2d_13">
      <g>
       <use style="stroke:#000000;stroke-width:0.8;" x="83.472344" xlink:href="#m140d786f3d" y="122.798639"/>
      </g>
     </g>
     <g id="text_13">
      <!-- 60 -->
      <defs>
       <path d="M 33.015625 40.375 
Q 26.375 40.375 22.484375 35.828125 
Q 18.609375 31.296875 18.609375 23.390625 
Q 18.609375 15.53125 22.484375 10.953125 
Q 26.375 6.390625 33.015625 6.390625 
Q 39.65625 6.390625 43.53125 10.953125 
Q 47.40625 15.53125 47.40625 23.390625 
Q 47.40625 31.296875 43.53125 35.828125 
Q 39.65625 40.375 33.015625 40.375 
z
M 52.59375 71.296875 
L 52.59375 62.3125 
Q 48.875 64.0625 45.09375 64.984375 
Q 41.3125 65.921875 37.59375 65.921875 
Q 27.828125 65.921875 22.671875 59.328125 
Q 17.53125 52.734375 16.796875 39.40625 
Q 19.671875 43.65625 24.015625 45.921875 
Q 28.375 48.1875 33.59375 48.1875 
Q 44.578125 48.1875 50.953125 41.515625 
Q 57.328125 34.859375 57.328125 23.390625 
Q 57.328125 12.15625 50.6875 5.359375 
Q 44.046875 -1.421875 33.015625 -1.421875 
Q 20.359375 -1.421875 13.671875 8.265625 
Q 6.984375 17.96875 6.984375 36.375 
Q 6.984375 53.65625 15.1875 63.9375 
Q 23.390625 74.21875 37.203125 74.21875 
Q 40.921875 74.21875 44.703125 73.484375 
Q 48.484375 72.75 52.59375 71.296875 
z
" id="DejaVuSans-54"/>
      </defs>
      <g transform="translate(63.747344 126.597858)scale(0.1 -0.1)">
       <use xlink:href="#DejaVuSans-54"/>
       <use x="63.623047" xlink:href="#DejaVuSans-48"/>
      </g>
     </g>
    </g>
    <g id="ytick_8">
     <g id="line2d_14">
      <g>
       <use style="stroke:#000000;stroke-width:0.8;" x="83.472344" xlink:href="#m140d786f3d" y="84.569385"/>
      </g>
     </g>
     <g id="text_14">
      <!-- 70 -->
      <defs>
       <path d="M 8.203125 72.90625 
L 55.078125 72.90625 
L 55.078125 68.703125 
L 28.609375 0 
L 18.3125 0 
L 43.21875 64.59375 
L 8.203125 64.59375 
z
" id="DejaVuSans-55"/>
      </defs>
      <g transform="translate(63.747344 88.368603)scale(0.1 -0.1)">
       <use xlink:href="#DejaVuSans-55"/>
       <use x="63.623047" xlink:href="#DejaVuSans-48"/>
      </g>
     </g>
    </g>
    <g id="ytick_9">
     <g id="line2d_15">
      <g>
       <use style="stroke:#000000;stroke-width:0.8;" x="83.472344" xlink:href="#m140d786f3d" y="46.34013"/>
      </g>
     </g>
     <g id="text_15">
      <!-- 80 -->
      <defs>
       <path d="M 31.78125 34.625 
Q 24.75 34.625 20.71875 30.859375 
Q 16.703125 27.09375 16.703125 20.515625 
Q 16.703125 13.921875 20.71875 10.15625 
Q 24.75 6.390625 31.78125 6.390625 
Q 38.8125 6.390625 42.859375 10.171875 
Q 46.921875 13.96875 46.921875 20.515625 
Q 46.921875 27.09375 42.890625 30.859375 
Q 38.875 34.625 31.78125 34.625 
z
M 21.921875 38.8125 
Q 15.578125 40.375 12.03125 44.71875 
Q 8.5 49.078125 8.5 55.328125 
Q 8.5 64.0625 14.71875 69.140625 
Q 20.953125 74.21875 31.78125 74.21875 
Q 42.671875 74.21875 48.875 69.140625 
Q 55.078125 64.0625 55.078125 55.328125 
Q 55.078125 49.078125 51.53125 44.71875 
Q 48 40.375 41.703125 38.8125 
Q 48.828125 37.15625 52.796875 32.3125 
Q 56.78125 27.484375 56.78125 20.515625 
Q 56.78125 9.90625 50.3125 4.234375 
Q 43.84375 -1.421875 31.78125 -1.421875 
Q 19.734375 -1.421875 13.25 4.234375 
Q 6.78125 9.90625 6.78125 20.515625 
Q 6.78125 27.484375 10.78125 32.3125 
Q 14.796875 37.15625 21.921875 38.8125 
z
M 18.3125 54.390625 
Q 18.3125 48.734375 21.84375 45.5625 
Q 25.390625 42.390625 31.78125 42.390625 
Q 38.140625 42.390625 41.71875 45.5625 
Q 45.3125 48.734375 45.3125 54.390625 
Q 45.3125 60.0625 41.71875 63.234375 
Q 38.140625 66.40625 31.78125 66.40625 
Q 25.390625 66.40625 21.84375 63.234375 
Q 18.3125 60.0625 18.3125 54.390625 
z
" id="DejaVuSans-56"/>
      </defs>
      <g transform="translate(63.747344 50.139349)scale(0.1 -0.1)">
       <use xlink:href="#DejaVuSans-56"/>
       <use x="63.623047" xlink:href="#DejaVuSans-48"/>
      </g>
     </g>
    </g>
    <g id="text_16">
     <!-- throughput -->
     <defs>
      <path d="M 18.3125 70.21875 
L 18.3125 54.6875 
L 36.8125 54.6875 
L 36.8125 47.703125 
L 18.3125 47.703125 
L 18.3125 18.015625 
Q 18.3125 11.328125 20.140625 9.421875 
Q 21.96875 7.515625 27.59375 7.515625 
L 36.8125 7.515625 
L 36.8125 0 
L 27.59375 0 
Q 17.1875 0 13.234375 3.875 
Q 9.28125 7.765625 9.28125 18.015625 
L 9.28125 47.703125 
L 2.6875 47.703125 
L 2.6875 54.6875 
L 9.28125 54.6875 
L 9.28125 70.21875 
z
" id="DejaVuSans-116"/>
      <path d="M 54.890625 33.015625 
L 54.890625 0 
L 45.90625 0 
L 45.90625 32.71875 
Q 45.90625 40.484375 42.875 44.328125 
Q 39.84375 48.1875 33.796875 48.1875 
Q 26.515625 48.1875 22.3125 43.546875 
Q 18.109375 38.921875 18.109375 30.90625 
L 18.109375 0 
L 9.078125 0 
L 9.078125 75.984375 
L 18.109375 75.984375 
L 18.109375 46.1875 
Q 21.34375 51.125 25.703125 53.5625 
Q 30.078125 56 35.796875 56 
Q 45.21875 56 50.046875 50.171875 
Q 54.890625 44.34375 54.890625 33.015625 
z
" id="DejaVuSans-104"/>
      <path d="M 41.109375 46.296875 
Q 39.59375 47.171875 37.8125 47.578125 
Q 36.03125 48 33.890625 48 
Q 26.265625 48 22.1875 43.046875 
Q 18.109375 38.09375 18.109375 28.8125 
L 18.109375 0 
L 9.078125 0 
L 9.078125 54.6875 
L 18.109375 54.6875 
L 18.109375 46.1875 
Q 20.953125 51.171875 25.484375 53.578125 
Q 30.03125 56 36.53125 56 
Q 37.453125 56 38.578125 55.875 
Q 39.703125 55.765625 41.0625 55.515625 
z
" id="DejaVuSans-114"/>
      <path d="M 30.609375 48.390625 
Q 23.390625 48.390625 19.1875 42.75 
Q 14.984375 37.109375 14.984375 27.296875 
Q 14.984375 17.484375 19.15625 11.84375 
Q 23.34375 6.203125 30.609375 6.203125 
Q 37.796875 6.203125 41.984375 11.859375 
Q 46.1875 17.53125 46.1875 27.296875 
Q 46.1875 37.015625 41.984375 42.703125 
Q 37.796875 48.390625 30.609375 48.390625 
z
M 30.609375 56 
Q 42.328125 56 49.015625 48.375 
Q 55.71875 40.765625 55.71875 27.296875 
Q 55.71875 13.875 49.015625 6.21875 
Q 42.328125 -1.421875 30.609375 -1.421875 
Q 18.84375 -1.421875 12.171875 6.21875 
Q 5.515625 13.875 5.515625 27.296875 
Q 5.515625 40.765625 12.171875 48.375 
Q 18.84375 56 30.609375 56 
z
" id="DejaVuSans-111"/>
      <path d="M 8.5 21.578125 
L 8.5 54.6875 
L 17.484375 54.6875 
L 17.484375 21.921875 
Q 17.484375 14.15625 20.5 10.265625 
Q 23.53125 6.390625 29.59375 6.390625 
Q 36.859375 6.390625 41.078125 11.03125 
Q 45.3125 15.671875 45.3125 23.6875 
L 45.3125 54.6875 
L 54.296875 54.6875 
L 54.296875 0 
L 45.3125 0 
L 45.3125 8.40625 
Q 42.046875 3.421875 37.71875 1 
Q 33.40625 -1.421875 27.6875 -1.421875 
Q 18.265625 -1.421875 13.375 4.4375 
Q 8.5 10.296875 8.5 21.578125 
z
M 31.109375 56 
z
" id="DejaVuSans-117"/>
      <path d="M 45.40625 27.984375 
Q 45.40625 37.75 41.375 43.109375 
Q 37.359375 48.484375 30.078125 48.484375 
Q 22.859375 48.484375 18.828125 43.109375 
Q 14.796875 37.75 14.796875 27.984375 
Q 14.796875 18.265625 18.828125 12.890625 
Q 22.859375 7.515625 30.078125 7.515625 
Q 37.359375 7.515625 41.375 12.890625 
Q 45.40625 18.265625 45.40625 27.984375 
z
M 54.390625 6.78125 
Q 54.390625 -7.171875 48.1875 -13.984375 
Q 42 -20.796875 29.203125 -20.796875 
Q 24.46875 -20.796875 20.265625 -20.09375 
Q 16.0625 -19.390625 12.109375 -17.921875 
L 12.109375 -9.1875 
Q 16.0625 -11.328125 19.921875 -12.34375 
Q 23.78125 -13.375 27.78125 -13.375 
Q 36.625 -13.375 41.015625 -8.765625 
Q 45.40625 -4.15625 45.40625 5.171875 
L 45.40625 9.625 
Q 42.625 4.78125 38.28125 2.390625 
Q 33.9375 0 27.875 0 
Q 17.828125 0 11.671875 7.65625 
Q 5.515625 15.328125 5.515625 27.984375 
Q 5.515625 40.671875 11.671875 48.328125 
Q 17.828125 56 27.875 56 
Q 33.9375 56 38.28125 53.609375 
Q 42.625 51.21875 45.40625 46.390625 
L 45.40625 54.6875 
L 54.390625 54.6875 
z
" id="DejaVuSans-103"/>
      <path d="M 18.109375 8.203125 
L 18.109375 -20.796875 
L 9.078125 -20.796875 
L 9.078125 54.6875 
L 18.109375 54.6875 
L 18.109375 46.390625 
Q 20.953125 51.265625 25.265625 53.625 
Q 29.59375 56 35.59375 56 
Q 45.5625 56 51.78125 48.09375 
Q 58.015625 40.1875 58.015625 27.296875 
Q 58.015625 14.40625 51.78125 6.484375 
Q 45.5625 -1.421875 35.59375 -1.421875 
Q 29.59375 -1.421875 25.265625 0.953125 
Q 20.953125 3.328125 18.109375 8.203125 
z
M 48.6875 27.296875 
Q 48.6875 37.203125 44.609375 42.84375 
Q 40.53125 48.484375 33.40625 48.484375 
Q 26.265625 48.484375 22.1875 42.84375 
Q 18.109375 37.203125 18.109375 27.296875 
Q 18.109375 17.390625 22.1875 11.75 
Q 26.265625 6.109375 33.40625 6.109375 
Q 40.53125 6.109375 44.609375 11.75 
Q 48.6875 17.390625 48.6875 27.296875 
z
" id="DejaVuSans-112"/>
     </defs>
     <g transform="translate(46.469844 221.675365)rotate(-90)scale(0.1 -0.1)">
      <use xlink:href="#DejaVuSans-116"/>
      <use x="39.208984" xlink:href="#DejaVuSans-104"/>
      <use x="102.587891" xlink:href="#DejaVuSans-114"/>
      <use x="143.669922" xlink:href="#DejaVuSans-111"/>
      <use x="204.851562" xlink:href="#DejaVuSans-117"/>
      <use x="268.230469" xlink:href="#DejaVuSans-103"/>
      <use x="331.707031" xlink:href="#DejaVuSans-104"/>
      <use x="395.085938" xlink:href="#DejaVuSans-112"/>
      <use x="458.5625" xlink:href="#DejaVuSans-117"/>
      <use x="521.941406" xlink:href="#DejaVuSans-116"/>
     </g>
     <!-- (mbit / second) -->
     <defs>
      <path d="M 31 75.875 
Q 24.46875 64.65625 21.28125 53.65625 
Q 18.109375 42.671875 18.109375 31.390625 
Q 18.109375 20.125 21.3125 9.0625 
Q 24.515625 -2 31 -13.1875 
L 23.1875 -13.1875 
Q 15.875 -1.703125 12.234375 9.375 
Q 8.59375 20.453125 8.59375 31.390625 
Q 8.59375 42.28125 12.203125 53.3125 
Q 15.828125 64.359375 23.1875 75.875 
z
" id="DejaVuSans-40"/>
      <path d="M 52 44.1875 
Q 55.375 50.25 60.0625 53.125 
Q 64.75 56 71.09375 56 
Q 79.640625 56 84.28125 50.015625 
Q 88.921875 44.046875 88.921875 33.015625 
L 88.921875 0 
L 79.890625 0 
L 79.890625 32.71875 
Q 79.890625 40.578125 77.09375 44.375 
Q 74.3125 48.1875 68.609375 48.1875 
Q 61.625 48.1875 57.5625 43.546875 
Q 53.515625 38.921875 53.515625 30.90625 
L 53.515625 0 
L 44.484375 0 
L 44.484375 32.71875 
Q 44.484375 40.625 41.703125 44.40625 
Q 38.921875 48.1875 33.109375 48.1875 
Q 26.21875 48.1875 22.15625 43.53125 
Q 18.109375 38.875 18.109375 30.90625 
L 18.109375 0 
L 9.078125 0 
L 9.078125 54.6875 
L 18.109375 54.6875 
L 18.109375 46.1875 
Q 21.1875 51.21875 25.484375 53.609375 
Q 29.78125 56 35.6875 56 
Q 41.65625 56 45.828125 52.96875 
Q 50 49.953125 52 44.1875 
z
" id="DejaVuSans-109"/>
      <path d="M 48.6875 27.296875 
Q 48.6875 37.203125 44.609375 42.84375 
Q 40.53125 48.484375 33.40625 48.484375 
Q 26.265625 48.484375 22.1875 42.84375 
Q 18.109375 37.203125 18.109375 27.296875 
Q 18.109375 17.390625 22.1875 11.75 
Q 26.265625 6.109375 33.40625 6.109375 
Q 40.53125 6.109375 44.609375 11.75 
Q 48.6875 17.390625 48.6875 27.296875 
z
M 18.109375 46.390625 
Q 20.953125 51.265625 25.265625 53.625 
Q 29.59375 56 35.59375 56 
Q 45.5625 56 51.78125 48.09375 
Q 58.015625 40.1875 58.015625 27.296875 
Q 58.015625 14.40625 51.78125 6.484375 
Q 45.5625 -1.421875 35.59375 -1.421875 
Q 29.59375 -1.421875 25.265625 0.953125 
Q 20.953125 3.328125 18.109375 8.203125 
L 18.109375 0 
L 9.078125 0 
L 9.078125 75.984375 
L 18.109375 75.984375 
z
" id="DejaVuSans-98"/>
      <path d="M 9.421875 54.6875 
L 18.40625 54.6875 
L 18.40625 0 
L 9.421875 0 
z
M 9.421875 75.984375 
L 18.40625 75.984375 
L 18.40625 64.59375 
L 9.421875 64.59375 
z
" id="DejaVuSans-105"/>
      <path id="DejaVuSans-32"/>
      <path d="M 25.390625 72.90625 
L 33.6875 72.90625 
L 8.296875 -9.28125 
L 0 -9.28125 
z
" id="DejaVuSans-47"/>
      <path d="M 44.28125 53.078125 
L 44.28125 44.578125 
Q 40.484375 46.53125 36.375 47.5 
Q 32.28125 48.484375 27.875 48.484375 
Q 21.1875 48.484375 17.84375 46.4375 
Q 14.5 44.390625 14.5 40.28125 
Q 14.5 37.15625 16.890625 35.375 
Q 19.28125 33.59375 26.515625 31.984375 
L 29.59375 31.296875 
Q 39.15625 29.25 43.1875 25.515625 
Q 47.21875 21.78125 47.21875 15.09375 
Q 47.21875 7.46875 41.1875 3.015625 
Q 35.15625 -1.421875 24.609375 -1.421875 
Q 20.21875 -1.421875 15.453125 -0.5625 
Q 10.6875 0.296875 5.421875 2 
L 5.421875 11.28125 
Q 10.40625 8.6875 15.234375 7.390625 
Q 20.0625 6.109375 24.8125 6.109375 
Q 31.15625 6.109375 34.5625 8.28125 
Q 37.984375 10.453125 37.984375 14.40625 
Q 37.984375 18.0625 35.515625 20.015625 
Q 33.0625 21.96875 24.703125 23.78125 
L 21.578125 24.515625 
Q 13.234375 26.265625 9.515625 29.90625 
Q 5.8125 33.546875 5.8125 39.890625 
Q 5.8125 47.609375 11.28125 51.796875 
Q 16.75 56 26.8125 56 
Q 31.78125 56 36.171875 55.265625 
Q 40.578125 54.546875 44.28125 53.078125 
z
" id="DejaVuSans-115"/>
      <path d="M 56.203125 29.59375 
L 56.203125 25.203125 
L 14.890625 25.203125 
Q 15.484375 15.921875 20.484375 11.0625 
Q 25.484375 6.203125 34.421875 6.203125 
Q 39.59375 6.203125 44.453125 7.46875 
Q 49.3125 8.734375 54.109375 11.28125 
L 54.109375 2.78125 
Q 49.265625 0.734375 44.1875 -0.34375 
Q 39.109375 -1.421875 33.890625 -1.421875 
Q 20.796875 -1.421875 13.15625 6.1875 
Q 5.515625 13.8125 5.515625 26.8125 
Q 5.515625 40.234375 12.765625 48.109375 
Q 20.015625 56 32.328125 56 
Q 43.359375 56 49.78125 48.890625 
Q 56.203125 41.796875 56.203125 29.59375 
z
M 47.21875 32.234375 
Q 47.125 39.59375 43.09375 43.984375 
Q 39.0625 48.390625 32.421875 48.390625 
Q 24.90625 48.390625 20.390625 44.140625 
Q 15.875 39.890625 15.1875 32.171875 
z
" id="DejaVuSans-101"/>
      <path d="M 48.78125 52.59375 
L 48.78125 44.1875 
Q 44.96875 46.296875 41.140625 47.34375 
Q 37.3125 48.390625 33.40625 48.390625 
Q 24.65625 48.390625 19.8125 42.84375 
Q 14.984375 37.3125 14.984375 27.296875 
Q 14.984375 17.28125 19.8125 11.734375 
Q 24.65625 6.203125 33.40625 6.203125 
Q 37.3125 6.203125 41.140625 7.25 
Q 44.96875 8.296875 48.78125 10.40625 
L 48.78125 2.09375 
Q 45.015625 0.34375 40.984375 -0.53125 
Q 36.96875 -1.421875 32.421875 -1.421875 
Q 20.0625 -1.421875 12.78125 6.34375 
Q 5.515625 14.109375 5.515625 27.296875 
Q 5.515625 40.671875 12.859375 48.328125 
Q 20.21875 56 33.015625 56 
Q 37.15625 56 41.109375 55.140625 
Q 45.0625 54.296875 48.78125 52.59375 
z
" id="DejaVuSans-99"/>
      <path d="M 54.890625 33.015625 
L 54.890625 0 
L 45.90625 0 
L 45.90625 32.71875 
Q 45.90625 40.484375 42.875 44.328125 
Q 39.84375 48.1875 33.796875 48.1875 
Q 26.515625 48.1875 22.3125 43.546875 
Q 18.109375 38.921875 18.109375 30.90625 
L 18.109375 0 
L 9.078125 0 
L 9.078125 54.6875 
L 18.109375 54.6875 
L 18.109375 46.1875 
Q 21.34375 51.125 25.703125 53.5625 
Q 30.078125 56 35.796875 56 
Q 45.21875 56 50.046875 50.171875 
Q 54.890625 44.34375 54.890625 33.015625 
z
" id="DejaVuSans-110"/>
      <path d="M 45.40625 46.390625 
L 45.40625 75.984375 
L 54.390625 75.984375 
L 54.390625 0 
L 45.40625 0 
L 45.40625 8.203125 
Q 42.578125 3.328125 38.25 0.953125 
Q 33.9375 -1.421875 27.875 -1.421875 
Q 17.96875 -1.421875 11.734375 6.484375 
Q 5.515625 14.40625 5.515625 27.296875 
Q 5.515625 40.1875 11.734375 48.09375 
Q 17.96875 56 27.875 56 
Q 33.9375 56 38.25 53.625 
Q 42.578125 51.265625 45.40625 46.390625 
z
M 14.796875 27.296875 
Q 14.796875 17.390625 18.875 11.75 
Q 22.953125 6.109375 30.078125 6.109375 
Q 37.203125 6.109375 41.296875 11.75 
Q 45.40625 17.390625 45.40625 27.296875 
Q 45.40625 37.203125 41.296875 42.84375 
Q 37.203125 48.484375 30.078125 48.484375 
Q 22.953125 48.484375 18.875 42.84375 
Q 14.796875 37.203125 14.796875 27.296875 
z
" id="DejaVuSans-100"/>
      <path d="M 8.015625 75.875 
L 15.828125 75.875 
Q 23.140625 64.359375 26.78125 53.3125 
Q 30.421875 42.28125 30.421875 31.390625 
Q 30.421875 20.453125 26.78125 9.375 
Q 23.140625 -1.703125 15.828125 -13.1875 
L 8.015625 -13.1875 
Q 14.5 -2 17.703125 9.0625 
Q 20.90625 20.125 20.90625 31.390625 
Q 20.90625 42.671875 17.703125 53.65625 
Q 14.5 64.65625 8.015625 75.875 
z
" id="DejaVuSans-41"/>
     </defs>
     <g transform="translate(57.667656 231.608958)rotate(-90)scale(0.1 -0.1)">
      <use xlink:href="#DejaVuSans-40"/>
      <use x="39.013672" xlink:href="#DejaVuSans-109"/>
      <use x="136.425781" xlink:href="#DejaVuSans-98"/>
      <use x="199.902344" xlink:href="#DejaVuSans-105"/>
      <use x="227.685547" xlink:href="#DejaVuSans-116"/>
      <use x="266.894531" xlink:href="#DejaVuSans-32"/>
      <use x="298.681641" xlink:href="#DejaVuSans-47"/>
      <use x="332.373047" xlink:href="#DejaVuSans-32"/>
      <use x="364.160156" xlink:href="#DejaVuSans-115"/>
      <use x="416.259766" xlink:href="#DejaVuSans-101"/>
      <use x="477.783203" xlink:href="#DejaVuSans-99"/>
      <use x="532.763672" xlink:href="#DejaVuSans-111"/>
      <use x="593.945312" xlink:href="#DejaVuSans-110"/>
      <use x="657.324219" xlink:href="#DejaVuSans-100"/>
      <use x="720.800781" xlink:href="#DejaVuSans-41"/>
     </g>
    </g>
   </g>
   <g id="line2d_16">
    <path clip-path="url(#pd3f796bbd7)" d="M 109.766136 268.069807 
L 110.502641 191.611297 
L 111.239145 145.736192 
L 111.975649 130.44449 
L 112.712154 161.027894 
L 113.448658 203.080074 
L 114.185162 218.371776 
L 114.921667 222.194701 
L 117.131179 222.194701 
L 118.604188 214.54885 
L 120.077197 237.486403 
L 121.550205 252.778105 
L 122.28671 287.184434 
L 123.023214 298.65321 
L 123.759718 313.944912 
L 124.496222 317.767838 
L 125.232727 333.059539 
L 125.969231 344.528316 
L 127.44224 352.174167 
L 131.124761 352.174167 
L 131.861265 348.351241 
L 132.59777 352.174167 
L 136.280291 352.174167 
L 137.016796 348.351241 
L 138.489804 325.413688 
L 139.962813 310.121987 
L 140.699317 310.121987 
L 141.435821 313.944912 
L 142.172326 313.944912 
L 148.800864 279.538583 
L 149.537369 264.246881 
L 150.273873 260.423956 
L 151.010377 260.423956 
L 151.746882 264.246881 
L 152.483386 287.184434 
L 153.21989 298.65321 
L 153.956394 306.299061 
L 154.692899 306.299061 
L 155.429403 313.944912 
L 156.902412 336.882465 
L 158.37542 352.174167 
L 168.68648 352.174167 
L 169.422985 344.528316 
L 170.159489 333.059539 
L 170.895993 317.767838 
L 171.632498 306.299061 
L 172.369002 291.007359 
L 173.105506 283.361508 
L 174.578515 260.423956 
L 175.315019 252.778105 
L 176.051523 248.955179 
L 176.788028 241.309328 
L 179.734045 226.017627 
L 180.470549 226.017627 
L 181.207054 229.840552 
L 182.680062 229.840552 
L 183.416566 226.017627 
L 184.153071 226.017627 
L 184.889575 252.778105 
L 185.626079 264.246881 
L 186.362584 283.361508 
L 187.099088 306.299061 
L 187.835592 317.767838 
L 188.572097 325.413688 
L 189.308601 336.882465 
L 190.045105 344.528316 
L 191.518114 352.174167 
L 201.829174 352.174167 
L 202.565678 348.351241 
L 203.302183 340.70539 
L 204.038687 325.413688 
L 204.775191 313.944912 
L 205.511695 298.65321 
L 206.984704 275.715658 
L 209.930721 245.132254 
L 210.667226 241.309328 
L 211.40373 233.663477 
L 212.876738 226.017627 
L 213.613243 256.60103 
L 214.349747 260.423956 
L 216.55926 260.423956 
L 217.295764 256.60103 
L 218.032269 264.246881 
L 218.768773 275.715658 
L 219.505277 279.538583 
L 220.241781 287.184434 
L 220.978286 298.65321 
L 221.71479 313.944912 
L 222.451294 321.590763 
L 223.924303 344.528316 
L 224.660807 348.351241 
L 225.397312 348.351241 
L 226.133816 352.174167 
L 233.498859 352.174167 
L 234.235363 348.351241 
L 234.971867 340.70539 
L 235.708372 325.413688 
L 236.444876 313.944912 
L 237.18138 313.944912 
L 237.917885 317.767838 
L 238.654389 317.767838 
L 240.127398 310.121987 
L 240.863902 310.121987 
L 243.073415 298.65321 
L 243.809919 298.65321 
L 244.546423 294.830285 
L 245.282928 294.830285 
L 249.701954 271.892732 
L 251.911466 306.299061 
L 252.647971 310.121987 
L 255.593988 340.70539 
L 257.066997 348.351241 
L 258.540005 348.351241 
L 259.276509 352.174167 
L 269.58757 352.174167 
L 270.324074 348.351241 
L 271.060578 340.70539 
L 271.797083 336.882465 
L 272.533587 329.236614 
L 274.006595 321.590763 
L 274.7431 313.944912 
L 276.952613 302.476136 
L 277.689117 294.830285 
L 279.162126 287.184434 
L 279.89863 279.538583 
L 280.635134 268.069807 
L 281.371638 279.538583 
L 282.108143 271.892732 
L 282.844647 260.423956 
L 283.581151 245.132254 
L 284.317656 283.361508 
L 285.05416 302.476136 
L 285.790664 313.944912 
L 286.527169 329.236614 
L 287.263673 336.882465 
L 289.473186 348.351241 
L 292.419203 348.351241 
L 293.155707 352.174167 
L 299.784246 352.174167 
L 300.52075 340.70539 
L 301.993759 310.121987 
L 302.730263 298.65321 
L 303.466767 283.361508 
L 304.939776 260.423956 
L 307.149289 237.486403 
L 307.885793 233.663477 
L 308.622298 233.663477 
L 310.83181 222.194701 
L 311.568315 222.194701 
L 312.304819 218.371776 
L 313.777828 218.371776 
L 314.514332 214.54885 
L 315.250836 214.54885 
L 316.723845 252.778105 
L 317.460349 264.246881 
L 318.196853 279.538583 
L 318.933358 291.007359 
L 319.669862 298.65321 
L 320.406366 310.121987 
L 321.142871 317.767838 
L 321.879375 329.236614 
L 322.615879 344.528316 
L 324.088888 352.174167 
L 329.980922 352.174167 
L 330.717427 348.351241 
L 331.453931 352.174167 
L 333.663444 352.174167 
L 334.399948 344.528316 
L 336.609461 298.65321 
L 339.555478 252.778105 
L 340.291982 245.132254 
L 343.238 229.840552 
L 343.974504 218.371776 
L 345.447513 187.788372 
L 348.39353 187.788372 
L 349.130034 176.319596 
L 350.603043 233.663477 
L 351.339547 252.778105 
L 352.076051 252.778105 
L 353.54906 302.476136 
L 354.285564 321.590763 
L 355.022068 336.882465 
L 355.758573 348.351241 
L 356.495077 352.174167 
L 366.806137 352.174167 
L 367.542642 348.351241 
L 368.279146 336.882465 
L 369.01565 317.767838 
L 371.225163 271.892732 
L 371.961667 260.423956 
L 374.17118 237.486403 
L 376.380693 226.017627 
L 377.117197 218.371776 
L 377.853702 206.902999 
L 378.590206 191.611297 
L 379.32671 199.257148 
L 380.799719 222.194701 
L 382.272728 222.194701 
L 383.009232 226.017627 
L 383.745736 237.486403 
L 384.48224 252.778105 
L 385.218745 264.246881 
L 385.955249 283.361508 
L 389.637771 340.70539 
L 390.374275 348.351241 
L 391.847283 348.351241 
L 392.583788 352.174167 
L 401.421839 352.174167 
L 402.158344 348.351241 
L 405.104361 287.184434 
L 406.577369 264.246881 
L 408.786882 241.309328 
L 409.523387 237.486403 
L 410.259891 229.840552 
L 410.996395 229.840552 
L 411.7329 226.017627 
L 412.469404 226.017627 
L 413.205908 222.194701 
L 414.678917 206.902999 
L 416.151925 206.902999 
L 416.88843 199.257148 
L 417.624934 206.902999 
L 418.361438 226.017627 
L 419.097943 248.955179 
L 419.834447 260.423956 
L 421.307455 298.65321 
L 422.04396 313.944912 
L 422.780464 336.882465 
L 423.516968 348.351241 
L 424.253473 352.174167 
L 433.828029 352.174167 
L 434.564533 348.351241 
L 435.301037 340.70539 
L 436.037541 329.236614 
L 436.774046 321.590763 
L 437.51055 310.121987 
L 442.66608 256.60103 
L 444.139089 256.60103 
L 444.875593 260.423956 
L 446.348602 260.423956 
L 447.085106 256.60103 
L 447.82161 256.60103 
L 448.558115 252.778105 
L 449.294619 245.132254 
L 450.031123 260.423956 
L 450.767627 279.538583 
L 451.504132 287.184434 
L 452.240636 302.476136 
L 452.97714 313.944912 
L 454.450149 321.590763 
L 455.186653 333.059539 
L 456.659662 340.70539 
L 457.396166 348.351241 
L 458.13267 352.174167 
L 466.970722 352.174167 
L 467.707226 348.351241 
L 468.443731 336.882465 
L 470.653244 291.007359 
L 472.862756 256.60103 
L 473.599261 248.955179 
L 474.335765 245.132254 
L 475.072269 237.486403 
L 478.018287 222.194701 
L 479.491295 222.194701 
L 480.227799 226.017627 
L 482.437312 226.017627 
L 483.173817 218.371776 
L 483.910321 248.955179 
L 484.646825 260.423956 
L 486.119834 291.007359 
L 487.592842 313.944912 
L 488.329347 329.236614 
L 489.065851 340.70539 
L 491.275364 352.174167 
L 493.484877 352.174167 
L 494.221381 348.351241 
L 496.430894 348.351241 
L 497.167398 352.174167 
L 506.741954 352.174167 
L 506.741954 352.174167 
" style="fill:none;stroke:#1f77b4;stroke-linecap:square;stroke-width:1.5;"/>
   </g>
   <g id="line2d_17">
    <path clip-path="url(#pd3f796bbd7)" d="M 103.765099 69.277683 
L 104.501604 50.163056 
L 105.238108 50.163056 
L 105.974612 53.985981 
L 106.711117 172.49667 
L 108.92063 252.778105 
L 109.657134 287.184434 
L 110.393638 313.944912 
L 111.130142 329.236614 
L 111.866647 329.236614 
L 112.603151 336.882465 
L 117.022177 336.882465 
L 118.495185 344.528316 
L 121.441203 268.069807 
L 122.177707 241.309328 
L 122.914211 222.194701 
L 124.38722 191.611297 
L 125.123724 187.788372 
L 125.860228 172.49667 
L 126.596733 161.027894 
L 127.333237 168.673745 
L 128.069741 164.850819 
L 128.806246 168.673745 
L 129.54275 168.673745 
L 131.015759 176.319596 
L 131.752263 176.319596 
L 132.488767 180.142521 
L 133.225271 180.142521 
L 133.961776 187.788372 
L 135.434784 180.142521 
L 136.171289 141.913267 
L 136.907793 126.621565 
L 138.380802 164.850819 
L 139.117306 187.788372 
L 139.85381 218.371776 
L 141.326819 294.830285 
L 142.063323 302.476136 
L 142.799827 313.944912 
L 143.536332 321.590763 
L 145.745845 333.059539 
L 146.482349 333.059539 
L 147.218853 336.882465 
L 150.901375 336.882465 
L 151.637879 340.70539 
L 153.110888 310.121987 
L 154.583896 287.184434 
L 155.3204 264.246881 
L 156.793409 226.017627 
L 157.529913 214.54885 
L 158.266418 199.257148 
L 159.002922 199.257148 
L 159.739426 195.434223 
L 160.475931 199.257148 
L 161.948939 199.257148 
L 162.685443 206.902999 
L 163.421948 203.080074 
L 164.158452 210.725925 
L 164.894956 203.080074 
L 165.631461 206.902999 
L 166.367965 203.080074 
L 167.104469 206.902999 
L 167.840974 206.902999 
L 168.577478 138.090341 
L 169.313982 138.090341 
L 170.786991 176.319596 
L 171.523495 199.257148 
L 172.259999 214.54885 
L 173.733008 252.778105 
L 175.206017 283.361508 
L 175.942521 294.830285 
L 178.152034 317.767838 
L 181.098051 333.059539 
L 182.57106 333.059539 
L 183.307564 336.882465 
L 184.044068 336.882465 
L 185.517077 313.944912 
L 186.253581 291.007359 
L 186.990085 275.715658 
L 188.463094 237.486403 
L 189.199598 226.017627 
L 189.936103 222.194701 
L 190.672607 222.194701 
L 192.145615 214.54885 
L 192.88212 218.371776 
L 193.618624 218.371776 
L 195.091633 203.080074 
L 196.564641 195.434223 
L 197.301146 203.080074 
L 198.03765 199.257148 
L 198.774154 191.611297 
L 200.247163 199.257148 
L 200.983667 206.902999 
L 201.720171 191.611297 
L 202.456676 122.798639 
L 203.19318 153.382043 
L 203.929684 168.673745 
L 207.612206 264.246881 
L 208.34871 279.538583 
L 209.085214 291.007359 
L 212.767736 329.236614 
L 213.50424 333.059539 
L 215.713753 333.059539 
L 216.450257 336.882465 
L 217.186762 344.528316 
L 217.923266 329.236614 
L 218.65977 302.476136 
L 219.396275 287.184434 
L 220.132779 275.715658 
L 220.869283 256.60103 
L 221.605787 241.309328 
L 222.342292 233.663477 
L 223.078796 222.194701 
L 223.8153 218.371776 
L 224.551805 210.725925 
L 225.288309 214.54885 
L 226.024813 214.54885 
L 226.761318 206.902999 
L 227.497822 218.371776 
L 228.234326 226.017627 
L 228.97083 218.371776 
L 232.653352 199.257148 
L 233.389856 203.080074 
L 234.126361 306.299061 
L 234.862865 260.423956 
L 235.599369 241.309328 
L 236.335873 264.246881 
L 237.808882 321.590763 
L 238.545386 329.236614 
L 240.018395 336.882465 
L 240.754899 336.882465 
L 241.491404 340.70539 
L 242.964412 340.70539 
L 243.700916 336.882465 
L 246.646934 336.882465 
L 247.383438 340.70539 
L 248.856447 340.70539 
L 249.592951 344.528316 
L 250.329455 333.059539 
L 251.065959 310.121987 
L 251.802464 294.830285 
L 252.538968 287.184434 
L 254.011977 256.60103 
L 254.748481 245.132254 
L 255.484985 229.840552 
L 256.957994 214.54885 
L 257.694498 214.54885 
L 258.431002 210.725925 
L 259.167507 203.080074 
L 259.904011 210.725925 
L 261.37702 203.080074 
L 262.113524 203.080074 
L 263.586533 195.434223 
L 264.323037 203.080074 
L 265.796045 203.080074 
L 266.53255 206.902999 
L 267.269054 206.902999 
L 268.005558 107.506937 
L 270.215071 183.965447 
L 270.951576 206.902999 
L 272.424584 237.486403 
L 273.161088 248.955179 
L 273.897593 264.246881 
L 274.634097 271.892732 
L 275.370601 283.361508 
L 276.84361 298.65321 
L 280.526131 317.767838 
L 281.99914 317.767838 
L 282.735644 329.236614 
L 283.472149 317.767838 
L 284.945157 279.538583 
L 285.681662 264.246881 
L 287.15467 248.955179 
L 287.891174 233.663477 
L 289.364183 226.017627 
L 290.100687 226.017627 
L 290.837192 218.371776 
L 291.573696 214.54885 
L 292.3102 214.54885 
L 293.046705 206.902999 
L 294.519713 199.257148 
L 295.256217 199.257148 
L 295.992722 195.434223 
L 296.729226 199.257148 
L 297.46573 199.257148 
L 298.202235 195.434223 
L 298.938739 199.257148 
L 299.675243 306.299061 
L 300.411748 287.184434 
L 301.148252 279.538583 
L 301.884756 283.361508 
L 303.357765 298.65321 
L 304.094269 302.476136 
L 304.830773 310.121987 
L 308.513295 329.236614 
L 309.249799 329.236614 
L 309.986303 333.059539 
L 310.722808 333.059539 
L 311.459312 336.882465 
L 313.668825 336.882465 
L 315.141834 344.528316 
L 315.878338 329.236614 
L 316.614842 302.476136 
L 317.351346 283.361508 
L 318.087851 268.069807 
L 318.824355 248.955179 
L 321.033868 214.54885 
L 321.770372 206.902999 
L 322.506877 210.725925 
L 323.243381 206.902999 
L 323.979885 206.902999 
L 324.716389 210.725925 
L 325.452894 210.725925 
L 326.925902 203.080074 
L 327.662407 210.725925 
L 328.398911 206.902999 
L 329.135415 206.902999 
L 329.87192 210.725925 
L 330.608424 210.725925 
L 331.344928 206.902999 
L 332.081432 206.902999 
L 332.817937 203.080074 
L 333.554441 206.902999 
L 334.290945 252.778105 
L 335.02745 199.257148 
L 335.763954 218.371776 
L 336.500458 233.663477 
L 337.236963 252.778105 
L 338.709971 283.361508 
L 339.446475 294.830285 
L 341.655988 317.767838 
L 345.33851 336.882465 
L 347.548023 336.882465 
L 349.021031 344.528316 
L 349.757536 333.059539 
L 351.230544 279.538583 
L 351.967049 268.069807 
L 352.703553 248.955179 
L 354.176561 226.017627 
L 354.913066 210.725925 
L 355.64957 191.611297 
L 357.122579 191.611297 
L 357.859083 195.434223 
L 358.595587 195.434223 
L 359.332092 199.257148 
L 360.068596 195.434223 
L 361.541604 203.080074 
L 362.278109 203.080074 
L 363.014613 199.257148 
L 363.751117 199.257148 
L 366.697135 214.54885 
L 367.433639 310.121987 
L 368.170143 268.069807 
L 368.906647 268.069807 
L 373.325673 313.944912 
L 378.481203 340.70539 
L 380.690716 340.70539 
L 381.427221 336.882465 
L 382.163725 336.882465 
L 382.900229 344.528316 
L 383.636733 329.236614 
L 384.373238 317.767838 
L 385.846246 287.184434 
L 386.582751 268.069807 
L 387.319255 260.423956 
L 388.055759 248.955179 
L 389.528768 233.663477 
L 390.265272 233.663477 
L 391.001776 229.840552 
L 391.738281 229.840552 
L 392.474785 214.54885 
L 393.211289 222.194701 
L 393.947794 222.194701 
L 394.684298 218.371776 
L 395.420802 218.371776 
L 396.893811 210.725925 
L 397.630315 203.080074 
L 398.36682 206.902999 
L 399.103324 199.257148 
L 400.576332 199.257148 
L 401.312837 203.080074 
L 402.049341 271.892732 
L 402.785845 233.663477 
L 403.52235 252.778105 
L 404.995358 283.361508 
L 407.941375 313.944912 
L 408.67788 317.767838 
L 409.414384 325.413688 
L 410.150888 329.236614 
L 410.887393 329.236614 
L 411.623897 333.059539 
L 412.360401 333.059539 
L 413.096906 336.882465 
L 413.83341 336.882465 
L 414.569914 340.70539 
L 415.306418 336.882465 
L 416.042923 336.882465 
L 416.779427 344.528316 
L 417.515931 340.70539 
L 418.252436 321.590763 
L 418.98894 298.65321 
L 419.725444 283.361508 
L 420.461949 271.892732 
L 421.198453 252.778105 
L 421.934957 237.486403 
L 422.671461 214.54885 
L 423.407966 199.257148 
L 424.14447 187.788372 
L 424.880974 187.788372 
L 425.617479 176.319596 
L 426.353983 180.142521 
L 427.090487 172.49667 
L 428.563496 172.49667 
L 430.036504 180.142521 
L 430.773009 187.788372 
L 431.509513 180.142521 
L 432.246017 187.788372 
L 432.982522 180.142521 
L 433.719026 176.319596 
L 434.45553 111.329863 
L 435.192035 153.382043 
L 435.928539 168.673745 
L 436.665043 187.788372 
L 437.401547 199.257148 
L 438.874556 229.840552 
L 442.557078 287.184434 
L 443.293582 294.830285 
L 444.030086 306.299061 
L 445.503095 321.590763 
L 446.239599 317.767838 
L 448.449112 329.236614 
L 449.185616 340.70539 
L 449.922121 317.767838 
L 450.658625 287.184434 
L 452.131633 256.60103 
L 453.604642 233.663477 
L 454.341146 226.017627 
L 455.077651 222.194701 
L 455.814155 206.902999 
L 456.550659 199.257148 
L 457.287164 183.965447 
L 458.023668 172.49667 
L 458.760172 172.49667 
L 459.496676 176.319596 
L 461.706189 176.319596 
L 462.442694 172.49667 
L 464.652207 172.49667 
L 465.388711 168.673745 
L 466.125215 168.673745 
L 466.861719 172.49667 
L 467.598224 298.65321 
L 468.334728 268.069807 
L 469.071232 275.715658 
L 469.807737 287.184434 
L 470.544241 294.830285 
L 471.280745 298.65321 
L 472.01725 306.299061 
L 477.17278 333.059539 
L 477.909284 333.059539 
L 478.645788 336.882465 
L 480.118797 336.882465 
L 480.855301 340.70539 
L 481.591805 336.882465 
L 483.064814 344.528316 
L 483.801318 336.882465 
L 484.537823 325.413688 
L 485.274327 294.830285 
L 486.747336 264.246881 
L 488.956848 195.434223 
L 489.693353 187.788372 
L 490.429857 195.434223 
L 491.166361 191.611297 
L 492.63937 191.611297 
L 493.375874 199.257148 
L 494.112379 195.434223 
L 495.585387 195.434223 
L 496.321891 187.788372 
L 497.058396 187.788372 
L 498.531404 172.49667 
L 499.267909 172.49667 
L 500.004413 180.142521 
L 501.477422 187.788372 
L 501.477422 187.788372 
" style="fill:none;stroke:#ff7f0e;stroke-linecap:square;stroke-width:1.5;"/>
   </g>
   <g id="line2d_18">
    <path clip-path="url(#pd3f796bbd7)" d="M 112.644395 306.299061 
L 113.3809 252.778105 
L 114.117404 233.663477 
L 116.326917 222.194701 
L 117.799925 222.194701 
L 118.53643 218.371776 
L 120.009438 241.309328 
L 120.745943 245.132254 
L 122.955455 279.538583 
L 123.69196 298.65321 
L 124.428464 321.590763 
L 125.164968 329.236614 
L 125.901473 340.70539 
L 126.637977 348.351241 
L 127.374481 348.351241 
L 128.110986 352.174167 
L 130.320498 352.174167 
L 131.057003 348.351241 
L 131.793507 352.174167 
L 136.949037 352.174167 
L 137.685541 344.528316 
L 138.422046 333.059539 
L 139.15855 310.121987 
L 139.895054 275.715658 
L 141.368063 176.319596 
L 143.577576 153.382043 
L 144.31408 149.559117 
L 147.260097 149.559117 
L 148.733106 157.204968 
L 149.46961 176.319596 
L 150.206115 180.142521 
L 150.942619 176.319596 
L 151.679123 164.850819 
L 152.415627 176.319596 
L 153.152132 214.54885 
L 153.888636 229.840552 
L 156.098149 321.590763 
L 156.834653 336.882465 
L 157.571158 340.70539 
L 158.307662 348.351241 
L 159.044166 352.174167 
L 167.882218 352.174167 
L 169.355226 344.528316 
L 170.091731 333.059539 
L 170.828235 317.767838 
L 174.510756 260.423956 
L 175.247261 252.778105 
L 175.983765 248.955179 
L 176.720269 241.309328 
L 180.402791 222.194701 
L 181.139295 214.54885 
L 181.875799 210.725925 
L 182.612304 214.54885 
L 184.085312 206.902999 
L 184.821817 206.902999 
L 185.558321 214.54885 
L 186.294825 237.486403 
L 187.03133 248.955179 
L 188.504338 298.65321 
L 189.240842 321.590763 
L 189.977347 336.882465 
L 190.713851 348.351241 
L 191.450355 348.351241 
L 192.18686 352.174167 
L 201.761416 352.174167 
L 202.49792 348.351241 
L 203.970928 325.413688 
L 204.707433 310.121987 
L 207.65345 264.246881 
L 209.862963 241.309328 
L 211.335971 233.663477 
L 212.80898 218.371776 
L 213.545484 183.965447 
L 215.018493 183.965447 
L 216.491502 176.319596 
L 217.228006 168.673745 
L 217.96451 191.611297 
L 219.437519 248.955179 
L 220.174023 260.423956 
L 220.910527 279.538583 
L 223.12004 325.413688 
L 223.856545 344.528316 
L 224.593049 352.174167 
L 233.431101 352.174167 
L 234.167605 348.351241 
L 234.904109 333.059539 
L 235.640613 310.121987 
L 236.377118 260.423956 
L 237.113622 199.257148 
L 237.850126 149.559117 
L 238.586631 134.267416 
L 240.059639 126.621565 
L 241.532648 126.621565 
L 244.478665 141.913267 
L 245.215169 141.913267 
L 246.688178 149.559117 
L 247.424682 149.559117 
L 248.161187 153.382043 
L 248.897691 153.382043 
L 249.634195 149.559117 
L 251.843708 237.486403 
L 254.053221 294.830285 
L 255.52623 325.413688 
L 256.262734 336.882465 
L 256.999238 344.528316 
L 258.472247 352.174167 
L 268.046803 352.174167 
L 268.783307 348.351241 
L 269.519811 348.351241 
L 270.256316 340.70539 
L 270.99282 336.882465 
L 271.729324 329.236614 
L 273.202333 321.590763 
L 273.938837 313.944912 
L 275.411846 306.299061 
L 276.14835 298.65321 
L 280.567376 275.715658 
L 281.30388 264.246881 
L 282.040384 268.069807 
L 282.776889 264.246881 
L 283.513393 245.132254 
L 284.249897 287.184434 
L 284.986402 298.65321 
L 285.722906 321.590763 
L 286.45941 336.882465 
L 287.195914 340.70539 
L 287.932419 348.351241 
L 293.087949 348.351241 
L 293.824453 352.174167 
L 298.979983 352.174167 
L 299.716488 348.351241 
L 300.452992 340.70539 
L 302.662505 294.830285 
L 303.399009 283.361508 
L 304.135513 268.069807 
L 307.081531 237.486403 
L 309.291043 226.017627 
L 310.027548 226.017627 
L 310.764052 222.194701 
L 311.500556 222.194701 
L 312.237061 218.371776 
L 314.446574 218.371776 
L 315.183078 214.54885 
L 315.919582 226.017627 
L 316.656086 248.955179 
L 317.392591 260.423956 
L 318.865599 291.007359 
L 319.602104 298.65321 
L 320.338608 310.121987 
L 321.075112 325.413688 
L 322.548121 348.351241 
L 323.284625 352.174167 
L 333.595685 352.174167 
L 334.33219 348.351241 
L 337.278207 287.184434 
L 338.751215 264.246881 
L 340.960728 241.309328 
L 343.170241 229.840552 
L 343.906746 229.840552 
L 346.116258 252.778105 
L 346.852763 248.955179 
L 348.325771 248.955179 
L 349.062276 245.132254 
L 349.79878 237.486403 
L 350.535284 248.955179 
L 351.271789 268.069807 
L 352.008293 294.830285 
L 352.744797 310.121987 
L 353.481301 321.590763 
L 354.217806 336.882465 
L 354.95431 344.528316 
L 356.427319 352.174167 
L 366.738379 352.174167 
L 367.474883 348.351241 
L 368.211387 340.70539 
L 368.947892 321.590763 
L 371.157405 275.715658 
L 371.893909 264.246881 
L 374.103422 241.309328 
L 376.312935 229.840552 
L 377.049439 229.840552 
L 377.785943 233.663477 
L 378.522448 241.309328 
L 379.258952 233.663477 
L 379.995456 222.194701 
L 380.731961 214.54885 
L 381.468465 214.54885 
L 382.204969 206.902999 
L 382.941473 206.902999 
L 383.677978 218.371776 
L 384.414482 241.309328 
L 385.150986 260.423956 
L 387.360499 306.299061 
L 388.833508 329.236614 
L 391.043021 352.174167 
L 391.779525 348.351241 
L 392.516029 352.174167 
L 401.354081 352.174167 
L 402.090585 344.528316 
L 402.82709 333.059539 
L 403.563594 313.944912 
L 404.300098 298.65321 
L 405.036602 287.184434 
L 405.773107 271.892732 
L 406.509611 260.423956 
L 407.98262 245.132254 
L 408.719124 241.309328 
L 409.455628 233.663477 
L 410.928637 226.017627 
L 411.665141 226.017627 
L 412.401645 222.194701 
L 413.874654 222.194701 
L 414.611158 229.840552 
L 416.084167 229.840552 
L 416.820671 226.017627 
L 417.557176 229.840552 
L 421.239697 306.299061 
L 421.976201 317.767838 
L 422.712706 336.882465 
L 423.44921 344.528316 
L 424.922219 352.174167 
L 433.76027 352.174167 
L 435.233279 344.528316 
L 435.969783 333.059539 
L 436.706287 325.413688 
L 437.442792 313.944912 
L 438.9158 298.65321 
L 439.652305 287.184434 
L 440.388809 283.361508 
L 441.125313 271.892732 
L 441.861817 268.069807 
L 442.598322 260.423956 
L 443.334826 248.955179 
L 444.807835 210.725925 
L 445.544339 203.080074 
L 446.280843 206.902999 
L 447.017348 206.902999 
L 447.753852 199.257148 
L 448.490356 199.257148 
L 449.22686 183.965447 
L 450.699869 233.663477 
L 451.436373 248.955179 
L 452.172878 256.60103 
L 452.909382 268.069807 
L 453.645886 283.361508 
L 454.382391 291.007359 
L 455.118895 294.830285 
L 457.328408 340.70539 
L 458.064912 352.174167 
L 466.902964 352.174167 
L 467.639468 348.351241 
L 468.375972 340.70539 
L 470.585485 294.830285 
L 472.794998 260.423956 
L 474.268007 245.132254 
L 475.004511 241.309328 
L 475.741015 233.663477 
L 476.47752 229.840552 
L 477.214024 229.840552 
L 478.687032 222.194701 
L 479.423537 222.194701 
L 480.160041 210.725925 
L 480.896545 210.725925 
L 481.63305 214.54885 
L 483.106058 206.902999 
L 483.842563 206.902999 
L 484.579067 210.725925 
L 486.052075 260.423956 
L 486.78858 279.538583 
L 487.525084 306.299061 
L 488.998093 336.882465 
L 489.734597 344.528316 
L 491.207606 352.174167 
L 493.417118 352.174167 
L 494.153623 348.351241 
L 497.09964 348.351241 
L 497.836144 352.174167 
L 508.883709 352.174167 
L 509.620213 344.528316 
L 509.620213 344.528316 
" style="fill:none;stroke:#2ca02c;stroke-linecap:square;stroke-width:1.5;"/>
   </g>
   <g id="line2d_19">
    <path clip-path="url(#pd3f796bbd7)" d="M 106.717009 233.663477 
L 108.926522 153.382043 
L 109.663026 187.788372 
L 110.39953 245.132254 
L 111.136034 283.361508 
L 111.872539 294.830285 
L 112.609043 313.944912 
L 113.345547 321.590763 
L 114.082052 321.590763 
L 115.55506 329.236614 
L 116.291565 329.236614 
L 117.028069 333.059539 
L 117.764573 333.059539 
L 118.501077 336.882465 
L 119.237582 333.059539 
L 119.974086 333.059539 
L 121.447095 340.70539 
L 122.183599 325.413688 
L 122.920103 313.944912 
L 124.393112 283.361508 
L 125.129616 264.246881 
L 125.86612 252.778105 
L 126.602625 256.60103 
L 127.339129 248.955179 
L 128.812138 241.309328 
L 129.548642 241.309328 
L 130.285146 237.486403 
L 131.758155 237.486403 
L 133.231163 229.840552 
L 133.967668 222.194701 
L 134.704172 226.017627 
L 135.440676 226.017627 
L 136.177181 268.069807 
L 136.913685 283.361508 
L 137.650189 279.538583 
L 139.123198 294.830285 
L 141.332711 329.236614 
L 142.069215 329.236614 
L 142.805719 333.059539 
L 143.542224 333.059539 
L 144.278728 336.882465 
L 147.224745 336.882465 
L 147.961249 340.70539 
L 148.697754 340.70539 
L 149.434258 336.882465 
L 150.907267 336.882465 
L 151.643771 344.528316 
L 152.380275 325.413688 
L 153.11678 294.830285 
L 155.326292 248.955179 
L 156.062797 222.194701 
L 156.799301 214.54885 
L 157.535805 210.725925 
L 158.27231 218.371776 
L 159.008814 206.902999 
L 159.745318 210.725925 
L 161.954831 210.725925 
L 162.691335 203.080074 
L 163.42784 206.902999 
L 164.164344 199.257148 
L 164.900848 206.902999 
L 165.637353 203.080074 
L 166.373857 206.902999 
L 167.110361 203.080074 
L 167.846866 203.080074 
L 168.58337 275.715658 
L 169.319874 283.361508 
L 170.056378 287.184434 
L 170.792883 298.65321 
L 171.529387 302.476136 
L 172.265891 310.121987 
L 173.002396 310.121987 
L 173.7389 317.767838 
L 174.475404 317.767838 
L 175.211909 321.590763 
L 175.948413 321.590763 
L 177.421421 329.236614 
L 178.157926 329.236614 
L 178.89443 333.059539 
L 179.630934 333.059539 
L 180.367439 336.882465 
L 181.103943 336.882465 
L 181.840447 340.70539 
L 182.576952 336.882465 
L 184.04996 344.528316 
L 185.522969 321.590763 
L 186.995977 283.361508 
L 188.468986 252.778105 
L 189.20549 229.840552 
L 189.941995 210.725925 
L 190.678499 199.257148 
L 191.415003 191.611297 
L 192.151507 195.434223 
L 192.888012 191.611297 
L 193.624516 191.611297 
L 194.36102 195.434223 
L 195.097525 203.080074 
L 196.570533 210.725925 
L 197.307038 206.902999 
L 198.780046 214.54885 
L 199.51655 214.54885 
L 200.253055 206.902999 
L 200.989559 203.080074 
L 201.726063 222.194701 
L 202.462568 291.007359 
L 203.199072 279.538583 
L 203.935576 294.830285 
L 204.672081 302.476136 
L 207.618098 317.767838 
L 208.354602 317.767838 
L 210.564115 329.236614 
L 211.300619 329.236614 
L 212.773628 336.882465 
L 215.719645 336.882465 
L 217.192654 344.528316 
L 218.665662 313.944912 
L 221.611679 268.069807 
L 222.348184 248.955179 
L 223.084688 233.663477 
L 223.821192 206.902999 
L 224.557697 203.080074 
L 225.294201 195.434223 
L 226.030705 195.434223 
L 226.76721 199.257148 
L 228.240218 183.965447 
L 228.976722 191.611297 
L 230.449731 199.257148 
L 231.186235 199.257148 
L 231.92274 206.902999 
L 232.659244 206.902999 
L 233.395748 203.080074 
L 234.132253 298.65321 
L 234.868757 226.017627 
L 235.605261 233.663477 
L 237.07827 302.476136 
L 237.814774 325.413688 
L 238.551278 329.236614 
L 239.287783 336.882465 
L 240.024287 336.882465 
L 240.760791 340.70539 
L 242.970304 340.70539 
L 243.706808 336.882465 
L 244.443313 336.882465 
L 245.179817 340.70539 
L 248.862339 340.70539 
L 249.598843 344.528316 
L 250.335347 325.413688 
L 251.071852 294.830285 
L 251.808356 275.715658 
L 252.54486 260.423956 
L 254.754373 226.017627 
L 256.227382 210.725925 
L 256.963886 210.725925 
L 257.70039 203.080074 
L 258.436895 203.080074 
L 259.173399 206.902999 
L 259.909903 199.257148 
L 261.382912 206.902999 
L 262.119416 203.080074 
L 262.85592 210.725925 
L 263.592425 210.725925 
L 264.328929 206.902999 
L 265.801938 206.902999 
L 266.538442 199.257148 
L 267.274946 203.080074 
L 268.01145 298.65321 
L 268.747955 279.538583 
L 269.484459 252.778105 
L 270.220963 237.486403 
L 270.957468 229.840552 
L 273.903485 214.54885 
L 276.112998 214.54885 
L 278.322511 226.017627 
L 280.532024 248.955179 
L 282.005032 256.60103 
L 282.741536 256.60103 
L 283.478041 306.299061 
L 284.214545 245.132254 
L 284.951049 233.663477 
L 286.424058 195.434223 
L 287.160562 187.788372 
L 287.897067 191.611297 
L 288.633571 187.788372 
L 289.370075 191.611297 
L 290.106579 191.611297 
L 290.843084 199.257148 
L 292.316092 199.257148 
L 293.052597 206.902999 
L 293.789101 203.080074 
L 294.525605 210.725925 
L 297.471622 210.725925 
L 298.208127 214.54885 
L 298.944631 210.725925 
L 299.681135 245.132254 
L 300.41764 141.913267 
L 301.154144 180.142521 
L 303.363657 248.955179 
L 304.100161 268.069807 
L 304.836665 283.361508 
L 305.57317 294.830285 
L 306.309674 302.476136 
L 307.046178 313.944912 
L 310.7287 333.059539 
L 311.465204 333.059539 
L 312.201708 336.882465 
L 313.674717 336.882465 
L 314.411221 340.70539 
L 315.147726 340.70539 
L 315.88423 329.236614 
L 316.620734 313.944912 
L 318.830247 279.538583 
L 319.566751 275.715658 
L 320.303256 268.069807 
L 321.03976 256.60103 
L 321.776264 241.309328 
L 322.512769 210.725925 
L 323.249273 206.902999 
L 323.985777 199.257148 
L 324.722282 199.257148 
L 325.458786 195.434223 
L 326.19529 199.257148 
L 326.931794 206.902999 
L 327.668299 199.257148 
L 328.404803 199.257148 
L 329.141307 203.080074 
L 329.877812 203.080074 
L 330.614316 199.257148 
L 331.35082 203.080074 
L 333.560333 203.080074 
L 334.296837 279.538583 
L 335.033342 248.955179 
L 336.50635 279.538583 
L 339.452368 310.121987 
L 340.188872 313.944912 
L 340.925376 321.590763 
L 342.398385 329.236614 
L 343.134889 329.236614 
L 345.344402 340.70539 
L 346.080906 336.882465 
L 346.817411 336.882465 
L 347.553915 340.70539 
L 348.290419 340.70539 
L 349.026923 344.528316 
L 349.763428 340.70539 
L 350.499932 329.236614 
L 351.236436 313.944912 
L 351.972941 302.476136 
L 352.709445 279.538583 
L 353.445949 248.955179 
L 354.182454 229.840552 
L 354.918958 222.194701 
L 355.655462 226.017627 
L 356.391966 218.371776 
L 357.128471 218.371776 
L 357.864975 214.54885 
L 358.601479 214.54885 
L 359.337984 210.725925 
L 360.810992 210.725925 
L 361.547497 203.080074 
L 362.284001 203.080074 
L 363.757009 210.725925 
L 364.493514 210.725925 
L 365.230018 203.080074 
L 366.703027 195.434223 
L 367.439531 233.663477 
L 368.176035 164.850819 
L 368.91254 199.257148 
L 370.385548 248.955179 
L 371.122052 268.069807 
L 372.595061 298.65321 
L 374.06807 313.944912 
L 374.804574 317.767838 
L 375.541078 325.413688 
L 377.750591 336.882465 
L 378.487095 336.882465 
L 379.2236 340.70539 
L 379.960104 340.70539 
L 380.696608 336.882465 
L 381.433113 336.882465 
L 382.169617 340.70539 
L 382.906121 340.70539 
L 383.642626 329.236614 
L 385.852138 271.892732 
L 386.588643 260.423956 
L 388.798156 214.54885 
L 389.53466 203.080074 
L 390.271164 187.788372 
L 391.007669 183.965447 
L 391.744173 183.965447 
L 392.480677 195.434223 
L 393.217181 187.788372 
L 394.69019 187.788372 
L 397.636207 203.080074 
L 398.372712 203.080074 
L 399.84572 210.725925 
L 400.582224 206.902999 
L 401.318729 206.902999 
L 402.055233 260.423956 
L 402.791737 210.725925 
L 405.737755 271.892732 
L 407.947267 306.299061 
L 408.683772 310.121987 
L 409.420276 317.767838 
L 412.366293 333.059539 
L 413.102798 333.059539 
L 413.839302 336.882465 
L 416.048815 336.882465 
L 416.785319 340.70539 
L 417.521823 340.70539 
L 419.731336 294.830285 
L 420.467841 271.892732 
L 421.940849 248.955179 
L 422.677353 229.840552 
L 424.150362 222.194701 
L 424.886866 222.194701 
L 425.623371 229.840552 
L 426.359875 226.017627 
L 427.096379 233.663477 
L 428.569388 233.663477 
L 429.305892 229.840552 
L 430.042396 229.840552 
L 430.778901 218.371776 
L 431.515405 226.017627 
L 432.251909 222.194701 
L 432.988414 229.840552 
L 433.724918 233.663477 
L 434.461422 302.476136 
L 435.197927 275.715658 
L 435.934431 275.715658 
L 444.035978 317.767838 
L 444.772482 325.413688 
L 445.508987 329.236614 
L 447.7185 329.236614 
L 448.455004 333.059539 
L 449.191508 344.528316 
L 450.664517 313.944912 
L 451.401021 306.299061 
L 452.137525 294.830285 
L 453.610534 279.538583 
L 454.347038 275.715658 
L 455.083543 264.246881 
L 455.820047 260.423956 
L 456.556551 248.955179 
L 457.293056 241.309328 
L 458.02956 237.486403 
L 458.766064 237.486403 
L 459.502568 233.663477 
L 460.239073 233.663477 
L 460.975577 229.840552 
L 461.712081 229.840552 
L 462.448586 233.663477 
L 464.658099 233.663477 
L 465.394603 241.309328 
L 466.131107 241.309328 
L 466.867611 237.486403 
L 467.604116 317.767838 
L 468.34062 168.673745 
L 469.813629 206.902999 
L 471.286637 252.778105 
L 472.759646 283.361508 
L 473.49615 294.830285 
L 475.705663 317.767838 
L 478.65168 333.059539 
L 479.388185 333.059539 
L 480.124689 336.882465 
L 482.334202 336.882465 
L 483.070706 344.528316 
L 484.543715 313.944912 
L 485.280219 302.476136 
L 486.016723 283.361508 
L 486.753228 268.069807 
L 488.226236 245.132254 
L 489.699245 237.486403 
L 490.435749 222.194701 
L 491.172253 218.371776 
L 491.908758 218.371776 
L 492.645262 214.54885 
L 493.381766 214.54885 
L 496.327783 229.840552 
L 497.064288 226.017627 
L 498.537296 233.663477 
L 499.273801 233.663477 
L 500.010305 226.017627 
L 500.746809 226.017627 
L 501.483314 222.194701 
L 502.219818 222.194701 
L 502.956322 210.725925 
L 503.692826 210.725925 
L 504.429331 199.257148 
L 505.165835 210.725925 
L 505.902339 199.257148 
L 505.902339 199.257148 
" style="fill:none;stroke:#d62728;stroke-linecap:square;stroke-width:1.5;"/>
   </g>
   <g id="patch_3">
    <path d="M 83.472344 352.174167 
L 83.472344 35.0625 
" style="fill:none;stroke:#000000;stroke-linecap:square;stroke-linejoin:miter;stroke-width:0.8;"/>
   </g>
   <g id="patch_4">
    <path d="M 529.912969 352.174167 
L 529.912969 35.0625 
" style="fill:none;stroke:#000000;stroke-linecap:square;stroke-linejoin:miter;stroke-width:0.8;"/>
   </g>
   <g id="patch_5">
    <path d="M 83.472344 352.174167 
L 529.912969 352.174167 
" style="fill:none;stroke:#000000;stroke-linecap:square;stroke-linejoin:miter;stroke-width:0.8;"/>
   </g>
   <g id="patch_6">
    <path d="M 83.472344 35.0625 
L 529.912969 35.0625 
" style="fill:none;stroke:#000000;stroke-linecap:square;stroke-linejoin:miter;stroke-width:0.8;"/>
   </g>
   <g id="legend_1">
    <g id="patch_7">
     <path d="M 554.235 96.775 
L 625.430312 96.775 
Q 627.430312 96.775 627.430312 94.775 
L 627.430312 37.0625 
Q 627.430312 35.0625 625.430312 35.0625 
L 554.235 35.0625 
Q 552.235 35.0625 552.235 37.0625 
L 552.235 94.775 
Q 552.235 96.775 554.235 96.775 
z
" style="fill:#ffffff;opacity:0.8;stroke:#cccccc;stroke-linejoin:miter;"/>
    </g>
    <g id="line2d_20">
     <path d="M 556.235 43.160937 
L 576.235 43.160937 
" style="fill:none;stroke:#1f77b4;stroke-linecap:square;stroke-width:1.5;"/>
    </g>
    <g id="line2d_21"/>
    <g id="text_17">
     <!-- cubic-pi -->
     <defs>
      <path d="M 4.890625 31.390625 
L 31.203125 31.390625 
L 31.203125 23.390625 
L 4.890625 23.390625 
z
" id="DejaVuSans-45"/>
     </defs>
     <g transform="translate(584.235 46.660937)scale(0.1 -0.1)">
      <use xlink:href="#DejaVuSans-99"/>
      <use x="54.980469" xlink:href="#DejaVuSans-117"/>
      <use x="118.359375" xlink:href="#DejaVuSans-98"/>
      <use x="181.835938" xlink:href="#DejaVuSans-105"/>
      <use x="209.619141" xlink:href="#DejaVuSans-99"/>
      <use x="264.599609" xlink:href="#DejaVuSans-45"/>
      <use x="300.683594" xlink:href="#DejaVuSans-112"/>
      <use x="364.160156" xlink:href="#DejaVuSans-105"/>
     </g>
    </g>
    <g id="line2d_22">
     <path d="M 556.235 57.839063 
L 576.235 57.839063 
" style="fill:none;stroke:#ff7f0e;stroke-linecap:square;stroke-width:1.5;"/>
    </g>
    <g id="line2d_23"/>
    <g id="text_18">
     <!-- bbr-pi -->
     <g transform="translate(584.235 61.339063)scale(0.1 -0.1)">
      <use xlink:href="#DejaVuSans-98"/>
      <use x="63.476562" xlink:href="#DejaVuSans-98"/>
      <use x="126.953125" xlink:href="#DejaVuSans-114"/>
      <use x="167.972656" xlink:href="#DejaVuSans-45"/>
      <use x="204.056641" xlink:href="#DejaVuSans-112"/>
      <use x="267.533203" xlink:href="#DejaVuSans-105"/>
     </g>
    </g>
    <g id="line2d_24">
     <path d="M 556.235 72.517187 
L 576.235 72.517187 
" style="fill:none;stroke:#2ca02c;stroke-linecap:square;stroke-width:1.5;"/>
    </g>
    <g id="line2d_25"/>
    <g id="text_19">
     <!-- cubic-pi -->
     <g transform="translate(584.235 76.017187)scale(0.1 -0.1)">
      <use xlink:href="#DejaVuSans-99"/>
      <use x="54.980469" xlink:href="#DejaVuSans-117"/>
      <use x="118.359375" xlink:href="#DejaVuSans-98"/>
      <use x="181.835938" xlink:href="#DejaVuSans-105"/>
      <use x="209.619141" xlink:href="#DejaVuSans-99"/>
      <use x="264.599609" xlink:href="#DejaVuSans-45"/>
      <use x="300.683594" xlink:href="#DejaVuSans-112"/>
      <use x="364.160156" xlink:href="#DejaVuSans-105"/>
     </g>
    </g>
    <g id="line2d_26">
     <path d="M 556.235 87.195312 
L 576.235 87.195312 
" style="fill:none;stroke:#d62728;stroke-linecap:square;stroke-width:1.5;"/>
    </g>
    <g id="line2d_27"/>
    <g id="text_20">
     <!-- bbr-pi -->
     <g transform="translate(584.235 90.695312)scale(0.1 -0.1)">
      <use xlink:href="#DejaVuSans-98"/>
      <use x="63.476562" xlink:href="#DejaVuSans-98"/>
      <use x="126.953125" xlink:href="#DejaVuSans-114"/>
      <use x="167.972656" xlink:href="#DejaVuSans-45"/>
      <use x="204.056641" xlink:href="#DejaVuSans-112"/>
      <use x="267.533203" xlink:href="#DejaVuSans-105"/>
     </g>
    </g>
   </g>
  </g>
  <g id="text_21">
   <!-- result throughput -->
   <defs>
    <path d="M 9.421875 75.984375 
L 18.40625 75.984375 
L 18.40625 0 
L 9.421875 0 
z
" id="DejaVuSans-108"/>
   </defs>
   <g transform="translate(289.320938 17.038125)scale(0.12 -0.12)">
    <use xlink:href="#DejaVuSans-114"/>
    <use x="41.082031" xlink:href="#DejaVuSans-101"/>
    <use x="102.605469" xlink:href="#DejaVuSans-115"/>
    <use x="154.705078" xlink:href="#DejaVuSans-117"/>
    <use x="218.083984" xlink:href="#DejaVuSans-108"/>
    <use x="245.867188" xlink:href="#DejaVuSans-116"/>
    <use x="285.076172" xlink:href="#DejaVuSans-32"/>
    <use x="316.863281" xlink:href="#DejaVuSans-116"/>
    <use x="356.072266" xlink:href="#DejaVuSans-104"/>
    <use x="419.451172" xlink:href="#DejaVuSans-114"/>
    <use x="460.533203" xlink:href="#DejaVuSans-111"/>
    <use x="521.714844" xlink:href="#DejaVuSans-117"/>
    <use x="585.09375" xlink:href="#DejaVuSans-103"/>
    <use x="648.570312" xlink:href="#DejaVuSans-104"/>
    <use x="711.949219" xlink:href="#DejaVuSans-112"/>
    <use x="775.425781" xlink:href="#DejaVuSans-117"/>
    <use x="838.804688" xlink:href="#DejaVuSans-116"/>
   </g>
  </g>
 </g>
 <defs>
  <clipPath id="pd3f796bbd7">
   <rect height="317.111667" width="446.440625" x="83.472344" y="35.0625"/>
  </clipPath>
 </defs>
</svg>
