<?xml version="1.0" encoding="utf-8" standalone="no"?>
<!DOCTYPE svg PUBLIC "-//W3C//DTD SVG 1.1//EN"
  "http://www.w3.org/Graphics/SVG/1.1/DTD/svg11.dtd">
<!-- Created with matplotlib (https://matplotlib.org/) -->
<svg height="396pt" version="1.1" viewBox="0 0 684 396" width="684pt" xmlns="http://www.w3.org/2000/svg" xmlns:xlink="http://www.w3.org/1999/xlink">
 <defs>
  <style type="text/css">
*{stroke-linecap:butt;stroke-linejoin:round;}
  </style>
 </defs>
 <g id="figure_1">
  <g id="patch_1">
   <path d="M 0 396 
L 684 396 
L 684 0 
L 0 0 
z
" style="fill:#ffffff;"/>
  </g>
  <g id="axes_1">
   <g id="patch_2">
    <path d="M 92.823906 352.174167 
L 529.912969 352.174167 
L 529.912969 35.0625 
L 92.823906 35.0625 
z
" style="fill:#ffffff;"/>
   </g>
   <g id="matplotlib.axis_1">
    <g id="xtick_1">
     <g id="line2d_1">
      <defs>
       <path d="M 0 0 
L 0 3.5 
" id="m5181785582" style="stroke:#000000;stroke-width:0.8;"/>
      </defs>
      <g>
       <use style="stroke:#000000;stroke-width:0.8;" x="112.691591" xlink:href="#m5181785582" y="352.174167"/>
      </g>
     </g>
     <g id="text_1">
      <!-- 0 -->
      <defs>
       <path d="M 31.78125 66.40625 
Q 24.171875 66.40625 20.328125 58.90625 
Q 16.5 51.421875 16.5 36.375 
Q 16.5 21.390625 20.328125 13.890625 
Q 24.171875 6.390625 31.78125 6.390625 
Q 39.453125 6.390625 43.28125 13.890625 
Q 47.125 21.390625 47.125 36.375 
Q 47.125 51.421875 43.28125 58.90625 
Q 39.453125 66.40625 31.78125 66.40625 
z
M 31.78125 74.21875 
Q 44.046875 74.21875 50.515625 64.515625 
Q 56.984375 54.828125 56.984375 36.375 
Q 56.984375 17.96875 50.515625 8.265625 
Q 44.046875 -1.421875 31.78125 -1.421875 
Q 19.53125 -1.421875 13.0625 8.265625 
Q 6.59375 17.96875 6.59375 36.375 
Q 6.59375 54.828125 13.0625 64.515625 
Q 19.53125 74.21875 31.78125 74.21875 
z
" id="DejaVuSans-48"/>
      </defs>
      <g transform="translate(109.510341 366.772604)scale(0.1 -0.1)">
       <use xlink:href="#DejaVuSans-48"/>
      </g>
     </g>
    </g>
    <g id="xtick_2">
     <g id="line2d_2">
      <g>
       <use style="stroke:#000000;stroke-width:0.8;" x="184.829903" xlink:href="#m5181785582" y="352.174167"/>
      </g>
     </g>
     <g id="text_2">
      <!-- 50 -->
      <defs>
       <path d="M 10.796875 72.90625 
L 49.515625 72.90625 
L 49.515625 64.59375 
L 19.828125 64.59375 
L 19.828125 46.734375 
Q 21.96875 47.46875 24.109375 47.828125 
Q 26.265625 48.1875 28.421875 48.1875 
Q 40.625 48.1875 47.75 41.5 
Q 54.890625 34.8125 54.890625 23.390625 
Q 54.890625 11.625 47.5625 5.09375 
Q 40.234375 -1.421875 26.90625 -1.421875 
Q 22.3125 -1.421875 17.546875 -0.640625 
Q 12.796875 0.140625 7.71875 1.703125 
L 7.71875 11.625 
Q 12.109375 9.234375 16.796875 8.0625 
Q 21.484375 6.890625 26.703125 6.890625 
Q 35.15625 6.890625 40.078125 11.328125 
Q 45.015625 15.765625 45.015625 23.390625 
Q 45.015625 31 40.078125 35.4375 
Q 35.15625 39.890625 26.703125 39.890625 
Q 22.75 39.890625 18.8125 39.015625 
Q 14.890625 38.140625 10.796875 36.28125 
z
" id="DejaVuSans-53"/>
      </defs>
      <g transform="translate(178.467403 366.772604)scale(0.1 -0.1)">
       <use xlink:href="#DejaVuSans-53"/>
       <use x="63.623047" xlink:href="#DejaVuSans-48"/>
      </g>
     </g>
    </g>
    <g id="xtick_3">
     <g id="line2d_3">
      <g>
       <use style="stroke:#000000;stroke-width:0.8;" x="256.968215" xlink:href="#m5181785582" y="352.174167"/>
      </g>
     </g>
     <g id="text_3">
      <!-- 100 -->
      <defs>
       <path d="M 12.40625 8.296875 
L 28.515625 8.296875 
L 28.515625 63.921875 
L 10.984375 60.40625 
L 10.984375 69.390625 
L 28.421875 72.90625 
L 38.28125 72.90625 
L 38.28125 8.296875 
L 54.390625 8.296875 
L 54.390625 0 
L 12.40625 0 
z
" id="DejaVuSans-49"/>
      </defs>
      <g transform="translate(247.424465 366.772604)scale(0.1 -0.1)">
       <use xlink:href="#DejaVuSans-49"/>
       <use x="63.623047" xlink:href="#DejaVuSans-48"/>
       <use x="127.246094" xlink:href="#DejaVuSans-48"/>
      </g>
     </g>
    </g>
    <g id="xtick_4">
     <g id="line2d_4">
      <g>
       <use style="stroke:#000000;stroke-width:0.8;" x="329.106527" xlink:href="#m5181785582" y="352.174167"/>
      </g>
     </g>
     <g id="text_4">
      <!-- 150 -->
      <g transform="translate(319.562777 366.772604)scale(0.1 -0.1)">
       <use xlink:href="#DejaVuSans-49"/>
       <use x="63.623047" xlink:href="#DejaVuSans-53"/>
       <use x="127.246094" xlink:href="#DejaVuSans-48"/>
      </g>
     </g>
    </g>
    <g id="xtick_5">
     <g id="line2d_5">
      <g>
       <use style="stroke:#000000;stroke-width:0.8;" x="401.244839" xlink:href="#m5181785582" y="352.174167"/>
      </g>
     </g>
     <g id="text_5">
      <!-- 200 -->
      <defs>
       <path d="M 19.1875 8.296875 
L 53.609375 8.296875 
L 53.609375 0 
L 7.328125 0 
L 7.328125 8.296875 
Q 12.9375 14.109375 22.625 23.890625 
Q 32.328125 33.6875 34.8125 36.53125 
Q 39.546875 41.84375 41.421875 45.53125 
Q 43.3125 49.21875 43.3125 52.78125 
Q 43.3125 58.59375 39.234375 62.25 
Q 35.15625 65.921875 28.609375 65.921875 
Q 23.96875 65.921875 18.8125 64.3125 
Q 13.671875 62.703125 7.8125 59.421875 
L 7.8125 69.390625 
Q 13.765625 71.78125 18.9375 73 
Q 24.125 74.21875 28.421875 74.21875 
Q 39.75 74.21875 46.484375 68.546875 
Q 53.21875 62.890625 53.21875 53.421875 
Q 53.21875 48.921875 51.53125 44.890625 
Q 49.859375 40.875 45.40625 35.40625 
Q 44.1875 33.984375 37.640625 27.21875 
Q 31.109375 20.453125 19.1875 8.296875 
z
" id="DejaVuSans-50"/>
      </defs>
      <g transform="translate(391.701089 366.772604)scale(0.1 -0.1)">
       <use xlink:href="#DejaVuSans-50"/>
       <use x="63.623047" xlink:href="#DejaVuSans-48"/>
       <use x="127.246094" xlink:href="#DejaVuSans-48"/>
      </g>
     </g>
    </g>
    <g id="xtick_6">
     <g id="line2d_6">
      <g>
       <use style="stroke:#000000;stroke-width:0.8;" x="473.383151" xlink:href="#m5181785582" y="352.174167"/>
      </g>
     </g>
     <g id="text_6">
      <!-- 250 -->
      <g transform="translate(463.839401 366.772604)scale(0.1 -0.1)">
       <use xlink:href="#DejaVuSans-50"/>
       <use x="63.623047" xlink:href="#DejaVuSans-53"/>
       <use x="127.246094" xlink:href="#DejaVuSans-48"/>
      </g>
     </g>
    </g>
   </g>
   <g id="matplotlib.axis_2">
    <g id="ytick_1">
     <g id="line2d_7">
      <defs>
       <path d="M 0 0 
L -3.5 0 
" id="mdd6e5dd07d" style="stroke:#000000;stroke-width:0.8;"/>
      </defs>
      <g>
       <use style="stroke:#000000;stroke-width:0.8;" x="92.823906" xlink:href="#mdd6e5dd07d" y="352.174167"/>
      </g>
     </g>
     <g id="text_7">
      <!-- 0 -->
      <g transform="translate(79.461406 355.973385)scale(0.1 -0.1)">
       <use xlink:href="#DejaVuSans-48"/>
      </g>
     </g>
    </g>
    <g id="ytick_2">
     <g id="line2d_8">
      <g>
       <use style="stroke:#000000;stroke-width:0.8;" x="92.823906" xlink:href="#mdd6e5dd07d" y="310.116916"/>
      </g>
     </g>
     <g id="text_8">
      <!-- 50 -->
      <g transform="translate(73.098906 313.916135)scale(0.1 -0.1)">
       <use xlink:href="#DejaVuSans-53"/>
       <use x="63.623047" xlink:href="#DejaVuSans-48"/>
      </g>
     </g>
    </g>
    <g id="ytick_3">
     <g id="line2d_9">
      <g>
       <use style="stroke:#000000;stroke-width:0.8;" x="92.823906" xlink:href="#mdd6e5dd07d" y="268.059666"/>
      </g>
     </g>
     <g id="text_9">
      <!-- 100 -->
      <g transform="translate(66.736406 271.858885)scale(0.1 -0.1)">
       <use xlink:href="#DejaVuSans-49"/>
       <use x="63.623047" xlink:href="#DejaVuSans-48"/>
       <use x="127.246094" xlink:href="#DejaVuSans-48"/>
      </g>
     </g>
    </g>
    <g id="ytick_4">
     <g id="line2d_10">
      <g>
       <use style="stroke:#000000;stroke-width:0.8;" x="92.823906" xlink:href="#mdd6e5dd07d" y="226.002416"/>
      </g>
     </g>
     <g id="text_10">
      <!-- 150 -->
      <g transform="translate(66.736406 229.801635)scale(0.1 -0.1)">
       <use xlink:href="#DejaVuSans-49"/>
       <use x="63.623047" xlink:href="#DejaVuSans-53"/>
       <use x="127.246094" xlink:href="#DejaVuSans-48"/>
      </g>
     </g>
    </g>
    <g id="ytick_5">
     <g id="line2d_11">
      <g>
       <use style="stroke:#000000;stroke-width:0.8;" x="92.823906" xlink:href="#mdd6e5dd07d" y="183.945166"/>
      </g>
     </g>
     <g id="text_11">
      <!-- 200 -->
      <g transform="translate(66.736406 187.744385)scale(0.1 -0.1)">
       <use xlink:href="#DejaVuSans-50"/>
       <use x="63.623047" xlink:href="#DejaVuSans-48"/>
       <use x="127.246094" xlink:href="#DejaVuSans-48"/>
      </g>
     </g>
    </g>
    <g id="ytick_6">
     <g id="line2d_12">
      <g>
       <use style="stroke:#000000;stroke-width:0.8;" x="92.823906" xlink:href="#mdd6e5dd07d" y="141.887916"/>
      </g>
     </g>
     <g id="text_12">
      <!-- 250 -->
      <g transform="translate(66.736406 145.687134)scale(0.1 -0.1)">
       <use xlink:href="#DejaVuSans-50"/>
       <use x="63.623047" xlink:href="#DejaVuSans-53"/>
       <use x="127.246094" xlink:href="#DejaVuSans-48"/>
      </g>
     </g>
    </g>
    <g id="ytick_7">
     <g id="line2d_13">
      <g>
       <use style="stroke:#000000;stroke-width:0.8;" x="92.823906" xlink:href="#mdd6e5dd07d" y="99.830665"/>
      </g>
     </g>
     <g id="text_13">
      <!-- 300 -->
      <defs>
       <path d="M 40.578125 39.3125 
Q 47.65625 37.796875 51.625 33 
Q 55.609375 28.21875 55.609375 21.1875 
Q 55.609375 10.40625 48.1875 4.484375 
Q 40.765625 -1.421875 27.09375 -1.421875 
Q 22.515625 -1.421875 17.65625 -0.515625 
Q 12.796875 0.390625 7.625 2.203125 
L 7.625 11.71875 
Q 11.71875 9.328125 16.59375 8.109375 
Q 21.484375 6.890625 26.8125 6.890625 
Q 36.078125 6.890625 40.9375 10.546875 
Q 45.796875 14.203125 45.796875 21.1875 
Q 45.796875 27.640625 41.28125 31.265625 
Q 36.765625 34.90625 28.71875 34.90625 
L 20.21875 34.90625 
L 20.21875 43.015625 
L 29.109375 43.015625 
Q 36.375 43.015625 40.234375 45.921875 
Q 44.09375 48.828125 44.09375 54.296875 
Q 44.09375 59.90625 40.109375 62.90625 
Q 36.140625 65.921875 28.71875 65.921875 
Q 24.65625 65.921875 20.015625 65.03125 
Q 15.375 64.15625 9.8125 62.3125 
L 9.8125 71.09375 
Q 15.4375 72.65625 20.34375 73.4375 
Q 25.25 74.21875 29.59375 74.21875 
Q 40.828125 74.21875 47.359375 69.109375 
Q 53.90625 64.015625 53.90625 55.328125 
Q 53.90625 49.265625 50.4375 45.09375 
Q 46.96875 40.921875 40.578125 39.3125 
z
" id="DejaVuSans-51"/>
      </defs>
      <g transform="translate(66.736406 103.629884)scale(0.1 -0.1)">
       <use xlink:href="#DejaVuSans-51"/>
       <use x="63.623047" xlink:href="#DejaVuSans-48"/>
       <use x="127.246094" xlink:href="#DejaVuSans-48"/>
      </g>
     </g>
    </g>
    <g id="ytick_8">
     <g id="line2d_14">
      <g>
       <use style="stroke:#000000;stroke-width:0.8;" x="92.823906" xlink:href="#mdd6e5dd07d" y="57.773415"/>
      </g>
     </g>
     <g id="text_14">
      <!-- 350 -->
      <g transform="translate(66.736406 61.572634)scale(0.1 -0.1)">
       <use xlink:href="#DejaVuSans-51"/>
       <use x="63.623047" xlink:href="#DejaVuSans-53"/>
       <use x="127.246094" xlink:href="#DejaVuSans-48"/>
      </g>
     </g>
    </g>
    <g id="text_15">
     <!-- rtt -->
     <defs>
      <path d="M 41.109375 46.296875 
Q 39.59375 47.171875 37.8125 47.578125 
Q 36.03125 48 33.890625 48 
Q 26.265625 48 22.1875 43.046875 
Q 18.109375 38.09375 18.109375 28.8125 
L 18.109375 0 
L 9.078125 0 
L 9.078125 54.6875 
L 18.109375 54.6875 
L 18.109375 46.1875 
Q 20.953125 51.171875 25.484375 53.578125 
Q 30.03125 56 36.53125 56 
Q 37.453125 56 38.578125 55.875 
Q 39.703125 55.765625 41.0625 55.515625 
z
" id="DejaVuSans-114"/>
      <path d="M 18.3125 70.21875 
L 18.3125 54.6875 
L 36.8125 54.6875 
L 36.8125 47.703125 
L 18.3125 47.703125 
L 18.3125 18.015625 
Q 18.3125 11.328125 20.140625 9.421875 
Q 21.96875 7.515625 27.59375 7.515625 
L 36.8125 7.515625 
L 36.8125 0 
L 27.59375 0 
Q 17.1875 0 13.234375 3.875 
Q 9.28125 7.765625 9.28125 18.015625 
L 9.28125 47.703125 
L 2.6875 47.703125 
L 2.6875 54.6875 
L 9.28125 54.6875 
L 9.28125 70.21875 
z
" id="DejaVuSans-116"/>
     </defs>
     <g transform="translate(49.458906 199.594115)rotate(-90)scale(0.1 -0.1)">
      <use xlink:href="#DejaVuSans-114"/>
      <use x="41.113281" xlink:href="#DejaVuSans-116"/>
      <use x="80.322266" xlink:href="#DejaVuSans-116"/>
     </g>
     <!-- (ms) -->
     <defs>
      <path d="M 31 75.875 
Q 24.46875 64.65625 21.28125 53.65625 
Q 18.109375 42.671875 18.109375 31.390625 
Q 18.109375 20.125 21.3125 9.0625 
Q 24.515625 -2 31 -13.1875 
L 23.1875 -13.1875 
Q 15.875 -1.703125 12.234375 9.375 
Q 8.59375 20.453125 8.59375 31.390625 
Q 8.59375 42.28125 12.203125 53.3125 
Q 15.828125 64.359375 23.1875 75.875 
z
" id="DejaVuSans-40"/>
      <path d="M 52 44.1875 
Q 55.375 50.25 60.0625 53.125 
Q 64.75 56 71.09375 56 
Q 79.640625 56 84.28125 50.015625 
Q 88.921875 44.046875 88.921875 33.015625 
L 88.921875 0 
L 79.890625 0 
L 79.890625 32.71875 
Q 79.890625 40.578125 77.09375 44.375 
Q 74.3125 48.1875 68.609375 48.1875 
Q 61.625 48.1875 57.5625 43.546875 
Q 53.515625 38.921875 53.515625 30.90625 
L 53.515625 0 
L 44.484375 0 
L 44.484375 32.71875 
Q 44.484375 40.625 41.703125 44.40625 
Q 38.921875 48.1875 33.109375 48.1875 
Q 26.21875 48.1875 22.15625 43.53125 
Q 18.109375 38.875 18.109375 30.90625 
L 18.109375 0 
L 9.078125 0 
L 9.078125 54.6875 
L 18.109375 54.6875 
L 18.109375 46.1875 
Q 21.1875 51.21875 25.484375 53.609375 
Q 29.78125 56 35.6875 56 
Q 41.65625 56 45.828125 52.96875 
Q 50 49.953125 52 44.1875 
z
" id="DejaVuSans-109"/>
      <path d="M 44.28125 53.078125 
L 44.28125 44.578125 
Q 40.484375 46.53125 36.375 47.5 
Q 32.28125 48.484375 27.875 48.484375 
Q 21.1875 48.484375 17.84375 46.4375 
Q 14.5 44.390625 14.5 40.28125 
Q 14.5 37.15625 16.890625 35.375 
Q 19.28125 33.59375 26.515625 31.984375 
L 29.59375 31.296875 
Q 39.15625 29.25 43.1875 25.515625 
Q 47.21875 21.78125 47.21875 15.09375 
Q 47.21875 7.46875 41.1875 3.015625 
Q 35.15625 -1.421875 24.609375 -1.421875 
Q 20.21875 -1.421875 15.453125 -0.5625 
Q 10.6875 0.296875 5.421875 2 
L 5.421875 11.28125 
Q 10.40625 8.6875 15.234375 7.390625 
Q 20.0625 6.109375 24.8125 6.109375 
Q 31.15625 6.109375 34.5625 8.28125 
Q 37.984375 10.453125 37.984375 14.40625 
Q 37.984375 18.0625 35.515625 20.015625 
Q 33.0625 21.96875 24.703125 23.78125 
L 21.578125 24.515625 
Q 13.234375 26.265625 9.515625 29.90625 
Q 5.8125 33.546875 5.8125 39.890625 
Q 5.8125 47.609375 11.28125 51.796875 
Q 16.75 56 26.8125 56 
Q 31.78125 56 36.171875 55.265625 
Q 40.578125 54.546875 44.28125 53.078125 
z
" id="DejaVuSans-115"/>
      <path d="M 8.015625 75.875 
L 15.828125 75.875 
Q 23.140625 64.359375 26.78125 53.3125 
Q 30.421875 42.28125 30.421875 31.390625 
Q 30.421875 20.453125 26.78125 9.375 
Q 23.140625 -1.703125 15.828125 -13.1875 
L 8.015625 -13.1875 
Q 14.5 -2 17.703125 9.0625 
Q 20.90625 20.125 20.90625 31.390625 
Q 20.90625 42.671875 17.703125 53.65625 
Q 14.5 64.65625 8.015625 75.875 
z
" id="DejaVuSans-41"/>
     </defs>
     <g transform="translate(60.656719 204.994896)rotate(-90)scale(0.1 -0.1)">
      <use xlink:href="#DejaVuSans-40"/>
      <use x="39.013672" xlink:href="#DejaVuSans-109"/>
      <use x="136.425781" xlink:href="#DejaVuSans-115"/>
      <use x="188.525391" xlink:href="#DejaVuSans-41"/>
     </g>
    </g>
   </g>
   <g id="line2d_15">
    <path clip-path="url(#pe8f44107d1)" d="M 121.219782 295.817451 
L 121.941165 281.517986 
L 122.662548 301.705466 
L 125.548081 301.705466 
L 126.269464 302.546611 
L 126.990847 308.434626 
L 127.71223 300.023176 
L 128.433613 297.499741 
L 129.154996 294.135161 
L 129.87638 297.499741 
L 130.597763 285.723711 
L 131.319146 289.088291 
L 132.040529 296.658596 
L 132.761912 290.770581 
L 133.483295 289.088291 
L 134.204678 295.817451 
L 135.647445 284.882566 
L 136.368828 275.629971 
L 137.090211 286.564856 
L 137.811594 291.611726 
L 138.532977 289.088291 
L 139.25436 289.929436 
L 139.975743 289.929436 
L 140.697126 262.171651 
L 141.41851 283.200276 
L 142.139893 309.275771 
L 142.861276 300.864321 
L 143.582659 300.023176 
L 144.304042 306.752336 
L 145.025425 307.593481 
L 146.468191 307.593481 
L 147.189574 306.752336 
L 147.910958 306.752336 
L 148.632341 305.911191 
L 151.517873 305.911191 
L 152.239256 303.387756 
L 152.960639 301.705466 
L 154.403406 294.976306 
L 155.124789 284.882566 
L 155.846172 301.705466 
L 156.567555 310.116916 
L 157.288938 295.817451 
L 158.010321 305.070046 
L 158.731704 296.658596 
L 159.453088 291.611726 
L 160.174471 297.499741 
L 160.895854 290.770581 
L 161.617237 289.088291 
L 162.33862 284.041421 
L 163.060003 304.228901 
L 163.781386 282.359131 
L 164.502769 290.770581 
L 165.224153 287.406001 
L 165.945536 299.182031 
L 166.666919 293.294016 
L 167.388302 292.452871 
L 168.109685 290.770581 
L 168.831068 288.247146 
L 169.552451 273.947681 
L 170.273834 289.929436 
L 170.995217 297.499741 
L 171.716601 335.351267 
L 172.437984 306.752336 
L 173.159367 305.070046 
L 173.88075 308.434626 
L 178.930432 308.434626 
L 179.651815 307.593481 
L 180.373198 307.593481 
L 181.094581 306.752336 
L 181.815964 304.228901 
L 182.537347 300.864321 
L 183.980114 292.452871 
L 184.701497 291.611726 
L 185.42288 300.023176 
L 186.144263 299.182031 
L 186.865646 304.228901 
L 187.587029 287.406001 
L 188.308412 299.182031 
L 189.029795 283.200276 
L 190.472562 295.817451 
L 191.915328 279.835696 
L 192.636711 288.247146 
L 193.358094 289.088291 
L 194.079477 287.406001 
L 194.80086 270.583101 
L 195.522244 278.153406 
L 196.243627 299.182031 
L 196.96501 247.872186 
L 197.686393 300.864321 
L 198.407776 282.359131 
L 199.129159 289.929436 
L 199.850542 285.723711 
L 200.571925 224.320126 
L 201.293309 323.575237 
L 202.014692 312.640351 
L 202.736075 305.911191 
L 203.457458 308.434626 
L 204.178841 306.752336 
L 205.621607 306.752336 
L 206.34299 305.911191 
L 207.064373 306.752336 
L 208.50714 305.070046 
L 209.228523 305.911191 
L 209.949906 305.911191 
L 210.671289 305.070046 
L 212.835438 294.976306 
L 213.556822 283.200276 
L 214.278205 302.546611 
L 214.999588 300.023176 
L 215.720971 298.340886 
L 216.442354 308.434626 
L 217.163737 287.406001 
L 217.88512 304.228901 
L 218.606503 289.088291 
L 219.327887 304.228901 
L 220.04927 296.658596 
L 220.770653 294.976306 
L 221.492036 289.088291 
L 222.213419 285.723711 
L 223.656185 285.723711 
L 224.377568 280.676841 
L 225.098952 285.723711 
L 225.820335 295.817451 
L 226.541718 273.947681 
L 227.263101 288.247146 
L 227.984484 247.031041 
L 228.705867 300.023176 
L 229.42725 249.554476 
L 230.148633 295.817451 
L 230.870016 294.976306 
L 231.5914 321.051802 
L 232.312783 289.929436 
L 233.034166 300.864321 
L 233.755549 302.546611 
L 234.476932 307.593481 
L 235.919698 307.593481 
L 236.641081 306.752336 
L 238.805231 306.752336 
L 239.526614 305.911191 
L 240.247997 306.752336 
L 241.690763 305.070046 
L 242.412146 305.070046 
L 243.13353 303.387756 
L 243.854913 300.864321 
L 244.576296 296.658596 
L 245.297679 293.294016 
L 246.019062 305.911191 
L 246.740445 303.387756 
L 247.461828 294.976306 
L 248.183211 298.340886 
L 248.904594 290.770581 
L 249.625978 302.546611 
L 250.347361 289.088291 
L 251.068744 291.611726 
L 251.790127 301.705466 
L 252.51151 290.770581 
L 253.232893 293.294016 
L 253.954276 300.023176 
L 254.675659 292.452871 
L 255.397043 300.023176 
L 256.118426 293.294016 
L 256.839809 300.023176 
L 257.561192 294.135161 
L 258.282575 298.340886 
L 259.003958 298.340886 
L 259.725341 299.182031 
L 260.446724 295.817451 
L 261.168108 322.734092 
L 261.889491 302.546611 
L 262.610874 305.070046 
L 263.332257 305.911191 
L 267.660556 305.911191 
L 268.381939 305.070046 
L 270.546088 305.070046 
L 271.988854 303.387756 
L 272.710237 300.864321 
L 274.153004 292.452871 
L 274.874387 290.770581 
L 275.59577 307.593481 
L 276.317153 298.340886 
L 277.038536 292.452871 
L 277.759919 303.387756 
L 278.481302 294.976306 
L 279.202686 290.770581 
L 279.924069 288.247146 
L 280.645452 289.929436 
L 281.366835 286.564856 
L 282.088218 289.088291 
L 282.809601 287.406001 
L 283.530984 273.947681 
L 284.252367 288.247146 
L 284.973751 298.340886 
L 285.695134 288.247146 
L 286.416517 284.882566 
L 287.1379 187.309746 
L 287.859283 281.517986 
L 288.580666 271.424246 
L 289.302049 295.817451 
L 290.023432 285.723711 
L 290.744815 323.575237 
L 291.466199 309.275771 
L 292.187582 310.958061 
L 292.908965 309.275771 
L 293.630348 308.434626 
L 294.351731 308.434626 
L 295.073114 309.275771 
L 295.794497 307.593481 
L 296.51588 306.752336 
L 297.237264 306.752336 
L 297.958647 307.593481 
L 298.68003 307.593481 
L 299.401413 306.752336 
L 300.844179 306.752336 
L 301.565562 304.228901 
L 302.286945 300.023176 
L 303.729712 293.294016 
L 304.451095 294.976306 
L 305.172478 289.929436 
L 305.893861 309.275771 
L 306.615244 296.658596 
L 307.336627 292.452871 
L 308.05801 295.817451 
L 308.779393 302.546611 
L 309.500777 295.817451 
L 310.22216 293.294016 
L 311.664926 291.611726 
L 313.829075 291.611726 
L 314.550458 290.770581 
L 315.271842 300.864321 
L 316.714608 286.564856 
L 317.435991 295.817451 
L 318.157374 293.294016 
L 318.878757 292.452871 
L 319.60014 292.452871 
L 320.321523 311.799206 
L 321.042907 297.499741 
L 321.76429 295.817451 
L 323.207056 294.135161 
L 324.649822 294.135161 
L 325.371205 293.294016 
L 326.813971 293.294016 
L 328.256738 291.611726 
L 328.978121 295.817451 
L 329.699504 294.135161 
L 330.420887 293.294016 
L 331.14227 293.294016 
L 331.863653 289.929436 
L 332.585036 296.658596 
L 333.30642 294.135161 
L 334.027803 292.452871 
L 334.749186 291.611726 
L 335.470569 298.340886 
L 336.191952 298.340886 
L 336.913335 292.452871 
L 337.634718 297.499741 
L 338.356101 286.564856 
L 339.077485 303.387756 
L 339.798868 284.882566 
L 340.520251 299.182031 
L 341.241634 293.294016 
L 341.963017 293.294016 
L 342.6844 301.705466 
L 343.405783 298.340886 
L 344.127166 300.864321 
L 344.84855 292.452871 
L 345.569933 303.387756 
L 346.291316 293.294016 
L 347.012699 289.929436 
L 347.734082 298.340886 
L 348.455465 286.564856 
L 349.176848 285.723711 
L 349.898231 313.481496 
L 350.619614 319.369511 
L 351.340998 306.752336 
L 352.062381 307.593481 
L 352.783764 306.752336 
L 353.505147 307.593481 
L 354.22653 306.752336 
L 356.390679 306.752336 
L 357.112063 305.911191 
L 360.718978 305.911191 
L 361.440361 302.546611 
L 362.883128 294.135161 
L 363.604511 288.247146 
L 364.325894 301.705466 
L 365.047277 309.275771 
L 365.76866 289.088291 
L 366.490043 298.340886 
L 367.211426 297.499741 
L 367.932809 292.452871 
L 368.654192 296.658596 
L 369.375576 290.770581 
L 370.096959 290.770581 
L 370.818342 289.088291 
L 371.539725 292.452871 
L 372.261108 282.359131 
L 372.982491 275.629971 
L 373.703874 289.088291 
L 374.425257 294.976306 
L 375.146641 288.247146 
L 375.868024 283.200276 
L 376.589407 304.228901 
L 377.31079 287.406001 
L 378.032173 289.929436 
L 378.753556 308.434626 
L 379.474939 310.958061 
L 380.196322 326.939817 
L 380.917706 308.434626 
L 381.639089 309.275771 
L 382.360472 308.434626 
L 385.246004 308.434626 
L 385.967387 307.593481 
L 388.131537 307.593481 
L 389.574303 305.911191 
L 390.295686 304.228901 
L 391.017069 300.864321 
L 391.738452 296.658596 
L 392.459835 293.294016 
L 393.181219 290.770581 
L 394.623985 309.275771 
L 395.345368 289.929436 
L 396.066751 302.546611 
L 396.788134 294.135161 
L 397.509517 290.770581 
L 398.2309 293.294016 
L 398.952284 285.723711 
L 399.673667 284.882566 
L 400.39505 287.406001 
L 401.116433 277.312261 
L 401.837816 288.247146 
L 402.559199 279.835696 
L 403.280582 285.723711 
L 404.001965 281.517986 
L 404.723349 275.629971 
L 405.444732 285.723711 
L 406.166115 276.471116 
L 406.887498 287.406001 
L 407.608881 283.200276 
L 408.330264 273.106536 
L 409.051647 282.359131 
L 409.77303 325.257527 
L 410.494413 307.593481 
L 411.215797 311.799206 
L 411.93718 310.116916 
L 412.658563 309.275771 
L 413.379946 309.275771 
L 414.101329 308.434626 
L 416.265478 308.434626 
L 416.986862 307.593481 
L 418.429628 307.593481 
L 419.151011 306.752336 
L 419.872394 302.546611 
L 420.593777 300.023176 
L 421.31516 295.817451 
L 422.036543 284.041421 
L 422.757927 304.228901 
L 423.47931 300.864321 
L 424.200693 307.593481 
L 424.922076 296.658596 
L 425.643459 288.247146 
L 426.364842 299.182031 
L 427.086225 289.929436 
L 427.807608 300.864321 
L 428.528991 283.200276 
L 429.250375 300.864321 
L 429.971758 283.200276 
L 430.693141 286.564856 
L 431.414524 290.770581 
L 432.135907 286.564856 
L 432.85729 303.387756 
L 433.578673 294.976306 
L 434.300056 289.088291 
L 435.02144 298.340886 
L 435.742823 279.835696 
L 436.464206 284.882566 
L 437.185589 283.200276 
L 437.906972 254.601346 
L 438.628355 254.601346 
L 439.349738 287.406001 
L 440.071121 312.640351 
L 440.792505 307.593481 
L 441.513888 309.275771 
L 442.235271 308.434626 
L 443.678037 305.070046 
L 444.39942 302.546611 
L 445.120803 299.182031 
L 445.842186 294.135161 
L 446.563569 287.406001 
L 447.284953 300.023176 
L 448.006336 299.182031 
L 450.170485 291.611726 
L 450.891868 294.135161 
L 451.613251 301.705466 
L 453.056018 298.340886 
L 453.777401 297.499741 
L 454.498784 302.546611 
L 455.220167 294.135161 
L 455.94155 291.611726 
L 456.662933 294.976306 
L 457.384316 286.564856 
L 458.105699 295.817451 
L 458.827083 288.247146 
L 459.548466 291.611726 
L 460.269849 299.182031 
L 460.991232 291.611726 
L 461.712615 291.611726 
L 462.433998 294.976306 
L 463.155381 289.929436 
L 463.876764 300.023176 
L 464.598148 288.247146 
L 465.319531 292.452871 
L 466.040914 294.135161 
L 466.762297 288.247146 
L 467.48368 289.088291 
L 468.205063 284.882566 
L 468.926446 300.864321 
L 469.647829 329.463252 
L 470.369212 305.911191 
L 471.090596 308.434626 
L 474.697511 308.434626 
L 475.418894 307.593481 
L 477.583044 307.593481 
L 479.747193 302.546611 
L 481.189959 294.135161 
L 481.911342 291.611726 
L 482.632726 301.705466 
L 483.354109 300.023176 
L 484.075492 303.387756 
L 484.796875 297.499741 
L 485.518258 296.658596 
L 486.239641 291.611726 
L 486.961024 300.023176 
L 487.682407 289.088291 
L 488.40379 290.770581 
L 489.125174 291.611726 
L 489.846557 290.770581 
L 490.56794 289.088291 
L 491.289323 294.976306 
L 492.010706 279.835696 
L 492.732089 284.041421 
L 493.453472 257.124781 
L 494.174855 261.330506 
L 495.617622 284.882566 
L 496.339005 301.705466 
L 497.781771 278.994551 
L 498.503154 305.070046 
L 499.224537 310.958061 
L 499.94592 300.864321 
L 500.667304 307.593481 
L 501.388687 305.070046 
L 502.11007 306.752336 
L 502.831453 306.752336 
L 503.552836 305.911191 
L 504.274219 306.752336 
L 504.995602 306.752336 
L 505.716985 305.911191 
L 506.438368 306.752336 
L 507.159752 305.911191 
L 507.881135 305.911191 
L 508.602518 305.070046 
L 509.323901 305.070046 
L 510.045284 303.387756 
L 510.045284 303.387756 
" style="fill:none;stroke:#1f77b4;stroke-linecap:square;stroke-width:1.5;"/>
   </g>
   <g id="line2d_16">
    <path clip-path="url(#pe8f44107d1)" d="M 115.455931 283.200276 
L 116.177314 285.723711 
L 116.898697 305.070046 
L 117.62008 308.434626 
L 118.341464 303.387756 
L 119.062847 286.564856 
L 119.78423 302.546611 
L 120.505613 304.228901 
L 121.226996 300.023176 
L 121.948379 287.406001 
L 122.669762 301.705466 
L 124.833912 301.705466 
L 125.555295 302.546611 
L 126.276678 302.546611 
L 126.998061 308.434626 
L 127.719444 300.023176 
L 129.16221 294.976306 
L 129.883593 295.817451 
L 130.604977 289.929436 
L 131.32636 289.929436 
L 132.047743 293.294016 
L 132.769126 293.294016 
L 133.490509 288.247146 
L 134.211892 290.770581 
L 134.933275 281.517986 
L 135.654658 285.723711 
L 136.376042 269.741956 
L 137.097425 280.676841 
L 137.818808 286.564856 
L 138.540191 287.406001 
L 139.261574 276.471116 
L 139.982957 268.059666 
L 140.70434 255.442491 
L 141.425723 249.554476 
L 142.147106 294.976306 
L 142.86849 273.947681 
L 143.589873 285.723711 
L 144.311256 305.070046 
L 145.754022 306.752336 
L 146.475405 306.752336 
L 147.196788 305.911191 
L 147.918171 305.911191 
L 148.639555 305.070046 
L 149.360938 305.911191 
L 150.803704 305.911191 
L 151.525087 305.070046 
L 152.24647 302.546611 
L 152.967853 301.705466 
L 154.41062 294.976306 
L 155.132003 284.882566 
L 155.853386 301.705466 
L 156.574769 302.546611 
L 157.296152 293.294016 
L 158.017535 305.070046 
L 158.738918 296.658596 
L 159.460301 290.770581 
L 160.181684 296.658596 
L 160.903068 281.517986 
L 161.624451 288.247146 
L 162.345834 279.835696 
L 163.067217 303.387756 
L 163.7886 275.629971 
L 164.509983 286.564856 
L 165.231366 277.312261 
L 165.952749 294.976306 
L 166.674133 292.452871 
L 167.395516 288.247146 
L 168.116899 277.312261 
L 168.838282 280.676841 
L 169.559665 265.536231 
L 170.281048 276.471116 
L 171.002431 260.489361 
L 171.723814 49.361965 
L 172.445198 305.070046 
L 173.166581 303.387756 
L 173.887964 306.752336 
L 175.33073 308.434626 
L 176.052113 308.434626 
L 176.773496 307.593481 
L 180.380412 307.593481 
L 181.101795 306.752336 
L 181.823178 304.228901 
L 182.544561 300.864321 
L 183.987327 292.452871 
L 184.708711 299.182031 
L 185.430094 300.864321 
L 186.87286 299.182031 
L 187.594243 294.135161 
L 188.315626 299.182031 
L 189.037009 287.406001 
L 189.758392 289.929436 
L 190.479776 295.817451 
L 191.201159 282.359131 
L 191.922542 278.153406 
L 192.643925 286.564856 
L 193.365308 285.723711 
L 194.086691 272.265391 
L 194.808074 268.059666 
L 195.529457 224.320126 
L 196.250841 220.114401 
L 196.972224 221.796691 
L 197.693607 230.208141 
L 198.41499 231.049286 
L 199.136373 220.955546 
L 199.857756 219.273256 
L 200.579139 216.749821 
L 201.300522 241.143026 
L 202.021905 309.275771 
L 202.743289 303.387756 
L 203.464672 305.911191 
L 205.628821 305.911191 
L 206.350204 305.070046 
L 207.071587 305.911191 
L 207.79297 305.070046 
L 208.514354 305.070046 
L 209.235737 305.911191 
L 209.95712 305.911191 
L 210.678503 305.070046 
L 212.842652 294.976306 
L 213.564035 293.294016 
L 214.285419 302.546611 
L 215.006802 300.023176 
L 215.728185 299.182031 
L 216.449568 303.387756 
L 217.170951 289.929436 
L 217.892334 303.387756 
L 218.613717 289.929436 
L 219.3351 304.228901 
L 220.056483 293.294016 
L 220.777867 298.340886 
L 221.49925 289.088291 
L 222.220633 281.517986 
L 222.942016 275.629971 
L 223.663399 284.882566 
L 224.384782 282.359131 
L 225.106165 278.153406 
L 225.827548 284.041421 
L 226.548932 259.648216 
L 227.270315 242.825316 
L 227.991698 256.283636 
L 228.713081 263.012796 
L 229.434464 247.031041 
L 230.155847 257.124781 
L 230.87723 247.872186 
L 231.598613 305.911191 
L 232.319997 268.059666 
L 233.04138 278.994551 
L 233.762763 301.705466 
L 234.484146 305.070046 
L 235.205529 306.752336 
L 235.926912 305.911191 
L 236.648295 305.911191 
L 237.369678 306.752336 
L 238.091062 305.911191 
L 240.255211 305.911191 
L 240.976594 305.070046 
L 242.41936 305.070046 
L 243.140743 303.387756 
L 243.862126 300.864321 
L 244.58351 296.658596 
L 245.304893 293.294016 
L 246.026276 282.359131 
L 246.747659 300.023176 
L 247.469042 294.135161 
L 248.190425 298.340886 
L 248.911808 288.247146 
L 249.633191 301.705466 
L 251.075958 289.088291 
L 251.797341 301.705466 
L 252.518724 289.929436 
L 253.240107 293.294016 
L 253.96149 298.340886 
L 254.682873 291.611726 
L 255.404256 292.452871 
L 256.12564 291.611726 
L 256.847023 299.182031 
L 257.568406 292.452871 
L 258.289789 293.294016 
L 259.011172 291.611726 
L 259.732555 298.340886 
L 260.453938 293.294016 
L 261.175321 310.116916 
L 261.896704 301.705466 
L 262.618088 305.070046 
L 263.339471 305.911191 
L 266.225003 305.911191 
L 266.946386 305.070046 
L 271.274685 305.070046 
L 271.996068 304.228901 
L 272.717451 300.864321 
L 273.438834 296.658596 
L 274.160218 293.294016 
L 274.881601 298.340886 
L 275.602984 304.228901 
L 276.324367 294.976306 
L 277.04575 305.070046 
L 277.767133 302.546611 
L 278.488516 294.135161 
L 279.209899 290.770581 
L 279.931282 289.088291 
L 280.652666 284.041421 
L 281.374049 281.517986 
L 282.095432 286.564856 
L 282.816815 284.882566 
L 283.538198 277.312261 
L 284.259581 281.517986 
L 284.980964 275.629971 
L 285.702347 275.629971 
L 286.423731 257.965926 
L 287.145114 191.515471 
L 287.866497 192.356616 
L 288.58788 175.533716 
L 289.309263 171.327991 
L 290.030646 171.327991 
L 290.752029 269.741956 
L 291.473412 310.116916 
L 292.194796 306.752336 
L 292.916179 307.593481 
L 295.080328 307.593481 
L 295.801711 306.752336 
L 300.851393 306.752336 
L 303.736925 293.294016 
L 304.458309 294.976306 
L 305.179692 294.135161 
L 305.901075 304.228901 
L 306.622458 296.658596 
L 307.343841 292.452871 
L 308.065224 295.817451 
L 308.786607 302.546611 
L 309.50799 295.817451 
L 310.229374 293.294016 
L 310.950757 292.452871 
L 311.67214 292.452871 
L 312.393523 291.611726 
L 313.836289 291.611726 
L 314.557672 296.658596 
L 315.279055 300.864321 
L 316.000439 294.135161 
L 316.721822 293.294016 
L 317.443205 295.817451 
L 318.164588 293.294016 
L 318.885971 292.452871 
L 319.607354 292.452871 
L 320.328737 297.499741 
L 323.21427 294.135161 
L 325.378419 294.135161 
L 326.099802 293.294016 
L 326.821185 293.294016 
L 327.542568 292.452871 
L 328.263952 285.723711 
L 328.985335 296.658596 
L 329.706718 294.135161 
L 330.428101 293.294016 
L 331.149484 294.135161 
L 331.870867 290.770581 
L 332.59225 296.658596 
L 333.313633 294.135161 
L 334.035017 292.452871 
L 334.7564 291.611726 
L 335.477783 287.406001 
L 336.199166 298.340886 
L 336.920549 284.882566 
L 337.641932 297.499741 
L 338.363315 286.564856 
L 339.084698 302.546611 
L 339.806081 286.564856 
L 340.527465 290.770581 
L 341.248848 292.452871 
L 341.970231 289.929436 
L 342.691614 300.864321 
L 343.412997 298.340886 
L 344.13438 300.864321 
L 344.855763 291.611726 
L 345.577146 302.546611 
L 347.019913 284.882566 
L 347.741296 290.770581 
L 348.462679 281.517986 
L 349.905445 284.882566 
L 350.626828 316.846076 
L 351.348211 305.911191 
L 352.069595 306.752336 
L 353.512361 306.752336 
L 354.233744 305.911191 
L 354.955127 306.752336 
L 356.397893 306.752336 
L 357.119276 305.911191 
L 360.726192 305.911191 
L 361.447575 302.546611 
L 362.890341 294.135161 
L 363.611724 300.023176 
L 364.333108 301.705466 
L 365.054491 302.546611 
L 365.775874 293.294016 
L 366.497257 300.864321 
L 367.21864 297.499741 
L 367.940023 293.294016 
L 368.661406 296.658596 
L 369.382789 294.135161 
L 370.104173 289.088291 
L 370.825556 289.088291 
L 371.546939 279.835696 
L 372.268322 279.835696 
L 372.989705 273.947681 
L 374.432471 284.041421 
L 375.153854 270.583101 
L 375.875238 264.695086 
L 376.596621 268.900811 
L 377.318004 278.153406 
L 378.039387 281.517986 
L 378.76077 289.929436 
L 379.482153 284.041421 
L 380.203536 322.734092 
L 380.924919 305.911191 
L 381.646302 307.593481 
L 386.695984 307.593481 
L 387.417367 306.752336 
L 388.860134 306.752336 
L 389.581517 305.911191 
L 390.3029 304.228901 
L 391.024283 300.864321 
L 391.745666 296.658596 
L 392.467049 293.294016 
L 393.188432 294.976306 
L 393.909816 300.864321 
L 394.631199 303.387756 
L 395.352582 289.088291 
L 396.073965 302.546611 
L 396.795348 294.135161 
L 397.516731 292.452871 
L 398.238114 287.406001 
L 398.959497 281.517986 
L 399.68088 284.882566 
L 400.402264 282.359131 
L 401.123647 276.471116 
L 401.84503 288.247146 
L 402.566413 271.424246 
L 403.287796 272.265391 
L 404.009179 270.583101 
L 404.730562 262.171651 
L 405.451945 262.171651 
L 406.173329 227.684706 
L 406.894712 185.627456 
L 407.616095 170.486846 
L 408.337478 190.674326 
L 409.058861 198.244631 
L 409.780244 324.416382 
L 410.501627 308.434626 
L 411.22301 307.593481 
L 411.944394 307.593481 
L 412.665777 308.434626 
L 413.38716 308.434626 
L 414.108543 307.593481 
L 414.829926 308.434626 
L 415.551309 308.434626 
L 416.272692 307.593481 
L 418.436842 307.593481 
L 419.158225 305.911191 
L 419.879608 302.546611 
L 420.600991 300.023176 
L 421.322374 296.658596 
L 422.043757 285.723711 
L 422.76514 304.228901 
L 423.486523 300.864321 
L 424.207907 302.546611 
L 424.92929 295.817451 
L 425.650673 295.817451 
L 426.372056 299.182031 
L 427.093439 287.406001 
L 427.814822 300.864321 
L 428.536205 281.517986 
L 429.257588 300.023176 
L 429.978972 280.676841 
L 430.700355 281.517986 
L 431.421738 287.406001 
L 432.143121 281.517986 
L 432.864504 302.546611 
L 433.585887 291.611726 
L 434.30727 286.564856 
L 435.028653 287.406001 
L 435.750037 261.330506 
L 436.47142 263.853941 
L 437.192803 276.471116 
L 437.914186 262.171651 
L 438.635569 210.861806 
L 439.356952 116.653565 
L 440.078335 310.116916 
L 440.799718 305.911191 
L 441.521101 308.434626 
L 442.242485 307.593481 
L 442.963868 305.911191 
L 443.685251 305.070046 
L 444.406634 302.546611 
L 445.128017 299.182031 
L 445.8494 294.135161 
L 446.570783 299.182031 
L 447.292166 300.023176 
L 448.01355 299.182031 
L 448.734933 296.658596 
L 449.456316 294.976306 
L 450.177699 292.452871 
L 450.899082 296.658596 
L 451.620465 302.546611 
L 453.063231 299.182031 
L 453.784615 298.340886 
L 454.505998 300.864321 
L 455.227381 294.135161 
L 455.948764 297.499741 
L 456.670147 295.817451 
L 457.39153 289.088291 
L 458.112913 295.817451 
L 458.834296 287.406001 
L 459.555679 292.452871 
L 460.277063 298.340886 
L 460.998446 289.929436 
L 461.719829 285.723711 
L 462.441212 294.976306 
L 463.162595 284.882566 
L 463.883978 298.340886 
L 464.605361 287.406001 
L 465.326744 293.294016 
L 466.048128 291.611726 
L 466.769511 282.359131 
L 467.490894 269.741956 
L 468.212277 261.330506 
L 468.93366 257.124781 
L 469.655043 164.598831 
L 470.376426 302.546611 
L 471.097809 306.752336 
L 471.819193 307.593481 
L 473.261959 307.593481 
L 473.983342 308.434626 
L 474.704725 307.593481 
L 477.590258 307.593481 
L 478.311641 305.911191 
L 479.033024 303.387756 
L 479.754407 302.546611 
L 481.197173 294.135161 
L 481.918556 294.135161 
L 482.639939 301.705466 
L 483.361322 300.023176 
L 484.082706 304.228901 
L 484.804089 284.882566 
L 485.525472 296.658596 
L 486.246855 292.452871 
L 486.968238 299.182031 
L 487.689621 289.929436 
L 488.411004 288.247146 
L 489.132387 290.770581 
L 489.853771 289.088291 
L 490.575154 286.564856 
L 491.296537 280.676841 
L 492.01792 271.424246 
L 492.739303 278.153406 
L 493.460686 262.171651 
L 494.182069 218.432111 
L 494.903452 142.729061 
L 495.624836 204.973791 
L 496.346219 213.385241 
L 497.067602 249.554476 
L 497.788985 243.666461 
L 498.510368 211.702951 
L 499.231751 310.958061 
L 499.953134 276.471116 
L 501.3959 303.387756 
L 502.117284 305.070046 
L 503.56005 305.070046 
L 504.281433 305.911191 
L 504.281433 305.911191 
" style="fill:none;stroke:#ff7f0e;stroke-linecap:square;stroke-width:1.5;"/>
   </g>
   <g id="line2d_17">
    <path clip-path="url(#pe8f44107d1)" d="M 118.39196 297.499741 
L 119.113343 284.882566 
L 119.834727 302.546611 
L 120.55611 305.070046 
L 121.277493 299.182031 
L 121.998876 286.564856 
L 122.720259 301.705466 
L 123.441642 300.864321 
L 124.163025 301.705466 
L 124.884408 301.705466 
L 125.605792 302.546611 
L 126.327175 302.546611 
L 127.048558 308.434626 
L 127.769941 300.023176 
L 128.491324 296.658596 
L 129.212707 294.135161 
L 129.93409 297.499741 
L 130.655473 285.723711 
L 131.376856 289.088291 
L 132.09824 289.929436 
L 132.819623 297.499741 
L 133.541006 292.452871 
L 134.262389 289.929436 
L 134.983772 288.247146 
L 135.705155 287.406001 
L 136.426538 289.088291 
L 137.147921 293.294016 
L 137.869305 294.135161 
L 138.590688 290.770581 
L 139.312071 281.517986 
L 140.033454 179.739441 
L 140.754837 263.012796 
L 141.47622 222.637836 
L 142.197603 317.687221 
L 142.918986 296.658596 
L 143.64037 302.546611 
L 144.361753 306.752336 
L 145.083136 306.752336 
L 145.804519 307.593481 
L 146.525902 306.752336 
L 147.247285 306.752336 
L 147.968668 305.911191 
L 150.854201 305.911191 
L 151.575584 305.070046 
L 152.296967 302.546611 
L 153.01835 301.705466 
L 153.739733 298.340886 
L 154.461116 294.135161 
L 155.182499 284.882566 
L 155.903883 301.705466 
L 156.625266 310.116916 
L 157.346649 294.976306 
L 158.068032 304.228901 
L 158.789415 295.817451 
L 159.510798 292.452871 
L 160.232181 296.658596 
L 160.953564 289.088291 
L 161.674948 289.088291 
L 162.396331 283.200276 
L 163.117714 302.546611 
L 163.839097 276.471116 
L 164.56048 298.340886 
L 165.281863 286.564856 
L 166.003246 305.911191 
L 166.724629 300.864321 
L 167.446013 292.452871 
L 168.167396 286.564856 
L 168.888779 286.564856 
L 169.610162 281.517986 
L 170.331545 281.517986 
L 171.052928 277.312261 
L 171.774311 331.145542 
L 172.495694 307.593481 
L 173.217077 308.434626 
L 173.938461 308.434626 
L 174.659844 309.275771 
L 175.381227 308.434626 
L 176.10261 309.275771 
L 176.823993 308.434626 
L 177.545376 308.434626 
L 178.266759 307.593481 
L 178.988142 308.434626 
L 179.709526 307.593481 
L 180.430909 307.593481 
L 181.152292 306.752336 
L 181.873675 304.228901 
L 183.316441 295.817451 
L 184.037824 285.723711 
L 184.759207 297.499741 
L 185.480591 300.023176 
L 186.201974 300.023176 
L 186.923357 303.387756 
L 187.64474 289.088291 
L 188.366123 298.340886 
L 189.087506 286.564856 
L 189.808889 288.247146 
L 190.530272 295.817451 
L 191.251655 282.359131 
L 191.973039 278.153406 
L 192.694422 295.817451 
L 193.415805 285.723711 
L 194.137188 262.171651 
L 194.858571 264.695086 
L 195.579954 270.583101 
L 196.301337 284.882566 
L 197.02272 289.088291 
L 197.744104 269.741956 
L 199.18687 292.452871 
L 199.908253 284.882566 
L 200.629636 286.564856 
L 201.351019 324.416382 
L 202.072402 305.070046 
L 202.793785 308.434626 
L 203.515169 306.752336 
L 204.236552 307.593481 
L 204.957935 307.593481 
L 206.400701 305.911191 
L 207.122084 306.752336 
L 207.843467 305.911191 
L 210.007617 305.911191 
L 210.729 305.070046 
L 212.171766 298.340886 
L 212.893149 294.135161 
L 213.614532 281.517986 
L 214.335915 301.705466 
L 215.057298 299.182031 
L 215.778682 298.340886 
L 216.500065 308.434626 
L 217.221448 285.723711 
L 217.942831 303.387756 
L 218.664214 289.088291 
L 219.385597 303.387756 
L 220.10698 290.770581 
L 220.828363 300.864321 
L 221.549747 284.882566 
L 222.27113 287.406001 
L 222.992513 284.882566 
L 223.713896 284.882566 
L 224.435279 286.564856 
L 225.156662 284.041421 
L 225.878045 294.976306 
L 226.599428 275.629971 
L 227.320812 283.200276 
L 228.042195 295.817451 
L 228.763578 288.247146 
L 229.484961 293.294016 
L 230.206344 287.406001 
L 230.927727 322.734092 
L 231.64911 321.051802 
L 232.370493 294.976306 
L 233.81326 305.911191 
L 234.534643 307.593481 
L 235.256026 306.752336 
L 238.141558 306.752336 
L 238.862941 305.911191 
L 241.027091 305.911191 
L 241.748474 305.070046 
L 242.469857 305.070046 
L 243.19124 303.387756 
L 244.634006 296.658596 
L 245.35539 292.452871 
L 246.076773 306.752336 
L 246.798156 300.023176 
L 247.519539 294.976306 
L 248.240922 298.340886 
L 248.962305 293.294016 
L 249.683688 301.705466 
L 250.405071 294.976306 
L 251.126454 294.135161 
L 251.847838 301.705466 
L 253.290604 291.611726 
L 254.011987 298.340886 
L 254.73337 299.182031 
L 255.454753 292.452871 
L 256.176136 291.611726 
L 256.897519 299.182031 
L 257.618903 300.023176 
L 258.340286 293.294016 
L 259.061669 298.340886 
L 259.783052 298.340886 
L 260.504435 296.658596 
L 261.225818 322.734092 
L 261.947201 302.546611 
L 262.668584 305.070046 
L 263.389968 305.911191 
L 266.996883 305.911191 
L 267.718266 305.070046 
L 270.603799 305.070046 
L 272.046565 303.387756 
L 272.767948 300.864321 
L 273.489331 296.658596 
L 274.210714 286.564856 
L 274.932097 296.658596 
L 275.653481 308.434626 
L 276.374864 296.658596 
L 277.096247 296.658596 
L 277.81763 302.546611 
L 278.539013 290.770581 
L 279.260396 293.294016 
L 279.981779 294.976306 
L 280.703162 289.929436 
L 281.424546 267.218521 
L 282.145929 287.406001 
L 282.867312 287.406001 
L 283.588695 284.041421 
L 284.310078 282.359131 
L 285.031461 292.452871 
L 285.752844 282.359131 
L 286.474227 279.835696 
L 287.195611 257.124781 
L 287.916994 303.387756 
L 288.638377 283.200276 
L 289.35976 286.564856 
L 290.081143 301.705466 
L 290.802526 324.416382 
L 291.523909 309.275771 
L 292.245292 311.799206 
L 292.966675 309.275771 
L 293.688059 308.434626 
L 294.409442 309.275771 
L 296.573591 306.752336 
L 298.016357 306.752336 
L 298.73774 307.593481 
L 299.459124 306.752336 
L 300.90189 306.752336 
L 301.623273 303.387756 
L 302.344656 299.182031 
L 303.066039 295.817451 
L 303.787422 287.406001 
L 304.508805 294.135161 
L 305.230189 293.294016 
L 305.951572 307.593481 
L 306.672955 295.817451 
L 307.394338 292.452871 
L 308.115721 297.499741 
L 308.837104 301.705466 
L 309.558487 295.817451 
L 310.27987 293.294016 
L 311.722637 291.611726 
L 314.608169 291.611726 
L 315.329552 300.023176 
L 316.050935 293.294016 
L 316.772318 294.135161 
L 317.493702 295.817451 
L 318.215085 293.294016 
L 318.936468 292.452871 
L 319.657851 292.452871 
L 320.379234 312.640351 
L 321.100617 296.658596 
L 323.264767 294.135161 
L 324.707533 294.135161 
L 325.428916 293.294016 
L 326.871682 293.294016 
L 327.593065 292.452871 
L 328.314448 284.882566 
L 329.035832 296.658596 
L 329.757215 293.294016 
L 330.478598 286.564856 
L 331.199981 293.294016 
L 331.921364 297.499741 
L 332.642747 296.658596 
L 333.36413 294.135161 
L 334.085513 292.452871 
L 334.806896 292.452871 
L 335.52828 302.546611 
L 336.249663 297.499741 
L 336.971046 280.676841 
L 337.692429 297.499741 
L 338.413812 288.247146 
L 339.135195 302.546611 
L 339.856578 288.247146 
L 340.577961 292.452871 
L 341.299345 304.228901 
L 342.020728 293.294016 
L 342.742111 300.864321 
L 343.463494 300.023176 
L 344.184877 301.705466 
L 344.90626 294.135161 
L 345.627643 302.546611 
L 346.349026 290.770581 
L 347.07041 287.406001 
L 347.791793 291.611726 
L 348.513176 286.564856 
L 349.234559 297.499741 
L 349.955942 317.687221 
L 350.677325 316.846076 
L 351.398708 307.593481 
L 353.562858 307.593481 
L 354.284241 306.752336 
L 355.005624 306.752336 
L 355.727007 307.593481 
L 357.169773 305.911191 
L 360.776689 305.911191 
L 361.498072 302.546611 
L 362.219455 298.340886 
L 362.940838 293.294016 
L 363.662221 292.452871 
L 365.104988 309.275771 
L 365.826371 287.406001 
L 366.547754 306.752336 
L 367.269137 296.658596 
L 368.711903 289.929436 
L 369.433286 301.705466 
L 370.154669 283.200276 
L 370.876052 289.088291 
L 371.597436 281.517986 
L 372.318819 294.976306 
L 373.040202 279.835696 
L 373.761585 291.611726 
L 374.482968 290.770581 
L 375.204351 290.770581 
L 375.925734 292.452871 
L 376.647117 282.359131 
L 377.368501 280.676841 
L 378.089884 297.499741 
L 378.811267 299.182031 
L 379.53265 316.846076 
L 380.254033 323.575237 
L 380.975416 307.593481 
L 381.696799 310.116916 
L 382.418182 308.434626 
L 385.303715 308.434626 
L 386.025098 307.593481 
L 387.467864 307.593481 
L 388.189247 306.752336 
L 388.910631 306.752336 
L 389.632014 305.911191 
L 390.353397 304.228901 
L 391.07478 300.023176 
L 391.796163 296.658596 
L 392.517546 292.452871 
L 393.238929 294.976306 
L 393.960312 300.023176 
L 394.681695 309.275771 
L 395.403079 289.929436 
L 396.124462 301.705466 
L 396.845845 285.723711 
L 397.567228 299.182031 
L 398.288611 286.564856 
L 399.009994 294.976306 
L 399.731377 284.882566 
L 400.45276 287.406001 
L 401.174144 282.359131 
L 401.895527 289.088291 
L 402.61691 289.088291 
L 403.338293 268.059666 
L 404.059676 289.088291 
L 404.781059 285.723711 
L 405.502442 276.471116 
L 406.223825 287.406001 
L 406.945209 278.153406 
L 407.666592 299.182031 
L 408.387975 302.546611 
L 409.109358 284.882566 
L 409.830741 326.098672 
L 410.552124 307.593481 
L 411.273507 311.799206 
L 411.99489 310.116916 
L 412.716273 310.116916 
L 414.15904 308.434626 
L 414.880423 308.434626 
L 415.601806 309.275771 
L 416.323189 307.593481 
L 417.044572 308.434626 
L 417.765955 307.593481 
L 418.487338 307.593481 
L 419.208722 305.911191 
L 421.372871 295.817451 
L 422.094254 284.041421 
L 422.815637 304.228901 
L 423.53702 300.864321 
L 424.258403 308.434626 
L 424.979787 294.976306 
L 425.70117 291.611726 
L 426.422553 298.340886 
L 427.143936 291.611726 
L 427.865319 300.864321 
L 428.586702 284.041421 
L 429.308085 300.023176 
L 430.029468 282.359131 
L 430.750851 284.041421 
L 431.472235 289.088291 
L 432.193618 283.200276 
L 432.915001 302.546611 
L 433.636384 297.499741 
L 434.357767 293.294016 
L 435.07915 296.658596 
L 435.800533 273.947681 
L 437.2433 287.406001 
L 437.964683 271.424246 
L 439.407449 331.145542 
L 440.128832 310.958061 
L 440.850215 308.434626 
L 441.571598 309.275771 
L 442.292981 308.434626 
L 444.457131 303.387756 
L 445.178514 299.182031 
L 445.899897 294.135161 
L 446.62128 300.023176 
L 447.342663 300.023176 
L 448.064046 299.182031 
L 450.228196 291.611726 
L 450.949579 294.976306 
L 451.670962 301.705466 
L 453.113728 298.340886 
L 453.835111 297.499741 
L 454.556494 302.546611 
L 455.277878 294.135161 
L 455.999261 297.499741 
L 457.442027 292.452871 
L 458.16341 295.817451 
L 458.884793 284.041421 
L 459.606176 294.135161 
L 460.327559 298.340886 
L 461.048943 294.976306 
L 461.770326 287.406001 
L 462.491709 300.023176 
L 463.213092 289.929436 
L 463.934475 299.182031 
L 464.655858 291.611726 
L 465.377241 293.294016 
L 466.098624 290.770581 
L 466.820008 300.864321 
L 467.541391 284.041421 
L 468.262774 287.406001 
L 468.984157 321.051802 
L 469.70554 329.463252 
L 470.426923 304.228901 
L 471.148306 307.593481 
L 471.869689 308.434626 
L 474.755222 308.434626 
L 475.476605 307.593481 
L 477.640754 307.593481 
L 478.362137 305.911191 
L 479.083521 303.387756 
L 479.804904 301.705466 
L 480.526287 298.340886 
L 481.24767 293.294016 
L 481.969053 290.770581 
L 482.690436 301.705466 
L 483.411819 299.182031 
L 484.133202 303.387756 
L 484.854586 291.611726 
L 485.575969 296.658596 
L 486.297352 291.611726 
L 487.018735 299.182031 
L 487.740118 289.929436 
L 489.182884 289.929436 
L 489.904267 290.770581 
L 490.62565 289.929436 
L 491.347034 280.676841 
L 492.068417 285.723711 
L 492.7898 289.929436 
L 493.511183 288.247146 
L 494.232566 273.106536 
L 494.953949 273.106536 
L 495.675332 287.406001 
L 496.396715 287.406001 
L 497.118099 266.377376 
L 497.839482 304.228901 
L 498.560865 285.723711 
L 499.282248 310.958061 
L 500.003631 303.387756 
L 500.725014 308.434626 
L 501.446397 305.911191 
L 502.16778 307.593481 
L 502.889164 305.911191 
L 503.610547 306.752336 
L 504.33193 306.752336 
L 505.053313 305.911191 
L 505.774696 306.752336 
L 506.496079 305.911191 
L 507.217462 305.911191 
L 507.217462 305.911191 
" style="fill:none;stroke:#2ca02c;stroke-linecap:square;stroke-width:1.5;"/>
   </g>
   <g id="line2d_18">
    <path clip-path="url(#pe8f44107d1)" d="M 112.691591 290.770581 
L 113.412974 317.687221 
L 114.134357 329.463252 
L 114.85574 330.304397 
L 115.577123 285.723711 
L 116.298507 298.340886 
L 117.01989 305.070046 
L 117.741273 308.434626 
L 118.462656 300.864321 
L 119.184039 282.359131 
L 119.905422 302.546611 
L 120.626805 305.070046 
L 121.348188 297.499741 
L 122.069571 286.564856 
L 122.790955 301.705466 
L 124.955104 301.705466 
L 125.676487 302.546611 
L 126.39787 302.546611 
L 127.119253 305.070046 
L 127.840636 300.023176 
L 128.56202 296.658596 
L 129.283403 294.135161 
L 130.004786 298.340886 
L 130.726169 285.723711 
L 131.447552 289.929436 
L 132.168935 285.723711 
L 132.890318 295.817451 
L 133.611701 284.041421 
L 134.333085 282.359131 
L 135.054468 288.247146 
L 135.775851 284.041421 
L 136.497234 270.583101 
L 137.218617 278.994551 
L 137.94 284.041421 
L 138.661383 280.676841 
L 139.382766 278.994551 
L 140.104149 261.330506 
L 140.825533 253.760201 
L 141.546916 231.049286 
L 142.268299 237.778446 
L 142.989682 277.312261 
L 143.711065 299.182031 
L 144.432448 305.070046 
L 145.153831 306.752336 
L 147.317981 306.752336 
L 148.039364 305.911191 
L 150.924896 305.911191 
L 151.646279 305.070046 
L 153.089046 301.705466 
L 154.531812 294.976306 
L 155.253195 296.658596 
L 155.974578 301.705466 
L 156.695961 305.911191 
L 157.417344 295.817451 
L 158.138727 304.228901 
L 158.860111 295.817451 
L 159.581494 294.135161 
L 160.302877 294.976306 
L 161.02426 292.452871 
L 161.745643 290.770581 
L 162.467026 283.200276 
L 163.188409 300.023176 
L 163.909792 275.629971 
L 164.631176 295.817451 
L 165.352559 275.629971 
L 166.073942 301.705466 
L 166.795325 292.452871 
L 167.516708 289.929436 
L 168.238091 278.153406 
L 168.959474 278.994551 
L 169.680857 262.171651 
L 170.402241 268.900811 
L 171.123624 261.330506 
L 172.56639 301.705466 
L 173.287773 305.070046 
L 174.009156 307.593481 
L 174.730539 307.593481 
L 175.451922 308.434626 
L 176.173306 308.434626 
L 176.894689 307.593481 
L 180.501604 307.593481 
L 181.222987 306.752336 
L 182.665754 300.023176 
L 183.387137 295.817451 
L 184.10852 287.406001 
L 184.829903 303.387756 
L 185.551286 300.023176 
L 186.272669 300.023176 
L 186.994052 298.340886 
L 187.715435 293.294016 
L 188.436819 297.499741 
L 189.158202 284.041421 
L 189.879585 283.200276 
L 190.600968 295.817451 
L 191.322351 284.882566 
L 192.043734 276.471116 
L 192.765117 285.723711 
L 193.4865 284.882566 
L 194.929267 257.124781 
L 195.65065 220.114401 
L 197.093416 225.161271 
L 197.814799 222.637836 
L 198.536182 212.544096 
L 199.257565 214.226386 
L 199.978948 226.002416 
L 200.700332 218.432111 
L 201.421715 192.356616 
L 202.143098 305.070046 
L 202.864481 304.228901 
L 203.585864 305.911191 
L 205.750013 305.911191 
L 206.471397 305.070046 
L 207.19278 305.911191 
L 207.914163 305.070046 
L 208.635546 305.070046 
L 209.356929 305.911191 
L 210.078312 305.911191 
L 210.799695 304.228901 
L 211.521078 300.864321 
L 212.242462 298.340886 
L 212.963845 294.135161 
L 213.685228 285.723711 
L 214.406611 301.705466 
L 215.127994 299.182031 
L 216.57076 299.182031 
L 217.292143 284.882566 
L 218.013526 301.705466 
L 218.73491 289.088291 
L 219.456293 302.546611 
L 220.177676 287.406001 
L 220.899059 300.023176 
L 221.620442 286.564856 
L 222.341825 282.359131 
L 223.063208 280.676841 
L 223.784591 281.517986 
L 224.505975 281.517986 
L 225.227358 279.835696 
L 225.948741 273.106536 
L 226.670124 250.395621 
L 227.391507 232.731576 
L 228.11289 229.366996 
L 229.555656 239.460736 
L 230.27704 250.395621 
L 230.998423 244.507606 
L 231.719806 269.741956 
L 232.441189 274.788826 
L 233.883955 302.546611 
L 234.605338 305.911191 
L 235.326721 306.752336 
L 236.048105 306.752336 
L 236.769488 305.911191 
L 237.490871 306.752336 
L 238.212254 306.752336 
L 238.933637 305.911191 
L 241.097786 305.911191 
L 241.819169 305.070046 
L 242.540553 305.070046 
L 243.261936 303.387756 
L 244.704702 296.658596 
L 245.426085 288.247146 
L 246.147468 310.116916 
L 246.868851 296.658596 
L 247.590234 297.499741 
L 248.311618 297.499741 
L 249.033001 293.294016 
L 249.754384 300.864321 
L 250.475767 289.929436 
L 251.19715 290.770581 
L 251.918533 300.864321 
L 252.639916 295.817451 
L 253.361299 291.611726 
L 254.082683 297.499741 
L 254.804066 291.611726 
L 255.525449 291.611726 
L 256.246832 292.452871 
L 256.968215 298.340886 
L 257.689598 292.452871 
L 258.410981 293.294016 
L 259.132364 291.611726 
L 259.853747 292.452871 
L 260.575131 299.182031 
L 261.296514 317.687221 
L 262.017897 301.705466 
L 262.73928 305.070046 
L 263.460663 305.911191 
L 265.624812 305.911191 
L 266.346196 305.070046 
L 267.067579 305.911191 
L 267.788962 305.070046 
L 270.674494 305.070046 
L 272.117261 303.387756 
L 272.838644 300.023176 
L 273.560027 295.817451 
L 274.28141 292.452871 
L 275.002793 303.387756 
L 275.724176 305.070046 
L 276.445559 294.976306 
L 277.166942 300.864321 
L 277.888325 300.864321 
L 278.609709 285.723711 
L 279.331092 301.705466 
L 280.052475 284.882566 
L 280.773858 290.770581 
L 281.495241 284.041421 
L 282.216624 284.882566 
L 282.938007 278.994551 
L 283.65939 278.994551 
L 284.380774 270.583101 
L 285.102157 281.517986 
L 287.266306 224.320126 
L 287.987689 218.432111 
L 288.709072 228.525851 
L 290.151839 236.937301 
L 291.594605 308.434626 
L 292.315988 306.752336 
L 293.037371 307.593481 
L 293.758754 307.593481 
L 294.480137 308.434626 
L 295.922904 306.752336 
L 300.251202 306.752336 
L 300.972585 305.911191 
L 301.693968 303.387756 
L 302.415352 299.182031 
L 303.136735 295.817451 
L 303.858118 294.135161 
L 304.579501 294.976306 
L 305.300884 294.976306 
L 306.022267 302.546611 
L 306.74365 295.817451 
L 307.465033 292.452871 
L 308.186417 294.135161 
L 308.9078 300.864321 
L 309.629183 294.976306 
L 310.350566 293.294016 
L 311.793332 291.611726 
L 313.957482 291.611726 
L 314.678865 299.182031 
L 315.400248 299.182031 
L 316.843014 288.247146 
L 317.564397 294.976306 
L 318.28578 293.294016 
L 319.007163 292.452871 
L 319.728546 292.452871 
L 320.44993 301.705466 
L 321.171313 296.658596 
L 323.335462 294.135161 
L 325.499611 294.135161 
L 326.220995 293.294016 
L 326.942378 293.294016 
L 327.663761 292.452871 
L 328.385144 286.564856 
L 329.106527 296.658596 
L 329.82791 293.294016 
L 330.549293 294.135161 
L 331.270676 293.294016 
L 331.99206 293.294016 
L 332.713443 296.658596 
L 333.434826 294.135161 
L 334.156209 292.452871 
L 334.877592 292.452871 
L 335.598975 298.340886 
L 336.320358 297.499741 
L 337.041741 292.452871 
L 337.763124 297.499741 
L 338.484508 288.247146 
L 339.205891 300.864321 
L 339.927274 284.041421 
L 340.648657 286.564856 
L 341.37004 303.387756 
L 342.091423 295.817451 
L 342.812806 299.182031 
L 343.534189 298.340886 
L 344.255573 294.976306 
L 344.976956 293.294016 
L 345.698339 300.864321 
L 346.419722 293.294016 
L 347.141105 284.041421 
L 347.862488 290.770581 
L 348.583871 279.835696 
L 349.305254 281.517986 
L 350.026638 289.929436 
L 350.748021 313.481496 
L 351.469404 305.911191 
L 352.190787 306.752336 
L 353.633553 306.752336 
L 354.354936 305.911191 
L 355.076319 306.752336 
L 355.797703 306.752336 
L 356.519086 305.911191 
L 360.126001 305.911191 
L 360.847384 305.070046 
L 361.568767 301.705466 
L 363.011534 293.294016 
L 363.732917 298.340886 
L 364.4543 301.705466 
L 365.175683 300.864321 
L 365.897066 283.200276 
L 366.618449 305.911191 
L 367.339832 295.817451 
L 368.061216 293.294016 
L 368.782599 289.088291 
L 369.503982 300.864321 
L 370.225365 290.770581 
L 370.946748 284.041421 
L 371.668131 272.265391 
L 372.389514 279.835696 
L 373.110897 266.377376 
L 373.832281 284.882566 
L 374.553664 271.424246 
L 375.275047 279.835696 
L 375.99643 261.330506 
L 376.717813 271.424246 
L 377.439196 269.741956 
L 378.160579 290.770581 
L 378.881962 284.041421 
L 379.603345 288.247146 
L 380.324729 320.210656 
L 381.046112 305.911191 
L 381.767495 307.593481 
L 386.817177 307.593481 
L 387.53856 306.752336 
L 388.981326 306.752336 
L 389.702709 305.911191 
L 390.424092 303.387756 
L 391.866859 296.658596 
L 392.588242 287.406001 
L 393.309625 303.387756 
L 394.031008 300.864321 
L 394.752391 302.546611 
L 395.473774 292.452871 
L 396.195157 300.864321 
L 396.91654 283.200276 
L 397.637923 298.340886 
L 398.359307 280.676841 
L 399.08069 282.359131 
L 399.802073 279.835696 
L 400.523456 289.929436 
L 401.244839 282.359131 
L 401.966222 287.406001 
L 402.687605 275.629971 
L 403.408988 276.471116 
L 404.130372 275.629971 
L 404.851755 264.695086 
L 405.573138 228.525851 
L 406.294521 205.814936 
L 407.015904 212.544096 
L 407.737287 217.590966 
L 408.45867 226.002416 
L 409.180053 225.161271 
L 409.901437 321.892947 
L 410.62282 307.593481 
L 412.065586 307.593481 
L 412.786969 309.275771 
L 414.229735 307.593481 
L 414.951118 308.434626 
L 415.672502 308.434626 
L 416.393885 307.593481 
L 418.558034 307.593481 
L 419.279417 305.911191 
L 421.443566 295.817451 
L 422.16495 294.976306 
L 422.886333 303.387756 
L 423.607716 300.864321 
L 424.329099 304.228901 
L 425.050482 294.135161 
L 425.771865 297.499741 
L 426.493248 297.499741 
L 427.214631 294.135161 
L 427.936015 299.182031 
L 428.657398 285.723711 
L 429.378781 297.499741 
L 430.100164 286.564856 
L 430.821547 279.835696 
L 431.54293 285.723711 
L 432.264313 280.676841 
L 432.985696 300.864321 
L 433.70708 292.452871 
L 435.149846 278.153406 
L 435.871229 268.059666 
L 436.592612 264.695086 
L 437.313995 263.853941 
L 438.035378 265.536231 
L 438.756761 223.478981 
L 439.478144 235.255011 
L 440.199528 306.752336 
L 440.920911 306.752336 
L 441.642294 307.593481 
L 442.363677 307.593481 
L 443.08506 305.911191 
L 443.806443 305.070046 
L 444.527826 302.546611 
L 445.249209 298.340886 
L 445.970593 288.247146 
L 446.691976 296.658596 
L 447.413359 300.023176 
L 448.134742 299.182031 
L 448.856125 296.658596 
L 449.577508 294.976306 
L 450.298891 292.452871 
L 451.020274 296.658596 
L 451.741658 301.705466 
L 452.463041 300.023176 
L 453.184424 299.182031 
L 454.62719 299.182031 
L 455.348573 294.135161 
L 456.069956 299.182031 
L 456.791339 294.135161 
L 457.512722 287.406001 
L 458.234106 294.976306 
L 458.955489 292.452871 
L 459.676872 294.135161 
L 460.398255 297.499741 
L 461.119638 294.976306 
L 461.841021 282.359131 
L 462.562404 298.340886 
L 463.283787 285.723711 
L 464.005171 297.499741 
L 464.726554 286.564856 
L 465.447937 290.770581 
L 466.16932 282.359131 
L 466.890703 291.611726 
L 467.612086 267.218521 
L 468.333469 252.919056 
L 469.054852 220.955546 
L 469.776236 324.416382 
L 470.497619 302.546611 
L 471.219002 306.752336 
L 471.940385 307.593481 
L 476.990067 307.593481 
L 478.432833 305.911191 
L 479.154216 303.387756 
L 479.875599 301.705466 
L 480.596982 298.340886 
L 481.318365 293.294016 
L 482.039749 296.658596 
L 482.761132 301.705466 
L 483.482515 300.023176 
L 484.203898 302.546611 
L 484.925281 286.564856 
L 485.646664 295.817451 
L 486.368047 289.929436 
L 487.08943 297.499741 
L 487.810814 289.088291 
L 488.532197 288.247146 
L 489.25358 286.564856 
L 489.974963 290.770581 
L 490.696346 284.882566 
L 491.417729 270.583101 
L 492.139112 278.994551 
L 492.860495 278.153406 
L 493.581879 238.619591 
L 494.303262 210.020661 
L 495.024645 212.544096 
L 495.746028 228.525851 
L 496.467411 237.778446 
L 497.188794 250.395621 
L 497.910177 234.413866 
L 498.63156 230.208141 
L 499.352943 213.385241 
L 500.074327 291.611726 
L 500.79571 298.340886 
L 501.517093 303.387756 
L 501.517093 303.387756 
" style="fill:none;stroke:#d62728;stroke-linecap:square;stroke-width:1.5;"/>
   </g>
   <g id="patch_3">
    <path d="M 92.823906 352.174167 
L 92.823906 35.0625 
" style="fill:none;stroke:#000000;stroke-linecap:square;stroke-linejoin:miter;stroke-width:0.8;"/>
   </g>
   <g id="patch_4">
    <path d="M 529.912969 352.174167 
L 529.912969 35.0625 
" style="fill:none;stroke:#000000;stroke-linecap:square;stroke-linejoin:miter;stroke-width:0.8;"/>
   </g>
   <g id="patch_5">
    <path d="M 92.823906 352.174167 
L 529.912969 352.174167 
" style="fill:none;stroke:#000000;stroke-linecap:square;stroke-linejoin:miter;stroke-width:0.8;"/>
   </g>
   <g id="patch_6">
    <path d="M 92.823906 35.0625 
L 529.912969 35.0625 
" style="fill:none;stroke:#000000;stroke-linecap:square;stroke-linejoin:miter;stroke-width:0.8;"/>
   </g>
   <g id="legend_1">
    <g id="patch_7">
     <path d="M 553.767422 96.775 
L 624.962734 96.775 
Q 626.962734 96.775 626.962734 94.775 
L 626.962734 37.0625 
Q 626.962734 35.0625 624.962734 35.0625 
L 553.767422 35.0625 
Q 551.767422 35.0625 551.767422 37.0625 
L 551.767422 94.775 
Q 551.767422 96.775 553.767422 96.775 
z
" style="fill:#ffffff;opacity:0.8;stroke:#cccccc;stroke-linejoin:miter;"/>
    </g>
    <g id="line2d_19">
     <path d="M 555.767422 43.160937 
L 575.767422 43.160937 
" style="fill:none;stroke:#1f77b4;stroke-linecap:square;stroke-width:1.5;"/>
    </g>
    <g id="line2d_20"/>
    <g id="text_16">
     <!-- cubic-pi -->
     <defs>
      <path d="M 48.78125 52.59375 
L 48.78125 44.1875 
Q 44.96875 46.296875 41.140625 47.34375 
Q 37.3125 48.390625 33.40625 48.390625 
Q 24.65625 48.390625 19.8125 42.84375 
Q 14.984375 37.3125 14.984375 27.296875 
Q 14.984375 17.28125 19.8125 11.734375 
Q 24.65625 6.203125 33.40625 6.203125 
Q 37.3125 6.203125 41.140625 7.25 
Q 44.96875 8.296875 48.78125 10.40625 
L 48.78125 2.09375 
Q 45.015625 0.34375 40.984375 -0.53125 
Q 36.96875 -1.421875 32.421875 -1.421875 
Q 20.0625 -1.421875 12.78125 6.34375 
Q 5.515625 14.109375 5.515625 27.296875 
Q 5.515625 40.671875 12.859375 48.328125 
Q 20.21875 56 33.015625 56 
Q 37.15625 56 41.109375 55.140625 
Q 45.0625 54.296875 48.78125 52.59375 
z
" id="DejaVuSans-99"/>
      <path d="M 8.5 21.578125 
L 8.5 54.6875 
L 17.484375 54.6875 
L 17.484375 21.921875 
Q 17.484375 14.15625 20.5 10.265625 
Q 23.53125 6.390625 29.59375 6.390625 
Q 36.859375 6.390625 41.078125 11.03125 
Q 45.3125 15.671875 45.3125 23.6875 
L 45.3125 54.6875 
L 54.296875 54.6875 
L 54.296875 0 
L 45.3125 0 
L 45.3125 8.40625 
Q 42.046875 3.421875 37.71875 1 
Q 33.40625 -1.421875 27.6875 -1.421875 
Q 18.265625 -1.421875 13.375 4.4375 
Q 8.5 10.296875 8.5 21.578125 
z
M 31.109375 56 
z
" id="DejaVuSans-117"/>
      <path d="M 48.6875 27.296875 
Q 48.6875 37.203125 44.609375 42.84375 
Q 40.53125 48.484375 33.40625 48.484375 
Q 26.265625 48.484375 22.1875 42.84375 
Q 18.109375 37.203125 18.109375 27.296875 
Q 18.109375 17.390625 22.1875 11.75 
Q 26.265625 6.109375 33.40625 6.109375 
Q 40.53125 6.109375 44.609375 11.75 
Q 48.6875 17.390625 48.6875 27.296875 
z
M 18.109375 46.390625 
Q 20.953125 51.265625 25.265625 53.625 
Q 29.59375 56 35.59375 56 
Q 45.5625 56 51.78125 48.09375 
Q 58.015625 40.1875 58.015625 27.296875 
Q 58.015625 14.40625 51.78125 6.484375 
Q 45.5625 -1.421875 35.59375 -1.421875 
Q 29.59375 -1.421875 25.265625 0.953125 
Q 20.953125 3.328125 18.109375 8.203125 
L 18.109375 0 
L 9.078125 0 
L 9.078125 75.984375 
L 18.109375 75.984375 
z
" id="DejaVuSans-98"/>
      <path d="M 9.421875 54.6875 
L 18.40625 54.6875 
L 18.40625 0 
L 9.421875 0 
z
M 9.421875 75.984375 
L 18.40625 75.984375 
L 18.40625 64.59375 
L 9.421875 64.59375 
z
" id="DejaVuSans-105"/>
      <path d="M 4.890625 31.390625 
L 31.203125 31.390625 
L 31.203125 23.390625 
L 4.890625 23.390625 
z
" id="DejaVuSans-45"/>
      <path d="M 18.109375 8.203125 
L 18.109375 -20.796875 
L 9.078125 -20.796875 
L 9.078125 54.6875 
L 18.109375 54.6875 
L 18.109375 46.390625 
Q 20.953125 51.265625 25.265625 53.625 
Q 29.59375 56 35.59375 56 
Q 45.5625 56 51.78125 48.09375 
Q 58.015625 40.1875 58.015625 27.296875 
Q 58.015625 14.40625 51.78125 6.484375 
Q 45.5625 -1.421875 35.59375 -1.421875 
Q 29.59375 -1.421875 25.265625 0.953125 
Q 20.953125 3.328125 18.109375 8.203125 
z
M 48.6875 27.296875 
Q 48.6875 37.203125 44.609375 42.84375 
Q 40.53125 48.484375 33.40625 48.484375 
Q 26.265625 48.484375 22.1875 42.84375 
Q 18.109375 37.203125 18.109375 27.296875 
Q 18.109375 17.390625 22.1875 11.75 
Q 26.265625 6.109375 33.40625 6.109375 
Q 40.53125 6.109375 44.609375 11.75 
Q 48.6875 17.390625 48.6875 27.296875 
z
" id="DejaVuSans-112"/>
     </defs>
     <g transform="translate(583.767422 46.660937)scale(0.1 -0.1)">
      <use xlink:href="#DejaVuSans-99"/>
      <use x="54.980469" xlink:href="#DejaVuSans-117"/>
      <use x="118.359375" xlink:href="#DejaVuSans-98"/>
      <use x="181.835938" xlink:href="#DejaVuSans-105"/>
      <use x="209.619141" xlink:href="#DejaVuSans-99"/>
      <use x="264.599609" xlink:href="#DejaVuSans-45"/>
      <use x="300.683594" xlink:href="#DejaVuSans-112"/>
      <use x="364.160156" xlink:href="#DejaVuSans-105"/>
     </g>
    </g>
    <g id="line2d_21">
     <path d="M 555.767422 57.839063 
L 575.767422 57.839063 
" style="fill:none;stroke:#ff7f0e;stroke-linecap:square;stroke-width:1.5;"/>
    </g>
    <g id="line2d_22"/>
    <g id="text_17">
     <!-- bbr-pi -->
     <g transform="translate(583.767422 61.339063)scale(0.1 -0.1)">
      <use xlink:href="#DejaVuSans-98"/>
      <use x="63.476562" xlink:href="#DejaVuSans-98"/>
      <use x="126.953125" xlink:href="#DejaVuSans-114"/>
      <use x="167.972656" xlink:href="#DejaVuSans-45"/>
      <use x="204.056641" xlink:href="#DejaVuSans-112"/>
      <use x="267.533203" xlink:href="#DejaVuSans-105"/>
     </g>
    </g>
    <g id="line2d_23">
     <path d="M 555.767422 72.517187 
L 575.767422 72.517187 
" style="fill:none;stroke:#2ca02c;stroke-linecap:square;stroke-width:1.5;"/>
    </g>
    <g id="line2d_24"/>
    <g id="text_18">
     <!-- cubic-pi -->
     <g transform="translate(583.767422 76.017187)scale(0.1 -0.1)">
      <use xlink:href="#DejaVuSans-99"/>
      <use x="54.980469" xlink:href="#DejaVuSans-117"/>
      <use x="118.359375" xlink:href="#DejaVuSans-98"/>
      <use x="181.835938" xlink:href="#DejaVuSans-105"/>
      <use x="209.619141" xlink:href="#DejaVuSans-99"/>
      <use x="264.599609" xlink:href="#DejaVuSans-45"/>
      <use x="300.683594" xlink:href="#DejaVuSans-112"/>
      <use x="364.160156" xlink:href="#DejaVuSans-105"/>
     </g>
    </g>
    <g id="line2d_25">
     <path d="M 555.767422 87.195312 
L 575.767422 87.195312 
" style="fill:none;stroke:#d62728;stroke-linecap:square;stroke-width:1.5;"/>
    </g>
    <g id="line2d_26"/>
    <g id="text_19">
     <!-- bbr-pi -->
     <g transform="translate(583.767422 90.695312)scale(0.1 -0.1)">
      <use xlink:href="#DejaVuSans-98"/>
      <use x="63.476562" xlink:href="#DejaVuSans-98"/>
      <use x="126.953125" xlink:href="#DejaVuSans-114"/>
      <use x="167.972656" xlink:href="#DejaVuSans-45"/>
      <use x="204.056641" xlink:href="#DejaVuSans-112"/>
      <use x="267.533203" xlink:href="#DejaVuSans-105"/>
     </g>
    </g>
   </g>
  </g>
  <g id="text_20">
   <!-- result rtt -->
   <defs>
    <path d="M 56.203125 29.59375 
L 56.203125 25.203125 
L 14.890625 25.203125 
Q 15.484375 15.921875 20.484375 11.0625 
Q 25.484375 6.203125 34.421875 6.203125 
Q 39.59375 6.203125 44.453125 7.46875 
Q 49.3125 8.734375 54.109375 11.28125 
L 54.109375 2.78125 
Q 49.265625 0.734375 44.1875 -0.34375 
Q 39.109375 -1.421875 33.890625 -1.421875 
Q 20.796875 -1.421875 13.15625 6.1875 
Q 5.515625 13.8125 5.515625 26.8125 
Q 5.515625 40.234375 12.765625 48.109375 
Q 20.015625 56 32.328125 56 
Q 43.359375 56 49.78125 48.890625 
Q 56.203125 41.796875 56.203125 29.59375 
z
M 47.21875 32.234375 
Q 47.125 39.59375 43.09375 43.984375 
Q 39.0625 48.390625 32.421875 48.390625 
Q 24.90625 48.390625 20.390625 44.140625 
Q 15.875 39.890625 15.1875 32.171875 
z
" id="DejaVuSans-101"/>
    <path d="M 9.421875 75.984375 
L 18.40625 75.984375 
L 18.40625 0 
L 9.421875 0 
z
" id="DejaVuSans-108"/>
    <path id="DejaVuSans-32"/>
   </defs>
   <g transform="translate(315.818438 17.038125)scale(0.12 -0.12)">
    <use xlink:href="#DejaVuSans-114"/>
    <use x="41.082031" xlink:href="#DejaVuSans-101"/>
    <use x="102.605469" xlink:href="#DejaVuSans-115"/>
    <use x="154.705078" xlink:href="#DejaVuSans-117"/>
    <use x="218.083984" xlink:href="#DejaVuSans-108"/>
    <use x="245.867188" xlink:href="#DejaVuSans-116"/>
    <use x="285.076172" xlink:href="#DejaVuSans-32"/>
    <use x="316.863281" xlink:href="#DejaVuSans-114"/>
    <use x="357.976562" xlink:href="#DejaVuSans-116"/>
    <use x="397.185547" xlink:href="#DejaVuSans-116"/>
   </g>
  </g>
 </g>
 <defs>
  <clipPath id="pe8f44107d1">
   <rect height="317.111667" width="437.089062" x="92.823906" y="35.0625"/>
  </clipPath>
 </defs>
</svg>
