<?xml version="1.0" encoding="utf-8" standalone="no"?>
<!DOCTYPE svg PUBLIC "-//W3C//DTD SVG 1.1//EN"
  "http://www.w3.org/Graphics/SVG/1.1/DTD/svg11.dtd">
<!-- Created with matplotlib (https://matplotlib.org/) -->
<svg height="396pt" version="1.1" viewBox="0 0 684 396" width="684pt" xmlns="http://www.w3.org/2000/svg" xmlns:xlink="http://www.w3.org/1999/xlink">
 <defs>
  <style type="text/css">
*{stroke-linecap:butt;stroke-linejoin:round;}
  </style>
 </defs>
 <g id="figure_1">
  <g id="patch_1">
   <path d="M 0 396 
L 684 396 
L 684 0 
L 0 0 
z
" style="fill:#ffffff;"/>
  </g>
  <g id="axes_1">
   <g id="patch_2">
    <path d="M 120.878594 352.174167 
L 540.734062 352.174167 
L 540.734062 35.0625 
L 120.878594 35.0625 
z
" style="fill:#ffffff;"/>
   </g>
   <g id="matplotlib.axis_1">
    <g id="xtick_1">
     <g id="line2d_1">
      <defs>
       <path d="M 0 0 
L 0 3.5 
" id="mbb5d74bba1" style="stroke:#000000;stroke-width:0.8;"/>
      </defs>
      <g>
       <use style="stroke:#000000;stroke-width:0.8;" x="145.387304" xlink:href="#mbb5d74bba1" y="352.174167"/>
      </g>
     </g>
     <g id="text_1">
      <!-- 0 -->
      <defs>
       <path d="M 31.78125 66.40625 
Q 24.171875 66.40625 20.328125 58.90625 
Q 16.5 51.421875 16.5 36.375 
Q 16.5 21.390625 20.328125 13.890625 
Q 24.171875 6.390625 31.78125 6.390625 
Q 39.453125 6.390625 43.28125 13.890625 
Q 47.125 21.390625 47.125 36.375 
Q 47.125 51.421875 43.28125 58.90625 
Q 39.453125 66.40625 31.78125 66.40625 
z
M 31.78125 74.21875 
Q 44.046875 74.21875 50.515625 64.515625 
Q 56.984375 54.828125 56.984375 36.375 
Q 56.984375 17.96875 50.515625 8.265625 
Q 44.046875 -1.421875 31.78125 -1.421875 
Q 19.53125 -1.421875 13.0625 8.265625 
Q 6.59375 17.96875 6.59375 36.375 
Q 6.59375 54.828125 13.0625 64.515625 
Q 19.53125 74.21875 31.78125 74.21875 
z
" id="DejaVuSans-48"/>
      </defs>
      <g transform="translate(142.206054 366.772604)scale(0.1 -0.1)">
       <use xlink:href="#DejaVuSans-48"/>
      </g>
     </g>
    </g>
    <g id="xtick_2">
     <g id="line2d_2">
      <g>
       <use style="stroke:#000000;stroke-width:0.8;" x="212.115235" xlink:href="#mbb5d74bba1" y="352.174167"/>
      </g>
     </g>
     <g id="text_2">
      <!-- 50 -->
      <defs>
       <path d="M 10.796875 72.90625 
L 49.515625 72.90625 
L 49.515625 64.59375 
L 19.828125 64.59375 
L 19.828125 46.734375 
Q 21.96875 47.46875 24.109375 47.828125 
Q 26.265625 48.1875 28.421875 48.1875 
Q 40.625 48.1875 47.75 41.5 
Q 54.890625 34.8125 54.890625 23.390625 
Q 54.890625 11.625 47.5625 5.09375 
Q 40.234375 -1.421875 26.90625 -1.421875 
Q 22.3125 -1.421875 17.546875 -0.640625 
Q 12.796875 0.140625 7.71875 1.703125 
L 7.71875 11.625 
Q 12.109375 9.234375 16.796875 8.0625 
Q 21.484375 6.890625 26.703125 6.890625 
Q 35.15625 6.890625 40.078125 11.328125 
Q 45.015625 15.765625 45.015625 23.390625 
Q 45.015625 31 40.078125 35.4375 
Q 35.15625 39.890625 26.703125 39.890625 
Q 22.75 39.890625 18.8125 39.015625 
Q 14.890625 38.140625 10.796875 36.28125 
z
" id="DejaVuSans-53"/>
      </defs>
      <g transform="translate(205.752735 366.772604)scale(0.1 -0.1)">
       <use xlink:href="#DejaVuSans-53"/>
       <use x="63.623047" xlink:href="#DejaVuSans-48"/>
      </g>
     </g>
    </g>
    <g id="xtick_3">
     <g id="line2d_3">
      <g>
       <use style="stroke:#000000;stroke-width:0.8;" x="278.843167" xlink:href="#mbb5d74bba1" y="352.174167"/>
      </g>
     </g>
     <g id="text_3">
      <!-- 100 -->
      <defs>
       <path d="M 12.40625 8.296875 
L 28.515625 8.296875 
L 28.515625 63.921875 
L 10.984375 60.40625 
L 10.984375 69.390625 
L 28.421875 72.90625 
L 38.28125 72.90625 
L 38.28125 8.296875 
L 54.390625 8.296875 
L 54.390625 0 
L 12.40625 0 
z
" id="DejaVuSans-49"/>
      </defs>
      <g transform="translate(269.299417 366.772604)scale(0.1 -0.1)">
       <use xlink:href="#DejaVuSans-49"/>
       <use x="63.623047" xlink:href="#DejaVuSans-48"/>
       <use x="127.246094" xlink:href="#DejaVuSans-48"/>
      </g>
     </g>
    </g>
    <g id="xtick_4">
     <g id="line2d_4">
      <g>
       <use style="stroke:#000000;stroke-width:0.8;" x="345.571098" xlink:href="#mbb5d74bba1" y="352.174167"/>
      </g>
     </g>
     <g id="text_4">
      <!-- 150 -->
      <g transform="translate(336.027348 366.772604)scale(0.1 -0.1)">
       <use xlink:href="#DejaVuSans-49"/>
       <use x="63.623047" xlink:href="#DejaVuSans-53"/>
       <use x="127.246094" xlink:href="#DejaVuSans-48"/>
      </g>
     </g>
    </g>
    <g id="xtick_5">
     <g id="line2d_5">
      <g>
       <use style="stroke:#000000;stroke-width:0.8;" x="412.299029" xlink:href="#mbb5d74bba1" y="352.174167"/>
      </g>
     </g>
     <g id="text_5">
      <!-- 200 -->
      <defs>
       <path d="M 19.1875 8.296875 
L 53.609375 8.296875 
L 53.609375 0 
L 7.328125 0 
L 7.328125 8.296875 
Q 12.9375 14.109375 22.625 23.890625 
Q 32.328125 33.6875 34.8125 36.53125 
Q 39.546875 41.84375 41.421875 45.53125 
Q 43.3125 49.21875 43.3125 52.78125 
Q 43.3125 58.59375 39.234375 62.25 
Q 35.15625 65.921875 28.609375 65.921875 
Q 23.96875 65.921875 18.8125 64.3125 
Q 13.671875 62.703125 7.8125 59.421875 
L 7.8125 69.390625 
Q 13.765625 71.78125 18.9375 73 
Q 24.125 74.21875 28.421875 74.21875 
Q 39.75 74.21875 46.484375 68.546875 
Q 53.21875 62.890625 53.21875 53.421875 
Q 53.21875 48.921875 51.53125 44.890625 
Q 49.859375 40.875 45.40625 35.40625 
Q 44.1875 33.984375 37.640625 27.21875 
Q 31.109375 20.453125 19.1875 8.296875 
z
" id="DejaVuSans-50"/>
      </defs>
      <g transform="translate(402.755279 366.772604)scale(0.1 -0.1)">
       <use xlink:href="#DejaVuSans-50"/>
       <use x="63.623047" xlink:href="#DejaVuSans-48"/>
       <use x="127.246094" xlink:href="#DejaVuSans-48"/>
      </g>
     </g>
    </g>
    <g id="xtick_6">
     <g id="line2d_6">
      <g>
       <use style="stroke:#000000;stroke-width:0.8;" x="479.02696" xlink:href="#mbb5d74bba1" y="352.174167"/>
      </g>
     </g>
     <g id="text_6">
      <!-- 250 -->
      <g transform="translate(469.48321 366.772604)scale(0.1 -0.1)">
       <use xlink:href="#DejaVuSans-50"/>
       <use x="63.623047" xlink:href="#DejaVuSans-53"/>
       <use x="127.246094" xlink:href="#DejaVuSans-48"/>
      </g>
     </g>
    </g>
   </g>
   <g id="matplotlib.axis_2">
    <g id="ytick_1">
     <g id="line2d_7">
      <defs>
       <path d="M 0 0 
L -3.5 0 
" id="mce3a43f428" style="stroke:#000000;stroke-width:0.8;"/>
      </defs>
      <g>
       <use style="stroke:#000000;stroke-width:0.8;" x="120.878594" xlink:href="#mce3a43f428" y="352.174167"/>
      </g>
     </g>
     <g id="text_7">
      <!-- 0 -->
      <g transform="translate(107.516094 355.973385)scale(0.1 -0.1)">
       <use xlink:href="#DejaVuSans-48"/>
      </g>
     </g>
    </g>
    <g id="ytick_2">
     <g id="line2d_8">
      <g>
       <use style="stroke:#000000;stroke-width:0.8;" x="120.878594" xlink:href="#mce3a43f428" y="303.520767"/>
      </g>
     </g>
     <g id="text_8">
      <!-- 20000 -->
      <g transform="translate(82.066094 307.319986)scale(0.1 -0.1)">
       <use xlink:href="#DejaVuSans-50"/>
       <use x="63.623047" xlink:href="#DejaVuSans-48"/>
       <use x="127.246094" xlink:href="#DejaVuSans-48"/>
       <use x="190.869141" xlink:href="#DejaVuSans-48"/>
       <use x="254.492188" xlink:href="#DejaVuSans-48"/>
      </g>
     </g>
    </g>
    <g id="ytick_3">
     <g id="line2d_9">
      <g>
       <use style="stroke:#000000;stroke-width:0.8;" x="120.878594" xlink:href="#mce3a43f428" y="254.867368"/>
      </g>
     </g>
     <g id="text_9">
      <!-- 40000 -->
      <defs>
       <path d="M 37.796875 64.3125 
L 12.890625 25.390625 
L 37.796875 25.390625 
z
M 35.203125 72.90625 
L 47.609375 72.90625 
L 47.609375 25.390625 
L 58.015625 25.390625 
L 58.015625 17.1875 
L 47.609375 17.1875 
L 47.609375 0 
L 37.796875 0 
L 37.796875 17.1875 
L 4.890625 17.1875 
L 4.890625 26.703125 
z
" id="DejaVuSans-52"/>
      </defs>
      <g transform="translate(82.066094 258.666587)scale(0.1 -0.1)">
       <use xlink:href="#DejaVuSans-52"/>
       <use x="63.623047" xlink:href="#DejaVuSans-48"/>
       <use x="127.246094" xlink:href="#DejaVuSans-48"/>
       <use x="190.869141" xlink:href="#DejaVuSans-48"/>
       <use x="254.492188" xlink:href="#DejaVuSans-48"/>
      </g>
     </g>
    </g>
    <g id="ytick_4">
     <g id="line2d_10">
      <g>
       <use style="stroke:#000000;stroke-width:0.8;" x="120.878594" xlink:href="#mce3a43f428" y="206.213969"/>
      </g>
     </g>
     <g id="text_10">
      <!-- 60000 -->
      <defs>
       <path d="M 33.015625 40.375 
Q 26.375 40.375 22.484375 35.828125 
Q 18.609375 31.296875 18.609375 23.390625 
Q 18.609375 15.53125 22.484375 10.953125 
Q 26.375 6.390625 33.015625 6.390625 
Q 39.65625 6.390625 43.53125 10.953125 
Q 47.40625 15.53125 47.40625 23.390625 
Q 47.40625 31.296875 43.53125 35.828125 
Q 39.65625 40.375 33.015625 40.375 
z
M 52.59375 71.296875 
L 52.59375 62.3125 
Q 48.875 64.0625 45.09375 64.984375 
Q 41.3125 65.921875 37.59375 65.921875 
Q 27.828125 65.921875 22.671875 59.328125 
Q 17.53125 52.734375 16.796875 39.40625 
Q 19.671875 43.65625 24.015625 45.921875 
Q 28.375 48.1875 33.59375 48.1875 
Q 44.578125 48.1875 50.953125 41.515625 
Q 57.328125 34.859375 57.328125 23.390625 
Q 57.328125 12.15625 50.6875 5.359375 
Q 44.046875 -1.421875 33.015625 -1.421875 
Q 20.359375 -1.421875 13.671875 8.265625 
Q 6.984375 17.96875 6.984375 36.375 
Q 6.984375 53.65625 15.1875 63.9375 
Q 23.390625 74.21875 37.203125 74.21875 
Q 40.921875 74.21875 44.703125 73.484375 
Q 48.484375 72.75 52.59375 71.296875 
z
" id="DejaVuSans-54"/>
      </defs>
      <g transform="translate(82.066094 210.013187)scale(0.1 -0.1)">
       <use xlink:href="#DejaVuSans-54"/>
       <use x="63.623047" xlink:href="#DejaVuSans-48"/>
       <use x="127.246094" xlink:href="#DejaVuSans-48"/>
       <use x="190.869141" xlink:href="#DejaVuSans-48"/>
       <use x="254.492188" xlink:href="#DejaVuSans-48"/>
      </g>
     </g>
    </g>
    <g id="ytick_5">
     <g id="line2d_11">
      <g>
       <use style="stroke:#000000;stroke-width:0.8;" x="120.878594" xlink:href="#mce3a43f428" y="157.560569"/>
      </g>
     </g>
     <g id="text_11">
      <!-- 80000 -->
      <defs>
       <path d="M 31.78125 34.625 
Q 24.75 34.625 20.71875 30.859375 
Q 16.703125 27.09375 16.703125 20.515625 
Q 16.703125 13.921875 20.71875 10.15625 
Q 24.75 6.390625 31.78125 6.390625 
Q 38.8125 6.390625 42.859375 10.171875 
Q 46.921875 13.96875 46.921875 20.515625 
Q 46.921875 27.09375 42.890625 30.859375 
Q 38.875 34.625 31.78125 34.625 
z
M 21.921875 38.8125 
Q 15.578125 40.375 12.03125 44.71875 
Q 8.5 49.078125 8.5 55.328125 
Q 8.5 64.0625 14.71875 69.140625 
Q 20.953125 74.21875 31.78125 74.21875 
Q 42.671875 74.21875 48.875 69.140625 
Q 55.078125 64.0625 55.078125 55.328125 
Q 55.078125 49.078125 51.53125 44.71875 
Q 48 40.375 41.703125 38.8125 
Q 48.828125 37.15625 52.796875 32.3125 
Q 56.78125 27.484375 56.78125 20.515625 
Q 56.78125 9.90625 50.3125 4.234375 
Q 43.84375 -1.421875 31.78125 -1.421875 
Q 19.734375 -1.421875 13.25 4.234375 
Q 6.78125 9.90625 6.78125 20.515625 
Q 6.78125 27.484375 10.78125 32.3125 
Q 14.796875 37.15625 21.921875 38.8125 
z
M 18.3125 54.390625 
Q 18.3125 48.734375 21.84375 45.5625 
Q 25.390625 42.390625 31.78125 42.390625 
Q 38.140625 42.390625 41.71875 45.5625 
Q 45.3125 48.734375 45.3125 54.390625 
Q 45.3125 60.0625 41.71875 63.234375 
Q 38.140625 66.40625 31.78125 66.40625 
Q 25.390625 66.40625 21.84375 63.234375 
Q 18.3125 60.0625 18.3125 54.390625 
z
" id="DejaVuSans-56"/>
      </defs>
      <g transform="translate(82.066094 161.359788)scale(0.1 -0.1)">
       <use xlink:href="#DejaVuSans-56"/>
       <use x="63.623047" xlink:href="#DejaVuSans-48"/>
       <use x="127.246094" xlink:href="#DejaVuSans-48"/>
       <use x="190.869141" xlink:href="#DejaVuSans-48"/>
       <use x="254.492188" xlink:href="#DejaVuSans-48"/>
      </g>
     </g>
    </g>
    <g id="ytick_6">
     <g id="line2d_12">
      <g>
       <use style="stroke:#000000;stroke-width:0.8;" x="120.878594" xlink:href="#mce3a43f428" y="108.90717"/>
      </g>
     </g>
     <g id="text_12">
      <!-- 100000 -->
      <g transform="translate(75.703594 112.706389)scale(0.1 -0.1)">
       <use xlink:href="#DejaVuSans-49"/>
       <use x="63.623047" xlink:href="#DejaVuSans-48"/>
       <use x="127.246094" xlink:href="#DejaVuSans-48"/>
       <use x="190.869141" xlink:href="#DejaVuSans-48"/>
       <use x="254.492188" xlink:href="#DejaVuSans-48"/>
       <use x="318.115234" xlink:href="#DejaVuSans-48"/>
      </g>
     </g>
    </g>
    <g id="ytick_7">
     <g id="line2d_13">
      <g>
       <use style="stroke:#000000;stroke-width:0.8;" x="120.878594" xlink:href="#mce3a43f428" y="60.253771"/>
      </g>
     </g>
     <g id="text_13">
      <!-- 120000 -->
      <g transform="translate(75.703594 64.052989)scale(0.1 -0.1)">
       <use xlink:href="#DejaVuSans-49"/>
       <use x="63.623047" xlink:href="#DejaVuSans-50"/>
       <use x="127.246094" xlink:href="#DejaVuSans-48"/>
       <use x="190.869141" xlink:href="#DejaVuSans-48"/>
       <use x="254.492188" xlink:href="#DejaVuSans-48"/>
       <use x="318.115234" xlink:href="#DejaVuSans-48"/>
      </g>
     </g>
    </g>
    <g id="text_14">
     <!-- queue -->
     <defs>
      <path d="M 14.796875 27.296875 
Q 14.796875 17.390625 18.875 11.75 
Q 22.953125 6.109375 30.078125 6.109375 
Q 37.203125 6.109375 41.296875 11.75 
Q 45.40625 17.390625 45.40625 27.296875 
Q 45.40625 37.203125 41.296875 42.84375 
Q 37.203125 48.484375 30.078125 48.484375 
Q 22.953125 48.484375 18.875 42.84375 
Q 14.796875 37.203125 14.796875 27.296875 
z
M 45.40625 8.203125 
Q 42.578125 3.328125 38.25 0.953125 
Q 33.9375 -1.421875 27.875 -1.421875 
Q 17.96875 -1.421875 11.734375 6.484375 
Q 5.515625 14.40625 5.515625 27.296875 
Q 5.515625 40.1875 11.734375 48.09375 
Q 17.96875 56 27.875 56 
Q 33.9375 56 38.25 53.625 
Q 42.578125 51.265625 45.40625 46.390625 
L 45.40625 54.6875 
L 54.390625 54.6875 
L 54.390625 -20.796875 
L 45.40625 -20.796875 
z
" id="DejaVuSans-113"/>
      <path d="M 8.5 21.578125 
L 8.5 54.6875 
L 17.484375 54.6875 
L 17.484375 21.921875 
Q 17.484375 14.15625 20.5 10.265625 
Q 23.53125 6.390625 29.59375 6.390625 
Q 36.859375 6.390625 41.078125 11.03125 
Q 45.3125 15.671875 45.3125 23.6875 
L 45.3125 54.6875 
L 54.296875 54.6875 
L 54.296875 0 
L 45.3125 0 
L 45.3125 8.40625 
Q 42.046875 3.421875 37.71875 1 
Q 33.40625 -1.421875 27.6875 -1.421875 
Q 18.265625 -1.421875 13.375 4.4375 
Q 8.5 10.296875 8.5 21.578125 
z
M 31.109375 56 
z
" id="DejaVuSans-117"/>
      <path d="M 56.203125 29.59375 
L 56.203125 25.203125 
L 14.890625 25.203125 
Q 15.484375 15.921875 20.484375 11.0625 
Q 25.484375 6.203125 34.421875 6.203125 
Q 39.59375 6.203125 44.453125 7.46875 
Q 49.3125 8.734375 54.109375 11.28125 
L 54.109375 2.78125 
Q 49.265625 0.734375 44.1875 -0.34375 
Q 39.109375 -1.421875 33.890625 -1.421875 
Q 20.796875 -1.421875 13.15625 6.1875 
Q 5.515625 13.8125 5.515625 26.8125 
Q 5.515625 40.234375 12.765625 48.109375 
Q 20.015625 56 32.328125 56 
Q 43.359375 56 49.78125 48.890625 
Q 56.203125 41.796875 56.203125 29.59375 
z
M 47.21875 32.234375 
Q 47.125 39.59375 43.09375 43.984375 
Q 39.0625 48.390625 32.421875 48.390625 
Q 24.90625 48.390625 20.390625 44.140625 
Q 15.875 39.890625 15.1875 32.171875 
z
" id="DejaVuSans-101"/>
     </defs>
     <g transform="translate(58.426094 209.283177)rotate(-90)scale(0.1 -0.1)">
      <use xlink:href="#DejaVuSans-113"/>
      <use x="63.476562" xlink:href="#DejaVuSans-117"/>
      <use x="126.855469" xlink:href="#DejaVuSans-101"/>
      <use x="188.378906" xlink:href="#DejaVuSans-117"/>
      <use x="251.757812" xlink:href="#DejaVuSans-101"/>
     </g>
     <!-- (bytes) -->
     <defs>
      <path d="M 31 75.875 
Q 24.46875 64.65625 21.28125 53.65625 
Q 18.109375 42.671875 18.109375 31.390625 
Q 18.109375 20.125 21.3125 9.0625 
Q 24.515625 -2 31 -13.1875 
L 23.1875 -13.1875 
Q 15.875 -1.703125 12.234375 9.375 
Q 8.59375 20.453125 8.59375 31.390625 
Q 8.59375 42.28125 12.203125 53.3125 
Q 15.828125 64.359375 23.1875 75.875 
z
" id="DejaVuSans-40"/>
      <path d="M 48.6875 27.296875 
Q 48.6875 37.203125 44.609375 42.84375 
Q 40.53125 48.484375 33.40625 48.484375 
Q 26.265625 48.484375 22.1875 42.84375 
Q 18.109375 37.203125 18.109375 27.296875 
Q 18.109375 17.390625 22.1875 11.75 
Q 26.265625 6.109375 33.40625 6.109375 
Q 40.53125 6.109375 44.609375 11.75 
Q 48.6875 17.390625 48.6875 27.296875 
z
M 18.109375 46.390625 
Q 20.953125 51.265625 25.265625 53.625 
Q 29.59375 56 35.59375 56 
Q 45.5625 56 51.78125 48.09375 
Q 58.015625 40.1875 58.015625 27.296875 
Q 58.015625 14.40625 51.78125 6.484375 
Q 45.5625 -1.421875 35.59375 -1.421875 
Q 29.59375 -1.421875 25.265625 0.953125 
Q 20.953125 3.328125 18.109375 8.203125 
L 18.109375 0 
L 9.078125 0 
L 9.078125 75.984375 
L 18.109375 75.984375 
z
" id="DejaVuSans-98"/>
      <path d="M 32.171875 -5.078125 
Q 28.375 -14.84375 24.75 -17.8125 
Q 21.140625 -20.796875 15.09375 -20.796875 
L 7.90625 -20.796875 
L 7.90625 -13.28125 
L 13.1875 -13.28125 
Q 16.890625 -13.28125 18.9375 -11.515625 
Q 21 -9.765625 23.484375 -3.21875 
L 25.09375 0.875 
L 2.984375 54.6875 
L 12.5 54.6875 
L 29.59375 11.921875 
L 46.6875 54.6875 
L 56.203125 54.6875 
z
" id="DejaVuSans-121"/>
      <path d="M 18.3125 70.21875 
L 18.3125 54.6875 
L 36.8125 54.6875 
L 36.8125 47.703125 
L 18.3125 47.703125 
L 18.3125 18.015625 
Q 18.3125 11.328125 20.140625 9.421875 
Q 21.96875 7.515625 27.59375 7.515625 
L 36.8125 7.515625 
L 36.8125 0 
L 27.59375 0 
Q 17.1875 0 13.234375 3.875 
Q 9.28125 7.765625 9.28125 18.015625 
L 9.28125 47.703125 
L 2.6875 47.703125 
L 2.6875 54.6875 
L 9.28125 54.6875 
L 9.28125 70.21875 
z
" id="DejaVuSans-116"/>
      <path d="M 44.28125 53.078125 
L 44.28125 44.578125 
Q 40.484375 46.53125 36.375 47.5 
Q 32.28125 48.484375 27.875 48.484375 
Q 21.1875 48.484375 17.84375 46.4375 
Q 14.5 44.390625 14.5 40.28125 
Q 14.5 37.15625 16.890625 35.375 
Q 19.28125 33.59375 26.515625 31.984375 
L 29.59375 31.296875 
Q 39.15625 29.25 43.1875 25.515625 
Q 47.21875 21.78125 47.21875 15.09375 
Q 47.21875 7.46875 41.1875 3.015625 
Q 35.15625 -1.421875 24.609375 -1.421875 
Q 20.21875 -1.421875 15.453125 -0.5625 
Q 10.6875 0.296875 5.421875 2 
L 5.421875 11.28125 
Q 10.40625 8.6875 15.234375 7.390625 
Q 20.0625 6.109375 24.8125 6.109375 
Q 31.15625 6.109375 34.5625 8.28125 
Q 37.984375 10.453125 37.984375 14.40625 
Q 37.984375 18.0625 35.515625 20.015625 
Q 33.0625 21.96875 24.703125 23.78125 
L 21.578125 24.515625 
Q 13.234375 26.265625 9.515625 29.90625 
Q 5.8125 33.546875 5.8125 39.890625 
Q 5.8125 47.609375 11.28125 51.796875 
Q 16.75 56 26.8125 56 
Q 31.78125 56 36.171875 55.265625 
Q 40.578125 54.546875 44.28125 53.078125 
z
" id="DejaVuSans-115"/>
      <path d="M 8.015625 75.875 
L 15.828125 75.875 
Q 23.140625 64.359375 26.78125 53.3125 
Q 30.421875 42.28125 30.421875 31.390625 
Q 30.421875 20.453125 26.78125 9.375 
Q 23.140625 -1.703125 15.828125 -13.1875 
L 8.015625 -13.1875 
Q 14.5 -2 17.703125 9.0625 
Q 20.90625 20.125 20.90625 31.390625 
Q 20.90625 42.671875 17.703125 53.65625 
Q 14.5 64.65625 8.015625 75.875 
z
" id="DejaVuSans-41"/>
     </defs>
     <g transform="translate(69.623906 211.294896)rotate(-90)scale(0.1 -0.1)">
      <use xlink:href="#DejaVuSans-40"/>
      <use x="39.013672" xlink:href="#DejaVuSans-98"/>
      <use x="102.490234" xlink:href="#DejaVuSans-121"/>
      <use x="161.669922" xlink:href="#DejaVuSans-116"/>
      <use x="200.878906" xlink:href="#DejaVuSans-101"/>
      <use x="262.402344" xlink:href="#DejaVuSans-115"/>
      <use x="314.501953" xlink:href="#DejaVuSans-41"/>
     </g>
    </g>
   </g>
   <g id="line2d_14">
    <path clip-path="url(#p236765e37c)" d="M 139.962933 352.174167 
L 144.840767 352.174167 
L 144.990238 50.163056 
L 145.130511 50.163056 
L 145.411009 274.829858 
L 145.553458 153.288801 
L 145.701195 234.316172 
L 145.995342 252.731484 
L 146.14225 256.414546 
L 146.282591 274.829858 
L 146.422853 267.478329 
L 146.703381 289.562107 
L 146.845437 234.316172 
L 146.990126 300.611294 
L 147.131809 156.971863 
L 147.272886 322.709668 
L 147.838583 50.163056 
L 148.120424 50.163056 
L 148.261508 64.895305 
L 148.546363 127.507364 
L 149.255125 230.63311 
L 149.398286 234.316172 
L 150.110165 333.758855 
L 150.392865 57.52918 
L 150.534071 52.128653 
L 150.675442 53.846118 
L 150.816139 57.52918 
L 151.100603 57.52918 
L 151.241135 53.846118 
L 151.382563 53.846118 
L 151.523307 61.212243 
L 151.664117 50.163056 
L 151.804423 57.52918 
L 151.945118 53.846118 
L 152.087607 53.846118 
L 152.230816 64.895305 
L 152.371996 53.846118 
L 152.938478 53.846118 
L 153.078761 57.52918 
L 153.219197 50.163056 
L 153.501661 61.212243 
L 153.643811 64.895305 
L 153.927989 53.846118 
L 154.071228 50.163056 
L 154.212783 53.846118 
L 154.355054 53.846118 
L 154.496058 57.52918 
L 154.77698 75.944492 
L 154.917856 57.52918 
L 155.062085 79.627554 
L 155.202989 57.52918 
L 155.485192 57.52918 
L 155.766903 64.895305 
L 155.907988 50.163056 
L 156.050617 50.163056 
L 156.194362 57.52918 
L 156.337744 50.163056 
L 156.620307 50.163056 
L 156.762167 53.846118 
L 156.90338 53.846118 
L 157.046403 50.163056 
L 157.188574 61.212243 
L 157.330592 61.212243 
L 157.61711 53.846118 
L 157.758356 57.52918 
L 157.899994 53.846118 
L 158.041201 64.895305 
L 158.184202 249.048421 
L 158.326934 241.682297 
L 158.752124 57.52918 
L 158.89506 50.163056 
L 159.178754 57.52918 
L 159.320741 57.52918 
L 159.464852 61.212243 
L 159.607007 186.436362 
L 160.031785 64.895305 
L 160.173403 98.042866 
L 160.315947 53.846118 
L 160.457433 322.709668 
L 160.598138 315.343543 
L 160.741065 271.146795 
L 160.884296 352.174167 
L 161.030482 352.174167 
L 161.172895 344.808042 
L 161.876483 57.52918 
L 162.017215 256.414546 
L 162.161144 50.163056 
L 162.304373 50.163056 
L 162.444684 57.52918 
L 162.584721 90.676741 
L 162.724708 50.163056 
L 162.866766 53.846118 
L 163.007041 53.846118 
L 163.147415 61.212243 
L 163.28768 53.846118 
L 163.427819 64.895305 
L 163.568303 50.163056 
L 163.849963 64.895305 
L 163.990156 53.846118 
L 164.1304 53.846118 
L 164.273731 61.212243 
L 164.414766 53.846118 
L 164.555514 53.846118 
L 164.696388 50.163056 
L 164.837166 57.52918 
L 164.980971 86.993679 
L 165.121164 53.846118 
L 165.261134 64.895305 
L 165.401066 64.895305 
L 165.542175 53.846118 
L 165.683427 61.212243 
L 165.963504 53.846118 
L 166.103608 53.846118 
L 166.243746 50.163056 
L 166.38403 57.52918 
L 166.524068 53.846118 
L 166.664285 61.212243 
L 166.804197 57.52918 
L 167.086161 57.52918 
L 167.366742 72.26143 
L 167.646867 53.846118 
L 167.786796 61.212243 
L 167.926781 53.846118 
L 168.06695 61.212243 
L 168.208185 53.846118 
L 168.348882 53.846118 
L 168.489393 64.895305 
L 168.769348 57.52918 
L 168.909798 57.52918 
L 169.051447 53.846118 
L 169.191742 68.578367 
L 169.472554 57.52918 
L 169.615174 57.52918 
L 169.756207 50.163056 
L 169.897133 57.52918 
L 170.037374 53.846118 
L 170.177593 57.52918 
L 170.317889 50.163056 
L 170.599014 68.578367 
L 170.739346 57.52918 
L 170.880664 61.212243 
L 171.021717 61.11007 
L 171.161873 53.846118 
L 171.301876 57.52918 
L 171.582852 57.52918 
L 171.723188 53.846118 
L 172.003623 64.895305 
L 172.144119 57.52918 
L 172.427712 57.52918 
L 172.568114 64.895305 
L 172.70846 50.163056 
L 172.848959 57.52918 
L 172.989835 57.52918 
L 173.131343 53.846118 
L 173.271595 57.52918 
L 173.412128 68.578367 
L 173.554116 57.52918 
L 173.837005 64.895305 
L 173.979419 348.491104 
L 174.4011 61.212243 
L 174.54166 61.212243 
L 174.682687 53.846118 
L 174.823558 230.63311 
L 174.966389 168.02105 
L 175.106935 53.846118 
L 175.247442 57.52918 
L 175.387767 50.163056 
L 175.528354 53.846118 
L 175.668862 61.212243 
L 175.809369 50.163056 
L 175.949722 50.163056 
L 176.232312 75.944492 
L 176.373987 98.042866 
L 176.654947 53.846118 
L 176.795699 57.52918 
L 176.93594 57.52918 
L 177.076707 53.846118 
L 177.217475 53.846118 
L 177.358001 57.52918 
L 177.498485 57.52918 
L 177.640192 68.578367 
L 177.780669 50.163056 
L 178.06134 61.212243 
L 178.201593 61.212243 
L 178.342133 53.846118 
L 178.482529 53.846118 
L 178.622886 50.163056 
L 178.76309 57.52918 
L 178.904303 134.873489 
L 179.045198 112.775115 
L 179.187055 53.846118 
L 179.328559 57.52918 
L 179.470634 57.52918 
L 179.612162 61.212243 
L 179.755513 61.212243 
L 179.898722 53.846118 
L 180.042078 64.895305 
L 180.185023 61.212243 
L 180.327361 86.993679 
L 180.468555 57.52918 
L 180.609794 68.578367 
L 180.751841 201.168611 
L 180.893134 53.846118 
L 181.034662 171.704112 
L 181.176272 57.52918 
L 181.317689 153.288801 
L 181.459351 64.895305 
L 181.601248 120.14124 
L 181.883438 53.846118 
L 182.024939 64.895305 
L 182.16614 105.408991 
L 182.308463 53.846118 
L 182.449599 64.895305 
L 182.732855 53.846118 
L 182.874862 57.52918 
L 183.016642 79.627554 
L 183.158683 61.212243 
L 183.300081 109.092053 
L 183.583261 86.993679 
L 183.724848 120.14124 
L 183.866273 68.578367 
L 184.006801 64.895305 
L 184.289356 53.846118 
L 184.430652 57.52918 
L 184.571756 68.578367 
L 184.712714 53.846118 
L 184.853836 72.26143 
L 184.995056 53.846118 
L 185.135994 61.212243 
L 185.417579 53.846118 
L 185.558368 61.212243 
L 185.700305 53.846118 
L 185.841697 53.846118 
L 185.982935 57.52918 
L 186.124116 50.163056 
L 186.265456 64.895305 
L 186.547975 57.52918 
L 186.689712 57.52918 
L 186.830885 53.846118 
L 187.116994 61.212243 
L 187.258297 57.52918 
L 187.400469 352.174167 
L 187.545835 352.174167 
L 187.689904 274.829858 
L 187.837371 352.174167 
L 187.984802 341.12498 
L 188.125133 75.944492 
L 188.266089 53.846118 
L 188.54911 53.846118 
L 188.690395 50.163056 
L 188.972585 57.52918 
L 189.113824 53.846118 
L 189.254668 53.846118 
L 189.395742 79.627554 
L 189.537943 61.212243 
L 189.679165 61.212243 
L 189.962363 112.775115 
L 190.103838 57.52918 
L 190.244906 64.895305 
L 190.386117 61.212243 
L 190.527664 145.922676 
L 190.66951 131.190427 
L 190.811946 53.846118 
L 190.953253 212.217798 
L 191.094698 68.578367 
L 191.236201 53.846118 
L 191.377869 57.52918 
L 191.519515 50.163056 
L 191.661127 57.52918 
L 191.801303 57.52918 
L 191.941726 53.846118 
L 192.082314 61.212243 
L 192.22331 57.52918 
L 192.363936 68.578367 
L 192.650998 57.52918 
L 192.791485 57.52918 
L 192.931846 61.212243 
L 193.072517 61.212243 
L 193.212887 53.846118 
L 193.353594 64.895305 
L 193.494938 57.52918 
L 193.635928 57.52918 
L 193.776677 53.846118 
L 193.918671 61.212243 
L 194.200534 53.846118 
L 194.341106 57.52918 
L 194.482973 53.846118 
L 194.624614 64.895305 
L 194.766929 50.163056 
L 194.908885 90.676741 
L 195.051365 179.070237 
L 195.194211 153.288801 
L 195.334428 57.52918 
L 195.476411 57.52918 
L 195.618835 64.895305 
L 195.760038 53.846118 
L 195.899781 53.846118 
L 196.182599 61.212243 
L 196.324128 61.212243 
L 196.606718 53.846118 
L 196.748251 57.52918 
L 196.888963 64.895305 
L 197.171023 57.52918 
L 197.313343 57.52918 
L 197.454228 53.846118 
L 197.596166 61.212243 
L 197.736913 61.212243 
L 197.878995 53.846118 
L 198.020042 61.212243 
L 198.160326 57.52918 
L 198.301712 50.163056 
L 198.442688 50.163056 
L 198.724656 57.52918 
L 198.865908 53.846118 
L 199.007265 53.846118 
L 199.150702 50.163056 
L 199.290848 53.846118 
L 199.431754 123.824302 
L 199.572491 127.507364 
L 199.713805 53.846118 
L 199.854467 142.239614 
L 199.995377 57.52918 
L 200.138006 57.52918 
L 200.279594 50.163056 
L 200.703724 61.212243 
L 200.844391 75.944492 
L 200.989454 352.174167 
L 201.136555 315.343543 
L 201.278245 219.583923 
L 201.420994 352.174167 
L 201.568668 352.174167 
L 201.718223 282.195982 
L 201.859559 53.846118 
L 202.000582 57.52918 
L 202.143489 123.824302 
L 202.566749 53.846118 
L 202.707103 50.163056 
L 202.989627 61.212243 
L 203.132067 50.163056 
L 203.273398 53.846118 
L 203.413887 64.895305 
L 203.554041 53.846118 
L 203.694389 57.52918 
L 203.834236 50.163056 
L 203.974338 61.212243 
L 204.115434 53.846118 
L 204.256476 57.52918 
L 204.397866 142.239614 
L 204.680195 53.846118 
L 204.821757 68.578367 
L 204.962069 127.507364 
L 205.102322 53.846118 
L 205.242487 64.895305 
L 205.382595 53.846118 
L 205.523323 53.846118 
L 205.663954 57.52918 
L 205.804749 53.846118 
L 205.945255 57.52918 
L 206.086271 50.163056 
L 206.227314 53.846118 
L 206.368836 53.846118 
L 206.509682 50.163056 
L 206.652471 68.578367 
L 206.792872 53.846118 
L 206.934633 57.52918 
L 207.075941 68.578367 
L 207.216388 64.895305 
L 207.356606 75.944492 
L 207.496914 72.26143 
L 207.637477 75.944492 
L 207.778216 53.846118 
L 207.920339 79.627554 
L 208.060528 53.846118 
L 208.201877 61.212243 
L 208.344812 53.846118 
L 208.626837 53.846118 
L 208.767509 61.212243 
L 208.909048 57.52918 
L 209.05078 57.52918 
L 209.192415 53.846118 
L 209.333985 57.52918 
L 209.476718 86.993679 
L 209.618146 57.52918 
L 209.759382 53.846118 
L 209.899821 61.212243 
L 210.180458 50.163056 
L 210.320797 50.163056 
L 210.461152 61.212243 
L 210.601511 57.52918 
L 210.742629 64.895305 
L 210.883627 61.212243 
L 211.025425 53.846118 
L 211.166127 68.578367 
L 211.306757 53.846118 
L 211.447102 83.310617 
L 211.588687 311.660481 
L 211.730412 64.895305 
L 212.014874 249.048421 
L 212.156496 53.846118 
L 212.298081 86.993679 
L 212.439351 156.971863 
L 212.579674 68.578367 
L 212.860271 53.846118 
L 213.000385 68.578367 
L 213.140675 57.52918 
L 213.281025 98.042866 
L 213.42203 86.993679 
L 213.563114 53.846118 
L 213.846163 68.578367 
L 213.986526 61.212243 
L 214.126769 98.042866 
L 214.267009 175.387175 
L 214.40737 64.895305 
L 214.547685 53.846118 
L 214.687884 68.578367 
L 214.828087 57.52918 
L 214.970624 348.491104 
L 215.114854 352.174167 
L 215.262775 352.174167 
L 215.410881 193.802486 
L 215.551376 341.12498 
L 215.694813 53.846118 
L 215.835123 50.163056 
L 215.975321 61.212243 
L 216.115794 50.163056 
L 216.256759 61.212243 
L 216.397317 53.846118 
L 216.538673 57.52918 
L 216.820041 57.52918 
L 216.960861 53.846118 
L 217.102809 72.26143 
L 217.243391 271.146795 
L 217.384385 50.163056 
L 217.525434 57.52918 
L 217.666932 57.52918 
L 217.811078 53.846118 
L 217.954603 79.627554 
L 218.095703 53.846118 
L 218.237393 57.52918 
L 218.378717 57.52918 
L 218.519021 50.163056 
L 218.660465 53.846118 
L 218.94601 53.846118 
L 219.08701 64.895305 
L 219.227941 53.846118 
L 219.369064 57.52918 
L 219.510082 79.627554 
L 219.650392 53.846118 
L 219.790702 61.212243 
L 219.930953 57.52918 
L 220.071205 79.627554 
L 220.211371 68.578367 
L 220.35253 79.627554 
L 220.494388 64.895305 
L 220.635774 145.922676 
L 220.776459 64.895305 
L 220.916877 120.14124 
L 221.05712 68.578367 
L 221.198073 267.478329 
L 221.338871 61.212243 
L 221.484196 53.846118 
L 221.625421 57.52918 
L 221.77035 53.846118 
L 221.911674 64.895305 
L 222.052027 53.846118 
L 222.193077 53.846118 
L 222.336782 57.52918 
L 222.618111 57.52918 
L 222.758582 53.846118 
L 222.901178 57.52918 
L 223.043955 53.846118 
L 223.187639 61.212243 
L 223.330933 53.846118 
L 223.471472 57.52918 
L 223.614052 57.52918 
L 223.754617 53.846118 
L 223.896121 57.52918 
L 224.321645 57.52918 
L 224.462456 50.163056 
L 224.603717 61.212243 
L 224.745309 53.846118 
L 224.885972 53.846118 
L 225.026114 57.52918 
L 225.167126 64.895305 
L 225.45282 53.846118 
L 225.594521 61.212243 
L 225.735302 50.163056 
L 225.876256 50.163056 
L 226.016603 53.846118 
L 226.156589 61.212243 
L 226.438065 50.163056 
L 226.578954 50.163056 
L 226.719805 57.52918 
L 226.862912 53.846118 
L 227.00447 57.52918 
L 227.145038 53.846118 
L 227.427123 61.212243 
L 227.569397 61.212243 
L 227.71027 68.578367 
L 227.851767 57.52918 
L 227.993257 112.775115 
L 228.27683 53.846118 
L 228.560194 61.212243 
L 228.702781 352.174167 
L 229.147522 352.174167 
L 229.289777 57.52918 
L 229.431481 53.846118 
L 229.574806 53.846118 
L 229.717174 57.52918 
L 229.858465 53.846118 
L 230.141444 64.895305 
L 230.282748 64.895305 
L 230.424117 57.52918 
L 230.565593 61.212243 
L 230.707373 50.163056 
L 230.848917 53.846118 
L 230.990384 53.846118 
L 231.131591 61.212243 
L 231.273393 57.52918 
L 231.415382 57.52918 
L 231.557462 68.578367 
L 231.699222 53.846118 
L 231.840676 53.846118 
L 231.982797 57.52918 
L 232.125616 57.52918 
L 232.266409 68.578367 
L 232.407474 68.578367 
L 232.548265 57.52918 
L 232.688939 61.212243 
L 232.82935 86.993679 
L 232.970281 86.993679 
L 233.111795 57.52918 
L 233.252258 75.944492 
L 233.393206 57.52918 
L 233.533392 68.578367 
L 233.674495 57.52918 
L 233.815399 57.52918 
L 234.096124 64.895305 
L 234.236568 57.52918 
L 234.377208 79.627554 
L 234.519507 50.163056 
L 234.660571 61.212243 
L 234.801583 50.163056 
L 234.943026 61.212243 
L 235.083843 53.846118 
L 235.224549 61.212243 
L 235.364949 61.212243 
L 235.505346 53.846118 
L 235.645862 57.52918 
L 235.787623 50.163056 
L 235.92827 64.895305 
L 236.209125 53.846118 
L 236.350165 53.846118 
L 236.491475 50.163056 
L 236.632661 50.163056 
L 236.773362 53.846118 
L 236.913725 53.846118 
L 237.05513 57.52918 
L 237.337552 57.52918 
L 237.478257 61.212243 
L 237.619519 57.52918 
L 237.760855 61.212243 
L 237.901331 98.042866 
L 238.042006 83.310617 
L 238.18247 53.846118 
L 238.323582 53.846118 
L 238.464097 72.26143 
L 238.604694 50.163056 
L 238.745409 101.725928 
L 238.886089 109.092053 
L 239.026862 57.52918 
L 239.167818 57.52918 
L 239.308485 53.846118 
L 239.449421 53.846118 
L 239.730817 61.212243 
L 239.872962 57.52918 
L 240.013236 61.212243 
L 240.295301 53.846118 
L 240.579193 53.846118 
L 240.719866 57.52918 
L 240.860373 57.52918 
L 241.00125 61.212243 
L 241.142029 57.52918 
L 241.282465 64.895305 
L 241.422877 57.52918 
L 241.563683 64.895305 
L 241.70486 57.52918 
L 242.128435 57.52918 
L 242.410183 50.163056 
L 242.551338 352.174167 
L 242.993576 352.174167 
L 243.138519 341.12498 
L 243.279515 94.359804 
L 243.419863 53.846118 
L 243.561283 53.846118 
L 243.701585 57.52918 
L 243.842003 50.163056 
L 243.982409 64.895305 
L 244.12271 53.846118 
L 244.263343 175.387175 
L 244.403702 83.310617 
L 244.544676 341.12498 
L 244.826412 57.52918 
L 244.966841 57.52918 
L 245.107396 190.119424 
L 245.247748 61.212243 
L 245.388619 86.993679 
L 245.529171 219.583923 
L 245.670235 57.52918 
L 245.810844 50.163056 
L 245.951483 72.26143 
L 246.091783 61.212243 
L 246.233058 64.895305 
L 246.374203 53.846118 
L 246.51495 61.212243 
L 246.655572 61.212243 
L 246.795975 57.52918 
L 246.939208 61.212243 
L 247.224569 61.212243 
L 247.366431 50.163056 
L 247.506843 57.52918 
L 247.64761 57.52918 
L 247.788805 53.846118 
L 247.929354 61.212243 
L 248.070002 61.212243 
L 248.210599 57.52918 
L 248.35203 61.212243 
L 248.634594 53.846118 
L 248.77567 57.52918 
L 248.917854 50.163056 
L 249.060745 57.52918 
L 249.2022 53.846118 
L 249.3438 53.846118 
L 249.485235 57.52918 
L 249.627478 112.775115 
L 249.77111 105.408991 
L 249.912762 53.846118 
L 250.054392 57.52918 
L 250.194903 171.704112 
L 250.476173 53.846118 
L 250.757422 53.846118 
L 250.898109 50.163056 
L 251.039059 57.52918 
L 251.179893 53.846118 
L 251.320797 98.042866 
L 251.461619 61.212243 
L 251.602871 53.846118 
L 251.744164 72.26143 
L 251.885674 53.846118 
L 252.026934 64.895305 
L 252.168038 53.846118 
L 252.451361 61.212243 
L 252.593249 134.873489 
L 252.735463 61.212243 
L 252.877275 61.212243 
L 253.020034 72.26143 
L 253.302032 50.163056 
L 253.442553 53.846118 
L 253.583361 53.846118 
L 253.724141 75.944492 
L 254.005788 50.163056 
L 254.146384 53.846118 
L 254.287255 53.846118 
L 254.427712 57.52918 
L 254.568485 53.846118 
L 254.709257 79.627554 
L 254.851005 53.846118 
L 254.992057 50.163056 
L 255.132931 50.163056 
L 255.273616 53.846118 
L 255.414908 61.212243 
L 255.556501 53.743946 
L 255.697836 53.846118 
L 255.838865 57.52918 
L 255.980692 64.895305 
L 256.121166 50.163056 
L 256.264125 352.174167 
L 256.691969 352.174167 
L 257.116583 61.212243 
L 257.257503 53.846118 
L 257.397954 72.26143 
L 257.538445 53.846118 
L 257.679173 68.578367 
L 257.819429 64.895305 
L 257.960326 57.52918 
L 258.10131 57.52918 
L 258.242091 50.163056 
L 258.383324 50.163056 
L 258.664416 57.52918 
L 258.805045 79.627554 
L 258.946788 156.971863 
L 259.087813 61.212243 
L 259.228703 61.212243 
L 259.369385 90.676741 
L 259.510133 50.163056 
L 259.650873 79.627554 
L 259.791914 53.846118 
L 259.932208 53.846118 
L 260.072903 61.212243 
L 260.213113 53.846118 
L 260.356711 98.042866 
L 260.497771 72.26143 
L 260.638498 116.458178 
L 260.778903 61.212243 
L 260.919545 72.26143 
L 261.059856 57.52918 
L 261.200558 64.895305 
L 261.34091 57.52918 
L 261.622742 57.52918 
L 261.762854 53.846118 
L 261.904595 64.895305 
L 262.046319 53.846118 
L 262.186408 179.070237 
L 262.326393 53.846118 
L 262.466992 204.851673 
L 262.607071 53.846118 
L 262.747056 179.070237 
L 262.887062 57.52918 
L 263.171874 50.163056 
L 263.31191 61.212243 
L 263.591857 127.507364 
L 263.731845 64.895305 
L 263.871876 61.212243 
L 264.011877 175.387175 
L 264.151986 61.212243 
L 264.292741 53.846118 
L 264.434384 68.578367 
L 264.575162 53.846118 
L 264.715834 53.846118 
L 264.855851 61.212243 
L 264.995937 75.944492 
L 265.276306 50.163056 
L 265.416331 50.163056 
L 265.55636 57.52918 
L 265.696995 53.846118 
L 265.838173 57.52918 
L 265.978643 57.52918 
L 266.120389 64.895305 
L 266.262034 57.52918 
L 266.545478 64.895305 
L 266.687207 61.212243 
L 267.109673 61.212243 
L 267.389869 50.163056 
L 267.529743 57.52918 
L 267.670479 50.163056 
L 267.811167 50.163056 
L 268.093519 64.895305 
L 268.23545 53.846118 
L 268.376814 61.212243 
L 268.65716 61.212243 
L 268.797244 57.52918 
L 269.21734 57.52918 
L 269.357243 112.775115 
L 269.497995 57.52918 
L 269.6393 61.212243 
L 269.782533 79.627554 
L 270.209094 352.174167 
L 270.354502 352.174167 
L 270.650686 116.458178 
L 270.931883 50.163056 
L 271.073176 61.212243 
L 271.218343 57.52918 
L 271.658893 57.52918 
L 271.800093 53.846118 
L 271.940648 53.846118 
L 272.080852 64.895305 
L 272.221777 64.895305 
L 272.502598 123.824302 
L 272.643094 57.52918 
L 272.783196 237.999234 
L 272.923322 68.578367 
L 273.063373 149.605738 
L 273.343467 53.846118 
L 273.483436 61.212243 
L 273.624455 61.212243 
L 273.76544 212.217798 
L 273.905637 68.578367 
L 274.185769 53.846118 
L 274.325662 64.895305 
L 274.46555 61.212243 
L 274.605694 50.163056 
L 274.885551 61.212243 
L 275.307806 50.163056 
L 275.44857 50.163056 
L 275.589384 64.895305 
L 275.729514 53.846118 
L 276.009733 53.846118 
L 276.149608 57.52918 
L 276.290759 64.895305 
L 276.573469 53.846118 
L 276.713674 50.163056 
L 276.853969 72.26143 
L 276.994082 53.846118 
L 277.134246 79.627554 
L 277.274477 57.52918 
L 277.414637 86.993679 
L 277.554792 57.52918 
L 277.695426 68.578367 
L 277.976518 53.846118 
L 278.117125 53.846118 
L 278.257665 50.163056 
L 278.538697 57.52918 
L 278.679568 53.846118 
L 278.819984 61.212243 
L 278.961378 53.846118 
L 279.101694 68.578367 
L 279.382889 50.163056 
L 279.523425 64.895305 
L 279.663845 50.163056 
L 279.804282 57.52918 
L 279.945595 57.52918 
L 280.085998 50.163056 
L 280.226199 53.846118 
L 280.507579 53.846118 
L 280.64799 57.52918 
L 280.78902 57.52918 
L 280.930739 61.212243 
L 281.212233 53.846118 
L 281.353371 61.212243 
L 281.635128 53.846118 
L 281.775726 61.212243 
L 281.917802 83.310617 
L 282.059611 197.485549 
L 282.201123 68.578367 
L 282.342565 57.52918 
L 282.626665 57.52918 
L 282.769767 53.846118 
L 282.912764 53.846118 
L 283.200496 64.895305 
L 283.342306 168.02105 
L 283.62566 53.846118 
L 283.76713 79.627554 
L 283.908563 352.174167 
L 284.205502 249.048421 
L 284.346758 53.846118 
L 284.487342 64.895305 
L 284.62885 61.212243 
L 284.770041 164.337988 
L 284.911626 57.52918 
L 285.053236 57.52918 
L 285.194804 61.212243 
L 285.336505 68.578367 
L 285.476978 109.092053 
L 285.901895 50.163056 
L 286.043703 57.52918 
L 286.184131 53.846118 
L 286.324313 61.212243 
L 286.465672 352.174167 
L 286.609849 352.174167 
L 286.752309 245.365359 
L 286.894811 260.097608 
L 287.037443 61.212243 
L 287.178414 53.846118 
L 287.31899 53.846118 
L 287.460951 50.163056 
L 287.602106 57.52918 
L 287.743187 57.52918 
L 287.884344 53.846118 
L 288.025472 53.846118 
L 288.166632 50.163056 
L 288.452653 57.52918 
L 288.736125 57.52918 
L 288.877715 64.895305 
L 289.021437 64.895305 
L 289.303063 50.163056 
L 289.589958 57.52918 
L 289.733403 53.846118 
L 289.87416 57.52918 
L 290.014848 53.846118 
L 290.155567 57.52918 
L 290.296858 57.52918 
L 290.437348 72.26143 
L 290.578972 160.654925 
L 290.720983 75.944492 
L 290.862857 101.725928 
L 291.004045 53.846118 
L 291.145058 57.52918 
L 291.28695 57.52918 
L 291.428477 64.895305 
L 291.572248 57.52918 
L 291.713278 64.895305 
L 291.85681 64.895305 
L 291.999929 72.26143 
L 292.144501 57.52918 
L 292.286466 57.52918 
L 292.427204 50.163056 
L 292.56852 61.212243 
L 292.710018 145.922676 
L 292.993576 72.26143 
L 293.417736 53.846118 
L 293.559068 79.627554 
L 293.841243 53.846118 
L 293.98218 57.52918 
L 294.123428 57.52918 
L 294.264727 50.163056 
L 294.54735 68.578367 
L 294.692323 57.52918 
L 294.833586 57.52918 
L 294.974276 61.212243 
L 295.115229 53.846118 
L 295.256024 53.846118 
L 295.39609 72.26143 
L 295.536233 57.52918 
L 295.677858 57.52918 
L 295.818385 61.212243 
L 295.958883 57.52918 
L 296.099516 50.163056 
L 296.240106 61.212243 
L 296.381572 160.654925 
L 296.522697 57.52918 
L 296.663523 53.846118 
L 296.804334 57.52918 
L 296.945087 53.846118 
L 297.085766 57.52918 
L 297.226692 53.846118 
L 297.367527 61.212243 
L 297.508759 53.846118 
L 297.650634 352.174167 
L 298.095938 352.174167 
L 298.244964 278.51292 
L 298.540906 50.163056 
L 298.682332 109.092053 
L 298.823194 72.26143 
L 299.245731 50.163056 
L 299.386268 61.212243 
L 299.526928 57.52918 
L 299.667194 61.212243 
L 299.807948 105.408991 
L 299.949084 64.895305 
L 300.089912 64.895305 
L 300.231078 53.846118 
L 300.374506 352.174167 
L 300.799703 53.846118 
L 300.940181 53.846118 
L 301.080618 50.163056 
L 301.221584 64.895305 
L 301.362405 53.846118 
L 301.502712 57.52918 
L 301.928854 57.52918 
L 302.069771 61.212243 
L 302.210455 57.52918 
L 302.35135 57.52918 
L 302.491968 64.895305 
L 302.632566 57.52918 
L 302.774124 204.851673 
L 302.916254 57.52918 
L 303.058161 72.26143 
L 303.198428 109.092053 
L 303.342134 50.163056 
L 303.483197 75.944492 
L 303.624062 53.846118 
L 304.047602 53.846118 
L 304.188688 90.676741 
L 304.330329 215.90086 
L 304.471779 53.846118 
L 304.614994 94.359804 
L 304.897626 53.846118 
L 305.178532 61.212243 
L 305.319593 86.993679 
L 305.460006 57.52918 
L 305.601309 79.627554 
L 305.744034 72.26143 
L 305.886232 109.092053 
L 306.026854 57.52918 
L 306.166907 105.408991 
L 306.307584 57.52918 
L 306.448176 64.895305 
L 306.729487 53.846118 
L 306.869728 61.212243 
L 307.011073 53.846118 
L 307.293871 68.578367 
L 307.43515 57.52918 
L 307.577779 61.212243 
L 307.718776 53.846118 
L 308.001523 53.846118 
L 308.142374 61.212243 
L 308.283819 53.846118 
L 308.425522 53.846118 
L 308.566708 50.163056 
L 308.708996 61.212243 
L 308.989389 53.846118 
L 309.12968 57.52918 
L 309.270083 50.163056 
L 309.550776 57.52918 
L 309.692906 53.846118 
L 309.83328 53.846118 
L 309.974533 57.52918 
L 310.116613 53.846118 
L 310.256902 53.846118 
L 310.397917 57.52918 
L 310.679182 156.971863 
L 310.819506 57.52918 
L 310.959796 61.212243 
L 311.101175 57.52918 
L 311.241806 57.52918 
L 311.382102 352.174167 
L 311.525418 352.174167 
L 311.806097 319.026606 
L 311.947149 53.846118 
L 312.088544 53.846118 
L 312.230557 61.212243 
L 312.371946 53.846118 
L 312.514062 57.52918 
L 312.65526 64.895305 
L 312.795665 94.359804 
L 312.936026 153.288801 
L 313.076257 53.846118 
L 313.216605 79.627554 
L 313.356996 164.337988 
L 313.497347 57.52918 
L 313.637632 57.52918 
L 313.779232 53.846118 
L 313.920673 72.26143 
L 314.061011 61.212243 
L 314.201165 352.174167 
L 314.341439 352.174167 
L 314.481699 142.239614 
L 314.762607 57.52918 
L 314.902941 61.212243 
L 315.043956 138.556551 
L 315.185 120.14124 
L 315.325622 57.52918 
L 315.465917 50.163056 
L 315.606245 61.212243 
L 315.746709 50.163056 
L 315.888705 57.52918 
L 316.029822 53.846118 
L 316.170032 53.846118 
L 316.310334 61.212243 
L 316.592154 138.556551 
L 316.73242 61.212243 
L 316.872791 57.52918 
L 317.013074 131.190427 
L 317.153305 112.775115 
L 317.293799 53.846118 
L 317.434089 75.944492 
L 317.574308 53.846118 
L 317.714748 75.944492 
L 317.855214 57.52918 
L 317.996056 98.042866 
L 318.136996 64.895305 
L 318.277253 142.239614 
L 318.417987 79.627554 
L 318.558843 138.556551 
L 318.699457 57.52918 
L 318.839846 186.436362 
L 318.980103 72.26143 
L 319.120844 57.52918 
L 319.261785 57.52918 
L 319.402569 53.846118 
L 319.683532 53.846118 
L 319.824201 72.26143 
L 319.965026 72.26143 
L 320.246647 53.846118 
L 320.389337 90.676741 
L 320.530848 83.310617 
L 320.67137 50.163056 
L 320.953563 61.212243 
L 321.094626 149.605738 
L 321.234867 50.163056 
L 321.376298 53.846118 
L 321.516621 53.846118 
L 321.658951 64.895305 
L 321.940168 50.163056 
L 322.080362 57.52918 
L 322.220465 53.846118 
L 322.360828 53.846118 
L 322.501456 57.52918 
L 322.642361 53.846118 
L 322.784937 68.578367 
L 322.92538 134.873489 
L 323.066936 57.52918 
L 323.207587 72.26143 
L 323.348243 57.52918 
L 323.488554 61.212243 
L 323.628717 53.846118 
L 323.769032 53.846118 
L 323.910546 57.52918 
L 324.051223 53.846118 
L 324.333453 53.846118 
L 324.473968 57.52918 
L 324.614461 57.52918 
L 324.755035 153.288801 
L 324.89613 149.605738 
L 325.03715 344.808042 
L 325.31824 296.928232 
L 325.599056 53.846118 
L 325.739836 61.212243 
L 325.880157 53.846118 
L 326.021504 116.458178 
L 326.161971 79.627554 
L 326.304798 101.725928 
L 326.586636 57.52918 
L 326.730627 123.824302 
L 326.871172 53.846118 
L 327.015847 186.436362 
L 327.298422 57.52918 
L 327.440228 75.944492 
L 327.725948 352.174167 
L 328.023201 352.174167 
L 328.163481 50.163056 
L 328.303585 53.846118 
L 328.444978 50.163056 
L 328.586116 53.846118 
L 328.72667 64.895305 
L 328.867189 61.212243 
L 329.007742 50.163056 
L 329.148631 53.846118 
L 329.289983 72.26143 
L 329.574139 53.846118 
L 329.715585 57.52918 
L 329.856451 50.163056 
L 329.997848 50.163056 
L 330.139388 64.895305 
L 330.281036 53.846118 
L 330.423116 57.52918 
L 330.706133 50.163056 
L 330.988592 61.212243 
L 331.129151 57.52918 
L 331.270945 50.163056 
L 331.412379 61.212243 
L 331.694168 53.846118 
L 331.838829 53.846118 
L 331.979739 50.163056 
L 332.121067 72.26143 
L 332.26271 53.846118 
L 332.404487 61.212243 
L 332.545805 83.310617 
L 332.687974 61.212243 
L 332.829414 57.52918 
L 332.974036 50.163056 
L 333.115075 68.578367 
L 333.256173 53.846118 
L 333.397645 68.578367 
L 333.539124 53.846118 
L 333.680998 61.212243 
L 333.822072 50.163056 
L 333.965502 57.52918 
L 334.105837 53.846118 
L 334.387188 53.846118 
L 334.527648 61.212243 
L 334.808373 50.163056 
L 334.948638 53.846118 
L 335.090431 53.846118 
L 335.232213 50.163056 
L 335.372541 64.895305 
L 335.513152 53.846118 
L 335.653406 57.52918 
L 335.793753 50.163056 
L 335.93525 50.163056 
L 336.218141 64.895305 
L 336.500743 57.52918 
L 336.641431 61.212243 
L 336.782036 94.359804 
L 336.922698 179.070237 
L 337.063559 53.846118 
L 337.204051 53.846118 
L 337.345591 190.119424 
L 337.486697 53.846118 
L 337.628211 57.52918 
L 337.769946 186.436362 
L 338.193402 53.846118 
L 338.33374 50.163056 
L 338.474224 204.851673 
L 338.615088 204.851673 
L 338.755387 352.174167 
L 339.037957 168.02105 
L 339.178972 79.627554 
L 339.460295 53.846118 
L 339.600413 50.163056 
L 339.74057 57.52918 
L 339.880843 53.846118 
L 340.022142 245.365359 
L 340.586244 53.846118 
L 340.726872 116.458178 
L 340.867609 53.846118 
L 341.14861 160.654925 
L 341.289942 94.359804 
L 341.430544 123.824302 
L 341.571166 352.174167 
L 341.713228 352.174167 
L 341.854886 315.343543 
L 342.276729 86.993679 
L 342.417048 109.092053 
L 342.557584 160.654925 
L 342.699008 134.873489 
L 342.839609 50.163056 
L 342.979964 83.310617 
L 343.122417 215.90086 
L 343.262667 186.436362 
L 343.403156 86.993679 
L 343.544208 123.824302 
L 343.684869 57.52918 
L 343.966411 64.895305 
L 344.106329 61.212243 
L 344.24637 61.212243 
L 344.386922 57.52918 
L 344.528285 79.627554 
L 344.808776 53.846118 
L 345.094951 61.212243 
L 345.235195 61.212243 
L 345.515618 50.163056 
L 345.655954 57.52918 
L 345.797271 53.846118 
L 345.938209 61.212243 
L 346.218962 53.846118 
L 346.499281 53.846118 
L 346.639457 149.605738 
L 346.779643 153.288801 
L 346.919752 53.846118 
L 347.061227 127.507364 
L 347.482629 57.52918 
L 347.622806 123.824302 
L 347.766575 68.578367 
L 348.047714 53.846118 
L 348.187975 53.846118 
L 348.328075 61.212243 
L 348.610307 53.846118 
L 348.750788 68.578367 
L 348.891393 61.212243 
L 349.032545 68.578367 
L 349.1726 57.52918 
L 349.312724 61.212243 
L 349.455406 57.52918 
L 349.595611 83.310617 
L 349.73714 53.846118 
L 349.877477 98.042866 
L 350.018593 61.212243 
L 350.299174 61.212243 
L 350.439421 64.895305 
L 350.579563 64.895305 
L 350.719956 50.163056 
L 350.861117 72.26143 
L 351.001302 57.52918 
L 351.141917 79.627554 
L 351.282276 53.846118 
L 351.424937 64.895305 
L 351.565713 57.52918 
L 351.705996 57.52918 
L 351.850049 72.26143 
L 351.990583 156.971863 
L 352.132284 57.52918 
L 352.415044 352.174167 
L 352.556205 215.90086 
L 352.698154 337.441917 
L 352.839045 322.709668 
L 352.979402 68.578367 
L 353.26198 53.846118 
L 353.402505 50.163056 
L 353.544111 83.310617 
L 353.685322 182.782491 
L 355.386001 352.174167 
L 355.526453 293.245169 
L 355.667094 109.092053 
L 355.809614 131.190427 
L 355.952207 53.846118 
L 356.095388 127.507364 
L 356.235719 116.458178 
L 356.377043 64.895305 
L 356.518917 61.212243 
L 356.661824 68.578367 
L 356.802738 57.52918 
L 356.943589 57.52918 
L 357.084023 53.846118 
L 357.225298 61.212243 
L 357.365212 53.846118 
L 357.505746 64.895305 
L 357.647591 64.895305 
L 357.788492 61.212243 
L 357.930269 64.895305 
L 358.070688 57.52918 
L 358.212031 57.52918 
L 358.353046 64.895305 
L 358.497114 53.846118 
L 358.922405 53.846118 
L 359.063492 57.52918 
L 359.20373 50.163056 
L 359.346081 64.895305 
L 359.486659 57.52918 
L 359.628365 64.895305 
L 359.770031 61.212243 
L 359.911073 50.163056 
L 360.053586 61.212243 
L 360.194438 57.52918 
L 360.335935 57.52918 
L 360.477094 64.895305 
L 360.617762 50.163056 
L 360.75984 53.846118 
L 361.041179 53.846118 
L 361.182082 61.212243 
L 361.324232 57.52918 
L 361.466411 50.163056 
L 361.607392 64.895305 
L 361.750297 57.52918 
L 361.891045 57.52918 
L 362.172248 50.163056 
L 362.313691 53.846118 
L 362.454257 61.212243 
L 362.595079 53.846118 
L 362.735663 57.52918 
L 362.878252 75.944492 
L 363.020241 53.846118 
L 363.161319 72.26143 
L 363.444287 50.163056 
L 363.584695 64.895305 
L 363.725247 61.212243 
L 363.867383 50.163056 
L 364.009209 57.52918 
L 364.15132 57.52918 
L 364.29274 53.846118 
L 364.576561 64.895305 
L 364.716861 50.163056 
L 364.858246 53.846118 
L 364.999422 53.846118 
L 365.140001 64.895305 
L 365.281252 50.163056 
L 365.563757 64.895305 
L 365.70599 53.846118 
L 365.848736 53.846118 
L 365.9917 86.993679 
L 366.135645 352.174167 
L 366.277886 326.39273 
L 366.425417 352.174167 
L 366.566864 352.174167 
L 366.70829 72.26143 
L 366.850233 57.52918 
L 366.991929 64.895305 
L 367.133286 50.163056 
L 367.27531 50.163056 
L 367.417337 53.846118 
L 367.558942 50.163056 
L 367.69942 57.52918 
L 367.839879 57.52918 
L 367.98032 53.846118 
L 368.121823 57.52918 
L 368.264372 50.163056 
L 368.407526 50.163056 
L 368.548842 53.846118 
L 368.69042 50.163056 
L 368.833916 352.174167 
L 368.979924 352.174167 
L 369.124271 344.808042 
L 369.267084 293.245169 
L 369.549974 53.846118 
L 369.690356 53.846118 
L 369.831584 50.163056 
L 370.113978 57.52918 
L 370.255169 64.895305 
L 370.396801 50.163056 
L 370.53734 61.212243 
L 370.819583 53.846118 
L 371.102614 61.212243 
L 371.243853 53.846118 
L 371.669574 64.895305 
L 371.809995 53.846118 
L 371.951113 57.52918 
L 372.092638 53.846118 
L 372.234947 61.212243 
L 372.375996 53.846118 
L 372.517628 98.042866 
L 372.658399 57.52918 
L 372.940677 109.092053 
L 373.082088 105.408991 
L 373.364134 57.52918 
L 373.504859 64.895305 
L 373.645773 57.52918 
L 373.78911 68.578367 
L 373.931571 57.52918 
L 374.072984 61.212243 
L 374.216561 53.846118 
L 374.357507 64.895305 
L 374.498877 53.846118 
L 374.63903 61.212243 
L 374.780129 61.212243 
L 374.922449 64.895305 
L 375.206197 64.895305 
L 375.347639 57.52918 
L 375.487994 72.26143 
L 375.631189 57.52918 
L 375.772392 61.212243 
L 375.91361 94.359804 
L 376.054075 86.993679 
L 376.195549 68.578367 
L 376.336882 75.944492 
L 376.48028 61.212243 
L 376.620853 61.212243 
L 376.763232 64.895305 
L 376.904946 61.212243 
L 377.046097 50.163056 
L 377.186917 64.895305 
L 377.328304 61.212243 
L 377.471566 50.163056 
L 377.612246 142.239614 
L 377.75442 50.163056 
L 377.895215 61.212243 
L 378.036882 61.212243 
L 378.177034 53.846118 
L 378.459732 79.627554 
L 378.600005 53.846118 
L 378.740154 57.52918 
L 378.880549 138.556551 
L 379.020909 57.52918 
L 379.4444 57.52918 
L 379.58474 50.163056 
L 379.725087 57.52918 
L 379.866457 57.52918 
L 380.007808 352.174167 
L 380.300772 352.174167 
L 380.447787 296.928232 
L 380.594386 53.846118 
L 380.736535 57.52918 
L 380.876833 53.846118 
L 381.017067 61.212243 
L 381.157334 226.950047 
L 381.578475 68.578367 
L 381.720395 164.337988 
L 381.861538 68.578367 
L 382.001854 57.52918 
L 382.14234 57.52918 
L 382.42403 193.802486 
L 382.704559 64.895305 
L 382.844733 352.174167 
L 383.27494 352.174167 
L 383.415609 57.52918 
L 383.556042 61.212243 
L 383.696268 50.163056 
L 383.836563 64.895305 
L 383.976654 61.212243 
L 384.257262 61.212243 
L 384.397988 57.52918 
L 384.678612 57.52918 
L 384.819833 105.408991 
L 384.960901 61.212243 
L 385.1046 68.578367 
L 385.247224 116.458178 
L 385.388464 64.895305 
L 385.529589 138.454379 
L 385.670033 68.578367 
L 385.952037 61.212243 
L 386.092445 50.163056 
L 386.232613 57.52918 
L 386.372778 50.163056 
L 386.512925 120.14124 
L 386.653073 57.52918 
L 386.793578 116.458178 
L 387.079047 61.212243 
L 387.361126 53.846118 
L 387.642975 64.895305 
L 387.783463 68.578367 
L 388.067019 61.212243 
L 388.207786 68.578367 
L 388.348734 53.846118 
L 388.633111 61.212243 
L 388.91751 53.846118 
L 389.060658 61.212243 
L 389.343779 50.163056 
L 389.48576 53.846118 
L 389.626954 50.163056 
L 389.768463 50.163056 
L 389.909171 57.52918 
L 390.191915 50.163056 
L 390.333165 57.52918 
L 390.473973 53.846118 
L 390.615056 53.846118 
L 390.756293 64.895305 
L 391.039464 50.163056 
L 391.180383 57.52918 
L 391.320669 53.846118 
L 391.462374 120.14124 
L 391.603494 61.212243 
L 391.744538 53.846118 
L 391.885668 68.578367 
L 392.025801 53.846118 
L 392.167112 98.042866 
L 392.308199 50.163056 
L 392.448939 57.52918 
L 392.730919 57.52918 
L 392.872102 68.578367 
L 393.013215 64.895305 
L 393.295288 53.846118 
L 393.436175 50.163056 
L 393.577487 57.52918 
L 393.718723 53.846118 
L 393.859287 64.895305 
L 394.0004 352.174167 
L 394.287345 352.174167 
L 394.431328 94.359804 
L 394.575455 53.846118 
L 394.719206 61.212243 
L 394.860026 61.212243 
L 395.00026 50.163056 
L 395.141096 64.895305 
L 395.42308 352.174167 
L 395.564289 341.12498 
L 395.98738 57.52918 
L 396.129046 75.944492 
L 396.269968 120.14124 
L 396.411052 79.627554 
L 396.551647 116.458178 
L 396.692571 112.775115 
L 396.833683 348.491104 
L 396.974421 352.174167 
L 397.115055 319.026606 
L 397.255744 256.414546 
L 397.397325 75.944492 
L 397.537833 50.163056 
L 397.678347 53.846118 
L 397.819131 50.163056 
L 397.959941 57.52918 
L 398.100768 57.52918 
L 398.242442 53.846118 
L 398.384372 57.52918 
L 398.525096 50.163056 
L 398.665821 61.212243 
L 399.087961 61.212243 
L 399.228295 57.52918 
L 399.368423 75.944492 
L 399.649004 61.212243 
L 399.789692 53.846118 
L 399.930317 83.310617 
L 400.070712 57.52918 
L 400.21126 57.52918 
L 400.352495 61.212243 
L 400.494206 50.163056 
L 400.635121 53.846118 
L 400.775853 90.676741 
L 400.916567 53.846118 
L 401.056977 57.52918 
L 401.198687 57.52918 
L 401.339243 53.846118 
L 401.48009 61.212243 
L 401.620574 79.627554 
L 401.762039 53.846118 
L 401.908595 50.163056 
L 402.049025 64.895305 
L 402.190044 53.846118 
L 402.330816 57.52918 
L 402.611993 57.52918 
L 402.752485 53.846118 
L 402.893147 53.846118 
L 403.033652 61.212243 
L 403.174843 61.212243 
L 403.315164 53.846118 
L 403.596817 53.846118 
L 403.737616 61.212243 
L 403.878284 134.873489 
L 404.018876 61.212243 
L 404.159716 50.163056 
L 404.300341 50.163056 
L 404.442232 64.895305 
L 404.723132 53.846118 
L 404.863764 61.212243 
L 405.004148 53.846118 
L 405.148342 263.780671 
L 405.288756 57.52918 
L 405.429546 57.52918 
L 405.569991 53.846118 
L 405.711782 64.895305 
L 405.852634 50.163056 
L 405.992949 204.851673 
L 406.133659 50.163056 
L 406.27418 64.895305 
L 406.555342 53.846118 
L 406.695905 83.310617 
L 406.836745 53.846118 
L 406.977261 53.846118 
L 407.118127 61.212243 
L 407.260198 61.212243 
L 407.400808 53.846118 
L 407.54148 61.212243 
L 407.682556 79.627554 
L 407.823185 186.436362 
L 408.106195 53.846118 
L 408.246762 61.212243 
L 408.387911 50.163056 
L 408.529127 57.52918 
L 408.66993 57.52918 
L 408.812228 50.163056 
L 408.954066 348.491104 
L 409.095604 344.808042 
L 409.37766 53.846118 
L 409.518868 53.846118 
L 409.659183 57.52918 
L 409.941334 50.163056 
L 410.082326 64.895305 
L 410.225492 50.163056 
L 410.365807 53.846118 
L 410.505956 53.846118 
L 410.646093 61.212243 
L 410.786519 53.846118 
L 410.927353 53.846118 
L 411.209189 61.212243 
L 411.349774 50.163056 
L 411.490115 57.52918 
L 411.630343 57.52918 
L 411.77051 53.846118 
L 411.911143 57.52918 
L 412.051629 57.52918 
L 412.192066 61.212243 
L 412.333807 53.846118 
L 412.475005 53.846118 
L 412.616061 57.52918 
L 412.756992 53.846118 
L 412.897227 79.627554 
L 413.037271 57.52918 
L 413.177243 57.52918 
L 413.317863 53.846118 
L 413.457989 57.52918 
L 413.597949 50.163056 
L 413.738414 50.163056 
L 413.885068 57.52918 
L 414.031112 57.52918 
L 414.172793 53.846118 
L 414.317944 61.212243 
L 414.461809 50.163056 
L 414.608513 101.725928 
L 414.756218 50.163056 
L 414.902395 123.824302 
L 415.042896 57.52918 
L 415.183949 64.895305 
L 415.324619 86.993679 
L 415.605989 57.52918 
L 415.745951 53.846118 
L 415.886178 57.52918 
L 416.026492 50.163056 
L 416.307794 57.52918 
L 416.449331 57.52918 
L 416.589535 61.212243 
L 416.730374 61.212243 
L 417.153541 50.163056 
L 417.2935 61.212243 
L 417.433611 61.212243 
L 417.573626 86.993679 
L 417.718792 145.922676 
L 417.859386 57.52918 
L 417.999687 90.676741 
L 418.140033 64.895305 
L 418.420722 57.52918 
L 418.560868 61.212243 
L 418.700939 61.212243 
L 418.84107 53.846118 
L 418.981084 61.212243 
L 419.122526 53.846118 
L 419.263361 64.895305 
L 419.403519 53.846118 
L 419.543564 57.52918 
L 419.683595 57.52918 
L 419.826367 53.846118 
L 419.969193 53.846118 
L 420.112179 50.163056 
L 420.252151 64.895305 
L 420.39213 61.212243 
L 420.534931 53.846118 
L 420.675068 61.212243 
L 420.81543 53.846118 
L 420.955608 61.212243 
L 421.095757 50.163056 
L 421.236013 57.52918 
L 421.376061 57.52918 
L 421.516072 86.993679 
L 421.656186 57.52918 
L 421.797325 149.605738 
L 421.937637 120.14124 
L 422.077792 142.239614 
L 422.358104 64.895305 
L 422.5017 352.174167 
L 422.946146 352.174167 
L 423.089347 64.895305 
L 423.229537 64.895305 
L 423.369567 86.993679 
L 423.509746 61.212243 
L 423.649778 72.26143 
L 423.789799 53.846118 
L 423.929948 83.310617 
L 424.070001 53.846118 
L 424.210329 53.846118 
L 424.492464 64.895305 
L 424.632798 53.846118 
L 424.773368 68.578367 
L 424.91337 57.52918 
L 425.053308 72.26143 
L 425.193499 105.408991 
L 425.33353 105.408991 
L 425.473579 57.52918 
L 425.613658 90.676741 
L 425.756532 53.846118 
L 425.8968 57.52918 
L 426.037921 53.846118 
L 426.178137 72.26143 
L 426.318475 53.846118 
L 426.45939 57.52918 
L 426.601487 57.52918 
L 426.743346 53.846118 
L 426.885356 57.52918 
L 427.308379 57.52918 
L 427.44887 50.163056 
L 427.589111 50.163056 
L 427.869381 57.52918 
L 428.009711 53.846118 
L 428.150007 57.52918 
L 428.290034 64.895305 
L 428.432499 53.846118 
L 428.572729 53.846118 
L 428.712844 57.52918 
L 428.85311 57.52918 
L 429.136074 50.163056 
L 429.416961 79.627554 
L 429.557126 86.993679 
L 429.697385 86.993679 
L 429.839948 83.310617 
L 430.121416 57.52918 
L 430.2619 64.895305 
L 430.543257 53.846118 
L 430.683301 53.846118 
L 430.824825 68.578367 
L 430.96502 57.52918 
L 431.105693 57.52918 
L 431.246079 50.163056 
L 431.387243 57.52918 
L 431.52755 57.52918 
L 431.807672 50.163056 
L 432.087795 72.26143 
L 432.227812 61.212243 
L 432.36769 61.212243 
L 432.508833 53.846118 
L 432.653944 57.52918 
L 432.796985 57.52918 
L 432.938171 50.163056 
L 433.078483 64.895305 
L 433.361633 50.163056 
L 433.645296 57.52918 
L 433.787094 64.895305 
L 433.928489 64.895305 
L 434.068735 50.163056 
L 434.210917 57.52918 
L 434.353181 53.846118 
L 434.493655 61.212243 
L 434.634369 53.846118 
L 434.774773 61.212243 
L 434.915834 61.212243 
L 435.056299 75.944492 
L 435.341399 53.846118 
L 435.625114 53.846118 
L 435.772101 94.359804 
L 435.912558 61.212243 
L 436.638043 352.174167 
L 436.779392 50.163056 
L 437.061665 50.163056 
L 437.202397 53.846118 
L 437.342831 53.846118 
L 437.484402 61.212243 
L 437.7671 61.212243 
L 437.909191 53.846118 
L 438.049765 53.846118 
L 438.190977 57.52918 
L 438.331189 57.52918 
L 438.471688 64.895305 
L 438.612093 53.846118 
L 438.752461 83.310617 
L 438.893351 79.627554 
L 439.034026 79.627554 
L 439.17528 61.212243 
L 439.316078 64.895305 
L 439.456448 53.846118 
L 439.598516 57.52918 
L 439.739291 53.846118 
L 439.879919 120.14124 
L 440.020377 61.212243 
L 440.160942 223.266985 
L 440.301399 50.163056 
L 440.442573 53.846118 
L 440.585202 64.895305 
L 440.727207 53.846118 
L 440.867782 53.846118 
L 441.008549 50.163056 
L 441.150461 61.212243 
L 441.292593 53.846118 
L 441.434104 53.846118 
L 441.575699 83.310617 
L 441.858799 53.846118 
L 441.999439 57.52918 
L 442.140511 57.52918 
L 442.285732 68.578367 
L 442.434067 53.846118 
L 442.574934 61.212243 
L 442.71756 57.52918 
L 442.859258 50.163056 
L 443.145907 57.52918 
L 443.286385 57.52918 
L 443.426599 61.212243 
L 443.567114 116.458178 
L 443.708088 57.52918 
L 443.849051 79.627554 
L 443.989929 79.627554 
L 444.131142 50.163056 
L 444.271891 57.52918 
L 444.412706 50.163056 
L 444.558133 61.212243 
L 444.70213 53.846118 
L 444.843498 61.212243 
L 444.984183 61.212243 
L 445.12497 75.944492 
L 445.265493 105.408991 
L 445.408343 57.52918 
L 445.549798 142.239614 
L 445.690237 64.895305 
L 445.832602 57.52918 
L 445.975225 72.26143 
L 446.258416 53.846118 
L 446.399103 53.846118 
L 446.539173 57.52918 
L 446.680059 53.846118 
L 446.820628 57.52918 
L 446.961503 53.846118 
L 447.10385 61.212243 
L 447.245368 61.212243 
L 447.386315 57.52918 
L 447.527776 50.163056 
L 447.80939 57.52918 
L 447.950538 68.578367 
L 448.091583 57.52918 
L 448.232068 57.52918 
L 448.373015 98.042866 
L 448.515883 204.851673 
L 448.658012 61.212243 
L 448.800574 53.846118 
L 448.947187 64.895305 
L 449.235412 53.846118 
L 449.520429 61.212243 
L 449.663928 352.174167 
L 449.807468 307.977419 
L 449.948433 352.174167 
L 450.385807 352.174167 
L 450.667397 64.895305 
L 450.808138 53.846118 
L 451.089528 72.26143 
L 451.231983 57.52918 
L 451.372481 64.895305 
L 451.516234 53.846118 
L 451.657547 109.092053 
L 451.797772 64.895305 
L 451.938581 86.993679 
L 452.080036 86.993679 
L 452.223868 72.26143 
L 452.364499 75.944492 
L 452.507498 156.971863 
L 452.648256 53.846118 
L 452.789154 127.507364 
L 452.931223 50.163056 
L 453.072837 72.26143 
L 453.214812 53.846118 
L 453.357112 75.944492 
L 453.498023 50.163056 
L 453.640341 86.993679 
L 453.782207 50.163056 
L 453.923051 127.507364 
L 454.204717 50.163056 
L 454.345361 57.52918 
L 454.485991 57.52918 
L 454.626318 53.846118 
L 454.766916 68.578367 
L 454.909949 168.02105 
L 455.05107 50.163056 
L 455.193856 57.52918 
L 455.338455 57.52918 
L 455.482893 61.212243 
L 455.906573 50.163056 
L 456.047605 53.846118 
L 456.188006 50.163056 
L 456.328194 53.846118 
L 456.469389 61.212243 
L 456.751208 53.846118 
L 457.033126 127.507364 
L 457.173756 131.190427 
L 457.314259 168.02105 
L 457.45494 64.895305 
L 457.596905 53.846118 
L 457.74113 61.212243 
L 457.884972 53.846118 
L 458.026197 79.627554 
L 458.167017 57.52918 
L 458.449564 57.52918 
L 458.591703 75.944492 
L 458.732744 57.52918 
L 458.873899 72.26143 
L 459.158553 50.163056 
L 459.439636 57.52918 
L 459.58014 68.578367 
L 459.720911 53.846118 
L 459.861433 64.895305 
L 460.001618 61.212243 
L 460.143675 53.846118 
L 460.573943 64.895305 
L 460.718456 50.163056 
L 460.861151 64.895305 
L 461.005219 61.212243 
L 461.145626 64.895305 
L 461.285903 57.52918 
L 461.426197 68.578367 
L 461.566629 53.846118 
L 461.706807 57.52918 
L 461.847911 53.846118 
L 461.988565 57.52918 
L 462.129121 57.52918 
L 462.269596 53.846118 
L 462.409884 57.52918 
L 462.550328 50.163056 
L 462.690702 50.163056 
L 462.831103 61.212243 
L 462.972165 50.163056 
L 463.112258 64.895305 
L 463.253932 61.212243 
L 463.395161 352.174167 
L 463.539028 234.316172 
L 463.682958 352.174167 
L 463.827949 352.174167 
L 463.97511 109.092053 
L 464.116431 190.119424 
L 464.256911 50.163056 
L 464.538038 50.163056 
L 464.818596 61.212243 
L 464.959014 57.52918 
L 465.099364 57.52918 
L 465.239769 53.846118 
L 465.380172 53.846118 
L 465.66118 61.212243 
L 465.802914 68.578367 
L 465.946175 61.212243 
L 466.08932 138.556551 
L 466.370588 61.212243 
L 466.510795 149.605738 
L 466.651104 57.52918 
L 466.791298 164.337988 
L 466.931748 57.52918 
L 467.071915 134.873489 
L 467.354837 61.212243 
L 467.495566 61.212243 
L 467.636772 230.63311 
L 467.777079 57.52918 
L 467.920249 64.895305 
L 468.063478 105.408991 
L 468.203761 50.163056 
L 468.344008 109.092053 
L 468.486047 53.846118 
L 468.626542 53.846118 
L 468.767116 57.52918 
L 468.908464 53.846118 
L 469.049572 57.52918 
L 469.190578 53.846118 
L 469.332054 53.846118 
L 469.614764 64.895305 
L 469.756497 61.212243 
L 469.898546 50.163056 
L 470.040109 61.212243 
L 470.18127 57.52918 
L 470.322621 57.52918 
L 470.463607 53.846118 
L 470.605196 53.846118 
L 470.745608 64.895305 
L 471.027118 50.163056 
L 471.168665 75.944492 
L 471.308987 53.846118 
L 471.449701 53.846118 
L 471.737937 61.212243 
L 471.879836 57.52918 
L 472.021414 57.52918 
L 472.304139 50.163056 
L 472.445666 61.212243 
L 472.588581 50.163056 
L 472.728997 57.52918 
L 472.87303 50.163056 
L 473.01806 50.163056 
L 473.159397 57.52918 
L 473.302066 50.163056 
L 473.443989 61.212243 
L 473.58526 50.163056 
L 473.868069 57.52918 
L 474.008492 72.26143 
L 474.150095 61.212243 
L 474.292167 75.944492 
L 474.572912 57.52918 
L 474.713536 83.310617 
L 474.853677 53.846118 
L 474.995959 72.26143 
L 475.138803 53.846118 
L 475.420759 182.782491 
L 475.562141 68.578367 
L 475.845322 50.163056 
L 476.131273 75.944492 
L 476.272659 61.212243 
L 476.414188 68.578367 
L 476.555331 64.895305 
L 476.696337 53.846118 
L 476.836563 53.846118 
L 476.978432 68.578367 
L 477.119514 68.578367 
L 477.403518 352.174167 
L 477.848133 352.174167 
L 477.991754 50.163056 
L 478.133744 53.846118 
L 478.416033 64.895305 
L 478.557822 61.212243 
L 478.699081 149.605738 
L 478.840816 57.52918 
L 478.98272 311.660481 
L 479.124225 105.408991 
L 479.408087 53.846118 
L 479.551719 61.212243 
L 479.693858 101.725928 
L 479.835498 57.52918 
L 479.976586 57.52918 
L 480.11785 53.846118 
L 480.259109 57.52918 
L 480.400199 53.846118 
L 480.540856 57.52918 
L 480.964006 57.52918 
L 481.104498 50.163056 
L 481.386553 112.775115 
L 481.530352 53.846118 
L 481.672322 53.846118 
L 481.813896 61.212243 
L 482.096935 50.163056 
L 482.238135 61.212243 
L 482.379379 53.846118 
L 482.660645 61.212243 
L 482.802288 57.52918 
L 482.943579 50.163056 
L 483.084833 53.846118 
L 483.227845 61.212243 
L 483.369606 57.52918 
L 483.510449 57.52918 
L 483.65179 101.725928 
L 483.792904 94.359804 
L 483.934037 53.846118 
L 484.075512 53.846118 
L 484.217232 57.52918 
L 484.358413 50.163056 
L 484.500879 53.846118 
L 484.641732 53.846118 
L 484.783314 64.895305 
L 484.924849 61.212243 
L 485.206852 61.212243 
L 485.492071 53.846118 
L 485.633965 61.212243 
L 485.775514 57.52918 
L 485.91661 75.944492 
L 486.057534 57.52918 
L 486.198863 61.212243 
L 486.340429 57.52918 
L 486.481624 75.944492 
L 486.626081 57.52918 
L 486.767126 64.895305 
L 487.049559 50.163056 
L 487.190368 50.163056 
L 487.473883 61.212243 
L 487.61516 61.212243 
L 487.897393 75.944492 
L 488.038482 64.895305 
L 488.179481 72.26143 
L 488.320699 64.895305 
L 488.461698 64.895305 
L 488.743683 142.239614 
L 488.885183 53.846118 
L 489.029043 57.52918 
L 489.313053 57.52918 
L 489.453165 53.846118 
L 489.594526 68.578367 
L 489.735643 57.52918 
L 489.876519 193.802486 
L 490.016846 53.846118 
L 490.157421 164.337988 
L 490.299655 50.163056 
L 490.441457 186.436362 
L 490.582943 50.163056 
L 490.723704 109.092053 
L 490.864794 57.52918 
L 491.006205 149.605738 
L 491.147341 64.895305 
L 491.291699 352.174167 
L 491.73272 352.174167 
L 492.024125 75.944492 
L 492.164971 53.846118 
L 492.305515 53.846118 
L 492.445728 57.52918 
L 492.586597 53.846118 
L 492.729214 61.212243 
L 492.871278 61.212243 
L 493.012007 57.52918 
L 493.154058 57.52918 
L 493.295113 61.212243 
L 493.437769 90.676741 
L 493.580014 57.52918 
L 493.722221 112.775115 
L 493.870475 53.846118 
L 494.012007 61.212243 
L 494.152162 61.212243 
L 494.295084 64.895305 
L 494.435566 53.846118 
L 494.576635 53.846118 
L 494.716892 94.359804 
L 494.857341 61.212243 
L 494.998412 101.725928 
L 495.138933 53.846118 
L 495.281424 50.163056 
L 495.422044 61.212243 
L 495.562728 53.846118 
L 495.702912 53.846118 
L 495.842992 57.52918 
L 495.983127 50.163056 
L 496.123203 72.26143 
L 496.263421 53.846118 
L 496.403505 53.846118 
L 496.544887 79.627554 
L 496.685073 53.846118 
L 496.825233 64.895305 
L 497.105563 50.163056 
L 497.245708 53.846118 
L 497.385792 53.846118 
L 497.528767 57.52918 
L 497.668948 68.578367 
L 497.808835 57.52918 
L 498.089217 57.52918 
L 498.229277 61.212243 
L 498.3694 53.846118 
L 498.509428 64.895305 
L 498.649377 53.846118 
L 498.789334 57.52918 
L 498.929469 53.846118 
L 499.069634 61.212243 
L 499.210081 61.212243 
L 499.490434 53.846118 
L 499.631789 168.02105 
L 499.773085 53.846118 
L 499.913079 53.846118 
L 500.053399 68.578367 
L 500.193397 105.408991 
L 500.333631 64.895305 
L 500.473643 98.042866 
L 500.614916 53.846118 
L 500.755826 64.895305 
L 500.897112 53.846118 
L 501.037992 61.212243 
L 501.178005 53.846118 
L 501.318124 61.212243 
L 501.458162 57.52918 
L 501.598304 57.52918 
L 501.738276 61.212243 
L 502.019112 61.212243 
L 502.159149 83.310617 
L 502.29926 53.846118 
L 502.579152 61.212243 
L 502.719195 61.212243 
L 502.859116 50.163056 
L 502.999247 57.52918 
L 503.139188 57.52918 
L 503.280557 64.895305 
L 503.421563 57.52918 
L 503.562427 57.52918 
L 503.703855 61.212243 
L 503.983915 109.092053 
L 504.124752 105.408991 
L 504.407665 175.387175 
L 504.552136 79.627554 
L 504.696387 61.212243 
L 504.8405 86.993679 
L 505.122191 352.174167 
L 505.552739 352.174167 
L 505.696192 94.359804 
L 505.837885 57.52918 
L 505.978816 61.212243 
L 506.119292 61.212243 
L 506.259742 53.846118 
L 506.400073 57.52918 
L 506.541383 53.846118 
L 506.681774 64.895305 
L 506.962825 50.163056 
L 507.245267 57.52918 
L 507.385451 57.52918 
L 507.525656 53.846118 
L 507.665857 61.212243 
L 507.806229 61.212243 
L 507.946365 64.895305 
L 508.086609 50.163056 
L 508.368739 64.895305 
L 508.509772 53.846118 
L 508.650103 61.212243 
L 508.790092 61.212243 
L 508.930327 57.52918 
L 509.073023 83.310617 
L 509.215726 53.846118 
L 509.358414 57.52918 
L 509.500946 50.163056 
L 509.643532 61.212243 
L 509.785856 50.163056 
L 509.929046 50.163056 
L 510.069139 53.846118 
L 510.209231 61.212243 
L 510.350358 53.846118 
L 510.491253 57.52918 
L 510.631198 57.52918 
L 510.771073 68.578367 
L 510.912162 105.408991 
L 511.053387 57.52918 
L 511.197919 68.578367 
L 511.340486 138.556551 
L 511.482863 50.163056 
L 511.623132 53.846118 
L 511.763309 53.846118 
L 512.043728 68.578367 
L 512.184596 68.578367 
L 512.326421 61.212243 
L 512.467588 61.212243 
L 512.609209 64.895305 
L 512.750235 57.52918 
L 512.89142 72.26143 
L 513.033074 64.895305 
L 513.174703 68.578367 
L 513.315517 53.846118 
L 513.455996 68.578367 
L 513.738442 53.846118 
L 513.880704 53.846118 
L 514.021147 57.52918 
L 514.161647 53.846118 
L 514.302311 75.944492 
L 514.442744 57.52918 
L 514.583005 68.578367 
L 514.723478 50.163056 
L 514.864157 53.846118 
L 515.004755 53.846118 
L 515.145256 57.52918 
L 515.286104 50.163056 
L 515.426929 50.163056 
L 515.56762 53.846118 
L 515.849595 53.846118 
L 515.990417 61.212243 
L 516.131355 53.846118 
L 516.272017 61.212243 
L 516.413946 61.212243 
L 516.554968 53.846118 
L 516.836084 61.212243 
L 516.976337 57.52918 
L 517.116817 50.163056 
L 517.257689 50.163056 
L 517.398829 53.846118 
L 517.540159 64.895305 
L 517.681497 53.846118 
L 517.822137 57.52918 
L 517.963069 50.163056 
L 518.103482 53.846118 
L 518.244031 50.163056 
L 518.384781 53.846118 
L 518.806406 53.846118 
L 518.950182 352.174167 
L 519.244912 352.174167 
L 519.39315 50.163056 
L 519.535388 50.163056 
L 519.815771 57.52918 
L 519.956338 57.52918 
L 520.096852 68.578367 
L 520.238335 112.775115 
L 520.378941 61.212243 
L 520.521032 156.971863 
L 520.803389 68.578367 
L 520.943711 171.704112 
L 521.084819 64.895305 
L 521.225964 230.63311 
L 521.366413 57.52918 
L 521.507045 57.52918 
L 521.649723 86.993679 
L 521.649723 86.993679 
" style="fill:none;stroke:#1f77b4;stroke-linecap:square;stroke-width:1.5;"/>
   </g>
   <g id="patch_3">
    <path d="M 120.878594 352.174167 
L 120.878594 35.0625 
" style="fill:none;stroke:#000000;stroke-linecap:square;stroke-linejoin:miter;stroke-width:0.8;"/>
   </g>
   <g id="patch_4">
    <path d="M 540.734062 352.174167 
L 540.734062 35.0625 
" style="fill:none;stroke:#000000;stroke-linecap:square;stroke-linejoin:miter;stroke-width:0.8;"/>
   </g>
   <g id="patch_5">
    <path d="M 120.878594 352.174167 
L 540.734062 352.174167 
" style="fill:none;stroke:#000000;stroke-linecap:square;stroke-linejoin:miter;stroke-width:0.8;"/>
   </g>
   <g id="patch_6">
    <path d="M 120.878594 35.0625 
L 540.734062 35.0625 
" style="fill:none;stroke:#000000;stroke-linecap:square;stroke-linejoin:miter;stroke-width:0.8;"/>
   </g>
   <g id="legend_1">
    <g id="patch_7">
     <path d="M 563.726836 63.938438 
L 627.601836 63.938438 
Q 629.601836 63.938438 629.601836 61.938438 
L 629.601836 37.0625 
Q 629.601836 35.0625 627.601836 35.0625 
L 563.726836 35.0625 
Q 561.726836 35.0625 561.726836 37.0625 
L 561.726836 61.938438 
Q 561.726836 63.938438 563.726836 63.938438 
z
" style="fill:#ffffff;opacity:0.8;stroke:#cccccc;stroke-linejoin:miter;"/>
    </g>
    <g id="line2d_15">
     <path d="M 565.726836 49.799688 
L 585.726836 49.799688 
" style="fill:none;stroke:#1f77b4;stroke-linecap:square;stroke-width:1.5;"/>
    </g>
    <g id="line2d_16"/>
    <g id="text_15">
     <!-- queue -->
     <g transform="translate(593.726836 46.660937)scale(0.1 -0.1)">
      <use xlink:href="#DejaVuSans-113"/>
      <use x="63.476562" xlink:href="#DejaVuSans-117"/>
      <use x="126.855469" xlink:href="#DejaVuSans-101"/>
      <use x="188.378906" xlink:href="#DejaVuSans-117"/>
      <use x="251.757812" xlink:href="#DejaVuSans-101"/>
     </g>
     <!-- length -->
     <defs>
      <path d="M 9.421875 75.984375 
L 18.40625 75.984375 
L 18.40625 0 
L 9.421875 0 
z
" id="DejaVuSans-108"/>
      <path d="M 54.890625 33.015625 
L 54.890625 0 
L 45.90625 0 
L 45.90625 32.71875 
Q 45.90625 40.484375 42.875 44.328125 
Q 39.84375 48.1875 33.796875 48.1875 
Q 26.515625 48.1875 22.3125 43.546875 
Q 18.109375 38.921875 18.109375 30.90625 
L 18.109375 0 
L 9.078125 0 
L 9.078125 54.6875 
L 18.109375 54.6875 
L 18.109375 46.1875 
Q 21.34375 51.125 25.703125 53.5625 
Q 30.078125 56 35.796875 56 
Q 45.21875 56 50.046875 50.171875 
Q 54.890625 44.34375 54.890625 33.015625 
z
" id="DejaVuSans-110"/>
      <path d="M 45.40625 27.984375 
Q 45.40625 37.75 41.375 43.109375 
Q 37.359375 48.484375 30.078125 48.484375 
Q 22.859375 48.484375 18.828125 43.109375 
Q 14.796875 37.75 14.796875 27.984375 
Q 14.796875 18.265625 18.828125 12.890625 
Q 22.859375 7.515625 30.078125 7.515625 
Q 37.359375 7.515625 41.375 12.890625 
Q 45.40625 18.265625 45.40625 27.984375 
z
M 54.390625 6.78125 
Q 54.390625 -7.171875 48.1875 -13.984375 
Q 42 -20.796875 29.203125 -20.796875 
Q 24.46875 -20.796875 20.265625 -20.09375 
Q 16.0625 -19.390625 12.109375 -17.921875 
L 12.109375 -9.1875 
Q 16.0625 -11.328125 19.921875 -12.34375 
Q 23.78125 -13.375 27.78125 -13.375 
Q 36.625 -13.375 41.015625 -8.765625 
Q 45.40625 -4.15625 45.40625 5.171875 
L 45.40625 9.625 
Q 42.625 4.78125 38.28125 2.390625 
Q 33.9375 0 27.875 0 
Q 17.828125 0 11.671875 7.65625 
Q 5.515625 15.328125 5.515625 27.984375 
Q 5.515625 40.671875 11.671875 48.328125 
Q 17.828125 56 27.875 56 
Q 33.9375 56 38.28125 53.609375 
Q 42.625 51.21875 45.40625 46.390625 
L 45.40625 54.6875 
L 54.390625 54.6875 
z
" id="DejaVuSans-103"/>
      <path d="M 54.890625 33.015625 
L 54.890625 0 
L 45.90625 0 
L 45.90625 32.71875 
Q 45.90625 40.484375 42.875 44.328125 
Q 39.84375 48.1875 33.796875 48.1875 
Q 26.515625 48.1875 22.3125 43.546875 
Q 18.109375 38.921875 18.109375 30.90625 
L 18.109375 0 
L 9.078125 0 
L 9.078125 75.984375 
L 18.109375 75.984375 
L 18.109375 46.1875 
Q 21.34375 51.125 25.703125 53.5625 
Q 30.078125 56 35.796875 56 
Q 45.21875 56 50.046875 50.171875 
Q 54.890625 44.34375 54.890625 33.015625 
z
" id="DejaVuSans-104"/>
     </defs>
     <g transform="translate(593.726836 57.85875)scale(0.1 -0.1)">
      <use xlink:href="#DejaVuSans-108"/>
      <use x="27.783203" xlink:href="#DejaVuSans-101"/>
      <use x="89.306641" xlink:href="#DejaVuSans-110"/>
      <use x="152.685547" xlink:href="#DejaVuSans-103"/>
      <use x="216.162109" xlink:href="#DejaVuSans-116"/>
      <use x="255.371094" xlink:href="#DejaVuSans-104"/>
     </g>
    </g>
   </g>
  </g>
  <g id="text_16">
   <!-- result queue (bytes) -->
   <defs>
    <path d="M 41.109375 46.296875 
Q 39.59375 47.171875 37.8125 47.578125 
Q 36.03125 48 33.890625 48 
Q 26.265625 48 22.1875 43.046875 
Q 18.109375 38.09375 18.109375 28.8125 
L 18.109375 0 
L 9.078125 0 
L 9.078125 54.6875 
L 18.109375 54.6875 
L 18.109375 46.1875 
Q 20.953125 51.171875 25.484375 53.578125 
Q 30.03125 56 36.53125 56 
Q 37.453125 56 38.578125 55.875 
Q 39.703125 55.765625 41.0625 55.515625 
z
" id="DejaVuSans-114"/>
    <path id="DejaVuSans-32"/>
   </defs>
   <g transform="translate(281.072812 17.038125)scale(0.12 -0.12)">
    <use xlink:href="#DejaVuSans-114"/>
    <use x="41.082031" xlink:href="#DejaVuSans-101"/>
    <use x="102.605469" xlink:href="#DejaVuSans-115"/>
    <use x="154.705078" xlink:href="#DejaVuSans-117"/>
    <use x="218.083984" xlink:href="#DejaVuSans-108"/>
    <use x="245.867188" xlink:href="#DejaVuSans-116"/>
    <use x="285.076172" xlink:href="#DejaVuSans-32"/>
    <use x="316.863281" xlink:href="#DejaVuSans-113"/>
    <use x="380.339844" xlink:href="#DejaVuSans-117"/>
    <use x="443.71875" xlink:href="#DejaVuSans-101"/>
    <use x="505.242188" xlink:href="#DejaVuSans-117"/>
    <use x="568.621094" xlink:href="#DejaVuSans-101"/>
    <use x="630.144531" xlink:href="#DejaVuSans-32"/>
    <use x="661.931641" xlink:href="#DejaVuSans-40"/>
    <use x="700.945312" xlink:href="#DejaVuSans-98"/>
    <use x="764.421875" xlink:href="#DejaVuSans-121"/>
    <use x="823.601562" xlink:href="#DejaVuSans-116"/>
    <use x="862.810547" xlink:href="#DejaVuSans-101"/>
    <use x="924.333984" xlink:href="#DejaVuSans-115"/>
    <use x="976.433594" xlink:href="#DejaVuSans-41"/>
   </g>
  </g>
 </g>
 <defs>
  <clipPath id="p236765e37c">
   <rect height="317.111667" width="419.855469" x="120.878594" y="35.0625"/>
  </clipPath>
 </defs>
</svg>
