<?xml version="1.0" encoding="utf-8" standalone="no"?>
<!DOCTYPE svg PUBLIC "-//W3C//DTD SVG 1.1//EN"
  "http://www.w3.org/Graphics/SVG/1.1/DTD/svg11.dtd">
<!-- Created with matplotlib (https://matplotlib.org/) -->
<svg height="396pt" version="1.1" viewBox="0 0 684 396" width="684pt" xmlns="http://www.w3.org/2000/svg" xmlns:xlink="http://www.w3.org/1999/xlink">
 <defs>
  <style type="text/css">
*{stroke-linecap:butt;stroke-linejoin:round;}
  </style>
 </defs>
 <g id="figure_1">
  <g id="patch_1">
   <path d="M 0 396 
L 684 396 
L 684 0 
L 0 0 
z
" style="fill:#ffffff;"/>
  </g>
  <g id="axes_1">
   <g id="patch_2">
    <path d="M 130.230156 352.174167 
L 488.365312 352.174167 
L 488.365312 35.0625 
L 130.230156 35.0625 
z
" style="fill:#ffffff;"/>
   </g>
   <g id="matplotlib.axis_1">
    <g id="xtick_1">
     <g id="line2d_1">
      <defs>
       <path d="M 0 0 
L 0 3.5 
" id="m582a6d4f37" style="stroke:#000000;stroke-width:0.8;"/>
      </defs>
      <g>
       <use style="stroke:#000000;stroke-width:0.8;" x="146.509027" xlink:href="#m582a6d4f37" y="352.174167"/>
      </g>
     </g>
     <g id="text_1">
      <!-- 0 -->
      <defs>
       <path d="M 31.78125 66.40625 
Q 24.171875 66.40625 20.328125 58.90625 
Q 16.5 51.421875 16.5 36.375 
Q 16.5 21.390625 20.328125 13.890625 
Q 24.171875 6.390625 31.78125 6.390625 
Q 39.453125 6.390625 43.28125 13.890625 
Q 47.125 21.390625 47.125 36.375 
Q 47.125 51.421875 43.28125 58.90625 
Q 39.453125 66.40625 31.78125 66.40625 
z
M 31.78125 74.21875 
Q 44.046875 74.21875 50.515625 64.515625 
Q 56.984375 54.828125 56.984375 36.375 
Q 56.984375 17.96875 50.515625 8.265625 
Q 44.046875 -1.421875 31.78125 -1.421875 
Q 19.53125 -1.421875 13.0625 8.265625 
Q 6.59375 17.96875 6.59375 36.375 
Q 6.59375 54.828125 13.0625 64.515625 
Q 19.53125 74.21875 31.78125 74.21875 
z
" id="DejaVuSans-48"/>
      </defs>
      <g transform="translate(143.327777 366.772604)scale(0.1 -0.1)">
       <use xlink:href="#DejaVuSans-48"/>
      </g>
     </g>
    </g>
    <g id="xtick_2">
     <g id="line2d_2">
      <g>
       <use style="stroke:#000000;stroke-width:0.8;" x="205.594484" xlink:href="#m582a6d4f37" y="352.174167"/>
      </g>
     </g>
     <g id="text_2">
      <!-- 50 -->
      <defs>
       <path d="M 10.796875 72.90625 
L 49.515625 72.90625 
L 49.515625 64.59375 
L 19.828125 64.59375 
L 19.828125 46.734375 
Q 21.96875 47.46875 24.109375 47.828125 
Q 26.265625 48.1875 28.421875 48.1875 
Q 40.625 48.1875 47.75 41.5 
Q 54.890625 34.8125 54.890625 23.390625 
Q 54.890625 11.625 47.5625 5.09375 
Q 40.234375 -1.421875 26.90625 -1.421875 
Q 22.3125 -1.421875 17.546875 -0.640625 
Q 12.796875 0.140625 7.71875 1.703125 
L 7.71875 11.625 
Q 12.109375 9.234375 16.796875 8.0625 
Q 21.484375 6.890625 26.703125 6.890625 
Q 35.15625 6.890625 40.078125 11.328125 
Q 45.015625 15.765625 45.015625 23.390625 
Q 45.015625 31 40.078125 35.4375 
Q 35.15625 39.890625 26.703125 39.890625 
Q 22.75 39.890625 18.8125 39.015625 
Q 14.890625 38.140625 10.796875 36.28125 
z
" id="DejaVuSans-53"/>
      </defs>
      <g transform="translate(199.231984 366.772604)scale(0.1 -0.1)">
       <use xlink:href="#DejaVuSans-53"/>
       <use x="63.623047" xlink:href="#DejaVuSans-48"/>
      </g>
     </g>
    </g>
    <g id="xtick_3">
     <g id="line2d_3">
      <g>
       <use style="stroke:#000000;stroke-width:0.8;" x="264.679942" xlink:href="#m582a6d4f37" y="352.174167"/>
      </g>
     </g>
     <g id="text_3">
      <!-- 100 -->
      <defs>
       <path d="M 12.40625 8.296875 
L 28.515625 8.296875 
L 28.515625 63.921875 
L 10.984375 60.40625 
L 10.984375 69.390625 
L 28.421875 72.90625 
L 38.28125 72.90625 
L 38.28125 8.296875 
L 54.390625 8.296875 
L 54.390625 0 
L 12.40625 0 
z
" id="DejaVuSans-49"/>
      </defs>
      <g transform="translate(255.136192 366.772604)scale(0.1 -0.1)">
       <use xlink:href="#DejaVuSans-49"/>
       <use x="63.623047" xlink:href="#DejaVuSans-48"/>
       <use x="127.246094" xlink:href="#DejaVuSans-48"/>
      </g>
     </g>
    </g>
    <g id="xtick_4">
     <g id="line2d_4">
      <g>
       <use style="stroke:#000000;stroke-width:0.8;" x="323.765399" xlink:href="#m582a6d4f37" y="352.174167"/>
      </g>
     </g>
     <g id="text_4">
      <!-- 150 -->
      <g transform="translate(314.221649 366.772604)scale(0.1 -0.1)">
       <use xlink:href="#DejaVuSans-49"/>
       <use x="63.623047" xlink:href="#DejaVuSans-53"/>
       <use x="127.246094" xlink:href="#DejaVuSans-48"/>
      </g>
     </g>
    </g>
    <g id="xtick_5">
     <g id="line2d_5">
      <g>
       <use style="stroke:#000000;stroke-width:0.8;" x="382.850857" xlink:href="#m582a6d4f37" y="352.174167"/>
      </g>
     </g>
     <g id="text_5">
      <!-- 200 -->
      <defs>
       <path d="M 19.1875 8.296875 
L 53.609375 8.296875 
L 53.609375 0 
L 7.328125 0 
L 7.328125 8.296875 
Q 12.9375 14.109375 22.625 23.890625 
Q 32.328125 33.6875 34.8125 36.53125 
Q 39.546875 41.84375 41.421875 45.53125 
Q 43.3125 49.21875 43.3125 52.78125 
Q 43.3125 58.59375 39.234375 62.25 
Q 35.15625 65.921875 28.609375 65.921875 
Q 23.96875 65.921875 18.8125 64.3125 
Q 13.671875 62.703125 7.8125 59.421875 
L 7.8125 69.390625 
Q 13.765625 71.78125 18.9375 73 
Q 24.125 74.21875 28.421875 74.21875 
Q 39.75 74.21875 46.484375 68.546875 
Q 53.21875 62.890625 53.21875 53.421875 
Q 53.21875 48.921875 51.53125 44.890625 
Q 49.859375 40.875 45.40625 35.40625 
Q 44.1875 33.984375 37.640625 27.21875 
Q 31.109375 20.453125 19.1875 8.296875 
z
" id="DejaVuSans-50"/>
      </defs>
      <g transform="translate(373.307107 366.772604)scale(0.1 -0.1)">
       <use xlink:href="#DejaVuSans-50"/>
       <use x="63.623047" xlink:href="#DejaVuSans-48"/>
       <use x="127.246094" xlink:href="#DejaVuSans-48"/>
      </g>
     </g>
    </g>
    <g id="xtick_6">
     <g id="line2d_6">
      <g>
       <use style="stroke:#000000;stroke-width:0.8;" x="441.936315" xlink:href="#m582a6d4f37" y="352.174167"/>
      </g>
     </g>
     <g id="text_6">
      <!-- 250 -->
      <g transform="translate(432.392565 366.772604)scale(0.1 -0.1)">
       <use xlink:href="#DejaVuSans-50"/>
       <use x="63.623047" xlink:href="#DejaVuSans-53"/>
       <use x="127.246094" xlink:href="#DejaVuSans-48"/>
      </g>
     </g>
    </g>
   </g>
   <g id="matplotlib.axis_2">
    <g id="ytick_1">
     <g id="line2d_7">
      <defs>
       <path d="M 0 0 
L -3.5 0 
" id="m0e71b1a3e2" style="stroke:#000000;stroke-width:0.8;"/>
      </defs>
      <g>
       <use style="stroke:#000000;stroke-width:0.8;" x="130.230156" xlink:href="#m0e71b1a3e2" y="352.174167"/>
      </g>
     </g>
     <g id="text_7">
      <!-- 0 -->
      <g transform="translate(116.867656 355.973385)scale(0.1 -0.1)">
       <use xlink:href="#DejaVuSans-48"/>
      </g>
     </g>
    </g>
    <g id="ytick_2">
     <g id="line2d_8">
      <g>
       <use style="stroke:#000000;stroke-width:0.8;" x="130.230156" xlink:href="#m0e71b1a3e2" y="310.49327"/>
      </g>
     </g>
     <g id="text_8">
      <!-- 250000 -->
      <g transform="translate(85.055156 314.292488)scale(0.1 -0.1)">
       <use xlink:href="#DejaVuSans-50"/>
       <use x="63.623047" xlink:href="#DejaVuSans-53"/>
       <use x="127.246094" xlink:href="#DejaVuSans-48"/>
       <use x="190.869141" xlink:href="#DejaVuSans-48"/>
       <use x="254.492188" xlink:href="#DejaVuSans-48"/>
       <use x="318.115234" xlink:href="#DejaVuSans-48"/>
      </g>
     </g>
    </g>
    <g id="ytick_3">
     <g id="line2d_9">
      <g>
       <use style="stroke:#000000;stroke-width:0.8;" x="130.230156" xlink:href="#m0e71b1a3e2" y="268.812372"/>
      </g>
     </g>
     <g id="text_9">
      <!-- 500000 -->
      <g transform="translate(85.055156 272.611591)scale(0.1 -0.1)">
       <use xlink:href="#DejaVuSans-53"/>
       <use x="63.623047" xlink:href="#DejaVuSans-48"/>
       <use x="127.246094" xlink:href="#DejaVuSans-48"/>
       <use x="190.869141" xlink:href="#DejaVuSans-48"/>
       <use x="254.492188" xlink:href="#DejaVuSans-48"/>
       <use x="318.115234" xlink:href="#DejaVuSans-48"/>
      </g>
     </g>
    </g>
    <g id="ytick_4">
     <g id="line2d_10">
      <g>
       <use style="stroke:#000000;stroke-width:0.8;" x="130.230156" xlink:href="#m0e71b1a3e2" y="227.131475"/>
      </g>
     </g>
     <g id="text_10">
      <!-- 750000 -->
      <defs>
       <path d="M 8.203125 72.90625 
L 55.078125 72.90625 
L 55.078125 68.703125 
L 28.609375 0 
L 18.3125 0 
L 43.21875 64.59375 
L 8.203125 64.59375 
z
" id="DejaVuSans-55"/>
      </defs>
      <g transform="translate(85.055156 230.930694)scale(0.1 -0.1)">
       <use xlink:href="#DejaVuSans-55"/>
       <use x="63.623047" xlink:href="#DejaVuSans-53"/>
       <use x="127.246094" xlink:href="#DejaVuSans-48"/>
       <use x="190.869141" xlink:href="#DejaVuSans-48"/>
       <use x="254.492188" xlink:href="#DejaVuSans-48"/>
       <use x="318.115234" xlink:href="#DejaVuSans-48"/>
      </g>
     </g>
    </g>
    <g id="ytick_5">
     <g id="line2d_11">
      <g>
       <use style="stroke:#000000;stroke-width:0.8;" x="130.230156" xlink:href="#m0e71b1a3e2" y="185.450578"/>
      </g>
     </g>
     <g id="text_11">
      <!-- 1000000 -->
      <g transform="translate(78.692656 189.249797)scale(0.1 -0.1)">
       <use xlink:href="#DejaVuSans-49"/>
       <use x="63.623047" xlink:href="#DejaVuSans-48"/>
       <use x="127.246094" xlink:href="#DejaVuSans-48"/>
       <use x="190.869141" xlink:href="#DejaVuSans-48"/>
       <use x="254.492188" xlink:href="#DejaVuSans-48"/>
       <use x="318.115234" xlink:href="#DejaVuSans-48"/>
       <use x="381.738281" xlink:href="#DejaVuSans-48"/>
      </g>
     </g>
    </g>
    <g id="ytick_6">
     <g id="line2d_12">
      <g>
       <use style="stroke:#000000;stroke-width:0.8;" x="130.230156" xlink:href="#m0e71b1a3e2" y="143.769681"/>
      </g>
     </g>
     <g id="text_12">
      <!-- 1250000 -->
      <g transform="translate(78.692656 147.5689)scale(0.1 -0.1)">
       <use xlink:href="#DejaVuSans-49"/>
       <use x="63.623047" xlink:href="#DejaVuSans-50"/>
       <use x="127.246094" xlink:href="#DejaVuSans-53"/>
       <use x="190.869141" xlink:href="#DejaVuSans-48"/>
       <use x="254.492188" xlink:href="#DejaVuSans-48"/>
       <use x="318.115234" xlink:href="#DejaVuSans-48"/>
       <use x="381.738281" xlink:href="#DejaVuSans-48"/>
      </g>
     </g>
    </g>
    <g id="ytick_7">
     <g id="line2d_13">
      <g>
       <use style="stroke:#000000;stroke-width:0.8;" x="130.230156" xlink:href="#m0e71b1a3e2" y="102.088784"/>
      </g>
     </g>
     <g id="text_13">
      <!-- 1500000 -->
      <g transform="translate(78.692656 105.888003)scale(0.1 -0.1)">
       <use xlink:href="#DejaVuSans-49"/>
       <use x="63.623047" xlink:href="#DejaVuSans-53"/>
       <use x="127.246094" xlink:href="#DejaVuSans-48"/>
       <use x="190.869141" xlink:href="#DejaVuSans-48"/>
       <use x="254.492188" xlink:href="#DejaVuSans-48"/>
       <use x="318.115234" xlink:href="#DejaVuSans-48"/>
       <use x="381.738281" xlink:href="#DejaVuSans-48"/>
      </g>
     </g>
    </g>
    <g id="ytick_8">
     <g id="line2d_14">
      <g>
       <use style="stroke:#000000;stroke-width:0.8;" x="130.230156" xlink:href="#m0e71b1a3e2" y="60.407887"/>
      </g>
     </g>
     <g id="text_14">
      <!-- 1750000 -->
      <g transform="translate(78.692656 64.207105)scale(0.1 -0.1)">
       <use xlink:href="#DejaVuSans-49"/>
       <use x="63.623047" xlink:href="#DejaVuSans-55"/>
       <use x="127.246094" xlink:href="#DejaVuSans-53"/>
       <use x="190.869141" xlink:href="#DejaVuSans-48"/>
       <use x="254.492188" xlink:href="#DejaVuSans-48"/>
       <use x="318.115234" xlink:href="#DejaVuSans-48"/>
       <use x="381.738281" xlink:href="#DejaVuSans-48"/>
      </g>
     </g>
    </g>
    <g id="text_15">
     <!-- inflight -->
     <defs>
      <path d="M 9.421875 54.6875 
L 18.40625 54.6875 
L 18.40625 0 
L 9.421875 0 
z
M 9.421875 75.984375 
L 18.40625 75.984375 
L 18.40625 64.59375 
L 9.421875 64.59375 
z
" id="DejaVuSans-105"/>
      <path d="M 54.890625 33.015625 
L 54.890625 0 
L 45.90625 0 
L 45.90625 32.71875 
Q 45.90625 40.484375 42.875 44.328125 
Q 39.84375 48.1875 33.796875 48.1875 
Q 26.515625 48.1875 22.3125 43.546875 
Q 18.109375 38.921875 18.109375 30.90625 
L 18.109375 0 
L 9.078125 0 
L 9.078125 54.6875 
L 18.109375 54.6875 
L 18.109375 46.1875 
Q 21.34375 51.125 25.703125 53.5625 
Q 30.078125 56 35.796875 56 
Q 45.21875 56 50.046875 50.171875 
Q 54.890625 44.34375 54.890625 33.015625 
z
" id="DejaVuSans-110"/>
      <path d="M 37.109375 75.984375 
L 37.109375 68.5 
L 28.515625 68.5 
Q 23.6875 68.5 21.796875 66.546875 
Q 19.921875 64.59375 19.921875 59.515625 
L 19.921875 54.6875 
L 34.71875 54.6875 
L 34.71875 47.703125 
L 19.921875 47.703125 
L 19.921875 0 
L 10.890625 0 
L 10.890625 47.703125 
L 2.296875 47.703125 
L 2.296875 54.6875 
L 10.890625 54.6875 
L 10.890625 58.5 
Q 10.890625 67.625 15.140625 71.796875 
Q 19.390625 75.984375 28.609375 75.984375 
z
" id="DejaVuSans-102"/>
      <path d="M 9.421875 75.984375 
L 18.40625 75.984375 
L 18.40625 0 
L 9.421875 0 
z
" id="DejaVuSans-108"/>
      <path d="M 45.40625 27.984375 
Q 45.40625 37.75 41.375 43.109375 
Q 37.359375 48.484375 30.078125 48.484375 
Q 22.859375 48.484375 18.828125 43.109375 
Q 14.796875 37.75 14.796875 27.984375 
Q 14.796875 18.265625 18.828125 12.890625 
Q 22.859375 7.515625 30.078125 7.515625 
Q 37.359375 7.515625 41.375 12.890625 
Q 45.40625 18.265625 45.40625 27.984375 
z
M 54.390625 6.78125 
Q 54.390625 -7.171875 48.1875 -13.984375 
Q 42 -20.796875 29.203125 -20.796875 
Q 24.46875 -20.796875 20.265625 -20.09375 
Q 16.0625 -19.390625 12.109375 -17.921875 
L 12.109375 -9.1875 
Q 16.0625 -11.328125 19.921875 -12.34375 
Q 23.78125 -13.375 27.78125 -13.375 
Q 36.625 -13.375 41.015625 -8.765625 
Q 45.40625 -4.15625 45.40625 5.171875 
L 45.40625 9.625 
Q 42.625 4.78125 38.28125 2.390625 
Q 33.9375 0 27.875 0 
Q 17.828125 0 11.671875 7.65625 
Q 5.515625 15.328125 5.515625 27.984375 
Q 5.515625 40.671875 11.671875 48.328125 
Q 17.828125 56 27.875 56 
Q 33.9375 56 38.28125 53.609375 
Q 42.625 51.21875 45.40625 46.390625 
L 45.40625 54.6875 
L 54.390625 54.6875 
z
" id="DejaVuSans-103"/>
      <path d="M 54.890625 33.015625 
L 54.890625 0 
L 45.90625 0 
L 45.90625 32.71875 
Q 45.90625 40.484375 42.875 44.328125 
Q 39.84375 48.1875 33.796875 48.1875 
Q 26.515625 48.1875 22.3125 43.546875 
Q 18.109375 38.921875 18.109375 30.90625 
L 18.109375 0 
L 9.078125 0 
L 9.078125 75.984375 
L 18.109375 75.984375 
L 18.109375 46.1875 
Q 21.34375 51.125 25.703125 53.5625 
Q 30.078125 56 35.796875 56 
Q 45.21875 56 50.046875 50.171875 
Q 54.890625 44.34375 54.890625 33.015625 
z
" id="DejaVuSans-104"/>
      <path d="M 18.3125 70.21875 
L 18.3125 54.6875 
L 36.8125 54.6875 
L 36.8125 47.703125 
L 18.3125 47.703125 
L 18.3125 18.015625 
Q 18.3125 11.328125 20.140625 9.421875 
Q 21.96875 7.515625 27.59375 7.515625 
L 36.8125 7.515625 
L 36.8125 0 
L 27.59375 0 
Q 17.1875 0 13.234375 3.875 
Q 9.28125 7.765625 9.28125 18.015625 
L 9.28125 47.703125 
L 2.6875 47.703125 
L 2.6875 54.6875 
L 9.28125 54.6875 
L 9.28125 70.21875 
z
" id="DejaVuSans-116"/>
     </defs>
     <g transform="translate(61.415156 211.017552)rotate(-90)scale(0.1 -0.1)">
      <use xlink:href="#DejaVuSans-105"/>
      <use x="27.783203" xlink:href="#DejaVuSans-110"/>
      <use x="91.162109" xlink:href="#DejaVuSans-102"/>
      <use x="126.367188" xlink:href="#DejaVuSans-108"/>
      <use x="154.150391" xlink:href="#DejaVuSans-105"/>
      <use x="181.933594" xlink:href="#DejaVuSans-103"/>
      <use x="245.410156" xlink:href="#DejaVuSans-104"/>
      <use x="308.789062" xlink:href="#DejaVuSans-116"/>
     </g>
     <!-- (bytes) -->
     <defs>
      <path d="M 31 75.875 
Q 24.46875 64.65625 21.28125 53.65625 
Q 18.109375 42.671875 18.109375 31.390625 
Q 18.109375 20.125 21.3125 9.0625 
Q 24.515625 -2 31 -13.1875 
L 23.1875 -13.1875 
Q 15.875 -1.703125 12.234375 9.375 
Q 8.59375 20.453125 8.59375 31.390625 
Q 8.59375 42.28125 12.203125 53.3125 
Q 15.828125 64.359375 23.1875 75.875 
z
" id="DejaVuSans-40"/>
      <path d="M 48.6875 27.296875 
Q 48.6875 37.203125 44.609375 42.84375 
Q 40.53125 48.484375 33.40625 48.484375 
Q 26.265625 48.484375 22.1875 42.84375 
Q 18.109375 37.203125 18.109375 27.296875 
Q 18.109375 17.390625 22.1875 11.75 
Q 26.265625 6.109375 33.40625 6.109375 
Q 40.53125 6.109375 44.609375 11.75 
Q 48.6875 17.390625 48.6875 27.296875 
z
M 18.109375 46.390625 
Q 20.953125 51.265625 25.265625 53.625 
Q 29.59375 56 35.59375 56 
Q 45.5625 56 51.78125 48.09375 
Q 58.015625 40.1875 58.015625 27.296875 
Q 58.015625 14.40625 51.78125 6.484375 
Q 45.5625 -1.421875 35.59375 -1.421875 
Q 29.59375 -1.421875 25.265625 0.953125 
Q 20.953125 3.328125 18.109375 8.203125 
L 18.109375 0 
L 9.078125 0 
L 9.078125 75.984375 
L 18.109375 75.984375 
z
" id="DejaVuSans-98"/>
      <path d="M 32.171875 -5.078125 
Q 28.375 -14.84375 24.75 -17.8125 
Q 21.140625 -20.796875 15.09375 -20.796875 
L 7.90625 -20.796875 
L 7.90625 -13.28125 
L 13.1875 -13.28125 
Q 16.890625 -13.28125 18.9375 -11.515625 
Q 21 -9.765625 23.484375 -3.21875 
L 25.09375 0.875 
L 2.984375 54.6875 
L 12.5 54.6875 
L 29.59375 11.921875 
L 46.6875 54.6875 
L 56.203125 54.6875 
z
" id="DejaVuSans-121"/>
      <path d="M 56.203125 29.59375 
L 56.203125 25.203125 
L 14.890625 25.203125 
Q 15.484375 15.921875 20.484375 11.0625 
Q 25.484375 6.203125 34.421875 6.203125 
Q 39.59375 6.203125 44.453125 7.46875 
Q 49.3125 8.734375 54.109375 11.28125 
L 54.109375 2.78125 
Q 49.265625 0.734375 44.1875 -0.34375 
Q 39.109375 -1.421875 33.890625 -1.421875 
Q 20.796875 -1.421875 13.15625 6.1875 
Q 5.515625 13.8125 5.515625 26.8125 
Q 5.515625 40.234375 12.765625 48.109375 
Q 20.015625 56 32.328125 56 
Q 43.359375 56 49.78125 48.890625 
Q 56.203125 41.796875 56.203125 29.59375 
z
M 47.21875 32.234375 
Q 47.125 39.59375 43.09375 43.984375 
Q 39.0625 48.390625 32.421875 48.390625 
Q 24.90625 48.390625 20.390625 44.140625 
Q 15.875 39.890625 15.1875 32.171875 
z
" id="DejaVuSans-101"/>
      <path d="M 44.28125 53.078125 
L 44.28125 44.578125 
Q 40.484375 46.53125 36.375 47.5 
Q 32.28125 48.484375 27.875 48.484375 
Q 21.1875 48.484375 17.84375 46.4375 
Q 14.5 44.390625 14.5 40.28125 
Q 14.5 37.15625 16.890625 35.375 
Q 19.28125 33.59375 26.515625 31.984375 
L 29.59375 31.296875 
Q 39.15625 29.25 43.1875 25.515625 
Q 47.21875 21.78125 47.21875 15.09375 
Q 47.21875 7.46875 41.1875 3.015625 
Q 35.15625 -1.421875 24.609375 -1.421875 
Q 20.21875 -1.421875 15.453125 -0.5625 
Q 10.6875 0.296875 5.421875 2 
L 5.421875 11.28125 
Q 10.40625 8.6875 15.234375 7.390625 
Q 20.0625 6.109375 24.8125 6.109375 
Q 31.15625 6.109375 34.5625 8.28125 
Q 37.984375 10.453125 37.984375 14.40625 
Q 37.984375 18.0625 35.515625 20.015625 
Q 33.0625 21.96875 24.703125 23.78125 
L 21.578125 24.515625 
Q 13.234375 26.265625 9.515625 29.90625 
Q 5.8125 33.546875 5.8125 39.890625 
Q 5.8125 47.609375 11.28125 51.796875 
Q 16.75 56 26.8125 56 
Q 31.78125 56 36.171875 55.265625 
Q 40.578125 54.546875 44.28125 53.078125 
z
" id="DejaVuSans-115"/>
      <path d="M 8.015625 75.875 
L 15.828125 75.875 
Q 23.140625 64.359375 26.78125 53.3125 
Q 30.421875 42.28125 30.421875 31.390625 
Q 30.421875 20.453125 26.78125 9.375 
Q 23.140625 -1.703125 15.828125 -13.1875 
L 8.015625 -13.1875 
Q 14.5 -2 17.703125 9.0625 
Q 20.90625 20.125 20.90625 31.390625 
Q 20.90625 42.671875 17.703125 53.65625 
Q 14.5 64.65625 8.015625 75.875 
z
" id="DejaVuSans-41"/>
     </defs>
     <g transform="translate(72.612969 211.294896)rotate(-90)scale(0.1 -0.1)">
      <use xlink:href="#DejaVuSans-40"/>
      <use x="39.013672" xlink:href="#DejaVuSans-98"/>
      <use x="102.490234" xlink:href="#DejaVuSans-121"/>
      <use x="161.669922" xlink:href="#DejaVuSans-116"/>
      <use x="200.878906" xlink:href="#DejaVuSans-101"/>
      <use x="262.402344" xlink:href="#DejaVuSans-115"/>
      <use x="314.501953" xlink:href="#DejaVuSans-41"/>
     </g>
    </g>
   </g>
   <g id="line2d_15">
    <path clip-path="url(#p0cdc864ab7)" d="M 153.615826 234.846109 
L 154.20668 138.762638 
L 155.38839 319.341624 
L 155.979244 266.230157 
L 156.570099 316.68605 
L 157.160953 271.78272 
L 157.751808 296.889958 
L 158.342662 289.164654 
L 158.933517 259.711932 
L 159.524372 309.443578 
L 160.115226 257.780606 
L 160.706081 255.125033 
L 161.296935 283.12926 
L 161.88779 266.954405 
L 162.478644 269.851394 
L 163.069499 323.204276 
L 163.660354 259.711932 
L 164.251208 267.437236 
L 164.842063 299.0627 
L 165.432917 321.755781 
L 166.023772 296.165711 
L 166.614626 295.68288 
L 167.205481 304.856678 
L 167.796336 305.580926 
L 168.38719 306.788004 
L 168.978045 320.790118 
L 170.159754 301.718274 
L 170.750608 335.757895 
L 171.341463 333.102322 
L 171.932318 339.861963 
L 172.523172 324.894186 
L 173.114027 332.860906 
L 173.704881 332.860906 
L 174.295736 308.960746 
L 174.886591 311.133488 
L 175.477445 300.752611 
L 176.0683 329.722501 
L 176.659154 289.164654 
L 177.250009 267.920068 
L 177.840863 296.648543 
L 178.431718 311.374904 
L 179.022573 298.579869 
L 179.613427 275.16254 
L 180.204282 258.263437 
L 180.795136 314.513309 
L 181.385991 274.679709 
L 181.976845 256.573527 
L 182.5677 277.576698 
L 183.158555 318.134545 
L 183.749409 322.96286 
L 184.340264 321.755781 
L 184.931118 322.480029 
L 185.521973 319.341624 
L 186.112827 321.031534 
L 186.703682 296.889958 
L 187.294537 321.997197 
L 187.885391 352.174167 
L 188.476246 316.203219 
L 189.0671 327.54976 
L 189.657955 307.512252 
L 190.248809 329.23967 
L 190.839664 329.722501 
L 191.430519 328.756838 
L 192.021373 328.274007 
L 192.612228 327.308344 
L 193.203082 325.859849 
L 193.793937 325.618433 
L 194.384791 324.894186 
L 194.975646 325.377018 
L 195.566501 325.135602 
L 196.157355 325.859849 
L 196.74821 325.859849 
L 197.339064 325.618433 
L 198.520774 326.584097 
L 199.111628 326.584097 
L 199.702483 328.756838 
L 200.293337 339.137716 
L 200.884192 282.887845 
L 201.475046 294.958632 
L 202.065901 292.785891 
L 202.656756 312.581983 
L 203.24761 328.032591 
L 203.838465 330.688164 
L 204.429319 334.067985 
L 205.020174 330.688164 
L 205.611028 333.102322 
L 206.201883 330.92958 
L 206.792738 331.412412 
L 207.383592 332.860906 
L 207.974447 331.653827 
L 208.565301 332.136659 
L 209.156156 331.170996 
L 209.74701 332.136659 
L 210.337865 331.412412 
L 210.92872 330.92958 
L 211.519574 331.653827 
L 212.110429 337.930637 
L 212.701283 321.514366 
L 213.292138 262.850337 
L 213.882992 325.377018 
L 214.473847 280.956519 
L 215.064702 318.134545 
L 215.655556 275.16254 
L 216.246411 318.858792 
L 216.837265 316.68605 
L 217.42812 285.543418 
L 218.018974 318.134545 
L 218.609829 306.305173 
L 219.200684 319.341624 
L 219.791538 323.204276 
L 220.382393 310.892072 
L 221.564102 324.411355 
L 222.154957 308.960746 
L 222.745811 302.683937 
L 223.336666 324.411355 
L 223.92752 329.481086 
L 224.518375 321.997197 
L 225.109229 277.335282 
L 225.700084 319.341624 
L 226.290939 306.546589 
L 226.881793 319.58304 
L 227.472648 319.100208 
L 228.063502 269.851394 
L 228.654357 325.618433 
L 229.245211 325.135602 
L 229.836066 321.27295 
L 230.426921 320.548703 
L 231.017775 324.169939 
L 231.60863 321.031534 
L 232.199484 322.480029 
L 232.790339 321.27295 
L 233.381193 324.411355 
L 233.972048 321.27295 
L 234.562903 324.65277 
L 235.153757 321.755781 
L 235.744612 326.101265 
L 236.335466 347.345852 
L 236.926321 326.825512 
L 237.517175 285.302002 
L 238.10803 280.956519 
L 238.698885 320.548703 
L 239.289739 286.991912 
L 239.880594 321.755781 
L 240.471448 325.135602 
L 241.062303 323.687107 
L 241.653157 323.928523 
L 242.244012 321.514366 
L 242.834867 321.27295 
L 243.425721 321.27295 
L 244.016576 319.100208 
L 244.60743 321.031534 
L 245.198285 319.824455 
L 245.78914 323.928523 
L 246.379994 321.27295 
L 246.970849 320.548703 
L 248.152558 319.58304 
L 248.743412 329.722501 
L 249.334267 288.681823 
L 249.925122 266.230157 
L 250.515976 327.308344 
L 251.106831 295.441464 
L 251.697685 289.164654 
L 252.28854 314.99614 
L 252.879394 321.755781 
L 253.470249 296.648543 
L 254.061104 311.857735 
L 254.651958 323.204276 
L 255.833667 326.101265 
L 256.424522 328.998254 
L 257.015376 313.547646 
L 257.606231 332.378075 
L 258.197086 295.200048 
L 258.78794 322.96286 
L 259.378795 320.790118 
L 259.969649 305.33951 
L 260.560504 351.932751 
L 261.151358 332.61949 
L 261.742213 254.15937 
L 262.333068 326.584097 
L 262.923922 327.54976 
L 263.514777 278.059529 
L 264.105631 302.201105 
L 264.696486 331.895243 
L 265.28734 320.790118 
L 265.878195 319.58304 
L 266.46905 330.92958 
L 267.059904 325.135602 
L 267.650759 326.101265 
L 268.241613 324.65277 
L 268.832468 324.169939 
L 269.423323 324.169939 
L 270.014177 323.445692 
L 270.605032 323.928523 
L 271.195886 322.480029 
L 271.786741 322.480029 
L 272.377595 321.514366 
L 272.96845 319.824455 
L 273.559305 286.991912 
L 274.150159 325.859849 
L 274.741014 319.824455 
L 275.331868 324.411355 
L 275.922723 326.584097 
L 276.513577 325.135602 
L 277.104432 326.825512 
L 277.695287 327.308344 
L 278.286141 326.584097 
L 278.876996 327.066928 
L 279.46785 326.584097 
L 280.058705 327.066928 
L 280.649559 328.515423 
L 281.240414 327.54976 
L 281.831269 328.998254 
L 282.422123 306.063757 
L 283.012978 329.23967 
L 283.603832 327.066928 
L 284.194687 331.170996 
L 284.785541 348.070099 
L 285.376396 339.620547 
L 285.967251 294.958632 
L 286.558105 313.789061 
L 287.14896 313.789061 
L 287.739814 332.378075 
L 288.330669 327.308344 
L 288.921524 331.653827 
L 289.512378 333.343738 
L 290.103233 331.895243 
L 290.694087 315.237556 
L 291.284942 332.860906 
L 291.875796 314.030477 
L 292.466651 331.895243 
L 293.057506 331.412412 
L 293.64836 334.792232 
L 294.239215 332.136659 
L 294.830069 335.033648 
L 295.420924 332.136659 
L 296.011778 333.102322 
L 296.602633 331.895243 
L 297.193488 351.932751 
L 297.784342 274.196877 
L 298.375197 276.369619 
L 298.966051 300.511195 
L 299.556906 317.410298 
L 300.14776 296.648543 
L 300.738615 284.336339 
L 301.32947 326.101265 
L 301.920324 321.031534 
L 302.511179 323.928523 
L 303.102033 320.548703 
L 303.692888 321.031534 
L 304.283742 320.307287 
L 304.874597 321.031534 
L 305.465452 321.997197 
L 306.056306 321.27295 
L 306.647161 324.65277 
L 307.238015 324.169939 
L 307.82887 325.135602 
L 308.419724 325.377018 
L 309.010579 325.377018 
L 309.601434 336.240727 
L 310.192288 321.755781 
L 310.783143 338.654884 
L 311.373997 316.68605 
L 311.964852 332.378075 
L 312.555707 332.860906 
L 313.146561 332.860906 
L 313.737416 310.650657 
L 314.32827 334.792232 
L 314.919125 335.999311 
L 315.509979 333.585153 
L 316.100834 332.378075 
L 316.691689 332.378075 
L 317.282543 331.170996 
L 317.873398 333.585153 
L 318.464252 331.895243 
L 319.055107 334.309401 
L 319.645961 332.136659 
L 320.236816 335.033648 
L 320.827671 331.895243 
L 321.418525 351.932751 
L 322.00938 330.446749 
L 322.600234 266.954405 
L 323.191089 317.893129 
L 323.781943 326.825512 
L 324.372798 331.412412 
L 324.963653 332.61949 
L 325.554507 331.895243 
L 326.145362 331.653827 
L 326.736216 334.067985 
L 327.327071 333.826569 
L 327.917925 336.964974 
L 328.50878 321.031534 
L 329.099635 315.961803 
L 329.690489 309.684994 
L 330.872198 323.204276 
L 331.463053 332.61949 
L 332.053907 334.067985 
L 332.644762 334.067985 
L 333.826471 339.861963 
L 334.417326 319.58304 
L 335.00818 329.722501 
L 335.599035 304.373847 
L 336.18989 312.099151 
L 336.780744 330.92958 
L 337.371599 319.824455 
L 337.962453 332.378075 
L 338.553308 333.102322 
L 339.144162 332.860906 
L 339.735017 332.860906 
L 340.325872 334.550816 
L 340.916726 333.343738 
L 341.507581 335.757895 
L 342.098435 333.343738 
L 342.68929 335.999311 
L 343.280144 333.343738 
L 343.870999 334.067985 
L 344.461854 333.343738 
L 345.052708 332.136659 
L 345.643563 351.932751 
L 346.234417 322.480029 
L 346.825272 312.823398 
L 347.416126 324.65277 
L 348.006981 315.478972 
L 348.597836 312.581983 
L 349.18869 328.756838 
L 349.779545 320.307287 
L 350.370399 319.824455 
L 350.961254 325.377018 
L 351.552108 324.169939 
L 352.142963 305.822341 
L 352.733818 326.342681 
L 353.324672 326.584097 
L 353.915527 325.377018 
L 354.506381 325.135602 
L 355.097236 326.342681 
L 355.68809 325.377018 
L 356.278945 325.618433 
L 356.8698 328.274007 
L 357.460654 324.65277 
L 358.051509 337.930637 
L 358.642363 201.289319 
L 359.233218 299.304116 
L 359.824073 273.47263 
L 360.414927 322.238613 
L 361.005782 276.369619 
L 361.596636 290.371733 
L 362.187491 322.238613 
L 362.778345 279.266608 
L 363.3692 318.858792 
L 363.960055 327.308344 
L 364.550909 300.752611 
L 365.141764 320.548703 
L 365.732618 280.956519 
L 366.323473 326.101265 
L 366.914327 327.54976 
L 367.505182 299.786948 
L 368.096037 328.274007 
L 368.686891 326.825512 
L 369.277746 329.722501 
L 369.8686 351.932751 
L 371.050309 273.955462 
L 371.641164 318.617377 
L 372.232019 325.377018 
L 372.822873 328.756838 
L 373.413728 329.481086 
L 374.004582 307.02942 
L 374.595437 330.446749 
L 375.186291 329.722501 
L 375.777146 336.964974 
L 376.368001 331.412412 
L 376.958855 333.102322 
L 377.54971 322.238613 
L 378.731419 332.136659 
L 379.322273 335.033648 
L 379.913128 332.860906 
L 380.503983 336.723558 
L 381.094837 332.860906 
L 381.685692 335.033648 
L 382.276546 339.620547 
L 382.867401 321.27295 
L 383.458256 321.997197 
L 384.04911 326.101265 
L 384.639965 296.648543 
L 385.230819 324.411355 
L 385.821674 323.687107 
L 386.412528 323.204276 
L 387.003383 326.584097 
L 387.594238 326.825512 
L 388.185092 293.027306 
L 388.775947 324.411355 
L 389.366801 323.445692 
L 389.957656 326.101265 
L 390.54851 325.618433 
L 391.139365 327.066928 
L 391.73022 327.791175 
L 392.321074 327.54976 
L 392.911929 328.274007 
L 393.502783 328.515423 
L 394.093638 351.932751 
L 394.684492 320.790118 
L 395.275347 236.777435 
L 395.866202 315.237556 
L 396.457056 322.721444 
L 397.047911 314.513309 
L 397.638765 321.514366 
L 398.22962 324.65277 
L 398.820474 300.994026 
L 399.411329 331.653827 
L 400.002184 321.514366 
L 400.593038 324.894186 
L 401.183893 321.27295 
L 401.774747 316.444635 
L 402.365602 321.997197 
L 402.956456 322.96286 
L 403.547311 321.755781 
L 404.138166 322.721444 
L 404.72902 322.238613 
L 405.319875 322.480029 
L 405.910729 323.204276 
L 406.501584 327.791175 
L 407.092439 307.02942 
L 407.683293 326.584097 
L 408.274148 318.858792 
L 408.865002 330.205333 
L 409.455857 308.719331 
L 410.046711 314.271893 
L 410.637566 329.481086 
L 411.228421 324.894186 
L 411.819275 332.860906 
L 412.41013 311.374904 
L 413.591839 324.169939 
L 414.182693 332.61949 
L 414.773548 336.482143 
L 415.364403 332.860906 
L 415.955257 335.516479 
L 416.546112 327.791175 
L 417.136966 334.792232 
L 417.727821 329.722501 
L 418.318675 351.932751 
L 418.90953 338.413469 
L 419.500385 321.514366 
L 420.091239 321.997197 
L 420.682094 316.444635 
L 421.272948 329.481086 
L 421.863803 329.23967 
L 422.454657 330.446749 
L 423.045512 330.92958 
L 423.636367 332.378075 
L 424.227221 329.722501 
L 424.818076 330.688164 
L 425.40893 328.998254 
L 425.999785 329.23967 
L 427.181494 327.066928 
L 427.772349 327.54976 
L 428.363203 326.825512 
L 428.954058 328.032591 
L 429.544912 326.825512 
L 430.135767 328.032591 
L 430.726622 327.54976 
L 431.317476 324.894186 
L 431.908331 331.895243 
L 432.499185 315.720387 
L 433.09004 336.482143 
L 433.680894 307.02942 
L 434.271749 334.792232 
L 434.862604 300.511195 
L 435.453458 328.998254 
L 436.044313 328.032591 
L 436.635167 327.54976 
L 437.226022 327.308344 
L 437.816876 328.998254 
L 438.407731 328.274007 
L 439.58944 330.92958 
L 440.180295 329.481086 
L 440.771149 332.61949 
L 441.362004 329.481086 
L 441.952858 330.205333 
L 443.134568 312.099151 
L 443.725422 294.717217 
L 444.316277 320.065871 
L 444.907131 304.856678 
L 445.497986 306.305173 
L 446.08884 312.340567 
L 446.679695 320.307287 
L 447.27055 326.101265 
L 447.861404 318.617377 
L 448.452259 318.858792 
L 449.043113 326.101265 
L 449.633968 328.515423 
L 450.224822 311.374904 
L 450.815677 301.235442 
L 451.406532 329.481086 
L 451.997386 309.684994 
L 452.588241 300.994026 
L 453.179095 325.618433 
L 453.76995 332.378075 
L 454.360805 333.826569 
L 454.951659 351.932751 
L 455.542514 320.790118 
L 456.133368 331.653827 
L 456.724223 333.102322 
L 457.315077 322.721444 
L 457.905932 336.482143 
L 458.496787 335.033648 
L 459.087641 334.309401 
L 459.678496 314.754724 
L 460.26935 332.61949 
L 460.860205 310.409241 
L 461.451059 328.032591 
L 462.041914 336.723558 
L 462.632769 335.275064 
L 463.223623 336.240727 
L 463.814478 332.61949 
L 464.405332 333.102322 
L 464.996187 327.54976 
L 465.587041 333.343738 
L 466.177896 337.930637 
L 466.768751 337.930637 
L 467.359605 305.822341 
L 467.95046 316.444635 
L 468.541314 321.514366 
L 469.132169 331.895243 
L 469.723023 305.098094 
L 470.313878 330.446749 
L 470.904733 332.61949 
L 471.495587 329.722501 
L 472.086442 305.098094 
L 472.086442 305.098094 
" style="fill:none;stroke:#1f77b4;stroke-linecap:square;stroke-width:1.5;"/>
   </g>
   <g id="line2d_16">
    <path clip-path="url(#p0cdc864ab7)" d="M 148.860628 112.206905 
L 149.451483 299.304116 
L 150.042337 284.336339 
L 150.633192 262.608921 
L 151.224046 180.527564 
L 151.814901 183.183137 
L 152.405756 321.755781 
L 152.99661 325.377018 
L 153.587465 292.303059 
L 154.178319 237.501682 
L 154.769174 301.718274 
L 155.360029 303.891015 
L 155.950883 309.926409 
L 156.541738 334.067985 
L 157.132592 313.30623 
L 157.723447 331.412412 
L 158.314301 331.653827 
L 158.905156 319.100208 
L 159.496011 310.892072 
L 160.086865 309.202162 
L 160.67772 312.099151 
L 161.268574 329.481086 
L 161.859429 312.099151 
L 162.450283 308.960746 
L 163.041138 338.654884 
L 163.631993 320.548703 
L 164.222847 312.823398 
L 164.813702 331.412412 
L 165.404556 330.688164 
L 165.995411 291.578812 
L 166.586265 309.202162 
L 167.17712 322.238613 
L 167.767975 316.444635 
L 168.358829 313.789061 
L 168.949684 326.342681 
L 169.540538 254.883617 
L 170.722247 315.961803 
L 171.313102 298.821285 
L 171.903957 304.132431 
L 172.494811 327.308344 
L 173.085666 331.412412 
L 173.67652 296.648543 
L 174.267375 301.235442 
L 174.858229 322.96286 
L 175.449084 288.681823 
L 176.039939 352.174167 
L 176.630793 325.377018 
L 177.221648 321.755781 
L 177.812502 330.92958 
L 178.403357 312.581983 
L 178.994212 331.653827 
L 179.585066 322.96286 
L 180.175921 297.37279 
L 180.766775 332.136659 
L 181.35763 316.203219 
L 181.948484 320.548703 
L 183.130194 335.757895 
L 183.721048 335.516479 
L 184.311903 336.723558 
L 184.902757 335.999311 
L 185.493612 335.757895 
L 186.084466 337.447806 
L 186.675321 319.341624 
L 187.266176 334.792232 
L 187.85703 321.27295 
L 188.447885 286.991912 
L 189.038739 300.028363 
L 189.629594 285.060586 
L 190.220448 330.688164 
L 190.811303 328.515423 
L 191.402158 329.722501 
L 191.993012 328.756838 
L 192.583867 329.23967 
L 193.174721 329.23967 
L 193.765576 328.756838 
L 194.35643 328.756838 
L 194.947285 327.791175 
L 195.53814 329.23967 
L 196.128994 327.308344 
L 196.719849 329.23967 
L 197.310703 328.032591 
L 197.901558 329.23967 
L 198.492413 328.274007 
L 199.083267 328.756838 
L 199.674122 327.791175 
L 200.264976 351.932751 
L 200.855831 320.790118 
L 201.446685 314.271893 
L 202.03754 319.341624 
L 202.628395 335.516479 
L 203.219249 338.8963 
L 203.810104 336.482143 
L 204.400958 337.689221 
L 204.991813 335.999311 
L 205.582667 335.516479 
L 206.173522 336.240727 
L 206.764377 335.516479 
L 207.355231 337.20639 
L 207.946086 335.275064 
L 208.53694 336.240727 
L 209.127795 335.033648 
L 209.718649 335.757895 
L 210.309504 335.275064 
L 210.900359 335.757895 
L 211.491213 335.033648 
L 212.082068 336.964974 
L 212.672922 333.826569 
L 213.263777 267.19582 
L 213.854631 302.683937 
L 214.445486 323.687107 
L 215.036341 333.585153 
L 215.627195 326.584097 
L 216.21805 342.034705 
L 216.808904 333.585153 
L 217.399759 320.790118 
L 217.990613 335.033648 
L 218.581468 332.61949 
L 219.172323 337.447806 
L 219.763177 335.516479 
L 220.354032 334.309401 
L 220.944886 337.20639 
L 221.535741 345.414525 
L 222.126596 331.653827 
L 222.71745 310.167825 
L 223.308305 333.826569 
L 223.899159 330.688164 
L 224.490014 311.857735 
L 225.080868 309.684994 
L 225.671723 334.550816 
L 226.262578 330.446749 
L 226.853432 336.723558 
L 227.444287 335.757895 
L 228.035141 336.240727 
L 228.625996 339.379132 
L 229.21685 335.516479 
L 229.807705 319.58304 
L 230.39856 336.240727 
L 230.989414 337.447806 
L 231.580269 337.930637 
L 232.171123 335.757895 
L 232.761978 336.723558 
L 233.352832 336.240727 
L 233.943687 336.723558 
L 234.534542 334.550816 
L 235.125396 334.792232 
L 235.716251 333.102322 
L 236.307105 337.20639 
L 236.89796 331.412412 
L 237.488814 330.688164 
L 238.079669 324.411355 
L 238.670524 338.654884 
L 239.261378 321.27295 
L 239.852233 338.654884 
L 240.443087 338.172053 
L 241.033942 338.172053 
L 241.624796 336.482143 
L 242.806506 335.516479 
L 243.988215 335.999311 
L 244.579069 336.482143 
L 245.169924 335.516479 
L 245.760779 336.723558 
L 246.351633 336.240727 
L 246.942488 335.999311 
L 247.533342 337.930637 
L 248.124197 335.757895 
L 248.715051 330.688164 
L 249.305906 307.02942 
L 249.896761 336.240727 
L 250.487615 337.689221 
L 251.07847 325.135602 
L 251.669324 329.963917 
L 252.260179 333.343738 
L 252.851033 342.517536 
L 253.441888 328.032591 
L 254.032743 337.447806 
L 254.623597 338.172053 
L 255.214452 338.413469 
L 255.805306 337.689221 
L 256.396161 339.137716 
L 256.987015 335.516479 
L 257.57787 339.137716 
L 258.168725 328.515423 
L 258.759579 337.930637 
L 259.350434 337.930637 
L 259.941288 324.411355 
L 260.532143 342.276121 
L 261.122997 351.932751 
L 261.713852 312.581983 
L 262.304707 334.792232 
L 262.895561 307.270836 
L 263.486416 307.995083 
L 264.07727 314.99614 
L 264.668125 301.959689 
L 265.258979 324.169939 
L 265.849834 326.342681 
L 266.440689 327.066928 
L 267.031543 325.859849 
L 267.622398 330.205333 
L 268.213252 327.308344 
L 268.804107 330.205333 
L 269.394962 327.54976 
L 269.985816 330.446749 
L 270.576671 328.515423 
L 271.167525 329.963917 
L 271.75838 329.963917 
L 272.349234 328.515423 
L 272.940089 322.480029 
L 273.530944 294.958632 
L 274.121798 339.137716 
L 274.712653 334.792232 
L 275.303507 333.826569 
L 275.894362 334.550816 
L 276.485216 327.308344 
L 277.076071 333.585153 
L 277.666926 333.343738 
L 278.25778 332.378075 
L 278.848635 334.067985 
L 279.439489 332.61949 
L 280.030344 333.343738 
L 280.621198 332.136659 
L 281.212053 334.550816 
L 281.802908 332.136659 
L 282.393762 333.343738 
L 282.984617 331.653827 
L 283.575471 334.550816 
L 284.166326 331.895243 
L 284.75718 333.343738 
L 285.348035 352.174167 
L 285.93889 318.134545 
L 286.529744 323.204276 
L 287.120599 327.066928 
L 287.711453 328.756838 
L 288.302308 327.308344 
L 288.893162 327.54976 
L 289.484017 327.308344 
L 290.074872 330.205333 
L 290.665726 309.926409 
L 291.256581 329.23967 
L 291.847435 316.444635 
L 292.43829 326.825512 
L 293.029145 328.998254 
L 293.619999 329.963917 
L 294.210854 331.412412 
L 294.801708 328.032591 
L 295.392563 328.998254 
L 295.983417 326.825512 
L 296.574272 327.54976 
L 297.165127 314.99614 
L 297.755981 351.208504 
L 298.346836 295.441464 
L 298.93769 331.895243 
L 299.528545 333.343738 
L 300.119399 317.651714 
L 300.710254 313.789061 
L 301.301109 334.067985 
L 301.891963 331.653827 
L 302.482818 331.895243 
L 303.073672 332.378075 
L 303.664527 332.136659 
L 304.255381 332.61949 
L 304.846236 333.585153 
L 305.437091 333.826569 
L 306.027945 333.585153 
L 306.6188 335.757895 
L 307.209654 333.102322 
L 307.800509 335.516479 
L 308.391363 332.136659 
L 308.982218 335.033648 
L 309.573073 324.411355 
L 310.163927 304.856678 
L 310.754782 335.275064 
L 311.345636 318.858792 
L 311.936491 327.791175 
L 312.527345 325.135602 
L 313.1182 330.92958 
L 313.709055 317.651714 
L 314.299909 333.585153 
L 314.890764 331.170996 
L 315.481618 327.308344 
L 316.072473 325.859849 
L 316.663328 327.066928 
L 317.254182 327.54976 
L 317.845037 328.756838 
L 318.435891 328.515423 
L 319.026746 326.825512 
L 319.6176 328.515423 
L 320.208455 326.584097 
L 320.79931 328.274007 
L 321.390164 330.446749 
L 321.981019 351.932751 
L 322.571873 277.093866 
L 323.162728 313.064814 
L 323.753582 305.822341 
L 324.344437 323.928523 
L 324.935292 305.33951 
L 325.526146 302.201105 
L 326.117001 327.54976 
L 326.707855 332.61949 
L 327.29871 302.442521 
L 327.889564 320.790118 
L 328.480419 310.409241 
L 329.071274 306.305173 
L 329.662128 315.961803 
L 330.252983 313.30623 
L 330.843837 332.136659 
L 331.434692 331.170996 
L 332.025546 326.584097 
L 332.616401 332.378075 
L 333.207256 328.515423 
L 333.79811 321.27295 
L 334.388965 324.411355 
L 334.979819 335.275064 
L 335.570674 314.030477 
L 336.161528 308.719331 
L 336.752383 328.515423 
L 337.343238 326.342681 
L 337.934092 328.515423 
L 338.524947 328.515423 
L 339.115801 329.481086 
L 339.706656 328.756838 
L 340.888365 328.756838 
L 341.47922 329.23967 
L 342.070074 326.825512 
L 342.660929 327.54976 
L 343.251783 326.584097 
L 343.842638 327.066928 
L 344.433493 326.101265 
L 345.024347 326.584097 
L 345.615202 333.585153 
L 346.206056 346.86302 
L 346.796911 316.444635 
L 347.387765 328.274007 
L 347.97862 327.791175 
L 348.569475 320.065871 
L 349.160329 330.205333 
L 349.751184 304.132431 
L 350.342038 331.170996 
L 350.932893 330.446749 
L 351.523747 331.412412 
L 352.114602 323.204276 
L 352.705457 331.412412 
L 353.296311 329.963917 
L 353.887166 330.205333 
L 354.47802 330.205333 
L 355.068875 331.412412 
L 355.659729 330.688164 
L 356.250584 330.688164 
L 356.841439 331.412412 
L 357.432293 332.378075 
L 358.023148 325.859849 
L 358.614002 301.476858 
L 359.204857 332.61949 
L 359.795711 312.340567 
L 360.386566 345.17311 
L 360.977421 323.687107 
L 361.568275 319.341624 
L 362.15913 333.102322 
L 362.749984 315.720387 
L 363.340839 331.895243 
L 363.931694 335.999311 
L 364.522548 327.54976 
L 365.113403 335.757895 
L 365.704257 317.893129 
L 366.295112 334.792232 
L 366.885966 335.516479 
L 367.476821 325.135602 
L 368.067676 335.275064 
L 368.65853 334.067985 
L 369.249385 336.240727 
L 369.840239 341.551873 
L 370.431094 351.932751 
L 371.021948 338.8963 
L 371.612803 335.516479 
L 372.203658 336.240727 
L 372.794512 335.757895 
L 373.385367 336.964974 
L 373.976221 326.342681 
L 374.567076 335.275064 
L 375.15793 334.792232 
L 375.748785 338.654884 
L 376.33964 335.275064 
L 376.930494 336.964974 
L 377.521349 332.378075 
L 378.112203 328.998254 
L 378.703058 334.067985 
L 379.293912 335.999311 
L 379.884767 333.826569 
L 380.475622 333.102322 
L 381.066476 333.343738 
L 381.657331 332.61949 
L 382.248185 279.266608 
L 383.429894 334.792232 
L 384.020749 312.581983 
L 384.611604 320.790118 
L 385.202458 309.684994 
L 385.793313 335.999311 
L 386.384167 329.963917 
L 386.975022 314.030477 
L 387.565877 331.653827 
L 388.156731 316.68605 
L 388.747586 328.274007 
L 389.929295 325.859849 
L 390.520149 326.101265 
L 391.111004 325.377018 
L 391.701859 325.135602 
L 392.292713 315.720387 
L 392.883568 324.65277 
L 394.065277 320.790118 
L 394.656131 351.932751 
L 395.246986 301.959689 
L 395.837841 313.064814 
L 396.428695 317.168882 
L 397.01955 310.892072 
L 397.610404 317.893129 
L 398.201259 318.134545 
L 398.792113 286.026249 
L 399.382968 282.405013 
L 399.973823 316.444635 
L 400.564677 270.575641 
L 401.155532 264.781663 
L 401.746386 318.858792 
L 402.337241 278.542361 
L 402.928095 324.65277 
L 403.51895 321.997197 
L 404.109805 323.445692 
L 404.700659 325.859849 
L 405.291514 324.894186 
L 405.882368 328.032591 
L 406.473223 311.133488 
L 407.064077 310.409241 
L 407.654932 327.066928 
L 408.245787 322.721444 
L 408.836641 325.135602 
L 409.427496 295.924295 
L 410.609205 321.031534 
L 411.20006 319.824455 
L 411.790914 286.026249 
L 412.381769 308.719331 
L 412.972623 297.855622 
L 413.563478 319.100208 
L 414.154332 321.514366 
L 414.745187 286.509081 
L 415.336042 316.444635 
L 415.926896 317.168882 
L 416.517751 320.548703 
L 417.108605 319.58304 
L 417.69946 321.27295 
L 418.290314 332.61949 
L 418.881169 351.932751 
L 419.472024 318.617377 
L 420.062878 317.893129 
L 420.653733 314.271893 
L 421.244587 326.825512 
L 421.835442 329.722501 
L 422.426296 327.791175 
L 423.608006 327.308344 
L 424.19886 329.23967 
L 424.789715 326.101265 
L 425.380569 330.92958 
L 425.971424 325.377018 
L 426.562278 329.23967 
L 427.153133 322.480029 
L 427.743988 327.308344 
L 428.334842 320.790118 
L 428.925697 322.721444 
L 429.516551 320.065871 
L 430.107406 319.341624 
L 430.69826 312.823398 
L 431.289115 314.513309 
L 431.87997 278.542361 
L 432.470824 315.478972 
L 433.061679 286.750497 
L 433.652533 310.167825 
L 434.243388 326.101265 
L 434.834243 305.098094 
L 435.425097 324.169939 
L 436.015952 324.169939 
L 436.606806 325.135602 
L 437.197661 323.928523 
L 437.788515 327.066928 
L 438.37937 324.894186 
L 438.970225 327.308344 
L 439.561079 324.65277 
L 440.151934 327.308344 
L 440.742788 324.65277 
L 441.333643 326.342681 
L 441.924497 325.377018 
L 442.515352 351.932751 
L 443.106207 284.336339 
L 443.697061 310.167825 
L 444.287916 294.234385 
L 444.87877 324.65277 
L 445.469625 320.548703 
L 446.060479 328.756838 
L 446.651334 334.792232 
L 447.242189 298.338453 
L 447.833043 334.067985 
L 448.423898 333.102322 
L 449.014752 341.793289 
L 449.605607 336.723558 
L 450.196461 318.858792 
L 450.787316 310.650657 
L 451.378171 340.344795 
L 451.969025 322.721444 
L 452.55988 340.103379 
L 453.150734 335.275064 
L 453.741589 311.374904 
L 454.332443 318.375961 
L 454.923298 338.654884 
L 455.514153 330.688164 
L 456.105007 315.961803 
L 456.695862 315.237556 
L 457.286716 338.654884 
L 457.877571 323.687107 
L 458.468426 339.379132 
L 459.05928 338.8963 
L 459.650135 319.341624 
L 460.240989 332.61949 
L 460.831844 317.651714 
L 461.422698 330.92958 
L 462.013553 335.757895 
L 462.604408 333.102322 
L 463.195262 317.168882 
L 463.786117 332.378075 
L 464.376971 335.999311 
L 464.967826 331.170996 
L 465.55868 332.860906 
L 466.149535 335.033648 
L 466.74039 351.932751 
L 467.331244 327.791175 
L 467.331244 327.791175 
" style="fill:none;stroke:#ff7f0e;stroke-linecap:square;stroke-width:1.5;"/>
   </g>
   <g id="line2d_17">
    <path clip-path="url(#p0cdc864ab7)" d="M 151.276042 160.490056 
L 151.866896 233.397615 
L 152.457751 274.438293 
L 153.048605 286.026249 
L 154.230315 162.904214 
L 154.821169 267.920068 
L 155.412024 306.788004 
L 156.002878 237.984514 
L 156.593733 305.33951 
L 157.184587 248.365391 
L 157.775442 297.855622 
L 158.366297 265.50591 
L 158.957151 250.779549 
L 159.548006 308.477915 
L 160.13886 226.637973 
L 160.729715 241.60575 
L 161.320569 251.503796 
L 161.911424 232.673367 
L 162.502279 228.327884 
L 163.093133 307.270836 
L 163.683988 268.161483 
L 164.274842 312.823398 
L 164.865697 278.300945 
L 165.456552 301.718274 
L 166.047406 320.065871 
L 166.638261 266.471573 
L 167.229115 286.267665 
L 167.81997 281.43935 
L 169.001679 287.233328 
L 169.592534 277.818114 
L 170.183388 217.464175 
L 170.774243 306.788004 
L 171.365097 297.37279 
L 171.955952 311.857735 
L 172.546806 269.127147 
L 173.137661 284.577755 
L 173.728516 307.753668 
L 174.31937 312.581983 
L 174.910225 250.296718 
L 175.501079 245.226987 
L 176.091934 351.932751 
L 176.682788 314.99614 
L 177.273643 315.237556 
L 178.455352 336.482143 
L 179.046207 335.275064 
L 179.637061 312.340567 
L 180.227916 337.689221 
L 180.81877 335.999311 
L 181.409625 317.410298 
L 182.00048 338.413469 
L 182.591334 338.8963 
L 183.182189 336.723558 
L 183.773043 337.447806 
L 184.363898 336.482143 
L 184.954752 336.482143 
L 185.545607 337.447806 
L 186.136462 336.240727 
L 186.727316 336.240727 
L 187.318171 332.61949 
L 187.909025 337.447806 
L 188.49988 310.409241 
L 189.090735 330.92958 
L 189.681589 337.447806 
L 190.272444 328.998254 
L 190.863298 330.446749 
L 191.454153 333.102322 
L 192.045007 331.170996 
L 192.635862 333.343738 
L 193.226717 331.653827 
L 193.817571 333.102322 
L 194.408426 330.446749 
L 194.99928 332.378075 
L 195.590135 328.032591 
L 196.180989 328.515423 
L 197.362699 324.894186 
L 197.953553 324.894186 
L 198.544408 323.204276 
L 199.135262 323.204276 
L 199.726117 322.96286 
L 200.316971 352.174167 
L 200.907826 311.857735 
L 201.498681 332.860906 
L 202.089535 307.02942 
L 203.271244 324.894186 
L 203.862099 330.446749 
L 204.452953 333.102322 
L 205.043808 332.136659 
L 205.634663 333.826569 
L 206.225517 332.61949 
L 206.816372 335.033648 
L 207.407226 333.585153 
L 207.998081 332.61949 
L 208.588935 332.860906 
L 209.17979 331.170996 
L 209.770645 332.378075 
L 210.361499 330.92958 
L 210.952354 332.860906 
L 211.543208 331.412412 
L 212.134063 328.756838 
L 212.724918 324.65277 
L 213.315772 289.164654 
L 213.906627 340.344795 
L 214.497481 320.790118 
L 215.088336 337.689221 
L 215.67919 304.856678 
L 216.270045 334.309401 
L 216.8609 328.998254 
L 217.451754 301.959689 
L 218.042609 332.136659 
L 218.633463 316.203219 
L 219.224318 329.722501 
L 219.815172 329.722501 
L 220.406027 321.997197 
L 220.996882 330.205333 
L 221.587736 332.61949 
L 222.178591 308.236499 
L 222.769445 340.103379 
L 223.3603 332.378075 
L 223.951154 332.378075 
L 224.542009 283.12926 
L 225.132864 302.201105 
L 225.723718 317.410298 
L 226.314573 307.995083 
L 226.905427 327.308344 
L 227.496282 320.307287 
L 228.087136 322.96286 
L 228.677991 329.481086 
L 229.268846 328.032591 
L 229.8597 330.688164 
L 230.450555 332.61949 
L 231.041409 330.688164 
L 231.632264 330.92958 
L 232.223118 329.963917 
L 232.813973 329.23967 
L 233.404828 330.688164 
L 233.995682 327.791175 
L 234.586537 330.446749 
L 235.177391 328.274007 
L 235.768246 329.963917 
L 236.359101 337.20639 
L 236.949955 345.897357 
L 237.54081 306.546589 
L 238.131664 328.998254 
L 238.722519 327.791175 
L 239.313373 328.032591 
L 239.904228 327.066928 
L 240.495083 332.378075 
L 241.085937 328.756838 
L 241.676792 331.653827 
L 242.267646 330.688164 
L 242.858501 330.446749 
L 243.449355 331.653827 
L 244.04021 331.653827 
L 244.631065 331.895243 
L 245.221919 330.688164 
L 245.812774 331.170996 
L 246.403628 330.446749 
L 246.994483 332.860906 
L 247.585337 331.895243 
L 248.176192 334.067985 
L 248.767047 328.756838 
L 249.357901 303.6496 
L 249.948756 314.754724 
L 250.53961 332.61949 
L 251.130465 333.102322 
L 251.721319 333.102322 
L 252.312174 310.892072 
L 252.903029 334.067985 
L 253.493883 333.102322 
L 254.084738 319.824455 
L 254.675592 333.343738 
L 255.266447 332.61949 
L 255.857301 332.860906 
L 256.448156 333.343738 
L 257.039011 320.307287 
L 257.629865 334.067985 
L 258.22072 321.031534 
L 258.811574 333.585153 
L 259.402429 334.067985 
L 260.584138 339.379132 
L 261.174993 334.309401 
L 261.765847 295.924295 
L 262.356702 337.930637 
L 262.947556 343.241784 
L 263.538411 347.345852 
L 264.129266 317.168882 
L 264.72012 340.827626 
L 265.310975 326.825512 
L 265.901829 337.20639 
L 266.492684 338.654884 
L 267.083538 329.481086 
L 267.674393 336.240727 
L 268.265248 336.723558 
L 268.856102 335.757895 
L 269.446957 336.240727 
L 270.037811 336.482143 
L 270.628666 336.240727 
L 271.810375 336.240727 
L 272.40123 335.757895 
L 272.992084 314.030477 
L 273.582939 298.821285 
L 274.173793 322.480029 
L 274.764648 304.615263 
L 275.355502 323.928523 
L 275.946357 322.96286 
L 276.537212 301.235442 
L 277.128066 325.135602 
L 277.718921 327.54976 
L 278.309775 324.894186 
L 278.90063 327.791175 
L 279.491484 324.169939 
L 280.082339 327.54976 
L 280.673194 325.135602 
L 281.264048 326.584097 
L 281.854903 325.135602 
L 282.445757 324.169939 
L 283.036612 325.135602 
L 283.627467 323.928523 
L 284.218321 323.687107 
L 284.809176 332.136659 
L 285.40003 351.932751 
L 285.990885 246.19265 
L 286.581739 323.445692 
L 287.172594 288.681823 
L 287.763449 320.065871 
L 288.354303 325.377018 
L 288.945158 321.031534 
L 289.536012 323.687107 
L 290.126867 321.031534 
L 290.717721 279.990856 
L 291.308576 321.997197 
L 291.899431 329.722501 
L 292.490285 321.27295 
L 293.08114 286.750497 
L 293.671994 322.96286 
L 294.262849 321.031534 
L 294.853703 324.169939 
L 295.444558 321.997197 
L 296.035413 325.618433 
L 296.626267 321.997197 
L 297.217122 321.514366 
L 297.807976 311.374904 
L 298.398831 333.826569 
L 298.989685 325.618433 
L 299.58054 334.792232 
L 300.171395 319.100208 
L 300.762249 337.20639 
L 301.353104 336.240727 
L 301.943958 331.653827 
L 302.534813 330.446749 
L 303.125667 336.723558 
L 303.716522 336.240727 
L 304.307377 335.999311 
L 304.898231 336.240727 
L 305.489086 336.240727 
L 306.07994 336.482143 
L 306.670795 337.447806 
L 307.26165 336.723558 
L 307.852504 337.20639 
L 308.443359 337.930637 
L 309.034213 338.8963 
L 309.625068 311.374904 
L 310.215922 270.817057 
L 310.806777 335.999311 
L 311.397632 299.0627 
L 311.988486 317.651714 
L 312.579341 322.721444 
L 313.76105 338.172053 
L 314.351904 330.205333 
L 314.942759 332.378075 
L 315.533614 333.826569 
L 316.124468 332.136659 
L 316.715323 333.585153 
L 317.306177 332.61949 
L 317.897032 333.102322 
L 318.487886 331.653827 
L 319.078741 330.92958 
L 320.26045 333.585153 
L 320.851305 335.757895 
L 321.442159 329.963917 
L 322.033014 328.515423 
L 322.623868 279.508024 
L 323.214723 299.786948 
L 323.805578 310.892072 
L 324.396432 304.373847 
L 324.987287 328.032591 
L 325.578141 320.548703 
L 326.168996 314.99614 
L 326.75985 324.169939 
L 327.350705 315.961803 
L 327.94156 319.58304 
L 328.532414 320.790118 
L 329.123269 288.198991 
L 329.714123 323.928523 
L 330.304978 320.065871 
L 330.895833 286.026249 
L 331.486687 319.100208 
L 332.077542 320.065871 
L 332.668396 320.065871 
L 333.259251 318.858792 
L 333.850105 300.511195 
L 334.44096 304.856678 
L 335.031815 324.169939 
L 335.622669 294.958632 
L 336.213524 327.066928 
L 337.395233 312.823398 
L 337.986087 313.789061 
L 338.576942 329.23967 
L 339.167797 330.688164 
L 339.758651 329.963917 
L 340.349506 333.343738 
L 340.94036 331.895243 
L 341.531215 333.585153 
L 342.122069 331.170996 
L 343.894633 332.61949 
L 344.485488 332.378075 
L 345.076342 333.102322 
L 345.667197 335.033648 
L 346.258051 329.23967 
L 346.848906 311.374904 
L 347.439761 331.412412 
L 348.030615 321.27295 
L 348.62147 319.341624 
L 349.212324 335.275064 
L 349.803179 337.20639 
L 350.394033 328.756838 
L 350.984888 336.240727 
L 351.575743 330.446749 
L 352.166597 311.857735 
L 352.757452 334.792232 
L 353.348306 335.275064 
L 353.939161 334.792232 
L 354.530016 335.033648 
L 355.12087 336.240727 
L 355.711725 334.792232 
L 356.302579 336.482143 
L 356.893434 334.550816 
L 357.484288 335.757895 
L 358.075143 351.691335 
L 358.665998 245.226987 
L 359.256852 305.33951 
L 359.847707 308.477915 
L 360.438561 329.481086 
L 361.029416 326.342681 
L 361.62027 329.722501 
L 362.211125 328.998254 
L 362.80198 328.756838 
L 363.392834 311.374904 
L 363.983689 326.342681 
L 364.574543 310.167825 
L 365.165398 328.032591 
L 365.756252 334.792232 
L 366.347107 325.135602 
L 366.937962 326.342681 
L 367.528816 333.102322 
L 368.119671 328.032591 
L 368.710525 330.92958 
L 369.30138 330.92958 
L 369.892234 339.137716 
L 370.483089 327.791175 
L 371.073944 330.688164 
L 371.664798 327.308344 
L 372.255653 331.653827 
L 372.846507 316.927466 
L 373.437362 331.412412 
L 374.028216 310.167825 
L 374.619071 329.481086 
L 375.209926 311.61632 
L 375.80078 330.92958 
L 376.391635 322.721444 
L 376.982489 324.169939 
L 377.573344 308.477915 
L 378.164199 323.928523 
L 378.755053 312.823398 
L 379.345908 325.859849 
L 379.936762 325.135602 
L 380.527617 321.755781 
L 381.118471 323.928523 
L 381.709326 322.480029 
L 382.300181 322.96286 
L 382.891035 321.031534 
L 383.48189 325.135602 
L 384.072744 328.274007 
L 384.663599 312.823398 
L 385.254453 328.515423 
L 385.845308 328.998254 
L 386.436163 330.688164 
L 387.027017 333.343738 
L 387.617872 332.378075 
L 388.208726 304.373847 
L 388.799581 334.067985 
L 389.390435 333.826569 
L 389.98129 334.792232 
L 390.572145 333.585153 
L 391.162999 336.482143 
L 391.753854 335.757895 
L 392.344708 337.20639 
L 392.935563 334.309401 
L 393.526417 336.240727 
L 394.117272 341.551873 
L 394.708127 338.172053 
L 395.298981 294.958632 
L 395.889836 329.963917 
L 396.48069 337.689221 
L 397.071545 328.756838 
L 397.662399 338.172053 
L 398.253254 335.999311 
L 398.844109 321.031534 
L 399.434963 338.172053 
L 400.025818 335.757895 
L 400.616672 316.203219 
L 401.207527 339.379132 
L 401.798382 330.446749 
L 402.389236 338.654884 
L 402.980091 337.689221 
L 403.570945 337.20639 
L 404.1618 338.172053 
L 404.752654 337.689221 
L 405.343509 337.447806 
L 405.934364 337.447806 
L 406.525218 351.932751 
L 407.116073 296.407127 
L 407.706927 309.202162 
L 408.297782 330.446749 
L 408.888636 336.964974 
L 409.479491 318.858792 
L 410.070346 323.204276 
L 410.6612 329.23967 
L 411.252055 323.445692 
L 411.842909 334.067985 
L 412.433764 333.585153 
L 413.024618 342.517536 
L 413.615473 318.375961 
L 414.206328 331.170996 
L 414.797182 330.446749 
L 415.388037 327.308344 
L 415.978891 330.92958 
L 416.569746 308.960746 
L 417.1606 330.205333 
L 417.751455 312.581983 
L 418.34231 339.137716 
L 418.933164 333.102322 
L 419.524019 299.0627 
L 420.114873 303.891015 
L 420.705728 301.235442 
L 421.296582 329.481086 
L 421.887437 330.688164 
L 422.478292 331.170996 
L 423.069146 330.688164 
L 423.660001 331.170996 
L 424.250855 331.895243 
L 424.84171 331.170996 
L 425.432565 332.378075 
L 426.023419 333.102322 
L 426.614274 333.102322 
L 427.205128 334.067985 
L 427.795983 333.102322 
L 428.386837 333.826569 
L 428.977692 333.585153 
L 429.568547 332.860906 
L 430.159401 333.102322 
L 430.750256 290.613149 
L 431.34111 321.514366 
L 431.931965 332.378075 
L 432.522819 304.615263 
L 433.113674 330.205333 
L 433.704529 304.856678 
L 434.295383 333.102322 
L 434.886238 332.61949 
L 435.477092 331.895243 
L 436.067947 333.102322 
L 436.658801 333.343738 
L 438.431365 332.61949 
L 439.02222 333.343738 
L 439.613074 331.653827 
L 440.203929 333.826569 
L 440.794783 330.92958 
L 441.385638 332.378075 
L 441.976493 330.688164 
L 442.567347 335.275064 
L 443.158202 351.932751 
L 443.749056 298.097037 
L 444.339911 324.894186 
L 444.930765 298.338453 
L 445.52162 284.577755 
L 446.112475 295.200048 
L 446.703329 317.410298 
L 447.294184 320.065871 
L 447.885038 317.893129 
L 448.475893 285.784834 
L 449.066748 267.678652 
L 449.657602 312.823398 
L 450.248457 266.471573 
L 450.839311 292.785891 
L 451.430166 301.235442 
L 452.02102 245.709818 
L 452.611875 298.821285 
L 453.20273 263.333168 
L 454.384439 305.580926 
L 454.975293 285.543418 
L 455.566148 230.25921 
L 456.157002 294.234385 
L 456.747857 295.441464 
L 457.338712 244.502739 
L 457.929566 215.291433 
L 458.520421 299.545532 
L 459.111275 299.304116 
L 459.70213 231.94912 
L 460.292984 293.992969 
L 460.883839 268.161483 
L 461.474694 254.15937 
L 462.065548 310.409241 
L 462.656403 301.959689 
L 463.247257 318.858792 
L 463.838112 288.198991 
L 464.428966 296.889958 
L 465.019821 279.025193 
L 465.610676 312.099151 
L 466.792385 321.031534 
L 467.383239 241.122919 
L 468.564948 270.575641 
L 469.155803 306.788004 
L 469.746658 241.60575 
L 469.746658 241.60575 
" style="fill:none;stroke:#2ca02c;stroke-linecap:square;stroke-width:1.5;"/>
   </g>
   <g id="line2d_18">
    <path clip-path="url(#p0cdc864ab7)" d="M 146.509027 286.267665 
L 147.099882 277.576698 
L 147.690736 283.370676 
L 148.281591 283.370676 
L 148.872445 50.163056 
L 149.4633 294.717217 
L 150.645009 256.332111 
L 151.235864 162.421382 
L 151.826718 246.675481 
L 152.417573 291.578812 
L 153.008427 309.443578 
L 153.599282 285.784834 
L 154.190136 247.158313 
L 154.780991 315.478972 
L 155.371846 332.378075 
L 155.9627 317.651714 
L 156.553555 331.412412 
L 157.144409 318.617377 
L 157.735264 333.826569 
L 158.326118 334.550816 
L 158.916973 326.825512 
L 159.507828 340.103379 
L 160.098682 339.137716 
L 160.689537 318.858792 
L 161.280391 335.757895 
L 162.462101 307.753668 
L 163.052955 338.8963 
L 163.64381 300.269779 
L 164.234664 335.757895 
L 164.825519 324.169939 
L 165.416373 329.23967 
L 166.007228 331.653827 
L 166.598083 301.476858 
L 167.188937 315.720387 
L 167.779792 308.719331 
L 168.370646 314.030477 
L 168.961501 326.101265 
L 169.552355 297.37279 
L 170.14321 319.58304 
L 170.734065 328.756838 
L 171.915774 332.378075 
L 172.506628 320.065871 
L 173.097483 321.997197 
L 173.688337 328.032591 
L 174.279192 331.170996 
L 174.870047 320.307287 
L 175.460901 352.174167 
L 176.051756 332.860906 
L 176.64261 307.02942 
L 177.233465 295.441464 
L 177.824319 316.68605 
L 178.415174 327.066928 
L 179.006029 324.169939 
L 179.596883 302.925352 
L 180.187738 262.608921 
L 180.778592 320.307287 
L 181.369447 289.647486 
L 181.960301 285.543418 
L 182.551156 293.510138 
L 183.142011 315.961803 
L 183.732865 321.997197 
L 184.32372 320.790118 
L 184.914574 297.131374 
L 185.505429 320.307287 
L 186.096284 319.100208 
L 186.687138 307.512252 
L 187.277993 321.755781 
L 187.868847 351.932751 
L 188.459702 291.578812 
L 189.050556 321.031534 
L 189.641411 277.576698 
L 190.232266 319.100208 
L 190.82312 323.928523 
L 191.413975 323.204276 
L 192.004829 323.445692 
L 192.595684 323.204276 
L 193.186538 326.101265 
L 193.777393 324.894186 
L 194.368248 327.066928 
L 194.959102 327.791175 
L 195.549957 328.274007 
L 196.140811 332.860906 
L 196.731666 329.722501 
L 197.32252 332.136659 
L 197.913375 331.170996 
L 198.50423 331.170996 
L 199.685939 331.653827 
L 200.276793 323.204276 
L 200.867648 246.434065 
L 201.458502 236.536019 
L 202.049357 267.437236 
L 202.640212 274.679709 
L 203.231066 303.166768 
L 203.821921 309.202162 
L 204.412775 309.202162 
L 205.00363 236.777435 
L 205.594484 310.892072 
L 206.185339 316.203219 
L 206.776194 309.443578 
L 207.367048 318.375961 
L 207.957903 310.650657 
L 208.548757 316.927466 
L 209.139612 313.547646 
L 209.730467 318.858792 
L 210.321321 315.478972 
L 210.912176 316.927466 
L 211.50303 315.478972 
L 212.093885 351.932751 
L 212.684739 323.687107 
L 213.275594 281.680766 
L 213.866449 297.855622 
L 214.457303 299.0627 
L 215.048158 328.274007 
L 216.229867 266.230157 
L 216.820721 320.307287 
L 217.411576 283.12926 
L 218.002431 256.090696 
L 218.593285 306.305173 
L 219.18414 319.58304 
L 219.774994 321.755781 
L 220.365849 319.100208 
L 220.956703 325.618433 
L 221.547558 325.377018 
L 222.138413 321.514366 
L 222.729267 293.268722 
L 223.320122 317.893129 
L 223.910976 320.548703 
L 225.092685 303.166768 
L 225.68354 316.444635 
L 226.274395 306.305173 
L 226.865249 322.96286 
L 227.456104 319.100208 
L 228.046958 322.480029 
L 228.637813 325.135602 
L 229.228667 319.58304 
L 229.819522 287.233328 
L 230.410377 322.721444 
L 231.001231 325.377018 
L 231.592086 323.928523 
L 232.18294 325.135602 
L 232.773795 324.65277 
L 233.36465 327.308344 
L 233.955504 325.618433 
L 234.546359 328.032591 
L 235.137213 327.066928 
L 235.728068 330.205333 
L 236.318922 351.932751 
L 236.909777 334.309401 
L 237.500632 293.027306 
L 238.091486 322.721444 
L 239.273195 321.27295 
L 239.86405 324.169939 
L 240.454904 322.238613 
L 241.045759 321.514366 
L 241.636614 323.687107 
L 242.227468 322.238613 
L 242.818323 325.618433 
L 243.409177 321.997197 
L 244.000032 324.169939 
L 244.590886 322.480029 
L 245.181741 325.377018 
L 245.772596 322.238613 
L 246.36345 323.928523 
L 247.545159 321.27295 
L 248.136014 323.687107 
L 248.726868 329.722501 
L 249.317723 274.196877 
L 249.908578 268.644315 
L 250.499432 309.202162 
L 251.090287 265.264494 
L 251.681141 272.989799 
L 252.271996 292.061643 
L 252.86285 318.134545 
L 253.453705 274.438293 
L 254.04456 296.889958 
L 254.635414 310.409241 
L 255.226269 308.960746 
L 255.817123 313.547646 
L 256.407978 312.099151 
L 256.998833 312.823398 
L 257.589687 318.858792 
L 258.180542 286.267665 
L 258.771396 315.237556 
L 259.362251 318.134545 
L 259.953105 291.09598 
L 260.54396 351.932751 
L 261.134815 332.61949 
L 261.725669 220.361164 
L 262.316524 312.823398 
L 262.907378 286.750497 
L 263.498233 286.991912 
L 264.089087 297.614206 
L 264.679942 270.817057 
L 265.270797 317.651714 
L 265.861651 317.651714 
L 266.452506 264.298831 
L 267.04336 317.410298 
L 267.634215 266.471573 
L 268.225069 322.238613 
L 268.815924 322.96286 
L 269.406779 322.96286 
L 269.997633 322.480029 
L 270.588488 322.480029 
L 271.179342 321.997197 
L 271.770197 322.721444 
L 272.361051 322.721444 
L 272.951906 329.963917 
L 273.542761 284.336339 
L 274.133615 317.168882 
L 274.72447 318.617377 
L 275.315324 319.58304 
L 275.906179 296.648543 
L 276.497033 319.58304 
L 277.087888 324.169939 
L 277.678743 325.618433 
L 278.269597 325.377018 
L 278.860452 326.342681 
L 279.451306 325.618433 
L 280.042161 326.584097 
L 280.633016 326.584097 
L 281.22387 328.274007 
L 281.814725 326.101265 
L 282.405579 319.58304 
L 282.996434 326.584097 
L 283.587288 328.998254 
L 284.178143 327.066928 
L 284.768998 351.932751 
L 285.359852 339.379132 
L 285.950707 262.850337 
L 286.541561 303.6496 
L 287.72327 326.101265 
L 288.314125 327.54976 
L 288.90498 326.101265 
L 289.495834 328.274007 
L 290.086689 326.825512 
L 290.677543 302.201105 
L 291.268398 328.756838 
L 291.859252 309.684994 
L 292.450107 327.308344 
L 293.040962 326.342681 
L 293.631816 328.274007 
L 294.222671 328.274007 
L 294.813525 328.756838 
L 295.40438 328.515423 
L 295.995234 328.998254 
L 296.586089 328.515423 
L 297.176944 339.137716 
L 297.767798 273.231214 
L 298.358653 297.614206 
L 299.540362 321.755781 
L 300.131216 284.819171 
L 300.722071 289.888902 
L 301.312926 318.858792 
L 301.90378 319.341624 
L 302.494635 321.997197 
L 303.085489 318.617377 
L 303.676344 321.514366 
L 304.267199 319.58304 
L 304.858053 318.858792 
L 305.448908 287.233328 
L 306.039762 318.617377 
L 306.630617 319.58304 
L 307.221471 320.307287 
L 307.812326 322.238613 
L 308.403181 320.065871 
L 308.994035 329.23967 
L 309.58489 331.895243 
L 310.175744 298.579869 
L 310.766599 320.065871 
L 311.357453 284.336339 
L 311.948308 309.202162 
L 312.539163 313.789061 
L 313.130017 315.237556 
L 313.720872 269.127147 
L 314.311726 317.651714 
L 314.902581 323.687107 
L 315.493435 322.238613 
L 316.08429 319.58304 
L 316.675145 320.065871 
L 317.265999 320.065871 
L 317.856854 319.824455 
L 318.447708 322.238613 
L 319.038563 318.858792 
L 319.629417 320.065871 
L 320.220272 319.341624 
L 320.811127 320.548703 
L 321.401981 351.932751 
L 321.992836 329.722501 
L 322.58369 246.19265 
L 323.174545 314.513309 
L 323.765399 309.443578 
L 324.356254 326.825512 
L 324.947109 298.097037 
L 325.537963 285.060586 
L 326.128818 324.894186 
L 326.719672 325.859849 
L 327.310527 304.856678 
L 327.901382 327.066928 
L 328.492236 300.028363 
L 329.083091 290.854565 
L 329.673945 307.512252 
L 330.2648 288.681823 
L 330.855654 313.30623 
L 331.446509 322.480029 
L 332.037364 326.101265 
L 332.628218 326.101265 
L 333.219073 328.756838 
L 333.809927 335.516479 
L 334.400782 319.341624 
L 334.991636 329.481086 
L 335.582491 308.477915 
L 336.173346 306.305173 
L 336.7642 319.100208 
L 337.355055 315.720387 
L 337.945909 314.271893 
L 338.536764 316.927466 
L 339.127618 317.651714 
L 339.718473 316.444635 
L 340.309328 317.893129 
L 340.900182 317.410298 
L 341.491037 321.27295 
L 342.081891 317.410298 
L 342.672746 317.410298 
L 343.2636 319.58304 
L 343.854455 317.651714 
L 344.44531 318.858792 
L 345.036164 317.651714 
L 345.627019 351.932751 
L 346.217873 312.340567 
L 346.808728 286.509081 
L 347.399583 317.893129 
L 348.581292 298.097037 
L 349.172146 316.444635 
L 349.763001 314.030477 
L 350.353855 293.992969 
L 350.94471 315.720387 
L 351.535565 315.237556 
L 352.126419 304.132431 
L 352.717274 318.617377 
L 353.308128 323.928523 
L 353.898983 319.341624 
L 354.489837 323.687107 
L 355.080692 319.824455 
L 355.671547 322.721444 
L 356.262401 319.824455 
L 356.853256 322.480029 
L 357.44411 322.721444 
L 358.034965 335.033648 
L 358.625819 268.161483 
L 359.216674 318.617377 
L 359.807529 322.480029 
L 360.398383 321.031534 
L 360.989238 287.71616 
L 362.170947 323.204276 
L 362.761801 307.02942 
L 363.352656 325.618433 
L 363.943511 325.377018 
L 364.534365 310.892072 
L 365.12522 323.445692 
L 365.716074 288.440407 
L 366.306929 314.030477 
L 366.897783 319.58304 
L 367.488638 296.889958 
L 368.079493 316.444635 
L 368.670347 318.134545 
L 369.261202 320.790118 
L 369.852056 352.174167 
L 370.442911 316.927466 
L 371.033766 311.374904 
L 371.62462 313.064814 
L 372.215475 311.61632 
L 372.806329 315.237556 
L 373.397184 314.030477 
L 373.988038 288.198991 
L 374.578893 312.823398 
L 375.169748 313.064814 
L 375.760602 315.478972 
L 376.351457 315.237556 
L 376.942311 318.858792 
L 377.533166 312.099151 
L 378.12402 321.997197 
L 378.714875 318.617377 
L 379.30573 323.445692 
L 379.896584 319.824455 
L 380.487439 321.514366 
L 381.078293 321.755781 
L 381.669148 321.031534 
L 382.260002 329.963917 
L 382.850857 304.132431 
L 383.441712 327.308344 
L 384.032566 327.308344 
L 384.623421 321.514366 
L 385.214275 300.994026 
L 385.80513 323.445692 
L 386.395984 325.135602 
L 386.986839 285.060586 
L 387.577694 324.894186 
L 388.168548 322.238613 
L 388.759403 325.135602 
L 389.350257 323.204276 
L 389.941112 326.825512 
L 390.531966 322.480029 
L 391.122821 325.377018 
L 391.713676 324.411355 
L 392.30453 325.859849 
L 393.486239 326.825512 
L 394.077094 351.932751 
L 394.667949 336.964974 
L 395.258803 299.786948 
L 395.849658 334.550816 
L 396.440512 333.826569 
L 397.031367 331.412412 
L 397.622221 334.550816 
L 398.213076 334.792232 
L 398.803931 316.444635 
L 399.394785 338.654884 
L 400.576494 326.342681 
L 401.167349 331.653827 
L 401.758203 326.825512 
L 402.349058 328.998254 
L 402.939913 326.584097 
L 403.530767 327.066928 
L 404.121622 324.894186 
L 404.712476 324.894186 
L 405.303331 324.411355 
L 405.894185 323.204276 
L 406.48504 336.482143 
L 407.075895 298.097037 
L 407.666749 313.547646 
L 408.257604 308.719331 
L 408.848458 314.754724 
L 409.439313 296.648543 
L 410.030167 294.475801 
L 410.621022 315.720387 
L 411.211877 313.789061 
L 411.802731 320.790118 
L 412.393586 294.234385 
L 412.98444 319.58304 
L 413.575295 316.927466 
L 414.166149 318.617377 
L 414.757004 322.721444 
L 415.347859 319.58304 
L 415.938713 324.411355 
L 416.529568 318.134545 
L 417.120422 326.342681 
L 417.711277 319.100208 
L 418.302132 351.691335 
L 418.892986 329.722501 
L 419.483841 301.476858 
L 420.074695 290.371733 
L 420.66555 289.888902 
L 421.256404 317.168882 
L 421.847259 324.169939 
L 422.438114 315.720387 
L 423.028968 326.825512 
L 423.619823 324.169939 
L 424.210677 325.618433 
L 424.801532 325.377018 
L 425.392386 326.825512 
L 425.983241 325.859849 
L 426.574096 327.066928 
L 427.755805 327.54976 
L 428.346659 330.205333 
L 428.937514 328.998254 
L 429.528368 330.446749 
L 430.119223 329.481086 
L 430.710078 328.998254 
L 431.300932 328.274007 
L 431.891787 328.998254 
L 432.482641 318.134545 
L 433.073496 328.032591 
L 433.66435 319.341624 
L 434.255205 324.65277 
L 434.84606 311.374904 
L 435.436914 323.445692 
L 436.027769 324.65277 
L 436.618623 325.377018 
L 437.209478 324.169939 
L 437.800332 327.066928 
L 438.391187 324.65277 
L 438.982042 327.308344 
L 439.572896 325.377018 
L 440.163751 326.825512 
L 440.754605 325.377018 
L 441.34546 326.584097 
L 441.936315 326.101265 
L 442.527169 351.932751 
L 443.118024 323.204276 
L 443.708878 317.893129 
L 444.299733 330.92958 
L 444.890587 322.238613 
L 445.481442 306.305173 
L 446.072297 327.791175 
L 446.663151 330.205333 
L 447.254006 332.136659 
L 447.84486 335.275064 
L 448.435715 330.92958 
L 449.026569 319.824455 
L 449.617424 334.309401 
L 450.208279 325.377018 
L 450.799133 312.099151 
L 451.389988 334.067985 
L 451.980842 321.27295 
L 452.571697 333.102322 
L 453.162551 332.860906 
L 453.753406 335.516479 
L 454.344261 334.550816 
L 454.935115 334.067985 
L 455.52597 312.340567 
L 456.116824 336.482143 
L 456.707679 338.172053 
L 457.298533 333.585153 
L 457.889388 311.857735 
L 458.480243 332.61949 
L 459.071097 332.136659 
L 459.661952 321.031534 
L 460.252806 332.378075 
L 460.843661 322.96286 
L 461.434515 325.377018 
L 462.02537 331.653827 
L 462.616225 328.032591 
L 463.207079 307.270836 
L 463.797934 327.54976 
L 464.388788 322.96286 
L 464.979643 322.480029 
L 465.570498 322.721444 
L 466.161352 302.683937 
L 466.161352 302.683937 
" style="fill:none;stroke:#d62728;stroke-linecap:square;stroke-width:1.5;"/>
   </g>
   <g id="patch_3">
    <path d="M 130.230156 352.174167 
L 130.230156 35.0625 
" style="fill:none;stroke:#000000;stroke-linecap:square;stroke-linejoin:miter;stroke-width:0.8;"/>
   </g>
   <g id="patch_4">
    <path d="M 488.365312 352.174167 
L 488.365312 35.0625 
" style="fill:none;stroke:#000000;stroke-linecap:square;stroke-linejoin:miter;stroke-width:0.8;"/>
   </g>
   <g id="patch_5">
    <path d="M 130.230156 352.174167 
L 488.365312 352.174167 
" style="fill:none;stroke:#000000;stroke-linecap:square;stroke-linejoin:miter;stroke-width:0.8;"/>
   </g>
   <g id="patch_6">
    <path d="M 130.230156 35.0625 
L 488.365312 35.0625 
" style="fill:none;stroke:#000000;stroke-linecap:square;stroke-linejoin:miter;stroke-width:0.8;"/>
   </g>
   <g id="legend_1">
    <g id="patch_7">
     <path d="M 508.27207 96.775 
L 607.342383 96.775 
Q 609.342383 96.775 609.342383 94.775 
L 609.342383 37.0625 
Q 609.342383 35.0625 607.342383 35.0625 
L 508.27207 35.0625 
Q 506.27207 35.0625 506.27207 37.0625 
L 506.27207 94.775 
Q 506.27207 96.775 508.27207 96.775 
z
" style="fill:#ffffff;opacity:0.8;stroke:#cccccc;stroke-linejoin:miter;"/>
    </g>
    <g id="line2d_19">
     <path d="M 510.27207 43.160937 
L 530.27207 43.160937 
" style="fill:none;stroke:#1f77b4;stroke-linecap:square;stroke-width:1.5;"/>
    </g>
    <g id="line2d_20"/>
    <g id="text_16">
     <!-- bbrshallow-pi -->
     <defs>
      <path d="M 41.109375 46.296875 
Q 39.59375 47.171875 37.8125 47.578125 
Q 36.03125 48 33.890625 48 
Q 26.265625 48 22.1875 43.046875 
Q 18.109375 38.09375 18.109375 28.8125 
L 18.109375 0 
L 9.078125 0 
L 9.078125 54.6875 
L 18.109375 54.6875 
L 18.109375 46.1875 
Q 20.953125 51.171875 25.484375 53.578125 
Q 30.03125 56 36.53125 56 
Q 37.453125 56 38.578125 55.875 
Q 39.703125 55.765625 41.0625 55.515625 
z
" id="DejaVuSans-114"/>
      <path d="M 34.28125 27.484375 
Q 23.390625 27.484375 19.1875 25 
Q 14.984375 22.515625 14.984375 16.5 
Q 14.984375 11.71875 18.140625 8.90625 
Q 21.296875 6.109375 26.703125 6.109375 
Q 34.1875 6.109375 38.703125 11.40625 
Q 43.21875 16.703125 43.21875 25.484375 
L 43.21875 27.484375 
z
M 52.203125 31.203125 
L 52.203125 0 
L 43.21875 0 
L 43.21875 8.296875 
Q 40.140625 3.328125 35.546875 0.953125 
Q 30.953125 -1.421875 24.3125 -1.421875 
Q 15.921875 -1.421875 10.953125 3.296875 
Q 6 8.015625 6 15.921875 
Q 6 25.140625 12.171875 29.828125 
Q 18.359375 34.515625 30.609375 34.515625 
L 43.21875 34.515625 
L 43.21875 35.40625 
Q 43.21875 41.609375 39.140625 45 
Q 35.0625 48.390625 27.6875 48.390625 
Q 23 48.390625 18.546875 47.265625 
Q 14.109375 46.140625 10.015625 43.890625 
L 10.015625 52.203125 
Q 14.9375 54.109375 19.578125 55.046875 
Q 24.21875 56 28.609375 56 
Q 40.484375 56 46.34375 49.84375 
Q 52.203125 43.703125 52.203125 31.203125 
z
" id="DejaVuSans-97"/>
      <path d="M 30.609375 48.390625 
Q 23.390625 48.390625 19.1875 42.75 
Q 14.984375 37.109375 14.984375 27.296875 
Q 14.984375 17.484375 19.15625 11.84375 
Q 23.34375 6.203125 30.609375 6.203125 
Q 37.796875 6.203125 41.984375 11.859375 
Q 46.1875 17.53125 46.1875 27.296875 
Q 46.1875 37.015625 41.984375 42.703125 
Q 37.796875 48.390625 30.609375 48.390625 
z
M 30.609375 56 
Q 42.328125 56 49.015625 48.375 
Q 55.71875 40.765625 55.71875 27.296875 
Q 55.71875 13.875 49.015625 6.21875 
Q 42.328125 -1.421875 30.609375 -1.421875 
Q 18.84375 -1.421875 12.171875 6.21875 
Q 5.515625 13.875 5.515625 27.296875 
Q 5.515625 40.765625 12.171875 48.375 
Q 18.84375 56 30.609375 56 
z
" id="DejaVuSans-111"/>
      <path d="M 4.203125 54.6875 
L 13.1875 54.6875 
L 24.421875 12.015625 
L 35.59375 54.6875 
L 46.1875 54.6875 
L 57.421875 12.015625 
L 68.609375 54.6875 
L 77.59375 54.6875 
L 63.28125 0 
L 52.6875 0 
L 40.921875 44.828125 
L 29.109375 0 
L 18.5 0 
z
" id="DejaVuSans-119"/>
      <path d="M 4.890625 31.390625 
L 31.203125 31.390625 
L 31.203125 23.390625 
L 4.890625 23.390625 
z
" id="DejaVuSans-45"/>
      <path d="M 18.109375 8.203125 
L 18.109375 -20.796875 
L 9.078125 -20.796875 
L 9.078125 54.6875 
L 18.109375 54.6875 
L 18.109375 46.390625 
Q 20.953125 51.265625 25.265625 53.625 
Q 29.59375 56 35.59375 56 
Q 45.5625 56 51.78125 48.09375 
Q 58.015625 40.1875 58.015625 27.296875 
Q 58.015625 14.40625 51.78125 6.484375 
Q 45.5625 -1.421875 35.59375 -1.421875 
Q 29.59375 -1.421875 25.265625 0.953125 
Q 20.953125 3.328125 18.109375 8.203125 
z
M 48.6875 27.296875 
Q 48.6875 37.203125 44.609375 42.84375 
Q 40.53125 48.484375 33.40625 48.484375 
Q 26.265625 48.484375 22.1875 42.84375 
Q 18.109375 37.203125 18.109375 27.296875 
Q 18.109375 17.390625 22.1875 11.75 
Q 26.265625 6.109375 33.40625 6.109375 
Q 40.53125 6.109375 44.609375 11.75 
Q 48.6875 17.390625 48.6875 27.296875 
z
" id="DejaVuSans-112"/>
     </defs>
     <g transform="translate(538.27207 46.660937)scale(0.1 -0.1)">
      <use xlink:href="#DejaVuSans-98"/>
      <use x="63.476562" xlink:href="#DejaVuSans-98"/>
      <use x="126.953125" xlink:href="#DejaVuSans-114"/>
      <use x="168.066406" xlink:href="#DejaVuSans-115"/>
      <use x="220.166016" xlink:href="#DejaVuSans-104"/>
      <use x="283.544922" xlink:href="#DejaVuSans-97"/>
      <use x="344.824219" xlink:href="#DejaVuSans-108"/>
      <use x="372.607422" xlink:href="#DejaVuSans-108"/>
      <use x="400.390625" xlink:href="#DejaVuSans-111"/>
      <use x="461.572266" xlink:href="#DejaVuSans-119"/>
      <use x="543.359375" xlink:href="#DejaVuSans-45"/>
      <use x="579.443359" xlink:href="#DejaVuSans-112"/>
      <use x="642.919922" xlink:href="#DejaVuSans-105"/>
     </g>
    </g>
    <g id="line2d_21">
     <path d="M 510.27207 57.839063 
L 530.27207 57.839063 
" style="fill:none;stroke:#ff7f0e;stroke-linecap:square;stroke-width:1.5;"/>
    </g>
    <g id="line2d_22"/>
    <g id="text_17">
     <!-- bbrshallow-pi -->
     <g transform="translate(538.27207 61.339063)scale(0.1 -0.1)">
      <use xlink:href="#DejaVuSans-98"/>
      <use x="63.476562" xlink:href="#DejaVuSans-98"/>
      <use x="126.953125" xlink:href="#DejaVuSans-114"/>
      <use x="168.066406" xlink:href="#DejaVuSans-115"/>
      <use x="220.166016" xlink:href="#DejaVuSans-104"/>
      <use x="283.544922" xlink:href="#DejaVuSans-97"/>
      <use x="344.824219" xlink:href="#DejaVuSans-108"/>
      <use x="372.607422" xlink:href="#DejaVuSans-108"/>
      <use x="400.390625" xlink:href="#DejaVuSans-111"/>
      <use x="461.572266" xlink:href="#DejaVuSans-119"/>
      <use x="543.359375" xlink:href="#DejaVuSans-45"/>
      <use x="579.443359" xlink:href="#DejaVuSans-112"/>
      <use x="642.919922" xlink:href="#DejaVuSans-105"/>
     </g>
    </g>
    <g id="line2d_23">
     <path d="M 510.27207 72.517187 
L 530.27207 72.517187 
" style="fill:none;stroke:#2ca02c;stroke-linecap:square;stroke-width:1.5;"/>
    </g>
    <g id="line2d_24"/>
    <g id="text_18">
     <!-- bbrshallow-pi -->
     <g transform="translate(538.27207 76.017187)scale(0.1 -0.1)">
      <use xlink:href="#DejaVuSans-98"/>
      <use x="63.476562" xlink:href="#DejaVuSans-98"/>
      <use x="126.953125" xlink:href="#DejaVuSans-114"/>
      <use x="168.066406" xlink:href="#DejaVuSans-115"/>
      <use x="220.166016" xlink:href="#DejaVuSans-104"/>
      <use x="283.544922" xlink:href="#DejaVuSans-97"/>
      <use x="344.824219" xlink:href="#DejaVuSans-108"/>
      <use x="372.607422" xlink:href="#DejaVuSans-108"/>
      <use x="400.390625" xlink:href="#DejaVuSans-111"/>
      <use x="461.572266" xlink:href="#DejaVuSans-119"/>
      <use x="543.359375" xlink:href="#DejaVuSans-45"/>
      <use x="579.443359" xlink:href="#DejaVuSans-112"/>
      <use x="642.919922" xlink:href="#DejaVuSans-105"/>
     </g>
    </g>
    <g id="line2d_25">
     <path d="M 510.27207 87.195312 
L 530.27207 87.195312 
" style="fill:none;stroke:#d62728;stroke-linecap:square;stroke-width:1.5;"/>
    </g>
    <g id="line2d_26"/>
    <g id="text_19">
     <!-- bbrshallow-pi -->
     <g transform="translate(538.27207 90.695312)scale(0.1 -0.1)">
      <use xlink:href="#DejaVuSans-98"/>
      <use x="63.476562" xlink:href="#DejaVuSans-98"/>
      <use x="126.953125" xlink:href="#DejaVuSans-114"/>
      <use x="168.066406" xlink:href="#DejaVuSans-115"/>
      <use x="220.166016" xlink:href="#DejaVuSans-104"/>
      <use x="283.544922" xlink:href="#DejaVuSans-97"/>
      <use x="344.824219" xlink:href="#DejaVuSans-108"/>
      <use x="372.607422" xlink:href="#DejaVuSans-108"/>
      <use x="400.390625" xlink:href="#DejaVuSans-111"/>
      <use x="461.572266" xlink:href="#DejaVuSans-119"/>
      <use x="543.359375" xlink:href="#DejaVuSans-45"/>
      <use x="579.443359" xlink:href="#DejaVuSans-112"/>
      <use x="642.919922" xlink:href="#DejaVuSans-105"/>
     </g>
    </g>
   </g>
  </g>
  <g id="text_20">
   <!-- result inflight -->
   <defs>
    <path d="M 8.5 21.578125 
L 8.5 54.6875 
L 17.484375 54.6875 
L 17.484375 21.921875 
Q 17.484375 14.15625 20.5 10.265625 
Q 23.53125 6.390625 29.59375 6.390625 
Q 36.859375 6.390625 41.078125 11.03125 
Q 45.3125 15.671875 45.3125 23.6875 
L 45.3125 54.6875 
L 54.296875 54.6875 
L 54.296875 0 
L 45.3125 0 
L 45.3125 8.40625 
Q 42.046875 3.421875 37.71875 1 
Q 33.40625 -1.421875 27.6875 -1.421875 
Q 18.265625 -1.421875 13.375 4.4375 
Q 8.5 10.296875 8.5 21.578125 
z
M 31.109375 56 
z
" id="DejaVuSans-117"/>
    <path id="DejaVuSans-32"/>
   </defs>
   <g transform="translate(302.110313 17.038125)scale(0.12 -0.12)">
    <use xlink:href="#DejaVuSans-114"/>
    <use x="41.082031" xlink:href="#DejaVuSans-101"/>
    <use x="102.605469" xlink:href="#DejaVuSans-115"/>
    <use x="154.705078" xlink:href="#DejaVuSans-117"/>
    <use x="218.083984" xlink:href="#DejaVuSans-108"/>
    <use x="245.867188" xlink:href="#DejaVuSans-116"/>
    <use x="285.076172" xlink:href="#DejaVuSans-32"/>
    <use x="316.863281" xlink:href="#DejaVuSans-105"/>
    <use x="344.646484" xlink:href="#DejaVuSans-110"/>
    <use x="408.025391" xlink:href="#DejaVuSans-102"/>
    <use x="443.230469" xlink:href="#DejaVuSans-108"/>
    <use x="471.013672" xlink:href="#DejaVuSans-105"/>
    <use x="498.796875" xlink:href="#DejaVuSans-103"/>
    <use x="562.273438" xlink:href="#DejaVuSans-104"/>
    <use x="625.652344" xlink:href="#DejaVuSans-116"/>
   </g>
  </g>
 </g>
 <defs>
  <clipPath id="p0cdc864ab7">
   <rect height="317.111667" width="358.135156" x="130.230156" y="35.0625"/>
  </clipPath>
 </defs>
</svg>
