<?xml version="1.0" encoding="utf-8" standalone="no"?>
<!DOCTYPE svg PUBLIC "-//W3C//DTD SVG 1.1//EN"
  "http://www.w3.org/Graphics/SVG/1.1/DTD/svg11.dtd">
<!-- Created with matplotlib (https://matplotlib.org/) -->
<svg height="396pt" version="1.1" viewBox="0 0 684 396" width="684pt" xmlns="http://www.w3.org/2000/svg" xmlns:xlink="http://www.w3.org/1999/xlink">
 <defs>
  <style type="text/css">
*{stroke-linecap:butt;stroke-linejoin:round;}
  </style>
 </defs>
 <g id="figure_1">
  <g id="patch_1">
   <path d="M 0 396 
L 684 396 
L 684 0 
L 0 0 
z
" style="fill:#ffffff;"/>
  </g>
  <g id="axes_1">
   <g id="patch_2">
    <path d="M 83.472344 352.174167 
L 529.912969 352.174167 
L 529.912969 35.0625 
L 83.472344 35.0625 
z
" style="fill:#ffffff;"/>
   </g>
   <g id="matplotlib.axis_1">
    <g id="xtick_1">
     <g id="line2d_1">
      <defs>
       <path d="M 0 0 
L 0 3.5 
" id="m97ed8195e4" style="stroke:#000000;stroke-width:0.8;"/>
      </defs>
      <g>
       <use style="stroke:#000000;stroke-width:0.8;" x="103.759205" xlink:href="#m97ed8195e4" y="352.174167"/>
      </g>
     </g>
     <g id="text_1">
      <!-- 0 -->
      <defs>
       <path d="M 31.78125 66.40625 
Q 24.171875 66.40625 20.328125 58.90625 
Q 16.5 51.421875 16.5 36.375 
Q 16.5 21.390625 20.328125 13.890625 
Q 24.171875 6.390625 31.78125 6.390625 
Q 39.453125 6.390625 43.28125 13.890625 
Q 47.125 21.390625 47.125 36.375 
Q 47.125 51.421875 43.28125 58.90625 
Q 39.453125 66.40625 31.78125 66.40625 
z
M 31.78125 74.21875 
Q 44.046875 74.21875 50.515625 64.515625 
Q 56.984375 54.828125 56.984375 36.375 
Q 56.984375 17.96875 50.515625 8.265625 
Q 44.046875 -1.421875 31.78125 -1.421875 
Q 19.53125 -1.421875 13.0625 8.265625 
Q 6.59375 17.96875 6.59375 36.375 
Q 6.59375 54.828125 13.0625 64.515625 
Q 19.53125 74.21875 31.78125 74.21875 
z
" id="DejaVuSans-48"/>
      </defs>
      <g transform="translate(100.577955 366.772604)scale(0.1 -0.1)">
       <use xlink:href="#DejaVuSans-48"/>
      </g>
     </g>
    </g>
    <g id="xtick_2">
     <g id="line2d_2">
      <g>
       <use style="stroke:#000000;stroke-width:0.8;" x="177.436376" xlink:href="#m97ed8195e4" y="352.174167"/>
      </g>
     </g>
     <g id="text_2">
      <!-- 50 -->
      <defs>
       <path d="M 10.796875 72.90625 
L 49.515625 72.90625 
L 49.515625 64.59375 
L 19.828125 64.59375 
L 19.828125 46.734375 
Q 21.96875 47.46875 24.109375 47.828125 
Q 26.265625 48.1875 28.421875 48.1875 
Q 40.625 48.1875 47.75 41.5 
Q 54.890625 34.8125 54.890625 23.390625 
Q 54.890625 11.625 47.5625 5.09375 
Q 40.234375 -1.421875 26.90625 -1.421875 
Q 22.3125 -1.421875 17.546875 -0.640625 
Q 12.796875 0.140625 7.71875 1.703125 
L 7.71875 11.625 
Q 12.109375 9.234375 16.796875 8.0625 
Q 21.484375 6.890625 26.703125 6.890625 
Q 35.15625 6.890625 40.078125 11.328125 
Q 45.015625 15.765625 45.015625 23.390625 
Q 45.015625 31 40.078125 35.4375 
Q 35.15625 39.890625 26.703125 39.890625 
Q 22.75 39.890625 18.8125 39.015625 
Q 14.890625 38.140625 10.796875 36.28125 
z
" id="DejaVuSans-53"/>
      </defs>
      <g transform="translate(171.073876 366.772604)scale(0.1 -0.1)">
       <use xlink:href="#DejaVuSans-53"/>
       <use x="63.623047" xlink:href="#DejaVuSans-48"/>
      </g>
     </g>
    </g>
    <g id="xtick_3">
     <g id="line2d_3">
      <g>
       <use style="stroke:#000000;stroke-width:0.8;" x="251.113546" xlink:href="#m97ed8195e4" y="352.174167"/>
      </g>
     </g>
     <g id="text_3">
      <!-- 100 -->
      <defs>
       <path d="M 12.40625 8.296875 
L 28.515625 8.296875 
L 28.515625 63.921875 
L 10.984375 60.40625 
L 10.984375 69.390625 
L 28.421875 72.90625 
L 38.28125 72.90625 
L 38.28125 8.296875 
L 54.390625 8.296875 
L 54.390625 0 
L 12.40625 0 
z
" id="DejaVuSans-49"/>
      </defs>
      <g transform="translate(241.569796 366.772604)scale(0.1 -0.1)">
       <use xlink:href="#DejaVuSans-49"/>
       <use x="63.623047" xlink:href="#DejaVuSans-48"/>
       <use x="127.246094" xlink:href="#DejaVuSans-48"/>
      </g>
     </g>
    </g>
    <g id="xtick_4">
     <g id="line2d_4">
      <g>
       <use style="stroke:#000000;stroke-width:0.8;" x="324.790716" xlink:href="#m97ed8195e4" y="352.174167"/>
      </g>
     </g>
     <g id="text_4">
      <!-- 150 -->
      <g transform="translate(315.246966 366.772604)scale(0.1 -0.1)">
       <use xlink:href="#DejaVuSans-49"/>
       <use x="63.623047" xlink:href="#DejaVuSans-53"/>
       <use x="127.246094" xlink:href="#DejaVuSans-48"/>
      </g>
     </g>
    </g>
    <g id="xtick_5">
     <g id="line2d_5">
      <g>
       <use style="stroke:#000000;stroke-width:0.8;" x="398.467887" xlink:href="#m97ed8195e4" y="352.174167"/>
      </g>
     </g>
     <g id="text_5">
      <!-- 200 -->
      <defs>
       <path d="M 19.1875 8.296875 
L 53.609375 8.296875 
L 53.609375 0 
L 7.328125 0 
L 7.328125 8.296875 
Q 12.9375 14.109375 22.625 23.890625 
Q 32.328125 33.6875 34.8125 36.53125 
Q 39.546875 41.84375 41.421875 45.53125 
Q 43.3125 49.21875 43.3125 52.78125 
Q 43.3125 58.59375 39.234375 62.25 
Q 35.15625 65.921875 28.609375 65.921875 
Q 23.96875 65.921875 18.8125 64.3125 
Q 13.671875 62.703125 7.8125 59.421875 
L 7.8125 69.390625 
Q 13.765625 71.78125 18.9375 73 
Q 24.125 74.21875 28.421875 74.21875 
Q 39.75 74.21875 46.484375 68.546875 
Q 53.21875 62.890625 53.21875 53.421875 
Q 53.21875 48.921875 51.53125 44.890625 
Q 49.859375 40.875 45.40625 35.40625 
Q 44.1875 33.984375 37.640625 27.21875 
Q 31.109375 20.453125 19.1875 8.296875 
z
" id="DejaVuSans-50"/>
      </defs>
      <g transform="translate(388.924137 366.772604)scale(0.1 -0.1)">
       <use xlink:href="#DejaVuSans-50"/>
       <use x="63.623047" xlink:href="#DejaVuSans-48"/>
       <use x="127.246094" xlink:href="#DejaVuSans-48"/>
      </g>
     </g>
    </g>
    <g id="xtick_6">
     <g id="line2d_6">
      <g>
       <use style="stroke:#000000;stroke-width:0.8;" x="472.145057" xlink:href="#m97ed8195e4" y="352.174167"/>
      </g>
     </g>
     <g id="text_6">
      <!-- 250 -->
      <g transform="translate(462.601307 366.772604)scale(0.1 -0.1)">
       <use xlink:href="#DejaVuSans-50"/>
       <use x="63.623047" xlink:href="#DejaVuSans-53"/>
       <use x="127.246094" xlink:href="#DejaVuSans-48"/>
      </g>
     </g>
    </g>
   </g>
   <g id="matplotlib.axis_2">
    <g id="ytick_1">
     <g id="line2d_7">
      <defs>
       <path d="M 0 0 
L -3.5 0 
" id="m274e7672b6" style="stroke:#000000;stroke-width:0.8;"/>
      </defs>
      <g>
       <use style="stroke:#000000;stroke-width:0.8;" x="83.472344" xlink:href="#m274e7672b6" y="352.174167"/>
      </g>
     </g>
     <g id="text_7">
      <!-- 0 -->
      <g transform="translate(70.109844 355.973385)scale(0.1 -0.1)">
       <use xlink:href="#DejaVuSans-48"/>
      </g>
     </g>
    </g>
    <g id="ytick_2">
     <g id="line2d_8">
      <g>
       <use style="stroke:#000000;stroke-width:0.8;" x="83.472344" xlink:href="#m274e7672b6" y="313.944912"/>
      </g>
     </g>
     <g id="text_8">
      <!-- 10 -->
      <g transform="translate(63.747344 317.744131)scale(0.1 -0.1)">
       <use xlink:href="#DejaVuSans-49"/>
       <use x="63.623047" xlink:href="#DejaVuSans-48"/>
      </g>
     </g>
    </g>
    <g id="ytick_3">
     <g id="line2d_9">
      <g>
       <use style="stroke:#000000;stroke-width:0.8;" x="83.472344" xlink:href="#m274e7672b6" y="275.715658"/>
      </g>
     </g>
     <g id="text_9">
      <!-- 20 -->
      <g transform="translate(63.747344 279.514876)scale(0.1 -0.1)">
       <use xlink:href="#DejaVuSans-50"/>
       <use x="63.623047" xlink:href="#DejaVuSans-48"/>
      </g>
     </g>
    </g>
    <g id="ytick_4">
     <g id="line2d_10">
      <g>
       <use style="stroke:#000000;stroke-width:0.8;" x="83.472344" xlink:href="#m274e7672b6" y="237.486403"/>
      </g>
     </g>
     <g id="text_10">
      <!-- 30 -->
      <defs>
       <path d="M 40.578125 39.3125 
Q 47.65625 37.796875 51.625 33 
Q 55.609375 28.21875 55.609375 21.1875 
Q 55.609375 10.40625 48.1875 4.484375 
Q 40.765625 -1.421875 27.09375 -1.421875 
Q 22.515625 -1.421875 17.65625 -0.515625 
Q 12.796875 0.390625 7.625 2.203125 
L 7.625 11.71875 
Q 11.71875 9.328125 16.59375 8.109375 
Q 21.484375 6.890625 26.8125 6.890625 
Q 36.078125 6.890625 40.9375 10.546875 
Q 45.796875 14.203125 45.796875 21.1875 
Q 45.796875 27.640625 41.28125 31.265625 
Q 36.765625 34.90625 28.71875 34.90625 
L 20.21875 34.90625 
L 20.21875 43.015625 
L 29.109375 43.015625 
Q 36.375 43.015625 40.234375 45.921875 
Q 44.09375 48.828125 44.09375 54.296875 
Q 44.09375 59.90625 40.109375 62.90625 
Q 36.140625 65.921875 28.71875 65.921875 
Q 24.65625 65.921875 20.015625 65.03125 
Q 15.375 64.15625 9.8125 62.3125 
L 9.8125 71.09375 
Q 15.4375 72.65625 20.34375 73.4375 
Q 25.25 74.21875 29.59375 74.21875 
Q 40.828125 74.21875 47.359375 69.109375 
Q 53.90625 64.015625 53.90625 55.328125 
Q 53.90625 49.265625 50.4375 45.09375 
Q 46.96875 40.921875 40.578125 39.3125 
z
" id="DejaVuSans-51"/>
      </defs>
      <g transform="translate(63.747344 241.285622)scale(0.1 -0.1)">
       <use xlink:href="#DejaVuSans-51"/>
       <use x="63.623047" xlink:href="#DejaVuSans-48"/>
      </g>
     </g>
    </g>
    <g id="ytick_5">
     <g id="line2d_11">
      <g>
       <use style="stroke:#000000;stroke-width:0.8;" x="83.472344" xlink:href="#m274e7672b6" y="199.257148"/>
      </g>
     </g>
     <g id="text_11">
      <!-- 40 -->
      <defs>
       <path d="M 37.796875 64.3125 
L 12.890625 25.390625 
L 37.796875 25.390625 
z
M 35.203125 72.90625 
L 47.609375 72.90625 
L 47.609375 25.390625 
L 58.015625 25.390625 
L 58.015625 17.1875 
L 47.609375 17.1875 
L 47.609375 0 
L 37.796875 0 
L 37.796875 17.1875 
L 4.890625 17.1875 
L 4.890625 26.703125 
z
" id="DejaVuSans-52"/>
      </defs>
      <g transform="translate(63.747344 203.056367)scale(0.1 -0.1)">
       <use xlink:href="#DejaVuSans-52"/>
       <use x="63.623047" xlink:href="#DejaVuSans-48"/>
      </g>
     </g>
    </g>
    <g id="ytick_6">
     <g id="line2d_12">
      <g>
       <use style="stroke:#000000;stroke-width:0.8;" x="83.472344" xlink:href="#m274e7672b6" y="161.027894"/>
      </g>
     </g>
     <g id="text_12">
      <!-- 50 -->
      <g transform="translate(63.747344 164.827113)scale(0.1 -0.1)">
       <use xlink:href="#DejaVuSans-53"/>
       <use x="63.623047" xlink:href="#DejaVuSans-48"/>
      </g>
     </g>
    </g>
    <g id="ytick_7">
     <g id="line2d_13">
      <g>
       <use style="stroke:#000000;stroke-width:0.8;" x="83.472344" xlink:href="#m274e7672b6" y="122.798639"/>
      </g>
     </g>
     <g id="text_13">
      <!-- 60 -->
      <defs>
       <path d="M 33.015625 40.375 
Q 26.375 40.375 22.484375 35.828125 
Q 18.609375 31.296875 18.609375 23.390625 
Q 18.609375 15.53125 22.484375 10.953125 
Q 26.375 6.390625 33.015625 6.390625 
Q 39.65625 6.390625 43.53125 10.953125 
Q 47.40625 15.53125 47.40625 23.390625 
Q 47.40625 31.296875 43.53125 35.828125 
Q 39.65625 40.375 33.015625 40.375 
z
M 52.59375 71.296875 
L 52.59375 62.3125 
Q 48.875 64.0625 45.09375 64.984375 
Q 41.3125 65.921875 37.59375 65.921875 
Q 27.828125 65.921875 22.671875 59.328125 
Q 17.53125 52.734375 16.796875 39.40625 
Q 19.671875 43.65625 24.015625 45.921875 
Q 28.375 48.1875 33.59375 48.1875 
Q 44.578125 48.1875 50.953125 41.515625 
Q 57.328125 34.859375 57.328125 23.390625 
Q 57.328125 12.15625 50.6875 5.359375 
Q 44.046875 -1.421875 33.015625 -1.421875 
Q 20.359375 -1.421875 13.671875 8.265625 
Q 6.984375 17.96875 6.984375 36.375 
Q 6.984375 53.65625 15.1875 63.9375 
Q 23.390625 74.21875 37.203125 74.21875 
Q 40.921875 74.21875 44.703125 73.484375 
Q 48.484375 72.75 52.59375 71.296875 
z
" id="DejaVuSans-54"/>
      </defs>
      <g transform="translate(63.747344 126.597858)scale(0.1 -0.1)">
       <use xlink:href="#DejaVuSans-54"/>
       <use x="63.623047" xlink:href="#DejaVuSans-48"/>
      </g>
     </g>
    </g>
    <g id="ytick_8">
     <g id="line2d_14">
      <g>
       <use style="stroke:#000000;stroke-width:0.8;" x="83.472344" xlink:href="#m274e7672b6" y="84.569385"/>
      </g>
     </g>
     <g id="text_14">
      <!-- 70 -->
      <defs>
       <path d="M 8.203125 72.90625 
L 55.078125 72.90625 
L 55.078125 68.703125 
L 28.609375 0 
L 18.3125 0 
L 43.21875 64.59375 
L 8.203125 64.59375 
z
" id="DejaVuSans-55"/>
      </defs>
      <g transform="translate(63.747344 88.368603)scale(0.1 -0.1)">
       <use xlink:href="#DejaVuSans-55"/>
       <use x="63.623047" xlink:href="#DejaVuSans-48"/>
      </g>
     </g>
    </g>
    <g id="ytick_9">
     <g id="line2d_15">
      <g>
       <use style="stroke:#000000;stroke-width:0.8;" x="83.472344" xlink:href="#m274e7672b6" y="46.34013"/>
      </g>
     </g>
     <g id="text_15">
      <!-- 80 -->
      <defs>
       <path d="M 31.78125 34.625 
Q 24.75 34.625 20.71875 30.859375 
Q 16.703125 27.09375 16.703125 20.515625 
Q 16.703125 13.921875 20.71875 10.15625 
Q 24.75 6.390625 31.78125 6.390625 
Q 38.8125 6.390625 42.859375 10.171875 
Q 46.921875 13.96875 46.921875 20.515625 
Q 46.921875 27.09375 42.890625 30.859375 
Q 38.875 34.625 31.78125 34.625 
z
M 21.921875 38.8125 
Q 15.578125 40.375 12.03125 44.71875 
Q 8.5 49.078125 8.5 55.328125 
Q 8.5 64.0625 14.71875 69.140625 
Q 20.953125 74.21875 31.78125 74.21875 
Q 42.671875 74.21875 48.875 69.140625 
Q 55.078125 64.0625 55.078125 55.328125 
Q 55.078125 49.078125 51.53125 44.71875 
Q 48 40.375 41.703125 38.8125 
Q 48.828125 37.15625 52.796875 32.3125 
Q 56.78125 27.484375 56.78125 20.515625 
Q 56.78125 9.90625 50.3125 4.234375 
Q 43.84375 -1.421875 31.78125 -1.421875 
Q 19.734375 -1.421875 13.25 4.234375 
Q 6.78125 9.90625 6.78125 20.515625 
Q 6.78125 27.484375 10.78125 32.3125 
Q 14.796875 37.15625 21.921875 38.8125 
z
M 18.3125 54.390625 
Q 18.3125 48.734375 21.84375 45.5625 
Q 25.390625 42.390625 31.78125 42.390625 
Q 38.140625 42.390625 41.71875 45.5625 
Q 45.3125 48.734375 45.3125 54.390625 
Q 45.3125 60.0625 41.71875 63.234375 
Q 38.140625 66.40625 31.78125 66.40625 
Q 25.390625 66.40625 21.84375 63.234375 
Q 18.3125 60.0625 18.3125 54.390625 
z
" id="DejaVuSans-56"/>
      </defs>
      <g transform="translate(63.747344 50.139349)scale(0.1 -0.1)">
       <use xlink:href="#DejaVuSans-56"/>
       <use x="63.623047" xlink:href="#DejaVuSans-48"/>
      </g>
     </g>
    </g>
    <g id="text_16">
     <!-- throughput -->
     <defs>
      <path d="M 18.3125 70.21875 
L 18.3125 54.6875 
L 36.8125 54.6875 
L 36.8125 47.703125 
L 18.3125 47.703125 
L 18.3125 18.015625 
Q 18.3125 11.328125 20.140625 9.421875 
Q 21.96875 7.515625 27.59375 7.515625 
L 36.8125 7.515625 
L 36.8125 0 
L 27.59375 0 
Q 17.1875 0 13.234375 3.875 
Q 9.28125 7.765625 9.28125 18.015625 
L 9.28125 47.703125 
L 2.6875 47.703125 
L 2.6875 54.6875 
L 9.28125 54.6875 
L 9.28125 70.21875 
z
" id="DejaVuSans-116"/>
      <path d="M 54.890625 33.015625 
L 54.890625 0 
L 45.90625 0 
L 45.90625 32.71875 
Q 45.90625 40.484375 42.875 44.328125 
Q 39.84375 48.1875 33.796875 48.1875 
Q 26.515625 48.1875 22.3125 43.546875 
Q 18.109375 38.921875 18.109375 30.90625 
L 18.109375 0 
L 9.078125 0 
L 9.078125 75.984375 
L 18.109375 75.984375 
L 18.109375 46.1875 
Q 21.34375 51.125 25.703125 53.5625 
Q 30.078125 56 35.796875 56 
Q 45.21875 56 50.046875 50.171875 
Q 54.890625 44.34375 54.890625 33.015625 
z
" id="DejaVuSans-104"/>
      <path d="M 41.109375 46.296875 
Q 39.59375 47.171875 37.8125 47.578125 
Q 36.03125 48 33.890625 48 
Q 26.265625 48 22.1875 43.046875 
Q 18.109375 38.09375 18.109375 28.8125 
L 18.109375 0 
L 9.078125 0 
L 9.078125 54.6875 
L 18.109375 54.6875 
L 18.109375 46.1875 
Q 20.953125 51.171875 25.484375 53.578125 
Q 30.03125 56 36.53125 56 
Q 37.453125 56 38.578125 55.875 
Q 39.703125 55.765625 41.0625 55.515625 
z
" id="DejaVuSans-114"/>
      <path d="M 30.609375 48.390625 
Q 23.390625 48.390625 19.1875 42.75 
Q 14.984375 37.109375 14.984375 27.296875 
Q 14.984375 17.484375 19.15625 11.84375 
Q 23.34375 6.203125 30.609375 6.203125 
Q 37.796875 6.203125 41.984375 11.859375 
Q 46.1875 17.53125 46.1875 27.296875 
Q 46.1875 37.015625 41.984375 42.703125 
Q 37.796875 48.390625 30.609375 48.390625 
z
M 30.609375 56 
Q 42.328125 56 49.015625 48.375 
Q 55.71875 40.765625 55.71875 27.296875 
Q 55.71875 13.875 49.015625 6.21875 
Q 42.328125 -1.421875 30.609375 -1.421875 
Q 18.84375 -1.421875 12.171875 6.21875 
Q 5.515625 13.875 5.515625 27.296875 
Q 5.515625 40.765625 12.171875 48.375 
Q 18.84375 56 30.609375 56 
z
" id="DejaVuSans-111"/>
      <path d="M 8.5 21.578125 
L 8.5 54.6875 
L 17.484375 54.6875 
L 17.484375 21.921875 
Q 17.484375 14.15625 20.5 10.265625 
Q 23.53125 6.390625 29.59375 6.390625 
Q 36.859375 6.390625 41.078125 11.03125 
Q 45.3125 15.671875 45.3125 23.6875 
L 45.3125 54.6875 
L 54.296875 54.6875 
L 54.296875 0 
L 45.3125 0 
L 45.3125 8.40625 
Q 42.046875 3.421875 37.71875 1 
Q 33.40625 -1.421875 27.6875 -1.421875 
Q 18.265625 -1.421875 13.375 4.4375 
Q 8.5 10.296875 8.5 21.578125 
z
M 31.109375 56 
z
" id="DejaVuSans-117"/>
      <path d="M 45.40625 27.984375 
Q 45.40625 37.75 41.375 43.109375 
Q 37.359375 48.484375 30.078125 48.484375 
Q 22.859375 48.484375 18.828125 43.109375 
Q 14.796875 37.75 14.796875 27.984375 
Q 14.796875 18.265625 18.828125 12.890625 
Q 22.859375 7.515625 30.078125 7.515625 
Q 37.359375 7.515625 41.375 12.890625 
Q 45.40625 18.265625 45.40625 27.984375 
z
M 54.390625 6.78125 
Q 54.390625 -7.171875 48.1875 -13.984375 
Q 42 -20.796875 29.203125 -20.796875 
Q 24.46875 -20.796875 20.265625 -20.09375 
Q 16.0625 -19.390625 12.109375 -17.921875 
L 12.109375 -9.1875 
Q 16.0625 -11.328125 19.921875 -12.34375 
Q 23.78125 -13.375 27.78125 -13.375 
Q 36.625 -13.375 41.015625 -8.765625 
Q 45.40625 -4.15625 45.40625 5.171875 
L 45.40625 9.625 
Q 42.625 4.78125 38.28125 2.390625 
Q 33.9375 0 27.875 0 
Q 17.828125 0 11.671875 7.65625 
Q 5.515625 15.328125 5.515625 27.984375 
Q 5.515625 40.671875 11.671875 48.328125 
Q 17.828125 56 27.875 56 
Q 33.9375 56 38.28125 53.609375 
Q 42.625 51.21875 45.40625 46.390625 
L 45.40625 54.6875 
L 54.390625 54.6875 
z
" id="DejaVuSans-103"/>
      <path d="M 18.109375 8.203125 
L 18.109375 -20.796875 
L 9.078125 -20.796875 
L 9.078125 54.6875 
L 18.109375 54.6875 
L 18.109375 46.390625 
Q 20.953125 51.265625 25.265625 53.625 
Q 29.59375 56 35.59375 56 
Q 45.5625 56 51.78125 48.09375 
Q 58.015625 40.1875 58.015625 27.296875 
Q 58.015625 14.40625 51.78125 6.484375 
Q 45.5625 -1.421875 35.59375 -1.421875 
Q 29.59375 -1.421875 25.265625 0.953125 
Q 20.953125 3.328125 18.109375 8.203125 
z
M 48.6875 27.296875 
Q 48.6875 37.203125 44.609375 42.84375 
Q 40.53125 48.484375 33.40625 48.484375 
Q 26.265625 48.484375 22.1875 42.84375 
Q 18.109375 37.203125 18.109375 27.296875 
Q 18.109375 17.390625 22.1875 11.75 
Q 26.265625 6.109375 33.40625 6.109375 
Q 40.53125 6.109375 44.609375 11.75 
Q 48.6875 17.390625 48.6875 27.296875 
z
" id="DejaVuSans-112"/>
     </defs>
     <g transform="translate(46.469844 221.675365)rotate(-90)scale(0.1 -0.1)">
      <use xlink:href="#DejaVuSans-116"/>
      <use x="39.208984" xlink:href="#DejaVuSans-104"/>
      <use x="102.587891" xlink:href="#DejaVuSans-114"/>
      <use x="143.669922" xlink:href="#DejaVuSans-111"/>
      <use x="204.851562" xlink:href="#DejaVuSans-117"/>
      <use x="268.230469" xlink:href="#DejaVuSans-103"/>
      <use x="331.707031" xlink:href="#DejaVuSans-104"/>
      <use x="395.085938" xlink:href="#DejaVuSans-112"/>
      <use x="458.5625" xlink:href="#DejaVuSans-117"/>
      <use x="521.941406" xlink:href="#DejaVuSans-116"/>
     </g>
     <!-- (mbit / second) -->
     <defs>
      <path d="M 31 75.875 
Q 24.46875 64.65625 21.28125 53.65625 
Q 18.109375 42.671875 18.109375 31.390625 
Q 18.109375 20.125 21.3125 9.0625 
Q 24.515625 -2 31 -13.1875 
L 23.1875 -13.1875 
Q 15.875 -1.703125 12.234375 9.375 
Q 8.59375 20.453125 8.59375 31.390625 
Q 8.59375 42.28125 12.203125 53.3125 
Q 15.828125 64.359375 23.1875 75.875 
z
" id="DejaVuSans-40"/>
      <path d="M 52 44.1875 
Q 55.375 50.25 60.0625 53.125 
Q 64.75 56 71.09375 56 
Q 79.640625 56 84.28125 50.015625 
Q 88.921875 44.046875 88.921875 33.015625 
L 88.921875 0 
L 79.890625 0 
L 79.890625 32.71875 
Q 79.890625 40.578125 77.09375 44.375 
Q 74.3125 48.1875 68.609375 48.1875 
Q 61.625 48.1875 57.5625 43.546875 
Q 53.515625 38.921875 53.515625 30.90625 
L 53.515625 0 
L 44.484375 0 
L 44.484375 32.71875 
Q 44.484375 40.625 41.703125 44.40625 
Q 38.921875 48.1875 33.109375 48.1875 
Q 26.21875 48.1875 22.15625 43.53125 
Q 18.109375 38.875 18.109375 30.90625 
L 18.109375 0 
L 9.078125 0 
L 9.078125 54.6875 
L 18.109375 54.6875 
L 18.109375 46.1875 
Q 21.1875 51.21875 25.484375 53.609375 
Q 29.78125 56 35.6875 56 
Q 41.65625 56 45.828125 52.96875 
Q 50 49.953125 52 44.1875 
z
" id="DejaVuSans-109"/>
      <path d="M 48.6875 27.296875 
Q 48.6875 37.203125 44.609375 42.84375 
Q 40.53125 48.484375 33.40625 48.484375 
Q 26.265625 48.484375 22.1875 42.84375 
Q 18.109375 37.203125 18.109375 27.296875 
Q 18.109375 17.390625 22.1875 11.75 
Q 26.265625 6.109375 33.40625 6.109375 
Q 40.53125 6.109375 44.609375 11.75 
Q 48.6875 17.390625 48.6875 27.296875 
z
M 18.109375 46.390625 
Q 20.953125 51.265625 25.265625 53.625 
Q 29.59375 56 35.59375 56 
Q 45.5625 56 51.78125 48.09375 
Q 58.015625 40.1875 58.015625 27.296875 
Q 58.015625 14.40625 51.78125 6.484375 
Q 45.5625 -1.421875 35.59375 -1.421875 
Q 29.59375 -1.421875 25.265625 0.953125 
Q 20.953125 3.328125 18.109375 8.203125 
L 18.109375 0 
L 9.078125 0 
L 9.078125 75.984375 
L 18.109375 75.984375 
z
" id="DejaVuSans-98"/>
      <path d="M 9.421875 54.6875 
L 18.40625 54.6875 
L 18.40625 0 
L 9.421875 0 
z
M 9.421875 75.984375 
L 18.40625 75.984375 
L 18.40625 64.59375 
L 9.421875 64.59375 
z
" id="DejaVuSans-105"/>
      <path id="DejaVuSans-32"/>
      <path d="M 25.390625 72.90625 
L 33.6875 72.90625 
L 8.296875 -9.28125 
L 0 -9.28125 
z
" id="DejaVuSans-47"/>
      <path d="M 44.28125 53.078125 
L 44.28125 44.578125 
Q 40.484375 46.53125 36.375 47.5 
Q 32.28125 48.484375 27.875 48.484375 
Q 21.1875 48.484375 17.84375 46.4375 
Q 14.5 44.390625 14.5 40.28125 
Q 14.5 37.15625 16.890625 35.375 
Q 19.28125 33.59375 26.515625 31.984375 
L 29.59375 31.296875 
Q 39.15625 29.25 43.1875 25.515625 
Q 47.21875 21.78125 47.21875 15.09375 
Q 47.21875 7.46875 41.1875 3.015625 
Q 35.15625 -1.421875 24.609375 -1.421875 
Q 20.21875 -1.421875 15.453125 -0.5625 
Q 10.6875 0.296875 5.421875 2 
L 5.421875 11.28125 
Q 10.40625 8.6875 15.234375 7.390625 
Q 20.0625 6.109375 24.8125 6.109375 
Q 31.15625 6.109375 34.5625 8.28125 
Q 37.984375 10.453125 37.984375 14.40625 
Q 37.984375 18.0625 35.515625 20.015625 
Q 33.0625 21.96875 24.703125 23.78125 
L 21.578125 24.515625 
Q 13.234375 26.265625 9.515625 29.90625 
Q 5.8125 33.546875 5.8125 39.890625 
Q 5.8125 47.609375 11.28125 51.796875 
Q 16.75 56 26.8125 56 
Q 31.78125 56 36.171875 55.265625 
Q 40.578125 54.546875 44.28125 53.078125 
z
" id="DejaVuSans-115"/>
      <path d="M 56.203125 29.59375 
L 56.203125 25.203125 
L 14.890625 25.203125 
Q 15.484375 15.921875 20.484375 11.0625 
Q 25.484375 6.203125 34.421875 6.203125 
Q 39.59375 6.203125 44.453125 7.46875 
Q 49.3125 8.734375 54.109375 11.28125 
L 54.109375 2.78125 
Q 49.265625 0.734375 44.1875 -0.34375 
Q 39.109375 -1.421875 33.890625 -1.421875 
Q 20.796875 -1.421875 13.15625 6.1875 
Q 5.515625 13.8125 5.515625 26.8125 
Q 5.515625 40.234375 12.765625 48.109375 
Q 20.015625 56 32.328125 56 
Q 43.359375 56 49.78125 48.890625 
Q 56.203125 41.796875 56.203125 29.59375 
z
M 47.21875 32.234375 
Q 47.125 39.59375 43.09375 43.984375 
Q 39.0625 48.390625 32.421875 48.390625 
Q 24.90625 48.390625 20.390625 44.140625 
Q 15.875 39.890625 15.1875 32.171875 
z
" id="DejaVuSans-101"/>
      <path d="M 48.78125 52.59375 
L 48.78125 44.1875 
Q 44.96875 46.296875 41.140625 47.34375 
Q 37.3125 48.390625 33.40625 48.390625 
Q 24.65625 48.390625 19.8125 42.84375 
Q 14.984375 37.3125 14.984375 27.296875 
Q 14.984375 17.28125 19.8125 11.734375 
Q 24.65625 6.203125 33.40625 6.203125 
Q 37.3125 6.203125 41.140625 7.25 
Q 44.96875 8.296875 48.78125 10.40625 
L 48.78125 2.09375 
Q 45.015625 0.34375 40.984375 -0.53125 
Q 36.96875 -1.421875 32.421875 -1.421875 
Q 20.0625 -1.421875 12.78125 6.34375 
Q 5.515625 14.109375 5.515625 27.296875 
Q 5.515625 40.671875 12.859375 48.328125 
Q 20.21875 56 33.015625 56 
Q 37.15625 56 41.109375 55.140625 
Q 45.0625 54.296875 48.78125 52.59375 
z
" id="DejaVuSans-99"/>
      <path d="M 54.890625 33.015625 
L 54.890625 0 
L 45.90625 0 
L 45.90625 32.71875 
Q 45.90625 40.484375 42.875 44.328125 
Q 39.84375 48.1875 33.796875 48.1875 
Q 26.515625 48.1875 22.3125 43.546875 
Q 18.109375 38.921875 18.109375 30.90625 
L 18.109375 0 
L 9.078125 0 
L 9.078125 54.6875 
L 18.109375 54.6875 
L 18.109375 46.1875 
Q 21.34375 51.125 25.703125 53.5625 
Q 30.078125 56 35.796875 56 
Q 45.21875 56 50.046875 50.171875 
Q 54.890625 44.34375 54.890625 33.015625 
z
" id="DejaVuSans-110"/>
      <path d="M 45.40625 46.390625 
L 45.40625 75.984375 
L 54.390625 75.984375 
L 54.390625 0 
L 45.40625 0 
L 45.40625 8.203125 
Q 42.578125 3.328125 38.25 0.953125 
Q 33.9375 -1.421875 27.875 -1.421875 
Q 17.96875 -1.421875 11.734375 6.484375 
Q 5.515625 14.40625 5.515625 27.296875 
Q 5.515625 40.1875 11.734375 48.09375 
Q 17.96875 56 27.875 56 
Q 33.9375 56 38.25 53.625 
Q 42.578125 51.265625 45.40625 46.390625 
z
M 14.796875 27.296875 
Q 14.796875 17.390625 18.875 11.75 
Q 22.953125 6.109375 30.078125 6.109375 
Q 37.203125 6.109375 41.296875 11.75 
Q 45.40625 17.390625 45.40625 27.296875 
Q 45.40625 37.203125 41.296875 42.84375 
Q 37.203125 48.484375 30.078125 48.484375 
Q 22.953125 48.484375 18.875 42.84375 
Q 14.796875 37.203125 14.796875 27.296875 
z
" id="DejaVuSans-100"/>
      <path d="M 8.015625 75.875 
L 15.828125 75.875 
Q 23.140625 64.359375 26.78125 53.3125 
Q 30.421875 42.28125 30.421875 31.390625 
Q 30.421875 20.453125 26.78125 9.375 
Q 23.140625 -1.703125 15.828125 -13.1875 
L 8.015625 -13.1875 
Q 14.5 -2 17.703125 9.0625 
Q 20.90625 20.125 20.90625 31.390625 
Q 20.90625 42.671875 17.703125 53.65625 
Q 14.5 64.65625 8.015625 75.875 
z
" id="DejaVuSans-41"/>
     </defs>
     <g transform="translate(57.667656 231.608958)rotate(-90)scale(0.1 -0.1)">
      <use xlink:href="#DejaVuSans-40"/>
      <use x="39.013672" xlink:href="#DejaVuSans-109"/>
      <use x="136.425781" xlink:href="#DejaVuSans-98"/>
      <use x="199.902344" xlink:href="#DejaVuSans-105"/>
      <use x="227.685547" xlink:href="#DejaVuSans-116"/>
      <use x="266.894531" xlink:href="#DejaVuSans-32"/>
      <use x="298.681641" xlink:href="#DejaVuSans-47"/>
      <use x="332.373047" xlink:href="#DejaVuSans-32"/>
      <use x="364.160156" xlink:href="#DejaVuSans-115"/>
      <use x="416.259766" xlink:href="#DejaVuSans-101"/>
      <use x="477.783203" xlink:href="#DejaVuSans-99"/>
      <use x="532.763672" xlink:href="#DejaVuSans-111"/>
      <use x="593.945312" xlink:href="#DejaVuSans-110"/>
      <use x="657.324219" xlink:href="#DejaVuSans-100"/>
      <use x="720.800781" xlink:href="#DejaVuSans-41"/>
     </g>
    </g>
   </g>
   <g id="line2d_16">
    <path clip-path="url(#pc9965fa22b)" d="M 109.595911 348.351241 
L 111.806226 348.351241 
L 112.542998 344.528316 
L 113.279769 344.528316 
L 114.016541 352.174167 
L 114.753313 352.174167 
L 115.490084 348.351241 
L 116.226856 352.174167 
L 118.437171 352.174167 
L 119.173943 348.351241 
L 119.910715 348.351241 
L 120.647486 352.174167 
L 121.384258 352.174167 
L 122.12103 348.351241 
L 124.331345 348.351241 
L 125.804888 340.70539 
L 127.278432 340.70539 
L 129.488747 352.174167 
L 130.225518 348.351241 
L 133.172605 348.351241 
L 133.909377 352.174167 
L 134.646149 352.174167 
L 135.38292 348.351241 
L 139.066779 348.351241 
L 139.803551 344.528316 
L 140.540322 344.528316 
L 141.277094 340.70539 
L 142.013866 348.351241 
L 143.487409 348.351241 
L 144.224181 340.70539 
L 145.697724 348.351241 
L 147.171268 348.351241 
L 147.908039 352.174167 
L 148.644811 352.174167 
L 150.118354 344.528316 
L 150.855126 336.882465 
L 151.591898 344.528316 
L 152.32867 348.351241 
L 154.538985 336.882465 
L 155.275756 340.70539 
L 156.012528 348.351241 
L 156.7493 348.351241 
L 157.486071 340.70539 
L 158.222843 344.528316 
L 158.959615 333.059539 
L 160.433158 340.70539 
L 161.906702 333.059539 
L 163.380245 348.351241 
L 164.853788 348.351241 
L 165.59056 344.528316 
L 166.327332 333.059539 
L 167.064104 344.528316 
L 168.537647 313.944912 
L 169.274419 294.830285 
L 170.01119 291.007359 
L 170.747962 294.830285 
L 171.484734 302.476136 
L 172.221506 298.65321 
L 172.958277 279.538583 
L 173.695049 264.246881 
L 174.431821 245.132254 
L 175.168592 252.778105 
L 175.905364 264.246881 
L 176.642136 264.246881 
L 177.378907 248.955179 
L 178.115679 256.60103 
L 178.852451 252.778105 
L 179.589223 260.423956 
L 180.325994 252.778105 
L 181.062766 222.194701 
L 181.799538 279.538583 
L 182.536309 294.830285 
L 183.273081 302.476136 
L 184.009853 298.65321 
L 184.746624 283.361508 
L 185.483396 287.184434 
L 186.220168 294.830285 
L 186.95694 291.007359 
L 187.693711 298.65321 
L 189.904026 310.121987 
L 190.640798 317.767838 
L 191.37757 317.767838 
L 192.114342 310.121987 
L 192.851113 317.767838 
L 193.587885 306.299061 
L 194.324657 287.184434 
L 195.061428 294.830285 
L 195.7982 248.955179 
L 196.534972 275.715658 
L 197.271743 294.830285 
L 198.008515 279.538583 
L 199.482059 302.476136 
L 200.21883 317.767838 
L 200.955602 302.476136 
L 201.692374 302.476136 
L 202.429145 291.007359 
L 203.165917 283.361508 
L 203.902689 302.476136 
L 204.63946 313.944912 
L 205.376232 313.944912 
L 206.113004 298.65321 
L 206.849776 306.299061 
L 207.586547 310.121987 
L 208.323319 306.299061 
L 209.796862 291.007359 
L 210.533634 294.830285 
L 211.270406 248.955179 
L 212.007178 283.361508 
L 212.743949 294.830285 
L 213.480721 302.476136 
L 214.217493 325.413688 
L 214.954264 325.413688 
L 215.691036 317.767838 
L 216.427808 317.767838 
L 217.164579 310.121987 
L 218.638123 325.413688 
L 219.374895 321.590763 
L 220.111666 321.590763 
L 220.848438 313.944912 
L 222.321981 329.236614 
L 223.058753 329.236614 
L 223.795525 313.944912 
L 225.269068 329.236614 
L 226.00584 317.767838 
L 226.742612 317.767838 
L 227.479383 325.413688 
L 228.216155 325.413688 
L 229.689698 294.830285 
L 230.42647 275.715658 
L 231.163242 279.538583 
L 231.900014 271.892732 
L 232.636785 271.892732 
L 233.373557 287.184434 
L 234.110329 283.361508 
L 234.8471 271.892732 
L 235.583872 279.538583 
L 236.320644 279.538583 
L 237.057415 275.715658 
L 237.794187 264.246881 
L 238.530959 275.715658 
L 239.267731 271.892732 
L 240.004502 271.892732 
L 240.741274 275.715658 
L 241.478046 245.132254 
L 242.214817 294.830285 
L 243.688361 317.767838 
L 244.425132 306.299061 
L 245.161904 313.944912 
L 245.898676 317.767838 
L 246.635448 329.236614 
L 247.372219 336.882465 
L 248.108991 340.70539 
L 249.582534 340.70539 
L 250.319306 344.528316 
L 251.056078 344.528316 
L 251.79285 340.70539 
L 252.529621 344.528316 
L 253.266393 340.70539 
L 254.003165 348.351241 
L 255.476708 340.70539 
L 256.21348 325.413688 
L 256.950251 333.059539 
L 258.423795 317.767838 
L 259.160567 329.236614 
L 259.897338 329.236614 
L 260.63411 321.590763 
L 261.370882 329.236614 
L 262.844425 329.236614 
L 263.581197 325.413688 
L 264.317968 329.236614 
L 265.791512 313.944912 
L 266.528284 310.121987 
L 267.265055 317.767838 
L 268.001827 302.476136 
L 268.738599 310.121987 
L 269.47537 302.476136 
L 270.212142 279.538583 
L 270.948914 291.007359 
L 271.685686 275.715658 
L 272.422457 317.767838 
L 273.159229 336.882465 
L 273.896001 344.528316 
L 274.632772 344.528316 
L 275.369544 348.351241 
L 276.843087 340.70539 
L 277.579859 340.70539 
L 279.053403 348.351241 
L 282.000489 348.351241 
L 283.474033 340.70539 
L 284.210804 344.528316 
L 284.947576 336.882465 
L 285.684348 348.351241 
L 287.157891 348.351241 
L 287.894663 352.174167 
L 288.631435 348.351241 
L 289.368206 340.70539 
L 290.84175 348.351241 
L 293.052065 348.351241 
L 293.788837 352.174167 
L 294.525608 352.174167 
L 295.26238 348.351241 
L 295.999152 352.174167 
L 298.946239 352.174167 
L 299.68301 348.351241 
L 300.419782 352.174167 
L 301.156554 352.174167 
L 301.893325 348.351241 
L 302.630097 352.174167 
L 303.366869 352.174167 
L 304.10364 344.528316 
L 304.840412 352.174167 
L 306.313956 344.528316 
L 307.050727 348.351241 
L 307.787499 340.70539 
L 308.524271 344.528316 
L 309.261042 336.882465 
L 309.997814 333.059539 
L 310.734586 333.059539 
L 311.471358 325.413688 
L 312.208129 325.413688 
L 312.944901 329.236614 
L 313.681673 336.882465 
L 314.418444 336.882465 
L 315.155216 321.590763 
L 316.628759 336.882465 
L 317.365531 340.70539 
L 318.102303 336.882465 
L 318.839075 340.70539 
L 320.312618 325.413688 
L 321.04939 291.007359 
L 321.786161 294.830285 
L 322.522933 310.121987 
L 323.259705 313.944912 
L 323.996476 306.299061 
L 324.733248 313.944912 
L 325.47002 306.299061 
L 326.206792 302.476136 
L 326.943563 310.121987 
L 327.680335 294.830285 
L 328.417107 298.65321 
L 329.153878 291.007359 
L 329.89065 302.476136 
L 330.627422 298.65321 
L 331.364194 298.65321 
L 332.100965 287.184434 
L 332.837737 291.007359 
L 333.574509 283.361508 
L 334.31128 291.007359 
L 335.048052 302.476136 
L 335.784824 268.069807 
L 336.521595 291.007359 
L 337.258367 279.538583 
L 337.995139 264.246881 
L 338.731911 275.715658 
L 339.468682 283.361508 
L 340.205454 275.715658 
L 340.942226 283.361508 
L 341.678997 294.830285 
L 343.152541 310.121987 
L 343.889312 306.299061 
L 344.626084 287.184434 
L 345.362856 271.892732 
L 346.099628 279.538583 
L 346.836399 271.892732 
L 347.573171 291.007359 
L 348.309943 302.476136 
L 349.046714 283.361508 
L 349.783486 268.069807 
L 350.520258 268.069807 
L 351.25703 229.840552 
L 351.993801 287.184434 
L 352.730573 283.361508 
L 353.467345 294.830285 
L 354.204116 302.476136 
L 354.940888 298.65321 
L 355.67766 298.65321 
L 356.414431 306.299061 
L 357.151203 310.121987 
L 357.887975 294.830285 
L 358.624747 283.361508 
L 359.361518 287.184434 
L 360.09829 302.476136 
L 360.835062 298.65321 
L 361.571833 287.184434 
L 362.308605 291.007359 
L 363.045377 298.65321 
L 363.782148 291.007359 
L 364.51892 302.476136 
L 365.255692 306.299061 
L 365.992464 287.184434 
L 366.729235 287.184434 
L 367.466007 279.538583 
L 368.202779 294.830285 
L 368.93955 287.184434 
L 369.676322 291.007359 
L 370.413094 283.361508 
L 371.149866 294.830285 
L 371.886637 294.830285 
L 372.623409 283.361508 
L 373.360181 294.830285 
L 374.096952 294.830285 
L 374.833724 279.538583 
L 375.570496 283.361508 
L 376.307267 302.476136 
L 377.044039 313.944912 
L 377.780811 306.299061 
L 378.517583 313.944912 
L 379.254354 306.299061 
L 379.991126 313.944912 
L 380.727898 317.767838 
L 381.464669 279.538583 
L 382.201441 313.944912 
L 382.938213 317.767838 
L 383.674984 310.121987 
L 384.411756 313.944912 
L 385.148528 306.299061 
L 385.8853 291.007359 
L 387.358843 298.65321 
L 388.095615 291.007359 
L 389.569158 306.299061 
L 390.30593 302.476136 
L 391.042702 306.299061 
L 391.779473 294.830285 
L 392.516245 310.121987 
L 393.253017 313.944912 
L 393.989788 313.944912 
L 394.72656 325.413688 
L 395.463332 317.767838 
L 396.200103 268.069807 
L 396.936875 287.184434 
L 397.673647 283.361508 
L 398.410419 271.892732 
L 399.14719 287.184434 
L 399.883962 298.65321 
L 400.620734 306.299061 
L 401.357505 294.830285 
L 402.094277 294.830285 
L 402.831049 302.476136 
L 403.56782 313.944912 
L 404.304592 317.767838 
L 405.041364 317.767838 
L 405.778136 313.944912 
L 406.514907 317.767838 
L 407.251679 313.944912 
L 407.988451 306.299061 
L 408.725222 310.121987 
L 409.461994 298.65321 
L 410.198766 294.830285 
L 410.935538 302.476136 
L 411.672309 264.246881 
L 412.409081 291.007359 
L 413.145853 294.830285 
L 413.882624 291.007359 
L 415.356168 313.944912 
L 416.092939 321.590763 
L 416.829711 306.299061 
L 418.303255 306.299061 
L 419.040026 313.944912 
L 419.776798 313.944912 
L 420.51357 294.830285 
L 421.250341 294.830285 
L 421.987113 302.476136 
L 422.723885 291.007359 
L 423.460656 306.299061 
L 424.197428 313.944912 
L 424.9342 317.767838 
L 425.670972 310.121987 
L 426.407743 264.246881 
L 427.144515 294.830285 
L 427.881287 302.476136 
L 429.35483 294.830285 
L 430.091602 283.361508 
L 430.828374 287.184434 
L 431.565145 271.892732 
L 432.301917 279.538583 
L 433.038689 283.361508 
L 433.77546 271.892732 
L 434.512232 268.069807 
L 435.249004 275.715658 
L 435.985775 279.538583 
L 436.722547 291.007359 
L 437.459319 306.299061 
L 438.196091 317.767838 
L 438.932862 302.476136 
L 440.406406 310.121987 
L 441.143177 283.361508 
L 441.879949 245.132254 
L 442.616721 268.069807 
L 443.353492 275.715658 
L 444.090264 291.007359 
L 444.827036 298.65321 
L 445.563808 317.767838 
L 446.300579 313.944912 
L 447.037351 313.944912 
L 447.774123 310.121987 
L 448.510894 298.65321 
L 449.247666 302.476136 
L 449.984438 317.767838 
L 450.72121 321.590763 
L 451.457981 306.299061 
L 452.194753 306.299061 
L 452.931525 294.830285 
L 454.405068 317.767838 
L 455.14184 321.590763 
L 455.878611 317.767838 
L 456.615383 260.423956 
L 457.352155 275.715658 
L 458.088927 283.361508 
L 458.825698 294.830285 
L 459.56247 310.121987 
L 460.299242 317.767838 
L 461.036013 321.590763 
L 461.772785 321.590763 
L 463.246328 306.299061 
L 464.719872 321.590763 
L 465.456644 325.413688 
L 466.193415 325.413688 
L 466.930187 329.236614 
L 467.666959 321.590763 
L 468.40373 302.476136 
L 469.140502 306.299061 
L 469.877274 313.944912 
L 470.614046 325.413688 
L 471.350817 325.413688 
L 472.087589 298.65321 
L 472.824361 291.007359 
L 473.561132 279.538583 
L 474.297904 294.830285 
L 475.034676 306.299061 
L 475.771447 306.299061 
L 476.508219 313.944912 
L 477.244991 313.944912 
L 477.981763 302.476136 
L 478.718534 283.361508 
L 479.455306 271.892732 
L 480.192078 275.715658 
L 481.665621 275.715658 
L 482.402393 260.423956 
L 483.875936 291.007359 
L 484.612708 302.476136 
L 485.34948 294.830285 
L 486.086251 279.538583 
L 486.823023 218.371776 
L 487.559795 275.715658 
L 489.033338 298.65321 
L 489.77011 298.65321 
L 490.506882 310.121987 
L 491.243653 302.476136 
L 491.980425 306.299061 
L 492.717197 313.944912 
L 493.453968 313.944912 
L 494.19074 317.767838 
L 494.927512 310.121987 
L 495.664283 313.944912 
L 496.401055 310.121987 
L 497.137827 302.476136 
L 498.61137 310.121987 
L 499.348142 317.767838 
L 500.084914 317.767838 
L 500.821685 321.590763 
L 501.558457 313.944912 
L 502.295229 291.007359 
L 503.768772 298.65321 
L 504.505544 298.65321 
L 505.242316 291.007359 
L 505.979087 310.121987 
L 506.715859 321.590763 
L 506.715859 321.590763 
" style="fill:none;stroke:#1f77b4;stroke-linecap:square;stroke-width:1.5;"/>
   </g>
   <g id="line2d_17">
    <path clip-path="url(#pc9965fa22b)" d="M 106.595776 256.60103 
L 107.332548 245.132254 
L 108.06932 241.309328 
L 108.806091 222.194701 
L 110.279635 214.54885 
L 111.016407 203.080074 
L 111.753178 195.434223 
L 112.48995 210.725925 
L 113.226722 176.319596 
L 113.963493 149.559117 
L 114.700265 145.736192 
L 115.437037 130.44449 
L 116.173808 118.975714 
L 116.91058 115.152788 
L 117.647352 107.506937 
L 118.384124 96.038161 
L 119.120895 111.329863 
L 119.857667 122.798639 
L 120.594439 130.44449 
L 121.33121 130.44449 
L 122.067982 122.798639 
L 122.804754 149.559117 
L 123.541526 164.850819 
L 125.015069 141.913267 
L 125.751841 161.027894 
L 126.488612 172.49667 
L 127.225384 172.49667 
L 127.962156 180.142521 
L 128.698927 183.965447 
L 129.435699 176.319596 
L 130.172471 180.142521 
L 130.909243 191.611297 
L 131.646014 206.902999 
L 132.382786 203.080074 
L 133.119558 187.788372 
L 133.856329 203.080074 
L 134.593101 195.434223 
L 135.329873 195.434223 
L 136.066644 183.965447 
L 136.803416 157.204968 
L 137.540188 153.382043 
L 139.013731 168.673745 
L 139.750503 168.673745 
L 141.224046 176.319596 
L 141.960818 187.788372 
L 143.434362 187.788372 
L 144.171133 191.611297 
L 144.907905 183.965447 
L 145.644677 195.434223 
L 146.381448 203.080074 
L 147.11822 206.902999 
L 147.854992 195.434223 
L 148.591763 210.725925 
L 150.065307 210.725925 
L 150.802079 164.850819 
L 151.53885 153.382043 
L 152.275622 153.382043 
L 153.012394 161.027894 
L 153.749165 172.49667 
L 154.485937 180.142521 
L 155.222709 183.965447 
L 155.95948 180.142521 
L 156.696252 187.788372 
L 157.433024 191.611297 
L 158.169796 187.788372 
L 158.906567 191.611297 
L 159.643339 187.788372 
L 160.380111 191.611297 
L 161.853654 214.54885 
L 162.590426 218.371776 
L 164.063969 218.371776 
L 164.800741 222.194701 
L 165.537513 264.246881 
L 166.274284 214.54885 
L 167.011056 214.54885 
L 168.484599 252.778105 
L 169.958143 268.069807 
L 171.431686 275.715658 
L 172.168458 275.715658 
L 174.378773 287.184434 
L 175.852316 279.538583 
L 176.589088 279.538583 
L 177.32586 283.361508 
L 178.062632 279.538583 
L 178.799403 283.361508 
L 180.272947 283.361508 
L 181.009718 310.121987 
L 181.74649 271.892732 
L 183.956805 260.423956 
L 186.16712 271.892732 
L 186.903892 268.069807 
L 187.640664 268.069807 
L 188.377435 260.423956 
L 189.114207 256.60103 
L 189.850979 260.423956 
L 192.061294 260.423956 
L 192.798066 248.955179 
L 195.008381 260.423956 
L 195.745152 287.184434 
L 196.481924 268.069807 
L 197.218696 256.60103 
L 197.955468 260.423956 
L 198.692239 256.60103 
L 199.429011 260.423956 
L 200.165783 256.60103 
L 200.902554 256.60103 
L 201.639326 252.778105 
L 203.849641 264.246881 
L 204.586413 264.246881 
L 205.323185 260.423956 
L 206.059956 260.423956 
L 206.796728 256.60103 
L 207.5335 260.423956 
L 209.007043 252.778105 
L 210.480587 252.778105 
L 211.217358 294.830285 
L 211.95413 256.60103 
L 212.690902 256.60103 
L 214.164445 248.955179 
L 214.901217 252.778105 
L 215.637988 252.778105 
L 216.37476 248.955179 
L 217.111532 248.955179 
L 217.848304 252.778105 
L 219.321847 237.486403 
L 220.058619 237.486403 
L 220.79539 241.309328 
L 221.532162 248.955179 
L 222.268934 245.132254 
L 224.479249 245.132254 
L 225.216021 248.955179 
L 225.952792 287.184434 
L 226.689564 245.132254 
L 227.426336 241.309328 
L 228.899879 241.309328 
L 229.636651 248.955179 
L 231.110194 248.955179 
L 234.057281 264.246881 
L 234.794053 264.246881 
L 235.530824 256.60103 
L 236.267596 256.60103 
L 237.74114 264.246881 
L 239.214683 264.246881 
L 239.951455 260.423956 
L 240.688226 264.246881 
L 241.424998 302.476136 
L 242.16177 252.778105 
L 242.898542 237.486403 
L 244.372085 229.840552 
L 245.845628 229.840552 
L 246.5824 222.194701 
L 247.319172 222.194701 
L 248.055943 214.54885 
L 248.792715 210.725925 
L 249.529487 214.54885 
L 250.266259 206.902999 
L 251.00303 206.902999 
L 251.739802 203.080074 
L 252.476574 206.902999 
L 253.213345 203.080074 
L 253.950117 195.434223 
L 254.686889 199.257148 
L 255.42366 199.257148 
L 256.160432 271.892732 
L 256.897204 275.715658 
L 257.633976 271.892732 
L 258.370747 283.361508 
L 259.844291 283.361508 
L 261.317834 291.007359 
L 264.264921 291.007359 
L 265.001693 287.184434 
L 265.738464 287.184434 
L 266.475236 283.361508 
L 267.948779 283.361508 
L 268.685551 275.715658 
L 269.422323 283.361508 
L 270.159095 260.423956 
L 270.895866 268.069807 
L 271.632638 302.476136 
L 272.36941 241.309328 
L 273.106181 210.725925 
L 275.316496 187.788372 
L 276.053268 187.788372 
L 276.79004 172.49667 
L 277.526812 172.49667 
L 278.263583 168.673745 
L 279.000355 149.559117 
L 279.737127 157.204968 
L 280.473898 149.559117 
L 281.947442 157.204968 
L 283.420985 157.204968 
L 284.157757 153.382043 
L 284.894529 126.621565 
L 285.6313 134.267416 
L 286.368072 130.44449 
L 287.104844 138.090341 
L 287.841615 141.913267 
L 288.578387 161.027894 
L 289.315159 348.351241 
L 290.051931 279.538583 
L 290.788702 199.257148 
L 291.525474 191.611297 
L 292.262246 187.788372 
L 292.999017 172.49667 
L 294.472561 149.559117 
L 295.209332 153.382043 
L 295.946104 138.090341 
L 296.682876 126.621565 
L 297.419648 118.975714 
L 298.156419 103.684012 
L 298.893191 99.861086 
L 299.629963 88.39231 
L 300.366734 92.215236 
L 301.103506 103.684012 
L 301.840278 96.038161 
L 302.57705 99.861086 
L 303.313821 92.215236 
L 304.050593 80.746459 
L 304.787365 80.746459 
L 305.524136 214.54885 
L 306.260908 206.902999 
L 306.99768 183.965447 
L 307.734451 210.725925 
L 308.471223 229.840552 
L 309.944767 252.778105 
L 311.41831 260.423956 
L 312.155082 260.423956 
L 312.891853 271.892732 
L 314.365397 279.538583 
L 315.102168 291.007359 
L 315.83894 287.184434 
L 316.575712 279.538583 
L 317.312484 283.361508 
L 318.049255 279.538583 
L 318.786027 271.892732 
L 320.25957 271.892732 
L 320.996342 302.476136 
L 321.733114 275.715658 
L 322.469886 271.892732 
L 323.206657 264.246881 
L 323.943429 260.423956 
L 324.680201 260.423956 
L 325.416972 264.246881 
L 326.153744 264.246881 
L 326.890516 260.423956 
L 327.627287 260.423956 
L 329.100831 268.069807 
L 329.837603 268.069807 
L 331.311146 260.423956 
L 333.521461 260.423956 
L 334.258233 256.60103 
L 334.995004 256.60103 
L 335.731776 291.007359 
L 336.468548 271.892732 
L 337.20532 271.892732 
L 338.678863 264.246881 
L 340.152406 264.246881 
L 340.889178 260.423956 
L 341.62595 264.246881 
L 343.099493 264.246881 
L 343.836265 256.60103 
L 344.573037 260.423956 
L 345.309808 268.069807 
L 346.04658 260.423956 
L 346.783352 264.246881 
L 347.520123 264.246881 
L 348.256895 256.60103 
L 349.730439 256.60103 
L 350.46721 252.778105 
L 351.203982 294.830285 
L 351.940754 248.955179 
L 352.677525 248.955179 
L 353.414297 241.309328 
L 354.151069 241.309328 
L 356.361384 252.778105 
L 357.098156 252.778105 
L 357.834927 248.955179 
L 358.571699 248.955179 
L 359.308471 245.132254 
L 360.045242 245.132254 
L 361.518786 260.423956 
L 362.255558 260.423956 
L 362.992329 264.246881 
L 363.729101 264.246881 
L 364.465873 268.069807 
L 365.202644 264.246881 
L 365.939416 298.65321 
L 366.676188 275.715658 
L 367.412959 271.892732 
L 368.886503 271.892732 
L 369.623275 268.069807 
L 370.360046 271.892732 
L 371.83359 264.246881 
L 372.570361 268.069807 
L 373.307133 268.069807 
L 374.043905 271.892732 
L 374.780676 268.069807 
L 376.990992 268.069807 
L 377.727763 260.423956 
L 378.464535 248.955179 
L 379.938078 241.309328 
L 380.67485 241.309328 
L 381.411622 294.830285 
L 382.148394 264.246881 
L 382.885165 260.423956 
L 384.358709 260.423956 
L 385.09548 264.246881 
L 386.569024 264.246881 
L 387.305795 256.60103 
L 388.042567 252.778105 
L 388.779339 245.132254 
L 389.516111 241.309328 
L 391.726426 252.778105 
L 392.463197 260.423956 
L 393.199969 256.60103 
L 393.936741 256.60103 
L 394.673512 264.246881 
L 395.410284 264.246881 
L 396.147056 302.476136 
L 396.883828 275.715658 
L 397.620599 271.892732 
L 398.357371 271.892732 
L 399.830914 264.246881 
L 402.778001 264.246881 
L 404.251545 271.892732 
L 404.988316 260.423956 
L 405.725088 260.423956 
L 406.46186 248.955179 
L 407.198631 241.309328 
L 407.935403 245.132254 
L 408.672175 241.309328 
L 409.408947 245.132254 
L 410.145718 241.309328 
L 410.88249 245.132254 
L 411.619262 291.007359 
L 412.356033 256.60103 
L 413.092805 260.423956 
L 414.566348 260.423956 
L 415.30312 264.246881 
L 416.039892 264.246881 
L 416.776664 268.069807 
L 417.513435 264.246881 
L 418.986979 264.246881 
L 419.72375 268.069807 
L 420.460522 268.069807 
L 421.197294 264.246881 
L 421.934066 264.246881 
L 422.670837 268.069807 
L 424.144381 252.778105 
L 424.881152 248.955179 
L 425.617924 248.955179 
L 426.354696 291.007359 
L 427.091467 268.069807 
L 427.828239 268.069807 
L 429.301783 260.423956 
L 430.038554 268.069807 
L 430.775326 264.246881 
L 431.512098 268.069807 
L 432.248869 264.246881 
L 433.722413 271.892732 
L 434.459184 271.892732 
L 435.195956 275.715658 
L 435.932728 271.892732 
L 436.6695 264.246881 
L 437.406271 264.246881 
L 438.143043 256.60103 
L 438.879815 256.60103 
L 441.09013 268.069807 
L 441.826902 302.476136 
L 442.563673 279.538583 
L 444.037217 264.246881 
L 445.51076 256.60103 
L 446.247532 256.60103 
L 446.984303 248.955179 
L 447.721075 252.778105 
L 448.457847 252.778105 
L 449.194619 248.955179 
L 451.404934 248.955179 
L 452.141705 241.309328 
L 452.878477 248.955179 
L 453.615249 248.955179 
L 454.35202 237.486403 
L 455.088792 237.486403 
L 455.825564 241.309328 
L 456.562336 287.184434 
L 457.299107 245.132254 
L 458.035879 237.486403 
L 458.772651 245.132254 
L 459.509422 237.486403 
L 460.246194 241.309328 
L 460.982966 233.663477 
L 461.719738 233.663477 
L 462.456509 237.486403 
L 463.193281 237.486403 
L 464.666824 245.132254 
L 466.140368 245.132254 
L 466.877139 248.955179 
L 468.350683 248.955179 
L 469.087455 241.309328 
L 469.824226 241.309328 
L 471.29777 248.955179 
L 472.034541 291.007359 
L 472.771313 268.069807 
L 473.508085 264.246881 
L 474.244856 264.246881 
L 474.981628 260.423956 
L 475.7184 260.423956 
L 476.455172 256.60103 
L 477.191943 260.423956 
L 477.928715 268.069807 
L 478.665487 268.069807 
L 480.13903 260.423956 
L 480.875802 264.246881 
L 481.612574 264.246881 
L 482.349345 268.069807 
L 483.086117 260.423956 
L 483.822889 260.423956 
L 484.55966 264.246881 
L 486.033204 256.60103 
L 486.769975 302.476136 
L 487.506747 268.069807 
L 489.717062 256.60103 
L 490.453834 248.955179 
L 491.190606 245.132254 
L 491.927377 248.955179 
L 492.664149 241.309328 
L 493.400921 245.132254 
L 494.137692 245.132254 
L 494.874464 248.955179 
L 495.611236 245.132254 
L 496.348008 248.955179 
L 497.084779 248.955179 
L 500.031866 233.663477 
L 500.768638 237.486403 
L 501.50541 252.778105 
L 502.242181 287.184434 
L 502.978953 268.069807 
L 503.715725 264.246881 
L 503.715725 264.246881 
" style="fill:none;stroke:#ff7f0e;stroke-linecap:square;stroke-width:1.5;"/>
   </g>
   <g id="line2d_18">
    <path clip-path="url(#pc9965fa22b)" d="M 103.765099 73.100608 
L 104.501871 50.163056 
L 105.238643 50.163056 
L 105.975415 57.808906 
L 106.712186 161.027894 
L 107.448958 157.204968 
L 108.18573 164.850819 
L 108.922501 183.965447 
L 109.659273 195.434223 
L 110.396045 195.434223 
L 111.132816 210.725925 
L 111.869588 218.371776 
L 112.60636 237.486403 
L 113.343132 252.778105 
L 114.816675 268.069807 
L 115.553447 287.184434 
L 116.290218 294.830285 
L 117.02699 294.830285 
L 117.763762 302.476136 
L 118.500534 321.590763 
L 119.237305 302.476136 
L 120.710849 279.538583 
L 121.44762 291.007359 
L 122.184392 283.361508 
L 122.921164 264.246881 
L 123.657935 256.60103 
L 124.394707 268.069807 
L 125.131479 275.715658 
L 125.868251 260.423956 
L 126.605022 248.955179 
L 127.341794 248.955179 
L 128.078566 237.486403 
L 128.815337 233.663477 
L 129.552109 237.486403 
L 130.288881 233.663477 
L 131.025652 226.017627 
L 131.762424 214.54885 
L 132.499196 214.54885 
L 133.235968 226.017627 
L 133.972739 210.725925 
L 134.709511 218.371776 
L 135.446283 222.194701 
L 136.183054 237.486403 
L 136.919826 256.60103 
L 137.656598 264.246881 
L 138.39337 252.778105 
L 139.130141 256.60103 
L 140.603685 248.955179 
L 141.340456 248.955179 
L 142.077228 237.486403 
L 144.287543 237.486403 
L 145.024315 233.663477 
L 145.761087 218.371776 
L 146.497858 218.371776 
L 147.23463 214.54885 
L 147.971402 214.54885 
L 148.708173 206.902999 
L 149.444945 206.902999 
L 150.181717 203.080074 
L 150.918488 279.538583 
L 151.65526 275.715658 
L 152.392032 260.423956 
L 153.128804 260.423956 
L 153.865575 264.246881 
L 154.602347 264.246881 
L 155.339119 248.955179 
L 156.07589 245.132254 
L 156.812662 237.486403 
L 157.549434 237.486403 
L 159.022977 252.778105 
L 159.759749 256.60103 
L 160.496521 245.132254 
L 161.233292 241.309328 
L 161.970064 229.840552 
L 162.706836 210.725925 
L 163.443607 199.257148 
L 164.180379 203.080074 
L 164.917151 195.434223 
L 165.653923 203.080074 
L 166.390694 248.955179 
L 167.127466 222.194701 
L 167.864238 229.840552 
L 168.601009 248.955179 
L 169.337781 248.955179 
L 170.074553 256.60103 
L 171.548096 248.955179 
L 172.284868 248.955179 
L 173.758411 264.246881 
L 174.495183 268.069807 
L 175.231955 260.423956 
L 175.968726 256.60103 
L 176.705498 256.60103 
L 177.44227 264.246881 
L 178.179042 256.60103 
L 178.915813 264.246881 
L 179.652585 260.423956 
L 180.389357 264.246881 
L 181.126128 298.65321 
L 181.8629 260.423956 
L 182.599672 264.246881 
L 183.336443 264.246881 
L 184.073215 260.423956 
L 184.809987 264.246881 
L 185.546759 264.246881 
L 186.28353 268.069807 
L 187.020302 268.069807 
L 188.493845 260.423956 
L 189.230617 260.423956 
L 189.967389 264.246881 
L 191.440932 264.246881 
L 192.914476 256.60103 
L 194.388019 264.246881 
L 195.124791 256.60103 
L 195.861562 279.538583 
L 196.598334 275.715658 
L 197.335106 260.423956 
L 198.071878 264.246881 
L 198.808649 264.246881 
L 199.545421 268.069807 
L 200.282193 268.069807 
L 201.018964 264.246881 
L 201.755736 268.069807 
L 202.492508 260.423956 
L 203.229279 268.069807 
L 203.966051 264.246881 
L 204.702823 264.246881 
L 205.439595 260.423956 
L 206.176366 260.423956 
L 206.913138 256.60103 
L 207.64991 260.423956 
L 209.123453 252.778105 
L 209.860225 256.60103 
L 210.596996 252.778105 
L 211.333768 298.65321 
L 212.07054 264.246881 
L 212.807312 264.246881 
L 213.544083 256.60103 
L 214.280855 252.778105 
L 215.017627 256.60103 
L 216.49117 248.955179 
L 217.227942 248.955179 
L 217.964714 245.132254 
L 219.438257 245.132254 
L 220.175029 241.309328 
L 220.9118 241.309328 
L 221.648572 245.132254 
L 222.385344 241.309328 
L 223.122115 245.132254 
L 224.595659 245.132254 
L 225.332431 248.955179 
L 226.069202 275.715658 
L 226.805974 256.60103 
L 227.542746 248.955179 
L 228.279517 245.132254 
L 229.016289 248.955179 
L 229.753061 256.60103 
L 230.489832 256.60103 
L 232.700148 268.069807 
L 233.436919 268.069807 
L 234.173691 264.246881 
L 234.910463 264.246881 
L 235.647234 260.423956 
L 237.120778 268.069807 
L 239.331093 268.069807 
L 240.067865 264.246881 
L 240.804636 264.246881 
L 241.541408 302.476136 
L 242.27818 264.246881 
L 243.014951 256.60103 
L 243.751723 241.309328 
L 244.488495 241.309328 
L 245.225267 237.486403 
L 245.962038 229.840552 
L 247.435582 222.194701 
L 248.172353 229.840552 
L 248.909125 210.725925 
L 249.645897 214.54885 
L 250.382668 226.017627 
L 251.11944 218.371776 
L 251.856212 226.017627 
L 252.592984 222.194701 
L 253.329755 226.017627 
L 254.803299 226.017627 
L 255.54007 229.840552 
L 256.276842 180.142521 
L 257.013614 168.673745 
L 257.750386 176.319596 
L 258.487157 176.319596 
L 259.223929 161.027894 
L 259.960701 161.027894 
L 260.697472 168.673745 
L 261.434244 180.142521 
L 262.171016 180.142521 
L 262.907787 176.319596 
L 264.381331 191.611297 
L 265.118103 191.611297 
L 265.854874 203.080074 
L 266.591646 195.434223 
L 267.328418 191.611297 
L 268.065189 210.725925 
L 268.801961 210.725925 
L 269.538733 237.486403 
L 270.275504 271.892732 
L 271.012276 241.309328 
L 271.749048 233.663477 
L 272.48582 229.840552 
L 273.222591 233.663477 
L 274.696135 233.663477 
L 276.169678 241.309328 
L 276.90645 252.778105 
L 277.643222 252.778105 
L 278.379993 256.60103 
L 279.116765 271.892732 
L 279.853537 260.423956 
L 280.590308 271.892732 
L 282.063852 264.246881 
L 282.800623 268.069807 
L 283.537395 268.069807 
L 284.274167 271.892732 
L 285.010939 313.944912 
L 285.74771 287.184434 
L 287.221254 271.892732 
L 287.958025 268.069807 
L 288.694797 237.486403 
L 289.431569 76.923534 
L 290.16834 164.850819 
L 290.905112 218.371776 
L 291.641884 222.194701 
L 292.378656 229.840552 
L 293.115427 245.132254 
L 293.852199 252.778105 
L 294.588971 264.246881 
L 295.325742 256.60103 
L 296.062514 275.715658 
L 296.799286 287.184434 
L 297.536058 291.007359 
L 298.272829 310.121987 
L 299.009601 310.121987 
L 299.746373 329.236614 
L 300.483144 313.944912 
L 301.219916 310.121987 
L 301.956688 325.413688 
L 302.693459 317.767838 
L 303.430231 317.767838 
L 304.167003 340.70539 
L 304.903775 333.059539 
L 305.640546 302.476136 
L 306.377318 226.017627 
L 307.11409 229.840552 
L 307.850861 210.725925 
L 308.587633 195.434223 
L 310.061176 195.434223 
L 310.797948 199.257148 
L 311.53472 199.257148 
L 313.745035 187.788372 
L 314.481807 191.611297 
L 315.218578 183.965447 
L 315.95535 172.49667 
L 316.692122 172.49667 
L 317.428894 164.850819 
L 318.902437 157.204968 
L 319.639209 168.673745 
L 320.37598 195.434223 
L 321.112752 260.423956 
L 321.849524 226.017627 
L 322.586295 233.663477 
L 323.323067 233.663477 
L 324.059839 241.309328 
L 324.796611 245.132254 
L 325.533382 252.778105 
L 326.270154 245.132254 
L 327.006926 248.955179 
L 328.480469 248.955179 
L 330.690784 260.423956 
L 331.427556 252.778105 
L 332.164328 260.423956 
L 332.901099 264.246881 
L 334.374643 264.246881 
L 335.111414 256.60103 
L 335.848186 298.65321 
L 336.584958 264.246881 
L 337.32173 268.069807 
L 338.058501 268.069807 
L 339.532045 260.423956 
L 340.268816 264.246881 
L 341.005588 260.423956 
L 342.479131 268.069807 
L 345.426218 268.069807 
L 346.16299 264.246881 
L 346.899762 264.246881 
L 347.636533 256.60103 
L 348.373305 245.132254 
L 349.110077 256.60103 
L 349.846848 260.423956 
L 350.58362 275.715658 
L 351.320392 298.65321 
L 352.057164 271.892732 
L 352.793935 271.892732 
L 355.00425 260.423956 
L 356.477794 268.069807 
L 357.214566 264.246881 
L 358.688109 264.246881 
L 359.424881 268.069807 
L 360.161652 260.423956 
L 361.635196 268.069807 
L 362.371967 260.423956 
L 363.108739 264.246881 
L 363.845511 264.246881 
L 364.582283 268.069807 
L 365.319054 264.246881 
L 366.055826 302.476136 
L 366.792598 279.538583 
L 367.529369 275.715658 
L 368.266141 275.715658 
L 369.002913 271.892732 
L 369.739684 264.246881 
L 370.476456 260.423956 
L 371.95 260.423956 
L 372.686771 268.069807 
L 373.423543 268.069807 
L 374.160315 271.892732 
L 376.37063 271.892732 
L 377.107402 260.423956 
L 377.844173 256.60103 
L 378.580945 245.132254 
L 380.054488 245.132254 
L 380.79126 256.60103 
L 381.528032 283.361508 
L 382.264803 260.423956 
L 383.001575 256.60103 
L 383.738347 260.423956 
L 384.475119 260.423956 
L 385.948662 268.069807 
L 386.685434 264.246881 
L 387.422205 264.246881 
L 388.895749 256.60103 
L 390.369292 264.246881 
L 391.106064 264.246881 
L 391.842836 271.892732 
L 392.579607 264.246881 
L 395.526694 264.246881 
L 396.263466 298.65321 
L 397.000238 271.892732 
L 397.737009 264.246881 
L 398.473781 264.246881 
L 399.947324 256.60103 
L 401.420868 256.60103 
L 403.631183 268.069807 
L 405.104726 268.069807 
L 405.841498 260.423956 
L 406.57827 256.60103 
L 407.315041 256.60103 
L 408.051813 264.246881 
L 408.788585 260.423956 
L 409.525356 264.246881 
L 410.262128 264.246881 
L 410.9989 275.715658 
L 411.735672 291.007359 
L 412.472443 271.892732 
L 413.209215 268.069807 
L 413.945987 268.069807 
L 414.682758 271.892732 
L 416.893074 260.423956 
L 417.629845 248.955179 
L 418.366617 241.309328 
L 419.103389 248.955179 
L 419.84016 252.778105 
L 421.313704 252.778105 
L 422.050475 260.423956 
L 422.787247 264.246881 
L 423.524019 256.60103 
L 424.260791 260.423956 
L 424.997562 252.778105 
L 425.734334 256.60103 
L 426.471106 298.65321 
L 427.207877 271.892732 
L 429.418192 260.423956 
L 430.891736 260.423956 
L 431.628508 264.246881 
L 432.365279 264.246881 
L 433.102051 268.069807 
L 436.049138 268.069807 
L 436.78591 260.423956 
L 437.522681 260.423956 
L 438.259453 256.60103 
L 438.996225 264.246881 
L 439.732996 260.423956 
L 440.469768 264.246881 
L 441.20654 283.361508 
L 441.943311 291.007359 
L 442.680083 271.892732 
L 447.100713 248.955179 
L 449.311028 248.955179 
L 450.0478 245.132254 
L 451.521344 252.778105 
L 452.258115 245.132254 
L 452.994887 248.955179 
L 454.46843 248.955179 
L 455.205202 256.60103 
L 455.941974 260.423956 
L 456.678746 298.65321 
L 457.415517 275.715658 
L 458.889061 268.069807 
L 459.625832 260.423956 
L 460.362604 264.246881 
L 461.099376 260.423956 
L 461.836147 260.423956 
L 463.309691 268.069807 
L 464.046463 264.246881 
L 464.783234 268.069807 
L 465.520006 264.246881 
L 466.256778 264.246881 
L 466.993549 260.423956 
L 467.730321 260.423956 
L 468.467093 264.246881 
L 470.677408 264.246881 
L 472.150951 287.184434 
L 472.887723 268.069807 
L 474.361266 268.069807 
L 475.098038 264.246881 
L 475.83481 268.069807 
L 476.571582 260.423956 
L 478.045125 268.069807 
L 482.465755 268.069807 
L 483.202527 264.246881 
L 483.939299 264.246881 
L 484.67607 268.069807 
L 485.412842 260.423956 
L 486.149614 260.423956 
L 486.886385 302.476136 
L 487.623157 260.423956 
L 488.359929 260.423956 
L 489.0967 248.955179 
L 489.833472 252.778105 
L 490.570244 241.309328 
L 492.043787 241.309328 
L 492.780559 233.663477 
L 493.517331 241.309328 
L 495.727646 252.778105 
L 496.464418 245.132254 
L 497.201189 248.955179 
L 497.937961 245.132254 
L 498.674733 245.132254 
L 499.411504 237.486403 
L 500.148276 237.486403 
L 500.885048 241.309328 
L 500.885048 241.309328 
" style="fill:none;stroke:#2ca02c;stroke-linecap:square;stroke-width:1.5;"/>
   </g>
   <g id="line2d_19">
    <path clip-path="url(#pc9965fa22b)" d="M 112.500265 321.590763 
L 113.237036 340.70539 
L 113.973808 348.351241 
L 114.71058 348.351241 
L 115.447352 352.174167 
L 116.184123 348.351241 
L 116.920895 352.174167 
L 117.657667 352.174167 
L 118.394438 344.528316 
L 119.13121 348.351241 
L 120.604753 348.351241 
L 121.341525 344.528316 
L 122.815069 352.174167 
L 123.55184 344.528316 
L 124.288612 344.528316 
L 125.025384 348.351241 
L 125.762155 348.351241 
L 126.498927 352.174167 
L 127.235699 352.174167 
L 127.972471 348.351241 
L 130.919557 348.351241 
L 131.656329 344.528316 
L 132.393101 348.351241 
L 135.340188 348.351241 
L 136.076959 352.174167 
L 136.813731 352.174167 
L 137.550503 348.351241 
L 138.287274 348.351241 
L 139.024046 340.70539 
L 139.760818 348.351241 
L 140.497589 348.351241 
L 141.234361 344.528316 
L 141.971133 336.882465 
L 142.707905 340.70539 
L 143.444676 340.70539 
L 144.181448 344.528316 
L 144.91822 352.174167 
L 145.654991 348.351241 
L 147.128535 348.351241 
L 147.865307 352.174167 
L 149.33885 344.528316 
L 150.075622 348.351241 
L 150.812393 348.351241 
L 151.549165 344.528316 
L 152.285937 348.351241 
L 153.022708 344.528316 
L 153.75948 336.882465 
L 154.496252 333.059539 
L 155.969795 340.70539 
L 156.706567 340.70539 
L 157.443339 344.528316 
L 158.18011 336.882465 
L 158.916882 336.882465 
L 159.653654 333.059539 
L 161.127197 333.059539 
L 162.600741 340.70539 
L 163.337512 340.70539 
L 164.074284 344.528316 
L 164.811056 344.528316 
L 165.547827 340.70539 
L 166.284599 325.413688 
L 167.021371 333.059539 
L 168.494914 302.476136 
L 169.231686 302.476136 
L 170.705229 294.830285 
L 171.442001 283.361508 
L 172.178773 287.184434 
L 175.12586 317.767838 
L 175.862631 310.121987 
L 176.599403 310.121987 
L 177.336175 317.767838 
L 178.072946 317.767838 
L 180.283261 306.299061 
L 181.020033 287.184434 
L 181.756805 306.299061 
L 182.493577 291.007359 
L 183.230348 279.538583 
L 184.703892 302.476136 
L 185.440663 298.65321 
L 186.177435 279.538583 
L 186.914207 287.184434 
L 187.650979 283.361508 
L 189.124522 291.007359 
L 189.861294 275.715658 
L 190.598065 271.892732 
L 191.334837 271.892732 
L 192.071609 287.184434 
L 192.80838 291.007359 
L 193.545152 291.007359 
L 194.281924 302.476136 
L 195.018696 306.299061 
L 195.755467 298.65321 
L 196.492239 294.830285 
L 197.229011 298.65321 
L 197.965782 310.121987 
L 198.702554 302.476136 
L 199.439326 287.184434 
L 200.176097 268.069807 
L 200.912869 287.184434 
L 201.649641 291.007359 
L 202.386413 298.65321 
L 203.123184 302.476136 
L 204.596728 271.892732 
L 205.333499 279.538583 
L 206.070271 291.007359 
L 206.807043 298.65321 
L 207.543815 283.361508 
L 209.017358 306.299061 
L 210.490901 313.944912 
L 211.227673 275.715658 
L 211.964445 306.299061 
L 212.701216 302.476136 
L 213.437988 302.476136 
L 214.17476 291.007359 
L 214.911532 275.715658 
L 215.648303 291.007359 
L 217.121847 306.299061 
L 217.858618 302.476136 
L 219.332162 302.476136 
L 220.068933 313.944912 
L 220.805705 313.944912 
L 221.542477 298.65321 
L 223.01602 291.007359 
L 223.752792 306.299061 
L 224.489564 302.476136 
L 225.226335 283.361508 
L 225.963107 256.60103 
L 226.699879 279.538583 
L 227.436651 298.65321 
L 228.173422 298.65321 
L 228.910194 310.121987 
L 229.646966 313.944912 
L 230.383737 329.236614 
L 231.857281 321.590763 
L 232.594052 321.590763 
L 233.330824 302.476136 
L 234.067596 298.65321 
L 234.804368 313.944912 
L 235.541139 317.767838 
L 237.014683 310.121987 
L 237.751454 313.944912 
L 238.488226 306.299061 
L 239.961769 313.944912 
L 240.698541 306.299061 
L 241.435313 268.069807 
L 242.172085 302.476136 
L 242.908856 313.944912 
L 243.645628 317.767838 
L 244.3824 333.059539 
L 248.066258 333.059539 
L 248.80303 344.528316 
L 249.539802 344.528316 
L 250.276573 340.70539 
L 251.013345 344.528316 
L 251.750117 340.70539 
L 252.486888 340.70539 
L 253.960432 348.351241 
L 255.433975 340.70539 
L 256.170747 333.059539 
L 257.64429 340.70539 
L 258.381062 336.882465 
L 259.117834 336.882465 
L 259.854605 340.70539 
L 260.591377 333.059539 
L 261.328149 317.767838 
L 262.064921 313.944912 
L 262.801692 317.767838 
L 263.538464 313.944912 
L 264.275236 298.65321 
L 265.012007 310.121987 
L 265.748779 310.121987 
L 266.485551 317.767838 
L 267.222323 321.590763 
L 267.959094 321.590763 
L 268.695866 317.767838 
L 269.432638 310.121987 
L 270.169409 291.007359 
L 270.906181 310.121987 
L 271.642953 302.476136 
L 272.379724 325.413688 
L 273.116496 333.059539 
L 274.59004 340.70539 
L 275.326811 340.70539 
L 276.800355 348.351241 
L 277.537126 348.351241 
L 279.01067 340.70539 
L 279.747442 348.351241 
L 280.484213 348.351241 
L 281.957757 340.70539 
L 283.4313 348.351241 
L 284.168072 348.351241 
L 284.904843 336.882465 
L 285.641615 348.351241 
L 286.378387 352.174167 
L 287.115159 348.351241 
L 287.85193 348.351241 
L 288.588702 352.174167 
L 289.325474 344.528316 
L 290.062245 344.528316 
L 290.799017 352.174167 
L 291.535789 348.351241 
L 293.009332 348.351241 
L 293.746104 352.174167 
L 294.482876 348.351241 
L 295.219647 352.174167 
L 298.903506 352.174167 
L 299.640278 348.351241 
L 300.377049 352.174167 
L 301.850593 344.528316 
L 302.587364 344.528316 
L 303.324136 352.174167 
L 304.060908 348.351241 
L 305.534451 348.351241 
L 306.271223 344.528316 
L 307.007995 348.351241 
L 307.744766 340.70539 
L 309.21831 340.70539 
L 310.691853 325.413688 
L 311.428625 329.236614 
L 312.165396 329.236614 
L 312.902168 317.767838 
L 313.63894 313.944912 
L 314.375712 302.476136 
L 315.849255 325.413688 
L 316.586027 329.236614 
L 317.322798 321.590763 
L 318.05957 336.882465 
L 318.796342 344.528316 
L 320.269885 336.882465 
L 321.006657 302.476136 
L 321.743429 317.767838 
L 322.4802 298.65321 
L 323.216972 298.65321 
L 323.953744 310.121987 
L 324.690515 294.830285 
L 325.427287 291.007359 
L 326.164059 298.65321 
L 326.900831 294.830285 
L 327.637602 310.121987 
L 328.374374 298.65321 
L 329.111146 302.476136 
L 329.847917 287.184434 
L 330.584689 287.184434 
L 331.321461 298.65321 
L 332.058232 306.299061 
L 332.795004 294.830285 
L 333.531776 302.476136 
L 334.268548 302.476136 
L 335.005319 294.830285 
L 335.742091 260.423956 
L 336.478863 287.184434 
L 337.215634 294.830285 
L 337.952406 313.944912 
L 338.689178 306.299061 
L 339.42595 306.299061 
L 340.162721 313.944912 
L 340.899493 313.944912 
L 342.373036 275.715658 
L 343.109808 271.892732 
L 344.583351 294.830285 
L 346.056895 310.121987 
L 346.793667 310.121987 
L 347.530438 298.65321 
L 348.26721 310.121987 
L 349.003982 317.767838 
L 350.477525 325.413688 
L 351.214297 291.007359 
L 351.951068 298.65321 
L 352.68784 310.121987 
L 353.424612 313.944912 
L 354.161384 302.476136 
L 354.898155 306.299061 
L 355.634927 302.476136 
L 356.371699 287.184434 
L 357.10847 287.184434 
L 358.582014 317.767838 
L 359.318786 310.121987 
L 360.055557 306.299061 
L 360.792329 298.65321 
L 362.265872 298.65321 
L 363.002644 287.184434 
L 363.739416 294.830285 
L 364.476187 275.715658 
L 365.212959 279.538583 
L 365.949731 229.840552 
L 366.686503 268.069807 
L 367.423274 291.007359 
L 368.160046 271.892732 
L 368.896818 279.538583 
L 369.633589 291.007359 
L 370.370361 298.65321 
L 371.107133 291.007359 
L 372.580676 298.65321 
L 373.317448 283.361508 
L 374.05422 271.892732 
L 374.790991 291.007359 
L 375.527763 287.184434 
L 376.264535 268.069807 
L 377.001306 271.892732 
L 378.47485 310.121987 
L 379.948393 317.767838 
L 380.685165 313.944912 
L 381.421937 264.246881 
L 382.158708 275.715658 
L 382.89548 279.538583 
L 384.369023 279.538583 
L 385.105795 275.715658 
L 385.842567 291.007359 
L 386.579339 287.184434 
L 387.31611 291.007359 
L 388.052882 306.299061 
L 388.789654 310.121987 
L 390.263197 302.476136 
L 390.999969 294.830285 
L 391.73674 298.65321 
L 392.473512 279.538583 
L 393.947056 279.538583 
L 394.683827 260.423956 
L 395.420599 264.246881 
L 396.157371 248.955179 
L 396.894142 279.538583 
L 398.367686 302.476136 
L 399.104458 298.65321 
L 399.841229 298.65321 
L 400.578001 283.361508 
L 401.314773 294.830285 
L 402.051544 298.65321 
L 403.525088 260.423956 
L 404.261859 252.778105 
L 404.998631 268.069807 
L 406.472175 291.007359 
L 407.208946 298.65321 
L 407.945718 302.476136 
L 408.68249 298.65321 
L 410.156033 313.944912 
L 410.892805 298.65321 
L 411.629576 268.069807 
L 412.366348 287.184434 
L 413.10312 287.184434 
L 413.839892 291.007359 
L 414.576663 279.538583 
L 415.313435 260.423956 
L 416.050207 264.246881 
L 416.786978 275.715658 
L 417.52375 291.007359 
L 418.260522 298.65321 
L 418.997294 287.184434 
L 419.734065 283.361508 
L 420.470837 298.65321 
L 421.207609 298.65321 
L 421.94438 291.007359 
L 423.417924 291.007359 
L 424.154695 287.184434 
L 424.891467 291.007359 
L 425.628239 302.476136 
L 426.365011 268.069807 
L 427.101782 283.361508 
L 427.838554 271.892732 
L 428.575326 287.184434 
L 429.312097 294.830285 
L 431.522412 306.299061 
L 432.259184 306.299061 
L 432.995956 291.007359 
L 434.469499 306.299061 
L 435.206271 294.830285 
L 435.943043 294.830285 
L 436.679814 298.65321 
L 437.416586 283.361508 
L 438.153358 283.361508 
L 438.89013 287.184434 
L 439.626901 287.184434 
L 440.363673 275.715658 
L 441.100445 287.184434 
L 441.837216 268.069807 
L 442.573988 294.830285 
L 443.31076 298.65321 
L 444.047531 291.007359 
L 444.784303 291.007359 
L 445.521075 283.361508 
L 446.257847 291.007359 
L 446.994618 302.476136 
L 447.73139 302.476136 
L 448.468162 310.121987 
L 449.204933 313.944912 
L 450.678477 291.007359 
L 451.415248 306.299061 
L 452.15202 317.767838 
L 452.888792 325.413688 
L 453.625564 313.944912 
L 455.099107 298.65321 
L 455.835879 294.830285 
L 456.57265 275.715658 
L 457.309422 317.767838 
L 458.046194 317.767838 
L 458.782966 302.476136 
L 459.519737 306.299061 
L 460.256509 291.007359 
L 460.993281 298.65321 
L 461.730052 302.476136 
L 462.466824 294.830285 
L 463.203596 298.65321 
L 463.940367 298.65321 
L 464.677139 279.538583 
L 465.413911 275.715658 
L 466.150683 275.715658 
L 466.887454 271.892732 
L 467.624226 279.538583 
L 468.360998 294.830285 
L 469.097769 302.476136 
L 469.834541 294.830285 
L 470.571313 283.361508 
L 471.308084 279.538583 
L 472.044856 229.840552 
L 472.781628 287.184434 
L 473.5184 302.476136 
L 474.255171 291.007359 
L 474.991943 283.361508 
L 476.465486 283.361508 
L 477.202258 275.715658 
L 477.93903 279.538583 
L 478.675802 291.007359 
L 479.412573 306.299061 
L 480.149345 306.299061 
L 480.886117 310.121987 
L 481.622888 306.299061 
L 482.35966 313.944912 
L 483.096432 313.944912 
L 484.569975 283.361508 
L 485.306747 298.65321 
L 486.043519 310.121987 
L 486.78029 291.007359 
L 487.517062 306.299061 
L 488.253834 298.65321 
L 488.990605 306.299061 
L 489.727377 302.476136 
L 490.464149 310.121987 
L 491.20092 321.590763 
L 491.937692 317.767838 
L 492.674464 321.590763 
L 494.148007 306.299061 
L 494.884779 306.299061 
L 495.621551 302.476136 
L 496.358322 302.476136 
L 497.095094 313.944912 
L 497.831866 317.767838 
L 498.568638 317.767838 
L 499.305409 321.590763 
L 500.042181 321.590763 
L 500.778953 310.121987 
L 501.515724 310.121987 
L 502.252496 279.538583 
L 502.989268 287.184434 
L 503.726039 291.007359 
L 504.462811 275.715658 
L 505.199583 283.361508 
L 507.409898 237.486403 
L 508.14667 256.60103 
L 508.883441 287.184434 
L 509.620213 279.538583 
L 509.620213 279.538583 
" style="fill:none;stroke:#d62728;stroke-linecap:square;stroke-width:1.5;"/>
   </g>
   <g id="patch_3">
    <path d="M 83.472344 352.174167 
L 83.472344 35.0625 
" style="fill:none;stroke:#000000;stroke-linecap:square;stroke-linejoin:miter;stroke-width:0.8;"/>
   </g>
   <g id="patch_4">
    <path d="M 529.912969 352.174167 
L 529.912969 35.0625 
" style="fill:none;stroke:#000000;stroke-linecap:square;stroke-linejoin:miter;stroke-width:0.8;"/>
   </g>
   <g id="patch_5">
    <path d="M 83.472344 352.174167 
L 529.912969 352.174167 
" style="fill:none;stroke:#000000;stroke-linecap:square;stroke-linejoin:miter;stroke-width:0.8;"/>
   </g>
   <g id="patch_6">
    <path d="M 83.472344 35.0625 
L 529.912969 35.0625 
" style="fill:none;stroke:#000000;stroke-linecap:square;stroke-linejoin:miter;stroke-width:0.8;"/>
   </g>
   <g id="legend_1">
    <g id="patch_7">
     <path d="M 554.235 96.775 
L 625.430312 96.775 
Q 627.430312 96.775 627.430312 94.775 
L 627.430312 37.0625 
Q 627.430312 35.0625 625.430312 35.0625 
L 554.235 35.0625 
Q 552.235 35.0625 552.235 37.0625 
L 552.235 94.775 
Q 552.235 96.775 554.235 96.775 
z
" style="fill:#ffffff;opacity:0.8;stroke:#cccccc;stroke-linejoin:miter;"/>
    </g>
    <g id="line2d_20">
     <path d="M 556.235 43.160937 
L 576.235 43.160937 
" style="fill:none;stroke:#1f77b4;stroke-linecap:square;stroke-width:1.5;"/>
    </g>
    <g id="line2d_21"/>
    <g id="text_17">
     <!-- cubic-pi -->
     <defs>
      <path d="M 4.890625 31.390625 
L 31.203125 31.390625 
L 31.203125 23.390625 
L 4.890625 23.390625 
z
" id="DejaVuSans-45"/>
     </defs>
     <g transform="translate(584.235 46.660937)scale(0.1 -0.1)">
      <use xlink:href="#DejaVuSans-99"/>
      <use x="54.980469" xlink:href="#DejaVuSans-117"/>
      <use x="118.359375" xlink:href="#DejaVuSans-98"/>
      <use x="181.835938" xlink:href="#DejaVuSans-105"/>
      <use x="209.619141" xlink:href="#DejaVuSans-99"/>
      <use x="264.599609" xlink:href="#DejaVuSans-45"/>
      <use x="300.683594" xlink:href="#DejaVuSans-112"/>
      <use x="364.160156" xlink:href="#DejaVuSans-105"/>
     </g>
    </g>
    <g id="line2d_22">
     <path d="M 556.235 57.839063 
L 576.235 57.839063 
" style="fill:none;stroke:#ff7f0e;stroke-linecap:square;stroke-width:1.5;"/>
    </g>
    <g id="line2d_23"/>
    <g id="text_18">
     <!-- bbr-pi -->
     <g transform="translate(584.235 61.339063)scale(0.1 -0.1)">
      <use xlink:href="#DejaVuSans-98"/>
      <use x="63.476562" xlink:href="#DejaVuSans-98"/>
      <use x="126.953125" xlink:href="#DejaVuSans-114"/>
      <use x="167.972656" xlink:href="#DejaVuSans-45"/>
      <use x="204.056641" xlink:href="#DejaVuSans-112"/>
      <use x="267.533203" xlink:href="#DejaVuSans-105"/>
     </g>
    </g>
    <g id="line2d_24">
     <path d="M 556.235 72.517187 
L 576.235 72.517187 
" style="fill:none;stroke:#2ca02c;stroke-linecap:square;stroke-width:1.5;"/>
    </g>
    <g id="line2d_25"/>
    <g id="text_19">
     <!-- bbr-pi -->
     <g transform="translate(584.235 76.017187)scale(0.1 -0.1)">
      <use xlink:href="#DejaVuSans-98"/>
      <use x="63.476562" xlink:href="#DejaVuSans-98"/>
      <use x="126.953125" xlink:href="#DejaVuSans-114"/>
      <use x="167.972656" xlink:href="#DejaVuSans-45"/>
      <use x="204.056641" xlink:href="#DejaVuSans-112"/>
      <use x="267.533203" xlink:href="#DejaVuSans-105"/>
     </g>
    </g>
    <g id="line2d_26">
     <path d="M 556.235 87.195312 
L 576.235 87.195312 
" style="fill:none;stroke:#d62728;stroke-linecap:square;stroke-width:1.5;"/>
    </g>
    <g id="line2d_27"/>
    <g id="text_20">
     <!-- cubic-pi -->
     <g transform="translate(584.235 90.695312)scale(0.1 -0.1)">
      <use xlink:href="#DejaVuSans-99"/>
      <use x="54.980469" xlink:href="#DejaVuSans-117"/>
      <use x="118.359375" xlink:href="#DejaVuSans-98"/>
      <use x="181.835938" xlink:href="#DejaVuSans-105"/>
      <use x="209.619141" xlink:href="#DejaVuSans-99"/>
      <use x="264.599609" xlink:href="#DejaVuSans-45"/>
      <use x="300.683594" xlink:href="#DejaVuSans-112"/>
      <use x="364.160156" xlink:href="#DejaVuSans-105"/>
     </g>
    </g>
   </g>
  </g>
  <g id="text_21">
   <!-- result throughput -->
   <defs>
    <path d="M 9.421875 75.984375 
L 18.40625 75.984375 
L 18.40625 0 
L 9.421875 0 
z
" id="DejaVuSans-108"/>
   </defs>
   <g transform="translate(289.320938 17.038125)scale(0.12 -0.12)">
    <use xlink:href="#DejaVuSans-114"/>
    <use x="41.082031" xlink:href="#DejaVuSans-101"/>
    <use x="102.605469" xlink:href="#DejaVuSans-115"/>
    <use x="154.705078" xlink:href="#DejaVuSans-117"/>
    <use x="218.083984" xlink:href="#DejaVuSans-108"/>
    <use x="245.867188" xlink:href="#DejaVuSans-116"/>
    <use x="285.076172" xlink:href="#DejaVuSans-32"/>
    <use x="316.863281" xlink:href="#DejaVuSans-116"/>
    <use x="356.072266" xlink:href="#DejaVuSans-104"/>
    <use x="419.451172" xlink:href="#DejaVuSans-114"/>
    <use x="460.533203" xlink:href="#DejaVuSans-111"/>
    <use x="521.714844" xlink:href="#DejaVuSans-117"/>
    <use x="585.09375" xlink:href="#DejaVuSans-103"/>
    <use x="648.570312" xlink:href="#DejaVuSans-104"/>
    <use x="711.949219" xlink:href="#DejaVuSans-112"/>
    <use x="775.425781" xlink:href="#DejaVuSans-117"/>
    <use x="838.804688" xlink:href="#DejaVuSans-116"/>
   </g>
  </g>
 </g>
 <defs>
  <clipPath id="pc9965fa22b">
   <rect height="317.111667" width="446.440625" x="83.472344" y="35.0625"/>
  </clipPath>
 </defs>
</svg>
