<?xml version="1.0" encoding="utf-8" standalone="no"?>
<!DOCTYPE svg PUBLIC "-//W3C//DTD SVG 1.1//EN"
  "http://www.w3.org/Graphics/SVG/1.1/DTD/svg11.dtd">
<!-- Created with matplotlib (https://matplotlib.org/) -->
<svg height="345.6pt" version="1.1" viewBox="0 0 460.8 345.6" width="460.8pt" xmlns="http://www.w3.org/2000/svg" xmlns:xlink="http://www.w3.org/1999/xlink">
 <defs>
  <style type="text/css">
*{stroke-linecap:butt;stroke-linejoin:round;}
  </style>
 </defs>
 <g id="figure_1">
  <g id="patch_1">
   <path d="M 0 345.6 
L 460.8 345.6 
L 460.8 0 
L 0 0 
z
" style="fill:#ffffff;"/>
  </g>
  <g id="axes_1">
   <g id="patch_2">
    <path d="M 81.344 70.4624 
L 294.624 70.4624 
L 294.624 43.07431 
L 81.344 43.07431 
z
" style="fill:#ffffff;"/>
   </g>
   <g id="matplotlib.axis_1">
    <g id="xtick_1">
     <g id="line2d_1">
      <defs>
       <path d="M 0 0 
L 0 3.5 
" id="m701ae6c4b2" style="stroke:#000000;stroke-width:0.8;"/>
      </defs>
      <g>
       <use style="stroke:#000000;stroke-width:0.8;" x="91.038545" xlink:href="#m701ae6c4b2" y="70.4624"/>
      </g>
     </g>
    </g>
    <g id="xtick_2">
     <g id="line2d_2">
      <g>
       <use style="stroke:#000000;stroke-width:0.8;" x="124.154786" xlink:href="#m701ae6c4b2" y="70.4624"/>
      </g>
     </g>
    </g>
    <g id="xtick_3">
     <g id="line2d_3">
      <g>
       <use style="stroke:#000000;stroke-width:0.8;" x="157.271027" xlink:href="#m701ae6c4b2" y="70.4624"/>
      </g>
     </g>
    </g>
    <g id="xtick_4">
     <g id="line2d_4">
      <g>
       <use style="stroke:#000000;stroke-width:0.8;" x="190.387267" xlink:href="#m701ae6c4b2" y="70.4624"/>
      </g>
     </g>
    </g>
    <g id="xtick_5">
     <g id="line2d_5">
      <g>
       <use style="stroke:#000000;stroke-width:0.8;" x="223.503508" xlink:href="#m701ae6c4b2" y="70.4624"/>
      </g>
     </g>
    </g>
    <g id="xtick_6">
     <g id="line2d_6">
      <g>
       <use style="stroke:#000000;stroke-width:0.8;" x="256.619748" xlink:href="#m701ae6c4b2" y="70.4624"/>
      </g>
     </g>
    </g>
    <g id="xtick_7">
     <g id="line2d_7">
      <g>
       <use style="stroke:#000000;stroke-width:0.8;" x="289.735989" xlink:href="#m701ae6c4b2" y="70.4624"/>
      </g>
     </g>
    </g>
   </g>
   <g id="matplotlib.axis_2">
    <g id="ytick_1">
     <g id="line2d_8">
      <defs>
       <path d="M 0 0 
L -3.5 0 
" id="m1c66d94601" style="stroke:#000000;stroke-width:0.8;"/>
      </defs>
      <g>
       <use style="stroke:#000000;stroke-width:0.8;" x="81.344" xlink:href="#m1c66d94601" y="70.4624"/>
      </g>
     </g>
     <g id="text_1">
      <!-- 0 -->
      <defs>
       <path d="M 31.78125 66.40625 
Q 24.171875 66.40625 20.328125 58.90625 
Q 16.5 51.421875 16.5 36.375 
Q 16.5 21.390625 20.328125 13.890625 
Q 24.171875 6.390625 31.78125 6.390625 
Q 39.453125 6.390625 43.28125 13.890625 
Q 47.125 21.390625 47.125 36.375 
Q 47.125 51.421875 43.28125 58.90625 
Q 39.453125 66.40625 31.78125 66.40625 
z
M 31.78125 74.21875 
Q 44.046875 74.21875 50.515625 64.515625 
Q 56.984375 54.828125 56.984375 36.375 
Q 56.984375 17.96875 50.515625 8.265625 
Q 44.046875 -1.421875 31.78125 -1.421875 
Q 19.53125 -1.421875 13.0625 8.265625 
Q 6.59375 17.96875 6.59375 36.375 
Q 6.59375 54.828125 13.0625 64.515625 
Q 19.53125 74.21875 31.78125 74.21875 
z
" id="DejaVuSans-48"/>
      </defs>
      <g transform="translate(67.9815 74.261619)scale(0.1 -0.1)">
       <use xlink:href="#DejaVuSans-48"/>
      </g>
     </g>
    </g>
    <g id="ytick_2">
     <g id="line2d_9">
      <g>
       <use style="stroke:#000000;stroke-width:0.8;" x="81.344" xlink:href="#m1c66d94601" y="53.792838"/>
      </g>
     </g>
     <g id="text_2">
      <!-- 50 -->
      <defs>
       <path d="M 10.796875 72.90625 
L 49.515625 72.90625 
L 49.515625 64.59375 
L 19.828125 64.59375 
L 19.828125 46.734375 
Q 21.96875 47.46875 24.109375 47.828125 
Q 26.265625 48.1875 28.421875 48.1875 
Q 40.625 48.1875 47.75 41.5 
Q 54.890625 34.8125 54.890625 23.390625 
Q 54.890625 11.625 47.5625 5.09375 
Q 40.234375 -1.421875 26.90625 -1.421875 
Q 22.3125 -1.421875 17.546875 -0.640625 
Q 12.796875 0.140625 7.71875 1.703125 
L 7.71875 11.625 
Q 12.109375 9.234375 16.796875 8.0625 
Q 21.484375 6.890625 26.703125 6.890625 
Q 35.15625 6.890625 40.078125 11.328125 
Q 45.015625 15.765625 45.015625 23.390625 
Q 45.015625 31 40.078125 35.4375 
Q 35.15625 39.890625 26.703125 39.890625 
Q 22.75 39.890625 18.8125 39.015625 
Q 14.890625 38.140625 10.796875 36.28125 
z
" id="DejaVuSans-53"/>
      </defs>
      <g transform="translate(61.619 57.592057)scale(0.1 -0.1)">
       <use xlink:href="#DejaVuSans-53"/>
       <use x="63.623047" xlink:href="#DejaVuSans-48"/>
      </g>
     </g>
    </g>
    <g id="text_3">
     <!-- throughput -->
     <defs>
      <path d="M 18.3125 70.21875 
L 18.3125 54.6875 
L 36.8125 54.6875 
L 36.8125 47.703125 
L 18.3125 47.703125 
L 18.3125 18.015625 
Q 18.3125 11.328125 20.140625 9.421875 
Q 21.96875 7.515625 27.59375 7.515625 
L 36.8125 7.515625 
L 36.8125 0 
L 27.59375 0 
Q 17.1875 0 13.234375 3.875 
Q 9.28125 7.765625 9.28125 18.015625 
L 9.28125 47.703125 
L 2.6875 47.703125 
L 2.6875 54.6875 
L 9.28125 54.6875 
L 9.28125 70.21875 
z
" id="DejaVuSans-116"/>
      <path d="M 54.890625 33.015625 
L 54.890625 0 
L 45.90625 0 
L 45.90625 32.71875 
Q 45.90625 40.484375 42.875 44.328125 
Q 39.84375 48.1875 33.796875 48.1875 
Q 26.515625 48.1875 22.3125 43.546875 
Q 18.109375 38.921875 18.109375 30.90625 
L 18.109375 0 
L 9.078125 0 
L 9.078125 75.984375 
L 18.109375 75.984375 
L 18.109375 46.1875 
Q 21.34375 51.125 25.703125 53.5625 
Q 30.078125 56 35.796875 56 
Q 45.21875 56 50.046875 50.171875 
Q 54.890625 44.34375 54.890625 33.015625 
z
" id="DejaVuSans-104"/>
      <path d="M 41.109375 46.296875 
Q 39.59375 47.171875 37.8125 47.578125 
Q 36.03125 48 33.890625 48 
Q 26.265625 48 22.1875 43.046875 
Q 18.109375 38.09375 18.109375 28.8125 
L 18.109375 0 
L 9.078125 0 
L 9.078125 54.6875 
L 18.109375 54.6875 
L 18.109375 46.1875 
Q 20.953125 51.171875 25.484375 53.578125 
Q 30.03125 56 36.53125 56 
Q 37.453125 56 38.578125 55.875 
Q 39.703125 55.765625 41.0625 55.515625 
z
" id="DejaVuSans-114"/>
      <path d="M 30.609375 48.390625 
Q 23.390625 48.390625 19.1875 42.75 
Q 14.984375 37.109375 14.984375 27.296875 
Q 14.984375 17.484375 19.15625 11.84375 
Q 23.34375 6.203125 30.609375 6.203125 
Q 37.796875 6.203125 41.984375 11.859375 
Q 46.1875 17.53125 46.1875 27.296875 
Q 46.1875 37.015625 41.984375 42.703125 
Q 37.796875 48.390625 30.609375 48.390625 
z
M 30.609375 56 
Q 42.328125 56 49.015625 48.375 
Q 55.71875 40.765625 55.71875 27.296875 
Q 55.71875 13.875 49.015625 6.21875 
Q 42.328125 -1.421875 30.609375 -1.421875 
Q 18.84375 -1.421875 12.171875 6.21875 
Q 5.515625 13.875 5.515625 27.296875 
Q 5.515625 40.765625 12.171875 48.375 
Q 18.84375 56 30.609375 56 
z
" id="DejaVuSans-111"/>
      <path d="M 8.5 21.578125 
L 8.5 54.6875 
L 17.484375 54.6875 
L 17.484375 21.921875 
Q 17.484375 14.15625 20.5 10.265625 
Q 23.53125 6.390625 29.59375 6.390625 
Q 36.859375 6.390625 41.078125 11.03125 
Q 45.3125 15.671875 45.3125 23.6875 
L 45.3125 54.6875 
L 54.296875 54.6875 
L 54.296875 0 
L 45.3125 0 
L 45.3125 8.40625 
Q 42.046875 3.421875 37.71875 1 
Q 33.40625 -1.421875 27.6875 -1.421875 
Q 18.265625 -1.421875 13.375 4.4375 
Q 8.5 10.296875 8.5 21.578125 
z
M 31.109375 56 
z
" id="DejaVuSans-117"/>
      <path d="M 45.40625 27.984375 
Q 45.40625 37.75 41.375 43.109375 
Q 37.359375 48.484375 30.078125 48.484375 
Q 22.859375 48.484375 18.828125 43.109375 
Q 14.796875 37.75 14.796875 27.984375 
Q 14.796875 18.265625 18.828125 12.890625 
Q 22.859375 7.515625 30.078125 7.515625 
Q 37.359375 7.515625 41.375 12.890625 
Q 45.40625 18.265625 45.40625 27.984375 
z
M 54.390625 6.78125 
Q 54.390625 -7.171875 48.1875 -13.984375 
Q 42 -20.796875 29.203125 -20.796875 
Q 24.46875 -20.796875 20.265625 -20.09375 
Q 16.0625 -19.390625 12.109375 -17.921875 
L 12.109375 -9.1875 
Q 16.0625 -11.328125 19.921875 -12.34375 
Q 23.78125 -13.375 27.78125 -13.375 
Q 36.625 -13.375 41.015625 -8.765625 
Q 45.40625 -4.15625 45.40625 5.171875 
L 45.40625 9.625 
Q 42.625 4.78125 38.28125 2.390625 
Q 33.9375 0 27.875 0 
Q 17.828125 0 11.671875 7.65625 
Q 5.515625 15.328125 5.515625 27.984375 
Q 5.515625 40.671875 11.671875 48.328125 
Q 17.828125 56 27.875 56 
Q 33.9375 56 38.28125 53.609375 
Q 42.625 51.21875 45.40625 46.390625 
L 45.40625 54.6875 
L 54.390625 54.6875 
z
" id="DejaVuSans-103"/>
      <path d="M 18.109375 8.203125 
L 18.109375 -20.796875 
L 9.078125 -20.796875 
L 9.078125 54.6875 
L 18.109375 54.6875 
L 18.109375 46.390625 
Q 20.953125 51.265625 25.265625 53.625 
Q 29.59375 56 35.59375 56 
Q 45.5625 56 51.78125 48.09375 
Q 58.015625 40.1875 58.015625 27.296875 
Q 58.015625 14.40625 51.78125 6.484375 
Q 45.5625 -1.421875 35.59375 -1.421875 
Q 29.59375 -1.421875 25.265625 0.953125 
Q 20.953125 3.328125 18.109375 8.203125 
z
M 48.6875 27.296875 
Q 48.6875 37.203125 44.609375 42.84375 
Q 40.53125 48.484375 33.40625 48.484375 
Q 26.265625 48.484375 22.1875 42.84375 
Q 18.109375 37.203125 18.109375 27.296875 
Q 18.109375 17.390625 22.1875 11.75 
Q 26.265625 6.109375 33.40625 6.109375 
Q 40.53125 6.109375 44.609375 11.75 
Q 48.6875 17.390625 48.6875 27.296875 
z
" id="DejaVuSans-112"/>
     </defs>
     <g transform="translate(44.3415 84.825386)rotate(-90)scale(0.1 -0.1)">
      <use xlink:href="#DejaVuSans-116"/>
      <use x="39.208984" xlink:href="#DejaVuSans-104"/>
      <use x="102.587891" xlink:href="#DejaVuSans-114"/>
      <use x="143.669922" xlink:href="#DejaVuSans-111"/>
      <use x="204.851562" xlink:href="#DejaVuSans-117"/>
      <use x="268.230469" xlink:href="#DejaVuSans-103"/>
      <use x="331.707031" xlink:href="#DejaVuSans-104"/>
      <use x="395.085938" xlink:href="#DejaVuSans-112"/>
      <use x="458.5625" xlink:href="#DejaVuSans-117"/>
      <use x="521.941406" xlink:href="#DejaVuSans-116"/>
     </g>
     <!-- (mbit / second) -->
     <defs>
      <path d="M 31 75.875 
Q 24.46875 64.65625 21.28125 53.65625 
Q 18.109375 42.671875 18.109375 31.390625 
Q 18.109375 20.125 21.3125 9.0625 
Q 24.515625 -2 31 -13.1875 
L 23.1875 -13.1875 
Q 15.875 -1.703125 12.234375 9.375 
Q 8.59375 20.453125 8.59375 31.390625 
Q 8.59375 42.28125 12.203125 53.3125 
Q 15.828125 64.359375 23.1875 75.875 
z
" id="DejaVuSans-40"/>
      <path d="M 52 44.1875 
Q 55.375 50.25 60.0625 53.125 
Q 64.75 56 71.09375 56 
Q 79.640625 56 84.28125 50.015625 
Q 88.921875 44.046875 88.921875 33.015625 
L 88.921875 0 
L 79.890625 0 
L 79.890625 32.71875 
Q 79.890625 40.578125 77.09375 44.375 
Q 74.3125 48.1875 68.609375 48.1875 
Q 61.625 48.1875 57.5625 43.546875 
Q 53.515625 38.921875 53.515625 30.90625 
L 53.515625 0 
L 44.484375 0 
L 44.484375 32.71875 
Q 44.484375 40.625 41.703125 44.40625 
Q 38.921875 48.1875 33.109375 48.1875 
Q 26.21875 48.1875 22.15625 43.53125 
Q 18.109375 38.875 18.109375 30.90625 
L 18.109375 0 
L 9.078125 0 
L 9.078125 54.6875 
L 18.109375 54.6875 
L 18.109375 46.1875 
Q 21.1875 51.21875 25.484375 53.609375 
Q 29.78125 56 35.6875 56 
Q 41.65625 56 45.828125 52.96875 
Q 50 49.953125 52 44.1875 
z
" id="DejaVuSans-109"/>
      <path d="M 48.6875 27.296875 
Q 48.6875 37.203125 44.609375 42.84375 
Q 40.53125 48.484375 33.40625 48.484375 
Q 26.265625 48.484375 22.1875 42.84375 
Q 18.109375 37.203125 18.109375 27.296875 
Q 18.109375 17.390625 22.1875 11.75 
Q 26.265625 6.109375 33.40625 6.109375 
Q 40.53125 6.109375 44.609375 11.75 
Q 48.6875 17.390625 48.6875 27.296875 
z
M 18.109375 46.390625 
Q 20.953125 51.265625 25.265625 53.625 
Q 29.59375 56 35.59375 56 
Q 45.5625 56 51.78125 48.09375 
Q 58.015625 40.1875 58.015625 27.296875 
Q 58.015625 14.40625 51.78125 6.484375 
Q 45.5625 -1.421875 35.59375 -1.421875 
Q 29.59375 -1.421875 25.265625 0.953125 
Q 20.953125 3.328125 18.109375 8.203125 
L 18.109375 0 
L 9.078125 0 
L 9.078125 75.984375 
L 18.109375 75.984375 
z
" id="DejaVuSans-98"/>
      <path d="M 9.421875 54.6875 
L 18.40625 54.6875 
L 18.40625 0 
L 9.421875 0 
z
M 9.421875 75.984375 
L 18.40625 75.984375 
L 18.40625 64.59375 
L 9.421875 64.59375 
z
" id="DejaVuSans-105"/>
      <path id="DejaVuSans-32"/>
      <path d="M 25.390625 72.90625 
L 33.6875 72.90625 
L 8.296875 -9.28125 
L 0 -9.28125 
z
" id="DejaVuSans-47"/>
      <path d="M 44.28125 53.078125 
L 44.28125 44.578125 
Q 40.484375 46.53125 36.375 47.5 
Q 32.28125 48.484375 27.875 48.484375 
Q 21.1875 48.484375 17.84375 46.4375 
Q 14.5 44.390625 14.5 40.28125 
Q 14.5 37.15625 16.890625 35.375 
Q 19.28125 33.59375 26.515625 31.984375 
L 29.59375 31.296875 
Q 39.15625 29.25 43.1875 25.515625 
Q 47.21875 21.78125 47.21875 15.09375 
Q 47.21875 7.46875 41.1875 3.015625 
Q 35.15625 -1.421875 24.609375 -1.421875 
Q 20.21875 -1.421875 15.453125 -0.5625 
Q 10.6875 0.296875 5.421875 2 
L 5.421875 11.28125 
Q 10.40625 8.6875 15.234375 7.390625 
Q 20.0625 6.109375 24.8125 6.109375 
Q 31.15625 6.109375 34.5625 8.28125 
Q 37.984375 10.453125 37.984375 14.40625 
Q 37.984375 18.0625 35.515625 20.015625 
Q 33.0625 21.96875 24.703125 23.78125 
L 21.578125 24.515625 
Q 13.234375 26.265625 9.515625 29.90625 
Q 5.8125 33.546875 5.8125 39.890625 
Q 5.8125 47.609375 11.28125 51.796875 
Q 16.75 56 26.8125 56 
Q 31.78125 56 36.171875 55.265625 
Q 40.578125 54.546875 44.28125 53.078125 
z
" id="DejaVuSans-115"/>
      <path d="M 56.203125 29.59375 
L 56.203125 25.203125 
L 14.890625 25.203125 
Q 15.484375 15.921875 20.484375 11.0625 
Q 25.484375 6.203125 34.421875 6.203125 
Q 39.59375 6.203125 44.453125 7.46875 
Q 49.3125 8.734375 54.109375 11.28125 
L 54.109375 2.78125 
Q 49.265625 0.734375 44.1875 -0.34375 
Q 39.109375 -1.421875 33.890625 -1.421875 
Q 20.796875 -1.421875 13.15625 6.1875 
Q 5.515625 13.8125 5.515625 26.8125 
Q 5.515625 40.234375 12.765625 48.109375 
Q 20.015625 56 32.328125 56 
Q 43.359375 56 49.78125 48.890625 
Q 56.203125 41.796875 56.203125 29.59375 
z
M 47.21875 32.234375 
Q 47.125 39.59375 43.09375 43.984375 
Q 39.0625 48.390625 32.421875 48.390625 
Q 24.90625 48.390625 20.390625 44.140625 
Q 15.875 39.890625 15.1875 32.171875 
z
" id="DejaVuSans-101"/>
      <path d="M 48.78125 52.59375 
L 48.78125 44.1875 
Q 44.96875 46.296875 41.140625 47.34375 
Q 37.3125 48.390625 33.40625 48.390625 
Q 24.65625 48.390625 19.8125 42.84375 
Q 14.984375 37.3125 14.984375 27.296875 
Q 14.984375 17.28125 19.8125 11.734375 
Q 24.65625 6.203125 33.40625 6.203125 
Q 37.3125 6.203125 41.140625 7.25 
Q 44.96875 8.296875 48.78125 10.40625 
L 48.78125 2.09375 
Q 45.015625 0.34375 40.984375 -0.53125 
Q 36.96875 -1.421875 32.421875 -1.421875 
Q 20.0625 -1.421875 12.78125 6.34375 
Q 5.515625 14.109375 5.515625 27.296875 
Q 5.515625 40.671875 12.859375 48.328125 
Q 20.21875 56 33.015625 56 
Q 37.15625 56 41.109375 55.140625 
Q 45.0625 54.296875 48.78125 52.59375 
z
" id="DejaVuSans-99"/>
      <path d="M 54.890625 33.015625 
L 54.890625 0 
L 45.90625 0 
L 45.90625 32.71875 
Q 45.90625 40.484375 42.875 44.328125 
Q 39.84375 48.1875 33.796875 48.1875 
Q 26.515625 48.1875 22.3125 43.546875 
Q 18.109375 38.921875 18.109375 30.90625 
L 18.109375 0 
L 9.078125 0 
L 9.078125 54.6875 
L 18.109375 54.6875 
L 18.109375 46.1875 
Q 21.34375 51.125 25.703125 53.5625 
Q 30.078125 56 35.796875 56 
Q 45.21875 56 50.046875 50.171875 
Q 54.890625 44.34375 54.890625 33.015625 
z
" id="DejaVuSans-110"/>
      <path d="M 45.40625 46.390625 
L 45.40625 75.984375 
L 54.390625 75.984375 
L 54.390625 0 
L 45.40625 0 
L 45.40625 8.203125 
Q 42.578125 3.328125 38.25 0.953125 
Q 33.9375 -1.421875 27.875 -1.421875 
Q 17.96875 -1.421875 11.734375 6.484375 
Q 5.515625 14.40625 5.515625 27.296875 
Q 5.515625 40.1875 11.734375 48.09375 
Q 17.96875 56 27.875 56 
Q 33.9375 56 38.25 53.625 
Q 42.578125 51.265625 45.40625 46.390625 
z
M 14.796875 27.296875 
Q 14.796875 17.390625 18.875 11.75 
Q 22.953125 6.109375 30.078125 6.109375 
Q 37.203125 6.109375 41.296875 11.75 
Q 45.40625 17.390625 45.40625 27.296875 
Q 45.40625 37.203125 41.296875 42.84375 
Q 37.203125 48.484375 30.078125 48.484375 
Q 22.953125 48.484375 18.875 42.84375 
Q 14.796875 37.203125 14.796875 27.296875 
z
" id="DejaVuSans-100"/>
      <path d="M 8.015625 75.875 
L 15.828125 75.875 
Q 23.140625 64.359375 26.78125 53.3125 
Q 30.421875 42.28125 30.421875 31.390625 
Q 30.421875 20.453125 26.78125 9.375 
Q 23.140625 -1.703125 15.828125 -13.1875 
L 8.015625 -13.1875 
Q 14.5 -2 17.703125 9.0625 
Q 20.90625 20.125 20.90625 31.390625 
Q 20.90625 42.671875 17.703125 53.65625 
Q 14.5 64.65625 8.015625 75.875 
z
" id="DejaVuSans-41"/>
     </defs>
     <g transform="translate(55.539313 94.75898)rotate(-90)scale(0.1 -0.1)">
      <use xlink:href="#DejaVuSans-40"/>
      <use x="39.013672" xlink:href="#DejaVuSans-109"/>
      <use x="136.425781" xlink:href="#DejaVuSans-98"/>
      <use x="199.902344" xlink:href="#DejaVuSans-105"/>
      <use x="227.685547" xlink:href="#DejaVuSans-116"/>
      <use x="266.894531" xlink:href="#DejaVuSans-32"/>
      <use x="298.681641" xlink:href="#DejaVuSans-47"/>
      <use x="332.373047" xlink:href="#DejaVuSans-32"/>
      <use x="364.160156" xlink:href="#DejaVuSans-115"/>
      <use x="416.259766" xlink:href="#DejaVuSans-101"/>
      <use x="477.783203" xlink:href="#DejaVuSans-99"/>
      <use x="532.763672" xlink:href="#DejaVuSans-111"/>
      <use x="593.945312" xlink:href="#DejaVuSans-110"/>
      <use x="657.324219" xlink:href="#DejaVuSans-100"/>
      <use x="720.800781" xlink:href="#DejaVuSans-41"/>
     </g>
    </g>
   </g>
   <g id="line2d_10">
    <path clip-path="url(#p20c8fa4f6d)" d="M 97.890296 63.794575 
L 99.546108 63.127793 
L 101.20192 62.127619 
L 102.857732 61.794228 
L 104.513544 61.794228 
L 106.169356 61.127446 
L 107.825168 60.794054 
L 109.48098 60.460663 
L 111.136792 60.127272 
L 112.792604 60.127272 
L 114.448416 59.793881 
L 116.104228 59.127098 
L 117.76004 59.127098 
L 119.415852 58.793707 
L 121.071664 58.793707 
L 122.727476 58.126924 
L 124.383288 50.792317 
L 126.0391 51.792491 
L 127.694912 53.126056 
L 129.350724 52.792665 
L 131.006536 52.792665 
L 132.662348 52.792665 
L 134.31816 52.792665 
L 135.973972 52.792665 
L 137.629784 52.792665 
L 139.285596 52.459274 
L 140.941408 52.459274 
L 142.59722 52.459274 
L 144.253032 52.459274 
L 145.908845 52.459274 
L 147.564657 52.459274 
L 149.220469 52.125882 
L 150.876281 52.125882 
L 152.532093 52.125882 
L 154.187905 52.125882 
L 155.843717 52.125882 
L 157.499529 61.127446 
L 159.155341 53.126056 
L 160.811153 53.459447 
L 162.466965 53.459447 
L 164.122777 53.459447 
L 165.778589 53.459447 
L 167.434401 53.126056 
L 169.090213 53.459447 
L 170.746025 53.459447 
L 172.401837 53.459447 
L 174.057649 53.459447 
L 175.713461 53.792838 
L 177.369273 54.12623 
L 179.025085 54.12623 
L 180.680897 54.12623 
L 182.336709 54.459621 
L 183.992521 54.459621 
L 185.648333 54.459621 
L 187.304145 54.459621 
L 188.959957 54.793012 
L 190.615769 55.126403 
L 192.271581 61.460837 
L 193.927393 54.793012 
L 195.583205 54.793012 
L 197.239017 55.126403 
L 198.894829 55.126403 
L 200.550641 55.126403 
L 202.206454 55.126403 
L 203.862266 55.126403 
L 205.518078 55.126403 
L 207.17389 55.126403 
L 208.829702 55.126403 
L 210.485514 55.126403 
L 212.141326 55.126403 
L 213.797138 55.126403 
L 215.45295 55.126403 
L 217.108762 55.459795 
L 218.764574 55.126403 
L 220.420386 55.126403 
L 222.076198 55.126403 
L 223.73201 55.126403 
L 225.387822 62.127619 
L 227.043634 56.126577 
L 228.699446 56.126577 
L 230.355258 56.126577 
L 232.01107 56.126577 
L 233.666882 56.459968 
L 235.322694 56.126577 
L 236.978506 56.459968 
L 238.634318 56.126577 
L 240.29013 56.459968 
L 241.945942 56.459968 
L 243.601754 56.459968 
L 245.257566 56.459968 
L 246.913378 56.79336 
L 248.56919 56.79336 
L 250.225002 56.79336 
L 251.880814 56.79336 
L 253.536626 56.79336 
L 255.192438 56.79336 
L 256.848251 57.126751 
L 258.504063 57.126751 
L 260.159875 63.127793 
L 261.815687 56.79336 
L 263.471499 56.79336 
L 265.127311 56.79336 
L 266.783123 56.79336 
L 268.438935 56.79336 
L 270.094747 56.79336 
L 271.750559 56.79336 
L 273.406371 56.79336 
L 275.062183 56.79336 
" style="fill:none;stroke:#1f77b4;stroke-linecap:square;stroke-width:1.5;"/>
   </g>
   <g id="line2d_11">
    <path clip-path="url(#p20c8fa4f6d)" d="M 91.104778 50.125535 
L 92.76059 44.124493 
L 94.416402 44.124493 
L 96.072214 44.124493 
L 97.728026 49.792144 
L 99.383838 51.792491 
L 101.03965 52.459274 
L 102.695462 52.792665 
L 104.351274 53.126056 
L 106.007086 53.459447 
L 107.662898 54.12623 
L 109.31871 54.12623 
L 110.974522 54.793012 
L 112.630334 54.793012 
L 114.286146 55.126403 
L 115.941958 55.459795 
L 117.59777 55.793186 
L 119.253582 56.126577 
L 120.909394 56.126577 
L 122.565207 56.459968 
L 124.221019 65.12814 
L 125.876831 62.794402 
L 127.532643 61.794228 
L 129.188455 61.794228 
L 130.844267 61.794228 
L 132.500079 61.794228 
L 134.155891 62.127619 
L 135.811703 62.127619 
L 137.467515 62.127619 
L 139.123327 62.46101 
L 140.779139 62.127619 
L 142.434951 62.46101 
L 144.090763 62.46101 
L 145.746575 62.127619 
L 147.402387 62.46101 
L 149.058199 62.46101 
L 150.714011 62.794402 
L 152.369823 62.794402 
L 154.025635 62.794402 
L 155.681447 62.794402 
L 157.337259 65.12814 
L 158.993071 62.46101 
L 160.648883 61.460837 
L 162.304695 61.460837 
L 163.960507 61.460837 
L 165.616319 61.460837 
L 167.272131 61.460837 
L 168.927943 61.460837 
L 170.583755 61.460837 
L 172.239567 61.460837 
L 173.895379 61.127446 
L 175.551191 61.127446 
L 177.207003 60.794054 
L 178.862816 60.460663 
L 180.518628 60.460663 
L 182.17444 60.460663 
L 183.830252 60.460663 
L 185.486064 60.460663 
L 187.141876 60.127272 
L 188.797688 60.127272 
L 190.4535 60.127272 
L 192.109312 64.794749 
L 193.765124 60.127272 
L 195.420936 60.127272 
L 197.076748 59.793881 
L 198.73256 59.793881 
L 200.388372 59.793881 
L 202.044184 59.460489 
L 203.699996 59.460489 
L 205.355808 59.793881 
L 207.01162 59.793881 
L 208.667432 59.460489 
L 210.323244 59.793881 
L 211.979056 59.460489 
L 213.634868 59.793881 
L 215.29068 59.460489 
L 216.946492 59.793881 
L 218.602304 59.460489 
L 220.258116 59.793881 
L 221.913928 59.793881 
L 223.56974 59.793881 
L 225.225552 62.46101 
L 226.881364 60.460663 
L 228.537176 58.793707 
L 230.192988 58.793707 
L 231.8488 58.793707 
L 233.504613 58.460316 
L 235.160425 58.460316 
L 236.816237 58.460316 
L 238.472049 58.460316 
L 240.127861 58.460316 
L 241.783673 58.460316 
L 243.439485 58.126924 
L 245.095297 58.460316 
L 246.751109 58.126924 
L 248.406921 58.126924 
L 250.062733 57.793533 
L 251.718545 58.126924 
L 253.374357 57.793533 
L 255.030169 57.793533 
L 256.685981 57.793533 
L 258.341793 57.793533 
L 259.997605 63.461184 
L 261.653417 58.126924 
L 263.309229 57.793533 
L 264.965041 58.126924 
L 266.620853 58.126924 
L 268.276665 58.126924 
L 269.932477 58.126924 
L 271.588289 58.126924 
" style="fill:none;stroke:#ff7f0e;stroke-linecap:square;stroke-width:1.5;"/>
   </g>
   <g id="patch_3">
    <path d="M 81.344 70.4624 
L 81.344 43.07431 
" style="fill:none;stroke:#000000;stroke-linecap:square;stroke-linejoin:miter;stroke-width:0.8;"/>
   </g>
   <g id="patch_4">
    <path d="M 294.624 70.4624 
L 294.624 43.07431 
" style="fill:none;stroke:#000000;stroke-linecap:square;stroke-linejoin:miter;stroke-width:0.8;"/>
   </g>
   <g id="patch_5">
    <path d="M 81.344 70.4624 
L 294.624 70.4624 
" style="fill:none;stroke:#000000;stroke-linecap:square;stroke-linejoin:miter;stroke-width:0.8;"/>
   </g>
   <g id="patch_6">
    <path d="M 81.344 43.07431 
L 294.624 43.07431 
" style="fill:none;stroke:#000000;stroke-linecap:square;stroke-linejoin:miter;stroke-width:0.8;"/>
   </g>
   <g id="legend_1">
    <g id="patch_7">
     <path d="M 307.288 75.43056 
L 368.820812 75.43056 
Q 370.820812 75.43056 370.820812 73.43056 
L 370.820812 45.07431 
Q 370.820812 43.07431 368.820812 43.07431 
L 307.288 43.07431 
Q 305.288 43.07431 305.288 45.07431 
L 305.288 73.43056 
Q 305.288 75.43056 307.288 75.43056 
z
" style="fill:#ffffff;opacity:0.8;stroke:#cccccc;stroke-linejoin:miter;"/>
    </g>
    <g id="line2d_12">
     <path d="M 309.288 51.172748 
L 329.288 51.172748 
" style="fill:none;stroke:#1f77b4;stroke-linecap:square;stroke-width:1.5;"/>
    </g>
    <g id="line2d_13"/>
    <g id="text_4">
     <!-- bbr-pi -->
     <defs>
      <path d="M 4.890625 31.390625 
L 31.203125 31.390625 
L 31.203125 23.390625 
L 4.890625 23.390625 
z
" id="DejaVuSans-45"/>
     </defs>
     <g transform="translate(337.288 54.672748)scale(0.1 -0.1)">
      <use xlink:href="#DejaVuSans-98"/>
      <use x="63.476562" xlink:href="#DejaVuSans-98"/>
      <use x="126.953125" xlink:href="#DejaVuSans-114"/>
      <use x="167.972656" xlink:href="#DejaVuSans-45"/>
      <use x="204.056641" xlink:href="#DejaVuSans-112"/>
      <use x="267.533203" xlink:href="#DejaVuSans-105"/>
     </g>
    </g>
    <g id="line2d_14">
     <path d="M 309.288 65.850873 
L 329.288 65.850873 
" style="fill:none;stroke:#ff7f0e;stroke-linecap:square;stroke-width:1.5;"/>
    </g>
    <g id="line2d_15"/>
    <g id="text_5">
     <!-- bbr-pi -->
     <g transform="translate(337.288 69.350873)scale(0.1 -0.1)">
      <use xlink:href="#DejaVuSans-98"/>
      <use x="63.476562" xlink:href="#DejaVuSans-98"/>
      <use x="126.953125" xlink:href="#DejaVuSans-114"/>
      <use x="167.972656" xlink:href="#DejaVuSans-45"/>
      <use x="204.056641" xlink:href="#DejaVuSans-112"/>
      <use x="267.533203" xlink:href="#DejaVuSans-105"/>
     </g>
    </g>
   </g>
  </g>
  <g id="axes_2">
   <g id="patch_8">
    <path d="M 81.344 126.1648 
L 294.624 126.1648 
L 294.624 98.77671 
L 81.344 98.77671 
z
" style="fill:#ffffff;"/>
   </g>
   <g id="matplotlib.axis_3">
    <g id="xtick_8">
     <g id="line2d_16">
      <g>
       <use style="stroke:#000000;stroke-width:0.8;" x="91.038545" xlink:href="#m701ae6c4b2" y="126.1648"/>
      </g>
     </g>
    </g>
    <g id="xtick_9">
     <g id="line2d_17">
      <g>
       <use style="stroke:#000000;stroke-width:0.8;" x="124.154786" xlink:href="#m701ae6c4b2" y="126.1648"/>
      </g>
     </g>
    </g>
    <g id="xtick_10">
     <g id="line2d_18">
      <g>
       <use style="stroke:#000000;stroke-width:0.8;" x="157.271027" xlink:href="#m701ae6c4b2" y="126.1648"/>
      </g>
     </g>
    </g>
    <g id="xtick_11">
     <g id="line2d_19">
      <g>
       <use style="stroke:#000000;stroke-width:0.8;" x="190.387267" xlink:href="#m701ae6c4b2" y="126.1648"/>
      </g>
     </g>
    </g>
    <g id="xtick_12">
     <g id="line2d_20">
      <g>
       <use style="stroke:#000000;stroke-width:0.8;" x="223.503508" xlink:href="#m701ae6c4b2" y="126.1648"/>
      </g>
     </g>
    </g>
    <g id="xtick_13">
     <g id="line2d_21">
      <g>
       <use style="stroke:#000000;stroke-width:0.8;" x="256.619748" xlink:href="#m701ae6c4b2" y="126.1648"/>
      </g>
     </g>
    </g>
    <g id="xtick_14">
     <g id="line2d_22">
      <g>
       <use style="stroke:#000000;stroke-width:0.8;" x="289.735989" xlink:href="#m701ae6c4b2" y="126.1648"/>
      </g>
     </g>
    </g>
   </g>
   <g id="matplotlib.axis_4">
    <g id="ytick_3">
     <g id="line2d_23">
      <g>
       <use style="stroke:#000000;stroke-width:0.8;" x="81.344" xlink:href="#m1c66d94601" y="126.1648"/>
      </g>
     </g>
     <g id="text_6">
      <!-- 0 -->
      <g transform="translate(67.9815 129.964019)scale(0.1 -0.1)">
       <use xlink:href="#DejaVuSans-48"/>
      </g>
     </g>
    </g>
    <g id="ytick_4">
     <g id="line2d_24">
      <g>
       <use style="stroke:#000000;stroke-width:0.8;" x="81.344" xlink:href="#m1c66d94601" y="100.718242"/>
      </g>
     </g>
     <g id="text_7">
      <!-- 500000 -->
      <g transform="translate(36.169 104.517461)scale(0.1 -0.1)">
       <use xlink:href="#DejaVuSans-53"/>
       <use x="63.623047" xlink:href="#DejaVuSans-48"/>
       <use x="127.246094" xlink:href="#DejaVuSans-48"/>
       <use x="190.869141" xlink:href="#DejaVuSans-48"/>
       <use x="254.492188" xlink:href="#DejaVuSans-48"/>
       <use x="318.115234" xlink:href="#DejaVuSans-48"/>
      </g>
     </g>
    </g>
    <g id="text_8">
     <!-- inflight -->
     <defs>
      <path d="M 37.109375 75.984375 
L 37.109375 68.5 
L 28.515625 68.5 
Q 23.6875 68.5 21.796875 66.546875 
Q 19.921875 64.59375 19.921875 59.515625 
L 19.921875 54.6875 
L 34.71875 54.6875 
L 34.71875 47.703125 
L 19.921875 47.703125 
L 19.921875 0 
L 10.890625 0 
L 10.890625 47.703125 
L 2.296875 47.703125 
L 2.296875 54.6875 
L 10.890625 54.6875 
L 10.890625 58.5 
Q 10.890625 67.625 15.140625 71.796875 
Q 19.390625 75.984375 28.609375 75.984375 
z
" id="DejaVuSans-102"/>
      <path d="M 9.421875 75.984375 
L 18.40625 75.984375 
L 18.40625 0 
L 9.421875 0 
z
" id="DejaVuSans-108"/>
     </defs>
     <g transform="translate(18.8915 129.869974)rotate(-90)scale(0.1 -0.1)">
      <use xlink:href="#DejaVuSans-105"/>
      <use x="27.783203" xlink:href="#DejaVuSans-110"/>
      <use x="91.162109" xlink:href="#DejaVuSans-102"/>
      <use x="126.367188" xlink:href="#DejaVuSans-108"/>
      <use x="154.150391" xlink:href="#DejaVuSans-105"/>
      <use x="181.933594" xlink:href="#DejaVuSans-103"/>
      <use x="245.410156" xlink:href="#DejaVuSans-104"/>
      <use x="308.789062" xlink:href="#DejaVuSans-116"/>
     </g>
     <!-- (bytes) -->
     <defs>
      <path d="M 32.171875 -5.078125 
Q 28.375 -14.84375 24.75 -17.8125 
Q 21.140625 -20.796875 15.09375 -20.796875 
L 7.90625 -20.796875 
L 7.90625 -13.28125 
L 13.1875 -13.28125 
Q 16.890625 -13.28125 18.9375 -11.515625 
Q 21 -9.765625 23.484375 -3.21875 
L 25.09375 0.875 
L 2.984375 54.6875 
L 12.5 54.6875 
L 29.59375 11.921875 
L 46.6875 54.6875 
L 56.203125 54.6875 
z
" id="DejaVuSans-121"/>
     </defs>
     <g transform="translate(30.089313 130.147318)rotate(-90)scale(0.1 -0.1)">
      <use xlink:href="#DejaVuSans-40"/>
      <use x="39.013672" xlink:href="#DejaVuSans-98"/>
      <use x="102.490234" xlink:href="#DejaVuSans-121"/>
      <use x="161.669922" xlink:href="#DejaVuSans-116"/>
      <use x="200.878906" xlink:href="#DejaVuSans-101"/>
      <use x="262.402344" xlink:href="#DejaVuSans-115"/>
      <use x="314.501953" xlink:href="#DejaVuSans-41"/>
     </g>
    </g>
   </g>
   <g id="line2d_25">
    <path clip-path="url(#pf3dced4978)" d="M 97.790947 114.30019 
L 99.446759 117.247919 
L 101.102571 117.542692 
L 102.758383 117.026839 
L 104.414195 116.879453 
L 106.070007 116.953146 
L 107.725819 117.100532 
L 109.381631 116.3636 
L 111.037443 115.258202 
L 112.693255 116.658373 
L 114.349067 114.594963 
L 116.004879 115.258202 
L 117.660691 114.594963 
L 119.316503 114.668656 
L 120.972315 115.331895 
L 122.628127 115.037122 
L 124.283939 100.077396 
L 125.939751 107.667799 
L 127.595563 108.478424 
L 129.251375 108.920584 
L 130.907188 108.920584 
L 132.563 109.51013 
L 134.218812 108.257345 
L 135.874624 109.804903 
L 137.530436 108.625811 
L 139.186248 110.689221 
L 140.84206 108.552118 
L 142.497872 107.373026 
L 144.153684 108.84689 
L 145.809496 108.257345 
L 147.465308 109.28905 
L 149.12112 108.109958 
L 150.776932 107.594106 
L 152.432744 108.773197 
L 154.088556 108.699504 
L 155.744368 110.025982 
L 157.40018 117.690078 
L 159.055992 108.920584 
L 160.711804 109.215357 
L 162.367616 110.247062 
L 164.023428 108.773197 
L 165.67924 110.025982 
L 167.335052 108.994277 
L 168.990864 109.952289 
L 170.646676 109.51013 
L 172.302488 109.657516 
L 173.9583 110.541835 
L 175.614112 110.173369 
L 177.269924 109.952289 
L 178.925736 110.320755 
L 180.581548 110.615528 
L 182.23736 110.541835 
L 183.893172 110.468142 
L 185.548984 110.836608 
L 187.204797 110.468142 
L 188.860609 111.057687 
L 190.516421 123.585537 
L 192.172233 113.047405 
L 193.828045 109.731209 
L 195.483857 110.099675 
L 197.139669 111.057687 
L 198.795481 110.762915 
L 200.451293 111.205074 
L 202.107105 110.468142 
L 203.762917 111.35246 
L 205.418729 110.689221 
L 207.074541 111.131381 
L 208.730353 110.983994 
L 210.386165 111.131381 
L 212.041977 110.836608 
L 213.697789 111.499847 
L 215.353601 110.762915 
L 217.009413 111.426154 
L 218.665225 110.689221 
L 220.321037 111.720927 
L 221.976849 110.541835 
L 223.632661 111.278767 
L 225.288473 126.091107 
L 226.944285 111.131381 
L 228.600097 112.015699 
L 230.255909 112.089393 
L 231.911721 112.089393 
L 233.567533 112.163086 
L 235.223345 112.089393 
L 236.879157 112.678939 
L 238.534969 112.089393 
L 240.190781 112.678939 
L 241.846594 111.79462 
L 243.502406 112.531552 
L 245.158218 112.310472 
L 246.81403 112.678939 
L 248.469842 112.089393 
L 250.125654 112.900018 
L 251.781466 112.384166 
L 253.437278 112.826325 
L 255.09309 112.384166 
L 256.748902 113.121098 
L 258.404714 112.826325 
L 260.060526 116.658373 
L 261.716338 112.973711 
L 263.37215 112.678939 
L 265.027962 112.973711 
L 266.683774 113.268484 
L 268.339586 112.826325 
L 269.995398 112.531552 
L 271.65121 113.047405 
L 273.307022 112.752632 
L 274.962834 112.531552 
" style="fill:none;stroke:#1f77b4;stroke-linecap:square;stroke-width:1.5;"/>
   </g>
   <g id="line2d_26">
    <path clip-path="url(#pf3dced4978)" d="M 91.038545 113.489564 
L 92.694357 111.868313 
L 94.35017 113.784337 
L 96.005982 112.605245 
L 97.661794 100.740635 
L 99.317606 107.667799 
L 100.973418 107.815185 
L 102.62923 109.952289 
L 104.285042 108.552118 
L 105.940854 110.836608 
L 107.596666 109.731209 
L 109.252478 111.647233 
L 110.90829 110.025982 
L 112.564102 112.457859 
L 114.219914 110.615528 
L 115.875726 112.531552 
L 117.531538 111.57354 
L 119.18735 113.415871 
L 120.843162 112.163086 
L 122.498974 114.963429 
L 124.154786 116.068827 
L 125.810598 116.953146 
L 127.46641 117.100532 
L 129.122222 117.763772 
L 130.778034 117.911158 
L 132.433846 117.984851 
L 134.089658 117.616385 
L 135.74547 118.279624 
L 137.401282 118.132238 
L 139.057094 118.427011 
L 140.712906 118.132238 
L 142.368718 118.574397 
L 144.02453 117.837465 
L 145.680342 118.795477 
L 147.336154 117.984851 
L 148.991967 119.237636 
L 150.647779 118.427011 
L 152.303591 118.64809 
L 153.959403 118.86917 
L 155.615215 119.237636 
L 157.271027 126.091107 
L 158.926839 116.510987 
L 160.582651 117.174226 
L 162.238463 116.732066 
L 163.894275 117.321612 
L 165.550087 116.953146 
L 167.205899 117.468999 
L 168.861711 116.953146 
L 170.517523 117.984851 
L 172.173335 116.879453 
L 173.829147 117.690078 
L 175.484959 116.510987 
L 177.140771 117.247919 
L 178.796583 116.14252 
L 180.452395 117.174226 
L 182.108207 116.216214 
L 183.764019 117.321612 
L 185.419831 115.774054 
L 187.075643 116.510987 
L 188.731455 115.774054 
L 190.387267 116.58468 
L 192.043079 119.311329 
L 193.698891 115.258202 
L 195.354703 115.847748 
L 197.010515 115.479281 
L 198.666327 115.995134 
L 200.322139 115.626668 
L 201.977951 116.216214 
L 203.633763 115.184508 
L 205.289576 115.921441 
L 206.945388 115.184508 
L 208.6012 116.437293 
L 210.257012 115.184508 
L 211.912824 115.921441 
L 213.568636 115.110815 
L 215.224448 115.774054 
L 216.88026 115.184508 
L 218.536072 115.331895 
L 220.191884 115.258202 
L 221.847696 115.037122 
L 223.503508 115.110815 
L 225.15932 126.091107 
L 226.815132 114.152803 
L 228.470944 114.373883 
L 230.126756 114.668656 
L 231.782568 114.226496 
L 233.43838 114.226496 
L 235.094192 114.668656 
L 236.750004 114.521269 
L 238.405816 114.889736 
L 240.061628 114.373883 
L 241.71744 115.110815 
L 243.373252 113.931723 
L 245.029064 115.037122 
L 246.684876 113.710644 
L 248.340688 114.594963 
L 249.9965 113.415871 
L 251.652312 114.963429 
L 253.308124 113.415871 
L 254.963936 114.742349 
L 256.619748 113.415871 
L 258.27556 114.963429 
L 259.931373 118.353317 
L 261.587185 113.415871 
L 263.242997 114.226496 
L 264.898809 113.415871 
L 266.554621 114.668656 
L 268.210433 113.268484 
" style="fill:none;stroke:#ff7f0e;stroke-linecap:square;stroke-width:1.5;"/>
   </g>
   <g id="patch_9">
    <path d="M 81.344 126.1648 
L 81.344 98.77671 
" style="fill:none;stroke:#000000;stroke-linecap:square;stroke-linejoin:miter;stroke-width:0.8;"/>
   </g>
   <g id="patch_10">
    <path d="M 294.624 126.1648 
L 294.624 98.77671 
" style="fill:none;stroke:#000000;stroke-linecap:square;stroke-linejoin:miter;stroke-width:0.8;"/>
   </g>
   <g id="patch_11">
    <path d="M 81.344 126.1648 
L 294.624 126.1648 
" style="fill:none;stroke:#000000;stroke-linecap:square;stroke-linejoin:miter;stroke-width:0.8;"/>
   </g>
   <g id="patch_12">
    <path d="M 81.344 98.77671 
L 294.624 98.77671 
" style="fill:none;stroke:#000000;stroke-linecap:square;stroke-linejoin:miter;stroke-width:0.8;"/>
   </g>
   <g id="legend_2">
    <g id="patch_13">
     <path d="M 307.288 131.13296 
L 368.820812 131.13296 
Q 370.820812 131.13296 370.820812 129.13296 
L 370.820812 100.77671 
Q 370.820812 98.77671 368.820812 98.77671 
L 307.288 98.77671 
Q 305.288 98.77671 305.288 100.77671 
L 305.288 129.13296 
Q 305.288 131.13296 307.288 131.13296 
z
" style="fill:#ffffff;opacity:0.8;stroke:#cccccc;stroke-linejoin:miter;"/>
    </g>
    <g id="line2d_27">
     <path d="M 309.288 106.875148 
L 329.288 106.875148 
" style="fill:none;stroke:#1f77b4;stroke-linecap:square;stroke-width:1.5;"/>
    </g>
    <g id="line2d_28"/>
    <g id="text_9">
     <!-- bbr-pi -->
     <g transform="translate(337.288 110.375148)scale(0.1 -0.1)">
      <use xlink:href="#DejaVuSans-98"/>
      <use x="63.476562" xlink:href="#DejaVuSans-98"/>
      <use x="126.953125" xlink:href="#DejaVuSans-114"/>
      <use x="167.972656" xlink:href="#DejaVuSans-45"/>
      <use x="204.056641" xlink:href="#DejaVuSans-112"/>
      <use x="267.533203" xlink:href="#DejaVuSans-105"/>
     </g>
    </g>
    <g id="line2d_29">
     <path d="M 309.288 121.553273 
L 329.288 121.553273 
" style="fill:none;stroke:#ff7f0e;stroke-linecap:square;stroke-width:1.5;"/>
    </g>
    <g id="line2d_30"/>
    <g id="text_10">
     <!-- bbr-pi -->
     <g transform="translate(337.288 125.053273)scale(0.1 -0.1)">
      <use xlink:href="#DejaVuSans-98"/>
      <use x="63.476562" xlink:href="#DejaVuSans-98"/>
      <use x="126.953125" xlink:href="#DejaVuSans-114"/>
      <use x="167.972656" xlink:href="#DejaVuSans-45"/>
      <use x="204.056641" xlink:href="#DejaVuSans-112"/>
      <use x="267.533203" xlink:href="#DejaVuSans-105"/>
     </g>
    </g>
   </g>
  </g>
  <g id="axes_3">
   <g id="patch_14">
    <path d="M 81.344 181.8672 
L 294.624 181.8672 
L 294.624 154.47911 
L 81.344 154.47911 
z
" style="fill:#ffffff;"/>
   </g>
   <g id="matplotlib.axis_5">
    <g id="xtick_15">
     <g id="line2d_31">
      <g>
       <use style="stroke:#000000;stroke-width:0.8;" x="91.038545" xlink:href="#m701ae6c4b2" y="181.8672"/>
      </g>
     </g>
    </g>
    <g id="xtick_16">
     <g id="line2d_32">
      <g>
       <use style="stroke:#000000;stroke-width:0.8;" x="124.154786" xlink:href="#m701ae6c4b2" y="181.8672"/>
      </g>
     </g>
    </g>
    <g id="xtick_17">
     <g id="line2d_33">
      <g>
       <use style="stroke:#000000;stroke-width:0.8;" x="157.271027" xlink:href="#m701ae6c4b2" y="181.8672"/>
      </g>
     </g>
    </g>
    <g id="xtick_18">
     <g id="line2d_34">
      <g>
       <use style="stroke:#000000;stroke-width:0.8;" x="190.387267" xlink:href="#m701ae6c4b2" y="181.8672"/>
      </g>
     </g>
    </g>
    <g id="xtick_19">
     <g id="line2d_35">
      <g>
       <use style="stroke:#000000;stroke-width:0.8;" x="223.503508" xlink:href="#m701ae6c4b2" y="181.8672"/>
      </g>
     </g>
    </g>
    <g id="xtick_20">
     <g id="line2d_36">
      <g>
       <use style="stroke:#000000;stroke-width:0.8;" x="256.619748" xlink:href="#m701ae6c4b2" y="181.8672"/>
      </g>
     </g>
    </g>
    <g id="xtick_21">
     <g id="line2d_37">
      <g>
       <use style="stroke:#000000;stroke-width:0.8;" x="289.735989" xlink:href="#m701ae6c4b2" y="181.8672"/>
      </g>
     </g>
    </g>
   </g>
   <g id="matplotlib.axis_6">
    <g id="ytick_5">
     <g id="line2d_38">
      <g>
       <use style="stroke:#000000;stroke-width:0.8;" x="81.344" xlink:href="#m1c66d94601" y="181.8672"/>
      </g>
     </g>
     <g id="text_11">
      <!-- 0 -->
      <g transform="translate(67.9815 185.666419)scale(0.1 -0.1)">
       <use xlink:href="#DejaVuSans-48"/>
      </g>
     </g>
    </g>
    <g id="ytick_6">
     <g id="line2d_39">
      <g>
       <use style="stroke:#000000;stroke-width:0.8;" x="81.344" xlink:href="#m1c66d94601" y="163.943058"/>
      </g>
     </g>
     <g id="text_12">
      <!-- 50 -->
      <g transform="translate(61.619 167.742276)scale(0.1 -0.1)">
       <use xlink:href="#DejaVuSans-53"/>
       <use x="63.623047" xlink:href="#DejaVuSans-48"/>
      </g>
     </g>
    </g>
    <g id="text_13">
     <!-- rtt -->
     <g transform="translate(44.3415 174.148936)rotate(-90)scale(0.1 -0.1)">
      <use xlink:href="#DejaVuSans-114"/>
      <use x="41.113281" xlink:href="#DejaVuSans-116"/>
      <use x="80.322266" xlink:href="#DejaVuSans-116"/>
     </g>
     <!-- (ms) -->
     <g transform="translate(55.539313 179.549718)rotate(-90)scale(0.1 -0.1)">
      <use xlink:href="#DejaVuSans-40"/>
      <use x="39.013672" xlink:href="#DejaVuSans-109"/>
      <use x="136.425781" xlink:href="#DejaVuSans-115"/>
      <use x="188.525391" xlink:href="#DejaVuSans-41"/>
     </g>
    </g>
   </g>
   <g id="line2d_40">
    <path clip-path="url(#p8b5cba4152)" d="M 97.790947 158.565815 
L 99.446759 158.207332 
L 101.102571 161.433678 
L 102.758383 163.943058 
L 104.414195 162.867609 
L 106.070007 163.226092 
L 107.725819 163.226092 
L 109.381631 163.584575 
L 111.037443 162.867609 
L 112.693255 163.584575 
L 114.349067 163.226092 
L 116.004879 162.867609 
L 117.660691 162.867609 
L 119.316503 163.226092 
L 120.972315 163.226092 
L 122.628127 163.584575 
L 124.283939 166.452437 
L 125.939751 155.697952 
L 127.595563 161.433678 
L 129.251375 162.509126 
L 130.907188 163.226092 
L 132.563 163.943058 
L 134.218812 163.226092 
L 135.874624 163.226092 
L 137.530436 163.584575 
L 139.186248 162.867609 
L 140.84206 163.226092 
L 142.497872 163.226092 
L 144.153684 162.867609 
L 145.809496 162.867609 
L 147.465308 163.226092 
L 149.12112 162.867609 
L 150.776932 163.226092 
L 152.432744 162.867609 
L 154.088556 163.584575 
L 155.744368 163.943058 
L 157.40018 164.660023 
L 159.055992 168.244852 
L 160.711804 162.509126 
L 162.367616 163.226092 
L 164.023428 163.584575 
L 165.67924 162.867609 
L 167.335052 163.226092 
L 168.990864 163.226092 
L 170.646676 163.226092 
L 172.302488 163.226092 
L 173.9583 163.226092 
L 175.614112 163.226092 
L 177.269924 162.867609 
L 178.925736 163.226092 
L 180.581548 163.226092 
L 182.23736 163.226092 
L 183.893172 163.226092 
L 185.548984 163.226092 
L 187.204797 163.584575 
L 188.860609 163.584575 
L 190.516421 163.226092 
L 192.172233 171.112715 
L 193.828045 163.584575 
L 195.483857 162.509126 
L 197.139669 163.226092 
L 198.795481 163.226092 
L 200.451293 163.226092 
L 202.107105 163.226092 
L 203.762917 162.867609 
L 205.418729 163.226092 
L 207.074541 163.226092 
L 208.730353 163.226092 
L 210.386165 163.584575 
L 212.041977 163.226092 
L 213.697789 163.226092 
L 215.353601 163.226092 
L 217.009413 163.226092 
L 218.665225 163.584575 
L 220.321037 163.226092 
L 221.976849 163.584575 
L 223.632661 163.226092 
L 225.288473 163.226092 
L 226.944285 168.603335 
L 228.600097 162.509126 
L 230.255909 163.226092 
L 231.911721 163.226092 
L 233.567533 163.226092 
L 235.223345 163.226092 
L 236.879157 163.584575 
L 238.534969 163.226092 
L 240.190781 163.584575 
L 241.846594 163.226092 
L 243.502406 163.584575 
L 245.158218 163.584575 
L 246.81403 163.584575 
L 248.469842 163.584575 
L 250.125654 163.226092 
L 251.781466 163.584575 
L 253.437278 163.584575 
L 255.09309 163.226092 
L 256.748902 163.584575 
L 258.404714 163.584575 
L 260.060526 169.678783 
L 261.716338 163.943058 
L 263.37215 163.226092 
L 265.027962 163.584575 
L 266.683774 163.584575 
L 268.339586 163.584575 
L 269.995398 163.584575 
L 271.65121 163.584575 
L 273.307022 163.943058 
L 274.962834 163.226092 
" style="fill:none;stroke:#1f77b4;stroke-linecap:square;stroke-width:1.5;"/>
   </g>
   <g id="line2d_41">
    <path clip-path="url(#p8b5cba4152)" d="M 91.038545 160.358229 
L 92.694357 171.82968 
L 94.35017 172.188163 
L 96.005982 172.546646 
L 97.661794 164.660023 
L 99.317606 157.490366 
L 100.973418 161.075195 
L 102.62923 163.943058 
L 104.285042 162.509126 
L 105.940854 162.867609 
L 107.596666 163.226092 
L 109.252478 163.584575 
L 110.90829 162.867609 
L 112.564102 163.226092 
L 114.219914 163.584575 
L 115.875726 162.867609 
L 117.531538 162.867609 
L 119.18735 163.226092 
L 120.843162 163.226092 
L 122.498974 163.226092 
L 124.154786 163.584575 
L 125.810598 155.339469 
L 127.46641 161.433678 
L 129.122222 162.150643 
L 130.778034 163.226092 
L 132.433846 163.943058 
L 134.089658 163.584575 
L 135.74547 163.226092 
L 137.401282 163.584575 
L 139.057094 163.226092 
L 140.712906 163.584575 
L 142.368718 163.226092 
L 144.02453 163.226092 
L 145.680342 162.867609 
L 147.336154 163.226092 
L 148.991967 162.867609 
L 150.647779 163.226092 
L 152.303591 162.867609 
L 153.959403 163.584575 
L 155.615215 163.943058 
L 157.271027 165.376989 
L 158.926839 168.603335 
L 160.582651 162.509126 
L 162.238463 163.226092 
L 163.894275 163.226092 
L 165.550087 163.226092 
L 167.205899 163.226092 
L 168.861711 163.226092 
L 170.517523 163.226092 
L 172.173335 163.584575 
L 173.829147 163.226092 
L 175.484959 163.226092 
L 177.140771 162.867609 
L 178.796583 163.226092 
L 180.452395 163.226092 
L 182.108207 163.584575 
L 183.764019 163.226092 
L 185.419831 163.226092 
L 187.075643 163.584575 
L 188.731455 163.584575 
L 190.387267 163.584575 
L 192.043079 169.678783 
L 193.698891 164.30154 
L 195.354703 162.509126 
L 197.010515 163.226092 
L 198.666327 163.226092 
L 200.322139 163.226092 
L 201.977951 163.226092 
L 203.633763 162.867609 
L 205.289576 163.226092 
L 206.945388 163.226092 
L 208.6012 163.226092 
L 210.257012 163.226092 
L 211.912824 163.226092 
L 213.568636 163.226092 
L 215.224448 163.226092 
L 216.88026 163.226092 
L 218.536072 163.226092 
L 220.191884 163.226092 
L 221.847696 163.584575 
L 223.503508 163.226092 
L 225.15932 163.584575 
L 226.815132 168.961817 
L 228.470944 162.509126 
L 230.126756 163.226092 
L 231.782568 163.226092 
L 233.43838 162.867609 
L 235.094192 163.226092 
L 236.750004 163.584575 
L 238.405816 163.226092 
L 240.061628 163.584575 
L 241.71744 163.584575 
L 243.373252 163.226092 
L 245.029064 163.584575 
L 246.684876 163.584575 
L 248.340688 163.584575 
L 249.9965 163.226092 
L 251.652312 163.584575 
L 253.308124 163.584575 
L 254.963936 163.226092 
L 256.619748 163.584575 
L 258.27556 163.584575 
L 259.931373 167.886369 
L 261.587185 164.660023 
L 263.242997 163.226092 
L 264.898809 163.943058 
L 266.554621 163.226092 
L 268.210433 163.584575 
" style="fill:none;stroke:#ff7f0e;stroke-linecap:square;stroke-width:1.5;"/>
   </g>
   <g id="patch_15">
    <path d="M 81.344 181.8672 
L 81.344 154.47911 
" style="fill:none;stroke:#000000;stroke-linecap:square;stroke-linejoin:miter;stroke-width:0.8;"/>
   </g>
   <g id="patch_16">
    <path d="M 294.624 181.8672 
L 294.624 154.47911 
" style="fill:none;stroke:#000000;stroke-linecap:square;stroke-linejoin:miter;stroke-width:0.8;"/>
   </g>
   <g id="patch_17">
    <path d="M 81.344 181.8672 
L 294.624 181.8672 
" style="fill:none;stroke:#000000;stroke-linecap:square;stroke-linejoin:miter;stroke-width:0.8;"/>
   </g>
   <g id="patch_18">
    <path d="M 81.344 154.47911 
L 294.624 154.47911 
" style="fill:none;stroke:#000000;stroke-linecap:square;stroke-linejoin:miter;stroke-width:0.8;"/>
   </g>
   <g id="legend_3">
    <g id="patch_19">
     <path d="M 307.288 186.83536 
L 368.820812 186.83536 
Q 370.820812 186.83536 370.820812 184.83536 
L 370.820812 156.47911 
Q 370.820812 154.47911 368.820812 154.47911 
L 307.288 154.47911 
Q 305.288 154.47911 305.288 156.47911 
L 305.288 184.83536 
Q 305.288 186.83536 307.288 186.83536 
z
" style="fill:#ffffff;opacity:0.8;stroke:#cccccc;stroke-linejoin:miter;"/>
    </g>
    <g id="line2d_42">
     <path d="M 309.288 162.577548 
L 329.288 162.577548 
" style="fill:none;stroke:#1f77b4;stroke-linecap:square;stroke-width:1.5;"/>
    </g>
    <g id="line2d_43"/>
    <g id="text_14">
     <!-- bbr-pi -->
     <g transform="translate(337.288 166.077548)scale(0.1 -0.1)">
      <use xlink:href="#DejaVuSans-98"/>
      <use x="63.476562" xlink:href="#DejaVuSans-98"/>
      <use x="126.953125" xlink:href="#DejaVuSans-114"/>
      <use x="167.972656" xlink:href="#DejaVuSans-45"/>
      <use x="204.056641" xlink:href="#DejaVuSans-112"/>
      <use x="267.533203" xlink:href="#DejaVuSans-105"/>
     </g>
    </g>
    <g id="line2d_44">
     <path d="M 309.288 177.255673 
L 329.288 177.255673 
" style="fill:none;stroke:#ff7f0e;stroke-linecap:square;stroke-width:1.5;"/>
    </g>
    <g id="line2d_45"/>
    <g id="text_15">
     <!-- bbr-pi -->
     <g transform="translate(337.288 180.755673)scale(0.1 -0.1)">
      <use xlink:href="#DejaVuSans-98"/>
      <use x="63.476562" xlink:href="#DejaVuSans-98"/>
      <use x="126.953125" xlink:href="#DejaVuSans-114"/>
      <use x="167.972656" xlink:href="#DejaVuSans-45"/>
      <use x="204.056641" xlink:href="#DejaVuSans-112"/>
      <use x="267.533203" xlink:href="#DejaVuSans-105"/>
     </g>
    </g>
   </g>
  </g>
  <g id="axes_4">
   <g id="patch_20">
    <path d="M 81.344 237.5696 
L 294.624 237.5696 
L 294.624 210.18151 
L 81.344 210.18151 
z
" style="fill:#ffffff;"/>
   </g>
   <g id="matplotlib.axis_7">
    <g id="xtick_22">
     <g id="line2d_46">
      <g>
       <use style="stroke:#000000;stroke-width:0.8;" x="91.038545" xlink:href="#m701ae6c4b2" y="237.5696"/>
      </g>
     </g>
    </g>
    <g id="xtick_23">
     <g id="line2d_47">
      <g>
       <use style="stroke:#000000;stroke-width:0.8;" x="124.154786" xlink:href="#m701ae6c4b2" y="237.5696"/>
      </g>
     </g>
    </g>
    <g id="xtick_24">
     <g id="line2d_48">
      <g>
       <use style="stroke:#000000;stroke-width:0.8;" x="157.271027" xlink:href="#m701ae6c4b2" y="237.5696"/>
      </g>
     </g>
    </g>
    <g id="xtick_25">
     <g id="line2d_49">
      <g>
       <use style="stroke:#000000;stroke-width:0.8;" x="190.387267" xlink:href="#m701ae6c4b2" y="237.5696"/>
      </g>
     </g>
    </g>
    <g id="xtick_26">
     <g id="line2d_50">
      <g>
       <use style="stroke:#000000;stroke-width:0.8;" x="223.503508" xlink:href="#m701ae6c4b2" y="237.5696"/>
      </g>
     </g>
    </g>
    <g id="xtick_27">
     <g id="line2d_51">
      <g>
       <use style="stroke:#000000;stroke-width:0.8;" x="256.619748" xlink:href="#m701ae6c4b2" y="237.5696"/>
      </g>
     </g>
    </g>
    <g id="xtick_28">
     <g id="line2d_52">
      <g>
       <use style="stroke:#000000;stroke-width:0.8;" x="289.735989" xlink:href="#m701ae6c4b2" y="237.5696"/>
      </g>
     </g>
    </g>
   </g>
   <g id="matplotlib.axis_8">
    <g id="ytick_7">
     <g id="line2d_53">
      <g>
       <use style="stroke:#000000;stroke-width:0.8;" x="81.344" xlink:href="#m1c66d94601" y="237.5696"/>
      </g>
     </g>
     <g id="text_16">
      <!-- 0 -->
      <g transform="translate(67.9815 241.368819)scale(0.1 -0.1)">
       <use xlink:href="#DejaVuSans-48"/>
      </g>
     </g>
    </g>
    <g id="ytick_8">
     <g id="line2d_54">
      <g>
       <use style="stroke:#000000;stroke-width:0.8;" x="81.344" xlink:href="#m1c66d94601" y="213.574524"/>
      </g>
     </g>
     <g id="text_17">
      <!-- 500000 -->
      <g transform="translate(36.169 217.373743)scale(0.1 -0.1)">
       <use xlink:href="#DejaVuSans-53"/>
       <use x="63.623047" xlink:href="#DejaVuSans-48"/>
       <use x="127.246094" xlink:href="#DejaVuSans-48"/>
       <use x="190.869141" xlink:href="#DejaVuSans-48"/>
       <use x="254.492188" xlink:href="#DejaVuSans-48"/>
       <use x="318.115234" xlink:href="#DejaVuSans-48"/>
      </g>
     </g>
    </g>
    <g id="text_18">
     <!-- queue -->
     <defs>
      <path d="M 14.796875 27.296875 
Q 14.796875 17.390625 18.875 11.75 
Q 22.953125 6.109375 30.078125 6.109375 
Q 37.203125 6.109375 41.296875 11.75 
Q 45.40625 17.390625 45.40625 27.296875 
Q 45.40625 37.203125 41.296875 42.84375 
Q 37.203125 48.484375 30.078125 48.484375 
Q 22.953125 48.484375 18.875 42.84375 
Q 14.796875 37.203125 14.796875 27.296875 
z
M 45.40625 8.203125 
Q 42.578125 3.328125 38.25 0.953125 
Q 33.9375 -1.421875 27.875 -1.421875 
Q 17.96875 -1.421875 11.734375 6.484375 
Q 5.515625 14.40625 5.515625 27.296875 
Q 5.515625 40.1875 11.734375 48.09375 
Q 17.96875 56 27.875 56 
Q 33.9375 56 38.25 53.625 
Q 42.578125 51.265625 45.40625 46.390625 
L 45.40625 54.6875 
L 54.390625 54.6875 
L 54.390625 -20.796875 
L 45.40625 -20.796875 
z
" id="DejaVuSans-113"/>
     </defs>
     <g transform="translate(18.8915 239.540399)rotate(-90)scale(0.1 -0.1)">
      <use xlink:href="#DejaVuSans-113"/>
      <use x="63.476562" xlink:href="#DejaVuSans-117"/>
      <use x="126.855469" xlink:href="#DejaVuSans-101"/>
      <use x="188.378906" xlink:href="#DejaVuSans-117"/>
      <use x="251.757812" xlink:href="#DejaVuSans-101"/>
     </g>
     <!-- (bytes) -->
     <g transform="translate(30.089313 241.552118)rotate(-90)scale(0.1 -0.1)">
      <use xlink:href="#DejaVuSans-40"/>
      <use x="39.013672" xlink:href="#DejaVuSans-98"/>
      <use x="102.490234" xlink:href="#DejaVuSans-121"/>
      <use x="161.669922" xlink:href="#DejaVuSans-116"/>
      <use x="200.878906" xlink:href="#DejaVuSans-101"/>
      <use x="262.402344" xlink:href="#DejaVuSans-115"/>
      <use x="314.501953" xlink:href="#DejaVuSans-41"/>
     </g>
    </g>
   </g>
   <g id="line2d_55">
    <path clip-path="url(#p1fb5d49e31)" d="M 95.411311 235.389887 
L 95.762475 237.061 
L 96.115987 236.843029 
L 96.466182 234.953945 
L 96.816145 221.439726 
L 97.165844 213.156818 
L 97.515996 211.485705 
L 97.867476 211.848991 
L 98.220742 218.460786 
L 98.573693 216.499044 
L 98.927938 220.713155 
L 99.278114 220.422527 
L 99.628154 220.713155 
L 99.97826 220.567841 
L 100.328029 221.58504 
L 100.6782 221.948326 
L 101.039609 223.038182 
L 101.398541 226.235094 
L 101.74854 226.307751 
L 102.097201 224.999924 
L 102.447514 224.200696 
L 102.797316 223.764753 
L 103.147082 222.892868 
L 103.496937 223.256153 
L 104.199061 222.60224 
L 105.247605 223.328811 
L 105.946921 223.910067 
L 106.296635 222.820211 
L 106.646286 224.491324 
L 106.996044 222.892868 
L 107.344188 224.999924 
L 107.693724 222.965525 
L 108.043798 225.508523 
L 108.393651 223.401468 
L 108.742193 225.944466 
L 109.09247 223.183496 
L 109.442441 224.491324 
L 109.792027 222.384748 
L 110.141683 223.910067 
L 110.493227 222.60224 
L 110.846056 223.692096 
L 111.198332 222.820211 
L 111.550887 224.636638 
L 111.901108 224.200696 
L 112.251714 225.145238 
L 112.601536 225.508523 
L 112.951395 225.290552 
L 113.301029 224.563981 
L 113.650555 223.256153 
L 114.001136 223.982724 
L 114.352495 222.60224 
L 114.705342 223.83741 
L 115.058153 222.965525 
L 115.406212 223.910067 
L 115.754274 223.038182 
L 116.101971 223.910067 
L 116.449546 223.110839 
L 116.801777 223.474125 
L 117.150713 223.256153 
L 117.506309 223.619439 
L 117.858385 224.418667 
L 118.210342 224.055573 
L 118.571426 224.999924 
L 118.921522 224.636638 
L 119.270311 224.709295 
L 119.618932 224.491324 
L 120.666579 224.563981 
L 121.023523 224.200696 
L 121.37143 225.072581 
L 121.718905 224.200696 
L 122.066705 224.636638 
L 122.414777 224.273353 
L 122.762469 232.628918 
L 123.11006 237.5696 
L 123.457494 234.808631 
L 123.81042 215.263874 
L 124.167574 213.738075 
L 124.519355 213.447446 
L 125.218501 213.520104 
L 125.567752 213.520104 
L 125.917723 222.020983 
L 126.266095 222.311611 
L 126.614835 221.58504 
L 126.963744 223.183496 
L 127.31296 221.58504 
L 127.663253 223.038182 
L 128.011457 222.166297 
L 128.359331 224.563981 
L 128.707166 223.619439 
L 129.056345 225.217895 
L 129.404781 223.401468 
L 129.752605 224.999924 
L 130.102731 223.474125 
L 130.452847 224.999924 
L 130.807257 224.055573 
L 131.156377 225.508523 
L 131.505874 224.927267 
L 131.865439 225.871809 
L 132.219127 224.418667 
L 132.568636 225.072581 
L 132.918304 223.619439 
L 133.270367 224.781952 
L 133.619696 222.892868 
L 133.969677 224.927267 
L 134.32178 223.038182 
L 134.672389 224.636638 
L 135.02218 223.038182 
L 135.370919 224.709295 
L 135.720361 223.546782 
L 136.069989 224.636638 
L 136.418282 223.256153 
L 136.768975 224.491324 
L 137.121809 223.474125 
L 137.472919 224.491324 
L 137.822213 222.820211 
L 138.171231 223.546782 
L 138.522505 222.820211 
L 138.879874 223.474125 
L 139.229954 224.709295 
L 139.583382 223.982724 
L 139.934985 223.910067 
L 140.283723 224.273353 
L 140.638643 224.055573 
L 140.988611 223.546782 
L 141.337798 224.563981 
L 141.686386 224.200696 
L 142.036941 224.927267 
L 142.385845 224.128039 
L 142.735203 224.491324 
L 143.084521 224.128039 
L 143.433593 224.563981 
L 143.783246 224.200696 
L 144.133018 224.927267 
L 144.481313 223.910067 
L 144.829061 224.491324 
L 145.176606 223.619439 
L 145.524438 224.636638 
L 145.874327 223.83741 
L 146.227676 224.491324 
L 146.580122 223.474125 
L 146.93345 224.563981 
L 147.283304 223.982724 
L 147.630575 224.491324 
L 147.977884 223.256153 
L 148.325074 224.491324 
L 148.673494 223.110839 
L 149.02109 224.563981 
L 149.368301 222.965525 
L 149.719351 224.709295 
L 150.085972 223.546782 
L 150.43522 224.999924 
L 150.784964 223.038182 
L 151.133163 224.418667 
L 151.48345 222.09364 
L 151.831699 224.273353 
L 152.187148 222.166297 
L 152.536146 224.636638 
L 152.885934 222.456926 
L 153.238783 225.217895 
L 153.591091 222.529583 
L 153.951616 225.072581 
L 154.301928 223.910067 
L 154.64968 225.508523 
L 154.997685 224.418667 
L 155.346885 225.871809 
L 155.705297 224.927267 
L 156.055523 224.491324 
L 156.404841 224.491324 
L 156.762028 237.5696 
L 157.128501 237.5696 
L 157.497034 237.206315 
L 157.847018 235.099259 
L 158.890707 223.183496 
L 159.238564 222.965525 
L 159.586124 222.529583 
L 159.933796 223.546782 
L 160.289597 222.60224 
L 160.642118 224.927267 
L 160.990708 223.474125 
L 161.339289 223.982724 
L 161.691515 224.200696 
L 162.040858 223.982724 
L 162.389246 224.854609 
L 162.737801 224.055573 
L 163.086193 225.145238 
L 163.435169 224.055573 
L 163.783716 225.145238 
L 164.136091 223.110839 
L 164.48692 224.999924 
L 164.837631 223.256153 
L 165.195452 224.563981 
L 165.5512 222.820211 
L 165.907569 224.709295 
L 166.261979 223.692096 
L 166.610963 224.563981 
L 166.96164 224.34601 
L 167.317931 223.982724 
L 167.672582 224.709295 
L 168.024989 223.692096 
L 168.372681 224.200696 
L 168.722547 223.910067 
L 169.072957 224.200696 
L 169.422724 223.619439 
L 169.779479 224.418667 
L 170.136845 223.256153 
L 170.487432 225.145238 
L 170.838233 223.110839 
L 171.186762 224.927267 
L 171.535235 223.692096 
L 171.884367 224.491324 
L 172.232355 224.200696 
L 172.583496 224.055573 
L 172.932506 224.999924 
L 173.282714 223.764753 
L 173.986744 225.435866 
L 174.692677 223.474125 
L 175.048016 223.692096 
L 175.40236 223.328811 
L 175.760146 223.83741 
L 176.112153 223.110839 
L 176.463911 223.982724 
L 176.816218 223.474125 
L 177.522321 224.636638 
L 178.22423 224.709295 
L 178.575062 224.273353 
L 178.925401 224.418667 
L 179.274643 223.83741 
L 179.625111 224.491324 
L 179.97823 224.200696 
L 180.331077 224.34601 
L 181.035969 223.619439 
L 181.389781 223.038182 
L 181.741076 224.055573 
L 182.092956 223.474125 
L 182.445184 224.34601 
L 182.794588 224.709295 
L 183.50095 224.781952 
L 183.855186 224.491324 
L 184.206374 224.781952 
L 184.556801 223.982724 
L 184.908517 224.709295 
L 185.260622 224.128039 
L 185.610025 224.781952 
L 185.964637 224.055573 
L 186.318234 223.910067 
L 186.669762 223.401468 
L 187.020164 223.982724 
L 187.372969 223.83741 
L 187.726752 224.491324 
L 188.080498 224.418667 
L 188.434172 224.854609 
L 188.788281 224.927267 
L 189.140316 224.34601 
L 189.491255 226.08978 
L 189.844923 224.563981 
L 190.197098 224.709295 
L 190.914805 237.5696 
L 191.280917 237.5696 
L 191.635609 234.590659 
L 191.990965 233.57346 
L 192.699568 225.871809 
L 193.053931 223.110839 
L 193.408611 221.803012 
L 193.759868 222.965525 
L 194.110557 222.020983 
L 194.461155 222.60224 
L 194.811471 222.820211 
L 195.511107 225.072581 
L 195.86139 223.328811 
L 196.21181 222.747554 
L 196.562659 224.273353 
L 196.912897 223.038182 
L 197.263085 224.418667 
L 197.613939 223.546782 
L 197.964449 225.363209 
L 198.315452 224.563981 
L 198.665541 224.418667 
L 199.015877 224.999924 
L 199.716605 224.636638 
L 200.067554 223.982724 
L 200.42446 224.709295 
L 200.785851 223.764753 
L 201.138573 223.910067 
L 201.489497 224.200696 
L 201.840963 223.83741 
L 202.192591 222.892868 
L 202.544884 223.328811 
L 202.896212 223.038182 
L 203.249026 223.401468 
L 203.607375 223.546782 
L 203.969074 224.709295 
L 204.331806 224.709295 
L 204.682755 224.34601 
L 205.033454 224.709295 
L 205.384792 224.055573 
L 205.736557 224.781952 
L 206.089025 224.273353 
L 206.440459 225.290552 
L 206.792171 224.055573 
L 207.143859 224.055573 
L 207.494779 223.328811 
L 207.8461 223.328811 
L 208.19673 222.747554 
L 208.549088 223.328811 
L 208.89996 224.128039 
L 209.249134 224.128039 
L 209.600425 224.418667 
L 209.950838 224.200696 
L 210.301895 224.709295 
L 210.651236 224.491324 
L 210.999894 224.418667 
L 211.349813 225.217895 
L 211.699855 224.781952 
L 212.049421 224.563981 
L 212.398939 224.636638 
L 212.748212 224.200696 
L 213.097526 224.636638 
L 213.448068 224.273353 
L 213.799844 224.927267 
L 214.152643 223.764753 
L 214.523986 223.764753 
L 214.875337 223.256153 
L 215.574302 223.910067 
L 215.922413 223.401468 
L 216.273194 224.563981 
L 216.624402 223.910067 
L 216.975872 224.563981 
L 217.326741 224.34601 
L 217.677245 224.854609 
L 218.027007 224.999924 
L 218.378859 224.927267 
L 218.733918 224.128039 
L 219.089747 224.491324 
L 219.44608 224.055573 
L 219.797212 224.273353 
L 220.148698 223.619439 
L 220.499314 224.491324 
L 220.849821 223.764753 
L 221.200642 224.636638 
L 221.552337 224.200696 
L 221.903346 223.328811 
L 222.252511 226.380408 
L 222.601543 223.692096 
L 222.95143 224.491324 
L 223.302339 223.110839 
L 223.652843 224.128039 
L 224.002675 223.692096 
L 224.352341 224.128039 
L 224.701925 237.5696 
L 225.415039 237.5696 
L 225.782168 235.462544 
L 227.214622 222.384748 
L 227.565343 222.020983 
L 227.916254 222.674897 
L 228.271422 222.238954 
L 228.623505 222.529583 
L 228.973233 223.83741 
L 229.324112 223.256153 
L 229.681133 224.273353 
L 230.031549 224.636638 
L 231.078419 223.910067 
L 231.429827 224.636638 
L 231.780517 223.764753 
L 232.13067 224.418667 
L 232.480205 224.273353 
L 232.82942 224.34601 
L 233.185633 223.982724 
L 234.244603 223.83741 
L 234.594827 223.546782 
L 234.944508 223.982724 
L 235.293041 223.474125 
L 235.641997 224.055573 
L 235.990896 223.764753 
L 236.339233 224.781952 
L 236.693405 225.145238 
L 237.044427 224.999924 
L 237.392324 224.563981 
L 238.442252 224.491324 
L 238.79587 224.709295 
L 239.497178 225.435866 
L 239.850441 224.636638 
L 240.206814 224.781952 
L 240.558839 223.692096 
L 241.259797 223.110839 
L 241.614735 223.83741 
L 241.963686 223.910067 
L 242.314208 224.636638 
L 242.663645 224.563981 
L 243.014959 224.999924 
L 243.368628 224.781952 
L 243.720873 225.072581 
L 244.428254 224.854609 
L 244.779067 225.145238 
L 245.129998 224.709295 
L 245.481214 224.999924 
L 246.886701 223.328811 
L 247.238804 223.692096 
L 247.588627 226.08978 
L 247.936582 224.491324 
L 248.288361 224.418667 
L 248.635669 224.927267 
L 248.993671 224.273353 
L 249.3453 224.418667 
L 249.697397 224.709295 
L 250.048619 224.636638 
L 250.40175 224.709295 
L 250.753113 225.145238 
L 251.105455 224.927267 
L 251.456272 224.999924 
L 251.805632 224.636638 
L 252.507513 223.401468 
L 252.855588 223.546782 
L 253.208352 223.83741 
L 253.912775 223.474125 
L 254.262715 224.418667 
L 254.612081 224.200696 
L 254.963151 224.636638 
L 255.325853 224.636638 
L 256.034659 225.072581 
L 256.739758 224.781952 
L 257.090662 224.781952 
L 257.440903 224.563981 
L 257.791025 224.491324 
L 258.140595 224.854609 
L 258.49654 223.982724 
L 258.852604 237.5696 
L 259.218499 237.5696 
L 259.585303 236.479744 
L 259.940736 233.864088 
L 260.294656 226.889008 
L 260.996214 222.820211 
L 261.345384 221.948326 
L 261.695861 224.999924 
L 262.044363 224.055573 
L 262.393486 225.290552 
L 262.743559 223.546782 
L 263.093804 225.58118 
L 263.452208 224.200696 
L 263.80432 226.380408 
L 264.15429 224.709295 
L 264.505711 225.435866 
L 264.858396 222.965525 
L 265.207103 224.781952 
L 265.558017 222.60224 
L 265.907422 224.418667 
L 266.258924 223.256153 
L 266.61055 225.799152 
L 266.963661 224.128039 
L 267.66444 224.636638 
L 268.01674 223.83741 
L 268.367657 225.290552 
L 268.719262 223.619439 
L 269.075508 225.363209 
L 269.429806 223.910067 
L 269.781125 225.145238 
L 270.136719 222.965525 
L 270.48625 225.217895 
L 270.838761 223.256153 
L 271.190214 225.290552 
L 271.545155 223.619439 
L 271.906918 225.145238 
L 272.256209 224.34601 
L 272.608235 224.563981 
L 272.959673 225.072581 
L 273.313813 224.418667 
L 273.671806 225.145238 
L 274.023672 223.619439 
L 274.373467 225.508523 
L 274.723213 223.474125 
L 275.074451 224.999924 
L 275.427254 223.110839 
L 275.779235 225.435866 
L 276.131743 223.619439 
L 276.483841 224.709295 
L 276.836847 223.546782 
L 277.18702 225.290552 
L 277.537671 223.982724 
L 277.888033 223.982724 
L 278.240311 224.418667 
L 278.591313 224.055573 
L 278.944622 225.072581 
L 279.295469 223.910067 
L 279.64918 225.290552 
L 280.002854 224.200696 
L 280.35381 225.726399 
L 280.707735 223.83741 
L 281.062332 225.145238 
L 281.410477 223.038182 
L 281.759956 224.854609 
L 282.113501 223.183496 
L 282.466046 224.709295 
L 282.81972 223.910067 
L 283.170795 224.418667 
L 283.531453 224.34601 
L 283.880771 224.128039 
L 284.230745 224.636638 
L 284.580127 224.273353 
L 284.929455 225.217895 
L 284.929455 225.217895 
" style="fill:none;stroke:#1f77b4;stroke-linecap:square;stroke-width:1.5;"/>
   </g>
   <g id="patch_21">
    <path d="M 81.344 237.5696 
L 81.344 210.18151 
" style="fill:none;stroke:#000000;stroke-linecap:square;stroke-linejoin:miter;stroke-width:0.8;"/>
   </g>
   <g id="patch_22">
    <path d="M 294.624 237.5696 
L 294.624 210.18151 
" style="fill:none;stroke:#000000;stroke-linecap:square;stroke-linejoin:miter;stroke-width:0.8;"/>
   </g>
   <g id="patch_23">
    <path d="M 81.344 237.5696 
L 294.624 237.5696 
" style="fill:none;stroke:#000000;stroke-linecap:square;stroke-linejoin:miter;stroke-width:0.8;"/>
   </g>
   <g id="patch_24">
    <path d="M 81.344 210.18151 
L 294.624 210.18151 
" style="fill:none;stroke:#000000;stroke-linecap:square;stroke-linejoin:miter;stroke-width:0.8;"/>
   </g>
   <g id="legend_4">
    <g id="patch_25">
     <path d="M 307.288 239.057448 
L 371.163 239.057448 
Q 373.163 239.057448 373.163 237.057448 
L 373.163 212.18151 
Q 373.163 210.18151 371.163 210.18151 
L 307.288 210.18151 
Q 305.288 210.18151 305.288 212.18151 
L 305.288 237.057448 
Q 305.288 239.057448 307.288 239.057448 
z
" style="fill:#ffffff;opacity:0.8;stroke:#cccccc;stroke-linejoin:miter;"/>
    </g>
    <g id="line2d_56">
     <path d="M 309.288 224.918698 
L 329.288 224.918698 
" style="fill:none;stroke:#1f77b4;stroke-linecap:square;stroke-width:1.5;"/>
    </g>
    <g id="line2d_57"/>
    <g id="text_19">
     <!-- queue -->
     <g transform="translate(337.288 221.779948)scale(0.1 -0.1)">
      <use xlink:href="#DejaVuSans-113"/>
      <use x="63.476562" xlink:href="#DejaVuSans-117"/>
      <use x="126.855469" xlink:href="#DejaVuSans-101"/>
      <use x="188.378906" xlink:href="#DejaVuSans-117"/>
      <use x="251.757812" xlink:href="#DejaVuSans-101"/>
     </g>
     <!-- length -->
     <g transform="translate(337.288 232.97776)scale(0.1 -0.1)">
      <use xlink:href="#DejaVuSans-108"/>
      <use x="27.783203" xlink:href="#DejaVuSans-101"/>
      <use x="89.306641" xlink:href="#DejaVuSans-110"/>
      <use x="152.685547" xlink:href="#DejaVuSans-103"/>
      <use x="216.162109" xlink:href="#DejaVuSans-116"/>
      <use x="255.371094" xlink:href="#DejaVuSans-104"/>
     </g>
    </g>
   </g>
  </g>
  <g id="axes_5">
   <g id="patch_26">
    <path d="M 81.344 293.272 
L 294.624 293.272 
L 294.624 265.88391 
L 81.344 265.88391 
z
" style="fill:#ffffff;"/>
   </g>
   <g id="matplotlib.axis_9">
    <g id="xtick_29">
     <g id="line2d_58">
      <g>
       <use style="stroke:#000000;stroke-width:0.8;" x="91.038545" xlink:href="#m701ae6c4b2" y="293.272"/>
      </g>
     </g>
     <g id="text_20">
      <!-- 0 -->
      <g transform="translate(87.857295 307.870437)scale(0.1 -0.1)">
       <use xlink:href="#DejaVuSans-48"/>
      </g>
     </g>
    </g>
    <g id="xtick_30">
     <g id="line2d_59">
      <g>
       <use style="stroke:#000000;stroke-width:0.8;" x="124.154786" xlink:href="#m701ae6c4b2" y="293.272"/>
      </g>
     </g>
     <g id="text_21">
      <!-- 10 -->
      <defs>
       <path d="M 12.40625 8.296875 
L 28.515625 8.296875 
L 28.515625 63.921875 
L 10.984375 60.40625 
L 10.984375 69.390625 
L 28.421875 72.90625 
L 38.28125 72.90625 
L 38.28125 8.296875 
L 54.390625 8.296875 
L 54.390625 0 
L 12.40625 0 
z
" id="DejaVuSans-49"/>
      </defs>
      <g transform="translate(117.792286 307.870437)scale(0.1 -0.1)">
       <use xlink:href="#DejaVuSans-49"/>
       <use x="63.623047" xlink:href="#DejaVuSans-48"/>
      </g>
     </g>
    </g>
    <g id="xtick_31">
     <g id="line2d_60">
      <g>
       <use style="stroke:#000000;stroke-width:0.8;" x="157.271027" xlink:href="#m701ae6c4b2" y="293.272"/>
      </g>
     </g>
     <g id="text_22">
      <!-- 20 -->
      <defs>
       <path d="M 19.1875 8.296875 
L 53.609375 8.296875 
L 53.609375 0 
L 7.328125 0 
L 7.328125 8.296875 
Q 12.9375 14.109375 22.625 23.890625 
Q 32.328125 33.6875 34.8125 36.53125 
Q 39.546875 41.84375 41.421875 45.53125 
Q 43.3125 49.21875 43.3125 52.78125 
Q 43.3125 58.59375 39.234375 62.25 
Q 35.15625 65.921875 28.609375 65.921875 
Q 23.96875 65.921875 18.8125 64.3125 
Q 13.671875 62.703125 7.8125 59.421875 
L 7.8125 69.390625 
Q 13.765625 71.78125 18.9375 73 
Q 24.125 74.21875 28.421875 74.21875 
Q 39.75 74.21875 46.484375 68.546875 
Q 53.21875 62.890625 53.21875 53.421875 
Q 53.21875 48.921875 51.53125 44.890625 
Q 49.859375 40.875 45.40625 35.40625 
Q 44.1875 33.984375 37.640625 27.21875 
Q 31.109375 20.453125 19.1875 8.296875 
z
" id="DejaVuSans-50"/>
      </defs>
      <g transform="translate(150.908527 307.870437)scale(0.1 -0.1)">
       <use xlink:href="#DejaVuSans-50"/>
       <use x="63.623047" xlink:href="#DejaVuSans-48"/>
      </g>
     </g>
    </g>
    <g id="xtick_32">
     <g id="line2d_61">
      <g>
       <use style="stroke:#000000;stroke-width:0.8;" x="190.387267" xlink:href="#m701ae6c4b2" y="293.272"/>
      </g>
     </g>
     <g id="text_23">
      <!-- 30 -->
      <defs>
       <path d="M 40.578125 39.3125 
Q 47.65625 37.796875 51.625 33 
Q 55.609375 28.21875 55.609375 21.1875 
Q 55.609375 10.40625 48.1875 4.484375 
Q 40.765625 -1.421875 27.09375 -1.421875 
Q 22.515625 -1.421875 17.65625 -0.515625 
Q 12.796875 0.390625 7.625 2.203125 
L 7.625 11.71875 
Q 11.71875 9.328125 16.59375 8.109375 
Q 21.484375 6.890625 26.8125 6.890625 
Q 36.078125 6.890625 40.9375 10.546875 
Q 45.796875 14.203125 45.796875 21.1875 
Q 45.796875 27.640625 41.28125 31.265625 
Q 36.765625 34.90625 28.71875 34.90625 
L 20.21875 34.90625 
L 20.21875 43.015625 
L 29.109375 43.015625 
Q 36.375 43.015625 40.234375 45.921875 
Q 44.09375 48.828125 44.09375 54.296875 
Q 44.09375 59.90625 40.109375 62.90625 
Q 36.140625 65.921875 28.71875 65.921875 
Q 24.65625 65.921875 20.015625 65.03125 
Q 15.375 64.15625 9.8125 62.3125 
L 9.8125 71.09375 
Q 15.4375 72.65625 20.34375 73.4375 
Q 25.25 74.21875 29.59375 74.21875 
Q 40.828125 74.21875 47.359375 69.109375 
Q 53.90625 64.015625 53.90625 55.328125 
Q 53.90625 49.265625 50.4375 45.09375 
Q 46.96875 40.921875 40.578125 39.3125 
z
" id="DejaVuSans-51"/>
      </defs>
      <g transform="translate(184.024767 307.870437)scale(0.1 -0.1)">
       <use xlink:href="#DejaVuSans-51"/>
       <use x="63.623047" xlink:href="#DejaVuSans-48"/>
      </g>
     </g>
    </g>
    <g id="xtick_33">
     <g id="line2d_62">
      <g>
       <use style="stroke:#000000;stroke-width:0.8;" x="223.503508" xlink:href="#m701ae6c4b2" y="293.272"/>
      </g>
     </g>
     <g id="text_24">
      <!-- 40 -->
      <defs>
       <path d="M 37.796875 64.3125 
L 12.890625 25.390625 
L 37.796875 25.390625 
z
M 35.203125 72.90625 
L 47.609375 72.90625 
L 47.609375 25.390625 
L 58.015625 25.390625 
L 58.015625 17.1875 
L 47.609375 17.1875 
L 47.609375 0 
L 37.796875 0 
L 37.796875 17.1875 
L 4.890625 17.1875 
L 4.890625 26.703125 
z
" id="DejaVuSans-52"/>
      </defs>
      <g transform="translate(217.141008 307.870437)scale(0.1 -0.1)">
       <use xlink:href="#DejaVuSans-52"/>
       <use x="63.623047" xlink:href="#DejaVuSans-48"/>
      </g>
     </g>
    </g>
    <g id="xtick_34">
     <g id="line2d_63">
      <g>
       <use style="stroke:#000000;stroke-width:0.8;" x="256.619748" xlink:href="#m701ae6c4b2" y="293.272"/>
      </g>
     </g>
     <g id="text_25">
      <!-- 50 -->
      <g transform="translate(250.257248 307.870437)scale(0.1 -0.1)">
       <use xlink:href="#DejaVuSans-53"/>
       <use x="63.623047" xlink:href="#DejaVuSans-48"/>
      </g>
     </g>
    </g>
    <g id="xtick_35">
     <g id="line2d_64">
      <g>
       <use style="stroke:#000000;stroke-width:0.8;" x="289.735989" xlink:href="#m701ae6c4b2" y="293.272"/>
      </g>
     </g>
     <g id="text_26">
      <!-- 60 -->
      <defs>
       <path d="M 33.015625 40.375 
Q 26.375 40.375 22.484375 35.828125 
Q 18.609375 31.296875 18.609375 23.390625 
Q 18.609375 15.53125 22.484375 10.953125 
Q 26.375 6.390625 33.015625 6.390625 
Q 39.65625 6.390625 43.53125 10.953125 
Q 47.40625 15.53125 47.40625 23.390625 
Q 47.40625 31.296875 43.53125 35.828125 
Q 39.65625 40.375 33.015625 40.375 
z
M 52.59375 71.296875 
L 52.59375 62.3125 
Q 48.875 64.0625 45.09375 64.984375 
Q 41.3125 65.921875 37.59375 65.921875 
Q 27.828125 65.921875 22.671875 59.328125 
Q 17.53125 52.734375 16.796875 39.40625 
Q 19.671875 43.65625 24.015625 45.921875 
Q 28.375 48.1875 33.59375 48.1875 
Q 44.578125 48.1875 50.953125 41.515625 
Q 57.328125 34.859375 57.328125 23.390625 
Q 57.328125 12.15625 50.6875 5.359375 
Q 44.046875 -1.421875 33.015625 -1.421875 
Q 20.359375 -1.421875 13.671875 8.265625 
Q 6.984375 17.96875 6.984375 36.375 
Q 6.984375 53.65625 15.1875 63.9375 
Q 23.390625 74.21875 37.203125 74.21875 
Q 40.921875 74.21875 44.703125 73.484375 
Q 48.484375 72.75 52.59375 71.296875 
z
" id="DejaVuSans-54"/>
      </defs>
      <g transform="translate(283.373489 307.870437)scale(0.1 -0.1)">
       <use xlink:href="#DejaVuSans-54"/>
       <use x="63.623047" xlink:href="#DejaVuSans-48"/>
      </g>
     </g>
    </g>
    <g id="text_27">
     <!-- time (seconds) -->
     <g transform="translate(150.759781 321.548563)scale(0.1 -0.1)">
      <use xlink:href="#DejaVuSans-116"/>
      <use x="39.208984" xlink:href="#DejaVuSans-105"/>
      <use x="66.992188" xlink:href="#DejaVuSans-109"/>
      <use x="164.404297" xlink:href="#DejaVuSans-101"/>
      <use x="225.927734" xlink:href="#DejaVuSans-32"/>
      <use x="257.714844" xlink:href="#DejaVuSans-40"/>
      <use x="296.728516" xlink:href="#DejaVuSans-115"/>
      <use x="348.828125" xlink:href="#DejaVuSans-101"/>
      <use x="410.351562" xlink:href="#DejaVuSans-99"/>
      <use x="465.332031" xlink:href="#DejaVuSans-111"/>
      <use x="526.513672" xlink:href="#DejaVuSans-110"/>
      <use x="589.892578" xlink:href="#DejaVuSans-100"/>
      <use x="653.369141" xlink:href="#DejaVuSans-115"/>
      <use x="705.46875" xlink:href="#DejaVuSans-41"/>
     </g>
    </g>
   </g>
   <g id="matplotlib.axis_10">
    <g id="ytick_9">
     <g id="line2d_65">
      <g>
       <use style="stroke:#000000;stroke-width:0.8;" x="81.344" xlink:href="#m1c66d94601" y="293.272"/>
      </g>
     </g>
     <g id="text_28">
      <!-- 0.00 -->
      <defs>
       <path d="M 10.6875 12.40625 
L 21 12.40625 
L 21 0 
L 10.6875 0 
z
" id="DejaVuSans-46"/>
      </defs>
      <g transform="translate(52.078375 297.071219)scale(0.1 -0.1)">
       <use xlink:href="#DejaVuSans-48"/>
       <use x="63.623047" xlink:href="#DejaVuSans-46"/>
       <use x="95.410156" xlink:href="#DejaVuSans-48"/>
       <use x="159.033203" xlink:href="#DejaVuSans-48"/>
      </g>
     </g>
    </g>
    <g id="ytick_10">
     <g id="line2d_66">
      <g>
       <use style="stroke:#000000;stroke-width:0.8;" x="81.344" xlink:href="#m1c66d94601" y="268.373737"/>
      </g>
     </g>
     <g id="text_29">
      <!-- 0.05 -->
      <g transform="translate(52.078375 272.172955)scale(0.1 -0.1)">
       <use xlink:href="#DejaVuSans-48"/>
       <use x="63.623047" xlink:href="#DejaVuSans-46"/>
       <use x="95.410156" xlink:href="#DejaVuSans-48"/>
       <use x="159.033203" xlink:href="#DejaVuSans-53"/>
      </g>
     </g>
    </g>
    <g id="text_30">
     <!-- droprate -->
     <defs>
      <path d="M 34.28125 27.484375 
Q 23.390625 27.484375 19.1875 25 
Q 14.984375 22.515625 14.984375 16.5 
Q 14.984375 11.71875 18.140625 8.90625 
Q 21.296875 6.109375 26.703125 6.109375 
Q 34.1875 6.109375 38.703125 11.40625 
Q 43.21875 16.703125 43.21875 25.484375 
L 43.21875 27.484375 
z
M 52.203125 31.203125 
L 52.203125 0 
L 43.21875 0 
L 43.21875 8.296875 
Q 40.140625 3.328125 35.546875 0.953125 
Q 30.953125 -1.421875 24.3125 -1.421875 
Q 15.921875 -1.421875 10.953125 3.296875 
Q 6 8.015625 6 15.921875 
Q 6 25.140625 12.171875 29.828125 
Q 18.359375 34.515625 30.609375 34.515625 
L 43.21875 34.515625 
L 43.21875 35.40625 
Q 43.21875 41.609375 39.140625 45 
Q 35.0625 48.390625 27.6875 48.390625 
Q 23 48.390625 18.546875 47.265625 
Q 14.109375 46.140625 10.015625 43.890625 
L 10.015625 52.203125 
Q 14.9375 54.109375 19.578125 55.046875 
Q 24.21875 56 28.609375 56 
Q 40.484375 56 46.34375 49.84375 
Q 52.203125 43.703125 52.203125 31.203125 
z
" id="DejaVuSans-97"/>
     </defs>
     <g transform="translate(45.998688 301.195924)rotate(-90)scale(0.1 -0.1)">
      <use xlink:href="#DejaVuSans-100"/>
      <use x="63.476562" xlink:href="#DejaVuSans-114"/>
      <use x="104.558594" xlink:href="#DejaVuSans-111"/>
      <use x="165.740234" xlink:href="#DejaVuSans-112"/>
      <use x="229.216797" xlink:href="#DejaVuSans-114"/>
      <use x="270.330078" xlink:href="#DejaVuSans-97"/>
      <use x="331.609375" xlink:href="#DejaVuSans-116"/>
      <use x="370.818359" xlink:href="#DejaVuSans-101"/>
     </g>
    </g>
   </g>
   <g id="line2d_67">
    <path clip-path="url(#pfaff27f508)" d="M 95.411311 293.272 
L 284.929455 293.272 
L 284.929455 293.272 
" style="fill:none;stroke:#1f77b4;stroke-linecap:square;stroke-width:1.5;"/>
   </g>
   <g id="patch_27">
    <path d="M 81.344 293.272 
L 81.344 265.88391 
" style="fill:none;stroke:#000000;stroke-linecap:square;stroke-linejoin:miter;stroke-width:0.8;"/>
   </g>
   <g id="patch_28">
    <path d="M 294.624 293.272 
L 294.624 265.88391 
" style="fill:none;stroke:#000000;stroke-linecap:square;stroke-linejoin:miter;stroke-width:0.8;"/>
   </g>
   <g id="patch_29">
    <path d="M 81.344 293.272 
L 294.624 293.272 
" style="fill:none;stroke:#000000;stroke-linecap:square;stroke-linejoin:miter;stroke-width:0.8;"/>
   </g>
   <g id="patch_30">
    <path d="M 81.344 265.88391 
L 294.624 265.88391 
" style="fill:none;stroke:#000000;stroke-linecap:square;stroke-linejoin:miter;stroke-width:0.8;"/>
   </g>
   <g id="legend_5">
    <g id="patch_31">
     <path d="M 307.288 294.759848 
L 441.16925 294.759848 
Q 443.16925 294.759848 443.16925 292.759848 
L 443.16925 267.88391 
Q 443.16925 265.88391 441.16925 265.88391 
L 307.288 265.88391 
Q 305.288 265.88391 305.288 267.88391 
L 305.288 292.759848 
Q 305.288 294.759848 307.288 294.759848 
z
" style="fill:#ffffff;opacity:0.8;stroke:#cccccc;stroke-linejoin:miter;"/>
    </g>
    <g id="line2d_68">
     <path d="M 309.288 280.621098 
L 329.288 280.621098 
" style="fill:none;stroke:#1f77b4;stroke-linecap:square;stroke-width:1.5;"/>
    </g>
    <g id="line2d_69"/>
    <g id="text_31">
     <!-- droprate -->
     <g transform="translate(337.288 277.482348)scale(0.1 -0.1)">
      <use xlink:href="#DejaVuSans-100"/>
      <use x="63.476562" xlink:href="#DejaVuSans-114"/>
      <use x="104.558594" xlink:href="#DejaVuSans-111"/>
      <use x="165.740234" xlink:href="#DejaVuSans-112"/>
      <use x="229.216797" xlink:href="#DejaVuSans-114"/>
      <use x="270.330078" xlink:href="#DejaVuSans-97"/>
      <use x="331.609375" xlink:href="#DejaVuSans-116"/>
      <use x="370.818359" xlink:href="#DejaVuSans-101"/>
     </g>
     <!--  percent per 500 ms -->
     <g transform="translate(337.288 288.68016)scale(0.1 -0.1)">
      <use xlink:href="#DejaVuSans-32"/>
      <use x="31.787109" xlink:href="#DejaVuSans-112"/>
      <use x="95.263672" xlink:href="#DejaVuSans-101"/>
      <use x="156.787109" xlink:href="#DejaVuSans-114"/>
      <use x="197.869141" xlink:href="#DejaVuSans-99"/>
      <use x="252.849609" xlink:href="#DejaVuSans-101"/>
      <use x="314.373047" xlink:href="#DejaVuSans-110"/>
      <use x="377.751953" xlink:href="#DejaVuSans-116"/>
      <use x="416.960938" xlink:href="#DejaVuSans-32"/>
      <use x="448.748047" xlink:href="#DejaVuSans-112"/>
      <use x="512.224609" xlink:href="#DejaVuSans-101"/>
      <use x="573.748047" xlink:href="#DejaVuSans-114"/>
      <use x="614.861328" xlink:href="#DejaVuSans-32"/>
      <use x="646.648438" xlink:href="#DejaVuSans-53"/>
      <use x="710.271484" xlink:href="#DejaVuSans-48"/>
      <use x="773.894531" xlink:href="#DejaVuSans-48"/>
      <use x="837.517578" xlink:href="#DejaVuSans-32"/>
      <use x="869.304688" xlink:href="#DejaVuSans-109"/>
      <use x="966.716797" xlink:href="#DejaVuSans-115"/>
     </g>
    </g>
   </g>
  </g>
  <g id="text_32">
   <!-- result -->
   <g transform="translate(207.595 19.0695)scale(0.16 -0.16)">
    <use xlink:href="#DejaVuSans-114"/>
    <use x="41.082031" xlink:href="#DejaVuSans-101"/>
    <use x="102.605469" xlink:href="#DejaVuSans-115"/>
    <use x="154.705078" xlink:href="#DejaVuSans-117"/>
    <use x="218.083984" xlink:href="#DejaVuSans-108"/>
    <use x="245.867188" xlink:href="#DejaVuSans-116"/>
   </g>
  </g>
 </g>
 <defs>
  <clipPath id="p20c8fa4f6d">
   <rect height="27.38809" width="213.28" x="81.344" y="43.07431"/>
  </clipPath>
  <clipPath id="pf3dced4978">
   <rect height="27.38809" width="213.28" x="81.344" y="98.77671"/>
  </clipPath>
  <clipPath id="p8b5cba4152">
   <rect height="27.38809" width="213.28" x="81.344" y="154.47911"/>
  </clipPath>
  <clipPath id="p1fb5d49e31">
   <rect height="27.38809" width="213.28" x="81.344" y="210.18151"/>
  </clipPath>
  <clipPath id="pfaff27f508">
   <rect height="27.38809" width="213.28" x="81.344" y="265.88391"/>
  </clipPath>
 </defs>
</svg>
