<?xml version="1.0" encoding="utf-8" standalone="no"?>
<!DOCTYPE svg PUBLIC "-//W3C//DTD SVG 1.1//EN"
  "http://www.w3.org/Graphics/SVG/1.1/DTD/svg11.dtd">
<!-- Created with matplotlib (https://matplotlib.org/) -->
<svg height="396pt" version="1.1" viewBox="0 0 684 396" width="684pt" xmlns="http://www.w3.org/2000/svg" xmlns:xlink="http://www.w3.org/1999/xlink">
 <defs>
  <style type="text/css">
*{stroke-linecap:butt;stroke-linejoin:round;}
  </style>
 </defs>
 <g id="figure_1">
  <g id="patch_1">
   <path d="M 0 396 
L 684 396 
L 684 0 
L 0 0 
z
" style="fill:#ffffff;"/>
  </g>
  <g id="axes_1">
   <g id="patch_2">
    <path d="M 120.878594 352.174167 
L 540.734062 352.174167 
L 540.734062 35.0625 
L 120.878594 35.0625 
z
" style="fill:#ffffff;"/>
   </g>
   <g id="matplotlib.axis_1">
    <g id="xtick_1">
     <g id="line2d_1">
      <defs>
       <path d="M 0 0 
L 0 3.5 
" id="m2e47564ad7" style="stroke:#000000;stroke-width:0.8;"/>
      </defs>
      <g>
       <use style="stroke:#000000;stroke-width:0.8;" x="144.014232" xlink:href="#m2e47564ad7" y="352.174167"/>
      </g>
     </g>
     <g id="text_1">
      <!-- 0 -->
      <defs>
       <path d="M 31.78125 66.40625 
Q 24.171875 66.40625 20.328125 58.90625 
Q 16.5 51.421875 16.5 36.375 
Q 16.5 21.390625 20.328125 13.890625 
Q 24.171875 6.390625 31.78125 6.390625 
Q 39.453125 6.390625 43.28125 13.890625 
Q 47.125 21.390625 47.125 36.375 
Q 47.125 51.421875 43.28125 58.90625 
Q 39.453125 66.40625 31.78125 66.40625 
z
M 31.78125 74.21875 
Q 44.046875 74.21875 50.515625 64.515625 
Q 56.984375 54.828125 56.984375 36.375 
Q 56.984375 17.96875 50.515625 8.265625 
Q 44.046875 -1.421875 31.78125 -1.421875 
Q 19.53125 -1.421875 13.0625 8.265625 
Q 6.59375 17.96875 6.59375 36.375 
Q 6.59375 54.828125 13.0625 64.515625 
Q 19.53125 74.21875 31.78125 74.21875 
z
" id="DejaVuSans-48"/>
      </defs>
      <g transform="translate(140.832982 366.772604)scale(0.1 -0.1)">
       <use xlink:href="#DejaVuSans-48"/>
      </g>
     </g>
    </g>
    <g id="xtick_2">
     <g id="line2d_2">
      <g>
       <use style="stroke:#000000;stroke-width:0.8;" x="210.606918" xlink:href="#m2e47564ad7" y="352.174167"/>
      </g>
     </g>
     <g id="text_2">
      <!-- 50 -->
      <defs>
       <path d="M 10.796875 72.90625 
L 49.515625 72.90625 
L 49.515625 64.59375 
L 19.828125 64.59375 
L 19.828125 46.734375 
Q 21.96875 47.46875 24.109375 47.828125 
Q 26.265625 48.1875 28.421875 48.1875 
Q 40.625 48.1875 47.75 41.5 
Q 54.890625 34.8125 54.890625 23.390625 
Q 54.890625 11.625 47.5625 5.09375 
Q 40.234375 -1.421875 26.90625 -1.421875 
Q 22.3125 -1.421875 17.546875 -0.640625 
Q 12.796875 0.140625 7.71875 1.703125 
L 7.71875 11.625 
Q 12.109375 9.234375 16.796875 8.0625 
Q 21.484375 6.890625 26.703125 6.890625 
Q 35.15625 6.890625 40.078125 11.328125 
Q 45.015625 15.765625 45.015625 23.390625 
Q 45.015625 31 40.078125 35.4375 
Q 35.15625 39.890625 26.703125 39.890625 
Q 22.75 39.890625 18.8125 39.015625 
Q 14.890625 38.140625 10.796875 36.28125 
z
" id="DejaVuSans-53"/>
      </defs>
      <g transform="translate(204.244418 366.772604)scale(0.1 -0.1)">
       <use xlink:href="#DejaVuSans-53"/>
       <use x="63.623047" xlink:href="#DejaVuSans-48"/>
      </g>
     </g>
    </g>
    <g id="xtick_3">
     <g id="line2d_3">
      <g>
       <use style="stroke:#000000;stroke-width:0.8;" x="277.199603" xlink:href="#m2e47564ad7" y="352.174167"/>
      </g>
     </g>
     <g id="text_3">
      <!-- 100 -->
      <defs>
       <path d="M 12.40625 8.296875 
L 28.515625 8.296875 
L 28.515625 63.921875 
L 10.984375 60.40625 
L 10.984375 69.390625 
L 28.421875 72.90625 
L 38.28125 72.90625 
L 38.28125 8.296875 
L 54.390625 8.296875 
L 54.390625 0 
L 12.40625 0 
z
" id="DejaVuSans-49"/>
      </defs>
      <g transform="translate(267.655853 366.772604)scale(0.1 -0.1)">
       <use xlink:href="#DejaVuSans-49"/>
       <use x="63.623047" xlink:href="#DejaVuSans-48"/>
       <use x="127.246094" xlink:href="#DejaVuSans-48"/>
      </g>
     </g>
    </g>
    <g id="xtick_4">
     <g id="line2d_4">
      <g>
       <use style="stroke:#000000;stroke-width:0.8;" x="343.792288" xlink:href="#m2e47564ad7" y="352.174167"/>
      </g>
     </g>
     <g id="text_4">
      <!-- 150 -->
      <g transform="translate(334.248538 366.772604)scale(0.1 -0.1)">
       <use xlink:href="#DejaVuSans-49"/>
       <use x="63.623047" xlink:href="#DejaVuSans-53"/>
       <use x="127.246094" xlink:href="#DejaVuSans-48"/>
      </g>
     </g>
    </g>
    <g id="xtick_5">
     <g id="line2d_5">
      <g>
       <use style="stroke:#000000;stroke-width:0.8;" x="410.384973" xlink:href="#m2e47564ad7" y="352.174167"/>
      </g>
     </g>
     <g id="text_5">
      <!-- 200 -->
      <defs>
       <path d="M 19.1875 8.296875 
L 53.609375 8.296875 
L 53.609375 0 
L 7.328125 0 
L 7.328125 8.296875 
Q 12.9375 14.109375 22.625 23.890625 
Q 32.328125 33.6875 34.8125 36.53125 
Q 39.546875 41.84375 41.421875 45.53125 
Q 43.3125 49.21875 43.3125 52.78125 
Q 43.3125 58.59375 39.234375 62.25 
Q 35.15625 65.921875 28.609375 65.921875 
Q 23.96875 65.921875 18.8125 64.3125 
Q 13.671875 62.703125 7.8125 59.421875 
L 7.8125 69.390625 
Q 13.765625 71.78125 18.9375 73 
Q 24.125 74.21875 28.421875 74.21875 
Q 39.75 74.21875 46.484375 68.546875 
Q 53.21875 62.890625 53.21875 53.421875 
Q 53.21875 48.921875 51.53125 44.890625 
Q 49.859375 40.875 45.40625 35.40625 
Q 44.1875 33.984375 37.640625 27.21875 
Q 31.109375 20.453125 19.1875 8.296875 
z
" id="DejaVuSans-50"/>
      </defs>
      <g transform="translate(400.841223 366.772604)scale(0.1 -0.1)">
       <use xlink:href="#DejaVuSans-50"/>
       <use x="63.623047" xlink:href="#DejaVuSans-48"/>
       <use x="127.246094" xlink:href="#DejaVuSans-48"/>
      </g>
     </g>
    </g>
    <g id="xtick_6">
     <g id="line2d_6">
      <g>
       <use style="stroke:#000000;stroke-width:0.8;" x="476.977659" xlink:href="#m2e47564ad7" y="352.174167"/>
      </g>
     </g>
     <g id="text_6">
      <!-- 250 -->
      <g transform="translate(467.433909 366.772604)scale(0.1 -0.1)">
       <use xlink:href="#DejaVuSans-50"/>
       <use x="63.623047" xlink:href="#DejaVuSans-53"/>
       <use x="127.246094" xlink:href="#DejaVuSans-48"/>
      </g>
     </g>
    </g>
   </g>
   <g id="matplotlib.axis_2">
    <g id="ytick_1">
     <g id="line2d_7">
      <defs>
       <path d="M 0 0 
L -3.5 0 
" id="mc861ee086a" style="stroke:#000000;stroke-width:0.8;"/>
      </defs>
      <g>
       <use style="stroke:#000000;stroke-width:0.8;" x="120.878594" xlink:href="#mc861ee086a" y="352.174167"/>
      </g>
     </g>
     <g id="text_7">
      <!-- 0 -->
      <g transform="translate(107.516094 355.973385)scale(0.1 -0.1)">
       <use xlink:href="#DejaVuSans-48"/>
      </g>
     </g>
    </g>
    <g id="ytick_2">
     <g id="line2d_8">
      <g>
       <use style="stroke:#000000;stroke-width:0.8;" x="120.878594" xlink:href="#mc861ee086a" y="308.80918"/>
      </g>
     </g>
     <g id="text_8">
      <!-- 20000 -->
      <g transform="translate(82.066094 312.608399)scale(0.1 -0.1)">
       <use xlink:href="#DejaVuSans-50"/>
       <use x="63.623047" xlink:href="#DejaVuSans-48"/>
       <use x="127.246094" xlink:href="#DejaVuSans-48"/>
       <use x="190.869141" xlink:href="#DejaVuSans-48"/>
       <use x="254.492188" xlink:href="#DejaVuSans-48"/>
      </g>
     </g>
    </g>
    <g id="ytick_3">
     <g id="line2d_9">
      <g>
       <use style="stroke:#000000;stroke-width:0.8;" x="120.878594" xlink:href="#mc861ee086a" y="265.444194"/>
      </g>
     </g>
     <g id="text_9">
      <!-- 40000 -->
      <defs>
       <path d="M 37.796875 64.3125 
L 12.890625 25.390625 
L 37.796875 25.390625 
z
M 35.203125 72.90625 
L 47.609375 72.90625 
L 47.609375 25.390625 
L 58.015625 25.390625 
L 58.015625 17.1875 
L 47.609375 17.1875 
L 47.609375 0 
L 37.796875 0 
L 37.796875 17.1875 
L 4.890625 17.1875 
L 4.890625 26.703125 
z
" id="DejaVuSans-52"/>
      </defs>
      <g transform="translate(82.066094 269.243413)scale(0.1 -0.1)">
       <use xlink:href="#DejaVuSans-52"/>
       <use x="63.623047" xlink:href="#DejaVuSans-48"/>
       <use x="127.246094" xlink:href="#DejaVuSans-48"/>
       <use x="190.869141" xlink:href="#DejaVuSans-48"/>
       <use x="254.492188" xlink:href="#DejaVuSans-48"/>
      </g>
     </g>
    </g>
    <g id="ytick_4">
     <g id="line2d_10">
      <g>
       <use style="stroke:#000000;stroke-width:0.8;" x="120.878594" xlink:href="#mc861ee086a" y="222.079208"/>
      </g>
     </g>
     <g id="text_10">
      <!-- 60000 -->
      <defs>
       <path d="M 33.015625 40.375 
Q 26.375 40.375 22.484375 35.828125 
Q 18.609375 31.296875 18.609375 23.390625 
Q 18.609375 15.53125 22.484375 10.953125 
Q 26.375 6.390625 33.015625 6.390625 
Q 39.65625 6.390625 43.53125 10.953125 
Q 47.40625 15.53125 47.40625 23.390625 
Q 47.40625 31.296875 43.53125 35.828125 
Q 39.65625 40.375 33.015625 40.375 
z
M 52.59375 71.296875 
L 52.59375 62.3125 
Q 48.875 64.0625 45.09375 64.984375 
Q 41.3125 65.921875 37.59375 65.921875 
Q 27.828125 65.921875 22.671875 59.328125 
Q 17.53125 52.734375 16.796875 39.40625 
Q 19.671875 43.65625 24.015625 45.921875 
Q 28.375 48.1875 33.59375 48.1875 
Q 44.578125 48.1875 50.953125 41.515625 
Q 57.328125 34.859375 57.328125 23.390625 
Q 57.328125 12.15625 50.6875 5.359375 
Q 44.046875 -1.421875 33.015625 -1.421875 
Q 20.359375 -1.421875 13.671875 8.265625 
Q 6.984375 17.96875 6.984375 36.375 
Q 6.984375 53.65625 15.1875 63.9375 
Q 23.390625 74.21875 37.203125 74.21875 
Q 40.921875 74.21875 44.703125 73.484375 
Q 48.484375 72.75 52.59375 71.296875 
z
" id="DejaVuSans-54"/>
      </defs>
      <g transform="translate(82.066094 225.878426)scale(0.1 -0.1)">
       <use xlink:href="#DejaVuSans-54"/>
       <use x="63.623047" xlink:href="#DejaVuSans-48"/>
       <use x="127.246094" xlink:href="#DejaVuSans-48"/>
       <use x="190.869141" xlink:href="#DejaVuSans-48"/>
       <use x="254.492188" xlink:href="#DejaVuSans-48"/>
      </g>
     </g>
    </g>
    <g id="ytick_5">
     <g id="line2d_11">
      <g>
       <use style="stroke:#000000;stroke-width:0.8;" x="120.878594" xlink:href="#mc861ee086a" y="178.714221"/>
      </g>
     </g>
     <g id="text_11">
      <!-- 80000 -->
      <defs>
       <path d="M 31.78125 34.625 
Q 24.75 34.625 20.71875 30.859375 
Q 16.703125 27.09375 16.703125 20.515625 
Q 16.703125 13.921875 20.71875 10.15625 
Q 24.75 6.390625 31.78125 6.390625 
Q 38.8125 6.390625 42.859375 10.171875 
Q 46.921875 13.96875 46.921875 20.515625 
Q 46.921875 27.09375 42.890625 30.859375 
Q 38.875 34.625 31.78125 34.625 
z
M 21.921875 38.8125 
Q 15.578125 40.375 12.03125 44.71875 
Q 8.5 49.078125 8.5 55.328125 
Q 8.5 64.0625 14.71875 69.140625 
Q 20.953125 74.21875 31.78125 74.21875 
Q 42.671875 74.21875 48.875 69.140625 
Q 55.078125 64.0625 55.078125 55.328125 
Q 55.078125 49.078125 51.53125 44.71875 
Q 48 40.375 41.703125 38.8125 
Q 48.828125 37.15625 52.796875 32.3125 
Q 56.78125 27.484375 56.78125 20.515625 
Q 56.78125 9.90625 50.3125 4.234375 
Q 43.84375 -1.421875 31.78125 -1.421875 
Q 19.734375 -1.421875 13.25 4.234375 
Q 6.78125 9.90625 6.78125 20.515625 
Q 6.78125 27.484375 10.78125 32.3125 
Q 14.796875 37.15625 21.921875 38.8125 
z
M 18.3125 54.390625 
Q 18.3125 48.734375 21.84375 45.5625 
Q 25.390625 42.390625 31.78125 42.390625 
Q 38.140625 42.390625 41.71875 45.5625 
Q 45.3125 48.734375 45.3125 54.390625 
Q 45.3125 60.0625 41.71875 63.234375 
Q 38.140625 66.40625 31.78125 66.40625 
Q 25.390625 66.40625 21.84375 63.234375 
Q 18.3125 60.0625 18.3125 54.390625 
z
" id="DejaVuSans-56"/>
      </defs>
      <g transform="translate(82.066094 182.51344)scale(0.1 -0.1)">
       <use xlink:href="#DejaVuSans-56"/>
       <use x="63.623047" xlink:href="#DejaVuSans-48"/>
       <use x="127.246094" xlink:href="#DejaVuSans-48"/>
       <use x="190.869141" xlink:href="#DejaVuSans-48"/>
       <use x="254.492188" xlink:href="#DejaVuSans-48"/>
      </g>
     </g>
    </g>
    <g id="ytick_6">
     <g id="line2d_12">
      <g>
       <use style="stroke:#000000;stroke-width:0.8;" x="120.878594" xlink:href="#mc861ee086a" y="135.349235"/>
      </g>
     </g>
     <g id="text_12">
      <!-- 100000 -->
      <g transform="translate(75.703594 139.148454)scale(0.1 -0.1)">
       <use xlink:href="#DejaVuSans-49"/>
       <use x="63.623047" xlink:href="#DejaVuSans-48"/>
       <use x="127.246094" xlink:href="#DejaVuSans-48"/>
       <use x="190.869141" xlink:href="#DejaVuSans-48"/>
       <use x="254.492188" xlink:href="#DejaVuSans-48"/>
       <use x="318.115234" xlink:href="#DejaVuSans-48"/>
      </g>
     </g>
    </g>
    <g id="ytick_7">
     <g id="line2d_13">
      <g>
       <use style="stroke:#000000;stroke-width:0.8;" x="120.878594" xlink:href="#mc861ee086a" y="91.984248"/>
      </g>
     </g>
     <g id="text_13">
      <!-- 120000 -->
      <g transform="translate(75.703594 95.783467)scale(0.1 -0.1)">
       <use xlink:href="#DejaVuSans-49"/>
       <use x="63.623047" xlink:href="#DejaVuSans-50"/>
       <use x="127.246094" xlink:href="#DejaVuSans-48"/>
       <use x="190.869141" xlink:href="#DejaVuSans-48"/>
       <use x="254.492188" xlink:href="#DejaVuSans-48"/>
       <use x="318.115234" xlink:href="#DejaVuSans-48"/>
      </g>
     </g>
    </g>
    <g id="ytick_8">
     <g id="line2d_14">
      <g>
       <use style="stroke:#000000;stroke-width:0.8;" x="120.878594" xlink:href="#mc861ee086a" y="48.619262"/>
      </g>
     </g>
     <g id="text_14">
      <!-- 140000 -->
      <g transform="translate(75.703594 52.418481)scale(0.1 -0.1)">
       <use xlink:href="#DejaVuSans-49"/>
       <use x="63.623047" xlink:href="#DejaVuSans-52"/>
       <use x="127.246094" xlink:href="#DejaVuSans-48"/>
       <use x="190.869141" xlink:href="#DejaVuSans-48"/>
       <use x="254.492188" xlink:href="#DejaVuSans-48"/>
       <use x="318.115234" xlink:href="#DejaVuSans-48"/>
      </g>
     </g>
    </g>
    <g id="text_15">
     <!-- queue -->
     <defs>
      <path d="M 14.796875 27.296875 
Q 14.796875 17.390625 18.875 11.75 
Q 22.953125 6.109375 30.078125 6.109375 
Q 37.203125 6.109375 41.296875 11.75 
Q 45.40625 17.390625 45.40625 27.296875 
Q 45.40625 37.203125 41.296875 42.84375 
Q 37.203125 48.484375 30.078125 48.484375 
Q 22.953125 48.484375 18.875 42.84375 
Q 14.796875 37.203125 14.796875 27.296875 
z
M 45.40625 8.203125 
Q 42.578125 3.328125 38.25 0.953125 
Q 33.9375 -1.421875 27.875 -1.421875 
Q 17.96875 -1.421875 11.734375 6.484375 
Q 5.515625 14.40625 5.515625 27.296875 
Q 5.515625 40.1875 11.734375 48.09375 
Q 17.96875 56 27.875 56 
Q 33.9375 56 38.25 53.625 
Q 42.578125 51.265625 45.40625 46.390625 
L 45.40625 54.6875 
L 54.390625 54.6875 
L 54.390625 -20.796875 
L 45.40625 -20.796875 
z
" id="DejaVuSans-113"/>
      <path d="M 8.5 21.578125 
L 8.5 54.6875 
L 17.484375 54.6875 
L 17.484375 21.921875 
Q 17.484375 14.15625 20.5 10.265625 
Q 23.53125 6.390625 29.59375 6.390625 
Q 36.859375 6.390625 41.078125 11.03125 
Q 45.3125 15.671875 45.3125 23.6875 
L 45.3125 54.6875 
L 54.296875 54.6875 
L 54.296875 0 
L 45.3125 0 
L 45.3125 8.40625 
Q 42.046875 3.421875 37.71875 1 
Q 33.40625 -1.421875 27.6875 -1.421875 
Q 18.265625 -1.421875 13.375 4.4375 
Q 8.5 10.296875 8.5 21.578125 
z
M 31.109375 56 
z
" id="DejaVuSans-117"/>
      <path d="M 56.203125 29.59375 
L 56.203125 25.203125 
L 14.890625 25.203125 
Q 15.484375 15.921875 20.484375 11.0625 
Q 25.484375 6.203125 34.421875 6.203125 
Q 39.59375 6.203125 44.453125 7.46875 
Q 49.3125 8.734375 54.109375 11.28125 
L 54.109375 2.78125 
Q 49.265625 0.734375 44.1875 -0.34375 
Q 39.109375 -1.421875 33.890625 -1.421875 
Q 20.796875 -1.421875 13.15625 6.1875 
Q 5.515625 13.8125 5.515625 26.8125 
Q 5.515625 40.234375 12.765625 48.109375 
Q 20.015625 56 32.328125 56 
Q 43.359375 56 49.78125 48.890625 
Q 56.203125 41.796875 56.203125 29.59375 
z
M 47.21875 32.234375 
Q 47.125 39.59375 43.09375 43.984375 
Q 39.0625 48.390625 32.421875 48.390625 
Q 24.90625 48.390625 20.390625 44.140625 
Q 15.875 39.890625 15.1875 32.171875 
z
" id="DejaVuSans-101"/>
     </defs>
     <g transform="translate(58.426094 209.283177)rotate(-90)scale(0.1 -0.1)">
      <use xlink:href="#DejaVuSans-113"/>
      <use x="63.476562" xlink:href="#DejaVuSans-117"/>
      <use x="126.855469" xlink:href="#DejaVuSans-101"/>
      <use x="188.378906" xlink:href="#DejaVuSans-117"/>
      <use x="251.757812" xlink:href="#DejaVuSans-101"/>
     </g>
     <!-- (bytes) -->
     <defs>
      <path d="M 31 75.875 
Q 24.46875 64.65625 21.28125 53.65625 
Q 18.109375 42.671875 18.109375 31.390625 
Q 18.109375 20.125 21.3125 9.0625 
Q 24.515625 -2 31 -13.1875 
L 23.1875 -13.1875 
Q 15.875 -1.703125 12.234375 9.375 
Q 8.59375 20.453125 8.59375 31.390625 
Q 8.59375 42.28125 12.203125 53.3125 
Q 15.828125 64.359375 23.1875 75.875 
z
" id="DejaVuSans-40"/>
      <path d="M 48.6875 27.296875 
Q 48.6875 37.203125 44.609375 42.84375 
Q 40.53125 48.484375 33.40625 48.484375 
Q 26.265625 48.484375 22.1875 42.84375 
Q 18.109375 37.203125 18.109375 27.296875 
Q 18.109375 17.390625 22.1875 11.75 
Q 26.265625 6.109375 33.40625 6.109375 
Q 40.53125 6.109375 44.609375 11.75 
Q 48.6875 17.390625 48.6875 27.296875 
z
M 18.109375 46.390625 
Q 20.953125 51.265625 25.265625 53.625 
Q 29.59375 56 35.59375 56 
Q 45.5625 56 51.78125 48.09375 
Q 58.015625 40.1875 58.015625 27.296875 
Q 58.015625 14.40625 51.78125 6.484375 
Q 45.5625 -1.421875 35.59375 -1.421875 
Q 29.59375 -1.421875 25.265625 0.953125 
Q 20.953125 3.328125 18.109375 8.203125 
L 18.109375 0 
L 9.078125 0 
L 9.078125 75.984375 
L 18.109375 75.984375 
z
" id="DejaVuSans-98"/>
      <path d="M 32.171875 -5.078125 
Q 28.375 -14.84375 24.75 -17.8125 
Q 21.140625 -20.796875 15.09375 -20.796875 
L 7.90625 -20.796875 
L 7.90625 -13.28125 
L 13.1875 -13.28125 
Q 16.890625 -13.28125 18.9375 -11.515625 
Q 21 -9.765625 23.484375 -3.21875 
L 25.09375 0.875 
L 2.984375 54.6875 
L 12.5 54.6875 
L 29.59375 11.921875 
L 46.6875 54.6875 
L 56.203125 54.6875 
z
" id="DejaVuSans-121"/>
      <path d="M 18.3125 70.21875 
L 18.3125 54.6875 
L 36.8125 54.6875 
L 36.8125 47.703125 
L 18.3125 47.703125 
L 18.3125 18.015625 
Q 18.3125 11.328125 20.140625 9.421875 
Q 21.96875 7.515625 27.59375 7.515625 
L 36.8125 7.515625 
L 36.8125 0 
L 27.59375 0 
Q 17.1875 0 13.234375 3.875 
Q 9.28125 7.765625 9.28125 18.015625 
L 9.28125 47.703125 
L 2.6875 47.703125 
L 2.6875 54.6875 
L 9.28125 54.6875 
L 9.28125 70.21875 
z
" id="DejaVuSans-116"/>
      <path d="M 44.28125 53.078125 
L 44.28125 44.578125 
Q 40.484375 46.53125 36.375 47.5 
Q 32.28125 48.484375 27.875 48.484375 
Q 21.1875 48.484375 17.84375 46.4375 
Q 14.5 44.390625 14.5 40.28125 
Q 14.5 37.15625 16.890625 35.375 
Q 19.28125 33.59375 26.515625 31.984375 
L 29.59375 31.296875 
Q 39.15625 29.25 43.1875 25.515625 
Q 47.21875 21.78125 47.21875 15.09375 
Q 47.21875 7.46875 41.1875 3.015625 
Q 35.15625 -1.421875 24.609375 -1.421875 
Q 20.21875 -1.421875 15.453125 -0.5625 
Q 10.6875 0.296875 5.421875 2 
L 5.421875 11.28125 
Q 10.40625 8.6875 15.234375 7.390625 
Q 20.0625 6.109375 24.8125 6.109375 
Q 31.15625 6.109375 34.5625 8.28125 
Q 37.984375 10.453125 37.984375 14.40625 
Q 37.984375 18.0625 35.515625 20.015625 
Q 33.0625 21.96875 24.703125 23.78125 
L 21.578125 24.515625 
Q 13.234375 26.265625 9.515625 29.90625 
Q 5.8125 33.546875 5.8125 39.890625 
Q 5.8125 47.609375 11.28125 51.796875 
Q 16.75 56 26.8125 56 
Q 31.78125 56 36.171875 55.265625 
Q 40.578125 54.546875 44.28125 53.078125 
z
" id="DejaVuSans-115"/>
      <path d="M 8.015625 75.875 
L 15.828125 75.875 
Q 23.140625 64.359375 26.78125 53.3125 
Q 30.421875 42.28125 30.421875 31.390625 
Q 30.421875 20.453125 26.78125 9.375 
Q 23.140625 -1.703125 15.828125 -13.1875 
L 8.015625 -13.1875 
Q 14.5 -2 17.703125 9.0625 
Q 20.90625 20.125 20.90625 31.390625 
Q 20.90625 42.671875 17.703125 53.65625 
Q 14.5 64.65625 8.015625 75.875 
z
" id="DejaVuSans-41"/>
     </defs>
     <g transform="translate(69.623906 211.294896)rotate(-90)scale(0.1 -0.1)">
      <use xlink:href="#DejaVuSans-40"/>
      <use x="39.013672" xlink:href="#DejaVuSans-98"/>
      <use x="102.490234" xlink:href="#DejaVuSans-121"/>
      <use x="161.669922" xlink:href="#DejaVuSans-116"/>
      <use x="200.878906" xlink:href="#DejaVuSans-101"/>
      <use x="262.402344" xlink:href="#DejaVuSans-115"/>
      <use x="314.501953" xlink:href="#DejaVuSans-41"/>
     </g>
    </g>
   </g>
   <g id="line2d_15">
    <path clip-path="url(#p856b28b9b1)" d="M 139.962933 352.174167 
L 143.352549 352.174167 
L 143.499834 56.728514 
L 143.643242 299.650495 
L 143.784105 250.409553 
L 143.924846 263.540471 
L 144.065548 256.975012 
L 144.206683 214.299529 
L 144.347729 253.692283 
L 144.489109 247.126824 
L 144.630454 224.147717 
L 144.771594 230.713176 
L 144.912848 214.299529 
L 145.201473 260.257742 
L 145.342044 270.10593 
L 145.48262 220.864988 
L 145.623863 283.236848 
L 145.765097 276.684398 
L 146.04794 245.418243 
L 146.188836 53.445785 
L 146.330183 50.163056 
L 146.471426 50.163056 
L 146.612635 56.728514 
L 146.895745 171.624046 
L 147.457155 266.8232 
L 147.738442 309.498684 
L 147.878603 296.367766 
L 148.019753 122.383104 
L 148.159936 174.906775 
L 148.440115 53.445785 
L 148.579913 60.011244 
L 148.719851 135.514022 
L 149.000757 142.079481 
L 149.143746 63.293973 
L 149.427697 82.99035 
L 149.570421 56.728514 
L 149.711939 66.576703 
L 149.851707 197.885882 
L 149.991692 158.493128 
L 150.131956 171.624046 
L 150.272061 168.341316 
L 150.551885 237.278635 
L 150.833467 188.037693 
L 150.97433 53.445785 
L 151.117141 53.445785 
L 151.259342 79.707621 
L 151.399441 128.788112 
L 151.539346 60.011244 
L 151.681729 220.864988 
L 151.823802 109.252186 
L 151.964888 132.231292 
L 152.105275 227.430447 
L 152.52815 56.728514 
L 152.669112 69.859432 
L 152.809824 53.445785 
L 152.94991 69.859432 
L 153.091553 66.576703 
L 153.377888 240.561365 
L 153.659894 82.99035 
L 153.800597 184.754964 
L 153.941331 53.445785 
L 154.082843 82.99035 
L 154.223128 73.142162 
L 154.363402 142.079481 
L 154.503956 112.534915 
L 154.64442 217.582258 
L 154.927594 60.011244 
L 155.067755 99.403998 
L 155.207743 60.011244 
L 155.347946 56.728514 
L 155.488469 56.728514 
L 155.909421 191.320423 
L 156.051017 82.99035 
L 156.193716 102.686727 
L 156.3342 201.19463 
L 156.756009 109.252186 
L 156.89661 197.885882 
L 157.03676 161.775857 
L 157.177291 60.011244 
L 157.318413 53.445785 
L 157.459689 63.293973 
L 157.601056 204.451341 
L 157.741696 145.36221 
L 157.88257 171.624046 
L 158.023168 132.231292 
L 158.163627 53.445785 
L 158.30407 92.838539 
L 158.444697 79.707621 
L 158.586708 237.278635 
L 158.733399 161.775857 
L 158.873876 289.802307 
L 159.015879 112.534915 
L 159.156414 142.079481 
L 159.439994 60.011244 
L 159.725216 132.231292 
L 159.866192 286.519577 
L 160.007961 63.293973 
L 160.152018 50.163056 
L 160.292077 188.037693 
L 160.431954 151.927669 
L 160.571785 165.058587 
L 160.851461 50.163056 
L 160.993261 148.64494 
L 161.133359 148.64494 
L 161.284737 142.079481 
L 161.425342 115.817645 
L 161.570474 201.19463 
L 161.850997 79.707621 
L 162.131164 352.174167 
L 162.411281 53.445785 
L 162.551995 50.163056 
L 162.693583 50.163056 
L 163.117978 194.603152 
L 163.259922 53.445785 
L 163.399844 142.079481 
L 163.539713 53.445785 
L 163.680201 174.906775 
L 163.962211 56.728514 
L 164.24393 194.603152 
L 164.385467 211.0168 
L 164.527055 276.684398 
L 164.808287 92.838539 
L 164.95199 247.126824 
L 165.092967 60.011244 
L 165.234907 214.299529 
L 165.376717 56.728514 
L 165.517637 56.728514 
L 165.661108 53.445785 
L 165.803823 128.948563 
L 165.946704 279.954118 
L 166.087711 56.728514 
L 166.228751 204.451341 
L 166.369272 56.728514 
L 166.510385 151.927669 
L 166.651659 69.859432 
L 166.792155 105.969457 
L 167.076907 76.424891 
L 167.2177 119.100374 
L 167.358457 89.555809 
L 167.498224 128.948563 
L 167.638295 79.707621 
L 167.920399 188.037693 
L 168.060967 53.445785 
L 168.201404 240.561365 
L 168.342356 56.728514 
L 168.483225 211.0168 
L 168.623926 82.99035 
L 168.764603 73.142162 
L 168.905406 79.707621 
L 169.045651 96.121268 
L 169.185602 53.445785 
L 169.329116 56.728514 
L 169.469165 56.728514 
L 169.610191 60.011244 
L 169.755446 53.445785 
L 169.89536 178.189505 
L 170.174846 82.99035 
L 170.314744 211.0168 
L 170.454608 132.231292 
L 170.596333 125.665833 
L 170.880762 56.728514 
L 171.020586 63.293973 
L 171.161097 119.100374 
L 171.30084 63.293973 
L 171.582534 50.163056 
L 172.006742 191.320423 
L 172.147663 211.0168 
L 172.289348 92.838539 
L 172.430049 69.859432 
L 172.570726 125.665833 
L 172.852214 50.163056 
L 172.993184 96.121268 
L 173.133439 53.445785 
L 173.415887 168.341316 
L 173.558527 204.451341 
L 173.842643 56.728514 
L 173.983695 89.555809 
L 174.124717 96.121268 
L 174.265695 224.147717 
L 174.406729 53.445785 
L 174.697364 191.320423 
L 174.837471 63.293973 
L 174.978615 60.011244 
L 175.26401 243.844094 
L 175.404391 63.293973 
L 175.545231 79.707621 
L 175.686051 135.514022 
L 175.825947 352.174167 
L 176.106789 99.403998 
L 176.247695 109.252186 
L 176.530013 329.19506 
L 176.670844 73.142162 
L 176.952413 53.445785 
L 177.093144 197.885882 
L 177.234038 73.142162 
L 177.375132 256.975012 
L 177.515789 56.728514 
L 177.657281 112.534915 
L 177.798005 289.802307 
L 177.93866 92.838539 
L 178.078961 217.582258 
L 178.221472 60.011244 
L 178.362212 53.445785 
L 178.644538 138.796751 
L 178.92832 201.19463 
L 179.069107 178.189505 
L 179.209845 79.707621 
L 179.351061 132.231292 
L 179.493737 322.629601 
L 179.633816 53.445785 
L 179.774615 50.163056 
L 180.058619 207.73407 
L 180.200647 63.293973 
L 180.341505 89.555809 
L 180.485671 82.99035 
L 180.76788 194.603152 
L 180.908813 188.037693 
L 181.050523 56.728514 
L 181.192073 92.838539 
L 181.334476 217.582258 
L 181.475312 56.728514 
L 181.617917 142.079481 
L 181.760428 76.424891 
L 181.901888 96.121268 
L 182.044199 247.126824 
L 182.185714 73.142162 
L 182.33158 73.142162 
L 182.473023 233.995906 
L 182.616046 56.728514 
L 182.757419 73.142162 
L 182.899999 63.293973 
L 183.040127 66.576703 
L 183.180959 197.885882 
L 183.322474 128.948563 
L 183.463224 227.430447 
L 183.60409 217.582258 
L 183.890564 79.707621 
L 184.032366 302.933225 
L 184.17321 89.555809 
L 184.314785 79.707621 
L 184.599353 122.383104 
L 184.741614 60.011244 
L 184.883161 53.445785 
L 185.025358 60.011244 
L 185.168322 96.121268 
L 185.311496 207.73407 
L 185.452899 56.728514 
L 185.593723 227.430447 
L 185.735133 73.142162 
L 185.875414 66.576703 
L 186.017073 128.948563 
L 186.158266 82.99035 
L 186.299508 191.320423 
L 186.44032 132.231292 
L 186.588296 312.781413 
L 186.732006 286.519577 
L 186.875468 63.293973 
L 187.016959 50.163056 
L 187.158711 50.163056 
L 187.302761 102.686727 
L 187.444891 76.424891 
L 187.586356 128.948563 
L 187.727753 63.293973 
L 187.868132 73.142162 
L 188.010998 73.142162 
L 188.152189 214.299529 
L 188.29768 60.011244 
L 188.438983 89.464743 
L 188.581212 86.27308 
L 188.723537 96.121268 
L 188.864964 96.121268 
L 189.006643 63.293973 
L 189.147823 194.603152 
L 189.28832 56.728514 
L 189.429878 86.27308 
L 189.573123 142.079481 
L 189.714553 112.534915 
L 189.857142 128.948563 
L 189.998292 105.969457 
L 190.280847 119.100374 
L 190.42166 119.100374 
L 190.563181 155.210399 
L 190.703742 283.236848 
L 190.844485 79.707621 
L 190.986546 60.011244 
L 191.127697 63.293973 
L 191.268515 142.079481 
L 191.411554 56.728514 
L 191.552112 171.624046 
L 191.693109 69.859432 
L 191.836727 69.859432 
L 192.118084 273.388659 
L 192.259556 63.293973 
L 192.400695 79.707621 
L 192.541948 56.728514 
L 193.107327 283.236848 
L 193.24959 260.257742 
L 193.390815 260.257742 
L 193.531279 79.707621 
L 193.671969 56.728514 
L 193.818031 56.728514 
L 193.961214 60.011244 
L 194.102029 66.485636 
L 194.242919 128.948563 
L 194.384752 60.011244 
L 194.525605 56.728514 
L 194.668585 60.011244 
L 194.81184 50.163056 
L 194.953607 132.231292 
L 195.094553 50.163056 
L 195.375655 76.424891 
L 195.799755 214.299529 
L 195.941044 56.728514 
L 196.082431 250.409553 
L 196.223175 53.445785 
L 196.364688 92.838539 
L 196.506157 82.99035 
L 196.648458 56.728514 
L 196.931061 197.885882 
L 197.072112 63.293973 
L 197.213914 201.19463 
L 197.355051 63.293973 
L 197.496143 60.011244 
L 197.641088 89.555809 
L 197.782599 89.555809 
L 197.923592 214.299529 
L 198.064633 92.838539 
L 198.205594 125.665833 
L 198.346485 207.73407 
L 198.487161 174.906775 
L 198.627906 56.728514 
L 198.768867 194.603152 
L 198.913795 79.707621 
L 199.195284 217.582258 
L 199.335577 60.011244 
L 199.475817 60.011244 
L 199.616601 181.472234 
L 199.757491 155.210399 
L 199.900222 76.424891 
L 200.040586 73.142162 
L 200.182062 56.728514 
L 200.328855 352.174167 
L 200.469928 352.174167 
L 200.610967 50.163056 
L 200.751022 56.728514 
L 201.034819 119.100374 
L 201.17637 312.781413 
L 201.459343 56.728514 
L 201.601531 253.692283 
L 201.742884 66.576703 
L 201.884374 142.079481 
L 202.024765 145.36221 
L 202.306352 207.73407 
L 202.447552 165.058587 
L 202.590104 76.424891 
L 202.731991 276.684398 
L 202.872573 56.728514 
L 203.013041 76.424891 
L 203.154411 178.189505 
L 203.296192 112.534915 
L 203.577488 299.650495 
L 203.718286 56.728514 
L 204.001634 96.121268 
L 204.142611 56.728514 
L 204.284595 115.817645 
L 204.42497 60.011244 
L 204.5672 79.707621 
L 204.707971 204.451341 
L 204.848678 63.293973 
L 204.989951 76.424891 
L 205.131502 66.576703 
L 205.415916 342.325978 
L 205.55637 73.142162 
L 205.83952 86.27308 
L 205.980764 105.969457 
L 206.120956 86.27308 
L 206.26267 92.838539 
L 206.404701 165.058587 
L 206.546281 53.445785 
L 206.827102 243.844094 
L 206.968732 79.707621 
L 207.112813 256.975012 
L 207.253247 56.728514 
L 207.393644 174.906775 
L 207.534006 165.058587 
L 207.676191 352.174167 
L 207.817915 309.498684 
L 207.958428 53.445785 
L 208.100817 243.844094 
L 208.242016 102.686727 
L 208.525919 224.147717 
L 208.66602 56.728514 
L 208.808616 82.99035 
L 209.091286 233.995906 
L 209.375792 99.403998 
L 209.518848 92.838539 
L 209.662099 204.451341 
L 209.803341 56.728514 
L 210.087755 79.707621 
L 210.368779 128.948563 
L 210.510381 142.079481 
L 210.795261 76.424891 
L 210.937504 151.927669 
L 211.077366 309.498684 
L 211.21819 60.011244 
L 211.358153 207.73407 
L 211.498583 60.011244 
L 211.63928 53.445785 
L 211.779692 79.707621 
L 211.921594 214.299529 
L 212.062597 56.728514 
L 212.345372 89.555809 
L 212.485753 82.99035 
L 212.626588 63.293973 
L 212.768055 112.534915 
L 212.908209 240.561365 
L 213.048543 53.445785 
L 213.332204 125.665833 
L 213.613124 56.728514 
L 213.754072 56.728514 
L 213.89482 79.707621 
L 214.035291 253.692283 
L 214.176029 191.320423 
L 214.316713 76.424891 
L 214.457546 56.728514 
L 214.741594 211.0168 
L 214.881986 224.147717 
L 215.022757 276.684398 
L 215.163201 66.576703 
L 215.305412 240.561365 
L 215.445358 115.817645 
L 215.588759 309.498684 
L 215.729473 50.163056 
L 215.871813 60.011244 
L 216.013828 194.603152 
L 216.155123 63.293973 
L 216.438477 76.424891 
L 216.578602 171.624046 
L 216.718833 174.906775 
L 216.859585 204.451341 
L 216.999879 63.293973 
L 217.285801 119.100374 
L 217.42679 250.409553 
L 217.709993 79.707621 
L 217.853714 63.293973 
L 217.995663 102.686727 
L 218.136989 60.011244 
L 218.277141 217.582258 
L 218.559415 109.252186 
L 218.700349 86.27308 
L 218.841721 237.278635 
L 218.981756 233.995906 
L 219.12205 109.252186 
L 219.2641 230.713176 
L 219.407297 60.011244 
L 219.548419 76.424891 
L 220.115539 201.19463 
L 220.257971 119.100374 
L 220.399121 217.582258 
L 220.540963 214.299529 
L 220.682132 214.299529 
L 220.825286 352.174167 
L 220.965811 53.445785 
L 221.247089 230.713176 
L 221.387935 60.011244 
L 221.528682 76.424891 
L 221.671021 181.472234 
L 221.812106 56.728514 
L 222.094273 201.19463 
L 222.236449 102.686727 
L 222.376318 148.64494 
L 222.517129 151.927669 
L 222.65827 184.754964 
L 222.798378 148.64494 
L 222.939349 240.561365 
L 223.079842 56.728514 
L 223.360704 296.367766 
L 223.503415 263.540471 
L 223.643599 69.859432 
L 223.783776 240.561365 
L 223.924609 79.707621 
L 224.064794 56.728514 
L 224.204871 260.257742 
L 224.485168 89.555809 
L 224.625001 250.409553 
L 224.764886 69.859432 
L 224.904978 63.293973 
L 225.185827 214.299529 
L 225.467437 79.707621 
L 225.610204 92.838539 
L 225.750948 197.885882 
L 225.89108 53.445785 
L 226.17247 286.519577 
L 226.312677 50.163056 
L 226.4533 151.927669 
L 226.595106 151.927669 
L 226.736513 227.430447 
L 226.878138 63.293973 
L 227.021414 184.754964 
L 227.163312 86.27308 
L 227.304614 352.174167 
L 227.444716 125.665833 
L 227.58665 352.174167 
L 227.727906 279.954118 
L 227.868537 53.445785 
L 228.009234 99.403998 
L 228.150169 73.142162 
L 228.291401 119.100374 
L 228.431934 76.424891 
L 228.573385 201.19463 
L 228.714792 201.19463 
L 228.856299 191.320423 
L 228.996821 73.142162 
L 229.137608 158.493128 
L 229.279415 145.36221 
L 229.421108 161.775857 
L 229.702854 56.728514 
L 229.985326 73.142162 
L 230.126509 53.445785 
L 230.552376 188.037693 
L 230.692383 60.011244 
L 230.833179 161.775857 
L 230.975455 56.728514 
L 231.11734 119.100374 
L 231.258535 115.817645 
L 231.399035 168.341316 
L 231.539517 142.079481 
L 231.681417 171.624046 
L 231.822676 256.975012 
L 231.963476 89.555809 
L 232.103525 168.341316 
L 232.243574 155.210399 
L 232.383412 128.948563 
L 232.523146 142.079481 
L 232.662933 63.293973 
L 232.804482 56.728514 
L 233.087643 237.278635 
L 233.228309 142.079481 
L 233.369112 138.796751 
L 233.651795 60.011244 
L 233.792232 171.624046 
L 233.933028 168.341316 
L 234.073665 76.424891 
L 234.215484 82.99035 
L 234.35647 105.969457 
L 234.498256 89.555809 
L 234.641079 125.665833 
L 234.782893 66.576703 
L 234.923868 79.707621 
L 235.067043 79.707621 
L 235.209715 148.64494 
L 235.351004 73.142162 
L 235.492166 63.293973 
L 235.774134 145.36221 
L 235.91521 53.445785 
L 236.056626 53.445785 
L 236.197806 60.011244 
L 236.339654 60.011244 
L 236.480582 53.445785 
L 236.762709 112.534915 
L 237.046893 50.163056 
L 237.193272 220.864988 
L 237.336108 217.582258 
L 237.478451 112.534915 
L 237.621549 96.121268 
L 237.906852 322.629601 
L 238.048232 122.383104 
L 238.19034 155.210399 
L 238.472491 63.293973 
L 238.753713 158.493128 
L 238.896188 181.472234 
L 239.036899 178.189505 
L 239.178441 86.27308 
L 239.318792 312.781413 
L 239.458954 63.293973 
L 239.600402 112.534915 
L 239.742689 204.451341 
L 239.884848 73.142162 
L 240.026945 69.859432 
L 240.17003 69.859432 
L 240.312945 197.885882 
L 240.453317 56.728514 
L 240.594952 125.665833 
L 240.736516 352.174167 
L 240.881794 260.257742 
L 241.027768 53.445785 
L 241.169044 53.445785 
L 241.311506 352.174167 
L 241.747548 56.728514 
L 241.888964 66.576703 
L 242.029143 237.278635 
L 242.169892 66.576703 
L 242.310824 211.0168 
L 242.450625 76.424891 
L 242.59304 99.403998 
L 242.734127 155.210399 
L 243.156797 99.403998 
L 243.297517 109.252186 
L 243.438279 217.582258 
L 243.579082 86.27308 
L 243.719902 102.686727 
L 243.863841 283.236848 
L 244.003971 56.728514 
L 244.144106 76.424891 
L 244.285145 168.341316 
L 244.425862 119.100374 
L 244.56599 233.995906 
L 244.706174 73.142162 
L 244.847038 105.969457 
L 244.988006 112.534915 
L 245.128768 60.011244 
L 245.409885 76.424891 
L 245.551365 181.472234 
L 245.691542 151.927669 
L 245.831652 76.424891 
L 245.971808 102.686727 
L 246.111916 63.293973 
L 246.252606 230.713176 
L 246.393718 63.293973 
L 246.537047 63.293973 
L 246.679412 109.252186 
L 246.820422 56.728514 
L 246.960922 69.859432 
L 247.102263 50.163056 
L 247.243521 125.665833 
L 247.383939 73.142162 
L 247.525455 148.64494 
L 247.808796 76.424891 
L 247.950659 132.231292 
L 248.092984 135.514022 
L 248.235601 191.320423 
L 248.520022 53.445785 
L 248.662582 60.011244 
L 248.804951 174.906775 
L 249.087568 60.011244 
L 249.232342 92.838539 
L 249.380452 73.142162 
L 249.673767 115.817645 
L 249.814098 56.728514 
L 249.954923 188.037693 
L 250.09488 66.576703 
L 250.23595 73.142162 
L 250.520515 50.163056 
L 250.814788 82.99035 
L 250.956227 197.885882 
L 251.096563 109.252186 
L 251.237453 171.624046 
L 251.378255 82.99035 
L 251.518966 122.383104 
L 251.659913 66.576703 
L 251.8007 178.189505 
L 251.941497 79.707621 
L 252.081565 89.555809 
L 252.222927 151.927669 
L 252.36807 135.514022 
L 252.510374 60.011244 
L 253.073449 253.692283 
L 253.354294 73.142162 
L 253.494391 99.403998 
L 253.63529 171.624046 
L 253.775922 56.728514 
L 254.05748 50.163056 
L 254.339225 237.278635 
L 254.481247 115.817645 
L 254.629373 138.796751 
L 254.770524 99.403998 
L 254.911929 128.948563 
L 255.053258 352.174167 
L 255.196195 342.325978 
L 255.336893 99.403998 
L 255.479076 250.409553 
L 255.620075 240.561365 
L 255.760325 56.728514 
L 255.903695 82.99035 
L 256.044972 171.624046 
L 256.185844 60.011244 
L 256.468375 161.775857 
L 256.609192 79.707621 
L 256.749957 204.451341 
L 256.890773 197.885882 
L 257.030638 79.707621 
L 257.172315 102.686727 
L 257.313476 63.293973 
L 257.453806 60.011244 
L 257.597952 109.252186 
L 257.743182 102.686727 
L 257.887496 171.624046 
L 258.027671 60.011244 
L 258.308587 50.163056 
L 258.449414 53.445785 
L 258.735672 214.299529 
L 258.880331 56.728514 
L 259.024093 53.445785 
L 259.309183 66.576703 
L 259.449982 56.728514 
L 259.591162 161.775857 
L 259.732605 142.079481 
L 259.875553 66.576703 
L 260.018736 125.665833 
L 260.159729 309.498684 
L 260.300608 69.859432 
L 260.44147 115.817645 
L 260.581586 63.293973 
L 260.722825 115.817645 
L 260.864973 60.011244 
L 261.00584 56.728514 
L 261.1476 66.576703 
L 261.287951 148.64494 
L 261.428892 96.121268 
L 261.569928 204.451341 
L 261.715208 60.011244 
L 261.856009 99.403998 
L 261.996828 224.147717 
L 262.137586 69.859432 
L 262.278456 56.728514 
L 262.4186 119.100374 
L 262.6993 76.424891 
L 262.839425 155.210399 
L 262.980572 73.142162 
L 263.121407 79.707621 
L 263.261493 161.775857 
L 263.401623 69.859432 
L 263.543206 125.665833 
L 263.684884 112.534915 
L 263.967693 237.278635 
L 264.108528 207.73407 
L 264.249471 263.540471 
L 264.390265 247.126824 
L 264.531017 63.293973 
L 264.67184 56.728514 
L 264.953451 260.257742 
L 265.094247 237.278635 
L 265.236803 155.210399 
L 265.379161 161.775857 
L 265.521424 92.838539 
L 265.807586 188.037693 
L 265.947617 86.27308 
L 266.370526 145.36221 
L 266.512156 60.011244 
L 266.652303 174.906775 
L 266.792519 63.293973 
L 266.933635 102.686727 
L 267.074704 227.430447 
L 267.218099 224.147717 
L 267.362466 201.19463 
L 267.503325 270.10593 
L 267.644052 194.603152 
L 267.784846 56.728514 
L 267.930225 53.445785 
L 268.641951 352.174167 
L 268.782804 289.802307 
L 268.924908 56.728514 
L 269.065786 220.864988 
L 269.207024 207.73407 
L 269.348171 73.142162 
L 269.488234 76.424891 
L 269.628379 224.147717 
L 270.048268 92.838539 
L 270.188149 60.011244 
L 270.608518 201.19463 
L 270.749176 53.445785 
L 270.889231 60.011244 
L 271.029195 96.121268 
L 271.309083 79.707621 
L 271.449857 86.27308 
L 271.591487 230.713176 
L 271.73223 53.445785 
L 271.873157 60.011244 
L 272.013303 79.707621 
L 272.153298 260.257742 
L 272.293353 69.859432 
L 272.433242 53.445785 
L 272.573141 60.011244 
L 272.713022 53.445785 
L 272.852911 60.011244 
L 272.992914 56.728514 
L 273.133261 60.011244 
L 273.554765 217.582258 
L 273.835042 69.859432 
L 273.975133 79.707621 
L 274.11599 63.293973 
L 274.395967 135.514022 
L 274.537221 89.555809 
L 274.817552 250.409553 
L 274.957707 69.859432 
L 275.097567 96.121268 
L 275.237388 302.933225 
L 275.377258 60.011244 
L 275.517046 60.011244 
L 275.657053 56.728514 
L 275.797631 76.424891 
L 275.937627 63.293973 
L 276.49876 273.388659 
L 276.638684 86.27308 
L 276.779517 60.011244 
L 276.919542 56.728514 
L 277.199832 69.859432 
L 277.339808 56.728514 
L 277.479662 60.011244 
L 277.620056 158.493128 
L 277.759967 125.665833 
L 277.89983 194.603152 
L 278.039875 161.775857 
L 278.179686 79.707621 
L 278.319615 109.252186 
L 278.460105 76.424891 
L 278.740417 240.561365 
L 278.883028 60.011244 
L 279.027059 132.231292 
L 279.172836 112.534915 
L 279.318512 109.252186 
L 279.458549 79.707621 
L 279.598693 197.885882 
L 279.738665 188.037693 
L 279.880143 99.403998 
L 280.160183 204.451341 
L 280.300271 194.603152 
L 280.440006 60.011244 
L 280.58138 69.859432 
L 280.722806 53.445785 
L 280.863733 109.252186 
L 281.00409 112.534915 
L 281.284605 276.684398 
L 281.425405 122.383104 
L 281.566982 309.498684 
L 281.708214 102.686727 
L 281.849551 263.540471 
L 281.990847 92.838539 
L 282.136819 345.608708 
L 282.284579 352.174167 
L 282.432964 276.684398 
L 282.576753 89.555809 
L 282.72065 348.891437 
L 282.861116 266.8232 
L 283.003801 66.576703 
L 283.14487 263.540471 
L 283.285871 53.445785 
L 283.427339 60.011244 
L 283.709826 204.451341 
L 284.131568 53.445785 
L 284.27257 138.796751 
L 284.413319 56.728514 
L 284.555003 142.079481 
L 284.841449 50.163056 
L 284.983789 73.142162 
L 285.124728 181.472234 
L 285.265038 201.19463 
L 285.405977 99.403998 
L 285.547159 86.27308 
L 285.688007 178.189505 
L 285.828717 148.64494 
L 286.110285 60.011244 
L 286.251998 135.514022 
L 286.394819 69.859432 
L 286.536277 73.142162 
L 286.677256 92.838539 
L 286.817723 178.189505 
L 286.958748 352.174167 
L 287.099564 76.424891 
L 287.239879 191.320423 
L 287.38028 63.293973 
L 287.522797 220.864988 
L 287.803678 79.707621 
L 287.94382 89.555809 
L 288.084652 56.728514 
L 288.226447 96.121268 
L 288.368214 306.215954 
L 288.649587 60.011244 
L 288.790264 66.576703 
L 288.93138 112.534915 
L 289.0729 217.582258 
L 289.213847 56.728514 
L 289.358076 66.576703 
L 289.502745 50.163056 
L 289.64478 69.859432 
L 289.786419 63.293973 
L 289.927256 66.576703 
L 290.068103 53.445785 
L 290.210814 112.534915 
L 290.353265 119.100374 
L 290.634667 69.859432 
L 290.775629 69.859432 
L 290.916398 60.011244 
L 291.057053 63.293973 
L 291.197714 86.27308 
L 291.338172 69.859432 
L 291.479126 102.686727 
L 291.620422 60.011244 
L 291.762877 60.011244 
L 291.905771 53.445785 
L 292.046418 53.445785 
L 292.186999 109.252186 
L 292.329797 76.424891 
L 292.470678 197.885882 
L 292.611531 138.796751 
L 292.752283 135.514022 
L 292.892517 73.142162 
L 293.032749 135.514022 
L 293.17861 270.10593 
L 293.459876 82.99035 
L 293.604713 204.451341 
L 293.745928 50.163056 
L 293.88697 53.445785 
L 294.027126 283.236848 
L 294.168211 53.445785 
L 294.309933 53.445785 
L 294.591409 109.252186 
L 294.731378 201.19463 
L 295.014465 145.36221 
L 295.154989 76.424891 
L 295.295106 82.99035 
L 295.435081 273.388659 
L 295.577177 63.293973 
L 295.720185 352.174167 
L 295.864621 352.174167 
L 296.012634 319.346872 
L 296.152982 50.163056 
L 296.292941 204.451341 
L 296.432894 56.728514 
L 296.573899 188.037693 
L 296.714465 66.576703 
L 296.855585 56.728514 
L 296.99603 174.906775 
L 297.136536 138.796751 
L 297.276776 158.493128 
L 297.416799 56.728514 
L 297.838104 332.47779 
L 297.979381 105.969457 
L 298.120098 115.817645 
L 298.404259 63.293973 
L 298.685894 161.775857 
L 298.826896 178.189505 
L 298.97103 296.367766 
L 299.11198 66.576703 
L 299.252046 82.99035 
L 299.392114 319.346872 
L 299.532023 102.686727 
L 299.672299 171.624046 
L 299.812958 56.728514 
L 300.236614 253.692283 
L 300.376601 53.445785 
L 300.658247 135.514022 
L 300.798817 92.838539 
L 300.944024 270.10593 
L 301.227097 145.36221 
L 301.370352 56.728514 
L 301.653409 138.796751 
L 301.794114 112.534915 
L 301.936554 181.472234 
L 302.078665 63.293973 
L 302.362123 56.728514 
L 302.50282 89.555809 
L 302.644358 76.424891 
L 302.785889 158.493128 
L 302.926778 135.514022 
L 303.066772 237.278635 
L 303.207657 66.576703 
L 303.348008 92.838539 
L 303.489626 194.603152 
L 303.632519 56.728514 
L 303.773143 207.73407 
L 303.914982 191.320423 
L 304.055399 260.257742 
L 304.196393 53.445785 
L 304.337691 145.36221 
L 304.759187 60.011244 
L 304.899819 243.844094 
L 305.041649 69.859432 
L 305.18277 66.576703 
L 305.324917 217.582258 
L 305.465372 145.36221 
L 305.605925 155.210399 
L 306.028203 56.728514 
L 306.170502 53.445785 
L 306.312612 76.424891 
L 306.455376 66.576703 
L 306.88012 309.498684 
L 307.160642 82.99035 
L 307.301282 82.99035 
L 307.584198 60.011244 
L 307.724649 256.975012 
L 307.865724 79.707621 
L 308.006018 53.445785 
L 308.291149 66.576703 
L 308.431232 60.011244 
L 308.720527 240.561365 
L 309.001763 66.576703 
L 309.142874 69.859432 
L 309.283106 240.561365 
L 309.424649 256.975012 
L 309.565038 69.859432 
L 309.705684 142.079481 
L 309.846715 99.403998 
L 309.986715 119.100374 
L 310.128586 230.713176 
L 310.409245 109.252186 
L 310.691852 60.011244 
L 310.833919 138.796751 
L 310.976283 66.576703 
L 311.260531 240.561365 
L 311.40331 60.011244 
L 311.546476 99.403998 
L 311.686576 69.859432 
L 311.8272 69.859432 
L 311.967786 53.445785 
L 312.251268 243.844094 
L 312.53328 56.728514 
L 312.674031 53.445785 
L 312.81515 60.011244 
L 312.957843 79.707621 
L 313.103319 148.64494 
L 313.243408 128.948563 
L 313.384455 53.445785 
L 313.525619 53.445785 
L 313.671855 352.174167 
L 314.098351 56.728514 
L 314.379352 69.859432 
L 314.520202 171.624046 
L 314.661661 125.665833 
L 314.803724 217.582258 
L 315.085835 171.624046 
L 315.226488 220.864988 
L 315.369091 60.011244 
L 315.508993 60.011244 
L 315.649389 53.445785 
L 315.790128 53.445785 
L 315.931 56.728514 
L 316.073323 63.293973 
L 316.215947 109.252186 
L 316.356468 66.576703 
L 316.497596 76.424891 
L 316.640243 158.493128 
L 316.78116 112.534915 
L 316.921301 125.665833 
L 317.06167 119.100374 
L 317.204716 243.844094 
L 317.629154 56.728514 
L 317.774761 76.424891 
L 317.919672 168.341316 
L 318.060585 148.64494 
L 318.202152 50.163056 
L 318.487536 56.728514 
L 318.772027 204.451341 
L 318.913917 171.624046 
L 319.053977 289.802307 
L 319.194209 60.011244 
L 319.335503 86.27308 
L 319.618296 250.409553 
L 319.761832 247.126824 
L 319.904001 56.728514 
L 320.185503 63.293973 
L 320.327062 211.0168 
L 320.468405 66.576703 
L 320.609185 82.99035 
L 320.7498 50.163056 
L 320.890429 109.252186 
L 321.030952 289.802307 
L 321.173321 82.99035 
L 321.314158 250.409553 
L 321.455712 53.445785 
L 321.596029 60.011244 
L 321.737484 99.403998 
L 321.879449 260.257742 
L 322.01988 102.686727 
L 322.160845 76.424891 
L 322.451982 332.47779 
L 322.592023 56.728514 
L 322.875614 273.388659 
L 323.016396 73.142162 
L 323.157649 82.99035 
L 323.299594 66.576703 
L 323.581235 230.713176 
L 323.721462 56.728514 
L 323.861879 161.775857 
L 324.002041 181.472234 
L 324.142139 56.728514 
L 324.282293 66.576703 
L 324.42246 96.121268 
L 324.702674 168.341316 
L 324.842781 161.775857 
L 324.982929 243.844094 
L 325.124823 56.728514 
L 325.265772 128.948563 
L 325.407218 119.100374 
L 325.547528 60.011244 
L 325.687636 132.231292 
L 325.827546 122.383104 
L 326.108631 240.561365 
L 326.392264 89.555809 
L 326.675683 227.430447 
L 326.816286 197.885882 
L 326.956772 66.576703 
L 327.098007 60.011244 
L 327.238052 112.534915 
L 327.378648 316.064143 
L 327.518956 50.163056 
L 327.659361 56.728514 
L 327.800044 79.707621 
L 328.081751 181.472234 
L 328.222871 151.927669 
L 328.363387 194.603152 
L 328.503951 60.011244 
L 328.644083 230.713176 
L 328.924836 69.859432 
L 329.066442 60.011244 
L 329.349188 299.650495 
L 329.491017 66.576703 
L 329.773641 112.534915 
L 329.914807 56.728514 
L 330.196507 138.796751 
L 330.33758 128.948563 
L 330.478589 89.555809 
L 330.62086 197.885882 
L 330.901587 60.011244 
L 331.186231 296.367766 
L 331.326363 66.576703 
L 331.747585 56.728514 
L 331.887584 73.142162 
L 332.027573 233.995906 
L 332.167432 112.534915 
L 332.307375 119.100374 
L 332.447738 191.320423 
L 332.588298 161.775857 
L 332.728425 82.99035 
L 332.87074 105.969457 
L 333.01073 60.011244 
L 333.151548 53.445785 
L 333.291703 256.975012 
L 333.575228 63.293973 
L 333.715461 96.121268 
L 333.85546 53.445785 
L 333.996828 76.424891 
L 334.137178 279.954118 
L 334.278088 60.011244 
L 334.419869 73.142162 
L 334.559864 135.514022 
L 334.699993 132.231292 
L 334.841455 240.561365 
L 334.982599 69.859432 
L 335.130711 63.293973 
L 335.27115 63.293973 
L 335.552232 148.64494 
L 335.695279 299.650495 
L 335.836202 63.293973 
L 335.976599 138.796751 
L 336.117009 63.293973 
L 336.260056 352.174167 
L 336.401498 289.802307 
L 336.542761 60.011244 
L 336.68437 79.707621 
L 336.82675 151.927669 
L 336.966708 66.576703 
L 337.107017 56.728514 
L 337.38687 247.126824 
L 337.528073 184.754964 
L 337.667963 53.445785 
L 337.80785 56.728514 
L 338.091652 230.713176 
L 338.232022 102.686727 
L 338.371953 211.0168 
L 338.512884 155.210399 
L 338.653049 250.409553 
L 338.932858 56.728514 
L 339.213749 56.728514 
L 339.633956 178.189505 
L 339.915591 73.142162 
L 340.057445 214.299529 
L 340.200417 73.142162 
L 340.340995 56.728514 
L 340.483822 145.36221 
L 340.624329 119.100374 
L 340.765421 60.011244 
L 340.905673 115.817645 
L 341.187204 50.163056 
L 341.473364 109.252186 
L 341.613848 227.430447 
L 341.754234 89.555809 
L 341.895214 89.555809 
L 342.036844 66.576703 
L 342.178296 63.293973 
L 342.319236 56.728514 
L 342.460227 105.969457 
L 342.601839 243.844094 
L 342.745047 204.451341 
L 342.887789 82.99035 
L 343.029346 325.912331 
L 343.171755 56.728514 
L 343.311605 66.576703 
L 343.453016 220.864988 
L 343.593056 227.430447 
L 343.73407 289.802307 
L 343.874552 132.231292 
L 344.014558 132.231292 
L 344.155482 50.163056 
L 344.30131 56.728514 
L 344.448608 155.210399 
L 344.595656 352.174167 
L 344.742883 60.011244 
L 345.036994 286.519577 
L 345.317231 96.121268 
L 345.596926 181.472234 
L 345.876959 122.383104 
L 346.017025 263.540471 
L 346.157512 60.011244 
L 346.440645 86.27308 
L 346.722724 266.8232 
L 346.862765 82.99035 
L 347.00277 63.293973 
L 347.142479 63.293973 
L 347.421941 253.692283 
L 347.561765 230.713176 
L 347.701513 89.555809 
L 348.121216 60.011244 
L 348.263909 73.142162 
L 348.550613 191.320423 
L 348.693955 165.058587 
L 348.837291 197.885882 
L 348.976985 50.163056 
L 349.117485 86.27308 
L 349.39801 79.707621 
L 349.538595 50.163056 
L 349.678297 60.011244 
L 349.818006 119.100374 
L 349.957832 352.174167 
L 350.098009 260.257742 
L 350.238165 306.215954 
L 350.378628 240.561365 
L 350.520746 342.325978 
L 350.66255 112.534915 
L 350.803262 184.754964 
L 350.946542 63.293973 
L 351.088097 60.011244 
L 351.230728 60.011244 
L 351.372001 217.582258 
L 351.512583 66.576703 
L 351.652641 66.576703 
L 351.794292 99.403998 
L 352.076315 325.912331 
L 352.217456 69.859432 
L 352.357873 96.121268 
L 352.498189 260.257742 
L 352.638462 60.011244 
L 352.778573 60.011244 
L 352.918795 56.728514 
L 353.062081 158.493128 
L 353.202439 132.231292 
L 353.343236 128.948563 
L 353.483894 174.906775 
L 353.766896 66.576703 
L 353.909586 63.293973 
L 354.052069 66.576703 
L 354.194264 66.576703 
L 354.334604 197.885882 
L 354.617393 142.079481 
L 354.758001 145.36221 
L 354.898665 60.011244 
L 355.179357 53.445785 
L 355.319571 82.99035 
L 355.459853 53.445785 
L 355.741945 138.796751 
L 355.882541 227.430447 
L 356.02284 56.728514 
L 356.304334 132.231292 
L 356.446097 105.969457 
L 356.586365 105.969457 
L 357.009248 312.781413 
L 357.291302 197.885882 
L 357.431624 342.325978 
L 357.571794 66.576703 
L 357.712326 53.445785 
L 357.85261 69.859432 
L 357.992827 142.079481 
L 358.273833 60.011244 
L 358.415543 92.838539 
L 358.696366 69.859432 
L 358.836697 352.174167 
L 358.978243 53.445785 
L 359.119364 56.728514 
L 359.260545 122.383104 
L 359.544493 73.142162 
L 359.685161 138.796751 
L 359.966972 352.174167 
L 360.107475 56.728514 
L 360.247826 171.624046 
L 360.388046 184.754964 
L 360.52851 211.0168 
L 360.669227 50.163056 
L 360.811353 99.403998 
L 360.951704 256.975012 
L 361.233531 53.445785 
L 361.513533 86.27308 
L 361.653906 352.174167 
L 361.794408 76.424891 
L 361.93488 306.215954 
L 362.075217 53.445785 
L 362.215265 207.73407 
L 362.355872 66.576703 
L 362.496657 69.859432 
L 362.63711 76.424891 
L 362.777492 109.252186 
L 362.917398 240.561365 
L 363.05838 60.011244 
L 363.340678 79.707621 
L 363.630202 352.174167 
L 363.913439 112.534915 
L 364.05431 53.445785 
L 364.334782 237.278635 
L 364.475413 191.320423 
L 364.616663 50.163056 
L 364.902119 151.927669 
L 365.04519 115.817645 
L 365.187388 50.163056 
L 365.610337 96.121268 
L 365.893898 286.519577 
L 366.036057 60.011244 
L 366.177007 151.927669 
L 366.318805 112.534915 
L 366.460908 224.147717 
L 366.602287 174.906775 
L 366.742733 191.320423 
L 366.882706 188.037693 
L 367.023188 128.948563 
L 367.307277 240.561365 
L 367.448048 66.576703 
L 367.590194 92.838539 
L 367.733874 53.445785 
L 367.875774 128.948563 
L 368.016159 296.367766 
L 368.15737 66.576703 
L 368.299724 119.100374 
L 368.440873 96.121268 
L 368.723757 279.954118 
L 368.865107 66.576703 
L 369.146212 256.975012 
L 369.569034 50.163056 
L 369.710468 66.576703 
L 369.993144 316.064143 
L 370.134664 89.555809 
L 370.419372 325.912331 
L 370.561047 86.27308 
L 370.701126 283.236848 
L 370.983741 53.445785 
L 371.124429 102.686727 
L 371.266102 60.011244 
L 371.407235 60.011244 
L 371.689414 96.121268 
L 371.83052 168.341316 
L 371.972665 352.174167 
L 372.113537 56.728514 
L 372.255047 227.430447 
L 372.396837 135.514022 
L 372.539055 211.0168 
L 372.679831 102.686727 
L 372.960764 240.561365 
L 373.102483 201.19463 
L 373.243586 63.293973 
L 373.38431 109.252186 
L 373.524427 99.403998 
L 373.667512 99.403998 
L 373.94914 66.576703 
L 374.090117 76.424891 
L 374.372659 109.252186 
L 374.515097 99.403998 
L 374.655792 79.707621 
L 374.798018 243.844094 
L 374.93989 115.817645 
L 375.083249 197.885882 
L 375.225889 352.174167 
L 375.367832 60.011244 
L 375.508092 119.100374 
L 375.791368 66.576703 
L 375.93245 79.707621 
L 376.216026 201.19463 
L 376.356352 56.728514 
L 376.498451 329.19506 
L 376.639163 53.445785 
L 376.779696 53.445785 
L 376.921167 128.948563 
L 377.064525 63.293973 
L 377.206697 348.891437 
L 377.491025 178.189505 
L 377.634786 122.383104 
L 377.916442 109.252186 
L 378.19831 184.754964 
L 378.622002 82.99035 
L 378.766821 352.174167 
L 378.909819 142.079481 
L 379.051452 204.451341 
L 379.193789 63.293973 
L 379.334435 276.684398 
L 379.476659 53.445785 
L 379.61858 60.011244 
L 379.759382 60.011244 
L 380.039695 151.927669 
L 380.17966 247.126824 
L 380.319689 165.058587 
L 380.460641 316.064143 
L 380.600609 60.011244 
L 380.741397 191.320423 
L 380.882148 50.163056 
L 381.02357 168.341316 
L 381.167647 145.36221 
L 381.308506 273.388659 
L 381.449365 138.796751 
L 381.590308 128.948563 
L 381.731083 214.299529 
L 381.871759 181.472234 
L 382.012502 243.844094 
L 382.153116 211.0168 
L 382.293995 63.293973 
L 382.435212 56.728514 
L 382.575655 99.403998 
L 382.715752 276.684398 
L 382.856637 53.445785 
L 382.997545 79.707621 
L 383.137758 253.692283 
L 383.278736 151.927669 
L 383.419816 132.231292 
L 383.560095 233.995906 
L 383.841219 50.163056 
L 383.98252 174.906775 
L 384.264952 50.163056 
L 384.404838 56.728514 
L 384.545796 86.27308 
L 384.686812 168.341316 
L 384.82806 184.754964 
L 384.969486 289.802307 
L 385.111319 86.27308 
L 385.25258 82.99035 
L 385.394061 122.383104 
L 385.535368 217.582258 
L 385.675624 217.582258 
L 385.815839 105.969457 
L 385.955858 276.684398 
L 386.096795 66.576703 
L 386.383885 286.519577 
L 386.524871 79.707621 
L 386.665733 56.728514 
L 386.806822 155.210399 
L 387.088648 63.293973 
L 387.229516 128.948563 
L 387.510544 63.293973 
L 387.651444 60.011244 
L 387.791984 66.576703 
L 387.932467 50.163056 
L 388.072812 161.775857 
L 388.212971 128.948563 
L 388.353823 122.383104 
L 388.494549 109.252186 
L 388.635224 56.728514 
L 388.777146 79.707621 
L 388.918053 56.728514 
L 389.05844 56.728514 
L 389.198867 63.293973 
L 389.340353 138.796751 
L 389.481349 50.163056 
L 389.763299 266.8232 
L 389.904202 69.859432 
L 390.044957 60.011244 
L 390.327148 82.99035 
L 390.467767 82.99035 
L 390.608323 256.975012 
L 390.894052 306.215954 
L 391.036959 237.278635 
L 391.178728 50.163056 
L 391.320402 89.555809 
L 391.461026 165.058587 
L 391.601809 158.493128 
L 391.743011 112.534915 
L 391.884166 263.540471 
L 392.025498 155.210399 
L 392.165578 148.64494 
L 392.305547 66.576703 
L 392.585365 270.10593 
L 392.72521 53.445785 
L 393.007912 191.320423 
L 393.149009 53.445785 
L 393.289211 99.403998 
L 393.429314 60.011244 
L 393.5696 204.451341 
L 393.710532 56.728514 
L 393.851638 115.817645 
L 394.133351 79.707621 
L 394.273409 194.603152 
L 394.554324 76.424891 
L 394.835246 53.445785 
L 395.257345 270.10593 
L 395.397602 63.293973 
L 395.539551 63.293973 
L 395.682537 158.493128 
L 395.823147 53.445785 
L 395.963067 165.058587 
L 396.103451 89.555809 
L 396.243947 79.707621 
L 396.524426 263.540471 
L 396.664709 145.36221 
L 396.805581 125.665833 
L 397.088257 283.236848 
L 397.229168 63.293973 
L 397.369282 56.728514 
L 397.510653 56.728514 
L 397.651323 63.293973 
L 397.792372 53.445785 
L 397.93319 214.299529 
L 398.07379 56.728514 
L 398.214332 283.236848 
L 398.496665 191.320423 
L 398.777922 191.320423 
L 398.918248 270.10593 
L 399.058427 53.445785 
L 399.198866 60.011244 
L 399.339136 60.011244 
L 399.47989 99.403998 
L 399.620609 247.126824 
L 399.76192 112.534915 
L 399.902793 155.210399 
L 400.043352 99.403998 
L 400.18412 214.299529 
L 400.325621 60.011244 
L 400.466664 60.011244 
L 400.607929 69.859432 
L 400.889799 197.885882 
L 401.031539 135.514022 
L 401.172894 256.975012 
L 401.315249 250.409553 
L 401.596214 63.293973 
L 401.736628 115.817645 
L 402.017416 53.445785 
L 402.164772 56.728514 
L 402.305179 63.293973 
L 402.449586 99.403998 
L 402.59006 53.445785 
L 402.730553 69.859432 
L 402.874273 165.058587 
L 403.016075 63.293973 
L 403.157585 96.121268 
L 403.29803 270.10593 
L 403.579373 86.27308 
L 403.72186 102.686727 
L 404.005942 188.037693 
L 404.15058 161.775857 
L 404.299186 329.19506 
L 404.439875 60.011244 
L 404.58251 345.608708 
L 404.867299 99.403998 
L 405.151246 145.36221 
L 405.29167 115.817645 
L 405.432371 60.011244 
L 405.573014 132.231292 
L 405.713968 263.540471 
L 405.854697 250.409553 
L 405.995983 174.906775 
L 406.137034 188.037693 
L 406.277619 112.534915 
L 406.423691 142.079481 
L 406.566158 82.99035 
L 406.708922 125.665833 
L 406.850985 273.388659 
L 407.280626 56.728514 
L 407.420965 99.403998 
L 407.562618 191.320423 
L 407.70461 73.142162 
L 407.846781 53.445785 
L 407.987549 60.011244 
L 408.127847 60.011244 
L 408.268959 56.728514 
L 408.410694 56.728514 
L 408.833663 243.844094 
L 408.975344 220.864988 
L 409.258058 56.728514 
L 409.54195 56.728514 
L 409.682038 63.293973 
L 409.823118 60.011244 
L 409.965001 60.011244 
L 410.105491 99.403998 
L 410.246718 233.995906 
L 410.388207 132.231292 
L 410.52981 306.215954 
L 410.812241 53.445785 
L 410.954798 69.859432 
L 411.236597 220.864988 
L 411.377817 102.686727 
L 411.51999 266.8232 
L 411.66235 63.293973 
L 411.804803 194.603152 
L 411.947025 53.445785 
L 412.088838 181.472234 
L 412.368964 53.445785 
L 412.510503 56.728514 
L 412.934057 191.320423 
L 413.07595 56.728514 
L 413.216874 112.534915 
L 413.363003 92.838539 
L 413.505586 270.10593 
L 413.790307 60.011244 
L 413.931152 102.686727 
L 414.072293 319.346872 
L 414.501999 60.011244 
L 414.644311 89.555809 
L 414.927491 60.011244 
L 415.067537 63.293973 
L 415.208565 60.011244 
L 415.349737 155.210399 
L 415.490894 69.859432 
L 415.633539 158.493128 
L 415.774606 158.493128 
L 415.917222 204.451341 
L 416.201803 60.011244 
L 416.34287 174.906775 
L 416.485546 188.037693 
L 416.627624 63.293973 
L 416.768285 230.713176 
L 416.910499 69.859432 
L 417.052354 53.445785 
L 417.336884 63.293973 
L 417.477662 56.728514 
L 417.903532 207.73407 
L 418.04616 224.147717 
L 418.187222 60.011244 
L 418.469517 227.430447 
L 418.610441 174.906775 
L 418.892751 260.257742 
L 419.033506 99.403998 
L 419.175264 109.252186 
L 419.316434 270.10593 
L 419.458207 158.493128 
L 419.600846 138.796751 
L 419.74191 197.885882 
L 419.883572 60.011244 
L 420.024156 66.576703 
L 420.166015 148.64494 
L 420.448753 60.011244 
L 420.590673 66.576703 
L 420.730643 109.252186 
L 420.870528 197.885882 
L 421.01546 171.624046 
L 421.156604 289.802307 
L 421.297142 53.445785 
L 421.578001 135.514022 
L 421.71934 224.147717 
L 421.860136 142.079481 
L 422.000565 240.561365 
L 422.140166 211.0168 
L 422.424621 50.163056 
L 422.564631 53.445785 
L 422.844607 155.210399 
L 422.984614 168.341316 
L 423.125555 302.933225 
L 423.266073 63.293973 
L 423.406998 165.058587 
L 423.547807 63.293973 
L 423.979222 247.126824 
L 424.123231 63.293973 
L 424.26863 299.650495 
L 424.411211 73.142162 
L 424.551658 92.838539 
L 424.695899 56.728514 
L 424.835818 174.906775 
L 424.980046 178.189505 
L 425.259904 352.174167 
L 425.39971 66.576703 
L 425.543951 53.445785 
L 425.68444 96.121268 
L 425.826046 76.424891 
L 425.967758 96.121268 
L 426.108376 194.603152 
L 426.249218 63.293973 
L 426.390389 60.011244 
L 426.530513 112.534915 
L 426.951569 63.293973 
L 427.234534 89.555809 
L 427.374558 66.576703 
L 427.514545 325.912331 
L 427.66127 174.906775 
L 427.801219 352.174167 
L 427.941071 270.10593 
L 428.080925 260.257742 
L 428.22101 342.325978 
L 428.360835 60.011244 
L 428.500627 165.058587 
L 428.640481 60.011244 
L 428.922344 86.27308 
L 429.067631 207.73407 
L 429.207552 53.445785 
L 429.347393 53.445785 
L 429.487236 76.424891 
L 429.62722 158.493128 
L 429.767196 89.555809 
L 429.907899 253.692283 
L 430.18855 73.142162 
L 430.328889 86.27308 
L 430.471845 69.859432 
L 430.614601 148.64494 
L 430.757063 99.403998 
L 430.899853 250.409553 
L 431.039863 76.424891 
L 431.179698 102.686727 
L 431.319547 63.293973 
L 431.459412 181.472234 
L 431.599324 53.445785 
L 431.739579 224.147717 
L 431.879522 165.058587 
L 432.019353 158.493128 
L 432.159162 82.99035 
L 432.29911 82.99035 
L 432.438974 89.555809 
L 432.579221 56.728514 
L 432.720471 50.163056 
L 432.861929 50.163056 
L 433.149995 158.493128 
L 433.289833 201.19463 
L 433.570997 138.796751 
L 433.711003 60.011244 
L 433.851833 142.079481 
L 433.992506 79.707621 
L 434.132431 171.624046 
L 434.419093 60.011244 
L 434.703623 289.802307 
L 434.845734 128.948563 
L 434.989566 178.189505 
L 435.130379 112.534915 
L 435.270472 256.975012 
L 435.411641 66.576703 
L 435.553161 115.817645 
L 435.70059 86.27308 
L 435.841582 276.684398 
L 435.981683 92.838539 
L 436.122765 69.859432 
L 436.263869 122.383104 
L 436.686724 69.859432 
L 436.827573 73.142162 
L 436.97131 184.754964 
L 437.112698 56.728514 
L 437.254693 142.079481 
L 437.397553 306.215954 
L 437.540131 312.781413 
L 437.68197 132.231292 
L 437.82204 233.995906 
L 438.105753 63.293973 
L 438.248634 63.293973 
L 438.393221 76.424891 
L 438.534324 69.859432 
L 438.675239 53.445785 
L 438.956927 96.121268 
L 439.097058 53.445785 
L 439.237104 184.754964 
L 439.3772 96.121268 
L 439.517745 184.754964 
L 439.65916 63.293973 
L 439.800529 302.933225 
L 439.942472 60.011244 
L 440.22681 142.079481 
L 440.369852 76.424891 
L 440.511093 168.341316 
L 440.651385 60.011244 
L 440.793219 112.534915 
L 441.075073 319.346872 
L 441.215808 302.933225 
L 441.356875 73.142162 
L 441.499284 50.163056 
L 441.641915 178.189505 
L 441.928161 63.293973 
L 442.069296 79.707621 
L 442.21039 112.534915 
L 442.353581 191.320423 
L 442.493974 69.859432 
L 442.634163 247.126824 
L 442.774636 66.576703 
L 442.91615 56.728514 
L 443.056486 125.665833 
L 443.196523 82.99035 
L 443.338278 122.383104 
L 443.478948 63.293973 
L 443.619884 89.555809 
L 443.762493 204.451341 
L 443.904103 76.424891 
L 444.044852 184.754964 
L 444.185547 122.383104 
L 444.327441 112.534915 
L 444.468669 184.754964 
L 444.609587 191.320423 
L 444.750949 171.624046 
L 444.891723 56.728514 
L 445.032782 56.728514 
L 445.174197 92.838539 
L 445.316571 60.011244 
L 445.457955 82.99035 
L 445.599579 247.126824 
L 445.883293 60.011244 
L 446.165781 247.126824 
L 446.30867 56.728514 
L 446.448981 201.19463 
L 446.589977 86.27308 
L 446.730884 69.859432 
L 446.871069 211.0168 
L 447.01187 69.859432 
L 447.152662 66.576703 
L 447.293562 89.555809 
L 447.576969 56.728514 
L 447.717587 96.121268 
L 447.857952 63.293973 
L 447.99861 86.27308 
L 448.139506 227.430447 
L 448.281367 69.859432 
L 448.42217 53.445785 
L 448.705366 227.430447 
L 448.987698 66.576703 
L 449.128676 56.728514 
L 449.41065 99.403998 
L 449.693106 50.163056 
L 449.834128 125.665833 
L 450.116381 73.142162 
L 450.258241 194.603152 
L 450.399936 201.19463 
L 450.540283 82.99035 
L 450.681137 63.293973 
L 450.96701 184.754964 
L 451.248524 63.293973 
L 451.532591 289.802307 
L 451.673413 161.775857 
L 452.099948 145.36221 
L 452.381707 119.100374 
L 452.524738 233.995906 
L 452.668219 250.409553 
L 452.810938 184.754964 
L 452.954365 63.293973 
L 453.098893 89.555809 
L 453.240798 53.445785 
L 453.381911 145.36221 
L 453.523432 60.011244 
L 453.664237 66.576703 
L 453.807931 181.472234 
L 453.948026 96.121268 
L 454.088559 135.514022 
L 454.230924 60.011244 
L 454.371778 66.576703 
L 454.512607 99.403998 
L 454.653308 63.293973 
L 454.795668 352.174167 
L 454.941683 286.519577 
L 455.083638 56.728514 
L 455.224445 50.163056 
L 455.365178 53.445785 
L 455.505876 82.99035 
L 455.647337 191.320423 
L 455.788235 63.293973 
L 456.069815 53.445785 
L 456.209957 63.293973 
L 456.35018 60.011244 
L 456.63047 171.624046 
L 456.770619 197.885882 
L 457.05281 53.445785 
L 457.197845 142.079481 
L 457.480827 66.576703 
L 457.623365 99.403998 
L 457.764631 53.445785 
L 457.905074 63.293973 
L 458.045463 60.011244 
L 458.185966 76.424891 
L 458.327662 60.011244 
L 458.467793 115.817645 
L 458.608007 73.142162 
L 458.748549 92.838539 
L 458.888728 168.341316 
L 459.029836 56.728514 
L 459.17307 142.079481 
L 459.313416 60.011244 
L 459.596543 233.995906 
L 459.87869 66.576703 
L 460.161926 283.236848 
L 460.301994 53.445785 
L 460.442791 66.576703 
L 460.582706 53.445785 
L 460.863078 63.293973 
L 461.004305 56.728514 
L 461.144801 178.189505 
L 461.284969 79.707621 
L 461.425075 63.293973 
L 461.565695 63.293973 
L 461.70626 73.142162 
L 461.986956 53.445785 
L 462.127671 73.142162 
L 462.26937 145.36221 
L 462.411576 79.707621 
L 462.554926 102.686727 
L 462.696246 53.445785 
L 462.979419 89.555809 
L 463.119643 230.713176 
L 463.405258 178.189505 
L 463.545806 256.975012 
L 463.689172 66.576703 
L 463.830585 66.576703 
L 464.112348 79.707621 
L 464.253825 181.472234 
L 464.396307 53.445785 
L 464.968999 247.126824 
L 465.254549 60.011244 
L 465.395017 86.27308 
L 465.53811 243.844094 
L 465.679317 122.383104 
L 465.822647 145.36221 
L 466.108762 60.011244 
L 466.250234 352.174167 
L 466.390824 316.064143 
L 466.531268 60.011244 
L 466.816414 207.73407 
L 466.957742 79.707621 
L 467.100652 53.445785 
L 467.383734 69.859432 
L 467.525251 201.19463 
L 467.667263 73.142162 
L 467.95037 184.754964 
L 468.091983 60.011244 
L 468.233414 224.147717 
L 468.375164 60.011244 
L 468.516196 79.707621 
L 468.657499 50.163056 
L 468.942022 181.472234 
L 469.08342 142.079481 
L 469.507793 293.085036 
L 469.650199 109.252186 
L 469.791548 233.995906 
L 470.076075 158.493128 
L 470.218488 174.906775 
L 470.500328 82.99035 
L 470.640742 53.445785 
L 470.781201 79.707621 
L 470.922225 56.728514 
L 471.063588 194.603152 
L 471.20396 194.603152 
L 471.343987 188.037693 
L 471.484431 60.011244 
L 471.626143 69.859432 
L 471.910847 53.445785 
L 472.332228 335.760519 
L 472.47302 63.293973 
L 472.613786 60.011244 
L 472.753863 73.142162 
L 472.894199 56.728514 
L 473.039783 194.603152 
L 473.468008 82.99035 
L 473.609623 279.954118 
L 473.751155 96.121268 
L 473.89235 145.36221 
L 474.033833 63.293973 
L 474.3217 76.424891 
L 474.463112 92.838539 
L 474.605534 128.948563 
L 474.746297 256.975012 
L 474.887572 82.99035 
L 475.027837 266.8232 
L 475.311127 112.534915 
L 475.452525 92.838539 
L 475.735454 309.498684 
L 475.878084 253.692283 
L 476.160822 56.728514 
L 476.302066 220.864988 
L 476.442671 92.838539 
L 476.583185 96.121268 
L 476.86713 197.885882 
L 477.008696 66.576703 
L 477.150006 96.121268 
L 477.29129 188.037693 
L 477.432495 158.493128 
L 477.573825 60.011244 
L 477.715805 79.707621 
L 477.858413 165.058587 
L 477.999586 112.534915 
L 478.141264 217.582258 
L 478.282423 60.011244 
L 478.427565 243.844094 
L 478.573213 60.011244 
L 478.718854 86.27308 
L 478.866819 335.760519 
L 479.011042 302.933225 
L 479.297946 63.293973 
L 479.43964 89.555809 
L 479.583809 82.99035 
L 479.870064 352.174167 
L 480.15374 217.582258 
L 480.294664 73.142162 
L 480.435495 56.728514 
L 480.716893 56.728514 
L 480.999798 151.927669 
L 481.141592 89.555809 
L 481.283365 204.451341 
L 481.566606 60.011244 
L 482.132841 263.540471 
L 482.274967 69.859432 
L 482.558269 243.844094 
L 482.699894 211.0168 
L 482.8415 53.445785 
L 483.12491 204.451341 
L 483.266526 184.754964 
L 483.408857 105.969457 
L 483.549377 112.534915 
L 483.690222 184.754964 
L 483.972238 89.555809 
L 484.113037 109.252186 
L 484.254952 201.19463 
L 484.395799 161.775857 
L 484.53657 69.859432 
L 484.678023 256.975012 
L 484.959837 60.011244 
L 485.104338 86.27308 
L 485.249533 56.728514 
L 485.532687 63.293973 
L 485.67357 69.859432 
L 485.814344 142.079481 
L 485.955075 339.043249 
L 486.095059 63.293973 
L 486.236565 86.27308 
L 486.37762 194.603152 
L 486.518501 66.576703 
L 486.800307 53.445785 
L 486.941806 53.445785 
L 487.082842 60.011244 
L 487.364364 178.189505 
L 487.505056 250.409553 
L 487.646497 191.320423 
L 487.787374 76.424891 
L 488.069062 132.231292 
L 488.210555 352.174167 
L 488.351387 56.728514 
L 488.492104 53.445785 
L 488.632865 184.754964 
L 488.773658 201.19463 
L 488.914499 76.424891 
L 489.055119 60.011244 
L 489.478008 273.388659 
L 489.619181 66.576703 
L 489.900878 178.189505 
L 490.041656 96.121268 
L 490.323586 296.367766 
L 490.464515 73.142162 
L 490.605282 60.011244 
L 490.746098 89.555809 
L 490.886958 266.8232 
L 491.028478 53.445785 
L 491.309865 194.603152 
L 491.450656 53.445785 
L 491.591144 66.576703 
L 491.732451 99.403998 
L 491.873829 56.728514 
L 492.155459 250.409553 
L 492.296369 125.665833 
L 492.578553 352.174167 
L 493.002408 96.121268 
L 493.143939 266.8232 
L 493.290045 138.796751 
L 493.713928 352.174167 
L 494.139631 50.163056 
L 494.280399 102.686727 
L 494.421138 53.445785 
L 494.563091 171.624046 
L 494.704684 174.906775 
L 494.989886 63.293973 
L 495.130623 53.445785 
L 495.272557 76.424891 
L 495.414166 56.728514 
L 495.556622 96.121268 
L 495.700301 197.885882 
L 495.841932 60.011244 
L 495.983353 56.728514 
L 496.125088 220.864988 
L 496.266962 56.728514 
L 496.408771 128.948563 
L 496.551525 142.079481 
L 496.694484 76.424891 
L 496.83807 96.121268 
L 497.124915 178.189505 
L 497.265796 89.555809 
L 497.406034 191.320423 
L 497.690643 125.665833 
L 497.972863 286.519577 
L 498.114153 60.011244 
L 498.25547 178.189505 
L 498.538838 60.011244 
L 498.679556 56.728514 
L 498.820526 69.859432 
L 498.961968 132.231292 
L 499.103523 63.293973 
L 499.246483 79.707621 
L 499.387274 53.445785 
L 499.528812 63.293973 
L 499.672347 50.163056 
L 499.813465 60.011244 
L 500.098821 325.912331 
L 500.242971 66.576703 
L 500.385259 240.561365 
L 500.667372 66.576703 
L 500.808016 122.383104 
L 500.951487 60.011244 
L 501.092551 76.424891 
L 501.233992 119.100374 
L 501.376364 60.011244 
L 501.518331 230.713176 
L 501.661021 89.555809 
L 501.804725 122.383104 
L 501.946361 53.445785 
L 502.087894 138.796751 
L 502.230669 53.445785 
L 502.513189 53.445785 
L 502.653476 112.534915 
L 502.793792 60.011244 
L 502.937248 66.576703 
L 503.078681 151.927669 
L 503.22082 53.445785 
L 503.507102 105.969457 
L 503.65057 306.215954 
L 503.796688 89.555809 
L 503.940136 112.534915 
L 504.082682 188.037693 
L 504.224829 201.19463 
L 504.369122 73.142162 
L 504.511217 82.99035 
L 504.652617 56.728514 
L 504.793699 60.011244 
L 504.936028 73.142162 
L 505.07702 217.582258 
L 505.217342 60.011244 
L 505.357763 105.969457 
L 505.498651 194.603152 
L 505.639296 161.775857 
L 505.779845 92.838539 
L 506.067578 174.906775 
L 506.209687 56.728514 
L 506.351812 63.293973 
L 506.493825 56.728514 
L 506.636355 56.728514 
L 506.777688 79.707621 
L 506.921658 60.011244 
L 507.063814 56.728514 
L 507.357869 352.174167 
L 507.640818 112.534915 
L 507.782414 322.629601 
L 507.923355 204.451341 
L 508.064171 197.885882 
L 508.205826 112.534915 
L 508.487705 204.451341 
L 508.629394 56.728514 
L 509.055705 191.320423 
L 509.1965 56.728514 
L 509.3376 128.948563 
L 509.478897 99.403998 
L 509.619947 174.906775 
L 509.761134 66.576703 
L 509.902167 92.838539 
L 510.043849 56.728514 
L 510.186895 191.320423 
L 510.473032 56.728514 
L 510.614652 86.27308 
L 510.756339 79.707621 
L 510.900702 63.293973 
L 511.183715 194.603152 
L 511.324493 197.885882 
L 511.466234 174.906775 
L 511.607852 194.603152 
L 511.749571 230.713176 
L 512.032012 76.424891 
L 512.174135 112.534915 
L 512.315347 99.403998 
L 512.456605 211.0168 
L 512.598501 161.775857 
L 512.743269 53.445785 
L 512.884992 82.99035 
L 513.026412 233.995906 
L 513.167518 132.231292 
L 513.309685 276.684398 
L 513.596287 60.011244 
L 513.736517 92.838539 
L 513.876543 53.445785 
L 514.018028 119.100374 
L 514.15935 99.403998 
L 514.300728 60.011244 
L 514.442955 161.775857 
L 514.584847 142.079481 
L 514.866113 79.707621 
L 515.007479 53.445785 
L 515.289703 299.650495 
L 515.430851 174.906775 
L 515.571709 161.775857 
L 515.713239 233.995906 
L 515.853431 63.293973 
L 515.996048 132.231292 
L 516.137564 293.085036 
L 516.278677 132.231292 
L 516.419044 230.713176 
L 516.559465 194.603152 
L 516.70077 66.576703 
L 516.841796 161.775857 
L 517.123914 76.424891 
L 517.264706 161.775857 
L 517.405487 158.493128 
L 517.546351 60.011244 
L 517.827867 243.844094 
L 518.109315 66.576703 
L 518.391513 230.713176 
L 518.531648 86.27308 
L 518.672151 155.210399 
L 518.812455 312.781413 
L 518.956124 66.576703 
L 519.097309 109.252186 
L 519.238724 266.8232 
L 519.38106 188.037693 
L 519.523756 247.126824 
L 519.664513 191.320423 
L 519.805186 194.603152 
L 520.087949 63.293973 
L 520.229359 233.995906 
L 520.370593 128.948563 
L 520.511335 197.885882 
L 520.652142 60.011244 
L 520.936116 92.838539 
L 521.083807 260.257742 
L 521.224297 53.445785 
L 521.364839 352.174167 
L 521.508298 345.608708 
L 521.649723 158.493128 
L 521.649723 158.493128 
" style="fill:none;stroke:#1f77b4;stroke-linecap:square;stroke-width:1.5;"/>
   </g>
   <g id="patch_3">
    <path d="M 120.878594 352.174167 
L 120.878594 35.0625 
" style="fill:none;stroke:#000000;stroke-linecap:square;stroke-linejoin:miter;stroke-width:0.8;"/>
   </g>
   <g id="patch_4">
    <path d="M 540.734062 352.174167 
L 540.734062 35.0625 
" style="fill:none;stroke:#000000;stroke-linecap:square;stroke-linejoin:miter;stroke-width:0.8;"/>
   </g>
   <g id="patch_5">
    <path d="M 120.878594 352.174167 
L 540.734062 352.174167 
" style="fill:none;stroke:#000000;stroke-linecap:square;stroke-linejoin:miter;stroke-width:0.8;"/>
   </g>
   <g id="patch_6">
    <path d="M 120.878594 35.0625 
L 540.734062 35.0625 
" style="fill:none;stroke:#000000;stroke-linecap:square;stroke-linejoin:miter;stroke-width:0.8;"/>
   </g>
   <g id="legend_1">
    <g id="patch_7">
     <path d="M 563.726836 63.938438 
L 627.601836 63.938438 
Q 629.601836 63.938438 629.601836 61.938438 
L 629.601836 37.0625 
Q 629.601836 35.0625 627.601836 35.0625 
L 563.726836 35.0625 
Q 561.726836 35.0625 561.726836 37.0625 
L 561.726836 61.938438 
Q 561.726836 63.938438 563.726836 63.938438 
z
" style="fill:#ffffff;opacity:0.8;stroke:#cccccc;stroke-linejoin:miter;"/>
    </g>
    <g id="line2d_16">
     <path d="M 565.726836 49.799688 
L 585.726836 49.799688 
" style="fill:none;stroke:#1f77b4;stroke-linecap:square;stroke-width:1.5;"/>
    </g>
    <g id="line2d_17"/>
    <g id="text_16">
     <!-- queue -->
     <g transform="translate(593.726836 46.660937)scale(0.1 -0.1)">
      <use xlink:href="#DejaVuSans-113"/>
      <use x="63.476562" xlink:href="#DejaVuSans-117"/>
      <use x="126.855469" xlink:href="#DejaVuSans-101"/>
      <use x="188.378906" xlink:href="#DejaVuSans-117"/>
      <use x="251.757812" xlink:href="#DejaVuSans-101"/>
     </g>
     <!-- length -->
     <defs>
      <path d="M 9.421875 75.984375 
L 18.40625 75.984375 
L 18.40625 0 
L 9.421875 0 
z
" id="DejaVuSans-108"/>
      <path d="M 54.890625 33.015625 
L 54.890625 0 
L 45.90625 0 
L 45.90625 32.71875 
Q 45.90625 40.484375 42.875 44.328125 
Q 39.84375 48.1875 33.796875 48.1875 
Q 26.515625 48.1875 22.3125 43.546875 
Q 18.109375 38.921875 18.109375 30.90625 
L 18.109375 0 
L 9.078125 0 
L 9.078125 54.6875 
L 18.109375 54.6875 
L 18.109375 46.1875 
Q 21.34375 51.125 25.703125 53.5625 
Q 30.078125 56 35.796875 56 
Q 45.21875 56 50.046875 50.171875 
Q 54.890625 44.34375 54.890625 33.015625 
z
" id="DejaVuSans-110"/>
      <path d="M 45.40625 27.984375 
Q 45.40625 37.75 41.375 43.109375 
Q 37.359375 48.484375 30.078125 48.484375 
Q 22.859375 48.484375 18.828125 43.109375 
Q 14.796875 37.75 14.796875 27.984375 
Q 14.796875 18.265625 18.828125 12.890625 
Q 22.859375 7.515625 30.078125 7.515625 
Q 37.359375 7.515625 41.375 12.890625 
Q 45.40625 18.265625 45.40625 27.984375 
z
M 54.390625 6.78125 
Q 54.390625 -7.171875 48.1875 -13.984375 
Q 42 -20.796875 29.203125 -20.796875 
Q 24.46875 -20.796875 20.265625 -20.09375 
Q 16.0625 -19.390625 12.109375 -17.921875 
L 12.109375 -9.1875 
Q 16.0625 -11.328125 19.921875 -12.34375 
Q 23.78125 -13.375 27.78125 -13.375 
Q 36.625 -13.375 41.015625 -8.765625 
Q 45.40625 -4.15625 45.40625 5.171875 
L 45.40625 9.625 
Q 42.625 4.78125 38.28125 2.390625 
Q 33.9375 0 27.875 0 
Q 17.828125 0 11.671875 7.65625 
Q 5.515625 15.328125 5.515625 27.984375 
Q 5.515625 40.671875 11.671875 48.328125 
Q 17.828125 56 27.875 56 
Q 33.9375 56 38.28125 53.609375 
Q 42.625 51.21875 45.40625 46.390625 
L 45.40625 54.6875 
L 54.390625 54.6875 
z
" id="DejaVuSans-103"/>
      <path d="M 54.890625 33.015625 
L 54.890625 0 
L 45.90625 0 
L 45.90625 32.71875 
Q 45.90625 40.484375 42.875 44.328125 
Q 39.84375 48.1875 33.796875 48.1875 
Q 26.515625 48.1875 22.3125 43.546875 
Q 18.109375 38.921875 18.109375 30.90625 
L 18.109375 0 
L 9.078125 0 
L 9.078125 75.984375 
L 18.109375 75.984375 
L 18.109375 46.1875 
Q 21.34375 51.125 25.703125 53.5625 
Q 30.078125 56 35.796875 56 
Q 45.21875 56 50.046875 50.171875 
Q 54.890625 44.34375 54.890625 33.015625 
z
" id="DejaVuSans-104"/>
     </defs>
     <g transform="translate(593.726836 57.85875)scale(0.1 -0.1)">
      <use xlink:href="#DejaVuSans-108"/>
      <use x="27.783203" xlink:href="#DejaVuSans-101"/>
      <use x="89.306641" xlink:href="#DejaVuSans-110"/>
      <use x="152.685547" xlink:href="#DejaVuSans-103"/>
      <use x="216.162109" xlink:href="#DejaVuSans-116"/>
      <use x="255.371094" xlink:href="#DejaVuSans-104"/>
     </g>
    </g>
   </g>
  </g>
  <g id="text_17">
   <!-- result queue (bytes) -->
   <defs>
    <path d="M 41.109375 46.296875 
Q 39.59375 47.171875 37.8125 47.578125 
Q 36.03125 48 33.890625 48 
Q 26.265625 48 22.1875 43.046875 
Q 18.109375 38.09375 18.109375 28.8125 
L 18.109375 0 
L 9.078125 0 
L 9.078125 54.6875 
L 18.109375 54.6875 
L 18.109375 46.1875 
Q 20.953125 51.171875 25.484375 53.578125 
Q 30.03125 56 36.53125 56 
Q 37.453125 56 38.578125 55.875 
Q 39.703125 55.765625 41.0625 55.515625 
z
" id="DejaVuSans-114"/>
    <path id="DejaVuSans-32"/>
   </defs>
   <g transform="translate(281.072812 17.038125)scale(0.12 -0.12)">
    <use xlink:href="#DejaVuSans-114"/>
    <use x="41.082031" xlink:href="#DejaVuSans-101"/>
    <use x="102.605469" xlink:href="#DejaVuSans-115"/>
    <use x="154.705078" xlink:href="#DejaVuSans-117"/>
    <use x="218.083984" xlink:href="#DejaVuSans-108"/>
    <use x="245.867188" xlink:href="#DejaVuSans-116"/>
    <use x="285.076172" xlink:href="#DejaVuSans-32"/>
    <use x="316.863281" xlink:href="#DejaVuSans-113"/>
    <use x="380.339844" xlink:href="#DejaVuSans-117"/>
    <use x="443.71875" xlink:href="#DejaVuSans-101"/>
    <use x="505.242188" xlink:href="#DejaVuSans-117"/>
    <use x="568.621094" xlink:href="#DejaVuSans-101"/>
    <use x="630.144531" xlink:href="#DejaVuSans-32"/>
    <use x="661.931641" xlink:href="#DejaVuSans-40"/>
    <use x="700.945312" xlink:href="#DejaVuSans-98"/>
    <use x="764.421875" xlink:href="#DejaVuSans-121"/>
    <use x="823.601562" xlink:href="#DejaVuSans-116"/>
    <use x="862.810547" xlink:href="#DejaVuSans-101"/>
    <use x="924.333984" xlink:href="#DejaVuSans-115"/>
    <use x="976.433594" xlink:href="#DejaVuSans-41"/>
   </g>
  </g>
 </g>
 <defs>
  <clipPath id="p856b28b9b1">
   <rect height="317.111667" width="419.855469" x="120.878594" y="35.0625"/>
  </clipPath>
 </defs>
</svg>
