<?xml version="1.0" encoding="utf-8" standalone="no"?>
<!DOCTYPE svg PUBLIC "-//W3C//DTD SVG 1.1//EN"
  "http://www.w3.org/Graphics/SVG/1.1/DTD/svg11.dtd">
<!-- Created with matplotlib (https://matplotlib.org/) -->
<svg height="396pt" version="1.1" viewBox="0 0 684 396" width="684pt" xmlns="http://www.w3.org/2000/svg" xmlns:xlink="http://www.w3.org/1999/xlink">
 <defs>
  <style type="text/css">
*{stroke-linecap:butt;stroke-linejoin:round;}
  </style>
 </defs>
 <g id="figure_1">
  <g id="patch_1">
   <path d="M 0 396 
L 684 396 
L 684 0 
L 0 0 
z
" style="fill:#ffffff;"/>
  </g>
  <g id="axes_1">
   <g id="patch_2">
    <path d="M 83.472344 352.174167 
L 544.073906 352.174167 
L 544.073906 35.0625 
L 83.472344 35.0625 
z
" style="fill:#ffffff;"/>
   </g>
   <g id="matplotlib.axis_1">
    <g id="xtick_1">
     <g id="line2d_1">
      <defs>
       <path d="M 0 0 
L 0 3.5 
" id="m0ce4bf97b3" style="stroke:#000000;stroke-width:0.8;"/>
      </defs>
      <g>
       <use style="stroke:#000000;stroke-width:0.8;" x="104.398197" xlink:href="#m0ce4bf97b3" y="352.174167"/>
      </g>
     </g>
     <g id="text_1">
      <!-- 0 -->
      <defs>
       <path d="M 31.78125 66.40625 
Q 24.171875 66.40625 20.328125 58.90625 
Q 16.5 51.421875 16.5 36.375 
Q 16.5 21.390625 20.328125 13.890625 
Q 24.171875 6.390625 31.78125 6.390625 
Q 39.453125 6.390625 43.28125 13.890625 
Q 47.125 21.390625 47.125 36.375 
Q 47.125 51.421875 43.28125 58.90625 
Q 39.453125 66.40625 31.78125 66.40625 
z
M 31.78125 74.21875 
Q 44.046875 74.21875 50.515625 64.515625 
Q 56.984375 54.828125 56.984375 36.375 
Q 56.984375 17.96875 50.515625 8.265625 
Q 44.046875 -1.421875 31.78125 -1.421875 
Q 19.53125 -1.421875 13.0625 8.265625 
Q 6.59375 17.96875 6.59375 36.375 
Q 6.59375 54.828125 13.0625 64.515625 
Q 19.53125 74.21875 31.78125 74.21875 
z
" id="DejaVuSans-48"/>
      </defs>
      <g transform="translate(101.216947 366.772604)scale(0.1 -0.1)">
       <use xlink:href="#DejaVuSans-48"/>
      </g>
     </g>
    </g>
    <g id="xtick_2">
     <g id="line2d_2">
      <g>
       <use style="stroke:#000000;stroke-width:0.8;" x="179.979084" xlink:href="#m0ce4bf97b3" y="352.174167"/>
      </g>
     </g>
     <g id="text_2">
      <!-- 50 -->
      <defs>
       <path d="M 10.796875 72.90625 
L 49.515625 72.90625 
L 49.515625 64.59375 
L 19.828125 64.59375 
L 19.828125 46.734375 
Q 21.96875 47.46875 24.109375 47.828125 
Q 26.265625 48.1875 28.421875 48.1875 
Q 40.625 48.1875 47.75 41.5 
Q 54.890625 34.8125 54.890625 23.390625 
Q 54.890625 11.625 47.5625 5.09375 
Q 40.234375 -1.421875 26.90625 -1.421875 
Q 22.3125 -1.421875 17.546875 -0.640625 
Q 12.796875 0.140625 7.71875 1.703125 
L 7.71875 11.625 
Q 12.109375 9.234375 16.796875 8.0625 
Q 21.484375 6.890625 26.703125 6.890625 
Q 35.15625 6.890625 40.078125 11.328125 
Q 45.015625 15.765625 45.015625 23.390625 
Q 45.015625 31 40.078125 35.4375 
Q 35.15625 39.890625 26.703125 39.890625 
Q 22.75 39.890625 18.8125 39.015625 
Q 14.890625 38.140625 10.796875 36.28125 
z
" id="DejaVuSans-53"/>
      </defs>
      <g transform="translate(173.616584 366.772604)scale(0.1 -0.1)">
       <use xlink:href="#DejaVuSans-53"/>
       <use x="63.623047" xlink:href="#DejaVuSans-48"/>
      </g>
     </g>
    </g>
    <g id="xtick_3">
     <g id="line2d_3">
      <g>
       <use style="stroke:#000000;stroke-width:0.8;" x="255.55997" xlink:href="#m0ce4bf97b3" y="352.174167"/>
      </g>
     </g>
     <g id="text_3">
      <!-- 100 -->
      <defs>
       <path d="M 12.40625 8.296875 
L 28.515625 8.296875 
L 28.515625 63.921875 
L 10.984375 60.40625 
L 10.984375 69.390625 
L 28.421875 72.90625 
L 38.28125 72.90625 
L 38.28125 8.296875 
L 54.390625 8.296875 
L 54.390625 0 
L 12.40625 0 
z
" id="DejaVuSans-49"/>
      </defs>
      <g transform="translate(246.01622 366.772604)scale(0.1 -0.1)">
       <use xlink:href="#DejaVuSans-49"/>
       <use x="63.623047" xlink:href="#DejaVuSans-48"/>
       <use x="127.246094" xlink:href="#DejaVuSans-48"/>
      </g>
     </g>
    </g>
    <g id="xtick_4">
     <g id="line2d_4">
      <g>
       <use style="stroke:#000000;stroke-width:0.8;" x="331.140857" xlink:href="#m0ce4bf97b3" y="352.174167"/>
      </g>
     </g>
     <g id="text_4">
      <!-- 150 -->
      <g transform="translate(321.597107 366.772604)scale(0.1 -0.1)">
       <use xlink:href="#DejaVuSans-49"/>
       <use x="63.623047" xlink:href="#DejaVuSans-53"/>
       <use x="127.246094" xlink:href="#DejaVuSans-48"/>
      </g>
     </g>
    </g>
    <g id="xtick_5">
     <g id="line2d_5">
      <g>
       <use style="stroke:#000000;stroke-width:0.8;" x="406.721744" xlink:href="#m0ce4bf97b3" y="352.174167"/>
      </g>
     </g>
     <g id="text_5">
      <!-- 200 -->
      <defs>
       <path d="M 19.1875 8.296875 
L 53.609375 8.296875 
L 53.609375 0 
L 7.328125 0 
L 7.328125 8.296875 
Q 12.9375 14.109375 22.625 23.890625 
Q 32.328125 33.6875 34.8125 36.53125 
Q 39.546875 41.84375 41.421875 45.53125 
Q 43.3125 49.21875 43.3125 52.78125 
Q 43.3125 58.59375 39.234375 62.25 
Q 35.15625 65.921875 28.609375 65.921875 
Q 23.96875 65.921875 18.8125 64.3125 
Q 13.671875 62.703125 7.8125 59.421875 
L 7.8125 69.390625 
Q 13.765625 71.78125 18.9375 73 
Q 24.125 74.21875 28.421875 74.21875 
Q 39.75 74.21875 46.484375 68.546875 
Q 53.21875 62.890625 53.21875 53.421875 
Q 53.21875 48.921875 51.53125 44.890625 
Q 49.859375 40.875 45.40625 35.40625 
Q 44.1875 33.984375 37.640625 27.21875 
Q 31.109375 20.453125 19.1875 8.296875 
z
" id="DejaVuSans-50"/>
      </defs>
      <g transform="translate(397.177994 366.772604)scale(0.1 -0.1)">
       <use xlink:href="#DejaVuSans-50"/>
       <use x="63.623047" xlink:href="#DejaVuSans-48"/>
       <use x="127.246094" xlink:href="#DejaVuSans-48"/>
      </g>
     </g>
    </g>
    <g id="xtick_6">
     <g id="line2d_6">
      <g>
       <use style="stroke:#000000;stroke-width:0.8;" x="482.30263" xlink:href="#m0ce4bf97b3" y="352.174167"/>
      </g>
     </g>
     <g id="text_6">
      <!-- 250 -->
      <g transform="translate(472.75888 366.772604)scale(0.1 -0.1)">
       <use xlink:href="#DejaVuSans-50"/>
       <use x="63.623047" xlink:href="#DejaVuSans-53"/>
       <use x="127.246094" xlink:href="#DejaVuSans-48"/>
      </g>
     </g>
    </g>
   </g>
   <g id="matplotlib.axis_2">
    <g id="ytick_1">
     <g id="line2d_7">
      <defs>
       <path d="M 0 0 
L -3.5 0 
" id="mf1d2332845" style="stroke:#000000;stroke-width:0.8;"/>
      </defs>
      <g>
       <use style="stroke:#000000;stroke-width:0.8;" x="83.472344" xlink:href="#mf1d2332845" y="352.174167"/>
      </g>
     </g>
     <g id="text_7">
      <!-- 0 -->
      <g transform="translate(70.109844 355.973385)scale(0.1 -0.1)">
       <use xlink:href="#DejaVuSans-48"/>
      </g>
     </g>
    </g>
    <g id="ytick_2">
     <g id="line2d_8">
      <g>
       <use style="stroke:#000000;stroke-width:0.8;" x="83.472344" xlink:href="#mf1d2332845" y="313.454793"/>
      </g>
     </g>
     <g id="text_8">
      <!-- 5 -->
      <g transform="translate(70.109844 317.254012)scale(0.1 -0.1)">
       <use xlink:href="#DejaVuSans-53"/>
      </g>
     </g>
    </g>
    <g id="ytick_3">
     <g id="line2d_9">
      <g>
       <use style="stroke:#000000;stroke-width:0.8;" x="83.472344" xlink:href="#mf1d2332845" y="274.73542"/>
      </g>
     </g>
     <g id="text_9">
      <!-- 10 -->
      <g transform="translate(63.747344 278.534639)scale(0.1 -0.1)">
       <use xlink:href="#DejaVuSans-49"/>
       <use x="63.623047" xlink:href="#DejaVuSans-48"/>
      </g>
     </g>
    </g>
    <g id="ytick_4">
     <g id="line2d_10">
      <g>
       <use style="stroke:#000000;stroke-width:0.8;" x="83.472344" xlink:href="#mf1d2332845" y="236.016047"/>
      </g>
     </g>
     <g id="text_10">
      <!-- 15 -->
      <g transform="translate(63.747344 239.815266)scale(0.1 -0.1)">
       <use xlink:href="#DejaVuSans-49"/>
       <use x="63.623047" xlink:href="#DejaVuSans-53"/>
      </g>
     </g>
    </g>
    <g id="ytick_5">
     <g id="line2d_11">
      <g>
       <use style="stroke:#000000;stroke-width:0.8;" x="83.472344" xlink:href="#mf1d2332845" y="197.296674"/>
      </g>
     </g>
     <g id="text_11">
      <!-- 20 -->
      <g transform="translate(63.747344 201.095893)scale(0.1 -0.1)">
       <use xlink:href="#DejaVuSans-50"/>
       <use x="63.623047" xlink:href="#DejaVuSans-48"/>
      </g>
     </g>
    </g>
    <g id="ytick_6">
     <g id="line2d_12">
      <g>
       <use style="stroke:#000000;stroke-width:0.8;" x="83.472344" xlink:href="#mf1d2332845" y="158.577301"/>
      </g>
     </g>
     <g id="text_12">
      <!-- 25 -->
      <g transform="translate(63.747344 162.376519)scale(0.1 -0.1)">
       <use xlink:href="#DejaVuSans-50"/>
       <use x="63.623047" xlink:href="#DejaVuSans-53"/>
      </g>
     </g>
    </g>
    <g id="ytick_7">
     <g id="line2d_13">
      <g>
       <use style="stroke:#000000;stroke-width:0.8;" x="83.472344" xlink:href="#mf1d2332845" y="119.857927"/>
      </g>
     </g>
     <g id="text_13">
      <!-- 30 -->
      <defs>
       <path d="M 40.578125 39.3125 
Q 47.65625 37.796875 51.625 33 
Q 55.609375 28.21875 55.609375 21.1875 
Q 55.609375 10.40625 48.1875 4.484375 
Q 40.765625 -1.421875 27.09375 -1.421875 
Q 22.515625 -1.421875 17.65625 -0.515625 
Q 12.796875 0.390625 7.625 2.203125 
L 7.625 11.71875 
Q 11.71875 9.328125 16.59375 8.109375 
Q 21.484375 6.890625 26.8125 6.890625 
Q 36.078125 6.890625 40.9375 10.546875 
Q 45.796875 14.203125 45.796875 21.1875 
Q 45.796875 27.640625 41.28125 31.265625 
Q 36.765625 34.90625 28.71875 34.90625 
L 20.21875 34.90625 
L 20.21875 43.015625 
L 29.109375 43.015625 
Q 36.375 43.015625 40.234375 45.921875 
Q 44.09375 48.828125 44.09375 54.296875 
Q 44.09375 59.90625 40.109375 62.90625 
Q 36.140625 65.921875 28.71875 65.921875 
Q 24.65625 65.921875 20.015625 65.03125 
Q 15.375 64.15625 9.8125 62.3125 
L 9.8125 71.09375 
Q 15.4375 72.65625 20.34375 73.4375 
Q 25.25 74.21875 29.59375 74.21875 
Q 40.828125 74.21875 47.359375 69.109375 
Q 53.90625 64.015625 53.90625 55.328125 
Q 53.90625 49.265625 50.4375 45.09375 
Q 46.96875 40.921875 40.578125 39.3125 
z
" id="DejaVuSans-51"/>
      </defs>
      <g transform="translate(63.747344 123.657146)scale(0.1 -0.1)">
       <use xlink:href="#DejaVuSans-51"/>
       <use x="63.623047" xlink:href="#DejaVuSans-48"/>
      </g>
     </g>
    </g>
    <g id="ytick_8">
     <g id="line2d_14">
      <g>
       <use style="stroke:#000000;stroke-width:0.8;" x="83.472344" xlink:href="#mf1d2332845" y="81.138554"/>
      </g>
     </g>
     <g id="text_14">
      <!-- 35 -->
      <g transform="translate(63.747344 84.937773)scale(0.1 -0.1)">
       <use xlink:href="#DejaVuSans-51"/>
       <use x="63.623047" xlink:href="#DejaVuSans-53"/>
      </g>
     </g>
    </g>
    <g id="ytick_9">
     <g id="line2d_15">
      <g>
       <use style="stroke:#000000;stroke-width:0.8;" x="83.472344" xlink:href="#mf1d2332845" y="42.419181"/>
      </g>
     </g>
     <g id="text_15">
      <!-- 40 -->
      <defs>
       <path d="M 37.796875 64.3125 
L 12.890625 25.390625 
L 37.796875 25.390625 
z
M 35.203125 72.90625 
L 47.609375 72.90625 
L 47.609375 25.390625 
L 58.015625 25.390625 
L 58.015625 17.1875 
L 47.609375 17.1875 
L 47.609375 0 
L 37.796875 0 
L 37.796875 17.1875 
L 4.890625 17.1875 
L 4.890625 26.703125 
z
" id="DejaVuSans-52"/>
      </defs>
      <g transform="translate(63.747344 46.2184)scale(0.1 -0.1)">
       <use xlink:href="#DejaVuSans-52"/>
       <use x="63.623047" xlink:href="#DejaVuSans-48"/>
      </g>
     </g>
    </g>
    <g id="text_16">
     <!-- throughput -->
     <defs>
      <path d="M 18.3125 70.21875 
L 18.3125 54.6875 
L 36.8125 54.6875 
L 36.8125 47.703125 
L 18.3125 47.703125 
L 18.3125 18.015625 
Q 18.3125 11.328125 20.140625 9.421875 
Q 21.96875 7.515625 27.59375 7.515625 
L 36.8125 7.515625 
L 36.8125 0 
L 27.59375 0 
Q 17.1875 0 13.234375 3.875 
Q 9.28125 7.765625 9.28125 18.015625 
L 9.28125 47.703125 
L 2.6875 47.703125 
L 2.6875 54.6875 
L 9.28125 54.6875 
L 9.28125 70.21875 
z
" id="DejaVuSans-116"/>
      <path d="M 54.890625 33.015625 
L 54.890625 0 
L 45.90625 0 
L 45.90625 32.71875 
Q 45.90625 40.484375 42.875 44.328125 
Q 39.84375 48.1875 33.796875 48.1875 
Q 26.515625 48.1875 22.3125 43.546875 
Q 18.109375 38.921875 18.109375 30.90625 
L 18.109375 0 
L 9.078125 0 
L 9.078125 75.984375 
L 18.109375 75.984375 
L 18.109375 46.1875 
Q 21.34375 51.125 25.703125 53.5625 
Q 30.078125 56 35.796875 56 
Q 45.21875 56 50.046875 50.171875 
Q 54.890625 44.34375 54.890625 33.015625 
z
" id="DejaVuSans-104"/>
      <path d="M 41.109375 46.296875 
Q 39.59375 47.171875 37.8125 47.578125 
Q 36.03125 48 33.890625 48 
Q 26.265625 48 22.1875 43.046875 
Q 18.109375 38.09375 18.109375 28.8125 
L 18.109375 0 
L 9.078125 0 
L 9.078125 54.6875 
L 18.109375 54.6875 
L 18.109375 46.1875 
Q 20.953125 51.171875 25.484375 53.578125 
Q 30.03125 56 36.53125 56 
Q 37.453125 56 38.578125 55.875 
Q 39.703125 55.765625 41.0625 55.515625 
z
" id="DejaVuSans-114"/>
      <path d="M 30.609375 48.390625 
Q 23.390625 48.390625 19.1875 42.75 
Q 14.984375 37.109375 14.984375 27.296875 
Q 14.984375 17.484375 19.15625 11.84375 
Q 23.34375 6.203125 30.609375 6.203125 
Q 37.796875 6.203125 41.984375 11.859375 
Q 46.1875 17.53125 46.1875 27.296875 
Q 46.1875 37.015625 41.984375 42.703125 
Q 37.796875 48.390625 30.609375 48.390625 
z
M 30.609375 56 
Q 42.328125 56 49.015625 48.375 
Q 55.71875 40.765625 55.71875 27.296875 
Q 55.71875 13.875 49.015625 6.21875 
Q 42.328125 -1.421875 30.609375 -1.421875 
Q 18.84375 -1.421875 12.171875 6.21875 
Q 5.515625 13.875 5.515625 27.296875 
Q 5.515625 40.765625 12.171875 48.375 
Q 18.84375 56 30.609375 56 
z
" id="DejaVuSans-111"/>
      <path d="M 8.5 21.578125 
L 8.5 54.6875 
L 17.484375 54.6875 
L 17.484375 21.921875 
Q 17.484375 14.15625 20.5 10.265625 
Q 23.53125 6.390625 29.59375 6.390625 
Q 36.859375 6.390625 41.078125 11.03125 
Q 45.3125 15.671875 45.3125 23.6875 
L 45.3125 54.6875 
L 54.296875 54.6875 
L 54.296875 0 
L 45.3125 0 
L 45.3125 8.40625 
Q 42.046875 3.421875 37.71875 1 
Q 33.40625 -1.421875 27.6875 -1.421875 
Q 18.265625 -1.421875 13.375 4.4375 
Q 8.5 10.296875 8.5 21.578125 
z
M 31.109375 56 
z
" id="DejaVuSans-117"/>
      <path d="M 45.40625 27.984375 
Q 45.40625 37.75 41.375 43.109375 
Q 37.359375 48.484375 30.078125 48.484375 
Q 22.859375 48.484375 18.828125 43.109375 
Q 14.796875 37.75 14.796875 27.984375 
Q 14.796875 18.265625 18.828125 12.890625 
Q 22.859375 7.515625 30.078125 7.515625 
Q 37.359375 7.515625 41.375 12.890625 
Q 45.40625 18.265625 45.40625 27.984375 
z
M 54.390625 6.78125 
Q 54.390625 -7.171875 48.1875 -13.984375 
Q 42 -20.796875 29.203125 -20.796875 
Q 24.46875 -20.796875 20.265625 -20.09375 
Q 16.0625 -19.390625 12.109375 -17.921875 
L 12.109375 -9.1875 
Q 16.0625 -11.328125 19.921875 -12.34375 
Q 23.78125 -13.375 27.78125 -13.375 
Q 36.625 -13.375 41.015625 -8.765625 
Q 45.40625 -4.15625 45.40625 5.171875 
L 45.40625 9.625 
Q 42.625 4.78125 38.28125 2.390625 
Q 33.9375 0 27.875 0 
Q 17.828125 0 11.671875 7.65625 
Q 5.515625 15.328125 5.515625 27.984375 
Q 5.515625 40.671875 11.671875 48.328125 
Q 17.828125 56 27.875 56 
Q 33.9375 56 38.28125 53.609375 
Q 42.625 51.21875 45.40625 46.390625 
L 45.40625 54.6875 
L 54.390625 54.6875 
z
" id="DejaVuSans-103"/>
      <path d="M 18.109375 8.203125 
L 18.109375 -20.796875 
L 9.078125 -20.796875 
L 9.078125 54.6875 
L 18.109375 54.6875 
L 18.109375 46.390625 
Q 20.953125 51.265625 25.265625 53.625 
Q 29.59375 56 35.59375 56 
Q 45.5625 56 51.78125 48.09375 
Q 58.015625 40.1875 58.015625 27.296875 
Q 58.015625 14.40625 51.78125 6.484375 
Q 45.5625 -1.421875 35.59375 -1.421875 
Q 29.59375 -1.421875 25.265625 0.953125 
Q 20.953125 3.328125 18.109375 8.203125 
z
M 48.6875 27.296875 
Q 48.6875 37.203125 44.609375 42.84375 
Q 40.53125 48.484375 33.40625 48.484375 
Q 26.265625 48.484375 22.1875 42.84375 
Q 18.109375 37.203125 18.109375 27.296875 
Q 18.109375 17.390625 22.1875 11.75 
Q 26.265625 6.109375 33.40625 6.109375 
Q 40.53125 6.109375 44.609375 11.75 
Q 48.6875 17.390625 48.6875 27.296875 
z
" id="DejaVuSans-112"/>
     </defs>
     <g transform="translate(46.469844 221.675365)rotate(-90)scale(0.1 -0.1)">
      <use xlink:href="#DejaVuSans-116"/>
      <use x="39.208984" xlink:href="#DejaVuSans-104"/>
      <use x="102.587891" xlink:href="#DejaVuSans-114"/>
      <use x="143.669922" xlink:href="#DejaVuSans-111"/>
      <use x="204.851562" xlink:href="#DejaVuSans-117"/>
      <use x="268.230469" xlink:href="#DejaVuSans-103"/>
      <use x="331.707031" xlink:href="#DejaVuSans-104"/>
      <use x="395.085938" xlink:href="#DejaVuSans-112"/>
      <use x="458.5625" xlink:href="#DejaVuSans-117"/>
      <use x="521.941406" xlink:href="#DejaVuSans-116"/>
     </g>
     <!-- (mbit / second) -->
     <defs>
      <path d="M 31 75.875 
Q 24.46875 64.65625 21.28125 53.65625 
Q 18.109375 42.671875 18.109375 31.390625 
Q 18.109375 20.125 21.3125 9.0625 
Q 24.515625 -2 31 -13.1875 
L 23.1875 -13.1875 
Q 15.875 -1.703125 12.234375 9.375 
Q 8.59375 20.453125 8.59375 31.390625 
Q 8.59375 42.28125 12.203125 53.3125 
Q 15.828125 64.359375 23.1875 75.875 
z
" id="DejaVuSans-40"/>
      <path d="M 52 44.1875 
Q 55.375 50.25 60.0625 53.125 
Q 64.75 56 71.09375 56 
Q 79.640625 56 84.28125 50.015625 
Q 88.921875 44.046875 88.921875 33.015625 
L 88.921875 0 
L 79.890625 0 
L 79.890625 32.71875 
Q 79.890625 40.578125 77.09375 44.375 
Q 74.3125 48.1875 68.609375 48.1875 
Q 61.625 48.1875 57.5625 43.546875 
Q 53.515625 38.921875 53.515625 30.90625 
L 53.515625 0 
L 44.484375 0 
L 44.484375 32.71875 
Q 44.484375 40.625 41.703125 44.40625 
Q 38.921875 48.1875 33.109375 48.1875 
Q 26.21875 48.1875 22.15625 43.53125 
Q 18.109375 38.875 18.109375 30.90625 
L 18.109375 0 
L 9.078125 0 
L 9.078125 54.6875 
L 18.109375 54.6875 
L 18.109375 46.1875 
Q 21.1875 51.21875 25.484375 53.609375 
Q 29.78125 56 35.6875 56 
Q 41.65625 56 45.828125 52.96875 
Q 50 49.953125 52 44.1875 
z
" id="DejaVuSans-109"/>
      <path d="M 48.6875 27.296875 
Q 48.6875 37.203125 44.609375 42.84375 
Q 40.53125 48.484375 33.40625 48.484375 
Q 26.265625 48.484375 22.1875 42.84375 
Q 18.109375 37.203125 18.109375 27.296875 
Q 18.109375 17.390625 22.1875 11.75 
Q 26.265625 6.109375 33.40625 6.109375 
Q 40.53125 6.109375 44.609375 11.75 
Q 48.6875 17.390625 48.6875 27.296875 
z
M 18.109375 46.390625 
Q 20.953125 51.265625 25.265625 53.625 
Q 29.59375 56 35.59375 56 
Q 45.5625 56 51.78125 48.09375 
Q 58.015625 40.1875 58.015625 27.296875 
Q 58.015625 14.40625 51.78125 6.484375 
Q 45.5625 -1.421875 35.59375 -1.421875 
Q 29.59375 -1.421875 25.265625 0.953125 
Q 20.953125 3.328125 18.109375 8.203125 
L 18.109375 0 
L 9.078125 0 
L 9.078125 75.984375 
L 18.109375 75.984375 
z
" id="DejaVuSans-98"/>
      <path d="M 9.421875 54.6875 
L 18.40625 54.6875 
L 18.40625 0 
L 9.421875 0 
z
M 9.421875 75.984375 
L 18.40625 75.984375 
L 18.40625 64.59375 
L 9.421875 64.59375 
z
" id="DejaVuSans-105"/>
      <path id="DejaVuSans-32"/>
      <path d="M 25.390625 72.90625 
L 33.6875 72.90625 
L 8.296875 -9.28125 
L 0 -9.28125 
z
" id="DejaVuSans-47"/>
      <path d="M 44.28125 53.078125 
L 44.28125 44.578125 
Q 40.484375 46.53125 36.375 47.5 
Q 32.28125 48.484375 27.875 48.484375 
Q 21.1875 48.484375 17.84375 46.4375 
Q 14.5 44.390625 14.5 40.28125 
Q 14.5 37.15625 16.890625 35.375 
Q 19.28125 33.59375 26.515625 31.984375 
L 29.59375 31.296875 
Q 39.15625 29.25 43.1875 25.515625 
Q 47.21875 21.78125 47.21875 15.09375 
Q 47.21875 7.46875 41.1875 3.015625 
Q 35.15625 -1.421875 24.609375 -1.421875 
Q 20.21875 -1.421875 15.453125 -0.5625 
Q 10.6875 0.296875 5.421875 2 
L 5.421875 11.28125 
Q 10.40625 8.6875 15.234375 7.390625 
Q 20.0625 6.109375 24.8125 6.109375 
Q 31.15625 6.109375 34.5625 8.28125 
Q 37.984375 10.453125 37.984375 14.40625 
Q 37.984375 18.0625 35.515625 20.015625 
Q 33.0625 21.96875 24.703125 23.78125 
L 21.578125 24.515625 
Q 13.234375 26.265625 9.515625 29.90625 
Q 5.8125 33.546875 5.8125 39.890625 
Q 5.8125 47.609375 11.28125 51.796875 
Q 16.75 56 26.8125 56 
Q 31.78125 56 36.171875 55.265625 
Q 40.578125 54.546875 44.28125 53.078125 
z
" id="DejaVuSans-115"/>
      <path d="M 56.203125 29.59375 
L 56.203125 25.203125 
L 14.890625 25.203125 
Q 15.484375 15.921875 20.484375 11.0625 
Q 25.484375 6.203125 34.421875 6.203125 
Q 39.59375 6.203125 44.453125 7.46875 
Q 49.3125 8.734375 54.109375 11.28125 
L 54.109375 2.78125 
Q 49.265625 0.734375 44.1875 -0.34375 
Q 39.109375 -1.421875 33.890625 -1.421875 
Q 20.796875 -1.421875 13.15625 6.1875 
Q 5.515625 13.8125 5.515625 26.8125 
Q 5.515625 40.234375 12.765625 48.109375 
Q 20.015625 56 32.328125 56 
Q 43.359375 56 49.78125 48.890625 
Q 56.203125 41.796875 56.203125 29.59375 
z
M 47.21875 32.234375 
Q 47.125 39.59375 43.09375 43.984375 
Q 39.0625 48.390625 32.421875 48.390625 
Q 24.90625 48.390625 20.390625 44.140625 
Q 15.875 39.890625 15.1875 32.171875 
z
" id="DejaVuSans-101"/>
      <path d="M 48.78125 52.59375 
L 48.78125 44.1875 
Q 44.96875 46.296875 41.140625 47.34375 
Q 37.3125 48.390625 33.40625 48.390625 
Q 24.65625 48.390625 19.8125 42.84375 
Q 14.984375 37.3125 14.984375 27.296875 
Q 14.984375 17.28125 19.8125 11.734375 
Q 24.65625 6.203125 33.40625 6.203125 
Q 37.3125 6.203125 41.140625 7.25 
Q 44.96875 8.296875 48.78125 10.40625 
L 48.78125 2.09375 
Q 45.015625 0.34375 40.984375 -0.53125 
Q 36.96875 -1.421875 32.421875 -1.421875 
Q 20.0625 -1.421875 12.78125 6.34375 
Q 5.515625 14.109375 5.515625 27.296875 
Q 5.515625 40.671875 12.859375 48.328125 
Q 20.21875 56 33.015625 56 
Q 37.15625 56 41.109375 55.140625 
Q 45.0625 54.296875 48.78125 52.59375 
z
" id="DejaVuSans-99"/>
      <path d="M 54.890625 33.015625 
L 54.890625 0 
L 45.90625 0 
L 45.90625 32.71875 
Q 45.90625 40.484375 42.875 44.328125 
Q 39.84375 48.1875 33.796875 48.1875 
Q 26.515625 48.1875 22.3125 43.546875 
Q 18.109375 38.921875 18.109375 30.90625 
L 18.109375 0 
L 9.078125 0 
L 9.078125 54.6875 
L 18.109375 54.6875 
L 18.109375 46.1875 
Q 21.34375 51.125 25.703125 53.5625 
Q 30.078125 56 35.796875 56 
Q 45.21875 56 50.046875 50.171875 
Q 54.890625 44.34375 54.890625 33.015625 
z
" id="DejaVuSans-110"/>
      <path d="M 45.40625 46.390625 
L 45.40625 75.984375 
L 54.390625 75.984375 
L 54.390625 0 
L 45.40625 0 
L 45.40625 8.203125 
Q 42.578125 3.328125 38.25 0.953125 
Q 33.9375 -1.421875 27.875 -1.421875 
Q 17.96875 -1.421875 11.734375 6.484375 
Q 5.515625 14.40625 5.515625 27.296875 
Q 5.515625 40.1875 11.734375 48.09375 
Q 17.96875 56 27.875 56 
Q 33.9375 56 38.25 53.625 
Q 42.578125 51.265625 45.40625 46.390625 
z
M 14.796875 27.296875 
Q 14.796875 17.390625 18.875 11.75 
Q 22.953125 6.109375 30.078125 6.109375 
Q 37.203125 6.109375 41.296875 11.75 
Q 45.40625 17.390625 45.40625 27.296875 
Q 45.40625 37.203125 41.296875 42.84375 
Q 37.203125 48.484375 30.078125 48.484375 
Q 22.953125 48.484375 18.875 42.84375 
Q 14.796875 37.203125 14.796875 27.296875 
z
" id="DejaVuSans-100"/>
      <path d="M 8.015625 75.875 
L 15.828125 75.875 
Q 23.140625 64.359375 26.78125 53.3125 
Q 30.421875 42.28125 30.421875 31.390625 
Q 30.421875 20.453125 26.78125 9.375 
Q 23.140625 -1.703125 15.828125 -13.1875 
L 8.015625 -13.1875 
Q 14.5 -2 17.703125 9.0625 
Q 20.90625 20.125 20.90625 31.390625 
Q 20.90625 42.671875 17.703125 53.65625 
Q 14.5 64.65625 8.015625 75.875 
z
" id="DejaVuSans-41"/>
     </defs>
     <g transform="translate(57.667656 231.608958)rotate(-90)scale(0.1 -0.1)">
      <use xlink:href="#DejaVuSans-40"/>
      <use x="39.013672" xlink:href="#DejaVuSans-109"/>
      <use x="136.425781" xlink:href="#DejaVuSans-98"/>
      <use x="199.902344" xlink:href="#DejaVuSans-105"/>
      <use x="227.685547" xlink:href="#DejaVuSans-116"/>
      <use x="266.894531" xlink:href="#DejaVuSans-32"/>
      <use x="298.681641" xlink:href="#DejaVuSans-47"/>
      <use x="332.373047" xlink:href="#DejaVuSans-32"/>
      <use x="364.160156" xlink:href="#DejaVuSans-115"/>
      <use x="416.259766" xlink:href="#DejaVuSans-101"/>
      <use x="477.783203" xlink:href="#DejaVuSans-99"/>
      <use x="532.763672" xlink:href="#DejaVuSans-111"/>
      <use x="593.945312" xlink:href="#DejaVuSans-110"/>
      <use x="657.324219" xlink:href="#DejaVuSans-100"/>
      <use x="720.800781" xlink:href="#DejaVuSans-41"/>
     </g>
    </g>
   </g>
   <g id="line2d_16">
    <path clip-path="url(#p19a090eb85)" d="M 111.994076 344.430292 
L 112.749885 274.73542 
L 114.261503 290.22317 
L 115.017312 305.710919 
L 116.528929 305.710919 
L 117.284738 297.967044 
L 118.796356 297.967044 
L 119.552165 274.73542 
L 120.307974 282.479295 
L 121.063783 282.479295 
L 121.819591 290.22317 
L 122.5754 290.22317 
L 123.331209 282.479295 
L 124.842827 297.967044 
L 126.354445 297.967044 
L 127.110254 305.710919 
L 130.133489 305.710919 
L 130.889298 297.967044 
L 133.156724 321.198668 
L 133.912533 321.198668 
L 134.668342 328.942543 
L 135.424151 321.198668 
L 136.17996 321.198668 
L 137.691578 336.686417 
L 138.447387 313.454793 
L 142.226431 313.454793 
L 142.98224 321.198668 
L 143.738049 313.454793 
L 146.761284 313.454793 
L 147.517093 305.710919 
L 149.784519 305.710919 
L 150.540328 313.454793 
L 151.296137 282.479295 
L 152.051946 290.22317 
L 153.563564 274.73542 
L 158.854226 274.73542 
L 159.610035 266.991546 
L 160.365844 266.991546 
L 161.121652 282.479295 
L 163.389079 282.479295 
L 164.144888 266.991546 
L 164.900697 266.991546 
L 166.412315 297.967044 
L 167.168123 282.479295 
L 167.923932 274.73542 
L 168.679741 274.73542 
L 169.43555 282.479295 
L 170.191359 297.967044 
L 171.702977 282.479295 
L 172.458785 290.22317 
L 175.482021 290.22317 
L 176.23783 282.479295 
L 176.993639 290.22317 
L 179.261065 290.22317 
L 180.016874 297.967044 
L 180.772683 297.967044 
L 181.528492 321.198668 
L 182.284301 305.710919 
L 183.795918 305.710919 
L 184.551727 313.454793 
L 185.307536 305.710919 
L 186.063345 305.710919 
L 186.819154 321.198668 
L 187.574963 328.942543 
L 189.086581 313.454793 
L 190.598198 328.942543 
L 191.354007 321.198668 
L 192.865625 321.198668 
L 193.621434 328.942543 
L 197.400478 328.942543 
L 198.156287 321.198668 
L 198.912096 321.198668 
L 199.667905 313.454793 
L 200.423714 321.198668 
L 201.179522 313.454793 
L 201.935331 321.198668 
L 202.69114 321.198668 
L 203.446949 328.942543 
L 204.202758 328.942543 
L 204.958567 344.430292 
L 205.714376 328.942543 
L 206.470184 328.942543 
L 207.225993 321.198668 
L 208.737611 321.198668 
L 209.49342 336.686417 
L 210.249229 321.198668 
L 211.005038 336.686417 
L 211.760847 321.198668 
L 212.516655 328.942543 
L 213.272464 321.198668 
L 214.028273 328.942543 
L 214.784082 328.942543 
L 215.539891 336.686417 
L 216.2957 336.686417 
L 217.051509 328.942543 
L 217.807317 328.942543 
L 218.563126 321.198668 
L 219.318935 328.942543 
L 222.342171 328.942543 
L 223.09798 336.686417 
L 223.853788 328.942543 
L 226.877024 328.942543 
L 227.632833 321.198668 
L 228.388642 336.686417 
L 229.14445 328.942543 
L 229.900259 328.942543 
L 230.656068 336.686417 
L 231.411877 336.686417 
L 232.167686 328.942543 
L 232.923495 336.686417 
L 233.679304 328.942543 
L 234.435113 336.686417 
L 237.458348 336.686417 
L 238.214157 344.430292 
L 238.969966 344.430292 
L 239.725775 336.686417 
L 245.772246 336.686417 
L 246.528054 344.430292 
L 247.283863 336.686417 
L 249.55129 336.686417 
L 250.307099 328.942543 
L 254.086143 328.942543 
L 254.841952 336.686417 
L 256.35357 336.686417 
L 257.109378 328.942543 
L 257.865187 336.686417 
L 266.934894 336.686417 
L 267.690703 328.942543 
L 269.958129 328.942543 
L 270.713938 336.686417 
L 280.539453 336.686417 
L 281.295262 328.942543 
L 283.562689 328.942543 
L 284.318498 321.198668 
L 285.074307 328.942543 
L 285.830115 328.942543 
L 286.585924 344.430292 
L 287.341733 328.942543 
L 288.097542 336.686417 
L 288.853351 336.686417 
L 289.60916 344.430292 
L 290.364969 336.686417 
L 292.632395 336.686417 
L 293.388204 344.430292 
L 294.144013 336.686417 
L 294.899822 336.686417 
L 295.655631 344.430292 
L 296.41144 336.686417 
L 297.167248 336.686417 
L 297.923057 344.430292 
L 298.678866 336.686417 
L 310.015999 336.686417 
L 310.771808 328.942543 
L 313.039235 328.942543 
L 313.795043 321.198668 
L 314.550852 328.942543 
L 321.353132 328.942543 
L 322.108941 321.198668 
L 322.86475 321.198668 
L 323.620559 313.454793 
L 324.376368 313.454793 
L 325.132176 321.198668 
L 329.66703 321.198668 
L 330.422839 328.942543 
L 333.446074 328.942543 
L 334.201883 321.198668 
L 335.713501 321.198668 
L 336.469309 328.942543 
L 337.225118 321.198668 
L 337.980927 321.198668 
L 338.736736 328.942543 
L 344.783207 328.942543 
L 345.539016 321.198668 
L 346.294825 321.198668 
L 347.050634 328.942543 
L 347.806442 321.198668 
L 348.562251 328.942543 
L 351.585487 328.942543 
L 352.341296 336.686417 
L 353.097104 328.942543 
L 355.364531 328.942543 
L 356.12034 321.198668 
L 356.876149 321.198668 
L 357.631958 336.686417 
L 358.387767 321.198668 
L 361.411002 321.198668 
L 362.166811 328.942543 
L 362.92262 321.198668 
L 363.678429 336.686417 
L 364.434237 328.942543 
L 365.190046 336.686417 
L 366.701664 321.198668 
L 367.457473 328.942543 
L 368.213282 328.942543 
L 368.969091 321.198668 
L 369.7249 328.942543 
L 370.480708 328.942543 
L 371.236517 344.430292 
L 371.992326 336.686417 
L 373.503944 336.686417 
L 374.259753 328.942543 
L 375.77137 328.942543 
L 376.527179 336.686417 
L 378.794606 336.686417 
L 379.550415 328.942543 
L 380.306224 328.942543 
L 381.062033 344.430292 
L 382.57365 328.942543 
L 384.841077 328.942543 
L 385.596886 336.686417 
L 386.352695 328.942543 
L 387.108503 336.686417 
L 387.864312 336.686417 
L 388.620121 328.942543 
L 389.37593 328.942543 
L 390.131739 336.686417 
L 396.17821 336.686417 
L 396.934019 328.942543 
L 399.201445 328.942543 
L 399.957254 321.198668 
L 401.468872 321.198668 
L 402.224681 328.942543 
L 403.736299 328.942543 
L 404.492107 321.198668 
L 405.247916 336.686417 
L 406.003725 328.942543 
L 408.271152 328.942543 
L 409.782769 344.430292 
L 410.538578 336.686417 
L 414.317623 336.686417 
L 415.073432 328.942543 
L 415.82924 336.686417 
L 420.364094 336.686417 
L 421.119902 344.430292 
L 422.63152 328.942543 
L 424.143138 328.942543 
L 424.898947 336.686417 
L 425.654756 336.686417 
L 426.410565 328.942543 
L 427.166373 336.686417 
L 427.922182 336.686417 
L 428.677991 328.942543 
L 429.4338 336.686417 
L 430.189609 336.686417 
L 430.945418 328.942543 
L 431.701227 328.942543 
L 432.457035 321.198668 
L 433.212844 328.942543 
L 433.968653 321.198668 
L 436.23608 321.198668 
L 436.991889 313.454793 
L 438.503506 328.942543 
L 439.259315 321.198668 
L 440.015124 328.942543 
L 440.770933 321.198668 
L 441.526742 321.198668 
L 442.282551 336.686417 
L 443.03836 321.198668 
L 444.549977 321.198668 
L 445.305786 328.942543 
L 452.863875 328.942543 
L 453.619684 336.686417 
L 458.154537 336.686417 
L 458.910346 344.430292 
L 459.666155 336.686417 
L 460.421963 336.686417 
L 461.177772 344.430292 
L 462.68939 344.430292 
L 463.445199 336.686417 
L 464.201008 344.430292 
L 465.712626 344.430292 
L 466.468434 336.686417 
L 468.735861 336.686417 
L 469.49167 328.942543 
L 471.759096 328.942543 
L 472.514905 336.686417 
L 477.049759 336.686417 
L 477.805567 328.942543 
L 479.317185 328.942543 
L 480.072994 321.198668 
L 480.828803 328.942543 
L 481.584612 321.198668 
L 482.340421 321.198668 
L 483.096229 313.454793 
L 483.852038 313.454793 
L 484.607847 321.198668 
L 486.875274 321.198668 
L 487.631083 328.942543 
L 488.386892 321.198668 
L 492.165936 321.198668 
L 493.677554 305.710919 
L 495.94498 305.710919 
L 496.700789 297.967044 
L 498.968216 297.967044 
L 499.724025 305.710919 
L 500.479833 305.710919 
L 501.235642 313.454793 
L 501.991451 305.710919 
L 503.503069 305.710919 
L 504.258878 313.454793 
L 506.526304 313.454793 
L 507.282113 328.942543 
L 508.037922 313.454793 
L 512.572775 313.454793 
L 514.084393 328.942543 
L 514.840202 321.198668 
L 515.596011 328.942543 
L 516.35182 321.198668 
L 517.107628 328.942543 
L 518.619246 328.942543 
L 519.375055 336.686417 
L 520.130864 328.942543 
L 521.642482 328.942543 
L 521.642482 328.942543 
" style="fill:none;stroke:#1f77b4;stroke-linecap:square;stroke-width:1.5;"/>
   </g>
   <g id="line2d_17">
    <path clip-path="url(#p19a090eb85)" d="M 110.48397 297.967044 
L 111.239779 259.247671 
L 111.995588 259.247671 
L 112.751397 290.22317 
L 113.507206 297.967044 
L 114.263014 297.967044 
L 115.018823 305.710919 
L 115.774632 321.198668 
L 116.530441 321.198668 
L 117.28625 313.454793 
L 118.797868 313.454793 
L 119.553676 297.967044 
L 120.309485 290.22317 
L 121.065294 290.22317 
L 121.821103 282.479295 
L 122.576912 282.479295 
L 123.332721 274.73542 
L 124.08853 274.73542 
L 124.844339 266.991546 
L 125.600147 266.991546 
L 126.355956 259.247671 
L 128.623383 259.247671 
L 130.890809 236.016047 
L 132.402427 236.016047 
L 133.158236 220.528298 
L 133.914045 220.528298 
L 134.669854 259.247671 
L 135.425663 251.503796 
L 136.181472 228.272172 
L 138.448898 228.272172 
L 139.204707 251.503796 
L 140.716325 251.503796 
L 141.472134 259.247671 
L 142.983751 259.247671 
L 143.73956 266.991546 
L 144.495369 266.991546 
L 145.251178 274.73542 
L 146.006987 274.73542 
L 147.518605 290.22317 
L 148.274413 282.479295 
L 149.786031 282.479295 
L 150.54184 305.710919 
L 151.297649 290.22317 
L 154.320884 290.22317 
L 155.832502 305.710919 
L 156.588311 297.967044 
L 157.34412 305.710919 
L 158.099929 305.710919 
L 158.855738 297.967044 
L 159.611546 282.479295 
L 160.367355 282.479295 
L 161.123164 290.22317 
L 161.878973 290.22317 
L 162.634782 282.479295 
L 163.390591 282.479295 
L 164.1464 274.73542 
L 164.902208 290.22317 
L 165.658017 290.22317 
L 166.413826 305.710919 
L 167.169635 297.967044 
L 167.925444 305.710919 
L 168.681253 297.967044 
L 169.437062 305.710919 
L 170.948679 305.710919 
L 171.704488 313.454793 
L 172.460297 305.710919 
L 173.216106 313.454793 
L 173.971915 313.454793 
L 174.727724 321.198668 
L 177.750959 321.198668 
L 178.506768 328.942543 
L 179.262577 344.430292 
L 180.018386 328.942543 
L 182.285812 352.174167 
L 183.041621 344.430292 
L 184.553239 344.430292 
L 185.309048 336.686417 
L 186.820666 336.686417 
L 187.576474 344.430292 
L 188.332283 336.686417 
L 191.355519 336.686417 
L 192.111328 328.942543 
L 192.867136 328.942543 
L 193.622945 336.686417 
L 198.157799 336.686417 
L 198.913607 328.942543 
L 202.692652 328.942543 
L 203.448461 313.454793 
L 204.204269 328.942543 
L 204.960078 336.686417 
L 205.715887 321.198668 
L 210.25074 321.198668 
L 211.006549 344.430292 
L 211.762358 336.686417 
L 214.785594 336.686417 
L 215.541402 344.430292 
L 216.297211 336.686417 
L 217.05302 336.686417 
L 217.808829 344.430292 
L 218.564638 328.942543 
L 219.320447 328.942543 
L 220.832065 313.454793 
L 221.587873 321.198668 
L 222.343682 321.198668 
L 223.099491 313.454793 
L 223.8553 313.454793 
L 224.611109 328.942543 
L 225.366918 313.454793 
L 226.122727 305.710919 
L 227.634344 305.710919 
L 228.390153 328.942543 
L 229.145962 321.198668 
L 229.901771 328.942543 
L 230.65758 328.942543 
L 231.413389 321.198668 
L 232.925006 336.686417 
L 233.680815 328.942543 
L 234.436624 336.686417 
L 238.971477 336.686417 
L 239.727286 352.174167 
L 240.483095 336.686417 
L 241.238904 336.686417 
L 241.994713 328.942543 
L 242.750522 336.686417 
L 245.773757 336.686417 
L 246.529566 344.430292 
L 247.285375 344.430292 
L 248.041184 336.686417 
L 248.796993 336.686417 
L 249.552801 344.430292 
L 250.30861 336.686417 
L 251.820228 352.174167 
L 252.576037 336.686417 
L 256.355081 336.686417 
L 257.11089 328.942543 
L 257.866699 352.174167 
L 259.378317 336.686417 
L 263.157361 336.686417 
L 263.91317 344.430292 
L 264.668979 336.686417 
L 266.180597 336.686417 
L 266.936405 344.430292 
L 267.692214 336.686417 
L 269.203832 336.686417 
L 269.959641 344.430292 
L 270.71545 336.686417 
L 276.006112 336.686417 
L 276.761921 344.430292 
L 279.785156 344.430292 
L 280.540965 336.686417 
L 281.296774 336.686417 
L 282.052583 344.430292 
L 284.320009 344.430292 
L 285.075818 352.174167 
L 285.831627 344.430292 
L 286.587436 352.174167 
L 287.343245 344.430292 
L 288.099054 352.174167 
L 288.854862 344.430292 
L 291.122289 344.430292 
L 291.878098 336.686417 
L 292.633907 344.430292 
L 293.389716 344.430292 
L 294.145525 336.686417 
L 294.901333 344.430292 
L 295.657142 336.686417 
L 298.680378 336.686417 
L 299.436187 328.942543 
L 300.191995 328.942543 
L 300.947804 344.430292 
L 301.703613 336.686417 
L 305.482658 336.686417 
L 306.994275 321.198668 
L 308.505893 321.198668 
L 309.261702 313.454793 
L 313.040746 313.454793 
L 313.796555 321.198668 
L 317.575599 321.198668 
L 318.331408 328.942543 
L 319.087217 328.942543 
L 319.843026 321.198668 
L 320.598835 321.198668 
L 321.354644 328.942543 
L 322.866261 313.454793 
L 324.377879 313.454793 
L 325.133688 305.710919 
L 327.401115 305.710919 
L 328.156924 297.967044 
L 328.912732 297.967044 
L 329.668541 305.710919 
L 330.42435 328.942543 
L 331.180159 313.454793 
L 331.935968 328.942543 
L 332.691777 313.454793 
L 334.203394 313.454793 
L 334.959203 321.198668 
L 335.715012 305.710919 
L 337.22663 321.198668 
L 337.982439 313.454793 
L 339.494057 313.454793 
L 340.249865 305.710919 
L 341.005674 313.454793 
L 347.807954 313.454793 
L 348.563763 321.198668 
L 350.075381 321.198668 
L 350.83119 328.942543 
L 351.586998 321.198668 
L 352.342807 328.942543 
L 353.098616 328.942543 
L 354.610234 313.454793 
L 356.121852 313.454793 
L 356.87766 305.710919 
L 357.633469 313.454793 
L 359.900896 313.454793 
L 360.656705 305.710919 
L 362.924131 305.710919 
L 363.67994 321.198668 
L 364.435749 313.454793 
L 365.191558 321.198668 
L 366.703176 321.198668 
L 367.458985 328.942543 
L 368.214793 321.198668 
L 369.726411 321.198668 
L 371.238029 336.686417 
L 371.993838 328.942543 
L 372.749647 336.686417 
L 373.505456 328.942543 
L 374.261264 328.942543 
L 375.017073 336.686417 
L 375.772882 328.942543 
L 376.528691 336.686417 
L 380.307735 336.686417 
L 381.063544 344.430292 
L 381.819353 336.686417 
L 384.842588 336.686417 
L 385.598397 344.430292 
L 386.354206 344.430292 
L 387.110015 336.686417 
L 387.865824 344.430292 
L 388.621633 336.686417 
L 389.377442 344.430292 
L 402.226192 344.430292 
L 402.982001 352.174167 
L 403.73781 344.430292 
L 405.249428 344.430292 
L 406.005237 336.686417 
L 406.761046 344.430292 
L 408.272663 344.430292 
L 409.028472 352.174167 
L 409.784281 344.430292 
L 424.14465 344.430292 
L 424.900458 336.686417 
L 429.435312 336.686417 
L 430.19112 344.430292 
L 430.946929 336.686417 
L 434.725974 336.686417 
L 435.481783 344.430292 
L 441.528253 344.430292 
L 442.284062 352.174167 
L 443.039871 344.430292 
L 451.353769 344.430292 
L 452.109578 336.686417 
L 452.865386 344.430292 
L 453.621195 336.686417 
L 456.644431 336.686417 
L 457.40024 328.942543 
L 458.156049 336.686417 
L 458.911857 352.174167 
L 459.667666 336.686417 
L 465.714137 336.686417 
L 466.469946 328.942543 
L 469.493182 328.942543 
L 470.24899 336.686417 
L 471.760608 336.686417 
L 472.516417 344.430292 
L 473.272226 336.686417 
L 474.028035 344.430292 
L 474.783844 336.686417 
L 475.539652 336.686417 
L 476.295461 344.430292 
L 477.05127 336.686417 
L 481.586123 336.686417 
L 482.341932 328.942543 
L 484.609359 328.942543 
L 485.365168 321.198668 
L 487.632594 321.198668 
L 488.388403 328.942543 
L 490.65583 328.942543 
L 491.411639 336.686417 
L 492.167447 328.942543 
L 495.190683 328.942543 
L 495.946492 321.198668 
L 496.702301 321.198668 
L 497.45811 328.942543 
L 503.50458 328.942543 
L 504.260389 321.198668 
L 505.016198 321.198668 
L 505.772007 313.454793 
L 506.527816 313.454793 
L 507.283625 321.198668 
L 508.039434 313.454793 
L 508.795243 321.198668 
L 511.818478 321.198668 
L 512.574287 328.942543 
L 513.330096 321.198668 
L 517.10914 321.198668 
L 517.864949 313.454793 
L 518.620758 313.454793 
L 519.376567 321.198668 
L 520.888184 321.198668 
L 520.888184 321.198668 
" style="fill:none;stroke:#ff7f0e;stroke-linecap:square;stroke-width:1.5;"/>
   </g>
   <g id="line2d_18">
    <path clip-path="url(#p19a090eb85)" d="M 105.929466 297.967044 
L 106.685275 290.22317 
L 107.441084 305.710919 
L 108.196892 297.967044 
L 108.952701 305.710919 
L 109.70851 297.967044 
L 110.464319 305.710919 
L 111.220128 321.198668 
L 111.975937 328.942543 
L 115.754981 328.942543 
L 116.51079 336.686417 
L 118.022408 336.686417 
L 118.778217 344.430292 
L 121.801452 344.430292 
L 122.557261 336.686417 
L 123.31307 352.174167 
L 124.068879 344.430292 
L 127.847923 344.430292 
L 128.603732 352.174167 
L 130.871158 352.174167 
L 131.626967 344.430292 
L 133.894394 344.430292 
L 134.650203 352.174167 
L 135.406012 352.174167 
L 136.16182 344.430292 
L 136.917629 344.430292 
L 137.673438 352.174167 
L 140.696674 352.174167 
L 141.452483 344.430292 
L 142.208291 352.174167 
L 142.9641 344.430292 
L 145.987336 344.430292 
L 146.743145 336.686417 
L 148.254762 336.686417 
L 149.010571 328.942543 
L 151.277998 328.942543 
L 152.033807 336.686417 
L 153.545424 336.686417 
L 154.301233 344.430292 
L 155.812851 328.942543 
L 156.56866 336.686417 
L 159.591895 336.686417 
L 160.347704 344.430292 
L 161.103513 336.686417 
L 163.37094 336.686417 
L 164.126749 328.942543 
L 164.882557 328.942543 
L 165.638366 336.686417 
L 166.394175 336.686417 
L 167.149984 344.430292 
L 167.905793 336.686417 
L 170.929028 336.686417 
L 171.684837 328.942543 
L 172.440646 336.686417 
L 173.196455 328.942543 
L 173.952264 328.942543 
L 174.708073 336.686417 
L 175.463882 336.686417 
L 176.21969 328.942543 
L 176.975499 336.686417 
L 179.242926 336.686417 
L 179.998735 344.430292 
L 180.754544 336.686417 
L 181.510352 344.430292 
L 183.777779 344.430292 
L 184.533588 336.686417 
L 185.289397 344.430292 
L 186.045206 336.686417 
L 186.801015 336.686417 
L 187.556823 344.430292 
L 192.847485 344.430292 
L 193.603294 336.686417 
L 195.114912 336.686417 
L 195.870721 344.430292 
L 196.62653 336.686417 
L 197.382339 344.430292 
L 198.138148 344.430292 
L 198.893956 336.686417 
L 199.649765 344.430292 
L 200.405574 344.430292 
L 201.161383 336.686417 
L 201.917192 344.430292 
L 202.673001 336.686417 
L 203.42881 344.430292 
L 207.963663 344.430292 
L 208.719472 336.686417 
L 209.475281 336.686417 
L 210.231089 328.942543 
L 210.986898 336.686417 
L 216.27756 336.686417 
L 217.033369 344.430292 
L 218.544987 328.942543 
L 219.300796 328.942543 
L 220.056605 336.686417 
L 226.103076 336.686417 
L 226.858884 344.430292 
L 229.126311 344.430292 
L 229.88212 336.686417 
L 230.637929 344.430292 
L 231.393738 336.686417 
L 232.905355 336.686417 
L 233.661164 344.430292 
L 241.219253 344.430292 
L 241.975062 336.686417 
L 243.486679 336.686417 
L 244.242488 321.198668 
L 246.509915 321.198668 
L 247.265724 313.454793 
L 254.068004 313.454793 
L 254.823812 305.710919 
L 255.579621 313.454793 
L 257.847048 313.454793 
L 259.358666 328.942543 
L 260.114475 321.198668 
L 261.626092 321.198668 
L 262.381901 328.942543 
L 263.893519 328.942543 
L 264.649328 321.198668 
L 265.405137 328.942543 
L 266.916754 328.942543 
L 267.672563 321.198668 
L 269.184181 321.198668 
L 269.93999 313.454793 
L 270.695799 321.198668 
L 272.207416 321.198668 
L 272.963225 328.942543 
L 277.498078 328.942543 
L 278.253887 336.686417 
L 285.811976 336.686417 
L 286.567785 328.942543 
L 287.323594 328.942543 
L 288.079403 336.686417 
L 293.370065 336.686417 
L 294.125874 344.430292 
L 294.881682 336.686417 
L 296.3933 336.686417 
L 297.149109 344.430292 
L 299.416536 344.430292 
L 300.172344 336.686417 
L 300.928153 344.430292 
L 302.439771 344.430292 
L 303.19558 336.686417 
L 303.951389 344.430292 
L 309.99786 344.430292 
L 310.753669 336.686417 
L 312.265286 336.686417 
L 313.021095 344.430292 
L 320.579184 344.430292 
L 321.334993 336.686417 
L 322.84661 336.686417 
L 323.602419 344.430292 
L 327.381464 344.430292 
L 328.137273 336.686417 
L 331.916317 336.686417 
L 332.672126 344.430292 
L 334.183743 344.430292 
L 334.939552 336.686417 
L 335.695361 344.430292 
L 336.45117 336.686417 
L 337.206979 344.430292 
L 337.962788 336.686417 
L 338.718597 336.686417 
L 339.474405 328.942543 
L 340.986023 328.942543 
L 341.741832 336.686417 
L 342.497641 328.942543 
L 343.25345 328.942543 
L 344.009259 336.686417 
L 351.567347 336.686417 
L 352.323156 328.942543 
L 353.834774 328.942543 
L 354.590583 336.686417 
L 355.346392 328.942543 
L 356.858009 344.430292 
L 357.613818 328.942543 
L 358.369627 336.686417 
L 359.125436 336.686417 
L 359.881245 328.942543 
L 363.660289 328.942543 
L 365.171907 344.430292 
L 365.927716 344.430292 
L 366.683525 336.686417 
L 368.195142 336.686417 
L 368.950951 328.942543 
L 371.218378 328.942543 
L 371.974187 336.686417 
L 374.241613 336.686417 
L 374.997422 344.430292 
L 375.753231 344.430292 
L 376.50904 336.686417 
L 379.532275 336.686417 
L 380.288084 344.430292 
L 381.043893 328.942543 
L 384.067129 328.942543 
L 384.822937 321.198668 
L 388.601982 321.198668 
L 389.357791 313.454793 
L 390.869408 313.454793 
L 391.625217 305.710919 
L 397.671688 305.710919 
L 398.427497 313.454793 
L 399.939115 297.967044 
L 400.694924 297.967044 
L 401.450733 305.710919 
L 402.96235 305.710919 
L 403.718159 313.454793 
L 404.473968 313.454793 
L 405.229777 321.198668 
L 405.985586 313.454793 
L 407.497203 313.454793 
L 408.253012 321.198668 
L 409.76463 321.198668 
L 410.520439 328.942543 
L 412.032057 328.942543 
L 412.787866 321.198668 
L 413.543674 321.198668 
L 414.299483 336.686417 
L 415.055292 328.942543 
L 419.590145 328.942543 
L 420.345954 336.686417 
L 426.392425 336.686417 
L 427.148234 328.942543 
L 427.904043 328.942543 
L 428.659852 321.198668 
L 429.415661 328.942543 
L 430.171469 305.710919 
L 430.927278 297.967044 
L 433.194705 297.967044 
L 434.706323 282.479295 
L 436.21794 297.967044 
L 436.973749 290.22317 
L 438.485367 290.22317 
L 439.241176 274.73542 
L 439.996985 282.479295 
L 440.752794 274.73542 
L 441.508602 282.479295 
L 442.264411 274.73542 
L 444.531838 274.73542 
L 445.287647 297.967044 
L 446.043456 259.247671 
L 446.799264 266.991546 
L 448.310882 266.991546 
L 449.066691 274.73542 
L 449.8225 266.991546 
L 452.089927 266.991546 
L 452.845735 274.73542 
L 455.868971 274.73542 
L 456.62478 290.22317 
L 458.136397 290.22317 
L 458.892206 282.479295 
L 459.648015 290.22317 
L 460.403824 313.454793 
L 461.159633 305.710919 
L 462.671251 305.710919 
L 463.42706 297.967044 
L 464.182868 297.967044 
L 464.938677 290.22317 
L 466.450295 290.22317 
L 467.206104 305.710919 
L 472.496766 305.710919 
L 473.252575 297.967044 
L 474.008384 297.967044 
L 474.764193 305.710919 
L 475.520001 305.710919 
L 476.27581 321.198668 
L 477.031619 305.710919 
L 478.543237 305.710919 
L 479.299046 313.454793 
L 480.054855 313.454793 
L 480.810663 305.710919 
L 481.566472 313.454793 
L 483.07809 313.454793 
L 483.833899 321.198668 
L 485.345517 321.198668 
L 486.101326 313.454793 
L 487.612943 313.454793 
L 488.368752 321.198668 
L 490.636179 321.198668 
L 491.391988 328.942543 
L 492.903605 328.942543 
L 493.659414 321.198668 
L 495.171032 321.198668 
L 495.926841 328.942543 
L 500.461694 328.942543 
L 501.217503 336.686417 
L 503.484929 336.686417 
L 504.240738 328.942543 
L 504.996547 336.686417 
L 507.263974 336.686417 
L 508.775592 321.198668 
L 511.043018 321.198668 
L 511.798827 313.454793 
L 517.845298 313.454793 
L 518.601107 321.198668 
L 519.356916 313.454793 
L 519.356916 313.454793 
" style="fill:none;stroke:#2ca02c;stroke-linecap:square;stroke-width:1.5;"/>
   </g>
   <g id="line2d_19">
    <path clip-path="url(#p19a090eb85)" d="M 113.492089 352.174167 
L 138.433782 352.174167 
L 139.189591 344.430292 
L 140.701209 344.430292 
L 141.457017 352.174167 
L 144.480253 352.174167 
L 145.236062 344.430292 
L 155.817386 344.430292 
L 156.573195 336.686417 
L 158.840621 336.686417 
L 159.59643 344.430292 
L 160.352239 328.942543 
L 164.131283 328.942543 
L 164.887092 336.686417 
L 166.39871 321.198668 
L 167.910328 336.686417 
L 168.666137 328.942543 
L 170.933563 328.942543 
L 171.689372 344.430292 
L 172.445181 328.942543 
L 173.956799 344.430292 
L 174.712608 336.686417 
L 175.468416 336.686417 
L 176.224225 344.430292 
L 176.980034 336.686417 
L 177.735843 344.430292 
L 179.247461 328.942543 
L 180.759078 328.942543 
L 181.514887 313.454793 
L 182.270696 313.454793 
L 183.026505 321.198668 
L 186.805549 321.198668 
L 187.561358 336.686417 
L 188.317167 328.942543 
L 189.072976 336.686417 
L 189.828785 328.942543 
L 195.875256 328.942543 
L 196.631065 321.198668 
L 197.386874 266.991546 
L 198.142682 266.991546 
L 198.898491 274.73542 
L 199.6543 274.73542 
L 200.410109 266.991546 
L 201.165918 266.991546 
L 201.921727 259.247671 
L 202.677536 290.22317 
L 203.433344 290.22317 
L 204.189153 297.967044 
L 204.944962 290.22317 
L 205.700771 290.22317 
L 206.45658 297.967044 
L 207.212389 290.22317 
L 207.968198 290.22317 
L 208.724007 282.479295 
L 210.235624 282.479295 
L 210.991433 274.73542 
L 211.747242 282.479295 
L 212.503051 282.479295 
L 213.25886 290.22317 
L 214.014669 290.22317 
L 214.770477 297.967044 
L 215.526286 290.22317 
L 216.282095 297.967044 
L 217.793713 297.967044 
L 218.549522 336.686417 
L 219.305331 313.454793 
L 220.061139 313.454793 
L 220.816948 321.198668 
L 222.328566 321.198668 
L 223.084375 313.454793 
L 223.840184 321.198668 
L 224.595993 313.454793 
L 225.351802 313.454793 
L 226.10761 305.710919 
L 226.863419 305.710919 
L 227.619228 290.22317 
L 228.375037 266.991546 
L 229.130846 274.73542 
L 232.154081 274.73542 
L 232.90989 282.479295 
L 234.421508 282.479295 
L 235.177317 274.73542 
L 235.933126 274.73542 
L 236.688935 266.991546 
L 237.444743 274.73542 
L 238.200552 266.991546 
L 238.956361 266.991546 
L 239.71217 259.247671 
L 240.467979 259.247671 
L 241.979597 274.73542 
L 242.735405 274.73542 
L 243.491214 305.710919 
L 244.247023 290.22317 
L 245.758641 274.73542 
L 246.51445 274.73542 
L 247.270259 282.479295 
L 248.781876 266.991546 
L 250.293494 266.991546 
L 251.049303 274.73542 
L 252.560921 274.73542 
L 253.31673 266.991546 
L 254.072538 266.991546 
L 254.828347 274.73542 
L 255.584156 259.247671 
L 256.339965 259.247671 
L 257.095774 266.991546 
L 257.851583 259.247671 
L 258.607392 259.247671 
L 259.363201 297.967044 
L 260.119009 251.503796 
L 261.630627 266.991546 
L 262.386436 266.991546 
L 263.142245 274.73542 
L 267.677098 274.73542 
L 268.432907 282.479295 
L 273.723569 282.479295 
L 274.479378 305.710919 
L 275.235187 282.479295 
L 276.746804 282.479295 
L 277.502613 274.73542 
L 279.014231 290.22317 
L 282.793275 290.22317 
L 283.549084 297.967044 
L 284.304893 290.22317 
L 285.060702 290.22317 
L 285.816511 297.967044 
L 286.57232 282.479295 
L 287.328129 297.967044 
L 288.083937 274.73542 
L 288.839746 282.479295 
L 289.595555 274.73542 
L 290.351364 313.454793 
L 291.107173 282.479295 
L 291.862982 290.22317 
L 292.618791 282.479295 
L 293.3746 282.479295 
L 294.886217 297.967044 
L 295.642026 290.22317 
L 296.397835 297.967044 
L 297.153644 290.22317 
L 297.909453 297.967044 
L 298.665262 297.967044 
L 299.42107 290.22317 
L 300.176879 290.22317 
L 300.932688 282.479295 
L 303.955924 282.479295 
L 304.711733 274.73542 
L 305.467541 305.710919 
L 306.22335 282.479295 
L 307.734968 282.479295 
L 308.490777 274.73542 
L 310.002395 274.73542 
L 310.758203 282.479295 
L 311.514012 274.73542 
L 312.269821 274.73542 
L 313.02563 266.991546 
L 313.781439 274.73542 
L 314.537248 274.73542 
L 315.293057 266.991546 
L 316.804674 266.991546 
L 318.316292 251.503796 
L 319.072101 259.247671 
L 320.583719 259.247671 
L 321.339528 305.710919 
L 322.095336 274.73542 
L 322.851145 282.479295 
L 323.606954 282.479295 
L 324.362763 290.22317 
L 325.874381 274.73542 
L 326.63019 274.73542 
L 327.385998 266.991546 
L 328.141807 274.73542 
L 328.897616 274.73542 
L 331.920852 243.759922 
L 332.676661 243.759922 
L 333.432469 251.503796 
L 334.944087 251.503796 
L 335.699896 259.247671 
L 336.455705 290.22317 
L 337.211514 274.73542 
L 338.723131 290.22317 
L 340.234749 290.22317 
L 340.990558 282.479295 
L 341.746367 297.967044 
L 342.502176 297.967044 
L 343.257985 305.710919 
L 344.013794 305.710919 
L 344.769602 297.967044 
L 345.525411 297.967044 
L 346.28122 305.710919 
L 347.792838 305.710919 
L 348.548647 313.454793 
L 350.060264 313.454793 
L 350.816073 305.710919 
L 351.571882 313.454793 
L 352.327691 328.942543 
L 358.374162 328.942543 
L 359.129971 336.686417 
L 362.909015 336.686417 
L 363.664824 328.942543 
L 364.420633 328.942543 
L 365.176442 321.198668 
L 366.68806 336.686417 
L 368.199677 336.686417 
L 368.955486 328.942543 
L 369.711295 336.686417 
L 370.467104 328.942543 
L 379.53681 328.942543 
L 380.292619 321.198668 
L 382.560046 321.198668 
L 383.315855 328.942543 
L 384.071663 321.198668 
L 384.827472 321.198668 
L 385.583281 313.454793 
L 386.33909 313.454793 
L 387.094899 305.710919 
L 387.850708 313.454793 
L 388.606517 313.454793 
L 389.362326 321.198668 
L 397.676223 321.198668 
L 398.432032 328.942543 
L 399.187841 328.942543 
L 399.94365 321.198668 
L 401.455267 321.198668 
L 402.211076 313.454793 
L 402.966885 313.454793 
L 403.722694 328.942543 
L 404.478503 305.710919 
L 405.234312 305.710919 
L 405.990121 313.454793 
L 411.280783 313.454793 
L 412.036591 321.198668 
L 413.548209 321.198668 
L 414.304018 328.942543 
L 415.059827 321.198668 
L 416.571445 321.198668 
L 417.327254 313.454793 
L 418.083062 313.454793 
L 418.838871 305.710919 
L 419.59468 313.454793 
L 421.862107 313.454793 
L 422.617916 321.198668 
L 423.373724 321.198668 
L 424.129533 313.454793 
L 424.885342 321.198668 
L 425.641151 313.454793 
L 426.39696 321.198668 
L 427.152769 313.454793 
L 430.176004 344.430292 
L 430.931813 328.942543 
L 431.687622 321.198668 
L 432.443431 321.198668 
L 433.19924 328.942543 
L 433.955049 328.942543 
L 434.710857 344.430292 
L 435.466666 328.942543 
L 436.222475 328.942543 
L 436.978284 344.430292 
L 437.734093 336.686417 
L 438.489902 336.686417 
L 439.245711 328.942543 
L 440.00152 336.686417 
L 441.513137 336.686417 
L 442.268946 328.942543 
L 443.024755 336.686417 
L 445.292182 336.686417 
L 446.04799 344.430292 
L 446.803799 336.686417 
L 451.338653 336.686417 
L 452.85027 321.198668 
L 454.361888 321.198668 
L 455.117697 328.942543 
L 458.140932 328.942543 
L 458.896741 321.198668 
L 459.65255 328.942543 
L 460.408359 313.454793 
L 461.164168 321.198668 
L 461.919977 305.710919 
L 462.675786 305.710919 
L 463.431594 313.454793 
L 467.210639 313.454793 
L 467.966448 321.198668 
L 468.722256 321.198668 
L 469.478065 328.942543 
L 470.233874 328.942543 
L 470.989683 321.198668 
L 471.745492 328.942543 
L 472.501301 321.198668 
L 474.012919 321.198668 
L 474.768727 313.454793 
L 475.524536 313.454793 
L 476.280345 321.198668 
L 479.303581 321.198668 
L 480.059389 328.942543 
L 480.815198 328.942543 
L 481.571007 336.686417 
L 482.326816 328.942543 
L 483.082625 328.942543 
L 483.838434 336.686417 
L 484.594243 336.686417 
L 485.350052 328.942543 
L 486.10586 336.686417 
L 488.373287 336.686417 
L 489.129096 328.942543 
L 489.884905 328.942543 
L 490.640714 321.198668 
L 492.152331 321.198668 
L 492.90814 313.454793 
L 493.663949 321.198668 
L 498.198802 321.198668 
L 498.954611 328.942543 
L 499.71042 321.198668 
L 501.222038 321.198668 
L 501.977847 313.454793 
L 505.756891 313.454793 
L 506.5127 305.710919 
L 507.268509 313.454793 
L 508.024318 305.710919 
L 511.803362 305.710919 
L 512.559171 313.454793 
L 514.070788 297.967044 
L 514.826597 297.967044 
L 515.582406 305.710919 
L 518.605642 305.710919 
L 519.36145 290.22317 
L 521.628877 290.22317 
L 522.384686 282.479295 
L 522.384686 282.479295 
" style="fill:none;stroke:#d62728;stroke-linecap:square;stroke-width:1.5;"/>
   </g>
   <g id="line2d_20">
    <path clip-path="url(#p19a090eb85)" d="M 107.492479 305.710919 
L 108.248287 305.710919 
L 109.004096 313.454793 
L 109.759905 313.454793 
L 110.515714 321.198668 
L 112.027332 305.710919 
L 112.783141 321.198668 
L 115.050567 321.198668 
L 115.806376 328.942543 
L 116.562185 321.198668 
L 117.317994 328.942543 
L 118.073803 328.942543 
L 118.829612 336.686417 
L 119.58542 328.942543 
L 120.341229 336.686417 
L 121.097038 328.942543 
L 124.876083 328.942543 
L 125.631891 336.686417 
L 130.922553 336.686417 
L 131.678362 344.430292 
L 132.434171 336.686417 
L 138.480642 336.686417 
L 139.236451 344.430292 
L 139.99226 336.686417 
L 147.550348 336.686417 
L 148.306157 344.430292 
L 149.061966 336.686417 
L 150.573584 336.686417 
L 151.329393 321.198668 
L 152.085202 313.454793 
L 152.841011 321.198668 
L 154.352628 305.710919 
L 155.108437 313.454793 
L 155.864246 313.454793 
L 156.620055 321.198668 
L 158.887481 321.198668 
L 159.64329 336.686417 
L 160.399099 321.198668 
L 162.666526 321.198668 
L 163.422335 328.942543 
L 164.178144 344.430292 
L 164.933952 328.942543 
L 165.689761 336.686417 
L 166.44557 321.198668 
L 167.201379 321.198668 
L 167.957188 328.942543 
L 173.24785 328.942543 
L 174.003659 313.454793 
L 174.759468 313.454793 
L 175.515277 305.710919 
L 176.271085 305.710919 
L 177.026894 297.967044 
L 177.782703 297.967044 
L 178.538512 313.454793 
L 179.294321 305.710919 
L 180.05013 305.710919 
L 180.805939 313.454793 
L 181.561747 328.942543 
L 182.317556 321.198668 
L 183.073365 336.686417 
L 183.829174 328.942543 
L 184.584983 328.942543 
L 185.340792 336.686417 
L 186.096601 328.942543 
L 186.85241 328.942543 
L 188.364027 344.430292 
L 189.119836 328.942543 
L 190.631454 344.430292 
L 191.387263 344.430292 
L 192.143072 352.174167 
L 192.89888 344.430292 
L 198.189543 344.430292 
L 198.945351 336.686417 
L 199.70116 336.686417 
L 200.456969 328.942543 
L 201.968587 344.430292 
L 202.724396 328.942543 
L 203.480205 344.430292 
L 204.991822 328.942543 
L 205.747631 336.686417 
L 206.50344 336.686417 
L 207.259249 344.430292 
L 208.015058 336.686417 
L 208.770867 336.686417 
L 209.526676 328.942543 
L 210.282484 344.430292 
L 211.038293 313.454793 
L 212.549911 328.942543 
L 216.328955 328.942543 
L 217.084764 321.198668 
L 217.840573 328.942543 
L 222.375426 328.942543 
L 223.131235 336.686417 
L 223.887044 328.942543 
L 224.642853 336.686417 
L 225.398662 352.174167 
L 226.154471 336.686417 
L 227.666088 336.686417 
L 228.421897 344.430292 
L 229.177706 344.430292 
L 229.933515 336.686417 
L 230.689324 336.686417 
L 231.445133 344.430292 
L 232.200942 336.686417 
L 232.95675 336.686417 
L 233.712559 344.430292 
L 234.468368 336.686417 
L 235.224177 344.430292 
L 235.979986 336.686417 
L 236.735795 344.430292 
L 237.491604 336.686417 
L 244.293883 336.686417 
L 245.049692 344.430292 
L 259.410061 344.430292 
L 260.16587 352.174167 
L 260.921678 344.430292 
L 265.456532 344.430292 
L 266.21234 352.174167 
L 267.723958 352.174167 
L 268.479767 344.430292 
L 269.235576 352.174167 
L 322.142197 352.174167 
L 322.898005 344.430292 
L 323.653814 352.174167 
L 332.723521 352.174167 
L 333.47933 344.430292 
L 336.502565 344.430292 
L 337.258374 352.174167 
L 338.014183 352.174167 
L 338.769992 344.430292 
L 339.5258 344.430292 
L 340.281609 352.174167 
L 341.037418 344.430292 
L 345.572271 344.430292 
L 346.32808 352.174167 
L 347.083889 344.430292 
L 347.839698 352.174167 
L 348.595507 344.430292 
L 350.862933 344.430292 
L 351.618742 352.174167 
L 352.374551 336.686417 
L 353.13036 328.942543 
L 353.886169 328.942543 
L 354.641978 336.686417 
L 359.176831 336.686417 
L 359.93264 328.942543 
L 362.955875 328.942543 
L 363.711684 321.198668 
L 364.467493 321.198668 
L 365.223302 313.454793 
L 366.73492 313.454793 
L 367.490729 328.942543 
L 368.246537 305.710919 
L 369.002346 336.686417 
L 369.758155 321.198668 
L 370.513964 321.198668 
L 371.269773 313.454793 
L 372.025582 321.198668 
L 372.781391 313.454793 
L 376.560435 313.454793 
L 377.316244 321.198668 
L 379.58367 321.198668 
L 380.339479 313.454793 
L 381.095288 321.198668 
L 381.851097 321.198668 
L 382.606906 328.942543 
L 383.362715 328.942543 
L 384.118524 321.198668 
L 384.874332 321.198668 
L 385.630141 328.942543 
L 386.38595 328.942543 
L 387.141759 321.198668 
L 388.653377 321.198668 
L 389.409186 328.942543 
L 394.699848 328.942543 
L 395.455657 321.198668 
L 397.723083 321.198668 
L 398.478892 328.942543 
L 399.234701 305.710919 
L 403.013745 305.710919 
L 403.769554 290.22317 
L 404.525363 328.942543 
L 405.281172 297.967044 
L 406.79279 313.454793 
L 407.548598 305.710919 
L 408.304407 313.454793 
L 409.060216 305.710919 
L 412.083452 305.710919 
L 412.839261 313.454793 
L 413.595069 305.710919 
L 414.350878 336.686417 
L 415.106687 297.967044 
L 415.862496 305.710919 
L 416.618305 305.710919 
L 417.374114 297.967044 
L 418.129923 305.710919 
L 418.885731 328.942543 
L 420.397349 313.454793 
L 425.688011 313.454793 
L 426.44382 321.198668 
L 427.199629 313.454793 
L 427.955438 313.454793 
L 428.711247 321.198668 
L 430.222864 321.198668 
L 430.978673 328.942543 
L 431.734482 321.198668 
L 433.2461 321.198668 
L 434.001909 328.942543 
L 434.757718 321.198668 
L 436.269335 321.198668 
L 437.025144 313.454793 
L 437.780953 321.198668 
L 438.536762 321.198668 
L 439.292571 328.942543 
L 441.559997 328.942543 
L 442.315806 321.198668 
L 443.071615 321.198668 
L 443.827424 328.942543 
L 444.583233 321.198668 
L 445.339042 328.942543 
L 453.652939 328.942543 
L 454.408748 336.686417 
L 455.164557 328.942543 
L 455.920366 336.686417 
L 456.676175 328.942543 
L 459.69941 328.942543 
L 460.455219 336.686417 
L 464.990072 336.686417 
L 465.745881 328.942543 
L 466.50169 344.430292 
L 467.257499 336.686417 
L 472.548161 336.686417 
L 473.30397 344.430292 
L 474.059779 336.686417 
L 474.815588 344.430292 
L 475.571396 344.430292 
L 476.327205 336.686417 
L 477.083014 344.430292 
L 477.838823 344.430292 
L 478.594632 336.686417 
L 480.10625 336.686417 
L 480.862058 328.942543 
L 482.373676 328.942543 
L 483.129485 344.430292 
L 483.885294 336.686417 
L 484.641103 336.686417 
L 485.396912 328.942543 
L 486.152721 328.942543 
L 486.908529 336.686417 
L 489.931765 336.686417 
L 490.687574 344.430292 
L 491.443383 336.686417 
L 492.199191 336.686417 
L 492.955 344.430292 
L 493.710809 336.686417 
L 502.024707 336.686417 
L 502.780516 328.942543 
L 506.55956 328.942543 
L 507.315369 336.686417 
L 508.071178 336.686417 
L 508.826987 328.942543 
L 511.850222 328.942543 
L 512.606031 321.198668 
L 514.117649 321.198668 
L 514.873457 328.942543 
L 517.896693 328.942543 
L 517.896693 328.942543 
" style="fill:none;stroke:#9467bd;stroke-linecap:square;stroke-width:1.5;"/>
   </g>
   <g id="line2d_21">
    <path clip-path="url(#p19a090eb85)" d="M 104.408778 104.370178 
L 105.164587 50.163056 
L 105.920396 104.370178 
L 106.676205 119.857927 
L 107.432014 150.833426 
L 108.943632 150.833426 
L 109.69944 158.577301 
L 110.455249 205.040548 
L 111.211058 228.272172 
L 111.966867 243.759922 
L 112.722676 266.991546 
L 113.478485 251.503796 
L 114.234294 243.759922 
L 114.990103 259.247671 
L 115.745911 290.22317 
L 117.257529 274.73542 
L 118.013338 282.479295 
L 118.769147 274.73542 
L 119.524956 328.942543 
L 120.280765 297.967044 
L 122.548191 297.967044 
L 123.304 305.710919 
L 126.327236 305.710919 
L 127.083044 297.967044 
L 128.594662 297.967044 
L 129.350471 313.454793 
L 130.10628 313.454793 
L 130.862089 336.686417 
L 131.617898 321.198668 
L 132.373706 321.198668 
L 133.129515 313.454793 
L 134.641133 313.454793 
L 135.396942 328.942543 
L 136.152751 313.454793 
L 136.90856 305.710919 
L 137.664369 321.198668 
L 138.420177 321.198668 
L 139.175986 305.710919 
L 139.931795 297.967044 
L 140.687604 305.710919 
L 142.955031 305.710919 
L 143.710839 313.454793 
L 145.978266 313.454793 
L 146.734075 305.710919 
L 149.75731 305.710919 
L 151.268928 336.686417 
L 152.780546 336.686417 
L 153.536355 344.430292 
L 154.292164 344.430292 
L 155.047972 336.686417 
L 157.315399 336.686417 
L 158.071208 328.942543 
L 158.827017 328.942543 
L 160.338635 344.430292 
L 161.094443 336.686417 
L 163.36187 336.686417 
L 164.117679 328.942543 
L 165.629297 344.430292 
L 166.385105 336.686417 
L 167.140914 344.430292 
L 167.896723 336.686417 
L 170.16415 336.686417 
L 170.919959 328.942543 
L 171.675767 328.942543 
L 172.431576 336.686417 
L 173.187385 328.942543 
L 174.699003 328.942543 
L 175.454812 336.686417 
L 176.210621 328.942543 
L 176.96643 336.686417 
L 178.478047 336.686417 
L 179.233856 344.430292 
L 179.989665 336.686417 
L 180.745474 336.686417 
L 181.501283 344.430292 
L 183.0129 344.430292 
L 183.768709 336.686417 
L 185.280327 336.686417 
L 186.036136 344.430292 
L 187.547754 328.942543 
L 188.303563 336.686417 
L 189.81518 336.686417 
L 190.570989 328.942543 
L 191.326798 336.686417 
L 193.594225 336.686417 
L 194.350033 344.430292 
L 195.105842 336.686417 
L 196.61746 336.686417 
L 197.373269 328.942543 
L 198.129078 328.942543 
L 198.884887 336.686417 
L 201.152313 336.686417 
L 201.908122 328.942543 
L 203.41974 328.942543 
L 204.175549 336.686417 
L 204.931358 328.942543 
L 205.687166 336.686417 
L 207.198784 336.686417 
L 207.954593 328.942543 
L 208.710402 336.686417 
L 209.466211 328.942543 
L 210.977829 328.942543 
L 211.733637 336.686417 
L 216.268491 336.686417 
L 217.024299 344.430292 
L 218.535917 328.942543 
L 219.291726 336.686417 
L 220.803344 321.198668 
L 221.559153 321.198668 
L 222.314962 313.454793 
L 223.07077 321.198668 
L 223.826579 313.454793 
L 224.582388 321.198668 
L 225.338197 313.454793 
L 226.094006 321.198668 
L 227.605624 321.198668 
L 228.361432 328.942543 
L 229.117241 321.198668 
L 231.384668 321.198668 
L 232.896286 305.710919 
L 237.431139 305.710919 
L 238.186948 297.967044 
L 238.942757 305.710919 
L 239.698565 305.710919 
L 240.454374 321.198668 
L 241.210183 321.198668 
L 242.721801 305.710919 
L 243.47761 321.198668 
L 244.233419 305.710919 
L 244.989228 313.454793 
L 245.745036 297.967044 
L 246.500845 305.710919 
L 247.256654 297.967044 
L 248.012463 313.454793 
L 248.768272 305.710919 
L 249.524081 313.454793 
L 250.27989 305.710919 
L 251.035698 305.710919 
L 251.791507 297.967044 
L 252.547316 313.454793 
L 257.837978 313.454793 
L 258.593787 305.710919 
L 259.349596 328.942543 
L 260.105405 313.454793 
L 260.861214 321.198668 
L 261.617023 313.454793 
L 263.12864 313.454793 
L 263.884449 305.710919 
L 264.640258 313.454793 
L 266.907685 313.454793 
L 267.663494 321.198668 
L 268.419302 321.198668 
L 269.175111 328.942543 
L 269.93092 328.942543 
L 270.686729 321.198668 
L 271.442538 321.198668 
L 272.198347 328.942543 
L 272.954156 321.198668 
L 273.709964 321.198668 
L 274.465773 328.942543 
L 275.221582 313.454793 
L 276.7332 313.454793 
L 277.489009 321.198668 
L 279.000626 305.710919 
L 280.512244 321.198668 
L 281.268053 313.454793 
L 282.023862 321.198668 
L 285.802906 321.198668 
L 286.558715 313.454793 
L 288.070333 313.454793 
L 288.826142 321.198668 
L 289.581951 321.198668 
L 290.337759 328.942543 
L 291.093568 321.198668 
L 293.360995 321.198668 
L 294.116804 344.430292 
L 294.872613 328.942543 
L 296.38423 328.942543 
L 297.140039 336.686417 
L 297.895848 328.942543 
L 298.651657 328.942543 
L 299.407466 321.198668 
L 300.919084 321.198668 
L 301.674892 328.942543 
L 302.430701 328.942543 
L 303.18651 321.198668 
L 304.698128 321.198668 
L 305.453937 328.942543 
L 306.209746 321.198668 
L 306.965555 328.942543 
L 310.744599 328.942543 
L 311.500408 336.686417 
L 312.256217 328.942543 
L 314.523643 328.942543 
L 315.279452 336.686417 
L 316.035261 328.942543 
L 316.79107 336.686417 
L 317.546879 328.942543 
L 318.302688 336.686417 
L 319.814305 336.686417 
L 320.570114 328.942543 
L 321.325923 336.686417 
L 322.081732 328.942543 
L 323.59335 328.942543 
L 324.349158 321.198668 
L 325.860776 321.198668 
L 326.616585 328.942543 
L 328.128203 328.942543 
L 328.884012 336.686417 
L 329.639821 328.942543 
L 330.395629 328.942543 
L 331.151438 336.686417 
L 331.907247 328.942543 
L 332.663056 328.942543 
L 333.418865 336.686417 
L 339.465336 336.686417 
L 340.221145 328.942543 
L 343.24438 328.942543 
L 344.000189 321.198668 
L 344.755998 328.942543 
L 347.779233 328.942543 
L 348.535042 321.198668 
L 351.558278 321.198668 
L 352.314087 328.942543 
L 353.069895 328.942543 
L 353.825704 321.198668 
L 354.581513 328.942543 
L 355.337322 328.942543 
L 356.84894 344.430292 
L 357.604749 328.942543 
L 359.872175 328.942543 
L 360.627984 336.686417 
L 364.407028 336.686417 
L 365.162837 344.430292 
L 366.674455 344.430292 
L 367.430264 336.686417 
L 368.186073 344.430292 
L 368.941882 336.686417 
L 369.69769 344.430292 
L 370.453499 336.686417 
L 371.209308 344.430292 
L 374.232544 344.430292 
L 374.988352 352.174167 
L 375.744161 352.174167 
L 376.49997 344.430292 
L 377.255779 344.430292 
L 378.011588 336.686417 
L 379.523206 336.686417 
L 380.279015 344.430292 
L 381.034823 336.686417 
L 387.837103 336.686417 
L 389.348721 321.198668 
L 390.10453 321.198668 
L 390.860339 313.454793 
L 392.371956 313.454793 
L 393.127765 321.198668 
L 397.662618 321.198668 
L 398.418427 328.942543 
L 405.220707 328.942543 
L 405.976516 321.198668 
L 408.243943 321.198668 
L 408.999751 313.454793 
L 412.022987 313.454793 
L 412.778796 305.710919 
L 413.534605 305.710919 
L 414.290414 313.454793 
L 415.046222 297.967044 
L 415.802031 290.22317 
L 416.55784 290.22317 
L 417.313649 297.967044 
L 418.069458 297.967044 
L 418.825267 282.479295 
L 419.581076 282.479295 
L 420.336884 274.73542 
L 421.848502 274.73542 
L 422.604311 266.991546 
L 423.36012 274.73542 
L 424.115929 266.991546 
L 424.871738 266.991546 
L 425.627547 274.73542 
L 426.383355 266.991546 
L 427.139164 274.73542 
L 428.650782 274.73542 
L 429.406591 290.22317 
L 430.1624 274.73542 
L 430.918209 266.991546 
L 432.429826 282.479295 
L 433.185635 274.73542 
L 434.697253 274.73542 
L 435.453062 282.479295 
L 437.720488 282.479295 
L 438.476297 274.73542 
L 439.232106 274.73542 
L 439.987915 266.991546 
L 440.743724 266.991546 
L 441.499533 274.73542 
L 442.255342 266.991546 
L 443.01115 274.73542 
L 443.766959 266.991546 
L 444.522768 266.991546 
L 445.278577 297.967044 
L 446.034386 282.479295 
L 446.790195 290.22317 
L 448.301813 290.22317 
L 449.057621 297.967044 
L 449.81343 290.22317 
L 450.569239 297.967044 
L 453.592475 297.967044 
L 454.348283 282.479295 
L 455.859901 282.479295 
L 456.61571 274.73542 
L 457.371519 274.73542 
L 458.883137 259.247671 
L 459.638946 266.991546 
L 460.394754 282.479295 
L 461.150563 282.479295 
L 461.906372 259.247671 
L 462.662181 266.991546 
L 463.41799 259.247671 
L 464.173799 259.247671 
L 464.929608 266.991546 
L 466.441225 266.991546 
L 467.197034 259.247671 
L 467.952843 266.991546 
L 468.708652 266.991546 
L 469.464461 259.247671 
L 471.731887 259.247671 
L 472.487696 251.503796 
L 473.243505 259.247671 
L 474.755123 259.247671 
L 475.510932 266.991546 
L 476.266741 290.22317 
L 477.022549 243.759922 
L 478.534167 259.247671 
L 480.801594 259.247671 
L 481.557403 251.503796 
L 482.313211 259.247671 
L 483.06902 251.503796 
L 484.580638 251.503796 
L 485.336447 266.991546 
L 486.848065 266.991546 
L 487.603874 251.503796 
L 488.359682 243.759922 
L 489.8713 259.247671 
L 490.627109 259.247671 
L 491.382918 266.991546 
L 492.138727 290.22317 
L 492.894536 274.73542 
L 493.650344 282.479295 
L 499.696815 282.479295 
L 500.452624 274.73542 
L 502.720051 274.73542 
L 503.47586 282.479295 
L 504.231669 274.73542 
L 504.987477 282.479295 
L 506.499095 282.479295 
L 507.254904 313.454793 
L 508.010713 290.22317 
L 508.766522 297.967044 
L 512.545566 297.967044 
L 513.301375 305.710919 
L 514.057184 297.967044 
L 514.812993 297.967044 
L 515.568802 290.22317 
L 516.32461 290.22317 
L 516.32461 290.22317 
" style="fill:none;stroke:#8c564b;stroke-linecap:square;stroke-width:1.5;"/>
   </g>
   <g id="line2d_22">
    <path clip-path="url(#p19a090eb85)" d="M 109.019212 352.174167 
L 144.542229 352.174167 
L 145.298038 344.430292 
L 146.809656 344.430292 
L 147.565465 336.686417 
L 149.077082 336.686417 
L 149.832891 344.430292 
L 150.5887 336.686417 
L 151.344509 344.430292 
L 155.123553 344.430292 
L 155.879362 336.686417 
L 158.902598 336.686417 
L 159.658407 344.430292 
L 160.414215 336.686417 
L 163.437451 336.686417 
L 164.19326 344.430292 
L 164.949069 336.686417 
L 165.704877 336.686417 
L 167.972304 313.454793 
L 169.483922 313.454793 
L 170.239731 305.710919 
L 170.99554 328.942543 
L 171.751348 297.967044 
L 172.507157 290.22317 
L 174.018775 305.710919 
L 175.530393 305.710919 
L 176.286202 313.454793 
L 178.553628 290.22317 
L 179.309437 290.22317 
L 180.065246 297.967044 
L 180.821055 290.22317 
L 181.576864 228.272172 
L 182.332673 236.016047 
L 183.088481 228.272172 
L 183.84429 236.016047 
L 184.600099 236.016047 
L 185.355908 228.272172 
L 186.111717 236.016047 
L 186.867526 236.016047 
L 187.623335 212.784423 
L 188.379143 228.272172 
L 189.134952 220.528298 
L 189.890761 220.528298 
L 190.64657 205.040548 
L 192.158188 205.040548 
L 193.669806 220.528298 
L 194.425614 205.040548 
L 195.181423 212.784423 
L 195.937232 212.784423 
L 196.693041 282.479295 
L 197.44885 297.967044 
L 198.204659 282.479295 
L 198.960468 282.479295 
L 199.716276 274.73542 
L 200.472085 282.479295 
L 201.227894 282.479295 
L 201.983703 290.22317 
L 202.739512 274.73542 
L 203.495321 274.73542 
L 204.25113 259.247671 
L 206.518556 259.247671 
L 208.785983 282.479295 
L 209.541792 274.73542 
L 210.297601 282.479295 
L 211.053409 274.73542 
L 211.809218 274.73542 
L 212.565027 297.967044 
L 213.320836 274.73542 
L 215.588263 251.503796 
L 216.344071 251.503796 
L 217.09988 243.759922 
L 217.855689 251.503796 
L 218.611498 236.016047 
L 219.367307 251.503796 
L 220.123116 251.503796 
L 220.878925 259.247671 
L 221.634734 259.247671 
L 222.390542 251.503796 
L 223.90216 266.991546 
L 224.657969 259.247671 
L 225.413778 266.991546 
L 226.169587 282.479295 
L 226.925396 290.22317 
L 227.681204 282.479295 
L 228.437013 321.198668 
L 229.192822 290.22317 
L 229.948631 282.479295 
L 232.971867 282.479295 
L 233.727675 290.22317 
L 234.483484 290.22317 
L 235.239293 297.967044 
L 235.995102 290.22317 
L 237.50672 305.710919 
L 242.041573 305.710919 
L 242.797382 297.967044 
L 243.553191 313.454793 
L 244.309 297.967044 
L 245.064808 297.967044 
L 245.820617 328.942543 
L 246.576426 305.710919 
L 247.332235 305.710919 
L 248.088044 313.454793 
L 249.599662 313.454793 
L 250.35547 321.198668 
L 251.111279 313.454793 
L 252.622897 313.454793 
L 254.134515 328.942543 
L 254.890324 321.198668 
L 255.646133 321.198668 
L 256.401941 313.454793 
L 257.15775 321.198668 
L 257.913559 313.454793 
L 260.180986 336.686417 
L 260.936795 328.942543 
L 262.448412 328.942543 
L 263.204221 336.686417 
L 263.96003 328.942543 
L 270.76231 328.942543 
L 271.518119 336.686417 
L 272.273928 328.942543 
L 273.785545 328.942543 
L 274.541354 336.686417 
L 275.297163 328.942543 
L 276.052972 328.942543 
L 276.808781 344.430292 
L 277.56459 336.686417 
L 278.320399 344.430292 
L 279.076207 344.430292 
L 279.832016 336.686417 
L 280.587825 336.686417 
L 281.343634 344.430292 
L 282.099443 336.686417 
L 287.390105 336.686417 
L 288.145914 328.942543 
L 289.657532 328.942543 
L 290.41334 336.686417 
L 291.924958 321.198668 
L 293.436576 321.198668 
L 294.192385 313.454793 
L 297.21562 313.454793 
L 297.971429 321.198668 
L 299.483047 321.198668 
L 300.238856 328.942543 
L 311.575989 328.942543 
L 313.087606 344.430292 
L 315.355033 344.430292 
L 316.110842 328.942543 
L 317.62246 344.430292 
L 318.378268 344.430292 
L 319.134077 328.942543 
L 319.889886 336.686417 
L 330.47121 336.686417 
L 331.227019 344.430292 
L 331.982828 336.686417 
L 336.517681 336.686417 
L 337.27349 344.430292 
L 338.029299 336.686417 
L 345.587388 336.686417 
L 346.343196 352.174167 
L 347.099005 336.686417 
L 347.854814 344.430292 
L 348.610623 336.686417 
L 350.87805 336.686417 
L 351.633859 344.430292 
L 352.389667 336.686417 
L 353.145476 336.686417 
L 353.901285 328.942543 
L 355.412903 328.942543 
L 356.168712 336.686417 
L 367.505845 336.686417 
L 368.261654 344.430292 
L 369.773271 344.430292 
L 370.52908 352.174167 
L 372.040698 336.686417 
L 372.796507 344.430292 
L 374.308125 344.430292 
L 375.063933 336.686417 
L 375.819742 344.430292 
L 379.598787 344.430292 
L 380.354595 336.686417 
L 381.110404 336.686417 
L 381.866213 344.430292 
L 389.424302 344.430292 
L 390.180111 336.686417 
L 396.226582 336.686417 
L 396.982391 344.430292 
L 397.738199 336.686417 
L 398.494008 344.430292 
L 399.249817 336.686417 
L 403.78467 336.686417 
L 404.540479 352.174167 
L 405.296288 344.430292 
L 406.052097 344.430292 
L 406.807906 336.686417 
L 407.563715 336.686417 
L 408.319523 344.430292 
L 410.58695 344.430292 
L 411.342759 336.686417 
L 412.098568 344.430292 
L 417.38923 344.430292 
L 418.145039 336.686417 
L 418.900848 344.430292 
L 419.656656 336.686417 
L 420.412465 344.430292 
L 421.168274 336.686417 
L 421.924083 336.686417 
L 422.679892 328.942543 
L 423.435701 328.942543 
L 424.19151 336.686417 
L 424.947319 328.942543 
L 429.482172 328.942543 
L 430.237981 321.198668 
L 430.993789 328.942543 
L 432.505407 328.942543 
L 433.261216 321.198668 
L 434.017025 328.942543 
L 435.528643 328.942543 
L 436.284452 321.198668 
L 437.04026 321.198668 
L 437.796069 328.942543 
L 438.551878 328.942543 
L 439.307687 336.686417 
L 440.063496 328.942543 
L 440.819305 336.686417 
L 441.575114 328.942543 
L 443.086731 328.942543 
L 443.84254 336.686417 
L 445.354158 336.686417 
L 446.109967 344.430292 
L 446.865776 336.686417 
L 455.179673 336.686417 
L 455.935482 344.430292 
L 456.691291 336.686417 
L 457.4471 344.430292 
L 458.202909 336.686417 
L 458.958718 336.686417 
L 459.714526 344.430292 
L 461.981953 344.430292 
L 462.737762 336.686417 
L 463.493571 336.686417 
L 464.24938 344.430292 
L 465.005188 336.686417 
L 465.760997 336.686417 
L 466.516806 344.430292 
L 467.272615 328.942543 
L 470.295851 328.942543 
L 471.051659 344.430292 
L 471.807468 328.942543 
L 472.563277 336.686417 
L 473.319086 328.942543 
L 474.074895 336.686417 
L 477.853939 336.686417 
L 478.609748 328.942543 
L 482.388792 328.942543 
L 483.144601 344.430292 
L 483.90041 336.686417 
L 488.435263 336.686417 
L 489.946881 321.198668 
L 495.993352 321.198668 
L 496.749161 328.942543 
L 497.50497 328.942543 
L 498.260779 321.198668 
L 500.528205 321.198668 
L 501.284014 328.942543 
L 503.551441 328.942543 
L 504.307249 336.686417 
L 505.063058 328.942543 
L 506.574676 328.942543 
L 507.330485 336.686417 
L 508.086294 328.942543 
L 514.132765 328.942543 
L 514.888574 336.686417 
L 519.423427 336.686417 
L 519.423427 336.686417 
" style="fill:none;stroke:#e377c2;stroke-linecap:square;stroke-width:1.5;"/>
   </g>
   <g id="line2d_23">
    <path clip-path="url(#p19a090eb85)" d="M 115.000684 328.942543 
L 115.756493 274.73542 
L 116.512302 274.73542 
L 117.26811 282.479295 
L 118.023919 274.73542 
L 118.779728 274.73542 
L 119.535537 266.991546 
L 120.291346 290.22317 
L 121.802964 290.22317 
L 122.558773 297.967044 
L 123.314581 290.22317 
L 124.07039 297.967044 
L 124.826199 297.967044 
L 125.582008 290.22317 
L 127.093626 290.22317 
L 127.849435 282.479295 
L 128.605243 290.22317 
L 129.361052 282.479295 
L 130.116861 290.22317 
L 130.87267 274.73542 
L 131.628479 290.22317 
L 132.384288 290.22317 
L 133.140097 297.967044 
L 133.895906 297.967044 
L 134.651714 313.454793 
L 135.407523 297.967044 
L 137.67495 274.73542 
L 138.430759 282.479295 
L 139.186568 282.479295 
L 139.942376 290.22317 
L 140.698185 274.73542 
L 142.209803 274.73542 
L 142.965612 266.991546 
L 144.47723 266.991546 
L 145.233039 259.247671 
L 145.988847 274.73542 
L 147.500465 274.73542 
L 148.256274 290.22317 
L 149.012083 297.967044 
L 149.767892 290.22317 
L 150.523701 321.198668 
L 151.279509 290.22317 
L 153.546936 290.22317 
L 154.302745 297.967044 
L 155.058554 290.22317 
L 155.814363 297.967044 
L 157.32598 297.967044 
L 158.081789 305.710919 
L 158.837598 305.710919 
L 159.593407 297.967044 
L 160.349216 305.710919 
L 161.105025 305.710919 
L 161.860834 313.454793 
L 162.616642 305.710919 
L 163.372451 313.454793 
L 164.884069 313.454793 
L 165.639878 321.198668 
L 166.395687 305.710919 
L 167.151496 305.710919 
L 167.907304 313.454793 
L 170.174731 313.454793 
L 170.93054 305.710919 
L 171.686349 313.454793 
L 174.709584 313.454793 
L 175.465393 305.710919 
L 176.221202 305.710919 
L 177.73282 321.198668 
L 178.488629 305.710919 
L 179.244437 297.967044 
L 180.756055 297.967044 
L 181.511864 321.198668 
L 184.5351 321.198668 
L 185.290908 328.942543 
L 186.046717 328.942543 
L 186.802526 321.198668 
L 187.558335 305.710919 
L 188.314144 313.454793 
L 189.069953 328.942543 
L 189.825762 313.454793 
L 191.337379 328.942543 
L 192.093188 321.198668 
L 194.360615 321.198668 
L 195.116424 313.454793 
L 196.628041 328.942543 
L 197.38385 321.198668 
L 198.139659 321.198668 
L 198.895468 328.942543 
L 202.674512 328.942543 
L 203.430321 313.454793 
L 204.941939 313.454793 
L 205.697748 328.942543 
L 206.453557 328.942543 
L 207.209366 321.198668 
L 207.965174 328.942543 
L 209.476792 328.942543 
L 210.232601 321.198668 
L 210.98841 328.942543 
L 211.744219 328.942543 
L 212.500028 336.686417 
L 213.255836 321.198668 
L 214.011645 313.454793 
L 215.523263 313.454793 
L 216.279072 321.198668 
L 217.034881 321.198668 
L 217.79069 328.942543 
L 218.546499 328.942543 
L 219.302307 336.686417 
L 220.058116 321.198668 
L 221.569734 321.198668 
L 222.325543 336.686417 
L 223.081352 321.198668 
L 226.104587 321.198668 
L 226.860396 313.454793 
L 227.616205 328.942543 
L 229.127823 313.454793 
L 229.883632 321.198668 
L 231.395249 321.198668 
L 232.151058 328.942543 
L 233.662676 328.942543 
L 235.930102 305.710919 
L 238.197529 305.710919 
L 238.953338 297.967044 
L 239.709147 297.967044 
L 240.464956 290.22317 
L 241.976573 305.710919 
L 242.732382 305.710919 
L 243.488191 321.198668 
L 244.244 305.710919 
L 245.755618 305.710919 
L 246.511427 313.454793 
L 248.023044 313.454793 
L 248.778853 321.198668 
L 249.534662 313.454793 
L 250.290471 313.454793 
L 251.04628 321.198668 
L 251.802089 313.454793 
L 255.581133 313.454793 
L 256.336942 321.198668 
L 257.84856 305.710919 
L 258.604368 313.454793 
L 259.360177 305.710919 
L 260.115986 290.22317 
L 261.627604 290.22317 
L 263.139222 274.73542 
L 268.429884 274.73542 
L 269.185693 266.991546 
L 271.453119 266.991546 
L 272.208928 259.247671 
L 273.720546 259.247671 
L 274.476355 297.967044 
L 275.232163 259.247671 
L 275.987972 259.247671 
L 276.743781 243.759922 
L 277.49959 251.503796 
L 279.011208 236.016047 
L 279.767017 243.759922 
L 280.522826 236.016047 
L 281.278634 243.759922 
L 282.034443 243.759922 
L 282.790252 236.016047 
L 284.30187 236.016047 
L 285.057679 228.272172 
L 285.813488 236.016047 
L 288.836723 236.016047 
L 290.348341 282.479295 
L 291.10415 243.759922 
L 291.859959 243.759922 
L 292.615767 236.016047 
L 293.371576 243.759922 
L 294.127385 220.528298 
L 295.639003 236.016047 
L 296.394812 228.272172 
L 298.662238 228.272172 
L 299.418047 236.016047 
L 300.173856 236.016047 
L 300.929665 228.272172 
L 302.441283 243.759922 
L 303.9529 243.759922 
L 304.708709 251.503796 
L 305.464518 290.22317 
L 306.220327 243.759922 
L 307.731945 243.759922 
L 308.487754 251.503796 
L 309.243562 251.503796 
L 309.999371 259.247671 
L 310.75518 259.247671 
L 311.510989 266.991546 
L 312.266798 266.991546 
L 313.022607 259.247671 
L 318.313269 259.247671 
L 319.069078 266.991546 
L 319.824887 259.247671 
L 320.580695 274.73542 
L 321.336504 297.967044 
L 322.092313 266.991546 
L 323.603931 266.991546 
L 325.871358 290.22317 
L 326.627166 282.479295 
L 329.650402 282.479295 
L 330.406211 274.73542 
L 331.16202 282.479295 
L 331.917828 282.479295 
L 332.673637 290.22317 
L 334.185255 290.22317 
L 334.941064 282.479295 
L 335.696873 290.22317 
L 336.452682 313.454793 
L 337.208491 251.503796 
L 337.964299 259.247671 
L 339.475917 259.247671 
L 340.231726 266.991546 
L 340.987535 259.247671 
L 341.743344 259.247671 
L 342.499153 251.503796 
L 343.254961 259.247671 
L 344.01077 251.503796 
L 345.522388 251.503796 
L 346.278197 243.759922 
L 347.789815 243.759922 
L 348.545624 236.016047 
L 350.81305 236.016047 
L 351.568859 228.272172 
L 352.324668 282.479295 
L 353.080477 236.016047 
L 354.592094 236.016047 
L 355.347903 243.759922 
L 356.103712 243.759922 
L 357.61533 228.272172 
L 358.371139 236.016047 
L 359.126948 236.016047 
L 359.882756 251.503796 
L 360.638565 243.759922 
L 361.394374 251.503796 
L 362.150183 243.759922 
L 363.661801 243.759922 
L 364.41761 236.016047 
L 365.173419 220.528298 
L 365.929227 220.528298 
L 366.685036 228.272172 
L 367.440845 274.73542 
L 368.196654 236.016047 
L 368.952463 220.528298 
L 369.708272 212.784423 
L 370.464081 212.784423 
L 371.219889 205.040548 
L 371.975698 212.784423 
L 373.487316 212.784423 
L 374.243125 220.528298 
L 374.998934 205.040548 
L 381.045405 205.040548 
L 381.801214 212.784423 
L 382.557022 212.784423 
L 383.312831 282.479295 
L 384.06864 228.272172 
L 386.336067 228.272172 
L 387.091876 236.016047 
L 389.359302 236.016047 
L 390.87092 251.503796 
L 392.382538 251.503796 
L 393.138347 243.759922 
L 394.649964 259.247671 
L 395.405773 259.247671 
L 396.161582 251.503796 
L 397.6732 251.503796 
L 398.429009 290.22317 
L 399.940626 274.73542 
L 402.208053 274.73542 
L 402.963862 266.991546 
L 403.719671 274.73542 
L 404.47548 259.247671 
L 405.231288 266.991546 
L 406.742906 266.991546 
L 407.498715 274.73542 
L 409.010333 259.247671 
L 409.766142 259.247671 
L 410.521951 251.503796 
L 411.277759 259.247671 
L 412.789377 259.247671 
L 413.545186 266.991546 
L 414.300995 297.967044 
L 415.056804 274.73542 
L 418.080039 274.73542 
L 418.835848 266.991546 
L 419.591657 274.73542 
L 421.103275 274.73542 
L 421.859084 282.479295 
L 422.614892 297.967044 
L 423.370701 305.710919 
L 424.12651 297.967044 
L 424.882319 305.710919 
L 425.638128 305.710919 
L 426.393937 297.967044 
L 427.905554 313.454793 
L 428.661363 305.710919 
L 430.172981 336.686417 
L 430.92879 321.198668 
L 433.196217 321.198668 
L 433.952025 328.942543 
L 435.463643 328.942543 
L 436.219452 321.198668 
L 436.975261 336.686417 
L 437.73107 321.198668 
L 438.486879 321.198668 
L 439.242687 328.942543 
L 439.998496 328.942543 
L 440.754305 336.686417 
L 441.510114 328.942543 
L 443.777541 328.942543 
L 444.53335 336.686417 
L 446.044967 305.710919 
L 447.556585 305.710919 
L 448.312394 313.454793 
L 449.068203 305.710919 
L 450.57982 305.710919 
L 451.335629 297.967044 
L 452.091438 313.454793 
L 452.847247 305.710919 
L 454.358865 305.710919 
L 455.114674 313.454793 
L 458.137909 313.454793 
L 458.893718 305.710919 
L 459.649527 313.454793 
L 460.405336 305.710919 
L 461.161145 321.198668 
L 461.916953 313.454793 
L 462.672762 313.454793 
L 463.428571 321.198668 
L 464.18438 313.454793 
L 464.940189 321.198668 
L 467.963424 321.198668 
L 468.719233 313.454793 
L 474.009895 313.454793 
L 474.765704 305.710919 
L 475.521513 305.710919 
L 476.277322 313.454793 
L 477.033131 313.454793 
L 477.78894 321.198668 
L 480.056366 321.198668 
L 480.812175 328.942543 
L 481.567984 328.942543 
L 482.323793 321.198668 
L 483.835411 321.198668 
L 484.591219 313.454793 
L 489.126073 313.454793 
L 489.881881 321.198668 
L 490.63769 321.198668 
L 491.393499 313.454793 
L 492.149308 328.942543 
L 492.905117 321.198668 
L 500.463206 321.198668 
L 501.219014 313.454793 
L 501.974823 321.198668 
L 504.24225 321.198668 
L 504.998059 328.942543 
L 505.753868 328.942543 
L 506.509677 321.198668 
L 508.021294 336.686417 
L 508.777103 328.942543 
L 511.800339 328.942543 
L 512.556147 321.198668 
L 519.358427 321.198668 
L 520.114236 313.454793 
L 522.381663 313.454793 
L 523.137472 321.198668 
L 523.137472 321.198668 
" style="fill:none;stroke:#7f7f7f;stroke-linecap:square;stroke-width:1.5;"/>
   </g>
   <g id="patch_3">
    <path d="M 83.472344 352.174167 
L 83.472344 35.0625 
" style="fill:none;stroke:#000000;stroke-linecap:square;stroke-linejoin:miter;stroke-width:0.8;"/>
   </g>
   <g id="patch_4">
    <path d="M 544.073906 352.174167 
L 544.073906 35.0625 
" style="fill:none;stroke:#000000;stroke-linecap:square;stroke-linejoin:miter;stroke-width:0.8;"/>
   </g>
   <g id="patch_5">
    <path d="M 83.472344 352.174167 
L 544.073906 352.174167 
" style="fill:none;stroke:#000000;stroke-linecap:square;stroke-linejoin:miter;stroke-width:0.8;"/>
   </g>
   <g id="patch_6">
    <path d="M 83.472344 35.0625 
L 544.073906 35.0625 
" style="fill:none;stroke:#000000;stroke-linecap:square;stroke-linejoin:miter;stroke-width:0.8;"/>
   </g>
   <g id="legend_1">
    <g id="patch_7">
     <path d="M 569.103984 155.4875 
L 630.636797 155.4875 
Q 632.636797 155.4875 632.636797 153.4875 
L 632.636797 37.0625 
Q 632.636797 35.0625 630.636797 35.0625 
L 569.103984 35.0625 
Q 567.103984 35.0625 567.103984 37.0625 
L 567.103984 153.4875 
Q 567.103984 155.4875 569.103984 155.4875 
z
" style="fill:#ffffff;opacity:0.8;stroke:#cccccc;stroke-linejoin:miter;"/>
    </g>
    <g id="line2d_24">
     <path d="M 571.103984 43.160937 
L 591.103984 43.160937 
" style="fill:none;stroke:#1f77b4;stroke-linecap:square;stroke-width:1.5;"/>
    </g>
    <g id="line2d_25"/>
    <g id="text_17">
     <!-- bbr-pi -->
     <defs>
      <path d="M 4.890625 31.390625 
L 31.203125 31.390625 
L 31.203125 23.390625 
L 4.890625 23.390625 
z
" id="DejaVuSans-45"/>
     </defs>
     <g transform="translate(599.103984 46.660937)scale(0.1 -0.1)">
      <use xlink:href="#DejaVuSans-98"/>
      <use x="63.476562" xlink:href="#DejaVuSans-98"/>
      <use x="126.953125" xlink:href="#DejaVuSans-114"/>
      <use x="167.972656" xlink:href="#DejaVuSans-45"/>
      <use x="204.056641" xlink:href="#DejaVuSans-112"/>
      <use x="267.533203" xlink:href="#DejaVuSans-105"/>
     </g>
    </g>
    <g id="line2d_26">
     <path d="M 571.103984 57.839063 
L 591.103984 57.839063 
" style="fill:none;stroke:#ff7f0e;stroke-linecap:square;stroke-width:1.5;"/>
    </g>
    <g id="line2d_27"/>
    <g id="text_18">
     <!-- bbr-pi -->
     <g transform="translate(599.103984 61.339063)scale(0.1 -0.1)">
      <use xlink:href="#DejaVuSans-98"/>
      <use x="63.476562" xlink:href="#DejaVuSans-98"/>
      <use x="126.953125" xlink:href="#DejaVuSans-114"/>
      <use x="167.972656" xlink:href="#DejaVuSans-45"/>
      <use x="204.056641" xlink:href="#DejaVuSans-112"/>
      <use x="267.533203" xlink:href="#DejaVuSans-105"/>
     </g>
    </g>
    <g id="line2d_28">
     <path d="M 571.103984 72.517187 
L 591.103984 72.517187 
" style="fill:none;stroke:#2ca02c;stroke-linecap:square;stroke-width:1.5;"/>
    </g>
    <g id="line2d_29"/>
    <g id="text_19">
     <!-- bbr-pi -->
     <g transform="translate(599.103984 76.017187)scale(0.1 -0.1)">
      <use xlink:href="#DejaVuSans-98"/>
      <use x="63.476562" xlink:href="#DejaVuSans-98"/>
      <use x="126.953125" xlink:href="#DejaVuSans-114"/>
      <use x="167.972656" xlink:href="#DejaVuSans-45"/>
      <use x="204.056641" xlink:href="#DejaVuSans-112"/>
      <use x="267.533203" xlink:href="#DejaVuSans-105"/>
     </g>
    </g>
    <g id="line2d_30">
     <path d="M 571.103984 87.195312 
L 591.103984 87.195312 
" style="fill:none;stroke:#d62728;stroke-linecap:square;stroke-width:1.5;"/>
    </g>
    <g id="line2d_31"/>
    <g id="text_20">
     <!-- bbr-pi -->
     <g transform="translate(599.103984 90.695312)scale(0.1 -0.1)">
      <use xlink:href="#DejaVuSans-98"/>
      <use x="63.476562" xlink:href="#DejaVuSans-98"/>
      <use x="126.953125" xlink:href="#DejaVuSans-114"/>
      <use x="167.972656" xlink:href="#DejaVuSans-45"/>
      <use x="204.056641" xlink:href="#DejaVuSans-112"/>
      <use x="267.533203" xlink:href="#DejaVuSans-105"/>
     </g>
    </g>
    <g id="line2d_32">
     <path d="M 571.103984 101.873438 
L 591.103984 101.873438 
" style="fill:none;stroke:#9467bd;stroke-linecap:square;stroke-width:1.5;"/>
    </g>
    <g id="line2d_33"/>
    <g id="text_21">
     <!-- bbr-pi -->
     <g transform="translate(599.103984 105.373438)scale(0.1 -0.1)">
      <use xlink:href="#DejaVuSans-98"/>
      <use x="63.476562" xlink:href="#DejaVuSans-98"/>
      <use x="126.953125" xlink:href="#DejaVuSans-114"/>
      <use x="167.972656" xlink:href="#DejaVuSans-45"/>
      <use x="204.056641" xlink:href="#DejaVuSans-112"/>
      <use x="267.533203" xlink:href="#DejaVuSans-105"/>
     </g>
    </g>
    <g id="line2d_34">
     <path d="M 571.103984 116.551562 
L 591.103984 116.551562 
" style="fill:none;stroke:#8c564b;stroke-linecap:square;stroke-width:1.5;"/>
    </g>
    <g id="line2d_35"/>
    <g id="text_22">
     <!-- bbr-pi -->
     <g transform="translate(599.103984 120.051562)scale(0.1 -0.1)">
      <use xlink:href="#DejaVuSans-98"/>
      <use x="63.476562" xlink:href="#DejaVuSans-98"/>
      <use x="126.953125" xlink:href="#DejaVuSans-114"/>
      <use x="167.972656" xlink:href="#DejaVuSans-45"/>
      <use x="204.056641" xlink:href="#DejaVuSans-112"/>
      <use x="267.533203" xlink:href="#DejaVuSans-105"/>
     </g>
    </g>
    <g id="line2d_36">
     <path d="M 571.103984 131.229687 
L 591.103984 131.229687 
" style="fill:none;stroke:#e377c2;stroke-linecap:square;stroke-width:1.5;"/>
    </g>
    <g id="line2d_37"/>
    <g id="text_23">
     <!-- bbr-pi -->
     <g transform="translate(599.103984 134.729687)scale(0.1 -0.1)">
      <use xlink:href="#DejaVuSans-98"/>
      <use x="63.476562" xlink:href="#DejaVuSans-98"/>
      <use x="126.953125" xlink:href="#DejaVuSans-114"/>
      <use x="167.972656" xlink:href="#DejaVuSans-45"/>
      <use x="204.056641" xlink:href="#DejaVuSans-112"/>
      <use x="267.533203" xlink:href="#DejaVuSans-105"/>
     </g>
    </g>
    <g id="line2d_38">
     <path d="M 571.103984 145.907812 
L 591.103984 145.907812 
" style="fill:none;stroke:#7f7f7f;stroke-linecap:square;stroke-width:1.5;"/>
    </g>
    <g id="line2d_39"/>
    <g id="text_24">
     <!-- bbr-pi -->
     <g transform="translate(599.103984 149.407812)scale(0.1 -0.1)">
      <use xlink:href="#DejaVuSans-98"/>
      <use x="63.476562" xlink:href="#DejaVuSans-98"/>
      <use x="126.953125" xlink:href="#DejaVuSans-114"/>
      <use x="167.972656" xlink:href="#DejaVuSans-45"/>
      <use x="204.056641" xlink:href="#DejaVuSans-112"/>
      <use x="267.533203" xlink:href="#DejaVuSans-105"/>
     </g>
    </g>
   </g>
  </g>
  <g id="text_25">
   <!-- result throughput -->
   <defs>
    <path d="M 9.421875 75.984375 
L 18.40625 75.984375 
L 18.40625 0 
L 9.421875 0 
z
" id="DejaVuSans-108"/>
   </defs>
   <g transform="translate(289.320938 17.038125)scale(0.12 -0.12)">
    <use xlink:href="#DejaVuSans-114"/>
    <use x="41.082031" xlink:href="#DejaVuSans-101"/>
    <use x="102.605469" xlink:href="#DejaVuSans-115"/>
    <use x="154.705078" xlink:href="#DejaVuSans-117"/>
    <use x="218.083984" xlink:href="#DejaVuSans-108"/>
    <use x="245.867188" xlink:href="#DejaVuSans-116"/>
    <use x="285.076172" xlink:href="#DejaVuSans-32"/>
    <use x="316.863281" xlink:href="#DejaVuSans-116"/>
    <use x="356.072266" xlink:href="#DejaVuSans-104"/>
    <use x="419.451172" xlink:href="#DejaVuSans-114"/>
    <use x="460.533203" xlink:href="#DejaVuSans-111"/>
    <use x="521.714844" xlink:href="#DejaVuSans-117"/>
    <use x="585.09375" xlink:href="#DejaVuSans-103"/>
    <use x="648.570312" xlink:href="#DejaVuSans-104"/>
    <use x="711.949219" xlink:href="#DejaVuSans-112"/>
    <use x="775.425781" xlink:href="#DejaVuSans-117"/>
    <use x="838.804688" xlink:href="#DejaVuSans-116"/>
   </g>
  </g>
 </g>
 <defs>
  <clipPath id="p19a090eb85">
   <rect height="317.111667" width="460.601562" x="83.472344" y="35.0625"/>
  </clipPath>
 </defs>
</svg>
