<?xml version="1.0" encoding="utf-8" standalone="no"?>
<!DOCTYPE svg PUBLIC "-//W3C//DTD SVG 1.1//EN"
  "http://www.w3.org/Graphics/SVG/1.1/DTD/svg11.dtd">
<!-- Created with matplotlib (https://matplotlib.org/) -->
<svg height="396pt" version="1.1" viewBox="0 0 684 396" width="684pt" xmlns="http://www.w3.org/2000/svg" xmlns:xlink="http://www.w3.org/1999/xlink">
 <defs>
  <style type="text/css">
*{stroke-linecap:butt;stroke-linejoin:round;}
  </style>
 </defs>
 <g id="figure_1">
  <g id="patch_1">
   <path d="M 0 396 
L 684 396 
L 684 0 
L 0 0 
z
" style="fill:#ffffff;"/>
  </g>
  <g id="axes_1">
   <g id="patch_2">
    <path d="M 120.878594 352.174167 
L 540.734062 352.174167 
L 540.734062 35.0625 
L 120.878594 35.0625 
z
" style="fill:#ffffff;"/>
   </g>
   <g id="matplotlib.axis_1">
    <g id="xtick_1">
     <g id="line2d_1">
      <defs>
       <path d="M 0 0 
L 0 3.5 
" id="m40fa99a56c" style="stroke:#000000;stroke-width:0.8;"/>
      </defs>
      <g>
       <use style="stroke:#000000;stroke-width:0.8;" x="144.851665" xlink:href="#m40fa99a56c" y="352.174167"/>
      </g>
     </g>
     <g id="text_1">
      <!-- 0 -->
      <defs>
       <path d="M 31.78125 66.40625 
Q 24.171875 66.40625 20.328125 58.90625 
Q 16.5 51.421875 16.5 36.375 
Q 16.5 21.390625 20.328125 13.890625 
Q 24.171875 6.390625 31.78125 6.390625 
Q 39.453125 6.390625 43.28125 13.890625 
Q 47.125 21.390625 47.125 36.375 
Q 47.125 51.421875 43.28125 58.90625 
Q 39.453125 66.40625 31.78125 66.40625 
z
M 31.78125 74.21875 
Q 44.046875 74.21875 50.515625 64.515625 
Q 56.984375 54.828125 56.984375 36.375 
Q 56.984375 17.96875 50.515625 8.265625 
Q 44.046875 -1.421875 31.78125 -1.421875 
Q 19.53125 -1.421875 13.0625 8.265625 
Q 6.59375 17.96875 6.59375 36.375 
Q 6.59375 54.828125 13.0625 64.515625 
Q 19.53125 74.21875 31.78125 74.21875 
z
" id="DejaVuSans-48"/>
      </defs>
      <g transform="translate(141.670415 366.772604)scale(0.1 -0.1)">
       <use xlink:href="#DejaVuSans-48"/>
      </g>
     </g>
    </g>
    <g id="xtick_2">
     <g id="line2d_2">
      <g>
       <use style="stroke:#000000;stroke-width:0.8;" x="211.533306" xlink:href="#m40fa99a56c" y="352.174167"/>
      </g>
     </g>
     <g id="text_2">
      <!-- 50 -->
      <defs>
       <path d="M 10.796875 72.90625 
L 49.515625 72.90625 
L 49.515625 64.59375 
L 19.828125 64.59375 
L 19.828125 46.734375 
Q 21.96875 47.46875 24.109375 47.828125 
Q 26.265625 48.1875 28.421875 48.1875 
Q 40.625 48.1875 47.75 41.5 
Q 54.890625 34.8125 54.890625 23.390625 
Q 54.890625 11.625 47.5625 5.09375 
Q 40.234375 -1.421875 26.90625 -1.421875 
Q 22.3125 -1.421875 17.546875 -0.640625 
Q 12.796875 0.140625 7.71875 1.703125 
L 7.71875 11.625 
Q 12.109375 9.234375 16.796875 8.0625 
Q 21.484375 6.890625 26.703125 6.890625 
Q 35.15625 6.890625 40.078125 11.328125 
Q 45.015625 15.765625 45.015625 23.390625 
Q 45.015625 31 40.078125 35.4375 
Q 35.15625 39.890625 26.703125 39.890625 
Q 22.75 39.890625 18.8125 39.015625 
Q 14.890625 38.140625 10.796875 36.28125 
z
" id="DejaVuSans-53"/>
      </defs>
      <g transform="translate(205.170806 366.772604)scale(0.1 -0.1)">
       <use xlink:href="#DejaVuSans-53"/>
       <use x="63.623047" xlink:href="#DejaVuSans-48"/>
      </g>
     </g>
    </g>
    <g id="xtick_3">
     <g id="line2d_3">
      <g>
       <use style="stroke:#000000;stroke-width:0.8;" x="278.214948" xlink:href="#m40fa99a56c" y="352.174167"/>
      </g>
     </g>
     <g id="text_3">
      <!-- 100 -->
      <defs>
       <path d="M 12.40625 8.296875 
L 28.515625 8.296875 
L 28.515625 63.921875 
L 10.984375 60.40625 
L 10.984375 69.390625 
L 28.421875 72.90625 
L 38.28125 72.90625 
L 38.28125 8.296875 
L 54.390625 8.296875 
L 54.390625 0 
L 12.40625 0 
z
" id="DejaVuSans-49"/>
      </defs>
      <g transform="translate(268.671198 366.772604)scale(0.1 -0.1)">
       <use xlink:href="#DejaVuSans-49"/>
       <use x="63.623047" xlink:href="#DejaVuSans-48"/>
       <use x="127.246094" xlink:href="#DejaVuSans-48"/>
      </g>
     </g>
    </g>
    <g id="xtick_4">
     <g id="line2d_4">
      <g>
       <use style="stroke:#000000;stroke-width:0.8;" x="344.896589" xlink:href="#m40fa99a56c" y="352.174167"/>
      </g>
     </g>
     <g id="text_4">
      <!-- 150 -->
      <g transform="translate(335.352839 366.772604)scale(0.1 -0.1)">
       <use xlink:href="#DejaVuSans-49"/>
       <use x="63.623047" xlink:href="#DejaVuSans-53"/>
       <use x="127.246094" xlink:href="#DejaVuSans-48"/>
      </g>
     </g>
    </g>
    <g id="xtick_5">
     <g id="line2d_5">
      <g>
       <use style="stroke:#000000;stroke-width:0.8;" x="411.57823" xlink:href="#m40fa99a56c" y="352.174167"/>
      </g>
     </g>
     <g id="text_5">
      <!-- 200 -->
      <defs>
       <path d="M 19.1875 8.296875 
L 53.609375 8.296875 
L 53.609375 0 
L 7.328125 0 
L 7.328125 8.296875 
Q 12.9375 14.109375 22.625 23.890625 
Q 32.328125 33.6875 34.8125 36.53125 
Q 39.546875 41.84375 41.421875 45.53125 
Q 43.3125 49.21875 43.3125 52.78125 
Q 43.3125 58.59375 39.234375 62.25 
Q 35.15625 65.921875 28.609375 65.921875 
Q 23.96875 65.921875 18.8125 64.3125 
Q 13.671875 62.703125 7.8125 59.421875 
L 7.8125 69.390625 
Q 13.765625 71.78125 18.9375 73 
Q 24.125 74.21875 28.421875 74.21875 
Q 39.75 74.21875 46.484375 68.546875 
Q 53.21875 62.890625 53.21875 53.421875 
Q 53.21875 48.921875 51.53125 44.890625 
Q 49.859375 40.875 45.40625 35.40625 
Q 44.1875 33.984375 37.640625 27.21875 
Q 31.109375 20.453125 19.1875 8.296875 
z
" id="DejaVuSans-50"/>
      </defs>
      <g transform="translate(402.03448 366.772604)scale(0.1 -0.1)">
       <use xlink:href="#DejaVuSans-50"/>
       <use x="63.623047" xlink:href="#DejaVuSans-48"/>
       <use x="127.246094" xlink:href="#DejaVuSans-48"/>
      </g>
     </g>
    </g>
    <g id="xtick_6">
     <g id="line2d_6">
      <g>
       <use style="stroke:#000000;stroke-width:0.8;" x="478.259872" xlink:href="#m40fa99a56c" y="352.174167"/>
      </g>
     </g>
     <g id="text_6">
      <!-- 250 -->
      <g transform="translate(468.716122 366.772604)scale(0.1 -0.1)">
       <use xlink:href="#DejaVuSans-50"/>
       <use x="63.623047" xlink:href="#DejaVuSans-53"/>
       <use x="127.246094" xlink:href="#DejaVuSans-48"/>
      </g>
     </g>
    </g>
   </g>
   <g id="matplotlib.axis_2">
    <g id="ytick_1">
     <g id="line2d_7">
      <defs>
       <path d="M 0 0 
L -3.5 0 
" id="m06804d5d27" style="stroke:#000000;stroke-width:0.8;"/>
      </defs>
      <g>
       <use style="stroke:#000000;stroke-width:0.8;" x="120.878594" xlink:href="#m06804d5d27" y="352.174167"/>
      </g>
     </g>
     <g id="text_7">
      <!-- 0 -->
      <g transform="translate(107.516094 355.973385)scale(0.1 -0.1)">
       <use xlink:href="#DejaVuSans-48"/>
      </g>
     </g>
    </g>
    <g id="ytick_2">
     <g id="line2d_8">
      <g>
       <use style="stroke:#000000;stroke-width:0.8;" x="120.878594" xlink:href="#m06804d5d27" y="311.629667"/>
      </g>
     </g>
     <g id="text_8">
      <!-- 25000 -->
      <g transform="translate(82.066094 315.428886)scale(0.1 -0.1)">
       <use xlink:href="#DejaVuSans-50"/>
       <use x="63.623047" xlink:href="#DejaVuSans-53"/>
       <use x="127.246094" xlink:href="#DejaVuSans-48"/>
       <use x="190.869141" xlink:href="#DejaVuSans-48"/>
       <use x="254.492188" xlink:href="#DejaVuSans-48"/>
      </g>
     </g>
    </g>
    <g id="ytick_3">
     <g id="line2d_9">
      <g>
       <use style="stroke:#000000;stroke-width:0.8;" x="120.878594" xlink:href="#m06804d5d27" y="271.085168"/>
      </g>
     </g>
     <g id="text_9">
      <!-- 50000 -->
      <g transform="translate(82.066094 274.884387)scale(0.1 -0.1)">
       <use xlink:href="#DejaVuSans-53"/>
       <use x="63.623047" xlink:href="#DejaVuSans-48"/>
       <use x="127.246094" xlink:href="#DejaVuSans-48"/>
       <use x="190.869141" xlink:href="#DejaVuSans-48"/>
       <use x="254.492188" xlink:href="#DejaVuSans-48"/>
      </g>
     </g>
    </g>
    <g id="ytick_4">
     <g id="line2d_10">
      <g>
       <use style="stroke:#000000;stroke-width:0.8;" x="120.878594" xlink:href="#m06804d5d27" y="230.540668"/>
      </g>
     </g>
     <g id="text_10">
      <!-- 75000 -->
      <defs>
       <path d="M 8.203125 72.90625 
L 55.078125 72.90625 
L 55.078125 68.703125 
L 28.609375 0 
L 18.3125 0 
L 43.21875 64.59375 
L 8.203125 64.59375 
z
" id="DejaVuSans-55"/>
      </defs>
      <g transform="translate(82.066094 234.339887)scale(0.1 -0.1)">
       <use xlink:href="#DejaVuSans-55"/>
       <use x="63.623047" xlink:href="#DejaVuSans-53"/>
       <use x="127.246094" xlink:href="#DejaVuSans-48"/>
       <use x="190.869141" xlink:href="#DejaVuSans-48"/>
       <use x="254.492188" xlink:href="#DejaVuSans-48"/>
      </g>
     </g>
    </g>
    <g id="ytick_5">
     <g id="line2d_11">
      <g>
       <use style="stroke:#000000;stroke-width:0.8;" x="120.878594" xlink:href="#m06804d5d27" y="189.996169"/>
      </g>
     </g>
     <g id="text_11">
      <!-- 100000 -->
      <g transform="translate(75.703594 193.795388)scale(0.1 -0.1)">
       <use xlink:href="#DejaVuSans-49"/>
       <use x="63.623047" xlink:href="#DejaVuSans-48"/>
       <use x="127.246094" xlink:href="#DejaVuSans-48"/>
       <use x="190.869141" xlink:href="#DejaVuSans-48"/>
       <use x="254.492188" xlink:href="#DejaVuSans-48"/>
       <use x="318.115234" xlink:href="#DejaVuSans-48"/>
      </g>
     </g>
    </g>
    <g id="ytick_6">
     <g id="line2d_12">
      <g>
       <use style="stroke:#000000;stroke-width:0.8;" x="120.878594" xlink:href="#m06804d5d27" y="149.451669"/>
      </g>
     </g>
     <g id="text_12">
      <!-- 125000 -->
      <g transform="translate(75.703594 153.250888)scale(0.1 -0.1)">
       <use xlink:href="#DejaVuSans-49"/>
       <use x="63.623047" xlink:href="#DejaVuSans-50"/>
       <use x="127.246094" xlink:href="#DejaVuSans-53"/>
       <use x="190.869141" xlink:href="#DejaVuSans-48"/>
       <use x="254.492188" xlink:href="#DejaVuSans-48"/>
       <use x="318.115234" xlink:href="#DejaVuSans-48"/>
      </g>
     </g>
    </g>
    <g id="ytick_7">
     <g id="line2d_13">
      <g>
       <use style="stroke:#000000;stroke-width:0.8;" x="120.878594" xlink:href="#m06804d5d27" y="108.90717"/>
      </g>
     </g>
     <g id="text_13">
      <!-- 150000 -->
      <g transform="translate(75.703594 112.706389)scale(0.1 -0.1)">
       <use xlink:href="#DejaVuSans-49"/>
       <use x="63.623047" xlink:href="#DejaVuSans-53"/>
       <use x="127.246094" xlink:href="#DejaVuSans-48"/>
       <use x="190.869141" xlink:href="#DejaVuSans-48"/>
       <use x="254.492188" xlink:href="#DejaVuSans-48"/>
       <use x="318.115234" xlink:href="#DejaVuSans-48"/>
      </g>
     </g>
    </g>
    <g id="ytick_8">
     <g id="line2d_14">
      <g>
       <use style="stroke:#000000;stroke-width:0.8;" x="120.878594" xlink:href="#m06804d5d27" y="68.36267"/>
      </g>
     </g>
     <g id="text_14">
      <!-- 175000 -->
      <g transform="translate(75.703594 72.161889)scale(0.1 -0.1)">
       <use xlink:href="#DejaVuSans-49"/>
       <use x="63.623047" xlink:href="#DejaVuSans-55"/>
       <use x="127.246094" xlink:href="#DejaVuSans-53"/>
       <use x="190.869141" xlink:href="#DejaVuSans-48"/>
       <use x="254.492188" xlink:href="#DejaVuSans-48"/>
       <use x="318.115234" xlink:href="#DejaVuSans-48"/>
      </g>
     </g>
    </g>
    <g id="text_15">
     <!-- queue -->
     <defs>
      <path d="M 14.796875 27.296875 
Q 14.796875 17.390625 18.875 11.75 
Q 22.953125 6.109375 30.078125 6.109375 
Q 37.203125 6.109375 41.296875 11.75 
Q 45.40625 17.390625 45.40625 27.296875 
Q 45.40625 37.203125 41.296875 42.84375 
Q 37.203125 48.484375 30.078125 48.484375 
Q 22.953125 48.484375 18.875 42.84375 
Q 14.796875 37.203125 14.796875 27.296875 
z
M 45.40625 8.203125 
Q 42.578125 3.328125 38.25 0.953125 
Q 33.9375 -1.421875 27.875 -1.421875 
Q 17.96875 -1.421875 11.734375 6.484375 
Q 5.515625 14.40625 5.515625 27.296875 
Q 5.515625 40.1875 11.734375 48.09375 
Q 17.96875 56 27.875 56 
Q 33.9375 56 38.25 53.625 
Q 42.578125 51.265625 45.40625 46.390625 
L 45.40625 54.6875 
L 54.390625 54.6875 
L 54.390625 -20.796875 
L 45.40625 -20.796875 
z
" id="DejaVuSans-113"/>
      <path d="M 8.5 21.578125 
L 8.5 54.6875 
L 17.484375 54.6875 
L 17.484375 21.921875 
Q 17.484375 14.15625 20.5 10.265625 
Q 23.53125 6.390625 29.59375 6.390625 
Q 36.859375 6.390625 41.078125 11.03125 
Q 45.3125 15.671875 45.3125 23.6875 
L 45.3125 54.6875 
L 54.296875 54.6875 
L 54.296875 0 
L 45.3125 0 
L 45.3125 8.40625 
Q 42.046875 3.421875 37.71875 1 
Q 33.40625 -1.421875 27.6875 -1.421875 
Q 18.265625 -1.421875 13.375 4.4375 
Q 8.5 10.296875 8.5 21.578125 
z
M 31.109375 56 
z
" id="DejaVuSans-117"/>
      <path d="M 56.203125 29.59375 
L 56.203125 25.203125 
L 14.890625 25.203125 
Q 15.484375 15.921875 20.484375 11.0625 
Q 25.484375 6.203125 34.421875 6.203125 
Q 39.59375 6.203125 44.453125 7.46875 
Q 49.3125 8.734375 54.109375 11.28125 
L 54.109375 2.78125 
Q 49.265625 0.734375 44.1875 -0.34375 
Q 39.109375 -1.421875 33.890625 -1.421875 
Q 20.796875 -1.421875 13.15625 6.1875 
Q 5.515625 13.8125 5.515625 26.8125 
Q 5.515625 40.234375 12.765625 48.109375 
Q 20.015625 56 32.328125 56 
Q 43.359375 56 49.78125 48.890625 
Q 56.203125 41.796875 56.203125 29.59375 
z
M 47.21875 32.234375 
Q 47.125 39.59375 43.09375 43.984375 
Q 39.0625 48.390625 32.421875 48.390625 
Q 24.90625 48.390625 20.390625 44.140625 
Q 15.875 39.890625 15.1875 32.171875 
z
" id="DejaVuSans-101"/>
     </defs>
     <g transform="translate(58.426094 209.283177)rotate(-90)scale(0.1 -0.1)">
      <use xlink:href="#DejaVuSans-113"/>
      <use x="63.476562" xlink:href="#DejaVuSans-117"/>
      <use x="126.855469" xlink:href="#DejaVuSans-101"/>
      <use x="188.378906" xlink:href="#DejaVuSans-117"/>
      <use x="251.757812" xlink:href="#DejaVuSans-101"/>
     </g>
     <!-- (bytes) -->
     <defs>
      <path d="M 31 75.875 
Q 24.46875 64.65625 21.28125 53.65625 
Q 18.109375 42.671875 18.109375 31.390625 
Q 18.109375 20.125 21.3125 9.0625 
Q 24.515625 -2 31 -13.1875 
L 23.1875 -13.1875 
Q 15.875 -1.703125 12.234375 9.375 
Q 8.59375 20.453125 8.59375 31.390625 
Q 8.59375 42.28125 12.203125 53.3125 
Q 15.828125 64.359375 23.1875 75.875 
z
" id="DejaVuSans-40"/>
      <path d="M 48.6875 27.296875 
Q 48.6875 37.203125 44.609375 42.84375 
Q 40.53125 48.484375 33.40625 48.484375 
Q 26.265625 48.484375 22.1875 42.84375 
Q 18.109375 37.203125 18.109375 27.296875 
Q 18.109375 17.390625 22.1875 11.75 
Q 26.265625 6.109375 33.40625 6.109375 
Q 40.53125 6.109375 44.609375 11.75 
Q 48.6875 17.390625 48.6875 27.296875 
z
M 18.109375 46.390625 
Q 20.953125 51.265625 25.265625 53.625 
Q 29.59375 56 35.59375 56 
Q 45.5625 56 51.78125 48.09375 
Q 58.015625 40.1875 58.015625 27.296875 
Q 58.015625 14.40625 51.78125 6.484375 
Q 45.5625 -1.421875 35.59375 -1.421875 
Q 29.59375 -1.421875 25.265625 0.953125 
Q 20.953125 3.328125 18.109375 8.203125 
L 18.109375 0 
L 9.078125 0 
L 9.078125 75.984375 
L 18.109375 75.984375 
z
" id="DejaVuSans-98"/>
      <path d="M 32.171875 -5.078125 
Q 28.375 -14.84375 24.75 -17.8125 
Q 21.140625 -20.796875 15.09375 -20.796875 
L 7.90625 -20.796875 
L 7.90625 -13.28125 
L 13.1875 -13.28125 
Q 16.890625 -13.28125 18.9375 -11.515625 
Q 21 -9.765625 23.484375 -3.21875 
L 25.09375 0.875 
L 2.984375 54.6875 
L 12.5 54.6875 
L 29.59375 11.921875 
L 46.6875 54.6875 
L 56.203125 54.6875 
z
" id="DejaVuSans-121"/>
      <path d="M 18.3125 70.21875 
L 18.3125 54.6875 
L 36.8125 54.6875 
L 36.8125 47.703125 
L 18.3125 47.703125 
L 18.3125 18.015625 
Q 18.3125 11.328125 20.140625 9.421875 
Q 21.96875 7.515625 27.59375 7.515625 
L 36.8125 7.515625 
L 36.8125 0 
L 27.59375 0 
Q 17.1875 0 13.234375 3.875 
Q 9.28125 7.765625 9.28125 18.015625 
L 9.28125 47.703125 
L 2.6875 47.703125 
L 2.6875 54.6875 
L 9.28125 54.6875 
L 9.28125 70.21875 
z
" id="DejaVuSans-116"/>
      <path d="M 44.28125 53.078125 
L 44.28125 44.578125 
Q 40.484375 46.53125 36.375 47.5 
Q 32.28125 48.484375 27.875 48.484375 
Q 21.1875 48.484375 17.84375 46.4375 
Q 14.5 44.390625 14.5 40.28125 
Q 14.5 37.15625 16.890625 35.375 
Q 19.28125 33.59375 26.515625 31.984375 
L 29.59375 31.296875 
Q 39.15625 29.25 43.1875 25.515625 
Q 47.21875 21.78125 47.21875 15.09375 
Q 47.21875 7.46875 41.1875 3.015625 
Q 35.15625 -1.421875 24.609375 -1.421875 
Q 20.21875 -1.421875 15.453125 -0.5625 
Q 10.6875 0.296875 5.421875 2 
L 5.421875 11.28125 
Q 10.40625 8.6875 15.234375 7.390625 
Q 20.0625 6.109375 24.8125 6.109375 
Q 31.15625 6.109375 34.5625 8.28125 
Q 37.984375 10.453125 37.984375 14.40625 
Q 37.984375 18.0625 35.515625 20.015625 
Q 33.0625 21.96875 24.703125 23.78125 
L 21.578125 24.515625 
Q 13.234375 26.265625 9.515625 29.90625 
Q 5.8125 33.546875 5.8125 39.890625 
Q 5.8125 47.609375 11.28125 51.796875 
Q 16.75 56 26.8125 56 
Q 31.78125 56 36.171875 55.265625 
Q 40.578125 54.546875 44.28125 53.078125 
z
" id="DejaVuSans-115"/>
      <path d="M 8.015625 75.875 
L 15.828125 75.875 
Q 23.140625 64.359375 26.78125 53.3125 
Q 30.421875 42.28125 30.421875 31.390625 
Q 30.421875 20.453125 26.78125 9.375 
Q 23.140625 -1.703125 15.828125 -13.1875 
L 8.015625 -13.1875 
Q 14.5 -2 17.703125 9.0625 
Q 20.90625 20.125 20.90625 31.390625 
Q 20.90625 42.671875 17.703125 53.65625 
Q 14.5 64.65625 8.015625 75.875 
z
" id="DejaVuSans-41"/>
     </defs>
     <g transform="translate(69.623906 211.294896)rotate(-90)scale(0.1 -0.1)">
      <use xlink:href="#DejaVuSans-40"/>
      <use x="39.013672" xlink:href="#DejaVuSans-98"/>
      <use x="102.490234" xlink:href="#DejaVuSans-121"/>
      <use x="161.669922" xlink:href="#DejaVuSans-116"/>
      <use x="200.878906" xlink:href="#DejaVuSans-101"/>
      <use x="262.402344" xlink:href="#DejaVuSans-115"/>
      <use x="314.501953" xlink:href="#DejaVuSans-41"/>
     </g>
    </g>
   </g>
   <g id="line2d_15">
    <path clip-path="url(#pc86a2a60af)" d="M 139.962933 352.174167 
L 144.391674 352.174167 
L 144.532908 64.8726 
L 144.6749 352.174167 
L 144.957246 300.611294 
L 145.24116 266.236046 
L 145.389022 271.146795 
L 145.529202 207.307048 
L 145.669444 217.128548 
L 145.80949 74.716804 
L 145.951754 50.163056 
L 146.091931 57.52918 
L 146.232066 55.073805 
L 146.3722 57.52918 
L 146.653012 57.52918 
L 146.794426 50.163056 
L 146.935107 51.340468 
L 147.075379 55.073805 
L 147.215974 52.61843 
L 147.357187 55.073805 
L 147.497238 55.073805 
L 147.637889 52.61843 
L 147.778325 59.984555 
L 147.919226 59.984555 
L 148.059809 55.073805 
L 148.199987 55.073805 
L 148.340368 57.208068 
L 148.480824 50.163056 
L 148.62119 57.52918 
L 148.761658 57.52918 
L 148.90197 55.073805 
L 149.042572 59.099063 
L 149.184649 52.61843 
L 149.325573 52.61843 
L 149.607469 64.8726 
L 149.747832 55.073805 
L 149.888278 57.52918 
L 150.028903 50.163056 
L 150.169435 55.073805 
L 150.310508 52.61843 
L 150.450925 57.52918 
L 150.591768 50.163056 
L 150.732683 52.61843 
L 150.873171 59.984555 
L 151.01355 52.61843 
L 151.153641 55.073805 
L 151.294539 55.073805 
L 151.435109 52.61843 
L 151.577124 57.52918 
L 151.719571 55.073805 
L 151.860918 55.073805 
L 152.001654 57.52918 
L 152.142395 50.163056 
L 152.425708 55.073805 
L 152.566477 82.082929 
L 152.707111 50.163056 
L 152.987714 55.073805 
L 153.128164 77.172179 
L 153.268975 52.61843 
L 153.40976 101.725928 
L 153.550572 54.953794 
L 153.690695 57.315105 
L 153.831559 50.163056 
L 153.972153 55.073805 
L 154.112809 52.61843 
L 154.253354 57.52918 
L 154.393861 52.61843 
L 154.53733 55.073805 
L 154.678186 50.163056 
L 154.821256 55.073805 
L 154.961268 50.163056 
L 155.102993 57.52918 
L 155.243564 52.61843 
L 155.384147 55.073805 
L 155.525235 55.073805 
L 155.665647 64.8726 
L 155.806315 52.61843 
L 155.948179 57.52918 
L 156.228672 57.52918 
L 156.369947 52.61843 
L 156.511303 55.073805 
L 156.651855 50.163056 
L 156.934318 55.073805 
L 157.075118 55.073805 
L 157.220964 52.61843 
L 157.50532 52.61843 
L 157.787909 217.128548 
L 157.930078 77.172179 
L 158.070778 50.163056 
L 158.211239 52.61843 
L 158.352001 50.163056 
L 158.492341 62.43993 
L 158.634355 59.984555 
L 158.776117 59.984555 
L 158.917079 77.172179 
L 159.05744 74.716804 
L 159.198296 64.8726 
L 159.339238 77.172179 
L 159.47975 55.073805 
L 159.621982 62.43993 
L 159.761935 57.52918 
L 159.905344 57.52918 
L 160.187861 52.61843 
L 160.328776 52.61843 
L 160.46943 57.52918 
L 160.611933 52.61843 
L 160.753184 57.52918 
L 161.034258 57.52918 
L 161.175163 59.984555 
L 161.317666 50.163056 
L 161.459496 50.163056 
L 161.601662 57.52918 
L 161.742284 57.52918 
L 161.884304 55.073805 
L 162.026065 57.52918 
L 162.166184 52.61843 
L 162.307607 57.52918 
L 162.450113 50.163056 
L 162.590971 50.163056 
L 162.731843 57.52918 
L 162.873661 55.073805 
L 163.014668 55.073805 
L 163.297353 59.984555 
L 163.437859 57.52918 
L 163.579634 52.61843 
L 163.719913 57.52918 
L 163.861609 52.61843 
L 164.002884 52.61843 
L 164.143224 50.163056 
L 164.42409 55.073805 
L 164.707657 50.163056 
L 164.848682 57.52918 
L 165.132413 52.61843 
L 165.274673 59.984555 
L 165.557666 59.984555 
L 165.698453 52.61843 
L 165.838925 52.61843 
L 165.979444 50.163056 
L 166.119904 55.073805 
L 166.260291 52.61843 
L 166.400391 62.43993 
L 166.54105 57.245369 
L 166.684097 62.43993 
L 166.827036 62.43993 
L 166.969255 52.61843 
L 167.391704 52.61843 
L 167.533468 50.163056 
L 167.674388 59.984555 
L 167.955992 55.073805 
L 168.09648 59.984555 
L 168.37766 50.163056 
L 168.517862 55.073805 
L 168.658008 55.073805 
L 168.798887 62.43993 
L 168.939002 55.073805 
L 169.079246 67.35068 
L 169.362624 50.163056 
L 169.503313 52.61843 
L 169.643839 57.52918 
L 169.925997 52.61843 
L 170.067488 55.073805 
L 170.209058 55.073805 
L 170.349411 52.61843 
L 170.489721 62.43993 
L 170.630952 55.073805 
L 170.771362 62.43993 
L 170.911585 62.43993 
L 171.051755 52.61843 
L 171.191872 121.368927 
L 171.331859 352.174167 
L 171.474503 352.174167 
L 171.755167 222.039298 
L 171.896595 52.61843 
L 172.176987 52.61843 
L 172.318005 55.073805 
L 172.458981 86.993679 
L 172.599913 55.073805 
L 172.74113 55.073805 
L 172.884121 64.8726 
L 173.025046 52.61843 
L 173.166096 67.35068 
L 173.309338 55.073805 
L 173.45244 62.43993 
L 173.595367 55.073805 
L 173.738217 57.52918 
L 173.881035 52.61843 
L 174.024096 55.073805 
L 174.167171 62.43993 
L 174.4492 50.163056 
L 174.5906 67.35068 
L 174.731839 55.073805 
L 174.872881 57.52918 
L 175.013821 57.52918 
L 175.154771 55.073805 
L 175.297853 57.52918 
L 175.438892 52.61843 
L 175.720032 57.52918 
L 175.861929 55.073805 
L 176.003798 50.163056 
L 176.144865 64.8726 
L 176.285824 50.163056 
L 176.426854 67.35068 
L 176.710089 52.61843 
L 176.85107 59.984555 
L 177.134751 55.073805 
L 177.276573 57.52918 
L 177.559024 52.61843 
L 177.700012 59.984555 
L 177.840999 59.984555 
L 177.981949 64.8726 
L 178.122875 57.52918 
L 178.263864 57.52918 
L 178.404411 55.073805 
L 178.549232 64.8726 
L 178.689729 50.163056 
L 178.830876 59.984555 
L 178.972419 57.52918 
L 179.113677 57.52918 
L 179.254862 59.984555 
L 179.536083 52.61843 
L 179.677093 57.52918 
L 179.81813 57.52918 
L 179.961628 86.993679 
L 180.103167 91.904429 
L 180.24425 50.163056 
L 180.526491 55.073805 
L 180.668373 52.61843 
L 180.809715 64.8726 
L 180.950861 50.163056 
L 181.233717 57.52918 
L 181.37442 52.61843 
L 181.515944 72.26143 
L 181.798156 57.52918 
L 181.939568 62.43993 
L 182.080945 55.073805 
L 182.363707 59.984555 
L 182.505087 52.61843 
L 182.646926 55.073805 
L 182.788584 77.172179 
L 182.92995 55.073805 
L 183.070968 52.61843 
L 183.212242 52.61843 
L 183.353366 50.163056 
L 183.494556 52.61843 
L 183.635573 52.61843 
L 183.777095 99.270553 
L 183.919737 57.52918 
L 184.208744 57.52918 
L 184.350129 62.43993 
L 184.491846 62.43993 
L 184.632904 99.270553 
L 184.775732 352.174167 
L 184.91906 352.174167 
L 185.061323 57.52918 
L 185.207078 352.174167 
L 185.356399 352.174167 
L 185.639654 52.61843 
L 185.780341 55.073805 
L 185.920722 55.073805 
L 186.061491 50.163056 
L 186.342676 50.163056 
L 186.487634 57.52918 
L 186.628954 82.082929 
L 186.774224 84.538304 
L 186.915694 50.163056 
L 187.056114 91.904429 
L 187.196273 82.082929 
L 187.476879 50.163056 
L 187.617289 52.61843 
L 187.757941 59.984555 
L 187.89992 55.073805 
L 188.040453 59.984555 
L 188.46093 52.61843 
L 188.601372 64.8726 
L 188.882628 52.61843 
L 189.022895 52.61843 
L 189.163972 57.52918 
L 189.585742 57.52918 
L 189.726888 72.26143 
L 189.867276 52.61843 
L 190.008077 109.092053 
L 190.148553 62.43993 
L 190.288796 57.52918 
L 190.429429 57.52918 
L 190.57033 82.082929 
L 190.712246 143.467301 
L 190.853689 55.073805 
L 190.994338 50.163056 
L 191.134794 57.52918 
L 191.275215 109.092053 
L 191.415947 72.26143 
L 191.556695 96.815178 
L 191.697887 55.073805 
L 191.838479 57.52918 
L 191.979524 55.073805 
L 192.26039 55.073805 
L 192.400769 67.35068 
L 192.541078 55.073805 
L 192.681113 52.61843 
L 192.821384 55.073805 
L 192.961917 55.073805 
L 193.244056 74.716804 
L 193.384527 50.163056 
L 193.665741 50.163056 
L 193.806477 74.716804 
L 194.087882 62.43993 
L 194.228859 79.627554 
L 194.369339 59.984555 
L 194.509889 69.806055 
L 194.65164 94.359804 
L 194.791898 55.073805 
L 194.931897 62.43993 
L 195.072008 62.43993 
L 195.212085 57.52918 
L 195.352158 116.458178 
L 195.492341 50.163056 
L 195.632477 67.35068 
L 195.913396 150.833426 
L 196.194662 59.984555 
L 196.335386 50.163056 
L 196.475912 55.073805 
L 196.616522 55.073805 
L 196.757238 59.984555 
L 196.897312 52.61843 
L 197.179023 52.61843 
L 197.320315 50.163056 
L 197.461362 57.52918 
L 197.602013 52.61843 
L 197.742616 62.43993 
L 198.023779 50.163056 
L 198.164631 84.538304 
L 198.306963 62.43993 
L 198.593481 349.718792 
L 198.736354 111.547428 
L 199.025496 352.174167 
L 199.168611 352.174167 
L 199.31567 50.163056 
L 199.456409 55.073805 
L 199.597004 52.61843 
L 199.737132 52.61843 
L 199.877851 59.984555 
L 200.022706 52.61843 
L 200.164545 64.8726 
L 200.305212 62.43993 
L 200.445598 50.163056 
L 200.585896 55.073805 
L 200.726013 55.073805 
L 200.866692 69.806055 
L 201.006922 72.26143 
L 201.289132 52.61843 
L 201.429535 59.984555 
L 201.709832 55.073805 
L 201.849997 59.984555 
L 201.992385 111.547428 
L 202.134173 62.43993 
L 202.27447 55.073805 
L 202.414721 57.52918 
L 202.558758 50.163056 
L 202.699535 59.984555 
L 202.840043 52.61843 
L 202.980175 57.52918 
L 203.120246 57.52918 
L 203.261233 50.163056 
L 203.402289 131.190427 
L 203.682945 50.163056 
L 203.823633 52.61843 
L 204.105348 67.35068 
L 204.245733 55.073805 
L 204.385904 52.61843 
L 204.525988 59.984555 
L 204.667028 55.073805 
L 204.807138 55.073805 
L 204.947329 52.61843 
L 205.087809 59.984555 
L 205.228849 59.984555 
L 205.373602 84.538304 
L 205.513886 52.61843 
L 205.653884 55.073805 
L 205.793712 55.073805 
L 205.933486 57.52918 
L 206.07397 52.61843 
L 206.214018 55.073805 
L 206.353795 52.61843 
L 206.493828 59.984555 
L 206.775653 52.61843 
L 206.916754 52.61843 
L 207.057832 57.52918 
L 207.198876 52.61843 
L 207.340282 52.61843 
L 207.623525 57.52918 
L 207.764983 57.52918 
L 207.90579 62.43993 
L 208.045719 55.073805 
L 208.185757 74.716804 
L 208.325681 136.101177 
L 208.465465 52.61843 
L 208.605256 55.073805 
L 208.746264 55.073805 
L 208.886292 52.61843 
L 209.16627 59.984555 
L 209.306626 55.073805 
L 209.446912 57.52918 
L 209.727118 72.26143 
L 210.007107 55.073805 
L 210.147355 59.984555 
L 210.28802 52.61843 
L 210.431077 55.073805 
L 210.571728 67.35068 
L 210.711875 89.449054 
L 210.992606 55.073805 
L 211.272621 55.073805 
L 211.41319 59.984555 
L 211.5533 50.163056 
L 211.693295 52.61843 
L 211.833332 50.163056 
L 211.973885 57.52918 
L 212.114187 55.073805 
L 212.254442 69.806055 
L 212.402557 352.174167 
L 212.697956 352.174167 
L 212.846066 307.977419 
L 212.993907 50.163056 
L 213.275216 55.073805 
L 213.416386 55.073805 
L 213.557828 57.52918 
L 213.699859 55.073805 
L 213.844991 64.8726 
L 214.130351 55.073805 
L 214.410525 59.984555 
L 214.552052 59.984555 
L 214.832652 52.61843 
L 214.972658 50.163056 
L 215.112618 99.270553 
L 215.252717 69.806055 
L 215.394741 114.002803 
L 215.543533 57.52918 
L 215.684757 52.61843 
L 215.825056 62.43993 
L 215.966834 59.984555 
L 216.107797 50.163056 
L 216.389538 55.073805 
L 216.530039 50.163056 
L 216.67306 52.61843 
L 216.817603 106.636678 
L 216.961985 67.35068 
L 217.105386 84.538304 
L 217.249345 52.61843 
L 217.675038 52.61843 
L 217.81536 59.984555 
L 217.955393 55.073805 
L 218.236258 64.8726 
L 218.37719 62.43993 
L 218.517346 62.43993 
L 218.659116 59.984555 
L 218.799815 55.073805 
L 218.940487 59.984555 
L 219.08107 55.073805 
L 219.221733 55.073805 
L 219.362079 52.61843 
L 219.502638 52.61843 
L 219.643129 57.52918 
L 219.785069 57.52918 
L 219.928617 59.984555 
L 220.069935 67.35068 
L 220.210366 55.073805 
L 220.350895 72.26143 
L 220.63202 50.163056 
L 220.772458 52.61843 
L 221.053692 52.61843 
L 221.194082 55.073805 
L 221.616828 55.073805 
L 221.757164 59.984555 
L 221.897437 55.073805 
L 222.037881 55.073805 
L 222.178605 67.35068 
L 222.318949 55.073805 
L 222.459346 59.984555 
L 222.600282 50.163056 
L 222.740836 55.073805 
L 222.88226 52.61843 
L 223.023813 62.43993 
L 223.165135 50.163056 
L 223.306183 55.073805 
L 223.448121 52.61843 
L 223.589166 55.073805 
L 223.730786 55.073805 
L 223.873834 57.52918 
L 224.015544 50.163056 
L 224.157147 57.52918 
L 224.29843 50.163056 
L 224.439982 57.52918 
L 224.580977 55.073805 
L 224.722754 57.52918 
L 224.864187 52.61843 
L 225.005383 55.073805 
L 225.147181 55.073805 
L 225.288143 50.163056 
L 225.430651 55.073805 
L 225.571865 52.61843 
L 225.713108 55.073805 
L 225.853899 52.61843 
L 225.994557 74.716804 
L 226.138006 352.174167 
L 226.427104 352.174167 
L 226.571271 298.155919 
L 226.711729 57.52918 
L 226.852205 50.163056 
L 226.992912 50.163056 
L 227.133187 67.35068 
L 227.273659 52.61843 
L 227.414172 55.073805 
L 227.836071 55.073805 
L 228.121633 62.43993 
L 228.261801 62.43993 
L 228.401854 57.52918 
L 228.542492 57.52918 
L 228.683264 59.984555 
L 228.964365 55.073805 
L 229.105036 57.52918 
L 229.247574 50.163056 
L 229.388618 55.073805 
L 229.529392 50.163056 
L 229.670135 59.984555 
L 229.810833 59.984555 
L 229.953683 52.61843 
L 230.235189 52.61843 
L 230.37589 62.43993 
L 230.518798 50.163056 
L 230.660461 52.61843 
L 230.801597 57.52918 
L 230.942356 57.52918 
L 231.083088 50.163056 
L 231.223666 57.52918 
L 231.364366 55.073805 
L 231.505587 62.43993 
L 231.646309 57.52918 
L 231.787301 59.984555 
L 231.928974 55.073805 
L 232.069595 55.073805 
L 232.210548 59.984555 
L 232.350751 57.52918 
L 232.4908 50.163056 
L 232.63132 57.52918 
L 232.77198 50.163056 
L 232.912953 62.43993 
L 233.053307 59.984555 
L 233.194018 55.073805 
L 233.334854 55.073805 
L 233.475624 94.359804 
L 233.757457 57.52918 
L 233.898985 79.627554 
L 234.179231 52.61843 
L 234.321346 52.61843 
L 234.463358 72.26143 
L 234.605785 111.547428 
L 234.748139 57.52918 
L 234.889485 55.073805 
L 235.029763 57.52918 
L 235.171059 55.073805 
L 235.311917 74.716804 
L 235.452623 55.073805 
L 235.593318 57.52918 
L 235.735703 55.073805 
L 235.87772 67.35068 
L 236.020206 64.8726 
L 236.162807 89.449054 
L 236.303286 89.449054 
L 236.588504 52.61843 
L 236.869566 86.993679 
L 237.010137 74.716804 
L 237.292615 131.190427 
L 237.434802 55.073805 
L 237.57612 52.61843 
L 237.716349 59.984555 
L 237.858042 57.52918 
L 237.999617 57.52918 
L 238.140319 55.073805 
L 238.706978 55.073805 
L 238.852679 59.984555 
L 238.996619 59.984555 
L 239.140383 57.52918 
L 239.282281 59.984555 
L 239.427535 52.61843 
L 239.57285 94.359804 
L 239.859939 352.174167 
L 240.155135 352.174167 
L 240.442176 62.43993 
L 240.722883 50.163056 
L 240.863481 52.61843 
L 241.004719 89.449054 
L 241.144739 59.984555 
L 241.287194 55.073805 
L 241.429927 69.806055 
L 241.571929 101.725928 
L 241.852908 62.43993 
L 241.993355 67.35068 
L 242.134446 59.984555 
L 242.415229 64.8726 
L 242.69759 52.61843 
L 242.838644 91.904429 
L 242.97949 62.43993 
L 243.122351 62.43993 
L 243.264354 59.984555 
L 243.545982 59.984555 
L 243.687517 50.163056 
L 243.829387 57.52918 
L 243.97156 74.716804 
L 244.115621 74.716804 
L 244.397912 50.163056 
L 244.538472 114.002803 
L 244.681033 57.52918 
L 244.823369 116.458178 
L 244.964217 50.163056 
L 245.246673 57.52918 
L 245.387709 72.26143 
L 245.527961 57.52918 
L 245.808291 57.52918 
L 245.948757 50.163056 
L 246.088882 69.806055 
L 246.229748 57.52918 
L 246.509675 57.52918 
L 246.65081 59.984555 
L 246.791624 59.984555 
L 246.931866 52.61843 
L 247.071998 52.61843 
L 247.211951 57.52918 
L 247.352008 74.716804 
L 247.492406 55.073805 
L 247.633045 57.52918 
L 247.774419 69.806055 
L 247.915875 57.52918 
L 248.056142 55.073805 
L 248.19635 50.163056 
L 248.336344 50.163056 
L 248.617832 59.984555 
L 248.757842 57.52918 
L 248.897943 62.43993 
L 249.037973 123.824302 
L 249.178045 59.984555 
L 249.319462 59.984555 
L 249.460611 57.52918 
L 249.600787 52.61843 
L 249.881058 52.61843 
L 250.161134 57.52918 
L 250.301125 52.61843 
L 250.441083 57.52918 
L 250.582054 52.61843 
L 250.723409 52.61843 
L 250.863547 50.163056 
L 251.003534 77.172179 
L 251.14408 52.61843 
L 251.284655 52.61843 
L 251.425117 55.073805 
L 251.565486 55.073805 
L 251.705332 77.172179 
L 251.845245 64.8726 
L 251.98612 89.449054 
L 252.127665 55.073805 
L 252.267795 50.163056 
L 252.407796 55.073805 
L 252.547685 52.61843 
L 252.687757 55.073805 
L 252.828132 55.073805 
L 252.971545 57.52918 
L 253.11217 57.52918 
L 253.253601 55.073805 
L 253.393819 155.744176 
L 253.534642 352.174167 
L 253.817444 352.174167 
L 253.961955 50.163056 
L 254.102357 52.61843 
L 254.243278 50.163056 
L 254.524111 55.073805 
L 254.806543 50.163056 
L 254.947216 52.61843 
L 255.087954 50.163056 
L 255.228621 52.61843 
L 255.369588 52.61843 
L 255.510627 57.52918 
L 255.651417 55.073805 
L 255.79244 94.359804 
L 255.938327 55.073805 
L 256.086894 55.073805 
L 256.229284 62.43993 
L 256.379005 77.172179 
L 256.5203 55.073805 
L 256.661823 55.073805 
L 256.803651 57.52918 
L 256.944873 50.163056 
L 257.086221 55.073805 
L 257.227314 52.61843 
L 257.368178 59.984555 
L 257.651107 50.163056 
L 257.792521 52.61843 
L 257.933486 67.35068 
L 258.0752 62.43993 
L 258.216698 52.61843 
L 258.357404 55.073805 
L 258.497759 52.61843 
L 258.638906 55.073805 
L 258.779042 52.61843 
L 258.920719 55.073805 
L 259.061711 52.61843 
L 259.20277 62.43993 
L 259.489288 52.61843 
L 259.631237 55.073805 
L 259.781505 52.61843 
L 259.922776 59.984555 
L 260.063601 57.52918 
L 260.205616 52.61843 
L 260.355379 52.61843 
L 260.654845 74.716804 
L 260.803845 131.190427 
L 260.945061 59.984555 
L 261.22625 52.61843 
L 261.366966 50.163056 
L 261.50749 59.984555 
L 261.64878 55.073805 
L 261.789875 55.073805 
L 262.072908 59.984555 
L 262.355607 55.073805 
L 262.497204 57.52918 
L 262.638332 77.172179 
L 262.78504 67.35068 
L 262.925954 101.725928 
L 263.067342 94.359804 
L 263.209745 55.073805 
L 263.492731 50.163056 
L 263.633853 72.26143 
L 263.916138 59.984555 
L 264.058032 52.61843 
L 264.199475 59.984555 
L 264.340702 55.073805 
L 264.481437 77.172179 
L 264.622487 59.984555 
L 264.90495 55.073805 
L 265.045726 62.43993 
L 265.186446 59.984555 
L 265.327592 52.61843 
L 265.469109 59.984555 
L 265.61054 59.984555 
L 265.752312 55.073805 
L 265.893739 57.52918 
L 266.035039 52.61843 
L 266.176492 52.61843 
L 266.318002 55.073805 
L 266.459403 52.61843 
L 266.741621 62.43993 
L 266.883448 55.073805 
L 267.023999 55.073805 
L 267.165763 352.174167 
L 267.603358 352.174167 
L 267.753867 50.163056 
L 267.895362 57.52918 
L 268.035779 52.61843 
L 268.176955 52.61843 
L 268.318012 64.8726 
L 268.459371 91.904429 
L 268.600308 55.073805 
L 268.741252 67.35068 
L 268.882771 57.52918 
L 269.023769 59.984555 
L 269.165022 52.61843 
L 269.448975 64.8726 
L 269.590417 57.52918 
L 269.731945 62.43993 
L 269.873275 57.52918 
L 270.014329 94.359804 
L 270.155668 52.61843 
L 270.296961 52.61843 
L 270.438568 55.073805 
L 270.579325 55.073805 
L 270.719563 62.43993 
L 270.860718 57.52918 
L 271.001706 64.8726 
L 271.14268 55.073805 
L 271.28366 59.984555 
L 271.565575 50.163056 
L 271.706634 67.35068 
L 271.847633 55.073805 
L 271.988456 52.61843 
L 272.128705 55.073805 
L 272.269844 52.61843 
L 272.556433 59.984555 
L 272.698853 52.61843 
L 272.839379 52.61843 
L 272.98109 57.52918 
L 273.123389 55.073805 
L 273.265082 123.824302 
L 273.40671 50.163056 
L 273.548392 62.43993 
L 273.690781 57.52918 
L 273.831678 57.52918 
L 273.972268 52.61843 
L 274.117376 84.538304 
L 274.258249 50.163056 
L 274.398997 67.35068 
L 274.539373 57.52918 
L 274.680332 109.092053 
L 274.820967 52.61843 
L 274.963094 74.716804 
L 275.104143 145.922676 
L 275.247321 52.61843 
L 275.39088 55.073805 
L 275.533038 59.984555 
L 275.674183 94.359804 
L 275.81575 94.359804 
L 275.958375 57.52918 
L 276.100858 55.073805 
L 276.243222 59.984555 
L 276.384655 79.627554 
L 276.527675 59.984555 
L 276.669051 111.547428 
L 276.810709 62.43993 
L 276.950996 52.61843 
L 277.097685 55.073805 
L 277.668262 55.073805 
L 277.809101 62.43993 
L 277.950315 138.556551 
L 278.090766 57.52918 
L 278.23239 50.163056 
L 278.374917 55.073805 
L 278.517592 77.172179 
L 278.658311 52.61843 
L 279.082437 52.61843 
L 279.22394 57.52918 
L 279.505609 57.52918 
L 279.646416 55.073805 
L 279.78656 50.163056 
L 279.929551 57.52918 
L 280.070226 57.52918 
L 280.212379 118.913552 
L 280.35266 57.52918 
L 280.49392 57.52918 
L 280.777542 50.163056 
L 280.921392 62.43993 
L 281.063438 352.174167 
L 281.207895 352.174167 
L 281.357001 315.343543 
L 281.50361 55.073805 
L 281.784078 55.073805 
L 281.924289 52.61843 
L 282.064426 52.61843 
L 282.205117 50.163056 
L 282.348012 59.984555 
L 282.488339 55.073805 
L 282.630098 86.993679 
L 282.770669 55.073805 
L 282.911414 101.725928 
L 283.191834 50.163056 
L 283.3323 59.984555 
L 283.473242 50.163056 
L 283.614894 64.8726 
L 283.758114 55.073805 
L 283.899417 55.073805 
L 284.040847 57.52918 
L 284.181353 62.43993 
L 284.322434 55.073805 
L 284.605304 55.073805 
L 284.746366 50.163056 
L 284.888298 50.163056 
L 285.029216 52.61843 
L 285.171176 52.61843 
L 285.313243 57.52918 
L 285.453402 52.61843 
L 285.595078 64.8726 
L 285.736262 57.52918 
L 285.877424 62.43993 
L 286.018836 50.163056 
L 286.160556 50.163056 
L 286.302193 57.52918 
L 286.444323 57.52918 
L 286.58607 59.984555 
L 286.727723 52.61843 
L 286.869166 55.073805 
L 287.010547 67.35068 
L 287.152031 153.288801 
L 287.294019 59.984555 
L 287.576342 55.073805 
L 287.717703 62.43993 
L 287.859062 55.073805 
L 288.428661 55.073805 
L 288.569874 52.61843 
L 288.711299 57.52918 
L 288.993634 52.61843 
L 289.13531 55.073805 
L 289.276543 50.163056 
L 289.558044 59.984555 
L 289.840546 50.163056 
L 289.982058 72.26143 
L 290.122771 50.163056 
L 290.26697 72.26143 
L 290.407439 50.163056 
L 290.547598 84.538304 
L 290.688227 57.52918 
L 290.828912 67.35068 
L 290.969389 52.61843 
L 291.110146 99.270553 
L 291.251458 55.073805 
L 291.39171 59.984555 
L 291.814067 52.61843 
L 291.954871 64.8726 
L 292.094886 57.52918 
L 292.235159 69.806055 
L 292.375266 52.61843 
L 292.515315 64.8726 
L 292.655429 55.073805 
L 292.795486 67.35068 
L 292.935511 50.163056 
L 293.07555 55.073805 
L 293.216257 50.163056 
L 293.35723 50.163056 
L 293.498605 52.61843 
L 293.64003 52.61843 
L 293.781343 62.43993 
L 294.063982 50.163056 
L 294.343877 59.984555 
L 294.483832 59.984555 
L 294.624845 55.073805 
L 294.764896 352.174167 
L 294.912048 352.174167 
L 295.054473 317.798918 
L 295.196792 64.8726 
L 295.33919 57.52918 
L 295.481578 82.082929 
L 295.621647 50.163056 
L 295.762372 57.52918 
L 295.904009 55.073805 
L 296.184313 55.073805 
L 296.324252 64.8726 
L 296.464195 52.61843 
L 296.604122 57.52918 
L 296.744015 55.073805 
L 297.16667 55.073805 
L 297.30704 57.52918 
L 297.447432 55.073805 
L 297.587469 55.073805 
L 297.727376 52.61843 
L 297.867392 52.61843 
L 298.007691 50.163056 
L 298.147819 57.52918 
L 298.287869 52.61843 
L 298.427886 55.073805 
L 298.851632 55.073805 
L 299.133059 67.35068 
L 299.554287 50.163056 
L 299.694181 52.61843 
L 299.834112 57.52918 
L 299.974727 50.163056 
L 300.114847 59.984555 
L 300.255075 55.073805 
L 300.395242 55.073805 
L 300.535272 59.984555 
L 300.675388 52.61843 
L 300.815386 52.61843 
L 300.955516 55.073805 
L 301.095641 59.984555 
L 301.377105 52.61843 
L 301.79983 52.61843 
L 301.941271 57.52918 
L 302.082498 50.163056 
L 302.223856 55.073805 
L 302.365402 50.163056 
L 302.506768 55.073805 
L 302.647647 55.073805 
L 302.789311 50.163056 
L 302.931125 52.61843 
L 303.072769 57.52918 
L 303.214374 55.073805 
L 303.497834 55.073805 
L 303.638853 52.61843 
L 303.779985 52.61843 
L 303.92158 50.163056 
L 304.210267 59.984555 
L 304.351256 50.163056 
L 304.493041 50.163056 
L 304.638145 62.43993 
L 304.924429 50.163056 
L 305.066522 62.43993 
L 305.207943 52.61843 
L 305.353203 57.52918 
L 305.497773 52.61843 
L 305.644538 57.52918 
L 305.7859 55.073805 
L 306.068267 64.8726 
L 306.208705 55.073805 
L 306.490416 67.35068 
L 306.63107 57.52918 
L 306.771568 59.984555 
L 306.912841 79.627554 
L 307.195365 55.073805 
L 307.336794 57.52918 
L 307.476992 55.073805 
L 307.758547 59.984555 
L 307.899148 74.716804 
L 308.041201 55.073805 
L 308.18238 106.636678 
L 308.323631 52.61843 
L 308.46546 352.174167 
L 308.612346 352.174167 
L 308.895941 59.984555 
L 309.037162 59.984555 
L 309.177873 64.8726 
L 309.322091 96.815178 
L 309.617832 55.073805 
L 309.766267 52.61843 
L 310.047399 52.61843 
L 310.188033 59.984555 
L 310.330823 52.61843 
L 310.471571 57.52918 
L 310.613225 52.61843 
L 310.75441 77.172179 
L 310.895113 55.073805 
L 311.036926 55.073805 
L 311.177791 52.61843 
L 311.321161 57.52918 
L 311.464674 57.52918 
L 311.745821 50.163056 
L 311.887857 52.61843 
L 312.029942 52.61843 
L 312.173234 72.26143 
L 312.313553 52.61843 
L 312.594022 52.61843 
L 312.874461 57.52918 
L 313.015101 50.163056 
L 313.156261 59.984555 
L 313.300287 57.52918 
L 313.581863 50.163056 
L 313.721926 59.984555 
L 314.001832 50.163056 
L 314.141774 59.984555 
L 314.422761 50.163056 
L 314.56352 55.073805 
L 314.704123 55.073805 
L 314.984385 74.716804 
L 315.124302 74.716804 
L 315.404313 52.61843 
L 315.545573 55.073805 
L 315.827153 55.073805 
L 316.109219 59.984555 
L 316.251314 55.073805 
L 316.533205 55.073805 
L 316.674107 59.984555 
L 316.956511 50.163056 
L 317.097901 50.163056 
L 317.239258 82.082929 
L 317.379598 50.163056 
L 317.521173 52.61843 
L 317.664923 64.8726 
L 317.805859 50.163056 
L 318.08771 59.984555 
L 318.229634 57.52918 
L 318.370819 57.52918 
L 318.511189 62.43993 
L 318.65503 52.61843 
L 318.796513 52.61843 
L 318.937513 57.52918 
L 319.078633 52.61843 
L 319.219698 55.073805 
L 319.360631 62.43993 
L 319.501596 77.172179 
L 319.642821 55.073805 
L 319.783891 59.984555 
L 319.924387 69.806055 
L 320.067116 52.61843 
L 320.208066 57.52918 
L 320.349513 57.52918 
L 320.490333 55.073805 
L 320.631042 55.073805 
L 320.772988 52.61843 
L 320.917133 52.61843 
L 321.200585 57.52918 
L 321.342824 55.073805 
L 321.483353 57.52918 
L 321.625885 50.163056 
L 321.766105 55.073805 
L 322.199169 352.174167 
L 322.347149 352.174167 
L 322.48834 99.270553 
L 322.630047 62.43993 
L 322.771906 55.073805 
L 322.912308 57.52918 
L 323.052985 62.43993 
L 323.19367 57.52918 
L 323.334131 57.52918 
L 323.474993 50.163056 
L 323.616651 55.073805 
L 323.757088 52.61843 
L 323.898963 55.073805 
L 324.043146 55.073805 
L 324.183654 57.52918 
L 324.325329 52.61843 
L 324.466452 62.43993 
L 324.748792 55.073805 
L 325.457439 55.073805 
L 325.599163 52.61843 
L 325.740356 59.984555 
L 326.021197 55.073805 
L 326.161848 62.43993 
L 326.302865 55.073805 
L 326.443943 62.43993 
L 326.72693 57.52918 
L 326.868341 64.8726 
L 327.14958 55.073805 
L 327.290228 62.43993 
L 327.430873 52.61843 
L 327.711837 52.61843 
L 327.995559 62.43993 
L 328.278437 52.61843 
L 328.41886 55.073805 
L 328.559443 77.172179 
L 328.700138 62.43993 
L 328.840704 62.43993 
L 328.981393 55.073805 
L 329.122411 57.52918 
L 329.26358 52.61843 
L 329.405315 57.52918 
L 329.546695 57.52918 
L 329.68814 55.073805 
L 329.82967 57.52918 
L 330.112041 52.61843 
L 330.253602 57.52918 
L 330.394559 57.52918 
L 330.53561 52.61843 
L 330.678203 52.61843 
L 330.819276 57.52918 
L 330.961087 55.073805 
L 331.243559 55.073805 
L 331.384929 64.8726 
L 331.526185 50.163056 
L 331.952874 57.52918 
L 332.094839 141.011926 
L 332.238468 52.61843 
L 332.38024 50.163056 
L 332.521391 55.073805 
L 332.80381 50.163056 
L 333.227267 57.52918 
L 333.368701 55.073805 
L 333.510475 69.806055 
L 333.651927 52.61843 
L 333.79348 79.627554 
L 334.218781 57.52918 
L 334.360274 57.52918 
L 334.500616 55.073805 
L 334.644359 57.52918 
L 334.786051 55.073805 
L 334.927286 55.073805 
L 335.068559 59.984555 
L 335.209801 52.61843 
L 335.351025 109.092053 
L 335.492113 96.815178 
L 335.633196 50.163056 
L 335.777069 352.174167 
L 336.074224 352.174167 
L 336.219821 99.270553 
L 336.363144 62.43993 
L 336.50456 62.43993 
L 336.645514 57.52918 
L 336.787017 57.52918 
L 336.92849 59.984555 
L 337.069918 59.984555 
L 337.211845 57.52918 
L 337.35306 52.61843 
L 337.494269 57.52918 
L 337.635868 50.163056 
L 337.77661 57.52918 
L 337.916874 72.26143 
L 338.057744 62.43993 
L 338.198114 106.636678 
L 338.33865 52.61843 
L 338.479329 50.163056 
L 338.620228 50.163056 
L 338.76121 57.52918 
L 338.901807 55.073805 
L 339.042222 57.52918 
L 339.182705 55.073805 
L 339.323251 62.43993 
L 339.604056 52.61843 
L 339.744576 52.61843 
L 339.885151 55.073805 
L 340.02624 52.61843 
L 340.167104 57.52918 
L 340.44892 50.163056 
L 340.589481 57.52918 
L 340.870262 57.52918 
L 341.010732 52.61843 
L 341.151083 57.52918 
L 341.29535 52.61843 
L 341.4363 52.61843 
L 341.580054 50.163056 
L 341.720515 52.61843 
L 342.00154 62.43993 
L 342.283494 62.43993 
L 342.565483 50.163056 
L 342.847253 62.43993 
L 342.987376 50.163056 
L 343.127437 57.52918 
L 343.267491 55.073805 
L 343.547546 55.073805 
L 343.688061 57.52918 
L 343.829082 57.52918 
L 343.96985 55.073805 
L 344.110874 55.073805 
L 344.252732 50.163056 
L 344.534338 50.163056 
L 344.675794 52.61843 
L 344.816143 52.61843 
L 345.098477 64.8726 
L 345.521895 50.163056 
L 345.66263 50.163056 
L 345.803334 57.52918 
L 346.083986 52.61843 
L 346.224495 62.43993 
L 346.508713 50.163056 
L 346.649766 52.61843 
L 346.790359 52.61843 
L 346.931345 59.984555 
L 347.072074 55.073805 
L 347.212429 59.984555 
L 347.352948 57.52918 
L 347.493058 50.163056 
L 347.633598 52.61843 
L 347.773746 62.43993 
L 347.914907 55.073805 
L 348.057067 57.52918 
L 348.198825 52.61843 
L 348.340561 59.984555 
L 348.481019 57.52918 
L 348.621372 91.904429 
L 348.902128 52.61843 
L 349.183121 52.61843 
L 349.327142 57.52918 
L 349.470133 352.174167 
L 349.764351 352.174167 
L 350.059845 55.073805 
L 350.20764 57.52918 
L 350.349457 52.61843 
L 350.775456 64.8726 
L 350.916944 62.43993 
L 351.057273 55.073805 
L 351.197894 57.52918 
L 351.338073 52.61843 
L 351.478585 55.073805 
L 351.620195 59.984555 
L 351.762167 50.163056 
L 351.904531 55.073805 
L 352.045376 52.61843 
L 352.186791 57.52918 
L 352.328317 91.904429 
L 352.612635 50.163056 
L 352.753302 50.163056 
L 352.893423 52.550316 
L 353.033722 50.163056 
L 353.175068 57.52918 
L 353.316467 52.61843 
L 353.457519 57.52918 
L 353.600478 67.35068 
L 353.742189 59.984555 
L 353.884169 59.984555 
L 354.027707 55.073805 
L 354.170791 62.43993 
L 354.311707 50.163056 
L 354.598168 50.163056 
L 354.738327 52.61843 
L 354.878536 59.984555 
L 355.019642 59.984555 
L 355.16067 55.073805 
L 355.301602 57.52918 
L 355.442537 57.52918 
L 355.583583 50.163056 
L 355.724674 50.163056 
L 355.865739 59.984555 
L 356.009266 50.163056 
L 356.150123 52.61843 
L 356.291012 59.984555 
L 356.572477 52.61843 
L 356.713082 57.52918 
L 356.853441 89.449054 
L 356.994221 55.073805 
L 357.134842 52.61843 
L 357.277215 62.371815 
L 357.41806 57.52918 
L 357.558937 94.359804 
L 357.841034 50.163056 
L 357.982465 62.43993 
L 358.125873 59.984555 
L 358.267187 55.073805 
L 358.40811 72.26143 
L 358.549555 72.26143 
L 358.69153 84.538304 
L 358.834979 52.61843 
L 358.975734 143.467301 
L 359.115993 55.073805 
L 359.256805 59.984555 
L 359.39747 57.52918 
L 359.537853 57.52918 
L 359.67832 64.8726 
L 359.819094 52.61843 
L 359.962927 59.984555 
L 360.105562 52.61843 
L 360.248111 52.61843 
L 360.533764 57.52918 
L 360.676468 62.43993 
L 360.819312 52.61843 
L 360.959987 55.073805 
L 361.100501 52.61843 
L 361.242318 64.8726 
L 361.383111 128.735052 
L 361.524049 59.984555 
L 361.664505 52.61843 
L 361.804999 67.35068 
L 362.085985 50.163056 
L 362.226639 86.993679 
L 362.367274 91.904429 
L 362.508194 59.984555 
L 362.649023 62.43993 
L 362.931493 52.61843 
L 363.072149 55.073805 
L 363.213422 352.174167 
L 363.361344 352.174167 
L 363.502885 344.808042 
L 363.647129 52.61843 
L 363.933576 101.725928 
L 364.074162 62.43993 
L 364.215235 62.43993 
L 364.356413 59.984555 
L 364.497444 84.538304 
L 364.638397 50.163056 
L 364.779361 52.61843 
L 364.920303 52.61843 
L 365.06214 64.8726 
L 365.203257 57.52918 
L 365.344061 62.43993 
L 365.485308 50.163056 
L 365.626538 50.163056 
L 365.767568 55.073805 
L 365.908503 55.073805 
L 366.049398 50.163056 
L 366.331349 62.43993 
L 366.472275 52.61843 
L 366.614017 52.61843 
L 366.757153 96.815178 
L 366.900137 84.538304 
L 367.043258 55.073805 
L 367.328903 59.984555 
L 367.47199 50.163056 
L 367.754698 64.8726 
L 367.896038 62.43993 
L 368.036918 55.073805 
L 368.178629 57.52918 
L 368.46167 57.52918 
L 368.744476 62.43993 
L 369.02652 55.073805 
L 369.311801 55.073805 
L 369.453997 52.61843 
L 369.594129 55.073805 
L 369.736765 64.8726 
L 370.020483 52.61843 
L 370.161923 62.43993 
L 370.443237 50.163056 
L 370.586411 57.52918 
L 370.726772 52.61843 
L 370.867592 57.52918 
L 371.008648 50.163056 
L 371.14932 55.073805 
L 371.289852 52.61843 
L 371.430212 52.61843 
L 371.570822 59.984555 
L 371.852187 55.073805 
L 371.992975 55.073805 
L 372.133064 52.61843 
L 372.273801 55.073805 
L 372.415048 50.163056 
L 372.558037 57.52918 
L 372.70037 52.61843 
L 372.84379 55.073805 
L 372.984678 62.43993 
L 373.125088 59.984555 
L 373.270024 59.984555 
L 373.410777 143.467301 
L 373.692089 86.993679 
L 373.833132 82.082929 
L 373.973362 55.073805 
L 374.113916 57.52918 
L 374.254074 52.61843 
L 374.394797 55.073805 
L 374.535823 52.61843 
L 374.677026 55.073805 
L 374.82043 67.35068 
L 374.963891 57.52918 
L 375.105753 59.984555 
L 375.248285 52.61843 
L 375.388625 57.52918 
L 375.529113 52.61843 
L 375.810207 69.806055 
L 375.951122 55.073805 
L 376.092085 57.52918 
L 376.373145 69.806055 
L 376.513632 50.163056 
L 376.654977 62.43993 
L 376.796593 89.449054 
L 376.940242 352.174167 
L 377.23209 352.174167 
L 377.37363 325.165043 
L 377.51395 57.52918 
L 377.654608 52.61843 
L 377.795035 57.52918 
L 377.935857 55.073805 
L 378.076344 79.627554 
L 378.21716 57.52918 
L 378.358041 57.52918 
L 378.499739 55.073805 
L 378.64371 79.627554 
L 378.784685 57.52918 
L 378.925654 55.073805 
L 379.070641 59.984555 
L 379.211594 72.26143 
L 379.352994 52.61843 
L 379.494348 62.43993 
L 379.635029 55.073805 
L 379.775899 57.52918 
L 380.060405 77.172179 
L 380.200832 55.073805 
L 380.341909 62.43993 
L 380.482466 52.61843 
L 380.623067 52.61843 
L 380.764557 50.163056 
L 381.046487 57.52918 
L 381.188377 52.61843 
L 381.472677 57.52918 
L 381.613292 52.61843 
L 381.754558 96.815178 
L 381.895004 84.538304 
L 382.035534 57.52918 
L 382.175669 59.984555 
L 382.462507 55.073805 
L 382.606948 50.163056 
L 382.889975 77.172179 
L 383.172456 52.61843 
L 383.312721 52.61843 
L 383.455069 91.904429 
L 383.596929 55.073805 
L 383.87715 64.8726 
L 384.018641 55.073805 
L 384.158611 62.43993 
L 384.299763 62.43993 
L 384.440202 57.52918 
L 384.579953 59.984555 
L 384.721021 59.984555 
L 385.006563 50.163056 
L 385.289355 62.43993 
L 385.430363 77.172179 
L 385.571249 109.092053 
L 385.712392 50.163056 
L 385.853126 59.984555 
L 385.993897 86.993679 
L 386.134282 57.52918 
L 386.274553 52.61843 
L 386.414825 57.52918 
L 386.555164 52.61843 
L 386.69674 52.61843 
L 386.838983 55.073805 
L 386.98122 62.43993 
L 387.122428 62.43993 
L 387.263658 57.52918 
L 387.404661 59.984555 
L 387.545686 55.073805 
L 387.686525 57.52918 
L 387.827092 50.163056 
L 387.967795 59.984555 
L 388.10981 50.163056 
L 388.25156 62.43993 
L 388.392029 50.163056 
L 388.672461 59.984555 
L 388.813139 50.163056 
L 389.094421 59.984555 
L 389.235344 57.52918 
L 389.376492 59.984555 
L 389.517073 52.61843 
L 389.657813 57.52918 
L 389.938397 52.61843 
L 390.078917 62.43993 
L 390.219241 50.163056 
L 390.36024 57.52918 
L 390.788335 352.174167 
L 391.213025 52.61843 
L 391.353434 50.163056 
L 391.493723 50.163056 
L 391.634902 55.073805 
L 391.776386 67.35068 
L 391.918265 64.8726 
L 392.060627 57.52918 
L 392.20251 84.538304 
L 392.343158 57.52918 
L 392.483393 57.52918 
L 392.624226 62.43993 
L 392.765577 113.798458 
L 392.906055 57.52918 
L 393.047683 84.538304 
L 393.187949 57.52918 
L 393.329716 55.073805 
L 393.470074 55.073805 
L 393.610054 57.52918 
L 393.750038 57.52918 
L 393.889947 55.073805 
L 394.029753 55.073805 
L 394.169496 52.61843 
L 394.309604 55.073805 
L 394.449481 52.61843 
L 394.591533 52.61843 
L 394.73227 226.950047 
L 394.872345 52.61843 
L 395.012362 55.073805 
L 395.152103 52.61843 
L 395.29199 57.52918 
L 395.431864 52.61843 
L 395.571654 52.61843 
L 395.711899 57.52918 
L 395.851778 52.61843 
L 395.992926 55.073805 
L 396.132847 55.073805 
L 396.272932 57.52918 
L 396.41297 79.627554 
L 396.692733 52.61843 
L 396.832706 52.61843 
L 396.973906 55.073805 
L 397.113825 52.61843 
L 397.255683 52.61843 
L 397.398572 62.43993 
L 397.541404 55.073805 
L 397.8268 59.984555 
L 397.969541 55.073805 
L 398.112469 62.43993 
L 398.255147 62.43993 
L 398.396215 57.52918 
L 398.679065 57.52918 
L 398.820384 52.61843 
L 398.96042 59.984555 
L 399.100601 55.073805 
L 399.240452 57.52918 
L 399.38034 50.163056 
L 399.520087 57.52918 
L 399.660802 52.61843 
L 399.800943 55.073805 
L 399.941973 50.163056 
L 400.08201 55.073805 
L 400.221959 55.073805 
L 400.36224 57.52918 
L 400.502216 55.073805 
L 400.641962 55.073805 
L 400.781684 52.61843 
L 400.921578 59.984555 
L 401.061575 57.52918 
L 401.201477 52.61843 
L 401.34344 57.52918 
L 401.484005 52.61843 
L 401.62436 57.52918 
L 401.7645 79.627554 
L 401.904372 79.627554 
L 402.044342 55.073805 
L 402.184283 57.52918 
L 402.324782 52.61843 
L 402.464754 57.52918 
L 402.606135 52.61843 
L 402.746321 62.43993 
L 402.886496 50.163056 
L 403.166894 64.8726 
L 403.306859 52.61843 
L 403.44678 57.52918 
L 403.586971 52.61843 
L 403.727186 64.8726 
L 403.867251 52.61843 
L 404.007731 57.52918 
L 404.14774 96.815178 
L 404.287962 352.174167 
L 404.431237 352.174167 
L 404.573688 347.263417 
L 404.717615 253.959171 
L 404.858218 52.61843 
L 404.999205 57.52918 
L 405.140659 55.073805 
L 405.282131 55.073805 
L 405.422414 69.806055 
L 405.562397 72.26143 
L 405.702354 55.073805 
L 405.842231 62.43993 
L 405.98212 62.43993 
L 406.12196 118.913552 
L 406.261918 57.52918 
L 406.401933 89.449054 
L 406.683588 62.43993 
L 406.823785 62.43993 
L 406.963838 69.806055 
L 407.243812 59.984555 
L 407.52362 64.8726 
L 407.663612 59.984555 
L 407.803482 89.449054 
L 407.947107 62.43993 
L 408.090376 67.35068 
L 408.233928 57.52918 
L 408.377605 57.52918 
L 408.517739 62.43993 
L 408.657602 57.52918 
L 408.79738 59.984555 
L 408.937036 57.461065 
L 409.077149 50.163056 
L 409.217027 57.52918 
L 409.503332 52.61843 
L 409.648925 55.073805 
L 409.789133 59.984555 
L 409.929034 57.52918 
L 410.068917 52.61843 
L 410.20874 52.61843 
L 410.348928 62.43993 
L 410.488892 50.163056 
L 410.630048 57.52918 
L 410.77005 57.52918 
L 410.909974 50.163056 
L 411.049904 62.43993 
L 411.18972 52.61843 
L 411.329417 55.073805 
L 411.469148 50.163056 
L 411.608909 165.565675 
L 411.748964 52.61843 
L 411.888823 52.61843 
L 412.029823 55.073805 
L 412.311623 62.43993 
L 412.452034 52.61843 
L 412.592068 55.073805 
L 412.731937 59.984555 
L 412.871831 55.073805 
L 413.011784 55.073805 
L 413.151584 57.52918 
L 413.291881 52.61843 
L 413.431847 59.984555 
L 413.851897 52.61843 
L 414.131787 64.8726 
L 414.271791 55.073805 
L 414.411984 57.52918 
L 414.693747 52.61843 
L 414.974209 62.43993 
L 415.114348 50.163056 
L 415.254434 50.163056 
L 415.534168 59.984555 
L 415.674277 59.984555 
L 415.957997 52.61843 
L 416.098142 69.806055 
L 416.378284 57.52918 
L 416.518211 52.61843 
L 416.658086 59.984555 
L 416.797865 55.073805 
L 416.937724 64.8726 
L 417.07785 55.073805 
L 417.217775 59.984555 
L 417.498592 55.073805 
L 417.638534 55.073805 
L 417.77861 86.993679 
L 417.918707 352.174167 
L 418.19871 352.174167 
L 418.340728 295.710275 
L 418.48111 55.073805 
L 418.621813 52.61843 
L 418.902611 62.43993 
L 419.184132 50.163056 
L 419.324389 72.26143 
L 419.464453 57.52918 
L 419.604503 74.716804 
L 419.884977 52.61843 
L 420.025852 55.073805 
L 420.166078 55.073805 
L 420.306087 86.993679 
L 420.446412 57.52918 
L 420.866999 57.52918 
L 421.147162 50.163056 
L 421.288731 59.984555 
L 421.429218 52.61843 
L 421.569589 62.43993 
L 421.710087 59.984555 
L 421.850352 59.984555 
L 421.990563 52.61843 
L 422.271365 57.52918 
L 422.412066 64.8726 
L 422.695959 50.163056 
L 422.836979 52.61843 
L 422.977566 59.984555 
L 423.117984 55.073805 
L 423.25836 55.073805 
L 423.398955 57.52918 
L 423.539753 52.61843 
L 423.680352 57.52918 
L 423.820814 52.61843 
L 424.106107 57.52918 
L 424.247976 52.61843 
L 424.531507 57.52918 
L 424.672678 50.163056 
L 424.813978 62.43993 
L 424.954439 57.52918 
L 425.095929 69.806055 
L 425.236583 57.52918 
L 425.379184 89.449054 
L 425.519692 52.61843 
L 425.660069 57.52918 
L 425.941317 52.61843 
L 426.222059 64.8726 
L 426.362894 57.52918 
L 426.503804 57.52918 
L 426.645856 50.163056 
L 426.790932 69.806055 
L 426.931789 55.073805 
L 427.073067 57.52918 
L 427.22134 62.43993 
L 427.364893 55.073805 
L 427.505374 59.984555 
L 427.645443 59.984555 
L 427.786723 55.073805 
L 427.927954 57.52918 
L 428.072577 50.163056 
L 428.354892 57.52918 
L 428.495855 57.52918 
L 428.636901 69.806055 
L 428.777848 168.02105 
L 428.918868 59.984555 
L 429.059935 62.43993 
L 429.200902 55.073805 
L 429.346277 64.8726 
L 429.495163 62.43993 
L 429.644242 52.61843 
L 429.795126 57.52918 
L 430.097083 52.61843 
L 430.241536 57.52918 
L 430.382707 57.52918 
L 430.523704 55.073805 
L 430.664366 57.52918 
L 430.804659 62.43993 
L 430.945672 59.984555 
L 431.087192 74.716804 
L 431.36791 55.073805 
L 431.508246 126.279677 
L 431.649057 352.174167 
L 431.794877 352.174167 
L 431.94209 339.897292 
L 432.223335 50.163056 
L 432.36454 52.61843 
L 432.505736 57.52918 
L 432.646891 52.61843 
L 432.927692 52.61843 
L 433.068303 62.43993 
L 433.208577 57.52918 
L 433.354465 57.52918 
L 433.4956 59.984555 
L 433.636179 57.52918 
L 433.778042 50.163056 
L 434.059211 59.984555 
L 434.199723 57.52918 
L 434.340084 52.61843 
L 434.480602 62.43993 
L 434.623126 50.163056 
L 434.904397 62.43993 
L 435.18555 57.52918 
L 435.325984 67.35068 
L 435.466302 52.61843 
L 435.606856 50.163056 
L 435.747233 57.52918 
L 436.172602 106.636678 
L 436.313096 55.073805 
L 436.453836 52.61843 
L 436.59441 55.073805 
L 436.736294 55.073805 
L 436.876789 62.43993 
L 437.017378 52.61843 
L 437.157891 52.61843 
L 437.29857 59.984555 
L 437.439031 57.52918 
L 437.57945 52.61843 
L 437.720067 64.8726 
L 437.860536 67.35068 
L 438.000793 55.073805 
L 438.141353 59.984555 
L 438.423205 79.627554 
L 438.56439 52.61843 
L 438.705432 52.61843 
L 438.845792 55.073805 
L 438.986333 50.163056 
L 439.127008 59.984555 
L 439.267214 59.984555 
L 439.407978 50.163056 
L 439.548817 101.725928 
L 439.689832 52.61843 
L 439.830317 57.52918 
L 440.111532 52.61843 
L 440.251786 55.073805 
L 440.5332 67.35068 
L 440.673555 52.61843 
L 440.814113 62.43993 
L 440.954513 55.073805 
L 441.095122 62.43993 
L 441.235601 52.61843 
L 441.376949 55.073805 
L 441.517284 52.61843 
L 441.659062 59.984555 
L 441.800874 57.52918 
L 441.942623 59.984555 
L 442.08316 52.61843 
L 442.365776 62.43993 
L 442.506912 52.61843 
L 442.648488 52.61843 
L 442.789329 50.163056 
L 442.929407 59.984555 
L 443.069785 59.984555 
L 443.2104 57.52918 
L 443.350801 59.984555 
L 443.774047 52.61843 
L 444.05614 79.627554 
L 444.197264 50.163056 
L 444.338007 52.61843 
L 444.479131 50.163056 
L 444.619836 52.61843 
L 444.760825 52.61843 
L 445.04194 64.8726 
L 445.182505 141.011926 
L 445.332419 352.174167 
L 445.627482 352.174167 
L 445.908411 59.984555 
L 446.048743 57.52918 
L 446.188957 52.61843 
L 446.329377 62.43993 
L 446.470973 62.43993 
L 446.611808 86.993679 
L 446.754491 62.156118 
L 446.895779 82.082929 
L 447.037599 57.52918 
L 447.178572 62.43993 
L 447.319567 62.43993 
L 447.461166 59.984555 
L 447.743686 52.61843 
L 447.887632 67.35068 
L 448.029135 59.984555 
L 448.170133 62.43993 
L 448.311461 96.815178 
L 448.453171 62.43993 
L 448.594555 57.52918 
L 448.737713 69.806055 
L 449.020816 52.61843 
L 449.303707 57.52918 
L 449.445088 52.61843 
L 449.586558 79.627554 
L 449.728365 52.61843 
L 450.01402 62.43993 
L 450.155477 59.984555 
L 450.296599 59.984555 
L 450.437687 82.082929 
L 450.720148 57.52918 
L 450.861663 67.35068 
L 451.145157 57.52918 
L 451.286984 62.43993 
L 451.428252 52.61843 
L 451.569884 57.52918 
L 451.711236 55.073805 
L 451.852737 50.163056 
L 451.996182 50.163056 
L 452.137701 52.61843 
L 452.422659 62.43993 
L 452.563741 52.61843 
L 452.705052 62.43993 
L 452.8472 50.163056 
L 452.988763 59.984555 
L 453.12984 52.61843 
L 453.271398 57.52918 
L 453.412896 52.61843 
L 453.553508 52.61843 
L 453.693852 57.52918 
L 453.835712 50.163056 
L 453.977535 59.984555 
L 454.118874 55.073805 
L 454.259761 94.359804 
L 454.401582 57.52918 
L 454.542487 55.073805 
L 454.683623 59.984555 
L 454.824277 50.163056 
L 454.964975 64.8726 
L 455.108504 50.163056 
L 455.249122 52.61843 
L 455.389104 50.163056 
L 455.529336 52.61843 
L 456.092872 74.716804 
L 456.233583 62.43993 
L 456.374929 64.8726 
L 456.515489 50.163056 
L 456.655802 57.52918 
L 456.796043 50.163056 
L 456.936909 52.61843 
L 457.077678 57.52918 
L 457.219307 50.163056 
L 457.365542 50.163056 
L 457.508124 52.61843 
L 457.649519 57.52918 
L 457.7907 57.52918 
L 457.931311 62.43993 
L 458.073614 126.279677 
L 458.214687 50.163056 
L 458.356374 52.61843 
L 458.497456 57.52918 
L 458.78016 57.52918 
L 458.920707 305.522044 
L 459.068403 352.174167 
L 459.216013 352.174167 
L 459.356644 290.789794 
L 459.496905 50.163056 
L 459.637617 52.61843 
L 459.777843 57.52918 
L 460.060658 57.52918 
L 460.201089 89.449054 
L 460.341408 59.984555 
L 460.482971 86.993679 
L 460.624619 57.52918 
L 460.766984 82.082929 
L 460.910667 55.073805 
L 461.05117 96.815178 
L 461.192426 64.8726 
L 461.334616 104.181303 
L 461.476324 57.52918 
L 461.61751 59.984555 
L 461.7604 52.61843 
L 462.044388 52.61843 
L 462.328589 59.984555 
L 462.470755 59.984555 
L 462.611696 52.61843 
L 462.751659 59.984555 
L 462.8927 55.073805 
L 463.032983 55.073805 
L 463.173308 52.61843 
L 463.313879 55.073805 
L 463.456147 59.984555 
L 463.596685 55.073805 
L 463.737904 57.52918 
L 463.879315 57.52918 
L 464.020934 55.073805 
L 464.164661 59.984555 
L 464.448861 55.073805 
L 464.59216 57.52918 
L 464.737567 62.43993 
L 464.878534 59.984555 
L 465.020406 72.26143 
L 465.163427 57.52918 
L 465.305062 69.806055 
L 465.449524 52.61843 
L 465.592225 55.073805 
L 465.733321 55.073805 
L 465.875071 59.984555 
L 466.159157 50.163056 
L 466.307046 55.073805 
L 466.447873 67.35068 
L 466.73054 57.52918 
L 466.871816 57.52918 
L 467.014806 64.8726 
L 467.161139 52.61843 
L 467.302128 109.092053 
L 467.442652 57.52918 
L 467.584467 62.43993 
L 467.725672 55.073805 
L 467.867085 62.43993 
L 468.008614 52.61843 
L 468.149271 62.43993 
L 468.28977 55.073805 
L 468.430837 57.52918 
L 468.571628 50.163056 
L 468.713293 64.8726 
L 468.853701 55.073805 
L 468.994022 69.806055 
L 469.135138 57.52918 
L 469.277975 79.627554 
L 469.420192 57.52918 
L 469.560821 59.984555 
L 469.704086 57.52918 
L 469.844426 52.61843 
L 469.985088 59.984555 
L 470.126314 55.073805 
L 470.267576 59.984555 
L 470.40852 57.52918 
L 470.549083 57.52918 
L 470.690895 59.984555 
L 470.831393 57.52918 
L 470.97193 77.172179 
L 471.112555 55.073805 
L 471.254761 67.35068 
L 471.397352 55.073805 
L 471.537985 55.073805 
L 471.679552 57.52918 
L 471.820444 52.61843 
L 472.103434 52.61843 
L 472.243696 55.073805 
L 472.384238 52.61843 
L 472.525637 67.35068 
L 472.666648 352.174167 
L 472.95931 352.174167 
L 473.100575 253.959171 
L 473.241525 59.984555 
L 473.522124 50.163056 
L 473.663797 52.61843 
L 473.805144 57.52918 
L 473.946405 50.163056 
L 474.087372 52.61843 
L 474.228952 77.172179 
L 474.373411 55.073805 
L 474.516386 55.073805 
L 474.806399 59.984555 
L 474.94739 52.61843 
L 475.088387 57.52918 
L 475.229739 57.52918 
L 475.371467 59.984555 
L 475.512343 59.984555 
L 475.794215 52.61843 
L 476.080268 62.43993 
L 476.22057 57.52918 
L 476.361632 57.52918 
L 476.502744 52.61843 
L 476.643662 55.073805 
L 476.925602 62.43993 
L 477.070804 52.61843 
L 477.212496 64.8726 
L 477.353841 55.073805 
L 477.496802 55.073805 
L 477.638386 59.984555 
L 477.781984 59.984555 
L 477.923105 69.806055 
L 478.205044 50.163056 
L 478.486421 55.073805 
L 478.627382 52.61843 
L 478.768559 52.61843 
L 478.909723 64.8726 
L 479.191944 55.073805 
L 479.332931 55.073805 
L 479.473901 52.61843 
L 479.614821 55.073805 
L 479.756024 64.8726 
L 479.896946 52.61843 
L 480.17933 62.43993 
L 480.320338 59.984555 
L 480.461712 52.61843 
L 480.60269 55.073805 
L 480.743659 79.627554 
L 480.884608 79.627554 
L 481.025504 74.716804 
L 481.306331 62.43993 
L 481.447419 62.43993 
L 481.588403 52.61843 
L 481.870427 57.52918 
L 482.011368 57.52918 
L 482.293564 52.61843 
L 482.438161 57.52918 
L 482.578475 52.61843 
L 482.720385 52.61843 
L 482.861404 50.163056 
L 483.002382 52.61843 
L 483.147702 50.163056 
L 483.290501 50.163056 
L 483.431661 52.61843 
L 483.572567 64.8726 
L 483.854694 52.61843 
L 483.997082 106.636678 
L 484.137705 114.002803 
L 484.278148 55.073805 
L 484.418387 57.52918 
L 484.559486 67.35068 
L 484.69998 55.073805 
L 484.841112 59.984555 
L 485.123808 52.61843 
L 485.265406 55.073805 
L 485.406743 59.984555 
L 485.546971 50.163056 
L 485.688021 55.073805 
L 485.829143 67.35068 
L 485.970073 59.984555 
L 486.110986 72.26143 
L 486.253583 123.824302 
L 486.397793 352.174167 
L 486.543802 352.174167 
L 486.692707 327.620418 
L 486.835723 52.61843 
L 486.97839 50.163056 
L 487.119462 59.984555 
L 487.260382 52.61843 
L 487.401221 57.52918 
L 487.542041 82.082929 
L 487.682912 52.61843 
L 487.824075 55.073805 
L 487.969146 59.984555 
L 488.109304 57.52918 
L 488.249527 52.61843 
L 488.539367 94.359804 
L 488.680505 57.52918 
L 488.963377 62.43993 
L 489.247601 57.52918 
L 489.388446 62.43993 
L 489.529636 62.43993 
L 489.670558 59.984555 
L 489.811665 64.8726 
L 489.953517 62.43993 
L 490.23536 74.716804 
L 490.376873 55.073805 
L 490.517648 52.61843 
L 490.65884 82.082929 
L 490.799653 52.61843 
L 490.940215 62.43993 
L 491.081196 55.073805 
L 491.222402 104.181303 
L 491.363398 50.163056 
L 491.504424 59.984555 
L 491.645517 50.163056 
L 491.785992 59.984555 
L 491.926926 59.984555 
L 492.068798 55.073805 
L 492.209858 57.52918 
L 492.350888 50.163056 
L 492.492018 52.61843 
L 492.633008 59.984555 
L 492.77395 55.073805 
L 492.914907 62.43993 
L 493.055877 55.073805 
L 493.337927 55.073805 
L 493.621472 59.984555 
L 493.764298 52.61843 
L 493.905261 55.073805 
L 494.046322 72.26143 
L 494.187558 52.61843 
L 494.32908 55.073805 
L 494.470419 50.163056 
L 494.612552 62.43993 
L 494.753 52.61843 
L 494.894235 69.806055 
L 495.035649 57.52918 
L 495.177248 69.806055 
L 495.31921 57.52918 
L 495.46076 62.43993 
L 495.743188 50.163056 
L 495.884307 62.43993 
L 496.026165 52.61843 
L 496.168618 55.073805 
L 496.311031 67.35068 
L 496.452218 52.61843 
L 496.734087 62.43993 
L 496.875045 62.43993 
L 497.0166 55.073805 
L 497.300052 62.43993 
L 497.440748 62.43993 
L 497.581728 55.073805 
L 497.723322 55.073805 
L 497.864987 57.52918 
L 498.006441 55.073805 
L 498.147913 55.073805 
L 498.289113 57.52918 
L 498.574044 57.52918 
L 498.714967 52.61843 
L 498.856156 55.073805 
L 498.997286 50.163056 
L 499.279444 59.984555 
L 499.420646 59.984555 
L 499.561793 52.61843 
L 499.702727 59.984555 
L 499.84396 52.61843 
L 499.989329 352.174167 
L 500.283724 352.174167 
L 500.714709 50.163056 
L 500.857126 55.073805 
L 500.998477 55.073805 
L 501.141009 59.984555 
L 501.422007 50.163056 
L 501.56366 59.984555 
L 501.705115 55.073805 
L 501.846607 57.52918 
L 501.989829 52.61843 
L 502.130945 55.073805 
L 502.272047 55.073805 
L 502.413803 52.61843 
L 502.696012 59.984555 
L 502.837813 52.61843 
L 502.979318 57.52918 
L 503.120566 52.61843 
L 503.261878 55.073805 
L 503.40311 50.163056 
L 503.544228 52.61843 
L 503.827415 59.984555 
L 503.968531 55.073805 
L 504.110181 59.984555 
L 504.251728 52.61843 
L 504.534358 59.984555 
L 504.676265 55.073805 
L 504.817771 74.716804 
L 504.958656 59.984555 
L 505.101075 59.984555 
L 505.241914 55.073805 
L 505.383302 55.073805 
L 505.524293 62.43993 
L 505.664374 57.52918 
L 505.805122 57.52918 
L 505.946302 59.984555 
L 506.089052 55.073805 
L 506.229579 59.984555 
L 506.36967 55.073805 
L 506.512548 59.984555 
L 506.654636 52.61843 
L 506.796137 59.984555 
L 506.936665 55.073805 
L 507.077154 55.073805 
L 507.21786 59.984555 
L 507.358758 52.61843 
L 507.49937 52.61843 
L 507.640598 55.073805 
L 507.78159 72.26143 
L 507.922688 62.43993 
L 508.064263 62.43993 
L 508.205677 52.61843 
L 508.347772 72.26143 
L 508.630376 52.61843 
L 508.771419 52.61843 
L 508.913408 59.984555 
L 509.0547 59.984555 
L 509.196646 67.35068 
L 509.339175 52.61843 
L 509.48046 57.52918 
L 509.622877 57.52918 
L 509.764808 50.163056 
L 510.047536 55.073805 
L 510.187929 50.163056 
L 510.330062 52.61843 
L 510.613894 52.61843 
L 510.756171 59.984555 
L 510.897789 52.61843 
L 511.179478 52.61843 
L 511.321197 57.52918 
L 511.46145 50.163056 
L 511.603606 50.163056 
L 511.744677 57.52918 
L 511.889902 57.52918 
L 512.032977 79.627554 
L 512.174669 52.61843 
L 512.31581 50.163056 
L 512.597956 55.073805 
L 512.739395 52.61843 
L 513.021799 57.52918 
L 513.162701 55.073805 
L 513.303639 72.26143 
L 513.44373 59.984555 
L 513.584762 57.52918 
L 513.725591 352.174167 
L 513.867407 352.174167 
L 514.012426 342.352667 
L 514.162721 52.61843 
L 514.303648 55.073805 
L 514.444645 50.163056 
L 514.58689 57.52918 
L 514.869036 52.61843 
L 515.00992 59.984555 
L 515.151199 57.52918 
L 515.573869 69.806055 
L 515.714758 52.61843 
L 515.855797 55.073805 
L 516.137655 67.35068 
L 516.277826 50.163056 
L 516.41806 57.52918 
L 516.700345 52.61843 
L 516.841333 52.61843 
L 516.982302 55.073805 
L 517.123145 59.984555 
L 517.264391 57.52918 
L 517.406467 50.163056 
L 517.547784 57.52918 
L 517.689034 52.61843 
L 517.830332 57.52918 
L 517.971759 57.52918 
L 518.112956 52.61843 
L 518.254181 52.61843 
L 518.538332 57.52918 
L 518.820917 52.61843 
L 518.963515 55.073805 
L 519.104856 62.43993 
L 519.246183 55.073805 
L 519.387377 57.52918 
L 519.528664 55.073805 
L 519.669855 57.52918 
L 519.810758 55.073805 
L 519.953127 69.806055 
L 520.09466 55.073805 
L 520.377214 55.073805 
L 520.518831 57.52918 
L 520.802065 52.61843 
L 520.9435 52.61843 
L 521.084793 55.073805 
L 521.226802 64.8726 
L 521.509357 52.61843 
L 521.649723 50.163056 
L 521.649723 50.163056 
" style="fill:none;stroke:#1f77b4;stroke-linecap:square;stroke-width:1.5;"/>
   </g>
   <g id="patch_3">
    <path d="M 120.878594 352.174167 
L 120.878594 35.0625 
" style="fill:none;stroke:#000000;stroke-linecap:square;stroke-linejoin:miter;stroke-width:0.8;"/>
   </g>
   <g id="patch_4">
    <path d="M 540.734062 352.174167 
L 540.734062 35.0625 
" style="fill:none;stroke:#000000;stroke-linecap:square;stroke-linejoin:miter;stroke-width:0.8;"/>
   </g>
   <g id="patch_5">
    <path d="M 120.878594 352.174167 
L 540.734062 352.174167 
" style="fill:none;stroke:#000000;stroke-linecap:square;stroke-linejoin:miter;stroke-width:0.8;"/>
   </g>
   <g id="patch_6">
    <path d="M 120.878594 35.0625 
L 540.734062 35.0625 
" style="fill:none;stroke:#000000;stroke-linecap:square;stroke-linejoin:miter;stroke-width:0.8;"/>
   </g>
   <g id="legend_1">
    <g id="patch_7">
     <path d="M 563.726836 63.938438 
L 627.601836 63.938438 
Q 629.601836 63.938438 629.601836 61.938438 
L 629.601836 37.0625 
Q 629.601836 35.0625 627.601836 35.0625 
L 563.726836 35.0625 
Q 561.726836 35.0625 561.726836 37.0625 
L 561.726836 61.938438 
Q 561.726836 63.938438 563.726836 63.938438 
z
" style="fill:#ffffff;opacity:0.8;stroke:#cccccc;stroke-linejoin:miter;"/>
    </g>
    <g id="line2d_16">
     <path d="M 565.726836 49.799688 
L 585.726836 49.799688 
" style="fill:none;stroke:#1f77b4;stroke-linecap:square;stroke-width:1.5;"/>
    </g>
    <g id="line2d_17"/>
    <g id="text_16">
     <!-- queue -->
     <g transform="translate(593.726836 46.660937)scale(0.1 -0.1)">
      <use xlink:href="#DejaVuSans-113"/>
      <use x="63.476562" xlink:href="#DejaVuSans-117"/>
      <use x="126.855469" xlink:href="#DejaVuSans-101"/>
      <use x="188.378906" xlink:href="#DejaVuSans-117"/>
      <use x="251.757812" xlink:href="#DejaVuSans-101"/>
     </g>
     <!-- length -->
     <defs>
      <path d="M 9.421875 75.984375 
L 18.40625 75.984375 
L 18.40625 0 
L 9.421875 0 
z
" id="DejaVuSans-108"/>
      <path d="M 54.890625 33.015625 
L 54.890625 0 
L 45.90625 0 
L 45.90625 32.71875 
Q 45.90625 40.484375 42.875 44.328125 
Q 39.84375 48.1875 33.796875 48.1875 
Q 26.515625 48.1875 22.3125 43.546875 
Q 18.109375 38.921875 18.109375 30.90625 
L 18.109375 0 
L 9.078125 0 
L 9.078125 54.6875 
L 18.109375 54.6875 
L 18.109375 46.1875 
Q 21.34375 51.125 25.703125 53.5625 
Q 30.078125 56 35.796875 56 
Q 45.21875 56 50.046875 50.171875 
Q 54.890625 44.34375 54.890625 33.015625 
z
" id="DejaVuSans-110"/>
      <path d="M 45.40625 27.984375 
Q 45.40625 37.75 41.375 43.109375 
Q 37.359375 48.484375 30.078125 48.484375 
Q 22.859375 48.484375 18.828125 43.109375 
Q 14.796875 37.75 14.796875 27.984375 
Q 14.796875 18.265625 18.828125 12.890625 
Q 22.859375 7.515625 30.078125 7.515625 
Q 37.359375 7.515625 41.375 12.890625 
Q 45.40625 18.265625 45.40625 27.984375 
z
M 54.390625 6.78125 
Q 54.390625 -7.171875 48.1875 -13.984375 
Q 42 -20.796875 29.203125 -20.796875 
Q 24.46875 -20.796875 20.265625 -20.09375 
Q 16.0625 -19.390625 12.109375 -17.921875 
L 12.109375 -9.1875 
Q 16.0625 -11.328125 19.921875 -12.34375 
Q 23.78125 -13.375 27.78125 -13.375 
Q 36.625 -13.375 41.015625 -8.765625 
Q 45.40625 -4.15625 45.40625 5.171875 
L 45.40625 9.625 
Q 42.625 4.78125 38.28125 2.390625 
Q 33.9375 0 27.875 0 
Q 17.828125 0 11.671875 7.65625 
Q 5.515625 15.328125 5.515625 27.984375 
Q 5.515625 40.671875 11.671875 48.328125 
Q 17.828125 56 27.875 56 
Q 33.9375 56 38.28125 53.609375 
Q 42.625 51.21875 45.40625 46.390625 
L 45.40625 54.6875 
L 54.390625 54.6875 
z
" id="DejaVuSans-103"/>
      <path d="M 54.890625 33.015625 
L 54.890625 0 
L 45.90625 0 
L 45.90625 32.71875 
Q 45.90625 40.484375 42.875 44.328125 
Q 39.84375 48.1875 33.796875 48.1875 
Q 26.515625 48.1875 22.3125 43.546875 
Q 18.109375 38.921875 18.109375 30.90625 
L 18.109375 0 
L 9.078125 0 
L 9.078125 75.984375 
L 18.109375 75.984375 
L 18.109375 46.1875 
Q 21.34375 51.125 25.703125 53.5625 
Q 30.078125 56 35.796875 56 
Q 45.21875 56 50.046875 50.171875 
Q 54.890625 44.34375 54.890625 33.015625 
z
" id="DejaVuSans-104"/>
     </defs>
     <g transform="translate(593.726836 57.85875)scale(0.1 -0.1)">
      <use xlink:href="#DejaVuSans-108"/>
      <use x="27.783203" xlink:href="#DejaVuSans-101"/>
      <use x="89.306641" xlink:href="#DejaVuSans-110"/>
      <use x="152.685547" xlink:href="#DejaVuSans-103"/>
      <use x="216.162109" xlink:href="#DejaVuSans-116"/>
      <use x="255.371094" xlink:href="#DejaVuSans-104"/>
     </g>
    </g>
   </g>
  </g>
  <g id="text_17">
   <!-- result queue (bytes) -->
   <defs>
    <path d="M 41.109375 46.296875 
Q 39.59375 47.171875 37.8125 47.578125 
Q 36.03125 48 33.890625 48 
Q 26.265625 48 22.1875 43.046875 
Q 18.109375 38.09375 18.109375 28.8125 
L 18.109375 0 
L 9.078125 0 
L 9.078125 54.6875 
L 18.109375 54.6875 
L 18.109375 46.1875 
Q 20.953125 51.171875 25.484375 53.578125 
Q 30.03125 56 36.53125 56 
Q 37.453125 56 38.578125 55.875 
Q 39.703125 55.765625 41.0625 55.515625 
z
" id="DejaVuSans-114"/>
    <path id="DejaVuSans-32"/>
   </defs>
   <g transform="translate(281.072812 17.038125)scale(0.12 -0.12)">
    <use xlink:href="#DejaVuSans-114"/>
    <use x="41.082031" xlink:href="#DejaVuSans-101"/>
    <use x="102.605469" xlink:href="#DejaVuSans-115"/>
    <use x="154.705078" xlink:href="#DejaVuSans-117"/>
    <use x="218.083984" xlink:href="#DejaVuSans-108"/>
    <use x="245.867188" xlink:href="#DejaVuSans-116"/>
    <use x="285.076172" xlink:href="#DejaVuSans-32"/>
    <use x="316.863281" xlink:href="#DejaVuSans-113"/>
    <use x="380.339844" xlink:href="#DejaVuSans-117"/>
    <use x="443.71875" xlink:href="#DejaVuSans-101"/>
    <use x="505.242188" xlink:href="#DejaVuSans-117"/>
    <use x="568.621094" xlink:href="#DejaVuSans-101"/>
    <use x="630.144531" xlink:href="#DejaVuSans-32"/>
    <use x="661.931641" xlink:href="#DejaVuSans-40"/>
    <use x="700.945312" xlink:href="#DejaVuSans-98"/>
    <use x="764.421875" xlink:href="#DejaVuSans-121"/>
    <use x="823.601562" xlink:href="#DejaVuSans-116"/>
    <use x="862.810547" xlink:href="#DejaVuSans-101"/>
    <use x="924.333984" xlink:href="#DejaVuSans-115"/>
    <use x="976.433594" xlink:href="#DejaVuSans-41"/>
   </g>
  </g>
 </g>
 <defs>
  <clipPath id="pc86a2a60af">
   <rect height="317.111667" width="419.855469" x="120.878594" y="35.0625"/>
  </clipPath>
 </defs>
</svg>
