<?xml version="1.0" encoding="utf-8" standalone="no"?>
<!DOCTYPE svg PUBLIC "-//W3C//DTD SVG 1.1//EN"
  "http://www.w3.org/Graphics/SVG/1.1/DTD/svg11.dtd">
<!-- Created with matplotlib (https://matplotlib.org/) -->
<svg height="396pt" version="1.1" viewBox="0 0 684 396" width="684pt" xmlns="http://www.w3.org/2000/svg" xmlns:xlink="http://www.w3.org/1999/xlink">
 <defs>
  <style type="text/css">
*{stroke-linecap:butt;stroke-linejoin:round;}
  </style>
 </defs>
 <g id="figure_1">
  <g id="patch_1">
   <path d="M 0 396 
L 684 396 
L 684 0 
L 0 0 
z
" style="fill:#ffffff;"/>
  </g>
  <g id="axes_1">
   <g id="patch_2">
    <path d="M 130.230156 352.174167 
L 529.912969 352.174167 
L 529.912969 35.0625 
L 130.230156 35.0625 
z
" style="fill:#ffffff;"/>
   </g>
   <g id="matplotlib.axis_1">
    <g id="xtick_1">
     <g id="line2d_1">
      <defs>
       <path d="M 0 0 
L 0 3.5 
" id="m40cb9e1ced" style="stroke:#000000;stroke-width:0.8;"/>
      </defs>
      <g>
       <use style="stroke:#000000;stroke-width:0.8;" x="148.397557" xlink:href="#m40cb9e1ced" y="352.174167"/>
      </g>
     </g>
     <g id="text_1">
      <!-- 0 -->
      <defs>
       <path d="M 31.78125 66.40625 
Q 24.171875 66.40625 20.328125 58.90625 
Q 16.5 51.421875 16.5 36.375 
Q 16.5 21.390625 20.328125 13.890625 
Q 24.171875 6.390625 31.78125 6.390625 
Q 39.453125 6.390625 43.28125 13.890625 
Q 47.125 21.390625 47.125 36.375 
Q 47.125 51.421875 43.28125 58.90625 
Q 39.453125 66.40625 31.78125 66.40625 
z
M 31.78125 74.21875 
Q 44.046875 74.21875 50.515625 64.515625 
Q 56.984375 54.828125 56.984375 36.375 
Q 56.984375 17.96875 50.515625 8.265625 
Q 44.046875 -1.421875 31.78125 -1.421875 
Q 19.53125 -1.421875 13.0625 8.265625 
Q 6.59375 17.96875 6.59375 36.375 
Q 6.59375 54.828125 13.0625 64.515625 
Q 19.53125 74.21875 31.78125 74.21875 
z
" id="DejaVuSans-48"/>
      </defs>
      <g transform="translate(145.216307 366.772604)scale(0.1 -0.1)">
       <use xlink:href="#DejaVuSans-48"/>
      </g>
     </g>
    </g>
    <g id="xtick_2">
     <g id="line2d_2">
      <g>
       <use style="stroke:#000000;stroke-width:0.8;" x="214.336626" xlink:href="#m40cb9e1ced" y="352.174167"/>
      </g>
     </g>
     <g id="text_2">
      <!-- 50 -->
      <defs>
       <path d="M 10.796875 72.90625 
L 49.515625 72.90625 
L 49.515625 64.59375 
L 19.828125 64.59375 
L 19.828125 46.734375 
Q 21.96875 47.46875 24.109375 47.828125 
Q 26.265625 48.1875 28.421875 48.1875 
Q 40.625 48.1875 47.75 41.5 
Q 54.890625 34.8125 54.890625 23.390625 
Q 54.890625 11.625 47.5625 5.09375 
Q 40.234375 -1.421875 26.90625 -1.421875 
Q 22.3125 -1.421875 17.546875 -0.640625 
Q 12.796875 0.140625 7.71875 1.703125 
L 7.71875 11.625 
Q 12.109375 9.234375 16.796875 8.0625 
Q 21.484375 6.890625 26.703125 6.890625 
Q 35.15625 6.890625 40.078125 11.328125 
Q 45.015625 15.765625 45.015625 23.390625 
Q 45.015625 31 40.078125 35.4375 
Q 35.15625 39.890625 26.703125 39.890625 
Q 22.75 39.890625 18.8125 39.015625 
Q 14.890625 38.140625 10.796875 36.28125 
z
" id="DejaVuSans-53"/>
      </defs>
      <g transform="translate(207.974126 366.772604)scale(0.1 -0.1)">
       <use xlink:href="#DejaVuSans-53"/>
       <use x="63.623047" xlink:href="#DejaVuSans-48"/>
      </g>
     </g>
    </g>
    <g id="xtick_3">
     <g id="line2d_3">
      <g>
       <use style="stroke:#000000;stroke-width:0.8;" x="280.275696" xlink:href="#m40cb9e1ced" y="352.174167"/>
      </g>
     </g>
     <g id="text_3">
      <!-- 100 -->
      <defs>
       <path d="M 12.40625 8.296875 
L 28.515625 8.296875 
L 28.515625 63.921875 
L 10.984375 60.40625 
L 10.984375 69.390625 
L 28.421875 72.90625 
L 38.28125 72.90625 
L 38.28125 8.296875 
L 54.390625 8.296875 
L 54.390625 0 
L 12.40625 0 
z
" id="DejaVuSans-49"/>
      </defs>
      <g transform="translate(270.731946 366.772604)scale(0.1 -0.1)">
       <use xlink:href="#DejaVuSans-49"/>
       <use x="63.623047" xlink:href="#DejaVuSans-48"/>
       <use x="127.246094" xlink:href="#DejaVuSans-48"/>
      </g>
     </g>
    </g>
    <g id="xtick_4">
     <g id="line2d_4">
      <g>
       <use style="stroke:#000000;stroke-width:0.8;" x="346.214766" xlink:href="#m40cb9e1ced" y="352.174167"/>
      </g>
     </g>
     <g id="text_4">
      <!-- 150 -->
      <g transform="translate(336.671016 366.772604)scale(0.1 -0.1)">
       <use xlink:href="#DejaVuSans-49"/>
       <use x="63.623047" xlink:href="#DejaVuSans-53"/>
       <use x="127.246094" xlink:href="#DejaVuSans-48"/>
      </g>
     </g>
    </g>
    <g id="xtick_5">
     <g id="line2d_5">
      <g>
       <use style="stroke:#000000;stroke-width:0.8;" x="412.153835" xlink:href="#m40cb9e1ced" y="352.174167"/>
      </g>
     </g>
     <g id="text_5">
      <!-- 200 -->
      <defs>
       <path d="M 19.1875 8.296875 
L 53.609375 8.296875 
L 53.609375 0 
L 7.328125 0 
L 7.328125 8.296875 
Q 12.9375 14.109375 22.625 23.890625 
Q 32.328125 33.6875 34.8125 36.53125 
Q 39.546875 41.84375 41.421875 45.53125 
Q 43.3125 49.21875 43.3125 52.78125 
Q 43.3125 58.59375 39.234375 62.25 
Q 35.15625 65.921875 28.609375 65.921875 
Q 23.96875 65.921875 18.8125 64.3125 
Q 13.671875 62.703125 7.8125 59.421875 
L 7.8125 69.390625 
Q 13.765625 71.78125 18.9375 73 
Q 24.125 74.21875 28.421875 74.21875 
Q 39.75 74.21875 46.484375 68.546875 
Q 53.21875 62.890625 53.21875 53.421875 
Q 53.21875 48.921875 51.53125 44.890625 
Q 49.859375 40.875 45.40625 35.40625 
Q 44.1875 33.984375 37.640625 27.21875 
Q 31.109375 20.453125 19.1875 8.296875 
z
" id="DejaVuSans-50"/>
      </defs>
      <g transform="translate(402.610085 366.772604)scale(0.1 -0.1)">
       <use xlink:href="#DejaVuSans-50"/>
       <use x="63.623047" xlink:href="#DejaVuSans-48"/>
       <use x="127.246094" xlink:href="#DejaVuSans-48"/>
      </g>
     </g>
    </g>
    <g id="xtick_6">
     <g id="line2d_6">
      <g>
       <use style="stroke:#000000;stroke-width:0.8;" x="478.092905" xlink:href="#m40cb9e1ced" y="352.174167"/>
      </g>
     </g>
     <g id="text_6">
      <!-- 250 -->
      <g transform="translate(468.549155 366.772604)scale(0.1 -0.1)">
       <use xlink:href="#DejaVuSans-50"/>
       <use x="63.623047" xlink:href="#DejaVuSans-53"/>
       <use x="127.246094" xlink:href="#DejaVuSans-48"/>
      </g>
     </g>
    </g>
   </g>
   <g id="matplotlib.axis_2">
    <g id="ytick_1">
     <g id="line2d_7">
      <defs>
       <path d="M 0 0 
L -3.5 0 
" id="m72867172b6" style="stroke:#000000;stroke-width:0.8;"/>
      </defs>
      <g>
       <use style="stroke:#000000;stroke-width:0.8;" x="130.230156" xlink:href="#m72867172b6" y="352.174167"/>
      </g>
     </g>
     <g id="text_7">
      <!-- 0 -->
      <g transform="translate(116.867656 355.973385)scale(0.1 -0.1)">
       <use xlink:href="#DejaVuSans-48"/>
      </g>
     </g>
    </g>
    <g id="ytick_2">
     <g id="line2d_8">
      <g>
       <use style="stroke:#000000;stroke-width:0.8;" x="130.230156" xlink:href="#m72867172b6" y="299.900681"/>
      </g>
     </g>
     <g id="text_8">
      <!-- 200000 -->
      <g transform="translate(85.055156 303.699899)scale(0.1 -0.1)">
       <use xlink:href="#DejaVuSans-50"/>
       <use x="63.623047" xlink:href="#DejaVuSans-48"/>
       <use x="127.246094" xlink:href="#DejaVuSans-48"/>
       <use x="190.869141" xlink:href="#DejaVuSans-48"/>
       <use x="254.492188" xlink:href="#DejaVuSans-48"/>
       <use x="318.115234" xlink:href="#DejaVuSans-48"/>
      </g>
     </g>
    </g>
    <g id="ytick_3">
     <g id="line2d_9">
      <g>
       <use style="stroke:#000000;stroke-width:0.8;" x="130.230156" xlink:href="#m72867172b6" y="247.627195"/>
      </g>
     </g>
     <g id="text_9">
      <!-- 400000 -->
      <defs>
       <path d="M 37.796875 64.3125 
L 12.890625 25.390625 
L 37.796875 25.390625 
z
M 35.203125 72.90625 
L 47.609375 72.90625 
L 47.609375 25.390625 
L 58.015625 25.390625 
L 58.015625 17.1875 
L 47.609375 17.1875 
L 47.609375 0 
L 37.796875 0 
L 37.796875 17.1875 
L 4.890625 17.1875 
L 4.890625 26.703125 
z
" id="DejaVuSans-52"/>
      </defs>
      <g transform="translate(85.055156 251.426413)scale(0.1 -0.1)">
       <use xlink:href="#DejaVuSans-52"/>
       <use x="63.623047" xlink:href="#DejaVuSans-48"/>
       <use x="127.246094" xlink:href="#DejaVuSans-48"/>
       <use x="190.869141" xlink:href="#DejaVuSans-48"/>
       <use x="254.492188" xlink:href="#DejaVuSans-48"/>
       <use x="318.115234" xlink:href="#DejaVuSans-48"/>
      </g>
     </g>
    </g>
    <g id="ytick_4">
     <g id="line2d_10">
      <g>
       <use style="stroke:#000000;stroke-width:0.8;" x="130.230156" xlink:href="#m72867172b6" y="195.353709"/>
      </g>
     </g>
     <g id="text_10">
      <!-- 600000 -->
      <defs>
       <path d="M 33.015625 40.375 
Q 26.375 40.375 22.484375 35.828125 
Q 18.609375 31.296875 18.609375 23.390625 
Q 18.609375 15.53125 22.484375 10.953125 
Q 26.375 6.390625 33.015625 6.390625 
Q 39.65625 6.390625 43.53125 10.953125 
Q 47.40625 15.53125 47.40625 23.390625 
Q 47.40625 31.296875 43.53125 35.828125 
Q 39.65625 40.375 33.015625 40.375 
z
M 52.59375 71.296875 
L 52.59375 62.3125 
Q 48.875 64.0625 45.09375 64.984375 
Q 41.3125 65.921875 37.59375 65.921875 
Q 27.828125 65.921875 22.671875 59.328125 
Q 17.53125 52.734375 16.796875 39.40625 
Q 19.671875 43.65625 24.015625 45.921875 
Q 28.375 48.1875 33.59375 48.1875 
Q 44.578125 48.1875 50.953125 41.515625 
Q 57.328125 34.859375 57.328125 23.390625 
Q 57.328125 12.15625 50.6875 5.359375 
Q 44.046875 -1.421875 33.015625 -1.421875 
Q 20.359375 -1.421875 13.671875 8.265625 
Q 6.984375 17.96875 6.984375 36.375 
Q 6.984375 53.65625 15.1875 63.9375 
Q 23.390625 74.21875 37.203125 74.21875 
Q 40.921875 74.21875 44.703125 73.484375 
Q 48.484375 72.75 52.59375 71.296875 
z
" id="DejaVuSans-54"/>
      </defs>
      <g transform="translate(85.055156 199.152927)scale(0.1 -0.1)">
       <use xlink:href="#DejaVuSans-54"/>
       <use x="63.623047" xlink:href="#DejaVuSans-48"/>
       <use x="127.246094" xlink:href="#DejaVuSans-48"/>
       <use x="190.869141" xlink:href="#DejaVuSans-48"/>
       <use x="254.492188" xlink:href="#DejaVuSans-48"/>
       <use x="318.115234" xlink:href="#DejaVuSans-48"/>
      </g>
     </g>
    </g>
    <g id="ytick_5">
     <g id="line2d_11">
      <g>
       <use style="stroke:#000000;stroke-width:0.8;" x="130.230156" xlink:href="#m72867172b6" y="143.080222"/>
      </g>
     </g>
     <g id="text_11">
      <!-- 800000 -->
      <defs>
       <path d="M 31.78125 34.625 
Q 24.75 34.625 20.71875 30.859375 
Q 16.703125 27.09375 16.703125 20.515625 
Q 16.703125 13.921875 20.71875 10.15625 
Q 24.75 6.390625 31.78125 6.390625 
Q 38.8125 6.390625 42.859375 10.171875 
Q 46.921875 13.96875 46.921875 20.515625 
Q 46.921875 27.09375 42.890625 30.859375 
Q 38.875 34.625 31.78125 34.625 
z
M 21.921875 38.8125 
Q 15.578125 40.375 12.03125 44.71875 
Q 8.5 49.078125 8.5 55.328125 
Q 8.5 64.0625 14.71875 69.140625 
Q 20.953125 74.21875 31.78125 74.21875 
Q 42.671875 74.21875 48.875 69.140625 
Q 55.078125 64.0625 55.078125 55.328125 
Q 55.078125 49.078125 51.53125 44.71875 
Q 48 40.375 41.703125 38.8125 
Q 48.828125 37.15625 52.796875 32.3125 
Q 56.78125 27.484375 56.78125 20.515625 
Q 56.78125 9.90625 50.3125 4.234375 
Q 43.84375 -1.421875 31.78125 -1.421875 
Q 19.734375 -1.421875 13.25 4.234375 
Q 6.78125 9.90625 6.78125 20.515625 
Q 6.78125 27.484375 10.78125 32.3125 
Q 14.796875 37.15625 21.921875 38.8125 
z
M 18.3125 54.390625 
Q 18.3125 48.734375 21.84375 45.5625 
Q 25.390625 42.390625 31.78125 42.390625 
Q 38.140625 42.390625 41.71875 45.5625 
Q 45.3125 48.734375 45.3125 54.390625 
Q 45.3125 60.0625 41.71875 63.234375 
Q 38.140625 66.40625 31.78125 66.40625 
Q 25.390625 66.40625 21.84375 63.234375 
Q 18.3125 60.0625 18.3125 54.390625 
z
" id="DejaVuSans-56"/>
      </defs>
      <g transform="translate(85.055156 146.879441)scale(0.1 -0.1)">
       <use xlink:href="#DejaVuSans-56"/>
       <use x="63.623047" xlink:href="#DejaVuSans-48"/>
       <use x="127.246094" xlink:href="#DejaVuSans-48"/>
       <use x="190.869141" xlink:href="#DejaVuSans-48"/>
       <use x="254.492188" xlink:href="#DejaVuSans-48"/>
       <use x="318.115234" xlink:href="#DejaVuSans-48"/>
      </g>
     </g>
    </g>
    <g id="ytick_6">
     <g id="line2d_12">
      <g>
       <use style="stroke:#000000;stroke-width:0.8;" x="130.230156" xlink:href="#m72867172b6" y="90.806736"/>
      </g>
     </g>
     <g id="text_12">
      <!-- 1000000 -->
      <g transform="translate(78.692656 94.605955)scale(0.1 -0.1)">
       <use xlink:href="#DejaVuSans-49"/>
       <use x="63.623047" xlink:href="#DejaVuSans-48"/>
       <use x="127.246094" xlink:href="#DejaVuSans-48"/>
       <use x="190.869141" xlink:href="#DejaVuSans-48"/>
       <use x="254.492188" xlink:href="#DejaVuSans-48"/>
       <use x="318.115234" xlink:href="#DejaVuSans-48"/>
       <use x="381.738281" xlink:href="#DejaVuSans-48"/>
      </g>
     </g>
    </g>
    <g id="ytick_7">
     <g id="line2d_13">
      <g>
       <use style="stroke:#000000;stroke-width:0.8;" x="130.230156" xlink:href="#m72867172b6" y="38.53325"/>
      </g>
     </g>
     <g id="text_13">
      <!-- 1200000 -->
      <g transform="translate(78.692656 42.332469)scale(0.1 -0.1)">
       <use xlink:href="#DejaVuSans-49"/>
       <use x="63.623047" xlink:href="#DejaVuSans-50"/>
       <use x="127.246094" xlink:href="#DejaVuSans-48"/>
       <use x="190.869141" xlink:href="#DejaVuSans-48"/>
       <use x="254.492188" xlink:href="#DejaVuSans-48"/>
       <use x="318.115234" xlink:href="#DejaVuSans-48"/>
       <use x="381.738281" xlink:href="#DejaVuSans-48"/>
      </g>
     </g>
    </g>
    <g id="text_14">
     <!-- inflight -->
     <defs>
      <path d="M 9.421875 54.6875 
L 18.40625 54.6875 
L 18.40625 0 
L 9.421875 0 
z
M 9.421875 75.984375 
L 18.40625 75.984375 
L 18.40625 64.59375 
L 9.421875 64.59375 
z
" id="DejaVuSans-105"/>
      <path d="M 54.890625 33.015625 
L 54.890625 0 
L 45.90625 0 
L 45.90625 32.71875 
Q 45.90625 40.484375 42.875 44.328125 
Q 39.84375 48.1875 33.796875 48.1875 
Q 26.515625 48.1875 22.3125 43.546875 
Q 18.109375 38.921875 18.109375 30.90625 
L 18.109375 0 
L 9.078125 0 
L 9.078125 54.6875 
L 18.109375 54.6875 
L 18.109375 46.1875 
Q 21.34375 51.125 25.703125 53.5625 
Q 30.078125 56 35.796875 56 
Q 45.21875 56 50.046875 50.171875 
Q 54.890625 44.34375 54.890625 33.015625 
z
" id="DejaVuSans-110"/>
      <path d="M 37.109375 75.984375 
L 37.109375 68.5 
L 28.515625 68.5 
Q 23.6875 68.5 21.796875 66.546875 
Q 19.921875 64.59375 19.921875 59.515625 
L 19.921875 54.6875 
L 34.71875 54.6875 
L 34.71875 47.703125 
L 19.921875 47.703125 
L 19.921875 0 
L 10.890625 0 
L 10.890625 47.703125 
L 2.296875 47.703125 
L 2.296875 54.6875 
L 10.890625 54.6875 
L 10.890625 58.5 
Q 10.890625 67.625 15.140625 71.796875 
Q 19.390625 75.984375 28.609375 75.984375 
z
" id="DejaVuSans-102"/>
      <path d="M 9.421875 75.984375 
L 18.40625 75.984375 
L 18.40625 0 
L 9.421875 0 
z
" id="DejaVuSans-108"/>
      <path d="M 45.40625 27.984375 
Q 45.40625 37.75 41.375 43.109375 
Q 37.359375 48.484375 30.078125 48.484375 
Q 22.859375 48.484375 18.828125 43.109375 
Q 14.796875 37.75 14.796875 27.984375 
Q 14.796875 18.265625 18.828125 12.890625 
Q 22.859375 7.515625 30.078125 7.515625 
Q 37.359375 7.515625 41.375 12.890625 
Q 45.40625 18.265625 45.40625 27.984375 
z
M 54.390625 6.78125 
Q 54.390625 -7.171875 48.1875 -13.984375 
Q 42 -20.796875 29.203125 -20.796875 
Q 24.46875 -20.796875 20.265625 -20.09375 
Q 16.0625 -19.390625 12.109375 -17.921875 
L 12.109375 -9.1875 
Q 16.0625 -11.328125 19.921875 -12.34375 
Q 23.78125 -13.375 27.78125 -13.375 
Q 36.625 -13.375 41.015625 -8.765625 
Q 45.40625 -4.15625 45.40625 5.171875 
L 45.40625 9.625 
Q 42.625 4.78125 38.28125 2.390625 
Q 33.9375 0 27.875 0 
Q 17.828125 0 11.671875 7.65625 
Q 5.515625 15.328125 5.515625 27.984375 
Q 5.515625 40.671875 11.671875 48.328125 
Q 17.828125 56 27.875 56 
Q 33.9375 56 38.28125 53.609375 
Q 42.625 51.21875 45.40625 46.390625 
L 45.40625 54.6875 
L 54.390625 54.6875 
z
" id="DejaVuSans-103"/>
      <path d="M 54.890625 33.015625 
L 54.890625 0 
L 45.90625 0 
L 45.90625 32.71875 
Q 45.90625 40.484375 42.875 44.328125 
Q 39.84375 48.1875 33.796875 48.1875 
Q 26.515625 48.1875 22.3125 43.546875 
Q 18.109375 38.921875 18.109375 30.90625 
L 18.109375 0 
L 9.078125 0 
L 9.078125 75.984375 
L 18.109375 75.984375 
L 18.109375 46.1875 
Q 21.34375 51.125 25.703125 53.5625 
Q 30.078125 56 35.796875 56 
Q 45.21875 56 50.046875 50.171875 
Q 54.890625 44.34375 54.890625 33.015625 
z
" id="DejaVuSans-104"/>
      <path d="M 18.3125 70.21875 
L 18.3125 54.6875 
L 36.8125 54.6875 
L 36.8125 47.703125 
L 18.3125 47.703125 
L 18.3125 18.015625 
Q 18.3125 11.328125 20.140625 9.421875 
Q 21.96875 7.515625 27.59375 7.515625 
L 36.8125 7.515625 
L 36.8125 0 
L 27.59375 0 
Q 17.1875 0 13.234375 3.875 
Q 9.28125 7.765625 9.28125 18.015625 
L 9.28125 47.703125 
L 2.6875 47.703125 
L 2.6875 54.6875 
L 9.28125 54.6875 
L 9.28125 70.21875 
z
" id="DejaVuSans-116"/>
     </defs>
     <g transform="translate(61.415156 211.017552)rotate(-90)scale(0.1 -0.1)">
      <use xlink:href="#DejaVuSans-105"/>
      <use x="27.783203" xlink:href="#DejaVuSans-110"/>
      <use x="91.162109" xlink:href="#DejaVuSans-102"/>
      <use x="126.367188" xlink:href="#DejaVuSans-108"/>
      <use x="154.150391" xlink:href="#DejaVuSans-105"/>
      <use x="181.933594" xlink:href="#DejaVuSans-103"/>
      <use x="245.410156" xlink:href="#DejaVuSans-104"/>
      <use x="308.789062" xlink:href="#DejaVuSans-116"/>
     </g>
     <!-- (bytes) -->
     <defs>
      <path d="M 31 75.875 
Q 24.46875 64.65625 21.28125 53.65625 
Q 18.109375 42.671875 18.109375 31.390625 
Q 18.109375 20.125 21.3125 9.0625 
Q 24.515625 -2 31 -13.1875 
L 23.1875 -13.1875 
Q 15.875 -1.703125 12.234375 9.375 
Q 8.59375 20.453125 8.59375 31.390625 
Q 8.59375 42.28125 12.203125 53.3125 
Q 15.828125 64.359375 23.1875 75.875 
z
" id="DejaVuSans-40"/>
      <path d="M 48.6875 27.296875 
Q 48.6875 37.203125 44.609375 42.84375 
Q 40.53125 48.484375 33.40625 48.484375 
Q 26.265625 48.484375 22.1875 42.84375 
Q 18.109375 37.203125 18.109375 27.296875 
Q 18.109375 17.390625 22.1875 11.75 
Q 26.265625 6.109375 33.40625 6.109375 
Q 40.53125 6.109375 44.609375 11.75 
Q 48.6875 17.390625 48.6875 27.296875 
z
M 18.109375 46.390625 
Q 20.953125 51.265625 25.265625 53.625 
Q 29.59375 56 35.59375 56 
Q 45.5625 56 51.78125 48.09375 
Q 58.015625 40.1875 58.015625 27.296875 
Q 58.015625 14.40625 51.78125 6.484375 
Q 45.5625 -1.421875 35.59375 -1.421875 
Q 29.59375 -1.421875 25.265625 0.953125 
Q 20.953125 3.328125 18.109375 8.203125 
L 18.109375 0 
L 9.078125 0 
L 9.078125 75.984375 
L 18.109375 75.984375 
z
" id="DejaVuSans-98"/>
      <path d="M 32.171875 -5.078125 
Q 28.375 -14.84375 24.75 -17.8125 
Q 21.140625 -20.796875 15.09375 -20.796875 
L 7.90625 -20.796875 
L 7.90625 -13.28125 
L 13.1875 -13.28125 
Q 16.890625 -13.28125 18.9375 -11.515625 
Q 21 -9.765625 23.484375 -3.21875 
L 25.09375 0.875 
L 2.984375 54.6875 
L 12.5 54.6875 
L 29.59375 11.921875 
L 46.6875 54.6875 
L 56.203125 54.6875 
z
" id="DejaVuSans-121"/>
      <path d="M 56.203125 29.59375 
L 56.203125 25.203125 
L 14.890625 25.203125 
Q 15.484375 15.921875 20.484375 11.0625 
Q 25.484375 6.203125 34.421875 6.203125 
Q 39.59375 6.203125 44.453125 7.46875 
Q 49.3125 8.734375 54.109375 11.28125 
L 54.109375 2.78125 
Q 49.265625 0.734375 44.1875 -0.34375 
Q 39.109375 -1.421875 33.890625 -1.421875 
Q 20.796875 -1.421875 13.15625 6.1875 
Q 5.515625 13.8125 5.515625 26.8125 
Q 5.515625 40.234375 12.765625 48.109375 
Q 20.015625 56 32.328125 56 
Q 43.359375 56 49.78125 48.890625 
Q 56.203125 41.796875 56.203125 29.59375 
z
M 47.21875 32.234375 
Q 47.125 39.59375 43.09375 43.984375 
Q 39.0625 48.390625 32.421875 48.390625 
Q 24.90625 48.390625 20.390625 44.140625 
Q 15.875 39.890625 15.1875 32.171875 
z
" id="DejaVuSans-101"/>
      <path d="M 44.28125 53.078125 
L 44.28125 44.578125 
Q 40.484375 46.53125 36.375 47.5 
Q 32.28125 48.484375 27.875 48.484375 
Q 21.1875 48.484375 17.84375 46.4375 
Q 14.5 44.390625 14.5 40.28125 
Q 14.5 37.15625 16.890625 35.375 
Q 19.28125 33.59375 26.515625 31.984375 
L 29.59375 31.296875 
Q 39.15625 29.25 43.1875 25.515625 
Q 47.21875 21.78125 47.21875 15.09375 
Q 47.21875 7.46875 41.1875 3.015625 
Q 35.15625 -1.421875 24.609375 -1.421875 
Q 20.21875 -1.421875 15.453125 -0.5625 
Q 10.6875 0.296875 5.421875 2 
L 5.421875 11.28125 
Q 10.40625 8.6875 15.234375 7.390625 
Q 20.0625 6.109375 24.8125 6.109375 
Q 31.15625 6.109375 34.5625 8.28125 
Q 37.984375 10.453125 37.984375 14.40625 
Q 37.984375 18.0625 35.515625 20.015625 
Q 33.0625 21.96875 24.703125 23.78125 
L 21.578125 24.515625 
Q 13.234375 26.265625 9.515625 29.90625 
Q 5.8125 33.546875 5.8125 39.890625 
Q 5.8125 47.609375 11.28125 51.796875 
Q 16.75 56 26.8125 56 
Q 31.78125 56 36.171875 55.265625 
Q 40.578125 54.546875 44.28125 53.078125 
z
" id="DejaVuSans-115"/>
      <path d="M 8.015625 75.875 
L 15.828125 75.875 
Q 23.140625 64.359375 26.78125 53.3125 
Q 30.421875 42.28125 30.421875 31.390625 
Q 30.421875 20.453125 26.78125 9.375 
Q 23.140625 -1.703125 15.828125 -13.1875 
L 8.015625 -13.1875 
Q 14.5 -2 17.703125 9.0625 
Q 20.90625 20.125 20.90625 31.390625 
Q 20.90625 42.671875 17.703125 53.65625 
Q 14.5 64.65625 8.015625 75.875 
z
" id="DejaVuSans-41"/>
     </defs>
     <g transform="translate(72.612969 211.294896)rotate(-90)scale(0.1 -0.1)">
      <use xlink:href="#DejaVuSans-40"/>
      <use x="39.013672" xlink:href="#DejaVuSans-98"/>
      <use x="102.490234" xlink:href="#DejaVuSans-121"/>
      <use x="161.669922" xlink:href="#DejaVuSans-116"/>
      <use x="200.878906" xlink:href="#DejaVuSans-101"/>
      <use x="262.402344" xlink:href="#DejaVuSans-115"/>
      <use x="314.501953" xlink:href="#DejaVuSans-41"/>
     </g>
    </g>
   </g>
   <g id="line2d_14">
    <path clip-path="url(#p8c9bab8e49)" d="M 151.04567 106.932061 
L 151.705061 256.045317 
L 152.364451 228.039274 
L 153.023842 214.414712 
L 153.683233 229.174654 
L 154.342623 271.940638 
L 155.002014 300.703601 
L 155.661405 289.3498 
L 156.320795 265.128358 
L 156.980186 232.580794 
L 157.639577 299.189761 
L 158.298968 271.562178 
L 158.958358 200.790151 
L 159.617749 287.07904 
L 160.27714 220.470073 
L 160.93653 246.205356 
L 161.595921 148.941126 
L 162.255312 302.217442 
L 162.914702 310.922022 
L 163.574093 285.5652 
L 164.233484 288.21442 
L 164.892874 301.460521 
L 165.552265 244.313056 
L 166.211656 303.352822 
L 166.871047 267.777578 
L 167.530437 291.99902 
L 168.189828 252.639176 
L 168.849219 301.082061 
L 169.508609 258.316077 
L 170.168 297.675921 
L 170.827391 259.451457 
L 171.486781 293.134401 
L 172.146172 251.125336 
L 172.805563 263.992978 
L 173.464954 283.6729 
L 174.124344 296.919001 
L 174.783735 316.977383 
L 175.443126 211.387032 
L 176.761907 282.91598 
L 177.421298 272.697558 
L 178.080688 266.642198 
L 178.740079 251.882256 
L 179.39947 318.112763 
L 180.05886 327.195804 
L 180.718251 310.543562 
L 181.377642 260.586837 
L 182.037033 310.165102 
L 182.696423 320.383523 
L 183.355814 317.734303 
L 184.015205 311.300482 
L 184.674595 309.029722 
L 185.333986 315.463543 
L 185.993377 320.383523 
L 186.652767 253.774557 
L 187.312158 309.786642 
L 187.971549 296.540541 
L 188.63094 285.5652 
L 189.29033 126.990443 
L 189.949721 314.706623 
L 191.268502 288.97134 
L 191.927893 351.795707 
L 192.587284 309.408182 
L 193.246674 309.408182 
L 193.906065 303.352822 
L 194.565456 223.119293 
L 195.224846 290.48518 
L 195.884237 248.476116 
L 196.543628 303.352822 
L 197.203019 248.854576 
L 197.862409 306.758962 
L 198.5218 213.657792 
L 199.181191 259.829917 
L 199.840581 131.910424 
L 200.499972 224.633134 
L 201.159363 276.482159 
L 201.818753 225.390054 
L 202.478144 186.03021 
L 203.137535 137.587325 
L 203.796926 275.346779 
L 204.456316 228.417734 
L 205.115707 283.29444 
L 205.775098 295.783621 
L 206.434488 239.014615 
L 207.093879 307.515882 
L 207.75327 232.959254 
L 208.41266 309.408182 
L 209.072051 185.65175 
L 209.731442 228.796194 
L 210.390832 293.134401 
L 211.050223 248.476116 
L 211.709614 182.245609 
L 212.369005 183.759449 
L 213.028395 193.97787 
L 213.687786 251.125336 
L 214.347177 296.919001 
L 215.006567 138.344245 
L 215.665958 315.463543 
L 216.325349 53.190736 
L 216.984739 285.18674 
L 217.64413 201.547071 
L 218.303521 152.347266 
L 218.962912 351.795707 
L 219.622302 189.43635 
L 220.281693 282.91598 
L 220.941084 307.894342 
L 221.600474 296.162081 
L 222.259865 310.165102 
L 222.919256 296.540541 
L 224.238037 315.842003 
L 224.897428 280.266759 
L 225.556818 311.300482 
L 226.216209 302.595902 
L 226.8756 309.029722 
L 227.534991 312.814323 
L 228.194381 314.328163 
L 228.853772 309.408182 
L 229.513163 312.057403 
L 230.172553 306.380502 
L 230.831944 312.814323 
L 231.491335 306.002042 
L 232.150725 323.411204 
L 232.810116 290.10672 
L 233.469507 276.482159 
L 234.128898 314.706623 
L 234.788288 310.543562 
L 235.447679 318.491223 
L 236.10707 322.275824 
L 236.76646 315.842003 
L 237.425851 318.491223 
L 238.085242 316.598923 
L 238.744632 320.005063 
L 239.404023 320.383523 
L 240.063414 321.897364 
L 240.722804 306.002042 
L 241.382195 321.518904 
L 242.041586 309.786642 
L 242.700977 263.614518 
L 243.360367 311.678942 
L 244.019758 315.085083 
L 244.679149 314.706623 
L 245.338539 312.814323 
L 245.99793 351.795707 
L 246.657321 312.435863 
L 247.316711 319.626603 
L 247.976102 318.491223 
L 248.635493 320.005063 
L 249.294884 322.654284 
L 249.954274 306.758962 
L 250.613665 321.897364 
L 251.273056 310.165102 
L 251.932446 311.678942 
L 252.591837 276.103699 
L 253.251228 310.165102 
L 253.910618 248.854576 
L 254.570009 300.703601 
L 255.2294 250.746876 
L 255.88879 242.042295 
L 256.548181 303.352822 
L 257.207572 239.771535 
L 257.866963 286.70058 
L 259.185744 304.866662 
L 259.845135 245.826896 
L 260.504525 176.568709 
L 261.823307 293.891321 
L 262.482697 219.334693 
L 263.142088 168.242588 
L 264.46087 222.740833 
L 265.12026 189.81481 
L 265.779651 199.654771 
L 266.439042 264.371438 
L 267.098432 246.205356 
L 267.757823 301.082061 
L 268.417214 296.919001 
L 269.076604 312.057403 
L 269.735995 306.380502 
L 270.395386 307.137422 
L 271.054776 312.057403 
L 271.714167 310.543562 
L 272.373558 306.758962 
L 273.032949 352.174167 
L 273.692339 307.137422 
L 274.35173 286.70058 
L 275.011121 309.029722 
L 275.670511 301.082061 
L 276.329902 257.937617 
L 276.989293 300.703601 
L 277.648683 247.719196 
L 278.308074 301.082061 
L 278.967465 293.134401 
L 279.626856 310.165102 
L 280.286246 304.109742 
L 280.945637 309.029722 
L 281.605028 306.758962 
L 282.264418 270.048338 
L 282.923809 313.571243 
L 283.5832 292.377481 
L 284.24259 313.949703 
L 284.901981 299.568221 
L 285.561372 316.977383 
L 286.220762 320.761983 
L 286.880153 205.331672 
L 288.198935 312.814323 
L 288.858325 245.069976 
L 289.517716 242.799215 
L 290.177107 231.066954 
L 290.836497 310.543562 
L 291.495888 257.559157 
L 292.155279 309.786642 
L 292.814669 312.814323 
L 293.47406 306.380502 
L 294.133451 308.651262 
L 294.792842 309.786642 
L 295.452232 311.678942 
L 296.111623 265.885278 
L 296.771014 315.463543 
L 297.430404 318.112763 
L 298.089795 316.598923 
L 298.749186 320.761983 
L 299.408576 320.383523 
L 300.067967 351.795707 
L 301.386748 289.3498 
L 302.046139 308.651262 
L 302.70553 302.974362 
L 303.364921 312.435863 
L 304.024311 317.355843 
L 304.683702 285.5652 
L 305.343093 307.137422 
L 306.002483 263.614518 
L 306.661874 310.543562 
L 307.321265 298.811301 
L 307.980655 304.488202 
L 308.640046 296.162081 
L 309.299437 166.350288 
L 309.958828 201.547071 
L 310.618218 189.43635 
L 311.277609 291.2421 
L 311.937 203.060911 
L 312.59639 286.70058 
L 313.255781 259.829917 
L 314.574562 129.261204 
L 315.233953 253.396096 
L 315.893344 309.786642 
L 316.552734 212.143952 
L 317.212125 312.814323 
L 317.871516 299.568221 
L 318.530907 310.922022 
L 319.190297 302.974362 
L 319.849688 240.906915 
L 320.509079 310.922022 
L 321.168469 275.725239 
L 321.82786 311.300482 
L 322.487251 297.297461 
L 323.146641 230.310034 
L 323.806032 309.408182 
L 324.465423 273.832939 
L 325.124814 313.949703 
L 325.784204 317.734303 
L 326.443595 323.032744 
L 327.102986 351.795707 
L 327.762376 218.577773 
L 328.421767 239.014615 
L 329.081158 169.756428 
L 329.740548 291.2421 
L 330.399939 293.512861 
L 331.05933 314.706623 
L 331.71872 310.165102 
L 332.378111 268.156038 
L 333.037502 311.300482 
L 333.696893 273.832939 
L 334.356283 312.814323 
L 335.015674 303.731282 
L 335.675065 309.029722 
L 336.334455 311.678942 
L 336.993846 317.734303 
L 337.653237 308.272802 
L 338.312627 317.355843 
L 338.972018 308.651262 
L 339.631409 315.842003 
L 340.2908 312.057403 
L 340.95019 310.922022 
L 341.609581 306.758962 
L 342.268972 309.786642 
L 342.928362 310.922022 
L 343.587753 313.571243 
L 344.247144 303.352822 
L 344.906534 310.922022 
L 345.565925 312.057403 
L 346.225316 315.463543 
L 346.884706 314.706623 
L 347.544097 313.571243 
L 348.203488 312.814323 
L 348.862879 306.380502 
L 349.522269 314.706623 
L 350.18166 312.057403 
L 350.841051 316.220463 
L 351.500441 316.220463 
L 352.159832 318.869683 
L 352.819223 320.761983 
L 353.478613 313.571243 
L 354.138004 352.174167 
L 354.797395 318.112763 
L 355.456786 318.491223 
L 356.116176 319.248143 
L 356.775567 307.137422 
L 357.434958 310.922022 
L 358.094348 257.180697 
L 358.753739 266.263738 
L 359.41313 299.189761 
L 360.07252 230.688494 
L 360.731911 266.642198 
L 361.391302 204.574751 
L 362.050692 235.986935 
L 362.710083 206.088592 
L 363.369474 303.731282 
L 364.028865 305.623582 
L 364.688255 243.934596 
L 365.347646 302.217442 
L 366.007037 260.586837 
L 366.666427 305.623582 
L 367.325818 283.29444 
L 367.985209 317.734303 
L 368.644599 310.922022 
L 369.30399 253.396096 
L 369.963381 280.266759 
L 370.622772 302.217442 
L 371.282162 251.503796 
L 371.941553 308.272802 
L 372.600944 300.703601 
L 373.260334 257.559157 
L 373.919725 304.866662 
L 374.579116 308.272802 
L 375.238506 298.811301 
L 375.897897 281.402139 
L 376.557288 309.408182 
L 377.216678 306.758962 
L 377.876069 308.651262 
L 378.53546 311.300482 
L 379.194851 311.300482 
L 379.854241 314.328163 
L 380.513632 256.802237 
L 381.173023 351.795707 
L 381.832413 313.571243 
L 382.491804 303.352822 
L 383.151195 305.245122 
L 383.810585 305.623582 
L 384.469976 305.245122 
L 385.129367 289.3498 
L 385.788758 302.217442 
L 386.448148 299.189761 
L 387.107539 282.159059 
L 387.76693 311.300482 
L 388.42632 282.159059 
L 389.085711 308.651262 
L 389.745102 258.694537 
L 390.404492 271.562178 
L 391.063883 321.518904 
L 391.723274 311.300482 
L 392.382664 316.977383 
L 393.042055 319.626603 
L 393.701446 318.112763 
L 394.360837 320.761983 
L 395.020227 321.518904 
L 395.679618 322.654284 
L 396.339009 318.112763 
L 396.998399 322.275824 
L 397.65779 313.571243 
L 398.317181 320.005063 
L 398.976571 320.005063 
L 399.635962 318.491223 
L 400.295353 310.543562 
L 400.954744 314.328163 
L 401.614134 308.272802 
L 402.273525 274.211399 
L 402.932916 313.571243 
L 404.251697 314.328163 
L 404.911088 299.946681 
L 405.570478 324.925044 
L 406.229869 318.491223 
L 406.88926 319.626603 
L 407.54865 321.518904 
L 408.208041 351.795707 
L 408.867432 297.675921 
L 409.526823 320.383523 
L 410.186213 307.894342 
L 410.845604 318.112763 
L 411.504995 313.949703 
L 412.164385 318.112763 
L 412.823776 317.355843 
L 413.483167 323.411204 
L 414.142557 317.734303 
L 414.801948 318.491223 
L 415.461339 316.598923 
L 416.120729 276.103699 
L 416.78012 307.515882 
L 417.439511 298.811301 
L 418.098902 271.562178 
L 418.758292 306.002042 
L 419.417683 248.097656 
L 420.077074 298.054381 
L 420.736464 265.128358 
L 421.395855 309.786642 
L 422.055246 315.463543 
L 422.714636 307.137422 
L 423.374027 276.103699 
L 424.033418 311.678942 
L 424.692809 278.752919 
L 425.352199 310.543562 
L 426.01159 312.057403 
L 426.670981 309.029722 
L 427.330371 270.805258 
L 427.989762 307.894342 
L 428.649153 306.380502 
L 429.308543 312.057403 
L 429.967934 290.86364 
L 430.627325 291.62056 
L 431.286715 303.352822 
L 431.946106 306.002042 
L 432.605497 314.706623 
L 433.264888 315.085083 
L 433.924278 318.869683 
L 434.583669 310.165102 
L 435.24306 351.795707 
L 435.90245 317.355843 
L 436.561841 315.085083 
L 437.221232 320.005063 
L 437.880622 313.949703 
L 438.540013 324.168124 
L 439.199404 312.435863 
L 440.518185 320.005063 
L 441.177576 312.435863 
L 441.836967 313.571243 
L 442.496357 310.543562 
L 443.155748 316.598923 
L 443.815139 320.383523 
L 444.474529 314.706623 
L 445.13392 315.842003 
L 445.793311 291.99902 
L 446.452701 316.977383 
L 447.112092 304.866662 
L 447.771483 317.734303 
L 448.430874 319.626603 
L 449.090264 328.709644 
L 449.749655 286.32212 
L 450.409046 310.922022 
L 451.068436 310.922022 
L 451.727827 318.112763 
L 452.387218 307.515882 
L 453.046608 314.328163 
L 453.705999 318.869683 
L 454.36539 277.995999 
L 455.024781 314.706623 
L 456.343562 321.140443 
L 457.002953 304.866662 
L 457.662343 315.463543 
L 458.321734 303.731282 
L 458.981125 312.814323 
L 459.640515 312.814323 
L 460.299906 314.328163 
L 461.618687 314.328163 
L 462.278078 352.174167 
L 462.937469 315.463543 
L 463.59686 310.165102 
L 464.25625 274.968319 
L 464.915641 307.894342 
L 466.234422 308.651262 
L 466.893813 305.623582 
L 467.553204 309.029722 
L 468.212594 299.946681 
L 468.871985 304.866662 
L 469.531376 301.082061 
L 470.190767 252.260716 
L 470.850157 214.414712 
L 471.509548 215.550093 
L 472.168939 299.189761 
L 472.828329 292.377481 
L 473.48772 219.334693 
L 474.147111 187.16559 
L 474.806501 276.482159 
L 475.465892 251.503796 
L 476.125283 294.648241 
L 476.784673 302.974362 
L 477.444064 298.054381 
L 478.103455 309.408182 
L 478.762846 308.272802 
L 479.422236 312.814323 
L 480.081627 307.515882 
L 480.741018 289.3498 
L 481.400408 314.706623 
L 482.059799 314.328163 
L 482.71919 313.571243 
L 483.37858 305.245122 
L 484.037971 315.085083 
L 484.697362 308.272802 
L 485.356753 314.706623 
L 486.016143 312.814323 
L 486.675534 315.085083 
L 487.334925 304.109742 
L 487.994315 283.6729 
L 488.653706 302.974362 
L 489.313097 351.795707 
L 489.972487 309.408182 
L 490.631878 291.62056 
L 491.291269 295.783621 
L 491.950659 308.272802 
L 492.61005 298.811301 
L 493.269441 309.408182 
L 493.928832 295.026701 
L 494.588222 298.432841 
L 495.247613 304.866662 
L 495.907004 292.755941 
L 496.566394 298.432841 
L 497.225785 296.919001 
L 497.885176 321.518904 
L 498.544566 311.300482 
L 499.203957 313.571243 
L 499.863348 313.949703 
L 500.522739 310.922022 
L 501.182129 316.220463 
L 501.84152 304.109742 
L 502.500911 323.032744 
L 503.160301 320.005063 
L 503.819692 281.780599 
L 504.479083 316.977383 
L 505.138473 320.383523 
L 505.797864 327.574264 
L 506.457255 310.165102 
L 506.457255 310.165102 
" style="fill:none;stroke:#1f77b4;stroke-linecap:square;stroke-width:1.5;"/>
   </g>
   <g id="line2d_15">
    <path clip-path="url(#p8c9bab8e49)" d="M 153.687189 352.174167 
L 154.34658 350.281866 
L 155.00597 351.795707 
L 155.665361 351.038787 
L 156.324752 350.660327 
L 156.984142 352.174167 
L 157.643533 352.174167 
L 158.302924 351.795707 
L 158.962315 351.038787 
L 160.281096 351.795707 
L 160.940487 351.795707 
L 161.599877 350.281866 
L 162.259268 352.174167 
L 163.578049 347.254186 
L 164.23744 348.389566 
L 164.896831 346.118806 
L 165.556222 350.660327 
L 166.215612 351.417247 
L 166.875003 349.903406 
L 167.534394 346.118806 
L 168.193784 347.254186 
L 168.853175 350.281866 
L 169.512566 351.417247 
L 170.171956 351.038787 
L 170.831347 349.903406 
L 171.490738 350.281866 
L 172.150128 349.524946 
L 172.809519 351.417247 
L 174.128301 350.660327 
L 174.787691 348.011106 
L 175.447082 351.038787 
L 176.106473 351.417247 
L 176.765863 352.174167 
L 178.084645 352.174167 
L 178.744035 351.038787 
L 179.403426 352.174167 
L 180.062817 349.524946 
L 180.722207 345.361886 
L 181.381598 349.146486 
L 182.040989 346.118806 
L 182.70038 349.146486 
L 183.35977 349.524946 
L 184.019161 349.146486 
L 184.678552 348.389566 
L 185.337942 350.281866 
L 185.997333 350.660327 
L 186.656724 347.632646 
L 187.316114 350.660327 
L 187.975505 351.795707 
L 188.634896 351.417247 
L 189.294287 351.795707 
L 189.953677 350.660327 
L 190.613068 348.011106 
L 191.272459 348.389566 
L 191.931849 346.497266 
L 192.59124 348.768026 
L 193.250631 346.497266 
L 193.910021 349.903406 
L 194.569412 351.795707 
L 195.228803 350.660327 
L 195.888193 351.795707 
L 196.547584 351.417247 
L 197.206975 349.524946 
L 197.866366 351.417247 
L 198.525756 351.417247 
L 199.185147 348.389566 
L 199.844538 350.660327 
L 200.503928 351.417247 
L 201.163319 350.660327 
L 201.82271 351.038787 
L 202.4821 349.146486 
L 203.141491 352.174167 
L 203.800882 352.174167 
L 204.460273 349.903406 
L 205.119663 351.038787 
L 205.779054 349.903406 
L 206.438445 352.174167 
L 207.097835 350.660327 
L 207.757226 349.903406 
L 208.416617 351.417247 
L 209.076007 348.768026 
L 209.735398 351.795707 
L 210.394789 351.417247 
L 211.054179 352.174167 
L 212.372961 352.174167 
L 213.032352 351.417247 
L 213.691742 352.174167 
L 214.351133 351.038787 
L 215.010524 351.038787 
L 215.669914 351.795707 
L 216.329305 352.174167 
L 216.988696 351.795707 
L 217.648086 349.903406 
L 218.307477 349.903406 
L 219.626259 351.417247 
L 220.285649 351.795707 
L 220.94504 351.417247 
L 221.604431 349.524946 
L 222.263821 349.524946 
L 222.923212 346.875726 
L 223.582603 349.524946 
L 224.241993 349.146486 
L 224.901384 346.118806 
L 225.560775 346.875726 
L 226.220165 346.497266 
L 226.879556 347.254186 
L 227.538947 344.604966 
L 228.198338 346.118806 
L 228.857728 343.469586 
L 229.517119 344.604966 
L 230.17651 345.361886 
L 230.8359 346.497266 
L 231.495291 344.226506 
L 232.154682 341.198826 
L 232.814072 342.334206 
L 233.473463 347.632646 
L 234.132854 350.660327 
L 234.792245 350.281866 
L 235.451635 349.146486 
L 236.770417 344.226506 
L 238.089198 346.497266 
L 238.748589 346.875726 
L 239.407979 344.604966 
L 240.06737 345.740346 
L 240.726761 343.469586 
L 241.386151 347.632646 
L 242.045542 344.983426 
L 242.704933 340.063445 
L 243.364324 348.768026 
L 244.683105 348.768026 
L 245.342496 346.118806 
L 246.001886 342.712666 
L 246.661277 346.875726 
L 247.320668 349.146486 
L 248.639449 344.604966 
L 249.29884 345.361886 
L 249.958231 343.469586 
L 250.617621 344.604966 
L 251.277012 342.712666 
L 251.936403 343.848046 
L 252.595793 342.334206 
L 253.255184 349.146486 
L 253.914575 347.254186 
L 254.573965 351.417247 
L 255.233356 349.146486 
L 255.892747 351.417247 
L 256.552137 350.660327 
L 257.211528 350.660327 
L 257.870919 351.417247 
L 258.53031 351.417247 
L 259.1897 351.795707 
L 259.849091 349.903406 
L 260.508482 351.795707 
L 261.167872 352.174167 
L 261.827263 351.038787 
L 262.486654 351.417247 
L 263.146044 350.660327 
L 263.805435 352.174167 
L 264.464826 350.281866 
L 265.124217 351.038787 
L 265.783607 351.038787 
L 266.442998 351.795707 
L 267.102389 352.174167 
L 267.761779 351.417247 
L 268.42117 350.281866 
L 269.080561 350.660327 
L 269.739951 350.660327 
L 270.399342 351.417247 
L 271.058733 351.795707 
L 271.718123 351.795707 
L 272.377514 349.146486 
L 273.036905 348.389566 
L 273.696296 349.903406 
L 274.355686 348.011106 
L 275.015077 350.660327 
L 276.333858 352.174167 
L 276.993249 351.795707 
L 277.65264 350.660327 
L 278.31203 350.660327 
L 278.971421 348.768026 
L 279.630812 348.389566 
L 280.290203 346.118806 
L 281.608984 346.875726 
L 282.268375 346.497266 
L 282.927765 347.632646 
L 283.587156 347.254186 
L 284.246547 347.632646 
L 284.905937 344.226506 
L 285.565328 345.740346 
L 286.224719 346.497266 
L 286.884109 346.497266 
L 287.5435 348.011106 
L 288.202891 352.174167 
L 288.862282 351.417247 
L 289.521672 352.174167 
L 290.181063 350.660327 
L 290.840454 350.281866 
L 291.499844 350.660327 
L 292.818626 350.660327 
L 293.478016 349.524946 
L 294.137407 349.903406 
L 294.796798 347.632646 
L 295.456189 347.632646 
L 296.115579 348.011106 
L 296.77497 345.361886 
L 297.434361 346.497266 
L 298.093751 344.226506 
L 298.753142 344.983426 
L 299.412533 346.118806 
L 300.071923 343.091126 
L 300.731314 347.632646 
L 301.390705 341.577286 
L 302.050095 345.740346 
L 302.709486 347.632646 
L 303.368877 347.254186 
L 304.028268 347.254186 
L 304.687658 344.604966 
L 305.347049 345.740346 
L 306.00644 349.146486 
L 306.66583 349.146486 
L 307.325221 349.524946 
L 307.984612 349.524946 
L 308.644002 350.660327 
L 309.303393 350.281866 
L 309.962784 352.174167 
L 310.622175 352.174167 
L 311.281565 351.795707 
L 311.940956 352.174167 
L 312.600347 349.146486 
L 313.259737 351.038787 
L 313.919128 348.768026 
L 314.578519 351.417247 
L 315.8973 351.417247 
L 316.556691 348.011106 
L 317.216081 349.146486 
L 317.875472 346.118806 
L 318.534863 349.146486 
L 319.194254 349.524946 
L 319.853644 345.740346 
L 320.513035 349.146486 
L 321.172426 347.632646 
L 321.831816 350.281866 
L 322.491207 349.146486 
L 323.150598 351.795707 
L 323.809988 348.768026 
L 324.469379 346.875726 
L 325.12877 349.146486 
L 325.788161 346.875726 
L 326.447551 347.254186 
L 327.106942 343.848046 
L 327.766333 346.875726 
L 328.425723 351.795707 
L 329.085114 351.038787 
L 329.744505 351.038787 
L 330.403895 352.174167 
L 331.063286 352.174167 
L 331.722677 350.660327 
L 332.382067 348.768026 
L 333.041458 348.768026 
L 333.700849 348.389566 
L 334.36024 348.768026 
L 335.01963 346.875726 
L 335.679021 349.524946 
L 336.338412 349.146486 
L 336.997802 346.875726 
L 337.657193 347.254186 
L 338.316584 348.011106 
L 338.975974 347.632646 
L 339.635365 349.903406 
L 340.294756 349.903406 
L 340.954147 346.875726 
L 341.613537 346.875726 
L 342.272928 349.524946 
L 342.932319 349.524946 
L 343.591709 350.281866 
L 344.2511 350.281866 
L 344.910491 349.146486 
L 345.569881 349.903406 
L 346.229272 351.038787 
L 346.888663 350.660327 
L 347.548053 351.417247 
L 348.866835 349.903406 
L 349.526226 349.524946 
L 350.185616 349.903406 
L 350.845007 347.254186 
L 352.823179 348.389566 
L 354.14196 343.469586 
L 354.801351 349.146486 
L 355.460742 349.146486 
L 356.120133 349.524946 
L 356.779523 350.660327 
L 357.438914 351.417247 
L 358.098305 351.417247 
L 358.757695 352.174167 
L 359.417086 350.281866 
L 360.076477 348.011106 
L 360.735867 351.417247 
L 361.395258 352.174167 
L 362.054649 349.524946 
L 362.714039 350.281866 
L 363.37343 352.174167 
L 364.032821 352.174167 
L 364.692212 351.038787 
L 365.351602 350.660327 
L 366.010993 351.417247 
L 366.670384 351.038787 
L 367.329774 349.146486 
L 367.989165 349.146486 
L 368.648556 350.660327 
L 369.307946 349.146486 
L 369.967337 350.281866 
L 370.626728 350.281866 
L 371.286119 351.417247 
L 371.945509 351.417247 
L 372.6049 350.660327 
L 373.264291 348.011106 
L 373.923681 351.417247 
L 374.583072 351.417247 
L 375.901853 349.903406 
L 376.561244 351.417247 
L 377.220635 350.660327 
L 377.880025 348.389566 
L 378.539416 348.389566 
L 379.858198 349.146486 
L 380.517588 343.848046 
L 381.176979 347.254186 
L 381.83637 347.254186 
L 382.49576 349.524946 
L 383.155151 343.469586 
L 383.814542 349.903406 
L 384.473932 349.524946 
L 385.133323 348.768026 
L 385.792714 351.038787 
L 386.452105 349.903406 
L 387.770886 349.146486 
L 388.430277 348.011106 
L 389.089667 350.660327 
L 389.749058 350.281866 
L 390.408449 348.011106 
L 391.067839 350.660327 
L 391.72723 346.875726 
L 392.386621 348.011106 
L 393.705402 342.712666 
L 394.364793 343.848046 
L 395.024184 340.441905 
L 395.683574 342.334206 
L 396.342965 339.306525 
L 397.002356 342.334206 
L 397.661746 336.278845 
L 398.321137 341.577286 
L 398.980528 344.226506 
L 399.639918 344.983426 
L 400.299309 342.712666 
L 400.9587 344.226506 
L 401.618091 344.983426 
L 402.277481 335.900385 
L 402.936872 344.226506 
L 403.596263 344.604966 
L 404.255653 345.740346 
L 404.915044 344.983426 
L 405.574435 346.497266 
L 406.233825 344.226506 
L 406.893216 345.361886 
L 407.552607 345.740346 
L 408.211997 343.848046 
L 408.871388 337.414225 
L 409.530779 346.118806 
L 410.19017 343.848046 
L 410.84956 344.983426 
L 411.508951 344.983426 
L 412.168342 346.118806 
L 412.827732 346.875726 
L 413.487123 347.254186 
L 414.146514 344.983426 
L 414.805904 346.118806 
L 415.465295 346.875726 
L 416.124686 343.091126 
L 416.784077 348.011106 
L 417.443467 345.740346 
L 418.102858 346.118806 
L 418.762249 346.875726 
L 419.421639 348.011106 
L 420.08103 349.903406 
L 420.740421 349.903406 
L 422.059202 346.118806 
L 422.718593 343.091126 
L 423.377983 344.604966 
L 424.037374 345.740346 
L 424.696765 337.792685 
L 425.356156 344.604966 
L 426.015546 345.361886 
L 426.674937 346.875726 
L 427.993718 346.875726 
L 428.653109 348.011106 
L 429.97189 348.011106 
L 430.631281 350.281866 
L 431.290672 349.903406 
L 431.950063 349.146486 
L 432.609453 349.146486 
L 433.268844 346.497266 
L 433.928235 346.875726 
L 434.587625 344.226506 
L 435.247016 344.983426 
L 435.906407 341.577286 
L 436.565797 343.469586 
L 437.225188 344.983426 
L 437.884579 345.740346 
L 438.543969 346.875726 
L 439.20336 344.226506 
L 439.862751 344.226506 
L 440.522142 345.740346 
L 441.181532 346.875726 
L 441.840923 344.604966 
L 442.500314 344.604966 
L 443.159704 345.361886 
L 443.819095 347.254186 
L 444.478486 344.226506 
L 445.137876 345.740346 
L 445.797267 339.684985 
L 446.456658 344.226506 
L 447.116049 340.063445 
L 447.775439 342.712666 
L 448.43483 344.226506 
L 449.094221 341.577286 
L 449.753611 340.063445 
L 450.413002 344.226506 
L 451.072393 345.361886 
L 451.731783 346.118806 
L 452.391174 343.848046 
L 453.050565 344.983426 
L 453.709955 345.361886 
L 454.369346 337.792685 
L 455.028737 344.604966 
L 455.688128 345.740346 
L 456.347518 346.118806 
L 457.006909 341.955746 
L 457.6663 348.011106 
L 458.32569 345.361886 
L 458.985081 346.118806 
L 459.644472 346.118806 
L 460.303862 349.146486 
L 460.963253 346.875726 
L 462.282035 347.632646 
L 462.941425 344.226506 
L 463.600816 341.577286 
L 464.260207 341.577286 
L 464.919597 344.604966 
L 466.238379 346.118806 
L 466.897769 346.118806 
L 467.55716 347.632646 
L 468.216551 347.632646 
L 468.875941 349.903406 
L 469.535332 351.417247 
L 470.194723 351.038787 
L 470.854114 351.417247 
L 471.513504 351.417247 
L 472.172895 352.174167 
L 474.810458 352.174167 
L 475.469848 351.795707 
L 476.129239 350.281866 
L 476.78863 349.146486 
L 477.448021 348.768026 
L 478.107411 346.497266 
L 478.766802 346.875726 
L 479.426193 346.875726 
L 480.085583 344.983426 
L 480.744974 346.497266 
L 481.404365 346.118806 
L 482.063755 346.497266 
L 482.723146 347.254186 
L 483.382537 344.226506 
L 484.041927 342.334206 
L 484.701318 339.684985 
L 485.360709 342.334206 
L 486.0201 339.684985 
L 487.338881 344.226506 
L 487.998272 343.091126 
L 488.657662 345.740346 
L 489.317053 346.497266 
L 489.976444 343.091126 
L 490.635834 335.143465 
L 491.295225 342.712666 
L 491.954616 347.254186 
L 492.614007 347.632646 
L 493.273397 349.903406 
L 493.932788 349.903406 
L 494.592179 349.524946 
L 495.91096 349.524946 
L 497.229741 348.768026 
L 497.889132 349.146486 
L 499.207913 343.091126 
L 499.867304 344.983426 
L 500.526695 343.091126 
L 501.186086 344.604966 
L 501.845476 341.955746 
L 502.504867 343.848046 
L 503.164258 340.441905 
L 503.823648 327.574264 
L 504.483039 340.063445 
L 505.14243 342.334206 
L 505.80182 343.848046 
L 506.461211 341.577286 
L 507.120602 343.848046 
L 507.779993 341.577286 
L 508.439383 343.469586 
L 509.098774 344.226506 
L 509.098774 344.226506 
" style="fill:none;stroke:#ff7f0e;stroke-linecap:square;stroke-width:1.5;"/>
   </g>
   <g id="line2d_16">
    <path clip-path="url(#p8c9bab8e49)" d="M 156.333983 348.768026 
L 156.993374 350.660327 
L 157.652765 351.795707 
L 158.312155 351.038787 
L 158.971546 349.146486 
L 159.630937 352.174167 
L 160.290327 350.660327 
L 160.949718 351.417247 
L 161.609109 351.038787 
L 162.268499 351.795707 
L 163.587281 345.740346 
L 164.246672 348.768026 
L 164.906062 346.118806 
L 165.565453 349.146486 
L 166.224844 349.146486 
L 166.884234 347.254186 
L 167.543625 345.740346 
L 168.203016 347.254186 
L 168.862406 350.281866 
L 169.521797 350.660327 
L 170.181188 349.524946 
L 170.840579 349.903406 
L 171.499969 347.632646 
L 172.15936 349.903406 
L 172.818751 349.903406 
L 174.137532 349.146486 
L 174.796923 350.281866 
L 176.115704 351.795707 
L 176.775095 352.174167 
L 177.434485 351.795707 
L 178.093876 351.795707 
L 178.753267 351.038787 
L 179.412658 352.174167 
L 180.731439 348.389566 
L 181.39083 350.281866 
L 182.05022 347.632646 
L 182.709611 349.903406 
L 183.369002 350.281866 
L 184.687783 349.524946 
L 185.347174 350.660327 
L 186.006565 351.417247 
L 186.665955 351.795707 
L 187.984737 350.281866 
L 188.644127 350.281866 
L 189.303518 351.417247 
L 189.962909 351.038787 
L 191.28169 345.361886 
L 191.941081 345.740346 
L 192.600471 346.497266 
L 193.259862 349.146486 
L 193.919253 347.254186 
L 195.238034 351.417247 
L 195.897425 351.417247 
L 196.556816 350.660327 
L 197.216206 350.281866 
L 197.875597 351.038787 
L 198.534988 349.146486 
L 199.194378 348.389566 
L 199.853769 351.795707 
L 200.51316 352.174167 
L 201.172551 351.038787 
L 201.831941 352.174167 
L 202.491332 351.038787 
L 203.150723 352.174167 
L 205.128895 349.903406 
L 205.788285 350.281866 
L 206.447676 349.903406 
L 207.107067 351.417247 
L 207.766457 349.524946 
L 208.425848 351.417247 
L 209.085239 351.417247 
L 209.74463 350.660327 
L 210.40402 350.660327 
L 211.063411 351.795707 
L 211.722802 350.660327 
L 212.382192 350.660327 
L 213.041583 351.038787 
L 213.700974 351.795707 
L 214.360364 351.038787 
L 215.019755 351.038787 
L 215.679146 350.660327 
L 216.338537 352.174167 
L 216.997927 352.174167 
L 217.657318 350.660327 
L 218.316709 351.795707 
L 218.976099 352.174167 
L 219.63549 351.417247 
L 220.954271 352.174167 
L 221.613662 350.660327 
L 222.273053 350.660327 
L 223.591834 345.361886 
L 224.251225 346.118806 
L 224.910616 337.792685 
L 225.570006 344.604966 
L 226.229397 341.577286 
L 227.548178 345.740346 
L 228.207569 346.118806 
L 228.86696 343.469586 
L 230.185741 345.740346 
L 230.845132 342.712666 
L 231.504523 340.441905 
L 232.163913 342.334206 
L 232.823304 346.875726 
L 234.142085 351.417247 
L 234.801476 348.389566 
L 235.460867 346.497266 
L 236.120257 347.254186 
L 236.779648 347.632646 
L 237.439039 347.632646 
L 238.098429 348.389566 
L 238.75782 348.011106 
L 239.417211 348.389566 
L 240.076602 348.389566 
L 240.735992 346.118806 
L 241.395383 348.011106 
L 242.054774 346.118806 
L 242.714164 346.875726 
L 243.373555 346.875726 
L 244.032946 348.389566 
L 244.692336 348.011106 
L 245.351727 345.740346 
L 246.011118 345.740346 
L 246.670509 348.768026 
L 247.329899 348.768026 
L 247.98929 348.389566 
L 248.648681 347.254186 
L 249.308071 348.011106 
L 249.967462 344.604966 
L 250.626853 347.632646 
L 251.286243 344.226506 
L 251.945634 346.497266 
L 252.605025 344.604966 
L 253.264415 348.768026 
L 253.923806 347.254186 
L 254.583197 351.038787 
L 255.242588 350.660327 
L 255.901978 352.174167 
L 256.561369 351.795707 
L 257.88015 349.524946 
L 258.539541 351.038787 
L 259.198932 350.281866 
L 260.517713 350.281866 
L 261.177104 352.174167 
L 261.836495 351.417247 
L 262.495885 352.174167 
L 263.814667 352.174167 
L 264.474057 351.795707 
L 265.133448 352.174167 
L 265.792839 352.174167 
L 266.452229 351.795707 
L 267.11162 351.795707 
L 267.771011 352.174167 
L 269.089792 350.660327 
L 269.749183 350.281866 
L 270.408574 351.417247 
L 271.727355 352.174167 
L 272.386746 349.903406 
L 273.046136 349.524946 
L 273.705527 349.524946 
L 274.364918 349.903406 
L 275.024308 349.524946 
L 275.683699 349.524946 
L 276.34309 349.146486 
L 277.002481 350.660327 
L 277.661871 349.146486 
L 278.321262 349.146486 
L 278.980653 347.254186 
L 279.640043 348.389566 
L 280.299434 348.768026 
L 280.958825 346.118806 
L 281.618215 346.118806 
L 282.277606 344.226506 
L 282.936997 344.983426 
L 283.596387 339.684985 
L 284.255778 344.226506 
L 284.915169 336.278845 
L 285.57456 343.091126 
L 286.23395 344.604966 
L 286.893341 344.604966 
L 287.552732 349.903406 
L 288.212122 352.174167 
L 288.871513 351.417247 
L 289.530904 349.146486 
L 290.190294 352.174167 
L 290.849685 351.417247 
L 291.509076 349.903406 
L 292.168467 347.254186 
L 292.827857 348.011106 
L 293.487248 348.011106 
L 294.146639 347.254186 
L 294.806029 347.632646 
L 295.46542 347.254186 
L 296.124811 347.632646 
L 297.443592 342.712666 
L 298.102983 340.063445 
L 299.421764 343.848046 
L 300.081155 340.820365 
L 300.740546 346.118806 
L 301.399936 343.091126 
L 302.059327 346.875726 
L 302.718718 344.604966 
L 303.378108 345.361886 
L 304.037499 345.740346 
L 304.69689 343.469586 
L 305.35628 345.361886 
L 306.015671 341.198826 
L 306.675062 349.146486 
L 307.334453 348.389566 
L 307.993843 350.281866 
L 308.653234 350.281866 
L 309.312625 351.417247 
L 309.972015 351.417247 
L 310.631406 351.795707 
L 311.290797 350.660327 
L 311.950187 350.281866 
L 312.609578 351.417247 
L 313.268969 350.281866 
L 313.928359 352.174167 
L 314.58775 351.038787 
L 315.247141 352.174167 
L 315.906532 350.660327 
L 316.565922 352.174167 
L 317.225313 349.903406 
L 317.884704 349.903406 
L 319.203485 349.146486 
L 319.862876 350.660327 
L 320.522266 350.281866 
L 321.181657 350.281866 
L 322.500439 349.524946 
L 323.159829 350.281866 
L 323.81922 350.660327 
L 324.478611 350.281866 
L 325.138001 347.254186 
L 325.797392 348.011106 
L 326.456783 348.389566 
L 327.116173 344.983426 
L 327.775564 346.875726 
L 328.434955 351.417247 
L 329.753736 352.174167 
L 330.413127 350.281866 
L 331.072518 350.660327 
L 331.731908 352.174167 
L 332.391299 351.417247 
L 333.05069 349.903406 
L 335.028862 343.091126 
L 335.688252 346.497266 
L 336.347643 346.497266 
L 337.007034 347.254186 
L 337.666425 344.983426 
L 338.985206 346.497266 
L 339.644597 349.146486 
L 340.303987 349.524946 
L 340.963378 346.497266 
L 341.622769 346.875726 
L 342.282159 349.146486 
L 342.94155 350.660327 
L 343.600941 351.417247 
L 344.919722 350.660327 
L 345.579113 349.903406 
L 346.897894 349.903406 
L 347.557285 350.660327 
L 348.876066 349.146486 
L 349.535457 348.768026 
L 350.194848 346.875726 
L 350.854238 347.254186 
L 352.17302 342.334206 
L 352.832411 344.226506 
L 353.491801 335.521925 
L 354.151192 343.091126 
L 354.810583 347.254186 
L 355.469973 349.903406 
L 356.129364 351.417247 
L 356.788755 350.660327 
L 357.448145 351.417247 
L 358.107536 351.795707 
L 358.766927 351.795707 
L 359.426317 352.174167 
L 360.085708 348.389566 
L 360.745099 352.174167 
L 361.40449 351.417247 
L 362.06388 351.795707 
L 362.723271 349.146486 
L 363.382662 351.417247 
L 364.042052 351.417247 
L 364.701443 350.660327 
L 366.020224 351.417247 
L 366.679615 349.903406 
L 367.339006 349.524946 
L 367.998397 346.118806 
L 368.657787 347.254186 
L 369.317178 349.524946 
L 369.976569 349.524946 
L 370.635959 351.417247 
L 371.29535 349.524946 
L 372.614131 349.524946 
L 373.273522 350.660327 
L 373.932913 348.768026 
L 374.592303 350.281866 
L 375.911085 349.524946 
L 376.570476 346.497266 
L 377.229866 348.768026 
L 377.889257 345.740346 
L 378.548648 346.875726 
L 379.208038 347.632646 
L 379.867429 347.632646 
L 380.52682 348.011106 
L 381.18621 345.361886 
L 381.845601 348.768026 
L 382.504992 346.497266 
L 383.164383 347.254186 
L 384.483164 348.011106 
L 385.142555 348.768026 
L 385.801945 349.903406 
L 386.461336 349.524946 
L 387.120727 350.660327 
L 387.780117 350.660327 
L 388.439508 350.281866 
L 389.098899 350.660327 
L 389.758289 351.795707 
L 390.41768 352.174167 
L 391.077071 349.903406 
L 391.736462 345.361886 
L 392.395852 347.632646 
L 393.055243 348.011106 
L 393.714634 345.361886 
L 394.374024 345.740346 
L 395.033415 342.334206 
L 395.692806 343.848046 
L 396.352196 340.820365 
L 397.011587 343.469586 
L 397.670978 336.657305 
L 398.330369 342.334206 
L 399.64915 345.361886 
L 400.308541 342.712666 
L 400.967931 344.604966 
L 401.627322 345.361886 
L 402.286713 348.011106 
L 402.946103 345.740346 
L 403.605494 346.497266 
L 404.264885 343.848046 
L 404.924275 340.063445 
L 405.583666 345.740346 
L 406.243057 343.848046 
L 406.902448 345.361886 
L 407.561838 345.740346 
L 408.221229 343.469586 
L 408.88062 340.441905 
L 409.54001 346.118806 
L 410.199401 343.848046 
L 410.858792 344.983426 
L 412.836964 337.035765 
L 414.815136 344.983426 
L 415.474527 345.740346 
L 416.133917 347.254186 
L 416.793308 347.632646 
L 417.452699 347.632646 
L 418.112089 349.524946 
L 418.77148 349.524946 
L 419.430871 349.903406 
L 420.090261 349.903406 
L 420.749652 351.795707 
L 421.409043 351.417247 
L 422.068434 348.389566 
L 422.727824 348.389566 
L 423.387215 342.334206 
L 424.046606 348.389566 
L 424.705996 344.604966 
L 425.365387 346.875726 
L 426.024778 347.254186 
L 426.684168 347.254186 
L 427.343559 345.361886 
L 428.00295 349.903406 
L 428.662341 350.660327 
L 429.321731 349.903406 
L 429.981122 345.740346 
L 430.640513 348.011106 
L 431.959294 348.768026 
L 433.937466 348.768026 
L 434.596857 344.983426 
L 435.256247 345.740346 
L 436.575029 340.441905 
L 438.553201 347.254186 
L 439.212592 343.848046 
L 439.871982 344.604966 
L 440.531373 342.334206 
L 441.190764 343.848046 
L 441.850154 345.740346 
L 442.509545 346.497266 
L 443.828327 347.254186 
L 444.487717 344.604966 
L 445.147108 346.118806 
L 445.806499 344.226506 
L 446.465889 346.118806 
L 447.12528 342.334206 
L 447.784671 344.983426 
L 449.103452 339.306525 
L 449.762843 341.955746 
L 450.422233 339.306525 
L 451.081624 341.955746 
L 451.741015 343.469586 
L 452.400406 341.198826 
L 453.719187 344.226506 
L 454.378578 333.251165 
L 455.037968 343.091126 
L 455.697359 344.983426 
L 456.35675 345.361886 
L 457.01614 340.820365 
L 457.675531 347.254186 
L 458.334922 344.604966 
L 460.313094 346.875726 
L 460.972485 346.497266 
L 462.291266 348.011106 
L 462.950657 344.604966 
L 463.610047 345.740346 
L 464.269438 346.118806 
L 465.588219 347.632646 
L 466.24761 344.604966 
L 466.907001 346.118806 
L 467.566392 346.118806 
L 468.225782 346.875726 
L 468.885173 349.524946 
L 469.544564 350.281866 
L 470.203954 348.011106 
L 470.863345 349.524946 
L 471.522736 349.903406 
L 472.182126 352.174167 
L 472.841517 351.417247 
L 473.500908 349.146486 
L 474.160299 351.417247 
L 474.819689 351.795707 
L 476.797861 350.660327 
L 477.457252 349.903406 
L 478.116643 349.524946 
L 478.776033 347.632646 
L 479.435424 347.254186 
L 480.754205 343.091126 
L 481.413596 344.226506 
L 482.072987 344.983426 
L 483.391768 340.063445 
L 484.051159 341.955746 
L 485.36994 336.657305 
L 486.029331 340.063445 
L 486.688722 341.955746 
L 487.348112 344.226506 
L 488.007503 345.740346 
L 489.326285 346.497266 
L 489.985675 343.091126 
L 490.645066 340.820365 
L 491.304457 344.983426 
L 491.963847 345.740346 
L 492.623238 343.848046 
L 493.282629 346.875726 
L 493.942019 348.011106 
L 494.60141 350.281866 
L 495.260801 349.903406 
L 495.920191 351.038787 
L 496.579582 350.660327 
L 497.238973 348.011106 
L 497.898364 347.632646 
L 498.557754 345.361886 
L 499.217145 346.118806 
L 499.876536 343.848046 
L 500.535926 338.928065 
L 501.195317 346.497266 
L 501.854708 343.848046 
L 502.514098 348.011106 
L 503.173489 344.983426 
L 503.83288 346.118806 
L 504.492271 343.469586 
L 505.811052 345.740346 
L 506.470443 343.091126 
L 507.129833 341.198826 
L 507.789224 338.171145 
L 508.448615 341.198826 
L 509.108005 342.712666 
L 509.767396 344.604966 
L 510.426787 340.820365 
L 511.086177 343.848046 
L 511.745568 344.604966 
L 511.745568 344.604966 
" style="fill:none;stroke:#2ca02c;stroke-linecap:square;stroke-width:1.5;"/>
   </g>
   <g id="line2d_17">
    <path clip-path="url(#p8c9bab8e49)" d="M 148.397557 261.722217 
L 149.056948 276.860619 
L 149.716338 279.888299 
L 150.375729 281.402139 
L 151.03512 50.163056 
L 151.69451 295.783621 
L 152.353901 215.550093 
L 153.013292 228.039274 
L 153.672682 209.873192 
L 154.332073 247.340736 
L 154.991464 301.460521 
L 155.650854 248.854576 
L 156.310245 259.829917 
L 156.969636 164.079527 
L 157.629027 297.297461 
L 158.288417 290.48518 
L 158.947808 207.223972 
L 159.607199 203.817831 
L 160.266589 118.664323 
L 160.92598 132.667344 
L 161.585371 259.072997 
L 162.244761 328.709644 
L 162.904152 332.494245 
L 163.563543 321.897364 
L 164.222934 322.654284 
L 164.882324 313.571243 
L 165.541715 246.205356 
L 166.201106 315.842003 
L 166.860496 311.678942 
L 167.519887 306.380502 
L 168.179278 310.543562 
L 168.838668 310.543562 
L 169.498059 285.18674 
L 170.15745 310.922022 
L 170.81684 304.488202 
L 171.476231 310.922022 
L 172.135622 298.432841 
L 172.795013 294.269781 
L 173.454403 312.435863 
L 174.113794 305.623582 
L 174.773185 351.795707 
L 175.432575 310.165102 
L 176.091966 298.811301 
L 176.751357 325.303504 
L 177.410747 319.248143 
L 178.070138 306.758962 
L 178.729529 225.011594 
L 179.38892 304.866662 
L 180.04831 318.491223 
L 180.707701 296.919001 
L 181.367092 307.515882 
L 182.026482 290.48518 
L 182.685873 309.029722 
L 183.345264 297.297461 
L 184.004654 295.026701 
L 184.664045 290.86364 
L 185.323436 299.946681 
L 185.982826 303.352822 
L 186.642217 235.986935 
L 187.301608 303.731282 
L 187.960999 116.393562 
L 188.620389 351.038787 
L 189.27978 183.759449 
L 189.939171 334.008085 
L 190.598561 328.331184 
L 191.257952 321.140443 
L 191.917343 327.574264 
L 192.576733 308.651262 
L 193.236124 237.122315 
L 193.895515 301.838981 
L 194.554906 258.694537 
L 195.214296 305.623582 
L 195.873687 293.512861 
L 196.533078 318.112763 
L 197.192468 284.42982 
L 197.851859 320.383523 
L 198.51125 277.995999 
L 199.17064 298.811301 
L 199.830031 293.134401 
L 200.489422 284.80828 
L 201.148812 315.085083 
L 201.808203 304.109742 
L 202.467594 282.159059 
L 203.126985 265.885278 
L 203.786375 327.195804 
L 204.445766 312.814323 
L 205.105157 325.681964 
L 205.764547 262.479137 
L 206.423938 231.066954 
L 207.083329 298.432841 
L 207.742719 233.716174 
L 208.40211 298.432841 
L 209.061501 248.097656 
L 209.720892 249.233036 
L 210.380282 297.675921 
L 211.039673 276.482159 
L 211.699064 305.623582 
L 212.358454 218.199313 
L 213.017845 257.559157 
L 213.677236 223.876213 
L 214.336626 300.703601 
L 214.996017 253.017636 
L 215.655408 352.174167 
L 216.314798 266.642198 
L 216.974189 318.491223 
L 217.63358 313.571243 
L 218.292971 298.432841 
L 218.952361 332.115785 
L 219.611752 252.639176 
L 220.271143 302.595902 
L 220.930533 318.112763 
L 221.589924 309.786642 
L 222.249315 318.112763 
L 222.908705 313.192783 
L 223.568096 270.426798 
L 224.227487 323.789664 
L 224.886878 303.352822 
L 225.546268 316.977383 
L 226.205659 313.192783 
L 226.86505 316.220463 
L 227.52444 315.085083 
L 228.183831 318.112763 
L 228.843222 310.922022 
L 229.502612 316.977383 
L 230.162003 313.571243 
L 230.821394 318.869683 
L 231.480784 313.949703 
L 232.140175 351.417247 
L 233.458957 194.35633 
L 234.118347 298.054381 
L 234.777738 297.297461 
L 235.437129 303.352822 
L 236.096519 312.057403 
L 236.75591 309.408182 
L 237.415301 308.651262 
L 238.074691 309.029722 
L 238.734082 309.786642 
L 239.393473 306.002042 
L 240.052864 309.408182 
L 240.712254 297.675921 
L 241.371645 316.977383 
L 242.031036 300.703601 
L 242.690426 270.048338 
L 243.349817 309.029722 
L 244.009208 313.192783 
L 244.668598 312.435863 
L 245.327989 303.731282 
L 245.98738 324.925044 
L 246.64677 288.97134 
L 247.306161 300.703601 
L 247.965552 295.026701 
L 248.624943 299.946681 
L 249.284333 302.595902 
L 249.943724 296.919001 
L 250.603115 306.758962 
L 251.262505 297.297461 
L 251.921896 298.432841 
L 252.581287 268.912958 
L 253.240677 303.731282 
L 253.900068 257.180697 
L 254.559459 299.568221 
L 255.21885 267.399118 
L 255.87824 272.319098 
L 256.537631 306.380502 
L 257.197022 268.912958 
L 257.856412 298.432841 
L 258.515803 310.922022 
L 259.175194 351.795707 
L 259.834584 163.322607 
L 260.493975 137.587325 
L 261.812756 298.811301 
L 262.472147 250.746876 
L 263.131538 241.285375 
L 263.790929 260.586837 
L 264.450319 179.596389 
L 265.10971 240.149995 
L 265.769101 263.236058 
L 266.428491 272.697558 
L 267.087882 189.43635 
L 267.747273 305.623582 
L 268.406663 295.026701 
L 269.066054 230.310034 
L 269.725445 296.540541 
L 270.384836 293.512861 
L 271.044226 302.974362 
L 271.703617 290.48518 
L 272.363008 299.568221 
L 273.022398 320.761983 
L 273.681789 301.082061 
L 274.34118 287.07904 
L 275.00057 300.703601 
L 275.659961 296.919001 
L 276.319352 260.208377 
L 276.978742 305.245122 
L 277.638133 245.069976 
L 278.297524 307.515882 
L 278.956915 302.595902 
L 279.616305 315.463543 
L 280.275696 314.706623 
L 280.935087 313.571243 
L 281.594477 315.463543 
L 282.253868 310.543562 
L 282.913259 314.328163 
L 283.572649 309.029722 
L 284.23204 313.949703 
L 284.891431 309.786642 
L 285.550822 314.706623 
L 286.210212 351.417247 
L 286.869603 239.771535 
L 287.528994 192.84249 
L 288.188384 299.189761 
L 288.847775 208.359352 
L 289.507166 200.411691 
L 290.166556 211.765492 
L 290.825947 298.811301 
L 291.485338 301.460521 
L 292.144728 301.838981 
L 292.804119 306.380502 
L 293.46351 302.974362 
L 294.122901 304.866662 
L 295.441682 311.300482 
L 296.101073 266.642198 
L 296.760463 312.814323 
L 297.419854 315.085083 
L 298.079245 314.328163 
L 298.738635 318.112763 
L 299.398026 317.355843 
L 300.057417 327.574264 
L 300.716808 316.977383 
L 301.376198 285.5652 
L 302.035589 308.651262 
L 302.69498 304.866662 
L 303.35437 316.220463 
L 304.013761 321.897364 
L 304.673152 301.082061 
L 305.332542 310.165102 
L 305.991933 267.777578 
L 306.651324 315.463543 
L 307.310714 311.678942 
L 307.970105 313.571243 
L 308.629496 306.002042 
L 309.288887 281.023679 
L 309.948277 261.343757 
L 310.607668 262.857597 
L 311.267059 314.328163 
L 311.926449 265.128358 
L 312.58584 246.205356 
L 313.245231 349.146486 
L 313.904621 166.728748 
L 314.564012 192.46403 
L 315.223403 231.445414 
L 315.882794 301.838981 
L 316.542184 214.414712 
L 317.201575 306.380502 
L 317.860966 291.99902 
L 318.520356 302.595902 
L 319.179747 299.568221 
L 319.839138 243.934596 
L 320.498528 304.109742 
L 321.157919 263.992978 
L 321.81731 304.109742 
L 322.4767 293.134401 
L 323.136091 264.749898 
L 323.795482 301.082061 
L 324.454873 268.156038 
L 325.114263 305.245122 
L 325.773654 308.651262 
L 326.433045 313.192783 
L 327.092435 340.820365 
L 327.751826 131.910424 
L 328.411217 204.574751 
L 329.070607 228.796194 
L 329.729998 288.21442 
L 330.389389 278.374459 
L 331.04878 183.002529 
L 331.70817 284.80828 
L 332.367561 299.189761 
L 333.026952 295.026701 
L 333.686342 259.072997 
L 334.345733 299.946681 
L 335.005124 296.162081 
L 336.323905 300.703601 
L 336.983296 308.651262 
L 337.642686 300.325141 
L 338.302077 310.543562 
L 338.961468 303.731282 
L 339.620859 268.156038 
L 340.280249 316.220463 
L 340.93964 306.758962 
L 341.599031 301.460521 
L 342.258421 307.894342 
L 342.917812 302.217442 
L 343.577203 252.639176 
L 344.236593 295.026701 
L 344.895984 295.405161 
L 345.555375 298.811301 
L 346.214766 296.162081 
L 346.874156 302.595902 
L 347.533547 291.62056 
L 348.192938 243.556135 
L 348.852328 300.325141 
L 349.511719 305.245122 
L 350.17111 306.380502 
L 350.8305 308.651262 
L 351.489891 307.515882 
L 352.808672 315.842003 
L 353.468063 299.189761 
L 354.127454 351.795707 
L 354.786845 267.777578 
L 355.446235 301.460521 
L 356.105626 293.891321 
L 356.765017 284.42982 
L 357.424407 297.675921 
L 358.083798 229.174654 
L 358.743189 242.799215 
L 359.402579 293.134401 
L 360.06197 207.223972 
L 360.721361 276.860619 
L 361.380752 223.876213 
L 362.040142 239.393075 
L 362.699533 186.40867 
L 363.358924 303.352822 
L 364.018314 292.377481 
L 364.677705 228.417734 
L 365.337096 300.703601 
L 365.996486 190.95019 
L 366.655877 296.540541 
L 367.315268 279.888299 
L 367.974658 310.543562 
L 368.634049 302.217442 
L 369.29344 254.909937 
L 370.612221 293.891321 
L 371.271612 272.319098 
L 371.931003 301.082061 
L 372.590393 303.352822 
L 373.249784 236.365395 
L 373.909175 305.623582 
L 375.227956 305.623582 
L 375.887347 308.272802 
L 377.206128 316.220463 
L 377.865519 314.328163 
L 378.52491 316.220463 
L 379.1843 314.328163 
L 379.843691 318.112763 
L 380.503082 281.780599 
L 381.162472 351.795707 
L 381.821863 308.272802 
L 382.481254 303.731282 
L 383.140644 303.352822 
L 383.800035 298.432841 
L 384.459426 303.352822 
L 385.118817 298.811301 
L 385.778207 303.731282 
L 386.437598 299.189761 
L 387.096989 291.2421 
L 387.756379 300.325141 
L 388.41577 271.940638 
L 389.075161 298.432841 
L 389.734551 247.719196 
L 390.393942 253.396096 
L 391.053333 315.085083 
L 391.712724 299.946681 
L 392.372114 307.515882 
L 393.031505 305.245122 
L 393.690896 307.137422 
L 394.350286 312.814323 
L 395.009677 312.057403 
L 395.669068 321.897364 
L 396.328458 314.328163 
L 396.987849 318.869683 
L 397.64724 314.328163 
L 398.30663 316.220463 
L 398.966021 312.435863 
L 399.625412 315.463543 
L 400.284803 311.678942 
L 400.944193 309.408182 
L 401.603584 309.029722 
L 402.262975 282.159059 
L 402.922365 309.029722 
L 403.581756 309.786642 
L 404.241147 309.029722 
L 404.900537 295.783621 
L 405.559928 320.383523 
L 406.219319 312.814323 
L 406.87871 313.949703 
L 407.5381 310.922022 
L 408.197491 352.174167 
L 408.856882 297.297461 
L 409.516272 315.842003 
L 410.175663 302.217442 
L 410.835054 314.328163 
L 411.494444 309.029722 
L 412.153835 316.977383 
L 412.813226 315.085083 
L 413.472616 317.355843 
L 414.132007 312.814323 
L 414.791398 317.734303 
L 415.450789 314.706623 
L 416.110179 264.371438 
L 416.76957 312.057403 
L 417.428961 303.731282 
L 418.088351 274.968319 
L 418.747742 307.515882 
L 419.407133 291.99902 
L 420.066523 306.380502 
L 420.725914 288.21442 
L 421.385305 317.355843 
L 422.044696 321.140443 
L 422.704086 311.300482 
L 423.363477 287.83596 
L 424.022868 315.463543 
L 424.682258 281.780599 
L 425.341649 312.057403 
L 426.00104 306.758962 
L 426.66043 308.651262 
L 427.319821 298.811301 
L 427.979212 304.488202 
L 428.638602 308.651262 
L 429.297993 308.651262 
L 429.957384 297.297461 
L 430.616775 299.568221 
L 431.276165 297.297461 
L 431.935556 304.488202 
L 432.594947 310.165102 
L 433.254337 308.651262 
L 433.913728 313.571243 
L 434.573119 308.272802 
L 435.232509 351.795707 
L 435.8919 312.057403 
L 436.551291 308.272802 
L 437.210682 316.598923 
L 437.870072 310.543562 
L 438.529463 281.023679 
L 439.188854 310.165102 
L 439.848244 311.300482 
L 440.507635 317.734303 
L 441.167026 311.678942 
L 441.826416 314.328163 
L 442.485807 310.922022 
L 443.145198 315.842003 
L 443.804588 318.112763 
L 444.463979 314.706623 
L 445.12337 312.814323 
L 445.782761 309.029722 
L 446.442151 313.949703 
L 447.101542 310.543562 
L 447.760933 316.220463 
L 448.420323 312.057403 
L 449.079714 322.654284 
L 449.739105 266.642198 
L 450.398495 311.678942 
L 451.057886 311.678942 
L 451.717277 319.248143 
L 452.376668 307.894342 
L 453.036058 313.949703 
L 453.695449 318.491223 
L 454.35484 288.21442 
L 455.01423 315.463543 
L 455.673621 316.598923 
L 456.333012 320.383523 
L 456.992402 301.838981 
L 457.651793 315.463543 
L 458.311184 309.786642 
L 458.970574 314.328163 
L 459.629965 311.300482 
L 460.289356 314.706623 
L 460.948747 312.435863 
L 461.608137 304.109742 
L 462.267528 351.795707 
L 462.926919 314.328163 
L 463.586309 309.029722 
L 464.2457 296.162081 
L 464.905091 307.894342 
L 465.564481 314.706623 
L 466.223872 313.949703 
L 466.883263 307.137422 
L 467.542654 313.949703 
L 468.202044 305.245122 
L 468.861435 309.029722 
L 469.520826 313.571243 
L 470.180216 296.919001 
L 470.839607 254.153017 
L 471.498998 242.420755 
L 472.158388 309.408182 
L 472.817779 308.651262 
L 474.13656 258.694537 
L 474.795951 308.651262 
L 475.455342 237.500775 
L 476.114733 308.272802 
L 476.774123 315.085083 
L 477.433514 312.435863 
L 478.092905 318.491223 
L 478.752295 319.626603 
L 479.411686 321.897364 
L 480.071077 317.734303 
L 480.730467 309.786642 
L 481.389858 319.626603 
L 482.049249 315.463543 
L 482.70864 252.639176 
L 483.36803 310.165102 
L 484.027421 319.626603 
L 484.686812 313.571243 
L 485.346202 320.005063 
L 486.005593 318.491223 
L 486.664984 318.112763 
L 487.324374 315.463543 
L 487.983765 314.328163 
L 488.643156 314.706623 
L 489.302546 351.795707 
L 489.961937 318.869683 
L 490.621328 301.460521 
L 491.280719 307.137422 
L 491.940109 311.300482 
L 492.5995 308.272802 
L 493.258891 314.328163 
L 493.918281 310.165102 
L 494.577672 313.571243 
L 495.237063 314.328163 
L 495.896453 307.515882 
L 496.555844 310.922022 
L 497.215235 310.165102 
L 497.874626 287.4575 
L 498.534016 316.977383 
L 499.193407 318.491223 
L 499.852798 319.248143 
L 500.512188 314.328163 
L 501.171579 318.112763 
L 501.83097 308.272802 
L 502.49036 323.032744 
L 503.149751 319.626603 
L 503.809142 294.269781 
L 504.468532 317.355843 
L 504.468532 317.355843 
" style="fill:none;stroke:#d62728;stroke-linecap:square;stroke-width:1.5;"/>
   </g>
   <g id="patch_3">
    <path d="M 130.230156 352.174167 
L 130.230156 35.0625 
" style="fill:none;stroke:#000000;stroke-linecap:square;stroke-linejoin:miter;stroke-width:0.8;"/>
   </g>
   <g id="patch_4">
    <path d="M 529.912969 352.174167 
L 529.912969 35.0625 
" style="fill:none;stroke:#000000;stroke-linecap:square;stroke-linejoin:miter;stroke-width:0.8;"/>
   </g>
   <g id="patch_5">
    <path d="M 130.230156 352.174167 
L 529.912969 352.174167 
" style="fill:none;stroke:#000000;stroke-linecap:square;stroke-linejoin:miter;stroke-width:0.8;"/>
   </g>
   <g id="patch_6">
    <path d="M 130.230156 35.0625 
L 529.912969 35.0625 
" style="fill:none;stroke:#000000;stroke-linecap:square;stroke-linejoin:miter;stroke-width:0.8;"/>
   </g>
   <g id="legend_1">
    <g id="patch_7">
     <path d="M 551.897109 96.775 
L 623.092422 96.775 
Q 625.092422 96.775 625.092422 94.775 
L 625.092422 37.0625 
Q 625.092422 35.0625 623.092422 35.0625 
L 551.897109 35.0625 
Q 549.897109 35.0625 549.897109 37.0625 
L 549.897109 94.775 
Q 549.897109 96.775 551.897109 96.775 
z
" style="fill:#ffffff;opacity:0.8;stroke:#cccccc;stroke-linejoin:miter;"/>
    </g>
    <g id="line2d_18">
     <path d="M 553.897109 43.160937 
L 573.897109 43.160937 
" style="fill:none;stroke:#1f77b4;stroke-linecap:square;stroke-width:1.5;"/>
    </g>
    <g id="line2d_19"/>
    <g id="text_15">
     <!-- bbr2-pi -->
     <defs>
      <path d="M 41.109375 46.296875 
Q 39.59375 47.171875 37.8125 47.578125 
Q 36.03125 48 33.890625 48 
Q 26.265625 48 22.1875 43.046875 
Q 18.109375 38.09375 18.109375 28.8125 
L 18.109375 0 
L 9.078125 0 
L 9.078125 54.6875 
L 18.109375 54.6875 
L 18.109375 46.1875 
Q 20.953125 51.171875 25.484375 53.578125 
Q 30.03125 56 36.53125 56 
Q 37.453125 56 38.578125 55.875 
Q 39.703125 55.765625 41.0625 55.515625 
z
" id="DejaVuSans-114"/>
      <path d="M 4.890625 31.390625 
L 31.203125 31.390625 
L 31.203125 23.390625 
L 4.890625 23.390625 
z
" id="DejaVuSans-45"/>
      <path d="M 18.109375 8.203125 
L 18.109375 -20.796875 
L 9.078125 -20.796875 
L 9.078125 54.6875 
L 18.109375 54.6875 
L 18.109375 46.390625 
Q 20.953125 51.265625 25.265625 53.625 
Q 29.59375 56 35.59375 56 
Q 45.5625 56 51.78125 48.09375 
Q 58.015625 40.1875 58.015625 27.296875 
Q 58.015625 14.40625 51.78125 6.484375 
Q 45.5625 -1.421875 35.59375 -1.421875 
Q 29.59375 -1.421875 25.265625 0.953125 
Q 20.953125 3.328125 18.109375 8.203125 
z
M 48.6875 27.296875 
Q 48.6875 37.203125 44.609375 42.84375 
Q 40.53125 48.484375 33.40625 48.484375 
Q 26.265625 48.484375 22.1875 42.84375 
Q 18.109375 37.203125 18.109375 27.296875 
Q 18.109375 17.390625 22.1875 11.75 
Q 26.265625 6.109375 33.40625 6.109375 
Q 40.53125 6.109375 44.609375 11.75 
Q 48.6875 17.390625 48.6875 27.296875 
z
" id="DejaVuSans-112"/>
     </defs>
     <g transform="translate(581.897109 46.660937)scale(0.1 -0.1)">
      <use xlink:href="#DejaVuSans-98"/>
      <use x="63.476562" xlink:href="#DejaVuSans-98"/>
      <use x="126.953125" xlink:href="#DejaVuSans-114"/>
      <use x="168.066406" xlink:href="#DejaVuSans-50"/>
      <use x="231.689453" xlink:href="#DejaVuSans-45"/>
      <use x="267.773438" xlink:href="#DejaVuSans-112"/>
      <use x="331.25" xlink:href="#DejaVuSans-105"/>
     </g>
    </g>
    <g id="line2d_20">
     <path d="M 553.897109 57.839063 
L 573.897109 57.839063 
" style="fill:none;stroke:#ff7f0e;stroke-linecap:square;stroke-width:1.5;"/>
    </g>
    <g id="line2d_21"/>
    <g id="text_16">
     <!-- cubic-pi -->
     <defs>
      <path d="M 48.78125 52.59375 
L 48.78125 44.1875 
Q 44.96875 46.296875 41.140625 47.34375 
Q 37.3125 48.390625 33.40625 48.390625 
Q 24.65625 48.390625 19.8125 42.84375 
Q 14.984375 37.3125 14.984375 27.296875 
Q 14.984375 17.28125 19.8125 11.734375 
Q 24.65625 6.203125 33.40625 6.203125 
Q 37.3125 6.203125 41.140625 7.25 
Q 44.96875 8.296875 48.78125 10.40625 
L 48.78125 2.09375 
Q 45.015625 0.34375 40.984375 -0.53125 
Q 36.96875 -1.421875 32.421875 -1.421875 
Q 20.0625 -1.421875 12.78125 6.34375 
Q 5.515625 14.109375 5.515625 27.296875 
Q 5.515625 40.671875 12.859375 48.328125 
Q 20.21875 56 33.015625 56 
Q 37.15625 56 41.109375 55.140625 
Q 45.0625 54.296875 48.78125 52.59375 
z
" id="DejaVuSans-99"/>
      <path d="M 8.5 21.578125 
L 8.5 54.6875 
L 17.484375 54.6875 
L 17.484375 21.921875 
Q 17.484375 14.15625 20.5 10.265625 
Q 23.53125 6.390625 29.59375 6.390625 
Q 36.859375 6.390625 41.078125 11.03125 
Q 45.3125 15.671875 45.3125 23.6875 
L 45.3125 54.6875 
L 54.296875 54.6875 
L 54.296875 0 
L 45.3125 0 
L 45.3125 8.40625 
Q 42.046875 3.421875 37.71875 1 
Q 33.40625 -1.421875 27.6875 -1.421875 
Q 18.265625 -1.421875 13.375 4.4375 
Q 8.5 10.296875 8.5 21.578125 
z
M 31.109375 56 
z
" id="DejaVuSans-117"/>
     </defs>
     <g transform="translate(581.897109 61.339063)scale(0.1 -0.1)">
      <use xlink:href="#DejaVuSans-99"/>
      <use x="54.980469" xlink:href="#DejaVuSans-117"/>
      <use x="118.359375" xlink:href="#DejaVuSans-98"/>
      <use x="181.835938" xlink:href="#DejaVuSans-105"/>
      <use x="209.619141" xlink:href="#DejaVuSans-99"/>
      <use x="264.599609" xlink:href="#DejaVuSans-45"/>
      <use x="300.683594" xlink:href="#DejaVuSans-112"/>
      <use x="364.160156" xlink:href="#DejaVuSans-105"/>
     </g>
    </g>
    <g id="line2d_22">
     <path d="M 553.897109 72.517187 
L 573.897109 72.517187 
" style="fill:none;stroke:#2ca02c;stroke-linecap:square;stroke-width:1.5;"/>
    </g>
    <g id="line2d_23"/>
    <g id="text_17">
     <!-- cubic-pi -->
     <g transform="translate(581.897109 76.017187)scale(0.1 -0.1)">
      <use xlink:href="#DejaVuSans-99"/>
      <use x="54.980469" xlink:href="#DejaVuSans-117"/>
      <use x="118.359375" xlink:href="#DejaVuSans-98"/>
      <use x="181.835938" xlink:href="#DejaVuSans-105"/>
      <use x="209.619141" xlink:href="#DejaVuSans-99"/>
      <use x="264.599609" xlink:href="#DejaVuSans-45"/>
      <use x="300.683594" xlink:href="#DejaVuSans-112"/>
      <use x="364.160156" xlink:href="#DejaVuSans-105"/>
     </g>
    </g>
    <g id="line2d_24">
     <path d="M 553.897109 87.195312 
L 573.897109 87.195312 
" style="fill:none;stroke:#d62728;stroke-linecap:square;stroke-width:1.5;"/>
    </g>
    <g id="line2d_25"/>
    <g id="text_18">
     <!-- bbr2-pi -->
     <g transform="translate(581.897109 90.695312)scale(0.1 -0.1)">
      <use xlink:href="#DejaVuSans-98"/>
      <use x="63.476562" xlink:href="#DejaVuSans-98"/>
      <use x="126.953125" xlink:href="#DejaVuSans-114"/>
      <use x="168.066406" xlink:href="#DejaVuSans-50"/>
      <use x="231.689453" xlink:href="#DejaVuSans-45"/>
      <use x="267.773438" xlink:href="#DejaVuSans-112"/>
      <use x="331.25" xlink:href="#DejaVuSans-105"/>
     </g>
    </g>
   </g>
  </g>
  <g id="text_19">
   <!-- result inflight -->
   <defs>
    <path id="DejaVuSans-32"/>
   </defs>
   <g transform="translate(302.110313 17.038125)scale(0.12 -0.12)">
    <use xlink:href="#DejaVuSans-114"/>
    <use x="41.082031" xlink:href="#DejaVuSans-101"/>
    <use x="102.605469" xlink:href="#DejaVuSans-115"/>
    <use x="154.705078" xlink:href="#DejaVuSans-117"/>
    <use x="218.083984" xlink:href="#DejaVuSans-108"/>
    <use x="245.867188" xlink:href="#DejaVuSans-116"/>
    <use x="285.076172" xlink:href="#DejaVuSans-32"/>
    <use x="316.863281" xlink:href="#DejaVuSans-105"/>
    <use x="344.646484" xlink:href="#DejaVuSans-110"/>
    <use x="408.025391" xlink:href="#DejaVuSans-102"/>
    <use x="443.230469" xlink:href="#DejaVuSans-108"/>
    <use x="471.013672" xlink:href="#DejaVuSans-105"/>
    <use x="498.796875" xlink:href="#DejaVuSans-103"/>
    <use x="562.273438" xlink:href="#DejaVuSans-104"/>
    <use x="625.652344" xlink:href="#DejaVuSans-116"/>
   </g>
  </g>
 </g>
 <defs>
  <clipPath id="p8c9bab8e49">
   <rect height="317.111667" width="399.682812" x="130.230156" y="35.0625"/>
  </clipPath>
 </defs>
</svg>
