<?xml version="1.0" encoding="utf-8" standalone="no"?>
<!DOCTYPE svg PUBLIC "-//W3C//DTD SVG 1.1//EN"
  "http://www.w3.org/Graphics/SVG/1.1/DTD/svg11.dtd">
<!-- Created with matplotlib (https://matplotlib.org/) -->
<svg height="396pt" version="1.1" viewBox="0 0 684 396" width="684pt" xmlns="http://www.w3.org/2000/svg" xmlns:xlink="http://www.w3.org/1999/xlink">
 <defs>
  <style type="text/css">
*{stroke-linecap:butt;stroke-linejoin:round;}
  </style>
 </defs>
 <g id="figure_1">
  <g id="patch_1">
   <path d="M 0 396 
L 684 396 
L 684 0 
L 0 0 
z
" style="fill:#ffffff;"/>
  </g>
  <g id="axes_1">
   <g id="patch_2">
    <path d="M 92.823906 352.174167 
L 544.073906 352.174167 
L 544.073906 35.0625 
L 92.823906 35.0625 
z
" style="fill:#ffffff;"/>
   </g>
   <g id="matplotlib.axis_1">
    <g id="xtick_1">
     <g id="line2d_1">
      <defs>
       <path d="M 0 0 
L 0 3.5 
" id="mdba97c1346" style="stroke:#000000;stroke-width:0.8;"/>
      </defs>
      <g>
       <use style="stroke:#000000;stroke-width:0.8;" x="113.33527" xlink:href="#mdba97c1346" y="352.174167"/>
      </g>
     </g>
     <g id="text_1">
      <!-- 0 -->
      <defs>
       <path d="M 31.78125 66.40625 
Q 24.171875 66.40625 20.328125 58.90625 
Q 16.5 51.421875 16.5 36.375 
Q 16.5 21.390625 20.328125 13.890625 
Q 24.171875 6.390625 31.78125 6.390625 
Q 39.453125 6.390625 43.28125 13.890625 
Q 47.125 21.390625 47.125 36.375 
Q 47.125 51.421875 43.28125 58.90625 
Q 39.453125 66.40625 31.78125 66.40625 
z
M 31.78125 74.21875 
Q 44.046875 74.21875 50.515625 64.515625 
Q 56.984375 54.828125 56.984375 36.375 
Q 56.984375 17.96875 50.515625 8.265625 
Q 44.046875 -1.421875 31.78125 -1.421875 
Q 19.53125 -1.421875 13.0625 8.265625 
Q 6.59375 17.96875 6.59375 36.375 
Q 6.59375 54.828125 13.0625 64.515625 
Q 19.53125 74.21875 31.78125 74.21875 
z
" id="DejaVuSans-48"/>
      </defs>
      <g transform="translate(110.15402 366.772604)scale(0.1 -0.1)">
       <use xlink:href="#DejaVuSans-48"/>
      </g>
     </g>
    </g>
    <g id="xtick_2">
     <g id="line2d_2">
      <g>
       <use style="stroke:#000000;stroke-width:0.8;" x="187.78587" xlink:href="#mdba97c1346" y="352.174167"/>
      </g>
     </g>
     <g id="text_2">
      <!-- 50 -->
      <defs>
       <path d="M 10.796875 72.90625 
L 49.515625 72.90625 
L 49.515625 64.59375 
L 19.828125 64.59375 
L 19.828125 46.734375 
Q 21.96875 47.46875 24.109375 47.828125 
Q 26.265625 48.1875 28.421875 48.1875 
Q 40.625 48.1875 47.75 41.5 
Q 54.890625 34.8125 54.890625 23.390625 
Q 54.890625 11.625 47.5625 5.09375 
Q 40.234375 -1.421875 26.90625 -1.421875 
Q 22.3125 -1.421875 17.546875 -0.640625 
Q 12.796875 0.140625 7.71875 1.703125 
L 7.71875 11.625 
Q 12.109375 9.234375 16.796875 8.0625 
Q 21.484375 6.890625 26.703125 6.890625 
Q 35.15625 6.890625 40.078125 11.328125 
Q 45.015625 15.765625 45.015625 23.390625 
Q 45.015625 31 40.078125 35.4375 
Q 35.15625 39.890625 26.703125 39.890625 
Q 22.75 39.890625 18.8125 39.015625 
Q 14.890625 38.140625 10.796875 36.28125 
z
" id="DejaVuSans-53"/>
      </defs>
      <g transform="translate(181.42337 366.772604)scale(0.1 -0.1)">
       <use xlink:href="#DejaVuSans-53"/>
       <use x="63.623047" xlink:href="#DejaVuSans-48"/>
      </g>
     </g>
    </g>
    <g id="xtick_3">
     <g id="line2d_3">
      <g>
       <use style="stroke:#000000;stroke-width:0.8;" x="262.23647" xlink:href="#mdba97c1346" y="352.174167"/>
      </g>
     </g>
     <g id="text_3">
      <!-- 100 -->
      <defs>
       <path d="M 12.40625 8.296875 
L 28.515625 8.296875 
L 28.515625 63.921875 
L 10.984375 60.40625 
L 10.984375 69.390625 
L 28.421875 72.90625 
L 38.28125 72.90625 
L 38.28125 8.296875 
L 54.390625 8.296875 
L 54.390625 0 
L 12.40625 0 
z
" id="DejaVuSans-49"/>
      </defs>
      <g transform="translate(252.69272 366.772604)scale(0.1 -0.1)">
       <use xlink:href="#DejaVuSans-49"/>
       <use x="63.623047" xlink:href="#DejaVuSans-48"/>
       <use x="127.246094" xlink:href="#DejaVuSans-48"/>
      </g>
     </g>
    </g>
    <g id="xtick_4">
     <g id="line2d_4">
      <g>
       <use style="stroke:#000000;stroke-width:0.8;" x="336.68707" xlink:href="#mdba97c1346" y="352.174167"/>
      </g>
     </g>
     <g id="text_4">
      <!-- 150 -->
      <g transform="translate(327.14332 366.772604)scale(0.1 -0.1)">
       <use xlink:href="#DejaVuSans-49"/>
       <use x="63.623047" xlink:href="#DejaVuSans-53"/>
       <use x="127.246094" xlink:href="#DejaVuSans-48"/>
      </g>
     </g>
    </g>
    <g id="xtick_5">
     <g id="line2d_5">
      <g>
       <use style="stroke:#000000;stroke-width:0.8;" x="411.13767" xlink:href="#mdba97c1346" y="352.174167"/>
      </g>
     </g>
     <g id="text_5">
      <!-- 200 -->
      <defs>
       <path d="M 19.1875 8.296875 
L 53.609375 8.296875 
L 53.609375 0 
L 7.328125 0 
L 7.328125 8.296875 
Q 12.9375 14.109375 22.625 23.890625 
Q 32.328125 33.6875 34.8125 36.53125 
Q 39.546875 41.84375 41.421875 45.53125 
Q 43.3125 49.21875 43.3125 52.78125 
Q 43.3125 58.59375 39.234375 62.25 
Q 35.15625 65.921875 28.609375 65.921875 
Q 23.96875 65.921875 18.8125 64.3125 
Q 13.671875 62.703125 7.8125 59.421875 
L 7.8125 69.390625 
Q 13.765625 71.78125 18.9375 73 
Q 24.125 74.21875 28.421875 74.21875 
Q 39.75 74.21875 46.484375 68.546875 
Q 53.21875 62.890625 53.21875 53.421875 
Q 53.21875 48.921875 51.53125 44.890625 
Q 49.859375 40.875 45.40625 35.40625 
Q 44.1875 33.984375 37.640625 27.21875 
Q 31.109375 20.453125 19.1875 8.296875 
z
" id="DejaVuSans-50"/>
      </defs>
      <g transform="translate(401.59392 366.772604)scale(0.1 -0.1)">
       <use xlink:href="#DejaVuSans-50"/>
       <use x="63.623047" xlink:href="#DejaVuSans-48"/>
       <use x="127.246094" xlink:href="#DejaVuSans-48"/>
      </g>
     </g>
    </g>
    <g id="xtick_6">
     <g id="line2d_6">
      <g>
       <use style="stroke:#000000;stroke-width:0.8;" x="485.58827" xlink:href="#mdba97c1346" y="352.174167"/>
      </g>
     </g>
     <g id="text_6">
      <!-- 250 -->
      <g transform="translate(476.04452 366.772604)scale(0.1 -0.1)">
       <use xlink:href="#DejaVuSans-50"/>
       <use x="63.623047" xlink:href="#DejaVuSans-53"/>
       <use x="127.246094" xlink:href="#DejaVuSans-48"/>
      </g>
     </g>
    </g>
   </g>
   <g id="matplotlib.axis_2">
    <g id="ytick_1">
     <g id="line2d_7">
      <defs>
       <path d="M 0 0 
L -3.5 0 
" id="m51f4c84592" style="stroke:#000000;stroke-width:0.8;"/>
      </defs>
      <g>
       <use style="stroke:#000000;stroke-width:0.8;" x="92.823906" xlink:href="#m51f4c84592" y="352.174167"/>
      </g>
     </g>
     <g id="text_7">
      <!-- 0 -->
      <g transform="translate(79.461406 355.973385)scale(0.1 -0.1)">
       <use xlink:href="#DejaVuSans-48"/>
      </g>
     </g>
    </g>
    <g id="ytick_2">
     <g id="line2d_8">
      <g>
       <use style="stroke:#000000;stroke-width:0.8;" x="92.823906" xlink:href="#m51f4c84592" y="298.316886"/>
      </g>
     </g>
     <g id="text_8">
      <!-- 100 -->
      <g transform="translate(66.736406 302.116105)scale(0.1 -0.1)">
       <use xlink:href="#DejaVuSans-49"/>
       <use x="63.623047" xlink:href="#DejaVuSans-48"/>
       <use x="127.246094" xlink:href="#DejaVuSans-48"/>
      </g>
     </g>
    </g>
    <g id="ytick_3">
     <g id="line2d_9">
      <g>
       <use style="stroke:#000000;stroke-width:0.8;" x="92.823906" xlink:href="#m51f4c84592" y="244.459606"/>
      </g>
     </g>
     <g id="text_9">
      <!-- 200 -->
      <g transform="translate(66.736406 248.258825)scale(0.1 -0.1)">
       <use xlink:href="#DejaVuSans-50"/>
       <use x="63.623047" xlink:href="#DejaVuSans-48"/>
       <use x="127.246094" xlink:href="#DejaVuSans-48"/>
      </g>
     </g>
    </g>
    <g id="ytick_4">
     <g id="line2d_10">
      <g>
       <use style="stroke:#000000;stroke-width:0.8;" x="92.823906" xlink:href="#m51f4c84592" y="190.602326"/>
      </g>
     </g>
     <g id="text_10">
      <!-- 300 -->
      <defs>
       <path d="M 40.578125 39.3125 
Q 47.65625 37.796875 51.625 33 
Q 55.609375 28.21875 55.609375 21.1875 
Q 55.609375 10.40625 48.1875 4.484375 
Q 40.765625 -1.421875 27.09375 -1.421875 
Q 22.515625 -1.421875 17.65625 -0.515625 
Q 12.796875 0.390625 7.625 2.203125 
L 7.625 11.71875 
Q 11.71875 9.328125 16.59375 8.109375 
Q 21.484375 6.890625 26.8125 6.890625 
Q 36.078125 6.890625 40.9375 10.546875 
Q 45.796875 14.203125 45.796875 21.1875 
Q 45.796875 27.640625 41.28125 31.265625 
Q 36.765625 34.90625 28.71875 34.90625 
L 20.21875 34.90625 
L 20.21875 43.015625 
L 29.109375 43.015625 
Q 36.375 43.015625 40.234375 45.921875 
Q 44.09375 48.828125 44.09375 54.296875 
Q 44.09375 59.90625 40.109375 62.90625 
Q 36.140625 65.921875 28.71875 65.921875 
Q 24.65625 65.921875 20.015625 65.03125 
Q 15.375 64.15625 9.8125 62.3125 
L 9.8125 71.09375 
Q 15.4375 72.65625 20.34375 73.4375 
Q 25.25 74.21875 29.59375 74.21875 
Q 40.828125 74.21875 47.359375 69.109375 
Q 53.90625 64.015625 53.90625 55.328125 
Q 53.90625 49.265625 50.4375 45.09375 
Q 46.96875 40.921875 40.578125 39.3125 
z
" id="DejaVuSans-51"/>
      </defs>
      <g transform="translate(66.736406 194.401544)scale(0.1 -0.1)">
       <use xlink:href="#DejaVuSans-51"/>
       <use x="63.623047" xlink:href="#DejaVuSans-48"/>
       <use x="127.246094" xlink:href="#DejaVuSans-48"/>
      </g>
     </g>
    </g>
    <g id="ytick_5">
     <g id="line2d_11">
      <g>
       <use style="stroke:#000000;stroke-width:0.8;" x="92.823906" xlink:href="#m51f4c84592" y="136.745045"/>
      </g>
     </g>
     <g id="text_11">
      <!-- 400 -->
      <defs>
       <path d="M 37.796875 64.3125 
L 12.890625 25.390625 
L 37.796875 25.390625 
z
M 35.203125 72.90625 
L 47.609375 72.90625 
L 47.609375 25.390625 
L 58.015625 25.390625 
L 58.015625 17.1875 
L 47.609375 17.1875 
L 47.609375 0 
L 37.796875 0 
L 37.796875 17.1875 
L 4.890625 17.1875 
L 4.890625 26.703125 
z
" id="DejaVuSans-52"/>
      </defs>
      <g transform="translate(66.736406 140.544264)scale(0.1 -0.1)">
       <use xlink:href="#DejaVuSans-52"/>
       <use x="63.623047" xlink:href="#DejaVuSans-48"/>
       <use x="127.246094" xlink:href="#DejaVuSans-48"/>
      </g>
     </g>
    </g>
    <g id="ytick_6">
     <g id="line2d_12">
      <g>
       <use style="stroke:#000000;stroke-width:0.8;" x="92.823906" xlink:href="#m51f4c84592" y="82.887765"/>
      </g>
     </g>
     <g id="text_12">
      <!-- 500 -->
      <g transform="translate(66.736406 86.686984)scale(0.1 -0.1)">
       <use xlink:href="#DejaVuSans-53"/>
       <use x="63.623047" xlink:href="#DejaVuSans-48"/>
       <use x="127.246094" xlink:href="#DejaVuSans-48"/>
      </g>
     </g>
    </g>
    <g id="text_13">
     <!-- rtt -->
     <defs>
      <path d="M 41.109375 46.296875 
Q 39.59375 47.171875 37.8125 47.578125 
Q 36.03125 48 33.890625 48 
Q 26.265625 48 22.1875 43.046875 
Q 18.109375 38.09375 18.109375 28.8125 
L 18.109375 0 
L 9.078125 0 
L 9.078125 54.6875 
L 18.109375 54.6875 
L 18.109375 46.1875 
Q 20.953125 51.171875 25.484375 53.578125 
Q 30.03125 56 36.53125 56 
Q 37.453125 56 38.578125 55.875 
Q 39.703125 55.765625 41.0625 55.515625 
z
" id="DejaVuSans-114"/>
      <path d="M 18.3125 70.21875 
L 18.3125 54.6875 
L 36.8125 54.6875 
L 36.8125 47.703125 
L 18.3125 47.703125 
L 18.3125 18.015625 
Q 18.3125 11.328125 20.140625 9.421875 
Q 21.96875 7.515625 27.59375 7.515625 
L 36.8125 7.515625 
L 36.8125 0 
L 27.59375 0 
Q 17.1875 0 13.234375 3.875 
Q 9.28125 7.765625 9.28125 18.015625 
L 9.28125 47.703125 
L 2.6875 47.703125 
L 2.6875 54.6875 
L 9.28125 54.6875 
L 9.28125 70.21875 
z
" id="DejaVuSans-116"/>
     </defs>
     <g transform="translate(49.458906 199.594115)rotate(-90)scale(0.1 -0.1)">
      <use xlink:href="#DejaVuSans-114"/>
      <use x="41.113281" xlink:href="#DejaVuSans-116"/>
      <use x="80.322266" xlink:href="#DejaVuSans-116"/>
     </g>
     <!-- (ms) -->
     <defs>
      <path d="M 31 75.875 
Q 24.46875 64.65625 21.28125 53.65625 
Q 18.109375 42.671875 18.109375 31.390625 
Q 18.109375 20.125 21.3125 9.0625 
Q 24.515625 -2 31 -13.1875 
L 23.1875 -13.1875 
Q 15.875 -1.703125 12.234375 9.375 
Q 8.59375 20.453125 8.59375 31.390625 
Q 8.59375 42.28125 12.203125 53.3125 
Q 15.828125 64.359375 23.1875 75.875 
z
" id="DejaVuSans-40"/>
      <path d="M 52 44.1875 
Q 55.375 50.25 60.0625 53.125 
Q 64.75 56 71.09375 56 
Q 79.640625 56 84.28125 50.015625 
Q 88.921875 44.046875 88.921875 33.015625 
L 88.921875 0 
L 79.890625 0 
L 79.890625 32.71875 
Q 79.890625 40.578125 77.09375 44.375 
Q 74.3125 48.1875 68.609375 48.1875 
Q 61.625 48.1875 57.5625 43.546875 
Q 53.515625 38.921875 53.515625 30.90625 
L 53.515625 0 
L 44.484375 0 
L 44.484375 32.71875 
Q 44.484375 40.625 41.703125 44.40625 
Q 38.921875 48.1875 33.109375 48.1875 
Q 26.21875 48.1875 22.15625 43.53125 
Q 18.109375 38.875 18.109375 30.90625 
L 18.109375 0 
L 9.078125 0 
L 9.078125 54.6875 
L 18.109375 54.6875 
L 18.109375 46.1875 
Q 21.1875 51.21875 25.484375 53.609375 
Q 29.78125 56 35.6875 56 
Q 41.65625 56 45.828125 52.96875 
Q 50 49.953125 52 44.1875 
z
" id="DejaVuSans-109"/>
      <path d="M 44.28125 53.078125 
L 44.28125 44.578125 
Q 40.484375 46.53125 36.375 47.5 
Q 32.28125 48.484375 27.875 48.484375 
Q 21.1875 48.484375 17.84375 46.4375 
Q 14.5 44.390625 14.5 40.28125 
Q 14.5 37.15625 16.890625 35.375 
Q 19.28125 33.59375 26.515625 31.984375 
L 29.59375 31.296875 
Q 39.15625 29.25 43.1875 25.515625 
Q 47.21875 21.78125 47.21875 15.09375 
Q 47.21875 7.46875 41.1875 3.015625 
Q 35.15625 -1.421875 24.609375 -1.421875 
Q 20.21875 -1.421875 15.453125 -0.5625 
Q 10.6875 0.296875 5.421875 2 
L 5.421875 11.28125 
Q 10.40625 8.6875 15.234375 7.390625 
Q 20.0625 6.109375 24.8125 6.109375 
Q 31.15625 6.109375 34.5625 8.28125 
Q 37.984375 10.453125 37.984375 14.40625 
Q 37.984375 18.0625 35.515625 20.015625 
Q 33.0625 21.96875 24.703125 23.78125 
L 21.578125 24.515625 
Q 13.234375 26.265625 9.515625 29.90625 
Q 5.8125 33.546875 5.8125 39.890625 
Q 5.8125 47.609375 11.28125 51.796875 
Q 16.75 56 26.8125 56 
Q 31.78125 56 36.171875 55.265625 
Q 40.578125 54.546875 44.28125 53.078125 
z
" id="DejaVuSans-115"/>
      <path d="M 8.015625 75.875 
L 15.828125 75.875 
Q 23.140625 64.359375 26.78125 53.3125 
Q 30.421875 42.28125 30.421875 31.390625 
Q 30.421875 20.453125 26.78125 9.375 
Q 23.140625 -1.703125 15.828125 -13.1875 
L 8.015625 -13.1875 
Q 14.5 -2 17.703125 9.0625 
Q 20.90625 20.125 20.90625 31.390625 
Q 20.90625 42.671875 17.703125 53.65625 
Q 14.5 64.65625 8.015625 75.875 
z
" id="DejaVuSans-41"/>
     </defs>
     <g transform="translate(60.656719 204.994896)rotate(-90)scale(0.1 -0.1)">
      <use xlink:href="#DejaVuSans-40"/>
      <use x="39.013672" xlink:href="#DejaVuSans-109"/>
      <use x="136.425781" xlink:href="#DejaVuSans-115"/>
      <use x="188.525391" xlink:href="#DejaVuSans-41"/>
     </g>
    </g>
   </g>
   <g id="line2d_13">
    <path clip-path="url(#p86a9d16ced)" d="M 113.33527 320.936944 
L 114.079776 337.094128 
L 115.568788 338.171274 
L 116.313294 322.552662 
L 117.0578 314.47407 
L 117.802306 320.936944 
L 118.546812 323.091235 
L 119.291318 317.166934 
L 120.035824 264.3868 
L 120.78033 283.236848 
L 121.524836 296.162595 
L 122.269342 303.164042 
L 123.013848 268.156809 
L 123.758354 307.472624 
L 124.50286 195.988054 
L 125.247366 171.752278 
L 125.991872 250.92248 
L 126.736378 165.289404 
L 127.480884 259.001072 
L 128.22539 259.539644 
L 128.969896 247.15247 
L 129.714402 268.695382 
L 130.458908 249.306761 
L 131.94792 192.756617 
L 132.692426 215.376675 
L 133.436932 223.455267 
L 134.181438 215.376675 
L 134.925944 293.469731 
L 135.67045 49.496251 
L 136.414956 54.343406 
L 137.159462 193.29519 
L 137.903968 222.378121 
L 138.648474 199.21949 
L 139.39298 252.538198 
L 140.137486 262.771081 
L 141.626498 233.149577 
L 142.371004 193.29519 
L 143.11551 246.613897 
L 143.860016 265.463945 
L 145.349028 233.149577 
L 146.093534 183.600879 
L 146.83804 164.750831 
L 147.582546 50.573397 
L 148.327052 264.925373 
L 149.071558 239.073878 
L 149.816064 296.162595 
L 150.56057 325.784099 
L 151.305076 322.552662 
L 152.049582 324.706954 
L 152.794088 324.706954 
L 154.2831 322.552662 
L 155.027606 322.01409 
L 155.772112 322.01409 
L 156.516618 321.475517 
L 157.261124 321.475517 
L 158.00563 322.01409 
L 158.750136 320.936944 
L 159.494642 321.475517 
L 160.239148 320.936944 
L 160.983654 321.475517 
L 161.72816 321.475517 
L 162.472666 320.936944 
L 163.217172 320.936944 
L 164.706184 322.01409 
L 165.45069 333.324119 
L 166.195196 319.321226 
L 166.939702 319.859798 
L 167.684208 320.936944 
L 168.428714 320.398371 
L 169.17322 320.398371 
L 169.917726 320.936944 
L 170.662232 320.936944 
L 171.406738 320.398371 
L 172.151244 320.936944 
L 172.89575 320.936944 
L 173.640256 320.398371 
L 174.384762 320.936944 
L 175.129268 320.398371 
L 175.873774 320.398371 
L 176.61828 320.936944 
L 177.362786 320.936944 
L 178.107292 320.398371 
L 178.851798 320.936944 
L 179.596304 320.936944 
L 180.34081 331.169827 
L 181.085316 320.398371 
L 181.829822 319.321226 
L 182.574328 322.01409 
L 183.318834 321.475517 
L 184.06334 321.475517 
L 184.807846 322.01409 
L 186.296858 320.936944 
L 187.041364 321.475517 
L 187.78587 320.936944 
L 188.530376 321.475517 
L 189.274882 321.475517 
L 190.019388 322.01409 
L 191.5084 320.936944 
L 192.252906 321.475517 
L 192.997412 321.475517 
L 193.741918 320.936944 
L 195.23093 322.01409 
L 195.975436 334.939837 
L 196.719942 319.321226 
L 197.464448 319.321226 
L 198.208954 320.936944 
L 198.95346 322.01409 
L 199.697966 322.01409 
L 200.442472 321.475517 
L 201.186978 321.475517 
L 201.931484 322.01409 
L 203.420496 320.936944 
L 205.654014 320.936944 
L 206.39852 321.475517 
L 207.143026 320.936944 
L 208.632038 320.936944 
L 209.376544 320.398371 
L 210.12105 320.936944 
L 210.865556 328.476963 
L 211.610062 325.784099 
L 212.354568 317.705507 
L 213.099074 320.936944 
L 214.588086 320.936944 
L 215.332592 320.398371 
L 216.077098 320.936944 
L 216.821604 320.398371 
L 218.310616 320.398371 
L 219.055122 320.936944 
L 219.799628 320.936944 
L 220.544134 320.398371 
L 221.28864 320.936944 
L 225.755676 320.936944 
L 226.500182 336.016983 
L 227.244688 319.859798 
L 227.989194 319.321226 
L 228.7337 321.475517 
L 229.478206 320.936944 
L 230.222712 320.936944 
L 230.967218 320.398371 
L 231.711724 320.936944 
L 232.45623 320.936944 
L 233.200736 321.475517 
L 235.434254 321.475517 
L 236.17876 320.936944 
L 237.667772 322.01409 
L 238.412278 322.01409 
L 239.90129 320.936944 
L 240.645796 321.475517 
L 241.390302 325.245526 
L 242.134808 331.169827 
L 242.879314 318.24408 
L 243.62382 320.398371 
L 244.368326 320.936944 
L 245.857338 320.936944 
L 246.601844 320.398371 
L 247.34635 320.936944 
L 251.813386 320.936944 
L 252.557892 320.398371 
L 253.302398 320.936944 
L 256.280422 320.936944 
L 257.024928 335.47841 
L 257.769434 322.552662 
L 258.51394 319.321226 
L 259.258446 321.475517 
L 260.002952 320.936944 
L 260.747458 321.475517 
L 263.725482 321.475517 
L 264.469988 320.936944 
L 265.959 320.936944 
L 266.703506 320.398371 
L 267.448012 320.398371 
L 268.937024 321.475517 
L 269.68153 320.398371 
L 270.426036 320.936944 
L 271.170542 320.936944 
L 271.915048 323.091235 
L 272.659554 332.246973 
L 273.40406 319.321226 
L 274.148566 319.859798 
L 274.893072 320.936944 
L 275.637578 320.936944 
L 276.382084 321.475517 
L 277.12659 320.936944 
L 277.871096 321.475517 
L 279.360108 321.475517 
L 280.104614 320.936944 
L 280.84912 321.475517 
L 283.082638 321.475517 
L 283.827144 320.936944 
L 284.57165 320.936944 
L 285.316156 321.475517 
L 286.060662 320.936944 
L 286.805168 321.475517 
L 287.549674 334.401264 
L 288.29418 323.629808 
L 289.038686 318.782653 
L 289.783192 320.936944 
L 291.272204 320.936944 
L 292.01671 321.475517 
L 292.761216 320.936944 
L 293.505722 321.475517 
L 294.250228 321.475517 
L 294.994734 320.936944 
L 295.73924 321.475517 
L 296.483746 320.936944 
L 297.228252 320.936944 
L 297.972758 320.398371 
L 298.717264 320.398371 
L 299.46177 320.936944 
L 300.206276 320.936944 
L 300.950782 321.475517 
L 301.695288 320.936944 
L 302.439794 322.552662 
L 303.1843 329.554109 
L 303.928806 316.628362 
L 304.673312 320.936944 
L 305.417818 321.475517 
L 306.162324 320.398371 
L 306.90683 320.936944 
L 309.884854 320.936944 
L 310.62936 321.475517 
L 311.373866 320.936944 
L 313.607384 320.936944 
L 314.35189 320.398371 
L 315.096396 321.475517 
L 315.840902 320.936944 
L 317.329914 320.936944 
L 318.07442 332.246973 
L 318.818926 323.091235 
L 319.563432 318.24408 
L 320.307938 320.936944 
L 321.052444 320.398371 
L 322.541456 320.398371 
L 323.285962 320.936944 
L 327.752998 320.936944 
L 328.497504 320.398371 
L 329.24201 320.936944 
L 329.986516 320.398371 
L 331.475528 320.398371 
L 332.220034 320.936944 
L 332.96454 322.01409 
L 333.709046 332.785546 
L 334.453552 317.166934 
L 335.198058 320.398371 
L 335.942564 320.398371 
L 336.68707 320.936944 
L 337.431576 320.398371 
L 338.176082 321.475517 
L 338.920588 321.475517 
L 339.665094 320.936944 
L 344.13213 320.936944 
L 344.876636 321.475517 
L 345.621142 321.475517 
L 346.365648 320.936944 
L 347.85466 320.936944 
L 348.599166 329.015536 
L 350.088178 318.782653 
L 350.832684 320.398371 
L 351.57719 320.936944 
L 355.29972 320.936944 
L 356.044226 320.398371 
L 356.788732 320.936944 
L 357.533238 320.936944 
L 358.277744 321.475517 
L 359.02225 321.475517 
L 359.766756 320.936944 
L 362.74478 320.936944 
L 363.489286 321.475517 
L 364.233792 335.47841 
L 364.978298 320.936944 
L 365.722804 319.859798 
L 366.46731 320.936944 
L 367.211816 321.475517 
L 367.956322 320.936944 
L 368.700828 321.475517 
L 369.445334 321.475517 
L 370.18984 320.936944 
L 371.678852 322.01409 
L 372.423358 321.475517 
L 373.167864 322.01409 
L 373.91237 321.475517 
L 375.401382 321.475517 
L 376.145888 320.936944 
L 377.6349 322.01409 
L 378.379406 322.01409 
L 379.123912 325.245526 
L 379.868418 333.324119 
L 380.612924 320.398371 
L 382.101936 321.475517 
L 386.568972 321.475517 
L 387.313478 322.01409 
L 388.057984 321.475517 
L 392.52502 321.475517 
L 393.269526 322.01409 
L 394.014032 321.475517 
L 394.758538 335.47841 
L 395.503044 320.398371 
L 396.24755 318.782653 
L 396.992056 321.475517 
L 397.736562 321.475517 
L 398.481068 320.936944 
L 399.225574 321.475517 
L 400.714586 321.475517 
L 401.459092 320.936944 
L 407.41514 320.936944 
L 408.159646 320.398371 
L 408.904152 320.936944 
L 409.648658 323.091235 
L 410.393164 329.554109 
L 411.13767 318.782653 
L 411.882176 320.398371 
L 412.626682 320.936944 
L 413.371188 320.936944 
L 414.115694 320.398371 
L 414.8602 320.936944 
L 415.604706 320.936944 
L 416.349212 320.398371 
L 417.093718 320.398371 
L 417.838224 320.936944 
L 418.58273 320.398371 
L 419.327236 320.936944 
L 420.071742 320.936944 
L 420.816248 320.398371 
L 421.560754 320.936944 
L 422.30526 320.398371 
L 423.049766 320.936944 
L 423.794272 320.936944 
L 424.538778 320.398371 
L 425.283284 332.785546 
L 426.02779 323.091235 
L 426.772296 318.24408 
L 427.516802 320.936944 
L 429.005814 320.936944 
L 429.75032 320.398371 
L 431.239332 320.398371 
L 431.983838 320.936944 
L 432.728344 320.398371 
L 437.19538 320.398371 
L 437.939886 320.936944 
L 438.684392 320.398371 
L 439.428898 320.936944 
L 440.173404 323.091235 
L 440.91791 332.246973 
L 441.662416 319.321226 
L 442.406922 320.398371 
L 443.151428 322.01409 
L 443.895934 321.475517 
L 445.384946 321.475517 
L 446.129452 320.936944 
L 446.873958 321.475517 
L 452.0855 321.475517 
L 452.830006 320.936944 
L 453.574512 321.475517 
L 455.063524 321.475517 
L 455.80803 330.092682 
L 456.552536 324.168381 
L 457.297042 319.321226 
L 458.041548 321.475517 
L 458.786054 321.475517 
L 459.53056 320.936944 
L 460.275066 320.936944 
L 461.019572 321.475517 
L 463.25309 321.475517 
L 463.997596 322.01409 
L 464.742102 322.01409 
L 465.486608 321.475517 
L 466.231114 322.01409 
L 466.97562 321.475517 
L 469.953644 321.475517 
L 470.69815 323.091235 
L 471.442656 333.862691 
L 472.187162 319.321226 
L 472.931668 319.321226 
L 473.676174 320.936944 
L 474.42068 320.398371 
L 475.165186 320.936944 
L 485.58827 320.936944 
L 486.332776 328.476963 
L 487.077282 326.861245 
L 487.821788 318.782653 
L 488.566294 320.398371 
L 489.3108 320.936944 
L 490.055306 320.398371 
L 490.799812 320.936944 
L 495.266848 320.936944 
L 496.011354 321.475517 
L 496.75586 321.475517 
L 497.500366 320.936944 
L 498.244872 320.936944 
L 498.989378 321.475517 
L 499.733884 320.936944 
L 500.47839 320.936944 
L 501.222896 321.475517 
L 501.967402 332.785546 
L 502.711908 319.859798 
L 504.20092 320.936944 
L 505.689932 320.936944 
L 506.434438 321.475517 
L 507.178944 320.936944 
L 507.92345 321.475517 
L 508.667956 320.936944 
L 509.412462 320.936944 
L 510.156968 321.475517 
L 510.901474 320.936944 
L 516.113016 320.936944 
L 516.113016 320.936944 
" style="fill:none;stroke:#1f77b4;stroke-linecap:square;stroke-width:1.5;"/>
   </g>
   <g id="line2d_14">
    <path clip-path="url(#p86a9d16ced)" d="M 119.295785 309.626915 
L 120.040291 253.076771 
L 121.529303 296.701168 
L 122.273809 302.625469 
L 123.018315 232.611004 
L 123.762821 228.302422 
L 124.507327 173.367996 
L 125.996339 128.666453 
L 126.740845 176.06086 
L 127.485351 264.3868 
L 128.229857 275.158256 
L 128.974363 251.461052 
L 130.463375 259.001072 
L 131.207881 248.229616 
L 131.952387 214.299529 
L 132.696893 213.760956 
L 133.441399 187.370889 
L 134.185905 192.218044 
L 134.930411 257.385353 
L 135.674917 196.526626 
L 136.419423 174.983714 
L 137.163929 163.135113 
L 137.908435 205.143791 
L 138.652941 205.143791 
L 139.397447 263.309654 
L 140.141953 259.539644 
L 140.886459 247.691043 
L 141.630965 228.840995 
L 142.375471 222.916694 
L 143.864483 271.926819 
L 144.608989 250.92248 
L 145.353495 201.373782 
L 146.098001 229.91814 
L 146.842507 230.995286 
L 147.587013 243.38246 
L 148.331519 249.306761 
L 149.076025 236.919587 
L 149.820531 275.158256 
L 150.565037 324.706954 
L 151.309543 321.475517 
L 152.054049 324.168381 
L 152.798555 323.629808 
L 153.543061 322.552662 
L 154.287567 322.552662 
L 155.776579 321.475517 
L 157.265591 321.475517 
L 158.010097 322.01409 
L 158.754603 320.936944 
L 159.499109 321.475517 
L 160.243615 320.936944 
L 160.988121 321.475517 
L 161.732627 321.475517 
L 162.477133 320.936944 
L 163.221639 320.936944 
L 163.966145 321.475517 
L 164.710651 323.091235 
L 165.455157 332.785546 
L 166.199663 319.321226 
L 166.944169 319.859798 
L 167.688675 320.936944 
L 168.433181 320.936944 
L 169.177687 320.398371 
L 169.922193 320.936944 
L 170.666699 320.936944 
L 171.411205 320.398371 
L 172.155711 320.936944 
L 172.900217 320.936944 
L 173.644723 320.398371 
L 174.389229 320.936944 
L 177.367253 320.936944 
L 178.111759 320.398371 
L 178.856265 320.936944 
L 179.600771 320.936944 
L 180.345277 329.554109 
L 181.089783 320.398371 
L 181.834289 319.321226 
L 182.578795 322.01409 
L 183.323301 321.475517 
L 184.067807 321.475517 
L 184.812313 322.01409 
L 186.301325 320.936944 
L 187.045831 321.475517 
L 187.790337 320.936944 
L 188.534843 321.475517 
L 190.768361 321.475517 
L 191.512867 320.936944 
L 192.257373 321.475517 
L 193.001879 321.475517 
L 193.746385 320.936944 
L 194.490891 321.475517 
L 195.235397 323.091235 
L 195.979903 333.862691 
L 196.724409 319.321226 
L 197.468915 319.321226 
L 198.213421 320.936944 
L 198.957927 322.01409 
L 199.702433 322.01409 
L 200.446939 321.475517 
L 201.191445 321.475517 
L 201.935951 322.01409 
L 203.424963 320.936944 
L 207.891999 320.936944 
L 208.636505 320.398371 
L 209.381011 320.398371 
L 210.125517 320.936944 
L 210.870023 326.322672 
L 211.614529 326.322672 
L 212.359035 317.705507 
L 213.103541 320.936944 
L 213.848047 320.936944 
L 214.592553 320.398371 
L 215.337059 320.398371 
L 216.081565 320.936944 
L 216.826071 320.398371 
L 219.059589 320.398371 
L 219.804095 320.936944 
L 220.548601 320.398371 
L 221.293107 320.936944 
L 225.015637 320.936944 
L 225.760143 321.475517 
L 226.504649 335.47841 
L 227.249155 319.859798 
L 227.993661 319.321226 
L 228.738167 321.475517 
L 229.482673 320.936944 
L 230.227179 320.936944 
L 230.971685 320.398371 
L 232.460697 321.475517 
L 233.949709 321.475517 
L 234.694215 322.01409 
L 236.183227 320.936944 
L 237.672239 322.01409 
L 238.416745 322.01409 
L 239.905757 320.936944 
L 240.650263 320.936944 
L 241.394769 324.706954 
L 242.139275 330.631255 
L 242.883781 318.24408 
L 243.628287 320.398371 
L 244.372793 320.936944 
L 251.817853 320.936944 
L 252.562359 320.398371 
L 253.306865 320.936944 
L 256.284889 320.936944 
L 257.029395 333.324119 
L 257.773901 322.552662 
L 258.518407 319.859798 
L 259.262913 321.475517 
L 260.007419 320.936944 
L 261.496431 322.01409 
L 262.240937 321.475517 
L 262.985443 322.01409 
L 263.729949 321.475517 
L 264.474455 321.475517 
L 265.218961 320.936944 
L 266.707973 320.936944 
L 267.452479 320.398371 
L 268.941491 321.475517 
L 269.685997 320.398371 
L 270.430503 320.936944 
L 271.175009 320.936944 
L 271.919515 323.629808 
L 272.664021 331.7084 
L 273.408527 319.321226 
L 274.153033 319.859798 
L 274.897539 320.936944 
L 275.642045 320.936944 
L 276.386551 321.475517 
L 277.131057 320.936944 
L 277.875563 321.475517 
L 278.620069 321.475517 
L 279.364575 322.01409 
L 280.109081 320.936944 
L 280.853587 321.475517 
L 283.087105 321.475517 
L 283.831611 320.936944 
L 284.576117 321.475517 
L 285.320623 321.475517 
L 286.065129 320.936944 
L 286.809635 321.475517 
L 287.554141 332.785546 
L 288.298647 323.629808 
L 289.043153 318.782653 
L 289.787659 320.936944 
L 291.276671 320.936944 
L 292.021177 321.475517 
L 292.765683 320.936944 
L 293.510189 322.01409 
L 294.999201 320.936944 
L 295.743707 321.475517 
L 296.488213 320.936944 
L 297.232719 320.936944 
L 297.977225 320.398371 
L 298.721731 320.936944 
L 300.210743 320.936944 
L 300.955249 321.475517 
L 301.699755 320.936944 
L 302.444261 323.091235 
L 303.188767 329.015536 
L 303.933273 316.628362 
L 304.677779 320.936944 
L 305.422285 321.475517 
L 306.166791 320.398371 
L 306.911297 320.936944 
L 313.611851 320.936944 
L 314.356357 320.398371 
L 315.100863 320.936944 
L 317.334381 320.936944 
L 318.078887 330.631255 
L 318.823393 323.091235 
L 319.567899 318.24408 
L 320.312405 320.936944 
L 321.056911 320.398371 
L 321.801417 320.398371 
L 322.545923 320.936944 
L 325.523947 320.936944 
L 326.268453 320.398371 
L 327.012959 320.936944 
L 327.757465 320.936944 
L 328.501971 320.398371 
L 329.246477 320.936944 
L 329.990983 320.398371 
L 331.479995 320.398371 
L 332.224501 320.936944 
L 332.969007 322.01409 
L 333.713513 333.324119 
L 334.458019 317.166934 
L 335.202525 320.398371 
L 335.947031 320.398371 
L 336.691537 320.936944 
L 337.436043 320.398371 
L 338.925055 321.475517 
L 339.669561 321.475517 
L 340.414067 320.936944 
L 341.903079 320.936944 
L 342.647585 320.398371 
L 343.392091 320.936944 
L 344.136597 320.936944 
L 344.881103 321.475517 
L 345.625609 321.475517 
L 346.370115 320.936944 
L 347.859127 320.936944 
L 348.603633 330.092682 
L 349.348139 323.091235 
L 350.092645 318.782653 
L 350.837151 320.398371 
L 351.581657 320.936944 
L 357.537705 320.936944 
L 358.282211 321.475517 
L 359.026717 321.475517 
L 359.771223 320.936944 
L 363.493753 320.936944 
L 364.238259 335.47841 
L 364.982765 320.936944 
L 365.727271 319.859798 
L 366.471777 321.475517 
L 367.216283 320.936944 
L 367.960789 320.936944 
L 368.705295 321.475517 
L 369.449801 321.475517 
L 370.194307 320.936944 
L 371.683319 322.01409 
L 372.427825 321.475517 
L 374.661343 321.475517 
L 375.405849 320.936944 
L 376.150355 320.936944 
L 377.639367 322.01409 
L 378.383873 322.01409 
L 379.128379 325.245526 
L 379.872885 333.324119 
L 380.617391 320.398371 
L 382.106403 321.475517 
L 382.850909 321.475517 
L 383.595415 322.01409 
L 384.339921 321.475517 
L 386.573439 321.475517 
L 387.317945 322.01409 
L 388.062451 321.475517 
L 389.551463 321.475517 
L 390.295969 322.01409 
L 391.040475 321.475517 
L 392.529487 321.475517 
L 393.273993 322.01409 
L 394.018499 322.01409 
L 394.763005 336.016983 
L 395.507511 320.398371 
L 396.252017 318.782653 
L 396.996523 321.475517 
L 397.741029 321.475517 
L 398.485535 320.936944 
L 399.230041 320.936944 
L 399.974547 321.475517 
L 400.719053 321.475517 
L 401.463559 320.936944 
L 402.208065 320.936944 
L 402.952571 321.475517 
L 403.697077 320.936944 
L 407.419607 320.936944 
L 408.164113 319.859798 
L 408.908619 320.936944 
L 409.653125 323.629808 
L 410.397631 329.015536 
L 411.142137 318.782653 
L 411.886643 320.398371 
L 412.631149 320.936944 
L 413.375655 320.936944 
L 414.120161 320.398371 
L 414.864667 320.398371 
L 415.609173 320.936944 
L 416.353679 320.398371 
L 417.098185 320.398371 
L 417.842691 320.936944 
L 418.587197 320.398371 
L 419.331703 320.936944 
L 420.076209 320.936944 
L 420.820715 320.398371 
L 421.565221 320.936944 
L 422.309727 320.398371 
L 423.054233 320.936944 
L 423.798739 320.936944 
L 424.543245 320.398371 
L 425.287751 332.785546 
L 426.032257 323.091235 
L 426.776763 318.782653 
L 427.521269 320.936944 
L 428.265775 320.936944 
L 429.010281 320.398371 
L 431.243799 320.398371 
L 431.988305 320.936944 
L 433.477317 320.936944 
L 434.221823 320.398371 
L 437.199847 320.398371 
L 437.944353 320.936944 
L 439.433365 320.936944 
L 440.177871 322.552662 
L 440.922377 332.246973 
L 441.666883 319.321226 
L 442.411389 320.398371 
L 443.155895 322.01409 
L 443.900401 321.475517 
L 445.389413 321.475517 
L 446.133919 320.936944 
L 446.878425 321.475517 
L 447.622931 321.475517 
L 448.367437 320.936944 
L 449.111943 321.475517 
L 452.089967 321.475517 
L 452.834473 320.936944 
L 453.578979 321.475517 
L 454.323485 321.475517 
L 455.067991 320.936944 
L 455.812497 331.169827 
L 456.557003 324.168381 
L 457.301509 319.321226 
L 458.046015 321.475517 
L 458.790521 322.01409 
L 459.535027 320.936944 
L 460.279533 320.936944 
L 461.024039 321.475517 
L 463.257557 321.475517 
L 464.002063 322.01409 
L 464.746569 322.01409 
L 465.491075 321.475517 
L 466.235581 322.01409 
L 466.980087 321.475517 
L 469.958111 321.475517 
L 470.702617 322.552662 
L 471.447123 333.862691 
L 472.191629 319.321226 
L 472.936135 319.321226 
L 473.680641 320.936944 
L 474.425147 320.936944 
L 475.169653 320.398371 
L 475.914159 320.936944 
L 485.592737 320.936944 
L 486.337243 328.476963 
L 487.081749 326.322672 
L 487.826255 318.782653 
L 488.570761 320.398371 
L 489.315267 320.936944 
L 490.059773 320.398371 
L 490.804279 320.936944 
L 491.548785 320.936944 
L 492.293291 320.398371 
L 493.037797 320.936944 
L 495.271315 320.936944 
L 496.015821 321.475517 
L 496.760327 321.475517 
L 497.504833 320.936944 
L 498.249339 320.936944 
L 498.993845 321.475517 
L 499.738351 320.936944 
L 500.482857 320.936944 
L 501.227363 321.475517 
L 501.971869 332.246973 
L 502.716375 319.321226 
L 503.460881 320.398371 
L 504.205387 320.936944 
L 505.694399 320.936944 
L 506.438905 321.475517 
L 507.183411 320.936944 
L 507.927917 321.475517 
L 508.672423 320.936944 
L 509.416929 321.475517 
L 510.161435 321.475517 
L 510.905941 320.936944 
L 516.117483 320.936944 
L 516.861989 325.784099 
L 517.606495 329.015536 
L 518.351001 318.782653 
L 519.095507 320.398371 
L 520.584519 320.398371 
L 521.329025 320.936944 
L 521.329025 320.936944 
" style="fill:none;stroke:#ff7f0e;stroke-linecap:square;stroke-width:1.5;"/>
   </g>
   <g id="line2d_15">
    <path clip-path="url(#p86a9d16ced)" d="M 116.325206 316.089789 
L 117.069712 315.012643 
L 117.814218 321.475517 
L 118.558724 323.091235 
L 119.30323 316.089789 
L 120.047736 273.542537 
L 120.792242 287.54543 
L 121.536748 297.239741 
L 122.281254 303.164042 
L 123.02576 264.3868 
L 123.770266 211.068092 
L 124.514772 233.68815 
L 125.259278 239.073878 
L 126.003784 179.292297 
L 126.74829 237.996732 
L 127.492796 280.005411 
L 128.237302 277.312547 
L 128.981808 269.772528 
L 129.726314 267.079664 
L 130.47082 260.61679 
L 131.215326 260.078217 
L 131.959832 215.915247 
L 132.704338 211.068092 
L 133.448844 224.532412 
L 134.19335 249.306761 
L 134.937856 299.394032 
L 135.682362 199.21949 
L 136.426868 129.743599 
L 137.171374 110.893551 
L 137.91588 125.973589 
L 138.660386 173.367996 
L 139.404892 258.462499 
L 140.149398 262.771081 
L 141.63841 230.995286 
L 142.382916 225.070985 
L 143.127422 247.15247 
L 143.871928 274.08111 
L 145.36094 248.229616 
L 146.105446 209.990947 
L 146.849952 240.689596 
L 147.594458 232.611004 
L 148.338964 228.840995 
L 149.08347 261.693936 
L 149.827976 309.626915 
L 150.572482 326.861245 
L 151.316988 322.552662 
L 152.061494 325.784099 
L 152.806 323.629808 
L 154.295012 322.552662 
L 155.039518 322.552662 
L 156.52853 321.475517 
L 157.273036 321.475517 
L 158.017542 322.01409 
L 158.762048 321.475517 
L 159.506554 321.475517 
L 160.25106 320.936944 
L 160.995566 321.475517 
L 161.740072 321.475517 
L 162.484578 320.936944 
L 163.97359 320.936944 
L 164.718096 323.629808 
L 165.462602 331.7084 
L 166.207108 319.321226 
L 166.951614 319.859798 
L 167.69612 320.936944 
L 170.674144 320.936944 
L 171.41865 320.398371 
L 172.163156 320.936944 
L 172.907662 320.936944 
L 173.652168 320.398371 
L 174.396674 320.936944 
L 177.374698 320.936944 
L 178.119204 320.398371 
L 178.86371 320.936944 
L 179.608216 320.936944 
L 180.352722 329.554109 
L 181.097228 319.859798 
L 181.841734 319.321226 
L 182.58624 322.01409 
L 183.330746 321.475517 
L 184.075252 321.475517 
L 184.819758 322.01409 
L 186.30877 320.936944 
L 187.053276 320.936944 
L 187.797782 321.475517 
L 188.542288 321.475517 
L 189.286794 320.936944 
L 190.0313 321.475517 
L 190.775806 321.475517 
L 191.520312 320.936944 
L 192.264818 321.475517 
L 193.009324 321.475517 
L 193.75383 320.936944 
L 194.498336 321.475517 
L 195.242842 322.552662 
L 195.987348 333.862691 
L 196.731854 319.321226 
L 197.47636 319.321226 
L 198.220866 321.475517 
L 198.965372 322.01409 
L 199.709878 322.01409 
L 200.454384 321.475517 
L 201.19889 322.01409 
L 201.943396 322.01409 
L 203.432408 320.936944 
L 205.665926 320.936944 
L 206.410432 321.475517 
L 207.154938 320.936944 
L 207.899444 320.936944 
L 208.64395 320.398371 
L 209.388456 320.398371 
L 210.132962 320.936944 
L 210.877468 327.938391 
L 211.621974 325.784099 
L 212.36648 317.705507 
L 213.110986 320.936944 
L 214.599998 320.936944 
L 215.344504 320.398371 
L 216.08901 320.936944 
L 216.833516 320.398371 
L 218.322528 320.398371 
L 219.067034 320.936944 
L 219.81154 320.398371 
L 220.556046 320.398371 
L 221.300552 320.936944 
L 225.767588 320.936944 
L 226.512094 335.47841 
L 227.2566 319.321226 
L 228.001106 319.321226 
L 228.745612 320.936944 
L 229.490118 320.398371 
L 230.234624 320.936944 
L 230.97913 320.398371 
L 231.723636 320.936944 
L 232.468142 320.936944 
L 233.212648 321.475517 
L 235.446166 321.475517 
L 236.190672 320.936944 
L 237.679684 322.01409 
L 238.42419 321.475517 
L 239.168696 321.475517 
L 239.913202 320.936944 
L 240.657708 320.936944 
L 241.402214 324.706954 
L 242.14672 330.092682 
L 242.891226 318.24408 
L 243.635732 320.398371 
L 244.380238 320.936944 
L 245.86925 320.936944 
L 246.613756 320.398371 
L 247.358262 320.936944 
L 248.847274 320.936944 
L 249.59178 320.398371 
L 250.336286 320.398371 
L 251.080792 320.936944 
L 251.825298 320.398371 
L 252.569804 320.398371 
L 253.31431 320.936944 
L 256.292334 320.936944 
L 257.03684 333.862691 
L 257.781346 322.01409 
L 258.525852 319.321226 
L 259.270358 321.475517 
L 260.014864 320.936944 
L 260.75937 321.475517 
L 264.4819 321.475517 
L 265.226406 320.936944 
L 268.20443 320.936944 
L 268.948936 321.475517 
L 269.693442 320.398371 
L 270.437948 320.936944 
L 271.182454 320.936944 
L 271.92696 323.629808 
L 272.671466 331.169827 
L 273.415972 319.321226 
L 274.160478 319.859798 
L 274.904984 320.936944 
L 275.64949 320.936944 
L 276.393996 321.475517 
L 277.138502 320.936944 
L 277.883008 321.475517 
L 279.37202 321.475517 
L 280.116526 320.936944 
L 280.861032 321.475517 
L 282.350044 321.475517 
L 283.09455 322.01409 
L 283.839056 320.936944 
L 284.583562 321.475517 
L 286.81708 321.475517 
L 287.561586 332.246973 
L 288.306092 323.091235 
L 289.050598 318.782653 
L 289.795104 321.475517 
L 290.53961 320.936944 
L 291.284116 320.936944 
L 292.028622 321.475517 
L 292.773128 320.936944 
L 293.517634 322.01409 
L 295.006646 320.936944 
L 295.751152 321.475517 
L 296.495658 320.936944 
L 297.240164 320.936944 
L 297.98467 320.398371 
L 298.729176 320.398371 
L 299.473682 320.936944 
L 300.218188 320.936944 
L 300.962694 321.475517 
L 301.7072 320.936944 
L 302.451706 323.629808 
L 303.196212 327.938391 
L 303.940718 316.628362 
L 304.685224 320.936944 
L 305.42973 321.475517 
L 306.174236 320.398371 
L 306.918742 320.936944 
L 309.896766 320.936944 
L 310.641272 321.475517 
L 311.385778 320.936944 
L 313.619296 320.936944 
L 314.363802 320.398371 
L 315.108308 321.475517 
L 315.852814 320.936944 
L 317.341826 320.936944 
L 318.086332 330.631255 
L 318.830838 322.552662 
L 319.575344 318.24408 
L 320.31985 320.936944 
L 321.064356 320.398371 
L 322.553368 320.398371 
L 323.297874 320.936944 
L 325.531392 320.936944 
L 326.275898 320.398371 
L 327.020404 320.936944 
L 327.76491 320.936944 
L 328.509416 320.398371 
L 329.253922 320.936944 
L 329.998428 320.398371 
L 331.48744 320.398371 
L 332.231946 320.936944 
L 332.976452 323.629808 
L 333.720958 332.246973 
L 334.465464 317.166934 
L 335.20997 320.398371 
L 335.954476 320.398371 
L 336.698982 320.936944 
L 337.443488 320.398371 
L 338.187994 321.475517 
L 338.9325 320.936944 
L 341.910524 320.936944 
L 342.65503 320.398371 
L 343.399536 320.936944 
L 344.144042 320.936944 
L 344.888548 321.475517 
L 345.633054 321.475517 
L 346.37756 320.936944 
L 347.866572 320.936944 
L 348.611078 329.015536 
L 349.355584 323.091235 
L 350.10009 318.782653 
L 350.844596 320.398371 
L 351.589102 320.936944 
L 355.311632 320.936944 
L 356.056138 320.398371 
L 356.800644 320.936944 
L 357.54515 320.936944 
L 358.289656 321.475517 
L 359.034162 321.475517 
L 359.778668 320.936944 
L 362.756692 320.936944 
L 363.501198 321.475517 
L 364.245704 334.939837 
L 364.99021 320.936944 
L 365.734716 319.859798 
L 366.479222 320.936944 
L 367.968234 320.936944 
L 368.71274 321.475517 
L 369.457246 321.475517 
L 370.201752 320.936944 
L 371.690764 322.01409 
L 372.43527 321.475517 
L 374.668788 321.475517 
L 375.413294 320.936944 
L 376.1578 321.475517 
L 378.391318 321.475517 
L 379.135824 325.784099 
L 379.88033 333.324119 
L 380.624836 320.398371 
L 382.113848 321.475517 
L 382.858354 321.475517 
L 383.60286 322.01409 
L 384.347366 321.475517 
L 385.091872 322.01409 
L 385.836378 321.475517 
L 386.580884 321.475517 
L 387.32539 322.01409 
L 388.069896 321.475517 
L 388.814402 321.475517 
L 389.558908 322.01409 
L 390.303414 322.01409 
L 391.04792 321.475517 
L 392.536932 321.475517 
L 393.281438 322.01409 
L 394.025944 322.01409 
L 394.77045 336.016983 
L 395.514956 319.859798 
L 396.259462 318.782653 
L 397.003968 321.475517 
L 397.748474 320.936944 
L 398.49298 320.936944 
L 399.237486 321.475517 
L 400.726498 321.475517 
L 401.471004 320.936944 
L 402.21551 320.936944 
L 402.960016 321.475517 
L 403.704522 320.936944 
L 404.449028 320.936944 
L 405.193534 320.398371 
L 405.93804 320.936944 
L 407.427052 320.936944 
L 408.171558 320.398371 
L 408.916064 320.936944 
L 409.66057 323.629808 
L 410.405076 329.554109 
L 411.149582 318.24408 
L 411.894088 319.859798 
L 412.638594 320.936944 
L 413.3831 320.398371 
L 414.127606 320.398371 
L 414.872112 320.936944 
L 415.616618 320.936944 
L 416.361124 320.398371 
L 417.10563 320.398371 
L 417.850136 320.936944 
L 418.594642 320.398371 
L 419.339148 320.398371 
L 420.083654 320.936944 
L 420.82816 320.398371 
L 421.572666 320.936944 
L 423.806184 320.936944 
L 424.55069 320.398371 
L 425.295196 334.401264 
L 426.039702 322.552662 
L 426.784208 318.24408 
L 427.528714 320.936944 
L 428.27322 320.398371 
L 431.251244 320.398371 
L 431.99575 320.936944 
L 432.740256 320.398371 
L 437.207292 320.398371 
L 437.951798 320.936944 
L 438.696304 320.398371 
L 439.44081 320.936944 
L 440.185316 322.552662 
L 440.929822 332.785546 
L 441.674328 319.321226 
L 442.418834 320.398371 
L 443.16334 322.01409 
L 443.907846 321.475517 
L 445.396858 321.475517 
L 446.141364 320.936944 
L 446.88587 321.475517 
L 450.6084 321.475517 
L 451.352906 320.936944 
L 452.097412 321.475517 
L 452.841918 320.936944 
L 453.586424 321.475517 
L 454.33093 321.475517 
L 455.075436 320.936944 
L 455.819942 333.324119 
L 456.564448 323.629808 
L 457.308954 319.321226 
L 458.05346 321.475517 
L 458.797966 321.475517 
L 459.542472 320.936944 
L 460.286978 320.936944 
L 461.031484 321.475517 
L 462.520496 321.475517 
L 463.265002 320.936944 
L 464.009508 322.01409 
L 464.754014 321.475517 
L 468.476544 321.475517 
L 469.22105 320.936944 
L 469.965556 321.475517 
L 470.710062 322.552662 
L 471.454568 333.862691 
L 472.199074 318.782653 
L 472.94358 319.321226 
L 473.688086 320.936944 
L 474.432592 320.398371 
L 475.177098 320.398371 
L 475.921604 320.936944 
L 477.410616 320.936944 
L 478.155122 320.398371 
L 478.899628 320.936944 
L 485.600182 320.936944 
L 486.344688 330.631255 
L 487.089194 326.322672 
L 487.8337 318.782653 
L 488.578206 320.398371 
L 489.322712 320.936944 
L 490.067218 320.398371 
L 490.811724 320.936944 
L 495.27876 320.936944 
L 496.023266 321.475517 
L 496.767772 321.475517 
L 497.512278 320.936944 
L 498.256784 320.936944 
L 499.00129 321.475517 
L 499.745796 320.936944 
L 500.490302 320.936944 
L 501.234808 321.475517 
L 501.979314 332.785546 
L 502.72382 319.321226 
L 503.468326 320.398371 
L 504.212832 320.936944 
L 505.701844 320.936944 
L 506.44635 321.475517 
L 507.190856 320.936944 
L 507.935362 321.475517 
L 508.679868 320.936944 
L 509.424374 321.475517 
L 510.16888 321.475517 
L 510.913386 320.936944 
L 516.124928 320.936944 
L 516.869434 327.938391 
L 517.61394 329.015536 
L 517.61394 329.015536 
" style="fill:none;stroke:#2ca02c;stroke-linecap:square;stroke-width:1.5;"/>
   </g>
   <g id="line2d_16">
    <path clip-path="url(#p86a9d16ced)" d="M 122.273809 302.086896 
L 123.018315 231.533859 
L 123.762821 237.45816 
L 124.507327 137.822191 
L 125.251833 213.222383 
L 125.996339 159.365103 
L 126.740845 171.752278 
L 127.485351 259.539644 
L 128.229857 270.311101 
L 128.974363 241.766742 
L 129.718869 254.153916 
L 131.207881 240.151024 
L 131.952387 207.836655 
L 132.696893 206.75951 
L 133.441399 205.143791 
L 134.185905 236.919587 
L 134.930411 293.469731 
L 135.674917 176.599433 
L 136.419423 155.056521 
L 137.163929 172.829423 
L 138.652941 226.148131 
L 139.397447 268.156809 
L 140.141953 247.15247 
L 140.886459 246.613897 
L 141.630965 222.378121 
L 142.375471 222.916694 
L 143.119977 247.15247 
L 143.864483 263.309654 
L 144.608989 222.916694 
L 145.353495 222.378121 
L 146.098001 227.225276 
L 146.842507 198.142345 
L 147.587013 240.689596 
L 148.331519 231.533859 
L 149.076025 237.996732 
L 149.820531 240.151024 
L 150.565037 324.706954 
L 151.309543 321.475517 
L 152.054049 324.168381 
L 152.798555 323.091235 
L 154.287567 322.01409 
L 155.032073 322.01409 
L 155.776579 321.475517 
L 158.010097 321.475517 
L 158.754603 320.936944 
L 160.988121 320.936944 
L 161.732627 321.475517 
L 162.477133 320.936944 
L 163.221639 320.936944 
L 163.966145 321.475517 
L 164.710651 323.091235 
L 165.455157 332.785546 
L 166.199663 319.321226 
L 166.944169 319.859798 
L 167.688675 320.936944 
L 168.433181 320.936944 
L 169.177687 320.398371 
L 169.922193 320.936944 
L 170.666699 320.936944 
L 171.411205 320.398371 
L 172.155711 320.936944 
L 172.900217 320.936944 
L 173.644723 320.398371 
L 174.389229 320.936944 
L 177.367253 320.936944 
L 178.111759 320.398371 
L 178.856265 320.936944 
L 179.600771 320.936944 
L 180.345277 328.476963 
L 181.089783 319.859798 
L 181.834289 319.321226 
L 182.578795 322.01409 
L 183.323301 321.475517 
L 184.067807 321.475517 
L 184.812313 322.01409 
L 186.301325 320.936944 
L 187.790337 320.936944 
L 188.534843 321.475517 
L 190.768361 321.475517 
L 191.512867 320.936944 
L 192.257373 321.475517 
L 193.001879 321.475517 
L 193.746385 320.936944 
L 194.490891 321.475517 
L 195.235397 322.552662 
L 195.979903 333.862691 
L 196.724409 319.321226 
L 197.468915 319.321226 
L 198.213421 321.475517 
L 198.957927 322.01409 
L 199.702433 322.01409 
L 200.446939 321.475517 
L 201.191445 322.01409 
L 201.935951 321.475517 
L 202.680457 321.475517 
L 203.424963 320.398371 
L 204.169469 320.936944 
L 205.658481 320.936944 
L 206.402987 321.475517 
L 207.147493 320.936944 
L 208.636505 320.936944 
L 209.381011 320.398371 
L 210.125517 320.936944 
L 210.870023 326.861245 
L 211.614529 325.784099 
L 212.359035 317.705507 
L 213.103541 320.936944 
L 214.592553 320.936944 
L 215.337059 320.398371 
L 216.081565 320.936944 
L 216.826071 320.398371 
L 219.059589 320.398371 
L 219.804095 320.936944 
L 220.548601 319.859798 
L 221.293107 320.936944 
L 225.760143 320.936944 
L 226.504649 336.016983 
L 227.249155 319.321226 
L 227.993661 319.321226 
L 228.738167 321.475517 
L 229.482673 320.936944 
L 230.227179 320.936944 
L 230.971685 320.398371 
L 231.716191 320.936944 
L 232.460697 320.936944 
L 233.205203 321.475517 
L 235.438721 321.475517 
L 236.183227 320.936944 
L 237.672239 322.01409 
L 238.416745 322.01409 
L 239.905757 320.936944 
L 240.650263 320.936944 
L 241.394769 324.168381 
L 242.139275 330.631255 
L 242.883781 318.24408 
L 243.628287 320.398371 
L 244.372793 320.936944 
L 245.861805 320.936944 
L 246.606311 320.398371 
L 247.350817 320.936944 
L 251.817853 320.936944 
L 252.562359 320.398371 
L 253.306865 320.936944 
L 256.284889 320.936944 
L 257.029395 333.324119 
L 257.773901 322.552662 
L 258.518407 319.859798 
L 259.262913 321.475517 
L 260.007419 320.936944 
L 261.496431 322.01409 
L 262.240937 321.475517 
L 262.985443 322.01409 
L 263.729949 321.475517 
L 264.474455 321.475517 
L 265.218961 320.936944 
L 268.196985 320.936944 
L 268.941491 321.475517 
L 269.685997 320.398371 
L 270.430503 320.936944 
L 271.175009 320.936944 
L 271.919515 323.629808 
L 272.664021 331.7084 
L 273.408527 319.321226 
L 274.153033 319.859798 
L 274.897539 320.936944 
L 275.642045 320.936944 
L 276.386551 321.475517 
L 277.131057 320.936944 
L 277.875563 321.475517 
L 279.364575 321.475517 
L 280.109081 320.936944 
L 280.853587 321.475517 
L 283.087105 321.475517 
L 283.831611 320.936944 
L 284.576117 321.475517 
L 286.809635 321.475517 
L 287.554141 332.246973 
L 288.298647 323.091235 
L 289.043153 318.782653 
L 289.787659 321.475517 
L 290.532165 320.936944 
L 291.276671 320.936944 
L 292.021177 321.475517 
L 292.765683 320.936944 
L 293.510189 321.475517 
L 294.254695 321.475517 
L 294.999201 320.936944 
L 295.743707 321.475517 
L 296.488213 320.936944 
L 297.232719 320.936944 
L 297.977225 320.398371 
L 298.721731 320.398371 
L 299.466237 320.936944 
L 300.210743 320.936944 
L 300.955249 321.475517 
L 301.699755 320.936944 
L 302.444261 323.091235 
L 303.188767 328.476963 
L 303.933273 316.628362 
L 304.677779 320.936944 
L 305.422285 321.475517 
L 306.166791 320.398371 
L 306.911297 320.936944 
L 307.655803 320.398371 
L 308.400309 320.936944 
L 312.867345 320.936944 
L 313.611851 320.398371 
L 314.356357 320.398371 
L 315.100863 321.475517 
L 315.845369 320.936944 
L 317.334381 320.936944 
L 318.078887 331.169827 
L 318.823393 323.091235 
L 319.567899 317.705507 
L 320.312405 320.398371 
L 322.545923 320.398371 
L 323.290429 320.936944 
L 325.523947 320.936944 
L 326.268453 320.398371 
L 327.012959 320.936944 
L 327.757465 320.936944 
L 328.501971 320.398371 
L 329.246477 320.936944 
L 329.990983 320.398371 
L 331.479995 320.398371 
L 332.224501 320.936944 
L 332.969007 322.01409 
L 333.713513 332.246973 
L 334.458019 317.166934 
L 335.202525 320.398371 
L 335.947031 320.398371 
L 336.691537 320.936944 
L 337.436043 320.398371 
L 338.180549 320.936944 
L 341.903079 320.936944 
L 342.647585 320.398371 
L 343.392091 320.936944 
L 344.136597 320.936944 
L 344.881103 321.475517 
L 345.625609 321.475517 
L 346.370115 320.936944 
L 347.859127 320.936944 
L 348.603633 329.015536 
L 349.348139 323.091235 
L 350.092645 318.24408 
L 350.837151 320.398371 
L 351.581657 320.936944 
L 358.282211 320.936944 
L 359.026717 321.475517 
L 359.771223 320.936944 
L 363.493753 320.936944 
L 364.238259 335.47841 
L 364.982765 320.936944 
L 365.727271 319.859798 
L 366.471777 321.475517 
L 367.216283 321.475517 
L 367.960789 320.936944 
L 368.705295 321.475517 
L 369.449801 321.475517 
L 370.194307 320.936944 
L 371.683319 322.01409 
L 372.427825 321.475517 
L 373.172331 322.01409 
L 373.916837 321.475517 
L 375.405849 321.475517 
L 376.150355 320.936944 
L 377.639367 322.01409 
L 378.383873 322.01409 
L 379.128379 326.322672 
L 379.872885 333.324119 
L 380.617391 320.398371 
L 381.361897 320.936944 
L 382.106403 322.01409 
L 382.850909 321.475517 
L 383.595415 322.01409 
L 384.339921 321.475517 
L 385.084427 322.01409 
L 385.828933 321.475517 
L 386.573439 321.475517 
L 387.317945 322.01409 
L 388.062451 321.475517 
L 388.806957 321.475517 
L 389.551463 322.01409 
L 390.295969 322.01409 
L 391.040475 321.475517 
L 391.784981 322.01409 
L 392.529487 321.475517 
L 393.273993 322.01409 
L 394.018499 321.475517 
L 394.763005 337.094128 
L 395.507511 320.398371 
L 396.252017 319.321226 
L 396.996523 321.475517 
L 397.741029 320.936944 
L 398.485535 320.936944 
L 399.230041 321.475517 
L 400.719053 321.475517 
L 401.463559 320.936944 
L 402.208065 320.936944 
L 402.952571 321.475517 
L 403.697077 320.936944 
L 407.419607 320.936944 
L 408.164113 320.398371 
L 408.908619 320.936944 
L 409.653125 323.629808 
L 410.397631 329.015536 
L 411.142137 318.782653 
L 412.631149 320.936944 
L 413.375655 320.936944 
L 414.120161 320.398371 
L 414.864667 320.936944 
L 415.609173 320.936944 
L 416.353679 320.398371 
L 417.098185 320.398371 
L 417.842691 320.936944 
L 418.587197 320.398371 
L 419.331703 320.936944 
L 420.076209 320.936944 
L 420.820715 320.398371 
L 421.565221 320.936944 
L 423.798739 320.936944 
L 424.543245 320.398371 
L 425.287751 332.785546 
L 426.032257 323.091235 
L 426.776763 318.782653 
L 427.521269 320.936944 
L 429.010281 320.936944 
L 429.754787 320.398371 
L 431.243799 320.398371 
L 431.988305 320.936944 
L 432.732811 320.936944 
L 433.477317 320.398371 
L 437.199847 320.398371 
L 437.944353 320.936944 
L 438.688859 320.398371 
L 439.433365 320.936944 
L 440.177871 322.552662 
L 440.922377 332.246973 
L 441.666883 319.321226 
L 442.411389 320.398371 
L 443.155895 322.01409 
L 443.900401 321.475517 
L 445.389413 321.475517 
L 446.133919 320.936944 
L 446.878425 321.475517 
L 451.345461 321.475517 
L 452.089967 320.936944 
L 452.834473 320.936944 
L 453.578979 321.475517 
L 454.323485 321.475517 
L 455.067991 320.936944 
L 455.812497 330.092682 
L 456.557003 324.168381 
L 457.301509 319.321226 
L 458.046015 321.475517 
L 458.790521 322.01409 
L 459.535027 320.936944 
L 460.279533 320.936944 
L 461.024039 321.475517 
L 463.257557 321.475517 
L 464.002063 322.01409 
L 464.746569 322.01409 
L 465.491075 321.475517 
L 469.958111 321.475517 
L 470.702617 323.091235 
L 471.447123 333.324119 
L 472.191629 318.782653 
L 472.936135 319.321226 
L 473.680641 320.936944 
L 477.403171 320.936944 
L 478.147677 320.398371 
L 478.892183 320.936944 
L 485.592737 320.936944 
L 486.337243 328.476963 
L 487.081749 326.322672 
L 487.826255 318.782653 
L 488.570761 320.398371 
L 489.315267 320.936944 
L 495.271315 320.936944 
L 496.015821 321.475517 
L 496.760327 321.475517 
L 497.504833 320.936944 
L 498.249339 320.936944 
L 498.993845 321.475517 
L 499.738351 320.936944 
L 500.482857 320.936944 
L 501.227363 321.475517 
L 501.971869 333.324119 
L 502.716375 319.859798 
L 504.949893 321.475517 
L 505.694399 320.936944 
L 506.438905 321.475517 
L 507.183411 320.936944 
L 507.927917 321.475517 
L 508.672423 320.936944 
L 509.416929 321.475517 
L 510.161435 321.475517 
L 510.905941 320.936944 
L 516.117483 320.936944 
L 517.606495 329.015536 
L 518.351001 318.782653 
L 519.095507 320.398371 
L 519.840013 320.936944 
L 520.584519 320.398371 
L 521.329025 320.936944 
L 523.562543 320.936944 
L 523.562543 320.936944 
" style="fill:none;stroke:#d62728;stroke-linecap:square;stroke-width:1.5;"/>
   </g>
   <g id="patch_3">
    <path d="M 92.823906 352.174167 
L 92.823906 35.0625 
" style="fill:none;stroke:#000000;stroke-linecap:square;stroke-linejoin:miter;stroke-width:0.8;"/>
   </g>
   <g id="patch_4">
    <path d="M 544.073906 352.174167 
L 544.073906 35.0625 
" style="fill:none;stroke:#000000;stroke-linecap:square;stroke-linejoin:miter;stroke-width:0.8;"/>
   </g>
   <g id="patch_5">
    <path d="M 92.823906 352.174167 
L 544.073906 352.174167 
" style="fill:none;stroke:#000000;stroke-linecap:square;stroke-linejoin:miter;stroke-width:0.8;"/>
   </g>
   <g id="patch_6">
    <path d="M 92.823906 35.0625 
L 544.073906 35.0625 
" style="fill:none;stroke:#000000;stroke-linecap:square;stroke-linejoin:miter;stroke-width:0.8;"/>
   </g>
   <g id="legend_1">
    <g id="patch_7">
     <path d="M 568.636406 96.775 
L 630.169219 96.775 
Q 632.169219 96.775 632.169219 94.775 
L 632.169219 37.0625 
Q 632.169219 35.0625 630.169219 35.0625 
L 568.636406 35.0625 
Q 566.636406 35.0625 566.636406 37.0625 
L 566.636406 94.775 
Q 566.636406 96.775 568.636406 96.775 
z
" style="fill:#ffffff;opacity:0.8;stroke:#cccccc;stroke-linejoin:miter;"/>
    </g>
    <g id="line2d_17">
     <path d="M 570.636406 43.160937 
L 590.636406 43.160937 
" style="fill:none;stroke:#1f77b4;stroke-linecap:square;stroke-width:1.5;"/>
    </g>
    <g id="line2d_18"/>
    <g id="text_14">
     <!-- bbr-pi -->
     <defs>
      <path d="M 48.6875 27.296875 
Q 48.6875 37.203125 44.609375 42.84375 
Q 40.53125 48.484375 33.40625 48.484375 
Q 26.265625 48.484375 22.1875 42.84375 
Q 18.109375 37.203125 18.109375 27.296875 
Q 18.109375 17.390625 22.1875 11.75 
Q 26.265625 6.109375 33.40625 6.109375 
Q 40.53125 6.109375 44.609375 11.75 
Q 48.6875 17.390625 48.6875 27.296875 
z
M 18.109375 46.390625 
Q 20.953125 51.265625 25.265625 53.625 
Q 29.59375 56 35.59375 56 
Q 45.5625 56 51.78125 48.09375 
Q 58.015625 40.1875 58.015625 27.296875 
Q 58.015625 14.40625 51.78125 6.484375 
Q 45.5625 -1.421875 35.59375 -1.421875 
Q 29.59375 -1.421875 25.265625 0.953125 
Q 20.953125 3.328125 18.109375 8.203125 
L 18.109375 0 
L 9.078125 0 
L 9.078125 75.984375 
L 18.109375 75.984375 
z
" id="DejaVuSans-98"/>
      <path d="M 4.890625 31.390625 
L 31.203125 31.390625 
L 31.203125 23.390625 
L 4.890625 23.390625 
z
" id="DejaVuSans-45"/>
      <path d="M 18.109375 8.203125 
L 18.109375 -20.796875 
L 9.078125 -20.796875 
L 9.078125 54.6875 
L 18.109375 54.6875 
L 18.109375 46.390625 
Q 20.953125 51.265625 25.265625 53.625 
Q 29.59375 56 35.59375 56 
Q 45.5625 56 51.78125 48.09375 
Q 58.015625 40.1875 58.015625 27.296875 
Q 58.015625 14.40625 51.78125 6.484375 
Q 45.5625 -1.421875 35.59375 -1.421875 
Q 29.59375 -1.421875 25.265625 0.953125 
Q 20.953125 3.328125 18.109375 8.203125 
z
M 48.6875 27.296875 
Q 48.6875 37.203125 44.609375 42.84375 
Q 40.53125 48.484375 33.40625 48.484375 
Q 26.265625 48.484375 22.1875 42.84375 
Q 18.109375 37.203125 18.109375 27.296875 
Q 18.109375 17.390625 22.1875 11.75 
Q 26.265625 6.109375 33.40625 6.109375 
Q 40.53125 6.109375 44.609375 11.75 
Q 48.6875 17.390625 48.6875 27.296875 
z
" id="DejaVuSans-112"/>
      <path d="M 9.421875 54.6875 
L 18.40625 54.6875 
L 18.40625 0 
L 9.421875 0 
z
M 9.421875 75.984375 
L 18.40625 75.984375 
L 18.40625 64.59375 
L 9.421875 64.59375 
z
" id="DejaVuSans-105"/>
     </defs>
     <g transform="translate(598.636406 46.660937)scale(0.1 -0.1)">
      <use xlink:href="#DejaVuSans-98"/>
      <use x="63.476562" xlink:href="#DejaVuSans-98"/>
      <use x="126.953125" xlink:href="#DejaVuSans-114"/>
      <use x="167.972656" xlink:href="#DejaVuSans-45"/>
      <use x="204.056641" xlink:href="#DejaVuSans-112"/>
      <use x="267.533203" xlink:href="#DejaVuSans-105"/>
     </g>
    </g>
    <g id="line2d_19">
     <path d="M 570.636406 57.839063 
L 590.636406 57.839063 
" style="fill:none;stroke:#ff7f0e;stroke-linecap:square;stroke-width:1.5;"/>
    </g>
    <g id="line2d_20"/>
    <g id="text_15">
     <!-- bbr-pi -->
     <g transform="translate(598.636406 61.339063)scale(0.1 -0.1)">
      <use xlink:href="#DejaVuSans-98"/>
      <use x="63.476562" xlink:href="#DejaVuSans-98"/>
      <use x="126.953125" xlink:href="#DejaVuSans-114"/>
      <use x="167.972656" xlink:href="#DejaVuSans-45"/>
      <use x="204.056641" xlink:href="#DejaVuSans-112"/>
      <use x="267.533203" xlink:href="#DejaVuSans-105"/>
     </g>
    </g>
    <g id="line2d_21">
     <path d="M 570.636406 72.517187 
L 590.636406 72.517187 
" style="fill:none;stroke:#2ca02c;stroke-linecap:square;stroke-width:1.5;"/>
    </g>
    <g id="line2d_22"/>
    <g id="text_16">
     <!-- bbr-pi -->
     <g transform="translate(598.636406 76.017187)scale(0.1 -0.1)">
      <use xlink:href="#DejaVuSans-98"/>
      <use x="63.476562" xlink:href="#DejaVuSans-98"/>
      <use x="126.953125" xlink:href="#DejaVuSans-114"/>
      <use x="167.972656" xlink:href="#DejaVuSans-45"/>
      <use x="204.056641" xlink:href="#DejaVuSans-112"/>
      <use x="267.533203" xlink:href="#DejaVuSans-105"/>
     </g>
    </g>
    <g id="line2d_23">
     <path d="M 570.636406 87.195312 
L 590.636406 87.195312 
" style="fill:none;stroke:#d62728;stroke-linecap:square;stroke-width:1.5;"/>
    </g>
    <g id="line2d_24"/>
    <g id="text_17">
     <!-- bbr-pi -->
     <g transform="translate(598.636406 90.695312)scale(0.1 -0.1)">
      <use xlink:href="#DejaVuSans-98"/>
      <use x="63.476562" xlink:href="#DejaVuSans-98"/>
      <use x="126.953125" xlink:href="#DejaVuSans-114"/>
      <use x="167.972656" xlink:href="#DejaVuSans-45"/>
      <use x="204.056641" xlink:href="#DejaVuSans-112"/>
      <use x="267.533203" xlink:href="#DejaVuSans-105"/>
     </g>
    </g>
   </g>
  </g>
  <g id="text_18">
   <!-- result rtt -->
   <defs>
    <path d="M 56.203125 29.59375 
L 56.203125 25.203125 
L 14.890625 25.203125 
Q 15.484375 15.921875 20.484375 11.0625 
Q 25.484375 6.203125 34.421875 6.203125 
Q 39.59375 6.203125 44.453125 7.46875 
Q 49.3125 8.734375 54.109375 11.28125 
L 54.109375 2.78125 
Q 49.265625 0.734375 44.1875 -0.34375 
Q 39.109375 -1.421875 33.890625 -1.421875 
Q 20.796875 -1.421875 13.15625 6.1875 
Q 5.515625 13.8125 5.515625 26.8125 
Q 5.515625 40.234375 12.765625 48.109375 
Q 20.015625 56 32.328125 56 
Q 43.359375 56 49.78125 48.890625 
Q 56.203125 41.796875 56.203125 29.59375 
z
M 47.21875 32.234375 
Q 47.125 39.59375 43.09375 43.984375 
Q 39.0625 48.390625 32.421875 48.390625 
Q 24.90625 48.390625 20.390625 44.140625 
Q 15.875 39.890625 15.1875 32.171875 
z
" id="DejaVuSans-101"/>
    <path d="M 8.5 21.578125 
L 8.5 54.6875 
L 17.484375 54.6875 
L 17.484375 21.921875 
Q 17.484375 14.15625 20.5 10.265625 
Q 23.53125 6.390625 29.59375 6.390625 
Q 36.859375 6.390625 41.078125 11.03125 
Q 45.3125 15.671875 45.3125 23.6875 
L 45.3125 54.6875 
L 54.296875 54.6875 
L 54.296875 0 
L 45.3125 0 
L 45.3125 8.40625 
Q 42.046875 3.421875 37.71875 1 
Q 33.40625 -1.421875 27.6875 -1.421875 
Q 18.265625 -1.421875 13.375 4.4375 
Q 8.5 10.296875 8.5 21.578125 
z
M 31.109375 56 
z
" id="DejaVuSans-117"/>
    <path d="M 9.421875 75.984375 
L 18.40625 75.984375 
L 18.40625 0 
L 9.421875 0 
z
" id="DejaVuSans-108"/>
    <path id="DejaVuSans-32"/>
   </defs>
   <g transform="translate(315.818438 17.038125)scale(0.12 -0.12)">
    <use xlink:href="#DejaVuSans-114"/>
    <use x="41.082031" xlink:href="#DejaVuSans-101"/>
    <use x="102.605469" xlink:href="#DejaVuSans-115"/>
    <use x="154.705078" xlink:href="#DejaVuSans-117"/>
    <use x="218.083984" xlink:href="#DejaVuSans-108"/>
    <use x="245.867188" xlink:href="#DejaVuSans-116"/>
    <use x="285.076172" xlink:href="#DejaVuSans-32"/>
    <use x="316.863281" xlink:href="#DejaVuSans-114"/>
    <use x="357.976562" xlink:href="#DejaVuSans-116"/>
    <use x="397.185547" xlink:href="#DejaVuSans-116"/>
   </g>
  </g>
 </g>
 <defs>
  <clipPath id="p86a9d16ced">
   <rect height="317.111667" width="451.25" x="92.823906" y="35.0625"/>
  </clipPath>
 </defs>
</svg>
