<?xml version="1.0" encoding="utf-8" standalone="no"?>
<!DOCTYPE svg PUBLIC "-//W3C//DTD SVG 1.1//EN"
  "http://www.w3.org/Graphics/SVG/1.1/DTD/svg11.dtd">
<!-- Created with matplotlib (https://matplotlib.org/) -->
<svg height="396pt" version="1.1" viewBox="0 0 684 396" width="684pt" xmlns="http://www.w3.org/2000/svg" xmlns:xlink="http://www.w3.org/1999/xlink">
 <defs>
  <style type="text/css">
*{stroke-linecap:butt;stroke-linejoin:round;}
  </style>
 </defs>
 <g id="figure_1">
  <g id="patch_1">
   <path d="M 0 396 
L 684 396 
L 684 0 
L 0 0 
z
" style="fill:#ffffff;"/>
  </g>
  <g id="axes_1">
   <g id="patch_2">
    <path d="M 130.230156 352.174167 
L 544.073906 352.174167 
L 544.073906 35.0625 
L 130.230156 35.0625 
z
" style="fill:#ffffff;"/>
   </g>
   <g id="matplotlib.axis_1">
    <g id="xtick_1">
     <g id="line2d_1">
      <defs>
       <path d="M 0 0 
L 0 3.5 
" id="m09e89595a3" style="stroke:#000000;stroke-width:0.8;"/>
      </defs>
      <g>
       <use style="stroke:#000000;stroke-width:0.8;" x="149.016664" xlink:href="#m09e89595a3" y="352.174167"/>
      </g>
     </g>
     <g id="text_1">
      <!-- 0 -->
      <defs>
       <path d="M 31.78125 66.40625 
Q 24.171875 66.40625 20.328125 58.90625 
Q 16.5 51.421875 16.5 36.375 
Q 16.5 21.390625 20.328125 13.890625 
Q 24.171875 6.390625 31.78125 6.390625 
Q 39.453125 6.390625 43.28125 13.890625 
Q 47.125 21.390625 47.125 36.375 
Q 47.125 51.421875 43.28125 58.90625 
Q 39.453125 66.40625 31.78125 66.40625 
z
M 31.78125 74.21875 
Q 44.046875 74.21875 50.515625 64.515625 
Q 56.984375 54.828125 56.984375 36.375 
Q 56.984375 17.96875 50.515625 8.265625 
Q 44.046875 -1.421875 31.78125 -1.421875 
Q 19.53125 -1.421875 13.0625 8.265625 
Q 6.59375 17.96875 6.59375 36.375 
Q 6.59375 54.828125 13.0625 64.515625 
Q 19.53125 74.21875 31.78125 74.21875 
z
" id="DejaVuSans-48"/>
      </defs>
      <g transform="translate(145.835414 366.772604)scale(0.1 -0.1)">
       <use xlink:href="#DejaVuSans-48"/>
      </g>
     </g>
    </g>
    <g id="xtick_2">
     <g id="line2d_2">
      <g>
       <use style="stroke:#000000;stroke-width:0.8;" x="217.271174" xlink:href="#m09e89595a3" y="352.174167"/>
      </g>
     </g>
     <g id="text_2">
      <!-- 50 -->
      <defs>
       <path d="M 10.796875 72.90625 
L 49.515625 72.90625 
L 49.515625 64.59375 
L 19.828125 64.59375 
L 19.828125 46.734375 
Q 21.96875 47.46875 24.109375 47.828125 
Q 26.265625 48.1875 28.421875 48.1875 
Q 40.625 48.1875 47.75 41.5 
Q 54.890625 34.8125 54.890625 23.390625 
Q 54.890625 11.625 47.5625 5.09375 
Q 40.234375 -1.421875 26.90625 -1.421875 
Q 22.3125 -1.421875 17.546875 -0.640625 
Q 12.796875 0.140625 7.71875 1.703125 
L 7.71875 11.625 
Q 12.109375 9.234375 16.796875 8.0625 
Q 21.484375 6.890625 26.703125 6.890625 
Q 35.15625 6.890625 40.078125 11.328125 
Q 45.015625 15.765625 45.015625 23.390625 
Q 45.015625 31 40.078125 35.4375 
Q 35.15625 39.890625 26.703125 39.890625 
Q 22.75 39.890625 18.8125 39.015625 
Q 14.890625 38.140625 10.796875 36.28125 
z
" id="DejaVuSans-53"/>
      </defs>
      <g transform="translate(210.908674 366.772604)scale(0.1 -0.1)">
       <use xlink:href="#DejaVuSans-53"/>
       <use x="63.623047" xlink:href="#DejaVuSans-48"/>
      </g>
     </g>
    </g>
    <g id="xtick_3">
     <g id="line2d_3">
      <g>
       <use style="stroke:#000000;stroke-width:0.8;" x="285.525685" xlink:href="#m09e89595a3" y="352.174167"/>
      </g>
     </g>
     <g id="text_3">
      <!-- 100 -->
      <defs>
       <path d="M 12.40625 8.296875 
L 28.515625 8.296875 
L 28.515625 63.921875 
L 10.984375 60.40625 
L 10.984375 69.390625 
L 28.421875 72.90625 
L 38.28125 72.90625 
L 38.28125 8.296875 
L 54.390625 8.296875 
L 54.390625 0 
L 12.40625 0 
z
" id="DejaVuSans-49"/>
      </defs>
      <g transform="translate(275.981935 366.772604)scale(0.1 -0.1)">
       <use xlink:href="#DejaVuSans-49"/>
       <use x="63.623047" xlink:href="#DejaVuSans-48"/>
       <use x="127.246094" xlink:href="#DejaVuSans-48"/>
      </g>
     </g>
    </g>
    <g id="xtick_4">
     <g id="line2d_4">
      <g>
       <use style="stroke:#000000;stroke-width:0.8;" x="353.780195" xlink:href="#m09e89595a3" y="352.174167"/>
      </g>
     </g>
     <g id="text_4">
      <!-- 150 -->
      <g transform="translate(344.236445 366.772604)scale(0.1 -0.1)">
       <use xlink:href="#DejaVuSans-49"/>
       <use x="63.623047" xlink:href="#DejaVuSans-53"/>
       <use x="127.246094" xlink:href="#DejaVuSans-48"/>
      </g>
     </g>
    </g>
    <g id="xtick_5">
     <g id="line2d_5">
      <g>
       <use style="stroke:#000000;stroke-width:0.8;" x="422.034705" xlink:href="#m09e89595a3" y="352.174167"/>
      </g>
     </g>
     <g id="text_5">
      <!-- 200 -->
      <defs>
       <path d="M 19.1875 8.296875 
L 53.609375 8.296875 
L 53.609375 0 
L 7.328125 0 
L 7.328125 8.296875 
Q 12.9375 14.109375 22.625 23.890625 
Q 32.328125 33.6875 34.8125 36.53125 
Q 39.546875 41.84375 41.421875 45.53125 
Q 43.3125 49.21875 43.3125 52.78125 
Q 43.3125 58.59375 39.234375 62.25 
Q 35.15625 65.921875 28.609375 65.921875 
Q 23.96875 65.921875 18.8125 64.3125 
Q 13.671875 62.703125 7.8125 59.421875 
L 7.8125 69.390625 
Q 13.765625 71.78125 18.9375 73 
Q 24.125 74.21875 28.421875 74.21875 
Q 39.75 74.21875 46.484375 68.546875 
Q 53.21875 62.890625 53.21875 53.421875 
Q 53.21875 48.921875 51.53125 44.890625 
Q 49.859375 40.875 45.40625 35.40625 
Q 44.1875 33.984375 37.640625 27.21875 
Q 31.109375 20.453125 19.1875 8.296875 
z
" id="DejaVuSans-50"/>
      </defs>
      <g transform="translate(412.490955 366.772604)scale(0.1 -0.1)">
       <use xlink:href="#DejaVuSans-50"/>
       <use x="63.623047" xlink:href="#DejaVuSans-48"/>
       <use x="127.246094" xlink:href="#DejaVuSans-48"/>
      </g>
     </g>
    </g>
    <g id="xtick_6">
     <g id="line2d_6">
      <g>
       <use style="stroke:#000000;stroke-width:0.8;" x="490.289216" xlink:href="#m09e89595a3" y="352.174167"/>
      </g>
     </g>
     <g id="text_6">
      <!-- 250 -->
      <g transform="translate(480.745466 366.772604)scale(0.1 -0.1)">
       <use xlink:href="#DejaVuSans-50"/>
       <use x="63.623047" xlink:href="#DejaVuSans-53"/>
       <use x="127.246094" xlink:href="#DejaVuSans-48"/>
      </g>
     </g>
    </g>
   </g>
   <g id="matplotlib.axis_2">
    <g id="ytick_1">
     <g id="line2d_7">
      <defs>
       <path d="M 0 0 
L -3.5 0 
" id="m3b93ad7f5f" style="stroke:#000000;stroke-width:0.8;"/>
      </defs>
      <g>
       <use style="stroke:#000000;stroke-width:0.8;" x="130.230156" xlink:href="#m3b93ad7f5f" y="352.174167"/>
      </g>
     </g>
     <g id="text_7">
      <!-- 0 -->
      <g transform="translate(116.867656 355.973385)scale(0.1 -0.1)">
       <use xlink:href="#DejaVuSans-48"/>
      </g>
     </g>
    </g>
    <g id="ytick_2">
     <g id="line2d_8">
      <g>
       <use style="stroke:#000000;stroke-width:0.8;" x="130.230156" xlink:href="#m3b93ad7f5f" y="289.161717"/>
      </g>
     </g>
     <g id="text_8">
      <!-- 200000 -->
      <g transform="translate(85.055156 292.960935)scale(0.1 -0.1)">
       <use xlink:href="#DejaVuSans-50"/>
       <use x="63.623047" xlink:href="#DejaVuSans-48"/>
       <use x="127.246094" xlink:href="#DejaVuSans-48"/>
       <use x="190.869141" xlink:href="#DejaVuSans-48"/>
       <use x="254.492188" xlink:href="#DejaVuSans-48"/>
       <use x="318.115234" xlink:href="#DejaVuSans-48"/>
      </g>
     </g>
    </g>
    <g id="ytick_3">
     <g id="line2d_9">
      <g>
       <use style="stroke:#000000;stroke-width:0.8;" x="130.230156" xlink:href="#m3b93ad7f5f" y="226.149267"/>
      </g>
     </g>
     <g id="text_9">
      <!-- 400000 -->
      <defs>
       <path d="M 37.796875 64.3125 
L 12.890625 25.390625 
L 37.796875 25.390625 
z
M 35.203125 72.90625 
L 47.609375 72.90625 
L 47.609375 25.390625 
L 58.015625 25.390625 
L 58.015625 17.1875 
L 47.609375 17.1875 
L 47.609375 0 
L 37.796875 0 
L 37.796875 17.1875 
L 4.890625 17.1875 
L 4.890625 26.703125 
z
" id="DejaVuSans-52"/>
      </defs>
      <g transform="translate(85.055156 229.948486)scale(0.1 -0.1)">
       <use xlink:href="#DejaVuSans-52"/>
       <use x="63.623047" xlink:href="#DejaVuSans-48"/>
       <use x="127.246094" xlink:href="#DejaVuSans-48"/>
       <use x="190.869141" xlink:href="#DejaVuSans-48"/>
       <use x="254.492188" xlink:href="#DejaVuSans-48"/>
       <use x="318.115234" xlink:href="#DejaVuSans-48"/>
      </g>
     </g>
    </g>
    <g id="ytick_4">
     <g id="line2d_10">
      <g>
       <use style="stroke:#000000;stroke-width:0.8;" x="130.230156" xlink:href="#m3b93ad7f5f" y="163.136817"/>
      </g>
     </g>
     <g id="text_10">
      <!-- 600000 -->
      <defs>
       <path d="M 33.015625 40.375 
Q 26.375 40.375 22.484375 35.828125 
Q 18.609375 31.296875 18.609375 23.390625 
Q 18.609375 15.53125 22.484375 10.953125 
Q 26.375 6.390625 33.015625 6.390625 
Q 39.65625 6.390625 43.53125 10.953125 
Q 47.40625 15.53125 47.40625 23.390625 
Q 47.40625 31.296875 43.53125 35.828125 
Q 39.65625 40.375 33.015625 40.375 
z
M 52.59375 71.296875 
L 52.59375 62.3125 
Q 48.875 64.0625 45.09375 64.984375 
Q 41.3125 65.921875 37.59375 65.921875 
Q 27.828125 65.921875 22.671875 59.328125 
Q 17.53125 52.734375 16.796875 39.40625 
Q 19.671875 43.65625 24.015625 45.921875 
Q 28.375 48.1875 33.59375 48.1875 
Q 44.578125 48.1875 50.953125 41.515625 
Q 57.328125 34.859375 57.328125 23.390625 
Q 57.328125 12.15625 50.6875 5.359375 
Q 44.046875 -1.421875 33.015625 -1.421875 
Q 20.359375 -1.421875 13.671875 8.265625 
Q 6.984375 17.96875 6.984375 36.375 
Q 6.984375 53.65625 15.1875 63.9375 
Q 23.390625 74.21875 37.203125 74.21875 
Q 40.921875 74.21875 44.703125 73.484375 
Q 48.484375 72.75 52.59375 71.296875 
z
" id="DejaVuSans-54"/>
      </defs>
      <g transform="translate(85.055156 166.936036)scale(0.1 -0.1)">
       <use xlink:href="#DejaVuSans-54"/>
       <use x="63.623047" xlink:href="#DejaVuSans-48"/>
       <use x="127.246094" xlink:href="#DejaVuSans-48"/>
       <use x="190.869141" xlink:href="#DejaVuSans-48"/>
       <use x="254.492188" xlink:href="#DejaVuSans-48"/>
       <use x="318.115234" xlink:href="#DejaVuSans-48"/>
      </g>
     </g>
    </g>
    <g id="ytick_5">
     <g id="line2d_11">
      <g>
       <use style="stroke:#000000;stroke-width:0.8;" x="130.230156" xlink:href="#m3b93ad7f5f" y="100.124367"/>
      </g>
     </g>
     <g id="text_11">
      <!-- 800000 -->
      <defs>
       <path d="M 31.78125 34.625 
Q 24.75 34.625 20.71875 30.859375 
Q 16.703125 27.09375 16.703125 20.515625 
Q 16.703125 13.921875 20.71875 10.15625 
Q 24.75 6.390625 31.78125 6.390625 
Q 38.8125 6.390625 42.859375 10.171875 
Q 46.921875 13.96875 46.921875 20.515625 
Q 46.921875 27.09375 42.890625 30.859375 
Q 38.875 34.625 31.78125 34.625 
z
M 21.921875 38.8125 
Q 15.578125 40.375 12.03125 44.71875 
Q 8.5 49.078125 8.5 55.328125 
Q 8.5 64.0625 14.71875 69.140625 
Q 20.953125 74.21875 31.78125 74.21875 
Q 42.671875 74.21875 48.875 69.140625 
Q 55.078125 64.0625 55.078125 55.328125 
Q 55.078125 49.078125 51.53125 44.71875 
Q 48 40.375 41.703125 38.8125 
Q 48.828125 37.15625 52.796875 32.3125 
Q 56.78125 27.484375 56.78125 20.515625 
Q 56.78125 9.90625 50.3125 4.234375 
Q 43.84375 -1.421875 31.78125 -1.421875 
Q 19.734375 -1.421875 13.25 4.234375 
Q 6.78125 9.90625 6.78125 20.515625 
Q 6.78125 27.484375 10.78125 32.3125 
Q 14.796875 37.15625 21.921875 38.8125 
z
M 18.3125 54.390625 
Q 18.3125 48.734375 21.84375 45.5625 
Q 25.390625 42.390625 31.78125 42.390625 
Q 38.140625 42.390625 41.71875 45.5625 
Q 45.3125 48.734375 45.3125 54.390625 
Q 45.3125 60.0625 41.71875 63.234375 
Q 38.140625 66.40625 31.78125 66.40625 
Q 25.390625 66.40625 21.84375 63.234375 
Q 18.3125 60.0625 18.3125 54.390625 
z
" id="DejaVuSans-56"/>
      </defs>
      <g transform="translate(85.055156 103.923586)scale(0.1 -0.1)">
       <use xlink:href="#DejaVuSans-56"/>
       <use x="63.623047" xlink:href="#DejaVuSans-48"/>
       <use x="127.246094" xlink:href="#DejaVuSans-48"/>
       <use x="190.869141" xlink:href="#DejaVuSans-48"/>
       <use x="254.492188" xlink:href="#DejaVuSans-48"/>
       <use x="318.115234" xlink:href="#DejaVuSans-48"/>
      </g>
     </g>
    </g>
    <g id="ytick_6">
     <g id="line2d_12">
      <g>
       <use style="stroke:#000000;stroke-width:0.8;" x="130.230156" xlink:href="#m3b93ad7f5f" y="37.111917"/>
      </g>
     </g>
     <g id="text_12">
      <!-- 1000000 -->
      <g transform="translate(78.692656 40.911136)scale(0.1 -0.1)">
       <use xlink:href="#DejaVuSans-49"/>
       <use x="63.623047" xlink:href="#DejaVuSans-48"/>
       <use x="127.246094" xlink:href="#DejaVuSans-48"/>
       <use x="190.869141" xlink:href="#DejaVuSans-48"/>
       <use x="254.492188" xlink:href="#DejaVuSans-48"/>
       <use x="318.115234" xlink:href="#DejaVuSans-48"/>
       <use x="381.738281" xlink:href="#DejaVuSans-48"/>
      </g>
     </g>
    </g>
    <g id="text_13">
     <!-- inflight -->
     <defs>
      <path d="M 9.421875 54.6875 
L 18.40625 54.6875 
L 18.40625 0 
L 9.421875 0 
z
M 9.421875 75.984375 
L 18.40625 75.984375 
L 18.40625 64.59375 
L 9.421875 64.59375 
z
" id="DejaVuSans-105"/>
      <path d="M 54.890625 33.015625 
L 54.890625 0 
L 45.90625 0 
L 45.90625 32.71875 
Q 45.90625 40.484375 42.875 44.328125 
Q 39.84375 48.1875 33.796875 48.1875 
Q 26.515625 48.1875 22.3125 43.546875 
Q 18.109375 38.921875 18.109375 30.90625 
L 18.109375 0 
L 9.078125 0 
L 9.078125 54.6875 
L 18.109375 54.6875 
L 18.109375 46.1875 
Q 21.34375 51.125 25.703125 53.5625 
Q 30.078125 56 35.796875 56 
Q 45.21875 56 50.046875 50.171875 
Q 54.890625 44.34375 54.890625 33.015625 
z
" id="DejaVuSans-110"/>
      <path d="M 37.109375 75.984375 
L 37.109375 68.5 
L 28.515625 68.5 
Q 23.6875 68.5 21.796875 66.546875 
Q 19.921875 64.59375 19.921875 59.515625 
L 19.921875 54.6875 
L 34.71875 54.6875 
L 34.71875 47.703125 
L 19.921875 47.703125 
L 19.921875 0 
L 10.890625 0 
L 10.890625 47.703125 
L 2.296875 47.703125 
L 2.296875 54.6875 
L 10.890625 54.6875 
L 10.890625 58.5 
Q 10.890625 67.625 15.140625 71.796875 
Q 19.390625 75.984375 28.609375 75.984375 
z
" id="DejaVuSans-102"/>
      <path d="M 9.421875 75.984375 
L 18.40625 75.984375 
L 18.40625 0 
L 9.421875 0 
z
" id="DejaVuSans-108"/>
      <path d="M 45.40625 27.984375 
Q 45.40625 37.75 41.375 43.109375 
Q 37.359375 48.484375 30.078125 48.484375 
Q 22.859375 48.484375 18.828125 43.109375 
Q 14.796875 37.75 14.796875 27.984375 
Q 14.796875 18.265625 18.828125 12.890625 
Q 22.859375 7.515625 30.078125 7.515625 
Q 37.359375 7.515625 41.375 12.890625 
Q 45.40625 18.265625 45.40625 27.984375 
z
M 54.390625 6.78125 
Q 54.390625 -7.171875 48.1875 -13.984375 
Q 42 -20.796875 29.203125 -20.796875 
Q 24.46875 -20.796875 20.265625 -20.09375 
Q 16.0625 -19.390625 12.109375 -17.921875 
L 12.109375 -9.1875 
Q 16.0625 -11.328125 19.921875 -12.34375 
Q 23.78125 -13.375 27.78125 -13.375 
Q 36.625 -13.375 41.015625 -8.765625 
Q 45.40625 -4.15625 45.40625 5.171875 
L 45.40625 9.625 
Q 42.625 4.78125 38.28125 2.390625 
Q 33.9375 0 27.875 0 
Q 17.828125 0 11.671875 7.65625 
Q 5.515625 15.328125 5.515625 27.984375 
Q 5.515625 40.671875 11.671875 48.328125 
Q 17.828125 56 27.875 56 
Q 33.9375 56 38.28125 53.609375 
Q 42.625 51.21875 45.40625 46.390625 
L 45.40625 54.6875 
L 54.390625 54.6875 
z
" id="DejaVuSans-103"/>
      <path d="M 54.890625 33.015625 
L 54.890625 0 
L 45.90625 0 
L 45.90625 32.71875 
Q 45.90625 40.484375 42.875 44.328125 
Q 39.84375 48.1875 33.796875 48.1875 
Q 26.515625 48.1875 22.3125 43.546875 
Q 18.109375 38.921875 18.109375 30.90625 
L 18.109375 0 
L 9.078125 0 
L 9.078125 75.984375 
L 18.109375 75.984375 
L 18.109375 46.1875 
Q 21.34375 51.125 25.703125 53.5625 
Q 30.078125 56 35.796875 56 
Q 45.21875 56 50.046875 50.171875 
Q 54.890625 44.34375 54.890625 33.015625 
z
" id="DejaVuSans-104"/>
      <path d="M 18.3125 70.21875 
L 18.3125 54.6875 
L 36.8125 54.6875 
L 36.8125 47.703125 
L 18.3125 47.703125 
L 18.3125 18.015625 
Q 18.3125 11.328125 20.140625 9.421875 
Q 21.96875 7.515625 27.59375 7.515625 
L 36.8125 7.515625 
L 36.8125 0 
L 27.59375 0 
Q 17.1875 0 13.234375 3.875 
Q 9.28125 7.765625 9.28125 18.015625 
L 9.28125 47.703125 
L 2.6875 47.703125 
L 2.6875 54.6875 
L 9.28125 54.6875 
L 9.28125 70.21875 
z
" id="DejaVuSans-116"/>
     </defs>
     <g transform="translate(61.415156 211.017552)rotate(-90)scale(0.1 -0.1)">
      <use xlink:href="#DejaVuSans-105"/>
      <use x="27.783203" xlink:href="#DejaVuSans-110"/>
      <use x="91.162109" xlink:href="#DejaVuSans-102"/>
      <use x="126.367188" xlink:href="#DejaVuSans-108"/>
      <use x="154.150391" xlink:href="#DejaVuSans-105"/>
      <use x="181.933594" xlink:href="#DejaVuSans-103"/>
      <use x="245.410156" xlink:href="#DejaVuSans-104"/>
      <use x="308.789062" xlink:href="#DejaVuSans-116"/>
     </g>
     <!-- (bytes) -->
     <defs>
      <path d="M 31 75.875 
Q 24.46875 64.65625 21.28125 53.65625 
Q 18.109375 42.671875 18.109375 31.390625 
Q 18.109375 20.125 21.3125 9.0625 
Q 24.515625 -2 31 -13.1875 
L 23.1875 -13.1875 
Q 15.875 -1.703125 12.234375 9.375 
Q 8.59375 20.453125 8.59375 31.390625 
Q 8.59375 42.28125 12.203125 53.3125 
Q 15.828125 64.359375 23.1875 75.875 
z
" id="DejaVuSans-40"/>
      <path d="M 48.6875 27.296875 
Q 48.6875 37.203125 44.609375 42.84375 
Q 40.53125 48.484375 33.40625 48.484375 
Q 26.265625 48.484375 22.1875 42.84375 
Q 18.109375 37.203125 18.109375 27.296875 
Q 18.109375 17.390625 22.1875 11.75 
Q 26.265625 6.109375 33.40625 6.109375 
Q 40.53125 6.109375 44.609375 11.75 
Q 48.6875 17.390625 48.6875 27.296875 
z
M 18.109375 46.390625 
Q 20.953125 51.265625 25.265625 53.625 
Q 29.59375 56 35.59375 56 
Q 45.5625 56 51.78125 48.09375 
Q 58.015625 40.1875 58.015625 27.296875 
Q 58.015625 14.40625 51.78125 6.484375 
Q 45.5625 -1.421875 35.59375 -1.421875 
Q 29.59375 -1.421875 25.265625 0.953125 
Q 20.953125 3.328125 18.109375 8.203125 
L 18.109375 0 
L 9.078125 0 
L 9.078125 75.984375 
L 18.109375 75.984375 
z
" id="DejaVuSans-98"/>
      <path d="M 32.171875 -5.078125 
Q 28.375 -14.84375 24.75 -17.8125 
Q 21.140625 -20.796875 15.09375 -20.796875 
L 7.90625 -20.796875 
L 7.90625 -13.28125 
L 13.1875 -13.28125 
Q 16.890625 -13.28125 18.9375 -11.515625 
Q 21 -9.765625 23.484375 -3.21875 
L 25.09375 0.875 
L 2.984375 54.6875 
L 12.5 54.6875 
L 29.59375 11.921875 
L 46.6875 54.6875 
L 56.203125 54.6875 
z
" id="DejaVuSans-121"/>
      <path d="M 56.203125 29.59375 
L 56.203125 25.203125 
L 14.890625 25.203125 
Q 15.484375 15.921875 20.484375 11.0625 
Q 25.484375 6.203125 34.421875 6.203125 
Q 39.59375 6.203125 44.453125 7.46875 
Q 49.3125 8.734375 54.109375 11.28125 
L 54.109375 2.78125 
Q 49.265625 0.734375 44.1875 -0.34375 
Q 39.109375 -1.421875 33.890625 -1.421875 
Q 20.796875 -1.421875 13.15625 6.1875 
Q 5.515625 13.8125 5.515625 26.8125 
Q 5.515625 40.234375 12.765625 48.109375 
Q 20.015625 56 32.328125 56 
Q 43.359375 56 49.78125 48.890625 
Q 56.203125 41.796875 56.203125 29.59375 
z
M 47.21875 32.234375 
Q 47.125 39.59375 43.09375 43.984375 
Q 39.0625 48.390625 32.421875 48.390625 
Q 24.90625 48.390625 20.390625 44.140625 
Q 15.875 39.890625 15.1875 32.171875 
z
" id="DejaVuSans-101"/>
      <path d="M 44.28125 53.078125 
L 44.28125 44.578125 
Q 40.484375 46.53125 36.375 47.5 
Q 32.28125 48.484375 27.875 48.484375 
Q 21.1875 48.484375 17.84375 46.4375 
Q 14.5 44.390625 14.5 40.28125 
Q 14.5 37.15625 16.890625 35.375 
Q 19.28125 33.59375 26.515625 31.984375 
L 29.59375 31.296875 
Q 39.15625 29.25 43.1875 25.515625 
Q 47.21875 21.78125 47.21875 15.09375 
Q 47.21875 7.46875 41.1875 3.015625 
Q 35.15625 -1.421875 24.609375 -1.421875 
Q 20.21875 -1.421875 15.453125 -0.5625 
Q 10.6875 0.296875 5.421875 2 
L 5.421875 11.28125 
Q 10.40625 8.6875 15.234375 7.390625 
Q 20.0625 6.109375 24.8125 6.109375 
Q 31.15625 6.109375 34.5625 8.28125 
Q 37.984375 10.453125 37.984375 14.40625 
Q 37.984375 18.0625 35.515625 20.015625 
Q 33.0625 21.96875 24.703125 23.78125 
L 21.578125 24.515625 
Q 13.234375 26.265625 9.515625 29.90625 
Q 5.8125 33.546875 5.8125 39.890625 
Q 5.8125 47.609375 11.28125 51.796875 
Q 16.75 56 26.8125 56 
Q 31.78125 56 36.171875 55.265625 
Q 40.578125 54.546875 44.28125 53.078125 
z
" id="DejaVuSans-115"/>
      <path d="M 8.015625 75.875 
L 15.828125 75.875 
Q 23.140625 64.359375 26.78125 53.3125 
Q 30.421875 42.28125 30.421875 31.390625 
Q 30.421875 20.453125 26.78125 9.375 
Q 23.140625 -1.703125 15.828125 -13.1875 
L 8.015625 -13.1875 
Q 14.5 -2 17.703125 9.0625 
Q 20.90625 20.125 20.90625 31.390625 
Q 20.90625 42.671875 17.703125 53.65625 
Q 14.5 64.65625 8.015625 75.875 
z
" id="DejaVuSans-41"/>
     </defs>
     <g transform="translate(72.612969 211.294896)rotate(-90)scale(0.1 -0.1)">
      <use xlink:href="#DejaVuSans-40"/>
      <use x="39.013672" xlink:href="#DejaVuSans-98"/>
      <use x="102.490234" xlink:href="#DejaVuSans-121"/>
      <use x="161.669922" xlink:href="#DejaVuSans-116"/>
      <use x="200.878906" xlink:href="#DejaVuSans-101"/>
      <use x="262.402344" xlink:href="#DejaVuSans-115"/>
      <use x="314.501953" xlink:href="#DejaVuSans-41"/>
     </g>
    </g>
   </g>
   <g id="line2d_13">
    <path clip-path="url(#p6ba12edb6a)" d="M 149.041236 302.903472 
L 149.723781 302.447262 
L 150.406326 307.465573 
L 151.088871 302.903472 
L 151.771416 294.235479 
L 152.453961 315.221146 
L 153.136506 324.345348 
L 153.819052 328.90745 
L 154.501597 323.432928 
L 155.184142 338.944073 
L 155.866687 340.768913 
L 156.549232 341.681334 
L 157.231777 337.119232 
L 157.914322 342.593754 
L 158.596867 344.874804 
L 159.279412 346.699645 
L 159.961957 346.699645 
L 160.644503 343.962384 
L 161.327048 343.049964 
L 162.009593 346.699645 
L 162.692138 342.593754 
L 163.374683 343.049964 
L 164.057228 318.414616 
L 164.739773 326.626399 
L 165.422318 327.995029 
L 166.104863 332.100921 
L 166.787408 339.400283 
L 167.469954 325.257769 
L 168.152499 326.170189 
L 168.835044 294.691689 
L 169.517589 330.73229 
L 170.200134 335.294392 
L 170.882679 319.327037 
L 171.565224 338.944073 
L 172.247769 340.768913 
L 172.930314 342.137544 
L 173.61286 342.137544 
L 174.295405 341.225123 
L 174.97795 344.874804 
L 176.34304 341.225123 
L 177.025585 341.681334 
L 177.70813 334.381971 
L 178.390675 340.768913 
L 179.07322 344.418594 
L 179.755765 342.137544 
L 180.438311 343.049964 
L 181.120856 338.944073 
L 181.803401 351.717957 
L 182.485946 338.031652 
L 183.168491 328.45124 
L 183.851036 331.1885 
L 184.533581 327.538819 
L 185.216126 322.520508 
L 185.898671 321.608087 
L 186.581216 322.976718 
L 187.946307 316.133566 
L 188.628852 315.677356 
L 189.311397 315.677356 
L 189.993942 318.414616 
L 190.676487 314.308725 
L 191.359032 313.396305 
L 192.041577 315.221146 
L 192.724122 313.852515 
L 193.406667 313.852515 
L 194.089213 312.940095 
L 194.771758 313.396305 
L 195.454303 317.502196 
L 196.136848 351.717957 
L 196.819393 322.064298 
L 197.501938 330.27608 
L 198.184483 329.36366 
L 198.867028 332.557131 
L 199.549573 330.27608 
L 200.232119 331.1885 
L 200.914664 333.469551 
L 201.597209 333.013341 
L 202.962299 333.013341 
L 203.644844 334.838181 
L 204.327389 332.557131 
L 205.009934 332.557131 
L 205.692479 331.64471 
L 206.375024 331.64471 
L 207.05757 332.557131 
L 207.740115 332.100921 
L 208.42266 333.469551 
L 209.105205 333.469551 
L 209.78775 331.64471 
L 210.470295 335.294392 
L 211.15284 332.557131 
L 211.835385 333.469551 
L 212.51793 333.925761 
L 213.200475 333.925761 
L 213.883021 333.013341 
L 214.565566 334.381971 
L 215.248111 333.925761 
L 215.930656 332.100921 
L 216.613201 333.013341 
L 217.295746 331.1885 
L 217.978291 332.100921 
L 218.660836 332.100921 
L 219.343381 332.557131 
L 223.438652 332.557131 
L 224.121197 351.717957 
L 224.803742 328.90745 
L 225.486287 334.381971 
L 226.168832 333.925761 
L 226.851378 333.925761 
L 227.533923 333.013341 
L 228.216468 336.206812 
L 228.899013 332.557131 
L 229.581558 332.557131 
L 230.264103 333.469551 
L 230.946648 331.1885 
L 231.629193 332.100921 
L 232.311738 336.206812 
L 232.994283 331.64471 
L 233.676829 333.013341 
L 234.359374 332.100921 
L 235.041919 332.557131 
L 235.724464 331.64471 
L 236.407009 331.64471 
L 237.089554 332.557131 
L 237.772099 332.557131 
L 238.454644 338.031652 
L 239.137189 336.206812 
L 239.819734 336.663022 
L 240.50228 336.206812 
L 241.184825 335.294392 
L 241.86737 334.838181 
L 242.549915 334.838181 
L 243.23246 333.013341 
L 243.915005 334.838181 
L 244.59755 333.469551 
L 245.280095 333.469551 
L 245.96264 333.013341 
L 246.645186 333.469551 
L 247.327731 333.469551 
L 248.010276 334.381971 
L 248.692821 332.557131 
L 249.375366 333.469551 
L 250.057911 333.013341 
L 250.740456 333.469551 
L 251.423001 333.469551 
L 252.105546 351.717957 
L 252.788091 325.257769 
L 253.470637 332.557131 
L 254.153182 332.557131 
L 254.835727 333.925761 
L 256.200817 332.100921 
L 256.883362 332.557131 
L 258.248452 332.557131 
L 258.930997 333.469551 
L 259.613542 333.469551 
L 260.296088 334.838181 
L 260.978633 332.100921 
L 261.661178 333.013341 
L 263.026268 332.100921 
L 263.708813 332.557131 
L 264.391358 333.925761 
L 265.073903 333.013341 
L 265.756448 333.469551 
L 266.438993 328.90745 
L 267.121539 335.294392 
L 268.486629 335.294392 
L 269.169174 334.381971 
L 269.851719 334.381971 
L 270.534264 335.294392 
L 271.216809 334.381971 
L 271.899354 333.013341 
L 272.581899 333.925761 
L 273.264445 333.469551 
L 273.94699 333.925761 
L 274.629535 333.469551 
L 275.31208 333.469551 
L 275.994625 336.206812 
L 276.67717 333.469551 
L 277.359715 333.925761 
L 278.04226 333.469551 
L 278.724805 333.925761 
L 279.40735 333.925761 
L 280.089896 351.717957 
L 280.772441 331.64471 
L 281.454986 336.663022 
L 282.137531 336.663022 
L 282.820076 334.838181 
L 284.185166 333.925761 
L 284.867711 335.294392 
L 285.550256 333.013341 
L 286.232801 335.294392 
L 286.915347 333.469551 
L 287.597892 333.925761 
L 288.280437 333.469551 
L 288.962982 333.925761 
L 289.645527 333.469551 
L 290.328072 333.469551 
L 291.010617 333.013341 
L 291.693162 333.925761 
L 292.375707 333.925761 
L 293.740798 333.013341 
L 294.423343 338.031652 
L 295.105888 338.031652 
L 295.788433 337.575442 
L 296.470978 335.294392 
L 297.153523 336.206812 
L 297.836068 334.838181 
L 298.518613 334.381971 
L 299.201158 333.013341 
L 299.883704 333.925761 
L 301.248794 334.838181 
L 301.931339 333.013341 
L 302.613884 332.557131 
L 303.296429 333.013341 
L 303.978974 332.557131 
L 304.661519 333.013341 
L 305.344064 332.557131 
L 306.026609 334.838181 
L 306.709155 332.557131 
L 307.3917 333.013341 
L 308.074245 351.717957 
L 308.75679 337.119232 
L 309.439335 338.031652 
L 310.12188 336.663022 
L 310.804425 336.663022 
L 311.48697 334.381971 
L 312.85206 333.469551 
L 314.217151 333.469551 
L 314.899696 333.013341 
L 315.582241 333.925761 
L 316.264786 333.469551 
L 316.947331 334.381971 
L 317.629876 332.557131 
L 318.312421 336.663022 
L 318.994966 333.013341 
L 319.677512 333.469551 
L 320.360057 333.013341 
L 321.042602 333.925761 
L 321.725147 337.119232 
L 322.407692 337.119232 
L 323.090237 337.575442 
L 323.772782 337.575442 
L 324.455327 337.119232 
L 325.137872 334.838181 
L 325.820417 333.925761 
L 327.185508 333.925761 
L 327.868053 337.119232 
L 328.550598 333.925761 
L 329.233143 334.381971 
L 329.915688 333.925761 
L 330.598233 335.294392 
L 331.280778 333.925761 
L 331.963323 333.925761 
L 332.645868 333.013341 
L 333.328414 333.469551 
L 334.010959 334.381971 
L 334.693504 334.838181 
L 335.376049 333.925761 
L 336.058594 329.81987 
L 336.741139 338.031652 
L 337.423684 336.663022 
L 338.106229 336.663022 
L 338.788774 334.381971 
L 339.47132 334.838181 
L 340.153865 333.469551 
L 340.83641 333.925761 
L 341.518955 332.557131 
L 342.2015 334.381971 
L 342.884045 332.100921 
L 343.56659 334.381971 
L 344.249135 332.557131 
L 344.93168 334.381971 
L 345.614225 333.013341 
L 346.296771 334.838181 
L 346.979316 331.1885 
L 347.661861 333.013341 
L 349.026951 333.013341 
L 349.709496 351.717957 
L 350.392041 336.663022 
L 351.074586 339.400283 
L 351.757131 337.119232 
L 352.439676 335.294392 
L 353.122222 334.838181 
L 353.804767 334.838181 
L 354.487312 335.750602 
L 355.169857 333.925761 
L 355.852402 335.294392 
L 356.534947 333.925761 
L 357.217492 335.294392 
L 357.900037 333.925761 
L 358.582582 333.013341 
L 359.265127 333.925761 
L 359.947673 333.469551 
L 360.630218 336.206812 
L 361.312763 333.013341 
L 362.677853 332.100921 
L 363.360398 332.557131 
L 364.042943 330.27608 
L 364.725488 332.557131 
L 365.408033 333.469551 
L 366.090579 333.469551 
L 366.773124 334.381971 
L 367.455669 333.013341 
L 368.138214 333.013341 
L 368.820759 332.100921 
L 369.503304 332.100921 
L 370.185849 332.557131 
L 370.868394 334.381971 
L 371.550939 332.100921 
L 372.233484 333.013341 
L 372.91603 332.557131 
L 373.598575 334.381971 
L 374.28112 332.100921 
L 374.963665 332.100921 
L 375.64621 332.557131 
L 376.328755 333.469551 
L 377.0113 332.557131 
L 377.693845 351.717957 
L 378.37639 336.206812 
L 379.058935 338.487863 
L 379.741481 335.750602 
L 380.424026 334.838181 
L 381.106571 332.557131 
L 381.789116 333.469551 
L 382.471661 332.557131 
L 383.154206 332.557131 
L 383.836751 331.64471 
L 384.519296 333.013341 
L 385.201841 332.557131 
L 385.884387 332.557131 
L 386.566932 332.100921 
L 387.249477 332.557131 
L 387.932022 332.557131 
L 388.614567 333.925761 
L 389.297112 332.557131 
L 389.979657 331.64471 
L 390.662202 331.64471 
L 391.344747 332.100921 
L 392.027292 335.294392 
L 392.709838 337.119232 
L 393.392383 338.031652 
L 394.074928 336.206812 
L 395.440018 333.469551 
L 396.122563 335.294392 
L 396.805108 332.557131 
L 398.170198 331.64471 
L 399.535289 333.469551 
L 400.217834 333.469551 
L 400.900379 331.1885 
L 401.582924 332.557131 
L 402.265469 331.64471 
L 402.948014 332.557131 
L 403.630559 333.013341 
L 404.313104 332.100921 
L 404.995649 331.64471 
L 405.678194 351.717957 
L 406.36074 331.64471 
L 407.043285 335.294392 
L 407.72583 337.119232 
L 408.408375 335.294392 
L 409.09092 333.925761 
L 410.45601 332.100921 
L 411.8211 332.100921 
L 412.503646 333.013341 
L 413.186191 332.557131 
L 413.868736 333.469551 
L 414.551281 333.013341 
L 415.233826 333.469551 
L 415.916371 332.100921 
L 416.598916 333.469551 
L 417.281461 333.013341 
L 417.964006 333.013341 
L 418.646551 332.557131 
L 419.329097 333.013341 
L 420.011642 333.925761 
L 420.694187 336.206812 
L 421.376732 336.663022 
L 422.059277 334.838181 
L 422.741822 333.469551 
L 423.424367 334.381971 
L 424.106912 334.381971 
L 424.789457 333.013341 
L 425.472002 332.557131 
L 426.154548 331.64471 
L 426.837093 332.557131 
L 427.519638 333.013341 
L 428.202183 332.100921 
L 428.884728 333.013341 
L 429.567273 333.013341 
L 430.249818 333.925761 
L 430.932363 332.557131 
L 431.614908 335.750602 
L 432.297454 333.469551 
L 432.979999 332.557131 
L 433.662544 351.717957 
L 434.345089 335.750602 
L 435.027634 335.294392 
L 435.710179 335.294392 
L 436.392724 333.925761 
L 437.075269 334.381971 
L 437.757814 333.469551 
L 438.440359 332.100921 
L 439.122905 333.469551 
L 439.80545 332.100921 
L 440.487995 333.469551 
L 441.17054 332.557131 
L 441.853085 333.469551 
L 442.53563 332.100921 
L 443.218175 332.557131 
L 443.90072 332.557131 
L 444.583265 332.100921 
L 445.26581 332.557131 
L 445.948356 333.925761 
L 446.630901 332.100921 
L 447.313446 333.469551 
L 447.995991 333.469551 
L 450.043626 334.838181 
L 450.726171 333.469551 
L 451.408716 332.557131 
L 452.091261 332.557131 
L 452.773807 333.469551 
L 453.456352 332.557131 
L 454.138897 333.925761 
L 454.821442 332.557131 
L 455.503987 334.381971 
L 456.186532 332.557131 
L 456.869077 332.557131 
L 457.551622 333.013341 
L 458.234167 333.925761 
L 458.916713 332.557131 
L 459.599258 332.557131 
L 460.964348 333.469551 
L 461.646893 351.717957 
L 462.329438 332.557131 
L 463.011983 332.100921 
L 463.694528 333.013341 
L 464.377073 332.100921 
L 465.059618 332.100921 
L 465.742164 332.557131 
L 466.424709 333.925761 
L 467.107254 333.469551 
L 467.789799 332.100921 
L 468.472344 333.925761 
L 469.154889 331.64471 
L 469.837434 332.557131 
L 470.519979 332.100921 
L 471.202524 333.013341 
L 471.885069 332.557131 
L 472.567615 333.469551 
L 473.25016 333.013341 
L 473.932705 333.469551 
L 474.61525 332.557131 
L 475.297795 333.925761 
L 475.98034 334.381971 
L 476.662885 336.663022 
L 477.34543 336.206812 
L 478.027975 334.381971 
L 478.710521 334.381971 
L 479.393066 333.925761 
L 480.075611 334.381971 
L 480.758156 333.469551 
L 481.440701 334.838181 
L 482.123246 333.013341 
L 482.805791 335.294392 
L 483.488336 333.013341 
L 484.170881 333.925761 
L 484.853426 333.469551 
L 485.535972 334.381971 
L 486.218517 333.469551 
L 486.901062 333.469551 
L 487.583607 332.557131 
L 488.266152 333.013341 
L 488.948697 331.1885 
L 489.631242 351.717957 
L 490.313787 332.557131 
L 490.996332 332.557131 
L 492.361423 331.64471 
L 493.726513 331.64471 
L 495.774148 333.013341 
L 496.456693 332.100921 
L 497.139238 333.013341 
L 497.821783 332.557131 
L 499.869419 333.925761 
L 500.551964 332.557131 
L 501.234509 333.925761 
L 501.917054 332.100921 
L 502.599599 332.557131 
L 503.282144 338.031652 
L 503.964689 332.557131 
L 504.647234 334.381971 
L 505.32978 336.663022 
L 506.012325 334.381971 
L 506.69487 332.557131 
L 507.377415 334.838181 
L 508.05996 333.013341 
L 508.742505 333.013341 
L 509.42505 331.64471 
L 510.107595 332.557131 
L 510.79014 332.557131 
L 511.472685 332.100921 
L 512.837776 332.100921 
L 513.520321 331.64471 
L 514.202866 332.557131 
L 514.885411 332.100921 
L 515.567956 332.557131 
L 516.250501 332.100921 
L 516.933046 332.557131 
L 516.933046 332.557131 
" style="fill:none;stroke:#1f77b4;stroke-linecap:square;stroke-width:1.5;"/>
   </g>
   <g id="line2d_14">
    <path clip-path="url(#p6ba12edb6a)" d="M 151.910655 301.078631 
L 152.593201 308.377993 
L 153.275746 293.779269 
L 153.958291 283.286436 
L 154.640836 283.742646 
L 155.323381 319.783247 
L 156.688471 319.783247 
L 157.371016 285.567487 
L 158.053561 334.838181 
L 158.736106 335.294392 
L 160.101197 333.469551 
L 160.783742 324.801558 
L 161.466287 329.81987 
L 162.148832 327.538819 
L 162.831377 340.312703 
L 163.513922 332.100921 
L 164.196467 352.174167 
L 164.879012 333.925761 
L 165.561557 325.713979 
L 166.244103 325.713979 
L 166.926648 312.483885 
L 167.609193 320.239457 
L 168.291738 346.243435 
L 168.974283 343.962384 
L 169.656828 344.874804 
L 170.339373 343.506174 
L 171.021918 343.962384 
L 171.704463 342.593754 
L 172.387008 341.681334 
L 173.069554 334.838181 
L 173.752099 338.944073 
L 174.434644 340.312703 
L 175.117189 340.768913 
L 175.799734 336.206812 
L 176.482279 311.115254 
L 177.164824 318.414616 
L 177.847369 347.612065 
L 179.21246 319.327037 
L 179.895005 320.239457 
L 180.57755 325.713979 
L 181.260095 338.487863 
L 181.94264 336.206812 
L 182.625185 299.253791 
L 183.30773 316.133566 
L 183.990275 323.432928 
L 185.355365 329.81987 
L 186.037911 331.64471 
L 188.085546 335.750602 
L 188.768091 335.750602 
L 189.450636 336.206812 
L 190.133181 335.750602 
L 190.815726 336.663022 
L 191.498271 336.663022 
L 192.180816 335.750602 
L 192.863362 336.206812 
L 193.545907 335.750602 
L 194.228452 337.119232 
L 194.910997 337.119232 
L 195.593542 337.575442 
L 196.276087 346.699645 
L 196.958632 330.73229 
L 197.641177 334.838181 
L 198.323722 335.294392 
L 199.006268 333.469551 
L 199.688813 333.925761 
L 200.371358 333.469551 
L 201.053903 332.557131 
L 202.418993 332.557131 
L 203.101538 331.64471 
L 203.784083 331.64471 
L 204.466628 333.013341 
L 205.149173 333.013341 
L 205.831719 332.557131 
L 208.561899 332.557131 
L 209.244444 333.013341 
L 209.926989 337.119232 
L 210.609534 329.36366 
L 211.292079 336.206812 
L 211.974624 336.206812 
L 212.65717 335.294392 
L 213.339715 336.206812 
L 214.02226 335.294392 
L 214.704805 333.925761 
L 215.38735 334.381971 
L 216.069895 333.469551 
L 216.75244 335.294392 
L 217.434985 333.925761 
L 218.11753 334.838181 
L 218.800075 333.469551 
L 219.482621 335.294392 
L 220.165166 333.469551 
L 220.847711 335.294392 
L 221.530256 333.013341 
L 222.212801 333.925761 
L 223.577891 333.925761 
L 224.260436 340.312703 
L 224.942981 322.520508 
L 225.625527 332.100921 
L 226.308072 333.013341 
L 226.990617 331.64471 
L 227.673162 334.381971 
L 228.355707 330.27608 
L 229.038252 332.100921 
L 229.720797 331.64471 
L 230.403342 333.469551 
L 231.085887 332.557131 
L 231.768432 334.838181 
L 232.450978 333.013341 
L 233.133523 334.381971 
L 233.816068 332.557131 
L 234.498613 333.013341 
L 235.181158 331.64471 
L 235.863703 332.100921 
L 236.546248 332.100921 
L 237.228793 331.64471 
L 237.911338 351.717957 
L 238.593883 322.064298 
L 239.276429 330.27608 
L 239.958974 332.557131 
L 240.641519 332.100921 
L 241.324064 332.100921 
L 242.006609 331.64471 
L 242.689154 332.557131 
L 243.371699 331.64471 
L 244.054244 332.100921 
L 244.736789 331.1885 
L 245.419335 332.100921 
L 246.10188 332.100921 
L 246.784425 331.64471 
L 247.46697 331.64471 
L 248.149515 331.1885 
L 248.83206 331.64471 
L 249.514605 333.469551 
L 250.19715 332.557131 
L 250.879695 333.013341 
L 251.56224 332.100921 
L 252.244786 343.506174 
L 252.927331 332.557131 
L 253.609876 334.381971 
L 254.292421 333.469551 
L 254.974966 335.750602 
L 255.657511 332.100921 
L 256.340056 334.838181 
L 257.022601 333.013341 
L 257.705146 334.838181 
L 258.387691 332.557131 
L 259.070237 333.469551 
L 259.752782 333.013341 
L 260.435327 333.013341 
L 261.117872 331.1885 
L 261.800417 333.925761 
L 262.482962 332.100921 
L 263.165507 333.925761 
L 263.848052 332.557131 
L 264.530597 333.469551 
L 265.213142 332.100921 
L 265.895688 351.717957 
L 266.578233 319.783247 
L 267.260778 330.73229 
L 267.943323 331.64471 
L 268.625868 332.100921 
L 269.308413 331.1885 
L 269.990958 330.73229 
L 270.673503 331.64471 
L 272.721139 331.64471 
L 273.403684 330.73229 
L 274.086229 331.64471 
L 274.768774 331.1885 
L 275.451319 331.64471 
L 276.133864 331.64471 
L 276.816409 333.925761 
L 277.498954 332.100921 
L 278.181499 333.013341 
L 278.864045 331.1885 
L 279.54659 333.469551 
L 280.229135 335.294392 
L 280.91168 331.1885 
L 281.594225 331.64471 
L 282.27677 331.64471 
L 282.959315 332.557131 
L 283.64186 332.557131 
L 285.00695 331.64471 
L 288.419676 331.64471 
L 289.102221 332.100921 
L 289.784766 331.1885 
L 290.467311 332.100921 
L 291.832402 333.013341 
L 292.514947 334.381971 
L 293.197492 334.838181 
L 293.880037 351.717957 
L 294.562582 336.663022 
L 295.245127 337.119232 
L 295.927672 334.838181 
L 296.610217 335.750602 
L 297.292762 334.381971 
L 297.975307 334.838181 
L 298.657853 333.469551 
L 299.340398 333.469551 
L 300.022943 332.557131 
L 301.388033 331.64471 
L 302.070578 331.64471 
L 302.753123 333.013341 
L 303.435668 331.64471 
L 304.118213 334.838181 
L 304.800758 333.013341 
L 305.483304 332.557131 
L 306.165849 332.557131 
L 306.848394 333.925761 
L 307.530939 333.013341 
L 308.213484 335.294392 
L 308.896029 339.400283 
L 309.578574 337.575442 
L 310.261119 338.031652 
L 310.943664 337.119232 
L 311.626209 334.381971 
L 312.308755 333.013341 
L 312.9913 333.013341 
L 313.673845 332.557131 
L 314.35639 331.64471 
L 315.038935 332.100921 
L 316.404025 332.100921 
L 317.08657 331.64471 
L 317.769115 332.100921 
L 318.451661 332.100921 
L 319.134206 332.557131 
L 321.181841 331.1885 
L 321.864386 351.717957 
L 322.546931 335.294392 
L 323.229476 337.575442 
L 323.912021 337.119232 
L 324.594566 335.750602 
L 325.277112 335.294392 
L 325.959657 336.206812 
L 326.642202 333.013341 
L 327.324747 333.925761 
L 328.007292 333.469551 
L 328.689837 335.750602 
L 329.372382 333.469551 
L 330.054927 333.925761 
L 331.420017 333.013341 
L 332.102563 333.013341 
L 332.785108 334.381971 
L 333.467653 332.100921 
L 334.150198 333.013341 
L 334.832743 331.64471 
L 335.515288 333.925761 
L 336.197833 335.294392 
L 336.880378 338.031652 
L 337.562923 337.119232 
L 338.245469 334.838181 
L 339.610559 336.663022 
L 340.293104 334.838181 
L 340.975649 333.925761 
L 341.658194 333.469551 
L 342.340739 334.381971 
L 343.023284 333.013341 
L 343.705829 333.469551 
L 344.388374 332.557131 
L 345.07092 332.557131 
L 345.753465 333.469551 
L 346.43601 332.557131 
L 347.118555 332.100921 
L 347.8011 332.557131 
L 348.483645 332.557131 
L 349.16619 333.013341 
L 349.848735 351.717957 
L 350.53128 335.750602 
L 351.213825 338.487863 
L 351.896371 336.206812 
L 352.578916 335.750602 
L 353.261461 334.381971 
L 354.626551 333.469551 
L 355.991641 334.381971 
L 356.674186 334.381971 
L 357.356731 333.469551 
L 358.039276 334.381971 
L 358.721822 333.469551 
L 359.404367 333.925761 
L 360.086912 333.013341 
L 360.769457 333.925761 
L 361.452002 333.469551 
L 362.134547 336.206812 
L 362.817092 334.381971 
L 363.499637 340.768913 
L 364.182182 324.345348 
L 364.864728 329.36366 
L 366.229818 334.381971 
L 366.912363 333.013341 
L 367.594908 334.838181 
L 368.277453 332.557131 
L 368.959998 333.925761 
L 369.642543 332.557131 
L 370.325088 333.013341 
L 371.007633 332.557131 
L 371.690179 333.013341 
L 372.372724 331.64471 
L 373.737814 331.64471 
L 374.420359 332.557131 
L 375.102904 331.1885 
L 375.785449 331.64471 
L 377.150539 331.64471 
L 377.833084 351.717957 
L 378.51563 334.381971 
L 379.198175 334.838181 
L 379.88072 334.381971 
L 380.563265 333.469551 
L 381.24581 334.838181 
L 381.928355 334.381971 
L 382.6109 334.381971 
L 383.97599 335.294392 
L 384.658536 334.381971 
L 385.341081 334.838181 
L 386.023626 333.925761 
L 386.706171 334.838181 
L 388.071261 334.838181 
L 388.753806 334.381971 
L 389.436351 334.838181 
L 390.118896 333.013341 
L 390.801441 333.925761 
L 391.483987 340.768913 
L 392.166532 333.013341 
L 392.849077 335.750602 
L 393.531622 336.206812 
L 394.214167 338.031652 
L 394.896712 336.663022 
L 395.579257 337.119232 
L 396.261802 334.838181 
L 396.944347 338.487863 
L 397.626892 333.925761 
L 398.309438 335.750602 
L 398.991983 334.381971 
L 399.674528 335.750602 
L 400.357073 334.838181 
L 401.039618 337.119232 
L 401.722163 333.013341 
L 402.404708 334.381971 
L 403.087253 333.469551 
L 403.769798 334.381971 
L 404.452343 333.469551 
L 405.134889 333.469551 
L 405.817434 351.717957 
L 406.499979 336.206812 
L 407.865069 336.206812 
L 408.547614 337.119232 
L 409.230159 339.400283 
L 409.912704 336.206812 
L 410.595249 337.119232 
L 411.277795 335.750602 
L 411.96034 335.294392 
L 412.642885 333.925761 
L 413.32543 334.381971 
L 414.007975 332.100921 
L 414.69052 333.925761 
L 415.373065 333.925761 
L 416.05561 334.381971 
L 416.738155 333.013341 
L 418.103246 333.925761 
L 418.785791 333.469551 
L 419.468336 343.506174 
L 420.150881 336.206812 
L 420.833426 338.487863 
L 421.515971 337.575442 
L 422.198516 336.206812 
L 422.881061 337.119232 
L 423.563606 335.294392 
L 424.246151 335.294392 
L 424.928697 334.381971 
L 425.611242 334.381971 
L 426.293787 333.013341 
L 426.976332 334.381971 
L 427.658877 332.557131 
L 428.341422 333.925761 
L 429.023967 332.557131 
L 429.706512 334.838181 
L 430.389057 333.469551 
L 431.071603 333.469551 
L 431.754148 332.100921 
L 432.436693 333.469551 
L 433.119238 331.64471 
L 433.801783 336.663022 
L 435.166873 337.575442 
L 435.849418 335.294392 
L 436.531963 335.294392 
L 437.214508 334.381971 
L 437.897054 335.294392 
L 438.579599 333.925761 
L 439.262144 333.469551 
L 439.944689 333.469551 
L 440.627234 332.100921 
L 441.309779 334.381971 
L 441.992324 332.557131 
L 442.674869 334.838181 
L 443.357414 333.925761 
L 444.039959 333.925761 
L 444.722505 333.013341 
L 445.40505 334.838181 
L 446.087595 333.013341 
L 446.77014 334.381971 
L 447.452685 351.717957 
L 448.13523 333.469551 
L 448.817775 335.294392 
L 449.50032 335.750602 
L 450.182865 334.838181 
L 450.86541 333.013341 
L 451.547956 333.925761 
L 452.230501 333.925761 
L 452.913046 334.381971 
L 453.595591 333.925761 
L 454.278136 333.013341 
L 454.960681 333.925761 
L 455.643226 333.469551 
L 456.325771 333.469551 
L 457.008316 334.381971 
L 457.690862 335.750602 
L 458.373407 332.557131 
L 459.738497 332.557131 
L 460.421042 333.469551 
L 461.103587 332.557131 
L 461.786132 330.73229 
L 462.468677 335.750602 
L 463.833767 337.575442 
L 464.516313 333.925761 
L 465.198858 335.750602 
L 465.881403 333.925761 
L 466.563948 334.838181 
L 467.246493 333.925761 
L 467.929038 335.294392 
L 468.611583 333.013341 
L 469.294128 332.557131 
L 469.976673 333.013341 
L 470.659218 333.925761 
L 471.341764 333.013341 
L 472.024309 333.925761 
L 472.706854 332.557131 
L 473.389399 333.013341 
L 474.071944 333.013341 
L 474.754489 334.381971 
L 475.437034 351.717957 
L 476.119579 330.73229 
L 476.802124 336.206812 
L 477.48467 334.381971 
L 478.167215 334.381971 
L 478.84976 333.469551 
L 479.532305 335.750602 
L 480.21485 333.925761 
L 480.897395 333.013341 
L 481.57994 333.469551 
L 482.262485 332.557131 
L 482.94503 332.100921 
L 483.627575 333.013341 
L 484.310121 332.557131 
L 484.992666 333.013341 
L 485.675211 332.557131 
L 486.357756 332.557131 
L 487.040301 333.013341 
L 487.722846 332.100921 
L 488.405391 333.013341 
L 489.087936 332.557131 
L 489.770481 331.64471 
L 490.453026 334.838181 
L 491.135572 334.838181 
L 491.818117 336.206812 
L 492.500662 334.838181 
L 493.183207 335.750602 
L 493.865752 333.469551 
L 494.548297 333.469551 
L 495.230842 333.925761 
L 495.913387 332.557131 
L 496.595932 332.557131 
L 497.278477 332.100921 
L 497.961023 332.557131 
L 498.643568 333.925761 
L 499.326113 333.013341 
L 500.691203 332.100921 
L 501.373748 332.100921 
L 502.056293 333.469551 
L 502.738838 332.557131 
L 503.421383 351.717957 
L 504.103929 331.64471 
L 504.786474 335.294392 
L 505.469019 333.925761 
L 506.151564 334.838181 
L 506.834109 332.557131 
L 507.516654 334.381971 
L 508.199199 335.294392 
L 508.881744 333.013341 
L 509.564289 333.469551 
L 510.246834 333.013341 
L 511.611925 333.925761 
L 512.29447 333.925761 
L 512.977015 333.469551 
L 513.65956 333.469551 
L 514.342105 335.294392 
L 515.02465 333.469551 
L 515.707195 334.381971 
L 516.38974 333.469551 
L 517.072285 333.925761 
L 517.754831 332.557131 
L 518.437376 334.838181 
L 519.119921 333.469551 
L 519.802466 333.469551 
L 519.802466 333.469551 
" style="fill:none;stroke:#ff7f0e;stroke-linecap:square;stroke-width:1.5;"/>
   </g>
   <g id="line2d_15">
    <path clip-path="url(#p6ba12edb6a)" d="M 157.371016 228.541219 
L 158.736106 306.553153 
L 159.418652 259.107299 
L 160.101197 296.51653 
L 160.783742 305.184522 
L 161.466287 263.6694 
L 162.148832 269.143922 
L 162.831377 263.21319 
L 163.513922 222.610488 
L 164.196467 300.166211 
L 164.879012 233.103321 
L 165.561557 260.932139 
L 166.244103 199.343771 
L 166.926648 204.818292 
L 167.609193 264.58182 
L 168.974283 322.976718 
L 169.656828 332.100921 
L 170.339373 337.119232 
L 171.021918 340.768913 
L 171.704463 342.593754 
L 172.387008 340.312703 
L 173.069554 337.119232 
L 173.752099 344.418594 
L 174.434644 344.874804 
L 175.117189 346.243435 
L 175.799734 344.418594 
L 176.482279 341.681334 
L 177.164824 345.787225 
L 177.847369 345.331015 
L 178.529914 343.506174 
L 179.21246 340.312703 
L 179.895005 344.418594 
L 180.57755 339.400283 
L 181.260095 344.418594 
L 181.94264 344.418594 
L 182.625185 336.206812 
L 183.30773 339.400283 
L 183.990275 337.575442 
L 184.67282 332.100921 
L 185.355365 332.557131 
L 186.720456 325.713979 
L 187.403001 327.082609 
L 188.085546 325.713979 
L 188.768091 326.626399 
L 189.450636 326.626399 
L 190.133181 324.345348 
L 190.815726 325.257769 
L 191.498271 324.801558 
L 192.180816 327.082609 
L 192.863362 325.713979 
L 193.545907 325.713979 
L 194.228452 325.257769 
L 194.910997 323.432928 
L 195.593542 325.257769 
L 196.276087 351.717957 
L 196.958632 327.538819 
L 197.641177 333.469551 
L 198.323722 336.206812 
L 199.006268 334.381971 
L 199.688813 334.381971 
L 200.371358 333.925761 
L 201.053903 335.294392 
L 201.736448 333.013341 
L 202.418993 335.294392 
L 203.101538 333.469551 
L 205.149173 336.206812 
L 205.831719 332.557131 
L 206.514264 333.013341 
L 207.196809 332.557131 
L 207.879354 333.925761 
L 208.561899 333.013341 
L 209.244444 333.925761 
L 209.926989 333.469551 
L 210.609534 327.995029 
L 211.292079 333.925761 
L 211.974624 334.838181 
L 212.65717 334.838181 
L 213.339715 333.925761 
L 214.02226 334.838181 
L 214.704805 333.925761 
L 215.38735 336.206812 
L 216.069895 333.013341 
L 216.75244 334.381971 
L 217.434985 333.013341 
L 218.11753 332.557131 
L 219.482621 332.557131 
L 220.165166 332.100921 
L 220.847711 332.557131 
L 221.530256 332.100921 
L 222.212801 332.557131 
L 222.895346 332.557131 
L 223.577891 333.013341 
L 224.260436 351.717957 
L 224.942981 327.995029 
L 225.625527 335.750602 
L 226.990617 334.838181 
L 228.355707 334.838181 
L 229.038252 335.294392 
L 229.720797 333.925761 
L 230.403342 334.381971 
L 231.085887 333.469551 
L 231.768432 335.294392 
L 232.450978 334.381971 
L 233.133523 333.925761 
L 233.816068 334.838181 
L 234.498613 333.925761 
L 235.181158 334.838181 
L 235.863703 335.294392 
L 236.546248 334.381971 
L 237.911338 334.381971 
L 238.593883 331.1885 
L 239.276429 336.206812 
L 239.958974 335.750602 
L 240.641519 334.838181 
L 241.324064 336.663022 
L 242.006609 334.381971 
L 242.689154 337.119232 
L 243.371699 335.294392 
L 244.054244 335.294392 
L 244.736789 334.381971 
L 245.419335 336.206812 
L 246.10188 334.381971 
L 246.784425 334.838181 
L 247.46697 333.013341 
L 248.149515 332.557131 
L 248.83206 332.557131 
L 250.19715 334.381971 
L 250.879695 332.557131 
L 251.56224 332.100921 
L 252.244786 343.962384 
L 252.927331 329.36366 
L 253.609876 336.206812 
L 254.974966 336.206812 
L 255.657511 333.013341 
L 256.340056 332.557131 
L 259.070237 332.557131 
L 259.752782 333.013341 
L 260.435327 332.557131 
L 261.117872 332.557131 
L 261.800417 331.64471 
L 262.482962 332.100921 
L 263.165507 331.64471 
L 263.848052 333.469551 
L 264.530597 332.557131 
L 265.213142 333.925761 
L 265.895688 351.717957 
L 266.578233 330.73229 
L 267.260778 336.663022 
L 267.943323 338.031652 
L 268.625868 334.838181 
L 269.308413 339.400283 
L 269.990958 335.294392 
L 270.673503 333.925761 
L 271.356048 333.469551 
L 272.038594 334.381971 
L 272.721139 333.013341 
L 273.403684 333.925761 
L 274.086229 333.469551 
L 274.768774 332.557131 
L 276.133864 332.557131 
L 276.816409 332.100921 
L 277.498954 332.557131 
L 279.54659 332.557131 
L 280.229135 339.400283 
L 280.91168 336.206812 
L 281.594225 336.663022 
L 282.27677 336.663022 
L 282.959315 335.294392 
L 283.64186 334.838181 
L 284.324405 333.469551 
L 285.00695 335.294392 
L 285.689496 333.469551 
L 286.372041 335.750602 
L 287.054586 333.469551 
L 287.737131 336.206812 
L 288.419676 333.469551 
L 289.102221 334.838181 
L 289.784766 332.100921 
L 290.467311 333.469551 
L 291.149856 332.557131 
L 291.832402 333.925761 
L 292.514947 332.100921 
L 293.197492 333.013341 
L 293.880037 351.717957 
L 294.562582 338.031652 
L 295.245127 340.312703 
L 295.927672 336.663022 
L 296.610217 336.663022 
L 297.292762 333.925761 
L 297.975307 333.925761 
L 298.657853 333.013341 
L 299.340398 333.925761 
L 300.022943 333.469551 
L 300.705488 332.557131 
L 301.388033 333.469551 
L 302.070578 332.557131 
L 303.435668 332.557131 
L 304.118213 333.013341 
L 304.800758 332.557131 
L 305.483304 333.013341 
L 306.848394 332.100921 
L 307.530939 332.557131 
L 308.213484 334.381971 
L 308.896029 337.119232 
L 309.578574 337.575442 
L 310.261119 335.750602 
L 310.943664 338.944073 
L 311.626209 334.381971 
L 312.308755 336.206812 
L 312.9913 335.294392 
L 313.673845 335.750602 
L 314.35639 333.925761 
L 315.038935 335.294392 
L 315.72148 334.838181 
L 316.404025 333.469551 
L 317.08657 333.925761 
L 317.769115 332.557131 
L 318.451661 333.469551 
L 319.134206 332.557131 
L 319.816751 333.013341 
L 320.499296 332.557131 
L 321.181841 335.294392 
L 321.864386 351.717957 
L 322.546931 335.294392 
L 323.229476 338.487863 
L 323.912021 337.119232 
L 324.594566 336.663022 
L 325.277112 334.838181 
L 325.959657 334.381971 
L 326.642202 334.381971 
L 327.324747 332.100921 
L 328.007292 334.838181 
L 328.689837 333.013341 
L 329.372382 332.100921 
L 330.054927 332.557131 
L 330.737472 332.557131 
L 331.420017 332.100921 
L 332.102563 333.013341 
L 332.785108 332.557131 
L 333.467653 333.013341 
L 334.150198 333.925761 
L 334.832743 333.013341 
L 335.515288 333.925761 
L 336.197833 336.206812 
L 336.880378 338.031652 
L 337.562923 336.663022 
L 338.245469 335.750602 
L 338.928014 336.663022 
L 339.610559 334.838181 
L 340.293104 335.294392 
L 340.975649 333.925761 
L 341.658194 334.838181 
L 342.340739 333.469551 
L 343.023284 334.838181 
L 343.705829 332.557131 
L 344.388374 333.469551 
L 345.07092 332.557131 
L 345.753465 333.013341 
L 346.43601 332.557131 
L 347.118555 333.013341 
L 347.8011 332.100921 
L 348.483645 332.557131 
L 349.16619 332.100921 
L 349.848735 351.717957 
L 350.53128 335.294392 
L 351.213825 337.119232 
L 351.896371 336.206812 
L 352.578916 340.312703 
L 353.261461 335.294392 
L 354.626551 332.557131 
L 355.309096 335.294392 
L 355.991641 333.013341 
L 356.674186 333.013341 
L 357.356731 331.64471 
L 358.039276 333.013341 
L 358.721822 331.64471 
L 359.404367 333.013341 
L 360.086912 331.64471 
L 360.769457 333.469551 
L 361.452002 332.557131 
L 362.134547 334.381971 
L 362.817092 333.013341 
L 363.499637 341.681334 
L 364.182182 336.206812 
L 364.864728 338.031652 
L 365.547273 336.206812 
L 366.229818 336.206812 
L 366.912363 336.663022 
L 367.594908 334.381971 
L 368.277453 333.925761 
L 368.959998 333.013341 
L 369.642543 333.469551 
L 370.325088 332.557131 
L 371.007633 333.013341 
L 371.690179 332.100921 
L 372.372724 332.557131 
L 373.055269 332.100921 
L 373.737814 333.469551 
L 374.420359 331.64471 
L 375.102904 332.557131 
L 375.785449 332.100921 
L 376.467994 333.925761 
L 377.150539 331.64471 
L 377.833084 351.717957 
L 378.51563 334.838181 
L 379.198175 334.838181 
L 379.88072 337.119232 
L 380.563265 334.838181 
L 381.24581 334.381971 
L 381.928355 332.557131 
L 382.6109 333.469551 
L 383.293445 332.557131 
L 383.97599 332.557131 
L 385.341081 331.64471 
L 387.388716 331.64471 
L 388.071261 332.557131 
L 388.753806 331.64471 
L 389.436351 331.64471 
L 390.118896 332.557131 
L 390.801441 332.557131 
L 391.483987 338.487863 
L 392.166532 335.294392 
L 392.849077 337.119232 
L 393.531622 335.750602 
L 394.214167 333.469551 
L 394.896712 333.925761 
L 395.579257 333.925761 
L 396.261802 333.013341 
L 396.944347 332.557131 
L 397.626892 331.64471 
L 398.309438 332.100921 
L 400.357073 332.100921 
L 401.039618 331.1885 
L 401.722163 332.557131 
L 402.404708 333.013341 
L 403.087253 332.557131 
L 403.769798 334.838181 
L 404.452343 333.013341 
L 405.134889 333.469551 
L 405.817434 352.174167 
L 406.499979 333.013341 
L 407.182524 333.925761 
L 407.865069 332.557131 
L 408.547614 333.469551 
L 409.230159 331.1885 
L 409.912704 332.557131 
L 410.595249 332.557131 
L 411.277795 331.64471 
L 411.96034 333.013341 
L 412.642885 332.100921 
L 413.32543 332.557131 
L 414.007975 331.64471 
L 414.69052 331.64471 
L 415.373065 333.925761 
L 416.05561 332.100921 
L 416.738155 333.469551 
L 417.4207 331.64471 
L 418.103246 334.381971 
L 418.785791 332.557131 
L 419.468336 342.137544 
L 420.150881 332.100921 
L 420.833426 334.381971 
L 421.515971 334.381971 
L 422.198516 333.469551 
L 422.881061 333.925761 
L 423.563606 333.469551 
L 424.246151 333.925761 
L 424.928697 333.469551 
L 425.611242 333.469551 
L 426.293787 332.100921 
L 426.976332 333.013341 
L 427.658877 331.64471 
L 428.341422 332.557131 
L 429.023967 331.64471 
L 429.706512 332.557131 
L 430.389057 331.64471 
L 432.436693 331.64471 
L 433.119238 332.557131 
L 433.801783 338.944073 
L 434.484328 337.119232 
L 435.166873 338.031652 
L 435.849418 334.838181 
L 436.531963 336.206812 
L 437.214508 334.838181 
L 439.262144 333.469551 
L 440.627234 333.469551 
L 441.309779 333.013341 
L 442.674869 333.013341 
L 443.357414 332.100921 
L 444.039959 332.557131 
L 444.722505 331.64471 
L 445.40505 331.1885 
L 446.087595 331.64471 
L 446.77014 330.73229 
L 447.452685 351.717957 
L 448.13523 331.64471 
L 448.817775 334.381971 
L 449.50032 333.925761 
L 450.182865 333.925761 
L 451.547956 333.013341 
L 452.230501 332.100921 
L 452.913046 332.100921 
L 453.595591 333.013341 
L 454.278136 332.100921 
L 454.960681 332.100921 
L 455.643226 330.73229 
L 456.325771 332.557131 
L 457.008316 332.557131 
L 457.690862 331.64471 
L 458.373407 331.64471 
L 460.421042 333.013341 
L 461.103587 332.100921 
L 461.786132 333.013341 
L 462.468677 331.1885 
L 463.151222 333.013341 
L 463.833767 333.469551 
L 464.516313 332.557131 
L 465.198858 333.013341 
L 466.563948 332.100921 
L 467.246493 332.557131 
L 468.611583 332.557131 
L 469.294128 332.100921 
L 469.976673 332.557131 
L 471.341764 332.557131 
L 472.024309 333.013341 
L 474.071944 331.64471 
L 474.754489 330.73229 
L 475.437034 351.717957 
L 476.119579 325.713979 
L 476.802124 331.64471 
L 477.48467 333.013341 
L 478.167215 331.64471 
L 478.84976 331.64471 
L 479.532305 332.557131 
L 480.897395 332.557131 
L 482.262485 333.469551 
L 482.94503 332.100921 
L 483.627575 333.013341 
L 484.310121 332.557131 
L 484.992666 332.557131 
L 485.675211 332.100921 
L 486.357756 332.557131 
L 487.040301 333.469551 
L 488.405391 333.469551 
L 489.087936 332.557131 
L 489.770481 331.1885 
L 490.453026 337.575442 
L 491.135572 333.925761 
L 492.500662 333.013341 
L 493.183207 332.100921 
L 493.865752 334.838181 
L 494.548297 332.557131 
L 495.230842 333.925761 
L 495.913387 332.557131 
L 496.595932 334.381971 
L 497.278477 333.013341 
L 497.961023 332.100921 
L 498.643568 332.557131 
L 499.326113 333.925761 
L 500.008658 333.925761 
L 500.691203 333.469551 
L 501.373748 332.100921 
L 502.056293 332.557131 
L 502.738838 332.100921 
L 503.421383 351.717957 
L 504.103929 331.64471 
L 504.786474 333.013341 
L 505.469019 333.013341 
L 506.151564 333.925761 
L 506.834109 332.557131 
L 507.516654 333.925761 
L 508.199199 332.100921 
L 508.881744 333.469551 
L 509.564289 333.013341 
L 510.246834 333.013341 
L 510.92938 332.557131 
L 511.611925 334.838181 
L 512.29447 332.557131 
L 512.977015 335.750602 
L 513.65956 332.557131 
L 515.02465 332.557131 
L 515.707195 332.100921 
L 516.38974 332.557131 
L 517.072285 331.64471 
L 517.754831 318.414616 
L 518.437376 326.170189 
L 519.119921 329.81987 
L 519.802466 329.81987 
L 520.485011 332.557131 
L 521.167556 331.64471 
L 521.850101 330.27608 
L 522.532646 330.73229 
L 523.215191 332.557131 
L 523.897736 332.557131 
L 524.580282 332.100921 
L 525.262827 333.469551 
L 525.262827 333.469551 
" style="fill:none;stroke:#2ca02c;stroke-linecap:square;stroke-width:1.5;"/>
   </g>
   <g id="line2d_16">
    <path clip-path="url(#p6ba12edb6a)" d="M 154.531629 193.869249 
L 155.214174 296.06032 
L 155.896719 297.88516 
L 156.579264 298.34137 
L 157.261809 168.777691 
L 157.944354 199.343771 
L 158.626899 222.610488 
L 159.309444 146.423395 
L 159.991989 169.233901 
L 161.35708 187.938517 
L 162.039625 179.270525 
L 162.72217 261.844559 
L 163.404715 230.36606 
L 164.08726 92.134388 
L 164.769805 192.500618 
L 165.45235 183.832626 
L 166.134895 239.490263 
L 166.81744 197.06272 
L 167.499986 212.573865 
L 168.182531 339.856493 
L 168.865076 148.248235 
L 169.547621 277.355704 
L 170.230166 270.512552 
L 170.912711 93.959229 
L 171.595256 246.333415 
L 172.277801 249.070676 
L 172.960346 220.329437 
L 173.642891 181.095365 
L 174.325437 80.729135 
L 175.007982 268.687711 
L 175.690527 253.632777 
L 176.373072 234.928161 
L 177.055617 50.163056 
L 177.738162 121.788047 
L 178.420707 227.628799 
L 179.103252 228.99743 
L 179.785797 239.034053 
L 180.468343 194.325459 
L 181.833433 255.457617 
L 182.515978 331.64471 
L 183.198523 324.345348 
L 183.881068 334.381971 
L 184.563613 336.206812 
L 185.246158 338.944073 
L 185.928703 338.944073 
L 186.611248 339.400283 
L 187.293794 340.768913 
L 188.658884 340.768913 
L 189.341429 341.681334 
L 190.023974 341.225123 
L 190.706519 341.225123 
L 191.389064 342.137544 
L 192.071609 341.681334 
L 192.754154 341.681334 
L 193.436699 341.225123 
L 194.119245 341.225123 
L 194.80179 341.681334 
L 195.484335 341.681334 
L 196.16688 346.699645 
L 196.849425 333.469551 
L 197.53197 334.838181 
L 198.214515 333.925761 
L 198.89706 332.557131 
L 199.579605 332.100921 
L 200.26215 333.013341 
L 200.944696 332.557131 
L 201.627241 332.557131 
L 202.309786 332.100921 
L 203.674876 333.925761 
L 204.357421 333.469551 
L 205.039966 332.557131 
L 205.722511 332.557131 
L 206.405056 333.013341 
L 207.087602 332.557131 
L 207.770147 334.838181 
L 208.452692 332.557131 
L 209.135237 334.381971 
L 209.817782 333.013341 
L 210.500327 351.717957 
L 211.182872 324.345348 
L 211.865417 326.170189 
L 212.547962 329.36366 
L 213.913053 330.27608 
L 214.595598 331.64471 
L 215.278143 331.64471 
L 215.960688 334.838181 
L 216.643233 332.100921 
L 218.008323 332.100921 
L 218.690868 333.013341 
L 219.373413 331.1885 
L 220.055958 332.557131 
L 220.738504 331.64471 
L 221.421049 333.469551 
L 222.103594 331.64471 
L 222.786139 333.013341 
L 223.468684 331.64471 
L 224.151229 334.838181 
L 224.833774 325.257769 
L 225.516319 329.36366 
L 226.198864 330.27608 
L 226.88141 330.73229 
L 227.563955 330.73229 
L 228.2465 332.100921 
L 228.929045 331.1885 
L 229.61159 332.100921 
L 230.294135 333.925761 
L 230.97668 333.013341 
L 231.659225 333.925761 
L 232.34177 333.469551 
L 233.024315 333.925761 
L 233.706861 333.469551 
L 234.389406 333.925761 
L 235.071951 332.557131 
L 235.754496 333.469551 
L 236.437041 332.557131 
L 237.119586 333.469551 
L 237.802131 333.925761 
L 238.484676 305.640733 
L 239.167221 326.626399 
L 239.849766 331.1885 
L 240.532312 329.81987 
L 241.214857 331.1885 
L 241.897402 330.73229 
L 242.579947 332.557131 
L 243.262492 331.1885 
L 243.945037 333.469551 
L 244.627582 331.1885 
L 245.310127 332.100921 
L 245.992672 331.1885 
L 246.675217 331.64471 
L 247.357763 331.64471 
L 248.040308 332.557131 
L 248.722853 333.013341 
L 249.405398 333.013341 
L 250.087943 333.925761 
L 250.770488 331.64471 
L 251.453033 331.1885 
L 252.135578 351.717957 
L 252.818123 321.608087 
L 253.500669 333.925761 
L 254.183214 330.73229 
L 254.865759 331.1885 
L 255.548304 331.1885 
L 257.595939 332.557131 
L 258.278484 333.469551 
L 258.961029 331.64471 
L 259.643574 334.381971 
L 260.32612 333.013341 
L 261.69121 333.013341 
L 262.373755 335.294392 
L 263.0563 333.013341 
L 265.103935 333.013341 
L 265.78648 335.294392 
L 266.469025 288.760958 
L 267.151571 326.170189 
L 267.834116 327.538819 
L 268.516661 329.36366 
L 269.199206 329.81987 
L 269.881751 329.36366 
L 270.564296 329.81987 
L 271.246841 331.1885 
L 272.611931 333.013341 
L 273.294477 331.64471 
L 273.977022 332.100921 
L 274.659567 333.013341 
L 275.342112 334.838181 
L 276.024657 332.100921 
L 276.707202 333.013341 
L 278.754837 333.013341 
L 279.437382 334.381971 
L 280.119928 351.717957 
L 280.802473 316.133566 
L 281.485018 327.995029 
L 282.167563 326.626399 
L 282.850108 327.995029 
L 283.532653 329.81987 
L 284.215198 330.73229 
L 285.580288 331.64471 
L 286.262833 331.64471 
L 286.945379 332.100921 
L 287.627924 332.100921 
L 288.310469 331.1885 
L 288.993014 331.1885 
L 290.358104 332.100921 
L 291.723194 332.100921 
L 292.405739 333.469551 
L 293.088284 331.64471 
L 293.77083 332.557131 
L 294.453375 286.479907 
L 295.13592 315.221146 
L 295.818465 318.870827 
L 296.50101 323.432928 
L 297.183555 329.36366 
L 297.8661 327.995029 
L 298.548645 330.27608 
L 299.23119 330.27608 
L 300.596281 332.100921 
L 301.278826 333.925761 
L 301.961371 333.013341 
L 302.643916 333.013341 
L 303.326461 334.381971 
L 304.009006 334.838181 
L 304.691551 332.100921 
L 305.374096 334.381971 
L 306.056641 332.100921 
L 306.739187 333.013341 
L 307.421732 332.557131 
L 308.104277 314.764935 
L 308.786822 315.221146 
L 309.469367 317.958406 
L 310.151912 321.608087 
L 310.834457 322.520508 
L 311.517002 326.170189 
L 312.882092 329.81987 
L 313.564638 331.1885 
L 314.247183 330.73229 
L 314.929728 332.100921 
L 315.612273 331.64471 
L 316.294818 333.469551 
L 316.977363 332.557131 
L 317.659908 333.013341 
L 318.342453 333.013341 
L 319.024998 333.469551 
L 319.707544 333.469551 
L 320.390089 333.925761 
L 321.072634 332.100921 
L 321.755179 351.717957 
L 322.437724 289.217168 
L 323.120269 317.045986 
L 323.802814 319.783247 
L 324.485359 323.889138 
L 325.167904 326.170189 
L 325.850449 326.626399 
L 326.532995 328.90745 
L 327.21554 328.90745 
L 327.898085 331.64471 
L 328.58063 331.1885 
L 329.263175 332.100921 
L 329.94572 330.73229 
L 330.628265 332.557131 
L 331.31081 333.469551 
L 331.993355 333.469551 
L 332.6759 331.64471 
L 333.358446 333.013341 
L 334.040991 330.73229 
L 334.723536 333.013341 
L 335.406081 332.100921 
L 336.088626 287.848537 
L 336.771171 310.659044 
L 337.453716 317.958406 
L 338.136261 322.520508 
L 338.818806 323.889138 
L 339.501351 327.538819 
L 340.183897 329.81987 
L 340.866442 329.81987 
L 341.548987 330.73229 
L 342.231532 330.27608 
L 342.914077 330.73229 
L 343.596622 331.64471 
L 344.961712 332.557131 
L 345.644257 334.381971 
L 346.326803 332.557131 
L 347.691893 332.557131 
L 348.374438 333.013341 
L 349.056983 333.925761 
L 349.739528 351.717957 
L 350.422073 285.567487 
L 351.104618 315.221146 
L 351.787163 320.695667 
L 352.469708 324.801558 
L 353.152254 327.995029 
L 353.834799 328.90745 
L 354.517344 330.27608 
L 355.199889 331.1885 
L 355.882434 333.013341 
L 356.564979 330.73229 
L 357.247524 332.557131 
L 357.930069 331.1885 
L 358.612614 331.64471 
L 359.977705 331.64471 
L 360.66025 332.100921 
L 361.342795 331.64471 
L 362.02534 332.100921 
L 362.707885 331.64471 
L 363.39043 331.64471 
L 364.072975 313.396305 
L 364.75552 325.257769 
L 365.438065 329.36366 
L 366.803156 329.36366 
L 367.485701 331.1885 
L 368.168246 331.1885 
L 368.850791 332.100921 
L 370.215881 331.1885 
L 370.898426 333.925761 
L 371.580971 333.925761 
L 372.263516 333.013341 
L 372.946062 335.294392 
L 373.628607 333.925761 
L 374.311152 335.294392 
L 374.993697 333.469551 
L 377.041332 334.838181 
L 377.723877 345.787225 
L 378.406422 307.921783 
L 379.088967 325.713979 
L 379.771513 327.538819 
L 380.454058 330.27608 
L 381.136603 329.36366 
L 381.819148 331.64471 
L 382.501693 330.73229 
L 383.184238 333.013341 
L 383.866783 330.73229 
L 384.549328 334.381971 
L 385.231873 333.925761 
L 385.914418 332.100921 
L 387.279509 331.1885 
L 388.644599 332.100921 
L 389.327144 333.013341 
L 390.009689 332.100921 
L 390.692234 332.557131 
L 391.374779 332.100921 
L 392.057324 293.779269 
L 392.73987 316.589776 
L 393.422415 320.695667 
L 394.10496 322.976718 
L 394.787505 326.626399 
L 395.47005 328.90745 
L 396.152595 330.27608 
L 396.83514 330.73229 
L 397.517685 330.73229 
L 398.20023 333.013341 
L 398.882775 332.100921 
L 399.565321 333.013341 
L 400.247866 332.557131 
L 400.930411 333.469551 
L 401.612956 332.557131 
L 402.295501 332.557131 
L 402.978046 333.013341 
L 403.660591 332.557131 
L 404.343136 333.469551 
L 405.025681 332.557131 
L 405.708226 343.962384 
L 406.390772 318.414616 
L 407.073317 324.345348 
L 408.438407 327.995029 
L 409.803497 329.81987 
L 410.486042 331.1885 
L 411.168587 332.100921 
L 411.851132 331.64471 
L 412.533678 332.557131 
L 413.216223 332.557131 
L 413.898768 334.381971 
L 414.581313 332.557131 
L 415.263858 332.557131 
L 415.946403 333.925761 
L 416.628948 333.013341 
L 417.311493 333.925761 
L 417.994038 333.013341 
L 418.676583 333.013341 
L 419.359129 344.874804 
L 420.041674 296.51653 
L 420.724219 315.677356 
L 421.406764 323.432928 
L 422.089309 325.257769 
L 422.771854 325.713979 
L 423.454399 329.36366 
L 424.136944 328.90745 
L 425.502034 331.64471 
L 426.867125 331.64471 
L 427.54967 332.557131 
L 428.232215 332.100921 
L 428.91476 333.013341 
L 429.597305 332.557131 
L 430.962395 332.557131 
L 431.64494 333.469551 
L 432.327485 333.469551 
L 433.010031 335.750602 
L 433.692576 339.400283 
L 434.375121 313.396305 
L 435.057666 318.414616 
L 435.740211 325.713979 
L 436.422756 326.626399 
L 437.787846 329.36366 
L 438.470391 329.81987 
L 439.152937 331.1885 
L 439.835482 330.73229 
L 440.518027 332.100921 
L 441.200572 331.64471 
L 441.883117 332.100921 
L 442.565662 333.013341 
L 443.248207 333.013341 
L 443.930752 332.557131 
L 445.978388 332.557131 
L 446.660933 333.013341 
L 447.343478 351.717957 
L 448.026023 313.396305 
L 448.708568 329.81987 
L 449.391113 327.538819 
L 450.073658 328.90745 
L 450.756203 333.013341 
L 451.438748 330.73229 
L 452.121293 334.838181 
L 452.803839 331.1885 
L 453.486384 333.469551 
L 454.168929 332.557131 
L 454.851474 333.925761 
L 456.216564 334.838181 
L 456.899109 333.925761 
L 457.581654 332.557131 
L 458.946745 333.469551 
L 459.62929 333.469551 
L 460.311835 334.838181 
L 460.99438 333.013341 
L 461.676925 338.944073 
L 462.35947 328.45124 
L 463.042015 333.925761 
L 463.72456 331.1885 
L 464.407105 332.557131 
L 465.08965 331.64471 
L 465.772196 331.64471 
L 466.454741 333.013341 
L 467.137286 333.013341 
L 467.819831 332.557131 
L 469.867466 332.557131 
L 470.550011 334.381971 
L 471.232556 332.100921 
L 471.915101 334.838181 
L 472.597647 332.557131 
L 473.280192 333.925761 
L 473.962737 332.100921 
L 474.645282 332.557131 
L 475.327827 351.717957 
L 476.010372 321.608087 
L 476.692917 328.90745 
L 477.375462 329.36366 
L 478.058007 329.36366 
L 478.740552 332.100921 
L 479.423098 331.1885 
L 480.105643 332.557131 
L 480.788188 330.27608 
L 481.470733 334.381971 
L 482.153278 331.64471 
L 482.835823 332.557131 
L 483.518368 331.64471 
L 484.200913 333.925761 
L 484.883458 332.100921 
L 485.566004 333.469551 
L 486.248549 331.64471 
L 486.931094 333.925761 
L 487.613639 332.557131 
L 488.296184 335.294392 
L 488.978729 332.557131 
L 490.343819 325.257769 
L 491.026364 327.995029 
L 491.708909 332.100921 
L 492.391455 330.73229 
L 493.074 331.1885 
L 493.756545 330.73229 
L 494.43909 331.1885 
L 495.80418 331.1885 
L 497.16927 332.100921 
L 498.53436 331.1885 
L 499.216906 331.64471 
L 499.899451 331.1885 
L 500.581996 331.64471 
L 501.264541 333.013341 
L 501.947086 332.100921 
L 502.629631 333.013341 
L 503.312176 351.717957 
L 503.994721 326.170189 
L 504.677266 333.013341 
L 505.359812 331.64471 
L 506.042357 332.557131 
L 506.724902 331.64471 
L 507.407447 332.557131 
L 508.089992 332.557131 
L 508.772537 334.381971 
L 509.455082 333.013341 
L 510.137627 332.100921 
L 510.820172 333.469551 
L 512.185263 332.557131 
L 512.867808 333.013341 
L 513.550353 333.925761 
L 514.232898 332.557131 
L 514.915443 332.557131 
L 515.597988 332.100921 
L 516.963078 333.013341 
L 517.645623 340.768913 
L 518.328168 334.838181 
L 519.693259 333.013341 
L 520.375804 333.469551 
L 521.740894 333.469551 
L 522.423439 333.013341 
L 522.423439 333.013341 
" style="fill:none;stroke:#d62728;stroke-linecap:square;stroke-width:1.5;"/>
   </g>
   <g id="patch_3">
    <path d="M 130.230156 352.174167 
L 130.230156 35.0625 
" style="fill:none;stroke:#000000;stroke-linecap:square;stroke-linejoin:miter;stroke-width:0.8;"/>
   </g>
   <g id="patch_4">
    <path d="M 544.073906 352.174167 
L 544.073906 35.0625 
" style="fill:none;stroke:#000000;stroke-linecap:square;stroke-linejoin:miter;stroke-width:0.8;"/>
   </g>
   <g id="patch_5">
    <path d="M 130.230156 352.174167 
L 544.073906 352.174167 
" style="fill:none;stroke:#000000;stroke-linecap:square;stroke-linejoin:miter;stroke-width:0.8;"/>
   </g>
   <g id="patch_6">
    <path d="M 130.230156 35.0625 
L 544.073906 35.0625 
" style="fill:none;stroke:#000000;stroke-linecap:square;stroke-linejoin:miter;stroke-width:0.8;"/>
   </g>
   <g id="legend_1">
    <g id="patch_7">
     <path d="M 566.766094 96.775 
L 628.298906 96.775 
Q 630.298906 96.775 630.298906 94.775 
L 630.298906 37.0625 
Q 630.298906 35.0625 628.298906 35.0625 
L 566.766094 35.0625 
Q 564.766094 35.0625 564.766094 37.0625 
L 564.766094 94.775 
Q 564.766094 96.775 566.766094 96.775 
z
" style="fill:#ffffff;opacity:0.8;stroke:#cccccc;stroke-linejoin:miter;"/>
    </g>
    <g id="line2d_17">
     <path d="M 568.766094 43.160937 
L 588.766094 43.160937 
" style="fill:none;stroke:#1f77b4;stroke-linecap:square;stroke-width:1.5;"/>
    </g>
    <g id="line2d_18"/>
    <g id="text_14">
     <!-- bbr-pi -->
     <defs>
      <path d="M 41.109375 46.296875 
Q 39.59375 47.171875 37.8125 47.578125 
Q 36.03125 48 33.890625 48 
Q 26.265625 48 22.1875 43.046875 
Q 18.109375 38.09375 18.109375 28.8125 
L 18.109375 0 
L 9.078125 0 
L 9.078125 54.6875 
L 18.109375 54.6875 
L 18.109375 46.1875 
Q 20.953125 51.171875 25.484375 53.578125 
Q 30.03125 56 36.53125 56 
Q 37.453125 56 38.578125 55.875 
Q 39.703125 55.765625 41.0625 55.515625 
z
" id="DejaVuSans-114"/>
      <path d="M 4.890625 31.390625 
L 31.203125 31.390625 
L 31.203125 23.390625 
L 4.890625 23.390625 
z
" id="DejaVuSans-45"/>
      <path d="M 18.109375 8.203125 
L 18.109375 -20.796875 
L 9.078125 -20.796875 
L 9.078125 54.6875 
L 18.109375 54.6875 
L 18.109375 46.390625 
Q 20.953125 51.265625 25.265625 53.625 
Q 29.59375 56 35.59375 56 
Q 45.5625 56 51.78125 48.09375 
Q 58.015625 40.1875 58.015625 27.296875 
Q 58.015625 14.40625 51.78125 6.484375 
Q 45.5625 -1.421875 35.59375 -1.421875 
Q 29.59375 -1.421875 25.265625 0.953125 
Q 20.953125 3.328125 18.109375 8.203125 
z
M 48.6875 27.296875 
Q 48.6875 37.203125 44.609375 42.84375 
Q 40.53125 48.484375 33.40625 48.484375 
Q 26.265625 48.484375 22.1875 42.84375 
Q 18.109375 37.203125 18.109375 27.296875 
Q 18.109375 17.390625 22.1875 11.75 
Q 26.265625 6.109375 33.40625 6.109375 
Q 40.53125 6.109375 44.609375 11.75 
Q 48.6875 17.390625 48.6875 27.296875 
z
" id="DejaVuSans-112"/>
     </defs>
     <g transform="translate(596.766094 46.660937)scale(0.1 -0.1)">
      <use xlink:href="#DejaVuSans-98"/>
      <use x="63.476562" xlink:href="#DejaVuSans-98"/>
      <use x="126.953125" xlink:href="#DejaVuSans-114"/>
      <use x="167.972656" xlink:href="#DejaVuSans-45"/>
      <use x="204.056641" xlink:href="#DejaVuSans-112"/>
      <use x="267.533203" xlink:href="#DejaVuSans-105"/>
     </g>
    </g>
    <g id="line2d_19">
     <path d="M 568.766094 57.839063 
L 588.766094 57.839063 
" style="fill:none;stroke:#ff7f0e;stroke-linecap:square;stroke-width:1.5;"/>
    </g>
    <g id="line2d_20"/>
    <g id="text_15">
     <!-- bbr-pi -->
     <g transform="translate(596.766094 61.339063)scale(0.1 -0.1)">
      <use xlink:href="#DejaVuSans-98"/>
      <use x="63.476562" xlink:href="#DejaVuSans-98"/>
      <use x="126.953125" xlink:href="#DejaVuSans-114"/>
      <use x="167.972656" xlink:href="#DejaVuSans-45"/>
      <use x="204.056641" xlink:href="#DejaVuSans-112"/>
      <use x="267.533203" xlink:href="#DejaVuSans-105"/>
     </g>
    </g>
    <g id="line2d_21">
     <path d="M 568.766094 72.517187 
L 588.766094 72.517187 
" style="fill:none;stroke:#2ca02c;stroke-linecap:square;stroke-width:1.5;"/>
    </g>
    <g id="line2d_22"/>
    <g id="text_16">
     <!-- bbr-pi -->
     <g transform="translate(596.766094 76.017187)scale(0.1 -0.1)">
      <use xlink:href="#DejaVuSans-98"/>
      <use x="63.476562" xlink:href="#DejaVuSans-98"/>
      <use x="126.953125" xlink:href="#DejaVuSans-114"/>
      <use x="167.972656" xlink:href="#DejaVuSans-45"/>
      <use x="204.056641" xlink:href="#DejaVuSans-112"/>
      <use x="267.533203" xlink:href="#DejaVuSans-105"/>
     </g>
    </g>
    <g id="line2d_23">
     <path d="M 568.766094 87.195312 
L 588.766094 87.195312 
" style="fill:none;stroke:#d62728;stroke-linecap:square;stroke-width:1.5;"/>
    </g>
    <g id="line2d_24"/>
    <g id="text_17">
     <!-- bbr-pi -->
     <g transform="translate(596.766094 90.695312)scale(0.1 -0.1)">
      <use xlink:href="#DejaVuSans-98"/>
      <use x="63.476562" xlink:href="#DejaVuSans-98"/>
      <use x="126.953125" xlink:href="#DejaVuSans-114"/>
      <use x="167.972656" xlink:href="#DejaVuSans-45"/>
      <use x="204.056641" xlink:href="#DejaVuSans-112"/>
      <use x="267.533203" xlink:href="#DejaVuSans-105"/>
     </g>
    </g>
   </g>
  </g>
  <g id="text_18">
   <!-- result inflight -->
   <defs>
    <path d="M 8.5 21.578125 
L 8.5 54.6875 
L 17.484375 54.6875 
L 17.484375 21.921875 
Q 17.484375 14.15625 20.5 10.265625 
Q 23.53125 6.390625 29.59375 6.390625 
Q 36.859375 6.390625 41.078125 11.03125 
Q 45.3125 15.671875 45.3125 23.6875 
L 45.3125 54.6875 
L 54.296875 54.6875 
L 54.296875 0 
L 45.3125 0 
L 45.3125 8.40625 
Q 42.046875 3.421875 37.71875 1 
Q 33.40625 -1.421875 27.6875 -1.421875 
Q 18.265625 -1.421875 13.375 4.4375 
Q 8.5 10.296875 8.5 21.578125 
z
M 31.109375 56 
z
" id="DejaVuSans-117"/>
    <path id="DejaVuSans-32"/>
   </defs>
   <g transform="translate(302.110313 17.038125)scale(0.12 -0.12)">
    <use xlink:href="#DejaVuSans-114"/>
    <use x="41.082031" xlink:href="#DejaVuSans-101"/>
    <use x="102.605469" xlink:href="#DejaVuSans-115"/>
    <use x="154.705078" xlink:href="#DejaVuSans-117"/>
    <use x="218.083984" xlink:href="#DejaVuSans-108"/>
    <use x="245.867188" xlink:href="#DejaVuSans-116"/>
    <use x="285.076172" xlink:href="#DejaVuSans-32"/>
    <use x="316.863281" xlink:href="#DejaVuSans-105"/>
    <use x="344.646484" xlink:href="#DejaVuSans-110"/>
    <use x="408.025391" xlink:href="#DejaVuSans-102"/>
    <use x="443.230469" xlink:href="#DejaVuSans-108"/>
    <use x="471.013672" xlink:href="#DejaVuSans-105"/>
    <use x="498.796875" xlink:href="#DejaVuSans-103"/>
    <use x="562.273438" xlink:href="#DejaVuSans-104"/>
    <use x="625.652344" xlink:href="#DejaVuSans-116"/>
   </g>
  </g>
 </g>
 <defs>
  <clipPath id="p6ba12edb6a">
   <rect height="317.111667" width="413.84375" x="130.230156" y="35.0625"/>
  </clipPath>
 </defs>
</svg>
