<?xml version="1.0" encoding="utf-8" standalone="no"?>
<!DOCTYPE svg PUBLIC "-//W3C//DTD SVG 1.1//EN"
  "http://www.w3.org/Graphics/SVG/1.1/DTD/svg11.dtd">
<!-- Created with matplotlib (https://matplotlib.org/) -->
<svg height="396pt" version="1.1" viewBox="0 0 684 396" width="684pt" xmlns="http://www.w3.org/2000/svg" xmlns:xlink="http://www.w3.org/1999/xlink">
 <defs>
  <style type="text/css">
*{stroke-linecap:butt;stroke-linejoin:round;}
  </style>
 </defs>
 <g id="figure_1">
  <g id="patch_1">
   <path d="M 0 396 
L 684 396 
L 684 0 
L 0 0 
z
" style="fill:#ffffff;"/>
  </g>
  <g id="axes_1">
   <g id="patch_2">
    <path d="M 66.158594 352.174167 
L 516.019219 352.174167 
L 516.019219 35.0625 
L 66.158594 35.0625 
z
" style="fill:#ffffff;"/>
   </g>
   <g id="matplotlib.axis_1">
    <g id="xtick_1">
     <g id="line2d_1">
      <defs>
       <path d="M 0 0 
L 0 3.5 
" id="me9704f25b4" style="stroke:#000000;stroke-width:0.8;"/>
      </defs>
      <g>
       <use style="stroke:#000000;stroke-width:0.8;" x="90.887938" xlink:href="#me9704f25b4" y="352.174167"/>
      </g>
     </g>
     <g id="text_1">
      <!-- 0 -->
      <defs>
       <path d="M 31.78125 66.40625 
Q 24.171875 66.40625 20.328125 58.90625 
Q 16.5 51.421875 16.5 36.375 
Q 16.5 21.390625 20.328125 13.890625 
Q 24.171875 6.390625 31.78125 6.390625 
Q 39.453125 6.390625 43.28125 13.890625 
Q 47.125 21.390625 47.125 36.375 
Q 47.125 51.421875 43.28125 58.90625 
Q 39.453125 66.40625 31.78125 66.40625 
z
M 31.78125 74.21875 
Q 44.046875 74.21875 50.515625 64.515625 
Q 56.984375 54.828125 56.984375 36.375 
Q 56.984375 17.96875 50.515625 8.265625 
Q 44.046875 -1.421875 31.78125 -1.421875 
Q 19.53125 -1.421875 13.0625 8.265625 
Q 6.59375 17.96875 6.59375 36.375 
Q 6.59375 54.828125 13.0625 64.515625 
Q 19.53125 74.21875 31.78125 74.21875 
z
" id="DejaVuSans-48"/>
      </defs>
      <g transform="translate(87.706688 366.772604)scale(0.1 -0.1)">
       <use xlink:href="#DejaVuSans-48"/>
      </g>
     </g>
    </g>
    <g id="xtick_2">
     <g id="line2d_2">
      <g>
       <use style="stroke:#000000;stroke-width:0.8;" x="162.218557" xlink:href="#me9704f25b4" y="352.174167"/>
      </g>
     </g>
     <g id="text_2">
      <!-- 50 -->
      <defs>
       <path d="M 10.796875 72.90625 
L 49.515625 72.90625 
L 49.515625 64.59375 
L 19.828125 64.59375 
L 19.828125 46.734375 
Q 21.96875 47.46875 24.109375 47.828125 
Q 26.265625 48.1875 28.421875 48.1875 
Q 40.625 48.1875 47.75 41.5 
Q 54.890625 34.8125 54.890625 23.390625 
Q 54.890625 11.625 47.5625 5.09375 
Q 40.234375 -1.421875 26.90625 -1.421875 
Q 22.3125 -1.421875 17.546875 -0.640625 
Q 12.796875 0.140625 7.71875 1.703125 
L 7.71875 11.625 
Q 12.109375 9.234375 16.796875 8.0625 
Q 21.484375 6.890625 26.703125 6.890625 
Q 35.15625 6.890625 40.078125 11.328125 
Q 45.015625 15.765625 45.015625 23.390625 
Q 45.015625 31 40.078125 35.4375 
Q 35.15625 39.890625 26.703125 39.890625 
Q 22.75 39.890625 18.8125 39.015625 
Q 14.890625 38.140625 10.796875 36.28125 
z
" id="DejaVuSans-53"/>
      </defs>
      <g transform="translate(155.856057 366.772604)scale(0.1 -0.1)">
       <use xlink:href="#DejaVuSans-53"/>
       <use x="63.623047" xlink:href="#DejaVuSans-48"/>
      </g>
     </g>
    </g>
    <g id="xtick_3">
     <g id="line2d_3">
      <g>
       <use style="stroke:#000000;stroke-width:0.8;" x="233.549175" xlink:href="#me9704f25b4" y="352.174167"/>
      </g>
     </g>
     <g id="text_3">
      <!-- 100 -->
      <defs>
       <path d="M 12.40625 8.296875 
L 28.515625 8.296875 
L 28.515625 63.921875 
L 10.984375 60.40625 
L 10.984375 69.390625 
L 28.421875 72.90625 
L 38.28125 72.90625 
L 38.28125 8.296875 
L 54.390625 8.296875 
L 54.390625 0 
L 12.40625 0 
z
" id="DejaVuSans-49"/>
      </defs>
      <g transform="translate(224.005425 366.772604)scale(0.1 -0.1)">
       <use xlink:href="#DejaVuSans-49"/>
       <use x="63.623047" xlink:href="#DejaVuSans-48"/>
       <use x="127.246094" xlink:href="#DejaVuSans-48"/>
      </g>
     </g>
    </g>
    <g id="xtick_4">
     <g id="line2d_4">
      <g>
       <use style="stroke:#000000;stroke-width:0.8;" x="304.879794" xlink:href="#me9704f25b4" y="352.174167"/>
      </g>
     </g>
     <g id="text_4">
      <!-- 150 -->
      <g transform="translate(295.336044 366.772604)scale(0.1 -0.1)">
       <use xlink:href="#DejaVuSans-49"/>
       <use x="63.623047" xlink:href="#DejaVuSans-53"/>
       <use x="127.246094" xlink:href="#DejaVuSans-48"/>
      </g>
     </g>
    </g>
    <g id="xtick_5">
     <g id="line2d_5">
      <g>
       <use style="stroke:#000000;stroke-width:0.8;" x="376.210412" xlink:href="#me9704f25b4" y="352.174167"/>
      </g>
     </g>
     <g id="text_5">
      <!-- 200 -->
      <defs>
       <path d="M 19.1875 8.296875 
L 53.609375 8.296875 
L 53.609375 0 
L 7.328125 0 
L 7.328125 8.296875 
Q 12.9375 14.109375 22.625 23.890625 
Q 32.328125 33.6875 34.8125 36.53125 
Q 39.546875 41.84375 41.421875 45.53125 
Q 43.3125 49.21875 43.3125 52.78125 
Q 43.3125 58.59375 39.234375 62.25 
Q 35.15625 65.921875 28.609375 65.921875 
Q 23.96875 65.921875 18.8125 64.3125 
Q 13.671875 62.703125 7.8125 59.421875 
L 7.8125 69.390625 
Q 13.765625 71.78125 18.9375 73 
Q 24.125 74.21875 28.421875 74.21875 
Q 39.75 74.21875 46.484375 68.546875 
Q 53.21875 62.890625 53.21875 53.421875 
Q 53.21875 48.921875 51.53125 44.890625 
Q 49.859375 40.875 45.40625 35.40625 
Q 44.1875 33.984375 37.640625 27.21875 
Q 31.109375 20.453125 19.1875 8.296875 
z
" id="DejaVuSans-50"/>
      </defs>
      <g transform="translate(366.666662 366.772604)scale(0.1 -0.1)">
       <use xlink:href="#DejaVuSans-50"/>
       <use x="63.623047" xlink:href="#DejaVuSans-48"/>
       <use x="127.246094" xlink:href="#DejaVuSans-48"/>
      </g>
     </g>
    </g>
    <g id="xtick_6">
     <g id="line2d_6">
      <g>
       <use style="stroke:#000000;stroke-width:0.8;" x="447.541031" xlink:href="#me9704f25b4" y="352.174167"/>
      </g>
     </g>
     <g id="text_6">
      <!-- 250 -->
      <g transform="translate(437.997281 366.772604)scale(0.1 -0.1)">
       <use xlink:href="#DejaVuSans-50"/>
       <use x="63.623047" xlink:href="#DejaVuSans-53"/>
       <use x="127.246094" xlink:href="#DejaVuSans-48"/>
      </g>
     </g>
    </g>
   </g>
   <g id="matplotlib.axis_2">
    <g id="ytick_1">
     <g id="line2d_7">
      <defs>
       <path d="M 0 0 
L -3.5 0 
" id="mee4f91a630" style="stroke:#000000;stroke-width:0.8;"/>
      </defs>
      <g>
       <use style="stroke:#000000;stroke-width:0.8;" x="66.158594" xlink:href="#mee4f91a630" y="352.174167"/>
      </g>
     </g>
     <g id="text_7">
      <!-- 0 -->
      <g transform="translate(52.796094 355.973385)scale(0.1 -0.1)">
       <use xlink:href="#DejaVuSans-48"/>
      </g>
     </g>
    </g>
    <g id="ytick_2">
     <g id="line2d_8">
      <g>
       <use style="stroke:#000000;stroke-width:0.8;" x="66.158594" xlink:href="#mee4f91a630" y="298.841925"/>
      </g>
     </g>
     <g id="text_8">
      <!-- 10 -->
      <g transform="translate(46.433594 302.641143)scale(0.1 -0.1)">
       <use xlink:href="#DejaVuSans-49"/>
       <use x="63.623047" xlink:href="#DejaVuSans-48"/>
      </g>
     </g>
    </g>
    <g id="ytick_3">
     <g id="line2d_9">
      <g>
       <use style="stroke:#000000;stroke-width:0.8;" x="66.158594" xlink:href="#mee4f91a630" y="245.509683"/>
      </g>
     </g>
     <g id="text_9">
      <!-- 20 -->
      <g transform="translate(46.433594 249.308901)scale(0.1 -0.1)">
       <use xlink:href="#DejaVuSans-50"/>
       <use x="63.623047" xlink:href="#DejaVuSans-48"/>
      </g>
     </g>
    </g>
    <g id="ytick_4">
     <g id="line2d_10">
      <g>
       <use style="stroke:#000000;stroke-width:0.8;" x="66.158594" xlink:href="#mee4f91a630" y="192.177441"/>
      </g>
     </g>
     <g id="text_10">
      <!-- 30 -->
      <defs>
       <path d="M 40.578125 39.3125 
Q 47.65625 37.796875 51.625 33 
Q 55.609375 28.21875 55.609375 21.1875 
Q 55.609375 10.40625 48.1875 4.484375 
Q 40.765625 -1.421875 27.09375 -1.421875 
Q 22.515625 -1.421875 17.65625 -0.515625 
Q 12.796875 0.390625 7.625 2.203125 
L 7.625 11.71875 
Q 11.71875 9.328125 16.59375 8.109375 
Q 21.484375 6.890625 26.8125 6.890625 
Q 36.078125 6.890625 40.9375 10.546875 
Q 45.796875 14.203125 45.796875 21.1875 
Q 45.796875 27.640625 41.28125 31.265625 
Q 36.765625 34.90625 28.71875 34.90625 
L 20.21875 34.90625 
L 20.21875 43.015625 
L 29.109375 43.015625 
Q 36.375 43.015625 40.234375 45.921875 
Q 44.09375 48.828125 44.09375 54.296875 
Q 44.09375 59.90625 40.109375 62.90625 
Q 36.140625 65.921875 28.71875 65.921875 
Q 24.65625 65.921875 20.015625 65.03125 
Q 15.375 64.15625 9.8125 62.3125 
L 9.8125 71.09375 
Q 15.4375 72.65625 20.34375 73.4375 
Q 25.25 74.21875 29.59375 74.21875 
Q 40.828125 74.21875 47.359375 69.109375 
Q 53.90625 64.015625 53.90625 55.328125 
Q 53.90625 49.265625 50.4375 45.09375 
Q 46.96875 40.921875 40.578125 39.3125 
z
" id="DejaVuSans-51"/>
      </defs>
      <g transform="translate(46.433594 195.976659)scale(0.1 -0.1)">
       <use xlink:href="#DejaVuSans-51"/>
       <use x="63.623047" xlink:href="#DejaVuSans-48"/>
      </g>
     </g>
    </g>
    <g id="ytick_5">
     <g id="line2d_11">
      <g>
       <use style="stroke:#000000;stroke-width:0.8;" x="66.158594" xlink:href="#mee4f91a630" y="138.845199"/>
      </g>
     </g>
     <g id="text_11">
      <!-- 40 -->
      <defs>
       <path d="M 37.796875 64.3125 
L 12.890625 25.390625 
L 37.796875 25.390625 
z
M 35.203125 72.90625 
L 47.609375 72.90625 
L 47.609375 25.390625 
L 58.015625 25.390625 
L 58.015625 17.1875 
L 47.609375 17.1875 
L 47.609375 0 
L 37.796875 0 
L 37.796875 17.1875 
L 4.890625 17.1875 
L 4.890625 26.703125 
z
" id="DejaVuSans-52"/>
      </defs>
      <g transform="translate(46.433594 142.644417)scale(0.1 -0.1)">
       <use xlink:href="#DejaVuSans-52"/>
       <use x="63.623047" xlink:href="#DejaVuSans-48"/>
      </g>
     </g>
    </g>
    <g id="ytick_6">
     <g id="line2d_12">
      <g>
       <use style="stroke:#000000;stroke-width:0.8;" x="66.158594" xlink:href="#mee4f91a630" y="85.512957"/>
      </g>
     </g>
     <g id="text_12">
      <!-- 50 -->
      <g transform="translate(46.433594 89.312175)scale(0.1 -0.1)">
       <use xlink:href="#DejaVuSans-53"/>
       <use x="63.623047" xlink:href="#DejaVuSans-48"/>
      </g>
     </g>
    </g>
    <g id="text_13">
     <!-- droprate -->
     <defs>
      <path d="M 45.40625 46.390625 
L 45.40625 75.984375 
L 54.390625 75.984375 
L 54.390625 0 
L 45.40625 0 
L 45.40625 8.203125 
Q 42.578125 3.328125 38.25 0.953125 
Q 33.9375 -1.421875 27.875 -1.421875 
Q 17.96875 -1.421875 11.734375 6.484375 
Q 5.515625 14.40625 5.515625 27.296875 
Q 5.515625 40.1875 11.734375 48.09375 
Q 17.96875 56 27.875 56 
Q 33.9375 56 38.25 53.625 
Q 42.578125 51.265625 45.40625 46.390625 
z
M 14.796875 27.296875 
Q 14.796875 17.390625 18.875 11.75 
Q 22.953125 6.109375 30.078125 6.109375 
Q 37.203125 6.109375 41.296875 11.75 
Q 45.40625 17.390625 45.40625 27.296875 
Q 45.40625 37.203125 41.296875 42.84375 
Q 37.203125 48.484375 30.078125 48.484375 
Q 22.953125 48.484375 18.875 42.84375 
Q 14.796875 37.203125 14.796875 27.296875 
z
" id="DejaVuSans-100"/>
      <path d="M 41.109375 46.296875 
Q 39.59375 47.171875 37.8125 47.578125 
Q 36.03125 48 33.890625 48 
Q 26.265625 48 22.1875 43.046875 
Q 18.109375 38.09375 18.109375 28.8125 
L 18.109375 0 
L 9.078125 0 
L 9.078125 54.6875 
L 18.109375 54.6875 
L 18.109375 46.1875 
Q 20.953125 51.171875 25.484375 53.578125 
Q 30.03125 56 36.53125 56 
Q 37.453125 56 38.578125 55.875 
Q 39.703125 55.765625 41.0625 55.515625 
z
" id="DejaVuSans-114"/>
      <path d="M 30.609375 48.390625 
Q 23.390625 48.390625 19.1875 42.75 
Q 14.984375 37.109375 14.984375 27.296875 
Q 14.984375 17.484375 19.15625 11.84375 
Q 23.34375 6.203125 30.609375 6.203125 
Q 37.796875 6.203125 41.984375 11.859375 
Q 46.1875 17.53125 46.1875 27.296875 
Q 46.1875 37.015625 41.984375 42.703125 
Q 37.796875 48.390625 30.609375 48.390625 
z
M 30.609375 56 
Q 42.328125 56 49.015625 48.375 
Q 55.71875 40.765625 55.71875 27.296875 
Q 55.71875 13.875 49.015625 6.21875 
Q 42.328125 -1.421875 30.609375 -1.421875 
Q 18.84375 -1.421875 12.171875 6.21875 
Q 5.515625 13.875 5.515625 27.296875 
Q 5.515625 40.765625 12.171875 48.375 
Q 18.84375 56 30.609375 56 
z
" id="DejaVuSans-111"/>
      <path d="M 18.109375 8.203125 
L 18.109375 -20.796875 
L 9.078125 -20.796875 
L 9.078125 54.6875 
L 18.109375 54.6875 
L 18.109375 46.390625 
Q 20.953125 51.265625 25.265625 53.625 
Q 29.59375 56 35.59375 56 
Q 45.5625 56 51.78125 48.09375 
Q 58.015625 40.1875 58.015625 27.296875 
Q 58.015625 14.40625 51.78125 6.484375 
Q 45.5625 -1.421875 35.59375 -1.421875 
Q 29.59375 -1.421875 25.265625 0.953125 
Q 20.953125 3.328125 18.109375 8.203125 
z
M 48.6875 27.296875 
Q 48.6875 37.203125 44.609375 42.84375 
Q 40.53125 48.484375 33.40625 48.484375 
Q 26.265625 48.484375 22.1875 42.84375 
Q 18.109375 37.203125 18.109375 27.296875 
Q 18.109375 17.390625 22.1875 11.75 
Q 26.265625 6.109375 33.40625 6.109375 
Q 40.53125 6.109375 44.609375 11.75 
Q 48.6875 17.390625 48.6875 27.296875 
z
" id="DejaVuSans-112"/>
      <path d="M 34.28125 27.484375 
Q 23.390625 27.484375 19.1875 25 
Q 14.984375 22.515625 14.984375 16.5 
Q 14.984375 11.71875 18.140625 8.90625 
Q 21.296875 6.109375 26.703125 6.109375 
Q 34.1875 6.109375 38.703125 11.40625 
Q 43.21875 16.703125 43.21875 25.484375 
L 43.21875 27.484375 
z
M 52.203125 31.203125 
L 52.203125 0 
L 43.21875 0 
L 43.21875 8.296875 
Q 40.140625 3.328125 35.546875 0.953125 
Q 30.953125 -1.421875 24.3125 -1.421875 
Q 15.921875 -1.421875 10.953125 3.296875 
Q 6 8.015625 6 15.921875 
Q 6 25.140625 12.171875 29.828125 
Q 18.359375 34.515625 30.609375 34.515625 
L 43.21875 34.515625 
L 43.21875 35.40625 
Q 43.21875 41.609375 39.140625 45 
Q 35.0625 48.390625 27.6875 48.390625 
Q 23 48.390625 18.546875 47.265625 
Q 14.109375 46.140625 10.015625 43.890625 
L 10.015625 52.203125 
Q 14.9375 54.109375 19.578125 55.046875 
Q 24.21875 56 28.609375 56 
Q 40.484375 56 46.34375 49.84375 
Q 52.203125 43.703125 52.203125 31.203125 
z
" id="DejaVuSans-97"/>
      <path d="M 18.3125 70.21875 
L 18.3125 54.6875 
L 36.8125 54.6875 
L 36.8125 47.703125 
L 18.3125 47.703125 
L 18.3125 18.015625 
Q 18.3125 11.328125 20.140625 9.421875 
Q 21.96875 7.515625 27.59375 7.515625 
L 36.8125 7.515625 
L 36.8125 0 
L 27.59375 0 
Q 17.1875 0 13.234375 3.875 
Q 9.28125 7.765625 9.28125 18.015625 
L 9.28125 47.703125 
L 2.6875 47.703125 
L 2.6875 54.6875 
L 9.28125 54.6875 
L 9.28125 70.21875 
z
" id="DejaVuSans-116"/>
      <path d="M 56.203125 29.59375 
L 56.203125 25.203125 
L 14.890625 25.203125 
Q 15.484375 15.921875 20.484375 11.0625 
Q 25.484375 6.203125 34.421875 6.203125 
Q 39.59375 6.203125 44.453125 7.46875 
Q 49.3125 8.734375 54.109375 11.28125 
L 54.109375 2.78125 
Q 49.265625 0.734375 44.1875 -0.34375 
Q 39.109375 -1.421875 33.890625 -1.421875 
Q 20.796875 -1.421875 13.15625 6.1875 
Q 5.515625 13.8125 5.515625 26.8125 
Q 5.515625 40.234375 12.765625 48.109375 
Q 20.015625 56 32.328125 56 
Q 43.359375 56 49.78125 48.890625 
Q 56.203125 41.796875 56.203125 29.59375 
z
M 47.21875 32.234375 
Q 47.125 39.59375 43.09375 43.984375 
Q 39.0625 48.390625 32.421875 48.390625 
Q 24.90625 48.390625 20.390625 44.140625 
Q 15.875 39.890625 15.1875 32.171875 
z
" id="DejaVuSans-101"/>
     </defs>
     <g transform="translate(40.353906 215.236302)rotate(-90)scale(0.1 -0.1)">
      <use xlink:href="#DejaVuSans-100"/>
      <use x="63.476562" xlink:href="#DejaVuSans-114"/>
      <use x="104.558594" xlink:href="#DejaVuSans-111"/>
      <use x="165.740234" xlink:href="#DejaVuSans-112"/>
      <use x="229.216797" xlink:href="#DejaVuSans-114"/>
      <use x="270.330078" xlink:href="#DejaVuSans-97"/>
      <use x="331.609375" xlink:href="#DejaVuSans-116"/>
      <use x="370.818359" xlink:href="#DejaVuSans-101"/>
     </g>
    </g>
   </g>
   <g id="line2d_13">
    <path clip-path="url(#pb3c54fc0b4)" d="M 86.606804 352.174167 
L 90.243782 352.174167 
L 90.394292 301.057002 
L 90.547896 307.168055 
L 90.6995 352.174167 
L 93.123395 352.174167 
L 93.274715 319.506269 
L 93.575676 50.163056 
L 93.726731 109.963268 
L 93.877187 311.678338 
L 94.028455 335.388626 
L 94.179795 340.01867 
L 94.330828 339.203521 
L 94.481895 352.174167 
L 94.631981 352.174167 
L 94.782551 350.641631 
L 94.935359 352.174167 
L 95.996288 352.174167 
L 96.146781 320.847205 
L 96.300294 337.129811 
L 96.451508 335.412605 
L 96.603113 352.174167 
L 96.754118 343.781396 
L 96.905144 352.174167 
L 97.057158 352.174167 
L 97.209532 349.91113 
L 97.360355 342.241228 
L 97.510878 352.174167 
L 97.66399 349.161046 
L 97.816605 352.174167 
L 97.96944 352.174167 
L 98.122131 349.914326 
L 98.273403 343.031497 
L 98.423243 352.174167 
L 98.574678 346.840942 
L 98.726159 347.609353 
L 98.877371 345.356124 
L 99.028356 311.032151 
L 99.487868 352.174167 
L 99.637696 352.174167 
L 99.943461 344.683683 
L 100.098041 344.72553 
L 100.251159 352.174167 
L 100.402013 343.031497 
L 100.553369 352.174167 
L 100.704391 352.174167 
L 100.855272 342.241228 
L 101.006131 352.174167 
L 101.156038 344.489406 
L 101.306155 352.174167 
L 101.456157 352.174167 
L 101.606006 344.489406 
L 101.755936 352.174167 
L 101.905789 337.272511 
L 102.056219 336.082542 
L 102.206294 352.174167 
L 102.356285 329.920425 
L 102.506297 337.594129 
L 102.656212 352.174167 
L 102.806245 334.524648 
L 102.95629 348.331786 
L 103.109162 340.842954 
L 103.263712 352.174167 
L 103.418303 337.982113 
L 103.57233 352.174167 
L 103.726143 338.691296 
L 103.879935 346.930828 
L 104.033749 345.432732 
L 104.183737 346.052819 
L 104.333775 336.826759 
L 104.638207 352.174167 
L 104.789989 352.174167 
L 104.940389 308.622049 
L 105.091823 339.184939 
L 105.241825 335.34046 
L 105.391805 327.582931 
L 105.541755 342.965722 
L 105.691688 343.720929 
L 105.841741 334.524648 
L 105.991723 343.720929 
L 106.294448 337.800938 
L 106.446601 352.174167 
L 106.598764 333.992721 
L 106.7497 334.650716 
L 106.900444 345.297517 
L 107.051336 335.388626 
L 107.202023 352.174167 
L 107.352776 328.453944 
L 107.511025 348.705403 
L 107.666479 352.174167 
L 107.820355 299.066324 
L 107.972727 327.245498 
L 108.124992 327.210138 
L 108.432431 351.425118 
L 108.585797 352.174167 
L 108.735674 339.625404 
L 108.886236 352.174167 
L 113.572659 352.174167 
L 113.732273 351.449544 
L 113.891189 352.174167 
L 114.810285 352.174167 
L 114.962963 350.661195 
L 115.115281 352.174167 
L 115.878657 352.174167 
L 116.032007 349.868738 
L 116.182651 352.174167 
L 117.241236 352.174167 
L 117.391529 350.641631 
L 117.541883 352.174167 
L 118.146937 352.174167 
L 118.297288 351.407899 
L 118.447964 352.174167 
L 119.355036 352.174167 
L 119.505321 351.406796 
L 119.65619 352.174167 
L 120.409723 352.174167 
L 120.560578 350.646022 
L 120.711247 352.174167 
L 122.221654 352.174167 
L 122.373426 347.622339 
L 122.525058 337.739514 
L 122.677853 352.174167 
L 122.829509 348.375574 
L 122.981011 352.174167 
L 123.284423 352.174167 
L 123.434836 338.118817 
L 123.584693 349.100262 
L 123.734222 349.095827 
L 124.033678 352.174167 
L 124.183493 337.552051 
L 124.333137 352.174167 
L 124.482727 348.326242 
L 124.632269 339.843012 
L 124.785396 352.174167 
L 125.093854 327.385942 
L 125.24712 352.174167 
L 125.400132 339.386464 
L 125.555173 342.517911 
L 125.7057 317.790916 
L 125.855715 311.503536 
L 126.155774 293.769982 
L 126.306712 314.788189 
L 126.457601 295.71371 
L 126.607683 352.174167 
L 126.757462 318.361218 
L 126.907615 325.316203 
L 127.058809 340.745829 
L 127.208619 316.824266 
L 127.35889 325.316203 
L 127.509439 317.889154 
L 127.664149 321.506258 
L 127.96533 296.923499 
L 128.266768 312.44241 
L 128.418214 323.304862 
L 128.56949 310.33004 
L 128.72028 317.026844 
L 128.870567 276.204498 
L 129.020753 279.378721 
L 129.17629 300.251261 
L 129.634217 317.227113 
L 129.784848 300.142711 
L 130.085372 225.558053 
L 130.688352 352.174167 
L 130.839255 352.174167 
L 130.990678 350.650388 
L 131.142152 340.00133 
L 131.445366 349.139615 
L 131.596496 344.544375 
L 131.747033 345.28765 
L 131.899094 344.598564 
L 132.049905 352.174167 
L 132.501503 352.174167 
L 132.652786 340.72948 
L 132.804317 348.375574 
L 133.408986 289.699255 
L 133.56139 261.395882 
L 133.713153 328.622892 
L 134.016498 290.636964 
L 134.168272 305.138619 
L 134.319395 287.413587 
L 134.623751 285.603425 
L 134.779561 306.989906 
L 134.930318 290.461144 
L 135.081332 299.603814 
L 135.232583 292.661794 
L 135.537543 337.1932 
L 135.688828 352.174167 
L 135.991488 317.227113 
L 136.141997 343.0053 
L 136.444075 316.365376 
L 136.746042 333.836433 
L 136.897384 311.032151 
L 137.049052 314.188239 
L 137.355121 266.691282 
L 137.506084 310.270262 
L 137.657862 281.520342 
L 137.808242 305.49889 
L 137.958627 278.612454 
L 138.411225 332.421484 
L 138.562256 330.016072 
L 138.71246 325.39327 
L 138.863171 348.348324 
L 139.01336 316.925846 
L 139.164308 317.741586 
L 139.31666 315.211227 
L 139.466894 294.621388 
L 139.61911 302.17519 
L 139.769579 281.879521 
L 139.920501 324.667566 
L 140.07031 326.850944 
L 140.223553 335.578561 
L 140.374634 330.871702 
L 140.528631 304.984121 
L 140.832206 338.460162 
L 140.983392 318.651043 
L 141.133447 325.316203 
L 141.283849 310.029435 
L 141.437333 315.263434 
L 141.587584 346.817987 
L 141.738745 314.947958 
L 141.89096 316.518187 
L 142.041569 322.332597 
L 142.195003 288.415509 
L 142.499522 320.714136 
L 142.651091 330.932306 
L 142.800833 316.05579 
L 142.95171 315.498699 
L 143.101458 313.750361 
L 143.251755 301.527721 
L 143.404113 265.812297 
L 143.556258 285.603425 
L 143.707951 272.403719 
L 143.859405 275.333133 
L 144.010183 301.817543 
L 144.160111 299.22561 
L 144.31079 283.309005 
L 144.461868 334.625646 
L 144.612332 290.106471 
L 144.763506 311.736272 
L 144.91931 304.83348 
L 145.071336 293.084467 
L 145.374533 340.8909 
L 145.527235 299.976653 
L 145.678491 307.28683 
L 145.98053 258.728785 
L 146.132308 268.605126 
L 146.284103 259.620347 
L 146.43486 294.187752 
L 146.738035 262.654898 
L 147.040852 329.219113 
L 147.191433 302.295091 
L 147.344009 326.490084 
L 147.495235 318.746551 
L 147.647998 337.065883 
L 147.799401 333.914911 
L 147.952274 324.302797 
L 148.102916 327.723855 
L 148.407637 316.869725 
L 148.557914 335.316274 
L 148.709007 333.126937 
L 148.862289 322.878991 
L 149.166136 285.318935 
L 149.316676 239.091476 
L 149.468054 249.319128 
L 149.779126 316.370703 
L 149.930243 336.174494 
L 150.082687 336.287967 
L 150.233505 313.970555 
L 150.385357 308.110491 
L 150.537646 290.230203 
L 150.84237 308.993232 
L 151.143533 291.639007 
L 151.296709 303.96423 
L 151.44789 297.474431 
L 151.599899 297.55224 
L 151.905499 342.409108 
L 152.060739 335.832811 
L 152.366608 305.962991 
L 152.821964 334.725496 
L 152.974825 331.806832 
L 153.127124 323.386877 
L 153.278599 327.863173 
L 153.432345 343.934635 
L 153.737597 313.865091 
L 153.891603 328.1371 
L 154.200271 319.828801 
L 154.351628 304.937038 
L 154.667271 352.174167 
L 160.163249 352.174167 
L 160.316497 351.421949 
L 160.473547 351.437533 
L 160.626943 352.174167 
L 161.384701 352.174167 
L 161.536771 351.415529 
L 161.687158 348.353805 
L 161.838446 352.174167 
L 162.907788 352.174167 
L 163.061559 351.426169 
L 163.211883 351.410094 
L 163.36364 352.174167 
L 164.274114 352.174167 
L 164.425537 351.413364 
L 164.576202 351.408998 
L 164.728544 352.174167 
L 166.409193 352.174167 
L 166.561202 349.90471 
L 166.712208 352.174167 
L 167.477191 352.174167 
L 167.632032 351.432411 
L 167.786117 352.174167 
L 168.695321 352.174167 
L 168.847342 351.414448 
L 168.999816 352.174167 
L 169.452732 352.174167 
L 169.604893 345.346426 
L 169.756084 352.174167 
L 170.208752 352.174167 
L 170.359716 343.781396 
L 170.511118 352.174167 
L 170.662042 352.174167 
L 170.81406 347.628805 
L 170.964907 352.174167 
L 171.115598 350.646022 
L 171.265565 339.184939 
L 171.417348 352.174167 
L 171.569831 348.397096 
L 171.720499 339.949011 
L 171.874381 352.174167 
L 172.024595 342.241228 
L 172.17715 349.15251 
L 172.32798 333.072361 
L 172.478771 346.079053 
L 172.630018 333.888827 
L 172.78088 331.544216 
L 172.931575 352.174167 
L 173.082511 346.070334 
L 173.233215 312.44241 
L 173.543893 350.690655 
L 173.694966 320.22047 
L 173.996451 331.603159 
L 174.148074 324.144437 
L 174.299478 341.522934 
L 174.903678 267.483482 
L 175.205291 273.474726 
L 175.356073 292.576532 
L 175.507007 297.160966 
L 175.657917 294.27059 
L 175.808989 295.71371 
L 175.966303 307.301522 
L 176.117724 308.993232 
L 176.268988 296.635598 
L 176.419745 338.420866 
L 176.56994 282.343461 
L 176.721568 281.520342 
L 176.872565 294.950731 
L 177.025945 336.399842 
L 177.178426 331.749053 
L 177.335106 301.944354 
L 177.489906 310.635842 
L 177.643557 337.942248 
L 177.949116 306.288881 
L 178.100739 314.188239 
L 178.253189 305.071617 
L 178.404604 283.236183 
L 178.556144 286.078653 
L 178.708131 293.759051 
L 178.860349 284.942304 
L 179.163024 329.317492 
L 179.314875 309.750792 
L 179.469899 311.149365 
L 179.620853 301.200412 
L 179.771918 304.937038 
L 179.924356 283.236183 
L 180.075171 288.937365 
L 180.225716 282.543836 
L 180.526708 336.870797 
L 180.67763 310.914266 
L 180.828409 345.297517 
L 180.987796 331.074098 
L 181.291003 287.781545 
L 181.444035 280.511324 
L 181.59495 309.569237 
L 181.745704 310.150194 
L 181.896227 309.386121 
L 182.047309 324.706918 
L 182.348988 320.892022 
L 182.499771 296.316869 
L 182.651151 297.3964 
L 182.802014 326.232876 
L 182.952713 307.857977 
L 183.103482 320.083133 
L 183.255638 318.794101 
L 183.406949 260.248222 
L 183.558486 276.202312 
L 183.708396 270.715699 
L 183.861111 293.924768 
L 184.011746 290.372856 
L 184.162901 294.187752 
L 184.464192 326.995855 
L 184.916852 267.884704 
L 185.22083 258.767415 
L 185.371679 317.889154 
L 185.523283 323.304862 
L 185.837459 352.174167 
L 191.283888 352.174167 
L 191.434971 351.413364 
L 191.587226 349.143926 
L 191.737599 352.174167 
L 193.400662 352.174167 
L 193.551182 351.410094 
L 193.701421 352.174167 
L 194.607862 352.174167 
L 194.758986 349.88195 
L 194.91233 352.174167 
L 196.572906 352.174167 
L 196.72441 350.650388 
L 196.876184 352.174167 
L 197.631778 352.174167 
L 197.783075 351.414448 
L 197.933562 352.174167 
L 198.691091 352.174167 
L 198.843273 350.661195 
L 198.996509 350.667606 
L 199.147395 352.174167 
L 199.759732 352.174167 
L 199.912719 350.663338 
L 200.064034 352.174167 
L 200.821056 352.174167 
L 201.123667 348.364721 
L 201.27489 352.174167 
L 201.427126 352.174167 
L 201.578987 343.083444 
L 201.732422 352.174167 
L 201.88337 352.174167 
L 202.033977 350.646022 
L 202.18536 346.84855 
L 202.336172 352.174167 
L 202.487064 345.307354 
L 202.63815 352.174167 
L 202.789702 343.044539 
L 202.941344 341.553237 
L 203.093189 347.615855 
L 203.247141 332.753462 
L 203.398537 338.460162 
L 203.550541 330.96248 
L 203.701159 313.915743 
L 203.851665 334.600505 
L 204.003738 325.659558 
L 204.154757 324.706918 
L 204.304904 330.687796 
L 204.455398 303.968553 
L 204.6057 297.690869 
L 204.75659 298.841925 
L 204.906514 318.40987 
L 205.056192 315.234086 
L 205.20585 322.929936 
L 205.355709 275.215664 
L 205.657179 313.860774 
L 205.80765 317.741586 
L 205.957747 351.407899 
L 206.110003 306.526028 
L 206.260352 314.788189 
L 206.413334 332.561178 
L 206.714939 269.772419 
L 206.864549 299.0728 
L 207.014645 293.854017 
L 207.314295 342.952453 
L 207.46451 326.850944 
L 207.615199 340.713083 
L 207.765162 332.989907 
L 207.914985 313.694916 
L 208.064591 316.003671 
L 208.214268 336.012881 
L 208.366122 311.090842 
L 208.516405 311.678338 
L 208.665969 312.868613 
L 208.815606 289.83778 
L 208.970038 299.887655 
L 209.26972 286.085221 
L 209.419832 296.843887 
L 209.571702 294.435557 
L 209.721367 278.506609 
L 210.021176 329.119883 
L 210.170819 303.760172 
L 210.320439 347.53658 
L 210.471566 299.678807 
L 210.621561 307.666684 
L 210.771238 343.708731 
L 210.920905 308.30782 
L 211.223719 297.318146 
L 211.373343 273.676494 
L 211.672523 317.492795 
L 211.823582 298.68911 
L 211.97361 300.067953 
L 212.275288 323.263679 
L 212.425956 311.678338 
L 212.575646 332.164956 
L 212.725894 323.740551 
L 213.025191 322.160351 
L 213.174788 285.989855 
L 213.327518 288.539105 
L 213.477493 321.567428 
L 213.627015 314.464501 
L 213.776617 314.410007 
L 213.926421 304.459895 
L 214.076228 316.05579 
L 214.22597 279.937412 
L 214.525277 340.61371 
L 214.675996 320.129043 
L 214.825938 324.509027 
L 214.97696 352.174167 
L 215.426865 352.174167 
L 215.57684 269.947223 
L 215.726573 305.22948 
L 215.876475 306.0656 
L 216.026684 340.647025 
L 216.178722 341.598368 
L 216.333761 347.698734 
L 216.484301 344.533444 
L 216.634632 349.113493 
L 216.786646 339.295642 
L 216.940272 350.67185 
L 217.391843 341.430981 
L 217.543128 336.174494 
L 217.695932 352.174167 
L 217.848891 331.806832 
L 218.00077 344.598564 
L 218.151995 342.283737 
L 218.303683 345.346426 
L 218.454133 336.082542 
L 218.604353 352.174167 
L 218.755986 343.044539 
L 218.906862 343.031497 
L 219.057688 341.477155 
L 219.210528 345.375439 
L 219.361506 352.174167 
L 219.512432 336.151605 
L 219.814686 346.079053 
L 220.116333 334.524648 
L 220.270767 352.174167 
L 220.426429 323.924343 
L 220.583009 352.174167 
L 220.739434 335.99059 
L 220.890719 352.174167 
L 221.041736 330.84127 
L 221.192229 352.174167 
L 221.342779 343.757314 
L 221.493071 351.407899 
L 221.64312 335.267692 
L 221.793945 343.769372 
L 221.94546 335.630931 
L 222.095689 333.783738 
L 222.411023 298.405966 
L 222.711952 345.277756 
L 222.8627 336.870797 
L 223.012558 336.804644 
L 223.162329 352.174167 
L 223.315221 331.022569 
L 223.466536 346.087748 
L 223.61801 342.269607 
L 223.767889 352.174167 
L 224.067907 334.524648 
L 224.217813 352.174167 
L 224.367621 338.341597 
L 224.517408 346.794834 
L 224.667699 339.89624 
L 224.817738 348.337315 
L 224.968903 325.508046 
L 225.118617 319.851596 
L 225.268251 336.782466 
L 225.418186 335.267692 
L 225.568248 325.316203 
L 225.7182 325.277503 
L 225.868064 343.720929 
L 226.018751 332.279787 
L 226.169249 349.113493 
L 226.32049 339.98394 
L 226.471384 352.174167 
L 226.771552 334.524648 
L 226.921974 349.109095 
L 227.072679 339.166303 
L 227.222738 343.74522 
L 227.374274 343.805341 
L 227.527937 336.422028 
L 227.678706 336.914584 
L 227.829003 329.952399 
L 227.979161 352.174167 
L 228.128997 348.337315 
L 228.279256 329.888359 
L 228.430028 330.016072 
L 228.581593 352.174167 
L 228.731848 352.174167 
L 228.881773 330.687796 
L 229.033072 326.995855 
L 229.1839 352.174167 
L 229.33452 342.978953 
L 229.485835 352.174167 
L 229.636212 352.174167 
L 229.787765 340.01867 
L 229.937652 338.3615 
L 230.087604 342.183977 
L 230.237587 352.174167 
L 234.015719 352.174167 
L 234.166144 350.64383 
L 234.317316 352.174167 
L 235.376654 352.174167 
L 235.528295 351.413364 
L 235.67935 352.174167 
L 236.588989 352.174167 
L 236.891527 349.12661 
L 237.042074 352.174167 
L 238.098709 352.174167 
L 238.249828 351.408998 
L 238.400315 352.174167 
L 239.01537 352.174167 
L 239.165872 350.652562 
L 239.316373 352.174167 
L 239.767318 352.174167 
L 239.918114 350.64383 
L 240.070884 352.174167 
L 240.823907 352.174167 
L 241.124978 350.646022 
L 241.275439 352.174167 
L 241.879497 352.174167 
L 242.029619 351.410094 
L 242.179532 352.174167 
L 242.63214 352.174167 
L 242.784021 349.89176 
L 242.936976 352.174167 
L 244.151816 352.174167 
L 244.302809 339.9665 
L 244.453373 342.226977 
L 244.605656 352.174167 
L 244.760035 352.174167 
L 244.912436 342.381523 
L 245.070654 352.174167 
L 245.22115 352.174167 
L 245.371594 342.212685 
L 245.524872 352.174167 
L 245.676077 352.174167 
L 245.826465 348.348324 
L 245.977094 351.410094 
L 246.129111 330.932306 
L 246.285926 342.58469 
L 246.44066 317.263089 
L 246.592015 352.174167 
L 246.74255 344.533444 
L 246.893256 352.174167 
L 247.043612 337.635966 
L 247.193716 339.89624 
L 247.346273 352.174167 
L 247.501557 338.061178 
L 247.651787 352.174167 
L 247.802201 352.174167 
L 247.953407 336.151605 
L 248.10404 350.64383 
L 248.254569 331.514618 
L 248.409805 346.967393 
L 248.711245 317.741586 
L 249.019911 352.174167 
L 249.170962 352.174167 
L 249.321837 332.279787 
L 249.472198 352.174167 
L 249.622534 352.174167 
L 249.774096 328.622892 
L 249.924732 352.174167 
L 250.075881 335.460359 
L 250.228212 349.15251 
L 250.380977 333.262024 
L 250.5353 352.174167 
L 250.685848 352.174167 
L 250.836338 349.109095 
L 250.986932 323.903494 
L 251.44756 352.174167 
L 251.598643 345.317164 
L 251.751854 343.911425 
L 251.902774 352.174167 
L 252.204019 336.105629 
L 252.356347 318.982955 
L 252.65853 339.240527 
L 252.809311 314.02521 
L 252.959811 335.316274 
L 253.110232 339.931471 
L 253.262829 338.576711 
L 253.413243 345.297517 
L 253.563915 341.461808 
L 253.714969 352.174167 
L 253.865489 321.567428 
L 254.016172 352.174167 
L 254.168218 337.760047 
L 254.318526 343.74522 
L 254.469558 325.39327 
L 254.622363 352.174167 
L 254.774259 337.780522 
L 254.9301 350.692715 
L 255.081386 321.785425 
L 255.232776 352.174167 
L 255.385371 323.42771 
L 255.541764 352.174167 
L 255.693485 330.932306 
L 255.844535 349.895011 
L 255.995961 326.232876 
L 256.299591 348.402438 
L 256.449826 342.226977 
L 256.600956 328.487927 
L 256.754331 327.385942 
L 256.904633 352.174167 
L 257.056268 321.742074 
L 257.209907 331.921417 
L 257.360248 312.385406 
L 257.517344 309.449442 
L 257.818584 340.680149 
L 257.969256 327.688776 
L 258.119438 336.892722 
L 258.269862 336.826759 
L 258.572685 309.690446 
L 258.875107 337.841598 
L 259.17881 316.467395 
L 259.329411 324.667566 
L 259.479677 304.66556 
L 259.630009 323.055989 
L 259.780108 302.366757 
L 259.935246 316.320559 
L 260.088082 310.743753 
L 260.240711 317.572148 
L 260.391758 336.151605 
L 260.542341 331.544216 
L 260.692552 336.082542 
L 260.845414 311.323939 
L 260.995906 312.385406 
L 261.147389 346.105064 
L 261.29849 320.892022 
L 261.44865 317.692114 
L 261.599115 352.174167 
L 261.900216 326.923607 
L 262.051193 352.174167 
L 262.201652 345.277756 
L 262.352877 322.460489 
L 262.504309 318.698865 
L 262.657709 352.174167 
L 262.81246 326.067475 
L 262.964159 344.598564 
L 263.114859 326.232876 
L 263.267484 351.419821 
L 263.417941 352.174167 
L 263.568272 318.506754 
L 263.719059 352.174167 
L 263.871683 352.174167 
L 264.022169 320.037091 
L 264.174308 345.356124 
L 264.325669 330.871702 
L 264.477478 352.174167 
L 264.628064 352.174167 
L 264.78118 348.21189 
L 264.936226 352.174167 
L 265.086312 295.470346 
L 265.239265 334.01851 
L 265.391065 319.552738 
L 265.541271 341.477155 
L 265.693171 328.656393 
L 265.843976 352.174167 
L 269.022859 352.174167 
L 269.175226 350.661195 
L 269.32982 352.174167 
L 270.090883 352.174167 
L 270.244494 351.420886 
L 270.395426 349.89176 
L 270.546676 352.174167 
L 271.452622 352.174167 
L 271.602614 350.637214 
L 271.75372 352.174167 
L 272.359305 352.174167 
L 272.511156 350.656891 
L 272.662076 352.174167 
L 273.267556 352.174167 
L 273.421821 351.425118 
L 273.572671 352.174167 
L 274.330485 352.174167 
L 274.481212 349.878661 
L 274.63667 352.174167 
L 275.246905 352.174167 
L 275.399815 351.419821 
L 275.552338 352.174167 
L 276.159281 352.174167 
L 276.310866 351.414448 
L 276.462364 352.174167 
L 276.920112 352.174167 
L 277.072368 351.419821 
L 277.226101 349.920692 
L 277.376934 352.174167 
L 277.831944 352.174167 
L 277.983446 351.414448 
L 278.133904 349.885229 
L 278.286033 352.174167 
L 279.644487 352.174167 
L 279.797072 329.479596 
L 279.947883 352.174167 
L 280.097859 352.174167 
L 280.247748 349.100262 
L 280.397992 352.174167 
L 280.850798 352.174167 
L 281.001503 347.589733 
L 281.152309 352.174167 
L 281.303265 352.174167 
L 281.456427 349.914326 
L 281.607084 343.769372 
L 281.75752 352.174167 
L 282.059535 352.174167 
L 282.210782 350.650388 
L 282.36199 352.174167 
L 282.816715 341.492459 
L 282.966924 352.174167 
L 283.119064 352.174167 
L 283.27085 349.139615 
L 283.572741 352.174167 
L 283.874324 345.267833 
L 284.025145 352.174167 
L 284.176279 348.364721 
L 284.327156 347.589733 
L 284.47799 352.174167 
L 284.783994 348.386365 
L 284.934939 351.410094 
L 285.08583 350.648208 
L 285.23663 352.174167 
L 285.387427 346.061589 
L 285.538514 352.174167 
L 285.689339 345.297517 
L 285.84061 352.174167 
L 286.144512 347.602832 
L 286.295484 352.174167 
L 286.446321 348.353805 
L 286.59721 352.174167 
L 286.748247 348.359271 
L 286.898918 348.353805 
L 287.049781 345.297517 
L 287.200552 346.825661 
L 287.351469 351.411188 
L 287.503715 352.174167 
L 287.656377 352.174167 
L 287.807366 344.555275 
L 287.963474 352.174167 
L 288.115249 349.90471 
L 288.268225 352.174167 
L 288.418755 346.061589 
L 288.57018 349.135292 
L 288.723181 347.635252 
L 288.876813 343.185587 
L 289.026728 350.64383 
L 289.178792 346.840942 
L 289.332447 352.174167 
L 289.482744 345.277756 
L 289.634814 352.174167 
L 289.786026 352.174167 
L 289.936767 349.88195 
L 290.087842 351.411188 
L 290.393025 347.622339 
L 290.544992 345.3367 
L 290.848573 352.174167 
L 291.000048 352.174167 
L 291.150803 339.98394 
L 291.301714 352.174167 
L 291.452486 346.061589 
L 291.603144 352.174167 
L 291.753828 349.113493 
L 292.058199 347.635252 
L 292.210327 342.297826 
L 292.362168 352.174167 
L 292.513302 346.079053 
L 292.665975 349.148224 
L 292.967911 344.544375 
L 293.273782 348.439416 
L 293.425769 346.130853 
L 293.578955 352.174167 
L 294.040133 352.174167 
L 294.191166 333.888827 
L 294.342415 352.174167 
L 298.756099 352.174167 
L 298.912825 351.439563 
L 299.065386 351.418752 
L 299.216854 352.174167 
L 300.880529 352.174167 
L 301.031655 351.415529 
L 301.183421 352.174167 
L 301.939296 352.174167 
L 302.240924 350.646022 
L 302.391777 352.174167 
L 303.145499 352.174167 
L 303.296249 351.408998 
L 303.447319 352.174167 
L 304.206169 352.174167 
L 304.358742 351.417681 
L 304.508701 352.174167 
L 305.109947 352.174167 
L 305.26067 351.410094 
L 305.414342 352.174167 
L 306.017826 352.174167 
L 306.167839 351.406796 
L 306.317847 352.174167 
L 306.617552 352.174167 
L 306.769383 351.414448 
L 306.919719 351.406796 
L 307.070086 352.174167 
L 308.576865 352.174167 
L 308.727985 330.810751 
L 308.880225 351.418752 
L 309.031447 352.174167 
L 309.181989 352.174167 
L 309.334619 340.104635 
L 309.487125 352.174167 
L 309.638471 352.174167 
L 309.789299 342.241228 
L 309.939859 352.174167 
L 310.090375 350.641631 
L 310.241208 352.174167 
L 310.392262 306.460816 
L 310.543105 352.174167 
L 310.693695 352.174167 
L 310.844326 334.600505 
L 310.996071 352.174167 
L 311.146172 347.583156 
L 311.296179 325.316203 
L 311.44591 346.787072 
L 311.749984 309.297752 
L 311.902217 308.297996 
L 312.052799 281.879521 
L 312.655668 320.847205 
L 312.808452 328.035104 
L 312.958765 324.588524 
L 313.110356 331.632504 
L 313.260677 328.453944 
L 313.411024 335.34046 
L 313.561218 328.385685 
L 313.712715 314.894853 
L 313.867337 318.466991 
L 314.018559 299.828154 
L 314.319682 345.28765 
L 314.469759 335.292018 
L 314.620838 304.937038 
L 314.772325 314.134051 
L 314.922173 346.802574 
L 315.221802 299.0728 
L 315.521728 323.740551 
L 315.82251 270.183507 
L 316.126761 245.660765 
L 316.581196 344.587788 
L 316.731319 323.740551 
L 316.8817 281.677525 
L 317.031666 307.666684 
L 317.181714 296.843887 
L 317.332597 314.788189 
L 317.484969 307.478112 
L 317.790076 328.305191 
L 317.940375 327.723855 
L 318.092591 336.265401 
L 318.242687 352.174167 
L 318.544849 331.603159 
L 318.694845 323.781462 
L 318.845563 324.588524 
L 318.996169 313.970555 
L 319.146413 352.174167 
L 319.29762 300.365703 
L 319.449486 328.589295 
L 319.599668 329.984281 
L 319.75307 326.598761 
L 319.903758 352.174167 
L 320.054152 319.319061 
L 320.360549 333.315524 
L 320.51157 332.393307 
L 320.964162 300.291585 
L 321.114236 323.740551 
L 321.26421 305.364573 
L 321.414088 319.129694 
L 321.564105 322.246722 
L 321.715444 259.985577 
L 321.865836 283.309005 
L 322.015681 271.484175 
L 322.165443 272.137324 
L 322.464647 328.282555 
L 322.615313 338.420866 
L 322.764901 329.086616 
L 322.914548 298.225367 
L 323.069347 294.659004 
L 323.220448 345.136188 
L 323.372024 352.174167 
L 323.522018 342.198352 
L 323.671865 304.597203 
L 323.823124 332.279787 
L 323.973975 336.197318 
L 324.27466 352.174167 
L 329.273952 352.174167 
L 329.423892 351.411188 
L 329.574118 349.872056 
L 329.724315 352.174167 
L 330.629276 352.174167 
L 330.779953 349.878661 
L 330.929783 352.174167 
L 331.845995 352.174167 
L 331.996119 349.88195 
L 332.150476 352.174167 
L 332.911694 352.174167 
L 333.06726 348.460222 
L 333.217264 352.174167 
L 333.669103 352.174167 
L 333.821332 350.659046 
L 333.972323 352.174167 
L 334.42576 352.174167 
L 334.57714 351.415529 
L 334.727531 352.174167 
L 335.030205 352.174167 
L 335.180933 351.410094 
L 335.331384 351.408998 
L 335.481929 352.174167 
L 336.548217 352.174167 
L 336.704728 351.437533 
L 336.85593 352.174167 
L 338.069982 352.174167 
L 338.221269 337.677563 
L 338.37282 352.174167 
L 338.524079 352.174167 
L 338.674998 346.833313 
L 338.826849 351.414448 
L 338.978289 352.174167 
L 339.128859 349.12225 
L 339.43241 352.174167 
L 339.585973 341.672741 
L 339.738249 352.174167 
L 339.890569 337.780522 
L 340.041618 352.174167 
L 340.195554 349.177973 
L 340.347564 343.122018 
L 340.497969 331.484935 
L 340.648741 346.817987 
L 340.799079 336.082542 
L 340.951583 350.663338 
L 341.103887 315.158871 
L 341.259665 338.041494 
L 341.409582 329.284792 
L 341.559533 352.174167 
L 341.71729 321.320804 
L 341.86732 349.885229 
L 342.017409 327.618314 
L 342.16741 273.135017 
L 342.467367 257.651605 
L 342.917406 328.317031 
L 343.221283 290.724499 
L 343.371537 294.786532 
L 343.522831 286.745168 
L 343.67292 289.249795 
L 343.975283 349.12225 
L 344.125303 325.277503 
L 344.276059 330.780144 
L 344.578294 245.509683 
L 344.729327 234.843234 
L 344.880208 248.260343 
L 345.031124 311.736272 
L 345.332681 321.611277 
L 345.483554 323.903494 
L 345.635345 329.415031 
L 345.943819 281.457382 
L 346.094965 278.586294 
L 346.245925 325.469897 
L 346.39707 302.580522 
L 346.54858 328.72311 
L 346.85236 309.115558 
L 347.154742 330.079381 
L 347.305822 283.604141 
L 347.457168 308.808435 
L 347.609503 308.993232 
L 347.763616 315.522275 
L 347.919221 352.174167 
L 348.070684 310.449084 
L 348.372567 347.615855 
L 348.977808 267.604469 
L 349.129891 282.28006 
L 349.280288 320.083133 
L 349.431239 314.841597 
L 349.582049 343.0053 
L 349.733722 314.134051 
L 350.035797 328.487927 
L 350.341194 282.610373 
L 350.641921 268.650972 
L 350.792576 322.375349 
L 350.943309 326.959783 
L 351.095499 286.266424 
L 351.24708 320.936711 
L 351.552758 276.639232 
L 351.704885 293.084467 
L 351.855616 278.270917 
L 352.008854 323.468427 
L 352.159743 314.788189 
L 352.313425 352.174167 
L 352.468693 352.174167 
L 352.620273 306.720551 
L 352.922931 330.1109 
L 353.076079 348.407765 
L 353.226277 349.113493 
L 353.531322 347.698734 
L 353.686941 352.174167 
L 358.387804 352.174167 
L 358.538814 350.648208 
L 358.689725 352.174167 
L 359.746125 352.174167 
L 359.897092 350.648208 
L 360.048053 352.174167 
L 361.570961 352.174167 
L 361.72147 350.64383 
L 361.874113 352.174167 
L 362.652515 352.174167 
L 362.803195 349.885229 
L 362.95376 352.174167 
L 363.709664 352.174167 
L 363.860496 351.410094 
L 364.011436 352.174167 
L 364.616329 352.174167 
L 364.7675 350.648208 
L 364.918443 352.174167 
L 365.82543 352.174167 
L 365.977098 349.139615 
L 366.128434 352.174167 
L 367.037595 352.174167 
L 367.188354 339.184939 
L 367.338939 352.174167 
L 367.641182 352.174167 
L 367.792219 345.307354 
L 367.943891 352.174167 
L 368.095047 350.648208 
L 368.246438 351.413364 
L 368.397739 340.762132 
L 368.548984 352.174167 
L 368.700072 340.745829 
L 368.851846 351.414448 
L 369.002876 352.174167 
L 369.154328 336.174494 
L 369.304872 347.589733 
L 369.455439 323.862933 
L 369.605667 341.446417 
L 369.756912 343.805341 
L 369.908317 332.365048 
L 370.059982 352.174167 
L 370.210889 352.174167 
L 370.36186 325.508046 
L 370.512602 352.174167 
L 370.664182 346.863702 
L 370.815968 324.824299 
L 370.967307 334.650716 
L 371.118187 352.174167 
L 371.419776 333.757277 
L 371.571794 342.325883 
L 371.723044 316.467395 
L 371.873653 323.055989 
L 372.024739 343.031497 
L 372.175653 338.460162 
L 372.32604 327.618314 
L 372.476497 337.635966 
L 372.629722 337.108562 
L 372.782252 328.035104 
L 372.93501 328.035104 
L 373.087617 345.385055 
L 373.241825 321.506258 
L 373.542468 345.267833 
L 373.69275 327.653596 
L 373.844883 352.174167 
L 373.995626 336.12865 
L 374.14627 340.713083 
L 374.296422 329.952399 
L 374.447778 328.521813 
L 374.598472 302.509471 
L 374.749422 310.210314 
L 375.051113 345.307354 
L 375.201876 298.612374 
L 375.352671 327.723855 
L 375.502784 300.142711 
L 375.803987 336.12865 
L 375.954857 299.453182 
L 376.104916 313.094507 
L 376.255522 315.44608 
L 376.406038 293.256195 
L 376.557038 321.611277 
L 376.708217 321.6986 
L 376.85858 320.037091 
L 377.009157 292.491026 
L 377.159585 304.733722 
L 377.31082 298.841925 
L 377.61192 333.836433 
L 377.762281 333.810124 
L 377.913861 307.350772 
L 378.064318 329.252 
L 378.365426 297.847206 
L 378.515621 300.067953 
L 378.666123 284.742596 
L 378.819292 322.042956 
L 378.97237 311.497033 
L 379.122925 330.079381 
L 379.273599 324.588524 
L 379.42378 306.198096 
L 379.725767 335.436516 
L 379.876913 334.675714 
L 380.028037 317.889154 
L 380.180944 313.702535 
L 380.33446 331.141733 
L 380.486436 310.567453 
L 380.63687 316.976417 
L 380.789599 312.137214 
L 380.940408 314.734627 
L 381.093071 290.317818 
L 381.25027 352.174167 
L 381.56733 352.174167 
L 381.726137 259.770419 
L 381.876776 298.918005 
L 382.027034 275.547382 
L 382.177132 274.669757 
L 382.327623 323.822256 
L 382.779363 351.408998 
L 383.081461 333.940922 
L 383.236439 350.684439 
L 383.386393 342.212685 
L 383.537402 345.317164 
L 383.688528 345.297517 
L 383.992187 337.001409 
L 384.14261 348.353805 
L 384.293372 341.477155 
L 384.598001 346.84855 
L 384.750057 349.143926 
L 385.053681 328.72311 
L 385.205209 328.589295 
L 385.355514 349.875363 
L 385.658457 333.23516 
L 385.808425 352.174167 
L 385.961773 348.407765 
L 386.114357 340.104635 
L 386.264953 339.9665 
L 386.418784 352.174167 
L 386.569435 340.72948 
L 386.720206 349.885229 
L 386.871641 336.95812 
L 387.022299 352.174167 
L 387.173536 339.9665 
L 387.325836 346.130853 
L 387.476825 347.609353 
L 387.627857 337.635966 
L 387.778387 345.297517 
L 388.388793 351.423008 
L 388.539345 335.388626 
L 388.691608 352.174167 
L 388.843541 337.022962 
L 388.999429 351.433441 
L 389.301327 336.242771 
L 389.453267 352.174167 
L 389.605763 339.332125 
L 389.758985 352.174167 
L 389.910643 340.810763 
L 390.060575 352.174167 
L 390.367406 339.440345 
L 390.519834 352.174167 
L 390.823083 337.635966 
L 390.974888 352.174167 
L 391.127299 332.4776 
L 391.277709 352.174167 
L 391.428326 345.297517 
L 391.580154 345.3367 
L 391.731696 339.277323 
L 391.882701 352.174167 
L 392.033094 334.600505 
L 392.183019 348.331786 
L 392.33411 333.836433 
L 392.635427 352.174167 
L 392.788233 352.174167 
L 392.938604 340.69664 
L 393.090803 352.174167 
L 393.243335 332.533398 
L 393.39542 338.518685 
L 393.545622 352.174167 
L 393.696014 349.875363 
L 393.847786 333.966858 
L 394.000723 352.174167 
L 394.151576 343.018417 
L 394.302766 349.12225 
L 394.453859 335.436516 
L 394.604537 345.28765 
L 394.756686 338.518685 
L 394.907137 352.174167 
L 395.057583 342.978953 
L 395.21549 348.511238 
L 395.369825 347.704984 
L 395.522097 337.087252 
L 395.673046 352.174167 
L 395.824905 352.174167 
L 395.976081 328.589295 
L 396.12968 335.695103 
L 396.281074 352.174167 
L 396.432034 343.0053 
L 396.586137 345.432732 
L 396.737861 343.841004 
L 396.889635 352.174167 
L 397.194422 341.598368 
L 397.345371 352.174167 
L 397.49564 341.430981 
L 397.646524 344.544375 
L 397.800385 352.174167 
L 397.951759 352.174167 
L 398.109491 348.5062 
L 398.564402 352.174167 
L 398.719108 349.942692 
L 398.871009 352.174167 
L 399.023824 351.418752 
L 399.176505 352.174167 
L 399.328463 352.174167 
L 399.480898 349.90471 
L 399.632944 352.174167 
L 399.785016 352.174167 
L 399.937236 349.143926 
L 400.091127 352.174167 
L 400.247478 309.540549 
L 400.398837 352.174167 
L 403.422479 352.174167 
L 403.573126 351.410094 
L 403.723992 352.174167 
L 404.477914 352.174167 
L 404.627882 350.637214 
L 404.778977 352.174167 
L 405.236249 352.174167 
L 405.387054 350.661195 
L 405.537588 352.174167 
L 406.442072 352.174167 
L 406.592487 351.410094 
L 406.742509 352.174167 
L 407.345329 352.174167 
L 407.495252 350.641631 
L 407.645262 352.174167 
L 408.244756 352.174167 
L 408.394924 351.406796 
L 408.54497 352.174167 
L 409.148918 352.174167 
L 409.301084 349.895011 
L 409.45094 352.174167 
L 410.503692 352.174167 
L 410.654558 343.769372 
L 410.804804 352.174167 
L 411.106235 352.174167 
L 411.258017 348.370155 
L 411.410256 352.174167 
L 411.717195 347.667217 
L 411.867443 352.174167 
L 412.017579 352.174167 
L 412.16974 343.841004 
L 412.32227 352.174167 
L 412.473494 346.079053 
L 412.623659 352.174167 
L 412.773523 339.110073 
L 412.923404 352.174167 
L 413.073762 338.381345 
L 413.224748 352.174167 
L 413.524847 342.965722 
L 413.674709 352.174167 
L 413.824429 338.321636 
L 413.975558 352.174167 
L 414.125589 345.267833 
L 414.275527 352.174167 
L 414.426699 332.308289 
L 414.576837 352.174167 
L 414.877712 352.174167 
L 415.028813 301.745399 
L 415.179644 301.273024 
L 415.330236 305.431828 
L 415.480284 346.810292 
L 415.630033 326.814455 
L 415.780287 331.425312 
L 415.932389 332.4776 
L 416.234103 301.673048 
L 416.38464 297.847206 
L 416.534627 317.692114 
L 416.684517 300.686267 
L 416.835728 325.508046 
L 416.986928 316.262772 
L 417.137425 323.097765 
L 417.288052 287.134847 
L 417.58931 337.635966 
L 417.88958 319.224649 
L 418.040175 352.174167 
L 418.342913 310.914266 
L 418.49347 316.262772 
L 418.645344 343.817263 
L 418.94639 310.029435 
L 419.396023 299.917791 
L 419.546006 335.267692 
L 419.698176 338.499233 
L 419.848522 348.353805 
L 419.998588 307.602552 
L 420.149263 300.217255 
L 420.299934 328.453944 
L 420.450808 333.126937 
L 420.600462 315.234086 
L 420.750257 340.630391 
L 421.202716 302.15114 
L 421.352461 344.489406 
L 421.504044 315.603486 
L 421.653895 352.174167 
L 421.803764 318.361218 
L 421.953744 320.666646 
L 422.104006 328.385685 
L 422.254418 342.978953 
L 422.404261 309.968795 
L 422.553955 352.174167 
L 422.703786 316.05579 
L 422.85341 316.05579 
L 423.003938 303.133025 
L 423.303578 348.331786 
L 423.453291 320.621181 
L 423.603111 325.277503 
L 423.75287 345.247901 
L 423.902617 336.782466 
L 424.052511 343.720929 
L 424.202221 345.257882 
L 424.504494 331.484935 
L 424.654332 351.404582 
L 424.804256 339.110073 
L 424.954069 339.878549 
L 425.104385 329.920425 
L 425.255059 338.440542 
L 425.405203 333.704126 
L 425.556982 312.724998 
L 425.711548 334.970218 
L 425.862383 338.499233 
L 426.014772 331.690944 
L 426.166031 314.947958 
L 426.473446 328.103197 
L 426.624317 323.180959 
L 426.775751 322.502877 
L 426.927659 352.174167 
L 427.079024 352.174167 
L 427.230741 341.553237 
L 427.380828 229.394904 
L 427.531188 241.065329 
L 427.682691 261.638692 
L 427.833422 352.174167 
L 427.984541 337.656794 
L 428.135775 350.652562 
L 428.289099 328.921009 
L 428.439986 347.583156 
L 428.591403 330.871702 
L 428.742357 339.9665 
L 428.893771 333.154109 
L 429.044881 352.174167 
L 429.196272 326.269935 
L 429.347055 339.949011 
L 429.497826 336.151605 
L 429.649157 344.544375 
L 429.800619 334.675714 
L 429.951983 352.174167 
L 430.103093 336.914584 
L 430.253693 350.646022 
L 430.404776 334.625646 
L 430.555886 331.603159 
L 430.706886 352.174167 
L 430.858757 329.350097 
L 431.010157 351.414448 
L 431.161456 336.936383 
L 431.311667 346.810292 
L 431.613191 329.984281 
L 431.76459 335.388626 
L 431.916217 330.142329 
L 432.067078 349.117878 
L 432.217483 323.862933 
L 432.519103 328.487927 
L 432.674294 337.29767 
L 432.831022 333.783738 
L 433.143151 313.922076 
L 433.29974 324.956333 
L 433.456214 344.082378 
L 433.61199 340.338995 
L 433.768498 340.404293 
L 433.92496 350.7009 
L 434.077828 331.892892 
L 434.229649 340.778388 
L 434.381252 324.824299 
L 434.532067 343.018417 
L 434.683933 344.576981 
L 434.987938 327.139117 
L 435.139333 352.174167 
L 435.290753 312.55593 
L 435.442387 320.311376 
L 435.598003 340.306074 
L 435.753732 329.952399 
L 435.904658 330.871702 
L 436.055901 344.566144 
L 436.207072 323.222378 
L 436.357904 344.544375 
L 436.510955 326.526412 
L 436.663789 323.549517 
L 436.816851 331.8356 
L 436.970143 321.333237 
L 437.27395 352.174167 
L 437.576617 333.914911 
L 437.727572 350.648208 
L 437.87868 332.336709 
L 438.02996 342.269607 
L 438.181043 340.745829 
L 438.483816 331.603159 
L 438.784766 336.84881 
L 438.936273 341.507718 
L 439.087675 329.38261 
L 439.238649 328.521813 
L 439.389296 339.184939 
L 439.540489 341.492459 
L 439.691738 341.507718 
L 439.847475 326.954469 
L 440.001886 349.194712 
L 440.152569 327.793713 
L 440.303286 324.588524 
L 440.605843 338.479725 
L 440.756797 342.255438 
L 440.907983 327.758834 
L 441.058924 352.174167 
L 441.209313 334.74015 
L 441.360976 352.174167 
L 441.513442 352.174167 
L 441.664325 309.508373 
L 441.967526 343.82915 
L 442.119658 343.096338 
L 442.421483 347.609353 
L 442.574027 352.174167 
L 446.83034 352.174167 
L 446.981312 351.412277 
L 447.132023 348.348324 
L 447.283573 352.174167 
L 448.802421 352.174167 
L 448.953024 351.408998 
L 449.107303 351.425118 
L 449.26018 352.174167 
L 450.014245 352.174167 
L 450.315674 350.646022 
L 450.465818 352.174167 
L 450.922671 352.174167 
L 451.074857 350.661195 
L 451.226354 352.174167 
L 451.995253 352.174167 
L 452.147449 351.417681 
L 452.299746 352.174167 
L 453.059903 352.174167 
L 453.210613 349.88195 
L 453.361782 352.174167 
L 454.72482 352.174167 
L 454.877904 349.907924 
L 455.028803 352.174167 
L 456.089984 352.174167 
L 456.240445 328.453944 
L 456.39045 352.174167 
L 456.541037 352.174167 
L 456.696189 344.735918 
L 456.848147 352.174167 
L 457.149738 352.174167 
L 457.302048 349.148224 
L 457.457025 341.716864 
L 457.608274 352.174167 
L 457.910909 336.936383 
L 458.063012 352.174167 
L 458.214524 346.079053 
L 458.367453 331.864286 
L 458.67274 352.174167 
L 458.824764 327.280758 
L 458.977815 346.139401 
L 459.280468 340.01867 
L 459.431755 335.412605 
L 459.585331 338.634246 
L 459.739771 328.305191 
L 459.893724 327.49024 
L 460.047789 334.272435 
L 460.200462 352.174167 
L 460.350774 339.913881 
L 460.651657 303.829832 
L 460.801489 325.238691 
L 460.951723 325.354792 
L 461.101542 306.834076 
L 461.251699 308.434055 
L 461.401591 343.708731 
L 461.555594 301.846558 
L 461.70539 317.026844 
L 461.856566 318.554988 
L 462.00714 318.554988 
L 462.158717 322.545143 
L 462.308574 322.972074 
L 462.458605 348.331786 
L 462.608935 300.067953 
L 462.758869 299.99298 
L 462.910181 308.746484 
L 463.060468 282.343461 
L 463.361716 291.551906 
L 463.515169 285.508864 
L 463.667284 302.104067 
L 463.818443 300.365703 
L 463.968578 233.999127 
L 464.118752 234.168919 
L 464.268909 218.077294 
L 464.420373 263.033134 
L 464.570603 265.5859 
L 464.720405 302.295091 
L 464.870031 289.068195 
L 465.019665 327.547446 
L 465.169366 305.22948 
L 465.318995 320.621181 
L 465.468897 309.139505 
L 465.618686 277.52442 
L 465.777004 307.486436 
L 465.93005 312.474604 
L 466.081168 346.84855 
L 466.231063 313.750361 
L 466.380793 311.678338 
L 466.531133 335.316274 
L 466.680626 338.301618 
L 466.83115 303.899292 
L 466.982257 302.651371 
L 467.133173 291.135835 
L 467.283788 314.680912 
L 467.433519 313.750361 
L 467.583278 329.119883 
L 467.882463 319.03419 
L 468.032085 292.91612 
L 468.181709 336.782466 
L 468.331605 308.371028 
L 468.481278 255.976039 
L 468.634374 257.880952 
L 468.786531 262.782056 
L 468.941189 278.122386 
L 469.241254 325.316203 
L 469.391654 329.153055 
L 469.692195 277.295088 
L 469.842705 290.872739 
L 469.992905 290.195521 
L 470.143692 274.892152 
L 470.445313 352.174167 
L 470.596436 352.174167 
L 470.747521 285.889809 
L 470.898604 316.365376 
L 471.049834 317.127265 
L 471.201093 339.222051 
L 471.654009 352.174167 
L 471.805654 350.652562 
L 471.957071 347.615855 
L 472.108774 352.174167 
L 474.076986 352.174167 
L 474.227523 350.641631 
L 474.37823 352.174167 
L 475.278327 352.174167 
L 475.428878 349.878661 
L 475.580326 352.174167 
L 476.181268 352.174167 
L 476.331102 351.406796 
L 476.481354 349.095827 
L 476.634222 352.174167 
L 477.393637 352.174167 
L 477.544463 350.64383 
L 477.694338 352.174167 
L 478.295796 352.174167 
L 478.445868 351.407899 
L 478.596849 352.174167 
L 478.74738 351.408998 
L 478.900919 352.174167 
L 479.513768 352.174167 
L 479.672781 351.447569 
L 479.829996 352.174167 
L 480.28483 352.174167 
L 480.436321 351.414448 
L 480.588689 352.174167 
L 481.35152 352.174167 
L 481.503301 349.143926 
L 481.65346 352.174167 
L 482.408576 352.174167 
L 482.559561 350.648208 
L 482.710289 352.174167 
L 483.773238 352.174167 
L 483.926915 350.678171 
L 484.077618 352.174167 
L 484.378682 352.174167 
L 484.529885 349.885229 
L 484.680874 352.174167 
L 485.13148 352.174167 
L 485.282643 322.460489 
L 485.434215 352.174167 
L 485.584022 352.174167 
L 485.73965 346.967393 
L 485.889767 352.174167 
L 486.039587 352.174167 
L 486.189621 350.639426 
L 486.340802 352.174167 
L 486.490967 345.267833 
L 486.641168 352.174167 
L 486.791148 347.569944 
L 486.940776 352.174167 
L 487.09384 352.174167 
L 487.245322 342.283737 
L 487.395975 352.174167 
L 487.547529 344.587788 
L 487.697541 352.174167 
L 487.847661 352.174167 
L 487.998242 349.113493 
L 488.150124 352.174167 
L 488.451981 343.757314 
L 488.605246 343.888084 
L 488.75644 345.326946 
L 488.908963 349.90471 
L 489.060545 342.325883 
L 489.211682 352.174167 
L 489.363101 352.174167 
L 489.513394 342.226977 
L 489.663517 341.430981 
L 489.967065 347.628805 
L 490.119201 328.689799 
L 490.274112 326.140297 
L 490.426475 343.109196 
L 490.578335 340.053203 
L 490.728467 329.888359 
L 490.878344 331.425312 
L 491.028761 337.615078 
L 491.180149 351.413364 
L 491.331016 336.914584 
L 491.483545 337.044453 
L 491.635637 344.598564 
L 491.940167 337.902158 
L 492.091774 352.174167 
L 492.244688 330.298141 
L 492.39507 331.514618 
L 492.698459 352.174167 
L 492.850857 348.391738 
L 493.003211 340.08754 
L 493.154322 352.174167 
L 493.304923 348.348324 
L 493.456679 337.698272 
L 493.60954 352.174167 
L 493.761298 342.311874 
L 493.911444 341.461808 
L 494.063025 350.652562 
L 494.213345 332.222537 
L 494.364163 334.600505 
L 494.515051 352.174167 
L 494.815619 339.931471 
L 494.966311 342.992145 
L 495.117282 333.836433 
L 495.267233 352.174167 
L 495.420691 340.8909 
L 495.571009 352.174167 
L 495.571009 352.174167 
" style="fill:none;stroke:#1f77b4;stroke-linecap:square;stroke-width:1.5;"/>
   </g>
   <g id="patch_3">
    <path d="M 66.158594 352.174167 
L 66.158594 35.0625 
" style="fill:none;stroke:#000000;stroke-linecap:square;stroke-linejoin:miter;stroke-width:0.8;"/>
   </g>
   <g id="patch_4">
    <path d="M 516.019219 352.174167 
L 516.019219 35.0625 
" style="fill:none;stroke:#000000;stroke-linecap:square;stroke-linejoin:miter;stroke-width:0.8;"/>
   </g>
   <g id="patch_5">
    <path d="M 66.158594 352.174167 
L 516.019219 352.174167 
" style="fill:none;stroke:#000000;stroke-linecap:square;stroke-linejoin:miter;stroke-width:0.8;"/>
   </g>
   <g id="patch_6">
    <path d="M 66.158594 35.0625 
L 516.019219 35.0625 
" style="fill:none;stroke:#000000;stroke-linecap:square;stroke-linejoin:miter;stroke-width:0.8;"/>
   </g>
   <g id="legend_1">
    <g id="patch_7">
     <path d="M 540.51225 53.01875 
L 620.748187 53.01875 
Q 622.748187 53.01875 622.748187 51.01875 
L 622.748187 37.0625 
Q 622.748187 35.0625 620.748187 35.0625 
L 540.51225 35.0625 
Q 538.51225 35.0625 538.51225 37.0625 
L 538.51225 51.01875 
Q 538.51225 53.01875 540.51225 53.01875 
z
" style="fill:#ffffff;opacity:0.8;stroke:#cccccc;stroke-linejoin:miter;"/>
    </g>
    <g id="line2d_14">
     <path d="M 542.51225 43.160937 
L 562.51225 43.160937 
" style="fill:none;stroke:#1f77b4;stroke-linecap:square;stroke-width:1.5;"/>
    </g>
    <g id="line2d_15"/>
    <g id="text_14">
     <!-- drop_rate -->
     <defs>
      <path d="M 50.984375 -16.609375 
L 50.984375 -23.578125 
L -0.984375 -23.578125 
L -0.984375 -16.609375 
z
" id="DejaVuSans-95"/>
     </defs>
     <g transform="translate(570.51225 46.660937)scale(0.1 -0.1)">
      <use xlink:href="#DejaVuSans-100"/>
      <use x="63.476562" xlink:href="#DejaVuSans-114"/>
      <use x="104.558594" xlink:href="#DejaVuSans-111"/>
      <use x="165.740234" xlink:href="#DejaVuSans-112"/>
      <use x="229.216797" xlink:href="#DejaVuSans-95"/>
      <use x="279.216797" xlink:href="#DejaVuSans-114"/>
      <use x="320.330078" xlink:href="#DejaVuSans-97"/>
      <use x="381.609375" xlink:href="#DejaVuSans-116"/>
      <use x="420.818359" xlink:href="#DejaVuSans-101"/>
     </g>
    </g>
   </g>
  </g>
  <g id="text_15">
   <!-- result droprate -->
   <defs>
    <path d="M 44.28125 53.078125 
L 44.28125 44.578125 
Q 40.484375 46.53125 36.375 47.5 
Q 32.28125 48.484375 27.875 48.484375 
Q 21.1875 48.484375 17.84375 46.4375 
Q 14.5 44.390625 14.5 40.28125 
Q 14.5 37.15625 16.890625 35.375 
Q 19.28125 33.59375 26.515625 31.984375 
L 29.59375 31.296875 
Q 39.15625 29.25 43.1875 25.515625 
Q 47.21875 21.78125 47.21875 15.09375 
Q 47.21875 7.46875 41.1875 3.015625 
Q 35.15625 -1.421875 24.609375 -1.421875 
Q 20.21875 -1.421875 15.453125 -0.5625 
Q 10.6875 0.296875 5.421875 2 
L 5.421875 11.28125 
Q 10.40625 8.6875 15.234375 7.390625 
Q 20.0625 6.109375 24.8125 6.109375 
Q 31.15625 6.109375 34.5625 8.28125 
Q 37.984375 10.453125 37.984375 14.40625 
Q 37.984375 18.0625 35.515625 20.015625 
Q 33.0625 21.96875 24.703125 23.78125 
L 21.578125 24.515625 
Q 13.234375 26.265625 9.515625 29.90625 
Q 5.8125 33.546875 5.8125 39.890625 
Q 5.8125 47.609375 11.28125 51.796875 
Q 16.75 56 26.8125 56 
Q 31.78125 56 36.171875 55.265625 
Q 40.578125 54.546875 44.28125 53.078125 
z
" id="DejaVuSans-115"/>
    <path d="M 8.5 21.578125 
L 8.5 54.6875 
L 17.484375 54.6875 
L 17.484375 21.921875 
Q 17.484375 14.15625 20.5 10.265625 
Q 23.53125 6.390625 29.59375 6.390625 
Q 36.859375 6.390625 41.078125 11.03125 
Q 45.3125 15.671875 45.3125 23.6875 
L 45.3125 54.6875 
L 54.296875 54.6875 
L 54.296875 0 
L 45.3125 0 
L 45.3125 8.40625 
Q 42.046875 3.421875 37.71875 1 
Q 33.40625 -1.421875 27.6875 -1.421875 
Q 18.265625 -1.421875 13.375 4.4375 
Q 8.5 10.296875 8.5 21.578125 
z
M 31.109375 56 
z
" id="DejaVuSans-117"/>
    <path d="M 9.421875 75.984375 
L 18.40625 75.984375 
L 18.40625 0 
L 9.421875 0 
z
" id="DejaVuSans-108"/>
    <path id="DejaVuSans-32"/>
   </defs>
   <g transform="translate(297.047813 17.038125)scale(0.12 -0.12)">
    <use xlink:href="#DejaVuSans-114"/>
    <use x="41.082031" xlink:href="#DejaVuSans-101"/>
    <use x="102.605469" xlink:href="#DejaVuSans-115"/>
    <use x="154.705078" xlink:href="#DejaVuSans-117"/>
    <use x="218.083984" xlink:href="#DejaVuSans-108"/>
    <use x="245.867188" xlink:href="#DejaVuSans-116"/>
    <use x="285.076172" xlink:href="#DejaVuSans-32"/>
    <use x="316.863281" xlink:href="#DejaVuSans-100"/>
    <use x="380.339844" xlink:href="#DejaVuSans-114"/>
    <use x="421.421875" xlink:href="#DejaVuSans-111"/>
    <use x="482.603516" xlink:href="#DejaVuSans-112"/>
    <use x="546.080078" xlink:href="#DejaVuSans-114"/>
    <use x="587.193359" xlink:href="#DejaVuSans-97"/>
    <use x="648.472656" xlink:href="#DejaVuSans-116"/>
    <use x="687.681641" xlink:href="#DejaVuSans-101"/>
   </g>
  </g>
 </g>
 <defs>
  <clipPath id="pb3c54fc0b4">
   <rect height="317.111667" width="449.860625" x="66.158594" y="35.0625"/>
  </clipPath>
 </defs>
</svg>
