<?xml version="1.0" encoding="utf-8" standalone="no"?>
<!DOCTYPE svg PUBLIC "-//W3C//DTD SVG 1.1//EN"
  "http://www.w3.org/Graphics/SVG/1.1/DTD/svg11.dtd">
<!-- Created with matplotlib (https://matplotlib.org/) -->
<svg height="396pt" version="1.1" viewBox="0 0 684 396" width="684pt" xmlns="http://www.w3.org/2000/svg" xmlns:xlink="http://www.w3.org/1999/xlink">
 <defs>
  <style type="text/css">
*{stroke-linecap:butt;stroke-linejoin:round;}
  </style>
 </defs>
 <g id="figure_1">
  <g id="patch_1">
   <path d="M 0 396 
L 684 396 
L 684 0 
L 0 0 
z
" style="fill:#ffffff;"/>
  </g>
  <g id="axes_1">
   <g id="patch_2">
    <path d="M 66.158594 352.174167 
L 516.019219 352.174167 
L 516.019219 35.0625 
L 66.158594 35.0625 
z
" style="fill:#ffffff;"/>
   </g>
   <g id="matplotlib.axis_1">
    <g id="xtick_1">
     <g id="line2d_1">
      <defs>
       <path d="M 0 0 
L 0 3.5 
" id="m1a079de882" style="stroke:#000000;stroke-width:0.8;"/>
      </defs>
      <g>
       <use style="stroke:#000000;stroke-width:0.8;" x="92.075459" xlink:href="#m1a079de882" y="352.174167"/>
      </g>
     </g>
     <g id="text_1">
      <!-- 0 -->
      <defs>
       <path d="M 31.78125 66.40625 
Q 24.171875 66.40625 20.328125 58.90625 
Q 16.5 51.421875 16.5 36.375 
Q 16.5 21.390625 20.328125 13.890625 
Q 24.171875 6.390625 31.78125 6.390625 
Q 39.453125 6.390625 43.28125 13.890625 
Q 47.125 21.390625 47.125 36.375 
Q 47.125 51.421875 43.28125 58.90625 
Q 39.453125 66.40625 31.78125 66.40625 
z
M 31.78125 74.21875 
Q 44.046875 74.21875 50.515625 64.515625 
Q 56.984375 54.828125 56.984375 36.375 
Q 56.984375 17.96875 50.515625 8.265625 
Q 44.046875 -1.421875 31.78125 -1.421875 
Q 19.53125 -1.421875 13.0625 8.265625 
Q 6.59375 17.96875 6.59375 36.375 
Q 6.59375 54.828125 13.0625 64.515625 
Q 19.53125 74.21875 31.78125 74.21875 
z
" id="DejaVuSans-48"/>
      </defs>
      <g transform="translate(88.894209 366.772604)scale(0.1 -0.1)">
       <use xlink:href="#DejaVuSans-48"/>
      </g>
     </g>
    </g>
    <g id="xtick_2">
     <g id="line2d_2">
      <g>
       <use style="stroke:#000000;stroke-width:0.8;" x="163.801099" xlink:href="#m1a079de882" y="352.174167"/>
      </g>
     </g>
     <g id="text_2">
      <!-- 50 -->
      <defs>
       <path d="M 10.796875 72.90625 
L 49.515625 72.90625 
L 49.515625 64.59375 
L 19.828125 64.59375 
L 19.828125 46.734375 
Q 21.96875 47.46875 24.109375 47.828125 
Q 26.265625 48.1875 28.421875 48.1875 
Q 40.625 48.1875 47.75 41.5 
Q 54.890625 34.8125 54.890625 23.390625 
Q 54.890625 11.625 47.5625 5.09375 
Q 40.234375 -1.421875 26.90625 -1.421875 
Q 22.3125 -1.421875 17.546875 -0.640625 
Q 12.796875 0.140625 7.71875 1.703125 
L 7.71875 11.625 
Q 12.109375 9.234375 16.796875 8.0625 
Q 21.484375 6.890625 26.703125 6.890625 
Q 35.15625 6.890625 40.078125 11.328125 
Q 45.015625 15.765625 45.015625 23.390625 
Q 45.015625 31 40.078125 35.4375 
Q 35.15625 39.890625 26.703125 39.890625 
Q 22.75 39.890625 18.8125 39.015625 
Q 14.890625 38.140625 10.796875 36.28125 
z
" id="DejaVuSans-53"/>
      </defs>
      <g transform="translate(157.438599 366.772604)scale(0.1 -0.1)">
       <use xlink:href="#DejaVuSans-53"/>
       <use x="63.623047" xlink:href="#DejaVuSans-48"/>
      </g>
     </g>
    </g>
    <g id="xtick_3">
     <g id="line2d_3">
      <g>
       <use style="stroke:#000000;stroke-width:0.8;" x="235.526739" xlink:href="#m1a079de882" y="352.174167"/>
      </g>
     </g>
     <g id="text_3">
      <!-- 100 -->
      <defs>
       <path d="M 12.40625 8.296875 
L 28.515625 8.296875 
L 28.515625 63.921875 
L 10.984375 60.40625 
L 10.984375 69.390625 
L 28.421875 72.90625 
L 38.28125 72.90625 
L 38.28125 8.296875 
L 54.390625 8.296875 
L 54.390625 0 
L 12.40625 0 
z
" id="DejaVuSans-49"/>
      </defs>
      <g transform="translate(225.982989 366.772604)scale(0.1 -0.1)">
       <use xlink:href="#DejaVuSans-49"/>
       <use x="63.623047" xlink:href="#DejaVuSans-48"/>
       <use x="127.246094" xlink:href="#DejaVuSans-48"/>
      </g>
     </g>
    </g>
    <g id="xtick_4">
     <g id="line2d_4">
      <g>
       <use style="stroke:#000000;stroke-width:0.8;" x="307.252379" xlink:href="#m1a079de882" y="352.174167"/>
      </g>
     </g>
     <g id="text_4">
      <!-- 150 -->
      <g transform="translate(297.708629 366.772604)scale(0.1 -0.1)">
       <use xlink:href="#DejaVuSans-49"/>
       <use x="63.623047" xlink:href="#DejaVuSans-53"/>
       <use x="127.246094" xlink:href="#DejaVuSans-48"/>
      </g>
     </g>
    </g>
    <g id="xtick_5">
     <g id="line2d_5">
      <g>
       <use style="stroke:#000000;stroke-width:0.8;" x="378.97802" xlink:href="#m1a079de882" y="352.174167"/>
      </g>
     </g>
     <g id="text_5">
      <!-- 200 -->
      <defs>
       <path d="M 19.1875 8.296875 
L 53.609375 8.296875 
L 53.609375 0 
L 7.328125 0 
L 7.328125 8.296875 
Q 12.9375 14.109375 22.625 23.890625 
Q 32.328125 33.6875 34.8125 36.53125 
Q 39.546875 41.84375 41.421875 45.53125 
Q 43.3125 49.21875 43.3125 52.78125 
Q 43.3125 58.59375 39.234375 62.25 
Q 35.15625 65.921875 28.609375 65.921875 
Q 23.96875 65.921875 18.8125 64.3125 
Q 13.671875 62.703125 7.8125 59.421875 
L 7.8125 69.390625 
Q 13.765625 71.78125 18.9375 73 
Q 24.125 74.21875 28.421875 74.21875 
Q 39.75 74.21875 46.484375 68.546875 
Q 53.21875 62.890625 53.21875 53.421875 
Q 53.21875 48.921875 51.53125 44.890625 
Q 49.859375 40.875 45.40625 35.40625 
Q 44.1875 33.984375 37.640625 27.21875 
Q 31.109375 20.453125 19.1875 8.296875 
z
" id="DejaVuSans-50"/>
      </defs>
      <g transform="translate(369.43427 366.772604)scale(0.1 -0.1)">
       <use xlink:href="#DejaVuSans-50"/>
       <use x="63.623047" xlink:href="#DejaVuSans-48"/>
       <use x="127.246094" xlink:href="#DejaVuSans-48"/>
      </g>
     </g>
    </g>
    <g id="xtick_6">
     <g id="line2d_6">
      <g>
       <use style="stroke:#000000;stroke-width:0.8;" x="450.70366" xlink:href="#m1a079de882" y="352.174167"/>
      </g>
     </g>
     <g id="text_6">
      <!-- 250 -->
      <g transform="translate(441.15991 366.772604)scale(0.1 -0.1)">
       <use xlink:href="#DejaVuSans-50"/>
       <use x="63.623047" xlink:href="#DejaVuSans-53"/>
       <use x="127.246094" xlink:href="#DejaVuSans-48"/>
      </g>
     </g>
    </g>
   </g>
   <g id="matplotlib.axis_2">
    <g id="ytick_1">
     <g id="line2d_7">
      <defs>
       <path d="M 0 0 
L -3.5 0 
" id="m0573a70d74" style="stroke:#000000;stroke-width:0.8;"/>
      </defs>
      <g>
       <use style="stroke:#000000;stroke-width:0.8;" x="66.158594" xlink:href="#m0573a70d74" y="352.174167"/>
      </g>
     </g>
     <g id="text_7">
      <!-- 0 -->
      <g transform="translate(52.796094 355.973385)scale(0.1 -0.1)">
       <use xlink:href="#DejaVuSans-48"/>
      </g>
     </g>
    </g>
    <g id="ytick_2">
     <g id="line2d_8">
      <g>
       <use style="stroke:#000000;stroke-width:0.8;" x="66.158594" xlink:href="#m0573a70d74" y="287.912573"/>
      </g>
     </g>
     <g id="text_8">
      <!-- 20 -->
      <g transform="translate(46.433594 291.711792)scale(0.1 -0.1)">
       <use xlink:href="#DejaVuSans-50"/>
       <use x="63.623047" xlink:href="#DejaVuSans-48"/>
      </g>
     </g>
    </g>
    <g id="ytick_3">
     <g id="line2d_9">
      <g>
       <use style="stroke:#000000;stroke-width:0.8;" x="66.158594" xlink:href="#m0573a70d74" y="223.65098"/>
      </g>
     </g>
     <g id="text_9">
      <!-- 40 -->
      <defs>
       <path d="M 37.796875 64.3125 
L 12.890625 25.390625 
L 37.796875 25.390625 
z
M 35.203125 72.90625 
L 47.609375 72.90625 
L 47.609375 25.390625 
L 58.015625 25.390625 
L 58.015625 17.1875 
L 47.609375 17.1875 
L 47.609375 0 
L 37.796875 0 
L 37.796875 17.1875 
L 4.890625 17.1875 
L 4.890625 26.703125 
z
" id="DejaVuSans-52"/>
      </defs>
      <g transform="translate(46.433594 227.450199)scale(0.1 -0.1)">
       <use xlink:href="#DejaVuSans-52"/>
       <use x="63.623047" xlink:href="#DejaVuSans-48"/>
      </g>
     </g>
    </g>
    <g id="ytick_4">
     <g id="line2d_10">
      <g>
       <use style="stroke:#000000;stroke-width:0.8;" x="66.158594" xlink:href="#m0573a70d74" y="159.389386"/>
      </g>
     </g>
     <g id="text_10">
      <!-- 60 -->
      <defs>
       <path d="M 33.015625 40.375 
Q 26.375 40.375 22.484375 35.828125 
Q 18.609375 31.296875 18.609375 23.390625 
Q 18.609375 15.53125 22.484375 10.953125 
Q 26.375 6.390625 33.015625 6.390625 
Q 39.65625 6.390625 43.53125 10.953125 
Q 47.40625 15.53125 47.40625 23.390625 
Q 47.40625 31.296875 43.53125 35.828125 
Q 39.65625 40.375 33.015625 40.375 
z
M 52.59375 71.296875 
L 52.59375 62.3125 
Q 48.875 64.0625 45.09375 64.984375 
Q 41.3125 65.921875 37.59375 65.921875 
Q 27.828125 65.921875 22.671875 59.328125 
Q 17.53125 52.734375 16.796875 39.40625 
Q 19.671875 43.65625 24.015625 45.921875 
Q 28.375 48.1875 33.59375 48.1875 
Q 44.578125 48.1875 50.953125 41.515625 
Q 57.328125 34.859375 57.328125 23.390625 
Q 57.328125 12.15625 50.6875 5.359375 
Q 44.046875 -1.421875 33.015625 -1.421875 
Q 20.359375 -1.421875 13.671875 8.265625 
Q 6.984375 17.96875 6.984375 36.375 
Q 6.984375 53.65625 15.1875 63.9375 
Q 23.390625 74.21875 37.203125 74.21875 
Q 40.921875 74.21875 44.703125 73.484375 
Q 48.484375 72.75 52.59375 71.296875 
z
" id="DejaVuSans-54"/>
      </defs>
      <g transform="translate(46.433594 163.188605)scale(0.1 -0.1)">
       <use xlink:href="#DejaVuSans-54"/>
       <use x="63.623047" xlink:href="#DejaVuSans-48"/>
      </g>
     </g>
    </g>
    <g id="ytick_5">
     <g id="line2d_11">
      <g>
       <use style="stroke:#000000;stroke-width:0.8;" x="66.158594" xlink:href="#m0573a70d74" y="95.127793"/>
      </g>
     </g>
     <g id="text_11">
      <!-- 80 -->
      <defs>
       <path d="M 31.78125 34.625 
Q 24.75 34.625 20.71875 30.859375 
Q 16.703125 27.09375 16.703125 20.515625 
Q 16.703125 13.921875 20.71875 10.15625 
Q 24.75 6.390625 31.78125 6.390625 
Q 38.8125 6.390625 42.859375 10.171875 
Q 46.921875 13.96875 46.921875 20.515625 
Q 46.921875 27.09375 42.890625 30.859375 
Q 38.875 34.625 31.78125 34.625 
z
M 21.921875 38.8125 
Q 15.578125 40.375 12.03125 44.71875 
Q 8.5 49.078125 8.5 55.328125 
Q 8.5 64.0625 14.71875 69.140625 
Q 20.953125 74.21875 31.78125 74.21875 
Q 42.671875 74.21875 48.875 69.140625 
Q 55.078125 64.0625 55.078125 55.328125 
Q 55.078125 49.078125 51.53125 44.71875 
Q 48 40.375 41.703125 38.8125 
Q 48.828125 37.15625 52.796875 32.3125 
Q 56.78125 27.484375 56.78125 20.515625 
Q 56.78125 9.90625 50.3125 4.234375 
Q 43.84375 -1.421875 31.78125 -1.421875 
Q 19.734375 -1.421875 13.25 4.234375 
Q 6.78125 9.90625 6.78125 20.515625 
Q 6.78125 27.484375 10.78125 32.3125 
Q 14.796875 37.15625 21.921875 38.8125 
z
M 18.3125 54.390625 
Q 18.3125 48.734375 21.84375 45.5625 
Q 25.390625 42.390625 31.78125 42.390625 
Q 38.140625 42.390625 41.71875 45.5625 
Q 45.3125 48.734375 45.3125 54.390625 
Q 45.3125 60.0625 41.71875 63.234375 
Q 38.140625 66.40625 31.78125 66.40625 
Q 25.390625 66.40625 21.84375 63.234375 
Q 18.3125 60.0625 18.3125 54.390625 
z
" id="DejaVuSans-56"/>
      </defs>
      <g transform="translate(46.433594 98.927012)scale(0.1 -0.1)">
       <use xlink:href="#DejaVuSans-56"/>
       <use x="63.623047" xlink:href="#DejaVuSans-48"/>
      </g>
     </g>
    </g>
    <g id="text_12">
     <!-- droprate -->
     <defs>
      <path d="M 45.40625 46.390625 
L 45.40625 75.984375 
L 54.390625 75.984375 
L 54.390625 0 
L 45.40625 0 
L 45.40625 8.203125 
Q 42.578125 3.328125 38.25 0.953125 
Q 33.9375 -1.421875 27.875 -1.421875 
Q 17.96875 -1.421875 11.734375 6.484375 
Q 5.515625 14.40625 5.515625 27.296875 
Q 5.515625 40.1875 11.734375 48.09375 
Q 17.96875 56 27.875 56 
Q 33.9375 56 38.25 53.625 
Q 42.578125 51.265625 45.40625 46.390625 
z
M 14.796875 27.296875 
Q 14.796875 17.390625 18.875 11.75 
Q 22.953125 6.109375 30.078125 6.109375 
Q 37.203125 6.109375 41.296875 11.75 
Q 45.40625 17.390625 45.40625 27.296875 
Q 45.40625 37.203125 41.296875 42.84375 
Q 37.203125 48.484375 30.078125 48.484375 
Q 22.953125 48.484375 18.875 42.84375 
Q 14.796875 37.203125 14.796875 27.296875 
z
" id="DejaVuSans-100"/>
      <path d="M 41.109375 46.296875 
Q 39.59375 47.171875 37.8125 47.578125 
Q 36.03125 48 33.890625 48 
Q 26.265625 48 22.1875 43.046875 
Q 18.109375 38.09375 18.109375 28.8125 
L 18.109375 0 
L 9.078125 0 
L 9.078125 54.6875 
L 18.109375 54.6875 
L 18.109375 46.1875 
Q 20.953125 51.171875 25.484375 53.578125 
Q 30.03125 56 36.53125 56 
Q 37.453125 56 38.578125 55.875 
Q 39.703125 55.765625 41.0625 55.515625 
z
" id="DejaVuSans-114"/>
      <path d="M 30.609375 48.390625 
Q 23.390625 48.390625 19.1875 42.75 
Q 14.984375 37.109375 14.984375 27.296875 
Q 14.984375 17.484375 19.15625 11.84375 
Q 23.34375 6.203125 30.609375 6.203125 
Q 37.796875 6.203125 41.984375 11.859375 
Q 46.1875 17.53125 46.1875 27.296875 
Q 46.1875 37.015625 41.984375 42.703125 
Q 37.796875 48.390625 30.609375 48.390625 
z
M 30.609375 56 
Q 42.328125 56 49.015625 48.375 
Q 55.71875 40.765625 55.71875 27.296875 
Q 55.71875 13.875 49.015625 6.21875 
Q 42.328125 -1.421875 30.609375 -1.421875 
Q 18.84375 -1.421875 12.171875 6.21875 
Q 5.515625 13.875 5.515625 27.296875 
Q 5.515625 40.765625 12.171875 48.375 
Q 18.84375 56 30.609375 56 
z
" id="DejaVuSans-111"/>
      <path d="M 18.109375 8.203125 
L 18.109375 -20.796875 
L 9.078125 -20.796875 
L 9.078125 54.6875 
L 18.109375 54.6875 
L 18.109375 46.390625 
Q 20.953125 51.265625 25.265625 53.625 
Q 29.59375 56 35.59375 56 
Q 45.5625 56 51.78125 48.09375 
Q 58.015625 40.1875 58.015625 27.296875 
Q 58.015625 14.40625 51.78125 6.484375 
Q 45.5625 -1.421875 35.59375 -1.421875 
Q 29.59375 -1.421875 25.265625 0.953125 
Q 20.953125 3.328125 18.109375 8.203125 
z
M 48.6875 27.296875 
Q 48.6875 37.203125 44.609375 42.84375 
Q 40.53125 48.484375 33.40625 48.484375 
Q 26.265625 48.484375 22.1875 42.84375 
Q 18.109375 37.203125 18.109375 27.296875 
Q 18.109375 17.390625 22.1875 11.75 
Q 26.265625 6.109375 33.40625 6.109375 
Q 40.53125 6.109375 44.609375 11.75 
Q 48.6875 17.390625 48.6875 27.296875 
z
" id="DejaVuSans-112"/>
      <path d="M 34.28125 27.484375 
Q 23.390625 27.484375 19.1875 25 
Q 14.984375 22.515625 14.984375 16.5 
Q 14.984375 11.71875 18.140625 8.90625 
Q 21.296875 6.109375 26.703125 6.109375 
Q 34.1875 6.109375 38.703125 11.40625 
Q 43.21875 16.703125 43.21875 25.484375 
L 43.21875 27.484375 
z
M 52.203125 31.203125 
L 52.203125 0 
L 43.21875 0 
L 43.21875 8.296875 
Q 40.140625 3.328125 35.546875 0.953125 
Q 30.953125 -1.421875 24.3125 -1.421875 
Q 15.921875 -1.421875 10.953125 3.296875 
Q 6 8.015625 6 15.921875 
Q 6 25.140625 12.171875 29.828125 
Q 18.359375 34.515625 30.609375 34.515625 
L 43.21875 34.515625 
L 43.21875 35.40625 
Q 43.21875 41.609375 39.140625 45 
Q 35.0625 48.390625 27.6875 48.390625 
Q 23 48.390625 18.546875 47.265625 
Q 14.109375 46.140625 10.015625 43.890625 
L 10.015625 52.203125 
Q 14.9375 54.109375 19.578125 55.046875 
Q 24.21875 56 28.609375 56 
Q 40.484375 56 46.34375 49.84375 
Q 52.203125 43.703125 52.203125 31.203125 
z
" id="DejaVuSans-97"/>
      <path d="M 18.3125 70.21875 
L 18.3125 54.6875 
L 36.8125 54.6875 
L 36.8125 47.703125 
L 18.3125 47.703125 
L 18.3125 18.015625 
Q 18.3125 11.328125 20.140625 9.421875 
Q 21.96875 7.515625 27.59375 7.515625 
L 36.8125 7.515625 
L 36.8125 0 
L 27.59375 0 
Q 17.1875 0 13.234375 3.875 
Q 9.28125 7.765625 9.28125 18.015625 
L 9.28125 47.703125 
L 2.6875 47.703125 
L 2.6875 54.6875 
L 9.28125 54.6875 
L 9.28125 70.21875 
z
" id="DejaVuSans-116"/>
      <path d="M 56.203125 29.59375 
L 56.203125 25.203125 
L 14.890625 25.203125 
Q 15.484375 15.921875 20.484375 11.0625 
Q 25.484375 6.203125 34.421875 6.203125 
Q 39.59375 6.203125 44.453125 7.46875 
Q 49.3125 8.734375 54.109375 11.28125 
L 54.109375 2.78125 
Q 49.265625 0.734375 44.1875 -0.34375 
Q 39.109375 -1.421875 33.890625 -1.421875 
Q 20.796875 -1.421875 13.15625 6.1875 
Q 5.515625 13.8125 5.515625 26.8125 
Q 5.515625 40.234375 12.765625 48.109375 
Q 20.015625 56 32.328125 56 
Q 43.359375 56 49.78125 48.890625 
Q 56.203125 41.796875 56.203125 29.59375 
z
M 47.21875 32.234375 
Q 47.125 39.59375 43.09375 43.984375 
Q 39.0625 48.390625 32.421875 48.390625 
Q 24.90625 48.390625 20.390625 44.140625 
Q 15.875 39.890625 15.1875 32.171875 
z
" id="DejaVuSans-101"/>
     </defs>
     <g transform="translate(40.353906 215.236302)rotate(-90)scale(0.1 -0.1)">
      <use xlink:href="#DejaVuSans-100"/>
      <use x="63.476562" xlink:href="#DejaVuSans-114"/>
      <use x="104.558594" xlink:href="#DejaVuSans-111"/>
      <use x="165.740234" xlink:href="#DejaVuSans-112"/>
      <use x="229.216797" xlink:href="#DejaVuSans-114"/>
      <use x="270.330078" xlink:href="#DejaVuSans-97"/>
      <use x="331.609375" xlink:href="#DejaVuSans-116"/>
      <use x="370.818359" xlink:href="#DejaVuSans-101"/>
     </g>
    </g>
   </g>
   <g id="line2d_12">
    <path clip-path="url(#p6074a70ced)" d="M 86.606804 352.174167 
L 91.687732 352.174167 
L 91.839572 231.683679 
L 91.991356 232.831207 
L 92.143117 352.174167 
L 92.903599 352.174167 
L 93.055289 347.885976 
L 93.207234 302.55368 
L 93.662805 50.163056 
L 93.814614 298.021139 
L 93.966802 294.088045 
L 94.119411 352.174167 
L 94.423349 307.539568 
L 94.726277 261.0295 
L 94.878179 299.285224 
L 95.03034 271.92375 
L 95.182475 273.605044 
L 95.333703 268.31463 
L 95.938773 322.685099 
L 96.090882 299.846869 
L 96.242641 318.174944 
L 96.546005 289.876633 
L 96.697648 308.067067 
L 96.848564 272.078221 
L 96.999372 270.459569 
L 97.150095 270.61611 
L 97.301526 276.915608 
L 97.452677 272.154941 
L 97.603751 277.931386 
L 97.754871 290.987291 
L 97.905688 254.425006 
L 98.056815 307.154048 
L 98.358787 282.311227 
L 98.661672 274.448239 
L 98.813052 271.154037 
L 98.964571 292.888853 
L 99.115582 289.449932 
L 99.266536 304.424661 
L 99.417448 277.860136 
L 99.568687 305.393696 
L 99.720131 295.400553 
L 99.871163 293.642514 
L 100.174065 286.750851 
L 100.325054 286.122385 
L 100.47628 281.523275 
L 100.627471 283.542292 
L 100.778544 281.695695 
L 100.92924 289.269344 
L 101.080344 289.329655 
L 101.231319 292.71833 
L 101.382063 299.753481 
L 101.837405 276.662209 
L 101.988305 234.186677 
L 102.139269 158.21763 
L 102.441106 313.703385 
L 102.592184 246.509131 
L 102.744169 241.600119 
L 102.894998 264.684749 
L 103.046278 264.153019 
L 103.348203 318.012113 
L 103.499045 317.638186 
L 103.649825 323.778074 
L 103.95161 315.82293 
L 104.102269 320.413398 
L 104.252664 318.775456 
L 104.403161 314.755241 
L 104.554194 317.363236 
L 104.704948 312.049252 
L 104.855558 310.81464 
L 105.00592 311.044273 
L 105.156749 314.518478 
L 105.307358 310.774871 
L 105.458619 313.358439 
L 105.609186 307.770762 
L 105.759751 307.994321 
L 105.910993 316.165515 
L 106.212514 314.246259 
L 106.362904 309.498036 
L 106.513193 316.886008 
L 106.663549 306.980561 
L 106.814107 314.173321 
L 106.96465 298.055885 
L 107.115269 303.715616 
L 107.265722 288.778466 
L 107.568507 307.240294 
L 107.719273 299.238371 
L 107.869965 320.074235 
L 108.020425 307.024058 
L 108.171023 303.669022 
L 108.321567 342.193659 
L 108.472353 352.174167 
L 108.623176 344.694641 
L 108.926166 262.563922 
L 109.077086 281.628122 
L 109.227913 269.842855 
L 109.530348 340.501411 
L 109.680963 344.133736 
L 109.832053 328.476165 
L 109.983148 336.154978 
L 110.133934 334.597819 
L 110.285995 335.634004 
L 110.436938 329.091698 
L 110.588049 338.003345 
L 110.889591 301.863697 
L 111.040106 300.888472 
L 111.190794 303.406963 
L 111.341335 295.891154 
L 111.491848 297.798972 
L 111.643406 302.152009 
L 111.794197 295.690634 
L 111.944909 304.950229 
L 112.095619 307.110801 
L 112.246313 305.831671 
L 112.39726 306.845691 
L 112.699186 319.827727 
L 112.849876 323.524463 
L 113.000864 305.876189 
L 113.152323 309.517235 
L 113.303087 294.874759 
L 113.453923 312.975212 
L 113.604529 307.067471 
L 113.755088 306.140621 
L 113.905749 300.937738 
L 114.056437 305.831671 
L 114.206988 315.10017 
L 114.357481 300.270572 
L 114.812894 318.481244 
L 114.965046 320.04337 
L 115.1167 316.882461 
L 115.268226 308.247743 
L 115.570145 304.732722 
L 115.720916 309.580027 
L 115.871941 300.678552 
L 116.174324 336.785854 
L 116.325813 332.514788 
L 116.477317 348.180855 
L 116.628278 332.784893 
L 116.77979 328.806315 
L 116.930911 338.940218 
L 117.384934 323.633917 
L 117.536175 308.205708 
L 117.686921 314.554616 
L 117.837714 296.925246 
L 117.990188 302.1319 
L 118.141472 303.192415 
L 118.292329 315.549983 
L 118.443038 308.303271 
L 118.594041 316.404758 
L 118.744754 316.404758 
L 119.048181 319.156792 
L 119.198879 322.571897 
L 119.349607 316.987703 
L 119.50055 325.629993 
L 119.80229 305.612264 
L 119.953301 313.974562 
L 120.104365 305.040783 
L 120.256031 304.959065 
L 120.407175 306.624761 
L 120.558176 301.96017 
L 120.709111 309.661703 
L 120.8599 300.629085 
L 121.010925 316.404758 
L 121.161938 302.931566 
L 121.312769 312.975212 
L 121.463515 315.514868 
L 121.614201 325.012686 
L 121.765877 314.662615 
L 121.91689 313.125256 
L 122.067758 324.730396 
L 122.218535 315.753091 
L 122.369272 317.296357 
L 122.973131 352.174167 
L 123.285558 352.174167 
L 123.587892 233.376393 
L 123.738974 232.453095 
L 123.889935 228.949635 
L 124.04075 350.941921 
L 124.191601 351.55686 
L 124.342409 349.398954 
L 124.493724 352.174167 
L 124.645753 352.174167 
L 124.798085 346.676502 
L 124.948978 346.937124 
L 125.099717 352.174167 
L 125.250658 352.174167 
L 125.40182 349.398954 
L 125.552975 343.87243 
L 125.704798 348.192276 
L 125.855829 347.857169 
L 126.007789 349.114091 
L 126.158839 345.711075 
L 126.310791 349.726106 
L 126.462562 341.443462 
L 126.61428 352.174167 
L 126.765933 341.443462 
L 126.91807 343.919823 
L 127.069825 352.174167 
L 127.221499 340.205675 
L 127.373203 343.896194 
L 127.676378 327.670223 
L 127.979961 332.877311 
L 128.283712 307.497059 
L 128.435956 306.054867 
L 128.586981 321.676095 
L 128.738533 315.654923 
L 128.889997 297.444197 
L 129.040848 304.116599 
L 129.192788 296.427694 
L 129.344556 297.907458 
L 129.496305 301.279966 
L 129.648406 323.715461 
L 129.8002 304.130975 
L 130.10343 329.135833 
L 130.255345 327.387552 
L 130.407203 314.73427 
L 130.558305 315.857749 
L 130.860906 328.806315 
L 131.012935 308.985965 
L 131.317084 327.340249 
L 131.619402 304.950229 
L 131.770858 305.701463 
L 131.922577 297.704816 
L 132.074601 306.579036 
L 132.226822 298.928846 
L 132.379004 320.685374 
L 132.531202 313.385087 
L 132.683451 320.073942 
L 132.835241 314.571046 
L 132.987266 320.625339 
L 133.139183 319.737362 
L 133.29074 312.85541 
L 133.44277 323.103446 
L 133.594616 305.967021 
L 133.746256 318.723767 
L 133.897954 313.543629 
L 134.049659 319.337536 
L 134.353245 343.589603 
L 134.504836 335.602409 
L 134.656267 342.941179 
L 134.808269 312.431031 
L 134.960038 318.577326 
L 135.415074 299.440416 
L 135.567103 309.86453 
L 135.719059 301.730956 
L 135.871036 311.742659 
L 136.023153 313.923218 
L 136.174915 330.07849 
L 136.782612 308.679666 
L 136.93466 313.274155 
L 137.086765 313.042464 
L 137.238431 313.199848 
L 137.698963 352.174167 
L 138.010425 352.174167 
L 138.162093 266.553419 
L 138.46576 237.924527 
L 138.617594 243.843973 
L 138.769202 343.589603 
L 139.072058 352.174167 
L 139.223946 337.165501 
L 139.375767 340.523687 
L 139.527426 338.684138 
L 139.679291 344.822983 
L 139.831194 341.453691 
L 140.134623 328.237183 
L 140.286342 346.655518 
L 140.74081 322.156835 
L 140.891653 320.721755 
L 141.04277 350.63386 
L 141.194872 352.174167 
L 141.347256 316.778417 
L 141.49942 331.365651 
L 141.651048 313.85022 
L 141.802665 314.698476 
L 141.953532 309.353642 
L 142.25535 337.667467 
L 142.406106 328.716524 
L 142.556841 309.00419 
L 142.70771 316.987703 
L 142.858381 304.332923 
L 143.161566 320.01274 
L 143.313401 302.19974 
L 143.464502 306.624761 
L 143.615405 318.563256 
L 143.766199 311.162689 
L 143.916987 311.471046 
L 144.067647 303.669022 
L 144.219043 310.665482 
L 144.369845 304.99555 
L 144.975137 334.340806 
L 145.126569 325.5007 
L 145.428322 284.887772 
L 145.579474 303.854865 
L 145.730803 284.837856 
L 145.881433 307.728108 
L 146.032107 300.629085 
L 146.183482 320.413398 
L 146.33458 307.019032 
L 146.48531 329.664108 
L 146.636451 332.784893 
L 146.7873 316.061744 
L 146.938069 318.839623 
L 147.08906 305.393696 
L 147.240515 310.665482 
L 147.542849 301.748801 
L 147.693873 294.203056 
L 147.845192 296.014321 
L 147.99604 290.194415 
L 148.147141 304.070479 
L 148.298368 306.009229 
L 148.600486 319.488327 
L 148.751371 318.2549 
L 148.902686 318.28742 
L 149.054963 310.105382 
L 149.206376 335.554789 
L 149.357628 312.85541 
L 149.50869 314.282623 
L 149.659856 305.08593 
L 149.810943 312.817784 
L 149.962472 307.240294 
L 150.113707 310.35801 
L 150.416718 322.797438 
L 150.568991 312.317262 
L 150.721519 319.008856 
L 151.023596 311.779403 
L 151.174462 326.321801 
L 151.325501 324.704033 
L 151.476334 318.319879 
L 151.627233 324.704033 
L 151.778204 321.984156 
L 151.931119 322.908925 
L 152.083276 352.174167 
L 152.702152 352.174167 
L 153.004911 265.325881 
L 153.156217 287.173226 
L 153.308157 265.962134 
L 153.45993 338.990729 
L 153.611452 350.945456 
L 153.762379 346.629063 
L 153.913339 346.629063 
L 154.065756 347.89006 
L 154.217527 347.89006 
L 154.520362 340.764959 
L 154.823059 352.174167 
L 154.974573 343.880366 
L 155.125686 351.8664 
L 155.276544 352.174167 
L 155.42767 336.785854 
L 155.578223 337.035618 
L 155.730017 332.245715 
L 156.031753 335.799818 
L 156.182975 336.508099 
L 156.335551 334.476292 
L 156.486502 337.695284 
L 156.637501 320.721755 
L 156.790146 335.118957 
L 156.940834 325.012686 
L 157.091832 340.775897 
L 157.243566 324.554571 
L 157.394373 326.605076 
L 157.546545 320.961393 
L 157.698809 326.212972 
L 157.850724 317.189345 
L 158.001686 327.2451 
L 158.152642 325.090736 
L 158.454786 332.15018 
L 158.75807 310.437888 
L 158.909661 305.527738 
L 159.21253 310.317956 
L 159.364483 322.242436 
L 159.515529 324.475204 
L 159.667386 321.208418 
L 159.818585 313.432728 
L 160.120289 333.346322 
L 160.423247 300.617587 
L 160.574148 308.779125 
L 160.725283 308.163593 
L 160.87627 306.316995 
L 161.027542 306.889151 
L 161.481775 338.696997 
L 161.785228 307.411797 
L 161.936605 297.391774 
L 162.088051 303.426107 
L 162.239383 293.083046 
L 162.390497 314.662615 
L 162.692564 296.053197 
L 162.843429 297.903339 
L 162.994482 313.974562 
L 163.145461 307.154048 
L 163.297287 314.463403 
L 163.449331 306.928135 
L 163.601597 317.595309 
L 163.753069 313.813617 
L 163.903993 321.397541 
L 164.054728 315.10017 
L 164.2065 315.996361 
L 164.35814 301.538241 
L 164.50912 307.240294 
L 164.660191 299.187618 
L 164.81251 306.360293 
L 164.964595 306.928135 
L 165.115442 317.946543 
L 165.266132 310.156971 
L 165.568457 313.629545 
L 165.719349 322.543461 
L 165.871551 321.631584 
L 166.174008 315.654923 
L 166.325514 318.352275 
L 166.476498 309.661703 
L 167.090321 352.174167 
L 167.399875 352.174167 
L 167.5518 292.502687 
L 168.00598 264.376688 
L 168.308765 352.174167 
L 170.728498 352.174167 
L 170.879083 347.853022 
L 171.330959 300.011778 
L 171.481668 314.79122 
L 171.632176 301.197422 
L 171.783608 326.654012 
L 171.934825 308.820651 
L 172.085898 326.605076 
L 172.237088 314.590684 
L 172.387778 317.946543 
L 172.538635 327.173259 
L 172.689493 327.197252 
L 172.840357 329.993751 
L 172.991236 309.271374 
L 173.14184 304.687193 
L 173.292729 307.728108 
L 173.597192 318.513332 
L 173.749438 320.931638 
L 173.900389 307.590765 
L 174.051971 326.395877 
L 174.203066 309.969764 
L 174.354167 329.377628 
L 174.505098 333.998548 
L 174.657849 328.656378 
L 175.113757 295.093668 
L 175.26455 297.542553 
L 175.415407 294.819769 
L 175.717278 320.44385 
L 175.868054 320.074235 
L 176.321373 328.58912 
L 176.624048 326.088993 
L 176.77575 314.499353 
L 176.927301 315.348039 
L 177.078344 301.96017 
L 177.229269 310.545975 
L 177.381281 305.878839 
L 177.532026 343.240388 
L 177.684202 349.726106 
L 177.98636 306.624761 
L 178.137358 308.121396 
L 178.288248 298.520053 
L 178.439159 297.594982 
L 178.591558 306.360293 
L 178.744503 308.359444 
L 179.047039 320.782009 
L 179.198911 320.871958 
L 179.349631 306.889151 
L 179.501835 311.819598 
L 179.652707 298.211696 
L 179.803397 307.376421 
L 179.954401 306.624761 
L 180.105457 319.827727 
L 180.257222 304.652473 
L 180.560225 324.60723 
L 180.711475 324.140586 
L 180.862595 324.809182 
L 181.164204 311.740599 
L 181.314806 318.80757 
L 181.465731 320.44385 
L 181.616428 347.079095 
L 181.767098 352.174167 
L 182.069023 352.174167 
L 182.21985 332.710319 
L 182.521401 273.700875 
L 182.67215 270.845976 
L 182.822819 293.782623 
L 182.97377 340.456602 
L 183.124521 344.773599 
L 183.427579 333.219748 
L 183.578417 339.235591 
L 183.880038 329.333831 
L 184.030817 326.555952 
L 184.181493 326.555952 
L 184.333454 327.363923 
L 184.484993 327.033658 
L 184.635787 322.852114 
L 184.786463 324.704033 
L 184.938391 333.18361 
L 185.089211 328.122323 
L 185.240733 317.189345 
L 185.39225 318.38461 
L 185.543016 311.123293 
L 185.844535 318.871613 
L 185.995224 319.456929 
L 186.145945 323.44182 
L 186.296931 321.705308 
L 186.447716 316.67905 
L 186.598611 317.60501 
L 186.749304 321.646826 
L 186.899977 311.083821 
L 187.050643 312.975212 
L 187.202425 312.930445 
L 187.354035 310.131004 
L 187.655733 315.788044 
L 187.808327 327.763305 
L 188.110257 317.329829 
L 188.261204 316.096401 
L 188.412029 328.43068 
L 188.562847 302.837051 
L 188.713725 317.329829 
L 188.864564 300.613984 
L 189.015303 310.197333 
L 189.318617 309.743067 
L 189.620326 321.030112 
L 189.77109 321.000195 
L 190.072935 303.762122 
L 190.223998 317.39658 
L 190.374821 302.481004 
L 190.525618 319.488327 
L 190.676953 309.743067 
L 190.827972 318.012113 
L 190.978969 307.462405 
L 191.129852 329.047394 
L 191.281189 314.355143 
L 191.432015 329.355751 
L 191.582954 309.312547 
L 191.734015 316.473281 
L 191.884928 307.770762 
L 192.037257 329.551151 
L 192.490499 302.742172 
L 192.642692 306.971145 
L 192.794299 299.39005 
L 192.945508 311.20201 
L 193.097252 304.391476 
L 193.39896 324.086727 
L 193.551876 310.754372 
L 193.702891 309.702424 
L 193.853748 303.500477 
L 194.00456 304.99555 
L 194.155329 309.580027 
L 194.306031 329.333831 
L 194.457024 317.638186 
L 194.607906 317.363236 
L 194.758701 303.715616 
L 194.910117 303.593632 
L 195.061078 301.652109 
L 195.212027 301.652109 
L 195.513662 330.25979 
L 195.815395 312.742316 
L 195.966409 323.832524 
L 196.117039 314.518478 
L 196.41917 343.737999 
L 196.573106 352.174167 
L 196.72396 352.174167 
L 196.876592 340.928388 
L 197.180431 245.276296 
L 197.331472 234.073446 
L 197.482331 254.518725 
L 197.633207 334.906176 
L 197.936513 341.730122 
L 198.087432 337.989746 
L 198.238309 342.624265 
L 198.389106 334.272282 
L 198.69081 338.60646 
L 198.841677 344.465242 
L 199.143854 333.400425 
L 199.295802 335.955765 
L 199.446847 348.785492 
L 199.598256 334.955749 
L 199.74897 339.223174 
L 200.355094 324.247686 
L 200.657962 328.611582 
L 200.808791 338.60646 
L 200.959829 332.15018 
L 201.110715 330.589178 
L 201.412368 315.444437 
L 201.563279 321.646826 
L 201.864982 318.871613 
L 202.016827 323.020149 
L 202.168689 322.185423 
L 202.319699 336.154978 
L 202.471761 330.14162 
L 202.622722 332.747677 
L 202.773608 326.888895 
L 202.92446 326.297015 
L 203.075501 338.311407 
L 203.226333 316.508044 
L 203.377117 318.530969 
L 203.684087 299.485751 
L 203.836794 302.179379 
L 203.989358 299.130916 
L 204.141902 304.313302 
L 204.443582 332.130963 
L 204.594553 318.871613 
L 204.745401 322.880254 
L 204.897513 309.06815 
L 205.049167 311.97231 
L 205.200132 305.040783 
L 205.351062 321.030112 
L 205.501741 301.96017 
L 205.652856 311.162689 
L 205.803919 304.424661 
L 205.954685 311.818132 
L 206.105769 308.695833 
L 206.256639 309.620904 
L 206.408838 311.513882 
L 206.711866 319.243178 
L 207.013697 299.187618 
L 207.164528 318.839623 
L 207.315694 306.316995 
L 207.46661 310.277826 
L 207.617621 300.061838 
L 207.770629 312.923478 
L 207.922974 309.760294 
L 208.074007 338.311407 
L 208.225904 327.976522 
L 208.377709 351.255269 
L 208.529591 321.208418 
L 208.681731 323.075733 
L 208.833741 296.586667 
L 208.985602 310.823761 
L 209.137665 291.278657 
L 209.289912 315.828494 
L 209.441923 301.634782 
L 209.59413 320.991091 
L 209.746145 298.928846 
L 209.898106 325.526127 
L 210.049898 314.841241 
L 210.201884 322.463134 
L 210.353736 310.517462 
L 210.505776 323.216402 
L 210.657279 321.178842 
L 210.808237 314.282623 
L 210.959545 317.42986 
L 211.110613 352.174167 
L 211.575926 352.174167 
L 211.726545 313.592518 
L 211.877642 303.854865 
L 212.028527 323.496968 
L 212.181033 278.802224 
L 212.785623 336.80058 
L 212.936347 312.975212 
L 213.0874 311.818132 
L 213.238471 314.246259 
L 213.389265 318.627645 
L 213.541486 319.431355 
L 213.693143 313.274155 
L 213.844352 313.050378 
L 214.14602 307.462405 
L 214.296602 322.51497 
L 214.598986 311.549021 
L 214.749805 321.58812 
L 214.90217 323.79654 
L 215.05416 327.670223 
L 215.205901 315.383178 
L 215.507459 320.691542 
L 215.658559 309.702424 
L 215.810625 306.885044 
L 215.961348 310.81464 
L 216.112415 309.661703 
L 216.415673 324.247686 
L 216.71797 332.458242 
L 216.868855 329.002919 
L 217.020154 306.975821 
L 217.171446 310.09081 
L 217.322575 305.964967 
L 217.473708 307.240294 
L 217.624699 306.889151 
L 217.775656 316.130991 
L 217.926722 315.514868 
L 218.078483 315.383178 
L 218.229368 305.964967 
L 218.380109 308.345414 
L 218.530925 306.802148 
L 218.681412 324.986569 
L 218.832009 326.531319 
L 218.982774 338.593426 
L 219.133968 313.012831 
L 219.285748 313.617211 
L 219.436823 304.424661 
L 219.587507 306.184842 
L 219.738158 306.228978 
L 220.189624 326.222369 
L 220.340419 331.803056 
L 220.49214 326.395877 
L 220.643107 308.036761 
L 220.794384 317.737332 
L 221.698017 306.140621 
L 221.999082 326.840269 
L 222.151276 324.913529 
L 222.302794 334.98864 
L 222.453688 316.747114 
L 222.754902 327.458169 
L 222.905408 325.26965 
L 223.356965 309.230121 
L 223.507479 314.79122 
L 223.659353 311.97231 
L 223.810051 324.113682 
L 223.960706 314.209825 
L 224.111164 315.71807 
L 224.261766 315.40912 
L 224.412322 323.723413 
L 224.562946 320.074235 
L 224.713289 322.148278 
L 224.865356 314.70385 
L 225.017154 317.322494 
L 225.168596 312.817784 
L 225.319399 298.211696 
L 225.470044 314.518478 
L 225.620532 303.931585 
L 225.770987 344.141467 
L 225.921705 352.174167 
L 226.230924 352.174167 
L 226.540166 298.823782 
L 226.69116 305.701463 
L 226.841705 274.627725 
L 227.293112 334.237822 
L 227.443668 334.564018 
L 227.594299 325.321339 
L 227.745153 337.962468 
L 227.89639 335.263221 
L 228.198432 310.197333 
L 228.349093 315.135784 
L 228.499641 314.136746 
L 228.650237 324.05972 
L 228.800699 307.994321 
L 229.101804 331.145349 
L 229.252437 335.799818 
L 229.403458 313.358439 
L 229.55417 321.27917 
L 229.705007 307.770762 
L 229.855607 305.567536 
L 230.006154 300.270572 
L 230.156635 309.188789 
L 230.307237 310.156971 
L 230.457639 315.10017 
L 230.608472 314.209825 
L 230.910801 324.422039 
L 231.061707 319.519666 
L 231.212328 330.547669 
L 231.363038 327.173259 
L 231.664205 307.994321 
L 231.814996 319.796684 
L 231.965711 311.740599 
L 232.118906 314.336742 
L 232.270006 307.590765 
L 232.420677 310.81464 
L 232.571493 309.312547 
L 232.72222 319.765582 
L 232.873056 322.234808 
L 233.023662 321.926154 
L 233.175525 307.411797 
L 233.326755 316.165515 
L 233.477812 316.747114 
L 233.629928 325.576837 
L 233.781252 326.702761 
L 234.083723 306.624761 
L 234.234955 326.014035 
L 234.385634 328.739037 
L 234.536256 313.246471 
L 234.686945 320.04337 
L 234.988237 311.123293 
L 235.291079 329.355751 
L 235.442097 327.268956 
L 235.593031 321.030112 
L 235.743979 333.092659 
L 235.894542 331.474519 
L 236.04546 340.753999 
L 236.19623 335.846916 
L 236.347641 312.434255 
L 236.499215 312.355257 
L 236.650036 310.854332 
L 236.800753 312.010671 
L 236.951612 303.762122 
L 237.252751 324.986569 
L 237.403444 313.246471 
L 237.705275 330.917935 
L 238.009164 326.113883 
L 238.463276 301.96017 
L 238.613826 313.592518 
L 238.764301 307.024058 
L 238.914963 317.60501 
L 239.06544 312.281262 
L 239.368034 319.062277 
L 239.519804 324.60723 
L 239.67077 321.676095 
L 239.822107 322.628606 
L 239.973201 319.243178 
L 240.124507 332.766303 
L 240.27559 322.65688 
L 240.426751 320.44385 
L 240.581435 352.174167 
L 240.89274 352.174167 
L 241.198055 307.276571 
L 241.348883 268.381485 
L 241.650641 280.943706 
L 241.801915 337.387223 
L 241.952769 352.174167 
L 242.104383 338.030467 
L 242.255739 338.978137 
L 242.407172 338.016919 
L 242.558399 334.050677 
L 242.860627 340.501411 
L 243.011601 339.210733 
L 243.313216 325.988954 
L 243.464185 327.790565 
L 243.616145 322.185423 
L 243.767916 325.782108 
L 243.919431 336.231405 
L 244.072345 322.604079 
L 244.224628 327.786465 
L 244.680555 318.174944 
L 244.832645 319.737362 
L 244.984973 331.710636 
L 245.137317 333.543191 
L 245.289249 326.469529 
L 245.441375 324.60723 
L 245.745375 308.985965 
L 245.89732 309.414551 
L 246.04899 310.744773 
L 246.200992 310.823761 
L 246.352793 304.085176 
L 246.505103 304.833164 
L 246.657017 312.010671 
L 246.808837 312.699188 
L 246.960827 328.91759 
L 247.112722 316.643448 
L 247.264572 314.805652 
L 247.416585 316.609544 
L 247.568644 323.95117 
L 247.720627 307.497059 
L 248.177908 318.527766 
L 248.331106 315.228293 
L 248.483068 318.449094 
L 248.634805 326.163522 
L 248.938764 323.409453 
L 249.09076 323.131106 
L 249.242684 319.368868 
L 249.394321 320.565073 
L 249.546346 317.901317 
L 249.698587 320.715307 
L 249.850668 311.475158 
L 250.002583 318.787543 
L 250.154595 310.863142 
L 250.306549 316.643448 
L 250.457696 312.817784 
L 250.609663 324.633484 
L 250.761584 316.949747 
L 250.913425 335.924813 
L 251.065979 323.186268 
L 251.218206 324.685842 
L 251.370157 300.764892 
L 251.522364 310.557135 
L 251.674201 301.988922 
L 251.826072 313.311203 
L 251.97814 309.86453 
L 252.130022 315.182479 
L 252.281637 308.51318 
L 252.432782 314.970086 
L 252.584931 307.539568 
L 252.737095 319.156792 
L 252.889012 307.454469 
L 253.040739 318.142502 
L 253.192699 312.317262 
L 253.496623 322.156835 
L 253.648573 345.754122 
L 253.952442 311.051657 
L 254.103553 310.317956 
L 254.255734 318.914368 
L 254.406995 312.780086 
L 254.558031 326.913138 
L 254.709469 309.169276 
L 254.860772 323.633917 
L 255.011383 307.920305 
L 255.316292 350.56158 
L 255.473773 352.174167 
L 255.780676 352.174167 
L 255.931302 311.123293 
L 256.082113 306.184842 
L 256.23302 295.436483 
L 256.535308 306.097498 
L 256.687648 324.965404 
L 256.839464 321.821601 
L 256.99162 329.878081 
L 257.295636 324.327476 
L 257.599435 320.625339 
L 257.751225 327.976522 
L 257.903053 315.111951 
L 258.05458 316.199973 
L 258.205806 307.283293 
L 258.357673 313.886754 
L 258.509312 312.623854 
L 258.660972 324.247686 
L 258.812743 313.543629 
L 258.96438 313.813617 
L 259.116269 312.967856 
L 259.267835 319.337536 
L 259.418968 310.050538 
L 259.570206 319.17997 
L 259.722371 321.326158 
L 259.874051 312.623854 
L 260.178085 326.775537 
L 260.329846 310.557135 
L 260.481703 307.718389 
L 260.785276 322.40638 
L 260.936616 311.97231 
L 261.087968 329.421258 
L 261.390337 304.116599 
L 261.542104 310.397987 
L 261.693222 310.933489 
L 261.844953 307.760768 
L 262.147941 322.964351 
L 262.450568 308.163593 
L 262.754165 314.427385 
L 262.905037 325.988954 
L 263.05666 307.369044 
L 263.207684 312.704474 
L 263.358933 306.404676 
L 263.510112 314.318918 
L 263.814877 299.495366 
L 263.966115 317.370983 
L 264.117073 316.783724 
L 264.267996 325.606874 
L 264.418776 311.195759 
L 264.720392 318.646379 
L 264.871215 312.975212 
L 265.0225 312.164554 
L 265.17442 307.803066 
L 265.326636 299.993247 
L 265.478655 319.431355 
L 265.629893 314.047671 
L 265.781589 315.041154 
L 265.932364 313.937902 
L 266.083111 321.000195 
L 266.384828 319.488327 
L 266.686832 310.317956 
L 266.837678 308.695833 
L 266.988729 318.595482 
L 267.291389 310.171121 
L 267.443187 302.19974 
L 267.593981 321.646826 
L 267.745004 321.059972 
L 267.896036 315.857749 
L 268.047408 306.58109 
L 268.198364 314.626684 
L 268.349307 304.424661 
L 268.500224 304.99555 
L 268.651132 300.678552 
L 268.801917 309.580027 
L 268.952693 310.854332 
L 269.254431 304.070479 
L 269.557491 308.820651 
L 269.708459 318.595482 
L 269.859389 318.563256 
L 270.168438 352.174167 
L 270.478459 352.174167 
L 270.780796 307.06216 
L 271.083005 296.468475 
L 271.234079 301.344047 
L 271.385805 299.133825 
L 271.688404 306.889151 
L 272.29342 323.832524 
L 272.445885 301.730956 
L 272.596857 311.856788 
L 272.747794 307.197212 
L 272.898613 306.802148 
L 273.049378 305.964967 
L 273.200288 311.162689 
L 273.351623 309.353642 
L 273.502556 315.277558 
L 273.653523 308.387476 
L 274.106904 321.397541 
L 274.257796 316.404758 
L 274.408543 316.061744 
L 274.559361 314.518478 
L 274.710296 316.096401 
L 274.861442 307.855826 
L 275.315006 323.244139 
L 275.466033 314.318918 
L 275.616881 313.937902 
L 275.918746 323.244139 
L 276.069461 319.456929 
L 276.220444 311.740599 
L 276.372288 321.850536 
L 276.523964 305.878839 
L 276.67505 316.473281 
L 276.825844 316.096401 
L 276.977785 323.967742 
L 277.128665 313.050378 
L 277.279316 324.086727 
L 277.430926 320.227677 
L 277.734378 331.039515 
L 277.886127 328.260024 
L 278.037931 313.85022 
L 278.189276 320.504578 
L 278.341423 312.431031 
L 278.494087 313.690513 
L 278.645908 313.653897 
L 278.797674 318.755685 
L 278.949375 308.638163 
L 279.101402 315.759264 
L 279.253097 304.959065 
L 279.404815 315.076586 
L 279.557391 308.234616 
L 279.861338 314.571046 
L 280.163886 303.145408 
L 280.314448 319.11652 
L 280.466053 306.711854 
L 280.61856 315.182479 
L 280.770431 304.78812 
L 280.921692 316.814917 
L 281.073836 302.953822 
L 281.225977 313.311203 
L 281.3782 300.458884 
L 281.529872 312.355257 
L 281.681851 304.391476 
L 281.833637 313.886754 
L 281.985963 316.099628 
L 282.137938 314.876762 
L 282.290177 317.289302 
L 282.442618 316.473281 
L 282.594412 323.994631 
L 283.04843 317.021472 
L 283.504524 324.380417 
L 283.656421 315.418251 
L 283.809123 322.908925 
L 284.113733 319.188178 
L 284.26592 313.042464 
L 284.569659 318.81934 
L 284.879927 352.174167 
L 285.197761 352.174167 
L 285.350702 334.323724 
L 285.502763 331.977666 
L 285.806672 306.535571 
L 285.958534 316.337148 
L 286.111434 303.398764 
L 286.26314 314.805652 
L 286.415029 300.409585 
L 286.567106 312.39318 
L 286.718669 305.878839 
L 286.870596 329.814318 
L 287.174562 309.251347 
L 287.326244 305.616673 
L 287.477896 310.784304 
L 287.629566 310.744773 
L 287.781444 315.72455 
L 287.933334 315.076586 
L 288.085616 322.853288 
L 288.236832 311.895369 
L 288.388185 316.507445 
L 288.539603 309.476454 
L 288.69077 313.432728 
L 288.842127 314.318918 
L 288.992987 311.818132 
L 289.143994 323.188611 
L 289.295862 313.923218 
L 289.447603 318.109998 
L 289.750022 310.277826 
L 289.901283 310.01019 
L 290.053349 308.721089 
L 290.204501 317.088814 
L 290.356201 313.199848 
L 290.509068 322.660083 
L 290.660289 322.377921 
L 290.962786 315.399831 
L 291.114548 314.193053 
L 291.265352 303.762122 
L 291.416219 304.070479 
L 291.71749 319.73442 
L 291.868299 318.222316 
L 292.019405 318.012113 
L 292.170405 317.329829 
L 292.320972 315.444437 
L 292.472236 326.629568 
L 292.623156 320.105041 
L 292.773942 321.338469 
L 293.075183 308.921171 
L 293.226002 312.049252 
L 293.376808 303.453765 
L 293.527973 310.050538 
L 293.679693 304.607085 
L 293.83133 312.85541 
L 293.983033 313.237037 
L 294.134624 318.416883 
L 294.287835 317.75919 
L 294.439614 310.330829 
L 294.591335 310.517462 
L 294.743343 313.580455 
L 294.895632 310.94168 
L 295.047015 310.893948 
L 295.197943 311.587897 
L 295.500302 321.984156 
L 295.651219 321.397541 
L 295.802217 311.740599 
L 295.953048 309.969764 
L 296.103781 317.021472 
L 296.254765 312.975212 
L 296.405927 315.242216 
L 296.557967 315.793912 
L 296.70931 313.432728 
L 296.860867 316.848721 
L 297.01252 316.302953 
L 297.163644 317.737332 
L 297.314471 305.303907 
L 297.46531 313.901172 
L 297.767033 311.20201 
L 297.917772 302.234805 
L 298.068635 311.471046 
L 298.219846 310.317956 
L 298.371699 307.148169 
L 298.522629 299.445124 
L 298.673397 307.462405 
L 298.824189 308.654067 
L 298.974908 315.753091 
L 299.125624 312.049252 
L 299.276441 320.382888 
L 299.584079 352.174167 
L 300.047476 352.174167 
L 300.198614 329.113786 
L 300.349835 336.463039 
L 300.501006 332.803447 
L 300.651983 326.014035 
L 300.953299 299.343722 
L 301.105293 303.119515 
L 301.256267 303.239333 
L 301.407153 299.187618 
L 301.708636 314.827131 
L 301.859435 309.88868 
L 302.01029 320.721755 
L 302.161231 323.188611 
L 302.312126 320.413398 
L 302.464105 330.712757 
L 302.615926 324.327476 
L 302.766825 332.766303 
L 303.219476 308.345414 
L 303.370285 310.545975 
L 303.521255 330.609874 
L 303.672131 326.864605 
L 303.974764 309.824119 
L 304.125685 310.277826 
L 304.578142 321.617501 
L 304.728852 321.676095 
L 304.879738 319.488327 
L 305.030747 330.301812 
L 305.334252 326.693264 
L 305.48552 321.734465 
L 305.63675 327.790565 
L 305.789111 329.310697 
L 305.941202 329.529605 
L 306.093174 313.886754 
L 306.244816 313.311203 
L 306.395821 317.946543 
L 306.546759 326.580538 
L 306.697767 314.862973 
L 306.849376 329.814318 
L 307.000342 311.818132 
L 307.30197 316.061744 
L 307.453159 306.624761 
L 307.603838 315.753091 
L 307.754639 305.303907 
L 307.905529 325.321339 
L 308.056423 313.050378 
L 308.209852 322.991986 
L 308.361132 320.901826 
L 308.512301 324.78297 
L 308.663527 322.628606 
L 308.965182 310.854332 
L 309.11594 319.765582 
L 309.266881 318.563256 
L 309.568491 329.664108 
L 309.870641 336.154978 
L 310.172482 288.960987 
L 310.323217 307.728108 
L 310.473966 285.260703 
L 310.624723 312.666559 
L 310.776477 301.586557 
L 310.928101 327.930299 
L 311.079778 314.120501 
L 311.230823 337.401387 
L 311.381589 312.357906 
L 311.532618 331.842119 
L 311.985487 305.348845 
L 312.136462 313.974562 
L 312.287808 305.46696 
L 312.438968 325.038753 
L 312.590335 325.782108 
L 312.741206 337.387223 
L 312.89214 316.096401 
L 313.042924 331.205892 
L 313.193738 324.39538 
L 313.344437 331.803056 
L 313.495228 323.496968 
L 313.648064 328.983848 
L 313.800087 321.631584 
L 314.10317 330.014997 
L 314.416061 352.174167 
L 314.575588 352.174167 
L 314.736791 336.901232 
L 314.892598 336.406276 
L 315.0434 321.368034 
L 315.194438 325.012686 
L 315.497506 321.734465 
L 315.648235 325.680892 
L 315.799504 332.729016 
L 315.950554 317.122388 
L 316.101705 328.498843 
L 316.252729 316.439052 
L 316.403788 319.488327 
L 316.554697 305.040783 
L 316.705869 322.628606 
L 316.857524 311.358541 
L 317.008778 323.91381 
L 317.462176 307.813335 
L 317.613091 310.893948 
L 317.764147 303.762122 
L 317.915447 317.155899 
L 318.066363 311.779403 
L 318.3695 330.057366 
L 318.520409 333.998548 
L 318.671326 318.871613 
L 318.82217 318.871613 
L 318.973986 314.805652 
L 319.426755 319.827727 
L 319.577487 311.502272 
L 319.729181 318.998965 
L 319.880976 319.400141 
L 320.183023 342.624265 
L 320.333918 331.225996 
L 320.484776 332.43932 
L 320.63558 319.148276 
L 320.786484 320.413398 
L 320.937226 328.739037 
L 321.090396 320.500206 
L 321.242187 321.573408 
L 321.393832 324.247686 
L 321.545538 303.119515 
L 321.69728 303.119515 
L 322.152743 320.319039 
L 322.607999 311.13006 
L 322.759082 306.845691 
L 323.214108 321.544237 
L 323.365883 320.625339 
L 323.973397 312.355257 
L 324.124235 316.439052 
L 324.275868 310.665482 
L 324.427961 316.133919 
L 324.579846 315.418251 
L 324.731506 320.901826 
L 324.883197 321.208418 
L 325.035042 322.128193 
L 325.186967 313.886754 
L 325.338801 313.886754 
L 325.490562 306.755275 
L 325.641805 315.892501 
L 325.793185 311.97231 
L 325.944457 321.984156 
L 326.096422 309.292264 
L 326.248156 314.805652 
L 326.400082 298.878088 
L 326.552128 305.42713 
L 326.70422 295.454726 
L 326.855728 311.665426 
L 327.006786 290.253839 
L 327.157587 306.316995 
L 327.308527 303.145408 
L 327.460386 314.156812 
L 327.611197 307.197212 
L 327.76257 314.011151 
L 327.91356 296.468475 
L 328.064521 310.585887 
L 328.21522 300.011778 
L 328.366797 308.554921 
L 328.517591 309.312547 
L 328.819701 320.44385 
L 328.970533 350.984137 
L 329.121123 352.174167 
L 329.423272 352.174167 
L 329.574351 322.936373 
L 329.726214 323.047967 
L 329.877139 313.974562 
L 330.028218 313.087853 
L 330.179101 316.096401 
L 330.329946 310.545975 
L 330.480702 310.505986 
L 330.631392 312.975212 
L 331.235539 335.586566 
L 331.387039 334.939257 
L 331.689404 312.510312 
L 331.840651 317.671298 
L 331.99156 310.01019 
L 332.142516 308.695833 
L 332.293933 317.122388 
L 332.444651 318.595482 
L 332.596696 331.939123 
L 332.747448 331.534058 
L 332.898879 342.027599 
L 333.050677 308.289697 
L 333.20251 307.803066 
L 333.35383 302.363745 
L 333.505993 304.391476 
L 333.656921 310.35801 
L 333.80796 324.113682 
L 333.959395 321.885661 
L 334.110851 332.533565 
L 334.261945 319.550944 
L 334.413403 330.671721 
L 334.564757 323.271823 
L 334.716327 330.712757 
L 334.867368 318.28742 
L 335.018127 331.842119 
L 335.16926 319.17997 
L 335.473977 337.2367 
L 335.625448 338.658344 
L 335.776186 337.695284 
L 335.92738 334.63149 
L 336.228897 304.070479 
L 336.379578 308.962721 
L 336.531294 301.586557 
L 336.682539 306.975821 
L 336.834141 302.931566 
L 336.985969 304.742991 
L 337.136983 309.702424 
L 337.288116 310.933489 
L 337.438892 309.00419 
L 337.589689 318.222316 
L 337.740479 334.597819 
L 338.042235 315.788044 
L 338.193029 318.80757 
L 338.345151 313.042464 
L 338.496279 328.476165 
L 338.647237 328.476165 
L 338.798315 338.619468 
L 338.949371 337.695284 
L 339.251133 314.282623 
L 339.403282 320.655385 
L 339.554214 315.17133 
L 339.705409 334.955749 
L 340.008086 322.936373 
L 340.159142 323.832524 
L 340.310047 302.837051 
L 340.461313 321.089775 
L 340.612352 323.216402 
L 340.763424 321.397541 
L 340.91512 302.525997 
L 341.066455 314.355143 
L 341.218561 305.310374 
L 341.370322 334.698447 
L 341.521335 311.587897 
L 341.672503 322.32084 
L 341.823642 306.273029 
L 341.974816 314.590684 
L 342.125882 312.164554 
L 342.277204 328.237183 
L 342.428074 315.479687 
L 342.578935 318.839623 
L 342.730571 309.169276 
L 343.033032 325.142521 
L 343.184178 328.761506 
L 343.335233 313.395619 
L 343.486196 328.761506 
L 343.637632 332.360726 
L 343.794104 352.174167 
L 344.254917 352.174167 
L 344.557043 266.922915 
L 344.707944 230.18188 
L 344.859016 230.606497 
L 345.160882 339.863517 
L 345.311919 339.223174 
L 345.463135 348.173205 
L 345.61462 336.200922 
L 345.766026 334.955749 
L 346.067856 325.988954 
L 346.21852 330.238719 
L 346.369383 326.888895 
L 346.520397 329.047394 
L 346.672191 328.566616 
L 346.823148 331.205892 
L 347.12652 341.402348 
L 347.277511 336.154978 
L 347.428783 352.174167 
L 347.730892 336.170322 
L 347.882004 344.164572 
L 348.184638 320.474243 
L 348.336257 334.98864 
L 348.792342 304.267851 
L 348.943352 316.814917 
L 349.094468 301.96017 
L 349.396922 318.903543 
L 349.547984 315.58503 
L 349.699151 320.197106 
L 350.002003 317.42986 
L 350.15324 321.705308 
L 350.304314 319.274691 
L 350.455184 323.216402 
L 350.606453 323.859671 
L 350.757322 321.030112 
L 350.908956 320.504578 
L 351.212332 316.983294 
L 351.515749 326.751325 
L 351.81952 335.005039 
L 351.970653 321.368034 
L 352.273296 312.742316 
L 352.425609 315.523068 
L 352.577528 314.463403 
L 352.880423 336.537997 
L 353.032976 339.980316 
L 353.486324 317.671298 
L 353.637499 321.368034 
L 353.78852 314.011151 
L 353.939523 321.368034 
L 354.242239 319.243178 
L 354.393125 319.796684 
L 354.544645 321.456388 
L 354.846373 310.237618 
L 354.99803 304.516047 
L 355.148992 317.42986 
L 355.300409 317.737332 
L 355.452429 325.832427 
L 355.755614 318.416883 
L 355.90656 314.011151 
L 356.057729 314.898746 
L 356.208515 313.974562 
L 356.359647 312.126194 
L 356.661607 319.85871 
L 356.96427 314.427385 
L 357.115164 316.439052 
L 357.266252 310.156971 
L 357.418433 315.523068 
L 357.569119 315.514868 
L 357.72003 315.206807 
L 357.871201 315.514868 
L 358.02193 304.687193 
L 358.172694 316.67905 
L 358.479707 352.174167 
L 358.936679 352.174167 
L 359.087253 243.632512 
L 359.238827 219.78054 
L 359.389562 228.214663 
L 359.540615 198.92075 
L 359.844012 321.208418 
L 359.996727 311.402133 
L 360.147952 326.321801 
L 360.299622 315.041154 
L 360.450605 321.397541 
L 360.601885 322.90834 
L 360.753266 325.782108 
L 360.90543 313.886754 
L 361.207989 319.243178 
L 361.511473 320.504578 
L 361.662724 321.397541 
L 361.813717 325.372831 
L 361.964682 321.955183 
L 362.116747 323.075733 
L 362.267631 322.628606 
L 362.418685 328.761506 
L 362.570944 330.162584 
L 362.722872 338.722644 
L 362.87373 321.308848 
L 363.024647 318.871613 
L 363.176654 318.851076 
L 363.327537 332.420363 
L 363.630642 324.048255 
L 363.781905 331.266088 
L 364.236264 302.316034 
L 364.387188 303.715616 
L 364.53825 306.316995 
L 364.991193 318.530969 
L 365.292717 313.358439 
L 365.443298 313.518251 
L 365.745714 319.796684 
L 365.896419 319.17997 
L 366.19858 329.68569 
L 366.349864 333.092659 
L 366.501073 330.651145 
L 366.651949 316.713115 
L 366.803106 321.397541 
L 366.954513 309.783632 
L 367.105593 314.93445 
L 367.408068 310.397987 
L 367.860724 318.563256 
L 368.162467 297.851206 
L 368.312864 298.365133 
L 368.615454 305.393696 
L 368.76627 316.404758 
L 368.91743 311.20201 
L 369.068382 317.055175 
L 369.219161 305.612264 
L 369.370601 309.128123 
L 369.521296 307.333305 
L 369.6723 316.507445 
L 369.823231 312.319621 
L 369.974805 312.431031 
L 370.125819 303.192415 
L 370.278213 313.690513 
L 370.429155 305.303907 
L 370.579896 316.439052 
L 370.730777 304.99555 
L 370.881718 325.963824 
L 371.03284 315.242216 
L 371.334989 334.939257 
L 371.636793 327.52926 
L 371.787711 319.827727 
L 371.938427 302.17235 
L 372.089358 311.162689 
L 372.24031 300.727925 
L 372.392164 307.411797 
L 372.543145 299.803741 
L 372.69411 312.396117 
L 372.845287 301.44133 
L 373.149259 341.332487 
L 373.300265 352.174167 
L 373.753231 352.174167 
L 374.056452 274.754247 
L 374.207902 275.146182 
L 374.35892 270.845976 
L 374.662144 347.287353 
L 374.813674 333.418391 
L 374.964678 334.015958 
L 375.116186 326.654012 
L 375.421174 341.838811 
L 375.575295 339.176761 
L 375.877759 324.730396 
L 376.028851 322.32084 
L 376.179887 333.074364 
L 376.330743 331.842119 
L 376.4815 324.113682 
L 376.632481 324.086727 
L 376.783773 324.194238 
L 377.086074 324.194238 
L 377.388679 318.319879 
L 377.539874 322.070743 
L 377.69071 320.721755 
L 377.841522 324.113682 
L 377.99371 323.715461 
L 378.145635 322.185423 
L 378.296891 331.842119 
L 378.44791 318.352275 
L 378.599181 321.089775 
L 378.750446 311.818132 
L 378.901481 321.763566 
L 379.05279 317.979359 
L 379.203645 323.551905 
L 379.354446 313.901172 
L 379.657688 308.844887 
L 379.959971 326.039069 
L 380.111564 330.364544 
L 380.413333 306.228978 
L 380.564197 316.404758 
L 380.715126 302.884354 
L 380.866113 307.770762 
L 381.017017 308.429458 
L 381.168083 317.363236 
L 381.318954 314.554616 
L 381.621334 296.776241 
L 381.77324 307.760768 
L 381.924132 305.348845 
L 382.225742 306.845691 
L 382.527969 316.165515 
L 382.678869 315.17133 
L 382.983962 306.053406 
L 383.134958 306.889151 
L 383.28607 315.242216 
L 383.436931 313.629545 
L 383.587841 313.937902 
L 383.889582 304.99555 
L 384.192348 322.90834 
L 384.494791 309.353642 
L 384.645618 310.237618 
L 384.796505 313.629545 
L 384.94743 321.030112 
L 385.249254 315.514868 
L 385.400297 312.126194 
L 385.551176 313.012831 
L 385.702638 312.202841 
L 385.853635 308.779125 
L 386.005439 315.383178 
L 386.157462 305.355006 
L 386.459993 319.796684 
L 386.610736 313.283865 
L 386.762531 315.72455 
L 386.913648 311.818132 
L 387.064804 316.473281 
L 387.216898 306.885044 
L 387.518846 325.680892 
L 387.669799 323.832524 
L 387.820519 332.729016 
L 387.971276 352.174167 
L 388.42473 352.174167 
L 388.727763 236.651168 
L 388.878674 219.399733 
L 389.030509 232.603454 
L 389.181592 322.936373 
L 389.332418 335.831247 
L 389.483288 333.963629 
L 389.634319 341.083959 
L 389.785989 337.764363 
L 389.937392 340.490241 
L 390.089159 333.489909 
L 390.241167 343.605954 
L 390.392611 335.247023 
L 390.543578 333.092659 
L 390.694797 340.775897 
L 390.998436 327.646841 
L 391.149963 330.036201 
L 391.301264 327.268956 
L 391.452662 330.385374 
L 391.603815 324.78297 
L 391.755854 325.857514 
L 391.907879 314.841241 
L 392.059724 318.755685 
L 392.36313 315.076586 
L 392.66619 330.036201 
L 392.817495 313.432728 
L 392.969071 320.565073 
L 393.119743 315.444437 
L 393.270392 326.555952 
L 393.420789 311.662768 
L 393.571099 317.505099 
L 393.721447 310.116531 
L 393.871829 313.171465 
L 394.022532 306.758521 
L 394.325306 319.093842 
L 394.476166 316.130991 
L 394.626794 310.81464 
L 394.777717 314.862973 
L 394.928336 312.049252 
L 395.078983 303.360072 
L 395.229612 305.213771 
L 395.53096 317.638186 
L 395.683147 324.913529 
L 395.834281 322.65688 
L 395.985355 323.244139 
L 396.13626 316.713115 
L 396.28693 301.555044 
L 396.437513 302.433222 
L 396.588073 310.156971 
L 396.738689 307.067471 
L 396.889483 316.061744 
L 397.040046 313.864371 
L 397.191969 321.821601 
L 397.342672 323.496968 
L 397.493229 317.88072 
L 397.644196 319.17997 
L 397.794862 326.247299 
L 397.945518 313.901172 
L 398.096044 316.95387 
L 398.246832 313.246471 
L 398.39913 320.04337 
L 398.550744 301.941081 
L 398.702758 317.256046 
L 398.854213 315.312832 
L 399.157765 302.6238 
L 399.309021 317.704346 
L 399.460005 307.283293 
L 399.610906 317.021472 
L 399.912559 313.937902 
L 400.064552 327.999567 
L 400.215702 323.832524 
L 400.518876 302.389757 
L 400.822036 314.120501 
L 400.97413 314.535233 
L 401.125191 310.237618 
L 401.27659 322.041936 
L 401.429063 314.104502 
L 401.581065 318.207324 
L 401.733217 309.679583 
L 401.884817 316.268692 
L 402.036186 309.969764 
L 402.187152 311.587897 
L 402.338365 308.387476 
L 402.646049 352.174167 
L 403.110493 352.174167 
L 403.26152 268.234382 
L 403.412473 274.159852 
L 403.56339 236.651168 
L 403.714189 237.046528 
L 404.016281 352.174167 
L 404.469645 352.174167 
L 404.621344 351.867575 
L 404.773271 347.885976 
L 404.924967 347.268702 
L 405.077122 352.174167 
L 405.229015 352.174167 
L 405.532317 343.896194 
L 405.684029 352.174167 
L 405.835165 349.712037 
L 405.987049 342.985188 
L 406.138824 350.9478 
L 406.441458 343.274519 
L 406.593172 352.174167 
L 406.897164 335.971196 
L 407.047952 346.623741 
L 407.199051 343.240388 
L 407.652288 319.550944 
L 407.803791 322.65688 
L 408.105552 304.116599 
L 408.257177 306.975821 
L 408.408197 302.931566 
L 408.55976 309.210351 
L 408.71207 310.025403 
L 409.469159 318.28742 
L 409.619998 309.620904 
L 409.771311 313.087853 
L 409.923139 307.454469 
L 410.074417 321.426993 
L 410.375854 314.827131 
L 410.527846 315.793912 
L 410.678688 314.209825 
L 410.829457 314.827131 
L 410.979973 324.05972 
L 411.130939 324.39538 
L 411.281841 306.624761 
L 411.432718 312.357906 
L 411.583921 310.665482 
L 411.887757 302.648105 
L 412.190633 316.848721 
L 412.344241 314.890318 
L 412.496044 316.711061 
L 412.647062 308.737519 
L 412.798601 325.449699 
L 412.950159 311.665426 
L 413.101439 326.346541 
L 413.253114 318.142502 
L 413.405155 321.573408 
L 413.555875 308.921171 
L 413.706709 320.44385 
L 413.859287 314.265329 
L 414.010301 316.507445 
L 414.161476 310.625723 
L 414.312869 320.504578 
L 414.464182 314.698476 
L 414.615916 314.193053 
L 414.767273 307.32621 
L 415.06909 310.625723 
L 415.370453 303.715616 
L 415.521861 312.126194 
L 415.674524 314.40906 
L 415.826809 321.602524 
L 415.979326 317.150075 
L 416.131775 330.550597 
L 416.283471 314.698476 
L 416.434779 317.42986 
L 416.586057 297.803698 
L 416.73727 308.163593 
L 416.887958 306.316995 
L 417.039079 313.050378 
L 417.498671 352.174167 
L 417.811034 352.174167 
L 417.962111 293.334453 
L 418.113198 299.032409 
L 418.263791 256.090727 
L 418.415865 248.437594 
L 418.719052 320.01274 
L 419.021872 325.629993 
L 419.325131 317.021472 
L 419.627133 323.188611 
L 419.928978 315.17133 
L 420.080493 315.005654 
L 420.231848 313.469765 
L 420.384058 316.405344 
L 420.535135 324.140586 
L 420.837359 310.933489 
L 420.988128 318.871613 
L 421.139153 319.211604 
L 421.443367 311.397488 
L 421.594662 316.199973 
L 421.746925 311.43636 
L 421.897782 319.550944 
L 422.048758 318.903543 
L 422.199866 319.488327 
L 422.350799 316.165515 
L 422.501578 315.40912 
L 422.653465 308.067067 
L 422.804693 315.58503 
L 422.957418 308.622471 
L 423.108936 312.930445 
L 423.261218 310.863142 
L 423.412952 312.317262 
L 423.563961 309.394658 
L 423.715022 316.165515 
L 423.866073 310.81464 
L 424.016865 314.282623 
L 424.167833 314.282623 
L 424.318761 311.162689 
L 424.470963 313.34818 
L 424.622783 310.477713 
L 424.774645 311.475158 
L 424.925889 308.471359 
L 425.076764 318.563256 
L 425.22789 314.318918 
L 425.379261 330.057366 
L 425.530265 314.862973 
L 425.832181 311.818132 
L 425.98395 311.665426 
L 426.13554 310.477713 
L 426.287356 318.142502 
L 426.438247 316.439052 
L 426.589963 323.633917 
L 426.741593 321.485727 
L 426.893226 331.019348 
L 427.045551 314.571046 
L 427.197312 320.01274 
L 427.348968 303.947254 
L 427.499755 313.974562 
L 427.650687 309.620904 
L 427.801789 320.474243 
L 427.952489 320.382888 
L 428.104156 330.385374 
L 428.255818 307.369044 
L 428.407938 328.89542 
L 428.559047 325.756877 
L 428.710718 328.828655 
L 429.012903 315.242216 
L 429.164095 299.495679 
L 429.467084 303.119515 
L 429.618903 309.027097 
L 429.771108 298.928846 
L 430.224963 306.668349 
L 430.526647 310.854332 
L 430.831303 306.054867 
L 430.982517 313.776943 
L 431.133565 312.47232 
L 431.284558 315.82293 
L 431.436818 308.415082 
L 431.588415 317.496229 
L 431.739677 303.28616 
L 431.891088 314.391299 
L 432.042819 350.612903 
L 432.201919 352.174167 
L 432.51352 352.174167 
L 432.66419 283.035853 
L 432.815225 278.547509 
L 433.118441 238.753371 
L 433.421365 336.844588 
L 433.572935 344.794845 
L 433.724236 341.115766 
L 433.875716 329.421258 
L 434.026812 335.909293 
L 434.177978 329.069567 
L 434.331715 337.91404 
L 434.484002 329.551151 
L 434.635252 334.374871 
L 434.786348 349.096504 
L 434.938123 327.646841 
L 435.089325 336.170322 
L 435.39227 318.012113 
L 435.543161 320.782009 
L 435.694202 312.704474 
L 435.8468 318.641077 
L 435.998183 312.241054 
L 436.149275 316.439052 
L 436.300409 311.549021 
L 436.45219 320.258189 
L 436.603546 318.691788 
L 436.905305 325.963824 
L 437.056446 331.861594 
L 437.207205 315.788044 
L 437.510267 321.089775 
L 437.662017 319.67546 
L 437.813202 321.14921 
L 437.964112 300.727925 
L 438.268127 309.027097 
L 438.419203 307.240294 
L 438.570523 322.32084 
L 438.721908 322.992277 
L 438.872837 319.17997 
L 439.02374 308.737519 
L 439.17535 309.128123 
L 439.477195 304.378836 
L 439.778691 312.975212 
L 439.929586 305.920621 
L 440.080285 314.518478 
L 440.23163 311.280425 
L 440.533323 317.329829 
L 440.68436 310.277826 
L 440.835101 309.88868 
L 440.986249 308.471359 
L 441.137191 305.920621 
L 441.28813 314.93445 
L 441.439723 314.355143 
L 441.591033 312.241054 
L 441.894366 328.783932 
L 442.19677 306.624761 
L 442.347233 312.628571 
L 442.499011 305.265656 
L 442.801304 306.975821 
L 442.951854 312.281262 
L 443.104364 312.201381 
L 443.406038 313.555421 
L 443.557257 306.624761 
L 443.70805 320.413398 
L 444.162299 307.019032 
L 444.465355 315.111951 
L 444.616925 314.769995 
L 444.76794 312.164554 
L 445.069964 331.205892 
L 445.522509 304.424661 
L 445.824086 318.530969 
L 445.975398 339.55575 
L 446.126562 332.803447 
L 446.277617 333.998548 
L 446.579541 299.445124 
L 446.881247 352.174167 
L 447.182957 352.174167 
L 447.636895 233.716788 
L 447.788648 240.574835 
L 448.09038 304.378836 
L 448.24114 305.303907 
L 448.391935 300.629085 
L 448.542984 313.6665 
L 448.693844 309.929261 
L 448.845919 310.557135 
L 448.997877 306.535571 
L 449.149807 315.147249 
L 449.301186 306.360878 
L 449.452869 315.654923 
L 449.604826 310.251127 
L 449.759756 320.856427 
L 450.061909 315.892501 
L 450.21322 305.393696 
L 450.364279 313.125256 
L 450.515205 309.88868 
L 450.967919 317.329829 
L 451.118797 320.105041 
L 451.269955 330.938295 
L 451.420986 329.70723 
L 451.571865 317.296357 
L 451.72345 314.427385 
L 451.874469 315.514868 
L 452.025519 302.268231 
L 452.327564 328.122323 
L 452.478436 324.422039 
L 452.62929 303.453765 
L 452.780018 304.99555 
L 452.931711 304.913969 
L 453.083047 298.674084 
L 453.234989 308.067067 
L 453.385914 304.116599 
L 453.536781 318.563256 
L 453.68773 321.338469 
L 453.838455 326.580538 
L 453.989078 321.58812 
L 454.140141 333.672748 
L 454.442272 308.079119 
L 454.593627 303.426107 
L 455.503903 323.661151 
L 455.65555 338.990729 
L 455.95803 316.575576 
L 456.26049 311.241255 
L 456.411691 315.788044 
L 456.562855 328.739037 
L 456.713521 315.58503 
L 456.864622 323.188611 
L 457.015465 314.282623 
L 457.317704 330.280821 
L 457.469023 328.260024 
L 457.771488 335.862555 
L 458.073851 328.761506 
L 458.224794 329.091698 
L 458.375491 332.420363 
L 458.526003 323.75077 
L 458.677526 324.809182 
L 458.828649 315.892501 
L 458.979688 313.974562 
L 459.131584 305.004074 
L 459.284419 318.609232 
L 459.43604 304.697775 
L 459.738257 324.50171 
L 459.889117 323.496968 
L 460.04015 313.012831 
L 460.191145 317.704346 
L 460.343501 309.985299 
L 460.495413 313.617211 
L 460.647341 305.004074 
L 460.80005 313.385087 
L 460.951719 301.730956 
L 461.103557 314.805652 
L 461.255772 308.151001 
L 461.563731 348.985006 
L 461.723419 352.174167 
L 461.88289 352.174167 
L 462.037769 340.512559 
L 462.340313 241.176869 
L 462.643246 254.49163 
L 462.794113 335.52289 
L 462.945235 332.15018 
L 463.096665 339.579877 
L 463.249866 329.397137 
L 463.400892 337.681389 
L 463.551848 330.322763 
L 464.005203 342.958833 
L 464.156108 330.897535 
L 464.30799 330.385374 
L 464.459687 321.792611 
L 464.611007 323.047967 
L 464.913597 319.951305 
L 465.064882 319.827727 
L 465.215875 318.044804 
L 465.366711 321.617501 
L 465.517755 321.984156 
L 465.668895 321.676095 
L 465.820044 315.62001 
L 465.973565 319.040233 
L 466.125359 319.768225 
L 466.276348 335.846916 
L 466.427132 325.012686 
L 466.578332 329.377628 
L 467.03064 311.162689 
L 467.181651 314.246259 
L 467.332506 301.344047 
L 467.483709 312.47232 
L 467.634889 310.01019 
L 467.78574 310.585887 
L 468.08743 322.852114 
L 468.239475 323.661151 
L 468.390454 319.85871 
L 468.541263 320.44385 
L 468.692048 323.160767 
L 468.843854 314.463403 
L 468.996052 327.716852 
L 469.149357 316.338306 
L 469.301389 317.62821 
L 469.605258 338.390698 
L 469.756999 332.877311 
L 469.908678 314.156812 
L 470.060485 311.358541 
L 470.211862 306.404676 
L 470.363138 317.737332 
L 470.514275 308.163593 
L 470.666094 316.949747 
L 470.81836 314.876762 
L 470.970046 319.982052 
L 471.121787 315.68977 
L 471.273642 305.310374 
L 471.425457 319.982052 
L 471.576885 311.587897 
L 471.728798 312.087173 
L 471.879819 305.964967 
L 472.031839 308.985965 
L 472.335606 305.616673 
L 472.790897 314.805652 
L 472.942966 316.405344 
L 473.094893 305.616673 
L 473.246355 313.162587 
L 473.398284 307.760768 
L 473.55006 316.949747 
L 473.701886 312.967856 
L 473.853666 312.930445 
L 474.005514 307.411797 
L 474.157326 312.048958 
L 474.309157 312.317262 
L 474.461072 315.111951 
L 474.612436 321.763566 
L 474.763888 312.892963 
L 474.915032 312.704474 
L 475.066928 317.289302 
L 475.371103 311.16915 
L 475.52307 319.431355 
L 475.675165 310.863142 
L 475.826937 316.677286 
L 475.978906 309.251347 
L 476.130115 315.892501 
L 476.282454 350.397021 
L 476.43471 352.174167 
L 476.742017 352.174167 
L 476.894724 318.945923 
L 477.200337 300.448452 
L 477.35231 274.986743 
L 477.503484 310.317956 
L 477.654425 301.035986 
L 477.805531 326.321801 
L 477.95688 302.6238 
L 478.108212 332.803447 
L 478.260222 311.513882 
L 478.412146 326.113883 
L 478.564177 317.595309 
L 478.715657 327.930299 
L 478.867402 328.873207 
L 479.323083 305.310374 
L 479.474978 309.292264 
L 479.626847 319.368868 
L 479.778585 300.715884 
L 479.930234 301.231356 
L 480.081936 311.742659 
L 480.233832 312.661557 
L 480.385448 319.920499 
L 480.536648 321.426993 
L 480.688413 316.609544 
L 480.840542 318.851076 
L 481.295625 334.085264 
L 481.599202 303.732698 
L 481.751187 317.562346 
L 481.903261 313.385087 
L 482.054956 321.178842 
L 482.20584 322.880254 
L 482.357871 319.737362 
L 482.509726 311.13006 
L 482.66156 325.832427 
L 482.813219 316.882461 
L 482.965061 318.787543 
L 483.116943 310.211162 
L 483.268182 316.814917 
L 483.419144 296.669911 
L 483.569929 329.664108 
L 483.721893 322.099495 
L 483.873777 320.073942 
L 484.025437 312.586079 
L 484.177148 329.792982 
L 484.328845 326.420475 
L 484.480813 346.048181 
L 484.632381 326.727066 
L 484.783456 326.580538 
L 484.93522 316.030849 
L 485.086962 316.609544 
L 485.238782 317.868645 
L 485.390682 320.625339 
L 485.542567 321.237937 
L 485.69443 307.718389 
L 485.846291 311.742659 
L 485.99821 319.093842 
L 486.149576 319.920499 
L 486.301634 324.327476 
L 486.453395 321.51501 
L 486.604759 302.671217 
L 486.90858 312.85541 
L 487.06005 303.072663 
L 487.211866 311.704079 
L 487.363845 312.355257 
L 487.515396 315.041154 
L 487.666687 321.368034 
L 487.969911 317.933927 
L 488.122497 320.440046 
L 488.274281 318.513332 
L 488.426243 324.887517 
L 488.578325 321.2674 
L 488.730394 330.14162 
L 488.882594 324.659688 
L 489.035006 331.691166 
L 489.186708 317.901317 
L 489.33762 321.676095 
L 489.641429 304.652473 
L 489.793425 306.579036 
L 489.944862 314.355143 
L 490.095726 328.476165 
L 490.247646 328.873207 
L 490.400099 330.204391 
L 490.551176 335.862555 
L 490.854538 324.809182 
L 491.006076 352.174167 
L 491.323428 352.174167 
L 491.48172 351.550268 
L 491.632796 310.317956 
L 491.935751 297.652891 
L 492.086619 300.061838 
L 492.237861 305.040783 
L 492.389149 306.360878 
L 492.540424 303.593632 
L 492.691613 307.898236 
L 492.84286 316.747114 
L 493.146078 312.967856 
L 493.451543 326.212972 
L 493.60242 309.929261 
L 493.753237 311.818132 
L 493.904366 319.827727 
L 494.206834 310.317956 
L 494.358113 316.165515 
L 494.509818 316.541543 
L 494.662107 314.373229 
L 494.965251 329.091698 
L 495.116596 331.266088 
L 495.268621 314.876762 
L 495.420006 317.122388 
L 495.571009 313.974562 
L 495.571009 313.974562 
" style="fill:none;stroke:#1f77b4;stroke-linecap:square;stroke-width:1.5;"/>
   </g>
   <g id="patch_3">
    <path d="M 66.158594 352.174167 
L 66.158594 35.0625 
" style="fill:none;stroke:#000000;stroke-linecap:square;stroke-linejoin:miter;stroke-width:0.8;"/>
   </g>
   <g id="patch_4">
    <path d="M 516.019219 352.174167 
L 516.019219 35.0625 
" style="fill:none;stroke:#000000;stroke-linecap:square;stroke-linejoin:miter;stroke-width:0.8;"/>
   </g>
   <g id="patch_5">
    <path d="M 66.158594 352.174167 
L 516.019219 352.174167 
" style="fill:none;stroke:#000000;stroke-linecap:square;stroke-linejoin:miter;stroke-width:0.8;"/>
   </g>
   <g id="patch_6">
    <path d="M 66.158594 35.0625 
L 516.019219 35.0625 
" style="fill:none;stroke:#000000;stroke-linecap:square;stroke-linejoin:miter;stroke-width:0.8;"/>
   </g>
   <g id="legend_1">
    <g id="patch_7">
     <path d="M 540.51225 53.01875 
L 620.748187 53.01875 
Q 622.748187 53.01875 622.748187 51.01875 
L 622.748187 37.0625 
Q 622.748187 35.0625 620.748187 35.0625 
L 540.51225 35.0625 
Q 538.51225 35.0625 538.51225 37.0625 
L 538.51225 51.01875 
Q 538.51225 53.01875 540.51225 53.01875 
z
" style="fill:#ffffff;opacity:0.8;stroke:#cccccc;stroke-linejoin:miter;"/>
    </g>
    <g id="line2d_13">
     <path d="M 542.51225 43.160937 
L 562.51225 43.160937 
" style="fill:none;stroke:#1f77b4;stroke-linecap:square;stroke-width:1.5;"/>
    </g>
    <g id="line2d_14"/>
    <g id="text_13">
     <!-- drop_rate -->
     <defs>
      <path d="M 50.984375 -16.609375 
L 50.984375 -23.578125 
L -0.984375 -23.578125 
L -0.984375 -16.609375 
z
" id="DejaVuSans-95"/>
     </defs>
     <g transform="translate(570.51225 46.660937)scale(0.1 -0.1)">
      <use xlink:href="#DejaVuSans-100"/>
      <use x="63.476562" xlink:href="#DejaVuSans-114"/>
      <use x="104.558594" xlink:href="#DejaVuSans-111"/>
      <use x="165.740234" xlink:href="#DejaVuSans-112"/>
      <use x="229.216797" xlink:href="#DejaVuSans-95"/>
      <use x="279.216797" xlink:href="#DejaVuSans-114"/>
      <use x="320.330078" xlink:href="#DejaVuSans-97"/>
      <use x="381.609375" xlink:href="#DejaVuSans-116"/>
      <use x="420.818359" xlink:href="#DejaVuSans-101"/>
     </g>
    </g>
   </g>
  </g>
  <g id="text_14">
   <!-- result droprate -->
   <defs>
    <path d="M 44.28125 53.078125 
L 44.28125 44.578125 
Q 40.484375 46.53125 36.375 47.5 
Q 32.28125 48.484375 27.875 48.484375 
Q 21.1875 48.484375 17.84375 46.4375 
Q 14.5 44.390625 14.5 40.28125 
Q 14.5 37.15625 16.890625 35.375 
Q 19.28125 33.59375 26.515625 31.984375 
L 29.59375 31.296875 
Q 39.15625 29.25 43.1875 25.515625 
Q 47.21875 21.78125 47.21875 15.09375 
Q 47.21875 7.46875 41.1875 3.015625 
Q 35.15625 -1.421875 24.609375 -1.421875 
Q 20.21875 -1.421875 15.453125 -0.5625 
Q 10.6875 0.296875 5.421875 2 
L 5.421875 11.28125 
Q 10.40625 8.6875 15.234375 7.390625 
Q 20.0625 6.109375 24.8125 6.109375 
Q 31.15625 6.109375 34.5625 8.28125 
Q 37.984375 10.453125 37.984375 14.40625 
Q 37.984375 18.0625 35.515625 20.015625 
Q 33.0625 21.96875 24.703125 23.78125 
L 21.578125 24.515625 
Q 13.234375 26.265625 9.515625 29.90625 
Q 5.8125 33.546875 5.8125 39.890625 
Q 5.8125 47.609375 11.28125 51.796875 
Q 16.75 56 26.8125 56 
Q 31.78125 56 36.171875 55.265625 
Q 40.578125 54.546875 44.28125 53.078125 
z
" id="DejaVuSans-115"/>
    <path d="M 8.5 21.578125 
L 8.5 54.6875 
L 17.484375 54.6875 
L 17.484375 21.921875 
Q 17.484375 14.15625 20.5 10.265625 
Q 23.53125 6.390625 29.59375 6.390625 
Q 36.859375 6.390625 41.078125 11.03125 
Q 45.3125 15.671875 45.3125 23.6875 
L 45.3125 54.6875 
L 54.296875 54.6875 
L 54.296875 0 
L 45.3125 0 
L 45.3125 8.40625 
Q 42.046875 3.421875 37.71875 1 
Q 33.40625 -1.421875 27.6875 -1.421875 
Q 18.265625 -1.421875 13.375 4.4375 
Q 8.5 10.296875 8.5 21.578125 
z
M 31.109375 56 
z
" id="DejaVuSans-117"/>
    <path d="M 9.421875 75.984375 
L 18.40625 75.984375 
L 18.40625 0 
L 9.421875 0 
z
" id="DejaVuSans-108"/>
    <path id="DejaVuSans-32"/>
   </defs>
   <g transform="translate(297.047813 17.038125)scale(0.12 -0.12)">
    <use xlink:href="#DejaVuSans-114"/>
    <use x="41.082031" xlink:href="#DejaVuSans-101"/>
    <use x="102.605469" xlink:href="#DejaVuSans-115"/>
    <use x="154.705078" xlink:href="#DejaVuSans-117"/>
    <use x="218.083984" xlink:href="#DejaVuSans-108"/>
    <use x="245.867188" xlink:href="#DejaVuSans-116"/>
    <use x="285.076172" xlink:href="#DejaVuSans-32"/>
    <use x="316.863281" xlink:href="#DejaVuSans-100"/>
    <use x="380.339844" xlink:href="#DejaVuSans-114"/>
    <use x="421.421875" xlink:href="#DejaVuSans-111"/>
    <use x="482.603516" xlink:href="#DejaVuSans-112"/>
    <use x="546.080078" xlink:href="#DejaVuSans-114"/>
    <use x="587.193359" xlink:href="#DejaVuSans-97"/>
    <use x="648.472656" xlink:href="#DejaVuSans-116"/>
    <use x="687.681641" xlink:href="#DejaVuSans-101"/>
   </g>
  </g>
 </g>
 <defs>
  <clipPath id="p6074a70ced">
   <rect height="317.111667" width="449.860625" x="66.158594" y="35.0625"/>
  </clipPath>
 </defs>
</svg>
