<?xml version="1.0" encoding="utf-8" standalone="no"?>
<!DOCTYPE svg PUBLIC "-//W3C//DTD SVG 1.1//EN"
  "http://www.w3.org/Graphics/SVG/1.1/DTD/svg11.dtd">
<!-- Created with matplotlib (https://matplotlib.org/) -->
<svg height="396pt" version="1.1" viewBox="0 0 684 396" width="684pt" xmlns="http://www.w3.org/2000/svg" xmlns:xlink="http://www.w3.org/1999/xlink">
 <defs>
  <style type="text/css">
*{stroke-linecap:butt;stroke-linejoin:round;}
  </style>
 </defs>
 <g id="figure_1">
  <g id="patch_1">
   <path d="M 0 396 
L 684 396 
L 684 0 
L 0 0 
z
" style="fill:#ffffff;"/>
  </g>
  <g id="axes_1">
   <g id="patch_2">
    <path d="M 66.158594 352.174167 
L 516.019219 352.174167 
L 516.019219 35.0625 
L 66.158594 35.0625 
z
" style="fill:#ffffff;"/>
   </g>
   <g id="matplotlib.axis_1">
    <g id="xtick_1">
     <g id="line2d_1">
      <defs>
       <path d="M 0 0 
L 0 3.5 
" id="m99692d1159" style="stroke:#000000;stroke-width:0.8;"/>
      </defs>
      <g>
       <use style="stroke:#000000;stroke-width:0.8;" x="91.659257" xlink:href="#m99692d1159" y="352.174167"/>
      </g>
     </g>
     <g id="text_1">
      <!-- 0 -->
      <defs>
       <path d="M 31.78125 66.40625 
Q 24.171875 66.40625 20.328125 58.90625 
Q 16.5 51.421875 16.5 36.375 
Q 16.5 21.390625 20.328125 13.890625 
Q 24.171875 6.390625 31.78125 6.390625 
Q 39.453125 6.390625 43.28125 13.890625 
Q 47.125 21.390625 47.125 36.375 
Q 47.125 51.421875 43.28125 58.90625 
Q 39.453125 66.40625 31.78125 66.40625 
z
M 31.78125 74.21875 
Q 44.046875 74.21875 50.515625 64.515625 
Q 56.984375 54.828125 56.984375 36.375 
Q 56.984375 17.96875 50.515625 8.265625 
Q 44.046875 -1.421875 31.78125 -1.421875 
Q 19.53125 -1.421875 13.0625 8.265625 
Q 6.59375 17.96875 6.59375 36.375 
Q 6.59375 54.828125 13.0625 64.515625 
Q 19.53125 74.21875 31.78125 74.21875 
z
" id="DejaVuSans-48"/>
      </defs>
      <g transform="translate(88.478007 366.772604)scale(0.1 -0.1)">
       <use xlink:href="#DejaVuSans-48"/>
      </g>
     </g>
    </g>
    <g id="xtick_2">
     <g id="line2d_2">
      <g>
       <use style="stroke:#000000;stroke-width:0.8;" x="161.318886" xlink:href="#m99692d1159" y="352.174167"/>
      </g>
     </g>
     <g id="text_2">
      <!-- 50 -->
      <defs>
       <path d="M 10.796875 72.90625 
L 49.515625 72.90625 
L 49.515625 64.59375 
L 19.828125 64.59375 
L 19.828125 46.734375 
Q 21.96875 47.46875 24.109375 47.828125 
Q 26.265625 48.1875 28.421875 48.1875 
Q 40.625 48.1875 47.75 41.5 
Q 54.890625 34.8125 54.890625 23.390625 
Q 54.890625 11.625 47.5625 5.09375 
Q 40.234375 -1.421875 26.90625 -1.421875 
Q 22.3125 -1.421875 17.546875 -0.640625 
Q 12.796875 0.140625 7.71875 1.703125 
L 7.71875 11.625 
Q 12.109375 9.234375 16.796875 8.0625 
Q 21.484375 6.890625 26.703125 6.890625 
Q 35.15625 6.890625 40.078125 11.328125 
Q 45.015625 15.765625 45.015625 23.390625 
Q 45.015625 31 40.078125 35.4375 
Q 35.15625 39.890625 26.703125 39.890625 
Q 22.75 39.890625 18.8125 39.015625 
Q 14.890625 38.140625 10.796875 36.28125 
z
" id="DejaVuSans-53"/>
      </defs>
      <g transform="translate(154.956386 366.772604)scale(0.1 -0.1)">
       <use xlink:href="#DejaVuSans-53"/>
       <use x="63.623047" xlink:href="#DejaVuSans-48"/>
      </g>
     </g>
    </g>
    <g id="xtick_3">
     <g id="line2d_3">
      <g>
       <use style="stroke:#000000;stroke-width:0.8;" x="230.978515" xlink:href="#m99692d1159" y="352.174167"/>
      </g>
     </g>
     <g id="text_3">
      <!-- 100 -->
      <defs>
       <path d="M 12.40625 8.296875 
L 28.515625 8.296875 
L 28.515625 63.921875 
L 10.984375 60.40625 
L 10.984375 69.390625 
L 28.421875 72.90625 
L 38.28125 72.90625 
L 38.28125 8.296875 
L 54.390625 8.296875 
L 54.390625 0 
L 12.40625 0 
z
" id="DejaVuSans-49"/>
      </defs>
      <g transform="translate(221.434765 366.772604)scale(0.1 -0.1)">
       <use xlink:href="#DejaVuSans-49"/>
       <use x="63.623047" xlink:href="#DejaVuSans-48"/>
       <use x="127.246094" xlink:href="#DejaVuSans-48"/>
      </g>
     </g>
    </g>
    <g id="xtick_4">
     <g id="line2d_4">
      <g>
       <use style="stroke:#000000;stroke-width:0.8;" x="300.638143" xlink:href="#m99692d1159" y="352.174167"/>
      </g>
     </g>
     <g id="text_4">
      <!-- 150 -->
      <g transform="translate(291.094393 366.772604)scale(0.1 -0.1)">
       <use xlink:href="#DejaVuSans-49"/>
       <use x="63.623047" xlink:href="#DejaVuSans-53"/>
       <use x="127.246094" xlink:href="#DejaVuSans-48"/>
      </g>
     </g>
    </g>
    <g id="xtick_5">
     <g id="line2d_5">
      <g>
       <use style="stroke:#000000;stroke-width:0.8;" x="370.297772" xlink:href="#m99692d1159" y="352.174167"/>
      </g>
     </g>
     <g id="text_5">
      <!-- 200 -->
      <defs>
       <path d="M 19.1875 8.296875 
L 53.609375 8.296875 
L 53.609375 0 
L 7.328125 0 
L 7.328125 8.296875 
Q 12.9375 14.109375 22.625 23.890625 
Q 32.328125 33.6875 34.8125 36.53125 
Q 39.546875 41.84375 41.421875 45.53125 
Q 43.3125 49.21875 43.3125 52.78125 
Q 43.3125 58.59375 39.234375 62.25 
Q 35.15625 65.921875 28.609375 65.921875 
Q 23.96875 65.921875 18.8125 64.3125 
Q 13.671875 62.703125 7.8125 59.421875 
L 7.8125 69.390625 
Q 13.765625 71.78125 18.9375 73 
Q 24.125 74.21875 28.421875 74.21875 
Q 39.75 74.21875 46.484375 68.546875 
Q 53.21875 62.890625 53.21875 53.421875 
Q 53.21875 48.921875 51.53125 44.890625 
Q 49.859375 40.875 45.40625 35.40625 
Q 44.1875 33.984375 37.640625 27.21875 
Q 31.109375 20.453125 19.1875 8.296875 
z
" id="DejaVuSans-50"/>
      </defs>
      <g transform="translate(360.754022 366.772604)scale(0.1 -0.1)">
       <use xlink:href="#DejaVuSans-50"/>
       <use x="63.623047" xlink:href="#DejaVuSans-48"/>
       <use x="127.246094" xlink:href="#DejaVuSans-48"/>
      </g>
     </g>
    </g>
    <g id="xtick_6">
     <g id="line2d_6">
      <g>
       <use style="stroke:#000000;stroke-width:0.8;" x="439.957401" xlink:href="#m99692d1159" y="352.174167"/>
      </g>
     </g>
     <g id="text_6">
      <!-- 250 -->
      <g transform="translate(430.413651 366.772604)scale(0.1 -0.1)">
       <use xlink:href="#DejaVuSans-50"/>
       <use x="63.623047" xlink:href="#DejaVuSans-53"/>
       <use x="127.246094" xlink:href="#DejaVuSans-48"/>
      </g>
     </g>
    </g>
    <g id="xtick_7">
     <g id="line2d_7">
      <g>
       <use style="stroke:#000000;stroke-width:0.8;" x="509.617029" xlink:href="#m99692d1159" y="352.174167"/>
      </g>
     </g>
     <g id="text_7">
      <!-- 300 -->
      <defs>
       <path d="M 40.578125 39.3125 
Q 47.65625 37.796875 51.625 33 
Q 55.609375 28.21875 55.609375 21.1875 
Q 55.609375 10.40625 48.1875 4.484375 
Q 40.765625 -1.421875 27.09375 -1.421875 
Q 22.515625 -1.421875 17.65625 -0.515625 
Q 12.796875 0.390625 7.625 2.203125 
L 7.625 11.71875 
Q 11.71875 9.328125 16.59375 8.109375 
Q 21.484375 6.890625 26.8125 6.890625 
Q 36.078125 6.890625 40.9375 10.546875 
Q 45.796875 14.203125 45.796875 21.1875 
Q 45.796875 27.640625 41.28125 31.265625 
Q 36.765625 34.90625 28.71875 34.90625 
L 20.21875 34.90625 
L 20.21875 43.015625 
L 29.109375 43.015625 
Q 36.375 43.015625 40.234375 45.921875 
Q 44.09375 48.828125 44.09375 54.296875 
Q 44.09375 59.90625 40.109375 62.90625 
Q 36.140625 65.921875 28.71875 65.921875 
Q 24.65625 65.921875 20.015625 65.03125 
Q 15.375 64.15625 9.8125 62.3125 
L 9.8125 71.09375 
Q 15.4375 72.65625 20.34375 73.4375 
Q 25.25 74.21875 29.59375 74.21875 
Q 40.828125 74.21875 47.359375 69.109375 
Q 53.90625 64.015625 53.90625 55.328125 
Q 53.90625 49.265625 50.4375 45.09375 
Q 46.96875 40.921875 40.578125 39.3125 
z
" id="DejaVuSans-51"/>
      </defs>
      <g transform="translate(500.073279 366.772604)scale(0.1 -0.1)">
       <use xlink:href="#DejaVuSans-51"/>
       <use x="63.623047" xlink:href="#DejaVuSans-48"/>
       <use x="127.246094" xlink:href="#DejaVuSans-48"/>
      </g>
     </g>
    </g>
   </g>
   <g id="matplotlib.axis_2">
    <g id="ytick_1">
     <g id="line2d_8">
      <defs>
       <path d="M 0 0 
L -3.5 0 
" id="mc0ce1daedd" style="stroke:#000000;stroke-width:0.8;"/>
      </defs>
      <g>
       <use style="stroke:#000000;stroke-width:0.8;" x="66.158594" xlink:href="#mc0ce1daedd" y="352.174167"/>
      </g>
     </g>
     <g id="text_8">
      <!-- 0 -->
      <g transform="translate(52.796094 355.973385)scale(0.1 -0.1)">
       <use xlink:href="#DejaVuSans-48"/>
      </g>
     </g>
    </g>
    <g id="ytick_2">
     <g id="line2d_9">
      <g>
       <use style="stroke:#000000;stroke-width:0.8;" x="66.158594" xlink:href="#mc0ce1daedd" y="294.082412"/>
      </g>
     </g>
     <g id="text_9">
      <!-- 10 -->
      <g transform="translate(46.433594 297.881631)scale(0.1 -0.1)">
       <use xlink:href="#DejaVuSans-49"/>
       <use x="63.623047" xlink:href="#DejaVuSans-48"/>
      </g>
     </g>
    </g>
    <g id="ytick_3">
     <g id="line2d_10">
      <g>
       <use style="stroke:#000000;stroke-width:0.8;" x="66.158594" xlink:href="#mc0ce1daedd" y="235.990657"/>
      </g>
     </g>
     <g id="text_10">
      <!-- 20 -->
      <g transform="translate(46.433594 239.789876)scale(0.1 -0.1)">
       <use xlink:href="#DejaVuSans-50"/>
       <use x="63.623047" xlink:href="#DejaVuSans-48"/>
      </g>
     </g>
    </g>
    <g id="ytick_4">
     <g id="line2d_11">
      <g>
       <use style="stroke:#000000;stroke-width:0.8;" x="66.158594" xlink:href="#mc0ce1daedd" y="177.898903"/>
      </g>
     </g>
     <g id="text_11">
      <!-- 30 -->
      <g transform="translate(46.433594 181.698121)scale(0.1 -0.1)">
       <use xlink:href="#DejaVuSans-51"/>
       <use x="63.623047" xlink:href="#DejaVuSans-48"/>
      </g>
     </g>
    </g>
    <g id="ytick_5">
     <g id="line2d_12">
      <g>
       <use style="stroke:#000000;stroke-width:0.8;" x="66.158594" xlink:href="#mc0ce1daedd" y="119.807148"/>
      </g>
     </g>
     <g id="text_12">
      <!-- 40 -->
      <defs>
       <path d="M 37.796875 64.3125 
L 12.890625 25.390625 
L 37.796875 25.390625 
z
M 35.203125 72.90625 
L 47.609375 72.90625 
L 47.609375 25.390625 
L 58.015625 25.390625 
L 58.015625 17.1875 
L 47.609375 17.1875 
L 47.609375 0 
L 37.796875 0 
L 37.796875 17.1875 
L 4.890625 17.1875 
L 4.890625 26.703125 
z
" id="DejaVuSans-52"/>
      </defs>
      <g transform="translate(46.433594 123.606367)scale(0.1 -0.1)">
       <use xlink:href="#DejaVuSans-52"/>
       <use x="63.623047" xlink:href="#DejaVuSans-48"/>
      </g>
     </g>
    </g>
    <g id="ytick_6">
     <g id="line2d_13">
      <g>
       <use style="stroke:#000000;stroke-width:0.8;" x="66.158594" xlink:href="#mc0ce1daedd" y="61.715393"/>
      </g>
     </g>
     <g id="text_13">
      <!-- 50 -->
      <g transform="translate(46.433594 65.514612)scale(0.1 -0.1)">
       <use xlink:href="#DejaVuSans-53"/>
       <use x="63.623047" xlink:href="#DejaVuSans-48"/>
      </g>
     </g>
    </g>
    <g id="text_14">
     <!-- droprate -->
     <defs>
      <path d="M 45.40625 46.390625 
L 45.40625 75.984375 
L 54.390625 75.984375 
L 54.390625 0 
L 45.40625 0 
L 45.40625 8.203125 
Q 42.578125 3.328125 38.25 0.953125 
Q 33.9375 -1.421875 27.875 -1.421875 
Q 17.96875 -1.421875 11.734375 6.484375 
Q 5.515625 14.40625 5.515625 27.296875 
Q 5.515625 40.1875 11.734375 48.09375 
Q 17.96875 56 27.875 56 
Q 33.9375 56 38.25 53.625 
Q 42.578125 51.265625 45.40625 46.390625 
z
M 14.796875 27.296875 
Q 14.796875 17.390625 18.875 11.75 
Q 22.953125 6.109375 30.078125 6.109375 
Q 37.203125 6.109375 41.296875 11.75 
Q 45.40625 17.390625 45.40625 27.296875 
Q 45.40625 37.203125 41.296875 42.84375 
Q 37.203125 48.484375 30.078125 48.484375 
Q 22.953125 48.484375 18.875 42.84375 
Q 14.796875 37.203125 14.796875 27.296875 
z
" id="DejaVuSans-100"/>
      <path d="M 41.109375 46.296875 
Q 39.59375 47.171875 37.8125 47.578125 
Q 36.03125 48 33.890625 48 
Q 26.265625 48 22.1875 43.046875 
Q 18.109375 38.09375 18.109375 28.8125 
L 18.109375 0 
L 9.078125 0 
L 9.078125 54.6875 
L 18.109375 54.6875 
L 18.109375 46.1875 
Q 20.953125 51.171875 25.484375 53.578125 
Q 30.03125 56 36.53125 56 
Q 37.453125 56 38.578125 55.875 
Q 39.703125 55.765625 41.0625 55.515625 
z
" id="DejaVuSans-114"/>
      <path d="M 30.609375 48.390625 
Q 23.390625 48.390625 19.1875 42.75 
Q 14.984375 37.109375 14.984375 27.296875 
Q 14.984375 17.484375 19.15625 11.84375 
Q 23.34375 6.203125 30.609375 6.203125 
Q 37.796875 6.203125 41.984375 11.859375 
Q 46.1875 17.53125 46.1875 27.296875 
Q 46.1875 37.015625 41.984375 42.703125 
Q 37.796875 48.390625 30.609375 48.390625 
z
M 30.609375 56 
Q 42.328125 56 49.015625 48.375 
Q 55.71875 40.765625 55.71875 27.296875 
Q 55.71875 13.875 49.015625 6.21875 
Q 42.328125 -1.421875 30.609375 -1.421875 
Q 18.84375 -1.421875 12.171875 6.21875 
Q 5.515625 13.875 5.515625 27.296875 
Q 5.515625 40.765625 12.171875 48.375 
Q 18.84375 56 30.609375 56 
z
" id="DejaVuSans-111"/>
      <path d="M 18.109375 8.203125 
L 18.109375 -20.796875 
L 9.078125 -20.796875 
L 9.078125 54.6875 
L 18.109375 54.6875 
L 18.109375 46.390625 
Q 20.953125 51.265625 25.265625 53.625 
Q 29.59375 56 35.59375 56 
Q 45.5625 56 51.78125 48.09375 
Q 58.015625 40.1875 58.015625 27.296875 
Q 58.015625 14.40625 51.78125 6.484375 
Q 45.5625 -1.421875 35.59375 -1.421875 
Q 29.59375 -1.421875 25.265625 0.953125 
Q 20.953125 3.328125 18.109375 8.203125 
z
M 48.6875 27.296875 
Q 48.6875 37.203125 44.609375 42.84375 
Q 40.53125 48.484375 33.40625 48.484375 
Q 26.265625 48.484375 22.1875 42.84375 
Q 18.109375 37.203125 18.109375 27.296875 
Q 18.109375 17.390625 22.1875 11.75 
Q 26.265625 6.109375 33.40625 6.109375 
Q 40.53125 6.109375 44.609375 11.75 
Q 48.6875 17.390625 48.6875 27.296875 
z
" id="DejaVuSans-112"/>
      <path d="M 34.28125 27.484375 
Q 23.390625 27.484375 19.1875 25 
Q 14.984375 22.515625 14.984375 16.5 
Q 14.984375 11.71875 18.140625 8.90625 
Q 21.296875 6.109375 26.703125 6.109375 
Q 34.1875 6.109375 38.703125 11.40625 
Q 43.21875 16.703125 43.21875 25.484375 
L 43.21875 27.484375 
z
M 52.203125 31.203125 
L 52.203125 0 
L 43.21875 0 
L 43.21875 8.296875 
Q 40.140625 3.328125 35.546875 0.953125 
Q 30.953125 -1.421875 24.3125 -1.421875 
Q 15.921875 -1.421875 10.953125 3.296875 
Q 6 8.015625 6 15.921875 
Q 6 25.140625 12.171875 29.828125 
Q 18.359375 34.515625 30.609375 34.515625 
L 43.21875 34.515625 
L 43.21875 35.40625 
Q 43.21875 41.609375 39.140625 45 
Q 35.0625 48.390625 27.6875 48.390625 
Q 23 48.390625 18.546875 47.265625 
Q 14.109375 46.140625 10.015625 43.890625 
L 10.015625 52.203125 
Q 14.9375 54.109375 19.578125 55.046875 
Q 24.21875 56 28.609375 56 
Q 40.484375 56 46.34375 49.84375 
Q 52.203125 43.703125 52.203125 31.203125 
z
" id="DejaVuSans-97"/>
      <path d="M 18.3125 70.21875 
L 18.3125 54.6875 
L 36.8125 54.6875 
L 36.8125 47.703125 
L 18.3125 47.703125 
L 18.3125 18.015625 
Q 18.3125 11.328125 20.140625 9.421875 
Q 21.96875 7.515625 27.59375 7.515625 
L 36.8125 7.515625 
L 36.8125 0 
L 27.59375 0 
Q 17.1875 0 13.234375 3.875 
Q 9.28125 7.765625 9.28125 18.015625 
L 9.28125 47.703125 
L 2.6875 47.703125 
L 2.6875 54.6875 
L 9.28125 54.6875 
L 9.28125 70.21875 
z
" id="DejaVuSans-116"/>
      <path d="M 56.203125 29.59375 
L 56.203125 25.203125 
L 14.890625 25.203125 
Q 15.484375 15.921875 20.484375 11.0625 
Q 25.484375 6.203125 34.421875 6.203125 
Q 39.59375 6.203125 44.453125 7.46875 
Q 49.3125 8.734375 54.109375 11.28125 
L 54.109375 2.78125 
Q 49.265625 0.734375 44.1875 -0.34375 
Q 39.109375 -1.421875 33.890625 -1.421875 
Q 20.796875 -1.421875 13.15625 6.1875 
Q 5.515625 13.8125 5.515625 26.8125 
Q 5.515625 40.234375 12.765625 48.109375 
Q 20.015625 56 32.328125 56 
Q 43.359375 56 49.78125 48.890625 
Q 56.203125 41.796875 56.203125 29.59375 
z
M 47.21875 32.234375 
Q 47.125 39.59375 43.09375 43.984375 
Q 39.0625 48.390625 32.421875 48.390625 
Q 24.90625 48.390625 20.390625 44.140625 
Q 15.875 39.890625 15.1875 32.171875 
z
" id="DejaVuSans-101"/>
     </defs>
     <g transform="translate(40.353906 215.236302)rotate(-90)scale(0.1 -0.1)">
      <use xlink:href="#DejaVuSans-100"/>
      <use x="63.476562" xlink:href="#DejaVuSans-114"/>
      <use x="104.558594" xlink:href="#DejaVuSans-111"/>
      <use x="165.740234" xlink:href="#DejaVuSans-112"/>
      <use x="229.216797" xlink:href="#DejaVuSans-114"/>
      <use x="270.330078" xlink:href="#DejaVuSans-97"/>
      <use x="331.609375" xlink:href="#DejaVuSans-116"/>
      <use x="370.818359" xlink:href="#DejaVuSans-101"/>
     </g>
    </g>
   </g>
   <g id="line2d_14">
    <path clip-path="url(#pbefa75fabd)" d="M 86.606804 352.174167 
L 91.081891 352.174167 
L 91.384668 50.163056 
L 91.538956 352.174167 
L 99.436791 352.174167 
L 99.584319 262.425669 
L 99.731344 315.449494 
L 99.881662 285.082281 
L 100.028267 305.567601 
L 100.175623 352.174167 
L 100.323288 342.243952 
L 100.469779 352.174167 
L 100.6251 322.017245 
L 100.78201 352.174167 
L 101.076346 352.174167 
L 101.223672 338.858005 
L 101.369949 352.174167 
L 101.518004 332.256994 
L 101.664242 352.174167 
L 101.810677 350.504863 
L 101.957472 350.500053 
L 102.103802 327.062457 
L 102.253048 347.23719 
L 102.402061 327.559016 
L 102.548975 352.174167 
L 102.69793 352.174167 
L 102.851789 347.373195 
L 103.004135 352.174167 
L 103.155824 327.969269 
L 103.309161 352.174167 
L 103.604883 352.174167 
L 103.752918 327.419158 
L 103.902556 352.174167 
L 104.055617 345.737407 
L 104.209082 352.174167 
L 104.517959 352.174167 
L 104.671567 339.441727 
L 104.826116 352.174167 
L 104.980495 347.412547 
L 105.13479 352.174167 
L 105.751088 352.174167 
L 105.899197 338.971495 
L 106.046165 352.174167 
L 106.345817 352.174167 
L 106.501009 341.093995 
L 106.653454 352.174167 
L 106.805822 352.174167 
L 106.958405 342.545699 
L 107.112906 350.58696 
L 107.265718 320.079275 
L 107.416289 352.174167 
L 107.716597 352.174167 
L 107.868311 337.651228 
L 108.01967 352.174167 
L 108.17099 345.701548 
L 108.322302 352.174167 
L 108.912999 352.174167 
L 109.059337 330.410685 
L 109.206626 352.174167 
L 109.647012 352.174167 
L 109.940537 335.528965 
L 110.087753 352.174167 
L 110.534456 352.174167 
L 110.682773 332.370159 
L 110.833449 352.174167 
L 111.424389 352.174167 
L 111.571251 328.803921 
L 111.719928 352.174167 
L 112.315996 352.174167 
L 112.46413 331.850521 
L 112.616824 352.174167 
L 113.065785 352.174167 
L 113.220769 333.12769 
L 113.519612 352.174167 
L 113.966863 352.174167 
L 114.117361 329.329095 
L 114.264663 352.174167 
L 114.862169 352.174167 
L 115.009452 325.465314 
L 115.156851 352.174167 
L 115.755365 352.174167 
L 115.902501 320.548283 
L 116.04972 352.174167 
L 116.346376 352.174167 
L 116.493883 343.851566 
L 116.648296 326.709288 
L 116.797134 350.533157 
L 116.949491 352.174167 
L 117.097453 352.174167 
L 117.245586 338.933881 
L 117.398479 352.174167 
L 117.552902 341.093995 
L 117.708381 352.174167 
L 117.858146 350.542376 
L 118.006143 352.174167 
L 118.154964 319.167488 
L 118.306115 352.174167 
L 118.761844 352.174167 
L 119.065334 337.610774 
L 119.211734 352.174167 
L 120.28514 352.174167 
L 120.434286 324.35558 
L 120.588713 352.174167 
L 120.892523 352.174167 
L 121.041359 347.209059 
L 121.195936 352.174167 
L 121.498256 352.174167 
L 121.645539 337.236287 
L 121.796648 352.174167 
L 121.943974 352.174167 
L 122.091218 350.509646 
L 122.241208 339.046087 
L 122.388224 352.174167 
L 122.534653 352.174167 
L 122.680916 348.825939 
L 122.828301 352.174167 
L 122.975326 320.457404 
L 123.122477 352.174167 
L 123.41689 352.174167 
L 123.563782 342.158347 
L 123.710695 352.174167 
L 123.862001 344.060793 
L 124.013746 352.174167 
L 124.316704 352.174167 
L 124.471958 350.591285 
L 124.620413 352.174167 
L 124.915702 340.489044 
L 125.360895 350.514402 
L 125.507927 328.870884 
L 125.656447 348.664091 
L 125.808641 331.254698 
L 125.9631 352.174167 
L 126.580291 352.174167 
L 126.731377 332.75631 
L 126.880849 350.533157 
L 127.033593 318.47453 
L 127.188509 352.174167 
L 127.338988 352.174167 
L 127.488497 340.687097 
L 127.634966 350.509646 
L 127.787628 345.719527 
L 127.933943 352.174167 
L 128.080603 337.107141 
L 128.228486 352.174167 
L 128.378174 345.591532 
L 128.533281 352.174167 
L 128.836884 352.174167 
L 128.984459 342.21558 
L 129.132973 352.174167 
L 129.428684 352.174167 
L 129.57632 345.535109 
L 129.723348 352.174167 
L 129.879366 325.265179 
L 130.027812 352.174167 
L 130.486268 352.174167 
L 130.640485 323.604451 
L 130.795447 352.174167 
L 131.10509 352.174167 
L 131.259225 341.063722 
L 131.413948 352.174167 
L 131.855615 352.174167 
L 132.003187 320.638643 
L 132.149863 352.174167 
L 132.741612 352.174167 
L 132.889494 330.597229 
L 133.035978 352.174167 
L 133.328571 352.174167 
L 133.474896 347.151825 
L 133.623352 352.174167 
L 134.376579 352.174167 
L 134.66989 338.742547 
L 134.820081 352.174167 
L 135.280911 352.174167 
L 135.435989 328.430943 
L 135.584859 352.174167 
L 136.19041 352.174167 
L 136.34356 329.892398 
L 136.491256 350.514402 
L 136.642849 344.083393 
L 136.794825 352.174167 
L 136.945834 352.174167 
L 137.097037 334.324745 
L 137.251469 352.174167 
L 137.558097 352.174167 
L 137.710392 336.037568 
L 137.861723 352.174167 
L 138.314801 352.174167 
L 138.463069 320.817822 
L 138.613099 352.174167 
L 138.916978 352.174167 
L 139.070739 345.790457 
L 139.22259 352.174167 
L 139.530679 345.807947 
L 139.680181 352.174167 
L 139.831197 331.079395 
L 139.983956 352.174167 
L 140.593761 352.174167 
L 140.746821 326.568986 
L 140.895582 352.174167 
L 141.346364 352.174167 
L 141.499774 329.769633 
L 141.650954 352.174167 
L 142.25123 352.174167 
L 142.406243 334.714896 
L 142.556737 352.174167 
L 142.708628 326.427129 
L 142.860234 352.174167 
L 143.313716 352.174167 
L 143.466251 327.969269 
L 143.617257 352.174167 
L 143.914916 352.174167 
L 144.063565 342.243952 
L 144.210793 352.174167 
L 144.504739 352.174167 
L 144.651847 340.489044 
L 144.802856 342.410847 
L 144.949155 338.81974 
L 145.098246 352.174167 
L 145.244943 352.174167 
L 145.394638 342.328107 
L 145.541221 352.174167 
L 145.68752 330.410685 
L 145.834204 352.174167 
L 146.13171 352.174167 
L 146.278114 347.166257 
L 146.424504 352.174167 
L 146.578935 331.427111 
L 146.733825 352.174167 
L 147.027136 352.174167 
L 147.173679 335.433027 
L 147.320101 352.174167 
L 147.759852 352.174167 
L 147.910571 334.173905 
L 148.05723 352.174167 
L 148.350274 352.174167 
L 148.496579 333.758913 
L 148.642934 352.174167 
L 149.532386 352.174167 
L 149.685455 345.755188 
L 149.833401 352.174167 
L 150.130364 352.174167 
L 150.27927 335.717579 
L 150.42575 352.174167 
L 150.572592 350.504863 
L 150.726637 352.174167 
L 150.880052 336.214893 
L 151.03012 352.174167 
L 151.181373 352.174167 
L 151.331695 339.11984 
L 151.481909 352.174167 
L 152.087452 352.174167 
L 152.240786 334.618966 
L 152.394159 352.174167 
L 152.862917 352.174167 
L 153.013058 340.783627 
L 153.164687 342.465238 
L 153.31466 352.174167 
L 153.763182 352.174167 
L 153.909994 343.82765 
L 154.065931 352.174167 
L 154.222493 320.857857 
L 154.379185 352.174167 
L 154.841605 352.174167 
L 154.988864 340.555816 
L 155.14361 337.889309 
L 155.29431 352.174167 
L 155.733107 352.174167 
L 155.879431 325.388343 
L 156.027184 352.174167 
L 156.325389 352.174167 
L 156.4719 348.83556 
L 156.621384 352.174167 
L 156.768642 317.219243 
L 156.916155 352.174167 
L 157.211753 352.174167 
L 157.359641 348.864095 
L 157.507972 352.174167 
L 157.661133 331.369957 
L 157.809198 352.174167 
L 158.253052 352.174167 
L 158.402193 339.046087 
L 158.554147 337.610774 
L 158.703496 352.174167 
L 159.153005 352.174167 
L 159.306892 328.300843 
L 159.462184 352.174167 
L 160.065443 352.174167 
L 160.213712 330.597229 
L 160.360802 352.174167 
L 160.815334 352.174167 
L 161.123886 341.063722 
L 161.433464 352.174167 
L 161.587909 328.36607 
L 161.73504 352.174167 
L 162.330586 352.174167 
L 162.477429 320.457404 
L 162.625181 352.174167 
L 163.531779 352.174167 
L 163.679913 350.528508 
L 163.82633 352.174167 
L 163.97726 324.433722 
L 164.131518 352.174167 
L 164.433256 352.174167 
L 164.581563 327.34863 
L 164.735307 352.174167 
L 165.340922 352.174167 
L 165.494116 337.771252 
L 165.640414 352.174167 
L 165.789694 352.174167 
L 165.93898 350.528508 
L 166.090379 345.701548 
L 166.241111 326.138646 
L 166.391234 352.174167 
L 166.691583 352.174167 
L 166.839835 327.34863 
L 166.986397 352.174167 
L 167.286269 352.174167 
L 167.439621 337.810821 
L 167.587783 352.174167 
L 168.179303 352.174167 
L 168.333249 333.023039 
L 168.483336 352.174167 
L 168.778772 352.174167 
L 168.928871 350.537779 
L 169.076525 322.383523 
L 169.223987 350.500053 
L 169.371855 352.174167 
L 169.813961 352.174167 
L 169.961396 322.298407 
L 170.112061 352.174167 
L 170.716317 352.174167 
L 170.86341 332.142527 
L 171.009878 352.174167 
L 171.603561 352.174167 
L 171.756293 334.570605 
L 171.910261 352.174167 
L 172.065558 352.174167 
L 172.219783 339.476515 
L 172.369909 352.174167 
L 172.967723 352.174167 
L 173.1199 323.208749 
L 173.271746 352.174167 
L 173.577265 352.174167 
L 173.731749 347.399502 
L 173.887086 352.174167 
L 174.039669 348.973519 
L 174.193874 352.174167 
L 174.346987 352.174167 
L 174.498858 348.955787 
L 174.646615 352.174167 
L 174.797599 324.511426 
L 174.952268 352.174167 
L 175.262002 352.174167 
L 175.416731 337.928232 
L 175.571426 352.174167 
L 176.013522 352.174167 
L 176.165654 327.901846 
L 176.312737 352.174167 
L 176.609059 352.174167 
L 176.761684 348.973519 
L 176.912803 352.174167 
L 177.060577 337.278845 
L 177.214665 352.174167 
L 178.113339 352.174167 
L 178.267145 332.970281 
L 178.421535 352.174167 
L 178.880639 352.174167 
L 179.032307 327.901846 
L 179.183882 352.174167 
L 179.79877 352.174167 
L 179.953449 325.265179 
L 180.10028 352.174167 
L 180.688308 352.174167 
L 180.836598 322.383523 
L 180.983844 352.174167 
L 181.281277 352.174167 
L 181.435903 350.582612 
L 181.583732 320.90665 
L 181.731658 352.174167 
L 182.326693 352.174167 
L 182.479331 332.810248 
L 182.626389 352.174167 
L 183.23437 352.174167 
L 183.384177 327.628355 
L 183.532294 352.174167 
L 183.686393 352.174167 
L 183.840657 347.399502 
L 183.990671 352.174167 
L 184.293501 352.174167 
L 184.445617 345.755188 
L 184.599302 352.174167 
L 184.898304 352.174167 
L 185.049042 340.783627 
L 185.199533 352.174167 
L 185.353718 352.174167 
L 185.657249 336.170928 
L 185.808628 352.174167 
L 186.268284 352.174167 
L 186.422191 323.526178 
L 186.569625 352.174167 
L 187.176755 352.174167 
L 187.32948 329.707742 
L 187.478583 352.174167 
L 187.78296 352.174167 
L 187.933643 340.847084 
L 188.243236 352.174167 
L 188.55078 352.174167 
L 188.704936 348.991057 
L 188.855261 352.174167 
L 189.005915 332.592676 
L 189.156001 352.174167 
L 189.308987 345.719527 
L 189.463238 352.174167 
L 189.915372 352.174167 
L 190.068021 323.208749 
L 190.219396 352.174167 
L 190.83109 352.174167 
L 190.979341 339.046087 
L 191.132934 352.174167 
L 191.287144 350.582612 
L 191.440813 352.174167 
L 191.593645 313.229974 
L 191.747828 352.174167 
L 192.523168 352.174167 
L 192.669798 318.978878 
L 192.816267 352.174167 
L 193.427076 352.174167 
L 193.582068 330.013824 
L 193.739002 352.174167 
L 194.196975 352.174167 
L 194.347419 337.529186 
L 194.499377 352.174167 
L 195.09408 352.174167 
L 195.245804 327.901846 
L 195.400848 352.174167 
L 196.016721 352.174167 
L 196.163976 330.473224 
L 196.311057 352.174167 
L 196.458347 352.174167 
L 196.605441 347.180606 
L 196.759207 337.236287 
L 196.912888 352.174167 
L 197.36502 352.174167 
L 197.51891 342.572224 
L 197.670319 352.174167 
L 197.817578 322.383523 
L 197.967713 352.174167 
L 198.574668 352.174167 
L 198.729153 324.968662 
L 198.881447 352.174167 
L 199.344025 352.174167 
L 199.497454 329.707742 
L 199.652149 352.174167 
L 199.96374 352.174167 
L 200.113106 348.901392 
L 200.267227 352.174167 
L 200.57508 352.174167 
L 200.726301 344.083393 
L 201.025177 352.174167 
L 201.174725 347.278794 
L 201.325466 352.174167 
L 201.479603 331.427111 
L 201.634265 352.174167 
L 201.940726 352.174167 
L 202.093252 350.564977 
L 202.246548 352.174167 
L 202.400754 331.483953 
L 202.55528 352.174167 
L 203.019766 352.174167 
L 203.174373 333.179587 
L 203.328854 352.174167 
L 203.792251 352.174167 
L 203.946851 349.008403 
L 204.102093 334.809783 
L 204.252193 352.174167 
L 204.71781 352.174167 
L 204.872184 329.953277 
L 205.027219 352.174167 
L 205.641749 352.174167 
L 205.794003 329.645508 
L 205.94693 352.174167 
L 206.562318 352.174167 
L 206.712751 348.919727 
L 206.862728 352.174167 
L 207.015776 324.893508 
L 207.16932 352.174167 
L 207.630633 352.174167 
L 207.782689 339.300648 
L 208.078674 352.174167 
L 208.23275 352.174167 
L 208.387448 334.762469 
L 208.542537 352.174167 
L 209.001937 352.174167 
L 209.309164 342.572224 
L 209.608224 352.174167 
L 209.917553 352.174167 
L 210.069499 342.492208 
L 210.221316 352.174167 
L 210.37628 336.082268 
L 210.530421 352.174167 
L 210.979659 352.174167 
L 211.134106 339.441727 
L 211.288726 352.174167 
L 211.742032 352.174167 
L 211.889286 340.555816 
L 212.042563 344.128217 
L 212.197848 352.174167 
L 212.649616 352.174167 
L 212.801715 337.651228 
L 212.949771 352.174167 
L 213.405915 352.174167 
L 213.559213 342.492208 
L 213.706516 352.174167 
L 213.855787 314.216486 
L 214.009076 352.174167 
L 214.162274 333.023039 
L 214.316713 352.174167 
L 214.77988 352.174167 
L 214.927381 310.053257 
L 215.078285 347.292507 
L 215.22794 352.174167 
L 215.374915 352.174167 
L 215.523268 340.621829 
L 215.674059 352.174167 
L 215.980179 352.174167 
L 216.131134 347.306143 
L 216.28134 352.174167 
L 216.435354 329.831184 
L 216.587194 352.174167 
L 216.892875 352.174167 
L 217.042742 350.537779 
L 217.193777 324.588697 
L 217.34293 352.174167 
L 217.94151 352.174167 
L 218.093944 324.741949 
L 218.246785 352.174167 
L 218.554866 352.174167 
L 218.708728 348.982312 
L 218.860107 332.810248 
L 219.007127 352.174167 
L 219.596322 352.174167 
L 219.744702 324.11849 
L 219.898305 352.174167 
L 220.351207 352.174167 
L 220.502035 339.192769 
L 220.653742 352.174167 
L 221.575731 352.174167 
L 221.726565 350.542376 
L 221.881402 352.174167 
L 222.037906 330.25275 
L 222.192166 352.174167 
L 222.805809 352.174167 
L 222.952994 330.658702 
L 223.106459 352.174167 
L 223.401011 352.174167 
L 223.550369 340.654555 
L 223.70403 352.174167 
L 223.858856 352.174167 
L 224.005936 340.555816 
L 224.153871 352.174167 
L 224.459521 352.174167 
L 224.614757 347.438426 
L 224.762088 352.174167 
L 224.914484 328.036318 
L 225.067458 352.174167 
L 225.375039 352.174167 
L 225.522749 342.21558 
L 225.674594 352.174167 
L 225.822736 342.272163 
L 225.975806 352.174167 
L 226.130651 352.174167 
L 226.285407 344.281265 
L 226.431812 352.174167 
L 226.578023 345.477711 
L 226.724303 352.174167 
L 226.870547 338.781255 
L 227.016783 352.174167 
L 227.163403 317.017773 
L 227.317322 352.174167 
L 227.610304 352.174167 
L 227.759665 324.35558 
L 227.914162 352.174167 
L 228.368318 352.174167 
L 228.522421 334.618966 
L 228.676214 341.033282 
L 228.829431 352.174167 
L 228.975951 352.174167 
L 229.122386 342.129483 
L 229.274488 352.174167 
L 229.420953 337.150437 
L 229.569153 352.174167 
L 230.165627 352.174167 
L 230.317247 327.969269 
L 230.463665 352.174167 
L 231.049443 352.174167 
L 231.20023 332.592676 
L 231.346619 352.174167 
L 231.794383 352.174167 
L 231.945529 337.570094 
L 232.098256 352.174167 
L 232.396376 352.174167 
L 232.543128 337.150437 
L 232.690641 352.174167 
L 233.293895 352.174167 
L 233.448893 330.013824 
L 233.60412 352.174167 
L 234.064102 352.174167 
L 234.218842 336.345351 
L 234.373994 352.174167 
L 234.969948 352.174167 
L 235.124507 323.447475 
L 235.273922 352.174167 
L 235.729582 352.174167 
L 235.884484 334.809783 
L 236.039496 352.174167 
L 236.500861 352.174167 
L 236.651039 350.546947 
L 236.801583 335.856258 
L 236.951991 352.174167 
L 237.41303 352.174167 
L 237.567492 321.851547 
L 237.714982 352.174167 
L 238.009378 352.174167 
L 238.156832 347.194873 
L 238.304641 352.174167 
L 238.455958 350.546947 
L 238.610836 331.540483 
L 238.76586 352.174167 
L 239.368413 352.174167 
L 239.518019 335.810292 
L 239.667921 352.174167 
L 240.117567 352.174167 
L 240.272542 337.889309 
L 240.429339 352.174167 
L 241.030985 352.174167 
L 241.181618 335.992619 
L 241.33863 352.174167 
L 241.651931 352.174167 
L 241.799855 348.873499 
L 241.949498 327.559016 
L 242.10264 352.174167 
L 242.409477 352.174167 
L 242.562399 344.172548 
L 242.715149 352.174167 
L 242.866374 347.319702 
L 243.018312 352.174167 
L 243.167203 348.892147 
L 243.32256 352.174167 
L 243.781089 352.174167 
L 243.930423 335.764066 
L 244.078965 352.174167 
L 244.535929 352.174167 
L 244.683255 337.278845 
L 245.127125 352.174167 
L 245.428907 352.174167 
L 245.579573 332.70207 
L 245.733912 352.174167 
L 246.189784 352.174167 
L 246.342203 348.955787 
L 246.49236 335.856258 
L 246.645406 352.174167 
L 247.100956 352.174167 
L 247.255684 331.596706 
L 247.410408 352.174167 
L 248.477991 352.174167 
L 248.62516 327.206364 
L 248.778023 352.174167 
L 249.238769 352.174167 
L 249.391391 326.498253 
L 249.537727 352.174167 
L 250.147802 352.174167 
L 250.300609 326.498253 
L 250.451322 352.174167 
L 251.056736 352.174167 
L 251.204173 330.719825 
L 251.354116 352.174167 
L 251.811079 352.174167 
L 251.965054 325.117733 
L 252.116732 352.174167 
L 252.709427 352.174167 
L 252.858065 332.426261 
L 253.008812 352.174167 
L 253.462676 352.174167 
L 253.616946 336.214893 
L 253.770527 352.174167 
L 254.081324 352.174167 
L 254.233759 347.359933 
L 254.388288 352.174167 
L 254.537918 327.697304 
L 254.687024 352.174167 
L 254.99399 352.174167 
L 255.145623 350.560507 
L 255.299499 321.934623 
L 255.453997 352.174167 
L 255.761344 352.174167 
L 255.914906 350.578239 
L 256.067968 352.174167 
L 256.217639 321.17014 
L 256.368993 352.174167 
L 256.522831 352.174167 
L 256.675332 350.569422 
L 256.821542 345.496953 
L 256.971175 314.324015 
L 257.124407 352.174167 
L 257.275863 348.946847 
L 257.425679 352.174167 
L 257.5778 329.645508 
L 257.730264 352.174167 
L 258.186771 352.174167 
L 258.337459 332.75631 
L 258.487301 352.174167 
L 259.093493 352.174167 
L 259.250406 325.626859 
L 259.403781 352.174167 
L 259.698607 352.174167 
L 259.853336 347.399502 
L 260.001621 352.174167 
L 260.153716 352.174167 
L 260.306533 339.33621 
L 260.458271 352.174167 
L 260.76078 352.174167 
L 260.916073 344.281265 
L 261.063247 345.554024 
L 261.209808 327.134617 
L 261.357486 352.174167 
L 261.511015 352.174167 
L 261.665207 341.033282 
L 261.820153 352.174167 
L 262.433602 352.174167 
L 262.582737 329.069491 
L 262.736941 352.174167 
L 263.189769 352.174167 
L 263.342872 326.498253 
L 263.496915 352.174167 
L 264.113112 352.174167 
L 264.267866 323.604451 
L 264.416613 352.174167 
L 264.572957 352.174167 
L 264.723476 340.815444 
L 264.87319 352.174167 
L 265.484553 352.174167 
L 265.639101 339.476515 
L 265.786285 352.174167 
L 266.868949 352.174167 
L 267.023227 326.778864 
L 267.178174 352.174167 
L 267.787635 352.174167 
L 267.934255 325.541844 
L 268.088434 352.174167 
L 268.551014 352.174167 
L 268.698191 329.003666 
L 268.845348 352.174167 
L 269.447539 352.174167 
L 269.598906 322.966022 
L 269.753961 352.174167 
L 270.366513 352.174167 
L 270.521285 337.928232 
L 270.673785 352.174167 
L 270.821047 352.174167 
L 270.967401 337.107141 
L 271.122097 352.174167 
L 271.7387 352.174167 
L 271.891745 332.970281 
L 272.041356 352.174167 
L 272.645011 352.174167 
L 272.799331 342.598603 
L 272.95377 352.174167 
L 273.108407 352.174167 
L 273.26306 334.714896 
L 273.4169 352.174167 
L 274.012949 352.174167 
L 274.163241 335.94742 
L 274.319137 352.174167 
L 274.616258 352.174167 
L 274.767766 345.701548 
L 274.923085 326.848061 
L 275.075171 348.946847 
L 275.223464 352.174167 
L 275.67499 352.174167 
L 275.821285 330.410685 
L 275.975547 352.174167 
L 276.278933 352.174167 
L 276.433483 339.406748 
L 276.58248 352.174167 
L 276.883262 352.174167 
L 277.183209 334.123056 
L 277.492563 352.174167 
L 277.639599 352.174167 
L 277.793726 337.810821 
L 277.941456 352.174167 
L 278.095206 348.964677 
L 278.249153 352.174167 
L 278.40117 339.300648 
L 278.55267 352.174167 
L 278.702272 348.901392 
L 278.855631 352.174167 
L 279.009669 336.258617 
L 279.161588 352.174167 
L 279.310035 343.922497 
L 279.461853 352.174167 
L 279.615678 352.174167 
L 279.770501 349.008403 
L 279.925553 352.174167 
L 280.078664 326.639329 
L 280.233313 352.174167 
L 281.142695 352.174167 
L 281.289932 345.516086 
L 281.439091 352.174167 
L 281.591558 352.174167 
L 281.738687 337.236287 
L 281.887867 352.174167 
L 282.039004 327.834046 
L 282.190186 352.174167 
L 282.342311 350.564977 
L 282.494655 352.174167 
L 282.64199 335.623809 
L 282.790808 352.174167 
L 283.087734 352.174167 
L 283.2343 338.858005 
L 283.382123 352.174167 
L 283.531259 345.591532 
L 283.680894 352.174167 
L 283.830585 337.488049 
L 283.978563 352.174167 
L 284.126023 352.174167 
L 284.275959 348.892147 
L 284.42801 340.878548 
L 284.737127 352.174167 
L 284.885498 322.552309 
L 285.039928 352.174167 
L 285.352019 352.174167 
L 285.508746 342.804529 
L 285.659867 352.174167 
L 285.814521 337.850172 
L 285.968445 352.174167 
L 286.114959 350.509646 
L 286.261538 343.82765 
L 286.408226 352.174167 
L 286.55838 316.274768 
L 286.707991 352.174167 
L 287.005738 352.174167 
L 287.157517 332.75631 
L 287.305528 352.174167 
L 287.452853 348.864095 
L 287.60127 352.174167 
L 287.748754 333.916758 
L 287.896104 352.174167 
L 288.196771 352.174167 
L 288.347936 331.138155 
L 288.500106 352.174167 
L 288.80308 352.174167 
L 288.952688 339.083067 
L 289.106559 348.982312 
L 289.261307 331.540483 
L 289.417054 352.174167 
L 289.57358 352.174167 
L 289.72388 348.919727 
L 289.873833 352.174167 
L 290.026638 336.126721 
L 290.182076 352.174167 
L 290.336638 337.889309 
L 290.491111 352.174167 
L 290.645364 344.216392 
L 290.799576 352.174167 
L 290.953766 352.174167 
L 291.107797 348.999754 
L 291.262215 352.174167 
L 291.41427 328.036318 
L 291.569828 352.174167 
L 291.724579 345.825341 
L 291.870979 352.174167 
L 292.02216 324.511426 
L 292.16846 352.174167 
L 292.314847 350.500053 
L 292.461226 352.174167 
L 292.608294 340.522525 
L 292.761877 352.174167 
L 292.916233 333.075508 
L 293.07052 352.174167 
L 293.221192 329.52 
L 293.374854 352.174167 
L 293.66808 343.803597 
L 293.814395 350.500053 
L 293.963492 334.020493 
L 294.109968 352.174167 
L 294.25711 322.212803 
L 294.403773 352.174167 
L 294.550211 302.095068 
L 294.702515 352.174167 
L 295.476848 352.174167 
L 295.631698 320.688121 
L 295.78779 349.017006 
L 295.941217 352.174167 
L 296.095444 352.174167 
L 296.249894 337.889309 
L 296.404088 352.174167 
L 296.558167 320.343068 
L 296.71252 352.174167 
L 297.025876 352.174167 
L 297.180319 347.425522 
L 297.334506 352.174167 
L 297.491305 352.174167 
L 297.647836 334.950196 
L 297.802187 352.174167 
L 298.110555 352.174167 
L 298.261947 342.465238 
L 298.414651 340.940954 
L 298.566819 342.492208 
L 298.722852 352.174167 
L 299.174213 352.174167 
L 299.32837 329.769633 
L 299.477786 352.174167 
L 299.775382 352.174167 
L 299.927864 332.863888 
L 300.07623 352.174167 
L 300.228687 352.174167 
L 300.376873 339.008896 
L 300.523444 352.174167 
L 300.669836 348.83556 
L 300.816301 352.174167 
L 300.963109 333.758913 
L 301.117087 352.174167 
L 301.26768 343.82765 
L 301.414952 352.174167 
L 301.562726 333.968773 
L 301.715608 352.174167 
L 301.866151 324.588697 
L 302.017512 352.174167 
L 302.17132 339.371576 
L 302.324677 341.002675 
L 302.478123 316.967043 
L 302.627722 352.174167 
L 302.775121 352.174167 
L 302.926618 348.928817 
L 303.078678 352.174167 
L 303.227891 317.81003 
L 303.379342 352.174167 
L 303.530873 331.138155 
L 303.682681 352.174167 
L 303.834424 348.946847 
L 303.988581 352.174167 
L 304.137338 348.892147 
L 304.291915 341.033282 
L 304.446744 341.093995 
L 304.603543 352.174167 
L 304.760058 352.174167 
L 304.914646 336.302103 
L 305.06896 352.174167 
L 305.222026 323.368338 
L 305.376807 352.174167 
L 305.672363 352.174167 
L 305.82191 325.843626 
L 306.123175 345.647003 
L 306.272587 352.174167 
L 306.424524 352.174167 
L 306.577004 334.473078 
L 306.730977 352.174167 
L 306.877681 348.83556 
L 307.030083 352.174167 
L 307.184707 341.063722 
L 307.334278 352.174167 
L 307.487696 321.851547 
L 307.634917 352.174167 
L 308.086957 352.174167 
L 308.239126 326.355609 
L 308.386569 352.174167 
L 309.597945 352.174167 
L 309.750885 348.955787 
L 309.906571 352.174167 
L 310.212694 352.174167 
L 310.362214 345.647003 
L 310.51157 352.174167 
L 310.665572 328.169309 
L 310.815552 352.174167 
L 311.119037 352.174167 
L 311.271219 344.128217 
L 311.422568 323.128289 
L 311.576362 352.174167 
L 311.877732 352.174167 
L 312.028437 319.629766 
L 312.178098 352.174167 
L 312.485821 352.174167 
L 312.636031 345.701548 
L 312.787391 352.174167 
L 312.93958 332.863888 
L 313.090757 352.174167 
L 313.393351 352.174167 
L 313.544145 345.665287 
L 313.699525 333.231203 
L 313.853992 352.174167 
L 314.007711 348.991057 
L 314.162765 352.174167 
L 314.314631 323.208749 
L 314.461034 352.174167 
L 314.608256 352.174167 
L 314.755369 348.83556 
L 314.902524 307.232121 
L 315.05045 352.174167 
L 315.3531 352.174167 
L 315.507269 342.598603 
L 315.654907 352.174167 
L 315.809099 329.831184 
L 315.960961 352.174167 
L 316.115295 352.174167 
L 316.26367 345.591532 
L 316.417636 352.174167 
L 316.569993 315.162799 
L 316.717957 352.174167 
L 317.022353 352.174167 
L 317.174831 347.359933 
L 317.325112 352.174167 
L 317.473846 327.489285 
L 317.625994 352.174167 
L 317.779503 321.851547 
L 317.935106 352.174167 
L 318.091177 352.174167 
L 318.243414 318.381179 
L 318.545761 352.174167 
L 318.699445 352.174167 
L 318.851767 329.645508 
L 319.007509 352.174167 
L 319.163778 339.647643 
L 319.318927 352.174167 
L 319.467682 348.901392 
L 319.624388 352.174167 
L 319.773108 325.918006 
L 319.927853 352.174167 
L 320.077835 350.546947 
L 320.226003 345.554024 
L 320.372572 317.017773 
L 320.525508 352.174167 
L 320.681373 352.174167 
L 320.82867 338.933881 
L 320.975824 352.174167 
L 321.122219 338.781255 
L 321.268637 352.174167 
L 321.564923 352.174167 
L 321.711204 343.779404 
L 321.857466 352.174167 
L 322.004121 338.781255 
L 322.159191 352.174167 
L 322.314045 342.676877 
L 322.46879 352.174167 
L 322.620339 332.917231 
L 322.766781 352.174167 
L 322.914579 348.854638 
L 323.062314 352.174167 
L 323.210051 330.597229 
L 323.35842 352.174167 
L 324.269699 352.174167 
L 324.422074 339.300648 
L 324.576334 352.174167 
L 324.728209 352.174167 
L 324.879682 339.264888 
L 325.027555 352.174167 
L 325.175418 348.854638 
L 325.325546 352.174167 
L 325.477266 344.105867 
L 325.627458 352.174167 
L 325.778256 324.511426 
L 325.925229 352.174167 
L 326.076947 337.651228 
L 326.230803 307.488202 
L 326.385001 352.174167 
L 326.534325 319.353966 
L 326.686396 352.174167 
L 326.994698 352.174167 
L 327.149023 320.343068 
L 327.297964 352.174167 
L 327.447765 322.801931 
L 327.599423 352.174167 
L 327.751171 352.174167 
L 327.90267 329.52 
L 328.052055 347.265004 
L 328.203481 347.319702 
L 328.350973 352.174167 
L 328.649688 352.174167 
L 328.799026 339.008896 
L 328.953252 352.174167 
L 329.107788 341.063722 
L 329.254387 352.174167 
L 329.400884 348.816262 
L 329.55482 352.174167 
L 329.708846 348.982312 
L 329.856754 352.174167 
L 330.009245 321.514629 
L 330.159826 352.174167 
L 330.311682 352.174167 
L 330.467054 345.859846 
L 330.620456 352.174167 
L 330.923691 352.174167 
L 331.071572 335.670827 
L 331.219534 352.174167 
L 331.365802 330.473224 
L 331.513508 352.174167 
L 331.666081 352.174167 
L 331.972143 332.75631 
L 332.27336 352.174167 
L 332.421905 340.588916 
L 332.568152 352.174167 
L 332.714357 333.70569 
L 332.860513 352.174167 
L 333.006649 328.668832 
L 333.158124 352.174167 
L 333.305073 347.180606 
L 333.451527 352.174167 
L 333.597899 348.825939 
L 333.749985 340.815444 
L 333.89685 350.514402 
L 334.050093 352.174167 
L 334.198291 352.174167 
L 334.346534 350.523833 
L 334.494766 342.243952 
L 334.644015 352.174167 
L 334.798614 352.174167 
L 334.952668 336.302103 
L 335.098808 352.174167 
L 335.392588 352.174167 
L 335.540263 340.555816 
L 335.687825 352.174167 
L 335.989858 352.174167 
L 336.14462 337.928232 
L 336.298978 352.174167 
L 336.445532 350.514402 
L 336.594845 315.969674 
L 336.741308 352.174167 
L 336.887689 333.758913 
L 337.03448 352.174167 
L 337.181626 347.194873 
L 337.328906 352.174167 
L 337.48435 318.933653 
L 337.637613 352.174167 
L 338.548826 352.174167 
L 338.698427 339.046087 
L 338.851855 352.174167 
L 339.004218 331.312487 
L 339.151148 352.174167 
L 339.60498 352.174167 
L 339.754641 332.537517 
L 339.903822 352.174167 
L 340.506836 352.174167 
L 340.661405 331.596706 
L 340.815815 352.174167 
L 341.112323 352.174167 
L 341.259493 350.514402 
L 341.406724 352.174167 
L 341.56088 352.174167 
L 341.710576 340.719454 
L 341.85988 352.174167 
L 342.010319 324.35558 
L 342.161941 352.174167 
L 342.468991 352.174167 
L 342.622138 345.772871 
L 342.77233 350.546947 
L 342.927585 331.596706 
L 343.082429 352.174167 
L 343.239078 352.174167 
L 343.394896 350.608351 
L 343.542614 352.174167 
L 343.694614 331.196589 
L 343.842494 352.174167 
L 344.138059 352.174167 
L 344.285002 333.864445 
L 344.432567 352.174167 
L 344.727384 352.174167 
L 344.87457 338.858005 
L 345.025927 352.174167 
L 345.176795 352.174167 
L 345.325205 338.971495 
L 345.473649 352.174167 
L 345.622002 332.370159 
L 345.770135 352.174167 
L 346.372404 352.174167 
L 346.5275 326.916882 
L 346.684092 352.174167 
L 347.14865 352.174167 
L 347.297469 327.559016 
L 347.447627 352.174167 
L 347.898901 352.174167 
L 348.054914 341.154051 
L 348.208276 339.406748 
L 348.361306 352.174167 
L 348.824196 352.174167 
L 348.97126 332.256994 
L 349.126745 352.174167 
L 349.280646 352.174167 
L 349.592035 344.238135 
L 349.745451 352.174167 
L 350.193018 352.174167 
L 350.342665 324.35558 
L 350.49058 352.174167 
L 350.788791 352.174167 
L 350.942574 336.214893 
L 351.094051 352.174167 
L 351.24876 352.174167 
L 351.402852 329.892398 
L 351.557688 352.174167 
L 352.636667 352.174167 
L 352.791562 326.848061 
L 352.946614 352.174167 
L 353.251744 352.174167 
L 353.401741 348.919727 
L 353.552829 352.174167 
L 353.854175 352.174167 
L 354.007972 342.598603 
L 354.161315 352.174167 
L 354.311501 352.174167 
L 354.462598 345.683468 
L 354.615785 352.174167 
L 354.917918 352.174167 
L 355.074573 339.647643 
L 355.229278 352.174167 
L 355.842486 352.174167 
L 355.997146 331.540483 
L 356.151554 352.174167 
L 356.611284 352.174167 
L 356.766167 326.848061 
L 356.918232 352.174167 
L 357.222254 352.174167 
L 357.374499 350.564977 
L 357.528884 352.174167 
L 357.682105 326.568986 
L 357.831106 352.174167 
L 358.135625 352.174167 
L 358.437306 337.321161 
L 358.590224 352.174167 
L 359.201675 352.174167 
L 359.353158 322.884206 
L 359.505846 352.174167 
L 359.960487 352.174167 
L 360.116078 337.966944 
L 360.270818 340.940954 
L 360.425816 352.174167 
L 360.88043 352.174167 
L 361.033978 336.170928 
L 361.190082 352.174167 
L 361.657386 352.174167 
L 361.959746 334.570605 
L 362.106536 352.174167 
L 362.253107 352.174167 
L 362.400616 348.854638 
L 362.547585 352.174167 
L 362.844973 352.174167 
L 362.993546 330.719825 
L 363.141784 352.174167 
L 363.754314 352.174167 
L 363.909563 339.545524 
L 364.057206 352.174167 
L 364.984082 352.174167 
L 365.132542 347.914105 
L 365.286379 352.174167 
L 365.441391 352.174167 
L 365.59334 336.037568 
L 365.743564 352.174167 
L 366.820047 352.174167 
L 366.969524 347.278794 
L 367.121441 352.174167 
L 367.272073 329.200026 
L 367.420988 352.174167 
L 367.879867 352.174167 
L 368.030239 339.156407 
L 368.177722 352.174167 
L 368.482093 352.174167 
L 368.63527 341.002675 
L 368.786064 352.174167 
L 368.939016 323.368338 
L 369.090895 352.174167 
L 369.400009 352.174167 
L 369.547889 324.11849 
L 369.70316 352.174167 
L 369.849966 347.194873 
L 370.00164 352.174167 
L 370.154859 352.174167 
L 370.309116 345.807947 
L 370.460651 352.174167 
L 370.614088 329.831184 
L 370.76767 352.174167 
L 371.374488 352.174167 
L 371.529207 323.604451 
L 371.681267 352.174167 
L 371.984187 352.174167 
L 372.1384 348.982312 
L 372.292341 317.159958 
L 372.44424 352.174167 
L 373.0516 352.174167 
L 373.203748 332.810248 
L 373.357759 352.174167 
L 373.655233 352.174167 
L 373.805716 344.038067 
L 373.959925 352.174167 
L 374.112042 352.174167 
L 374.266742 336.345351 
L 374.421634 352.174167 
L 375.035333 352.174167 
L 375.190081 341.093995 
L 375.344222 352.174167 
L 375.499077 349.008403 
L 375.653876 342.676877 
L 375.958748 352.174167 
L 376.421284 352.174167 
L 376.572938 329.645508 
L 376.725223 352.174167 
L 376.878262 345.755188 
L 377.029118 352.174167 
L 377.181749 345.755188 
L 377.329017 352.174167 
L 377.477721 352.174167 
L 377.628801 334.324745 
L 377.783525 348.991057 
L 377.937898 352.174167 
L 378.393116 352.174167 
L 378.54686 334.667063 
L 378.698265 352.174167 
L 378.850419 347.333187 
L 378.998551 352.174167 
L 379.1505 327.969269 
L 379.30631 325.338302 
L 379.615179 352.174167 
L 379.771476 352.174167 
L 379.926227 322.099416 
L 380.080992 352.174167 
L 381.301048 352.174167 
L 381.606478 335.94742 
L 381.755683 352.174167 
L 381.907296 352.174167 
L 382.059368 337.691458 
L 382.212564 352.174167 
L 382.506844 352.174167 
L 382.660661 337.771252 
L 382.815375 352.174167 
L 382.969839 320.516535 
L 383.123466 352.174167 
L 383.431145 352.174167 
L 383.582818 348.955787 
L 383.737462 352.174167 
L 383.892451 328.495462 
L 384.045656 352.174167 
L 384.496025 352.174167 
L 384.646148 332.592676 
L 384.80016 352.174167 
L 385.110021 352.174167 
L 385.262197 340.909837 
L 385.415326 352.174167 
L 385.720126 352.174167 
L 385.875002 344.238135 
L 386.031459 352.174167 
L 386.186495 352.174167 
L 386.339889 344.19453 
L 386.49298 352.174167 
L 386.795593 352.174167 
L 386.94748 344.105867 
L 387.101604 352.174167 
L 387.41428 352.174167 
L 387.569075 344.259759 
L 387.725561 327.121119 
L 387.875205 352.174167 
L 388.178463 352.174167 
L 388.328087 343.992229 
L 388.479146 352.174167 
L 388.629626 347.292507 
L 388.780932 352.174167 
L 388.935103 348.999754 
L 389.085159 352.174167 
L 389.236884 324.665536 
L 389.391112 352.174167 
L 389.540299 335.810292 
L 389.694311 331.427111 
L 389.994455 352.174167 
L 390.143361 352.174167 
L 390.295749 344.083393 
L 390.448372 352.174167 
L 390.599369 314.956608 
L 390.745724 352.174167 
L 391.052169 352.174167 
L 391.206405 339.441727 
L 391.355692 352.174167 
L 391.662492 352.174167 
L 391.811461 340.654555 
L 391.960527 342.383421 
L 392.107685 350.509646 
L 392.258475 352.174167 
L 392.408086 352.174167 
L 392.556319 338.933881 
L 392.703302 352.174167 
L 392.85336 324.35558 
L 393.001105 352.174167 
L 393.155116 320.16769 
L 393.308486 352.174167 
L 393.459245 344.060793 
L 393.611175 352.174167 
L 393.911686 352.174167 
L 394.060768 347.23719 
L 394.208281 352.174167 
L 394.357424 337.44668 
L 394.511453 352.174167 
L 394.666769 347.425522 
L 394.821122 352.174167 
L 395.588055 352.174167 
L 395.741182 329.707742 
L 395.896348 352.174167 
L 396.197619 352.174167 
L 396.351756 342.572224 
L 396.502579 352.174167 
L 396.811365 352.174167 
L 396.965579 342.624837 
L 397.118309 352.174167 
L 397.273835 352.174167 
L 397.42671 344.150444 
L 397.578627 352.174167 
L 397.728197 337.44668 
L 397.88245 352.174167 
L 398.491924 352.174167 
L 398.642295 332.592676 
L 398.797077 352.174167 
L 398.947986 352.174167 
L 399.095577 335.576522 
L 399.249995 350.582612 
L 399.403557 352.174167 
L 399.556284 352.174167 
L 399.708802 350.569422 
L 399.862203 352.174167 
L 400.015206 320.16769 
L 400.170096 352.174167 
L 400.324431 350.58696 
L 400.47229 352.174167 
L 400.626485 342.598603 
L 400.780929 352.174167 
L 400.934285 352.174167 
L 401.081456 345.516086 
L 401.232657 352.174167 
L 401.530942 352.174167 
L 401.683296 339.300648 
L 401.83604 352.174167 
L 402.438591 352.174167 
L 402.59392 331.596706 
L 402.748325 352.174167 
L 402.899147 352.174167 
L 403.052296 336.170928 
L 403.205635 352.174167 
L 403.812919 352.174167 
L 403.9651 329.707742 
L 404.114544 352.174167 
L 404.572287 352.174167 
L 404.873329 340.878548 
L 405.022321 352.174167 
L 405.484111 352.174167 
L 405.635758 324.741949 
L 405.786868 352.174167 
L 406.395665 352.174167 
L 406.55024 323.604451 
L 406.702327 352.174167 
L 406.854286 352.174167 
L 407.004296 347.292507 
L 407.156945 352.174167 
L 407.454407 352.174167 
L 407.602456 343.898988 
L 407.753033 352.174167 
L 407.906008 320.079275 
L 408.056844 352.174167 
L 408.362669 352.174167 
L 408.668082 345.825341 
L 408.820174 336.170928 
L 408.974821 352.174167 
L 409.895507 352.174167 
L 410.050258 331.540483 
L 410.202643 352.174167 
L 410.811145 352.174167 
L 410.964607 328.169309 
L 411.117149 352.174167 
L 411.423504 352.174167 
L 411.571505 350.514402 
L 411.724216 321.684019 
L 411.878411 352.174167 
L 412.47225 352.174167 
L 412.625325 336.126721 
L 412.775981 352.174167 
L 413.08335 352.174167 
L 413.237476 345.807947 
L 413.389639 352.174167 
L 413.54265 352.174167 
L 413.85193 347.373195 
L 414.003254 352.174167 
L 414.156042 352.174167 
L 414.30947 342.598603 
L 414.458353 352.174167 
L 414.609399 327.834046 
L 414.760986 352.174167 
L 415.065479 352.174167 
L 415.220116 344.19453 
L 415.368057 352.174167 
L 415.515947 352.174167 
L 415.666075 347.265004 
L 415.82065 348.991057 
L 415.967918 324.038559 
L 416.12217 352.174167 
L 416.417456 352.174167 
L 416.571709 337.810821 
L 416.718134 352.174167 
L 417.019352 352.174167 
L 417.173365 339.371576 
L 417.322918 352.174167 
L 417.469991 322.126707 
L 417.616477 352.174167 
L 417.762879 345.477711 
L 417.909275 352.174167 
L 418.055651 352.174167 
L 418.349121 343.82765 
L 418.497518 347.194873 
L 418.647105 345.647003 
L 418.799154 352.174167 
L 418.951548 352.174167 
L 419.104763 342.545699 
L 419.256256 352.174167 
L 419.409801 326.639329 
L 419.565259 352.174167 
L 419.717053 348.955787 
L 419.86715 352.174167 
L 420.01384 327.134617 
L 420.167674 352.174167 
L 420.471971 352.174167 
L 420.62652 342.650928 
L 420.783284 350.61256 
L 420.938353 350.591285 
L 421.088728 329.456721 
L 421.24262 352.174167 
L 421.535407 352.174167 
L 421.682619 338.858005 
L 421.829112 352.174167 
L 421.976396 348.845126 
L 422.12573 352.174167 
L 422.272835 338.858005 
L 422.420461 352.174167 
L 423.017281 352.174167 
L 423.168048 337.529186 
L 423.318602 352.174167 
L 424.388543 352.174167 
L 424.543234 325.117733 
L 424.690308 352.174167 
L 424.991821 352.174167 
L 425.147824 336.431144 
L 425.298654 352.174167 
L 425.755686 352.174167 
L 425.902044 328.736571 
L 426.048374 352.174167 
L 426.652896 352.174167 
L 426.800937 330.719825 
L 426.951751 352.174167 
L 427.248843 352.174167 
L 427.39866 343.992229 
L 427.548483 352.174167 
L 427.851128 352.174167 
L 428.008104 336.558104 
L 428.162576 352.174167 
L 428.627523 352.174167 
L 428.779387 332.917231 
L 428.928247 352.174167 
L 429.544234 352.174167 
L 429.699836 326.98533 
L 429.854101 352.174167 
L 430.303481 352.174167 
L 430.452416 339.046087 
L 430.603307 352.174167 
L 430.915088 352.174167 
L 431.069454 337.889309 
L 431.222656 352.174167 
L 431.524358 352.174167 
L 431.676282 315.05999 
L 431.830515 352.174167 
L 431.979746 352.174167 
L 432.133961 344.238135 
L 432.28773 344.216392 
L 432.434626 352.174167 
L 432.589006 352.174167 
L 432.742929 336.258617 
L 432.898183 352.174167 
L 433.487277 352.174167 
L 433.636571 343.969117 
L 433.790037 352.174167 
L 433.942915 348.964677 
L 434.097217 350.582612 
L 434.245727 340.687097 
L 434.394407 350.523833 
L 434.540623 352.174167 
L 434.686972 337.107141 
L 434.833247 352.174167 
L 435.424215 352.174167 
L 435.570537 323.714229 
L 435.716907 352.174167 
L 436.302877 352.174167 
L 436.456761 326.568986 
L 436.604328 352.174167 
L 437.063249 352.174167 
L 437.217111 331.427111 
L 437.530088 352.174167 
L 438.462742 352.174167 
L 438.618967 333.333598 
L 438.775429 352.174167 
L 439.378244 352.174167 
L 439.525383 330.597229 
L 439.675096 352.174167 
L 440.132079 352.174167 
L 440.279325 333.968773 
L 440.57496 352.174167 
L 440.723719 352.174167 
L 440.871138 347.194873 
L 441.022134 352.174167 
L 441.169836 315.76338 
L 441.317673 352.174167 
L 441.914506 352.174167 
L 442.06249 327.34863 
L 442.211031 352.174167 
L 442.817954 352.174167 
L 442.968345 322.801931 
L 443.119587 352.174167 
L 443.273851 352.174167 
L 443.428892 342.676877 
L 443.58373 352.174167 
L 443.895321 352.174167 
L 444.048984 337.850172 
L 444.200456 352.174167 
L 444.660617 352.174167 
L 444.970891 333.231203 
L 445.119088 352.174167 
L 445.585407 352.174167 
L 445.741814 330.25275 
L 445.890464 352.174167 
L 446.492408 352.174167 
L 446.641925 325.991967 
L 446.792103 352.174167 
L 447.244083 352.174167 
L 447.398872 323.682298 
L 447.55425 352.174167 
L 448.169877 352.174167 
L 448.32197 324.741949 
L 448.471567 352.174167 
L 448.927922 352.174167 
L 449.084567 338.11971 
L 449.390147 352.174167 
L 449.543468 352.174167 
L 449.691895 330.780603 
L 449.841384 352.174167 
L 450.457872 352.174167 
L 450.612856 333.179587 
L 450.764607 352.174167 
L 450.9199 352.174167 
L 451.075512 342.728353 
L 451.385911 352.174167 
L 451.540924 352.174167 
L 451.693631 339.33621 
L 451.841363 352.174167 
L 451.989235 338.896051 
L 452.136271 352.174167 
L 452.591294 352.174167 
L 452.739189 315.130149 
L 452.893724 352.174167 
L 453.485797 352.174167 
L 453.638036 334.374465 
L 453.793195 352.174167 
L 454.257792 352.174167 
L 454.412284 331.483953 
L 454.567541 352.174167 
L 454.876949 352.174167 
L 455.031522 344.238135 
L 455.181696 352.174167 
L 455.330727 347.23719 
L 455.479128 352.174167 
L 455.928057 352.174167 
L 456.075514 327.2777 
L 456.228032 352.174167 
L 456.834969 352.174167 
L 456.986963 331.138155 
L 457.13738 352.174167 
L 457.291984 352.174167 
L 457.445175 345.772871 
L 457.599542 352.174167 
L 457.748998 344.015212 
L 457.89999 352.174167 
L 458.198551 352.174167 
L 458.346017 343.851566 
L 458.497702 352.174167 
L 458.647815 339.11984 
L 458.800177 352.174167 
L 459.25814 352.174167 
L 459.410003 332.75631 
L 459.561046 352.174167 
L 459.866079 352.174167 
L 460.020194 334.618966 
L 460.171083 352.174167 
L 460.319857 352.174167 
L 460.469694 303.082543 
L 460.61842 352.174167 
L 460.770669 336.082268 
L 460.9217 352.174167 
L 461.535384 352.174167 
L 461.68784 329.645508 
L 461.837607 352.174167 
L 462.293497 352.174167 
L 462.446028 328.036318 
L 462.593757 352.174167 
L 463.196847 352.174167 
L 463.500674 331.079395 
L 463.801091 352.174167 
L 463.949882 352.174167 
L 464.099015 342.300214 
L 464.254765 352.174167 
L 464.401646 340.588916 
L 464.550753 352.174167 
L 466.063333 352.174167 
L 466.211952 330.719825 
L 466.360378 352.174167 
L 466.805217 352.174167 
L 467.106915 334.123056 
L 467.256013 352.174167 
L 467.713712 352.174167 
L 467.863407 326.138646 
L 468.015089 352.174167 
L 468.625973 352.174167 
L 468.775559 324.276996 
L 468.922737 352.174167 
L 469.37514 352.174167 
L 469.528046 332.863888 
L 469.675139 348.854638 
L 469.825424 352.174167 
L 469.976898 352.174167 
L 470.127807 340.815444 
L 470.27735 352.174167 
L 470.580473 352.174167 
L 470.730307 345.665287 
L 470.882745 352.174167 
L 471.037328 325.117733 
L 471.185988 352.174167 
L 471.486815 352.174167 
L 471.636705 344.015212 
L 471.787451 352.174167 
L 471.941754 352.174167 
L 472.096651 342.676877 
L 472.2503 352.174167 
L 472.56039 352.174167 
L 472.710957 314.852648 
L 472.862381 352.174167 
L 473.166132 352.174167 
L 473.318065 333.758913 
L 473.469135 352.174167 
L 473.9288 352.174167 
L 474.080839 340.940954 
L 474.235581 352.174167 
L 474.390589 342.702685 
L 474.541361 352.174167 
L 474.6939 320.079275 
L 474.847834 352.174167 
L 475.308124 352.174167 
L 475.463081 328.495462 
L 475.617611 352.174167 
L 475.923148 352.174167 
L 476.079648 347.464024 
L 476.23125 352.174167 
L 476.386381 319.023981 
L 476.53639 352.174167 
L 476.846124 352.174167 
L 477.157028 349.050954 
L 477.30361 352.174167 
L 477.456146 335.901966 
L 477.607619 352.174167 
L 477.911659 352.174167 
L 478.063339 337.570094 
L 478.216294 340.284041 
L 478.370743 337.850172 
L 478.524088 352.174167 
L 478.817587 352.174167 
L 478.969747 348.937857 
L 479.12321 352.174167 
L 479.27658 329.769633 
L 479.429823 352.174167 
L 480.34237 352.174167 
L 480.494024 331.196589 
L 480.64309 352.174167 
L 481.239587 352.174167 
L 481.388263 332.426261 
L 481.545351 352.174167 
L 481.694387 352.174167 
L 481.84718 345.737407 
L 481.994318 352.174167 
L 482.296357 352.174167 
L 482.450259 339.441727 
L 482.605229 352.174167 
L 482.901914 352.174167 
L 483.049455 340.555816 
L 483.197873 352.174167 
L 483.352344 323.447475 
L 483.507079 352.174167 
L 483.662853 342.728353 
L 483.81497 352.174167 
L 483.964081 352.174167 
L 484.112931 340.687097 
L 484.26501 352.174167 
L 484.568792 352.174167 
L 484.719374 340.783627 
L 484.871481 352.174167 
L 485.022346 344.060793 
L 485.174051 352.174167 
L 485.47806 352.174167 
L 485.625436 338.933881 
L 485.772837 350.509646 
L 485.920267 338.896051 
L 486.067555 340.522525 
L 486.213934 352.174167 
L 486.360345 325.388343 
L 486.508598 352.174167 
L 486.657799 301.302856 
L 486.810733 352.174167 
L 486.958481 332.370159 
L 487.113913 352.174167 
L 487.424744 352.174167 
L 487.579646 337.928232 
L 487.73228 352.174167 
L 488.034667 334.173905 
L 488.182861 297.557987 
L 488.330556 352.174167 
L 488.483792 319.990369 
L 488.634881 315.05999 
L 488.790314 350.58696 
L 488.938429 352.174167 
L 489.090733 344.083393 
L 489.24331 313.660296 
L 489.390541 348.854638 
L 489.544604 344.19453 
L 489.697877 352.174167 
L 489.851838 306.145181 
L 490.001041 352.174167 
L 490.600767 352.174167 
L 490.755763 322.099416 
L 490.911433 352.174167 
L 491.365929 352.174167 
L 491.519786 332.970281 
L 491.817572 352.174167 
L 491.965357 352.174167 
L 492.117574 344.083393 
L 492.268577 352.174167 
L 492.416902 329.069491 
L 492.571447 352.174167 
L 492.723088 348.937857 
L 492.870718 352.174167 
L 493.023592 324.817939 
L 493.180711 352.174167 
L 493.332495 336.037568 
L 493.4851 352.174167 
L 493.636131 315.05999 
L 493.786733 352.174167 
L 494.679531 352.174167 
L 494.826553 317.219243 
L 494.974069 352.174167 
L 495.268435 352.174167 
L 495.419033 340.751631 
L 495.571009 352.174167 
L 495.571009 352.174167 
" style="fill:none;stroke:#1f77b4;stroke-linecap:square;stroke-width:1.5;"/>
   </g>
   <g id="patch_3">
    <path d="M 66.158594 352.174167 
L 66.158594 35.0625 
" style="fill:none;stroke:#000000;stroke-linecap:square;stroke-linejoin:miter;stroke-width:0.8;"/>
   </g>
   <g id="patch_4">
    <path d="M 516.019219 352.174167 
L 516.019219 35.0625 
" style="fill:none;stroke:#000000;stroke-linecap:square;stroke-linejoin:miter;stroke-width:0.8;"/>
   </g>
   <g id="patch_5">
    <path d="M 66.158594 352.174167 
L 516.019219 352.174167 
" style="fill:none;stroke:#000000;stroke-linecap:square;stroke-linejoin:miter;stroke-width:0.8;"/>
   </g>
   <g id="patch_6">
    <path d="M 66.158594 35.0625 
L 516.019219 35.0625 
" style="fill:none;stroke:#000000;stroke-linecap:square;stroke-linejoin:miter;stroke-width:0.8;"/>
   </g>
   <g id="legend_1">
    <g id="patch_7">
     <path d="M 540.51225 53.01875 
L 620.748187 53.01875 
Q 622.748187 53.01875 622.748187 51.01875 
L 622.748187 37.0625 
Q 622.748187 35.0625 620.748187 35.0625 
L 540.51225 35.0625 
Q 538.51225 35.0625 538.51225 37.0625 
L 538.51225 51.01875 
Q 538.51225 53.01875 540.51225 53.01875 
z
" style="fill:#ffffff;opacity:0.8;stroke:#cccccc;stroke-linejoin:miter;"/>
    </g>
    <g id="line2d_15">
     <path d="M 542.51225 43.160937 
L 562.51225 43.160937 
" style="fill:none;stroke:#1f77b4;stroke-linecap:square;stroke-width:1.5;"/>
    </g>
    <g id="line2d_16"/>
    <g id="text_15">
     <!-- drop_rate -->
     <defs>
      <path d="M 50.984375 -16.609375 
L 50.984375 -23.578125 
L -0.984375 -23.578125 
L -0.984375 -16.609375 
z
" id="DejaVuSans-95"/>
     </defs>
     <g transform="translate(570.51225 46.660937)scale(0.1 -0.1)">
      <use xlink:href="#DejaVuSans-100"/>
      <use x="63.476562" xlink:href="#DejaVuSans-114"/>
      <use x="104.558594" xlink:href="#DejaVuSans-111"/>
      <use x="165.740234" xlink:href="#DejaVuSans-112"/>
      <use x="229.216797" xlink:href="#DejaVuSans-95"/>
      <use x="279.216797" xlink:href="#DejaVuSans-114"/>
      <use x="320.330078" xlink:href="#DejaVuSans-97"/>
      <use x="381.609375" xlink:href="#DejaVuSans-116"/>
      <use x="420.818359" xlink:href="#DejaVuSans-101"/>
     </g>
    </g>
   </g>
  </g>
  <g id="text_16">
   <!-- result droprate -->
   <defs>
    <path d="M 44.28125 53.078125 
L 44.28125 44.578125 
Q 40.484375 46.53125 36.375 47.5 
Q 32.28125 48.484375 27.875 48.484375 
Q 21.1875 48.484375 17.84375 46.4375 
Q 14.5 44.390625 14.5 40.28125 
Q 14.5 37.15625 16.890625 35.375 
Q 19.28125 33.59375 26.515625 31.984375 
L 29.59375 31.296875 
Q 39.15625 29.25 43.1875 25.515625 
Q 47.21875 21.78125 47.21875 15.09375 
Q 47.21875 7.46875 41.1875 3.015625 
Q 35.15625 -1.421875 24.609375 -1.421875 
Q 20.21875 -1.421875 15.453125 -0.5625 
Q 10.6875 0.296875 5.421875 2 
L 5.421875 11.28125 
Q 10.40625 8.6875 15.234375 7.390625 
Q 20.0625 6.109375 24.8125 6.109375 
Q 31.15625 6.109375 34.5625 8.28125 
Q 37.984375 10.453125 37.984375 14.40625 
Q 37.984375 18.0625 35.515625 20.015625 
Q 33.0625 21.96875 24.703125 23.78125 
L 21.578125 24.515625 
Q 13.234375 26.265625 9.515625 29.90625 
Q 5.8125 33.546875 5.8125 39.890625 
Q 5.8125 47.609375 11.28125 51.796875 
Q 16.75 56 26.8125 56 
Q 31.78125 56 36.171875 55.265625 
Q 40.578125 54.546875 44.28125 53.078125 
z
" id="DejaVuSans-115"/>
    <path d="M 8.5 21.578125 
L 8.5 54.6875 
L 17.484375 54.6875 
L 17.484375 21.921875 
Q 17.484375 14.15625 20.5 10.265625 
Q 23.53125 6.390625 29.59375 6.390625 
Q 36.859375 6.390625 41.078125 11.03125 
Q 45.3125 15.671875 45.3125 23.6875 
L 45.3125 54.6875 
L 54.296875 54.6875 
L 54.296875 0 
L 45.3125 0 
L 45.3125 8.40625 
Q 42.046875 3.421875 37.71875 1 
Q 33.40625 -1.421875 27.6875 -1.421875 
Q 18.265625 -1.421875 13.375 4.4375 
Q 8.5 10.296875 8.5 21.578125 
z
M 31.109375 56 
z
" id="DejaVuSans-117"/>
    <path d="M 9.421875 75.984375 
L 18.40625 75.984375 
L 18.40625 0 
L 9.421875 0 
z
" id="DejaVuSans-108"/>
    <path id="DejaVuSans-32"/>
   </defs>
   <g transform="translate(297.047813 17.038125)scale(0.12 -0.12)">
    <use xlink:href="#DejaVuSans-114"/>
    <use x="41.082031" xlink:href="#DejaVuSans-101"/>
    <use x="102.605469" xlink:href="#DejaVuSans-115"/>
    <use x="154.705078" xlink:href="#DejaVuSans-117"/>
    <use x="218.083984" xlink:href="#DejaVuSans-108"/>
    <use x="245.867188" xlink:href="#DejaVuSans-116"/>
    <use x="285.076172" xlink:href="#DejaVuSans-32"/>
    <use x="316.863281" xlink:href="#DejaVuSans-100"/>
    <use x="380.339844" xlink:href="#DejaVuSans-114"/>
    <use x="421.421875" xlink:href="#DejaVuSans-111"/>
    <use x="482.603516" xlink:href="#DejaVuSans-112"/>
    <use x="546.080078" xlink:href="#DejaVuSans-114"/>
    <use x="587.193359" xlink:href="#DejaVuSans-97"/>
    <use x="648.472656" xlink:href="#DejaVuSans-116"/>
    <use x="687.681641" xlink:href="#DejaVuSans-101"/>
   </g>
  </g>
 </g>
 <defs>
  <clipPath id="pbefa75fabd">
   <rect height="317.111667" width="449.860625" x="66.158594" y="35.0625"/>
  </clipPath>
 </defs>
</svg>
