<?xml version="1.0" encoding="utf-8" standalone="no"?>
<!DOCTYPE svg PUBLIC "-//W3C//DTD SVG 1.1//EN"
  "http://www.w3.org/Graphics/SVG/1.1/DTD/svg11.dtd">
<!-- Created with matplotlib (https://matplotlib.org/) -->
<svg height="396pt" version="1.1" viewBox="0 0 684 396" width="684pt" xmlns="http://www.w3.org/2000/svg" xmlns:xlink="http://www.w3.org/1999/xlink">
 <defs>
  <style type="text/css">
*{stroke-linecap:butt;stroke-linejoin:round;}
  </style>
 </defs>
 <g id="figure_1">
  <g id="patch_1">
   <path d="M 0 396 
L 684 396 
L 684 0 
L 0 0 
z
" style="fill:#ffffff;"/>
  </g>
  <g id="axes_1">
   <g id="patch_2">
    <path d="M 66.158594 352.174167 
L 516.019219 352.174167 
L 516.019219 35.0625 
L 66.158594 35.0625 
z
" style="fill:#ffffff;"/>
   </g>
   <g id="matplotlib.axis_1">
    <g id="xtick_1">
     <g id="line2d_1">
      <defs>
       <path d="M 0 0 
L 0 3.5 
" id="m839e5e4f0f" style="stroke:#000000;stroke-width:0.8;"/>
      </defs>
      <g>
       <use style="stroke:#000000;stroke-width:0.8;" x="91.817705" xlink:href="#m839e5e4f0f" y="352.174167"/>
      </g>
     </g>
     <g id="text_1">
      <!-- 0 -->
      <defs>
       <path d="M 31.78125 66.40625 
Q 24.171875 66.40625 20.328125 58.90625 
Q 16.5 51.421875 16.5 36.375 
Q 16.5 21.390625 20.328125 13.890625 
Q 24.171875 6.390625 31.78125 6.390625 
Q 39.453125 6.390625 43.28125 13.890625 
Q 47.125 21.390625 47.125 36.375 
Q 47.125 51.421875 43.28125 58.90625 
Q 39.453125 66.40625 31.78125 66.40625 
z
M 31.78125 74.21875 
Q 44.046875 74.21875 50.515625 64.515625 
Q 56.984375 54.828125 56.984375 36.375 
Q 56.984375 17.96875 50.515625 8.265625 
Q 44.046875 -1.421875 31.78125 -1.421875 
Q 19.53125 -1.421875 13.0625 8.265625 
Q 6.59375 17.96875 6.59375 36.375 
Q 6.59375 54.828125 13.0625 64.515625 
Q 19.53125 74.21875 31.78125 74.21875 
z
" id="DejaVuSans-48"/>
      </defs>
      <g transform="translate(88.636455 366.772604)scale(0.1 -0.1)">
       <use xlink:href="#DejaVuSans-48"/>
      </g>
     </g>
    </g>
    <g id="xtick_2">
     <g id="line2d_2">
      <g>
       <use style="stroke:#000000;stroke-width:0.8;" x="163.477875" xlink:href="#m839e5e4f0f" y="352.174167"/>
      </g>
     </g>
     <g id="text_2">
      <!-- 50 -->
      <defs>
       <path d="M 10.796875 72.90625 
L 49.515625 72.90625 
L 49.515625 64.59375 
L 19.828125 64.59375 
L 19.828125 46.734375 
Q 21.96875 47.46875 24.109375 47.828125 
Q 26.265625 48.1875 28.421875 48.1875 
Q 40.625 48.1875 47.75 41.5 
Q 54.890625 34.8125 54.890625 23.390625 
Q 54.890625 11.625 47.5625 5.09375 
Q 40.234375 -1.421875 26.90625 -1.421875 
Q 22.3125 -1.421875 17.546875 -0.640625 
Q 12.796875 0.140625 7.71875 1.703125 
L 7.71875 11.625 
Q 12.109375 9.234375 16.796875 8.0625 
Q 21.484375 6.890625 26.703125 6.890625 
Q 35.15625 6.890625 40.078125 11.328125 
Q 45.015625 15.765625 45.015625 23.390625 
Q 45.015625 31 40.078125 35.4375 
Q 35.15625 39.890625 26.703125 39.890625 
Q 22.75 39.890625 18.8125 39.015625 
Q 14.890625 38.140625 10.796875 36.28125 
z
" id="DejaVuSans-53"/>
      </defs>
      <g transform="translate(157.115375 366.772604)scale(0.1 -0.1)">
       <use xlink:href="#DejaVuSans-53"/>
       <use x="63.623047" xlink:href="#DejaVuSans-48"/>
      </g>
     </g>
    </g>
    <g id="xtick_3">
     <g id="line2d_3">
      <g>
       <use style="stroke:#000000;stroke-width:0.8;" x="235.138044" xlink:href="#m839e5e4f0f" y="352.174167"/>
      </g>
     </g>
     <g id="text_3">
      <!-- 100 -->
      <defs>
       <path d="M 12.40625 8.296875 
L 28.515625 8.296875 
L 28.515625 63.921875 
L 10.984375 60.40625 
L 10.984375 69.390625 
L 28.421875 72.90625 
L 38.28125 72.90625 
L 38.28125 8.296875 
L 54.390625 8.296875 
L 54.390625 0 
L 12.40625 0 
z
" id="DejaVuSans-49"/>
      </defs>
      <g transform="translate(225.594294 366.772604)scale(0.1 -0.1)">
       <use xlink:href="#DejaVuSans-49"/>
       <use x="63.623047" xlink:href="#DejaVuSans-48"/>
       <use x="127.246094" xlink:href="#DejaVuSans-48"/>
      </g>
     </g>
    </g>
    <g id="xtick_4">
     <g id="line2d_4">
      <g>
       <use style="stroke:#000000;stroke-width:0.8;" x="306.798213" xlink:href="#m839e5e4f0f" y="352.174167"/>
      </g>
     </g>
     <g id="text_4">
      <!-- 150 -->
      <g transform="translate(297.254463 366.772604)scale(0.1 -0.1)">
       <use xlink:href="#DejaVuSans-49"/>
       <use x="63.623047" xlink:href="#DejaVuSans-53"/>
       <use x="127.246094" xlink:href="#DejaVuSans-48"/>
      </g>
     </g>
    </g>
    <g id="xtick_5">
     <g id="line2d_5">
      <g>
       <use style="stroke:#000000;stroke-width:0.8;" x="378.458383" xlink:href="#m839e5e4f0f" y="352.174167"/>
      </g>
     </g>
     <g id="text_5">
      <!-- 200 -->
      <defs>
       <path d="M 19.1875 8.296875 
L 53.609375 8.296875 
L 53.609375 0 
L 7.328125 0 
L 7.328125 8.296875 
Q 12.9375 14.109375 22.625 23.890625 
Q 32.328125 33.6875 34.8125 36.53125 
Q 39.546875 41.84375 41.421875 45.53125 
Q 43.3125 49.21875 43.3125 52.78125 
Q 43.3125 58.59375 39.234375 62.25 
Q 35.15625 65.921875 28.609375 65.921875 
Q 23.96875 65.921875 18.8125 64.3125 
Q 13.671875 62.703125 7.8125 59.421875 
L 7.8125 69.390625 
Q 13.765625 71.78125 18.9375 73 
Q 24.125 74.21875 28.421875 74.21875 
Q 39.75 74.21875 46.484375 68.546875 
Q 53.21875 62.890625 53.21875 53.421875 
Q 53.21875 48.921875 51.53125 44.890625 
Q 49.859375 40.875 45.40625 35.40625 
Q 44.1875 33.984375 37.640625 27.21875 
Q 31.109375 20.453125 19.1875 8.296875 
z
" id="DejaVuSans-50"/>
      </defs>
      <g transform="translate(368.914633 366.772604)scale(0.1 -0.1)">
       <use xlink:href="#DejaVuSans-50"/>
       <use x="63.623047" xlink:href="#DejaVuSans-48"/>
       <use x="127.246094" xlink:href="#DejaVuSans-48"/>
      </g>
     </g>
    </g>
    <g id="xtick_6">
     <g id="line2d_6">
      <g>
       <use style="stroke:#000000;stroke-width:0.8;" x="450.118552" xlink:href="#m839e5e4f0f" y="352.174167"/>
      </g>
     </g>
     <g id="text_6">
      <!-- 250 -->
      <g transform="translate(440.574802 366.772604)scale(0.1 -0.1)">
       <use xlink:href="#DejaVuSans-50"/>
       <use x="63.623047" xlink:href="#DejaVuSans-53"/>
       <use x="127.246094" xlink:href="#DejaVuSans-48"/>
      </g>
     </g>
    </g>
   </g>
   <g id="matplotlib.axis_2">
    <g id="ytick_1">
     <g id="line2d_7">
      <defs>
       <path d="M 0 0 
L -3.5 0 
" id="mb1d6bae6ad" style="stroke:#000000;stroke-width:0.8;"/>
      </defs>
      <g>
       <use style="stroke:#000000;stroke-width:0.8;" x="66.158594" xlink:href="#mb1d6bae6ad" y="352.174167"/>
      </g>
     </g>
     <g id="text_7">
      <!-- 0 -->
      <g transform="translate(52.796094 355.973385)scale(0.1 -0.1)">
       <use xlink:href="#DejaVuSans-48"/>
      </g>
     </g>
    </g>
    <g id="ytick_2">
     <g id="line2d_8">
      <g>
       <use style="stroke:#000000;stroke-width:0.8;" x="66.158594" xlink:href="#mb1d6bae6ad" y="315.95359"/>
      </g>
     </g>
     <g id="text_8">
      <!-- 10 -->
      <g transform="translate(46.433594 319.752809)scale(0.1 -0.1)">
       <use xlink:href="#DejaVuSans-49"/>
       <use x="63.623047" xlink:href="#DejaVuSans-48"/>
      </g>
     </g>
    </g>
    <g id="ytick_3">
     <g id="line2d_9">
      <g>
       <use style="stroke:#000000;stroke-width:0.8;" x="66.158594" xlink:href="#mb1d6bae6ad" y="279.733014"/>
      </g>
     </g>
     <g id="text_9">
      <!-- 20 -->
      <g transform="translate(46.433594 283.532232)scale(0.1 -0.1)">
       <use xlink:href="#DejaVuSans-50"/>
       <use x="63.623047" xlink:href="#DejaVuSans-48"/>
      </g>
     </g>
    </g>
    <g id="ytick_4">
     <g id="line2d_10">
      <g>
       <use style="stroke:#000000;stroke-width:0.8;" x="66.158594" xlink:href="#mb1d6bae6ad" y="243.512437"/>
      </g>
     </g>
     <g id="text_10">
      <!-- 30 -->
      <defs>
       <path d="M 40.578125 39.3125 
Q 47.65625 37.796875 51.625 33 
Q 55.609375 28.21875 55.609375 21.1875 
Q 55.609375 10.40625 48.1875 4.484375 
Q 40.765625 -1.421875 27.09375 -1.421875 
Q 22.515625 -1.421875 17.65625 -0.515625 
Q 12.796875 0.390625 7.625 2.203125 
L 7.625 11.71875 
Q 11.71875 9.328125 16.59375 8.109375 
Q 21.484375 6.890625 26.8125 6.890625 
Q 36.078125 6.890625 40.9375 10.546875 
Q 45.796875 14.203125 45.796875 21.1875 
Q 45.796875 27.640625 41.28125 31.265625 
Q 36.765625 34.90625 28.71875 34.90625 
L 20.21875 34.90625 
L 20.21875 43.015625 
L 29.109375 43.015625 
Q 36.375 43.015625 40.234375 45.921875 
Q 44.09375 48.828125 44.09375 54.296875 
Q 44.09375 59.90625 40.109375 62.90625 
Q 36.140625 65.921875 28.71875 65.921875 
Q 24.65625 65.921875 20.015625 65.03125 
Q 15.375 64.15625 9.8125 62.3125 
L 9.8125 71.09375 
Q 15.4375 72.65625 20.34375 73.4375 
Q 25.25 74.21875 29.59375 74.21875 
Q 40.828125 74.21875 47.359375 69.109375 
Q 53.90625 64.015625 53.90625 55.328125 
Q 53.90625 49.265625 50.4375 45.09375 
Q 46.96875 40.921875 40.578125 39.3125 
z
" id="DejaVuSans-51"/>
      </defs>
      <g transform="translate(46.433594 247.311656)scale(0.1 -0.1)">
       <use xlink:href="#DejaVuSans-51"/>
       <use x="63.623047" xlink:href="#DejaVuSans-48"/>
      </g>
     </g>
    </g>
    <g id="ytick_5">
     <g id="line2d_11">
      <g>
       <use style="stroke:#000000;stroke-width:0.8;" x="66.158594" xlink:href="#mb1d6bae6ad" y="207.29186"/>
      </g>
     </g>
     <g id="text_11">
      <!-- 40 -->
      <defs>
       <path d="M 37.796875 64.3125 
L 12.890625 25.390625 
L 37.796875 25.390625 
z
M 35.203125 72.90625 
L 47.609375 72.90625 
L 47.609375 25.390625 
L 58.015625 25.390625 
L 58.015625 17.1875 
L 47.609375 17.1875 
L 47.609375 0 
L 37.796875 0 
L 37.796875 17.1875 
L 4.890625 17.1875 
L 4.890625 26.703125 
z
" id="DejaVuSans-52"/>
      </defs>
      <g transform="translate(46.433594 211.091079)scale(0.1 -0.1)">
       <use xlink:href="#DejaVuSans-52"/>
       <use x="63.623047" xlink:href="#DejaVuSans-48"/>
      </g>
     </g>
    </g>
    <g id="ytick_6">
     <g id="line2d_12">
      <g>
       <use style="stroke:#000000;stroke-width:0.8;" x="66.158594" xlink:href="#mb1d6bae6ad" y="171.071284"/>
      </g>
     </g>
     <g id="text_12">
      <!-- 50 -->
      <g transform="translate(46.433594 174.870503)scale(0.1 -0.1)">
       <use xlink:href="#DejaVuSans-53"/>
       <use x="63.623047" xlink:href="#DejaVuSans-48"/>
      </g>
     </g>
    </g>
    <g id="ytick_7">
     <g id="line2d_13">
      <g>
       <use style="stroke:#000000;stroke-width:0.8;" x="66.158594" xlink:href="#mb1d6bae6ad" y="134.850707"/>
      </g>
     </g>
     <g id="text_13">
      <!-- 60 -->
      <defs>
       <path d="M 33.015625 40.375 
Q 26.375 40.375 22.484375 35.828125 
Q 18.609375 31.296875 18.609375 23.390625 
Q 18.609375 15.53125 22.484375 10.953125 
Q 26.375 6.390625 33.015625 6.390625 
Q 39.65625 6.390625 43.53125 10.953125 
Q 47.40625 15.53125 47.40625 23.390625 
Q 47.40625 31.296875 43.53125 35.828125 
Q 39.65625 40.375 33.015625 40.375 
z
M 52.59375 71.296875 
L 52.59375 62.3125 
Q 48.875 64.0625 45.09375 64.984375 
Q 41.3125 65.921875 37.59375 65.921875 
Q 27.828125 65.921875 22.671875 59.328125 
Q 17.53125 52.734375 16.796875 39.40625 
Q 19.671875 43.65625 24.015625 45.921875 
Q 28.375 48.1875 33.59375 48.1875 
Q 44.578125 48.1875 50.953125 41.515625 
Q 57.328125 34.859375 57.328125 23.390625 
Q 57.328125 12.15625 50.6875 5.359375 
Q 44.046875 -1.421875 33.015625 -1.421875 
Q 20.359375 -1.421875 13.671875 8.265625 
Q 6.984375 17.96875 6.984375 36.375 
Q 6.984375 53.65625 15.1875 63.9375 
Q 23.390625 74.21875 37.203125 74.21875 
Q 40.921875 74.21875 44.703125 73.484375 
Q 48.484375 72.75 52.59375 71.296875 
z
" id="DejaVuSans-54"/>
      </defs>
      <g transform="translate(46.433594 138.649926)scale(0.1 -0.1)">
       <use xlink:href="#DejaVuSans-54"/>
       <use x="63.623047" xlink:href="#DejaVuSans-48"/>
      </g>
     </g>
    </g>
    <g id="ytick_8">
     <g id="line2d_14">
      <g>
       <use style="stroke:#000000;stroke-width:0.8;" x="66.158594" xlink:href="#mb1d6bae6ad" y="98.630131"/>
      </g>
     </g>
     <g id="text_14">
      <!-- 70 -->
      <defs>
       <path d="M 8.203125 72.90625 
L 55.078125 72.90625 
L 55.078125 68.703125 
L 28.609375 0 
L 18.3125 0 
L 43.21875 64.59375 
L 8.203125 64.59375 
z
" id="DejaVuSans-55"/>
      </defs>
      <g transform="translate(46.433594 102.42935)scale(0.1 -0.1)">
       <use xlink:href="#DejaVuSans-55"/>
       <use x="63.623047" xlink:href="#DejaVuSans-48"/>
      </g>
     </g>
    </g>
    <g id="ytick_9">
     <g id="line2d_15">
      <g>
       <use style="stroke:#000000;stroke-width:0.8;" x="66.158594" xlink:href="#mb1d6bae6ad" y="62.409554"/>
      </g>
     </g>
     <g id="text_15">
      <!-- 80 -->
      <defs>
       <path d="M 31.78125 34.625 
Q 24.75 34.625 20.71875 30.859375 
Q 16.703125 27.09375 16.703125 20.515625 
Q 16.703125 13.921875 20.71875 10.15625 
Q 24.75 6.390625 31.78125 6.390625 
Q 38.8125 6.390625 42.859375 10.171875 
Q 46.921875 13.96875 46.921875 20.515625 
Q 46.921875 27.09375 42.890625 30.859375 
Q 38.875 34.625 31.78125 34.625 
z
M 21.921875 38.8125 
Q 15.578125 40.375 12.03125 44.71875 
Q 8.5 49.078125 8.5 55.328125 
Q 8.5 64.0625 14.71875 69.140625 
Q 20.953125 74.21875 31.78125 74.21875 
Q 42.671875 74.21875 48.875 69.140625 
Q 55.078125 64.0625 55.078125 55.328125 
Q 55.078125 49.078125 51.53125 44.71875 
Q 48 40.375 41.703125 38.8125 
Q 48.828125 37.15625 52.796875 32.3125 
Q 56.78125 27.484375 56.78125 20.515625 
Q 56.78125 9.90625 50.3125 4.234375 
Q 43.84375 -1.421875 31.78125 -1.421875 
Q 19.734375 -1.421875 13.25 4.234375 
Q 6.78125 9.90625 6.78125 20.515625 
Q 6.78125 27.484375 10.78125 32.3125 
Q 14.796875 37.15625 21.921875 38.8125 
z
M 18.3125 54.390625 
Q 18.3125 48.734375 21.84375 45.5625 
Q 25.390625 42.390625 31.78125 42.390625 
Q 38.140625 42.390625 41.71875 45.5625 
Q 45.3125 48.734375 45.3125 54.390625 
Q 45.3125 60.0625 41.71875 63.234375 
Q 38.140625 66.40625 31.78125 66.40625 
Q 25.390625 66.40625 21.84375 63.234375 
Q 18.3125 60.0625 18.3125 54.390625 
z
" id="DejaVuSans-56"/>
      </defs>
      <g transform="translate(46.433594 66.208773)scale(0.1 -0.1)">
       <use xlink:href="#DejaVuSans-56"/>
       <use x="63.623047" xlink:href="#DejaVuSans-48"/>
      </g>
     </g>
    </g>
    <g id="text_16">
     <!-- droprate -->
     <defs>
      <path d="M 45.40625 46.390625 
L 45.40625 75.984375 
L 54.390625 75.984375 
L 54.390625 0 
L 45.40625 0 
L 45.40625 8.203125 
Q 42.578125 3.328125 38.25 0.953125 
Q 33.9375 -1.421875 27.875 -1.421875 
Q 17.96875 -1.421875 11.734375 6.484375 
Q 5.515625 14.40625 5.515625 27.296875 
Q 5.515625 40.1875 11.734375 48.09375 
Q 17.96875 56 27.875 56 
Q 33.9375 56 38.25 53.625 
Q 42.578125 51.265625 45.40625 46.390625 
z
M 14.796875 27.296875 
Q 14.796875 17.390625 18.875 11.75 
Q 22.953125 6.109375 30.078125 6.109375 
Q 37.203125 6.109375 41.296875 11.75 
Q 45.40625 17.390625 45.40625 27.296875 
Q 45.40625 37.203125 41.296875 42.84375 
Q 37.203125 48.484375 30.078125 48.484375 
Q 22.953125 48.484375 18.875 42.84375 
Q 14.796875 37.203125 14.796875 27.296875 
z
" id="DejaVuSans-100"/>
      <path d="M 41.109375 46.296875 
Q 39.59375 47.171875 37.8125 47.578125 
Q 36.03125 48 33.890625 48 
Q 26.265625 48 22.1875 43.046875 
Q 18.109375 38.09375 18.109375 28.8125 
L 18.109375 0 
L 9.078125 0 
L 9.078125 54.6875 
L 18.109375 54.6875 
L 18.109375 46.1875 
Q 20.953125 51.171875 25.484375 53.578125 
Q 30.03125 56 36.53125 56 
Q 37.453125 56 38.578125 55.875 
Q 39.703125 55.765625 41.0625 55.515625 
z
" id="DejaVuSans-114"/>
      <path d="M 30.609375 48.390625 
Q 23.390625 48.390625 19.1875 42.75 
Q 14.984375 37.109375 14.984375 27.296875 
Q 14.984375 17.484375 19.15625 11.84375 
Q 23.34375 6.203125 30.609375 6.203125 
Q 37.796875 6.203125 41.984375 11.859375 
Q 46.1875 17.53125 46.1875 27.296875 
Q 46.1875 37.015625 41.984375 42.703125 
Q 37.796875 48.390625 30.609375 48.390625 
z
M 30.609375 56 
Q 42.328125 56 49.015625 48.375 
Q 55.71875 40.765625 55.71875 27.296875 
Q 55.71875 13.875 49.015625 6.21875 
Q 42.328125 -1.421875 30.609375 -1.421875 
Q 18.84375 -1.421875 12.171875 6.21875 
Q 5.515625 13.875 5.515625 27.296875 
Q 5.515625 40.765625 12.171875 48.375 
Q 18.84375 56 30.609375 56 
z
" id="DejaVuSans-111"/>
      <path d="M 18.109375 8.203125 
L 18.109375 -20.796875 
L 9.078125 -20.796875 
L 9.078125 54.6875 
L 18.109375 54.6875 
L 18.109375 46.390625 
Q 20.953125 51.265625 25.265625 53.625 
Q 29.59375 56 35.59375 56 
Q 45.5625 56 51.78125 48.09375 
Q 58.015625 40.1875 58.015625 27.296875 
Q 58.015625 14.40625 51.78125 6.484375 
Q 45.5625 -1.421875 35.59375 -1.421875 
Q 29.59375 -1.421875 25.265625 0.953125 
Q 20.953125 3.328125 18.109375 8.203125 
z
M 48.6875 27.296875 
Q 48.6875 37.203125 44.609375 42.84375 
Q 40.53125 48.484375 33.40625 48.484375 
Q 26.265625 48.484375 22.1875 42.84375 
Q 18.109375 37.203125 18.109375 27.296875 
Q 18.109375 17.390625 22.1875 11.75 
Q 26.265625 6.109375 33.40625 6.109375 
Q 40.53125 6.109375 44.609375 11.75 
Q 48.6875 17.390625 48.6875 27.296875 
z
" id="DejaVuSans-112"/>
      <path d="M 34.28125 27.484375 
Q 23.390625 27.484375 19.1875 25 
Q 14.984375 22.515625 14.984375 16.5 
Q 14.984375 11.71875 18.140625 8.90625 
Q 21.296875 6.109375 26.703125 6.109375 
Q 34.1875 6.109375 38.703125 11.40625 
Q 43.21875 16.703125 43.21875 25.484375 
L 43.21875 27.484375 
z
M 52.203125 31.203125 
L 52.203125 0 
L 43.21875 0 
L 43.21875 8.296875 
Q 40.140625 3.328125 35.546875 0.953125 
Q 30.953125 -1.421875 24.3125 -1.421875 
Q 15.921875 -1.421875 10.953125 3.296875 
Q 6 8.015625 6 15.921875 
Q 6 25.140625 12.171875 29.828125 
Q 18.359375 34.515625 30.609375 34.515625 
L 43.21875 34.515625 
L 43.21875 35.40625 
Q 43.21875 41.609375 39.140625 45 
Q 35.0625 48.390625 27.6875 48.390625 
Q 23 48.390625 18.546875 47.265625 
Q 14.109375 46.140625 10.015625 43.890625 
L 10.015625 52.203125 
Q 14.9375 54.109375 19.578125 55.046875 
Q 24.21875 56 28.609375 56 
Q 40.484375 56 46.34375 49.84375 
Q 52.203125 43.703125 52.203125 31.203125 
z
" id="DejaVuSans-97"/>
      <path d="M 18.3125 70.21875 
L 18.3125 54.6875 
L 36.8125 54.6875 
L 36.8125 47.703125 
L 18.3125 47.703125 
L 18.3125 18.015625 
Q 18.3125 11.328125 20.140625 9.421875 
Q 21.96875 7.515625 27.59375 7.515625 
L 36.8125 7.515625 
L 36.8125 0 
L 27.59375 0 
Q 17.1875 0 13.234375 3.875 
Q 9.28125 7.765625 9.28125 18.015625 
L 9.28125 47.703125 
L 2.6875 47.703125 
L 2.6875 54.6875 
L 9.28125 54.6875 
L 9.28125 70.21875 
z
" id="DejaVuSans-116"/>
      <path d="M 56.203125 29.59375 
L 56.203125 25.203125 
L 14.890625 25.203125 
Q 15.484375 15.921875 20.484375 11.0625 
Q 25.484375 6.203125 34.421875 6.203125 
Q 39.59375 6.203125 44.453125 7.46875 
Q 49.3125 8.734375 54.109375 11.28125 
L 54.109375 2.78125 
Q 49.265625 0.734375 44.1875 -0.34375 
Q 39.109375 -1.421875 33.890625 -1.421875 
Q 20.796875 -1.421875 13.15625 6.1875 
Q 5.515625 13.8125 5.515625 26.8125 
Q 5.515625 40.234375 12.765625 48.109375 
Q 20.015625 56 32.328125 56 
Q 43.359375 56 49.78125 48.890625 
Q 56.203125 41.796875 56.203125 29.59375 
z
M 47.21875 32.234375 
Q 47.125 39.59375 43.09375 43.984375 
Q 39.0625 48.390625 32.421875 48.390625 
Q 24.90625 48.390625 20.390625 44.140625 
Q 15.875 39.890625 15.1875 32.171875 
z
" id="DejaVuSans-101"/>
     </defs>
     <g transform="translate(40.353906 215.236302)rotate(-90)scale(0.1 -0.1)">
      <use xlink:href="#DejaVuSans-100"/>
      <use x="63.476562" xlink:href="#DejaVuSans-114"/>
      <use x="104.558594" xlink:href="#DejaVuSans-111"/>
      <use x="165.740234" xlink:href="#DejaVuSans-112"/>
      <use x="229.216797" xlink:href="#DejaVuSans-114"/>
      <use x="270.330078" xlink:href="#DejaVuSans-97"/>
      <use x="331.609375" xlink:href="#DejaVuSans-116"/>
      <use x="370.818359" xlink:href="#DejaVuSans-101"/>
     </g>
    </g>
   </g>
   <g id="line2d_16">
    <path clip-path="url(#pb1af792bef)" d="M 86.606804 352.174167 
L 91.372707 352.174167 
L 91.523377 261.450246 
L 91.674083 261.01383 
L 91.824724 352.174167 
L 92.730066 352.174167 
L 92.880883 335.852334 
L 93.031793 299.388667 
L 93.333411 184.094022 
L 93.485234 151.217298 
L 93.63721 327.07462 
L 93.790258 352.174167 
L 93.941671 329.66616 
L 94.097324 349.483687 
L 94.398583 323.991009 
L 94.550823 320.842679 
L 94.701805 307.115076 
L 94.853164 219.676738 
L 95.004221 329.644621 
L 95.154445 86.092239 
L 95.305957 50.163056 
L 95.457977 301.810317 
L 95.614176 257.191307 
L 95.765178 294.235122 
L 95.916109 234.908315 
L 96.066755 269.175914 
L 96.21744 257.277647 
L 96.36883 208.469202 
L 96.519674 300.679015 
L 96.670379 244.275706 
L 96.821365 242.299308 
L 96.973919 244.612113 
L 97.124874 251.75383 
L 97.275618 266.050456 
L 97.426986 264.482244 
L 97.577645 285.497746 
L 97.729198 288.520049 
L 97.880582 296.023608 
L 98.03197 289.27202 
L 98.183129 292.904132 
L 98.335264 307.457405 
L 98.637572 278.205012 
L 98.788549 287.643254 
L 98.938976 287.046784 
L 99.089858 294.179571 
L 99.240552 290.240808 
L 99.391029 306.593998 
L 99.692939 292.50042 
L 99.844962 321.245781 
L 99.99568 311.19595 
L 100.297535 351.82656 
L 100.448023 333.385395 
L 100.5993 349.745584 
L 100.750993 329.039957 
L 101.053379 350.789059 
L 101.205259 351.484251 
L 101.356415 326.00721 
L 101.509473 348.740937 
L 101.66029 330.337838 
L 101.961963 342.779781 
L 102.112484 327.865055 
L 102.263353 343.119023 
L 102.414656 342.833617 
L 102.565372 332.379604 
L 102.716386 340.031253 
L 102.867109 315.327899 
L 103.017753 351.130346 
L 103.1687 312.276022 
L 103.319482 352.174167 
L 103.470357 320.8896 
L 103.621589 352.174167 
L 103.922666 328.514232 
L 104.074157 340.089132 
L 104.22504 316.684265 
L 104.375468 351.82656 
L 104.526352 324.312185 
L 104.677641 325.510836 
L 104.828314 337.949611 
L 104.981765 313.146324 
L 105.289263 335.818685 
L 105.439803 331.337785 
L 105.591118 334.860316 
L 105.741963 352.174167 
L 105.892898 352.174167 
L 106.04365 315.988384 
L 106.19486 306.811877 
L 106.346103 320.602591 
L 106.497343 294.456263 
L 106.799881 306.984685 
L 106.952668 296.899164 
L 107.104433 313.847341 
L 107.557193 292.557524 
L 107.708651 293.943957 
L 107.85924 322.65596 
L 108.010571 308.889539 
L 108.161693 343.855565 
L 108.312372 343.823601 
L 108.616267 320.286195 
L 108.767684 285.278748 
L 108.919025 290.941673 
L 109.070088 263.357427 
L 109.371995 287.171788 
L 109.522658 276.323199 
L 109.673498 294.471521 
L 109.827027 296.187602 
L 109.979061 319.496533 
L 110.130593 315.849806 
L 110.282198 317.546464 
L 110.434063 323.225276 
L 110.585583 308.238988 
L 110.736403 326.847518 
L 110.887728 304.342209 
L 111.190195 312.199442 
L 111.342338 307.759201 
L 111.493567 316.507633 
L 111.643926 306.941938 
L 111.794851 318.076025 
L 112.097244 292.614519 
L 112.24837 310.58116 
L 112.39911 296.209552 
L 112.550555 307.201149 
L 112.701808 300.529517 
L 112.85241 301.32605 
L 113.00364 293.943957 
L 113.154939 299.590331 
L 113.305508 313.552803 
L 113.45619 304.552103 
L 113.607546 304.387938 
L 113.759573 311.469138 
L 113.910853 310.967201 
L 114.061468 302.118859 
L 114.212537 317.133187 
L 114.515289 305.594922 
L 114.666486 288.684076 
L 114.817897 312.390343 
L 114.968727 293.194301 
L 115.119274 290.936689 
L 115.269872 298.591373 
L 115.421362 315.849806 
L 115.724453 287.581384 
L 115.875207 305.898118 
L 116.026761 287.543939 
L 116.330173 306.984685 
L 116.480995 320.919594 
L 116.631593 322.975237 
L 116.782273 300.331074 
L 116.932739 327.243583 
L 117.235021 309.112312 
L 117.385875 308.765038 
L 117.687924 325.806697 
L 117.839061 291.864307 
L 117.991715 352.174167 
L 118.459023 352.174167 
L 118.610624 312.73629 
L 118.761686 317.166719 
L 118.912882 317.827068 
L 119.064476 322.134222 
L 119.216124 319.686245 
L 119.367085 347.312344 
L 119.518639 347.340153 
L 119.669989 330.033604 
L 119.973082 346.29308 
L 120.126532 332.336646 
L 120.278152 352.174167 
L 120.429161 333.821484 
L 120.580056 352.174167 
L 120.731199 342.81574 
L 120.882892 352.174167 
L 121.034111 341.775915 
L 121.185878 348.376013 
L 121.337464 341.449832 
L 121.489141 352.174167 
L 121.640732 339.374154 
L 121.791603 352.174167 
L 121.94376 344.577859 
L 122.095798 350.798266 
L 122.246846 350.441125 
L 122.548847 342.093584 
L 122.701373 351.486869 
L 122.85217 345.935216 
L 123.00643 350.133571 
L 123.158685 347.358515 
L 123.310465 351.829537 
L 123.462295 345.953075 
L 123.614006 352.174167 
L 123.765637 346.298691 
L 123.91631 350.39516 
L 124.067313 350.090529 
L 124.219506 349.417129 
L 124.370764 347.676865 
L 124.522476 351.482934 
L 124.674009 344.570611 
L 124.825602 352.174167 
L 125.128825 347.330919 
L 125.280339 349.754853 
L 125.431781 343.525509 
L 125.583405 349.750228 
L 125.735194 348.72787 
L 126.192738 351.486869 
L 126.345246 346.675787 
L 126.497628 352.174167 
L 126.649626 352.174167 
L 126.801295 348.372389 
L 126.952738 350.444435 
L 127.105344 350.800875 
L 127.256108 343.145068 
L 127.408111 350.102446 
L 127.559804 345.268432 
L 127.71141 352.174167 
L 127.86287 349.406596 
L 128.014476 352.174167 
L 128.166942 345.626203 
L 128.318865 349.069546 
L 128.471247 345.314209 
L 128.62238 347.672565 
L 128.773634 347.663942 
L 128.924557 350.439465 
L 129.07566 346.27618 
L 129.226505 350.786405 
L 129.378288 351.82855 
L 129.530016 340.790557 
L 129.682837 352.174167 
L 129.834434 346.309883 
L 129.987922 345.333642 
L 130.139002 347.672565 
L 130.29078 352.174167 
L 130.442401 344.232572 
L 130.745869 349.066586 
L 130.897443 348.372389 
L 131.04909 351.137318 
L 131.19984 343.998767 
L 131.351661 351.139293 
L 131.502676 347.317001 
L 131.654611 352.174167 
L 131.806199 343.887285 
L 131.957832 351.483593 
L 132.110197 345.268432 
L 132.261979 347.702491 
L 132.417002 348.104439 
L 132.568221 352.174167 
L 133.042513 352.174167 
L 133.199048 350.171185 
L 133.349906 323.350506 
L 133.653775 341.490647 
L 133.805491 341.460065 
L 133.957326 332.492824 
L 134.109438 351.138307 
L 134.261896 349.43278 
L 134.413781 352.174167 
L 134.565679 348.376013 
L 134.717602 352.174167 
L 134.869321 348.030726 
L 135.023018 352.174167 
L 135.174867 348.731146 
L 135.326791 352.174167 
L 135.479091 352.174167 
L 135.630557 348.372389 
L 135.781816 351.482274 
L 135.933653 346.994866 
L 136.085663 351.829209 
L 136.389212 349.414504 
L 136.692773 351.82888 
L 136.844535 350.451018 
L 136.996543 351.82855 
L 137.147988 349.066586 
L 137.299774 350.79302 
L 137.451343 348.718005 
L 137.603029 352.174167 
L 137.753919 350.436135 
L 137.905302 352.174167 
L 138.057016 349.406596 
L 138.208016 352.174167 
L 138.359222 351.827558 
L 138.511058 352.174167 
L 138.662989 350.795648 
L 138.814803 352.174167 
L 138.966316 350.446086 
L 139.11779 350.442782 
L 139.268934 349.054691 
L 139.419833 351.479621 
L 139.570777 349.745584 
L 139.721581 352.174167 
L 140.02424 352.174167 
L 140.176819 351.830192 
L 140.328772 352.174167 
L 140.479665 352.174167 
L 140.632072 350.112274 
L 140.783384 352.174167 
L 141.086912 352.174167 
L 141.237959 349.406596 
L 141.389439 352.174167 
L 141.54039 351.827558 
L 141.691259 352.174167 
L 141.842974 349.063621 
L 141.994745 352.174167 
L 142.145951 351.827558 
L 142.2977 351.136328 
L 142.449664 349.761759 
L 142.601945 352.174167 
L 142.753581 352.174167 
L 142.904826 351.134342 
L 143.056525 352.174167 
L 143.20818 347.681156 
L 143.359185 352.174167 
L 143.662655 352.174167 
L 143.81352 350.090529 
L 143.964203 352.174167 
L 144.570723 352.174167 
L 144.722342 348.718005 
L 144.873912 352.174167 
L 145.177323 352.174167 
L 145.328892 350.446086 
L 145.480204 339.75771 
L 145.632191 352.174167 
L 145.934452 352.174167 
L 146.08545 347.663942 
L 146.388101 352.174167 
L 146.539127 352.174167 
L 146.690282 351.133346 
L 146.841193 352.174167 
L 146.992264 348.014866 
L 147.144432 352.174167 
L 147.912596 352.174167 
L 148.06369 343.871456 
L 148.214545 352.174167 
L 148.519039 352.174167 
L 148.670267 350.446086 
L 148.82213 352.174167 
L 148.972819 350.437802 
L 149.123583 352.174167 
L 149.274905 348.014866 
L 149.425836 352.174167 
L 149.576576 352.174167 
L 149.727904 351.826894 
L 149.878763 350.789059 
L 150.030246 350.786405 
L 150.181315 349.054691 
L 150.332053 352.174167 
L 150.633665 352.174167 
L 150.784824 350.786405 
L 150.935768 352.174167 
L 151.086955 352.174167 
L 151.23793 350.783741 
L 151.390068 352.174167 
L 151.541657 350.10047 
L 151.692717 352.174167 
L 151.843668 352.174167 
L 151.9945 348.00689 
L 152.145958 352.174167 
L 152.29667 352.174167 
L 152.447296 351.818015 
L 152.598656 352.174167 
L 152.749653 352.174167 
L 152.900969 350.442782 
L 153.051895 352.174167 
L 153.202812 349.738585 
L 153.353494 352.174167 
L 153.504103 350.782406 
L 153.654909 352.174167 
L 153.805504 351.826226 
L 153.956147 352.174167 
L 154.106794 352.174167 
L 154.257842 351.827226 
L 154.409093 351.82789 
L 154.560286 349.051703 
L 154.711251 352.174167 
L 155.165049 352.174167 
L 155.316566 351.82855 
L 155.467503 349.393316 
L 155.618619 352.174167 
L 155.769839 348.365119 
L 155.921243 352.174167 
L 156.072334 352.174167 
L 156.223205 350.437802 
L 156.374141 352.174167 
L 156.525399 348.704763 
L 156.676109 352.174167 
L 156.827133 352.174167 
L 156.978185 346.970061 
L 157.12947 352.174167 
L 157.280548 352.174167 
L 157.431532 351.48095 
L 157.58236 350.090529 
L 157.73336 352.174167 
L 157.88452 345.582299 
L 158.035328 352.174167 
L 158.186461 352.174167 
L 158.337692 349.054691 
L 158.791188 352.174167 
L 158.94204 345.248626 
L 159.092705 352.174167 
L 159.243389 351.82656 
L 159.394226 352.174167 
L 159.544861 350.088529 
L 159.695421 352.174167 
L 159.846176 348.971955 
L 159.997332 352.174167 
L 160.148491 350.441125 
L 160.601421 352.174167 
L 160.904109 352.174167 
L 161.20539 349.390645 
L 161.507257 352.174167 
L 161.81189 346.696575 
L 161.964347 351.145173 
L 162.114899 352.174167 
L 162.725565 352.174167 
L 162.878015 345.281574 
L 163.028815 344.895391 
L 163.179643 352.174167 
L 163.330246 350.782406 
L 163.480839 352.174167 
L 164.083683 352.174167 
L 164.234266 351.478286 
L 164.386185 352.174167 
L 164.537036 349.398644 
L 164.687743 352.174167 
L 164.989142 352.174167 
L 165.139831 351.82656 
L 165.290376 350.432793 
L 165.441105 350.783741 
L 165.591733 352.174167 
L 165.743782 352.174167 
L 166.045857 350.787733 
L 166.196767 352.174167 
L 166.3476 352.174167 
L 166.498923 349.750228 
L 166.649866 352.174167 
L 166.951936 352.174167 
L 167.102572 344.346537 
L 167.254175 352.174167 
L 167.55589 352.174167 
L 167.706807 347.650944 
L 167.857899 352.174167 
L 168.310769 352.174167 
L 168.461907 349.745584 
L 168.764636 352.174167 
L 168.915311 350.437802 
L 169.065969 352.174167 
L 169.668832 352.174167 
L 169.819551 351.478954 
L 169.970121 348.346824 
L 170.121328 352.174167 
L 170.724181 352.174167 
L 170.875004 351.131348 
L 171.02562 352.174167 
L 171.176223 347.650944 
L 171.326843 352.174167 
L 171.629394 352.174167 
L 171.931091 349.740923 
L 172.233191 352.174167 
L 172.384155 350.439465 
L 172.535329 352.174167 
L 172.68661 352.174167 
L 172.837417 350.090529 
L 172.989014 352.174167 
L 173.140067 350.094516 
L 173.291242 351.480286 
L 173.442194 349.4013 
L 173.592876 352.174167 
L 173.74382 345.582299 
L 173.894839 352.174167 
L 174.196741 352.174167 
L 174.347861 346.970061 
L 174.498634 352.174167 
L 174.649431 344.874434 
L 174.800073 352.174167 
L 175.101523 352.174167 
L 175.252218 350.782406 
L 175.402978 351.478954 
L 175.553738 348.264193 
L 175.704331 352.174167 
L 176.006411 350.437802 
L 176.157042 350.783741 
L 176.307758 351.478286 
L 176.458385 351.131348 
L 176.759587 352.174167 
L 177.362821 352.174167 
L 177.513783 349.393316 
L 177.664576 352.174167 
L 178.119682 352.174167 
L 178.270943 350.789059 
L 178.421944 350.442782 
L 178.573038 352.174167 
L 178.72494 352.174167 
L 178.875694 351.827558 
L 179.026832 351.826894 
L 179.17815 350.096505 
L 179.328984 350.785075 
L 179.480256 352.174167 
L 179.933451 352.174167 
L 180.084818 349.750228 
L 180.235763 352.174167 
L 180.688637 352.174167 
L 180.839909 351.82855 
L 180.992208 352.174167 
L 181.142935 351.132348 
L 181.293945 346.970061 
L 181.445774 352.174167 
L 181.747237 352.174167 
L 181.898075 349.393316 
L 182.048824 352.174167 
L 182.500237 352.174167 
L 182.650536 349.733897 
L 182.801384 352.174167 
L 182.952547 351.819063 
L 183.102984 349.393316 
L 183.253346 352.174167 
L 183.403882 352.174167 
L 183.554277 349.390645 
L 183.705121 352.174167 
L 184.007118 352.174167 
L 184.157765 351.82656 
L 184.308297 352.174167 
L 184.459696 349.06065 
L 184.610202 352.174167 
L 184.761224 350.782406 
L 184.911837 352.174167 
L 185.06247 349.393316 
L 185.215299 352.174167 
L 185.367896 350.116179 
L 185.520193 352.174167 
L 185.825188 352.174167 
L 185.977821 350.455923 
L 186.13022 352.174167 
L 186.280581 352.174167 
L 186.430963 350.781068 
L 186.58205 351.826894 
L 186.733249 346.287457 
L 186.884264 352.174167 
L 187.186443 352.174167 
L 187.488282 350.782406 
L 187.6393 352.174167 
L 187.789789 348.00689 
L 187.940208 352.174167 
L 188.090922 352.174167 
L 188.241341 350.434466 
L 188.392328 352.174167 
L 188.543441 347.663942 
L 188.695493 352.174167 
L 188.8462 350.786405 
L 188.996659 352.174167 
L 189.297394 352.174167 
L 189.447922 349.042705 
L 189.598661 352.174167 
L 189.749108 352.174167 
L 189.8994 351.476947 
L 190.050493 352.174167 
L 190.20113 352.174167 
L 190.351497 347.293627 
L 190.502126 350.086525 
L 190.652579 348.691419 
L 190.803335 352.174167 
L 190.953804 349.740923 
L 191.104072 352.174167 
L 191.254323 352.174167 
L 191.404546 347.178225 
L 191.555396 352.174167 
L 192.458116 352.174167 
L 192.608328 349.385287 
L 192.759948 352.174167 
L 192.912012 351.484251 
L 193.06283 349.051703 
L 193.363632 351.477617 
L 193.514371 351.477617 
L 193.664793 348.002891 
L 193.815154 352.174167 
L 193.965477 349.036677 
L 194.115808 351.825892 
L 194.266108 346.945017 
L 194.416864 352.174167 
L 194.717859 352.174167 
L 194.868126 349.036677 
L 195.018528 352.174167 
L 195.319473 352.174167 
L 195.470343 350.090529 
L 195.622152 352.174167 
L 195.773714 350.098489 
L 195.924804 352.174167 
L 196.226039 352.174167 
L 196.376424 350.432793 
L 196.526743 352.174167 
L 196.677186 350.781068 
L 196.827563 352.174167 
L 196.977888 347.646595 
L 197.128259 351.476947 
L 197.280106 349.75716 
L 197.430868 352.174167 
L 197.581352 352.174167 
L 197.73175 351.825892 
L 197.882103 352.174167 
L 198.032475 347.994869 
L 198.182969 352.174167 
L 198.333416 343.982689 
L 198.484331 352.174167 
L 198.786834 352.174167 
L 198.937398 349.390645 
L 199.088234 352.174167 
L 199.238775 346.607123 
L 199.390462 352.174167 
L 199.691716 352.174167 
L 200.144201 349.750228 
L 200.295958 352.174167 
L 200.446647 352.174167 
L 200.597248 347.998884 
L 200.747832 352.174167 
L 201.049081 352.174167 
L 201.199693 350.086525 
L 201.350241 352.174167 
L 201.500822 351.478286 
L 201.652981 352.174167 
L 201.804653 348.022811 
L 201.955256 352.174167 
L 202.256563 352.174167 
L 202.407257 347.655285 
L 202.558452 352.174167 
L 202.859725 352.174167 
L 203.011095 349.40395 
L 203.163167 352.174167 
L 203.314218 350.787733 
L 203.464913 352.174167 
L 203.615889 352.174167 
L 203.766421 350.783741 
L 203.917546 352.174167 
L 204.219194 352.174167 
L 204.369659 351.478954 
L 204.521164 352.174167 
L 204.671981 348.708083 
L 204.822597 352.174167 
L 205.427793 352.174167 
L 205.578438 349.387968 
L 205.729482 352.174167 
L 205.88162 350.796958 
L 206.03278 352.174167 
L 206.184666 351.82855 
L 206.337532 352.174167 
L 206.946384 352.174167 
L 207.097104 350.786405 
L 207.24903 347.685439 
L 207.400085 352.174167 
L 207.550892 352.174167 
L 207.702007 349.054691 
L 208.003832 351.827558 
L 208.155043 351.481613 
L 208.305815 352.174167 
L 208.456973 352.174167 
L 208.607827 351.827558 
L 208.759175 352.174167 
L 208.910572 348.361474 
L 209.061385 352.174167 
L 209.365217 352.174167 
L 209.515948 351.478954 
L 209.667325 352.174167 
L 209.81852 348.022811 
L 209.969559 352.174167 
L 210.120431 351.827226 
L 210.2717 352.174167 
L 210.573738 352.174167 
L 210.724332 350.434466 
L 210.877145 350.802175 
L 211.02832 349.40395 
L 211.179077 352.174167 
L 211.330522 352.174167 
L 211.481976 349.754853 
L 211.634528 351.830518 
L 211.785555 352.174167 
L 211.937177 352.174167 
L 212.08952 349.759462 
L 212.240909 352.174167 
L 212.392983 351.484251 
L 212.545302 352.174167 
L 212.697123 348.038611 
L 212.849058 352.174167 
L 213.152226 352.174167 
L 213.303143 351.132348 
L 213.454992 352.174167 
L 213.606701 351.139293 
L 213.759158 352.174167 
L 213.912508 351.832463 
L 214.06486 352.174167 
L 214.21639 352.174167 
L 214.368355 351.82855 
L 214.52109 350.800875 
L 214.673066 352.174167 
L 214.82511 352.174167 
L 214.976925 351.140278 
L 215.128517 352.174167 
L 215.279613 348.704763 
L 215.431402 352.174167 
L 215.582783 348.376013 
L 215.734525 352.174167 
L 216.038324 352.174167 
L 216.19032 349.069546 
L 216.342076 352.174167 
L 216.645476 352.174167 
L 216.797654 351.482934 
L 216.949313 349.761759 
L 217.251549 352.174167 
L 217.553572 349.393316 
L 217.70481 352.174167 
L 217.855555 349.390645 
L 218.006841 352.174167 
L 218.30851 352.174167 
L 218.460787 348.734416 
L 218.611936 352.174167 
L 218.915588 352.174167 
L 219.066726 349.747908 
L 219.217468 352.174167 
L 219.519026 352.174167 
L 219.670286 351.48095 
L 219.82189 352.174167 
L 219.972599 348.704763 
L 220.123345 352.174167 
L 220.275106 352.174167 
L 220.426401 349.406596 
L 220.577044 351.478954 
L 220.727864 350.432793 
L 220.881405 352.174167 
L 221.492487 352.174167 
L 221.645115 344.964384 
L 221.796353 324.019517 
L 221.947905 352.174167 
L 222.251604 352.174167 
L 222.403122 346.989924 
L 222.554356 352.174167 
L 222.705458 349.051703 
L 222.856046 352.174167 
L 223.00737 350.442782 
L 223.16006 352.174167 
L 223.311902 352.174167 
L 223.463544 351.482934 
L 223.615159 351.483593 
L 223.765873 347.998884 
L 223.917158 352.174167 
L 224.220384 352.174167 
L 224.372404 349.414504 
L 224.524203 352.174167 
L 224.82652 352.174167 
L 224.978105 349.06065 
L 225.129599 352.174167 
L 225.280623 350.094516 
L 225.431892 351.480286 
L 225.582892 346.27618 
L 225.734689 352.174167 
L 225.88633 350.794335 
L 226.038281 352.174167 
L 226.188977 349.051703 
L 226.339813 352.174167 
L 226.491213 352.174167 
L 226.792592 351.132348 
L 226.943449 352.174167 
L 227.094141 352.174167 
L 227.245031 348.701436 
L 227.396648 352.174167 
L 227.699062 352.174167 
L 227.85069 349.063621 
L 228.002583 352.174167 
L 228.153412 348.002891 
L 228.305007 352.174167 
L 228.456037 351.135336 
L 228.606694 352.174167 
L 228.758702 343.34849 
L 228.909753 352.174167 
L 229.213208 352.174167 
L 229.365527 350.798266 
L 229.517276 352.174167 
L 229.668866 352.174167 
L 229.82162 349.770906 
L 230.125711 351.82822 
L 230.278356 351.831169 
L 230.431137 352.174167 
L 230.582629 352.174167 
L 230.734562 350.795648 
L 230.886147 352.174167 
L 231.038463 350.110316 
L 231.189495 352.174167 
L 231.340185 348.00689 
L 231.491715 352.174167 
L 231.794779 352.174167 
L 231.945546 350.088529 
L 232.096596 352.174167 
L 232.551048 352.174167 
L 232.703121 350.451018 
L 232.854242 350.439465 
L 233.005956 352.174167 
L 233.159699 351.833107 
L 233.311945 350.796958 
L 233.463506 352.174167 
L 234.069554 352.174167 
L 234.221009 350.444435 
L 234.371541 352.174167 
L 234.977553 352.174167 
L 235.128533 349.398644 
L 235.279873 352.174167 
L 235.431151 351.135336 
L 235.583979 352.174167 
L 236.201027 352.174167 
L 236.35229 343.508957 
L 236.503053 352.174167 
L 236.653992 349.393316 
L 236.805353 351.82789 
L 236.957022 348.7213 
L 237.108533 352.174167 
L 237.259114 343.634934 
L 237.411369 352.174167 
L 237.714155 352.174167 
L 237.865636 350.098489 
L 238.017195 352.174167 
L 238.168707 350.10047 
L 238.320255 351.82855 
L 238.471757 352.174167 
L 238.623102 351.82789 
L 238.776007 352.174167 
L 238.926811 348.361474 
L 239.078499 352.174167 
L 239.381797 352.174167 
L 239.533381 351.138307 
L 239.685066 351.137318 
L 239.838309 348.404759 
L 239.989939 352.174167 
L 240.141586 348.718005 
L 240.292809 352.174167 
L 240.748193 352.174167 
L 240.899783 350.10047 
L 241.051323 350.446086 
L 241.203095 348.7213 
L 241.354633 352.174167 
L 241.506199 352.174167 
L 241.657315 347.317001 
L 241.809443 352.174167 
L 241.960998 350.791702 
L 242.112436 352.174167 
L 242.264006 347.676865 
L 242.415365 352.174167 
L 242.718551 352.174167 
L 242.870162 348.372389 
L 243.021604 352.174167 
L 243.324948 352.174167 
L 243.476857 351.829537 
L 243.628829 352.174167 
L 243.780536 349.411873 
L 243.932145 351.482934 
L 244.082876 351.826894 
L 244.234102 351.480286 
L 244.538882 352.174167 
L 244.689878 348.010882 
L 244.840615 352.174167 
L 244.992801 351.829537 
L 245.144428 351.82888 
L 245.296878 348.050382 
L 245.448237 352.174167 
L 245.600369 352.174167 
L 245.904236 350.794335 
L 246.055842 352.174167 
L 246.20827 352.174167 
L 246.36028 350.794335 
L 246.512061 352.174167 
L 246.663751 349.066586 
L 246.815604 350.79302 
L 246.967458 348.724588 
L 247.271651 350.796958 
L 247.422818 351.135336 
L 247.574658 351.82888 
L 247.726819 350.106389 
L 247.87869 352.174167 
L 248.03148 349.43278 
L 248.183421 352.174167 
L 248.335137 351.829209 
L 248.486283 349.4013 
L 248.637357 352.174167 
L 248.788589 348.014866 
L 248.940107 352.174167 
L 249.092134 350.106389 
L 249.243751 350.10047 
L 249.395448 352.174167 
L 249.547054 352.174167 
L 249.698669 347.340153 
L 249.84952 352.174167 
L 250.000143 351.131348 
L 250.150882 351.826226 
L 250.30198 350.441125 
L 250.453983 352.174167 
L 250.772166 352.174167 
L 250.930785 350.863015 
L 251.082332 345.953075 
L 251.234063 348.026772 
L 251.384833 352.174167 
L 251.536775 346.213375 
L 251.689377 352.174167 
L 251.991941 352.174167 
L 252.14354 351.138307 
L 252.295177 352.174167 
L 252.598534 346.994866 
L 252.75018 352.174167 
L 253.052757 349.393316 
L 253.506654 352.174167 
L 253.657313 352.174167 
L 253.808413 349.398644 
L 253.959357 352.174167 
L 254.110446 347.668258 
L 254.262061 352.174167 
L 254.413406 350.787733 
L 254.565391 350.452656 
L 254.71769 346.315463 
L 254.868616 352.174167 
L 255.020105 351.82789 
L 255.322401 350.437802 
L 255.473787 350.444435 
L 255.62594 351.486216 
L 255.777213 346.970061 
L 255.927893 352.174167 
L 256.532817 352.174167 
L 256.683673 346.26486 
L 256.834483 352.174167 
L 256.985585 350.441125 
L 257.137631 352.174167 
L 257.439935 352.174167 
L 257.591127 350.786405 
L 257.742311 352.174167 
L 257.893341 352.174167 
L 258.043636 349.733897 
L 258.194231 351.478286 
L 258.34656 350.798266 
L 258.649555 352.174167 
L 258.800057 352.174167 
L 258.952774 351.830518 
L 259.104314 352.174167 
L 259.256341 351.485563 
L 259.408316 352.174167 
L 259.560382 350.451018 
L 259.712137 352.174167 
L 259.863997 348.37963 
L 260.016313 352.174167 
L 260.623628 352.174167 
L 260.775551 348.724588 
L 260.927306 352.174167 
L 261.231606 352.174167 
L 261.382743 351.135336 
L 261.533983 352.174167 
L 261.68511 352.174167 
L 261.836517 351.136328 
L 261.988176 352.174167 
L 262.13915 348.704763 
L 262.29006 352.174167 
L 262.592076 352.174167 
L 262.74298 351.826894 
L 262.89393 352.174167 
L 263.04474 348.698104 
L 263.196381 352.174167 
L 263.498387 352.174167 
L 263.649612 350.094516 
L 263.800491 352.174167 
L 263.955473 349.804596 
L 264.106832 352.174167 
L 264.412763 352.174167 
L 264.564165 350.79302 
L 264.716956 352.174167 
L 265.627363 352.174167 
L 265.779396 349.41975 
L 265.930611 352.174167 
L 266.234155 352.174167 
L 266.384866 350.086525 
L 266.535996 352.174167 
L 266.837361 352.174167 
L 266.988457 349.398644 
L 267.290486 350.787733 
L 267.443153 352.174167 
L 267.594217 352.174167 
L 267.745081 349.745584 
L 268.0464 352.174167 
L 268.196592 352.174167 
L 268.347233 350.782406 
L 268.498017 351.82656 
L 268.649296 348.022811 
L 268.800848 352.174167 
L 268.95602 346.747863 
L 269.107528 352.174167 
L 269.40904 352.174167 
L 269.560814 351.482934 
L 269.711511 352.174167 
L 269.862339 351.826894 
L 270.013671 352.174167 
L 270.165882 351.485563 
L 270.317443 352.174167 
L 270.771364 352.174167 
L 270.922105 349.390645 
L 271.073211 352.174167 
L 271.224353 352.174167 
L 271.375138 351.478954 
L 271.526298 349.057673 
L 271.677581 352.174167 
L 271.828967 348.026772 
L 271.979924 352.174167 
L 272.131596 350.10047 
L 272.282405 352.174167 
L 272.584634 352.174167 
L 272.736303 350.10047 
L 272.887961 352.174167 
L 273.190439 352.174167 
L 273.341638 350.090529 
L 273.492415 352.174167 
L 273.794748 352.174167 
L 273.946021 350.787733 
L 274.09988 352.174167 
L 274.250614 352.174167 
L 274.401735 351.826894 
L 274.552676 351.134342 
L 274.703734 352.174167 
L 274.854649 352.174167 
L 275.005389 349.740923 
L 275.155929 352.174167 
L 275.457304 352.174167 
L 275.607955 351.478286 
L 275.758693 352.174167 
L 276.061504 352.174167 
L 276.212859 350.442782 
L 276.364335 352.174167 
L 276.515028 347.321649 
L 276.666241 352.174167 
L 276.969146 352.174167 
L 277.12018 349.4013 
L 277.270788 352.174167 
L 277.422096 351.134342 
L 277.574251 347.69824 
L 277.725307 351.827558 
L 277.876643 352.174167 
L 278.02702 352.174167 
L 278.177569 350.432793 
L 278.328334 352.174167 
L 278.629982 352.174167 
L 278.781527 351.82855 
L 278.933035 352.174167 
L 279.085129 349.41975 
L 279.236019 352.174167 
L 279.387175 350.096505 
L 279.5383 352.174167 
L 279.688946 351.478286 
L 279.842495 352.174167 
L 280.610051 352.174167 
L 280.761753 350.102446 
L 281.0637 352.174167 
L 281.214351 352.174167 
L 281.365166 350.439465 
L 281.515728 352.174167 
L 281.666171 348.346824 
L 281.818183 352.174167 
L 282.120682 352.174167 
L 282.27161 349.393316 
L 282.422452 352.174167 
L 282.573397 350.092524 
L 282.725088 352.174167 
L 282.875637 352.174167 
L 283.026772 350.436135 
L 283.177962 350.790382 
L 283.330134 350.106389 
L 283.481577 351.482274 
L 283.633005 350.444435 
L 283.783425 352.174167 
L 284.085692 352.174167 
L 284.236454 351.478954 
L 284.38798 352.174167 
L 284.691167 352.174167 
L 284.842832 350.447733 
L 284.993993 352.174167 
L 285.596696 352.174167 
L 285.747298 348.694764 
L 285.89827 352.174167 
L 286.049124 352.174167 
L 286.202672 349.782242 
L 286.353635 349.750228 
L 286.50414 345.208671 
L 286.655966 352.174167 
L 286.806632 352.174167 
L 286.958053 351.82855 
L 287.109042 349.743255 
L 287.260345 352.174167 
L 287.567795 352.174167 
L 287.71943 350.108354 
L 287.870828 352.174167 
L 288.172716 352.174167 
L 288.324733 351.485563 
L 288.475877 352.174167 
L 288.777352 352.174167 
L 288.928439 351.826894 
L 289.08018 350.79302 
L 289.231015 350.786405 
L 289.533049 349.048709 
L 289.683886 351.130346 
L 289.835085 350.441125 
L 289.985771 352.174167 
L 290.287804 352.174167 
L 290.439576 351.138307 
L 290.591117 352.174167 
L 291.196364 352.174167 
L 291.347317 350.442782 
L 291.50053 352.174167 
L 291.651332 352.174167 
L 291.804014 351.486216 
L 291.956402 352.174167 
L 292.259961 352.174167 
L 292.410752 350.786405 
L 292.561686 352.174167 
L 292.712833 348.361474 
L 292.864957 352.174167 
L 293.170566 352.174167 
L 293.321876 350.790382 
L 293.474752 352.174167 
L 293.776783 352.174167 
L 293.928686 351.483593 
L 294.080072 349.754853 
L 294.382307 352.174167 
L 294.997978 352.174167 
L 295.149308 349.747908 
L 295.300358 350.094516 
L 295.451339 352.174167 
L 295.603021 352.174167 
L 295.753571 350.086525 
L 295.90436 352.174167 
L 296.05587 352.174167 
L 296.207677 345.268432 
L 296.35914 352.174167 
L 296.510308 351.133346 
L 296.661949 352.174167 
L 296.964448 352.174167 
L 297.115648 351.82789 
L 297.266482 351.132348 
L 297.417438 352.174167 
L 297.569916 349.766341 
L 297.72075 352.174167 
L 297.872939 347.353938 
L 298.024152 352.174167 
L 298.327164 352.174167 
L 298.478414 351.136328 
L 298.630944 351.486869 
L 298.782546 348.7213 
L 298.935815 352.174167 
L 299.238251 352.174167 
L 299.389891 351.482274 
L 299.540712 352.174167 
L 299.842998 352.174167 
L 299.994419 351.481613 
L 300.145191 349.395982 
L 300.296709 352.174167 
L 300.448189 352.174167 
L 300.598987 349.745584 
L 300.750903 352.174167 
L 301.053345 352.174167 
L 301.204648 350.787733 
L 301.358146 352.174167 
L 301.661021 352.174167 
L 301.812994 351.138307 
L 301.96455 352.174167 
L 302.116615 352.174167 
L 302.268398 350.449377 
L 302.420051 352.174167 
L 302.87445 352.174167 
L 303.026518 350.108354 
L 303.177303 352.174167 
L 303.329377 350.106389 
L 303.480411 352.174167 
L 303.631657 347.326288 
L 303.782156 352.174167 
L 303.933137 351.478954 
L 304.083636 352.174167 
L 304.38738 351.487521 
L 304.538892 351.82888 
L 304.689481 349.390645 
L 305.146271 352.174167 
L 305.297465 349.747908 
L 305.750962 352.174167 
L 305.901888 350.786405 
L 306.054377 352.174167 
L 306.206763 348.390441 
L 306.358353 352.174167 
L 306.660845 352.174167 
L 306.811914 348.354163 
L 306.962557 352.174167 
L 307.114096 349.752543 
L 307.264923 352.174167 
L 307.416509 350.790382 
L 307.568492 352.174167 
L 307.871004 352.174167 
L 308.021918 350.783741 
L 308.172746 350.785075 
L 308.323646 349.747908 
L 308.474696 351.478954 
L 308.625801 350.094516 
L 308.777692 352.174167 
L 309.080318 350.790382 
L 309.385602 352.174167 
L 310.140965 352.174167 
L 310.29205 349.051703 
L 310.443836 352.174167 
L 310.746773 352.174167 
L 310.899136 349.770906 
L 311.051088 352.174167 
L 311.504921 352.174167 
L 311.657753 349.422366 
L 311.808708 352.174167 
L 311.960295 350.102446 
L 312.114921 352.174167 
L 312.72167 352.174167 
L 312.873229 348.664421 
L 313.025413 352.174167 
L 313.176892 352.174167 
L 313.328237 349.057673 
L 313.479881 352.174167 
L 313.631115 352.174167 
L 313.782742 350.102446 
L 313.93344 352.174167 
L 314.235908 352.174167 
L 314.386774 351.826894 
L 314.539269 350.110316 
L 314.842647 352.174167 
L 314.994989 351.830518 
L 315.146123 352.174167 
L 315.296506 351.82656 
L 315.447283 350.088529 
L 315.597628 352.174167 
L 315.748466 349.740923 
L 315.900028 352.174167 
L 316.05068 352.174167 
L 316.202867 345.113625 
L 316.353848 352.174167 
L 316.656806 352.174167 
L 316.808398 351.82855 
L 316.959888 349.063621 
L 317.111494 352.174167 
L 317.263183 349.411873 
L 317.415307 352.174167 
L 317.718164 352.174167 
L 317.870088 350.794335 
L 318.021928 352.174167 
L 318.173603 348.376013 
L 318.47685 351.137318 
L 318.628556 352.174167 
L 318.931919 352.174167 
L 319.083155 351.827558 
L 319.233851 351.826894 
L 319.385816 349.75716 
L 319.53749 352.174167 
L 319.992569 352.174167 
L 320.146681 350.813769 
L 320.300681 352.174167 
L 320.45472 347.757023 
L 320.606564 352.174167 
L 320.910216 352.174167 
L 321.061772 350.10047 
L 321.213558 352.174167 
L 321.365056 349.409237 
L 321.517154 352.174167 
L 321.820389 352.174167 
L 321.971627 349.747908 
L 322.122488 352.174167 
L 322.274354 350.447733 
L 322.425978 352.174167 
L 322.577433 351.136328 
L 322.728984 352.174167 
L 322.880763 352.174167 
L 323.034795 343.119023 
L 323.185353 352.174167 
L 323.488097 352.174167 
L 323.639114 351.479621 
L 323.79076 352.174167 
L 324.851719 352.174167 
L 325.002597 350.437802 
L 325.154379 352.174167 
L 325.305973 351.482934 
L 325.457507 352.174167 
L 325.609168 352.174167 
L 325.760889 350.79302 
L 325.912502 352.174167 
L 326.064008 347.681156 
L 326.215153 352.174167 
L 326.516968 352.174167 
L 326.668702 349.414504 
L 326.82083 352.174167 
L 326.972709 350.447733 
L 327.124597 352.174167 
L 327.276956 348.042542 
L 327.428816 352.174167 
L 327.732408 352.174167 
L 327.883955 350.104419 
L 328.035685 352.174167 
L 328.187261 352.174167 
L 328.338736 350.790382 
L 328.490313 352.174167 
L 328.642049 347.685439 
L 328.793693 351.82888 
L 328.944861 352.174167 
L 329.096122 352.174167 
L 329.246965 350.090529 
L 329.397862 352.174167 
L 329.548898 346.270525 
L 329.70047 352.174167 
L 330.003592 352.174167 
L 330.15526 350.790382 
L 330.306883 352.174167 
L 330.457448 346.475748 
L 330.608789 352.174167 
L 330.912212 352.174167 
L 331.063703 345.607459 
L 331.21511 352.174167 
L 331.518241 352.174167 
L 331.821462 347.676865 
L 331.972577 352.174167 
L 332.274325 352.174167 
L 332.425675 349.4013 
L 332.577418 352.174167 
L 332.880632 352.174167 
L 333.03237 349.75716 
L 333.18392 352.174167 
L 333.334707 350.090529 
L 333.485929 352.174167 
L 333.637264 351.134342 
L 333.788655 352.174167 
L 334.090221 352.174167 
L 334.241222 349.395982 
L 334.392731 352.174167 
L 334.69438 352.174167 
L 334.845827 350.789059 
L 334.996799 352.174167 
L 335.148073 351.132348 
L 335.298937 349.054691 
L 335.60113 352.174167 
L 335.751978 352.174167 
L 335.903147 349.398644 
L 336.054248 352.174167 
L 336.659394 352.174167 
L 336.810845 350.10047 
L 336.961458 352.174167 
L 337.263507 352.174167 
L 337.416826 344.817957 
L 337.567385 352.174167 
L 337.87021 352.174167 
L 338.022101 351.138307 
L 338.174145 349.078391 
L 338.325418 350.786405 
L 338.47644 350.789059 
L 338.627706 350.439465 
L 338.784207 352.174167 
L 339.55447 352.174167 
L 339.705602 347.321649 
L 339.856324 352.174167 
L 340.007252 352.174167 
L 340.158574 351.827226 
L 340.309218 350.439465 
L 340.460307 348.002891 
L 340.611524 351.82789 
L 340.762567 352.174167 
L 341.216445 352.174167 
L 341.367573 349.051703 
L 341.518723 352.174167 
L 341.670526 350.446086 
L 341.822304 352.174167 
L 342.124766 352.174167 
L 342.276517 351.482274 
L 342.429199 352.174167 
L 342.582132 348.40119 
L 342.734438 352.174167 
L 342.886699 352.174167 
L 343.039559 350.800875 
L 343.344491 352.174167 
L 343.495888 352.174167 
L 343.646993 350.786405 
L 343.798176 352.174167 
L 344.100076 352.174167 
L 344.250967 350.092524 
L 344.402288 352.174167 
L 344.704476 352.174167 
L 344.856217 351.82888 
L 345.008534 352.174167 
L 345.310805 352.174167 
L 345.461891 350.785075 
L 345.612744 352.174167 
L 345.76351 349.04571 
L 345.91446 349.738585 
L 346.065113 349.051703 
L 346.217015 352.174167 
L 346.36924 352.174167 
L 346.672481 350.796958 
L 346.824437 346.304292 
L 346.976693 352.174167 
L 347.279396 352.174167 
L 347.431365 350.795648 
L 347.582466 352.174167 
L 347.734179 348.022811 
L 347.885232 352.174167 
L 348.036209 348.701436 
L 348.187323 352.174167 
L 348.490957 352.174167 
L 348.642674 348.034672 
L 348.794015 352.174167 
L 348.946114 351.829209 
L 349.096848 352.174167 
L 349.25025 349.443115 
L 349.401678 352.174167 
L 349.552928 352.174167 
L 349.70578 351.487521 
L 349.856571 351.480286 
L 350.007492 348.701436 
L 350.158936 352.174167 
L 350.4613 352.174167 
L 350.61323 350.106389 
L 350.76586 352.174167 
L 351.068402 352.174167 
L 351.219773 351.136328 
L 351.370967 352.174167 
L 351.522827 350.104419 
L 351.674614 352.174167 
L 351.825873 352.174167 
L 351.978469 350.114229 
L 352.131016 350.799572 
L 352.281757 352.174167 
L 352.433477 352.174167 
L 352.585028 351.137318 
L 352.735843 351.479621 
L 352.887433 352.174167 
L 353.039156 352.174167 
L 353.19008 351.479621 
L 353.341534 352.174167 
L 354.705577 352.174167 
L 354.856709 351.133346 
L 355.00878 352.174167 
L 355.16064 351.483593 
L 355.311248 352.174167 
L 355.613242 352.174167 
L 355.765058 351.483593 
L 355.916304 349.745584 
L 356.067043 352.174167 
L 356.36936 352.174167 
L 356.520364 351.827226 
L 356.671198 352.174167 
L 356.822261 349.04571 
L 356.974895 352.174167 
L 357.578354 352.174167 
L 357.729807 351.135336 
L 357.881114 352.174167 
L 358.032135 347.663942 
L 358.182963 352.174167 
L 358.484819 352.174167 
L 358.63566 351.826894 
L 358.786494 350.437802 
L 358.939543 351.145173 
L 359.091137 351.113017 
L 359.245278 352.174167 
L 359.396301 350.790382 
L 359.697393 352.174167 
L 360.148624 352.174167 
L 360.299181 350.782406 
L 360.449792 352.174167 
L 360.601294 347.321649 
L 360.752456 352.174167 
L 361.35695 352.174167 
L 361.507617 350.783741 
L 361.658314 352.174167 
L 362.114694 352.174167 
L 362.266238 349.764052 
L 362.418046 352.174167 
L 362.570155 347.340153 
L 362.722158 352.174167 
L 362.873777 352.174167 
L 363.02527 350.791702 
L 363.327023 352.174167 
L 363.631082 352.174167 
L 363.785197 350.812491 
L 363.936033 352.174167 
L 364.087166 348.704763 
L 364.23808 352.174167 
L 364.540032 352.174167 
L 364.691726 351.137318 
L 364.843247 352.174167 
L 364.994573 349.406596 
L 365.14611 352.174167 
L 365.601221 352.174167 
L 365.752751 350.446086 
L 366.207971 352.174167 
L 366.360343 345.486208 
L 366.511112 352.174167 
L 367.116947 352.174167 
L 367.268359 350.096505 
L 367.420087 352.174167 
L 367.723267 352.174167 
L 367.875462 351.139293 
L 368.027311 352.174167 
L 368.9479 352.174167 
L 369.099842 348.372389 
L 369.252492 352.174167 
L 369.554933 352.174167 
L 369.707213 351.14126 
L 369.857997 352.174167 
L 370.161374 352.174167 
L 370.313115 351.82888 
L 370.464797 350.449377 
L 370.617061 350.452656 
L 370.768812 352.174167 
L 370.921201 352.174167 
L 371.073064 350.449377 
L 371.224748 352.174167 
L 371.528307 352.174167 
L 371.680077 349.754853 
L 371.831669 352.174167 
L 372.133679 352.174167 
L 372.285436 348.7213 
L 372.437117 352.174167 
L 372.739437 352.174167 
L 372.890526 351.133346 
L 373.041373 352.174167 
L 373.19402 348.72787 
L 373.346721 352.174167 
L 373.650915 352.174167 
L 373.8018 348.354163 
L 373.952629 352.174167 
L 374.10436 352.174167 
L 374.255171 350.441125 
L 374.556776 352.174167 
L 374.707353 352.174167 
L 374.857889 343.618125 
L 375.009513 352.174167 
L 375.312295 352.174167 
L 375.464478 350.795648 
L 375.615743 352.174167 
L 375.767346 346.644308 
L 375.919786 352.174167 
L 376.223124 352.174167 
L 376.376805 351.150022 
L 376.52875 352.174167 
L 376.680914 348.38324 
L 376.833251 352.174167 
L 376.984843 351.82822 
L 377.137107 351.829537 
L 377.28871 352.174167 
L 377.440083 348.372389 
L 377.591778 351.82855 
L 377.74354 352.174167 
L 378.19869 352.174167 
L 378.35023 347.681156 
L 378.501852 352.174167 
L 378.653554 351.482934 
L 378.806275 352.174167 
L 379.416682 352.174167 
L 379.568448 350.447733 
L 379.720035 352.174167 
L 380.023179 352.174167 
L 380.174685 351.482274 
L 380.326391 348.7213 
L 380.477875 351.482274 
L 380.629297 352.174167 
L 380.780383 352.174167 
L 380.933045 350.112274 
L 381.237442 352.174167 
L 381.691628 352.174167 
L 381.842888 342.959539 
L 381.993791 352.174167 
L 382.297638 352.174167 
L 382.449356 351.138307 
L 382.600903 349.063621 
L 382.905651 352.174167 
L 383.68502 352.174167 
L 383.836738 350.10047 
L 383.988411 351.82888 
L 384.13992 352.174167 
L 384.290836 352.174167 
L 384.442507 349.754853 
L 384.594163 352.174167 
L 384.745363 352.174167 
L 384.897021 347.33554 
L 385.200698 352.174167 
L 385.504316 352.174167 
L 385.655815 350.10047 
L 385.807361 352.174167 
L 385.95901 352.174167 
L 386.110715 349.409237 
L 386.261434 352.174167 
L 386.871224 352.174167 
L 387.023081 349.066586 
L 387.175057 352.174167 
L 387.477931 352.174167 
L 387.780775 350.102446 
L 388.083305 352.174167 
L 388.235146 350.79302 
L 388.386772 352.174167 
L 388.842209 352.174167 
L 388.993389 350.789059 
L 389.144898 346.863232 
L 389.297869 352.174167 
L 389.450141 350.112274 
L 389.601427 352.174167 
L 389.752623 352.174167 
L 390.056397 351.484251 
L 390.208264 350.102446 
L 390.359738 350.098489 
L 390.510766 349.745584 
L 390.662748 352.174167 
L 390.815303 352.174167 
L 390.966207 351.827226 
L 391.118867 351.829865 
L 391.270343 352.174167 
L 391.422052 351.82855 
L 391.573814 350.447733 
L 391.726083 352.174167 
L 392.181777 352.174167 
L 392.484341 350.786405 
L 392.635085 352.174167 
L 392.785987 350.783741 
L 392.936822 352.174167 
L 393.238886 352.174167 
L 393.389931 350.785075 
L 393.54089 350.787733 
L 393.69213 349.054691 
L 393.843406 352.174167 
L 393.99464 352.174167 
L 394.298076 351.485563 
L 394.449146 352.174167 
L 394.751269 352.174167 
L 394.902183 351.479621 
L 395.054691 352.174167 
L 395.205975 349.063621 
L 395.35686 352.174167 
L 395.507521 350.783741 
L 395.658169 352.174167 
L 395.809104 352.174167 
L 395.959781 351.827226 
L 396.112003 351.829537 
L 396.262605 352.174167 
L 396.413258 348.616153 
L 396.564742 347.672565 
L 396.716384 352.174167 
L 397.018957 352.174167 
L 397.17056 350.10047 
L 397.32136 352.174167 
L 397.472208 351.478954 
L 397.623172 352.174167 
L 398.38461 352.174167 
L 398.535495 351.134342 
L 398.686578 351.132348 
L 398.837522 352.174167 
L 398.988748 350.790382 
L 399.139744 352.174167 
L 399.291226 347.317001 
L 399.443797 352.174167 
L 399.74574 352.174167 
L 399.896573 351.131348 
L 400.047257 351.132348 
L 400.198522 352.174167 
L 400.349727 352.174167 
L 400.500375 351.133346 
L 400.650982 352.174167 
L 400.801977 349.395982 
L 400.952555 352.174167 
L 401.103538 352.174167 
L 401.254021 349.738585 
L 401.404837 352.174167 
L 401.555418 352.174167 
L 401.705921 351.826226 
L 401.856827 350.088529 
L 402.007457 352.174167 
L 402.463478 352.174167 
L 402.614641 349.4013 
L 402.765555 352.174167 
L 403.068032 352.174167 
L 403.218891 351.82656 
L 403.52204 351.829537 
L 403.674457 348.731146 
L 403.826541 352.174167 
L 404.128681 351.479621 
L 404.279474 352.174167 
L 404.732938 352.174167 
L 404.885044 347.589284 
L 405.037355 352.174167 
L 405.189948 352.174167 
L 405.341403 350.098489 
L 405.492377 352.174167 
L 405.944948 352.174167 
L 406.096669 349.06065 
L 406.247742 352.174167 
L 406.855161 352.174167 
L 407.007248 351.829537 
L 407.310244 349.40395 
L 407.461725 352.174167 
L 407.764864 352.174167 
L 407.917002 350.451018 
L 408.069411 352.174167 
L 408.221141 352.174167 
L 408.37187 351.82656 
L 408.522607 350.436135 
L 408.673336 352.174167 
L 409.128307 352.174167 
L 409.279851 350.10047 
L 409.43163 352.174167 
L 409.583775 347.353938 
L 409.734705 352.174167 
L 409.886874 352.174167 
L 410.189681 351.133346 
L 410.342773 351.145173 
L 410.495404 352.174167 
L 410.951397 352.174167 
L 411.253383 349.042705 
L 411.556002 352.174167 
L 411.858226 352.174167 
L 412.008933 351.480286 
L 412.16033 352.174167 
L 412.313387 347.679369 
L 412.470842 352.174167 
L 413.529588 352.174167 
L 413.682083 351.142241 
L 413.83457 352.174167 
L 414.290362 352.174167 
L 414.44181 350.446086 
L 414.744342 352.174167 
L 414.896326 352.174167 
L 415.047463 350.441125 
L 415.198823 352.174167 
L 415.35 349.054691 
L 415.501141 352.174167 
L 415.652011 352.174167 
L 415.803323 351.135336 
L 415.954596 352.174167 
L 416.105973 352.174167 
L 416.561528 350.449377 
L 416.713598 352.174167 
L 417.016292 352.174167 
L 417.167437 351.480286 
L 417.319769 352.174167 
L 417.471157 349.754853 
L 417.622017 352.174167 
L 417.924016 352.174167 
L 418.075956 350.449377 
L 418.227097 352.174167 
L 418.831802 352.174167 
L 418.983008 350.096505 
L 419.135617 352.174167 
L 419.741984 352.174167 
L 419.893064 351.827226 
L 420.043723 349.051703 
L 420.1947 352.174167 
L 420.799488 352.174167 
L 420.950813 350.789059 
L 421.101559 351.827226 
L 421.252481 348.701436 
L 421.403185 348.698104 
L 421.55392 351.82656 
L 421.704694 352.174167 
L 422.006401 352.174167 
L 422.157161 351.479621 
L 422.308321 352.174167 
L 422.459898 352.174167 
L 422.761982 350.786405 
L 422.912701 352.174167 
L 423.063667 352.174167 
L 423.214678 351.132348 
L 423.36596 351.48095 
L 423.516909 352.174167 
L 423.971224 352.174167 
L 424.122712 350.441125 
L 424.27386 352.174167 
L 424.727331 352.174167 
L 425.029931 349.750228 
L 425.18111 352.174167 
L 425.633466 352.174167 
L 425.784072 348.694764 
L 425.934665 352.174167 
L 426.236257 352.174167 
L 426.387457 351.133346 
L 426.538618 352.174167 
L 426.689536 350.436135 
L 426.840233 352.174167 
L 428.060843 352.174167 
L 428.212496 350.79302 
L 428.364356 350.79302 
L 428.66592 352.174167 
L 429.118087 352.174167 
L 429.26882 349.743255 
L 429.420513 352.174167 
L 429.723721 352.174167 
L 429.874673 350.786405 
L 430.026555 352.174167 
L 430.329571 352.174167 
L 430.480523 351.48095 
L 430.631899 352.174167 
L 430.783649 349.069546 
L 430.935486 352.174167 
L 431.239632 352.174167 
L 431.391468 349.0725 
L 431.543199 352.174167 
L 431.694945 346.304292 
L 431.847131 352.174167 
L 431.998243 350.442782 
L 432.150111 352.174167 
L 432.301338 351.827226 
L 432.451961 352.174167 
L 432.602733 350.782406 
L 432.754722 347.004722 
L 432.90634 352.174167 
L 433.20943 352.174167 
L 433.360612 347.663942 
L 433.663111 352.174167 
L 433.814266 347.321649 
L 433.965971 350.102446 
L 434.117233 349.745584 
L 434.269054 352.174167 
L 434.42084 352.174167 
L 434.572872 349.069546 
L 434.724629 352.174167 
L 435.027677 352.174167 
L 435.179554 350.098489 
L 435.330577 350.096505 
L 435.48173 349.747908 
L 435.633118 352.174167 
L 435.784733 352.174167 
L 435.936347 348.7213 
L 436.087974 351.82855 
L 436.239145 351.134342 
L 436.390584 352.174167 
L 436.69266 352.174167 
L 436.844944 350.457552 
L 436.995754 352.174167 
L 437.297241 352.174167 
L 437.448574 348.711396 
L 437.599825 352.174167 
L 437.900998 352.174167 
L 438.052301 349.4013 
L 438.20316 352.174167 
L 438.504733 351.478954 
L 438.655447 349.393316 
L 438.806164 352.174167 
L 439.107598 345.575979 
L 439.258554 351.479621 
L 439.409207 352.174167 
L 439.560015 352.174167 
L 439.711785 350.10047 
L 439.863521 352.174167 
L 440.166723 352.174167 
L 440.318355 351.137318 
L 440.470049 352.174167 
L 440.621698 348.030726 
L 440.773309 352.174167 
L 440.924672 348.026772 
L 441.075376 352.174167 
L 441.22732 351.82888 
L 441.378254 352.174167 
L 441.528972 349.051703 
L 441.679855 352.174167 
L 442.750206 352.174167 
L 442.901904 349.066586 
L 443.053622 352.174167 
L 443.358683 352.174167 
L 443.510753 349.051703 
L 443.66219 352.174167 
L 443.963907 352.174167 
L 444.11534 349.051703 
L 444.26634 352.174167 
L 444.568343 352.174167 
L 444.718844 350.086525 
L 444.86972 351.131348 
L 445.020737 348.701436 
L 445.172519 352.174167 
L 445.323853 351.82789 
L 445.626203 351.827558 
L 445.777818 349.406596 
L 445.928909 352.174167 
L 446.07991 351.480286 
L 446.23074 352.174167 
L 446.381842 350.442782 
L 446.533043 352.174167 
L 446.684117 348.711396 
L 446.835046 352.174167 
L 447.136956 352.174167 
L 447.287717 351.826894 
L 447.438313 351.826226 
L 447.588971 349.393316 
L 447.740164 350.092524 
L 447.892752 348.394031 
L 448.044011 352.174167 
L 448.345487 352.174167 
L 448.647307 349.054691 
L 448.949131 352.174167 
L 449.402196 352.174167 
L 449.553658 349.75716 
L 449.704722 352.174167 
L 450.308771 352.174167 
L 450.459673 350.088529 
L 450.610776 352.174167 
L 451.065575 352.174167 
L 451.217087 350.444435 
L 451.368487 350.439465 
L 451.519507 346.984972 
L 451.67044 352.174167 
L 452.273401 352.174167 
L 452.424225 349.395982 
L 452.576589 351.829865 
L 452.727679 352.174167 
L 453.333813 352.174167 
L 453.484825 351.826894 
L 453.63564 349.738585 
L 453.787301 352.174167 
L 454.090465 352.174167 
L 454.242668 351.829865 
L 454.395085 349.768626 
L 454.545836 350.436135 
L 454.696265 351.82656 
L 454.84741 350.088529 
L 454.998012 352.174167 
L 455.149333 352.174167 
L 455.300942 350.10047 
L 455.603224 352.174167 
L 456.056236 352.174167 
L 456.206907 351.131348 
L 456.35769 352.174167 
L 456.511836 349.313707 
L 456.668894 352.174167 
L 457.422545 352.174167 
L 457.573261 347.650944 
L 457.724881 352.174167 
L 458.027957 352.174167 
L 458.180571 350.114229 
L 458.3327 349.761759 
L 458.483904 350.094516 
L 458.634815 352.174167 
L 458.785593 352.174167 
L 458.936239 350.084518 
L 459.086869 350.090529 
L 459.238036 352.174167 
L 459.693053 352.174167 
L 459.844083 349.395982 
L 459.994919 352.174167 
L 460.598751 352.174167 
L 460.749942 349.054691 
L 460.901101 352.174167 
L 461.053069 351.484907 
L 461.204987 352.174167 
L 461.658456 352.174167 
L 461.809417 349.743255 
L 461.960128 351.827558 
L 462.112172 348.034672 
L 462.262946 352.174167 
L 462.567202 352.174167 
L 462.717959 351.480286 
L 462.869287 352.174167 
L 463.020104 348.704763 
L 463.171107 352.174167 
L 463.47288 352.174167 
L 463.623724 351.133346 
L 463.774807 352.174167 
L 464.2287 352.174167 
L 464.379931 351.82855 
L 464.530885 350.437802 
L 464.682037 352.174167 
L 464.833035 351.827226 
L 464.984035 352.174167 
L 465.439972 352.174167 
L 465.591877 349.764052 
L 465.744018 352.174167 
L 466.351041 352.174167 
L 466.503107 350.102446 
L 466.654609 352.174167 
L 467.107447 352.174167 
L 467.258 351.826226 
L 467.408981 349.4013 
L 467.559755 352.174167 
L 467.710739 351.478954 
L 467.861969 352.174167 
L 468.012871 352.174167 
L 468.164348 350.789059 
L 468.315992 350.79302 
L 468.467579 346.649579 
L 468.618317 352.174167 
L 468.768996 352.174167 
L 468.919684 351.478954 
L 469.070726 352.174167 
L 469.525454 352.174167 
L 469.676301 350.785075 
L 469.827147 352.174167 
L 469.977942 351.82656 
L 470.129613 352.174167 
L 470.431317 352.174167 
L 470.582275 349.393316 
L 470.733725 352.174167 
L 471.036603 352.174167 
L 471.187997 350.092524 
L 471.340408 352.174167 
L 472.094543 352.174167 
L 472.245279 351.826894 
L 472.396524 349.4013 
L 472.547937 352.174167 
L 473.001306 352.174167 
L 473.151934 351.130346 
L 473.303386 352.174167 
L 473.454154 350.437802 
L 473.605143 352.174167 
L 474.211887 352.174167 
L 474.362905 349.393316 
L 474.513997 352.174167 
L 474.665116 352.174167 
L 474.81573 351.131348 
L 474.966899 352.174167 
L 475.117885 352.174167 
L 475.270907 350.4608 
L 475.422785 352.174167 
L 476.026041 352.174167 
L 476.176793 351.134342 
L 476.327649 352.174167 
L 476.781612 352.174167 
L 476.93412 350.799572 
L 477.237186 352.174167 
L 477.691244 352.174167 
L 477.842164 349.395982 
L 477.993023 352.174167 
L 478.599285 352.174167 
L 478.750424 349.740923 
L 478.900898 352.174167 
L 479.051554 351.130346 
L 479.202166 352.174167 
L 479.353287 347.663942 
L 479.504102 352.174167 
L 479.806013 352.174167 
L 479.956922 349.740923 
L 480.108139 352.174167 
L 480.258882 352.174167 
L 480.409752 350.437802 
L 480.560429 350.783741 
L 480.711756 352.174167 
L 481.01434 352.174167 
L 481.318555 349.743255 
L 481.770986 352.174167 
L 481.921927 350.787733 
L 482.074652 352.174167 
L 482.225493 348.701436 
L 482.376158 352.174167 
L 482.678206 352.174167 
L 482.829263 349.743255 
L 482.980234 352.174167 
L 483.13112 351.133346 
L 483.281672 352.174167 
L 483.432466 346.955063 
L 483.583326 351.479621 
L 483.734065 346.259183 
L 483.88658 352.174167 
L 484.039304 352.174167 
L 484.191013 350.106389 
L 484.34183 350.785075 
L 484.49277 352.174167 
L 484.643497 349.398644 
L 484.794551 343.484009 
L 484.945544 352.174167 
L 485.247558 352.174167 
L 485.398687 349.750228 
L 485.54962 352.174167 
L 486.784253 352.174167 
L 486.935149 347.317001 
L 487.085954 352.174167 
L 487.236881 349.395982 
L 487.387694 352.174167 
L 487.68939 352.174167 
L 487.840277 351.827558 
L 487.991488 352.174167 
L 488.142709 348.701436 
L 488.293924 352.174167 
L 488.444718 351.826894 
L 488.596195 349.40395 
L 488.747725 350.098489 
L 488.899185 352.174167 
L 489.050875 351.829209 
L 489.202388 350.790382 
L 489.505992 352.174167 
L 489.658633 352.174167 
L 489.810799 350.452656 
L 489.963131 352.174167 
L 490.116423 351.148088 
L 490.27028 352.174167 
L 490.421897 349.75716 
L 490.573535 352.174167 
L 490.876946 352.174167 
L 491.028307 351.482274 
L 491.179266 350.090529 
L 491.330165 350.090529 
L 491.482168 352.174167 
L 491.633752 351.82888 
L 491.936751 350.444435 
L 492.088285 352.174167 
L 492.240141 349.411873 
L 492.544027 352.174167 
L 493.149731 352.174167 
L 493.300572 347.655285 
L 493.451533 352.174167 
L 493.603479 348.386844 
L 493.754601 352.174167 
L 493.907326 351.830192 
L 494.059537 352.174167 
L 494.210327 348.708083 
L 494.361472 352.174167 
L 494.663172 352.174167 
L 494.814294 351.133346 
L 494.964966 352.174167 
L 495.418406 352.174167 
L 495.571009 350.457552 
L 495.571009 350.457552 
" style="fill:none;stroke:#1f77b4;stroke-linecap:square;stroke-width:1.5;"/>
   </g>
   <g id="patch_3">
    <path d="M 66.158594 352.174167 
L 66.158594 35.0625 
" style="fill:none;stroke:#000000;stroke-linecap:square;stroke-linejoin:miter;stroke-width:0.8;"/>
   </g>
   <g id="patch_4">
    <path d="M 516.019219 352.174167 
L 516.019219 35.0625 
" style="fill:none;stroke:#000000;stroke-linecap:square;stroke-linejoin:miter;stroke-width:0.8;"/>
   </g>
   <g id="patch_5">
    <path d="M 66.158594 352.174167 
L 516.019219 352.174167 
" style="fill:none;stroke:#000000;stroke-linecap:square;stroke-linejoin:miter;stroke-width:0.8;"/>
   </g>
   <g id="patch_6">
    <path d="M 66.158594 35.0625 
L 516.019219 35.0625 
" style="fill:none;stroke:#000000;stroke-linecap:square;stroke-linejoin:miter;stroke-width:0.8;"/>
   </g>
   <g id="legend_1">
    <g id="patch_7">
     <path d="M 540.51225 53.01875 
L 620.748187 53.01875 
Q 622.748187 53.01875 622.748187 51.01875 
L 622.748187 37.0625 
Q 622.748187 35.0625 620.748187 35.0625 
L 540.51225 35.0625 
Q 538.51225 35.0625 538.51225 37.0625 
L 538.51225 51.01875 
Q 538.51225 53.01875 540.51225 53.01875 
z
" style="fill:#ffffff;opacity:0.8;stroke:#cccccc;stroke-linejoin:miter;"/>
    </g>
    <g id="line2d_17">
     <path d="M 542.51225 43.160937 
L 562.51225 43.160937 
" style="fill:none;stroke:#1f77b4;stroke-linecap:square;stroke-width:1.5;"/>
    </g>
    <g id="line2d_18"/>
    <g id="text_17">
     <!-- drop_rate -->
     <defs>
      <path d="M 50.984375 -16.609375 
L 50.984375 -23.578125 
L -0.984375 -23.578125 
L -0.984375 -16.609375 
z
" id="DejaVuSans-95"/>
     </defs>
     <g transform="translate(570.51225 46.660937)scale(0.1 -0.1)">
      <use xlink:href="#DejaVuSans-100"/>
      <use x="63.476562" xlink:href="#DejaVuSans-114"/>
      <use x="104.558594" xlink:href="#DejaVuSans-111"/>
      <use x="165.740234" xlink:href="#DejaVuSans-112"/>
      <use x="229.216797" xlink:href="#DejaVuSans-95"/>
      <use x="279.216797" xlink:href="#DejaVuSans-114"/>
      <use x="320.330078" xlink:href="#DejaVuSans-97"/>
      <use x="381.609375" xlink:href="#DejaVuSans-116"/>
      <use x="420.818359" xlink:href="#DejaVuSans-101"/>
     </g>
    </g>
   </g>
  </g>
  <g id="text_18">
   <!-- result droprate -->
   <defs>
    <path d="M 44.28125 53.078125 
L 44.28125 44.578125 
Q 40.484375 46.53125 36.375 47.5 
Q 32.28125 48.484375 27.875 48.484375 
Q 21.1875 48.484375 17.84375 46.4375 
Q 14.5 44.390625 14.5 40.28125 
Q 14.5 37.15625 16.890625 35.375 
Q 19.28125 33.59375 26.515625 31.984375 
L 29.59375 31.296875 
Q 39.15625 29.25 43.1875 25.515625 
Q 47.21875 21.78125 47.21875 15.09375 
Q 47.21875 7.46875 41.1875 3.015625 
Q 35.15625 -1.421875 24.609375 -1.421875 
Q 20.21875 -1.421875 15.453125 -0.5625 
Q 10.6875 0.296875 5.421875 2 
L 5.421875 11.28125 
Q 10.40625 8.6875 15.234375 7.390625 
Q 20.0625 6.109375 24.8125 6.109375 
Q 31.15625 6.109375 34.5625 8.28125 
Q 37.984375 10.453125 37.984375 14.40625 
Q 37.984375 18.0625 35.515625 20.015625 
Q 33.0625 21.96875 24.703125 23.78125 
L 21.578125 24.515625 
Q 13.234375 26.265625 9.515625 29.90625 
Q 5.8125 33.546875 5.8125 39.890625 
Q 5.8125 47.609375 11.28125 51.796875 
Q 16.75 56 26.8125 56 
Q 31.78125 56 36.171875 55.265625 
Q 40.578125 54.546875 44.28125 53.078125 
z
" id="DejaVuSans-115"/>
    <path d="M 8.5 21.578125 
L 8.5 54.6875 
L 17.484375 54.6875 
L 17.484375 21.921875 
Q 17.484375 14.15625 20.5 10.265625 
Q 23.53125 6.390625 29.59375 6.390625 
Q 36.859375 6.390625 41.078125 11.03125 
Q 45.3125 15.671875 45.3125 23.6875 
L 45.3125 54.6875 
L 54.296875 54.6875 
L 54.296875 0 
L 45.3125 0 
L 45.3125 8.40625 
Q 42.046875 3.421875 37.71875 1 
Q 33.40625 -1.421875 27.6875 -1.421875 
Q 18.265625 -1.421875 13.375 4.4375 
Q 8.5 10.296875 8.5 21.578125 
z
M 31.109375 56 
z
" id="DejaVuSans-117"/>
    <path d="M 9.421875 75.984375 
L 18.40625 75.984375 
L 18.40625 0 
L 9.421875 0 
z
" id="DejaVuSans-108"/>
    <path id="DejaVuSans-32"/>
   </defs>
   <g transform="translate(297.047813 17.038125)scale(0.12 -0.12)">
    <use xlink:href="#DejaVuSans-114"/>
    <use x="41.082031" xlink:href="#DejaVuSans-101"/>
    <use x="102.605469" xlink:href="#DejaVuSans-115"/>
    <use x="154.705078" xlink:href="#DejaVuSans-117"/>
    <use x="218.083984" xlink:href="#DejaVuSans-108"/>
    <use x="245.867188" xlink:href="#DejaVuSans-116"/>
    <use x="285.076172" xlink:href="#DejaVuSans-32"/>
    <use x="316.863281" xlink:href="#DejaVuSans-100"/>
    <use x="380.339844" xlink:href="#DejaVuSans-114"/>
    <use x="421.421875" xlink:href="#DejaVuSans-111"/>
    <use x="482.603516" xlink:href="#DejaVuSans-112"/>
    <use x="546.080078" xlink:href="#DejaVuSans-114"/>
    <use x="587.193359" xlink:href="#DejaVuSans-97"/>
    <use x="648.472656" xlink:href="#DejaVuSans-116"/>
    <use x="687.681641" xlink:href="#DejaVuSans-101"/>
   </g>
  </g>
 </g>
 <defs>
  <clipPath id="pb1af792bef">
   <rect height="317.111667" width="449.860625" x="66.158594" y="35.0625"/>
  </clipPath>
 </defs>
</svg>
