<?xml version="1.0" encoding="utf-8" standalone="no"?>
<!DOCTYPE svg PUBLIC "-//W3C//DTD SVG 1.1//EN"
  "http://www.w3.org/Graphics/SVG/1.1/DTD/svg11.dtd">
<!-- Created with matplotlib (https://matplotlib.org/) -->
<svg height="396pt" version="1.1" viewBox="0 0 684 396" width="684pt" xmlns="http://www.w3.org/2000/svg" xmlns:xlink="http://www.w3.org/1999/xlink">
 <defs>
  <style type="text/css">
*{stroke-linecap:butt;stroke-linejoin:round;}
  </style>
 </defs>
 <g id="figure_1">
  <g id="patch_1">
   <path d="M 0 396 
L 684 396 
L 684 0 
L 0 0 
z
" style="fill:#ffffff;"/>
  </g>
  <g id="axes_1">
   <g id="patch_2">
    <path d="M 83.472344 352.174167 
L 529.912969 352.174167 
L 529.912969 35.0625 
L 83.472344 35.0625 
z
" style="fill:#ffffff;"/>
   </g>
   <g id="matplotlib.axis_1">
    <g id="xtick_1">
     <g id="line2d_1">
      <defs>
       <path d="M 0 0 
L 0 3.5 
" id="me5eed704ba" style="stroke:#000000;stroke-width:0.8;"/>
      </defs>
      <g>
       <use style="stroke:#000000;stroke-width:0.8;" x="103.765099" xlink:href="#me5eed704ba" y="352.174167"/>
      </g>
     </g>
     <g id="text_1">
      <!-- 0 -->
      <defs>
       <path d="M 31.78125 66.40625 
Q 24.171875 66.40625 20.328125 58.90625 
Q 16.5 51.421875 16.5 36.375 
Q 16.5 21.390625 20.328125 13.890625 
Q 24.171875 6.390625 31.78125 6.390625 
Q 39.453125 6.390625 43.28125 13.890625 
Q 47.125 21.390625 47.125 36.375 
Q 47.125 51.421875 43.28125 58.90625 
Q 39.453125 66.40625 31.78125 66.40625 
z
M 31.78125 74.21875 
Q 44.046875 74.21875 50.515625 64.515625 
Q 56.984375 54.828125 56.984375 36.375 
Q 56.984375 17.96875 50.515625 8.265625 
Q 44.046875 -1.421875 31.78125 -1.421875 
Q 19.53125 -1.421875 13.0625 8.265625 
Q 6.59375 17.96875 6.59375 36.375 
Q 6.59375 54.828125 13.0625 64.515625 
Q 19.53125 74.21875 31.78125 74.21875 
z
" id="DejaVuSans-48"/>
      </defs>
      <g transform="translate(100.583849 366.772604)scale(0.1 -0.1)">
       <use xlink:href="#DejaVuSans-48"/>
      </g>
     </g>
    </g>
    <g id="xtick_2">
     <g id="line2d_2">
      <g>
       <use style="stroke:#000000;stroke-width:0.8;" x="177.270934" xlink:href="#me5eed704ba" y="352.174167"/>
      </g>
     </g>
     <g id="text_2">
      <!-- 50 -->
      <defs>
       <path d="M 10.796875 72.90625 
L 49.515625 72.90625 
L 49.515625 64.59375 
L 19.828125 64.59375 
L 19.828125 46.734375 
Q 21.96875 47.46875 24.109375 47.828125 
Q 26.265625 48.1875 28.421875 48.1875 
Q 40.625 48.1875 47.75 41.5 
Q 54.890625 34.8125 54.890625 23.390625 
Q 54.890625 11.625 47.5625 5.09375 
Q 40.234375 -1.421875 26.90625 -1.421875 
Q 22.3125 -1.421875 17.546875 -0.640625 
Q 12.796875 0.140625 7.71875 1.703125 
L 7.71875 11.625 
Q 12.109375 9.234375 16.796875 8.0625 
Q 21.484375 6.890625 26.703125 6.890625 
Q 35.15625 6.890625 40.078125 11.328125 
Q 45.015625 15.765625 45.015625 23.390625 
Q 45.015625 31 40.078125 35.4375 
Q 35.15625 39.890625 26.703125 39.890625 
Q 22.75 39.890625 18.8125 39.015625 
Q 14.890625 38.140625 10.796875 36.28125 
z
" id="DejaVuSans-53"/>
      </defs>
      <g transform="translate(170.908434 366.772604)scale(0.1 -0.1)">
       <use xlink:href="#DejaVuSans-53"/>
       <use x="63.623047" xlink:href="#DejaVuSans-48"/>
      </g>
     </g>
    </g>
    <g id="xtick_3">
     <g id="line2d_3">
      <g>
       <use style="stroke:#000000;stroke-width:0.8;" x="250.776768" xlink:href="#me5eed704ba" y="352.174167"/>
      </g>
     </g>
     <g id="text_3">
      <!-- 100 -->
      <defs>
       <path d="M 12.40625 8.296875 
L 28.515625 8.296875 
L 28.515625 63.921875 
L 10.984375 60.40625 
L 10.984375 69.390625 
L 28.421875 72.90625 
L 38.28125 72.90625 
L 38.28125 8.296875 
L 54.390625 8.296875 
L 54.390625 0 
L 12.40625 0 
z
" id="DejaVuSans-49"/>
      </defs>
      <g transform="translate(241.233018 366.772604)scale(0.1 -0.1)">
       <use xlink:href="#DejaVuSans-49"/>
       <use x="63.623047" xlink:href="#DejaVuSans-48"/>
       <use x="127.246094" xlink:href="#DejaVuSans-48"/>
      </g>
     </g>
    </g>
    <g id="xtick_4">
     <g id="line2d_4">
      <g>
       <use style="stroke:#000000;stroke-width:0.8;" x="324.282602" xlink:href="#me5eed704ba" y="352.174167"/>
      </g>
     </g>
     <g id="text_4">
      <!-- 150 -->
      <g transform="translate(314.738852 366.772604)scale(0.1 -0.1)">
       <use xlink:href="#DejaVuSans-49"/>
       <use x="63.623047" xlink:href="#DejaVuSans-53"/>
       <use x="127.246094" xlink:href="#DejaVuSans-48"/>
      </g>
     </g>
    </g>
    <g id="xtick_5">
     <g id="line2d_5">
      <g>
       <use style="stroke:#000000;stroke-width:0.8;" x="397.788437" xlink:href="#me5eed704ba" y="352.174167"/>
      </g>
     </g>
     <g id="text_5">
      <!-- 200 -->
      <defs>
       <path d="M 19.1875 8.296875 
L 53.609375 8.296875 
L 53.609375 0 
L 7.328125 0 
L 7.328125 8.296875 
Q 12.9375 14.109375 22.625 23.890625 
Q 32.328125 33.6875 34.8125 36.53125 
Q 39.546875 41.84375 41.421875 45.53125 
Q 43.3125 49.21875 43.3125 52.78125 
Q 43.3125 58.59375 39.234375 62.25 
Q 35.15625 65.921875 28.609375 65.921875 
Q 23.96875 65.921875 18.8125 64.3125 
Q 13.671875 62.703125 7.8125 59.421875 
L 7.8125 69.390625 
Q 13.765625 71.78125 18.9375 73 
Q 24.125 74.21875 28.421875 74.21875 
Q 39.75 74.21875 46.484375 68.546875 
Q 53.21875 62.890625 53.21875 53.421875 
Q 53.21875 48.921875 51.53125 44.890625 
Q 49.859375 40.875 45.40625 35.40625 
Q 44.1875 33.984375 37.640625 27.21875 
Q 31.109375 20.453125 19.1875 8.296875 
z
" id="DejaVuSans-50"/>
      </defs>
      <g transform="translate(388.244687 366.772604)scale(0.1 -0.1)">
       <use xlink:href="#DejaVuSans-50"/>
       <use x="63.623047" xlink:href="#DejaVuSans-48"/>
       <use x="127.246094" xlink:href="#DejaVuSans-48"/>
      </g>
     </g>
    </g>
    <g id="xtick_6">
     <g id="line2d_6">
      <g>
       <use style="stroke:#000000;stroke-width:0.8;" x="471.294271" xlink:href="#me5eed704ba" y="352.174167"/>
      </g>
     </g>
     <g id="text_6">
      <!-- 250 -->
      <g transform="translate(461.750521 366.772604)scale(0.1 -0.1)">
       <use xlink:href="#DejaVuSans-50"/>
       <use x="63.623047" xlink:href="#DejaVuSans-53"/>
       <use x="127.246094" xlink:href="#DejaVuSans-48"/>
      </g>
     </g>
    </g>
   </g>
   <g id="matplotlib.axis_2">
    <g id="ytick_1">
     <g id="line2d_7">
      <defs>
       <path d="M 0 0 
L -3.5 0 
" id="m0014b11de2" style="stroke:#000000;stroke-width:0.8;"/>
      </defs>
      <g>
       <use style="stroke:#000000;stroke-width:0.8;" x="83.472344" xlink:href="#m0014b11de2" y="352.174167"/>
      </g>
     </g>
     <g id="text_7">
      <!-- 0 -->
      <g transform="translate(70.109844 355.973385)scale(0.1 -0.1)">
       <use xlink:href="#DejaVuSans-48"/>
      </g>
     </g>
    </g>
    <g id="ytick_2">
     <g id="line2d_8">
      <g>
       <use style="stroke:#000000;stroke-width:0.8;" x="83.472344" xlink:href="#m0014b11de2" y="313.921855"/>
      </g>
     </g>
     <g id="text_8">
      <!-- 10 -->
      <g transform="translate(63.747344 317.721073)scale(0.1 -0.1)">
       <use xlink:href="#DejaVuSans-49"/>
       <use x="63.623047" xlink:href="#DejaVuSans-48"/>
      </g>
     </g>
    </g>
    <g id="ytick_3">
     <g id="line2d_9">
      <g>
       <use style="stroke:#000000;stroke-width:0.8;" x="83.472344" xlink:href="#m0014b11de2" y="275.669543"/>
      </g>
     </g>
     <g id="text_9">
      <!-- 20 -->
      <g transform="translate(63.747344 279.468761)scale(0.1 -0.1)">
       <use xlink:href="#DejaVuSans-50"/>
       <use x="63.623047" xlink:href="#DejaVuSans-48"/>
      </g>
     </g>
    </g>
    <g id="ytick_4">
     <g id="line2d_10">
      <g>
       <use style="stroke:#000000;stroke-width:0.8;" x="83.472344" xlink:href="#m0014b11de2" y="237.417231"/>
      </g>
     </g>
     <g id="text_10">
      <!-- 30 -->
      <defs>
       <path d="M 40.578125 39.3125 
Q 47.65625 37.796875 51.625 33 
Q 55.609375 28.21875 55.609375 21.1875 
Q 55.609375 10.40625 48.1875 4.484375 
Q 40.765625 -1.421875 27.09375 -1.421875 
Q 22.515625 -1.421875 17.65625 -0.515625 
Q 12.796875 0.390625 7.625 2.203125 
L 7.625 11.71875 
Q 11.71875 9.328125 16.59375 8.109375 
Q 21.484375 6.890625 26.8125 6.890625 
Q 36.078125 6.890625 40.9375 10.546875 
Q 45.796875 14.203125 45.796875 21.1875 
Q 45.796875 27.640625 41.28125 31.265625 
Q 36.765625 34.90625 28.71875 34.90625 
L 20.21875 34.90625 
L 20.21875 43.015625 
L 29.109375 43.015625 
Q 36.375 43.015625 40.234375 45.921875 
Q 44.09375 48.828125 44.09375 54.296875 
Q 44.09375 59.90625 40.109375 62.90625 
Q 36.140625 65.921875 28.71875 65.921875 
Q 24.65625 65.921875 20.015625 65.03125 
Q 15.375 64.15625 9.8125 62.3125 
L 9.8125 71.09375 
Q 15.4375 72.65625 20.34375 73.4375 
Q 25.25 74.21875 29.59375 74.21875 
Q 40.828125 74.21875 47.359375 69.109375 
Q 53.90625 64.015625 53.90625 55.328125 
Q 53.90625 49.265625 50.4375 45.09375 
Q 46.96875 40.921875 40.578125 39.3125 
z
" id="DejaVuSans-51"/>
      </defs>
      <g transform="translate(63.747344 241.216449)scale(0.1 -0.1)">
       <use xlink:href="#DejaVuSans-51"/>
       <use x="63.623047" xlink:href="#DejaVuSans-48"/>
      </g>
     </g>
    </g>
    <g id="ytick_5">
     <g id="line2d_11">
      <g>
       <use style="stroke:#000000;stroke-width:0.8;" x="83.472344" xlink:href="#m0014b11de2" y="199.164919"/>
      </g>
     </g>
     <g id="text_11">
      <!-- 40 -->
      <defs>
       <path d="M 37.796875 64.3125 
L 12.890625 25.390625 
L 37.796875 25.390625 
z
M 35.203125 72.90625 
L 47.609375 72.90625 
L 47.609375 25.390625 
L 58.015625 25.390625 
L 58.015625 17.1875 
L 47.609375 17.1875 
L 47.609375 0 
L 37.796875 0 
L 37.796875 17.1875 
L 4.890625 17.1875 
L 4.890625 26.703125 
z
" id="DejaVuSans-52"/>
      </defs>
      <g transform="translate(63.747344 202.964137)scale(0.1 -0.1)">
       <use xlink:href="#DejaVuSans-52"/>
       <use x="63.623047" xlink:href="#DejaVuSans-48"/>
      </g>
     </g>
    </g>
    <g id="ytick_6">
     <g id="line2d_12">
      <g>
       <use style="stroke:#000000;stroke-width:0.8;" x="83.472344" xlink:href="#m0014b11de2" y="160.912607"/>
      </g>
     </g>
     <g id="text_12">
      <!-- 50 -->
      <g transform="translate(63.747344 164.711825)scale(0.1 -0.1)">
       <use xlink:href="#DejaVuSans-53"/>
       <use x="63.623047" xlink:href="#DejaVuSans-48"/>
      </g>
     </g>
    </g>
    <g id="ytick_7">
     <g id="line2d_13">
      <g>
       <use style="stroke:#000000;stroke-width:0.8;" x="83.472344" xlink:href="#m0014b11de2" y="122.660295"/>
      </g>
     </g>
     <g id="text_13">
      <!-- 60 -->
      <defs>
       <path d="M 33.015625 40.375 
Q 26.375 40.375 22.484375 35.828125 
Q 18.609375 31.296875 18.609375 23.390625 
Q 18.609375 15.53125 22.484375 10.953125 
Q 26.375 6.390625 33.015625 6.390625 
Q 39.65625 6.390625 43.53125 10.953125 
Q 47.40625 15.53125 47.40625 23.390625 
Q 47.40625 31.296875 43.53125 35.828125 
Q 39.65625 40.375 33.015625 40.375 
z
M 52.59375 71.296875 
L 52.59375 62.3125 
Q 48.875 64.0625 45.09375 64.984375 
Q 41.3125 65.921875 37.59375 65.921875 
Q 27.828125 65.921875 22.671875 59.328125 
Q 17.53125 52.734375 16.796875 39.40625 
Q 19.671875 43.65625 24.015625 45.921875 
Q 28.375 48.1875 33.59375 48.1875 
Q 44.578125 48.1875 50.953125 41.515625 
Q 57.328125 34.859375 57.328125 23.390625 
Q 57.328125 12.15625 50.6875 5.359375 
Q 44.046875 -1.421875 33.015625 -1.421875 
Q 20.359375 -1.421875 13.671875 8.265625 
Q 6.984375 17.96875 6.984375 36.375 
Q 6.984375 53.65625 15.1875 63.9375 
Q 23.390625 74.21875 37.203125 74.21875 
Q 40.921875 74.21875 44.703125 73.484375 
Q 48.484375 72.75 52.59375 71.296875 
z
" id="DejaVuSans-54"/>
      </defs>
      <g transform="translate(63.747344 126.459513)scale(0.1 -0.1)">
       <use xlink:href="#DejaVuSans-54"/>
       <use x="63.623047" xlink:href="#DejaVuSans-48"/>
      </g>
     </g>
    </g>
    <g id="ytick_8">
     <g id="line2d_14">
      <g>
       <use style="stroke:#000000;stroke-width:0.8;" x="83.472344" xlink:href="#m0014b11de2" y="84.407983"/>
      </g>
     </g>
     <g id="text_14">
      <!-- 70 -->
      <defs>
       <path d="M 8.203125 72.90625 
L 55.078125 72.90625 
L 55.078125 68.703125 
L 28.609375 0 
L 18.3125 0 
L 43.21875 64.59375 
L 8.203125 64.59375 
z
" id="DejaVuSans-55"/>
      </defs>
      <g transform="translate(63.747344 88.207201)scale(0.1 -0.1)">
       <use xlink:href="#DejaVuSans-55"/>
       <use x="63.623047" xlink:href="#DejaVuSans-48"/>
      </g>
     </g>
    </g>
    <g id="ytick_9">
     <g id="line2d_15">
      <g>
       <use style="stroke:#000000;stroke-width:0.8;" x="83.472344" xlink:href="#m0014b11de2" y="46.15567"/>
      </g>
     </g>
     <g id="text_15">
      <!-- 80 -->
      <defs>
       <path d="M 31.78125 34.625 
Q 24.75 34.625 20.71875 30.859375 
Q 16.703125 27.09375 16.703125 20.515625 
Q 16.703125 13.921875 20.71875 10.15625 
Q 24.75 6.390625 31.78125 6.390625 
Q 38.8125 6.390625 42.859375 10.171875 
Q 46.921875 13.96875 46.921875 20.515625 
Q 46.921875 27.09375 42.890625 30.859375 
Q 38.875 34.625 31.78125 34.625 
z
M 21.921875 38.8125 
Q 15.578125 40.375 12.03125 44.71875 
Q 8.5 49.078125 8.5 55.328125 
Q 8.5 64.0625 14.71875 69.140625 
Q 20.953125 74.21875 31.78125 74.21875 
Q 42.671875 74.21875 48.875 69.140625 
Q 55.078125 64.0625 55.078125 55.328125 
Q 55.078125 49.078125 51.53125 44.71875 
Q 48 40.375 41.703125 38.8125 
Q 48.828125 37.15625 52.796875 32.3125 
Q 56.78125 27.484375 56.78125 20.515625 
Q 56.78125 9.90625 50.3125 4.234375 
Q 43.84375 -1.421875 31.78125 -1.421875 
Q 19.734375 -1.421875 13.25 4.234375 
Q 6.78125 9.90625 6.78125 20.515625 
Q 6.78125 27.484375 10.78125 32.3125 
Q 14.796875 37.15625 21.921875 38.8125 
z
M 18.3125 54.390625 
Q 18.3125 48.734375 21.84375 45.5625 
Q 25.390625 42.390625 31.78125 42.390625 
Q 38.140625 42.390625 41.71875 45.5625 
Q 45.3125 48.734375 45.3125 54.390625 
Q 45.3125 60.0625 41.71875 63.234375 
Q 38.140625 66.40625 31.78125 66.40625 
Q 25.390625 66.40625 21.84375 63.234375 
Q 18.3125 60.0625 18.3125 54.390625 
z
" id="DejaVuSans-56"/>
      </defs>
      <g transform="translate(63.747344 49.954889)scale(0.1 -0.1)">
       <use xlink:href="#DejaVuSans-56"/>
       <use x="63.623047" xlink:href="#DejaVuSans-48"/>
      </g>
     </g>
    </g>
    <g id="text_16">
     <!-- throughput -->
     <defs>
      <path d="M 18.3125 70.21875 
L 18.3125 54.6875 
L 36.8125 54.6875 
L 36.8125 47.703125 
L 18.3125 47.703125 
L 18.3125 18.015625 
Q 18.3125 11.328125 20.140625 9.421875 
Q 21.96875 7.515625 27.59375 7.515625 
L 36.8125 7.515625 
L 36.8125 0 
L 27.59375 0 
Q 17.1875 0 13.234375 3.875 
Q 9.28125 7.765625 9.28125 18.015625 
L 9.28125 47.703125 
L 2.6875 47.703125 
L 2.6875 54.6875 
L 9.28125 54.6875 
L 9.28125 70.21875 
z
" id="DejaVuSans-116"/>
      <path d="M 54.890625 33.015625 
L 54.890625 0 
L 45.90625 0 
L 45.90625 32.71875 
Q 45.90625 40.484375 42.875 44.328125 
Q 39.84375 48.1875 33.796875 48.1875 
Q 26.515625 48.1875 22.3125 43.546875 
Q 18.109375 38.921875 18.109375 30.90625 
L 18.109375 0 
L 9.078125 0 
L 9.078125 75.984375 
L 18.109375 75.984375 
L 18.109375 46.1875 
Q 21.34375 51.125 25.703125 53.5625 
Q 30.078125 56 35.796875 56 
Q 45.21875 56 50.046875 50.171875 
Q 54.890625 44.34375 54.890625 33.015625 
z
" id="DejaVuSans-104"/>
      <path d="M 41.109375 46.296875 
Q 39.59375 47.171875 37.8125 47.578125 
Q 36.03125 48 33.890625 48 
Q 26.265625 48 22.1875 43.046875 
Q 18.109375 38.09375 18.109375 28.8125 
L 18.109375 0 
L 9.078125 0 
L 9.078125 54.6875 
L 18.109375 54.6875 
L 18.109375 46.1875 
Q 20.953125 51.171875 25.484375 53.578125 
Q 30.03125 56 36.53125 56 
Q 37.453125 56 38.578125 55.875 
Q 39.703125 55.765625 41.0625 55.515625 
z
" id="DejaVuSans-114"/>
      <path d="M 30.609375 48.390625 
Q 23.390625 48.390625 19.1875 42.75 
Q 14.984375 37.109375 14.984375 27.296875 
Q 14.984375 17.484375 19.15625 11.84375 
Q 23.34375 6.203125 30.609375 6.203125 
Q 37.796875 6.203125 41.984375 11.859375 
Q 46.1875 17.53125 46.1875 27.296875 
Q 46.1875 37.015625 41.984375 42.703125 
Q 37.796875 48.390625 30.609375 48.390625 
z
M 30.609375 56 
Q 42.328125 56 49.015625 48.375 
Q 55.71875 40.765625 55.71875 27.296875 
Q 55.71875 13.875 49.015625 6.21875 
Q 42.328125 -1.421875 30.609375 -1.421875 
Q 18.84375 -1.421875 12.171875 6.21875 
Q 5.515625 13.875 5.515625 27.296875 
Q 5.515625 40.765625 12.171875 48.375 
Q 18.84375 56 30.609375 56 
z
" id="DejaVuSans-111"/>
      <path d="M 8.5 21.578125 
L 8.5 54.6875 
L 17.484375 54.6875 
L 17.484375 21.921875 
Q 17.484375 14.15625 20.5 10.265625 
Q 23.53125 6.390625 29.59375 6.390625 
Q 36.859375 6.390625 41.078125 11.03125 
Q 45.3125 15.671875 45.3125 23.6875 
L 45.3125 54.6875 
L 54.296875 54.6875 
L 54.296875 0 
L 45.3125 0 
L 45.3125 8.40625 
Q 42.046875 3.421875 37.71875 1 
Q 33.40625 -1.421875 27.6875 -1.421875 
Q 18.265625 -1.421875 13.375 4.4375 
Q 8.5 10.296875 8.5 21.578125 
z
M 31.109375 56 
z
" id="DejaVuSans-117"/>
      <path d="M 45.40625 27.984375 
Q 45.40625 37.75 41.375 43.109375 
Q 37.359375 48.484375 30.078125 48.484375 
Q 22.859375 48.484375 18.828125 43.109375 
Q 14.796875 37.75 14.796875 27.984375 
Q 14.796875 18.265625 18.828125 12.890625 
Q 22.859375 7.515625 30.078125 7.515625 
Q 37.359375 7.515625 41.375 12.890625 
Q 45.40625 18.265625 45.40625 27.984375 
z
M 54.390625 6.78125 
Q 54.390625 -7.171875 48.1875 -13.984375 
Q 42 -20.796875 29.203125 -20.796875 
Q 24.46875 -20.796875 20.265625 -20.09375 
Q 16.0625 -19.390625 12.109375 -17.921875 
L 12.109375 -9.1875 
Q 16.0625 -11.328125 19.921875 -12.34375 
Q 23.78125 -13.375 27.78125 -13.375 
Q 36.625 -13.375 41.015625 -8.765625 
Q 45.40625 -4.15625 45.40625 5.171875 
L 45.40625 9.625 
Q 42.625 4.78125 38.28125 2.390625 
Q 33.9375 0 27.875 0 
Q 17.828125 0 11.671875 7.65625 
Q 5.515625 15.328125 5.515625 27.984375 
Q 5.515625 40.671875 11.671875 48.328125 
Q 17.828125 56 27.875 56 
Q 33.9375 56 38.28125 53.609375 
Q 42.625 51.21875 45.40625 46.390625 
L 45.40625 54.6875 
L 54.390625 54.6875 
z
" id="DejaVuSans-103"/>
      <path d="M 18.109375 8.203125 
L 18.109375 -20.796875 
L 9.078125 -20.796875 
L 9.078125 54.6875 
L 18.109375 54.6875 
L 18.109375 46.390625 
Q 20.953125 51.265625 25.265625 53.625 
Q 29.59375 56 35.59375 56 
Q 45.5625 56 51.78125 48.09375 
Q 58.015625 40.1875 58.015625 27.296875 
Q 58.015625 14.40625 51.78125 6.484375 
Q 45.5625 -1.421875 35.59375 -1.421875 
Q 29.59375 -1.421875 25.265625 0.953125 
Q 20.953125 3.328125 18.109375 8.203125 
z
M 48.6875 27.296875 
Q 48.6875 37.203125 44.609375 42.84375 
Q 40.53125 48.484375 33.40625 48.484375 
Q 26.265625 48.484375 22.1875 42.84375 
Q 18.109375 37.203125 18.109375 27.296875 
Q 18.109375 17.390625 22.1875 11.75 
Q 26.265625 6.109375 33.40625 6.109375 
Q 40.53125 6.109375 44.609375 11.75 
Q 48.6875 17.390625 48.6875 27.296875 
z
" id="DejaVuSans-112"/>
     </defs>
     <g transform="translate(46.469844 221.675365)rotate(-90)scale(0.1 -0.1)">
      <use xlink:href="#DejaVuSans-116"/>
      <use x="39.208984" xlink:href="#DejaVuSans-104"/>
      <use x="102.587891" xlink:href="#DejaVuSans-114"/>
      <use x="143.669922" xlink:href="#DejaVuSans-111"/>
      <use x="204.851562" xlink:href="#DejaVuSans-117"/>
      <use x="268.230469" xlink:href="#DejaVuSans-103"/>
      <use x="331.707031" xlink:href="#DejaVuSans-104"/>
      <use x="395.085938" xlink:href="#DejaVuSans-112"/>
      <use x="458.5625" xlink:href="#DejaVuSans-117"/>
      <use x="521.941406" xlink:href="#DejaVuSans-116"/>
     </g>
     <!-- (mbit / second) -->
     <defs>
      <path d="M 31 75.875 
Q 24.46875 64.65625 21.28125 53.65625 
Q 18.109375 42.671875 18.109375 31.390625 
Q 18.109375 20.125 21.3125 9.0625 
Q 24.515625 -2 31 -13.1875 
L 23.1875 -13.1875 
Q 15.875 -1.703125 12.234375 9.375 
Q 8.59375 20.453125 8.59375 31.390625 
Q 8.59375 42.28125 12.203125 53.3125 
Q 15.828125 64.359375 23.1875 75.875 
z
" id="DejaVuSans-40"/>
      <path d="M 52 44.1875 
Q 55.375 50.25 60.0625 53.125 
Q 64.75 56 71.09375 56 
Q 79.640625 56 84.28125 50.015625 
Q 88.921875 44.046875 88.921875 33.015625 
L 88.921875 0 
L 79.890625 0 
L 79.890625 32.71875 
Q 79.890625 40.578125 77.09375 44.375 
Q 74.3125 48.1875 68.609375 48.1875 
Q 61.625 48.1875 57.5625 43.546875 
Q 53.515625 38.921875 53.515625 30.90625 
L 53.515625 0 
L 44.484375 0 
L 44.484375 32.71875 
Q 44.484375 40.625 41.703125 44.40625 
Q 38.921875 48.1875 33.109375 48.1875 
Q 26.21875 48.1875 22.15625 43.53125 
Q 18.109375 38.875 18.109375 30.90625 
L 18.109375 0 
L 9.078125 0 
L 9.078125 54.6875 
L 18.109375 54.6875 
L 18.109375 46.1875 
Q 21.1875 51.21875 25.484375 53.609375 
Q 29.78125 56 35.6875 56 
Q 41.65625 56 45.828125 52.96875 
Q 50 49.953125 52 44.1875 
z
" id="DejaVuSans-109"/>
      <path d="M 48.6875 27.296875 
Q 48.6875 37.203125 44.609375 42.84375 
Q 40.53125 48.484375 33.40625 48.484375 
Q 26.265625 48.484375 22.1875 42.84375 
Q 18.109375 37.203125 18.109375 27.296875 
Q 18.109375 17.390625 22.1875 11.75 
Q 26.265625 6.109375 33.40625 6.109375 
Q 40.53125 6.109375 44.609375 11.75 
Q 48.6875 17.390625 48.6875 27.296875 
z
M 18.109375 46.390625 
Q 20.953125 51.265625 25.265625 53.625 
Q 29.59375 56 35.59375 56 
Q 45.5625 56 51.78125 48.09375 
Q 58.015625 40.1875 58.015625 27.296875 
Q 58.015625 14.40625 51.78125 6.484375 
Q 45.5625 -1.421875 35.59375 -1.421875 
Q 29.59375 -1.421875 25.265625 0.953125 
Q 20.953125 3.328125 18.109375 8.203125 
L 18.109375 0 
L 9.078125 0 
L 9.078125 75.984375 
L 18.109375 75.984375 
z
" id="DejaVuSans-98"/>
      <path d="M 9.421875 54.6875 
L 18.40625 54.6875 
L 18.40625 0 
L 9.421875 0 
z
M 9.421875 75.984375 
L 18.40625 75.984375 
L 18.40625 64.59375 
L 9.421875 64.59375 
z
" id="DejaVuSans-105"/>
      <path id="DejaVuSans-32"/>
      <path d="M 25.390625 72.90625 
L 33.6875 72.90625 
L 8.296875 -9.28125 
L 0 -9.28125 
z
" id="DejaVuSans-47"/>
      <path d="M 44.28125 53.078125 
L 44.28125 44.578125 
Q 40.484375 46.53125 36.375 47.5 
Q 32.28125 48.484375 27.875 48.484375 
Q 21.1875 48.484375 17.84375 46.4375 
Q 14.5 44.390625 14.5 40.28125 
Q 14.5 37.15625 16.890625 35.375 
Q 19.28125 33.59375 26.515625 31.984375 
L 29.59375 31.296875 
Q 39.15625 29.25 43.1875 25.515625 
Q 47.21875 21.78125 47.21875 15.09375 
Q 47.21875 7.46875 41.1875 3.015625 
Q 35.15625 -1.421875 24.609375 -1.421875 
Q 20.21875 -1.421875 15.453125 -0.5625 
Q 10.6875 0.296875 5.421875 2 
L 5.421875 11.28125 
Q 10.40625 8.6875 15.234375 7.390625 
Q 20.0625 6.109375 24.8125 6.109375 
Q 31.15625 6.109375 34.5625 8.28125 
Q 37.984375 10.453125 37.984375 14.40625 
Q 37.984375 18.0625 35.515625 20.015625 
Q 33.0625 21.96875 24.703125 23.78125 
L 21.578125 24.515625 
Q 13.234375 26.265625 9.515625 29.90625 
Q 5.8125 33.546875 5.8125 39.890625 
Q 5.8125 47.609375 11.28125 51.796875 
Q 16.75 56 26.8125 56 
Q 31.78125 56 36.171875 55.265625 
Q 40.578125 54.546875 44.28125 53.078125 
z
" id="DejaVuSans-115"/>
      <path d="M 56.203125 29.59375 
L 56.203125 25.203125 
L 14.890625 25.203125 
Q 15.484375 15.921875 20.484375 11.0625 
Q 25.484375 6.203125 34.421875 6.203125 
Q 39.59375 6.203125 44.453125 7.46875 
Q 49.3125 8.734375 54.109375 11.28125 
L 54.109375 2.78125 
Q 49.265625 0.734375 44.1875 -0.34375 
Q 39.109375 -1.421875 33.890625 -1.421875 
Q 20.796875 -1.421875 13.15625 6.1875 
Q 5.515625 13.8125 5.515625 26.8125 
Q 5.515625 40.234375 12.765625 48.109375 
Q 20.015625 56 32.328125 56 
Q 43.359375 56 49.78125 48.890625 
Q 56.203125 41.796875 56.203125 29.59375 
z
M 47.21875 32.234375 
Q 47.125 39.59375 43.09375 43.984375 
Q 39.0625 48.390625 32.421875 48.390625 
Q 24.90625 48.390625 20.390625 44.140625 
Q 15.875 39.890625 15.1875 32.171875 
z
" id="DejaVuSans-101"/>
      <path d="M 48.78125 52.59375 
L 48.78125 44.1875 
Q 44.96875 46.296875 41.140625 47.34375 
Q 37.3125 48.390625 33.40625 48.390625 
Q 24.65625 48.390625 19.8125 42.84375 
Q 14.984375 37.3125 14.984375 27.296875 
Q 14.984375 17.28125 19.8125 11.734375 
Q 24.65625 6.203125 33.40625 6.203125 
Q 37.3125 6.203125 41.140625 7.25 
Q 44.96875 8.296875 48.78125 10.40625 
L 48.78125 2.09375 
Q 45.015625 0.34375 40.984375 -0.53125 
Q 36.96875 -1.421875 32.421875 -1.421875 
Q 20.0625 -1.421875 12.78125 6.34375 
Q 5.515625 14.109375 5.515625 27.296875 
Q 5.515625 40.671875 12.859375 48.328125 
Q 20.21875 56 33.015625 56 
Q 37.15625 56 41.109375 55.140625 
Q 45.0625 54.296875 48.78125 52.59375 
z
" id="DejaVuSans-99"/>
      <path d="M 54.890625 33.015625 
L 54.890625 0 
L 45.90625 0 
L 45.90625 32.71875 
Q 45.90625 40.484375 42.875 44.328125 
Q 39.84375 48.1875 33.796875 48.1875 
Q 26.515625 48.1875 22.3125 43.546875 
Q 18.109375 38.921875 18.109375 30.90625 
L 18.109375 0 
L 9.078125 0 
L 9.078125 54.6875 
L 18.109375 54.6875 
L 18.109375 46.1875 
Q 21.34375 51.125 25.703125 53.5625 
Q 30.078125 56 35.796875 56 
Q 45.21875 56 50.046875 50.171875 
Q 54.890625 44.34375 54.890625 33.015625 
z
" id="DejaVuSans-110"/>
      <path d="M 45.40625 46.390625 
L 45.40625 75.984375 
L 54.390625 75.984375 
L 54.390625 0 
L 45.40625 0 
L 45.40625 8.203125 
Q 42.578125 3.328125 38.25 0.953125 
Q 33.9375 -1.421875 27.875 -1.421875 
Q 17.96875 -1.421875 11.734375 6.484375 
Q 5.515625 14.40625 5.515625 27.296875 
Q 5.515625 40.1875 11.734375 48.09375 
Q 17.96875 56 27.875 56 
Q 33.9375 56 38.25 53.625 
Q 42.578125 51.265625 45.40625 46.390625 
z
M 14.796875 27.296875 
Q 14.796875 17.390625 18.875 11.75 
Q 22.953125 6.109375 30.078125 6.109375 
Q 37.203125 6.109375 41.296875 11.75 
Q 45.40625 17.390625 45.40625 27.296875 
Q 45.40625 37.203125 41.296875 42.84375 
Q 37.203125 48.484375 30.078125 48.484375 
Q 22.953125 48.484375 18.875 42.84375 
Q 14.796875 37.203125 14.796875 27.296875 
z
" id="DejaVuSans-100"/>
      <path d="M 8.015625 75.875 
L 15.828125 75.875 
Q 23.140625 64.359375 26.78125 53.3125 
Q 30.421875 42.28125 30.421875 31.390625 
Q 30.421875 20.453125 26.78125 9.375 
Q 23.140625 -1.703125 15.828125 -13.1875 
L 8.015625 -13.1875 
Q 14.5 -2 17.703125 9.0625 
Q 20.90625 20.125 20.90625 31.390625 
Q 20.90625 42.671875 17.703125 53.65625 
Q 14.5 64.65625 8.015625 75.875 
z
" id="DejaVuSans-41"/>
     </defs>
     <g transform="translate(57.667656 231.608958)rotate(-90)scale(0.1 -0.1)">
      <use xlink:href="#DejaVuSans-40"/>
      <use x="39.013672" xlink:href="#DejaVuSans-109"/>
      <use x="136.425781" xlink:href="#DejaVuSans-98"/>
      <use x="199.902344" xlink:href="#DejaVuSans-105"/>
      <use x="227.685547" xlink:href="#DejaVuSans-116"/>
      <use x="266.894531" xlink:href="#DejaVuSans-32"/>
      <use x="298.681641" xlink:href="#DejaVuSans-47"/>
      <use x="332.373047" xlink:href="#DejaVuSans-32"/>
      <use x="364.160156" xlink:href="#DejaVuSans-115"/>
      <use x="416.259766" xlink:href="#DejaVuSans-101"/>
      <use x="477.783203" xlink:href="#DejaVuSans-99"/>
      <use x="532.763672" xlink:href="#DejaVuSans-111"/>
      <use x="593.945312" xlink:href="#DejaVuSans-110"/>
      <use x="657.324219" xlink:href="#DejaVuSans-100"/>
      <use x="720.800781" xlink:href="#DejaVuSans-41"/>
     </g>
    </g>
   </g>
   <g id="line2d_16">
    <path clip-path="url(#pd57a2da492)" d="M 112.688708 344.523704 
L 113.423766 306.271392 
L 114.158824 294.795699 
L 114.893883 294.795699 
L 115.628941 287.145236 
L 116.363999 287.145236 
L 117.099058 283.320005 
L 117.834116 283.320005 
L 118.569174 287.145236 
L 120.039291 279.494774 
L 122.244466 279.494774 
L 122.979525 283.320005 
L 124.449641 283.320005 
L 125.1847 287.145236 
L 127.389875 287.145236 
L 128.124933 290.970467 
L 128.859991 287.145236 
L 129.59505 290.970467 
L 130.330108 290.970467 
L 131.065166 287.145236 
L 131.800225 279.494774 
L 132.535283 279.494774 
L 133.270341 283.320005 
L 134.0054 275.669543 
L 134.740458 283.320005 
L 135.475516 287.145236 
L 138.41575 287.145236 
L 139.150808 279.494774 
L 139.885866 287.145236 
L 140.620925 290.970467 
L 144.296216 290.970467 
L 145.031275 294.795699 
L 146.501392 294.795699 
L 147.23645 298.62093 
L 147.971508 298.62093 
L 148.706567 302.446161 
L 149.441625 298.62093 
L 151.6468 298.62093 
L 153.116917 306.271392 
L 153.851975 290.970467 
L 154.587033 287.145236 
L 155.322092 302.446161 
L 156.792208 294.795699 
L 158.997383 294.795699 
L 159.732442 290.970467 
L 164.87785 290.970467 
L 165.612908 287.145236 
L 167.083025 287.145236 
L 167.818083 283.320005 
L 168.553142 283.320005 
L 169.2882 268.01908 
L 170.023258 271.844311 
L 171.493375 287.145236 
L 172.228434 279.494774 
L 172.963492 279.494774 
L 173.69855 283.320005 
L 175.168667 283.320005 
L 175.903725 290.970467 
L 176.638784 283.320005 
L 178.1089 290.970467 
L 178.843959 287.145236 
L 179.579017 290.970467 
L 180.314075 290.970467 
L 181.049134 294.795699 
L 181.784192 294.795699 
L 182.51925 290.970467 
L 183.989367 290.970467 
L 184.724425 268.01908 
L 185.459484 275.669543 
L 186.194542 287.145236 
L 192.075009 287.145236 
L 192.810067 283.320005 
L 196.485359 283.320005 
L 197.220417 279.494774 
L 198.690534 279.494774 
L 199.425592 275.669543 
L 200.160651 248.892924 
L 200.895709 256.543387 
L 201.630767 275.669543 
L 202.365826 271.844311 
L 203.835942 271.844311 
L 205.306059 279.494774 
L 208.246292 279.494774 
L 208.981351 283.320005 
L 210.451467 283.320005 
L 211.186526 290.970467 
L 211.921584 290.970467 
L 212.656642 287.145236 
L 213.391701 290.970467 
L 214.861817 290.970467 
L 215.596876 252.718155 
L 216.331934 279.494774 
L 217.066992 287.145236 
L 217.802051 287.145236 
L 218.537109 283.320005 
L 222.212401 283.320005 
L 222.947459 279.494774 
L 225.152634 279.494774 
L 227.357809 268.01908 
L 228.092868 268.01908 
L 230.298043 256.543387 
L 231.033101 225.941537 
L 231.768159 241.242462 
L 232.503218 260.368618 
L 233.238276 256.543387 
L 233.973334 260.368618 
L 234.708393 260.368618 
L 235.443451 271.844311 
L 236.178509 264.193849 
L 237.648626 271.844311 
L 239.118743 271.844311 
L 241.323918 283.320005 
L 242.058976 283.320005 
L 242.794034 287.145236 
L 244.264151 287.145236 
L 244.99921 294.795699 
L 245.734268 294.795699 
L 246.469326 241.242462 
L 247.204385 275.669543 
L 247.939443 275.669543 
L 249.40956 268.01908 
L 250.144618 271.844311 
L 250.879676 264.193849 
L 252.349793 264.193849 
L 253.084851 260.368618 
L 254.554968 260.368618 
L 255.290026 256.543387 
L 256.760143 256.543387 
L 257.495201 252.718155 
L 258.965318 252.718155 
L 260.435435 245.067693 
L 261.170493 245.067693 
L 261.905551 218.291075 
L 262.64061 245.067693 
L 263.375668 241.242462 
L 264.110726 245.067693 
L 268.521076 245.067693 
L 269.256135 248.892924 
L 270.726252 248.892924 
L 271.46131 260.368618 
L 272.196368 252.718155 
L 272.931427 248.892924 
L 273.666485 252.718155 
L 274.401543 252.718155 
L 275.136602 256.543387 
L 275.87166 256.543387 
L 276.606718 252.718155 
L 277.341777 218.291075 
L 278.076835 256.543387 
L 278.811893 260.368618 
L 279.546952 260.368618 
L 281.017068 268.01908 
L 281.752127 264.193849 
L 282.487185 264.193849 
L 283.222243 268.01908 
L 284.69236 268.01908 
L 285.427418 271.844311 
L 286.897535 271.844311 
L 287.632593 275.669543 
L 288.367652 275.669543 
L 289.10271 279.494774 
L 289.837768 275.669543 
L 290.572827 279.494774 
L 291.307885 279.494774 
L 292.042943 271.844311 
L 292.778002 241.242462 
L 293.51306 271.844311 
L 294.248118 260.368618 
L 294.983177 260.368618 
L 297.92341 245.067693 
L 298.658469 245.067693 
L 299.393527 241.242462 
L 300.863644 241.242462 
L 301.598702 237.417231 
L 303.068819 237.417231 
L 303.803877 233.591999 
L 305.273994 233.591999 
L 306.009052 229.766768 
L 306.74411 229.766768 
L 307.479169 218.291075 
L 308.214227 225.941537 
L 309.684344 233.591999 
L 312.624577 233.591999 
L 313.359635 237.417231 
L 314.094694 237.417231 
L 314.829752 241.242462 
L 315.56481 237.417231 
L 316.299869 241.242462 
L 317.034927 237.417231 
L 317.769985 241.242462 
L 318.505044 241.242462 
L 319.975161 264.193849 
L 320.710219 260.368618 
L 321.445277 264.193849 
L 322.180336 264.193849 
L 322.915394 241.242462 
L 323.650452 245.067693 
L 324.385511 264.193849 
L 325.120569 260.368618 
L 325.855627 264.193849 
L 326.590686 264.193849 
L 327.325744 268.01908 
L 328.060802 268.01908 
L 328.795861 271.844311 
L 330.265977 271.844311 
L 331.736094 279.494774 
L 332.471152 275.669543 
L 334.676327 275.669543 
L 336.146444 283.320005 
L 336.881502 283.320005 
L 337.616561 279.494774 
L 338.351619 245.067693 
L 339.086677 264.193849 
L 339.821736 279.494774 
L 341.291852 271.844311 
L 343.497027 271.844311 
L 344.232086 268.01908 
L 347.907378 268.01908 
L 348.642436 264.193849 
L 350.112553 264.193849 
L 350.847611 260.368618 
L 352.317728 260.368618 
L 353.052786 256.543387 
L 353.787844 225.941537 
L 354.522903 245.067693 
L 355.257961 256.543387 
L 355.993019 252.718155 
L 356.728078 260.368618 
L 358.933253 260.368618 
L 360.403369 268.01908 
L 361.138428 264.193849 
L 361.873486 264.193849 
L 362.608544 268.01908 
L 364.813719 268.01908 
L 365.548778 271.844311 
L 366.283836 268.01908 
L 367.018894 275.669543 
L 368.489011 275.669543 
L 369.22407 222.116306 
L 369.959128 264.193849 
L 370.694186 271.844311 
L 371.429245 268.01908 
L 372.164303 271.844311 
L 372.899361 268.01908 
L 373.63442 268.01908 
L 374.369478 264.193849 
L 375.104536 264.193849 
L 375.839595 260.368618 
L 376.574653 264.193849 
L 377.309711 260.368618 
L 378.04477 264.193849 
L 378.779828 260.368618 
L 381.720061 260.368618 
L 382.45512 256.543387 
L 383.925236 256.543387 
L 384.660295 218.291075 
L 385.395353 252.718155 
L 386.130411 256.543387 
L 386.86547 256.543387 
L 387.600528 260.368618 
L 388.335586 256.543387 
L 389.070645 260.368618 
L 389.805703 260.368618 
L 390.540761 264.193849 
L 391.27582 271.844311 
L 392.010878 268.01908 
L 392.745936 268.01908 
L 393.480995 271.844311 
L 394.216053 271.844311 
L 394.951112 275.669543 
L 395.68617 275.669543 
L 397.156287 283.320005 
L 397.891345 279.494774 
L 398.626403 279.494774 
L 399.361462 283.320005 
L 400.09652 225.941537 
L 400.831578 275.669543 
L 402.301695 268.01908 
L 404.50687 268.01908 
L 405.241928 264.193849 
L 405.976987 264.193849 
L 406.712045 260.368618 
L 408.91722 260.368618 
L 409.652278 256.543387 
L 411.122395 256.543387 
L 411.857453 252.718155 
L 412.592512 252.718155 
L 414.797687 241.242462 
L 415.532745 214.465843 
L 416.267803 245.067693 
L 417.002862 248.892924 
L 417.73792 256.543387 
L 418.472979 248.892924 
L 419.208037 248.892924 
L 419.943095 252.718155 
L 420.678154 252.718155 
L 421.413212 256.543387 
L 422.14827 264.193849 
L 422.883329 260.368618 
L 423.618387 264.193849 
L 424.353445 264.193849 
L 425.088504 268.01908 
L 425.823562 268.01908 
L 426.55862 271.844311 
L 427.293679 283.320005 
L 428.028737 271.844311 
L 428.763795 279.494774 
L 430.233912 279.494774 
L 430.96897 222.116306 
L 431.704029 271.844311 
L 432.439087 275.669543 
L 433.909204 268.01908 
L 436.114379 268.01908 
L 436.849437 264.193849 
L 439.054612 264.193849 
L 439.78967 260.368618 
L 441.259787 260.368618 
L 441.994845 256.543387 
L 442.729904 256.543387 
L 443.464962 252.718155 
L 444.200021 252.718155 
L 445.670137 245.067693 
L 446.405196 210.640612 
L 447.140254 248.892924 
L 447.875312 248.892924 
L 448.610371 252.718155 
L 449.345429 248.892924 
L 450.080487 252.718155 
L 451.550604 252.718155 
L 452.285662 256.543387 
L 453.020721 252.718155 
L 453.755779 256.543387 
L 455.960954 256.543387 
L 456.696012 260.368618 
L 458.166129 260.368618 
L 459.636246 268.01908 
L 460.371304 264.193849 
L 461.106362 256.543387 
L 461.841421 225.941537 
L 462.576479 268.01908 
L 463.311537 264.193849 
L 464.046596 268.01908 
L 464.781654 268.01908 
L 465.516712 264.193849 
L 467.721888 264.193849 
L 468.456946 260.368618 
L 473.602354 260.368618 
L 474.337413 256.543387 
L 475.807529 256.543387 
L 476.542588 241.242462 
L 477.277646 222.116306 
L 478.012704 252.718155 
L 478.747763 260.368618 
L 479.482821 256.543387 
L 480.217879 260.368618 
L 481.687996 260.368618 
L 482.423054 268.01908 
L 483.158113 264.193849 
L 483.893171 268.01908 
L 484.628229 264.193849 
L 485.363288 268.01908 
L 486.098346 268.01908 
L 486.833404 271.844311 
L 488.303521 271.844311 
L 489.038579 279.494774 
L 489.773638 275.669543 
L 491.243754 275.669543 
L 492.713871 237.417231 
L 493.44893 271.844311 
L 494.183988 271.844311 
L 494.919046 268.01908 
L 497.124221 268.01908 
L 497.85928 260.368618 
L 498.594338 264.193849 
L 499.329396 264.193849 
L 500.064455 260.368618 
L 502.26963 260.368618 
L 503.004688 256.543387 
L 504.474805 256.543387 
L 505.209863 252.718155 
L 505.944921 252.718155 
L 506.67998 248.892924 
L 507.415038 229.766768 
L 508.150096 225.941537 
L 508.885155 248.892924 
L 509.620213 233.591999 
L 509.620213 233.591999 
" style="fill:none;stroke:#1f77b4;stroke-linecap:square;stroke-width:1.5;"/>
   </g>
   <g id="line2d_17">
    <path clip-path="url(#pd57a2da492)" d="M 103.765099 118.835063 
L 104.500158 49.980902 
L 105.970274 49.980902 
L 106.705333 149.436913 
L 107.440391 199.164919 
L 108.175449 195.339687 
L 108.910508 210.640612 
L 110.380625 268.01908 
L 111.850741 298.62093 
L 112.5858 310.096623 
L 113.320858 325.397548 
L 114.055916 333.048011 
L 116.261091 344.523704 
L 116.99615 344.523704 
L 117.731208 348.348935 
L 118.466266 348.348935 
L 119.936383 340.698473 
L 122.876616 340.698473 
L 123.611675 336.873242 
L 126.551908 336.873242 
L 127.286966 333.048011 
L 129.492141 333.048011 
L 130.2272 329.222779 
L 133.167433 329.222779 
L 133.902492 348.348935 
L 134.63755 325.397548 
L 136.107667 325.397548 
L 139.0479 310.096623 
L 139.782958 313.921855 
L 140.518017 310.096623 
L 141.253075 310.096623 
L 141.988133 306.271392 
L 142.723192 306.271392 
L 143.45825 310.096623 
L 144.193308 310.096623 
L 144.928367 306.271392 
L 145.663425 306.271392 
L 146.398483 302.446161 
L 147.8686 302.446161 
L 148.603658 294.795699 
L 149.338717 294.795699 
L 150.073775 290.970467 
L 150.808833 298.62093 
L 151.543892 290.970467 
L 152.27895 294.795699 
L 153.014008 287.145236 
L 153.749067 313.921855 
L 154.484125 317.747086 
L 155.219183 294.795699 
L 155.954242 294.795699 
L 156.6893 302.446161 
L 157.424358 302.446161 
L 158.159417 298.62093 
L 159.629534 306.271392 
L 160.364592 306.271392 
L 161.09965 302.446161 
L 161.834709 306.271392 
L 163.304825 306.271392 
L 164.039884 310.096623 
L 165.51 310.096623 
L 166.980117 317.747086 
L 168.450234 317.747086 
L 169.185292 340.698473 
L 169.92035 336.873242 
L 170.655409 321.572317 
L 171.390467 313.921855 
L 172.125525 317.747086 
L 173.595642 317.747086 
L 174.3307 313.921855 
L 175.065759 313.921855 
L 175.800817 310.096623 
L 176.535875 313.921855 
L 177.270934 310.096623 
L 178.74105 310.096623 
L 179.476109 306.271392 
L 180.211167 306.271392 
L 180.946225 302.446161 
L 181.681284 310.096623 
L 183.151401 302.446161 
L 183.886459 302.446161 
L 184.621517 325.397548 
L 185.356576 317.747086 
L 186.091634 306.271392 
L 188.296809 306.271392 
L 189.031867 310.096623 
L 189.766926 310.096623 
L 190.501984 306.271392 
L 191.237042 310.096623 
L 195.647392 310.096623 
L 196.382451 313.921855 
L 198.587626 313.921855 
L 199.322684 317.747086 
L 200.057742 340.698473 
L 200.792801 329.222779 
L 201.527859 310.096623 
L 202.262917 313.921855 
L 204.468092 313.921855 
L 205.203151 306.271392 
L 205.938209 306.271392 
L 206.673267 310.096623 
L 207.408326 306.271392 
L 208.143384 306.271392 
L 208.878443 302.446161 
L 209.613501 302.446161 
L 210.348559 298.62093 
L 211.083618 298.62093 
L 211.818676 294.795699 
L 212.553734 294.795699 
L 213.288793 290.970467 
L 214.023851 290.970467 
L 214.758909 294.795699 
L 215.493968 325.397548 
L 216.964084 294.795699 
L 217.699143 294.795699 
L 218.434201 298.62093 
L 220.639376 298.62093 
L 221.374434 302.446161 
L 224.314668 302.446161 
L 225.049726 306.271392 
L 226.519843 306.271392 
L 227.254901 310.096623 
L 227.989959 310.096623 
L 228.725018 313.921855 
L 229.460076 313.921855 
L 230.195134 317.747086 
L 230.930193 340.698473 
L 231.665251 333.048011 
L 232.400309 313.921855 
L 233.870426 313.921855 
L 235.340543 306.271392 
L 238.280776 306.271392 
L 239.750893 298.62093 
L 241.956068 298.62093 
L 243.426185 290.970467 
L 244.161243 294.795699 
L 244.896301 287.145236 
L 245.63136 287.145236 
L 246.366418 325.397548 
L 247.101476 306.271392 
L 247.836535 298.62093 
L 248.571593 302.446161 
L 250.04171 302.446161 
L 250.776768 310.096623 
L 251.511826 306.271392 
L 252.246885 306.271392 
L 252.981943 310.096623 
L 255.187118 310.096623 
L 255.922176 313.921855 
L 258.127352 313.921855 
L 258.86241 317.747086 
L 260.332527 317.747086 
L 261.067585 321.572317 
L 261.802643 340.698473 
L 262.537702 321.572317 
L 264.007818 321.572317 
L 264.742877 317.747086 
L 265.477935 317.747086 
L 266.212993 313.921855 
L 266.948052 317.747086 
L 267.68311 317.747086 
L 268.418168 313.921855 
L 269.153227 317.747086 
L 269.888285 313.921855 
L 270.623343 313.921855 
L 271.358402 310.096623 
L 272.09346 313.921855 
L 272.828518 313.921855 
L 273.563577 310.096623 
L 274.298635 310.096623 
L 275.033693 306.271392 
L 275.768752 310.096623 
L 276.50381 306.271392 
L 277.238868 344.523704 
L 277.973927 310.096623 
L 279.444043 302.446161 
L 280.179102 302.446161 
L 280.91416 298.62093 
L 281.649218 302.446161 
L 282.384277 302.446161 
L 283.119335 298.62093 
L 284.589452 298.62093 
L 285.32451 290.970467 
L 286.059569 294.795699 
L 287.529685 294.795699 
L 288.264744 290.970467 
L 288.999802 294.795699 
L 289.73486 287.145236 
L 290.469919 294.795699 
L 291.204977 283.320005 
L 291.940035 290.970467 
L 292.675094 325.397548 
L 293.410152 294.795699 
L 294.14521 302.446161 
L 294.880269 306.271392 
L 295.615327 306.271392 
L 296.350385 313.921855 
L 297.820502 313.921855 
L 298.55556 317.747086 
L 300.025677 317.747086 
L 300.760735 321.572317 
L 302.230852 321.572317 
L 302.96591 325.397548 
L 305.171085 325.397548 
L 305.906144 329.222779 
L 306.641202 329.222779 
L 307.376261 336.873242 
L 308.111319 336.873242 
L 308.846377 329.222779 
L 309.581436 325.397548 
L 313.991786 325.397548 
L 314.726844 317.747086 
L 315.461902 321.572317 
L 316.196961 317.747086 
L 316.932019 321.572317 
L 317.667077 317.747086 
L 318.402136 321.572317 
L 319.137194 313.921855 
L 322.077427 313.921855 
L 322.812486 329.222779 
L 323.547544 333.048011 
L 324.282602 313.921855 
L 325.017661 310.096623 
L 326.487777 310.096623 
L 327.222836 306.271392 
L 327.957894 306.271392 
L 328.692952 302.446161 
L 330.163069 302.446161 
L 330.898127 298.62093 
L 331.633186 290.970467 
L 332.368244 298.62093 
L 333.103303 298.62093 
L 333.838361 294.795699 
L 334.573419 294.795699 
L 336.043536 287.145236 
L 336.778594 287.145236 
L 337.513653 290.970467 
L 338.248711 317.747086 
L 338.983769 310.096623 
L 339.718828 294.795699 
L 341.924003 294.795699 
L 342.659061 298.62093 
L 343.394119 294.795699 
L 344.129178 302.446161 
L 350.009644 302.446161 
L 350.744703 306.271392 
L 352.214819 306.271392 
L 352.949878 310.096623 
L 353.684936 333.048011 
L 354.419994 321.572317 
L 355.155053 306.271392 
L 355.890111 310.096623 
L 356.62517 302.446161 
L 358.830345 302.446161 
L 360.300461 294.795699 
L 361.03552 294.795699 
L 361.770578 298.62093 
L 362.505636 294.795699 
L 363.240695 294.795699 
L 363.975753 290.970467 
L 364.710811 294.795699 
L 365.44587 290.970467 
L 366.915986 290.970467 
L 367.651045 283.320005 
L 368.386103 287.145236 
L 369.121161 336.873242 
L 369.85622 298.62093 
L 370.591278 287.145236 
L 372.061395 294.795699 
L 372.796453 294.795699 
L 373.531511 290.970467 
L 375.001628 298.62093 
L 375.736686 294.795699 
L 376.471745 298.62093 
L 377.206803 298.62093 
L 377.941861 302.446161 
L 378.67692 298.62093 
L 379.411978 302.446161 
L 383.822328 302.446161 
L 384.557387 340.698473 
L 385.292445 310.096623 
L 386.027503 302.446161 
L 386.762562 302.446161 
L 387.49762 298.62093 
L 388.232678 302.446161 
L 388.967737 302.446161 
L 389.702795 298.62093 
L 390.437853 298.62093 
L 391.172912 294.795699 
L 392.643028 294.795699 
L 393.378087 290.970467 
L 394.848203 290.970467 
L 395.583262 287.145236 
L 396.31832 287.145236 
L 397.053378 279.494774 
L 398.523495 287.145236 
L 399.258553 279.494774 
L 399.993612 333.048011 
L 400.72867 290.970467 
L 401.463728 290.970467 
L 402.198787 294.795699 
L 404.403962 294.795699 
L 405.13902 302.446161 
L 409.54937 302.446161 
L 410.284429 306.271392 
L 411.019487 306.271392 
L 411.754545 310.096623 
L 412.489604 310.096623 
L 413.224662 313.921855 
L 413.95972 313.921855 
L 414.694779 317.747086 
L 415.429837 348.348935 
L 416.164895 317.747086 
L 417.635012 310.096623 
L 418.37007 313.921855 
L 419.840187 313.921855 
L 420.575245 310.096623 
L 421.310304 313.921855 
L 422.045362 306.271392 
L 424.250537 306.271392 
L 424.985595 302.446161 
L 425.720654 302.446161 
L 426.455712 298.62093 
L 427.925829 298.62093 
L 428.660887 302.446161 
L 430.131004 294.795699 
L 430.866062 340.698473 
L 431.601121 302.446161 
L 433.071237 302.446161 
L 433.806296 306.271392 
L 436.011471 306.271392 
L 436.746529 310.096623 
L 437.481587 310.096623 
L 438.216646 306.271392 
L 438.951704 310.096623 
L 441.156879 310.096623 
L 441.891937 313.921855 
L 442.626996 313.921855 
L 443.362054 317.747086 
L 444.832171 317.747086 
L 445.567229 321.572317 
L 446.302287 348.348935 
L 447.037346 321.572317 
L 447.772404 317.747086 
L 448.507462 317.747086 
L 449.242521 321.572317 
L 449.977579 317.747086 
L 451.447696 317.747086 
L 452.182754 313.921855 
L 452.917812 317.747086 
L 454.387929 317.747086 
L 455.122988 313.921855 
L 455.858046 313.921855 
L 456.593104 310.096623 
L 458.063221 310.096623 
L 458.798279 306.271392 
L 460.268396 306.271392 
L 461.003454 310.096623 
L 461.738513 340.698473 
L 462.473571 310.096623 
L 463.208629 306.271392 
L 463.943688 306.271392 
L 464.678746 310.096623 
L 465.413804 306.271392 
L 466.148863 310.096623 
L 466.883921 310.096623 
L 467.618979 306.271392 
L 468.354038 310.096623 
L 472.029329 310.096623 
L 472.764388 313.921855 
L 473.499446 310.096623 
L 474.234504 313.921855 
L 475.704621 313.921855 
L 476.439679 317.747086 
L 477.174738 344.523704 
L 477.909796 317.747086 
L 478.644854 310.096623 
L 479.379913 313.921855 
L 480.114971 313.921855 
L 480.85003 310.096623 
L 481.585088 310.096623 
L 482.320146 306.271392 
L 483.055205 306.271392 
L 483.790263 310.096623 
L 485.26038 302.446161 
L 485.995438 306.271392 
L 486.730496 302.446161 
L 488.200613 302.446161 
L 488.935671 298.62093 
L 491.140846 298.62093 
L 491.875905 306.271392 
L 492.610963 333.048011 
L 493.346021 298.62093 
L 494.08108 302.446161 
L 494.816138 302.446161 
L 495.551196 306.271392 
L 496.286255 306.271392 
L 497.021313 302.446161 
L 497.756371 306.271392 
L 499.961546 306.271392 
L 500.696605 310.096623 
L 502.90178 310.096623 
L 502.90178 310.096623 
" style="fill:none;stroke:#ff7f0e;stroke-linecap:square;stroke-width:1.5;"/>
   </g>
   <g id="line2d_18">
    <path clip-path="url(#pd57a2da492)" d="M 109.69555 321.572317 
L 110.430608 271.844311 
L 111.165667 248.892924 
L 111.900725 214.465843 
L 112.635784 199.164919 
L 113.370842 199.164919 
L 114.1059 183.863994 
L 114.840959 176.213531 
L 116.311075 153.262144 
L 117.046134 149.436913 
L 117.781192 141.786451 
L 118.51625 141.786451 
L 119.251309 149.436913 
L 119.986367 149.436913 
L 120.721425 145.611682 
L 121.456484 145.611682 
L 122.9266 153.262144 
L 123.661659 164.737838 
L 124.396717 164.737838 
L 125.866834 172.3883 
L 126.601892 172.3883 
L 127.33695 176.213531 
L 128.072009 176.213531 
L 128.807067 180.038763 
L 130.277184 180.038763 
L 131.012242 187.689225 
L 131.7473 206.815381 
L 132.482359 202.99015 
L 133.217417 202.99015 
L 133.952475 191.514456 
L 134.687534 202.99015 
L 136.157651 210.640612 
L 136.892709 206.815381 
L 137.627767 218.291075 
L 138.362826 210.640612 
L 139.097884 199.164919 
L 139.832942 229.766768 
L 140.568001 233.591999 
L 141.303059 233.591999 
L 142.773176 241.242462 
L 144.243292 241.242462 
L 144.978351 245.067693 
L 145.713409 245.067693 
L 146.448467 248.892924 
L 147.183526 248.892924 
L 147.918584 252.718155 
L 148.653642 260.368618 
L 150.123759 260.368618 
L 150.858817 264.193849 
L 151.593876 264.193849 
L 152.328934 268.01908 
L 153.063992 268.01908 
L 153.799051 218.291075 
L 154.534109 214.465843 
L 155.269167 252.718155 
L 157.474342 241.242462 
L 158.944459 241.242462 
L 159.679517 237.417231 
L 160.414576 237.417231 
L 161.149634 233.591999 
L 161.884693 233.591999 
L 162.619751 229.766768 
L 163.354809 229.766768 
L 164.824926 222.116306 
L 165.559984 222.116306 
L 167.765159 210.640612 
L 168.500218 210.640612 
L 169.235276 176.213531 
L 169.970334 183.863994 
L 170.705393 210.640612 
L 172.175509 210.640612 
L 172.910568 214.465843 
L 173.645626 214.465843 
L 175.115743 222.116306 
L 175.850801 229.766768 
L 176.585859 225.941537 
L 177.320918 229.766768 
L 178.055976 229.766768 
L 178.791034 237.417231 
L 180.261151 237.417231 
L 180.996209 241.242462 
L 181.731268 241.242462 
L 182.466326 245.067693 
L 183.201384 245.067693 
L 183.936443 248.892924 
L 184.671501 210.640612 
L 185.406559 225.941537 
L 186.141618 248.892924 
L 186.876676 248.892924 
L 187.611735 245.067693 
L 188.346793 245.067693 
L 189.081851 248.892924 
L 189.81691 245.067693 
L 194.22726 245.067693 
L 194.962318 241.242462 
L 198.63761 241.242462 
L 199.372668 237.417231 
L 200.107726 199.164919 
L 200.842785 214.465843 
L 201.577843 245.067693 
L 202.312901 237.417231 
L 203.04796 237.417231 
L 205.988193 252.718155 
L 206.723251 248.892924 
L 207.45831 252.718155 
L 208.193368 252.718155 
L 209.663485 260.368618 
L 210.398543 256.543387 
L 211.133602 264.193849 
L 213.338777 264.193849 
L 214.073835 268.01908 
L 214.808893 268.01908 
L 215.543952 214.465843 
L 216.27901 248.892924 
L 217.014068 264.193849 
L 218.484185 256.543387 
L 219.219243 260.368618 
L 219.954302 256.543387 
L 222.159477 256.543387 
L 222.894535 252.718155 
L 226.569827 252.718155 
L 227.304885 248.892924 
L 228.039943 248.892924 
L 228.775002 245.067693 
L 229.51006 245.067693 
L 230.245118 241.242462 
L 230.980177 206.815381 
L 231.715235 229.766768 
L 232.450293 248.892924 
L 233.92041 248.892924 
L 235.390527 256.543387 
L 236.125585 256.543387 
L 236.860644 260.368618 
L 237.595702 260.368618 
L 238.33076 264.193849 
L 239.800877 264.193849 
L 240.535935 271.844311 
L 242.006052 279.494774 
L 243.476169 279.494774 
L 244.211227 283.320005 
L 244.946285 290.970467 
L 245.681344 290.970467 
L 246.416402 233.591999 
L 247.15146 268.01908 
L 247.886519 271.844311 
L 248.621577 264.193849 
L 249.356635 260.368618 
L 250.091694 260.368618 
L 250.826752 256.543387 
L 251.56181 256.543387 
L 252.296869 252.718155 
L 253.031927 252.718155 
L 253.766985 248.892924 
L 256.707219 248.892924 
L 257.442277 245.067693 
L 258.912394 245.067693 
L 259.647452 241.242462 
L 260.382511 241.242462 
L 261.117569 237.417231 
L 261.852627 214.465843 
L 262.587686 241.242462 
L 264.792861 241.242462 
L 266.262977 248.892924 
L 266.998036 241.242462 
L 267.733094 245.067693 
L 269.203211 245.067693 
L 269.938269 248.892924 
L 271.408386 248.892924 
L 272.143444 252.718155 
L 272.878502 248.892924 
L 273.613561 252.718155 
L 274.348619 248.892924 
L 275.083677 256.543387 
L 275.818736 252.718155 
L 276.553794 252.718155 
L 277.288852 214.465843 
L 278.023911 252.718155 
L 279.494027 260.368618 
L 280.229086 260.368618 
L 280.964144 268.01908 
L 281.699202 264.193849 
L 282.434261 264.193849 
L 283.169319 268.01908 
L 283.904377 264.193849 
L 284.639436 268.01908 
L 285.374494 275.669543 
L 286.109553 271.844311 
L 286.844611 271.844311 
L 287.579669 275.669543 
L 289.049786 275.669543 
L 289.784844 279.494774 
L 291.254961 279.494774 
L 291.990019 271.844311 
L 292.725078 241.242462 
L 293.460136 268.01908 
L 294.195194 264.193849 
L 294.930253 256.543387 
L 295.665311 256.543387 
L 297.135428 248.892924 
L 297.870486 248.892924 
L 299.340603 241.242462 
L 300.810719 241.242462 
L 301.545778 237.417231 
L 303.015894 237.417231 
L 303.750953 233.591999 
L 305.221069 233.591999 
L 305.956128 229.766768 
L 306.691186 229.766768 
L 307.426244 218.291075 
L 308.161303 225.941537 
L 308.896361 229.766768 
L 309.63142 229.766768 
L 310.366478 233.591999 
L 311.836595 233.591999 
L 312.571653 237.417231 
L 313.306711 237.417231 
L 314.04177 233.591999 
L 314.776828 241.242462 
L 315.511886 237.417231 
L 316.246945 237.417231 
L 316.982003 241.242462 
L 317.717061 237.417231 
L 318.45212 241.242462 
L 319.187178 233.591999 
L 319.922236 222.116306 
L 320.657295 225.941537 
L 321.392353 225.941537 
L 322.127411 229.766768 
L 322.86247 202.99015 
L 323.597528 210.640612 
L 324.332586 237.417231 
L 325.067645 233.591999 
L 326.537761 241.242462 
L 328.007878 241.242462 
L 329.477995 248.892924 
L 330.213053 248.892924 
L 331.68317 256.543387 
L 332.418228 252.718155 
L 334.623403 264.193849 
L 335.358462 264.193849 
L 336.09352 271.844311 
L 336.828578 268.01908 
L 337.563637 268.01908 
L 338.298695 229.766768 
L 339.768812 268.01908 
L 341.238928 260.368618 
L 343.444103 260.368618 
L 344.179162 256.543387 
L 346.384337 256.543387 
L 347.119395 252.718155 
L 350.794687 252.718155 
L 351.529745 248.892924 
L 352.264803 248.892924 
L 352.999862 245.067693 
L 353.73492 214.465843 
L 354.469978 237.417231 
L 355.205037 248.892924 
L 355.940095 245.067693 
L 356.675153 256.543387 
L 357.410212 252.718155 
L 358.14527 256.543387 
L 358.880329 252.718155 
L 359.615387 260.368618 
L 360.350445 256.543387 
L 361.085504 260.368618 
L 361.820562 256.543387 
L 362.55562 264.193849 
L 363.290679 260.368618 
L 364.025737 268.01908 
L 364.760795 260.368618 
L 365.495854 268.01908 
L 366.230912 264.193849 
L 367.701029 271.844311 
L 368.436087 268.01908 
L 369.171145 214.465843 
L 369.906204 260.368618 
L 370.641262 268.01908 
L 371.37632 264.193849 
L 373.581495 264.193849 
L 374.316554 260.368618 
L 375.051612 260.368618 
L 375.78667 256.543387 
L 379.461962 256.543387 
L 380.19702 252.718155 
L 383.137254 252.718155 
L 383.872312 248.892924 
L 384.607371 210.640612 
L 385.342429 248.892924 
L 386.077487 252.718155 
L 386.812546 252.718155 
L 387.547604 260.368618 
L 388.282662 256.543387 
L 389.017721 256.543387 
L 389.752779 260.368618 
L 390.487837 260.368618 
L 391.957954 268.01908 
L 392.693012 264.193849 
L 394.163129 271.844311 
L 394.898187 271.844311 
L 395.633246 275.669543 
L 396.368304 275.669543 
L 397.103362 279.494774 
L 398.573479 279.494774 
L 399.308537 283.320005 
L 400.043596 222.116306 
L 400.778654 271.844311 
L 401.513712 271.844311 
L 402.983829 264.193849 
L 404.453946 264.193849 
L 405.189004 260.368618 
L 406.659121 260.368618 
L 407.394179 256.543387 
L 409.599354 256.543387 
L 410.334413 252.718155 
L 411.804529 252.718155 
L 413.274646 245.067693 
L 414.009704 245.067693 
L 414.744763 241.242462 
L 415.479821 210.640612 
L 416.214879 245.067693 
L 416.949938 245.067693 
L 417.684996 248.892924 
L 419.890171 248.892924 
L 420.625229 252.718155 
L 421.360288 252.718155 
L 422.095346 260.368618 
L 423.565463 260.368618 
L 424.300521 264.193849 
L 425.035579 264.193849 
L 425.770638 268.01908 
L 426.505696 268.01908 
L 427.240754 279.494774 
L 427.975813 271.844311 
L 429.445929 279.494774 
L 430.180988 275.669543 
L 430.916046 218.291075 
L 431.651104 271.844311 
L 432.386163 271.844311 
L 433.121221 268.01908 
L 434.591338 268.01908 
L 435.326396 264.193849 
L 438.26663 264.193849 
L 439.001688 260.368618 
L 441.206863 260.368618 
L 441.941921 256.543387 
L 443.412038 256.543387 
L 445.617213 245.067693 
L 446.352271 210.640612 
L 447.08733 248.892924 
L 448.557446 248.892924 
L 449.292505 245.067693 
L 450.027563 252.718155 
L 451.49768 252.718155 
L 452.232738 256.543387 
L 452.967796 252.718155 
L 454.437913 252.718155 
L 455.172971 256.543387 
L 455.90803 256.543387 
L 456.643088 260.368618 
L 458.113205 260.368618 
L 458.848263 264.193849 
L 460.31838 264.193849 
L 461.053438 256.543387 
L 461.788497 225.941537 
L 462.523555 264.193849 
L 463.258613 268.01908 
L 463.993672 264.193849 
L 466.933905 264.193849 
L 467.668963 260.368618 
L 471.344255 260.368618 
L 472.079313 256.543387 
L 475.754605 256.543387 
L 476.489663 241.242462 
L 477.224722 218.291075 
L 477.95978 256.543387 
L 478.694838 260.368618 
L 479.429897 256.543387 
L 480.164955 260.368618 
L 480.900013 260.368618 
L 482.37013 268.01908 
L 483.105189 264.193849 
L 484.575305 264.193849 
L 485.310364 271.844311 
L 486.045422 268.01908 
L 486.78048 271.844311 
L 487.515539 271.844311 
L 488.250597 275.669543 
L 491.19083 275.669543 
L 492.660947 237.417231 
L 493.396005 271.844311 
L 494.131064 271.844311 
L 494.866122 268.01908 
L 497.071297 268.01908 
L 497.806355 264.193849 
L 499.276472 264.193849 
L 500.01153 260.368618 
L 502.216705 260.368618 
L 502.951764 256.543387 
L 503.686822 256.543387 
L 504.42188 252.718155 
L 505.156939 252.718155 
L 505.891997 248.892924 
L 505.891997 248.892924 
" style="fill:none;stroke:#2ca02c;stroke-linecap:square;stroke-width:1.5;"/>
   </g>
   <g id="line2d_19">
    <path clip-path="url(#pd57a2da492)" d="M 106.66417 264.193849 
L 107.399228 202.99015 
L 108.134286 214.465843 
L 108.869345 195.339687 
L 109.604403 195.339687 
L 110.339461 218.291075 
L 111.07452 225.941537 
L 112.544636 256.543387 
L 113.279695 283.320005 
L 116.219928 329.222779 
L 117.690045 336.873242 
L 118.425103 336.873242 
L 119.89522 344.523704 
L 120.630278 344.523704 
L 121.365336 348.348935 
L 122.100395 344.523704 
L 123.570511 329.222779 
L 124.30557 325.397548 
L 125.040628 317.747086 
L 127.245803 317.747086 
L 128.71592 310.096623 
L 130.186037 310.096623 
L 130.921095 306.271392 
L 131.656153 298.62093 
L 132.391212 302.446161 
L 133.12627 302.446161 
L 133.861328 298.62093 
L 134.596387 298.62093 
L 135.331445 294.795699 
L 136.801562 294.795699 
L 137.53662 290.970467 
L 138.271678 294.795699 
L 139.006737 329.222779 
L 139.741795 283.320005 
L 140.476853 279.494774 
L 141.211912 279.494774 
L 142.682028 271.844311 
L 143.417087 275.669543 
L 144.887203 268.01908 
L 145.622262 268.01908 
L 146.35732 264.193849 
L 147.092378 264.193849 
L 148.562495 256.543387 
L 149.297553 256.543387 
L 150.032612 260.368618 
L 150.76767 252.718155 
L 151.502728 256.543387 
L 152.237787 252.718155 
L 152.972845 252.718155 
L 153.707904 271.844311 
L 154.442962 310.096623 
L 155.17802 264.193849 
L 157.383195 275.669543 
L 158.853312 275.669543 
L 159.58837 283.320005 
L 160.323429 279.494774 
L 161.058487 279.494774 
L 161.793545 283.320005 
L 163.99872 283.320005 
L 165.468837 290.970467 
L 166.203895 290.970467 
L 168.40907 302.446161 
L 169.144129 321.572317 
L 169.879187 333.048011 
L 170.614245 302.446161 
L 171.349304 298.62093 
L 172.084362 302.446161 
L 172.81942 302.446161 
L 174.289537 294.795699 
L 175.024595 294.795699 
L 175.759654 287.145236 
L 176.494712 290.970467 
L 177.22977 283.320005 
L 177.964829 283.320005 
L 179.434946 275.669543 
L 180.170004 279.494774 
L 180.905062 275.669543 
L 181.640121 264.193849 
L 182.375179 271.844311 
L 183.845296 271.844311 
L 184.580354 298.62093 
L 185.315412 306.271392 
L 186.050471 271.844311 
L 186.785529 268.01908 
L 187.520587 271.844311 
L 188.255646 271.844311 
L 188.990704 268.01908 
L 189.725762 275.669543 
L 190.460821 271.844311 
L 191.195879 271.844311 
L 191.930937 275.669543 
L 192.665996 275.669543 
L 193.401054 271.844311 
L 194.136112 275.669543 
L 196.341287 275.669543 
L 197.076346 279.494774 
L 198.546462 279.494774 
L 199.281521 283.320005 
L 200.016579 313.921855 
L 200.751637 321.572317 
L 201.486696 287.145236 
L 202.221754 283.320005 
L 202.956813 283.320005 
L 203.691871 290.970467 
L 204.426929 283.320005 
L 205.161988 283.320005 
L 206.632104 275.669543 
L 207.367163 275.669543 
L 208.102221 271.844311 
L 208.837279 271.844311 
L 209.572338 268.01908 
L 210.307396 271.844311 
L 211.042454 264.193849 
L 211.777513 260.368618 
L 212.512571 264.193849 
L 213.982688 264.193849 
L 214.717746 256.543387 
L 215.452804 302.446161 
L 216.187863 290.970467 
L 216.922921 264.193849 
L 218.393038 271.844311 
L 220.598213 271.844311 
L 221.333271 275.669543 
L 222.068329 271.844311 
L 222.803388 275.669543 
L 223.538446 275.669543 
L 224.273504 279.494774 
L 225.008563 275.669543 
L 226.478679 283.320005 
L 227.948796 283.320005 
L 228.683855 290.970467 
L 229.418913 290.970467 
L 230.153971 294.795699 
L 230.88903 333.048011 
L 231.624088 317.747086 
L 232.359146 290.970467 
L 233.094205 294.795699 
L 233.829263 290.970467 
L 234.564321 290.970467 
L 235.29938 275.669543 
L 236.034438 283.320005 
L 236.769496 279.494774 
L 237.504555 279.494774 
L 238.974671 271.844311 
L 239.70973 275.669543 
L 240.444788 268.01908 
L 241.179846 252.718155 
L 241.914905 256.543387 
L 242.649963 252.718155 
L 243.385021 252.718155 
L 245.590196 241.242462 
L 246.325255 306.271392 
L 247.060313 264.193849 
L 247.795371 264.193849 
L 248.53043 275.669543 
L 249.265488 275.669543 
L 251.470663 287.145236 
L 252.205721 287.145236 
L 252.94078 290.970467 
L 254.410897 290.970467 
L 255.145955 294.795699 
L 256.616072 294.795699 
L 257.35113 298.62093 
L 258.821247 298.62093 
L 259.556305 306.271392 
L 260.291363 306.271392 
L 261.026422 310.096623 
L 261.76148 340.698473 
L 262.496538 310.096623 
L 263.231597 310.096623 
L 263.966655 306.271392 
L 265.436772 306.271392 
L 266.17183 302.446161 
L 266.906888 302.446161 
L 267.641947 306.271392 
L 268.377005 302.446161 
L 270.58218 302.446161 
L 271.317238 294.795699 
L 272.052297 298.62093 
L 274.257472 298.62093 
L 274.99253 294.795699 
L 275.727588 294.795699 
L 276.462647 290.970467 
L 277.197705 340.698473 
L 277.932764 298.62093 
L 278.667822 290.970467 
L 279.40288 287.145236 
L 280.137939 287.145236 
L 280.872997 283.320005 
L 282.343114 283.320005 
L 283.078172 279.494774 
L 283.81323 283.320005 
L 286.018405 271.844311 
L 286.753464 275.669543 
L 287.488522 268.01908 
L 288.22358 271.844311 
L 288.958639 264.193849 
L 289.693697 268.01908 
L 290.428755 260.368618 
L 291.163814 268.01908 
L 291.898872 260.368618 
L 292.63393 313.921855 
L 293.368989 279.494774 
L 294.104047 283.320005 
L 294.839105 290.970467 
L 295.574164 294.795699 
L 296.309222 294.795699 
L 297.04428 302.446161 
L 297.779339 306.271392 
L 298.514397 302.446161 
L 299.984514 310.096623 
L 300.719572 310.096623 
L 301.45463 313.921855 
L 302.189689 313.921855 
L 302.924747 317.747086 
L 305.129922 317.747086 
L 306.600039 325.397548 
L 307.335097 336.873242 
L 308.070156 333.048011 
L 308.805214 321.572317 
L 311.010389 321.572317 
L 311.745447 317.747086 
L 313.950622 317.747086 
L 314.685681 313.921855 
L 315.420739 317.747086 
L 316.155797 317.747086 
L 316.890856 313.921855 
L 319.096031 313.921855 
L 319.831089 310.096623 
L 322.036264 310.096623 
L 322.771322 329.222779 
L 323.506381 333.048011 
L 324.241439 302.446161 
L 326.446614 302.446161 
L 327.181673 298.62093 
L 327.916731 298.62093 
L 329.386848 290.970467 
L 330.121906 290.970467 
L 330.856964 287.145236 
L 331.592023 279.494774 
L 332.327081 287.145236 
L 334.532256 275.669543 
L 335.267314 279.494774 
L 336.002373 271.844311 
L 336.737431 271.844311 
L 337.472489 275.669543 
L 338.207548 306.271392 
L 338.942606 302.446161 
L 339.677664 275.669543 
L 340.412723 275.669543 
L 341.147781 283.320005 
L 343.352956 283.320005 
L 344.088014 287.145236 
L 346.293189 287.145236 
L 347.028248 290.970467 
L 349.233423 290.970467 
L 349.968481 294.795699 
L 350.703539 294.795699 
L 351.438598 298.62093 
L 352.173656 298.62093 
L 352.908715 302.446161 
L 353.643773 329.222779 
L 354.378831 317.747086 
L 355.11389 302.446161 
L 355.848948 302.446161 
L 356.584006 294.795699 
L 357.319065 298.62093 
L 358.054123 294.795699 
L 359.52424 294.795699 
L 360.259298 290.970467 
L 360.994356 290.970467 
L 361.729415 294.795699 
L 362.464473 290.970467 
L 363.199531 290.970467 
L 363.93459 287.145236 
L 366.139765 287.145236 
L 367.609881 279.494774 
L 368.34494 279.494774 
L 369.079998 333.048011 
L 369.815056 298.62093 
L 370.550115 283.320005 
L 371.285173 287.145236 
L 372.75529 287.145236 
L 373.490348 290.970467 
L 374.960465 290.970467 
L 375.695523 294.795699 
L 377.900698 294.795699 
L 378.635757 298.62093 
L 379.370815 298.62093 
L 380.105873 294.795699 
L 380.840932 298.62093 
L 383.046107 298.62093 
L 383.781165 302.446161 
L 384.516223 336.873242 
L 385.251282 310.096623 
L 385.98634 302.446161 
L 386.721398 302.446161 
L 387.456457 294.795699 
L 388.191515 298.62093 
L 388.926573 294.795699 
L 389.661632 294.795699 
L 390.39669 290.970467 
L 391.131748 283.320005 
L 391.866807 287.145236 
L 392.601865 287.145236 
L 394.80704 275.669543 
L 395.542098 275.669543 
L 397.012215 268.01908 
L 397.747273 271.844311 
L 399.21739 264.193849 
L 399.952448 329.222779 
L 400.687507 279.494774 
L 402.157624 279.494774 
L 402.892682 283.320005 
L 403.62774 283.320005 
L 404.362799 287.145236 
L 405.097857 287.145236 
L 405.832915 290.970467 
L 408.03809 290.970467 
L 408.773149 294.795699 
L 410.978324 294.795699 
L 412.44844 302.446161 
L 413.183499 302.446161 
L 414.653615 310.096623 
L 415.388674 344.523704 
L 416.123732 306.271392 
L 416.85879 306.271392 
L 417.593849 294.795699 
L 418.328907 302.446161 
L 419.063965 302.446161 
L 420.534082 294.795699 
L 421.26914 294.795699 
L 422.004199 287.145236 
L 422.739257 287.145236 
L 423.474315 283.320005 
L 424.209374 283.320005 
L 424.944432 279.494774 
L 425.679491 271.844311 
L 426.414549 275.669543 
L 427.149607 256.543387 
L 427.884666 268.01908 
L 428.619724 260.368618 
L 430.089841 252.718155 
L 430.824899 333.048011 
L 431.559957 268.01908 
L 433.030074 268.01908 
L 433.765132 271.844311 
L 435.235249 271.844311 
L 435.970307 275.669543 
L 437.440424 275.669543 
L 438.175482 279.494774 
L 438.910541 275.669543 
L 439.645599 279.494774 
L 440.380657 279.494774 
L 441.115716 283.320005 
L 441.850774 283.320005 
L 442.585832 287.145236 
L 443.320891 287.145236 
L 444.791007 294.795699 
L 445.526066 294.795699 
L 446.261124 348.348935 
L 446.996182 298.62093 
L 447.731241 290.970467 
L 448.466299 290.970467 
L 449.201357 298.62093 
L 449.936416 290.970467 
L 451.406533 290.970467 
L 452.141591 287.145236 
L 452.876649 290.970467 
L 453.611708 287.145236 
L 454.346766 290.970467 
L 455.081824 287.145236 
L 455.816883 287.145236 
L 456.551941 283.320005 
L 457.286999 283.320005 
L 459.492174 271.844311 
L 460.227233 275.669543 
L 460.962291 275.669543 
L 461.697349 329.222779 
L 462.432408 275.669543 
L 463.902524 275.669543 
L 464.637583 271.844311 
L 465.372641 275.669543 
L 466.842758 275.669543 
L 467.577816 279.494774 
L 469.047933 279.494774 
L 469.782991 283.320005 
L 470.518049 283.320005 
L 471.253108 279.494774 
L 471.988166 283.320005 
L 473.458283 283.320005 
L 474.193341 287.145236 
L 475.663458 287.145236 
L 476.398516 298.62093 
L 477.133575 336.873242 
L 477.868633 290.970467 
L 478.603691 283.320005 
L 479.33875 287.145236 
L 480.808866 279.494774 
L 481.543925 279.494774 
L 482.278983 271.844311 
L 483.014041 275.669543 
L 484.484158 275.669543 
L 485.954275 268.01908 
L 486.689333 268.01908 
L 487.424391 264.193849 
L 488.15945 264.193849 
L 488.894508 260.368618 
L 490.364625 260.368618 
L 491.099683 264.193849 
L 491.834741 275.669543 
L 492.5698 317.747086 
L 493.304858 268.01908 
L 494.039916 268.01908 
L 494.774975 275.669543 
L 495.510033 275.669543 
L 496.245091 271.844311 
L 497.715208 279.494774 
L 499.920383 279.494774 
L 500.655442 283.320005 
L 502.125558 283.320005 
L 502.860617 287.145236 
L 503.595675 287.145236 
L 504.330733 290.970467 
L 504.330733 290.970467 
" style="fill:none;stroke:#d62728;stroke-linecap:square;stroke-width:1.5;"/>
   </g>
   <g id="patch_3">
    <path d="M 83.472344 352.174167 
L 83.472344 35.0625 
" style="fill:none;stroke:#000000;stroke-linecap:square;stroke-linejoin:miter;stroke-width:0.8;"/>
   </g>
   <g id="patch_4">
    <path d="M 529.912969 352.174167 
L 529.912969 35.0625 
" style="fill:none;stroke:#000000;stroke-linecap:square;stroke-linejoin:miter;stroke-width:0.8;"/>
   </g>
   <g id="patch_5">
    <path d="M 83.472344 352.174167 
L 529.912969 352.174167 
" style="fill:none;stroke:#000000;stroke-linecap:square;stroke-linejoin:miter;stroke-width:0.8;"/>
   </g>
   <g id="patch_6">
    <path d="M 83.472344 35.0625 
L 529.912969 35.0625 
" style="fill:none;stroke:#000000;stroke-linecap:square;stroke-linejoin:miter;stroke-width:0.8;"/>
   </g>
   <g id="legend_1">
    <g id="patch_7">
     <path d="M 554.235 96.775 
L 625.430312 96.775 
Q 627.430312 96.775 627.430312 94.775 
L 627.430312 37.0625 
Q 627.430312 35.0625 625.430312 35.0625 
L 554.235 35.0625 
Q 552.235 35.0625 552.235 37.0625 
L 552.235 94.775 
Q 552.235 96.775 554.235 96.775 
z
" style="fill:#ffffff;opacity:0.8;stroke:#cccccc;stroke-linejoin:miter;"/>
    </g>
    <g id="line2d_20">
     <path d="M 556.235 43.160937 
L 576.235 43.160937 
" style="fill:none;stroke:#1f77b4;stroke-linecap:square;stroke-width:1.5;"/>
    </g>
    <g id="line2d_21"/>
    <g id="text_17">
     <!-- cubic-pi -->
     <defs>
      <path d="M 4.890625 31.390625 
L 31.203125 31.390625 
L 31.203125 23.390625 
L 4.890625 23.390625 
z
" id="DejaVuSans-45"/>
     </defs>
     <g transform="translate(584.235 46.660937)scale(0.1 -0.1)">
      <use xlink:href="#DejaVuSans-99"/>
      <use x="54.980469" xlink:href="#DejaVuSans-117"/>
      <use x="118.359375" xlink:href="#DejaVuSans-98"/>
      <use x="181.835938" xlink:href="#DejaVuSans-105"/>
      <use x="209.619141" xlink:href="#DejaVuSans-99"/>
      <use x="264.599609" xlink:href="#DejaVuSans-45"/>
      <use x="300.683594" xlink:href="#DejaVuSans-112"/>
      <use x="364.160156" xlink:href="#DejaVuSans-105"/>
     </g>
    </g>
    <g id="line2d_22">
     <path d="M 556.235 57.839063 
L 576.235 57.839063 
" style="fill:none;stroke:#ff7f0e;stroke-linecap:square;stroke-width:1.5;"/>
    </g>
    <g id="line2d_23"/>
    <g id="text_18">
     <!-- bbr2-pi -->
     <g transform="translate(584.235 61.339063)scale(0.1 -0.1)">
      <use xlink:href="#DejaVuSans-98"/>
      <use x="63.476562" xlink:href="#DejaVuSans-98"/>
      <use x="126.953125" xlink:href="#DejaVuSans-114"/>
      <use x="168.066406" xlink:href="#DejaVuSans-50"/>
      <use x="231.689453" xlink:href="#DejaVuSans-45"/>
      <use x="267.773438" xlink:href="#DejaVuSans-112"/>
      <use x="331.25" xlink:href="#DejaVuSans-105"/>
     </g>
    </g>
    <g id="line2d_24">
     <path d="M 556.235 72.517187 
L 576.235 72.517187 
" style="fill:none;stroke:#2ca02c;stroke-linecap:square;stroke-width:1.5;"/>
    </g>
    <g id="line2d_25"/>
    <g id="text_19">
     <!-- cubic-pi -->
     <g transform="translate(584.235 76.017187)scale(0.1 -0.1)">
      <use xlink:href="#DejaVuSans-99"/>
      <use x="54.980469" xlink:href="#DejaVuSans-117"/>
      <use x="118.359375" xlink:href="#DejaVuSans-98"/>
      <use x="181.835938" xlink:href="#DejaVuSans-105"/>
      <use x="209.619141" xlink:href="#DejaVuSans-99"/>
      <use x="264.599609" xlink:href="#DejaVuSans-45"/>
      <use x="300.683594" xlink:href="#DejaVuSans-112"/>
      <use x="364.160156" xlink:href="#DejaVuSans-105"/>
     </g>
    </g>
    <g id="line2d_26">
     <path d="M 556.235 87.195312 
L 576.235 87.195312 
" style="fill:none;stroke:#d62728;stroke-linecap:square;stroke-width:1.5;"/>
    </g>
    <g id="line2d_27"/>
    <g id="text_20">
     <!-- bbr2-pi -->
     <g transform="translate(584.235 90.695312)scale(0.1 -0.1)">
      <use xlink:href="#DejaVuSans-98"/>
      <use x="63.476562" xlink:href="#DejaVuSans-98"/>
      <use x="126.953125" xlink:href="#DejaVuSans-114"/>
      <use x="168.066406" xlink:href="#DejaVuSans-50"/>
      <use x="231.689453" xlink:href="#DejaVuSans-45"/>
      <use x="267.773438" xlink:href="#DejaVuSans-112"/>
      <use x="331.25" xlink:href="#DejaVuSans-105"/>
     </g>
    </g>
   </g>
  </g>
  <g id="text_21">
   <!-- result throughput -->
   <defs>
    <path d="M 9.421875 75.984375 
L 18.40625 75.984375 
L 18.40625 0 
L 9.421875 0 
z
" id="DejaVuSans-108"/>
   </defs>
   <g transform="translate(289.320938 17.038125)scale(0.12 -0.12)">
    <use xlink:href="#DejaVuSans-114"/>
    <use x="41.082031" xlink:href="#DejaVuSans-101"/>
    <use x="102.605469" xlink:href="#DejaVuSans-115"/>
    <use x="154.705078" xlink:href="#DejaVuSans-117"/>
    <use x="218.083984" xlink:href="#DejaVuSans-108"/>
    <use x="245.867188" xlink:href="#DejaVuSans-116"/>
    <use x="285.076172" xlink:href="#DejaVuSans-32"/>
    <use x="316.863281" xlink:href="#DejaVuSans-116"/>
    <use x="356.072266" xlink:href="#DejaVuSans-104"/>
    <use x="419.451172" xlink:href="#DejaVuSans-114"/>
    <use x="460.533203" xlink:href="#DejaVuSans-111"/>
    <use x="521.714844" xlink:href="#DejaVuSans-117"/>
    <use x="585.09375" xlink:href="#DejaVuSans-103"/>
    <use x="648.570312" xlink:href="#DejaVuSans-104"/>
    <use x="711.949219" xlink:href="#DejaVuSans-112"/>
    <use x="775.425781" xlink:href="#DejaVuSans-117"/>
    <use x="838.804688" xlink:href="#DejaVuSans-116"/>
   </g>
  </g>
 </g>
 <defs>
  <clipPath id="pd57a2da492">
   <rect height="317.111667" width="446.440625" x="83.472344" y="35.0625"/>
  </clipPath>
 </defs>
</svg>
