<?xml version="1.0" encoding="utf-8" standalone="no"?>
<!DOCTYPE svg PUBLIC "-//W3C//DTD SVG 1.1//EN"
  "http://www.w3.org/Graphics/SVG/1.1/DTD/svg11.dtd">
<!-- Created with matplotlib (https://matplotlib.org/) -->
<svg height="396pt" version="1.1" viewBox="0 0 684 396" width="684pt" xmlns="http://www.w3.org/2000/svg" xmlns:xlink="http://www.w3.org/1999/xlink">
 <defs>
  <style type="text/css">
*{stroke-linecap:butt;stroke-linejoin:round;}
  </style>
 </defs>
 <g id="figure_1">
  <g id="patch_1">
   <path d="M 0 396 
L 684 396 
L 684 0 
L 0 0 
z
" style="fill:#ffffff;"/>
  </g>
  <g id="axes_1">
   <g id="patch_2">
    <path d="M 130.36375 352.174167 
L 544.073906 352.174167 
L 544.073906 35.0625 
L 130.36375 35.0625 
z
" style="fill:#ffffff;"/>
   </g>
   <g id="matplotlib.axis_1">
    <g id="xtick_1">
     <g id="line2d_1">
      <defs>
       <path d="M 0 0 
L 0 3.5 
" id="m99e43ff783" style="stroke:#000000;stroke-width:0.8;"/>
      </defs>
      <g>
       <use style="stroke:#000000;stroke-width:0.8;" x="149.166027" xlink:href="#m99e43ff783" y="352.174167"/>
      </g>
     </g>
     <g id="text_1">
      <!-- 0 -->
      <defs>
       <path d="M 31.78125 66.40625 
Q 24.171875 66.40625 20.328125 58.90625 
Q 16.5 51.421875 16.5 36.375 
Q 16.5 21.390625 20.328125 13.890625 
Q 24.171875 6.390625 31.78125 6.390625 
Q 39.453125 6.390625 43.28125 13.890625 
Q 47.125 21.390625 47.125 36.375 
Q 47.125 51.421875 43.28125 58.90625 
Q 39.453125 66.40625 31.78125 66.40625 
z
M 31.78125 74.21875 
Q 44.046875 74.21875 50.515625 64.515625 
Q 56.984375 54.828125 56.984375 36.375 
Q 56.984375 17.96875 50.515625 8.265625 
Q 44.046875 -1.421875 31.78125 -1.421875 
Q 19.53125 -1.421875 13.0625 8.265625 
Q 6.59375 17.96875 6.59375 36.375 
Q 6.59375 54.828125 13.0625 64.515625 
Q 19.53125 74.21875 31.78125 74.21875 
z
" id="DejaVuSans-48"/>
      </defs>
      <g transform="translate(145.984777 366.772604)scale(0.1 -0.1)">
       <use xlink:href="#DejaVuSans-48"/>
      </g>
     </g>
    </g>
    <g id="xtick_2">
     <g id="line2d_2">
      <g>
       <use style="stroke:#000000;stroke-width:0.8;" x="217.426987" xlink:href="#m99e43ff783" y="352.174167"/>
      </g>
     </g>
     <g id="text_2">
      <!-- 50 -->
      <defs>
       <path d="M 10.796875 72.90625 
L 49.515625 72.90625 
L 49.515625 64.59375 
L 19.828125 64.59375 
L 19.828125 46.734375 
Q 21.96875 47.46875 24.109375 47.828125 
Q 26.265625 48.1875 28.421875 48.1875 
Q 40.625 48.1875 47.75 41.5 
Q 54.890625 34.8125 54.890625 23.390625 
Q 54.890625 11.625 47.5625 5.09375 
Q 40.234375 -1.421875 26.90625 -1.421875 
Q 22.3125 -1.421875 17.546875 -0.640625 
Q 12.796875 0.140625 7.71875 1.703125 
L 7.71875 11.625 
Q 12.109375 9.234375 16.796875 8.0625 
Q 21.484375 6.890625 26.703125 6.890625 
Q 35.15625 6.890625 40.078125 11.328125 
Q 45.015625 15.765625 45.015625 23.390625 
Q 45.015625 31 40.078125 35.4375 
Q 35.15625 39.890625 26.703125 39.890625 
Q 22.75 39.890625 18.8125 39.015625 
Q 14.890625 38.140625 10.796875 36.28125 
z
" id="DejaVuSans-53"/>
      </defs>
      <g transform="translate(211.064487 366.772604)scale(0.1 -0.1)">
       <use xlink:href="#DejaVuSans-53"/>
       <use x="63.623047" xlink:href="#DejaVuSans-48"/>
      </g>
     </g>
    </g>
    <g id="xtick_3">
     <g id="line2d_3">
      <g>
       <use style="stroke:#000000;stroke-width:0.8;" x="285.687947" xlink:href="#m99e43ff783" y="352.174167"/>
      </g>
     </g>
     <g id="text_3">
      <!-- 100 -->
      <defs>
       <path d="M 12.40625 8.296875 
L 28.515625 8.296875 
L 28.515625 63.921875 
L 10.984375 60.40625 
L 10.984375 69.390625 
L 28.421875 72.90625 
L 38.28125 72.90625 
L 38.28125 8.296875 
L 54.390625 8.296875 
L 54.390625 0 
L 12.40625 0 
z
" id="DejaVuSans-49"/>
      </defs>
      <g transform="translate(276.144197 366.772604)scale(0.1 -0.1)">
       <use xlink:href="#DejaVuSans-49"/>
       <use x="63.623047" xlink:href="#DejaVuSans-48"/>
       <use x="127.246094" xlink:href="#DejaVuSans-48"/>
      </g>
     </g>
    </g>
    <g id="xtick_4">
     <g id="line2d_4">
      <g>
       <use style="stroke:#000000;stroke-width:0.8;" x="353.948907" xlink:href="#m99e43ff783" y="352.174167"/>
      </g>
     </g>
     <g id="text_4">
      <!-- 150 -->
      <g transform="translate(344.405157 366.772604)scale(0.1 -0.1)">
       <use xlink:href="#DejaVuSans-49"/>
       <use x="63.623047" xlink:href="#DejaVuSans-53"/>
       <use x="127.246094" xlink:href="#DejaVuSans-48"/>
      </g>
     </g>
    </g>
    <g id="xtick_5">
     <g id="line2d_5">
      <g>
       <use style="stroke:#000000;stroke-width:0.8;" x="422.209867" xlink:href="#m99e43ff783" y="352.174167"/>
      </g>
     </g>
     <g id="text_5">
      <!-- 200 -->
      <defs>
       <path d="M 19.1875 8.296875 
L 53.609375 8.296875 
L 53.609375 0 
L 7.328125 0 
L 7.328125 8.296875 
Q 12.9375 14.109375 22.625 23.890625 
Q 32.328125 33.6875 34.8125 36.53125 
Q 39.546875 41.84375 41.421875 45.53125 
Q 43.3125 49.21875 43.3125 52.78125 
Q 43.3125 58.59375 39.234375 62.25 
Q 35.15625 65.921875 28.609375 65.921875 
Q 23.96875 65.921875 18.8125 64.3125 
Q 13.671875 62.703125 7.8125 59.421875 
L 7.8125 69.390625 
Q 13.765625 71.78125 18.9375 73 
Q 24.125 74.21875 28.421875 74.21875 
Q 39.75 74.21875 46.484375 68.546875 
Q 53.21875 62.890625 53.21875 53.421875 
Q 53.21875 48.921875 51.53125 44.890625 
Q 49.859375 40.875 45.40625 35.40625 
Q 44.1875 33.984375 37.640625 27.21875 
Q 31.109375 20.453125 19.1875 8.296875 
z
" id="DejaVuSans-50"/>
      </defs>
      <g transform="translate(412.666117 366.772604)scale(0.1 -0.1)">
       <use xlink:href="#DejaVuSans-50"/>
       <use x="63.623047" xlink:href="#DejaVuSans-48"/>
       <use x="127.246094" xlink:href="#DejaVuSans-48"/>
      </g>
     </g>
    </g>
    <g id="xtick_6">
     <g id="line2d_6">
      <g>
       <use style="stroke:#000000;stroke-width:0.8;" x="490.470827" xlink:href="#m99e43ff783" y="352.174167"/>
      </g>
     </g>
     <g id="text_6">
      <!-- 250 -->
      <g transform="translate(480.927077 366.772604)scale(0.1 -0.1)">
       <use xlink:href="#DejaVuSans-50"/>
       <use x="63.623047" xlink:href="#DejaVuSans-53"/>
       <use x="127.246094" xlink:href="#DejaVuSans-48"/>
      </g>
     </g>
    </g>
   </g>
   <g id="matplotlib.axis_2">
    <g id="ytick_1">
     <g id="line2d_7">
      <defs>
       <path d="M 0 0 
L -3.5 0 
" id="m360305aea7" style="stroke:#000000;stroke-width:0.8;"/>
      </defs>
      <g>
       <use style="stroke:#000000;stroke-width:0.8;" x="130.36375" xlink:href="#m360305aea7" y="352.174167"/>
      </g>
     </g>
     <g id="text_7">
      <!-- 0 -->
      <g transform="translate(117.00125 355.973385)scale(0.1 -0.1)">
       <use xlink:href="#DejaVuSans-48"/>
      </g>
     </g>
    </g>
    <g id="ytick_2">
     <g id="line2d_8">
      <g>
       <use style="stroke:#000000;stroke-width:0.8;" x="130.36375" xlink:href="#m360305aea7" y="314.995698"/>
      </g>
     </g>
     <g id="text_8">
      <!-- 200000 -->
      <g transform="translate(85.18875 318.794917)scale(0.1 -0.1)">
       <use xlink:href="#DejaVuSans-50"/>
       <use x="63.623047" xlink:href="#DejaVuSans-48"/>
       <use x="127.246094" xlink:href="#DejaVuSans-48"/>
       <use x="190.869141" xlink:href="#DejaVuSans-48"/>
       <use x="254.492188" xlink:href="#DejaVuSans-48"/>
       <use x="318.115234" xlink:href="#DejaVuSans-48"/>
      </g>
     </g>
    </g>
    <g id="ytick_3">
     <g id="line2d_9">
      <g>
       <use style="stroke:#000000;stroke-width:0.8;" x="130.36375" xlink:href="#m360305aea7" y="277.817229"/>
      </g>
     </g>
     <g id="text_9">
      <!-- 400000 -->
      <defs>
       <path d="M 37.796875 64.3125 
L 12.890625 25.390625 
L 37.796875 25.390625 
z
M 35.203125 72.90625 
L 47.609375 72.90625 
L 47.609375 25.390625 
L 58.015625 25.390625 
L 58.015625 17.1875 
L 47.609375 17.1875 
L 47.609375 0 
L 37.796875 0 
L 37.796875 17.1875 
L 4.890625 17.1875 
L 4.890625 26.703125 
z
" id="DejaVuSans-52"/>
      </defs>
      <g transform="translate(85.18875 281.616448)scale(0.1 -0.1)">
       <use xlink:href="#DejaVuSans-52"/>
       <use x="63.623047" xlink:href="#DejaVuSans-48"/>
       <use x="127.246094" xlink:href="#DejaVuSans-48"/>
       <use x="190.869141" xlink:href="#DejaVuSans-48"/>
       <use x="254.492188" xlink:href="#DejaVuSans-48"/>
       <use x="318.115234" xlink:href="#DejaVuSans-48"/>
      </g>
     </g>
    </g>
    <g id="ytick_4">
     <g id="line2d_10">
      <g>
       <use style="stroke:#000000;stroke-width:0.8;" x="130.36375" xlink:href="#m360305aea7" y="240.638761"/>
      </g>
     </g>
     <g id="text_10">
      <!-- 600000 -->
      <defs>
       <path d="M 33.015625 40.375 
Q 26.375 40.375 22.484375 35.828125 
Q 18.609375 31.296875 18.609375 23.390625 
Q 18.609375 15.53125 22.484375 10.953125 
Q 26.375 6.390625 33.015625 6.390625 
Q 39.65625 6.390625 43.53125 10.953125 
Q 47.40625 15.53125 47.40625 23.390625 
Q 47.40625 31.296875 43.53125 35.828125 
Q 39.65625 40.375 33.015625 40.375 
z
M 52.59375 71.296875 
L 52.59375 62.3125 
Q 48.875 64.0625 45.09375 64.984375 
Q 41.3125 65.921875 37.59375 65.921875 
Q 27.828125 65.921875 22.671875 59.328125 
Q 17.53125 52.734375 16.796875 39.40625 
Q 19.671875 43.65625 24.015625 45.921875 
Q 28.375 48.1875 33.59375 48.1875 
Q 44.578125 48.1875 50.953125 41.515625 
Q 57.328125 34.859375 57.328125 23.390625 
Q 57.328125 12.15625 50.6875 5.359375 
Q 44.046875 -1.421875 33.015625 -1.421875 
Q 20.359375 -1.421875 13.671875 8.265625 
Q 6.984375 17.96875 6.984375 36.375 
Q 6.984375 53.65625 15.1875 63.9375 
Q 23.390625 74.21875 37.203125 74.21875 
Q 40.921875 74.21875 44.703125 73.484375 
Q 48.484375 72.75 52.59375 71.296875 
z
" id="DejaVuSans-54"/>
      </defs>
      <g transform="translate(85.18875 244.437979)scale(0.1 -0.1)">
       <use xlink:href="#DejaVuSans-54"/>
       <use x="63.623047" xlink:href="#DejaVuSans-48"/>
       <use x="127.246094" xlink:href="#DejaVuSans-48"/>
       <use x="190.869141" xlink:href="#DejaVuSans-48"/>
       <use x="254.492188" xlink:href="#DejaVuSans-48"/>
       <use x="318.115234" xlink:href="#DejaVuSans-48"/>
      </g>
     </g>
    </g>
    <g id="ytick_5">
     <g id="line2d_11">
      <g>
       <use style="stroke:#000000;stroke-width:0.8;" x="130.36375" xlink:href="#m360305aea7" y="203.460292"/>
      </g>
     </g>
     <g id="text_11">
      <!-- 800000 -->
      <defs>
       <path d="M 31.78125 34.625 
Q 24.75 34.625 20.71875 30.859375 
Q 16.703125 27.09375 16.703125 20.515625 
Q 16.703125 13.921875 20.71875 10.15625 
Q 24.75 6.390625 31.78125 6.390625 
Q 38.8125 6.390625 42.859375 10.171875 
Q 46.921875 13.96875 46.921875 20.515625 
Q 46.921875 27.09375 42.890625 30.859375 
Q 38.875 34.625 31.78125 34.625 
z
M 21.921875 38.8125 
Q 15.578125 40.375 12.03125 44.71875 
Q 8.5 49.078125 8.5 55.328125 
Q 8.5 64.0625 14.71875 69.140625 
Q 20.953125 74.21875 31.78125 74.21875 
Q 42.671875 74.21875 48.875 69.140625 
Q 55.078125 64.0625 55.078125 55.328125 
Q 55.078125 49.078125 51.53125 44.71875 
Q 48 40.375 41.703125 38.8125 
Q 48.828125 37.15625 52.796875 32.3125 
Q 56.78125 27.484375 56.78125 20.515625 
Q 56.78125 9.90625 50.3125 4.234375 
Q 43.84375 -1.421875 31.78125 -1.421875 
Q 19.734375 -1.421875 13.25 4.234375 
Q 6.78125 9.90625 6.78125 20.515625 
Q 6.78125 27.484375 10.78125 32.3125 
Q 14.796875 37.15625 21.921875 38.8125 
z
M 18.3125 54.390625 
Q 18.3125 48.734375 21.84375 45.5625 
Q 25.390625 42.390625 31.78125 42.390625 
Q 38.140625 42.390625 41.71875 45.5625 
Q 45.3125 48.734375 45.3125 54.390625 
Q 45.3125 60.0625 41.71875 63.234375 
Q 38.140625 66.40625 31.78125 66.40625 
Q 25.390625 66.40625 21.84375 63.234375 
Q 18.3125 60.0625 18.3125 54.390625 
z
" id="DejaVuSans-56"/>
      </defs>
      <g transform="translate(85.18875 207.259511)scale(0.1 -0.1)">
       <use xlink:href="#DejaVuSans-56"/>
       <use x="63.623047" xlink:href="#DejaVuSans-48"/>
       <use x="127.246094" xlink:href="#DejaVuSans-48"/>
       <use x="190.869141" xlink:href="#DejaVuSans-48"/>
       <use x="254.492188" xlink:href="#DejaVuSans-48"/>
       <use x="318.115234" xlink:href="#DejaVuSans-48"/>
      </g>
     </g>
    </g>
    <g id="ytick_6">
     <g id="line2d_12">
      <g>
       <use style="stroke:#000000;stroke-width:0.8;" x="130.36375" xlink:href="#m360305aea7" y="166.281823"/>
      </g>
     </g>
     <g id="text_12">
      <!-- 1000000 -->
      <g transform="translate(78.82625 170.081042)scale(0.1 -0.1)">
       <use xlink:href="#DejaVuSans-49"/>
       <use x="63.623047" xlink:href="#DejaVuSans-48"/>
       <use x="127.246094" xlink:href="#DejaVuSans-48"/>
       <use x="190.869141" xlink:href="#DejaVuSans-48"/>
       <use x="254.492188" xlink:href="#DejaVuSans-48"/>
       <use x="318.115234" xlink:href="#DejaVuSans-48"/>
       <use x="381.738281" xlink:href="#DejaVuSans-48"/>
      </g>
     </g>
    </g>
    <g id="ytick_7">
     <g id="line2d_13">
      <g>
       <use style="stroke:#000000;stroke-width:0.8;" x="130.36375" xlink:href="#m360305aea7" y="129.103355"/>
      </g>
     </g>
     <g id="text_13">
      <!-- 1200000 -->
      <g transform="translate(78.82625 132.902573)scale(0.1 -0.1)">
       <use xlink:href="#DejaVuSans-49"/>
       <use x="63.623047" xlink:href="#DejaVuSans-50"/>
       <use x="127.246094" xlink:href="#DejaVuSans-48"/>
       <use x="190.869141" xlink:href="#DejaVuSans-48"/>
       <use x="254.492188" xlink:href="#DejaVuSans-48"/>
       <use x="318.115234" xlink:href="#DejaVuSans-48"/>
       <use x="381.738281" xlink:href="#DejaVuSans-48"/>
      </g>
     </g>
    </g>
    <g id="ytick_8">
     <g id="line2d_14">
      <g>
       <use style="stroke:#000000;stroke-width:0.8;" x="130.36375" xlink:href="#m360305aea7" y="91.924886"/>
      </g>
     </g>
     <g id="text_14">
      <!-- 1400000 -->
      <g transform="translate(78.82625 95.724105)scale(0.1 -0.1)">
       <use xlink:href="#DejaVuSans-49"/>
       <use x="63.623047" xlink:href="#DejaVuSans-52"/>
       <use x="127.246094" xlink:href="#DejaVuSans-48"/>
       <use x="190.869141" xlink:href="#DejaVuSans-48"/>
       <use x="254.492188" xlink:href="#DejaVuSans-48"/>
       <use x="318.115234" xlink:href="#DejaVuSans-48"/>
       <use x="381.738281" xlink:href="#DejaVuSans-48"/>
      </g>
     </g>
    </g>
    <g id="ytick_9">
     <g id="line2d_15">
      <g>
       <use style="stroke:#000000;stroke-width:0.8;" x="130.36375" xlink:href="#m360305aea7" y="54.746417"/>
      </g>
     </g>
     <g id="text_15">
      <!-- 1600000 -->
      <g transform="translate(78.82625 58.545636)scale(0.1 -0.1)">
       <use xlink:href="#DejaVuSans-49"/>
       <use x="63.623047" xlink:href="#DejaVuSans-54"/>
       <use x="127.246094" xlink:href="#DejaVuSans-48"/>
       <use x="190.869141" xlink:href="#DejaVuSans-48"/>
       <use x="254.492188" xlink:href="#DejaVuSans-48"/>
       <use x="318.115234" xlink:href="#DejaVuSans-48"/>
       <use x="381.738281" xlink:href="#DejaVuSans-48"/>
      </g>
     </g>
    </g>
    <g id="text_16">
     <!-- inflight -->
     <defs>
      <path d="M 9.421875 54.6875 
L 18.40625 54.6875 
L 18.40625 0 
L 9.421875 0 
z
M 9.421875 75.984375 
L 18.40625 75.984375 
L 18.40625 64.59375 
L 9.421875 64.59375 
z
" id="DejaVuSans-105"/>
      <path d="M 54.890625 33.015625 
L 54.890625 0 
L 45.90625 0 
L 45.90625 32.71875 
Q 45.90625 40.484375 42.875 44.328125 
Q 39.84375 48.1875 33.796875 48.1875 
Q 26.515625 48.1875 22.3125 43.546875 
Q 18.109375 38.921875 18.109375 30.90625 
L 18.109375 0 
L 9.078125 0 
L 9.078125 54.6875 
L 18.109375 54.6875 
L 18.109375 46.1875 
Q 21.34375 51.125 25.703125 53.5625 
Q 30.078125 56 35.796875 56 
Q 45.21875 56 50.046875 50.171875 
Q 54.890625 44.34375 54.890625 33.015625 
z
" id="DejaVuSans-110"/>
      <path d="M 37.109375 75.984375 
L 37.109375 68.5 
L 28.515625 68.5 
Q 23.6875 68.5 21.796875 66.546875 
Q 19.921875 64.59375 19.921875 59.515625 
L 19.921875 54.6875 
L 34.71875 54.6875 
L 34.71875 47.703125 
L 19.921875 47.703125 
L 19.921875 0 
L 10.890625 0 
L 10.890625 47.703125 
L 2.296875 47.703125 
L 2.296875 54.6875 
L 10.890625 54.6875 
L 10.890625 58.5 
Q 10.890625 67.625 15.140625 71.796875 
Q 19.390625 75.984375 28.609375 75.984375 
z
" id="DejaVuSans-102"/>
      <path d="M 9.421875 75.984375 
L 18.40625 75.984375 
L 18.40625 0 
L 9.421875 0 
z
" id="DejaVuSans-108"/>
      <path d="M 45.40625 27.984375 
Q 45.40625 37.75 41.375 43.109375 
Q 37.359375 48.484375 30.078125 48.484375 
Q 22.859375 48.484375 18.828125 43.109375 
Q 14.796875 37.75 14.796875 27.984375 
Q 14.796875 18.265625 18.828125 12.890625 
Q 22.859375 7.515625 30.078125 7.515625 
Q 37.359375 7.515625 41.375 12.890625 
Q 45.40625 18.265625 45.40625 27.984375 
z
M 54.390625 6.78125 
Q 54.390625 -7.171875 48.1875 -13.984375 
Q 42 -20.796875 29.203125 -20.796875 
Q 24.46875 -20.796875 20.265625 -20.09375 
Q 16.0625 -19.390625 12.109375 -17.921875 
L 12.109375 -9.1875 
Q 16.0625 -11.328125 19.921875 -12.34375 
Q 23.78125 -13.375 27.78125 -13.375 
Q 36.625 -13.375 41.015625 -8.765625 
Q 45.40625 -4.15625 45.40625 5.171875 
L 45.40625 9.625 
Q 42.625 4.78125 38.28125 2.390625 
Q 33.9375 0 27.875 0 
Q 17.828125 0 11.671875 7.65625 
Q 5.515625 15.328125 5.515625 27.984375 
Q 5.515625 40.671875 11.671875 48.328125 
Q 17.828125 56 27.875 56 
Q 33.9375 56 38.28125 53.609375 
Q 42.625 51.21875 45.40625 46.390625 
L 45.40625 54.6875 
L 54.390625 54.6875 
z
" id="DejaVuSans-103"/>
      <path d="M 54.890625 33.015625 
L 54.890625 0 
L 45.90625 0 
L 45.90625 32.71875 
Q 45.90625 40.484375 42.875 44.328125 
Q 39.84375 48.1875 33.796875 48.1875 
Q 26.515625 48.1875 22.3125 43.546875 
Q 18.109375 38.921875 18.109375 30.90625 
L 18.109375 0 
L 9.078125 0 
L 9.078125 75.984375 
L 18.109375 75.984375 
L 18.109375 46.1875 
Q 21.34375 51.125 25.703125 53.5625 
Q 30.078125 56 35.796875 56 
Q 45.21875 56 50.046875 50.171875 
Q 54.890625 44.34375 54.890625 33.015625 
z
" id="DejaVuSans-104"/>
      <path d="M 18.3125 70.21875 
L 18.3125 54.6875 
L 36.8125 54.6875 
L 36.8125 47.703125 
L 18.3125 47.703125 
L 18.3125 18.015625 
Q 18.3125 11.328125 20.140625 9.421875 
Q 21.96875 7.515625 27.59375 7.515625 
L 36.8125 7.515625 
L 36.8125 0 
L 27.59375 0 
Q 17.1875 0 13.234375 3.875 
Q 9.28125 7.765625 9.28125 18.015625 
L 9.28125 47.703125 
L 2.6875 47.703125 
L 2.6875 54.6875 
L 9.28125 54.6875 
L 9.28125 70.21875 
z
" id="DejaVuSans-116"/>
     </defs>
     <g transform="translate(61.54875 211.017552)rotate(-90)scale(0.1 -0.1)">
      <use xlink:href="#DejaVuSans-105"/>
      <use x="27.783203" xlink:href="#DejaVuSans-110"/>
      <use x="91.162109" xlink:href="#DejaVuSans-102"/>
      <use x="126.367188" xlink:href="#DejaVuSans-108"/>
      <use x="154.150391" xlink:href="#DejaVuSans-105"/>
      <use x="181.933594" xlink:href="#DejaVuSans-103"/>
      <use x="245.410156" xlink:href="#DejaVuSans-104"/>
      <use x="308.789062" xlink:href="#DejaVuSans-116"/>
     </g>
     <!-- (bytes) -->
     <defs>
      <path d="M 31 75.875 
Q 24.46875 64.65625 21.28125 53.65625 
Q 18.109375 42.671875 18.109375 31.390625 
Q 18.109375 20.125 21.3125 9.0625 
Q 24.515625 -2 31 -13.1875 
L 23.1875 -13.1875 
Q 15.875 -1.703125 12.234375 9.375 
Q 8.59375 20.453125 8.59375 31.390625 
Q 8.59375 42.28125 12.203125 53.3125 
Q 15.828125 64.359375 23.1875 75.875 
z
" id="DejaVuSans-40"/>
      <path d="M 48.6875 27.296875 
Q 48.6875 37.203125 44.609375 42.84375 
Q 40.53125 48.484375 33.40625 48.484375 
Q 26.265625 48.484375 22.1875 42.84375 
Q 18.109375 37.203125 18.109375 27.296875 
Q 18.109375 17.390625 22.1875 11.75 
Q 26.265625 6.109375 33.40625 6.109375 
Q 40.53125 6.109375 44.609375 11.75 
Q 48.6875 17.390625 48.6875 27.296875 
z
M 18.109375 46.390625 
Q 20.953125 51.265625 25.265625 53.625 
Q 29.59375 56 35.59375 56 
Q 45.5625 56 51.78125 48.09375 
Q 58.015625 40.1875 58.015625 27.296875 
Q 58.015625 14.40625 51.78125 6.484375 
Q 45.5625 -1.421875 35.59375 -1.421875 
Q 29.59375 -1.421875 25.265625 0.953125 
Q 20.953125 3.328125 18.109375 8.203125 
L 18.109375 0 
L 9.078125 0 
L 9.078125 75.984375 
L 18.109375 75.984375 
z
" id="DejaVuSans-98"/>
      <path d="M 32.171875 -5.078125 
Q 28.375 -14.84375 24.75 -17.8125 
Q 21.140625 -20.796875 15.09375 -20.796875 
L 7.90625 -20.796875 
L 7.90625 -13.28125 
L 13.1875 -13.28125 
Q 16.890625 -13.28125 18.9375 -11.515625 
Q 21 -9.765625 23.484375 -3.21875 
L 25.09375 0.875 
L 2.984375 54.6875 
L 12.5 54.6875 
L 29.59375 11.921875 
L 46.6875 54.6875 
L 56.203125 54.6875 
z
" id="DejaVuSans-121"/>
      <path d="M 56.203125 29.59375 
L 56.203125 25.203125 
L 14.890625 25.203125 
Q 15.484375 15.921875 20.484375 11.0625 
Q 25.484375 6.203125 34.421875 6.203125 
Q 39.59375 6.203125 44.453125 7.46875 
Q 49.3125 8.734375 54.109375 11.28125 
L 54.109375 2.78125 
Q 49.265625 0.734375 44.1875 -0.34375 
Q 39.109375 -1.421875 33.890625 -1.421875 
Q 20.796875 -1.421875 13.15625 6.1875 
Q 5.515625 13.8125 5.515625 26.8125 
Q 5.515625 40.234375 12.765625 48.109375 
Q 20.015625 56 32.328125 56 
Q 43.359375 56 49.78125 48.890625 
Q 56.203125 41.796875 56.203125 29.59375 
z
M 47.21875 32.234375 
Q 47.125 39.59375 43.09375 43.984375 
Q 39.0625 48.390625 32.421875 48.390625 
Q 24.90625 48.390625 20.390625 44.140625 
Q 15.875 39.890625 15.1875 32.171875 
z
" id="DejaVuSans-101"/>
      <path d="M 44.28125 53.078125 
L 44.28125 44.578125 
Q 40.484375 46.53125 36.375 47.5 
Q 32.28125 48.484375 27.875 48.484375 
Q 21.1875 48.484375 17.84375 46.4375 
Q 14.5 44.390625 14.5 40.28125 
Q 14.5 37.15625 16.890625 35.375 
Q 19.28125 33.59375 26.515625 31.984375 
L 29.59375 31.296875 
Q 39.15625 29.25 43.1875 25.515625 
Q 47.21875 21.78125 47.21875 15.09375 
Q 47.21875 7.46875 41.1875 3.015625 
Q 35.15625 -1.421875 24.609375 -1.421875 
Q 20.21875 -1.421875 15.453125 -0.5625 
Q 10.6875 0.296875 5.421875 2 
L 5.421875 11.28125 
Q 10.40625 8.6875 15.234375 7.390625 
Q 20.0625 6.109375 24.8125 6.109375 
Q 31.15625 6.109375 34.5625 8.28125 
Q 37.984375 10.453125 37.984375 14.40625 
Q 37.984375 18.0625 35.515625 20.015625 
Q 33.0625 21.96875 24.703125 23.78125 
L 21.578125 24.515625 
Q 13.234375 26.265625 9.515625 29.90625 
Q 5.8125 33.546875 5.8125 39.890625 
Q 5.8125 47.609375 11.28125 51.796875 
Q 16.75 56 26.8125 56 
Q 31.78125 56 36.171875 55.265625 
Q 40.578125 54.546875 44.28125 53.078125 
z
" id="DejaVuSans-115"/>
      <path d="M 8.015625 75.875 
L 15.828125 75.875 
Q 23.140625 64.359375 26.78125 53.3125 
Q 30.421875 42.28125 30.421875 31.390625 
Q 30.421875 20.453125 26.78125 9.375 
Q 23.140625 -1.703125 15.828125 -13.1875 
L 8.015625 -13.1875 
Q 14.5 -2 17.703125 9.0625 
Q 20.90625 20.125 20.90625 31.390625 
Q 20.90625 42.671875 17.703125 53.65625 
Q 14.5 64.65625 8.015625 75.875 
z
" id="DejaVuSans-41"/>
     </defs>
     <g transform="translate(72.746563 211.294896)rotate(-90)scale(0.1 -0.1)">
      <use xlink:href="#DejaVuSans-40"/>
      <use x="39.013672" xlink:href="#DejaVuSans-98"/>
      <use x="102.490234" xlink:href="#DejaVuSans-121"/>
      <use x="161.669922" xlink:href="#DejaVuSans-116"/>
      <use x="200.878906" xlink:href="#DejaVuSans-101"/>
      <use x="262.402344" xlink:href="#DejaVuSans-115"/>
      <use x="314.501953" xlink:href="#DejaVuSans-41"/>
     </g>
    </g>
   </g>
   <g id="line2d_16">
    <path clip-path="url(#p9a519afb48)" d="M 149.168757 302.108154 
L 149.851367 299.416432 
L 150.533976 305.338219 
L 151.216586 307.491596 
L 151.899196 145.988328 
L 152.581805 279.497696 
L 153.264415 281.381901 
L 153.947024 251.772968 
L 154.629634 231.315888 
L 155.312244 249.888764 
L 155.994853 250.69628 
L 156.677463 309.106629 
L 157.360072 234.007609 
L 158.042682 266.577435 
L 158.725292 290.264581 
L 159.407901 288.111204 
L 160.090511 305.607391 
L 160.77312 274.92177 
L 161.45573 299.685605 
L 162.13834 298.339744 
L 162.820949 351.904995 
L 163.503559 232.392576 
L 164.186168 275.460114 
L 164.868778 230.508371 
L 165.551388 274.92177 
L 166.233997 196.054341 
L 166.916607 247.466215 
L 167.599216 222.70238 
L 168.281826 252.849657 
L 168.964436 252.311313 
L 169.647045 214.358045 
L 170.329655 259.57896 
L 171.012264 275.190942 
L 171.694874 274.383426 
L 172.377484 280.305212 
L 173.060093 228.893339 
L 173.742703 242.351944 
L 174.425312 281.381901 
L 175.790532 208.974602 
L 176.473141 306.68408 
L 177.155751 50.163056 
L 177.83836 254.195517 
L 178.52097 309.375801 
L 179.20358 183.941596 
L 179.886189 231.58506 
L 180.568799 254.46469 
L 181.251408 250.965452 
L 181.934018 315.566759 
L 182.616628 270.884188 
L 183.299237 303.992358 
L 183.981847 259.848132 
L 184.664456 304.799875 
L 186.029676 284.073622 
L 186.712285 282.727761 
L 187.394895 281.920245 
L 188.077504 273.57591 
L 188.760114 236.430158 
L 189.442724 285.688655 
L 190.125333 351.904995 
L 190.807943 268.730812 
L 191.490552 308.568284 
L 192.173162 270.884188 
L 192.855772 294.840507 
L 193.538381 277.344319 
L 194.220991 295.648023 
L 194.9036 300.762293 
L 195.58621 249.350419 
L 196.26882 317.989308 
L 196.951429 309.106629 
L 197.634039 260.386476 
L 198.316648 238.314363 
L 198.999258 294.03299 
L 199.681868 270.884188 
L 200.364477 292.956302 
L 201.047087 329.025365 
L 201.729696 289.995408 
L 202.412306 308.568284 
L 203.094916 321.219374 
L 203.777525 308.02994 
L 204.460135 321.488546 
L 205.142744 340.599766 
L 205.825354 342.214798 
L 206.507964 343.022315 
L 207.190573 337.3697 
L 207.873183 326.333644 
L 208.555792 320.950202 
L 209.238402 322.834406 
L 209.921012 334.408807 
L 210.603621 325.256955 
L 211.286231 307.491596 
L 211.96884 334.139635 
L 212.65145 333.332119 
L 213.33406 323.641923 
L 214.016669 329.563709 
L 214.699279 322.834406 
L 215.381888 327.679504 
L 216.064498 316.91262 
L 216.747108 319.604341 
L 217.429717 324.180267 
L 218.112327 351.904995 
L 218.794936 293.763818 
L 219.477546 335.754668 
L 220.160156 339.792249 
L 220.842765 338.446389 
L 221.525375 314.220899 
L 222.207984 294.302162 
L 222.890594 327.410332 
L 223.573204 291.879613 
L 224.255813 270.076672 
L 224.938423 333.332119 
L 225.621032 329.832881 
L 226.303642 295.648023 
L 226.986252 327.410332 
L 227.668861 291.072097 
L 228.351471 300.493121 
L 229.03408 262.809025 
L 230.3993 338.177217 
L 231.081909 336.831356 
L 231.764519 306.68408 
L 232.447128 335.216324 
L 233.129738 270.345844 
L 233.812348 311.260005 
L 234.494957 308.568284 
L 235.177567 287.034515 
L 235.860176 327.948676 
L 236.542786 304.261531 
L 237.225396 321.219374 
L 237.908005 301.300637 
L 238.590615 306.145735 
L 239.273224 276.267631 
L 239.955834 338.177217 
L 240.638444 320.411857 
L 241.321053 338.984733 
L 242.003663 305.876563 
L 242.686272 316.91262 
L 243.368882 318.25848 
L 244.051492 311.529178 
L 244.734101 282.727761 
L 245.416711 333.332119 
L 246.09932 351.904995 
L 246.78193 301.569809 
L 247.46454 337.908045 
L 248.147149 289.187892 
L 248.829759 307.222424 
L 249.512368 296.186367 
L 250.194978 318.527653 
L 250.877588 331.447914 
L 251.560197 309.644973 
L 252.242807 311.79835 
L 252.925416 301.300637 
L 253.608026 261.732337 
L 254.290636 300.493121 
L 254.973245 307.760768 
L 255.655855 261.193992 
L 256.338464 314.490071 
L 257.021074 310.452489 
L 257.703684 327.948676 
L 258.386293 322.565234 
L 259.068903 289.457064 
L 259.751512 296.993883 
L 260.434122 330.640398 
L 261.116732 283.80445 
L 261.799341 308.837456 
L 262.481951 306.68408 
L 263.16456 278.959352 
L 263.84717 332.793775 
L 264.52978 339.523077 
L 265.212389 337.3697 
L 265.894999 332.793775 
L 266.577608 337.908045 
L 267.260218 320.142685 
L 267.942828 337.100528 
L 268.625437 331.178742 
L 269.308047 332.793775 
L 269.990656 303.992358 
L 270.673266 302.108154 
L 271.355876 331.717086 
L 272.038485 298.878088 
L 272.721095 300.223949 
L 273.403704 307.760768 
L 274.086314 349.213273 
L 274.768924 283.535278 
L 275.451533 304.261531 
L 276.134143 289.726236 
L 276.816752 288.91872 
L 277.499362 314.490071 
L 278.181972 267.654123 
L 278.864581 323.372751 
L 279.547191 294.571334 
L 280.2298 278.69018 
L 280.91241 293.225474 
L 281.59502 294.03299 
L 282.277629 303.723186 
L 282.960239 329.294537 
L 283.642848 300.223949 
L 284.325458 316.374276 
L 285.008068 327.679504 
L 285.690677 289.995408 
L 286.373287 329.025365 
L 287.055896 298.878088 
L 287.738506 304.530703 
L 288.421116 340.599766 
L 289.103725 331.447914 
L 289.786335 331.717086 
L 290.468944 324.180267 
L 291.151554 273.845082 
L 291.834164 280.305212 
L 292.516773 309.644973 
L 293.199383 293.225474 
L 293.881992 320.142685 
L 294.564602 271.153361 
L 295.247212 297.263056 
L 295.929821 208.436258 
L 296.612431 224.317413 
L 297.29504 330.102053 
L 297.97765 319.873513 
L 298.66026 274.652598 
L 299.342869 287.842032 
L 300.025479 280.03604 
L 300.708088 301.838981 
L 301.390698 327.410332 
L 302.073308 310.183317 
L 302.755917 310.183317 
L 303.438527 341.13811 
L 304.121136 321.757718 
L 304.803746 337.638873 
L 306.168965 325.256955 
L 306.851575 257.694755 
L 307.534184 321.757718 
L 308.216794 302.646498 
L 308.899404 328.217849 
L 309.582013 296.186367 
L 310.264623 301.569809 
L 310.947232 327.410332 
L 311.629842 325.7953 
L 312.312452 325.526127 
L 312.995061 248.542903 
L 313.677671 272.768393 
L 314.36028 324.449439 
L 315.04289 298.339744 
L 315.7255 325.256955 
L 316.408109 226.201618 
L 317.090719 234.276781 
L 317.773328 331.717086 
L 318.455938 336.293012 
L 319.138548 337.908045 
L 319.821157 284.342794 
L 320.503767 324.180267 
L 321.186376 268.192467 
L 321.868986 277.882663 
L 322.551596 256.618066 
L 323.234205 253.388001 
L 323.916815 285.688655 
L 324.599424 272.230049 
L 325.282034 204.129504 
L 325.964644 252.042141 
L 326.647253 265.231574 
L 327.329863 270.884188 
L 328.012472 253.388001 
L 328.695082 310.183317 
L 329.377692 284.611966 
L 330.060301 312.605866 
L 330.742911 228.624167 
L 331.42552 215.703905 
L 332.10813 299.14726 
L 332.79074 238.852707 
L 333.473349 273.57591 
L 334.155959 265.231574 
L 334.838568 280.03604 
L 335.521178 273.57591 
L 336.203788 288.111204 
L 336.886397 263.616541 
L 338.934226 223.509897 
L 339.616836 277.075147 
L 340.299445 292.417958 
L 340.982055 290.533753 
L 341.664664 246.658698 
L 342.347274 231.58506 
L 343.029884 235.891814 
L 343.712493 286.226999 
L 344.395103 271.960877 
L 345.077712 323.911095 
L 345.760322 323.911095 
L 346.442932 310.183317 
L 347.125541 317.450964 
L 347.808151 334.947151 
L 348.49076 333.062947 
L 349.17337 309.644973 
L 349.85598 315.028415 
L 350.538589 264.424058 
L 351.221199 232.123404 
L 351.903808 301.569809 
L 352.586418 297.263056 
L 353.269028 336.831356 
L 353.951637 308.02994 
L 354.634247 312.605866 
L 355.316856 320.142685 
L 355.999466 316.374276 
L 356.682076 338.446389 
L 357.364685 315.566759 
L 358.047295 351.904995 
L 358.729904 294.03299 
L 359.412514 316.105103 
L 360.095124 307.491596 
L 360.777733 336.293012 
L 361.460343 317.720136 
L 362.142952 306.414907 
L 362.825562 320.411857 
L 364.190781 299.416432 
L 364.873391 341.676454 
L 365.556 327.948676 
L 366.23861 291.341269 
L 366.92122 312.067522 
L 367.603829 340.599766 
L 368.286439 301.838981 
L 368.969048 325.526127 
L 369.651658 322.296062 
L 370.334268 336.293012 
L 371.016877 291.072097 
L 371.699487 306.68408 
L 372.382096 335.754668 
L 373.064706 320.681029 
L 373.747316 317.450964 
L 374.429925 317.720136 
L 375.112535 315.835931 
L 375.795144 329.563709 
L 376.477754 320.142685 
L 377.160364 328.756193 
L 377.842973 322.834406 
L 378.525583 337.908045 
L 379.208192 329.563709 
L 379.890802 315.028415 
L 380.573412 333.601291 
L 381.256021 310.183317 
L 381.938631 301.031465 
L 382.62124 317.720136 
L 383.30385 326.064472 
L 383.98646 316.91262 
L 384.669069 320.411857 
L 385.351679 317.181792 
L 386.034288 351.904995 
L 386.716898 329.025365 
L 387.399508 320.681029 
L 388.082117 329.025365 
L 388.764727 329.563709 
L 389.447336 326.064472 
L 390.129946 329.025365 
L 390.812556 330.371225 
L 391.495165 324.449439 
L 392.177775 341.945626 
L 392.860384 341.407282 
L 393.542994 318.527653 
L 394.225604 319.065997 
L 394.908213 323.372751 
L 395.590823 299.14726 
L 396.273432 288.111204 
L 396.956042 314.490071 
L 397.638652 326.333644 
L 398.321261 315.835931 
L 399.003871 317.450964 
L 399.68648 324.987783 
L 400.36909 337.638873 
L 401.0517 289.187892 
L 401.734309 337.3697 
L 402.416919 297.532228 
L 403.099529 303.992358 
L 404.464748 338.984733 
L 405.147357 323.372751 
L 405.829967 322.02689 
L 406.512577 305.338219 
L 407.195186 317.181792 
L 407.877796 319.604341 
L 408.560405 333.062947 
L 409.243015 323.372751 
L 409.925625 288.111204 
L 410.608234 287.034515 
L 411.290844 305.338219 
L 411.973453 303.184842 
L 412.656063 281.651073 
L 413.338673 295.109679 
L 414.021282 351.904995 
L 414.703892 319.335169 
L 415.386501 301.031465 
L 416.069111 260.117304 
L 416.751721 318.25848 
L 417.43433 284.073622 
L 418.11694 258.233099 
L 418.799549 301.838981 
L 419.482159 322.565234 
L 420.164769 288.380376 
L 420.847378 288.649548 
L 421.529988 308.568284 
L 422.212597 295.648023 
L 422.895207 312.067522 
L 423.577817 287.034515 
L 424.260426 293.494646 
L 424.943036 294.302162 
L 425.625645 277.882663 
L 426.308255 288.91872 
L 426.990865 324.449439 
L 427.673474 290.802925 
L 428.356084 333.601291 
L 429.038693 279.497696 
L 429.721303 264.69323 
L 430.403913 321.757718 
L 431.086522 291.610441 
L 431.769132 300.493121 
L 432.451741 294.840507 
L 433.134351 251.234624 
L 433.816961 306.414907 
L 434.49957 303.184842 
L 435.18218 262.001509 
L 435.864789 282.458589 
L 436.547399 273.306737 
L 437.230009 284.342794 
L 437.912618 274.652598 
L 438.595228 234.545953 
L 439.277837 243.697805 
L 439.960447 239.929395 
L 440.643057 278.69018 
L 441.325666 256.887239 
L 442.008276 351.635822 
L 442.690885 317.720136 
L 443.373495 265.500746 
L 444.056105 316.643448 
L 444.738714 289.457064 
L 445.421324 200.630267 
L 446.103933 291.341269 
L 446.786543 325.256955 
L 447.469153 329.832881 
L 448.151762 281.920245 
L 448.834372 285.957827 
L 449.516981 259.309788 
L 450.199591 311.260005 
L 450.882201 306.145735 
L 451.56481 293.225474 
L 452.24742 299.14726 
L 452.930029 307.222424 
L 453.612639 316.91262 
L 454.295249 292.417958 
L 454.977858 311.260005 
L 455.660468 323.911095 
L 456.343077 339.792249 
L 457.025687 262.539853 
L 457.708297 291.072097 
L 458.390906 289.457064 
L 459.073516 312.875038 
L 459.756125 243.428633 
L 460.438735 286.496171 
L 461.803954 301.031465 
L 462.486564 306.414907 
L 463.169173 322.02689 
L 463.851783 296.993883 
L 464.534393 266.577435 
L 465.217002 323.372751 
L 465.899612 296.455539 
L 466.582221 283.535278 
L 467.264831 281.920245 
L 467.947441 329.025365 
L 468.63005 251.772968 
L 469.31266 264.69323 
L 469.995269 286.226999 
L 470.677879 279.766868 
L 471.360489 333.062947 
L 472.725708 338.177217 
L 473.408317 332.793775 
L 474.090927 314.759243 
L 474.773537 316.374276 
L 475.456146 260.386476 
L 476.138756 288.91872 
L 476.821365 253.118829 
L 477.503975 304.530703 
L 478.186585 297.8014 
L 478.869194 306.414907 
L 479.551804 297.263056 
L 480.234413 301.569809 
L 480.917023 324.987783 
L 481.599633 322.834406 
L 482.282242 251.772968 
L 482.964852 327.14116 
L 483.647461 313.413382 
L 484.330071 351.635822 
L 485.012681 309.106629 
L 485.69529 309.375801 
L 486.3779 336.831356 
L 487.060509 279.228524 
L 487.743119 319.065997 
L 488.425729 304.530703 
L 489.108338 277.075147 
L 489.790948 290.264581 
L 490.473557 279.766868 
L 491.156167 315.028415 
L 491.838777 285.15031 
L 492.521386 319.065997 
L 493.203996 293.494646 
L 493.886605 306.953252 
L 494.569215 316.374276 
L 495.251825 314.220899 
L 495.934434 321.219374 
L 496.617044 287.303687 
L 497.299653 335.754668 
L 497.982263 312.875038 
L 498.664873 351.904995 
L 499.347482 321.219374 
L 500.030092 313.413382 
L 500.712701 314.490071 
L 501.395311 299.685605 
L 502.077921 334.139635 
L 502.76053 317.989308 
L 503.44314 335.216324 
L 504.808359 304.261531 
L 505.490969 304.261531 
L 506.173578 317.450964 
L 506.856188 276.267631 
L 507.538797 313.951727 
L 508.221407 298.070572 
L 508.904017 294.302162 
L 509.586626 296.455539 
L 510.269236 310.452489 
L 510.951845 296.993883 
L 511.634455 301.569809 
L 512.317065 307.222424 
L 512.999674 316.374276 
L 513.682284 289.726236 
L 514.364893 308.837456 
L 515.047503 337.3697 
L 515.730113 300.762293 
L 516.412722 310.990833 
L 517.095332 309.644973 
L 517.777941 312.336694 
L 518.460551 319.604341 
L 518.460551 319.604341 
" style="fill:none;stroke:#1f77b4;stroke-linecap:square;stroke-width:1.5;"/>
   </g>
   <g id="line2d_17">
    <path clip-path="url(#p9a519afb48)" d="M 157.342324 317.181792 
L 158.024934 334.139635 
L 158.707544 332.25543 
L 159.390153 341.676454 
L 160.072763 330.102053 
L 160.755372 332.793775 
L 161.437982 333.601291 
L 162.120592 333.332119 
L 162.803201 347.598241 
L 163.485811 330.371225 
L 164.16842 347.598241 
L 164.85103 339.523077 
L 165.53364 343.291487 
L 166.898859 339.523077 
L 167.581468 340.061422 
L 168.264078 336.831356 
L 168.946688 347.867413 
L 169.629297 337.3697 
L 170.311907 345.714036 
L 170.994516 338.715561 
L 171.677126 340.599766 
L 172.359736 344.90652 
L 173.042345 341.407282 
L 173.724955 343.291487 
L 174.407564 347.329069 
L 175.090174 342.214798 
L 176.455393 351.904995 
L 177.138003 346.25238 
L 177.820612 347.059897 
L 178.503222 346.790724 
L 179.185832 342.483971 
L 179.868441 346.25238 
L 180.551051 345.983208 
L 181.23366 347.598241 
L 181.91627 345.444864 
L 182.59888 348.405757 
L 183.281489 345.714036 
L 183.964099 342.483971 
L 184.646708 350.559134 
L 185.329318 346.790724 
L 186.011928 350.289962 
L 186.694537 344.637347 
L 187.377147 348.136585 
L 188.059756 347.867413 
L 188.742366 346.25238 
L 189.424976 348.674929 
L 190.107585 350.289962 
L 190.790195 351.36665 
L 191.472804 351.36665 
L 192.155414 344.90652 
L 192.838024 344.368175 
L 194.203243 344.90652 
L 194.885852 342.483971 
L 195.568462 347.867413 
L 196.251072 348.944101 
L 196.933681 349.213273 
L 197.616291 336.562184 
L 198.2989 340.330594 
L 198.98151 339.523077 
L 199.66412 324.449439 
L 200.346729 334.139635 
L 201.029339 341.13811 
L 201.711948 324.449439 
L 202.394558 331.986258 
L 203.077168 313.413382 
L 203.759777 263.885714 
L 204.442387 305.338219 
L 205.124996 332.25543 
L 205.807606 335.216324 
L 206.490216 337.638873 
L 207.855435 317.181792 
L 208.538044 280.305212 
L 209.220654 277.613491 
L 209.903264 326.871988 
L 210.585873 278.421008 
L 211.268483 286.765343 
L 211.951093 240.198568 
L 212.633702 287.034515 
L 213.316312 321.488546 
L 213.998921 287.034515 
L 214.681531 291.072097 
L 215.364141 333.332119 
L 216.04675 329.294537 
L 216.72936 307.222424 
L 217.411969 332.25543 
L 218.094579 337.908045 
L 218.777189 220.010659 
L 219.459798 331.717086 
L 220.142408 335.485496 
L 220.825017 335.216324 
L 221.507627 312.336694 
L 222.190237 268.461639 
L 222.872846 320.411857 
L 223.555456 263.078197 
L 224.238065 284.342794 
L 224.920675 334.408807 
L 225.603285 331.178742 
L 226.285894 301.300637 
L 226.968504 329.832881 
L 227.651113 294.302162 
L 228.333723 292.68713 
L 229.016333 280.843557 
L 229.698942 286.496171 
L 230.381552 336.831356 
L 231.064161 332.793775 
L 231.746771 305.338219 
L 232.429381 320.681029 
L 233.11199 257.694755 
L 233.7946 306.953252 
L 234.477209 287.303687 
L 235.159819 301.031465 
L 235.842429 281.651073 
L 236.525038 241.8136 
L 237.207648 292.956302 
L 237.890257 240.736912 
L 238.572867 269.269156 
L 239.255477 225.124929 
L 239.938086 312.067522 
L 240.620696 286.226999 
L 241.985915 308.02994 
L 242.668525 301.569809 
L 243.351134 283.266106 
L 244.033744 244.505321 
L 245.398963 333.601291 
L 246.081573 340.868938 
L 246.764182 315.297587 
L 247.446792 337.100528 
L 248.129401 303.992358 
L 248.812011 310.183317 
L 249.494621 258.502271 
L 250.17723 286.496171 
L 250.85984 325.7953 
L 251.542449 293.494646 
L 252.225059 320.142685 
L 252.907669 284.342794 
L 253.590278 309.914145 
L 254.272888 303.992358 
L 254.955497 315.028415 
L 255.638107 317.989308 
L 256.320717 297.532228 
L 257.003326 298.070572 
L 257.685936 325.7953 
L 258.368545 320.950202 
L 259.051155 346.25238 
L 259.733765 347.329069 
L 260.416374 335.485496 
L 261.098984 288.111204 
L 261.781593 289.457064 
L 262.464203 309.644973 
L 263.146813 290.533753 
L 263.829422 250.69628 
L 264.512032 283.80445 
L 265.194641 327.14116 
L 265.877251 310.990833 
L 266.559861 289.726236 
L 267.24247 306.145735 
L 267.92508 326.871988 
L 268.607689 287.034515 
L 269.290299 299.416432 
L 269.972909 260.655648 
L 270.655518 268.730812 
L 271.338128 309.644973 
L 272.020737 300.223949 
L 272.703347 255.003034 
L 274.068566 330.90957 
L 274.751176 289.457064 
L 275.433785 313.14421 
L 276.116395 303.184842 
L 276.799005 303.454014 
L 277.481614 288.111204 
L 278.164224 289.726236 
L 278.846833 333.601291 
L 279.529443 304.261531 
L 280.212053 297.263056 
L 280.894662 296.455539 
L 281.577272 292.68713 
L 282.259881 293.763818 
L 282.942491 331.986258 
L 283.625101 310.990833 
L 284.30771 306.145735 
L 284.99032 334.947151 
L 285.672929 302.646498 
L 286.355539 333.601291 
L 287.038149 315.028415 
L 287.720758 304.530703 
L 288.403368 351.904995 
L 289.085977 333.062947 
L 289.768587 334.947151 
L 290.451197 307.760768 
L 291.133806 304.799875 
L 291.816416 319.335169 
L 292.499025 338.715561 
L 293.181635 329.832881 
L 293.864245 335.485496 
L 294.546854 309.644973 
L 295.229464 330.371225 
L 295.912073 325.7953 
L 296.594683 276.536803 
L 297.277293 337.100528 
L 297.959902 302.646498 
L 298.642512 307.760768 
L 299.325121 285.419483 
L 300.007731 305.607391 
L 300.690341 312.336694 
L 301.37295 324.180267 
L 302.05556 299.14726 
L 302.738169 307.491596 
L 303.420779 341.945626 
L 304.103389 330.371225 
L 304.785998 341.945626 
L 306.151217 337.908045 
L 306.833827 313.682554 
L 307.516437 307.491596 
L 308.199046 313.682554 
L 308.881656 337.638873 
L 309.564265 303.723186 
L 310.246875 310.990833 
L 310.929485 292.956302 
L 311.612094 332.25543 
L 312.294704 295.917195 
L 312.977313 284.342794 
L 313.659923 306.68408 
L 314.342533 320.142685 
L 315.025142 327.948676 
L 315.707752 341.13811 
L 316.390361 329.025365 
L 317.072971 295.378851 
L 317.755581 343.291487 
L 318.43819 345.983208 
L 319.1208 346.790724 
L 319.803409 331.178742 
L 320.486019 341.407282 
L 321.168629 322.296062 
L 321.851238 334.139635 
L 322.533848 299.954777 
L 323.216457 325.526127 
L 323.899067 316.643448 
L 324.581677 330.102053 
L 325.264286 287.572859 
L 325.946896 320.411857 
L 326.629505 331.717086 
L 327.312115 292.68713 
L 327.994725 299.416432 
L 328.677334 316.643448 
L 329.359944 312.605866 
L 330.042553 340.330594 
L 330.725163 336.293012 
L 331.407773 282.189417 
L 332.090382 342.483971 
L 332.772992 323.372751 
L 333.455601 318.527653 
L 334.138211 329.563709 
L 334.820821 325.526127 
L 335.50343 327.410332 
L 336.18604 295.648023 
L 336.868649 317.450964 
L 337.551259 309.375801 
L 338.233869 322.02689 
L 338.916478 312.605866 
L 339.599088 305.876563 
L 340.281697 314.759243 
L 340.964307 298.070572 
L 341.646917 303.454014 
L 342.329526 277.882663 
L 343.012136 295.648023 
L 343.694745 331.986258 
L 344.377355 154.871008 
L 345.059965 249.619592 
L 345.742574 248.004559 
L 346.425184 239.121879 
L 347.107793 260.386476 
L 347.790403 309.375801 
L 348.473013 312.605866 
L 349.155622 242.621117 
L 349.838232 269.8075 
L 350.520841 352.174167 
L 351.203451 252.042141 
L 351.886061 262.539853 
L 352.56867 284.881138 
L 353.25128 311.260005 
L 353.933889 256.887239 
L 354.616499 261.732337 
L 355.299109 245.851182 
L 355.981718 265.231574 
L 356.664328 312.875038 
L 357.346937 302.108154 
L 358.029547 351.904995 
L 358.712157 261.193992 
L 359.394766 315.835931 
L 360.077376 311.529178 
L 360.759985 332.524602 
L 361.442595 323.911095 
L 362.125205 289.995408 
L 362.807814 321.757718 
L 363.490424 298.608916 
L 364.173033 305.607391 
L 364.855643 322.834406 
L 365.538253 329.563709 
L 366.220862 301.838981 
L 366.903472 280.843557 
L 367.586081 329.025365 
L 368.268691 298.878088 
L 368.951301 312.605866 
L 369.63391 315.566759 
L 370.31652 325.7953 
L 370.999129 279.766868 
L 371.681739 262.270681 
L 372.364349 328.217849 
L 373.046958 296.724711 
L 373.729568 308.837456 
L 374.412177 280.305212 
L 375.777397 316.374276 
L 376.460006 266.308263 
L 377.142616 317.450964 
L 377.825225 309.914145 
L 378.507835 333.332119 
L 379.190445 324.987783 
L 379.873054 308.02994 
L 380.555664 337.638873 
L 381.238273 321.219374 
L 381.920883 311.79835 
L 382.603493 315.566759 
L 383.286102 316.105103 
L 383.968712 317.720136 
L 384.651321 292.148785 
L 385.333931 296.455539 
L 386.016541 351.904995 
L 386.69915 315.835931 
L 387.38176 317.181792 
L 388.064369 302.646498 
L 388.746979 291.072097 
L 389.429589 315.835931 
L 390.112198 308.568284 
L 390.794808 318.527653 
L 391.477417 315.835931 
L 392.160027 336.562184 
L 392.842637 334.947151 
L 393.525246 304.261531 
L 394.207856 307.222424 
L 394.890465 304.799875 
L 395.573075 291.879613 
L 396.255685 325.526127 
L 396.938294 315.297587 
L 397.620904 324.180267 
L 398.303513 293.763818 
L 398.986123 276.267631 
L 400.351342 334.677979 
L 401.033952 304.530703 
L 401.716561 338.446389 
L 402.399171 287.303687 
L 403.081781 288.91872 
L 403.76439 314.759243 
L 404.447 316.91262 
L 405.129609 324.987783 
L 405.812219 296.724711 
L 406.494829 310.183317 
L 407.177438 311.260005 
L 407.860048 291.879613 
L 408.542657 332.793775 
L 409.225267 322.565234 
L 409.907877 295.378851 
L 410.590486 317.450964 
L 411.273096 325.7953 
L 412.638315 299.416432 
L 413.320925 308.568284 
L 414.003534 332.25543 
L 414.686144 310.452489 
L 415.368753 323.372751 
L 416.051363 311.260005 
L 416.733973 336.02384 
L 417.416582 316.374276 
L 418.099192 274.92177 
L 418.781801 334.139635 
L 419.464411 305.069047 
L 420.147021 300.223949 
L 420.82963 319.873513 
L 421.51224 320.411857 
L 422.194849 321.219374 
L 422.877459 309.914145 
L 423.560069 336.831356 
L 424.242678 302.108154 
L 424.925288 313.951727 
L 425.607897 310.721661 
L 426.290507 260.655648 
L 426.973117 312.336694 
L 427.655726 302.108154 
L 428.338336 341.676454 
L 429.020945 271.422533 
L 429.703555 306.145735 
L 430.386165 334.947151 
L 431.068774 330.640398 
L 431.751384 306.145735 
L 432.433993 290.802925 
L 433.116603 292.68713 
L 433.799213 307.222424 
L 434.481822 308.837456 
L 435.164432 310.990833 
L 435.847041 288.649548 
L 436.529651 316.91262 
L 437.212261 336.02384 
L 438.57748 308.568284 
L 439.260089 306.414907 
L 439.942699 312.605866 
L 440.625309 327.948676 
L 441.307918 310.990833 
L 441.990528 301.838981 
L 442.673137 296.724711 
L 443.355747 297.263056 
L 444.038357 310.452489 
L 444.720966 283.80445 
L 445.403576 308.299112 
L 446.086185 286.765343 
L 446.768795 332.524602 
L 447.451405 332.793775 
L 448.134014 300.223949 
L 448.816624 300.223949 
L 449.499233 253.118829 
L 450.181843 312.336694 
L 450.864453 289.457064 
L 451.547062 250.69628 
L 452.229672 323.372751 
L 452.912281 248.004559 
L 453.594891 278.69018 
L 454.277501 288.91872 
L 454.96011 302.91567 
L 455.64272 298.339744 
L 456.325329 338.446389 
L 457.007939 254.733862 
L 457.690549 269.538328 
L 458.373158 289.995408 
L 459.055768 283.80445 
L 459.738377 329.832881 
L 460.420987 276.805975 
L 461.103597 284.073622 
L 461.786206 305.607391 
L 462.468816 308.837456 
L 463.151425 327.948676 
L 463.834035 284.342794 
L 464.516645 295.109679 
L 465.199254 326.871988 
L 465.881864 288.91872 
L 466.564474 295.917195 
L 467.247083 281.381901 
L 467.929693 331.178742 
L 468.612302 277.613491 
L 469.294912 277.075147 
L 469.977522 309.375801 
L 470.660131 271.422533 
L 471.342741 331.178742 
L 472.02535 333.332119 
L 472.70796 336.831356 
L 473.39057 325.256955 
L 474.073179 278.151836 
L 474.755789 275.460114 
L 475.438398 294.571334 
L 476.121008 285.957827 
L 476.803618 262.270681 
L 477.486227 266.308263 
L 478.168837 285.957827 
L 478.851446 279.766868 
L 479.534056 287.303687 
L 480.216666 302.108154 
L 480.899275 306.68408 
L 481.581885 296.724711 
L 482.264494 236.430158 
L 482.947104 276.536803 
L 483.629714 243.159461 
L 484.312323 277.075147 
L 484.994933 241.006084 
L 485.677542 244.236149 
L 486.360152 304.799875 
L 487.042762 249.619592 
L 487.725371 218.933971 
L 488.407981 288.91872 
L 489.09059 299.685605 
L 489.7732 248.542903 
L 490.45581 253.388001 
L 491.138419 169.944646 
L 491.821029 275.998459 
L 492.503638 250.157936 
L 493.186248 268.461639 
L 493.868858 272.499221 
L 494.551467 258.502271 
L 495.234077 192.016759 
L 495.916686 283.80445 
L 496.599296 252.311313 
L 497.281906 260.655648 
L 497.964515 266.846607 
L 498.647125 329.025365 
L 500.012344 232.392576 
L 500.694954 228.624167 
L 501.377563 220.010659 
L 502.060173 309.644973 
L 502.742782 268.999984 
L 503.425392 312.336694 
L 504.790611 200.091923 
L 505.473221 238.045191 
L 506.15583 265.500746 
L 506.83844 255.541378 
L 507.52105 280.843557 
L 508.203659 262.809025 
L 508.886269 293.494646 
L 509.568878 267.115779 
L 510.251488 292.68713 
L 510.934098 306.414907 
L 511.616707 258.771443 
L 512.299317 305.338219 
L 512.981926 306.68408 
L 513.664536 317.989308 
L 514.347146 239.929395 
L 515.029755 322.02689 
L 515.712365 275.460114 
L 516.394974 291.879613 
L 517.077584 288.111204 
L 517.760194 287.303687 
L 518.442803 292.956302 
L 519.125413 266.846607 
L 519.808022 289.187892 
L 520.490632 285.957827 
L 521.173242 326.064472 
L 521.855851 282.458589 
L 522.538461 297.263056 
L 523.22107 274.92177 
L 523.90368 287.034515 
L 524.58629 277.882663 
L 525.268899 334.139635 
L 525.268899 334.139635 
" style="fill:none;stroke:#ff7f0e;stroke-linecap:square;stroke-width:1.5;"/>
   </g>
   <g id="line2d_18">
    <path clip-path="url(#p9a519afb48)" d="M 151.884178 243.966977 
L 152.566788 305.069047 
L 153.249397 306.953252 
L 153.932007 286.496171 
L 154.614616 230.508371 
L 155.297226 306.68408 
L 155.979836 269.538328 
L 156.662445 319.604341 
L 157.345055 278.151836 
L 158.027664 274.652598 
L 158.710274 307.491596 
L 159.392884 290.802925 
L 160.075493 288.649548 
L 160.758103 307.760768 
L 161.440713 274.114254 
L 162.123322 301.569809 
L 162.805932 319.065997 
L 163.488541 293.225474 
L 164.171151 315.566759 
L 164.853761 319.873513 
L 165.53637 282.458589 
L 166.21898 283.80445 
L 166.901589 309.106629 
L 167.584199 297.532228 
L 168.266809 323.103578 
L 168.949418 320.681029 
L 169.632028 317.720136 
L 170.314637 308.568284 
L 170.997247 309.644973 
L 171.679857 296.186367 
L 172.362466 309.375801 
L 173.045076 266.03909 
L 173.727685 305.607391 
L 174.410295 322.296062 
L 175.092905 320.681029 
L 175.775514 309.914145 
L 176.458124 339.792249 
L 177.140733 308.02994 
L 177.823343 331.447914 
L 178.505953 338.984733 
L 179.188562 327.14116 
L 179.871172 333.062947 
L 180.553781 312.067522 
L 181.236391 324.180267 
L 181.919001 328.217849 
L 182.60161 320.142685 
L 183.28422 335.485496 
L 183.966829 277.344319 
L 184.649439 309.106629 
L 185.332049 318.527653 
L 186.014658 305.338219 
L 186.697268 314.759243 
L 187.379877 316.91262 
L 188.062487 314.220899 
L 188.745097 285.419483 
L 189.427706 308.837456 
L 190.110316 346.790724 
L 190.792925 299.416432 
L 191.475535 330.90957 
L 192.158145 292.956302 
L 192.840754 320.950202 
L 193.523364 322.296062 
L 194.205973 323.372751 
L 194.888583 337.908045 
L 195.571193 331.447914 
L 196.253802 331.986258 
L 196.936412 320.950202 
L 197.619021 304.799875 
L 198.301631 315.566759 
L 198.984241 319.873513 
L 199.66685 327.410332 
L 200.34946 306.145735 
L 201.032069 337.908045 
L 201.714679 313.951727 
L 202.397289 318.796825 
L 203.079898 314.490071 
L 203.762508 313.951727 
L 204.445117 318.25848 
L 205.127727 339.523077 
L 206.492946 342.483971 
L 207.858165 331.717086 
L 208.540775 319.065997 
L 209.223385 293.763818 
L 209.905994 329.294537 
L 210.588604 312.067522 
L 211.271213 291.610441 
L 211.953823 330.90957 
L 212.636433 304.261531 
L 213.319042 329.563709 
L 214.001652 296.186367 
L 214.684261 325.526127 
L 215.366871 330.102053 
L 216.049481 325.256955 
L 216.73209 309.644973 
L 217.4147 334.677979 
L 218.097309 351.904995 
L 218.779919 282.189417 
L 219.462529 343.022315 
L 220.145138 345.444864 
L 220.827748 345.175692 
L 221.510357 331.178742 
L 222.192967 311.79835 
L 222.875577 332.793775 
L 223.558186 296.724711 
L 224.240796 309.106629 
L 224.923405 338.984733 
L 225.606015 334.947151 
L 226.288625 304.530703 
L 226.971234 331.447914 
L 227.653844 291.879613 
L 228.336453 310.183317 
L 229.019063 313.14421 
L 229.701673 304.799875 
L 230.384282 313.682554 
L 231.066892 301.569809 
L 231.749501 293.494646 
L 232.432111 335.754668 
L 233.114721 291.341269 
L 233.79733 323.372751 
L 234.47994 314.220899 
L 235.162549 327.410332 
L 235.845159 323.911095 
L 236.527769 283.80445 
L 237.210378 318.25848 
L 237.892988 309.106629 
L 238.575597 310.452489 
L 239.258207 306.145735 
L 239.940817 331.447914 
L 240.623426 293.763818 
L 241.306036 286.765343 
L 241.988645 299.954777 
L 242.671255 320.950202 
L 243.353865 319.604341 
L 244.036474 311.529178 
L 244.719084 279.497696 
L 245.401693 330.90957 
L 246.084303 348.674929 
L 246.766913 289.187892 
L 247.449522 330.640398 
L 248.132132 282.189417 
L 248.814741 290.533753 
L 250.179961 311.260005 
L 250.86257 327.679504 
L 251.54518 297.532228 
L 252.227789 299.14726 
L 252.910399 292.68713 
L 253.593009 292.956302 
L 254.275618 307.491596 
L 254.958228 315.835931 
L 255.640837 277.882663 
L 256.323447 304.799875 
L 257.006057 304.799875 
L 257.688666 327.14116 
L 258.371276 326.871988 
L 259.053885 290.802925 
L 259.736495 296.455539 
L 260.419105 337.638873 
L 261.101714 300.493121 
L 261.784324 316.91262 
L 262.466933 311.529178 
L 263.149543 269.8075 
L 263.832153 308.299112 
L 264.514762 313.951727 
L 265.197372 332.524602 
L 265.879981 313.413382 
L 266.562591 310.721661 
L 267.245201 310.183317 
L 267.92781 325.256955 
L 268.61042 262.001509 
L 269.293029 328.756193 
L 269.975639 245.312838 
L 270.658249 277.075147 
L 271.340858 296.455539 
L 272.023468 284.881138 
L 272.706077 238.314363 
L 273.388687 280.305212 
L 274.071297 333.062947 
L 274.753906 297.8014 
L 275.436516 311.79835 
L 276.119125 295.917195 
L 276.801735 298.878088 
L 277.484345 292.148785 
L 278.166954 297.263056 
L 278.849564 335.216324 
L 279.532173 333.332119 
L 280.214783 297.532228 
L 280.897393 306.145735 
L 281.580002 302.646498 
L 282.262612 298.339744 
L 282.945221 332.793775 
L 283.627831 303.454014 
L 284.310441 339.253905 
L 284.99305 334.139635 
L 285.67566 304.261531 
L 286.358269 305.607391 
L 287.040879 302.91567 
L 287.723489 303.992358 
L 288.406098 351.904995 
L 289.088708 332.524602 
L 289.771317 333.870463 
L 290.453927 296.455539 
L 291.136537 295.378851 
L 291.819146 317.181792 
L 292.501756 324.180267 
L 293.184365 322.02689 
L 293.866975 329.025365 
L 294.549585 302.91567 
L 295.232194 323.372751 
L 295.914804 303.454014 
L 296.597413 302.108154 
L 297.280023 337.908045 
L 297.962633 331.178742 
L 298.645242 299.416432 
L 299.327852 307.222424 
L 300.010461 290.264581 
L 300.693071 306.414907 
L 301.375681 326.333644 
L 302.05829 300.762293 
L 302.7409 284.073622 
L 303.423509 333.601291 
L 304.106119 302.91567 
L 304.788729 335.754668 
L 305.471338 333.332119 
L 306.153948 331.717086 
L 306.836557 305.069047 
L 307.519167 310.721661 
L 308.201777 315.297587 
L 308.884386 336.562184 
L 309.566996 314.220899 
L 310.932215 336.293012 
L 311.614825 306.414907 
L 312.297434 344.637347 
L 312.980044 290.264581 
L 313.662653 306.145735 
L 315.027873 327.14116 
L 315.710482 351.904995 
L 316.393092 342.214798 
L 317.075701 251.234624 
L 317.758311 341.407282 
L 318.440921 344.637347 
L 319.12353 344.90652 
L 319.80614 321.488546 
L 320.488749 341.13811 
L 321.171359 316.643448 
L 321.853969 322.296062 
L 322.536578 314.759243 
L 323.219188 305.069047 
L 323.901797 303.454014 
L 324.584407 327.410332 
L 325.267017 319.335169 
L 325.949626 318.796825 
L 326.632236 317.181792 
L 327.314845 291.879613 
L 327.997455 315.566759 
L 328.680065 335.216324 
L 329.362674 318.796825 
L 330.045284 351.904995 
L 330.727893 324.718611 
L 331.410503 277.075147 
L 332.093113 333.601291 
L 332.775722 307.760768 
L 333.458332 331.447914 
L 334.823551 324.180267 
L 335.506161 322.834406 
L 336.18877 321.219374 
L 336.87138 318.527653 
L 337.553989 292.68713 
L 338.236599 305.607391 
L 338.919209 315.566759 
L 339.601818 330.371225 
L 340.284428 336.293012 
L 340.967037 299.954777 
L 341.649647 314.490071 
L 342.332257 305.338219 
L 343.014866 318.796825 
L 343.697476 340.061422 
L 344.380085 289.457064 
L 345.062695 315.297587 
L 345.745305 302.646498 
L 346.427914 310.183317 
L 347.110524 309.375801 
L 347.793133 333.601291 
L 348.475743 333.601291 
L 349.158353 317.720136 
L 349.840962 325.526127 
L 350.523572 314.220899 
L 351.206181 305.338219 
L 351.888791 309.914145 
L 352.571401 303.992358 
L 353.25401 338.715561 
L 353.93662 331.178742 
L 354.619229 305.876563 
L 355.301839 318.796825 
L 355.984449 320.681029 
L 356.667058 339.253905 
L 357.349668 309.375801 
L 358.032277 351.904995 
L 358.714887 248.273731 
L 359.397497 292.68713 
L 360.080106 278.69018 
L 360.762716 323.911095 
L 361.445325 293.225474 
L 362.127935 239.660223 
L 362.810545 282.458589 
L 363.493154 220.549003 
L 364.175764 279.228524 
L 364.858373 281.651073 
L 365.540983 244.774493 
L 366.223593 287.572859 
L 366.906202 281.112729 
L 367.588812 312.336694 
L 368.271421 255.541378 
L 368.954031 291.341269 
L 369.636641 274.383426 
L 370.31925 301.838981 
L 371.684469 236.160986 
L 372.367079 307.222424 
L 373.049689 256.079722 
L 373.732298 280.574385 
L 374.414908 284.611966 
L 375.097517 278.959352 
L 375.780127 288.380376 
L 376.462737 274.92177 
L 377.145346 297.8014 
L 377.827956 282.727761 
L 378.510565 321.488546 
L 379.193175 308.299112 
L 379.875785 281.112729 
L 380.558394 296.993883 
L 381.241004 305.607391 
L 381.923613 279.497696 
L 382.606223 300.762293 
L 383.288833 309.914145 
L 383.971442 291.341269 
L 384.654052 279.766868 
L 385.336661 295.917195 
L 386.019271 351.904995 
L 386.701881 267.384951 
L 387.38449 287.572859 
L 388.0671 279.497696 
L 388.749709 305.876563 
L 389.432319 309.106629 
L 390.114929 300.223949 
L 390.797538 302.377326 
L 391.480148 325.256955 
L 392.162757 327.679504 
L 392.845367 327.679504 
L 393.527977 248.004559 
L 394.210586 279.766868 
L 395.575805 217.857282 
L 396.258415 289.726236 
L 396.941025 281.651073 
L 397.623634 289.726236 
L 398.306244 245.312838 
L 399.671463 284.073622 
L 400.354073 298.878088 
L 401.036682 197.669374 
L 401.719292 300.223949 
L 402.401901 259.848132 
L 403.084511 203.052816 
L 403.767121 271.691705 
L 404.44973 313.14421 
L 405.13234 286.226999 
L 405.814949 295.109679 
L 406.497559 284.611966 
L 407.180169 276.805975 
L 407.862778 257.156411 
L 408.545388 319.065997 
L 409.227997 295.917195 
L 409.910607 243.428633 
L 410.593217 282.996934 
L 411.275826 291.341269 
L 411.958436 271.422533 
L 412.641045 260.92482 
L 413.323655 273.57591 
L 414.006265 307.222424 
L 414.688874 287.572859 
L 415.371484 290.533753 
L 416.054094 280.574385 
L 416.736703 321.757718 
L 417.419313 305.876563 
L 418.101922 264.69323 
L 418.784532 322.02689 
L 419.467142 305.876563 
L 420.149751 302.108154 
L 420.832361 290.264581 
L 421.51497 313.682554 
L 422.19758 278.69018 
L 422.88019 301.569809 
L 423.562799 332.524602 
L 424.245409 290.802925 
L 424.928018 302.377326 
L 425.610628 292.148785 
L 426.293238 287.034515 
L 426.975847 299.954777 
L 427.658457 295.648023 
L 428.341066 338.715561 
L 429.023676 259.848132 
L 429.706286 299.685605 
L 430.388895 330.102053 
L 431.071505 312.605866 
L 431.754114 312.605866 
L 432.436724 274.652598 
L 433.119334 317.989308 
L 433.801943 294.571334 
L 434.484553 294.03299 
L 435.167162 291.072097 
L 435.849772 258.502271 
L 436.532382 248.273731 
L 437.214991 295.109679 
L 437.897601 303.723186 
L 438.58021 299.685605 
L 439.26282 301.838981 
L 439.94543 303.454014 
L 440.628039 325.526127 
L 441.310649 310.721661 
L 441.993258 328.217849 
L 442.675868 298.608916 
L 443.358478 275.190942 
L 444.041087 316.105103 
L 444.723697 301.031465 
L 445.406306 294.03299 
L 446.088916 284.073622 
L 446.771526 312.875038 
L 447.454135 332.25543 
L 448.136745 293.225474 
L 448.819354 282.996934 
L 449.501964 250.157936 
L 450.184574 273.845082 
L 450.867183 259.57896 
L 451.549793 297.532228 
L 452.232402 323.372751 
L 452.915012 264.424058 
L 453.597622 298.070572 
L 454.280231 288.649548 
L 454.962841 295.109679 
L 455.64545 306.953252 
L 456.32806 327.410332 
L 457.01067 314.220899 
L 457.693279 297.8014 
L 458.375889 299.685605 
L 459.058498 329.294537 
L 459.741108 328.217849 
L 460.423718 291.879613 
L 461.788937 310.452489 
L 462.471546 312.336694 
L 463.154156 330.371225 
L 463.836766 298.070572 
L 464.519375 293.225474 
L 465.884594 313.951727 
L 466.567204 307.760768 
L 467.249814 269.8075 
L 467.932423 315.566759 
L 468.615033 302.91567 
L 469.297642 304.261531 
L 469.980252 288.111204 
L 470.662862 313.413382 
L 471.345471 344.637347 
L 472.028081 345.983208 
L 472.71069 346.521552 
L 473.3933 344.637347 
L 474.07591 328.756193 
L 474.758519 332.793775 
L 475.441129 331.178742 
L 476.123738 331.178742 
L 476.806348 329.832881 
L 477.488958 324.718611 
L 478.171567 326.871988 
L 478.854177 331.986258 
L 479.536786 310.183317 
L 480.219396 316.374276 
L 480.902006 333.870463 
L 481.584615 336.02384 
L 482.267225 316.105103 
L 482.949834 331.717086 
L 483.632444 323.641923 
L 484.315054 351.904995 
L 484.997663 317.720136 
L 485.680273 331.447914 
L 486.362882 337.3697 
L 487.045492 296.724711 
L 487.728102 291.879613 
L 488.410711 317.989308 
L 489.093321 305.607391 
L 489.77593 322.565234 
L 490.45854 295.917195 
L 491.14115 323.641923 
L 491.823759 263.078197 
L 492.506369 315.297587 
L 493.188978 311.79835 
L 493.871588 335.216324 
L 494.554198 320.411857 
L 495.236807 328.217849 
L 495.919417 327.14116 
L 496.602026 324.449439 
L 497.284636 335.216324 
L 497.967246 304.530703 
L 498.649855 351.635822 
L 499.332465 322.02689 
L 500.015074 332.524602 
L 500.697684 328.756193 
L 501.380294 315.297587 
L 502.062903 342.214798 
L 502.745513 329.832881 
L 503.428122 329.025365 
L 504.110732 306.414907 
L 504.793342 318.25848 
L 505.475951 317.181792 
L 506.158561 337.3697 
L 506.84117 309.375801 
L 507.52378 322.565234 
L 508.20639 331.447914 
L 508.888999 334.677979 
L 509.571609 311.260005 
L 510.254218 352.174167 
L 510.936828 336.562184 
L 511.619438 327.410332 
L 512.302047 320.950202 
L 512.984657 340.330594 
L 513.667266 330.90957 
L 514.349876 318.527653 
L 515.032486 342.214798 
L 515.715095 325.256955 
L 516.397705 327.14116 
L 517.080314 334.139635 
L 517.762924 327.948676 
L 518.445534 338.984733 
L 519.128143 321.757718 
L 519.810753 318.25848 
L 519.810753 318.25848 
" style="fill:none;stroke:#2ca02c;stroke-linecap:square;stroke-width:1.5;"/>
   </g>
   <g id="line2d_19">
    <path clip-path="url(#p9a519afb48)" d="M 154.621443 317.181792 
L 155.304052 308.299112 
L 155.986662 296.724711 
L 156.669271 316.374276 
L 157.351881 295.648023 
L 158.034491 298.070572 
L 158.7171 327.14116 
L 159.39971 282.189417 
L 160.082319 303.454014 
L 160.764929 275.460114 
L 161.447539 241.544428 
L 162.130148 284.342794 
L 162.812758 311.529178 
L 163.495367 260.386476 
L 164.177977 279.766868 
L 164.860587 279.228524 
L 165.543196 248.812075 
L 166.225806 275.998459 
L 166.908415 255.003034 
L 167.591025 289.187892 
L 168.273635 297.263056 
L 168.956244 316.91262 
L 169.638854 293.494646 
L 170.321463 284.073622 
L 171.004073 310.183317 
L 171.686683 303.992358 
L 172.369292 329.832881 
L 173.051902 266.308263 
L 173.734511 299.14726 
L 174.417121 313.14421 
L 175.099731 291.341269 
L 175.78234 298.070572 
L 176.46495 328.217849 
L 177.147559 209.782119 
L 177.830169 298.070572 
L 178.512779 331.178742 
L 179.195388 302.646498 
L 179.877998 306.414907 
L 180.560607 277.075147 
L 181.243217 290.802925 
L 181.925827 329.025365 
L 182.608436 281.920245 
L 183.291046 319.335169 
L 183.973655 269.538328 
L 184.656265 327.679504 
L 185.338875 290.802925 
L 186.021484 266.577435 
L 186.704094 231.315888 
L 187.386703 280.305212 
L 188.069313 278.959352 
L 188.751923 229.700855 
L 189.434532 273.306737 
L 190.117142 327.948676 
L 190.799751 146.2575 
L 191.482361 270.345844 
L 192.164971 181.519047 
L 192.84758 174.2514 
L 193.53019 239.660223 
L 194.212799 227.009134 
L 194.895409 253.388001 
L 195.578019 237.506846 
L 196.260628 290.533753 
L 196.943238 250.157936 
L 197.625847 180.173186 
L 198.308457 187.979178 
L 198.991067 276.805975 
L 199.673676 247.466215 
L 200.356286 245.312838 
L 201.038895 312.605866 
L 201.721505 235.353469 
L 202.404115 262.270681 
L 203.086724 241.006084 
L 203.769334 233.200093 
L 204.451943 314.220899 
L 205.134553 340.868938 
L 205.817163 342.753143 
L 206.499772 343.022315 
L 207.182382 341.13811 
L 207.864991 329.563709 
L 208.547601 312.875038 
L 209.230211 313.14421 
L 209.91282 338.177217 
L 210.59543 320.142685 
L 211.278039 326.333644 
L 211.960649 337.100528 
L 212.643259 312.067522 
L 213.325868 333.601291 
L 214.008478 312.875038 
L 214.691087 334.139635 
L 215.373697 333.332119 
L 216.056307 335.754668 
L 216.738916 312.605866 
L 217.421526 336.562184 
L 218.104135 351.904995 
L 218.786745 322.834406 
L 219.469355 345.983208 
L 220.151964 347.059897 
L 220.834574 346.521552 
L 221.517183 338.715561 
L 222.199793 316.91262 
L 222.882403 339.253905 
L 223.565012 318.796825 
L 224.247622 319.335169 
L 224.930231 343.829831 
L 225.612841 340.061422 
L 226.295451 328.217849 
L 226.97806 313.413382 
L 227.66067 325.526127 
L 229.025889 287.034515 
L 229.708499 302.646498 
L 230.391108 338.446389 
L 231.073718 337.908045 
L 231.756327 300.493121 
L 232.438937 337.908045 
L 233.121547 250.157936 
L 233.804156 315.028415 
L 234.486766 326.064472 
L 235.169375 333.332119 
L 235.851985 324.718611 
L 236.534595 306.414907 
L 237.217204 318.796825 
L 237.899814 281.651073 
L 238.582423 322.02689 
L 239.265033 288.91872 
L 239.947643 327.14116 
L 240.630252 303.184842 
L 241.312862 323.641923 
L 241.995471 266.308263 
L 242.678081 309.106629 
L 243.360691 314.759243 
L 244.72591 256.618066 
L 245.408519 336.562184 
L 246.091129 351.904995 
L 246.773739 304.799875 
L 247.456348 325.526127 
L 248.138958 291.072097 
L 248.821567 315.566759 
L 249.504177 285.957827 
L 250.186787 305.338219 
L 250.869396 334.677979 
L 251.552006 279.766868 
L 252.234615 328.756193 
L 254.282444 303.454014 
L 254.965054 322.296062 
L 255.647663 291.879613 
L 256.330273 299.14726 
L 257.012883 304.530703 
L 257.695492 334.408807 
L 258.378102 332.793775 
L 259.060711 303.723186 
L 259.743321 295.648023 
L 260.425931 335.485496 
L 261.10854 285.957827 
L 261.79115 313.413382 
L 262.473759 316.105103 
L 263.156369 299.416432 
L 263.838979 266.308263 
L 265.204198 331.178742 
L 265.886807 323.103578 
L 266.569417 298.608916 
L 267.934636 330.102053 
L 268.617246 312.067522 
L 269.299855 316.91262 
L 269.982465 284.073622 
L 270.665075 317.720136 
L 271.347684 315.566759 
L 272.030294 315.028415 
L 272.712903 277.613491 
L 273.395513 307.222424 
L 274.078123 351.635822 
L 274.760732 301.838981 
L 275.443342 315.028415 
L 276.125951 302.377326 
L 276.808561 300.223949 
L 277.491171 305.607391 
L 278.17378 307.222424 
L 278.85639 331.178742 
L 279.538999 292.956302 
L 280.221609 295.917195 
L 280.904219 305.338219 
L 282.269438 301.300637 
L 282.952047 335.754668 
L 283.634657 304.261531 
L 284.317267 313.413382 
L 284.999876 337.100528 
L 285.682486 295.378851 
L 286.365095 330.640398 
L 287.047705 306.68408 
L 287.730315 301.300637 
L 288.412924 330.371225 
L 289.095534 311.260005 
L 289.778143 322.296062 
L 290.460753 281.112729 
L 291.143363 280.574385 
L 291.825972 305.338219 
L 292.508582 316.91262 
L 293.191192 317.989308 
L 293.873801 332.793775 
L 294.556411 307.222424 
L 295.23902 325.7953 
L 295.92163 302.646498 
L 296.60424 275.190942 
L 297.286849 351.904995 
L 297.969459 315.835931 
L 298.652068 316.91262 
L 299.334678 322.296062 
L 300.017288 310.183317 
L 300.699897 315.566759 
L 301.382507 324.987783 
L 302.065116 303.723186 
L 302.747726 200.899439 
L 303.430336 268.461639 
L 304.112945 277.882663 
L 304.795555 327.410332 
L 305.478164 322.834406 
L 306.160774 312.875038 
L 306.843384 229.970027 
L 307.525993 273.306737 
L 308.208603 286.226999 
L 308.891212 326.602816 
L 309.573822 299.954777 
L 310.256432 301.838981 
L 310.939041 324.987783 
L 311.621651 330.640398 
L 312.30426 330.90957 
L 312.98687 274.114254 
L 313.66948 289.726236 
L 315.034699 315.028415 
L 315.717308 345.714036 
L 316.399918 336.293012 
L 317.082528 226.47079 
L 317.765137 333.332119 
L 318.447747 337.3697 
L 319.130356 337.908045 
L 319.812966 299.14726 
L 321.178185 309.375801 
L 321.860795 310.721661 
L 322.543404 299.954777 
L 323.226014 300.762293 
L 323.908624 310.721661 
L 324.591233 285.419483 
L 325.273843 318.527653 
L 325.956452 295.648023 
L 326.639062 315.835931 
L 327.321672 315.297587 
L 328.004281 314.220899 
L 328.686891 316.643448 
L 329.3695 302.108154 
L 330.05211 340.868938 
L 330.73472 313.951727 
L 332.099939 336.562184 
L 332.782548 295.109679 
L 333.465158 300.223949 
L 334.147768 323.641923 
L 334.830377 324.987783 
L 335.512987 319.335169 
L 336.195596 293.763818 
L 336.878206 316.643448 
L 337.560816 323.103578 
L 338.243425 305.876563 
L 338.926035 294.840507 
L 339.608644 320.411857 
L 340.291254 320.142685 
L 340.973864 308.837456 
L 341.656473 319.604341 
L 342.339083 306.145735 
L 343.021692 320.411857 
L 343.704302 348.944101 
L 344.386912 329.294537 
L 345.069521 345.175692 
L 345.752131 345.444864 
L 346.43474 335.216324 
L 347.11735 336.02384 
L 347.79996 344.368175 
L 348.482569 344.90652 
L 349.165179 326.064472 
L 349.847788 332.793775 
L 350.530398 322.565234 
L 351.213008 326.333644 
L 351.895617 322.565234 
L 352.578227 329.025365 
L 353.260836 322.834406 
L 353.943446 328.487021 
L 354.626056 324.180267 
L 356.673884 341.407282 
L 357.356494 303.723186 
L 358.039104 345.175692 
L 358.721713 295.648023 
L 359.404323 316.105103 
L 360.086932 314.220899 
L 360.769542 338.177217 
L 361.452152 320.411857 
L 362.134761 285.15031 
L 362.817371 327.410332 
L 363.49998 309.644973 
L 364.18259 308.837456 
L 364.8652 279.497696 
L 365.547809 336.562184 
L 366.230419 322.834406 
L 366.913028 313.413382 
L 367.595638 331.717086 
L 368.278248 299.954777 
L 368.960857 320.411857 
L 369.643467 335.216324 
L 370.326076 327.679504 
L 371.008686 311.529178 
L 371.691296 314.220899 
L 372.373905 339.253905 
L 373.739124 297.263056 
L 374.421734 322.296062 
L 375.104344 304.261531 
L 375.786953 323.372751 
L 376.469563 309.106629 
L 377.152172 312.875038 
L 377.834782 297.263056 
L 378.517392 329.294537 
L 379.882611 297.8014 
L 380.56522 330.371225 
L 381.24783 288.111204 
L 381.93044 276.805975 
L 382.613049 312.875038 
L 383.295659 298.070572 
L 383.978268 268.192467 
L 386.026097 351.904995 
L 386.708707 300.493121 
L 387.391316 299.685605 
L 388.073926 274.114254 
L 388.756536 298.339744 
L 389.439145 295.917195 
L 390.121755 251.772968 
L 390.804364 313.14421 
L 391.486974 292.417958 
L 392.169584 329.563709 
L 392.852193 333.062947 
L 393.534803 289.187892 
L 394.217412 263.885714 
L 394.900022 307.222424 
L 395.582632 281.920245 
L 396.265241 307.760768 
L 396.947851 319.065997 
L 397.63046 324.449439 
L 398.31307 318.527653 
L 398.99568 309.644973 
L 400.360899 334.947151 
L 401.043508 320.411857 
L 401.726118 332.25543 
L 402.408728 320.681029 
L 403.091337 299.954777 
L 403.773947 320.681029 
L 404.456556 334.947151 
L 405.139166 321.757718 
L 405.821776 322.834406 
L 406.504385 290.802925 
L 407.186995 321.757718 
L 407.869604 313.413382 
L 408.552214 338.446389 
L 409.234824 334.139635 
L 409.917433 298.339744 
L 410.600043 303.992358 
L 411.282652 334.408807 
L 411.965262 317.720136 
L 412.647872 307.491596 
L 413.330481 295.109679 
L 414.013091 329.563709 
L 414.6957 325.526127 
L 415.37831 291.341269 
L 416.06092 326.871988 
L 416.743529 340.868938 
L 417.426139 324.987783 
L 418.108748 298.608916 
L 418.791358 335.485496 
L 419.473968 323.103578 
L 420.156577 312.875038 
L 420.839187 299.954777 
L 421.521796 319.065997 
L 422.204406 330.640398 
L 422.887016 314.759243 
L 423.569625 327.410332 
L 424.252235 318.527653 
L 424.934844 329.025365 
L 425.617454 326.333644 
L 426.300064 315.566759 
L 426.982673 338.984733 
L 427.665283 320.950202 
L 428.347892 351.904995 
L 429.030502 296.724711 
L 430.395721 338.715561 
L 431.078331 322.296062 
L 431.76094 318.796825 
L 432.44355 289.995408 
L 433.12616 289.187892 
L 433.808769 316.374276 
L 434.491379 326.602816 
L 435.173988 318.25848 
L 435.856598 308.02994 
L 437.904427 328.487021 
L 438.587036 320.411857 
L 439.269646 329.025365 
L 439.952256 303.454014 
L 440.634865 337.100528 
L 441.317475 332.524602 
L 442.000084 322.02689 
L 442.682694 313.413382 
L 443.365304 307.760768 
L 444.047913 314.759243 
L 444.730523 331.178742 
L 445.413132 296.724711 
L 446.095742 295.648023 
L 446.778352 328.487021 
L 447.460961 336.831356 
L 448.143571 326.064472 
L 448.82618 330.102053 
L 449.50879 322.02689 
L 450.1914 323.911095 
L 450.874009 331.447914 
L 451.556619 308.837456 
L 452.239228 341.13811 
L 452.921838 330.90957 
L 453.604448 332.524602 
L 454.287057 334.677979 
L 454.969667 333.062947 
L 455.652276 336.831356 
L 456.334886 351.904995 
L 457.017496 334.139635 
L 457.700105 329.294537 
L 458.382715 343.560659 
L 459.065324 336.831356 
L 459.747934 324.449439 
L 460.430544 335.754668 
L 461.113153 332.793775 
L 461.795763 340.599766 
L 462.478372 338.984733 
L 463.160982 343.829831 
L 463.843592 338.715561 
L 464.526201 325.7953 
L 465.208811 327.948676 
L 465.89142 326.871988 
L 466.57403 320.411857 
L 467.25664 335.485496 
L 467.939249 344.637347 
L 468.621859 329.294537 
L 469.304468 332.25543 
L 469.987078 341.13811 
L 470.669688 326.064472 
L 471.352297 343.829831 
L 472.034907 345.175692 
L 472.717516 345.714036 
L 473.400126 343.022315 
L 474.082736 323.641923 
L 474.765345 328.217849 
L 475.447955 327.14116 
L 476.130564 308.299112 
L 476.813174 313.413382 
L 477.495784 320.950202 
L 478.178393 323.103578 
L 478.861003 329.025365 
L 479.543612 299.14726 
L 480.226222 331.447914 
L 480.908832 329.294537 
L 481.591441 334.408807 
L 482.274051 291.879613 
L 482.95666 328.756193 
L 483.63927 326.602816 
L 484.32188 351.904995 
L 485.004489 310.721661 
L 485.687099 327.948676 
L 486.369708 299.954777 
L 487.052318 309.644973 
L 487.734928 334.139635 
L 488.417537 336.831356 
L 489.100147 340.868938 
L 489.782756 325.526127 
L 490.465366 326.602816 
L 491.147976 323.641923 
L 491.830585 326.333644 
L 492.513195 317.450964 
L 493.195804 303.723186 
L 493.878414 318.527653 
L 494.561024 316.374276 
L 495.243633 324.718611 
L 495.926243 323.372751 
L 496.608852 316.374276 
L 497.291462 337.3697 
L 497.974072 294.03299 
L 498.656681 343.560659 
L 499.339291 295.648023 
L 500.0219 297.532228 
L 500.70451 312.067522 
L 501.38712 289.187892 
L 502.069729 335.216324 
L 502.752339 313.682554 
L 503.434948 331.717086 
L 504.117558 312.605866 
L 504.800168 318.796825 
L 505.482777 316.91262 
L 506.165387 317.720136 
L 506.847996 300.762293 
L 507.530606 323.372751 
L 508.213216 291.879613 
L 508.895825 334.947151 
L 509.578435 295.917195 
L 510.261044 318.25848 
L 510.943654 301.838981 
L 511.626264 298.608916 
L 512.308873 296.724711 
L 512.991483 324.987783 
L 514.356702 298.070572 
L 515.039312 336.293012 
L 515.721921 311.529178 
L 516.404531 319.335169 
L 517.08714 315.835931 
L 517.76975 301.838981 
L 518.45236 301.300637 
L 519.134969 295.109679 
L 519.817579 305.069047 
L 520.500188 280.03604 
L 521.182798 333.870463 
L 521.865408 302.91567 
L 522.548017 307.760768 
L 522.548017 307.760768 
" style="fill:none;stroke:#d62728;stroke-linecap:square;stroke-width:1.5;"/>
   </g>
   <g id="patch_3">
    <path d="M 130.36375 352.174167 
L 130.36375 35.0625 
" style="fill:none;stroke:#000000;stroke-linecap:square;stroke-linejoin:miter;stroke-width:0.8;"/>
   </g>
   <g id="patch_4">
    <path d="M 544.073906 352.174167 
L 544.073906 35.0625 
" style="fill:none;stroke:#000000;stroke-linecap:square;stroke-linejoin:miter;stroke-width:0.8;"/>
   </g>
   <g id="patch_5">
    <path d="M 130.36375 352.174167 
L 544.073906 352.174167 
" style="fill:none;stroke:#000000;stroke-linecap:square;stroke-linejoin:miter;stroke-width:0.8;"/>
   </g>
   <g id="patch_6">
    <path d="M 130.36375 35.0625 
L 544.073906 35.0625 
" style="fill:none;stroke:#000000;stroke-linecap:square;stroke-linejoin:miter;stroke-width:0.8;"/>
   </g>
   <g id="legend_1">
    <g id="patch_7">
     <path d="M 566.759414 96.775 
L 628.292227 96.775 
Q 630.292227 96.775 630.292227 94.775 
L 630.292227 37.0625 
Q 630.292227 35.0625 628.292227 35.0625 
L 566.759414 35.0625 
Q 564.759414 35.0625 564.759414 37.0625 
L 564.759414 94.775 
Q 564.759414 96.775 566.759414 96.775 
z
" style="fill:#ffffff;opacity:0.8;stroke:#cccccc;stroke-linejoin:miter;"/>
    </g>
    <g id="line2d_20">
     <path d="M 568.759414 43.160937 
L 588.759414 43.160937 
" style="fill:none;stroke:#1f77b4;stroke-linecap:square;stroke-width:1.5;"/>
    </g>
    <g id="line2d_21"/>
    <g id="text_17">
     <!-- bbr-pi -->
     <defs>
      <path d="M 41.109375 46.296875 
Q 39.59375 47.171875 37.8125 47.578125 
Q 36.03125 48 33.890625 48 
Q 26.265625 48 22.1875 43.046875 
Q 18.109375 38.09375 18.109375 28.8125 
L 18.109375 0 
L 9.078125 0 
L 9.078125 54.6875 
L 18.109375 54.6875 
L 18.109375 46.1875 
Q 20.953125 51.171875 25.484375 53.578125 
Q 30.03125 56 36.53125 56 
Q 37.453125 56 38.578125 55.875 
Q 39.703125 55.765625 41.0625 55.515625 
z
" id="DejaVuSans-114"/>
      <path d="M 4.890625 31.390625 
L 31.203125 31.390625 
L 31.203125 23.390625 
L 4.890625 23.390625 
z
" id="DejaVuSans-45"/>
      <path d="M 18.109375 8.203125 
L 18.109375 -20.796875 
L 9.078125 -20.796875 
L 9.078125 54.6875 
L 18.109375 54.6875 
L 18.109375 46.390625 
Q 20.953125 51.265625 25.265625 53.625 
Q 29.59375 56 35.59375 56 
Q 45.5625 56 51.78125 48.09375 
Q 58.015625 40.1875 58.015625 27.296875 
Q 58.015625 14.40625 51.78125 6.484375 
Q 45.5625 -1.421875 35.59375 -1.421875 
Q 29.59375 -1.421875 25.265625 0.953125 
Q 20.953125 3.328125 18.109375 8.203125 
z
M 48.6875 27.296875 
Q 48.6875 37.203125 44.609375 42.84375 
Q 40.53125 48.484375 33.40625 48.484375 
Q 26.265625 48.484375 22.1875 42.84375 
Q 18.109375 37.203125 18.109375 27.296875 
Q 18.109375 17.390625 22.1875 11.75 
Q 26.265625 6.109375 33.40625 6.109375 
Q 40.53125 6.109375 44.609375 11.75 
Q 48.6875 17.390625 48.6875 27.296875 
z
" id="DejaVuSans-112"/>
     </defs>
     <g transform="translate(596.759414 46.660937)scale(0.1 -0.1)">
      <use xlink:href="#DejaVuSans-98"/>
      <use x="63.476562" xlink:href="#DejaVuSans-98"/>
      <use x="126.953125" xlink:href="#DejaVuSans-114"/>
      <use x="167.972656" xlink:href="#DejaVuSans-45"/>
      <use x="204.056641" xlink:href="#DejaVuSans-112"/>
      <use x="267.533203" xlink:href="#DejaVuSans-105"/>
     </g>
    </g>
    <g id="line2d_22">
     <path d="M 568.759414 57.839063 
L 588.759414 57.839063 
" style="fill:none;stroke:#ff7f0e;stroke-linecap:square;stroke-width:1.5;"/>
    </g>
    <g id="line2d_23"/>
    <g id="text_18">
     <!-- bbr-pi -->
     <g transform="translate(596.759414 61.339063)scale(0.1 -0.1)">
      <use xlink:href="#DejaVuSans-98"/>
      <use x="63.476562" xlink:href="#DejaVuSans-98"/>
      <use x="126.953125" xlink:href="#DejaVuSans-114"/>
      <use x="167.972656" xlink:href="#DejaVuSans-45"/>
      <use x="204.056641" xlink:href="#DejaVuSans-112"/>
      <use x="267.533203" xlink:href="#DejaVuSans-105"/>
     </g>
    </g>
    <g id="line2d_24">
     <path d="M 568.759414 72.517187 
L 588.759414 72.517187 
" style="fill:none;stroke:#2ca02c;stroke-linecap:square;stroke-width:1.5;"/>
    </g>
    <g id="line2d_25"/>
    <g id="text_19">
     <!-- bbr-pi -->
     <g transform="translate(596.759414 76.017187)scale(0.1 -0.1)">
      <use xlink:href="#DejaVuSans-98"/>
      <use x="63.476562" xlink:href="#DejaVuSans-98"/>
      <use x="126.953125" xlink:href="#DejaVuSans-114"/>
      <use x="167.972656" xlink:href="#DejaVuSans-45"/>
      <use x="204.056641" xlink:href="#DejaVuSans-112"/>
      <use x="267.533203" xlink:href="#DejaVuSans-105"/>
     </g>
    </g>
    <g id="line2d_26">
     <path d="M 568.759414 87.195312 
L 588.759414 87.195312 
" style="fill:none;stroke:#d62728;stroke-linecap:square;stroke-width:1.5;"/>
    </g>
    <g id="line2d_27"/>
    <g id="text_20">
     <!-- bbr-pi -->
     <g transform="translate(596.759414 90.695312)scale(0.1 -0.1)">
      <use xlink:href="#DejaVuSans-98"/>
      <use x="63.476562" xlink:href="#DejaVuSans-98"/>
      <use x="126.953125" xlink:href="#DejaVuSans-114"/>
      <use x="167.972656" xlink:href="#DejaVuSans-45"/>
      <use x="204.056641" xlink:href="#DejaVuSans-112"/>
      <use x="267.533203" xlink:href="#DejaVuSans-105"/>
     </g>
    </g>
   </g>
  </g>
  <g id="text_21">
   <!-- result inflight -->
   <defs>
    <path d="M 8.5 21.578125 
L 8.5 54.6875 
L 17.484375 54.6875 
L 17.484375 21.921875 
Q 17.484375 14.15625 20.5 10.265625 
Q 23.53125 6.390625 29.59375 6.390625 
Q 36.859375 6.390625 41.078125 11.03125 
Q 45.3125 15.671875 45.3125 23.6875 
L 45.3125 54.6875 
L 54.296875 54.6875 
L 54.296875 0 
L 45.3125 0 
L 45.3125 8.40625 
Q 42.046875 3.421875 37.71875 1 
Q 33.40625 -1.421875 27.6875 -1.421875 
Q 18.265625 -1.421875 13.375 4.4375 
Q 8.5 10.296875 8.5 21.578125 
z
M 31.109375 56 
z
" id="DejaVuSans-117"/>
    <path id="DejaVuSans-32"/>
   </defs>
   <g transform="translate(302.110313 17.038125)scale(0.12 -0.12)">
    <use xlink:href="#DejaVuSans-114"/>
    <use x="41.082031" xlink:href="#DejaVuSans-101"/>
    <use x="102.605469" xlink:href="#DejaVuSans-115"/>
    <use x="154.705078" xlink:href="#DejaVuSans-117"/>
    <use x="218.083984" xlink:href="#DejaVuSans-108"/>
    <use x="245.867188" xlink:href="#DejaVuSans-116"/>
    <use x="285.076172" xlink:href="#DejaVuSans-32"/>
    <use x="316.863281" xlink:href="#DejaVuSans-105"/>
    <use x="344.646484" xlink:href="#DejaVuSans-110"/>
    <use x="408.025391" xlink:href="#DejaVuSans-102"/>
    <use x="443.230469" xlink:href="#DejaVuSans-108"/>
    <use x="471.013672" xlink:href="#DejaVuSans-105"/>
    <use x="498.796875" xlink:href="#DejaVuSans-103"/>
    <use x="562.273438" xlink:href="#DejaVuSans-104"/>
    <use x="625.652344" xlink:href="#DejaVuSans-116"/>
   </g>
  </g>
 </g>
 <defs>
  <clipPath id="p9a519afb48">
   <rect height="317.111667" width="413.710156" x="130.36375" y="35.0625"/>
  </clipPath>
 </defs>
</svg>
