<?xml version="1.0" encoding="utf-8" standalone="no"?>
<!DOCTYPE svg PUBLIC "-//W3C//DTD SVG 1.1//EN"
  "http://www.w3.org/Graphics/SVG/1.1/DTD/svg11.dtd">
<!-- Created with matplotlib (https://matplotlib.org/) -->
<svg height="396pt" version="1.1" viewBox="0 0 684 396" width="684pt" xmlns="http://www.w3.org/2000/svg" xmlns:xlink="http://www.w3.org/1999/xlink">
 <defs>
  <style type="text/css">
*{stroke-linecap:butt;stroke-linejoin:round;}
  </style>
 </defs>
 <g id="figure_1">
  <g id="patch_1">
   <path d="M 0 396 
L 684 396 
L 684 0 
L 0 0 
z
" style="fill:#ffffff;"/>
  </g>
  <g id="axes_1">
   <g id="patch_2">
    <path d="M 66.158594 352.174167 
L 516.019219 352.174167 
L 516.019219 35.0625 
L 66.158594 35.0625 
z
" style="fill:#ffffff;"/>
   </g>
   <g id="matplotlib.axis_1">
    <g id="xtick_1">
     <g id="line2d_1">
      <defs>
       <path d="M 0 0 
L 0 3.5 
" id="m2d8af5964c" style="stroke:#000000;stroke-width:0.8;"/>
      </defs>
      <g>
       <use style="stroke:#000000;stroke-width:0.8;" x="91.765539" xlink:href="#m2d8af5964c" y="352.174167"/>
      </g>
     </g>
     <g id="text_1">
      <!-- 0 -->
      <defs>
       <path d="M 31.78125 66.40625 
Q 24.171875 66.40625 20.328125 58.90625 
Q 16.5 51.421875 16.5 36.375 
Q 16.5 21.390625 20.328125 13.890625 
Q 24.171875 6.390625 31.78125 6.390625 
Q 39.453125 6.390625 43.28125 13.890625 
Q 47.125 21.390625 47.125 36.375 
Q 47.125 51.421875 43.28125 58.90625 
Q 39.453125 66.40625 31.78125 66.40625 
z
M 31.78125 74.21875 
Q 44.046875 74.21875 50.515625 64.515625 
Q 56.984375 54.828125 56.984375 36.375 
Q 56.984375 17.96875 50.515625 8.265625 
Q 44.046875 -1.421875 31.78125 -1.421875 
Q 19.53125 -1.421875 13.0625 8.265625 
Q 6.59375 17.96875 6.59375 36.375 
Q 6.59375 54.828125 13.0625 64.515625 
Q 19.53125 74.21875 31.78125 74.21875 
z
" id="DejaVuSans-48"/>
      </defs>
      <g transform="translate(88.584289 366.772604)scale(0.1 -0.1)">
       <use xlink:href="#DejaVuSans-48"/>
      </g>
     </g>
    </g>
    <g id="xtick_2">
     <g id="line2d_2">
      <g>
       <use style="stroke:#000000;stroke-width:0.8;" x="163.094408" xlink:href="#m2d8af5964c" y="352.174167"/>
      </g>
     </g>
     <g id="text_2">
      <!-- 50 -->
      <defs>
       <path d="M 10.796875 72.90625 
L 49.515625 72.90625 
L 49.515625 64.59375 
L 19.828125 64.59375 
L 19.828125 46.734375 
Q 21.96875 47.46875 24.109375 47.828125 
Q 26.265625 48.1875 28.421875 48.1875 
Q 40.625 48.1875 47.75 41.5 
Q 54.890625 34.8125 54.890625 23.390625 
Q 54.890625 11.625 47.5625 5.09375 
Q 40.234375 -1.421875 26.90625 -1.421875 
Q 22.3125 -1.421875 17.546875 -0.640625 
Q 12.796875 0.140625 7.71875 1.703125 
L 7.71875 11.625 
Q 12.109375 9.234375 16.796875 8.0625 
Q 21.484375 6.890625 26.703125 6.890625 
Q 35.15625 6.890625 40.078125 11.328125 
Q 45.015625 15.765625 45.015625 23.390625 
Q 45.015625 31 40.078125 35.4375 
Q 35.15625 39.890625 26.703125 39.890625 
Q 22.75 39.890625 18.8125 39.015625 
Q 14.890625 38.140625 10.796875 36.28125 
z
" id="DejaVuSans-53"/>
      </defs>
      <g transform="translate(156.731908 366.772604)scale(0.1 -0.1)">
       <use xlink:href="#DejaVuSans-53"/>
       <use x="63.623047" xlink:href="#DejaVuSans-48"/>
      </g>
     </g>
    </g>
    <g id="xtick_3">
     <g id="line2d_3">
      <g>
       <use style="stroke:#000000;stroke-width:0.8;" x="234.423278" xlink:href="#m2d8af5964c" y="352.174167"/>
      </g>
     </g>
     <g id="text_3">
      <!-- 100 -->
      <defs>
       <path d="M 12.40625 8.296875 
L 28.515625 8.296875 
L 28.515625 63.921875 
L 10.984375 60.40625 
L 10.984375 69.390625 
L 28.421875 72.90625 
L 38.28125 72.90625 
L 38.28125 8.296875 
L 54.390625 8.296875 
L 54.390625 0 
L 12.40625 0 
z
" id="DejaVuSans-49"/>
      </defs>
      <g transform="translate(224.879528 366.772604)scale(0.1 -0.1)">
       <use xlink:href="#DejaVuSans-49"/>
       <use x="63.623047" xlink:href="#DejaVuSans-48"/>
       <use x="127.246094" xlink:href="#DejaVuSans-48"/>
      </g>
     </g>
    </g>
    <g id="xtick_4">
     <g id="line2d_4">
      <g>
       <use style="stroke:#000000;stroke-width:0.8;" x="305.752148" xlink:href="#m2d8af5964c" y="352.174167"/>
      </g>
     </g>
     <g id="text_4">
      <!-- 150 -->
      <g transform="translate(296.208398 366.772604)scale(0.1 -0.1)">
       <use xlink:href="#DejaVuSans-49"/>
       <use x="63.623047" xlink:href="#DejaVuSans-53"/>
       <use x="127.246094" xlink:href="#DejaVuSans-48"/>
      </g>
     </g>
    </g>
    <g id="xtick_5">
     <g id="line2d_5">
      <g>
       <use style="stroke:#000000;stroke-width:0.8;" x="377.081017" xlink:href="#m2d8af5964c" y="352.174167"/>
      </g>
     </g>
     <g id="text_5">
      <!-- 200 -->
      <defs>
       <path d="M 19.1875 8.296875 
L 53.609375 8.296875 
L 53.609375 0 
L 7.328125 0 
L 7.328125 8.296875 
Q 12.9375 14.109375 22.625 23.890625 
Q 32.328125 33.6875 34.8125 36.53125 
Q 39.546875 41.84375 41.421875 45.53125 
Q 43.3125 49.21875 43.3125 52.78125 
Q 43.3125 58.59375 39.234375 62.25 
Q 35.15625 65.921875 28.609375 65.921875 
Q 23.96875 65.921875 18.8125 64.3125 
Q 13.671875 62.703125 7.8125 59.421875 
L 7.8125 69.390625 
Q 13.765625 71.78125 18.9375 73 
Q 24.125 74.21875 28.421875 74.21875 
Q 39.75 74.21875 46.484375 68.546875 
Q 53.21875 62.890625 53.21875 53.421875 
Q 53.21875 48.921875 51.53125 44.890625 
Q 49.859375 40.875 45.40625 35.40625 
Q 44.1875 33.984375 37.640625 27.21875 
Q 31.109375 20.453125 19.1875 8.296875 
z
" id="DejaVuSans-50"/>
      </defs>
      <g transform="translate(367.537267 366.772604)scale(0.1 -0.1)">
       <use xlink:href="#DejaVuSans-50"/>
       <use x="63.623047" xlink:href="#DejaVuSans-48"/>
       <use x="127.246094" xlink:href="#DejaVuSans-48"/>
      </g>
     </g>
    </g>
    <g id="xtick_6">
     <g id="line2d_6">
      <g>
       <use style="stroke:#000000;stroke-width:0.8;" x="448.409887" xlink:href="#m2d8af5964c" y="352.174167"/>
      </g>
     </g>
     <g id="text_6">
      <!-- 250 -->
      <g transform="translate(438.866137 366.772604)scale(0.1 -0.1)">
       <use xlink:href="#DejaVuSans-50"/>
       <use x="63.623047" xlink:href="#DejaVuSans-53"/>
       <use x="127.246094" xlink:href="#DejaVuSans-48"/>
      </g>
     </g>
    </g>
   </g>
   <g id="matplotlib.axis_2">
    <g id="ytick_1">
     <g id="line2d_7">
      <defs>
       <path d="M 0 0 
L -3.5 0 
" id="m9a85e32797" style="stroke:#000000;stroke-width:0.8;"/>
      </defs>
      <g>
       <use style="stroke:#000000;stroke-width:0.8;" x="66.158594" xlink:href="#m9a85e32797" y="352.174167"/>
      </g>
     </g>
     <g id="text_7">
      <!-- 0 -->
      <g transform="translate(52.796094 355.973385)scale(0.1 -0.1)">
       <use xlink:href="#DejaVuSans-48"/>
      </g>
     </g>
    </g>
    <g id="ytick_2">
     <g id="line2d_8">
      <g>
       <use style="stroke:#000000;stroke-width:0.8;" x="66.158594" xlink:href="#m9a85e32797" y="312.097407"/>
      </g>
     </g>
     <g id="text_8">
      <!-- 10 -->
      <g transform="translate(46.433594 315.896626)scale(0.1 -0.1)">
       <use xlink:href="#DejaVuSans-49"/>
       <use x="63.623047" xlink:href="#DejaVuSans-48"/>
      </g>
     </g>
    </g>
    <g id="ytick_3">
     <g id="line2d_9">
      <g>
       <use style="stroke:#000000;stroke-width:0.8;" x="66.158594" xlink:href="#m9a85e32797" y="272.020647"/>
      </g>
     </g>
     <g id="text_9">
      <!-- 20 -->
      <g transform="translate(46.433594 275.819866)scale(0.1 -0.1)">
       <use xlink:href="#DejaVuSans-50"/>
       <use x="63.623047" xlink:href="#DejaVuSans-48"/>
      </g>
     </g>
    </g>
    <g id="ytick_4">
     <g id="line2d_10">
      <g>
       <use style="stroke:#000000;stroke-width:0.8;" x="66.158594" xlink:href="#m9a85e32797" y="231.943888"/>
      </g>
     </g>
     <g id="text_10">
      <!-- 30 -->
      <defs>
       <path d="M 40.578125 39.3125 
Q 47.65625 37.796875 51.625 33 
Q 55.609375 28.21875 55.609375 21.1875 
Q 55.609375 10.40625 48.1875 4.484375 
Q 40.765625 -1.421875 27.09375 -1.421875 
Q 22.515625 -1.421875 17.65625 -0.515625 
Q 12.796875 0.390625 7.625 2.203125 
L 7.625 11.71875 
Q 11.71875 9.328125 16.59375 8.109375 
Q 21.484375 6.890625 26.8125 6.890625 
Q 36.078125 6.890625 40.9375 10.546875 
Q 45.796875 14.203125 45.796875 21.1875 
Q 45.796875 27.640625 41.28125 31.265625 
Q 36.765625 34.90625 28.71875 34.90625 
L 20.21875 34.90625 
L 20.21875 43.015625 
L 29.109375 43.015625 
Q 36.375 43.015625 40.234375 45.921875 
Q 44.09375 48.828125 44.09375 54.296875 
Q 44.09375 59.90625 40.109375 62.90625 
Q 36.140625 65.921875 28.71875 65.921875 
Q 24.65625 65.921875 20.015625 65.03125 
Q 15.375 64.15625 9.8125 62.3125 
L 9.8125 71.09375 
Q 15.4375 72.65625 20.34375 73.4375 
Q 25.25 74.21875 29.59375 74.21875 
Q 40.828125 74.21875 47.359375 69.109375 
Q 53.90625 64.015625 53.90625 55.328125 
Q 53.90625 49.265625 50.4375 45.09375 
Q 46.96875 40.921875 40.578125 39.3125 
z
" id="DejaVuSans-51"/>
      </defs>
      <g transform="translate(46.433594 235.743107)scale(0.1 -0.1)">
       <use xlink:href="#DejaVuSans-51"/>
       <use x="63.623047" xlink:href="#DejaVuSans-48"/>
      </g>
     </g>
    </g>
    <g id="ytick_5">
     <g id="line2d_11">
      <g>
       <use style="stroke:#000000;stroke-width:0.8;" x="66.158594" xlink:href="#m9a85e32797" y="191.867128"/>
      </g>
     </g>
     <g id="text_11">
      <!-- 40 -->
      <defs>
       <path d="M 37.796875 64.3125 
L 12.890625 25.390625 
L 37.796875 25.390625 
z
M 35.203125 72.90625 
L 47.609375 72.90625 
L 47.609375 25.390625 
L 58.015625 25.390625 
L 58.015625 17.1875 
L 47.609375 17.1875 
L 47.609375 0 
L 37.796875 0 
L 37.796875 17.1875 
L 4.890625 17.1875 
L 4.890625 26.703125 
z
" id="DejaVuSans-52"/>
      </defs>
      <g transform="translate(46.433594 195.666347)scale(0.1 -0.1)">
       <use xlink:href="#DejaVuSans-52"/>
       <use x="63.623047" xlink:href="#DejaVuSans-48"/>
      </g>
     </g>
    </g>
    <g id="ytick_6">
     <g id="line2d_12">
      <g>
       <use style="stroke:#000000;stroke-width:0.8;" x="66.158594" xlink:href="#m9a85e32797" y="151.790369"/>
      </g>
     </g>
     <g id="text_12">
      <!-- 50 -->
      <g transform="translate(46.433594 155.589587)scale(0.1 -0.1)">
       <use xlink:href="#DejaVuSans-53"/>
       <use x="63.623047" xlink:href="#DejaVuSans-48"/>
      </g>
     </g>
    </g>
    <g id="ytick_7">
     <g id="line2d_13">
      <g>
       <use style="stroke:#000000;stroke-width:0.8;" x="66.158594" xlink:href="#m9a85e32797" y="111.713609"/>
      </g>
     </g>
     <g id="text_13">
      <!-- 60 -->
      <defs>
       <path d="M 33.015625 40.375 
Q 26.375 40.375 22.484375 35.828125 
Q 18.609375 31.296875 18.609375 23.390625 
Q 18.609375 15.53125 22.484375 10.953125 
Q 26.375 6.390625 33.015625 6.390625 
Q 39.65625 6.390625 43.53125 10.953125 
Q 47.40625 15.53125 47.40625 23.390625 
Q 47.40625 31.296875 43.53125 35.828125 
Q 39.65625 40.375 33.015625 40.375 
z
M 52.59375 71.296875 
L 52.59375 62.3125 
Q 48.875 64.0625 45.09375 64.984375 
Q 41.3125 65.921875 37.59375 65.921875 
Q 27.828125 65.921875 22.671875 59.328125 
Q 17.53125 52.734375 16.796875 39.40625 
Q 19.671875 43.65625 24.015625 45.921875 
Q 28.375 48.1875 33.59375 48.1875 
Q 44.578125 48.1875 50.953125 41.515625 
Q 57.328125 34.859375 57.328125 23.390625 
Q 57.328125 12.15625 50.6875 5.359375 
Q 44.046875 -1.421875 33.015625 -1.421875 
Q 20.359375 -1.421875 13.671875 8.265625 
Q 6.984375 17.96875 6.984375 36.375 
Q 6.984375 53.65625 15.1875 63.9375 
Q 23.390625 74.21875 37.203125 74.21875 
Q 40.921875 74.21875 44.703125 73.484375 
Q 48.484375 72.75 52.59375 71.296875 
z
" id="DejaVuSans-54"/>
      </defs>
      <g transform="translate(46.433594 115.512828)scale(0.1 -0.1)">
       <use xlink:href="#DejaVuSans-54"/>
       <use x="63.623047" xlink:href="#DejaVuSans-48"/>
      </g>
     </g>
    </g>
    <g id="ytick_8">
     <g id="line2d_14">
      <g>
       <use style="stroke:#000000;stroke-width:0.8;" x="66.158594" xlink:href="#m9a85e32797" y="71.636849"/>
      </g>
     </g>
     <g id="text_14">
      <!-- 70 -->
      <defs>
       <path d="M 8.203125 72.90625 
L 55.078125 72.90625 
L 55.078125 68.703125 
L 28.609375 0 
L 18.3125 0 
L 43.21875 64.59375 
L 8.203125 64.59375 
z
" id="DejaVuSans-55"/>
      </defs>
      <g transform="translate(46.433594 75.436068)scale(0.1 -0.1)">
       <use xlink:href="#DejaVuSans-55"/>
       <use x="63.623047" xlink:href="#DejaVuSans-48"/>
      </g>
     </g>
    </g>
    <g id="text_15">
     <!-- droprate -->
     <defs>
      <path d="M 45.40625 46.390625 
L 45.40625 75.984375 
L 54.390625 75.984375 
L 54.390625 0 
L 45.40625 0 
L 45.40625 8.203125 
Q 42.578125 3.328125 38.25 0.953125 
Q 33.9375 -1.421875 27.875 -1.421875 
Q 17.96875 -1.421875 11.734375 6.484375 
Q 5.515625 14.40625 5.515625 27.296875 
Q 5.515625 40.1875 11.734375 48.09375 
Q 17.96875 56 27.875 56 
Q 33.9375 56 38.25 53.625 
Q 42.578125 51.265625 45.40625 46.390625 
z
M 14.796875 27.296875 
Q 14.796875 17.390625 18.875 11.75 
Q 22.953125 6.109375 30.078125 6.109375 
Q 37.203125 6.109375 41.296875 11.75 
Q 45.40625 17.390625 45.40625 27.296875 
Q 45.40625 37.203125 41.296875 42.84375 
Q 37.203125 48.484375 30.078125 48.484375 
Q 22.953125 48.484375 18.875 42.84375 
Q 14.796875 37.203125 14.796875 27.296875 
z
" id="DejaVuSans-100"/>
      <path d="M 41.109375 46.296875 
Q 39.59375 47.171875 37.8125 47.578125 
Q 36.03125 48 33.890625 48 
Q 26.265625 48 22.1875 43.046875 
Q 18.109375 38.09375 18.109375 28.8125 
L 18.109375 0 
L 9.078125 0 
L 9.078125 54.6875 
L 18.109375 54.6875 
L 18.109375 46.1875 
Q 20.953125 51.171875 25.484375 53.578125 
Q 30.03125 56 36.53125 56 
Q 37.453125 56 38.578125 55.875 
Q 39.703125 55.765625 41.0625 55.515625 
z
" id="DejaVuSans-114"/>
      <path d="M 30.609375 48.390625 
Q 23.390625 48.390625 19.1875 42.75 
Q 14.984375 37.109375 14.984375 27.296875 
Q 14.984375 17.484375 19.15625 11.84375 
Q 23.34375 6.203125 30.609375 6.203125 
Q 37.796875 6.203125 41.984375 11.859375 
Q 46.1875 17.53125 46.1875 27.296875 
Q 46.1875 37.015625 41.984375 42.703125 
Q 37.796875 48.390625 30.609375 48.390625 
z
M 30.609375 56 
Q 42.328125 56 49.015625 48.375 
Q 55.71875 40.765625 55.71875 27.296875 
Q 55.71875 13.875 49.015625 6.21875 
Q 42.328125 -1.421875 30.609375 -1.421875 
Q 18.84375 -1.421875 12.171875 6.21875 
Q 5.515625 13.875 5.515625 27.296875 
Q 5.515625 40.765625 12.171875 48.375 
Q 18.84375 56 30.609375 56 
z
" id="DejaVuSans-111"/>
      <path d="M 18.109375 8.203125 
L 18.109375 -20.796875 
L 9.078125 -20.796875 
L 9.078125 54.6875 
L 18.109375 54.6875 
L 18.109375 46.390625 
Q 20.953125 51.265625 25.265625 53.625 
Q 29.59375 56 35.59375 56 
Q 45.5625 56 51.78125 48.09375 
Q 58.015625 40.1875 58.015625 27.296875 
Q 58.015625 14.40625 51.78125 6.484375 
Q 45.5625 -1.421875 35.59375 -1.421875 
Q 29.59375 -1.421875 25.265625 0.953125 
Q 20.953125 3.328125 18.109375 8.203125 
z
M 48.6875 27.296875 
Q 48.6875 37.203125 44.609375 42.84375 
Q 40.53125 48.484375 33.40625 48.484375 
Q 26.265625 48.484375 22.1875 42.84375 
Q 18.109375 37.203125 18.109375 27.296875 
Q 18.109375 17.390625 22.1875 11.75 
Q 26.265625 6.109375 33.40625 6.109375 
Q 40.53125 6.109375 44.609375 11.75 
Q 48.6875 17.390625 48.6875 27.296875 
z
" id="DejaVuSans-112"/>
      <path d="M 34.28125 27.484375 
Q 23.390625 27.484375 19.1875 25 
Q 14.984375 22.515625 14.984375 16.5 
Q 14.984375 11.71875 18.140625 8.90625 
Q 21.296875 6.109375 26.703125 6.109375 
Q 34.1875 6.109375 38.703125 11.40625 
Q 43.21875 16.703125 43.21875 25.484375 
L 43.21875 27.484375 
z
M 52.203125 31.203125 
L 52.203125 0 
L 43.21875 0 
L 43.21875 8.296875 
Q 40.140625 3.328125 35.546875 0.953125 
Q 30.953125 -1.421875 24.3125 -1.421875 
Q 15.921875 -1.421875 10.953125 3.296875 
Q 6 8.015625 6 15.921875 
Q 6 25.140625 12.171875 29.828125 
Q 18.359375 34.515625 30.609375 34.515625 
L 43.21875 34.515625 
L 43.21875 35.40625 
Q 43.21875 41.609375 39.140625 45 
Q 35.0625 48.390625 27.6875 48.390625 
Q 23 48.390625 18.546875 47.265625 
Q 14.109375 46.140625 10.015625 43.890625 
L 10.015625 52.203125 
Q 14.9375 54.109375 19.578125 55.046875 
Q 24.21875 56 28.609375 56 
Q 40.484375 56 46.34375 49.84375 
Q 52.203125 43.703125 52.203125 31.203125 
z
" id="DejaVuSans-97"/>
      <path d="M 18.3125 70.21875 
L 18.3125 54.6875 
L 36.8125 54.6875 
L 36.8125 47.703125 
L 18.3125 47.703125 
L 18.3125 18.015625 
Q 18.3125 11.328125 20.140625 9.421875 
Q 21.96875 7.515625 27.59375 7.515625 
L 36.8125 7.515625 
L 36.8125 0 
L 27.59375 0 
Q 17.1875 0 13.234375 3.875 
Q 9.28125 7.765625 9.28125 18.015625 
L 9.28125 47.703125 
L 2.6875 47.703125 
L 2.6875 54.6875 
L 9.28125 54.6875 
L 9.28125 70.21875 
z
" id="DejaVuSans-116"/>
      <path d="M 56.203125 29.59375 
L 56.203125 25.203125 
L 14.890625 25.203125 
Q 15.484375 15.921875 20.484375 11.0625 
Q 25.484375 6.203125 34.421875 6.203125 
Q 39.59375 6.203125 44.453125 7.46875 
Q 49.3125 8.734375 54.109375 11.28125 
L 54.109375 2.78125 
Q 49.265625 0.734375 44.1875 -0.34375 
Q 39.109375 -1.421875 33.890625 -1.421875 
Q 20.796875 -1.421875 13.15625 6.1875 
Q 5.515625 13.8125 5.515625 26.8125 
Q 5.515625 40.234375 12.765625 48.109375 
Q 20.015625 56 32.328125 56 
Q 43.359375 56 49.78125 48.890625 
Q 56.203125 41.796875 56.203125 29.59375 
z
M 47.21875 32.234375 
Q 47.125 39.59375 43.09375 43.984375 
Q 39.0625 48.390625 32.421875 48.390625 
Q 24.90625 48.390625 20.390625 44.140625 
Q 15.875 39.890625 15.1875 32.171875 
z
" id="DejaVuSans-101"/>
     </defs>
     <g transform="translate(40.353906 215.236302)rotate(-90)scale(0.1 -0.1)">
      <use xlink:href="#DejaVuSans-100"/>
      <use x="63.476562" xlink:href="#DejaVuSans-114"/>
      <use x="104.558594" xlink:href="#DejaVuSans-111"/>
      <use x="165.740234" xlink:href="#DejaVuSans-112"/>
      <use x="229.216797" xlink:href="#DejaVuSans-114"/>
      <use x="270.330078" xlink:href="#DejaVuSans-97"/>
      <use x="331.609375" xlink:href="#DejaVuSans-116"/>
      <use x="370.818359" xlink:href="#DejaVuSans-101"/>
     </g>
    </g>
   </g>
   <g id="line2d_15">
    <path clip-path="url(#p00aac0f86a)" d="M 86.606804 352.174167 
L 91.194676 352.174167 
L 91.349721 314.465181 
L 91.50067 137.436228 
L 91.807765 352.174167 
L 94.101535 352.174167 
L 94.554268 50.163056 
L 94.858091 352.174167 
L 95.008162 321.612033 
L 95.309189 338.98725 
L 95.461579 346.481445 
L 95.615256 316.048637 
L 95.765618 325.226989 
L 95.916057 315.897789 
L 96.217115 321.12474 
L 96.369106 319.109415 
L 96.522351 313.116308 
L 96.67435 314.087033 
L 96.828665 323.587947 
L 97.130669 276.166519 
L 97.281606 259.86575 
L 97.431896 262.346947 
L 97.731833 210.896381 
L 98.032459 346.991827 
L 98.182859 314.224868 
L 98.332902 241.617588 
L 98.483071 257.468279 
L 98.633379 236.435249 
L 98.934487 291.312612 
L 99.085279 305.666752 
L 99.236289 300.499262 
L 99.537947 302.293221 
L 99.691927 332.473512 
L 99.996657 282.3261 
L 100.2994 231.371363 
L 100.4503 316.053482 
L 100.601219 236.524089 
L 100.75207 283.274293 
L 100.902815 282.700128 
L 101.053645 293.035109 
L 101.204182 286.719287 
L 101.505421 310.834243 
L 101.956747 324.080301 
L 102.107799 324.653645 
L 102.258611 328.059211 
L 102.560214 271.790981 
L 102.711186 281.079486 
L 102.862183 279.359453 
L 103.464312 324.732163 
L 103.615365 324.080301 
L 103.766438 320.640236 
L 103.917272 329.240399 
L 104.220342 286.707869 
L 104.373194 281.417176 
L 104.526063 286.511679 
L 104.678758 283.584522 
L 104.830423 286.999408 
L 104.982742 309.599705 
L 105.133105 299.19914 
L 105.283587 300.499262 
L 105.434298 310.139634 
L 105.590123 352.174167 
L 106.045275 352.174167 
L 106.346857 214.176716 
L 106.498003 237.505327 
L 106.648899 211.503592 
L 106.799147 324.495254 
L 106.953003 322.863456 
L 107.103656 332.135787 
L 107.254275 329.749581 
L 107.4058 340.202446 
L 107.556709 338.968358 
L 107.860434 301.146533 
L 108.01124 321.21358 
L 108.162043 321.169224 
L 108.312841 319.446727 
L 108.614546 299.4265 
L 108.765203 310.199942 
L 108.916114 298.279812 
L 109.067048 330.960431 
L 109.218497 307.009202 
L 109.369775 310.439453 
L 109.520999 306.944681 
L 109.672207 311.524882 
L 109.974764 349.319697 
L 110.125798 311.466728 
L 110.276435 310.774931 
L 110.432369 333.24903 
L 110.584735 314.140981 
L 110.736777 343.091615 
L 110.886558 328.531762 
L 111.036119 302.367789 
L 111.187154 307.453319 
L 111.337445 306.684741 
L 111.639445 317.773515 
L 111.790715 314.333449 
L 111.943249 341.956296 
L 112.094137 322.933612 
L 112.2444 345.840196 
L 112.544649 313.018712 
L 112.695146 330.293177 
L 112.996938 300.646904 
L 113.146914 323.383391 
L 113.29715 307.772577 
L 113.448857 311.640692 
L 113.600856 302.078217 
L 113.751912 306.306631 
L 114.056018 289.908015 
L 114.209035 319.954487 
L 114.359416 302.72508 
L 114.509959 326.838284 
L 115.110979 267.407495 
L 115.260969 301.933848 
L 115.410974 274.215052 
L 115.561306 317.099815 
L 115.711426 299.122917 
L 116.016307 340.707283 
L 116.166951 313.074889 
L 116.468976 347.574252 
L 116.61943 299.122917 
L 116.772631 328.965874 
L 116.922618 307.963415 
L 117.073503 327.989915 
L 117.225355 300.296711 
L 117.376449 311.011161 
L 117.527402 305.799631 
L 117.678547 292.54637 
L 117.829605 316.677608 
L 117.980625 304.586598 
L 118.131485 326.410535 
L 118.282136 324.040052 
L 118.434971 337.41502 
L 118.587692 302.857645 
L 118.741018 303.562018 
L 118.895243 317.373619 
L 119.049315 294.360354 
L 119.351161 300.573189 
L 119.501981 297.550176 
L 119.652775 304.013254 
L 119.803587 290.252993 
L 119.954456 345.858345 
L 120.108379 352.174167 
L 120.266535 352.174167 
L 120.418363 307.959354 
L 120.71841 158.998419 
L 120.868389 123.494097 
L 121.018231 188.171289 
L 121.168141 338.892243 
L 121.321607 327.833762 
L 121.625092 336.09753 
L 121.776061 326.373678 
L 122.080753 350.459041 
L 122.230796 338.873078 
L 122.380753 345.264381 
L 122.68303 323.588746 
L 122.834088 334.998413 
L 123.136407 303.37009 
L 123.287267 309.173352 
L 123.438198 307.453319 
L 123.589103 308.026663 
L 123.739936 305.092587 
L 123.890804 309.111746 
L 124.041602 302.293221 
L 124.191593 301.356373 
L 124.342207 291.137722 
L 124.49235 317.674804 
L 124.643195 309.685911 
L 124.793996 317.72423 
L 124.946329 312.838514 
L 125.097165 335.022914 
L 125.247989 313.130905 
L 125.398759 330.355873 
L 125.549668 294.18344 
L 125.850914 336.051332 
L 126.001091 339.487998 
L 126.151551 323.959207 
L 126.302571 347.593966 
L 126.604518 284.043675 
L 126.756024 308.724327 
L 126.906914 293.119714 
L 127.05803 316.677608 
L 127.208384 311.867081 
L 127.359615 330.990737 
L 127.51052 315.427568 
L 127.666594 265.581722 
L 127.817491 277.745899 
L 127.96827 273.513478 
L 128.118536 275.590704 
L 128.269195 319.928498 
L 128.420209 326.983061 
L 128.72124 343.536934 
L 128.872147 350.454134 
L 129.022947 330.930039 
L 129.176233 338.607986 
L 129.327029 327.520366 
L 129.477933 338.98725 
L 129.779653 343.000659 
L 129.930639 343.574004 
L 130.081065 318.776867 
L 130.230936 323.300421 
L 130.381905 298.853156 
L 130.532776 299.925096 
L 130.684851 308.909483 
L 130.837039 302.149275 
L 130.988221 317.822658 
L 131.139085 320.066891 
L 131.290009 346.440725 
L 131.440801 320.020892 
L 131.591293 331.474549 
L 131.7423 298.279812 
L 132.04429 319.540234 
L 132.195012 297.628434 
L 132.345824 336.671695 
L 132.496511 340.690854 
L 132.647228 326.91088 
L 132.797329 284.706816 
L 132.948185 292.460943 
L 133.10097 268.728222 
L 133.252162 275.56524 
L 133.402849 293.035109 
L 133.552957 280.670308 
L 134.002686 329.652645 
L 134.152732 329.07517 
L 134.302852 326.76527 
L 134.458386 352.174167 
L 134.763818 352.174167 
L 134.919797 329.878334 
L 135.231195 241.713292 
L 135.388998 258.29573 
L 135.54043 237.017617 
L 135.690685 318.872561 
L 135.841141 339.506225 
L 135.992012 328.059211 
L 136.142385 352.174167 
L 136.292479 318.152169 
L 136.443544 310.834243 
L 136.59443 291.399681 
L 136.745457 289.679649 
L 136.896955 281.854032 
L 137.04753 296.975186 
L 137.198476 288.53296 
L 137.348788 294.592616 
L 137.507047 294.450439 
L 137.661644 307.520396 
L 137.812867 335.641791 
L 138.115955 319.109415 
L 138.421897 336.501691 
L 138.576113 316.251021 
L 138.727656 318.066286 
L 138.877809 303.159425 
L 139.027741 335.427394 
L 139.178804 329.273161 
L 139.329694 349.303339 
L 139.480602 316.053482 
L 139.631568 319.493547 
L 139.782518 338.413906 
L 140.084089 311.982574 
L 140.234399 324.45537 
L 140.536712 316.879293 
L 140.68853 333.361463 
L 140.992003 325.950398 
L 141.147425 331.464109 
L 141.298158 324.120435 
L 141.599612 334.899701 
L 141.749845 348.714303 
L 141.900861 339.578614 
L 142.054941 304.262429 
L 142.205879 315.584828 
L 142.357468 317.822658 
L 142.509249 336.781955 
L 142.662871 296.371084 
L 142.813847 323.017038 
L 142.967713 306.452793 
L 143.125757 329.084676 
L 143.276761 320.864198 
L 143.428402 339.578614 
L 143.579653 320.730204 
L 143.730424 338.98725 
L 143.88157 300.646904 
L 144.032807 341.296189 
L 144.33513 319.493547 
L 144.486351 326.447288 
L 144.78965 309.357116 
L 144.940637 334.425887 
L 145.091387 314.853402 
L 145.242197 324.040052 
L 145.392232 281.722226 
L 145.694181 334.400496 
L 145.845804 325.87558 
L 145.996836 328.700636 
L 146.149256 320.90861 
L 146.300614 330.449247 
L 146.452031 325.913042 
L 146.602832 305.092587 
L 146.753663 299.925096 
L 146.904819 329.240399 
L 147.056163 303.077282 
L 147.20689 333.199517 
L 147.50725 337.778779 
L 147.809364 315.066056 
L 147.96182 288.686231 
L 148.114025 322.614004 
L 148.266064 316.929357 
L 148.570434 296.464628 
L 148.721103 316.524825 
L 148.871532 318.201051 
L 149.021785 352.174167 
L 149.486436 352.174167 
L 149.637459 163.813396 
L 149.7878 203.037949 
L 150.088964 177.87753 
L 150.240321 341.311707 
L 150.395917 352.174167 
L 152.37133 352.174167 
L 152.670775 317.575525 
L 152.820276 340.064642 
L 152.971077 324.495254 
L 153.273096 345.294036 
L 153.423544 342.385303 
L 153.575253 322.529906 
L 153.726335 341.296189 
L 153.876225 325.571989 
L 154.026018 352.174167 
L 154.176665 321.12474 
L 154.327305 352.174167 
L 154.477618 321.655945 
L 154.631322 352.174167 
L 154.78528 326.844754 
L 154.934941 351.020879 
L 155.091056 322.673219 
L 155.241095 352.174167 
L 155.39143 319.352683 
L 155.54464 352.174167 
L 155.697227 319.863342 
L 155.998289 341.824358 
L 156.152413 311.647106 
L 156.452761 348.719274 
L 156.605552 304.924578 
L 156.755869 324.040052 
L 156.905738 322.188677 
L 157.212346 336.211873 
L 157.362624 338.93041 
L 157.515796 309.214594 
L 157.666699 327.555586 
L 157.816899 330.838338 
L 157.967202 311.92491 
L 158.118712 335.022914 
L 158.269841 300.573189 
L 158.421175 308.724327 
L 158.572721 309.867744 
L 158.724344 343.598541 
L 158.87441 317.099815 
L 159.02463 337.181422 
L 159.175821 305.799631 
L 159.328445 339.703322 
L 159.480786 308.402387 
L 159.782693 343.574004 
L 159.93499 322.045539 
L 160.087746 316.979279 
L 160.240853 338.082479 
L 160.392939 333.388186 
L 160.54662 290.734409 
L 160.697546 333.853362 
L 160.849738 313.408595 
L 161.152584 336.279701 
L 161.302939 317.674804 
L 161.609014 348.806372 
L 161.760811 312.154578 
L 161.911433 315.427568 
L 162.062803 345.885374 
L 162.213649 284.422625 
L 162.364235 334.899701 
L 162.514703 289.590115 
L 162.665487 285.570956 
L 162.816653 336.143463 
L 162.969087 330.603106 
L 163.120058 343.561683 
L 163.270075 298.623324 
L 163.420976 332.680464 
L 163.571115 336.004869 
L 163.7233 352.174167 
L 164.037575 352.174167 
L 164.339962 269.848155 
L 164.490944 237.669139 
L 164.641121 254.00343 
L 164.791056 252.991395 
L 164.941722 333.774507 
L 165.094825 352.174167 
L 167.241689 352.174167 
L 167.392269 342.413351 
L 167.54244 342.385303 
L 167.694959 324.319398 
L 167.845248 335.475517 
L 167.995794 330.355873 
L 168.145883 338.892243 
L 168.297083 315.532558 
L 168.450543 348.782621 
L 168.604497 315.740749 
L 168.755687 352.174167 
L 168.905762 289.2294 
L 169.057748 328.230726 
L 169.208174 299.275144 
L 169.510991 323.54791 
L 169.66352 331.709438 
L 169.814801 324.20036 
L 169.966359 328.734122 
L 170.116592 323.959207 
L 170.266505 338.892243 
L 170.567172 321.169224 
L 170.718122 341.853971 
L 170.867967 319.258096 
L 171.017689 352.174167 
L 171.168237 325.110838 
L 171.319343 352.174167 
L 171.470103 327.449623 
L 171.620048 352.174167 
L 171.770018 329.108406 
L 171.920247 349.290947 
L 172.071184 321.169224 
L 172.221292 341.233672 
L 172.371298 315.845593 
L 172.521748 351.598351 
L 172.672468 315.374847 
L 172.823978 340.151139 
L 172.975131 282.525097 
L 173.125205 325.071898 
L 173.275237 317.575525 
L 173.42609 294.18344 
L 173.578407 330.541825 
L 173.730448 294.677679 
L 173.883286 339.685658 
L 174.034587 304.789964 
L 174.187539 341.970748 
L 174.338878 327.590705 
L 174.488899 299.275144 
L 174.638879 339.469718 
L 174.789726 313.186761 
L 174.940726 329.781708 
L 175.091638 324.080301 
L 175.242434 299.350931 
L 175.393293 352.174167 
L 175.54658 299.530965 
L 175.700296 352.174167 
L 175.850415 313.705071 
L 176.001263 352.174167 
L 176.152082 318.298396 
L 176.303059 343.574004 
L 176.453801 326.336714 
L 176.757128 352.174167 
L 176.907498 318.824783 
L 177.057712 352.174167 
L 177.208996 323.506957 
L 177.360594 352.174167 
L 177.664228 319.109415 
L 177.818133 315.024361 
L 177.969435 332.221299 
L 178.120909 305.799631 
L 178.273954 352.174167 
L 178.738117 352.174167 
L 178.895351 255.285297 
L 179.04618 329.9093 
L 179.197186 242.09208 
L 179.349164 239.297945 
L 179.801128 352.174167 
L 179.951409 332.020624 
L 180.102054 344.699305 
L 180.407424 350.471188 
L 180.558858 341.883415 
L 180.711555 352.174167 
L 180.862374 312.613417 
L 181.163892 328.059211 
L 181.314414 334.323886 
L 181.465042 318.249793 
L 181.767152 349.877504 
L 181.917407 311.291265 
L 182.219476 342.441239 
L 182.520197 320.504314 
L 182.670881 311.92491 
L 182.823268 324.926511 
L 182.973537 320.504314 
L 183.123402 322.765321 
L 183.273565 318.728813 
L 183.424045 349.295089 
L 183.574433 326.262469 
L 183.724793 334.899701 
L 183.875168 332.020624 
L 184.025833 281.551797 
L 184.17894 296.622223 
L 184.329908 273.738223 
L 184.481203 304.21907 
L 184.631349 283.553528 
L 184.931319 339.487998 
L 185.081171 301.933848 
L 185.230919 297.813194 
L 185.530937 327.342745 
L 185.835208 293.13758 
L 185.985574 310.774931 
L 186.135796 284.706816 
L 186.286368 330.32457 
L 186.436758 306.684741 
L 186.586962 345.264381 
L 186.737042 327.955118 
L 186.887368 326.225186 
L 187.037884 296.975186 
L 187.188802 317.250133 
L 187.341207 315.223963 
L 187.491245 341.794574 
L 187.79126 319.835571 
L 188.090965 338.892243 
L 188.240893 307.131123 
L 188.391794 329.207542 
L 188.544077 288.506123 
L 188.694766 292.375271 
L 188.844607 290.561907 
L 188.994296 303.596276 
L 189.143966 306.487817 
L 189.293599 335.378993 
L 189.443547 331.385069 
L 189.593052 348.704317 
L 189.743634 305.53311 
L 189.893407 344.677794 
L 190.194136 296.239696 
L 190.344367 327.449623 
L 190.494007 305.842653 
L 190.643757 305.976173 
L 190.793409 272.367632 
L 190.943004 343.499543 
L 191.093589 352.174167 
L 191.24539 352.174167 
L 191.397119 231.659655 
L 191.54744 266.377655 
L 191.697304 229.749483 
L 191.846918 228.416208 
L 192.146389 317.475673 
L 192.296103 352.174167 
L 192.445697 337.716461 
L 192.596263 348.137659 
L 192.746097 346.407726 
L 192.898428 337.373091 
L 193.049254 352.174167 
L 193.52461 352.174167 
L 193.674259 318.824783 
L 193.823908 322.680447 
L 194.273741 345.840196 
L 194.424138 322.807576 
L 194.575639 352.174167 
L 194.725499 310.018497 
L 194.875282 333.117494 
L 195.02573 302.078217 
L 195.17617 301.000112 
L 195.326688 310.199942 
L 195.476838 346.407726 
L 195.626825 344.10115 
L 195.778763 338.4922 
L 195.929411 280.977631 
L 196.080053 299.850133 
L 196.229945 304.243748 
L 196.379937 284.130172 
L 196.828671 330.166698 
L 196.978745 308.925865 
L 197.129955 343.58629 
L 197.279668 302.43966 
L 197.429203 323.837064 
L 197.5816 323.099988 
L 197.735396 316.712989 
L 197.884957 334.298202 
L 198.034501 330.745841 
L 198.184131 298.391502 
L 198.333723 321.523831 
L 198.483469 267.741167 
L 198.635317 292.144784 
L 198.785098 270.290715 
L 199.086118 312.613417 
L 199.23703 339.560594 
L 199.53624 322.102139 
L 199.835836 326.76527 
L 199.986088 292.289353 
L 200.285651 352.174167 
L 200.438997 311.360494 
L 200.589096 348.734101 
L 200.738747 290.873495 
L 201.037886 323.796114 
L 201.190009 343.065812 
L 201.339848 293.271725 
L 201.491368 345.87639 
L 201.641298 321.035389 
L 201.795369 345.40063 
L 202.098303 315.162441 
L 202.247996 338.314769 
L 202.549287 307.707776 
L 202.699116 339.451386 
L 202.850142 289.01595 
L 203.00024 320.504314 
L 203.149942 296.736574 
L 203.302317 315.171477 
L 203.452092 286.825338 
L 203.751414 339.433 
L 204.052482 304.65458 
L 204.202373 341.794574 
L 204.352615 291.626544 
L 204.502511 345.254438 
L 204.652194 311.692591 
L 204.801975 352.174167 
L 204.952088 308.80105 
L 205.101793 352.174167 
L 205.25173 296.078269 
L 205.401335 334.849919 
L 205.552299 310.834243 
L 205.709491 352.174167 
L 205.859812 352.174167 
L 206.161884 335.096002 
L 206.31167 337.181422 
L 206.461733 333.144914 
L 206.611364 316.267243 
L 206.761052 312.328397 
L 206.91093 338.873078 
L 207.061582 337.799432 
L 207.214717 341.434273 
L 207.364501 333.694969 
L 207.515492 293.693058 
L 207.672931 347.459254 
L 207.830766 352.174167 
L 207.985584 352.174167 
L 208.136809 287.299533 
L 208.28652 333.694969 
L 208.587957 301.219429 
L 208.738252 299.999844 
L 208.887898 297.813194 
L 209.191037 341.839186 
L 209.341685 336.649453 
L 209.491744 339.506225 
L 209.641784 330.868993 
L 209.793006 347.02144 
L 209.944107 309.173352 
L 210.094251 347.567643 
L 210.244648 298.047509 
L 210.395056 340.082041 
L 210.545148 306.108926 
L 210.696037 302.72508 
L 210.846277 316.473605 
L 211.147955 247.676026 
L 211.298019 285.860104 
L 211.448691 286.050388 
L 211.599468 336.671695 
L 211.749875 342.961118 
L 211.901591 325.913042 
L 212.051629 352.174167 
L 212.202905 329.273161 
L 212.353092 348.714303 
L 212.510551 317.348845 
L 212.660752 352.174167 
L 212.81216 308.662256 
L 212.964623 352.174167 
L 213.115894 324.120435 
L 213.268975 352.174167 
L 213.420177 351.602458 
L 213.570675 323.91861 
L 213.871362 352.174167 
L 214.021313 319.882101 
L 214.172726 348.739016 
L 214.324213 327.090562 
L 214.474547 342.385303 
L 214.625727 341.853971 
L 214.776087 352.174167 
L 214.92729 318.395184 
L 215.077156 349.864267 
L 215.226967 294.426674 
L 215.377152 316.948196 
L 215.528218 312.097407 
L 215.679864 313.869703 
L 215.829937 352.174167 
L 215.979962 304.889357 
L 216.129935 329.041838 
L 216.28262 329.467787 
L 216.432489 308.349221 
L 216.582253 337.159819 
L 216.732054 312.905872 
L 217.033582 339.542523 
L 217.18444 294.10024 
L 217.335891 347.036121 
L 217.487115 288.051351 
L 217.638381 297.290159 
L 217.789956 283.095991 
L 217.940306 311.867081 
L 218.09065 295.744247 
L 218.392625 329.30583 
L 218.543811 323.017038 
L 218.695147 293.204078 
L 218.848824 316.099446 
L 218.999193 308.474974 
L 219.299378 333.721558 
L 219.449946 348.143458 
L 219.600324 319.399772 
L 219.750407 336.604778 
L 219.903168 321.520554 
L 220.054168 333.853362 
L 220.204721 312.4999 
L 220.355102 311.867081 
L 220.505592 322.807576 
L 220.805695 292.116775 
L 220.956021 316.422237 
L 221.107034 316.053482 
L 221.408288 352.174167 
L 221.560399 303.786034 
L 221.710304 345.840196 
L 221.860123 308.80105 
L 222.010122 345.254438 
L 222.160009 305.398698 
L 222.309808 348.704317 
L 222.459499 352.174167 
L 222.770921 352.174167 
L 222.921637 310.439453 
L 223.074063 343.091615 
L 223.226801 317.595916 
L 223.385388 311.54841 
L 223.535687 350.459041 
L 223.686584 324.614217 
L 223.837599 340.707283 
L 223.988673 326.983061 
L 224.139251 332.049538 
L 224.290548 344.741957 
L 224.444899 316.301263 
L 224.596731 334.476452 
L 224.747317 326.299645 
L 224.9 334.085925 
L 225.051852 333.144914 
L 225.203101 340.151139 
L 225.355246 327.695464 
L 225.507978 352.174167 
L 225.659803 314.548759 
L 225.810898 329.34183 
L 225.961535 325.149666 
L 226.113817 349.897078 
L 226.267023 326.773404 
L 226.417537 333.827152 
L 226.567646 305.466001 
L 226.717771 329.141546 
L 226.87097 326.098764 
L 227.176033 324.554459 
L 227.326974 326.373678 
L 227.478128 334.425887 
L 227.631234 336.302183 
L 227.783286 332.846368 
L 227.933828 332.624528 
L 228.084788 313.186761 
L 228.236839 328.834008 
L 228.388608 295.65566 
L 228.539205 330.960431 
L 228.839374 293.93312 
L 228.989279 349.864267 
L 229.139085 310.595972 
L 229.289096 352.174167 
L 229.438855 293.186728 
L 229.589041 352.174167 
L 229.74139 312.894388 
L 229.893373 347.486826 
L 230.045008 320.249579 
L 230.19745 339.15488 
L 230.350885 331.76733 
L 230.505258 332.556172 
L 230.655461 339.542523 
L 230.808487 319.863342 
L 230.961141 343.104462 
L 231.113772 331.200474 
L 231.2648 351.600822 
L 231.415612 301.719877 
L 231.566354 352.174167 
L 231.716438 307.836372 
L 231.866392 352.174167 
L 232.016667 306.108926 
L 232.170439 352.174167 
L 232.320327 292.779832 
L 232.470318 352.174167 
L 232.623113 310.167365 
L 232.774926 352.174167 
L 232.926441 315.066056 
L 233.07772 352.174167 
L 233.230733 321.563912 
L 233.381341 352.174167 
L 233.532044 328.059211 
L 233.682832 350.449199 
L 233.836623 317.886897 
L 234.14198 326.410535 
L 234.292906 328.09371 
L 234.445858 324.358852 
L 234.59746 337.922118 
L 234.750454 316.048637 
L 234.90146 352.174167 
L 235.052558 326.373678 
L 235.203773 328.734122 
L 235.354816 342.413351 
L 235.507583 320.997055 
L 235.658951 349.884066 
L 235.810192 315.63695 
L 235.961511 342.080761 
L 236.112421 328.09371 
L 236.263555 326.983061 
L 236.414586 349.307446 
L 236.565902 325.226989 
L 236.717266 352.174167 
L 236.86829 322.360268 
L 237.340715 352.174167 
L 237.490606 344.147348 
L 237.64069 280.670308 
L 237.942511 326.947022 
L 238.09331 282.700128 
L 238.395382 331.563262 
L 238.546331 302.150091 
L 238.696795 350.45167 
L 238.847378 290.650303 
L 238.997939 334.924485 
L 239.148377 306.175016 
L 239.450964 323.017038 
L 239.601897 326.947022 
L 239.752527 291.713538 
L 240.0549 314.692305 
L 240.208136 286.039034 
L 240.359289 293.776603 
L 240.511383 323.67007 
L 240.66334 321.43347 
L 240.814726 322.445329 
L 240.964794 352.174167 
L 241.115907 289.768927 
L 241.267051 329.240399 
L 241.41797 327.485045 
L 241.56808 329.141546 
L 241.718077 327.955118 
L 241.86863 345.831082 
L 242.02027 315.584828 
L 242.174316 352.174167 
L 242.325363 298.356804 
L 242.477874 331.738425 
L 242.629036 328.734122 
L 242.783294 328.533382 
L 242.937202 347.690054 
L 243.087652 287.107014 
L 243.238226 338.374422 
L 243.388018 303.805664 
L 243.537518 312.213236 
L 243.687025 330.745841 
L 243.836693 325.571989 
L 243.988307 331.020955 
L 244.137949 328.024613 
L 244.291379 339.720936 
L 244.444122 313.62792 
L 244.597024 346.513607 
L 244.746665 308.349221 
L 244.89739 341.809487 
L 245.047251 308.349221 
L 245.19692 316.319057 
L 245.346446 335.981537 
L 245.653446 277.342043 
L 245.960078 324.240152 
L 246.111447 308.786222 
L 246.415176 342.510267 
L 246.565422 352.174167 
L 246.715569 352.174167 
L 246.868777 275.756617 
L 247.020619 337.942363 
L 247.171354 305.733286 
L 247.475444 325.644481 
L 247.625769 310.774931 
L 247.776028 338.93041 
L 247.927037 314.333449 
L 248.077998 327.520366 
L 248.38083 299.350931 
L 248.532085 337.861038 
L 248.682724 332.680464 
L 248.833963 294.349128 
L 248.984676 333.226702 
L 249.136688 291.001367 
L 249.287689 331.592664 
L 249.437853 294.675229 
L 249.738661 352.174167 
L 249.889389 340.09939 
L 250.039769 316.473605 
L 250.189946 344.11275 
L 250.340341 320.458745 
L 250.490526 340.082041 
L 250.643341 319.296486 
L 250.796263 343.695304 
L 250.947995 296.385496 
L 251.099908 345.342901 
L 251.252068 315.688923 
L 251.40344 352.174167 
L 251.555169 305.865785 
L 251.70695 352.174167 
L 251.86359 352.174167 
L 252.014454 338.453165 
L 252.166507 233.533334 
L 252.316369 239.982372 
L 252.466831 291.225293 
L 252.618601 256.263973 
L 252.772097 350.483164 
L 252.924443 345.362253 
L 253.074679 352.174167 
L 253.226513 337.901816 
L 253.376905 341.824358 
L 253.528346 351.03075 
L 253.68102 333.414832 
L 253.832523 352.174167 
L 253.98318 352.174167 
L 254.285189 334.899701 
L 254.440861 352.174167 
L 254.593396 328.366191 
L 254.745281 336.279701 
L 254.897343 336.189134 
L 255.049759 352.174167 
L 255.200456 328.667054 
L 255.351956 343.58629 
L 255.50224 343.561683 
L 255.807988 338.062632 
L 255.959363 315.01312 
L 256.261174 326.483936 
L 256.411156 300.350771 
L 256.713457 326.947022 
L 256.863687 323.959207 
L 257.01698 332.390153 
L 257.168372 328.230726 
L 257.319587 341.868714 
L 257.471153 315.584828 
L 257.621464 321.69973 
L 257.773528 333.931545 
L 257.925063 320.774996 
L 258.07621 339.596582 
L 258.22744 304.65458 
L 258.3792 329.9093 
L 258.533454 323.507761 
L 258.683624 348.155007 
L 258.836546 319.863342 
L 258.988625 344.215661 
L 259.139586 323.465886 
L 259.290708 333.199517 
L 259.591956 328.700636 
L 259.741819 341.779618 
L 260.051554 325.644481 
L 260.202219 333.774507 
L 260.352686 318.824783 
L 260.50507 322.572015 
L 260.656316 315.532558 
L 260.806962 351.599177 
L 260.95912 303.92311 
L 261.263029 347.086849 
L 261.416183 316.099446 
L 261.566169 331.991626 
L 261.86891 307.392498 
L 262.019618 343.561683 
L 262.322509 317.299954 
L 262.473758 323.465886 
L 262.777219 281.383309 
L 262.929099 272.589112 
L 263.080028 274.087644 
L 263.686901 324.810234 
L 263.840425 325.041805 
L 263.99554 309.194912 
L 264.149241 348.239562 
L 264.299626 326.91088 
L 264.450239 352.174167 
L 264.60128 323.465886 
L 264.754978 349.916321 
L 264.906619 315.171477 
L 265.057631 337.267217 
L 265.209709 315.223963 
L 265.511672 337.820026 
L 265.664222 341.61221 
L 265.819116 352.174167 
L 265.970916 352.174167 
L 266.27183 270.290715 
L 266.579738 352.174167 
L 266.731626 352.174167 
L 267.339113 134.515903 
L 267.643276 204.582701 
L 267.795334 352.174167 
L 269.925237 352.174167 
L 270.077325 324.849103 
L 270.228704 342.455124 
L 270.382087 339.738501 
L 270.533292 352.174167 
L 270.683286 322.722946 
L 270.833393 352.174167 
L 270.985287 315.118841 
L 271.136406 349.307446 
L 271.2891 319.863342 
L 271.440766 324.20036 
L 271.592194 334.451206 
L 271.742659 331.504205 
L 271.893612 332.652536 
L 272.044607 339.578614 
L 272.497091 288.258645 
L 272.647905 303.37009 
L 272.798951 290.341452 
L 272.949639 316.524825 
L 273.254689 323.831338 
L 273.40577 345.313666 
L 273.556464 308.53758 
L 273.70707 322.849708 
L 273.858153 319.446727 
L 274.16411 347.086849 
L 274.465705 304.15066 
L 274.767619 335.547185 
L 274.919671 319.77168 
L 275.071604 324.20036 
L 275.222243 316.626826 
L 275.373409 319.540234 
L 275.679687 330.191134 
L 275.982271 296.066703 
L 276.133191 303.43991 
L 276.283919 304.586598 
L 276.434175 328.531762 
L 276.584065 311.173447 
L 276.734495 352.174167 
L 276.885067 320.595058 
L 277.188144 323.141287 
L 277.339958 304.15066 
L 277.490892 311.011161 
L 277.642581 304.21907 
L 277.792716 321.080129 
L 277.944904 310.558186 
L 278.246579 338.47271 
L 278.398756 314.032932 
L 278.549226 333.226702 
L 278.700219 306.879975 
L 278.850025 317.525671 
L 278.999919 304.243748 
L 279.149869 304.821223 
L 279.299796 322.722946 
L 279.449649 314.638297 
L 279.599461 346.976892 
L 279.749212 324.99368 
L 279.899572 351.022536 
L 280.049857 307.836372 
L 280.200432 317.04942 
L 280.351865 352.174167 
L 280.807378 352.174167 
L 280.957576 251.838107 
L 281.108394 328.667054 
L 281.410922 300.573189 
L 281.561613 256.012976 
L 281.711831 248.676079 
L 281.862165 251.69353 
L 282.012567 259.025888 
L 282.163173 260.175866 
L 282.614379 342.961118 
L 282.766028 340.202446 
L 282.917645 345.323439 
L 283.06815 341.824358 
L 283.218666 347.580842 
L 283.370955 321.959824 
L 283.673407 313.814982 
L 283.824233 331.533775 
L 283.976545 320.864198 
L 284.127445 333.253808 
L 284.27939 320.819661 
L 284.431844 347.632891 
L 284.734425 317.250133 
L 284.885805 338.453165 
L 285.037239 324.69296 
L 285.189269 348.758534 
L 285.642238 304.722369 
L 285.793363 328.700636 
L 285.944427 309.234781 
L 286.097309 340.236408 
L 286.247345 337.245861 
L 286.398254 350.45167 
L 286.549075 290.738446 
L 286.699819 299.925096 
L 286.850651 252.843516 
L 287.001987 280.710615 
L 287.152972 282.226174 
L 287.303771 320.020892 
L 287.609744 327.161721 
L 287.760613 342.427315 
L 287.911254 317.150064 
L 288.061846 322.849708 
L 288.212659 307.899985 
L 288.514721 321.257809 
L 288.665826 320.066891 
L 288.81634 329.749581 
L 289.567864 280.300494 
L 289.721453 303.991358 
L 289.872508 291.001367 
L 290.022765 290.075314 
L 290.173266 299.850133 
L 290.474477 289.01595 
L 290.624912 328.599602 
L 290.775625 327.449623 
L 290.926303 342.413351 
L 291.076824 324.535022 
L 291.231343 352.174167 
L 291.383619 324.926511 
L 291.535918 349.331843 
L 291.688232 331.709438 
L 291.838692 337.799432 
L 291.989109 325.724655 
L 292.139715 298.125165 
L 292.290065 294.592616 
L 292.440517 312.442896 
L 292.590801 297.471693 
L 292.742589 316.829087 
L 293.043565 288.441784 
L 293.346812 292.230295 
L 293.499801 289.819944 
L 293.652172 298.246516 
L 293.802417 297.550176 
L 293.952494 300.201424 
L 294.1041 328.800808 
L 294.254045 322.722946 
L 294.4052 339.560594 
L 294.556222 311.524882 
L 294.858817 316.728245 
L 295.012092 352.174167 
L 295.464532 352.174167 
L 295.615924 172.657726 
L 295.767088 193.931167 
L 295.918473 141.785471 
L 296.069783 136.33219 
L 296.371886 311.408408 
L 296.522415 342.413351 
L 296.673588 342.427315 
L 296.824536 328.09371 
L 296.976592 351.592501 
L 297.127957 328.128111 
L 297.428072 336.051332 
L 297.578874 313.018712 
L 297.73027 351.603273 
L 297.881736 311.582869 
L 298.039458 351.071642 
L 298.196665 329.603464 
L 298.348853 352.174167 
L 298.506024 322.917028 
L 298.656198 345.294036 
L 298.806798 340.082041 
L 298.958186 341.883415 
L 299.109307 335.047346 
L 299.260468 352.174167 
L 299.411831 327.555586 
L 299.564434 340.270179 
L 299.717133 343.659274 
L 299.868283 337.288513 
L 300.019108 352.174167 
L 300.169615 299.275144 
L 300.319896 351.598351 
L 300.471105 293.204078 
L 300.622278 332.708312 
L 300.772559 341.233672 
L 300.922805 340.082041 
L 301.073657 310.774931 
L 301.376715 333.774507 
L 301.526995 345.274294 
L 301.677485 293.440984 
L 301.82787 299.501854 
L 301.978467 284.900409 
L 302.128458 297.969628 
L 302.278398 285.764551 
L 302.428439 331.991626 
L 302.578198 307.131123 
L 302.729355 308.600007 
L 303.030198 326.299645 
L 303.180728 352.174167 
L 303.331956 321.21358 
L 303.482525 334.375033 
L 303.782129 304.821223 
L 303.931923 313.483347 
L 304.234572 295.331771 
L 304.386675 323.099988 
L 304.539655 304.625469 
L 304.690121 344.135848 
L 304.840735 344.124315 
L 304.994029 352.174167 
L 305.147266 295.002518 
L 305.300534 318.306482 
L 305.451118 283.621815 
L 305.602293 310.952357 
L 305.752848 313.130905 
L 305.903044 324.495254 
L 306.053829 270.068484 
L 306.204439 320.640236 
L 306.354823 284.227936 
L 306.504996 296.81634 
L 306.65623 274.199355 
L 306.806944 317.72423 
L 306.957942 299.999844 
L 307.108692 324.614217 
L 307.25964 323.506957 
L 307.409912 323.383391 
L 307.561106 324.120435 
L 307.71204 349.88079 
L 307.86261 324.614217 
L 308.013346 321.169224 
L 308.164166 343.561683 
L 308.314935 314.799857 
L 308.467348 318.066286 
L 308.617688 346.432511 
L 308.768143 298.623324 
L 308.918735 293.52525 
L 309.069206 296.480102 
L 309.219826 287.775356 
L 309.372008 315.171477 
L 309.524481 299.456506 
L 309.677725 352.174167 
L 310.153431 352.174167 
L 310.306978 331.982822 
L 310.609033 263.625803 
L 310.759533 258.892054 
L 310.912042 264.311398 
L 311.062476 349.874209 
L 311.214156 351.604085 
L 311.365009 343.561683 
L 311.515295 346.416012 
L 311.666089 352.174167 
L 311.817574 333.388186 
L 311.968515 341.280627 
L 312.118802 322.23176 
L 312.269196 333.74807 
L 312.419257 330.957059 
L 312.569399 348.131842 
L 312.721924 333.414832 
L 312.873515 352.174167 
L 313.025249 321.873621 
L 313.175904 342.441239 
L 313.327207 305.799631 
L 313.478704 332.736081 
L 313.778557 340.047193 
L 313.929472 313.705071 
L 314.083082 311.084231 
L 314.233263 293.93312 
L 314.39119 293.740377 
L 314.692527 320.066891 
L 314.843331 341.296189 
L 314.994267 322.891721 
L 315.146941 322.088214 
L 315.298297 317.299954 
L 315.449713 329.845686 
L 315.600802 320.112759 
L 315.902029 288.441784 
L 316.053311 281.18105 
L 316.506307 319.493547 
L 316.65985 316.048637 
L 316.962865 325.149666 
L 317.113887 322.360268 
L 317.417821 351.040454 
L 317.568546 313.186761 
L 317.8705 333.827152 
L 318.172188 310.834243 
L 318.322549 329.749581 
L 318.473868 296.639228 
L 318.624729 307.963415 
L 318.775607 293.693058 
L 318.926423 266.623491 
L 319.077862 281.854032 
L 319.22878 272.479323 
L 319.680886 326.868724 
L 319.831378 333.199517 
L 319.98283 352.174167 
L 320.133567 281.079486 
L 320.286395 282.35205 
L 320.437132 266.172537 
L 320.73913 291.886778 
L 321.040658 327.520366 
L 321.193377 321.477074 
L 321.344435 335.594623 
L 321.646402 330.480194 
L 321.800456 307.080766 
L 321.950108 352.174167 
L 322.101001 299.925096 
L 322.405873 313.924268 
L 322.558098 349.327806 
L 322.710028 304.49077 
L 323.018577 339.979302 
L 323.323328 267.060373 
L 323.474209 303.578952 
L 323.625155 250.118899 
L 323.776214 280.506142 
L 323.927796 281.383309 
L 324.080879 315.380531 
L 324.231921 296.066703 
L 324.385134 349.347879 
L 324.539277 352.174167 
L 324.858687 352.174167 
L 325.313899 303.286205 
L 325.466048 307.137694 
L 325.617124 300.573189 
L 325.76854 314.548759 
L 325.92022 303.077282 
L 326.071398 301.146533 
L 326.222452 301.219429 
L 326.524293 310.893384 
L 326.675334 298.700155 
L 326.82616 312.154578 
L 326.976927 292.410578 
L 327.27896 320.640236 
L 327.42929 321.080129 
L 327.580227 314.333449 
L 327.731296 316.626826 
L 327.882179 293.119714 
L 328.033001 291.312612 
L 328.183767 311.982574 
L 328.334852 310.893384 
L 328.484931 323.341966 
L 328.635078 345.264381 
L 328.788888 303.698761 
L 328.939909 296.639228 
L 329.091028 297.706468 
L 329.241949 293.693058 
L 329.544387 307.963415 
L 329.845524 338.394192 
L 329.995769 325.686653 
L 330.14669 352.174167 
L 330.297482 295.413091 
L 330.448488 305.092587 
L 330.599383 304.082055 
L 330.900781 291.312612 
L 331.205678 329.659133 
L 331.356352 317.250133 
L 331.509199 317.448565 
L 331.810869 348.729173 
L 331.961773 318.967709 
L 332.111636 338.892243 
L 332.262685 317.150064 
L 332.41612 332.928265 
L 332.566899 321.301912 
L 332.718421 350.456591 
L 332.868575 300.425123 
L 333.170169 335.499475 
L 333.32377 347.101159 
L 333.475371 320.158496 
L 333.625742 352.174167 
L 333.775974 310.199942 
L 333.927673 336.189134 
L 334.083315 317.567494 
L 334.534103 328.531762 
L 334.835317 289.590115 
L 334.985951 287.293453 
L 335.137129 279.359453 
L 335.438034 317.625236 
L 335.593052 344.907809 
L 335.743893 320.112759 
L 335.89461 345.849284 
L 336.045612 318.395184 
L 336.196083 323.999687 
L 336.347442 340.16829 
L 336.497412 341.21793 
L 336.647372 327.342745 
L 336.797438 340.624668 
L 336.950199 329.467787 
L 337.100373 333.74807 
L 337.2505 306.175016 
L 337.550217 328.497695 
L 337.700581 331.962544 
L 337.850218 304.312713 
L 338.000663 316.948196 
L 338.151109 304.518421 
L 338.304312 314.761633 
L 338.454764 309.173352 
L 338.605276 348.719274 
L 338.755113 326.225186 
L 339.058007 348.719274 
L 339.213428 352.174167 
L 339.527176 352.174167 
L 339.829188 293.372083 
L 340.131074 322.849708 
L 340.281194 322.765321 
L 340.431126 302.006137 
L 340.58121 316.370721 
L 340.732347 316.053482 
L 340.882647 302.72508 
L 341.034676 299.156547 
L 341.187963 289.908015 
L 341.489903 330.449247 
L 341.641503 343.039862 
L 341.791664 304.450048 
L 341.944199 318.58711 
L 342.094663 305.666752 
L 342.245449 334.037239 
L 342.398084 330.572509 
L 342.548809 319.446727 
L 342.70425 341.568896 
L 342.854377 326.373678 
L 343.00462 285.187076 
L 343.155095 320.549751 
L 343.305807 307.899985 
L 343.456778 306.437494 
L 343.606381 306.487817 
L 343.756008 301.283043 
L 343.905748 327.885221 
L 344.060294 324.670508 
L 344.212398 344.215661 
L 344.513888 323.54791 
L 344.664369 329.749581 
L 344.816526 345.921055 
L 344.967 306.108926 
L 345.117202 327.989915 
L 345.26818 326.336714 
L 345.568794 331.504205 
L 345.719654 352.174167 
L 345.869729 314.115661 
L 346.171575 348.743916 
L 346.322654 328.734122 
L 346.474184 344.158815 
L 346.628938 307.395664 
L 346.782213 312.606139 
L 346.93463 311.984196 
L 347.087784 310.286028 
L 347.390155 314.853402 
L 347.540892 328.024613 
L 347.691722 298.853156 
L 347.993196 336.671695 
L 348.144018 333.253808 
L 348.295062 345.86738 
L 348.445594 296.320062 
L 348.596599 315.480138 
L 348.748345 317.871662 
L 348.89968 314.495162 
L 349.051131 323.017038 
L 349.202245 298.356804 
L 349.353813 306.437494 
L 349.656484 281.690331 
L 349.807707 294.921653 
L 350.11045 333.253808 
L 350.261677 339.043604 
L 350.412919 321.830334 
L 350.56528 351.034003 
L 350.716628 313.408595 
L 351.32172 351.599177 
L 351.472307 310.139634 
L 351.622633 318.776867 
L 351.775116 336.82562 
L 351.926511 299.081024 
L 352.077503 310.379832 
L 352.228888 306.879975 
L 352.380209 314.441412 
L 352.532169 315.171477 
L 352.684633 319.249917 
L 352.835858 295.65566 
L 352.988032 325.342148 
L 353.139212 315.584828 
L 353.443427 338.588824 
L 353.594461 327.555586 
L 353.745243 331.687644 
L 353.903166 352.174167 
L 354.213008 352.174167 
L 354.364808 304.287285 
L 354.516687 313.408595 
L 354.667691 313.186761 
L 354.81923 319.015079 
L 354.970319 281.753575 
L 355.121418 310.952357 
L 355.271739 299.850133 
L 355.579656 333.932331 
L 355.730029 322.317555 
L 355.881226 346.457083 
L 356.032641 303.578952 
L 356.184152 332.164372 
L 356.487182 304.65458 
L 356.638937 290.429658 
L 356.790181 299.651918 
L 356.943742 288.651925 
L 357.245912 311.128268 
L 357.396971 302.937005 
L 357.548538 303.50953 
L 357.701998 335.850767 
L 358.004868 342.441239 
L 358.459059 293.035109 
L 358.610267 303.578952 
L 358.761822 290.429658 
L 358.91313 307.580911 
L 359.063639 296.400197 
L 359.215081 325.303871 
L 359.366286 332.135787 
L 359.517396 325.303871 
L 359.668637 305.159942 
L 359.819589 311.349921 
L 359.970189 309.746696 
L 360.121232 336.143463 
L 360.27233 297.446301 
L 360.428038 328.13929 
L 360.582438 321.990833 
L 360.733792 343.026832 
L 360.884343 298.700155 
L 361.035885 313.924268 
L 361.341529 317.299954 
L 361.492516 290.913977 
L 361.643722 311.524882 
L 361.794544 295.494178 
L 361.945375 325.686653 
L 362.096588 297.939236 
L 362.24781 336.143463 
L 362.398752 329.845686 
L 362.54957 335.523364 
L 362.704543 337.061422 
L 362.85611 327.090562 
L 363.006868 305.092587 
L 363.158232 333.307789 
L 363.309229 334.998413 
L 363.460163 349.307446 
L 363.610906 320.595058 
L 363.76281 333.334664 
L 363.913902 332.736081 
L 364.065117 286.145121 
L 364.216983 284.622688 
L 364.368336 301.719877 
L 364.519625 270.875597 
L 364.670902 290.429658 
L 364.82237 327.018997 
L 365.124984 341.296189 
L 365.277371 332.454777 
L 365.428286 316.626826 
L 365.579196 338.413906 
L 365.729711 304.450048 
L 365.881204 319.015079 
L 366.032668 306.502646 
L 366.184151 339.614498 
L 366.33735 318.729629 
L 366.488981 329.940971 
L 366.639871 308.089731 
L 366.791936 333.388186 
L 366.943773 303.717203 
L 367.09583 310.617299 
L 367.248054 336.803819 
L 367.399694 342.468968 
L 367.702018 309.478755 
L 367.853455 337.309748 
L 368.155895 294.431617 
L 368.307359 298.356804 
L 368.617781 352.174167 
L 368.929948 352.174167 
L 369.385154 303.286205 
L 369.536224 296.718451 
L 369.686584 300.276205 
L 369.838249 335.61824 
L 369.988772 317.674804 
L 370.138969 326.225186 
L 370.289014 308.988003 
L 370.440159 308.600007 
L 370.591226 296.146742 
L 370.741996 317.150064 
L 370.892811 321.743389 
L 371.045132 349.897078 
L 371.195996 326.947022 
L 371.348611 349.900308 
L 371.499828 307.580911 
L 371.651051 301.292118 
L 371.95364 341.296189 
L 372.104771 309.746696 
L 372.708862 286.625378 
L 372.859997 286.333776 
L 373.010941 297.133123 
L 373.31935 326.593256 
L 373.47269 343.707246 
L 373.776456 313.242457 
L 373.927766 316.677608 
L 374.081492 332.418018 
L 374.384712 342.455124 
L 374.536401 312.211586 
L 374.687844 329.273161 
L 375.146636 297.033093 
L 375.299856 342.564788 
L 375.611305 312.483291 
L 375.76422 330.160172 
L 375.915663 324.120435 
L 376.066585 306.372156 
L 376.369727 339.596582 
L 376.52107 341.898074 
L 376.672473 299.999844 
L 376.824092 314.032932 
L 376.97553 339.024873 
L 377.278373 312.097407 
L 377.731741 337.861038 
L 377.882913 319.493547 
L 378.034337 344.741957 
L 378.188561 312.772858 
L 378.343545 333.222709 
L 378.49504 337.901816 
L 378.646135 307.517206 
L 378.796959 348.739016 
L 378.947808 307.324995 
L 379.099633 345.313666 
L 379.250911 311.128268 
L 379.552373 345.86738 
L 379.706454 301.444091 
L 379.864798 342.841223 
L 380.016329 320.340145 
L 380.16757 320.204102 
L 380.472855 352.174167 
L 380.624027 320.730204 
L 380.775001 352.174167 
L 380.926682 309.867744 
L 381.077501 347.014069 
L 381.228709 312.097407 
L 381.379955 320.158496 
L 381.530867 318.920203 
L 381.682048 338.394192 
L 381.98469 323.588746 
L 382.135855 333.253808 
L 382.438182 304.013254 
L 382.589118 351.601642 
L 382.739701 315.374847 
L 382.891058 336.166331 
L 383.042613 318.44337 
L 383.201015 352.174167 
L 383.68168 352.174167 
L 383.842439 317.207866 
L 383.993427 339.043604 
L 384.145083 319.062314 
L 384.296151 316.156537 
L 384.446907 296.480102 
L 384.59888 305.931752 
L 384.750746 323.141287 
L 384.901407 320.595058 
L 385.051636 341.249368 
L 385.202893 303.944255 
L 385.353964 343.58629 
L 385.508492 305.71647 
L 385.660228 341.912692 
L 385.814485 329.063799 
L 385.966054 352.174167 
L 386.117164 312.154578 
L 386.268219 350.45167 
L 386.418823 318.298396 
L 386.571725 352.174167 
L 386.721771 321.655945 
L 386.878401 352.174167 
L 387.029525 329.9093 
L 387.181635 346.481445 
L 387.333705 322.002743 
L 387.485701 325.987648 
L 387.637842 311.755844 
L 387.941927 322.572015 
L 388.094025 323.750933 
L 388.245852 293.942977 
L 388.551149 328.332468 
L 388.704773 316.613098 
L 389.010434 336.279701 
L 389.161844 289.286241 
L 389.312925 323.54791 
L 389.61624 294.19077 
L 389.767448 344.135848 
L 390.069298 315.63695 
L 390.220717 316.156537 
L 390.372237 300.646904 
L 390.523712 311.69835 
L 390.67476 310.379832 
L 390.82595 333.853362 
L 390.976628 333.774507 
L 391.127194 337.820026 
L 391.278305 313.760105 
L 391.429194 333.253808 
L 391.579978 336.120529 
L 391.730797 344.135848 
L 391.881933 304.082055 
L 392.032851 293.609274 
L 392.334654 342.413351 
L 392.485561 318.395184 
L 392.636365 337.799432 
L 392.786556 338.354594 
L 392.938189 311.011161 
L 393.089297 343.026832 
L 393.240466 321.786924 
L 393.542651 337.840562 
L 393.693942 305.227105 
L 393.845352 352.174167 
L 393.996279 296.639228 
L 394.14823 304.857367 
L 394.452167 335.641791 
L 394.604097 306.567612 
L 394.755519 337.309748 
L 394.90664 309.234781 
L 395.057803 352.174167 
L 395.208101 288.83446 
L 395.513767 331.020955 
L 395.815881 340.739998 
L 395.967852 307.137694 
L 396.122783 334.822497 
L 396.431088 304.463739 
L 396.73621 339.080907 
L 396.889388 324.515558 
L 397.194296 340.853048 
L 397.345162 316.626826 
L 397.49638 315.532558 
L 397.647601 322.445329 
L 397.801952 349.470844 
L 397.959285 352.174167 
L 398.268793 352.174167 
L 398.419936 315.584828 
L 398.57217 323.182468 
L 399.026867 274.7727 
L 399.178291 303.578952 
L 399.329489 297.211753 
L 399.482208 312.438003 
L 399.633035 349.884066 
L 399.784241 312.55674 
L 399.934736 311.408408 
L 400.235953 280.506142 
L 400.538517 315.532558 
L 400.840829 349.887333 
L 400.992394 300.646904 
L 401.146134 294.279268 
L 401.296435 310.774931 
L 401.448529 291.659401 
L 401.598527 289.500325 
L 401.748516 293.271725 
L 401.899461 294.18344 
L 402.200317 315.897789 
L 402.350399 337.181422 
L 402.652169 322.933612 
L 402.8022 345.264381 
L 402.952506 326.838284 
L 403.253494 332.020624 
L 403.404523 341.280627 
L 403.711022 327.091355 
L 403.860845 316.575899 
L 404.012075 343.013764 
L 404.16299 312.55674 
L 404.313589 319.974762 
L 404.463723 311.867081 
L 404.614248 313.594527 
L 404.764681 341.249368 
L 404.915412 313.649878 
L 405.065933 320.020892 
L 405.216474 315.321974 
L 405.368697 323.141287 
L 405.519961 294.513871 
L 405.670119 291.626544 
L 405.821943 300.793706 
L 405.976356 297.57521 
L 406.278456 341.32718 
L 406.43759 305.217745 
L 406.594757 319.098437 
L 406.749649 320.960001 
L 406.902333 330.097986 
L 407.052578 314.170343 
L 407.202555 338.93041 
L 407.352511 298.468999 
L 407.503097 332.020624 
L 407.653646 301.575101 
L 407.803944 329.717362 
L 407.954375 316.524825 
L 408.105171 333.774507 
L 408.256131 332.680464 
L 408.406357 333.800867 
L 409.006898 273.052667 
L 409.157103 281.823596 
L 409.457491 324.495254 
L 409.607609 315.321974 
L 409.759518 347.043429 
L 409.910576 314.333449 
L 410.06125 330.355873 
L 410.212193 318.298396 
L 410.362956 338.433563 
L 410.666135 309.502509 
L 410.816653 314.224868 
L 411.118023 348.729173 
L 411.268291 310.774931 
L 411.572704 342.013861 
L 411.725859 321.085002 
L 411.879758 322.904623 
L 412.033148 333.009471 
L 412.186717 325.756106 
L 412.339988 324.437426 
L 412.497215 352.174167 
L 412.972192 352.174167 
L 413.128394 247.6982 
L 413.278439 280.403465 
L 413.428626 288.258645 
L 413.579176 285.379567 
L 413.730056 279.932797 
L 414.032513 311.408408 
L 414.182399 316.422237 
L 414.482968 341.809487 
L 414.633209 330.261694 
L 414.783595 338.93041 
L 414.934312 340.690854 
L 415.092531 325.236427 
L 415.243415 344.741957 
L 415.39449 325.83801 
L 415.547181 337.435896 
L 415.697366 325.110838 
L 415.847747 333.199517 
L 415.99782 352.174167 
L 416.147882 319.258096 
L 416.298324 348.149241 
L 416.448687 321.655945 
L 416.598821 351.022536 
L 416.748877 316.948196 
L 416.902678 339.191554 
L 417.054805 311.24471 
L 417.207846 340.853048 
L 417.36029 319.863342 
L 417.512584 352.174167 
L 417.663118 318.395184 
L 417.813175 348.709317 
L 417.963131 313.483347 
L 418.113133 348.714303 
L 418.263841 314.224868 
L 418.715926 352.174167 
L 418.871773 319.24201 
L 419.022812 352.174167 
L 419.173939 337.288513 
L 419.474674 332.020624 
L 419.627029 337.373091 
L 419.928255 322.849708 
L 420.079648 336.715988 
L 420.229702 320.549751 
L 420.382575 336.234546 
L 420.540049 313.141932 
L 420.690342 352.174167 
L 420.841878 323.54791 
L 420.992601 317.150064 
L 421.146429 344.282822 
L 421.447855 296.320062 
L 421.598403 334.375033 
L 421.748663 309.685911 
L 422.049786 338.93041 
L 422.350437 317.099815 
L 422.501124 352.174167 
L 422.651946 309.049963 
L 422.803324 351.602458 
L 422.956836 304.127276 
L 423.109971 331.289095 
L 423.263088 327.302835 
L 423.416439 314.919714 
L 423.569681 332.390153 
L 423.722162 328.933047 
L 423.872931 312.613417 
L 424.023348 310.774931 
L 424.173402 326.80183 
L 424.32342 308.925865 
L 424.623397 341.21793 
L 424.773447 317.575525 
L 424.923538 352.174167 
L 425.073316 292.69425 
L 425.223398 326.187795 
L 425.373806 330.293177 
L 425.52425 314.799857 
L 425.82421 345.821943 
L 425.974042 306.553648 
L 426.124022 310.595972 
L 426.274092 275.480512 
L 426.424019 279.412326 
L 426.574027 326.80183 
L 426.725124 284.422625 
L 427.026465 349.867591 
L 427.176425 352.174167 
L 427.476319 352.174167 
L 427.628056 335.570938 
L 427.778705 259.600877 
L 428.229913 275.700579 
L 428.380272 340.116689 
L 428.530676 352.174167 
L 430.649619 352.174167 
L 430.803021 322.257712 
L 430.956711 343.707246 
L 431.107412 319.540234 
L 431.257988 334.349496 
L 431.408409 329.174592 
L 431.70933 311.982574 
L 431.861709 337.394085 
L 432.013113 333.879498 
L 432.165938 343.117272 
L 432.317566 326.447288 
L 432.470133 335.120226 
L 432.620612 325.800333 
L 432.772129 350.456591 
L 432.924781 308.649336 
L 433.076122 314.960033 
L 433.227126 297.133123 
L 433.378836 306.502646 
L 433.529207 294.10024 
L 433.831575 352.174167 
L 433.984423 312.950104 
L 434.285726 307.963415 
L 434.436316 319.399772 
L 434.586178 293.271725 
L 434.88953 316.626826 
L 435.041058 319.109415 
L 435.191417 348.719274 
L 435.343924 328.900128 
L 435.495371 334.451206 
L 435.647773 335.096002 
L 435.79852 320.640236 
L 435.949501 317.773515 
L 436.100263 338.968358 
L 436.250703 323.424698 
L 436.402332 331.621982 
L 436.553683 308.662256 
L 436.704634 322.40286 
L 436.855763 321.786924 
L 437.157952 310.139634 
L 437.308014 333.721558 
L 437.459663 314.441412 
L 437.610086 313.074889 
L 437.761544 313.297995 
L 437.91195 307.836372 
L 438.063759 352.174167 
L 438.216775 318.258714 
L 438.366735 352.174167 
L 438.670063 291.262046 
L 438.820108 344.677794 
L 438.970246 308.349221 
L 439.120961 325.762549 
L 439.424462 243.028949 
L 439.576906 243.183546 
L 439.727652 281.65283 
L 439.8786 253.991847 
L 440.029127 307.260557 
L 440.179168 280.773043 
L 440.329402 329.652645 
L 440.629649 344.677794 
L 440.780387 314.799857 
L 440.930724 344.135848 
L 441.081897 295.413091 
L 441.233081 318.967709 
L 441.383533 278.000537 
L 441.536046 314.708641 
L 441.689591 305.398698 
L 441.846642 352.174167 
L 442.163588 352.174167 
L 442.321697 333.089995 
L 442.624046 274.199355 
L 442.774117 271.444003 
L 442.924045 274.215052 
L 443.074099 320.458745 
L 443.373849 313.483347 
L 443.52379 326.187795 
L 443.673627 303.088798 
L 443.823519 320.990521 
L 443.973944 318.776867 
L 444.125063 341.296189 
L 444.275938 321.743389 
L 444.578701 312.097407 
L 444.729485 300.499262 
L 444.879944 265.350771 
L 445.030407 310.655797 
L 445.180682 289.319968 
L 445.331485 325.303871 
L 445.482923 318.44337 
L 445.633163 339.487998 
L 445.783266 287.013392 
L 445.933708 318.776867 
L 446.084058 304.381479 
L 446.235227 340.133938 
L 446.386387 339.596582 
L 446.536772 336.074464 
L 446.691499 349.925821 
L 446.843313 314.140981 
L 446.994541 346.448915 
L 447.297747 301.935494 
L 447.45065 327.197149 
L 447.601233 280.977631 
L 447.751615 300.350771 
L 447.90205 273.975611 
L 448.053439 302.293221 
L 448.206182 298.398854 
L 448.356539 306.815083 
L 448.507166 298.700155 
L 448.657928 317.150064 
L 448.808502 311.867081 
L 448.958868 341.824358 
L 449.10955 311.92491 
L 449.260025 316.575899 
L 449.410721 283.652121 
L 449.561141 309.685911 
L 449.712328 284.519551 
L 450.014268 348.155007 
L 450.317524 329.43558 
L 450.468009 334.874846 
L 450.619078 297.290159 
L 450.770273 293.776603 
L 450.92071 296.239696 
L 451.072284 295.736056 
L 451.223289 301.791955 
L 451.524469 340.09939 
L 451.675027 317.099815 
L 451.824924 336.627148 
L 451.97498 287.013392 
L 452.125427 315.268949 
L 452.275892 313.018712 
L 452.426951 335.570938 
L 452.579225 336.82562 
L 452.729964 339.560594 
L 452.880428 333.199517 
L 453.031171 312.55674 
L 453.183792 330.633617 
L 453.336297 333.388186 
L 453.638859 304.518421 
L 453.789636 341.280627 
L 453.940972 315.532558 
L 454.093948 310.735024 
L 454.24448 301.719877 
L 454.394887 266.377655 
L 454.545576 311.92491 
L 454.998132 340.674379 
L 455.148222 332.596439 
L 455.29899 334.973841 
L 455.600655 311.809085 
L 455.750521 321.655945 
L 455.901428 303.944255 
L 456.053411 324.732163 
L 456.204207 304.722369 
L 456.355242 310.834243 
L 456.662616 352.174167 
L 457.139918 352.174167 
L 457.443022 300.793706 
L 457.593428 303.736069 
L 457.743637 301.000112 
L 457.893625 267.285353 
L 458.043914 274.439073 
L 458.197347 291.776797 
L 458.348632 287.571116 
L 458.651101 332.76377 
L 458.962878 339.495137 
L 459.120958 300.639072 
L 459.278683 296.405688 
L 459.429757 267.110959 
L 459.58128 280.608525 
L 459.732532 272.249005 
L 460.185563 341.883415 
L 460.338539 323.87137 
L 460.489433 352.174167 
L 460.639902 304.957295 
L 460.79 323.341966 
L 460.942061 319.633208 
L 461.092844 352.174167 
L 461.243571 290.164281 
L 461.393938 291.225293 
L 461.546171 291.262046 
L 461.698312 279.20368 
L 462.15481 340.236408 
L 462.306201 311.069798 
L 462.458124 312.268432 
L 462.610613 306.761408 
L 463.062077 336.604778 
L 463.212612 314.224868 
L 463.363831 311.466728 
L 463.514839 314.333449 
L 463.816029 286.239584 
L 463.967858 298.51013 
L 464.119384 292.230295 
L 464.270559 329.845686 
L 464.425321 329.7222 
L 464.731084 343.130046 
L 465.034564 307.329067 
L 465.186676 336.234546 
L 465.492391 296.292488 
L 465.796576 315.380531 
L 465.947188 322.274719 
L 466.097959 335.523364 
L 466.25069 317.595916 
L 466.401358 346.432511 
L 466.552555 313.814982 
L 466.70383 310.952357 
L 466.855597 300.370401 
L 467.005886 301.502402 
L 467.155951 297.891524 
L 467.759943 350.44672 
L 468.061892 281.450473 
L 468.212803 295.986435 
L 468.364758 287.277141 
L 468.515174 325.149666 
L 468.665216 319.258096 
L 468.816282 318.346859 
L 468.967576 352.174167 
L 469.118823 341.311707 
L 469.270089 318.395184 
L 469.420222 338.93041 
L 469.571034 314.279236 
L 469.721539 317.575525 
L 469.873046 332.192876 
L 470.024316 305.865785 
L 470.175194 302.866565 
L 470.325442 348.149241 
L 470.627287 286.812928 
L 471.235103 328.024613 
L 471.393068 352.174167 
L 471.863426 352.174167 
L 472.015104 308.786222 
L 472.166166 330.449247 
L 472.321478 299.559426 
L 472.623129 337.288513 
L 472.774058 332.10712 
L 472.924884 317.773515 
L 473.074958 337.159819 
L 473.227008 323.629466 
L 473.529448 341.296189 
L 473.680704 320.158496 
L 473.832249 344.741957 
L 473.984601 332.277903 
L 474.135105 350.45167 
L 474.28626 311.466728 
L 474.587387 344.677794 
L 474.738808 305.227105 
L 474.890079 352.174167 
L 475.041263 308.724327 
L 475.192143 330.89956 
L 475.35084 334.106775 
L 475.501204 326.983061 
L 475.652741 325.87558 
L 475.804066 339.596582 
L 475.95427 315.374847 
L 476.108991 343.742871 
L 476.260537 329.403281 
L 476.41205 352.174167 
L 476.566803 316.301263 
L 476.71763 352.174167 
L 476.869094 303.50953 
L 477.020702 352.174167 
L 477.171804 319.725654 
L 477.322998 348.166491 
L 477.473951 318.920203 
L 477.625468 345.313666 
L 477.776356 318.395184 
L 477.927798 314.960033 
L 478.078628 298.279812 
L 478.230933 307.201667 
L 478.53271 345.313666 
L 478.834381 317.674804 
L 478.985652 325.800333 
L 479.146537 324.553697 
L 479.298458 331.230097 
L 479.449819 296.718451 
L 479.601151 318.395184 
L 479.752731 287.663143 
L 479.904112 283.569157 
L 480.055513 285.950461 
L 480.660678 337.309748 
L 480.812626 349.893839 
L 480.965133 344.794593 
L 481.118712 344.304957 
L 481.269924 313.924268 
L 481.422277 318.539333 
L 481.573306 305.733286 
L 481.879073 334.626433 
L 482.030853 333.983297 
L 482.183684 320.997055 
L 482.336047 324.279831 
L 482.488055 309.539316 
L 482.640249 316.360892 
L 482.793045 315.84396 
L 482.945658 349.909943 
L 483.09771 309.539316 
L 483.249699 352.174167 
L 483.402005 308.464386 
L 483.861916 352.174167 
L 484.012993 312.154578 
L 484.165297 336.211873 
L 484.316753 329.972553 
L 484.472359 335.964599 
L 484.625122 333.494321 
L 484.779935 352.174167 
L 484.931209 352.174167 
L 485.388306 277.852073 
L 485.539417 301.719877 
L 485.691688 290.866942 
L 485.843958 308.84794 
L 486.150718 352.174167 
L 486.463371 352.174167 
L 486.614055 290.157575 
L 486.76496 325.303871 
L 487.067954 249.119642 
L 487.37032 305.427448 
L 487.520317 320.504314 
L 487.671077 352.174167 
L 487.822884 328.196618 
L 487.981466 351.625921 
L 488.136797 328.338749 
L 488.287956 352.174167 
L 488.439667 332.192876 
L 488.592898 352.174167 
L 488.743608 324.653645 
L 488.893874 352.174167 
L 489.044425 321.080129 
L 489.194722 352.174167 
L 489.345134 330.868993 
L 489.497428 349.323757 
L 489.648767 339.024873 
L 489.799495 342.441239 
L 489.949959 319.305457 
L 490.100498 352.174167 
L 490.251672 315.427568 
L 490.40315 341.32718 
L 490.553437 328.633377 
L 490.704145 342.399347 
L 490.856284 313.408595 
L 491.012161 342.711598 
L 491.162688 329.877539 
L 491.312718 344.10115 
L 491.462422 318.053982 
L 491.612718 330.261694 
L 491.764141 308.662256 
L 492.067238 337.309748 
L 492.369378 326.91088 
L 492.523406 323.427124 
L 492.674351 322.975385 
L 492.824426 323.341966 
L 492.97449 299.699561 
L 493.132446 351.623662 
L 493.284816 316.512643 
L 493.435656 340.707283 
L 493.585904 321.080129 
L 493.735982 349.290947 
L 493.901029 308.521003 
L 494.203494 349.29922 
L 494.354509 311.524882 
L 494.504836 344.11275 
L 494.655479 312.442896 
L 494.80738 331.533775 
L 494.964732 332.191295 
L 495.115695 316.829087 
L 495.266121 352.174167 
L 495.416931 294.405865 
L 495.571009 352.174167 
L 495.571009 352.174167 
" style="fill:none;stroke:#1f77b4;stroke-linecap:square;stroke-width:1.5;"/>
   </g>
   <g id="patch_3">
    <path d="M 66.158594 352.174167 
L 66.158594 35.0625 
" style="fill:none;stroke:#000000;stroke-linecap:square;stroke-linejoin:miter;stroke-width:0.8;"/>
   </g>
   <g id="patch_4">
    <path d="M 516.019219 352.174167 
L 516.019219 35.0625 
" style="fill:none;stroke:#000000;stroke-linecap:square;stroke-linejoin:miter;stroke-width:0.8;"/>
   </g>
   <g id="patch_5">
    <path d="M 66.158594 352.174167 
L 516.019219 352.174167 
" style="fill:none;stroke:#000000;stroke-linecap:square;stroke-linejoin:miter;stroke-width:0.8;"/>
   </g>
   <g id="patch_6">
    <path d="M 66.158594 35.0625 
L 516.019219 35.0625 
" style="fill:none;stroke:#000000;stroke-linecap:square;stroke-linejoin:miter;stroke-width:0.8;"/>
   </g>
   <g id="legend_1">
    <g id="patch_7">
     <path d="M 540.51225 53.01875 
L 620.748187 53.01875 
Q 622.748187 53.01875 622.748187 51.01875 
L 622.748187 37.0625 
Q 622.748187 35.0625 620.748187 35.0625 
L 540.51225 35.0625 
Q 538.51225 35.0625 538.51225 37.0625 
L 538.51225 51.01875 
Q 538.51225 53.01875 540.51225 53.01875 
z
" style="fill:#ffffff;opacity:0.8;stroke:#cccccc;stroke-linejoin:miter;"/>
    </g>
    <g id="line2d_16">
     <path d="M 542.51225 43.160937 
L 562.51225 43.160937 
" style="fill:none;stroke:#1f77b4;stroke-linecap:square;stroke-width:1.5;"/>
    </g>
    <g id="line2d_17"/>
    <g id="text_16">
     <!-- drop_rate -->
     <defs>
      <path d="M 50.984375 -16.609375 
L 50.984375 -23.578125 
L -0.984375 -23.578125 
L -0.984375 -16.609375 
z
" id="DejaVuSans-95"/>
     </defs>
     <g transform="translate(570.51225 46.660937)scale(0.1 -0.1)">
      <use xlink:href="#DejaVuSans-100"/>
      <use x="63.476562" xlink:href="#DejaVuSans-114"/>
      <use x="104.558594" xlink:href="#DejaVuSans-111"/>
      <use x="165.740234" xlink:href="#DejaVuSans-112"/>
      <use x="229.216797" xlink:href="#DejaVuSans-95"/>
      <use x="279.216797" xlink:href="#DejaVuSans-114"/>
      <use x="320.330078" xlink:href="#DejaVuSans-97"/>
      <use x="381.609375" xlink:href="#DejaVuSans-116"/>
      <use x="420.818359" xlink:href="#DejaVuSans-101"/>
     </g>
    </g>
   </g>
  </g>
  <g id="text_17">
   <!-- result droprate -->
   <defs>
    <path d="M 44.28125 53.078125 
L 44.28125 44.578125 
Q 40.484375 46.53125 36.375 47.5 
Q 32.28125 48.484375 27.875 48.484375 
Q 21.1875 48.484375 17.84375 46.4375 
Q 14.5 44.390625 14.5 40.28125 
Q 14.5 37.15625 16.890625 35.375 
Q 19.28125 33.59375 26.515625 31.984375 
L 29.59375 31.296875 
Q 39.15625 29.25 43.1875 25.515625 
Q 47.21875 21.78125 47.21875 15.09375 
Q 47.21875 7.46875 41.1875 3.015625 
Q 35.15625 -1.421875 24.609375 -1.421875 
Q 20.21875 -1.421875 15.453125 -0.5625 
Q 10.6875 0.296875 5.421875 2 
L 5.421875 11.28125 
Q 10.40625 8.6875 15.234375 7.390625 
Q 20.0625 6.109375 24.8125 6.109375 
Q 31.15625 6.109375 34.5625 8.28125 
Q 37.984375 10.453125 37.984375 14.40625 
Q 37.984375 18.0625 35.515625 20.015625 
Q 33.0625 21.96875 24.703125 23.78125 
L 21.578125 24.515625 
Q 13.234375 26.265625 9.515625 29.90625 
Q 5.8125 33.546875 5.8125 39.890625 
Q 5.8125 47.609375 11.28125 51.796875 
Q 16.75 56 26.8125 56 
Q 31.78125 56 36.171875 55.265625 
Q 40.578125 54.546875 44.28125 53.078125 
z
" id="DejaVuSans-115"/>
    <path d="M 8.5 21.578125 
L 8.5 54.6875 
L 17.484375 54.6875 
L 17.484375 21.921875 
Q 17.484375 14.15625 20.5 10.265625 
Q 23.53125 6.390625 29.59375 6.390625 
Q 36.859375 6.390625 41.078125 11.03125 
Q 45.3125 15.671875 45.3125 23.6875 
L 45.3125 54.6875 
L 54.296875 54.6875 
L 54.296875 0 
L 45.3125 0 
L 45.3125 8.40625 
Q 42.046875 3.421875 37.71875 1 
Q 33.40625 -1.421875 27.6875 -1.421875 
Q 18.265625 -1.421875 13.375 4.4375 
Q 8.5 10.296875 8.5 21.578125 
z
M 31.109375 56 
z
" id="DejaVuSans-117"/>
    <path d="M 9.421875 75.984375 
L 18.40625 75.984375 
L 18.40625 0 
L 9.421875 0 
z
" id="DejaVuSans-108"/>
    <path id="DejaVuSans-32"/>
   </defs>
   <g transform="translate(297.047813 17.038125)scale(0.12 -0.12)">
    <use xlink:href="#DejaVuSans-114"/>
    <use x="41.082031" xlink:href="#DejaVuSans-101"/>
    <use x="102.605469" xlink:href="#DejaVuSans-115"/>
    <use x="154.705078" xlink:href="#DejaVuSans-117"/>
    <use x="218.083984" xlink:href="#DejaVuSans-108"/>
    <use x="245.867188" xlink:href="#DejaVuSans-116"/>
    <use x="285.076172" xlink:href="#DejaVuSans-32"/>
    <use x="316.863281" xlink:href="#DejaVuSans-100"/>
    <use x="380.339844" xlink:href="#DejaVuSans-114"/>
    <use x="421.421875" xlink:href="#DejaVuSans-111"/>
    <use x="482.603516" xlink:href="#DejaVuSans-112"/>
    <use x="546.080078" xlink:href="#DejaVuSans-114"/>
    <use x="587.193359" xlink:href="#DejaVuSans-97"/>
    <use x="648.472656" xlink:href="#DejaVuSans-116"/>
    <use x="687.681641" xlink:href="#DejaVuSans-101"/>
   </g>
  </g>
 </g>
 <defs>
  <clipPath id="p00aac0f86a">
   <rect height="317.111667" width="449.860625" x="66.158594" y="35.0625"/>
  </clipPath>
 </defs>
</svg>
