<?xml version="1.0" encoding="utf-8" standalone="no"?>
<!DOCTYPE svg PUBLIC "-//W3C//DTD SVG 1.1//EN"
  "http://www.w3.org/Graphics/SVG/1.1/DTD/svg11.dtd">
<!-- Created with matplotlib (https://matplotlib.org/) -->
<svg height="396pt" version="1.1" viewBox="0 0 684 396" width="684pt" xmlns="http://www.w3.org/2000/svg" xmlns:xlink="http://www.w3.org/1999/xlink">
 <defs>
  <style type="text/css">
*{stroke-linecap:butt;stroke-linejoin:round;}
  </style>
 </defs>
 <g id="figure_1">
  <g id="patch_1">
   <path d="M 0 396 
L 684 396 
L 684 0 
L 0 0 
z
" style="fill:#ffffff;"/>
  </g>
  <g id="axes_1">
   <g id="patch_2">
    <path d="M 120.878594 352.174167 
L 529.912969 352.174167 
L 529.912969 35.0625 
L 120.878594 35.0625 
z
" style="fill:#ffffff;"/>
   </g>
   <g id="matplotlib.axis_1">
    <g id="xtick_1">
     <g id="line2d_1">
      <defs>
       <path d="M 0 0 
L 0 3.5 
" id="m658b36d562" style="stroke:#000000;stroke-width:0.8;"/>
      </defs>
      <g>
       <use style="stroke:#000000;stroke-width:0.8;" x="139.434621" xlink:href="#m658b36d562" y="352.174167"/>
      </g>
     </g>
     <g id="text_1">
      <!-- 0 -->
      <defs>
       <path d="M 31.78125 66.40625 
Q 24.171875 66.40625 20.328125 58.90625 
Q 16.5 51.421875 16.5 36.375 
Q 16.5 21.390625 20.328125 13.890625 
Q 24.171875 6.390625 31.78125 6.390625 
Q 39.453125 6.390625 43.28125 13.890625 
Q 47.125 21.390625 47.125 36.375 
Q 47.125 51.421875 43.28125 58.90625 
Q 39.453125 66.40625 31.78125 66.40625 
z
M 31.78125 74.21875 
Q 44.046875 74.21875 50.515625 64.515625 
Q 56.984375 54.828125 56.984375 36.375 
Q 56.984375 17.96875 50.515625 8.265625 
Q 44.046875 -1.421875 31.78125 -1.421875 
Q 19.53125 -1.421875 13.0625 8.265625 
Q 6.59375 17.96875 6.59375 36.375 
Q 6.59375 54.828125 13.0625 64.515625 
Q 19.53125 74.21875 31.78125 74.21875 
z
" id="DejaVuSans-48"/>
      </defs>
      <g transform="translate(136.253371 366.772604)scale(0.1 -0.1)">
       <use xlink:href="#DejaVuSans-48"/>
      </g>
     </g>
    </g>
    <g id="xtick_2">
     <g id="line2d_2">
      <g>
       <use style="stroke:#000000;stroke-width:0.8;" x="206.924336" xlink:href="#m658b36d562" y="352.174167"/>
      </g>
     </g>
     <g id="text_2">
      <!-- 50 -->
      <defs>
       <path d="M 10.796875 72.90625 
L 49.515625 72.90625 
L 49.515625 64.59375 
L 19.828125 64.59375 
L 19.828125 46.734375 
Q 21.96875 47.46875 24.109375 47.828125 
Q 26.265625 48.1875 28.421875 48.1875 
Q 40.625 48.1875 47.75 41.5 
Q 54.890625 34.8125 54.890625 23.390625 
Q 54.890625 11.625 47.5625 5.09375 
Q 40.234375 -1.421875 26.90625 -1.421875 
Q 22.3125 -1.421875 17.546875 -0.640625 
Q 12.796875 0.140625 7.71875 1.703125 
L 7.71875 11.625 
Q 12.109375 9.234375 16.796875 8.0625 
Q 21.484375 6.890625 26.703125 6.890625 
Q 35.15625 6.890625 40.078125 11.328125 
Q 45.015625 15.765625 45.015625 23.390625 
Q 45.015625 31 40.078125 35.4375 
Q 35.15625 39.890625 26.703125 39.890625 
Q 22.75 39.890625 18.8125 39.015625 
Q 14.890625 38.140625 10.796875 36.28125 
z
" id="DejaVuSans-53"/>
      </defs>
      <g transform="translate(200.561836 366.772604)scale(0.1 -0.1)">
       <use xlink:href="#DejaVuSans-53"/>
       <use x="63.623047" xlink:href="#DejaVuSans-48"/>
      </g>
     </g>
    </g>
    <g id="xtick_3">
     <g id="line2d_3">
      <g>
       <use style="stroke:#000000;stroke-width:0.8;" x="274.414051" xlink:href="#m658b36d562" y="352.174167"/>
      </g>
     </g>
     <g id="text_3">
      <!-- 100 -->
      <defs>
       <path d="M 12.40625 8.296875 
L 28.515625 8.296875 
L 28.515625 63.921875 
L 10.984375 60.40625 
L 10.984375 69.390625 
L 28.421875 72.90625 
L 38.28125 72.90625 
L 38.28125 8.296875 
L 54.390625 8.296875 
L 54.390625 0 
L 12.40625 0 
z
" id="DejaVuSans-49"/>
      </defs>
      <g transform="translate(264.870301 366.772604)scale(0.1 -0.1)">
       <use xlink:href="#DejaVuSans-49"/>
       <use x="63.623047" xlink:href="#DejaVuSans-48"/>
       <use x="127.246094" xlink:href="#DejaVuSans-48"/>
      </g>
     </g>
    </g>
    <g id="xtick_4">
     <g id="line2d_4">
      <g>
       <use style="stroke:#000000;stroke-width:0.8;" x="341.903766" xlink:href="#m658b36d562" y="352.174167"/>
      </g>
     </g>
     <g id="text_4">
      <!-- 150 -->
      <g transform="translate(332.360016 366.772604)scale(0.1 -0.1)">
       <use xlink:href="#DejaVuSans-49"/>
       <use x="63.623047" xlink:href="#DejaVuSans-53"/>
       <use x="127.246094" xlink:href="#DejaVuSans-48"/>
      </g>
     </g>
    </g>
    <g id="xtick_5">
     <g id="line2d_5">
      <g>
       <use style="stroke:#000000;stroke-width:0.8;" x="409.39348" xlink:href="#m658b36d562" y="352.174167"/>
      </g>
     </g>
     <g id="text_5">
      <!-- 200 -->
      <defs>
       <path d="M 19.1875 8.296875 
L 53.609375 8.296875 
L 53.609375 0 
L 7.328125 0 
L 7.328125 8.296875 
Q 12.9375 14.109375 22.625 23.890625 
Q 32.328125 33.6875 34.8125 36.53125 
Q 39.546875 41.84375 41.421875 45.53125 
Q 43.3125 49.21875 43.3125 52.78125 
Q 43.3125 58.59375 39.234375 62.25 
Q 35.15625 65.921875 28.609375 65.921875 
Q 23.96875 65.921875 18.8125 64.3125 
Q 13.671875 62.703125 7.8125 59.421875 
L 7.8125 69.390625 
Q 13.765625 71.78125 18.9375 73 
Q 24.125 74.21875 28.421875 74.21875 
Q 39.75 74.21875 46.484375 68.546875 
Q 53.21875 62.890625 53.21875 53.421875 
Q 53.21875 48.921875 51.53125 44.890625 
Q 49.859375 40.875 45.40625 35.40625 
Q 44.1875 33.984375 37.640625 27.21875 
Q 31.109375 20.453125 19.1875 8.296875 
z
" id="DejaVuSans-50"/>
      </defs>
      <g transform="translate(399.84973 366.772604)scale(0.1 -0.1)">
       <use xlink:href="#DejaVuSans-50"/>
       <use x="63.623047" xlink:href="#DejaVuSans-48"/>
       <use x="127.246094" xlink:href="#DejaVuSans-48"/>
      </g>
     </g>
    </g>
    <g id="xtick_6">
     <g id="line2d_6">
      <g>
       <use style="stroke:#000000;stroke-width:0.8;" x="476.883195" xlink:href="#m658b36d562" y="352.174167"/>
      </g>
     </g>
     <g id="text_6">
      <!-- 250 -->
      <g transform="translate(467.339445 366.772604)scale(0.1 -0.1)">
       <use xlink:href="#DejaVuSans-50"/>
       <use x="63.623047" xlink:href="#DejaVuSans-53"/>
       <use x="127.246094" xlink:href="#DejaVuSans-48"/>
      </g>
     </g>
    </g>
   </g>
   <g id="matplotlib.axis_2">
    <g id="ytick_1">
     <g id="line2d_7">
      <defs>
       <path d="M 0 0 
L -3.5 0 
" id="mbd2af52233" style="stroke:#000000;stroke-width:0.8;"/>
      </defs>
      <g>
       <use style="stroke:#000000;stroke-width:0.8;" x="120.878594" xlink:href="#mbd2af52233" y="352.174167"/>
      </g>
     </g>
     <g id="text_7">
      <!-- 0 -->
      <g transform="translate(107.516094 355.973385)scale(0.1 -0.1)">
       <use xlink:href="#DejaVuSans-48"/>
      </g>
     </g>
    </g>
    <g id="ytick_2">
     <g id="line2d_8">
      <g>
       <use style="stroke:#000000;stroke-width:0.8;" x="120.878594" xlink:href="#mbd2af52233" y="296.106637"/>
      </g>
     </g>
     <g id="text_8">
      <!-- 100000 -->
      <g transform="translate(75.703594 299.905856)scale(0.1 -0.1)">
       <use xlink:href="#DejaVuSans-49"/>
       <use x="63.623047" xlink:href="#DejaVuSans-48"/>
       <use x="127.246094" xlink:href="#DejaVuSans-48"/>
       <use x="190.869141" xlink:href="#DejaVuSans-48"/>
       <use x="254.492188" xlink:href="#DejaVuSans-48"/>
       <use x="318.115234" xlink:href="#DejaVuSans-48"/>
      </g>
     </g>
    </g>
    <g id="ytick_3">
     <g id="line2d_9">
      <g>
       <use style="stroke:#000000;stroke-width:0.8;" x="120.878594" xlink:href="#mbd2af52233" y="240.039108"/>
      </g>
     </g>
     <g id="text_9">
      <!-- 200000 -->
      <g transform="translate(75.703594 243.838327)scale(0.1 -0.1)">
       <use xlink:href="#DejaVuSans-50"/>
       <use x="63.623047" xlink:href="#DejaVuSans-48"/>
       <use x="127.246094" xlink:href="#DejaVuSans-48"/>
       <use x="190.869141" xlink:href="#DejaVuSans-48"/>
       <use x="254.492188" xlink:href="#DejaVuSans-48"/>
       <use x="318.115234" xlink:href="#DejaVuSans-48"/>
      </g>
     </g>
    </g>
    <g id="ytick_4">
     <g id="line2d_10">
      <g>
       <use style="stroke:#000000;stroke-width:0.8;" x="120.878594" xlink:href="#mbd2af52233" y="183.971578"/>
      </g>
     </g>
     <g id="text_10">
      <!-- 300000 -->
      <defs>
       <path d="M 40.578125 39.3125 
Q 47.65625 37.796875 51.625 33 
Q 55.609375 28.21875 55.609375 21.1875 
Q 55.609375 10.40625 48.1875 4.484375 
Q 40.765625 -1.421875 27.09375 -1.421875 
Q 22.515625 -1.421875 17.65625 -0.515625 
Q 12.796875 0.390625 7.625 2.203125 
L 7.625 11.71875 
Q 11.71875 9.328125 16.59375 8.109375 
Q 21.484375 6.890625 26.8125 6.890625 
Q 36.078125 6.890625 40.9375 10.546875 
Q 45.796875 14.203125 45.796875 21.1875 
Q 45.796875 27.640625 41.28125 31.265625 
Q 36.765625 34.90625 28.71875 34.90625 
L 20.21875 34.90625 
L 20.21875 43.015625 
L 29.109375 43.015625 
Q 36.375 43.015625 40.234375 45.921875 
Q 44.09375 48.828125 44.09375 54.296875 
Q 44.09375 59.90625 40.109375 62.90625 
Q 36.140625 65.921875 28.71875 65.921875 
Q 24.65625 65.921875 20.015625 65.03125 
Q 15.375 64.15625 9.8125 62.3125 
L 9.8125 71.09375 
Q 15.4375 72.65625 20.34375 73.4375 
Q 25.25 74.21875 29.59375 74.21875 
Q 40.828125 74.21875 47.359375 69.109375 
Q 53.90625 64.015625 53.90625 55.328125 
Q 53.90625 49.265625 50.4375 45.09375 
Q 46.96875 40.921875 40.578125 39.3125 
z
" id="DejaVuSans-51"/>
      </defs>
      <g transform="translate(75.703594 187.770797)scale(0.1 -0.1)">
       <use xlink:href="#DejaVuSans-51"/>
       <use x="63.623047" xlink:href="#DejaVuSans-48"/>
       <use x="127.246094" xlink:href="#DejaVuSans-48"/>
       <use x="190.869141" xlink:href="#DejaVuSans-48"/>
       <use x="254.492188" xlink:href="#DejaVuSans-48"/>
       <use x="318.115234" xlink:href="#DejaVuSans-48"/>
      </g>
     </g>
    </g>
    <g id="ytick_5">
     <g id="line2d_11">
      <g>
       <use style="stroke:#000000;stroke-width:0.8;" x="120.878594" xlink:href="#mbd2af52233" y="127.904049"/>
      </g>
     </g>
     <g id="text_11">
      <!-- 400000 -->
      <defs>
       <path d="M 37.796875 64.3125 
L 12.890625 25.390625 
L 37.796875 25.390625 
z
M 35.203125 72.90625 
L 47.609375 72.90625 
L 47.609375 25.390625 
L 58.015625 25.390625 
L 58.015625 17.1875 
L 47.609375 17.1875 
L 47.609375 0 
L 37.796875 0 
L 37.796875 17.1875 
L 4.890625 17.1875 
L 4.890625 26.703125 
z
" id="DejaVuSans-52"/>
      </defs>
      <g transform="translate(75.703594 131.703268)scale(0.1 -0.1)">
       <use xlink:href="#DejaVuSans-52"/>
       <use x="63.623047" xlink:href="#DejaVuSans-48"/>
       <use x="127.246094" xlink:href="#DejaVuSans-48"/>
       <use x="190.869141" xlink:href="#DejaVuSans-48"/>
       <use x="254.492188" xlink:href="#DejaVuSans-48"/>
       <use x="318.115234" xlink:href="#DejaVuSans-48"/>
      </g>
     </g>
    </g>
    <g id="ytick_6">
     <g id="line2d_12">
      <g>
       <use style="stroke:#000000;stroke-width:0.8;" x="120.878594" xlink:href="#mbd2af52233" y="71.83652"/>
      </g>
     </g>
     <g id="text_12">
      <!-- 500000 -->
      <g transform="translate(75.703594 75.635738)scale(0.1 -0.1)">
       <use xlink:href="#DejaVuSans-53"/>
       <use x="63.623047" xlink:href="#DejaVuSans-48"/>
       <use x="127.246094" xlink:href="#DejaVuSans-48"/>
       <use x="190.869141" xlink:href="#DejaVuSans-48"/>
       <use x="254.492188" xlink:href="#DejaVuSans-48"/>
       <use x="318.115234" xlink:href="#DejaVuSans-48"/>
      </g>
     </g>
    </g>
    <g id="text_13">
     <!-- inflight -->
     <defs>
      <path d="M 9.421875 54.6875 
L 18.40625 54.6875 
L 18.40625 0 
L 9.421875 0 
z
M 9.421875 75.984375 
L 18.40625 75.984375 
L 18.40625 64.59375 
L 9.421875 64.59375 
z
" id="DejaVuSans-105"/>
      <path d="M 54.890625 33.015625 
L 54.890625 0 
L 45.90625 0 
L 45.90625 32.71875 
Q 45.90625 40.484375 42.875 44.328125 
Q 39.84375 48.1875 33.796875 48.1875 
Q 26.515625 48.1875 22.3125 43.546875 
Q 18.109375 38.921875 18.109375 30.90625 
L 18.109375 0 
L 9.078125 0 
L 9.078125 54.6875 
L 18.109375 54.6875 
L 18.109375 46.1875 
Q 21.34375 51.125 25.703125 53.5625 
Q 30.078125 56 35.796875 56 
Q 45.21875 56 50.046875 50.171875 
Q 54.890625 44.34375 54.890625 33.015625 
z
" id="DejaVuSans-110"/>
      <path d="M 37.109375 75.984375 
L 37.109375 68.5 
L 28.515625 68.5 
Q 23.6875 68.5 21.796875 66.546875 
Q 19.921875 64.59375 19.921875 59.515625 
L 19.921875 54.6875 
L 34.71875 54.6875 
L 34.71875 47.703125 
L 19.921875 47.703125 
L 19.921875 0 
L 10.890625 0 
L 10.890625 47.703125 
L 2.296875 47.703125 
L 2.296875 54.6875 
L 10.890625 54.6875 
L 10.890625 58.5 
Q 10.890625 67.625 15.140625 71.796875 
Q 19.390625 75.984375 28.609375 75.984375 
z
" id="DejaVuSans-102"/>
      <path d="M 9.421875 75.984375 
L 18.40625 75.984375 
L 18.40625 0 
L 9.421875 0 
z
" id="DejaVuSans-108"/>
      <path d="M 45.40625 27.984375 
Q 45.40625 37.75 41.375 43.109375 
Q 37.359375 48.484375 30.078125 48.484375 
Q 22.859375 48.484375 18.828125 43.109375 
Q 14.796875 37.75 14.796875 27.984375 
Q 14.796875 18.265625 18.828125 12.890625 
Q 22.859375 7.515625 30.078125 7.515625 
Q 37.359375 7.515625 41.375 12.890625 
Q 45.40625 18.265625 45.40625 27.984375 
z
M 54.390625 6.78125 
Q 54.390625 -7.171875 48.1875 -13.984375 
Q 42 -20.796875 29.203125 -20.796875 
Q 24.46875 -20.796875 20.265625 -20.09375 
Q 16.0625 -19.390625 12.109375 -17.921875 
L 12.109375 -9.1875 
Q 16.0625 -11.328125 19.921875 -12.34375 
Q 23.78125 -13.375 27.78125 -13.375 
Q 36.625 -13.375 41.015625 -8.765625 
Q 45.40625 -4.15625 45.40625 5.171875 
L 45.40625 9.625 
Q 42.625 4.78125 38.28125 2.390625 
Q 33.9375 0 27.875 0 
Q 17.828125 0 11.671875 7.65625 
Q 5.515625 15.328125 5.515625 27.984375 
Q 5.515625 40.671875 11.671875 48.328125 
Q 17.828125 56 27.875 56 
Q 33.9375 56 38.28125 53.609375 
Q 42.625 51.21875 45.40625 46.390625 
L 45.40625 54.6875 
L 54.390625 54.6875 
z
" id="DejaVuSans-103"/>
      <path d="M 54.890625 33.015625 
L 54.890625 0 
L 45.90625 0 
L 45.90625 32.71875 
Q 45.90625 40.484375 42.875 44.328125 
Q 39.84375 48.1875 33.796875 48.1875 
Q 26.515625 48.1875 22.3125 43.546875 
Q 18.109375 38.921875 18.109375 30.90625 
L 18.109375 0 
L 9.078125 0 
L 9.078125 75.984375 
L 18.109375 75.984375 
L 18.109375 46.1875 
Q 21.34375 51.125 25.703125 53.5625 
Q 30.078125 56 35.796875 56 
Q 45.21875 56 50.046875 50.171875 
Q 54.890625 44.34375 54.890625 33.015625 
z
" id="DejaVuSans-104"/>
      <path d="M 18.3125 70.21875 
L 18.3125 54.6875 
L 36.8125 54.6875 
L 36.8125 47.703125 
L 18.3125 47.703125 
L 18.3125 18.015625 
Q 18.3125 11.328125 20.140625 9.421875 
Q 21.96875 7.515625 27.59375 7.515625 
L 36.8125 7.515625 
L 36.8125 0 
L 27.59375 0 
Q 17.1875 0 13.234375 3.875 
Q 9.28125 7.765625 9.28125 18.015625 
L 9.28125 47.703125 
L 2.6875 47.703125 
L 2.6875 54.6875 
L 9.28125 54.6875 
L 9.28125 70.21875 
z
" id="DejaVuSans-116"/>
     </defs>
     <g transform="translate(58.426094 211.017552)rotate(-90)scale(0.1 -0.1)">
      <use xlink:href="#DejaVuSans-105"/>
      <use x="27.783203" xlink:href="#DejaVuSans-110"/>
      <use x="91.162109" xlink:href="#DejaVuSans-102"/>
      <use x="126.367188" xlink:href="#DejaVuSans-108"/>
      <use x="154.150391" xlink:href="#DejaVuSans-105"/>
      <use x="181.933594" xlink:href="#DejaVuSans-103"/>
      <use x="245.410156" xlink:href="#DejaVuSans-104"/>
      <use x="308.789062" xlink:href="#DejaVuSans-116"/>
     </g>
     <!-- (bytes) -->
     <defs>
      <path d="M 31 75.875 
Q 24.46875 64.65625 21.28125 53.65625 
Q 18.109375 42.671875 18.109375 31.390625 
Q 18.109375 20.125 21.3125 9.0625 
Q 24.515625 -2 31 -13.1875 
L 23.1875 -13.1875 
Q 15.875 -1.703125 12.234375 9.375 
Q 8.59375 20.453125 8.59375 31.390625 
Q 8.59375 42.28125 12.203125 53.3125 
Q 15.828125 64.359375 23.1875 75.875 
z
" id="DejaVuSans-40"/>
      <path d="M 48.6875 27.296875 
Q 48.6875 37.203125 44.609375 42.84375 
Q 40.53125 48.484375 33.40625 48.484375 
Q 26.265625 48.484375 22.1875 42.84375 
Q 18.109375 37.203125 18.109375 27.296875 
Q 18.109375 17.390625 22.1875 11.75 
Q 26.265625 6.109375 33.40625 6.109375 
Q 40.53125 6.109375 44.609375 11.75 
Q 48.6875 17.390625 48.6875 27.296875 
z
M 18.109375 46.390625 
Q 20.953125 51.265625 25.265625 53.625 
Q 29.59375 56 35.59375 56 
Q 45.5625 56 51.78125 48.09375 
Q 58.015625 40.1875 58.015625 27.296875 
Q 58.015625 14.40625 51.78125 6.484375 
Q 45.5625 -1.421875 35.59375 -1.421875 
Q 29.59375 -1.421875 25.265625 0.953125 
Q 20.953125 3.328125 18.109375 8.203125 
L 18.109375 0 
L 9.078125 0 
L 9.078125 75.984375 
L 18.109375 75.984375 
z
" id="DejaVuSans-98"/>
      <path d="M 32.171875 -5.078125 
Q 28.375 -14.84375 24.75 -17.8125 
Q 21.140625 -20.796875 15.09375 -20.796875 
L 7.90625 -20.796875 
L 7.90625 -13.28125 
L 13.1875 -13.28125 
Q 16.890625 -13.28125 18.9375 -11.515625 
Q 21 -9.765625 23.484375 -3.21875 
L 25.09375 0.875 
L 2.984375 54.6875 
L 12.5 54.6875 
L 29.59375 11.921875 
L 46.6875 54.6875 
L 56.203125 54.6875 
z
" id="DejaVuSans-121"/>
      <path d="M 56.203125 29.59375 
L 56.203125 25.203125 
L 14.890625 25.203125 
Q 15.484375 15.921875 20.484375 11.0625 
Q 25.484375 6.203125 34.421875 6.203125 
Q 39.59375 6.203125 44.453125 7.46875 
Q 49.3125 8.734375 54.109375 11.28125 
L 54.109375 2.78125 
Q 49.265625 0.734375 44.1875 -0.34375 
Q 39.109375 -1.421875 33.890625 -1.421875 
Q 20.796875 -1.421875 13.15625 6.1875 
Q 5.515625 13.8125 5.515625 26.8125 
Q 5.515625 40.234375 12.765625 48.109375 
Q 20.015625 56 32.328125 56 
Q 43.359375 56 49.78125 48.890625 
Q 56.203125 41.796875 56.203125 29.59375 
z
M 47.21875 32.234375 
Q 47.125 39.59375 43.09375 43.984375 
Q 39.0625 48.390625 32.421875 48.390625 
Q 24.90625 48.390625 20.390625 44.140625 
Q 15.875 39.890625 15.1875 32.171875 
z
" id="DejaVuSans-101"/>
      <path d="M 44.28125 53.078125 
L 44.28125 44.578125 
Q 40.484375 46.53125 36.375 47.5 
Q 32.28125 48.484375 27.875 48.484375 
Q 21.1875 48.484375 17.84375 46.4375 
Q 14.5 44.390625 14.5 40.28125 
Q 14.5 37.15625 16.890625 35.375 
Q 19.28125 33.59375 26.515625 31.984375 
L 29.59375 31.296875 
Q 39.15625 29.25 43.1875 25.515625 
Q 47.21875 21.78125 47.21875 15.09375 
Q 47.21875 7.46875 41.1875 3.015625 
Q 35.15625 -1.421875 24.609375 -1.421875 
Q 20.21875 -1.421875 15.453125 -0.5625 
Q 10.6875 0.296875 5.421875 2 
L 5.421875 11.28125 
Q 10.40625 8.6875 15.234375 7.390625 
Q 20.0625 6.109375 24.8125 6.109375 
Q 31.15625 6.109375 34.5625 8.28125 
Q 37.984375 10.453125 37.984375 14.40625 
Q 37.984375 18.0625 35.515625 20.015625 
Q 33.0625 21.96875 24.703125 23.78125 
L 21.578125 24.515625 
Q 13.234375 26.265625 9.515625 29.90625 
Q 5.8125 33.546875 5.8125 39.890625 
Q 5.8125 47.609375 11.28125 51.796875 
Q 16.75 56 26.8125 56 
Q 31.78125 56 36.171875 55.265625 
Q 40.578125 54.546875 44.28125 53.078125 
z
" id="DejaVuSans-115"/>
      <path d="M 8.015625 75.875 
L 15.828125 75.875 
Q 23.140625 64.359375 26.78125 53.3125 
Q 30.421875 42.28125 30.421875 31.390625 
Q 30.421875 20.453125 26.78125 9.375 
Q 23.140625 -1.703125 15.828125 -13.1875 
L 8.015625 -13.1875 
Q 14.5 -2 17.703125 9.0625 
Q 20.90625 20.125 20.90625 31.390625 
Q 20.90625 42.671875 17.703125 53.65625 
Q 14.5 64.65625 8.015625 75.875 
z
" id="DejaVuSans-41"/>
     </defs>
     <g transform="translate(69.623906 211.294896)rotate(-90)scale(0.1 -0.1)">
      <use xlink:href="#DejaVuSans-40"/>
      <use x="39.013672" xlink:href="#DejaVuSans-98"/>
      <use x="102.490234" xlink:href="#DejaVuSans-121"/>
      <use x="161.669922" xlink:href="#DejaVuSans-116"/>
      <use x="200.878906" xlink:href="#DejaVuSans-101"/>
      <use x="262.402344" xlink:href="#DejaVuSans-115"/>
      <use x="314.501953" xlink:href="#DejaVuSans-41"/>
     </g>
    </g>
   </g>
   <g id="line2d_13">
    <path clip-path="url(#p3786774ad1)" d="M 147.550934 301.838981 
L 148.225831 281.542536 
L 148.900728 232.831066 
L 149.575625 275.047673 
L 150.250523 267.740953 
L 150.92542 265.305379 
L 151.600317 257.998659 
L 152.275214 254.751228 
L 154.299905 252.315654 
L 154.974803 253.127512 
L 155.6497 249.068223 
L 156.999494 242.57336 
L 157.674391 240.949645 
L 158.349288 236.890355 
L 159.024186 234.454782 
L 159.699083 266.929095 
L 160.37398 257.186801 
L 161.048877 249.068223 
L 161.723774 243.385218 
L 162.398671 270.988384 
L 163.748466 262.869806 
L 164.423363 261.24609 
L 165.09826 258.810517 
L 165.773157 258.810517 
L 166.448054 257.186801 
L 167.122951 252.315654 
L 167.797848 248.256365 
L 168.472746 245.008934 
L 169.147643 242.57336 
L 169.82254 238.514071 
L 170.497437 235.26664 
L 171.847231 230.395493 
L 172.522129 227.148062 
L 173.871923 219.029483 
L 174.54682 163.823151 
L 175.221717 239.325929 
L 175.896614 229.583635 
L 176.571511 222.276915 
L 177.921306 211.722763 
L 179.2711 206.851616 
L 179.945997 206.851616 
L 180.620894 244.197076 
L 181.295791 232.019208 
L 181.970689 223.90063 
L 182.645586 218.217625 
L 183.320483 253.93937 
L 184.670277 243.385218 
L 186.020071 238.514071 
L 186.694969 191.426317 
L 187.369866 263.681664 
L 188.71966 249.880081 
L 189.394557 279.106962 
L 190.069454 273.423958 
L 190.744352 269.364668 
L 192.094146 264.493522 
L 192.769043 263.681664 
L 193.44394 260.434232 
L 194.118837 258.810517 
L 194.793734 253.93937 
L 195.468632 249.880081 
L 196.143529 247.444507 
L 196.818426 243.385218 
L 197.493323 240.949645 
L 198.16822 236.078498 
L 198.843117 233.642924 
L 199.518014 230.395493 
L 200.192912 226.336204 
L 200.867809 223.90063 
L 201.542706 213.346478 
L 202.217603 115.923539 
L 202.8925 236.078498 
L 204.242294 216.59391 
L 204.917192 212.534621 
L 205.592089 207.663474 
L 206.266986 205.2279 
L 206.941883 203.604185 
L 207.61678 200.356753 
L 208.291677 200.356753 
L 208.966575 99.686383 
L 209.641472 235.26664 
L 210.316369 176.812876 
L 210.991266 259.622375 
L 211.666163 254.751228 
L 212.34106 281.542536 
L 213.015957 275.859531 
L 213.690855 272.6121 
L 214.365752 312.393133 
L 215.040649 309.95756 
L 215.715546 305.898271 
L 216.390443 317.26428 
L 217.06534 312.393133 
L 218.415135 331.065863 
L 219.090032 327.006574 
L 219.764929 323.759143 
L 221.114723 334.313295 
L 221.78962 331.877721 
L 222.464518 337.560726 
L 223.139415 333.501437 
L 223.814312 338.372584 
L 224.489209 335.93701 
L 225.164106 338.372584 
L 225.839003 342.431873 
L 226.5139 339.184441 
L 227.188798 327.818432 
L 227.863695 338.372584 
L 228.538592 331.877721 
L 229.213489 327.006574 
L 229.888386 322.947285 
L 230.563283 320.511711 
L 231.23818 315.640565 
L 232.587975 307.521986 
L 233.262872 302.650839 
L 233.937769 300.215266 
L 234.612666 296.967835 
L 235.287563 292.908545 
L 235.96246 288.037398 
L 237.312255 279.91882 
L 237.987152 276.671389 
L 238.662049 271.800242 
L 240.011843 235.26664 
L 240.686741 148.397852 
L 241.361638 245.820792 
L 242.036535 235.26664 
L 242.711432 227.959919 
L 243.386329 261.24609 
L 244.061226 256.374943 
L 244.736123 281.542536 
L 245.411021 276.671389 
L 246.085918 272.6121 
L 246.760815 293.720403 
L 247.435712 289.661114 
L 248.110609 311.581275 
L 248.785506 302.650839 
L 249.460403 317.26428 
L 250.135301 313.204991 
L 250.810198 324.571001 
L 251.485095 319.699854 
L 252.159992 329.442148 
L 252.834889 326.194716 
L 253.509786 323.759143 
L 254.184684 328.63029 
L 254.859581 325.382858 
L 255.534478 331.877721 
L 256.209375 327.818432 
L 256.884272 322.135427 
L 257.559169 318.076138 
L 258.234066 314.828707 
L 258.908964 309.95756 
L 259.583861 306.710128 
L 260.933655 298.59155 
L 261.608552 296.155977 
L 262.283449 291.28483 
L 262.958346 288.037398 
L 265.657935 271.800242 
L 266.332832 268.552811 
L 267.007729 257.186801 
L 268.357524 215.782052 
L 269.032421 246.632649 
L 269.707318 234.454782 
L 270.382215 225.524346 
L 271.057112 259.622375 
L 271.732009 253.127512 
L 272.406907 249.068223 
L 273.081804 276.671389 
L 273.756701 271.800242 
L 274.431598 232.019208 
L 275.106495 289.661114 
L 275.781392 288.849256 
L 276.456289 304.274555 
L 277.131187 299.403408 
L 277.806084 314.828707 
L 278.480981 311.581275 
L 279.155878 322.947285 
L 279.830775 319.699854 
L 280.505672 329.442148 
L 281.180569 326.194716 
L 281.855467 333.501437 
L 282.530364 328.63029 
L 283.205261 334.313295 
L 283.880158 327.818432 
L 285.229952 319.699854 
L 285.904849 317.26428 
L 286.579747 311.581275 
L 287.254644 307.521986 
L 287.929541 304.274555 
L 288.604438 299.403408 
L 289.279335 296.155977 
L 290.62913 288.037398 
L 291.304027 284.789967 
L 293.328718 272.6121 
L 294.003615 263.681664 
L 295.35341 223.088772 
L 296.028307 249.880081 
L 296.703204 237.702213 
L 297.378101 227.959919 
L 298.052998 221.465057 
L 298.727895 257.186801 
L 300.07769 245.820792 
L 300.752587 275.047673 
L 301.427484 270.988384 
L 302.102381 266.117237 
L 302.777278 290.472972 
L 303.452175 285.601825 
L 304.127073 304.274555 
L 304.80197 301.838981 
L 305.476867 314.016849 
L 306.151764 310.769418 
L 306.826661 322.947285 
L 307.501558 319.699854 
L 308.176455 301.838981 
L 308.851353 325.382858 
L 309.52625 322.135427 
L 310.201147 328.63029 
L 310.876044 325.382858 
L 312.225838 315.640565 
L 312.900735 311.581275 
L 313.575633 306.710128 
L 314.25053 304.274555 
L 314.925427 300.215266 
L 315.600324 296.967835 
L 316.275221 292.096688 
L 317.625015 283.978109 
L 318.97481 277.483247 
L 319.649707 272.6121 
L 320.324604 268.552811 
L 320.999501 265.305379 
L 321.674398 261.24609 
L 323.024193 224.712488 
L 323.69909 150.833426 
L 324.373987 238.514071 
L 325.048884 228.771777 
L 325.723781 220.653199 
L 326.398678 256.374943 
L 327.073576 249.068223 
L 327.748473 245.820792 
L 328.42337 274.235815 
L 329.098267 269.364668 
L 329.773164 291.28483 
L 330.448061 287.225541 
L 331.122958 305.086413 
L 331.797856 301.027124 
L 332.472753 314.828707 
L 333.14765 310.769418 
L 333.822547 284.789967 
L 334.497444 319.699854 
L 335.172341 327.818432 
L 335.847238 325.382858 
L 336.522136 331.877721 
L 337.197033 312.393133 
L 337.87193 333.501437 
L 338.546827 330.254005 
L 339.221724 325.382858 
L 339.896621 319.699854 
L 340.571519 316.452422 
L 341.921313 306.710128 
L 342.59621 304.274555 
L 344.620901 292.096688 
L 345.295799 288.849256 
L 346.645593 280.730678 
L 347.32049 277.483247 
L 347.995387 273.423958 
L 348.670284 257.998659 
L 350.020079 216.59391 
L 350.694976 248.256365 
L 351.369873 236.890355 
L 352.04477 227.959919 
L 353.394564 216.59391 
L 354.069462 255.563085 
L 354.744359 247.444507 
L 355.419256 243.385218 
L 356.094153 276.671389 
L 356.76905 269.364668 
L 357.443947 263.681664 
L 358.118844 287.225541 
L 358.793742 282.354394 
L 359.468639 301.027124 
L 360.143536 298.59155 
L 360.818433 313.204991 
L 361.49333 308.333844 
L 362.168227 320.511711 
L 362.843124 316.452422 
L 363.518022 326.194716 
L 364.192919 323.759143 
L 364.867816 333.501437 
L 365.542713 327.006574 
L 366.21761 333.501437 
L 366.892507 328.63029 
L 367.567404 322.135427 
L 368.917199 315.640565 
L 369.592096 310.769418 
L 370.266993 307.521986 
L 370.94189 302.650839 
L 371.616787 298.59155 
L 372.291685 295.344119 
L 374.316376 283.166251 
L 375.66617 276.671389 
L 376.341067 274.235815 
L 377.015965 264.493522 
L 377.690862 246.632649 
L 378.365759 223.90063 
L 379.040656 253.127512 
L 379.715553 240.137787 
L 381.065347 223.90063 
L 381.740245 219.029483 
L 382.415142 254.751228 
L 383.090039 247.444507 
L 383.764936 244.197076 
L 384.439833 271.800242 
L 385.11473 268.552811 
L 385.789627 290.472972 
L 386.464525 289.661114 
L 387.139422 306.710128 
L 387.814319 301.027124 
L 388.489216 284.789967 
L 389.164113 311.581275 
L 389.83901 322.947285 
L 390.513908 314.016849 
L 391.188805 327.818432 
L 391.863702 324.571001 
L 392.538599 330.254005 
L 393.213496 327.006574 
L 393.888393 334.313295 
L 395.238188 324.571001 
L 395.913085 318.887996 
L 396.587982 315.640565 
L 397.262879 311.581275 
L 397.937776 306.710128 
L 398.612673 303.462697 
L 399.962468 295.344119 
L 400.637365 292.096688 
L 401.312262 288.037398 
L 402.662056 281.542536 
L 403.336953 276.671389 
L 404.011851 273.423958 
L 404.686748 267.740953 
L 406.036542 227.959919 
L 406.711439 166.258725 
L 407.386336 241.761502 
L 408.061233 232.019208 
L 408.736131 223.90063 
L 409.411028 178.436592 
L 410.085925 253.127512 
L 410.760822 248.256365 
L 411.435719 173.565445 
L 412.110616 273.423958 
L 412.785513 268.552811 
L 413.460411 290.472972 
L 414.135308 287.225541 
L 414.810205 304.274555 
L 415.485102 300.215266 
L 416.159999 314.016849 
L 416.834896 310.769418 
L 417.509793 321.323569 
L 418.184691 319.699854 
L 418.859588 328.63029 
L 419.534485 322.947285 
L 420.209382 329.442148 
L 420.884279 327.006574 
L 421.559176 333.501437 
L 422.234074 329.442148 
L 422.908971 335.93701 
L 423.583868 326.194716 
L 424.258765 337.560726 
L 424.933662 334.313295 
L 425.608559 338.372584 
L 426.283456 335.125152 
L 426.958354 339.184441 
L 427.633251 335.93701 
L 428.308148 331.877721 
L 428.983045 324.571001 
L 430.332839 318.076138 
L 431.007736 312.393133 
L 431.682634 309.95756 
L 433.707325 297.779692 
L 434.382222 295.344119 
L 435.057119 291.28483 
L 435.732017 286.413683 
L 436.406914 282.354394 
L 437.081811 277.483247 
L 437.756708 275.047673 
L 438.431605 262.057948 
L 439.781399 222.276915 
L 440.456297 249.880081 
L 441.806091 230.395493 
L 442.480988 223.90063 
L 443.155885 219.841341 
L 443.830782 254.751228 
L 444.505679 249.068223 
L 445.180577 245.820792 
L 445.855474 273.423958 
L 446.530371 268.552811 
L 447.205268 265.305379 
L 447.880165 288.037398 
L 448.555062 284.789967 
L 449.229959 301.027124 
L 449.904857 298.59155 
L 450.579754 312.393133 
L 451.254651 309.145702 
L 451.929548 320.511711 
L 452.604445 318.076138 
L 453.279342 327.818432 
L 453.95424 323.759143 
L 454.629137 329.442148 
L 455.304034 327.006574 
L 455.978931 323.759143 
L 456.653828 331.065863 
L 457.328725 328.63029 
L 458.003622 332.689579 
L 458.67852 330.254005 
L 459.353417 335.125152 
L 460.028314 327.818432 
L 460.703211 322.947285 
L 461.378108 320.511711 
L 464.752594 300.215266 
L 465.427491 296.967835 
L 466.777285 288.849256 
L 467.452182 285.601825 
L 468.12708 281.542536 
L 468.801977 276.671389 
L 469.476874 273.423958 
L 470.151771 265.305379 
L 471.501565 224.712488 
L 472.176463 250.691938 
L 473.526257 229.583635 
L 474.201154 145.150421 
L 474.876051 259.622375 
L 475.550948 252.315654 
L 476.225845 279.91882 
L 476.900743 273.423958 
L 477.57564 270.176526 
L 478.250537 292.908545 
L 478.925434 289.661114 
L 479.600331 305.086413 
L 480.275228 301.027124 
L 480.950125 317.26428 
L 481.625023 312.393133 
L 482.29992 309.95756 
L 482.974817 319.699854 
L 483.649714 295.344119 
L 484.324611 325.382858 
L 484.999508 312.393133 
L 485.674406 327.818432 
L 486.349303 334.313295 
L 487.0242 331.065863 
L 487.699097 324.571001 
L 488.373994 319.699854 
L 489.048891 316.452422 
L 489.723788 311.581275 
L 490.398686 308.333844 
L 493.098274 292.096688 
L 493.773171 288.849256 
L 494.448068 284.789967 
L 495.122966 281.542536 
L 495.797863 275.859531 
L 496.47276 273.423958 
L 497.147657 266.117237 
L 498.497451 226.336204 
L 499.172348 252.315654 
L 499.847246 241.761502 
L 501.19704 226.336204 
L 501.871937 220.653199 
L 502.546834 257.998659 
L 503.221731 249.880081 
L 503.896629 245.820792 
L 504.571526 275.047673 
L 505.246423 271.800242 
L 505.92132 292.908545 
L 506.596217 287.225541 
L 507.271114 283.978109 
L 507.946011 304.274555 
L 508.620909 300.215266 
L 509.295806 318.887996 
L 509.970703 311.581275 
L 510.6456 309.145702 
L 511.320497 319.699854 
L 511.320497 319.699854 
" style="fill:none;stroke:#1f77b4;stroke-linecap:square;stroke-width:1.5;"/>
   </g>
   <g id="line2d_14">
    <path clip-path="url(#p3786774ad1)" d="M 139.471065 283.166251 
L 140.145962 278.295105 
L 140.82086 283.978109 
L 141.495757 285.601825 
L 142.170654 283.978109 
L 142.845551 285.601825 
L 143.520448 281.542536 
L 144.195345 281.542536 
L 144.870243 279.91882 
L 145.54514 283.978109 
L 146.220037 265.305379 
L 146.894934 282.354394 
L 147.569831 210.099047 
L 148.244728 246.632649 
L 148.919625 239.325929 
L 149.594523 275.047673 
L 150.26942 276.671389 
L 150.944317 284.789967 
L 151.619214 289.661114 
L 152.294111 295.344119 
L 152.969008 292.908545 
L 153.643905 281.542536 
L 154.318803 276.671389 
L 154.9937 277.483247 
L 155.668597 272.6121 
L 156.343494 268.552811 
L 157.018391 269.364668 
L 157.693288 270.988384 
L 159.043083 275.859531 
L 159.71798 292.096688 
L 160.392877 275.859531 
L 161.067774 273.423958 
L 161.742671 273.423958 
L 163.092466 254.751228 
L 163.767363 253.127512 
L 164.44226 255.563085 
L 165.117157 256.374943 
L 165.792054 259.622375 
L 166.466951 351.362309 
L 167.141848 276.671389 
L 167.816746 276.671389 
L 168.491643 281.542536 
L 169.16654 284.789967 
L 169.841437 283.978109 
L 170.516334 288.849256 
L 171.191231 289.661114 
L 171.866128 292.908545 
L 172.541026 296.967835 
L 173.215923 301.838981 
L 173.89082 297.779692 
L 174.565717 309.95756 
L 175.240614 296.967835 
L 175.915511 294.532261 
L 177.265306 297.779692 
L 177.940203 301.027124 
L 178.6151 301.838981 
L 179.289997 305.898271 
L 179.964894 307.521986 
L 180.639791 318.076138 
L 181.314689 308.333844 
L 181.989586 295.344119 
L 182.664483 289.661114 
L 183.33938 306.710128 
L 184.014277 283.166251 
L 184.689174 276.671389 
L 185.364071 272.6121 
L 186.038969 273.423958 
L 186.713866 219.029483 
L 187.388763 281.542536 
L 188.06366 258.810517 
L 188.738557 259.622375 
L 189.413454 277.483247 
L 190.088351 261.24609 
L 190.763249 252.315654 
L 191.438146 257.998659 
L 192.113043 250.691938 
L 192.78794 249.880081 
L 193.462837 250.691938 
L 194.137734 349.738593 
L 194.812632 277.483247 
L 195.487529 279.106962 
L 196.162426 288.037398 
L 196.837323 288.037398 
L 197.51222 288.849256 
L 198.187117 294.532261 
L 198.862014 296.155977 
L 199.536912 301.027124 
L 200.211809 301.027124 
L 201.561603 304.274555 
L 202.2365 309.145702 
L 202.911397 306.710128 
L 203.586294 302.650839 
L 204.261192 302.650839 
L 204.936089 305.898271 
L 205.610986 307.521986 
L 206.285883 309.95756 
L 206.96078 313.204991 
L 207.635677 314.016849 
L 208.310575 351.362309 
L 208.985472 312.393133 
L 209.660369 301.838981 
L 210.335266 231.207351 
L 211.010163 282.354394 
L 211.68506 266.117237 
L 212.359957 281.542536 
L 213.034855 257.186801 
L 213.709752 227.148062 
L 214.384649 261.24609 
L 215.059546 234.454782 
L 215.734443 194.673749 
L 216.40934 232.019208 
L 217.084237 206.039758 
L 217.759135 211.722763 
L 218.434032 237.702213 
L 219.108929 222.276915 
L 219.783826 193.861891 
L 220.458723 206.851616 
L 221.13362 214.970194 
L 221.808517 209.287189 
L 222.483415 230.395493 
L 223.158312 200.356753 
L 223.833209 201.168611 
L 224.508106 199.544895 
L 225.183003 182.495881 
L 225.8579 220.653199 
L 226.532798 188.178886 
L 227.207695 66.400212 
L 227.882592 351.362309 
L 228.557489 259.622375 
L 229.232386 245.820792 
L 229.907283 236.078498 
L 230.58218 245.820792 
L 231.257078 242.57336 
L 231.931975 251.503796 
L 232.606872 251.503796 
L 233.281769 257.186801 
L 233.956666 258.810517 
L 234.631563 265.305379 
L 235.30646 266.117237 
L 235.981358 268.552811 
L 236.656255 271.800242 
L 237.331152 279.106962 
L 238.006049 276.671389 
L 238.680946 283.978109 
L 239.355843 284.789967 
L 240.03074 289.661114 
L 240.705638 296.155977 
L 241.380535 300.215266 
L 242.055432 292.096688 
L 242.730329 279.106962 
L 243.405226 283.978109 
L 244.080123 269.364668 
L 244.755021 284.789967 
L 245.429918 262.869806 
L 246.104815 236.078498 
L 246.779712 262.869806 
L 247.454609 225.524346 
L 248.129506 258.810517 
L 248.804403 220.653199 
L 249.479301 230.395493 
L 250.154198 223.90063 
L 250.829095 220.653199 
L 251.503992 213.346478 
L 252.178889 232.831066 
L 252.853786 219.029483 
L 253.528683 188.990744 
L 254.203581 221.465057 
L 254.878478 180.872165 
L 255.553375 336.748868 
L 256.228272 269.364668 
L 256.903169 249.068223 
L 257.578066 246.632649 
L 258.252964 247.444507 
L 258.927861 250.691938 
L 259.602758 249.880081 
L 260.277655 256.374943 
L 261.627449 262.869806 
L 262.302346 265.305379 
L 262.977244 272.6121 
L 263.652141 270.176526 
L 264.327038 278.295105 
L 265.001935 278.295105 
L 265.676832 283.978109 
L 266.351729 283.166251 
L 267.026626 291.28483 
L 268.376421 296.155977 
L 269.051318 303.462697 
L 269.726215 308.333844 
L 270.401112 289.661114 
L 271.076009 286.413683 
L 271.750906 278.295105 
L 272.425804 249.880081 
L 273.100701 275.047673 
L 273.775598 252.315654 
L 274.450495 169.506156 
L 275.125392 257.186801 
L 275.800289 236.890355 
L 276.475187 240.949645 
L 277.150084 206.039758 
L 277.824981 248.256365 
L 278.499878 231.207351 
L 279.174775 221.465057 
L 279.849672 204.416042 
L 280.524569 231.207351 
L 281.199467 199.544895 
L 281.874364 208.475332 
L 282.549261 179.24845 
L 283.224158 351.362309 
L 283.899055 270.988384 
L 284.573952 245.820792 
L 285.248849 247.444507 
L 285.923747 250.691938 
L 286.598644 247.444507 
L 287.273541 255.563085 
L 287.948438 255.563085 
L 288.623335 264.493522 
L 289.298232 262.057948 
L 289.97313 270.176526 
L 290.648027 269.364668 
L 291.322924 275.047673 
L 291.997821 273.423958 
L 292.672718 283.978109 
L 293.347615 282.354394 
L 294.022512 286.413683 
L 294.69741 286.413683 
L 295.372307 293.720403 
L 296.047204 302.650839 
L 296.722101 301.027124 
L 297.396998 351.362309 
L 298.071895 289.661114 
L 298.746792 303.462697 
L 299.42169 292.096688 
L 300.096587 270.176526 
L 300.771484 275.047673 
L 302.121278 245.820792 
L 302.796175 267.740953 
L 303.471072 240.949645 
L 304.14597 237.702213 
L 304.820867 235.26664 
L 305.495764 251.503796 
L 306.170661 230.395493 
L 306.845558 225.524346 
L 307.520455 203.604185 
L 308.195353 115.111682 
L 308.87025 219.029483 
L 309.545147 193.861891 
L 310.220044 222.276915 
L 310.894941 195.485606 
L 311.569838 279.91882 
L 312.244735 259.622375 
L 312.919633 261.24609 
L 313.59453 256.374943 
L 314.269427 261.24609 
L 314.944324 262.057948 
L 315.619221 266.117237 
L 316.969015 269.364668 
L 317.643913 279.106962 
L 318.31881 276.671389 
L 318.993707 288.037398 
L 319.668604 283.166251 
L 320.343501 292.096688 
L 321.018398 289.661114 
L 321.693295 294.532261 
L 322.368193 294.532261 
L 323.04309 301.027124 
L 323.717987 282.354394 
L 324.392884 305.898271 
L 325.067781 351.362309 
L 325.742678 292.096688 
L 326.417576 294.532261 
L 327.092473 283.978109 
L 327.76737 268.552811 
L 328.442267 279.91882 
L 329.117164 257.998659 
L 329.792061 249.880081 
L 330.466958 244.197076 
L 331.141856 259.622375 
L 331.816753 237.702213 
L 332.49165 240.949645 
L 333.166547 211.722763 
L 333.841444 85.8848 
L 334.516341 213.346478 
L 335.191238 218.217625 
L 335.866136 200.356753 
L 336.541033 191.426317 
L 337.21593 50.163056 
L 337.890827 199.544895 
L 338.565724 201.168611 
L 339.240621 275.859531 
L 339.915519 248.256365 
L 340.590416 249.880081 
L 341.265313 245.820792 
L 341.94021 253.93937 
L 342.615107 253.93937 
L 343.290004 258.810517 
L 343.964901 262.057948 
L 344.639799 266.117237 
L 345.314696 269.364668 
L 345.989593 271.800242 
L 346.66449 273.423958 
L 347.339387 279.106962 
L 348.014284 279.91882 
L 348.689181 284.789967 
L 349.364079 286.413683 
L 350.038976 294.532261 
L 350.713873 299.403408 
L 351.38877 300.215266 
L 352.063667 303.462697 
L 352.738564 351.362309 
L 353.413461 300.215266 
L 354.088359 305.898271 
L 354.763256 292.908545 
L 355.438153 285.601825 
L 356.11305 281.542536 
L 356.787947 264.493522 
L 357.462844 241.761502 
L 358.137742 256.374943 
L 358.812639 232.019208 
L 359.487536 229.583635 
L 360.162433 149.20971 
L 360.83733 235.26664 
L 361.512227 204.416042 
L 362.187124 233.642924 
L 362.862022 210.099047 
L 363.536919 232.019208 
L 364.211816 211.722763 
L 364.886713 220.653199 
L 365.56161 202.792327 
L 366.236507 217.405768 
L 366.911404 351.362309 
L 367.586302 262.869806 
L 368.261199 252.315654 
L 368.936096 245.820792 
L 369.610993 258.810517 
L 370.28589 252.315654 
L 370.960787 266.117237 
L 371.635684 258.810517 
L 372.310582 270.176526 
L 372.985479 267.740953 
L 373.660376 275.859531 
L 374.335273 274.235815 
L 375.01017 276.671389 
L 375.685067 278.295105 
L 377.034862 284.789967 
L 377.709759 287.225541 
L 378.384656 294.532261 
L 379.059553 303.462697 
L 379.73445 305.086413 
L 380.409347 305.086413 
L 381.084245 300.215266 
L 381.759142 283.166251 
L 382.434039 298.59155 
L 383.108936 282.354394 
L 383.783833 261.24609 
L 384.45873 281.542536 
L 385.133627 257.186801 
L 385.808525 261.24609 
L 386.483422 249.880081 
L 387.158319 263.681664 
L 387.833216 231.207351 
L 388.508113 163.823151 
L 389.18301 227.148062 
L 389.857908 219.029483 
L 390.532805 214.158336 
L 391.207702 214.970194 
L 391.882599 180.872165 
L 392.557496 223.90063 
L 393.232393 198.733038 
L 393.90729 218.217625 
L 394.582188 351.362309 
L 395.257085 268.552811 
L 395.931982 245.008934 
L 396.606879 249.880081 
L 397.281776 246.632649 
L 397.956673 254.751228 
L 398.63157 254.751228 
L 399.306468 262.057948 
L 399.981365 262.057948 
L 400.656262 266.929095 
L 401.331159 269.364668 
L 402.006056 275.859531 
L 402.680953 275.859531 
L 403.35585 283.978109 
L 404.030748 280.730678 
L 404.705645 284.789967 
L 405.380542 286.413683 
L 406.055439 289.661114 
L 406.730336 299.403408 
L 407.405233 301.027124 
L 408.080131 303.462697 
L 408.755028 311.581275 
L 409.429925 256.374943 
L 410.104822 288.849256 
L 410.779719 266.929095 
L 411.454616 210.910905 
L 412.129513 270.988384 
L 412.804411 239.325929 
L 413.479308 257.186801 
L 414.154205 235.26664 
L 414.829102 257.998659 
L 415.503999 232.831066 
L 416.178896 234.454782 
L 416.853793 222.276915 
L 417.528691 246.632649 
L 418.203588 222.276915 
L 418.878485 216.59391 
L 419.553382 207.663474 
L 420.228279 214.970194 
L 420.903176 199.544895 
L 421.578074 227.148062 
L 422.252971 208.475332 
L 422.927868 196.297464 
L 423.602765 85.8848 
L 424.277662 198.733038 
L 424.952559 175.189161 
L 425.627456 208.475332 
L 426.302354 172.753587 
L 426.977251 219.841341 
L 427.652148 205.2279 
L 428.327045 351.362309 
L 429.001942 254.751228 
L 429.676839 247.444507 
L 430.351736 242.57336 
L 431.026634 250.691938 
L 431.701531 249.068223 
L 432.376428 253.93937 
L 433.051325 255.563085 
L 433.726222 262.869806 
L 434.401119 263.681664 
L 435.076016 270.988384 
L 435.750914 269.364668 
L 436.425811 277.483247 
L 437.100708 275.047673 
L 437.775605 290.472972 
L 438.450502 281.542536 
L 439.125399 289.661114 
L 439.800297 293.720403 
L 440.475194 300.215266 
L 441.150091 301.027124 
L 441.824988 304.274555 
L 442.499885 297.779692 
L 443.174782 288.849256 
L 443.849679 304.274555 
L 444.524577 282.354394 
L 445.199474 265.305379 
L 445.874371 278.295105 
L 446.549268 255.563085 
L 447.224165 215.782052 
L 447.899062 253.93937 
L 448.573959 235.26664 
L 449.248857 240.137787 
L 449.923754 201.168611 
L 450.598651 237.702213 
L 451.273548 208.475332 
L 451.948445 227.148062 
L 452.623342 206.851616 
L 453.298239 226.336204 
L 453.973137 206.039758 
L 454.648034 210.099047 
L 455.322931 217.405768 
L 455.997828 176.812876 
L 456.672725 213.346478 
L 457.347622 183.307739 
L 458.02252 214.158336 
L 458.697417 171.129872 
L 459.372314 351.362309 
L 460.047211 258.810517 
L 460.722108 240.137787 
L 461.397005 248.256365 
L 462.071902 243.385218 
L 462.7468 256.374943 
L 463.421697 250.691938 
L 464.096594 259.622375 
L 464.771491 257.186801 
L 465.446388 263.681664 
L 466.121285 263.681664 
L 466.796182 266.117237 
L 467.47108 271.800242 
L 468.145977 275.047673 
L 468.820874 277.483247 
L 469.495771 277.483247 
L 470.170668 280.730678 
L 470.845565 284.789967 
L 471.520463 296.155977 
L 472.19536 299.403408 
L 472.870257 300.215266 
L 473.545154 292.096688 
L 474.220051 240.949645 
L 474.894948 292.908545 
L 475.569845 281.542536 
L 476.244743 293.720403 
L 476.91964 258.810517 
L 477.594537 252.315654 
L 478.269434 269.364668 
L 478.944331 243.385218 
L 479.619228 259.622375 
L 480.294125 233.642924 
L 480.969023 253.127512 
L 481.64392 217.405768 
L 482.318817 214.970194 
L 482.993714 200.356753 
L 483.668611 106.181246 
L 484.343508 223.088772 
L 485.018405 121.606544 
L 485.693303 201.980469 
L 486.3682 223.088772 
L 487.043097 352.174167 
L 487.717994 267.740953 
L 488.392891 244.197076 
L 489.067788 246.632649 
L 489.742686 245.820792 
L 490.417583 251.503796 
L 491.09248 255.563085 
L 491.767377 260.434232 
L 493.117171 263.681664 
L 494.466966 274.235815 
L 495.141863 273.423958 
L 495.81676 279.91882 
L 496.491657 280.730678 
L 497.166554 285.601825 
L 497.841451 286.413683 
L 498.516348 291.28483 
L 499.191246 305.898271 
L 499.866143 302.650839 
L 500.54104 304.274555 
L 501.215937 305.086413 
L 501.890834 292.096688 
L 502.565731 301.838981 
L 503.240628 288.037398 
L 503.240628 288.037398 
" style="fill:none;stroke:#ff7f0e;stroke-linecap:square;stroke-width:1.5;"/>
   </g>
   <g id="patch_3">
    <path d="M 120.878594 352.174167 
L 120.878594 35.0625 
" style="fill:none;stroke:#000000;stroke-linecap:square;stroke-linejoin:miter;stroke-width:0.8;"/>
   </g>
   <g id="patch_4">
    <path d="M 529.912969 352.174167 
L 529.912969 35.0625 
" style="fill:none;stroke:#000000;stroke-linecap:square;stroke-linejoin:miter;stroke-width:0.8;"/>
   </g>
   <g id="patch_5">
    <path d="M 120.878594 352.174167 
L 529.912969 352.174167 
" style="fill:none;stroke:#000000;stroke-linecap:square;stroke-linejoin:miter;stroke-width:0.8;"/>
   </g>
   <g id="patch_6">
    <path d="M 120.878594 35.0625 
L 529.912969 35.0625 
" style="fill:none;stroke:#000000;stroke-linecap:square;stroke-linejoin:miter;stroke-width:0.8;"/>
   </g>
   <g id="legend_1">
    <g id="patch_7">
     <path d="M 552.364687 67.41875 
L 623.56 67.41875 
Q 625.56 67.41875 625.56 65.41875 
L 625.56 37.0625 
Q 625.56 35.0625 623.56 35.0625 
L 552.364687 35.0625 
Q 550.364687 35.0625 550.364687 37.0625 
L 550.364687 65.41875 
Q 550.364687 67.41875 552.364687 67.41875 
z
" style="fill:#ffffff;opacity:0.8;stroke:#cccccc;stroke-linejoin:miter;"/>
    </g>
    <g id="line2d_15">
     <path d="M 554.364687 43.160937 
L 574.364687 43.160937 
" style="fill:none;stroke:#1f77b4;stroke-linecap:square;stroke-width:1.5;"/>
    </g>
    <g id="line2d_16"/>
    <g id="text_14">
     <!-- cubic-pi -->
     <defs>
      <path d="M 48.78125 52.59375 
L 48.78125 44.1875 
Q 44.96875 46.296875 41.140625 47.34375 
Q 37.3125 48.390625 33.40625 48.390625 
Q 24.65625 48.390625 19.8125 42.84375 
Q 14.984375 37.3125 14.984375 27.296875 
Q 14.984375 17.28125 19.8125 11.734375 
Q 24.65625 6.203125 33.40625 6.203125 
Q 37.3125 6.203125 41.140625 7.25 
Q 44.96875 8.296875 48.78125 10.40625 
L 48.78125 2.09375 
Q 45.015625 0.34375 40.984375 -0.53125 
Q 36.96875 -1.421875 32.421875 -1.421875 
Q 20.0625 -1.421875 12.78125 6.34375 
Q 5.515625 14.109375 5.515625 27.296875 
Q 5.515625 40.671875 12.859375 48.328125 
Q 20.21875 56 33.015625 56 
Q 37.15625 56 41.109375 55.140625 
Q 45.0625 54.296875 48.78125 52.59375 
z
" id="DejaVuSans-99"/>
      <path d="M 8.5 21.578125 
L 8.5 54.6875 
L 17.484375 54.6875 
L 17.484375 21.921875 
Q 17.484375 14.15625 20.5 10.265625 
Q 23.53125 6.390625 29.59375 6.390625 
Q 36.859375 6.390625 41.078125 11.03125 
Q 45.3125 15.671875 45.3125 23.6875 
L 45.3125 54.6875 
L 54.296875 54.6875 
L 54.296875 0 
L 45.3125 0 
L 45.3125 8.40625 
Q 42.046875 3.421875 37.71875 1 
Q 33.40625 -1.421875 27.6875 -1.421875 
Q 18.265625 -1.421875 13.375 4.4375 
Q 8.5 10.296875 8.5 21.578125 
z
M 31.109375 56 
z
" id="DejaVuSans-117"/>
      <path d="M 4.890625 31.390625 
L 31.203125 31.390625 
L 31.203125 23.390625 
L 4.890625 23.390625 
z
" id="DejaVuSans-45"/>
      <path d="M 18.109375 8.203125 
L 18.109375 -20.796875 
L 9.078125 -20.796875 
L 9.078125 54.6875 
L 18.109375 54.6875 
L 18.109375 46.390625 
Q 20.953125 51.265625 25.265625 53.625 
Q 29.59375 56 35.59375 56 
Q 45.5625 56 51.78125 48.09375 
Q 58.015625 40.1875 58.015625 27.296875 
Q 58.015625 14.40625 51.78125 6.484375 
Q 45.5625 -1.421875 35.59375 -1.421875 
Q 29.59375 -1.421875 25.265625 0.953125 
Q 20.953125 3.328125 18.109375 8.203125 
z
M 48.6875 27.296875 
Q 48.6875 37.203125 44.609375 42.84375 
Q 40.53125 48.484375 33.40625 48.484375 
Q 26.265625 48.484375 22.1875 42.84375 
Q 18.109375 37.203125 18.109375 27.296875 
Q 18.109375 17.390625 22.1875 11.75 
Q 26.265625 6.109375 33.40625 6.109375 
Q 40.53125 6.109375 44.609375 11.75 
Q 48.6875 17.390625 48.6875 27.296875 
z
" id="DejaVuSans-112"/>
     </defs>
     <g transform="translate(582.364687 46.660937)scale(0.1 -0.1)">
      <use xlink:href="#DejaVuSans-99"/>
      <use x="54.980469" xlink:href="#DejaVuSans-117"/>
      <use x="118.359375" xlink:href="#DejaVuSans-98"/>
      <use x="181.835938" xlink:href="#DejaVuSans-105"/>
      <use x="209.619141" xlink:href="#DejaVuSans-99"/>
      <use x="264.599609" xlink:href="#DejaVuSans-45"/>
      <use x="300.683594" xlink:href="#DejaVuSans-112"/>
      <use x="364.160156" xlink:href="#DejaVuSans-105"/>
     </g>
    </g>
    <g id="line2d_17">
     <path d="M 554.364687 57.839063 
L 574.364687 57.839063 
" style="fill:none;stroke:#ff7f0e;stroke-linecap:square;stroke-width:1.5;"/>
    </g>
    <g id="line2d_18"/>
    <g id="text_15">
     <!-- bbr-pi -->
     <defs>
      <path d="M 41.109375 46.296875 
Q 39.59375 47.171875 37.8125 47.578125 
Q 36.03125 48 33.890625 48 
Q 26.265625 48 22.1875 43.046875 
Q 18.109375 38.09375 18.109375 28.8125 
L 18.109375 0 
L 9.078125 0 
L 9.078125 54.6875 
L 18.109375 54.6875 
L 18.109375 46.1875 
Q 20.953125 51.171875 25.484375 53.578125 
Q 30.03125 56 36.53125 56 
Q 37.453125 56 38.578125 55.875 
Q 39.703125 55.765625 41.0625 55.515625 
z
" id="DejaVuSans-114"/>
     </defs>
     <g transform="translate(582.364687 61.339063)scale(0.1 -0.1)">
      <use xlink:href="#DejaVuSans-98"/>
      <use x="63.476562" xlink:href="#DejaVuSans-98"/>
      <use x="126.953125" xlink:href="#DejaVuSans-114"/>
      <use x="167.972656" xlink:href="#DejaVuSans-45"/>
      <use x="204.056641" xlink:href="#DejaVuSans-112"/>
      <use x="267.533203" xlink:href="#DejaVuSans-105"/>
     </g>
    </g>
   </g>
  </g>
  <g id="text_16">
   <!-- result inflight -->
   <defs>
    <path id="DejaVuSans-32"/>
   </defs>
   <g transform="translate(302.110313 17.038125)scale(0.12 -0.12)">
    <use xlink:href="#DejaVuSans-114"/>
    <use x="41.082031" xlink:href="#DejaVuSans-101"/>
    <use x="102.605469" xlink:href="#DejaVuSans-115"/>
    <use x="154.705078" xlink:href="#DejaVuSans-117"/>
    <use x="218.083984" xlink:href="#DejaVuSans-108"/>
    <use x="245.867188" xlink:href="#DejaVuSans-116"/>
    <use x="285.076172" xlink:href="#DejaVuSans-32"/>
    <use x="316.863281" xlink:href="#DejaVuSans-105"/>
    <use x="344.646484" xlink:href="#DejaVuSans-110"/>
    <use x="408.025391" xlink:href="#DejaVuSans-102"/>
    <use x="443.230469" xlink:href="#DejaVuSans-108"/>
    <use x="471.013672" xlink:href="#DejaVuSans-105"/>
    <use x="498.796875" xlink:href="#DejaVuSans-103"/>
    <use x="562.273438" xlink:href="#DejaVuSans-104"/>
    <use x="625.652344" xlink:href="#DejaVuSans-116"/>
   </g>
  </g>
 </g>
 <defs>
  <clipPath id="p3786774ad1">
   <rect height="317.111667" width="409.034375" x="120.878594" y="35.0625"/>
  </clipPath>
 </defs>
</svg>
