<?xml version="1.0" encoding="utf-8" standalone="no"?>
<!DOCTYPE svg PUBLIC "-//W3C//DTD SVG 1.1//EN"
  "http://www.w3.org/Graphics/SVG/1.1/DTD/svg11.dtd">
<!-- Created with matplotlib (https://matplotlib.org/) -->
<svg height="396pt" version="1.1" viewBox="0 0 684 396" width="684pt" xmlns="http://www.w3.org/2000/svg" xmlns:xlink="http://www.w3.org/1999/xlink">
 <defs>
  <style type="text/css">
*{stroke-linecap:butt;stroke-linejoin:round;}
  </style>
 </defs>
 <g id="figure_1">
  <g id="patch_1">
   <path d="M 0 396 
L 684 396 
L 684 0 
L 0 0 
z
" style="fill:#ffffff;"/>
  </g>
  <g id="axes_1">
   <g id="patch_2">
    <path d="M 83.472344 352.174167 
L 529.912969 352.174167 
L 529.912969 35.0625 
L 83.472344 35.0625 
z
" style="fill:#ffffff;"/>
   </g>
   <g id="matplotlib.axis_1">
    <g id="xtick_1">
     <g id="line2d_1">
      <defs>
       <path d="M 0 0 
L 0 3.5 
" id="m98b3f9a016" style="stroke:#000000;stroke-width:0.8;"/>
      </defs>
      <g>
       <use style="stroke:#000000;stroke-width:0.8;" x="103.765099" xlink:href="#m98b3f9a016" y="352.174167"/>
      </g>
     </g>
     <g id="text_1">
      <!-- 0 -->
      <defs>
       <path d="M 31.78125 66.40625 
Q 24.171875 66.40625 20.328125 58.90625 
Q 16.5 51.421875 16.5 36.375 
Q 16.5 21.390625 20.328125 13.890625 
Q 24.171875 6.390625 31.78125 6.390625 
Q 39.453125 6.390625 43.28125 13.890625 
Q 47.125 21.390625 47.125 36.375 
Q 47.125 51.421875 43.28125 58.90625 
Q 39.453125 66.40625 31.78125 66.40625 
z
M 31.78125 74.21875 
Q 44.046875 74.21875 50.515625 64.515625 
Q 56.984375 54.828125 56.984375 36.375 
Q 56.984375 17.96875 50.515625 8.265625 
Q 44.046875 -1.421875 31.78125 -1.421875 
Q 19.53125 -1.421875 13.0625 8.265625 
Q 6.59375 17.96875 6.59375 36.375 
Q 6.59375 54.828125 13.0625 64.515625 
Q 19.53125 74.21875 31.78125 74.21875 
z
" id="DejaVuSans-48"/>
      </defs>
      <g transform="translate(100.583849 366.772604)scale(0.1 -0.1)">
       <use xlink:href="#DejaVuSans-48"/>
      </g>
     </g>
    </g>
    <g id="xtick_2">
     <g id="line2d_2">
      <g>
       <use style="stroke:#000000;stroke-width:0.8;" x="177.27839" xlink:href="#m98b3f9a016" y="352.174167"/>
      </g>
     </g>
     <g id="text_2">
      <!-- 50 -->
      <defs>
       <path d="M 10.796875 72.90625 
L 49.515625 72.90625 
L 49.515625 64.59375 
L 19.828125 64.59375 
L 19.828125 46.734375 
Q 21.96875 47.46875 24.109375 47.828125 
Q 26.265625 48.1875 28.421875 48.1875 
Q 40.625 48.1875 47.75 41.5 
Q 54.890625 34.8125 54.890625 23.390625 
Q 54.890625 11.625 47.5625 5.09375 
Q 40.234375 -1.421875 26.90625 -1.421875 
Q 22.3125 -1.421875 17.546875 -0.640625 
Q 12.796875 0.140625 7.71875 1.703125 
L 7.71875 11.625 
Q 12.109375 9.234375 16.796875 8.0625 
Q 21.484375 6.890625 26.703125 6.890625 
Q 35.15625 6.890625 40.078125 11.328125 
Q 45.015625 15.765625 45.015625 23.390625 
Q 45.015625 31 40.078125 35.4375 
Q 35.15625 39.890625 26.703125 39.890625 
Q 22.75 39.890625 18.8125 39.015625 
Q 14.890625 38.140625 10.796875 36.28125 
z
" id="DejaVuSans-53"/>
      </defs>
      <g transform="translate(170.91589 366.772604)scale(0.1 -0.1)">
       <use xlink:href="#DejaVuSans-53"/>
       <use x="63.623047" xlink:href="#DejaVuSans-48"/>
      </g>
     </g>
    </g>
    <g id="xtick_3">
     <g id="line2d_3">
      <g>
       <use style="stroke:#000000;stroke-width:0.8;" x="250.79168" xlink:href="#m98b3f9a016" y="352.174167"/>
      </g>
     </g>
     <g id="text_3">
      <!-- 100 -->
      <defs>
       <path d="M 12.40625 8.296875 
L 28.515625 8.296875 
L 28.515625 63.921875 
L 10.984375 60.40625 
L 10.984375 69.390625 
L 28.421875 72.90625 
L 38.28125 72.90625 
L 38.28125 8.296875 
L 54.390625 8.296875 
L 54.390625 0 
L 12.40625 0 
z
" id="DejaVuSans-49"/>
      </defs>
      <g transform="translate(241.24793 366.772604)scale(0.1 -0.1)">
       <use xlink:href="#DejaVuSans-49"/>
       <use x="63.623047" xlink:href="#DejaVuSans-48"/>
       <use x="127.246094" xlink:href="#DejaVuSans-48"/>
      </g>
     </g>
    </g>
    <g id="xtick_4">
     <g id="line2d_4">
      <g>
       <use style="stroke:#000000;stroke-width:0.8;" x="324.30497" xlink:href="#m98b3f9a016" y="352.174167"/>
      </g>
     </g>
     <g id="text_4">
      <!-- 150 -->
      <g transform="translate(314.76122 366.772604)scale(0.1 -0.1)">
       <use xlink:href="#DejaVuSans-49"/>
       <use x="63.623047" xlink:href="#DejaVuSans-53"/>
       <use x="127.246094" xlink:href="#DejaVuSans-48"/>
      </g>
     </g>
    </g>
    <g id="xtick_5">
     <g id="line2d_5">
      <g>
       <use style="stroke:#000000;stroke-width:0.8;" x="397.818261" xlink:href="#m98b3f9a016" y="352.174167"/>
      </g>
     </g>
     <g id="text_5">
      <!-- 200 -->
      <defs>
       <path d="M 19.1875 8.296875 
L 53.609375 8.296875 
L 53.609375 0 
L 7.328125 0 
L 7.328125 8.296875 
Q 12.9375 14.109375 22.625 23.890625 
Q 32.328125 33.6875 34.8125 36.53125 
Q 39.546875 41.84375 41.421875 45.53125 
Q 43.3125 49.21875 43.3125 52.78125 
Q 43.3125 58.59375 39.234375 62.25 
Q 35.15625 65.921875 28.609375 65.921875 
Q 23.96875 65.921875 18.8125 64.3125 
Q 13.671875 62.703125 7.8125 59.421875 
L 7.8125 69.390625 
Q 13.765625 71.78125 18.9375 73 
Q 24.125 74.21875 28.421875 74.21875 
Q 39.75 74.21875 46.484375 68.546875 
Q 53.21875 62.890625 53.21875 53.421875 
Q 53.21875 48.921875 51.53125 44.890625 
Q 49.859375 40.875 45.40625 35.40625 
Q 44.1875 33.984375 37.640625 27.21875 
Q 31.109375 20.453125 19.1875 8.296875 
z
" id="DejaVuSans-50"/>
      </defs>
      <g transform="translate(388.274511 366.772604)scale(0.1 -0.1)">
       <use xlink:href="#DejaVuSans-50"/>
       <use x="63.623047" xlink:href="#DejaVuSans-48"/>
       <use x="127.246094" xlink:href="#DejaVuSans-48"/>
      </g>
     </g>
    </g>
    <g id="xtick_6">
     <g id="line2d_6">
      <g>
       <use style="stroke:#000000;stroke-width:0.8;" x="471.331551" xlink:href="#m98b3f9a016" y="352.174167"/>
      </g>
     </g>
     <g id="text_6">
      <!-- 250 -->
      <g transform="translate(461.787801 366.772604)scale(0.1 -0.1)">
       <use xlink:href="#DejaVuSans-50"/>
       <use x="63.623047" xlink:href="#DejaVuSans-53"/>
       <use x="127.246094" xlink:href="#DejaVuSans-48"/>
      </g>
     </g>
    </g>
   </g>
   <g id="matplotlib.axis_2">
    <g id="ytick_1">
     <g id="line2d_7">
      <defs>
       <path d="M 0 0 
L -3.5 0 
" id="me501b58a43" style="stroke:#000000;stroke-width:0.8;"/>
      </defs>
      <g>
       <use style="stroke:#000000;stroke-width:0.8;" x="83.472344" xlink:href="#me501b58a43" y="352.174167"/>
      </g>
     </g>
     <g id="text_7">
      <!-- 0 -->
      <g transform="translate(70.109844 355.973385)scale(0.1 -0.1)">
       <use xlink:href="#DejaVuSans-48"/>
      </g>
     </g>
    </g>
    <g id="ytick_2">
     <g id="line2d_8">
      <g>
       <use style="stroke:#000000;stroke-width:0.8;" x="83.472344" xlink:href="#me501b58a43" y="313.944912"/>
      </g>
     </g>
     <g id="text_8">
      <!-- 10 -->
      <g transform="translate(63.747344 317.744131)scale(0.1 -0.1)">
       <use xlink:href="#DejaVuSans-49"/>
       <use x="63.623047" xlink:href="#DejaVuSans-48"/>
      </g>
     </g>
    </g>
    <g id="ytick_3">
     <g id="line2d_9">
      <g>
       <use style="stroke:#000000;stroke-width:0.8;" x="83.472344" xlink:href="#me501b58a43" y="275.715658"/>
      </g>
     </g>
     <g id="text_9">
      <!-- 20 -->
      <g transform="translate(63.747344 279.514876)scale(0.1 -0.1)">
       <use xlink:href="#DejaVuSans-50"/>
       <use x="63.623047" xlink:href="#DejaVuSans-48"/>
      </g>
     </g>
    </g>
    <g id="ytick_4">
     <g id="line2d_10">
      <g>
       <use style="stroke:#000000;stroke-width:0.8;" x="83.472344" xlink:href="#me501b58a43" y="237.486403"/>
      </g>
     </g>
     <g id="text_10">
      <!-- 30 -->
      <defs>
       <path d="M 40.578125 39.3125 
Q 47.65625 37.796875 51.625 33 
Q 55.609375 28.21875 55.609375 21.1875 
Q 55.609375 10.40625 48.1875 4.484375 
Q 40.765625 -1.421875 27.09375 -1.421875 
Q 22.515625 -1.421875 17.65625 -0.515625 
Q 12.796875 0.390625 7.625 2.203125 
L 7.625 11.71875 
Q 11.71875 9.328125 16.59375 8.109375 
Q 21.484375 6.890625 26.8125 6.890625 
Q 36.078125 6.890625 40.9375 10.546875 
Q 45.796875 14.203125 45.796875 21.1875 
Q 45.796875 27.640625 41.28125 31.265625 
Q 36.765625 34.90625 28.71875 34.90625 
L 20.21875 34.90625 
L 20.21875 43.015625 
L 29.109375 43.015625 
Q 36.375 43.015625 40.234375 45.921875 
Q 44.09375 48.828125 44.09375 54.296875 
Q 44.09375 59.90625 40.109375 62.90625 
Q 36.140625 65.921875 28.71875 65.921875 
Q 24.65625 65.921875 20.015625 65.03125 
Q 15.375 64.15625 9.8125 62.3125 
L 9.8125 71.09375 
Q 15.4375 72.65625 20.34375 73.4375 
Q 25.25 74.21875 29.59375 74.21875 
Q 40.828125 74.21875 47.359375 69.109375 
Q 53.90625 64.015625 53.90625 55.328125 
Q 53.90625 49.265625 50.4375 45.09375 
Q 46.96875 40.921875 40.578125 39.3125 
z
" id="DejaVuSans-51"/>
      </defs>
      <g transform="translate(63.747344 241.285622)scale(0.1 -0.1)">
       <use xlink:href="#DejaVuSans-51"/>
       <use x="63.623047" xlink:href="#DejaVuSans-48"/>
      </g>
     </g>
    </g>
    <g id="ytick_5">
     <g id="line2d_11">
      <g>
       <use style="stroke:#000000;stroke-width:0.8;" x="83.472344" xlink:href="#me501b58a43" y="199.257148"/>
      </g>
     </g>
     <g id="text_11">
      <!-- 40 -->
      <defs>
       <path d="M 37.796875 64.3125 
L 12.890625 25.390625 
L 37.796875 25.390625 
z
M 35.203125 72.90625 
L 47.609375 72.90625 
L 47.609375 25.390625 
L 58.015625 25.390625 
L 58.015625 17.1875 
L 47.609375 17.1875 
L 47.609375 0 
L 37.796875 0 
L 37.796875 17.1875 
L 4.890625 17.1875 
L 4.890625 26.703125 
z
" id="DejaVuSans-52"/>
      </defs>
      <g transform="translate(63.747344 203.056367)scale(0.1 -0.1)">
       <use xlink:href="#DejaVuSans-52"/>
       <use x="63.623047" xlink:href="#DejaVuSans-48"/>
      </g>
     </g>
    </g>
    <g id="ytick_6">
     <g id="line2d_12">
      <g>
       <use style="stroke:#000000;stroke-width:0.8;" x="83.472344" xlink:href="#me501b58a43" y="161.027894"/>
      </g>
     </g>
     <g id="text_12">
      <!-- 50 -->
      <g transform="translate(63.747344 164.827113)scale(0.1 -0.1)">
       <use xlink:href="#DejaVuSans-53"/>
       <use x="63.623047" xlink:href="#DejaVuSans-48"/>
      </g>
     </g>
    </g>
    <g id="ytick_7">
     <g id="line2d_13">
      <g>
       <use style="stroke:#000000;stroke-width:0.8;" x="83.472344" xlink:href="#me501b58a43" y="122.798639"/>
      </g>
     </g>
     <g id="text_13">
      <!-- 60 -->
      <defs>
       <path d="M 33.015625 40.375 
Q 26.375 40.375 22.484375 35.828125 
Q 18.609375 31.296875 18.609375 23.390625 
Q 18.609375 15.53125 22.484375 10.953125 
Q 26.375 6.390625 33.015625 6.390625 
Q 39.65625 6.390625 43.53125 10.953125 
Q 47.40625 15.53125 47.40625 23.390625 
Q 47.40625 31.296875 43.53125 35.828125 
Q 39.65625 40.375 33.015625 40.375 
z
M 52.59375 71.296875 
L 52.59375 62.3125 
Q 48.875 64.0625 45.09375 64.984375 
Q 41.3125 65.921875 37.59375 65.921875 
Q 27.828125 65.921875 22.671875 59.328125 
Q 17.53125 52.734375 16.796875 39.40625 
Q 19.671875 43.65625 24.015625 45.921875 
Q 28.375 48.1875 33.59375 48.1875 
Q 44.578125 48.1875 50.953125 41.515625 
Q 57.328125 34.859375 57.328125 23.390625 
Q 57.328125 12.15625 50.6875 5.359375 
Q 44.046875 -1.421875 33.015625 -1.421875 
Q 20.359375 -1.421875 13.671875 8.265625 
Q 6.984375 17.96875 6.984375 36.375 
Q 6.984375 53.65625 15.1875 63.9375 
Q 23.390625 74.21875 37.203125 74.21875 
Q 40.921875 74.21875 44.703125 73.484375 
Q 48.484375 72.75 52.59375 71.296875 
z
" id="DejaVuSans-54"/>
      </defs>
      <g transform="translate(63.747344 126.597858)scale(0.1 -0.1)">
       <use xlink:href="#DejaVuSans-54"/>
       <use x="63.623047" xlink:href="#DejaVuSans-48"/>
      </g>
     </g>
    </g>
    <g id="ytick_8">
     <g id="line2d_14">
      <g>
       <use style="stroke:#000000;stroke-width:0.8;" x="83.472344" xlink:href="#me501b58a43" y="84.569385"/>
      </g>
     </g>
     <g id="text_14">
      <!-- 70 -->
      <defs>
       <path d="M 8.203125 72.90625 
L 55.078125 72.90625 
L 55.078125 68.703125 
L 28.609375 0 
L 18.3125 0 
L 43.21875 64.59375 
L 8.203125 64.59375 
z
" id="DejaVuSans-55"/>
      </defs>
      <g transform="translate(63.747344 88.368603)scale(0.1 -0.1)">
       <use xlink:href="#DejaVuSans-55"/>
       <use x="63.623047" xlink:href="#DejaVuSans-48"/>
      </g>
     </g>
    </g>
    <g id="ytick_9">
     <g id="line2d_15">
      <g>
       <use style="stroke:#000000;stroke-width:0.8;" x="83.472344" xlink:href="#me501b58a43" y="46.34013"/>
      </g>
     </g>
     <g id="text_15">
      <!-- 80 -->
      <defs>
       <path d="M 31.78125 34.625 
Q 24.75 34.625 20.71875 30.859375 
Q 16.703125 27.09375 16.703125 20.515625 
Q 16.703125 13.921875 20.71875 10.15625 
Q 24.75 6.390625 31.78125 6.390625 
Q 38.8125 6.390625 42.859375 10.171875 
Q 46.921875 13.96875 46.921875 20.515625 
Q 46.921875 27.09375 42.890625 30.859375 
Q 38.875 34.625 31.78125 34.625 
z
M 21.921875 38.8125 
Q 15.578125 40.375 12.03125 44.71875 
Q 8.5 49.078125 8.5 55.328125 
Q 8.5 64.0625 14.71875 69.140625 
Q 20.953125 74.21875 31.78125 74.21875 
Q 42.671875 74.21875 48.875 69.140625 
Q 55.078125 64.0625 55.078125 55.328125 
Q 55.078125 49.078125 51.53125 44.71875 
Q 48 40.375 41.703125 38.8125 
Q 48.828125 37.15625 52.796875 32.3125 
Q 56.78125 27.484375 56.78125 20.515625 
Q 56.78125 9.90625 50.3125 4.234375 
Q 43.84375 -1.421875 31.78125 -1.421875 
Q 19.734375 -1.421875 13.25 4.234375 
Q 6.78125 9.90625 6.78125 20.515625 
Q 6.78125 27.484375 10.78125 32.3125 
Q 14.796875 37.15625 21.921875 38.8125 
z
M 18.3125 54.390625 
Q 18.3125 48.734375 21.84375 45.5625 
Q 25.390625 42.390625 31.78125 42.390625 
Q 38.140625 42.390625 41.71875 45.5625 
Q 45.3125 48.734375 45.3125 54.390625 
Q 45.3125 60.0625 41.71875 63.234375 
Q 38.140625 66.40625 31.78125 66.40625 
Q 25.390625 66.40625 21.84375 63.234375 
Q 18.3125 60.0625 18.3125 54.390625 
z
" id="DejaVuSans-56"/>
      </defs>
      <g transform="translate(63.747344 50.139349)scale(0.1 -0.1)">
       <use xlink:href="#DejaVuSans-56"/>
       <use x="63.623047" xlink:href="#DejaVuSans-48"/>
      </g>
     </g>
    </g>
    <g id="text_16">
     <!-- throughput -->
     <defs>
      <path d="M 18.3125 70.21875 
L 18.3125 54.6875 
L 36.8125 54.6875 
L 36.8125 47.703125 
L 18.3125 47.703125 
L 18.3125 18.015625 
Q 18.3125 11.328125 20.140625 9.421875 
Q 21.96875 7.515625 27.59375 7.515625 
L 36.8125 7.515625 
L 36.8125 0 
L 27.59375 0 
Q 17.1875 0 13.234375 3.875 
Q 9.28125 7.765625 9.28125 18.015625 
L 9.28125 47.703125 
L 2.6875 47.703125 
L 2.6875 54.6875 
L 9.28125 54.6875 
L 9.28125 70.21875 
z
" id="DejaVuSans-116"/>
      <path d="M 54.890625 33.015625 
L 54.890625 0 
L 45.90625 0 
L 45.90625 32.71875 
Q 45.90625 40.484375 42.875 44.328125 
Q 39.84375 48.1875 33.796875 48.1875 
Q 26.515625 48.1875 22.3125 43.546875 
Q 18.109375 38.921875 18.109375 30.90625 
L 18.109375 0 
L 9.078125 0 
L 9.078125 75.984375 
L 18.109375 75.984375 
L 18.109375 46.1875 
Q 21.34375 51.125 25.703125 53.5625 
Q 30.078125 56 35.796875 56 
Q 45.21875 56 50.046875 50.171875 
Q 54.890625 44.34375 54.890625 33.015625 
z
" id="DejaVuSans-104"/>
      <path d="M 41.109375 46.296875 
Q 39.59375 47.171875 37.8125 47.578125 
Q 36.03125 48 33.890625 48 
Q 26.265625 48 22.1875 43.046875 
Q 18.109375 38.09375 18.109375 28.8125 
L 18.109375 0 
L 9.078125 0 
L 9.078125 54.6875 
L 18.109375 54.6875 
L 18.109375 46.1875 
Q 20.953125 51.171875 25.484375 53.578125 
Q 30.03125 56 36.53125 56 
Q 37.453125 56 38.578125 55.875 
Q 39.703125 55.765625 41.0625 55.515625 
z
" id="DejaVuSans-114"/>
      <path d="M 30.609375 48.390625 
Q 23.390625 48.390625 19.1875 42.75 
Q 14.984375 37.109375 14.984375 27.296875 
Q 14.984375 17.484375 19.15625 11.84375 
Q 23.34375 6.203125 30.609375 6.203125 
Q 37.796875 6.203125 41.984375 11.859375 
Q 46.1875 17.53125 46.1875 27.296875 
Q 46.1875 37.015625 41.984375 42.703125 
Q 37.796875 48.390625 30.609375 48.390625 
z
M 30.609375 56 
Q 42.328125 56 49.015625 48.375 
Q 55.71875 40.765625 55.71875 27.296875 
Q 55.71875 13.875 49.015625 6.21875 
Q 42.328125 -1.421875 30.609375 -1.421875 
Q 18.84375 -1.421875 12.171875 6.21875 
Q 5.515625 13.875 5.515625 27.296875 
Q 5.515625 40.765625 12.171875 48.375 
Q 18.84375 56 30.609375 56 
z
" id="DejaVuSans-111"/>
      <path d="M 8.5 21.578125 
L 8.5 54.6875 
L 17.484375 54.6875 
L 17.484375 21.921875 
Q 17.484375 14.15625 20.5 10.265625 
Q 23.53125 6.390625 29.59375 6.390625 
Q 36.859375 6.390625 41.078125 11.03125 
Q 45.3125 15.671875 45.3125 23.6875 
L 45.3125 54.6875 
L 54.296875 54.6875 
L 54.296875 0 
L 45.3125 0 
L 45.3125 8.40625 
Q 42.046875 3.421875 37.71875 1 
Q 33.40625 -1.421875 27.6875 -1.421875 
Q 18.265625 -1.421875 13.375 4.4375 
Q 8.5 10.296875 8.5 21.578125 
z
M 31.109375 56 
z
" id="DejaVuSans-117"/>
      <path d="M 45.40625 27.984375 
Q 45.40625 37.75 41.375 43.109375 
Q 37.359375 48.484375 30.078125 48.484375 
Q 22.859375 48.484375 18.828125 43.109375 
Q 14.796875 37.75 14.796875 27.984375 
Q 14.796875 18.265625 18.828125 12.890625 
Q 22.859375 7.515625 30.078125 7.515625 
Q 37.359375 7.515625 41.375 12.890625 
Q 45.40625 18.265625 45.40625 27.984375 
z
M 54.390625 6.78125 
Q 54.390625 -7.171875 48.1875 -13.984375 
Q 42 -20.796875 29.203125 -20.796875 
Q 24.46875 -20.796875 20.265625 -20.09375 
Q 16.0625 -19.390625 12.109375 -17.921875 
L 12.109375 -9.1875 
Q 16.0625 -11.328125 19.921875 -12.34375 
Q 23.78125 -13.375 27.78125 -13.375 
Q 36.625 -13.375 41.015625 -8.765625 
Q 45.40625 -4.15625 45.40625 5.171875 
L 45.40625 9.625 
Q 42.625 4.78125 38.28125 2.390625 
Q 33.9375 0 27.875 0 
Q 17.828125 0 11.671875 7.65625 
Q 5.515625 15.328125 5.515625 27.984375 
Q 5.515625 40.671875 11.671875 48.328125 
Q 17.828125 56 27.875 56 
Q 33.9375 56 38.28125 53.609375 
Q 42.625 51.21875 45.40625 46.390625 
L 45.40625 54.6875 
L 54.390625 54.6875 
z
" id="DejaVuSans-103"/>
      <path d="M 18.109375 8.203125 
L 18.109375 -20.796875 
L 9.078125 -20.796875 
L 9.078125 54.6875 
L 18.109375 54.6875 
L 18.109375 46.390625 
Q 20.953125 51.265625 25.265625 53.625 
Q 29.59375 56 35.59375 56 
Q 45.5625 56 51.78125 48.09375 
Q 58.015625 40.1875 58.015625 27.296875 
Q 58.015625 14.40625 51.78125 6.484375 
Q 45.5625 -1.421875 35.59375 -1.421875 
Q 29.59375 -1.421875 25.265625 0.953125 
Q 20.953125 3.328125 18.109375 8.203125 
z
M 48.6875 27.296875 
Q 48.6875 37.203125 44.609375 42.84375 
Q 40.53125 48.484375 33.40625 48.484375 
Q 26.265625 48.484375 22.1875 42.84375 
Q 18.109375 37.203125 18.109375 27.296875 
Q 18.109375 17.390625 22.1875 11.75 
Q 26.265625 6.109375 33.40625 6.109375 
Q 40.53125 6.109375 44.609375 11.75 
Q 48.6875 17.390625 48.6875 27.296875 
z
" id="DejaVuSans-112"/>
     </defs>
     <g transform="translate(46.469844 221.675365)rotate(-90)scale(0.1 -0.1)">
      <use xlink:href="#DejaVuSans-116"/>
      <use x="39.208984" xlink:href="#DejaVuSans-104"/>
      <use x="102.587891" xlink:href="#DejaVuSans-114"/>
      <use x="143.669922" xlink:href="#DejaVuSans-111"/>
      <use x="204.851562" xlink:href="#DejaVuSans-117"/>
      <use x="268.230469" xlink:href="#DejaVuSans-103"/>
      <use x="331.707031" xlink:href="#DejaVuSans-104"/>
      <use x="395.085938" xlink:href="#DejaVuSans-112"/>
      <use x="458.5625" xlink:href="#DejaVuSans-117"/>
      <use x="521.941406" xlink:href="#DejaVuSans-116"/>
     </g>
     <!-- (mbit / second) -->
     <defs>
      <path d="M 31 75.875 
Q 24.46875 64.65625 21.28125 53.65625 
Q 18.109375 42.671875 18.109375 31.390625 
Q 18.109375 20.125 21.3125 9.0625 
Q 24.515625 -2 31 -13.1875 
L 23.1875 -13.1875 
Q 15.875 -1.703125 12.234375 9.375 
Q 8.59375 20.453125 8.59375 31.390625 
Q 8.59375 42.28125 12.203125 53.3125 
Q 15.828125 64.359375 23.1875 75.875 
z
" id="DejaVuSans-40"/>
      <path d="M 52 44.1875 
Q 55.375 50.25 60.0625 53.125 
Q 64.75 56 71.09375 56 
Q 79.640625 56 84.28125 50.015625 
Q 88.921875 44.046875 88.921875 33.015625 
L 88.921875 0 
L 79.890625 0 
L 79.890625 32.71875 
Q 79.890625 40.578125 77.09375 44.375 
Q 74.3125 48.1875 68.609375 48.1875 
Q 61.625 48.1875 57.5625 43.546875 
Q 53.515625 38.921875 53.515625 30.90625 
L 53.515625 0 
L 44.484375 0 
L 44.484375 32.71875 
Q 44.484375 40.625 41.703125 44.40625 
Q 38.921875 48.1875 33.109375 48.1875 
Q 26.21875 48.1875 22.15625 43.53125 
Q 18.109375 38.875 18.109375 30.90625 
L 18.109375 0 
L 9.078125 0 
L 9.078125 54.6875 
L 18.109375 54.6875 
L 18.109375 46.1875 
Q 21.1875 51.21875 25.484375 53.609375 
Q 29.78125 56 35.6875 56 
Q 41.65625 56 45.828125 52.96875 
Q 50 49.953125 52 44.1875 
z
" id="DejaVuSans-109"/>
      <path d="M 48.6875 27.296875 
Q 48.6875 37.203125 44.609375 42.84375 
Q 40.53125 48.484375 33.40625 48.484375 
Q 26.265625 48.484375 22.1875 42.84375 
Q 18.109375 37.203125 18.109375 27.296875 
Q 18.109375 17.390625 22.1875 11.75 
Q 26.265625 6.109375 33.40625 6.109375 
Q 40.53125 6.109375 44.609375 11.75 
Q 48.6875 17.390625 48.6875 27.296875 
z
M 18.109375 46.390625 
Q 20.953125 51.265625 25.265625 53.625 
Q 29.59375 56 35.59375 56 
Q 45.5625 56 51.78125 48.09375 
Q 58.015625 40.1875 58.015625 27.296875 
Q 58.015625 14.40625 51.78125 6.484375 
Q 45.5625 -1.421875 35.59375 -1.421875 
Q 29.59375 -1.421875 25.265625 0.953125 
Q 20.953125 3.328125 18.109375 8.203125 
L 18.109375 0 
L 9.078125 0 
L 9.078125 75.984375 
L 18.109375 75.984375 
z
" id="DejaVuSans-98"/>
      <path d="M 9.421875 54.6875 
L 18.40625 54.6875 
L 18.40625 0 
L 9.421875 0 
z
M 9.421875 75.984375 
L 18.40625 75.984375 
L 18.40625 64.59375 
L 9.421875 64.59375 
z
" id="DejaVuSans-105"/>
      <path id="DejaVuSans-32"/>
      <path d="M 25.390625 72.90625 
L 33.6875 72.90625 
L 8.296875 -9.28125 
L 0 -9.28125 
z
" id="DejaVuSans-47"/>
      <path d="M 44.28125 53.078125 
L 44.28125 44.578125 
Q 40.484375 46.53125 36.375 47.5 
Q 32.28125 48.484375 27.875 48.484375 
Q 21.1875 48.484375 17.84375 46.4375 
Q 14.5 44.390625 14.5 40.28125 
Q 14.5 37.15625 16.890625 35.375 
Q 19.28125 33.59375 26.515625 31.984375 
L 29.59375 31.296875 
Q 39.15625 29.25 43.1875 25.515625 
Q 47.21875 21.78125 47.21875 15.09375 
Q 47.21875 7.46875 41.1875 3.015625 
Q 35.15625 -1.421875 24.609375 -1.421875 
Q 20.21875 -1.421875 15.453125 -0.5625 
Q 10.6875 0.296875 5.421875 2 
L 5.421875 11.28125 
Q 10.40625 8.6875 15.234375 7.390625 
Q 20.0625 6.109375 24.8125 6.109375 
Q 31.15625 6.109375 34.5625 8.28125 
Q 37.984375 10.453125 37.984375 14.40625 
Q 37.984375 18.0625 35.515625 20.015625 
Q 33.0625 21.96875 24.703125 23.78125 
L 21.578125 24.515625 
Q 13.234375 26.265625 9.515625 29.90625 
Q 5.8125 33.546875 5.8125 39.890625 
Q 5.8125 47.609375 11.28125 51.796875 
Q 16.75 56 26.8125 56 
Q 31.78125 56 36.171875 55.265625 
Q 40.578125 54.546875 44.28125 53.078125 
z
" id="DejaVuSans-115"/>
      <path d="M 56.203125 29.59375 
L 56.203125 25.203125 
L 14.890625 25.203125 
Q 15.484375 15.921875 20.484375 11.0625 
Q 25.484375 6.203125 34.421875 6.203125 
Q 39.59375 6.203125 44.453125 7.46875 
Q 49.3125 8.734375 54.109375 11.28125 
L 54.109375 2.78125 
Q 49.265625 0.734375 44.1875 -0.34375 
Q 39.109375 -1.421875 33.890625 -1.421875 
Q 20.796875 -1.421875 13.15625 6.1875 
Q 5.515625 13.8125 5.515625 26.8125 
Q 5.515625 40.234375 12.765625 48.109375 
Q 20.015625 56 32.328125 56 
Q 43.359375 56 49.78125 48.890625 
Q 56.203125 41.796875 56.203125 29.59375 
z
M 47.21875 32.234375 
Q 47.125 39.59375 43.09375 43.984375 
Q 39.0625 48.390625 32.421875 48.390625 
Q 24.90625 48.390625 20.390625 44.140625 
Q 15.875 39.890625 15.1875 32.171875 
z
" id="DejaVuSans-101"/>
      <path d="M 48.78125 52.59375 
L 48.78125 44.1875 
Q 44.96875 46.296875 41.140625 47.34375 
Q 37.3125 48.390625 33.40625 48.390625 
Q 24.65625 48.390625 19.8125 42.84375 
Q 14.984375 37.3125 14.984375 27.296875 
Q 14.984375 17.28125 19.8125 11.734375 
Q 24.65625 6.203125 33.40625 6.203125 
Q 37.3125 6.203125 41.140625 7.25 
Q 44.96875 8.296875 48.78125 10.40625 
L 48.78125 2.09375 
Q 45.015625 0.34375 40.984375 -0.53125 
Q 36.96875 -1.421875 32.421875 -1.421875 
Q 20.0625 -1.421875 12.78125 6.34375 
Q 5.515625 14.109375 5.515625 27.296875 
Q 5.515625 40.671875 12.859375 48.328125 
Q 20.21875 56 33.015625 56 
Q 37.15625 56 41.109375 55.140625 
Q 45.0625 54.296875 48.78125 52.59375 
z
" id="DejaVuSans-99"/>
      <path d="M 54.890625 33.015625 
L 54.890625 0 
L 45.90625 0 
L 45.90625 32.71875 
Q 45.90625 40.484375 42.875 44.328125 
Q 39.84375 48.1875 33.796875 48.1875 
Q 26.515625 48.1875 22.3125 43.546875 
Q 18.109375 38.921875 18.109375 30.90625 
L 18.109375 0 
L 9.078125 0 
L 9.078125 54.6875 
L 18.109375 54.6875 
L 18.109375 46.1875 
Q 21.34375 51.125 25.703125 53.5625 
Q 30.078125 56 35.796875 56 
Q 45.21875 56 50.046875 50.171875 
Q 54.890625 44.34375 54.890625 33.015625 
z
" id="DejaVuSans-110"/>
      <path d="M 45.40625 46.390625 
L 45.40625 75.984375 
L 54.390625 75.984375 
L 54.390625 0 
L 45.40625 0 
L 45.40625 8.203125 
Q 42.578125 3.328125 38.25 0.953125 
Q 33.9375 -1.421875 27.875 -1.421875 
Q 17.96875 -1.421875 11.734375 6.484375 
Q 5.515625 14.40625 5.515625 27.296875 
Q 5.515625 40.1875 11.734375 48.09375 
Q 17.96875 56 27.875 56 
Q 33.9375 56 38.25 53.625 
Q 42.578125 51.265625 45.40625 46.390625 
z
M 14.796875 27.296875 
Q 14.796875 17.390625 18.875 11.75 
Q 22.953125 6.109375 30.078125 6.109375 
Q 37.203125 6.109375 41.296875 11.75 
Q 45.40625 17.390625 45.40625 27.296875 
Q 45.40625 37.203125 41.296875 42.84375 
Q 37.203125 48.484375 30.078125 48.484375 
Q 22.953125 48.484375 18.875 42.84375 
Q 14.796875 37.203125 14.796875 27.296875 
z
" id="DejaVuSans-100"/>
      <path d="M 8.015625 75.875 
L 15.828125 75.875 
Q 23.140625 64.359375 26.78125 53.3125 
Q 30.421875 42.28125 30.421875 31.390625 
Q 30.421875 20.453125 26.78125 9.375 
Q 23.140625 -1.703125 15.828125 -13.1875 
L 8.015625 -13.1875 
Q 14.5 -2 17.703125 9.0625 
Q 20.90625 20.125 20.90625 31.390625 
Q 20.90625 42.671875 17.703125 53.65625 
Q 14.5 64.65625 8.015625 75.875 
z
" id="DejaVuSans-41"/>
     </defs>
     <g transform="translate(57.667656 231.608958)rotate(-90)scale(0.1 -0.1)">
      <use xlink:href="#DejaVuSans-40"/>
      <use x="39.013672" xlink:href="#DejaVuSans-109"/>
      <use x="136.425781" xlink:href="#DejaVuSans-98"/>
      <use x="199.902344" xlink:href="#DejaVuSans-105"/>
      <use x="227.685547" xlink:href="#DejaVuSans-116"/>
      <use x="266.894531" xlink:href="#DejaVuSans-32"/>
      <use x="298.681641" xlink:href="#DejaVuSans-47"/>
      <use x="332.373047" xlink:href="#DejaVuSans-32"/>
      <use x="364.160156" xlink:href="#DejaVuSans-115"/>
      <use x="416.259766" xlink:href="#DejaVuSans-101"/>
      <use x="477.783203" xlink:href="#DejaVuSans-99"/>
      <use x="532.763672" xlink:href="#DejaVuSans-111"/>
      <use x="593.945312" xlink:href="#DejaVuSans-110"/>
      <use x="657.324219" xlink:href="#DejaVuSans-100"/>
      <use x="720.800781" xlink:href="#DejaVuSans-41"/>
     </g>
    </g>
   </g>
   <g id="line2d_16">
    <path clip-path="url(#p2ce06ed6f1)" d="M 109.68586 306.299061 
L 111.156126 191.611297 
L 111.891259 157.204968 
L 113.361524 229.840552 
L 114.096657 241.309328 
L 114.83179 237.486403 
L 115.566923 237.486403 
L 118.507455 222.194701 
L 119.242588 226.017627 
L 119.97772 241.309328 
L 121.447986 264.246881 
L 122.183119 291.007359 
L 122.918252 302.476136 
L 123.653385 317.767838 
L 125.123651 340.70539 
L 125.858784 348.351241 
L 126.593917 352.174167 
L 129.534448 352.174167 
L 130.269581 348.351241 
L 131.004714 352.174167 
L 136.885777 352.174167 
L 137.62091 336.882465 
L 138.356043 317.767838 
L 139.091176 271.892732 
L 140.561442 157.204968 
L 141.296575 145.736192 
L 142.76684 138.090341 
L 144.972239 138.090341 
L 145.707372 141.913267 
L 146.442505 149.559117 
L 147.912771 157.204968 
L 148.647904 157.204968 
L 149.383037 161.027894 
L 150.853302 161.027894 
L 151.588435 176.319596 
L 152.323568 180.142521 
L 153.058701 187.788372 
L 153.793834 210.725925 
L 155.2641 260.423956 
L 155.999233 283.361508 
L 156.734366 302.476136 
L 157.469499 313.944912 
L 158.204631 329.236614 
L 158.939764 340.70539 
L 159.674897 348.351241 
L 160.41003 344.528316 
L 161.880296 352.174167 
L 162.615429 352.174167 
L 163.350562 348.351241 
L 164.085695 348.351241 
L 164.820828 352.174167 
L 174.377555 352.174167 
L 175.112688 348.351241 
L 175.847821 340.70539 
L 176.582954 321.590763 
L 178.788353 275.715658 
L 180.258619 252.778105 
L 180.993751 245.132254 
L 181.728884 241.309328 
L 182.464017 233.663477 
L 183.19915 229.840552 
L 183.934283 229.840552 
L 185.404549 222.194701 
L 186.139682 222.194701 
L 186.874815 214.54885 
L 187.609948 210.725925 
L 189.080213 210.725925 
L 189.815346 206.902999 
L 190.550479 214.54885 
L 191.285612 233.663477 
L 193.491011 310.121987 
L 195.696409 344.528316 
L 197.166675 352.174167 
L 203.782871 352.174167 
L 204.518004 348.351241 
L 205.98827 348.351241 
L 206.723403 352.174167 
L 208.193669 352.174167 
L 208.928802 348.351241 
L 209.663935 333.059539 
L 210.399068 306.299061 
L 211.1342 260.423956 
L 211.869333 203.080074 
L 212.604466 157.204968 
L 213.339599 157.204968 
L 214.074732 149.559117 
L 215.544998 141.913267 
L 216.280131 145.736192 
L 217.015264 145.736192 
L 217.750397 157.204968 
L 218.485529 161.027894 
L 219.955795 161.027894 
L 220.690928 164.850819 
L 221.426061 164.850819 
L 222.161194 168.673745 
L 222.896327 176.319596 
L 223.63146 187.788372 
L 224.366593 203.080074 
L 225.101726 226.017627 
L 226.571991 256.60103 
L 227.307124 279.538583 
L 228.042257 294.830285 
L 230.247656 329.236614 
L 230.982789 336.882465 
L 231.717922 340.70539 
L 232.453055 348.351241 
L 233.188188 352.174167 
L 240.539517 352.174167 
L 241.274649 344.528316 
L 242.744915 321.590763 
L 243.480048 317.767838 
L 244.215181 317.767838 
L 244.950314 306.299061 
L 246.42058 298.65321 
L 247.155713 291.007359 
L 248.625979 291.007359 
L 249.361111 298.65321 
L 250.831377 291.007359 
L 251.56651 302.476136 
L 253.036776 294.830285 
L 253.771909 287.184434 
L 254.507042 275.715658 
L 255.242175 275.715658 
L 255.977308 271.892732 
L 256.71244 271.892732 
L 257.447573 283.361508 
L 258.182706 291.007359 
L 260.388105 325.413688 
L 261.123238 333.059539 
L 261.858371 344.528316 
L 263.328637 352.174167 
L 272.885364 352.174167 
L 273.620497 344.528316 
L 276.561029 298.65321 
L 277.296162 291.007359 
L 278.031295 279.538583 
L 280.236693 256.60103 
L 280.971826 252.778105 
L 281.706959 245.132254 
L 285.382624 226.017627 
L 286.117757 233.663477 
L 286.852889 229.840552 
L 287.588022 222.194701 
L 288.323155 226.017627 
L 290.528554 283.361508 
L 291.263687 294.830285 
L 291.99882 313.944912 
L 293.469086 344.528316 
L 294.204218 348.351241 
L 294.939351 348.351241 
L 295.674484 352.174167 
L 303.025813 352.174167 
L 304.496079 344.528316 
L 305.231212 333.059539 
L 305.966345 325.413688 
L 307.436611 317.767838 
L 308.171744 321.590763 
L 308.906877 317.767838 
L 309.642009 310.121987 
L 310.377142 306.299061 
L 311.112275 298.65321 
L 312.582541 291.007359 
L 313.317674 283.361508 
L 315.523073 271.892732 
L 316.258206 271.892732 
L 316.993338 275.715658 
L 318.463604 268.069807 
L 319.198737 271.892732 
L 319.93387 287.184434 
L 320.669003 298.65321 
L 321.404136 313.944912 
L 324.344668 344.528316 
L 325.0798 348.351241 
L 325.814933 348.351241 
L 326.550066 352.174167 
L 338.312193 352.174167 
L 339.047326 344.528316 
L 339.782458 329.236614 
L 340.517591 317.767838 
L 341.252724 310.121987 
L 342.72299 317.767838 
L 343.458123 313.944912 
L 344.193256 306.299061 
L 345.663522 298.65321 
L 346.398655 298.65321 
L 347.133788 306.299061 
L 347.86892 302.476136 
L 348.604053 287.184434 
L 349.339186 283.361508 
L 350.074319 283.361508 
L 352.279718 271.892732 
L 353.014851 264.246881 
L 353.749984 245.132254 
L 355.220249 268.069807 
L 355.955382 275.715658 
L 356.690515 287.184434 
L 357.425648 306.299061 
L 358.160781 313.944912 
L 358.895914 325.413688 
L 359.631047 329.236614 
L 360.36618 340.70539 
L 362.571578 352.174167 
L 381.685034 352.174167 
L 382.420167 348.351241 
L 383.1553 329.236614 
L 384.625566 298.65321 
L 386.830964 264.246881 
L 389.036363 241.309328 
L 391.976895 226.017627 
L 392.712027 226.017627 
L 393.44716 222.194701 
L 394.182293 214.54885 
L 394.917426 180.142521 
L 395.652559 183.965447 
L 396.387692 183.965447 
L 397.122825 176.319596 
L 397.857958 191.611297 
L 398.593091 218.371776 
L 399.328224 256.60103 
L 400.798489 306.299061 
L 402.268755 336.882465 
L 403.003888 344.528316 
L 404.474154 352.174167 
L 413.295749 352.174167 
L 414.030882 348.351241 
L 416.971413 287.184434 
L 419.176812 252.778105 
L 420.647078 237.486403 
L 424.322742 218.371776 
L 426.528141 218.371776 
L 427.263274 222.194701 
L 428.73354 222.194701 
L 429.468673 218.371776 
L 430.203806 252.778105 
L 430.938938 260.423956 
L 432.409204 291.007359 
L 433.144337 310.121987 
L 433.87947 325.413688 
L 435.349736 340.70539 
L 436.084869 352.174167 
L 439.760533 352.174167 
L 440.495666 348.351241 
L 441.230799 352.174167 
L 444.906464 352.174167 
L 446.376729 344.528316 
L 447.111862 336.882465 
L 447.846995 321.590763 
L 448.582128 313.944912 
L 449.317261 302.476136 
L 451.52266 279.538583 
L 452.257793 268.069807 
L 452.992926 264.246881 
L 453.728058 256.60103 
L 454.463191 252.778105 
L 455.198324 245.132254 
L 455.933457 241.309328 
L 456.66859 241.309328 
L 458.873989 229.840552 
L 459.609122 229.840552 
L 461.079387 222.194701 
L 461.81452 241.309328 
L 462.549653 248.955179 
L 463.284786 260.423956 
L 464.019919 279.538583 
L 465.490185 310.121987 
L 466.225318 321.590763 
L 466.960451 340.70539 
L 469.165849 352.174167 
L 470.636115 352.174167 
L 471.371248 348.351241 
L 472.106381 352.174167 
L 475.046913 352.174167 
L 475.782046 348.351241 
L 477.987444 348.351241 
L 478.722577 352.174167 
L 490.484704 352.174167 
L 491.219837 344.528316 
L 491.954969 333.059539 
L 492.690102 313.944912 
L 494.160368 283.361508 
L 495.630634 260.423956 
L 497.836033 237.486403 
L 499.306298 229.840552 
L 500.041431 229.840552 
L 501.511697 237.486403 
L 502.24683 245.132254 
L 503.717096 245.132254 
L 504.452229 241.309328 
L 505.187362 241.309328 
L 505.922495 237.486403 
L 506.657627 241.309328 
L 506.657627 241.309328 
" style="fill:none;stroke:#1f77b4;stroke-linecap:square;stroke-width:1.5;"/>
   </g>
   <g id="line2d_17">
    <path clip-path="url(#p2ce06ed6f1)" d="M 103.765099 69.277683 
L 104.500232 50.163056 
L 105.970498 50.163056 
L 106.705631 168.673745 
L 107.440764 206.902999 
L 109.646163 287.184434 
L 110.381296 306.299061 
L 111.116428 321.590763 
L 111.851561 329.236614 
L 112.586694 333.059539 
L 116.262359 333.059539 
L 116.997492 336.882465 
L 117.732625 336.882465 
L 118.467757 340.70539 
L 119.20289 329.236614 
L 122.878555 199.257148 
L 123.613688 183.965447 
L 124.348821 176.319596 
L 125.819087 168.673745 
L 126.554219 168.673745 
L 128.024485 176.319596 
L 128.759618 168.673745 
L 130.965017 180.142521 
L 131.70015 180.142521 
L 133.170416 187.788372 
L 133.905548 187.788372 
L 135.375814 180.142521 
L 136.110947 183.965447 
L 136.84608 195.434223 
L 137.581213 317.767838 
L 138.316346 260.423956 
L 139.051479 279.538583 
L 139.786612 302.476136 
L 140.521745 321.590763 
L 143.462276 336.882465 
L 144.197409 336.882465 
L 144.932542 340.70539 
L 145.667675 340.70539 
L 146.402808 336.882465 
L 150.078472 336.882465 
L 150.813605 340.70539 
L 153.019004 340.70539 
L 153.754137 321.590763 
L 154.48927 306.299061 
L 155.224403 294.830285 
L 155.959536 279.538583 
L 156.694668 260.423956 
L 157.429801 245.132254 
L 158.164934 233.663477 
L 158.900067 226.017627 
L 159.6352 214.54885 
L 161.105466 206.902999 
L 161.840599 206.902999 
L 163.310865 214.54885 
L 164.78113 214.54885 
L 166.251396 222.194701 
L 166.986529 214.54885 
L 167.721662 210.725925 
L 169.191928 210.725925 
L 171.397327 222.194701 
L 172.132459 218.371776 
L 172.867592 222.194701 
L 173.602725 218.371776 
L 174.337858 218.371776 
L 175.072991 271.892732 
L 175.808124 222.194701 
L 176.543257 241.309328 
L 177.27839 256.60103 
L 178.013523 268.069807 
L 178.748656 283.361508 
L 179.483788 291.007359 
L 180.218921 302.476136 
L 180.954054 310.121987 
L 181.689187 313.944912 
L 182.42432 321.590763 
L 183.894586 329.236614 
L 184.629719 329.236614 
L 186.099985 336.882465 
L 187.57025 336.882465 
L 188.305383 333.059539 
L 189.775649 340.70539 
L 190.510782 336.882465 
L 191.245915 317.767838 
L 191.981048 291.007359 
L 192.716181 245.132254 
L 193.451314 222.194701 
L 194.186447 210.725925 
L 196.391845 199.257148 
L 197.862111 199.257148 
L 199.332377 206.902999 
L 200.06751 206.902999 
L 200.802643 214.54885 
L 202.272908 214.54885 
L 203.743174 222.194701 
L 204.478307 218.371776 
L 205.21344 218.371776 
L 207.418839 206.902999 
L 208.153972 248.955179 
L 208.889105 149.559117 
L 209.624237 176.319596 
L 211.829636 291.007359 
L 212.564769 313.944912 
L 213.299902 321.590763 
L 214.035035 325.413688 
L 214.770168 333.059539 
L 215.505301 333.059539 
L 216.240434 336.882465 
L 217.710699 336.882465 
L 218.445832 333.059539 
L 219.180965 333.059539 
L 219.916098 336.882465 
L 222.85663 336.882465 
L 223.591763 340.70539 
L 224.326896 325.413688 
L 225.062028 306.299061 
L 225.797161 291.007359 
L 226.532294 283.361508 
L 227.267427 268.069807 
L 228.00256 256.60103 
L 228.737693 248.955179 
L 230.207959 226.017627 
L 230.943092 218.371776 
L 231.678225 218.371776 
L 232.413357 210.725925 
L 233.14849 218.371776 
L 233.883623 218.371776 
L 234.618756 226.017627 
L 235.353889 218.371776 
L 236.089022 226.017627 
L 236.824155 222.194701 
L 237.559288 226.017627 
L 239.764686 226.017627 
L 240.499819 264.246881 
L 241.234952 313.944912 
L 241.970085 279.538583 
L 242.705218 291.007359 
L 244.175484 321.590763 
L 247.116016 336.882465 
L 250.056547 336.882465 
L 250.79168 340.70539 
L 251.526813 340.70539 
L 252.261946 336.882465 
L 252.997079 340.70539 
L 253.732212 336.882465 
L 255.202477 336.882465 
L 255.93761 340.70539 
L 256.672743 336.882465 
L 257.407876 321.590763 
L 258.143009 310.121987 
L 258.878142 291.007359 
L 259.613275 268.069807 
L 260.348408 248.955179 
L 261.818674 233.663477 
L 262.553806 233.663477 
L 263.288939 226.017627 
L 264.024072 226.017627 
L 264.759205 229.840552 
L 265.494338 222.194701 
L 266.229471 218.371776 
L 266.964604 210.725925 
L 267.699737 218.371776 
L 268.43487 210.725925 
L 269.170003 210.725925 
L 270.640268 203.080074 
L 271.375401 203.080074 
L 272.110534 199.257148 
L 272.845667 130.44449 
L 275.051066 222.194701 
L 275.786199 245.132254 
L 276.521332 264.246881 
L 277.256465 279.538583 
L 278.72673 302.476136 
L 283.872661 329.236614 
L 284.607794 329.236614 
L 285.342926 333.059539 
L 286.078059 329.236614 
L 286.813192 333.059539 
L 287.548325 340.70539 
L 288.283458 333.059539 
L 289.753724 287.184434 
L 291.959123 229.840552 
L 292.694256 206.902999 
L 293.429388 199.257148 
L 294.899654 199.257148 
L 295.634787 210.725925 
L 297.105053 210.725925 
L 297.840186 222.194701 
L 298.575319 222.194701 
L 301.51585 206.902999 
L 302.250983 206.902999 
L 302.986116 203.080074 
L 303.721249 99.861086 
L 304.456382 176.319596 
L 305.191515 226.017627 
L 305.926648 264.246881 
L 306.661781 294.830285 
L 307.396914 317.767838 
L 310.337445 333.059539 
L 311.807711 333.059539 
L 312.542844 336.882465 
L 316.218508 336.882465 
L 316.953641 333.059539 
L 317.688774 333.059539 
L 318.423907 340.70539 
L 319.15904 321.590763 
L 319.894173 294.830285 
L 321.364439 264.246881 
L 322.099572 241.309328 
L 322.834705 229.840552 
L 323.569837 210.725925 
L 324.30497 206.902999 
L 325.040103 210.725925 
L 325.775236 210.725925 
L 326.510369 203.080074 
L 327.245502 203.080074 
L 327.980635 210.725925 
L 328.715768 206.902999 
L 329.450901 210.725925 
L 330.186034 203.080074 
L 330.921166 199.257148 
L 331.656299 199.257148 
L 332.391432 191.611297 
L 333.861698 199.257148 
L 334.596831 199.257148 
L 335.331964 195.434223 
L 336.067097 203.080074 
L 337.537363 195.434223 
L 338.272495 248.955179 
L 339.007628 214.54885 
L 341.94816 321.590763 
L 342.683293 325.413688 
L 343.418426 333.059539 
L 344.153559 336.882465 
L 345.623825 336.882465 
L 346.358957 340.70539 
L 347.829223 340.70539 
L 348.564356 336.882465 
L 351.504888 336.882465 
L 352.240021 340.70539 
L 352.975154 340.70539 
L 353.710286 344.528316 
L 354.445419 333.059539 
L 355.180552 325.413688 
L 358.856217 268.069807 
L 362.531881 229.840552 
L 364.002147 229.840552 
L 364.73728 218.371776 
L 366.207546 203.080074 
L 366.942679 210.725925 
L 369.148077 222.194701 
L 370.618343 222.194701 
L 371.353476 218.371776 
L 372.088609 218.371776 
L 373.558875 210.725925 
L 374.294008 210.725925 
L 375.764274 203.080074 
L 377.234539 187.788372 
L 378.704805 187.788372 
L 379.439938 183.965447 
L 380.175071 191.611297 
L 380.910204 191.611297 
L 381.645337 287.184434 
L 382.38047 287.184434 
L 383.115603 275.715658 
L 384.585868 291.007359 
L 385.321001 294.830285 
L 386.056134 302.476136 
L 387.5264 310.121987 
L 388.261533 317.767838 
L 391.202065 333.059539 
L 392.67233 333.059539 
L 393.407463 336.882465 
L 394.877729 336.882465 
L 395.612862 333.059539 
L 396.347995 333.059539 
L 397.083128 340.70539 
L 397.818261 333.059539 
L 398.553394 310.121987 
L 400.023659 279.538583 
L 400.758792 268.069807 
L 401.493925 248.955179 
L 402.229058 233.663477 
L 402.964191 214.54885 
L 404.434457 206.902999 
L 405.16959 210.725925 
L 405.904723 206.902999 
L 406.639855 210.725925 
L 407.374988 210.725925 
L 408.110121 214.54885 
L 408.845254 214.54885 
L 409.580387 218.371776 
L 410.31552 218.371776 
L 411.050653 226.017627 
L 411.785786 226.017627 
L 412.520919 222.194701 
L 413.256052 229.840552 
L 413.991185 268.069807 
L 414.726317 248.955179 
L 415.46145 260.423956 
L 416.196583 275.715658 
L 416.931716 283.361508 
L 417.666849 294.830285 
L 418.401982 302.476136 
L 419.137115 306.299061 
L 419.872248 313.944912 
L 423.547912 333.059539 
L 425.018178 333.059539 
L 425.753311 336.882465 
L 426.488444 336.882465 
L 427.223577 333.059539 
L 427.95871 336.882465 
L 428.693843 336.882465 
L 429.428975 344.528316 
L 430.164108 329.236614 
L 430.899241 317.767838 
L 433.10464 260.423956 
L 433.839773 233.663477 
L 436.045172 187.788372 
L 436.780305 180.142521 
L 437.515437 176.319596 
L 438.25057 176.319596 
L 438.985703 172.49667 
L 440.455969 180.142521 
L 441.191102 176.319596 
L 441.926235 187.788372 
L 444.131634 199.257148 
L 444.866766 199.257148 
L 445.601899 134.267416 
L 446.337032 134.267416 
L 447.072165 195.434223 
L 447.807298 229.840552 
L 449.277564 279.538583 
L 450.74783 302.476136 
L 452.218095 317.767838 
L 452.953228 317.767838 
L 455.89376 333.059539 
L 456.628893 329.236614 
L 457.364026 333.059539 
L 458.834292 333.059539 
L 460.304557 340.70539 
L 461.03969 336.882465 
L 461.774823 317.767838 
L 463.245089 294.830285 
L 463.980222 275.715658 
L 464.715355 248.955179 
L 465.450488 233.663477 
L 466.185621 226.017627 
L 467.655886 218.371776 
L 468.391019 218.371776 
L 469.126152 222.194701 
L 469.861285 222.194701 
L 470.596418 226.017627 
L 471.331551 233.663477 
L 472.066684 229.840552 
L 472.801817 233.663477 
L 473.53695 226.017627 
L 474.272083 222.194701 
L 475.007215 222.194701 
L 475.742348 229.840552 
L 476.477481 229.840552 
L 477.212614 226.017627 
L 477.947747 218.371776 
L 478.68288 218.371776 
L 479.418013 226.017627 
L 480.153146 222.194701 
L 480.888279 222.194701 
L 481.623412 229.840552 
L 482.358544 229.840552 
L 484.563943 206.902999 
L 485.299076 203.080074 
L 487.504475 203.080074 
L 489.709874 191.611297 
L 490.445006 218.371776 
L 491.180139 206.902999 
L 491.915272 183.965447 
L 492.650405 218.371776 
L 494.120671 264.246881 
L 495.590937 294.830285 
L 496.32607 306.299061 
L 497.061203 313.944912 
L 498.531468 321.590763 
L 499.266601 329.236614 
L 500.001734 329.236614 
L 501.472 336.882465 
L 501.472 336.882465 
" style="fill:none;stroke:#ff7f0e;stroke-linecap:square;stroke-width:1.5;"/>
   </g>
   <g id="line2d_18">
    <path clip-path="url(#p2ce06ed6f1)" d="M 106.75709 237.486403 
L 107.492223 199.257148 
L 108.962489 149.559117 
L 109.697622 164.850819 
L 110.432755 199.257148 
L 111.167888 241.309328 
L 111.903021 271.892732 
L 112.638154 287.184434 
L 113.373286 306.299061 
L 114.108419 302.476136 
L 114.843552 310.121987 
L 115.578685 313.944912 
L 116.313818 321.590763 
L 117.048951 325.413688 
L 117.784084 325.413688 
L 118.519217 329.236614 
L 119.25435 329.236614 
L 119.989483 325.413688 
L 120.724616 325.413688 
L 121.459748 336.882465 
L 122.194881 313.944912 
L 122.930014 306.299061 
L 124.40028 275.715658 
L 125.135413 256.60103 
L 125.870546 245.132254 
L 128.075945 233.663477 
L 128.811077 237.486403 
L 130.281343 237.486403 
L 131.016476 229.840552 
L 131.751609 226.017627 
L 132.486742 226.017627 
L 133.221875 218.371776 
L 133.957008 222.194701 
L 134.692141 222.194701 
L 135.427274 226.017627 
L 136.162406 222.194701 
L 137.632672 237.486403 
L 138.367805 199.257148 
L 139.838071 283.361508 
L 140.573204 313.944912 
L 142.04347 329.236614 
L 143.513735 336.882465 
L 144.248868 336.882465 
L 144.984001 340.70539 
L 145.719134 336.882465 
L 150.129932 336.882465 
L 150.865065 340.70539 
L 151.600197 336.882465 
L 152.33533 344.528316 
L 153.070463 336.882465 
L 153.805596 317.767838 
L 154.540729 306.299061 
L 155.275862 291.007359 
L 156.010995 264.246881 
L 156.746128 245.132254 
L 157.481261 233.663477 
L 158.216394 218.371776 
L 158.951526 206.902999 
L 159.686659 203.080074 
L 160.421792 206.902999 
L 161.156925 206.902999 
L 161.892058 203.080074 
L 162.627191 203.080074 
L 163.362324 199.257148 
L 164.097457 199.257148 
L 164.83259 195.434223 
L 165.567723 187.788372 
L 166.302855 187.788372 
L 167.037988 195.434223 
L 169.97852 195.434223 
L 170.713653 187.788372 
L 171.448786 187.788372 
L 172.183919 191.611297 
L 172.919052 183.965447 
L 173.654185 187.788372 
L 174.389317 187.788372 
L 175.12445 252.778105 
L 175.859583 203.080074 
L 176.594716 222.194701 
L 177.329849 245.132254 
L 179.535248 291.007359 
L 180.270381 298.65321 
L 181.005514 310.121987 
L 182.475779 317.767838 
L 183.210912 325.413688 
L 184.681178 333.059539 
L 185.416311 333.059539 
L 186.151444 336.882465 
L 187.62171 336.882465 
L 188.356843 333.059539 
L 189.827108 340.70539 
L 190.562241 336.882465 
L 192.032507 298.65321 
L 192.76764 287.184434 
L 193.502773 260.423956 
L 194.237906 241.309328 
L 194.973039 229.840552 
L 195.708172 214.54885 
L 196.443305 214.54885 
L 197.178437 210.725925 
L 197.91357 210.725925 
L 198.648703 203.080074 
L 199.383836 203.080074 
L 201.589235 191.611297 
L 203.794634 191.611297 
L 204.529766 195.434223 
L 205.264899 195.434223 
L 206.735165 203.080074 
L 207.470298 203.080074 
L 208.205431 294.830285 
L 208.940564 271.892732 
L 210.41083 279.538583 
L 211.145963 294.830285 
L 211.881095 313.944912 
L 212.616228 325.413688 
L 213.351361 325.413688 
L 215.55676 336.882465 
L 217.027026 336.882465 
L 217.762159 333.059539 
L 219.967557 333.059539 
L 220.70269 336.882465 
L 222.908089 336.882465 
L 223.643222 344.528316 
L 225.113488 313.944912 
L 225.848621 302.476136 
L 226.583754 287.184434 
L 227.318886 264.246881 
L 228.054019 248.955179 
L 229.524285 226.017627 
L 230.259418 218.371776 
L 230.994551 214.54885 
L 231.729684 203.080074 
L 232.464817 203.080074 
L 233.19995 191.611297 
L 234.670215 183.965447 
L 235.405348 187.788372 
L 236.140481 183.965447 
L 236.875614 187.788372 
L 237.610747 183.965447 
L 238.34588 183.965447 
L 239.081013 180.142521 
L 239.816146 183.965447 
L 240.551279 229.840552 
L 241.286412 222.194701 
L 242.021545 180.142521 
L 244.226943 306.299061 
L 244.962076 317.767838 
L 245.697209 325.413688 
L 247.902608 336.882465 
L 255.253937 336.882465 
L 255.98907 344.528316 
L 256.724203 325.413688 
L 257.459335 302.476136 
L 258.194468 283.361508 
L 258.929601 271.892732 
L 259.664734 252.778105 
L 260.399867 237.486403 
L 261.870133 199.257148 
L 262.605266 187.788372 
L 263.340399 183.965447 
L 264.075532 183.965447 
L 264.810664 180.142521 
L 265.545797 187.788372 
L 266.28093 191.611297 
L 267.016063 199.257148 
L 267.751196 191.611297 
L 269.956595 203.080074 
L 271.426861 203.080074 
L 272.161994 206.902999 
L 272.897126 291.007359 
L 273.632259 260.423956 
L 274.367392 252.778105 
L 275.837658 245.132254 
L 276.572791 245.132254 
L 282.453854 306.299061 
L 285.394386 321.590763 
L 286.864652 321.590763 
L 287.599784 329.236614 
L 288.334917 333.059539 
L 289.07005 313.944912 
L 289.805183 298.65321 
L 290.540316 275.715658 
L 292.010582 245.132254 
L 292.745715 241.309328 
L 294.215981 218.371776 
L 294.951114 218.371776 
L 295.686246 203.080074 
L 297.156512 195.434223 
L 297.891645 187.788372 
L 298.626778 187.788372 
L 299.361911 195.434223 
L 300.832177 195.434223 
L 301.56731 203.080074 
L 302.302443 199.257148 
L 303.037575 203.080074 
L 303.772708 329.236614 
L 304.507841 248.955179 
L 305.242974 226.017627 
L 305.978107 222.194701 
L 306.71324 233.663477 
L 307.448373 260.423956 
L 308.183506 264.246881 
L 309.653772 287.184434 
L 311.85917 310.121987 
L 314.064569 321.590763 
L 314.799702 321.590763 
L 315.534835 325.413688 
L 316.269968 317.767838 
L 317.005101 313.944912 
L 317.740234 317.767838 
L 318.475366 317.767838 
L 319.210499 333.059539 
L 319.945632 310.121987 
L 320.680765 283.361508 
L 321.415898 264.246881 
L 322.151031 252.778105 
L 322.886164 237.486403 
L 323.621297 233.663477 
L 324.35643 226.017627 
L 325.091563 210.725925 
L 325.826695 206.902999 
L 326.561828 206.902999 
L 328.032094 199.257148 
L 329.50236 199.257148 
L 330.237493 206.902999 
L 330.972626 206.902999 
L 332.442892 214.54885 
L 333.178024 214.54885 
L 333.913157 210.725925 
L 335.383423 210.725925 
L 336.118556 206.902999 
L 336.853689 206.902999 
L 337.588822 210.725925 
L 338.323955 268.069807 
L 339.059088 214.54885 
L 339.794221 226.017627 
L 341.264486 283.361508 
L 341.999619 313.944912 
L 342.734752 321.590763 
L 345.675284 336.882465 
L 353.026613 336.882465 
L 353.761746 340.70539 
L 354.496879 325.413688 
L 355.232012 302.476136 
L 357.43741 256.60103 
L 358.172543 237.486403 
L 361.113075 176.319596 
L 361.848208 176.319596 
L 362.583341 180.142521 
L 363.318474 176.319596 
L 364.053606 180.142521 
L 364.788739 187.788372 
L 365.523872 199.257148 
L 366.259005 203.080074 
L 367.729271 195.434223 
L 368.464404 187.788372 
L 369.199537 183.965447 
L 369.93467 183.965447 
L 370.669803 187.788372 
L 372.140068 187.788372 
L 372.875201 195.434223 
L 374.345467 195.434223 
L 375.0806 203.080074 
L 376.550866 210.725925 
L 377.285999 222.194701 
L 378.021132 222.194701 
L 378.756264 226.017627 
L 380.22653 218.371776 
L 380.961663 218.371776 
L 381.696796 252.778105 
L 382.431929 141.913267 
L 383.167062 176.319596 
L 384.637328 226.017627 
L 385.372461 248.955179 
L 386.107593 264.246881 
L 386.842726 283.361508 
L 387.577859 294.830285 
L 388.312992 302.476136 
L 389.048125 313.944912 
L 392.72379 333.059539 
L 393.458923 333.059539 
L 394.194055 336.882465 
L 394.929188 336.882465 
L 395.664321 333.059539 
L 396.399454 336.882465 
L 397.134587 336.882465 
L 397.86972 321.590763 
L 398.604853 310.121987 
L 400.810252 233.663477 
L 401.545384 214.54885 
L 402.280517 203.080074 
L 403.01565 206.902999 
L 403.750783 206.902999 
L 404.485916 203.080074 
L 405.956182 203.080074 
L 406.691315 199.257148 
L 407.426448 199.257148 
L 408.161581 195.434223 
L 408.896713 195.434223 
L 411.837245 180.142521 
L 412.572378 183.965447 
L 413.307511 180.142521 
L 414.042644 248.955179 
L 414.777777 203.080074 
L 415.51291 203.080074 
L 416.248043 218.371776 
L 417.718308 256.60103 
L 419.188574 287.184434 
L 419.923707 294.830285 
L 420.65884 306.299061 
L 421.393973 313.944912 
L 422.864239 321.590763 
L 423.599372 329.236614 
L 424.334504 329.236614 
L 425.069637 333.059539 
L 425.80477 333.059539 
L 426.539903 336.882465 
L 427.275036 333.059539 
L 428.745302 333.059539 
L 429.480435 344.528316 
L 430.215568 325.413688 
L 431.685833 294.830285 
L 432.420966 275.715658 
L 433.156099 252.778105 
L 434.626365 229.840552 
L 435.361498 222.194701 
L 436.096631 226.017627 
L 436.831764 226.017627 
L 437.566897 233.663477 
L 438.30203 233.663477 
L 439.037163 237.486403 
L 440.507428 237.486403 
L 441.242561 229.840552 
L 441.977694 218.371776 
L 444.183093 206.902999 
L 444.918226 210.725925 
L 445.653359 291.007359 
L 446.388492 287.184434 
L 447.123624 245.132254 
L 448.59389 229.840552 
L 449.329023 229.840552 
L 450.799289 237.486403 
L 451.534422 245.132254 
L 453.004688 268.069807 
L 453.739821 275.715658 
L 455.210086 298.65321 
L 455.945219 306.299061 
L 456.680352 306.299061 
L 457.415485 313.944912 
L 459.620884 325.413688 
L 460.356017 325.413688 
L 461.09115 340.70539 
L 461.826283 317.767838 
L 462.561415 310.121987 
L 464.031681 279.538583 
L 464.766814 275.715658 
L 466.23708 245.132254 
L 466.972213 222.194701 
L 467.707346 210.725925 
L 468.442479 195.434223 
L 469.177612 187.788372 
L 469.912744 183.965447 
L 470.647877 183.965447 
L 471.38301 187.788372 
L 472.853276 180.142521 
L 474.323542 187.788372 
L 475.058675 187.788372 
L 475.793808 183.965447 
L 476.528941 187.788372 
L 477.264073 187.788372 
L 477.999206 195.434223 
L 479.469472 180.142521 
L 480.204605 183.965447 
L 480.939738 183.965447 
L 481.674871 176.319596 
L 482.410004 180.142521 
L 483.145137 187.788372 
L 483.88027 191.611297 
L 485.350535 206.902999 
L 486.085668 203.080074 
L 486.820801 203.080074 
L 487.555934 206.902999 
L 488.291067 206.902999 
L 489.0262 214.54885 
L 489.761333 214.54885 
L 490.496466 229.840552 
L 491.231599 317.767838 
L 491.966732 268.069807 
L 492.701864 275.715658 
L 493.436997 279.538583 
L 496.377529 310.121987 
L 497.112662 313.944912 
L 497.847795 321.590763 
L 499.318061 329.236614 
L 500.053193 329.236614 
L 501.523459 336.882465 
L 503.728858 336.882465 
L 503.728858 336.882465 
" style="fill:none;stroke:#2ca02c;stroke-linecap:square;stroke-width:1.5;"/>
   </g>
   <g id="line2d_19">
    <path clip-path="url(#p2ce06ed6f1)" d="M 112.648445 298.65321 
L 113.383578 241.309328 
L 114.853844 233.663477 
L 115.588977 226.017627 
L 116.32411 226.017627 
L 117.059243 222.194701 
L 118.529509 222.194701 
L 119.264642 229.840552 
L 119.999774 245.132254 
L 121.47004 268.069807 
L 122.205173 291.007359 
L 123.675439 321.590763 
L 125.145705 344.528316 
L 126.615971 352.174167 
L 136.907831 352.174167 
L 137.642964 344.528316 
L 138.378097 333.059539 
L 139.11323 317.767838 
L 139.848363 313.944912 
L 140.583496 317.767838 
L 141.318629 317.767838 
L 142.053762 313.944912 
L 142.788894 306.299061 
L 143.524027 302.476136 
L 144.25916 302.476136 
L 144.994293 294.830285 
L 145.729426 294.830285 
L 147.199692 287.184434 
L 147.934825 287.184434 
L 150.875356 271.892732 
L 151.610489 256.60103 
L 152.345622 248.955179 
L 153.080755 252.778105 
L 153.815888 264.246881 
L 154.551021 264.246881 
L 155.286154 268.069807 
L 156.021287 291.007359 
L 157.491553 321.590763 
L 158.226685 333.059539 
L 159.696951 348.351241 
L 160.432084 348.351241 
L 161.167217 352.174167 
L 174.399609 352.174167 
L 175.134742 348.351241 
L 175.869875 340.70539 
L 176.605008 321.590763 
L 178.810407 275.715658 
L 179.54554 264.246881 
L 181.750938 241.309328 
L 184.69147 226.017627 
L 185.426603 226.017627 
L 186.161736 222.194701 
L 186.896869 226.017627 
L 187.632002 233.663477 
L 188.367134 233.663477 
L 189.102267 229.840552 
L 189.8374 222.194701 
L 190.572533 229.840552 
L 192.042799 268.069807 
L 193.513065 325.413688 
L 194.248198 336.882465 
L 194.983331 344.528316 
L 196.453596 352.174167 
L 207.48059 352.174167 
L 208.215723 348.351241 
L 208.950856 340.70539 
L 209.685989 325.413688 
L 210.421122 313.944912 
L 211.156254 306.299061 
L 211.891387 306.299061 
L 212.62652 313.944912 
L 217.772451 287.184434 
L 218.507583 287.184434 
L 221.448115 271.892732 
L 222.183248 271.892732 
L 222.918381 260.423956 
L 223.653514 245.132254 
L 225.858912 279.538583 
L 226.594045 287.184434 
L 227.329178 302.476136 
L 228.064311 313.944912 
L 228.799444 321.590763 
L 229.534577 333.059539 
L 230.26971 340.70539 
L 232.475109 352.174167 
L 240.561571 352.174167 
L 241.296703 336.882465 
L 242.031836 317.767838 
L 242.766969 275.715658 
L 244.237235 168.673745 
L 244.972368 164.850819 
L 245.707501 157.204968 
L 247.177767 149.559117 
L 247.9129 149.559117 
L 248.648032 145.736192 
L 249.383165 138.090341 
L 250.853431 145.736192 
L 251.588564 134.267416 
L 253.05883 141.913267 
L 254.529096 164.850819 
L 255.264229 164.850819 
L 255.999362 157.204968 
L 256.734494 180.142521 
L 257.469627 210.725925 
L 258.20476 229.840552 
L 258.939893 252.778105 
L 259.675026 279.538583 
L 261.880425 336.882465 
L 263.350691 352.174167 
L 272.907418 352.174167 
L 273.642551 344.528316 
L 275.84795 310.121987 
L 276.583083 302.476136 
L 278.053349 279.538583 
L 279.523614 264.246881 
L 280.258747 260.423956 
L 280.99388 252.778105 
L 281.729013 248.955179 
L 282.464146 241.309328 
L 283.934412 233.663477 
L 284.669545 233.663477 
L 285.404678 229.840552 
L 286.139811 233.663477 
L 286.874943 229.840552 
L 287.610076 222.194701 
L 288.345209 229.840552 
L 290.550608 287.184434 
L 291.285741 310.121987 
L 292.020874 325.413688 
L 292.756007 336.882465 
L 293.49114 340.70539 
L 294.226272 348.351241 
L 295.696538 348.351241 
L 296.431671 352.174167 
L 303.047867 352.174167 
L 303.783 348.351241 
L 304.518133 340.70539 
L 305.253266 325.413688 
L 305.988399 298.65321 
L 306.723532 260.423956 
L 307.458665 210.725925 
L 310.399196 180.142521 
L 311.134329 176.319596 
L 311.869462 176.319596 
L 312.604595 172.49667 
L 313.339728 172.49667 
L 314.074861 176.319596 
L 314.809994 176.319596 
L 315.545127 180.142521 
L 316.28026 187.788372 
L 317.015392 191.611297 
L 317.750525 187.788372 
L 318.485658 180.142521 
L 319.220791 187.788372 
L 319.955924 226.017627 
L 321.42619 275.715658 
L 322.161323 298.65321 
L 322.896456 313.944912 
L 323.631589 333.059539 
L 324.366722 340.70539 
L 326.57212 352.174167 
L 338.334247 352.174167 
L 339.06938 340.70539 
L 339.804512 313.944912 
L 340.539645 271.892732 
L 342.009911 161.027894 
L 342.745044 149.559117 
L 343.480177 141.913267 
L 344.21531 138.090341 
L 346.420709 138.090341 
L 347.155841 126.621565 
L 347.890974 130.44449 
L 348.626107 153.382043 
L 350.096373 161.027894 
L 351.566639 161.027894 
L 352.301772 164.850819 
L 353.036905 176.319596 
L 353.772038 183.965447 
L 354.507171 199.257148 
L 355.242303 222.194701 
L 355.977436 241.309328 
L 356.712569 252.778105 
L 357.447702 260.423956 
L 358.182835 283.361508 
L 359.653101 313.944912 
L 360.388234 336.882465 
L 361.123367 344.528316 
L 362.593632 352.174167 
L 380.971955 352.174167 
L 381.707088 348.351241 
L 382.442221 340.70539 
L 384.64762 294.830285 
L 385.382752 283.361508 
L 386.117885 268.069807 
L 386.853018 260.423956 
L 387.588151 248.955179 
L 388.323284 245.132254 
L 389.058417 237.486403 
L 391.998949 222.194701 
L 393.469214 222.194701 
L 394.204347 229.840552 
L 394.93948 256.60103 
L 395.674613 260.423956 
L 396.409746 260.423956 
L 397.144879 256.60103 
L 397.880012 268.069807 
L 398.615145 275.715658 
L 399.350278 279.538583 
L 400.085411 291.007359 
L 400.820543 310.121987 
L 402.290809 340.70539 
L 403.761075 348.351241 
L 404.496208 348.351241 
L 405.231341 352.174167 
L 414.052936 352.174167 
L 414.788069 344.528316 
L 416.993467 298.65321 
L 419.198866 264.246881 
L 420.669132 248.955179 
L 421.404265 245.132254 
L 422.139398 237.486403 
L 422.874531 233.663477 
L 423.609663 233.663477 
L 425.079929 226.017627 
L 425.815062 226.017627 
L 426.550195 222.194701 
L 428.020461 222.194701 
L 428.755594 218.371776 
L 429.490727 210.725925 
L 430.22586 210.725925 
L 432.431258 268.069807 
L 433.166391 294.830285 
L 433.901524 313.944912 
L 434.636657 336.882465 
L 435.37179 348.351241 
L 436.106923 348.351241 
L 436.842056 352.174167 
L 439.047454 352.174167 
L 439.782587 348.351241 
L 440.51772 348.351241 
L 441.252853 352.174167 
L 444.928518 352.174167 
L 446.398783 344.528316 
L 447.869049 321.590763 
L 448.604182 313.944912 
L 449.339315 302.476136 
L 450.074448 294.830285 
L 450.809581 283.361508 
L 451.544714 279.538583 
L 452.279847 268.069807 
L 453.01498 264.246881 
L 455.220378 241.309328 
L 455.955511 237.486403 
L 456.690644 237.486403 
L 458.896043 226.017627 
L 459.631176 226.017627 
L 461.101441 218.371776 
L 461.836574 237.486403 
L 463.30684 260.423956 
L 464.041973 279.538583 
L 464.777106 294.830285 
L 465.512239 313.944912 
L 466.247372 317.767838 
L 466.982505 333.059539 
L 468.45277 348.351241 
L 469.187903 352.174167 
L 470.658169 352.174167 
L 471.393302 348.351241 
L 472.863568 348.351241 
L 473.598701 352.174167 
L 475.068967 352.174167 
L 475.8041 348.351241 
L 476.539232 348.351241 
L 477.274365 352.174167 
L 490.506758 352.174167 
L 491.24189 340.70539 
L 491.977023 325.413688 
L 492.712156 306.299061 
L 494.182422 275.715658 
L 494.917555 264.246881 
L 497.858087 233.663477 
L 500.063485 222.194701 
L 500.798618 214.54885 
L 501.533751 199.257148 
L 503.73915 199.257148 
L 504.474283 195.434223 
L 505.209416 195.434223 
L 505.944549 187.788372 
L 506.679681 203.080074 
L 508.88508 294.830285 
L 509.620213 313.944912 
L 509.620213 313.944912 
" style="fill:none;stroke:#d62728;stroke-linecap:square;stroke-width:1.5;"/>
   </g>
   <g id="patch_3">
    <path d="M 83.472344 352.174167 
L 83.472344 35.0625 
" style="fill:none;stroke:#000000;stroke-linecap:square;stroke-linejoin:miter;stroke-width:0.8;"/>
   </g>
   <g id="patch_4">
    <path d="M 529.912969 352.174167 
L 529.912969 35.0625 
" style="fill:none;stroke:#000000;stroke-linecap:square;stroke-linejoin:miter;stroke-width:0.8;"/>
   </g>
   <g id="patch_5">
    <path d="M 83.472344 352.174167 
L 529.912969 352.174167 
" style="fill:none;stroke:#000000;stroke-linecap:square;stroke-linejoin:miter;stroke-width:0.8;"/>
   </g>
   <g id="patch_6">
    <path d="M 83.472344 35.0625 
L 529.912969 35.0625 
" style="fill:none;stroke:#000000;stroke-linecap:square;stroke-linejoin:miter;stroke-width:0.8;"/>
   </g>
   <g id="legend_1">
    <g id="patch_7">
     <path d="M 554.235 96.775 
L 625.430312 96.775 
Q 627.430312 96.775 627.430312 94.775 
L 627.430312 37.0625 
Q 627.430312 35.0625 625.430312 35.0625 
L 554.235 35.0625 
Q 552.235 35.0625 552.235 37.0625 
L 552.235 94.775 
Q 552.235 96.775 554.235 96.775 
z
" style="fill:#ffffff;opacity:0.8;stroke:#cccccc;stroke-linejoin:miter;"/>
    </g>
    <g id="line2d_20">
     <path d="M 556.235 43.160937 
L 576.235 43.160937 
" style="fill:none;stroke:#1f77b4;stroke-linecap:square;stroke-width:1.5;"/>
    </g>
    <g id="line2d_21"/>
    <g id="text_17">
     <!-- cubic-pi -->
     <defs>
      <path d="M 4.890625 31.390625 
L 31.203125 31.390625 
L 31.203125 23.390625 
L 4.890625 23.390625 
z
" id="DejaVuSans-45"/>
     </defs>
     <g transform="translate(584.235 46.660937)scale(0.1 -0.1)">
      <use xlink:href="#DejaVuSans-99"/>
      <use x="54.980469" xlink:href="#DejaVuSans-117"/>
      <use x="118.359375" xlink:href="#DejaVuSans-98"/>
      <use x="181.835938" xlink:href="#DejaVuSans-105"/>
      <use x="209.619141" xlink:href="#DejaVuSans-99"/>
      <use x="264.599609" xlink:href="#DejaVuSans-45"/>
      <use x="300.683594" xlink:href="#DejaVuSans-112"/>
      <use x="364.160156" xlink:href="#DejaVuSans-105"/>
     </g>
    </g>
    <g id="line2d_22">
     <path d="M 556.235 57.839063 
L 576.235 57.839063 
" style="fill:none;stroke:#ff7f0e;stroke-linecap:square;stroke-width:1.5;"/>
    </g>
    <g id="line2d_23"/>
    <g id="text_18">
     <!-- bbr-pi -->
     <g transform="translate(584.235 61.339063)scale(0.1 -0.1)">
      <use xlink:href="#DejaVuSans-98"/>
      <use x="63.476562" xlink:href="#DejaVuSans-98"/>
      <use x="126.953125" xlink:href="#DejaVuSans-114"/>
      <use x="167.972656" xlink:href="#DejaVuSans-45"/>
      <use x="204.056641" xlink:href="#DejaVuSans-112"/>
      <use x="267.533203" xlink:href="#DejaVuSans-105"/>
     </g>
    </g>
    <g id="line2d_24">
     <path d="M 556.235 72.517187 
L 576.235 72.517187 
" style="fill:none;stroke:#2ca02c;stroke-linecap:square;stroke-width:1.5;"/>
    </g>
    <g id="line2d_25"/>
    <g id="text_19">
     <!-- bbr-pi -->
     <g transform="translate(584.235 76.017187)scale(0.1 -0.1)">
      <use xlink:href="#DejaVuSans-98"/>
      <use x="63.476562" xlink:href="#DejaVuSans-98"/>
      <use x="126.953125" xlink:href="#DejaVuSans-114"/>
      <use x="167.972656" xlink:href="#DejaVuSans-45"/>
      <use x="204.056641" xlink:href="#DejaVuSans-112"/>
      <use x="267.533203" xlink:href="#DejaVuSans-105"/>
     </g>
    </g>
    <g id="line2d_26">
     <path d="M 556.235 87.195312 
L 576.235 87.195312 
" style="fill:none;stroke:#d62728;stroke-linecap:square;stroke-width:1.5;"/>
    </g>
    <g id="line2d_27"/>
    <g id="text_20">
     <!-- cubic-pi -->
     <g transform="translate(584.235 90.695312)scale(0.1 -0.1)">
      <use xlink:href="#DejaVuSans-99"/>
      <use x="54.980469" xlink:href="#DejaVuSans-117"/>
      <use x="118.359375" xlink:href="#DejaVuSans-98"/>
      <use x="181.835938" xlink:href="#DejaVuSans-105"/>
      <use x="209.619141" xlink:href="#DejaVuSans-99"/>
      <use x="264.599609" xlink:href="#DejaVuSans-45"/>
      <use x="300.683594" xlink:href="#DejaVuSans-112"/>
      <use x="364.160156" xlink:href="#DejaVuSans-105"/>
     </g>
    </g>
   </g>
  </g>
  <g id="text_21">
   <!-- result throughput -->
   <defs>
    <path d="M 9.421875 75.984375 
L 18.40625 75.984375 
L 18.40625 0 
L 9.421875 0 
z
" id="DejaVuSans-108"/>
   </defs>
   <g transform="translate(289.320938 17.038125)scale(0.12 -0.12)">
    <use xlink:href="#DejaVuSans-114"/>
    <use x="41.082031" xlink:href="#DejaVuSans-101"/>
    <use x="102.605469" xlink:href="#DejaVuSans-115"/>
    <use x="154.705078" xlink:href="#DejaVuSans-117"/>
    <use x="218.083984" xlink:href="#DejaVuSans-108"/>
    <use x="245.867188" xlink:href="#DejaVuSans-116"/>
    <use x="285.076172" xlink:href="#DejaVuSans-32"/>
    <use x="316.863281" xlink:href="#DejaVuSans-116"/>
    <use x="356.072266" xlink:href="#DejaVuSans-104"/>
    <use x="419.451172" xlink:href="#DejaVuSans-114"/>
    <use x="460.533203" xlink:href="#DejaVuSans-111"/>
    <use x="521.714844" xlink:href="#DejaVuSans-117"/>
    <use x="585.09375" xlink:href="#DejaVuSans-103"/>
    <use x="648.570312" xlink:href="#DejaVuSans-104"/>
    <use x="711.949219" xlink:href="#DejaVuSans-112"/>
    <use x="775.425781" xlink:href="#DejaVuSans-117"/>
    <use x="838.804688" xlink:href="#DejaVuSans-116"/>
   </g>
  </g>
 </g>
 <defs>
  <clipPath id="p2ce06ed6f1">
   <rect height="317.111667" width="446.440625" x="83.472344" y="35.0625"/>
  </clipPath>
 </defs>
</svg>
