<?xml version="1.0" encoding="utf-8" standalone="no"?>
<!DOCTYPE svg PUBLIC "-//W3C//DTD SVG 1.1//EN"
  "http://www.w3.org/Graphics/SVG/1.1/DTD/svg11.dtd">
<!-- Created with matplotlib (https://matplotlib.org/) -->
<svg height="396pt" version="1.1" viewBox="0 0 684 396" width="684pt" xmlns="http://www.w3.org/2000/svg" xmlns:xlink="http://www.w3.org/1999/xlink">
 <defs>
  <style type="text/css">
*{stroke-linecap:butt;stroke-linejoin:round;}
  </style>
 </defs>
 <g id="figure_1">
  <g id="patch_1">
   <path d="M 0 396 
L 684 396 
L 684 0 
L 0 0 
z
" style="fill:#ffffff;"/>
  </g>
  <g id="axes_1">
   <g id="patch_2">
    <path d="M 70.834375 352.174167 
L 516.019219 352.174167 
L 516.019219 35.0625 
L 70.834375 35.0625 
z
" style="fill:#ffffff;"/>
   </g>
   <g id="matplotlib.axis_1">
    <g id="xtick_1">
     <g id="line2d_1">
      <defs>
       <path d="M 0 0 
L 0 3.5 
" id="m7e10f4921f" style="stroke:#000000;stroke-width:0.8;"/>
      </defs>
      <g>
       <use style="stroke:#000000;stroke-width:0.8;" x="95.380833" xlink:href="#m7e10f4921f" y="352.174167"/>
      </g>
     </g>
     <g id="text_1">
      <!-- 0 -->
      <defs>
       <path d="M 31.78125 66.40625 
Q 24.171875 66.40625 20.328125 58.90625 
Q 16.5 51.421875 16.5 36.375 
Q 16.5 21.390625 20.328125 13.890625 
Q 24.171875 6.390625 31.78125 6.390625 
Q 39.453125 6.390625 43.28125 13.890625 
Q 47.125 21.390625 47.125 36.375 
Q 47.125 51.421875 43.28125 58.90625 
Q 39.453125 66.40625 31.78125 66.40625 
z
M 31.78125 74.21875 
Q 44.046875 74.21875 50.515625 64.515625 
Q 56.984375 54.828125 56.984375 36.375 
Q 56.984375 17.96875 50.515625 8.265625 
Q 44.046875 -1.421875 31.78125 -1.421875 
Q 19.53125 -1.421875 13.0625 8.265625 
Q 6.59375 17.96875 6.59375 36.375 
Q 6.59375 54.828125 13.0625 64.515625 
Q 19.53125 74.21875 31.78125 74.21875 
z
" id="DejaVuSans-48"/>
      </defs>
      <g transform="translate(92.199583 366.772604)scale(0.1 -0.1)">
       <use xlink:href="#DejaVuSans-48"/>
      </g>
     </g>
    </g>
    <g id="xtick_2">
     <g id="line2d_2">
      <g>
       <use style="stroke:#000000;stroke-width:0.8;" x="165.840045" xlink:href="#m7e10f4921f" y="352.174167"/>
      </g>
     </g>
     <g id="text_2">
      <!-- 50 -->
      <defs>
       <path d="M 10.796875 72.90625 
L 49.515625 72.90625 
L 49.515625 64.59375 
L 19.828125 64.59375 
L 19.828125 46.734375 
Q 21.96875 47.46875 24.109375 47.828125 
Q 26.265625 48.1875 28.421875 48.1875 
Q 40.625 48.1875 47.75 41.5 
Q 54.890625 34.8125 54.890625 23.390625 
Q 54.890625 11.625 47.5625 5.09375 
Q 40.234375 -1.421875 26.90625 -1.421875 
Q 22.3125 -1.421875 17.546875 -0.640625 
Q 12.796875 0.140625 7.71875 1.703125 
L 7.71875 11.625 
Q 12.109375 9.234375 16.796875 8.0625 
Q 21.484375 6.890625 26.703125 6.890625 
Q 35.15625 6.890625 40.078125 11.328125 
Q 45.015625 15.765625 45.015625 23.390625 
Q 45.015625 31 40.078125 35.4375 
Q 35.15625 39.890625 26.703125 39.890625 
Q 22.75 39.890625 18.8125 39.015625 
Q 14.890625 38.140625 10.796875 36.28125 
z
" id="DejaVuSans-53"/>
      </defs>
      <g transform="translate(159.477545 366.772604)scale(0.1 -0.1)">
       <use xlink:href="#DejaVuSans-53"/>
       <use x="63.623047" xlink:href="#DejaVuSans-48"/>
      </g>
     </g>
    </g>
    <g id="xtick_3">
     <g id="line2d_3">
      <g>
       <use style="stroke:#000000;stroke-width:0.8;" x="236.299256" xlink:href="#m7e10f4921f" y="352.174167"/>
      </g>
     </g>
     <g id="text_3">
      <!-- 100 -->
      <defs>
       <path d="M 12.40625 8.296875 
L 28.515625 8.296875 
L 28.515625 63.921875 
L 10.984375 60.40625 
L 10.984375 69.390625 
L 28.421875 72.90625 
L 38.28125 72.90625 
L 38.28125 8.296875 
L 54.390625 8.296875 
L 54.390625 0 
L 12.40625 0 
z
" id="DejaVuSans-49"/>
      </defs>
      <g transform="translate(226.755506 366.772604)scale(0.1 -0.1)">
       <use xlink:href="#DejaVuSans-49"/>
       <use x="63.623047" xlink:href="#DejaVuSans-48"/>
       <use x="127.246094" xlink:href="#DejaVuSans-48"/>
      </g>
     </g>
    </g>
    <g id="xtick_4">
     <g id="line2d_4">
      <g>
       <use style="stroke:#000000;stroke-width:0.8;" x="306.758468" xlink:href="#m7e10f4921f" y="352.174167"/>
      </g>
     </g>
     <g id="text_4">
      <!-- 150 -->
      <g transform="translate(297.214718 366.772604)scale(0.1 -0.1)">
       <use xlink:href="#DejaVuSans-49"/>
       <use x="63.623047" xlink:href="#DejaVuSans-53"/>
       <use x="127.246094" xlink:href="#DejaVuSans-48"/>
      </g>
     </g>
    </g>
    <g id="xtick_5">
     <g id="line2d_5">
      <g>
       <use style="stroke:#000000;stroke-width:0.8;" x="377.217679" xlink:href="#m7e10f4921f" y="352.174167"/>
      </g>
     </g>
     <g id="text_5">
      <!-- 200 -->
      <defs>
       <path d="M 19.1875 8.296875 
L 53.609375 8.296875 
L 53.609375 0 
L 7.328125 0 
L 7.328125 8.296875 
Q 12.9375 14.109375 22.625 23.890625 
Q 32.328125 33.6875 34.8125 36.53125 
Q 39.546875 41.84375 41.421875 45.53125 
Q 43.3125 49.21875 43.3125 52.78125 
Q 43.3125 58.59375 39.234375 62.25 
Q 35.15625 65.921875 28.609375 65.921875 
Q 23.96875 65.921875 18.8125 64.3125 
Q 13.671875 62.703125 7.8125 59.421875 
L 7.8125 69.390625 
Q 13.765625 71.78125 18.9375 73 
Q 24.125 74.21875 28.421875 74.21875 
Q 39.75 74.21875 46.484375 68.546875 
Q 53.21875 62.890625 53.21875 53.421875 
Q 53.21875 48.921875 51.53125 44.890625 
Q 49.859375 40.875 45.40625 35.40625 
Q 44.1875 33.984375 37.640625 27.21875 
Q 31.109375 20.453125 19.1875 8.296875 
z
" id="DejaVuSans-50"/>
      </defs>
      <g transform="translate(367.673929 366.772604)scale(0.1 -0.1)">
       <use xlink:href="#DejaVuSans-50"/>
       <use x="63.623047" xlink:href="#DejaVuSans-48"/>
       <use x="127.246094" xlink:href="#DejaVuSans-48"/>
      </g>
     </g>
    </g>
    <g id="xtick_6">
     <g id="line2d_6">
      <g>
       <use style="stroke:#000000;stroke-width:0.8;" x="447.676891" xlink:href="#m7e10f4921f" y="352.174167"/>
      </g>
     </g>
     <g id="text_6">
      <!-- 250 -->
      <g transform="translate(438.133141 366.772604)scale(0.1 -0.1)">
       <use xlink:href="#DejaVuSans-50"/>
       <use x="63.623047" xlink:href="#DejaVuSans-53"/>
       <use x="127.246094" xlink:href="#DejaVuSans-48"/>
      </g>
     </g>
    </g>
   </g>
   <g id="matplotlib.axis_2">
    <g id="ytick_1">
     <g id="line2d_7">
      <defs>
       <path d="M 0 0 
L -3.5 0 
" id="m03bffa0b54" style="stroke:#000000;stroke-width:0.8;"/>
      </defs>
      <g>
       <use style="stroke:#000000;stroke-width:0.8;" x="70.834375" xlink:href="#m03bffa0b54" y="352.174167"/>
      </g>
     </g>
     <g id="text_7">
      <!-- 0.0 -->
      <defs>
       <path d="M 10.6875 12.40625 
L 21 12.40625 
L 21 0 
L 10.6875 0 
z
" id="DejaVuSans-46"/>
      </defs>
      <g transform="translate(47.93125 355.973385)scale(0.1 -0.1)">
       <use xlink:href="#DejaVuSans-48"/>
       <use x="63.623047" xlink:href="#DejaVuSans-46"/>
       <use x="95.410156" xlink:href="#DejaVuSans-48"/>
      </g>
     </g>
    </g>
    <g id="ytick_2">
     <g id="line2d_8">
      <g>
       <use style="stroke:#000000;stroke-width:0.8;" x="70.834375" xlink:href="#m03bffa0b54" y="313.261197"/>
      </g>
     </g>
     <g id="text_8">
      <!-- 0.5 -->
      <g transform="translate(47.93125 317.060415)scale(0.1 -0.1)">
       <use xlink:href="#DejaVuSans-48"/>
       <use x="63.623047" xlink:href="#DejaVuSans-46"/>
       <use x="95.410156" xlink:href="#DejaVuSans-53"/>
      </g>
     </g>
    </g>
    <g id="ytick_3">
     <g id="line2d_9">
      <g>
       <use style="stroke:#000000;stroke-width:0.8;" x="70.834375" xlink:href="#m03bffa0b54" y="274.348226"/>
      </g>
     </g>
     <g id="text_9">
      <!-- 1.0 -->
      <g transform="translate(47.93125 278.147445)scale(0.1 -0.1)">
       <use xlink:href="#DejaVuSans-49"/>
       <use x="63.623047" xlink:href="#DejaVuSans-46"/>
       <use x="95.410156" xlink:href="#DejaVuSans-48"/>
      </g>
     </g>
    </g>
    <g id="ytick_4">
     <g id="line2d_10">
      <g>
       <use style="stroke:#000000;stroke-width:0.8;" x="70.834375" xlink:href="#m03bffa0b54" y="235.435256"/>
      </g>
     </g>
     <g id="text_10">
      <!-- 1.5 -->
      <g transform="translate(47.93125 239.234475)scale(0.1 -0.1)">
       <use xlink:href="#DejaVuSans-49"/>
       <use x="63.623047" xlink:href="#DejaVuSans-46"/>
       <use x="95.410156" xlink:href="#DejaVuSans-53"/>
      </g>
     </g>
    </g>
    <g id="ytick_5">
     <g id="line2d_11">
      <g>
       <use style="stroke:#000000;stroke-width:0.8;" x="70.834375" xlink:href="#m03bffa0b54" y="196.522286"/>
      </g>
     </g>
     <g id="text_11">
      <!-- 2.0 -->
      <g transform="translate(47.93125 200.321505)scale(0.1 -0.1)">
       <use xlink:href="#DejaVuSans-50"/>
       <use x="63.623047" xlink:href="#DejaVuSans-46"/>
       <use x="95.410156" xlink:href="#DejaVuSans-48"/>
      </g>
     </g>
    </g>
    <g id="ytick_6">
     <g id="line2d_12">
      <g>
       <use style="stroke:#000000;stroke-width:0.8;" x="70.834375" xlink:href="#m03bffa0b54" y="157.609316"/>
      </g>
     </g>
     <g id="text_12">
      <!-- 2.5 -->
      <g transform="translate(47.93125 161.408535)scale(0.1 -0.1)">
       <use xlink:href="#DejaVuSans-50"/>
       <use x="63.623047" xlink:href="#DejaVuSans-46"/>
       <use x="95.410156" xlink:href="#DejaVuSans-53"/>
      </g>
     </g>
    </g>
    <g id="ytick_7">
     <g id="line2d_13">
      <g>
       <use style="stroke:#000000;stroke-width:0.8;" x="70.834375" xlink:href="#m03bffa0b54" y="118.696346"/>
      </g>
     </g>
     <g id="text_13">
      <!-- 3.0 -->
      <defs>
       <path d="M 40.578125 39.3125 
Q 47.65625 37.796875 51.625 33 
Q 55.609375 28.21875 55.609375 21.1875 
Q 55.609375 10.40625 48.1875 4.484375 
Q 40.765625 -1.421875 27.09375 -1.421875 
Q 22.515625 -1.421875 17.65625 -0.515625 
Q 12.796875 0.390625 7.625 2.203125 
L 7.625 11.71875 
Q 11.71875 9.328125 16.59375 8.109375 
Q 21.484375 6.890625 26.8125 6.890625 
Q 36.078125 6.890625 40.9375 10.546875 
Q 45.796875 14.203125 45.796875 21.1875 
Q 45.796875 27.640625 41.28125 31.265625 
Q 36.765625 34.90625 28.71875 34.90625 
L 20.21875 34.90625 
L 20.21875 43.015625 
L 29.109375 43.015625 
Q 36.375 43.015625 40.234375 45.921875 
Q 44.09375 48.828125 44.09375 54.296875 
Q 44.09375 59.90625 40.109375 62.90625 
Q 36.140625 65.921875 28.71875 65.921875 
Q 24.65625 65.921875 20.015625 65.03125 
Q 15.375 64.15625 9.8125 62.3125 
L 9.8125 71.09375 
Q 15.4375 72.65625 20.34375 73.4375 
Q 25.25 74.21875 29.59375 74.21875 
Q 40.828125 74.21875 47.359375 69.109375 
Q 53.90625 64.015625 53.90625 55.328125 
Q 53.90625 49.265625 50.4375 45.09375 
Q 46.96875 40.921875 40.578125 39.3125 
z
" id="DejaVuSans-51"/>
      </defs>
      <g transform="translate(47.93125 122.495565)scale(0.1 -0.1)">
       <use xlink:href="#DejaVuSans-51"/>
       <use x="63.623047" xlink:href="#DejaVuSans-46"/>
       <use x="95.410156" xlink:href="#DejaVuSans-48"/>
      </g>
     </g>
    </g>
    <g id="ytick_8">
     <g id="line2d_14">
      <g>
       <use style="stroke:#000000;stroke-width:0.8;" x="70.834375" xlink:href="#m03bffa0b54" y="79.783376"/>
      </g>
     </g>
     <g id="text_14">
      <!-- 3.5 -->
      <g transform="translate(47.93125 83.582595)scale(0.1 -0.1)">
       <use xlink:href="#DejaVuSans-51"/>
       <use x="63.623047" xlink:href="#DejaVuSans-46"/>
       <use x="95.410156" xlink:href="#DejaVuSans-53"/>
      </g>
     </g>
    </g>
    <g id="ytick_9">
     <g id="line2d_15">
      <g>
       <use style="stroke:#000000;stroke-width:0.8;" x="70.834375" xlink:href="#m03bffa0b54" y="40.870406"/>
      </g>
     </g>
     <g id="text_15">
      <!-- 4.0 -->
      <defs>
       <path d="M 37.796875 64.3125 
L 12.890625 25.390625 
L 37.796875 25.390625 
z
M 35.203125 72.90625 
L 47.609375 72.90625 
L 47.609375 25.390625 
L 58.015625 25.390625 
L 58.015625 17.1875 
L 47.609375 17.1875 
L 47.609375 0 
L 37.796875 0 
L 37.796875 17.1875 
L 4.890625 17.1875 
L 4.890625 26.703125 
z
" id="DejaVuSans-52"/>
      </defs>
      <g transform="translate(47.93125 44.669625)scale(0.1 -0.1)">
       <use xlink:href="#DejaVuSans-52"/>
       <use x="63.623047" xlink:href="#DejaVuSans-46"/>
       <use x="95.410156" xlink:href="#DejaVuSans-48"/>
      </g>
     </g>
    </g>
    <g id="text_16">
     <!-- droprate -->
     <defs>
      <path d="M 45.40625 46.390625 
L 45.40625 75.984375 
L 54.390625 75.984375 
L 54.390625 0 
L 45.40625 0 
L 45.40625 8.203125 
Q 42.578125 3.328125 38.25 0.953125 
Q 33.9375 -1.421875 27.875 -1.421875 
Q 17.96875 -1.421875 11.734375 6.484375 
Q 5.515625 14.40625 5.515625 27.296875 
Q 5.515625 40.1875 11.734375 48.09375 
Q 17.96875 56 27.875 56 
Q 33.9375 56 38.25 53.625 
Q 42.578125 51.265625 45.40625 46.390625 
z
M 14.796875 27.296875 
Q 14.796875 17.390625 18.875 11.75 
Q 22.953125 6.109375 30.078125 6.109375 
Q 37.203125 6.109375 41.296875 11.75 
Q 45.40625 17.390625 45.40625 27.296875 
Q 45.40625 37.203125 41.296875 42.84375 
Q 37.203125 48.484375 30.078125 48.484375 
Q 22.953125 48.484375 18.875 42.84375 
Q 14.796875 37.203125 14.796875 27.296875 
z
" id="DejaVuSans-100"/>
      <path d="M 41.109375 46.296875 
Q 39.59375 47.171875 37.8125 47.578125 
Q 36.03125 48 33.890625 48 
Q 26.265625 48 22.1875 43.046875 
Q 18.109375 38.09375 18.109375 28.8125 
L 18.109375 0 
L 9.078125 0 
L 9.078125 54.6875 
L 18.109375 54.6875 
L 18.109375 46.1875 
Q 20.953125 51.171875 25.484375 53.578125 
Q 30.03125 56 36.53125 56 
Q 37.453125 56 38.578125 55.875 
Q 39.703125 55.765625 41.0625 55.515625 
z
" id="DejaVuSans-114"/>
      <path d="M 30.609375 48.390625 
Q 23.390625 48.390625 19.1875 42.75 
Q 14.984375 37.109375 14.984375 27.296875 
Q 14.984375 17.484375 19.15625 11.84375 
Q 23.34375 6.203125 30.609375 6.203125 
Q 37.796875 6.203125 41.984375 11.859375 
Q 46.1875 17.53125 46.1875 27.296875 
Q 46.1875 37.015625 41.984375 42.703125 
Q 37.796875 48.390625 30.609375 48.390625 
z
M 30.609375 56 
Q 42.328125 56 49.015625 48.375 
Q 55.71875 40.765625 55.71875 27.296875 
Q 55.71875 13.875 49.015625 6.21875 
Q 42.328125 -1.421875 30.609375 -1.421875 
Q 18.84375 -1.421875 12.171875 6.21875 
Q 5.515625 13.875 5.515625 27.296875 
Q 5.515625 40.765625 12.171875 48.375 
Q 18.84375 56 30.609375 56 
z
" id="DejaVuSans-111"/>
      <path d="M 18.109375 8.203125 
L 18.109375 -20.796875 
L 9.078125 -20.796875 
L 9.078125 54.6875 
L 18.109375 54.6875 
L 18.109375 46.390625 
Q 20.953125 51.265625 25.265625 53.625 
Q 29.59375 56 35.59375 56 
Q 45.5625 56 51.78125 48.09375 
Q 58.015625 40.1875 58.015625 27.296875 
Q 58.015625 14.40625 51.78125 6.484375 
Q 45.5625 -1.421875 35.59375 -1.421875 
Q 29.59375 -1.421875 25.265625 0.953125 
Q 20.953125 3.328125 18.109375 8.203125 
z
M 48.6875 27.296875 
Q 48.6875 37.203125 44.609375 42.84375 
Q 40.53125 48.484375 33.40625 48.484375 
Q 26.265625 48.484375 22.1875 42.84375 
Q 18.109375 37.203125 18.109375 27.296875 
Q 18.109375 17.390625 22.1875 11.75 
Q 26.265625 6.109375 33.40625 6.109375 
Q 40.53125 6.109375 44.609375 11.75 
Q 48.6875 17.390625 48.6875 27.296875 
z
" id="DejaVuSans-112"/>
      <path d="M 34.28125 27.484375 
Q 23.390625 27.484375 19.1875 25 
Q 14.984375 22.515625 14.984375 16.5 
Q 14.984375 11.71875 18.140625 8.90625 
Q 21.296875 6.109375 26.703125 6.109375 
Q 34.1875 6.109375 38.703125 11.40625 
Q 43.21875 16.703125 43.21875 25.484375 
L 43.21875 27.484375 
z
M 52.203125 31.203125 
L 52.203125 0 
L 43.21875 0 
L 43.21875 8.296875 
Q 40.140625 3.328125 35.546875 0.953125 
Q 30.953125 -1.421875 24.3125 -1.421875 
Q 15.921875 -1.421875 10.953125 3.296875 
Q 6 8.015625 6 15.921875 
Q 6 25.140625 12.171875 29.828125 
Q 18.359375 34.515625 30.609375 34.515625 
L 43.21875 34.515625 
L 43.21875 35.40625 
Q 43.21875 41.609375 39.140625 45 
Q 35.0625 48.390625 27.6875 48.390625 
Q 23 48.390625 18.546875 47.265625 
Q 14.109375 46.140625 10.015625 43.890625 
L 10.015625 52.203125 
Q 14.9375 54.109375 19.578125 55.046875 
Q 24.21875 56 28.609375 56 
Q 40.484375 56 46.34375 49.84375 
Q 52.203125 43.703125 52.203125 31.203125 
z
" id="DejaVuSans-97"/>
      <path d="M 18.3125 70.21875 
L 18.3125 54.6875 
L 36.8125 54.6875 
L 36.8125 47.703125 
L 18.3125 47.703125 
L 18.3125 18.015625 
Q 18.3125 11.328125 20.140625 9.421875 
Q 21.96875 7.515625 27.59375 7.515625 
L 36.8125 7.515625 
L 36.8125 0 
L 27.59375 0 
Q 17.1875 0 13.234375 3.875 
Q 9.28125 7.765625 9.28125 18.015625 
L 9.28125 47.703125 
L 2.6875 47.703125 
L 2.6875 54.6875 
L 9.28125 54.6875 
L 9.28125 70.21875 
z
" id="DejaVuSans-116"/>
      <path d="M 56.203125 29.59375 
L 56.203125 25.203125 
L 14.890625 25.203125 
Q 15.484375 15.921875 20.484375 11.0625 
Q 25.484375 6.203125 34.421875 6.203125 
Q 39.59375 6.203125 44.453125 7.46875 
Q 49.3125 8.734375 54.109375 11.28125 
L 54.109375 2.78125 
Q 49.265625 0.734375 44.1875 -0.34375 
Q 39.109375 -1.421875 33.890625 -1.421875 
Q 20.796875 -1.421875 13.15625 6.1875 
Q 5.515625 13.8125 5.515625 26.8125 
Q 5.515625 40.234375 12.765625 48.109375 
Q 20.015625 56 32.328125 56 
Q 43.359375 56 49.78125 48.890625 
Q 56.203125 41.796875 56.203125 29.59375 
z
M 47.21875 32.234375 
Q 47.125 39.59375 43.09375 43.984375 
Q 39.0625 48.390625 32.421875 48.390625 
Q 24.90625 48.390625 20.390625 44.140625 
Q 15.875 39.890625 15.1875 32.171875 
z
" id="DejaVuSans-101"/>
     </defs>
     <g transform="translate(41.851562 215.236302)rotate(-90)scale(0.1 -0.1)">
      <use xlink:href="#DejaVuSans-100"/>
      <use x="63.476562" xlink:href="#DejaVuSans-114"/>
      <use x="104.558594" xlink:href="#DejaVuSans-111"/>
      <use x="165.740234" xlink:href="#DejaVuSans-112"/>
      <use x="229.216797" xlink:href="#DejaVuSans-114"/>
      <use x="270.330078" xlink:href="#DejaVuSans-97"/>
      <use x="331.609375" xlink:href="#DejaVuSans-116"/>
      <use x="370.818359" xlink:href="#DejaVuSans-101"/>
     </g>
    </g>
   </g>
   <g id="line2d_16">
    <path clip-path="url(#pa59af01c55)" d="M 91.07005 352.174167 
L 96.023366 352.174167 
L 96.176736 178.261451 
L 96.328109 352.174167 
L 97.672201 352.174167 
L 97.822738 241.625956 
L 97.979455 341.542208 
L 98.127401 352.174167 
L 100.518828 352.174167 
L 100.667991 129.814338 
L 100.816818 352.174167 
L 103.23913 352.174167 
L 103.394785 224.065623 
L 103.546925 352.174167 
L 105.213138 352.174167 
L 105.363879 330.220446 
L 105.519076 352.174167 
L 106.881983 352.174167 
L 107.036325 330.645553 
L 107.185332 352.174167 
L 107.482392 352.174167 
L 107.633394 341.166254 
L 107.783961 319.15043 
L 107.938921 352.174167 
L 109.620039 352.174167 
L 109.774004 308.937533 
L 109.922922 352.174167 
L 112.037659 352.174167 
L 112.189289 319.289967 
L 112.33923 352.174167 
L 114.141613 352.174167 
L 114.292786 319.243585 
L 114.446619 352.174167 
L 116.426295 352.174167 
L 116.578075 308.451728 
L 116.7301 352.174167 
L 117.795455 352.174167 
L 117.950554 341.439554 
L 118.099994 352.174167 
L 119.01563 352.174167 
L 119.1723 330.968188 
L 119.326449 352.174167 
L 120.686815 352.174167 
L 120.843174 330.910249 
L 120.991824 352.174167 
L 122.042034 352.174167 
L 122.194825 330.404673 
L 122.346731 352.174167 
L 123.406992 352.174167 
L 123.555795 318.820192 
L 123.856901 352.174167 
L 125.352639 352.174167 
L 125.502382 318.867773 
L 125.651122 352.174167 
L 126.85275 352.174167 
L 127.151191 329.906373 
L 127.306892 352.174167 
L 129.291728 352.174167 
L 129.441151 329.906373 
L 129.743287 352.174167 
L 130.809836 352.174167 
L 130.965127 330.764004 
L 131.114488 330.064525 
L 131.266029 352.174167 
L 132.325066 352.174167 
L 132.47412 318.915218 
L 132.62389 352.174167 
L 133.680358 352.174167 
L 133.829395 329.87447 
L 133.978188 329.87447 
L 134.12698 352.174167 
L 134.87341 352.174167 
L 135.022166 318.772476 
L 135.17211 352.174167 
L 136.522736 352.174167 
L 136.670857 329.778213 
L 136.819856 352.174167 
L 138.179037 352.174167 
L 138.328079 341.056175 
L 138.477003 352.174167 
L 138.773558 352.174167 
L 138.92256 329.87447 
L 139.221996 352.174167 
L 139.669338 352.174167 
L 139.817377 340.960054 
L 139.96646 341.024319 
L 140.115663 352.174167 
L 141.164118 352.174167 
L 141.312082 307.382259 
L 141.460033 352.174167 
L 143.252077 352.174167 
L 143.400651 341.008322 
L 143.5489 340.97619 
L 143.698008 352.174167 
L 144.739637 352.174167 
L 144.893229 341.334899 
L 145.041635 352.174167 
L 145.643489 352.174167 
L 145.794453 341.212767 
L 145.94367 341.056175 
L 146.095446 352.174167 
L 147.462161 352.174167 
L 147.610946 318.580236 
L 147.759677 352.174167 
L 148.800786 352.174167 
L 148.951969 319.15043 
L 149.100211 352.174167 
L 150.294458 352.174167 
L 150.44708 341.304622 
L 150.59797 341.166254 
L 150.747515 352.174167 
L 151.353772 352.174167 
L 151.502262 307.638579 
L 151.651011 352.174167 
L 153.60284 352.174167 
L 153.752478 318.820192 
L 153.910023 352.174167 
L 155.254771 352.174167 
L 155.405988 308.204709 
L 155.556909 352.174167 
L 157.062086 352.174167 
L 157.213977 308.266725 
L 157.363641 352.174167 
L 159.903208 352.174167 
L 160.051072 329.842477 
L 160.35215 352.174167 
L 161.240698 352.174167 
L 161.393574 341.28942 
L 161.542556 352.174167 
L 162.151706 352.174167 
L 162.301898 330.095886 
L 162.452351 352.174167 
L 163.0525 352.174167 
L 163.200526 318.628503 
L 163.348224 329.713578 
L 163.49722 352.174167 
L 165.281261 352.174167 
L 165.430486 329.938184 
L 165.579951 352.174167 
L 166.027973 352.174167 
L 166.175916 329.713578 
L 166.323979 329.745942 
L 166.471998 352.174167 
L 167.510922 352.174167 
L 167.659864 329.87447 
L 167.809934 352.174167 
L 167.959854 352.174167 
L 168.112224 330.374183 
L 168.261714 329.938184 
L 168.411571 352.174167 
L 169.751852 352.174167 
L 169.901107 329.938184 
L 170.050808 352.174167 
L 170.942912 352.174167 
L 171.09218 329.938184 
L 171.393593 352.174167 
L 173.037731 352.174167 
L 173.186905 341.024319 
L 173.337732 352.174167 
L 174.080691 352.174167 
L 174.229122 329.745942 
L 174.378808 352.174167 
L 175.571563 352.174167 
L 175.720558 307.702201 
L 176.018507 352.174167 
L 177.360136 352.174167 
L 177.50794 318.483283 
L 177.656899 352.174167 
L 178.559193 352.174167 
L 178.708246 307.638579 
L 178.857773 352.174167 
L 180.817149 352.174167 
L 180.966071 341.04027 
L 181.11516 352.174167 
L 181.716523 352.174167 
L 182.015175 329.969904 
L 182.164334 352.174167 
L 183.221548 352.174167 
L 183.371191 307.891982 
L 183.520671 352.174167 
L 184.715569 352.174167 
L 184.865855 341.08785 
L 185.01486 341.056175 
L 185.164665 352.174167 
L 185.76082 352.174167 
L 185.90953 307.574774 
L 186.057765 352.174167 
L 187.891459 352.174167 
L 188.188862 329.87447 
L 188.337714 352.174167 
L 190.29598 352.174167 
L 190.445027 329.938184 
L 190.741962 352.174167 
L 191.638637 352.174167 
L 191.787612 318.772476 
L 191.93652 352.174167 
L 193.284047 352.174167 
L 193.434203 318.962528 
L 193.584533 352.174167 
L 194.933898 352.174167 
L 195.084526 330.158342 
L 195.232733 329.842477 
L 195.380792 352.174167 
L 196.725201 352.174167 
L 196.876592 330.220446 
L 197.02571 352.174167 
L 198.220148 352.174167 
L 198.369426 318.772476 
L 198.519406 352.174167 
L 199.560613 352.174167 
L 199.709695 318.772476 
L 199.85846 352.174167 
L 201.04558 352.174167 
L 201.194579 329.938184 
L 201.34338 352.174167 
L 202.235535 352.174167 
L 202.383521 318.531829 
L 202.532268 352.174167 
L 203.72935 352.174167 
L 203.880002 319.056745 
L 204.028826 352.174167 
L 205.972197 352.174167 
L 206.120205 307.317717 
L 206.268075 352.174167 
L 208.228123 352.174167 
L 208.380204 341.243557 
L 208.530676 352.174167 
L 209.126894 352.174167 
L 209.278376 319.289967 
L 209.427456 352.174167 
L 210.174692 352.174167 
L 210.33107 341.48379 
L 210.488153 320.537606 
L 210.637056 352.174167 
L 212.274499 352.174167 
L 212.428735 298.128375 
L 212.581137 352.174167 
L 214.233471 352.174167 
L 214.387412 319.836518 
L 214.535543 352.174167 
L 215.883962 352.174167 
L 216.033139 329.906373 
L 216.182784 330.001534 
L 216.334663 352.174167 
L 217.233028 352.174167 
L 217.381777 341.008322 
L 217.532043 352.174167 
L 217.978937 352.174167 
L 218.134667 320.147031 
L 218.283011 352.174167 
L 220.229459 352.174167 
L 220.380103 341.181802 
L 220.529489 352.174167 
L 221.277813 352.174167 
L 221.427283 318.867773 
L 221.575985 352.174167 
L 223.537577 352.174167 
L 223.68785 318.962528 
L 223.840108 352.174167 
L 225.049899 352.174167 
L 225.198095 318.580236 
L 225.3461 352.174167 
L 226.997989 352.174167 
L 227.294001 329.713578 
L 227.447108 352.174167 
L 227.895563 352.174167 
L 228.043706 340.97619 
L 228.192614 341.008322 
L 228.343786 352.174167 
L 229.239754 352.174167 
L 229.389076 318.867773 
L 229.686309 352.174167 
L 231.187622 352.174167 
L 231.336457 318.724622 
L 231.485198 352.174167 
L 233.441781 352.174167 
L 233.590557 329.87447 
L 233.738793 352.174167 
L 234.938251 352.174167 
L 235.090322 330.312948 
L 235.241535 352.174167 
L 235.698126 352.174167 
L 235.847452 318.962528 
L 236.000498 352.174167 
L 237.209733 352.174167 
L 237.358304 341.024319 
L 237.508174 352.174167 
L 238.104995 352.174167 
L 238.253961 318.772476 
L 238.403246 352.174167 
L 239.300156 352.174167 
L 239.449226 318.820192 
L 239.600756 352.174167 
L 240.653055 352.174167 
L 240.804887 308.5742 
L 240.954681 352.174167 
L 242.767094 352.174167 
L 242.915834 318.724622 
L 243.065694 352.174167 
L 244.114815 352.174167 
L 244.268379 319.791667 
L 244.41939 352.174167 
L 245.917312 352.174167 
L 246.065342 296.184282 
L 246.218053 352.174167 
L 247.716339 352.174167 
L 247.869182 50.163056 
L 248.017464 352.174167 
L 250.871746 352.174167 
L 251.02364 308.451728 
L 251.174708 352.174167 
L 252.235544 352.174167 
L 252.387138 308.328567 
L 252.537856 352.174167 
L 253.890139 352.174167 
L 254.039611 318.820192 
L 254.189068 352.174167 
L 256.138531 352.174167 
L 256.287734 329.906373 
L 256.436686 352.174167 
L 257.640138 352.174167 
L 257.79338 341.349975 
L 257.943593 352.174167 
L 258.543373 352.174167 
L 258.691829 340.97619 
L 258.843298 352.174167 
L 259.44528 352.174167 
L 259.595538 330.095886 
L 259.744591 352.174167 
L 260.652306 352.174167 
L 260.807555 319.970329 
L 260.956276 352.174167 
L 262.448935 352.174167 
L 262.597616 341.008322 
L 262.746095 341.008322 
L 262.894958 352.174167 
L 264.236114 352.174167 
L 264.384858 329.842477 
L 264.534347 352.174167 
L 264.981099 352.174167 
L 265.129483 340.97619 
L 265.277687 340.992279 
L 265.425779 352.174167 
L 266.464236 352.174167 
L 266.61531 341.150662 
L 266.763241 352.174167 
L 267.060105 352.174167 
L 267.208512 329.713578 
L 267.357041 352.174167 
L 268.864295 352.174167 
L 269.162382 329.87447 
L 269.3115 352.174167 
L 271.399109 352.174167 
L 271.54805 318.676631 
L 271.696323 352.174167 
L 273.480339 352.174167 
L 273.629297 329.87447 
L 273.778027 352.174167 
L 274.981205 352.174167 
L 275.131779 318.962528 
L 275.432744 352.174167 
L 276.630364 352.174167 
L 276.778808 341.056175 
L 276.928558 352.174167 
L 277.530646 352.174167 
L 277.681594 308.08015 
L 277.830944 352.174167 
L 279.038725 352.174167 
L 279.190049 319.197073 
L 279.340836 352.174167 
L 280.700001 352.174167 
L 280.849508 330.064525 
L 280.998777 352.174167 
L 282.201288 352.174167 
L 282.349652 318.628503 
L 282.503496 352.174167 
L 282.803323 352.174167 
L 282.953688 307.891982 
L 283.254611 352.174167 
L 285.663619 352.174167 
L 285.81452 319.103654 
L 285.965322 352.174167 
L 286.564722 352.174167 
L 286.714632 318.820192 
L 286.864842 352.174167 
L 288.670257 352.174167 
L 288.81918 341.056175 
L 288.968684 352.174167 
L 289.574616 352.174167 
L 289.878248 330.404673 
L 290.026417 352.174167 
L 291.686819 352.174167 
L 291.838748 330.2822 
L 291.986668 352.174167 
L 293.178085 352.174167 
L 293.331541 341.319782 
L 293.479504 352.174167 
L 293.926567 352.174167 
L 294.075074 318.628503 
L 294.22302 352.174167 
L 295.873248 352.174167 
L 296.02214 329.87447 
L 296.171159 352.174167 
L 297.061238 352.174167 
L 297.213011 308.328567 
L 297.362969 352.174167 
L 299.021351 352.174167 
L 299.17167 341.10362 
L 299.321006 352.174167 
L 299.916786 352.174167 
L 300.065904 318.772476 
L 300.214842 352.174167 
L 302.158407 352.174167 
L 302.306838 284.986305 
L 302.456531 352.174167 
L 304.397704 352.174167 
L 304.695073 329.810391 
L 304.843532 352.174167 
L 306.032798 352.174167 
L 306.180711 329.713578 
L 306.328658 352.174167 
L 307.369206 352.174167 
L 307.518046 340.992279 
L 307.666322 352.174167 
L 308.265821 352.174167 
L 308.414765 318.915218 
L 308.562812 352.174167 
L 310.509124 352.174167 
L 310.660144 330.158342 
L 310.808759 352.174167 
L 312.013743 352.174167 
L 312.162707 318.724622 
L 312.470585 352.174167 
L 314.130762 352.174167 
L 314.280879 341.150662 
L 314.431015 341.10362 
L 314.582476 352.174167 
L 315.78959 352.174167 
L 315.939008 296.584209 
L 316.090104 352.174167 
L 317.279498 352.174167 
L 317.428784 318.820192 
L 317.578479 352.174167 
L 317.876504 352.174167 
L 318.026807 341.135026 
L 318.182886 341.469085 
L 318.332373 352.174167 
L 319.228239 352.174167 
L 319.38143 330.435077 
L 319.529902 352.174167 
L 320.715631 352.174167 
L 320.864927 318.772476 
L 321.0141 352.174167 
L 322.645761 352.174167 
L 322.943352 329.842477 
L 323.096992 352.174167 
L 323.857783 352.174167 
L 324.008017 341.166254 
L 324.159083 352.174167 
L 324.604353 352.174167 
L 324.755294 330.127158 
L 324.90455 352.174167 
L 326.099334 352.174167 
L 326.395941 329.810391 
L 326.544987 352.174167 
L 327.290323 352.174167 
L 327.444333 341.365008 
L 327.599166 341.439554 
L 327.75297 352.174167 
L 328.945704 352.174167 
L 329.094277 318.676631 
L 329.243763 352.174167 
L 330.445325 352.174167 
L 330.746598 330.033074 
L 330.899206 352.174167 
L 332.109943 352.174167 
L 332.263256 319.611012 
L 332.415021 352.174167 
L 333.773844 352.174167 
L 333.923499 341.072035 
L 334.072189 318.772476 
L 334.22308 352.174167 
L 336.793871 352.174167 
L 336.94191 318.628503 
L 337.089807 352.174167 
L 338.128187 352.174167 
L 338.275886 340.927644 
L 338.423745 352.174167 
L 339.014935 352.174167 
L 339.16741 341.28942 
L 339.315287 352.174167 
L 339.75955 352.174167 
L 339.908151 318.676631 
L 340.055861 352.174167 
L 341.68799 352.174167 
L 341.835661 340.943872 
L 341.984345 340.97619 
L 342.132227 352.174167 
L 343.169595 352.174167 
L 343.317583 318.483283 
L 343.466062 329.810391 
L 343.614608 352.174167 
L 345.404941 352.174167 
L 345.553112 340.992279 
L 345.702642 318.820192 
L 345.854568 352.174167 
L 347.647031 352.174167 
L 347.795566 329.842477 
L 347.946029 352.174167 
L 349.438937 352.174167 
L 349.590454 319.519926 
L 349.738346 352.174167 
L 351.521026 352.174167 
L 351.669053 318.531829 
L 351.817328 352.174167 
L 353.003497 352.174167 
L 353.151775 329.778213 
L 353.300232 352.174167 
L 353.892432 352.174167 
L 354.040285 329.713578 
L 354.188201 352.174167 
L 354.632661 352.174167 
L 354.781002 340.992279 
L 354.929045 340.960054 
L 355.076937 352.174167 
L 355.668621 352.174167 
L 355.816465 318.483283 
L 355.964221 352.174167 
L 358.040768 352.174167 
L 358.195415 319.925849 
L 358.350169 352.174167 
L 360.15444 352.174167 
L 360.303085 329.810391 
L 360.451622 352.174167 
L 361.657289 352.174167 
L 361.955861 329.906373 
L 362.105078 352.174167 
L 362.999999 352.174167 
L 363.148799 329.87447 
L 363.297845 352.174167 
L 364.63227 352.174167 
L 364.784745 341.274175 
L 364.934557 341.08785 
L 365.083516 352.174167 
L 365.385296 352.174167 
L 365.534499 318.962528 
L 365.683467 352.174167 
L 367.028425 352.174167 
L 367.178251 319.009704 
L 367.326444 352.174167 
L 368.07044 352.174167 
L 368.218369 296.103605 
L 368.36707 352.174167 
L 370.007293 352.174167 
L 370.158195 341.166254 
L 370.306317 340.97619 
L 370.455713 352.174167 
L 370.752385 352.174167 
L 371.049396 329.842477 
L 371.197846 352.174167 
L 372.25086 352.174167 
L 372.399785 329.810391 
L 372.548345 329.842477 
L 372.696867 352.174167 
L 375.089204 352.174167 
L 375.237666 340.97619 
L 375.385763 340.97619 
L 375.534324 352.174167 
L 376.433548 352.174167 
L 376.58365 330.064525 
L 376.733793 352.174167 
L 378.074337 352.174167 
L 378.222847 318.531829 
L 378.371096 352.174167 
L 380.161893 352.174167 
L 380.310167 318.676631 
L 380.458294 352.174167 
L 382.097149 352.174167 
L 382.244963 340.960054 
L 382.392691 352.174167 
L 383.301359 352.174167 
L 383.450083 296.344941 
L 383.599428 352.174167 
L 385.388585 352.174167 
L 385.537406 329.87447 
L 385.835553 352.174167 
L 387.623855 352.174167 
L 387.77269 329.87447 
L 387.9212 352.174167 
L 388.971502 352.174167 
L 389.121578 330.033074 
L 389.418547 352.174167 
L 390.460733 352.174167 
L 390.610159 329.938184 
L 390.758802 352.174167 
L 391.814601 352.174167 
L 392.117036 329.906373 
L 392.266111 352.174167 
L 394.205864 352.174167 
L 394.355644 330.033074 
L 394.653079 352.174167 
L 396.142594 352.174167 
L 396.295881 319.565533 
L 396.445274 352.174167 
L 398.249778 352.174167 
L 398.40188 330.343608 
L 398.553529 352.174167 
L 399.459913 352.174167 
L 399.609734 319.056745 
L 399.76021 352.174167 
L 401.417449 352.174167 
L 401.568732 330.251367 
L 401.717131 352.174167 
L 402.911021 352.174167 
L 403.062999 341.197306 
L 403.211635 318.867773 
L 403.360543 352.174167 
L 405.008104 352.174167 
L 405.15646 307.317717 
L 405.310253 352.174167 
L 407.421999 352.174167 
L 407.574723 330.343608 
L 407.723564 352.174167 
L 408.320609 352.174167 
L 408.469371 329.87447 
L 408.617451 352.174167 
L 409.518035 352.174167 
L 409.669738 341.228184 
L 409.819242 319.009704 
L 409.967777 352.174167 
L 410.719809 352.174167 
L 411.020055 330.033074 
L 411.168916 352.174167 
L 411.772543 352.174167 
L 411.921199 329.842477 
L 412.069998 352.174167 
L 412.829732 352.174167 
L 412.983058 319.701591 
L 413.135008 352.174167 
L 414.631599 352.174167 
L 414.779539 329.745942 
L 414.928267 352.174167 
L 416.415512 352.174167 
L 416.563325 329.745942 
L 416.712125 352.174167 
L 417.762462 352.174167 
L 418.062952 329.938184 
L 418.211386 352.174167 
L 419.702509 352.174167 
L 419.850725 329.842477 
L 419.999355 352.174167 
L 420.446382 352.174167 
L 420.59498 318.676631 
L 420.743982 352.174167 
L 422.539781 352.174167 
L 422.688142 318.724622 
L 422.840778 352.174167 
L 423.589415 352.174167 
L 423.7386 329.938184 
L 423.887407 352.174167 
L 424.631503 352.174167 
L 424.780288 318.724622 
L 424.929401 352.174167 
L 427.020742 352.174167 
L 427.169056 329.778213 
L 427.317062 352.174167 
L 427.922082 352.174167 
L 428.070757 318.915218 
L 428.218904 352.174167 
L 429.572208 352.174167 
L 429.721055 318.676631 
L 429.86983 352.174167 
L 431.366549 352.174167 
L 431.515714 318.867773 
L 431.664699 352.174167 
L 433.466868 352.174167 
L 433.765131 318.915218 
L 433.91396 352.174167 
L 436.300497 352.174167 
L 436.449106 329.810391 
L 436.749512 352.174167 
L 437.19612 352.174167 
L 437.345457 329.969904 
L 437.494848 352.174167 
L 437.794178 352.174167 
L 437.944237 341.119346 
L 438.094151 352.174167 
L 438.540748 352.174167 
L 438.690583 307.891982 
L 438.839225 352.174167 
L 440.775301 352.174167 
L 440.923647 318.628503 
L 441.071608 352.174167 
L 442.562461 352.174167 
L 442.71206 329.969904 
L 442.861115 352.174167 
L 443.15957 352.174167 
L 443.308395 329.842477 
L 443.457521 329.969904 
L 443.606379 352.174167 
L 444.648941 352.174167 
L 444.797297 318.628503 
L 444.94624 352.174167 
L 446.881806 352.174167 
L 447.031838 329.969904 
L 447.331318 352.174167 
L 449.122365 352.174167 
L 449.27296 330.158342 
L 449.422264 352.174167 
L 450.612955 352.174167 
L 450.771884 331.140129 
L 450.92804 352.174167 
L 452.119521 352.174167 
L 452.267698 318.580236 
L 452.563841 352.174167 
L 454.197011 352.174167 
L 454.344965 318.483283 
L 454.493898 352.174167 
L 455.982105 352.174167 
L 456.134904 341.28942 
L 456.283354 318.676631 
L 456.431483 352.174167 
L 458.067996 352.174167 
L 458.215993 329.745942 
L 458.513169 352.174167 
L 459.261069 352.174167 
L 459.410484 341.04027 
L 459.558909 352.174167 
L 460.304089 352.174167 
L 460.452791 329.906373 
L 460.606176 330.465397 
L 460.759046 352.174167 
L 462.106041 352.174167 
L 462.254058 318.531829 
L 462.40283 352.174167 
L 463.599431 352.174167 
L 463.747774 329.810391 
L 463.896321 352.174167 
L 465.101944 352.174167 
L 465.252674 319.15043 
L 465.40227 352.174167 
L 466.600228 352.174167 
L 466.749213 341.024319 
L 466.897283 352.174167 
L 467.341257 352.174167 
L 467.495198 319.701591 
L 467.802871 352.174167 
L 470.209509 352.174167 
L 470.364233 341.424727 
L 470.51225 352.174167 
L 471.109278 352.174167 
L 471.257527 307.510786 
L 471.406308 352.174167 
L 472.450022 352.174167 
L 472.601457 330.220446 
L 472.902717 352.174167 
L 473.98907 352.174167 
L 474.14587 341.628646 
L 474.294597 352.174167 
L 474.753399 352.174167 
L 474.902242 318.724622 
L 475.052369 352.174167 
L 476.55812 352.174167 
L 476.707887 330.033074 
L 476.857607 352.174167 
L 477.907882 352.174167 
L 478.206591 330.001534 
L 478.355054 352.174167 
L 479.556477 352.174167 
L 479.708619 319.428329 
L 479.860755 352.174167 
L 481.053712 352.174167 
L 481.202293 318.628503 
L 481.351738 352.174167 
L 482.427675 352.174167 
L 482.576711 307.638579 
L 482.727862 352.174167 
L 483.925527 352.174167 
L 484.074507 341.04027 
L 484.224017 318.867773 
L 484.376249 352.174167 
L 486.326631 352.174167 
L 486.475304 318.531829 
L 486.623622 352.174167 
L 487.674959 352.174167 
L 487.823043 318.531829 
L 487.973676 352.174167 
L 489.620792 352.174167 
L 489.771649 341.166254 
L 489.919772 340.97619 
L 490.069173 352.174167 
L 491.118042 352.174167 
L 491.267363 329.938184 
L 491.419774 352.174167 
L 492.166954 352.174167 
L 492.315798 318.724622 
L 492.464331 329.842477 
L 492.613121 352.174167 
L 494.574107 352.174167 
L 494.72752 330.55585 
L 494.877856 352.174167 
L 495.783544 352.174167 
L 495.783544 352.174167 
" style="fill:none;stroke:#1f77b4;stroke-linecap:square;stroke-width:1.5;"/>
   </g>
   <g id="patch_3">
    <path d="M 70.834375 352.174167 
L 70.834375 35.0625 
" style="fill:none;stroke:#000000;stroke-linecap:square;stroke-linejoin:miter;stroke-width:0.8;"/>
   </g>
   <g id="patch_4">
    <path d="M 516.019219 352.174167 
L 516.019219 35.0625 
" style="fill:none;stroke:#000000;stroke-linecap:square;stroke-linejoin:miter;stroke-width:0.8;"/>
   </g>
   <g id="patch_5">
    <path d="M 70.834375 352.174167 
L 516.019219 352.174167 
" style="fill:none;stroke:#000000;stroke-linecap:square;stroke-linejoin:miter;stroke-width:0.8;"/>
   </g>
   <g id="patch_6">
    <path d="M 70.834375 35.0625 
L 516.019219 35.0625 
" style="fill:none;stroke:#000000;stroke-linecap:square;stroke-linejoin:miter;stroke-width:0.8;"/>
   </g>
   <g id="legend_1">
    <g id="patch_7">
     <path d="M 540.278461 53.01875 
L 620.514398 53.01875 
Q 622.514398 53.01875 622.514398 51.01875 
L 622.514398 37.0625 
Q 622.514398 35.0625 620.514398 35.0625 
L 540.278461 35.0625 
Q 538.278461 35.0625 538.278461 37.0625 
L 538.278461 51.01875 
Q 538.278461 53.01875 540.278461 53.01875 
z
" style="fill:#ffffff;opacity:0.8;stroke:#cccccc;stroke-linejoin:miter;"/>
    </g>
    <g id="line2d_17">
     <path d="M 542.278461 43.160937 
L 562.278461 43.160937 
" style="fill:none;stroke:#1f77b4;stroke-linecap:square;stroke-width:1.5;"/>
    </g>
    <g id="line2d_18"/>
    <g id="text_17">
     <!-- drop_rate -->
     <defs>
      <path d="M 50.984375 -16.609375 
L 50.984375 -23.578125 
L -0.984375 -23.578125 
L -0.984375 -16.609375 
z
" id="DejaVuSans-95"/>
     </defs>
     <g transform="translate(570.278461 46.660937)scale(0.1 -0.1)">
      <use xlink:href="#DejaVuSans-100"/>
      <use x="63.476562" xlink:href="#DejaVuSans-114"/>
      <use x="104.558594" xlink:href="#DejaVuSans-111"/>
      <use x="165.740234" xlink:href="#DejaVuSans-112"/>
      <use x="229.216797" xlink:href="#DejaVuSans-95"/>
      <use x="279.216797" xlink:href="#DejaVuSans-114"/>
      <use x="320.330078" xlink:href="#DejaVuSans-97"/>
      <use x="381.609375" xlink:href="#DejaVuSans-116"/>
      <use x="420.818359" xlink:href="#DejaVuSans-101"/>
     </g>
    </g>
   </g>
  </g>
  <g id="text_18">
   <!-- result droprate -->
   <defs>
    <path d="M 44.28125 53.078125 
L 44.28125 44.578125 
Q 40.484375 46.53125 36.375 47.5 
Q 32.28125 48.484375 27.875 48.484375 
Q 21.1875 48.484375 17.84375 46.4375 
Q 14.5 44.390625 14.5 40.28125 
Q 14.5 37.15625 16.890625 35.375 
Q 19.28125 33.59375 26.515625 31.984375 
L 29.59375 31.296875 
Q 39.15625 29.25 43.1875 25.515625 
Q 47.21875 21.78125 47.21875 15.09375 
Q 47.21875 7.46875 41.1875 3.015625 
Q 35.15625 -1.421875 24.609375 -1.421875 
Q 20.21875 -1.421875 15.453125 -0.5625 
Q 10.6875 0.296875 5.421875 2 
L 5.421875 11.28125 
Q 10.40625 8.6875 15.234375 7.390625 
Q 20.0625 6.109375 24.8125 6.109375 
Q 31.15625 6.109375 34.5625 8.28125 
Q 37.984375 10.453125 37.984375 14.40625 
Q 37.984375 18.0625 35.515625 20.015625 
Q 33.0625 21.96875 24.703125 23.78125 
L 21.578125 24.515625 
Q 13.234375 26.265625 9.515625 29.90625 
Q 5.8125 33.546875 5.8125 39.890625 
Q 5.8125 47.609375 11.28125 51.796875 
Q 16.75 56 26.8125 56 
Q 31.78125 56 36.171875 55.265625 
Q 40.578125 54.546875 44.28125 53.078125 
z
" id="DejaVuSans-115"/>
    <path d="M 8.5 21.578125 
L 8.5 54.6875 
L 17.484375 54.6875 
L 17.484375 21.921875 
Q 17.484375 14.15625 20.5 10.265625 
Q 23.53125 6.390625 29.59375 6.390625 
Q 36.859375 6.390625 41.078125 11.03125 
Q 45.3125 15.671875 45.3125 23.6875 
L 45.3125 54.6875 
L 54.296875 54.6875 
L 54.296875 0 
L 45.3125 0 
L 45.3125 8.40625 
Q 42.046875 3.421875 37.71875 1 
Q 33.40625 -1.421875 27.6875 -1.421875 
Q 18.265625 -1.421875 13.375 4.4375 
Q 8.5 10.296875 8.5 21.578125 
z
M 31.109375 56 
z
" id="DejaVuSans-117"/>
    <path d="M 9.421875 75.984375 
L 18.40625 75.984375 
L 18.40625 0 
L 9.421875 0 
z
" id="DejaVuSans-108"/>
    <path id="DejaVuSans-32"/>
   </defs>
   <g transform="translate(297.047813 17.038125)scale(0.12 -0.12)">
    <use xlink:href="#DejaVuSans-114"/>
    <use x="41.082031" xlink:href="#DejaVuSans-101"/>
    <use x="102.605469" xlink:href="#DejaVuSans-115"/>
    <use x="154.705078" xlink:href="#DejaVuSans-117"/>
    <use x="218.083984" xlink:href="#DejaVuSans-108"/>
    <use x="245.867188" xlink:href="#DejaVuSans-116"/>
    <use x="285.076172" xlink:href="#DejaVuSans-32"/>
    <use x="316.863281" xlink:href="#DejaVuSans-100"/>
    <use x="380.339844" xlink:href="#DejaVuSans-114"/>
    <use x="421.421875" xlink:href="#DejaVuSans-111"/>
    <use x="482.603516" xlink:href="#DejaVuSans-112"/>
    <use x="546.080078" xlink:href="#DejaVuSans-114"/>
    <use x="587.193359" xlink:href="#DejaVuSans-97"/>
    <use x="648.472656" xlink:href="#DejaVuSans-116"/>
    <use x="687.681641" xlink:href="#DejaVuSans-101"/>
   </g>
  </g>
 </g>
 <defs>
  <clipPath id="pa59af01c55">
   <rect height="317.111667" width="445.184844" x="70.834375" y="35.0625"/>
  </clipPath>
 </defs>
</svg>
