<?xml version="1.0" encoding="utf-8" standalone="no"?>
<!DOCTYPE svg PUBLIC "-//W3C//DTD SVG 1.1//EN"
  "http://www.w3.org/Graphics/SVG/1.1/DTD/svg11.dtd">
<!-- Created with matplotlib (https://matplotlib.org/) -->
<svg height="396pt" version="1.1" viewBox="0 0 684 396" width="684pt" xmlns="http://www.w3.org/2000/svg" xmlns:xlink="http://www.w3.org/1999/xlink">
 <defs>
  <style type="text/css">
*{stroke-linecap:butt;stroke-linejoin:round;}
  </style>
 </defs>
 <g id="figure_1">
  <g id="patch_1">
   <path d="M 0 396 
L 684 396 
L 684 0 
L 0 0 
z
" style="fill:#ffffff;"/>
  </g>
  <g id="axes_1">
   <g id="patch_2">
    <path d="M 83.472344 352.174167 
L 529.912969 352.174167 
L 529.912969 35.0625 
L 83.472344 35.0625 
z
" style="fill:#ffffff;"/>
   </g>
   <g id="matplotlib.axis_1">
    <g id="xtick_1">
     <g id="line2d_1">
      <defs>
       <path d="M 0 0 
L 0 3.5 
" id="mea7a695b7c" style="stroke:#000000;stroke-width:0.8;"/>
      </defs>
      <g>
       <use style="stroke:#000000;stroke-width:0.8;" x="103.765099" xlink:href="#mea7a695b7c" y="352.174167"/>
      </g>
     </g>
     <g id="text_1">
      <!-- 0 -->
      <defs>
       <path d="M 31.78125 66.40625 
Q 24.171875 66.40625 20.328125 58.90625 
Q 16.5 51.421875 16.5 36.375 
Q 16.5 21.390625 20.328125 13.890625 
Q 24.171875 6.390625 31.78125 6.390625 
Q 39.453125 6.390625 43.28125 13.890625 
Q 47.125 21.390625 47.125 36.375 
Q 47.125 51.421875 43.28125 58.90625 
Q 39.453125 66.40625 31.78125 66.40625 
z
M 31.78125 74.21875 
Q 44.046875 74.21875 50.515625 64.515625 
Q 56.984375 54.828125 56.984375 36.375 
Q 56.984375 17.96875 50.515625 8.265625 
Q 44.046875 -1.421875 31.78125 -1.421875 
Q 19.53125 -1.421875 13.0625 8.265625 
Q 6.59375 17.96875 6.59375 36.375 
Q 6.59375 54.828125 13.0625 64.515625 
Q 19.53125 74.21875 31.78125 74.21875 
z
" id="DejaVuSans-48"/>
      </defs>
      <g transform="translate(100.583849 366.772604)scale(0.1 -0.1)">
       <use xlink:href="#DejaVuSans-48"/>
      </g>
     </g>
    </g>
    <g id="xtick_2">
     <g id="line2d_2">
      <g>
       <use style="stroke:#000000;stroke-width:0.8;" x="177.406977" xlink:href="#mea7a695b7c" y="352.174167"/>
      </g>
     </g>
     <g id="text_2">
      <!-- 50 -->
      <defs>
       <path d="M 10.796875 72.90625 
L 49.515625 72.90625 
L 49.515625 64.59375 
L 19.828125 64.59375 
L 19.828125 46.734375 
Q 21.96875 47.46875 24.109375 47.828125 
Q 26.265625 48.1875 28.421875 48.1875 
Q 40.625 48.1875 47.75 41.5 
Q 54.890625 34.8125 54.890625 23.390625 
Q 54.890625 11.625 47.5625 5.09375 
Q 40.234375 -1.421875 26.90625 -1.421875 
Q 22.3125 -1.421875 17.546875 -0.640625 
Q 12.796875 0.140625 7.71875 1.703125 
L 7.71875 11.625 
Q 12.109375 9.234375 16.796875 8.0625 
Q 21.484375 6.890625 26.703125 6.890625 
Q 35.15625 6.890625 40.078125 11.328125 
Q 45.015625 15.765625 45.015625 23.390625 
Q 45.015625 31 40.078125 35.4375 
Q 35.15625 39.890625 26.703125 39.890625 
Q 22.75 39.890625 18.8125 39.015625 
Q 14.890625 38.140625 10.796875 36.28125 
z
" id="DejaVuSans-53"/>
      </defs>
      <g transform="translate(171.044477 366.772604)scale(0.1 -0.1)">
       <use xlink:href="#DejaVuSans-53"/>
       <use x="63.623047" xlink:href="#DejaVuSans-48"/>
      </g>
     </g>
    </g>
    <g id="xtick_3">
     <g id="line2d_3">
      <g>
       <use style="stroke:#000000;stroke-width:0.8;" x="251.048854" xlink:href="#mea7a695b7c" y="352.174167"/>
      </g>
     </g>
     <g id="text_3">
      <!-- 100 -->
      <defs>
       <path d="M 12.40625 8.296875 
L 28.515625 8.296875 
L 28.515625 63.921875 
L 10.984375 60.40625 
L 10.984375 69.390625 
L 28.421875 72.90625 
L 38.28125 72.90625 
L 38.28125 8.296875 
L 54.390625 8.296875 
L 54.390625 0 
L 12.40625 0 
z
" id="DejaVuSans-49"/>
      </defs>
      <g transform="translate(241.505104 366.772604)scale(0.1 -0.1)">
       <use xlink:href="#DejaVuSans-49"/>
       <use x="63.623047" xlink:href="#DejaVuSans-48"/>
       <use x="127.246094" xlink:href="#DejaVuSans-48"/>
      </g>
     </g>
    </g>
    <g id="xtick_4">
     <g id="line2d_4">
      <g>
       <use style="stroke:#000000;stroke-width:0.8;" x="324.690731" xlink:href="#mea7a695b7c" y="352.174167"/>
      </g>
     </g>
     <g id="text_4">
      <!-- 150 -->
      <g transform="translate(315.146981 366.772604)scale(0.1 -0.1)">
       <use xlink:href="#DejaVuSans-49"/>
       <use x="63.623047" xlink:href="#DejaVuSans-53"/>
       <use x="127.246094" xlink:href="#DejaVuSans-48"/>
      </g>
     </g>
    </g>
    <g id="xtick_5">
     <g id="line2d_5">
      <g>
       <use style="stroke:#000000;stroke-width:0.8;" x="398.332608" xlink:href="#mea7a695b7c" y="352.174167"/>
      </g>
     </g>
     <g id="text_5">
      <!-- 200 -->
      <defs>
       <path d="M 19.1875 8.296875 
L 53.609375 8.296875 
L 53.609375 0 
L 7.328125 0 
L 7.328125 8.296875 
Q 12.9375 14.109375 22.625 23.890625 
Q 32.328125 33.6875 34.8125 36.53125 
Q 39.546875 41.84375 41.421875 45.53125 
Q 43.3125 49.21875 43.3125 52.78125 
Q 43.3125 58.59375 39.234375 62.25 
Q 35.15625 65.921875 28.609375 65.921875 
Q 23.96875 65.921875 18.8125 64.3125 
Q 13.671875 62.703125 7.8125 59.421875 
L 7.8125 69.390625 
Q 13.765625 71.78125 18.9375 73 
Q 24.125 74.21875 28.421875 74.21875 
Q 39.75 74.21875 46.484375 68.546875 
Q 53.21875 62.890625 53.21875 53.421875 
Q 53.21875 48.921875 51.53125 44.890625 
Q 49.859375 40.875 45.40625 35.40625 
Q 44.1875 33.984375 37.640625 27.21875 
Q 31.109375 20.453125 19.1875 8.296875 
z
" id="DejaVuSans-50"/>
      </defs>
      <g transform="translate(388.788858 366.772604)scale(0.1 -0.1)">
       <use xlink:href="#DejaVuSans-50"/>
       <use x="63.623047" xlink:href="#DejaVuSans-48"/>
       <use x="127.246094" xlink:href="#DejaVuSans-48"/>
      </g>
     </g>
    </g>
    <g id="xtick_6">
     <g id="line2d_6">
      <g>
       <use style="stroke:#000000;stroke-width:0.8;" x="471.974485" xlink:href="#mea7a695b7c" y="352.174167"/>
      </g>
     </g>
     <g id="text_6">
      <!-- 250 -->
      <g transform="translate(462.430735 366.772604)scale(0.1 -0.1)">
       <use xlink:href="#DejaVuSans-50"/>
       <use x="63.623047" xlink:href="#DejaVuSans-53"/>
       <use x="127.246094" xlink:href="#DejaVuSans-48"/>
      </g>
     </g>
    </g>
   </g>
   <g id="matplotlib.axis_2">
    <g id="ytick_1">
     <g id="line2d_7">
      <defs>
       <path d="M 0 0 
L -3.5 0 
" id="mffd378f662" style="stroke:#000000;stroke-width:0.8;"/>
      </defs>
      <g>
       <use style="stroke:#000000;stroke-width:0.8;" x="83.472344" xlink:href="#mffd378f662" y="352.174167"/>
      </g>
     </g>
     <g id="text_7">
      <!-- 0 -->
      <g transform="translate(70.109844 355.973385)scale(0.1 -0.1)">
       <use xlink:href="#DejaVuSans-48"/>
      </g>
     </g>
    </g>
    <g id="ytick_2">
     <g id="line2d_8">
      <g>
       <use style="stroke:#000000;stroke-width:0.8;" x="83.472344" xlink:href="#mffd378f662" y="313.852515"/>
      </g>
     </g>
     <g id="text_8">
      <!-- 10 -->
      <g transform="translate(63.747344 317.651734)scale(0.1 -0.1)">
       <use xlink:href="#DejaVuSans-49"/>
       <use x="63.623047" xlink:href="#DejaVuSans-48"/>
      </g>
     </g>
    </g>
    <g id="ytick_3">
     <g id="line2d_9">
      <g>
       <use style="stroke:#000000;stroke-width:0.8;" x="83.472344" xlink:href="#mffd378f662" y="275.530864"/>
      </g>
     </g>
     <g id="text_9">
      <!-- 20 -->
      <g transform="translate(63.747344 279.330082)scale(0.1 -0.1)">
       <use xlink:href="#DejaVuSans-50"/>
       <use x="63.623047" xlink:href="#DejaVuSans-48"/>
      </g>
     </g>
    </g>
    <g id="ytick_4">
     <g id="line2d_10">
      <g>
       <use style="stroke:#000000;stroke-width:0.8;" x="83.472344" xlink:href="#mffd378f662" y="237.209212"/>
      </g>
     </g>
     <g id="text_10">
      <!-- 30 -->
      <defs>
       <path d="M 40.578125 39.3125 
Q 47.65625 37.796875 51.625 33 
Q 55.609375 28.21875 55.609375 21.1875 
Q 55.609375 10.40625 48.1875 4.484375 
Q 40.765625 -1.421875 27.09375 -1.421875 
Q 22.515625 -1.421875 17.65625 -0.515625 
Q 12.796875 0.390625 7.625 2.203125 
L 7.625 11.71875 
Q 11.71875 9.328125 16.59375 8.109375 
Q 21.484375 6.890625 26.8125 6.890625 
Q 36.078125 6.890625 40.9375 10.546875 
Q 45.796875 14.203125 45.796875 21.1875 
Q 45.796875 27.640625 41.28125 31.265625 
Q 36.765625 34.90625 28.71875 34.90625 
L 20.21875 34.90625 
L 20.21875 43.015625 
L 29.109375 43.015625 
Q 36.375 43.015625 40.234375 45.921875 
Q 44.09375 48.828125 44.09375 54.296875 
Q 44.09375 59.90625 40.109375 62.90625 
Q 36.140625 65.921875 28.71875 65.921875 
Q 24.65625 65.921875 20.015625 65.03125 
Q 15.375 64.15625 9.8125 62.3125 
L 9.8125 71.09375 
Q 15.4375 72.65625 20.34375 73.4375 
Q 25.25 74.21875 29.59375 74.21875 
Q 40.828125 74.21875 47.359375 69.109375 
Q 53.90625 64.015625 53.90625 55.328125 
Q 53.90625 49.265625 50.4375 45.09375 
Q 46.96875 40.921875 40.578125 39.3125 
z
" id="DejaVuSans-51"/>
      </defs>
      <g transform="translate(63.747344 241.008431)scale(0.1 -0.1)">
       <use xlink:href="#DejaVuSans-51"/>
       <use x="63.623047" xlink:href="#DejaVuSans-48"/>
      </g>
     </g>
    </g>
    <g id="ytick_5">
     <g id="line2d_11">
      <g>
       <use style="stroke:#000000;stroke-width:0.8;" x="83.472344" xlink:href="#mffd378f662" y="198.88756"/>
      </g>
     </g>
     <g id="text_11">
      <!-- 40 -->
      <defs>
       <path d="M 37.796875 64.3125 
L 12.890625 25.390625 
L 37.796875 25.390625 
z
M 35.203125 72.90625 
L 47.609375 72.90625 
L 47.609375 25.390625 
L 58.015625 25.390625 
L 58.015625 17.1875 
L 47.609375 17.1875 
L 47.609375 0 
L 37.796875 0 
L 37.796875 17.1875 
L 4.890625 17.1875 
L 4.890625 26.703125 
z
" id="DejaVuSans-52"/>
      </defs>
      <g transform="translate(63.747344 202.686779)scale(0.1 -0.1)">
       <use xlink:href="#DejaVuSans-52"/>
       <use x="63.623047" xlink:href="#DejaVuSans-48"/>
      </g>
     </g>
    </g>
    <g id="ytick_6">
     <g id="line2d_12">
      <g>
       <use style="stroke:#000000;stroke-width:0.8;" x="83.472344" xlink:href="#mffd378f662" y="160.565909"/>
      </g>
     </g>
     <g id="text_12">
      <!-- 50 -->
      <g transform="translate(63.747344 164.365128)scale(0.1 -0.1)">
       <use xlink:href="#DejaVuSans-53"/>
       <use x="63.623047" xlink:href="#DejaVuSans-48"/>
      </g>
     </g>
    </g>
    <g id="ytick_7">
     <g id="line2d_13">
      <g>
       <use style="stroke:#000000;stroke-width:0.8;" x="83.472344" xlink:href="#mffd378f662" y="122.244257"/>
      </g>
     </g>
     <g id="text_13">
      <!-- 60 -->
      <defs>
       <path d="M 33.015625 40.375 
Q 26.375 40.375 22.484375 35.828125 
Q 18.609375 31.296875 18.609375 23.390625 
Q 18.609375 15.53125 22.484375 10.953125 
Q 26.375 6.390625 33.015625 6.390625 
Q 39.65625 6.390625 43.53125 10.953125 
Q 47.40625 15.53125 47.40625 23.390625 
Q 47.40625 31.296875 43.53125 35.828125 
Q 39.65625 40.375 33.015625 40.375 
z
M 52.59375 71.296875 
L 52.59375 62.3125 
Q 48.875 64.0625 45.09375 64.984375 
Q 41.3125 65.921875 37.59375 65.921875 
Q 27.828125 65.921875 22.671875 59.328125 
Q 17.53125 52.734375 16.796875 39.40625 
Q 19.671875 43.65625 24.015625 45.921875 
Q 28.375 48.1875 33.59375 48.1875 
Q 44.578125 48.1875 50.953125 41.515625 
Q 57.328125 34.859375 57.328125 23.390625 
Q 57.328125 12.15625 50.6875 5.359375 
Q 44.046875 -1.421875 33.015625 -1.421875 
Q 20.359375 -1.421875 13.671875 8.265625 
Q 6.984375 17.96875 6.984375 36.375 
Q 6.984375 53.65625 15.1875 63.9375 
Q 23.390625 74.21875 37.203125 74.21875 
Q 40.921875 74.21875 44.703125 73.484375 
Q 48.484375 72.75 52.59375 71.296875 
z
" id="DejaVuSans-54"/>
      </defs>
      <g transform="translate(63.747344 126.043476)scale(0.1 -0.1)">
       <use xlink:href="#DejaVuSans-54"/>
       <use x="63.623047" xlink:href="#DejaVuSans-48"/>
      </g>
     </g>
    </g>
    <g id="ytick_8">
     <g id="line2d_14">
      <g>
       <use style="stroke:#000000;stroke-width:0.8;" x="83.472344" xlink:href="#mffd378f662" y="83.922606"/>
      </g>
     </g>
     <g id="text_14">
      <!-- 70 -->
      <defs>
       <path d="M 8.203125 72.90625 
L 55.078125 72.90625 
L 55.078125 68.703125 
L 28.609375 0 
L 18.3125 0 
L 43.21875 64.59375 
L 8.203125 64.59375 
z
" id="DejaVuSans-55"/>
      </defs>
      <g transform="translate(63.747344 87.721824)scale(0.1 -0.1)">
       <use xlink:href="#DejaVuSans-55"/>
       <use x="63.623047" xlink:href="#DejaVuSans-48"/>
      </g>
     </g>
    </g>
    <g id="ytick_9">
     <g id="line2d_15">
      <g>
       <use style="stroke:#000000;stroke-width:0.8;" x="83.472344" xlink:href="#mffd378f662" y="45.600954"/>
      </g>
     </g>
     <g id="text_15">
      <!-- 80 -->
      <defs>
       <path d="M 31.78125 34.625 
Q 24.75 34.625 20.71875 30.859375 
Q 16.703125 27.09375 16.703125 20.515625 
Q 16.703125 13.921875 20.71875 10.15625 
Q 24.75 6.390625 31.78125 6.390625 
Q 38.8125 6.390625 42.859375 10.171875 
Q 46.921875 13.96875 46.921875 20.515625 
Q 46.921875 27.09375 42.890625 30.859375 
Q 38.875 34.625 31.78125 34.625 
z
M 21.921875 38.8125 
Q 15.578125 40.375 12.03125 44.71875 
Q 8.5 49.078125 8.5 55.328125 
Q 8.5 64.0625 14.71875 69.140625 
Q 20.953125 74.21875 31.78125 74.21875 
Q 42.671875 74.21875 48.875 69.140625 
Q 55.078125 64.0625 55.078125 55.328125 
Q 55.078125 49.078125 51.53125 44.71875 
Q 48 40.375 41.703125 38.8125 
Q 48.828125 37.15625 52.796875 32.3125 
Q 56.78125 27.484375 56.78125 20.515625 
Q 56.78125 9.90625 50.3125 4.234375 
Q 43.84375 -1.421875 31.78125 -1.421875 
Q 19.734375 -1.421875 13.25 4.234375 
Q 6.78125 9.90625 6.78125 20.515625 
Q 6.78125 27.484375 10.78125 32.3125 
Q 14.796875 37.15625 21.921875 38.8125 
z
M 18.3125 54.390625 
Q 18.3125 48.734375 21.84375 45.5625 
Q 25.390625 42.390625 31.78125 42.390625 
Q 38.140625 42.390625 41.71875 45.5625 
Q 45.3125 48.734375 45.3125 54.390625 
Q 45.3125 60.0625 41.71875 63.234375 
Q 38.140625 66.40625 31.78125 66.40625 
Q 25.390625 66.40625 21.84375 63.234375 
Q 18.3125 60.0625 18.3125 54.390625 
z
" id="DejaVuSans-56"/>
      </defs>
      <g transform="translate(63.747344 49.400173)scale(0.1 -0.1)">
       <use xlink:href="#DejaVuSans-56"/>
       <use x="63.623047" xlink:href="#DejaVuSans-48"/>
      </g>
     </g>
    </g>
    <g id="text_16">
     <!-- throughput -->
     <defs>
      <path d="M 18.3125 70.21875 
L 18.3125 54.6875 
L 36.8125 54.6875 
L 36.8125 47.703125 
L 18.3125 47.703125 
L 18.3125 18.015625 
Q 18.3125 11.328125 20.140625 9.421875 
Q 21.96875 7.515625 27.59375 7.515625 
L 36.8125 7.515625 
L 36.8125 0 
L 27.59375 0 
Q 17.1875 0 13.234375 3.875 
Q 9.28125 7.765625 9.28125 18.015625 
L 9.28125 47.703125 
L 2.6875 47.703125 
L 2.6875 54.6875 
L 9.28125 54.6875 
L 9.28125 70.21875 
z
" id="DejaVuSans-116"/>
      <path d="M 54.890625 33.015625 
L 54.890625 0 
L 45.90625 0 
L 45.90625 32.71875 
Q 45.90625 40.484375 42.875 44.328125 
Q 39.84375 48.1875 33.796875 48.1875 
Q 26.515625 48.1875 22.3125 43.546875 
Q 18.109375 38.921875 18.109375 30.90625 
L 18.109375 0 
L 9.078125 0 
L 9.078125 75.984375 
L 18.109375 75.984375 
L 18.109375 46.1875 
Q 21.34375 51.125 25.703125 53.5625 
Q 30.078125 56 35.796875 56 
Q 45.21875 56 50.046875 50.171875 
Q 54.890625 44.34375 54.890625 33.015625 
z
" id="DejaVuSans-104"/>
      <path d="M 41.109375 46.296875 
Q 39.59375 47.171875 37.8125 47.578125 
Q 36.03125 48 33.890625 48 
Q 26.265625 48 22.1875 43.046875 
Q 18.109375 38.09375 18.109375 28.8125 
L 18.109375 0 
L 9.078125 0 
L 9.078125 54.6875 
L 18.109375 54.6875 
L 18.109375 46.1875 
Q 20.953125 51.171875 25.484375 53.578125 
Q 30.03125 56 36.53125 56 
Q 37.453125 56 38.578125 55.875 
Q 39.703125 55.765625 41.0625 55.515625 
z
" id="DejaVuSans-114"/>
      <path d="M 30.609375 48.390625 
Q 23.390625 48.390625 19.1875 42.75 
Q 14.984375 37.109375 14.984375 27.296875 
Q 14.984375 17.484375 19.15625 11.84375 
Q 23.34375 6.203125 30.609375 6.203125 
Q 37.796875 6.203125 41.984375 11.859375 
Q 46.1875 17.53125 46.1875 27.296875 
Q 46.1875 37.015625 41.984375 42.703125 
Q 37.796875 48.390625 30.609375 48.390625 
z
M 30.609375 56 
Q 42.328125 56 49.015625 48.375 
Q 55.71875 40.765625 55.71875 27.296875 
Q 55.71875 13.875 49.015625 6.21875 
Q 42.328125 -1.421875 30.609375 -1.421875 
Q 18.84375 -1.421875 12.171875 6.21875 
Q 5.515625 13.875 5.515625 27.296875 
Q 5.515625 40.765625 12.171875 48.375 
Q 18.84375 56 30.609375 56 
z
" id="DejaVuSans-111"/>
      <path d="M 8.5 21.578125 
L 8.5 54.6875 
L 17.484375 54.6875 
L 17.484375 21.921875 
Q 17.484375 14.15625 20.5 10.265625 
Q 23.53125 6.390625 29.59375 6.390625 
Q 36.859375 6.390625 41.078125 11.03125 
Q 45.3125 15.671875 45.3125 23.6875 
L 45.3125 54.6875 
L 54.296875 54.6875 
L 54.296875 0 
L 45.3125 0 
L 45.3125 8.40625 
Q 42.046875 3.421875 37.71875 1 
Q 33.40625 -1.421875 27.6875 -1.421875 
Q 18.265625 -1.421875 13.375 4.4375 
Q 8.5 10.296875 8.5 21.578125 
z
M 31.109375 56 
z
" id="DejaVuSans-117"/>
      <path d="M 45.40625 27.984375 
Q 45.40625 37.75 41.375 43.109375 
Q 37.359375 48.484375 30.078125 48.484375 
Q 22.859375 48.484375 18.828125 43.109375 
Q 14.796875 37.75 14.796875 27.984375 
Q 14.796875 18.265625 18.828125 12.890625 
Q 22.859375 7.515625 30.078125 7.515625 
Q 37.359375 7.515625 41.375 12.890625 
Q 45.40625 18.265625 45.40625 27.984375 
z
M 54.390625 6.78125 
Q 54.390625 -7.171875 48.1875 -13.984375 
Q 42 -20.796875 29.203125 -20.796875 
Q 24.46875 -20.796875 20.265625 -20.09375 
Q 16.0625 -19.390625 12.109375 -17.921875 
L 12.109375 -9.1875 
Q 16.0625 -11.328125 19.921875 -12.34375 
Q 23.78125 -13.375 27.78125 -13.375 
Q 36.625 -13.375 41.015625 -8.765625 
Q 45.40625 -4.15625 45.40625 5.171875 
L 45.40625 9.625 
Q 42.625 4.78125 38.28125 2.390625 
Q 33.9375 0 27.875 0 
Q 17.828125 0 11.671875 7.65625 
Q 5.515625 15.328125 5.515625 27.984375 
Q 5.515625 40.671875 11.671875 48.328125 
Q 17.828125 56 27.875 56 
Q 33.9375 56 38.28125 53.609375 
Q 42.625 51.21875 45.40625 46.390625 
L 45.40625 54.6875 
L 54.390625 54.6875 
z
" id="DejaVuSans-103"/>
      <path d="M 18.109375 8.203125 
L 18.109375 -20.796875 
L 9.078125 -20.796875 
L 9.078125 54.6875 
L 18.109375 54.6875 
L 18.109375 46.390625 
Q 20.953125 51.265625 25.265625 53.625 
Q 29.59375 56 35.59375 56 
Q 45.5625 56 51.78125 48.09375 
Q 58.015625 40.1875 58.015625 27.296875 
Q 58.015625 14.40625 51.78125 6.484375 
Q 45.5625 -1.421875 35.59375 -1.421875 
Q 29.59375 -1.421875 25.265625 0.953125 
Q 20.953125 3.328125 18.109375 8.203125 
z
M 48.6875 27.296875 
Q 48.6875 37.203125 44.609375 42.84375 
Q 40.53125 48.484375 33.40625 48.484375 
Q 26.265625 48.484375 22.1875 42.84375 
Q 18.109375 37.203125 18.109375 27.296875 
Q 18.109375 17.390625 22.1875 11.75 
Q 26.265625 6.109375 33.40625 6.109375 
Q 40.53125 6.109375 44.609375 11.75 
Q 48.6875 17.390625 48.6875 27.296875 
z
" id="DejaVuSans-112"/>
     </defs>
     <g transform="translate(46.469844 221.675365)rotate(-90)scale(0.1 -0.1)">
      <use xlink:href="#DejaVuSans-116"/>
      <use x="39.208984" xlink:href="#DejaVuSans-104"/>
      <use x="102.587891" xlink:href="#DejaVuSans-114"/>
      <use x="143.669922" xlink:href="#DejaVuSans-111"/>
      <use x="204.851562" xlink:href="#DejaVuSans-117"/>
      <use x="268.230469" xlink:href="#DejaVuSans-103"/>
      <use x="331.707031" xlink:href="#DejaVuSans-104"/>
      <use x="395.085938" xlink:href="#DejaVuSans-112"/>
      <use x="458.5625" xlink:href="#DejaVuSans-117"/>
      <use x="521.941406" xlink:href="#DejaVuSans-116"/>
     </g>
     <!-- (mbit / second) -->
     <defs>
      <path d="M 31 75.875 
Q 24.46875 64.65625 21.28125 53.65625 
Q 18.109375 42.671875 18.109375 31.390625 
Q 18.109375 20.125 21.3125 9.0625 
Q 24.515625 -2 31 -13.1875 
L 23.1875 -13.1875 
Q 15.875 -1.703125 12.234375 9.375 
Q 8.59375 20.453125 8.59375 31.390625 
Q 8.59375 42.28125 12.203125 53.3125 
Q 15.828125 64.359375 23.1875 75.875 
z
" id="DejaVuSans-40"/>
      <path d="M 52 44.1875 
Q 55.375 50.25 60.0625 53.125 
Q 64.75 56 71.09375 56 
Q 79.640625 56 84.28125 50.015625 
Q 88.921875 44.046875 88.921875 33.015625 
L 88.921875 0 
L 79.890625 0 
L 79.890625 32.71875 
Q 79.890625 40.578125 77.09375 44.375 
Q 74.3125 48.1875 68.609375 48.1875 
Q 61.625 48.1875 57.5625 43.546875 
Q 53.515625 38.921875 53.515625 30.90625 
L 53.515625 0 
L 44.484375 0 
L 44.484375 32.71875 
Q 44.484375 40.625 41.703125 44.40625 
Q 38.921875 48.1875 33.109375 48.1875 
Q 26.21875 48.1875 22.15625 43.53125 
Q 18.109375 38.875 18.109375 30.90625 
L 18.109375 0 
L 9.078125 0 
L 9.078125 54.6875 
L 18.109375 54.6875 
L 18.109375 46.1875 
Q 21.1875 51.21875 25.484375 53.609375 
Q 29.78125 56 35.6875 56 
Q 41.65625 56 45.828125 52.96875 
Q 50 49.953125 52 44.1875 
z
" id="DejaVuSans-109"/>
      <path d="M 48.6875 27.296875 
Q 48.6875 37.203125 44.609375 42.84375 
Q 40.53125 48.484375 33.40625 48.484375 
Q 26.265625 48.484375 22.1875 42.84375 
Q 18.109375 37.203125 18.109375 27.296875 
Q 18.109375 17.390625 22.1875 11.75 
Q 26.265625 6.109375 33.40625 6.109375 
Q 40.53125 6.109375 44.609375 11.75 
Q 48.6875 17.390625 48.6875 27.296875 
z
M 18.109375 46.390625 
Q 20.953125 51.265625 25.265625 53.625 
Q 29.59375 56 35.59375 56 
Q 45.5625 56 51.78125 48.09375 
Q 58.015625 40.1875 58.015625 27.296875 
Q 58.015625 14.40625 51.78125 6.484375 
Q 45.5625 -1.421875 35.59375 -1.421875 
Q 29.59375 -1.421875 25.265625 0.953125 
Q 20.953125 3.328125 18.109375 8.203125 
L 18.109375 0 
L 9.078125 0 
L 9.078125 75.984375 
L 18.109375 75.984375 
z
" id="DejaVuSans-98"/>
      <path d="M 9.421875 54.6875 
L 18.40625 54.6875 
L 18.40625 0 
L 9.421875 0 
z
M 9.421875 75.984375 
L 18.40625 75.984375 
L 18.40625 64.59375 
L 9.421875 64.59375 
z
" id="DejaVuSans-105"/>
      <path id="DejaVuSans-32"/>
      <path d="M 25.390625 72.90625 
L 33.6875 72.90625 
L 8.296875 -9.28125 
L 0 -9.28125 
z
" id="DejaVuSans-47"/>
      <path d="M 44.28125 53.078125 
L 44.28125 44.578125 
Q 40.484375 46.53125 36.375 47.5 
Q 32.28125 48.484375 27.875 48.484375 
Q 21.1875 48.484375 17.84375 46.4375 
Q 14.5 44.390625 14.5 40.28125 
Q 14.5 37.15625 16.890625 35.375 
Q 19.28125 33.59375 26.515625 31.984375 
L 29.59375 31.296875 
Q 39.15625 29.25 43.1875 25.515625 
Q 47.21875 21.78125 47.21875 15.09375 
Q 47.21875 7.46875 41.1875 3.015625 
Q 35.15625 -1.421875 24.609375 -1.421875 
Q 20.21875 -1.421875 15.453125 -0.5625 
Q 10.6875 0.296875 5.421875 2 
L 5.421875 11.28125 
Q 10.40625 8.6875 15.234375 7.390625 
Q 20.0625 6.109375 24.8125 6.109375 
Q 31.15625 6.109375 34.5625 8.28125 
Q 37.984375 10.453125 37.984375 14.40625 
Q 37.984375 18.0625 35.515625 20.015625 
Q 33.0625 21.96875 24.703125 23.78125 
L 21.578125 24.515625 
Q 13.234375 26.265625 9.515625 29.90625 
Q 5.8125 33.546875 5.8125 39.890625 
Q 5.8125 47.609375 11.28125 51.796875 
Q 16.75 56 26.8125 56 
Q 31.78125 56 36.171875 55.265625 
Q 40.578125 54.546875 44.28125 53.078125 
z
" id="DejaVuSans-115"/>
      <path d="M 56.203125 29.59375 
L 56.203125 25.203125 
L 14.890625 25.203125 
Q 15.484375 15.921875 20.484375 11.0625 
Q 25.484375 6.203125 34.421875 6.203125 
Q 39.59375 6.203125 44.453125 7.46875 
Q 49.3125 8.734375 54.109375 11.28125 
L 54.109375 2.78125 
Q 49.265625 0.734375 44.1875 -0.34375 
Q 39.109375 -1.421875 33.890625 -1.421875 
Q 20.796875 -1.421875 13.15625 6.1875 
Q 5.515625 13.8125 5.515625 26.8125 
Q 5.515625 40.234375 12.765625 48.109375 
Q 20.015625 56 32.328125 56 
Q 43.359375 56 49.78125 48.890625 
Q 56.203125 41.796875 56.203125 29.59375 
z
M 47.21875 32.234375 
Q 47.125 39.59375 43.09375 43.984375 
Q 39.0625 48.390625 32.421875 48.390625 
Q 24.90625 48.390625 20.390625 44.140625 
Q 15.875 39.890625 15.1875 32.171875 
z
" id="DejaVuSans-101"/>
      <path d="M 48.78125 52.59375 
L 48.78125 44.1875 
Q 44.96875 46.296875 41.140625 47.34375 
Q 37.3125 48.390625 33.40625 48.390625 
Q 24.65625 48.390625 19.8125 42.84375 
Q 14.984375 37.3125 14.984375 27.296875 
Q 14.984375 17.28125 19.8125 11.734375 
Q 24.65625 6.203125 33.40625 6.203125 
Q 37.3125 6.203125 41.140625 7.25 
Q 44.96875 8.296875 48.78125 10.40625 
L 48.78125 2.09375 
Q 45.015625 0.34375 40.984375 -0.53125 
Q 36.96875 -1.421875 32.421875 -1.421875 
Q 20.0625 -1.421875 12.78125 6.34375 
Q 5.515625 14.109375 5.515625 27.296875 
Q 5.515625 40.671875 12.859375 48.328125 
Q 20.21875 56 33.015625 56 
Q 37.15625 56 41.109375 55.140625 
Q 45.0625 54.296875 48.78125 52.59375 
z
" id="DejaVuSans-99"/>
      <path d="M 54.890625 33.015625 
L 54.890625 0 
L 45.90625 0 
L 45.90625 32.71875 
Q 45.90625 40.484375 42.875 44.328125 
Q 39.84375 48.1875 33.796875 48.1875 
Q 26.515625 48.1875 22.3125 43.546875 
Q 18.109375 38.921875 18.109375 30.90625 
L 18.109375 0 
L 9.078125 0 
L 9.078125 54.6875 
L 18.109375 54.6875 
L 18.109375 46.1875 
Q 21.34375 51.125 25.703125 53.5625 
Q 30.078125 56 35.796875 56 
Q 45.21875 56 50.046875 50.171875 
Q 54.890625 44.34375 54.890625 33.015625 
z
" id="DejaVuSans-110"/>
      <path d="M 45.40625 46.390625 
L 45.40625 75.984375 
L 54.390625 75.984375 
L 54.390625 0 
L 45.40625 0 
L 45.40625 8.203125 
Q 42.578125 3.328125 38.25 0.953125 
Q 33.9375 -1.421875 27.875 -1.421875 
Q 17.96875 -1.421875 11.734375 6.484375 
Q 5.515625 14.40625 5.515625 27.296875 
Q 5.515625 40.1875 11.734375 48.09375 
Q 17.96875 56 27.875 56 
Q 33.9375 56 38.25 53.625 
Q 42.578125 51.265625 45.40625 46.390625 
z
M 14.796875 27.296875 
Q 14.796875 17.390625 18.875 11.75 
Q 22.953125 6.109375 30.078125 6.109375 
Q 37.203125 6.109375 41.296875 11.75 
Q 45.40625 17.390625 45.40625 27.296875 
Q 45.40625 37.203125 41.296875 42.84375 
Q 37.203125 48.484375 30.078125 48.484375 
Q 22.953125 48.484375 18.875 42.84375 
Q 14.796875 37.203125 14.796875 27.296875 
z
" id="DejaVuSans-100"/>
      <path d="M 8.015625 75.875 
L 15.828125 75.875 
Q 23.140625 64.359375 26.78125 53.3125 
Q 30.421875 42.28125 30.421875 31.390625 
Q 30.421875 20.453125 26.78125 9.375 
Q 23.140625 -1.703125 15.828125 -13.1875 
L 8.015625 -13.1875 
Q 14.5 -2 17.703125 9.0625 
Q 20.90625 20.125 20.90625 31.390625 
Q 20.90625 42.671875 17.703125 53.65625 
Q 14.5 64.65625 8.015625 75.875 
z
" id="DejaVuSans-41"/>
     </defs>
     <g transform="translate(57.667656 231.608958)rotate(-90)scale(0.1 -0.1)">
      <use xlink:href="#DejaVuSans-40"/>
      <use x="39.013672" xlink:href="#DejaVuSans-109"/>
      <use x="136.425781" xlink:href="#DejaVuSans-98"/>
      <use x="199.902344" xlink:href="#DejaVuSans-105"/>
      <use x="227.685547" xlink:href="#DejaVuSans-116"/>
      <use x="266.894531" xlink:href="#DejaVuSans-32"/>
      <use x="298.681641" xlink:href="#DejaVuSans-47"/>
      <use x="332.373047" xlink:href="#DejaVuSans-32"/>
      <use x="364.160156" xlink:href="#DejaVuSans-115"/>
      <use x="416.259766" xlink:href="#DejaVuSans-101"/>
      <use x="477.783203" xlink:href="#DejaVuSans-99"/>
      <use x="532.763672" xlink:href="#DejaVuSans-111"/>
      <use x="593.945312" xlink:href="#DejaVuSans-110"/>
      <use x="657.324219" xlink:href="#DejaVuSans-100"/>
      <use x="720.800781" xlink:href="#DejaVuSans-41"/>
     </g>
    </g>
   </g>
   <g id="line2d_16">
    <path clip-path="url(#pe5e8ceba15)" d="M 112.690495 313.852515 
L 113.426914 306.188185 
L 114.163332 310.02035 
L 116.372589 287.027359 
L 117.109008 290.859524 
L 117.845426 287.027359 
L 119.318264 271.698698 
L 120.054683 275.530864 
L 120.791101 275.530864 
L 121.52752 283.195194 
L 122.263939 287.027359 
L 123.000358 294.691689 
L 123.736777 298.523854 
L 124.473195 298.523854 
L 125.209614 279.363029 
L 125.946033 275.530864 
L 126.682452 283.195194 
L 127.41887 283.195194 
L 128.155289 294.691689 
L 128.891708 298.523854 
L 129.628127 294.691689 
L 130.364545 306.188185 
L 131.100964 298.523854 
L 131.837383 287.027359 
L 132.573802 283.195194 
L 133.310221 287.027359 
L 134.046639 294.691689 
L 134.783058 306.188185 
L 136.255896 313.852515 
L 136.992314 302.35602 
L 137.728733 298.523854 
L 138.465152 302.35602 
L 139.201571 294.691689 
L 139.93799 283.195194 
L 140.674408 294.691689 
L 142.147246 287.027359 
L 142.883665 287.027359 
L 143.620083 279.363029 
L 144.356502 275.530864 
L 145.092921 287.027359 
L 145.82934 279.363029 
L 146.565758 275.530864 
L 147.302177 287.027359 
L 148.038596 279.363029 
L 148.775015 267.866533 
L 150.247852 275.530864 
L 150.984271 264.034368 
L 151.72069 264.034368 
L 152.457109 267.866533 
L 153.193527 267.866533 
L 153.929946 283.195194 
L 154.666365 294.691689 
L 155.402784 287.027359 
L 156.875621 302.35602 
L 157.61204 298.523854 
L 159.084878 283.195194 
L 159.821296 287.027359 
L 160.557715 298.523854 
L 161.294134 302.35602 
L 162.030553 310.02035 
L 162.766971 302.35602 
L 163.50339 290.859524 
L 164.239809 283.195194 
L 164.976228 271.698698 
L 166.449065 279.363029 
L 167.185484 267.866533 
L 169.39474 267.866533 
L 170.131159 271.698698 
L 170.867578 279.363029 
L 171.603997 283.195194 
L 172.340415 275.530864 
L 173.076834 279.363029 
L 173.813253 290.859524 
L 175.286091 306.188185 
L 176.758928 298.523854 
L 177.495347 298.523854 
L 178.968184 313.852515 
L 179.704603 317.68468 
L 180.441022 310.02035 
L 181.91386 287.027359 
L 182.650278 283.195194 
L 183.386697 283.195194 
L 184.123116 279.363029 
L 184.859535 267.866533 
L 185.595953 260.202203 
L 186.332372 260.202203 
L 187.068791 267.866533 
L 187.80521 264.034368 
L 189.278047 287.027359 
L 190.750885 302.35602 
L 191.487304 290.859524 
L 192.223722 283.195194 
L 192.960141 290.859524 
L 193.69656 294.691689 
L 194.432979 302.35602 
L 195.169397 298.523854 
L 195.905816 298.523854 
L 196.642235 290.859524 
L 198.115073 267.866533 
L 198.851491 264.034368 
L 199.58791 279.363029 
L 200.324329 271.698698 
L 201.060748 290.859524 
L 201.797166 279.363029 
L 202.533585 271.698698 
L 203.270004 260.202203 
L 204.006423 275.530864 
L 205.47926 283.195194 
L 206.215679 290.859524 
L 207.688517 298.523854 
L 208.424935 298.523854 
L 209.161354 294.691689 
L 209.897773 294.691689 
L 210.634192 279.363029 
L 211.37061 271.698698 
L 212.107029 256.370038 
L 212.843448 256.370038 
L 213.579867 237.209212 
L 215.789123 260.202203 
L 216.525542 264.034368 
L 217.261961 271.698698 
L 217.998379 275.530864 
L 218.734798 264.034368 
L 220.944054 287.027359 
L 221.680473 283.195194 
L 222.416892 290.859524 
L 223.153311 287.027359 
L 223.88973 279.363029 
L 224.626148 264.034368 
L 225.362567 252.537873 
L 226.098986 248.705707 
L 226.835405 233.377047 
L 227.571823 252.537873 
L 228.308242 252.537873 
L 229.044661 244.873542 
L 229.78108 233.377047 
L 230.517498 256.370038 
L 231.253917 252.537873 
L 231.990336 241.041377 
L 232.726755 256.370038 
L 234.936011 267.866533 
L 235.67243 264.034368 
L 236.408849 271.698698 
L 237.145267 271.698698 
L 237.881686 264.034368 
L 238.618105 248.705707 
L 239.354524 241.041377 
L 240.090943 241.041377 
L 240.827361 252.537873 
L 242.300199 244.873542 
L 243.036618 267.866533 
L 243.773036 260.202203 
L 244.509455 244.873542 
L 245.982293 221.880551 
L 246.718711 218.048386 
L 247.45513 221.880551 
L 248.191549 237.209212 
L 248.927968 248.705707 
L 249.664387 256.370038 
L 250.400805 271.698698 
L 251.137224 271.698698 
L 251.873643 256.370038 
L 252.610062 256.370038 
L 253.34648 264.034368 
L 254.082899 264.034368 
L 254.819318 275.530864 
L 255.555737 294.691689 
L 256.292155 283.195194 
L 257.028574 275.530864 
L 257.764993 290.859524 
L 258.501412 275.530864 
L 259.237831 275.530864 
L 259.974249 260.202203 
L 260.710668 252.537873 
L 261.447087 256.370038 
L 262.183506 267.866533 
L 262.919924 260.202203 
L 263.656343 275.530864 
L 264.392762 283.195194 
L 265.129181 287.027359 
L 265.8656 283.195194 
L 266.602018 287.027359 
L 267.338437 283.195194 
L 268.074856 271.698698 
L 268.811275 279.363029 
L 269.547693 279.363029 
L 270.284112 294.691689 
L 271.020531 306.188185 
L 271.75695 294.691689 
L 272.493368 287.027359 
L 273.229787 275.530864 
L 273.966206 267.866533 
L 274.702625 279.363029 
L 275.439044 279.363029 
L 276.175462 264.034368 
L 276.911881 264.034368 
L 279.857556 294.691689 
L 280.593975 287.027359 
L 281.330394 267.866533 
L 282.803231 267.866533 
L 283.53965 271.698698 
L 284.276069 283.195194 
L 285.012488 283.195194 
L 285.748906 271.698698 
L 286.485325 287.027359 
L 287.958163 302.35602 
L 288.694581 306.188185 
L 289.431 302.35602 
L 290.903838 310.02035 
L 291.640257 306.188185 
L 292.376675 294.691689 
L 293.113094 287.027359 
L 293.849513 267.866533 
L 294.585932 260.202203 
L 295.32235 264.034368 
L 296.795188 264.034368 
L 297.531607 252.537873 
L 298.268025 271.698698 
L 299.004444 283.195194 
L 299.740863 283.195194 
L 301.213701 290.859524 
L 301.950119 279.363029 
L 302.686538 283.195194 
L 303.422957 283.195194 
L 304.159376 294.691689 
L 304.895794 302.35602 
L 305.632213 302.35602 
L 307.105051 279.363029 
L 307.84147 275.530864 
L 308.577888 283.195194 
L 309.314307 287.027359 
L 310.050726 294.691689 
L 310.787145 290.859524 
L 311.523563 290.859524 
L 312.259982 294.691689 
L 312.996401 302.35602 
L 313.73282 294.691689 
L 314.469238 290.859524 
L 315.205657 290.859524 
L 315.942076 275.530864 
L 317.414914 260.202203 
L 318.151332 248.705707 
L 318.887751 241.041377 
L 319.62417 229.544882 
L 320.360589 233.377047 
L 321.097007 241.041377 
L 321.833426 256.370038 
L 323.306264 279.363029 
L 324.042683 279.363029 
L 324.779101 264.034368 
L 325.51552 271.698698 
L 326.251939 275.530864 
L 326.988358 275.530864 
L 327.724776 287.027359 
L 328.461195 290.859524 
L 329.197614 290.859524 
L 329.934033 283.195194 
L 330.670451 279.363029 
L 331.40687 283.195194 
L 332.879708 267.866533 
L 333.616127 271.698698 
L 334.352545 287.027359 
L 335.088964 290.859524 
L 335.825383 298.523854 
L 336.561802 290.859524 
L 338.034639 290.859524 
L 338.771058 294.691689 
L 339.507477 294.691689 
L 340.243896 283.195194 
L 340.980314 279.363029 
L 341.716733 287.027359 
L 342.453152 290.859524 
L 343.189571 290.859524 
L 343.925989 283.195194 
L 344.662408 279.363029 
L 345.398827 290.859524 
L 346.135246 279.363029 
L 346.871664 271.698698 
L 348.344502 248.705707 
L 349.080921 267.866533 
L 349.81734 260.202203 
L 350.553758 271.698698 
L 351.290177 275.530864 
L 352.026596 264.034368 
L 352.763015 271.698698 
L 353.499433 271.698698 
L 354.235852 275.530864 
L 354.972271 275.530864 
L 355.70869 283.195194 
L 356.445108 283.195194 
L 357.181527 290.859524 
L 357.917946 290.859524 
L 358.654365 294.691689 
L 360.127202 271.698698 
L 362.336459 248.705707 
L 363.809296 225.712717 
L 364.545715 229.544882 
L 365.282134 244.873542 
L 366.018553 233.377047 
L 366.754971 244.873542 
L 367.49139 252.537873 
L 368.227809 244.873542 
L 368.964228 256.370038 
L 369.700646 275.530864 
L 370.437065 283.195194 
L 371.173484 287.027359 
L 371.909903 287.027359 
L 372.646321 294.691689 
L 374.855578 294.691689 
L 375.591997 298.523854 
L 377.064834 298.523854 
L 377.801253 294.691689 
L 378.537672 283.195194 
L 379.27409 260.202203 
L 380.010509 260.202203 
L 380.746928 241.041377 
L 381.483347 241.041377 
L 382.219766 229.544882 
L 382.956184 233.377047 
L 385.165441 256.370038 
L 385.901859 252.537873 
L 386.638278 244.873542 
L 388.111116 252.537873 
L 388.847534 244.873542 
L 389.583953 248.705707 
L 391.056791 264.034368 
L 391.79321 275.530864 
L 392.529628 290.859524 
L 393.266047 294.691689 
L 394.002466 294.691689 
L 395.475303 279.363029 
L 396.211722 287.027359 
L 396.948141 283.195194 
L 397.68456 260.202203 
L 398.420978 260.202203 
L 399.157397 275.530864 
L 399.893816 271.698698 
L 401.366654 279.363029 
L 402.103072 290.859524 
L 403.57591 275.530864 
L 404.312329 256.370038 
L 405.048747 264.034368 
L 406.521585 287.027359 
L 407.258004 290.859524 
L 407.994423 298.523854 
L 408.730841 302.35602 
L 409.46726 294.691689 
L 410.940098 271.698698 
L 412.412935 279.363029 
L 413.149354 267.866533 
L 413.885773 267.866533 
L 414.622191 275.530864 
L 415.35861 271.698698 
L 416.095029 260.202203 
L 416.831448 264.034368 
L 417.567867 264.034368 
L 418.304285 260.202203 
L 419.040704 264.034368 
L 419.777123 287.027359 
L 421.24996 294.691689 
L 422.722798 294.691689 
L 423.459217 290.859524 
L 424.195636 290.859524 
L 424.932054 294.691689 
L 425.668473 283.195194 
L 426.404892 275.530864 
L 427.141311 252.537873 
L 427.877729 252.537873 
L 428.614148 241.041377 
L 429.350567 221.880551 
L 430.086986 218.048386 
L 430.823404 210.384056 
L 431.559823 221.880551 
L 432.296242 229.544882 
L 433.032661 225.712717 
L 434.505498 248.705707 
L 435.241917 237.209212 
L 435.978336 256.370038 
L 436.714755 260.202203 
L 439.66043 290.859524 
L 440.396848 287.027359 
L 441.133267 275.530864 
L 442.606105 283.195194 
L 443.342524 294.691689 
L 444.078942 287.027359 
L 444.815361 294.691689 
L 445.55178 298.523854 
L 446.288199 298.523854 
L 447.761036 290.859524 
L 448.497455 279.363029 
L 449.233874 283.195194 
L 449.970293 283.195194 
L 450.706711 290.859524 
L 451.44313 290.859524 
L 452.179549 298.523854 
L 453.652386 306.188185 
L 454.388805 287.027359 
L 455.125224 279.363029 
L 455.861643 267.866533 
L 456.598061 260.202203 
L 457.33448 267.866533 
L 458.070899 271.698698 
L 458.807318 287.027359 
L 459.543737 283.195194 
L 460.280155 294.691689 
L 461.016574 287.027359 
L 462.489412 264.034368 
L 463.22583 256.370038 
L 463.962249 237.209212 
L 465.435087 252.537873 
L 466.171506 252.537873 
L 466.907924 244.873542 
L 467.644343 233.377047 
L 468.380762 237.209212 
L 469.117181 248.705707 
L 469.853599 237.209212 
L 470.590018 260.202203 
L 471.326437 279.363029 
L 472.062856 290.859524 
L 473.535693 306.188185 
L 474.272112 306.188185 
L 475.008531 302.35602 
L 475.74495 290.859524 
L 476.481368 283.195194 
L 477.217787 279.363029 
L 477.954206 279.363029 
L 478.690625 275.530864 
L 479.427043 267.866533 
L 480.163462 279.363029 
L 480.899881 275.530864 
L 481.6363 267.866533 
L 483.109137 267.866533 
L 483.845556 279.363029 
L 484.581975 279.363029 
L 485.318394 271.698698 
L 486.054812 260.202203 
L 486.791231 252.537873 
L 487.52765 252.537873 
L 488.264069 256.370038 
L 489.000487 267.866533 
L 489.736906 275.530864 
L 490.473325 252.537873 
L 491.209744 252.537873 
L 491.946163 241.041377 
L 492.682581 252.537873 
L 493.419 260.202203 
L 494.155419 244.873542 
L 494.891838 237.209212 
L 495.628256 241.041377 
L 496.364675 256.370038 
L 497.101094 256.370038 
L 497.837513 267.866533 
L 498.573931 256.370038 
L 499.31035 264.034368 
L 500.046769 267.866533 
L 500.783188 275.530864 
L 501.519607 279.363029 
L 502.256025 267.866533 
L 502.992444 279.363029 
L 503.728863 279.363029 
L 504.465282 271.698698 
L 505.938119 279.363029 
L 506.674538 294.691689 
L 507.410957 279.363029 
L 508.147376 271.698698 
L 508.883794 267.866533 
L 509.620213 252.537873 
L 509.620213 252.537873 
" style="fill:none;stroke:#1f77b4;stroke-linecap:square;stroke-width:1.5;"/>
   </g>
   <g id="line2d_17">
    <path clip-path="url(#pe5e8ceba15)" d="M 103.765099 95.419101 
L 104.501518 49.433119 
L 105.974356 49.433119 
L 106.710775 83.922606 
L 107.447193 103.083432 
L 108.920031 118.412092 
L 109.65645 152.901579 
L 111.129287 183.5589 
L 111.865706 195.055395 
L 112.602125 214.216221 
L 113.338543 225.712717 
L 114.074962 229.544882 
L 114.811381 244.873542 
L 115.5478 244.873542 
L 116.284219 237.209212 
L 117.020637 252.537873 
L 117.757056 256.370038 
L 118.493475 241.041377 
L 119.229894 267.866533 
L 119.966312 275.530864 
L 120.702731 275.530864 
L 121.43915 283.195194 
L 122.175569 287.027359 
L 122.911988 298.523854 
L 123.648406 302.35602 
L 124.384825 298.523854 
L 125.121244 302.35602 
L 125.857663 298.523854 
L 126.594081 279.363029 
L 127.3305 275.530864 
L 128.066919 264.034368 
L 128.803338 271.698698 
L 129.539756 275.530864 
L 131.012594 298.523854 
L 131.749013 298.523854 
L 132.485432 283.195194 
L 133.22185 271.698698 
L 133.958269 267.866533 
L 135.431107 244.873542 
L 136.167525 237.209212 
L 136.903944 248.705707 
L 137.640363 256.370038 
L 138.376782 267.866533 
L 139.1132 271.698698 
L 139.849619 279.363029 
L 141.322457 264.034368 
L 142.058876 260.202203 
L 142.795294 264.034368 
L 143.531713 271.698698 
L 144.268132 283.195194 
L 145.740969 260.202203 
L 146.477388 279.363029 
L 147.213807 271.698698 
L 147.950226 271.698698 
L 148.686645 287.027359 
L 149.423063 294.691689 
L 150.159482 287.027359 
L 150.895901 275.530864 
L 151.63232 271.698698 
L 153.105157 271.698698 
L 153.841576 260.202203 
L 154.577995 256.370038 
L 155.314413 271.698698 
L 156.050832 264.034368 
L 156.787251 264.034368 
L 157.52367 267.866533 
L 158.260089 275.530864 
L 158.996507 287.027359 
L 160.469345 264.034368 
L 161.205764 256.370038 
L 161.942182 241.041377 
L 162.678601 256.370038 
L 163.41502 256.370038 
L 164.151439 252.537873 
L 164.887858 267.866533 
L 165.624276 279.363029 
L 166.360695 283.195194 
L 167.097114 294.691689 
L 167.833533 294.691689 
L 169.30637 287.027359 
L 170.042789 287.027359 
L 170.779208 279.363029 
L 171.515626 275.530864 
L 172.252045 287.027359 
L 172.988464 275.530864 
L 173.724883 275.530864 
L 174.461302 287.027359 
L 175.19772 275.530864 
L 175.934139 271.698698 
L 176.670558 275.530864 
L 177.406977 271.698698 
L 178.143395 264.034368 
L 178.879814 252.537873 
L 179.616233 267.866533 
L 180.352652 279.363029 
L 181.08907 287.027359 
L 181.825489 271.698698 
L 183.298327 271.698698 
L 184.034746 275.530864 
L 184.771164 287.027359 
L 185.507583 283.195194 
L 186.244002 298.523854 
L 186.980421 298.523854 
L 187.716839 294.691689 
L 188.453258 298.523854 
L 189.189677 294.691689 
L 189.926096 287.027359 
L 190.662515 275.530864 
L 191.398933 275.530864 
L 192.135352 283.195194 
L 192.871771 271.698698 
L 193.60819 264.034368 
L 194.344608 252.537873 
L 195.081027 252.537873 
L 196.553865 267.866533 
L 198.026702 290.859524 
L 198.763121 287.027359 
L 199.49954 271.698698 
L 200.235959 264.034368 
L 200.972377 260.202203 
L 201.708796 283.195194 
L 202.445215 290.859524 
L 203.918052 267.866533 
L 204.654471 267.866533 
L 205.39089 275.530864 
L 206.863728 260.202203 
L 207.600146 241.041377 
L 208.336565 241.041377 
L 209.809403 248.705707 
L 210.545821 267.866533 
L 211.28224 275.530864 
L 212.018659 279.363029 
L 212.755078 287.027359 
L 213.491496 290.859524 
L 214.227915 287.027359 
L 214.964334 290.859524 
L 215.700753 290.859524 
L 216.437172 294.691689 
L 217.17359 294.691689 
L 217.910009 298.523854 
L 218.646428 287.027359 
L 219.382847 283.195194 
L 220.119265 290.859524 
L 220.855684 275.530864 
L 221.592103 271.698698 
L 222.328522 279.363029 
L 223.801359 279.363029 
L 224.537778 294.691689 
L 226.010616 302.35602 
L 226.747034 298.523854 
L 227.483453 302.35602 
L 228.219872 302.35602 
L 229.692709 279.363029 
L 230.429128 271.698698 
L 231.165547 267.866533 
L 231.901966 279.363029 
L 232.638385 264.034368 
L 233.374803 256.370038 
L 234.847641 264.034368 
L 236.320478 279.363029 
L 237.056897 271.698698 
L 237.793316 260.202203 
L 238.529735 275.530864 
L 239.266153 287.027359 
L 240.002572 294.691689 
L 241.47541 294.691689 
L 242.948247 310.02035 
L 243.684666 313.852515 
L 244.421085 325.349011 
L 245.157504 325.349011 
L 245.893922 321.516845 
L 246.630341 321.516845 
L 248.103179 298.523854 
L 248.839598 302.35602 
L 249.576016 298.523854 
L 250.312435 306.188185 
L 251.048854 302.35602 
L 251.785273 290.859524 
L 252.521691 283.195194 
L 253.25811 290.859524 
L 253.994529 287.027359 
L 254.730948 279.363029 
L 255.467366 267.866533 
L 256.203785 267.866533 
L 256.940204 271.698698 
L 257.676623 267.866533 
L 259.14946 275.530864 
L 259.885879 287.027359 
L 260.622298 294.691689 
L 261.358717 298.523854 
L 262.095135 287.027359 
L 262.831554 290.859524 
L 263.567973 306.188185 
L 264.304392 302.35602 
L 265.040811 290.859524 
L 265.777229 287.027359 
L 266.513648 290.859524 
L 267.250067 290.859524 
L 267.986486 302.35602 
L 268.722904 283.195194 
L 269.459323 275.530864 
L 270.195742 271.698698 
L 270.932161 256.370038 
L 271.668579 244.873542 
L 272.404998 237.209212 
L 273.141417 237.209212 
L 273.877836 256.370038 
L 274.614255 267.866533 
L 276.087092 275.530864 
L 276.823511 283.195194 
L 277.55993 287.027359 
L 278.296348 283.195194 
L 279.032767 271.698698 
L 279.769186 252.537873 
L 280.505605 252.537873 
L 281.242023 264.034368 
L 282.714861 264.034368 
L 285.660536 294.691689 
L 286.396955 306.188185 
L 287.869792 290.859524 
L 288.606211 279.363029 
L 289.34263 275.530864 
L 290.079049 287.027359 
L 291.551886 271.698698 
L 293.024724 279.363029 
L 293.761143 275.530864 
L 294.497561 283.195194 
L 295.23398 279.363029 
L 295.970399 279.363029 
L 296.706818 283.195194 
L 297.443236 294.691689 
L 298.179655 302.35602 
L 299.652493 287.027359 
L 300.388912 287.027359 
L 301.861749 302.35602 
L 302.598168 287.027359 
L 305.543843 256.370038 
L 307.016681 279.363029 
L 307.753099 287.027359 
L 308.489518 290.859524 
L 309.225937 287.027359 
L 309.962356 275.530864 
L 310.698774 271.698698 
L 312.171612 279.363029 
L 312.908031 290.859524 
L 313.644449 283.195194 
L 315.117287 283.195194 
L 315.853706 290.859524 
L 316.590125 294.691689 
L 317.326543 302.35602 
L 318.062962 298.523854 
L 318.799381 306.188185 
L 319.5358 290.859524 
L 321.008637 290.859524 
L 322.481475 275.530864 
L 323.954312 290.859524 
L 324.690731 310.02035 
L 325.42715 306.188185 
L 326.163569 294.691689 
L 326.899987 287.027359 
L 327.636406 275.530864 
L 328.372825 275.530864 
L 329.109244 279.363029 
L 329.845662 275.530864 
L 331.3185 244.873542 
L 332.791338 267.866533 
L 333.527756 287.027359 
L 335.000594 287.027359 
L 335.737013 298.523854 
L 336.473431 306.188185 
L 337.20985 310.02035 
L 337.946269 310.02035 
L 338.682688 306.188185 
L 339.419106 306.188185 
L 340.155525 294.691689 
L 340.891944 290.859524 
L 341.628363 294.691689 
L 342.364782 294.691689 
L 343.1012 298.523854 
L 344.574038 283.195194 
L 345.310457 294.691689 
L 346.046875 283.195194 
L 346.783294 275.530864 
L 347.519713 271.698698 
L 348.256132 279.363029 
L 348.992551 275.530864 
L 349.728969 287.027359 
L 351.201807 271.698698 
L 351.938226 260.202203 
L 352.674644 267.866533 
L 353.411063 267.866533 
L 354.147482 271.698698 
L 354.883901 271.698698 
L 355.620319 279.363029 
L 356.356738 279.363029 
L 357.093157 256.370038 
L 357.829576 260.202203 
L 358.565995 271.698698 
L 360.775251 283.195194 
L 361.51167 290.859524 
L 362.248088 283.195194 
L 362.984507 287.027359 
L 363.720926 298.523854 
L 364.457345 306.188185 
L 365.193763 306.188185 
L 365.930182 298.523854 
L 366.666601 294.691689 
L 367.40302 294.691689 
L 368.139439 298.523854 
L 368.875857 298.523854 
L 369.612276 287.027359 
L 370.348695 279.363029 
L 371.085114 260.202203 
L 371.821532 260.202203 
L 372.557951 271.698698 
L 373.29437 271.698698 
L 374.030789 279.363029 
L 374.767208 275.530864 
L 375.503626 260.202203 
L 376.240045 252.537873 
L 376.976464 237.209212 
L 377.712883 237.209212 
L 378.449301 225.712717 
L 379.18572 237.209212 
L 379.922139 244.873542 
L 380.658558 260.202203 
L 381.394976 267.866533 
L 382.131395 290.859524 
L 382.867814 298.523854 
L 384.340652 298.523854 
L 385.07707 302.35602 
L 386.549908 287.027359 
L 387.286327 283.195194 
L 388.022745 283.195194 
L 388.759164 290.859524 
L 389.495583 287.027359 
L 390.232002 275.530864 
L 390.968421 283.195194 
L 391.704839 287.027359 
L 392.441258 275.530864 
L 393.914096 283.195194 
L 394.650514 294.691689 
L 395.386933 294.691689 
L 396.859771 302.35602 
L 397.596189 313.852515 
L 398.332608 310.02035 
L 399.069027 294.691689 
L 400.541865 287.027359 
L 401.278283 290.859524 
L 402.014702 279.363029 
L 402.751121 283.195194 
L 403.48754 290.859524 
L 404.223958 294.691689 
L 404.960377 290.859524 
L 405.696796 283.195194 
L 406.433215 290.859524 
L 408.642471 302.35602 
L 409.37889 302.35602 
L 410.851727 310.02035 
L 411.588146 302.35602 
L 412.324565 290.859524 
L 414.533821 302.35602 
L 416.006659 287.027359 
L 416.743078 287.027359 
L 417.479496 283.195194 
L 418.215915 290.859524 
L 418.952334 294.691689 
L 419.688753 279.363029 
L 420.425171 275.530864 
L 421.16159 283.195194 
L 421.898009 283.195194 
L 422.634428 290.859524 
L 423.370846 287.027359 
L 424.107265 275.530864 
L 424.843684 267.866533 
L 425.580103 252.537873 
L 426.316522 267.866533 
L 427.05294 287.027359 
L 428.525778 279.363029 
L 429.262197 283.195194 
L 429.998615 283.195194 
L 430.735034 290.859524 
L 431.471453 294.691689 
L 432.207872 294.691689 
L 432.944291 290.859524 
L 433.680709 294.691689 
L 434.417128 290.859524 
L 435.153547 279.363029 
L 435.889966 287.027359 
L 436.626384 290.859524 
L 437.362803 290.859524 
L 438.099222 287.027359 
L 438.835641 275.530864 
L 439.572059 283.195194 
L 440.308478 283.195194 
L 441.044897 267.866533 
L 442.517735 275.530864 
L 443.254153 271.698698 
L 443.990572 256.370038 
L 444.726991 248.705707 
L 445.46341 233.377047 
L 446.199828 225.712717 
L 446.936247 237.209212 
L 447.672666 244.873542 
L 448.409085 264.034368 
L 451.35476 279.363029 
L 452.091179 267.866533 
L 453.564016 252.537873 
L 454.300435 252.537873 
L 455.036854 260.202203 
L 455.773272 271.698698 
L 456.509691 279.363029 
L 457.24611 275.530864 
L 457.982529 283.195194 
L 458.718948 294.691689 
L 459.455366 290.859524 
L 460.191785 279.363029 
L 460.928204 271.698698 
L 461.664623 256.370038 
L 462.401041 264.034368 
L 463.13746 275.530864 
L 463.873879 283.195194 
L 464.610298 283.195194 
L 465.346716 287.027359 
L 466.083135 283.195194 
L 466.819554 275.530864 
L 467.555973 279.363029 
L 468.292392 279.363029 
L 469.02881 271.698698 
L 469.765229 287.027359 
L 470.501648 283.195194 
L 471.238067 287.027359 
L 472.710904 302.35602 
L 474.183742 271.698698 
L 474.920161 264.034368 
L 475.656579 275.530864 
L 476.392998 279.363029 
L 477.129417 275.530864 
L 478.602254 275.530864 
L 479.338673 290.859524 
L 480.075092 279.363029 
L 480.811511 279.363029 
L 481.547929 287.027359 
L 483.020767 287.027359 
L 484.493605 271.698698 
L 485.230023 287.027359 
L 485.966442 298.523854 
L 486.702861 313.852515 
L 487.43928 310.02035 
L 489.648536 287.027359 
L 490.384955 290.859524 
L 491.121374 290.859524 
L 491.857792 302.35602 
L 492.594211 306.188185 
L 493.33063 302.35602 
L 494.067049 290.859524 
L 494.803467 290.859524 
L 495.539886 294.691689 
L 496.276305 283.195194 
L 497.012724 275.530864 
L 497.749142 264.034368 
L 498.485561 275.530864 
L 499.22198 267.866533 
L 499.958399 256.370038 
L 500.694818 267.866533 
L 500.694818 267.866533 
" style="fill:none;stroke:#ff7f0e;stroke-linecap:square;stroke-width:1.5;"/>
   </g>
   <g id="line2d_18">
    <path clip-path="url(#pe5e8ceba15)" d="M 109.707999 336.845506 
L 110.444418 325.349011 
L 111.180836 310.02035 
L 111.917255 298.523854 
L 112.653674 302.35602 
L 114.126512 294.691689 
L 114.86293 275.530864 
L 116.335768 290.859524 
L 117.072187 294.691689 
L 117.808605 290.859524 
L 118.545024 279.363029 
L 119.281443 271.698698 
L 120.017862 279.363029 
L 120.754281 279.363029 
L 121.490699 287.027359 
L 122.227118 283.195194 
L 122.963537 271.698698 
L 123.699956 252.537873 
L 124.436374 252.537873 
L 125.172793 260.202203 
L 125.909212 264.034368 
L 126.645631 275.530864 
L 127.382049 275.530864 
L 128.118468 290.859524 
L 128.854887 294.691689 
L 129.591306 294.691689 
L 130.327725 283.195194 
L 131.064143 290.859524 
L 131.800562 290.859524 
L 132.536981 287.027359 
L 134.746237 298.523854 
L 135.482656 287.027359 
L 136.219075 302.35602 
L 136.955493 287.027359 
L 137.691912 279.363029 
L 138.428331 260.202203 
L 139.16475 267.866533 
L 140.637587 290.859524 
L 142.110425 283.195194 
L 142.846844 283.195194 
L 144.319681 267.866533 
L 145.0561 267.866533 
L 145.792519 275.530864 
L 146.528938 267.866533 
L 147.265356 256.370038 
L 148.738194 241.041377 
L 149.474613 241.041377 
L 150.211031 252.537873 
L 150.94745 267.866533 
L 151.683869 275.530864 
L 153.156706 275.530864 
L 153.893125 287.027359 
L 154.629544 283.195194 
L 155.365963 294.691689 
L 156.102382 302.35602 
L 156.8388 294.691689 
L 157.575219 283.195194 
L 158.311638 287.027359 
L 159.048057 294.691689 
L 159.784475 313.852515 
L 160.520894 310.02035 
L 161.257313 302.35602 
L 161.993732 290.859524 
L 162.730151 283.195194 
L 163.466569 287.027359 
L 164.202988 298.523854 
L 164.939407 302.35602 
L 165.675826 283.195194 
L 166.412244 279.363029 
L 167.148663 290.859524 
L 167.885082 287.027359 
L 169.357919 287.027359 
L 170.094338 283.195194 
L 170.830757 290.859524 
L 171.567176 294.691689 
L 173.040013 271.698698 
L 174.512851 256.370038 
L 175.24927 271.698698 
L 176.722107 271.698698 
L 177.458526 267.866533 
L 178.194945 260.202203 
L 178.931363 275.530864 
L 179.667782 267.866533 
L 181.14062 283.195194 
L 181.877039 294.691689 
L 182.613457 294.691689 
L 184.086295 287.027359 
L 184.822714 275.530864 
L 185.559132 290.859524 
L 187.03197 267.866533 
L 187.768389 279.363029 
L 188.504808 279.363029 
L 189.241226 283.195194 
L 189.977645 290.859524 
L 190.714064 302.35602 
L 191.450483 310.02035 
L 192.186901 302.35602 
L 192.92332 287.027359 
L 193.659739 287.027359 
L 194.396158 294.691689 
L 195.132576 290.859524 
L 196.605414 298.523854 
L 197.341833 298.523854 
L 198.078252 287.027359 
L 199.551089 310.02035 
L 201.023927 294.691689 
L 201.760345 290.859524 
L 203.233183 306.188185 
L 203.969602 294.691689 
L 204.706021 290.859524 
L 205.442439 294.691689 
L 206.915277 279.363029 
L 207.651696 287.027359 
L 209.124533 287.027359 
L 209.860952 283.195194 
L 210.597371 294.691689 
L 211.333789 294.691689 
L 212.070208 298.523854 
L 212.806627 294.691689 
L 213.543046 298.523854 
L 214.279465 290.859524 
L 215.015883 279.363029 
L 215.752302 283.195194 
L 216.488721 283.195194 
L 218.697977 294.691689 
L 219.434396 294.691689 
L 220.170815 283.195194 
L 220.907233 290.859524 
L 221.643652 287.027359 
L 222.380071 267.866533 
L 223.11649 267.866533 
L 223.852909 287.027359 
L 224.589327 283.195194 
L 225.325746 287.027359 
L 226.062165 287.027359 
L 226.798584 294.691689 
L 227.535002 283.195194 
L 228.271421 283.195194 
L 229.00784 290.859524 
L 229.744259 302.35602 
L 230.480678 294.691689 
L 231.217096 302.35602 
L 231.953515 298.523854 
L 233.426353 298.523854 
L 234.162771 294.691689 
L 234.89919 294.691689 
L 235.635609 287.027359 
L 236.372028 275.530864 
L 237.108446 275.530864 
L 237.844865 283.195194 
L 238.581284 294.691689 
L 239.317703 287.027359 
L 240.054122 283.195194 
L 241.526959 290.859524 
L 242.263378 298.523854 
L 242.999797 287.027359 
L 243.736215 294.691689 
L 244.472634 298.523854 
L 245.209053 298.523854 
L 245.945472 302.35602 
L 246.681891 302.35602 
L 247.418309 294.691689 
L 248.154728 302.35602 
L 249.627566 302.35602 
L 250.363984 290.859524 
L 251.100403 283.195194 
L 251.836822 287.027359 
L 252.573241 287.027359 
L 253.309659 267.866533 
L 254.046078 267.866533 
L 254.782497 260.202203 
L 255.518916 248.705707 
L 256.255335 252.537873 
L 256.991753 260.202203 
L 257.728172 256.370038 
L 258.464591 264.034368 
L 259.20101 267.866533 
L 259.937428 283.195194 
L 260.673847 275.530864 
L 261.410266 264.034368 
L 262.883104 248.705707 
L 263.619522 233.377047 
L 264.355941 241.041377 
L 265.09236 252.537873 
L 265.828779 248.705707 
L 266.565197 260.202203 
L 267.301616 260.202203 
L 268.774454 283.195194 
L 269.510872 283.195194 
L 270.247291 279.363029 
L 270.98371 264.034368 
L 271.720129 279.363029 
L 272.456548 287.027359 
L 273.192966 298.523854 
L 273.929385 302.35602 
L 274.665804 287.027359 
L 275.402223 290.859524 
L 276.138641 290.859524 
L 276.87506 283.195194 
L 277.611479 267.866533 
L 278.347898 264.034368 
L 279.084316 256.370038 
L 279.820735 264.034368 
L 280.557154 267.866533 
L 281.293573 275.530864 
L 282.029992 279.363029 
L 282.76641 298.523854 
L 283.502829 298.523854 
L 284.239248 287.027359 
L 284.975667 279.363029 
L 286.448504 256.370038 
L 287.184923 248.705707 
L 287.921342 244.873542 
L 288.657761 260.202203 
L 290.130598 244.873542 
L 290.867017 233.377047 
L 291.603436 252.537873 
L 292.339854 248.705707 
L 293.076273 260.202203 
L 293.812692 279.363029 
L 294.549111 283.195194 
L 295.285529 279.363029 
L 296.021948 279.363029 
L 296.758367 283.195194 
L 297.494786 290.859524 
L 298.967623 267.866533 
L 299.704042 264.034368 
L 300.440461 252.537873 
L 301.17688 248.705707 
L 301.913298 264.034368 
L 302.649717 271.698698 
L 303.386136 275.530864 
L 304.122555 264.034368 
L 304.858974 256.370038 
L 305.595392 256.370038 
L 307.06823 279.363029 
L 307.804649 275.530864 
L 308.541067 260.202203 
L 309.277486 267.866533 
L 310.750324 290.859524 
L 311.486742 275.530864 
L 312.223161 271.698698 
L 312.95958 264.034368 
L 313.695999 283.195194 
L 314.432418 287.027359 
L 315.168836 283.195194 
L 315.905255 271.698698 
L 316.641674 275.530864 
L 317.378093 283.195194 
L 318.114511 283.195194 
L 318.85093 294.691689 
L 319.587349 302.35602 
L 321.796605 290.859524 
L 322.533024 283.195194 
L 323.269443 267.866533 
L 324.005862 260.202203 
L 324.74228 271.698698 
L 326.215118 287.027359 
L 326.951537 283.195194 
L 327.687955 290.859524 
L 328.424374 275.530864 
L 329.160793 271.698698 
L 329.897212 287.027359 
L 330.633631 287.027359 
L 332.842887 298.523854 
L 333.579306 287.027359 
L 334.315724 290.859524 
L 335.052143 290.859524 
L 335.788562 279.363029 
L 336.524981 287.027359 
L 337.997818 271.698698 
L 338.734237 260.202203 
L 339.470656 252.537873 
L 340.207075 264.034368 
L 341.679912 279.363029 
L 343.15275 287.027359 
L 343.889168 294.691689 
L 344.625587 298.523854 
L 345.362006 287.027359 
L 346.098425 290.859524 
L 346.834844 298.523854 
L 347.571262 317.68468 
L 349.0441 302.35602 
L 349.780519 306.188185 
L 351.253356 290.859524 
L 351.989775 302.35602 
L 352.726194 287.027359 
L 353.462612 279.363029 
L 354.93545 279.363029 
L 355.671869 287.027359 
L 356.408288 283.195194 
L 357.144706 290.859524 
L 357.881125 290.859524 
L 358.617544 294.691689 
L 360.090381 294.691689 
L 360.8268 290.859524 
L 361.563219 279.363029 
L 362.299638 283.195194 
L 363.036056 302.35602 
L 363.772475 298.523854 
L 364.508894 287.027359 
L 365.245313 279.363029 
L 365.981732 290.859524 
L 366.71815 294.691689 
L 367.454569 294.691689 
L 368.190988 298.523854 
L 368.927407 298.523854 
L 369.663825 287.027359 
L 370.400244 283.195194 
L 371.136663 287.027359 
L 371.873082 279.363029 
L 372.609501 264.034368 
L 374.818757 275.530864 
L 375.555176 283.195194 
L 376.291594 283.195194 
L 377.764432 298.523854 
L 378.500851 313.852515 
L 379.237269 313.852515 
L 379.973688 310.02035 
L 380.710107 313.852515 
L 381.446526 306.188185 
L 382.182945 306.188185 
L 382.919363 302.35602 
L 383.655782 287.027359 
L 384.392201 279.363029 
L 385.12862 264.034368 
L 385.865038 271.698698 
L 386.601457 283.195194 
L 388.074295 283.195194 
L 388.810714 275.530864 
L 389.547132 275.530864 
L 390.283551 279.363029 
L 391.756389 264.034368 
L 392.492807 275.530864 
L 393.229226 283.195194 
L 393.965645 287.027359 
L 394.702064 279.363029 
L 395.438482 267.866533 
L 396.174901 248.705707 
L 396.91132 248.705707 
L 397.647739 256.370038 
L 398.384158 260.202203 
L 399.120576 279.363029 
L 399.856995 275.530864 
L 400.593414 275.530864 
L 401.329833 279.363029 
L 402.066251 290.859524 
L 402.80267 298.523854 
L 404.275508 306.188185 
L 405.011927 306.188185 
L 406.484764 313.852515 
L 407.221183 306.188185 
L 407.957602 294.691689 
L 408.69402 275.530864 
L 409.430439 271.698698 
L 410.166858 260.202203 
L 410.903277 279.363029 
L 411.639695 283.195194 
L 412.376114 283.195194 
L 413.112533 275.530864 
L 413.848952 264.034368 
L 414.585371 248.705707 
L 415.321789 260.202203 
L 416.058208 267.866533 
L 416.794627 271.698698 
L 417.531046 271.698698 
L 418.267464 267.866533 
L 419.003883 256.370038 
L 419.740302 260.202203 
L 420.476721 271.698698 
L 421.213139 279.363029 
L 421.949558 275.530864 
L 422.685977 256.370038 
L 423.422396 267.866533 
L 424.158815 275.530864 
L 424.895233 271.698698 
L 425.631652 283.195194 
L 426.368071 279.363029 
L 427.10449 283.195194 
L 427.840908 283.195194 
L 428.577327 306.188185 
L 429.313746 317.68468 
L 430.050165 313.852515 
L 430.786584 313.852515 
L 431.523002 298.523854 
L 432.259421 294.691689 
L 432.99584 302.35602 
L 433.732259 306.188185 
L 434.468677 306.188185 
L 435.205096 313.852515 
L 436.677934 290.859524 
L 437.414352 275.530864 
L 438.150771 279.363029 
L 438.88719 287.027359 
L 439.623609 267.866533 
L 440.360028 267.866533 
L 441.096446 283.195194 
L 442.569284 260.202203 
L 443.305703 260.202203 
L 444.042121 271.698698 
L 444.77854 264.034368 
L 445.514959 275.530864 
L 446.987797 275.530864 
L 447.724215 271.698698 
L 448.460634 260.202203 
L 449.197053 267.866533 
L 449.933472 271.698698 
L 450.66989 256.370038 
L 451.406309 252.537873 
L 452.142728 267.866533 
L 452.879147 279.363029 
L 453.615565 294.691689 
L 454.351984 306.188185 
L 455.088403 302.35602 
L 456.561241 287.027359 
L 457.297659 271.698698 
L 458.034078 267.866533 
L 458.770497 252.537873 
L 459.506916 248.705707 
L 460.243334 233.377047 
L 460.979753 256.370038 
L 461.716172 275.530864 
L 462.452591 287.027359 
L 463.189009 290.859524 
L 463.925428 298.523854 
L 465.398266 298.523854 
L 466.134685 294.691689 
L 466.871103 302.35602 
L 467.607522 325.349011 
L 469.08036 310.02035 
L 469.816778 313.852515 
L 470.553197 306.188185 
L 471.289616 294.691689 
L 472.026035 287.027359 
L 473.498872 264.034368 
L 474.97171 271.698698 
L 475.708129 260.202203 
L 476.444547 267.866533 
L 477.180966 279.363029 
L 478.653804 279.363029 
L 479.390222 267.866533 
L 480.126641 279.363029 
L 480.86306 275.530864 
L 481.599479 267.866533 
L 482.335898 271.698698 
L 483.072316 271.698698 
L 483.808735 279.363029 
L 484.545154 283.195194 
L 485.281573 271.698698 
L 486.017991 267.866533 
L 486.75441 279.363029 
L 487.490829 283.195194 
L 488.227248 279.363029 
L 489.700085 264.034368 
L 490.436504 271.698698 
L 491.172923 275.530864 
L 491.909342 290.859524 
L 492.64576 271.698698 
L 493.382179 267.866533 
L 494.118598 283.195194 
L 496.327854 306.188185 
L 497.064273 302.35602 
L 497.800692 306.188185 
L 498.537111 290.859524 
L 499.273529 294.691689 
L 500.009948 294.691689 
L 500.746367 283.195194 
L 501.482786 275.530864 
L 502.219204 264.034368 
L 502.955623 275.530864 
L 504.428461 290.859524 
L 505.164879 294.691689 
L 505.901298 294.691689 
L 506.637717 306.188185 
L 507.374136 306.188185 
L 507.374136 306.188185 
" style="fill:none;stroke:#2ca02c;stroke-linecap:square;stroke-width:1.5;"/>
   </g>
   <g id="line2d_19">
    <path clip-path="url(#pe5e8ceba15)" d="M 106.813873 313.852515 
L 107.550292 298.523854 
L 109.023129 283.195194 
L 109.759548 267.866533 
L 110.495967 264.034368 
L 111.968805 264.034368 
L 112.705223 279.363029 
L 114.178061 279.363029 
L 114.91448 287.027359 
L 116.387317 294.691689 
L 117.123736 275.530864 
L 117.860155 279.363029 
L 118.596574 310.02035 
L 119.332992 298.523854 
L 120.069411 279.363029 
L 120.80583 279.363029 
L 121.542249 256.370038 
L 122.278667 256.370038 
L 123.015086 244.873542 
L 123.751505 260.202203 
L 124.487924 264.034368 
L 125.224342 271.698698 
L 125.960761 271.698698 
L 126.69718 279.363029 
L 127.433599 279.363029 
L 128.170018 267.866533 
L 128.906436 248.705707 
L 129.642855 248.705707 
L 130.379274 233.377047 
L 131.115693 225.712717 
L 132.58853 256.370038 
L 133.324949 264.034368 
L 134.061368 256.370038 
L 134.797786 260.202203 
L 135.534205 271.698698 
L 136.270624 260.202203 
L 137.007043 275.530864 
L 138.47988 283.195194 
L 139.952718 267.866533 
L 140.689137 256.370038 
L 141.425555 271.698698 
L 142.161974 279.363029 
L 142.898393 275.530864 
L 143.634812 283.195194 
L 144.371231 287.027359 
L 145.107649 287.027359 
L 145.844068 294.691689 
L 146.580487 287.027359 
L 147.316906 298.523854 
L 148.053324 313.852515 
L 148.789743 317.68468 
L 149.526162 302.35602 
L 150.262581 294.691689 
L 150.998999 302.35602 
L 151.735418 302.35602 
L 153.208256 294.691689 
L 153.944675 283.195194 
L 154.681093 275.530864 
L 155.417512 260.202203 
L 156.153931 252.537873 
L 156.89035 252.537873 
L 157.626768 260.202203 
L 158.363187 256.370038 
L 159.099606 248.705707 
L 159.836025 237.209212 
L 160.572444 241.041377 
L 161.308862 256.370038 
L 162.045281 275.530864 
L 162.7817 267.866533 
L 163.518119 279.363029 
L 164.254537 279.363029 
L 164.990956 267.866533 
L 166.463794 275.530864 
L 167.200212 264.034368 
L 167.936631 264.034368 
L 168.67305 267.866533 
L 169.409469 267.866533 
L 170.145888 271.698698 
L 171.618725 256.370038 
L 172.355144 264.034368 
L 173.091563 287.027359 
L 173.827981 283.195194 
L 174.5644 275.530864 
L 175.300819 260.202203 
L 176.037238 264.034368 
L 176.773656 264.034368 
L 177.510075 275.530864 
L 178.246494 283.195194 
L 180.45575 248.705707 
L 181.192169 244.873542 
L 181.928588 260.202203 
L 184.137844 271.698698 
L 184.874263 283.195194 
L 185.610682 275.530864 
L 186.347101 275.530864 
L 187.083519 279.363029 
L 187.819938 275.530864 
L 188.556357 260.202203 
L 189.292776 248.705707 
L 190.765613 233.377047 
L 191.502032 237.209212 
L 192.238451 248.705707 
L 192.974869 264.034368 
L 194.447707 264.034368 
L 195.184126 271.698698 
L 195.920545 260.202203 
L 196.656963 252.537873 
L 197.393382 252.537873 
L 198.129801 264.034368 
L 198.86622 260.202203 
L 199.602638 248.705707 
L 200.339057 271.698698 
L 201.811895 256.370038 
L 202.548314 252.537873 
L 203.284732 267.866533 
L 204.021151 279.363029 
L 204.75757 275.530864 
L 205.493989 260.202203 
L 206.230407 267.866533 
L 206.966826 279.363029 
L 207.703245 287.027359 
L 208.439664 287.027359 
L 209.176082 283.195194 
L 209.912501 283.195194 
L 210.64892 271.698698 
L 211.385339 271.698698 
L 212.121758 275.530864 
L 212.858176 275.530864 
L 213.594595 287.027359 
L 214.331014 290.859524 
L 215.067433 290.859524 
L 215.803851 275.530864 
L 216.54027 267.866533 
L 217.276689 256.370038 
L 218.013108 248.705707 
L 218.749526 267.866533 
L 219.485945 260.202203 
L 220.222364 256.370038 
L 220.958783 267.866533 
L 221.695202 267.866533 
L 222.43162 275.530864 
L 223.168039 275.530864 
L 223.904458 267.866533 
L 224.640877 267.866533 
L 225.377295 275.530864 
L 226.113714 271.698698 
L 226.850133 283.195194 
L 227.586552 271.698698 
L 228.322971 275.530864 
L 229.059389 283.195194 
L 229.795808 298.523854 
L 230.532227 290.859524 
L 231.268646 287.027359 
L 232.005064 294.691689 
L 234.214321 294.691689 
L 235.687158 287.027359 
L 237.159996 294.691689 
L 237.896415 302.35602 
L 238.632833 287.027359 
L 239.369252 294.691689 
L 240.105671 290.859524 
L 240.84209 279.363029 
L 241.578508 275.530864 
L 243.787765 241.041377 
L 244.524184 244.873542 
L 245.260602 256.370038 
L 245.997021 264.034368 
L 247.469859 287.027359 
L 248.206277 275.530864 
L 248.942696 260.202203 
L 249.679115 256.370038 
L 250.415534 241.041377 
L 251.151952 256.370038 
L 251.888371 279.363029 
L 252.62479 287.027359 
L 254.834046 298.523854 
L 255.570465 306.188185 
L 257.043303 306.188185 
L 257.779721 298.523854 
L 258.51614 298.523854 
L 259.252559 294.691689 
L 259.988978 283.195194 
L 261.461815 298.523854 
L 262.198234 302.35602 
L 262.934653 313.852515 
L 264.40749 290.859524 
L 265.143909 283.195194 
L 265.880328 294.691689 
L 266.616747 279.363029 
L 267.353165 279.363029 
L 268.089584 267.866533 
L 269.562422 275.530864 
L 270.298841 271.698698 
L 271.035259 287.027359 
L 272.508097 302.35602 
L 273.244516 298.523854 
L 273.980934 290.859524 
L 274.717353 275.530864 
L 275.453772 271.698698 
L 276.926609 287.027359 
L 277.663028 287.027359 
L 278.399447 290.859524 
L 279.135866 298.523854 
L 279.872285 302.35602 
L 281.345122 302.35602 
L 282.081541 298.523854 
L 282.81796 279.363029 
L 283.554378 271.698698 
L 284.290797 260.202203 
L 285.027216 264.034368 
L 285.763635 275.530864 
L 286.500054 264.034368 
L 287.236472 271.698698 
L 287.972891 275.530864 
L 288.70931 267.866533 
L 289.445729 283.195194 
L 290.182147 275.530864 
L 290.918566 290.859524 
L 291.654985 283.195194 
L 292.391404 290.859524 
L 293.127822 287.027359 
L 293.864241 287.027359 
L 294.60066 290.859524 
L 295.337079 287.027359 
L 296.073498 287.027359 
L 296.809916 283.195194 
L 298.282754 260.202203 
L 299.019173 267.866533 
L 300.49201 290.859524 
L 301.964848 267.866533 
L 302.701267 275.530864 
L 303.437685 275.530864 
L 304.174104 287.027359 
L 304.910523 294.691689 
L 305.646942 294.691689 
L 306.38336 287.027359 
L 307.119779 271.698698 
L 308.592617 279.363029 
L 309.329035 275.530864 
L 310.065454 264.034368 
L 310.801873 260.202203 
L 311.538292 267.866533 
L 312.274711 267.866533 
L 313.011129 256.370038 
L 313.747548 252.537873 
L 314.483967 252.537873 
L 315.220386 256.370038 
L 315.956804 275.530864 
L 317.429642 267.866533 
L 318.166061 279.363029 
L 318.902479 275.530864 
L 319.638898 290.859524 
L 320.375317 290.859524 
L 321.848155 283.195194 
L 322.584573 287.027359 
L 324.057411 279.363029 
L 325.530248 256.370038 
L 326.266667 252.537873 
L 327.003086 271.698698 
L 327.739505 260.202203 
L 328.475924 271.698698 
L 329.948761 271.698698 
L 330.68518 290.859524 
L 331.421599 294.691689 
L 332.158017 283.195194 
L 333.630855 267.866533 
L 334.367274 248.705707 
L 335.103692 244.873542 
L 336.57653 221.880551 
L 337.312949 233.377047 
L 338.049368 237.209212 
L 338.785786 252.537873 
L 339.522205 256.370038 
L 340.258624 271.698698 
L 340.995043 267.866533 
L 341.731461 252.537873 
L 342.46788 244.873542 
L 343.204299 233.377047 
L 343.940718 248.705707 
L 344.677137 256.370038 
L 345.413555 244.873542 
L 346.149974 264.034368 
L 347.622812 264.034368 
L 348.35923 275.530864 
L 349.095649 267.866533 
L 349.832068 256.370038 
L 351.304905 271.698698 
L 352.041324 287.027359 
L 352.777743 290.859524 
L 353.514162 290.859524 
L 354.986999 283.195194 
L 355.723418 264.034368 
L 356.459837 267.866533 
L 357.196256 275.530864 
L 357.932674 267.866533 
L 358.669093 252.537873 
L 359.405512 260.202203 
L 360.141931 264.034368 
L 360.878349 271.698698 
L 361.614768 287.027359 
L 362.351187 298.523854 
L 363.087606 287.027359 
L 363.824025 290.859524 
L 364.560443 290.859524 
L 365.296862 283.195194 
L 366.033281 294.691689 
L 366.7697 283.195194 
L 368.242537 267.866533 
L 368.978956 256.370038 
L 371.188212 279.363029 
L 372.66105 287.027359 
L 374.133887 264.034368 
L 375.606725 271.698698 
L 376.343144 279.363029 
L 377.079562 283.195194 
L 377.815981 279.363029 
L 378.5524 290.859524 
L 379.288819 298.523854 
L 380.025238 294.691689 
L 380.761656 298.523854 
L 381.498075 294.691689 
L 382.234494 283.195194 
L 382.970913 279.363029 
L 385.180169 290.859524 
L 385.916588 290.859524 
L 386.653007 298.523854 
L 387.389425 298.523854 
L 388.125844 294.691689 
L 389.598682 302.35602 
L 390.3351 302.35602 
L 391.807938 287.027359 
L 393.280775 256.370038 
L 394.017194 252.537873 
L 394.753613 252.537873 
L 395.490032 271.698698 
L 396.226451 279.363029 
L 396.962869 275.530864 
L 397.699288 279.363029 
L 398.435707 279.363029 
L 399.172126 264.034368 
L 399.908544 279.363029 
L 400.644963 271.698698 
L 401.381382 267.866533 
L 402.117801 256.370038 
L 402.85422 248.705707 
L 403.590638 244.873542 
L 404.327057 252.537873 
L 405.063476 252.537873 
L 405.799895 244.873542 
L 406.536313 225.712717 
L 407.272732 221.880551 
L 408.009151 221.880551 
L 409.481988 244.873542 
L 410.218407 260.202203 
L 410.954826 248.705707 
L 411.691245 256.370038 
L 412.427664 260.202203 
L 413.900501 283.195194 
L 414.63692 287.027359 
L 415.373339 287.027359 
L 416.109757 294.691689 
L 416.846176 294.691689 
L 417.582595 290.859524 
L 418.319014 298.523854 
L 419.055432 298.523854 
L 419.791851 283.195194 
L 420.52827 275.530864 
L 421.264689 256.370038 
L 422.001108 260.202203 
L 422.737526 267.866533 
L 423.473945 267.866533 
L 424.210364 271.698698 
L 424.946783 279.363029 
L 425.683201 290.859524 
L 426.41962 287.027359 
L 427.156039 290.859524 
L 427.892458 290.859524 
L 428.628877 287.027359 
L 429.365295 290.859524 
L 430.101714 290.859524 
L 431.574552 298.523854 
L 432.31097 294.691689 
L 433.047389 287.027359 
L 433.783808 271.698698 
L 434.520227 267.866533 
L 435.256645 283.195194 
L 435.993064 267.866533 
L 436.729483 271.698698 
L 437.465902 279.363029 
L 438.938739 264.034368 
L 439.675158 271.698698 
L 440.411577 275.530864 
L 441.147996 287.027359 
L 441.884414 290.859524 
L 442.620833 290.859524 
L 443.357252 287.027359 
L 444.093671 294.691689 
L 444.83009 306.188185 
L 445.566508 313.852515 
L 446.302927 310.02035 
L 447.039346 302.35602 
L 447.775765 302.35602 
L 448.512183 306.188185 
L 449.248602 290.859524 
L 449.985021 283.195194 
L 450.72144 290.859524 
L 451.457858 290.859524 
L 452.930696 267.866533 
L 453.667115 260.202203 
L 455.139952 267.866533 
L 455.876371 279.363029 
L 457.349209 294.691689 
L 458.085627 287.027359 
L 458.822046 275.530864 
L 460.294884 306.188185 
L 461.031302 294.691689 
L 461.767721 302.35602 
L 462.50414 294.691689 
L 463.240559 290.859524 
L 463.976978 294.691689 
L 464.713396 287.027359 
L 465.449815 271.698698 
L 466.922653 287.027359 
L 467.659071 275.530864 
L 469.131909 283.195194 
L 469.868328 271.698698 
L 470.604747 264.034368 
L 471.341165 248.705707 
L 472.077584 241.041377 
L 472.814003 241.041377 
L 473.550422 256.370038 
L 475.759678 279.363029 
L 476.496097 279.363029 
L 477.232515 275.530864 
L 477.968934 275.530864 
L 478.705353 279.363029 
L 479.441772 290.859524 
L 480.178191 279.363029 
L 481.651028 287.027359 
L 483.123866 287.027359 
L 483.860284 275.530864 
L 484.596703 275.530864 
L 485.333122 283.195194 
L 486.069541 279.363029 
L 486.80596 267.866533 
L 488.278797 267.866533 
L 489.015216 279.363029 
L 489.751635 287.027359 
L 490.488053 290.859524 
L 491.224472 287.027359 
L 491.960891 275.530864 
L 492.69731 283.195194 
L 493.433728 283.195194 
L 494.170147 294.691689 
L 494.906566 287.027359 
L 495.642985 275.530864 
L 496.379404 267.866533 
L 497.115822 283.195194 
L 497.852241 275.530864 
L 498.58866 287.027359 
L 500.061497 294.691689 
L 500.797916 283.195194 
L 501.534335 279.363029 
L 502.270754 290.859524 
L 503.007172 279.363029 
L 503.743591 279.363029 
L 503.743591 279.363029 
" style="fill:none;stroke:#d62728;stroke-linecap:square;stroke-width:1.5;"/>
   </g>
   <g id="patch_3">
    <path d="M 83.472344 352.174167 
L 83.472344 35.0625 
" style="fill:none;stroke:#000000;stroke-linecap:square;stroke-linejoin:miter;stroke-width:0.8;"/>
   </g>
   <g id="patch_4">
    <path d="M 529.912969 352.174167 
L 529.912969 35.0625 
" style="fill:none;stroke:#000000;stroke-linecap:square;stroke-linejoin:miter;stroke-width:0.8;"/>
   </g>
   <g id="patch_5">
    <path d="M 83.472344 352.174167 
L 529.912969 352.174167 
" style="fill:none;stroke:#000000;stroke-linecap:square;stroke-linejoin:miter;stroke-width:0.8;"/>
   </g>
   <g id="patch_6">
    <path d="M 83.472344 35.0625 
L 529.912969 35.0625 
" style="fill:none;stroke:#000000;stroke-linecap:square;stroke-linejoin:miter;stroke-width:0.8;"/>
   </g>
   <g id="legend_1">
    <g id="patch_7">
     <path d="M 554.235 96.775 
L 625.430312 96.775 
Q 627.430312 96.775 627.430312 94.775 
L 627.430312 37.0625 
Q 627.430312 35.0625 625.430312 35.0625 
L 554.235 35.0625 
Q 552.235 35.0625 552.235 37.0625 
L 552.235 94.775 
Q 552.235 96.775 554.235 96.775 
z
" style="fill:#ffffff;opacity:0.8;stroke:#cccccc;stroke-linejoin:miter;"/>
    </g>
    <g id="line2d_20">
     <path d="M 556.235 43.160937 
L 576.235 43.160937 
" style="fill:none;stroke:#1f77b4;stroke-linecap:square;stroke-width:1.5;"/>
    </g>
    <g id="line2d_21"/>
    <g id="text_17">
     <!-- cubic-pi -->
     <defs>
      <path d="M 4.890625 31.390625 
L 31.203125 31.390625 
L 31.203125 23.390625 
L 4.890625 23.390625 
z
" id="DejaVuSans-45"/>
     </defs>
     <g transform="translate(584.235 46.660937)scale(0.1 -0.1)">
      <use xlink:href="#DejaVuSans-99"/>
      <use x="54.980469" xlink:href="#DejaVuSans-117"/>
      <use x="118.359375" xlink:href="#DejaVuSans-98"/>
      <use x="181.835938" xlink:href="#DejaVuSans-105"/>
      <use x="209.619141" xlink:href="#DejaVuSans-99"/>
      <use x="264.599609" xlink:href="#DejaVuSans-45"/>
      <use x="300.683594" xlink:href="#DejaVuSans-112"/>
      <use x="364.160156" xlink:href="#DejaVuSans-105"/>
     </g>
    </g>
    <g id="line2d_22">
     <path d="M 556.235 57.839063 
L 576.235 57.839063 
" style="fill:none;stroke:#ff7f0e;stroke-linecap:square;stroke-width:1.5;"/>
    </g>
    <g id="line2d_23"/>
    <g id="text_18">
     <!-- cubic-pi -->
     <g transform="translate(584.235 61.339063)scale(0.1 -0.1)">
      <use xlink:href="#DejaVuSans-99"/>
      <use x="54.980469" xlink:href="#DejaVuSans-117"/>
      <use x="118.359375" xlink:href="#DejaVuSans-98"/>
      <use x="181.835938" xlink:href="#DejaVuSans-105"/>
      <use x="209.619141" xlink:href="#DejaVuSans-99"/>
      <use x="264.599609" xlink:href="#DejaVuSans-45"/>
      <use x="300.683594" xlink:href="#DejaVuSans-112"/>
      <use x="364.160156" xlink:href="#DejaVuSans-105"/>
     </g>
    </g>
    <g id="line2d_24">
     <path d="M 556.235 72.517187 
L 576.235 72.517187 
" style="fill:none;stroke:#2ca02c;stroke-linecap:square;stroke-width:1.5;"/>
    </g>
    <g id="line2d_25"/>
    <g id="text_19">
     <!-- cubic-pi -->
     <g transform="translate(584.235 76.017187)scale(0.1 -0.1)">
      <use xlink:href="#DejaVuSans-99"/>
      <use x="54.980469" xlink:href="#DejaVuSans-117"/>
      <use x="118.359375" xlink:href="#DejaVuSans-98"/>
      <use x="181.835938" xlink:href="#DejaVuSans-105"/>
      <use x="209.619141" xlink:href="#DejaVuSans-99"/>
      <use x="264.599609" xlink:href="#DejaVuSans-45"/>
      <use x="300.683594" xlink:href="#DejaVuSans-112"/>
      <use x="364.160156" xlink:href="#DejaVuSans-105"/>
     </g>
    </g>
    <g id="line2d_26">
     <path d="M 556.235 87.195312 
L 576.235 87.195312 
" style="fill:none;stroke:#d62728;stroke-linecap:square;stroke-width:1.5;"/>
    </g>
    <g id="line2d_27"/>
    <g id="text_20">
     <!-- cubic-pi -->
     <g transform="translate(584.235 90.695312)scale(0.1 -0.1)">
      <use xlink:href="#DejaVuSans-99"/>
      <use x="54.980469" xlink:href="#DejaVuSans-117"/>
      <use x="118.359375" xlink:href="#DejaVuSans-98"/>
      <use x="181.835938" xlink:href="#DejaVuSans-105"/>
      <use x="209.619141" xlink:href="#DejaVuSans-99"/>
      <use x="264.599609" xlink:href="#DejaVuSans-45"/>
      <use x="300.683594" xlink:href="#DejaVuSans-112"/>
      <use x="364.160156" xlink:href="#DejaVuSans-105"/>
     </g>
    </g>
   </g>
  </g>
  <g id="text_21">
   <!-- result throughput -->
   <defs>
    <path d="M 9.421875 75.984375 
L 18.40625 75.984375 
L 18.40625 0 
L 9.421875 0 
z
" id="DejaVuSans-108"/>
   </defs>
   <g transform="translate(289.320938 17.038125)scale(0.12 -0.12)">
    <use xlink:href="#DejaVuSans-114"/>
    <use x="41.082031" xlink:href="#DejaVuSans-101"/>
    <use x="102.605469" xlink:href="#DejaVuSans-115"/>
    <use x="154.705078" xlink:href="#DejaVuSans-117"/>
    <use x="218.083984" xlink:href="#DejaVuSans-108"/>
    <use x="245.867188" xlink:href="#DejaVuSans-116"/>
    <use x="285.076172" xlink:href="#DejaVuSans-32"/>
    <use x="316.863281" xlink:href="#DejaVuSans-116"/>
    <use x="356.072266" xlink:href="#DejaVuSans-104"/>
    <use x="419.451172" xlink:href="#DejaVuSans-114"/>
    <use x="460.533203" xlink:href="#DejaVuSans-111"/>
    <use x="521.714844" xlink:href="#DejaVuSans-117"/>
    <use x="585.09375" xlink:href="#DejaVuSans-103"/>
    <use x="648.570312" xlink:href="#DejaVuSans-104"/>
    <use x="711.949219" xlink:href="#DejaVuSans-112"/>
    <use x="775.425781" xlink:href="#DejaVuSans-117"/>
    <use x="838.804688" xlink:href="#DejaVuSans-116"/>
   </g>
  </g>
 </g>
 <defs>
  <clipPath id="pe5e8ceba15">
   <rect height="317.111667" width="446.440625" x="83.472344" y="35.0625"/>
  </clipPath>
 </defs>
</svg>
