<?xml version="1.0" encoding="utf-8" standalone="no"?>
<!DOCTYPE svg PUBLIC "-//W3C//DTD SVG 1.1//EN"
  "http://www.w3.org/Graphics/SVG/1.1/DTD/svg11.dtd">
<!-- Created with matplotlib (https://matplotlib.org/) -->
<svg height="396pt" version="1.1" viewBox="0 0 684 396" width="684pt" xmlns="http://www.w3.org/2000/svg" xmlns:xlink="http://www.w3.org/1999/xlink">
 <defs>
  <style type="text/css">
*{stroke-linecap:butt;stroke-linejoin:round;}
  </style>
 </defs>
 <g id="figure_1">
  <g id="patch_1">
   <path d="M 0 396 
L 684 396 
L 684 0 
L 0 0 
z
" style="fill:#ffffff;"/>
  </g>
  <g id="axes_1">
   <g id="patch_2">
    <path d="M 83.472344 352.174167 
L 529.912969 352.174167 
L 529.912969 35.0625 
L 83.472344 35.0625 
z
" style="fill:#ffffff;"/>
   </g>
   <g id="matplotlib.axis_1">
    <g id="xtick_1">
     <g id="line2d_1">
      <defs>
       <path d="M 0 0 
L 0 3.5 
" id="mfae0105345" style="stroke:#000000;stroke-width:0.8;"/>
      </defs>
      <g>
       <use style="stroke:#000000;stroke-width:0.8;" x="103.765099" xlink:href="#mfae0105345" y="352.174167"/>
      </g>
     </g>
     <g id="text_1">
      <!-- 0 -->
      <defs>
       <path d="M 31.78125 66.40625 
Q 24.171875 66.40625 20.328125 58.90625 
Q 16.5 51.421875 16.5 36.375 
Q 16.5 21.390625 20.328125 13.890625 
Q 24.171875 6.390625 31.78125 6.390625 
Q 39.453125 6.390625 43.28125 13.890625 
Q 47.125 21.390625 47.125 36.375 
Q 47.125 51.421875 43.28125 58.90625 
Q 39.453125 66.40625 31.78125 66.40625 
z
M 31.78125 74.21875 
Q 44.046875 74.21875 50.515625 64.515625 
Q 56.984375 54.828125 56.984375 36.375 
Q 56.984375 17.96875 50.515625 8.265625 
Q 44.046875 -1.421875 31.78125 -1.421875 
Q 19.53125 -1.421875 13.0625 8.265625 
Q 6.59375 17.96875 6.59375 36.375 
Q 6.59375 54.828125 13.0625 64.515625 
Q 19.53125 74.21875 31.78125 74.21875 
z
" id="DejaVuSans-48"/>
      </defs>
      <g transform="translate(100.583849 366.772604)scale(0.1 -0.1)">
       <use xlink:href="#DejaVuSans-48"/>
      </g>
     </g>
    </g>
    <g id="xtick_2">
     <g id="line2d_2">
      <g>
       <use style="stroke:#000000;stroke-width:0.8;" x="177.291974" xlink:href="#mfae0105345" y="352.174167"/>
      </g>
     </g>
     <g id="text_2">
      <!-- 50 -->
      <defs>
       <path d="M 10.796875 72.90625 
L 49.515625 72.90625 
L 49.515625 64.59375 
L 19.828125 64.59375 
L 19.828125 46.734375 
Q 21.96875 47.46875 24.109375 47.828125 
Q 26.265625 48.1875 28.421875 48.1875 
Q 40.625 48.1875 47.75 41.5 
Q 54.890625 34.8125 54.890625 23.390625 
Q 54.890625 11.625 47.5625 5.09375 
Q 40.234375 -1.421875 26.90625 -1.421875 
Q 22.3125 -1.421875 17.546875 -0.640625 
Q 12.796875 0.140625 7.71875 1.703125 
L 7.71875 11.625 
Q 12.109375 9.234375 16.796875 8.0625 
Q 21.484375 6.890625 26.703125 6.890625 
Q 35.15625 6.890625 40.078125 11.328125 
Q 45.015625 15.765625 45.015625 23.390625 
Q 45.015625 31 40.078125 35.4375 
Q 35.15625 39.890625 26.703125 39.890625 
Q 22.75 39.890625 18.8125 39.015625 
Q 14.890625 38.140625 10.796875 36.28125 
z
" id="DejaVuSans-53"/>
      </defs>
      <g transform="translate(170.929474 366.772604)scale(0.1 -0.1)">
       <use xlink:href="#DejaVuSans-53"/>
       <use x="63.623047" xlink:href="#DejaVuSans-48"/>
      </g>
     </g>
    </g>
    <g id="xtick_3">
     <g id="line2d_3">
      <g>
       <use style="stroke:#000000;stroke-width:0.8;" x="250.818849" xlink:href="#mfae0105345" y="352.174167"/>
      </g>
     </g>
     <g id="text_3">
      <!-- 100 -->
      <defs>
       <path d="M 12.40625 8.296875 
L 28.515625 8.296875 
L 28.515625 63.921875 
L 10.984375 60.40625 
L 10.984375 69.390625 
L 28.421875 72.90625 
L 38.28125 72.90625 
L 38.28125 8.296875 
L 54.390625 8.296875 
L 54.390625 0 
L 12.40625 0 
z
" id="DejaVuSans-49"/>
      </defs>
      <g transform="translate(241.275099 366.772604)scale(0.1 -0.1)">
       <use xlink:href="#DejaVuSans-49"/>
       <use x="63.623047" xlink:href="#DejaVuSans-48"/>
       <use x="127.246094" xlink:href="#DejaVuSans-48"/>
      </g>
     </g>
    </g>
    <g id="xtick_4">
     <g id="line2d_4">
      <g>
       <use style="stroke:#000000;stroke-width:0.8;" x="324.345724" xlink:href="#mfae0105345" y="352.174167"/>
      </g>
     </g>
     <g id="text_4">
      <!-- 150 -->
      <g transform="translate(314.801974 366.772604)scale(0.1 -0.1)">
       <use xlink:href="#DejaVuSans-49"/>
       <use x="63.623047" xlink:href="#DejaVuSans-53"/>
       <use x="127.246094" xlink:href="#DejaVuSans-48"/>
      </g>
     </g>
    </g>
    <g id="xtick_5">
     <g id="line2d_5">
      <g>
       <use style="stroke:#000000;stroke-width:0.8;" x="397.872598" xlink:href="#mfae0105345" y="352.174167"/>
      </g>
     </g>
     <g id="text_5">
      <!-- 200 -->
      <defs>
       <path d="M 19.1875 8.296875 
L 53.609375 8.296875 
L 53.609375 0 
L 7.328125 0 
L 7.328125 8.296875 
Q 12.9375 14.109375 22.625 23.890625 
Q 32.328125 33.6875 34.8125 36.53125 
Q 39.546875 41.84375 41.421875 45.53125 
Q 43.3125 49.21875 43.3125 52.78125 
Q 43.3125 58.59375 39.234375 62.25 
Q 35.15625 65.921875 28.609375 65.921875 
Q 23.96875 65.921875 18.8125 64.3125 
Q 13.671875 62.703125 7.8125 59.421875 
L 7.8125 69.390625 
Q 13.765625 71.78125 18.9375 73 
Q 24.125 74.21875 28.421875 74.21875 
Q 39.75 74.21875 46.484375 68.546875 
Q 53.21875 62.890625 53.21875 53.421875 
Q 53.21875 48.921875 51.53125 44.890625 
Q 49.859375 40.875 45.40625 35.40625 
Q 44.1875 33.984375 37.640625 27.21875 
Q 31.109375 20.453125 19.1875 8.296875 
z
" id="DejaVuSans-50"/>
      </defs>
      <g transform="translate(388.328848 366.772604)scale(0.1 -0.1)">
       <use xlink:href="#DejaVuSans-50"/>
       <use x="63.623047" xlink:href="#DejaVuSans-48"/>
       <use x="127.246094" xlink:href="#DejaVuSans-48"/>
      </g>
     </g>
    </g>
    <g id="xtick_6">
     <g id="line2d_6">
      <g>
       <use style="stroke:#000000;stroke-width:0.8;" x="471.399473" xlink:href="#mfae0105345" y="352.174167"/>
      </g>
     </g>
     <g id="text_6">
      <!-- 250 -->
      <g transform="translate(461.855723 366.772604)scale(0.1 -0.1)">
       <use xlink:href="#DejaVuSans-50"/>
       <use x="63.623047" xlink:href="#DejaVuSans-53"/>
       <use x="127.246094" xlink:href="#DejaVuSans-48"/>
      </g>
     </g>
    </g>
   </g>
   <g id="matplotlib.axis_2">
    <g id="ytick_1">
     <g id="line2d_7">
      <defs>
       <path d="M 0 0 
L -3.5 0 
" id="mf151583896" style="stroke:#000000;stroke-width:0.8;"/>
      </defs>
      <g>
       <use style="stroke:#000000;stroke-width:0.8;" x="83.472344" xlink:href="#mf151583896" y="352.174167"/>
      </g>
     </g>
     <g id="text_7">
      <!-- 0 -->
      <g transform="translate(70.109844 355.973385)scale(0.1 -0.1)">
       <use xlink:href="#DejaVuSans-48"/>
      </g>
     </g>
    </g>
    <g id="ytick_2">
     <g id="line2d_8">
      <g>
       <use style="stroke:#000000;stroke-width:0.8;" x="83.472344" xlink:href="#mf151583896" y="313.736389"/>
      </g>
     </g>
     <g id="text_8">
      <!-- 10 -->
      <g transform="translate(63.747344 317.535608)scale(0.1 -0.1)">
       <use xlink:href="#DejaVuSans-49"/>
       <use x="63.623047" xlink:href="#DejaVuSans-48"/>
      </g>
     </g>
    </g>
    <g id="ytick_3">
     <g id="line2d_9">
      <g>
       <use style="stroke:#000000;stroke-width:0.8;" x="83.472344" xlink:href="#mf151583896" y="275.298611"/>
      </g>
     </g>
     <g id="text_9">
      <!-- 20 -->
      <g transform="translate(63.747344 279.09783)scale(0.1 -0.1)">
       <use xlink:href="#DejaVuSans-50"/>
       <use x="63.623047" xlink:href="#DejaVuSans-48"/>
      </g>
     </g>
    </g>
    <g id="ytick_4">
     <g id="line2d_10">
      <g>
       <use style="stroke:#000000;stroke-width:0.8;" x="83.472344" xlink:href="#mf151583896" y="236.860833"/>
      </g>
     </g>
     <g id="text_10">
      <!-- 30 -->
      <defs>
       <path d="M 40.578125 39.3125 
Q 47.65625 37.796875 51.625 33 
Q 55.609375 28.21875 55.609375 21.1875 
Q 55.609375 10.40625 48.1875 4.484375 
Q 40.765625 -1.421875 27.09375 -1.421875 
Q 22.515625 -1.421875 17.65625 -0.515625 
Q 12.796875 0.390625 7.625 2.203125 
L 7.625 11.71875 
Q 11.71875 9.328125 16.59375 8.109375 
Q 21.484375 6.890625 26.8125 6.890625 
Q 36.078125 6.890625 40.9375 10.546875 
Q 45.796875 14.203125 45.796875 21.1875 
Q 45.796875 27.640625 41.28125 31.265625 
Q 36.765625 34.90625 28.71875 34.90625 
L 20.21875 34.90625 
L 20.21875 43.015625 
L 29.109375 43.015625 
Q 36.375 43.015625 40.234375 45.921875 
Q 44.09375 48.828125 44.09375 54.296875 
Q 44.09375 59.90625 40.109375 62.90625 
Q 36.140625 65.921875 28.71875 65.921875 
Q 24.65625 65.921875 20.015625 65.03125 
Q 15.375 64.15625 9.8125 62.3125 
L 9.8125 71.09375 
Q 15.4375 72.65625 20.34375 73.4375 
Q 25.25 74.21875 29.59375 74.21875 
Q 40.828125 74.21875 47.359375 69.109375 
Q 53.90625 64.015625 53.90625 55.328125 
Q 53.90625 49.265625 50.4375 45.09375 
Q 46.96875 40.921875 40.578125 39.3125 
z
" id="DejaVuSans-51"/>
      </defs>
      <g transform="translate(63.747344 240.660052)scale(0.1 -0.1)">
       <use xlink:href="#DejaVuSans-51"/>
       <use x="63.623047" xlink:href="#DejaVuSans-48"/>
      </g>
     </g>
    </g>
    <g id="ytick_5">
     <g id="line2d_11">
      <g>
       <use style="stroke:#000000;stroke-width:0.8;" x="83.472344" xlink:href="#mf151583896" y="198.423056"/>
      </g>
     </g>
     <g id="text_11">
      <!-- 40 -->
      <defs>
       <path d="M 37.796875 64.3125 
L 12.890625 25.390625 
L 37.796875 25.390625 
z
M 35.203125 72.90625 
L 47.609375 72.90625 
L 47.609375 25.390625 
L 58.015625 25.390625 
L 58.015625 17.1875 
L 47.609375 17.1875 
L 47.609375 0 
L 37.796875 0 
L 37.796875 17.1875 
L 4.890625 17.1875 
L 4.890625 26.703125 
z
" id="DejaVuSans-52"/>
      </defs>
      <g transform="translate(63.747344 202.222274)scale(0.1 -0.1)">
       <use xlink:href="#DejaVuSans-52"/>
       <use x="63.623047" xlink:href="#DejaVuSans-48"/>
      </g>
     </g>
    </g>
    <g id="ytick_6">
     <g id="line2d_12">
      <g>
       <use style="stroke:#000000;stroke-width:0.8;" x="83.472344" xlink:href="#mf151583896" y="159.985278"/>
      </g>
     </g>
     <g id="text_12">
      <!-- 50 -->
      <g transform="translate(63.747344 163.784497)scale(0.1 -0.1)">
       <use xlink:href="#DejaVuSans-53"/>
       <use x="63.623047" xlink:href="#DejaVuSans-48"/>
      </g>
     </g>
    </g>
    <g id="ytick_7">
     <g id="line2d_13">
      <g>
       <use style="stroke:#000000;stroke-width:0.8;" x="83.472344" xlink:href="#mf151583896" y="121.5475"/>
      </g>
     </g>
     <g id="text_13">
      <!-- 60 -->
      <defs>
       <path d="M 33.015625 40.375 
Q 26.375 40.375 22.484375 35.828125 
Q 18.609375 31.296875 18.609375 23.390625 
Q 18.609375 15.53125 22.484375 10.953125 
Q 26.375 6.390625 33.015625 6.390625 
Q 39.65625 6.390625 43.53125 10.953125 
Q 47.40625 15.53125 47.40625 23.390625 
Q 47.40625 31.296875 43.53125 35.828125 
Q 39.65625 40.375 33.015625 40.375 
z
M 52.59375 71.296875 
L 52.59375 62.3125 
Q 48.875 64.0625 45.09375 64.984375 
Q 41.3125 65.921875 37.59375 65.921875 
Q 27.828125 65.921875 22.671875 59.328125 
Q 17.53125 52.734375 16.796875 39.40625 
Q 19.671875 43.65625 24.015625 45.921875 
Q 28.375 48.1875 33.59375 48.1875 
Q 44.578125 48.1875 50.953125 41.515625 
Q 57.328125 34.859375 57.328125 23.390625 
Q 57.328125 12.15625 50.6875 5.359375 
Q 44.046875 -1.421875 33.015625 -1.421875 
Q 20.359375 -1.421875 13.671875 8.265625 
Q 6.984375 17.96875 6.984375 36.375 
Q 6.984375 53.65625 15.1875 63.9375 
Q 23.390625 74.21875 37.203125 74.21875 
Q 40.921875 74.21875 44.703125 73.484375 
Q 48.484375 72.75 52.59375 71.296875 
z
" id="DejaVuSans-54"/>
      </defs>
      <g transform="translate(63.747344 125.346719)scale(0.1 -0.1)">
       <use xlink:href="#DejaVuSans-54"/>
       <use x="63.623047" xlink:href="#DejaVuSans-48"/>
      </g>
     </g>
    </g>
    <g id="ytick_8">
     <g id="line2d_14">
      <g>
       <use style="stroke:#000000;stroke-width:0.8;" x="83.472344" xlink:href="#mf151583896" y="83.109722"/>
      </g>
     </g>
     <g id="text_14">
      <!-- 70 -->
      <defs>
       <path d="M 8.203125 72.90625 
L 55.078125 72.90625 
L 55.078125 68.703125 
L 28.609375 0 
L 18.3125 0 
L 43.21875 64.59375 
L 8.203125 64.59375 
z
" id="DejaVuSans-55"/>
      </defs>
      <g transform="translate(63.747344 86.908941)scale(0.1 -0.1)">
       <use xlink:href="#DejaVuSans-55"/>
       <use x="63.623047" xlink:href="#DejaVuSans-48"/>
      </g>
     </g>
    </g>
    <g id="ytick_9">
     <g id="line2d_15">
      <g>
       <use style="stroke:#000000;stroke-width:0.8;" x="83.472344" xlink:href="#mf151583896" y="44.671944"/>
      </g>
     </g>
     <g id="text_15">
      <!-- 80 -->
      <defs>
       <path d="M 31.78125 34.625 
Q 24.75 34.625 20.71875 30.859375 
Q 16.703125 27.09375 16.703125 20.515625 
Q 16.703125 13.921875 20.71875 10.15625 
Q 24.75 6.390625 31.78125 6.390625 
Q 38.8125 6.390625 42.859375 10.171875 
Q 46.921875 13.96875 46.921875 20.515625 
Q 46.921875 27.09375 42.890625 30.859375 
Q 38.875 34.625 31.78125 34.625 
z
M 21.921875 38.8125 
Q 15.578125 40.375 12.03125 44.71875 
Q 8.5 49.078125 8.5 55.328125 
Q 8.5 64.0625 14.71875 69.140625 
Q 20.953125 74.21875 31.78125 74.21875 
Q 42.671875 74.21875 48.875 69.140625 
Q 55.078125 64.0625 55.078125 55.328125 
Q 55.078125 49.078125 51.53125 44.71875 
Q 48 40.375 41.703125 38.8125 
Q 48.828125 37.15625 52.796875 32.3125 
Q 56.78125 27.484375 56.78125 20.515625 
Q 56.78125 9.90625 50.3125 4.234375 
Q 43.84375 -1.421875 31.78125 -1.421875 
Q 19.734375 -1.421875 13.25 4.234375 
Q 6.78125 9.90625 6.78125 20.515625 
Q 6.78125 27.484375 10.78125 32.3125 
Q 14.796875 37.15625 21.921875 38.8125 
z
M 18.3125 54.390625 
Q 18.3125 48.734375 21.84375 45.5625 
Q 25.390625 42.390625 31.78125 42.390625 
Q 38.140625 42.390625 41.71875 45.5625 
Q 45.3125 48.734375 45.3125 54.390625 
Q 45.3125 60.0625 41.71875 63.234375 
Q 38.140625 66.40625 31.78125 66.40625 
Q 25.390625 66.40625 21.84375 63.234375 
Q 18.3125 60.0625 18.3125 54.390625 
z
" id="DejaVuSans-56"/>
      </defs>
      <g transform="translate(63.747344 48.471163)scale(0.1 -0.1)">
       <use xlink:href="#DejaVuSans-56"/>
       <use x="63.623047" xlink:href="#DejaVuSans-48"/>
      </g>
     </g>
    </g>
    <g id="text_16">
     <!-- throughput -->
     <defs>
      <path d="M 18.3125 70.21875 
L 18.3125 54.6875 
L 36.8125 54.6875 
L 36.8125 47.703125 
L 18.3125 47.703125 
L 18.3125 18.015625 
Q 18.3125 11.328125 20.140625 9.421875 
Q 21.96875 7.515625 27.59375 7.515625 
L 36.8125 7.515625 
L 36.8125 0 
L 27.59375 0 
Q 17.1875 0 13.234375 3.875 
Q 9.28125 7.765625 9.28125 18.015625 
L 9.28125 47.703125 
L 2.6875 47.703125 
L 2.6875 54.6875 
L 9.28125 54.6875 
L 9.28125 70.21875 
z
" id="DejaVuSans-116"/>
      <path d="M 54.890625 33.015625 
L 54.890625 0 
L 45.90625 0 
L 45.90625 32.71875 
Q 45.90625 40.484375 42.875 44.328125 
Q 39.84375 48.1875 33.796875 48.1875 
Q 26.515625 48.1875 22.3125 43.546875 
Q 18.109375 38.921875 18.109375 30.90625 
L 18.109375 0 
L 9.078125 0 
L 9.078125 75.984375 
L 18.109375 75.984375 
L 18.109375 46.1875 
Q 21.34375 51.125 25.703125 53.5625 
Q 30.078125 56 35.796875 56 
Q 45.21875 56 50.046875 50.171875 
Q 54.890625 44.34375 54.890625 33.015625 
z
" id="DejaVuSans-104"/>
      <path d="M 41.109375 46.296875 
Q 39.59375 47.171875 37.8125 47.578125 
Q 36.03125 48 33.890625 48 
Q 26.265625 48 22.1875 43.046875 
Q 18.109375 38.09375 18.109375 28.8125 
L 18.109375 0 
L 9.078125 0 
L 9.078125 54.6875 
L 18.109375 54.6875 
L 18.109375 46.1875 
Q 20.953125 51.171875 25.484375 53.578125 
Q 30.03125 56 36.53125 56 
Q 37.453125 56 38.578125 55.875 
Q 39.703125 55.765625 41.0625 55.515625 
z
" id="DejaVuSans-114"/>
      <path d="M 30.609375 48.390625 
Q 23.390625 48.390625 19.1875 42.75 
Q 14.984375 37.109375 14.984375 27.296875 
Q 14.984375 17.484375 19.15625 11.84375 
Q 23.34375 6.203125 30.609375 6.203125 
Q 37.796875 6.203125 41.984375 11.859375 
Q 46.1875 17.53125 46.1875 27.296875 
Q 46.1875 37.015625 41.984375 42.703125 
Q 37.796875 48.390625 30.609375 48.390625 
z
M 30.609375 56 
Q 42.328125 56 49.015625 48.375 
Q 55.71875 40.765625 55.71875 27.296875 
Q 55.71875 13.875 49.015625 6.21875 
Q 42.328125 -1.421875 30.609375 -1.421875 
Q 18.84375 -1.421875 12.171875 6.21875 
Q 5.515625 13.875 5.515625 27.296875 
Q 5.515625 40.765625 12.171875 48.375 
Q 18.84375 56 30.609375 56 
z
" id="DejaVuSans-111"/>
      <path d="M 8.5 21.578125 
L 8.5 54.6875 
L 17.484375 54.6875 
L 17.484375 21.921875 
Q 17.484375 14.15625 20.5 10.265625 
Q 23.53125 6.390625 29.59375 6.390625 
Q 36.859375 6.390625 41.078125 11.03125 
Q 45.3125 15.671875 45.3125 23.6875 
L 45.3125 54.6875 
L 54.296875 54.6875 
L 54.296875 0 
L 45.3125 0 
L 45.3125 8.40625 
Q 42.046875 3.421875 37.71875 1 
Q 33.40625 -1.421875 27.6875 -1.421875 
Q 18.265625 -1.421875 13.375 4.4375 
Q 8.5 10.296875 8.5 21.578125 
z
M 31.109375 56 
z
" id="DejaVuSans-117"/>
      <path d="M 45.40625 27.984375 
Q 45.40625 37.75 41.375 43.109375 
Q 37.359375 48.484375 30.078125 48.484375 
Q 22.859375 48.484375 18.828125 43.109375 
Q 14.796875 37.75 14.796875 27.984375 
Q 14.796875 18.265625 18.828125 12.890625 
Q 22.859375 7.515625 30.078125 7.515625 
Q 37.359375 7.515625 41.375 12.890625 
Q 45.40625 18.265625 45.40625 27.984375 
z
M 54.390625 6.78125 
Q 54.390625 -7.171875 48.1875 -13.984375 
Q 42 -20.796875 29.203125 -20.796875 
Q 24.46875 -20.796875 20.265625 -20.09375 
Q 16.0625 -19.390625 12.109375 -17.921875 
L 12.109375 -9.1875 
Q 16.0625 -11.328125 19.921875 -12.34375 
Q 23.78125 -13.375 27.78125 -13.375 
Q 36.625 -13.375 41.015625 -8.765625 
Q 45.40625 -4.15625 45.40625 5.171875 
L 45.40625 9.625 
Q 42.625 4.78125 38.28125 2.390625 
Q 33.9375 0 27.875 0 
Q 17.828125 0 11.671875 7.65625 
Q 5.515625 15.328125 5.515625 27.984375 
Q 5.515625 40.671875 11.671875 48.328125 
Q 17.828125 56 27.875 56 
Q 33.9375 56 38.28125 53.609375 
Q 42.625 51.21875 45.40625 46.390625 
L 45.40625 54.6875 
L 54.390625 54.6875 
z
" id="DejaVuSans-103"/>
      <path d="M 18.109375 8.203125 
L 18.109375 -20.796875 
L 9.078125 -20.796875 
L 9.078125 54.6875 
L 18.109375 54.6875 
L 18.109375 46.390625 
Q 20.953125 51.265625 25.265625 53.625 
Q 29.59375 56 35.59375 56 
Q 45.5625 56 51.78125 48.09375 
Q 58.015625 40.1875 58.015625 27.296875 
Q 58.015625 14.40625 51.78125 6.484375 
Q 45.5625 -1.421875 35.59375 -1.421875 
Q 29.59375 -1.421875 25.265625 0.953125 
Q 20.953125 3.328125 18.109375 8.203125 
z
M 48.6875 27.296875 
Q 48.6875 37.203125 44.609375 42.84375 
Q 40.53125 48.484375 33.40625 48.484375 
Q 26.265625 48.484375 22.1875 42.84375 
Q 18.109375 37.203125 18.109375 27.296875 
Q 18.109375 17.390625 22.1875 11.75 
Q 26.265625 6.109375 33.40625 6.109375 
Q 40.53125 6.109375 44.609375 11.75 
Q 48.6875 17.390625 48.6875 27.296875 
z
" id="DejaVuSans-112"/>
     </defs>
     <g transform="translate(46.469844 221.675365)rotate(-90)scale(0.1 -0.1)">
      <use xlink:href="#DejaVuSans-116"/>
      <use x="39.208984" xlink:href="#DejaVuSans-104"/>
      <use x="102.587891" xlink:href="#DejaVuSans-114"/>
      <use x="143.669922" xlink:href="#DejaVuSans-111"/>
      <use x="204.851562" xlink:href="#DejaVuSans-117"/>
      <use x="268.230469" xlink:href="#DejaVuSans-103"/>
      <use x="331.707031" xlink:href="#DejaVuSans-104"/>
      <use x="395.085938" xlink:href="#DejaVuSans-112"/>
      <use x="458.5625" xlink:href="#DejaVuSans-117"/>
      <use x="521.941406" xlink:href="#DejaVuSans-116"/>
     </g>
     <!-- (mbit / second) -->
     <defs>
      <path d="M 31 75.875 
Q 24.46875 64.65625 21.28125 53.65625 
Q 18.109375 42.671875 18.109375 31.390625 
Q 18.109375 20.125 21.3125 9.0625 
Q 24.515625 -2 31 -13.1875 
L 23.1875 -13.1875 
Q 15.875 -1.703125 12.234375 9.375 
Q 8.59375 20.453125 8.59375 31.390625 
Q 8.59375 42.28125 12.203125 53.3125 
Q 15.828125 64.359375 23.1875 75.875 
z
" id="DejaVuSans-40"/>
      <path d="M 52 44.1875 
Q 55.375 50.25 60.0625 53.125 
Q 64.75 56 71.09375 56 
Q 79.640625 56 84.28125 50.015625 
Q 88.921875 44.046875 88.921875 33.015625 
L 88.921875 0 
L 79.890625 0 
L 79.890625 32.71875 
Q 79.890625 40.578125 77.09375 44.375 
Q 74.3125 48.1875 68.609375 48.1875 
Q 61.625 48.1875 57.5625 43.546875 
Q 53.515625 38.921875 53.515625 30.90625 
L 53.515625 0 
L 44.484375 0 
L 44.484375 32.71875 
Q 44.484375 40.625 41.703125 44.40625 
Q 38.921875 48.1875 33.109375 48.1875 
Q 26.21875 48.1875 22.15625 43.53125 
Q 18.109375 38.875 18.109375 30.90625 
L 18.109375 0 
L 9.078125 0 
L 9.078125 54.6875 
L 18.109375 54.6875 
L 18.109375 46.1875 
Q 21.1875 51.21875 25.484375 53.609375 
Q 29.78125 56 35.6875 56 
Q 41.65625 56 45.828125 52.96875 
Q 50 49.953125 52 44.1875 
z
" id="DejaVuSans-109"/>
      <path d="M 48.6875 27.296875 
Q 48.6875 37.203125 44.609375 42.84375 
Q 40.53125 48.484375 33.40625 48.484375 
Q 26.265625 48.484375 22.1875 42.84375 
Q 18.109375 37.203125 18.109375 27.296875 
Q 18.109375 17.390625 22.1875 11.75 
Q 26.265625 6.109375 33.40625 6.109375 
Q 40.53125 6.109375 44.609375 11.75 
Q 48.6875 17.390625 48.6875 27.296875 
z
M 18.109375 46.390625 
Q 20.953125 51.265625 25.265625 53.625 
Q 29.59375 56 35.59375 56 
Q 45.5625 56 51.78125 48.09375 
Q 58.015625 40.1875 58.015625 27.296875 
Q 58.015625 14.40625 51.78125 6.484375 
Q 45.5625 -1.421875 35.59375 -1.421875 
Q 29.59375 -1.421875 25.265625 0.953125 
Q 20.953125 3.328125 18.109375 8.203125 
L 18.109375 0 
L 9.078125 0 
L 9.078125 75.984375 
L 18.109375 75.984375 
z
" id="DejaVuSans-98"/>
      <path d="M 9.421875 54.6875 
L 18.40625 54.6875 
L 18.40625 0 
L 9.421875 0 
z
M 9.421875 75.984375 
L 18.40625 75.984375 
L 18.40625 64.59375 
L 9.421875 64.59375 
z
" id="DejaVuSans-105"/>
      <path id="DejaVuSans-32"/>
      <path d="M 25.390625 72.90625 
L 33.6875 72.90625 
L 8.296875 -9.28125 
L 0 -9.28125 
z
" id="DejaVuSans-47"/>
      <path d="M 44.28125 53.078125 
L 44.28125 44.578125 
Q 40.484375 46.53125 36.375 47.5 
Q 32.28125 48.484375 27.875 48.484375 
Q 21.1875 48.484375 17.84375 46.4375 
Q 14.5 44.390625 14.5 40.28125 
Q 14.5 37.15625 16.890625 35.375 
Q 19.28125 33.59375 26.515625 31.984375 
L 29.59375 31.296875 
Q 39.15625 29.25 43.1875 25.515625 
Q 47.21875 21.78125 47.21875 15.09375 
Q 47.21875 7.46875 41.1875 3.015625 
Q 35.15625 -1.421875 24.609375 -1.421875 
Q 20.21875 -1.421875 15.453125 -0.5625 
Q 10.6875 0.296875 5.421875 2 
L 5.421875 11.28125 
Q 10.40625 8.6875 15.234375 7.390625 
Q 20.0625 6.109375 24.8125 6.109375 
Q 31.15625 6.109375 34.5625 8.28125 
Q 37.984375 10.453125 37.984375 14.40625 
Q 37.984375 18.0625 35.515625 20.015625 
Q 33.0625 21.96875 24.703125 23.78125 
L 21.578125 24.515625 
Q 13.234375 26.265625 9.515625 29.90625 
Q 5.8125 33.546875 5.8125 39.890625 
Q 5.8125 47.609375 11.28125 51.796875 
Q 16.75 56 26.8125 56 
Q 31.78125 56 36.171875 55.265625 
Q 40.578125 54.546875 44.28125 53.078125 
z
" id="DejaVuSans-115"/>
      <path d="M 56.203125 29.59375 
L 56.203125 25.203125 
L 14.890625 25.203125 
Q 15.484375 15.921875 20.484375 11.0625 
Q 25.484375 6.203125 34.421875 6.203125 
Q 39.59375 6.203125 44.453125 7.46875 
Q 49.3125 8.734375 54.109375 11.28125 
L 54.109375 2.78125 
Q 49.265625 0.734375 44.1875 -0.34375 
Q 39.109375 -1.421875 33.890625 -1.421875 
Q 20.796875 -1.421875 13.15625 6.1875 
Q 5.515625 13.8125 5.515625 26.8125 
Q 5.515625 40.234375 12.765625 48.109375 
Q 20.015625 56 32.328125 56 
Q 43.359375 56 49.78125 48.890625 
Q 56.203125 41.796875 56.203125 29.59375 
z
M 47.21875 32.234375 
Q 47.125 39.59375 43.09375 43.984375 
Q 39.0625 48.390625 32.421875 48.390625 
Q 24.90625 48.390625 20.390625 44.140625 
Q 15.875 39.890625 15.1875 32.171875 
z
" id="DejaVuSans-101"/>
      <path d="M 48.78125 52.59375 
L 48.78125 44.1875 
Q 44.96875 46.296875 41.140625 47.34375 
Q 37.3125 48.390625 33.40625 48.390625 
Q 24.65625 48.390625 19.8125 42.84375 
Q 14.984375 37.3125 14.984375 27.296875 
Q 14.984375 17.28125 19.8125 11.734375 
Q 24.65625 6.203125 33.40625 6.203125 
Q 37.3125 6.203125 41.140625 7.25 
Q 44.96875 8.296875 48.78125 10.40625 
L 48.78125 2.09375 
Q 45.015625 0.34375 40.984375 -0.53125 
Q 36.96875 -1.421875 32.421875 -1.421875 
Q 20.0625 -1.421875 12.78125 6.34375 
Q 5.515625 14.109375 5.515625 27.296875 
Q 5.515625 40.671875 12.859375 48.328125 
Q 20.21875 56 33.015625 56 
Q 37.15625 56 41.109375 55.140625 
Q 45.0625 54.296875 48.78125 52.59375 
z
" id="DejaVuSans-99"/>
      <path d="M 54.890625 33.015625 
L 54.890625 0 
L 45.90625 0 
L 45.90625 32.71875 
Q 45.90625 40.484375 42.875 44.328125 
Q 39.84375 48.1875 33.796875 48.1875 
Q 26.515625 48.1875 22.3125 43.546875 
Q 18.109375 38.921875 18.109375 30.90625 
L 18.109375 0 
L 9.078125 0 
L 9.078125 54.6875 
L 18.109375 54.6875 
L 18.109375 46.1875 
Q 21.34375 51.125 25.703125 53.5625 
Q 30.078125 56 35.796875 56 
Q 45.21875 56 50.046875 50.171875 
Q 54.890625 44.34375 54.890625 33.015625 
z
" id="DejaVuSans-110"/>
      <path d="M 45.40625 46.390625 
L 45.40625 75.984375 
L 54.390625 75.984375 
L 54.390625 0 
L 45.40625 0 
L 45.40625 8.203125 
Q 42.578125 3.328125 38.25 0.953125 
Q 33.9375 -1.421875 27.875 -1.421875 
Q 17.96875 -1.421875 11.734375 6.484375 
Q 5.515625 14.40625 5.515625 27.296875 
Q 5.515625 40.1875 11.734375 48.09375 
Q 17.96875 56 27.875 56 
Q 33.9375 56 38.25 53.625 
Q 42.578125 51.265625 45.40625 46.390625 
z
M 14.796875 27.296875 
Q 14.796875 17.390625 18.875 11.75 
Q 22.953125 6.109375 30.078125 6.109375 
Q 37.203125 6.109375 41.296875 11.75 
Q 45.40625 17.390625 45.40625 27.296875 
Q 45.40625 37.203125 41.296875 42.84375 
Q 37.203125 48.484375 30.078125 48.484375 
Q 22.953125 48.484375 18.875 42.84375 
Q 14.796875 37.203125 14.796875 27.296875 
z
" id="DejaVuSans-100"/>
      <path d="M 8.015625 75.875 
L 15.828125 75.875 
Q 23.140625 64.359375 26.78125 53.3125 
Q 30.421875 42.28125 30.421875 31.390625 
Q 30.421875 20.453125 26.78125 9.375 
Q 23.140625 -1.703125 15.828125 -13.1875 
L 8.015625 -13.1875 
Q 14.5 -2 17.703125 9.0625 
Q 20.90625 20.125 20.90625 31.390625 
Q 20.90625 42.671875 17.703125 53.65625 
Q 14.5 64.65625 8.015625 75.875 
z
" id="DejaVuSans-41"/>
     </defs>
     <g transform="translate(57.667656 231.608958)rotate(-90)scale(0.1 -0.1)">
      <use xlink:href="#DejaVuSans-40"/>
      <use x="39.013672" xlink:href="#DejaVuSans-109"/>
      <use x="136.425781" xlink:href="#DejaVuSans-98"/>
      <use x="199.902344" xlink:href="#DejaVuSans-105"/>
      <use x="227.685547" xlink:href="#DejaVuSans-116"/>
      <use x="266.894531" xlink:href="#DejaVuSans-32"/>
      <use x="298.681641" xlink:href="#DejaVuSans-47"/>
      <use x="332.373047" xlink:href="#DejaVuSans-32"/>
      <use x="364.160156" xlink:href="#DejaVuSans-115"/>
      <use x="416.259766" xlink:href="#DejaVuSans-101"/>
      <use x="477.783203" xlink:href="#DejaVuSans-99"/>
      <use x="532.763672" xlink:href="#DejaVuSans-111"/>
      <use x="593.945312" xlink:href="#DejaVuSans-110"/>
      <use x="657.324219" xlink:href="#DejaVuSans-100"/>
      <use x="720.800781" xlink:href="#DejaVuSans-41"/>
     </g>
    </g>
   </g>
   <g id="line2d_16">
    <path clip-path="url(#p5ed2c75af5)" d="M 103.765099 94.641056 
L 104.500368 48.515722 
L 105.970906 48.515722 
L 106.706174 94.641056 
L 107.441443 110.016167 
L 108.911981 125.391278 
L 109.647249 194.579278 
L 110.382518 229.173278 
L 111.117787 233.017056 
L 111.853056 240.704611 
L 112.588324 259.9235 
L 113.323593 259.9235 
L 114.058862 244.548389 
L 114.794131 259.9235 
L 116.264668 259.9235 
L 116.999937 271.454833 
L 117.735206 275.298611 
L 118.470474 271.454833 
L 119.205743 275.298611 
L 119.941012 275.298611 
L 120.676281 286.829944 
L 121.411549 267.611056 
L 122.146818 275.298611 
L 122.882087 279.142389 
L 123.617356 259.9235 
L 124.352624 248.392167 
L 125.087893 259.9235 
L 125.823162 275.298611 
L 126.558431 275.298611 
L 127.293699 259.9235 
L 128.028968 248.392167 
L 128.764237 271.454833 
L 129.499506 282.986167 
L 130.970043 282.986167 
L 131.705312 271.454833 
L 132.440581 256.079722 
L 133.175849 248.392167 
L 133.911118 244.548389 
L 136.852193 290.673722 
L 137.587462 286.829944 
L 138.322731 271.454833 
L 139.057999 286.829944 
L 139.793268 290.673722 
L 140.528537 286.829944 
L 141.263806 294.5175 
L 141.999074 282.986167 
L 142.734343 286.829944 
L 143.469612 302.205056 
L 144.204881 294.5175 
L 144.940149 302.205056 
L 145.675418 306.048833 
L 146.410687 294.5175 
L 147.145956 279.142389 
L 148.616493 256.079722 
L 149.351762 236.860833 
L 150.087031 225.3295 
L 150.822299 209.954389 
L 151.557568 209.954389 
L 152.292837 225.3295 
L 153.028105 248.392167 
L 153.763374 252.235944 
L 154.498643 252.235944 
L 155.96918 259.9235 
L 156.704449 259.9235 
L 157.439718 244.548389 
L 158.174987 252.235944 
L 158.910255 263.767278 
L 159.645524 267.611056 
L 160.380793 256.079722 
L 161.85133 271.454833 
L 162.586599 294.5175 
L 163.321868 309.892611 
L 164.057137 294.5175 
L 164.792405 275.298611 
L 165.527674 275.298611 
L 166.262943 279.142389 
L 166.998212 267.611056 
L 167.73348 275.298611 
L 169.204018 267.611056 
L 169.939287 275.298611 
L 170.674555 267.611056 
L 171.409824 275.298611 
L 172.145093 286.829944 
L 172.880362 286.829944 
L 173.61563 290.673722 
L 174.350899 282.986167 
L 175.086168 286.829944 
L 175.821437 294.5175 
L 176.556705 286.829944 
L 177.291974 267.611056 
L 178.027243 279.142389 
L 178.762512 275.298611 
L 179.49778 275.298611 
L 180.233049 286.829944 
L 180.968318 290.673722 
L 181.703587 282.986167 
L 182.438855 302.205056 
L 183.909393 302.205056 
L 184.644662 290.673722 
L 185.37993 286.829944 
L 186.115199 286.829944 
L 186.850468 290.673722 
L 187.585737 290.673722 
L 189.056274 298.361278 
L 191.26208 298.361278 
L 191.997349 290.673722 
L 192.732618 267.611056 
L 193.467887 263.767278 
L 194.203155 267.611056 
L 194.938424 279.142389 
L 195.673693 294.5175 
L 196.408962 302.205056 
L 197.14423 298.361278 
L 197.879499 282.986167 
L 200.820574 282.986167 
L 201.555843 290.673722 
L 202.291112 294.5175 
L 203.02638 290.673722 
L 203.761649 275.298611 
L 204.496918 256.079722 
L 205.232187 248.392167 
L 205.967455 244.548389 
L 206.702724 267.611056 
L 207.437993 275.298611 
L 208.173262 286.829944 
L 208.90853 290.673722 
L 209.643799 290.673722 
L 211.114337 259.9235 
L 211.849605 267.611056 
L 213.320143 298.361278 
L 214.055412 286.829944 
L 214.79068 279.142389 
L 215.525949 290.673722 
L 216.261218 298.361278 
L 216.996487 298.361278 
L 217.731755 302.205056 
L 218.467024 286.829944 
L 219.202293 279.142389 
L 219.937561 282.986167 
L 220.67283 275.298611 
L 221.408099 259.9235 
L 222.143368 256.079722 
L 222.878636 259.9235 
L 223.613905 248.392167 
L 224.349174 248.392167 
L 225.084443 256.079722 
L 225.819711 259.9235 
L 228.025518 282.986167 
L 228.760786 275.298611 
L 229.496055 263.767278 
L 230.231324 244.548389 
L 231.701861 282.986167 
L 232.43713 290.673722 
L 233.172399 290.673722 
L 233.907668 298.361278 
L 234.642936 302.205056 
L 235.378205 294.5175 
L 236.113474 282.986167 
L 236.848743 267.611056 
L 237.584011 256.079722 
L 238.31928 240.704611 
L 239.054549 233.017056 
L 239.789818 240.704611 
L 240.525086 240.704611 
L 241.995624 217.641944 
L 242.730893 213.798167 
L 243.466161 233.017056 
L 244.20143 233.017056 
L 244.936699 252.235944 
L 245.671968 263.767278 
L 246.407236 263.767278 
L 247.877774 271.454833 
L 248.613043 279.142389 
L 249.348311 282.986167 
L 250.08358 294.5175 
L 250.818849 302.205056 
L 251.554118 294.5175 
L 252.289386 294.5175 
L 253.024655 309.892611 
L 253.759924 313.736389 
L 254.495193 298.361278 
L 255.230461 286.829944 
L 255.96573 271.454833 
L 256.700999 286.829944 
L 257.436268 294.5175 
L 258.171536 286.829944 
L 259.642074 286.829944 
L 260.377343 282.986167 
L 261.112611 282.986167 
L 261.84788 267.611056 
L 262.583149 279.142389 
L 263.318418 282.986167 
L 264.053686 282.986167 
L 264.788955 271.454833 
L 265.524224 256.079722 
L 266.259493 259.9235 
L 267.73003 282.986167 
L 268.465299 290.673722 
L 269.935836 267.611056 
L 270.671105 252.235944 
L 271.406374 233.017056 
L 272.141643 256.079722 
L 272.876911 244.548389 
L 273.61218 244.548389 
L 275.082718 267.611056 
L 275.817986 263.767278 
L 276.553255 252.235944 
L 277.288524 256.079722 
L 278.023793 263.767278 
L 278.759061 275.298611 
L 279.49433 263.767278 
L 280.229599 267.611056 
L 280.964868 267.611056 
L 281.700136 252.235944 
L 282.435405 248.392167 
L 283.170674 263.767278 
L 283.905943 263.767278 
L 284.641211 267.611056 
L 285.37648 275.298611 
L 286.111749 286.829944 
L 286.847017 282.986167 
L 287.582286 271.454833 
L 288.317555 279.142389 
L 289.052824 267.611056 
L 289.788092 259.9235 
L 290.523361 275.298611 
L 291.25863 271.454833 
L 291.993899 271.454833 
L 292.729167 252.235944 
L 293.464436 248.392167 
L 294.199705 256.079722 
L 294.934974 256.079722 
L 295.670242 240.704611 
L 296.405511 233.017056 
L 297.14078 252.235944 
L 297.876049 240.704611 
L 298.611317 256.079722 
L 299.346586 256.079722 
L 300.081855 248.392167 
L 300.817124 256.079722 
L 301.552392 275.298611 
L 302.287661 259.9235 
L 303.758199 267.611056 
L 304.493467 267.611056 
L 305.228736 279.142389 
L 305.964005 271.454833 
L 306.699274 271.454833 
L 308.169811 279.142389 
L 308.90508 271.454833 
L 309.640349 275.298611 
L 310.375617 263.767278 
L 311.110886 256.079722 
L 311.846155 275.298611 
L 312.581424 286.829944 
L 314.051961 294.5175 
L 314.78723 294.5175 
L 315.522499 302.205056 
L 316.257767 306.048833 
L 316.993036 294.5175 
L 317.728305 279.142389 
L 318.463574 267.611056 
L 319.198842 244.548389 
L 319.934111 240.704611 
L 320.66938 229.173278 
L 321.404649 244.548389 
L 322.139917 263.767278 
L 322.875186 259.9235 
L 323.610455 267.611056 
L 325.080992 275.298611 
L 326.55153 275.298611 
L 327.286799 282.986167 
L 329.492605 294.5175 
L 330.963142 294.5175 
L 331.698411 306.048833 
L 332.43368 309.892611 
L 333.168949 309.892611 
L 334.639486 286.829944 
L 335.374755 282.986167 
L 337.580561 282.986167 
L 338.31583 286.829944 
L 339.051099 275.298611 
L 339.786367 282.986167 
L 340.521636 286.829944 
L 341.256905 286.829944 
L 341.992174 279.142389 
L 342.727442 286.829944 
L 343.462711 275.298611 
L 344.19798 279.142389 
L 345.668517 271.454833 
L 346.403786 279.142389 
L 347.139055 256.079722 
L 347.874324 267.611056 
L 348.609592 282.986167 
L 349.344861 286.829944 
L 350.08013 275.298611 
L 350.815399 282.986167 
L 351.550667 271.454833 
L 352.285936 252.235944 
L 353.021205 244.548389 
L 353.756473 259.9235 
L 354.491742 256.079722 
L 355.227011 263.767278 
L 355.96228 275.298611 
L 356.697548 279.142389 
L 357.432817 286.829944 
L 358.168086 290.673722 
L 358.903355 290.673722 
L 359.638623 298.361278 
L 360.373892 282.986167 
L 361.109161 271.454833 
L 361.84443 256.079722 
L 363.314967 263.767278 
L 364.050236 244.548389 
L 364.785505 259.9235 
L 365.520773 259.9235 
L 366.256042 267.611056 
L 366.991311 267.611056 
L 367.72658 271.454833 
L 369.197117 286.829944 
L 369.932386 271.454833 
L 370.667655 259.9235 
L 371.402923 259.9235 
L 372.138192 267.611056 
L 372.873461 282.986167 
L 373.60873 271.454833 
L 374.343998 279.142389 
L 375.814536 256.079722 
L 376.549805 256.079722 
L 377.285073 263.767278 
L 378.020342 252.235944 
L 378.755611 263.767278 
L 380.226148 279.142389 
L 380.961417 294.5175 
L 381.696686 302.205056 
L 382.431955 317.580167 
L 383.167223 309.892611 
L 383.902492 298.361278 
L 384.637761 306.048833 
L 386.843567 306.048833 
L 387.578836 309.892611 
L 388.314105 306.048833 
L 389.784642 306.048833 
L 390.519911 298.361278 
L 391.25518 302.205056 
L 391.990448 286.829944 
L 392.725717 275.298611 
L 393.460986 256.079722 
L 394.196255 244.548389 
L 394.931523 252.235944 
L 395.666792 263.767278 
L 396.402061 271.454833 
L 397.13733 252.235944 
L 397.872598 256.079722 
L 398.607867 263.767278 
L 400.078405 271.454833 
L 400.813673 271.454833 
L 401.548942 286.829944 
L 402.284211 298.361278 
L 403.01948 294.5175 
L 403.754748 275.298611 
L 404.490017 271.454833 
L 405.225286 256.079722 
L 406.695823 279.142389 
L 407.431092 275.298611 
L 408.166361 259.9235 
L 408.90163 286.829944 
L 409.636898 290.673722 
L 410.372167 298.361278 
L 411.842705 275.298611 
L 413.313242 244.548389 
L 414.048511 233.017056 
L 414.78378 233.017056 
L 415.519048 252.235944 
L 416.254317 263.767278 
L 417.724855 271.454833 
L 418.460123 256.079722 
L 419.195392 259.9235 
L 420.665929 275.298611 
L 422.871736 240.704611 
L 423.607004 221.485722 
L 424.342273 244.548389 
L 425.077542 240.704611 
L 426.548079 248.392167 
L 427.283348 244.548389 
L 428.753886 275.298611 
L 429.489154 282.986167 
L 430.224423 282.986167 
L 431.694961 290.673722 
L 432.430229 290.673722 
L 433.165498 279.142389 
L 433.900767 279.142389 
L 434.636036 286.829944 
L 436.106573 294.5175 
L 437.577111 271.454833 
L 438.312379 263.767278 
L 439.047648 267.611056 
L 439.782917 279.142389 
L 440.518186 275.298611 
L 441.253454 259.9235 
L 441.988723 279.142389 
L 443.459261 302.205056 
L 444.194529 306.048833 
L 445.665067 282.986167 
L 446.400336 267.611056 
L 447.135604 267.611056 
L 447.870873 271.454833 
L 448.606142 259.9235 
L 449.341411 244.548389 
L 450.076679 240.704611 
L 450.811948 256.079722 
L 451.547217 248.392167 
L 452.282486 271.454833 
L 453.017754 275.298611 
L 453.753023 275.298611 
L 455.223561 290.673722 
L 456.694098 290.673722 
L 457.429367 302.205056 
L 458.164636 290.673722 
L 459.635173 282.986167 
L 460.370442 271.454833 
L 461.105711 248.392167 
L 461.840979 267.611056 
L 462.576248 290.673722 
L 463.311517 298.361278 
L 464.046786 309.892611 
L 464.782054 290.673722 
L 465.517323 290.673722 
L 466.252592 286.829944 
L 466.987861 294.5175 
L 467.723129 282.986167 
L 468.458398 275.298611 
L 469.193667 259.9235 
L 469.928936 252.235944 
L 470.664204 236.860833 
L 472.134742 259.9235 
L 473.605279 275.298611 
L 474.340548 279.142389 
L 475.075817 286.829944 
L 475.811086 290.673722 
L 476.546354 275.298611 
L 478.016892 252.235944 
L 479.487429 275.298611 
L 480.222698 279.142389 
L 480.957967 286.829944 
L 481.693236 298.361278 
L 482.428504 290.673722 
L 483.163773 294.5175 
L 483.899042 286.829944 
L 484.63431 275.298611 
L 485.369579 248.392167 
L 486.104848 263.767278 
L 486.840117 263.767278 
L 487.575385 271.454833 
L 488.310654 271.454833 
L 489.045923 267.611056 
L 489.781192 271.454833 
L 490.51646 290.673722 
L 491.251729 298.361278 
L 491.986998 286.829944 
L 493.457535 256.079722 
L 494.192804 267.611056 
L 494.928073 286.829944 
L 495.663342 302.205056 
L 497.133879 271.454833 
L 498.604417 248.392167 
L 499.339685 244.548389 
L 500.074954 252.235944 
L 500.810223 256.079722 
L 500.810223 256.079722 
" style="fill:none;stroke:#1f77b4;stroke-linecap:square;stroke-width:1.5;"/>
   </g>
   <g id="line2d_17">
    <path clip-path="url(#p5ed2c75af5)" d="M 109.645779 286.829944 
L 110.381048 252.235944 
L 111.116316 252.235944 
L 111.851585 259.9235 
L 112.586854 271.454833 
L 113.322123 275.298611 
L 114.057391 256.079722 
L 114.79266 248.392167 
L 115.527929 259.9235 
L 116.263198 282.986167 
L 116.998466 275.298611 
L 117.733735 252.235944 
L 118.469004 244.548389 
L 119.204273 256.079722 
L 119.939541 256.079722 
L 120.67481 236.860833 
L 121.410079 252.235944 
L 122.145348 263.767278 
L 122.880616 279.142389 
L 123.615885 290.673722 
L 125.086423 298.361278 
L 125.821691 290.673722 
L 127.292229 259.9235 
L 128.027498 279.142389 
L 128.762766 271.454833 
L 130.968573 282.986167 
L 131.703841 267.611056 
L 132.43911 271.454833 
L 133.174379 279.142389 
L 133.909648 282.986167 
L 134.644916 271.454833 
L 135.380185 252.235944 
L 136.115454 244.548389 
L 136.850723 252.235944 
L 137.585991 267.611056 
L 138.32126 271.454833 
L 139.056529 259.9235 
L 139.791798 267.611056 
L 140.527066 279.142389 
L 141.262335 279.142389 
L 141.997604 286.829944 
L 142.732872 282.986167 
L 143.468141 271.454833 
L 144.20341 256.079722 
L 144.938679 271.454833 
L 145.673947 282.986167 
L 146.409216 271.454833 
L 147.144485 275.298611 
L 147.879754 290.673722 
L 148.615022 309.892611 
L 149.350291 294.5175 
L 150.08556 294.5175 
L 150.820829 306.048833 
L 152.291366 306.048833 
L 153.026635 290.673722 
L 153.761904 282.986167 
L 154.497172 279.142389 
L 155.96771 279.142389 
L 156.702979 275.298611 
L 157.438247 286.829944 
L 158.173516 290.673722 
L 158.908785 290.673722 
L 159.644054 294.5175 
L 160.379322 282.986167 
L 161.84986 282.986167 
L 162.585129 275.298611 
L 164.055666 290.673722 
L 165.526204 298.361278 
L 166.261472 298.361278 
L 166.996741 306.048833 
L 168.467279 306.048833 
L 169.202547 309.892611 
L 169.937816 306.048833 
L 171.408354 275.298611 
L 172.143622 263.767278 
L 173.61416 302.205056 
L 174.349429 298.361278 
L 175.084697 282.986167 
L 175.819966 290.673722 
L 176.555235 286.829944 
L 177.290504 290.673722 
L 178.025772 282.986167 
L 179.49631 282.986167 
L 180.231579 279.142389 
L 180.966847 282.986167 
L 181.702116 294.5175 
L 182.437385 279.142389 
L 183.172654 279.142389 
L 183.907922 282.986167 
L 184.643191 271.454833 
L 185.37846 267.611056 
L 186.113729 271.454833 
L 186.848997 248.392167 
L 189.790072 279.142389 
L 191.26061 286.829944 
L 191.995879 279.142389 
L 192.731147 282.986167 
L 193.466416 290.673722 
L 194.201685 286.829944 
L 194.936954 271.454833 
L 195.672222 259.9235 
L 197.14276 267.611056 
L 197.878029 267.611056 
L 198.613297 282.986167 
L 200.083835 306.048833 
L 200.819104 302.205056 
L 201.554372 302.205056 
L 202.289641 306.048833 
L 203.02491 302.205056 
L 203.760179 302.205056 
L 204.495447 306.048833 
L 205.230716 306.048833 
L 205.965985 313.736389 
L 206.701254 317.580167 
L 207.436522 313.736389 
L 208.171791 302.205056 
L 208.90706 282.986167 
L 209.642328 279.142389 
L 210.377597 290.673722 
L 211.112866 298.361278 
L 211.848135 282.986167 
L 213.318672 259.9235 
L 214.053941 267.611056 
L 214.78921 263.767278 
L 215.524478 275.298611 
L 216.259747 290.673722 
L 216.995016 282.986167 
L 217.730285 286.829944 
L 218.465553 302.205056 
L 219.200822 294.5175 
L 219.936091 294.5175 
L 220.67136 298.361278 
L 221.406628 294.5175 
L 222.141897 286.829944 
L 222.877166 286.829944 
L 223.612435 275.298611 
L 224.347703 271.454833 
L 225.082972 275.298611 
L 226.55351 275.298611 
L 227.288778 282.986167 
L 228.024047 271.454833 
L 228.759316 271.454833 
L 230.965122 294.5175 
L 232.43566 286.829944 
L 233.170928 286.829944 
L 233.906197 298.361278 
L 234.641466 306.048833 
L 235.376735 290.673722 
L 236.112003 298.361278 
L 236.847272 286.829944 
L 237.582541 282.986167 
L 238.31781 294.5175 
L 239.053078 302.205056 
L 239.788347 298.361278 
L 240.523616 298.361278 
L 241.258885 302.205056 
L 241.994153 302.205056 
L 242.729422 309.892611 
L 243.464691 298.361278 
L 244.19996 306.048833 
L 244.935228 290.673722 
L 245.670497 294.5175 
L 246.405766 290.673722 
L 247.141035 290.673722 
L 249.346841 244.548389 
L 250.08211 236.860833 
L 250.817378 256.079722 
L 251.552647 248.392167 
L 252.287916 259.9235 
L 253.023185 263.767278 
L 253.758453 248.392167 
L 254.493722 256.079722 
L 255.228991 275.298611 
L 255.96426 298.361278 
L 256.699528 306.048833 
L 257.434797 309.892611 
L 258.170066 309.892611 
L 258.905335 306.048833 
L 260.375872 306.048833 
L 261.111141 302.205056 
L 262.581678 271.454833 
L 263.316947 275.298611 
L 264.052216 275.298611 
L 264.787485 267.611056 
L 265.522753 290.673722 
L 266.258022 302.205056 
L 266.993291 294.5175 
L 267.72856 282.986167 
L 268.463828 290.673722 
L 269.199097 279.142389 
L 269.934366 282.986167 
L 270.669635 306.048833 
L 271.404903 306.048833 
L 272.140172 294.5175 
L 274.345978 294.5175 
L 275.081247 298.361278 
L 275.816516 298.361278 
L 276.551784 302.205056 
L 277.287053 298.361278 
L 278.757591 298.361278 
L 279.492859 286.829944 
L 280.228128 267.611056 
L 280.963397 267.611056 
L 281.698666 282.986167 
L 282.433934 290.673722 
L 283.169203 282.986167 
L 283.904472 282.986167 
L 284.639741 279.142389 
L 285.375009 282.986167 
L 286.110278 290.673722 
L 286.845547 302.205056 
L 287.580816 298.361278 
L 288.316084 275.298611 
L 289.786622 282.986167 
L 290.521891 267.611056 
L 291.257159 286.829944 
L 291.992428 286.829944 
L 292.727697 290.673722 
L 293.462966 286.829944 
L 294.198234 263.767278 
L 294.933503 275.298611 
L 295.668772 275.298611 
L 296.404041 263.767278 
L 297.139309 248.392167 
L 297.874578 267.611056 
L 300.080384 290.673722 
L 300.815653 294.5175 
L 301.550922 279.142389 
L 302.286191 282.986167 
L 303.756728 282.986167 
L 304.491997 279.142389 
L 305.227266 267.611056 
L 305.962534 282.986167 
L 306.697803 282.986167 
L 308.168341 290.673722 
L 308.903609 279.142389 
L 309.638878 282.986167 
L 310.374147 282.986167 
L 311.109416 286.829944 
L 311.844684 271.454833 
L 312.579953 259.9235 
L 314.050491 275.298611 
L 314.785759 275.298611 
L 315.521028 263.767278 
L 316.256297 275.298611 
L 316.991566 271.454833 
L 318.462103 294.5175 
L 319.197372 298.361278 
L 319.932641 290.673722 
L 320.667909 279.142389 
L 321.403178 282.986167 
L 322.873716 259.9235 
L 323.608984 240.704611 
L 324.344253 236.860833 
L 325.814791 252.235944 
L 326.550059 256.079722 
L 328.020597 271.454833 
L 328.755866 282.986167 
L 329.491134 286.829944 
L 330.226403 294.5175 
L 330.961672 290.673722 
L 331.696941 279.142389 
L 332.432209 263.767278 
L 333.167478 259.9235 
L 333.902747 267.611056 
L 334.638016 252.235944 
L 337.579091 267.611056 
L 338.314359 275.298611 
L 339.049628 286.829944 
L 339.784897 294.5175 
L 340.520166 298.361278 
L 341.255434 298.361278 
L 341.990703 290.673722 
L 342.725972 294.5175 
L 343.46124 282.986167 
L 344.196509 286.829944 
L 344.931778 282.986167 
L 345.667047 275.298611 
L 347.137584 290.673722 
L 348.608122 267.611056 
L 349.34339 263.767278 
L 350.078659 271.454833 
L 350.813928 256.079722 
L 351.549197 271.454833 
L 352.284465 282.986167 
L 353.019734 282.986167 
L 353.755003 263.767278 
L 354.490272 275.298611 
L 355.960809 267.611056 
L 356.696078 275.298611 
L 357.431347 252.235944 
L 358.901884 267.611056 
L 359.637153 279.142389 
L 360.372422 267.611056 
L 361.10769 275.298611 
L 361.842959 271.454833 
L 362.578228 252.235944 
L 363.313497 248.392167 
L 364.048765 259.9235 
L 364.784034 275.298611 
L 365.519303 282.986167 
L 366.254572 286.829944 
L 366.98984 294.5175 
L 367.725109 279.142389 
L 369.195647 256.079722 
L 369.930915 252.235944 
L 370.666184 271.454833 
L 371.401453 279.142389 
L 372.136722 267.611056 
L 372.87199 252.235944 
L 373.607259 244.548389 
L 374.342528 252.235944 
L 375.077797 263.767278 
L 375.813065 271.454833 
L 376.548334 294.5175 
L 377.283603 290.673722 
L 378.018872 279.142389 
L 378.75414 282.986167 
L 379.489409 271.454833 
L 380.959947 256.079722 
L 381.695215 271.454833 
L 382.430484 271.454833 
L 383.165753 275.298611 
L 383.901022 286.829944 
L 384.63629 275.298611 
L 385.371559 282.986167 
L 386.842097 259.9235 
L 387.577365 267.611056 
L 388.312634 286.829944 
L 389.783172 286.829944 
L 390.51844 282.986167 
L 391.253709 275.298611 
L 391.988978 282.986167 
L 392.724247 294.5175 
L 393.459515 286.829944 
L 394.194784 290.673722 
L 394.930053 275.298611 
L 395.665322 271.454833 
L 396.40059 275.298611 
L 397.135859 282.986167 
L 397.871128 275.298611 
L 398.606397 263.767278 
L 399.341665 263.767278 
L 400.076934 267.611056 
L 400.812203 256.079722 
L 401.547472 240.704611 
L 402.28274 240.704611 
L 403.753278 263.767278 
L 404.488547 263.767278 
L 405.223815 248.392167 
L 405.959084 259.9235 
L 406.694353 252.235944 
L 407.429622 248.392167 
L 408.16489 263.767278 
L 408.900159 259.9235 
L 409.635428 267.611056 
L 410.370696 259.9235 
L 411.105965 271.454833 
L 411.841234 271.454833 
L 412.576503 290.673722 
L 413.311771 298.361278 
L 414.04704 309.892611 
L 414.782309 306.048833 
L 415.517578 294.5175 
L 416.252846 298.361278 
L 417.723384 298.361278 
L 418.458653 282.986167 
L 419.193921 263.767278 
L 419.92919 252.235944 
L 420.664459 236.860833 
L 421.399728 256.079722 
L 422.134996 252.235944 
L 422.870265 275.298611 
L 423.605534 286.829944 
L 425.076071 302.205056 
L 425.81134 290.673722 
L 426.546609 286.829944 
L 427.281878 290.673722 
L 428.017146 279.142389 
L 428.752415 286.829944 
L 429.487684 290.673722 
L 430.222953 290.673722 
L 430.958221 271.454833 
L 432.428759 279.142389 
L 433.164028 290.673722 
L 433.899296 275.298611 
L 434.634565 271.454833 
L 436.105103 279.142389 
L 436.840371 290.673722 
L 438.310909 306.048833 
L 439.781446 290.673722 
L 441.987253 244.548389 
L 442.722521 263.767278 
L 443.45779 259.9235 
L 444.193059 271.454833 
L 444.928328 286.829944 
L 445.663596 279.142389 
L 447.134134 279.142389 
L 447.869403 267.611056 
L 448.604671 294.5175 
L 449.33994 302.205056 
L 450.075209 302.205056 
L 450.810478 282.986167 
L 451.545746 271.454833 
L 452.281015 263.767278 
L 453.016284 263.767278 
L 453.751553 267.611056 
L 455.22209 282.986167 
L 455.957359 275.298611 
L 456.692628 263.767278 
L 457.427896 279.142389 
L 458.898434 263.767278 
L 459.633703 267.611056 
L 460.368971 282.986167 
L 461.10424 290.673722 
L 461.839509 282.986167 
L 462.574778 267.611056 
L 464.045315 244.548389 
L 465.515853 259.9235 
L 466.251121 263.767278 
L 466.98639 259.9235 
L 467.721659 259.9235 
L 468.456928 267.611056 
L 469.192196 279.142389 
L 469.927465 267.611056 
L 470.662734 275.298611 
L 471.398003 267.611056 
L 472.133271 267.611056 
L 472.86854 271.454833 
L 474.339078 286.829944 
L 475.074346 286.829944 
L 475.809615 271.454833 
L 476.544884 271.454833 
L 477.280152 275.298611 
L 478.015421 290.673722 
L 479.485959 298.361278 
L 480.221227 298.361278 
L 480.956496 282.986167 
L 481.691765 286.829944 
L 482.427034 286.829944 
L 483.162302 290.673722 
L 483.897571 298.361278 
L 484.63284 294.5175 
L 485.368109 294.5175 
L 486.103377 286.829944 
L 486.838646 286.829944 
L 487.573915 282.986167 
L 488.309184 271.454833 
L 489.044452 282.986167 
L 489.779721 267.611056 
L 490.51499 259.9235 
L 491.250259 240.704611 
L 491.985527 263.767278 
L 492.720796 256.079722 
L 493.456065 263.767278 
L 494.191334 259.9235 
L 494.926602 252.235944 
L 495.661871 271.454833 
L 496.39714 256.079722 
L 497.132409 271.454833 
L 497.867677 267.611056 
L 498.602946 275.298611 
L 499.338215 290.673722 
L 500.808752 267.611056 
L 501.544021 259.9235 
L 502.27929 271.454833 
L 503.749827 248.392167 
L 504.485096 248.392167 
L 505.955634 263.767278 
L 506.690902 263.767278 
L 506.690902 263.767278 
" style="fill:none;stroke:#ff7f0e;stroke-linecap:square;stroke-width:1.5;"/>
   </g>
   <g id="line2d_18">
    <path clip-path="url(#p5ed2c75af5)" d="M 112.57509 306.048833 
L 113.310358 298.361278 
L 114.780896 306.048833 
L 115.516165 302.205056 
L 116.251433 294.5175 
L 117.721971 317.580167 
L 118.45724 309.892611 
L 119.192508 306.048833 
L 119.927777 309.892611 
L 120.663046 306.048833 
L 121.398315 306.048833 
L 122.133583 294.5175 
L 122.868852 290.673722 
L 123.604121 298.361278 
L 124.33939 302.205056 
L 126.545196 302.205056 
L 127.280465 306.048833 
L 128.015733 298.361278 
L 128.751002 286.829944 
L 129.486271 286.829944 
L 130.221539 275.298611 
L 130.956808 267.611056 
L 131.692077 282.986167 
L 132.427346 306.048833 
L 133.162614 306.048833 
L 133.897883 294.5175 
L 134.633152 294.5175 
L 136.103689 302.205056 
L 137.574227 294.5175 
L 138.309496 294.5175 
L 139.044764 302.205056 
L 139.780033 282.986167 
L 140.515302 279.142389 
L 141.250571 286.829944 
L 141.985839 275.298611 
L 142.721108 282.986167 
L 143.456377 286.829944 
L 144.191646 294.5175 
L 144.926914 279.142389 
L 146.397452 294.5175 
L 147.132721 290.673722 
L 147.867989 279.142389 
L 148.603258 286.829944 
L 149.338527 298.361278 
L 150.073796 290.673722 
L 150.809064 286.829944 
L 152.279602 294.5175 
L 153.014871 279.142389 
L 154.485408 294.5175 
L 155.220677 290.673722 
L 155.955946 290.673722 
L 156.691214 294.5175 
L 158.161752 294.5175 
L 158.897021 286.829944 
L 159.632289 271.454833 
L 160.367558 282.986167 
L 161.102827 290.673722 
L 161.838096 290.673722 
L 162.573364 294.5175 
L 163.308633 282.986167 
L 164.043902 267.611056 
L 164.779171 271.454833 
L 165.514439 267.611056 
L 166.249708 256.079722 
L 166.984977 271.454833 
L 167.720246 282.986167 
L 169.190783 275.298611 
L 169.926052 279.142389 
L 170.661321 271.454833 
L 171.396589 279.142389 
L 172.131858 290.673722 
L 173.602396 275.298611 
L 174.337664 286.829944 
L 175.072933 290.673722 
L 175.808202 282.986167 
L 176.543471 271.454833 
L 177.278739 275.298611 
L 178.014008 267.611056 
L 178.749277 271.454833 
L 180.219814 294.5175 
L 180.955083 298.361278 
L 181.690352 306.048833 
L 183.160889 275.298611 
L 183.896158 263.767278 
L 184.631427 279.142389 
L 186.101964 279.142389 
L 186.837233 286.829944 
L 187.572502 286.829944 
L 188.307771 290.673722 
L 189.043039 267.611056 
L 189.778308 256.079722 
L 190.513577 248.392167 
L 191.248846 263.767278 
L 191.984114 259.9235 
L 192.719383 271.454833 
L 193.454652 263.767278 
L 194.189921 267.611056 
L 194.925189 267.611056 
L 195.660458 256.079722 
L 196.395727 236.860833 
L 197.130995 240.704611 
L 197.866264 271.454833 
L 198.601533 271.454833 
L 200.807339 259.9235 
L 201.542608 240.704611 
L 202.277877 225.3295 
L 203.013145 236.860833 
L 203.748414 267.611056 
L 204.483683 282.986167 
L 205.218952 282.986167 
L 207.424758 236.860833 
L 208.160027 225.3295 
L 208.895295 233.017056 
L 209.630564 252.235944 
L 210.365833 267.611056 
L 211.101102 259.9235 
L 211.83637 286.829944 
L 212.571639 294.5175 
L 213.306908 298.361278 
L 214.042177 298.361278 
L 214.777445 290.673722 
L 215.512714 275.298611 
L 216.983252 252.235944 
L 217.71852 233.017056 
L 218.453789 221.485722 
L 219.189058 244.548389 
L 219.924327 263.767278 
L 220.659595 275.298611 
L 221.394864 290.673722 
L 222.865402 290.673722 
L 223.60067 298.361278 
L 224.335939 298.361278 
L 225.806477 290.673722 
L 226.541745 282.986167 
L 227.277014 267.611056 
L 228.012283 279.142389 
L 228.747552 286.829944 
L 230.218089 294.5175 
L 230.953358 282.986167 
L 231.688627 275.298611 
L 232.423895 286.829944 
L 233.159164 275.298611 
L 233.894433 259.9235 
L 234.629702 252.235944 
L 235.36497 263.767278 
L 236.100239 256.079722 
L 236.835508 267.611056 
L 237.570777 271.454833 
L 238.306045 279.142389 
L 239.041314 271.454833 
L 239.776583 271.454833 
L 240.511852 279.142389 
L 241.24712 294.5175 
L 242.717658 302.205056 
L 243.452927 290.673722 
L 244.188195 302.205056 
L 244.923464 306.048833 
L 245.658733 286.829944 
L 246.394002 282.986167 
L 247.12927 282.986167 
L 249.335077 294.5175 
L 250.070345 302.205056 
L 250.805614 290.673722 
L 251.540883 298.361278 
L 252.276152 286.829944 
L 253.746689 271.454833 
L 254.481958 279.142389 
L 255.217227 267.611056 
L 255.952495 275.298611 
L 256.687764 271.454833 
L 257.423033 248.392167 
L 258.158302 240.704611 
L 259.628839 217.641944 
L 260.364108 217.641944 
L 261.099377 229.173278 
L 261.834645 252.235944 
L 262.569914 267.611056 
L 263.305183 279.142389 
L 264.040451 282.986167 
L 264.77572 294.5175 
L 265.510989 294.5175 
L 266.246258 302.205056 
L 266.981526 298.361278 
L 267.716795 286.829944 
L 269.187333 294.5175 
L 269.922601 294.5175 
L 270.65787 306.048833 
L 271.393139 306.048833 
L 272.863676 313.736389 
L 273.598945 302.205056 
L 274.334214 286.829944 
L 275.069483 290.673722 
L 276.54002 282.986167 
L 277.275289 282.986167 
L 278.010558 279.142389 
L 278.745826 282.986167 
L 279.481095 290.673722 
L 281.686901 302.205056 
L 283.157439 271.454833 
L 283.892708 271.454833 
L 284.627976 275.298611 
L 285.363245 282.986167 
L 286.098514 275.298611 
L 286.833783 259.9235 
L 287.569051 252.235944 
L 289.774858 275.298611 
L 290.510126 286.829944 
L 291.245395 279.142389 
L 291.980664 279.142389 
L 292.715933 282.986167 
L 293.451201 290.673722 
L 294.18647 306.048833 
L 294.921739 298.361278 
L 295.657008 302.205056 
L 296.392276 313.736389 
L 297.127545 298.361278 
L 297.862814 306.048833 
L 298.598083 306.048833 
L 299.333351 302.205056 
L 300.06862 290.673722 
L 300.803889 290.673722 
L 301.539158 302.205056 
L 302.274426 302.205056 
L 303.744964 294.5175 
L 304.480233 294.5175 
L 305.215501 306.048833 
L 305.95077 309.892611 
L 307.421308 302.205056 
L 308.156576 302.205056 
L 308.891845 290.673722 
L 311.097651 290.673722 
L 311.83292 279.142389 
L 312.568189 263.767278 
L 313.303458 271.454833 
L 314.773995 256.079722 
L 315.509264 275.298611 
L 316.244533 252.235944 
L 316.979801 252.235944 
L 317.71507 263.767278 
L 318.450339 256.079722 
L 319.185608 267.611056 
L 319.920876 282.986167 
L 320.656145 302.205056 
L 321.391414 302.205056 
L 323.59722 313.736389 
L 325.803026 302.205056 
L 326.538295 294.5175 
L 328.008833 294.5175 
L 329.47937 302.205056 
L 330.949907 279.142389 
L 331.685176 263.767278 
L 332.420445 279.142389 
L 333.155714 282.986167 
L 333.890982 282.986167 
L 334.626251 294.5175 
L 335.36152 290.673722 
L 336.096789 290.673722 
L 337.567326 282.986167 
L 338.302595 263.767278 
L 339.037864 256.079722 
L 339.773132 233.017056 
L 341.24367 248.392167 
L 341.978939 271.454833 
L 342.714207 256.079722 
L 343.449476 275.298611 
L 344.184745 263.767278 
L 344.920014 267.611056 
L 345.655282 279.142389 
L 346.390551 282.986167 
L 347.12582 290.673722 
L 347.861089 282.986167 
L 348.596357 279.142389 
L 349.331626 282.986167 
L 350.066895 271.454833 
L 350.802164 279.142389 
L 351.537432 267.611056 
L 353.00797 275.298611 
L 353.743239 282.986167 
L 354.478507 275.298611 
L 355.213776 279.142389 
L 355.949045 275.298611 
L 356.684314 263.767278 
L 357.419582 275.298611 
L 358.89012 252.235944 
L 359.625389 233.017056 
L 360.360657 252.235944 
L 361.831195 282.986167 
L 362.566464 294.5175 
L 363.301732 298.361278 
L 364.037001 298.361278 
L 364.77227 286.829944 
L 365.507539 290.673722 
L 366.242807 290.673722 
L 366.978076 275.298611 
L 367.713345 275.298611 
L 368.448614 282.986167 
L 369.183882 294.5175 
L 369.919151 298.361278 
L 370.65442 286.829944 
L 371.389689 282.986167 
L 372.124957 286.829944 
L 372.860226 298.361278 
L 373.595495 306.048833 
L 374.330764 282.986167 
L 375.066032 286.829944 
L 375.801301 286.829944 
L 376.53657 282.986167 
L 377.271839 286.829944 
L 378.007107 298.361278 
L 378.742376 302.205056 
L 379.477645 298.361278 
L 380.212914 298.361278 
L 380.948182 302.205056 
L 381.683451 294.5175 
L 382.41872 279.142389 
L 383.153989 271.454833 
L 383.889257 282.986167 
L 384.624526 271.454833 
L 385.359795 275.298611 
L 386.095064 282.986167 
L 386.830332 286.829944 
L 388.30087 286.829944 
L 389.036139 290.673722 
L 389.771407 279.142389 
L 391.241945 302.205056 
L 391.977214 290.673722 
L 392.712482 275.298611 
L 393.447751 294.5175 
L 394.18302 298.361278 
L 394.918288 298.361278 
L 395.653557 290.673722 
L 396.388826 275.298611 
L 397.124095 282.986167 
L 398.594632 290.673722 
L 399.329901 282.986167 
L 400.06517 286.829944 
L 400.800438 298.361278 
L 401.535707 286.829944 
L 402.270976 279.142389 
L 403.741513 286.829944 
L 404.476782 282.986167 
L 405.212051 290.673722 
L 405.94732 275.298611 
L 406.682588 282.986167 
L 407.417857 286.829944 
L 408.153126 294.5175 
L 408.888395 275.298611 
L 410.358932 252.235944 
L 411.094201 267.611056 
L 411.82947 259.9235 
L 412.564738 256.079722 
L 413.300007 275.298611 
L 414.035276 282.986167 
L 414.770545 279.142389 
L 415.505813 286.829944 
L 416.241082 290.673722 
L 416.976351 279.142389 
L 417.71162 275.298611 
L 418.446888 298.361278 
L 419.917426 306.048833 
L 420.652695 306.048833 
L 421.387963 290.673722 
L 422.123232 298.361278 
L 422.858501 294.5175 
L 423.59377 298.361278 
L 425.064307 275.298611 
L 425.799576 275.298611 
L 426.534845 279.142389 
L 427.270113 286.829944 
L 428.005382 275.298611 
L 428.740651 252.235944 
L 429.47592 240.704611 
L 430.211188 236.860833 
L 430.946457 252.235944 
L 431.681726 263.767278 
L 432.416995 267.611056 
L 433.152263 275.298611 
L 433.887532 294.5175 
L 434.622801 290.673722 
L 435.35807 294.5175 
L 436.093338 279.142389 
L 436.828607 275.298611 
L 437.563876 290.673722 
L 438.299145 298.361278 
L 439.769682 290.673722 
L 440.504951 294.5175 
L 441.24022 302.205056 
L 442.710757 271.454833 
L 443.446026 263.767278 
L 444.181295 248.392167 
L 444.916563 259.9235 
L 445.651832 275.298611 
L 446.387101 275.298611 
L 447.12237 267.611056 
L 447.857638 275.298611 
L 448.592907 275.298611 
L 450.063445 282.986167 
L 450.798713 279.142389 
L 451.533982 286.829944 
L 452.269251 282.986167 
L 453.00452 282.986167 
L 453.739788 275.298611 
L 455.210326 244.548389 
L 455.945595 244.548389 
L 456.680863 259.9235 
L 457.416132 248.392167 
L 458.151401 252.235944 
L 458.88667 267.611056 
L 459.621938 267.611056 
L 460.357207 259.9235 
L 461.092476 267.611056 
L 461.827744 267.611056 
L 462.563013 275.298611 
L 463.298282 290.673722 
L 464.033551 302.205056 
L 464.768819 302.205056 
L 466.239357 294.5175 
L 466.974626 298.361278 
L 467.709894 306.048833 
L 469.180432 298.361278 
L 469.915701 309.892611 
L 470.650969 313.736389 
L 471.386238 306.048833 
L 472.121507 290.673722 
L 472.856776 279.142389 
L 474.327313 286.829944 
L 475.062582 286.829944 
L 476.533119 294.5175 
L 477.268388 294.5175 
L 478.003657 279.142389 
L 478.738926 259.9235 
L 479.474194 252.235944 
L 480.944732 259.9235 
L 481.680001 248.392167 
L 482.415269 267.611056 
L 483.150538 282.986167 
L 483.885807 290.673722 
L 484.621076 286.829944 
L 486.091613 294.5175 
L 486.826882 306.048833 
L 487.562151 302.205056 
L 489.032688 279.142389 
L 489.767957 282.986167 
L 490.503226 279.142389 
L 491.238494 282.986167 
L 491.973763 279.142389 
L 492.709032 294.5175 
L 493.444301 298.361278 
L 494.914838 298.361278 
L 495.650107 279.142389 
L 496.385376 290.673722 
L 497.120644 279.142389 
L 497.855913 286.829944 
L 498.591182 282.986167 
L 499.326451 275.298611 
L 500.061719 279.142389 
L 500.796988 279.142389 
L 501.532257 282.986167 
L 502.267526 271.454833 
L 503.002794 286.829944 
L 503.738063 286.829944 
L 504.473332 282.986167 
L 505.208601 271.454833 
L 505.943869 271.454833 
L 506.679138 259.9235 
L 507.414407 252.235944 
L 508.149676 259.9235 
L 508.884944 271.454833 
L 509.620213 279.142389 
L 509.620213 279.142389 
" style="fill:none;stroke:#2ca02c;stroke-linecap:square;stroke-width:1.5;"/>
   </g>
   <g id="line2d_19">
    <path clip-path="url(#p5ed2c75af5)" d="M 106.760584 306.048833 
L 107.495853 290.673722 
L 108.231122 282.986167 
L 108.966391 279.142389 
L 110.436928 279.142389 
L 111.172197 275.298611 
L 111.907466 256.079722 
L 112.642734 275.298611 
L 113.378003 279.142389 
L 114.113272 309.892611 
L 115.583809 286.829944 
L 116.319078 271.454833 
L 117.054347 259.9235 
L 118.524884 282.986167 
L 119.260153 271.454833 
L 119.995422 271.454833 
L 120.730691 282.986167 
L 121.465959 286.829944 
L 122.201228 275.298611 
L 122.936497 267.611056 
L 123.671765 263.767278 
L 124.407034 271.454833 
L 125.142303 248.392167 
L 125.877572 244.548389 
L 126.61284 259.9235 
L 127.348109 282.986167 
L 128.083378 286.829944 
L 128.818647 286.829944 
L 129.553915 263.767278 
L 130.289184 275.298611 
L 131.024453 279.142389 
L 131.759722 286.829944 
L 132.49499 275.298611 
L 133.965528 290.673722 
L 134.700797 290.673722 
L 135.436065 294.5175 
L 136.171334 282.986167 
L 136.906603 267.611056 
L 137.641872 267.611056 
L 138.37714 271.454833 
L 139.112409 259.9235 
L 139.847678 271.454833 
L 140.582947 267.611056 
L 141.318215 252.235944 
L 142.053484 267.611056 
L 142.788753 259.9235 
L 143.524022 256.079722 
L 144.25929 267.611056 
L 144.994559 256.079722 
L 145.729828 233.017056 
L 147.200365 271.454833 
L 147.935634 275.298611 
L 148.670903 259.9235 
L 149.406172 275.298611 
L 150.14144 302.205056 
L 150.876709 309.892611 
L 151.611978 302.205056 
L 152.347247 286.829944 
L 153.082515 294.5175 
L 154.553053 286.829944 
L 155.288322 286.829944 
L 156.758859 279.142389 
L 157.494128 290.673722 
L 158.229397 271.454833 
L 158.964665 271.454833 
L 160.435203 286.829944 
L 161.170472 271.454833 
L 161.90574 263.767278 
L 162.641009 248.392167 
L 163.376278 236.860833 
L 164.111547 259.9235 
L 164.846815 271.454833 
L 166.317353 279.142389 
L 167.052622 267.611056 
L 167.78789 244.548389 
L 168.523159 259.9235 
L 169.993697 252.235944 
L 170.728965 279.142389 
L 171.464234 282.986167 
L 172.199503 271.454833 
L 172.934772 256.079722 
L 173.67004 244.548389 
L 174.405309 240.704611 
L 175.140578 252.235944 
L 175.875847 244.548389 
L 176.611115 271.454833 
L 178.081653 286.829944 
L 178.816922 282.986167 
L 180.287459 252.235944 
L 181.757997 229.173278 
L 182.493265 240.704611 
L 183.228534 256.079722 
L 183.963803 263.767278 
L 184.699072 267.611056 
L 185.43434 279.142389 
L 186.169609 279.142389 
L 186.904878 286.829944 
L 187.640147 271.454833 
L 188.375415 263.767278 
L 189.110684 275.298611 
L 189.845953 279.142389 
L 190.581221 279.142389 
L 191.31649 259.9235 
L 192.051759 282.986167 
L 193.522296 298.361278 
L 194.257565 290.673722 
L 194.992834 290.673722 
L 195.728103 302.205056 
L 196.463371 309.892611 
L 197.19864 306.048833 
L 199.404446 259.9235 
L 200.139715 263.767278 
L 202.345521 286.829944 
L 203.08079 279.142389 
L 203.816059 263.767278 
L 204.551328 267.611056 
L 205.286596 279.142389 
L 206.021865 282.986167 
L 206.757134 279.142389 
L 207.492403 286.829944 
L 208.227671 298.361278 
L 208.96294 302.205056 
L 209.698209 290.673722 
L 210.433478 282.986167 
L 211.168746 290.673722 
L 211.904015 275.298611 
L 212.639284 263.767278 
L 213.374553 256.079722 
L 214.109821 259.9235 
L 214.84509 282.986167 
L 216.315628 259.9235 
L 217.050896 279.142389 
L 218.521434 302.205056 
L 219.256703 290.673722 
L 219.991971 271.454833 
L 220.72724 263.767278 
L 222.197778 279.142389 
L 222.933046 279.142389 
L 223.668315 290.673722 
L 224.403584 290.673722 
L 225.138853 286.829944 
L 226.60939 286.829944 
L 227.344659 290.673722 
L 228.079928 279.142389 
L 228.815196 279.142389 
L 230.285734 286.829944 
L 231.756271 263.767278 
L 232.49154 248.392167 
L 233.226809 259.9235 
L 234.697346 252.235944 
L 235.432615 263.767278 
L 236.167884 279.142389 
L 237.638421 302.205056 
L 238.37369 294.5175 
L 239.108959 302.205056 
L 239.844228 302.205056 
L 240.579496 290.673722 
L 241.314765 282.986167 
L 242.050034 290.673722 
L 242.785303 286.829944 
L 243.520571 290.673722 
L 244.25584 271.454833 
L 244.991109 259.9235 
L 245.726378 271.454833 
L 247.196915 271.454833 
L 247.932184 279.142389 
L 249.402721 286.829944 
L 250.13799 279.142389 
L 250.873259 259.9235 
L 251.608528 275.298611 
L 252.343796 263.767278 
L 253.079065 263.767278 
L 253.814334 275.298611 
L 254.549603 282.986167 
L 255.284871 279.142389 
L 256.755409 248.392167 
L 257.490677 259.9235 
L 258.961215 290.673722 
L 259.696484 302.205056 
L 260.431752 302.205056 
L 261.167021 298.361278 
L 261.90229 302.205056 
L 262.637559 290.673722 
L 263.372827 271.454833 
L 264.108096 271.454833 
L 264.843365 282.986167 
L 265.578634 267.611056 
L 266.313902 248.392167 
L 267.049171 248.392167 
L 267.78444 259.9235 
L 268.519709 240.704611 
L 269.254977 259.9235 
L 269.990246 263.767278 
L 270.725515 252.235944 
L 271.460784 263.767278 
L 272.196052 252.235944 
L 274.401859 275.298611 
L 275.137127 259.9235 
L 275.872396 263.767278 
L 276.607665 271.454833 
L 277.342934 271.454833 
L 278.078202 267.611056 
L 278.813471 252.235944 
L 279.54874 271.454833 
L 280.284009 279.142389 
L 281.019277 275.298611 
L 281.754546 275.298611 
L 282.489815 290.673722 
L 283.225084 294.5175 
L 284.695621 286.829944 
L 285.43089 271.454833 
L 286.166159 259.9235 
L 286.901427 267.611056 
L 287.636696 290.673722 
L 288.371965 298.361278 
L 289.842502 298.361278 
L 290.577771 282.986167 
L 291.31304 275.298611 
L 292.048309 275.298611 
L 292.783577 282.986167 
L 293.518846 282.986167 
L 294.254115 286.829944 
L 294.989384 279.142389 
L 295.724652 290.673722 
L 296.459921 306.048833 
L 297.19519 309.892611 
L 297.930459 294.5175 
L 298.665727 275.298611 
L 299.400996 271.454833 
L 300.136265 279.142389 
L 301.606802 256.079722 
L 302.342071 263.767278 
L 303.07734 267.611056 
L 304.547877 267.611056 
L 305.283146 256.079722 
L 306.018415 248.392167 
L 306.753684 252.235944 
L 307.488952 244.548389 
L 308.224221 244.548389 
L 308.95949 263.767278 
L 309.694759 267.611056 
L 310.430027 275.298611 
L 311.165296 279.142389 
L 311.900565 290.673722 
L 312.635834 298.361278 
L 313.371102 279.142389 
L 314.106371 282.986167 
L 314.84164 282.986167 
L 315.576909 271.454833 
L 316.312177 279.142389 
L 317.047446 290.673722 
L 317.782715 282.986167 
L 318.517984 294.5175 
L 319.253252 298.361278 
L 319.988521 294.5175 
L 320.72379 298.361278 
L 321.459059 282.986167 
L 322.194327 271.454833 
L 322.929596 279.142389 
L 323.664865 290.673722 
L 324.400133 290.673722 
L 325.135402 286.829944 
L 325.870671 286.829944 
L 326.60594 282.986167 
L 327.341208 267.611056 
L 328.076477 256.079722 
L 329.547015 225.3295 
L 330.282283 233.017056 
L 331.017552 244.548389 
L 331.752821 267.611056 
L 332.48809 256.079722 
L 333.223358 256.079722 
L 333.958627 263.767278 
L 334.693896 279.142389 
L 336.899702 279.142389 
L 338.37024 286.829944 
L 339.840777 302.205056 
L 341.311315 279.142389 
L 342.046583 271.454833 
L 342.781852 279.142389 
L 343.517121 279.142389 
L 344.987658 286.829944 
L 345.722927 279.142389 
L 346.458196 267.611056 
L 347.193465 275.298611 
L 347.928733 286.829944 
L 348.664002 282.986167 
L 349.399271 282.986167 
L 350.13454 290.673722 
L 350.869808 294.5175 
L 351.605077 302.205056 
L 352.340346 302.205056 
L 353.075615 306.048833 
L 353.810883 302.205056 
L 354.546152 306.048833 
L 355.281421 298.361278 
L 356.01669 294.5175 
L 356.751958 294.5175 
L 357.487227 298.361278 
L 358.957765 298.361278 
L 360.428302 306.048833 
L 361.163571 294.5175 
L 361.89884 298.361278 
L 362.634108 306.048833 
L 364.104646 306.048833 
L 364.839915 290.673722 
L 366.310452 267.611056 
L 367.045721 279.142389 
L 367.78099 286.829944 
L 368.516258 282.986167 
L 369.251527 271.454833 
L 369.986796 290.673722 
L 370.722065 298.361278 
L 371.457333 290.673722 
L 372.192602 290.673722 
L 372.927871 279.142389 
L 373.66314 294.5175 
L 375.868946 294.5175 
L 376.604215 275.298611 
L 377.339483 267.611056 
L 378.074752 282.986167 
L 378.810021 263.767278 
L 380.280558 271.454833 
L 381.015827 259.9235 
L 381.751096 244.548389 
L 383.221633 252.235944 
L 383.956902 244.548389 
L 384.692171 263.767278 
L 385.42744 244.548389 
L 386.162708 256.079722 
L 386.897977 259.9235 
L 387.633246 244.548389 
L 388.368514 233.017056 
L 389.103783 229.173278 
L 389.839052 240.704611 
L 391.309589 233.017056 
L 392.780127 271.454833 
L 393.515396 271.454833 
L 394.985933 286.829944 
L 395.721202 282.986167 
L 397.927008 294.5175 
L 398.662277 294.5175 
L 399.397546 298.361278 
L 400.132814 286.829944 
L 400.868083 286.829944 
L 401.603352 298.361278 
L 402.338621 290.673722 
L 403.073889 279.142389 
L 404.544427 294.5175 
L 405.279696 313.736389 
L 406.014964 309.892611 
L 406.750233 298.361278 
L 407.485502 302.205056 
L 408.956039 286.829944 
L 409.691308 290.673722 
L 410.426577 302.205056 
L 411.161846 286.829944 
L 411.897114 306.048833 
L 412.632383 306.048833 
L 413.367652 290.673722 
L 414.102921 286.829944 
L 414.838189 290.673722 
L 415.573458 275.298611 
L 416.308727 256.079722 
L 417.043996 267.611056 
L 417.779264 267.611056 
L 418.514533 275.298611 
L 419.249802 286.829944 
L 419.985071 286.829944 
L 420.720339 290.673722 
L 421.455608 302.205056 
L 422.190877 309.892611 
L 422.926146 302.205056 
L 423.661414 306.048833 
L 424.396683 286.829944 
L 425.867221 302.205056 
L 427.337758 286.829944 
L 428.073027 294.5175 
L 428.808296 298.361278 
L 429.543564 298.361278 
L 430.278833 306.048833 
L 431.014102 298.361278 
L 431.749371 282.986167 
L 432.484639 275.298611 
L 433.219908 263.767278 
L 433.955177 267.611056 
L 434.690446 263.767278 
L 435.425714 252.235944 
L 436.160983 259.9235 
L 436.896252 259.9235 
L 437.631521 248.392167 
L 438.366789 244.548389 
L 439.102058 252.235944 
L 439.837327 252.235944 
L 440.572596 267.611056 
L 441.307864 290.673722 
L 442.043133 294.5175 
L 442.778402 282.986167 
L 443.513671 286.829944 
L 444.248939 282.986167 
L 444.984208 267.611056 
L 445.719477 275.298611 
L 446.454746 290.673722 
L 447.190014 298.361278 
L 447.925283 294.5175 
L 448.660552 282.986167 
L 449.395821 282.986167 
L 450.131089 286.829944 
L 451.601627 302.205056 
L 452.336896 294.5175 
L 453.072164 290.673722 
L 453.807433 290.673722 
L 455.27797 298.361278 
L 456.748508 298.361278 
L 457.483777 282.986167 
L 458.219045 298.361278 
L 458.954314 290.673722 
L 459.689583 290.673722 
L 460.424852 298.361278 
L 461.16012 302.205056 
L 461.895389 294.5175 
L 463.365927 263.767278 
L 464.101195 256.079722 
L 464.836464 263.767278 
L 465.571733 263.767278 
L 466.307002 267.611056 
L 467.04227 259.9235 
L 467.777539 263.767278 
L 468.512808 263.767278 
L 469.248077 271.454833 
L 469.983345 282.986167 
L 472.189152 294.5175 
L 472.92442 290.673722 
L 473.659689 271.454833 
L 474.394958 256.079722 
L 475.130227 252.235944 
L 475.865495 259.9235 
L 476.600764 271.454833 
L 477.336033 279.142389 
L 478.071302 290.673722 
L 478.80657 294.5175 
L 479.541839 286.829944 
L 480.277108 275.298611 
L 481.012377 282.986167 
L 481.747645 279.142389 
L 482.482914 263.767278 
L 483.218183 244.548389 
L 483.953452 236.860833 
L 484.68872 259.9235 
L 485.423989 275.298611 
L 486.894527 252.235944 
L 487.629795 259.9235 
L 488.365064 279.142389 
L 489.835602 286.829944 
L 490.57087 282.986167 
L 491.306139 286.829944 
L 492.041408 282.986167 
L 492.776677 290.673722 
L 493.511945 290.673722 
L 494.247214 286.829944 
L 494.982483 275.298611 
L 495.717752 259.9235 
L 497.188289 290.673722 
L 498.658827 306.048833 
L 499.394095 302.205056 
L 500.129364 302.205056 
L 500.864633 306.048833 
L 503.070439 271.454833 
L 503.805708 282.986167 
L 503.805708 282.986167 
" style="fill:none;stroke:#d62728;stroke-linecap:square;stroke-width:1.5;"/>
   </g>
   <g id="patch_3">
    <path d="M 83.472344 352.174167 
L 83.472344 35.0625 
" style="fill:none;stroke:#000000;stroke-linecap:square;stroke-linejoin:miter;stroke-width:0.8;"/>
   </g>
   <g id="patch_4">
    <path d="M 529.912969 352.174167 
L 529.912969 35.0625 
" style="fill:none;stroke:#000000;stroke-linecap:square;stroke-linejoin:miter;stroke-width:0.8;"/>
   </g>
   <g id="patch_5">
    <path d="M 83.472344 352.174167 
L 529.912969 352.174167 
" style="fill:none;stroke:#000000;stroke-linecap:square;stroke-linejoin:miter;stroke-width:0.8;"/>
   </g>
   <g id="patch_6">
    <path d="M 83.472344 35.0625 
L 529.912969 35.0625 
" style="fill:none;stroke:#000000;stroke-linecap:square;stroke-linejoin:miter;stroke-width:0.8;"/>
   </g>
   <g id="legend_1">
    <g id="patch_7">
     <path d="M 554.235 96.775 
L 625.430312 96.775 
Q 627.430312 96.775 627.430312 94.775 
L 627.430312 37.0625 
Q 627.430312 35.0625 625.430312 35.0625 
L 554.235 35.0625 
Q 552.235 35.0625 552.235 37.0625 
L 552.235 94.775 
Q 552.235 96.775 554.235 96.775 
z
" style="fill:#ffffff;opacity:0.8;stroke:#cccccc;stroke-linejoin:miter;"/>
    </g>
    <g id="line2d_20">
     <path d="M 556.235 43.160937 
L 576.235 43.160937 
" style="fill:none;stroke:#1f77b4;stroke-linecap:square;stroke-width:1.5;"/>
    </g>
    <g id="line2d_21"/>
    <g id="text_17">
     <!-- cubic-pi -->
     <defs>
      <path d="M 4.890625 31.390625 
L 31.203125 31.390625 
L 31.203125 23.390625 
L 4.890625 23.390625 
z
" id="DejaVuSans-45"/>
     </defs>
     <g transform="translate(584.235 46.660937)scale(0.1 -0.1)">
      <use xlink:href="#DejaVuSans-99"/>
      <use x="54.980469" xlink:href="#DejaVuSans-117"/>
      <use x="118.359375" xlink:href="#DejaVuSans-98"/>
      <use x="181.835938" xlink:href="#DejaVuSans-105"/>
      <use x="209.619141" xlink:href="#DejaVuSans-99"/>
      <use x="264.599609" xlink:href="#DejaVuSans-45"/>
      <use x="300.683594" xlink:href="#DejaVuSans-112"/>
      <use x="364.160156" xlink:href="#DejaVuSans-105"/>
     </g>
    </g>
    <g id="line2d_22">
     <path d="M 556.235 57.839063 
L 576.235 57.839063 
" style="fill:none;stroke:#ff7f0e;stroke-linecap:square;stroke-width:1.5;"/>
    </g>
    <g id="line2d_23"/>
    <g id="text_18">
     <!-- cubic-pi -->
     <g transform="translate(584.235 61.339063)scale(0.1 -0.1)">
      <use xlink:href="#DejaVuSans-99"/>
      <use x="54.980469" xlink:href="#DejaVuSans-117"/>
      <use x="118.359375" xlink:href="#DejaVuSans-98"/>
      <use x="181.835938" xlink:href="#DejaVuSans-105"/>
      <use x="209.619141" xlink:href="#DejaVuSans-99"/>
      <use x="264.599609" xlink:href="#DejaVuSans-45"/>
      <use x="300.683594" xlink:href="#DejaVuSans-112"/>
      <use x="364.160156" xlink:href="#DejaVuSans-105"/>
     </g>
    </g>
    <g id="line2d_24">
     <path d="M 556.235 72.517187 
L 576.235 72.517187 
" style="fill:none;stroke:#2ca02c;stroke-linecap:square;stroke-width:1.5;"/>
    </g>
    <g id="line2d_25"/>
    <g id="text_19">
     <!-- cubic-pi -->
     <g transform="translate(584.235 76.017187)scale(0.1 -0.1)">
      <use xlink:href="#DejaVuSans-99"/>
      <use x="54.980469" xlink:href="#DejaVuSans-117"/>
      <use x="118.359375" xlink:href="#DejaVuSans-98"/>
      <use x="181.835938" xlink:href="#DejaVuSans-105"/>
      <use x="209.619141" xlink:href="#DejaVuSans-99"/>
      <use x="264.599609" xlink:href="#DejaVuSans-45"/>
      <use x="300.683594" xlink:href="#DejaVuSans-112"/>
      <use x="364.160156" xlink:href="#DejaVuSans-105"/>
     </g>
    </g>
    <g id="line2d_26">
     <path d="M 556.235 87.195312 
L 576.235 87.195312 
" style="fill:none;stroke:#d62728;stroke-linecap:square;stroke-width:1.5;"/>
    </g>
    <g id="line2d_27"/>
    <g id="text_20">
     <!-- cubic-pi -->
     <g transform="translate(584.235 90.695312)scale(0.1 -0.1)">
      <use xlink:href="#DejaVuSans-99"/>
      <use x="54.980469" xlink:href="#DejaVuSans-117"/>
      <use x="118.359375" xlink:href="#DejaVuSans-98"/>
      <use x="181.835938" xlink:href="#DejaVuSans-105"/>
      <use x="209.619141" xlink:href="#DejaVuSans-99"/>
      <use x="264.599609" xlink:href="#DejaVuSans-45"/>
      <use x="300.683594" xlink:href="#DejaVuSans-112"/>
      <use x="364.160156" xlink:href="#DejaVuSans-105"/>
     </g>
    </g>
   </g>
  </g>
  <g id="text_21">
   <!-- result throughput -->
   <defs>
    <path d="M 9.421875 75.984375 
L 18.40625 75.984375 
L 18.40625 0 
L 9.421875 0 
z
" id="DejaVuSans-108"/>
   </defs>
   <g transform="translate(289.320938 17.038125)scale(0.12 -0.12)">
    <use xlink:href="#DejaVuSans-114"/>
    <use x="41.082031" xlink:href="#DejaVuSans-101"/>
    <use x="102.605469" xlink:href="#DejaVuSans-115"/>
    <use x="154.705078" xlink:href="#DejaVuSans-117"/>
    <use x="218.083984" xlink:href="#DejaVuSans-108"/>
    <use x="245.867188" xlink:href="#DejaVuSans-116"/>
    <use x="285.076172" xlink:href="#DejaVuSans-32"/>
    <use x="316.863281" xlink:href="#DejaVuSans-116"/>
    <use x="356.072266" xlink:href="#DejaVuSans-104"/>
    <use x="419.451172" xlink:href="#DejaVuSans-114"/>
    <use x="460.533203" xlink:href="#DejaVuSans-111"/>
    <use x="521.714844" xlink:href="#DejaVuSans-117"/>
    <use x="585.09375" xlink:href="#DejaVuSans-103"/>
    <use x="648.570312" xlink:href="#DejaVuSans-104"/>
    <use x="711.949219" xlink:href="#DejaVuSans-112"/>
    <use x="775.425781" xlink:href="#DejaVuSans-117"/>
    <use x="838.804688" xlink:href="#DejaVuSans-116"/>
   </g>
  </g>
 </g>
 <defs>
  <clipPath id="p5ed2c75af5">
   <rect height="317.111667" width="446.440625" x="83.472344" y="35.0625"/>
  </clipPath>
 </defs>
</svg>
