<?xml version="1.0" encoding="utf-8" standalone="no"?>
<!DOCTYPE svg PUBLIC "-//W3C//DTD SVG 1.1//EN"
  "http://www.w3.org/Graphics/SVG/1.1/DTD/svg11.dtd">
<!-- Created with matplotlib (https://matplotlib.org/) -->
<svg height="396pt" version="1.1" viewBox="0 0 684 396" width="684pt" xmlns="http://www.w3.org/2000/svg" xmlns:xlink="http://www.w3.org/1999/xlink">
 <defs>
  <style type="text/css">
*{stroke-linecap:butt;stroke-linejoin:round;}
  </style>
 </defs>
 <g id="figure_1">
  <g id="patch_1">
   <path d="M 0 396 
L 684 396 
L 684 0 
L 0 0 
z
" style="fill:#ffffff;"/>
  </g>
  <g id="axes_1">
   <g id="patch_2">
    <path d="M 56.807031 352.174167 
L 516.019219 352.174167 
L 516.019219 35.0625 
L 56.807031 35.0625 
z
" style="fill:#ffffff;"/>
   </g>
   <g id="matplotlib.axis_1">
    <g id="xtick_1">
     <g id="line2d_1">
      <defs>
       <path d="M 0 0 
L 0 3.5 
" id="m414c471c2b" style="stroke:#000000;stroke-width:0.8;"/>
      </defs>
      <g>
       <use style="stroke:#000000;stroke-width:0.8;" x="82.911362" xlink:href="#m414c471c2b" y="352.174167"/>
      </g>
     </g>
     <g id="text_1">
      <!-- 0 -->
      <defs>
       <path d="M 31.78125 66.40625 
Q 24.171875 66.40625 20.328125 58.90625 
Q 16.5 51.421875 16.5 36.375 
Q 16.5 21.390625 20.328125 13.890625 
Q 24.171875 6.390625 31.78125 6.390625 
Q 39.453125 6.390625 43.28125 13.890625 
Q 47.125 21.390625 47.125 36.375 
Q 47.125 51.421875 43.28125 58.90625 
Q 39.453125 66.40625 31.78125 66.40625 
z
M 31.78125 74.21875 
Q 44.046875 74.21875 50.515625 64.515625 
Q 56.984375 54.828125 56.984375 36.375 
Q 56.984375 17.96875 50.515625 8.265625 
Q 44.046875 -1.421875 31.78125 -1.421875 
Q 19.53125 -1.421875 13.0625 8.265625 
Q 6.59375 17.96875 6.59375 36.375 
Q 6.59375 54.828125 13.0625 64.515625 
Q 19.53125 74.21875 31.78125 74.21875 
z
" id="DejaVuSans-48"/>
      </defs>
      <g transform="translate(79.730112 366.772604)scale(0.1 -0.1)">
       <use xlink:href="#DejaVuSans-48"/>
      </g>
     </g>
    </g>
    <g id="xtick_2">
     <g id="line2d_2">
      <g>
       <use style="stroke:#000000;stroke-width:0.8;" x="155.532145" xlink:href="#m414c471c2b" y="352.174167"/>
      </g>
     </g>
     <g id="text_2">
      <!-- 50 -->
      <defs>
       <path d="M 10.796875 72.90625 
L 49.515625 72.90625 
L 49.515625 64.59375 
L 19.828125 64.59375 
L 19.828125 46.734375 
Q 21.96875 47.46875 24.109375 47.828125 
Q 26.265625 48.1875 28.421875 48.1875 
Q 40.625 48.1875 47.75 41.5 
Q 54.890625 34.8125 54.890625 23.390625 
Q 54.890625 11.625 47.5625 5.09375 
Q 40.234375 -1.421875 26.90625 -1.421875 
Q 22.3125 -1.421875 17.546875 -0.640625 
Q 12.796875 0.140625 7.71875 1.703125 
L 7.71875 11.625 
Q 12.109375 9.234375 16.796875 8.0625 
Q 21.484375 6.890625 26.703125 6.890625 
Q 35.15625 6.890625 40.078125 11.328125 
Q 45.015625 15.765625 45.015625 23.390625 
Q 45.015625 31 40.078125 35.4375 
Q 35.15625 39.890625 26.703125 39.890625 
Q 22.75 39.890625 18.8125 39.015625 
Q 14.890625 38.140625 10.796875 36.28125 
z
" id="DejaVuSans-53"/>
      </defs>
      <g transform="translate(149.169645 366.772604)scale(0.1 -0.1)">
       <use xlink:href="#DejaVuSans-53"/>
       <use x="63.623047" xlink:href="#DejaVuSans-48"/>
      </g>
     </g>
    </g>
    <g id="xtick_3">
     <g id="line2d_3">
      <g>
       <use style="stroke:#000000;stroke-width:0.8;" x="228.152928" xlink:href="#m414c471c2b" y="352.174167"/>
      </g>
     </g>
     <g id="text_3">
      <!-- 100 -->
      <defs>
       <path d="M 12.40625 8.296875 
L 28.515625 8.296875 
L 28.515625 63.921875 
L 10.984375 60.40625 
L 10.984375 69.390625 
L 28.421875 72.90625 
L 38.28125 72.90625 
L 38.28125 8.296875 
L 54.390625 8.296875 
L 54.390625 0 
L 12.40625 0 
z
" id="DejaVuSans-49"/>
      </defs>
      <g transform="translate(218.609178 366.772604)scale(0.1 -0.1)">
       <use xlink:href="#DejaVuSans-49"/>
       <use x="63.623047" xlink:href="#DejaVuSans-48"/>
       <use x="127.246094" xlink:href="#DejaVuSans-48"/>
      </g>
     </g>
    </g>
    <g id="xtick_4">
     <g id="line2d_4">
      <g>
       <use style="stroke:#000000;stroke-width:0.8;" x="300.773711" xlink:href="#m414c471c2b" y="352.174167"/>
      </g>
     </g>
     <g id="text_4">
      <!-- 150 -->
      <g transform="translate(291.229961 366.772604)scale(0.1 -0.1)">
       <use xlink:href="#DejaVuSans-49"/>
       <use x="63.623047" xlink:href="#DejaVuSans-53"/>
       <use x="127.246094" xlink:href="#DejaVuSans-48"/>
      </g>
     </g>
    </g>
    <g id="xtick_5">
     <g id="line2d_5">
      <g>
       <use style="stroke:#000000;stroke-width:0.8;" x="373.394493" xlink:href="#m414c471c2b" y="352.174167"/>
      </g>
     </g>
     <g id="text_5">
      <!-- 200 -->
      <defs>
       <path d="M 19.1875 8.296875 
L 53.609375 8.296875 
L 53.609375 0 
L 7.328125 0 
L 7.328125 8.296875 
Q 12.9375 14.109375 22.625 23.890625 
Q 32.328125 33.6875 34.8125 36.53125 
Q 39.546875 41.84375 41.421875 45.53125 
Q 43.3125 49.21875 43.3125 52.78125 
Q 43.3125 58.59375 39.234375 62.25 
Q 35.15625 65.921875 28.609375 65.921875 
Q 23.96875 65.921875 18.8125 64.3125 
Q 13.671875 62.703125 7.8125 59.421875 
L 7.8125 69.390625 
Q 13.765625 71.78125 18.9375 73 
Q 24.125 74.21875 28.421875 74.21875 
Q 39.75 74.21875 46.484375 68.546875 
Q 53.21875 62.890625 53.21875 53.421875 
Q 53.21875 48.921875 51.53125 44.890625 
Q 49.859375 40.875 45.40625 35.40625 
Q 44.1875 33.984375 37.640625 27.21875 
Q 31.109375 20.453125 19.1875 8.296875 
z
" id="DejaVuSans-50"/>
      </defs>
      <g transform="translate(363.850743 366.772604)scale(0.1 -0.1)">
       <use xlink:href="#DejaVuSans-50"/>
       <use x="63.623047" xlink:href="#DejaVuSans-48"/>
       <use x="127.246094" xlink:href="#DejaVuSans-48"/>
      </g>
     </g>
    </g>
    <g id="xtick_6">
     <g id="line2d_6">
      <g>
       <use style="stroke:#000000;stroke-width:0.8;" x="446.015276" xlink:href="#m414c471c2b" y="352.174167"/>
      </g>
     </g>
     <g id="text_6">
      <!-- 250 -->
      <g transform="translate(436.471526 366.772604)scale(0.1 -0.1)">
       <use xlink:href="#DejaVuSans-50"/>
       <use x="63.623047" xlink:href="#DejaVuSans-53"/>
       <use x="127.246094" xlink:href="#DejaVuSans-48"/>
      </g>
     </g>
    </g>
   </g>
   <g id="matplotlib.axis_2">
    <g id="ytick_1">
     <g id="line2d_7">
      <defs>
       <path d="M 0 0 
L -3.5 0 
" id="m0a3d38d668" style="stroke:#000000;stroke-width:0.8;"/>
      </defs>
      <g>
       <use style="stroke:#000000;stroke-width:0.8;" x="56.807031" xlink:href="#m0a3d38d668" y="352.174167"/>
      </g>
     </g>
     <g id="text_7">
      <!-- 0 -->
      <g transform="translate(43.444531 355.973385)scale(0.1 -0.1)">
       <use xlink:href="#DejaVuSans-48"/>
      </g>
     </g>
    </g>
    <g id="ytick_2">
     <g id="line2d_8">
      <g>
       <use style="stroke:#000000;stroke-width:0.8;" x="56.807031" xlink:href="#m0a3d38d668" y="314.274733"/>
      </g>
     </g>
     <g id="text_8">
      <!-- 1 -->
      <g transform="translate(43.444531 318.073952)scale(0.1 -0.1)">
       <use xlink:href="#DejaVuSans-49"/>
      </g>
     </g>
    </g>
    <g id="ytick_3">
     <g id="line2d_9">
      <g>
       <use style="stroke:#000000;stroke-width:0.8;" x="56.807031" xlink:href="#m0a3d38d668" y="276.3753"/>
      </g>
     </g>
     <g id="text_9">
      <!-- 2 -->
      <g transform="translate(43.444531 280.174518)scale(0.1 -0.1)">
       <use xlink:href="#DejaVuSans-50"/>
      </g>
     </g>
    </g>
    <g id="ytick_4">
     <g id="line2d_10">
      <g>
       <use style="stroke:#000000;stroke-width:0.8;" x="56.807031" xlink:href="#m0a3d38d668" y="238.475866"/>
      </g>
     </g>
     <g id="text_10">
      <!-- 3 -->
      <defs>
       <path d="M 40.578125 39.3125 
Q 47.65625 37.796875 51.625 33 
Q 55.609375 28.21875 55.609375 21.1875 
Q 55.609375 10.40625 48.1875 4.484375 
Q 40.765625 -1.421875 27.09375 -1.421875 
Q 22.515625 -1.421875 17.65625 -0.515625 
Q 12.796875 0.390625 7.625 2.203125 
L 7.625 11.71875 
Q 11.71875 9.328125 16.59375 8.109375 
Q 21.484375 6.890625 26.8125 6.890625 
Q 36.078125 6.890625 40.9375 10.546875 
Q 45.796875 14.203125 45.796875 21.1875 
Q 45.796875 27.640625 41.28125 31.265625 
Q 36.765625 34.90625 28.71875 34.90625 
L 20.21875 34.90625 
L 20.21875 43.015625 
L 29.109375 43.015625 
Q 36.375 43.015625 40.234375 45.921875 
Q 44.09375 48.828125 44.09375 54.296875 
Q 44.09375 59.90625 40.109375 62.90625 
Q 36.140625 65.921875 28.71875 65.921875 
Q 24.65625 65.921875 20.015625 65.03125 
Q 15.375 64.15625 9.8125 62.3125 
L 9.8125 71.09375 
Q 15.4375 72.65625 20.34375 73.4375 
Q 25.25 74.21875 29.59375 74.21875 
Q 40.828125 74.21875 47.359375 69.109375 
Q 53.90625 64.015625 53.90625 55.328125 
Q 53.90625 49.265625 50.4375 45.09375 
Q 46.96875 40.921875 40.578125 39.3125 
z
" id="DejaVuSans-51"/>
      </defs>
      <g transform="translate(43.444531 242.275085)scale(0.1 -0.1)">
       <use xlink:href="#DejaVuSans-51"/>
      </g>
     </g>
    </g>
    <g id="ytick_5">
     <g id="line2d_11">
      <g>
       <use style="stroke:#000000;stroke-width:0.8;" x="56.807031" xlink:href="#m0a3d38d668" y="200.576432"/>
      </g>
     </g>
     <g id="text_11">
      <!-- 4 -->
      <defs>
       <path d="M 37.796875 64.3125 
L 12.890625 25.390625 
L 37.796875 25.390625 
z
M 35.203125 72.90625 
L 47.609375 72.90625 
L 47.609375 25.390625 
L 58.015625 25.390625 
L 58.015625 17.1875 
L 47.609375 17.1875 
L 47.609375 0 
L 37.796875 0 
L 37.796875 17.1875 
L 4.890625 17.1875 
L 4.890625 26.703125 
z
" id="DejaVuSans-52"/>
      </defs>
      <g transform="translate(43.444531 204.375651)scale(0.1 -0.1)">
       <use xlink:href="#DejaVuSans-52"/>
      </g>
     </g>
    </g>
    <g id="ytick_6">
     <g id="line2d_12">
      <g>
       <use style="stroke:#000000;stroke-width:0.8;" x="56.807031" xlink:href="#m0a3d38d668" y="162.676999"/>
      </g>
     </g>
     <g id="text_12">
      <!-- 5 -->
      <g transform="translate(43.444531 166.476218)scale(0.1 -0.1)">
       <use xlink:href="#DejaVuSans-53"/>
      </g>
     </g>
    </g>
    <g id="ytick_7">
     <g id="line2d_13">
      <g>
       <use style="stroke:#000000;stroke-width:0.8;" x="56.807031" xlink:href="#m0a3d38d668" y="124.777565"/>
      </g>
     </g>
     <g id="text_13">
      <!-- 6 -->
      <defs>
       <path d="M 33.015625 40.375 
Q 26.375 40.375 22.484375 35.828125 
Q 18.609375 31.296875 18.609375 23.390625 
Q 18.609375 15.53125 22.484375 10.953125 
Q 26.375 6.390625 33.015625 6.390625 
Q 39.65625 6.390625 43.53125 10.953125 
Q 47.40625 15.53125 47.40625 23.390625 
Q 47.40625 31.296875 43.53125 35.828125 
Q 39.65625 40.375 33.015625 40.375 
z
M 52.59375 71.296875 
L 52.59375 62.3125 
Q 48.875 64.0625 45.09375 64.984375 
Q 41.3125 65.921875 37.59375 65.921875 
Q 27.828125 65.921875 22.671875 59.328125 
Q 17.53125 52.734375 16.796875 39.40625 
Q 19.671875 43.65625 24.015625 45.921875 
Q 28.375 48.1875 33.59375 48.1875 
Q 44.578125 48.1875 50.953125 41.515625 
Q 57.328125 34.859375 57.328125 23.390625 
Q 57.328125 12.15625 50.6875 5.359375 
Q 44.046875 -1.421875 33.015625 -1.421875 
Q 20.359375 -1.421875 13.671875 8.265625 
Q 6.984375 17.96875 6.984375 36.375 
Q 6.984375 53.65625 15.1875 63.9375 
Q 23.390625 74.21875 37.203125 74.21875 
Q 40.921875 74.21875 44.703125 73.484375 
Q 48.484375 72.75 52.59375 71.296875 
z
" id="DejaVuSans-54"/>
      </defs>
      <g transform="translate(43.444531 128.576784)scale(0.1 -0.1)">
       <use xlink:href="#DejaVuSans-54"/>
      </g>
     </g>
    </g>
    <g id="ytick_8">
     <g id="line2d_14">
      <g>
       <use style="stroke:#000000;stroke-width:0.8;" x="56.807031" xlink:href="#m0a3d38d668" y="86.878132"/>
      </g>
     </g>
     <g id="text_14">
      <!-- 7 -->
      <defs>
       <path d="M 8.203125 72.90625 
L 55.078125 72.90625 
L 55.078125 68.703125 
L 28.609375 0 
L 18.3125 0 
L 43.21875 64.59375 
L 8.203125 64.59375 
z
" id="DejaVuSans-55"/>
      </defs>
      <g transform="translate(43.444531 90.677351)scale(0.1 -0.1)">
       <use xlink:href="#DejaVuSans-55"/>
      </g>
     </g>
    </g>
    <g id="ytick_9">
     <g id="line2d_15">
      <g>
       <use style="stroke:#000000;stroke-width:0.8;" x="56.807031" xlink:href="#m0a3d38d668" y="48.978698"/>
      </g>
     </g>
     <g id="text_15">
      <!-- 8 -->
      <defs>
       <path d="M 31.78125 34.625 
Q 24.75 34.625 20.71875 30.859375 
Q 16.703125 27.09375 16.703125 20.515625 
Q 16.703125 13.921875 20.71875 10.15625 
Q 24.75 6.390625 31.78125 6.390625 
Q 38.8125 6.390625 42.859375 10.171875 
Q 46.921875 13.96875 46.921875 20.515625 
Q 46.921875 27.09375 42.890625 30.859375 
Q 38.875 34.625 31.78125 34.625 
z
M 21.921875 38.8125 
Q 15.578125 40.375 12.03125 44.71875 
Q 8.5 49.078125 8.5 55.328125 
Q 8.5 64.0625 14.71875 69.140625 
Q 20.953125 74.21875 31.78125 74.21875 
Q 42.671875 74.21875 48.875 69.140625 
Q 55.078125 64.0625 55.078125 55.328125 
Q 55.078125 49.078125 51.53125 44.71875 
Q 48 40.375 41.703125 38.8125 
Q 48.828125 37.15625 52.796875 32.3125 
Q 56.78125 27.484375 56.78125 20.515625 
Q 56.78125 9.90625 50.3125 4.234375 
Q 43.84375 -1.421875 31.78125 -1.421875 
Q 19.734375 -1.421875 13.25 4.234375 
Q 6.78125 9.90625 6.78125 20.515625 
Q 6.78125 27.484375 10.78125 32.3125 
Q 14.796875 37.15625 21.921875 38.8125 
z
M 18.3125 54.390625 
Q 18.3125 48.734375 21.84375 45.5625 
Q 25.390625 42.390625 31.78125 42.390625 
Q 38.140625 42.390625 41.71875 45.5625 
Q 45.3125 48.734375 45.3125 54.390625 
Q 45.3125 60.0625 41.71875 63.234375 
Q 38.140625 66.40625 31.78125 66.40625 
Q 25.390625 66.40625 21.84375 63.234375 
Q 18.3125 60.0625 18.3125 54.390625 
z
" id="DejaVuSans-56"/>
      </defs>
      <g transform="translate(43.444531 52.777917)scale(0.1 -0.1)">
       <use xlink:href="#DejaVuSans-56"/>
      </g>
     </g>
    </g>
    <g id="text_16">
     <!-- droprate -->
     <defs>
      <path d="M 45.40625 46.390625 
L 45.40625 75.984375 
L 54.390625 75.984375 
L 54.390625 0 
L 45.40625 0 
L 45.40625 8.203125 
Q 42.578125 3.328125 38.25 0.953125 
Q 33.9375 -1.421875 27.875 -1.421875 
Q 17.96875 -1.421875 11.734375 6.484375 
Q 5.515625 14.40625 5.515625 27.296875 
Q 5.515625 40.1875 11.734375 48.09375 
Q 17.96875 56 27.875 56 
Q 33.9375 56 38.25 53.625 
Q 42.578125 51.265625 45.40625 46.390625 
z
M 14.796875 27.296875 
Q 14.796875 17.390625 18.875 11.75 
Q 22.953125 6.109375 30.078125 6.109375 
Q 37.203125 6.109375 41.296875 11.75 
Q 45.40625 17.390625 45.40625 27.296875 
Q 45.40625 37.203125 41.296875 42.84375 
Q 37.203125 48.484375 30.078125 48.484375 
Q 22.953125 48.484375 18.875 42.84375 
Q 14.796875 37.203125 14.796875 27.296875 
z
" id="DejaVuSans-100"/>
      <path d="M 41.109375 46.296875 
Q 39.59375 47.171875 37.8125 47.578125 
Q 36.03125 48 33.890625 48 
Q 26.265625 48 22.1875 43.046875 
Q 18.109375 38.09375 18.109375 28.8125 
L 18.109375 0 
L 9.078125 0 
L 9.078125 54.6875 
L 18.109375 54.6875 
L 18.109375 46.1875 
Q 20.953125 51.171875 25.484375 53.578125 
Q 30.03125 56 36.53125 56 
Q 37.453125 56 38.578125 55.875 
Q 39.703125 55.765625 41.0625 55.515625 
z
" id="DejaVuSans-114"/>
      <path d="M 30.609375 48.390625 
Q 23.390625 48.390625 19.1875 42.75 
Q 14.984375 37.109375 14.984375 27.296875 
Q 14.984375 17.484375 19.15625 11.84375 
Q 23.34375 6.203125 30.609375 6.203125 
Q 37.796875 6.203125 41.984375 11.859375 
Q 46.1875 17.53125 46.1875 27.296875 
Q 46.1875 37.015625 41.984375 42.703125 
Q 37.796875 48.390625 30.609375 48.390625 
z
M 30.609375 56 
Q 42.328125 56 49.015625 48.375 
Q 55.71875 40.765625 55.71875 27.296875 
Q 55.71875 13.875 49.015625 6.21875 
Q 42.328125 -1.421875 30.609375 -1.421875 
Q 18.84375 -1.421875 12.171875 6.21875 
Q 5.515625 13.875 5.515625 27.296875 
Q 5.515625 40.765625 12.171875 48.375 
Q 18.84375 56 30.609375 56 
z
" id="DejaVuSans-111"/>
      <path d="M 18.109375 8.203125 
L 18.109375 -20.796875 
L 9.078125 -20.796875 
L 9.078125 54.6875 
L 18.109375 54.6875 
L 18.109375 46.390625 
Q 20.953125 51.265625 25.265625 53.625 
Q 29.59375 56 35.59375 56 
Q 45.5625 56 51.78125 48.09375 
Q 58.015625 40.1875 58.015625 27.296875 
Q 58.015625 14.40625 51.78125 6.484375 
Q 45.5625 -1.421875 35.59375 -1.421875 
Q 29.59375 -1.421875 25.265625 0.953125 
Q 20.953125 3.328125 18.109375 8.203125 
z
M 48.6875 27.296875 
Q 48.6875 37.203125 44.609375 42.84375 
Q 40.53125 48.484375 33.40625 48.484375 
Q 26.265625 48.484375 22.1875 42.84375 
Q 18.109375 37.203125 18.109375 27.296875 
Q 18.109375 17.390625 22.1875 11.75 
Q 26.265625 6.109375 33.40625 6.109375 
Q 40.53125 6.109375 44.609375 11.75 
Q 48.6875 17.390625 48.6875 27.296875 
z
" id="DejaVuSans-112"/>
      <path d="M 34.28125 27.484375 
Q 23.390625 27.484375 19.1875 25 
Q 14.984375 22.515625 14.984375 16.5 
Q 14.984375 11.71875 18.140625 8.90625 
Q 21.296875 6.109375 26.703125 6.109375 
Q 34.1875 6.109375 38.703125 11.40625 
Q 43.21875 16.703125 43.21875 25.484375 
L 43.21875 27.484375 
z
M 52.203125 31.203125 
L 52.203125 0 
L 43.21875 0 
L 43.21875 8.296875 
Q 40.140625 3.328125 35.546875 0.953125 
Q 30.953125 -1.421875 24.3125 -1.421875 
Q 15.921875 -1.421875 10.953125 3.296875 
Q 6 8.015625 6 15.921875 
Q 6 25.140625 12.171875 29.828125 
Q 18.359375 34.515625 30.609375 34.515625 
L 43.21875 34.515625 
L 43.21875 35.40625 
Q 43.21875 41.609375 39.140625 45 
Q 35.0625 48.390625 27.6875 48.390625 
Q 23 48.390625 18.546875 47.265625 
Q 14.109375 46.140625 10.015625 43.890625 
L 10.015625 52.203125 
Q 14.9375 54.109375 19.578125 55.046875 
Q 24.21875 56 28.609375 56 
Q 40.484375 56 46.34375 49.84375 
Q 52.203125 43.703125 52.203125 31.203125 
z
" id="DejaVuSans-97"/>
      <path d="M 18.3125 70.21875 
L 18.3125 54.6875 
L 36.8125 54.6875 
L 36.8125 47.703125 
L 18.3125 47.703125 
L 18.3125 18.015625 
Q 18.3125 11.328125 20.140625 9.421875 
Q 21.96875 7.515625 27.59375 7.515625 
L 36.8125 7.515625 
L 36.8125 0 
L 27.59375 0 
Q 17.1875 0 13.234375 3.875 
Q 9.28125 7.765625 9.28125 18.015625 
L 9.28125 47.703125 
L 2.6875 47.703125 
L 2.6875 54.6875 
L 9.28125 54.6875 
L 9.28125 70.21875 
z
" id="DejaVuSans-116"/>
      <path d="M 56.203125 29.59375 
L 56.203125 25.203125 
L 14.890625 25.203125 
Q 15.484375 15.921875 20.484375 11.0625 
Q 25.484375 6.203125 34.421875 6.203125 
Q 39.59375 6.203125 44.453125 7.46875 
Q 49.3125 8.734375 54.109375 11.28125 
L 54.109375 2.78125 
Q 49.265625 0.734375 44.1875 -0.34375 
Q 39.109375 -1.421875 33.890625 -1.421875 
Q 20.796875 -1.421875 13.15625 6.1875 
Q 5.515625 13.8125 5.515625 26.8125 
Q 5.515625 40.234375 12.765625 48.109375 
Q 20.015625 56 32.328125 56 
Q 43.359375 56 49.78125 48.890625 
Q 56.203125 41.796875 56.203125 29.59375 
z
M 47.21875 32.234375 
Q 47.125 39.59375 43.09375 43.984375 
Q 39.0625 48.390625 32.421875 48.390625 
Q 24.90625 48.390625 20.390625 44.140625 
Q 15.875 39.890625 15.1875 32.171875 
z
" id="DejaVuSans-101"/>
     </defs>
     <g transform="translate(37.364844 215.236302)rotate(-90)scale(0.1 -0.1)">
      <use xlink:href="#DejaVuSans-100"/>
      <use x="63.476562" xlink:href="#DejaVuSans-114"/>
      <use x="104.558594" xlink:href="#DejaVuSans-111"/>
      <use x="165.740234" xlink:href="#DejaVuSans-112"/>
      <use x="229.216797" xlink:href="#DejaVuSans-114"/>
      <use x="270.330078" xlink:href="#DejaVuSans-97"/>
      <use x="331.609375" xlink:href="#DejaVuSans-116"/>
      <use x="370.818359" xlink:href="#DejaVuSans-101"/>
     </g>
    </g>
   </g>
   <g id="line2d_16">
    <path clip-path="url(#pda3cd3f3a8)" d="M 77.680312 352.174167 
L 83.934293 352.174167 
L 84.087663 275.939674 
L 84.240658 352.174167 
L 85.327998 352.174167 
L 85.483924 325.371173 
L 85.640625 352.174167 
L 88.119136 352.174167 
L 88.273176 217.204674 
L 88.42779 352.174167 
L 90.435876 352.174167 
L 90.589862 341.376607 
L 90.743688 352.174167 
L 91.054014 352.174167 
L 91.207602 281.88991 
L 91.515326 352.174167 
L 93.214117 352.174167 
L 93.371006 341.54319 
L 93.678175 352.174167 
L 94.457859 352.174167 
L 94.611709 341.376607 
L 94.765649 352.174167 
L 95.226565 352.174167 
L 95.382263 346.805975 
L 95.536631 352.174167 
L 95.845986 352.174167 
L 96.000571 346.783067 
L 96.154543 346.775387 
L 96.308152 352.174167 
L 97.077495 352.174167 
L 97.231255 341.330266 
L 97.385021 352.174167 
L 98.467002 352.174167 
L 98.623146 341.483212 
L 98.778803 352.174167 
L 99.706523 352.174167 
L 99.860878 330.579048 
L 100.015995 352.174167 
L 101.718311 352.174167 
L 101.871991 341.345757 
L 102.18082 352.174167 
L 103.10761 352.174167 
L 103.261087 341.330266 
L 103.415819 352.174167 
L 104.496907 352.174167 
L 104.651723 336.02384 
L 104.806241 352.174167 
L 106.196056 352.174167 
L 106.35218 341.468112 
L 106.505564 341.330266 
L 106.659013 352.174167 
L 107.735478 352.174167 
L 107.88893 319.502241 
L 108.042021 352.174167 
L 109.584549 352.174167 
L 109.739528 336.000866 
L 109.893737 352.174167 
L 110.984206 352.174167 
L 111.291917 341.345757 
L 111.445958 352.174167 
L 112.835115 352.174167 
L 112.989653 330.548242 
L 113.143735 352.174167 
L 114.537614 352.174167 
L 114.691565 346.759962 
L 114.845582 335.931552 
L 115.00165 352.174167 
L 116.077276 352.174167 
L 116.231094 325.064414 
L 116.384691 352.174167 
L 118.39274 352.174167 
L 118.547056 341.391967 
L 118.70128 352.174167 
L 119.47643 352.174167 
L 119.631232 145.13629 
L 119.789845 352.174167 
L 121.952576 352.174167 
L 122.110026 346.873547 
L 122.266626 352.174167 
L 122.579319 352.174167 
L 122.732276 346.736658 
L 122.885604 352.174167 
L 123.191548 352.174167 
L 123.34436 346.728846 
L 123.498497 352.174167 
L 123.960465 352.174167 
L 124.113944 346.752216 
L 124.267621 352.174167 
L 124.886261 352.174167 
L 125.042952 330.88235 
L 125.199415 352.174167 
L 127.204542 352.174167 
L 127.358619 335.954723 
L 127.512368 352.174167 
L 128.434769 352.174167 
L 128.587559 335.838204 
L 128.74206 352.174167 
L 129.665996 352.174167 
L 129.819486 335.908315 
L 129.973295 352.174167 
L 131.058304 352.174167 
L 131.212978 341.422554 
L 131.367004 352.174167 
L 132.445059 352.174167 
L 132.602674 341.572927 
L 132.755782 352.174167 
L 133.677887 352.174167 
L 133.831125 335.838204 
L 133.984277 352.174167 
L 134.138247 352.174167 
L 134.291752 346.752216 
L 134.445607 352.174167 
L 135.060221 352.174167 
L 135.368477 335.977828 
L 135.521866 352.174167 
L 137.068845 352.174167 
L 137.223579 341.361204 
L 137.377111 352.174167 
L 137.686036 352.174167 
L 137.839531 341.31473 
L 137.997095 341.572927 
L 138.150965 352.174167 
L 138.921463 352.174167 
L 139.084237 341.903317 
L 139.241868 352.174167 
L 140.322505 352.174167 
L 140.484525 347.017781 
L 140.638744 352.174167 
L 141.105822 352.174167 
L 141.259164 330.517347 
L 141.412497 352.174167 
L 143.112465 352.174167 
L 143.265297 335.861641 
L 143.418147 352.174167 
L 145.136023 352.174167 
L 145.293319 330.941991 
L 145.446712 352.174167 
L 147.003517 352.174167 
L 147.15935 330.762057 
L 147.313202 352.174167 
L 148.407841 352.174167 
L 148.5645 341.587733 
L 148.719773 352.174167 
L 149.03196 352.174167 
L 149.187616 346.813568 
L 149.343416 352.174167 
L 149.663933 352.174167 
L 149.820614 341.587733 
L 149.975106 352.174167 
L 150.920364 352.174167 
L 151.082235 326.531789 
L 151.242988 352.174167 
L 152.016667 352.174167 
L 152.172581 341.468112 
L 152.327492 341.437783 
L 152.481838 352.174167 
L 153.889362 352.174167 
L 154.043857 335.977828 
L 154.197958 352.174167 
L 155.30261 352.174167 
L 155.460932 325.891619 
L 155.616452 352.174167 
L 156.863047 352.174167 
L 157.022316 346.910356 
L 157.176493 352.174167 
L 157.639698 352.174167 
L 157.793611 341.391967 
L 158.10605 352.174167 
L 159.028858 352.174167 
L 159.18167 335.791126 
L 159.341732 352.174167 
L 161.042448 352.174167 
L 161.19614 341.345757 
L 161.350827 352.174167 
L 162.283073 352.174167 
L 162.436726 346.783067 
L 162.590379 352.174167 
L 163.065187 352.174167 
L 163.218725 319.688938 
L 163.379443 352.174167 
L 164.927301 352.174167 
L 165.082891 336.069592 
L 165.23664 352.174167 
L 166.318051 352.174167 
L 166.471779 330.548242 
L 166.626971 352.174167 
L 167.548464 352.174167 
L 167.707026 325.781803 
L 167.862486 352.174167 
L 169.881205 352.174167 
L 170.035255 341.361204 
L 170.190467 352.174167 
L 170.499047 352.174167 
L 170.653284 346.775387 
L 170.806467 352.174167 
L 170.959253 352.174167 
L 171.112136 341.25214 
L 171.264818 352.174167 
L 171.573028 352.174167 
L 171.72605 335.814699 
L 171.879239 352.174167 
L 173.271472 352.174167 
L 173.42506 341.31473 
L 173.580125 352.174167 
L 174.045106 352.174167 
L 174.198874 341.376607 
L 174.351861 352.174167 
L 175.131572 352.174167 
L 175.289256 346.88095 
L 175.443085 352.174167 
L 175.597251 352.174167 
L 175.754324 346.866123 
L 175.907558 346.744448 
L 176.062439 352.174167 
L 177.307526 352.174167 
L 177.463555 341.468112 
L 177.620348 352.174167 
L 178.707527 352.174167 
L 178.860692 341.31473 
L 179.01651 352.174167 
L 179.78758 352.174167 
L 179.941608 341.361204 
L 180.094839 341.29915 
L 180.251746 352.174167 
L 182.257983 352.174167 
L 182.412064 346.790724 
L 182.565878 352.174167 
L 183.035114 352.174167 
L 183.188025 346.759962 
L 183.345053 352.174167 
L 183.657329 352.174167 
L 183.811228 330.609766 
L 183.964887 352.174167 
L 185.9842 352.174167 
L 186.136777 330.330113 
L 186.29433 352.174167 
L 188.003075 352.174167 
L 188.156441 335.861641 
L 188.310086 352.174167 
L 189.086986 352.174167 
L 189.244694 346.873547 
L 189.399765 352.174167 
L 189.867789 352.174167 
L 190.0206 346.713153 
L 190.173152 352.174167 
L 190.484495 352.174167 
L 190.64189 346.866123 
L 190.794975 352.174167 
L 191.262619 352.174167 
L 191.421145 336.448261 
L 191.57378 352.174167 
L 192.662475 352.174167 
L 192.816267 335.908315 
L 192.973493 352.174167 
L 194.370507 352.174167 
L 194.526742 341.513285 
L 194.835651 352.174167 
L 195.766772 352.174167 
L 195.925078 346.895694 
L 196.07923 346.790724 
L 196.234459 352.174167 
L 197.010008 352.174167 
L 197.166498 336.182844 
L 197.322615 352.174167 
L 198.882311 352.174167 
L 199.039089 336.316663 
L 199.195397 352.174167 
L 199.971721 352.174167 
L 200.126415 341.391967 
L 200.281073 352.174167 
L 201.056224 352.174167 
L 201.209403 341.31473 
L 201.366032 352.174167 
L 201.988043 352.174167 
L 202.299676 341.49827 
L 202.455609 352.174167 
L 203.386489 352.174167 
L 203.53977 330.392883 
L 203.693612 352.174167 
L 205.248399 352.174167 
L 205.405711 341.54319 
L 205.559721 352.174167 
L 206.487946 352.174167 
L 206.644545 346.836218 
L 206.804292 346.946659 
L 206.960844 352.174167 
L 207.887234 352.174167 
L 208.041153 341.345757 
L 208.194901 352.174167 
L 209.445792 352.174167 
L 209.601232 336.137735 
L 209.757117 352.174167 
L 211.449478 352.174167 
L 211.609769 331.235253 
L 211.762721 352.174167 
L 213.304197 352.174167 
L 213.460084 336.137735 
L 213.61844 352.174167 
L 213.927727 352.174167 
L 214.235608 341.330266 
L 214.389123 352.174167 
L 215.168325 352.174167 
L 215.322305 325.064414 
L 215.47723 352.174167 
L 217.174764 352.174167 
L 217.330636 341.483212 
L 217.484464 352.174167 
L 217.801605 352.174167 
L 218.10855 341.31473 
L 218.26618 352.174167 
L 219.50249 352.174167 
L 219.655722 346.736658 
L 219.80958 335.931552 
L 219.962951 352.174167 
L 221.52684 352.174167 
L 221.68082 341.376607 
L 221.834023 352.174167 
L 222.925935 352.174167 
L 223.085828 336.513244 
L 223.240956 352.174167 
L 224.79003 352.174167 
L 224.947645 331.030829 
L 225.102124 352.174167 
L 226.648877 352.174167 
L 226.804154 336.115085 
L 226.961252 352.174167 
L 228.041917 352.174167 
L 228.195768 335.954723 
L 228.350857 352.174167 
L 229.591128 352.174167 
L 229.746847 346.836218 
L 229.902197 346.79836 
L 230.058041 352.174167 
L 230.981615 352.174167 
L 231.137094 346.813568 
L 231.294844 352.174167 
L 231.760516 352.174167 
L 232.071118 341.330266 
L 232.226579 352.174167 
L 232.533512 352.174167 
L 232.686234 335.791126 
L 232.844103 352.174167 
L 234.244953 352.174167 
L 234.398651 341.345757 
L 234.555291 352.174167 
L 235.633165 352.174167 
L 235.79458 331.520524 
L 235.948138 352.174167 
L 237.336549 352.174167 
L 237.648471 341.587733 
L 237.801515 352.174167 
L 238.890337 352.174167 
L 239.049209 336.448261 
L 239.202879 352.174167 
L 240.125015 352.174167 
L 240.279318 346.767685 
L 240.433219 352.174167 
L 240.896782 352.174167 
L 241.050905 341.391967 
L 241.205339 352.174167 
L 242.286541 352.174167 
L 242.440362 341.330266 
L 242.594812 352.174167 
L 243.675177 352.174167 
L 243.831939 336.182844 
L 243.987276 352.174167 
L 244.756775 352.174167 
L 244.911539 330.640398 
L 245.064972 352.174167 
L 246.616164 352.174167 
L 246.770333 346.767685 
L 246.923502 346.736658 
L 247.078663 352.174167 
L 248.166466 352.174167 
L 248.32132 330.7014 
L 248.479072 352.174167 
L 249.405898 352.174167 
L 249.561296 330.7014 
L 249.7154 352.174167 
L 251.728044 352.174167 
L 251.881888 341.391967 
L 252.03719 341.437783 
L 252.192873 352.174167 
L 252.968377 352.174167 
L 253.128001 346.939438 
L 253.281927 336.046748 
L 253.437129 352.174167 
L 254.205326 352.174167 
L 254.361166 336.115085 
L 254.514177 352.174167 
L 254.824182 352.174167 
L 254.977344 335.885012 
L 255.133159 341.452969 
L 255.286883 352.174167 
L 257.148611 352.174167 
L 257.302512 341.330266 
L 257.459931 352.174167 
L 258.706489 352.174167 
L 258.860728 330.609766 
L 259.015229 352.174167 
L 259.797263 352.174167 
L 259.951814 346.783067 
L 260.104843 352.174167 
L 260.565061 352.174167 
L 260.718482 335.908315 
L 260.873038 352.174167 
L 262.265021 352.174167 
L 262.419598 346.775387 
L 262.574135 330.640398 
L 262.729061 352.174167 
L 264.121151 352.174167 
L 264.277542 336.205304 
L 264.434733 352.174167 
L 264.896339 352.174167 
L 265.051739 346.790724 
L 265.20568 352.174167 
L 265.514648 352.174167 
L 265.82252 341.345757 
L 265.976831 352.174167 
L 266.595257 352.174167 
L 266.750548 346.805975 
L 266.904601 352.174167 
L 267.374372 352.174167 
L 267.681954 336.000866 
L 267.83642 352.174167 
L 269.238249 352.174167 
L 269.394647 336.160322 
L 269.550946 352.174167 
L 271.094761 352.174167 
L 271.248439 341.345757 
L 271.404684 352.174167 
L 272.349058 352.174167 
L 272.502761 341.330266 
L 272.658973 352.174167 
L 272.811979 352.174167 
L 272.965841 341.330266 
L 273.274332 352.174167 
L 274.208728 352.174167 
L 274.367776 331.148129 
L 274.52674 352.174167 
L 275.295911 352.174167 
L 275.453317 346.858678 
L 275.61449 352.174167 
L 276.085283 352.174167 
L 276.238942 341.330266 
L 276.393978 352.174167 
L 276.546901 324.947562 
L 276.703587 352.174167 
L 278.71959 352.174167 
L 278.873403 335.931552 
L 279.029293 352.174167 
L 280.876856 352.174167 
L 281.030723 341.345757 
L 281.183772 352.174167 
L 281.960817 352.174167 
L 282.114788 346.752216 
L 282.268972 352.174167 
L 282.729462 352.174167 
L 282.882334 330.361543 
L 283.035236 352.174167 
L 284.5652 352.174167 
L 284.717822 346.713153 
L 284.870573 352.174167 
L 285.176283 352.174167 
L 285.329007 346.721011 
L 285.481501 346.713153 
L 285.634453 352.174167 
L 286.100638 352.174167 
L 286.253208 346.713153 
L 286.406166 352.174167 
L 286.717668 352.174167 
L 286.870251 346.713153 
L 287.022683 352.174167 
L 287.48371 352.174167 
L 287.637748 341.361204 
L 287.790355 352.174167 
L 288.249317 352.174167 
L 288.402109 330.361543 
L 288.558255 352.174167 
L 290.093872 352.174167 
L 290.246884 346.736658 
L 290.399406 352.174167 
L 290.857158 352.174167 
L 291.010339 330.392883 
L 291.162725 352.174167 
L 292.080167 352.174167 
L 292.232563 330.298592 
L 292.389358 352.174167 
L 293.923194 352.174167 
L 294.07975 336.227701 
L 294.232341 352.174167 
L 295.151563 352.174167 
L 295.305654 346.759962 
L 295.45922 352.174167 
L 295.764357 352.174167 
L 295.916829 346.713153 
L 296.069374 352.174167 
L 296.374219 352.174167 
L 296.526591 335.767485 
L 296.679597 352.174167 
L 297.754844 352.174167 
L 297.907314 341.25214 
L 298.060077 352.174167 
L 299.130921 352.174167 
L 299.2841 346.728846 
L 299.436633 352.174167 
L 299.74338 352.174167 
L 299.895867 324.908387 
L 300.048731 352.174167 
L 301.578194 352.174167 
L 301.730814 335.791126 
L 301.883376 352.174167 
L 302.49677 352.174167 
L 302.650219 50.163056 
L 302.803227 352.174167 
L 304.97022 352.174167 
L 305.124131 335.908315 
L 305.28105 352.174167 
L 306.056247 352.174167 
L 306.364376 341.31473 
L 306.51775 352.174167 
L 307.134744 352.174167 
L 307.288574 341.361204 
L 307.442364 352.174167 
L 308.371411 352.174167 
L 308.525365 336.000866 
L 308.679224 352.174167 
L 310.069312 352.174167 
L 310.223962 319.827566 
L 310.38069 352.174167 
L 312.076488 352.174167 
L 312.230082 346.736658 
L 312.383214 352.174167 
L 312.849631 352.174167 
L 313.003541 341.345757 
L 313.156599 352.174167 
L 313.309831 352.174167 
L 313.463055 341.283525 
L 313.616552 352.174167 
L 314.077732 352.174167 
L 314.233613 341.483212 
L 314.386724 352.174167 
L 314.848106 352.174167 
L 315.001687 330.455294 
L 315.155574 352.174167 
L 316.241808 352.174167 
L 316.400716 331.118926 
L 316.554226 352.174167 
L 317.63828 352.174167 
L 317.791852 330.455294 
L 317.947342 352.174167 
L 318.86979 352.174167 
L 319.023509 335.908315 
L 319.177169 352.174167 
L 319.484754 352.174167 
L 319.638186 341.31473 
L 319.791559 352.174167 
L 320.725685 352.174167 
L 321.033892 341.345757 
L 321.192619 352.174167 
L 322.892822 352.174167 
L 323.048469 330.762057 
L 323.202196 352.174167 
L 324.585425 352.174167 
L 324.73876 341.29915 
L 324.892406 341.31473 
L 325.045643 352.174167 
L 325.352964 352.174167 
L 325.663604 341.558079 
L 325.819649 352.174167 
L 326.740981 352.174167 
L 326.894438 335.885012 
L 327.047782 352.174167 
L 327.822696 352.174167 
L 327.977398 341.437783 
L 328.130997 352.174167 
L 329.056826 352.174167 
L 329.211869 341.422554 
L 329.36842 352.174167 
L 330.135587 352.174167 
L 330.289591 346.759962 
L 330.44284 330.424133 
L 330.59592 352.174167 
L 331.676389 352.174167 
L 331.830102 319.642464 
L 331.984228 352.174167 
L 333.528461 352.174167 
L 333.68168 341.283525 
L 333.991966 352.174167 
L 334.762332 352.174167 
L 334.915381 346.721011 
L 335.068476 346.728846 
L 335.222093 352.174167 
L 335.685298 352.174167 
L 335.838132 330.424133 
L 335.998903 352.174167 
L 336.920806 352.174167 
L 337.0743 346.728846 
L 337.227403 335.885012 
L 337.381387 352.174167 
L 338.301177 352.174167 
L 338.45493 335.908315 
L 338.607591 352.174167 
L 339.3821 352.174167 
L 339.534732 341.29915 
L 339.68772 352.174167 
L 340.454751 352.174167 
L 340.608726 335.977828 
L 340.762388 352.174167 
L 341.68177 352.174167 
L 341.836564 330.640398 
L 341.989658 352.174167 
L 343.370997 352.174167 
L 343.524301 330.424133 
L 343.6774 352.174167 
L 344.906331 352.174167 
L 345.059511 324.947562 
L 345.21429 352.174167 
L 345.980364 352.174167 
L 346.134113 330.486365 
L 346.289788 352.174167 
L 346.911446 352.174167 
L 347.066523 346.813568 
L 347.220785 335.931552 
L 347.377844 352.174167 
L 348.769181 352.174167 
L 348.925431 346.843726 
L 349.082055 352.174167 
L 349.235237 352.174167 
L 349.388327 341.283525 
L 349.541322 352.174167 
L 350.304723 352.174167 
L 350.462218 341.587733 
L 350.616127 352.174167 
L 351.692282 352.174167 
L 351.845246 330.361543 
L 352.000198 352.174167 
L 352.771955 352.174167 
L 352.924732 330.361543 
L 353.077526 352.174167 
L 354.455107 352.174167 
L 354.607875 341.267855 
L 354.761201 352.174167 
L 355.539671 352.174167 
L 355.695292 346.836218 
L 355.848972 352.174167 
L 356.155305 352.174167 
L 356.312164 346.851213 
L 356.466977 352.174167 
L 356.77358 352.174167 
L 356.930123 336.205304 
L 357.084636 352.174167 
L 357.858337 352.174167 
L 358.011474 335.838204 
L 358.164203 352.174167 
L 359.080917 352.174167 
L 359.235078 330.517347 
L 359.395004 352.174167 
L 360.633571 352.174167 
L 360.789636 341.49827 
L 360.9433 352.174167 
L 362.017758 352.174167 
L 362.32554 341.267855 
L 362.478288 352.174167 
L 363.398987 352.174167 
L 363.552976 335.885012 
L 363.70842 352.174167 
L 364.782445 352.174167 
L 364.936674 346.775387 
L 365.093759 352.174167 
L 365.552761 352.174167 
L 365.70585 341.29915 
L 365.859251 352.174167 
L 366.319912 352.174167 
L 366.474574 330.609766 
L 366.629036 352.174167 
L 367.555936 352.174167 
L 367.867796 341.631904 
L 368.024915 352.174167 
L 368.953225 352.174167 
L 369.106774 346.728846 
L 369.260149 352.174167 
L 369.56835 352.174167 
L 369.722929 336.02384 
L 369.878108 352.174167 
L 370.801072 352.174167 
L 370.955236 335.954723 
L 371.108481 352.174167 
L 371.414061 352.174167 
L 371.567187 330.361543 
L 371.720429 352.174167 
L 372.487091 352.174167 
L 372.64007 335.838204 
L 372.792962 352.174167 
L 374.335741 352.174167 
L 374.490262 336.000866 
L 374.644491 352.174167 
L 375.873827 352.174167 
L 376.027221 341.29915 
L 376.335236 352.174167 
L 376.488553 352.174167 
L 376.643527 346.790724 
L 376.798058 352.174167 
L 377.262945 352.174167 
L 377.416355 335.885012 
L 377.569356 352.174167 
L 378.965553 352.174167 
L 379.118373 341.283525 
L 379.271386 352.174167 
L 379.739938 352.174167 
L 379.893834 346.752216 
L 380.04749 352.174167 
L 380.661842 352.174167 
L 380.814829 335.838204 
L 380.971056 352.174167 
L 381.278156 352.174167 
L 381.43113 330.361543 
L 381.586777 352.174167 
L 383.125473 352.174167 
L 383.281086 325.446781 
L 383.433919 352.174167 
L 384.820184 352.174167 
L 384.974629 341.361204 
L 385.280234 352.174167 
L 386.206724 352.174167 
L 386.360048 341.31473 
L 386.513879 352.174167 
L 387.128896 352.174167 
L 387.283307 335.977828 
L 387.436537 352.174167 
L 388.987757 352.174167 
L 389.141267 346.736658 
L 389.294951 352.174167 
L 389.601488 352.174167 
L 389.755552 346.759962 
L 389.909742 352.174167 
L 390.063169 352.174167 
L 390.217354 346.775387 
L 390.370641 352.174167 
L 390.676946 352.174167 
L 390.83273 336.137735 
L 390.986794 352.174167 
L 391.60641 352.174167 
L 391.760743 341.361204 
L 391.914997 352.174167 
L 393.155672 352.174167 
L 393.310231 341.407282 
L 393.464414 352.174167 
L 393.92828 352.174167 
L 394.09686 142.205006 
L 394.252092 352.174167 
L 396.432524 352.174167 
L 396.586906 330.670942 
L 396.739621 352.174167 
L 397.662842 352.174167 
L 397.815997 335.838204 
L 397.968706 352.174167 
L 398.739619 352.174167 
L 398.893751 335.931552 
L 399.049212 352.174167 
L 399.976251 352.174167 
L 400.129924 346.752216 
L 400.283439 335.931552 
L 400.4368 352.174167 
L 401.979244 352.174167 
L 402.132786 325.025575 
L 402.286353 352.174167 
L 403.684574 352.174167 
L 403.839712 336.02384 
L 403.995573 352.174167 
L 404.927525 352.174167 
L 405.083629 341.49827 
L 405.237967 352.174167 
L 406.007706 352.174167 
L 406.161831 341.376607 
L 406.470474 352.174167 
L 407.396254 352.174167 
L 407.550095 341.330266 
L 407.70296 352.174167 
L 408.008884 352.174167 
L 408.162185 346.728846 
L 408.315207 352.174167 
L 408.624499 352.174167 
L 408.778887 346.775387 
L 408.935119 352.174167 
L 409.244964 352.174167 
L 409.398694 341.29915 
L 409.552643 352.174167 
L 410.018089 352.174167 
L 410.173748 336.137735 
L 410.328366 352.174167 
L 411.566115 352.174167 
L 411.719276 335.861641 
L 411.873488 352.174167 
L 413.108812 352.174167 
L 413.263561 341.361204 
L 413.417199 352.174167 
L 414.193681 352.174167 
L 414.50479 341.422554 
L 414.658001 352.174167 
L 415.581749 352.174167 
L 415.735219 346.728846 
L 415.891645 352.174167 
L 416.355185 352.174167 
L 416.50888 330.486365 
L 416.662225 352.174167 
L 417.745223 352.174167 
L 417.898505 341.31473 
L 418.053247 352.174167 
L 418.985401 352.174167 
L 419.139215 330.609766 
L 419.296016 352.174167 
L 420.381157 352.174167 
L 420.536545 341.452969 
L 420.690615 352.174167 
L 421.623202 352.174167 
L 421.776227 346.744448 
L 421.930758 335.977828 
L 422.084311 352.174167 
L 423.636599 352.174167 
L 423.790566 335.931552 
L 424.100299 352.174167 
L 425.488297 352.174167 
L 425.642836 335.977828 
L 425.797387 352.174167 
L 426.879893 352.174167 
L 427.034019 341.361204 
L 427.188016 352.174167 
L 427.341866 352.174167 
L 427.495469 325.025575 
L 427.650457 352.174167 
L 429.048069 352.174167 
L 429.201422 346.759962 
L 429.355324 346.759962 
L 429.509095 352.174167 
L 430.280486 352.174167 
L 430.434096 346.744448 
L 430.588324 352.174167 
L 430.744591 330.822373 
L 430.902223 352.174167 
L 431.675693 352.174167 
L 431.832891 336.250035 
L 431.986956 352.174167 
L 433.686646 352.174167 
L 434.000771 341.762234 
L 434.155017 352.174167 
L 435.705616 352.174167 
L 435.860314 330.7014 
L 436.014131 352.174167 
L 436.790436 352.174167 
L 436.944361 341.345757 
L 437.099992 352.174167 
L 437.409005 352.174167 
L 437.562291 341.29915 
L 437.870457 352.174167 
L 438.642099 352.174167 
L 438.795185 341.29915 
L 438.947902 352.174167 
L 440.190935 352.174167 
L 440.34442 341.330266 
L 440.500151 352.174167 
L 441.43159 352.174167 
L 441.586555 346.79836 
L 441.741707 352.174167 
L 442.049408 352.174167 
L 442.204438 336.046748 
L 442.359901 352.174167 
L 443.284637 352.174167 
L 443.43891 341.345757 
L 443.592465 352.174167 
L 444.053663 352.174167 
L 444.21267 341.675709 
L 444.365953 352.174167 
L 445.596226 352.174167 
L 445.749596 335.861641 
L 445.911613 352.174167 
L 446.841892 352.174167 
L 446.994859 341.283525 
L 447.147892 352.174167 
L 448.223309 352.174167 
L 448.376337 335.791126 
L 448.530033 352.174167 
L 449.611746 352.174167 
L 449.77038 336.360773 
L 449.923989 352.174167 
L 451.469567 352.174167 
L 451.62571 325.633947 
L 451.779525 352.174167 
L 453.164226 352.174167 
L 453.317954 341.330266 
L 453.47163 352.174167 
L 454.712807 352.174167 
L 454.866488 325.064414 
L 455.023734 352.174167 
L 457.046182 352.174167 
L 457.200773 346.783067 
L 457.354116 335.861641 
L 457.509454 352.174167 
L 457.662655 352.174167 
L 457.816538 341.330266 
L 457.971861 352.174167 
L 458.897391 352.174167 
L 459.054417 341.513285 
L 459.208535 352.174167 
L 459.984647 352.174167 
L 460.146941 341.833257 
L 460.301216 352.174167 
L 461.395158 352.174167 
L 461.555438 331.321659 
L 461.70999 352.174167 
L 463.097697 352.174167 
L 463.251457 346.736658 
L 463.406766 352.174167 
L 463.717303 352.174167 
L 463.875096 346.88095 
L 464.032697 352.174167 
L 464.346805 352.174167 
L 464.501409 341.376607 
L 464.654701 352.174167 
L 465.124612 352.174167 
L 465.278739 330.486365 
L 465.432849 352.174167 
L 467.454738 352.174167 
L 467.611502 346.843726 
L 467.764845 352.174167 
L 467.917611 352.174167 
L 468.227936 341.407282 
L 468.38654 352.174167 
L 469.934624 352.174167 
L 470.247712 336.360773 
L 470.402123 352.174167 
L 471.93894 352.174167 
L 472.091954 335.791126 
L 472.24739 341.437783 
L 472.400954 352.174167 
L 473.931246 352.174167 
L 474.086237 336.000866 
L 474.239442 352.174167 
L 475.777578 352.174167 
L 475.930168 346.713153 
L 476.08256 352.174167 
L 476.390946 352.174167 
L 476.54607 336.09237 
L 476.698685 352.174167 
L 477.624168 352.174167 
L 477.929521 341.25214 
L 478.082029 352.174167 
L 479.159609 352.174167 
L 479.312232 346.713153 
L 479.464713 352.174167 
L 479.770295 352.174167 
L 479.924386 346.759962 
L 480.077101 330.361543 
L 480.229716 352.174167 
L 481.608836 352.174167 
L 481.762622 341.330266 
L 481.91643 352.174167 
L 482.225203 352.174167 
L 482.377717 346.713153 
L 482.532792 352.174167 
L 482.991461 352.174167 
L 483.150156 341.602498 
L 483.305694 352.174167 
L 483.61805 352.174167 
L 483.770644 324.829698 
L 483.923257 352.174167 
L 484.699122 352.174167 
L 484.851627 335.791126 
L 485.004078 352.174167 
L 485.462044 352.174167 
L 485.615438 120.136818 
L 485.768847 352.174167 
L 488.077797 352.174167 
L 488.230302 346.728846 
L 488.383057 352.174167 
L 488.690811 352.174167 
L 488.846377 341.468112 
L 489.152342 352.174167 
L 489.610515 352.174167 
L 489.764088 346.736658 
L 489.920725 352.174167 
L 490.381699 352.174167 
L 490.689034 341.31473 
L 490.84373 352.174167 
L 491.461125 352.174167 
L 491.6144 325.025575 
L 491.767535 352.174167 
L 492.533922 352.174167 
L 492.686776 335.791126 
L 492.995783 352.174167 
L 493.607276 352.174167 
L 493.760932 346.759962 
L 493.913467 352.174167 
L 494.682964 352.174167 
L 494.835446 341.236379 
L 494.990888 352.174167 
L 495.145937 352.174167 
L 495.145937 352.174167 
" style="fill:none;stroke:#1f77b4;stroke-linecap:square;stroke-width:1.5;"/>
   </g>
   <g id="patch_3">
    <path d="M 56.807031 352.174167 
L 56.807031 35.0625 
" style="fill:none;stroke:#000000;stroke-linecap:square;stroke-linejoin:miter;stroke-width:0.8;"/>
   </g>
   <g id="patch_4">
    <path d="M 516.019219 352.174167 
L 516.019219 35.0625 
" style="fill:none;stroke:#000000;stroke-linecap:square;stroke-linejoin:miter;stroke-width:0.8;"/>
   </g>
   <g id="patch_5">
    <path d="M 56.807031 352.174167 
L 516.019219 352.174167 
" style="fill:none;stroke:#000000;stroke-linecap:square;stroke-linejoin:miter;stroke-width:0.8;"/>
   </g>
   <g id="patch_6">
    <path d="M 56.807031 35.0625 
L 516.019219 35.0625 
" style="fill:none;stroke:#000000;stroke-linecap:square;stroke-linejoin:miter;stroke-width:0.8;"/>
   </g>
   <g id="legend_1">
    <g id="patch_7">
     <path d="M 540.979828 53.01875 
L 621.215766 53.01875 
Q 623.215766 53.01875 623.215766 51.01875 
L 623.215766 37.0625 
Q 623.215766 35.0625 621.215766 35.0625 
L 540.979828 35.0625 
Q 538.979828 35.0625 538.979828 37.0625 
L 538.979828 51.01875 
Q 538.979828 53.01875 540.979828 53.01875 
z
" style="fill:#ffffff;opacity:0.8;stroke:#cccccc;stroke-linejoin:miter;"/>
    </g>
    <g id="line2d_17">
     <path d="M 542.979828 43.160937 
L 562.979828 43.160937 
" style="fill:none;stroke:#1f77b4;stroke-linecap:square;stroke-width:1.5;"/>
    </g>
    <g id="line2d_18"/>
    <g id="text_17">
     <!-- drop_rate -->
     <defs>
      <path d="M 50.984375 -16.609375 
L 50.984375 -23.578125 
L -0.984375 -23.578125 
L -0.984375 -16.609375 
z
" id="DejaVuSans-95"/>
     </defs>
     <g transform="translate(570.979828 46.660937)scale(0.1 -0.1)">
      <use xlink:href="#DejaVuSans-100"/>
      <use x="63.476562" xlink:href="#DejaVuSans-114"/>
      <use x="104.558594" xlink:href="#DejaVuSans-111"/>
      <use x="165.740234" xlink:href="#DejaVuSans-112"/>
      <use x="229.216797" xlink:href="#DejaVuSans-95"/>
      <use x="279.216797" xlink:href="#DejaVuSans-114"/>
      <use x="320.330078" xlink:href="#DejaVuSans-97"/>
      <use x="381.609375" xlink:href="#DejaVuSans-116"/>
      <use x="420.818359" xlink:href="#DejaVuSans-101"/>
     </g>
    </g>
   </g>
  </g>
  <g id="text_18">
   <!-- result droprate -->
   <defs>
    <path d="M 44.28125 53.078125 
L 44.28125 44.578125 
Q 40.484375 46.53125 36.375 47.5 
Q 32.28125 48.484375 27.875 48.484375 
Q 21.1875 48.484375 17.84375 46.4375 
Q 14.5 44.390625 14.5 40.28125 
Q 14.5 37.15625 16.890625 35.375 
Q 19.28125 33.59375 26.515625 31.984375 
L 29.59375 31.296875 
Q 39.15625 29.25 43.1875 25.515625 
Q 47.21875 21.78125 47.21875 15.09375 
Q 47.21875 7.46875 41.1875 3.015625 
Q 35.15625 -1.421875 24.609375 -1.421875 
Q 20.21875 -1.421875 15.453125 -0.5625 
Q 10.6875 0.296875 5.421875 2 
L 5.421875 11.28125 
Q 10.40625 8.6875 15.234375 7.390625 
Q 20.0625 6.109375 24.8125 6.109375 
Q 31.15625 6.109375 34.5625 8.28125 
Q 37.984375 10.453125 37.984375 14.40625 
Q 37.984375 18.0625 35.515625 20.015625 
Q 33.0625 21.96875 24.703125 23.78125 
L 21.578125 24.515625 
Q 13.234375 26.265625 9.515625 29.90625 
Q 5.8125 33.546875 5.8125 39.890625 
Q 5.8125 47.609375 11.28125 51.796875 
Q 16.75 56 26.8125 56 
Q 31.78125 56 36.171875 55.265625 
Q 40.578125 54.546875 44.28125 53.078125 
z
" id="DejaVuSans-115"/>
    <path d="M 8.5 21.578125 
L 8.5 54.6875 
L 17.484375 54.6875 
L 17.484375 21.921875 
Q 17.484375 14.15625 20.5 10.265625 
Q 23.53125 6.390625 29.59375 6.390625 
Q 36.859375 6.390625 41.078125 11.03125 
Q 45.3125 15.671875 45.3125 23.6875 
L 45.3125 54.6875 
L 54.296875 54.6875 
L 54.296875 0 
L 45.3125 0 
L 45.3125 8.40625 
Q 42.046875 3.421875 37.71875 1 
Q 33.40625 -1.421875 27.6875 -1.421875 
Q 18.265625 -1.421875 13.375 4.4375 
Q 8.5 10.296875 8.5 21.578125 
z
M 31.109375 56 
z
" id="DejaVuSans-117"/>
    <path d="M 9.421875 75.984375 
L 18.40625 75.984375 
L 18.40625 0 
L 9.421875 0 
z
" id="DejaVuSans-108"/>
    <path id="DejaVuSans-32"/>
   </defs>
   <g transform="translate(297.047813 17.038125)scale(0.12 -0.12)">
    <use xlink:href="#DejaVuSans-114"/>
    <use x="41.082031" xlink:href="#DejaVuSans-101"/>
    <use x="102.605469" xlink:href="#DejaVuSans-115"/>
    <use x="154.705078" xlink:href="#DejaVuSans-117"/>
    <use x="218.083984" xlink:href="#DejaVuSans-108"/>
    <use x="245.867188" xlink:href="#DejaVuSans-116"/>
    <use x="285.076172" xlink:href="#DejaVuSans-32"/>
    <use x="316.863281" xlink:href="#DejaVuSans-100"/>
    <use x="380.339844" xlink:href="#DejaVuSans-114"/>
    <use x="421.421875" xlink:href="#DejaVuSans-111"/>
    <use x="482.603516" xlink:href="#DejaVuSans-112"/>
    <use x="546.080078" xlink:href="#DejaVuSans-114"/>
    <use x="587.193359" xlink:href="#DejaVuSans-97"/>
    <use x="648.472656" xlink:href="#DejaVuSans-116"/>
    <use x="687.681641" xlink:href="#DejaVuSans-101"/>
   </g>
  </g>
 </g>
 <defs>
  <clipPath id="pda3cd3f3a8">
   <rect height="317.111667" width="459.212187" x="56.807031" y="35.0625"/>
  </clipPath>
 </defs>
</svg>
