<?xml version="1.0" encoding="utf-8" standalone="no"?>
<!DOCTYPE svg PUBLIC "-//W3C//DTD SVG 1.1//EN"
  "http://www.w3.org/Graphics/SVG/1.1/DTD/svg11.dtd">
<!-- Created with matplotlib (https://matplotlib.org/) -->
<svg height="396pt" version="1.1" viewBox="0 0 684 396" width="684pt" xmlns="http://www.w3.org/2000/svg" xmlns:xlink="http://www.w3.org/1999/xlink">
 <defs>
  <style type="text/css">
*{stroke-linecap:butt;stroke-linejoin:round;}
  </style>
 </defs>
 <g id="figure_1">
  <g id="patch_1">
   <path d="M 0 396 
L 684 396 
L 684 0 
L 0 0 
z
" style="fill:#ffffff;"/>
  </g>
  <g id="axes_1">
   <g id="patch_2">
    <path d="M 83.472344 352.174167 
L 529.912969 352.174167 
L 529.912969 35.0625 
L 83.472344 35.0625 
z
" style="fill:#ffffff;"/>
   </g>
   <g id="matplotlib.axis_1">
    <g id="xtick_1">
     <g id="line2d_1">
      <defs>
       <path d="M 0 0 
L 0 3.5 
" id="m106050fbba" style="stroke:#000000;stroke-width:0.8;"/>
      </defs>
      <g>
       <use style="stroke:#000000;stroke-width:0.8;" x="103.763626" xlink:href="#m106050fbba" y="352.174167"/>
      </g>
     </g>
     <g id="text_1">
      <!-- 0 -->
      <defs>
       <path d="M 31.78125 66.40625 
Q 24.171875 66.40625 20.328125 58.90625 
Q 16.5 51.421875 16.5 36.375 
Q 16.5 21.390625 20.328125 13.890625 
Q 24.171875 6.390625 31.78125 6.390625 
Q 39.453125 6.390625 43.28125 13.890625 
Q 47.125 21.390625 47.125 36.375 
Q 47.125 51.421875 43.28125 58.90625 
Q 39.453125 66.40625 31.78125 66.40625 
z
M 31.78125 74.21875 
Q 44.046875 74.21875 50.515625 64.515625 
Q 56.984375 54.828125 56.984375 36.375 
Q 56.984375 17.96875 50.515625 8.265625 
Q 44.046875 -1.421875 31.78125 -1.421875 
Q 19.53125 -1.421875 13.0625 8.265625 
Q 6.59375 17.96875 6.59375 36.375 
Q 6.59375 54.828125 13.0625 64.515625 
Q 19.53125 74.21875 31.78125 74.21875 
z
" id="DejaVuSans-48"/>
      </defs>
      <g transform="translate(100.582376 366.772604)scale(0.1 -0.1)">
       <use xlink:href="#DejaVuSans-48"/>
      </g>
     </g>
    </g>
    <g id="xtick_2">
     <g id="line2d_2">
      <g>
       <use style="stroke:#000000;stroke-width:0.8;" x="177.41566" xlink:href="#m106050fbba" y="352.174167"/>
      </g>
     </g>
     <g id="text_2">
      <!-- 50 -->
      <defs>
       <path d="M 10.796875 72.90625 
L 49.515625 72.90625 
L 49.515625 64.59375 
L 19.828125 64.59375 
L 19.828125 46.734375 
Q 21.96875 47.46875 24.109375 47.828125 
Q 26.265625 48.1875 28.421875 48.1875 
Q 40.625 48.1875 47.75 41.5 
Q 54.890625 34.8125 54.890625 23.390625 
Q 54.890625 11.625 47.5625 5.09375 
Q 40.234375 -1.421875 26.90625 -1.421875 
Q 22.3125 -1.421875 17.546875 -0.640625 
Q 12.796875 0.140625 7.71875 1.703125 
L 7.71875 11.625 
Q 12.109375 9.234375 16.796875 8.0625 
Q 21.484375 6.890625 26.703125 6.890625 
Q 35.15625 6.890625 40.078125 11.328125 
Q 45.015625 15.765625 45.015625 23.390625 
Q 45.015625 31 40.078125 35.4375 
Q 35.15625 39.890625 26.703125 39.890625 
Q 22.75 39.890625 18.8125 39.015625 
Q 14.890625 38.140625 10.796875 36.28125 
z
" id="DejaVuSans-53"/>
      </defs>
      <g transform="translate(171.05316 366.772604)scale(0.1 -0.1)">
       <use xlink:href="#DejaVuSans-53"/>
       <use x="63.623047" xlink:href="#DejaVuSans-48"/>
      </g>
     </g>
    </g>
    <g id="xtick_3">
     <g id="line2d_3">
      <g>
       <use style="stroke:#000000;stroke-width:0.8;" x="251.067694" xlink:href="#m106050fbba" y="352.174167"/>
      </g>
     </g>
     <g id="text_3">
      <!-- 100 -->
      <defs>
       <path d="M 12.40625 8.296875 
L 28.515625 8.296875 
L 28.515625 63.921875 
L 10.984375 60.40625 
L 10.984375 69.390625 
L 28.421875 72.90625 
L 38.28125 72.90625 
L 38.28125 8.296875 
L 54.390625 8.296875 
L 54.390625 0 
L 12.40625 0 
z
" id="DejaVuSans-49"/>
      </defs>
      <g transform="translate(241.523944 366.772604)scale(0.1 -0.1)">
       <use xlink:href="#DejaVuSans-49"/>
       <use x="63.623047" xlink:href="#DejaVuSans-48"/>
       <use x="127.246094" xlink:href="#DejaVuSans-48"/>
      </g>
     </g>
    </g>
    <g id="xtick_4">
     <g id="line2d_4">
      <g>
       <use style="stroke:#000000;stroke-width:0.8;" x="324.719728" xlink:href="#m106050fbba" y="352.174167"/>
      </g>
     </g>
     <g id="text_4">
      <!-- 150 -->
      <g transform="translate(315.175978 366.772604)scale(0.1 -0.1)">
       <use xlink:href="#DejaVuSans-49"/>
       <use x="63.623047" xlink:href="#DejaVuSans-53"/>
       <use x="127.246094" xlink:href="#DejaVuSans-48"/>
      </g>
     </g>
    </g>
    <g id="xtick_5">
     <g id="line2d_5">
      <g>
       <use style="stroke:#000000;stroke-width:0.8;" x="398.371762" xlink:href="#m106050fbba" y="352.174167"/>
      </g>
     </g>
     <g id="text_5">
      <!-- 200 -->
      <defs>
       <path d="M 19.1875 8.296875 
L 53.609375 8.296875 
L 53.609375 0 
L 7.328125 0 
L 7.328125 8.296875 
Q 12.9375 14.109375 22.625 23.890625 
Q 32.328125 33.6875 34.8125 36.53125 
Q 39.546875 41.84375 41.421875 45.53125 
Q 43.3125 49.21875 43.3125 52.78125 
Q 43.3125 58.59375 39.234375 62.25 
Q 35.15625 65.921875 28.609375 65.921875 
Q 23.96875 65.921875 18.8125 64.3125 
Q 13.671875 62.703125 7.8125 59.421875 
L 7.8125 69.390625 
Q 13.765625 71.78125 18.9375 73 
Q 24.125 74.21875 28.421875 74.21875 
Q 39.75 74.21875 46.484375 68.546875 
Q 53.21875 62.890625 53.21875 53.421875 
Q 53.21875 48.921875 51.53125 44.890625 
Q 49.859375 40.875 45.40625 35.40625 
Q 44.1875 33.984375 37.640625 27.21875 
Q 31.109375 20.453125 19.1875 8.296875 
z
" id="DejaVuSans-50"/>
      </defs>
      <g transform="translate(388.828012 366.772604)scale(0.1 -0.1)">
       <use xlink:href="#DejaVuSans-50"/>
       <use x="63.623047" xlink:href="#DejaVuSans-48"/>
       <use x="127.246094" xlink:href="#DejaVuSans-48"/>
      </g>
     </g>
    </g>
    <g id="xtick_6">
     <g id="line2d_6">
      <g>
       <use style="stroke:#000000;stroke-width:0.8;" x="472.023796" xlink:href="#m106050fbba" y="352.174167"/>
      </g>
     </g>
     <g id="text_6">
      <!-- 250 -->
      <g transform="translate(462.480046 366.772604)scale(0.1 -0.1)">
       <use xlink:href="#DejaVuSans-50"/>
       <use x="63.623047" xlink:href="#DejaVuSans-53"/>
       <use x="127.246094" xlink:href="#DejaVuSans-48"/>
      </g>
     </g>
    </g>
   </g>
   <g id="matplotlib.axis_2">
    <g id="ytick_1">
     <g id="line2d_7">
      <defs>
       <path d="M 0 0 
L -3.5 0 
" id="m4752b976cb" style="stroke:#000000;stroke-width:0.8;"/>
      </defs>
      <g>
       <use style="stroke:#000000;stroke-width:0.8;" x="83.472344" xlink:href="#m4752b976cb" y="352.174167"/>
      </g>
     </g>
     <g id="text_7">
      <!-- 0 -->
      <g transform="translate(70.109844 355.973385)scale(0.1 -0.1)">
       <use xlink:href="#DejaVuSans-48"/>
      </g>
     </g>
    </g>
    <g id="ytick_2">
     <g id="line2d_8">
      <g>
       <use style="stroke:#000000;stroke-width:0.8;" x="83.472344" xlink:href="#m4752b976cb" y="305.676855"/>
      </g>
     </g>
     <g id="text_8">
      <!-- 5 -->
      <g transform="translate(70.109844 309.476074)scale(0.1 -0.1)">
       <use xlink:href="#DejaVuSans-53"/>
      </g>
     </g>
    </g>
    <g id="ytick_3">
     <g id="line2d_9">
      <g>
       <use style="stroke:#000000;stroke-width:0.8;" x="83.472344" xlink:href="#m4752b976cb" y="259.179543"/>
      </g>
     </g>
     <g id="text_9">
      <!-- 10 -->
      <g transform="translate(63.747344 262.978762)scale(0.1 -0.1)">
       <use xlink:href="#DejaVuSans-49"/>
       <use x="63.623047" xlink:href="#DejaVuSans-48"/>
      </g>
     </g>
    </g>
    <g id="ytick_4">
     <g id="line2d_10">
      <g>
       <use style="stroke:#000000;stroke-width:0.8;" x="83.472344" xlink:href="#m4752b976cb" y="212.682231"/>
      </g>
     </g>
     <g id="text_10">
      <!-- 15 -->
      <g transform="translate(63.747344 216.48145)scale(0.1 -0.1)">
       <use xlink:href="#DejaVuSans-49"/>
       <use x="63.623047" xlink:href="#DejaVuSans-53"/>
      </g>
     </g>
    </g>
    <g id="ytick_5">
     <g id="line2d_11">
      <g>
       <use style="stroke:#000000;stroke-width:0.8;" x="83.472344" xlink:href="#m4752b976cb" y="166.184919"/>
      </g>
     </g>
     <g id="text_11">
      <!-- 20 -->
      <g transform="translate(63.747344 169.984138)scale(0.1 -0.1)">
       <use xlink:href="#DejaVuSans-50"/>
       <use x="63.623047" xlink:href="#DejaVuSans-48"/>
      </g>
     </g>
    </g>
    <g id="ytick_6">
     <g id="line2d_12">
      <g>
       <use style="stroke:#000000;stroke-width:0.8;" x="83.472344" xlink:href="#m4752b976cb" y="119.687608"/>
      </g>
     </g>
     <g id="text_12">
      <!-- 25 -->
      <g transform="translate(63.747344 123.486826)scale(0.1 -0.1)">
       <use xlink:href="#DejaVuSans-50"/>
       <use x="63.623047" xlink:href="#DejaVuSans-53"/>
      </g>
     </g>
    </g>
    <g id="ytick_7">
     <g id="line2d_13">
      <g>
       <use style="stroke:#000000;stroke-width:0.8;" x="83.472344" xlink:href="#m4752b976cb" y="73.190296"/>
      </g>
     </g>
     <g id="text_13">
      <!-- 30 -->
      <defs>
       <path d="M 40.578125 39.3125 
Q 47.65625 37.796875 51.625 33 
Q 55.609375 28.21875 55.609375 21.1875 
Q 55.609375 10.40625 48.1875 4.484375 
Q 40.765625 -1.421875 27.09375 -1.421875 
Q 22.515625 -1.421875 17.65625 -0.515625 
Q 12.796875 0.390625 7.625 2.203125 
L 7.625 11.71875 
Q 11.71875 9.328125 16.59375 8.109375 
Q 21.484375 6.890625 26.8125 6.890625 
Q 36.078125 6.890625 40.9375 10.546875 
Q 45.796875 14.203125 45.796875 21.1875 
Q 45.796875 27.640625 41.28125 31.265625 
Q 36.765625 34.90625 28.71875 34.90625 
L 20.21875 34.90625 
L 20.21875 43.015625 
L 29.109375 43.015625 
Q 36.375 43.015625 40.234375 45.921875 
Q 44.09375 48.828125 44.09375 54.296875 
Q 44.09375 59.90625 40.109375 62.90625 
Q 36.140625 65.921875 28.71875 65.921875 
Q 24.65625 65.921875 20.015625 65.03125 
Q 15.375 64.15625 9.8125 62.3125 
L 9.8125 71.09375 
Q 15.4375 72.65625 20.34375 73.4375 
Q 25.25 74.21875 29.59375 74.21875 
Q 40.828125 74.21875 47.359375 69.109375 
Q 53.90625 64.015625 53.90625 55.328125 
Q 53.90625 49.265625 50.4375 45.09375 
Q 46.96875 40.921875 40.578125 39.3125 
z
" id="DejaVuSans-51"/>
      </defs>
      <g transform="translate(63.747344 76.989514)scale(0.1 -0.1)">
       <use xlink:href="#DejaVuSans-51"/>
       <use x="63.623047" xlink:href="#DejaVuSans-48"/>
      </g>
     </g>
    </g>
    <g id="text_14">
     <!-- rtt -->
     <defs>
      <path d="M 41.109375 46.296875 
Q 39.59375 47.171875 37.8125 47.578125 
Q 36.03125 48 33.890625 48 
Q 26.265625 48 22.1875 43.046875 
Q 18.109375 38.09375 18.109375 28.8125 
L 18.109375 0 
L 9.078125 0 
L 9.078125 54.6875 
L 18.109375 54.6875 
L 18.109375 46.1875 
Q 20.953125 51.171875 25.484375 53.578125 
Q 30.03125 56 36.53125 56 
Q 37.453125 56 38.578125 55.875 
Q 39.703125 55.765625 41.0625 55.515625 
z
" id="DejaVuSans-114"/>
      <path d="M 18.3125 70.21875 
L 18.3125 54.6875 
L 36.8125 54.6875 
L 36.8125 47.703125 
L 18.3125 47.703125 
L 18.3125 18.015625 
Q 18.3125 11.328125 20.140625 9.421875 
Q 21.96875 7.515625 27.59375 7.515625 
L 36.8125 7.515625 
L 36.8125 0 
L 27.59375 0 
Q 17.1875 0 13.234375 3.875 
Q 9.28125 7.765625 9.28125 18.015625 
L 9.28125 47.703125 
L 2.6875 47.703125 
L 2.6875 54.6875 
L 9.28125 54.6875 
L 9.28125 70.21875 
z
" id="DejaVuSans-116"/>
     </defs>
     <g transform="translate(46.469844 199.594115)rotate(-90)scale(0.1 -0.1)">
      <use xlink:href="#DejaVuSans-114"/>
      <use x="41.113281" xlink:href="#DejaVuSans-116"/>
      <use x="80.322266" xlink:href="#DejaVuSans-116"/>
     </g>
     <!-- (ms) -->
     <defs>
      <path d="M 31 75.875 
Q 24.46875 64.65625 21.28125 53.65625 
Q 18.109375 42.671875 18.109375 31.390625 
Q 18.109375 20.125 21.3125 9.0625 
Q 24.515625 -2 31 -13.1875 
L 23.1875 -13.1875 
Q 15.875 -1.703125 12.234375 9.375 
Q 8.59375 20.453125 8.59375 31.390625 
Q 8.59375 42.28125 12.203125 53.3125 
Q 15.828125 64.359375 23.1875 75.875 
z
" id="DejaVuSans-40"/>
      <path d="M 52 44.1875 
Q 55.375 50.25 60.0625 53.125 
Q 64.75 56 71.09375 56 
Q 79.640625 56 84.28125 50.015625 
Q 88.921875 44.046875 88.921875 33.015625 
L 88.921875 0 
L 79.890625 0 
L 79.890625 32.71875 
Q 79.890625 40.578125 77.09375 44.375 
Q 74.3125 48.1875 68.609375 48.1875 
Q 61.625 48.1875 57.5625 43.546875 
Q 53.515625 38.921875 53.515625 30.90625 
L 53.515625 0 
L 44.484375 0 
L 44.484375 32.71875 
Q 44.484375 40.625 41.703125 44.40625 
Q 38.921875 48.1875 33.109375 48.1875 
Q 26.21875 48.1875 22.15625 43.53125 
Q 18.109375 38.875 18.109375 30.90625 
L 18.109375 0 
L 9.078125 0 
L 9.078125 54.6875 
L 18.109375 54.6875 
L 18.109375 46.1875 
Q 21.1875 51.21875 25.484375 53.609375 
Q 29.78125 56 35.6875 56 
Q 41.65625 56 45.828125 52.96875 
Q 50 49.953125 52 44.1875 
z
" id="DejaVuSans-109"/>
      <path d="M 44.28125 53.078125 
L 44.28125 44.578125 
Q 40.484375 46.53125 36.375 47.5 
Q 32.28125 48.484375 27.875 48.484375 
Q 21.1875 48.484375 17.84375 46.4375 
Q 14.5 44.390625 14.5 40.28125 
Q 14.5 37.15625 16.890625 35.375 
Q 19.28125 33.59375 26.515625 31.984375 
L 29.59375 31.296875 
Q 39.15625 29.25 43.1875 25.515625 
Q 47.21875 21.78125 47.21875 15.09375 
Q 47.21875 7.46875 41.1875 3.015625 
Q 35.15625 -1.421875 24.609375 -1.421875 
Q 20.21875 -1.421875 15.453125 -0.5625 
Q 10.6875 0.296875 5.421875 2 
L 5.421875 11.28125 
Q 10.40625 8.6875 15.234375 7.390625 
Q 20.0625 6.109375 24.8125 6.109375 
Q 31.15625 6.109375 34.5625 8.28125 
Q 37.984375 10.453125 37.984375 14.40625 
Q 37.984375 18.0625 35.515625 20.015625 
Q 33.0625 21.96875 24.703125 23.78125 
L 21.578125 24.515625 
Q 13.234375 26.265625 9.515625 29.90625 
Q 5.8125 33.546875 5.8125 39.890625 
Q 5.8125 47.609375 11.28125 51.796875 
Q 16.75 56 26.8125 56 
Q 31.78125 56 36.171875 55.265625 
Q 40.578125 54.546875 44.28125 53.078125 
z
" id="DejaVuSans-115"/>
      <path d="M 8.015625 75.875 
L 15.828125 75.875 
Q 23.140625 64.359375 26.78125 53.3125 
Q 30.421875 42.28125 30.421875 31.390625 
Q 30.421875 20.453125 26.78125 9.375 
Q 23.140625 -1.703125 15.828125 -13.1875 
L 8.015625 -13.1875 
Q 14.5 -2 17.703125 9.0625 
Q 20.90625 20.125 20.90625 31.390625 
Q 20.90625 42.671875 17.703125 53.65625 
Q 14.5 64.65625 8.015625 75.875 
z
" id="DejaVuSans-41"/>
     </defs>
     <g transform="translate(57.667656 204.994896)rotate(-90)scale(0.1 -0.1)">
      <use xlink:href="#DejaVuSans-40"/>
      <use x="39.013672" xlink:href="#DejaVuSans-109"/>
      <use x="136.425781" xlink:href="#DejaVuSans-115"/>
      <use x="188.525391" xlink:href="#DejaVuSans-41"/>
     </g>
    </g>
   </g>
   <g id="line2d_14">
    <path clip-path="url(#p8d6d27606e)" d="M 103.765099 249.880081 
L 104.50162 147.585995 
L 105.23814 156.885457 
L 105.97466 138.286532 
L 106.711181 128.98707 
L 108.920742 128.98707 
L 109.657262 138.286532 
L 110.393782 110.388145 
L 111.866823 147.585995 
L 112.603343 138.286532 
L 113.339864 119.687608 
L 114.076384 110.388145 
L 114.812905 91.78922 
L 115.549425 119.687608 
L 116.285945 156.885457 
L 117.022466 128.98707 
L 117.758986 119.687608 
L 118.495506 119.687608 
L 119.968547 138.286532 
L 120.705067 101.088683 
L 121.441588 128.98707 
L 122.178108 128.98707 
L 123.651149 110.388145 
L 124.387669 110.388145 
L 125.124189 128.98707 
L 125.86071 110.388145 
L 127.33375 110.388145 
L 128.070271 119.687608 
L 128.806791 119.687608 
L 129.543311 138.286532 
L 130.279832 91.78922 
L 131.752872 128.98707 
L 132.489393 138.286532 
L 133.225913 110.388145 
L 133.962433 128.98707 
L 134.698954 119.687608 
L 136.171994 119.687608 
L 136.908515 101.088683 
L 137.645035 128.98707 
L 139.118076 110.388145 
L 139.854596 110.388145 
L 141.327637 128.98707 
L 142.800677 128.98707 
L 144.273718 110.388145 
L 145.010238 128.98707 
L 145.746759 119.687608 
L 146.483279 147.585995 
L 147.219799 110.388145 
L 147.95632 110.388145 
L 148.69284 128.98707 
L 149.42936 138.286532 
L 150.165881 119.687608 
L 150.902401 128.98707 
L 151.638921 110.388145 
L 152.375442 128.98707 
L 153.111962 110.388145 
L 153.848482 110.388145 
L 155.321523 128.98707 
L 156.058043 119.687608 
L 156.794564 119.687608 
L 157.531084 147.585995 
L 158.267605 128.98707 
L 159.740645 110.388145 
L 161.213686 128.98707 
L 161.950206 119.687608 
L 162.686727 128.98707 
L 163.423247 119.687608 
L 164.159767 138.286532 
L 164.896288 119.687608 
L 165.632808 110.388145 
L 166.369328 110.388145 
L 167.105849 138.286532 
L 167.842369 110.388145 
L 169.31541 110.388145 
L 170.05193 119.687608 
L 170.78845 110.388145 
L 171.524971 128.98707 
L 172.261491 119.687608 
L 172.998011 128.98707 
L 173.734532 119.687608 
L 174.471052 119.687608 
L 175.207572 101.088683 
L 175.944093 119.687608 
L 176.680613 119.687608 
L 177.417133 110.388145 
L 178.890174 128.98707 
L 179.626694 119.687608 
L 182.572776 119.687608 
L 183.309296 128.98707 
L 184.045816 128.98707 
L 185.518857 110.388145 
L 186.255377 128.98707 
L 186.991898 138.286532 
L 187.728418 138.286532 
L 188.464938 110.388145 
L 189.201459 110.388145 
L 189.937979 128.98707 
L 190.674499 128.98707 
L 191.41102 110.388145 
L 192.14754 128.98707 
L 192.88406 119.687608 
L 193.620581 128.98707 
L 195.093621 110.388145 
L 195.830142 110.388145 
L 196.566662 128.98707 
L 197.303182 128.98707 
L 198.039703 138.286532 
L 198.776223 110.388145 
L 199.512743 128.98707 
L 200.249264 128.98707 
L 200.985784 119.687608 
L 201.722305 138.286532 
L 202.458825 119.687608 
L 203.195345 119.687608 
L 203.931866 110.388145 
L 204.668386 119.687608 
L 205.404906 110.388145 
L 206.141427 138.286532 
L 206.877947 119.687608 
L 207.614467 119.687608 
L 208.350988 128.98707 
L 209.087508 119.687608 
L 209.824028 101.088683 
L 210.560549 119.687608 
L 211.297069 128.98707 
L 212.033589 119.687608 
L 212.77011 119.687608 
L 213.50663 101.088683 
L 214.24315 128.98707 
L 215.716191 128.98707 
L 217.189232 110.388145 
L 218.662272 128.98707 
L 219.398793 119.687608 
L 220.135313 119.687608 
L 221.608354 101.088683 
L 222.344874 119.687608 
L 223.081394 128.98707 
L 223.817915 101.088683 
L 224.554435 138.286532 
L 225.290955 119.687608 
L 226.027476 110.388145 
L 226.763996 128.98707 
L 227.500516 110.388145 
L 228.237037 128.98707 
L 228.973557 128.98707 
L 229.710077 119.687608 
L 230.446598 119.687608 
L 231.183118 128.98707 
L 232.656159 128.98707 
L 234.129199 110.388145 
L 234.86572 119.687608 
L 237.075281 119.687608 
L 237.811801 101.088683 
L 238.548321 110.388145 
L 239.284842 138.286532 
L 240.021362 119.687608 
L 240.757882 128.98707 
L 241.494403 110.388145 
L 242.230923 128.98707 
L 242.967443 119.687608 
L 243.703964 128.98707 
L 244.440484 119.687608 
L 245.913525 119.687608 
L 246.650045 110.388145 
L 247.386566 128.98707 
L 248.123086 128.98707 
L 248.859606 119.687608 
L 249.596127 119.687608 
L 250.332647 110.388145 
L 251.069167 147.585995 
L 251.805688 128.98707 
L 252.542208 138.286532 
L 253.278728 119.687608 
L 254.015249 128.98707 
L 256.22481 101.088683 
L 256.96133 119.687608 
L 257.69785 128.98707 
L 258.434371 147.585995 
L 259.170891 110.388145 
L 259.907411 128.98707 
L 261.380452 128.98707 
L 262.116972 119.687608 
L 262.853493 119.687608 
L 263.590013 110.388145 
L 264.326533 119.687608 
L 265.063054 119.687608 
L 265.799574 128.98707 
L 266.536094 119.687608 
L 267.272615 128.98707 
L 268.009135 110.388145 
L 268.745655 101.088683 
L 269.482176 138.286532 
L 270.218696 128.98707 
L 270.955216 138.286532 
L 271.691737 119.687608 
L 272.428257 119.687608 
L 273.164777 138.286532 
L 273.901298 110.388145 
L 274.637818 128.98707 
L 275.374338 128.98707 
L 276.110859 119.687608 
L 276.847379 119.687608 
L 277.583899 110.388145 
L 278.32042 119.687608 
L 279.05694 110.388145 
L 279.79346 128.98707 
L 280.529981 110.388145 
L 281.266501 101.088683 
L 282.003021 128.98707 
L 282.739542 128.98707 
L 284.212582 110.388145 
L 284.949103 128.98707 
L 285.685623 138.286532 
L 286.422143 110.388145 
L 287.158664 110.388145 
L 287.895184 128.98707 
L 288.631704 110.388145 
L 289.368225 128.98707 
L 290.841266 110.388145 
L 291.577786 119.687608 
L 292.314306 147.585995 
L 293.050827 110.388145 
L 293.787347 119.687608 
L 294.523867 119.687608 
L 295.996908 138.286532 
L 296.733428 119.687608 
L 297.469949 119.687608 
L 298.206469 110.388145 
L 298.942989 128.98707 
L 299.67951 119.687608 
L 300.41603 138.286532 
L 301.15255 119.687608 
L 301.889071 166.184919 
L 302.625591 138.286532 
L 303.362111 119.687608 
L 304.835152 119.687608 
L 305.571672 128.98707 
L 306.308193 119.687608 
L 307.044713 138.286532 
L 307.781233 128.98707 
L 308.517754 110.388145 
L 309.254274 128.98707 
L 309.990794 110.388145 
L 310.727315 119.687608 
L 311.463835 119.687608 
L 312.200355 128.98707 
L 312.936876 101.088683 
L 313.673396 128.98707 
L 315.882957 128.98707 
L 316.619477 138.286532 
L 317.355998 138.286532 
L 319.565559 110.388145 
L 320.302079 138.286532 
L 321.038599 128.98707 
L 321.77512 110.388145 
L 322.51164 128.98707 
L 323.24816 128.98707 
L 323.984681 101.088683 
L 324.721201 138.286532 
L 325.457721 119.687608 
L 326.194242 128.98707 
L 326.930762 119.687608 
L 327.667282 128.98707 
L 328.403803 110.388145 
L 329.876843 128.98707 
L 330.613364 119.687608 
L 332.086404 119.687608 
L 332.822925 138.286532 
L 333.559445 128.98707 
L 334.295966 128.98707 
L 335.032486 119.687608 
L 335.769006 128.98707 
L 337.978567 128.98707 
L 338.715088 119.687608 
L 339.451608 119.687608 
L 340.188128 128.98707 
L 340.924649 110.388145 
L 341.661169 128.98707 
L 342.397689 110.388145 
L 343.13421 119.687608 
L 343.87073 138.286532 
L 344.60725 119.687608 
L 345.343771 119.687608 
L 346.080291 110.388145 
L 346.816811 138.286532 
L 348.289852 119.687608 
L 349.762893 138.286532 
L 350.499413 119.687608 
L 351.235933 119.687608 
L 351.972454 138.286532 
L 352.708974 119.687608 
L 353.445494 119.687608 
L 354.182015 138.286532 
L 354.918535 138.286532 
L 355.655055 110.388145 
L 356.391576 138.286532 
L 357.128096 119.687608 
L 359.337657 119.687608 
L 360.074177 138.286532 
L 360.810698 119.687608 
L 361.547218 119.687608 
L 362.283738 128.98707 
L 363.020259 128.98707 
L 364.493299 110.388145 
L 365.22982 128.98707 
L 365.96634 101.088683 
L 367.439381 138.286532 
L 368.912421 119.687608 
L 369.648942 128.98707 
L 370.385462 156.885457 
L 371.121982 101.088683 
L 371.858503 119.687608 
L 372.595023 110.388145 
L 373.331543 128.98707 
L 374.068064 110.388145 
L 375.541104 128.98707 
L 376.277625 119.687608 
L 377.014145 138.286532 
L 377.750666 119.687608 
L 379.223706 119.687608 
L 379.960227 110.388145 
L 380.696747 110.388145 
L 381.433267 138.286532 
L 382.169788 119.687608 
L 384.379349 119.687608 
L 385.115869 110.388145 
L 385.852389 119.687608 
L 386.58891 110.388145 
L 388.06195 128.98707 
L 388.798471 119.687608 
L 389.534991 128.98707 
L 390.271511 101.088683 
L 391.008032 119.687608 
L 391.744552 110.388145 
L 392.481072 110.388145 
L 393.217593 101.088683 
L 393.954113 128.98707 
L 394.690633 128.98707 
L 396.163674 110.388145 
L 396.900194 119.687608 
L 397.636715 110.388145 
L 398.373235 138.286532 
L 399.109755 119.687608 
L 399.846276 128.98707 
L 400.582796 119.687608 
L 401.319316 128.98707 
L 402.055837 119.687608 
L 402.792357 119.687608 
L 403.528877 110.388145 
L 405.001918 128.98707 
L 405.738438 110.388145 
L 406.474959 101.088683 
L 407.211479 128.98707 
L 407.947999 128.98707 
L 408.68452 110.388145 
L 409.42104 119.687608 
L 410.15756 147.585995 
L 410.894081 101.088683 
L 411.630601 119.687608 
L 412.367121 128.98707 
L 413.103642 128.98707 
L 414.576682 110.388145 
L 415.313203 147.585995 
L 416.049723 110.388145 
L 416.786243 128.98707 
L 418.259284 128.98707 
L 418.995804 119.687608 
L 419.732325 119.687608 
L 420.468845 128.98707 
L 421.205366 110.388145 
L 421.941886 128.98707 
L 422.678406 119.687608 
L 423.414927 128.98707 
L 424.151447 119.687608 
L 424.887967 138.286532 
L 425.624488 110.388145 
L 426.361008 119.687608 
L 427.097528 101.088683 
L 427.834049 128.98707 
L 428.570569 138.286532 
L 429.307089 119.687608 
L 430.04361 119.687608 
L 430.78013 147.585995 
L 431.51665 128.98707 
L 432.253171 119.687608 
L 432.989691 128.98707 
L 433.726211 128.98707 
L 435.199252 110.388145 
L 435.935772 119.687608 
L 436.672293 110.388145 
L 437.408813 138.286532 
L 438.145333 119.687608 
L 438.881854 128.98707 
L 439.618374 101.088683 
L 440.354894 119.687608 
L 441.091415 128.98707 
L 441.827935 119.687608 
L 442.564455 119.687608 
L 443.300976 110.388145 
L 444.037496 110.388145 
L 444.774016 128.98707 
L 445.510537 128.98707 
L 447.720098 101.088683 
L 448.456618 128.98707 
L 449.193138 128.98707 
L 449.929659 119.687608 
L 450.666179 119.687608 
L 451.402699 110.388145 
L 452.13922 119.687608 
L 452.87574 101.088683 
L 453.61226 138.286532 
L 454.348781 110.388145 
L 455.821821 128.98707 
L 456.558342 119.687608 
L 457.294862 128.98707 
L 458.767903 110.388145 
L 460.240943 110.388145 
L 460.977464 138.286532 
L 461.713984 119.687608 
L 462.450504 128.98707 
L 463.187025 110.388145 
L 463.923545 128.98707 
L 464.660065 119.687608 
L 465.396586 128.98707 
L 466.133106 119.687608 
L 466.869627 119.687608 
L 467.606147 138.286532 
L 468.342667 101.088683 
L 469.079188 138.286532 
L 469.815708 101.088683 
L 470.552228 110.388145 
L 471.288749 110.388145 
L 472.761789 128.98707 
L 473.49831 128.98707 
L 474.23483 138.286532 
L 474.97135 110.388145 
L 476.444391 128.98707 
L 477.917432 110.388145 
L 478.653952 91.78922 
L 479.390472 128.98707 
L 480.126993 128.98707 
L 480.863513 110.388145 
L 481.600033 119.687608 
L 483.073074 119.687608 
L 483.809594 128.98707 
L 484.546115 119.687608 
L 485.282635 119.687608 
L 486.019155 156.885457 
L 486.755676 119.687608 
L 487.492196 119.687608 
L 488.228716 110.388145 
L 489.701757 128.98707 
L 490.438277 128.98707 
L 491.174798 110.388145 
L 491.911318 101.088683 
L 493.384359 119.687608 
L 494.120879 110.388145 
L 494.857399 119.687608 
L 495.59392 138.286532 
L 496.33044 128.98707 
L 497.06696 110.388145 
L 497.803481 128.98707 
L 498.540001 110.388145 
L 499.276521 110.388145 
L 500.013042 128.98707 
L 500.749562 119.687608 
L 500.749562 119.687608 
" style="fill:none;stroke:#1f77b4;stroke-linecap:square;stroke-width:1.5;"/>
   </g>
   <g id="line2d_15">
    <path clip-path="url(#p8d6d27606e)" d="M 112.63575 147.585995 
L 113.372271 128.98707 
L 114.108791 128.98707 
L 114.845311 110.388145 
L 115.581832 119.687608 
L 116.318352 156.885457 
L 117.054872 128.98707 
L 118.527913 91.78922 
L 119.264433 128.98707 
L 120.000954 138.286532 
L 120.737474 119.687608 
L 121.473994 128.98707 
L 122.210515 110.388145 
L 122.947035 110.388145 
L 124.420076 128.98707 
L 125.156596 128.98707 
L 125.893116 91.78922 
L 126.629637 101.088683 
L 127.366157 128.98707 
L 128.102678 110.388145 
L 128.839198 138.286532 
L 129.575718 138.286532 
L 130.312239 101.088683 
L 131.048759 110.388145 
L 131.785279 128.98707 
L 132.5218 138.286532 
L 133.25832 91.78922 
L 133.99484 128.98707 
L 134.731361 119.687608 
L 135.467881 128.98707 
L 136.204401 101.088683 
L 136.940922 119.687608 
L 137.677442 128.98707 
L 138.413962 110.388145 
L 139.150483 110.388145 
L 139.887003 128.98707 
L 140.623523 110.388145 
L 141.360044 138.286532 
L 142.096564 119.687608 
L 142.833084 128.98707 
L 143.569605 110.388145 
L 144.306125 110.388145 
L 145.042645 119.687608 
L 145.779166 119.687608 
L 146.515686 138.286532 
L 147.252206 119.687608 
L 147.988727 128.98707 
L 148.725247 128.98707 
L 149.461767 138.286532 
L 150.198288 110.388145 
L 150.934808 138.286532 
L 151.671328 119.687608 
L 152.407849 110.388145 
L 153.144369 110.388145 
L 153.880889 128.98707 
L 156.09045 128.98707 
L 156.826971 119.687608 
L 157.563491 138.286532 
L 158.300011 128.98707 
L 159.036532 110.388145 
L 159.773052 119.687608 
L 160.509572 91.78922 
L 161.246093 119.687608 
L 161.982613 128.98707 
L 162.719133 128.98707 
L 163.455654 110.388145 
L 164.192174 138.286532 
L 164.928694 119.687608 
L 165.665215 119.687608 
L 166.401735 110.388145 
L 167.138255 138.286532 
L 167.874776 119.687608 
L 168.611296 128.98707 
L 170.820857 101.088683 
L 171.557378 119.687608 
L 172.293898 128.98707 
L 173.030418 128.98707 
L 173.766939 110.388145 
L 174.503459 110.388145 
L 175.239979 119.687608 
L 175.9765 119.687608 
L 176.71302 138.286532 
L 177.44954 119.687608 
L 179.659101 119.687608 
L 180.395622 128.98707 
L 181.868662 128.98707 
L 182.605183 119.687608 
L 183.341703 128.98707 
L 184.078223 128.98707 
L 184.814744 119.687608 
L 185.551264 119.687608 
L 186.287784 110.388145 
L 187.024305 128.98707 
L 187.760825 128.98707 
L 188.497345 101.088683 
L 189.233866 128.98707 
L 189.970386 128.98707 
L 190.706906 119.687608 
L 192.179947 119.687608 
L 192.916467 128.98707 
L 193.652988 128.98707 
L 194.389508 119.687608 
L 195.126028 128.98707 
L 196.599069 110.388145 
L 198.07211 128.98707 
L 198.80863 119.687608 
L 199.54515 128.98707 
L 200.281671 119.687608 
L 201.018191 101.088683 
L 201.754711 147.585995 
L 202.491232 119.687608 
L 203.227752 128.98707 
L 204.700793 110.388145 
L 205.437313 110.388145 
L 206.173833 138.286532 
L 206.910354 119.687608 
L 207.646874 128.98707 
L 208.383394 110.388145 
L 209.119915 119.687608 
L 209.856435 119.687608 
L 210.592955 101.088683 
L 211.329476 110.388145 
L 212.065996 128.98707 
L 212.802516 110.388145 
L 213.539037 128.98707 
L 214.275557 119.687608 
L 215.012078 128.98707 
L 216.485118 110.388145 
L 217.221639 110.388145 
L 217.958159 128.98707 
L 218.694679 128.98707 
L 219.4312 110.388145 
L 220.16772 110.388145 
L 220.90424 119.687608 
L 221.640761 119.687608 
L 223.113801 138.286532 
L 223.850322 101.088683 
L 224.586842 119.687608 
L 226.059883 119.687608 
L 226.796403 128.98707 
L 227.532923 119.687608 
L 229.742484 119.687608 
L 230.479005 110.388145 
L 231.215525 138.286532 
L 231.952045 119.687608 
L 232.688566 128.98707 
L 233.425086 110.388145 
L 234.898127 128.98707 
L 235.634647 119.687608 
L 237.107688 119.687608 
L 237.844208 110.388145 
L 238.580728 110.388145 
L 239.317249 128.98707 
L 240.053769 119.687608 
L 240.790289 119.687608 
L 241.52681 101.088683 
L 242.26333 128.98707 
L 242.99985 119.687608 
L 243.736371 128.98707 
L 244.472891 119.687608 
L 245.209411 119.687608 
L 245.945932 110.388145 
L 246.682452 119.687608 
L 247.418972 138.286532 
L 248.892013 119.687608 
L 249.628533 128.98707 
L 250.365054 110.388145 
L 251.101574 156.885457 
L 251.838094 119.687608 
L 253.311135 119.687608 
L 254.047655 128.98707 
L 254.784176 110.388145 
L 255.520696 110.388145 
L 256.257216 119.687608 
L 257.730257 119.687608 
L 258.466777 147.585995 
L 259.203298 119.687608 
L 259.939818 128.98707 
L 261.412859 110.388145 
L 262.149379 110.388145 
L 262.8859 119.687608 
L 263.62242 119.687608 
L 264.35894 110.388145 
L 265.831981 128.98707 
L 266.568501 119.687608 
L 267.305022 128.98707 
L 268.041542 128.98707 
L 268.778062 110.388145 
L 269.514583 138.286532 
L 270.251103 128.98707 
L 270.987623 147.585995 
L 271.724144 119.687608 
L 272.460664 101.088683 
L 273.197184 138.286532 
L 273.933705 110.388145 
L 274.670225 128.98707 
L 275.406745 119.687608 
L 276.143266 119.687608 
L 276.879786 128.98707 
L 277.616306 119.687608 
L 278.352827 101.088683 
L 279.089347 128.98707 
L 279.825867 119.687608 
L 280.562388 128.98707 
L 281.298908 101.088683 
L 282.035428 128.98707 
L 283.508469 110.388145 
L 284.244989 128.98707 
L 284.98151 110.388145 
L 285.71803 128.98707 
L 286.45455 119.687608 
L 288.664111 119.687608 
L 289.400632 128.98707 
L 290.137152 110.388145 
L 290.873672 119.687608 
L 291.610193 119.687608 
L 292.346713 147.585995 
L 293.083233 119.687608 
L 293.819754 119.687608 
L 294.556274 110.388145 
L 295.292794 119.687608 
L 296.029315 119.687608 
L 296.765835 128.98707 
L 297.502355 119.687608 
L 298.238876 119.687608 
L 298.975396 110.388145 
L 299.711916 119.687608 
L 300.448437 138.286532 
L 301.184957 119.687608 
L 301.921477 156.885457 
L 302.657998 119.687608 
L 303.394518 110.388145 
L 304.131039 110.388145 
L 304.867559 128.98707 
L 305.604079 138.286532 
L 306.3406 119.687608 
L 307.07712 128.98707 
L 307.81364 128.98707 
L 308.550161 110.388145 
L 309.286681 128.98707 
L 310.023201 101.088683 
L 310.759722 128.98707 
L 311.496242 119.687608 
L 312.232762 128.98707 
L 312.969283 110.388145 
L 313.705803 128.98707 
L 314.442323 128.98707 
L 315.178844 119.687608 
L 315.915364 119.687608 
L 316.651884 138.286532 
L 317.388405 147.585995 
L 318.124925 119.687608 
L 318.861445 128.98707 
L 319.597966 119.687608 
L 320.334486 128.98707 
L 321.071006 128.98707 
L 321.807527 119.687608 
L 322.544047 128.98707 
L 323.280567 110.388145 
L 324.753608 128.98707 
L 325.490128 128.98707 
L 326.226649 110.388145 
L 326.963169 110.388145 
L 327.699689 128.98707 
L 328.43621 128.98707 
L 329.17273 119.687608 
L 330.645771 119.687608 
L 331.382291 128.98707 
L 333.591852 128.98707 
L 335.064893 110.388145 
L 335.801413 138.286532 
L 336.537933 128.98707 
L 337.274454 128.98707 
L 338.010974 119.687608 
L 338.747494 128.98707 
L 339.484015 101.088683 
L 340.220535 128.98707 
L 341.693576 110.388145 
L 342.430096 110.388145 
L 343.903137 128.98707 
L 344.639657 128.98707 
L 345.376177 101.088683 
L 346.112698 128.98707 
L 347.585739 128.98707 
L 348.322259 110.388145 
L 349.058779 119.687608 
L 349.7953 138.286532 
L 350.53182 110.388145 
L 351.26834 128.98707 
L 352.004861 138.286532 
L 352.741381 119.687608 
L 353.477901 128.98707 
L 354.950942 128.98707 
L 355.687462 110.388145 
L 356.423983 138.286532 
L 357.160503 119.687608 
L 357.897023 110.388145 
L 358.633544 147.585995 
L 359.370064 128.98707 
L 360.843105 110.388145 
L 361.579625 110.388145 
L 362.316145 138.286532 
L 363.052666 128.98707 
L 363.789186 128.98707 
L 364.525706 110.388145 
L 365.262227 101.088683 
L 365.998747 119.687608 
L 366.735267 119.687608 
L 367.471788 138.286532 
L 368.208308 128.98707 
L 368.944828 110.388145 
L 369.681349 128.98707 
L 370.417869 138.286532 
L 371.154389 110.388145 
L 371.89091 110.388145 
L 372.62743 128.98707 
L 373.36395 110.388145 
L 374.100471 110.388145 
L 374.836991 119.687608 
L 375.573511 119.687608 
L 376.310032 110.388145 
L 377.046552 147.585995 
L 377.783072 110.388145 
L 378.519593 128.98707 
L 379.256113 128.98707 
L 379.992633 101.088683 
L 380.729154 110.388145 
L 381.465674 138.286532 
L 382.202194 119.687608 
L 382.938715 110.388145 
L 383.675235 110.388145 
L 384.411755 128.98707 
L 385.148276 128.98707 
L 385.884796 110.388145 
L 386.621316 101.088683 
L 387.357837 119.687608 
L 388.094357 119.687608 
L 388.830877 101.088683 
L 389.567398 128.98707 
L 391.040439 110.388145 
L 391.776959 128.98707 
L 393.25 128.98707 
L 394.72304 110.388145 
L 396.196081 110.388145 
L 396.932601 119.687608 
L 397.669122 110.388145 
L 398.405642 119.687608 
L 399.142162 110.388145 
L 399.878683 138.286532 
L 400.615203 119.687608 
L 401.351723 128.98707 
L 402.088244 110.388145 
L 402.824764 119.687608 
L 403.561284 110.388145 
L 404.297805 138.286532 
L 405.034325 110.388145 
L 405.770845 110.388145 
L 406.507366 119.687608 
L 407.243886 119.687608 
L 407.980406 138.286532 
L 408.716927 119.687608 
L 409.453447 128.98707 
L 410.189967 147.585995 
L 410.926488 110.388145 
L 411.663008 119.687608 
L 412.399528 119.687608 
L 413.136049 128.98707 
L 413.872569 110.388145 
L 414.609089 119.687608 
L 415.34561 147.585995 
L 416.08213 110.388145 
L 416.81865 138.286532 
L 417.555171 128.98707 
L 418.291691 110.388145 
L 419.028211 128.98707 
L 420.501252 110.388145 
L 421.237772 119.687608 
L 421.974293 119.687608 
L 422.710813 110.388145 
L 423.447333 128.98707 
L 424.183854 119.687608 
L 424.920374 138.286532 
L 425.656894 119.687608 
L 426.393415 110.388145 
L 427.129935 119.687608 
L 427.866455 138.286532 
L 428.602976 128.98707 
L 429.339496 101.088683 
L 430.076016 110.388145 
L 430.812537 147.585995 
L 431.549057 138.286532 
L 432.285577 110.388145 
L 433.022098 119.687608 
L 433.758618 138.286532 
L 434.495138 119.687608 
L 435.231659 138.286532 
L 435.968179 128.98707 
L 436.7047 110.388145 
L 437.44122 128.98707 
L 438.17774 119.687608 
L 438.914261 128.98707 
L 439.650781 119.687608 
L 440.387301 128.98707 
L 441.860342 110.388145 
L 442.596862 138.286532 
L 443.333383 110.388145 
L 444.069903 119.687608 
L 444.806423 110.388145 
L 445.542944 128.98707 
L 446.279464 110.388145 
L 447.015984 119.687608 
L 447.752505 101.088683 
L 448.489025 128.98707 
L 449.225545 138.286532 
L 449.962066 128.98707 
L 450.698586 110.388145 
L 451.435106 128.98707 
L 452.908147 110.388145 
L 453.644667 138.286532 
L 454.381188 110.388145 
L 455.117708 128.98707 
L 455.854228 119.687608 
L 456.590749 119.687608 
L 457.327269 128.98707 
L 458.063789 110.388145 
L 458.80031 128.98707 
L 459.53683 110.388145 
L 460.27335 110.388145 
L 461.746391 128.98707 
L 462.482911 128.98707 
L 463.955952 110.388145 
L 465.428993 128.98707 
L 466.165513 128.98707 
L 466.902033 110.388145 
L 467.638554 128.98707 
L 468.375074 110.388145 
L 469.111594 138.286532 
L 469.848115 110.388145 
L 471.321155 110.388145 
L 472.057676 128.98707 
L 472.794196 110.388145 
L 474.267237 128.98707 
L 475.003757 110.388145 
L 475.740277 110.388145 
L 477.213318 128.98707 
L 477.949838 101.088683 
L 478.686359 119.687608 
L 479.422879 119.687608 
L 480.1594 128.98707 
L 480.89592 110.388145 
L 482.368961 110.388145 
L 483.105481 138.286532 
L 483.842001 119.687608 
L 484.578522 110.388145 
L 485.315042 128.98707 
L 486.051562 156.885457 
L 486.788083 128.98707 
L 487.524603 128.98707 
L 488.261123 119.687608 
L 488.997644 101.088683 
L 489.734164 138.286532 
L 490.470684 119.687608 
L 491.207205 119.687608 
L 491.943725 110.388145 
L 492.680245 119.687608 
L 493.416766 119.687608 
L 494.153286 110.388145 
L 494.889806 119.687608 
L 495.626327 110.388145 
L 496.362847 128.98707 
L 497.099367 119.687608 
L 498.572408 119.687608 
L 499.308928 110.388145 
L 500.045449 119.687608 
L 500.781969 110.388145 
L 501.518489 138.286532 
L 502.25501 110.388145 
L 503.72805 128.98707 
L 504.464571 128.98707 
L 505.201091 110.388145 
L 505.937611 147.585995 
L 506.674132 110.388145 
L 507.410652 101.088683 
L 508.147172 128.98707 
L 508.883693 128.98707 
L 509.620213 119.687608 
L 509.620213 119.687608 
" style="fill:none;stroke:#ff7f0e;stroke-linecap:square;stroke-width:1.5;"/>
   </g>
   <g id="line2d_16">
    <path clip-path="url(#p8d6d27606e)" d="M 109.652843 138.286532 
L 110.389363 110.388145 
L 111.125884 138.286532 
L 111.862404 147.585995 
L 112.598924 138.286532 
L 113.335445 119.687608 
L 114.071965 128.98707 
L 114.808485 119.687608 
L 115.545006 119.687608 
L 116.281526 156.885457 
L 117.018046 119.687608 
L 117.754567 110.388145 
L 118.491087 110.388145 
L 119.227607 128.98707 
L 119.964128 138.286532 
L 122.173689 110.388145 
L 122.910209 110.388145 
L 123.646729 128.98707 
L 124.38325 110.388145 
L 125.11977 138.286532 
L 127.329331 110.388145 
L 128.065851 119.687608 
L 128.802372 54.591371 
L 129.538892 138.286532 
L 130.275413 119.687608 
L 131.011933 110.388145 
L 131.748453 119.687608 
L 132.484974 138.286532 
L 133.221494 110.388145 
L 134.694535 128.98707 
L 135.431055 128.98707 
L 136.904096 110.388145 
L 137.640616 128.98707 
L 138.377136 128.98707 
L 139.113657 101.088683 
L 140.586697 119.687608 
L 141.323218 119.687608 
L 142.059738 138.286532 
L 142.796258 110.388145 
L 143.532779 110.388145 
L 144.269299 119.687608 
L 145.74234 119.687608 
L 146.47886 138.286532 
L 147.21538 110.388145 
L 149.424941 138.286532 
L 150.161462 110.388145 
L 151.634502 128.98707 
L 152.371023 119.687608 
L 153.107543 119.687608 
L 153.844063 128.98707 
L 154.580584 101.088683 
L 155.317104 128.98707 
L 156.053624 119.687608 
L 156.790145 45.291909 
L 157.526665 156.885457 
L 158.263185 147.585995 
L 158.999706 110.388145 
L 159.736226 128.98707 
L 160.472746 110.388145 
L 161.209267 119.687608 
L 161.945787 138.286532 
L 162.682307 119.687608 
L 163.418828 119.687608 
L 164.155348 138.286532 
L 164.891868 110.388145 
L 165.628389 128.98707 
L 166.364909 119.687608 
L 167.101429 128.98707 
L 167.83795 128.98707 
L 169.31099 110.388145 
L 170.047511 119.687608 
L 173.730113 119.687608 
L 174.466633 101.088683 
L 176.676194 128.98707 
L 177.412714 110.388145 
L 178.885755 128.98707 
L 180.358796 128.98707 
L 181.095316 119.687608 
L 181.831836 119.687608 
L 182.568357 128.98707 
L 183.304877 110.388145 
L 184.041397 119.687608 
L 184.777918 110.388145 
L 185.514438 119.687608 
L 186.250958 119.687608 
L 186.987479 128.98707 
L 187.723999 128.98707 
L 188.460519 119.687608 
L 189.19704 119.687608 
L 190.67008 138.286532 
L 191.406601 119.687608 
L 192.143121 128.98707 
L 192.879641 128.98707 
L 193.616162 119.687608 
L 194.352682 128.98707 
L 195.089202 110.388145 
L 195.825723 119.687608 
L 196.562243 110.388145 
L 197.298763 128.98707 
L 198.035284 128.98707 
L 198.771804 110.388145 
L 199.508324 138.286532 
L 200.244845 110.388145 
L 200.981365 119.687608 
L 201.717885 147.585995 
L 202.454406 101.088683 
L 203.190926 138.286532 
L 203.927446 110.388145 
L 204.663967 101.088683 
L 205.400487 110.388145 
L 206.137007 138.286532 
L 206.873528 119.687608 
L 207.610048 128.98707 
L 209.083089 128.98707 
L 209.819609 119.687608 
L 210.556129 101.088683 
L 211.29265 110.388145 
L 212.02917 128.98707 
L 213.502211 110.388145 
L 214.238731 119.687608 
L 215.711772 119.687608 
L 216.448292 110.388145 
L 217.184813 110.388145 
L 217.921333 119.687608 
L 218.657853 119.687608 
L 219.394374 128.98707 
L 220.867414 110.388145 
L 221.603935 119.687608 
L 222.340455 138.286532 
L 223.076975 119.687608 
L 223.813496 119.687608 
L 224.550016 138.286532 
L 225.286536 110.388145 
L 226.023057 119.687608 
L 226.759577 138.286532 
L 227.496097 91.78922 
L 228.232618 138.286532 
L 228.969138 110.388145 
L 229.705658 119.687608 
L 230.442179 110.388145 
L 231.178699 128.98707 
L 231.915219 138.286532 
L 232.65174 119.687608 
L 234.12478 101.088683 
L 234.861301 128.98707 
L 235.597821 119.687608 
L 237.807382 119.687608 
L 238.543902 101.088683 
L 239.280423 138.286532 
L 240.016943 110.388145 
L 240.753463 128.98707 
L 241.489984 110.388145 
L 242.226504 119.687608 
L 242.963024 110.388145 
L 243.699545 128.98707 
L 244.436065 119.687608 
L 245.172585 119.687608 
L 245.909106 110.388145 
L 246.645626 128.98707 
L 247.382146 119.687608 
L 248.118667 128.98707 
L 248.855187 128.98707 
L 249.591707 110.388145 
L 250.328228 101.088683 
L 251.064748 156.885457 
L 251.801268 128.98707 
L 252.537789 119.687608 
L 253.274309 101.088683 
L 254.010829 128.98707 
L 254.74735 128.98707 
L 255.48387 119.687608 
L 257.693431 119.687608 
L 258.429951 147.585995 
L 259.166472 110.388145 
L 259.902992 119.687608 
L 260.639512 138.286532 
L 261.376033 119.687608 
L 262.112553 119.687608 
L 262.849074 128.98707 
L 263.585594 110.388145 
L 264.322114 110.388145 
L 265.058635 128.98707 
L 266.531675 110.388145 
L 267.268196 128.98707 
L 268.004716 119.687608 
L 268.741236 119.687608 
L 269.477757 138.286532 
L 270.214277 119.687608 
L 270.950797 138.286532 
L 271.687318 110.388145 
L 272.423838 128.98707 
L 273.160358 138.286532 
L 273.896879 110.388145 
L 274.633399 119.687608 
L 275.369919 138.286532 
L 276.10644 128.98707 
L 276.84296 110.388145 
L 277.57948 119.687608 
L 279.052521 119.687608 
L 279.789041 128.98707 
L 280.525562 110.388145 
L 281.262082 119.687608 
L 281.998602 119.687608 
L 282.735123 128.98707 
L 283.471643 110.388145 
L 284.208163 110.388145 
L 284.944684 128.98707 
L 285.681204 119.687608 
L 286.417724 119.687608 
L 287.154245 110.388145 
L 288.627285 110.388145 
L 289.363806 138.286532 
L 290.100326 119.687608 
L 290.836846 110.388145 
L 291.573367 119.687608 
L 292.309887 147.585995 
L 293.046407 101.088683 
L 294.519448 119.687608 
L 295.255968 138.286532 
L 295.992489 119.687608 
L 296.729009 138.286532 
L 298.20205 119.687608 
L 298.93857 91.78922 
L 299.67509 119.687608 
L 300.411611 138.286532 
L 301.148131 110.388145 
L 301.884651 156.885457 
L 302.621172 138.286532 
L 303.357692 110.388145 
L 304.094212 110.388145 
L 304.830733 128.98707 
L 305.567253 138.286532 
L 306.303774 128.98707 
L 307.040294 138.286532 
L 307.776814 138.286532 
L 308.513335 101.088683 
L 309.249855 128.98707 
L 309.986375 101.088683 
L 310.722896 128.98707 
L 311.459416 128.98707 
L 312.195936 110.388145 
L 312.932457 119.687608 
L 315.142018 119.687608 
L 315.878538 128.98707 
L 316.615058 119.687608 
L 317.351579 147.585995 
L 318.088099 119.687608 
L 318.824619 110.388145 
L 319.56114 110.388145 
L 321.03418 128.98707 
L 321.770701 119.687608 
L 322.507221 138.286532 
L 323.243741 128.98707 
L 323.980262 110.388145 
L 324.716782 138.286532 
L 325.453302 91.78922 
L 326.189823 128.98707 
L 326.926343 119.687608 
L 327.662863 138.286532 
L 328.399384 110.388145 
L 329.135904 128.98707 
L 329.872424 110.388145 
L 330.608945 119.687608 
L 331.345465 119.687608 
L 332.081985 128.98707 
L 333.555026 110.388145 
L 334.291546 119.687608 
L 335.028067 110.388145 
L 335.764587 128.98707 
L 336.501107 128.98707 
L 337.237628 138.286532 
L 337.974148 119.687608 
L 338.710668 128.98707 
L 339.447189 119.687608 
L 340.183709 128.98707 
L 341.65675 110.388145 
L 343.12979 128.98707 
L 343.866311 119.687608 
L 346.075872 119.687608 
L 346.812392 128.98707 
L 347.548912 110.388145 
L 348.285433 110.388145 
L 349.021953 119.687608 
L 349.758474 147.585995 
L 350.494994 110.388145 
L 351.231514 128.98707 
L 351.968035 138.286532 
L 352.704555 138.286532 
L 353.441075 119.687608 
L 354.177596 138.286532 
L 354.914116 128.98707 
L 355.650636 110.388145 
L 356.387157 138.286532 
L 357.123677 119.687608 
L 357.860197 119.687608 
L 358.596718 91.78922 
L 359.333238 119.687608 
L 360.069758 128.98707 
L 363.75236 128.98707 
L 364.48888 119.687608 
L 365.225401 101.088683 
L 365.961921 119.687608 
L 366.698441 128.98707 
L 367.434962 119.687608 
L 368.171482 138.286532 
L 368.908002 119.687608 
L 369.644523 128.98707 
L 370.381043 147.585995 
L 371.117563 119.687608 
L 372.590604 119.687608 
L 374.063645 101.088683 
L 374.800165 119.687608 
L 376.273206 119.687608 
L 377.009726 128.98707 
L 377.746246 101.088683 
L 378.482767 138.286532 
L 379.219287 119.687608 
L 380.692328 119.687608 
L 381.428848 138.286532 
L 382.165368 110.388145 
L 382.901889 110.388145 
L 383.638409 128.98707 
L 384.374929 110.388145 
L 385.11145 128.98707 
L 385.84797 119.687608 
L 386.58449 82.489758 
L 387.321011 119.687608 
L 388.057531 128.98707 
L 388.794051 101.088683 
L 389.530572 119.687608 
L 390.267092 119.687608 
L 391.003612 110.388145 
L 392.476653 128.98707 
L 393.213174 110.388145 
L 393.949694 128.98707 
L 395.422735 110.388145 
L 396.159255 128.98707 
L 396.895775 91.78922 
L 397.632296 119.687608 
L 398.368816 128.98707 
L 399.105336 101.088683 
L 399.841857 128.98707 
L 400.578377 138.286532 
L 401.314897 119.687608 
L 402.051418 128.98707 
L 402.787938 128.98707 
L 403.524458 119.687608 
L 404.260979 119.687608 
L 404.997499 128.98707 
L 405.734019 119.687608 
L 407.20706 119.687608 
L 407.94358 128.98707 
L 408.680101 128.98707 
L 409.416621 119.687608 
L 410.153141 147.585995 
L 410.889662 119.687608 
L 411.626182 110.388145 
L 412.362702 128.98707 
L 413.099223 119.687608 
L 413.835743 119.687608 
L 414.572263 110.388145 
L 415.308784 147.585995 
L 416.045304 91.78922 
L 416.781824 101.088683 
L 417.518345 128.98707 
L 418.254865 128.98707 
L 418.991385 119.687608 
L 419.727906 128.98707 
L 420.464426 119.687608 
L 421.200946 119.687608 
L 421.937467 110.388145 
L 422.673987 110.388145 
L 423.410507 138.286532 
L 424.147028 110.388145 
L 424.883548 138.286532 
L 426.356589 119.687608 
L 427.093109 101.088683 
L 427.829629 128.98707 
L 428.56615 128.98707 
L 430.03919 110.388145 
L 430.775711 147.585995 
L 431.512231 128.98707 
L 432.248751 119.687608 
L 432.985272 119.687608 
L 433.721792 128.98707 
L 434.458312 110.388145 
L 435.194833 138.286532 
L 435.931353 128.98707 
L 436.667873 128.98707 
L 437.404394 138.286532 
L 438.140914 128.98707 
L 438.877435 128.98707 
L 439.613955 101.088683 
L 440.350475 119.687608 
L 441.086996 110.388145 
L 442.560036 128.98707 
L 444.033077 110.388145 
L 444.769597 119.687608 
L 445.506118 138.286532 
L 446.242638 110.388145 
L 447.715679 110.388145 
L 449.188719 128.98707 
L 449.92524 128.98707 
L 450.66176 101.088683 
L 451.39828 128.98707 
L 452.871321 91.78922 
L 453.607841 138.286532 
L 454.344362 128.98707 
L 455.080882 128.98707 
L 455.817402 138.286532 
L 456.553923 110.388145 
L 457.290443 138.286532 
L 458.026963 110.388145 
L 459.500004 128.98707 
L 460.236524 110.388145 
L 460.973045 138.286532 
L 461.709565 110.388145 
L 462.446085 138.286532 
L 463.182606 128.98707 
L 463.919126 128.98707 
L 464.655646 119.687608 
L 465.392167 119.687608 
L 466.128687 128.98707 
L 466.865207 91.78922 
L 467.601728 128.98707 
L 468.338248 101.088683 
L 469.074768 138.286532 
L 469.811289 128.98707 
L 470.547809 101.088683 
L 472.75737 128.98707 
L 473.49389 119.687608 
L 474.230411 138.286532 
L 474.966931 119.687608 
L 475.703451 119.687608 
L 476.439972 110.388145 
L 477.176492 128.98707 
L 477.913012 119.687608 
L 478.649533 119.687608 
L 479.386053 110.388145 
L 480.122573 119.687608 
L 480.859094 101.088683 
L 481.595614 91.78922 
L 482.332135 128.98707 
L 483.068655 128.98707 
L 483.805175 119.687608 
L 484.541696 119.687608 
L 485.278216 110.388145 
L 486.014736 156.885457 
L 486.751257 128.98707 
L 488.224297 110.388145 
L 488.960818 128.98707 
L 489.697338 119.687608 
L 490.433858 128.98707 
L 491.906899 110.388145 
L 492.643419 110.388145 
L 493.37994 119.687608 
L 494.11646 119.687608 
L 494.85298 128.98707 
L 495.589501 119.687608 
L 496.326021 128.98707 
L 497.062541 119.687608 
L 497.799062 128.98707 
L 498.535582 119.687608 
L 499.272102 119.687608 
L 500.008623 110.388145 
L 500.745143 110.388145 
L 501.481663 128.98707 
L 502.218184 101.088683 
L 502.954704 128.98707 
L 503.691224 138.286532 
L 505.164265 119.687608 
L 505.900785 147.585995 
L 506.637306 110.388145 
L 506.637306 110.388145 
" style="fill:none;stroke:#2ca02c;stroke-linecap:square;stroke-width:1.5;"/>
   </g>
   <g id="line2d_17">
    <path clip-path="url(#p8d6d27606e)" d="M 106.773048 147.585995 
L 107.509569 128.98707 
L 108.246089 147.585995 
L 108.98261 128.98707 
L 109.71913 138.286532 
L 110.45565 128.98707 
L 111.192171 128.98707 
L 111.928691 147.585995 
L 113.401732 110.388145 
L 114.138252 119.687608 
L 114.874772 110.388145 
L 115.611293 119.687608 
L 116.347813 156.885457 
L 117.084333 128.98707 
L 117.820854 119.687608 
L 118.557374 119.687608 
L 119.293894 128.98707 
L 120.030415 128.98707 
L 121.503455 110.388145 
L 122.239976 128.98707 
L 122.976496 110.388145 
L 123.713016 128.98707 
L 124.449537 119.687608 
L 127.395618 119.687608 
L 128.132138 101.088683 
L 128.868659 128.98707 
L 129.605179 138.286532 
L 130.341699 110.388145 
L 131.07822 110.388145 
L 131.81474 119.687608 
L 132.55126 138.286532 
L 134.024301 119.687608 
L 134.760821 119.687608 
L 135.497342 110.388145 
L 136.233862 119.687608 
L 136.970382 119.687608 
L 137.706903 128.98707 
L 138.443423 119.687608 
L 139.179943 119.687608 
L 139.916464 128.98707 
L 140.652984 101.088683 
L 141.389504 128.98707 
L 142.862545 110.388145 
L 144.335586 128.98707 
L 145.072106 128.98707 
L 145.808626 110.388145 
L 146.545147 147.585995 
L 147.281667 110.388145 
L 148.018187 128.98707 
L 149.491228 128.98707 
L 150.227748 110.388145 
L 150.964269 128.98707 
L 151.700789 128.98707 
L 152.43731 119.687608 
L 153.17383 119.687608 
L 153.91035 110.388145 
L 154.646871 119.687608 
L 155.383391 110.388145 
L 156.119911 138.286532 
L 156.856432 119.687608 
L 157.592952 138.286532 
L 158.329472 128.98707 
L 159.065993 110.388145 
L 159.802513 119.687608 
L 162.012074 119.687608 
L 162.748594 110.388145 
L 163.485115 128.98707 
L 164.221635 138.286532 
L 164.958155 110.388145 
L 165.694676 128.98707 
L 166.431196 119.687608 
L 167.167716 138.286532 
L 167.904237 128.98707 
L 168.640757 110.388145 
L 169.377277 119.687608 
L 170.113798 110.388145 
L 170.850318 110.388145 
L 171.586838 128.98707 
L 172.323359 128.98707 
L 173.059879 110.388145 
L 173.796399 110.388145 
L 174.53292 119.687608 
L 175.26944 119.687608 
L 176.00596 128.98707 
L 176.742481 128.98707 
L 177.479001 119.687608 
L 178.215521 128.98707 
L 178.952042 119.687608 
L 179.688562 101.088683 
L 180.425082 119.687608 
L 181.898123 119.687608 
L 182.634643 128.98707 
L 183.371164 110.388145 
L 184.107684 138.286532 
L 184.844204 119.687608 
L 185.580725 110.388145 
L 186.317245 128.98707 
L 187.790286 128.98707 
L 188.526806 110.388145 
L 189.263326 128.98707 
L 189.999847 138.286532 
L 190.736367 128.98707 
L 191.472887 128.98707 
L 192.209408 110.388145 
L 192.945928 110.388145 
L 193.682448 138.286532 
L 194.418969 119.687608 
L 195.155489 128.98707 
L 195.89201 110.388145 
L 196.62853 119.687608 
L 197.36505 138.286532 
L 198.838091 119.687608 
L 199.574611 128.98707 
L 200.311132 101.088683 
L 201.047652 110.388145 
L 201.784172 147.585995 
L 202.520693 110.388145 
L 203.257213 128.98707 
L 204.730254 110.388145 
L 205.466774 110.388145 
L 206.939815 128.98707 
L 208.412855 110.388145 
L 209.149376 119.687608 
L 209.885896 110.388145 
L 210.622416 119.687608 
L 212.095457 119.687608 
L 212.831977 110.388145 
L 213.568498 119.687608 
L 214.305018 101.088683 
L 215.041538 128.98707 
L 215.778059 119.687608 
L 217.98762 119.687608 
L 218.72414 128.98707 
L 219.46066 101.088683 
L 220.197181 110.388145 
L 220.933701 110.388145 
L 222.406742 128.98707 
L 223.143262 128.98707 
L 223.879782 101.088683 
L 224.616303 128.98707 
L 225.352823 110.388145 
L 226.825864 128.98707 
L 227.562384 119.687608 
L 228.298904 119.687608 
L 229.035425 128.98707 
L 229.771945 101.088683 
L 230.508465 110.388145 
L 231.244986 138.286532 
L 231.981506 128.98707 
L 232.718026 138.286532 
L 233.454547 119.687608 
L 234.191067 119.687608 
L 234.927587 110.388145 
L 235.664108 128.98707 
L 236.400628 128.98707 
L 237.137148 101.088683 
L 237.873669 119.687608 
L 238.610189 110.388145 
L 240.08323 128.98707 
L 240.81975 119.687608 
L 241.556271 128.98707 
L 242.292791 128.98707 
L 243.029311 119.687608 
L 243.765832 128.98707 
L 245.238872 128.98707 
L 245.975393 110.388145 
L 246.711913 110.388145 
L 247.448433 119.687608 
L 248.184954 119.687608 
L 248.921474 138.286532 
L 249.657994 119.687608 
L 250.394515 110.388145 
L 251.131035 147.585995 
L 251.867555 119.687608 
L 252.604076 119.687608 
L 253.340596 110.388145 
L 254.077116 138.286532 
L 254.813637 110.388145 
L 255.550157 119.687608 
L 256.286677 101.088683 
L 257.023198 138.286532 
L 257.759718 128.98707 
L 258.496238 147.585995 
L 259.232759 119.687608 
L 259.969279 119.687608 
L 260.705799 128.98707 
L 261.44232 128.98707 
L 262.17884 101.088683 
L 262.91536 128.98707 
L 263.651881 128.98707 
L 264.388401 110.388145 
L 265.124921 119.687608 
L 266.597962 119.687608 
L 267.334482 128.98707 
L 268.071003 128.98707 
L 268.807523 119.687608 
L 270.280564 138.286532 
L 271.017084 138.286532 
L 271.753604 119.687608 
L 272.490125 110.388145 
L 273.226645 128.98707 
L 274.699686 110.388145 
L 275.436206 128.98707 
L 276.172726 119.687608 
L 276.909247 128.98707 
L 277.645767 91.78922 
L 278.382287 110.388145 
L 279.118808 138.286532 
L 279.855328 128.98707 
L 280.591848 128.98707 
L 281.328369 110.388145 
L 282.064889 128.98707 
L 282.801409 128.98707 
L 284.27445 110.388145 
L 285.010971 110.388145 
L 285.747491 128.98707 
L 286.484011 110.388145 
L 287.220532 128.98707 
L 287.957052 119.687608 
L 288.693572 119.687608 
L 289.430093 128.98707 
L 290.166613 110.388145 
L 290.903133 119.687608 
L 291.639654 119.687608 
L 292.376174 147.585995 
L 293.112694 110.388145 
L 293.849215 110.388145 
L 294.585735 101.088683 
L 295.322255 128.98707 
L 296.058776 128.98707 
L 296.795296 119.687608 
L 298.268337 119.687608 
L 299.004857 128.98707 
L 299.741377 119.687608 
L 300.477898 138.286532 
L 301.214418 128.98707 
L 301.950938 156.885457 
L 302.687459 128.98707 
L 303.423979 110.388145 
L 304.160499 119.687608 
L 304.89702 138.286532 
L 305.63354 138.286532 
L 306.37006 119.687608 
L 307.106581 119.687608 
L 307.843101 138.286532 
L 308.579621 110.388145 
L 309.316142 110.388145 
L 310.052662 119.687608 
L 311.525703 119.687608 
L 312.262223 110.388145 
L 312.998743 110.388145 
L 313.735264 119.687608 
L 314.471784 138.286532 
L 315.208304 119.687608 
L 315.944825 119.687608 
L 316.681345 138.286532 
L 317.417865 147.585995 
L 318.154386 119.687608 
L 318.890906 128.98707 
L 319.627426 119.687608 
L 321.100467 138.286532 
L 321.836987 110.388145 
L 322.573508 138.286532 
L 323.310028 110.388145 
L 324.783069 128.98707 
L 325.519589 119.687608 
L 326.256109 119.687608 
L 326.99263 110.388145 
L 328.465671 128.98707 
L 329.202191 119.687608 
L 329.938711 101.088683 
L 330.675232 128.98707 
L 331.411752 138.286532 
L 332.148272 128.98707 
L 332.884793 128.98707 
L 333.621313 110.388145 
L 334.357833 119.687608 
L 335.094354 119.687608 
L 336.567394 138.286532 
L 338.040435 119.687608 
L 338.776955 119.687608 
L 339.513476 110.388145 
L 340.249996 138.286532 
L 340.986516 91.78922 
L 341.723037 128.98707 
L 342.459557 119.687608 
L 343.196077 119.687608 
L 344.669118 138.286532 
L 345.405638 101.088683 
L 346.142159 119.687608 
L 346.878679 128.98707 
L 347.615199 110.388145 
L 348.35172 119.687608 
L 349.08824 119.687608 
L 349.82476 138.286532 
L 350.561281 119.687608 
L 351.297801 119.687608 
L 352.034321 147.585995 
L 352.770842 128.98707 
L 353.507362 119.687608 
L 354.243882 119.687608 
L 354.980403 138.286532 
L 355.716923 101.088683 
L 356.453443 138.286532 
L 357.189964 119.687608 
L 357.926484 119.687608 
L 358.663004 128.98707 
L 359.399525 128.98707 
L 360.136045 119.687608 
L 360.872565 128.98707 
L 361.609086 119.687608 
L 362.345606 128.98707 
L 363.818647 128.98707 
L 364.555167 119.687608 
L 365.291687 119.687608 
L 366.028208 101.088683 
L 366.764728 128.98707 
L 367.501248 119.687608 
L 368.237769 119.687608 
L 368.974289 101.088683 
L 370.44733 156.885457 
L 371.18385 110.388145 
L 371.920371 110.388145 
L 372.656891 128.98707 
L 373.393411 119.687608 
L 374.129932 128.98707 
L 374.866452 110.388145 
L 375.602972 119.687608 
L 376.339493 101.088683 
L 377.076013 147.585995 
L 377.812533 110.388145 
L 379.285574 128.98707 
L 380.022094 119.687608 
L 380.758615 119.687608 
L 381.495135 138.286532 
L 382.968176 101.088683 
L 383.704696 128.98707 
L 384.441216 128.98707 
L 385.177737 110.388145 
L 386.650777 110.388145 
L 387.387298 138.286532 
L 388.123818 128.98707 
L 388.860338 110.388145 
L 390.333379 110.388145 
L 391.80642 128.98707 
L 392.54294 101.088683 
L 393.27946 128.98707 
L 394.015981 119.687608 
L 394.752501 128.98707 
L 396.962062 101.088683 
L 397.698582 119.687608 
L 398.435103 119.687608 
L 399.171623 110.388145 
L 399.908143 138.286532 
L 400.644664 110.388145 
L 402.117704 128.98707 
L 402.854225 128.98707 
L 404.327265 110.388145 
L 405.063786 119.687608 
L 405.800306 110.388145 
L 406.536826 128.98707 
L 408.009867 128.98707 
L 408.746387 119.687608 
L 409.482908 128.98707 
L 410.219428 147.585995 
L 410.955948 110.388145 
L 411.692469 119.687608 
L 412.428989 138.286532 
L 413.165509 110.388145 
L 413.90203 110.388145 
L 414.63855 119.687608 
L 415.375071 156.885457 
L 416.111591 101.088683 
L 416.848111 128.98707 
L 417.584632 138.286532 
L 418.321152 119.687608 
L 419.057672 119.687608 
L 419.794193 128.98707 
L 420.530713 110.388145 
L 421.267233 101.088683 
L 422.003754 128.98707 
L 422.740274 119.687608 
L 423.476794 128.98707 
L 424.213315 110.388145 
L 424.949835 147.585995 
L 426.422876 110.388145 
L 427.895916 128.98707 
L 428.632437 128.98707 
L 429.368957 110.388145 
L 430.105477 119.687608 
L 430.841998 147.585995 
L 431.578518 119.687608 
L 433.051559 119.687608 
L 433.788079 128.98707 
L 434.524599 101.088683 
L 435.26112 128.98707 
L 435.99764 138.286532 
L 436.73416 128.98707 
L 437.470681 138.286532 
L 438.207201 119.687608 
L 438.943721 110.388145 
L 439.680242 110.388145 
L 440.416762 119.687608 
L 441.153282 138.286532 
L 441.889803 119.687608 
L 442.626323 128.98707 
L 444.099364 110.388145 
L 444.835884 128.98707 
L 445.572404 128.98707 
L 446.308925 119.687608 
L 449.255006 119.687608 
L 449.991526 110.388145 
L 450.728047 119.687608 
L 451.464567 119.687608 
L 452.201087 101.088683 
L 452.937608 110.388145 
L 453.674128 138.286532 
L 454.410648 119.687608 
L 455.147169 128.98707 
L 455.883689 128.98707 
L 456.620209 110.388145 
L 457.35673 128.98707 
L 458.09325 119.687608 
L 459.566291 119.687608 
L 460.302811 110.388145 
L 461.039332 119.687608 
L 462.512372 119.687608 
L 463.248893 110.388145 
L 463.985413 128.98707 
L 464.721933 128.98707 
L 465.458454 119.687608 
L 466.194974 119.687608 
L 466.931494 110.388145 
L 467.668015 128.98707 
L 468.404535 110.388145 
L 469.141055 128.98707 
L 469.877576 128.98707 
L 470.614096 110.388145 
L 471.350616 110.388145 
L 472.087137 119.687608 
L 474.296698 119.687608 
L 475.033218 110.388145 
L 475.769738 110.388145 
L 476.506259 128.98707 
L 477.242779 128.98707 
L 478.71582 110.388145 
L 479.45234 128.98707 
L 480.18886 119.687608 
L 480.925381 82.489758 
L 481.661901 119.687608 
L 482.398421 128.98707 
L 483.134942 128.98707 
L 483.871462 119.687608 
L 484.607982 119.687608 
L 486.081023 156.885457 
L 486.817543 110.388145 
L 487.554064 128.98707 
L 488.290584 119.687608 
L 492.709706 119.687608 
L 493.446226 91.78922 
L 494.182747 101.088683 
L 494.919267 128.98707 
L 495.655787 128.98707 
L 496.392308 138.286532 
L 497.128828 110.388145 
L 497.865348 138.286532 
L 498.601869 101.088683 
L 499.338389 119.687608 
L 500.074909 128.98707 
L 500.81143 110.388145 
L 501.54795 138.286532 
L 502.28447 110.388145 
L 503.757511 128.98707 
L 503.757511 128.98707 
" style="fill:none;stroke:#d62728;stroke-linecap:square;stroke-width:1.5;"/>
   </g>
   <g id="patch_3">
    <path d="M 83.472344 352.174167 
L 83.472344 35.0625 
" style="fill:none;stroke:#000000;stroke-linecap:square;stroke-linejoin:miter;stroke-width:0.8;"/>
   </g>
   <g id="patch_4">
    <path d="M 529.912969 352.174167 
L 529.912969 35.0625 
" style="fill:none;stroke:#000000;stroke-linecap:square;stroke-linejoin:miter;stroke-width:0.8;"/>
   </g>
   <g id="patch_5">
    <path d="M 83.472344 352.174167 
L 529.912969 352.174167 
" style="fill:none;stroke:#000000;stroke-linecap:square;stroke-linejoin:miter;stroke-width:0.8;"/>
   </g>
   <g id="patch_6">
    <path d="M 83.472344 35.0625 
L 529.912969 35.0625 
" style="fill:none;stroke:#000000;stroke-linecap:square;stroke-linejoin:miter;stroke-width:0.8;"/>
   </g>
   <g id="legend_1">
    <g id="patch_7">
     <path d="M 554.235 96.775 
L 625.430312 96.775 
Q 627.430312 96.775 627.430312 94.775 
L 627.430312 37.0625 
Q 627.430312 35.0625 625.430312 35.0625 
L 554.235 35.0625 
Q 552.235 35.0625 552.235 37.0625 
L 552.235 94.775 
Q 552.235 96.775 554.235 96.775 
z
" style="fill:#ffffff;opacity:0.8;stroke:#cccccc;stroke-linejoin:miter;"/>
    </g>
    <g id="line2d_18">
     <path d="M 556.235 43.160937 
L 576.235 43.160937 
" style="fill:none;stroke:#1f77b4;stroke-linecap:square;stroke-width:1.5;"/>
    </g>
    <g id="line2d_19"/>
    <g id="text_15">
     <!-- cubic-pi -->
     <defs>
      <path d="M 48.78125 52.59375 
L 48.78125 44.1875 
Q 44.96875 46.296875 41.140625 47.34375 
Q 37.3125 48.390625 33.40625 48.390625 
Q 24.65625 48.390625 19.8125 42.84375 
Q 14.984375 37.3125 14.984375 27.296875 
Q 14.984375 17.28125 19.8125 11.734375 
Q 24.65625 6.203125 33.40625 6.203125 
Q 37.3125 6.203125 41.140625 7.25 
Q 44.96875 8.296875 48.78125 10.40625 
L 48.78125 2.09375 
Q 45.015625 0.34375 40.984375 -0.53125 
Q 36.96875 -1.421875 32.421875 -1.421875 
Q 20.0625 -1.421875 12.78125 6.34375 
Q 5.515625 14.109375 5.515625 27.296875 
Q 5.515625 40.671875 12.859375 48.328125 
Q 20.21875 56 33.015625 56 
Q 37.15625 56 41.109375 55.140625 
Q 45.0625 54.296875 48.78125 52.59375 
z
" id="DejaVuSans-99"/>
      <path d="M 8.5 21.578125 
L 8.5 54.6875 
L 17.484375 54.6875 
L 17.484375 21.921875 
Q 17.484375 14.15625 20.5 10.265625 
Q 23.53125 6.390625 29.59375 6.390625 
Q 36.859375 6.390625 41.078125 11.03125 
Q 45.3125 15.671875 45.3125 23.6875 
L 45.3125 54.6875 
L 54.296875 54.6875 
L 54.296875 0 
L 45.3125 0 
L 45.3125 8.40625 
Q 42.046875 3.421875 37.71875 1 
Q 33.40625 -1.421875 27.6875 -1.421875 
Q 18.265625 -1.421875 13.375 4.4375 
Q 8.5 10.296875 8.5 21.578125 
z
M 31.109375 56 
z
" id="DejaVuSans-117"/>
      <path d="M 48.6875 27.296875 
Q 48.6875 37.203125 44.609375 42.84375 
Q 40.53125 48.484375 33.40625 48.484375 
Q 26.265625 48.484375 22.1875 42.84375 
Q 18.109375 37.203125 18.109375 27.296875 
Q 18.109375 17.390625 22.1875 11.75 
Q 26.265625 6.109375 33.40625 6.109375 
Q 40.53125 6.109375 44.609375 11.75 
Q 48.6875 17.390625 48.6875 27.296875 
z
M 18.109375 46.390625 
Q 20.953125 51.265625 25.265625 53.625 
Q 29.59375 56 35.59375 56 
Q 45.5625 56 51.78125 48.09375 
Q 58.015625 40.1875 58.015625 27.296875 
Q 58.015625 14.40625 51.78125 6.484375 
Q 45.5625 -1.421875 35.59375 -1.421875 
Q 29.59375 -1.421875 25.265625 0.953125 
Q 20.953125 3.328125 18.109375 8.203125 
L 18.109375 0 
L 9.078125 0 
L 9.078125 75.984375 
L 18.109375 75.984375 
z
" id="DejaVuSans-98"/>
      <path d="M 9.421875 54.6875 
L 18.40625 54.6875 
L 18.40625 0 
L 9.421875 0 
z
M 9.421875 75.984375 
L 18.40625 75.984375 
L 18.40625 64.59375 
L 9.421875 64.59375 
z
" id="DejaVuSans-105"/>
      <path d="M 4.890625 31.390625 
L 31.203125 31.390625 
L 31.203125 23.390625 
L 4.890625 23.390625 
z
" id="DejaVuSans-45"/>
      <path d="M 18.109375 8.203125 
L 18.109375 -20.796875 
L 9.078125 -20.796875 
L 9.078125 54.6875 
L 18.109375 54.6875 
L 18.109375 46.390625 
Q 20.953125 51.265625 25.265625 53.625 
Q 29.59375 56 35.59375 56 
Q 45.5625 56 51.78125 48.09375 
Q 58.015625 40.1875 58.015625 27.296875 
Q 58.015625 14.40625 51.78125 6.484375 
Q 45.5625 -1.421875 35.59375 -1.421875 
Q 29.59375 -1.421875 25.265625 0.953125 
Q 20.953125 3.328125 18.109375 8.203125 
z
M 48.6875 27.296875 
Q 48.6875 37.203125 44.609375 42.84375 
Q 40.53125 48.484375 33.40625 48.484375 
Q 26.265625 48.484375 22.1875 42.84375 
Q 18.109375 37.203125 18.109375 27.296875 
Q 18.109375 17.390625 22.1875 11.75 
Q 26.265625 6.109375 33.40625 6.109375 
Q 40.53125 6.109375 44.609375 11.75 
Q 48.6875 17.390625 48.6875 27.296875 
z
" id="DejaVuSans-112"/>
     </defs>
     <g transform="translate(584.235 46.660937)scale(0.1 -0.1)">
      <use xlink:href="#DejaVuSans-99"/>
      <use x="54.980469" xlink:href="#DejaVuSans-117"/>
      <use x="118.359375" xlink:href="#DejaVuSans-98"/>
      <use x="181.835938" xlink:href="#DejaVuSans-105"/>
      <use x="209.619141" xlink:href="#DejaVuSans-99"/>
      <use x="264.599609" xlink:href="#DejaVuSans-45"/>
      <use x="300.683594" xlink:href="#DejaVuSans-112"/>
      <use x="364.160156" xlink:href="#DejaVuSans-105"/>
     </g>
    </g>
    <g id="line2d_20">
     <path d="M 556.235 57.839063 
L 576.235 57.839063 
" style="fill:none;stroke:#ff7f0e;stroke-linecap:square;stroke-width:1.5;"/>
    </g>
    <g id="line2d_21"/>
    <g id="text_16">
     <!-- cubic-pi -->
     <g transform="translate(584.235 61.339063)scale(0.1 -0.1)">
      <use xlink:href="#DejaVuSans-99"/>
      <use x="54.980469" xlink:href="#DejaVuSans-117"/>
      <use x="118.359375" xlink:href="#DejaVuSans-98"/>
      <use x="181.835938" xlink:href="#DejaVuSans-105"/>
      <use x="209.619141" xlink:href="#DejaVuSans-99"/>
      <use x="264.599609" xlink:href="#DejaVuSans-45"/>
      <use x="300.683594" xlink:href="#DejaVuSans-112"/>
      <use x="364.160156" xlink:href="#DejaVuSans-105"/>
     </g>
    </g>
    <g id="line2d_22">
     <path d="M 556.235 72.517187 
L 576.235 72.517187 
" style="fill:none;stroke:#2ca02c;stroke-linecap:square;stroke-width:1.5;"/>
    </g>
    <g id="line2d_23"/>
    <g id="text_17">
     <!-- cubic-pi -->
     <g transform="translate(584.235 76.017187)scale(0.1 -0.1)">
      <use xlink:href="#DejaVuSans-99"/>
      <use x="54.980469" xlink:href="#DejaVuSans-117"/>
      <use x="118.359375" xlink:href="#DejaVuSans-98"/>
      <use x="181.835938" xlink:href="#DejaVuSans-105"/>
      <use x="209.619141" xlink:href="#DejaVuSans-99"/>
      <use x="264.599609" xlink:href="#DejaVuSans-45"/>
      <use x="300.683594" xlink:href="#DejaVuSans-112"/>
      <use x="364.160156" xlink:href="#DejaVuSans-105"/>
     </g>
    </g>
    <g id="line2d_24">
     <path d="M 556.235 87.195312 
L 576.235 87.195312 
" style="fill:none;stroke:#d62728;stroke-linecap:square;stroke-width:1.5;"/>
    </g>
    <g id="line2d_25"/>
    <g id="text_18">
     <!-- cubic-pi -->
     <g transform="translate(584.235 90.695312)scale(0.1 -0.1)">
      <use xlink:href="#DejaVuSans-99"/>
      <use x="54.980469" xlink:href="#DejaVuSans-117"/>
      <use x="118.359375" xlink:href="#DejaVuSans-98"/>
      <use x="181.835938" xlink:href="#DejaVuSans-105"/>
      <use x="209.619141" xlink:href="#DejaVuSans-99"/>
      <use x="264.599609" xlink:href="#DejaVuSans-45"/>
      <use x="300.683594" xlink:href="#DejaVuSans-112"/>
      <use x="364.160156" xlink:href="#DejaVuSans-105"/>
     </g>
    </g>
   </g>
  </g>
  <g id="text_19">
   <!-- result rtt -->
   <defs>
    <path d="M 56.203125 29.59375 
L 56.203125 25.203125 
L 14.890625 25.203125 
Q 15.484375 15.921875 20.484375 11.0625 
Q 25.484375 6.203125 34.421875 6.203125 
Q 39.59375 6.203125 44.453125 7.46875 
Q 49.3125 8.734375 54.109375 11.28125 
L 54.109375 2.78125 
Q 49.265625 0.734375 44.1875 -0.34375 
Q 39.109375 -1.421875 33.890625 -1.421875 
Q 20.796875 -1.421875 13.15625 6.1875 
Q 5.515625 13.8125 5.515625 26.8125 
Q 5.515625 40.234375 12.765625 48.109375 
Q 20.015625 56 32.328125 56 
Q 43.359375 56 49.78125 48.890625 
Q 56.203125 41.796875 56.203125 29.59375 
z
M 47.21875 32.234375 
Q 47.125 39.59375 43.09375 43.984375 
Q 39.0625 48.390625 32.421875 48.390625 
Q 24.90625 48.390625 20.390625 44.140625 
Q 15.875 39.890625 15.1875 32.171875 
z
" id="DejaVuSans-101"/>
    <path d="M 9.421875 75.984375 
L 18.40625 75.984375 
L 18.40625 0 
L 9.421875 0 
z
" id="DejaVuSans-108"/>
    <path id="DejaVuSans-32"/>
   </defs>
   <g transform="translate(315.818438 17.038125)scale(0.12 -0.12)">
    <use xlink:href="#DejaVuSans-114"/>
    <use x="41.082031" xlink:href="#DejaVuSans-101"/>
    <use x="102.605469" xlink:href="#DejaVuSans-115"/>
    <use x="154.705078" xlink:href="#DejaVuSans-117"/>
    <use x="218.083984" xlink:href="#DejaVuSans-108"/>
    <use x="245.867188" xlink:href="#DejaVuSans-116"/>
    <use x="285.076172" xlink:href="#DejaVuSans-32"/>
    <use x="316.863281" xlink:href="#DejaVuSans-114"/>
    <use x="357.976562" xlink:href="#DejaVuSans-116"/>
    <use x="397.185547" xlink:href="#DejaVuSans-116"/>
   </g>
  </g>
 </g>
 <defs>
  <clipPath id="p8d6d27606e">
   <rect height="317.111667" width="446.440625" x="83.472344" y="35.0625"/>
  </clipPath>
 </defs>
</svg>
