<?xml version="1.0" encoding="utf-8" standalone="no"?>
<!DOCTYPE svg PUBLIC "-//W3C//DTD SVG 1.1//EN"
  "http://www.w3.org/Graphics/SVG/1.1/DTD/svg11.dtd">
<!-- Created with matplotlib (https://matplotlib.org/) -->
<svg height="396pt" version="1.1" viewBox="0 0 684 396" width="684pt" xmlns="http://www.w3.org/2000/svg" xmlns:xlink="http://www.w3.org/1999/xlink">
 <defs>
  <style type="text/css">
*{stroke-linecap:butt;stroke-linejoin:round;}
  </style>
 </defs>
 <g id="figure_1">
  <g id="patch_1">
   <path d="M 0 396 
L 684 396 
L 684 0 
L 0 0 
z
" style="fill:#ffffff;"/>
  </g>
  <g id="axes_1">
   <g id="patch_2">
    <path d="M 66.158594 352.174167 
L 516.019219 352.174167 
L 516.019219 35.0625 
L 66.158594 35.0625 
z
" style="fill:#ffffff;"/>
   </g>
   <g id="matplotlib.axis_1">
    <g id="xtick_1">
     <g id="line2d_1">
      <defs>
       <path d="M 0 0 
L 0 3.5 
" id="m75996c5aad" style="stroke:#000000;stroke-width:0.8;"/>
      </defs>
      <g>
       <use style="stroke:#000000;stroke-width:0.8;" x="90.934549" xlink:href="#m75996c5aad" y="352.174167"/>
      </g>
     </g>
     <g id="text_1">
      <!-- 0 -->
      <defs>
       <path d="M 31.78125 66.40625 
Q 24.171875 66.40625 20.328125 58.90625 
Q 16.5 51.421875 16.5 36.375 
Q 16.5 21.390625 20.328125 13.890625 
Q 24.171875 6.390625 31.78125 6.390625 
Q 39.453125 6.390625 43.28125 13.890625 
Q 47.125 21.390625 47.125 36.375 
Q 47.125 51.421875 43.28125 58.90625 
Q 39.453125 66.40625 31.78125 66.40625 
z
M 31.78125 74.21875 
Q 44.046875 74.21875 50.515625 64.515625 
Q 56.984375 54.828125 56.984375 36.375 
Q 56.984375 17.96875 50.515625 8.265625 
Q 44.046875 -1.421875 31.78125 -1.421875 
Q 19.53125 -1.421875 13.0625 8.265625 
Q 6.59375 17.96875 6.59375 36.375 
Q 6.59375 54.828125 13.0625 64.515625 
Q 19.53125 74.21875 31.78125 74.21875 
z
" id="DejaVuSans-48"/>
      </defs>
      <g transform="translate(87.753299 366.772604)scale(0.1 -0.1)">
       <use xlink:href="#DejaVuSans-48"/>
      </g>
     </g>
    </g>
    <g id="xtick_2">
     <g id="line2d_2">
      <g>
       <use style="stroke:#000000;stroke-width:0.8;" x="162.374775" xlink:href="#m75996c5aad" y="352.174167"/>
      </g>
     </g>
     <g id="text_2">
      <!-- 50 -->
      <defs>
       <path d="M 10.796875 72.90625 
L 49.515625 72.90625 
L 49.515625 64.59375 
L 19.828125 64.59375 
L 19.828125 46.734375 
Q 21.96875 47.46875 24.109375 47.828125 
Q 26.265625 48.1875 28.421875 48.1875 
Q 40.625 48.1875 47.75 41.5 
Q 54.890625 34.8125 54.890625 23.390625 
Q 54.890625 11.625 47.5625 5.09375 
Q 40.234375 -1.421875 26.90625 -1.421875 
Q 22.3125 -1.421875 17.546875 -0.640625 
Q 12.796875 0.140625 7.71875 1.703125 
L 7.71875 11.625 
Q 12.109375 9.234375 16.796875 8.0625 
Q 21.484375 6.890625 26.703125 6.890625 
Q 35.15625 6.890625 40.078125 11.328125 
Q 45.015625 15.765625 45.015625 23.390625 
Q 45.015625 31 40.078125 35.4375 
Q 35.15625 39.890625 26.703125 39.890625 
Q 22.75 39.890625 18.8125 39.015625 
Q 14.890625 38.140625 10.796875 36.28125 
z
" id="DejaVuSans-53"/>
      </defs>
      <g transform="translate(156.012275 366.772604)scale(0.1 -0.1)">
       <use xlink:href="#DejaVuSans-53"/>
       <use x="63.623047" xlink:href="#DejaVuSans-48"/>
      </g>
     </g>
    </g>
    <g id="xtick_3">
     <g id="line2d_3">
      <g>
       <use style="stroke:#000000;stroke-width:0.8;" x="233.815001" xlink:href="#m75996c5aad" y="352.174167"/>
      </g>
     </g>
     <g id="text_3">
      <!-- 100 -->
      <defs>
       <path d="M 12.40625 8.296875 
L 28.515625 8.296875 
L 28.515625 63.921875 
L 10.984375 60.40625 
L 10.984375 69.390625 
L 28.421875 72.90625 
L 38.28125 72.90625 
L 38.28125 8.296875 
L 54.390625 8.296875 
L 54.390625 0 
L 12.40625 0 
z
" id="DejaVuSans-49"/>
      </defs>
      <g transform="translate(224.271251 366.772604)scale(0.1 -0.1)">
       <use xlink:href="#DejaVuSans-49"/>
       <use x="63.623047" xlink:href="#DejaVuSans-48"/>
       <use x="127.246094" xlink:href="#DejaVuSans-48"/>
      </g>
     </g>
    </g>
    <g id="xtick_4">
     <g id="line2d_4">
      <g>
       <use style="stroke:#000000;stroke-width:0.8;" x="305.255227" xlink:href="#m75996c5aad" y="352.174167"/>
      </g>
     </g>
     <g id="text_4">
      <!-- 150 -->
      <g transform="translate(295.711477 366.772604)scale(0.1 -0.1)">
       <use xlink:href="#DejaVuSans-49"/>
       <use x="63.623047" xlink:href="#DejaVuSans-53"/>
       <use x="127.246094" xlink:href="#DejaVuSans-48"/>
      </g>
     </g>
    </g>
    <g id="xtick_5">
     <g id="line2d_5">
      <g>
       <use style="stroke:#000000;stroke-width:0.8;" x="376.695453" xlink:href="#m75996c5aad" y="352.174167"/>
      </g>
     </g>
     <g id="text_5">
      <!-- 200 -->
      <defs>
       <path d="M 19.1875 8.296875 
L 53.609375 8.296875 
L 53.609375 0 
L 7.328125 0 
L 7.328125 8.296875 
Q 12.9375 14.109375 22.625 23.890625 
Q 32.328125 33.6875 34.8125 36.53125 
Q 39.546875 41.84375 41.421875 45.53125 
Q 43.3125 49.21875 43.3125 52.78125 
Q 43.3125 58.59375 39.234375 62.25 
Q 35.15625 65.921875 28.609375 65.921875 
Q 23.96875 65.921875 18.8125 64.3125 
Q 13.671875 62.703125 7.8125 59.421875 
L 7.8125 69.390625 
Q 13.765625 71.78125 18.9375 73 
Q 24.125 74.21875 28.421875 74.21875 
Q 39.75 74.21875 46.484375 68.546875 
Q 53.21875 62.890625 53.21875 53.421875 
Q 53.21875 48.921875 51.53125 44.890625 
Q 49.859375 40.875 45.40625 35.40625 
Q 44.1875 33.984375 37.640625 27.21875 
Q 31.109375 20.453125 19.1875 8.296875 
z
" id="DejaVuSans-50"/>
      </defs>
      <g transform="translate(367.151703 366.772604)scale(0.1 -0.1)">
       <use xlink:href="#DejaVuSans-50"/>
       <use x="63.623047" xlink:href="#DejaVuSans-48"/>
       <use x="127.246094" xlink:href="#DejaVuSans-48"/>
      </g>
     </g>
    </g>
    <g id="xtick_6">
     <g id="line2d_6">
      <g>
       <use style="stroke:#000000;stroke-width:0.8;" x="448.135679" xlink:href="#m75996c5aad" y="352.174167"/>
      </g>
     </g>
     <g id="text_6">
      <!-- 250 -->
      <g transform="translate(438.591929 366.772604)scale(0.1 -0.1)">
       <use xlink:href="#DejaVuSans-50"/>
       <use x="63.623047" xlink:href="#DejaVuSans-53"/>
       <use x="127.246094" xlink:href="#DejaVuSans-48"/>
      </g>
     </g>
    </g>
   </g>
   <g id="matplotlib.axis_2">
    <g id="ytick_1">
     <g id="line2d_7">
      <defs>
       <path d="M 0 0 
L -3.5 0 
" id="mdb36ff6e37" style="stroke:#000000;stroke-width:0.8;"/>
      </defs>
      <g>
       <use style="stroke:#000000;stroke-width:0.8;" x="66.158594" xlink:href="#mdb36ff6e37" y="352.174167"/>
      </g>
     </g>
     <g id="text_7">
      <!-- 0 -->
      <g transform="translate(52.796094 355.973385)scale(0.1 -0.1)">
       <use xlink:href="#DejaVuSans-48"/>
      </g>
     </g>
    </g>
    <g id="ytick_2">
     <g id="line2d_8">
      <g>
       <use style="stroke:#000000;stroke-width:0.8;" x="66.158594" xlink:href="#mdb36ff6e37" y="288.375467"/>
      </g>
     </g>
     <g id="text_8">
      <!-- 20 -->
      <g transform="translate(46.433594 292.174686)scale(0.1 -0.1)">
       <use xlink:href="#DejaVuSans-50"/>
       <use x="63.623047" xlink:href="#DejaVuSans-48"/>
      </g>
     </g>
    </g>
    <g id="ytick_3">
     <g id="line2d_9">
      <g>
       <use style="stroke:#000000;stroke-width:0.8;" x="66.158594" xlink:href="#mdb36ff6e37" y="224.576767"/>
      </g>
     </g>
     <g id="text_9">
      <!-- 40 -->
      <defs>
       <path d="M 37.796875 64.3125 
L 12.890625 25.390625 
L 37.796875 25.390625 
z
M 35.203125 72.90625 
L 47.609375 72.90625 
L 47.609375 25.390625 
L 58.015625 25.390625 
L 58.015625 17.1875 
L 47.609375 17.1875 
L 47.609375 0 
L 37.796875 0 
L 37.796875 17.1875 
L 4.890625 17.1875 
L 4.890625 26.703125 
z
" id="DejaVuSans-52"/>
      </defs>
      <g transform="translate(46.433594 228.375986)scale(0.1 -0.1)">
       <use xlink:href="#DejaVuSans-52"/>
       <use x="63.623047" xlink:href="#DejaVuSans-48"/>
      </g>
     </g>
    </g>
    <g id="ytick_4">
     <g id="line2d_10">
      <g>
       <use style="stroke:#000000;stroke-width:0.8;" x="66.158594" xlink:href="#mdb36ff6e37" y="160.778067"/>
      </g>
     </g>
     <g id="text_10">
      <!-- 60 -->
      <defs>
       <path d="M 33.015625 40.375 
Q 26.375 40.375 22.484375 35.828125 
Q 18.609375 31.296875 18.609375 23.390625 
Q 18.609375 15.53125 22.484375 10.953125 
Q 26.375 6.390625 33.015625 6.390625 
Q 39.65625 6.390625 43.53125 10.953125 
Q 47.40625 15.53125 47.40625 23.390625 
Q 47.40625 31.296875 43.53125 35.828125 
Q 39.65625 40.375 33.015625 40.375 
z
M 52.59375 71.296875 
L 52.59375 62.3125 
Q 48.875 64.0625 45.09375 64.984375 
Q 41.3125 65.921875 37.59375 65.921875 
Q 27.828125 65.921875 22.671875 59.328125 
Q 17.53125 52.734375 16.796875 39.40625 
Q 19.671875 43.65625 24.015625 45.921875 
Q 28.375 48.1875 33.59375 48.1875 
Q 44.578125 48.1875 50.953125 41.515625 
Q 57.328125 34.859375 57.328125 23.390625 
Q 57.328125 12.15625 50.6875 5.359375 
Q 44.046875 -1.421875 33.015625 -1.421875 
Q 20.359375 -1.421875 13.671875 8.265625 
Q 6.984375 17.96875 6.984375 36.375 
Q 6.984375 53.65625 15.1875 63.9375 
Q 23.390625 74.21875 37.203125 74.21875 
Q 40.921875 74.21875 44.703125 73.484375 
Q 48.484375 72.75 52.59375 71.296875 
z
" id="DejaVuSans-54"/>
      </defs>
      <g transform="translate(46.433594 164.577286)scale(0.1 -0.1)">
       <use xlink:href="#DejaVuSans-54"/>
       <use x="63.623047" xlink:href="#DejaVuSans-48"/>
      </g>
     </g>
    </g>
    <g id="ytick_5">
     <g id="line2d_11">
      <g>
       <use style="stroke:#000000;stroke-width:0.8;" x="66.158594" xlink:href="#mdb36ff6e37" y="96.979368"/>
      </g>
     </g>
     <g id="text_11">
      <!-- 80 -->
      <defs>
       <path d="M 31.78125 34.625 
Q 24.75 34.625 20.71875 30.859375 
Q 16.703125 27.09375 16.703125 20.515625 
Q 16.703125 13.921875 20.71875 10.15625 
Q 24.75 6.390625 31.78125 6.390625 
Q 38.8125 6.390625 42.859375 10.171875 
Q 46.921875 13.96875 46.921875 20.515625 
Q 46.921875 27.09375 42.890625 30.859375 
Q 38.875 34.625 31.78125 34.625 
z
M 21.921875 38.8125 
Q 15.578125 40.375 12.03125 44.71875 
Q 8.5 49.078125 8.5 55.328125 
Q 8.5 64.0625 14.71875 69.140625 
Q 20.953125 74.21875 31.78125 74.21875 
Q 42.671875 74.21875 48.875 69.140625 
Q 55.078125 64.0625 55.078125 55.328125 
Q 55.078125 49.078125 51.53125 44.71875 
Q 48 40.375 41.703125 38.8125 
Q 48.828125 37.15625 52.796875 32.3125 
Q 56.78125 27.484375 56.78125 20.515625 
Q 56.78125 9.90625 50.3125 4.234375 
Q 43.84375 -1.421875 31.78125 -1.421875 
Q 19.734375 -1.421875 13.25 4.234375 
Q 6.78125 9.90625 6.78125 20.515625 
Q 6.78125 27.484375 10.78125 32.3125 
Q 14.796875 37.15625 21.921875 38.8125 
z
M 18.3125 54.390625 
Q 18.3125 48.734375 21.84375 45.5625 
Q 25.390625 42.390625 31.78125 42.390625 
Q 38.140625 42.390625 41.71875 45.5625 
Q 45.3125 48.734375 45.3125 54.390625 
Q 45.3125 60.0625 41.71875 63.234375 
Q 38.140625 66.40625 31.78125 66.40625 
Q 25.390625 66.40625 21.84375 63.234375 
Q 18.3125 60.0625 18.3125 54.390625 
z
" id="DejaVuSans-56"/>
      </defs>
      <g transform="translate(46.433594 100.778586)scale(0.1 -0.1)">
       <use xlink:href="#DejaVuSans-56"/>
       <use x="63.623047" xlink:href="#DejaVuSans-48"/>
      </g>
     </g>
    </g>
    <g id="text_12">
     <!-- droprate -->
     <defs>
      <path d="M 45.40625 46.390625 
L 45.40625 75.984375 
L 54.390625 75.984375 
L 54.390625 0 
L 45.40625 0 
L 45.40625 8.203125 
Q 42.578125 3.328125 38.25 0.953125 
Q 33.9375 -1.421875 27.875 -1.421875 
Q 17.96875 -1.421875 11.734375 6.484375 
Q 5.515625 14.40625 5.515625 27.296875 
Q 5.515625 40.1875 11.734375 48.09375 
Q 17.96875 56 27.875 56 
Q 33.9375 56 38.25 53.625 
Q 42.578125 51.265625 45.40625 46.390625 
z
M 14.796875 27.296875 
Q 14.796875 17.390625 18.875 11.75 
Q 22.953125 6.109375 30.078125 6.109375 
Q 37.203125 6.109375 41.296875 11.75 
Q 45.40625 17.390625 45.40625 27.296875 
Q 45.40625 37.203125 41.296875 42.84375 
Q 37.203125 48.484375 30.078125 48.484375 
Q 22.953125 48.484375 18.875 42.84375 
Q 14.796875 37.203125 14.796875 27.296875 
z
" id="DejaVuSans-100"/>
      <path d="M 41.109375 46.296875 
Q 39.59375 47.171875 37.8125 47.578125 
Q 36.03125 48 33.890625 48 
Q 26.265625 48 22.1875 43.046875 
Q 18.109375 38.09375 18.109375 28.8125 
L 18.109375 0 
L 9.078125 0 
L 9.078125 54.6875 
L 18.109375 54.6875 
L 18.109375 46.1875 
Q 20.953125 51.171875 25.484375 53.578125 
Q 30.03125 56 36.53125 56 
Q 37.453125 56 38.578125 55.875 
Q 39.703125 55.765625 41.0625 55.515625 
z
" id="DejaVuSans-114"/>
      <path d="M 30.609375 48.390625 
Q 23.390625 48.390625 19.1875 42.75 
Q 14.984375 37.109375 14.984375 27.296875 
Q 14.984375 17.484375 19.15625 11.84375 
Q 23.34375 6.203125 30.609375 6.203125 
Q 37.796875 6.203125 41.984375 11.859375 
Q 46.1875 17.53125 46.1875 27.296875 
Q 46.1875 37.015625 41.984375 42.703125 
Q 37.796875 48.390625 30.609375 48.390625 
z
M 30.609375 56 
Q 42.328125 56 49.015625 48.375 
Q 55.71875 40.765625 55.71875 27.296875 
Q 55.71875 13.875 49.015625 6.21875 
Q 42.328125 -1.421875 30.609375 -1.421875 
Q 18.84375 -1.421875 12.171875 6.21875 
Q 5.515625 13.875 5.515625 27.296875 
Q 5.515625 40.765625 12.171875 48.375 
Q 18.84375 56 30.609375 56 
z
" id="DejaVuSans-111"/>
      <path d="M 18.109375 8.203125 
L 18.109375 -20.796875 
L 9.078125 -20.796875 
L 9.078125 54.6875 
L 18.109375 54.6875 
L 18.109375 46.390625 
Q 20.953125 51.265625 25.265625 53.625 
Q 29.59375 56 35.59375 56 
Q 45.5625 56 51.78125 48.09375 
Q 58.015625 40.1875 58.015625 27.296875 
Q 58.015625 14.40625 51.78125 6.484375 
Q 45.5625 -1.421875 35.59375 -1.421875 
Q 29.59375 -1.421875 25.265625 0.953125 
Q 20.953125 3.328125 18.109375 8.203125 
z
M 48.6875 27.296875 
Q 48.6875 37.203125 44.609375 42.84375 
Q 40.53125 48.484375 33.40625 48.484375 
Q 26.265625 48.484375 22.1875 42.84375 
Q 18.109375 37.203125 18.109375 27.296875 
Q 18.109375 17.390625 22.1875 11.75 
Q 26.265625 6.109375 33.40625 6.109375 
Q 40.53125 6.109375 44.609375 11.75 
Q 48.6875 17.390625 48.6875 27.296875 
z
" id="DejaVuSans-112"/>
      <path d="M 34.28125 27.484375 
Q 23.390625 27.484375 19.1875 25 
Q 14.984375 22.515625 14.984375 16.5 
Q 14.984375 11.71875 18.140625 8.90625 
Q 21.296875 6.109375 26.703125 6.109375 
Q 34.1875 6.109375 38.703125 11.40625 
Q 43.21875 16.703125 43.21875 25.484375 
L 43.21875 27.484375 
z
M 52.203125 31.203125 
L 52.203125 0 
L 43.21875 0 
L 43.21875 8.296875 
Q 40.140625 3.328125 35.546875 0.953125 
Q 30.953125 -1.421875 24.3125 -1.421875 
Q 15.921875 -1.421875 10.953125 3.296875 
Q 6 8.015625 6 15.921875 
Q 6 25.140625 12.171875 29.828125 
Q 18.359375 34.515625 30.609375 34.515625 
L 43.21875 34.515625 
L 43.21875 35.40625 
Q 43.21875 41.609375 39.140625 45 
Q 35.0625 48.390625 27.6875 48.390625 
Q 23 48.390625 18.546875 47.265625 
Q 14.109375 46.140625 10.015625 43.890625 
L 10.015625 52.203125 
Q 14.9375 54.109375 19.578125 55.046875 
Q 24.21875 56 28.609375 56 
Q 40.484375 56 46.34375 49.84375 
Q 52.203125 43.703125 52.203125 31.203125 
z
" id="DejaVuSans-97"/>
      <path d="M 18.3125 70.21875 
L 18.3125 54.6875 
L 36.8125 54.6875 
L 36.8125 47.703125 
L 18.3125 47.703125 
L 18.3125 18.015625 
Q 18.3125 11.328125 20.140625 9.421875 
Q 21.96875 7.515625 27.59375 7.515625 
L 36.8125 7.515625 
L 36.8125 0 
L 27.59375 0 
Q 17.1875 0 13.234375 3.875 
Q 9.28125 7.765625 9.28125 18.015625 
L 9.28125 47.703125 
L 2.6875 47.703125 
L 2.6875 54.6875 
L 9.28125 54.6875 
L 9.28125 70.21875 
z
" id="DejaVuSans-116"/>
      <path d="M 56.203125 29.59375 
L 56.203125 25.203125 
L 14.890625 25.203125 
Q 15.484375 15.921875 20.484375 11.0625 
Q 25.484375 6.203125 34.421875 6.203125 
Q 39.59375 6.203125 44.453125 7.46875 
Q 49.3125 8.734375 54.109375 11.28125 
L 54.109375 2.78125 
Q 49.265625 0.734375 44.1875 -0.34375 
Q 39.109375 -1.421875 33.890625 -1.421875 
Q 20.796875 -1.421875 13.15625 6.1875 
Q 5.515625 13.8125 5.515625 26.8125 
Q 5.515625 40.234375 12.765625 48.109375 
Q 20.015625 56 32.328125 56 
Q 43.359375 56 49.78125 48.890625 
Q 56.203125 41.796875 56.203125 29.59375 
z
M 47.21875 32.234375 
Q 47.125 39.59375 43.09375 43.984375 
Q 39.0625 48.390625 32.421875 48.390625 
Q 24.90625 48.390625 20.390625 44.140625 
Q 15.875 39.890625 15.1875 32.171875 
z
" id="DejaVuSans-101"/>
     </defs>
     <g transform="translate(40.353906 215.236302)rotate(-90)scale(0.1 -0.1)">
      <use xlink:href="#DejaVuSans-100"/>
      <use x="63.476562" xlink:href="#DejaVuSans-114"/>
      <use x="104.558594" xlink:href="#DejaVuSans-111"/>
      <use x="165.740234" xlink:href="#DejaVuSans-112"/>
      <use x="229.216797" xlink:href="#DejaVuSans-114"/>
      <use x="270.330078" xlink:href="#DejaVuSans-97"/>
      <use x="331.609375" xlink:href="#DejaVuSans-116"/>
      <use x="370.818359" xlink:href="#DejaVuSans-101"/>
     </g>
    </g>
   </g>
   <g id="line2d_12">
    <path clip-path="url(#p00b3140fa8)" d="M 86.606804 352.174167 
L 90.248422 352.174167 
L 90.399047 280.020875 
L 90.549437 303.926985 
L 90.69981 352.174167 
L 93.141239 352.174167 
L 93.291526 326.419734 
L 93.592101 50.163056 
L 93.742265 311.265778 
L 93.893411 321.097436 
L 94.043571 306.275822 
L 94.194633 344.861995 
L 94.344976 340.240597 
L 94.496557 343.983178 
L 94.647025 342.076531 
L 94.798413 352.174167 
L 94.948713 342.535514 
L 95.099549 344.393837 
L 95.249842 342.091039 
L 95.551756 349.882547 
L 95.703406 320.775377 
L 95.85546 321.728918 
L 96.006719 329.388917 
L 96.158254 304.597011 
L 96.309124 244.16489 
L 96.460437 119.641103 
L 96.611928 222.02846 
L 96.76296 238.378492 
L 97.065683 330.756032 
L 97.368414 322.510966 
L 97.670477 345.338592 
L 97.972537 311.957221 
L 98.276764 331.870479 
L 98.580781 325.705464 
L 98.73188 327.074535 
L 98.883825 323.546545 
L 99.034952 301.806772 
L 99.185918 248.432728 
L 99.336544 244.16489 
L 99.48666 221.822866 
L 100.239005 343.490963 
L 100.396318 352.174167 
L 100.849064 321.554447 
L 100.999993 330.237651 
L 101.154721 327.155069 
L 101.308287 328.844122 
L 101.460201 321.772226 
L 101.611536 309.276615 
L 101.762736 313.785264 
L 102.063482 336.546243 
L 102.51593 274.259088 
L 102.817679 307.193788 
L 103.271959 319.410212 
L 103.423589 301.280617 
L 103.573662 303.841818 
L 104.028056 338.067464 
L 104.180238 329.065263 
L 104.332731 331.84172 
L 104.484945 307.251896 
L 104.940766 338.541966 
L 105.091464 331.608683 
L 105.394134 306.733497 
L 105.545637 316.224828 
L 105.696199 277.92568 
L 105.847402 272.76806 
L 106.149831 347.139836 
L 106.302134 340.846273 
L 106.454655 347.196963 
L 106.605181 345.299307 
L 106.756202 336.201674 
L 107.05771 347.147048 
L 107.208966 341.205909 
L 107.361144 330.393672 
L 107.814791 352.174167 
L 108.115294 284.606379 
L 108.416413 319.127358 
L 108.718341 325.210533 
L 108.870188 337.135902 
L 109.022312 334.502652 
L 109.173496 352.174167 
L 109.323877 347.590927 
L 109.47443 305.883443 
L 109.777122 335.650762 
L 109.92789 340.27484 
L 110.078697 341.174391 
L 110.230805 320.456063 
L 110.381455 327.38906 
L 110.534002 345.396684 
L 110.985484 299.925232 
L 111.288537 335.745317 
L 111.439562 329.812677 
L 111.590673 310.645685 
L 111.741766 309.153523 
L 112.045362 352.174167 
L 112.196071 323.798848 
L 112.346608 331.978895 
L 112.651517 325.440337 
L 112.803154 334.049536 
L 112.953739 331.949795 
L 113.104981 339.887684 
L 113.2551 328.732281 
L 113.405199 330.570861 
L 113.555145 329.553788 
L 113.70557 321.793833 
L 113.855645 323.676188 
L 114.006489 335.72178 
L 114.156442 333.573963 
L 114.306448 324.618359 
L 114.607989 329.951107 
L 114.759085 329.586477 
L 114.91005 330.237651 
L 115.060199 331.86199 
L 115.514005 325.705464 
L 115.665075 325.705464 
L 115.969084 342.658736 
L 116.121865 339.033809 
L 116.272033 341.647839 
L 116.723049 331.949795 
L 116.87463 335.28896 
L 117.025436 333.436726 
L 117.17627 333.274263 
L 117.32711 350.760606 
L 117.477849 336.613508 
L 117.778962 337.986507 
L 117.929302 346.365484 
L 118.079301 332.869085 
L 118.22953 352.174167 
L 118.379541 337.005888 
L 118.529719 335.283437 
L 118.830655 336.155842 
L 118.98102 334.827088 
L 119.1312 349.772107 
L 119.431466 327.816366 
L 119.731725 338.844467 
L 119.881602 334.222152 
L 120.031587 335.626953 
L 120.18185 341.272457 
L 120.332473 331.091263 
L 120.482775 342.076531 
L 120.633956 340.781542 
L 120.78423 333.063957 
L 120.934485 340.69958 
L 121.387227 330.756032 
L 121.537646 335.779493 
L 121.68894 326.581565 
L 121.991167 322.510966 
L 122.444095 335.334389 
L 122.744897 313.216627 
L 123.045933 330.174615 
L 123.346614 334.732796 
L 123.49676 322.297254 
L 123.648488 330.331531 
L 123.7994 321.008135 
L 123.957878 348.219702 
L 124.11058 308.346448 
L 124.261024 338.027102 
L 124.562349 333.841207 
L 124.713856 334.88208 
L 124.865006 334.832603 
L 125.015808 337.281398 
L 125.31829 329.844622 
L 125.46966 333.824983 
L 125.620993 332.094461 
L 125.772139 322.967323 
L 126.074981 327.002513 
L 126.225628 330.632939 
L 126.527061 326.966347 
L 126.677962 328.866619 
L 126.978491 340.03093 
L 127.278973 327.882995 
L 127.429508 326.471093 
L 127.580047 344.16399 
L 127.730194 338.100924 
L 127.880377 324.63516 
L 128.030516 331.943016 
L 128.18063 327.353347 
L 128.330656 337.465533 
L 128.631074 331.49015 
L 128.782915 333.997899 
L 128.933617 332.007911 
L 129.084787 335.337135 
L 129.236374 336.201674 
L 129.386885 342.105505 
L 129.54121 342.549363 
L 129.695659 333.516915 
L 129.846811 332.15175 
L 130.153661 337.047557 
L 130.308449 345.92814 
L 130.609843 334.782842 
L 130.762176 339.096834 
L 130.912995 337.414766 
L 131.063302 324.176176 
L 131.213961 322.799226 
L 131.367109 346.536579 
L 131.522203 341.525617 
L 131.680432 340.828297 
L 131.831828 338.996373 
L 131.983194 347.134775 
L 132.133857 345.319006 
L 132.284001 327.812992 
L 132.43428 334.273812 
L 132.584776 347.882774 
L 132.736192 334.401672 
L 132.887642 334.222152 
L 133.341669 349.76485 
L 133.643535 336.502537 
L 133.79368 337.486696 
L 133.945294 329.453832 
L 134.096551 328.451549 
L 134.247966 336.984 
L 134.399016 334.807758 
L 134.550117 336.784129 
L 134.70116 346.075762 
L 135.153501 323.787113 
L 135.303849 331.187752 
L 135.456882 328.227063 
L 135.607842 316.476185 
L 135.758046 331.187752 
L 135.90963 322.011458 
L 136.060674 328.443606 
L 136.213253 348.95201 
L 136.515528 332.49451 
L 136.666162 333.186458 
L 136.816511 332.869085 
L 136.96797 334.55534 
L 137.11886 337.986507 
L 137.26978 336.086598 
L 137.422398 327.495587 
L 137.576027 332.800268 
L 137.877073 334.757855 
L 138.177379 341.142691 
L 138.478956 326.124554 
L 138.782074 341.838589 
L 138.936203 329.741431 
L 139.086854 330.844735 
L 139.23762 333.382883 
L 139.389243 330.786585 
L 139.54159 332.265353 
L 139.691779 340.69958 
L 139.993119 330.877068 
L 140.145119 331.271459 
L 140.295896 329.35632 
L 140.446606 329.953257 
L 140.748695 337.157354 
L 141.051858 332.606805 
L 141.202835 350.308708 
L 141.352952 336.738997 
L 141.503368 335.167309 
L 141.657112 337.174472 
L 141.8079 337.135902 
L 141.960915 346.292017 
L 142.111859 339.414427 
L 142.262353 345.299307 
L 142.413239 345.852649 
L 142.713597 331.949795 
L 142.871018 331.609368 
L 143.021217 332.899635 
L 143.323139 350.618101 
L 143.474988 337.586049 
L 143.778511 331.271459 
L 143.930455 331.743724 
L 144.081106 332.924559 
L 144.231547 330.209043 
L 144.383844 337.200076 
L 144.536517 336.790083 
L 144.694211 328.052745 
L 144.845038 327.052836 
L 144.996596 333.289752 
L 145.146884 352.174167 
L 145.3025 342.358982 
L 145.452901 341.677957 
L 145.603695 334.55534 
L 145.75439 336.201674 
L 145.905044 336.294549 
L 146.055395 336.198725 
L 146.205807 330.717205 
L 146.357301 331.002032 
L 146.508329 341.647839 
L 146.808561 333.438845 
L 146.961467 334.657183 
L 147.264515 337.863315 
L 147.41492 347.797731 
L 147.715458 332.924559 
L 147.865765 337.925178 
L 148.01629 331.978895 
L 148.319058 352.174167 
L 148.470015 329.78064 
L 148.620921 325.870355 
L 148.92432 339.222551 
L 149.077272 344.064162 
L 149.233389 328.757746 
L 149.383877 347.469248 
L 149.536798 334.075245 
L 149.688299 331.211737 
L 149.838632 326.08718 
L 150.292108 332.036844 
L 150.442719 321.968183 
L 150.595227 338.72822 
L 150.902429 328.811263 
L 151.056009 329.260549 
L 151.206458 329.257967 
L 151.357941 327.902922 
L 151.662949 351.269221 
L 151.966548 322.011458 
L 152.118533 334.502652 
L 152.271043 312.86477 
L 152.576428 338.580694 
L 152.728815 335.385035 
L 152.880478 326.309829 
L 153.031432 335.264769 
L 153.18443 335.02883 
L 153.337604 336.85527 
L 153.48933 337.178746 
L 153.64266 335.527115 
L 153.794537 335.21144 
L 154.099329 333.007175 
L 154.252808 338.384822 
L 154.404901 337.221346 
L 154.555969 336.940034 
L 154.707874 350.171068 
L 154.860519 339.071034 
L 155.161149 333.814829 
L 155.462542 339.674421 
L 155.614048 350.801167 
L 155.765454 331.943016 
L 156.069823 349.905365 
L 156.371339 336.591151 
L 156.52176 333.409843 
L 156.672272 334.757855 
L 156.823409 340.257743 
L 157.126908 329.553788 
L 157.277379 337.049475 
L 157.428637 338.958722 
L 157.584331 343.697416 
L 157.736157 352.174167 
L 157.886914 325.553126 
L 158.043061 336.689045 
L 158.1976 333.436087 
L 158.349338 337.507799 
L 158.499533 345.095909 
L 158.650408 343.020838 
L 158.802251 335.361119 
L 159.103907 339.096834 
L 159.255368 338.483459 
L 159.562294 327.952597 
L 159.714306 336.790083 
L 159.865673 335.361119 
L 160.166868 327.923199 
L 160.621473 343.033952 
L 160.773153 328.056256 
L 160.924933 343.680257 
L 161.077274 339.052448 
L 161.228285 337.986507 
L 161.378779 331.56372 
L 161.530103 334.452306 
L 161.682001 333.997899 
L 161.832672 331.608683 
L 162.135605 337.890876 
L 162.288071 331.43037 
L 162.740033 346.693179 
L 162.890712 338.882771 
L 163.041263 352.174167 
L 163.192278 352.174167 
L 163.34328 320.595183 
L 163.644327 330.142961 
L 163.79968 328.594452 
L 164.100736 337.986507 
L 164.252539 330.632939 
L 164.555993 341.2216 
L 164.70652 332.924559 
L 164.856618 340.69958 
L 165.006653 338.844467 
L 165.156913 350.724196 
L 165.307006 332.869085 
L 165.457019 338.825232 
L 165.606994 331.030505 
L 165.757051 335.603076 
L 165.908163 329.78064 
L 166.058921 333.409843 
L 166.210428 324.415817 
L 166.360688 343.394529 
L 166.511328 346.181514 
L 166.661669 327.424671 
L 166.967932 336.202309 
L 167.119456 331.349665 
L 167.273179 332.377673 
L 167.423856 329.748512 
L 167.725359 350.324929 
L 167.875383 333.328729 
L 168.026662 338.027102 
L 168.176818 327.812992 
L 168.326803 349.412318 
L 168.478675 336.716332 
L 168.628593 337.779991 
L 168.779872 342.479719 
L 168.930395 337.986507 
L 169.081653 348.979668 
L 169.383499 334.273812 
L 169.838896 348.124884 
L 170.139782 341.174391 
L 170.291612 343.616964 
L 170.442841 352.174167 
L 170.593127 348.497008 
L 170.743478 327.848044 
L 170.894315 335.72178 
L 171.044462 333.437397 
L 171.194564 328.766794 
L 171.344517 344.809237 
L 171.647461 340.89434 
L 171.798476 352.174167 
L 172.099908 322.297254 
L 172.250901 337.253503 
L 172.704696 309.119829 
L 172.858706 328.014771 
L 173.010392 318.451997 
L 173.161992 324.455358 
L 173.312073 321.377964 
L 173.462052 312.182356 
L 173.612356 316.730445 
L 173.762758 314.64552 
L 173.91292 315.402582 
L 174.063314 333.328729 
L 174.213399 332.437878 
L 174.363512 335.510327 
L 174.515319 351.685662 
L 174.668147 336.269932 
L 174.819888 335.361119 
L 175.131144 337.221346 
L 175.291554 337.127304 
L 175.444105 335.977036 
L 175.594208 336.387007 
L 175.745237 347.604059 
L 176.047841 333.601037 
L 176.198899 334.065365 
L 176.501894 352.174167 
L 176.804043 337.135902 
L 176.954674 336.95985 
L 177.256678 352.174167 
L 177.408865 336.613508 
L 177.561609 337.145598 
L 177.713152 336.702299 
L 177.863786 340.27484 
L 178.015165 351.208982 
L 178.321631 328.375513 
L 178.472534 330.237651 
L 178.623553 327.492918 
L 178.925188 335.28896 
L 179.075809 333.824983 
L 179.226693 348.502299 
L 179.378742 333.878951 
L 179.680829 352.174167 
L 179.832016 330.725391 
L 180.135626 338.404663 
L 180.288664 335.337135 
L 180.439501 320.183415 
L 180.589825 319.947883 
L 180.741494 340.450056 
L 180.892791 336.658031 
L 181.194971 334.782842 
L 181.345463 347.132603 
L 181.496336 335.986437 
L 181.6482 338.284755 
L 181.799385 330.815068 
L 181.950255 335.167309 
L 182.102535 328.923912 
L 182.404465 342.115813 
L 182.555085 341.647839 
L 182.706114 345.299307 
L 183.011168 333.081125 
L 183.167007 352.174167 
L 183.317953 348.072822 
L 183.469113 336.178791 
L 183.619608 334.325176 
L 183.770926 336.224492 
L 183.921222 332.924559 
L 184.071548 350.730757 
L 184.222428 338.424447 
L 184.373133 336.155842 
L 184.524628 336.224492 
L 184.676451 334.505365 
L 184.827433 337.549823 
L 184.977976 349.889113 
L 185.128653 335.674503 
L 185.283802 342.818212 
L 185.43467 328.341319 
L 185.585079 336.201674 
L 185.735624 324.595478 
L 185.886286 345.116788 
L 186.036859 324.674727 
L 186.18746 330.632939 
L 186.337981 329.716291 
L 186.489697 336.613508 
L 186.796993 323.21526 
L 186.947879 330.725391 
L 187.255529 333.197216 
L 187.406903 337.842575 
L 187.557004 333.409843 
L 187.708704 333.06186 
L 187.861422 330.847432 
L 188.013511 315.018674 
L 188.166524 313.876925 
L 188.320639 316.936513 
L 188.470548 342.535514 
L 188.624133 343.150305 
L 188.774753 352.174167 
L 188.927742 352.174167 
L 189.078576 325.667544 
L 189.233024 324.806229 
L 189.384043 327.027234 
L 189.687722 349.274226 
L 190.140076 330.721388 
L 190.44194 338.424447 
L 190.593976 334.955768 
L 190.744766 351.217664 
L 190.898627 336.106346 
L 191.052501 335.565011 
L 191.203044 339.817173 
L 191.353729 349.416298 
L 191.505831 337.244674 
L 191.964104 341.174391 
L 192.115741 321.121702 
L 192.266563 320.091487 
L 192.727977 352.174167 
L 192.880582 351.267935 
L 193.034805 321.433173 
L 193.186118 352.174167 
L 193.336873 330.694662 
L 193.487479 331.091263 
L 193.63781 328.9915 
L 193.939358 337.986507 
L 194.24107 331.579178 
L 194.391528 336.647934 
L 194.543755 333.569994 
L 194.700815 325.330394 
L 194.85477 329.623816 
L 195.005325 344.612839 
L 195.157355 333.97197 
L 195.308492 341.54105 
L 195.461647 337.162708 
L 195.613466 339.450779 
L 195.768808 337.471952 
L 195.922863 352.174167 
L 196.386289 297.744507 
L 196.537093 305.30351 
L 196.690273 334.602491 
L 196.845407 334.750152 
L 196.997003 317.639258 
L 197.302211 324.612405 
L 197.457209 326.528709 
L 197.609191 322.88804 
L 197.759938 341.158564 
L 197.910354 339.341095 
L 198.064263 343.625681 
L 198.218055 319.871028 
L 198.372276 327.601838 
L 198.678274 299.16092 
L 198.829116 330.632939 
L 198.982789 332.405555 
L 199.133401 327.46018 
L 199.284986 332.578852 
L 199.745441 335.993337 
L 199.898743 322.437485 
L 200.203107 351.278118 
L 200.506782 339.450779 
L 200.657724 324.296511 
L 200.962474 331.4486 
L 201.422985 336.768231 
L 201.574475 335.361119 
L 201.726176 326.236036 
L 201.878664 335.456377 
L 202.185251 326.84233 
L 202.3407 325.961609 
L 202.649543 334.577637 
L 202.801465 338.127578 
L 202.952852 304.780847 
L 203.104783 303.169368 
L 203.557451 343.816258 
L 203.859883 318.403753 
L 204.011655 332.782465 
L 204.165187 333.143305 
L 204.316082 328.35474 
L 204.466742 334.299531 
L 204.773652 336.067903 
L 204.927433 335.597257 
L 205.078701 337.591607 
L 205.233231 344.132314 
L 205.384615 330.331531 
L 205.535853 342.666164 
L 205.68775 339.261386 
L 205.841102 342.27592 
L 206.14306 336.155842 
L 206.294076 352.174167 
L 206.59922 333.997899 
L 206.750671 346.514605 
L 207.055218 336.811874 
L 207.514233 352.174167 
L 207.819124 326.907355 
L 207.97236 319.73415 
L 208.124525 332.634679 
L 208.274972 331.579178 
L 208.425067 344.697757 
L 208.728594 334.477515 
L 208.879869 331.696695 
L 209.031232 334.398927 
L 209.183548 332.265353 
L 209.334531 328.341319 
L 209.489345 332.181538 
L 209.646713 332.717826 
L 209.799592 329.907549 
L 209.951267 337.294003 
L 210.102162 334.827088 
L 210.40488 344.28561 
L 210.555464 332.007911 
L 210.858486 341.692952 
L 211.010812 334.955768 
L 211.166115 343.697416 
L 211.317118 335.337135 
L 211.468372 333.490262 
L 211.621799 337.33726 
L 211.773748 348.167969 
L 212.075586 335.650762 
L 212.22742 338.047312 
L 212.38138 332.013061 
L 212.532092 336.178791 
L 212.684049 333.089086 
L 212.835338 342.148657 
L 212.986126 330.126087 
L 213.13999 335.28896 
L 213.291928 348.481044 
L 213.443149 347.945976 
L 213.898968 328.193095 
L 214.051517 328.808401 
L 214.208535 330.554967 
L 214.362367 333.830922 
L 214.513397 352.174167 
L 214.665513 336.81889 
L 214.816894 339.432629 
L 214.967571 339.341095 
L 215.117847 352.174167 
L 215.269447 335.755384 
L 215.420377 335.674503 
L 215.570478 345.428081 
L 215.720444 343.428313 
L 215.871025 339.799419 
L 216.021854 341.190172 
L 216.172426 344.840983 
L 216.32257 332.437878 
L 216.473539 336.591151 
L 216.626356 332.717826 
L 216.777258 332.550818 
L 216.930806 338.206937 
L 217.081024 338.649589 
L 217.232716 347.958394 
L 217.537819 338.489534 
L 217.839597 350.351347 
L 217.990611 338.463844 
L 218.140866 344.830431 
L 218.291941 336.178791 
L 218.442811 336.523692 
L 218.59397 331.211737 
L 218.900719 337.83738 
L 219.051652 352.174167 
L 219.203506 337.200076 
L 219.355701 341.722813 
L 219.506243 339.817173 
L 219.656718 347.132603 
L 219.957532 335.191779 
L 220.108137 347.597502 
L 220.261459 330.78116 
L 220.715816 348.518081 
L 221.168954 333.814829 
L 221.470451 348.518081 
L 221.62133 330.663845 
L 221.774501 342.658736 
L 221.925682 333.919889 
L 222.076658 333.136709 
L 222.226756 341.142691 
L 222.376935 328.732281 
L 222.527408 333.735236 
L 222.678454 331.181748 
L 222.829534 331.638105 
L 222.980452 327.002513 
L 223.131061 331.309766 
L 223.28133 350.30049 
L 223.582534 336.958122 
L 223.732913 340.240597 
L 224.035146 337.092812 
L 224.185355 340.240597 
L 224.336385 339.359507 
L 224.486906 339.341095 
L 224.638099 348.885574 
L 224.940161 339.377866 
L 225.090234 343.060067 
L 225.241393 342.134314 
L 225.392463 333.628033 
L 225.543454 335.264769 
L 225.694455 332.065694 
L 225.845328 333.86751 
L 226.003264 337.553631 
L 226.161507 352.174167 
L 226.311903 349.424223 
L 226.462948 322.510966 
L 226.614432 349.895642 
L 226.764613 331.060928 
L 226.915421 329.716291 
L 227.066534 331.181748 
L 227.217629 328.527145 
L 227.519118 336.109746 
L 227.82024 324.753522 
L 227.971275 329.32363 
L 228.122383 326.618178 
L 228.42466 309.215157 
L 228.575746 324.296511 
L 228.877761 329.32363 
L 229.028058 340.716067 
L 229.180984 339.974699 
L 229.485807 328.933212 
L 229.635872 328.307027 
L 229.786754 318.668375 
L 230.08875 334.832603 
L 230.239584 333.382208 
L 230.389844 316.424895 
L 230.69202 323.839501 
L 230.994055 352.174167 
L 231.144066 352.174167 
L 231.295177 302.288526 
L 231.446226 324.083694 
L 231.597262 325.713876 
L 231.748267 336.155842 
L 231.901369 332.757171 
L 232.052585 338.503017 
L 232.20365 349.712797 
L 232.354785 337.114388 
L 232.658414 335.385035 
L 232.963935 328.778311 
L 233.114774 327.002513 
L 233.414919 335.674503 
L 233.564983 336.063384 
L 233.714959 329.651571 
L 233.865168 335.167309 
L 234.015142 351.254877 
L 234.165214 333.788374 
L 234.315171 330.975232 
L 234.467449 333.893737 
L 234.622204 317.009529 
L 234.772681 333.354491 
L 234.925229 327.987249 
L 235.075518 327.015453 
L 235.376981 352.174167 
L 235.529976 339.522866 
L 235.831644 342.003359 
L 235.982216 337.966123 
L 236.132599 337.94568 
L 236.283195 332.924559 
L 236.433558 335.626953 
L 236.585152 333.06186 
L 236.887768 348.470323 
L 237.037898 336.568729 
L 237.193568 340.161859 
L 237.344159 332.550818 
L 237.495906 333.708552 
L 237.646561 333.814829 
L 237.79848 331.157025 
L 237.950666 334.291198 
L 238.103513 352.174167 
L 238.406124 338.444174 
L 238.556934 338.90184 
L 238.70815 341.252849 
L 239.009802 319.174839 
L 239.161557 320.274817 
L 239.31327 332.065694 
L 239.463366 330.142961 
L 239.613501 331.949795 
L 239.914575 328.474798 
L 240.065543 332.979715 
L 240.367282 323.299755 
L 240.51845 323.839501 
L 240.669852 333.86751 
L 240.819898 326.124554 
L 240.971416 300.457861 
L 241.121503 324.256515 
L 241.274697 329.582559 
L 241.57745 316.832441 
L 241.728626 331.121511 
L 241.878803 331.519911 
L 242.031689 339.266915 
L 242.182537 332.007911 
L 242.332717 338.142195 
L 242.637939 332.208713 
L 242.789616 330.563414 
L 242.94115 343.51371 
L 243.093262 344.018083 
L 243.244906 334.832603 
L 243.39816 333.250824 
L 243.549876 327.342337 
L 243.702786 326.411109 
L 244.008768 333.357134 
L 244.311899 324.831867 
L 244.463063 325.705464 
L 244.614308 332.065694 
L 244.765677 331.030505 
L 244.918211 336.178791 
L 245.06849 336.132827 
L 245.219902 335.28896 
L 245.371158 329.844622 
L 245.671157 352.174167 
L 245.82107 348.031394 
L 246.124743 330.22293 
L 246.276537 326.434057 
L 246.429188 332.323631 
L 246.732921 331.064303 
L 246.884103 333.919889 
L 247.184007 330.079379 
L 247.335743 331.638105 
L 247.48623 324.216403 
L 247.636614 326.066068 
L 247.786744 325.974412 
L 247.936915 330.783932 
L 248.087095 345.119018 
L 248.237207 345.488674 
L 248.387243 334.707664 
L 248.537586 334.707664 
L 248.687573 330.907933 
L 248.838905 330.694662 
L 248.989263 334.299531 
L 249.139699 329.224994 
L 249.290331 328.784628 
L 249.592234 346.111425 
L 249.743061 340.453958 
L 250.043946 342.076531 
L 250.194848 338.444174 
L 250.354352 349.8559 
L 250.50545 336.269932 
L 250.656336 338.463844 
L 250.806937 335.240509 
L 250.957677 327.812992 
L 251.108215 327.324117 
L 251.409571 348.031394 
L 251.560659 320.183415 
L 251.712973 336.746316 
L 251.868422 333.016736 
L 252.024146 333.123166 
L 252.182822 344.679459 
L 252.341434 340.440073 
L 252.492002 339.563882 
L 252.64533 329.422773 
L 252.947132 344.767197 
L 253.250593 309.185763 
L 253.553066 325.301079 
L 253.85603 336.738997 
L 254.007717 336.658031 
L 254.310484 352.174167 
L 254.618178 335.666811 
L 254.772397 325.974412 
L 254.926595 325.740717 
L 255.081819 324.667078 
L 255.233399 314.458411 
L 255.384404 343.667673 
L 255.535271 336.613508 
L 255.686742 338.027102 
L 255.837287 335.875229 
L 255.993923 326.492487 
L 256.144801 328.630508 
L 256.447656 336.851335 
L 256.597775 331.549587 
L 256.74926 336.658031 
L 256.8998 329.716291 
L 257.050233 338.183224 
L 257.202294 334.023754 
L 257.50766 323.464752 
L 257.658281 324.714181 
L 257.809823 336.658031 
L 257.963994 330.938056 
L 258.115293 332.208052 
L 258.265865 346.224503 
L 258.416404 344.840983 
L 258.567462 338.424447 
L 258.718079 337.76181 
L 259.019846 341.617547 
L 259.170656 349.432102 
L 259.321241 337.049475 
L 259.471692 338.90184 
L 259.622574 337.966123 
L 259.924379 332.979715 
L 260.074632 335.216179 
L 260.225391 328.799643 
L 260.525999 330.570861 
L 260.676734 346.666365 
L 260.826862 341.632715 
L 260.977947 331.608683 
L 261.128127 344.81985 
L 261.428676 333.788374 
L 261.58013 345.116788 
L 261.730735 337.071175 
L 261.881092 336.984 
L 262.181614 331.030505 
L 262.331732 329.651571 
L 262.484788 337.423022 
L 262.63488 334.299531 
L 262.935393 335.167309 
L 263.086446 339.683457 
L 263.238913 340.86234 
L 263.390667 341.046486 
L 263.541472 330.174615 
L 263.992824 332.896862 
L 264.144042 333.919889 
L 264.294266 331.519911 
L 264.44637 332.634679 
L 264.60042 332.349712 
L 264.753697 339.229503 
L 264.904091 337.071175 
L 265.05461 331.549587 
L 265.205166 332.952177 
L 265.355809 341.447777 
L 265.657389 313.785264 
L 265.807843 339.32263 
L 265.961106 329.646377 
L 266.111845 335.216179 
L 266.26276 327.002513 
L 266.564378 328.923912 
L 266.715763 333.959311 
L 266.866018 330.570861 
L 267.01914 333.089086 
L 267.170499 342.98127 
L 267.472822 325.551037 
L 267.623593 325.629514 
L 267.923765 328.732281 
L 268.075135 335.28896 
L 268.225867 327.424671 
L 268.376481 328.238147 
L 268.527141 334.117931 
L 268.677729 333.814829 
L 268.829894 342.177219 
L 268.980767 336.635801 
L 269.131111 339.781613 
L 269.282377 339.887684 
L 269.432572 337.94568 
L 269.584123 343.971477 
L 269.736126 328.999425 
L 269.88836 332.690189 
L 270.039763 346.230188 
L 270.190422 337.986507 
L 270.341828 343.515772 
L 270.494769 339.071034 
L 270.645348 349.428168 
L 270.796452 344.861995 
L 270.947242 330.237651 
L 271.098348 333.463532 
L 271.250277 340.904043 
L 271.400912 337.507799 
L 271.551632 338.424447 
L 271.70291 336.800986 
L 271.853769 325.388453 
L 272.003922 327.230314 
L 272.155536 335.579129 
L 272.307281 336.680197 
L 272.460357 343.80551 
L 272.610657 343.007687 
L 272.761884 349.436025 
L 272.912845 345.842998 
L 273.217616 333.07276 
L 273.522095 348.975091 
L 273.673896 333.522373 
L 273.82566 334.832603 
L 273.976677 330.206178 
L 274.129146 331.264532 
L 274.281826 350.66948 
L 274.431969 336.247913 
L 274.584078 335.334389 
L 274.736282 335.142768 
L 274.889106 331.638105 
L 275.040895 337.996678 
L 275.191386 336.591151 
L 275.34183 333.437397 
L 275.493261 320.137517 
L 275.64545 332.536429 
L 275.797957 334.049536 
L 275.950213 333.355845 
L 276.100862 331.608683 
L 276.251469 339.355263 
L 276.556048 312.809011 
L 276.857314 338.006834 
L 277.008375 338.463844 
L 277.159124 334.350748 
L 277.309917 342.423274 
L 277.460879 338.72822 
L 277.61241 338.522519 
L 277.764654 345.367762 
L 277.917121 325.860665 
L 278.069289 326.019502 
L 278.22288 327.28161 
L 278.376013 331.121511 
L 278.528283 331.84172 
L 278.678716 324.618359 
L 279.138696 333.919889 
L 279.289742 336.178791 
L 279.439948 336.109746 
L 279.590446 340.965025 
L 279.743137 338.093784 
L 280.043765 330.457514 
L 280.197732 331.477832 
L 280.349301 330.817052 
L 280.501368 335.433983 
L 280.652112 344.902278 
L 280.80331 347.15424 
L 280.953705 335.706951 
L 281.104722 337.114388 
L 281.255413 343.100998 
L 281.406743 328.933212 
L 281.560146 331.027912 
L 281.713515 339.071034 
L 281.864264 326.810769 
L 282.017994 333.753415 
L 282.322795 336.828998 
L 282.474346 340.325837 
L 282.625366 349.889113 
L 282.925866 330.601944 
L 283.076667 328.857379 
L 283.228673 332.380919 
L 283.379103 327.424671 
L 283.529148 327.490146 
L 283.679782 331.091263 
L 283.830691 338.669332 
L 284.133248 329.929813 
L 284.434831 337.135902 
L 284.586818 328.346908 
L 284.741846 333.830922 
L 284.892003 345.319006 
L 285.044198 333.905817 
L 285.195811 332.149757 
L 285.347125 344.809237 
L 285.499419 342.6452 
L 285.650364 338.027102 
L 285.801615 342.819519 
L 285.954765 331.899156 
L 286.105626 343.912465 
L 286.256046 339.763757 
L 286.40634 331.099521 
L 286.708975 335.779493 
L 286.862124 330.815068 
L 287.170298 334.049536 
L 287.323232 332.413507 
L 287.478164 352.174167 
L 287.631464 341.826 
L 287.78368 339.504921 
L 287.934373 340.716067 
L 288.085925 338.038561 
L 288.236889 338.027102 
L 288.387733 336.635801 
L 288.5395 347.6301 
L 288.84401 333.649048 
L 288.995338 337.135902 
L 289.296976 324.714181 
L 289.601914 331.978895 
L 289.753349 327.992401 
L 289.903803 342.091039 
L 290.054352 328.286978 
L 290.207726 333.727434 
L 290.359935 344.914002 
L 290.510582 347.139836 
L 290.660626 333.024478 
L 290.811567 337.986507 
L 290.963176 333.516915 
L 291.115402 347.530884 
L 291.266441 338.503017 
L 291.418535 341.459881 
L 291.571547 337.348382 
L 291.722774 352.174167 
L 292.179311 330.523024 
L 292.331322 332.208713 
L 292.482573 336.523692 
L 292.788101 333.59642 
L 292.941671 332.558168 
L 293.094298 352.174167 
L 293.245138 352.174167 
L 293.396785 304.007057 
L 293.704263 325.48015 
L 293.857917 335.954158 
L 294.160968 329.35632 
L 294.311575 330.206178 
L 294.462772 335.264769 
L 294.765215 327.882995 
L 294.916466 336.658031 
L 295.067411 335.142768 
L 295.217739 325.553126 
L 295.368909 329.32363 
L 295.673362 326.456162 
L 295.824047 318.258191 
L 295.976531 343.589356 
L 296.127071 312.814854 
L 296.427421 344.81985 
L 296.727842 334.273812 
L 296.87873 321.05285 
L 297.02892 326.01211 
L 297.17901 347.304037 
L 297.479706 311.841655 
L 297.630007 338.844467 
L 297.780057 324.595478 
L 297.930283 339.781613 
L 298.080368 317.700806 
L 298.230772 313.619557 
L 298.380901 334.248019 
L 298.531058 337.925178 
L 298.682014 350.803134 
L 298.990427 336.471252 
L 299.141325 337.570745 
L 299.442596 334.273812 
L 299.59329 326.930077 
L 299.744122 348.861178 
L 300.195636 332.380919 
L 300.346579 334.350748 
L 300.49777 331.972811 
L 300.649085 335.435377 
L 300.800065 342.994498 
L 300.951599 344.835359 
L 301.403695 317.947396 
L 301.554179 343.804075 
L 301.858282 326.902634 
L 302.161397 337.842575 
L 302.312801 332.500559 
L 302.465837 339.691812 
L 302.616432 333.708552 
L 302.769101 334.126444 
L 302.92233 338.424447 
L 303.075505 348.382268 
L 303.234827 345.646332 
L 303.551917 330.554967 
L 303.702053 328.833179 
L 303.852049 336.546243 
L 304.153123 330.940106 
L 304.303649 331.126209 
L 304.60594 342.618013 
L 304.756186 338.404663 
L 304.906232 337.465533 
L 305.057165 338.90184 
L 305.207216 350.730757 
L 305.358192 342.563172 
L 305.508111 342.061981 
L 305.657987 336.962049 
L 305.808923 340.748898 
L 306.118074 331.360406 
L 306.421924 328.511311 
L 306.573051 334.857377 
L 306.724867 332.578852 
L 306.876402 344.32628 
L 307.026611 345.279495 
L 307.178868 329.453832 
L 307.330458 338.90184 
L 307.481787 335.626953 
L 307.632029 337.486696 
L 307.933008 327.209458 
L 308.386806 340.291887 
L 308.53804 336.201674 
L 308.688956 294.050531 
L 308.839994 318.403753 
L 309.142265 326.08718 
L 309.293648 340.308886 
L 309.445021 337.135902 
L 309.595661 339.359507 
L 309.746314 338.882771 
L 309.897008 351.676517 
L 310.199327 332.007911 
L 310.351764 330.968092 
L 310.502842 336.658031 
L 310.654858 327.636205 
L 310.806019 326.673233 
L 310.95616 332.323631 
L 311.107253 343.478505 
L 311.258434 343.959742 
L 311.56068 334.903818 
L 311.712241 341.692952 
L 311.863322 334.196209 
L 312.163986 345.774606 
L 312.314206 337.465533 
L 312.464391 344.371448 
L 312.766909 330.778261 
L 312.918775 332.237073 
L 313.071636 335.261404 
L 313.226985 327.42855 
L 313.379194 325.967902 
L 313.531917 328.866619 
L 313.684705 338.638375 
L 313.987266 333.516915 
L 314.137709 334.273812 
L 314.289436 337.502359 
L 314.593652 327.291678 
L 314.745356 331.725865 
L 315.048181 343.616964 
L 315.202049 335.077195 
L 315.354109 347.662236 
L 315.504868 324.63516 
L 315.656622 328.999425 
L 315.807876 341.157875 
L 315.96011 342.927978 
L 316.11395 340.942001 
L 316.266269 348.443249 
L 316.421239 342.792005 
L 316.726125 326.297113 
L 316.877302 328.999425 
L 317.029603 327.705915 
L 317.181382 324.041027 
L 317.332281 333.382883 
L 317.486495 335.02883 
L 317.645093 325.118631 
L 317.797091 330.998045 
L 317.949171 331.928449 
L 318.25438 348.104074 
L 318.404907 338.424447 
L 318.708471 335.118156 
L 319.011089 350.348739 
L 319.312893 316.173472 
L 319.464011 327.952597 
L 319.61514 329.35632 
L 319.766117 334.350748 
L 319.917138 329.355654 
L 320.068196 350.202028 
L 320.219187 338.920855 
L 320.521162 333.814829 
L 320.672214 329.619071 
L 320.973468 349.852525 
L 321.124636 343.490963 
L 321.275812 331.638105 
L 321.426019 333.438103 
L 321.577051 352.174167 
L 322.031163 330.486223 
L 322.336289 340.746051 
L 322.487469 352.174167 
L 322.638441 322.468468 
L 322.788534 343.932693 
L 322.939538 329.797011 
L 323.0896 337.005888 
L 323.241155 334.657183 
L 323.392184 335.72178 
L 323.543225 330.174615 
L 323.693369 348.410232 
L 323.843402 338.384822 
L 323.993779 337.63039 
L 324.146226 339.922638 
L 324.296326 336.613508 
L 324.447077 337.049475 
L 324.598985 331.207458 
L 324.750228 345.794297 
L 324.90103 304.119192 
L 325.052299 332.550818 
L 325.206075 327.393598 
L 325.35735 334.906712 
L 325.507685 335.191779 
L 325.657871 337.94568 
L 325.808911 343.033952 
L 325.960699 342.718821 
L 326.111585 337.092812 
L 326.262878 345.498667 
L 326.414836 331.725865 
L 326.564972 331.79271 
L 326.716175 330.237651 
L 326.86652 325.388453 
L 327.020005 331.899156 
L 327.169957 328.923912 
L 327.320013 332.841227 
L 327.62224 320.091487 
L 327.773319 322.883515 
L 327.924507 328.9915 
L 328.07563 310.189328 
L 328.377604 327.882995 
L 328.528933 328.443606 
L 328.680512 327.384349 
L 328.833916 340.661619 
L 329.135674 324.674727 
L 329.288232 349.308956 
L 329.439666 341.268406 
L 329.592415 342.658736 
L 329.742791 347.597502 
L 329.894692 340.813999 
L 330.045935 339.817173 
L 330.354488 319.269393 
L 330.658907 328.090612 
L 330.963545 315.262062 
L 331.115708 331.754953 
L 331.268355 325.102583 
L 331.41947 326.124554 
L 331.726565 333.409843 
L 332.029836 327.917846 
L 332.179936 345.279495 
L 332.481108 333.463532 
L 332.632593 332.550818 
L 332.783363 338.027102 
L 332.936528 334.552713 
L 333.09315 334.400335 
L 333.244148 334.906712 
L 333.394731 333.573963 
L 333.698513 352.174167 
L 334.000939 339.852529 
L 334.151506 335.674503 
L 334.305835 335.527115 
L 334.455881 333.219481 
L 334.606569 333.841207 
L 334.756789 335.650762 
L 334.910018 332.772865 
L 335.062143 335.838795 
L 335.212223 344.382659 
L 335.36265 340.69958 
L 335.513712 330.595195 
L 335.66547 330.061048 
L 335.816623 338.027102 
L 336.269187 322.340242 
L 336.420885 325.325926 
L 336.571898 318.355372 
L 336.722764 344.861995 
L 336.872933 292.879986 
L 337.022934 306.66933 
L 337.322849 344.337621 
L 337.474937 352.174167 
L 337.625194 326.049699 
L 337.778235 326.871566 
L 337.928773 328.833179 
L 338.078817 326.893702 
L 338.229026 333.301535 
L 338.379226 330.111216 
L 338.530241 336.178791 
L 338.682179 336.746316 
L 338.836101 318.926957 
L 338.987656 324.415817 
L 339.140715 324.160573 
L 339.296521 334.87132 
L 339.448031 334.502652 
L 339.600621 343.124706 
L 339.751932 344.427182 
L 339.903029 332.550818 
L 340.053468 332.896862 
L 340.205038 330.907933 
L 340.358714 350.374485 
L 340.66911 339.576398 
L 340.821345 325.856069 
L 340.976942 349.772107 
L 341.129336 352.174167 
L 341.431125 312.127364 
L 341.581965 320.137517 
L 341.736717 320.133461 
L 342.041728 340.026318 
L 342.193441 340.41187 
L 342.344385 342.134314 
L 342.494983 349.882547 
L 342.79985 340.048683 
L 342.953148 342.712495 
L 343.105881 351.723611 
L 343.410551 337.114388 
L 343.561334 337.986507 
L 343.712055 339.817173 
L 343.862277 332.007911 
L 344.013941 337.114388 
L 344.165044 318.812382 
L 344.319327 350.132608 
L 344.469776 333.893737 
L 344.625017 332.633983 
L 344.927472 343.947973 
L 345.078342 345.30917 
L 345.229234 323.38249 
L 345.380519 323.42368 
L 345.531446 322.468468 
L 345.681452 336.546243 
L 345.83154 330.345685 
L 345.982259 333.409843 
L 346.133285 333.436726 
L 346.283524 337.519029 
L 346.433793 346.674279 
L 346.583855 334.091686 
L 346.734243 331.060928 
L 346.8843 331.978895 
L 347.034626 328.341319 
L 347.184785 328.698455 
L 347.338254 324.872921 
L 347.497461 324.492913 
L 347.648312 337.200076 
L 347.800477 334.714463 
L 347.950528 334.610537 
L 348.100747 333.328729 
L 348.251882 330.008455 
L 348.402058 331.113404 
L 348.552193 342.40906 
L 348.702229 339.763757 
L 348.853108 325.171848 
L 349.005103 337.33726 
L 349.155704 331.579178 
L 349.310448 332.461085 
L 349.460494 330.391606 
L 349.611775 339.414427 
L 349.762047 330.111216 
L 349.913332 328.021802 
L 350.218432 335.408883 
L 350.369014 332.979715 
L 350.673615 350.807052 
L 350.825384 337.610399 
L 351.126631 344.382659 
L 351.428716 335.059761 
L 351.579397 342.437446 
L 351.730793 342.134314 
L 351.881532 337.964011 
L 352.03509 339.526847 
L 352.185873 337.904616 
L 352.336486 351.258834 
L 352.486933 335.919721 
L 352.638283 335.768787 
L 352.792517 337.796995 
L 352.946279 335.999848 
L 353.096736 339.115953 
L 353.247417 338.444174 
L 353.400186 349.908588 
L 353.554443 334.701208 
L 353.705667 333.034557 
L 353.857004 341.288632 
L 354.009176 332.208713 
L 354.159953 331.181748 
L 354.310515 333.355845 
L 354.460719 339.781613 
L 354.612017 328.409608 
L 354.762773 334.376246 
L 354.914683 326.691091 
L 355.065386 325.629514 
L 355.366594 332.466235 
L 355.668391 322.468468 
L 355.818817 336.613508 
L 355.970018 322.510966 
L 356.120308 324.176176 
L 356.270484 338.12159 
L 356.421618 337.092812 
L 356.571987 322.756899 
L 356.722573 327.002513 
L 356.873809 336.658031 
L 357.024464 311.383331 
L 357.793956 336.984 
L 357.945136 327.887692 
L 358.09555 332.007911 
L 358.24633 326.08718 
L 358.39688 330.206178 
L 358.547679 312.758303 
L 358.697783 320.91832 
L 358.851271 336.382409 
L 359.305357 325.670256 
L 359.455525 333.07276 
L 359.605921 333.68179 
L 359.756774 333.219481 
L 359.907253 347.584332 
L 360.363665 325.77779 
L 360.513973 335.603076 
L 360.664245 331.060928 
L 360.816925 332.091121 
L 360.967554 338.882771 
L 361.118684 329.388917 
L 361.272108 333.304129 
L 361.422839 330.477069 
L 361.577265 331.670848 
L 361.728031 352.174167 
L 361.878669 341.190172 
L 362.02912 341.617547 
L 362.183404 341.406454 
L 362.635527 331.667442 
L 362.791484 332.181538 
L 362.944636 335.815526 
L 363.094814 344.668437 
L 363.250178 344.132314 
L 363.400428 347.604059 
L 363.550976 325.591375 
L 364.004591 352.174167 
L 364.15624 330.847432 
L 364.30696 329.154017 
L 364.457541 330.22293 
L 364.611387 327.498158 
L 364.761948 329.716291 
L 365.069438 336.493306 
L 365.22114 351.265353 
L 365.372014 350.803134 
L 365.52256 333.86751 
L 365.673087 331.549587 
L 365.823419 336.086598 
L 365.974572 349.436025 
L 366.128065 344.514718 
L 366.279246 313.894947 
L 366.431606 330.393672 
L 366.582287 329.125503 
L 366.884741 347.590927 
L 367.187431 334.757855 
L 367.339706 334.502652 
L 367.492569 335.311074 
L 367.642978 329.290845 
L 367.94439 345.928812 
L 368.244921 332.40944 
L 368.395213 333.788374 
L 368.545211 337.027713 
L 368.695378 333.328729 
L 368.999737 336.576693 
L 369.150407 348.965899 
L 369.300832 331.87458 
L 369.451205 334.757855 
L 369.601727 340.240597 
L 369.752622 336.178791 
L 369.904316 337.157354 
L 370.057765 335.02883 
L 370.20833 345.900467 
L 370.359895 343.340501 
L 370.51203 334.146277 
L 370.664516 336.746316 
L 370.814981 344.393837 
L 371.116473 335.21144 
L 371.266912 337.966123 
L 371.417497 347.469248 
L 371.719006 336.178791 
L 371.869807 341.589164 
L 372.175876 335.777305 
L 372.325981 334.707664 
L 372.476048 349.291695 
L 372.778422 333.06186 
L 372.929759 332.120482 
L 373.235917 320.590652 
L 373.538628 327.848044 
L 373.693522 326.225186 
L 373.844446 340.325837 
L 374.000918 330.464887 
L 374.15349 332.800268 
L 374.307199 329.614513 
L 374.46385 332.814561 
L 374.620907 324.454732 
L 374.772548 330.999995 
L 374.92279 320.963292 
L 375.073672 320.595183 
L 375.37506 339.377866 
L 375.530229 338.362996 
L 375.681348 334.452306 
L 375.832696 338.027102 
L 375.987905 352.174167 
L 376.146056 335.768787 
L 376.296947 339.6007 
L 376.59974 322.595597 
L 377.205775 345.848517 
L 377.359481 340.27484 
L 377.511955 352.174167 
L 377.964444 322.383107 
L 378.114588 324.310277 
L 378.265873 332.952177 
L 378.416374 334.325176 
L 378.718237 343.434619 
L 378.874606 338.503017 
L 379.027832 338.714525 
L 379.328588 345.289415 
L 379.479231 334.757855 
L 379.629683 345.748398 
L 379.781179 332.296234 
L 379.931375 342.521626 
L 380.084748 345.053776 
L 380.235819 331.667442 
L 380.386815 338.82095 
L 380.537926 336.635801 
L 380.690833 342.328688 
L 380.843911 332.349712 
L 380.994373 331.091263 
L 381.145204 342.105505 
L 381.295981 342.563172 
L 381.450004 346.283662 
L 381.600602 333.436726 
L 381.752958 336.292556 
L 381.904805 348.370965 
L 382.055625 338.424447 
L 382.206382 345.319006 
L 382.659327 327.882995 
L 382.810237 331.579178 
L 382.960483 331.978895 
L 383.113167 331.360406 
L 383.265216 337.178746 
L 383.415658 333.409843 
L 383.566338 332.466235 
L 383.869455 348.066954 
L 384.330398 333.383526 
L 384.482749 337.474005 
L 384.635549 349.918201 
L 384.788089 338.599975 
L 384.938735 338.242222 
L 385.241494 345.338592 
L 385.392203 339.341095 
L 385.542758 340.257743 
L 385.694015 338.522519 
L 385.844995 331.060928 
L 385.995692 346.93696 
L 386.147944 343.09896 
L 386.298218 346.215955 
L 386.448465 336.568729 
L 386.598719 336.409953 
L 386.748717 333.788374 
L 386.899115 346.998756 
L 387.050464 344.056069 
L 387.200526 338.038561 
L 387.350978 340.240597 
L 387.502946 352.174167 
L 387.653522 337.528841 
L 387.956678 330.42461 
L 388.10791 336.635801 
L 388.258942 336.201674 
L 388.409647 334.757855 
L 388.560407 340.732506 
L 388.711121 332.036844 
L 389.016867 347.674964 
L 389.16822 333.919889 
L 389.471916 332.022035 
L 389.622518 332.036844 
L 390.074578 315.049923 
L 390.225381 335.72178 
L 390.377961 324.515771 
L 390.531409 326.492487 
L 390.834266 332.711766 
L 390.984574 330.142961 
L 391.135174 321.008135 
L 391.285408 333.841207 
L 391.435654 329.651571 
L 391.585654 332.380919 
L 391.736063 337.716859 
L 391.886915 331.519911 
L 392.038461 340.359593 
L 392.188565 339.32263 
L 392.33853 346.33892 
L 392.488379 329.619071 
L 392.790408 336.761596 
L 392.941544 333.436726 
L 393.244708 352.174167 
L 393.394699 320.91832 
L 393.545054 348.037363 
L 393.694835 327.353347 
L 393.845575 334.299531 
L 393.995573 331.949795 
L 394.145389 333.301535 
L 394.295239 331.891343 
L 394.445101 328.698455 
L 394.90752 335.531028 
L 395.058566 331.913132 
L 395.208464 331.920611 
L 395.358342 331.064303 
L 395.508409 336.086598 
L 395.658482 331.06783 
L 396.109981 344.567764 
L 396.409973 334.707664 
L 396.56244 333.945967 
L 396.712392 329.590556 
L 397.012312 342.380507 
L 397.166364 324.729028 
L 397.316308 328.923912 
L 397.46644 337.436762 
L 397.616449 333.301535 
L 397.766409 337.005888 
L 397.916466 335.802805 
L 398.066259 338.767194 
L 398.21648 330.570861 
L 398.36768 339.727889 
L 398.517942 342.091039 
L 398.818102 333.573963 
L 398.968962 334.350748 
L 399.122233 331.091263 
L 399.427042 342.11993 
L 399.727212 330.499571 
L 399.877241 337.007298 
L 400.027663 352.174167 
L 400.334557 332.325682 
L 400.484732 341.66292 
L 400.634722 334.68246 
L 400.784826 345.279495 
L 400.934754 330.999995 
L 401.089479 329.257967 
L 401.240288 331.24164 
L 401.540213 346.944765 
L 401.69145 330.756032 
L 401.841598 335.180601 
L 401.991439 331.460303 
L 402.142412 331.549587 
L 402.293456 331.151672 
L 402.594433 337.528841 
L 402.744377 346.613266 
L 402.894325 336.984 
L 403.044237 340.324482 
L 403.199262 352.174167 
L 403.350365 352.174167 
L 403.50023 324.555682 
L 403.650275 330.111216 
L 403.800167 331.43037 
L 403.953473 330.516899 
L 404.103137 331.060928 
L 404.255839 335.79219 
L 404.406291 351.709162 
L 404.55889 338.107597 
L 404.711924 340.910272 
L 404.862241 331.706665 
L 405.01239 332.72899 
L 405.313332 332.924559 
L 405.464537 342.576941 
L 405.614585 344.830431 
L 405.764553 334.732796 
L 405.914687 340.781542 
L 406.065045 331.519911 
L 406.216625 335.531028 
L 406.366742 332.869085 
L 406.666727 348.578427 
L 406.816845 333.381498 
L 406.96686 330.570861 
L 407.120786 339.108049 
L 407.42388 327.074535 
L 407.574135 335.216179 
L 407.874023 327.28161 
L 408.024301 335.741168 
L 408.174236 325.673168 
L 408.324258 332.40944 
L 408.474248 332.380919 
L 409.079139 352.174167 
L 409.232766 337.695029 
L 409.382881 335.674503 
L 409.532679 338.786596 
L 409.682911 339.32263 
L 409.83368 334.325176 
L 409.983494 344.464354 
L 410.434499 330.539687 
L 410.584294 342.708484 
L 410.884118 318.571677 
L 411.034108 337.005888 
L 411.486802 318.062145 
L 411.636733 339.645721 
L 411.939729 321.858472 
L 412.090484 336.178791 
L 412.240371 329.619071 
L 412.540296 326.857222 
L 412.691022 330.174615 
L 412.843776 330.034391 
L 412.993722 342.061981 
L 413.145201 343.047028 
L 413.295123 342.521626 
L 413.445013 351.24686 
L 413.745256 329.619071 
L 413.898198 331.84172 
L 414.048514 338.404663 
L 414.498475 332.500559 
L 414.653496 312.011454 
L 414.8146 321.814196 
L 414.966154 323.385816 
L 415.11812 352.174167 
L 415.420322 335.28896 
L 415.572753 340.781542 
L 415.722848 332.952177 
L 416.17573 343.945199 
L 416.3269 329.32363 
L 416.477161 328.684218 
L 416.628341 330.140079 
L 416.779833 338.977574 
L 416.93158 334.88208 
L 417.0826 334.782842 
L 417.234231 347.577719 
L 417.384853 340.291887 
L 417.536528 343.971477 
L 417.688338 332.615441 
L 417.838638 335.410244 
L 417.991194 333.997899 
L 418.141809 331.49015 
L 418.293111 332.094461 
L 418.444619 330.694662 
L 418.599351 336.294549 
L 418.749707 351.23595 
L 418.901532 346.198784 
L 419.053677 331.754953 
L 419.205075 328.966366 
L 419.359299 332.237073 
L 419.515098 343.337782 
L 419.665817 331.608683 
L 419.817892 331.330841 
L 419.968568 340.69958 
L 420.12699 329.857749 
L 420.279426 340.815348 
L 420.430207 330.652866 
L 420.580663 332.952177 
L 420.732708 325.364172 
L 420.884256 324.415817 
L 421.035103 327.002513 
L 421.185904 331.608683 
L 421.336768 332.007911 
L 421.486951 340.257743 
L 421.637425 330.142961 
L 421.789403 330.907933 
L 421.939659 327.28161 
L 422.089928 337.162708 
L 422.239974 337.027713 
L 422.39011 337.465533 
L 422.544324 344.536294 
L 422.852089 330.096933 
L 423.003395 336.247244 
L 423.155547 326.480161 
L 423.460045 332.606805 
L 423.615795 336.602657 
L 423.767175 335.741168 
L 423.918932 335.79219 
L 424.070635 333.06186 
L 424.223618 338.657493 
L 424.373773 337.027713 
L 424.523943 330.391606 
L 424.675566 332.752949 
L 424.826125 339.923309 
L 424.977792 340.781542 
L 425.130015 337.633152 
L 425.281176 338.958722 
L 425.584052 335.768787 
L 425.736864 329.696364 
L 426.039581 345.78517 
L 426.349309 334.774521 
L 426.500005 334.832603 
L 426.802852 339.319205 
L 426.95397 337.118426 
L 427.106752 331.4486 
L 427.260228 333.918515 
L 427.412287 348.096125 
L 427.565189 334.527718 
L 427.716654 343.033952 
L 427.869982 344.975442 
L 428.021712 348.512835 
L 428.172481 344.861995 
L 428.323089 328.237442 
L 428.473329 333.814829 
L 428.775431 323.440401 
L 428.927168 323.469382 
L 429.237388 334.477515 
L 429.389193 349.367772 
L 429.692263 337.633152 
L 430.149489 344.098382 
L 430.30109 335.385035 
L 430.452091 340.27484 
L 430.60243 332.466235 
L 430.754023 335.768787 
L 430.905329 343.924335 
L 431.056627 330.269034 
L 431.207204 346.913404 
L 431.358162 335.286276 
L 431.509629 333.945967 
L 431.661079 328.511311 
L 431.813302 330.300327 
L 432.121043 327.2528 
L 432.272511 337.135902 
L 432.57728 333.355845 
L 432.730701 335.79219 
L 432.881683 330.300327 
L 433.03338 329.108483 
L 433.184746 332.606805 
L 433.486516 342.609144 
L 433.638019 308.426487 
L 433.790189 329.908239 
L 433.941348 327.146146 
L 434.093209 328.021802 
L 434.245426 327.705915 
L 434.402736 321.374794 
L 434.554743 344.49302 
L 434.707004 334.502652 
L 434.859575 333.919889 
L 435.011266 338.067464 
L 435.163194 332.634679 
L 435.314624 331.211737 
L 435.466086 326.198982 
L 435.617241 327.110392 
L 435.768757 325.249107 
L 435.920083 331.667442 
L 436.071255 332.094461 
L 436.223601 331.301192 
L 436.375041 341.268406 
L 436.526779 333.945967 
L 436.678572 352.174167 
L 436.830028 334.401672 
L 436.981227 332.979715 
L 437.132281 328.598478 
L 437.283326 327.60054 
L 437.586524 336.658031 
L 437.740289 335.527115 
L 437.891799 336.635801 
L 438.193818 347.161412 
L 438.494901 335.167309 
L 438.64765 335.861999 
L 438.79922 334.505365 
L 439.102916 337.612409 
L 439.253615 349.32601 
L 439.557617 325.818578 
L 439.708581 335.264769 
L 439.860726 335.385035 
L 440.012088 338.844467 
L 440.315926 332.208713 
L 440.769887 343.983178 
L 440.920862 342.590671 
L 441.22325 347.584332 
L 441.676719 288.375467 
L 441.827492 332.036844 
L 441.979416 325.780981 
L 442.13082 335.313082 
L 442.286822 324.223415 
L 442.438512 332.237073 
L 442.588939 326.508023 
L 442.740903 330.331531 
L 442.891615 298.169528 
L 443.042253 326.508023 
L 443.19398 317.134938 
L 443.34716 352.174167 
L 443.500325 352.174167 
L 443.801062 296.557145 
L 444.104099 346.409224 
L 444.255295 334.857377 
L 444.4069 343.983178 
L 444.557768 335.186347 
L 444.71041 310.153777 
L 444.860811 318.209391 
L 445.164443 345.39737 
L 445.315687 333.945967 
L 445.466975 335.768787 
L 445.618369 330.725391 
L 445.769733 335.969853 
L 445.920781 328.66453 
L 446.074182 332.267419 
L 446.22481 331.472524 
L 446.528305 341.707904 
L 446.67975 337.570745 
L 446.831433 338.067464 
L 446.982144 333.214672 
L 447.137208 334.376246 
L 447.293845 341.481647 
L 447.446276 326.907355 
L 447.596895 335.864725 
L 447.747197 330.632939 
L 447.898361 347.006378 
L 448.050015 339.32263 
L 448.204172 338.714525 
L 448.35694 336.33761 
L 448.508682 336.702299 
L 448.660328 350.308708 
L 448.811731 331.211737 
L 448.964086 344.322019 
L 449.117149 332.772865 
L 449.268368 331.920611 
L 449.419427 329.492329 
L 449.571093 349.006855 
L 449.722604 349.898892 
L 449.875275 328.645568 
L 450.02852 335.480023 
L 450.180075 347.824255 
L 450.634325 337.507799 
L 450.78613 350.353947 
L 450.937553 335.008597 
L 451.090731 338.619202 
L 451.242942 337.653837 
L 451.395363 335.45835 
L 451.547424 337.200076 
L 451.698854 352.174167 
L 451.850592 327.636205 
L 452.001928 327.31753 
L 452.306376 352.174167 
L 452.762457 322.097637 
L 452.918097 324.013401 
L 453.069149 321.860457 
L 453.219981 333.893737 
L 453.373631 333.250824 
L 453.524862 329.812677 
L 453.679976 331.579178 
L 453.83177 329.951107 
L 454.133841 338.444174 
L 454.435646 327.917846 
L 454.587531 331.271459 
L 454.889784 327.495587 
L 455.041312 329.388917 
L 455.191582 325.591375 
L 455.342622 329.290845 
L 455.492892 336.109746 
L 455.643098 311.265778 
L 455.793983 316.476185 
L 455.94455 346.54487 
L 456.095355 342.479719 
L 456.400119 321.186227 
L 456.551315 323.880037 
L 456.702458 338.463844 
L 456.853577 341.677957 
L 457.004654 339.941378 
L 457.155736 336.635801 
L 457.30805 336.269932 
L 457.459783 340.376399 
L 457.61077 338.304884 
L 457.764836 352.174167 
L 457.918726 325.254884 
L 458.070844 350.754314 
L 458.373173 333.436726 
L 458.527945 330.725391 
L 458.67849 337.071175 
L 458.83012 337.135902 
L 458.980945 334.782842 
L 459.131246 334.782842 
L 459.431926 333.788374 
L 459.582666 331.121511 
L 459.735656 333.661151 
L 459.888385 331.49015 
L 460.039171 342.115813 
L 460.189254 342.98127 
L 460.34022 333.86751 
L 460.491786 341.962485 
L 460.644978 329.971494 
L 460.946158 332.757171 
L 461.096685 333.108958 
L 461.247671 298.55026 
L 461.398597 340.072744 
L 461.70425 331.389888 
L 461.856275 338.107597 
L 462.009945 338.747735 
L 462.16539 334.328377 
L 462.316184 337.05368 
L 462.46689 348.359596 
L 462.767505 332.615441 
L 462.917843 331.370243 
L 463.06863 326.161821 
L 463.219087 329.257967 
L 463.370443 323.650158 
L 463.672043 351.682651 
L 463.973241 340.054353 
L 464.124094 341.174391 
L 464.274706 352.174167 
L 464.425407 338.941844 
L 464.576504 340.27484 
L 464.728925 352.174167 
L 464.881177 339.957394 
L 465.032909 347.168563 
L 465.183196 335.698175 
L 465.333997 333.932603 
L 465.484713 336.613508 
L 465.635339 341.707192 
L 465.78605 352.174167 
L 465.936469 347.584332 
L 466.089124 324.987221 
L 466.242942 327.274821 
L 466.544883 336.178791 
L 466.69535 332.294862 
L 466.846112 342.563172 
L 466.996814 338.669332 
L 467.150132 312.86477 
L 467.303288 351.273055 
L 467.457091 340.060489 
L 467.608357 339.414427 
L 467.909459 331.151672 
L 468.060053 322.383107 
L 468.210399 320.504309 
L 468.511868 331.121511 
L 468.812416 332.437878 
L 468.963004 332.466235 
L 469.113596 327.002513 
L 469.264111 326.01211 
L 469.414747 343.466011 
L 470.022611 311.846864 
L 470.174355 312.584389 
L 470.326618 339.015118 
L 470.477831 345.78517 
L 470.62861 321.968183 
L 470.780678 339.468878 
L 470.931349 320.640425 
L 471.081877 329.224994 
L 471.232656 324.256515 
L 471.383175 337.966123 
L 471.533804 338.609927 
L 471.684261 321.422275 
L 471.835061 320.595183 
L 471.985897 327.46018 
L 472.136715 327.002513 
L 472.287479 327.917846 
L 472.437952 331.121511 
L 472.588502 326.049699 
L 472.738914 331.248937 
L 472.88965 331.318722 
L 473.040329 330.206178 
L 473.191346 333.761844 
L 473.342607 331.232609 
L 473.644174 338.882771 
L 473.794699 352.174167 
L 473.945616 337.549823 
L 474.099029 339.058428 
L 474.252226 344.503885 
L 474.405195 335.480023 
L 474.707755 343.840519 
L 474.858221 341.174391 
L 475.008509 328.341319 
L 475.15889 328.081002 
L 475.30973 334.757855 
L 475.4617 332.208713 
L 475.61235 334.529694 
L 475.91272 347.110778 
L 476.214239 331.549587 
L 476.364585 330.174615 
L 476.515649 331.579178 
L 476.66733 338.24432 
L 476.818095 333.355845 
L 477.120244 340.257743 
L 477.271296 340.325837 
L 477.422337 350.189759 
L 477.572925 337.94568 
L 477.724135 339.834877 
L 477.876334 339.468878 
L 478.02704 346.697883 
L 478.177461 335.102649 
L 478.32925 338.958722 
L 478.481807 351.223366 
L 478.632263 342.105505 
L 478.78247 343.912465 
L 478.933306 339.781613 
L 479.083466 352.174167 
L 479.233569 352.174167 
L 479.383683 317.700806 
L 479.533941 345.269545 
L 479.683997 331.978895 
L 479.984648 326.401826 
L 480.134979 332.924559 
L 480.287543 332.293552 
L 480.437897 329.886411 
L 480.588017 330.142961 
L 480.738119 352.174167 
L 480.889015 352.174167 
L 481.039351 313.619557 
L 481.341278 334.580911 
L 481.493476 329.619071 
L 481.644647 329.18787 
L 481.951522 340.599657 
L 482.252444 336.132827 
L 482.402711 340.683046 
L 482.552908 337.027713 
L 482.703243 319.67985 
L 482.853394 337.925178 
L 483.005802 319.957185 
L 483.457508 345.303537 
L 483.607744 331.030505 
L 483.757833 334.558108 
L 483.907996 315.402582 
L 484.059065 346.146673 
L 484.360782 311.324639 
L 484.511599 326.124554 
L 484.665796 317.22825 
L 484.816352 326.544847 
L 484.966894 322.841431 
L 485.117067 333.814829 
L 485.26746 332.81329 
L 485.417944 324.658646 
L 485.568977 332.036844 
L 485.870238 333.841207 
L 486.021152 335.264769 
L 486.171962 343.936171 
L 486.322153 341.158564 
L 486.622402 348.956653 
L 486.773171 340.27484 
L 487.074697 346.241526 
L 487.392271 336.837941 
L 487.543239 349.865965 
L 487.69468 339.545392 
L 487.846122 337.114388 
L 487.998285 341.722813 
L 488.14998 331.754953 
L 488.302084 330.58814 
L 488.453003 351.702283 
L 488.604716 339.450779 
L 488.75609 339.377866 
L 488.907284 333.436726 
L 489.057921 347.970738 
L 489.209165 321.097436 
L 489.511165 338.006834 
L 489.662348 336.658031 
L 489.813401 337.114388 
L 489.96442 336.635801 
L 490.274351 323.819189 
L 490.426111 299.46299 
L 490.577217 324.296511 
L 490.728658 324.415817 
L 490.880301 322.140542 
L 491.183051 334.857377 
L 491.337609 334.527718 
L 491.487898 328.341319 
L 491.789705 345.328813 
L 492.091934 326.618178 
L 492.243087 336.421401 
L 492.394054 332.387883 
L 492.545075 332.266697 
L 492.846662 327.777838 
L 492.997412 330.876381 
L 493.152101 330.079379 
L 493.303925 327.74462 
L 493.45438 338.404663 
L 493.607039 339.940041 
L 493.757728 329.058696 
L 493.908643 339.834877 
L 494.060847 328.821788 
L 494.210767 329.086011 
L 494.361011 341.746445 
L 494.511611 340.69958 
L 494.664082 334.864442 
L 494.815025 347.161412 
L 495.11703 333.409843 
L 495.268189 340.27484 
L 495.571009 335.69122 
L 495.571009 335.69122 
" style="fill:none;stroke:#1f77b4;stroke-linecap:square;stroke-width:1.5;"/>
   </g>
   <g id="patch_3">
    <path d="M 66.158594 352.174167 
L 66.158594 35.0625 
" style="fill:none;stroke:#000000;stroke-linecap:square;stroke-linejoin:miter;stroke-width:0.8;"/>
   </g>
   <g id="patch_4">
    <path d="M 516.019219 352.174167 
L 516.019219 35.0625 
" style="fill:none;stroke:#000000;stroke-linecap:square;stroke-linejoin:miter;stroke-width:0.8;"/>
   </g>
   <g id="patch_5">
    <path d="M 66.158594 352.174167 
L 516.019219 352.174167 
" style="fill:none;stroke:#000000;stroke-linecap:square;stroke-linejoin:miter;stroke-width:0.8;"/>
   </g>
   <g id="patch_6">
    <path d="M 66.158594 35.0625 
L 516.019219 35.0625 
" style="fill:none;stroke:#000000;stroke-linecap:square;stroke-linejoin:miter;stroke-width:0.8;"/>
   </g>
   <g id="legend_1">
    <g id="patch_7">
     <path d="M 540.51225 53.01875 
L 620.748187 53.01875 
Q 622.748187 53.01875 622.748187 51.01875 
L 622.748187 37.0625 
Q 622.748187 35.0625 620.748187 35.0625 
L 540.51225 35.0625 
Q 538.51225 35.0625 538.51225 37.0625 
L 538.51225 51.01875 
Q 538.51225 53.01875 540.51225 53.01875 
z
" style="fill:#ffffff;opacity:0.8;stroke:#cccccc;stroke-linejoin:miter;"/>
    </g>
    <g id="line2d_13">
     <path d="M 542.51225 43.160937 
L 562.51225 43.160937 
" style="fill:none;stroke:#1f77b4;stroke-linecap:square;stroke-width:1.5;"/>
    </g>
    <g id="line2d_14"/>
    <g id="text_13">
     <!-- drop_rate -->
     <defs>
      <path d="M 50.984375 -16.609375 
L 50.984375 -23.578125 
L -0.984375 -23.578125 
L -0.984375 -16.609375 
z
" id="DejaVuSans-95"/>
     </defs>
     <g transform="translate(570.51225 46.660937)scale(0.1 -0.1)">
      <use xlink:href="#DejaVuSans-100"/>
      <use x="63.476562" xlink:href="#DejaVuSans-114"/>
      <use x="104.558594" xlink:href="#DejaVuSans-111"/>
      <use x="165.740234" xlink:href="#DejaVuSans-112"/>
      <use x="229.216797" xlink:href="#DejaVuSans-95"/>
      <use x="279.216797" xlink:href="#DejaVuSans-114"/>
      <use x="320.330078" xlink:href="#DejaVuSans-97"/>
      <use x="381.609375" xlink:href="#DejaVuSans-116"/>
      <use x="420.818359" xlink:href="#DejaVuSans-101"/>
     </g>
    </g>
   </g>
  </g>
  <g id="text_14">
   <!-- result droprate -->
   <defs>
    <path d="M 44.28125 53.078125 
L 44.28125 44.578125 
Q 40.484375 46.53125 36.375 47.5 
Q 32.28125 48.484375 27.875 48.484375 
Q 21.1875 48.484375 17.84375 46.4375 
Q 14.5 44.390625 14.5 40.28125 
Q 14.5 37.15625 16.890625 35.375 
Q 19.28125 33.59375 26.515625 31.984375 
L 29.59375 31.296875 
Q 39.15625 29.25 43.1875 25.515625 
Q 47.21875 21.78125 47.21875 15.09375 
Q 47.21875 7.46875 41.1875 3.015625 
Q 35.15625 -1.421875 24.609375 -1.421875 
Q 20.21875 -1.421875 15.453125 -0.5625 
Q 10.6875 0.296875 5.421875 2 
L 5.421875 11.28125 
Q 10.40625 8.6875 15.234375 7.390625 
Q 20.0625 6.109375 24.8125 6.109375 
Q 31.15625 6.109375 34.5625 8.28125 
Q 37.984375 10.453125 37.984375 14.40625 
Q 37.984375 18.0625 35.515625 20.015625 
Q 33.0625 21.96875 24.703125 23.78125 
L 21.578125 24.515625 
Q 13.234375 26.265625 9.515625 29.90625 
Q 5.8125 33.546875 5.8125 39.890625 
Q 5.8125 47.609375 11.28125 51.796875 
Q 16.75 56 26.8125 56 
Q 31.78125 56 36.171875 55.265625 
Q 40.578125 54.546875 44.28125 53.078125 
z
" id="DejaVuSans-115"/>
    <path d="M 8.5 21.578125 
L 8.5 54.6875 
L 17.484375 54.6875 
L 17.484375 21.921875 
Q 17.484375 14.15625 20.5 10.265625 
Q 23.53125 6.390625 29.59375 6.390625 
Q 36.859375 6.390625 41.078125 11.03125 
Q 45.3125 15.671875 45.3125 23.6875 
L 45.3125 54.6875 
L 54.296875 54.6875 
L 54.296875 0 
L 45.3125 0 
L 45.3125 8.40625 
Q 42.046875 3.421875 37.71875 1 
Q 33.40625 -1.421875 27.6875 -1.421875 
Q 18.265625 -1.421875 13.375 4.4375 
Q 8.5 10.296875 8.5 21.578125 
z
M 31.109375 56 
z
" id="DejaVuSans-117"/>
    <path d="M 9.421875 75.984375 
L 18.40625 75.984375 
L 18.40625 0 
L 9.421875 0 
z
" id="DejaVuSans-108"/>
    <path id="DejaVuSans-32"/>
   </defs>
   <g transform="translate(297.047813 17.038125)scale(0.12 -0.12)">
    <use xlink:href="#DejaVuSans-114"/>
    <use x="41.082031" xlink:href="#DejaVuSans-101"/>
    <use x="102.605469" xlink:href="#DejaVuSans-115"/>
    <use x="154.705078" xlink:href="#DejaVuSans-117"/>
    <use x="218.083984" xlink:href="#DejaVuSans-108"/>
    <use x="245.867188" xlink:href="#DejaVuSans-116"/>
    <use x="285.076172" xlink:href="#DejaVuSans-32"/>
    <use x="316.863281" xlink:href="#DejaVuSans-100"/>
    <use x="380.339844" xlink:href="#DejaVuSans-114"/>
    <use x="421.421875" xlink:href="#DejaVuSans-111"/>
    <use x="482.603516" xlink:href="#DejaVuSans-112"/>
    <use x="546.080078" xlink:href="#DejaVuSans-114"/>
    <use x="587.193359" xlink:href="#DejaVuSans-97"/>
    <use x="648.472656" xlink:href="#DejaVuSans-116"/>
    <use x="687.681641" xlink:href="#DejaVuSans-101"/>
   </g>
  </g>
 </g>
 <defs>
  <clipPath id="p00b3140fa8">
   <rect height="317.111667" width="449.860625" x="66.158594" y="35.0625"/>
  </clipPath>
 </defs>
</svg>
