<?xml version="1.0" encoding="utf-8" standalone="no"?>
<!DOCTYPE svg PUBLIC "-//W3C//DTD SVG 1.1//EN"
  "http://www.w3.org/Graphics/SVG/1.1/DTD/svg11.dtd">
<!-- Created with matplotlib (https://matplotlib.org/) -->
<svg height="396pt" version="1.1" viewBox="0 0 684 396" width="684pt" xmlns="http://www.w3.org/2000/svg" xmlns:xlink="http://www.w3.org/1999/xlink">
 <defs>
  <style type="text/css">
*{stroke-linecap:butt;stroke-linejoin:round;}
  </style>
 </defs>
 <g id="figure_1">
  <g id="patch_1">
   <path d="M 0 396 
L 684 396 
L 684 0 
L 0 0 
z
" style="fill:#ffffff;"/>
  </g>
  <g id="axes_1">
   <g id="patch_2">
    <path d="M 92.823906 352.174167 
L 544.073906 352.174167 
L 544.073906 35.0625 
L 92.823906 35.0625 
z
" style="fill:#ffffff;"/>
   </g>
   <g id="matplotlib.axis_1">
    <g id="xtick_1">
     <g id="line2d_1">
      <defs>
       <path d="M 0 0 
L 0 3.5 
" id="ma25c74afdc" style="stroke:#000000;stroke-width:0.8;"/>
      </defs>
      <g>
       <use style="stroke:#000000;stroke-width:0.8;" x="113.327824" xlink:href="#ma25c74afdc" y="352.174167"/>
      </g>
     </g>
     <g id="text_1">
      <!-- 0 -->
      <defs>
       <path d="M 31.78125 66.40625 
Q 24.171875 66.40625 20.328125 58.90625 
Q 16.5 51.421875 16.5 36.375 
Q 16.5 21.390625 20.328125 13.890625 
Q 24.171875 6.390625 31.78125 6.390625 
Q 39.453125 6.390625 43.28125 13.890625 
Q 47.125 21.390625 47.125 36.375 
Q 47.125 51.421875 43.28125 58.90625 
Q 39.453125 66.40625 31.78125 66.40625 
z
M 31.78125 74.21875 
Q 44.046875 74.21875 50.515625 64.515625 
Q 56.984375 54.828125 56.984375 36.375 
Q 56.984375 17.96875 50.515625 8.265625 
Q 44.046875 -1.421875 31.78125 -1.421875 
Q 19.53125 -1.421875 13.0625 8.265625 
Q 6.59375 17.96875 6.59375 36.375 
Q 6.59375 54.828125 13.0625 64.515625 
Q 19.53125 74.21875 31.78125 74.21875 
z
" id="DejaVuSans-48"/>
      </defs>
      <g transform="translate(110.146574 366.772604)scale(0.1 -0.1)">
       <use xlink:href="#DejaVuSans-48"/>
      </g>
     </g>
    </g>
    <g id="xtick_2">
     <g id="line2d_2">
      <g>
       <use style="stroke:#000000;stroke-width:0.8;" x="187.785181" xlink:href="#ma25c74afdc" y="352.174167"/>
      </g>
     </g>
     <g id="text_2">
      <!-- 50 -->
      <defs>
       <path d="M 10.796875 72.90625 
L 49.515625 72.90625 
L 49.515625 64.59375 
L 19.828125 64.59375 
L 19.828125 46.734375 
Q 21.96875 47.46875 24.109375 47.828125 
Q 26.265625 48.1875 28.421875 48.1875 
Q 40.625 48.1875 47.75 41.5 
Q 54.890625 34.8125 54.890625 23.390625 
Q 54.890625 11.625 47.5625 5.09375 
Q 40.234375 -1.421875 26.90625 -1.421875 
Q 22.3125 -1.421875 17.546875 -0.640625 
Q 12.796875 0.140625 7.71875 1.703125 
L 7.71875 11.625 
Q 12.109375 9.234375 16.796875 8.0625 
Q 21.484375 6.890625 26.703125 6.890625 
Q 35.15625 6.890625 40.078125 11.328125 
Q 45.015625 15.765625 45.015625 23.390625 
Q 45.015625 31 40.078125 35.4375 
Q 35.15625 39.890625 26.703125 39.890625 
Q 22.75 39.890625 18.8125 39.015625 
Q 14.890625 38.140625 10.796875 36.28125 
z
" id="DejaVuSans-53"/>
      </defs>
      <g transform="translate(181.422681 366.772604)scale(0.1 -0.1)">
       <use xlink:href="#DejaVuSans-53"/>
       <use x="63.623047" xlink:href="#DejaVuSans-48"/>
      </g>
     </g>
    </g>
    <g id="xtick_3">
     <g id="line2d_3">
      <g>
       <use style="stroke:#000000;stroke-width:0.8;" x="262.242537" xlink:href="#ma25c74afdc" y="352.174167"/>
      </g>
     </g>
     <g id="text_3">
      <!-- 100 -->
      <defs>
       <path d="M 12.40625 8.296875 
L 28.515625 8.296875 
L 28.515625 63.921875 
L 10.984375 60.40625 
L 10.984375 69.390625 
L 28.421875 72.90625 
L 38.28125 72.90625 
L 38.28125 8.296875 
L 54.390625 8.296875 
L 54.390625 0 
L 12.40625 0 
z
" id="DejaVuSans-49"/>
      </defs>
      <g transform="translate(252.698787 366.772604)scale(0.1 -0.1)">
       <use xlink:href="#DejaVuSans-49"/>
       <use x="63.623047" xlink:href="#DejaVuSans-48"/>
       <use x="127.246094" xlink:href="#DejaVuSans-48"/>
      </g>
     </g>
    </g>
    <g id="xtick_4">
     <g id="line2d_4">
      <g>
       <use style="stroke:#000000;stroke-width:0.8;" x="336.699893" xlink:href="#ma25c74afdc" y="352.174167"/>
      </g>
     </g>
     <g id="text_4">
      <!-- 150 -->
      <g transform="translate(327.156143 366.772604)scale(0.1 -0.1)">
       <use xlink:href="#DejaVuSans-49"/>
       <use x="63.623047" xlink:href="#DejaVuSans-53"/>
       <use x="127.246094" xlink:href="#DejaVuSans-48"/>
      </g>
     </g>
    </g>
    <g id="xtick_5">
     <g id="line2d_5">
      <g>
       <use style="stroke:#000000;stroke-width:0.8;" x="411.15725" xlink:href="#ma25c74afdc" y="352.174167"/>
      </g>
     </g>
     <g id="text_5">
      <!-- 200 -->
      <defs>
       <path d="M 19.1875 8.296875 
L 53.609375 8.296875 
L 53.609375 0 
L 7.328125 0 
L 7.328125 8.296875 
Q 12.9375 14.109375 22.625 23.890625 
Q 32.328125 33.6875 34.8125 36.53125 
Q 39.546875 41.84375 41.421875 45.53125 
Q 43.3125 49.21875 43.3125 52.78125 
Q 43.3125 58.59375 39.234375 62.25 
Q 35.15625 65.921875 28.609375 65.921875 
Q 23.96875 65.921875 18.8125 64.3125 
Q 13.671875 62.703125 7.8125 59.421875 
L 7.8125 69.390625 
Q 13.765625 71.78125 18.9375 73 
Q 24.125 74.21875 28.421875 74.21875 
Q 39.75 74.21875 46.484375 68.546875 
Q 53.21875 62.890625 53.21875 53.421875 
Q 53.21875 48.921875 51.53125 44.890625 
Q 49.859375 40.875 45.40625 35.40625 
Q 44.1875 33.984375 37.640625 27.21875 
Q 31.109375 20.453125 19.1875 8.296875 
z
" id="DejaVuSans-50"/>
      </defs>
      <g transform="translate(401.6135 366.772604)scale(0.1 -0.1)">
       <use xlink:href="#DejaVuSans-50"/>
       <use x="63.623047" xlink:href="#DejaVuSans-48"/>
       <use x="127.246094" xlink:href="#DejaVuSans-48"/>
      </g>
     </g>
    </g>
    <g id="xtick_6">
     <g id="line2d_6">
      <g>
       <use style="stroke:#000000;stroke-width:0.8;" x="485.614606" xlink:href="#ma25c74afdc" y="352.174167"/>
      </g>
     </g>
     <g id="text_6">
      <!-- 250 -->
      <g transform="translate(476.070856 366.772604)scale(0.1 -0.1)">
       <use xlink:href="#DejaVuSans-50"/>
       <use x="63.623047" xlink:href="#DejaVuSans-53"/>
       <use x="127.246094" xlink:href="#DejaVuSans-48"/>
      </g>
     </g>
    </g>
   </g>
   <g id="matplotlib.axis_2">
    <g id="ytick_1">
     <g id="line2d_7">
      <defs>
       <path d="M 0 0 
L -3.5 0 
" id="m63ee1d40f2" style="stroke:#000000;stroke-width:0.8;"/>
      </defs>
      <g>
       <use style="stroke:#000000;stroke-width:0.8;" x="92.823906" xlink:href="#m63ee1d40f2" y="352.174167"/>
      </g>
     </g>
     <g id="text_7">
      <!-- 0 -->
      <g transform="translate(79.461406 355.973385)scale(0.1 -0.1)">
       <use xlink:href="#DejaVuSans-48"/>
      </g>
     </g>
    </g>
    <g id="ytick_2">
     <g id="line2d_8">
      <g>
       <use style="stroke:#000000;stroke-width:0.8;" x="92.823906" xlink:href="#m63ee1d40f2" y="305.622248"/>
      </g>
     </g>
     <g id="text_8">
      <!-- 50 -->
      <g transform="translate(73.098906 309.421467)scale(0.1 -0.1)">
       <use xlink:href="#DejaVuSans-53"/>
       <use x="63.623047" xlink:href="#DejaVuSans-48"/>
      </g>
     </g>
    </g>
    <g id="ytick_3">
     <g id="line2d_9">
      <g>
       <use style="stroke:#000000;stroke-width:0.8;" x="92.823906" xlink:href="#m63ee1d40f2" y="259.07033"/>
      </g>
     </g>
     <g id="text_9">
      <!-- 100 -->
      <g transform="translate(66.736406 262.869549)scale(0.1 -0.1)">
       <use xlink:href="#DejaVuSans-49"/>
       <use x="63.623047" xlink:href="#DejaVuSans-48"/>
       <use x="127.246094" xlink:href="#DejaVuSans-48"/>
      </g>
     </g>
    </g>
    <g id="ytick_4">
     <g id="line2d_10">
      <g>
       <use style="stroke:#000000;stroke-width:0.8;" x="92.823906" xlink:href="#m63ee1d40f2" y="212.518412"/>
      </g>
     </g>
     <g id="text_10">
      <!-- 150 -->
      <g transform="translate(66.736406 216.317631)scale(0.1 -0.1)">
       <use xlink:href="#DejaVuSans-49"/>
       <use x="63.623047" xlink:href="#DejaVuSans-53"/>
       <use x="127.246094" xlink:href="#DejaVuSans-48"/>
      </g>
     </g>
    </g>
    <g id="ytick_5">
     <g id="line2d_11">
      <g>
       <use style="stroke:#000000;stroke-width:0.8;" x="92.823906" xlink:href="#m63ee1d40f2" y="165.966494"/>
      </g>
     </g>
     <g id="text_11">
      <!-- 200 -->
      <g transform="translate(66.736406 169.765713)scale(0.1 -0.1)">
       <use xlink:href="#DejaVuSans-50"/>
       <use x="63.623047" xlink:href="#DejaVuSans-48"/>
       <use x="127.246094" xlink:href="#DejaVuSans-48"/>
      </g>
     </g>
    </g>
    <g id="ytick_6">
     <g id="line2d_12">
      <g>
       <use style="stroke:#000000;stroke-width:0.8;" x="92.823906" xlink:href="#m63ee1d40f2" y="119.414576"/>
      </g>
     </g>
     <g id="text_12">
      <!-- 250 -->
      <g transform="translate(66.736406 123.213794)scale(0.1 -0.1)">
       <use xlink:href="#DejaVuSans-50"/>
       <use x="63.623047" xlink:href="#DejaVuSans-53"/>
       <use x="127.246094" xlink:href="#DejaVuSans-48"/>
      </g>
     </g>
    </g>
    <g id="ytick_7">
     <g id="line2d_13">
      <g>
       <use style="stroke:#000000;stroke-width:0.8;" x="92.823906" xlink:href="#m63ee1d40f2" y="72.862658"/>
      </g>
     </g>
     <g id="text_13">
      <!-- 300 -->
      <defs>
       <path d="M 40.578125 39.3125 
Q 47.65625 37.796875 51.625 33 
Q 55.609375 28.21875 55.609375 21.1875 
Q 55.609375 10.40625 48.1875 4.484375 
Q 40.765625 -1.421875 27.09375 -1.421875 
Q 22.515625 -1.421875 17.65625 -0.515625 
Q 12.796875 0.390625 7.625 2.203125 
L 7.625 11.71875 
Q 11.71875 9.328125 16.59375 8.109375 
Q 21.484375 6.890625 26.8125 6.890625 
Q 36.078125 6.890625 40.9375 10.546875 
Q 45.796875 14.203125 45.796875 21.1875 
Q 45.796875 27.640625 41.28125 31.265625 
Q 36.765625 34.90625 28.71875 34.90625 
L 20.21875 34.90625 
L 20.21875 43.015625 
L 29.109375 43.015625 
Q 36.375 43.015625 40.234375 45.921875 
Q 44.09375 48.828125 44.09375 54.296875 
Q 44.09375 59.90625 40.109375 62.90625 
Q 36.140625 65.921875 28.71875 65.921875 
Q 24.65625 65.921875 20.015625 65.03125 
Q 15.375 64.15625 9.8125 62.3125 
L 9.8125 71.09375 
Q 15.4375 72.65625 20.34375 73.4375 
Q 25.25 74.21875 29.59375 74.21875 
Q 40.828125 74.21875 47.359375 69.109375 
Q 53.90625 64.015625 53.90625 55.328125 
Q 53.90625 49.265625 50.4375 45.09375 
Q 46.96875 40.921875 40.578125 39.3125 
z
" id="DejaVuSans-51"/>
      </defs>
      <g transform="translate(66.736406 76.661876)scale(0.1 -0.1)">
       <use xlink:href="#DejaVuSans-51"/>
       <use x="63.623047" xlink:href="#DejaVuSans-48"/>
       <use x="127.246094" xlink:href="#DejaVuSans-48"/>
      </g>
     </g>
    </g>
    <g id="text_14">
     <!-- rtt -->
     <defs>
      <path d="M 41.109375 46.296875 
Q 39.59375 47.171875 37.8125 47.578125 
Q 36.03125 48 33.890625 48 
Q 26.265625 48 22.1875 43.046875 
Q 18.109375 38.09375 18.109375 28.8125 
L 18.109375 0 
L 9.078125 0 
L 9.078125 54.6875 
L 18.109375 54.6875 
L 18.109375 46.1875 
Q 20.953125 51.171875 25.484375 53.578125 
Q 30.03125 56 36.53125 56 
Q 37.453125 56 38.578125 55.875 
Q 39.703125 55.765625 41.0625 55.515625 
z
" id="DejaVuSans-114"/>
      <path d="M 18.3125 70.21875 
L 18.3125 54.6875 
L 36.8125 54.6875 
L 36.8125 47.703125 
L 18.3125 47.703125 
L 18.3125 18.015625 
Q 18.3125 11.328125 20.140625 9.421875 
Q 21.96875 7.515625 27.59375 7.515625 
L 36.8125 7.515625 
L 36.8125 0 
L 27.59375 0 
Q 17.1875 0 13.234375 3.875 
Q 9.28125 7.765625 9.28125 18.015625 
L 9.28125 47.703125 
L 2.6875 47.703125 
L 2.6875 54.6875 
L 9.28125 54.6875 
L 9.28125 70.21875 
z
" id="DejaVuSans-116"/>
     </defs>
     <g transform="translate(49.458906 199.594115)rotate(-90)scale(0.1 -0.1)">
      <use xlink:href="#DejaVuSans-114"/>
      <use x="41.113281" xlink:href="#DejaVuSans-116"/>
      <use x="80.322266" xlink:href="#DejaVuSans-116"/>
     </g>
     <!-- (ms) -->
     <defs>
      <path d="M 31 75.875 
Q 24.46875 64.65625 21.28125 53.65625 
Q 18.109375 42.671875 18.109375 31.390625 
Q 18.109375 20.125 21.3125 9.0625 
Q 24.515625 -2 31 -13.1875 
L 23.1875 -13.1875 
Q 15.875 -1.703125 12.234375 9.375 
Q 8.59375 20.453125 8.59375 31.390625 
Q 8.59375 42.28125 12.203125 53.3125 
Q 15.828125 64.359375 23.1875 75.875 
z
" id="DejaVuSans-40"/>
      <path d="M 52 44.1875 
Q 55.375 50.25 60.0625 53.125 
Q 64.75 56 71.09375 56 
Q 79.640625 56 84.28125 50.015625 
Q 88.921875 44.046875 88.921875 33.015625 
L 88.921875 0 
L 79.890625 0 
L 79.890625 32.71875 
Q 79.890625 40.578125 77.09375 44.375 
Q 74.3125 48.1875 68.609375 48.1875 
Q 61.625 48.1875 57.5625 43.546875 
Q 53.515625 38.921875 53.515625 30.90625 
L 53.515625 0 
L 44.484375 0 
L 44.484375 32.71875 
Q 44.484375 40.625 41.703125 44.40625 
Q 38.921875 48.1875 33.109375 48.1875 
Q 26.21875 48.1875 22.15625 43.53125 
Q 18.109375 38.875 18.109375 30.90625 
L 18.109375 0 
L 9.078125 0 
L 9.078125 54.6875 
L 18.109375 54.6875 
L 18.109375 46.1875 
Q 21.1875 51.21875 25.484375 53.609375 
Q 29.78125 56 35.6875 56 
Q 41.65625 56 45.828125 52.96875 
Q 50 49.953125 52 44.1875 
z
" id="DejaVuSans-109"/>
      <path d="M 44.28125 53.078125 
L 44.28125 44.578125 
Q 40.484375 46.53125 36.375 47.5 
Q 32.28125 48.484375 27.875 48.484375 
Q 21.1875 48.484375 17.84375 46.4375 
Q 14.5 44.390625 14.5 40.28125 
Q 14.5 37.15625 16.890625 35.375 
Q 19.28125 33.59375 26.515625 31.984375 
L 29.59375 31.296875 
Q 39.15625 29.25 43.1875 25.515625 
Q 47.21875 21.78125 47.21875 15.09375 
Q 47.21875 7.46875 41.1875 3.015625 
Q 35.15625 -1.421875 24.609375 -1.421875 
Q 20.21875 -1.421875 15.453125 -0.5625 
Q 10.6875 0.296875 5.421875 2 
L 5.421875 11.28125 
Q 10.40625 8.6875 15.234375 7.390625 
Q 20.0625 6.109375 24.8125 6.109375 
Q 31.15625 6.109375 34.5625 8.28125 
Q 37.984375 10.453125 37.984375 14.40625 
Q 37.984375 18.0625 35.515625 20.015625 
Q 33.0625 21.96875 24.703125 23.78125 
L 21.578125 24.515625 
Q 13.234375 26.265625 9.515625 29.90625 
Q 5.8125 33.546875 5.8125 39.890625 
Q 5.8125 47.609375 11.28125 51.796875 
Q 16.75 56 26.8125 56 
Q 31.78125 56 36.171875 55.265625 
Q 40.578125 54.546875 44.28125 53.078125 
z
" id="DejaVuSans-115"/>
      <path d="M 8.015625 75.875 
L 15.828125 75.875 
Q 23.140625 64.359375 26.78125 53.3125 
Q 30.421875 42.28125 30.421875 31.390625 
Q 30.421875 20.453125 26.78125 9.375 
Q 23.140625 -1.703125 15.828125 -13.1875 
L 8.015625 -13.1875 
Q 14.5 -2 17.703125 9.0625 
Q 20.90625 20.125 20.90625 31.390625 
Q 20.90625 42.671875 17.703125 53.65625 
Q 14.5 64.65625 8.015625 75.875 
z
" id="DejaVuSans-41"/>
     </defs>
     <g transform="translate(60.656719 204.994896)rotate(-90)scale(0.1 -0.1)">
      <use xlink:href="#DejaVuSans-40"/>
      <use x="39.013672" xlink:href="#DejaVuSans-109"/>
      <use x="136.425781" xlink:href="#DejaVuSans-115"/>
      <use x="188.525391" xlink:href="#DejaVuSans-41"/>
     </g>
    </g>
   </g>
   <g id="line2d_14">
    <path clip-path="url(#p649e3ba9f5)" d="M 113.33527 332.622361 
L 114.079843 338.208591 
L 115.568991 340.070668 
L 116.313564 321.449901 
L 117.058138 325.174054 
L 117.802711 327.036131 
L 118.547285 327.036131 
L 119.291858 299.10498 
L 120.036432 302.829133 
L 120.781006 313.070555 
L 121.525579 315.86367 
L 122.270153 300.967057 
L 123.014726 152.000918 
L 123.7593 276.760059 
L 125.248447 292.587711 
L 125.99302 305.622248 
L 126.737594 304.69121 
L 127.482168 296.311865 
L 128.226741 298.173942 
L 129.715888 267.449676 
L 130.460462 282.346289 
L 131.205035 280.484213 
L 131.949609 273.035906 
L 132.694183 260.932407 
L 133.438756 218.104642 
L 134.18333 239.518525 
L 134.927903 298.173942 
L 135.672477 215.311527 
L 136.41705 250.690985 
L 137.161624 254.415138 
L 137.906198 243.242678 
L 138.650771 229.277103 
L 139.395345 242.31164 
L 140.139918 230.208141 
L 140.884492 238.587486 
L 141.629065 235.794371 
L 142.373639 246.035793 
L 143.118212 247.89787 
L 143.862786 224.621911 
L 144.60736 219.966719 
L 145.351933 246.966832 
L 146.096507 225.552949 
L 146.84108 215.311527 
L 147.585654 216.242566 
L 148.330227 220.897757 
L 149.074801 245.104755 
L 149.819375 214.380489 
L 150.563948 327.036131 
L 151.308522 328.898208 
L 152.053095 327.967169 
L 152.797669 327.967169 
L 153.542242 326.105092 
L 154.286816 325.174054 
L 155.031389 325.174054 
L 155.775963 324.243016 
L 158.009684 324.243016 
L 158.754257 323.311977 
L 159.498831 324.243016 
L 162.477125 324.243016 
L 163.221699 323.311977 
L 163.966272 324.243016 
L 164.710846 334.484438 
L 165.455419 318.656786 
L 166.199993 321.449901 
L 166.944567 327.967169 
L 167.68914 327.036131 
L 168.433714 327.967169 
L 171.412008 327.967169 
L 172.156581 328.898208 
L 172.901155 327.967169 
L 173.645729 328.898208 
L 175.879449 328.898208 
L 176.624023 327.967169 
L 179.602317 327.967169 
L 180.346891 338.208591 
L 181.091464 318.656786 
L 181.836038 327.036131 
L 182.580611 327.967169 
L 188.5372 327.967169 
L 189.281773 328.898208 
L 190.026347 327.967169 
L 190.770921 327.967169 
L 191.515494 328.898208 
L 192.260068 327.967169 
L 193.004641 327.967169 
L 193.749215 328.898208 
L 194.493788 328.898208 
L 195.238362 333.553399 
L 195.982936 322.380939 
L 196.727509 326.105092 
L 197.472083 327.967169 
L 199.705803 327.967169 
L 200.450377 328.898208 
L 205.662392 328.898208 
L 206.406965 327.967169 
L 207.151539 328.898208 
L 209.38526 328.898208 
L 210.129833 327.967169 
L 210.874407 336.346514 
L 211.61898 323.311977 
L 212.363554 327.967169 
L 213.108128 327.967169 
L 213.852701 328.898208 
L 214.597275 327.967169 
L 225.021305 327.967169 
L 225.765878 333.553399 
L 226.510452 319.587824 
L 227.255025 325.174054 
L 227.999599 328.898208 
L 229.488746 328.898208 
L 230.233319 327.967169 
L 230.977893 328.898208 
L 231.722467 328.898208 
L 232.46704 327.967169 
L 233.211614 327.967169 
L 233.956187 328.898208 
L 234.700761 327.967169 
L 235.445334 327.967169 
L 236.189908 328.898208 
L 236.934482 327.967169 
L 239.168202 327.967169 
L 239.912776 328.898208 
L 240.657349 327.967169 
L 241.401923 336.346514 
L 242.146497 325.174054 
L 242.89107 327.967169 
L 243.635644 328.898208 
L 245.124791 328.898208 
L 245.869364 327.967169 
L 246.613938 327.967169 
L 247.358511 328.898208 
L 248.103085 327.967169 
L 255.548821 327.967169 
L 256.293394 333.553399 
L 257.037968 324.243016 
L 257.782541 327.036131 
L 258.527115 328.898208 
L 259.271689 328.898208 
L 260.016262 327.967169 
L 260.760836 328.898208 
L 261.505409 327.967169 
L 262.249983 328.898208 
L 264.483703 328.898208 
L 265.228277 327.967169 
L 268.206571 327.967169 
L 268.951145 328.898208 
L 269.695718 327.967169 
L 270.440292 327.967169 
L 271.184866 328.898208 
L 271.929439 333.553399 
L 272.674013 324.243016 
L 273.418586 327.967169 
L 274.16316 328.898208 
L 276.39688 328.898208 
L 277.141454 327.967169 
L 277.886028 328.898208 
L 282.353469 328.898208 
L 283.098043 327.967169 
L 283.842616 328.898208 
L 286.076337 328.898208 
L 286.82091 332.622361 
L 287.565484 326.105092 
L 288.310058 327.967169 
L 289.054631 328.898208 
L 289.799205 327.967169 
L 290.543778 328.898208 
L 291.288352 328.898208 
L 292.032925 327.967169 
L 297.24494 327.967169 
L 297.989514 328.898208 
L 298.734087 327.967169 
L 299.478661 328.898208 
L 300.223235 327.967169 
L 300.967808 327.967169 
L 301.712382 328.898208 
L 302.456955 333.553399 
L 303.201529 327.036131 
L 303.946102 328.898208 
L 304.690676 327.967169 
L 305.435249 328.898208 
L 306.924397 328.898208 
L 307.66897 327.967169 
L 309.158117 327.967169 
L 309.902691 328.898208 
L 310.647264 328.898208 
L 311.391838 327.967169 
L 312.136412 328.898208 
L 316.603853 328.898208 
L 317.348427 332.622361 
L 318.093 326.105092 
L 318.837574 327.967169 
L 319.582147 328.898208 
L 320.326721 327.967169 
L 329.261604 327.967169 
L 330.006177 328.898208 
L 330.750751 328.898208 
L 331.495324 327.967169 
L 332.239898 327.967169 
L 332.984471 331.691323 
L 333.729045 325.174054 
L 334.473619 327.967169 
L 347.131369 327.967169 
L 347.875943 332.622361 
L 348.620516 325.174054 
L 349.36509 327.967169 
L 350.854237 327.967169 
L 351.59881 328.898208 
L 352.343384 327.967169 
L 359.044546 327.967169 
L 359.78912 328.898208 
L 360.533693 327.967169 
L 362.02284 327.967169 
L 362.767414 328.898208 
L 363.511988 335.415476 
L 364.256561 327.967169 
L 366.490282 327.967169 
L 367.234855 328.898208 
L 367.979429 327.967169 
L 370.21315 327.967169 
L 370.957723 328.898208 
L 371.702297 327.967169 
L 377.658885 327.967169 
L 378.403459 333.553399 
L 379.148032 325.174054 
L 379.892606 327.967169 
L 380.637179 328.898208 
L 381.381753 328.898208 
L 382.126327 327.967169 
L 391.805783 327.967169 
L 393.29493 329.829246 
L 394.784077 326.105092 
L 395.528651 327.967169 
L 399.251519 327.967169 
L 399.996092 328.898208 
L 400.740666 327.967169 
L 402.229813 327.967169 
L 402.974386 328.898208 
L 403.71896 327.967169 
L 407.441828 327.967169 
L 408.186401 328.898208 
L 408.930975 336.346514 
L 409.675549 318.656786 
L 410.420122 327.036131 
L 411.909269 328.898208 
L 412.653843 328.898208 
L 413.398416 327.967169 
L 414.14299 328.898208 
L 414.887563 327.967169 
L 417.865858 327.967169 
L 418.610431 328.898208 
L 420.099578 328.898208 
L 420.844152 327.967169 
L 421.588726 328.898208 
L 423.077873 328.898208 
L 423.822446 332.622361 
L 424.56702 325.174054 
L 425.311593 325.174054 
L 426.056167 327.967169 
L 438.713918 327.967169 
L 439.458491 337.277553 
L 440.203065 324.243016 
L 440.947638 327.967169 
L 441.692212 328.898208 
L 444.670506 328.898208 
L 445.41508 327.967169 
L 446.159653 327.967169 
L 446.904227 328.898208 
L 447.6488 327.967169 
L 448.393374 328.898208 
L 449.137947 327.967169 
L 451.371668 327.967169 
L 452.116242 328.898208 
L 452.860815 327.967169 
L 453.605389 327.967169 
L 454.349962 333.553399 
L 455.094536 323.311977 
L 455.839109 326.105092 
L 456.583683 327.967169 
L 462.540272 327.967169 
L 463.284845 328.898208 
L 464.029419 327.967169 
L 469.241434 327.967169 
L 469.986007 330.760284 
L 470.730581 320.518862 
L 471.475154 327.036131 
L 472.219728 327.967169 
L 476.687169 327.967169 
L 477.431743 328.898208 
L 478.92089 328.898208 
L 479.665464 327.967169 
L 482.643758 327.967169 
L 483.388331 328.898208 
L 484.132905 327.967169 
L 484.877479 335.415476 
L 485.622052 320.518862 
L 486.366626 327.036131 
L 487.111199 327.967169 
L 488.600346 327.967169 
L 489.34492 328.898208 
L 490.089493 328.898208 
L 490.834067 327.967169 
L 493.067788 327.967169 
L 493.812361 328.898208 
L 494.556935 327.967169 
L 496.046082 327.967169 
L 496.790656 328.898208 
L 497.535229 327.967169 
L 499.76895 327.967169 
L 500.513523 330.760284 
L 501.258097 323.311977 
L 502.00267 327.967169 
L 502.747244 328.898208 
L 511.682127 328.898208 
L 512.4267 327.967169 
L 514.660421 327.967169 
L 514.660421 327.967169 
" style="fill:none;stroke:#1f77b4;stroke-linecap:square;stroke-width:1.5;"/>
   </g>
   <g id="line2d_15">
    <path clip-path="url(#p649e3ba9f5)" d="M 116.329945 315.86367 
L 117.074518 325.174054 
L 117.819092 327.036131 
L 118.563665 327.036131 
L 119.308239 300.036018 
L 120.052813 302.829133 
L 120.797386 313.070555 
L 121.54196 314.932632 
L 122.286533 294.449788 
L 123.031107 165.966494 
L 123.77568 265.587599 
L 124.520254 292.587711 
L 125.264828 300.967057 
L 126.009401 305.622248 
L 126.753975 300.036018 
L 127.498548 300.036018 
L 128.243122 302.829133 
L 128.987695 281.415251 
L 129.732269 289.794596 
L 130.476842 284.208366 
L 131.96599 278.622136 
L 132.710563 240.449563 
L 133.455137 248.828908 
L 134.19971 260.932407 
L 134.944284 300.036018 
L 135.688857 236.72541 
L 136.433431 246.966832 
L 137.178005 219.035681 
L 137.922578 225.552949 
L 138.667152 215.311527 
L 139.411725 210.656335 
L 140.156299 248.828908 
L 140.900872 246.035793 
L 141.645446 233.001256 
L 142.39002 237.656448 
L 143.134593 256.277215 
L 143.879167 253.4841 
L 144.62374 228.346064 
L 145.368314 208.794259 
L 146.112887 219.035681 
L 146.857461 204.139067 
L 147.602034 241.380601 
L 148.346608 238.587486 
L 149.835755 278.622136 
L 150.580329 327.036131 
L 151.324902 328.898208 
L 152.069476 327.967169 
L 152.814049 327.967169 
L 153.558623 327.036131 
L 154.303197 325.174054 
L 155.04777 325.174054 
L 155.792344 324.243016 
L 162.493506 324.243016 
L 163.238079 323.311977 
L 163.982653 324.243016 
L 164.727226 332.622361 
L 165.4718 321.449901 
L 166.216374 322.380939 
L 166.960947 327.967169 
L 171.428389 327.967169 
L 172.172962 328.898208 
L 172.917536 327.967169 
L 173.662109 328.898208 
L 175.89583 328.898208 
L 176.640403 327.967169 
L 179.618698 327.967169 
L 180.363271 335.415476 
L 181.107845 319.587824 
L 181.852418 327.967169 
L 183.341566 327.967169 
L 184.086139 328.898208 
L 184.830713 327.967169 
L 186.31986 327.967169 
L 187.064433 328.898208 
L 187.809007 327.967169 
L 188.553581 327.967169 
L 189.298154 328.898208 
L 190.042728 327.967169 
L 190.787301 328.898208 
L 191.531875 328.898208 
L 192.276448 327.967169 
L 193.021022 327.967169 
L 193.765595 328.898208 
L 194.510169 328.898208 
L 195.254743 332.622361 
L 195.999316 323.311977 
L 196.74389 326.105092 
L 197.488463 327.967169 
L 198.97761 327.967169 
L 199.722184 328.898208 
L 208.657067 328.898208 
L 209.40164 327.967169 
L 210.146214 327.967169 
L 210.890787 335.415476 
L 211.635361 323.311977 
L 212.379935 327.967169 
L 225.037685 327.967169 
L 225.782259 331.691323 
L 226.526832 322.380939 
L 227.271406 326.105092 
L 228.015979 328.898208 
L 231.738847 328.898208 
L 232.483421 327.967169 
L 233.227994 328.898208 
L 233.972568 328.898208 
L 234.717141 327.967169 
L 235.461715 327.967169 
L 236.206289 328.898208 
L 236.950862 327.967169 
L 237.695436 327.967169 
L 238.440009 328.898208 
L 239.184583 327.967169 
L 239.929156 328.898208 
L 240.67373 327.967169 
L 241.418304 335.415476 
L 242.162877 325.174054 
L 242.907451 327.967169 
L 243.652024 328.898208 
L 245.141171 328.898208 
L 245.885745 327.967169 
L 246.630319 327.967169 
L 247.374892 328.898208 
L 248.119466 327.967169 
L 255.565201 327.967169 
L 256.309775 331.691323 
L 257.054348 325.174054 
L 258.543496 328.898208 
L 259.288069 328.898208 
L 260.032643 327.967169 
L 260.777216 328.898208 
L 261.52179 327.967169 
L 262.266363 328.898208 
L 264.500084 328.898208 
L 265.244658 327.967169 
L 267.478378 327.967169 
L 268.222952 328.898208 
L 268.967525 328.898208 
L 269.712099 327.967169 
L 270.456673 327.967169 
L 271.201246 328.898208 
L 271.94582 333.553399 
L 272.690393 324.243016 
L 273.434967 327.967169 
L 274.17954 327.967169 
L 274.924114 328.898208 
L 276.413261 328.898208 
L 277.157835 327.967169 
L 277.902408 328.898208 
L 282.36985 328.898208 
L 283.114423 327.967169 
L 283.858997 328.898208 
L 284.60357 327.967169 
L 285.348144 328.898208 
L 286.092717 328.898208 
L 286.837291 331.691323 
L 287.581865 327.036131 
L 288.326438 327.967169 
L 300.984189 327.967169 
L 301.728762 328.898208 
L 302.473336 333.553399 
L 303.217909 327.036131 
L 303.962483 327.967169 
L 304.707057 327.967169 
L 305.45163 328.898208 
L 306.196204 328.898208 
L 306.940777 327.967169 
L 309.174498 327.967169 
L 309.919071 328.898208 
L 310.663645 328.898208 
L 311.408219 327.967169 
L 312.152792 328.898208 
L 316.620234 328.898208 
L 317.364807 332.622361 
L 318.109381 327.036131 
L 319.598528 328.898208 
L 320.343101 327.967169 
L 325.555116 327.967169 
L 326.29969 328.898208 
L 327.044263 327.967169 
L 329.277984 327.967169 
L 330.022558 328.898208 
L 330.767131 328.898208 
L 331.511705 327.967169 
L 332.256278 328.898208 
L 333.000852 331.691323 
L 333.745426 326.105092 
L 334.489999 328.898208 
L 335.234573 328.898208 
L 335.979146 327.967169 
L 336.72372 328.898208 
L 337.468293 328.898208 
L 338.212867 327.967169 
L 347.14775 327.967169 
L 347.892323 332.622361 
L 348.636897 325.174054 
L 349.38147 327.967169 
L 350.870618 327.967169 
L 351.615191 328.898208 
L 352.359765 327.967169 
L 358.316353 327.967169 
L 359.060927 328.898208 
L 359.8055 328.898208 
L 360.550074 327.967169 
L 361.294647 328.898208 
L 362.039221 327.967169 
L 362.783795 328.898208 
L 363.528368 335.415476 
L 364.272942 327.967169 
L 365.017515 328.898208 
L 365.762089 327.967169 
L 366.506662 328.898208 
L 367.251236 327.967169 
L 377.675266 327.967169 
L 378.419839 333.553399 
L 379.164413 325.174054 
L 379.908987 328.898208 
L 381.398134 328.898208 
L 382.142707 327.967169 
L 385.121001 327.967169 
L 385.865575 328.898208 
L 386.610149 327.967169 
L 391.822164 327.967169 
L 392.566737 328.898208 
L 393.311311 328.898208 
L 394.055884 324.243016 
L 394.800458 327.036131 
L 395.545031 328.898208 
L 397.034179 328.898208 
L 397.778752 327.967169 
L 398.523326 328.898208 
L 399.267899 327.967169 
L 400.012473 328.898208 
L 400.757046 328.898208 
L 401.50162 327.967169 
L 402.246193 327.967169 
L 402.990767 328.898208 
L 403.735341 327.967169 
L 407.458208 327.967169 
L 408.202782 328.898208 
L 408.947356 335.415476 
L 409.691929 320.518862 
L 410.436503 327.036131 
L 411.92565 328.898208 
L 414.159371 328.898208 
L 414.903944 327.967169 
L 417.882238 327.967169 
L 418.626812 328.898208 
L 420.115959 328.898208 
L 420.860533 327.967169 
L 421.605106 328.898208 
L 423.094253 328.898208 
L 423.838827 334.484438 
L 424.5834 321.449901 
L 425.327974 326.105092 
L 426.072548 327.967169 
L 437.985725 327.967169 
L 438.730298 328.898208 
L 439.474872 336.346514 
L 440.219445 324.243016 
L 440.964019 328.898208 
L 444.686887 328.898208 
L 445.43146 327.967169 
L 446.176034 327.967169 
L 446.920607 328.898208 
L 447.665181 327.967169 
L 448.409754 328.898208 
L 449.154328 327.967169 
L 453.621769 327.967169 
L 454.366343 334.484438 
L 455.110917 319.587824 
L 455.85549 327.036131 
L 456.600064 327.967169 
L 467.768667 327.967169 
L 468.513241 328.898208 
L 469.257814 328.898208 
L 470.002388 332.622361 
L 470.746961 322.380939 
L 471.491535 327.967169 
L 472.236109 328.898208 
L 472.980682 327.967169 
L 476.70355 327.967169 
L 477.448123 328.898208 
L 478.937271 328.898208 
L 479.681844 327.967169 
L 480.426418 327.967169 
L 481.170991 328.898208 
L 481.915565 327.967169 
L 482.660138 327.967169 
L 483.404712 328.898208 
L 484.149286 327.967169 
L 484.893859 334.484438 
L 485.638433 318.656786 
L 486.383006 326.105092 
L 487.12758 327.967169 
L 488.616727 327.967169 
L 489.361301 328.898208 
L 491.595021 328.898208 
L 492.339595 327.967169 
L 493.084168 327.967169 
L 493.828742 328.898208 
L 494.573315 327.967169 
L 496.062463 327.967169 
L 496.807036 328.898208 
L 497.55161 327.967169 
L 499.040757 327.967169 
L 499.78533 329.829246 
L 500.529904 330.760284 
L 501.274478 324.243016 
L 502.019051 328.898208 
L 504.997345 328.898208 
L 505.741919 327.967169 
L 506.486492 328.898208 
L 509.464787 328.898208 
L 510.20936 327.967169 
L 510.953934 328.898208 
L 511.698507 328.898208 
L 512.443081 327.967169 
L 514.676802 327.967169 
L 515.421375 334.484438 
L 516.165949 323.311977 
L 516.910522 327.967169 
L 517.655096 327.967169 
L 517.655096 327.967169 
" style="fill:none;stroke:#ff7f0e;stroke-linecap:square;stroke-width:1.5;"/>
   </g>
   <g id="line2d_16">
    <path clip-path="url(#p649e3ba9f5)" d="M 122.237391 283.277328 
L 122.981965 178.069993 
L 123.726539 255.346177 
L 124.471112 272.104867 
L 125.215686 270.242791 
L 125.960259 287.93252 
L 126.704833 298.173942 
L 127.449406 284.208366 
L 128.19398 293.51875 
L 129.683127 273.035906 
L 130.427701 270.242791 
L 131.172274 275.829021 
L 131.916848 276.760059 
L 132.661421 250.690985 
L 133.405995 256.277215 
L 134.150568 258.139292 
L 134.895142 296.311865 
L 135.639716 223.690872 
L 136.384289 234.863333 
L 137.128863 251.622023 
L 138.61801 233.001256 
L 139.362583 231.139179 
L 140.107157 238.587486 
L 141.596304 242.31164 
L 142.340878 248.828908 
L 143.085451 249.759947 
L 143.830025 238.587486 
L 144.574598 253.4841 
L 145.319172 246.966832 
L 146.063745 248.828908 
L 146.808319 226.483988 
L 147.552893 242.31164 
L 148.297466 229.277103 
L 149.04204 260.932407 
L 149.786613 260.932407 
L 150.531187 327.967169 
L 151.27576 328.898208 
L 152.020334 327.967169 
L 152.764908 327.967169 
L 153.509481 326.105092 
L 154.254055 325.174054 
L 154.998628 325.174054 
L 155.743202 324.243016 
L 156.487775 324.243016 
L 157.232349 323.311977 
L 157.976923 324.243016 
L 158.721496 323.311977 
L 159.46607 324.243016 
L 160.210643 323.311977 
L 160.955217 324.243016 
L 162.444364 324.243016 
L 163.188937 323.311977 
L 163.933511 324.243016 
L 164.678085 330.760284 
L 165.422658 324.243016 
L 166.167232 321.449901 
L 166.911805 327.967169 
L 169.8901 327.967169 
L 170.634673 328.898208 
L 171.379247 327.967169 
L 172.12382 328.898208 
L 172.868394 327.967169 
L 173.612967 328.898208 
L 175.846688 328.898208 
L 176.591262 327.967169 
L 177.335835 327.967169 
L 178.080409 328.898208 
L 178.824982 327.967169 
L 179.569556 327.967169 
L 180.314129 335.415476 
L 181.058703 318.656786 
L 181.803277 327.036131 
L 182.54785 327.967169 
L 185.526144 327.967169 
L 186.270718 328.898208 
L 187.015292 327.967169 
L 188.504439 327.967169 
L 189.249012 328.898208 
L 189.993586 327.967169 
L 190.738159 328.898208 
L 191.482733 328.898208 
L 192.227306 327.967169 
L 192.97188 327.967169 
L 193.716454 328.898208 
L 194.461027 328.898208 
L 195.205601 331.691323 
L 195.950174 324.243016 
L 196.694748 325.174054 
L 197.439321 327.967169 
L 198.928469 327.967169 
L 199.673042 328.898208 
L 208.607925 328.898208 
L 209.352498 327.967169 
L 210.097072 327.967169 
L 210.841646 336.346514 
L 211.586219 322.380939 
L 212.330793 327.967169 
L 213.075366 327.967169 
L 213.81994 328.898208 
L 214.564513 327.967169 
L 224.988543 327.967169 
L 225.733117 331.691323 
L 226.47769 324.243016 
L 227.222264 325.174054 
L 227.966838 328.898208 
L 231.689705 328.898208 
L 232.434279 327.967169 
L 233.178853 327.967169 
L 233.923426 328.898208 
L 234.668 327.967169 
L 235.412573 327.967169 
L 236.157147 328.898208 
L 236.90172 327.967169 
L 239.135441 327.967169 
L 239.880015 328.898208 
L 240.624588 327.967169 
L 241.369162 335.415476 
L 242.113735 324.243016 
L 242.858309 327.967169 
L 243.602882 328.898208 
L 245.09203 328.898208 
L 245.836603 327.967169 
L 246.581177 327.967169 
L 247.32575 328.898208 
L 248.070324 328.898208 
L 248.814897 327.967169 
L 255.516059 327.967169 
L 256.260633 331.691323 
L 257.005207 326.105092 
L 257.74978 327.036131 
L 258.494354 328.898208 
L 259.238927 328.898208 
L 259.983501 327.967169 
L 260.728074 328.898208 
L 261.472648 327.967169 
L 262.217222 328.898208 
L 264.450942 328.898208 
L 265.195516 327.967169 
L 267.429236 327.967169 
L 268.17381 328.898208 
L 268.918384 328.898208 
L 269.662957 327.967169 
L 271.152104 327.967169 
L 271.896678 334.484438 
L 272.641251 324.243016 
L 273.385825 328.898208 
L 276.364119 328.898208 
L 277.108693 327.967169 
L 277.853266 328.898208 
L 282.320708 328.898208 
L 283.065281 327.967169 
L 283.809855 328.898208 
L 286.043576 328.898208 
L 286.788149 330.760284 
L 287.532723 327.967169 
L 298.701326 327.967169 
L 299.4459 328.898208 
L 300.190473 327.967169 
L 300.935047 327.967169 
L 301.67962 328.898208 
L 302.424194 333.553399 
L 303.168768 326.105092 
L 303.913341 327.967169 
L 304.657915 327.967169 
L 305.402488 328.898208 
L 306.891635 328.898208 
L 307.636209 327.967169 
L 308.380783 327.967169 
L 309.125356 328.898208 
L 309.86993 327.967169 
L 310.614503 328.898208 
L 311.359077 327.967169 
L 312.10365 328.898208 
L 316.571092 328.898208 
L 317.315665 330.760284 
L 318.060239 327.967169 
L 318.804812 327.967169 
L 319.549386 328.898208 
L 320.29396 327.967169 
L 325.505974 327.967169 
L 326.250548 328.898208 
L 326.995122 327.967169 
L 329.228842 327.967169 
L 329.973416 328.898208 
L 330.717989 328.898208 
L 331.462563 327.967169 
L 332.207137 327.967169 
L 332.95171 332.622361 
L 333.696284 325.174054 
L 334.440857 328.898208 
L 335.930004 328.898208 
L 336.674578 327.967169 
L 337.419152 328.898208 
L 338.163725 327.967169 
L 347.098608 327.967169 
L 347.843181 331.691323 
L 348.587755 326.105092 
L 349.332329 327.967169 
L 358.267211 327.967169 
L 359.011785 328.898208 
L 359.756358 327.967169 
L 360.500932 328.898208 
L 361.245506 328.898208 
L 361.990079 327.967169 
L 362.734653 328.898208 
L 363.479226 336.346514 
L 364.2238 327.967169 
L 364.968373 327.967169 
L 365.712947 328.898208 
L 367.202094 328.898208 
L 367.946668 327.967169 
L 370.180388 327.967169 
L 370.924962 328.898208 
L 371.669535 327.967169 
L 372.414109 327.967169 
L 373.158683 328.898208 
L 373.903256 327.967169 
L 377.626124 327.967169 
L 378.370698 333.553399 
L 379.115271 325.174054 
L 379.859845 327.967169 
L 380.604418 328.898208 
L 381.348992 328.898208 
L 382.093565 327.967169 
L 391.773022 327.967169 
L 392.517595 328.898208 
L 393.262169 327.967169 
L 394.006742 325.174054 
L 394.751316 326.105092 
L 395.49589 328.898208 
L 396.985037 328.898208 
L 397.72961 327.967169 
L 398.474184 328.898208 
L 399.218757 327.967169 
L 399.963331 328.898208 
L 400.707904 328.898208 
L 401.452478 327.967169 
L 402.197052 327.967169 
L 402.941625 328.898208 
L 403.686199 328.898208 
L 404.430772 327.967169 
L 405.175346 327.967169 
L 405.919919 328.898208 
L 406.664493 327.967169 
L 407.409067 327.967169 
L 408.15364 328.898208 
L 408.898214 336.346514 
L 409.642787 319.587824 
L 410.387361 327.036131 
L 411.876508 328.898208 
L 414.110229 328.898208 
L 414.854802 327.967169 
L 416.343949 327.967169 
L 417.088523 328.898208 
L 417.833096 327.967169 
L 418.57767 328.898208 
L 420.066817 328.898208 
L 420.811391 327.967169 
L 421.555964 328.898208 
L 423.045111 328.898208 
L 423.789685 333.553399 
L 424.534259 323.311977 
L 425.278832 325.174054 
L 426.023406 327.967169 
L 438.681156 327.967169 
L 439.42573 337.277553 
L 440.170303 324.243016 
L 440.914877 328.898208 
L 444.637745 328.898208 
L 445.382318 327.967169 
L 446.126892 327.967169 
L 446.871465 328.898208 
L 447.616039 327.967169 
L 448.360613 328.898208 
L 449.105186 327.967169 
L 453.572628 327.967169 
L 454.317201 333.553399 
L 455.061775 321.449901 
L 455.806348 326.105092 
L 456.550922 327.967169 
L 460.27379 327.967169 
L 461.018363 328.898208 
L 461.762937 327.967169 
L 462.50751 327.967169 
L 463.252084 328.898208 
L 463.996657 327.967169 
L 469.208672 327.967169 
L 469.953246 334.484438 
L 470.69782 321.449901 
L 471.442393 327.967169 
L 476.654408 327.967169 
L 477.398982 328.898208 
L 478.888129 328.898208 
L 479.632702 327.967169 
L 480.377276 327.967169 
L 481.121849 328.898208 
L 481.866423 327.967169 
L 482.610997 327.967169 
L 483.35557 328.898208 
L 484.100144 327.967169 
L 484.844717 334.484438 
L 485.589291 319.587824 
L 486.333864 326.105092 
L 487.078438 327.967169 
L 488.567585 327.967169 
L 489.312159 328.898208 
L 491.545879 328.898208 
L 492.290453 327.967169 
L 493.035026 327.967169 
L 493.7796 328.898208 
L 494.524174 328.898208 
L 495.268747 327.967169 
L 496.013321 327.967169 
L 496.757894 328.898208 
L 497.502468 327.967169 
L 498.991615 327.967169 
L 499.736189 328.898208 
L 500.480762 333.553399 
L 501.225336 324.243016 
L 501.969909 328.898208 
L 511.649366 328.898208 
L 512.393939 327.967169 
L 513.138513 327.967169 
L 513.883086 328.898208 
L 514.62766 327.967169 
L 515.372233 334.484438 
L 516.116807 323.311977 
L 516.861381 327.967169 
L 519.095101 327.967169 
L 519.839675 328.898208 
L 520.584248 327.967169 
L 523.562543 327.967169 
L 523.562543 327.967169 
" style="fill:none;stroke:#2ca02c;stroke-linecap:square;stroke-width:1.5;"/>
   </g>
   <g id="line2d_17">
    <path clip-path="url(#p649e3ba9f5)" d="M 119.235271 262.794484 
L 119.979844 295.380826 
L 120.724418 312.139517 
L 121.468992 314.001594 
L 122.213565 296.311865 
L 122.958139 168.759609 
L 123.702712 220.897757 
L 124.447286 254.415138 
L 125.191859 260.001369 
L 126.681006 294.449788 
L 127.42558 276.760059 
L 128.170154 280.484213 
L 128.914727 258.139292 
L 129.659301 261.863445 
L 130.403874 260.001369 
L 131.148448 273.966944 
L 131.893021 235.794371 
L 132.637595 233.001256 
L 133.382169 188.311415 
L 134.126742 200.414913 
L 134.871316 184.587261 
L 135.615889 152.931957 
L 136.360463 192.035568 
L 137.105036 194.828683 
L 137.84961 150.138842 
L 138.594183 88.69031 
L 139.338757 142.690535 
L 140.083331 88.69031 
L 140.827904 142.690535 
L 141.572478 49.586698 
L 142.317051 147.345727 
L 143.061625 190.173491 
L 143.806198 140.828458 
L 144.550772 121.276652 
L 145.295346 202.27699 
L 146.039919 153.862995 
L 146.784493 161.311302 
L 147.529066 147.345727 
L 148.27364 195.759722 
L 149.018213 141.759496 
L 149.762787 248.828908 
L 150.507361 327.967169 
L 151.251934 328.898208 
L 151.996508 327.967169 
L 152.741081 327.967169 
L 153.485655 326.105092 
L 154.974802 324.243016 
L 155.719375 324.243016 
L 156.463949 323.311977 
L 162.420538 323.311977 
L 163.165111 322.380939 
L 163.909685 323.311977 
L 164.654258 323.311977 
L 165.398832 327.967169 
L 166.143405 319.587824 
L 166.887979 327.967169 
L 167.632552 327.036131 
L 168.377126 327.967169 
L 171.35542 327.967169 
L 172.099994 328.898208 
L 172.844567 327.967169 
L 173.589141 328.898208 
L 175.822862 328.898208 
L 176.567435 327.967169 
L 179.54573 327.967169 
L 180.290303 337.277553 
L 181.034877 317.725747 
L 181.77945 327.036131 
L 182.524024 327.967169 
L 189.969759 327.967169 
L 190.714333 328.898208 
L 191.458907 327.967169 
L 192.948054 327.967169 
L 193.692627 328.898208 
L 194.437201 328.898208 
L 195.181774 329.829246 
L 195.926348 327.967169 
L 196.670922 325.174054 
L 197.415495 327.967169 
L 199.649216 327.967169 
L 200.393789 328.898208 
L 208.584099 328.898208 
L 209.328672 327.967169 
L 210.073246 327.967169 
L 210.817819 338.208591 
L 211.562393 322.380939 
L 212.306966 327.967169 
L 213.05154 327.967169 
L 213.796113 328.898208 
L 214.540687 327.967169 
L 224.964717 327.967169 
L 225.709291 329.829246 
L 226.453864 326.105092 
L 227.198438 324.243016 
L 227.943011 328.898208 
L 229.432158 328.898208 
L 230.176732 327.967169 
L 230.921305 328.898208 
L 231.665879 328.898208 
L 232.410453 327.967169 
L 235.388747 327.967169 
L 236.13332 328.898208 
L 236.877894 327.967169 
L 239.111615 327.967169 
L 239.856188 328.898208 
L 240.600762 327.967169 
L 241.345335 337.277553 
L 242.089909 324.243016 
L 242.834482 327.967169 
L 243.579056 328.898208 
L 245.068203 328.898208 
L 245.812777 327.967169 
L 246.55735 327.967169 
L 247.301924 328.898208 
L 248.046497 327.967169 
L 255.492233 327.967169 
L 256.236807 329.829246 
L 256.98138 328.898208 
L 257.725954 326.105092 
L 258.470527 328.898208 
L 259.215101 328.898208 
L 259.959674 327.967169 
L 260.704248 328.898208 
L 261.448822 327.967169 
L 262.193395 328.898208 
L 264.427116 328.898208 
L 265.171689 327.967169 
L 268.149984 327.967169 
L 268.894557 328.898208 
L 269.639131 327.967169 
L 270.383704 327.967169 
L 271.128278 328.898208 
L 271.872852 335.415476 
L 272.617425 323.311977 
L 273.361999 327.967169 
L 274.106572 327.967169 
L 274.851146 328.898208 
L 275.595719 327.967169 
L 277.084866 327.967169 
L 277.82944 328.898208 
L 282.296881 328.898208 
L 283.041455 327.967169 
L 283.786029 328.898208 
L 284.530602 327.967169 
L 285.275176 328.898208 
L 286.019749 328.898208 
L 286.764323 330.760284 
L 287.508896 328.898208 
L 288.25347 327.967169 
L 297.188353 327.967169 
L 297.932926 328.898208 
L 298.6775 327.967169 
L 299.422073 328.898208 
L 300.166647 327.967169 
L 300.911221 327.967169 
L 301.655794 328.898208 
L 302.400368 334.484438 
L 303.144941 326.105092 
L 303.889515 327.967169 
L 305.378662 327.967169 
L 306.123235 328.898208 
L 306.867809 327.967169 
L 308.356956 327.967169 
L 309.10153 328.898208 
L 310.590677 328.898208 
L 311.33525 327.967169 
L 312.079824 328.898208 
L 316.547265 328.898208 
L 317.291839 330.760284 
L 318.036412 328.898208 
L 318.780986 327.967169 
L 319.52556 328.898208 
L 320.270133 327.967169 
L 325.482148 327.967169 
L 326.226722 328.898208 
L 326.971295 327.967169 
L 329.205016 327.967169 
L 329.94959 328.898208 
L 330.694163 328.898208 
L 331.438737 327.967169 
L 332.18331 327.967169 
L 332.927884 332.622361 
L 333.672457 325.174054 
L 334.417031 327.967169 
L 336.650752 327.967169 
L 337.395325 328.898208 
L 338.139899 327.967169 
L 347.074782 327.967169 
L 347.819355 331.691323 
L 348.563929 327.036131 
L 349.308502 327.967169 
L 350.797649 327.967169 
L 351.542223 328.898208 
L 352.286796 327.967169 
L 358.243385 327.967169 
L 358.987959 328.898208 
L 359.732532 327.967169 
L 360.477106 327.967169 
L 361.221679 328.898208 
L 361.966253 327.967169 
L 362.710826 327.967169 
L 363.4554 336.346514 
L 364.199973 327.967169 
L 366.433694 327.967169 
L 367.178268 328.898208 
L 367.922841 327.967169 
L 377.602298 327.967169 
L 378.346871 332.622361 
L 379.091445 326.105092 
L 379.836018 327.967169 
L 380.580592 328.898208 
L 381.325165 328.898208 
L 382.069739 327.967169 
L 391.749195 327.967169 
L 392.493769 328.898208 
L 393.238342 328.898208 
L 393.982916 326.105092 
L 394.72749 326.105092 
L 395.472063 328.898208 
L 396.96121 328.898208 
L 397.705784 327.967169 
L 398.450357 328.898208 
L 399.194931 327.967169 
L 399.939505 328.898208 
L 400.684078 328.898208 
L 401.428652 327.967169 
L 402.173225 327.967169 
L 402.917799 328.898208 
L 403.662372 327.967169 
L 405.15152 327.967169 
L 405.896093 328.898208 
L 406.640667 327.967169 
L 408.129814 327.967169 
L 408.874387 337.277553 
L 409.618961 318.656786 
L 410.363534 327.036131 
L 411.852682 328.898208 
L 414.086402 328.898208 
L 414.830976 327.967169 
L 417.80927 327.967169 
L 418.553844 328.898208 
L 420.042991 328.898208 
L 420.787564 327.967169 
L 421.532138 328.898208 
L 422.276712 328.898208 
L 423.021285 327.967169 
L 423.765859 333.553399 
L 424.510432 324.243016 
L 425.255006 325.174054 
L 425.999579 327.967169 
L 438.65733 327.967169 
L 439.401903 337.277553 
L 440.146477 323.311977 
L 440.891051 328.898208 
L 445.358492 328.898208 
L 446.103066 327.967169 
L 446.847639 328.898208 
L 447.592213 327.967169 
L 448.336786 328.898208 
L 449.08136 327.967169 
L 453.548801 327.967169 
L 454.293375 332.622361 
L 455.037948 322.380939 
L 455.782522 326.105092 
L 456.527095 327.967169 
L 460.249963 327.967169 
L 460.994537 328.898208 
L 461.73911 327.967169 
L 469.184846 327.967169 
L 469.92942 334.484438 
L 470.673993 320.518862 
L 471.418567 327.967169 
L 476.630582 327.967169 
L 477.375155 328.898208 
L 479.608876 328.898208 
L 480.35345 327.967169 
L 481.098023 328.898208 
L 481.842597 327.967169 
L 484.076317 327.967169 
L 484.820891 333.553399 
L 485.565464 320.518862 
L 486.310038 325.174054 
L 487.054612 327.967169 
L 488.543759 327.967169 
L 489.288332 328.898208 
L 491.522053 328.898208 
L 492.266627 327.967169 
L 493.0112 327.967169 
L 493.755774 328.898208 
L 494.500347 327.967169 
L 495.989494 327.967169 
L 496.734068 328.898208 
L 497.478642 327.967169 
L 499.712362 327.967169 
L 500.456936 332.622361 
L 501.201509 323.311977 
L 501.946083 327.967169 
L 502.690656 328.898208 
L 504.924377 328.898208 
L 505.668951 327.967169 
L 506.413524 328.898208 
L 511.625539 328.898208 
L 512.370113 327.967169 
L 513.114686 327.967169 
L 513.85926 328.898208 
L 514.603833 327.967169 
L 515.348407 333.553399 
L 516.092981 323.311977 
L 516.837554 327.967169 
L 519.071275 327.967169 
L 519.815848 328.898208 
L 520.560422 327.967169 
L 520.560422 327.967169 
" style="fill:none;stroke:#d62728;stroke-linecap:square;stroke-width:1.5;"/>
   </g>
   <g id="patch_3">
    <path d="M 92.823906 352.174167 
L 92.823906 35.0625 
" style="fill:none;stroke:#000000;stroke-linecap:square;stroke-linejoin:miter;stroke-width:0.8;"/>
   </g>
   <g id="patch_4">
    <path d="M 544.073906 352.174167 
L 544.073906 35.0625 
" style="fill:none;stroke:#000000;stroke-linecap:square;stroke-linejoin:miter;stroke-width:0.8;"/>
   </g>
   <g id="patch_5">
    <path d="M 92.823906 352.174167 
L 544.073906 352.174167 
" style="fill:none;stroke:#000000;stroke-linecap:square;stroke-linejoin:miter;stroke-width:0.8;"/>
   </g>
   <g id="patch_6">
    <path d="M 92.823906 35.0625 
L 544.073906 35.0625 
" style="fill:none;stroke:#000000;stroke-linecap:square;stroke-linejoin:miter;stroke-width:0.8;"/>
   </g>
   <g id="legend_1">
    <g id="patch_7">
     <path d="M 568.636406 96.775 
L 630.169219 96.775 
Q 632.169219 96.775 632.169219 94.775 
L 632.169219 37.0625 
Q 632.169219 35.0625 630.169219 35.0625 
L 568.636406 35.0625 
Q 566.636406 35.0625 566.636406 37.0625 
L 566.636406 94.775 
Q 566.636406 96.775 568.636406 96.775 
z
" style="fill:#ffffff;opacity:0.8;stroke:#cccccc;stroke-linejoin:miter;"/>
    </g>
    <g id="line2d_18">
     <path d="M 570.636406 43.160937 
L 590.636406 43.160937 
" style="fill:none;stroke:#1f77b4;stroke-linecap:square;stroke-width:1.5;"/>
    </g>
    <g id="line2d_19"/>
    <g id="text_15">
     <!-- bbr-pi -->
     <defs>
      <path d="M 48.6875 27.296875 
Q 48.6875 37.203125 44.609375 42.84375 
Q 40.53125 48.484375 33.40625 48.484375 
Q 26.265625 48.484375 22.1875 42.84375 
Q 18.109375 37.203125 18.109375 27.296875 
Q 18.109375 17.390625 22.1875 11.75 
Q 26.265625 6.109375 33.40625 6.109375 
Q 40.53125 6.109375 44.609375 11.75 
Q 48.6875 17.390625 48.6875 27.296875 
z
M 18.109375 46.390625 
Q 20.953125 51.265625 25.265625 53.625 
Q 29.59375 56 35.59375 56 
Q 45.5625 56 51.78125 48.09375 
Q 58.015625 40.1875 58.015625 27.296875 
Q 58.015625 14.40625 51.78125 6.484375 
Q 45.5625 -1.421875 35.59375 -1.421875 
Q 29.59375 -1.421875 25.265625 0.953125 
Q 20.953125 3.328125 18.109375 8.203125 
L 18.109375 0 
L 9.078125 0 
L 9.078125 75.984375 
L 18.109375 75.984375 
z
" id="DejaVuSans-98"/>
      <path d="M 4.890625 31.390625 
L 31.203125 31.390625 
L 31.203125 23.390625 
L 4.890625 23.390625 
z
" id="DejaVuSans-45"/>
      <path d="M 18.109375 8.203125 
L 18.109375 -20.796875 
L 9.078125 -20.796875 
L 9.078125 54.6875 
L 18.109375 54.6875 
L 18.109375 46.390625 
Q 20.953125 51.265625 25.265625 53.625 
Q 29.59375 56 35.59375 56 
Q 45.5625 56 51.78125 48.09375 
Q 58.015625 40.1875 58.015625 27.296875 
Q 58.015625 14.40625 51.78125 6.484375 
Q 45.5625 -1.421875 35.59375 -1.421875 
Q 29.59375 -1.421875 25.265625 0.953125 
Q 20.953125 3.328125 18.109375 8.203125 
z
M 48.6875 27.296875 
Q 48.6875 37.203125 44.609375 42.84375 
Q 40.53125 48.484375 33.40625 48.484375 
Q 26.265625 48.484375 22.1875 42.84375 
Q 18.109375 37.203125 18.109375 27.296875 
Q 18.109375 17.390625 22.1875 11.75 
Q 26.265625 6.109375 33.40625 6.109375 
Q 40.53125 6.109375 44.609375 11.75 
Q 48.6875 17.390625 48.6875 27.296875 
z
" id="DejaVuSans-112"/>
      <path d="M 9.421875 54.6875 
L 18.40625 54.6875 
L 18.40625 0 
L 9.421875 0 
z
M 9.421875 75.984375 
L 18.40625 75.984375 
L 18.40625 64.59375 
L 9.421875 64.59375 
z
" id="DejaVuSans-105"/>
     </defs>
     <g transform="translate(598.636406 46.660937)scale(0.1 -0.1)">
      <use xlink:href="#DejaVuSans-98"/>
      <use x="63.476562" xlink:href="#DejaVuSans-98"/>
      <use x="126.953125" xlink:href="#DejaVuSans-114"/>
      <use x="167.972656" xlink:href="#DejaVuSans-45"/>
      <use x="204.056641" xlink:href="#DejaVuSans-112"/>
      <use x="267.533203" xlink:href="#DejaVuSans-105"/>
     </g>
    </g>
    <g id="line2d_20">
     <path d="M 570.636406 57.839063 
L 590.636406 57.839063 
" style="fill:none;stroke:#ff7f0e;stroke-linecap:square;stroke-width:1.5;"/>
    </g>
    <g id="line2d_21"/>
    <g id="text_16">
     <!-- bbr-pi -->
     <g transform="translate(598.636406 61.339063)scale(0.1 -0.1)">
      <use xlink:href="#DejaVuSans-98"/>
      <use x="63.476562" xlink:href="#DejaVuSans-98"/>
      <use x="126.953125" xlink:href="#DejaVuSans-114"/>
      <use x="167.972656" xlink:href="#DejaVuSans-45"/>
      <use x="204.056641" xlink:href="#DejaVuSans-112"/>
      <use x="267.533203" xlink:href="#DejaVuSans-105"/>
     </g>
    </g>
    <g id="line2d_22">
     <path d="M 570.636406 72.517187 
L 590.636406 72.517187 
" style="fill:none;stroke:#2ca02c;stroke-linecap:square;stroke-width:1.5;"/>
    </g>
    <g id="line2d_23"/>
    <g id="text_17">
     <!-- bbr-pi -->
     <g transform="translate(598.636406 76.017187)scale(0.1 -0.1)">
      <use xlink:href="#DejaVuSans-98"/>
      <use x="63.476562" xlink:href="#DejaVuSans-98"/>
      <use x="126.953125" xlink:href="#DejaVuSans-114"/>
      <use x="167.972656" xlink:href="#DejaVuSans-45"/>
      <use x="204.056641" xlink:href="#DejaVuSans-112"/>
      <use x="267.533203" xlink:href="#DejaVuSans-105"/>
     </g>
    </g>
    <g id="line2d_24">
     <path d="M 570.636406 87.195312 
L 590.636406 87.195312 
" style="fill:none;stroke:#d62728;stroke-linecap:square;stroke-width:1.5;"/>
    </g>
    <g id="line2d_25"/>
    <g id="text_18">
     <!-- bbr-pi -->
     <g transform="translate(598.636406 90.695312)scale(0.1 -0.1)">
      <use xlink:href="#DejaVuSans-98"/>
      <use x="63.476562" xlink:href="#DejaVuSans-98"/>
      <use x="126.953125" xlink:href="#DejaVuSans-114"/>
      <use x="167.972656" xlink:href="#DejaVuSans-45"/>
      <use x="204.056641" xlink:href="#DejaVuSans-112"/>
      <use x="267.533203" xlink:href="#DejaVuSans-105"/>
     </g>
    </g>
   </g>
  </g>
  <g id="text_19">
   <!-- result rtt -->
   <defs>
    <path d="M 56.203125 29.59375 
L 56.203125 25.203125 
L 14.890625 25.203125 
Q 15.484375 15.921875 20.484375 11.0625 
Q 25.484375 6.203125 34.421875 6.203125 
Q 39.59375 6.203125 44.453125 7.46875 
Q 49.3125 8.734375 54.109375 11.28125 
L 54.109375 2.78125 
Q 49.265625 0.734375 44.1875 -0.34375 
Q 39.109375 -1.421875 33.890625 -1.421875 
Q 20.796875 -1.421875 13.15625 6.1875 
Q 5.515625 13.8125 5.515625 26.8125 
Q 5.515625 40.234375 12.765625 48.109375 
Q 20.015625 56 32.328125 56 
Q 43.359375 56 49.78125 48.890625 
Q 56.203125 41.796875 56.203125 29.59375 
z
M 47.21875 32.234375 
Q 47.125 39.59375 43.09375 43.984375 
Q 39.0625 48.390625 32.421875 48.390625 
Q 24.90625 48.390625 20.390625 44.140625 
Q 15.875 39.890625 15.1875 32.171875 
z
" id="DejaVuSans-101"/>
    <path d="M 8.5 21.578125 
L 8.5 54.6875 
L 17.484375 54.6875 
L 17.484375 21.921875 
Q 17.484375 14.15625 20.5 10.265625 
Q 23.53125 6.390625 29.59375 6.390625 
Q 36.859375 6.390625 41.078125 11.03125 
Q 45.3125 15.671875 45.3125 23.6875 
L 45.3125 54.6875 
L 54.296875 54.6875 
L 54.296875 0 
L 45.3125 0 
L 45.3125 8.40625 
Q 42.046875 3.421875 37.71875 1 
Q 33.40625 -1.421875 27.6875 -1.421875 
Q 18.265625 -1.421875 13.375 4.4375 
Q 8.5 10.296875 8.5 21.578125 
z
M 31.109375 56 
z
" id="DejaVuSans-117"/>
    <path d="M 9.421875 75.984375 
L 18.40625 75.984375 
L 18.40625 0 
L 9.421875 0 
z
" id="DejaVuSans-108"/>
    <path id="DejaVuSans-32"/>
   </defs>
   <g transform="translate(315.818438 17.038125)scale(0.12 -0.12)">
    <use xlink:href="#DejaVuSans-114"/>
    <use x="41.082031" xlink:href="#DejaVuSans-101"/>
    <use x="102.605469" xlink:href="#DejaVuSans-115"/>
    <use x="154.705078" xlink:href="#DejaVuSans-117"/>
    <use x="218.083984" xlink:href="#DejaVuSans-108"/>
    <use x="245.867188" xlink:href="#DejaVuSans-116"/>
    <use x="285.076172" xlink:href="#DejaVuSans-32"/>
    <use x="316.863281" xlink:href="#DejaVuSans-114"/>
    <use x="357.976562" xlink:href="#DejaVuSans-116"/>
    <use x="397.185547" xlink:href="#DejaVuSans-116"/>
   </g>
  </g>
 </g>
 <defs>
  <clipPath id="p649e3ba9f5">
   <rect height="317.111667" width="451.25" x="92.823906" y="35.0625"/>
  </clipPath>
 </defs>
</svg>
