<?xml version="1.0" encoding="utf-8" standalone="no"?>
<!DOCTYPE svg PUBLIC "-//W3C//DTD SVG 1.1//EN"
  "http://www.w3.org/Graphics/SVG/1.1/DTD/svg11.dtd">
<!-- Created with matplotlib (https://matplotlib.org/) -->
<svg height="396pt" version="1.1" viewBox="0 0 684 396" width="684pt" xmlns="http://www.w3.org/2000/svg" xmlns:xlink="http://www.w3.org/1999/xlink">
 <defs>
  <style type="text/css">
*{stroke-linecap:butt;stroke-linejoin:round;}
  </style>
 </defs>
 <g id="figure_1">
  <g id="patch_1">
   <path d="M 0 396 
L 684 396 
L 684 0 
L 0 0 
z
" style="fill:#ffffff;"/>
  </g>
  <g id="axes_1">
   <g id="patch_2">
    <path d="M 92.823906 352.174167 
L 544.073906 352.174167 
L 544.073906 35.0625 
L 92.823906 35.0625 
z
" style="fill:#ffffff;"/>
   </g>
   <g id="matplotlib.axis_1">
    <g id="xtick_1">
     <g id="line2d_1">
      <defs>
       <path d="M 0 0 
L 0 3.5 
" id="m06a339fcc1" style="stroke:#000000;stroke-width:0.8;"/>
      </defs>
      <g>
       <use style="stroke:#000000;stroke-width:0.8;" x="113.33527" xlink:href="#m06a339fcc1" y="352.174167"/>
      </g>
     </g>
     <g id="text_1">
      <!-- 0 -->
      <defs>
       <path d="M 31.78125 66.40625 
Q 24.171875 66.40625 20.328125 58.90625 
Q 16.5 51.421875 16.5 36.375 
Q 16.5 21.390625 20.328125 13.890625 
Q 24.171875 6.390625 31.78125 6.390625 
Q 39.453125 6.390625 43.28125 13.890625 
Q 47.125 21.390625 47.125 36.375 
Q 47.125 51.421875 43.28125 58.90625 
Q 39.453125 66.40625 31.78125 66.40625 
z
M 31.78125 74.21875 
Q 44.046875 74.21875 50.515625 64.515625 
Q 56.984375 54.828125 56.984375 36.375 
Q 56.984375 17.96875 50.515625 8.265625 
Q 44.046875 -1.421875 31.78125 -1.421875 
Q 19.53125 -1.421875 13.0625 8.265625 
Q 6.59375 17.96875 6.59375 36.375 
Q 6.59375 54.828125 13.0625 64.515625 
Q 19.53125 74.21875 31.78125 74.21875 
z
" id="DejaVuSans-48"/>
      </defs>
      <g transform="translate(110.15402 366.772604)scale(0.1 -0.1)">
       <use xlink:href="#DejaVuSans-48"/>
      </g>
     </g>
    </g>
    <g id="xtick_2">
     <g id="line2d_2">
      <g>
       <use style="stroke:#000000;stroke-width:0.8;" x="187.892495" xlink:href="#m06a339fcc1" y="352.174167"/>
      </g>
     </g>
     <g id="text_2">
      <!-- 50 -->
      <defs>
       <path d="M 10.796875 72.90625 
L 49.515625 72.90625 
L 49.515625 64.59375 
L 19.828125 64.59375 
L 19.828125 46.734375 
Q 21.96875 47.46875 24.109375 47.828125 
Q 26.265625 48.1875 28.421875 48.1875 
Q 40.625 48.1875 47.75 41.5 
Q 54.890625 34.8125 54.890625 23.390625 
Q 54.890625 11.625 47.5625 5.09375 
Q 40.234375 -1.421875 26.90625 -1.421875 
Q 22.3125 -1.421875 17.546875 -0.640625 
Q 12.796875 0.140625 7.71875 1.703125 
L 7.71875 11.625 
Q 12.109375 9.234375 16.796875 8.0625 
Q 21.484375 6.890625 26.703125 6.890625 
Q 35.15625 6.890625 40.078125 11.328125 
Q 45.015625 15.765625 45.015625 23.390625 
Q 45.015625 31 40.078125 35.4375 
Q 35.15625 39.890625 26.703125 39.890625 
Q 22.75 39.890625 18.8125 39.015625 
Q 14.890625 38.140625 10.796875 36.28125 
z
" id="DejaVuSans-53"/>
      </defs>
      <g transform="translate(181.529995 366.772604)scale(0.1 -0.1)">
       <use xlink:href="#DejaVuSans-53"/>
       <use x="63.623047" xlink:href="#DejaVuSans-48"/>
      </g>
     </g>
    </g>
    <g id="xtick_3">
     <g id="line2d_3">
      <g>
       <use style="stroke:#000000;stroke-width:0.8;" x="262.44972" xlink:href="#m06a339fcc1" y="352.174167"/>
      </g>
     </g>
     <g id="text_3">
      <!-- 100 -->
      <defs>
       <path d="M 12.40625 8.296875 
L 28.515625 8.296875 
L 28.515625 63.921875 
L 10.984375 60.40625 
L 10.984375 69.390625 
L 28.421875 72.90625 
L 38.28125 72.90625 
L 38.28125 8.296875 
L 54.390625 8.296875 
L 54.390625 0 
L 12.40625 0 
z
" id="DejaVuSans-49"/>
      </defs>
      <g transform="translate(252.90597 366.772604)scale(0.1 -0.1)">
       <use xlink:href="#DejaVuSans-49"/>
       <use x="63.623047" xlink:href="#DejaVuSans-48"/>
       <use x="127.246094" xlink:href="#DejaVuSans-48"/>
      </g>
     </g>
    </g>
    <g id="xtick_4">
     <g id="line2d_4">
      <g>
       <use style="stroke:#000000;stroke-width:0.8;" x="337.006945" xlink:href="#m06a339fcc1" y="352.174167"/>
      </g>
     </g>
     <g id="text_4">
      <!-- 150 -->
      <g transform="translate(327.463195 366.772604)scale(0.1 -0.1)">
       <use xlink:href="#DejaVuSans-49"/>
       <use x="63.623047" xlink:href="#DejaVuSans-53"/>
       <use x="127.246094" xlink:href="#DejaVuSans-48"/>
      </g>
     </g>
    </g>
    <g id="xtick_5">
     <g id="line2d_5">
      <g>
       <use style="stroke:#000000;stroke-width:0.8;" x="411.56417" xlink:href="#m06a339fcc1" y="352.174167"/>
      </g>
     </g>
     <g id="text_5">
      <!-- 200 -->
      <defs>
       <path d="M 19.1875 8.296875 
L 53.609375 8.296875 
L 53.609375 0 
L 7.328125 0 
L 7.328125 8.296875 
Q 12.9375 14.109375 22.625 23.890625 
Q 32.328125 33.6875 34.8125 36.53125 
Q 39.546875 41.84375 41.421875 45.53125 
Q 43.3125 49.21875 43.3125 52.78125 
Q 43.3125 58.59375 39.234375 62.25 
Q 35.15625 65.921875 28.609375 65.921875 
Q 23.96875 65.921875 18.8125 64.3125 
Q 13.671875 62.703125 7.8125 59.421875 
L 7.8125 69.390625 
Q 13.765625 71.78125 18.9375 73 
Q 24.125 74.21875 28.421875 74.21875 
Q 39.75 74.21875 46.484375 68.546875 
Q 53.21875 62.890625 53.21875 53.421875 
Q 53.21875 48.921875 51.53125 44.890625 
Q 49.859375 40.875 45.40625 35.40625 
Q 44.1875 33.984375 37.640625 27.21875 
Q 31.109375 20.453125 19.1875 8.296875 
z
" id="DejaVuSans-50"/>
      </defs>
      <g transform="translate(402.02042 366.772604)scale(0.1 -0.1)">
       <use xlink:href="#DejaVuSans-50"/>
       <use x="63.623047" xlink:href="#DejaVuSans-48"/>
       <use x="127.246094" xlink:href="#DejaVuSans-48"/>
      </g>
     </g>
    </g>
    <g id="xtick_6">
     <g id="line2d_6">
      <g>
       <use style="stroke:#000000;stroke-width:0.8;" x="486.121395" xlink:href="#m06a339fcc1" y="352.174167"/>
      </g>
     </g>
     <g id="text_6">
      <!-- 250 -->
      <g transform="translate(476.577645 366.772604)scale(0.1 -0.1)">
       <use xlink:href="#DejaVuSans-50"/>
       <use x="63.623047" xlink:href="#DejaVuSans-53"/>
       <use x="127.246094" xlink:href="#DejaVuSans-48"/>
      </g>
     </g>
    </g>
   </g>
   <g id="matplotlib.axis_2">
    <g id="ytick_1">
     <g id="line2d_7">
      <defs>
       <path d="M 0 0 
L -3.5 0 
" id="mab2ad3d39b" style="stroke:#000000;stroke-width:0.8;"/>
      </defs>
      <g>
       <use style="stroke:#000000;stroke-width:0.8;" x="92.823906" xlink:href="#mab2ad3d39b" y="352.174167"/>
      </g>
     </g>
     <g id="text_7">
      <!-- 0 -->
      <g transform="translate(79.461406 355.973385)scale(0.1 -0.1)">
       <use xlink:href="#DejaVuSans-48"/>
      </g>
     </g>
    </g>
    <g id="ytick_2">
     <g id="line2d_8">
      <g>
       <use style="stroke:#000000;stroke-width:0.8;" x="92.823906" xlink:href="#mab2ad3d39b" y="293.693454"/>
      </g>
     </g>
     <g id="text_8">
      <!-- 20 -->
      <g transform="translate(73.098906 297.492672)scale(0.1 -0.1)">
       <use xlink:href="#DejaVuSans-50"/>
       <use x="63.623047" xlink:href="#DejaVuSans-48"/>
      </g>
     </g>
    </g>
    <g id="ytick_3">
     <g id="line2d_9">
      <g>
       <use style="stroke:#000000;stroke-width:0.8;" x="92.823906" xlink:href="#mab2ad3d39b" y="235.212741"/>
      </g>
     </g>
     <g id="text_9">
      <!-- 40 -->
      <defs>
       <path d="M 37.796875 64.3125 
L 12.890625 25.390625 
L 37.796875 25.390625 
z
M 35.203125 72.90625 
L 47.609375 72.90625 
L 47.609375 25.390625 
L 58.015625 25.390625 
L 58.015625 17.1875 
L 47.609375 17.1875 
L 47.609375 0 
L 37.796875 0 
L 37.796875 17.1875 
L 4.890625 17.1875 
L 4.890625 26.703125 
z
" id="DejaVuSans-52"/>
      </defs>
      <g transform="translate(73.098906 239.011959)scale(0.1 -0.1)">
       <use xlink:href="#DejaVuSans-52"/>
       <use x="63.623047" xlink:href="#DejaVuSans-48"/>
      </g>
     </g>
    </g>
    <g id="ytick_4">
     <g id="line2d_10">
      <g>
       <use style="stroke:#000000;stroke-width:0.8;" x="92.823906" xlink:href="#mab2ad3d39b" y="176.732027"/>
      </g>
     </g>
     <g id="text_10">
      <!-- 60 -->
      <defs>
       <path d="M 33.015625 40.375 
Q 26.375 40.375 22.484375 35.828125 
Q 18.609375 31.296875 18.609375 23.390625 
Q 18.609375 15.53125 22.484375 10.953125 
Q 26.375 6.390625 33.015625 6.390625 
Q 39.65625 6.390625 43.53125 10.953125 
Q 47.40625 15.53125 47.40625 23.390625 
Q 47.40625 31.296875 43.53125 35.828125 
Q 39.65625 40.375 33.015625 40.375 
z
M 52.59375 71.296875 
L 52.59375 62.3125 
Q 48.875 64.0625 45.09375 64.984375 
Q 41.3125 65.921875 37.59375 65.921875 
Q 27.828125 65.921875 22.671875 59.328125 
Q 17.53125 52.734375 16.796875 39.40625 
Q 19.671875 43.65625 24.015625 45.921875 
Q 28.375 48.1875 33.59375 48.1875 
Q 44.578125 48.1875 50.953125 41.515625 
Q 57.328125 34.859375 57.328125 23.390625 
Q 57.328125 12.15625 50.6875 5.359375 
Q 44.046875 -1.421875 33.015625 -1.421875 
Q 20.359375 -1.421875 13.671875 8.265625 
Q 6.984375 17.96875 6.984375 36.375 
Q 6.984375 53.65625 15.1875 63.9375 
Q 23.390625 74.21875 37.203125 74.21875 
Q 40.921875 74.21875 44.703125 73.484375 
Q 48.484375 72.75 52.59375 71.296875 
z
" id="DejaVuSans-54"/>
      </defs>
      <g transform="translate(73.098906 180.531246)scale(0.1 -0.1)">
       <use xlink:href="#DejaVuSans-54"/>
       <use x="63.623047" xlink:href="#DejaVuSans-48"/>
      </g>
     </g>
    </g>
    <g id="ytick_5">
     <g id="line2d_11">
      <g>
       <use style="stroke:#000000;stroke-width:0.8;" x="92.823906" xlink:href="#mab2ad3d39b" y="118.251314"/>
      </g>
     </g>
     <g id="text_11">
      <!-- 80 -->
      <defs>
       <path d="M 31.78125 34.625 
Q 24.75 34.625 20.71875 30.859375 
Q 16.703125 27.09375 16.703125 20.515625 
Q 16.703125 13.921875 20.71875 10.15625 
Q 24.75 6.390625 31.78125 6.390625 
Q 38.8125 6.390625 42.859375 10.171875 
Q 46.921875 13.96875 46.921875 20.515625 
Q 46.921875 27.09375 42.890625 30.859375 
Q 38.875 34.625 31.78125 34.625 
z
M 21.921875 38.8125 
Q 15.578125 40.375 12.03125 44.71875 
Q 8.5 49.078125 8.5 55.328125 
Q 8.5 64.0625 14.71875 69.140625 
Q 20.953125 74.21875 31.78125 74.21875 
Q 42.671875 74.21875 48.875 69.140625 
Q 55.078125 64.0625 55.078125 55.328125 
Q 55.078125 49.078125 51.53125 44.71875 
Q 48 40.375 41.703125 38.8125 
Q 48.828125 37.15625 52.796875 32.3125 
Q 56.78125 27.484375 56.78125 20.515625 
Q 56.78125 9.90625 50.3125 4.234375 
Q 43.84375 -1.421875 31.78125 -1.421875 
Q 19.734375 -1.421875 13.25 4.234375 
Q 6.78125 9.90625 6.78125 20.515625 
Q 6.78125 27.484375 10.78125 32.3125 
Q 14.796875 37.15625 21.921875 38.8125 
z
M 18.3125 54.390625 
Q 18.3125 48.734375 21.84375 45.5625 
Q 25.390625 42.390625 31.78125 42.390625 
Q 38.140625 42.390625 41.71875 45.5625 
Q 45.3125 48.734375 45.3125 54.390625 
Q 45.3125 60.0625 41.71875 63.234375 
Q 38.140625 66.40625 31.78125 66.40625 
Q 25.390625 66.40625 21.84375 63.234375 
Q 18.3125 60.0625 18.3125 54.390625 
z
" id="DejaVuSans-56"/>
      </defs>
      <g transform="translate(73.098906 122.050533)scale(0.1 -0.1)">
       <use xlink:href="#DejaVuSans-56"/>
       <use x="63.623047" xlink:href="#DejaVuSans-48"/>
      </g>
     </g>
    </g>
    <g id="ytick_6">
     <g id="line2d_12">
      <g>
       <use style="stroke:#000000;stroke-width:0.8;" x="92.823906" xlink:href="#mab2ad3d39b" y="59.770601"/>
      </g>
     </g>
     <g id="text_12">
      <!-- 100 -->
      <g transform="translate(66.736406 63.56982)scale(0.1 -0.1)">
       <use xlink:href="#DejaVuSans-49"/>
       <use x="63.623047" xlink:href="#DejaVuSans-48"/>
       <use x="127.246094" xlink:href="#DejaVuSans-48"/>
      </g>
     </g>
    </g>
    <g id="text_13">
     <!-- rtt -->
     <defs>
      <path d="M 41.109375 46.296875 
Q 39.59375 47.171875 37.8125 47.578125 
Q 36.03125 48 33.890625 48 
Q 26.265625 48 22.1875 43.046875 
Q 18.109375 38.09375 18.109375 28.8125 
L 18.109375 0 
L 9.078125 0 
L 9.078125 54.6875 
L 18.109375 54.6875 
L 18.109375 46.1875 
Q 20.953125 51.171875 25.484375 53.578125 
Q 30.03125 56 36.53125 56 
Q 37.453125 56 38.578125 55.875 
Q 39.703125 55.765625 41.0625 55.515625 
z
" id="DejaVuSans-114"/>
      <path d="M 18.3125 70.21875 
L 18.3125 54.6875 
L 36.8125 54.6875 
L 36.8125 47.703125 
L 18.3125 47.703125 
L 18.3125 18.015625 
Q 18.3125 11.328125 20.140625 9.421875 
Q 21.96875 7.515625 27.59375 7.515625 
L 36.8125 7.515625 
L 36.8125 0 
L 27.59375 0 
Q 17.1875 0 13.234375 3.875 
Q 9.28125 7.765625 9.28125 18.015625 
L 9.28125 47.703125 
L 2.6875 47.703125 
L 2.6875 54.6875 
L 9.28125 54.6875 
L 9.28125 70.21875 
z
" id="DejaVuSans-116"/>
     </defs>
     <g transform="translate(49.458906 199.594115)rotate(-90)scale(0.1 -0.1)">
      <use xlink:href="#DejaVuSans-114"/>
      <use x="41.113281" xlink:href="#DejaVuSans-116"/>
      <use x="80.322266" xlink:href="#DejaVuSans-116"/>
     </g>
     <!-- (ms) -->
     <defs>
      <path d="M 31 75.875 
Q 24.46875 64.65625 21.28125 53.65625 
Q 18.109375 42.671875 18.109375 31.390625 
Q 18.109375 20.125 21.3125 9.0625 
Q 24.515625 -2 31 -13.1875 
L 23.1875 -13.1875 
Q 15.875 -1.703125 12.234375 9.375 
Q 8.59375 20.453125 8.59375 31.390625 
Q 8.59375 42.28125 12.203125 53.3125 
Q 15.828125 64.359375 23.1875 75.875 
z
" id="DejaVuSans-40"/>
      <path d="M 52 44.1875 
Q 55.375 50.25 60.0625 53.125 
Q 64.75 56 71.09375 56 
Q 79.640625 56 84.28125 50.015625 
Q 88.921875 44.046875 88.921875 33.015625 
L 88.921875 0 
L 79.890625 0 
L 79.890625 32.71875 
Q 79.890625 40.578125 77.09375 44.375 
Q 74.3125 48.1875 68.609375 48.1875 
Q 61.625 48.1875 57.5625 43.546875 
Q 53.515625 38.921875 53.515625 30.90625 
L 53.515625 0 
L 44.484375 0 
L 44.484375 32.71875 
Q 44.484375 40.625 41.703125 44.40625 
Q 38.921875 48.1875 33.109375 48.1875 
Q 26.21875 48.1875 22.15625 43.53125 
Q 18.109375 38.875 18.109375 30.90625 
L 18.109375 0 
L 9.078125 0 
L 9.078125 54.6875 
L 18.109375 54.6875 
L 18.109375 46.1875 
Q 21.1875 51.21875 25.484375 53.609375 
Q 29.78125 56 35.6875 56 
Q 41.65625 56 45.828125 52.96875 
Q 50 49.953125 52 44.1875 
z
" id="DejaVuSans-109"/>
      <path d="M 44.28125 53.078125 
L 44.28125 44.578125 
Q 40.484375 46.53125 36.375 47.5 
Q 32.28125 48.484375 27.875 48.484375 
Q 21.1875 48.484375 17.84375 46.4375 
Q 14.5 44.390625 14.5 40.28125 
Q 14.5 37.15625 16.890625 35.375 
Q 19.28125 33.59375 26.515625 31.984375 
L 29.59375 31.296875 
Q 39.15625 29.25 43.1875 25.515625 
Q 47.21875 21.78125 47.21875 15.09375 
Q 47.21875 7.46875 41.1875 3.015625 
Q 35.15625 -1.421875 24.609375 -1.421875 
Q 20.21875 -1.421875 15.453125 -0.5625 
Q 10.6875 0.296875 5.421875 2 
L 5.421875 11.28125 
Q 10.40625 8.6875 15.234375 7.390625 
Q 20.0625 6.109375 24.8125 6.109375 
Q 31.15625 6.109375 34.5625 8.28125 
Q 37.984375 10.453125 37.984375 14.40625 
Q 37.984375 18.0625 35.515625 20.015625 
Q 33.0625 21.96875 24.703125 23.78125 
L 21.578125 24.515625 
Q 13.234375 26.265625 9.515625 29.90625 
Q 5.8125 33.546875 5.8125 39.890625 
Q 5.8125 47.609375 11.28125 51.796875 
Q 16.75 56 26.8125 56 
Q 31.78125 56 36.171875 55.265625 
Q 40.578125 54.546875 44.28125 53.078125 
z
" id="DejaVuSans-115"/>
      <path d="M 8.015625 75.875 
L 15.828125 75.875 
Q 23.140625 64.359375 26.78125 53.3125 
Q 30.421875 42.28125 30.421875 31.390625 
Q 30.421875 20.453125 26.78125 9.375 
Q 23.140625 -1.703125 15.828125 -13.1875 
L 8.015625 -13.1875 
Q 14.5 -2 17.703125 9.0625 
Q 20.90625 20.125 20.90625 31.390625 
Q 20.90625 42.671875 17.703125 53.65625 
Q 14.5 64.65625 8.015625 75.875 
z
" id="DejaVuSans-41"/>
     </defs>
     <g transform="translate(60.656719 204.994896)rotate(-90)scale(0.1 -0.1)">
      <use xlink:href="#DejaVuSans-40"/>
      <use x="39.013672" xlink:href="#DejaVuSans-109"/>
      <use x="136.425781" xlink:href="#DejaVuSans-115"/>
      <use x="188.525391" xlink:href="#DejaVuSans-41"/>
     </g>
    </g>
   </g>
   <g id="line2d_13">
    <path clip-path="url(#p6b80bfeeff)" d="M 121.699099 241.060812 
L 122.444672 238.136776 
L 123.190244 229.364669 
L 123.935816 217.668527 
L 124.681388 220.592562 
L 125.426961 232.288705 
L 126.172533 241.060812 
L 126.918105 220.592562 
L 127.663677 229.364669 
L 128.40925 235.212741 
L 129.154822 223.516598 
L 129.900394 232.288705 
L 130.645966 229.364669 
L 131.391539 205.972384 
L 132.137111 217.668527 
L 132.882683 223.516598 
L 133.628255 214.744491 
L 134.373828 203.048348 
L 135.1194 226.440634 
L 135.864972 238.136776 
L 136.610544 226.440634 
L 137.356117 205.972384 
L 138.101689 229.364669 
L 138.847261 205.972384 
L 139.592833 223.516598 
L 140.338406 226.440634 
L 141.083978 235.212741 
L 141.82955 208.89642 
L 142.575122 203.048348 
L 144.066267 238.136776 
L 144.811839 200.124313 
L 145.557411 203.048348 
L 146.302984 179.656063 
L 147.048556 179.656063 
L 147.794128 235.212741 
L 148.5397 208.89642 
L 150.030845 290.769418 
L 150.776417 276.14924 
L 151.521989 279.073275 
L 155.249851 279.073275 
L 155.995423 296.617489 
L 156.740995 273.225204 
L 157.486567 276.14924 
L 158.23214 281.997311 
L 158.977712 281.997311 
L 159.723284 276.14924 
L 160.468856 273.225204 
L 161.214429 279.073275 
L 162.705573 279.073275 
L 163.451145 281.997311 
L 164.196718 296.617489 
L 164.94229 273.225204 
L 165.687862 273.225204 
L 166.433434 279.073275 
L 167.179007 281.997311 
L 167.924579 281.997311 
L 168.670151 279.073275 
L 169.415723 281.997311 
L 170.906868 281.997311 
L 171.65244 296.617489 
L 172.398012 273.225204 
L 173.143585 276.14924 
L 173.889157 276.14924 
L 174.634729 279.073275 
L 175.380301 267.377133 
L 176.125874 279.073275 
L 176.871446 279.073275 
L 177.617018 281.997311 
L 178.36259 281.997311 
L 179.108163 279.073275 
L 179.853735 293.693454 
L 180.599307 273.225204 
L 181.344879 279.073275 
L 183.581596 279.073275 
L 184.327168 281.997311 
L 185.072741 281.997311 
L 185.818313 279.073275 
L 186.563885 296.617489 
L 187.309457 270.301168 
L 188.05503 276.14924 
L 188.800602 276.14924 
L 189.546174 279.073275 
L 190.291746 273.225204 
L 191.037319 276.14924 
L 191.782891 281.997311 
L 194.019608 281.997311 
L 194.76518 299.541525 
L 195.510752 273.225204 
L 196.256324 279.073275 
L 197.747469 279.073275 
L 198.493041 281.997311 
L 199.238613 279.073275 
L 201.47533 279.073275 
L 202.220902 293.693454 
L 202.966475 273.225204 
L 203.712047 276.14924 
L 204.457619 276.14924 
L 205.203191 281.997311 
L 205.948764 264.453097 
L 206.694336 273.225204 
L 208.18548 279.073275 
L 209.676625 279.073275 
L 210.422197 290.769418 
L 211.16777 270.301168 
L 211.913342 276.14924 
L 212.658914 276.14924 
L 213.404486 279.073275 
L 214.150059 279.073275 
L 214.895631 281.997311 
L 215.641203 281.997311 
L 216.386775 279.073275 
L 217.132348 299.541525 
L 217.87792 270.301168 
L 219.369064 281.997311 
L 220.114637 281.997311 
L 220.860209 279.073275 
L 221.605781 273.225204 
L 222.351353 276.14924 
L 224.58807 276.14924 
L 225.333642 296.617489 
L 226.079215 270.301168 
L 226.824787 276.14924 
L 227.570359 276.14924 
L 228.315931 281.997311 
L 232.043793 281.997311 
L 232.789365 293.693454 
L 233.534937 273.225204 
L 235.771654 281.997311 
L 236.517226 267.377133 
L 237.262798 279.073275 
L 238.008371 281.997311 
L 240.245087 281.997311 
L 240.99066 293.693454 
L 241.736232 273.225204 
L 242.481804 279.073275 
L 243.227376 281.997311 
L 243.972949 279.073275 
L 244.718521 281.997311 
L 246.209665 281.997311 
L 246.955238 279.073275 
L 247.70081 299.541525 
L 248.446382 273.225204 
L 249.191954 273.225204 
L 250.683099 279.073275 
L 251.428671 267.377133 
L 252.174243 273.225204 
L 252.919816 281.997311 
L 255.156532 281.997311 
L 255.902105 296.617489 
L 256.647677 270.301168 
L 257.393249 276.14924 
L 258.138821 279.073275 
L 258.884394 279.073275 
L 259.629966 281.997311 
L 260.375538 279.073275 
L 261.12111 279.073275 
L 261.866683 281.997311 
L 262.612255 281.997311 
L 263.357827 293.693454 
L 264.103399 276.14924 
L 264.848972 279.073275 
L 265.594544 279.073275 
L 266.340116 281.997311 
L 267.085688 273.225204 
L 267.831261 281.997311 
L 268.576833 281.997311 
L 269.322405 279.073275 
L 270.067977 281.997311 
L 270.81355 281.997311 
L 271.559122 293.693454 
L 272.304694 273.225204 
L 273.050266 279.073275 
L 273.795839 281.997311 
L 276.032555 281.997311 
L 276.778128 279.073275 
L 277.5237 281.997311 
L 278.269272 299.541525 
L 279.014844 270.301168 
L 281.251561 279.073275 
L 281.997133 270.301168 
L 282.742706 273.225204 
L 283.488278 281.997311 
L 284.23385 279.073275 
L 284.979422 279.073275 
L 285.724995 281.997311 
L 286.470567 299.541525 
L 287.216139 270.301168 
L 287.961711 279.073275 
L 291.689573 279.073275 
L 292.435145 281.997311 
L 293.180717 281.997311 
L 293.926289 290.769418 
L 294.671862 276.14924 
L 295.417434 279.073275 
L 296.163006 279.073275 
L 296.908578 281.997311 
L 297.654151 270.301168 
L 298.399723 279.073275 
L 299.145295 281.997311 
L 299.890867 281.997311 
L 300.63644 279.073275 
L 302.127584 290.769418 
L 302.873156 273.225204 
L 305.109873 281.997311 
L 305.855445 279.073275 
L 306.601018 281.997311 
L 307.34659 279.073275 
L 308.092162 279.073275 
L 308.837734 299.541525 
L 309.583307 270.301168 
L 310.328879 281.997311 
L 311.074451 281.997311 
L 311.820023 284.921347 
L 312.565596 276.14924 
L 313.311168 276.14924 
L 314.05674 281.997311 
L 316.293457 281.997311 
L 317.039029 296.617489 
L 317.784601 267.377133 
L 318.530174 273.225204 
L 319.275746 281.997311 
L 320.021318 279.073275 
L 320.76689 281.997311 
L 323.003607 281.997311 
L 324.494752 287.845382 
L 325.240324 273.225204 
L 325.985896 276.14924 
L 327.477041 276.14924 
L 328.222613 267.377133 
L 328.968185 281.997311 
L 331.204902 281.997311 
L 332.696046 287.845382 
L 333.441619 270.301168 
L 334.187191 276.14924 
L 334.932763 279.073275 
L 337.915052 279.073275 
L 338.660624 281.997311 
L 339.406197 296.617489 
L 340.151769 270.301168 
L 340.897341 276.14924 
L 341.642913 279.073275 
L 342.388486 284.921347 
L 343.134058 279.073275 
L 343.87963 279.073275 
L 344.625202 281.997311 
L 346.116347 281.997311 
L 346.861919 279.073275 
L 347.607491 299.541525 
L 348.353064 270.301168 
L 349.844208 281.997311 
L 352.080925 281.997311 
L 352.826497 279.073275 
L 353.572069 279.073275 
L 354.317642 284.921347 
L 355.063214 287.845382 
L 355.808786 270.301168 
L 356.554358 279.073275 
L 358.045503 284.921347 
L 358.791075 270.301168 
L 359.536647 276.14924 
L 360.28222 279.073275 
L 361.773364 279.073275 
L 362.518936 287.845382 
L 363.264509 284.921347 
L 364.010081 273.225204 
L 364.755653 279.073275 
L 365.501225 281.997311 
L 366.246798 281.997311 
L 366.99237 279.073275 
L 367.737942 281.997311 
L 368.483514 279.073275 
L 369.229087 279.073275 
L 369.974659 299.541525 
L 370.720231 273.225204 
L 371.465803 276.14924 
L 372.211376 276.14924 
L 372.956948 279.073275 
L 373.70252 270.301168 
L 375.939237 279.073275 
L 376.684809 279.073275 
L 377.430381 281.997311 
L 378.175954 293.693454 
L 378.921526 270.301168 
L 381.158243 279.073275 
L 383.394959 279.073275 
L 384.140532 281.997311 
L 384.886104 287.845382 
L 385.631676 284.921347 
L 386.377248 276.14924 
L 387.868393 281.997311 
L 388.613965 281.997311 
L 389.359537 273.225204 
L 390.10511 281.997311 
L 390.850682 281.997311 
L 391.596254 279.073275 
L 392.341826 279.073275 
L 393.087399 287.845382 
L 393.832971 284.921347 
L 394.578543 276.14924 
L 396.069688 281.997311 
L 399.797549 281.997311 
L 400.543121 296.617489 
L 401.288693 273.225204 
L 402.034266 279.073275 
L 402.779838 279.073275 
L 403.52541 281.997311 
L 404.270982 267.377133 
L 405.016555 273.225204 
L 405.762127 276.14924 
L 406.507699 281.997311 
L 407.998844 281.997311 
L 408.744416 296.617489 
L 409.489988 270.301168 
L 410.23556 279.073275 
L 414.708994 279.073275 
L 415.454566 290.769418 
L 416.945711 273.225204 
L 417.691283 276.14924 
L 418.436855 281.997311 
L 419.182427 281.997311 
L 419.928 273.225204 
L 420.673572 279.073275 
L 421.419144 276.14924 
L 422.164716 281.997311 
L 422.910289 279.073275 
L 423.655861 287.845382 
L 425.147005 276.14924 
L 425.892578 279.073275 
L 426.63815 279.073275 
L 427.383722 284.921347 
L 428.129295 279.073275 
L 428.874867 281.997311 
L 429.620439 279.073275 
L 430.366011 279.073275 
L 431.111584 296.617489 
L 431.857156 270.301168 
L 432.602728 276.14924 
L 433.3483 279.073275 
L 434.093873 279.073275 
L 434.839445 270.301168 
L 435.585017 279.073275 
L 436.330589 281.997311 
L 437.821734 281.997311 
L 438.567306 279.073275 
L 439.312878 296.617489 
L 440.058451 270.301168 
L 440.804023 276.14924 
L 442.295167 281.997311 
L 443.04074 279.073275 
L 443.786312 281.997311 
L 444.531884 279.073275 
L 445.277456 279.073275 
L 446.023029 290.769418 
L 446.768601 281.997311 
L 447.514173 276.14924 
L 448.259745 279.073275 
L 449.005318 279.073275 
L 449.75089 276.14924 
L 450.496462 267.377133 
L 451.242034 276.14924 
L 451.987607 276.14924 
L 452.733179 279.073275 
L 453.478751 279.073275 
L 454.224323 287.845382 
L 454.969896 284.921347 
L 455.715468 276.14924 
L 456.46104 281.997311 
L 457.206612 279.073275 
L 457.952185 281.997311 
L 458.697757 281.997311 
L 459.443329 279.073275 
L 460.934474 279.073275 
L 461.680046 293.693454 
L 462.425618 273.225204 
L 463.17119 273.225204 
L 463.916763 276.14924 
L 464.662335 281.997311 
L 465.407907 273.225204 
L 466.153479 276.14924 
L 469.135768 276.14924 
L 469.881341 296.617489 
L 470.626913 270.301168 
L 471.372485 276.14924 
L 472.118057 279.073275 
L 475.845919 279.073275 
L 476.591491 293.693454 
L 477.337063 281.997311 
L 478.082635 276.14924 
L 479.57378 281.997311 
L 480.319352 281.997311 
L 481.064924 273.225204 
L 483.301641 281.997311 
L 484.047213 279.073275 
L 484.792786 290.769418 
L 485.538358 279.073275 
L 486.28393 270.301168 
L 487.775075 281.997311 
L 488.520647 281.997311 
L 489.266219 284.921347 
L 490.011791 281.997311 
L 491.502936 281.997311 
L 492.248508 296.617489 
L 492.99408 273.225204 
L 493.739653 276.14924 
L 494.485225 276.14924 
L 495.230797 281.997311 
L 495.976369 270.301168 
L 497.467514 281.997311 
L 498.213086 281.997311 
L 498.958658 279.073275 
L 499.704231 279.073275 
L 500.449803 293.693454 
L 501.195375 273.225204 
L 501.940947 276.14924 
L 502.68652 276.14924 
L 503.432092 273.225204 
L 504.177664 279.073275 
L 504.923236 276.14924 
L 505.668809 279.073275 
L 506.414381 279.073275 
L 507.159953 293.693454 
L 507.905525 276.14924 
L 508.651098 273.225204 
L 509.39667 279.073275 
L 510.142242 281.997311 
L 511.633387 276.14924 
L 513.124531 281.997311 
L 514.615676 281.997311 
L 515.361248 293.693454 
L 516.10682 279.073275 
L 516.852392 273.225204 
L 517.597965 279.073275 
L 518.343537 281.997311 
L 521.325826 281.997311 
L 522.071398 279.073275 
L 522.81697 290.769418 
L 523.562543 273.225204 
L 523.562543 273.225204 
" style="fill:none;stroke:#1f77b4;stroke-linecap:square;stroke-width:1.5;"/>
   </g>
   <g id="line2d_14">
    <path clip-path="url(#p6b80bfeeff)" d="M 117.119795 270.301168 
L 118.610939 270.301168 
L 119.356511 267.377133 
L 120.102084 270.301168 
L 120.847656 264.453097 
L 121.593228 261.529061 
L 122.3388 264.453097 
L 123.084373 232.288705 
L 123.829945 205.972384 
L 124.575517 223.516598 
L 125.321089 229.364669 
L 126.066662 214.744491 
L 126.812234 229.364669 
L 127.557806 197.200277 
L 128.303378 217.668527 
L 129.048951 229.364669 
L 129.794523 246.908883 
L 130.540095 223.516598 
L 131.285667 205.972384 
L 132.03124 208.89642 
L 132.776812 229.364669 
L 133.522384 223.516598 
L 134.267956 226.440634 
L 135.013529 226.440634 
L 135.759101 235.212741 
L 136.504673 214.744491 
L 137.250245 223.516598 
L 137.995818 203.048348 
L 138.74139 211.820455 
L 139.486962 217.668527 
L 140.232534 232.288705 
L 140.978107 223.516598 
L 141.723679 229.364669 
L 142.469251 200.124313 
L 143.214823 229.364669 
L 143.960396 223.516598 
L 145.45154 217.668527 
L 146.197112 159.187814 
L 146.942685 214.744491 
L 147.688257 208.89642 
L 148.433829 179.656063 
L 149.179401 176.732027 
L 149.924974 53.92253 
L 151.416118 290.769418 
L 152.16169 276.14924 
L 152.907263 279.073275 
L 154.398407 279.073275 
L 155.143979 281.997311 
L 155.889552 279.073275 
L 156.635124 281.997311 
L 157.380696 299.541525 
L 158.126268 273.225204 
L 158.871841 279.073275 
L 159.617413 281.997311 
L 160.362985 287.845382 
L 161.108557 287.845382 
L 161.85413 273.225204 
L 162.599702 279.073275 
L 164.836419 279.073275 
L 165.581991 281.997311 
L 166.327563 270.301168 
L 167.073135 276.14924 
L 168.56428 281.997311 
L 169.309852 281.997311 
L 170.055424 279.073275 
L 170.800997 281.997311 
L 172.292141 281.997311 
L 173.037713 290.769418 
L 173.783286 273.225204 
L 174.528858 276.14924 
L 175.27443 276.14924 
L 176.020002 296.617489 
L 176.765575 267.377133 
L 177.511147 279.073275 
L 178.256719 279.073275 
L 179.002291 281.997311 
L 180.493436 281.997311 
L 181.98458 276.14924 
L 182.730153 279.073275 
L 184.966869 279.073275 
L 185.712442 281.997311 
L 187.203586 281.997311 
L 187.949158 296.617489 
L 188.694731 267.377133 
L 189.440303 276.14924 
L 190.185875 276.14924 
L 190.931447 287.845382 
L 191.67702 284.921347 
L 192.422592 276.14924 
L 193.913736 281.997311 
L 194.659309 279.073275 
L 195.404881 279.073275 
L 196.150453 287.845382 
L 196.896025 270.301168 
L 197.641598 279.073275 
L 198.38717 281.997311 
L 199.878314 281.997311 
L 200.623887 279.073275 
L 202.115031 279.073275 
L 202.860603 281.997311 
L 203.606176 290.769418 
L 204.351748 273.225204 
L 205.09732 276.14924 
L 205.842892 276.14924 
L 206.588465 296.617489 
L 207.334037 264.453097 
L 208.079609 273.225204 
L 209.570754 279.073275 
L 211.80747 279.073275 
L 212.553043 273.225204 
L 213.298615 279.073275 
L 214.044187 276.14924 
L 214.789759 279.073275 
L 215.535332 279.073275 
L 216.280904 281.997311 
L 217.026476 281.997311 
L 217.772048 279.073275 
L 218.517621 299.541525 
L 219.263193 270.301168 
L 220.754338 281.997311 
L 221.49991 290.769418 
L 222.245482 287.845382 
L 222.991054 273.225204 
L 223.736627 276.14924 
L 224.482199 273.225204 
L 225.227771 276.14924 
L 225.973343 276.14924 
L 226.718916 284.921347 
L 227.464488 270.301168 
L 228.21006 276.14924 
L 228.955632 276.14924 
L 229.701205 281.997311 
L 232.683494 281.997311 
L 234.174638 287.845382 
L 234.92021 273.225204 
L 236.411355 279.073275 
L 237.156927 293.693454 
L 237.902499 270.301168 
L 238.648072 279.073275 
L 239.393644 281.997311 
L 240.884788 281.997311 
L 241.630361 284.921347 
L 242.375933 279.073275 
L 243.121505 276.14924 
L 244.61265 281.997311 
L 248.340511 281.997311 
L 249.086083 299.541525 
L 249.831655 270.301168 
L 251.3228 276.14924 
L 252.068372 290.769418 
L 252.813944 279.073275 
L 253.559517 273.225204 
L 254.305089 279.073275 
L 255.050661 281.997311 
L 256.541806 281.997311 
L 257.287378 284.921347 
L 258.03295 270.301168 
L 258.778522 279.073275 
L 259.524095 281.997311 
L 261.015239 281.997311 
L 261.760811 279.073275 
L 262.506384 279.073275 
L 263.997528 284.921347 
L 264.7431 290.769418 
L 265.488673 276.14924 
L 266.234245 281.997311 
L 266.979817 279.073275 
L 267.725389 293.693454 
L 268.470962 273.225204 
L 269.216534 281.997311 
L 269.962106 279.073275 
L 271.453251 279.073275 
L 272.198823 281.997311 
L 272.944395 276.14924 
L 273.689967 276.14924 
L 275.181112 281.997311 
L 277.417829 281.997311 
L 278.163401 279.073275 
L 278.908973 281.997311 
L 279.654545 296.617489 
L 280.400118 270.301168 
L 281.14569 276.14924 
L 281.891262 279.073275 
L 282.636834 290.769418 
L 283.382407 276.14924 
L 284.127979 273.225204 
L 284.873551 281.997311 
L 285.619123 279.073275 
L 286.364696 279.073275 
L 287.85584 284.921347 
L 288.601412 270.301168 
L 289.346985 279.073275 
L 290.092557 279.073275 
L 290.838129 281.997311 
L 291.583701 281.997311 
L 292.329274 279.073275 
L 293.074846 281.997311 
L 293.820418 281.997311 
L 294.56599 284.921347 
L 295.311563 284.921347 
L 296.057135 276.14924 
L 296.802707 279.073275 
L 297.548279 279.073275 
L 298.293852 296.617489 
L 299.039424 270.301168 
L 299.784996 279.073275 
L 300.530568 281.997311 
L 301.276141 279.073275 
L 302.021713 279.073275 
L 302.767285 281.997311 
L 303.512857 276.14924 
L 304.25843 273.225204 
L 306.495146 281.997311 
L 307.240719 279.073275 
L 307.986291 281.997311 
L 308.731863 279.073275 
L 309.477435 279.073275 
L 310.223008 299.541525 
L 310.96858 270.301168 
L 311.714152 281.997311 
L 312.459724 281.997311 
L 313.205297 293.693454 
L 313.950869 279.073275 
L 314.696441 276.14924 
L 315.442013 281.997311 
L 317.67873 281.997311 
L 318.424302 284.921347 
L 319.169875 267.377133 
L 319.915447 273.225204 
L 320.661019 281.997311 
L 324.38888 281.997311 
L 325.134453 287.845382 
L 325.880025 281.997311 
L 326.625597 273.225204 
L 327.371169 276.14924 
L 328.116742 276.14924 
L 328.862314 293.693454 
L 329.607886 267.377133 
L 330.353458 281.997311 
L 331.844603 281.997311 
L 332.590175 279.073275 
L 333.335747 281.997311 
L 334.08132 273.225204 
L 334.826892 273.225204 
L 336.318036 279.073275 
L 340.045898 279.073275 
L 340.79147 299.541525 
L 341.537042 270.301168 
L 343.028187 276.14924 
L 343.773759 293.693454 
L 344.519331 281.997311 
L 345.264903 279.073275 
L 346.756048 279.073275 
L 347.50162 281.997311 
L 348.247192 279.073275 
L 348.992765 284.921347 
L 349.738337 273.225204 
L 350.483909 279.073275 
L 351.229481 281.997311 
L 353.466198 281.997311 
L 354.21177 279.073275 
L 354.957343 279.073275 
L 355.702915 290.769418 
L 356.448487 281.997311 
L 357.194059 270.301168 
L 357.939632 279.073275 
L 358.685204 281.997311 
L 359.430776 296.617489 
L 360.176348 270.301168 
L 360.921921 273.225204 
L 361.667493 279.073275 
L 362.413065 276.14924 
L 363.158637 276.14924 
L 363.90421 281.997311 
L 364.649782 270.301168 
L 365.395354 273.225204 
L 366.140926 281.997311 
L 367.632071 281.997311 
L 368.377643 279.073275 
L 369.123215 281.997311 
L 369.868788 279.073275 
L 370.61436 279.073275 
L 371.359932 296.617489 
L 372.105504 273.225204 
L 372.851077 279.073275 
L 373.596649 276.14924 
L 374.342221 293.693454 
L 375.087793 273.225204 
L 375.833366 273.225204 
L 377.32451 279.073275 
L 378.070082 279.073275 
L 378.815655 281.997311 
L 379.561227 281.997311 
L 380.306799 270.301168 
L 381.052371 276.14924 
L 381.797944 276.14924 
L 382.543516 279.073275 
L 384.780233 279.073275 
L 385.525805 281.997311 
L 386.271377 290.769418 
L 387.016949 276.14924 
L 387.762522 276.14924 
L 389.253666 281.997311 
L 389.999238 293.693454 
L 390.744811 273.225204 
L 391.490383 281.997311 
L 392.235955 281.997311 
L 392.981527 279.073275 
L 393.7271 279.073275 
L 394.472672 281.997311 
L 395.218244 273.225204 
L 396.709389 279.073275 
L 397.454961 284.921347 
L 398.200533 281.997311 
L 401.182822 281.997311 
L 401.928394 293.693454 
L 402.673967 273.225204 
L 403.419539 279.073275 
L 404.165111 279.073275 
L 404.910683 296.617489 
L 405.656256 270.301168 
L 407.1474 276.14924 
L 407.892972 281.997311 
L 409.384117 281.997311 
L 410.129689 287.845382 
L 410.875261 270.301168 
L 411.620834 279.073275 
L 416.094267 279.073275 
L 416.839839 293.693454 
L 417.585412 276.14924 
L 418.330984 273.225204 
L 419.076556 279.073275 
L 419.822128 281.997311 
L 420.567701 293.693454 
L 421.313273 273.225204 
L 422.058845 279.073275 
L 422.804417 276.14924 
L 423.54999 281.997311 
L 425.041134 281.997311 
L 425.786706 273.225204 
L 427.277851 279.073275 
L 428.023423 279.073275 
L 428.768995 284.921347 
L 429.514568 279.073275 
L 430.26014 281.997311 
L 431.751284 281.997311 
L 432.496857 296.617489 
L 433.242429 273.225204 
L 433.988001 279.073275 
L 434.733574 279.073275 
L 435.479146 296.617489 
L 436.224718 270.301168 
L 436.97029 279.073275 
L 437.715863 281.997311 
L 438.461435 281.997311 
L 439.207007 279.073275 
L 439.952579 279.073275 
L 440.698152 284.921347 
L 441.443724 273.225204 
L 442.189296 276.14924 
L 442.934868 281.997311 
L 445.171585 281.997311 
L 445.917157 279.073275 
L 446.66273 279.073275 
L 447.408302 293.693454 
L 448.153874 279.073275 
L 448.899446 276.14924 
L 450.390591 281.997311 
L 451.136163 290.769418 
L 451.881735 270.301168 
L 452.627308 276.14924 
L 453.37288 276.14924 
L 454.118452 279.073275 
L 454.864024 279.073275 
L 455.609597 281.997311 
L 456.355169 276.14924 
L 457.100741 276.14924 
L 457.846313 281.997311 
L 458.591886 279.073275 
L 459.337458 279.073275 
L 460.08303 281.997311 
L 460.828602 279.073275 
L 462.319747 279.073275 
L 463.065319 293.693454 
L 463.810891 273.225204 
L 465.302036 273.225204 
L 466.047608 296.617489 
L 466.79318 270.301168 
L 468.284325 276.14924 
L 470.521042 276.14924 
L 471.266614 279.073275 
L 472.012186 270.301168 
L 472.757758 276.14924 
L 473.503331 279.073275 
L 475.740047 279.073275 
L 476.48562 281.997311 
L 477.231192 279.073275 
L 477.976764 296.617489 
L 478.722336 276.14924 
L 479.467909 276.14924 
L 480.959053 281.997311 
L 481.704625 293.693454 
L 482.450198 273.225204 
L 484.686914 281.997311 
L 485.432487 279.073275 
L 486.178059 281.997311 
L 486.923631 270.301168 
L 487.669203 270.301168 
L 489.160348 281.997311 
L 489.90592 281.997311 
L 490.651492 284.921347 
L 491.397065 281.997311 
L 492.888209 281.997311 
L 493.633781 296.617489 
L 494.379354 273.225204 
L 495.124926 279.073275 
L 495.870498 279.073275 
L 496.61607 299.541525 
L 497.361643 267.377133 
L 498.107215 276.14924 
L 498.852787 281.997311 
L 499.598359 279.073275 
L 501.089504 279.073275 
L 501.835076 281.997311 
L 502.580648 273.225204 
L 503.326221 276.14924 
L 504.071793 276.14924 
L 504.817365 273.225204 
L 505.562937 276.14924 
L 506.30851 276.14924 
L 507.054082 279.073275 
L 507.799654 279.073275 
L 508.545226 296.617489 
L 509.290799 273.225204 
L 510.036371 273.225204 
L 510.781943 281.997311 
L 511.527515 281.997311 
L 512.273088 293.693454 
L 513.01866 276.14924 
L 513.764232 279.073275 
L 514.509804 279.073275 
L 515.255377 281.997311 
L 516.000949 281.997311 
L 516.746521 284.921347 
L 517.492093 273.225204 
L 518.983238 279.073275 
L 518.983238 279.073275 
" style="fill:none;stroke:#ff7f0e;stroke-linecap:square;stroke-width:1.5;"/>
   </g>
   <g id="line2d_15">
    <path clip-path="url(#p6b80bfeeff)" d="M 113.33527 308.313632 
L 114.080842 305.389596 
L 115.571987 305.389596 
L 116.317559 273.225204 
L 117.808703 267.377133 
L 118.554276 261.529061 
L 119.299848 267.377133 
L 120.04542 255.68099 
L 120.790992 252.756954 
L 121.536565 252.756954 
L 122.282137 226.440634 
L 123.027709 179.656063 
L 123.773281 200.124313 
L 124.518854 188.42817 
L 125.264426 191.352206 
L 126.009998 188.42817 
L 126.75557 191.352206 
L 127.501143 179.656063 
L 128.246715 214.744491 
L 128.992287 214.744491 
L 129.737859 194.276241 
L 130.483432 229.364669 
L 131.229004 211.820455 
L 131.974576 205.972384 
L 132.720148 220.592562 
L 133.465721 205.972384 
L 134.211293 217.668527 
L 135.702437 194.276241 
L 136.44801 162.111849 
L 137.193582 226.440634 
L 137.939154 226.440634 
L 138.684726 208.89642 
L 139.430299 208.89642 
L 140.175871 185.504134 
L 140.921443 188.42817 
L 141.667015 276.14924 
L 142.412588 182.580099 
L 143.15816 205.972384 
L 143.903732 185.504134 
L 144.649304 147.491671 
L 145.394877 188.42817 
L 146.140449 106.555172 
L 146.886021 232.288705 
L 147.631593 194.276241 
L 148.377166 48.074459 
L 149.122738 182.580099 
L 149.86831 284.921347 
L 150.613882 287.845382 
L 151.359455 276.14924 
L 152.105027 279.073275 
L 155.087316 279.073275 
L 156.57846 284.921347 
L 157.324033 273.225204 
L 158.069605 279.073275 
L 158.815177 281.997311 
L 159.560749 290.769418 
L 160.306322 284.921347 
L 161.051894 276.14924 
L 161.797466 279.073275 
L 164.034183 279.073275 
L 164.779755 296.617489 
L 165.525327 270.301168 
L 166.2709 273.225204 
L 167.016472 279.073275 
L 167.762044 281.997311 
L 168.507616 281.997311 
L 169.253189 279.073275 
L 169.998761 281.997311 
L 171.489905 281.997311 
L 172.98105 276.14924 
L 173.726622 279.073275 
L 174.472194 276.14924 
L 175.217767 293.693454 
L 175.963339 267.377133 
L 176.708911 279.073275 
L 177.454483 279.073275 
L 178.200056 281.997311 
L 179.6912 281.997311 
L 180.436772 290.769418 
L 181.182345 276.14924 
L 181.927917 279.073275 
L 184.164634 279.073275 
L 184.910206 281.997311 
L 186.40135 281.997311 
L 187.146923 284.921347 
L 187.892495 270.301168 
L 188.638067 276.14924 
L 189.383639 279.073275 
L 190.129212 290.769418 
L 190.874784 279.073275 
L 191.620356 276.14924 
L 192.365928 281.997311 
L 194.602645 281.997311 
L 195.348217 299.541525 
L 196.09379 270.301168 
L 196.839362 279.073275 
L 197.584934 281.997311 
L 199.076079 281.997311 
L 199.821651 279.073275 
L 201.312795 279.073275 
L 202.058368 281.997311 
L 202.80394 276.14924 
L 203.549512 273.225204 
L 204.295084 276.14924 
L 205.040657 276.14924 
L 205.786229 296.617489 
L 206.531801 267.377133 
L 207.277373 273.225204 
L 208.022946 276.14924 
L 208.768518 276.14924 
L 209.51409 279.073275 
L 210.259662 279.073275 
L 211.005235 290.769418 
L 211.750807 270.301168 
L 212.496379 276.14924 
L 213.241952 276.14924 
L 213.987524 279.073275 
L 214.733096 279.073275 
L 215.478668 281.997311 
L 216.224241 279.073275 
L 216.969813 279.073275 
L 217.715385 284.921347 
L 218.460957 273.225204 
L 219.20653 279.073275 
L 219.952102 281.997311 
L 220.697674 290.769418 
L 221.443246 281.997311 
L 222.188819 276.14924 
L 225.171108 276.14924 
L 225.91668 299.541525 
L 226.662252 270.301168 
L 227.407824 276.14924 
L 228.153397 276.14924 
L 228.898969 281.997311 
L 229.644541 281.997311 
L 230.390113 279.073275 
L 231.135686 281.997311 
L 232.62683 281.997311 
L 233.372402 273.225204 
L 234.863547 279.073275 
L 235.609119 279.073275 
L 236.354691 296.617489 
L 237.100264 270.301168 
L 237.845836 279.073275 
L 238.591408 281.997311 
L 239.33698 281.997311 
L 240.082553 279.073275 
L 240.828125 284.921347 
L 241.573697 287.845382 
L 242.319269 273.225204 
L 243.064842 279.073275 
L 243.810414 281.997311 
L 244.555986 279.073275 
L 245.301558 281.997311 
L 246.792703 281.997311 
L 247.538275 279.073275 
L 248.283847 287.845382 
L 249.02942 273.225204 
L 249.774992 273.225204 
L 250.520564 276.14924 
L 251.266136 293.693454 
L 252.011709 273.225204 
L 252.757281 273.225204 
L 253.502853 279.073275 
L 254.248425 281.997311 
L 255.73957 281.997311 
L 256.485142 296.617489 
L 257.230714 270.301168 
L 257.976287 279.073275 
L 258.721859 281.997311 
L 259.467431 279.073275 
L 261.704148 279.073275 
L 262.44972 281.997311 
L 263.195292 281.997311 
L 264.686437 276.14924 
L 265.432009 281.997311 
L 266.177581 279.073275 
L 266.923154 293.693454 
L 267.668726 273.225204 
L 268.414298 281.997311 
L 269.15987 279.073275 
L 270.651015 279.073275 
L 271.396587 284.921347 
L 272.142159 287.845382 
L 272.887732 276.14924 
L 274.378876 281.997311 
L 276.615593 281.997311 
L 277.361165 279.073275 
L 278.85231 284.921347 
L 279.597882 270.301168 
L 280.343454 276.14924 
L 281.089026 279.073275 
L 281.834599 293.693454 
L 282.580171 273.225204 
L 283.325743 273.225204 
L 284.071315 281.997311 
L 284.816888 279.073275 
L 286.308032 279.073275 
L 287.053604 296.617489 
L 287.799177 270.301168 
L 288.544749 279.073275 
L 290.035893 279.073275 
L 290.781466 281.997311 
L 291.527038 279.073275 
L 292.27261 279.073275 
L 293.018182 281.997311 
L 293.763755 279.073275 
L 294.509327 273.225204 
L 296.000471 279.073275 
L 296.746044 279.073275 
L 297.491616 296.617489 
L 298.237188 270.301168 
L 298.98276 279.073275 
L 299.728333 281.997311 
L 300.473905 279.073275 
L 301.219477 279.073275 
L 301.965049 287.845382 
L 302.710622 284.921347 
L 303.456194 273.225204 
L 305.692911 281.997311 
L 306.438483 279.073275 
L 307.184055 281.997311 
L 307.929627 279.073275 
L 308.6752 279.073275 
L 309.420772 284.921347 
L 310.166344 273.225204 
L 310.911916 284.921347 
L 311.657489 281.997311 
L 312.403061 296.617489 
L 313.148633 276.14924 
L 313.894205 276.14924 
L 314.639778 281.997311 
L 316.876494 281.997311 
L 317.622067 296.617489 
L 318.367639 267.377133 
L 319.113211 273.225204 
L 319.858783 281.997311 
L 320.604356 279.073275 
L 321.349928 281.997311 
L 322.841072 281.997311 
L 323.586645 279.073275 
L 324.332217 281.997311 
L 325.077789 273.225204 
L 325.823361 273.225204 
L 326.568934 276.14924 
L 327.314506 276.14924 
L 328.060078 290.769418 
L 328.80565 267.377133 
L 329.551223 281.997311 
L 331.787939 281.997311 
L 332.533512 290.769418 
L 333.279084 284.921347 
L 334.024656 273.225204 
L 334.770228 276.14924 
L 336.261373 276.14924 
L 337.006945 279.073275 
L 339.243662 279.073275 
L 339.989234 281.997311 
L 340.734806 270.301168 
L 341.480379 276.14924 
L 342.225951 279.073275 
L 342.971523 293.693454 
L 343.717095 279.073275 
L 344.462668 279.073275 
L 345.20824 281.997311 
L 346.699384 281.997311 
L 347.444957 279.073275 
L 348.190529 296.617489 
L 348.936101 273.225204 
L 350.427246 279.073275 
L 351.172818 279.073275 
L 351.91839 281.997311 
L 352.663962 279.073275 
L 354.155107 279.073275 
L 354.900679 281.997311 
L 355.646251 273.225204 
L 356.391824 273.225204 
L 357.137396 279.073275 
L 357.882968 281.997311 
L 358.62854 293.693454 
L 359.374113 270.301168 
L 360.119685 276.14924 
L 360.865257 279.073275 
L 362.356402 279.073275 
L 363.101974 290.769418 
L 363.847546 279.073275 
L 364.593118 273.225204 
L 365.338691 281.997311 
L 366.829835 281.997311 
L 367.575407 279.073275 
L 368.32098 281.997311 
L 369.066552 279.073275 
L 369.812124 279.073275 
L 370.557696 284.921347 
L 371.303269 273.225204 
L 372.048841 279.073275 
L 372.794413 276.14924 
L 373.539985 299.541525 
L 374.285558 270.301168 
L 376.522274 279.073275 
L 377.267847 279.073275 
L 378.013419 281.997311 
L 378.758991 290.769418 
L 379.504563 270.301168 
L 381.74128 279.073275 
L 383.977997 279.073275 
L 384.723569 281.997311 
L 385.469141 281.997311 
L 386.214714 270.301168 
L 387.705858 281.997311 
L 388.45143 281.997311 
L 389.197003 296.617489 
L 389.942575 276.14924 
L 390.688147 281.997311 
L 391.433719 279.073275 
L 392.924864 279.073275 
L 393.670436 290.769418 
L 394.416008 279.073275 
L 395.161581 276.14924 
L 395.907153 279.073275 
L 396.652725 284.921347 
L 397.398297 281.997311 
L 401.126159 281.997311 
L 401.871731 273.225204 
L 402.617303 279.073275 
L 403.362875 279.073275 
L 404.108448 299.541525 
L 404.85402 267.377133 
L 405.599592 273.225204 
L 406.345164 276.14924 
L 407.090737 281.997311 
L 408.581881 281.997311 
L 409.327453 296.617489 
L 410.073026 270.301168 
L 410.818598 279.073275 
L 413.055315 279.073275 
L 413.800887 276.14924 
L 414.546459 276.14924 
L 416.037604 281.997311 
L 416.783176 270.301168 
L 417.528748 276.14924 
L 419.019893 281.997311 
L 419.765465 296.617489 
L 420.511037 273.225204 
L 421.256609 279.073275 
L 422.002182 276.14924 
L 422.747754 281.997311 
L 423.493326 279.073275 
L 424.238898 293.693454 
L 424.984471 279.073275 
L 425.730043 276.14924 
L 426.475615 276.14924 
L 427.96676 281.997311 
L 428.712332 279.073275 
L 429.457904 281.997311 
L 430.203477 279.073275 
L 430.949049 279.073275 
L 431.694621 281.997311 
L 432.440193 273.225204 
L 433.185766 279.073275 
L 433.931338 279.073275 
L 434.67691 296.617489 
L 435.422482 267.377133 
L 436.168055 279.073275 
L 436.913627 281.997311 
L 437.659199 281.997311 
L 438.404771 279.073275 
L 439.150344 279.073275 
L 439.895916 296.617489 
L 440.641488 273.225204 
L 442.132633 279.073275 
L 442.878205 279.073275 
L 443.623777 281.997311 
L 444.369349 281.997311 
L 445.114922 279.073275 
L 445.860494 279.073275 
L 446.606066 284.921347 
L 447.351638 273.225204 
L 449.588355 281.997311 
L 450.333927 293.693454 
L 451.0795 270.301168 
L 451.825072 276.14924 
L 452.570644 276.14924 
L 453.316216 279.073275 
L 454.061789 279.073275 
L 454.807361 290.769418 
L 455.552933 281.997311 
L 456.298505 276.14924 
L 457.044078 279.073275 
L 458.535222 279.073275 
L 459.280794 281.997311 
L 460.026367 279.073275 
L 461.517511 279.073275 
L 462.263083 281.997311 
L 463.008656 273.225204 
L 463.754228 273.225204 
L 464.4998 276.14924 
L 465.245372 296.617489 
L 465.990945 270.301168 
L 466.736517 276.14924 
L 469.718806 276.14924 
L 470.464378 293.693454 
L 471.20995 270.301168 
L 471.955523 276.14924 
L 472.701095 279.073275 
L 474.937812 279.073275 
L 475.683384 281.997311 
L 476.428956 279.073275 
L 477.174528 284.921347 
L 477.920101 273.225204 
L 480.156817 281.997311 
L 480.90239 290.769418 
L 481.647962 273.225204 
L 483.139106 279.073275 
L 484.630251 279.073275 
L 485.375823 293.693454 
L 486.121395 273.225204 
L 486.866968 270.301168 
L 488.358112 281.997311 
L 489.103684 281.997311 
L 489.849257 284.921347 
L 490.594829 281.997311 
L 492.085973 281.997311 
L 492.831546 284.921347 
L 493.577118 273.225204 
L 494.32269 279.073275 
L 495.068262 279.073275 
L 495.813835 299.541525 
L 496.559407 267.377133 
L 497.304979 276.14924 
L 498.050551 281.997311 
L 498.796124 279.073275 
L 500.287268 279.073275 
L 501.03284 296.617489 
L 501.778413 273.225204 
L 504.015129 273.225204 
L 504.760702 276.14924 
L 505.506274 276.14924 
L 506.251846 279.073275 
L 506.997418 279.073275 
L 507.742991 281.997311 
L 508.488563 270.301168 
L 509.234135 273.225204 
L 509.979707 281.997311 
L 511.470852 287.845382 
L 512.216424 276.14924 
L 512.961996 279.073275 
L 513.707569 279.073275 
L 514.453141 281.997311 
L 515.198713 281.997311 
L 515.198713 281.997311 
" style="fill:none;stroke:#2ca02c;stroke-linecap:square;stroke-width:1.5;"/>
   </g>
   <g id="patch_3">
    <path d="M 92.823906 352.174167 
L 92.823906 35.0625 
" style="fill:none;stroke:#000000;stroke-linecap:square;stroke-linejoin:miter;stroke-width:0.8;"/>
   </g>
   <g id="patch_4">
    <path d="M 544.073906 352.174167 
L 544.073906 35.0625 
" style="fill:none;stroke:#000000;stroke-linecap:square;stroke-linejoin:miter;stroke-width:0.8;"/>
   </g>
   <g id="patch_5">
    <path d="M 92.823906 352.174167 
L 544.073906 352.174167 
" style="fill:none;stroke:#000000;stroke-linecap:square;stroke-linejoin:miter;stroke-width:0.8;"/>
   </g>
   <g id="patch_6">
    <path d="M 92.823906 35.0625 
L 544.073906 35.0625 
" style="fill:none;stroke:#000000;stroke-linecap:square;stroke-linejoin:miter;stroke-width:0.8;"/>
   </g>
   <g id="legend_1">
    <g id="patch_7">
     <path d="M 568.636406 82.096875 
L 630.169219 82.096875 
Q 632.169219 82.096875 632.169219 80.096875 
L 632.169219 37.0625 
Q 632.169219 35.0625 630.169219 35.0625 
L 568.636406 35.0625 
Q 566.636406 35.0625 566.636406 37.0625 
L 566.636406 80.096875 
Q 566.636406 82.096875 568.636406 82.096875 
z
" style="fill:#ffffff;opacity:0.8;stroke:#cccccc;stroke-linejoin:miter;"/>
    </g>
    <g id="line2d_16">
     <path d="M 570.636406 43.160937 
L 590.636406 43.160937 
" style="fill:none;stroke:#1f77b4;stroke-linecap:square;stroke-width:1.5;"/>
    </g>
    <g id="line2d_17"/>
    <g id="text_14">
     <!-- bbr-pi -->
     <defs>
      <path d="M 48.6875 27.296875 
Q 48.6875 37.203125 44.609375 42.84375 
Q 40.53125 48.484375 33.40625 48.484375 
Q 26.265625 48.484375 22.1875 42.84375 
Q 18.109375 37.203125 18.109375 27.296875 
Q 18.109375 17.390625 22.1875 11.75 
Q 26.265625 6.109375 33.40625 6.109375 
Q 40.53125 6.109375 44.609375 11.75 
Q 48.6875 17.390625 48.6875 27.296875 
z
M 18.109375 46.390625 
Q 20.953125 51.265625 25.265625 53.625 
Q 29.59375 56 35.59375 56 
Q 45.5625 56 51.78125 48.09375 
Q 58.015625 40.1875 58.015625 27.296875 
Q 58.015625 14.40625 51.78125 6.484375 
Q 45.5625 -1.421875 35.59375 -1.421875 
Q 29.59375 -1.421875 25.265625 0.953125 
Q 20.953125 3.328125 18.109375 8.203125 
L 18.109375 0 
L 9.078125 0 
L 9.078125 75.984375 
L 18.109375 75.984375 
z
" id="DejaVuSans-98"/>
      <path d="M 4.890625 31.390625 
L 31.203125 31.390625 
L 31.203125 23.390625 
L 4.890625 23.390625 
z
" id="DejaVuSans-45"/>
      <path d="M 18.109375 8.203125 
L 18.109375 -20.796875 
L 9.078125 -20.796875 
L 9.078125 54.6875 
L 18.109375 54.6875 
L 18.109375 46.390625 
Q 20.953125 51.265625 25.265625 53.625 
Q 29.59375 56 35.59375 56 
Q 45.5625 56 51.78125 48.09375 
Q 58.015625 40.1875 58.015625 27.296875 
Q 58.015625 14.40625 51.78125 6.484375 
Q 45.5625 -1.421875 35.59375 -1.421875 
Q 29.59375 -1.421875 25.265625 0.953125 
Q 20.953125 3.328125 18.109375 8.203125 
z
M 48.6875 27.296875 
Q 48.6875 37.203125 44.609375 42.84375 
Q 40.53125 48.484375 33.40625 48.484375 
Q 26.265625 48.484375 22.1875 42.84375 
Q 18.109375 37.203125 18.109375 27.296875 
Q 18.109375 17.390625 22.1875 11.75 
Q 26.265625 6.109375 33.40625 6.109375 
Q 40.53125 6.109375 44.609375 11.75 
Q 48.6875 17.390625 48.6875 27.296875 
z
" id="DejaVuSans-112"/>
      <path d="M 9.421875 54.6875 
L 18.40625 54.6875 
L 18.40625 0 
L 9.421875 0 
z
M 9.421875 75.984375 
L 18.40625 75.984375 
L 18.40625 64.59375 
L 9.421875 64.59375 
z
" id="DejaVuSans-105"/>
     </defs>
     <g transform="translate(598.636406 46.660937)scale(0.1 -0.1)">
      <use xlink:href="#DejaVuSans-98"/>
      <use x="63.476562" xlink:href="#DejaVuSans-98"/>
      <use x="126.953125" xlink:href="#DejaVuSans-114"/>
      <use x="167.972656" xlink:href="#DejaVuSans-45"/>
      <use x="204.056641" xlink:href="#DejaVuSans-112"/>
      <use x="267.533203" xlink:href="#DejaVuSans-105"/>
     </g>
    </g>
    <g id="line2d_18">
     <path d="M 570.636406 57.839063 
L 590.636406 57.839063 
" style="fill:none;stroke:#ff7f0e;stroke-linecap:square;stroke-width:1.5;"/>
    </g>
    <g id="line2d_19"/>
    <g id="text_15">
     <!-- bbr-pi -->
     <g transform="translate(598.636406 61.339063)scale(0.1 -0.1)">
      <use xlink:href="#DejaVuSans-98"/>
      <use x="63.476562" xlink:href="#DejaVuSans-98"/>
      <use x="126.953125" xlink:href="#DejaVuSans-114"/>
      <use x="167.972656" xlink:href="#DejaVuSans-45"/>
      <use x="204.056641" xlink:href="#DejaVuSans-112"/>
      <use x="267.533203" xlink:href="#DejaVuSans-105"/>
     </g>
    </g>
    <g id="line2d_20">
     <path d="M 570.636406 72.517187 
L 590.636406 72.517187 
" style="fill:none;stroke:#2ca02c;stroke-linecap:square;stroke-width:1.5;"/>
    </g>
    <g id="line2d_21"/>
    <g id="text_16">
     <!-- bbr-pi -->
     <g transform="translate(598.636406 76.017187)scale(0.1 -0.1)">
      <use xlink:href="#DejaVuSans-98"/>
      <use x="63.476562" xlink:href="#DejaVuSans-98"/>
      <use x="126.953125" xlink:href="#DejaVuSans-114"/>
      <use x="167.972656" xlink:href="#DejaVuSans-45"/>
      <use x="204.056641" xlink:href="#DejaVuSans-112"/>
      <use x="267.533203" xlink:href="#DejaVuSans-105"/>
     </g>
    </g>
   </g>
  </g>
  <g id="text_17">
   <!-- result rtt -->
   <defs>
    <path d="M 56.203125 29.59375 
L 56.203125 25.203125 
L 14.890625 25.203125 
Q 15.484375 15.921875 20.484375 11.0625 
Q 25.484375 6.203125 34.421875 6.203125 
Q 39.59375 6.203125 44.453125 7.46875 
Q 49.3125 8.734375 54.109375 11.28125 
L 54.109375 2.78125 
Q 49.265625 0.734375 44.1875 -0.34375 
Q 39.109375 -1.421875 33.890625 -1.421875 
Q 20.796875 -1.421875 13.15625 6.1875 
Q 5.515625 13.8125 5.515625 26.8125 
Q 5.515625 40.234375 12.765625 48.109375 
Q 20.015625 56 32.328125 56 
Q 43.359375 56 49.78125 48.890625 
Q 56.203125 41.796875 56.203125 29.59375 
z
M 47.21875 32.234375 
Q 47.125 39.59375 43.09375 43.984375 
Q 39.0625 48.390625 32.421875 48.390625 
Q 24.90625 48.390625 20.390625 44.140625 
Q 15.875 39.890625 15.1875 32.171875 
z
" id="DejaVuSans-101"/>
    <path d="M 8.5 21.578125 
L 8.5 54.6875 
L 17.484375 54.6875 
L 17.484375 21.921875 
Q 17.484375 14.15625 20.5 10.265625 
Q 23.53125 6.390625 29.59375 6.390625 
Q 36.859375 6.390625 41.078125 11.03125 
Q 45.3125 15.671875 45.3125 23.6875 
L 45.3125 54.6875 
L 54.296875 54.6875 
L 54.296875 0 
L 45.3125 0 
L 45.3125 8.40625 
Q 42.046875 3.421875 37.71875 1 
Q 33.40625 -1.421875 27.6875 -1.421875 
Q 18.265625 -1.421875 13.375 4.4375 
Q 8.5 10.296875 8.5 21.578125 
z
M 31.109375 56 
z
" id="DejaVuSans-117"/>
    <path d="M 9.421875 75.984375 
L 18.40625 75.984375 
L 18.40625 0 
L 9.421875 0 
z
" id="DejaVuSans-108"/>
    <path id="DejaVuSans-32"/>
   </defs>
   <g transform="translate(315.818438 17.038125)scale(0.12 -0.12)">
    <use xlink:href="#DejaVuSans-114"/>
    <use x="41.082031" xlink:href="#DejaVuSans-101"/>
    <use x="102.605469" xlink:href="#DejaVuSans-115"/>
    <use x="154.705078" xlink:href="#DejaVuSans-117"/>
    <use x="218.083984" xlink:href="#DejaVuSans-108"/>
    <use x="245.867188" xlink:href="#DejaVuSans-116"/>
    <use x="285.076172" xlink:href="#DejaVuSans-32"/>
    <use x="316.863281" xlink:href="#DejaVuSans-114"/>
    <use x="357.976562" xlink:href="#DejaVuSans-116"/>
    <use x="397.185547" xlink:href="#DejaVuSans-116"/>
   </g>
  </g>
 </g>
 <defs>
  <clipPath id="p6b80bfeeff">
   <rect height="317.111667" width="451.25" x="92.823906" y="35.0625"/>
  </clipPath>
 </defs>
</svg>
