<?xml version="1.0" encoding="utf-8" standalone="no"?>
<!DOCTYPE svg PUBLIC "-//W3C//DTD SVG 1.1//EN"
  "http://www.w3.org/Graphics/SVG/1.1/DTD/svg11.dtd">
<!-- Created with matplotlib (https://matplotlib.org/) -->
<svg height="396pt" version="1.1" viewBox="0 0 684 396" width="684pt" xmlns="http://www.w3.org/2000/svg" xmlns:xlink="http://www.w3.org/1999/xlink">
 <defs>
  <style type="text/css">
*{stroke-linecap:butt;stroke-linejoin:round;}
  </style>
 </defs>
 <g id="figure_1">
  <g id="patch_1">
   <path d="M 0 396 
L 684 396 
L 684 0 
L 0 0 
z
" style="fill:#ffffff;"/>
  </g>
  <g id="axes_1">
   <g id="patch_2">
    <path d="M 120.878594 352.174167 
L 529.912969 352.174167 
L 529.912969 35.0625 
L 120.878594 35.0625 
z
" style="fill:#ffffff;"/>
   </g>
   <g id="matplotlib.axis_1">
    <g id="xtick_1">
     <g id="line2d_1">
      <defs>
       <path d="M 0 0 
L 0 3.5 
" id="mcd2ddbef46" style="stroke:#000000;stroke-width:0.8;"/>
      </defs>
      <g>
       <use style="stroke:#000000;stroke-width:0.8;" x="139.418646" xlink:href="#mcd2ddbef46" y="352.174167"/>
      </g>
     </g>
     <g id="text_1">
      <!-- 0 -->
      <defs>
       <path d="M 31.78125 66.40625 
Q 24.171875 66.40625 20.328125 58.90625 
Q 16.5 51.421875 16.5 36.375 
Q 16.5 21.390625 20.328125 13.890625 
Q 24.171875 6.390625 31.78125 6.390625 
Q 39.453125 6.390625 43.28125 13.890625 
Q 47.125 21.390625 47.125 36.375 
Q 47.125 51.421875 43.28125 58.90625 
Q 39.453125 66.40625 31.78125 66.40625 
z
M 31.78125 74.21875 
Q 44.046875 74.21875 50.515625 64.515625 
Q 56.984375 54.828125 56.984375 36.375 
Q 56.984375 17.96875 50.515625 8.265625 
Q 44.046875 -1.421875 31.78125 -1.421875 
Q 19.53125 -1.421875 13.0625 8.265625 
Q 6.59375 17.96875 6.59375 36.375 
Q 6.59375 54.828125 13.0625 64.515625 
Q 19.53125 74.21875 31.78125 74.21875 
z
" id="DejaVuSans-48"/>
      </defs>
      <g transform="translate(136.237396 366.772604)scale(0.1 -0.1)">
       <use xlink:href="#DejaVuSans-48"/>
      </g>
     </g>
    </g>
    <g id="xtick_2">
     <g id="line2d_2">
      <g>
       <use style="stroke:#000000;stroke-width:0.8;" x="204.942198" xlink:href="#mcd2ddbef46" y="352.174167"/>
      </g>
     </g>
     <g id="text_2">
      <!-- 20 -->
      <defs>
       <path d="M 19.1875 8.296875 
L 53.609375 8.296875 
L 53.609375 0 
L 7.328125 0 
L 7.328125 8.296875 
Q 12.9375 14.109375 22.625 23.890625 
Q 32.328125 33.6875 34.8125 36.53125 
Q 39.546875 41.84375 41.421875 45.53125 
Q 43.3125 49.21875 43.3125 52.78125 
Q 43.3125 58.59375 39.234375 62.25 
Q 35.15625 65.921875 28.609375 65.921875 
Q 23.96875 65.921875 18.8125 64.3125 
Q 13.671875 62.703125 7.8125 59.421875 
L 7.8125 69.390625 
Q 13.765625 71.78125 18.9375 73 
Q 24.125 74.21875 28.421875 74.21875 
Q 39.75 74.21875 46.484375 68.546875 
Q 53.21875 62.890625 53.21875 53.421875 
Q 53.21875 48.921875 51.53125 44.890625 
Q 49.859375 40.875 45.40625 35.40625 
Q 44.1875 33.984375 37.640625 27.21875 
Q 31.109375 20.453125 19.1875 8.296875 
z
" id="DejaVuSans-50"/>
      </defs>
      <g transform="translate(198.579698 366.772604)scale(0.1 -0.1)">
       <use xlink:href="#DejaVuSans-50"/>
       <use x="63.623047" xlink:href="#DejaVuSans-48"/>
      </g>
     </g>
    </g>
    <g id="xtick_3">
     <g id="line2d_3">
      <g>
       <use style="stroke:#000000;stroke-width:0.8;" x="270.46575" xlink:href="#mcd2ddbef46" y="352.174167"/>
      </g>
     </g>
     <g id="text_3">
      <!-- 40 -->
      <defs>
       <path d="M 37.796875 64.3125 
L 12.890625 25.390625 
L 37.796875 25.390625 
z
M 35.203125 72.90625 
L 47.609375 72.90625 
L 47.609375 25.390625 
L 58.015625 25.390625 
L 58.015625 17.1875 
L 47.609375 17.1875 
L 47.609375 0 
L 37.796875 0 
L 37.796875 17.1875 
L 4.890625 17.1875 
L 4.890625 26.703125 
z
" id="DejaVuSans-52"/>
      </defs>
      <g transform="translate(264.10325 366.772604)scale(0.1 -0.1)">
       <use xlink:href="#DejaVuSans-52"/>
       <use x="63.623047" xlink:href="#DejaVuSans-48"/>
      </g>
     </g>
    </g>
    <g id="xtick_4">
     <g id="line2d_4">
      <g>
       <use style="stroke:#000000;stroke-width:0.8;" x="335.989301" xlink:href="#mcd2ddbef46" y="352.174167"/>
      </g>
     </g>
     <g id="text_4">
      <!-- 60 -->
      <defs>
       <path d="M 33.015625 40.375 
Q 26.375 40.375 22.484375 35.828125 
Q 18.609375 31.296875 18.609375 23.390625 
Q 18.609375 15.53125 22.484375 10.953125 
Q 26.375 6.390625 33.015625 6.390625 
Q 39.65625 6.390625 43.53125 10.953125 
Q 47.40625 15.53125 47.40625 23.390625 
Q 47.40625 31.296875 43.53125 35.828125 
Q 39.65625 40.375 33.015625 40.375 
z
M 52.59375 71.296875 
L 52.59375 62.3125 
Q 48.875 64.0625 45.09375 64.984375 
Q 41.3125 65.921875 37.59375 65.921875 
Q 27.828125 65.921875 22.671875 59.328125 
Q 17.53125 52.734375 16.796875 39.40625 
Q 19.671875 43.65625 24.015625 45.921875 
Q 28.375 48.1875 33.59375 48.1875 
Q 44.578125 48.1875 50.953125 41.515625 
Q 57.328125 34.859375 57.328125 23.390625 
Q 57.328125 12.15625 50.6875 5.359375 
Q 44.046875 -1.421875 33.015625 -1.421875 
Q 20.359375 -1.421875 13.671875 8.265625 
Q 6.984375 17.96875 6.984375 36.375 
Q 6.984375 53.65625 15.1875 63.9375 
Q 23.390625 74.21875 37.203125 74.21875 
Q 40.921875 74.21875 44.703125 73.484375 
Q 48.484375 72.75 52.59375 71.296875 
z
" id="DejaVuSans-54"/>
      </defs>
      <g transform="translate(329.626801 366.772604)scale(0.1 -0.1)">
       <use xlink:href="#DejaVuSans-54"/>
       <use x="63.623047" xlink:href="#DejaVuSans-48"/>
      </g>
     </g>
    </g>
    <g id="xtick_5">
     <g id="line2d_5">
      <g>
       <use style="stroke:#000000;stroke-width:0.8;" x="401.512853" xlink:href="#mcd2ddbef46" y="352.174167"/>
      </g>
     </g>
     <g id="text_5">
      <!-- 80 -->
      <defs>
       <path d="M 31.78125 34.625 
Q 24.75 34.625 20.71875 30.859375 
Q 16.703125 27.09375 16.703125 20.515625 
Q 16.703125 13.921875 20.71875 10.15625 
Q 24.75 6.390625 31.78125 6.390625 
Q 38.8125 6.390625 42.859375 10.171875 
Q 46.921875 13.96875 46.921875 20.515625 
Q 46.921875 27.09375 42.890625 30.859375 
Q 38.875 34.625 31.78125 34.625 
z
M 21.921875 38.8125 
Q 15.578125 40.375 12.03125 44.71875 
Q 8.5 49.078125 8.5 55.328125 
Q 8.5 64.0625 14.71875 69.140625 
Q 20.953125 74.21875 31.78125 74.21875 
Q 42.671875 74.21875 48.875 69.140625 
Q 55.078125 64.0625 55.078125 55.328125 
Q 55.078125 49.078125 51.53125 44.71875 
Q 48 40.375 41.703125 38.8125 
Q 48.828125 37.15625 52.796875 32.3125 
Q 56.78125 27.484375 56.78125 20.515625 
Q 56.78125 9.90625 50.3125 4.234375 
Q 43.84375 -1.421875 31.78125 -1.421875 
Q 19.734375 -1.421875 13.25 4.234375 
Q 6.78125 9.90625 6.78125 20.515625 
Q 6.78125 27.484375 10.78125 32.3125 
Q 14.796875 37.15625 21.921875 38.8125 
z
M 18.3125 54.390625 
Q 18.3125 48.734375 21.84375 45.5625 
Q 25.390625 42.390625 31.78125 42.390625 
Q 38.140625 42.390625 41.71875 45.5625 
Q 45.3125 48.734375 45.3125 54.390625 
Q 45.3125 60.0625 41.71875 63.234375 
Q 38.140625 66.40625 31.78125 66.40625 
Q 25.390625 66.40625 21.84375 63.234375 
Q 18.3125 60.0625 18.3125 54.390625 
z
" id="DejaVuSans-56"/>
      </defs>
      <g transform="translate(395.150353 366.772604)scale(0.1 -0.1)">
       <use xlink:href="#DejaVuSans-56"/>
       <use x="63.623047" xlink:href="#DejaVuSans-48"/>
      </g>
     </g>
    </g>
    <g id="xtick_6">
     <g id="line2d_6">
      <g>
       <use style="stroke:#000000;stroke-width:0.8;" x="467.036405" xlink:href="#mcd2ddbef46" y="352.174167"/>
      </g>
     </g>
     <g id="text_6">
      <!-- 100 -->
      <defs>
       <path d="M 12.40625 8.296875 
L 28.515625 8.296875 
L 28.515625 63.921875 
L 10.984375 60.40625 
L 10.984375 69.390625 
L 28.421875 72.90625 
L 38.28125 72.90625 
L 38.28125 8.296875 
L 54.390625 8.296875 
L 54.390625 0 
L 12.40625 0 
z
" id="DejaVuSans-49"/>
      </defs>
      <g transform="translate(457.492655 366.772604)scale(0.1 -0.1)">
       <use xlink:href="#DejaVuSans-49"/>
       <use x="63.623047" xlink:href="#DejaVuSans-48"/>
       <use x="127.246094" xlink:href="#DejaVuSans-48"/>
      </g>
     </g>
    </g>
   </g>
   <g id="matplotlib.axis_2">
    <g id="ytick_1">
     <g id="line2d_7">
      <defs>
       <path d="M 0 0 
L -3.5 0 
" id="m960b20e225" style="stroke:#000000;stroke-width:0.8;"/>
      </defs>
      <g>
       <use style="stroke:#000000;stroke-width:0.8;" x="120.878594" xlink:href="#m960b20e225" y="352.174167"/>
      </g>
     </g>
     <g id="text_7">
      <!-- 0 -->
      <g transform="translate(107.516094 355.973385)scale(0.1 -0.1)">
       <use xlink:href="#DejaVuSans-48"/>
      </g>
     </g>
    </g>
    <g id="ytick_2">
     <g id="line2d_8">
      <g>
       <use style="stroke:#000000;stroke-width:0.8;" x="120.878594" xlink:href="#m960b20e225" y="305.148847"/>
      </g>
     </g>
     <g id="text_8">
      <!-- 50000 -->
      <defs>
       <path d="M 10.796875 72.90625 
L 49.515625 72.90625 
L 49.515625 64.59375 
L 19.828125 64.59375 
L 19.828125 46.734375 
Q 21.96875 47.46875 24.109375 47.828125 
Q 26.265625 48.1875 28.421875 48.1875 
Q 40.625 48.1875 47.75 41.5 
Q 54.890625 34.8125 54.890625 23.390625 
Q 54.890625 11.625 47.5625 5.09375 
Q 40.234375 -1.421875 26.90625 -1.421875 
Q 22.3125 -1.421875 17.546875 -0.640625 
Q 12.796875 0.140625 7.71875 1.703125 
L 7.71875 11.625 
Q 12.109375 9.234375 16.796875 8.0625 
Q 21.484375 6.890625 26.703125 6.890625 
Q 35.15625 6.890625 40.078125 11.328125 
Q 45.015625 15.765625 45.015625 23.390625 
Q 45.015625 31 40.078125 35.4375 
Q 35.15625 39.890625 26.703125 39.890625 
Q 22.75 39.890625 18.8125 39.015625 
Q 14.890625 38.140625 10.796875 36.28125 
z
" id="DejaVuSans-53"/>
      </defs>
      <g transform="translate(82.066094 308.948066)scale(0.1 -0.1)">
       <use xlink:href="#DejaVuSans-53"/>
       <use x="63.623047" xlink:href="#DejaVuSans-48"/>
       <use x="127.246094" xlink:href="#DejaVuSans-48"/>
       <use x="190.869141" xlink:href="#DejaVuSans-48"/>
       <use x="254.492188" xlink:href="#DejaVuSans-48"/>
      </g>
     </g>
    </g>
    <g id="ytick_3">
     <g id="line2d_9">
      <g>
       <use style="stroke:#000000;stroke-width:0.8;" x="120.878594" xlink:href="#m960b20e225" y="258.123528"/>
      </g>
     </g>
     <g id="text_9">
      <!-- 100000 -->
      <g transform="translate(75.703594 261.922747)scale(0.1 -0.1)">
       <use xlink:href="#DejaVuSans-49"/>
       <use x="63.623047" xlink:href="#DejaVuSans-48"/>
       <use x="127.246094" xlink:href="#DejaVuSans-48"/>
       <use x="190.869141" xlink:href="#DejaVuSans-48"/>
       <use x="254.492188" xlink:href="#DejaVuSans-48"/>
       <use x="318.115234" xlink:href="#DejaVuSans-48"/>
      </g>
     </g>
    </g>
    <g id="ytick_4">
     <g id="line2d_10">
      <g>
       <use style="stroke:#000000;stroke-width:0.8;" x="120.878594" xlink:href="#m960b20e225" y="211.098209"/>
      </g>
     </g>
     <g id="text_10">
      <!-- 150000 -->
      <g transform="translate(75.703594 214.897428)scale(0.1 -0.1)">
       <use xlink:href="#DejaVuSans-49"/>
       <use x="63.623047" xlink:href="#DejaVuSans-53"/>
       <use x="127.246094" xlink:href="#DejaVuSans-48"/>
       <use x="190.869141" xlink:href="#DejaVuSans-48"/>
       <use x="254.492188" xlink:href="#DejaVuSans-48"/>
       <use x="318.115234" xlink:href="#DejaVuSans-48"/>
      </g>
     </g>
    </g>
    <g id="ytick_5">
     <g id="line2d_11">
      <g>
       <use style="stroke:#000000;stroke-width:0.8;" x="120.878594" xlink:href="#m960b20e225" y="164.07289"/>
      </g>
     </g>
     <g id="text_11">
      <!-- 200000 -->
      <g transform="translate(75.703594 167.872108)scale(0.1 -0.1)">
       <use xlink:href="#DejaVuSans-50"/>
       <use x="63.623047" xlink:href="#DejaVuSans-48"/>
       <use x="127.246094" xlink:href="#DejaVuSans-48"/>
       <use x="190.869141" xlink:href="#DejaVuSans-48"/>
       <use x="254.492188" xlink:href="#DejaVuSans-48"/>
       <use x="318.115234" xlink:href="#DejaVuSans-48"/>
      </g>
     </g>
    </g>
    <g id="ytick_6">
     <g id="line2d_12">
      <g>
       <use style="stroke:#000000;stroke-width:0.8;" x="120.878594" xlink:href="#m960b20e225" y="117.04757"/>
      </g>
     </g>
     <g id="text_12">
      <!-- 250000 -->
      <g transform="translate(75.703594 120.846789)scale(0.1 -0.1)">
       <use xlink:href="#DejaVuSans-50"/>
       <use x="63.623047" xlink:href="#DejaVuSans-53"/>
       <use x="127.246094" xlink:href="#DejaVuSans-48"/>
       <use x="190.869141" xlink:href="#DejaVuSans-48"/>
       <use x="254.492188" xlink:href="#DejaVuSans-48"/>
       <use x="318.115234" xlink:href="#DejaVuSans-48"/>
      </g>
     </g>
    </g>
    <g id="ytick_7">
     <g id="line2d_13">
      <g>
       <use style="stroke:#000000;stroke-width:0.8;" x="120.878594" xlink:href="#m960b20e225" y="70.022251"/>
      </g>
     </g>
     <g id="text_13">
      <!-- 300000 -->
      <defs>
       <path d="M 40.578125 39.3125 
Q 47.65625 37.796875 51.625 33 
Q 55.609375 28.21875 55.609375 21.1875 
Q 55.609375 10.40625 48.1875 4.484375 
Q 40.765625 -1.421875 27.09375 -1.421875 
Q 22.515625 -1.421875 17.65625 -0.515625 
Q 12.796875 0.390625 7.625 2.203125 
L 7.625 11.71875 
Q 11.71875 9.328125 16.59375 8.109375 
Q 21.484375 6.890625 26.8125 6.890625 
Q 36.078125 6.890625 40.9375 10.546875 
Q 45.796875 14.203125 45.796875 21.1875 
Q 45.796875 27.640625 41.28125 31.265625 
Q 36.765625 34.90625 28.71875 34.90625 
L 20.21875 34.90625 
L 20.21875 43.015625 
L 29.109375 43.015625 
Q 36.375 43.015625 40.234375 45.921875 
Q 44.09375 48.828125 44.09375 54.296875 
Q 44.09375 59.90625 40.109375 62.90625 
Q 36.140625 65.921875 28.71875 65.921875 
Q 24.65625 65.921875 20.015625 65.03125 
Q 15.375 64.15625 9.8125 62.3125 
L 9.8125 71.09375 
Q 15.4375 72.65625 20.34375 73.4375 
Q 25.25 74.21875 29.59375 74.21875 
Q 40.828125 74.21875 47.359375 69.109375 
Q 53.90625 64.015625 53.90625 55.328125 
Q 53.90625 49.265625 50.4375 45.09375 
Q 46.96875 40.921875 40.578125 39.3125 
z
" id="DejaVuSans-51"/>
      </defs>
      <g transform="translate(75.703594 73.82147)scale(0.1 -0.1)">
       <use xlink:href="#DejaVuSans-51"/>
       <use x="63.623047" xlink:href="#DejaVuSans-48"/>
       <use x="127.246094" xlink:href="#DejaVuSans-48"/>
       <use x="190.869141" xlink:href="#DejaVuSans-48"/>
       <use x="254.492188" xlink:href="#DejaVuSans-48"/>
       <use x="318.115234" xlink:href="#DejaVuSans-48"/>
      </g>
     </g>
    </g>
    <g id="text_14">
     <!-- inflight -->
     <defs>
      <path d="M 9.421875 54.6875 
L 18.40625 54.6875 
L 18.40625 0 
L 9.421875 0 
z
M 9.421875 75.984375 
L 18.40625 75.984375 
L 18.40625 64.59375 
L 9.421875 64.59375 
z
" id="DejaVuSans-105"/>
      <path d="M 54.890625 33.015625 
L 54.890625 0 
L 45.90625 0 
L 45.90625 32.71875 
Q 45.90625 40.484375 42.875 44.328125 
Q 39.84375 48.1875 33.796875 48.1875 
Q 26.515625 48.1875 22.3125 43.546875 
Q 18.109375 38.921875 18.109375 30.90625 
L 18.109375 0 
L 9.078125 0 
L 9.078125 54.6875 
L 18.109375 54.6875 
L 18.109375 46.1875 
Q 21.34375 51.125 25.703125 53.5625 
Q 30.078125 56 35.796875 56 
Q 45.21875 56 50.046875 50.171875 
Q 54.890625 44.34375 54.890625 33.015625 
z
" id="DejaVuSans-110"/>
      <path d="M 37.109375 75.984375 
L 37.109375 68.5 
L 28.515625 68.5 
Q 23.6875 68.5 21.796875 66.546875 
Q 19.921875 64.59375 19.921875 59.515625 
L 19.921875 54.6875 
L 34.71875 54.6875 
L 34.71875 47.703125 
L 19.921875 47.703125 
L 19.921875 0 
L 10.890625 0 
L 10.890625 47.703125 
L 2.296875 47.703125 
L 2.296875 54.6875 
L 10.890625 54.6875 
L 10.890625 58.5 
Q 10.890625 67.625 15.140625 71.796875 
Q 19.390625 75.984375 28.609375 75.984375 
z
" id="DejaVuSans-102"/>
      <path d="M 9.421875 75.984375 
L 18.40625 75.984375 
L 18.40625 0 
L 9.421875 0 
z
" id="DejaVuSans-108"/>
      <path d="M 45.40625 27.984375 
Q 45.40625 37.75 41.375 43.109375 
Q 37.359375 48.484375 30.078125 48.484375 
Q 22.859375 48.484375 18.828125 43.109375 
Q 14.796875 37.75 14.796875 27.984375 
Q 14.796875 18.265625 18.828125 12.890625 
Q 22.859375 7.515625 30.078125 7.515625 
Q 37.359375 7.515625 41.375 12.890625 
Q 45.40625 18.265625 45.40625 27.984375 
z
M 54.390625 6.78125 
Q 54.390625 -7.171875 48.1875 -13.984375 
Q 42 -20.796875 29.203125 -20.796875 
Q 24.46875 -20.796875 20.265625 -20.09375 
Q 16.0625 -19.390625 12.109375 -17.921875 
L 12.109375 -9.1875 
Q 16.0625 -11.328125 19.921875 -12.34375 
Q 23.78125 -13.375 27.78125 -13.375 
Q 36.625 -13.375 41.015625 -8.765625 
Q 45.40625 -4.15625 45.40625 5.171875 
L 45.40625 9.625 
Q 42.625 4.78125 38.28125 2.390625 
Q 33.9375 0 27.875 0 
Q 17.828125 0 11.671875 7.65625 
Q 5.515625 15.328125 5.515625 27.984375 
Q 5.515625 40.671875 11.671875 48.328125 
Q 17.828125 56 27.875 56 
Q 33.9375 56 38.28125 53.609375 
Q 42.625 51.21875 45.40625 46.390625 
L 45.40625 54.6875 
L 54.390625 54.6875 
z
" id="DejaVuSans-103"/>
      <path d="M 54.890625 33.015625 
L 54.890625 0 
L 45.90625 0 
L 45.90625 32.71875 
Q 45.90625 40.484375 42.875 44.328125 
Q 39.84375 48.1875 33.796875 48.1875 
Q 26.515625 48.1875 22.3125 43.546875 
Q 18.109375 38.921875 18.109375 30.90625 
L 18.109375 0 
L 9.078125 0 
L 9.078125 75.984375 
L 18.109375 75.984375 
L 18.109375 46.1875 
Q 21.34375 51.125 25.703125 53.5625 
Q 30.078125 56 35.796875 56 
Q 45.21875 56 50.046875 50.171875 
Q 54.890625 44.34375 54.890625 33.015625 
z
" id="DejaVuSans-104"/>
      <path d="M 18.3125 70.21875 
L 18.3125 54.6875 
L 36.8125 54.6875 
L 36.8125 47.703125 
L 18.3125 47.703125 
L 18.3125 18.015625 
Q 18.3125 11.328125 20.140625 9.421875 
Q 21.96875 7.515625 27.59375 7.515625 
L 36.8125 7.515625 
L 36.8125 0 
L 27.59375 0 
Q 17.1875 0 13.234375 3.875 
Q 9.28125 7.765625 9.28125 18.015625 
L 9.28125 47.703125 
L 2.6875 47.703125 
L 2.6875 54.6875 
L 9.28125 54.6875 
L 9.28125 70.21875 
z
" id="DejaVuSans-116"/>
     </defs>
     <g transform="translate(58.426094 211.017552)rotate(-90)scale(0.1 -0.1)">
      <use xlink:href="#DejaVuSans-105"/>
      <use x="27.783203" xlink:href="#DejaVuSans-110"/>
      <use x="91.162109" xlink:href="#DejaVuSans-102"/>
      <use x="126.367188" xlink:href="#DejaVuSans-108"/>
      <use x="154.150391" xlink:href="#DejaVuSans-105"/>
      <use x="181.933594" xlink:href="#DejaVuSans-103"/>
      <use x="245.410156" xlink:href="#DejaVuSans-104"/>
      <use x="308.789062" xlink:href="#DejaVuSans-116"/>
     </g>
     <!-- (bytes) -->
     <defs>
      <path d="M 31 75.875 
Q 24.46875 64.65625 21.28125 53.65625 
Q 18.109375 42.671875 18.109375 31.390625 
Q 18.109375 20.125 21.3125 9.0625 
Q 24.515625 -2 31 -13.1875 
L 23.1875 -13.1875 
Q 15.875 -1.703125 12.234375 9.375 
Q 8.59375 20.453125 8.59375 31.390625 
Q 8.59375 42.28125 12.203125 53.3125 
Q 15.828125 64.359375 23.1875 75.875 
z
" id="DejaVuSans-40"/>
      <path d="M 48.6875 27.296875 
Q 48.6875 37.203125 44.609375 42.84375 
Q 40.53125 48.484375 33.40625 48.484375 
Q 26.265625 48.484375 22.1875 42.84375 
Q 18.109375 37.203125 18.109375 27.296875 
Q 18.109375 17.390625 22.1875 11.75 
Q 26.265625 6.109375 33.40625 6.109375 
Q 40.53125 6.109375 44.609375 11.75 
Q 48.6875 17.390625 48.6875 27.296875 
z
M 18.109375 46.390625 
Q 20.953125 51.265625 25.265625 53.625 
Q 29.59375 56 35.59375 56 
Q 45.5625 56 51.78125 48.09375 
Q 58.015625 40.1875 58.015625 27.296875 
Q 58.015625 14.40625 51.78125 6.484375 
Q 45.5625 -1.421875 35.59375 -1.421875 
Q 29.59375 -1.421875 25.265625 0.953125 
Q 20.953125 3.328125 18.109375 8.203125 
L 18.109375 0 
L 9.078125 0 
L 9.078125 75.984375 
L 18.109375 75.984375 
z
" id="DejaVuSans-98"/>
      <path d="M 32.171875 -5.078125 
Q 28.375 -14.84375 24.75 -17.8125 
Q 21.140625 -20.796875 15.09375 -20.796875 
L 7.90625 -20.796875 
L 7.90625 -13.28125 
L 13.1875 -13.28125 
Q 16.890625 -13.28125 18.9375 -11.515625 
Q 21 -9.765625 23.484375 -3.21875 
L 25.09375 0.875 
L 2.984375 54.6875 
L 12.5 54.6875 
L 29.59375 11.921875 
L 46.6875 54.6875 
L 56.203125 54.6875 
z
" id="DejaVuSans-121"/>
      <path d="M 56.203125 29.59375 
L 56.203125 25.203125 
L 14.890625 25.203125 
Q 15.484375 15.921875 20.484375 11.0625 
Q 25.484375 6.203125 34.421875 6.203125 
Q 39.59375 6.203125 44.453125 7.46875 
Q 49.3125 8.734375 54.109375 11.28125 
L 54.109375 2.78125 
Q 49.265625 0.734375 44.1875 -0.34375 
Q 39.109375 -1.421875 33.890625 -1.421875 
Q 20.796875 -1.421875 13.15625 6.1875 
Q 5.515625 13.8125 5.515625 26.8125 
Q 5.515625 40.234375 12.765625 48.109375 
Q 20.015625 56 32.328125 56 
Q 43.359375 56 49.78125 48.890625 
Q 56.203125 41.796875 56.203125 29.59375 
z
M 47.21875 32.234375 
Q 47.125 39.59375 43.09375 43.984375 
Q 39.0625 48.390625 32.421875 48.390625 
Q 24.90625 48.390625 20.390625 44.140625 
Q 15.875 39.890625 15.1875 32.171875 
z
" id="DejaVuSans-101"/>
      <path d="M 44.28125 53.078125 
L 44.28125 44.578125 
Q 40.484375 46.53125 36.375 47.5 
Q 32.28125 48.484375 27.875 48.484375 
Q 21.1875 48.484375 17.84375 46.4375 
Q 14.5 44.390625 14.5 40.28125 
Q 14.5 37.15625 16.890625 35.375 
Q 19.28125 33.59375 26.515625 31.984375 
L 29.59375 31.296875 
Q 39.15625 29.25 43.1875 25.515625 
Q 47.21875 21.78125 47.21875 15.09375 
Q 47.21875 7.46875 41.1875 3.015625 
Q 35.15625 -1.421875 24.609375 -1.421875 
Q 20.21875 -1.421875 15.453125 -0.5625 
Q 10.6875 0.296875 5.421875 2 
L 5.421875 11.28125 
Q 10.40625 8.6875 15.234375 7.390625 
Q 20.0625 6.109375 24.8125 6.109375 
Q 31.15625 6.109375 34.5625 8.28125 
Q 37.984375 10.453125 37.984375 14.40625 
Q 37.984375 18.0625 35.515625 20.015625 
Q 33.0625 21.96875 24.703125 23.78125 
L 21.578125 24.515625 
Q 13.234375 26.265625 9.515625 29.90625 
Q 5.8125 33.546875 5.8125 39.890625 
Q 5.8125 47.609375 11.28125 51.796875 
Q 16.75 56 26.8125 56 
Q 31.78125 56 36.171875 55.265625 
Q 40.578125 54.546875 44.28125 53.078125 
z
" id="DejaVuSans-115"/>
      <path d="M 8.015625 75.875 
L 15.828125 75.875 
Q 23.140625 64.359375 26.78125 53.3125 
Q 30.421875 42.28125 30.421875 31.390625 
Q 30.421875 20.453125 26.78125 9.375 
Q 23.140625 -1.703125 15.828125 -13.1875 
L 8.015625 -13.1875 
Q 14.5 -2 17.703125 9.0625 
Q 20.90625 20.125 20.90625 31.390625 
Q 20.90625 42.671875 17.703125 53.65625 
Q 14.5 64.65625 8.015625 75.875 
z
" id="DejaVuSans-41"/>
     </defs>
     <g transform="translate(69.623906 211.294896)rotate(-90)scale(0.1 -0.1)">
      <use xlink:href="#DejaVuSans-40"/>
      <use x="39.013672" xlink:href="#DejaVuSans-98"/>
      <use x="102.490234" xlink:href="#DejaVuSans-121"/>
      <use x="161.669922" xlink:href="#DejaVuSans-116"/>
      <use x="200.878906" xlink:href="#DejaVuSans-101"/>
      <use x="262.402344" xlink:href="#DejaVuSans-115"/>
      <use x="314.501953" xlink:href="#DejaVuSans-41"/>
     </g>
    </g>
   </g>
   <g id="line2d_14">
    <path clip-path="url(#p119f6baacd)" d="M 159.131407 300.423743 
L 160.769496 311.318569 
L 165.683762 290.890771 
L 167.321851 279.995945 
L 168.95994 297.700037 
L 177.150384 263.653706 
L 178.788473 255.482586 
L 182.06465 241.864054 
L 183.702739 156.067299 
L 185.340828 260.929999 
L 186.978916 248.67332 
L 188.617005 243.225907 
L 190.255094 239.885228 
L 191.893183 237.161522 
L 193.531272 231.714109 
L 195.16936 256.844439 
L 196.807449 254.120733 
L 198.445538 240.5022 
L 200.083627 235.054787 
L 201.721716 233.075962 
L 203.359804 266.377412 
L 204.997893 222.798108 
L 206.635982 233.692934 
L 208.274071 251.397026 
L 209.91216 239.885228 
L 211.550248 230.969228 
L 213.188337 262.291852 
L 214.826426 256.844439 
L 219.740692 236.416641 
L 221.378781 230.969228 
L 223.01687 224.904843 
L 224.654959 217.350695 
L 226.293047 233.692934 
L 227.931136 270.462972 
L 229.569225 285.443358 
L 231.207314 251.397026 
L 232.845403 186.028071 
L 234.483491 230.352256 
L 236.12158 215.37187 
L 237.759669 206.455869 
L 239.397758 236.416641 
L 241.035847 237.778494 
L 242.673935 230.352256 
L 244.312024 223.542989 
L 245.950113 219.45743 
L 247.588202 258.951174 
L 249.226291 238.523375 
L 250.864379 232.331081 
L 252.502468 225.521815 
L 254.140557 220.074402 
L 255.778646 254.120733 
L 257.416734 248.67332 
L 259.054823 240.5022 
L 260.692912 235.054787 
L 262.331001 227.628549 
L 263.96909 222.181136 
L 265.607178 263.653706 
L 267.245267 208.562604 
L 268.883356 204.477044 
L 270.521445 197.667778 
L 272.159534 288.167064 
L 273.797622 222.798108 
L 275.435711 210.541429 
L 277.0738 211.903282 
L 278.711889 244.58776 
L 280.349978 237.161522 
L 281.988066 231.714109 
L 283.626155 230.969228 
L 285.264244 218.095576 
L 286.902333 230.352256 
L 288.540422 250.035173 
L 290.17851 236.416641 
L 291.816599 256.844439 
L 293.454688 220.819283 
L 295.092777 216.733723 
L 296.730865 256.844439 
L 298.368954 247.311467 
L 303.283221 230.969228 
L 304.921309 263.653706 
L 306.559398 250.780054 
L 308.197487 247.311467 
L 309.835576 233.692934 
L 311.473665 256.844439 
L 313.111753 227.628549 
L 314.749842 222.798108 
L 316.387931 216.733723 
L 318.02602 209.924457 
L 319.664109 256.844439 
L 321.302197 197.667778 
L 322.940286 192.220365 
L 324.578375 253.503761 
L 326.216464 219.45743 
L 327.854553 207.20075 
L 329.492641 201.753337 
L 331.13073 233.692934 
L 332.768819 255.482586 
L 334.406908 269.101119 
L 336.044996 226.266696 
L 337.683085 259.568146 
L 339.321174 251.397026 
L 340.959263 247.311467 
L 342.597352 237.778494 
L 344.23544 235.799669 
L 345.873529 228.990402 
L 347.511618 278.634091 
L 349.149707 251.397026 
L 350.787796 240.5022 
L 354.063973 226.883668 
L 355.702062 224.159961 
L 357.340151 284.081504 
L 358.97824 251.397026 
L 360.616328 247.311467 
L 362.254417 237.161522 
L 365.530595 223.542989 
L 367.168684 160.89774 
L 368.806772 247.311467 
L 370.444861 235.054787 
L 372.08295 228.990402 
L 373.721039 262.291852 
L 376.997216 250.035173 
L 378.635305 253.503761 
L 380.273394 235.054787 
L 381.911483 228.990402 
L 383.549571 223.542989 
L 385.18766 259.568146 
L 386.825749 245.949613 
L 388.463838 235.054787 
L 390.101927 265.015559 
L 391.740015 259.568146 
L 393.378104 252.75888 
L 395.016193 244.58776 
L 396.654282 274.548532 
L 398.292371 293.614477 
L 403.206637 273.186678 
L 404.844726 267.739265 
L 406.482815 259.568146 
L 408.120903 281.357798 
L 409.758992 297.700037 
L 411.397081 289.528917 
L 413.03517 282.719651 
L 416.311347 266.377412 
L 417.949436 259.568146 
L 419.587525 278.634091 
L 421.225614 270.462972 
L 422.863702 265.015559 
L 424.501791 260.929999 
L 426.13988 255.482586 
L 427.777969 278.634091 
L 429.416058 269.101119 
L 431.054146 260.929999 
L 434.330324 252.75888 
L 435.968413 281.357798 
L 437.606502 269.101119 
L 439.24459 260.929999 
L 440.882679 254.120733 
L 442.520768 250.780054 
L 444.158857 243.970788 
L 445.796946 270.462972 
L 447.435034 259.568146 
L 449.073123 251.397026 
L 452.349301 241.864054 
L 453.987389 238.523375 
L 455.625478 265.015559 
L 457.263567 254.120733 
L 458.901656 245.949613 
L 460.539745 241.864054 
L 462.177833 234.437815 
L 463.815922 245.949613 
L 465.454011 228.990402 
L 467.0921 255.482586 
L 468.730189 210.541429 
L 470.368277 281.357798 
L 472.006366 284.081504 
L 473.644455 237.161522 
L 475.282544 281.357798 
L 476.920633 254.120733 
L 478.558721 250.035173 
L 480.19681 244.58776 
L 481.834899 274.548532 
L 483.472988 266.377412 
L 485.111076 255.482586 
L 486.749165 247.311467 
L 488.387254 241.247082 
L 490.025343 237.778494 
L 491.663432 233.692934 
L 493.30152 232.331081 
L 494.939609 224.904843 
L 496.577698 233.692934 
L 498.215787 211.28631 
L 499.853876 205.838897 
L 503.130053 193.582218 
L 504.768142 188.134805 
L 506.406231 231.714109 
L 508.04432 216.733723 
L 509.682408 251.397026 
L 511.320497 244.58776 
L 511.320497 244.58776 
" style="fill:none;stroke:#1f77b4;stroke-linecap:square;stroke-width:1.5;"/>
   </g>
   <g id="line2d_15">
    <path clip-path="url(#p119f6baacd)" d="M 152.651128 241.247082 
L 154.289217 160.152859 
L 155.927305 49.225774 
L 157.565394 120.659115 
L 159.203483 95.528784 
L 160.841572 282.719651 
L 162.479661 151.364767 
L 164.117749 214.626989 
L 165.755838 139.108088 
L 167.393927 240.5022 
L 169.032016 211.903282 
L 170.670104 209.179576 
L 172.308193 178.601832 
L 173.946282 174.516272 
L 175.584371 258.951174 
L 177.22246 241.247082 
L 178.860548 208.562604 
L 180.498637 251.397026 
L 182.136726 185.411098 
L 183.774815 233.075962 
L 185.412904 222.181136 
L 187.050992 215.37187 
L 188.689081 207.20075 
L 190.32717 207.20075 
L 191.965259 200.391484 
L 193.603348 194.944071 
L 195.241436 230.969228 
L 198.517614 211.28631 
L 200.155703 240.5022 
L 201.793791 239.885228 
L 203.43188 194.944071 
L 205.069969 194.19919 
L 206.708058 232.331081 
L 208.346147 239.140347 
L 211.622324 214.010017 
L 213.260413 251.397026 
L 214.898502 240.5022 
L 216.536591 236.416641 
L 218.174679 230.969228 
L 219.812768 224.904843 
L 221.450857 218.095576 
L 223.088946 269.101119 
L 224.727035 241.247082 
L 226.365123 269.846 
L 229.641301 257.58932 
L 231.27939 278.634091 
L 232.917479 270.462972 
L 234.555567 290.890771 
L 236.193656 282.719651 
L 237.831745 275.910385 
L 239.469834 267.739265 
L 242.746011 254.120733 
L 244.3841 249.418201 
L 246.022189 237.778494 
L 247.660278 269.101119 
L 249.298366 256.844439 
L 250.936455 248.67332 
L 252.574544 241.864054 
L 254.212633 237.778494 
L 255.850722 267.739265 
L 262.403077 240.5022 
L 264.041166 234.437815 
L 265.679254 263.653706 
L 267.317343 253.503761 
L 268.955432 244.58776 
L 270.593521 239.140347 
L 272.23161 235.054787 
L 273.869698 233.692934 
L 275.507787 228.990402 
L 277.145876 220.819283 
L 278.783965 216.733723 
L 280.422053 210.541429 
L 282.060142 241.864054 
L 283.698231 237.778494 
L 285.33632 225.521815 
L 286.974409 218.095576 
L 288.612497 254.120733 
L 291.888675 241.864054 
L 293.526764 234.437815 
L 295.164853 228.245521 
L 296.802941 263.653706 
L 298.44103 250.035173 
L 300.079119 240.5022 
L 301.717208 234.437815 
L 303.355297 230.352256 
L 304.993385 263.653706 
L 308.269563 250.035173 
L 309.907652 243.970788 
L 311.545741 235.054787 
L 313.183829 263.653706 
L 314.821918 252.75888 
L 316.460007 243.225907 
L 318.098096 273.186678 
L 321.374273 262.291852 
L 323.012362 254.120733 
L 324.650451 275.910385 
L 326.28854 266.377412 
L 327.926628 260.929999 
L 329.564717 257.58932 
L 331.202806 250.035173 
L 334.478984 236.416641 
L 336.117072 230.352256 
L 337.755161 259.568146 
L 339.39325 247.311467 
L 341.031339 239.140347 
L 342.669428 234.437815 
L 344.307516 230.352256 
L 345.945605 236.416641 
L 347.583694 223.542989 
L 349.221783 254.120733 
L 350.859872 239.140347 
L 352.49796 235.054787 
L 354.136049 228.245521 
L 355.774138 202.37031 
L 357.412227 258.206293 
L 359.050315 251.397026 
L 360.688404 250.035173 
L 362.326493 237.778494 
L 363.964582 254.120733 
L 365.602671 226.266696 
L 367.240759 236.416641 
L 368.878848 209.924457 
L 370.516937 204.477044 
L 372.155026 198.28475 
L 373.793115 237.778494 
L 375.431203 226.266696 
L 377.069292 269.101119 
L 378.707381 250.035173 
L 380.34547 243.225907 
L 381.983559 237.778494 
L 383.621647 233.692934 
L 385.259736 226.266696 
L 386.897825 219.45743 
L 390.174003 208.562604 
L 391.812091 232.331081 
L 393.45018 192.837337 
L 395.088269 262.291852 
L 396.726358 182.687392 
L 398.364446 281.357798 
L 400.002535 256.844439 
L 401.640624 265.015559 
L 403.278713 159.535887 
L 404.916802 205.838897 
L 406.55489 190.858511 
L 408.192979 180.580658 
L 409.831068 273.931559 
L 411.469157 216.733723 
L 413.107246 211.28631 
L 414.745334 270.462972 
L 416.383423 200.391484 
L 418.021512 193.582218 
L 419.659601 241.247082 
L 421.29769 244.58776 
L 422.935778 209.179576 
L 424.573867 226.883668 
L 426.211956 269.846 
L 427.850045 239.885228 
L 429.488133 235.054787 
L 431.126222 224.159961 
L 432.764311 223.542989 
L 434.4024 215.37187 
L 436.040489 108.402436 
L 437.678577 240.5022 
L 439.316666 226.266696 
L 440.954755 259.568146 
L 442.592844 255.482586 
L 444.230933 273.931559 
L 445.869021 251.397026 
L 447.50711 244.58776 
L 449.145199 239.140347 
L 450.783288 229.607374 
L 452.421377 226.266696 
L 454.059465 230.969228 
L 455.697554 212.648163 
L 457.335643 207.20075 
L 458.973732 245.949613 
L 460.611821 230.969228 
L 462.249909 220.074402 
L 463.887998 214.010017 
L 465.526087 226.883668 
L 467.164176 246.694495 
L 468.802264 239.885228 
L 470.440353 289.528917 
L 472.078442 232.331081 
L 473.716531 221.436255 
L 475.35462 212.648163 
L 476.992708 252.75888 
L 478.630797 237.778494 
L 480.268886 228.990402 
L 481.906975 223.542989 
L 483.545064 258.206293 
L 485.183152 250.035173 
L 486.821241 244.58776 
L 488.45933 239.885228 
L 490.097419 233.075962 
L 491.735508 225.521815 
L 493.373596 258.206293 
L 495.011685 247.311467 
L 496.649774 238.523375 
L 498.287863 230.969228 
L 499.925952 263.653706 
L 501.56404 256.844439 
L 503.202129 253.503761 
L 504.840218 245.949613 
L 504.840218 245.949613 
" style="fill:none;stroke:#ff7f0e;stroke-linecap:square;stroke-width:1.5;"/>
   </g>
   <g id="line2d_16">
    <path clip-path="url(#p119f6baacd)" d="M 139.471065 256.227467 
L 141.109154 214.010017 
L 142.747243 239.885228 
L 144.385332 246.694495 
L 146.023421 267.739265 
L 147.661509 263.653706 
L 149.299598 266.377412 
L 150.937687 253.503761 
L 152.575776 215.988842 
L 154.213864 280.740826 
L 155.851953 258.206293 
L 157.490042 258.206293 
L 159.128131 283.464532 
L 160.76622 253.503761 
L 162.404308 247.311467 
L 164.042397 267.122293 
L 165.680486 232.331081 
L 167.318575 215.37187 
L 168.956664 248.056348 
L 170.594752 224.904843 
L 172.232841 260.313027 
L 173.87093 250.780054 
L 175.509019 294.359358 
L 177.147108 256.844439 
L 178.785196 292.252624 
L 180.423285 254.865614 
L 182.061374 254.865614 
L 183.699463 253.503761 
L 185.337551 272.569706 
L 186.97564 255.482586 
L 188.613729 250.780054 
L 190.251818 282.102679 
L 191.889907 284.826385 
L 193.527995 292.997505 
L 195.166084 245.332641 
L 196.804173 280.740826 
L 200.080351 253.503761 
L 201.718439 260.929999 
L 203.356528 253.503761 
L 204.994617 237.778494 
L 206.632706 245.949613 
L 208.270795 220.074402 
L 209.908883 217.350695 
L 211.546972 213.265136 
L 213.185061 248.67332 
L 214.82315 235.054787 
L 216.461239 226.883668 
L 218.099327 220.074402 
L 219.737416 214.626989 
L 221.375505 215.988842 
L 223.013594 210.541429 
L 224.651682 219.45743 
L 226.289771 246.694495 
L 227.92786 203.732163 
L 229.565949 280.740826 
L 231.204038 235.799669 
L 232.842126 263.036733 
L 234.480215 243.225907 
L 236.118304 233.692934 
L 237.756393 248.67332 
L 239.394482 243.970788 
L 241.03257 274.548532 
L 242.670659 257.58932 
L 244.308748 294.359358 
L 245.946837 258.951174 
L 249.223014 230.969228 
L 250.861103 218.712549 
L 252.499192 210.541429 
L 254.137281 205.094016 
L 255.77537 244.58776 
L 257.413458 245.949613 
L 259.051547 230.969228 
L 260.689636 225.521815 
L 263.965813 211.903282 
L 265.603902 247.311467 
L 267.241991 233.692934 
L 268.88008 225.521815 
L 270.518169 225.521815 
L 272.156257 254.120733 
L 273.794346 256.844439 
L 275.432435 243.225907 
L 277.070524 245.949613 
L 278.708613 269.846 
L 280.346701 228.245521 
L 281.98479 269.101119 
L 283.622879 243.225907 
L 285.260968 236.416641 
L 286.899057 230.969228 
L 288.537145 263.653706 
L 290.175234 256.844439 
L 291.813323 247.311467 
L 293.451412 252.75888 
L 295.089501 237.778494 
L 296.727589 230.969228 
L 298.365678 228.245521 
L 300.003767 218.712549 
L 301.641856 210.541429 
L 303.279944 207.20075 
L 304.918033 245.949613 
L 306.556122 232.331081 
L 308.194211 248.67332 
L 309.8323 214.626989 
L 311.470388 233.692934 
L 313.108477 245.332641 
L 314.746566 231.714109 
L 316.384655 221.436255 
L 318.022744 248.67332 
L 319.660832 237.778494 
L 321.298921 221.436255 
L 322.93701 257.58932 
L 324.575099 252.75888 
L 326.213188 255.482586 
L 327.851276 265.76044 
L 329.489365 240.5022 
L 331.127454 226.883668 
L 332.765543 222.798108 
L 334.403632 213.265136 
L 336.04172 220.074402 
L 337.679809 244.58776 
L 339.317898 233.692934 
L 340.955987 228.245521 
L 342.594075 214.626989 
L 344.232164 211.903282 
L 345.870253 266.377412 
L 347.508342 231.714109 
L 349.146431 247.311467 
L 350.784519 237.778494 
L 352.422608 233.692934 
L 354.060697 228.245521 
L 355.698786 221.436255 
L 357.336875 235.054787 
L 358.974963 272.569706 
L 360.613052 256.844439 
L 362.251141 254.865614 
L 363.88923 206.455869 
L 365.527319 276.655266 
L 367.165407 250.035173 
L 368.803496 265.76044 
L 370.441585 252.75888 
L 372.079674 269.101119 
L 373.717763 265.76044 
L 375.355851 229.607374 
L 376.99394 213.265136 
L 378.632029 251.397026 
L 380.270118 241.864054 
L 381.908206 240.5022 
L 383.546295 235.054787 
L 385.184384 225.521815 
L 386.822473 217.350695 
L 388.460562 214.626989 
L 390.09865 248.67332 
L 391.736739 237.778494 
L 393.374828 225.521815 
L 396.651006 215.988842 
L 398.289094 332.491249 
L 399.927183 247.311467 
L 401.565272 240.5022 
L 403.203361 235.054787 
L 406.479538 226.883668 
L 408.117627 245.949613 
L 409.755716 250.780054 
L 411.393805 239.885228 
L 413.031893 280.740826 
L 414.669982 255.482586 
L 416.308071 263.653706 
L 417.94616 209.179576 
L 419.584249 240.5022 
L 421.222337 225.521815 
L 422.860426 287.550092 
L 424.498515 221.436255 
L 426.136604 288.911945 
L 427.774693 248.67332 
L 429.412781 258.206293 
L 431.05087 236.416641 
L 432.688959 230.969228 
L 434.327048 224.159961 
L 435.965137 230.969228 
L 437.603225 229.607374 
L 439.241314 259.568146 
L 440.879403 269.846 
L 442.517492 214.626989 
L 444.155581 215.37187 
L 445.793669 259.568146 
L 447.431758 232.331081 
L 449.069847 224.159961 
L 450.707936 236.416641 
L 452.346024 250.780054 
L 453.984113 242.608935 
L 455.622202 253.503761 
L 457.260291 258.951174 
L 458.89838 245.949613 
L 460.536468 254.120733 
L 462.174557 249.418201 
L 463.812646 259.568146 
L 465.450735 210.541429 
L 467.088824 219.45743 
L 468.726912 252.141907 
L 470.365001 254.120733 
L 472.00309 238.523375 
L 473.641179 243.225907 
L 475.279268 230.969228 
L 476.917356 220.074402 
L 478.555445 256.227467 
L 480.193534 274.548532 
L 481.831623 254.865614 
L 483.469712 255.482586 
L 485.1078 235.054787 
L 486.745889 224.159961 
L 488.383978 215.988842 
L 490.022067 211.903282 
L 491.660155 214.626989 
L 491.660155 214.626989 
" style="fill:none;stroke:#2ca02c;stroke-linecap:square;stroke-width:1.5;"/>
   </g>
   <g id="line2d_17">
    <path clip-path="url(#p119f6baacd)" d="M 146.043078 266.377412 
L 147.681166 267.122293 
L 149.319255 256.844439 
L 150.957344 267.122293 
L 152.595433 214.010017 
L 154.233522 279.378972 
L 155.87161 228.245521 
L 157.509699 254.865614 
L 159.147788 194.944071 
L 160.785877 222.798108 
L 162.423965 257.58932 
L 164.062054 278.017119 
L 165.700143 243.225907 
L 167.338232 219.45743 
L 168.976321 243.225907 
L 170.614409 226.883668 
L 172.252498 222.798108 
L 173.890587 235.054787 
L 175.528676 217.350695 
L 177.166765 252.75888 
L 178.804853 241.864054 
L 180.442942 232.331081 
L 182.081031 224.159961 
L 183.71912 277.272238 
L 185.357209 274.548532 
L 186.995297 247.311467 
L 188.633386 241.864054 
L 190.271475 241.864054 
L 191.909564 228.245521 
L 193.547653 222.798108 
L 195.185741 254.120733 
L 196.82383 243.225907 
L 198.461919 240.5022 
L 200.100008 236.416641 
L 201.738096 224.159961 
L 203.376185 232.331081 
L 205.014274 258.206293 
L 206.652363 247.311467 
L 208.290452 237.778494 
L 209.92854 235.054787 
L 211.566629 228.245521 
L 213.204718 262.291852 
L 214.842807 254.120733 
L 218.118984 240.5022 
L 219.757073 239.140347 
L 221.395162 226.883668 
L 224.67134 215.988842 
L 226.309428 255.482586 
L 227.947517 237.778494 
L 229.585606 226.883668 
L 231.223695 235.054787 
L 232.861784 222.798108 
L 234.499872 278.017119 
L 236.137961 278.017119 
L 239.414139 220.074402 
L 241.052227 254.865614 
L 242.690316 219.45743 
L 244.328405 249.418201 
L 245.966494 210.541429 
L 247.604583 248.67332 
L 249.242671 233.692934 
L 250.88076 224.159961 
L 252.518849 217.350695 
L 254.156938 211.903282 
L 255.795027 248.67332 
L 260.709293 228.245521 
L 262.347382 225.521815 
L 263.985471 215.988842 
L 265.623559 259.568146 
L 267.261648 236.416641 
L 270.537826 222.798108 
L 272.175915 229.607374 
L 273.814003 215.988842 
L 275.452092 225.521815 
L 277.090181 213.265136 
L 278.72827 249.418201 
L 280.366358 220.074402 
L 282.004447 257.58932 
L 283.642536 255.482586 
L 285.280625 270.462972 
L 286.918714 248.056348 
L 288.556802 241.864054 
L 290.194891 229.607374 
L 291.83298 237.778494 
L 293.471069 213.265136 
L 295.109158 265.015559 
L 296.747246 248.67332 
L 298.385335 239.140347 
L 300.023424 236.416641 
L 301.661513 235.054787 
L 303.299602 226.883668 
L 304.93769 254.865614 
L 306.575779 218.095576 
L 308.213868 262.291852 
L 309.851957 250.780054 
L 311.490046 226.266696 
L 313.128134 209.924457 
L 314.766223 252.141907 
L 316.404312 213.265136 
L 318.042401 245.949613 
L 319.680489 232.331081 
L 321.318578 221.436255 
L 322.956667 283.464532 
L 324.594756 273.931559 
L 326.232845 267.739265 
L 327.870933 249.418201 
L 329.509022 259.568146 
L 331.147111 271.824825 
L 332.7852 243.225907 
L 334.423289 281.357798 
L 336.061377 241.247082 
L 337.699466 241.864054 
L 339.337555 228.245521 
L 340.975644 218.712549 
L 342.613733 211.903282 
L 344.251821 271.207853 
L 345.88991 298.444918 
L 347.527999 208.562604 
L 349.166088 237.778494 
L 350.804176 224.159961 
L 352.442265 215.988842 
L 354.080354 209.179576 
L 355.718443 209.179576 
L 357.356532 286.805211 
L 358.99462 270.462972 
L 360.632709 267.739265 
L 362.270798 282.719651 
L 363.908887 229.607374 
L 365.546976 274.548532 
L 367.185064 228.245521 
L 368.823153 276.655266 
L 370.461242 258.206293 
L 372.099331 280.740826 
L 373.73742 241.864054 
L 375.375508 220.074402 
L 377.013597 207.817723 
L 378.651686 222.181136 
L 380.289775 228.245521 
L 381.927864 245.949613 
L 383.565952 250.035173 
L 385.204041 87.357665 
L 386.84213 229.607374 
L 388.480219 229.607374 
L 390.118307 259.568146 
L 391.756396 251.397026 
L 393.394485 247.311467 
L 396.670663 230.969228 
L 398.308751 226.883668 
L 399.94684 238.523375 
L 401.584929 217.350695 
L 403.223018 218.712549 
L 404.861107 248.67332 
L 406.499195 239.140347 
L 408.137284 295.721211 
L 409.775373 247.311467 
L 411.413462 233.075962 
L 413.051551 280.740826 
L 414.689639 237.161522 
L 416.327728 268.484146 
L 417.965817 202.37031 
L 419.603906 240.5022 
L 421.241995 235.054787 
L 422.880083 243.970788 
L 424.518172 221.436255 
L 426.156261 221.436255 
L 429.432438 263.653706 
L 431.070527 269.846 
L 432.708616 211.903282 
L 435.984794 201.008456 
L 437.622882 269.846 
L 439.260971 243.970788 
L 440.89906 232.331081 
L 442.537149 260.929999 
L 444.175238 284.826385 
L 445.813326 239.140347 
L 447.451415 260.929999 
L 449.089504 202.37031 
L 452.365682 282.719651 
L 454.00377 301.168624 
L 455.641859 262.291852 
L 457.279948 251.397026 
L 458.918037 273.931559 
L 460.556126 279.995945 
L 462.194214 278.634091 
L 463.832303 242.608935 
L 465.470392 233.075962 
L 467.108481 275.910385 
L 468.746569 243.970788 
L 470.384658 245.332641 
L 472.022747 271.207853 
L 473.660836 230.969228 
L 475.298925 225.521815 
L 476.937013 252.141907 
L 478.575102 276.655266 
L 480.213191 283.464532 
L 481.85128 210.541429 
L 483.489369 254.120733 
L 485.127457 239.140347 
L 486.765546 228.245521 
L 488.403635 220.074402 
L 490.041724 215.988842 
L 491.679813 213.265136 
L 493.317901 209.179576 
L 494.95599 253.503761 
L 496.594079 260.313027 
L 498.232168 210.541429 
L 498.232168 210.541429 
" style="fill:none;stroke:#d62728;stroke-linecap:square;stroke-width:1.5;"/>
   </g>
   <g id="patch_3">
    <path d="M 120.878594 352.174167 
L 120.878594 35.0625 
" style="fill:none;stroke:#000000;stroke-linecap:square;stroke-linejoin:miter;stroke-width:0.8;"/>
   </g>
   <g id="patch_4">
    <path d="M 529.912969 352.174167 
L 529.912969 35.0625 
" style="fill:none;stroke:#000000;stroke-linecap:square;stroke-linejoin:miter;stroke-width:0.8;"/>
   </g>
   <g id="patch_5">
    <path d="M 120.878594 352.174167 
L 529.912969 352.174167 
" style="fill:none;stroke:#000000;stroke-linecap:square;stroke-linejoin:miter;stroke-width:0.8;"/>
   </g>
   <g id="patch_6">
    <path d="M 120.878594 35.0625 
L 529.912969 35.0625 
" style="fill:none;stroke:#000000;stroke-linecap:square;stroke-linejoin:miter;stroke-width:0.8;"/>
   </g>
   <g id="legend_1">
    <g id="patch_7">
     <path d="M 552.364687 96.775 
L 623.56 96.775 
Q 625.56 96.775 625.56 94.775 
L 625.56 37.0625 
Q 625.56 35.0625 623.56 35.0625 
L 552.364687 35.0625 
Q 550.364687 35.0625 550.364687 37.0625 
L 550.364687 94.775 
Q 550.364687 96.775 552.364687 96.775 
z
" style="fill:#ffffff;opacity:0.8;stroke:#cccccc;stroke-linejoin:miter;"/>
    </g>
    <g id="line2d_18">
     <path d="M 554.364687 43.160937 
L 574.364687 43.160937 
" style="fill:none;stroke:#1f77b4;stroke-linecap:square;stroke-width:1.5;"/>
    </g>
    <g id="line2d_19"/>
    <g id="text_15">
     <!-- cubic-pi -->
     <defs>
      <path d="M 48.78125 52.59375 
L 48.78125 44.1875 
Q 44.96875 46.296875 41.140625 47.34375 
Q 37.3125 48.390625 33.40625 48.390625 
Q 24.65625 48.390625 19.8125 42.84375 
Q 14.984375 37.3125 14.984375 27.296875 
Q 14.984375 17.28125 19.8125 11.734375 
Q 24.65625 6.203125 33.40625 6.203125 
Q 37.3125 6.203125 41.140625 7.25 
Q 44.96875 8.296875 48.78125 10.40625 
L 48.78125 2.09375 
Q 45.015625 0.34375 40.984375 -0.53125 
Q 36.96875 -1.421875 32.421875 -1.421875 
Q 20.0625 -1.421875 12.78125 6.34375 
Q 5.515625 14.109375 5.515625 27.296875 
Q 5.515625 40.671875 12.859375 48.328125 
Q 20.21875 56 33.015625 56 
Q 37.15625 56 41.109375 55.140625 
Q 45.0625 54.296875 48.78125 52.59375 
z
" id="DejaVuSans-99"/>
      <path d="M 8.5 21.578125 
L 8.5 54.6875 
L 17.484375 54.6875 
L 17.484375 21.921875 
Q 17.484375 14.15625 20.5 10.265625 
Q 23.53125 6.390625 29.59375 6.390625 
Q 36.859375 6.390625 41.078125 11.03125 
Q 45.3125 15.671875 45.3125 23.6875 
L 45.3125 54.6875 
L 54.296875 54.6875 
L 54.296875 0 
L 45.3125 0 
L 45.3125 8.40625 
Q 42.046875 3.421875 37.71875 1 
Q 33.40625 -1.421875 27.6875 -1.421875 
Q 18.265625 -1.421875 13.375 4.4375 
Q 8.5 10.296875 8.5 21.578125 
z
M 31.109375 56 
z
" id="DejaVuSans-117"/>
      <path d="M 4.890625 31.390625 
L 31.203125 31.390625 
L 31.203125 23.390625 
L 4.890625 23.390625 
z
" id="DejaVuSans-45"/>
      <path d="M 18.109375 8.203125 
L 18.109375 -20.796875 
L 9.078125 -20.796875 
L 9.078125 54.6875 
L 18.109375 54.6875 
L 18.109375 46.390625 
Q 20.953125 51.265625 25.265625 53.625 
Q 29.59375 56 35.59375 56 
Q 45.5625 56 51.78125 48.09375 
Q 58.015625 40.1875 58.015625 27.296875 
Q 58.015625 14.40625 51.78125 6.484375 
Q 45.5625 -1.421875 35.59375 -1.421875 
Q 29.59375 -1.421875 25.265625 0.953125 
Q 20.953125 3.328125 18.109375 8.203125 
z
M 48.6875 27.296875 
Q 48.6875 37.203125 44.609375 42.84375 
Q 40.53125 48.484375 33.40625 48.484375 
Q 26.265625 48.484375 22.1875 42.84375 
Q 18.109375 37.203125 18.109375 27.296875 
Q 18.109375 17.390625 22.1875 11.75 
Q 26.265625 6.109375 33.40625 6.109375 
Q 40.53125 6.109375 44.609375 11.75 
Q 48.6875 17.390625 48.6875 27.296875 
z
" id="DejaVuSans-112"/>
     </defs>
     <g transform="translate(582.364687 46.660937)scale(0.1 -0.1)">
      <use xlink:href="#DejaVuSans-99"/>
      <use x="54.980469" xlink:href="#DejaVuSans-117"/>
      <use x="118.359375" xlink:href="#DejaVuSans-98"/>
      <use x="181.835938" xlink:href="#DejaVuSans-105"/>
      <use x="209.619141" xlink:href="#DejaVuSans-99"/>
      <use x="264.599609" xlink:href="#DejaVuSans-45"/>
      <use x="300.683594" xlink:href="#DejaVuSans-112"/>
      <use x="364.160156" xlink:href="#DejaVuSans-105"/>
     </g>
    </g>
    <g id="line2d_20">
     <path d="M 554.364687 57.839063 
L 574.364687 57.839063 
" style="fill:none;stroke:#ff7f0e;stroke-linecap:square;stroke-width:1.5;"/>
    </g>
    <g id="line2d_21"/>
    <g id="text_16">
     <!-- cubic-pi -->
     <g transform="translate(582.364687 61.339063)scale(0.1 -0.1)">
      <use xlink:href="#DejaVuSans-99"/>
      <use x="54.980469" xlink:href="#DejaVuSans-117"/>
      <use x="118.359375" xlink:href="#DejaVuSans-98"/>
      <use x="181.835938" xlink:href="#DejaVuSans-105"/>
      <use x="209.619141" xlink:href="#DejaVuSans-99"/>
      <use x="264.599609" xlink:href="#DejaVuSans-45"/>
      <use x="300.683594" xlink:href="#DejaVuSans-112"/>
      <use x="364.160156" xlink:href="#DejaVuSans-105"/>
     </g>
    </g>
    <g id="line2d_22">
     <path d="M 554.364687 72.517187 
L 574.364687 72.517187 
" style="fill:none;stroke:#2ca02c;stroke-linecap:square;stroke-width:1.5;"/>
    </g>
    <g id="line2d_23"/>
    <g id="text_17">
     <!-- cubic-pi -->
     <g transform="translate(582.364687 76.017187)scale(0.1 -0.1)">
      <use xlink:href="#DejaVuSans-99"/>
      <use x="54.980469" xlink:href="#DejaVuSans-117"/>
      <use x="118.359375" xlink:href="#DejaVuSans-98"/>
      <use x="181.835938" xlink:href="#DejaVuSans-105"/>
      <use x="209.619141" xlink:href="#DejaVuSans-99"/>
      <use x="264.599609" xlink:href="#DejaVuSans-45"/>
      <use x="300.683594" xlink:href="#DejaVuSans-112"/>
      <use x="364.160156" xlink:href="#DejaVuSans-105"/>
     </g>
    </g>
    <g id="line2d_24">
     <path d="M 554.364687 87.195312 
L 574.364687 87.195312 
" style="fill:none;stroke:#d62728;stroke-linecap:square;stroke-width:1.5;"/>
    </g>
    <g id="line2d_25"/>
    <g id="text_18">
     <!-- cubic-pi -->
     <g transform="translate(582.364687 90.695312)scale(0.1 -0.1)">
      <use xlink:href="#DejaVuSans-99"/>
      <use x="54.980469" xlink:href="#DejaVuSans-117"/>
      <use x="118.359375" xlink:href="#DejaVuSans-98"/>
      <use x="181.835938" xlink:href="#DejaVuSans-105"/>
      <use x="209.619141" xlink:href="#DejaVuSans-99"/>
      <use x="264.599609" xlink:href="#DejaVuSans-45"/>
      <use x="300.683594" xlink:href="#DejaVuSans-112"/>
      <use x="364.160156" xlink:href="#DejaVuSans-105"/>
     </g>
    </g>
   </g>
  </g>
  <g id="text_19">
   <!-- result inflight -->
   <defs>
    <path d="M 41.109375 46.296875 
Q 39.59375 47.171875 37.8125 47.578125 
Q 36.03125 48 33.890625 48 
Q 26.265625 48 22.1875 43.046875 
Q 18.109375 38.09375 18.109375 28.8125 
L 18.109375 0 
L 9.078125 0 
L 9.078125 54.6875 
L 18.109375 54.6875 
L 18.109375 46.1875 
Q 20.953125 51.171875 25.484375 53.578125 
Q 30.03125 56 36.53125 56 
Q 37.453125 56 38.578125 55.875 
Q 39.703125 55.765625 41.0625 55.515625 
z
" id="DejaVuSans-114"/>
    <path id="DejaVuSans-32"/>
   </defs>
   <g transform="translate(302.110313 17.038125)scale(0.12 -0.12)">
    <use xlink:href="#DejaVuSans-114"/>
    <use x="41.082031" xlink:href="#DejaVuSans-101"/>
    <use x="102.605469" xlink:href="#DejaVuSans-115"/>
    <use x="154.705078" xlink:href="#DejaVuSans-117"/>
    <use x="218.083984" xlink:href="#DejaVuSans-108"/>
    <use x="245.867188" xlink:href="#DejaVuSans-116"/>
    <use x="285.076172" xlink:href="#DejaVuSans-32"/>
    <use x="316.863281" xlink:href="#DejaVuSans-105"/>
    <use x="344.646484" xlink:href="#DejaVuSans-110"/>
    <use x="408.025391" xlink:href="#DejaVuSans-102"/>
    <use x="443.230469" xlink:href="#DejaVuSans-108"/>
    <use x="471.013672" xlink:href="#DejaVuSans-105"/>
    <use x="498.796875" xlink:href="#DejaVuSans-103"/>
    <use x="562.273438" xlink:href="#DejaVuSans-104"/>
    <use x="625.652344" xlink:href="#DejaVuSans-116"/>
   </g>
  </g>
 </g>
 <defs>
  <clipPath id="p119f6baacd">
   <rect height="317.111667" width="409.034375" x="120.878594" y="35.0625"/>
  </clipPath>
 </defs>
</svg>
