<?xml version="1.0" encoding="utf-8" standalone="no"?>
<!DOCTYPE svg PUBLIC "-//W3C//DTD SVG 1.1//EN"
  "http://www.w3.org/Graphics/SVG/1.1/DTD/svg11.dtd">
<!-- Created with matplotlib (https://matplotlib.org/) -->
<svg height="396pt" version="1.1" viewBox="0 0 684 396" width="684pt" xmlns="http://www.w3.org/2000/svg" xmlns:xlink="http://www.w3.org/1999/xlink">
 <defs>
  <style type="text/css">
*{stroke-linecap:butt;stroke-linejoin:round;}
  </style>
 </defs>
 <g id="figure_1">
  <g id="patch_1">
   <path d="M 0 396 
L 684 396 
L 684 0 
L 0 0 
z
" style="fill:#ffffff;"/>
  </g>
  <g id="axes_1">
   <g id="patch_2">
    <path d="M 92.823906 352.174167 
L 488.365312 352.174167 
L 488.365312 35.0625 
L 92.823906 35.0625 
z
" style="fill:#ffffff;"/>
   </g>
   <g id="matplotlib.axis_1">
    <g id="xtick_1">
     <g id="line2d_1">
      <defs>
       <path d="M 0 0 
L 0 3.5 
" id="mbb015acf62" style="stroke:#000000;stroke-width:0.8;"/>
      </defs>
      <g>
       <use style="stroke:#000000;stroke-width:0.8;" x="110.803061" xlink:href="#mbb015acf62" y="352.174167"/>
      </g>
     </g>
     <g id="text_1">
      <!-- 0 -->
      <defs>
       <path d="M 31.78125 66.40625 
Q 24.171875 66.40625 20.328125 58.90625 
Q 16.5 51.421875 16.5 36.375 
Q 16.5 21.390625 20.328125 13.890625 
Q 24.171875 6.390625 31.78125 6.390625 
Q 39.453125 6.390625 43.28125 13.890625 
Q 47.125 21.390625 47.125 36.375 
Q 47.125 51.421875 43.28125 58.90625 
Q 39.453125 66.40625 31.78125 66.40625 
z
M 31.78125 74.21875 
Q 44.046875 74.21875 50.515625 64.515625 
Q 56.984375 54.828125 56.984375 36.375 
Q 56.984375 17.96875 50.515625 8.265625 
Q 44.046875 -1.421875 31.78125 -1.421875 
Q 19.53125 -1.421875 13.0625 8.265625 
Q 6.59375 17.96875 6.59375 36.375 
Q 6.59375 54.828125 13.0625 64.515625 
Q 19.53125 74.21875 31.78125 74.21875 
z
" id="DejaVuSans-48"/>
      </defs>
      <g transform="translate(107.621811 366.772604)scale(0.1 -0.1)">
       <use xlink:href="#DejaVuSans-48"/>
      </g>
     </g>
    </g>
    <g id="xtick_2">
     <g id="line2d_2">
      <g>
       <use style="stroke:#000000;stroke-width:0.8;" x="175.947523" xlink:href="#mbb015acf62" y="352.174167"/>
      </g>
     </g>
     <g id="text_2">
      <!-- 50 -->
      <defs>
       <path d="M 10.796875 72.90625 
L 49.515625 72.90625 
L 49.515625 64.59375 
L 19.828125 64.59375 
L 19.828125 46.734375 
Q 21.96875 47.46875 24.109375 47.828125 
Q 26.265625 48.1875 28.421875 48.1875 
Q 40.625 48.1875 47.75 41.5 
Q 54.890625 34.8125 54.890625 23.390625 
Q 54.890625 11.625 47.5625 5.09375 
Q 40.234375 -1.421875 26.90625 -1.421875 
Q 22.3125 -1.421875 17.546875 -0.640625 
Q 12.796875 0.140625 7.71875 1.703125 
L 7.71875 11.625 
Q 12.109375 9.234375 16.796875 8.0625 
Q 21.484375 6.890625 26.703125 6.890625 
Q 35.15625 6.890625 40.078125 11.328125 
Q 45.015625 15.765625 45.015625 23.390625 
Q 45.015625 31 40.078125 35.4375 
Q 35.15625 39.890625 26.703125 39.890625 
Q 22.75 39.890625 18.8125 39.015625 
Q 14.890625 38.140625 10.796875 36.28125 
z
" id="DejaVuSans-53"/>
      </defs>
      <g transform="translate(169.585023 366.772604)scale(0.1 -0.1)">
       <use xlink:href="#DejaVuSans-53"/>
       <use x="63.623047" xlink:href="#DejaVuSans-48"/>
      </g>
     </g>
    </g>
    <g id="xtick_3">
     <g id="line2d_3">
      <g>
       <use style="stroke:#000000;stroke-width:0.8;" x="241.091984" xlink:href="#mbb015acf62" y="352.174167"/>
      </g>
     </g>
     <g id="text_3">
      <!-- 100 -->
      <defs>
       <path d="M 12.40625 8.296875 
L 28.515625 8.296875 
L 28.515625 63.921875 
L 10.984375 60.40625 
L 10.984375 69.390625 
L 28.421875 72.90625 
L 38.28125 72.90625 
L 38.28125 8.296875 
L 54.390625 8.296875 
L 54.390625 0 
L 12.40625 0 
z
" id="DejaVuSans-49"/>
      </defs>
      <g transform="translate(231.548234 366.772604)scale(0.1 -0.1)">
       <use xlink:href="#DejaVuSans-49"/>
       <use x="63.623047" xlink:href="#DejaVuSans-48"/>
       <use x="127.246094" xlink:href="#DejaVuSans-48"/>
      </g>
     </g>
    </g>
    <g id="xtick_4">
     <g id="line2d_4">
      <g>
       <use style="stroke:#000000;stroke-width:0.8;" x="306.236446" xlink:href="#mbb015acf62" y="352.174167"/>
      </g>
     </g>
     <g id="text_4">
      <!-- 150 -->
      <g transform="translate(296.692696 366.772604)scale(0.1 -0.1)">
       <use xlink:href="#DejaVuSans-49"/>
       <use x="63.623047" xlink:href="#DejaVuSans-53"/>
       <use x="127.246094" xlink:href="#DejaVuSans-48"/>
      </g>
     </g>
    </g>
    <g id="xtick_5">
     <g id="line2d_5">
      <g>
       <use style="stroke:#000000;stroke-width:0.8;" x="371.380908" xlink:href="#mbb015acf62" y="352.174167"/>
      </g>
     </g>
     <g id="text_5">
      <!-- 200 -->
      <defs>
       <path d="M 19.1875 8.296875 
L 53.609375 8.296875 
L 53.609375 0 
L 7.328125 0 
L 7.328125 8.296875 
Q 12.9375 14.109375 22.625 23.890625 
Q 32.328125 33.6875 34.8125 36.53125 
Q 39.546875 41.84375 41.421875 45.53125 
Q 43.3125 49.21875 43.3125 52.78125 
Q 43.3125 58.59375 39.234375 62.25 
Q 35.15625 65.921875 28.609375 65.921875 
Q 23.96875 65.921875 18.8125 64.3125 
Q 13.671875 62.703125 7.8125 59.421875 
L 7.8125 69.390625 
Q 13.765625 71.78125 18.9375 73 
Q 24.125 74.21875 28.421875 74.21875 
Q 39.75 74.21875 46.484375 68.546875 
Q 53.21875 62.890625 53.21875 53.421875 
Q 53.21875 48.921875 51.53125 44.890625 
Q 49.859375 40.875 45.40625 35.40625 
Q 44.1875 33.984375 37.640625 27.21875 
Q 31.109375 20.453125 19.1875 8.296875 
z
" id="DejaVuSans-50"/>
      </defs>
      <g transform="translate(361.837158 366.772604)scale(0.1 -0.1)">
       <use xlink:href="#DejaVuSans-50"/>
       <use x="63.623047" xlink:href="#DejaVuSans-48"/>
       <use x="127.246094" xlink:href="#DejaVuSans-48"/>
      </g>
     </g>
    </g>
    <g id="xtick_6">
     <g id="line2d_6">
      <g>
       <use style="stroke:#000000;stroke-width:0.8;" x="436.525369" xlink:href="#mbb015acf62" y="352.174167"/>
      </g>
     </g>
     <g id="text_6">
      <!-- 250 -->
      <g transform="translate(426.981619 366.772604)scale(0.1 -0.1)">
       <use xlink:href="#DejaVuSans-50"/>
       <use x="63.623047" xlink:href="#DejaVuSans-53"/>
       <use x="127.246094" xlink:href="#DejaVuSans-48"/>
      </g>
     </g>
    </g>
   </g>
   <g id="matplotlib.axis_2">
    <g id="ytick_1">
     <g id="line2d_7">
      <defs>
       <path d="M 0 0 
L -3.5 0 
" id="me496083ff2" style="stroke:#000000;stroke-width:0.8;"/>
      </defs>
      <g>
       <use style="stroke:#000000;stroke-width:0.8;" x="92.823906" xlink:href="#me496083ff2" y="352.174167"/>
      </g>
     </g>
     <g id="text_7">
      <!-- 0 -->
      <g transform="translate(79.461406 355.973385)scale(0.1 -0.1)">
       <use xlink:href="#DejaVuSans-48"/>
      </g>
     </g>
    </g>
    <g id="ytick_2">
     <g id="line2d_8">
      <g>
       <use style="stroke:#000000;stroke-width:0.8;" x="92.823906" xlink:href="#me496083ff2" y="300.985843"/>
      </g>
     </g>
     <g id="text_8">
      <!-- 20 -->
      <g transform="translate(73.098906 304.785061)scale(0.1 -0.1)">
       <use xlink:href="#DejaVuSans-50"/>
       <use x="63.623047" xlink:href="#DejaVuSans-48"/>
      </g>
     </g>
    </g>
    <g id="ytick_3">
     <g id="line2d_9">
      <g>
       <use style="stroke:#000000;stroke-width:0.8;" x="92.823906" xlink:href="#me496083ff2" y="249.797519"/>
      </g>
     </g>
     <g id="text_9">
      <!-- 40 -->
      <defs>
       <path d="M 37.796875 64.3125 
L 12.890625 25.390625 
L 37.796875 25.390625 
z
M 35.203125 72.90625 
L 47.609375 72.90625 
L 47.609375 25.390625 
L 58.015625 25.390625 
L 58.015625 17.1875 
L 47.609375 17.1875 
L 47.609375 0 
L 37.796875 0 
L 37.796875 17.1875 
L 4.890625 17.1875 
L 4.890625 26.703125 
z
" id="DejaVuSans-52"/>
      </defs>
      <g transform="translate(73.098906 253.596738)scale(0.1 -0.1)">
       <use xlink:href="#DejaVuSans-52"/>
       <use x="63.623047" xlink:href="#DejaVuSans-48"/>
      </g>
     </g>
    </g>
    <g id="ytick_4">
     <g id="line2d_10">
      <g>
       <use style="stroke:#000000;stroke-width:0.8;" x="92.823906" xlink:href="#me496083ff2" y="198.609195"/>
      </g>
     </g>
     <g id="text_10">
      <!-- 60 -->
      <defs>
       <path d="M 33.015625 40.375 
Q 26.375 40.375 22.484375 35.828125 
Q 18.609375 31.296875 18.609375 23.390625 
Q 18.609375 15.53125 22.484375 10.953125 
Q 26.375 6.390625 33.015625 6.390625 
Q 39.65625 6.390625 43.53125 10.953125 
Q 47.40625 15.53125 47.40625 23.390625 
Q 47.40625 31.296875 43.53125 35.828125 
Q 39.65625 40.375 33.015625 40.375 
z
M 52.59375 71.296875 
L 52.59375 62.3125 
Q 48.875 64.0625 45.09375 64.984375 
Q 41.3125 65.921875 37.59375 65.921875 
Q 27.828125 65.921875 22.671875 59.328125 
Q 17.53125 52.734375 16.796875 39.40625 
Q 19.671875 43.65625 24.015625 45.921875 
Q 28.375 48.1875 33.59375 48.1875 
Q 44.578125 48.1875 50.953125 41.515625 
Q 57.328125 34.859375 57.328125 23.390625 
Q 57.328125 12.15625 50.6875 5.359375 
Q 44.046875 -1.421875 33.015625 -1.421875 
Q 20.359375 -1.421875 13.671875 8.265625 
Q 6.984375 17.96875 6.984375 36.375 
Q 6.984375 53.65625 15.1875 63.9375 
Q 23.390625 74.21875 37.203125 74.21875 
Q 40.921875 74.21875 44.703125 73.484375 
Q 48.484375 72.75 52.59375 71.296875 
z
" id="DejaVuSans-54"/>
      </defs>
      <g transform="translate(73.098906 202.408414)scale(0.1 -0.1)">
       <use xlink:href="#DejaVuSans-54"/>
       <use x="63.623047" xlink:href="#DejaVuSans-48"/>
      </g>
     </g>
    </g>
    <g id="ytick_5">
     <g id="line2d_11">
      <g>
       <use style="stroke:#000000;stroke-width:0.8;" x="92.823906" xlink:href="#me496083ff2" y="147.420871"/>
      </g>
     </g>
     <g id="text_11">
      <!-- 80 -->
      <defs>
       <path d="M 31.78125 34.625 
Q 24.75 34.625 20.71875 30.859375 
Q 16.703125 27.09375 16.703125 20.515625 
Q 16.703125 13.921875 20.71875 10.15625 
Q 24.75 6.390625 31.78125 6.390625 
Q 38.8125 6.390625 42.859375 10.171875 
Q 46.921875 13.96875 46.921875 20.515625 
Q 46.921875 27.09375 42.890625 30.859375 
Q 38.875 34.625 31.78125 34.625 
z
M 21.921875 38.8125 
Q 15.578125 40.375 12.03125 44.71875 
Q 8.5 49.078125 8.5 55.328125 
Q 8.5 64.0625 14.71875 69.140625 
Q 20.953125 74.21875 31.78125 74.21875 
Q 42.671875 74.21875 48.875 69.140625 
Q 55.078125 64.0625 55.078125 55.328125 
Q 55.078125 49.078125 51.53125 44.71875 
Q 48 40.375 41.703125 38.8125 
Q 48.828125 37.15625 52.796875 32.3125 
Q 56.78125 27.484375 56.78125 20.515625 
Q 56.78125 9.90625 50.3125 4.234375 
Q 43.84375 -1.421875 31.78125 -1.421875 
Q 19.734375 -1.421875 13.25 4.234375 
Q 6.78125 9.90625 6.78125 20.515625 
Q 6.78125 27.484375 10.78125 32.3125 
Q 14.796875 37.15625 21.921875 38.8125 
z
M 18.3125 54.390625 
Q 18.3125 48.734375 21.84375 45.5625 
Q 25.390625 42.390625 31.78125 42.390625 
Q 38.140625 42.390625 41.71875 45.5625 
Q 45.3125 48.734375 45.3125 54.390625 
Q 45.3125 60.0625 41.71875 63.234375 
Q 38.140625 66.40625 31.78125 66.40625 
Q 25.390625 66.40625 21.84375 63.234375 
Q 18.3125 60.0625 18.3125 54.390625 
z
" id="DejaVuSans-56"/>
      </defs>
      <g transform="translate(73.098906 151.22009)scale(0.1 -0.1)">
       <use xlink:href="#DejaVuSans-56"/>
       <use x="63.623047" xlink:href="#DejaVuSans-48"/>
      </g>
     </g>
    </g>
    <g id="ytick_6">
     <g id="line2d_12">
      <g>
       <use style="stroke:#000000;stroke-width:0.8;" x="92.823906" xlink:href="#me496083ff2" y="96.232547"/>
      </g>
     </g>
     <g id="text_12">
      <!-- 100 -->
      <g transform="translate(66.736406 100.031766)scale(0.1 -0.1)">
       <use xlink:href="#DejaVuSans-49"/>
       <use x="63.623047" xlink:href="#DejaVuSans-48"/>
       <use x="127.246094" xlink:href="#DejaVuSans-48"/>
      </g>
     </g>
    </g>
    <g id="ytick_7">
     <g id="line2d_13">
      <g>
       <use style="stroke:#000000;stroke-width:0.8;" x="92.823906" xlink:href="#me496083ff2" y="45.044223"/>
      </g>
     </g>
     <g id="text_13">
      <!-- 120 -->
      <g transform="translate(66.736406 48.843442)scale(0.1 -0.1)">
       <use xlink:href="#DejaVuSans-49"/>
       <use x="63.623047" xlink:href="#DejaVuSans-50"/>
       <use x="127.246094" xlink:href="#DejaVuSans-48"/>
      </g>
     </g>
    </g>
    <g id="text_14">
     <!-- throughput -->
     <defs>
      <path d="M 18.3125 70.21875 
L 18.3125 54.6875 
L 36.8125 54.6875 
L 36.8125 47.703125 
L 18.3125 47.703125 
L 18.3125 18.015625 
Q 18.3125 11.328125 20.140625 9.421875 
Q 21.96875 7.515625 27.59375 7.515625 
L 36.8125 7.515625 
L 36.8125 0 
L 27.59375 0 
Q 17.1875 0 13.234375 3.875 
Q 9.28125 7.765625 9.28125 18.015625 
L 9.28125 47.703125 
L 2.6875 47.703125 
L 2.6875 54.6875 
L 9.28125 54.6875 
L 9.28125 70.21875 
z
" id="DejaVuSans-116"/>
      <path d="M 54.890625 33.015625 
L 54.890625 0 
L 45.90625 0 
L 45.90625 32.71875 
Q 45.90625 40.484375 42.875 44.328125 
Q 39.84375 48.1875 33.796875 48.1875 
Q 26.515625 48.1875 22.3125 43.546875 
Q 18.109375 38.921875 18.109375 30.90625 
L 18.109375 0 
L 9.078125 0 
L 9.078125 75.984375 
L 18.109375 75.984375 
L 18.109375 46.1875 
Q 21.34375 51.125 25.703125 53.5625 
Q 30.078125 56 35.796875 56 
Q 45.21875 56 50.046875 50.171875 
Q 54.890625 44.34375 54.890625 33.015625 
z
" id="DejaVuSans-104"/>
      <path d="M 41.109375 46.296875 
Q 39.59375 47.171875 37.8125 47.578125 
Q 36.03125 48 33.890625 48 
Q 26.265625 48 22.1875 43.046875 
Q 18.109375 38.09375 18.109375 28.8125 
L 18.109375 0 
L 9.078125 0 
L 9.078125 54.6875 
L 18.109375 54.6875 
L 18.109375 46.1875 
Q 20.953125 51.171875 25.484375 53.578125 
Q 30.03125 56 36.53125 56 
Q 37.453125 56 38.578125 55.875 
Q 39.703125 55.765625 41.0625 55.515625 
z
" id="DejaVuSans-114"/>
      <path d="M 30.609375 48.390625 
Q 23.390625 48.390625 19.1875 42.75 
Q 14.984375 37.109375 14.984375 27.296875 
Q 14.984375 17.484375 19.15625 11.84375 
Q 23.34375 6.203125 30.609375 6.203125 
Q 37.796875 6.203125 41.984375 11.859375 
Q 46.1875 17.53125 46.1875 27.296875 
Q 46.1875 37.015625 41.984375 42.703125 
Q 37.796875 48.390625 30.609375 48.390625 
z
M 30.609375 56 
Q 42.328125 56 49.015625 48.375 
Q 55.71875 40.765625 55.71875 27.296875 
Q 55.71875 13.875 49.015625 6.21875 
Q 42.328125 -1.421875 30.609375 -1.421875 
Q 18.84375 -1.421875 12.171875 6.21875 
Q 5.515625 13.875 5.515625 27.296875 
Q 5.515625 40.765625 12.171875 48.375 
Q 18.84375 56 30.609375 56 
z
" id="DejaVuSans-111"/>
      <path d="M 8.5 21.578125 
L 8.5 54.6875 
L 17.484375 54.6875 
L 17.484375 21.921875 
Q 17.484375 14.15625 20.5 10.265625 
Q 23.53125 6.390625 29.59375 6.390625 
Q 36.859375 6.390625 41.078125 11.03125 
Q 45.3125 15.671875 45.3125 23.6875 
L 45.3125 54.6875 
L 54.296875 54.6875 
L 54.296875 0 
L 45.3125 0 
L 45.3125 8.40625 
Q 42.046875 3.421875 37.71875 1 
Q 33.40625 -1.421875 27.6875 -1.421875 
Q 18.265625 -1.421875 13.375 4.4375 
Q 8.5 10.296875 8.5 21.578125 
z
M 31.109375 56 
z
" id="DejaVuSans-117"/>
      <path d="M 45.40625 27.984375 
Q 45.40625 37.75 41.375 43.109375 
Q 37.359375 48.484375 30.078125 48.484375 
Q 22.859375 48.484375 18.828125 43.109375 
Q 14.796875 37.75 14.796875 27.984375 
Q 14.796875 18.265625 18.828125 12.890625 
Q 22.859375 7.515625 30.078125 7.515625 
Q 37.359375 7.515625 41.375 12.890625 
Q 45.40625 18.265625 45.40625 27.984375 
z
M 54.390625 6.78125 
Q 54.390625 -7.171875 48.1875 -13.984375 
Q 42 -20.796875 29.203125 -20.796875 
Q 24.46875 -20.796875 20.265625 -20.09375 
Q 16.0625 -19.390625 12.109375 -17.921875 
L 12.109375 -9.1875 
Q 16.0625 -11.328125 19.921875 -12.34375 
Q 23.78125 -13.375 27.78125 -13.375 
Q 36.625 -13.375 41.015625 -8.765625 
Q 45.40625 -4.15625 45.40625 5.171875 
L 45.40625 9.625 
Q 42.625 4.78125 38.28125 2.390625 
Q 33.9375 0 27.875 0 
Q 17.828125 0 11.671875 7.65625 
Q 5.515625 15.328125 5.515625 27.984375 
Q 5.515625 40.671875 11.671875 48.328125 
Q 17.828125 56 27.875 56 
Q 33.9375 56 38.28125 53.609375 
Q 42.625 51.21875 45.40625 46.390625 
L 45.40625 54.6875 
L 54.390625 54.6875 
z
" id="DejaVuSans-103"/>
      <path d="M 18.109375 8.203125 
L 18.109375 -20.796875 
L 9.078125 -20.796875 
L 9.078125 54.6875 
L 18.109375 54.6875 
L 18.109375 46.390625 
Q 20.953125 51.265625 25.265625 53.625 
Q 29.59375 56 35.59375 56 
Q 45.5625 56 51.78125 48.09375 
Q 58.015625 40.1875 58.015625 27.296875 
Q 58.015625 14.40625 51.78125 6.484375 
Q 45.5625 -1.421875 35.59375 -1.421875 
Q 29.59375 -1.421875 25.265625 0.953125 
Q 20.953125 3.328125 18.109375 8.203125 
z
M 48.6875 27.296875 
Q 48.6875 37.203125 44.609375 42.84375 
Q 40.53125 48.484375 33.40625 48.484375 
Q 26.265625 48.484375 22.1875 42.84375 
Q 18.109375 37.203125 18.109375 27.296875 
Q 18.109375 17.390625 22.1875 11.75 
Q 26.265625 6.109375 33.40625 6.109375 
Q 40.53125 6.109375 44.609375 11.75 
Q 48.6875 17.390625 48.6875 27.296875 
z
" id="DejaVuSans-112"/>
     </defs>
     <g transform="translate(49.458906 221.675365)rotate(-90)scale(0.1 -0.1)">
      <use xlink:href="#DejaVuSans-116"/>
      <use x="39.208984" xlink:href="#DejaVuSans-104"/>
      <use x="102.587891" xlink:href="#DejaVuSans-114"/>
      <use x="143.669922" xlink:href="#DejaVuSans-111"/>
      <use x="204.851562" xlink:href="#DejaVuSans-117"/>
      <use x="268.230469" xlink:href="#DejaVuSans-103"/>
      <use x="331.707031" xlink:href="#DejaVuSans-104"/>
      <use x="395.085938" xlink:href="#DejaVuSans-112"/>
      <use x="458.5625" xlink:href="#DejaVuSans-117"/>
      <use x="521.941406" xlink:href="#DejaVuSans-116"/>
     </g>
     <!-- (mbit / second) -->
     <defs>
      <path d="M 31 75.875 
Q 24.46875 64.65625 21.28125 53.65625 
Q 18.109375 42.671875 18.109375 31.390625 
Q 18.109375 20.125 21.3125 9.0625 
Q 24.515625 -2 31 -13.1875 
L 23.1875 -13.1875 
Q 15.875 -1.703125 12.234375 9.375 
Q 8.59375 20.453125 8.59375 31.390625 
Q 8.59375 42.28125 12.203125 53.3125 
Q 15.828125 64.359375 23.1875 75.875 
z
" id="DejaVuSans-40"/>
      <path d="M 52 44.1875 
Q 55.375 50.25 60.0625 53.125 
Q 64.75 56 71.09375 56 
Q 79.640625 56 84.28125 50.015625 
Q 88.921875 44.046875 88.921875 33.015625 
L 88.921875 0 
L 79.890625 0 
L 79.890625 32.71875 
Q 79.890625 40.578125 77.09375 44.375 
Q 74.3125 48.1875 68.609375 48.1875 
Q 61.625 48.1875 57.5625 43.546875 
Q 53.515625 38.921875 53.515625 30.90625 
L 53.515625 0 
L 44.484375 0 
L 44.484375 32.71875 
Q 44.484375 40.625 41.703125 44.40625 
Q 38.921875 48.1875 33.109375 48.1875 
Q 26.21875 48.1875 22.15625 43.53125 
Q 18.109375 38.875 18.109375 30.90625 
L 18.109375 0 
L 9.078125 0 
L 9.078125 54.6875 
L 18.109375 54.6875 
L 18.109375 46.1875 
Q 21.1875 51.21875 25.484375 53.609375 
Q 29.78125 56 35.6875 56 
Q 41.65625 56 45.828125 52.96875 
Q 50 49.953125 52 44.1875 
z
" id="DejaVuSans-109"/>
      <path d="M 48.6875 27.296875 
Q 48.6875 37.203125 44.609375 42.84375 
Q 40.53125 48.484375 33.40625 48.484375 
Q 26.265625 48.484375 22.1875 42.84375 
Q 18.109375 37.203125 18.109375 27.296875 
Q 18.109375 17.390625 22.1875 11.75 
Q 26.265625 6.109375 33.40625 6.109375 
Q 40.53125 6.109375 44.609375 11.75 
Q 48.6875 17.390625 48.6875 27.296875 
z
M 18.109375 46.390625 
Q 20.953125 51.265625 25.265625 53.625 
Q 29.59375 56 35.59375 56 
Q 45.5625 56 51.78125 48.09375 
Q 58.015625 40.1875 58.015625 27.296875 
Q 58.015625 14.40625 51.78125 6.484375 
Q 45.5625 -1.421875 35.59375 -1.421875 
Q 29.59375 -1.421875 25.265625 0.953125 
Q 20.953125 3.328125 18.109375 8.203125 
L 18.109375 0 
L 9.078125 0 
L 9.078125 75.984375 
L 18.109375 75.984375 
z
" id="DejaVuSans-98"/>
      <path d="M 9.421875 54.6875 
L 18.40625 54.6875 
L 18.40625 0 
L 9.421875 0 
z
M 9.421875 75.984375 
L 18.40625 75.984375 
L 18.40625 64.59375 
L 9.421875 64.59375 
z
" id="DejaVuSans-105"/>
      <path id="DejaVuSans-32"/>
      <path d="M 25.390625 72.90625 
L 33.6875 72.90625 
L 8.296875 -9.28125 
L 0 -9.28125 
z
" id="DejaVuSans-47"/>
      <path d="M 44.28125 53.078125 
L 44.28125 44.578125 
Q 40.484375 46.53125 36.375 47.5 
Q 32.28125 48.484375 27.875 48.484375 
Q 21.1875 48.484375 17.84375 46.4375 
Q 14.5 44.390625 14.5 40.28125 
Q 14.5 37.15625 16.890625 35.375 
Q 19.28125 33.59375 26.515625 31.984375 
L 29.59375 31.296875 
Q 39.15625 29.25 43.1875 25.515625 
Q 47.21875 21.78125 47.21875 15.09375 
Q 47.21875 7.46875 41.1875 3.015625 
Q 35.15625 -1.421875 24.609375 -1.421875 
Q 20.21875 -1.421875 15.453125 -0.5625 
Q 10.6875 0.296875 5.421875 2 
L 5.421875 11.28125 
Q 10.40625 8.6875 15.234375 7.390625 
Q 20.0625 6.109375 24.8125 6.109375 
Q 31.15625 6.109375 34.5625 8.28125 
Q 37.984375 10.453125 37.984375 14.40625 
Q 37.984375 18.0625 35.515625 20.015625 
Q 33.0625 21.96875 24.703125 23.78125 
L 21.578125 24.515625 
Q 13.234375 26.265625 9.515625 29.90625 
Q 5.8125 33.546875 5.8125 39.890625 
Q 5.8125 47.609375 11.28125 51.796875 
Q 16.75 56 26.8125 56 
Q 31.78125 56 36.171875 55.265625 
Q 40.578125 54.546875 44.28125 53.078125 
z
" id="DejaVuSans-115"/>
      <path d="M 56.203125 29.59375 
L 56.203125 25.203125 
L 14.890625 25.203125 
Q 15.484375 15.921875 20.484375 11.0625 
Q 25.484375 6.203125 34.421875 6.203125 
Q 39.59375 6.203125 44.453125 7.46875 
Q 49.3125 8.734375 54.109375 11.28125 
L 54.109375 2.78125 
Q 49.265625 0.734375 44.1875 -0.34375 
Q 39.109375 -1.421875 33.890625 -1.421875 
Q 20.796875 -1.421875 13.15625 6.1875 
Q 5.515625 13.8125 5.515625 26.8125 
Q 5.515625 40.234375 12.765625 48.109375 
Q 20.015625 56 32.328125 56 
Q 43.359375 56 49.78125 48.890625 
Q 56.203125 41.796875 56.203125 29.59375 
z
M 47.21875 32.234375 
Q 47.125 39.59375 43.09375 43.984375 
Q 39.0625 48.390625 32.421875 48.390625 
Q 24.90625 48.390625 20.390625 44.140625 
Q 15.875 39.890625 15.1875 32.171875 
z
" id="DejaVuSans-101"/>
      <path d="M 48.78125 52.59375 
L 48.78125 44.1875 
Q 44.96875 46.296875 41.140625 47.34375 
Q 37.3125 48.390625 33.40625 48.390625 
Q 24.65625 48.390625 19.8125 42.84375 
Q 14.984375 37.3125 14.984375 27.296875 
Q 14.984375 17.28125 19.8125 11.734375 
Q 24.65625 6.203125 33.40625 6.203125 
Q 37.3125 6.203125 41.140625 7.25 
Q 44.96875 8.296875 48.78125 10.40625 
L 48.78125 2.09375 
Q 45.015625 0.34375 40.984375 -0.53125 
Q 36.96875 -1.421875 32.421875 -1.421875 
Q 20.0625 -1.421875 12.78125 6.34375 
Q 5.515625 14.109375 5.515625 27.296875 
Q 5.515625 40.671875 12.859375 48.328125 
Q 20.21875 56 33.015625 56 
Q 37.15625 56 41.109375 55.140625 
Q 45.0625 54.296875 48.78125 52.59375 
z
" id="DejaVuSans-99"/>
      <path d="M 54.890625 33.015625 
L 54.890625 0 
L 45.90625 0 
L 45.90625 32.71875 
Q 45.90625 40.484375 42.875 44.328125 
Q 39.84375 48.1875 33.796875 48.1875 
Q 26.515625 48.1875 22.3125 43.546875 
Q 18.109375 38.921875 18.109375 30.90625 
L 18.109375 0 
L 9.078125 0 
L 9.078125 54.6875 
L 18.109375 54.6875 
L 18.109375 46.1875 
Q 21.34375 51.125 25.703125 53.5625 
Q 30.078125 56 35.796875 56 
Q 45.21875 56 50.046875 50.171875 
Q 54.890625 44.34375 54.890625 33.015625 
z
" id="DejaVuSans-110"/>
      <path d="M 45.40625 46.390625 
L 45.40625 75.984375 
L 54.390625 75.984375 
L 54.390625 0 
L 45.40625 0 
L 45.40625 8.203125 
Q 42.578125 3.328125 38.25 0.953125 
Q 33.9375 -1.421875 27.875 -1.421875 
Q 17.96875 -1.421875 11.734375 6.484375 
Q 5.515625 14.40625 5.515625 27.296875 
Q 5.515625 40.1875 11.734375 48.09375 
Q 17.96875 56 27.875 56 
Q 33.9375 56 38.25 53.625 
Q 42.578125 51.265625 45.40625 46.390625 
z
M 14.796875 27.296875 
Q 14.796875 17.390625 18.875 11.75 
Q 22.953125 6.109375 30.078125 6.109375 
Q 37.203125 6.109375 41.296875 11.75 
Q 45.40625 17.390625 45.40625 27.296875 
Q 45.40625 37.203125 41.296875 42.84375 
Q 37.203125 48.484375 30.078125 48.484375 
Q 22.953125 48.484375 18.875 42.84375 
Q 14.796875 37.203125 14.796875 27.296875 
z
" id="DejaVuSans-100"/>
      <path d="M 8.015625 75.875 
L 15.828125 75.875 
Q 23.140625 64.359375 26.78125 53.3125 
Q 30.421875 42.28125 30.421875 31.390625 
Q 30.421875 20.453125 26.78125 9.375 
Q 23.140625 -1.703125 15.828125 -13.1875 
L 8.015625 -13.1875 
Q 14.5 -2 17.703125 9.0625 
Q 20.90625 20.125 20.90625 31.390625 
Q 20.90625 42.671875 17.703125 53.65625 
Q 14.5 64.65625 8.015625 75.875 
z
" id="DejaVuSans-41"/>
     </defs>
     <g transform="translate(60.656719 231.608958)rotate(-90)scale(0.1 -0.1)">
      <use xlink:href="#DejaVuSans-40"/>
      <use x="39.013672" xlink:href="#DejaVuSans-109"/>
      <use x="136.425781" xlink:href="#DejaVuSans-98"/>
      <use x="199.902344" xlink:href="#DejaVuSans-105"/>
      <use x="227.685547" xlink:href="#DejaVuSans-116"/>
      <use x="266.894531" xlink:href="#DejaVuSans-32"/>
      <use x="298.681641" xlink:href="#DejaVuSans-47"/>
      <use x="332.373047" xlink:href="#DejaVuSans-32"/>
      <use x="364.160156" xlink:href="#DejaVuSans-115"/>
      <use x="416.259766" xlink:href="#DejaVuSans-101"/>
      <use x="477.783203" xlink:href="#DejaVuSans-99"/>
      <use x="532.763672" xlink:href="#DejaVuSans-111"/>
      <use x="593.945312" xlink:href="#DejaVuSans-110"/>
      <use x="657.324219" xlink:href="#DejaVuSans-100"/>
      <use x="720.800781" xlink:href="#DejaVuSans-41"/>
     </g>
    </g>
   </g>
   <g id="line2d_14">
    <path clip-path="url(#p039f4cd85b)" d="M 110.803061 126.945541 
L 111.454506 50.163056 
L 112.757395 50.163056 
L 113.40884 157.658536 
L 114.060284 206.287444 
L 114.711729 219.084524 
L 115.363173 229.322189 
L 116.014618 260.035184 
L 116.666063 283.069929 
L 117.968952 316.34234 
L 118.620396 321.461172 
L 119.271841 324.020589 
L 119.923286 329.139421 
L 121.226175 334.258253 
L 122.529064 334.258253 
L 123.180509 336.817669 
L 123.831953 344.495918 
L 124.483398 331.698837 
L 125.134843 324.020589 
L 125.786287 318.901756 
L 126.437732 306.104675 
L 127.740621 285.629346 
L 128.392066 272.832265 
L 129.04351 252.356935 
L 129.694955 239.559854 
L 130.3464 231.881605 
L 130.997844 219.084524 
L 131.649289 219.084524 
L 132.952178 213.965692 
L 133.603623 208.84686 
L 134.255067 211.406276 
L 134.906512 208.84686 
L 135.557957 201.168611 
L 136.860846 211.406276 
L 137.51229 208.84686 
L 138.81518 208.84686 
L 139.466624 206.287444 
L 140.118069 208.84686 
L 140.769513 283.069929 
L 141.420958 196.049779 
L 142.072403 201.168611 
L 144.026737 224.203357 
L 144.678181 229.322189 
L 145.329626 237.000438 
L 149.238293 267.713432 
L 149.889738 275.391681 
L 150.541183 280.510513 
L 151.192627 293.307594 
L 153.146961 324.020589 
L 153.798406 336.817669 
L 154.44985 329.139421 
L 155.101295 313.782924 
L 155.75274 293.307594 
L 157.055629 267.713432 
L 157.707073 244.678686 
L 158.358518 234.441022 
L 159.009963 221.643941 
L 159.661407 201.168611 
L 160.312852 196.049779 
L 160.964297 183.252698 
L 161.615741 178.133865 
L 162.267186 180.693282 
L 162.91863 175.574449 
L 164.22152 185.812114 
L 164.872964 185.812114 
L 165.524409 183.252698 
L 166.175853 185.812114 
L 167.478743 185.812114 
L 168.130187 188.37153 
L 169.433077 188.37153 
L 170.084521 190.930946 
L 170.735966 196.049779 
L 172.038855 196.049779 
L 172.6903 198.609195 
L 173.341744 196.049779 
L 174.644634 201.168611 
L 175.296078 277.951097 
L 175.947523 211.406276 
L 176.598967 219.084524 
L 177.250412 221.643941 
L 177.901857 226.762773 
L 178.553301 229.322189 
L 181.810524 254.916351 
L 182.461969 257.475767 
L 183.113414 262.5946 
L 183.764858 265.154016 
L 184.416303 272.832265 
L 185.067747 275.391681 
L 187.673526 316.34234 
L 188.32497 334.258253 
L 188.976415 324.020589 
L 190.279304 295.86701 
L 192.233638 272.832265 
L 192.885083 260.035184 
L 193.536527 257.475767 
L 195.490861 211.406276 
L 196.79375 201.168611 
L 197.445195 201.168611 
L 198.09664 198.609195 
L 199.399529 198.609195 
L 201.353863 206.287444 
L 202.005307 185.812114 
L 202.656752 119.267293 
L 203.308197 139.742622 
L 203.959641 152.539703 
L 207.868309 183.252698 
L 208.519754 193.490363 
L 209.171198 198.609195 
L 210.474087 219.084524 
L 211.125532 231.881605 
L 212.428421 262.5946 
L 213.079866 283.069929 
L 214.382755 313.782924 
L 215.0342 316.34234 
L 215.685644 336.817669 
L 216.337089 308.664091 
L 216.988534 298.426427 
L 217.639978 290.748178 
L 220.245757 249.797519 
L 220.897201 244.678686 
L 221.548646 231.881605 
L 222.200091 224.203357 
L 222.851535 221.643941 
L 223.50298 208.84686 
L 224.154424 206.287444 
L 224.805869 198.609195 
L 225.457314 193.490363 
L 226.108758 193.490363 
L 227.411647 188.37153 
L 228.063092 188.37153 
L 228.714537 190.930946 
L 229.365981 303.545259 
L 230.017426 265.154016 
L 230.668871 265.154016 
L 231.320315 267.713432 
L 231.97176 272.832265 
L 233.274649 277.951097 
L 233.926094 283.069929 
L 234.577538 283.069929 
L 236.531872 290.748178 
L 237.183317 295.86701 
L 237.834761 298.426427 
L 238.486206 303.545259 
L 239.137651 306.104675 
L 239.789095 311.223508 
L 241.091984 326.580005 
L 241.743429 331.698837 
L 242.394874 341.936502 
L 243.046318 329.139421 
L 243.697763 324.020589 
L 244.349207 321.461172 
L 245.000652 316.34234 
L 245.652097 313.782924 
L 246.303541 308.664091 
L 247.606431 303.545259 
L 248.257875 303.545259 
L 248.90932 298.426427 
L 249.560764 298.426427 
L 250.212209 290.748178 
L 251.515098 280.510513 
L 252.166543 283.069929 
L 252.817988 277.951097 
L 253.469432 280.510513 
L 254.772321 275.391681 
L 255.423766 265.154016 
L 256.075211 313.782924 
L 256.726655 285.629346 
L 258.029544 295.86701 
L 260.635323 306.104675 
L 261.286768 306.104675 
L 261.938212 311.223508 
L 262.589657 311.223508 
L 265.84688 324.020589 
L 266.498324 324.020589 
L 267.801214 329.139421 
L 268.452658 329.139421 
L 269.104103 336.817669 
L 269.755548 336.817669 
L 270.406992 321.461172 
L 273.012771 280.510513 
L 273.664215 275.391681 
L 274.31566 262.5946 
L 275.618549 242.11927 
L 276.269994 237.000438 
L 277.572883 211.406276 
L 280.178661 211.406276 
L 280.830106 213.965692 
L 282.132995 203.728027 
L 283.435884 208.84686 
L 284.087329 213.965692 
L 284.738774 213.965692 
L 285.390218 216.525108 
L 286.041663 216.525108 
L 286.693108 203.728027 
L 287.344552 203.728027 
L 287.995997 208.84686 
L 288.647441 211.406276 
L 289.298886 326.580005 
L 289.950331 257.475767 
L 290.601775 257.475767 
L 293.207554 277.951097 
L 295.813332 288.188762 
L 296.464777 293.307594 
L 298.419111 300.985843 
L 299.722 311.223508 
L 300.373445 318.901756 
L 302.327778 334.258253 
L 302.979223 341.936502 
L 303.630668 329.139421 
L 304.282112 326.580005 
L 304.933557 318.901756 
L 306.236446 308.664091 
L 306.887891 298.426427 
L 308.19078 288.188762 
L 308.842225 272.832265 
L 309.493669 265.154016 
L 310.145114 260.035184 
L 310.796558 247.238103 
L 311.448003 237.000438 
L 312.099448 239.559854 
L 312.750892 237.000438 
L 314.053781 242.11927 
L 315.356671 242.11927 
L 316.008115 285.629346 
L 316.65956 293.307594 
L 317.311005 288.188762 
L 317.962449 290.748178 
L 318.613894 290.748178 
L 319.916783 295.86701 
L 320.568228 295.86701 
L 322.522561 303.545259 
L 323.174006 303.545259 
L 323.825451 306.104675 
L 324.476895 306.104675 
L 325.12834 311.223508 
L 326.431229 316.34234 
L 328.385563 331.698837 
L 329.037008 334.258253 
L 329.688452 341.936502 
L 330.339897 329.139421 
L 330.991341 324.020589 
L 331.642786 321.461172 
L 332.294231 313.782924 
L 332.945675 308.664091 
L 333.59712 298.426427 
L 334.248565 290.748178 
L 334.900009 280.510513 
L 335.551454 265.154016 
L 336.202898 257.475767 
L 336.854343 254.916351 
L 338.157232 229.322189 
L 338.808677 229.322189 
L 339.460122 208.84686 
L 340.111566 208.84686 
L 340.763011 201.168611 
L 342.0659 196.049779 
L 342.717345 226.762773 
L 343.368789 229.322189 
L 344.020234 208.84686 
L 346.626012 229.322189 
L 347.277457 237.000438 
L 347.928902 239.559854 
L 348.580346 247.238103 
L 349.231791 249.797519 
L 349.883235 254.916351 
L 350.53468 257.475767 
L 351.186125 262.5946 
L 351.837569 265.154016 
L 352.489014 272.832265 
L 353.140458 283.069929 
L 353.791903 295.86701 
L 354.443348 306.104675 
L 355.094792 318.901756 
L 355.746237 326.580005 
L 356.397682 339.377086 
L 357.049126 318.901756 
L 358.352015 313.782924 
L 359.00346 308.664091 
L 359.654905 308.664091 
L 360.306349 306.104675 
L 360.957794 300.985843 
L 362.260683 300.985843 
L 362.912128 303.545259 
L 366.169351 303.545259 
L 366.820795 306.104675 
L 368.123685 300.985843 
L 368.775129 300.985843 
L 369.426574 313.782924 
L 370.078018 318.901756 
L 370.729463 306.104675 
L 373.335242 316.34234 
L 373.986686 316.34234 
L 375.289575 321.461172 
L 375.94102 321.461172 
L 376.592465 324.020589 
L 377.895354 324.020589 
L 378.546799 326.580005 
L 379.849688 326.580005 
L 380.501132 329.139421 
L 381.804022 329.139421 
L 382.455466 331.698837 
L 383.106911 344.495918 
L 383.758355 329.139421 
L 385.061245 318.901756 
L 385.712689 308.664091 
L 386.364134 300.985843 
L 387.015579 288.188762 
L 388.969912 257.475767 
L 389.621357 249.797519 
L 390.272802 244.678686 
L 390.924246 237.000438 
L 391.575691 234.441022 
L 392.227135 229.322189 
L 392.87858 226.762773 
L 393.530025 229.322189 
L 394.832914 229.322189 
L 395.484359 231.881605 
L 396.135803 229.322189 
L 396.787248 277.951097 
L 397.438692 283.069929 
L 398.090137 280.510513 
L 398.741582 280.510513 
L 399.393026 285.629346 
L 400.044471 288.188762 
L 400.695915 293.307594 
L 405.256028 311.223508 
L 405.907472 311.223508 
L 407.210362 316.34234 
L 407.861806 321.461172 
L 408.513251 324.020589 
L 409.81614 334.258253 
L 410.467585 341.936502 
L 411.119029 324.020589 
L 412.421919 308.664091 
L 414.376252 277.951097 
L 415.679142 272.832265 
L 416.330586 262.5946 
L 416.982031 262.5946 
L 418.28492 252.356935 
L 419.587809 247.238103 
L 420.239254 247.238103 
L 420.890699 244.678686 
L 422.193588 234.441022 
L 422.845032 226.762773 
L 423.496477 213.965692 
L 424.147922 208.84686 
L 424.799366 211.406276 
L 425.450811 206.287444 
L 426.102256 203.728027 
L 426.7537 203.728027 
L 427.405145 198.609195 
L 428.056589 211.406276 
L 428.708034 203.728027 
L 429.359479 206.287444 
L 430.010923 206.287444 
L 430.662368 198.609195 
L 431.313812 188.37153 
L 431.965257 180.693282 
L 432.616702 180.693282 
L 433.268146 183.252698 
L 433.919591 178.133865 
L 435.22248 173.015033 
L 435.873925 173.015033 
L 436.525369 175.574449 
L 437.176814 201.168611 
L 437.828259 242.11927 
L 438.479703 196.049779 
L 439.131148 201.168611 
L 439.782592 211.406276 
L 440.434037 213.965692 
L 441.085482 221.643941 
L 442.388371 231.881605 
L 443.039816 234.441022 
L 443.69126 242.11927 
L 446.948483 267.713432 
L 447.599928 277.951097 
L 448.251372 290.748178 
L 448.902817 306.104675 
L 450.205706 326.580005 
L 450.857151 339.377086 
L 451.508596 321.461172 
L 453.462929 306.104675 
L 454.114374 295.86701 
L 454.765819 293.307594 
L 455.417263 295.86701 
L 456.068708 290.748178 
L 457.371597 275.391681 
L 458.023042 277.951097 
L 458.674486 270.272848 
L 459.325931 270.272848 
L 459.977376 262.5946 
L 460.62882 257.475767 
L 461.280265 249.797519 
L 461.931709 247.238103 
L 461.931709 247.238103 
" style="fill:none;stroke:#1f77b4;stroke-linecap:square;stroke-width:1.5;"/>
   </g>
   <g id="line2d_15">
    <path clip-path="url(#p039f4cd85b)" d="M 113.346301 260.035184 
L 113.997745 196.049779 
L 114.64919 183.252698 
L 115.300635 173.015033 
L 115.952079 188.37153 
L 117.254969 237.000438 
L 117.906413 265.154016 
L 118.557858 272.832265 
L 119.209302 277.951097 
L 119.860747 280.510513 
L 120.512192 290.748178 
L 122.466525 306.104675 
L 125.723749 318.901756 
L 126.375193 336.817669 
L 127.026638 308.664091 
L 127.678082 300.985843 
L 128.329527 285.629346 
L 128.980972 277.951097 
L 129.632416 265.154016 
L 131.58675 221.643941 
L 132.238195 211.406276 
L 132.889639 203.728027 
L 134.192529 193.490363 
L 134.843973 198.609195 
L 135.495418 201.168611 
L 136.146862 196.049779 
L 137.449752 196.049779 
L 138.101196 193.490363 
L 138.752641 198.609195 
L 140.05553 203.728027 
L 140.706975 316.34234 
L 141.358419 221.643941 
L 142.009864 226.762773 
L 142.661309 226.762773 
L 143.312753 231.881605 
L 145.918532 242.11927 
L 146.569976 247.238103 
L 147.221421 249.797519 
L 147.872866 254.916351 
L 148.52431 257.475767 
L 149.175755 265.154016 
L 149.827199 267.713432 
L 150.478644 275.391681 
L 151.130089 285.629346 
L 152.432978 311.223508 
L 153.735867 331.698837 
L 154.387312 336.817669 
L 155.038756 311.223508 
L 156.99309 280.510513 
L 157.644535 267.713432 
L 159.598869 244.678686 
L 160.250313 239.559854 
L 160.901758 239.559854 
L 162.204647 234.441022 
L 162.856092 234.441022 
L 163.507536 229.322189 
L 164.158981 226.762773 
L 164.810426 226.762773 
L 165.46187 224.203357 
L 167.416204 224.203357 
L 168.067649 221.643941 
L 168.719093 221.643941 
L 169.370538 224.203357 
L 170.021983 219.084524 
L 170.673427 211.406276 
L 171.324872 211.406276 
L 171.976316 213.965692 
L 172.627761 208.84686 
L 173.279206 211.406276 
L 173.93065 211.406276 
L 174.582095 206.287444 
L 175.233539 275.391681 
L 175.884984 208.84686 
L 178.490763 229.322189 
L 179.142207 231.881605 
L 181.096541 247.238103 
L 181.747986 249.797519 
L 183.050875 260.035184 
L 183.702319 262.5946 
L 185.005209 272.832265 
L 185.656653 285.629346 
L 186.959543 306.104675 
L 188.262432 331.698837 
L 188.913876 331.698837 
L 189.565321 316.34234 
L 190.216766 308.664091 
L 192.171099 277.951097 
L 192.822544 265.154016 
L 193.473989 244.678686 
L 194.125433 237.000438 
L 195.428323 226.762773 
L 196.079767 219.084524 
L 196.731212 216.525108 
L 197.382656 208.84686 
L 198.034101 211.406276 
L 198.685546 208.84686 
L 199.33699 208.84686 
L 199.988435 201.168611 
L 200.639879 203.728027 
L 201.291324 198.609195 
L 201.942769 226.762773 
L 202.594213 321.461172 
L 203.245658 275.391681 
L 203.897103 270.272848 
L 204.548547 275.391681 
L 205.199992 277.951097 
L 205.851436 283.069929 
L 206.502881 285.629346 
L 207.154326 290.748178 
L 207.80577 293.307594 
L 208.457215 293.307594 
L 209.10866 298.426427 
L 210.411549 303.545259 
L 214.320216 334.258253 
L 215.623106 339.377086 
L 216.27455 336.817669 
L 216.925995 326.580005 
L 218.228884 316.34234 
L 218.880329 308.664091 
L 219.531773 298.426427 
L 220.183218 290.748178 
L 220.834663 280.510513 
L 221.486107 267.713432 
L 222.137552 257.475767 
L 222.788996 237.000438 
L 224.091886 216.525108 
L 224.74333 216.525108 
L 226.697664 224.203357 
L 228.651998 224.203357 
L 229.303443 142.302039 
L 229.954887 160.217952 
L 230.606332 173.015033 
L 231.257776 178.133865 
L 231.909221 188.37153 
L 232.560666 190.930946 
L 233.863555 201.168611 
L 234.515 208.84686 
L 235.817889 219.084524 
L 236.469333 226.762773 
L 237.120778 229.322189 
L 237.772223 237.000438 
L 239.075112 257.475767 
L 242.332335 331.698837 
L 242.98378 324.020589 
L 243.635224 313.782924 
L 244.286669 308.664091 
L 246.241003 300.985843 
L 246.892447 295.86701 
L 247.543892 295.86701 
L 248.195337 293.307594 
L 248.846781 288.188762 
L 249.498226 285.629346 
L 250.14967 285.629346 
L 250.801115 275.391681 
L 251.45256 270.272848 
L 252.104004 270.272848 
L 252.755449 265.154016 
L 253.406893 262.5946 
L 254.058338 262.5946 
L 255.361227 252.356935 
L 256.012672 308.664091 
L 256.664117 283.069929 
L 257.967006 293.307594 
L 258.61845 295.86701 
L 259.269895 300.985843 
L 259.92134 300.985843 
L 265.132897 321.461172 
L 265.784341 321.461172 
L 267.08723 326.580005 
L 267.738675 326.580005 
L 268.39012 329.139421 
L 269.041564 336.817669 
L 269.693009 334.258253 
L 270.344453 321.461172 
L 270.995898 316.34234 
L 271.647343 306.104675 
L 272.298787 298.426427 
L 272.950232 285.629346 
L 273.601677 277.951097 
L 274.904566 252.356935 
L 275.55601 242.11927 
L 276.207455 237.000438 
L 277.510344 208.84686 
L 279.464678 201.168611 
L 280.767567 201.168611 
L 282.070457 206.287444 
L 283.373346 201.168611 
L 284.02479 196.049779 
L 285.32768 196.049779 
L 285.979124 193.490363 
L 286.630569 203.728027 
L 287.282013 201.168611 
L 287.933458 201.168611 
L 288.584903 203.728027 
L 289.236347 254.916351 
L 289.887792 155.09912 
L 291.190681 170.455617 
L 291.842126 173.015033 
L 292.49357 178.133865 
L 293.145015 180.693282 
L 293.79646 188.37153 
L 294.447904 193.490363 
L 295.099349 201.168611 
L 298.356572 226.762773 
L 299.008017 237.000438 
L 299.659461 249.797519 
L 301.613795 300.985843 
L 302.26524 329.139421 
L 302.916684 308.664091 
L 303.568129 293.307594 
L 304.219574 283.069929 
L 304.871018 270.272848 
L 305.522463 252.356935 
L 306.173907 239.559854 
L 306.825352 219.084524 
L 308.128241 198.609195 
L 308.779686 183.252698 
L 309.43113 178.133865 
L 310.082575 175.574449 
L 310.73402 175.574449 
L 311.385464 173.015033 
L 312.688354 173.015033 
L 313.339798 170.455617 
L 313.991243 170.455617 
L 314.642687 165.336784 
L 315.294132 167.896201 
L 315.945577 139.742622 
L 316.597021 124.386125 
L 317.248466 142.302039 
L 317.89991 152.539703 
L 318.551355 160.217952 
L 319.2028 165.336784 
L 319.854244 175.574449 
L 320.505689 183.252698 
L 322.460023 198.609195 
L 323.111467 206.287444 
L 323.762912 211.406276 
L 325.065801 231.881605 
L 328.323024 311.223508 
L 328.974469 318.901756 
L 329.625914 334.258253 
L 330.277358 311.223508 
L 330.928803 303.545259 
L 332.231692 283.069929 
L 332.883137 275.391681 
L 334.186026 254.916351 
L 334.837471 252.356935 
L 335.488915 242.11927 
L 336.14036 237.000438 
L 336.791804 229.322189 
L 337.443249 224.203357 
L 338.094694 224.203357 
L 338.746138 213.965692 
L 339.397583 211.406276 
L 340.049027 211.406276 
L 340.700472 213.965692 
L 341.351917 211.406276 
L 342.003361 211.406276 
L 342.654806 260.035184 
L 343.306251 231.881605 
L 343.957695 216.525108 
L 344.60914 221.643941 
L 346.563474 229.322189 
L 348.517807 244.678686 
L 349.169252 247.238103 
L 352.426475 272.832265 
L 353.07792 283.069929 
L 353.729364 295.86701 
L 354.380809 306.104675 
L 355.032254 318.901756 
L 355.683698 326.580005 
L 356.335143 339.377086 
L 356.986587 318.901756 
L 358.940921 311.223508 
L 360.243811 311.223508 
L 360.895255 306.104675 
L 362.849589 306.104675 
L 363.501034 308.664091 
L 365.455367 308.664091 
L 366.106812 311.223508 
L 366.758257 308.664091 
L 367.409701 308.664091 
L 368.061146 303.545259 
L 368.712591 306.104675 
L 370.01548 321.461172 
L 370.666924 308.664091 
L 371.318369 308.664091 
L 371.969814 313.782924 
L 372.621258 313.782924 
L 373.924148 318.901756 
L 374.575592 318.901756 
L 375.227037 321.461172 
L 375.878481 321.461172 
L 376.529926 324.020589 
L 377.832815 324.020589 
L 378.48426 326.580005 
L 379.135704 326.580005 
L 379.787149 329.139421 
L 380.438594 329.139421 
L 381.090038 331.698837 
L 382.392928 331.698837 
L 383.044372 344.495918 
L 384.347261 308.664091 
L 384.998706 298.426427 
L 385.650151 290.748178 
L 386.95304 265.154016 
L 388.255929 244.678686 
L 388.907374 221.643941 
L 390.210263 193.490363 
L 390.861708 188.37153 
L 391.513152 180.693282 
L 392.164597 180.693282 
L 392.816041 183.252698 
L 393.467486 178.133865 
L 395.42182 178.133865 
L 396.073264 175.574449 
L 397.376154 121.826709 
L 398.027598 137.183206 
L 398.679043 144.861455 
L 401.284821 165.336784 
L 401.936266 167.896201 
L 402.587711 178.133865 
L 403.239155 180.693282 
L 404.542044 196.049779 
L 405.193489 201.168611 
L 405.844934 208.84686 
L 406.496378 213.965692 
L 407.147823 226.762773 
L 407.799268 242.11927 
L 409.102157 280.510513 
L 409.753601 298.426427 
L 410.405046 321.461172 
L 411.056491 280.510513 
L 411.707935 272.832265 
L 413.662269 219.084524 
L 414.313714 208.84686 
L 414.965158 185.812114 
L 415.616603 178.133865 
L 416.268048 167.896201 
L 416.919492 160.217952 
L 417.570937 160.217952 
L 418.222381 162.777368 
L 418.873826 160.217952 
L 420.176715 160.217952 
L 420.82816 162.777368 
L 421.479605 167.896201 
L 422.131049 170.455617 
L 422.782494 178.133865 
L 423.433938 190.930946 
L 426.691161 203.728027 
L 427.342606 203.728027 
L 427.994051 193.490363 
L 428.645495 201.168611 
L 429.29694 198.609195 
L 429.948385 198.609195 
L 430.599829 206.287444 
L 431.251274 216.525108 
L 432.554163 226.762773 
L 433.205608 224.203357 
L 433.857052 226.762773 
L 434.508497 231.881605 
L 435.159941 231.881605 
L 435.811386 234.441022 
L 436.462831 229.322189 
L 437.114275 247.238103 
L 437.76572 277.951097 
L 438.417165 231.881605 
L 439.720054 237.000438 
L 440.371498 242.11927 
L 441.022943 244.678686 
L 442.325832 254.916351 
L 443.628721 260.035184 
L 444.280166 265.154016 
L 445.583055 270.272848 
L 446.885945 280.510513 
L 447.537389 288.188762 
L 448.188834 300.985843 
L 449.491723 321.461172 
L 450.143168 329.139421 
L 450.794612 341.936502 
L 451.446057 324.020589 
L 452.097502 318.901756 
L 452.748946 316.34234 
L 453.400391 311.223508 
L 454.051835 303.545259 
L 454.70328 300.985843 
L 455.354725 300.985843 
L 456.006169 298.426427 
L 456.657614 290.748178 
L 457.309058 285.629346 
L 457.960503 285.629346 
L 458.611948 283.069929 
L 459.263392 283.069929 
L 461.869171 262.5946 
L 463.823505 254.916351 
L 464.474949 313.782924 
L 465.126394 280.510513 
L 465.126394 280.510513 
" style="fill:none;stroke:#ff7f0e;stroke-linecap:square;stroke-width:1.5;"/>
   </g>
   <g id="line2d_16">
    <path clip-path="url(#p039f4cd85b)" d="M 118.606065 318.901756 
L 119.257509 290.748178 
L 119.908954 288.188762 
L 120.560399 280.510513 
L 123.817622 267.713432 
L 125.120511 272.832265 
L 125.771955 272.832265 
L 126.4234 270.272848 
L 127.074845 280.510513 
L 127.726289 288.188762 
L 128.377734 298.426427 
L 129.680623 313.782924 
L 130.332068 324.020589 
L 130.983512 336.817669 
L 132.286402 341.936502 
L 132.937846 347.055334 
L 134.240735 352.174167 
L 138.149403 352.174167 
L 138.800848 349.61475 
L 139.452292 352.174167 
L 140.103737 352.174167 
L 140.755182 347.055334 
L 141.406626 344.495918 
L 144.012405 324.020589 
L 144.663849 321.461172 
L 147.269628 300.985843 
L 147.921072 298.426427 
L 148.572517 290.748178 
L 149.875406 285.629346 
L 151.178296 270.272848 
L 152.481185 244.678686 
L 153.132629 234.441022 
L 153.784074 221.643941 
L 154.435519 226.762773 
L 155.086963 247.238103 
L 156.389852 272.832265 
L 157.041297 283.069929 
L 157.692742 300.985843 
L 158.995631 321.461172 
L 159.647076 336.817669 
L 160.29852 339.377086 
L 160.949965 347.055334 
L 161.601409 347.055334 
L 162.252854 349.61475 
L 162.904299 349.61475 
L 163.555743 352.174167 
L 164.207188 349.61475 
L 164.858632 352.174167 
L 166.812966 352.174167 
L 168.115856 347.055334 
L 168.7673 349.61475 
L 172.024523 349.61475 
L 172.675968 352.174167 
L 173.327412 352.174167 
L 173.978857 349.61475 
L 174.630302 349.61475 
L 175.933191 344.495918 
L 178.538969 324.020589 
L 179.190414 321.461172 
L 181.796193 300.985843 
L 182.447637 298.426427 
L 184.401971 283.069929 
L 185.053416 272.832265 
L 187.007749 234.441022 
L 187.659194 224.203357 
L 188.310639 206.287444 
L 188.962083 216.525108 
L 189.613528 231.881605 
L 190.916417 252.356935 
L 191.567862 272.832265 
L 192.219306 283.069929 
L 192.870751 298.426427 
L 193.522196 306.104675 
L 194.17364 318.901756 
L 194.825085 324.020589 
L 195.476529 334.258253 
L 196.127974 341.936502 
L 198.733753 352.174167 
L 199.385197 349.61475 
L 200.036642 352.174167 
L 202.64242 352.174167 
L 203.293865 349.61475 
L 205.899643 329.139421 
L 206.551088 326.580005 
L 208.505422 311.223508 
L 209.156866 308.664091 
L 209.808311 303.545259 
L 211.762645 295.86701 
L 212.414089 290.748178 
L 213.065534 280.510513 
L 213.716979 272.832265 
L 214.368423 262.5946 
L 215.019868 260.035184 
L 215.671313 249.797519 
L 216.322757 262.5946 
L 216.974202 267.713432 
L 217.625646 275.391681 
L 218.277091 277.951097 
L 220.231425 300.985843 
L 220.88287 306.104675 
L 222.185759 321.461172 
L 222.837203 326.580005 
L 223.488648 336.817669 
L 224.140093 344.495918 
L 224.791537 347.055334 
L 225.442982 347.055334 
L 226.094426 344.495918 
L 227.397316 349.61475 
L 228.700205 349.61475 
L 230.003094 344.495918 
L 231.305983 334.258253 
L 231.957428 331.698837 
L 233.911762 316.34234 
L 234.563206 313.782924 
L 235.866096 303.545259 
L 236.51754 300.985843 
L 237.82043 290.748178 
L 238.471874 277.951097 
L 240.426208 234.441022 
L 241.077653 221.643941 
L 241.729097 211.406276 
L 242.380542 193.490363 
L 243.031986 208.84686 
L 243.683431 219.084524 
L 244.334876 226.762773 
L 244.98632 247.238103 
L 245.637765 249.797519 
L 246.940654 270.272848 
L 247.592099 270.272848 
L 248.243543 262.5946 
L 248.894988 260.035184 
L 250.197877 270.272848 
L 250.849322 277.951097 
L 251.500766 280.510513 
L 252.152211 285.629346 
L 252.803656 295.86701 
L 254.106545 295.86701 
L 254.75799 298.426427 
L 255.409434 306.104675 
L 256.060879 285.629346 
L 256.712323 298.426427 
L 257.363768 295.86701 
L 259.318102 280.510513 
L 259.969547 277.951097 
L 260.620991 272.832265 
L 265.832548 252.356935 
L 266.483993 252.356935 
L 268.438327 244.678686 
L 269.089771 234.441022 
L 269.741216 234.441022 
L 270.39266 247.238103 
L 271.044105 252.356935 
L 271.69555 260.035184 
L 272.346994 270.272848 
L 273.649883 285.629346 
L 274.952773 313.782924 
L 275.604217 324.020589 
L 276.255662 326.580005 
L 276.907107 336.817669 
L 277.558551 344.495918 
L 278.209996 344.495918 
L 278.86144 347.055334 
L 279.512885 347.055334 
L 280.16433 349.61475 
L 280.815774 347.055334 
L 281.467219 347.055334 
L 282.118663 349.61475 
L 286.678776 349.61475 
L 287.33022 352.174167 
L 289.284554 352.174167 
L 289.935999 349.61475 
L 293.193222 324.020589 
L 293.844667 321.461172 
L 295.799 306.104675 
L 296.450445 303.545259 
L 297.753334 293.307594 
L 298.404779 290.748178 
L 299.056224 285.629346 
L 299.707668 277.951097 
L 300.359113 265.154016 
L 301.010557 254.916351 
L 301.662002 242.11927 
L 302.313447 226.762773 
L 304.26778 257.475767 
L 304.919225 262.5946 
L 305.57067 272.832265 
L 306.873559 298.426427 
L 308.176448 313.782924 
L 308.827893 329.139421 
L 309.479337 334.258253 
L 310.130782 336.817669 
L 311.433671 347.055334 
L 312.085116 349.61475 
L 315.342339 349.61475 
L 316.645228 344.495918 
L 319.251007 324.020589 
L 319.902451 321.461172 
L 321.20534 311.223508 
L 321.856785 308.664091 
L 322.50823 303.545259 
L 323.159674 300.985843 
L 324.462564 290.748178 
L 325.114008 290.748178 
L 326.416897 285.629346 
L 327.719787 265.154016 
L 329.67412 242.11927 
L 330.325565 257.475767 
L 330.97701 260.035184 
L 331.628454 265.154016 
L 332.279899 272.832265 
L 332.931344 277.951097 
L 335.537122 308.664091 
L 336.188567 313.782924 
L 336.840011 313.782924 
L 337.491456 321.461172 
L 338.1429 324.020589 
L 338.794345 329.139421 
L 339.44579 336.817669 
L 340.748679 347.055334 
L 341.400124 349.61475 
L 342.703013 349.61475 
L 343.354457 347.055334 
L 345.960236 326.580005 
L 346.611681 324.020589 
L 349.868904 298.426427 
L 350.520348 295.86701 
L 351.171793 290.748178 
L 351.823237 288.188762 
L 352.474682 283.069929 
L 353.126127 275.391681 
L 353.777571 262.5946 
L 354.429016 252.356935 
L 355.080461 239.559854 
L 355.731905 231.881605 
L 356.38335 219.084524 
L 357.034794 239.559854 
L 357.686239 242.11927 
L 358.337684 229.322189 
L 359.640573 229.322189 
L 360.292017 249.797519 
L 360.943462 254.916351 
L 361.594907 252.356935 
L 362.246351 252.356935 
L 363.549241 247.238103 
L 365.503574 247.238103 
L 366.155019 249.797519 
L 366.806464 247.238103 
L 367.457908 265.154016 
L 368.109353 267.713432 
L 368.760797 262.5946 
L 369.412242 249.797519 
L 370.063687 247.238103 
L 370.715131 260.035184 
L 371.366576 260.035184 
L 372.018021 257.475767 
L 372.669465 260.035184 
L 373.32091 257.475767 
L 373.972354 257.475767 
L 378.532467 239.559854 
L 379.183911 239.559854 
L 380.486801 234.441022 
L 381.78969 234.441022 
L 382.441134 231.881605 
L 383.092579 216.525108 
L 383.744024 231.881605 
L 384.395468 242.11927 
L 385.698358 257.475767 
L 387.652691 288.188762 
L 388.955581 313.782924 
L 389.607025 324.020589 
L 390.25847 331.698837 
L 390.909914 341.936502 
L 391.561359 347.055334 
L 392.212804 349.61475 
L 392.864248 349.61475 
L 393.515693 352.174167 
L 396.772916 352.174167 
L 398.075805 347.055334 
L 399.378694 336.817669 
L 400.030139 334.258253 
L 401.333028 324.020589 
L 401.984473 321.461172 
L 403.938807 306.104675 
L 404.590251 303.545259 
L 405.241696 298.426427 
L 405.893141 295.86701 
L 406.544585 290.748178 
L 410.453253 213.965692 
L 411.756142 270.272848 
L 412.407587 290.748178 
L 413.059031 306.104675 
L 413.710476 308.664091 
L 414.361921 316.34234 
L 415.013365 329.139421 
L 415.66481 334.258253 
L 416.316254 341.936502 
L 417.619144 347.055334 
L 418.270588 347.055334 
L 418.922033 349.61475 
L 419.573478 349.61475 
L 420.224922 352.174167 
L 429.345147 352.174167 
L 429.996591 349.61475 
L 430.648036 352.174167 
L 433.253815 352.174167 
L 433.905259 349.61475 
L 434.556704 352.174167 
L 435.208148 352.174167 
L 435.859593 349.61475 
L 436.511038 349.61475 
L 437.162482 347.055334 
L 437.813927 339.377086 
L 438.465371 336.817669 
L 440.419705 321.461172 
L 441.07115 318.901756 
L 442.374039 308.664091 
L 443.025484 306.104675 
L 444.979818 290.748178 
L 445.631262 288.188762 
L 446.934151 277.951097 
L 447.585596 265.154016 
L 448.237041 254.916351 
L 449.53993 229.322189 
L 450.191375 221.643941 
L 450.842819 208.84686 
L 451.494264 226.762773 
L 452.145708 231.881605 
L 452.797153 234.441022 
L 454.100042 249.797519 
L 454.751487 252.356935 
L 455.402931 252.356935 
L 456.054376 254.916351 
L 456.705821 265.154016 
L 457.357265 270.272848 
L 458.00871 270.272848 
L 458.660155 285.629346 
L 459.311599 285.629346 
L 460.614488 295.86701 
L 461.265933 298.426427 
L 461.917378 298.426427 
L 462.568822 311.223508 
L 463.220267 308.664091 
L 463.871712 300.985843 
L 464.523156 260.035184 
L 465.174601 277.951097 
L 465.826045 275.391681 
L 467.128935 265.154016 
L 467.780379 262.5946 
L 468.431824 257.475767 
L 469.734713 252.356935 
L 470.386158 247.238103 
L 470.386158 247.238103 
" style="fill:none;stroke:#2ca02c;stroke-linecap:square;stroke-width:1.5;"/>
   </g>
   <g id="line2d_17">
    <path clip-path="url(#p039f4cd85b)" d="M 116.008104 308.664091 
L 117.962437 178.133865 
L 118.613882 190.930946 
L 119.265327 213.965692 
L 119.916771 213.965692 
L 120.568216 206.287444 
L 121.21966 203.728027 
L 121.871105 198.609195 
L 123.173994 193.490363 
L 123.825439 188.37153 
L 124.476884 193.490363 
L 125.779773 198.609195 
L 126.431217 198.609195 
L 127.082662 224.203357 
L 127.734107 234.441022 
L 129.688441 293.307594 
L 130.339885 303.545259 
L 130.99133 321.461172 
L 131.642774 334.258253 
L 133.597108 349.61475 
L 134.248553 349.61475 
L 134.899997 352.174167 
L 140.111554 352.174167 
L 141.414444 347.055334 
L 144.671667 321.461172 
L 145.323111 318.901756 
L 147.92889 298.426427 
L 148.580334 295.86701 
L 149.883224 285.629346 
L 151.186113 265.154016 
L 151.837557 249.797519 
L 153.140447 229.322189 
L 153.791891 216.525108 
L 154.443336 216.525108 
L 155.094781 239.559854 
L 155.746225 254.916351 
L 156.39767 265.154016 
L 157.049114 277.951097 
L 157.700559 295.86701 
L 158.352004 308.664091 
L 159.003448 316.34234 
L 159.654893 326.580005 
L 160.306337 331.698837 
L 160.957782 341.936502 
L 162.912116 349.61475 
L 163.563561 347.055334 
L 165.517894 347.055334 
L 166.169339 349.61475 
L 166.820784 347.055334 
L 167.472228 349.61475 
L 170.078007 349.61475 
L 170.729451 352.174167 
L 171.380896 352.174167 
L 172.032341 349.61475 
L 173.33523 349.61475 
L 173.986674 352.174167 
L 174.638119 352.174167 
L 175.289564 349.61475 
L 176.592453 339.377086 
L 177.243898 336.817669 
L 179.849676 316.34234 
L 180.501121 313.782924 
L 182.455454 298.426427 
L 183.106899 295.86701 
L 184.409788 285.629346 
L 185.712678 280.510513 
L 187.667011 249.797519 
L 188.318456 237.000438 
L 188.969901 239.559854 
L 189.621345 252.356935 
L 190.27279 262.5946 
L 190.924234 270.272848 
L 191.575679 270.272848 
L 192.227124 272.832265 
L 193.530013 300.985843 
L 194.832902 326.580005 
L 195.484347 336.817669 
L 196.135791 344.495918 
L 198.090125 352.174167 
L 201.998793 352.174167 
L 203.301682 347.055334 
L 203.953127 341.936502 
L 204.604571 339.377086 
L 207.21035 318.901756 
L 207.861795 316.34234 
L 209.164684 306.104675 
L 209.816128 298.426427 
L 213.724796 208.84686 
L 214.376241 198.609195 
L 215.027685 196.049779 
L 215.67913 183.252698 
L 216.330575 201.168611 
L 216.982019 213.965692 
L 218.284908 234.441022 
L 218.936353 247.238103 
L 219.587798 254.916351 
L 220.239242 267.713432 
L 220.890687 277.951097 
L 222.845021 324.020589 
L 224.14791 344.495918 
L 224.799355 347.055334 
L 226.102244 347.055334 
L 226.753688 349.61475 
L 228.056578 344.495918 
L 228.708022 344.495918 
L 229.359467 336.817669 
L 230.010911 339.377086 
L 230.662356 331.698837 
L 232.61669 316.34234 
L 233.268135 313.782924 
L 234.571024 303.545259 
L 235.222468 300.985843 
L 235.873913 295.86701 
L 236.525358 293.307594 
L 237.828247 283.069929 
L 238.479691 283.069929 
L 239.782581 277.951097 
L 240.434025 270.272848 
L 241.08547 260.035184 
L 241.736915 252.356935 
L 242.388359 239.559854 
L 243.691248 254.916351 
L 244.342693 254.916351 
L 244.994138 239.559854 
L 245.645582 244.678686 
L 246.297027 239.559854 
L 246.948472 237.000438 
L 247.599916 239.559854 
L 248.251361 249.797519 
L 248.902805 262.5946 
L 249.55425 260.035184 
L 250.205695 262.5946 
L 250.857139 272.832265 
L 251.508584 275.391681 
L 252.160028 272.832265 
L 252.811473 267.713432 
L 254.114362 272.832265 
L 254.765807 277.951097 
L 255.417252 285.629346 
L 256.068696 213.965692 
L 256.720141 242.11927 
L 258.02303 231.881605 
L 258.674475 229.322189 
L 259.977364 229.322189 
L 260.628808 226.762773 
L 261.280253 226.762773 
L 263.886032 216.525108 
L 264.537476 216.525108 
L 265.840365 211.406276 
L 266.49181 211.406276 
L 267.794699 206.287444 
L 268.446144 206.287444 
L 269.097588 201.168611 
L 269.749033 203.728027 
L 270.400478 219.084524 
L 271.703367 239.559854 
L 273.006256 265.154016 
L 274.309145 280.510513 
L 274.96059 290.748178 
L 275.612035 303.545259 
L 276.263479 308.664091 
L 277.566368 344.495918 
L 278.217813 344.495918 
L 278.869258 349.61475 
L 280.172147 349.61475 
L 280.823592 347.055334 
L 281.475036 349.61475 
L 282.126481 349.61475 
L 282.777925 352.174167 
L 283.42937 349.61475 
L 286.686593 349.61475 
L 287.338038 352.174167 
L 289.292372 352.174167 
L 289.943816 349.61475 
L 292.549595 329.139421 
L 293.201039 326.580005 
L 295.155373 311.223508 
L 295.806818 308.664091 
L 297.109707 298.426427 
L 297.761152 295.86701 
L 298.412596 290.748178 
L 299.715485 270.272848 
L 301.018375 244.678686 
L 301.669819 234.441022 
L 302.321264 216.525108 
L 302.972709 224.203357 
L 303.624153 237.000438 
L 304.275598 244.678686 
L 304.927042 254.916351 
L 305.578487 267.713432 
L 306.229932 277.951097 
L 307.532821 303.545259 
L 308.184265 308.664091 
L 308.83571 324.020589 
L 309.487155 331.698837 
L 311.441489 347.055334 
L 312.092933 349.61475 
L 312.744378 349.61475 
L 313.395822 352.174167 
L 314.698712 352.174167 
L 316.001601 347.055334 
L 316.653045 341.936502 
L 317.30449 339.377086 
L 319.910269 318.901756 
L 320.561713 316.34234 
L 321.864602 306.104675 
L 322.516047 303.545259 
L 323.167492 298.426427 
L 323.818936 295.86701 
L 324.470381 288.188762 
L 325.77327 262.5946 
L 326.424715 244.678686 
L 327.727604 219.084524 
L 328.379049 208.84686 
L 329.030493 203.728027 
L 329.681938 190.930946 
L 330.333382 213.965692 
L 331.636272 229.322189 
L 332.287716 239.559854 
L 332.939161 247.238103 
L 333.590606 260.035184 
L 334.24205 270.272848 
L 334.893495 277.951097 
L 335.544939 290.748178 
L 336.196384 298.426427 
L 336.847829 313.782924 
L 337.499273 321.461172 
L 338.150718 331.698837 
L 338.802162 336.817669 
L 339.453607 352.174167 
L 340.105052 347.055334 
L 340.756496 349.61475 
L 341.407941 349.61475 
L 342.059386 352.174167 
L 342.71083 352.174167 
L 343.362275 347.055334 
L 344.013719 344.495918 
L 345.968053 329.139421 
L 346.619498 326.580005 
L 349.876721 300.985843 
L 350.528166 298.426427 
L 351.17961 293.307594 
L 351.831055 290.748178 
L 353.133944 270.272848 
L 355.088278 231.881605 
L 355.739722 224.203357 
L 356.391167 208.84686 
L 357.042612 231.881605 
L 357.694056 234.441022 
L 358.345501 254.916351 
L 358.996946 260.035184 
L 359.64839 257.475767 
L 360.299835 244.678686 
L 361.602724 249.797519 
L 362.905613 249.797519 
L 363.557058 252.356935 
L 364.208502 249.797519 
L 365.511392 249.797519 
L 366.162836 247.238103 
L 366.814281 247.238103 
L 367.465726 234.441022 
L 368.768615 239.559854 
L 369.420059 231.881605 
L 370.071504 219.084524 
L 370.722949 234.441022 
L 371.374393 231.881605 
L 372.025838 226.762773 
L 372.677283 224.203357 
L 373.328727 219.084524 
L 373.980172 219.084524 
L 374.631616 216.525108 
L 378.540284 216.525108 
L 379.191729 219.084524 
L 379.843173 216.525108 
L 381.146063 216.525108 
L 381.797507 213.965692 
L 382.448952 213.965692 
L 383.100396 206.287444 
L 383.751841 224.203357 
L 384.403286 234.441022 
L 385.05473 242.11927 
L 386.357619 262.5946 
L 387.009064 275.391681 
L 387.660509 285.629346 
L 388.311953 298.426427 
L 389.614843 331.698837 
L 390.266287 339.377086 
L 390.917732 344.495918 
L 392.220621 349.61475 
L 392.872066 349.61475 
L 393.52351 352.174167 
L 394.174955 352.174167 
L 394.826399 349.61475 
L 396.129289 349.61475 
L 396.780733 352.174167 
L 398.083623 347.055334 
L 400.689401 326.580005 
L 401.340846 324.020589 
L 402.643735 313.782924 
L 403.295179 311.223508 
L 403.946624 306.104675 
L 404.598069 303.545259 
L 405.900958 293.307594 
L 407.203847 288.188762 
L 407.855292 280.510513 
L 408.506736 267.713432 
L 409.809626 247.238103 
L 410.46107 234.441022 
L 411.112515 260.035184 
L 411.76396 249.797519 
L 412.415404 257.475767 
L 413.066849 267.713432 
L 413.718293 290.748178 
L 415.021183 318.901756 
L 415.672627 326.580005 
L 416.324072 336.817669 
L 416.975516 341.936502 
L 418.92985 349.61475 
L 419.581295 349.61475 
L 420.23274 352.174167 
L 420.884184 352.174167 
L 421.535629 349.61475 
L 422.187073 349.61475 
L 422.838518 352.174167 
L 437.1703 352.174167 
L 437.821744 349.61475 
L 440.427523 329.139421 
L 441.078967 326.580005 
L 443.033301 311.223508 
L 443.684746 308.664091 
L 445.63908 293.307594 
L 446.290524 290.748178 
L 446.941969 285.629346 
L 448.244858 265.154016 
L 448.896303 252.356935 
L 450.850637 221.643941 
L 451.502081 237.000438 
L 454.10786 257.475767 
L 456.062193 265.154016 
L 456.713638 270.272848 
L 457.365083 277.951097 
L 458.016527 277.951097 
L 458.667972 270.272848 
L 459.319417 270.272848 
L 459.970861 277.951097 
L 460.622306 283.069929 
L 461.27375 293.307594 
L 461.925195 300.985843 
L 462.57664 295.86701 
L 463.228084 300.985843 
L 463.879529 311.223508 
L 464.530973 265.154016 
L 465.182418 285.629346 
L 466.485307 275.391681 
L 467.136752 272.832265 
L 467.788197 267.713432 
L 467.788197 267.713432 
" style="fill:none;stroke:#d62728;stroke-linecap:square;stroke-width:1.5;"/>
   </g>
   <g id="patch_3">
    <path d="M 92.823906 352.174167 
L 92.823906 35.0625 
" style="fill:none;stroke:#000000;stroke-linecap:square;stroke-linejoin:miter;stroke-width:0.8;"/>
   </g>
   <g id="patch_4">
    <path d="M 488.365312 352.174167 
L 488.365312 35.0625 
" style="fill:none;stroke:#000000;stroke-linecap:square;stroke-linejoin:miter;stroke-width:0.8;"/>
   </g>
   <g id="patch_5">
    <path d="M 92.823906 352.174167 
L 488.365312 352.174167 
" style="fill:none;stroke:#000000;stroke-linecap:square;stroke-linejoin:miter;stroke-width:0.8;"/>
   </g>
   <g id="patch_6">
    <path d="M 92.823906 35.0625 
L 488.365312 35.0625 
" style="fill:none;stroke:#000000;stroke-linecap:square;stroke-linejoin:miter;stroke-width:0.8;"/>
   </g>
   <g id="legend_1">
    <g id="patch_7">
     <path d="M 510.142383 96.775 
L 609.212695 96.775 
Q 611.212695 96.775 611.212695 94.775 
L 611.212695 37.0625 
Q 611.212695 35.0625 609.212695 35.0625 
L 510.142383 35.0625 
Q 508.142383 35.0625 508.142383 37.0625 
L 508.142383 94.775 
Q 508.142383 96.775 510.142383 96.775 
z
" style="fill:#ffffff;opacity:0.8;stroke:#cccccc;stroke-linejoin:miter;"/>
    </g>
    <g id="line2d_18">
     <path d="M 512.142383 43.160937 
L 532.142383 43.160937 
" style="fill:none;stroke:#1f77b4;stroke-linecap:square;stroke-width:1.5;"/>
    </g>
    <g id="line2d_19"/>
    <g id="text_15">
     <!-- bbrshallow-pi -->
     <defs>
      <path d="M 34.28125 27.484375 
Q 23.390625 27.484375 19.1875 25 
Q 14.984375 22.515625 14.984375 16.5 
Q 14.984375 11.71875 18.140625 8.90625 
Q 21.296875 6.109375 26.703125 6.109375 
Q 34.1875 6.109375 38.703125 11.40625 
Q 43.21875 16.703125 43.21875 25.484375 
L 43.21875 27.484375 
z
M 52.203125 31.203125 
L 52.203125 0 
L 43.21875 0 
L 43.21875 8.296875 
Q 40.140625 3.328125 35.546875 0.953125 
Q 30.953125 -1.421875 24.3125 -1.421875 
Q 15.921875 -1.421875 10.953125 3.296875 
Q 6 8.015625 6 15.921875 
Q 6 25.140625 12.171875 29.828125 
Q 18.359375 34.515625 30.609375 34.515625 
L 43.21875 34.515625 
L 43.21875 35.40625 
Q 43.21875 41.609375 39.140625 45 
Q 35.0625 48.390625 27.6875 48.390625 
Q 23 48.390625 18.546875 47.265625 
Q 14.109375 46.140625 10.015625 43.890625 
L 10.015625 52.203125 
Q 14.9375 54.109375 19.578125 55.046875 
Q 24.21875 56 28.609375 56 
Q 40.484375 56 46.34375 49.84375 
Q 52.203125 43.703125 52.203125 31.203125 
z
" id="DejaVuSans-97"/>
      <path d="M 9.421875 75.984375 
L 18.40625 75.984375 
L 18.40625 0 
L 9.421875 0 
z
" id="DejaVuSans-108"/>
      <path d="M 4.203125 54.6875 
L 13.1875 54.6875 
L 24.421875 12.015625 
L 35.59375 54.6875 
L 46.1875 54.6875 
L 57.421875 12.015625 
L 68.609375 54.6875 
L 77.59375 54.6875 
L 63.28125 0 
L 52.6875 0 
L 40.921875 44.828125 
L 29.109375 0 
L 18.5 0 
z
" id="DejaVuSans-119"/>
      <path d="M 4.890625 31.390625 
L 31.203125 31.390625 
L 31.203125 23.390625 
L 4.890625 23.390625 
z
" id="DejaVuSans-45"/>
     </defs>
     <g transform="translate(540.142383 46.660937)scale(0.1 -0.1)">
      <use xlink:href="#DejaVuSans-98"/>
      <use x="63.476562" xlink:href="#DejaVuSans-98"/>
      <use x="126.953125" xlink:href="#DejaVuSans-114"/>
      <use x="168.066406" xlink:href="#DejaVuSans-115"/>
      <use x="220.166016" xlink:href="#DejaVuSans-104"/>
      <use x="283.544922" xlink:href="#DejaVuSans-97"/>
      <use x="344.824219" xlink:href="#DejaVuSans-108"/>
      <use x="372.607422" xlink:href="#DejaVuSans-108"/>
      <use x="400.390625" xlink:href="#DejaVuSans-111"/>
      <use x="461.572266" xlink:href="#DejaVuSans-119"/>
      <use x="543.359375" xlink:href="#DejaVuSans-45"/>
      <use x="579.443359" xlink:href="#DejaVuSans-112"/>
      <use x="642.919922" xlink:href="#DejaVuSans-105"/>
     </g>
    </g>
    <g id="line2d_20">
     <path d="M 512.142383 57.839063 
L 532.142383 57.839063 
" style="fill:none;stroke:#ff7f0e;stroke-linecap:square;stroke-width:1.5;"/>
    </g>
    <g id="line2d_21"/>
    <g id="text_16">
     <!-- bbrshallow-pi -->
     <g transform="translate(540.142383 61.339063)scale(0.1 -0.1)">
      <use xlink:href="#DejaVuSans-98"/>
      <use x="63.476562" xlink:href="#DejaVuSans-98"/>
      <use x="126.953125" xlink:href="#DejaVuSans-114"/>
      <use x="168.066406" xlink:href="#DejaVuSans-115"/>
      <use x="220.166016" xlink:href="#DejaVuSans-104"/>
      <use x="283.544922" xlink:href="#DejaVuSans-97"/>
      <use x="344.824219" xlink:href="#DejaVuSans-108"/>
      <use x="372.607422" xlink:href="#DejaVuSans-108"/>
      <use x="400.390625" xlink:href="#DejaVuSans-111"/>
      <use x="461.572266" xlink:href="#DejaVuSans-119"/>
      <use x="543.359375" xlink:href="#DejaVuSans-45"/>
      <use x="579.443359" xlink:href="#DejaVuSans-112"/>
      <use x="642.919922" xlink:href="#DejaVuSans-105"/>
     </g>
    </g>
    <g id="line2d_22">
     <path d="M 512.142383 72.517187 
L 532.142383 72.517187 
" style="fill:none;stroke:#2ca02c;stroke-linecap:square;stroke-width:1.5;"/>
    </g>
    <g id="line2d_23"/>
    <g id="text_17">
     <!-- cubic-pi -->
     <g transform="translate(540.142383 76.017187)scale(0.1 -0.1)">
      <use xlink:href="#DejaVuSans-99"/>
      <use x="54.980469" xlink:href="#DejaVuSans-117"/>
      <use x="118.359375" xlink:href="#DejaVuSans-98"/>
      <use x="181.835938" xlink:href="#DejaVuSans-105"/>
      <use x="209.619141" xlink:href="#DejaVuSans-99"/>
      <use x="264.599609" xlink:href="#DejaVuSans-45"/>
      <use x="300.683594" xlink:href="#DejaVuSans-112"/>
      <use x="364.160156" xlink:href="#DejaVuSans-105"/>
     </g>
    </g>
    <g id="line2d_24">
     <path d="M 512.142383 87.195312 
L 532.142383 87.195312 
" style="fill:none;stroke:#d62728;stroke-linecap:square;stroke-width:1.5;"/>
    </g>
    <g id="line2d_25"/>
    <g id="text_18">
     <!-- cubic-pi -->
     <g transform="translate(540.142383 90.695312)scale(0.1 -0.1)">
      <use xlink:href="#DejaVuSans-99"/>
      <use x="54.980469" xlink:href="#DejaVuSans-117"/>
      <use x="118.359375" xlink:href="#DejaVuSans-98"/>
      <use x="181.835938" xlink:href="#DejaVuSans-105"/>
      <use x="209.619141" xlink:href="#DejaVuSans-99"/>
      <use x="264.599609" xlink:href="#DejaVuSans-45"/>
      <use x="300.683594" xlink:href="#DejaVuSans-112"/>
      <use x="364.160156" xlink:href="#DejaVuSans-105"/>
     </g>
    </g>
   </g>
  </g>
  <g id="text_19">
   <!-- result throughput -->
   <g transform="translate(289.320938 17.038125)scale(0.12 -0.12)">
    <use xlink:href="#DejaVuSans-114"/>
    <use x="41.082031" xlink:href="#DejaVuSans-101"/>
    <use x="102.605469" xlink:href="#DejaVuSans-115"/>
    <use x="154.705078" xlink:href="#DejaVuSans-117"/>
    <use x="218.083984" xlink:href="#DejaVuSans-108"/>
    <use x="245.867188" xlink:href="#DejaVuSans-116"/>
    <use x="285.076172" xlink:href="#DejaVuSans-32"/>
    <use x="316.863281" xlink:href="#DejaVuSans-116"/>
    <use x="356.072266" xlink:href="#DejaVuSans-104"/>
    <use x="419.451172" xlink:href="#DejaVuSans-114"/>
    <use x="460.533203" xlink:href="#DejaVuSans-111"/>
    <use x="521.714844" xlink:href="#DejaVuSans-117"/>
    <use x="585.09375" xlink:href="#DejaVuSans-103"/>
    <use x="648.570312" xlink:href="#DejaVuSans-104"/>
    <use x="711.949219" xlink:href="#DejaVuSans-112"/>
    <use x="775.425781" xlink:href="#DejaVuSans-117"/>
    <use x="838.804688" xlink:href="#DejaVuSans-116"/>
   </g>
  </g>
 </g>
 <defs>
  <clipPath id="p039f4cd85b">
   <rect height="317.111667" width="395.541406" x="92.823906" y="35.0625"/>
  </clipPath>
 </defs>
</svg>
