<?xml version="1.0" encoding="utf-8" standalone="no"?>
<!DOCTYPE svg PUBLIC "-//W3C//DTD SVG 1.1//EN"
  "http://www.w3.org/Graphics/SVG/1.1/DTD/svg11.dtd">
<!-- Created with matplotlib (https://matplotlib.org/) -->
<svg height="396pt" version="1.1" viewBox="0 0 684 396" width="684pt" xmlns="http://www.w3.org/2000/svg" xmlns:xlink="http://www.w3.org/1999/xlink">
 <defs>
  <style type="text/css">
*{stroke-linecap:butt;stroke-linejoin:round;}
  </style>
 </defs>
 <g id="figure_1">
  <g id="patch_1">
   <path d="M 0 396 
L 684 396 
L 684 0 
L 0 0 
z
" style="fill:#ffffff;"/>
  </g>
  <g id="axes_1">
   <g id="patch_2">
    <path d="M 66.158594 352.174167 
L 516.019219 352.174167 
L 516.019219 35.0625 
L 66.158594 35.0625 
z
" style="fill:#ffffff;"/>
   </g>
   <g id="matplotlib.axis_1">
    <g id="xtick_1">
     <g id="line2d_1">
      <defs>
       <path d="M 0 0 
L 0 3.5 
" id="m27025f5b70" style="stroke:#000000;stroke-width:0.8;"/>
      </defs>
      <g>
       <use style="stroke:#000000;stroke-width:0.8;" x="92.088934" xlink:href="#m27025f5b70" y="352.174167"/>
      </g>
     </g>
     <g id="text_1">
      <!-- 0 -->
      <defs>
       <path d="M 31.78125 66.40625 
Q 24.171875 66.40625 20.328125 58.90625 
Q 16.5 51.421875 16.5 36.375 
Q 16.5 21.390625 20.328125 13.890625 
Q 24.171875 6.390625 31.78125 6.390625 
Q 39.453125 6.390625 43.28125 13.890625 
Q 47.125 21.390625 47.125 36.375 
Q 47.125 51.421875 43.28125 58.90625 
Q 39.453125 66.40625 31.78125 66.40625 
z
M 31.78125 74.21875 
Q 44.046875 74.21875 50.515625 64.515625 
Q 56.984375 54.828125 56.984375 36.375 
Q 56.984375 17.96875 50.515625 8.265625 
Q 44.046875 -1.421875 31.78125 -1.421875 
Q 19.53125 -1.421875 13.0625 8.265625 
Q 6.59375 17.96875 6.59375 36.375 
Q 6.59375 54.828125 13.0625 64.515625 
Q 19.53125 74.21875 31.78125 74.21875 
z
" id="DejaVuSans-48"/>
      </defs>
      <g transform="translate(88.907684 366.772604)scale(0.1 -0.1)">
       <use xlink:href="#DejaVuSans-48"/>
      </g>
     </g>
    </g>
    <g id="xtick_2">
     <g id="line2d_2">
      <g>
       <use style="stroke:#000000;stroke-width:0.8;" x="163.742018" xlink:href="#m27025f5b70" y="352.174167"/>
      </g>
     </g>
     <g id="text_2">
      <!-- 50 -->
      <defs>
       <path d="M 10.796875 72.90625 
L 49.515625 72.90625 
L 49.515625 64.59375 
L 19.828125 64.59375 
L 19.828125 46.734375 
Q 21.96875 47.46875 24.109375 47.828125 
Q 26.265625 48.1875 28.421875 48.1875 
Q 40.625 48.1875 47.75 41.5 
Q 54.890625 34.8125 54.890625 23.390625 
Q 54.890625 11.625 47.5625 5.09375 
Q 40.234375 -1.421875 26.90625 -1.421875 
Q 22.3125 -1.421875 17.546875 -0.640625 
Q 12.796875 0.140625 7.71875 1.703125 
L 7.71875 11.625 
Q 12.109375 9.234375 16.796875 8.0625 
Q 21.484375 6.890625 26.703125 6.890625 
Q 35.15625 6.890625 40.078125 11.328125 
Q 45.015625 15.765625 45.015625 23.390625 
Q 45.015625 31 40.078125 35.4375 
Q 35.15625 39.890625 26.703125 39.890625 
Q 22.75 39.890625 18.8125 39.015625 
Q 14.890625 38.140625 10.796875 36.28125 
z
" id="DejaVuSans-53"/>
      </defs>
      <g transform="translate(157.379518 366.772604)scale(0.1 -0.1)">
       <use xlink:href="#DejaVuSans-53"/>
       <use x="63.623047" xlink:href="#DejaVuSans-48"/>
      </g>
     </g>
    </g>
    <g id="xtick_3">
     <g id="line2d_3">
      <g>
       <use style="stroke:#000000;stroke-width:0.8;" x="235.395102" xlink:href="#m27025f5b70" y="352.174167"/>
      </g>
     </g>
     <g id="text_3">
      <!-- 100 -->
      <defs>
       <path d="M 12.40625 8.296875 
L 28.515625 8.296875 
L 28.515625 63.921875 
L 10.984375 60.40625 
L 10.984375 69.390625 
L 28.421875 72.90625 
L 38.28125 72.90625 
L 38.28125 8.296875 
L 54.390625 8.296875 
L 54.390625 0 
L 12.40625 0 
z
" id="DejaVuSans-49"/>
      </defs>
      <g transform="translate(225.851352 366.772604)scale(0.1 -0.1)">
       <use xlink:href="#DejaVuSans-49"/>
       <use x="63.623047" xlink:href="#DejaVuSans-48"/>
       <use x="127.246094" xlink:href="#DejaVuSans-48"/>
      </g>
     </g>
    </g>
    <g id="xtick_4">
     <g id="line2d_4">
      <g>
       <use style="stroke:#000000;stroke-width:0.8;" x="307.048187" xlink:href="#m27025f5b70" y="352.174167"/>
      </g>
     </g>
     <g id="text_4">
      <!-- 150 -->
      <g transform="translate(297.504437 366.772604)scale(0.1 -0.1)">
       <use xlink:href="#DejaVuSans-49"/>
       <use x="63.623047" xlink:href="#DejaVuSans-53"/>
       <use x="127.246094" xlink:href="#DejaVuSans-48"/>
      </g>
     </g>
    </g>
    <g id="xtick_5">
     <g id="line2d_5">
      <g>
       <use style="stroke:#000000;stroke-width:0.8;" x="378.701271" xlink:href="#m27025f5b70" y="352.174167"/>
      </g>
     </g>
     <g id="text_5">
      <!-- 200 -->
      <defs>
       <path d="M 19.1875 8.296875 
L 53.609375 8.296875 
L 53.609375 0 
L 7.328125 0 
L 7.328125 8.296875 
Q 12.9375 14.109375 22.625 23.890625 
Q 32.328125 33.6875 34.8125 36.53125 
Q 39.546875 41.84375 41.421875 45.53125 
Q 43.3125 49.21875 43.3125 52.78125 
Q 43.3125 58.59375 39.234375 62.25 
Q 35.15625 65.921875 28.609375 65.921875 
Q 23.96875 65.921875 18.8125 64.3125 
Q 13.671875 62.703125 7.8125 59.421875 
L 7.8125 69.390625 
Q 13.765625 71.78125 18.9375 73 
Q 24.125 74.21875 28.421875 74.21875 
Q 39.75 74.21875 46.484375 68.546875 
Q 53.21875 62.890625 53.21875 53.421875 
Q 53.21875 48.921875 51.53125 44.890625 
Q 49.859375 40.875 45.40625 35.40625 
Q 44.1875 33.984375 37.640625 27.21875 
Q 31.109375 20.453125 19.1875 8.296875 
z
" id="DejaVuSans-50"/>
      </defs>
      <g transform="translate(369.157521 366.772604)scale(0.1 -0.1)">
       <use xlink:href="#DejaVuSans-50"/>
       <use x="63.623047" xlink:href="#DejaVuSans-48"/>
       <use x="127.246094" xlink:href="#DejaVuSans-48"/>
      </g>
     </g>
    </g>
    <g id="xtick_6">
     <g id="line2d_6">
      <g>
       <use style="stroke:#000000;stroke-width:0.8;" x="450.354356" xlink:href="#m27025f5b70" y="352.174167"/>
      </g>
     </g>
     <g id="text_6">
      <!-- 250 -->
      <g transform="translate(440.810606 366.772604)scale(0.1 -0.1)">
       <use xlink:href="#DejaVuSans-50"/>
       <use x="63.623047" xlink:href="#DejaVuSans-53"/>
       <use x="127.246094" xlink:href="#DejaVuSans-48"/>
      </g>
     </g>
    </g>
   </g>
   <g id="matplotlib.axis_2">
    <g id="ytick_1">
     <g id="line2d_7">
      <defs>
       <path d="M 0 0 
L -3.5 0 
" id="m6816bd7e92" style="stroke:#000000;stroke-width:0.8;"/>
      </defs>
      <g>
       <use style="stroke:#000000;stroke-width:0.8;" x="66.158594" xlink:href="#m6816bd7e92" y="352.174167"/>
      </g>
     </g>
     <g id="text_7">
      <!-- 0 -->
      <g transform="translate(52.796094 355.973385)scale(0.1 -0.1)">
       <use xlink:href="#DejaVuSans-48"/>
      </g>
     </g>
    </g>
    <g id="ytick_2">
     <g id="line2d_8">
      <g>
       <use style="stroke:#000000;stroke-width:0.8;" x="66.158594" xlink:href="#m6816bd7e92" y="282.195982"/>
      </g>
     </g>
     <g id="text_8">
      <!-- 20 -->
      <g transform="translate(46.433594 285.995201)scale(0.1 -0.1)">
       <use xlink:href="#DejaVuSans-50"/>
       <use x="63.623047" xlink:href="#DejaVuSans-48"/>
      </g>
     </g>
    </g>
    <g id="ytick_3">
     <g id="line2d_9">
      <g>
       <use style="stroke:#000000;stroke-width:0.8;" x="66.158594" xlink:href="#m6816bd7e92" y="212.217798"/>
      </g>
     </g>
     <g id="text_9">
      <!-- 40 -->
      <defs>
       <path d="M 37.796875 64.3125 
L 12.890625 25.390625 
L 37.796875 25.390625 
z
M 35.203125 72.90625 
L 47.609375 72.90625 
L 47.609375 25.390625 
L 58.015625 25.390625 
L 58.015625 17.1875 
L 47.609375 17.1875 
L 47.609375 0 
L 37.796875 0 
L 37.796875 17.1875 
L 4.890625 17.1875 
L 4.890625 26.703125 
z
" id="DejaVuSans-52"/>
      </defs>
      <g transform="translate(46.433594 216.017017)scale(0.1 -0.1)">
       <use xlink:href="#DejaVuSans-52"/>
       <use x="63.623047" xlink:href="#DejaVuSans-48"/>
      </g>
     </g>
    </g>
    <g id="ytick_4">
     <g id="line2d_10">
      <g>
       <use style="stroke:#000000;stroke-width:0.8;" x="66.158594" xlink:href="#m6816bd7e92" y="142.239614"/>
      </g>
     </g>
     <g id="text_10">
      <!-- 60 -->
      <defs>
       <path d="M 33.015625 40.375 
Q 26.375 40.375 22.484375 35.828125 
Q 18.609375 31.296875 18.609375 23.390625 
Q 18.609375 15.53125 22.484375 10.953125 
Q 26.375 6.390625 33.015625 6.390625 
Q 39.65625 6.390625 43.53125 10.953125 
Q 47.40625 15.53125 47.40625 23.390625 
Q 47.40625 31.296875 43.53125 35.828125 
Q 39.65625 40.375 33.015625 40.375 
z
M 52.59375 71.296875 
L 52.59375 62.3125 
Q 48.875 64.0625 45.09375 64.984375 
Q 41.3125 65.921875 37.59375 65.921875 
Q 27.828125 65.921875 22.671875 59.328125 
Q 17.53125 52.734375 16.796875 39.40625 
Q 19.671875 43.65625 24.015625 45.921875 
Q 28.375 48.1875 33.59375 48.1875 
Q 44.578125 48.1875 50.953125 41.515625 
Q 57.328125 34.859375 57.328125 23.390625 
Q 57.328125 12.15625 50.6875 5.359375 
Q 44.046875 -1.421875 33.015625 -1.421875 
Q 20.359375 -1.421875 13.671875 8.265625 
Q 6.984375 17.96875 6.984375 36.375 
Q 6.984375 53.65625 15.1875 63.9375 
Q 23.390625 74.21875 37.203125 74.21875 
Q 40.921875 74.21875 44.703125 73.484375 
Q 48.484375 72.75 52.59375 71.296875 
z
" id="DejaVuSans-54"/>
      </defs>
      <g transform="translate(46.433594 146.038833)scale(0.1 -0.1)">
       <use xlink:href="#DejaVuSans-54"/>
       <use x="63.623047" xlink:href="#DejaVuSans-48"/>
      </g>
     </g>
    </g>
    <g id="ytick_5">
     <g id="line2d_11">
      <g>
       <use style="stroke:#000000;stroke-width:0.8;" x="66.158594" xlink:href="#m6816bd7e92" y="72.26143"/>
      </g>
     </g>
     <g id="text_11">
      <!-- 80 -->
      <defs>
       <path d="M 31.78125 34.625 
Q 24.75 34.625 20.71875 30.859375 
Q 16.703125 27.09375 16.703125 20.515625 
Q 16.703125 13.921875 20.71875 10.15625 
Q 24.75 6.390625 31.78125 6.390625 
Q 38.8125 6.390625 42.859375 10.171875 
Q 46.921875 13.96875 46.921875 20.515625 
Q 46.921875 27.09375 42.890625 30.859375 
Q 38.875 34.625 31.78125 34.625 
z
M 21.921875 38.8125 
Q 15.578125 40.375 12.03125 44.71875 
Q 8.5 49.078125 8.5 55.328125 
Q 8.5 64.0625 14.71875 69.140625 
Q 20.953125 74.21875 31.78125 74.21875 
Q 42.671875 74.21875 48.875 69.140625 
Q 55.078125 64.0625 55.078125 55.328125 
Q 55.078125 49.078125 51.53125 44.71875 
Q 48 40.375 41.703125 38.8125 
Q 48.828125 37.15625 52.796875 32.3125 
Q 56.78125 27.484375 56.78125 20.515625 
Q 56.78125 9.90625 50.3125 4.234375 
Q 43.84375 -1.421875 31.78125 -1.421875 
Q 19.734375 -1.421875 13.25 4.234375 
Q 6.78125 9.90625 6.78125 20.515625 
Q 6.78125 27.484375 10.78125 32.3125 
Q 14.796875 37.15625 21.921875 38.8125 
z
M 18.3125 54.390625 
Q 18.3125 48.734375 21.84375 45.5625 
Q 25.390625 42.390625 31.78125 42.390625 
Q 38.140625 42.390625 41.71875 45.5625 
Q 45.3125 48.734375 45.3125 54.390625 
Q 45.3125 60.0625 41.71875 63.234375 
Q 38.140625 66.40625 31.78125 66.40625 
Q 25.390625 66.40625 21.84375 63.234375 
Q 18.3125 60.0625 18.3125 54.390625 
z
" id="DejaVuSans-56"/>
      </defs>
      <g transform="translate(46.433594 76.060648)scale(0.1 -0.1)">
       <use xlink:href="#DejaVuSans-56"/>
       <use x="63.623047" xlink:href="#DejaVuSans-48"/>
      </g>
     </g>
    </g>
    <g id="text_12">
     <!-- droprate -->
     <defs>
      <path d="M 45.40625 46.390625 
L 45.40625 75.984375 
L 54.390625 75.984375 
L 54.390625 0 
L 45.40625 0 
L 45.40625 8.203125 
Q 42.578125 3.328125 38.25 0.953125 
Q 33.9375 -1.421875 27.875 -1.421875 
Q 17.96875 -1.421875 11.734375 6.484375 
Q 5.515625 14.40625 5.515625 27.296875 
Q 5.515625 40.1875 11.734375 48.09375 
Q 17.96875 56 27.875 56 
Q 33.9375 56 38.25 53.625 
Q 42.578125 51.265625 45.40625 46.390625 
z
M 14.796875 27.296875 
Q 14.796875 17.390625 18.875 11.75 
Q 22.953125 6.109375 30.078125 6.109375 
Q 37.203125 6.109375 41.296875 11.75 
Q 45.40625 17.390625 45.40625 27.296875 
Q 45.40625 37.203125 41.296875 42.84375 
Q 37.203125 48.484375 30.078125 48.484375 
Q 22.953125 48.484375 18.875 42.84375 
Q 14.796875 37.203125 14.796875 27.296875 
z
" id="DejaVuSans-100"/>
      <path d="M 41.109375 46.296875 
Q 39.59375 47.171875 37.8125 47.578125 
Q 36.03125 48 33.890625 48 
Q 26.265625 48 22.1875 43.046875 
Q 18.109375 38.09375 18.109375 28.8125 
L 18.109375 0 
L 9.078125 0 
L 9.078125 54.6875 
L 18.109375 54.6875 
L 18.109375 46.1875 
Q 20.953125 51.171875 25.484375 53.578125 
Q 30.03125 56 36.53125 56 
Q 37.453125 56 38.578125 55.875 
Q 39.703125 55.765625 41.0625 55.515625 
z
" id="DejaVuSans-114"/>
      <path d="M 30.609375 48.390625 
Q 23.390625 48.390625 19.1875 42.75 
Q 14.984375 37.109375 14.984375 27.296875 
Q 14.984375 17.484375 19.15625 11.84375 
Q 23.34375 6.203125 30.609375 6.203125 
Q 37.796875 6.203125 41.984375 11.859375 
Q 46.1875 17.53125 46.1875 27.296875 
Q 46.1875 37.015625 41.984375 42.703125 
Q 37.796875 48.390625 30.609375 48.390625 
z
M 30.609375 56 
Q 42.328125 56 49.015625 48.375 
Q 55.71875 40.765625 55.71875 27.296875 
Q 55.71875 13.875 49.015625 6.21875 
Q 42.328125 -1.421875 30.609375 -1.421875 
Q 18.84375 -1.421875 12.171875 6.21875 
Q 5.515625 13.875 5.515625 27.296875 
Q 5.515625 40.765625 12.171875 48.375 
Q 18.84375 56 30.609375 56 
z
" id="DejaVuSans-111"/>
      <path d="M 18.109375 8.203125 
L 18.109375 -20.796875 
L 9.078125 -20.796875 
L 9.078125 54.6875 
L 18.109375 54.6875 
L 18.109375 46.390625 
Q 20.953125 51.265625 25.265625 53.625 
Q 29.59375 56 35.59375 56 
Q 45.5625 56 51.78125 48.09375 
Q 58.015625 40.1875 58.015625 27.296875 
Q 58.015625 14.40625 51.78125 6.484375 
Q 45.5625 -1.421875 35.59375 -1.421875 
Q 29.59375 -1.421875 25.265625 0.953125 
Q 20.953125 3.328125 18.109375 8.203125 
z
M 48.6875 27.296875 
Q 48.6875 37.203125 44.609375 42.84375 
Q 40.53125 48.484375 33.40625 48.484375 
Q 26.265625 48.484375 22.1875 42.84375 
Q 18.109375 37.203125 18.109375 27.296875 
Q 18.109375 17.390625 22.1875 11.75 
Q 26.265625 6.109375 33.40625 6.109375 
Q 40.53125 6.109375 44.609375 11.75 
Q 48.6875 17.390625 48.6875 27.296875 
z
" id="DejaVuSans-112"/>
      <path d="M 34.28125 27.484375 
Q 23.390625 27.484375 19.1875 25 
Q 14.984375 22.515625 14.984375 16.5 
Q 14.984375 11.71875 18.140625 8.90625 
Q 21.296875 6.109375 26.703125 6.109375 
Q 34.1875 6.109375 38.703125 11.40625 
Q 43.21875 16.703125 43.21875 25.484375 
L 43.21875 27.484375 
z
M 52.203125 31.203125 
L 52.203125 0 
L 43.21875 0 
L 43.21875 8.296875 
Q 40.140625 3.328125 35.546875 0.953125 
Q 30.953125 -1.421875 24.3125 -1.421875 
Q 15.921875 -1.421875 10.953125 3.296875 
Q 6 8.015625 6 15.921875 
Q 6 25.140625 12.171875 29.828125 
Q 18.359375 34.515625 30.609375 34.515625 
L 43.21875 34.515625 
L 43.21875 35.40625 
Q 43.21875 41.609375 39.140625 45 
Q 35.0625 48.390625 27.6875 48.390625 
Q 23 48.390625 18.546875 47.265625 
Q 14.109375 46.140625 10.015625 43.890625 
L 10.015625 52.203125 
Q 14.9375 54.109375 19.578125 55.046875 
Q 24.21875 56 28.609375 56 
Q 40.484375 56 46.34375 49.84375 
Q 52.203125 43.703125 52.203125 31.203125 
z
" id="DejaVuSans-97"/>
      <path d="M 18.3125 70.21875 
L 18.3125 54.6875 
L 36.8125 54.6875 
L 36.8125 47.703125 
L 18.3125 47.703125 
L 18.3125 18.015625 
Q 18.3125 11.328125 20.140625 9.421875 
Q 21.96875 7.515625 27.59375 7.515625 
L 36.8125 7.515625 
L 36.8125 0 
L 27.59375 0 
Q 17.1875 0 13.234375 3.875 
Q 9.28125 7.765625 9.28125 18.015625 
L 9.28125 47.703125 
L 2.6875 47.703125 
L 2.6875 54.6875 
L 9.28125 54.6875 
L 9.28125 70.21875 
z
" id="DejaVuSans-116"/>
      <path d="M 56.203125 29.59375 
L 56.203125 25.203125 
L 14.890625 25.203125 
Q 15.484375 15.921875 20.484375 11.0625 
Q 25.484375 6.203125 34.421875 6.203125 
Q 39.59375 6.203125 44.453125 7.46875 
Q 49.3125 8.734375 54.109375 11.28125 
L 54.109375 2.78125 
Q 49.265625 0.734375 44.1875 -0.34375 
Q 39.109375 -1.421875 33.890625 -1.421875 
Q 20.796875 -1.421875 13.15625 6.1875 
Q 5.515625 13.8125 5.515625 26.8125 
Q 5.515625 40.234375 12.765625 48.109375 
Q 20.015625 56 32.328125 56 
Q 43.359375 56 49.78125 48.890625 
Q 56.203125 41.796875 56.203125 29.59375 
z
M 47.21875 32.234375 
Q 47.125 39.59375 43.09375 43.984375 
Q 39.0625 48.390625 32.421875 48.390625 
Q 24.90625 48.390625 20.390625 44.140625 
Q 15.875 39.890625 15.1875 32.171875 
z
" id="DejaVuSans-101"/>
     </defs>
     <g transform="translate(40.353906 215.236302)rotate(-90)scale(0.1 -0.1)">
      <use xlink:href="#DejaVuSans-100"/>
      <use x="63.476562" xlink:href="#DejaVuSans-114"/>
      <use x="104.558594" xlink:href="#DejaVuSans-111"/>
      <use x="165.740234" xlink:href="#DejaVuSans-112"/>
      <use x="229.216797" xlink:href="#DejaVuSans-114"/>
      <use x="270.330078" xlink:href="#DejaVuSans-97"/>
      <use x="331.609375" xlink:href="#DejaVuSans-116"/>
      <use x="370.818359" xlink:href="#DejaVuSans-101"/>
     </g>
    </g>
   </g>
   <g id="line2d_12">
    <path clip-path="url(#p9e68215f6c)" d="M 86.606804 352.174167 
L 91.674659 352.174167 
L 91.825583 216.105475 
L 91.977849 231.774439 
L 92.129557 352.174167 
L 94.402158 352.174167 
L 94.703749 300.51242 
L 94.854553 226.589517 
L 95.005723 50.163056 
L 95.156733 273.155738 
L 95.307559 293.13217 
L 95.458278 286.023964 
L 96.213138 352.174167 
L 96.364034 342.445656 
L 96.514741 342.43632 
L 96.665604 349.825905 
L 96.816249 343.435296 
L 96.966973 352.174167 
L 97.117492 338.406866 
L 97.268169 352.174167 
L 97.420599 333.916102 
L 97.571349 351.839343 
L 97.722543 326.814785 
L 97.873483 352.174167 
L 98.02447 341.114396 
L 98.17573 350.501648 
L 98.327026 342.473558 
L 98.477364 342.417593 
L 98.627759 351.837733 
L 98.778357 341.418634 
L 98.928749 348.809831 
L 99.231128 329.847794 
L 99.382604 351.505159 
L 99.53297 338.39364 
L 99.683322 352.174167 
L 99.833949 338.716824 
L 99.984323 352.174167 
L 100.134668 342.417593 
L 100.436625 352.174167 
L 100.587093 346.118362 
L 101.040115 352.174167 
L 101.190615 341.754744 
L 101.341591 352.174167 
L 101.491973 340.050901 
L 101.642465 350.829725 
L 101.792849 335.673055 
L 101.943253 340.062558 
L 102.09587 352.174167 
L 102.247655 338.844989 
L 102.399301 352.174167 
L 102.550554 348.484042 
L 102.701399 337.776741 
L 102.852211 352.174167 
L 103.002703 340.097395 
L 103.154238 352.174167 
L 103.306204 334.862722 
L 103.457838 348.835513 
L 103.609119 345.471275 
L 103.761205 350.180486 
L 103.912784 340.477718 
L 104.064706 345.515919 
L 104.21639 342.825936 
L 104.36797 331.494246 
L 104.519941 348.505148 
L 104.670898 336.051742 
L 104.821741 347.817287 
L 104.973234 341.814455 
L 105.12488 346.15885 
L 105.277273 343.882913 
L 105.429541 346.525405 
L 105.581861 345.528565 
L 105.733688 349.839337 
L 105.885504 349.160752 
L 106.036634 352.174167 
L 106.188887 352.174167 
L 106.341246 321.93668 
L 106.493834 322.022582 
L 106.646251 324.9272 
L 106.798381 352.174167 
L 106.95008 336.527284 
L 107.102207 340.166471 
L 107.253948 352.174167 
L 107.40593 346.509266 
L 107.708781 352.174167 
L 107.860013 346.816985 
L 108.011635 351.84062 
L 108.162978 352.174167 
L 108.314567 342.482823 
L 108.465622 352.174167 
L 108.617554 347.846306 
L 108.769546 352.174167 
L 108.920508 345.464849 
L 109.071196 352.174167 
L 109.223335 343.526672 
L 109.37449 352.174167 
L 109.525891 343.795553 
L 109.677699 352.174167 
L 109.829525 343.835489 
L 109.981379 352.174167 
L 110.133303 343.176972 
L 110.285475 352.174167 
L 110.437563 343.194076 
L 110.589062 352.174167 
L 110.740541 351.839982 
L 110.894863 352.174167 
L 111.202695 352.174167 
L 111.35656 347.232204 
L 111.510523 352.174167 
L 111.663055 352.174167 
L 111.814049 351.838701 
L 111.965088 342.930473 
L 112.117092 352.174167 
L 112.268068 349.49301 
L 112.420725 352.174167 
L 112.573534 349.854814 
L 112.7244 352.174167 
L 113.026326 346.476709 
L 113.178045 352.174167 
L 113.330004 352.174167 
L 113.480773 347.142178 
L 113.632125 352.174167 
L 113.784184 349.510868 
L 113.936029 351.841254 
L 114.087959 344.17666 
L 114.239927 352.174167 
L 114.391479 344.502583 
L 114.543499 352.174167 
L 114.695953 345.522248 
L 114.847877 351.841571 
L 115.000441 344.546213 
L 115.151426 352.174167 
L 115.302415 346.811854 
L 115.455012 351.842202 
L 115.606497 352.174167 
L 115.758706 351.178272 
L 115.909604 352.174167 
L 116.060854 352.174167 
L 116.212621 349.837109 
L 116.363241 351.838379 
L 116.515517 347.85042 
L 116.666952 352.174167 
L 116.968896 352.174167 
L 117.120815 346.503866 
L 117.272389 352.174167 
L 117.424314 351.507072 
L 117.736954 348.61705 
L 117.892727 352.174167 
L 118.047545 346.288151 
L 118.20022 352.174167 
L 118.352154 347.189966 
L 118.504057 352.174167 
L 118.807561 348.175413 
L 118.958681 350.111941 
L 119.262247 347.838054 
L 119.414606 350.846307 
L 119.566476 346.842495 
L 119.718721 350.17479 
L 119.870543 346.193125 
L 120.022396 350.50484 
L 120.173981 346.16459 
L 120.326255 351.841571 
L 120.484766 352.174167 
L 120.954737 352.174167 
L 121.110301 343.74306 
L 121.26553 352.174167 
L 121.421328 345.345441 
L 121.576779 352.174167 
L 121.728817 344.864005 
L 121.881648 352.174167 
L 122.034602 350.188031 
L 122.187293 351.179216 
L 122.339617 349.513399 
L 122.491615 352.174167 
L 122.795214 352.174167 
L 122.94671 351.172571 
L 123.098482 352.174167 
L 123.249438 350.165224 
L 123.401725 352.174167 
L 124.463286 352.174167 
L 124.615417 351.841887 
L 124.767175 352.174167 
L 126.133451 352.174167 
L 126.28405 346.680295 
L 126.435233 352.174167 
L 126.739388 352.174167 
L 126.891111 349.841561 
L 127.043405 352.174167 
L 127.346856 349.50579 
L 127.498703 352.174167 
L 127.802162 352.174167 
L 127.953646 351.171614 
L 128.105483 352.174167 
L 129.166005 352.174167 
L 129.319569 350.522179 
L 129.471218 351.507072 
L 129.622569 349.834877 
L 129.773566 352.174167 
L 129.924721 351.839022 
L 130.075543 350.833588 
L 130.226121 351.838056 
L 130.377096 349.154974 
L 130.528131 352.174167 
L 130.830722 352.174167 
L 130.981944 350.501648 
L 131.13294 352.174167 
L 131.283634 347.477644 
L 131.434571 352.174167 
L 131.736041 352.174167 
L 131.887057 349.49044 
L 132.037809 352.174167 
L 132.189088 349.8304 
L 132.340242 349.49044 
L 132.49148 348.163956 
L 132.642554 352.174167 
L 132.79363 349.495576 
L 132.944675 352.174167 
L 133.095863 352.174167 
L 133.247142 351.839663 
L 133.398165 352.174167 
L 133.851122 352.174167 
L 134.002097 351.503878 
L 134.15293 352.174167 
L 134.756431 352.174167 
L 134.908629 351.841254 
L 135.061475 352.174167 
L 135.519339 352.174167 
L 135.671427 345.522248 
L 135.82341 352.174167 
L 135.975714 350.845046 
L 136.127666 351.176379 
L 136.279554 352.174167 
L 138.703084 352.174167 
L 138.856139 351.843457 
L 139.009447 351.843769 
L 139.162404 351.183909 
L 139.315614 352.174167 
L 139.769143 352.174167 
L 139.919914 351.501946 
L 140.070893 352.174167 
L 141.279635 352.174167 
L 141.581326 351.503235 
L 141.732127 350.493615 
L 141.883208 352.174167 
L 142.03385 351.15209 
L 142.184981 352.174167 
L 143.545273 352.174167 
L 143.697269 351.841254 
L 143.847843 352.174167 
L 144.450079 352.174167 
L 144.600495 351.164866 
L 144.751492 351.838701 
L 144.902225 351.167769 
L 145.052968 352.174167 
L 145.506198 352.174167 
L 145.657091 351.838701 
L 145.80797 352.174167 
L 145.958906 351.503878 
L 146.109838 352.174167 
L 146.260388 351.166803 
L 146.411615 352.174167 
L 146.5627 351.839663 
L 146.713442 352.174167 
L 147.618635 352.174167 
L 147.769583 351.503878 
L 147.920551 352.174167 
L 148.37559 352.174167 
L 148.526484 350.833588 
L 148.828177 352.174167 
L 150.79281 352.174167 
L 150.945142 350.843783 
L 151.09583 352.174167 
L 152.000986 352.174167 
L 152.151833 351.838379 
L 152.303233 352.174167 
L 153.513811 352.174167 
L 153.665962 351.507708 
L 153.817112 352.174167 
L 154.27069 352.174167 
L 154.421969 350.833588 
L 154.573341 352.174167 
L 154.724248 351.169695 
L 154.874751 352.174167 
L 155.481052 352.174167 
L 155.63308 351.507708 
L 155.78497 352.174167 
L 156.240675 352.174167 
L 156.391675 346.005669 
L 156.542888 352.174167 
L 157.146783 352.174167 
L 157.297373 351.167769 
L 157.44811 352.174167 
L 157.749316 352.174167 
L 157.900065 350.832303 
L 158.051263 352.174167 
L 158.65847 352.174167 
L 158.960055 351.503235 
L 159.111114 352.174167 
L 159.717185 352.174167 
L 159.868047 351.504519 
L 160.01878 352.174167 
L 160.624251 352.174167 
L 160.776097 351.507708 
L 160.928566 352.174167 
L 161.080978 351.509607 
L 161.232694 352.174167 
L 161.384313 351.505159 
L 161.535219 352.174167 
L 162.140188 352.174167 
L 162.2916 351.839982 
L 162.443677 352.174167 
L 165.327699 352.174167 
L 165.478899 351.839022 
L 165.630159 352.174167 
L 166.387692 352.174167 
L 166.538294 350.493615 
L 166.690385 352.174167 
L 168.657532 352.174167 
L 168.808423 351.838701 
L 168.959308 352.174167 
L 170.466782 352.174167 
L 170.617311 351.502591 
L 170.768001 352.174167 
L 171.675981 352.174167 
L 171.82753 351.173525 
L 171.979524 352.174167 
L 173.037754 352.174167 
L 173.189299 351.506436 
L 173.340547 352.174167 
L 174.549331 352.174167 
L 174.700645 351.505159 
L 174.851471 352.174167 
L 175.002124 352.174167 
L 175.152848 351.502591 
L 175.304873 352.174167 
L 176.515042 352.174167 
L 176.666658 351.507072 
L 176.818662 351.507072 
L 176.969953 352.174167 
L 178.027229 352.174167 
L 178.179036 351.84062 
L 178.331144 352.174167 
L 179.851264 352.174167 
L 180.002712 351.507072 
L 180.153673 352.174167 
L 180.757107 352.174167 
L 180.908835 351.841254 
L 181.059942 352.174167 
L 181.814538 352.174167 
L 181.966765 351.841571 
L 182.117519 351.838379 
L 182.268502 352.174167 
L 184.237531 352.174167 
L 184.389328 349.839337 
L 184.541851 352.174167 
L 184.845478 352.174167 
L 184.997272 350.838705 
L 185.148856 350.506431 
L 185.301377 350.842517 
L 185.453007 352.174167 
L 185.908999 352.174167 
L 186.062711 350.85755 
L 186.214424 352.174167 
L 187.424822 352.174167 
L 187.728288 351.507708 
L 187.88042 352.174167 
L 188.03201 346.382399 
L 188.183682 352.174167 
L 189.70166 352.174167 
L 189.852489 351.166803 
L 190.004376 352.174167 
L 191.067104 352.174167 
L 191.218693 351.508342 
L 191.370576 352.174167 
L 191.522465 350.508019 
L 191.673935 352.174167 
L 192.586877 352.174167 
L 192.737956 351.839022 
L 192.889645 352.174167 
L 193.041196 350.838705 
L 193.192935 352.174167 
L 195.624683 352.174167 
L 195.776582 351.841254 
L 195.928445 352.174167 
L 196.687197 352.174167 
L 196.838255 351.839022 
L 196.991235 352.174167 
L 197.1428 351.173525 
L 197.294309 352.174167 
L 198.656703 352.174167 
L 198.808108 351.171614 
L 198.960067 352.174167 
L 200.172847 352.174167 
L 200.324458 351.84062 
L 200.476022 352.174167 
L 201.082339 352.174167 
L 201.233875 351.172571 
L 201.385883 351.507708 
L 201.537616 352.174167 
L 202.1415 352.174167 
L 202.292704 346.336929 
L 202.444166 352.174167 
L 203.04866 352.174167 
L 203.199506 351.838701 
L 203.35059 352.174167 
L 204.559597 352.174167 
L 204.710433 351.838701 
L 204.861197 352.174167 
L 205.315491 352.174167 
L 205.46676 351.839022 
L 205.617671 352.174167 
L 205.920126 352.174167 
L 206.071252 351.169695 
L 206.222809 352.174167 
L 207.280904 352.174167 
L 207.431631 351.838701 
L 207.582365 350.15944 
L 207.732937 352.174167 
L 210.310231 352.174167 
L 210.46155 351.839022 
L 210.612857 352.174167 
L 210.914595 352.174167 
L 211.066288 351.840937 
L 211.217613 352.174167 
L 211.972571 352.174167 
L 212.123877 351.504519 
L 212.274653 352.174167 
L 213.485608 352.174167 
L 213.636728 351.503878 
L 213.787953 352.174167 
L 215.451509 352.174167 
L 215.602365 351.839022 
L 215.753232 352.174167 
L 215.903926 350.493615 
L 216.054558 352.174167 
L 216.962865 352.174167 
L 217.265584 350.836152 
L 217.416601 351.505159 
L 217.567176 349.49044 
L 217.869153 352.174167 
L 218.925755 352.174167 
L 219.076229 351.167769 
L 219.226994 352.174167 
L 220.735366 352.174167 
L 220.885724 351.5013 
L 221.036717 352.174167 
L 221.188259 352.174167 
L 221.338741 351.839022 
L 221.490212 352.174167 
L 221.641903 350.838705 
L 221.792238 352.174167 
L 222.998852 352.174167 
L 223.149709 351.167769 
L 223.300335 352.174167 
L 225.26902 352.174167 
L 225.420326 347.71914 
L 225.571883 352.174167 
L 226.931496 352.174167 
L 227.082534 351.167769 
L 227.233384 352.174167 
L 228.440728 352.174167 
L 228.742288 350.832303 
L 228.894594 352.174167 
L 229.044986 350.493615 
L 229.195483 352.174167 
L 230.104472 352.174167 
L 230.255462 351.502591 
L 230.407333 352.174167 
L 231.317461 352.174167 
L 231.469225 350.841249 
L 231.621265 352.174167 
L 231.77325 351.508342 
L 232.077062 351.508342 
L 232.229411 352.174167 
L 232.988299 352.174167 
L 233.138923 350.831015 
L 233.290658 352.174167 
L 234.501554 352.174167 
L 234.653281 351.507072 
L 234.804889 352.174167 
L 234.956376 351.506436 
L 235.108058 352.174167 
L 235.865771 352.174167 
L 236.017907 350.839978 
L 236.169037 352.174167 
L 237.078378 352.174167 
L 237.230139 351.507072 
L 237.381845 352.174167 
L 237.685073 352.174167 
L 237.836604 351.840301 
L 237.988395 350.506431 
L 238.139889 352.174167 
L 240.577249 352.174167 
L 240.728752 346.348363 
L 240.879618 352.174167 
L 242.390499 352.174167 
L 242.542656 351.175429 
L 242.694237 352.174167 
L 246.632541 352.174167 
L 246.783462 351.168733 
L 246.934839 352.174167 
L 248.146132 352.174167 
L 248.296989 351.838701 
L 248.44928 352.174167 
L 250.717229 352.174167 
L 250.868294 351.839343 
L 251.019413 352.174167 
L 251.170682 351.505159 
L 251.322763 352.174167 
L 252.535376 352.174167 
L 252.687719 351.508975 
L 252.839801 352.174167 
L 253.2938 352.174167 
L 253.445896 349.84378 
L 253.596864 352.174167 
L 255.25675 352.174167 
L 255.407344 347.018603 
L 255.55823 351.503235 
L 255.708928 352.174167 
L 257.36953 352.174167 
L 257.520238 351.503878 
L 257.671003 352.174167 
L 258.276407 352.174167 
L 258.579092 351.503878 
L 258.731193 352.174167 
L 258.882475 350.163299 
L 259.034726 352.174167 
L 259.944564 352.174167 
L 260.096083 351.840301 
L 260.247808 352.174167 
L 260.551025 352.174167 
L 260.702723 351.507072 
L 260.854409 352.174167 
L 261.914311 352.174167 
L 262.065814 350.169061 
L 262.217222 352.174167 
L 262.368866 350.170974 
L 262.52038 352.174167 
L 263.429175 352.174167 
L 263.580718 351.506436 
L 263.732372 352.174167 
L 264.491444 352.174167 
L 264.645578 351.844703 
L 264.797537 352.174167 
L 266.614613 352.174167 
L 266.76624 351.172571 
L 266.918228 352.174167 
L 268.297075 352.174167 
L 268.448281 351.839663 
L 268.599336 352.174167 
L 268.751613 351.177326 
L 268.903737 352.174167 
L 269.809931 352.174167 
L 269.962087 332.774972 
L 270.114514 352.174167 
L 270.568615 352.174167 
L 270.872288 351.508342 
L 271.023104 352.174167 
L 271.479275 352.174167 
L 271.63078 351.507072 
L 271.781579 352.174167 
L 271.934532 351.182037 
L 272.085243 352.174167 
L 272.235853 351.838056 
L 272.386781 352.174167 
L 272.537284 351.163895 
L 272.689002 352.174167 
L 273.145309 352.174167 
L 273.447341 351.504519 
L 273.598776 350.169061 
L 273.74953 352.174167 
L 274.358045 352.174167 
L 274.509577 351.507708 
L 274.661285 352.174167 
L 274.962666 352.174167 
L 275.114493 350.506431 
L 275.265688 352.174167 
L 275.416436 349.49044 
L 275.56811 352.174167 
L 275.871015 350.500047 
L 276.173062 352.174167 
L 276.324335 351.170655 
L 276.475967 352.174167 
L 276.930422 352.174167 
L 277.081895 351.839663 
L 277.232962 352.174167 
L 277.686413 352.174167 
L 277.837189 351.503235 
L 278.138412 352.174167 
L 278.894041 352.174167 
L 279.045055 351.839343 
L 279.34663 349.169378 
L 279.498192 350.839978 
L 279.651418 340.004048 
L 279.803638 352.174167 
L 280.10536 352.174167 
L 280.257474 350.834871 
L 280.40831 352.174167 
L 281.615698 352.174167 
L 281.767715 351.842517 
L 281.918353 351.837085 
L 282.069346 350.165224 
L 282.221885 352.174167 
L 283.745368 352.174167 
L 283.89662 351.839343 
L 284.048533 352.174167 
L 285.409959 352.174167 
L 285.561761 351.507708 
L 285.71288 352.174167 
L 286.318061 352.174167 
L 286.469116 351.170655 
L 286.619837 352.174167 
L 287.981527 352.174167 
L 288.132941 351.839982 
L 288.283756 352.174167 
L 288.435944 350.509605 
L 288.587388 352.174167 
L 288.738056 349.487864 
L 288.888818 352.174167 
L 289.039431 351.502591 
L 289.190088 352.174167 
L 289.340788 350.495228 
L 289.491414 352.174167 
L 290.095678 352.174167 
L 290.246501 351.504519 
L 290.397685 351.504519 
L 290.548628 352.174167 
L 291.456419 352.174167 
L 291.607944 351.505798 
L 291.758977 352.174167 
L 291.909637 351.165835 
L 292.060306 352.174167 
L 293.718419 352.174167 
L 293.870111 351.84062 
L 294.020994 347.023662 
L 294.173071 352.174167 
L 295.079072 352.174167 
L 295.229664 351.838056 
L 295.380484 352.174167 
L 296.13531 352.174167 
L 296.286042 351.838379 
L 296.436724 352.174167 
L 296.739596 352.174167 
L 296.890256 351.165835 
L 297.044377 352.174167 
L 299.024874 352.174167 
L 299.17564 351.502591 
L 299.327478 352.174167 
L 301.136839 352.174167 
L 301.290972 349.821394 
L 301.442336 352.174167 
L 301.593281 352.174167 
L 301.743984 351.838379 
L 301.894626 352.174167 
L 302.045345 351.166803 
L 302.196135 352.174167 
L 302.800228 352.174167 
L 302.950991 351.838379 
L 303.101516 350.493615 
L 303.252245 351.838379 
L 303.402892 352.174167 
L 304.309118 352.174167 
L 304.460523 351.505159 
L 304.611331 352.174167 
L 304.762076 351.838379 
L 304.91269 352.174167 
L 305.818208 352.174167 
L 306.119521 351.502591 
L 306.270263 352.174167 
L 308.838652 352.174167 
L 308.989373 351.502591 
L 309.140015 352.174167 
L 309.592598 352.174167 
L 309.743668 348.061835 
L 309.894688 352.174167 
L 310.950439 352.174167 
L 311.101117 351.502591 
L 311.251851 352.174167 
L 312.769929 352.174167 
L 312.92099 351.838701 
L 313.072942 352.174167 
L 313.83177 352.174167 
L 313.983066 351.839663 
L 314.134428 352.174167 
L 314.285577 351.839663 
L 314.437456 352.174167 
L 314.588975 351.840301 
L 314.740662 352.174167 
L 316.106532 352.174167 
L 316.258138 351.506436 
L 316.409751 352.174167 
L 316.561276 350.838705 
L 316.712782 352.174167 
L 317.01439 352.174167 
L 317.165432 350.118001 
L 317.316077 352.174167 
L 318.228157 352.174167 
L 318.379735 351.506436 
L 318.532049 352.174167 
L 319.444539 352.174167 
L 319.596235 351.840301 
L 319.748463 352.174167 
L 319.900543 351.508975 
L 320.051825 351.838701 
L 320.202706 351.839663 
L 320.35376 352.174167 
L 321.259548 352.174167 
L 321.411509 350.843783 
L 321.562664 352.174167 
L 322.316772 352.174167 
L 322.467122 351.837733 
L 322.617647 352.174167 
L 322.769263 350.172884 
L 322.91983 352.174167 
L 324.275398 352.174167 
L 324.426073 351.502591 
L 324.727282 352.174167 
L 325.330363 352.174167 
L 325.482923 351.841254 
L 325.634119 352.174167 
L 325.785031 350.163299 
L 325.935551 352.174167 
L 327.60049 352.174167 
L 327.901251 350.827137 
L 328.051535 351.837409 
L 328.352322 351.165835 
L 328.503387 351.839022 
L 328.654533 351.503878 
L 328.804889 352.174167 
L 331.369875 352.174167 
L 331.521238 351.507072 
L 331.67195 352.174167 
L 331.823071 349.828155 
L 331.973951 352.174167 
L 333.185517 352.174167 
L 333.336674 351.839663 
L 333.487401 352.174167 
L 334.243595 352.174167 
L 334.394411 351.838701 
L 334.546162 352.174167 
L 334.698443 351.177326 
L 334.850359 352.174167 
L 336.515174 352.174167 
L 336.666268 350.167144 
L 336.817845 352.174167 
L 337.726367 352.174167 
L 337.877109 351.838056 
L 338.028571 352.174167 
L 338.936721 352.174167 
L 339.088424 351.173525 
L 339.240063 352.174167 
L 339.996352 352.174167 
L 340.147127 351.503235 
L 340.298738 352.174167 
L 342.72896 352.174167 
L 342.880388 351.839982 
L 343.031312 352.174167 
L 344.693596 352.174167 
L 344.84474 351.169695 
L 344.995737 352.174167 
L 346.050509 352.174167 
L 346.201364 351.839022 
L 346.352626 352.174167 
L 346.503738 351.503235 
L 346.654555 352.174167 
L 347.861785 352.174167 
L 348.012997 351.839343 
L 348.164154 351.839022 
L 348.315006 352.174167 
L 349.674671 352.174167 
L 349.825839 351.839663 
L 349.976881 352.174167 
L 351.79404 352.174167 
L 351.945071 351.503878 
L 352.095804 352.174167 
L 352.246871 352.174167 
L 352.398301 351.839022 
L 352.548862 352.174167 
L 353.912603 352.174167 
L 354.063275 351.839022 
L 354.213715 351.837733 
L 354.364936 352.174167 
L 354.515506 352.174167 
L 354.666386 351.169695 
L 354.817143 352.174167 
L 356.780136 352.174167 
L 356.930987 351.504519 
L 357.081852 352.174167 
L 357.233038 350.834871 
L 357.383974 352.174167 
L 358.439966 352.174167 
L 358.590524 351.837733 
L 358.741884 350.836152 
L 358.892549 352.174167 
L 360.103378 352.174167 
L 360.255148 338.19287 
L 360.406305 352.174167 
L 361.617379 352.174167 
L 361.768878 337.857273 
L 361.920785 352.174167 
L 362.528851 352.174167 
L 362.681375 350.842517 
L 362.985682 352.174167 
L 364.502849 352.174167 
L 364.654475 350.506431 
L 364.806077 352.174167 
L 364.957721 352.174167 
L 365.109655 351.84062 
L 365.414704 350.512766 
L 365.566937 352.174167 
L 366.627436 352.174167 
L 366.779303 351.841254 
L 366.931001 352.174167 
L 367.08296 351.507072 
L 367.235576 352.174167 
L 368.907595 352.174167 
L 369.059211 351.840301 
L 369.210737 351.172571 
L 369.3623 352.174167 
L 369.967871 352.174167 
L 370.120229 351.508975 
L 370.272168 352.174167 
L 372.71081 352.174167 
L 372.861727 351.838701 
L 373.013817 351.175429 
L 373.164606 352.174167 
L 375.735924 352.174167 
L 376.040134 351.174478 
L 376.1921 352.174167 
L 377.098259 352.174167 
L 377.251792 351.843769 
L 377.403723 352.174167 
L 379.072289 352.174167 
L 379.224156 351.507708 
L 379.376176 352.174167 
L 380.891639 352.174167 
L 381.0427 351.838701 
L 381.19344 352.174167 
L 381.950129 352.174167 
L 382.25257 351.503235 
L 382.402957 352.174167 
L 383.16425 352.174167 
L 383.315563 351.507708 
L 383.466607 352.174167 
L 384.676141 352.174167 
L 384.827821 351.506436 
L 384.978623 352.174167 
L 387.54767 352.174167 
L 387.698776 351.505159 
L 387.850006 352.174167 
L 388.15198 352.174167 
L 388.302936 351.839343 
L 388.453665 352.174167 
L 389.813719 352.174167 
L 389.964802 351.503878 
L 390.115931 352.174167 
L 391.023919 352.174167 
L 391.176008 351.508975 
L 391.327844 352.174167 
L 392.385848 352.174167 
L 392.537257 351.172571 
L 392.688184 352.174167 
L 394.809004 352.174167 
L 394.95989 351.503235 
L 395.110702 352.174167 
L 396.472049 352.174167 
L 396.623564 350.170974 
L 396.926132 352.174167 
L 397.985417 352.174167 
L 398.136349 351.503878 
L 398.287299 352.174167 
L 401.773305 352.174167 
L 401.924624 350.501648 
L 402.07548 352.174167 
L 402.981597 352.174167 
L 403.132804 351.505159 
L 403.283882 352.174167 
L 404.644189 352.174167 
L 404.795113 351.503235 
L 404.945698 352.174167 
L 405.096581 351.168733 
L 405.247514 352.174167 
L 407.516978 352.174167 
L 407.66908 351.177326 
L 407.819533 352.174167 
L 410.550303 352.174167 
L 410.702092 351.506436 
L 410.854014 351.507708 
L 411.005995 352.174167 
L 412.069745 352.174167 
L 412.220806 351.839022 
L 412.372298 352.174167 
L 412.52349 351.170655 
L 412.674642 352.174167 
L 413.740216 352.174167 
L 413.893248 351.513995 
L 414.044929 352.174167 
L 416.023803 352.174167 
L 416.175993 351.841571 
L 416.328302 350.843783 
L 416.480411 352.174167 
L 417.239705 352.174167 
L 417.393303 351.514617 
L 417.544984 352.174167 
L 419.213594 352.174167 
L 419.516726 351.505798 
L 419.668431 352.174167 
L 420.731432 352.174167 
L 420.88261 351.839343 
L 421.033689 352.174167 
L 421.18475 350.498444 
L 421.335772 352.174167 
L 422.550166 352.174167 
L 422.701701 351.84062 
L 422.853477 352.174167 
L 423.309953 352.174167 
L 423.461797 351.841254 
L 423.614384 352.174167 
L 424.221645 352.174167 
L 424.373654 351.840937 
L 424.526184 352.174167 
L 425.741306 352.174167 
L 426.045027 351.171614 
L 426.1967 352.174167 
L 427.105712 352.174167 
L 427.257067 351.504519 
L 427.408416 352.174167 
L 428.315166 352.174167 
L 428.465955 351.838056 
L 428.616927 352.174167 
L 428.767993 351.839343 
L 428.919554 352.174167 
L 429.070346 352.174167 
L 429.222368 351.507072 
L 429.373477 352.174167 
L 431.037645 352.174167 
L 431.188952 351.839982 
L 431.340229 352.174167 
L 431.490976 351.838701 
L 431.641705 352.174167 
L 432.852972 352.174167 
L 433.004093 351.505159 
L 433.157126 352.174167 
L 433.91146 352.174167 
L 434.063498 351.508975 
L 434.214765 352.174167 
L 434.366362 350.839978 
L 434.518233 352.174167 
L 436.187439 352.174167 
L 436.337953 351.838056 
L 436.488955 352.174167 
L 436.639824 351.838701 
L 436.790363 352.174167 
L 437.394134 352.174167 
L 437.546821 351.510237 
L 437.698 352.174167 
L 438.606378 352.174167 
L 438.757238 351.837733 
L 438.910014 352.174167 
L 440.269437 352.174167 
L 440.574311 351.507072 
L 440.725102 352.174167 
L 441.783159 352.174167 
L 441.934441 351.505159 
L 442.08569 352.174167 
L 443.451579 352.174167 
L 443.602893 351.839343 
L 443.753729 352.174167 
L 445.574215 352.174167 
L 445.725772 351.839982 
L 445.876539 352.174167 
L 446.783053 352.174167 
L 446.933757 351.838701 
L 447.084354 352.174167 
L 447.689162 352.174167 
L 447.840204 351.839343 
L 447.990856 352.174167 
L 448.593713 352.174167 
L 448.745593 350.128021 
L 448.896808 350.501648 
L 449.048388 352.174167 
L 450.415139 352.174167 
L 450.566196 351.503878 
L 450.717338 352.174167 
L 451.321615 352.174167 
L 451.472445 351.503235 
L 451.623649 352.174167 
L 451.927632 352.174167 
L 452.078262 351.502591 
L 452.229023 352.174167 
L 452.838623 352.174167 
L 453.140322 351.504519 
L 453.29151 351.839022 
L 453.442361 351.168733 
L 453.593393 352.174167 
L 454.799407 352.174167 
L 454.949983 351.838056 
L 455.100731 352.174167 
L 455.70398 352.174167 
L 455.854823 348.144713 
L 456.007009 352.174167 
L 456.764952 352.174167 
L 456.915821 351.839343 
L 457.066524 352.174167 
L 457.823831 352.174167 
L 457.97635 351.510237 
L 458.127589 352.174167 
L 460.411135 352.174167 
L 460.562322 350.500047 
L 460.714158 352.174167 
L 461.017806 351.507708 
L 461.169588 352.174167 
L 461.928515 352.174167 
L 462.080585 351.842202 
L 462.232408 352.174167 
L 462.536017 352.174167 
L 462.687568 351.506436 
L 462.839154 352.174167 
L 464.205324 352.174167 
L 464.356295 351.839343 
L 464.507862 352.174167 
L 464.809964 352.174167 
L 464.962751 351.512747 
L 465.114373 352.174167 
L 466.328135 352.174167 
L 466.479779 351.507072 
L 466.631477 352.174167 
L 467.238344 352.174167 
L 467.54173 351.506436 
L 467.692559 352.174167 
L 469.964682 352.174167 
L 470.115213 344.942169 
L 470.266948 352.174167 
L 470.871138 352.174167 
L 471.022921 351.173525 
L 471.174624 352.174167 
L 472.994141 352.174167 
L 473.145912 351.507072 
L 473.29922 352.174167 
L 474.98132 352.174167 
L 475.132871 351.171614 
L 475.284713 352.174167 
L 476.04129 352.174167 
L 476.192901 351.839982 
L 476.344359 352.174167 
L 477.254022 352.174167 
L 477.404682 347.013534 
L 477.556237 352.174167 
L 478.46578 352.174167 
L 478.616496 351.503878 
L 478.76807 352.174167 
L 479.223016 352.174167 
L 479.374564 351.506436 
L 479.526232 352.174167 
L 481.042838 352.174167 
L 481.194465 351.173525 
L 481.346175 351.173525 
L 481.49696 351.503235 
L 481.647702 352.174167 
L 482.407135 352.174167 
L 482.559277 350.841249 
L 482.710825 352.174167 
L 483.317021 352.174167 
L 483.468484 351.171614 
L 483.620528 352.174167 
L 484.683963 352.174167 
L 484.835739 345.757248 
L 484.986426 352.174167 
L 485.59075 352.174167 
L 485.7417 351.168733 
L 485.892491 352.174167 
L 487.249981 352.174167 
L 487.400451 350.827137 
L 487.551687 352.174167 
L 487.703618 351.175429 
L 487.854468 352.174167 
L 489.073843 352.174167 
L 489.224874 351.839343 
L 489.375984 352.174167 
L 490.279636 352.174167 
L 490.430622 351.838379 
L 490.582004 352.174167 
L 492.241071 352.174167 
L 492.393108 351.840937 
L 492.545208 352.174167 
L 493.908506 352.174167 
L 494.059411 351.503235 
L 494.210859 352.174167 
L 494.967905 352.174167 
L 495.118532 351.838379 
L 495.269224 351.165835 
L 495.420152 352.174167 
L 495.571009 351.503235 
L 495.571009 351.503235 
" style="fill:none;stroke:#1f77b4;stroke-linecap:square;stroke-width:1.5;"/>
   </g>
   <g id="patch_3">
    <path d="M 66.158594 352.174167 
L 66.158594 35.0625 
" style="fill:none;stroke:#000000;stroke-linecap:square;stroke-linejoin:miter;stroke-width:0.8;"/>
   </g>
   <g id="patch_4">
    <path d="M 516.019219 352.174167 
L 516.019219 35.0625 
" style="fill:none;stroke:#000000;stroke-linecap:square;stroke-linejoin:miter;stroke-width:0.8;"/>
   </g>
   <g id="patch_5">
    <path d="M 66.158594 352.174167 
L 516.019219 352.174167 
" style="fill:none;stroke:#000000;stroke-linecap:square;stroke-linejoin:miter;stroke-width:0.8;"/>
   </g>
   <g id="patch_6">
    <path d="M 66.158594 35.0625 
L 516.019219 35.0625 
" style="fill:none;stroke:#000000;stroke-linecap:square;stroke-linejoin:miter;stroke-width:0.8;"/>
   </g>
   <g id="legend_1">
    <g id="patch_7">
     <path d="M 540.51225 53.01875 
L 620.748187 53.01875 
Q 622.748187 53.01875 622.748187 51.01875 
L 622.748187 37.0625 
Q 622.748187 35.0625 620.748187 35.0625 
L 540.51225 35.0625 
Q 538.51225 35.0625 538.51225 37.0625 
L 538.51225 51.01875 
Q 538.51225 53.01875 540.51225 53.01875 
z
" style="fill:#ffffff;opacity:0.8;stroke:#cccccc;stroke-linejoin:miter;"/>
    </g>
    <g id="line2d_13">
     <path d="M 542.51225 43.160937 
L 562.51225 43.160937 
" style="fill:none;stroke:#1f77b4;stroke-linecap:square;stroke-width:1.5;"/>
    </g>
    <g id="line2d_14"/>
    <g id="text_13">
     <!-- drop_rate -->
     <defs>
      <path d="M 50.984375 -16.609375 
L 50.984375 -23.578125 
L -0.984375 -23.578125 
L -0.984375 -16.609375 
z
" id="DejaVuSans-95"/>
     </defs>
     <g transform="translate(570.51225 46.660937)scale(0.1 -0.1)">
      <use xlink:href="#DejaVuSans-100"/>
      <use x="63.476562" xlink:href="#DejaVuSans-114"/>
      <use x="104.558594" xlink:href="#DejaVuSans-111"/>
      <use x="165.740234" xlink:href="#DejaVuSans-112"/>
      <use x="229.216797" xlink:href="#DejaVuSans-95"/>
      <use x="279.216797" xlink:href="#DejaVuSans-114"/>
      <use x="320.330078" xlink:href="#DejaVuSans-97"/>
      <use x="381.609375" xlink:href="#DejaVuSans-116"/>
      <use x="420.818359" xlink:href="#DejaVuSans-101"/>
     </g>
    </g>
   </g>
  </g>
  <g id="text_14">
   <!-- result droprate -->
   <defs>
    <path d="M 44.28125 53.078125 
L 44.28125 44.578125 
Q 40.484375 46.53125 36.375 47.5 
Q 32.28125 48.484375 27.875 48.484375 
Q 21.1875 48.484375 17.84375 46.4375 
Q 14.5 44.390625 14.5 40.28125 
Q 14.5 37.15625 16.890625 35.375 
Q 19.28125 33.59375 26.515625 31.984375 
L 29.59375 31.296875 
Q 39.15625 29.25 43.1875 25.515625 
Q 47.21875 21.78125 47.21875 15.09375 
Q 47.21875 7.46875 41.1875 3.015625 
Q 35.15625 -1.421875 24.609375 -1.421875 
Q 20.21875 -1.421875 15.453125 -0.5625 
Q 10.6875 0.296875 5.421875 2 
L 5.421875 11.28125 
Q 10.40625 8.6875 15.234375 7.390625 
Q 20.0625 6.109375 24.8125 6.109375 
Q 31.15625 6.109375 34.5625 8.28125 
Q 37.984375 10.453125 37.984375 14.40625 
Q 37.984375 18.0625 35.515625 20.015625 
Q 33.0625 21.96875 24.703125 23.78125 
L 21.578125 24.515625 
Q 13.234375 26.265625 9.515625 29.90625 
Q 5.8125 33.546875 5.8125 39.890625 
Q 5.8125 47.609375 11.28125 51.796875 
Q 16.75 56 26.8125 56 
Q 31.78125 56 36.171875 55.265625 
Q 40.578125 54.546875 44.28125 53.078125 
z
" id="DejaVuSans-115"/>
    <path d="M 8.5 21.578125 
L 8.5 54.6875 
L 17.484375 54.6875 
L 17.484375 21.921875 
Q 17.484375 14.15625 20.5 10.265625 
Q 23.53125 6.390625 29.59375 6.390625 
Q 36.859375 6.390625 41.078125 11.03125 
Q 45.3125 15.671875 45.3125 23.6875 
L 45.3125 54.6875 
L 54.296875 54.6875 
L 54.296875 0 
L 45.3125 0 
L 45.3125 8.40625 
Q 42.046875 3.421875 37.71875 1 
Q 33.40625 -1.421875 27.6875 -1.421875 
Q 18.265625 -1.421875 13.375 4.4375 
Q 8.5 10.296875 8.5 21.578125 
z
M 31.109375 56 
z
" id="DejaVuSans-117"/>
    <path d="M 9.421875 75.984375 
L 18.40625 75.984375 
L 18.40625 0 
L 9.421875 0 
z
" id="DejaVuSans-108"/>
    <path id="DejaVuSans-32"/>
   </defs>
   <g transform="translate(297.047813 17.038125)scale(0.12 -0.12)">
    <use xlink:href="#DejaVuSans-114"/>
    <use x="41.082031" xlink:href="#DejaVuSans-101"/>
    <use x="102.605469" xlink:href="#DejaVuSans-115"/>
    <use x="154.705078" xlink:href="#DejaVuSans-117"/>
    <use x="218.083984" xlink:href="#DejaVuSans-108"/>
    <use x="245.867188" xlink:href="#DejaVuSans-116"/>
    <use x="285.076172" xlink:href="#DejaVuSans-32"/>
    <use x="316.863281" xlink:href="#DejaVuSans-100"/>
    <use x="380.339844" xlink:href="#DejaVuSans-114"/>
    <use x="421.421875" xlink:href="#DejaVuSans-111"/>
    <use x="482.603516" xlink:href="#DejaVuSans-112"/>
    <use x="546.080078" xlink:href="#DejaVuSans-114"/>
    <use x="587.193359" xlink:href="#DejaVuSans-97"/>
    <use x="648.472656" xlink:href="#DejaVuSans-116"/>
    <use x="687.681641" xlink:href="#DejaVuSans-101"/>
   </g>
  </g>
 </g>
 <defs>
  <clipPath id="p9e68215f6c">
   <rect height="317.111667" width="449.860625" x="66.158594" y="35.0625"/>
  </clipPath>
 </defs>
</svg>
