<?xml version="1.0" encoding="utf-8" standalone="no"?>
<!DOCTYPE svg PUBLIC "-//W3C//DTD SVG 1.1//EN"
  "http://www.w3.org/Graphics/SVG/1.1/DTD/svg11.dtd">
<!-- Created with matplotlib (https://matplotlib.org/) -->
<svg height="396pt" version="1.1" viewBox="0 0 684 396" width="684pt" xmlns="http://www.w3.org/2000/svg" xmlns:xlink="http://www.w3.org/1999/xlink">
 <defs>
  <style type="text/css">
*{stroke-linecap:butt;stroke-linejoin:round;}
  </style>
 </defs>
 <g id="figure_1">
  <g id="patch_1">
   <path d="M 0 396 
L 684 396 
L 684 0 
L 0 0 
z
" style="fill:#ffffff;"/>
  </g>
  <g id="axes_1">
   <g id="patch_2">
    <path d="M 130.230156 352.174167 
L 488.365312 352.174167 
L 488.365312 35.0625 
L 130.230156 35.0625 
z
" style="fill:#ffffff;"/>
   </g>
   <g id="matplotlib.axis_1">
    <g id="xtick_1">
     <g id="line2d_1">
      <defs>
       <path d="M 0 0 
L 0 3.5 
" id="m54b0e38ca5" style="stroke:#000000;stroke-width:0.8;"/>
      </defs>
      <g>
       <use style="stroke:#000000;stroke-width:0.8;" x="146.506663" xlink:href="#m54b0e38ca5" y="352.174167"/>
      </g>
     </g>
     <g id="text_1">
      <!-- 0 -->
      <defs>
       <path d="M 31.78125 66.40625 
Q 24.171875 66.40625 20.328125 58.90625 
Q 16.5 51.421875 16.5 36.375 
Q 16.5 21.390625 20.328125 13.890625 
Q 24.171875 6.390625 31.78125 6.390625 
Q 39.453125 6.390625 43.28125 13.890625 
Q 47.125 21.390625 47.125 36.375 
Q 47.125 51.421875 43.28125 58.90625 
Q 39.453125 66.40625 31.78125 66.40625 
z
M 31.78125 74.21875 
Q 44.046875 74.21875 50.515625 64.515625 
Q 56.984375 54.828125 56.984375 36.375 
Q 56.984375 17.96875 50.515625 8.265625 
Q 44.046875 -1.421875 31.78125 -1.421875 
Q 19.53125 -1.421875 13.0625 8.265625 
Q 6.59375 17.96875 6.59375 36.375 
Q 6.59375 54.828125 13.0625 64.515625 
Q 19.53125 74.21875 31.78125 74.21875 
z
" id="DejaVuSans-48"/>
      </defs>
      <g transform="translate(143.325413 366.772604)scale(0.1 -0.1)">
       <use xlink:href="#DejaVuSans-48"/>
      </g>
     </g>
    </g>
    <g id="xtick_2">
     <g id="line2d_2">
      <g>
       <use style="stroke:#000000;stroke-width:0.8;" x="205.596196" xlink:href="#m54b0e38ca5" y="352.174167"/>
      </g>
     </g>
     <g id="text_2">
      <!-- 50 -->
      <defs>
       <path d="M 10.796875 72.90625 
L 49.515625 72.90625 
L 49.515625 64.59375 
L 19.828125 64.59375 
L 19.828125 46.734375 
Q 21.96875 47.46875 24.109375 47.828125 
Q 26.265625 48.1875 28.421875 48.1875 
Q 40.625 48.1875 47.75 41.5 
Q 54.890625 34.8125 54.890625 23.390625 
Q 54.890625 11.625 47.5625 5.09375 
Q 40.234375 -1.421875 26.90625 -1.421875 
Q 22.3125 -1.421875 17.546875 -0.640625 
Q 12.796875 0.140625 7.71875 1.703125 
L 7.71875 11.625 
Q 12.109375 9.234375 16.796875 8.0625 
Q 21.484375 6.890625 26.703125 6.890625 
Q 35.15625 6.890625 40.078125 11.328125 
Q 45.015625 15.765625 45.015625 23.390625 
Q 45.015625 31 40.078125 35.4375 
Q 35.15625 39.890625 26.703125 39.890625 
Q 22.75 39.890625 18.8125 39.015625 
Q 14.890625 38.140625 10.796875 36.28125 
z
" id="DejaVuSans-53"/>
      </defs>
      <g transform="translate(199.233696 366.772604)scale(0.1 -0.1)">
       <use xlink:href="#DejaVuSans-53"/>
       <use x="63.623047" xlink:href="#DejaVuSans-48"/>
      </g>
     </g>
    </g>
    <g id="xtick_3">
     <g id="line2d_3">
      <g>
       <use style="stroke:#000000;stroke-width:0.8;" x="264.685728" xlink:href="#m54b0e38ca5" y="352.174167"/>
      </g>
     </g>
     <g id="text_3">
      <!-- 100 -->
      <defs>
       <path d="M 12.40625 8.296875 
L 28.515625 8.296875 
L 28.515625 63.921875 
L 10.984375 60.40625 
L 10.984375 69.390625 
L 28.421875 72.90625 
L 38.28125 72.90625 
L 38.28125 8.296875 
L 54.390625 8.296875 
L 54.390625 0 
L 12.40625 0 
z
" id="DejaVuSans-49"/>
      </defs>
      <g transform="translate(255.141978 366.772604)scale(0.1 -0.1)">
       <use xlink:href="#DejaVuSans-49"/>
       <use x="63.623047" xlink:href="#DejaVuSans-48"/>
       <use x="127.246094" xlink:href="#DejaVuSans-48"/>
      </g>
     </g>
    </g>
    <g id="xtick_4">
     <g id="line2d_4">
      <g>
       <use style="stroke:#000000;stroke-width:0.8;" x="323.775261" xlink:href="#m54b0e38ca5" y="352.174167"/>
      </g>
     </g>
     <g id="text_4">
      <!-- 150 -->
      <g transform="translate(314.231511 366.772604)scale(0.1 -0.1)">
       <use xlink:href="#DejaVuSans-49"/>
       <use x="63.623047" xlink:href="#DejaVuSans-53"/>
       <use x="127.246094" xlink:href="#DejaVuSans-48"/>
      </g>
     </g>
    </g>
    <g id="xtick_5">
     <g id="line2d_5">
      <g>
       <use style="stroke:#000000;stroke-width:0.8;" x="382.864793" xlink:href="#m54b0e38ca5" y="352.174167"/>
      </g>
     </g>
     <g id="text_5">
      <!-- 200 -->
      <defs>
       <path d="M 19.1875 8.296875 
L 53.609375 8.296875 
L 53.609375 0 
L 7.328125 0 
L 7.328125 8.296875 
Q 12.9375 14.109375 22.625 23.890625 
Q 32.328125 33.6875 34.8125 36.53125 
Q 39.546875 41.84375 41.421875 45.53125 
Q 43.3125 49.21875 43.3125 52.78125 
Q 43.3125 58.59375 39.234375 62.25 
Q 35.15625 65.921875 28.609375 65.921875 
Q 23.96875 65.921875 18.8125 64.3125 
Q 13.671875 62.703125 7.8125 59.421875 
L 7.8125 69.390625 
Q 13.765625 71.78125 18.9375 73 
Q 24.125 74.21875 28.421875 74.21875 
Q 39.75 74.21875 46.484375 68.546875 
Q 53.21875 62.890625 53.21875 53.421875 
Q 53.21875 48.921875 51.53125 44.890625 
Q 49.859375 40.875 45.40625 35.40625 
Q 44.1875 33.984375 37.640625 27.21875 
Q 31.109375 20.453125 19.1875 8.296875 
z
" id="DejaVuSans-50"/>
      </defs>
      <g transform="translate(373.321043 366.772604)scale(0.1 -0.1)">
       <use xlink:href="#DejaVuSans-50"/>
       <use x="63.623047" xlink:href="#DejaVuSans-48"/>
       <use x="127.246094" xlink:href="#DejaVuSans-48"/>
      </g>
     </g>
    </g>
    <g id="xtick_6">
     <g id="line2d_6">
      <g>
       <use style="stroke:#000000;stroke-width:0.8;" x="441.954326" xlink:href="#m54b0e38ca5" y="352.174167"/>
      </g>
     </g>
     <g id="text_6">
      <!-- 250 -->
      <g transform="translate(432.410576 366.772604)scale(0.1 -0.1)">
       <use xlink:href="#DejaVuSans-50"/>
       <use x="63.623047" xlink:href="#DejaVuSans-53"/>
       <use x="127.246094" xlink:href="#DejaVuSans-48"/>
      </g>
     </g>
    </g>
   </g>
   <g id="matplotlib.axis_2">
    <g id="ytick_1">
     <g id="line2d_7">
      <defs>
       <path d="M 0 0 
L -3.5 0 
" id="m6e461e1709" style="stroke:#000000;stroke-width:0.8;"/>
      </defs>
      <g>
       <use style="stroke:#000000;stroke-width:0.8;" x="130.230156" xlink:href="#m6e461e1709" y="352.174167"/>
      </g>
     </g>
     <g id="text_7">
      <!-- 0 -->
      <g transform="translate(116.867656 355.973385)scale(0.1 -0.1)">
       <use xlink:href="#DejaVuSans-48"/>
      </g>
     </g>
    </g>
    <g id="ytick_2">
     <g id="line2d_8">
      <g>
       <use style="stroke:#000000;stroke-width:0.8;" x="130.230156" xlink:href="#m6e461e1709" y="316.847065"/>
      </g>
     </g>
     <g id="text_8">
      <!-- 250000 -->
      <g transform="translate(85.055156 320.646284)scale(0.1 -0.1)">
       <use xlink:href="#DejaVuSans-50"/>
       <use x="63.623047" xlink:href="#DejaVuSans-53"/>
       <use x="127.246094" xlink:href="#DejaVuSans-48"/>
       <use x="190.869141" xlink:href="#DejaVuSans-48"/>
       <use x="254.492188" xlink:href="#DejaVuSans-48"/>
       <use x="318.115234" xlink:href="#DejaVuSans-48"/>
      </g>
     </g>
    </g>
    <g id="ytick_3">
     <g id="line2d_9">
      <g>
       <use style="stroke:#000000;stroke-width:0.8;" x="130.230156" xlink:href="#m6e461e1709" y="281.519963"/>
      </g>
     </g>
     <g id="text_9">
      <!-- 500000 -->
      <g transform="translate(85.055156 285.319182)scale(0.1 -0.1)">
       <use xlink:href="#DejaVuSans-53"/>
       <use x="63.623047" xlink:href="#DejaVuSans-48"/>
       <use x="127.246094" xlink:href="#DejaVuSans-48"/>
       <use x="190.869141" xlink:href="#DejaVuSans-48"/>
       <use x="254.492188" xlink:href="#DejaVuSans-48"/>
       <use x="318.115234" xlink:href="#DejaVuSans-48"/>
      </g>
     </g>
    </g>
    <g id="ytick_4">
     <g id="line2d_10">
      <g>
       <use style="stroke:#000000;stroke-width:0.8;" x="130.230156" xlink:href="#m6e461e1709" y="246.192861"/>
      </g>
     </g>
     <g id="text_10">
      <!-- 750000 -->
      <defs>
       <path d="M 8.203125 72.90625 
L 55.078125 72.90625 
L 55.078125 68.703125 
L 28.609375 0 
L 18.3125 0 
L 43.21875 64.59375 
L 8.203125 64.59375 
z
" id="DejaVuSans-55"/>
      </defs>
      <g transform="translate(85.055156 249.99208)scale(0.1 -0.1)">
       <use xlink:href="#DejaVuSans-55"/>
       <use x="63.623047" xlink:href="#DejaVuSans-53"/>
       <use x="127.246094" xlink:href="#DejaVuSans-48"/>
       <use x="190.869141" xlink:href="#DejaVuSans-48"/>
       <use x="254.492188" xlink:href="#DejaVuSans-48"/>
       <use x="318.115234" xlink:href="#DejaVuSans-48"/>
      </g>
     </g>
    </g>
    <g id="ytick_5">
     <g id="line2d_11">
      <g>
       <use style="stroke:#000000;stroke-width:0.8;" x="130.230156" xlink:href="#m6e461e1709" y="210.865759"/>
      </g>
     </g>
     <g id="text_11">
      <!-- 1000000 -->
      <g transform="translate(78.692656 214.664978)scale(0.1 -0.1)">
       <use xlink:href="#DejaVuSans-49"/>
       <use x="63.623047" xlink:href="#DejaVuSans-48"/>
       <use x="127.246094" xlink:href="#DejaVuSans-48"/>
       <use x="190.869141" xlink:href="#DejaVuSans-48"/>
       <use x="254.492188" xlink:href="#DejaVuSans-48"/>
       <use x="318.115234" xlink:href="#DejaVuSans-48"/>
       <use x="381.738281" xlink:href="#DejaVuSans-48"/>
      </g>
     </g>
    </g>
    <g id="ytick_6">
     <g id="line2d_12">
      <g>
       <use style="stroke:#000000;stroke-width:0.8;" x="130.230156" xlink:href="#m6e461e1709" y="175.538657"/>
      </g>
     </g>
     <g id="text_12">
      <!-- 1250000 -->
      <g transform="translate(78.692656 179.337876)scale(0.1 -0.1)">
       <use xlink:href="#DejaVuSans-49"/>
       <use x="63.623047" xlink:href="#DejaVuSans-50"/>
       <use x="127.246094" xlink:href="#DejaVuSans-53"/>
       <use x="190.869141" xlink:href="#DejaVuSans-48"/>
       <use x="254.492188" xlink:href="#DejaVuSans-48"/>
       <use x="318.115234" xlink:href="#DejaVuSans-48"/>
       <use x="381.738281" xlink:href="#DejaVuSans-48"/>
      </g>
     </g>
    </g>
    <g id="ytick_7">
     <g id="line2d_13">
      <g>
       <use style="stroke:#000000;stroke-width:0.8;" x="130.230156" xlink:href="#m6e461e1709" y="140.211556"/>
      </g>
     </g>
     <g id="text_13">
      <!-- 1500000 -->
      <g transform="translate(78.692656 144.010774)scale(0.1 -0.1)">
       <use xlink:href="#DejaVuSans-49"/>
       <use x="63.623047" xlink:href="#DejaVuSans-53"/>
       <use x="127.246094" xlink:href="#DejaVuSans-48"/>
       <use x="190.869141" xlink:href="#DejaVuSans-48"/>
       <use x="254.492188" xlink:href="#DejaVuSans-48"/>
       <use x="318.115234" xlink:href="#DejaVuSans-48"/>
       <use x="381.738281" xlink:href="#DejaVuSans-48"/>
      </g>
     </g>
    </g>
    <g id="ytick_8">
     <g id="line2d_14">
      <g>
       <use style="stroke:#000000;stroke-width:0.8;" x="130.230156" xlink:href="#m6e461e1709" y="104.884454"/>
      </g>
     </g>
     <g id="text_14">
      <!-- 1750000 -->
      <g transform="translate(78.692656 108.683672)scale(0.1 -0.1)">
       <use xlink:href="#DejaVuSans-49"/>
       <use x="63.623047" xlink:href="#DejaVuSans-55"/>
       <use x="127.246094" xlink:href="#DejaVuSans-53"/>
       <use x="190.869141" xlink:href="#DejaVuSans-48"/>
       <use x="254.492188" xlink:href="#DejaVuSans-48"/>
       <use x="318.115234" xlink:href="#DejaVuSans-48"/>
       <use x="381.738281" xlink:href="#DejaVuSans-48"/>
      </g>
     </g>
    </g>
    <g id="ytick_9">
     <g id="line2d_15">
      <g>
       <use style="stroke:#000000;stroke-width:0.8;" x="130.230156" xlink:href="#m6e461e1709" y="69.557352"/>
      </g>
     </g>
     <g id="text_15">
      <!-- 2000000 -->
      <g transform="translate(78.692656 73.356571)scale(0.1 -0.1)">
       <use xlink:href="#DejaVuSans-50"/>
       <use x="63.623047" xlink:href="#DejaVuSans-48"/>
       <use x="127.246094" xlink:href="#DejaVuSans-48"/>
       <use x="190.869141" xlink:href="#DejaVuSans-48"/>
       <use x="254.492188" xlink:href="#DejaVuSans-48"/>
       <use x="318.115234" xlink:href="#DejaVuSans-48"/>
       <use x="381.738281" xlink:href="#DejaVuSans-48"/>
      </g>
     </g>
    </g>
    <g id="text_16">
     <!-- inflight -->
     <defs>
      <path d="M 9.421875 54.6875 
L 18.40625 54.6875 
L 18.40625 0 
L 9.421875 0 
z
M 9.421875 75.984375 
L 18.40625 75.984375 
L 18.40625 64.59375 
L 9.421875 64.59375 
z
" id="DejaVuSans-105"/>
      <path d="M 54.890625 33.015625 
L 54.890625 0 
L 45.90625 0 
L 45.90625 32.71875 
Q 45.90625 40.484375 42.875 44.328125 
Q 39.84375 48.1875 33.796875 48.1875 
Q 26.515625 48.1875 22.3125 43.546875 
Q 18.109375 38.921875 18.109375 30.90625 
L 18.109375 0 
L 9.078125 0 
L 9.078125 54.6875 
L 18.109375 54.6875 
L 18.109375 46.1875 
Q 21.34375 51.125 25.703125 53.5625 
Q 30.078125 56 35.796875 56 
Q 45.21875 56 50.046875 50.171875 
Q 54.890625 44.34375 54.890625 33.015625 
z
" id="DejaVuSans-110"/>
      <path d="M 37.109375 75.984375 
L 37.109375 68.5 
L 28.515625 68.5 
Q 23.6875 68.5 21.796875 66.546875 
Q 19.921875 64.59375 19.921875 59.515625 
L 19.921875 54.6875 
L 34.71875 54.6875 
L 34.71875 47.703125 
L 19.921875 47.703125 
L 19.921875 0 
L 10.890625 0 
L 10.890625 47.703125 
L 2.296875 47.703125 
L 2.296875 54.6875 
L 10.890625 54.6875 
L 10.890625 58.5 
Q 10.890625 67.625 15.140625 71.796875 
Q 19.390625 75.984375 28.609375 75.984375 
z
" id="DejaVuSans-102"/>
      <path d="M 9.421875 75.984375 
L 18.40625 75.984375 
L 18.40625 0 
L 9.421875 0 
z
" id="DejaVuSans-108"/>
      <path d="M 45.40625 27.984375 
Q 45.40625 37.75 41.375 43.109375 
Q 37.359375 48.484375 30.078125 48.484375 
Q 22.859375 48.484375 18.828125 43.109375 
Q 14.796875 37.75 14.796875 27.984375 
Q 14.796875 18.265625 18.828125 12.890625 
Q 22.859375 7.515625 30.078125 7.515625 
Q 37.359375 7.515625 41.375 12.890625 
Q 45.40625 18.265625 45.40625 27.984375 
z
M 54.390625 6.78125 
Q 54.390625 -7.171875 48.1875 -13.984375 
Q 42 -20.796875 29.203125 -20.796875 
Q 24.46875 -20.796875 20.265625 -20.09375 
Q 16.0625 -19.390625 12.109375 -17.921875 
L 12.109375 -9.1875 
Q 16.0625 -11.328125 19.921875 -12.34375 
Q 23.78125 -13.375 27.78125 -13.375 
Q 36.625 -13.375 41.015625 -8.765625 
Q 45.40625 -4.15625 45.40625 5.171875 
L 45.40625 9.625 
Q 42.625 4.78125 38.28125 2.390625 
Q 33.9375 0 27.875 0 
Q 17.828125 0 11.671875 7.65625 
Q 5.515625 15.328125 5.515625 27.984375 
Q 5.515625 40.671875 11.671875 48.328125 
Q 17.828125 56 27.875 56 
Q 33.9375 56 38.28125 53.609375 
Q 42.625 51.21875 45.40625 46.390625 
L 45.40625 54.6875 
L 54.390625 54.6875 
z
" id="DejaVuSans-103"/>
      <path d="M 54.890625 33.015625 
L 54.890625 0 
L 45.90625 0 
L 45.90625 32.71875 
Q 45.90625 40.484375 42.875 44.328125 
Q 39.84375 48.1875 33.796875 48.1875 
Q 26.515625 48.1875 22.3125 43.546875 
Q 18.109375 38.921875 18.109375 30.90625 
L 18.109375 0 
L 9.078125 0 
L 9.078125 75.984375 
L 18.109375 75.984375 
L 18.109375 46.1875 
Q 21.34375 51.125 25.703125 53.5625 
Q 30.078125 56 35.796875 56 
Q 45.21875 56 50.046875 50.171875 
Q 54.890625 44.34375 54.890625 33.015625 
z
" id="DejaVuSans-104"/>
      <path d="M 18.3125 70.21875 
L 18.3125 54.6875 
L 36.8125 54.6875 
L 36.8125 47.703125 
L 18.3125 47.703125 
L 18.3125 18.015625 
Q 18.3125 11.328125 20.140625 9.421875 
Q 21.96875 7.515625 27.59375 7.515625 
L 36.8125 7.515625 
L 36.8125 0 
L 27.59375 0 
Q 17.1875 0 13.234375 3.875 
Q 9.28125 7.765625 9.28125 18.015625 
L 9.28125 47.703125 
L 2.6875 47.703125 
L 2.6875 54.6875 
L 9.28125 54.6875 
L 9.28125 70.21875 
z
" id="DejaVuSans-116"/>
     </defs>
     <g transform="translate(61.415156 211.017552)rotate(-90)scale(0.1 -0.1)">
      <use xlink:href="#DejaVuSans-105"/>
      <use x="27.783203" xlink:href="#DejaVuSans-110"/>
      <use x="91.162109" xlink:href="#DejaVuSans-102"/>
      <use x="126.367188" xlink:href="#DejaVuSans-108"/>
      <use x="154.150391" xlink:href="#DejaVuSans-105"/>
      <use x="181.933594" xlink:href="#DejaVuSans-103"/>
      <use x="245.410156" xlink:href="#DejaVuSans-104"/>
      <use x="308.789062" xlink:href="#DejaVuSans-116"/>
     </g>
     <!-- (bytes) -->
     <defs>
      <path d="M 31 75.875 
Q 24.46875 64.65625 21.28125 53.65625 
Q 18.109375 42.671875 18.109375 31.390625 
Q 18.109375 20.125 21.3125 9.0625 
Q 24.515625 -2 31 -13.1875 
L 23.1875 -13.1875 
Q 15.875 -1.703125 12.234375 9.375 
Q 8.59375 20.453125 8.59375 31.390625 
Q 8.59375 42.28125 12.203125 53.3125 
Q 15.828125 64.359375 23.1875 75.875 
z
" id="DejaVuSans-40"/>
      <path d="M 48.6875 27.296875 
Q 48.6875 37.203125 44.609375 42.84375 
Q 40.53125 48.484375 33.40625 48.484375 
Q 26.265625 48.484375 22.1875 42.84375 
Q 18.109375 37.203125 18.109375 27.296875 
Q 18.109375 17.390625 22.1875 11.75 
Q 26.265625 6.109375 33.40625 6.109375 
Q 40.53125 6.109375 44.609375 11.75 
Q 48.6875 17.390625 48.6875 27.296875 
z
M 18.109375 46.390625 
Q 20.953125 51.265625 25.265625 53.625 
Q 29.59375 56 35.59375 56 
Q 45.5625 56 51.78125 48.09375 
Q 58.015625 40.1875 58.015625 27.296875 
Q 58.015625 14.40625 51.78125 6.484375 
Q 45.5625 -1.421875 35.59375 -1.421875 
Q 29.59375 -1.421875 25.265625 0.953125 
Q 20.953125 3.328125 18.109375 8.203125 
L 18.109375 0 
L 9.078125 0 
L 9.078125 75.984375 
L 18.109375 75.984375 
z
" id="DejaVuSans-98"/>
      <path d="M 32.171875 -5.078125 
Q 28.375 -14.84375 24.75 -17.8125 
Q 21.140625 -20.796875 15.09375 -20.796875 
L 7.90625 -20.796875 
L 7.90625 -13.28125 
L 13.1875 -13.28125 
Q 16.890625 -13.28125 18.9375 -11.515625 
Q 21 -9.765625 23.484375 -3.21875 
L 25.09375 0.875 
L 2.984375 54.6875 
L 12.5 54.6875 
L 29.59375 11.921875 
L 46.6875 54.6875 
L 56.203125 54.6875 
z
" id="DejaVuSans-121"/>
      <path d="M 56.203125 29.59375 
L 56.203125 25.203125 
L 14.890625 25.203125 
Q 15.484375 15.921875 20.484375 11.0625 
Q 25.484375 6.203125 34.421875 6.203125 
Q 39.59375 6.203125 44.453125 7.46875 
Q 49.3125 8.734375 54.109375 11.28125 
L 54.109375 2.78125 
Q 49.265625 0.734375 44.1875 -0.34375 
Q 39.109375 -1.421875 33.890625 -1.421875 
Q 20.796875 -1.421875 13.15625 6.1875 
Q 5.515625 13.8125 5.515625 26.8125 
Q 5.515625 40.234375 12.765625 48.109375 
Q 20.015625 56 32.328125 56 
Q 43.359375 56 49.78125 48.890625 
Q 56.203125 41.796875 56.203125 29.59375 
z
M 47.21875 32.234375 
Q 47.125 39.59375 43.09375 43.984375 
Q 39.0625 48.390625 32.421875 48.390625 
Q 24.90625 48.390625 20.390625 44.140625 
Q 15.875 39.890625 15.1875 32.171875 
z
" id="DejaVuSans-101"/>
      <path d="M 44.28125 53.078125 
L 44.28125 44.578125 
Q 40.484375 46.53125 36.375 47.5 
Q 32.28125 48.484375 27.875 48.484375 
Q 21.1875 48.484375 17.84375 46.4375 
Q 14.5 44.390625 14.5 40.28125 
Q 14.5 37.15625 16.890625 35.375 
Q 19.28125 33.59375 26.515625 31.984375 
L 29.59375 31.296875 
Q 39.15625 29.25 43.1875 25.515625 
Q 47.21875 21.78125 47.21875 15.09375 
Q 47.21875 7.46875 41.1875 3.015625 
Q 35.15625 -1.421875 24.609375 -1.421875 
Q 20.21875 -1.421875 15.453125 -0.5625 
Q 10.6875 0.296875 5.421875 2 
L 5.421875 11.28125 
Q 10.40625 8.6875 15.234375 7.390625 
Q 20.0625 6.109375 24.8125 6.109375 
Q 31.15625 6.109375 34.5625 8.28125 
Q 37.984375 10.453125 37.984375 14.40625 
Q 37.984375 18.0625 35.515625 20.015625 
Q 33.0625 21.96875 24.703125 23.78125 
L 21.578125 24.515625 
Q 13.234375 26.265625 9.515625 29.90625 
Q 5.8125 33.546875 5.8125 39.890625 
Q 5.8125 47.609375 11.28125 51.796875 
Q 16.75 56 26.8125 56 
Q 31.78125 56 36.171875 55.265625 
Q 40.578125 54.546875 44.28125 53.078125 
z
" id="DejaVuSans-115"/>
      <path d="M 8.015625 75.875 
L 15.828125 75.875 
Q 23.140625 64.359375 26.78125 53.3125 
Q 30.421875 42.28125 30.421875 31.390625 
Q 30.421875 20.453125 26.78125 9.375 
Q 23.140625 -1.703125 15.828125 -13.1875 
L 8.015625 -13.1875 
Q 14.5 -2 17.703125 9.0625 
Q 20.90625 20.125 20.90625 31.390625 
Q 20.90625 42.671875 17.703125 53.65625 
Q 14.5 64.65625 8.015625 75.875 
z
" id="DejaVuSans-41"/>
     </defs>
     <g transform="translate(72.612969 211.294896)rotate(-90)scale(0.1 -0.1)">
      <use xlink:href="#DejaVuSans-40"/>
      <use x="39.013672" xlink:href="#DejaVuSans-98"/>
      <use x="102.490234" xlink:href="#DejaVuSans-121"/>
      <use x="161.669922" xlink:href="#DejaVuSans-116"/>
      <use x="200.878906" xlink:href="#DejaVuSans-101"/>
      <use x="262.402344" xlink:href="#DejaVuSans-115"/>
      <use x="314.501953" xlink:href="#DejaVuSans-41"/>
     </g>
    </g>
   </g>
   <g id="line2d_16">
    <path clip-path="url(#p62e2a364f9)" d="M 148.8537 217.537777 
L 149.444595 291.812867 
L 150.03549 302.862054 
L 150.626386 300.202065 
L 151.808176 219.174694 
L 152.399072 316.775845 
L 153.580862 324.14197 
L 154.171758 304.089742 
L 154.762653 334.781928 
L 155.353548 336.828074 
L 155.944444 337.851146 
L 156.535339 339.283449 
L 157.126234 340.306521 
L 157.71713 339.897292 
L 158.308025 335.395772 
L 158.89892 335.395772 
L 159.489815 335.805001 
L 160.080711 336.623459 
L 160.671606 333.145011 
L 161.262501 334.372699 
L 161.853397 333.758855 
L 162.444292 331.508095 
L 163.035187 332.531168 
L 163.626083 329.871178 
L 164.216978 330.894251 
L 164.807873 327.825032 
L 165.989664 324.960428 
L 166.580559 315.957387 
L 167.171455 323.528126 
L 167.76235 325.778887 
L 168.353245 325.165043 
L 169.535036 326.39273 
L 170.125931 325.778887 
L 170.716827 329.05272 
L 171.307722 327.006574 
L 171.898617 326.597345 
L 172.489513 328.848105 
L 173.080408 327.211189 
L 173.671303 330.689636 
L 174.262199 327.006574 
L 174.853094 327.211189 
L 175.443989 330.280407 
L 176.034885 327.825032 
L 176.62578 330.689636 
L 177.216675 329.257334 
L 177.807571 326.597345 
L 178.398466 351.969552 
L 178.989361 330.280407 
L 179.580257 331.30348 
L 180.171152 331.30348 
L 180.762047 331.098866 
L 181.352942 336.21423 
L 181.943838 331.917324 
L 182.534733 333.55424 
L 183.125628 332.940397 
L 183.716524 335.191157 
L 184.307419 332.940397 
L 184.898314 336.009615 
L 185.48921 333.55424 
L 186.080105 336.21423 
L 186.671 335.191157 
L 187.261896 334.577313 
L 187.852791 336.009615 
L 188.443686 333.145011 
L 189.034582 334.372699 
L 189.625477 333.145011 
L 190.216372 334.781928 
L 190.807268 332.531168 
L 191.398163 332.326553 
L 191.989058 333.758855 
L 192.579954 334.168084 
L 193.170849 333.758855 
L 193.761744 334.372699 
L 194.35264 335.395772 
L 194.943535 335.191157 
L 195.53443 337.032688 
L 196.125326 335.191157 
L 196.716221 338.260376 
L 197.307116 336.21423 
L 197.898012 338.055761 
L 198.488907 335.395772 
L 199.079802 336.828074 
L 199.670698 335.191157 
L 200.852488 334.781928 
L 201.443384 334.781928 
L 202.034279 335.191157 
L 202.625174 351.969552 
L 203.216069 335.395772 
L 203.806965 335.600386 
L 204.39786 334.168084 
L 204.988755 334.168084 
L 205.579651 333.349626 
L 206.170546 333.349626 
L 206.761441 332.326553 
L 207.352337 330.689636 
L 207.943232 332.121938 
L 208.534127 330.485022 
L 209.125023 332.940397 
L 209.715918 330.485022 
L 210.306813 332.735782 
L 210.897709 331.30348 
L 211.488604 334.372699 
L 212.079499 330.280407 
L 212.670395 332.940397 
L 213.26129 330.894251 
L 213.852185 330.894251 
L 214.443081 332.531168 
L 215.624871 328.643491 
L 216.215767 327.620418 
L 216.806662 328.234262 
L 217.397557 328.234262 
L 217.988453 328.029647 
L 218.579348 327.415803 
L 219.170243 329.05272 
L 219.761139 327.825032 
L 220.352034 327.620418 
L 220.942929 327.825032 
L 221.533825 328.234262 
L 222.12472 330.075793 
L 222.715615 327.825032 
L 223.306511 330.075793 
L 223.897406 328.848105 
L 224.488301 330.280407 
L 225.079196 329.05272 
L 225.670092 330.485022 
L 226.260987 327.620418 
L 226.851882 351.969552 
L 227.442778 323.937355 
L 228.624568 325.165043 
L 229.215464 324.960428 
L 229.806359 327.620418 
L 230.397254 326.597345 
L 230.98815 327.620418 
L 231.579045 328.234262 
L 232.16994 327.006574 
L 232.760836 328.643491 
L 233.351731 325.983501 
L 233.942626 328.643491 
L 234.533522 326.39273 
L 235.124417 330.689636 
L 235.715312 326.188116 
L 236.306208 329.257334 
L 236.897103 326.39273 
L 237.487998 330.075793 
L 238.078894 326.39273 
L 238.669789 329.871178 
L 239.260684 325.165043 
L 239.85158 324.346585 
L 240.442475 325.369657 
L 241.03337 324.346585 
L 241.624266 327.006574 
L 242.215161 324.346585 
L 242.806056 327.211189 
L 243.396952 324.755814 
L 243.987847 328.234262 
L 244.578742 324.960428 
L 245.169638 326.188116 
L 245.760533 324.960428 
L 246.351428 326.597345 
L 246.942323 326.39273 
L 247.533219 325.574272 
L 248.124114 329.05272 
L 248.715009 326.39273 
L 249.8968 326.39273 
L 250.487695 326.80196 
L 251.078591 351.969552 
L 251.669486 326.188116 
L 252.260381 327.825032 
L 252.851277 328.848105 
L 253.442172 328.643491 
L 254.033067 329.666564 
L 254.623963 328.643491 
L 255.214858 329.871178 
L 255.805753 329.871178 
L 256.396649 331.098866 
L 256.987544 330.894251 
L 257.578439 331.917324 
L 258.169335 331.30348 
L 258.76023 332.531168 
L 259.351125 331.917324 
L 259.942021 334.577313 
L 260.532916 332.940397 
L 261.123811 334.577313 
L 261.714707 333.55424 
L 262.305602 334.577313 
L 262.896497 333.349626 
L 263.487393 337.237303 
L 264.078288 332.940397 
L 264.669183 334.986542 
L 265.260079 333.145011 
L 265.850974 334.986542 
L 266.441869 334.986542 
L 267.032765 336.623459 
L 267.62366 334.577313 
L 268.214555 335.395772 
L 268.80545 335.191157 
L 269.396346 335.395772 
L 269.987241 335.395772 
L 270.578136 334.577313 
L 271.759927 336.21423 
L 272.350822 336.418844 
L 272.941718 334.168084 
L 273.532613 334.168084 
L 274.123508 334.372699 
L 274.714404 333.55424 
L 275.305299 351.969552 
L 275.896194 333.758855 
L 276.48709 334.577313 
L 277.077985 334.577313 
L 277.66888 335.395772 
L 278.259776 335.600386 
L 278.850671 336.009615 
L 279.441566 334.577313 
L 280.032462 337.851146 
L 280.623357 335.395772 
L 281.214252 337.646532 
L 281.805148 334.781928 
L 282.396043 336.623459 
L 283.577834 334.986542 
L 284.168729 335.600386 
L 284.759624 335.191157 
L 285.35052 336.21423 
L 285.941415 336.623459 
L 286.53231 335.395772 
L 287.123206 335.600386 
L 287.714101 338.260376 
L 288.304996 337.032688 
L 288.895892 336.828074 
L 289.486787 338.260376 
L 290.077682 337.032688 
L 290.668577 338.260376 
L 291.259473 337.851146 
L 291.850368 339.692678 
L 292.441263 337.237303 
L 293.032159 340.101907 
L 293.623054 336.623459 
L 294.213949 338.46499 
L 294.804845 335.191157 
L 295.39574 333.349626 
L 295.986635 332.940397 
L 296.577531 331.508095 
L 297.168426 330.485022 
L 297.759321 330.689636 
L 298.350217 329.666564 
L 298.941112 327.825032 
L 299.532007 351.969552 
L 300.122903 327.620418 
L 300.713798 330.485022 
L 301.304693 330.485022 
L 301.895589 331.712709 
L 302.486484 330.485022 
L 303.077379 332.121938 
L 303.668275 331.712709 
L 304.25917 332.735782 
L 304.850065 330.894251 
L 305.440961 332.735782 
L 306.031856 330.485022 
L 306.622751 332.326553 
L 307.213647 330.485022 
L 307.804542 333.349626 
L 308.395437 330.689636 
L 308.986333 332.326553 
L 309.577228 330.075793 
L 310.168123 332.940397 
L 310.759019 330.485022 
L 311.349914 332.940397 
L 311.940809 338.874219 
L 312.531704 330.894251 
L 313.1226 334.168084 
L 313.713495 332.735782 
L 314.30439 334.781928 
L 314.895286 331.917324 
L 315.486181 335.191157 
L 316.077076 332.121938 
L 316.667972 335.395772 
L 317.258867 331.712709 
L 317.849762 332.940397 
L 318.440658 330.894251 
L 319.031553 332.121938 
L 319.622448 330.689636 
L 320.213344 330.485022 
L 321.395134 329.257334 
L 321.98603 329.871178 
L 322.576925 329.666564 
L 323.16782 329.871178 
L 323.758716 350.332636 
L 324.349611 329.05272 
L 324.940506 332.735782 
L 325.531402 330.280407 
L 326.122297 333.96347 
L 326.713192 331.917324 
L 327.304088 333.145011 
L 327.894983 330.280407 
L 328.485878 333.145011 
L 329.076774 330.485022 
L 329.667669 331.098866 
L 330.258564 330.280407 
L 330.84946 329.666564 
L 331.440355 330.075793 
L 332.03125 329.871178 
L 332.622146 330.689636 
L 333.213041 329.871178 
L 333.803936 330.485022 
L 334.394831 330.280407 
L 334.985727 331.508095 
L 335.576622 331.508095 
L 336.167517 348.491104 
L 336.758413 329.05272 
L 337.349308 331.30348 
L 337.940203 331.098866 
L 338.531099 331.917324 
L 339.121994 331.712709 
L 339.712889 330.689636 
L 340.303785 332.121938 
L 340.89468 331.30348 
L 341.485575 333.145011 
L 342.076471 332.121938 
L 342.667366 333.349626 
L 343.258261 332.940397 
L 343.849157 333.55424 
L 344.440052 331.508095 
L 345.030947 332.121938 
L 345.621843 331.508095 
L 346.212738 330.280407 
L 346.803633 330.689636 
L 347.394529 330.894251 
L 347.985424 333.96347 
L 348.576319 329.871178 
L 349.167215 333.145011 
L 349.75811 330.894251 
L 350.349005 331.712709 
L 350.939901 331.917324 
L 351.530796 331.098866 
L 352.121691 331.917324 
L 352.712587 333.349626 
L 353.303482 333.55424 
L 353.894377 332.531168 
L 354.485273 332.940397 
L 355.076168 332.121938 
L 355.667063 334.577313 
L 356.257958 332.735782 
L 356.848854 336.009615 
L 357.439749 332.940397 
L 358.030644 337.032688 
L 358.62154 334.372699 
L 359.212435 337.032688 
L 359.80333 335.191157 
L 360.394226 351.969552 
L 360.985121 334.168084 
L 361.576016 337.441917 
L 362.166912 334.986542 
L 362.757807 337.032688 
L 363.348702 334.781928 
L 363.939598 335.805001 
L 364.530493 335.805001 
L 365.121388 334.372699 
L 366.894074 333.758855 
L 367.48497 334.168084 
L 368.075865 333.96347 
L 368.66676 333.96347 
L 369.257656 335.395772 
L 369.848551 333.349626 
L 370.439446 335.805001 
L 371.030342 333.145011 
L 371.621237 335.600386 
L 372.212132 332.531168 
L 372.803028 334.372699 
L 373.393923 334.986542 
L 373.984818 332.735782 
L 374.575714 334.168084 
L 375.166609 332.326553 
L 375.757504 333.349626 
L 376.3484 332.531168 
L 376.939295 332.121938 
L 378.121085 335.191157 
L 378.711981 333.96347 
L 379.302876 333.55424 
L 379.893771 333.96347 
L 380.484667 333.349626 
L 381.075562 334.781928 
L 381.666457 334.168084 
L 382.257353 335.395772 
L 382.848248 335.191157 
L 383.439143 335.395772 
L 384.030039 333.96347 
L 384.620934 352.174167 
L 385.211829 332.121938 
L 385.802725 336.828074 
L 386.39362 334.372699 
L 386.984515 335.395772 
L 387.575411 334.577313 
L 388.166306 335.805001 
L 388.757201 334.168084 
L 389.348097 336.21423 
L 389.938992 334.168084 
L 391.120783 334.577313 
L 391.711678 333.55424 
L 392.302573 334.372699 
L 392.893469 333.96347 
L 394.075259 334.372699 
L 394.666155 335.191157 
L 395.25705 334.372699 
L 395.847945 335.395772 
L 396.438841 335.395772 
L 397.029736 336.418844 
L 397.620631 335.191157 
L 398.211527 335.395772 
L 398.802422 336.828074 
L 399.393317 335.395772 
L 399.984212 334.577313 
L 400.575108 334.986542 
L 401.166003 334.781928 
L 401.756898 335.191157 
L 402.347794 333.758855 
L 402.938689 334.577313 
L 403.529584 334.168084 
L 404.12048 334.781928 
L 404.711375 333.96347 
L 405.30227 335.395772 
L 405.893166 333.96347 
L 406.484061 336.623459 
L 407.074956 333.96347 
L 407.665852 337.237303 
L 408.256747 334.168084 
L 408.847642 351.969552 
L 409.438538 332.121938 
L 410.029433 333.349626 
L 410.620328 336.21423 
L 411.211224 334.168084 
L 411.802119 338.055761 
L 412.393014 335.191157 
L 412.98391 338.46499 
L 413.574805 335.805001 
L 414.1657 337.032688 
L 414.756596 335.805001 
L 415.347491 334.986542 
L 415.938386 336.009615 
L 416.529282 335.191157 
L 417.120177 335.805001 
L 417.711072 334.372699 
L 418.301968 333.758855 
L 418.892863 333.349626 
L 419.483758 335.191157 
L 420.074654 331.917324 
L 420.665549 334.372699 
L 421.256444 334.372699 
L 421.847339 330.689636 
L 422.438235 331.508095 
L 423.02913 331.508095 
L 423.620025 332.121938 
L 424.210921 331.917324 
L 425.392711 332.326553 
L 425.983607 333.55424 
L 426.574502 333.55424 
L 427.165397 334.168084 
L 427.756293 333.758855 
L 428.347188 335.600386 
L 428.938083 332.531168 
L 429.528979 332.940397 
L 430.119874 334.168084 
L 430.710769 332.940397 
L 431.301665 332.531168 
L 431.89256 331.508095 
L 432.483455 332.940397 
L 433.074351 352.174167 
L 433.665246 330.485022 
L 434.256141 334.168084 
L 434.847037 331.30348 
L 435.437932 333.96347 
L 436.028827 331.508095 
L 436.619723 332.326553 
L 437.210618 330.075793 
L 438.392409 331.712709 
L 438.983304 329.05272 
L 439.574199 329.871178 
L 440.165095 329.666564 
L 440.75599 329.871178 
L 441.346885 329.666564 
L 441.937781 330.280407 
L 442.528676 331.712709 
L 443.119571 330.894251 
L 443.710466 330.894251 
L 444.301362 332.531168 
L 444.892257 331.30348 
L 445.483152 339.078834 
L 446.074048 330.689636 
L 446.664943 335.600386 
L 447.255838 331.30348 
L 447.846734 331.917324 
L 448.437629 331.098866 
L 449.028524 330.894251 
L 449.61942 332.735782 
L 450.210315 331.098866 
L 450.80121 332.121938 
L 451.392106 331.712709 
L 451.983001 331.712709 
L 452.573896 332.531168 
L 453.164792 333.96347 
L 453.755687 333.145011 
L 454.346582 335.191157 
L 454.937478 332.940397 
L 455.528373 334.168084 
L 456.119268 337.032688 
L 456.710164 334.168084 
L 457.301059 351.969552 
L 457.891954 331.917324 
L 458.48285 333.96347 
L 459.66464 333.96347 
L 460.255536 333.758855 
L 460.846431 333.758855 
L 461.437326 335.600386 
L 462.028222 334.372699 
L 462.619117 337.646532 
L 463.210012 336.009615 
L 463.800908 337.032688 
L 464.391803 335.191157 
L 464.982698 336.418844 
L 465.573593 334.986542 
L 466.164489 335.191157 
L 467.346279 335.191157 
L 467.937175 334.986542 
L 467.937175 334.986542 
" style="fill:none;stroke:#1f77b4;stroke-linecap:square;stroke-width:1.5;"/>
   </g>
   <g id="line2d_17">
    <path clip-path="url(#p62e2a364f9)" d="M 153.593862 318.617377 
L 154.184757 222.653141 
L 154.775653 293.859013 
L 155.366548 311.046637 
L 155.957443 315.548158 
L 156.548339 316.775845 
L 157.139234 318.412762 
L 157.730129 319.435835 
L 158.321025 318.821991 
L 158.91192 321.89121 
L 160.09371 326.188116 
L 160.684606 323.732741 
L 161.275501 330.485022 
L 161.866396 331.098866 
L 162.457292 333.55424 
L 163.048187 335.191157 
L 164.229978 339.488063 
L 164.820873 338.46499 
L 165.411768 339.692678 
L 166.002664 340.511136 
L 166.593559 344.194198 
L 167.184454 344.808042 
L 167.77535 344.194198 
L 168.366245 342.352667 
L 168.95714 341.943438 
L 169.548036 342.148053 
L 170.138931 340.920365 
L 170.729826 340.920365 
L 171.320722 339.488063 
L 171.911617 341.12498 
L 172.502512 340.511136 
L 173.093408 340.715751 
L 173.684303 340.715751 
L 174.275198 339.488063 
L 174.866094 339.283449 
L 175.456989 338.874219 
L 176.047884 339.488063 
L 176.63878 338.055761 
L 177.229675 338.46499 
L 177.82057 337.646532 
L 178.411466 351.969552 
L 179.002361 338.669605 
L 179.593256 338.260376 
L 180.184152 338.260376 
L 180.775047 337.646532 
L 181.365942 338.260376 
L 181.956837 337.441917 
L 182.547733 338.260376 
L 183.138628 337.646532 
L 183.729523 339.283449 
L 184.320419 337.441917 
L 184.911314 339.692678 
L 185.502209 337.646532 
L 186.093105 338.874219 
L 186.684 338.260376 
L 187.274895 337.237303 
L 187.865791 338.874219 
L 188.456686 337.646532 
L 189.047581 337.441917 
L 189.638477 336.828074 
L 190.229372 338.46499 
L 191.411163 338.055761 
L 192.002058 338.669605 
L 192.592953 336.21423 
L 193.183849 336.623459 
L 193.774744 335.600386 
L 194.365639 336.828074 
L 194.956535 335.191157 
L 195.54743 334.781928 
L 196.138325 334.168084 
L 196.729221 334.168084 
L 197.320116 334.781928 
L 198.501907 335.191157 
L 199.092802 334.781928 
L 199.683697 336.828074 
L 200.274593 334.781928 
L 200.865488 336.828074 
L 201.456383 334.168084 
L 202.047279 334.986542 
L 202.638174 352.174167 
L 203.229069 333.758855 
L 203.819964 338.46499 
L 204.41086 335.191157 
L 205.001755 338.055761 
L 205.59265 334.986542 
L 206.183546 336.21423 
L 206.774441 334.986542 
L 207.365336 335.600386 
L 207.956232 336.828074 
L 208.547127 336.009615 
L 209.138022 337.237303 
L 209.728918 337.441917 
L 210.319813 337.441917 
L 210.910708 336.21423 
L 211.501604 338.055761 
L 212.092499 335.805001 
L 212.683394 338.874219 
L 213.27429 335.395772 
L 213.865185 336.418844 
L 214.45608 335.600386 
L 215.046976 338.669605 
L 215.637871 337.032688 
L 216.228766 338.874219 
L 216.819662 336.623459 
L 217.410557 338.874219 
L 218.001452 336.21423 
L 218.592348 337.237303 
L 219.183243 335.600386 
L 219.774138 335.600386 
L 220.955929 333.96347 
L 221.546824 333.96347 
L 222.13772 333.55424 
L 222.728615 333.349626 
L 223.31951 332.531168 
L 223.910406 333.55424 
L 225.092196 331.712709 
L 225.683092 331.098866 
L 226.273987 333.96347 
L 226.864882 351.969552 
L 227.455777 331.30348 
L 228.046673 334.168084 
L 228.637568 332.735782 
L 229.228463 333.96347 
L 229.819359 332.121938 
L 230.410254 331.098866 
L 231.001149 331.917324 
L 231.592045 331.712709 
L 232.18294 332.121938 
L 232.773835 332.940397 
L 233.364731 331.508095 
L 233.955626 331.712709 
L 234.546521 332.940397 
L 235.137417 331.508095 
L 235.728312 332.735782 
L 236.319207 331.508095 
L 236.910103 334.372699 
L 237.500998 331.30348 
L 238.091893 334.372699 
L 238.682789 330.485022 
L 239.273684 333.758855 
L 239.864579 331.098866 
L 241.04637 332.735782 
L 241.637265 331.508095 
L 242.228161 332.735782 
L 242.819056 331.30348 
L 243.409951 332.326553 
L 244.000847 332.121938 
L 244.591742 332.121938 
L 245.182637 330.485022 
L 245.773533 333.145011 
L 246.364428 331.712709 
L 246.955323 333.145011 
L 247.546219 329.461949 
L 248.137114 332.940397 
L 248.728009 329.257334 
L 249.318904 331.508095 
L 249.9098 329.871178 
L 250.500695 331.098866 
L 251.09159 351.969552 
L 251.682486 328.643491 
L 252.273381 330.689636 
L 253.455172 331.917324 
L 254.046067 331.917324 
L 254.636962 332.121938 
L 255.227858 333.96347 
L 255.818753 332.940397 
L 256.409648 334.986542 
L 257.000544 333.145011 
L 257.591439 336.418844 
L 258.182334 333.96347 
L 258.77323 336.21423 
L 259.364125 334.372699 
L 259.95502 336.418844 
L 260.545916 335.395772 
L 261.136811 335.805001 
L 261.727706 335.395772 
L 262.909497 335.395772 
L 263.500392 337.646532 
L 264.091288 333.55424 
L 264.682183 335.191157 
L 265.273078 334.168084 
L 265.863974 334.577313 
L 266.454869 334.781928 
L 267.045764 337.441917 
L 267.63666 335.191157 
L 268.227555 336.21423 
L 268.81845 336.009615 
L 269.409346 335.191157 
L 270.000241 335.805001 
L 270.591136 334.781928 
L 271.182031 336.009615 
L 271.772927 334.372699 
L 272.363822 334.372699 
L 272.954717 334.168084 
L 273.545613 334.577313 
L 274.136508 334.372699 
L 274.727403 335.600386 
L 275.318299 351.969552 
L 275.909194 335.191157 
L 276.500089 334.986542 
L 277.090985 336.623459 
L 277.68188 336.009615 
L 278.272775 334.781928 
L 278.863671 335.805001 
L 279.454566 334.372699 
L 280.045461 335.191157 
L 280.636357 333.96347 
L 281.227252 335.191157 
L 281.818147 333.758855 
L 282.409043 334.168084 
L 282.999938 334.372699 
L 283.590833 335.600386 
L 284.181729 334.372699 
L 284.772624 336.623459 
L 285.363519 334.372699 
L 285.954415 336.623459 
L 286.54531 334.168084 
L 287.136205 334.986542 
L 287.727101 338.055761 
L 288.317996 333.758855 
L 288.908891 334.986542 
L 289.499787 332.531168 
L 290.090682 332.940397 
L 290.681577 331.30348 
L 291.272473 331.30348 
L 291.863368 331.508095 
L 292.454263 330.894251 
L 293.045158 331.508095 
L 293.636054 332.531168 
L 294.226949 331.712709 
L 294.817844 331.508095 
L 295.40874 332.735782 
L 295.999635 332.735782 
L 296.59053 334.372699 
L 297.181426 332.940397 
L 297.772321 335.805001 
L 298.363216 335.395772 
L 298.954112 336.623459 
L 299.545007 352.174167 
L 300.135902 334.781928 
L 300.726798 334.168084 
L 301.317693 332.735782 
L 301.908588 332.326553 
L 302.499484 330.689636 
L 303.090379 331.30348 
L 303.681274 330.689636 
L 304.27217 330.894251 
L 304.863065 330.075793 
L 306.044856 330.485022 
L 306.635751 330.280407 
L 307.226646 330.280407 
L 307.817542 331.712709 
L 308.408437 331.508095 
L 308.999332 331.917324 
L 309.590228 329.871178 
L 310.181123 332.326553 
L 310.772018 332.531168 
L 311.362914 332.940397 
L 311.953809 338.669605 
L 312.544704 330.280407 
L 313.1356 332.735782 
L 313.726495 331.30348 
L 314.31739 333.145011 
L 314.908285 331.508095 
L 315.499181 333.96347 
L 316.090076 330.894251 
L 316.680971 333.96347 
L 317.271867 331.098866 
L 317.862762 333.349626 
L 318.453657 330.280407 
L 319.044553 332.326553 
L 319.635448 329.871178 
L 320.226343 331.30348 
L 320.817239 330.280407 
L 321.408134 330.689636 
L 322.589925 330.280407 
L 323.18082 330.485022 
L 323.771715 351.969552 
L 324.362611 329.257334 
L 324.953506 332.940397 
L 325.544401 330.485022 
L 326.135297 332.326553 
L 326.726192 330.075793 
L 327.317087 329.871178 
L 327.907983 330.689636 
L 328.498878 330.689636 
L 329.089773 330.485022 
L 330.271564 329.666564 
L 330.862459 330.280407 
L 331.453355 329.257334 
L 332.04425 329.257334 
L 332.635145 331.508095 
L 333.226041 329.461949 
L 333.816936 332.531168 
L 334.407831 328.848105 
L 334.998727 332.940397 
L 335.589622 329.05272 
L 336.180517 343.989584 
L 336.771412 330.689636 
L 337.362308 331.30348 
L 337.953203 333.349626 
L 338.544098 331.508095 
L 339.134994 335.191157 
L 339.725889 331.30348 
L 340.316784 332.735782 
L 340.90768 332.121938 
L 341.498575 332.326553 
L 342.08947 332.326553 
L 342.680366 331.098866 
L 343.271261 333.349626 
L 343.862156 331.30348 
L 344.453052 332.531168 
L 345.043947 332.531168 
L 345.634842 332.940397 
L 346.225738 332.326553 
L 346.816633 333.758855 
L 347.407528 332.326553 
L 347.998424 337.237303 
L 348.589319 331.917324 
L 349.180214 333.145011 
L 349.77111 331.098866 
L 350.362005 330.485022 
L 350.9529 329.257334 
L 351.543796 329.461949 
L 352.134691 328.643491 
L 352.725586 328.438876 
L 353.316482 329.871178 
L 353.907377 328.643491 
L 354.498272 329.257334 
L 355.089168 328.848105 
L 355.680063 331.098866 
L 356.270958 329.257334 
L 356.861854 332.121938 
L 357.452749 330.280407 
L 358.043644 333.96347 
L 358.634539 331.30348 
L 359.225435 334.372699 
L 359.81633 330.689636 
L 360.407225 351.969552 
L 360.998121 330.280407 
L 361.589016 330.075793 
L 362.179911 330.689636 
L 362.770807 331.098866 
L 363.361702 330.485022 
L 364.543493 330.485022 
L 365.134388 331.712709 
L 365.725283 330.280407 
L 366.316179 331.30348 
L 366.907074 330.280407 
L 367.497969 332.940397 
L 368.088865 330.075793 
L 368.67976 330.280407 
L 369.861551 329.871178 
L 370.452446 329.257334 
L 371.043341 331.098866 
L 371.634237 330.280407 
L 372.225132 332.531168 
L 372.816027 331.917324 
L 373.406923 330.280407 
L 373.997818 331.508095 
L 374.588713 329.871178 
L 375.179609 332.531168 
L 375.770504 330.075793 
L 376.361399 331.712709 
L 376.952295 330.075793 
L 377.54319 332.121938 
L 378.134085 329.461949 
L 378.724981 330.280407 
L 379.315876 329.257334 
L 379.906771 329.461949 
L 380.497666 328.234262 
L 381.088562 327.415803 
L 381.679457 328.234262 
L 382.270352 327.825032 
L 382.861248 328.848105 
L 383.452143 327.825032 
L 384.043038 328.848105 
L 384.633934 351.969552 
L 385.224829 324.960428 
L 385.815724 328.029647 
L 386.40662 328.438876 
L 386.997515 328.029647 
L 387.58841 328.234262 
L 388.179306 329.257334 
L 388.770201 328.029647 
L 389.361096 330.689636 
L 389.951992 328.848105 
L 390.542887 330.689636 
L 391.133782 328.234262 
L 391.724678 328.848105 
L 392.315573 328.643491 
L 392.906468 329.257334 
L 393.497364 326.597345 
L 394.088259 327.825032 
L 394.679154 326.80196 
L 395.27005 327.620418 
L 395.860945 327.006574 
L 396.45184 327.006574 
L 397.042736 328.234262 
L 397.633631 327.825032 
L 398.224526 327.006574 
L 398.815422 330.689636 
L 399.406317 328.234262 
L 399.997212 330.689636 
L 400.588108 329.461949 
L 401.179003 329.461949 
L 401.769898 328.643491 
L 402.360793 328.438876 
L 402.951689 328.848105 
L 403.542584 327.825032 
L 404.133479 329.461949 
L 404.724375 328.848105 
L 405.31527 330.485022 
L 405.906165 330.689636 
L 406.497061 330.280407 
L 407.087956 330.280407 
L 407.678851 330.075793 
L 408.269747 330.689636 
L 408.860642 351.969552 
L 409.451537 328.848105 
L 410.042433 330.485022 
L 410.633328 333.758855 
L 411.224223 331.917324 
L 411.815119 333.349626 
L 412.406014 331.712709 
L 412.996909 334.168084 
L 413.587805 332.940397 
L 414.1787 333.96347 
L 414.769595 331.712709 
L 415.360491 334.781928 
L 415.951386 332.121938 
L 416.542281 333.96347 
L 417.133177 332.326553 
L 417.724072 333.758855 
L 418.314967 331.30348 
L 418.905863 331.917324 
L 419.496758 333.145011 
L 420.087653 333.55424 
L 420.678549 332.940397 
L 421.269444 338.874219 
L 421.860339 332.940397 
L 422.451235 333.55424 
L 423.04213 331.917324 
L 423.633025 331.712709 
L 424.22392 331.098866 
L 424.814816 330.075793 
L 425.405711 330.075793 
L 425.996606 329.05272 
L 426.587502 329.257334 
L 427.178397 327.825032 
L 427.769292 328.029647 
L 428.360188 328.643491 
L 428.951083 328.234262 
L 429.541978 328.643491 
L 430.132874 330.280407 
L 430.723769 330.485022 
L 431.314664 330.485022 
L 431.90556 329.461949 
L 432.496455 331.712709 
L 433.08735 351.969552 
L 433.678246 326.188116 
L 434.269141 330.689636 
L 434.860036 327.825032 
L 435.450932 329.666564 
L 436.041827 328.643491 
L 436.632722 328.848105 
L 437.223618 329.257334 
L 437.814513 328.643491 
L 438.405408 329.257334 
L 438.996304 328.643491 
L 439.587199 330.075793 
L 440.178094 329.666564 
L 440.76899 330.485022 
L 441.359885 330.075793 
L 441.95078 330.485022 
L 442.541676 329.871178 
L 443.132571 331.30348 
L 443.723466 329.666564 
L 444.314362 333.145011 
L 444.905257 330.894251 
L 445.496152 334.577313 
L 446.087047 330.280407 
L 446.677943 331.917324 
L 447.268838 331.098866 
L 447.859733 333.55424 
L 448.450629 331.508095 
L 449.041524 334.372699 
L 449.632419 331.917324 
L 450.223315 331.917324 
L 450.81421 331.508095 
L 451.996001 331.098866 
L 452.586896 331.30348 
L 453.177791 331.30348 
L 454.359582 331.712709 
L 454.950477 333.55424 
L 455.541373 331.30348 
L 456.132268 333.349626 
L 456.723163 330.894251 
L 457.314059 351.969552 
L 457.904954 330.075793 
L 458.495849 331.712709 
L 459.086745 330.689636 
L 459.67764 331.098866 
L 460.268535 330.689636 
L 460.859431 331.30348 
L 461.450326 330.689636 
L 462.041221 332.531168 
L 462.632117 331.30348 
L 463.223012 331.508095 
L 463.813907 331.098866 
L 464.404803 330.485022 
L 465.586593 330.894251 
L 466.177489 330.075793 
L 466.768384 331.712709 
L 467.359279 328.848105 
L 467.950174 332.326553 
L 468.54107 330.075793 
L 469.131965 332.121938 
L 469.72286 330.485022 
L 470.313756 327.620418 
L 470.904651 329.05272 
L 471.495546 327.620418 
L 472.086442 329.257334 
L 472.086442 329.257334 
" style="fill:none;stroke:#ff7f0e;stroke-linecap:square;stroke-width:1.5;"/>
   </g>
   <g id="line2d_18">
    <path clip-path="url(#p62e2a364f9)" d="M 151.220826 206.48859 
L 151.811722 142.239614 
L 152.402617 284.242128 
L 152.993512 283.832899 
L 153.584408 201.373226 
L 154.175303 50.163056 
L 154.766198 304.9082 
L 155.357094 304.9082 
L 155.947989 305.931273 
L 156.538884 306.545117 
L 157.12978 308.386648 
L 157.720675 308.795877 
L 158.31157 301.634367 
L 158.902466 305.112815 
L 159.493361 305.112815 
L 160.084256 309.409721 
L 160.675151 295.49593 
L 161.266047 298.155919 
L 161.856942 310.432794 
L 162.447837 309.81895 
L 163.038733 309.81895 
L 163.629628 311.046637 
L 164.220523 315.548158 
L 164.811419 318.617377 
L 165.402314 322.300439 
L 165.993209 322.505053 
L 166.584105 334.986542 
L 167.175 336.009615 
L 167.765895 336.418844 
L 168.356791 338.669605 
L 168.947686 337.237303 
L 169.538581 340.306521 
L 170.129477 339.078834 
L 170.720372 338.669605 
L 171.311267 337.851146 
L 171.902163 338.055761 
L 172.493058 339.078834 
L 173.083953 339.078834 
L 173.674849 337.646532 
L 174.265744 337.441917 
L 174.856639 338.46499 
L 175.447535 336.623459 
L 176.03843 339.283449 
L 176.629325 336.828074 
L 177.220221 339.692678 
L 177.811116 336.828074 
L 178.402011 351.969552 
L 178.992907 335.191157 
L 179.583802 337.646532 
L 180.174697 335.805001 
L 180.765593 336.009615 
L 181.356488 336.623459 
L 181.947383 335.191157 
L 182.538278 336.21423 
L 183.129174 335.395772 
L 183.720069 334.986542 
L 184.310964 335.191157 
L 184.90186 334.168084 
L 185.492755 333.758855 
L 186.08365 334.372699 
L 186.674546 333.758855 
L 187.265441 335.395772 
L 187.856336 334.986542 
L 188.447232 335.395772 
L 189.038127 332.531168 
L 189.629022 333.349626 
L 190.219918 332.735782 
L 190.810813 332.326553 
L 191.401708 329.666564 
L 191.992604 331.917324 
L 192.583499 329.257334 
L 193.174394 330.689636 
L 193.76529 330.689636 
L 194.356185 328.643491 
L 194.94708 328.848105 
L 196.128871 328.438876 
L 196.719766 329.257334 
L 197.310662 329.461949 
L 197.901557 328.234262 
L 198.492452 328.848105 
L 199.083348 327.620418 
L 199.674243 330.485022 
L 200.265138 327.620418 
L 200.856034 329.257334 
L 201.446929 328.643491 
L 202.037824 331.917324 
L 202.62872 351.969552 
L 203.219615 327.211189 
L 203.81051 330.689636 
L 204.401405 329.257334 
L 204.992301 332.121938 
L 205.583196 332.326553 
L 206.174091 333.349626 
L 206.764987 330.894251 
L 207.355882 332.326553 
L 207.946777 331.917324 
L 208.537673 330.689636 
L 209.128568 332.531168 
L 209.719463 331.30348 
L 210.310359 331.508095 
L 210.901254 331.098866 
L 211.492149 331.30348 
L 212.083045 331.917324 
L 212.67394 332.940397 
L 213.264835 331.098866 
L 213.855731 334.372699 
L 214.446626 333.145011 
L 215.037521 335.395772 
L 215.628417 333.96347 
L 216.219312 334.168084 
L 216.810207 334.168084 
L 217.401103 336.21423 
L 217.991998 333.758855 
L 218.582893 336.418844 
L 219.173789 333.758855 
L 219.764684 335.395772 
L 220.355579 333.758855 
L 220.946475 334.781928 
L 221.53737 334.781928 
L 222.128265 334.372699 
L 222.719161 335.191157 
L 223.310056 334.168084 
L 223.900951 335.600386 
L 224.491847 334.781928 
L 225.082742 335.600386 
L 225.673637 335.395772 
L 226.264532 336.828074 
L 226.855428 352.174167 
L 227.446323 334.986542 
L 228.037218 336.009615 
L 228.628114 336.21423 
L 229.219009 334.781928 
L 229.809904 335.805001 
L 230.4008 334.986542 
L 231.58259 334.168084 
L 232.173486 335.600386 
L 232.764381 334.372699 
L 233.355276 335.805001 
L 233.946172 334.372699 
L 234.537067 337.237303 
L 235.127962 334.577313 
L 235.718858 338.055761 
L 236.309753 335.191157 
L 236.900648 337.032688 
L 237.491544 335.191157 
L 238.673334 336.009615 
L 239.26423 339.897292 
L 239.855125 336.21423 
L 240.44602 337.032688 
L 241.036916 336.623459 
L 241.627811 335.600386 
L 242.218706 336.623459 
L 242.809602 336.828074 
L 243.400497 337.441917 
L 243.991392 335.191157 
L 244.582288 337.032688 
L 245.173183 334.372699 
L 245.764078 336.418844 
L 246.354974 334.168084 
L 246.945869 335.600386 
L 247.536764 333.55424 
L 248.12766 334.372699 
L 248.718555 333.145011 
L 249.30945 332.735782 
L 250.491241 330.075793 
L 251.082136 351.969552 
L 251.673031 332.735782 
L 252.854822 330.689636 
L 253.445717 330.075793 
L 254.036613 329.05272 
L 254.627508 329.05272 
L 255.218403 327.006574 
L 255.809299 325.983501 
L 256.991089 325.574272 
L 257.581985 323.937355 
L 258.17288 323.528126 
L 258.763775 322.300439 
L 259.354671 321.89121 
L 259.945566 320.663522 
L 260.536461 322.095824 
L 261.127357 321.481981 
L 261.718252 326.597345 
L 262.309147 322.709668 
L 262.900043 324.755814 
L 263.490938 330.485022 
L 264.081833 325.778887 
L 264.672729 327.825032 
L 265.263624 324.960428 
L 265.854519 325.165043 
L 266.445415 323.323512 
L 267.03631 322.914283 
L 267.627205 324.346585 
L 268.218101 321.89121 
L 268.808996 324.755814 
L 269.399891 321.277366 
L 269.990787 324.14197 
L 270.581682 321.89121 
L 271.172577 327.006574 
L 271.763472 323.118897 
L 272.354368 328.234262 
L 272.945263 327.211189 
L 273.536158 331.098866 
L 274.127054 328.438876 
L 274.717949 330.894251 
L 275.308844 351.969552 
L 275.89974 325.983501 
L 276.490635 328.438876 
L 277.08153 327.415803 
L 277.672426 328.848105 
L 278.263321 328.643491 
L 278.854216 329.666564 
L 279.445112 329.257334 
L 280.036007 330.894251 
L 280.626902 330.075793 
L 281.217798 332.326553 
L 281.808693 330.485022 
L 282.399588 335.600386 
L 282.990484 330.689636 
L 283.581379 332.940397 
L 284.172274 330.894251 
L 284.76317 331.712709 
L 285.354065 331.917324 
L 285.94496 331.30348 
L 286.535856 331.917324 
L 287.126751 330.689636 
L 287.717646 330.894251 
L 288.308542 329.05272 
L 288.899437 329.05272 
L 289.490332 330.894251 
L 290.081228 329.461949 
L 290.672123 331.712709 
L 291.263018 329.871178 
L 291.853914 330.689636 
L 292.444809 330.075793 
L 293.035704 331.098866 
L 293.626599 331.098866 
L 294.217495 331.712709 
L 294.80839 331.712709 
L 295.399285 334.372699 
L 295.990181 333.96347 
L 296.581076 334.781928 
L 297.171971 331.917324 
L 297.762867 335.191157 
L 298.353762 332.326553 
L 298.944657 333.349626 
L 299.535553 351.969552 
L 300.126448 332.940397 
L 300.717343 335.191157 
L 301.308239 334.577313 
L 301.899134 336.828074 
L 302.490029 334.577313 
L 303.080925 336.828074 
L 303.67182 334.986542 
L 304.262715 337.441917 
L 304.853611 335.805001 
L 305.444506 336.418844 
L 306.626297 334.372699 
L 307.217192 334.577313 
L 307.808087 334.168084 
L 308.398983 333.96347 
L 308.989878 333.55424 
L 309.580773 332.940397 
L 311.353459 329.257334 
L 311.944355 337.441917 
L 312.53525 325.778887 
L 313.126145 331.712709 
L 313.717041 329.257334 
L 314.307936 330.280407 
L 314.898831 329.461949 
L 315.489726 330.485022 
L 316.080622 329.871178 
L 316.671517 330.894251 
L 317.262412 330.485022 
L 317.853308 331.30348 
L 318.444203 331.098866 
L 319.035098 331.712709 
L 319.625994 331.098866 
L 320.216889 331.712709 
L 320.807784 331.712709 
L 321.39868 331.917324 
L 321.989575 332.531168 
L 322.58047 332.735782 
L 323.171366 332.735782 
L 323.762261 351.969552 
L 324.353156 331.098866 
L 324.944052 332.121938 
L 325.534947 331.712709 
L 326.125842 332.121938 
L 326.716738 331.712709 
L 327.307633 332.326553 
L 327.898528 332.531168 
L 329.080319 332.531168 
L 329.671214 333.55424 
L 330.26211 332.326553 
L 330.853005 334.781928 
L 331.4439 333.55424 
L 332.034796 337.032688 
L 332.625691 332.326553 
L 333.216586 334.168084 
L 333.807482 332.121938 
L 334.398377 332.326553 
L 334.989272 331.508095 
L 335.580168 330.894251 
L 336.171063 348.081875 
L 336.761958 332.531168 
L 337.352853 332.940397 
L 337.943749 332.735782 
L 338.534644 333.55424 
L 339.125539 333.145011 
L 339.716435 332.531168 
L 340.30733 332.121938 
L 340.898225 333.145011 
L 341.489121 332.121938 
L 342.080016 333.758855 
L 342.670911 332.531168 
L 343.261807 333.96347 
L 343.852702 332.531168 
L 344.443597 333.96347 
L 345.034493 332.121938 
L 345.625388 334.168084 
L 346.216283 331.098866 
L 346.807179 333.55424 
L 347.398074 330.689636 
L 347.988969 332.531168 
L 348.579865 330.075793 
L 349.17076 330.894251 
L 349.761655 331.30348 
L 350.352551 332.735782 
L 350.943446 331.508095 
L 351.534341 332.326553 
L 352.125237 332.121938 
L 352.716132 333.758855 
L 353.307027 332.326553 
L 353.897923 333.349626 
L 354.488818 331.712709 
L 355.079713 331.508095 
L 355.670609 331.712709 
L 356.261504 330.485022 
L 356.852399 331.712709 
L 357.443295 331.30348 
L 358.625085 331.712709 
L 359.21598 331.508095 
L 359.806876 330.689636 
L 360.397771 351.969552 
L 360.988666 329.05272 
L 361.579562 329.871178 
L 362.170457 331.098866 
L 362.761352 327.620418 
L 363.352248 329.05272 
L 363.943143 327.825032 
L 364.534038 328.643491 
L 365.124934 330.689636 
L 365.715829 327.825032 
L 366.89762 331.30348 
L 367.488515 329.461949 
L 368.07941 330.075793 
L 368.670306 331.917324 
L 369.261201 329.461949 
L 369.852096 332.735782 
L 370.442992 330.075793 
L 371.033887 333.349626 
L 371.624782 330.075793 
L 372.215678 332.121938 
L 372.806573 333.758855 
L 373.397468 331.712709 
L 373.988364 333.349626 
L 374.579259 331.30348 
L 375.170154 333.96347 
L 375.76105 330.485022 
L 376.351945 332.940397 
L 376.94284 330.075793 
L 377.533736 329.461949 
L 378.124631 330.894251 
L 378.715526 329.05272 
L 379.306422 331.098866 
L 379.897317 330.894251 
L 380.488212 330.075793 
L 381.079107 329.666564 
L 381.670003 330.894251 
L 382.260898 329.871178 
L 382.851793 330.894251 
L 383.442689 330.075793 
L 384.033584 331.30348 
L 384.624479 351.969552 
L 385.215375 329.461949 
L 385.80627 332.735782 
L 386.397165 330.894251 
L 386.988061 331.917324 
L 387.578956 331.098866 
L 388.169851 329.871178 
L 388.760747 330.280407 
L 389.351642 329.666564 
L 389.942537 331.712709 
L 390.533433 329.871178 
L 391.124328 332.735782 
L 391.715223 331.712709 
L 392.897014 332.940397 
L 393.487909 333.96347 
L 394.078805 333.145011 
L 394.6697 336.21423 
L 395.260595 333.55424 
L 395.851491 337.441917 
L 396.442386 333.55424 
L 397.033281 334.781928 
L 397.624177 333.55424 
L 398.215072 333.96347 
L 398.805967 333.55424 
L 399.396863 334.372699 
L 399.987758 333.55424 
L 400.578653 334.168084 
L 401.169549 333.758855 
L 401.760444 335.395772 
L 402.351339 335.395772 
L 402.942234 336.828074 
L 403.53313 334.577313 
L 404.124025 337.646532 
L 404.71492 334.577313 
L 405.305816 337.646532 
L 405.896711 334.781928 
L 406.487606 337.032688 
L 407.078502 334.986542 
L 407.669397 335.600386 
L 408.260292 334.781928 
L 408.851188 351.969552 
L 409.442083 334.781928 
L 410.623874 337.032688 
L 411.214769 336.418844 
L 411.805664 336.009615 
L 412.987455 336.828074 
L 413.57835 336.623459 
L 414.169246 337.237303 
L 414.760141 335.395772 
L 415.351036 337.237303 
L 416.532827 336.418844 
L 417.123722 336.828074 
L 417.714618 336.418844 
L 418.305513 337.237303 
L 418.896408 337.032688 
L 419.487304 337.851146 
L 420.078199 336.828074 
L 420.669094 337.646532 
L 421.25999 338.260376 
L 421.850885 336.828074 
L 423.032676 335.191157 
L 423.623571 335.395772 
L 424.214466 334.781928 
L 424.805361 334.781928 
L 425.396257 334.168084 
L 425.987152 334.577313 
L 426.578047 334.781928 
L 427.168943 336.418844 
L 427.759838 334.781928 
L 428.350733 336.623459 
L 428.941629 334.168084 
L 429.532524 335.805001 
L 430.123419 334.577313 
L 430.714315 334.986542 
L 431.30521 334.372699 
L 431.896105 332.940397 
L 432.487001 335.191157 
L 433.077896 351.969552 
L 433.668791 334.577313 
L 434.259687 334.986542 
L 434.850582 335.600386 
L 435.441477 334.781928 
L 436.032373 334.577313 
L 436.623268 334.781928 
L 437.214163 334.372699 
L 437.805059 334.781928 
L 438.395954 334.577313 
L 438.986849 335.600386 
L 439.577745 335.191157 
L 440.16864 336.623459 
L 440.759535 334.986542 
L 441.350431 337.646532 
L 441.941326 335.395772 
L 442.532221 336.009615 
L 443.123117 335.395772 
L 443.714012 335.191157 
L 444.304907 335.191157 
L 444.895803 334.986542 
L 445.486698 336.21423 
L 446.077593 332.326553 
L 446.668488 333.55424 
L 447.850279 334.372699 
L 448.441174 334.168084 
L 449.03207 333.758855 
L 449.622965 336.21423 
L 450.21386 334.168084 
L 450.804756 337.237303 
L 451.395651 334.781928 
L 451.986546 337.851146 
L 452.577442 335.191157 
L 453.168337 336.21423 
L 453.759232 335.600386 
L 454.350128 334.781928 
L 454.941023 335.395772 
L 455.531918 334.372699 
L 456.122814 335.395772 
L 456.713709 334.168084 
L 457.304604 351.969552 
L 457.8955 336.418844 
L 458.486395 335.600386 
L 459.07729 334.577313 
L 459.668186 334.781928 
L 460.259081 334.168084 
L 460.849976 334.168084 
L 461.440872 333.758855 
L 462.031767 334.372699 
L 462.622662 334.168084 
L 463.213558 335.191157 
L 463.804453 334.168084 
L 464.395348 335.805001 
L 464.986244 333.96347 
L 465.577139 335.191157 
L 466.168034 335.191157 
L 466.75893 336.21423 
L 467.349825 333.96347 
L 467.94072 334.781928 
L 468.531615 333.96347 
L 469.122511 333.55424 
L 469.713406 335.191157 
L 469.713406 335.191157 
" style="fill:none;stroke:#2ca02c;stroke-linecap:square;stroke-width:1.5;"/>
   </g>
   <g id="line2d_19">
    <path clip-path="url(#p62e2a364f9)" d="M 146.509027 301.634367 
L 147.099922 290.994409 
L 147.690818 288.129805 
L 148.281713 293.040555 
L 148.872608 169.657967 
L 149.463504 303.066669 
L 150.054399 311.660481 
L 150.645294 318.412762 
L 151.23619 281.17291 
L 151.827085 285.060586 
L 153.008876 338.874219 
L 154.190666 324.551199 
L 154.781562 345.217271 
L 155.372457 346.240344 
L 155.963352 346.240344 
L 156.554248 346.035729 
L 157.145143 347.468031 
L 157.736038 345.831115 
L 158.326933 345.012657 
L 158.917829 342.557282 
L 159.508724 341.329594 
L 160.099619 338.260376 
L 160.690515 325.778887 
L 161.28141 325.778887 
L 161.872305 325.574272 
L 162.463201 322.300439 
L 163.644991 318.003533 
L 164.235887 313.706627 
L 164.826782 312.274325 
L 165.417677 311.251252 
L 166.008573 306.749731 
L 166.599468 306.749731 
L 167.190363 317.389689 
L 167.781259 316.98046 
L 168.372154 317.185075 
L 168.963049 319.435835 
L 169.553945 319.640449 
L 170.14484 321.277366 
L 170.735735 318.617377 
L 171.326631 320.254293 
L 171.917526 318.617377 
L 172.508421 317.798918 
L 173.099317 318.208147 
L 173.690212 318.003533 
L 174.281107 322.914283 
L 174.872003 318.412762 
L 175.462898 320.868137 
L 176.053793 319.23122 
L 176.644689 319.435835 
L 177.235584 320.663522 
L 177.826479 321.277366 
L 178.417375 343.171125 
L 179.00827 311.455866 
L 179.599165 321.277366 
L 180.19006 316.98046 
L 180.780956 319.026606 
L 181.371851 318.617377 
L 181.962746 318.412762 
L 182.553642 318.821991 
L 183.144537 319.026606 
L 183.735432 318.003533 
L 184.326328 318.617377 
L 184.917223 318.003533 
L 186.099014 319.845064 
L 186.689909 320.254293 
L 187.280804 320.868137 
L 187.8717 324.14197 
L 188.462595 322.095824 
L 189.05349 323.118897 
L 189.644386 322.709668 
L 190.235281 329.461949 
L 190.826176 321.89121 
L 191.417072 327.415803 
L 192.007967 324.14197 
L 192.598862 325.165043 
L 193.189758 325.369657 
L 193.780653 324.960428 
L 194.371548 326.39273 
L 194.962444 325.369657 
L 195.553339 326.597345 
L 196.144234 325.983501 
L 197.326025 326.80196 
L 197.91692 326.597345 
L 198.507816 327.415803 
L 199.098711 327.415803 
L 199.689606 326.597345 
L 200.280502 328.848105 
L 200.871397 325.983501 
L 201.462292 329.461949 
L 202.053187 327.211189 
L 202.644083 351.969552 
L 203.234978 321.277366 
L 203.825873 325.778887 
L 204.416769 324.755814 
L 205.007664 325.369657 
L 205.598559 324.960428 
L 206.189455 328.029647 
L 206.78035 325.165043 
L 207.371245 328.029647 
L 207.962141 326.39273 
L 208.553036 330.280407 
L 209.143931 328.234262 
L 209.734827 328.234262 
L 210.325722 326.80196 
L 210.916617 326.597345 
L 211.507513 328.029647 
L 212.098408 325.369657 
L 212.689303 326.39273 
L 213.280199 325.778887 
L 213.871094 326.188116 
L 214.461989 325.983501 
L 215.052885 329.257334 
L 215.64378 326.597345 
L 216.234675 329.257334 
L 216.825571 328.029647 
L 217.416466 331.30348 
L 218.007361 330.075793 
L 218.598257 331.508095 
L 219.189152 329.257334 
L 219.780047 334.577313 
L 220.370943 328.848105 
L 220.961838 330.689636 
L 221.552733 331.098866 
L 222.143629 329.666564 
L 222.734524 329.666564 
L 223.325419 329.05272 
L 223.916314 330.689636 
L 224.50721 329.871178 
L 225.098105 330.894251 
L 225.689 330.689636 
L 226.279896 331.30348 
L 226.870791 351.969552 
L 227.461686 330.075793 
L 228.052582 334.372699 
L 228.643477 332.326553 
L 229.234372 334.577313 
L 229.825268 332.531168 
L 230.416163 334.986542 
L 231.007058 333.145011 
L 231.597954 333.145011 
L 232.188849 332.735782 
L 232.779744 332.121938 
L 233.37064 331.917324 
L 233.961535 331.508095 
L 234.55243 331.917324 
L 235.143326 331.508095 
L 235.734221 331.508095 
L 236.916012 331.098866 
L 237.506907 331.098866 
L 238.097802 330.894251 
L 238.688698 331.712709 
L 239.279593 337.032688 
L 239.870488 330.894251 
L 240.461384 334.372699 
L 241.052279 332.531168 
L 241.643174 333.758855 
L 242.23407 333.758855 
L 242.824965 333.349626 
L 243.41586 334.781928 
L 244.006756 332.735782 
L 244.597651 332.735782 
L 245.188546 333.96347 
L 246.370337 334.781928 
L 246.961232 334.372699 
L 247.552127 334.986542 
L 248.143023 335.805001 
L 248.733918 336.009615 
L 249.324813 337.646532 
L 249.915709 335.395772 
L 250.506604 338.669605 
L 251.097499 351.969552 
L 251.688395 333.145011 
L 252.27929 335.191157 
L 254.051976 334.577313 
L 254.642871 334.781928 
L 255.233767 335.805001 
L 255.824662 335.395772 
L 256.415557 336.21423 
L 257.006453 335.600386 
L 257.597348 336.21423 
L 258.188243 335.600386 
L 258.779139 336.828074 
L 259.370034 335.805001 
L 259.960929 337.441917 
L 260.551825 336.828074 
L 261.14272 338.669605 
L 261.733615 336.623459 
L 262.324511 337.032688 
L 263.506301 335.805001 
L 264.097197 332.326553 
L 264.688092 333.96347 
L 265.278987 332.121938 
L 265.869883 334.372699 
L 266.460778 332.531168 
L 267.051673 335.395772 
L 267.642568 332.735782 
L 268.233464 335.191157 
L 268.824359 333.55424 
L 270.00615 333.96347 
L 270.597045 332.940397 
L 271.18794 333.758855 
L 271.778836 332.121938 
L 272.369731 333.145011 
L 272.960626 332.531168 
L 273.551522 333.758855 
L 274.142417 333.145011 
L 274.733312 332.735782 
L 275.324208 351.969552 
L 275.915103 324.960428 
L 276.505998 327.211189 
L 277.096894 327.006574 
L 277.687789 326.597345 
L 278.278684 326.80196 
L 278.86958 328.848105 
L 279.460475 326.597345 
L 280.05137 327.415803 
L 280.642266 326.597345 
L 281.233161 325.574272 
L 281.824056 327.620418 
L 282.414952 325.165043 
L 283.005847 328.438876 
L 283.596742 323.937355 
L 284.187638 328.234262 
L 284.778533 326.39273 
L 285.369428 328.234262 
L 285.960324 322.709668 
L 286.551219 325.983501 
L 287.142114 322.914283 
L 287.73301 332.326553 
L 288.323905 326.597345 
L 288.9148 329.666564 
L 289.505695 327.825032 
L 290.096591 327.006574 
L 290.687486 326.80196 
L 291.278381 326.80196 
L 291.869277 327.211189 
L 292.460172 325.778887 
L 293.051067 327.415803 
L 293.641963 325.983501 
L 294.232858 326.80196 
L 294.823753 326.188116 
L 295.414649 328.643491 
L 296.005544 326.597345 
L 296.596439 327.006574 
L 297.187335 327.825032 
L 297.77823 328.029647 
L 298.369125 328.848105 
L 298.960021 328.438876 
L 299.550916 351.969552 
L 300.141811 326.80196 
L 300.732707 330.280407 
L 301.323602 328.234262 
L 301.914497 331.917324 
L 302.505393 329.257334 
L 303.096288 331.917324 
L 303.687183 328.848105 
L 304.278079 332.735782 
L 304.868974 330.075793 
L 305.459869 335.395772 
L 306.050765 330.894251 
L 306.64166 334.986542 
L 307.232555 330.894251 
L 307.823451 334.577313 
L 308.414346 331.098866 
L 309.005241 332.940397 
L 309.596137 331.508095 
L 310.187032 333.145011 
L 310.777927 334.168084 
L 311.368822 331.917324 
L 311.959718 339.897292 
L 312.550613 332.121938 
L 313.141508 332.121938 
L 313.732404 334.168084 
L 314.323299 332.121938 
L 314.914194 332.326553 
L 315.50509 331.917324 
L 316.095985 331.30348 
L 316.68688 331.508095 
L 317.277776 331.098866 
L 317.868671 331.712709 
L 318.459566 331.712709 
L 319.050462 332.326553 
L 319.641357 332.326553 
L 320.232252 333.758855 
L 320.823148 332.735782 
L 321.414043 334.986542 
L 322.004938 331.917324 
L 322.595834 335.600386 
L 323.186729 332.940397 
L 323.777624 351.560323 
L 324.36852 330.280407 
L 324.959415 332.121938 
L 325.55031 332.940397 
L 326.141206 330.894251 
L 326.732101 334.781928 
L 327.322996 331.098866 
L 327.913892 331.712709 
L 328.504787 331.098866 
L 329.095682 331.508095 
L 329.686578 331.508095 
L 330.277473 330.280407 
L 330.868368 331.917324 
L 331.459264 330.894251 
L 332.050159 331.712709 
L 332.641054 331.712709 
L 333.231949 331.917324 
L 333.822845 333.145011 
L 334.41374 332.531168 
L 335.004635 331.508095 
L 335.595531 334.168084 
L 336.186426 339.692678 
L 336.777321 330.280407 
L 337.368217 332.531168 
L 337.959112 332.531168 
L 338.550007 332.326553 
L 339.140903 330.075793 
L 339.731798 330.485022 
L 340.322693 329.05272 
L 340.913589 329.871178 
L 341.504484 328.643491 
L 342.095379 329.871178 
L 342.686275 329.05272 
L 343.27717 330.485022 
L 343.868065 329.461949 
L 344.458961 329.871178 
L 345.049856 332.531168 
L 345.640751 333.349626 
L 346.231647 330.894251 
L 346.822542 334.372699 
L 347.413437 331.098866 
L 348.004333 341.329594 
L 348.595228 329.461949 
L 349.186123 331.30348 
L 349.777019 330.689636 
L 350.367914 333.349626 
L 350.958809 331.712709 
L 351.549705 333.55424 
L 352.1406 331.712709 
L 352.731495 333.758855 
L 353.322391 333.96347 
L 353.913286 333.349626 
L 354.504181 334.372699 
L 355.095076 332.940397 
L 355.685972 333.758855 
L 356.276867 332.326553 
L 357.458658 331.508095 
L 358.049553 333.145011 
L 358.640448 331.508095 
L 359.231344 332.121938 
L 359.822239 332.940397 
L 360.413134 352.174167 
L 361.00403 330.485022 
L 361.594925 331.098866 
L 362.18582 331.098866 
L 362.776716 330.894251 
L 363.367611 331.508095 
L 363.958506 331.098866 
L 364.549402 331.508095 
L 365.140297 331.30348 
L 365.731192 331.508095 
L 366.322088 331.098866 
L 366.912983 332.531168 
L 367.503878 333.145011 
L 368.094774 334.372699 
L 368.685669 331.917324 
L 369.276564 333.758855 
L 369.86746 331.098866 
L 370.458355 331.508095 
L 371.640146 331.508095 
L 372.231041 331.712709 
L 372.821936 332.735782 
L 373.412832 333.145011 
L 374.003727 331.508095 
L 374.594622 331.30348 
L 375.185518 331.917324 
L 375.776413 331.508095 
L 376.367308 332.121938 
L 376.958203 331.712709 
L 378.139994 332.531168 
L 378.730889 332.121938 
L 379.321785 332.531168 
L 379.91268 333.145011 
L 380.503575 332.531168 
L 381.094471 332.940397 
L 381.685366 334.168084 
L 382.276261 334.577313 
L 382.867157 334.577313 
L 384.048947 336.623459 
L 384.639843 351.969552 
L 385.230738 332.326553 
L 385.821633 335.805001 
L 386.412529 333.96347 
L 387.003424 334.168084 
L 387.594319 334.168084 
L 388.185215 333.55424 
L 388.77611 333.145011 
L 389.367005 333.145011 
L 389.957901 333.55424 
L 390.548796 331.508095 
L 391.139691 331.712709 
L 391.730587 330.075793 
L 392.321482 331.917324 
L 392.912377 329.871178 
L 393.503273 333.145011 
L 394.094168 328.234262 
L 394.685063 331.917324 
L 395.275959 327.006574 
L 395.866854 331.508095 
L 396.457749 327.415803 
L 397.048645 330.894251 
L 397.63954 329.05272 
L 398.230435 329.257334 
L 398.82133 329.05272 
L 399.412226 329.257334 
L 400.594016 328.438876 
L 401.184912 328.643491 
L 401.775807 328.643491 
L 402.366702 329.257334 
L 402.957598 328.848105 
L 403.548493 327.825032 
L 404.139388 329.257334 
L 404.730284 327.211189 
L 405.321179 326.188116 
L 405.912074 329.257334 
L 406.50297 325.369657 
L 407.093865 328.029647 
L 407.68476 324.551199 
L 408.275656 328.438876 
L 408.866551 351.969552 
L 409.457446 322.709668 
L 410.048342 325.369657 
L 410.639237 326.80196 
L 411.230132 323.528126 
L 411.821028 324.960428 
L 412.411923 323.323512 
L 413.002818 324.755814 
L 413.593714 324.14197 
L 414.184609 322.095824 
L 414.775504 322.095824 
L 415.3664 322.505053 
L 415.957295 322.709668 
L 416.54819 323.323512 
L 417.139086 321.481981 
L 417.729981 323.937355 
L 418.320876 321.481981 
L 418.911772 325.778887 
L 419.502667 323.118897 
L 420.093562 325.165043 
L 420.684457 322.095824 
L 421.275353 327.620418 
L 421.866248 325.165043 
L 422.457143 327.006574 
L 423.048039 326.188116 
L 423.638934 329.05272 
L 424.229829 327.211189 
L 424.820725 330.485022 
L 425.41162 327.006574 
L 426.002515 332.531168 
L 426.593411 327.620418 
L 427.184306 332.121938 
L 427.775201 329.666564 
L 428.366097 331.30348 
L 428.956992 329.666564 
L 429.547887 330.280407 
L 430.138783 331.098866 
L 430.729678 330.280407 
L 431.320573 332.326553 
L 431.911469 330.689636 
L 432.502364 330.689636 
L 433.093259 351.969552 
L 433.684155 330.485022 
L 434.27505 330.894251 
L 434.865945 333.349626 
L 435.456841 330.689636 
L 436.047736 333.55424 
L 436.638631 330.485022 
L 437.229527 335.191157 
L 437.820422 330.280407 
L 438.411317 334.577313 
L 439.002213 330.280407 
L 439.593108 331.917324 
L 440.184003 330.280407 
L 440.774899 330.485022 
L 441.365794 329.666564 
L 441.956689 330.894251 
L 442.547584 329.666564 
L 443.13848 329.257334 
L 443.729375 328.643491 
L 444.32027 329.257334 
L 444.911166 328.234262 
L 445.502061 334.781928 
L 446.092956 328.438876 
L 446.683852 328.848105 
L 447.274747 331.508095 
L 447.865642 328.234262 
L 448.456538 331.508095 
L 449.047433 327.620418 
L 449.638328 330.894251 
L 450.229224 326.188116 
L 450.820119 327.620418 
L 451.411014 325.778887 
L 452.00191 326.188116 
L 452.592805 324.960428 
L 453.1837 324.551199 
L 453.774596 324.551199 
L 454.365491 324.960428 
L 454.956386 325.574272 
L 455.547282 324.960428 
L 456.138177 326.80196 
L 456.729072 325.574272 
L 457.319968 351.969552 
L 457.910863 325.369657 
L 458.501758 328.848105 
L 459.092654 327.211189 
L 459.683549 326.80196 
L 460.274444 326.80196 
L 460.86534 325.574272 
L 461.456235 328.029647 
L 462.04713 323.528126 
L 462.638026 325.983501 
L 463.228921 324.755814 
L 463.819816 324.551199 
L 464.410711 325.778887 
L 465.001607 325.778887 
L 465.001607 325.778887 
" style="fill:none;stroke:#d62728;stroke-linecap:square;stroke-width:1.5;"/>
   </g>
   <g id="patch_3">
    <path d="M 130.230156 352.174167 
L 130.230156 35.0625 
" style="fill:none;stroke:#000000;stroke-linecap:square;stroke-linejoin:miter;stroke-width:0.8;"/>
   </g>
   <g id="patch_4">
    <path d="M 488.365312 352.174167 
L 488.365312 35.0625 
" style="fill:none;stroke:#000000;stroke-linecap:square;stroke-linejoin:miter;stroke-width:0.8;"/>
   </g>
   <g id="patch_5">
    <path d="M 130.230156 352.174167 
L 488.365312 352.174167 
" style="fill:none;stroke:#000000;stroke-linecap:square;stroke-linejoin:miter;stroke-width:0.8;"/>
   </g>
   <g id="patch_6">
    <path d="M 130.230156 35.0625 
L 488.365312 35.0625 
" style="fill:none;stroke:#000000;stroke-linecap:square;stroke-linejoin:miter;stroke-width:0.8;"/>
   </g>
   <g id="legend_1">
    <g id="patch_7">
     <path d="M 508.27207 96.775 
L 607.342383 96.775 
Q 609.342383 96.775 609.342383 94.775 
L 609.342383 37.0625 
Q 609.342383 35.0625 607.342383 35.0625 
L 508.27207 35.0625 
Q 506.27207 35.0625 506.27207 37.0625 
L 506.27207 94.775 
Q 506.27207 96.775 508.27207 96.775 
z
" style="fill:#ffffff;opacity:0.8;stroke:#cccccc;stroke-linejoin:miter;"/>
    </g>
    <g id="line2d_20">
     <path d="M 510.27207 43.160937 
L 530.27207 43.160937 
" style="fill:none;stroke:#1f77b4;stroke-linecap:square;stroke-width:1.5;"/>
    </g>
    <g id="line2d_21"/>
    <g id="text_17">
     <!-- bbrshallow-pi -->
     <defs>
      <path d="M 41.109375 46.296875 
Q 39.59375 47.171875 37.8125 47.578125 
Q 36.03125 48 33.890625 48 
Q 26.265625 48 22.1875 43.046875 
Q 18.109375 38.09375 18.109375 28.8125 
L 18.109375 0 
L 9.078125 0 
L 9.078125 54.6875 
L 18.109375 54.6875 
L 18.109375 46.1875 
Q 20.953125 51.171875 25.484375 53.578125 
Q 30.03125 56 36.53125 56 
Q 37.453125 56 38.578125 55.875 
Q 39.703125 55.765625 41.0625 55.515625 
z
" id="DejaVuSans-114"/>
      <path d="M 34.28125 27.484375 
Q 23.390625 27.484375 19.1875 25 
Q 14.984375 22.515625 14.984375 16.5 
Q 14.984375 11.71875 18.140625 8.90625 
Q 21.296875 6.109375 26.703125 6.109375 
Q 34.1875 6.109375 38.703125 11.40625 
Q 43.21875 16.703125 43.21875 25.484375 
L 43.21875 27.484375 
z
M 52.203125 31.203125 
L 52.203125 0 
L 43.21875 0 
L 43.21875 8.296875 
Q 40.140625 3.328125 35.546875 0.953125 
Q 30.953125 -1.421875 24.3125 -1.421875 
Q 15.921875 -1.421875 10.953125 3.296875 
Q 6 8.015625 6 15.921875 
Q 6 25.140625 12.171875 29.828125 
Q 18.359375 34.515625 30.609375 34.515625 
L 43.21875 34.515625 
L 43.21875 35.40625 
Q 43.21875 41.609375 39.140625 45 
Q 35.0625 48.390625 27.6875 48.390625 
Q 23 48.390625 18.546875 47.265625 
Q 14.109375 46.140625 10.015625 43.890625 
L 10.015625 52.203125 
Q 14.9375 54.109375 19.578125 55.046875 
Q 24.21875 56 28.609375 56 
Q 40.484375 56 46.34375 49.84375 
Q 52.203125 43.703125 52.203125 31.203125 
z
" id="DejaVuSans-97"/>
      <path d="M 30.609375 48.390625 
Q 23.390625 48.390625 19.1875 42.75 
Q 14.984375 37.109375 14.984375 27.296875 
Q 14.984375 17.484375 19.15625 11.84375 
Q 23.34375 6.203125 30.609375 6.203125 
Q 37.796875 6.203125 41.984375 11.859375 
Q 46.1875 17.53125 46.1875 27.296875 
Q 46.1875 37.015625 41.984375 42.703125 
Q 37.796875 48.390625 30.609375 48.390625 
z
M 30.609375 56 
Q 42.328125 56 49.015625 48.375 
Q 55.71875 40.765625 55.71875 27.296875 
Q 55.71875 13.875 49.015625 6.21875 
Q 42.328125 -1.421875 30.609375 -1.421875 
Q 18.84375 -1.421875 12.171875 6.21875 
Q 5.515625 13.875 5.515625 27.296875 
Q 5.515625 40.765625 12.171875 48.375 
Q 18.84375 56 30.609375 56 
z
" id="DejaVuSans-111"/>
      <path d="M 4.203125 54.6875 
L 13.1875 54.6875 
L 24.421875 12.015625 
L 35.59375 54.6875 
L 46.1875 54.6875 
L 57.421875 12.015625 
L 68.609375 54.6875 
L 77.59375 54.6875 
L 63.28125 0 
L 52.6875 0 
L 40.921875 44.828125 
L 29.109375 0 
L 18.5 0 
z
" id="DejaVuSans-119"/>
      <path d="M 4.890625 31.390625 
L 31.203125 31.390625 
L 31.203125 23.390625 
L 4.890625 23.390625 
z
" id="DejaVuSans-45"/>
      <path d="M 18.109375 8.203125 
L 18.109375 -20.796875 
L 9.078125 -20.796875 
L 9.078125 54.6875 
L 18.109375 54.6875 
L 18.109375 46.390625 
Q 20.953125 51.265625 25.265625 53.625 
Q 29.59375 56 35.59375 56 
Q 45.5625 56 51.78125 48.09375 
Q 58.015625 40.1875 58.015625 27.296875 
Q 58.015625 14.40625 51.78125 6.484375 
Q 45.5625 -1.421875 35.59375 -1.421875 
Q 29.59375 -1.421875 25.265625 0.953125 
Q 20.953125 3.328125 18.109375 8.203125 
z
M 48.6875 27.296875 
Q 48.6875 37.203125 44.609375 42.84375 
Q 40.53125 48.484375 33.40625 48.484375 
Q 26.265625 48.484375 22.1875 42.84375 
Q 18.109375 37.203125 18.109375 27.296875 
Q 18.109375 17.390625 22.1875 11.75 
Q 26.265625 6.109375 33.40625 6.109375 
Q 40.53125 6.109375 44.609375 11.75 
Q 48.6875 17.390625 48.6875 27.296875 
z
" id="DejaVuSans-112"/>
     </defs>
     <g transform="translate(538.27207 46.660937)scale(0.1 -0.1)">
      <use xlink:href="#DejaVuSans-98"/>
      <use x="63.476562" xlink:href="#DejaVuSans-98"/>
      <use x="126.953125" xlink:href="#DejaVuSans-114"/>
      <use x="168.066406" xlink:href="#DejaVuSans-115"/>
      <use x="220.166016" xlink:href="#DejaVuSans-104"/>
      <use x="283.544922" xlink:href="#DejaVuSans-97"/>
      <use x="344.824219" xlink:href="#DejaVuSans-108"/>
      <use x="372.607422" xlink:href="#DejaVuSans-108"/>
      <use x="400.390625" xlink:href="#DejaVuSans-111"/>
      <use x="461.572266" xlink:href="#DejaVuSans-119"/>
      <use x="543.359375" xlink:href="#DejaVuSans-45"/>
      <use x="579.443359" xlink:href="#DejaVuSans-112"/>
      <use x="642.919922" xlink:href="#DejaVuSans-105"/>
     </g>
    </g>
    <g id="line2d_22">
     <path d="M 510.27207 57.839063 
L 530.27207 57.839063 
" style="fill:none;stroke:#ff7f0e;stroke-linecap:square;stroke-width:1.5;"/>
    </g>
    <g id="line2d_23"/>
    <g id="text_18">
     <!-- bbrshallow-pi -->
     <g transform="translate(538.27207 61.339063)scale(0.1 -0.1)">
      <use xlink:href="#DejaVuSans-98"/>
      <use x="63.476562" xlink:href="#DejaVuSans-98"/>
      <use x="126.953125" xlink:href="#DejaVuSans-114"/>
      <use x="168.066406" xlink:href="#DejaVuSans-115"/>
      <use x="220.166016" xlink:href="#DejaVuSans-104"/>
      <use x="283.544922" xlink:href="#DejaVuSans-97"/>
      <use x="344.824219" xlink:href="#DejaVuSans-108"/>
      <use x="372.607422" xlink:href="#DejaVuSans-108"/>
      <use x="400.390625" xlink:href="#DejaVuSans-111"/>
      <use x="461.572266" xlink:href="#DejaVuSans-119"/>
      <use x="543.359375" xlink:href="#DejaVuSans-45"/>
      <use x="579.443359" xlink:href="#DejaVuSans-112"/>
      <use x="642.919922" xlink:href="#DejaVuSans-105"/>
     </g>
    </g>
    <g id="line2d_24">
     <path d="M 510.27207 72.517187 
L 530.27207 72.517187 
" style="fill:none;stroke:#2ca02c;stroke-linecap:square;stroke-width:1.5;"/>
    </g>
    <g id="line2d_25"/>
    <g id="text_19">
     <!-- bbrshallow-pi -->
     <g transform="translate(538.27207 76.017187)scale(0.1 -0.1)">
      <use xlink:href="#DejaVuSans-98"/>
      <use x="63.476562" xlink:href="#DejaVuSans-98"/>
      <use x="126.953125" xlink:href="#DejaVuSans-114"/>
      <use x="168.066406" xlink:href="#DejaVuSans-115"/>
      <use x="220.166016" xlink:href="#DejaVuSans-104"/>
      <use x="283.544922" xlink:href="#DejaVuSans-97"/>
      <use x="344.824219" xlink:href="#DejaVuSans-108"/>
      <use x="372.607422" xlink:href="#DejaVuSans-108"/>
      <use x="400.390625" xlink:href="#DejaVuSans-111"/>
      <use x="461.572266" xlink:href="#DejaVuSans-119"/>
      <use x="543.359375" xlink:href="#DejaVuSans-45"/>
      <use x="579.443359" xlink:href="#DejaVuSans-112"/>
      <use x="642.919922" xlink:href="#DejaVuSans-105"/>
     </g>
    </g>
    <g id="line2d_26">
     <path d="M 510.27207 87.195312 
L 530.27207 87.195312 
" style="fill:none;stroke:#d62728;stroke-linecap:square;stroke-width:1.5;"/>
    </g>
    <g id="line2d_27"/>
    <g id="text_20">
     <!-- bbrshallow-pi -->
     <g transform="translate(538.27207 90.695312)scale(0.1 -0.1)">
      <use xlink:href="#DejaVuSans-98"/>
      <use x="63.476562" xlink:href="#DejaVuSans-98"/>
      <use x="126.953125" xlink:href="#DejaVuSans-114"/>
      <use x="168.066406" xlink:href="#DejaVuSans-115"/>
      <use x="220.166016" xlink:href="#DejaVuSans-104"/>
      <use x="283.544922" xlink:href="#DejaVuSans-97"/>
      <use x="344.824219" xlink:href="#DejaVuSans-108"/>
      <use x="372.607422" xlink:href="#DejaVuSans-108"/>
      <use x="400.390625" xlink:href="#DejaVuSans-111"/>
      <use x="461.572266" xlink:href="#DejaVuSans-119"/>
      <use x="543.359375" xlink:href="#DejaVuSans-45"/>
      <use x="579.443359" xlink:href="#DejaVuSans-112"/>
      <use x="642.919922" xlink:href="#DejaVuSans-105"/>
     </g>
    </g>
   </g>
  </g>
  <g id="text_21">
   <!-- result inflight -->
   <defs>
    <path d="M 8.5 21.578125 
L 8.5 54.6875 
L 17.484375 54.6875 
L 17.484375 21.921875 
Q 17.484375 14.15625 20.5 10.265625 
Q 23.53125 6.390625 29.59375 6.390625 
Q 36.859375 6.390625 41.078125 11.03125 
Q 45.3125 15.671875 45.3125 23.6875 
L 45.3125 54.6875 
L 54.296875 54.6875 
L 54.296875 0 
L 45.3125 0 
L 45.3125 8.40625 
Q 42.046875 3.421875 37.71875 1 
Q 33.40625 -1.421875 27.6875 -1.421875 
Q 18.265625 -1.421875 13.375 4.4375 
Q 8.5 10.296875 8.5 21.578125 
z
M 31.109375 56 
z
" id="DejaVuSans-117"/>
    <path id="DejaVuSans-32"/>
   </defs>
   <g transform="translate(302.110313 17.038125)scale(0.12 -0.12)">
    <use xlink:href="#DejaVuSans-114"/>
    <use x="41.082031" xlink:href="#DejaVuSans-101"/>
    <use x="102.605469" xlink:href="#DejaVuSans-115"/>
    <use x="154.705078" xlink:href="#DejaVuSans-117"/>
    <use x="218.083984" xlink:href="#DejaVuSans-108"/>
    <use x="245.867188" xlink:href="#DejaVuSans-116"/>
    <use x="285.076172" xlink:href="#DejaVuSans-32"/>
    <use x="316.863281" xlink:href="#DejaVuSans-105"/>
    <use x="344.646484" xlink:href="#DejaVuSans-110"/>
    <use x="408.025391" xlink:href="#DejaVuSans-102"/>
    <use x="443.230469" xlink:href="#DejaVuSans-108"/>
    <use x="471.013672" xlink:href="#DejaVuSans-105"/>
    <use x="498.796875" xlink:href="#DejaVuSans-103"/>
    <use x="562.273438" xlink:href="#DejaVuSans-104"/>
    <use x="625.652344" xlink:href="#DejaVuSans-116"/>
   </g>
  </g>
 </g>
 <defs>
  <clipPath id="p62e2a364f9">
   <rect height="317.111667" width="358.135156" x="130.230156" y="35.0625"/>
  </clipPath>
 </defs>
</svg>
