<?xml version="1.0" encoding="utf-8" standalone="no"?>
<!DOCTYPE svg PUBLIC "-//W3C//DTD SVG 1.1//EN"
  "http://www.w3.org/Graphics/SVG/1.1/DTD/svg11.dtd">
<!-- Created with matplotlib (https://matplotlib.org/) -->
<svg height="396pt" version="1.1" viewBox="0 0 684 396" width="684pt" xmlns="http://www.w3.org/2000/svg" xmlns:xlink="http://www.w3.org/1999/xlink">
 <defs>
  <style type="text/css">
*{stroke-linecap:butt;stroke-linejoin:round;}
  </style>
 </defs>
 <g id="figure_1">
  <g id="patch_1">
   <path d="M 0 396 
L 684 396 
L 684 0 
L 0 0 
z
" style="fill:#ffffff;"/>
  </g>
  <g id="axes_1">
   <g id="patch_2">
    <path d="M 130.36375 352.174167 
L 488.365312 352.174167 
L 488.365312 35.0625 
L 130.36375 35.0625 
z
" style="fill:#ffffff;"/>
   </g>
   <g id="matplotlib.axis_1">
    <g id="xtick_1">
     <g id="line2d_1">
      <defs>
       <path d="M 0 0 
L 0 3.5 
" id="me3b7b45ba0" style="stroke:#000000;stroke-width:0.8;"/>
      </defs>
      <g>
       <use style="stroke:#000000;stroke-width:0.8;" x="146.636548" xlink:href="#me3b7b45ba0" y="352.174167"/>
      </g>
     </g>
     <g id="text_1">
      <!-- 0 -->
      <defs>
       <path d="M 31.78125 66.40625 
Q 24.171875 66.40625 20.328125 58.90625 
Q 16.5 51.421875 16.5 36.375 
Q 16.5 21.390625 20.328125 13.890625 
Q 24.171875 6.390625 31.78125 6.390625 
Q 39.453125 6.390625 43.28125 13.890625 
Q 47.125 21.390625 47.125 36.375 
Q 47.125 51.421875 43.28125 58.90625 
Q 39.453125 66.40625 31.78125 66.40625 
z
M 31.78125 74.21875 
Q 44.046875 74.21875 50.515625 64.515625 
Q 56.984375 54.828125 56.984375 36.375 
Q 56.984375 17.96875 50.515625 8.265625 
Q 44.046875 -1.421875 31.78125 -1.421875 
Q 19.53125 -1.421875 13.0625 8.265625 
Q 6.59375 17.96875 6.59375 36.375 
Q 6.59375 54.828125 13.0625 64.515625 
Q 19.53125 74.21875 31.78125 74.21875 
z
" id="DejaVuSans-48"/>
      </defs>
      <g transform="translate(143.455298 366.772604)scale(0.1 -0.1)">
       <use xlink:href="#DejaVuSans-48"/>
      </g>
     </g>
    </g>
    <g id="xtick_2">
     <g id="line2d_2">
      <g>
       <use style="stroke:#000000;stroke-width:0.8;" x="205.711115" xlink:href="#me3b7b45ba0" y="352.174167"/>
      </g>
     </g>
     <g id="text_2">
      <!-- 50 -->
      <defs>
       <path d="M 10.796875 72.90625 
L 49.515625 72.90625 
L 49.515625 64.59375 
L 19.828125 64.59375 
L 19.828125 46.734375 
Q 21.96875 47.46875 24.109375 47.828125 
Q 26.265625 48.1875 28.421875 48.1875 
Q 40.625 48.1875 47.75 41.5 
Q 54.890625 34.8125 54.890625 23.390625 
Q 54.890625 11.625 47.5625 5.09375 
Q 40.234375 -1.421875 26.90625 -1.421875 
Q 22.3125 -1.421875 17.546875 -0.640625 
Q 12.796875 0.140625 7.71875 1.703125 
L 7.71875 11.625 
Q 12.109375 9.234375 16.796875 8.0625 
Q 21.484375 6.890625 26.703125 6.890625 
Q 35.15625 6.890625 40.078125 11.328125 
Q 45.015625 15.765625 45.015625 23.390625 
Q 45.015625 31 40.078125 35.4375 
Q 35.15625 39.890625 26.703125 39.890625 
Q 22.75 39.890625 18.8125 39.015625 
Q 14.890625 38.140625 10.796875 36.28125 
z
" id="DejaVuSans-53"/>
      </defs>
      <g transform="translate(199.348615 366.772604)scale(0.1 -0.1)">
       <use xlink:href="#DejaVuSans-53"/>
       <use x="63.623047" xlink:href="#DejaVuSans-48"/>
      </g>
     </g>
    </g>
    <g id="xtick_3">
     <g id="line2d_3">
      <g>
       <use style="stroke:#000000;stroke-width:0.8;" x="264.785682" xlink:href="#me3b7b45ba0" y="352.174167"/>
      </g>
     </g>
     <g id="text_3">
      <!-- 100 -->
      <defs>
       <path d="M 12.40625 8.296875 
L 28.515625 8.296875 
L 28.515625 63.921875 
L 10.984375 60.40625 
L 10.984375 69.390625 
L 28.421875 72.90625 
L 38.28125 72.90625 
L 38.28125 8.296875 
L 54.390625 8.296875 
L 54.390625 0 
L 12.40625 0 
z
" id="DejaVuSans-49"/>
      </defs>
      <g transform="translate(255.241932 366.772604)scale(0.1 -0.1)">
       <use xlink:href="#DejaVuSans-49"/>
       <use x="63.623047" xlink:href="#DejaVuSans-48"/>
       <use x="127.246094" xlink:href="#DejaVuSans-48"/>
      </g>
     </g>
    </g>
    <g id="xtick_4">
     <g id="line2d_4">
      <g>
       <use style="stroke:#000000;stroke-width:0.8;" x="323.860248" xlink:href="#me3b7b45ba0" y="352.174167"/>
      </g>
     </g>
     <g id="text_4">
      <!-- 150 -->
      <g transform="translate(314.316498 366.772604)scale(0.1 -0.1)">
       <use xlink:href="#DejaVuSans-49"/>
       <use x="63.623047" xlink:href="#DejaVuSans-53"/>
       <use x="127.246094" xlink:href="#DejaVuSans-48"/>
      </g>
     </g>
    </g>
    <g id="xtick_5">
     <g id="line2d_5">
      <g>
       <use style="stroke:#000000;stroke-width:0.8;" x="382.934815" xlink:href="#me3b7b45ba0" y="352.174167"/>
      </g>
     </g>
     <g id="text_5">
      <!-- 200 -->
      <defs>
       <path d="M 19.1875 8.296875 
L 53.609375 8.296875 
L 53.609375 0 
L 7.328125 0 
L 7.328125 8.296875 
Q 12.9375 14.109375 22.625 23.890625 
Q 32.328125 33.6875 34.8125 36.53125 
Q 39.546875 41.84375 41.421875 45.53125 
Q 43.3125 49.21875 43.3125 52.78125 
Q 43.3125 58.59375 39.234375 62.25 
Q 35.15625 65.921875 28.609375 65.921875 
Q 23.96875 65.921875 18.8125 64.3125 
Q 13.671875 62.703125 7.8125 59.421875 
L 7.8125 69.390625 
Q 13.765625 71.78125 18.9375 73 
Q 24.125 74.21875 28.421875 74.21875 
Q 39.75 74.21875 46.484375 68.546875 
Q 53.21875 62.890625 53.21875 53.421875 
Q 53.21875 48.921875 51.53125 44.890625 
Q 49.859375 40.875 45.40625 35.40625 
Q 44.1875 33.984375 37.640625 27.21875 
Q 31.109375 20.453125 19.1875 8.296875 
z
" id="DejaVuSans-50"/>
      </defs>
      <g transform="translate(373.391065 366.772604)scale(0.1 -0.1)">
       <use xlink:href="#DejaVuSans-50"/>
       <use x="63.623047" xlink:href="#DejaVuSans-48"/>
       <use x="127.246094" xlink:href="#DejaVuSans-48"/>
      </g>
     </g>
    </g>
    <g id="xtick_6">
     <g id="line2d_6">
      <g>
       <use style="stroke:#000000;stroke-width:0.8;" x="442.009382" xlink:href="#me3b7b45ba0" y="352.174167"/>
      </g>
     </g>
     <g id="text_6">
      <!-- 250 -->
      <g transform="translate(432.465632 366.772604)scale(0.1 -0.1)">
       <use xlink:href="#DejaVuSans-50"/>
       <use x="63.623047" xlink:href="#DejaVuSans-53"/>
       <use x="127.246094" xlink:href="#DejaVuSans-48"/>
      </g>
     </g>
    </g>
   </g>
   <g id="matplotlib.axis_2">
    <g id="ytick_1">
     <g id="line2d_7">
      <defs>
       <path d="M 0 0 
L -3.5 0 
" id="m1244b8d827" style="stroke:#000000;stroke-width:0.8;"/>
      </defs>
      <g>
       <use style="stroke:#000000;stroke-width:0.8;" x="130.36375" xlink:href="#m1244b8d827" y="352.174167"/>
      </g>
     </g>
     <g id="text_7">
      <!-- 0 -->
      <g transform="translate(117.00125 355.973385)scale(0.1 -0.1)">
       <use xlink:href="#DejaVuSans-48"/>
      </g>
     </g>
    </g>
    <g id="ytick_2">
     <g id="line2d_8">
      <g>
       <use style="stroke:#000000;stroke-width:0.8;" x="130.36375" xlink:href="#m1244b8d827" y="314.661359"/>
      </g>
     </g>
     <g id="text_8">
      <!-- 200000 -->
      <g transform="translate(85.18875 318.460578)scale(0.1 -0.1)">
       <use xlink:href="#DejaVuSans-50"/>
       <use x="63.623047" xlink:href="#DejaVuSans-48"/>
       <use x="127.246094" xlink:href="#DejaVuSans-48"/>
       <use x="190.869141" xlink:href="#DejaVuSans-48"/>
       <use x="254.492188" xlink:href="#DejaVuSans-48"/>
       <use x="318.115234" xlink:href="#DejaVuSans-48"/>
      </g>
     </g>
    </g>
    <g id="ytick_3">
     <g id="line2d_9">
      <g>
       <use style="stroke:#000000;stroke-width:0.8;" x="130.36375" xlink:href="#m1244b8d827" y="277.148552"/>
      </g>
     </g>
     <g id="text_9">
      <!-- 400000 -->
      <defs>
       <path d="M 37.796875 64.3125 
L 12.890625 25.390625 
L 37.796875 25.390625 
z
M 35.203125 72.90625 
L 47.609375 72.90625 
L 47.609375 25.390625 
L 58.015625 25.390625 
L 58.015625 17.1875 
L 47.609375 17.1875 
L 47.609375 0 
L 37.796875 0 
L 37.796875 17.1875 
L 4.890625 17.1875 
L 4.890625 26.703125 
z
" id="DejaVuSans-52"/>
      </defs>
      <g transform="translate(85.18875 280.947771)scale(0.1 -0.1)">
       <use xlink:href="#DejaVuSans-52"/>
       <use x="63.623047" xlink:href="#DejaVuSans-48"/>
       <use x="127.246094" xlink:href="#DejaVuSans-48"/>
       <use x="190.869141" xlink:href="#DejaVuSans-48"/>
       <use x="254.492188" xlink:href="#DejaVuSans-48"/>
       <use x="318.115234" xlink:href="#DejaVuSans-48"/>
      </g>
     </g>
    </g>
    <g id="ytick_4">
     <g id="line2d_10">
      <g>
       <use style="stroke:#000000;stroke-width:0.8;" x="130.36375" xlink:href="#m1244b8d827" y="239.635744"/>
      </g>
     </g>
     <g id="text_10">
      <!-- 600000 -->
      <defs>
       <path d="M 33.015625 40.375 
Q 26.375 40.375 22.484375 35.828125 
Q 18.609375 31.296875 18.609375 23.390625 
Q 18.609375 15.53125 22.484375 10.953125 
Q 26.375 6.390625 33.015625 6.390625 
Q 39.65625 6.390625 43.53125 10.953125 
Q 47.40625 15.53125 47.40625 23.390625 
Q 47.40625 31.296875 43.53125 35.828125 
Q 39.65625 40.375 33.015625 40.375 
z
M 52.59375 71.296875 
L 52.59375 62.3125 
Q 48.875 64.0625 45.09375 64.984375 
Q 41.3125 65.921875 37.59375 65.921875 
Q 27.828125 65.921875 22.671875 59.328125 
Q 17.53125 52.734375 16.796875 39.40625 
Q 19.671875 43.65625 24.015625 45.921875 
Q 28.375 48.1875 33.59375 48.1875 
Q 44.578125 48.1875 50.953125 41.515625 
Q 57.328125 34.859375 57.328125 23.390625 
Q 57.328125 12.15625 50.6875 5.359375 
Q 44.046875 -1.421875 33.015625 -1.421875 
Q 20.359375 -1.421875 13.671875 8.265625 
Q 6.984375 17.96875 6.984375 36.375 
Q 6.984375 53.65625 15.1875 63.9375 
Q 23.390625 74.21875 37.203125 74.21875 
Q 40.921875 74.21875 44.703125 73.484375 
Q 48.484375 72.75 52.59375 71.296875 
z
" id="DejaVuSans-54"/>
      </defs>
      <g transform="translate(85.18875 243.434963)scale(0.1 -0.1)">
       <use xlink:href="#DejaVuSans-54"/>
       <use x="63.623047" xlink:href="#DejaVuSans-48"/>
       <use x="127.246094" xlink:href="#DejaVuSans-48"/>
       <use x="190.869141" xlink:href="#DejaVuSans-48"/>
       <use x="254.492188" xlink:href="#DejaVuSans-48"/>
       <use x="318.115234" xlink:href="#DejaVuSans-48"/>
      </g>
     </g>
    </g>
    <g id="ytick_5">
     <g id="line2d_11">
      <g>
       <use style="stroke:#000000;stroke-width:0.8;" x="130.36375" xlink:href="#m1244b8d827" y="202.122937"/>
      </g>
     </g>
     <g id="text_11">
      <!-- 800000 -->
      <defs>
       <path d="M 31.78125 34.625 
Q 24.75 34.625 20.71875 30.859375 
Q 16.703125 27.09375 16.703125 20.515625 
Q 16.703125 13.921875 20.71875 10.15625 
Q 24.75 6.390625 31.78125 6.390625 
Q 38.8125 6.390625 42.859375 10.171875 
Q 46.921875 13.96875 46.921875 20.515625 
Q 46.921875 27.09375 42.890625 30.859375 
Q 38.875 34.625 31.78125 34.625 
z
M 21.921875 38.8125 
Q 15.578125 40.375 12.03125 44.71875 
Q 8.5 49.078125 8.5 55.328125 
Q 8.5 64.0625 14.71875 69.140625 
Q 20.953125 74.21875 31.78125 74.21875 
Q 42.671875 74.21875 48.875 69.140625 
Q 55.078125 64.0625 55.078125 55.328125 
Q 55.078125 49.078125 51.53125 44.71875 
Q 48 40.375 41.703125 38.8125 
Q 48.828125 37.15625 52.796875 32.3125 
Q 56.78125 27.484375 56.78125 20.515625 
Q 56.78125 9.90625 50.3125 4.234375 
Q 43.84375 -1.421875 31.78125 -1.421875 
Q 19.734375 -1.421875 13.25 4.234375 
Q 6.78125 9.90625 6.78125 20.515625 
Q 6.78125 27.484375 10.78125 32.3125 
Q 14.796875 37.15625 21.921875 38.8125 
z
M 18.3125 54.390625 
Q 18.3125 48.734375 21.84375 45.5625 
Q 25.390625 42.390625 31.78125 42.390625 
Q 38.140625 42.390625 41.71875 45.5625 
Q 45.3125 48.734375 45.3125 54.390625 
Q 45.3125 60.0625 41.71875 63.234375 
Q 38.140625 66.40625 31.78125 66.40625 
Q 25.390625 66.40625 21.84375 63.234375 
Q 18.3125 60.0625 18.3125 54.390625 
z
" id="DejaVuSans-56"/>
      </defs>
      <g transform="translate(85.18875 205.922156)scale(0.1 -0.1)">
       <use xlink:href="#DejaVuSans-56"/>
       <use x="63.623047" xlink:href="#DejaVuSans-48"/>
       <use x="127.246094" xlink:href="#DejaVuSans-48"/>
       <use x="190.869141" xlink:href="#DejaVuSans-48"/>
       <use x="254.492188" xlink:href="#DejaVuSans-48"/>
       <use x="318.115234" xlink:href="#DejaVuSans-48"/>
      </g>
     </g>
    </g>
    <g id="ytick_6">
     <g id="line2d_12">
      <g>
       <use style="stroke:#000000;stroke-width:0.8;" x="130.36375" xlink:href="#m1244b8d827" y="164.610129"/>
      </g>
     </g>
     <g id="text_12">
      <!-- 1000000 -->
      <g transform="translate(78.82625 168.409348)scale(0.1 -0.1)">
       <use xlink:href="#DejaVuSans-49"/>
       <use x="63.623047" xlink:href="#DejaVuSans-48"/>
       <use x="127.246094" xlink:href="#DejaVuSans-48"/>
       <use x="190.869141" xlink:href="#DejaVuSans-48"/>
       <use x="254.492188" xlink:href="#DejaVuSans-48"/>
       <use x="318.115234" xlink:href="#DejaVuSans-48"/>
       <use x="381.738281" xlink:href="#DejaVuSans-48"/>
      </g>
     </g>
    </g>
    <g id="ytick_7">
     <g id="line2d_13">
      <g>
       <use style="stroke:#000000;stroke-width:0.8;" x="130.36375" xlink:href="#m1244b8d827" y="127.097322"/>
      </g>
     </g>
     <g id="text_13">
      <!-- 1200000 -->
      <g transform="translate(78.82625 130.896541)scale(0.1 -0.1)">
       <use xlink:href="#DejaVuSans-49"/>
       <use x="63.623047" xlink:href="#DejaVuSans-50"/>
       <use x="127.246094" xlink:href="#DejaVuSans-48"/>
       <use x="190.869141" xlink:href="#DejaVuSans-48"/>
       <use x="254.492188" xlink:href="#DejaVuSans-48"/>
       <use x="318.115234" xlink:href="#DejaVuSans-48"/>
       <use x="381.738281" xlink:href="#DejaVuSans-48"/>
      </g>
     </g>
    </g>
    <g id="ytick_8">
     <g id="line2d_14">
      <g>
       <use style="stroke:#000000;stroke-width:0.8;" x="130.36375" xlink:href="#m1244b8d827" y="89.584515"/>
      </g>
     </g>
     <g id="text_14">
      <!-- 1400000 -->
      <g transform="translate(78.82625 93.383733)scale(0.1 -0.1)">
       <use xlink:href="#DejaVuSans-49"/>
       <use x="63.623047" xlink:href="#DejaVuSans-52"/>
       <use x="127.246094" xlink:href="#DejaVuSans-48"/>
       <use x="190.869141" xlink:href="#DejaVuSans-48"/>
       <use x="254.492188" xlink:href="#DejaVuSans-48"/>
       <use x="318.115234" xlink:href="#DejaVuSans-48"/>
       <use x="381.738281" xlink:href="#DejaVuSans-48"/>
      </g>
     </g>
    </g>
    <g id="ytick_9">
     <g id="line2d_15">
      <g>
       <use style="stroke:#000000;stroke-width:0.8;" x="130.36375" xlink:href="#m1244b8d827" y="52.071707"/>
      </g>
     </g>
     <g id="text_15">
      <!-- 1600000 -->
      <g transform="translate(78.82625 55.870926)scale(0.1 -0.1)">
       <use xlink:href="#DejaVuSans-49"/>
       <use x="63.623047" xlink:href="#DejaVuSans-54"/>
       <use x="127.246094" xlink:href="#DejaVuSans-48"/>
       <use x="190.869141" xlink:href="#DejaVuSans-48"/>
       <use x="254.492188" xlink:href="#DejaVuSans-48"/>
       <use x="318.115234" xlink:href="#DejaVuSans-48"/>
       <use x="381.738281" xlink:href="#DejaVuSans-48"/>
      </g>
     </g>
    </g>
    <g id="text_16">
     <!-- inflight -->
     <defs>
      <path d="M 9.421875 54.6875 
L 18.40625 54.6875 
L 18.40625 0 
L 9.421875 0 
z
M 9.421875 75.984375 
L 18.40625 75.984375 
L 18.40625 64.59375 
L 9.421875 64.59375 
z
" id="DejaVuSans-105"/>
      <path d="M 54.890625 33.015625 
L 54.890625 0 
L 45.90625 0 
L 45.90625 32.71875 
Q 45.90625 40.484375 42.875 44.328125 
Q 39.84375 48.1875 33.796875 48.1875 
Q 26.515625 48.1875 22.3125 43.546875 
Q 18.109375 38.921875 18.109375 30.90625 
L 18.109375 0 
L 9.078125 0 
L 9.078125 54.6875 
L 18.109375 54.6875 
L 18.109375 46.1875 
Q 21.34375 51.125 25.703125 53.5625 
Q 30.078125 56 35.796875 56 
Q 45.21875 56 50.046875 50.171875 
Q 54.890625 44.34375 54.890625 33.015625 
z
" id="DejaVuSans-110"/>
      <path d="M 37.109375 75.984375 
L 37.109375 68.5 
L 28.515625 68.5 
Q 23.6875 68.5 21.796875 66.546875 
Q 19.921875 64.59375 19.921875 59.515625 
L 19.921875 54.6875 
L 34.71875 54.6875 
L 34.71875 47.703125 
L 19.921875 47.703125 
L 19.921875 0 
L 10.890625 0 
L 10.890625 47.703125 
L 2.296875 47.703125 
L 2.296875 54.6875 
L 10.890625 54.6875 
L 10.890625 58.5 
Q 10.890625 67.625 15.140625 71.796875 
Q 19.390625 75.984375 28.609375 75.984375 
z
" id="DejaVuSans-102"/>
      <path d="M 9.421875 75.984375 
L 18.40625 75.984375 
L 18.40625 0 
L 9.421875 0 
z
" id="DejaVuSans-108"/>
      <path d="M 45.40625 27.984375 
Q 45.40625 37.75 41.375 43.109375 
Q 37.359375 48.484375 30.078125 48.484375 
Q 22.859375 48.484375 18.828125 43.109375 
Q 14.796875 37.75 14.796875 27.984375 
Q 14.796875 18.265625 18.828125 12.890625 
Q 22.859375 7.515625 30.078125 7.515625 
Q 37.359375 7.515625 41.375 12.890625 
Q 45.40625 18.265625 45.40625 27.984375 
z
M 54.390625 6.78125 
Q 54.390625 -7.171875 48.1875 -13.984375 
Q 42 -20.796875 29.203125 -20.796875 
Q 24.46875 -20.796875 20.265625 -20.09375 
Q 16.0625 -19.390625 12.109375 -17.921875 
L 12.109375 -9.1875 
Q 16.0625 -11.328125 19.921875 -12.34375 
Q 23.78125 -13.375 27.78125 -13.375 
Q 36.625 -13.375 41.015625 -8.765625 
Q 45.40625 -4.15625 45.40625 5.171875 
L 45.40625 9.625 
Q 42.625 4.78125 38.28125 2.390625 
Q 33.9375 0 27.875 0 
Q 17.828125 0 11.671875 7.65625 
Q 5.515625 15.328125 5.515625 27.984375 
Q 5.515625 40.671875 11.671875 48.328125 
Q 17.828125 56 27.875 56 
Q 33.9375 56 38.28125 53.609375 
Q 42.625 51.21875 45.40625 46.390625 
L 45.40625 54.6875 
L 54.390625 54.6875 
z
" id="DejaVuSans-103"/>
      <path d="M 54.890625 33.015625 
L 54.890625 0 
L 45.90625 0 
L 45.90625 32.71875 
Q 45.90625 40.484375 42.875 44.328125 
Q 39.84375 48.1875 33.796875 48.1875 
Q 26.515625 48.1875 22.3125 43.546875 
Q 18.109375 38.921875 18.109375 30.90625 
L 18.109375 0 
L 9.078125 0 
L 9.078125 75.984375 
L 18.109375 75.984375 
L 18.109375 46.1875 
Q 21.34375 51.125 25.703125 53.5625 
Q 30.078125 56 35.796875 56 
Q 45.21875 56 50.046875 50.171875 
Q 54.890625 44.34375 54.890625 33.015625 
z
" id="DejaVuSans-104"/>
      <path d="M 18.3125 70.21875 
L 18.3125 54.6875 
L 36.8125 54.6875 
L 36.8125 47.703125 
L 18.3125 47.703125 
L 18.3125 18.015625 
Q 18.3125 11.328125 20.140625 9.421875 
Q 21.96875 7.515625 27.59375 7.515625 
L 36.8125 7.515625 
L 36.8125 0 
L 27.59375 0 
Q 17.1875 0 13.234375 3.875 
Q 9.28125 7.765625 9.28125 18.015625 
L 9.28125 47.703125 
L 2.6875 47.703125 
L 2.6875 54.6875 
L 9.28125 54.6875 
L 9.28125 70.21875 
z
" id="DejaVuSans-116"/>
     </defs>
     <g transform="translate(61.54875 211.017552)rotate(-90)scale(0.1 -0.1)">
      <use xlink:href="#DejaVuSans-105"/>
      <use x="27.783203" xlink:href="#DejaVuSans-110"/>
      <use x="91.162109" xlink:href="#DejaVuSans-102"/>
      <use x="126.367188" xlink:href="#DejaVuSans-108"/>
      <use x="154.150391" xlink:href="#DejaVuSans-105"/>
      <use x="181.933594" xlink:href="#DejaVuSans-103"/>
      <use x="245.410156" xlink:href="#DejaVuSans-104"/>
      <use x="308.789062" xlink:href="#DejaVuSans-116"/>
     </g>
     <!-- (bytes) -->
     <defs>
      <path d="M 31 75.875 
Q 24.46875 64.65625 21.28125 53.65625 
Q 18.109375 42.671875 18.109375 31.390625 
Q 18.109375 20.125 21.3125 9.0625 
Q 24.515625 -2 31 -13.1875 
L 23.1875 -13.1875 
Q 15.875 -1.703125 12.234375 9.375 
Q 8.59375 20.453125 8.59375 31.390625 
Q 8.59375 42.28125 12.203125 53.3125 
Q 15.828125 64.359375 23.1875 75.875 
z
" id="DejaVuSans-40"/>
      <path d="M 48.6875 27.296875 
Q 48.6875 37.203125 44.609375 42.84375 
Q 40.53125 48.484375 33.40625 48.484375 
Q 26.265625 48.484375 22.1875 42.84375 
Q 18.109375 37.203125 18.109375 27.296875 
Q 18.109375 17.390625 22.1875 11.75 
Q 26.265625 6.109375 33.40625 6.109375 
Q 40.53125 6.109375 44.609375 11.75 
Q 48.6875 17.390625 48.6875 27.296875 
z
M 18.109375 46.390625 
Q 20.953125 51.265625 25.265625 53.625 
Q 29.59375 56 35.59375 56 
Q 45.5625 56 51.78125 48.09375 
Q 58.015625 40.1875 58.015625 27.296875 
Q 58.015625 14.40625 51.78125 6.484375 
Q 45.5625 -1.421875 35.59375 -1.421875 
Q 29.59375 -1.421875 25.265625 0.953125 
Q 20.953125 3.328125 18.109375 8.203125 
L 18.109375 0 
L 9.078125 0 
L 9.078125 75.984375 
L 18.109375 75.984375 
z
" id="DejaVuSans-98"/>
      <path d="M 32.171875 -5.078125 
Q 28.375 -14.84375 24.75 -17.8125 
Q 21.140625 -20.796875 15.09375 -20.796875 
L 7.90625 -20.796875 
L 7.90625 -13.28125 
L 13.1875 -13.28125 
Q 16.890625 -13.28125 18.9375 -11.515625 
Q 21 -9.765625 23.484375 -3.21875 
L 25.09375 0.875 
L 2.984375 54.6875 
L 12.5 54.6875 
L 29.59375 11.921875 
L 46.6875 54.6875 
L 56.203125 54.6875 
z
" id="DejaVuSans-121"/>
      <path d="M 56.203125 29.59375 
L 56.203125 25.203125 
L 14.890625 25.203125 
Q 15.484375 15.921875 20.484375 11.0625 
Q 25.484375 6.203125 34.421875 6.203125 
Q 39.59375 6.203125 44.453125 7.46875 
Q 49.3125 8.734375 54.109375 11.28125 
L 54.109375 2.78125 
Q 49.265625 0.734375 44.1875 -0.34375 
Q 39.109375 -1.421875 33.890625 -1.421875 
Q 20.796875 -1.421875 13.15625 6.1875 
Q 5.515625 13.8125 5.515625 26.8125 
Q 5.515625 40.234375 12.765625 48.109375 
Q 20.015625 56 32.328125 56 
Q 43.359375 56 49.78125 48.890625 
Q 56.203125 41.796875 56.203125 29.59375 
z
M 47.21875 32.234375 
Q 47.125 39.59375 43.09375 43.984375 
Q 39.0625 48.390625 32.421875 48.390625 
Q 24.90625 48.390625 20.390625 44.140625 
Q 15.875 39.890625 15.1875 32.171875 
z
" id="DejaVuSans-101"/>
      <path d="M 44.28125 53.078125 
L 44.28125 44.578125 
Q 40.484375 46.53125 36.375 47.5 
Q 32.28125 48.484375 27.875 48.484375 
Q 21.1875 48.484375 17.84375 46.4375 
Q 14.5 44.390625 14.5 40.28125 
Q 14.5 37.15625 16.890625 35.375 
Q 19.28125 33.59375 26.515625 31.984375 
L 29.59375 31.296875 
Q 39.15625 29.25 43.1875 25.515625 
Q 47.21875 21.78125 47.21875 15.09375 
Q 47.21875 7.46875 41.1875 3.015625 
Q 35.15625 -1.421875 24.609375 -1.421875 
Q 20.21875 -1.421875 15.453125 -0.5625 
Q 10.6875 0.296875 5.421875 2 
L 5.421875 11.28125 
Q 10.40625 8.6875 15.234375 7.390625 
Q 20.0625 6.109375 24.8125 6.109375 
Q 31.15625 6.109375 34.5625 8.28125 
Q 37.984375 10.453125 37.984375 14.40625 
Q 37.984375 18.0625 35.515625 20.015625 
Q 33.0625 21.96875 24.703125 23.78125 
L 21.578125 24.515625 
Q 13.234375 26.265625 9.515625 29.90625 
Q 5.8125 33.546875 5.8125 39.890625 
Q 5.8125 47.609375 11.28125 51.796875 
Q 16.75 56 26.8125 56 
Q 31.78125 56 36.171875 55.265625 
Q 40.578125 54.546875 44.28125 53.078125 
z
" id="DejaVuSans-115"/>
      <path d="M 8.015625 75.875 
L 15.828125 75.875 
Q 23.140625 64.359375 26.78125 53.3125 
Q 30.421875 42.28125 30.421875 31.390625 
Q 30.421875 20.453125 26.78125 9.375 
Q 23.140625 -1.703125 15.828125 -13.1875 
L 8.015625 -13.1875 
Q 14.5 -2 17.703125 9.0625 
Q 20.90625 20.125 20.90625 31.390625 
Q 20.90625 42.671875 17.703125 53.65625 
Q 14.5 64.65625 8.015625 75.875 
z
" id="DejaVuSans-41"/>
     </defs>
     <g transform="translate(72.746563 211.294896)rotate(-90)scale(0.1 -0.1)">
      <use xlink:href="#DejaVuSans-40"/>
      <use x="39.013672" xlink:href="#DejaVuSans-98"/>
      <use x="102.490234" xlink:href="#DejaVuSans-121"/>
      <use x="161.669922" xlink:href="#DejaVuSans-116"/>
      <use x="200.878906" xlink:href="#DejaVuSans-101"/>
      <use x="262.402344" xlink:href="#DejaVuSans-115"/>
      <use x="314.501953" xlink:href="#DejaVuSans-41"/>
     </g>
    </g>
   </g>
   <g id="line2d_16">
    <path clip-path="url(#p0692a59718)" d="M 153.6806 188.13216 
L 154.271345 297.584029 
L 154.862091 291.608989 
L 155.452837 293.781731 
L 156.043582 293.781731 
L 156.634328 295.411287 
L 157.225074 279.658909 
L 157.815819 255.758749 
L 158.406565 222.624436 
L 158.997311 239.463185 
L 159.588056 147.936437 
L 160.178802 254.672378 
L 160.769548 135.714764 
L 161.360293 244.89504 
L 161.951039 150.923957 
L 162.541785 263.363345 
L 163.723276 58.58243 
L 164.314022 177.811637 
L 164.904767 102.852044 
L 165.495513 319.58304 
L 166.086259 272.325905 
L 166.677004 321.212596 
L 167.26775 325.014894 
L 167.858496 323.65693 
L 168.449241 325.286487 
L 169.039987 324.743301 
L 169.630733 325.286487 
L 170.221478 325.55808 
L 170.812224 325.55808 
L 171.40297 328.5456 
L 171.993715 328.5456 
L 172.584461 333.434269 
L 173.175207 330.175156 
L 174.356698 330.718341 
L 174.947444 330.718341 
L 175.538189 330.989934 
L 176.128935 332.347898 
L 176.719681 331.261527 
L 177.310426 320.66941 
L 177.901172 300.843141 
L 178.491918 277.214574 
L 179.082663 311.706851 
L 179.673409 308.990923 
L 180.264155 293.510138 
L 181.445646 276.942982 
L 182.036392 273.955462 
L 182.627137 268.7952 
L 183.217883 271.78272 
L 183.808629 249.512116 
L 184.399374 256.84512 
L 184.99012 255.758749 
L 185.580866 257.116713 
L 186.171611 257.931491 
L 186.762357 253.586007 
L 187.353103 244.080262 
L 187.943848 247.610967 
L 188.534594 250.055302 
L 189.12534 262.82016 
L 189.716085 90.901964 
L 190.306831 151.19555 
L 190.897577 154.997848 
L 191.488322 246.524596 
L 192.079068 259.017862 
L 192.669814 95.790633 
L 193.260559 133.27043 
L 193.851305 269.609978 
L 194.442051 275.041833 
L 195.032796 263.091753 
L 195.623542 267.437236 
L 196.214288 266.622458 
L 196.805033 269.881571 
L 197.395779 274.77024 
L 197.986525 273.140683 
L 198.57727 233.488145 
L 199.168016 279.387316 
L 199.758762 269.066793 
L 200.349507 269.881571 
L 200.940253 270.967942 
L 201.530999 300.028363 
L 202.121744 308.990923 
L 202.71249 320.126225 
L 203.303236 319.039854 
L 203.893981 318.768261 
L 204.484727 316.323927 
L 205.075473 317.410298 
L 205.666218 319.311447 
L 206.256964 317.138705 
L 206.84771 316.052334 
L 207.438455 315.509149 
L 208.029201 316.867112 
L 208.619947 314.694371 
L 209.210692 315.237556 
L 209.801438 315.237556 
L 210.392184 317.953483 
L 210.982929 314.422778 
L 211.573675 316.59552 
L 212.164421 314.151185 
L 212.755166 314.694371 
L 213.345912 351.902574 
L 213.936658 286.991912 
L 214.527403 322.842152 
L 215.118149 324.200116 
L 215.708895 325.014894 
L 216.29964 326.372858 
L 216.890386 326.101265 
L 217.481132 328.002414 
L 218.071877 323.928523 
L 218.662623 326.372858 
L 219.253369 323.113745 
L 219.844114 323.928523 
L 220.43486 323.385338 
L 221.616351 323.385338 
L 223.388588 324.200116 
L 223.979334 324.200116 
L 224.57008 326.916043 
L 225.160825 332.891083 
L 225.751571 324.743301 
L 226.342317 325.829672 
L 226.933062 329.63197 
L 227.523808 329.63197 
L 228.114554 328.817192 
L 228.705299 330.446749 
L 229.296045 329.360378 
L 229.886791 332.076305 
L 230.477536 328.817192 
L 231.068282 331.53312 
L 231.659028 329.360378 
L 232.249773 329.360378 
L 232.840519 328.002414 
L 233.431265 328.5456 
L 234.612756 325.55808 
L 235.203502 326.101265 
L 235.794247 325.286487 
L 236.384993 325.286487 
L 236.975739 324.471709 
L 237.566484 351.902574 
L 238.15723 325.829672 
L 238.747976 328.817192 
L 239.338721 329.63197 
L 239.929467 332.076305 
L 240.520213 329.360378 
L 241.110958 333.977454 
L 241.701704 329.088785 
L 242.29245 331.53312 
L 242.883195 328.002414 
L 243.473941 329.088785 
L 244.064687 328.002414 
L 244.655432 327.459229 
L 245.246178 325.829672 
L 245.836924 324.743301 
L 246.427669 324.200116 
L 247.018415 323.113745 
L 247.609161 325.55808 
L 248.199906 321.755781 
L 248.790652 322.298967 
L 249.381398 333.162676 
L 249.972143 272.054313 
L 250.562889 308.990923 
L 251.153635 317.138705 
L 251.74438 322.57056 
L 252.335126 320.66941 
L 252.925872 323.65693 
L 253.516617 320.941003 
L 254.107363 322.57056 
L 254.698109 320.66941 
L 255.288854 323.928523 
L 255.8796 322.298967 
L 256.470346 323.113745 
L 257.061091 322.298967 
L 257.651837 324.200116 
L 258.242583 323.385338 
L 258.833328 323.928523 
L 259.424074 324.200116 
L 260.01482 323.385338 
L 260.605565 323.113745 
L 261.196311 323.65693 
L 261.787057 351.902574 
L 262.377802 328.274007 
L 262.968548 329.088785 
L 263.559294 330.446749 
L 264.150039 329.63197 
L 264.740785 329.63197 
L 265.331531 329.360378 
L 265.922276 327.730821 
L 266.513022 328.274007 
L 267.103768 326.372858 
L 267.694513 326.372858 
L 268.285259 325.829672 
L 268.876005 327.187636 
L 269.46675 326.916043 
L 270.057496 325.55808 
L 270.648242 328.002414 
L 271.238987 325.829672 
L 271.829733 328.817192 
L 272.420479 325.014894 
L 273.011224 327.459229 
L 273.60197 335.60701 
L 274.192716 308.176145 
L 274.783461 324.200116 
L 275.374207 329.360378 
L 275.964953 328.817192 
L 276.555698 328.5456 
L 277.146444 330.718341 
L 277.73719 328.5456 
L 278.327935 328.817192 
L 278.918681 329.360378 
L 279.509427 330.446749 
L 280.100172 329.903563 
L 280.690918 330.718341 
L 281.281664 328.817192 
L 281.872409 332.61949 
L 282.463155 328.5456 
L 283.053901 331.804712 
L 283.644646 328.5456 
L 284.235392 330.718341 
L 284.826138 329.63197 
L 285.416883 329.63197 
L 286.007629 351.902574 
L 286.598375 330.989934 
L 287.18912 332.076305 
L 287.779866 332.891083 
L 288.370612 333.977454 
L 288.961357 333.434269 
L 289.552103 335.063825 
L 290.142849 333.705861 
L 290.733594 334.792232 
L 291.32434 333.705861 
L 291.915086 333.977454 
L 292.505831 333.705861 
L 293.096577 332.61949 
L 293.687323 333.434269 
L 294.278068 331.261527 
L 294.868814 332.076305 
L 295.45956 330.718341 
L 296.050305 331.804712 
L 296.641051 330.175156 
L 297.231797 332.076305 
L 297.822542 328.5456 
L 298.413288 274.77024 
L 299.004034 296.769251 
L 299.594779 309.534109 
L 300.185525 306.003403 
L 300.776271 312.521629 
L 301.367016 306.003403 
L 301.957762 313.336407 
L 302.548508 307.63296 
L 303.139253 316.052334 
L 303.729999 308.447738 
L 304.320745 315.509149 
L 304.91149 310.62048 
L 305.502236 317.410298 
L 306.092982 313.879592 
L 306.683727 317.68189 
L 307.274473 314.694371 
L 307.865219 316.052334 
L 308.455964 315.780741 
L 309.04671 314.422778 
L 309.637456 315.509149 
L 310.228201 304.64544 
L 310.818947 254.129193 
L 311.409693 301.929512 
L 312.000438 307.361367 
L 312.591184 307.089774 
L 313.18193 308.719331 
L 313.772675 309.534109 
L 314.363421 311.978443 
L 314.954167 311.706851 
L 315.544912 313.064814 
L 316.135658 313.064814 
L 316.726404 314.151185 
L 317.317149 314.965963 
L 317.907895 314.694371 
L 318.498641 314.965963 
L 319.089386 316.052334 
L 319.680132 315.237556 
L 320.270878 317.953483 
L 320.861623 316.59552 
L 321.452369 320.941003 
L 322.043115 351.902574 
L 322.63386 279.387316 
L 323.224606 295.411287 
L 323.815352 303.287476 
L 324.406097 305.460218 
L 324.996843 306.546589 
L 325.587589 307.089774 
L 326.178334 308.990923 
L 326.76908 307.904552 
L 327.359826 309.262516 
L 327.950571 307.904552 
L 328.541317 310.348887 
L 329.132063 309.262516 
L 329.722808 311.978443 
L 330.313554 308.990923 
L 330.9043 313.064814 
L 331.495045 311.978443 
L 332.085791 316.052334 
L 332.676537 313.879592 
L 333.267282 320.397818 
L 333.858028 313.608 
L 334.448774 320.397818 
L 335.039519 304.102254 
L 335.630265 316.59552 
L 336.221011 319.58304 
L 336.811756 316.052334 
L 337.402502 319.58304 
L 337.993248 316.867112 
L 338.583993 319.039854 
L 339.174739 316.052334 
L 339.765485 317.68189 
L 340.35623 317.953483 
L 340.946976 318.768261 
L 341.537722 321.212596 
L 342.128467 322.298967 
L 342.719213 321.212596 
L 343.309959 321.755781 
L 343.900704 323.65693 
L 344.49145 322.842152 
L 345.082196 323.65693 
L 345.672941 323.928523 
L 346.263687 351.902574 
L 346.854433 300.028363 
L 347.445178 261.462196 
L 348.035924 315.509149 
L 348.62667 314.422778 
L 349.217415 315.237556 
L 349.808161 315.780741 
L 350.398907 315.509149 
L 350.989652 316.59552 
L 351.580398 314.694371 
L 352.171144 316.59552 
L 352.761889 316.323927 
L 353.352635 316.323927 
L 353.943381 317.138705 
L 354.534126 317.410298 
L 355.124872 316.59552 
L 355.715618 317.953483 
L 356.306363 314.694371 
L 356.897109 319.854632 
L 357.487855 316.323927 
L 358.0786 321.212596 
L 358.669346 330.446749 
L 359.260092 316.052334 
L 359.850837 322.842152 
L 360.441583 323.385338 
L 361.032329 321.755781 
L 361.623074 323.113745 
L 362.21382 322.842152 
L 362.804566 324.200116 
L 363.395311 320.66941 
L 363.986057 323.385338 
L 364.576803 319.58304 
L 365.167548 324.471709 
L 365.758294 318.768261 
L 366.34904 323.65693 
L 366.939785 319.311447 
L 367.530531 323.113745 
L 368.121277 320.126225 
L 368.712022 321.484189 
L 369.302768 321.484189 
L 369.893514 320.941003 
L 370.484259 351.902574 
L 371.075005 301.386327 
L 371.665751 312.250036 
L 372.256496 318.496669 
L 372.847242 312.250036 
L 373.437988 313.879592 
L 374.028733 313.064814 
L 374.619479 314.422778 
L 375.210225 313.879592 
L 375.80097 314.422778 
L 376.982462 316.052334 
L 377.573207 316.323927 
L 378.163953 318.225076 
L 378.754699 315.237556 
L 379.345444 319.039854 
L 379.93619 315.509149 
L 380.526936 321.484189 
L 381.117681 316.59552 
L 381.708427 322.298967 
L 382.299173 315.509149 
L 382.889918 325.829672 
L 383.480664 320.397818 
L 384.07141 322.842152 
L 384.662155 323.113745 
L 385.252901 324.200116 
L 385.843647 326.916043 
L 386.434392 325.014894 
L 387.025138 323.928523 
L 388.206629 325.55808 
L 388.797375 325.829672 
L 389.388121 323.113745 
L 389.978866 326.101265 
L 390.569612 323.385338 
L 391.160358 327.187636 
L 391.751103 323.385338 
L 392.341849 326.372858 
L 392.932595 325.55808 
L 393.52334 327.459229 
L 394.114086 324.200116 
L 394.704832 351.902574 
L 395.295577 298.127214 
L 395.886323 311.163665 
L 396.477069 314.694371 
L 397.067814 313.064814 
L 397.65856 313.064814 
L 398.249306 316.59552 
L 398.840051 311.435258 
L 399.430797 317.410298 
L 400.021543 312.793221 
L 400.612288 319.039854 
L 401.203034 312.250036 
L 401.79378 317.953483 
L 402.384525 313.336407 
L 402.975271 314.965963 
L 404.156762 312.793221 
L 404.747508 314.694371 
L 405.338254 312.793221 
L 405.928999 314.965963 
L 406.519745 313.608 
L 407.110491 325.829672 
L 407.701236 318.768261 
L 408.291982 327.730821 
L 408.882728 328.5456 
L 409.473473 330.446749 
L 410.064219 328.5456 
L 410.654965 331.53312 
L 411.24571 329.360378 
L 411.836456 329.63197 
L 412.427202 330.175156 
L 413.017947 330.175156 
L 413.608693 330.446749 
L 414.199439 329.360378 
L 414.790184 330.989934 
L 415.38093 329.360378 
L 415.971676 329.360378 
L 416.562421 329.63197 
L 417.153167 330.175156 
L 417.743913 328.817192 
L 418.334658 331.53312 
L 418.925404 351.902574 
L 419.51615 316.052334 
L 420.106895 324.200116 
L 420.697641 323.928523 
L 421.288387 321.755781 
L 421.879132 322.57056 
L 422.469878 320.941003 
L 423.060624 323.385338 
L 423.65137 320.397818 
L 424.242115 326.64445 
L 424.832861 319.58304 
L 425.423607 323.385338 
L 426.014352 318.768261 
L 426.605098 322.842152 
L 427.195844 317.68189 
L 427.786589 320.941003 
L 428.377335 315.509149 
L 428.968081 318.768261 
L 429.558826 315.509149 
L 430.149572 313.336407 
L 430.740318 314.694371 
L 431.331063 317.68189 
L 431.921809 259.289454 
L 432.512555 313.336407 
L 433.1033 315.237556 
L 433.694046 315.509149 
L 434.284792 316.323927 
L 434.875537 316.323927 
L 435.466283 318.768261 
L 436.057029 316.323927 
L 436.647774 321.484189 
L 437.23852 317.953483 
L 437.829266 322.842152 
L 438.420011 319.311447 
L 439.010757 322.57056 
L 439.601503 317.68189 
L 440.192248 321.212596 
L 440.782994 317.953483 
L 441.37374 319.58304 
L 441.964485 319.854632 
L 442.555231 321.212596 
L 443.145977 351.902574 
L 443.736722 315.780741 
L 444.327468 322.027374 
L 444.918214 322.57056 
L 445.508959 323.65693 
L 446.099705 322.57056 
L 446.690451 323.113745 
L 447.281196 323.113745 
L 447.871942 322.57056 
L 448.462688 322.298967 
L 449.644179 323.928523 
L 450.234925 325.55808 
L 450.82567 323.65693 
L 451.416416 327.459229 
L 452.007162 325.829672 
L 452.597907 326.916043 
L 453.188653 325.55808 
L 453.779399 325.55808 
L 454.370144 325.829672 
L 454.96089 325.829672 
L 455.551636 332.891083 
L 456.142381 324.200116 
L 456.733127 327.459229 
L 457.323873 328.274007 
L 457.914618 327.459229 
L 458.505364 327.187636 
L 459.09611 327.187636 
L 459.686855 328.002414 
L 460.277601 326.916043 
L 460.868347 328.5456 
L 461.459092 327.187636 
L 462.049838 329.360378 
L 462.640584 329.63197 
L 463.231329 332.076305 
L 463.822075 328.274007 
L 464.412821 332.347898 
L 465.003566 329.088785 
L 465.594312 330.718341 
L 466.185058 330.175156 
L 466.775803 329.903563 
L 467.366549 351.902574 
L 467.957295 320.941003 
L 468.54804 328.002414 
L 469.138786 330.446749 
L 469.729532 330.989934 
L 470.320277 328.817192 
L 470.911023 328.274007 
L 471.501769 329.63197 
L 472.092514 328.817192 
L 472.092514 328.817192 
" style="fill:none;stroke:#1f77b4;stroke-linecap:square;stroke-width:1.5;"/>
   </g>
   <g id="line2d_17">
    <path clip-path="url(#p0692a59718)" d="M 146.636548 270.424756 
L 147.227294 267.165643 
L 147.81804 269.609978 
L 148.408785 279.658909 
L 148.999531 60.755172 
L 149.590277 297.312436 
L 150.181022 308.719331 
L 150.771768 313.336407 
L 151.362514 224.253993 
L 151.953259 322.57056 
L 152.544005 324.471709 
L 153.134751 329.63197 
L 153.725496 317.410298 
L 154.316242 335.063825 
L 154.906988 337.236567 
L 155.497733 335.063825 
L 156.088479 336.150196 
L 157.26997 336.150196 
L 157.860716 338.322938 
L 158.451462 324.200116 
L 159.042207 327.730821 
L 159.632953 308.719331 
L 160.223699 328.274007 
L 160.814444 326.916043 
L 161.40519 320.941003 
L 161.995936 294.868102 
L 162.586681 322.842152 
L 163.177427 293.238545 
L 163.768173 273.955462 
L 164.358918 269.609978 
L 164.949664 260.104233 
L 165.54041 286.72032 
L 166.131155 289.164654 
L 166.721901 300.571549 
L 167.312647 306.003403 
L 168.494138 310.62048 
L 169.084884 311.435258 
L 169.675629 315.780741 
L 170.266375 316.323927 
L 171.447866 319.58304 
L 172.038612 319.854632 
L 172.629358 318.225076 
L 173.220103 319.854632 
L 173.810849 320.66941 
L 174.401595 321.212596 
L 174.99234 322.57056 
L 175.583086 322.842152 
L 176.173832 325.829672 
L 176.764577 324.743301 
L 177.355323 332.61949 
L 177.946069 325.286487 
L 178.536814 332.347898 
L 179.12756 335.063825 
L 179.718306 335.60701 
L 180.899797 337.779752 
L 181.490543 340.224087 
L 182.081288 339.952494 
L 182.672034 340.495679 
L 183.26278 341.853643 
L 184.444271 341.853643 
L 185.035017 342.396829 
L 185.625762 342.668421 
L 186.216508 342.668421 
L 186.807254 342.940014 
L 187.397999 342.668421 
L 187.988745 342.668421 
L 188.579491 342.940014 
L 189.170236 351.902574 
L 190.351728 328.817192 
L 190.942473 337.508159 
L 191.533219 326.372858 
L 192.123965 330.989934 
L 192.71471 331.261527 
L 194.486947 335.60701 
L 195.077693 333.705861 
L 195.668439 330.446749 
L 196.259184 330.718341 
L 196.84993 330.446749 
L 197.440676 331.804712 
L 198.031421 331.261527 
L 198.622167 330.989934 
L 199.212913 330.175156 
L 199.803658 331.804712 
L 200.394404 332.61949 
L 200.98515 330.718341 
L 201.575895 320.126225 
L 202.166641 327.730821 
L 202.757387 325.286487 
L 203.348132 329.63197 
L 203.938878 326.916043 
L 204.529624 327.187636 
L 205.120369 325.55808 
L 205.711115 325.55808 
L 206.301861 326.372858 
L 206.892606 325.55808 
L 207.483352 326.916043 
L 208.074098 327.187636 
L 209.255589 328.817192 
L 209.846335 329.360378 
L 210.43708 328.817192 
L 211.027826 331.261527 
L 211.618572 329.360378 
L 212.209317 333.705861 
L 212.800063 330.718341 
L 213.390809 333.705861 
L 213.981554 306.818181 
L 214.5723 316.867112 
L 215.163046 318.496669 
L 215.753791 318.768261 
L 216.344537 318.768261 
L 216.935283 324.743301 
L 217.526028 319.854632 
L 218.116774 321.484189 
L 218.70752 321.212596 
L 219.298265 322.298967 
L 219.889011 322.298967 
L 220.479757 321.755781 
L 221.070502 322.298967 
L 221.661248 322.57056 
L 222.251994 322.298967 
L 222.842739 324.471709 
L 223.433485 323.385338 
L 224.024231 327.459229 
L 224.614976 323.385338 
L 225.205722 351.902574 
L 225.796468 306.003403 
L 226.387213 318.225076 
L 226.977959 319.58304 
L 227.568705 322.027374 
L 228.15945 320.941003 
L 229.340942 317.953483 
L 229.931687 318.496669 
L 230.522433 318.768261 
L 231.113179 318.225076 
L 231.703924 319.58304 
L 232.29467 318.768261 
L 232.885416 320.66941 
L 233.476161 320.941003 
L 234.066907 321.755781 
L 234.657653 322.298967 
L 235.248398 323.385338 
L 235.839144 322.842152 
L 236.42989 324.200116 
L 237.020635 323.65693 
L 237.611381 329.63197 
L 238.202127 302.744291 
L 238.792872 317.138705 
L 239.383618 319.311447 
L 239.974364 320.397818 
L 240.565109 319.854632 
L 241.155855 322.298967 
L 241.746601 321.484189 
L 242.337346 321.755781 
L 242.928092 323.113745 
L 243.518838 322.842152 
L 244.109583 321.484189 
L 244.700329 323.928523 
L 245.291075 322.57056 
L 245.88182 325.286487 
L 246.472566 323.385338 
L 247.063312 327.459229 
L 247.654057 324.200116 
L 248.244803 326.916043 
L 248.835549 323.113745 
L 249.426294 351.902574 
L 250.01704 268.252014 
L 250.607786 258.203084 
L 251.198531 313.336407 
L 251.789277 317.138705 
L 252.380023 316.59552 
L 252.970768 316.59552 
L 253.561514 315.237556 
L 254.15226 315.509149 
L 254.743005 316.323927 
L 255.333751 314.694371 
L 255.924497 318.496669 
L 256.515242 316.323927 
L 257.105988 318.225076 
L 257.696734 317.138705 
L 258.287479 319.854632 
L 258.878225 317.953483 
L 259.468971 322.027374 
L 260.059716 319.854632 
L 260.650462 323.385338 
L 261.241208 324.200116 
L 261.831953 317.68189 
L 262.422699 277.214574 
L 263.013445 303.830661 
L 263.60419 313.064814 
L 264.194936 307.361367 
L 264.785682 314.151185 
L 265.376427 308.447738 
L 265.967173 314.422778 
L 266.557919 310.348887 
L 267.148664 313.879592 
L 267.73941 310.62048 
L 268.330156 313.608 
L 268.920901 312.250036 
L 269.511647 319.039854 
L 270.102393 314.694371 
L 270.693138 314.694371 
L 271.283884 316.052334 
L 271.87463 316.59552 
L 272.465375 317.410298 
L 273.056121 320.126225 
L 273.646867 351.902574 
L 274.237612 269.338385 
L 274.828358 306.003403 
L 276.009849 318.768261 
L 276.600595 314.694371 
L 277.191341 317.410298 
L 277.782086 314.694371 
L 278.372832 316.323927 
L 278.963578 315.237556 
L 279.554323 315.237556 
L 280.145069 319.039854 
L 280.735815 313.879592 
L 281.32656 315.237556 
L 281.917306 314.694371 
L 282.508052 315.780741 
L 283.098797 317.138705 
L 283.689543 316.052334 
L 284.280289 316.59552 
L 284.871034 318.768261 
L 285.46178 315.780741 
L 286.052526 329.360378 
L 286.643271 299.485178 
L 287.234017 311.163665 
L 287.824763 312.793221 
L 288.415508 316.052334 
L 289.006254 315.780741 
L 289.597 315.237556 
L 290.187745 310.892072 
L 290.778491 314.694371 
L 291.369237 311.163665 
L 291.959982 311.706851 
L 292.550728 310.348887 
L 293.141474 310.348887 
L 293.732219 311.163665 
L 294.322965 311.163665 
L 294.913711 315.509149 
L 295.504456 311.435258 
L 296.095202 312.793221 
L 296.685948 313.608 
L 297.276693 317.410298 
L 297.867439 352.174167 
L 298.458185 304.102254 
L 299.04893 325.55808 
L 299.639676 328.817192 
L 300.230422 329.360378 
L 300.821167 328.5456 
L 301.411913 327.459229 
L 302.002659 327.459229 
L 302.593404 326.916043 
L 303.18415 326.916043 
L 303.774896 325.55808 
L 304.365641 324.743301 
L 304.956387 323.65693 
L 305.547133 324.200116 
L 306.137878 321.755781 
L 306.728624 322.027374 
L 307.31937 322.027374 
L 307.910115 321.755781 
L 308.500861 323.65693 
L 309.091607 323.385338 
L 309.682352 323.385338 
L 310.273098 299.213585 
L 310.863844 290.251025 
L 311.454589 324.200116 
L 312.045335 325.829672 
L 312.636081 326.372858 
L 313.226826 326.64445 
L 313.817572 325.829672 
L 314.408318 326.64445 
L 314.999063 326.916043 
L 315.589809 326.64445 
L 316.180555 326.64445 
L 316.7713 325.55808 
L 317.362046 325.829672 
L 317.952792 326.916043 
L 318.543537 325.55808 
L 319.134283 329.088785 
L 319.725029 324.471709 
L 320.315774 328.274007 
L 320.90652 323.928523 
L 321.497266 325.286487 
L 322.088011 351.902574 
L 322.678757 311.163665 
L 323.269503 329.63197 
L 323.860248 330.718341 
L 324.450994 330.718341 
L 325.04174 332.076305 
L 325.632485 330.446749 
L 326.223231 333.705861 
L 326.813977 332.61949 
L 327.404722 332.891083 
L 327.995468 330.175156 
L 328.586214 332.076305 
L 329.176959 328.817192 
L 329.767705 329.903563 
L 330.358451 330.175156 
L 330.949196 326.916043 
L 331.539942 326.372858 
L 332.130688 324.471709 
L 332.721433 324.471709 
L 333.312179 323.65693 
L 333.902925 324.471709 
L 334.49367 295.954472 
L 335.084416 313.879592 
L 335.675162 323.113745 
L 336.265907 323.385338 
L 336.856653 322.57056 
L 337.447399 324.200116 
L 338.038144 323.113745 
L 338.62889 323.65693 
L 339.219636 322.842152 
L 339.810381 324.743301 
L 340.401127 324.471709 
L 340.991873 327.730821 
L 341.582618 326.372858 
L 342.173364 327.730821 
L 342.76411 326.64445 
L 343.354855 330.175156 
L 343.945601 328.002414 
L 344.536347 328.5456 
L 345.127092 327.730821 
L 345.717838 330.175156 
L 346.308584 351.902574 
L 346.899329 321.755781 
L 347.490075 331.261527 
L 348.080821 330.446749 
L 348.671566 330.718341 
L 349.262312 329.63197 
L 349.853058 331.261527 
L 350.443803 328.274007 
L 351.034549 330.989934 
L 351.625295 328.274007 
L 352.21604 331.261527 
L 352.806786 328.5456 
L 353.397532 329.360378 
L 353.988277 329.088785 
L 354.579023 328.5456 
L 355.760514 328.5456 
L 356.35126 327.730821 
L 356.942006 328.5456 
L 357.532751 328.817192 
L 358.123497 328.274007 
L 358.714243 333.162676 
L 359.304988 331.53312 
L 359.895734 332.61949 
L 360.48648 331.53312 
L 361.077225 331.53312 
L 361.667971 331.261527 
L 362.258717 332.076305 
L 362.849462 331.53312 
L 363.440208 333.162676 
L 364.030954 331.804712 
L 364.621699 333.434269 
L 365.212445 331.53312 
L 365.803191 332.076305 
L 366.393936 331.261527 
L 366.984682 329.360378 
L 367.575428 330.446749 
L 368.166173 330.175156 
L 368.756919 330.718341 
L 369.347665 329.63197 
L 369.93841 329.903563 
L 370.529156 352.174167 
L 371.119902 335.063825 
L 372.301393 337.779752 
L 372.892139 335.878603 
L 373.482884 337.508159 
L 374.07363 334.520639 
L 374.664376 337.508159 
L 375.255121 331.53312 
L 375.845867 335.063825 
L 376.436613 330.175156 
L 377.027358 330.989934 
L 377.618104 328.5456 
L 380.571832 328.5456 
L 381.162578 328.274007 
L 381.753324 329.360378 
L 382.344069 330.175156 
L 382.934815 313.336407 
L 383.525561 315.237556 
L 384.116306 317.953483 
L 384.707052 316.323927 
L 385.297798 318.768261 
L 385.888543 317.953483 
L 386.479289 318.496669 
L 387.070035 317.68189 
L 387.66078 318.225076 
L 388.251526 318.496669 
L 388.842272 319.311447 
L 389.433017 321.484189 
L 390.023763 321.484189 
L 390.614509 317.410298 
L 391.205254 323.928523 
L 391.796 318.225076 
L 392.386746 323.113745 
L 392.977491 317.138705 
L 393.568237 322.57056 
L 394.158983 316.323927 
L 394.749728 330.175156 
L 395.340474 310.892072 
L 395.93122 323.65693 
L 396.521965 322.57056 
L 397.112711 326.916043 
L 397.703457 323.65693 
L 398.884948 323.65693 
L 399.475694 323.928523 
L 400.066439 324.471709 
L 400.657185 323.928523 
L 401.247931 325.014894 
L 401.838676 323.65693 
L 402.429422 324.471709 
L 403.020168 323.65693 
L 403.610913 324.471709 
L 404.201659 323.65693 
L 404.792405 325.286487 
L 405.38315 323.65693 
L 405.973896 324.471709 
L 406.564642 351.902574 
L 407.155387 283.189614 
L 407.746133 255.758749 
L 408.336879 299.756771 
L 408.927624 305.731811 
L 409.51837 308.176145 
L 410.109116 306.274996 
L 410.699861 308.719331 
L 411.290607 309.262516 
L 411.881353 308.990923 
L 412.472098 309.262516 
L 413.062844 311.706851 
L 413.65359 310.62048 
L 414.244335 313.064814 
L 415.425827 315.509149 
L 416.016572 311.706851 
L 416.607318 316.052334 
L 417.198064 312.521629 
L 417.78881 317.953483 
L 418.379555 312.793221 
L 418.970301 328.817192 
L 419.561047 296.497658 
L 420.151792 313.336407 
L 420.742538 313.064814 
L 421.333284 318.496669 
L 421.924029 314.422778 
L 422.514775 322.027374 
L 423.105521 316.867112 
L 423.696266 323.113745 
L 424.287012 319.039854 
L 424.877758 322.842152 
L 425.468503 319.311447 
L 426.059249 321.755781 
L 426.649995 322.842152 
L 427.24074 322.027374 
L 427.831486 323.385338 
L 428.422232 323.65693 
L 429.012977 328.274007 
L 429.603723 324.743301 
L 430.194469 325.829672 
L 430.785214 346.742312 
L 431.37596 305.460218 
L 431.966706 315.237556 
L 432.557451 321.484189 
L 433.148197 319.311447 
L 433.738943 320.126225 
L 434.329688 322.298967 
L 434.920434 320.126225 
L 435.51118 319.039854 
L 436.101925 320.397818 
L 436.692671 319.039854 
L 437.283417 321.755781 
L 437.874162 317.953483 
L 438.464908 322.57056 
L 439.055654 318.496669 
L 439.646399 322.298967 
L 440.237145 321.755781 
L 440.827891 322.298967 
L 441.418636 319.039854 
L 442.009382 319.58304 
L 442.600128 317.138705 
L 443.190873 347.013905 
L 443.781619 287.263505 
L 444.372365 303.830661 
L 445.553856 309.534109 
L 446.144602 306.818181 
L 446.735347 310.62048 
L 447.326093 308.176145 
L 447.916839 311.435258 
L 448.507584 307.361367 
L 449.09833 309.805701 
L 449.689076 307.904552 
L 450.279821 310.348887 
L 450.870567 309.534109 
L 451.461313 312.250036 
L 452.052058 312.793221 
L 452.642804 313.879592 
L 453.23355 313.879592 
L 453.824295 314.965963 
L 454.415041 315.780741 
L 455.005787 320.397818 
L 455.596532 294.868102 
L 456.187278 301.386327 
L 456.778024 306.003403 
L 457.368769 305.731811 
L 457.959515 307.089774 
L 458.550261 306.274996 
L 459.141006 309.534109 
L 459.731752 307.904552 
L 460.322498 308.176145 
L 460.913243 309.262516 
L 461.503989 308.176145 
L 462.094735 309.534109 
L 462.68548 310.077294 
L 463.276226 310.077294 
L 463.866972 310.62048 
L 464.457717 308.719331 
L 465.048463 310.62048 
L 465.639209 308.176145 
L 465.639209 308.176145 
" style="fill:none;stroke:#ff7f0e;stroke-linecap:square;stroke-width:1.5;"/>
   </g>
   <g id="line2d_18">
    <path clip-path="url(#p0692a59718)" d="M 151.341247 50.163056 
L 151.931992 282.374836 
L 152.522738 295.411287 
L 153.113484 301.114734 
L 153.704229 285.905542 
L 154.294975 326.101265 
L 154.885721 326.101265 
L 155.476466 326.64445 
L 156.067212 326.372858 
L 156.657958 327.730821 
L 157.248703 328.274007 
L 157.839449 331.804712 
L 158.430195 325.829672 
L 159.02094 325.286487 
L 159.611686 322.842152 
L 160.202432 339.409309 
L 160.793177 341.58205 
L 161.383923 340.224087 
L 161.974669 334.520639 
L 162.565414 342.125236 
L 163.15616 333.434269 
L 163.746906 320.66941 
L 164.337651 322.842152 
L 164.928397 314.694371 
L 165.519143 325.55808 
L 166.109888 320.941003 
L 166.700634 326.64445 
L 167.29138 327.187636 
L 167.882125 329.088785 
L 168.472871 325.014894 
L 169.063617 323.928523 
L 169.654362 325.014894 
L 170.245108 323.928523 
L 170.835854 324.200116 
L 171.426599 325.286487 
L 172.017345 323.65693 
L 172.608091 326.64445 
L 173.198836 320.941003 
L 173.789582 319.854632 
L 174.380328 323.113745 
L 174.971073 319.039854 
L 175.561819 319.58304 
L 176.152565 322.298967 
L 176.74331 320.397818 
L 177.334056 281.831651 
L 177.924802 281.831651 
L 178.515547 188.675346 
L 179.106293 300.843141 
L 179.697039 306.818181 
L 180.287784 314.422778 
L 180.87853 317.138705 
L 182.060021 327.730821 
L 182.650767 328.5456 
L 183.241513 330.989934 
L 185.01375 336.693381 
L 186.195241 337.779752 
L 186.785987 338.59453 
L 187.376732 339.680901 
L 188.558224 340.767272 
L 189.148969 351.902574 
L 190.330461 314.694371 
L 190.921206 315.237556 
L 191.511952 328.002414 
L 192.102698 335.063825 
L 192.693443 335.063825 
L 193.284189 336.421789 
L 193.874935 336.693381 
L 194.46568 337.236567 
L 195.056426 336.150196 
L 195.647172 333.434269 
L 196.828663 333.977454 
L 197.419409 334.520639 
L 198.6009 333.977454 
L 199.191646 332.891083 
L 199.782391 333.162676 
L 200.373137 335.335418 
L 201.554628 329.63197 
L 202.145374 339.952494 
L 202.73612 340.767272 
L 203.326865 339.952494 
L 203.917611 337.779752 
L 204.508357 338.322938 
L 205.099102 338.051345 
L 205.689848 337.236567 
L 206.280594 335.60701 
L 206.871339 337.779752 
L 207.462085 335.60701 
L 208.052831 336.964974 
L 208.643576 333.977454 
L 209.234322 333.162676 
L 209.825068 333.705861 
L 210.415813 332.891083 
L 211.006559 332.61949 
L 211.597305 333.434269 
L 212.188051 333.434269 
L 212.778796 332.61949 
L 213.369542 351.902574 
L 213.960288 330.718341 
L 214.551033 335.335418 
L 215.141779 335.335418 
L 215.732525 334.249047 
L 216.32327 335.878603 
L 216.914016 332.347898 
L 217.504762 333.434269 
L 218.095507 331.53312 
L 218.686253 333.162676 
L 219.276999 331.261527 
L 219.867744 330.989934 
L 220.45849 329.63197 
L 221.049236 329.088785 
L 222.230727 328.5456 
L 222.821473 328.817192 
L 224.002964 328.274007 
L 224.59371 328.274007 
L 225.184455 334.792232 
L 225.775201 329.63197 
L 226.365947 332.347898 
L 226.956692 333.434269 
L 227.547438 332.076305 
L 228.138184 333.162676 
L 228.728929 330.446749 
L 229.319675 333.434269 
L 229.910421 329.088785 
L 230.501166 332.891083 
L 231.091912 326.916043 
L 231.682658 329.088785 
L 232.273403 324.743301 
L 232.864149 326.372858 
L 233.454895 323.928523 
L 234.04564 327.730821 
L 234.636386 324.200116 
L 235.227132 323.928523 
L 235.817877 324.200116 
L 236.408623 322.57056 
L 236.999369 323.113745 
L 237.590114 351.902574 
L 238.18086 328.5456 
L 238.771606 332.347898 
L 239.362351 333.977454 
L 239.953097 332.347898 
L 240.543843 333.705861 
L 241.134588 332.347898 
L 241.725334 333.434269 
L 242.31608 330.446749 
L 242.906825 330.175156 
L 243.497571 329.088785 
L 244.088317 329.088785 
L 244.679062 329.360378 
L 245.269808 328.5456 
L 245.860554 328.5456 
L 246.451299 329.088785 
L 247.042045 329.360378 
L 247.632791 328.817192 
L 248.223536 328.817192 
L 248.814282 329.903563 
L 249.405028 338.322938 
L 249.995773 318.496669 
L 250.586519 333.977454 
L 251.177265 336.693381 
L 251.76801 336.693381 
L 252.358756 334.520639 
L 252.949502 335.063825 
L 253.540247 335.063825 
L 254.130993 333.162676 
L 254.721739 333.162676 
L 255.312484 332.61949 
L 255.90323 334.249047 
L 256.493976 332.891083 
L 257.084721 332.076305 
L 257.675467 333.434269 
L 258.856958 332.891083 
L 259.447704 330.175156 
L 260.03845 333.705861 
L 260.629195 330.175156 
L 261.219941 332.347898 
L 261.810687 352.174167 
L 262.401432 301.114734 
L 262.992178 336.150196 
L 263.582924 337.779752 
L 264.173669 338.051345 
L 264.764415 336.421789 
L 265.355161 337.236567 
L 265.945906 336.421789 
L 267.127398 336.964974 
L 267.718143 337.779752 
L 268.308889 335.063825 
L 268.899635 337.508159 
L 269.49038 332.347898 
L 270.081126 332.076305 
L 271.262617 329.63197 
L 271.853363 328.5456 
L 272.444109 329.088785 
L 273.034854 328.5456 
L 273.6256 336.150196 
L 274.216346 300.843141 
L 274.807091 316.052334 
L 275.397837 326.372858 
L 275.988583 328.274007 
L 276.579328 328.274007 
L 277.170074 329.903563 
L 277.76082 329.903563 
L 278.351565 330.175156 
L 278.942311 332.61949 
L 279.533057 330.989934 
L 280.123802 332.61949 
L 280.714548 330.175156 
L 281.305294 330.446749 
L 281.896039 330.446749 
L 282.486785 329.63197 
L 283.077531 330.175156 
L 283.668276 329.088785 
L 284.259022 328.817192 
L 284.849768 329.903563 
L 285.440513 329.63197 
L 286.031259 351.902574 
L 286.622005 330.718341 
L 287.21275 334.792232 
L 288.394242 335.335418 
L 288.984987 333.705861 
L 289.575733 334.520639 
L 290.166479 333.705861 
L 290.757224 335.878603 
L 291.34797 332.891083 
L 291.938716 336.964974 
L 292.529461 333.977454 
L 293.120207 335.063825 
L 293.710953 332.61949 
L 294.301698 331.804712 
L 294.892444 332.61949 
L 295.48319 331.261527 
L 296.073935 332.347898 
L 296.664681 329.63197 
L 297.255427 330.446749 
L 297.846172 334.520639 
L 298.436918 298.941992 
L 299.027664 324.743301 
L 299.618409 327.459229 
L 300.209155 331.261527 
L 300.799901 333.434269 
L 301.390646 328.817192 
L 301.981392 328.274007 
L 302.572138 328.274007 
L 303.162883 328.817192 
L 303.753629 328.5456 
L 304.93512 329.088785 
L 305.525866 328.817192 
L 306.707357 328.817192 
L 307.298103 327.459229 
L 307.888849 329.088785 
L 308.479594 328.002414 
L 309.07034 331.53312 
L 309.661086 328.274007 
L 310.251831 326.64445 
L 310.842577 296.497658 
L 311.433323 328.002414 
L 312.024068 331.804712 
L 312.614814 329.63197 
L 313.20556 332.347898 
L 313.796305 328.274007 
L 314.387051 332.347898 
L 314.977797 328.002414 
L 315.568542 333.162676 
L 316.159288 328.817192 
L 316.750034 329.63197 
L 317.340779 327.187636 
L 317.931525 327.459229 
L 318.522271 327.187636 
L 319.113016 328.002414 
L 321.475999 328.002414 
L 322.066745 351.902574 
L 322.65749 314.151185 
L 323.248236 323.385338 
L 323.838982 325.286487 
L 324.429727 326.372858 
L 325.020473 325.286487 
L 325.611219 325.55808 
L 326.201964 325.55808 
L 326.79271 326.916043 
L 327.383456 326.372858 
L 327.974201 328.274007 
L 328.564947 326.101265 
L 329.155693 329.360378 
L 329.746438 327.187636 
L 330.337184 329.360378 
L 330.92793 327.187636 
L 331.518675 328.274007 
L 332.109421 328.817192 
L 332.700167 329.63197 
L 333.290912 330.718341 
L 333.881658 328.002414 
L 334.472404 324.200116 
L 335.063149 315.237556 
L 335.653895 325.014894 
L 336.244641 324.743301 
L 336.835386 326.372858 
L 337.426132 325.286487 
L 338.016878 324.471709 
L 338.607623 326.372858 
L 339.198369 324.200116 
L 339.789115 325.55808 
L 340.37986 324.471709 
L 340.970606 327.459229 
L 341.561352 325.55808 
L 342.152097 325.829672 
L 342.742843 325.014894 
L 343.333589 329.360378 
L 343.924334 325.55808 
L 344.51508 327.459229 
L 345.105826 325.286487 
L 345.696571 326.101265 
L 346.287317 351.902574 
L 346.878063 313.336407 
L 348.059554 322.027374 
L 348.6503 323.385338 
L 349.241045 325.829672 
L 349.831791 323.385338 
L 350.422537 326.916043 
L 351.013282 323.928523 
L 351.604028 328.274007 
L 352.194774 323.65693 
L 352.785519 327.459229 
L 353.376265 324.471709 
L 353.967011 326.101265 
L 354.557756 323.385338 
L 355.148502 323.385338 
L 355.739248 324.200116 
L 356.329993 322.842152 
L 356.920739 324.200116 
L 357.511485 324.471709 
L 358.10223 324.471709 
L 358.692976 317.138705 
L 359.283722 292.966952 
L 359.874467 312.521629 
L 360.465213 307.361367 
L 361.055959 314.965963 
L 361.646704 308.447738 
L 362.23745 314.422778 
L 362.828196 311.706851 
L 363.418941 315.509149 
L 364.009687 313.879592 
L 364.600433 316.323927 
L 365.191178 314.422778 
L 365.781924 313.336407 
L 366.37267 315.509149 
L 366.963415 314.694371 
L 367.554161 316.323927 
L 368.144907 315.237556 
L 369.326398 315.237556 
L 369.917144 316.323927 
L 370.507889 351.902574 
L 371.098635 296.497658 
L 371.689381 307.63296 
L 372.280126 314.422778 
L 372.870872 310.348887 
L 373.461618 313.608 
L 374.052363 313.064814 
L 374.643109 316.052334 
L 375.233855 315.237556 
L 375.8246 318.496669 
L 376.415346 317.68189 
L 377.006092 321.484189 
L 377.596837 319.58304 
L 378.187583 323.65693 
L 378.778329 317.410298 
L 379.369074 320.397818 
L 379.95982 318.768261 
L 381.141311 320.397818 
L 381.732057 320.397818 
L 382.322803 320.941003 
L 383.504294 328.817192 
L 384.09504 327.459229 
L 384.685785 328.002414 
L 385.276531 327.730821 
L 385.867277 328.274007 
L 386.458022 329.088785 
L 387.048768 329.088785 
L 387.639514 328.002414 
L 388.230259 328.002414 
L 388.821005 327.730821 
L 389.411751 326.916043 
L 390.002496 327.459229 
L 390.593242 326.916043 
L 391.183988 327.459229 
L 391.774733 327.730821 
L 392.365479 327.187636 
L 392.956225 328.817192 
L 393.54697 327.187636 
L 394.137716 329.360378 
L 394.728462 351.902574 
L 395.319207 326.64445 
L 395.909953 332.61949 
L 396.500699 333.705861 
L 397.091444 332.347898 
L 397.68219 332.347898 
L 398.272936 332.891083 
L 398.863681 332.076305 
L 399.454427 330.989934 
L 400.045173 332.891083 
L 400.635918 330.446749 
L 401.226664 332.891083 
L 401.81741 330.175156 
L 402.408155 333.434269 
L 402.998901 330.175156 
L 403.589647 330.989934 
L 404.180392 330.175156 
L 404.771138 329.63197 
L 405.361884 329.63197 
L 405.952629 329.088785 
L 406.543375 329.63197 
L 407.134121 331.53312 
L 407.724866 328.5456 
L 408.315612 333.162676 
L 408.906358 333.705861 
L 409.497103 333.705861 
L 410.087849 333.162676 
L 410.678595 332.347898 
L 411.26934 332.076305 
L 411.860086 330.175156 
L 412.450832 331.804712 
L 413.041577 328.274007 
L 413.632323 331.261527 
L 414.223069 328.002414 
L 414.813814 328.274007 
L 415.40456 328.002414 
L 415.995306 327.459229 
L 416.586051 326.64445 
L 417.176797 326.64445 
L 417.767543 327.187636 
L 418.358288 327.459229 
L 418.949034 351.902574 
L 419.53978 326.916043 
L 420.130525 330.989934 
L 420.721271 331.53312 
L 421.902762 330.989934 
L 422.493508 332.076305 
L 423.084254 330.446749 
L 423.674999 332.347898 
L 424.265745 330.989934 
L 424.856491 332.347898 
L 425.447236 330.175156 
L 426.037982 331.53312 
L 426.628728 329.63197 
L 427.219473 329.360378 
L 427.810219 329.63197 
L 428.400965 329.63197 
L 428.99171 330.718341 
L 429.582456 329.360378 
L 430.763947 330.446749 
L 431.354693 329.088785 
L 431.945439 329.360378 
L 432.536184 335.878603 
L 433.12693 333.705861 
L 433.717676 335.878603 
L 434.308421 333.977454 
L 434.899167 334.792232 
L 435.489913 332.891083 
L 436.080658 332.61949 
L 436.671404 333.434269 
L 437.26215 333.162676 
L 437.852895 332.61949 
L 438.443641 333.162676 
L 439.034387 334.249047 
L 439.625132 332.61949 
L 440.215878 334.792232 
L 440.806624 331.804712 
L 441.397369 334.520639 
L 441.988115 331.804712 
L 442.578861 333.162676 
L 443.169606 351.902574 
L 443.760352 330.175156 
L 444.351098 334.792232 
L 444.941843 334.792232 
L 445.532589 336.964974 
L 446.123335 335.335418 
L 446.71408 339.137716 
L 447.304826 336.421789 
L 447.895572 339.409309 
L 448.486317 334.249047 
L 449.077063 334.792232 
L 449.667809 331.804712 
L 450.258554 330.175156 
L 451.440046 329.088785 
L 452.621537 325.55808 
L 453.212283 326.101265 
L 453.803028 324.200116 
L 454.393774 329.088785 
L 454.98452 324.743301 
L 455.575265 328.002414 
L 456.166011 325.55808 
L 456.756757 328.274007 
L 457.347502 328.5456 
L 457.938248 329.360378 
L 458.528994 327.187636 
L 459.119739 327.730821 
L 459.710485 328.002414 
L 460.301231 327.459229 
L 460.891976 328.274007 
L 461.482722 326.64445 
L 462.073468 330.446749 
L 462.664213 329.088785 
L 463.254959 333.162676 
L 463.845705 329.088785 
L 464.43645 330.989934 
L 465.027196 328.817192 
L 465.617942 330.175156 
L 466.208687 329.63197 
L 466.799433 329.63197 
L 467.390179 351.902574 
L 467.980924 328.002414 
L 468.57167 329.63197 
L 469.162416 333.162676 
L 469.753161 329.360378 
L 469.753161 329.360378 
" style="fill:none;stroke:#2ca02c;stroke-linecap:square;stroke-width:1.5;"/>
   </g>
   <g id="line2d_19">
    <path clip-path="url(#p0692a59718)" d="M 148.955816 100.40771 
L 149.546561 313.336407 
L 150.137307 320.941003 
L 150.728053 325.55808 
L 151.318798 238.648407 
L 151.909544 320.397818 
L 152.50029 322.027374 
L 153.091035 320.941003 
L 153.681781 316.052334 
L 154.272527 335.878603 
L 156.044764 335.878603 
L 156.635509 336.421789 
L 157.226255 335.60701 
L 157.817001 337.508159 
L 158.407746 336.150196 
L 158.998492 335.60701 
L 159.589238 328.002414 
L 160.179983 339.137716 
L 160.770729 342.125236 
L 161.361475 341.58205 
L 161.95222 333.162676 
L 162.542966 351.902574 
L 163.133712 337.779752 
L 163.724457 330.175156 
L 164.315203 326.64445 
L 164.905949 320.941003 
L 165.496694 341.58205 
L 166.08744 327.730821 
L 166.678186 340.224087 
L 167.268931 338.59453 
L 167.859677 337.779752 
L 169.041168 333.162676 
L 169.631914 332.61949 
L 170.22266 332.347898 
L 170.813405 327.187636 
L 171.404151 326.916043 
L 171.994897 326.101265 
L 172.585642 322.57056 
L 173.767134 324.200116 
L 174.357879 321.212596 
L 174.948625 319.039854 
L 175.539371 318.225076 
L 176.130116 320.126225 
L 176.720862 317.953483 
L 177.902353 327.459229 
L 178.493099 299.213585 
L 179.083845 333.162676 
L 179.67459 335.335418 
L 180.265336 338.051345 
L 180.856082 338.051345 
L 181.446827 338.866123 
L 182.037573 339.952494 
L 183.80981 341.58205 
L 184.400556 341.58205 
L 185.582047 342.668421 
L 186.172793 343.754792 
L 186.763538 342.668421 
L 187.354284 342.668421 
L 187.94503 342.940014 
L 188.535775 342.668421 
L 189.126521 351.359388 
L 189.717267 341.58205 
L 190.308012 340.224087 
L 190.898758 327.459229 
L 191.489504 338.322938 
L 192.080249 339.952494 
L 192.670995 339.952494 
L 193.261741 320.126225 
L 193.852486 339.137716 
L 194.443232 337.779752 
L 195.033978 336.964974 
L 195.624723 335.063825 
L 196.215469 333.705861 
L 196.806215 333.162676 
L 197.39696 334.249047 
L 199.169197 330.175156 
L 199.759943 330.446749 
L 200.350689 330.175156 
L 200.941434 331.53312 
L 201.53218 259.83264 
L 202.122926 319.039854 
L 202.713671 313.064814 
L 203.304417 317.410298 
L 203.895163 317.410298 
L 204.485908 317.138705 
L 205.076654 317.68189 
L 206.258145 317.68189 
L 206.848891 317.138705 
L 207.439637 318.496669 
L 208.030382 317.68189 
L 209.802619 318.496669 
L 210.393365 318.496669 
L 210.984111 319.311447 
L 211.574856 318.496669 
L 212.165602 319.58304 
L 212.756348 320.397818 
L 213.347093 332.076305 
L 213.937839 185.687826 
L 214.528585 314.965963 
L 215.119331 316.59552 
L 215.710076 322.298967 
L 216.300822 317.68189 
L 216.891568 320.126225 
L 217.482313 319.58304 
L 218.073059 321.212596 
L 218.663805 320.66941 
L 219.25455 320.941003 
L 219.845296 321.484189 
L 220.436042 321.484189 
L 221.026787 322.57056 
L 221.617533 321.484189 
L 222.799024 322.57056 
L 223.38977 321.212596 
L 223.980516 321.484189 
L 224.571261 320.126225 
L 225.162007 351.902574 
L 225.752753 314.965963 
L 226.343498 318.496669 
L 226.934244 320.397818 
L 227.52499 320.397818 
L 228.115735 321.212596 
L 228.706481 320.66941 
L 229.297227 324.743301 
L 229.887972 321.484189 
L 230.478718 323.113745 
L 231.069464 323.65693 
L 231.660209 325.829672 
L 232.250955 323.65693 
L 232.841701 325.829672 
L 233.432446 324.200116 
L 234.023192 326.372858 
L 234.613938 324.743301 
L 235.204683 328.002414 
L 235.795429 325.286487 
L 236.386175 324.743301 
L 237.567666 331.804712 
L 238.158412 301.386327 
L 238.749157 310.892072 
L 239.339903 313.879592 
L 239.930649 314.965963 
L 240.521394 314.694371 
L 241.11214 316.59552 
L 241.702886 315.780741 
L 242.293631 316.59552 
L 242.884377 316.323927 
L 243.475123 318.496669 
L 244.065868 317.953483 
L 244.656614 319.311447 
L 245.24736 318.225076 
L 245.838105 320.941003 
L 246.428851 320.941003 
L 247.019597 323.65693 
L 247.610342 322.57056 
L 248.201088 325.014894 
L 248.791834 324.200116 
L 249.382579 351.902574 
L 249.973325 303.559069 
L 250.564071 317.410298 
L 251.154816 325.829672 
L 251.745562 327.459229 
L 252.336308 328.002414 
L 252.927053 328.002414 
L 253.517799 329.088785 
L 254.108545 328.002414 
L 254.69929 328.274007 
L 255.290036 326.916043 
L 255.880782 329.360378 
L 256.471527 326.916043 
L 257.062273 328.817192 
L 257.653019 326.101265 
L 258.243764 329.63197 
L 258.83451 325.286487 
L 259.425256 328.5456 
L 260.016001 323.928523 
L 260.606747 325.829672 
L 261.197493 325.829672 
L 261.788238 334.249047 
L 262.378984 310.348887 
L 262.96973 317.68189 
L 263.560475 320.66941 
L 264.151221 322.298967 
L 264.741967 322.57056 
L 265.332712 323.385338 
L 265.923458 323.928523 
L 266.514204 324.200116 
L 267.104949 323.928523 
L 267.695695 326.372858 
L 268.286441 324.471709 
L 268.877186 326.372858 
L 269.467932 325.55808 
L 270.058678 328.002414 
L 270.649423 328.002414 
L 271.240169 329.903563 
L 271.830915 326.101265 
L 272.42166 330.175156 
L 273.012406 325.286487 
L 273.603152 351.902574 
L 274.193897 304.373847 
L 274.784643 316.052334 
L 275.375389 325.014894 
L 275.966134 325.014894 
L 276.55688 323.928523 
L 277.147626 324.743301 
L 277.738371 323.65693 
L 278.329117 324.471709 
L 278.919863 325.014894 
L 279.510608 326.916043 
L 280.101354 324.471709 
L 280.6921 324.471709 
L 281.282845 323.65693 
L 281.873591 326.101265 
L 282.464337 323.113745 
L 283.055082 326.64445 
L 283.645828 323.385338 
L 284.236574 328.002414 
L 284.827319 324.471709 
L 285.418065 327.459229 
L 286.008811 335.335418 
L 286.599556 302.201105 
L 287.190302 318.768261 
L 287.781048 317.953483 
L 288.371793 324.743301 
L 288.962539 319.58304 
L 289.553285 326.101265 
L 290.14403 320.941003 
L 290.734776 324.200116 
L 291.325522 324.200116 
L 292.507013 322.027374 
L 293.097759 322.57056 
L 293.688504 323.385338 
L 294.27925 321.484189 
L 294.869996 324.743301 
L 295.460741 322.842152 
L 296.051487 324.743301 
L 296.642233 324.200116 
L 297.232978 324.200116 
L 297.823724 350.273018 
L 298.41447 333.434269 
L 299.005215 335.335418 
L 299.595961 335.335418 
L 300.186707 334.792232 
L 300.777452 334.792232 
L 301.958944 334.249047 
L 302.549689 333.705861 
L 303.140435 334.520639 
L 303.731181 333.434269 
L 304.321926 335.60701 
L 304.912672 333.434269 
L 305.503418 334.249047 
L 306.094163 332.61949 
L 306.684909 332.347898 
L 307.275655 332.347898 
L 307.8664 331.804712 
L 308.457146 332.61949 
L 309.047892 331.804712 
L 309.638637 332.076305 
L 310.229383 338.59453 
L 310.820129 318.496669 
L 311.410874 333.434269 
L 312.00162 334.249047 
L 312.592366 331.261527 
L 313.183111 331.261527 
L 313.773857 330.446749 
L 314.364603 329.903563 
L 314.955348 329.63197 
L 315.546094 329.63197 
L 316.13684 330.175156 
L 316.727585 329.088785 
L 317.318331 331.261527 
L 317.909077 328.274007 
L 318.499822 331.53312 
L 319.090568 328.5456 
L 319.681314 330.175156 
L 320.272059 328.274007 
L 320.862805 328.817192 
L 321.453551 328.817192 
L 322.044296 339.409309 
L 322.635042 332.61949 
L 323.225788 335.335418 
L 323.816533 335.063825 
L 324.998025 333.434269 
L 325.58877 333.162676 
L 326.179516 333.705861 
L 326.770262 332.891083 
L 327.361007 333.162676 
L 327.951753 335.063825 
L 328.542499 332.076305 
L 329.133244 335.335418 
L 329.72399 332.61949 
L 330.314736 333.434269 
L 330.905481 332.891083 
L 331.496227 332.076305 
L 332.086973 333.434269 
L 332.677718 331.53312 
L 333.268464 333.705861 
L 333.85921 331.53312 
L 334.449955 340.495679 
L 335.040701 335.063825 
L 335.631447 338.866123 
L 336.812938 337.779752 
L 337.403684 336.421789 
L 337.994429 338.051345 
L 338.585175 336.421789 
L 339.175921 336.150196 
L 339.766666 332.347898 
L 340.357412 332.347898 
L 340.948158 328.5456 
L 341.538903 330.989934 
L 342.129649 324.471709 
L 342.720395 328.002414 
L 343.31114 322.842152 
L 343.901886 326.372858 
L 344.492632 321.212596 
L 345.083377 322.842152 
L 345.674123 317.953483 
L 346.264869 344.56957 
L 346.855614 324.743301 
L 347.44636 333.434269 
L 348.037106 330.446749 
L 348.627851 332.61949 
L 349.218597 330.175156 
L 349.809343 330.446749 
L 350.990834 328.817192 
L 351.58158 329.63197 
L 352.172325 328.274007 
L 352.763071 330.175156 
L 353.353817 329.360378 
L 353.944562 328.817192 
L 354.535308 329.63197 
L 355.126054 329.088785 
L 355.716799 329.088785 
L 356.307545 329.63197 
L 356.898291 328.002414 
L 357.489036 329.903563 
L 358.079782 327.730821 
L 358.670528 344.297978 
L 359.261273 332.347898 
L 359.852019 335.335418 
L 360.442765 334.792232 
L 361.03351 335.878603 
L 361.624256 333.977454 
L 362.215002 335.335418 
L 362.805747 334.249047 
L 363.396493 333.434269 
L 364.577984 332.891083 
L 365.16873 333.705861 
L 365.759476 332.61949 
L 366.350221 333.162676 
L 366.940967 332.891083 
L 367.531713 332.891083 
L 368.122458 330.718341 
L 368.713204 333.434269 
L 369.30395 331.261527 
L 369.894695 332.891083 
L 370.485441 342.940014 
L 371.076187 335.063825 
L 372.257678 338.322938 
L 372.848424 335.063825 
L 373.439169 336.150196 
L 374.029915 335.063825 
L 374.620661 335.60701 
L 375.211406 334.792232 
L 375.802152 336.693381 
L 376.392898 335.60701 
L 376.983643 336.150196 
L 378.165135 335.063825 
L 378.75588 334.792232 
L 379.346626 333.705861 
L 379.937372 333.434269 
L 380.528117 332.076305 
L 381.118863 332.076305 
L 381.709609 331.261527 
L 382.300354 333.162676 
L 382.8911 332.61949 
L 383.481846 331.261527 
L 384.072591 331.804712 
L 384.663337 329.903563 
L 385.254083 330.175156 
L 385.844828 328.817192 
L 386.435574 328.817192 
L 387.02632 329.903563 
L 387.617065 327.730821 
L 388.207811 331.53312 
L 388.798557 328.002414 
L 389.389302 331.261527 
L 389.980048 330.989934 
L 390.570794 328.817192 
L 391.161539 329.088785 
L 391.752285 328.002414 
L 392.933776 328.002414 
L 393.524522 328.274007 
L 394.115268 328.274007 
L 394.706013 344.841163 
L 395.296759 325.286487 
L 395.887505 327.459229 
L 396.47825 330.175156 
L 397.068996 328.817192 
L 397.659742 330.989934 
L 398.250487 330.175156 
L 398.841233 331.804712 
L 399.431979 330.175156 
L 400.022724 332.61949 
L 400.61347 329.360378 
L 401.204216 333.162676 
L 401.794961 329.088785 
L 402.385707 330.989934 
L 402.976453 329.088785 
L 403.567198 329.088785 
L 404.74869 328.5456 
L 405.339435 328.002414 
L 405.930181 328.5456 
L 406.520927 328.817192 
L 407.111672 319.854632 
L 407.702418 320.126225 
L 408.293164 325.829672 
L 408.883909 327.730821 
L 409.474655 327.730821 
L 410.065401 328.002414 
L 410.656146 328.5456 
L 411.246892 328.5456 
L 411.837638 329.63197 
L 412.428383 329.088785 
L 413.019129 330.989934 
L 413.609875 329.088785 
L 414.20062 330.446749 
L 414.791366 329.360378 
L 415.382112 332.61949 
L 415.972857 328.817192 
L 416.563603 330.446749 
L 417.154349 330.175156 
L 417.745094 328.5456 
L 418.33584 329.360378 
L 418.926586 345.927534 
L 419.517331 325.286487 
L 420.108077 328.002414 
L 420.698823 328.5456 
L 421.289568 328.817192 
L 421.880314 329.903563 
L 422.47106 329.903563 
L 423.061805 328.002414 
L 423.652551 330.175156 
L 424.243297 328.274007 
L 424.834042 330.718341 
L 425.424788 326.916043 
L 426.015534 329.903563 
L 426.606279 326.101265 
L 427.197025 327.459229 
L 427.787771 325.55808 
L 428.969262 327.187636 
L 429.560008 324.471709 
L 430.150753 325.014894 
L 430.741499 324.200116 
L 431.332245 316.59552 
L 431.92299 297.855622 
L 432.513736 326.916043 
L 433.104482 330.175156 
L 433.695227 326.916043 
L 434.285973 331.804712 
L 434.876719 327.459229 
L 435.467464 329.360378 
L 436.05821 327.730821 
L 436.648956 329.903563 
L 437.239701 327.187636 
L 437.830447 326.916043 
L 438.421193 327.459229 
L 439.011938 328.817192 
L 439.602684 327.459229 
L 440.19343 328.274007 
L 440.784175 328.274007 
L 441.374921 328.5456 
L 441.965667 329.360378 
L 442.556412 328.817192 
L 443.147158 351.902574 
L 443.737904 329.903563 
L 444.328649 331.53312 
L 445.510141 332.076305 
L 446.100886 331.53312 
L 446.691632 332.891083 
L 447.282378 332.076305 
L 447.873123 334.249047 
L 448.463869 331.53312 
L 449.054615 334.792232 
L 449.64536 332.347898 
L 450.236106 334.792232 
L 450.826852 333.162676 
L 451.417597 332.891083 
L 452.008343 334.249047 
L 452.599089 333.434269 
L 453.189834 333.434269 
L 453.78058 332.347898 
L 454.371326 332.61949 
L 454.962071 330.175156 
L 455.552817 340.224087 
L 456.143563 332.891083 
L 456.734308 334.792232 
L 457.325054 334.520639 
L 457.9158 336.693381 
L 458.506545 335.60701 
L 459.097291 335.60701 
L 459.688037 335.063825 
L 460.278782 333.434269 
L 460.869528 333.977454 
L 461.460274 333.434269 
L 462.051019 333.162676 
L 462.641765 332.076305 
L 463.232511 333.977454 
L 463.823256 330.989934 
L 464.414002 333.705861 
L 465.004748 330.446749 
L 465.595493 332.076305 
L 466.186239 330.989934 
L 466.776985 331.261527 
L 467.36773 343.483199 
L 467.36773 343.483199 
" style="fill:none;stroke:#d62728;stroke-linecap:square;stroke-width:1.5;"/>
   </g>
   <g id="patch_3">
    <path d="M 130.36375 352.174167 
L 130.36375 35.0625 
" style="fill:none;stroke:#000000;stroke-linecap:square;stroke-linejoin:miter;stroke-width:0.8;"/>
   </g>
   <g id="patch_4">
    <path d="M 488.365312 352.174167 
L 488.365312 35.0625 
" style="fill:none;stroke:#000000;stroke-linecap:square;stroke-linejoin:miter;stroke-width:0.8;"/>
   </g>
   <g id="patch_5">
    <path d="M 130.36375 352.174167 
L 488.365312 352.174167 
" style="fill:none;stroke:#000000;stroke-linecap:square;stroke-linejoin:miter;stroke-width:0.8;"/>
   </g>
   <g id="patch_6">
    <path d="M 130.36375 35.0625 
L 488.365312 35.0625 
" style="fill:none;stroke:#000000;stroke-linecap:square;stroke-linejoin:miter;stroke-width:0.8;"/>
   </g>
   <g id="legend_1">
    <g id="patch_7">
     <path d="M 508.265391 96.775 
L 607.335703 96.775 
Q 609.335703 96.775 609.335703 94.775 
L 609.335703 37.0625 
Q 609.335703 35.0625 607.335703 35.0625 
L 508.265391 35.0625 
Q 506.265391 35.0625 506.265391 37.0625 
L 506.265391 94.775 
Q 506.265391 96.775 508.265391 96.775 
z
" style="fill:#ffffff;opacity:0.8;stroke:#cccccc;stroke-linejoin:miter;"/>
    </g>
    <g id="line2d_20">
     <path d="M 510.265391 43.160937 
L 530.265391 43.160937 
" style="fill:none;stroke:#1f77b4;stroke-linecap:square;stroke-width:1.5;"/>
    </g>
    <g id="line2d_21"/>
    <g id="text_17">
     <!-- bbrshallow-pi -->
     <defs>
      <path d="M 41.109375 46.296875 
Q 39.59375 47.171875 37.8125 47.578125 
Q 36.03125 48 33.890625 48 
Q 26.265625 48 22.1875 43.046875 
Q 18.109375 38.09375 18.109375 28.8125 
L 18.109375 0 
L 9.078125 0 
L 9.078125 54.6875 
L 18.109375 54.6875 
L 18.109375 46.1875 
Q 20.953125 51.171875 25.484375 53.578125 
Q 30.03125 56 36.53125 56 
Q 37.453125 56 38.578125 55.875 
Q 39.703125 55.765625 41.0625 55.515625 
z
" id="DejaVuSans-114"/>
      <path d="M 34.28125 27.484375 
Q 23.390625 27.484375 19.1875 25 
Q 14.984375 22.515625 14.984375 16.5 
Q 14.984375 11.71875 18.140625 8.90625 
Q 21.296875 6.109375 26.703125 6.109375 
Q 34.1875 6.109375 38.703125 11.40625 
Q 43.21875 16.703125 43.21875 25.484375 
L 43.21875 27.484375 
z
M 52.203125 31.203125 
L 52.203125 0 
L 43.21875 0 
L 43.21875 8.296875 
Q 40.140625 3.328125 35.546875 0.953125 
Q 30.953125 -1.421875 24.3125 -1.421875 
Q 15.921875 -1.421875 10.953125 3.296875 
Q 6 8.015625 6 15.921875 
Q 6 25.140625 12.171875 29.828125 
Q 18.359375 34.515625 30.609375 34.515625 
L 43.21875 34.515625 
L 43.21875 35.40625 
Q 43.21875 41.609375 39.140625 45 
Q 35.0625 48.390625 27.6875 48.390625 
Q 23 48.390625 18.546875 47.265625 
Q 14.109375 46.140625 10.015625 43.890625 
L 10.015625 52.203125 
Q 14.9375 54.109375 19.578125 55.046875 
Q 24.21875 56 28.609375 56 
Q 40.484375 56 46.34375 49.84375 
Q 52.203125 43.703125 52.203125 31.203125 
z
" id="DejaVuSans-97"/>
      <path d="M 30.609375 48.390625 
Q 23.390625 48.390625 19.1875 42.75 
Q 14.984375 37.109375 14.984375 27.296875 
Q 14.984375 17.484375 19.15625 11.84375 
Q 23.34375 6.203125 30.609375 6.203125 
Q 37.796875 6.203125 41.984375 11.859375 
Q 46.1875 17.53125 46.1875 27.296875 
Q 46.1875 37.015625 41.984375 42.703125 
Q 37.796875 48.390625 30.609375 48.390625 
z
M 30.609375 56 
Q 42.328125 56 49.015625 48.375 
Q 55.71875 40.765625 55.71875 27.296875 
Q 55.71875 13.875 49.015625 6.21875 
Q 42.328125 -1.421875 30.609375 -1.421875 
Q 18.84375 -1.421875 12.171875 6.21875 
Q 5.515625 13.875 5.515625 27.296875 
Q 5.515625 40.765625 12.171875 48.375 
Q 18.84375 56 30.609375 56 
z
" id="DejaVuSans-111"/>
      <path d="M 4.203125 54.6875 
L 13.1875 54.6875 
L 24.421875 12.015625 
L 35.59375 54.6875 
L 46.1875 54.6875 
L 57.421875 12.015625 
L 68.609375 54.6875 
L 77.59375 54.6875 
L 63.28125 0 
L 52.6875 0 
L 40.921875 44.828125 
L 29.109375 0 
L 18.5 0 
z
" id="DejaVuSans-119"/>
      <path d="M 4.890625 31.390625 
L 31.203125 31.390625 
L 31.203125 23.390625 
L 4.890625 23.390625 
z
" id="DejaVuSans-45"/>
      <path d="M 18.109375 8.203125 
L 18.109375 -20.796875 
L 9.078125 -20.796875 
L 9.078125 54.6875 
L 18.109375 54.6875 
L 18.109375 46.390625 
Q 20.953125 51.265625 25.265625 53.625 
Q 29.59375 56 35.59375 56 
Q 45.5625 56 51.78125 48.09375 
Q 58.015625 40.1875 58.015625 27.296875 
Q 58.015625 14.40625 51.78125 6.484375 
Q 45.5625 -1.421875 35.59375 -1.421875 
Q 29.59375 -1.421875 25.265625 0.953125 
Q 20.953125 3.328125 18.109375 8.203125 
z
M 48.6875 27.296875 
Q 48.6875 37.203125 44.609375 42.84375 
Q 40.53125 48.484375 33.40625 48.484375 
Q 26.265625 48.484375 22.1875 42.84375 
Q 18.109375 37.203125 18.109375 27.296875 
Q 18.109375 17.390625 22.1875 11.75 
Q 26.265625 6.109375 33.40625 6.109375 
Q 40.53125 6.109375 44.609375 11.75 
Q 48.6875 17.390625 48.6875 27.296875 
z
" id="DejaVuSans-112"/>
     </defs>
     <g transform="translate(538.265391 46.660937)scale(0.1 -0.1)">
      <use xlink:href="#DejaVuSans-98"/>
      <use x="63.476562" xlink:href="#DejaVuSans-98"/>
      <use x="126.953125" xlink:href="#DejaVuSans-114"/>
      <use x="168.066406" xlink:href="#DejaVuSans-115"/>
      <use x="220.166016" xlink:href="#DejaVuSans-104"/>
      <use x="283.544922" xlink:href="#DejaVuSans-97"/>
      <use x="344.824219" xlink:href="#DejaVuSans-108"/>
      <use x="372.607422" xlink:href="#DejaVuSans-108"/>
      <use x="400.390625" xlink:href="#DejaVuSans-111"/>
      <use x="461.572266" xlink:href="#DejaVuSans-119"/>
      <use x="543.359375" xlink:href="#DejaVuSans-45"/>
      <use x="579.443359" xlink:href="#DejaVuSans-112"/>
      <use x="642.919922" xlink:href="#DejaVuSans-105"/>
     </g>
    </g>
    <g id="line2d_22">
     <path d="M 510.265391 57.839063 
L 530.265391 57.839063 
" style="fill:none;stroke:#ff7f0e;stroke-linecap:square;stroke-width:1.5;"/>
    </g>
    <g id="line2d_23"/>
    <g id="text_18">
     <!-- bbrshallow-pi -->
     <g transform="translate(538.265391 61.339063)scale(0.1 -0.1)">
      <use xlink:href="#DejaVuSans-98"/>
      <use x="63.476562" xlink:href="#DejaVuSans-98"/>
      <use x="126.953125" xlink:href="#DejaVuSans-114"/>
      <use x="168.066406" xlink:href="#DejaVuSans-115"/>
      <use x="220.166016" xlink:href="#DejaVuSans-104"/>
      <use x="283.544922" xlink:href="#DejaVuSans-97"/>
      <use x="344.824219" xlink:href="#DejaVuSans-108"/>
      <use x="372.607422" xlink:href="#DejaVuSans-108"/>
      <use x="400.390625" xlink:href="#DejaVuSans-111"/>
      <use x="461.572266" xlink:href="#DejaVuSans-119"/>
      <use x="543.359375" xlink:href="#DejaVuSans-45"/>
      <use x="579.443359" xlink:href="#DejaVuSans-112"/>
      <use x="642.919922" xlink:href="#DejaVuSans-105"/>
     </g>
    </g>
    <g id="line2d_24">
     <path d="M 510.265391 72.517187 
L 530.265391 72.517187 
" style="fill:none;stroke:#2ca02c;stroke-linecap:square;stroke-width:1.5;"/>
    </g>
    <g id="line2d_25"/>
    <g id="text_19">
     <!-- bbrshallow-pi -->
     <g transform="translate(538.265391 76.017187)scale(0.1 -0.1)">
      <use xlink:href="#DejaVuSans-98"/>
      <use x="63.476562" xlink:href="#DejaVuSans-98"/>
      <use x="126.953125" xlink:href="#DejaVuSans-114"/>
      <use x="168.066406" xlink:href="#DejaVuSans-115"/>
      <use x="220.166016" xlink:href="#DejaVuSans-104"/>
      <use x="283.544922" xlink:href="#DejaVuSans-97"/>
      <use x="344.824219" xlink:href="#DejaVuSans-108"/>
      <use x="372.607422" xlink:href="#DejaVuSans-108"/>
      <use x="400.390625" xlink:href="#DejaVuSans-111"/>
      <use x="461.572266" xlink:href="#DejaVuSans-119"/>
      <use x="543.359375" xlink:href="#DejaVuSans-45"/>
      <use x="579.443359" xlink:href="#DejaVuSans-112"/>
      <use x="642.919922" xlink:href="#DejaVuSans-105"/>
     </g>
    </g>
    <g id="line2d_26">
     <path d="M 510.265391 87.195312 
L 530.265391 87.195312 
" style="fill:none;stroke:#d62728;stroke-linecap:square;stroke-width:1.5;"/>
    </g>
    <g id="line2d_27"/>
    <g id="text_20">
     <!-- bbrshallow-pi -->
     <g transform="translate(538.265391 90.695312)scale(0.1 -0.1)">
      <use xlink:href="#DejaVuSans-98"/>
      <use x="63.476562" xlink:href="#DejaVuSans-98"/>
      <use x="126.953125" xlink:href="#DejaVuSans-114"/>
      <use x="168.066406" xlink:href="#DejaVuSans-115"/>
      <use x="220.166016" xlink:href="#DejaVuSans-104"/>
      <use x="283.544922" xlink:href="#DejaVuSans-97"/>
      <use x="344.824219" xlink:href="#DejaVuSans-108"/>
      <use x="372.607422" xlink:href="#DejaVuSans-108"/>
      <use x="400.390625" xlink:href="#DejaVuSans-111"/>
      <use x="461.572266" xlink:href="#DejaVuSans-119"/>
      <use x="543.359375" xlink:href="#DejaVuSans-45"/>
      <use x="579.443359" xlink:href="#DejaVuSans-112"/>
      <use x="642.919922" xlink:href="#DejaVuSans-105"/>
     </g>
    </g>
   </g>
  </g>
  <g id="text_21">
   <!-- result inflight -->
   <defs>
    <path d="M 8.5 21.578125 
L 8.5 54.6875 
L 17.484375 54.6875 
L 17.484375 21.921875 
Q 17.484375 14.15625 20.5 10.265625 
Q 23.53125 6.390625 29.59375 6.390625 
Q 36.859375 6.390625 41.078125 11.03125 
Q 45.3125 15.671875 45.3125 23.6875 
L 45.3125 54.6875 
L 54.296875 54.6875 
L 54.296875 0 
L 45.3125 0 
L 45.3125 8.40625 
Q 42.046875 3.421875 37.71875 1 
Q 33.40625 -1.421875 27.6875 -1.421875 
Q 18.265625 -1.421875 13.375 4.4375 
Q 8.5 10.296875 8.5 21.578125 
z
M 31.109375 56 
z
" id="DejaVuSans-117"/>
    <path id="DejaVuSans-32"/>
   </defs>
   <g transform="translate(302.110313 17.038125)scale(0.12 -0.12)">
    <use xlink:href="#DejaVuSans-114"/>
    <use x="41.082031" xlink:href="#DejaVuSans-101"/>
    <use x="102.605469" xlink:href="#DejaVuSans-115"/>
    <use x="154.705078" xlink:href="#DejaVuSans-117"/>
    <use x="218.083984" xlink:href="#DejaVuSans-108"/>
    <use x="245.867188" xlink:href="#DejaVuSans-116"/>
    <use x="285.076172" xlink:href="#DejaVuSans-32"/>
    <use x="316.863281" xlink:href="#DejaVuSans-105"/>
    <use x="344.646484" xlink:href="#DejaVuSans-110"/>
    <use x="408.025391" xlink:href="#DejaVuSans-102"/>
    <use x="443.230469" xlink:href="#DejaVuSans-108"/>
    <use x="471.013672" xlink:href="#DejaVuSans-105"/>
    <use x="498.796875" xlink:href="#DejaVuSans-103"/>
    <use x="562.273438" xlink:href="#DejaVuSans-104"/>
    <use x="625.652344" xlink:href="#DejaVuSans-116"/>
   </g>
  </g>
 </g>
 <defs>
  <clipPath id="p0692a59718">
   <rect height="317.111667" width="358.001562" x="130.36375" y="35.0625"/>
  </clipPath>
 </defs>
</svg>
