<?xml version="1.0" encoding="utf-8" standalone="no"?>
<!DOCTYPE svg PUBLIC "-//W3C//DTD SVG 1.1//EN"
  "http://www.w3.org/Graphics/SVG/1.1/DTD/svg11.dtd">
<!-- Created with matplotlib (https://matplotlib.org/) -->
<svg height="396pt" version="1.1" viewBox="0 0 684 396" width="684pt" xmlns="http://www.w3.org/2000/svg" xmlns:xlink="http://www.w3.org/1999/xlink">
 <defs>
  <style type="text/css">
*{stroke-linecap:butt;stroke-linejoin:round;}
  </style>
 </defs>
 <g id="figure_1">
  <g id="patch_1">
   <path d="M 0 396 
L 684 396 
L 684 0 
L 0 0 
z
" style="fill:#ffffff;"/>
  </g>
  <g id="axes_1">
   <g id="patch_2">
    <path d="M 92.823906 352.174167 
L 544.073906 352.174167 
L 544.073906 35.0625 
L 92.823906 35.0625 
z
" style="fill:#ffffff;"/>
   </g>
   <g id="matplotlib.axis_1">
    <g id="xtick_1">
     <g id="line2d_1">
      <defs>
       <path d="M 0 0 
L 0 3.5 
" id="m92e39f35fc" style="stroke:#000000;stroke-width:0.8;"/>
      </defs>
      <g>
       <use style="stroke:#000000;stroke-width:0.8;" x="113.329336" xlink:href="#m92e39f35fc" y="352.174167"/>
      </g>
     </g>
     <g id="text_1">
      <!-- 0 -->
      <defs>
       <path d="M 31.78125 66.40625 
Q 24.171875 66.40625 20.328125 58.90625 
Q 16.5 51.421875 16.5 36.375 
Q 16.5 21.390625 20.328125 13.890625 
Q 24.171875 6.390625 31.78125 6.390625 
Q 39.453125 6.390625 43.28125 13.890625 
Q 47.125 21.390625 47.125 36.375 
Q 47.125 51.421875 43.28125 58.90625 
Q 39.453125 66.40625 31.78125 66.40625 
z
M 31.78125 74.21875 
Q 44.046875 74.21875 50.515625 64.515625 
Q 56.984375 54.828125 56.984375 36.375 
Q 56.984375 17.96875 50.515625 8.265625 
Q 44.046875 -1.421875 31.78125 -1.421875 
Q 19.53125 -1.421875 13.0625 8.265625 
Q 6.59375 17.96875 6.59375 36.375 
Q 6.59375 54.828125 13.0625 64.515625 
Q 19.53125 74.21875 31.78125 74.21875 
z
" id="DejaVuSans-48"/>
      </defs>
      <g transform="translate(110.148086 366.772604)scale(0.1 -0.1)">
       <use xlink:href="#DejaVuSans-48"/>
      </g>
     </g>
    </g>
    <g id="xtick_2">
     <g id="line2d_2">
      <g>
       <use style="stroke:#000000;stroke-width:0.8;" x="187.497267" xlink:href="#m92e39f35fc" y="352.174167"/>
      </g>
     </g>
     <g id="text_2">
      <!-- 50 -->
      <defs>
       <path d="M 10.796875 72.90625 
L 49.515625 72.90625 
L 49.515625 64.59375 
L 19.828125 64.59375 
L 19.828125 46.734375 
Q 21.96875 47.46875 24.109375 47.828125 
Q 26.265625 48.1875 28.421875 48.1875 
Q 40.625 48.1875 47.75 41.5 
Q 54.890625 34.8125 54.890625 23.390625 
Q 54.890625 11.625 47.5625 5.09375 
Q 40.234375 -1.421875 26.90625 -1.421875 
Q 22.3125 -1.421875 17.546875 -0.640625 
Q 12.796875 0.140625 7.71875 1.703125 
L 7.71875 11.625 
Q 12.109375 9.234375 16.796875 8.0625 
Q 21.484375 6.890625 26.703125 6.890625 
Q 35.15625 6.890625 40.078125 11.328125 
Q 45.015625 15.765625 45.015625 23.390625 
Q 45.015625 31 40.078125 35.4375 
Q 35.15625 39.890625 26.703125 39.890625 
Q 22.75 39.890625 18.8125 39.015625 
Q 14.890625 38.140625 10.796875 36.28125 
z
" id="DejaVuSans-53"/>
      </defs>
      <g transform="translate(181.134767 366.772604)scale(0.1 -0.1)">
       <use xlink:href="#DejaVuSans-53"/>
       <use x="63.623047" xlink:href="#DejaVuSans-48"/>
      </g>
     </g>
    </g>
    <g id="xtick_3">
     <g id="line2d_3">
      <g>
       <use style="stroke:#000000;stroke-width:0.8;" x="261.665197" xlink:href="#m92e39f35fc" y="352.174167"/>
      </g>
     </g>
     <g id="text_3">
      <!-- 100 -->
      <defs>
       <path d="M 12.40625 8.296875 
L 28.515625 8.296875 
L 28.515625 63.921875 
L 10.984375 60.40625 
L 10.984375 69.390625 
L 28.421875 72.90625 
L 38.28125 72.90625 
L 38.28125 8.296875 
L 54.390625 8.296875 
L 54.390625 0 
L 12.40625 0 
z
" id="DejaVuSans-49"/>
      </defs>
      <g transform="translate(252.121447 366.772604)scale(0.1 -0.1)">
       <use xlink:href="#DejaVuSans-49"/>
       <use x="63.623047" xlink:href="#DejaVuSans-48"/>
       <use x="127.246094" xlink:href="#DejaVuSans-48"/>
      </g>
     </g>
    </g>
    <g id="xtick_4">
     <g id="line2d_4">
      <g>
       <use style="stroke:#000000;stroke-width:0.8;" x="335.833127" xlink:href="#m92e39f35fc" y="352.174167"/>
      </g>
     </g>
     <g id="text_4">
      <!-- 150 -->
      <g transform="translate(326.289377 366.772604)scale(0.1 -0.1)">
       <use xlink:href="#DejaVuSans-49"/>
       <use x="63.623047" xlink:href="#DejaVuSans-53"/>
       <use x="127.246094" xlink:href="#DejaVuSans-48"/>
      </g>
     </g>
    </g>
    <g id="xtick_5">
     <g id="line2d_5">
      <g>
       <use style="stroke:#000000;stroke-width:0.8;" x="410.001058" xlink:href="#m92e39f35fc" y="352.174167"/>
      </g>
     </g>
     <g id="text_5">
      <!-- 200 -->
      <defs>
       <path d="M 19.1875 8.296875 
L 53.609375 8.296875 
L 53.609375 0 
L 7.328125 0 
L 7.328125 8.296875 
Q 12.9375 14.109375 22.625 23.890625 
Q 32.328125 33.6875 34.8125 36.53125 
Q 39.546875 41.84375 41.421875 45.53125 
Q 43.3125 49.21875 43.3125 52.78125 
Q 43.3125 58.59375 39.234375 62.25 
Q 35.15625 65.921875 28.609375 65.921875 
Q 23.96875 65.921875 18.8125 64.3125 
Q 13.671875 62.703125 7.8125 59.421875 
L 7.8125 69.390625 
Q 13.765625 71.78125 18.9375 73 
Q 24.125 74.21875 28.421875 74.21875 
Q 39.75 74.21875 46.484375 68.546875 
Q 53.21875 62.890625 53.21875 53.421875 
Q 53.21875 48.921875 51.53125 44.890625 
Q 49.859375 40.875 45.40625 35.40625 
Q 44.1875 33.984375 37.640625 27.21875 
Q 31.109375 20.453125 19.1875 8.296875 
z
" id="DejaVuSans-50"/>
      </defs>
      <g transform="translate(400.457308 366.772604)scale(0.1 -0.1)">
       <use xlink:href="#DejaVuSans-50"/>
       <use x="63.623047" xlink:href="#DejaVuSans-48"/>
       <use x="127.246094" xlink:href="#DejaVuSans-48"/>
      </g>
     </g>
    </g>
    <g id="xtick_6">
     <g id="line2d_6">
      <g>
       <use style="stroke:#000000;stroke-width:0.8;" x="484.168988" xlink:href="#m92e39f35fc" y="352.174167"/>
      </g>
     </g>
     <g id="text_6">
      <!-- 250 -->
      <g transform="translate(474.625238 366.772604)scale(0.1 -0.1)">
       <use xlink:href="#DejaVuSans-50"/>
       <use x="63.623047" xlink:href="#DejaVuSans-53"/>
       <use x="127.246094" xlink:href="#DejaVuSans-48"/>
      </g>
     </g>
    </g>
   </g>
   <g id="matplotlib.axis_2">
    <g id="ytick_1">
     <g id="line2d_7">
      <defs>
       <path d="M 0 0 
L -3.5 0 
" id="me6f39dc083" style="stroke:#000000;stroke-width:0.8;"/>
      </defs>
      <g>
       <use style="stroke:#000000;stroke-width:0.8;" x="92.823906" xlink:href="#me6f39dc083" y="352.174167"/>
      </g>
     </g>
     <g id="text_7">
      <!-- 0 -->
      <g transform="translate(79.461406 355.973385)scale(0.1 -0.1)">
       <use xlink:href="#DejaVuSans-48"/>
      </g>
     </g>
    </g>
    <g id="ytick_2">
     <g id="line2d_8">
      <g>
       <use style="stroke:#000000;stroke-width:0.8;" x="92.823906" xlink:href="#me6f39dc083" y="310.305713"/>
      </g>
     </g>
     <g id="text_8">
      <!-- 50 -->
      <g transform="translate(73.098906 314.104932)scale(0.1 -0.1)">
       <use xlink:href="#DejaVuSans-53"/>
       <use x="63.623047" xlink:href="#DejaVuSans-48"/>
      </g>
     </g>
    </g>
    <g id="ytick_3">
     <g id="line2d_9">
      <g>
       <use style="stroke:#000000;stroke-width:0.8;" x="92.823906" xlink:href="#me6f39dc083" y="268.43726"/>
      </g>
     </g>
     <g id="text_9">
      <!-- 100 -->
      <g transform="translate(66.736406 272.236478)scale(0.1 -0.1)">
       <use xlink:href="#DejaVuSans-49"/>
       <use x="63.623047" xlink:href="#DejaVuSans-48"/>
       <use x="127.246094" xlink:href="#DejaVuSans-48"/>
      </g>
     </g>
    </g>
    <g id="ytick_4">
     <g id="line2d_10">
      <g>
       <use style="stroke:#000000;stroke-width:0.8;" x="92.823906" xlink:href="#me6f39dc083" y="226.568806"/>
      </g>
     </g>
     <g id="text_10">
      <!-- 150 -->
      <g transform="translate(66.736406 230.368025)scale(0.1 -0.1)">
       <use xlink:href="#DejaVuSans-49"/>
       <use x="63.623047" xlink:href="#DejaVuSans-53"/>
       <use x="127.246094" xlink:href="#DejaVuSans-48"/>
      </g>
     </g>
    </g>
    <g id="ytick_5">
     <g id="line2d_11">
      <g>
       <use style="stroke:#000000;stroke-width:0.8;" x="92.823906" xlink:href="#me6f39dc083" y="184.700353"/>
      </g>
     </g>
     <g id="text_11">
      <!-- 200 -->
      <g transform="translate(66.736406 188.499571)scale(0.1 -0.1)">
       <use xlink:href="#DejaVuSans-50"/>
       <use x="63.623047" xlink:href="#DejaVuSans-48"/>
       <use x="127.246094" xlink:href="#DejaVuSans-48"/>
      </g>
     </g>
    </g>
    <g id="ytick_6">
     <g id="line2d_12">
      <g>
       <use style="stroke:#000000;stroke-width:0.8;" x="92.823906" xlink:href="#me6f39dc083" y="142.831899"/>
      </g>
     </g>
     <g id="text_12">
      <!-- 250 -->
      <g transform="translate(66.736406 146.631118)scale(0.1 -0.1)">
       <use xlink:href="#DejaVuSans-50"/>
       <use x="63.623047" xlink:href="#DejaVuSans-53"/>
       <use x="127.246094" xlink:href="#DejaVuSans-48"/>
      </g>
     </g>
    </g>
    <g id="ytick_7">
     <g id="line2d_13">
      <g>
       <use style="stroke:#000000;stroke-width:0.8;" x="92.823906" xlink:href="#me6f39dc083" y="100.963446"/>
      </g>
     </g>
     <g id="text_13">
      <!-- 300 -->
      <defs>
       <path d="M 40.578125 39.3125 
Q 47.65625 37.796875 51.625 33 
Q 55.609375 28.21875 55.609375 21.1875 
Q 55.609375 10.40625 48.1875 4.484375 
Q 40.765625 -1.421875 27.09375 -1.421875 
Q 22.515625 -1.421875 17.65625 -0.515625 
Q 12.796875 0.390625 7.625 2.203125 
L 7.625 11.71875 
Q 11.71875 9.328125 16.59375 8.109375 
Q 21.484375 6.890625 26.8125 6.890625 
Q 36.078125 6.890625 40.9375 10.546875 
Q 45.796875 14.203125 45.796875 21.1875 
Q 45.796875 27.640625 41.28125 31.265625 
Q 36.765625 34.90625 28.71875 34.90625 
L 20.21875 34.90625 
L 20.21875 43.015625 
L 29.109375 43.015625 
Q 36.375 43.015625 40.234375 45.921875 
Q 44.09375 48.828125 44.09375 54.296875 
Q 44.09375 59.90625 40.109375 62.90625 
Q 36.140625 65.921875 28.71875 65.921875 
Q 24.65625 65.921875 20.015625 65.03125 
Q 15.375 64.15625 9.8125 62.3125 
L 9.8125 71.09375 
Q 15.4375 72.65625 20.34375 73.4375 
Q 25.25 74.21875 29.59375 74.21875 
Q 40.828125 74.21875 47.359375 69.109375 
Q 53.90625 64.015625 53.90625 55.328125 
Q 53.90625 49.265625 50.4375 45.09375 
Q 46.96875 40.921875 40.578125 39.3125 
z
" id="DejaVuSans-51"/>
      </defs>
      <g transform="translate(66.736406 104.762665)scale(0.1 -0.1)">
       <use xlink:href="#DejaVuSans-51"/>
       <use x="63.623047" xlink:href="#DejaVuSans-48"/>
       <use x="127.246094" xlink:href="#DejaVuSans-48"/>
      </g>
     </g>
    </g>
    <g id="ytick_8">
     <g id="line2d_14">
      <g>
       <use style="stroke:#000000;stroke-width:0.8;" x="92.823906" xlink:href="#me6f39dc083" y="59.094992"/>
      </g>
     </g>
     <g id="text_14">
      <!-- 350 -->
      <g transform="translate(66.736406 62.894211)scale(0.1 -0.1)">
       <use xlink:href="#DejaVuSans-51"/>
       <use x="63.623047" xlink:href="#DejaVuSans-53"/>
       <use x="127.246094" xlink:href="#DejaVuSans-48"/>
      </g>
     </g>
    </g>
    <g id="text_15">
     <!-- rtt -->
     <defs>
      <path d="M 41.109375 46.296875 
Q 39.59375 47.171875 37.8125 47.578125 
Q 36.03125 48 33.890625 48 
Q 26.265625 48 22.1875 43.046875 
Q 18.109375 38.09375 18.109375 28.8125 
L 18.109375 0 
L 9.078125 0 
L 9.078125 54.6875 
L 18.109375 54.6875 
L 18.109375 46.1875 
Q 20.953125 51.171875 25.484375 53.578125 
Q 30.03125 56 36.53125 56 
Q 37.453125 56 38.578125 55.875 
Q 39.703125 55.765625 41.0625 55.515625 
z
" id="DejaVuSans-114"/>
      <path d="M 18.3125 70.21875 
L 18.3125 54.6875 
L 36.8125 54.6875 
L 36.8125 47.703125 
L 18.3125 47.703125 
L 18.3125 18.015625 
Q 18.3125 11.328125 20.140625 9.421875 
Q 21.96875 7.515625 27.59375 7.515625 
L 36.8125 7.515625 
L 36.8125 0 
L 27.59375 0 
Q 17.1875 0 13.234375 3.875 
Q 9.28125 7.765625 9.28125 18.015625 
L 9.28125 47.703125 
L 2.6875 47.703125 
L 2.6875 54.6875 
L 9.28125 54.6875 
L 9.28125 70.21875 
z
" id="DejaVuSans-116"/>
     </defs>
     <g transform="translate(49.458906 199.594115)rotate(-90)scale(0.1 -0.1)">
      <use xlink:href="#DejaVuSans-114"/>
      <use x="41.113281" xlink:href="#DejaVuSans-116"/>
      <use x="80.322266" xlink:href="#DejaVuSans-116"/>
     </g>
     <!-- (ms) -->
     <defs>
      <path d="M 31 75.875 
Q 24.46875 64.65625 21.28125 53.65625 
Q 18.109375 42.671875 18.109375 31.390625 
Q 18.109375 20.125 21.3125 9.0625 
Q 24.515625 -2 31 -13.1875 
L 23.1875 -13.1875 
Q 15.875 -1.703125 12.234375 9.375 
Q 8.59375 20.453125 8.59375 31.390625 
Q 8.59375 42.28125 12.203125 53.3125 
Q 15.828125 64.359375 23.1875 75.875 
z
" id="DejaVuSans-40"/>
      <path d="M 52 44.1875 
Q 55.375 50.25 60.0625 53.125 
Q 64.75 56 71.09375 56 
Q 79.640625 56 84.28125 50.015625 
Q 88.921875 44.046875 88.921875 33.015625 
L 88.921875 0 
L 79.890625 0 
L 79.890625 32.71875 
Q 79.890625 40.578125 77.09375 44.375 
Q 74.3125 48.1875 68.609375 48.1875 
Q 61.625 48.1875 57.5625 43.546875 
Q 53.515625 38.921875 53.515625 30.90625 
L 53.515625 0 
L 44.484375 0 
L 44.484375 32.71875 
Q 44.484375 40.625 41.703125 44.40625 
Q 38.921875 48.1875 33.109375 48.1875 
Q 26.21875 48.1875 22.15625 43.53125 
Q 18.109375 38.875 18.109375 30.90625 
L 18.109375 0 
L 9.078125 0 
L 9.078125 54.6875 
L 18.109375 54.6875 
L 18.109375 46.1875 
Q 21.1875 51.21875 25.484375 53.609375 
Q 29.78125 56 35.6875 56 
Q 41.65625 56 45.828125 52.96875 
Q 50 49.953125 52 44.1875 
z
" id="DejaVuSans-109"/>
      <path d="M 44.28125 53.078125 
L 44.28125 44.578125 
Q 40.484375 46.53125 36.375 47.5 
Q 32.28125 48.484375 27.875 48.484375 
Q 21.1875 48.484375 17.84375 46.4375 
Q 14.5 44.390625 14.5 40.28125 
Q 14.5 37.15625 16.890625 35.375 
Q 19.28125 33.59375 26.515625 31.984375 
L 29.59375 31.296875 
Q 39.15625 29.25 43.1875 25.515625 
Q 47.21875 21.78125 47.21875 15.09375 
Q 47.21875 7.46875 41.1875 3.015625 
Q 35.15625 -1.421875 24.609375 -1.421875 
Q 20.21875 -1.421875 15.453125 -0.5625 
Q 10.6875 0.296875 5.421875 2 
L 5.421875 11.28125 
Q 10.40625 8.6875 15.234375 7.390625 
Q 20.0625 6.109375 24.8125 6.109375 
Q 31.15625 6.109375 34.5625 8.28125 
Q 37.984375 10.453125 37.984375 14.40625 
Q 37.984375 18.0625 35.515625 20.015625 
Q 33.0625 21.96875 24.703125 23.78125 
L 21.578125 24.515625 
Q 13.234375 26.265625 9.515625 29.90625 
Q 5.8125 33.546875 5.8125 39.890625 
Q 5.8125 47.609375 11.28125 51.796875 
Q 16.75 56 26.8125 56 
Q 31.78125 56 36.171875 55.265625 
Q 40.578125 54.546875 44.28125 53.078125 
z
" id="DejaVuSans-115"/>
      <path d="M 8.015625 75.875 
L 15.828125 75.875 
Q 23.140625 64.359375 26.78125 53.3125 
Q 30.421875 42.28125 30.421875 31.390625 
Q 30.421875 20.453125 26.78125 9.375 
Q 23.140625 -1.703125 15.828125 -13.1875 
L 8.015625 -13.1875 
Q 14.5 -2 17.703125 9.0625 
Q 20.90625 20.125 20.90625 31.390625 
Q 20.90625 42.671875 17.703125 53.65625 
Q 14.5 64.65625 8.015625 75.875 
z
" id="DejaVuSans-41"/>
     </defs>
     <g transform="translate(60.656719 204.994896)rotate(-90)scale(0.1 -0.1)">
      <use xlink:href="#DejaVuSans-40"/>
      <use x="39.013672" xlink:href="#DejaVuSans-109"/>
      <use x="136.425781" xlink:href="#DejaVuSans-115"/>
      <use x="188.525391" xlink:href="#DejaVuSans-41"/>
     </g>
    </g>
   </g>
   <g id="line2d_15">
    <path clip-path="url(#p0169da0e51)" d="M 120.765413 243.316188 
L 121.507092 209.821425 
L 122.248772 203.122472 
L 122.990451 129.433994 
L 123.73213 177.164031 
L 124.47381 174.651924 
L 125.215489 164.603495 
L 125.957168 67.468683 
L 126.698848 111.849244 
L 127.440527 227.406175 
L 128.182206 234.942497 
L 128.923885 218.195116 
L 129.665565 212.333532 
L 130.407244 217.357746 
L 131.148923 228.243544 
L 133.373961 274.298843 
L 134.115641 216.520377 
L 134.85732 289.371486 
L 135.598999 270.949367 
L 136.340679 272.624105 
L 137.082358 265.925152 
L 137.824037 250.852509 
L 138.565716 264.250414 
L 139.307396 255.039355 
L 140.049075 271.786736 
L 140.790754 262.575676 
L 141.532434 265.925152 
L 142.274113 271.786736 
L 143.015792 275.973581 
L 143.757472 267.599891 
L 144.499151 272.624105 
L 145.24083 276.81095 
L 145.982509 244.153557 
L 146.724189 270.111998 
L 147.465868 263.413045 
L 148.207547 296.907808 
L 148.949227 280.997796 
L 150.432585 299.419915 
L 151.174265 302.769392 
L 151.915944 303.606761 
L 152.657623 302.769392 
L 153.399302 303.606761 
L 154.140982 301.932022 
L 154.882661 302.769392 
L 156.36602 302.769392 
L 157.107699 303.606761 
L 157.849378 302.769392 
L 160.816096 302.769392 
L 161.557775 301.932022 
L 162.299454 302.769392 
L 163.041133 310.305713 
L 163.782813 315.329928 
L 164.524492 300.257284 
L 165.266171 303.606761 
L 166.007851 304.44413 
L 166.74953 303.606761 
L 167.491209 303.606761 
L 168.232889 304.44413 
L 168.974568 303.606761 
L 169.716247 304.44413 
L 170.457926 304.44413 
L 171.199606 303.606761 
L 172.682964 303.606761 
L 173.424644 304.44413 
L 174.908002 302.769392 
L 175.649682 303.606761 
L 177.87472 303.606761 
L 178.616399 325.378356 
L 179.358078 302.769392 
L 180.099757 301.094653 
L 180.841437 303.606761 
L 183.808154 303.606761 
L 184.549833 302.769392 
L 185.291513 303.606761 
L 186.033192 302.769392 
L 186.774871 303.606761 
L 188.25823 303.606761 
L 188.999909 302.769392 
L 189.741588 302.769392 
L 190.483268 303.606761 
L 191.224947 302.769392 
L 192.708306 302.769392 
L 193.449985 307.793606 
L 194.191664 317.842035 
L 194.933343 300.257284 
L 195.675023 303.606761 
L 197.158381 303.606761 
L 197.900061 304.44413 
L 198.64174 303.606761 
L 208.283571 303.606761 
L 209.02525 322.02888 
L 209.76693 301.932022 
L 210.508609 300.257284 
L 211.250288 303.606761 
L 212.733647 303.606761 
L 213.475326 302.769392 
L 214.217005 303.606761 
L 215.700364 303.606761 
L 216.442043 302.769392 
L 217.183723 303.606761 
L 217.925402 302.769392 
L 218.667081 303.606761 
L 220.892119 303.606761 
L 221.633798 302.769392 
L 222.375478 303.606761 
L 223.117157 302.769392 
L 223.858836 306.956237 
L 224.600516 317.004666 
L 225.342195 299.419915 
L 226.083874 301.932022 
L 226.825554 303.606761 
L 227.567233 302.769392 
L 228.308912 303.606761 
L 232.017309 303.606761 
L 232.758988 302.769392 
L 234.984026 302.769392 
L 235.725705 303.606761 
L 236.467384 303.606761 
L 237.209064 302.769392 
L 237.950743 302.769392 
L 238.692422 303.606761 
L 239.434102 318.679404 
L 240.175781 306.956237 
L 240.91746 300.257284 
L 241.65914 303.606761 
L 244.625857 303.606761 
L 245.367536 304.44413 
L 246.109215 303.606761 
L 253.526008 303.606761 
L 254.267688 306.118868 
L 255.009367 320.354142 
L 255.751046 300.257284 
L 256.492726 302.769392 
L 257.234405 304.44413 
L 257.976084 303.606761 
L 265.392877 303.606761 
L 266.134557 302.769392 
L 267.617915 302.769392 
L 268.359595 303.606761 
L 269.101274 302.769392 
L 269.842953 317.004666 
L 270.584632 306.956237 
L 271.326312 299.419915 
L 272.067991 303.606761 
L 278.743105 303.606761 
L 279.484784 302.769392 
L 280.226463 303.606761 
L 283.93486 303.606761 
L 284.676539 304.44413 
L 285.418218 322.866249 
L 286.159898 300.257284 
L 286.901577 301.094653 
L 287.643256 303.606761 
L 293.576691 303.606761 
L 294.31837 302.769392 
L 295.060049 303.606761 
L 296.543408 303.606761 
L 297.285087 302.769392 
L 299.510125 302.769392 
L 300.251805 312.81782 
L 300.993484 312.81782 
L 301.735163 300.257284 
L 302.476842 304.44413 
L 303.218522 303.606761 
L 306.185239 303.606761 
L 306.926918 304.44413 
L 307.668598 303.606761 
L 314.343711 303.606761 
L 315.085391 304.44413 
L 315.82707 325.378356 
L 316.568749 301.094653 
L 317.310429 301.094653 
L 318.052108 303.606761 
L 320.277146 303.606761 
L 321.018825 304.44413 
L 322.502184 302.769392 
L 323.243863 303.606761 
L 329.918977 303.606761 
L 331.402335 314.492559 
L 332.144015 299.419915 
L 332.885694 302.769392 
L 335.110732 302.769392 
L 335.852411 303.606761 
L 345.494242 303.606761 
L 346.235921 324.540987 
L 346.977601 302.769392 
L 347.71928 301.094653 
L 348.460959 303.606761 
L 352.169356 303.606761 
L 352.911035 302.769392 
L 353.652714 303.606761 
L 354.394394 303.606761 
L 355.136073 304.44413 
L 355.877752 303.606761 
L 356.619432 303.606761 
L 357.361111 304.44413 
L 358.10279 303.606761 
L 360.327828 303.606761 
L 361.069507 307.793606 
L 361.811187 317.004666 
L 362.552866 298.582546 
L 363.294545 301.932022 
L 364.036225 303.606761 
L 375.161414 303.606761 
L 375.903093 302.769392 
L 376.644773 322.866249 
L 377.386452 306.118868 
L 378.128131 300.257284 
L 378.869811 303.606761 
L 381.094849 303.606761 
L 381.836528 302.769392 
L 382.578207 303.606761 
L 383.319887 302.769392 
L 384.803245 302.769392 
L 385.544924 303.606761 
L 386.286604 302.769392 
L 387.028283 302.769392 
L 387.769962 303.606761 
L 390.73668 303.606761 
L 391.478359 306.956237 
L 392.220038 316.167297 
L 392.961717 298.582546 
L 393.703397 301.932022 
L 394.445076 303.606761 
L 396.670114 303.606761 
L 397.411793 302.769392 
L 398.153473 303.606761 
L 398.895152 302.769392 
L 406.311945 302.769392 
L 407.053624 321.191511 
L 408.536983 300.257284 
L 409.278662 303.606761 
L 412.245379 303.606761 
L 412.987059 302.769392 
L 413.728738 303.606761 
L 417.437134 303.606761 
L 418.178814 302.769392 
L 418.920493 303.606761 
L 421.145531 303.606761 
L 421.88721 305.281499 
L 422.62889 322.866249 
L 423.370569 299.419915 
L 424.112248 301.932022 
L 424.853927 302.769392 
L 426.337286 302.769392 
L 427.078965 303.606761 
L 427.820645 302.769392 
L 428.562324 303.606761 
L 431.529041 303.606761 
L 432.270721 302.769392 
L 433.0124 303.606761 
L 435.979117 303.606761 
L 436.720796 302.769392 
L 437.462476 317.004666 
L 438.204155 309.468344 
L 438.945834 298.582546 
L 439.687514 303.606761 
L 441.170872 303.606761 
L 441.912551 302.769392 
L 442.654231 303.606761 
L 447.104307 303.606761 
L 447.845986 302.769392 
L 448.587665 303.606761 
L 449.329345 302.769392 
L 450.071024 303.606761 
L 451.554382 303.606761 
L 452.296062 305.281499 
L 453.037741 323.703618 
L 453.77942 301.932022 
L 454.5211 301.932022 
L 455.262779 304.44413 
L 456.004458 304.44413 
L 456.746138 303.606761 
L 457.487817 304.44413 
L 458.229496 304.44413 
L 458.971175 303.606761 
L 459.712855 304.44413 
L 460.454534 303.606761 
L 461.937893 303.606761 
L 462.679572 302.769392 
L 463.421251 303.606761 
L 467.129648 303.606761 
L 467.871327 313.655189 
L 468.613006 311.143082 
L 469.354686 299.419915 
L 470.096365 303.606761 
L 470.838044 302.769392 
L 471.579724 303.606761 
L 473.063082 303.606761 
L 473.804762 302.769392 
L 474.546441 302.769392 
L 475.28812 303.606761 
L 476.029799 302.769392 
L 476.771479 303.606761 
L 477.513158 302.769392 
L 478.254837 302.769392 
L 478.996517 303.606761 
L 479.738196 302.769392 
L 481.221555 302.769392 
L 481.963234 303.606761 
L 482.704913 303.606761 
L 483.446592 326.215726 
L 484.188272 301.094653 
L 484.929951 300.257284 
L 485.67163 303.606761 
L 489.380027 303.606761 
L 490.121706 302.769392 
L 491.605065 302.769392 
L 492.346744 303.606761 
L 495.313461 303.606761 
L 496.055141 302.769392 
L 496.79682 303.606761 
L 497.538499 303.606761 
L 498.280179 308.630975 
L 499.021858 312.81782 
L 499.763537 299.419915 
L 500.505216 302.769392 
L 501.246896 303.606761 
L 510.147047 303.606761 
L 510.888727 304.44413 
L 511.630406 302.769392 
L 512.372085 303.606761 
L 513.113765 303.606761 
L 513.855444 323.703618 
L 514.597123 302.769392 
L 515.338802 300.257284 
L 516.080482 304.44413 
L 516.822161 303.606761 
L 517.56384 304.44413 
L 518.30552 303.606761 
L 519.047199 303.606761 
L 519.788878 304.44413 
L 520.530558 303.606761 
L 520.530558 303.606761 
" style="fill:none;stroke:#1f77b4;stroke-linecap:square;stroke-width:1.5;"/>
   </g>
   <g id="line2d_16">
    <path clip-path="url(#p0169da0e51)" d="M 114.817145 280.160427 
L 115.558824 240.80408 
L 116.300504 274.298843 
L 117.042183 231.593021 
L 117.783862 255.876724 
L 118.525542 234.942497 
L 119.267221 131.108732 
L 120.0089 145.344006 
L 120.75058 168.79034 
L 121.492259 188.049829 
L 122.233938 199.772996 
L 122.975617 176.326662 
L 123.717297 198.935627 
L 124.458976 166.278233 
L 125.200655 167.952971 
L 125.942335 144.506637 
L 126.684014 215.683008 
L 127.425693 199.772996 
L 128.167373 228.243544 
L 128.909052 186.375091 
L 129.650731 108.499767 
L 130.392411 136.132947 
L 131.13409 208.984056 
L 131.875769 181.350876 
L 132.617448 248.340402 
L 133.359128 272.624105 
L 134.100807 170.465079 
L 134.842486 282.672534 
L 135.584166 260.063569 
L 136.325845 273.461474 
L 137.067524 260.063569 
L 137.809204 268.43726 
L 138.550883 255.039355 
L 139.292562 253.364616 
L 140.034241 272.624105 
L 140.775921 271.786736 
L 141.5176 261.738307 
L 143.000959 274.298843 
L 143.742638 260.063569 
L 144.484317 270.949367 
L 145.225997 271.786736 
L 145.967676 255.039355 
L 146.709355 272.624105 
L 147.451034 243.316188 
L 148.192714 302.769392 
L 148.934393 282.672534 
L 150.417752 299.419915 
L 151.159431 302.769392 
L 151.90111 303.606761 
L 152.64279 301.932022 
L 153.384469 303.606761 
L 154.126148 302.769392 
L 156.351186 302.769392 
L 157.092865 303.606761 
L 159.317903 303.606761 
L 160.059583 301.932022 
L 160.801262 302.769392 
L 161.542941 301.932022 
L 162.284621 302.769392 
L 163.767979 316.167297 
L 164.509658 300.257284 
L 165.251338 303.606761 
L 165.993017 304.44413 
L 166.734696 304.44413 
L 167.476376 303.606761 
L 169.701414 303.606761 
L 170.443093 304.44413 
L 171.184772 303.606761 
L 173.40981 303.606761 
L 174.151489 304.44413 
L 174.893169 302.769392 
L 175.634848 303.606761 
L 177.859886 303.606761 
L 178.601565 324.540987 
L 179.343245 303.606761 
L 180.084924 301.094653 
L 180.826603 303.606761 
L 181.568282 302.769392 
L 182.309962 303.606761 
L 188.243396 303.606761 
L 188.985075 302.769392 
L 189.726755 303.606761 
L 190.468434 303.606761 
L 191.210113 302.769392 
L 192.693472 302.769392 
L 193.435151 306.956237 
L 194.176831 318.679404 
L 194.91851 300.257284 
L 195.660189 302.769392 
L 196.401868 304.44413 
L 197.143548 303.606761 
L 197.885227 304.44413 
L 198.626906 303.606761 
L 200.110265 303.606761 
L 200.851944 304.44413 
L 201.593624 304.44413 
L 202.335303 303.606761 
L 203.076982 304.44413 
L 203.818662 303.606761 
L 208.268737 303.606761 
L 209.010417 322.02888 
L 209.752096 302.769392 
L 210.493775 299.419915 
L 211.235455 303.606761 
L 212.718813 303.606761 
L 213.460492 302.769392 
L 214.202172 303.606761 
L 215.68553 303.606761 
L 216.42721 302.769392 
L 217.168889 303.606761 
L 217.910568 302.769392 
L 218.652248 303.606761 
L 220.877286 303.606761 
L 221.618965 302.769392 
L 222.360644 303.606761 
L 223.102323 302.769392 
L 223.844003 306.118868 
L 224.585682 317.842035 
L 225.327361 298.582546 
L 226.069041 301.932022 
L 226.81072 303.606761 
L 232.002475 303.606761 
L 232.744154 302.769392 
L 234.969192 302.769392 
L 235.710872 303.606761 
L 236.452551 303.606761 
L 237.19423 302.769392 
L 237.935909 303.606761 
L 238.677589 303.606761 
L 239.419268 318.679404 
L 240.160947 306.956237 
L 240.902627 300.257284 
L 241.644306 303.606761 
L 244.611023 303.606761 
L 245.352703 304.44413 
L 246.094382 302.769392 
L 246.836061 303.606761 
L 253.511175 303.606761 
L 254.252854 305.281499 
L 254.994533 321.191511 
L 255.736213 300.257284 
L 257.219571 303.606761 
L 257.961251 302.769392 
L 258.70293 303.606761 
L 265.378044 303.606761 
L 266.119723 302.769392 
L 269.08644 302.769392 
L 269.82812 315.329928 
L 271.311478 299.419915 
L 272.053157 303.606761 
L 278.728271 303.606761 
L 279.46995 302.769392 
L 280.21163 303.606761 
L 283.920026 303.606761 
L 284.661706 304.44413 
L 285.403385 324.540987 
L 286.145064 301.094653 
L 286.886743 301.094653 
L 287.628423 303.606761 
L 290.59514 303.606761 
L 291.336819 304.44413 
L 292.078499 303.606761 
L 296.528574 303.606761 
L 297.270254 302.769392 
L 298.011933 303.606761 
L 298.753612 303.606761 
L 299.495292 302.769392 
L 300.236971 312.81782 
L 300.97865 312.81782 
L 301.72033 300.257284 
L 302.462009 304.44413 
L 303.203688 303.606761 
L 306.170405 303.606761 
L 306.912085 304.44413 
L 307.653764 303.606761 
L 314.328878 303.606761 
L 315.070557 305.281499 
L 315.812236 325.378356 
L 316.553916 301.932022 
L 317.295595 301.094653 
L 318.037274 303.606761 
L 320.262312 303.606761 
L 321.003991 304.44413 
L 322.48735 302.769392 
L 323.229029 303.606761 
L 329.904143 303.606761 
L 331.387502 315.329928 
L 332.129181 299.419915 
L 332.87086 302.769392 
L 335.837578 302.769392 
L 336.579257 303.606761 
L 337.320936 302.769392 
L 338.062615 303.606761 
L 340.287653 303.606761 
L 341.029333 302.769392 
L 341.771012 303.606761 
L 345.479408 303.606761 
L 346.221088 324.540987 
L 346.962767 302.769392 
L 347.704446 301.094653 
L 348.446126 303.606761 
L 349.929484 303.606761 
L 350.671164 302.769392 
L 351.412843 303.606761 
L 354.37956 303.606761 
L 355.121239 304.44413 
L 355.862919 302.769392 
L 356.604598 303.606761 
L 360.312995 303.606761 
L 361.054674 306.956237 
L 361.796353 317.842035 
L 362.538032 298.582546 
L 363.279712 301.932022 
L 364.021391 303.606761 
L 372.179863 303.606761 
L 372.921543 302.769392 
L 373.663222 302.769392 
L 374.404901 303.606761 
L 375.88826 303.606761 
L 376.629939 321.191511 
L 377.371619 306.956237 
L 378.113298 300.257284 
L 378.854977 303.606761 
L 379.596656 303.606761 
L 380.338336 302.769392 
L 381.080015 303.606761 
L 381.821694 302.769392 
L 382.563374 303.606761 
L 383.305053 302.769392 
L 384.046732 302.769392 
L 384.788412 303.606761 
L 388.496808 303.606761 
L 389.238487 302.769392 
L 389.980167 303.606761 
L 390.721846 303.606761 
L 391.463525 306.956237 
L 392.205205 317.842035 
L 392.946884 298.582546 
L 393.688563 301.932022 
L 394.430242 303.606761 
L 395.913601 303.606761 
L 396.65528 302.769392 
L 397.39696 303.606761 
L 398.138639 303.606761 
L 398.880318 302.769392 
L 399.621998 302.769392 
L 400.363677 303.606761 
L 401.105356 302.769392 
L 401.847036 303.606761 
L 402.588715 303.606761 
L 403.330394 302.769392 
L 404.072073 303.606761 
L 404.813753 302.769392 
L 405.555432 303.606761 
L 406.297111 302.769392 
L 407.038791 320.354142 
L 407.78047 311.143082 
L 408.522149 300.257284 
L 409.263829 303.606761 
L 416.680622 303.606761 
L 417.422301 302.769392 
L 418.16398 302.769392 
L 418.905659 303.606761 
L 421.130697 303.606761 
L 421.872377 305.281499 
L 422.614056 322.866249 
L 423.355735 300.257284 
L 424.839094 303.606761 
L 425.580773 303.606761 
L 426.322453 302.769392 
L 427.064132 303.606761 
L 427.805811 302.769392 
L 428.54749 303.606761 
L 431.514208 303.606761 
L 432.255887 302.769392 
L 432.997566 303.606761 
L 433.739246 303.606761 
L 434.480925 302.769392 
L 435.222604 303.606761 
L 435.964283 303.606761 
L 436.705963 302.769392 
L 437.447642 316.167297 
L 438.189321 310.305713 
L 438.931001 298.582546 
L 439.67268 303.606761 
L 447.089473 303.606761 
L 447.831152 302.769392 
L 448.572832 303.606761 
L 449.314511 302.769392 
L 450.05619 303.606761 
L 451.539549 303.606761 
L 452.281228 305.281499 
L 453.022907 324.540987 
L 453.764587 301.932022 
L 454.506266 301.932022 
L 455.247945 304.44413 
L 455.989625 304.44413 
L 456.731304 303.606761 
L 457.472983 304.44413 
L 459.698021 304.44413 
L 460.4397 303.606761 
L 461.923059 303.606761 
L 462.664738 302.769392 
L 463.406418 303.606761 
L 467.114814 303.606761 
L 467.856494 311.980451 
L 468.598173 311.980451 
L 469.339852 299.419915 
L 470.081531 303.606761 
L 470.823211 302.769392 
L 471.56489 303.606761 
L 473.789928 303.606761 
L 474.531607 302.769392 
L 475.273287 303.606761 
L 477.498324 303.606761 
L 478.240004 302.769392 
L 478.981683 303.606761 
L 479.723362 303.606761 
L 480.465042 302.769392 
L 481.206721 303.606761 
L 482.69008 303.606761 
L 483.431759 327.053095 
L 484.173438 301.094653 
L 484.915117 300.257284 
L 485.656797 303.606761 
L 489.365193 303.606761 
L 490.106873 302.769392 
L 490.848552 302.769392 
L 491.590231 303.606761 
L 497.523666 303.606761 
L 498.265345 307.793606 
L 499.007024 313.655189 
L 499.748704 299.419915 
L 500.490383 303.606761 
L 504.198779 303.606761 
L 504.940459 302.769392 
L 505.682138 303.606761 
L 510.132214 303.606761 
L 510.873893 304.44413 
L 511.615572 303.606761 
L 513.098931 303.606761 
L 513.84061 322.866249 
L 514.58229 303.606761 
L 515.323969 300.257284 
L 516.065648 304.44413 
L 516.807328 303.606761 
L 516.807328 303.606761 
" style="fill:none;stroke:#ff7f0e;stroke-linecap:square;stroke-width:1.5;"/>
   </g>
   <g id="line2d_17">
    <path clip-path="url(#p0169da0e51)" d="M 119.283538 255.039355 
L 120.025217 167.115602 
L 120.766897 166.278233 
L 121.508576 129.433994 
L 122.250255 187.21246 
L 122.991934 181.350876 
L 123.733614 135.295578 
L 124.475293 209.821425 
L 125.216972 172.977186 
L 125.958652 60.76973 
L 126.700331 117.710827 
L 127.44201 196.42352 
L 128.18369 233.267759 
L 128.925369 192.236674 
L 129.667048 229.918283 
L 130.408727 242.478819 
L 131.150407 157.067173 
L 131.892086 222.381961 
L 132.633765 268.43726 
L 133.375445 278.485689 
L 134.117124 162.091388 
L 134.858803 284.347272 
L 135.600483 214.00827 
L 136.342162 278.485689 
L 137.083841 271.786736 
L 137.82552 251.689878 
L 138.5672 270.949367 
L 139.308879 255.876724 
L 140.050558 276.81095 
L 140.792238 257.551462 
L 141.533917 260.063569 
L 143.017276 273.461474 
L 143.758955 275.973581 
L 144.500634 273.461474 
L 145.242314 277.648319 
L 145.983993 251.689878 
L 146.725672 279.323058 
L 147.467351 237.454604 
L 148.209031 295.23307 
L 148.95071 277.648319 
L 149.692389 285.184641 
L 150.434069 299.419915 
L 151.175748 302.769392 
L 151.917427 303.606761 
L 152.659107 302.769392 
L 153.400786 303.606761 
L 154.142465 301.932022 
L 154.884144 302.769392 
L 157.850862 302.769392 
L 158.592541 303.606761 
L 159.33422 302.769392 
L 160.817579 302.769392 
L 161.559258 301.932022 
L 162.300937 297.745177 
L 163.042617 314.492559 
L 163.784296 315.329928 
L 164.525975 300.257284 
L 165.267655 303.606761 
L 166.009334 303.606761 
L 166.751013 304.44413 
L 167.492693 303.606761 
L 169.717731 303.606761 
L 170.45941 304.44413 
L 171.201089 303.606761 
L 173.426127 303.606761 
L 174.167806 304.44413 
L 174.909486 302.769392 
L 175.651165 303.606761 
L 177.876203 303.606761 
L 178.617882 327.890464 
L 179.359561 302.769392 
L 180.101241 301.094653 
L 180.84292 304.44413 
L 182.326279 302.769392 
L 183.067958 303.606761 
L 183.809637 302.769392 
L 184.551317 303.606761 
L 188.259713 303.606761 
L 189.001392 302.769392 
L 189.743072 303.606761 
L 190.484751 303.606761 
L 191.22643 302.769392 
L 192.709789 302.769392 
L 193.451468 307.793606 
L 194.193148 318.679404 
L 194.934827 300.257284 
L 195.676506 303.606761 
L 197.159865 303.606761 
L 197.901544 304.44413 
L 198.643223 303.606761 
L 200.126582 303.606761 
L 200.868261 304.44413 
L 201.609941 303.606761 
L 202.35162 303.606761 
L 203.093299 304.44413 
L 203.834978 303.606761 
L 204.576658 304.44413 
L 205.318337 303.606761 
L 207.543375 303.606761 
L 208.285054 304.44413 
L 209.026734 326.215726 
L 209.768413 301.932022 
L 210.510092 300.257284 
L 211.251772 303.606761 
L 212.73513 303.606761 
L 213.476809 302.769392 
L 214.218489 303.606761 
L 215.701847 303.606761 
L 216.443527 302.769392 
L 217.185206 303.606761 
L 217.926885 302.769392 
L 218.668565 303.606761 
L 220.893602 303.606761 
L 221.635282 302.769392 
L 222.376961 303.606761 
L 223.11864 302.769392 
L 223.86032 306.956237 
L 224.601999 317.842035 
L 225.343678 299.419915 
L 226.085358 302.769392 
L 226.827037 303.606761 
L 227.568716 302.769392 
L 228.310395 303.606761 
L 232.018792 303.606761 
L 232.760471 302.769392 
L 233.502151 302.769392 
L 234.24383 303.606761 
L 234.985509 302.769392 
L 235.727189 303.606761 
L 236.468868 303.606761 
L 237.210547 302.769392 
L 237.952226 303.606761 
L 238.693906 303.606761 
L 239.435585 320.354142 
L 240.177264 306.956237 
L 240.918944 300.257284 
L 241.660623 303.606761 
L 245.369019 303.606761 
L 246.110699 302.769392 
L 246.852378 303.606761 
L 253.527492 303.606761 
L 254.269171 305.281499 
L 255.01085 321.191511 
L 255.75253 300.257284 
L 257.235888 303.606761 
L 265.394361 303.606761 
L 266.13604 302.769392 
L 267.619399 302.769392 
L 268.361078 303.606761 
L 269.102757 302.769392 
L 269.844436 317.004666 
L 270.586116 306.956237 
L 271.327795 299.419915 
L 272.069474 304.44413 
L 272.811154 303.606761 
L 283.936343 303.606761 
L 284.678023 304.44413 
L 285.419702 322.866249 
L 286.161381 300.257284 
L 286.90306 301.094653 
L 287.64474 303.606761 
L 293.578174 303.606761 
L 294.319853 302.769392 
L 295.061533 303.606761 
L 295.803212 302.769392 
L 296.544891 303.606761 
L 297.286571 302.769392 
L 299.511609 302.769392 
L 300.253288 312.81782 
L 300.994967 311.980451 
L 301.736647 300.257284 
L 302.478326 304.44413 
L 303.220005 303.606761 
L 311.378477 303.606761 
L 312.120157 302.769392 
L 312.861836 303.606761 
L 314.345195 303.606761 
L 315.086874 304.44413 
L 315.828553 325.378356 
L 316.570233 301.094653 
L 317.311912 301.094653 
L 318.053591 303.606761 
L 321.761988 303.606761 
L 322.503667 302.769392 
L 323.245346 303.606761 
L 329.92046 303.606761 
L 330.662139 311.143082 
L 331.403819 314.492559 
L 332.145498 299.419915 
L 332.887177 302.769392 
L 335.112215 302.769392 
L 335.853894 303.606761 
L 345.495725 303.606761 
L 346.237405 325.378356 
L 346.979084 302.769392 
L 347.720763 301.094653 
L 348.462443 303.606761 
L 349.945801 303.606761 
L 350.687481 302.769392 
L 351.42916 303.606761 
L 354.395877 303.606761 
L 355.137556 304.44413 
L 355.879236 303.606761 
L 360.329311 303.606761 
L 361.070991 306.956237 
L 361.81267 317.004666 
L 362.554349 298.582546 
L 363.296029 301.932022 
L 364.037708 303.606761 
L 365.521067 303.606761 
L 366.262746 302.769392 
L 367.004425 303.606761 
L 369.229463 303.606761 
L 369.971142 302.769392 
L 370.712822 303.606761 
L 375.904577 303.606761 
L 376.646256 322.866249 
L 377.387935 306.118868 
L 378.129615 301.094653 
L 378.871294 303.606761 
L 379.612973 302.769392 
L 380.354653 303.606761 
L 381.096332 303.606761 
L 381.838011 302.769392 
L 382.579691 303.606761 
L 383.32137 302.769392 
L 384.804728 302.769392 
L 385.546408 303.606761 
L 386.288087 303.606761 
L 387.029766 302.769392 
L 387.771446 303.606761 
L 390.738163 303.606761 
L 391.479842 306.956237 
L 392.221522 317.004666 
L 392.963201 298.582546 
L 393.70488 301.932022 
L 394.446559 303.606761 
L 395.188239 302.769392 
L 395.929918 303.606761 
L 396.671597 303.606761 
L 397.413277 302.769392 
L 399.638315 302.769392 
L 400.379994 303.606761 
L 401.121673 302.769392 
L 401.863352 302.769392 
L 402.605032 303.606761 
L 403.346711 303.606761 
L 404.08839 302.769392 
L 404.83007 302.769392 
L 405.571749 303.606761 
L 406.313428 302.769392 
L 407.055108 319.516773 
L 408.538466 300.257284 
L 409.280145 303.606761 
L 412.246863 303.606761 
L 412.988542 302.769392 
L 413.730221 303.606761 
L 417.438618 303.606761 
L 418.180297 302.769392 
L 418.921976 302.769392 
L 419.663656 303.606761 
L 421.147014 303.606761 
L 421.888694 306.118868 
L 422.630373 322.02888 
L 423.372052 299.419915 
L 424.113732 301.932022 
L 425.59709 303.606761 
L 426.338769 302.769392 
L 427.080449 303.606761 
L 427.822128 302.769392 
L 428.563807 303.606761 
L 431.530525 303.606761 
L 432.272204 302.769392 
L 433.013883 303.606761 
L 435.9806 303.606761 
L 436.72228 302.769392 
L 437.463959 316.167297 
L 438.205638 309.468344 
L 438.947318 298.582546 
L 439.688997 303.606761 
L 448.589149 303.606761 
L 449.330828 302.769392 
L 450.072507 303.606761 
L 451.555866 303.606761 
L 452.297545 306.118868 
L 453.039224 323.703618 
L 453.780904 301.932022 
L 454.522583 301.932022 
L 455.264262 304.44413 
L 456.005942 304.44413 
L 456.747621 303.606761 
L 457.4893 304.44413 
L 458.972659 304.44413 
L 459.714338 303.606761 
L 467.131131 303.606761 
L 467.87281 311.980451 
L 468.61449 311.980451 
L 469.356169 299.419915 
L 470.097848 303.606761 
L 470.839528 302.769392 
L 471.581207 303.606761 
L 473.064566 303.606761 
L 473.806245 302.769392 
L 474.547924 302.769392 
L 475.289603 303.606761 
L 476.031283 302.769392 
L 476.772962 303.606761 
L 477.514641 303.606761 
L 478.256321 302.769392 
L 478.998 303.606761 
L 479.739679 302.769392 
L 481.223038 302.769392 
L 481.964717 303.606761 
L 482.706397 303.606761 
L 483.448076 326.215726 
L 484.189755 301.094653 
L 484.931434 300.257284 
L 485.673114 303.606761 
L 486.414793 302.769392 
L 487.156472 303.606761 
L 489.38151 303.606761 
L 490.12319 302.769392 
L 490.864869 302.769392 
L 491.606548 303.606761 
L 495.314945 303.606761 
L 496.056624 302.769392 
L 496.798303 303.606761 
L 497.539983 303.606761 
L 498.281662 308.630975 
L 499.023341 312.81782 
L 499.76502 299.419915 
L 500.5067 303.606761 
L 510.148531 303.606761 
L 510.89021 304.44413 
L 511.631889 302.769392 
L 512.373569 303.606761 
L 513.115248 303.606761 
L 513.856927 325.378356 
L 514.598607 302.769392 
L 515.340286 300.257284 
L 516.081965 304.44413 
L 516.823644 303.606761 
L 517.565324 304.44413 
L 518.307003 303.606761 
L 519.048682 303.606761 
L 519.790362 304.44413 
L 519.790362 304.44413 
" style="fill:none;stroke:#2ca02c;stroke-linecap:square;stroke-width:1.5;"/>
   </g>
   <g id="line2d_18">
    <path clip-path="url(#p0169da0e51)" d="M 113.33527 288.534117 
L 114.076949 327.053095 
L 114.818628 299.419915 
L 115.560308 250.01514 
L 116.301987 271.786736 
L 117.043666 207.309318 
L 117.785346 243.316188 
L 118.527025 236.617235 
L 119.268704 130.271363 
L 120.010384 158.741912 
L 120.752063 205.634579 
L 121.493742 200.610365 
L 122.235422 185.537722 
L 122.977101 190.561936 
L 123.71878 204.79721 
L 124.460459 152.880328 
L 125.202139 120.222934 
L 125.943818 126.921887 
L 127.427177 229.080913 
L 128.168856 206.471949 
L 128.910535 163.766126 
L 129.652215 190.561936 
L 130.393894 196.42352 
L 131.135573 214.00827 
L 131.877252 201.447734 
L 132.618932 268.43726 
L 133.360611 293.558332 
L 134.10229 213.170901 
L 134.84397 289.371486 
L 135.585649 265.925152 
L 136.327328 278.485689 
L 137.069008 279.323058 
L 137.810687 264.250414 
L 138.552366 267.599891 
L 139.294046 260.900938 
L 140.035725 270.949367 
L 140.777404 270.111998 
L 141.519083 258.388831 
L 142.260763 265.925152 
L 143.002442 270.111998 
L 143.744121 258.388831 
L 144.485801 260.063569 
L 145.22748 265.925152 
L 145.969159 216.520377 
L 146.710839 255.876724 
L 147.452518 231.593021 
L 148.194197 304.44413 
L 148.935876 259.2262 
L 149.677556 282.672534 
L 150.419235 299.419915 
L 151.160914 303.606761 
L 151.902594 303.606761 
L 152.644273 302.769392 
L 153.385952 304.44413 
L 154.127632 302.769392 
L 155.61099 302.769392 
L 156.352669 303.606761 
L 157.836028 303.606761 
L 158.577707 302.769392 
L 159.319387 303.606761 
L 160.061066 302.769392 
L 160.802745 302.769392 
L 161.544425 301.932022 
L 162.286104 294.395701 
L 163.027783 311.980451 
L 163.769463 316.167297 
L 164.511142 300.257284 
L 165.252821 303.606761 
L 165.9945 304.44413 
L 166.73618 304.44413 
L 167.477859 303.606761 
L 169.702897 303.606761 
L 170.444576 304.44413 
L 171.186256 303.606761 
L 173.411293 303.606761 
L 174.152973 304.44413 
L 174.894652 302.769392 
L 175.636331 303.606761 
L 177.861369 303.606761 
L 178.603049 327.053095 
L 179.344728 303.606761 
L 180.086407 301.094653 
L 180.828086 303.606761 
L 185.278162 303.606761 
L 186.019842 302.769392 
L 186.761521 303.606761 
L 187.5032 302.769392 
L 188.24488 303.606761 
L 188.986559 302.769392 
L 189.728238 302.769392 
L 190.469917 303.606761 
L 191.211597 302.769392 
L 192.694955 302.769392 
L 193.436635 306.956237 
L 194.178314 319.516773 
L 194.919993 300.257284 
L 195.661673 302.769392 
L 196.403352 303.606761 
L 197.145031 303.606761 
L 197.88671 304.44413 
L 198.62839 303.606761 
L 200.853428 303.606761 
L 201.595107 304.44413 
L 202.336786 303.606761 
L 203.078466 304.44413 
L 203.820145 303.606761 
L 204.561824 304.44413 
L 205.303503 303.606761 
L 208.270221 303.606761 
L 209.0119 325.378356 
L 209.753579 302.769392 
L 210.495259 300.257284 
L 211.236938 304.44413 
L 211.978617 303.606761 
L 212.720297 303.606761 
L 213.461976 302.769392 
L 214.203655 303.606761 
L 215.687014 303.606761 
L 216.428693 302.769392 
L 217.170372 303.606761 
L 222.362127 303.606761 
L 223.103807 302.769392 
L 223.845486 306.118868 
L 224.587165 318.679404 
L 225.328845 299.419915 
L 226.070524 301.932022 
L 226.812203 303.606761 
L 232.003958 303.606761 
L 232.745638 302.769392 
L 234.970676 302.769392 
L 235.712355 303.606761 
L 236.454034 302.769392 
L 237.195714 302.769392 
L 237.937393 303.606761 
L 238.679072 303.606761 
L 239.420751 322.866249 
L 240.162431 306.956237 
L 240.90411 299.419915 
L 241.645789 303.606761 
L 245.354186 303.606761 
L 246.095865 302.769392 
L 246.837544 303.606761 
L 252.770979 303.606761 
L 253.512658 302.769392 
L 254.254338 305.281499 
L 254.996017 321.191511 
L 255.737696 300.257284 
L 257.221055 303.606761 
L 257.962734 302.769392 
L 258.704413 303.606761 
L 259.446093 303.606761 
L 260.187772 302.769392 
L 260.929451 302.769392 
L 261.671131 303.606761 
L 265.379527 303.606761 
L 266.121206 302.769392 
L 267.604565 302.769392 
L 268.346244 303.606761 
L 269.087924 302.769392 
L 269.829603 317.842035 
L 270.571282 306.956237 
L 271.312961 298.582546 
L 272.054641 303.606761 
L 277.988075 303.606761 
L 278.729755 302.769392 
L 279.471434 302.769392 
L 280.213113 303.606761 
L 283.17983 303.606761 
L 283.92151 302.769392 
L 284.663189 304.44413 
L 285.404868 324.540987 
L 286.146548 300.257284 
L 286.888227 301.094653 
L 287.629906 303.606761 
L 288.371585 302.769392 
L 289.113265 303.606761 
L 293.563341 303.606761 
L 294.30502 302.769392 
L 295.046699 303.606761 
L 295.788378 302.769392 
L 296.530058 303.606761 
L 297.271737 302.769392 
L 299.496775 302.769392 
L 300.238454 315.329928 
L 300.980134 312.81782 
L 301.721813 299.419915 
L 302.463492 304.44413 
L 303.205172 303.606761 
L 303.946851 303.606761 
L 304.68853 302.769392 
L 305.430209 303.606761 
L 306.171889 303.606761 
L 306.913568 304.44413 
L 307.655247 303.606761 
L 314.330361 303.606761 
L 315.07204 304.44413 
L 315.81372 326.215726 
L 316.555399 301.094653 
L 317.297078 301.094653 
L 318.038758 303.606761 
L 321.747154 303.606761 
L 322.488833 302.769392 
L 323.230513 303.606761 
L 326.19723 303.606761 
L 326.938909 302.769392 
L 327.680589 303.606761 
L 328.422268 302.769392 
L 329.163947 303.606761 
L 329.905626 303.606761 
L 330.647306 311.143082 
L 331.388985 315.329928 
L 332.130664 298.582546 
L 332.872344 302.769392 
L 335.839061 302.769392 
L 336.58074 303.606761 
L 337.322419 302.769392 
L 338.064099 303.606761 
L 340.289137 303.606761 
L 341.030816 302.769392 
L 341.772495 303.606761 
L 342.514175 303.606761 
L 343.255854 302.769392 
L 343.997533 303.606761 
L 345.480892 303.606761 
L 346.222571 327.053095 
L 346.96425 302.769392 
L 347.70593 301.094653 
L 348.447609 303.606761 
L 349.189288 302.769392 
L 349.930968 303.606761 
L 350.672647 302.769392 
L 351.414326 303.606761 
L 352.156006 303.606761 
L 352.897685 302.769392 
L 353.639364 303.606761 
L 354.381043 303.606761 
L 355.122723 304.44413 
L 356.606081 302.769392 
L 357.347761 303.606761 
L 360.314478 303.606761 
L 361.056157 306.956237 
L 361.797836 318.679404 
L 362.539516 298.582546 
L 363.281195 301.932022 
L 364.022874 303.606761 
L 365.506233 303.606761 
L 366.247912 302.769392 
L 366.989592 303.606761 
L 368.47295 303.606761 
L 369.21463 302.769392 
L 369.956309 303.606761 
L 370.697988 303.606761 
L 371.439667 302.769392 
L 372.181347 303.606761 
L 372.923026 302.769392 
L 373.664705 302.769392 
L 374.406385 303.606761 
L 375.889743 303.606761 
L 376.631423 325.378356 
L 377.373102 306.956237 
L 378.114781 300.257284 
L 378.85646 303.606761 
L 379.59814 302.769392 
L 380.339819 303.606761 
L 381.081498 303.606761 
L 381.823178 302.769392 
L 382.564857 303.606761 
L 383.306536 302.769392 
L 384.789895 302.769392 
L 385.531574 303.606761 
L 390.723329 303.606761 
L 391.465009 306.118868 
L 392.206688 318.679404 
L 392.948367 298.582546 
L 393.690047 301.932022 
L 394.431726 303.606761 
L 395.915084 303.606761 
L 396.656764 302.769392 
L 397.398443 302.769392 
L 398.140122 303.606761 
L 398.881802 302.769392 
L 399.623481 302.769392 
L 400.36516 303.606761 
L 401.10684 302.769392 
L 403.331877 302.769392 
L 404.073557 303.606761 
L 404.815236 302.769392 
L 405.556915 303.606761 
L 406.298595 302.769392 
L 407.040274 322.866249 
L 408.523633 300.257284 
L 409.265312 303.606761 
L 412.232029 303.606761 
L 412.973708 302.769392 
L 413.715388 303.606761 
L 421.132181 303.606761 
L 421.87386 305.281499 
L 422.615539 323.703618 
L 423.357219 299.419915 
L 424.098898 301.932022 
L 424.840577 302.769392 
L 427.807294 302.769392 
L 428.548974 303.606761 
L 431.515691 303.606761 
L 432.25737 302.769392 
L 432.99905 302.769392 
L 433.740729 303.606761 
L 435.224088 303.606761 
L 435.965767 302.769392 
L 436.707446 302.769392 
L 437.449125 318.679404 
L 438.190805 310.305713 
L 438.932484 298.582546 
L 439.674163 303.606761 
L 441.157522 303.606761 
L 441.899201 302.769392 
L 442.640881 303.606761 
L 448.574315 303.606761 
L 449.315994 302.769392 
L 450.799353 304.44413 
L 451.541032 303.606761 
L 452.282711 305.281499 
L 453.024391 324.540987 
L 453.76607 301.932022 
L 454.507749 301.932022 
L 455.249429 304.44413 
L 455.991108 304.44413 
L 456.732787 303.606761 
L 457.474467 304.44413 
L 458.216146 304.44413 
L 458.957825 303.606761 
L 461.924542 303.606761 
L 462.666222 302.769392 
L 463.407901 303.606761 
L 467.116298 303.606761 
L 467.857977 314.492559 
L 468.599656 312.81782 
L 469.341335 299.419915 
L 470.083015 302.769392 
L 470.824694 302.769392 
L 471.566373 303.606761 
L 473.049732 303.606761 
L 473.791411 302.769392 
L 478.241487 302.769392 
L 478.983166 303.606761 
L 479.724846 302.769392 
L 481.208204 302.769392 
L 481.949884 303.606761 
L 482.691563 303.606761 
L 483.433242 327.053095 
L 484.174922 301.094653 
L 484.916601 300.257284 
L 485.65828 303.606761 
L 486.399959 303.606761 
L 487.141639 302.769392 
L 487.883318 303.606761 
L 489.366677 303.606761 
L 490.108356 302.769392 
L 491.591715 302.769392 
L 492.333394 303.606761 
L 495.300111 303.606761 
L 496.04179 302.769392 
L 496.78347 303.606761 
L 497.525149 303.606761 
L 499.008508 314.492559 
L 499.750187 299.419915 
L 500.491866 303.606761 
L 504.200263 303.606761 
L 504.941942 302.769392 
L 505.683621 303.606761 
L 510.875376 303.606761 
L 511.617056 302.769392 
L 512.358735 302.769392 
L 513.100414 303.606761 
L 513.842094 323.703618 
L 514.583773 303.606761 
L 515.325452 300.257284 
L 516.067132 304.44413 
L 516.067132 304.44413 
" style="fill:none;stroke:#d62728;stroke-linecap:square;stroke-width:1.5;"/>
   </g>
   <g id="line2d_19">
    <path clip-path="url(#p0169da0e51)" d="M 117.782379 275.973581 
L 118.524058 237.454604 
L 119.265738 94.264493 
L 120.007417 90.915017 
L 120.749096 159.579281 
L 121.490776 175.489293 
L 122.232455 156.229804 
L 122.974134 153.717697 
L 123.715813 184.700353 
L 124.457493 197.260889 
L 125.199172 111.849244 
L 125.940851 105.98766 
L 126.682531 181.350876 
L 127.42421 167.115602 
L 128.165889 227.406175 
L 128.907569 169.627709 
L 129.649248 214.845639 
L 130.390927 176.326662 
L 131.132606 198.098258 
L 131.874286 214.00827 
L 132.615965 197.260889 
L 133.357644 49.046563 
L 134.099324 145.344006 
L 134.841003 278.485689 
L 135.582682 249.177771 
L 136.324362 263.413045 
L 137.066041 257.551462 
L 137.80772 231.593021 
L 138.549399 260.900938 
L 139.291079 256.714093 
L 140.032758 265.087783 
L 140.774437 257.551462 
L 141.516117 263.413045 
L 142.257796 265.087783 
L 142.999475 267.599891 
L 143.741155 235.779866 
L 144.482834 250.852509 
L 145.224513 255.039355 
L 145.966193 222.381961 
L 146.707872 209.821425 
L 147.449551 222.381961 
L 148.19123 313.655189 
L 148.93291 250.01514 
L 149.674589 267.599891 
L 150.416268 298.582546 
L 151.157948 302.769392 
L 151.899627 302.769392 
L 152.641306 301.932022 
L 153.382986 303.606761 
L 154.124665 301.932022 
L 154.866344 302.769392 
L 155.608023 301.932022 
L 157.091382 303.606761 
L 157.833061 302.769392 
L 159.31642 302.769392 
L 160.058099 301.932022 
L 160.799779 302.769392 
L 161.541458 301.932022 
L 162.283137 292.720963 
L 163.024816 307.793606 
L 163.766496 316.167297 
L 164.508175 300.257284 
L 165.249854 302.769392 
L 165.991534 303.606761 
L 169.69993 303.606761 
L 170.44161 304.44413 
L 171.183289 303.606761 
L 174.150006 303.606761 
L 174.891685 302.769392 
L 175.633365 303.606761 
L 177.858403 303.606761 
L 178.600082 324.540987 
L 179.341761 303.606761 
L 180.08344 301.094653 
L 180.82512 303.606761 
L 181.566799 302.769392 
L 182.308478 302.769392 
L 183.050158 303.606761 
L 183.791837 302.769392 
L 184.533516 303.606761 
L 185.275196 303.606761 
L 186.016875 302.769392 
L 186.758554 303.606761 
L 188.241913 303.606761 
L 188.983592 302.769392 
L 192.691989 302.769392 
L 193.433668 306.956237 
L 194.175347 317.842035 
L 194.917027 300.257284 
L 195.658706 302.769392 
L 196.400385 303.606761 
L 197.142064 303.606761 
L 197.883744 304.44413 
L 198.625423 303.606761 
L 202.33382 303.606761 
L 203.075499 304.44413 
L 203.817178 303.606761 
L 208.267254 303.606761 
L 209.008933 322.866249 
L 209.750613 302.769392 
L 210.492292 299.419915 
L 211.233971 303.606761 
L 211.975651 303.606761 
L 212.71733 302.769392 
L 213.459009 302.769392 
L 214.200688 303.606761 
L 215.684047 303.606761 
L 216.425726 302.769392 
L 217.167406 303.606761 
L 217.909085 302.769392 
L 218.650764 303.606761 
L 220.875802 303.606761 
L 221.617481 302.769392 
L 222.359161 303.606761 
L 223.10084 302.769392 
L 223.842519 306.118868 
L 224.584199 317.842035 
L 225.325878 298.582546 
L 226.067557 301.932022 
L 226.809237 303.606761 
L 232.000992 303.606761 
L 232.742671 302.769392 
L 234.967709 302.769392 
L 235.709388 303.606761 
L 236.451068 303.606761 
L 237.192747 302.769392 
L 237.934426 303.606761 
L 238.676105 303.606761 
L 239.417785 317.842035 
L 240.159464 306.956237 
L 240.901143 300.257284 
L 241.642823 303.606761 
L 242.384502 303.606761 
L 243.126181 304.44413 
L 243.867861 303.606761 
L 245.351219 303.606761 
L 246.092898 302.769392 
L 246.834578 303.606761 
L 253.509691 303.606761 
L 254.251371 305.281499 
L 254.99305 320.354142 
L 255.734729 300.257284 
L 257.218088 303.606761 
L 257.959767 302.769392 
L 258.701447 303.606761 
L 259.443126 303.606761 
L 260.184805 302.769392 
L 260.926485 302.769392 
L 261.668164 303.606761 
L 265.37656 303.606761 
L 266.11824 302.769392 
L 269.084957 302.769392 
L 269.826636 317.004666 
L 270.568315 306.956237 
L 271.309995 298.582546 
L 272.051674 303.606761 
L 277.985109 303.606761 
L 278.726788 302.769392 
L 280.951826 302.769392 
L 281.693505 303.606761 
L 282.435184 303.606761 
L 283.176864 302.769392 
L 283.918543 303.606761 
L 284.660222 303.606761 
L 285.401902 324.540987 
L 286.143581 300.257284 
L 286.88526 301.094653 
L 287.626939 303.606761 
L 293.560374 303.606761 
L 294.302053 302.769392 
L 295.043732 303.606761 
L 296.527091 303.606761 
L 297.26877 302.769392 
L 299.493808 302.769392 
L 300.235488 313.655189 
L 300.977167 312.81782 
L 301.718846 299.419915 
L 302.460526 303.606761 
L 314.327394 303.606761 
L 315.069074 304.44413 
L 315.810753 325.378356 
L 316.552432 301.094653 
L 317.294112 301.094653 
L 318.035791 303.606761 
L 321.744187 303.606761 
L 322.485867 302.769392 
L 323.227546 303.606761 
L 329.90266 303.606761 
L 330.644339 311.143082 
L 331.386018 315.329928 
L 332.127698 298.582546 
L 332.869377 302.769392 
L 335.094415 302.769392 
L 335.836094 303.606761 
L 345.477925 303.606761 
L 346.219604 325.378356 
L 346.961284 302.769392 
L 347.702963 301.094653 
L 348.444642 303.606761 
L 349.186322 302.769392 
L 349.928001 303.606761 
L 350.66968 302.769392 
L 351.41136 303.606761 
L 354.378077 303.606761 
L 355.119756 304.44413 
L 355.861435 303.606761 
L 356.603115 303.606761 
L 357.344794 304.44413 
L 358.086473 303.606761 
L 360.311511 303.606761 
L 361.05319 307.793606 
L 361.79487 317.842035 
L 362.536549 298.582546 
L 363.278228 301.932022 
L 364.019908 303.606761 
L 370.695021 303.606761 
L 371.436701 302.769392 
L 372.17838 303.606761 
L 374.403418 303.606761 
L 375.145097 302.769392 
L 375.886777 303.606761 
L 376.628456 322.866249 
L 377.370135 306.956237 
L 378.111814 300.257284 
L 378.853494 303.606761 
L 379.595173 302.769392 
L 380.336852 303.606761 
L 381.078532 303.606761 
L 381.820211 302.769392 
L 382.56189 303.606761 
L 383.30357 302.769392 
L 384.786928 302.769392 
L 385.528607 303.606761 
L 390.720363 303.606761 
L 391.462042 306.956237 
L 392.203721 317.004666 
L 392.945401 298.582546 
L 393.68708 301.932022 
L 394.428759 303.606761 
L 395.170438 302.769392 
L 395.912118 303.606761 
L 396.653797 302.769392 
L 401.103873 302.769392 
L 401.845552 303.606761 
L 402.587231 302.769392 
L 406.295628 302.769392 
L 407.037307 319.516773 
L 408.520666 300.257284 
L 409.262345 303.606761 
L 412.229062 303.606761 
L 412.970742 302.769392 
L 413.712421 303.606761 
L 414.4541 302.769392 
L 415.19578 303.606761 
L 415.937459 303.606761 
L 416.679138 302.769392 
L 417.420818 303.606761 
L 418.162497 302.769392 
L 418.904176 303.606761 
L 421.129214 303.606761 
L 421.870893 305.281499 
L 422.612573 322.866249 
L 423.354252 300.257284 
L 424.837611 303.606761 
L 425.57929 302.769392 
L 426.320969 302.769392 
L 427.062648 303.606761 
L 427.804328 302.769392 
L 428.546007 303.606761 
L 431.512724 303.606761 
L 432.254404 302.769392 
L 432.996083 303.606761 
L 433.737762 303.606761 
L 434.479441 302.769392 
L 435.221121 302.769392 
L 435.9628 303.606761 
L 436.704479 302.769392 
L 437.446159 315.329928 
L 438.187838 310.305713 
L 438.929517 298.582546 
L 439.671197 303.606761 
L 448.571348 303.606761 
L 449.313028 302.769392 
L 450.054707 303.606761 
L 451.538065 303.606761 
L 452.279745 305.281499 
L 453.021424 323.703618 
L 453.763103 301.932022 
L 454.504783 301.932022 
L 455.246462 303.606761 
L 455.988141 304.44413 
L 456.729821 303.606761 
L 457.4715 303.606761 
L 458.213179 304.44413 
L 458.954859 303.606761 
L 461.921576 303.606761 
L 462.663255 302.769392 
L 463.404934 303.606761 
L 467.113331 303.606761 
L 467.85501 311.980451 
L 468.596689 311.980451 
L 469.338369 299.419915 
L 470.080048 303.606761 
L 473.788445 303.606761 
L 474.530124 302.769392 
L 475.271803 303.606761 
L 477.496841 303.606761 
L 478.23852 302.769392 
L 478.9802 303.606761 
L 479.721879 303.606761 
L 480.463558 302.769392 
L 481.205238 303.606761 
L 482.688596 303.606761 
L 483.430276 326.215726 
L 484.171955 301.094653 
L 484.913634 300.257284 
L 485.655313 303.606761 
L 486.396993 302.769392 
L 487.138672 303.606761 
L 489.36371 303.606761 
L 490.105389 302.769392 
L 490.847069 302.769392 
L 491.588748 303.606761 
L 495.297144 303.606761 
L 496.038824 302.769392 
L 496.780503 303.606761 
L 497.522182 302.769392 
L 498.263862 307.793606 
L 499.005541 313.655189 
L 499.74722 299.419915 
L 500.488899 303.606761 
L 510.87241 303.606761 
L 511.614089 302.769392 
L 512.355768 303.606761 
L 513.097448 303.606761 
L 513.839127 323.703618 
L 514.580806 303.606761 
L 515.322486 300.257284 
L 516.064165 304.44413 
L 516.805844 303.606761 
L 517.547523 304.44413 
L 518.289203 303.606761 
L 519.030882 303.606761 
L 519.030882 303.606761 
" style="fill:none;stroke:#9467bd;stroke-linecap:square;stroke-width:1.5;"/>
   </g>
   <g id="line2d_20">
    <path clip-path="url(#p0169da0e51)" d="M 116.300504 280.160427 
L 117.042183 193.074043 
L 117.783862 252.527247 
L 118.525542 219.869854 
L 119.267221 136.970316 
L 120.0089 141.99453 
L 120.75058 170.465079 
L 121.492259 182.188246 
L 122.233938 188.049829 
L 122.975617 181.350876 
L 123.717297 188.887198 
L 124.458976 190.561936 
L 125.200655 176.326662 
L 125.942335 109.337136 
L 126.684014 193.911413 
L 127.425693 203.122472 
L 128.167373 246.665664 
L 128.909052 191.399305 
L 129.650731 210.658794 
L 130.392411 213.170901 
L 131.13409 203.959841 
L 131.875769 226.568806 
L 132.617448 171.302448 
L 133.359128 224.056699 
L 134.100807 220.707223 
L 134.842486 284.347272 
L 135.584166 250.01514 
L 136.325845 270.111998 
L 137.809204 250.852509 
L 138.550883 260.063569 
L 139.292562 243.316188 
L 140.034241 270.949367 
L 140.775921 253.364616 
L 141.5176 272.624105 
L 142.259279 270.949367 
L 143.000959 270.949367 
L 143.742638 252.527247 
L 144.484317 270.111998 
L 145.225997 265.925152 
L 145.967676 246.665664 
L 146.709355 261.738307 
L 147.451034 248.340402 
L 148.192714 305.281499 
L 148.934393 260.900938 
L 149.676072 270.949367 
L 150.417752 298.582546 
L 151.159431 302.769392 
L 151.90111 302.769392 
L 152.64279 301.932022 
L 153.384469 303.606761 
L 154.126148 301.932022 
L 155.609507 301.932022 
L 157.092865 303.606761 
L 157.834545 302.769392 
L 159.317903 302.769392 
L 160.059583 301.932022 
L 160.801262 302.769392 
L 161.542941 301.932022 
L 162.284621 301.932022 
L 163.0263 306.118868 
L 163.767979 316.167297 
L 164.509658 300.257284 
L 165.251338 302.769392 
L 165.993017 303.606761 
L 169.701414 303.606761 
L 170.443093 304.44413 
L 171.184772 303.606761 
L 173.40981 303.606761 
L 174.151489 304.44413 
L 174.893169 302.769392 
L 175.634848 303.606761 
L 177.859886 303.606761 
L 178.601565 324.540987 
L 179.343245 303.606761 
L 180.084924 301.094653 
L 180.826603 304.44413 
L 181.568282 303.606761 
L 188.243396 303.606761 
L 188.985075 302.769392 
L 189.726755 302.769392 
L 190.468434 303.606761 
L 191.210113 302.769392 
L 192.693472 302.769392 
L 193.435151 306.956237 
L 194.176831 317.842035 
L 194.91851 300.257284 
L 195.660189 302.769392 
L 196.401868 303.606761 
L 197.143548 303.606761 
L 197.885227 304.44413 
L 198.626906 303.606761 
L 208.268737 303.606761 
L 209.010417 322.866249 
L 209.752096 302.769392 
L 210.493775 300.257284 
L 211.235455 303.606761 
L 212.718813 303.606761 
L 213.460492 302.769392 
L 214.202172 303.606761 
L 215.68553 303.606761 
L 216.42721 302.769392 
L 217.168889 303.606761 
L 220.877286 303.606761 
L 221.618965 302.769392 
L 222.360644 303.606761 
L 223.102323 302.769392 
L 223.844003 306.118868 
L 224.585682 317.842035 
L 225.327361 299.419915 
L 226.069041 301.932022 
L 226.81072 303.606761 
L 227.552399 302.769392 
L 228.294079 303.606761 
L 232.002475 303.606761 
L 232.744154 302.769392 
L 234.969192 302.769392 
L 235.710872 303.606761 
L 236.452551 303.606761 
L 237.19423 302.769392 
L 237.935909 303.606761 
L 238.677589 303.606761 
L 239.419268 318.679404 
L 240.160947 306.956237 
L 240.902627 300.257284 
L 241.644306 303.606761 
L 242.385985 303.606761 
L 243.127665 304.44413 
L 243.869344 303.606761 
L 244.611023 303.606761 
L 245.352703 304.44413 
L 246.094382 302.769392 
L 246.836061 303.606761 
L 253.511175 303.606761 
L 254.252854 306.118868 
L 254.994533 320.354142 
L 255.736213 300.257284 
L 257.219571 303.606761 
L 257.961251 302.769392 
L 258.70293 303.606761 
L 263.153006 303.606761 
L 263.894685 302.769392 
L 264.636364 303.606761 
L 265.378044 303.606761 
L 266.119723 302.769392 
L 267.603082 302.769392 
L 268.344761 303.606761 
L 269.08644 302.769392 
L 269.82812 316.167297 
L 270.569799 306.956237 
L 271.311478 299.419915 
L 272.053157 303.606761 
L 278.728271 303.606761 
L 279.46995 302.769392 
L 280.21163 302.769392 
L 280.953309 303.606761 
L 281.694988 303.606761 
L 282.436668 302.769392 
L 283.178347 303.606761 
L 283.920026 303.606761 
L 284.661706 305.281499 
L 285.403385 323.703618 
L 286.145064 301.094653 
L 286.886743 301.094653 
L 287.628423 303.606761 
L 295.045216 303.606761 
L 295.786895 302.769392 
L 296.528574 303.606761 
L 297.270254 302.769392 
L 299.495292 302.769392 
L 300.236971 313.655189 
L 300.97865 312.81782 
L 301.72033 300.257284 
L 302.462009 304.44413 
L 303.203688 303.606761 
L 303.945367 303.606761 
L 304.687047 302.769392 
L 305.428726 303.606761 
L 306.170405 303.606761 
L 306.912085 304.44413 
L 307.653764 302.769392 
L 308.395443 303.606761 
L 314.328878 303.606761 
L 315.070557 304.44413 
L 315.812236 325.378356 
L 316.553916 301.094653 
L 317.295595 301.094653 
L 318.037274 303.606761 
L 321.745671 303.606761 
L 322.48735 302.769392 
L 323.229029 303.606761 
L 329.904143 303.606761 
L 330.645822 308.630975 
L 331.387502 315.329928 
L 332.129181 298.582546 
L 332.87086 302.769392 
L 335.095898 302.769392 
L 335.837578 303.606761 
L 345.479408 303.606761 
L 346.221088 324.540987 
L 346.962767 302.769392 
L 347.704446 301.094653 
L 348.446126 303.606761 
L 349.187805 303.606761 
L 349.929484 304.44413 
L 350.671164 303.606761 
L 354.37956 303.606761 
L 355.121239 304.44413 
L 355.862919 303.606761 
L 358.087957 303.606761 
L 358.829636 304.44413 
L 359.571315 303.606761 
L 360.312995 303.606761 
L 361.054674 307.793606 
L 361.796353 317.004666 
L 362.538032 298.582546 
L 363.279712 301.932022 
L 364.021391 303.606761 
L 372.921543 303.606761 
L 373.663222 302.769392 
L 374.404901 303.606761 
L 375.146581 303.606761 
L 375.88826 302.769392 
L 376.629939 322.866249 
L 377.371619 306.118868 
L 378.113298 300.257284 
L 378.854977 303.606761 
L 379.596656 303.606761 
L 380.338336 302.769392 
L 381.080015 303.606761 
L 381.821694 302.769392 
L 382.563374 303.606761 
L 383.305053 302.769392 
L 384.788412 302.769392 
L 385.530091 303.606761 
L 390.721846 303.606761 
L 391.463525 306.118868 
L 392.205205 317.842035 
L 392.946884 298.582546 
L 393.688563 301.932022 
L 394.430242 302.769392 
L 395.171922 302.769392 
L 395.913601 303.606761 
L 396.65528 302.769392 
L 397.39696 302.769392 
L 398.138639 303.606761 
L 398.880318 302.769392 
L 406.297111 302.769392 
L 407.038791 322.02888 
L 408.522149 300.257284 
L 409.263829 303.606761 
L 412.230546 303.606761 
L 412.972225 302.769392 
L 413.713904 303.606761 
L 417.422301 303.606761 
L 418.16398 302.769392 
L 418.905659 303.606761 
L 421.130697 303.606761 
L 421.872377 305.281499 
L 422.614056 322.866249 
L 423.355735 299.419915 
L 424.097415 301.932022 
L 424.839094 302.769392 
L 427.805811 302.769392 
L 428.54749 303.606761 
L 431.514208 303.606761 
L 432.255887 302.769392 
L 432.997566 303.606761 
L 433.739246 303.606761 
L 434.480925 302.769392 
L 435.222604 303.606761 
L 435.964283 302.769392 
L 436.705963 302.769392 
L 437.447642 316.167297 
L 438.189321 310.305713 
L 438.931001 298.582546 
L 439.67268 303.606761 
L 448.572832 303.606761 
L 449.314511 302.769392 
L 450.05619 303.606761 
L 451.539549 303.606761 
L 452.281228 305.281499 
L 453.022907 323.703618 
L 453.764587 301.932022 
L 454.506266 301.932022 
L 455.247945 304.44413 
L 455.989625 304.44413 
L 456.731304 303.606761 
L 457.472983 304.44413 
L 458.956342 304.44413 
L 459.698021 303.606761 
L 461.923059 303.606761 
L 462.664738 302.769392 
L 463.406418 303.606761 
L 467.114814 303.606761 
L 467.856494 311.980451 
L 468.598173 312.81782 
L 469.339852 299.419915 
L 470.081531 303.606761 
L 470.823211 302.769392 
L 471.56489 303.606761 
L 473.048249 303.606761 
L 473.789928 302.769392 
L 475.273287 302.769392 
L 476.014966 303.606761 
L 476.756645 303.606761 
L 477.498324 302.769392 
L 478.240004 302.769392 
L 478.981683 303.606761 
L 479.723362 303.606761 
L 480.465042 302.769392 
L 481.206721 302.769392 
L 481.9484 303.606761 
L 482.69008 303.606761 
L 483.431759 326.215726 
L 484.173438 301.094653 
L 484.915117 300.257284 
L 485.656797 303.606761 
L 489.365193 303.606761 
L 490.106873 302.769392 
L 490.848552 302.769392 
L 491.590231 303.606761 
L 495.298628 303.606761 
L 496.040307 302.769392 
L 496.781986 302.769392 
L 497.523666 303.606761 
L 498.265345 307.793606 
L 499.007024 314.492559 
L 499.748704 299.419915 
L 500.490383 303.606761 
L 510.873893 303.606761 
L 511.615572 302.769392 
L 512.357252 303.606761 
L 513.098931 303.606761 
L 513.84061 324.540987 
L 514.58229 302.769392 
L 515.323969 300.257284 
L 516.065648 304.44413 
L 516.807328 303.606761 
L 519.032365 303.606761 
L 519.774045 304.44413 
L 519.774045 304.44413 
" style="fill:none;stroke:#8c564b;stroke-linecap:square;stroke-width:1.5;"/>
   </g>
   <g id="line2d_21">
    <path clip-path="url(#p0169da0e51)" d="M 122.315523 254.201986 
L 123.057202 196.42352 
L 123.798881 148.693483 
L 124.540561 151.20559 
L 125.28224 195.586151 
L 126.023919 159.579281 
L 126.765599 178.838769 
L 127.507278 175.489293 
L 128.248957 198.098258 
L 128.990637 226.568806 
L 130.473995 178.0014 
L 131.215675 247.503033 
L 131.957354 219.032485 
L 132.699033 274.298843 
L 133.440712 258.388831 
L 134.182392 234.942497 
L 134.924071 278.485689 
L 135.66575 262.575676 
L 136.40743 270.949367 
L 137.149109 273.461474 
L 137.890788 261.738307 
L 138.632468 274.298843 
L 139.374147 270.949367 
L 140.115826 270.949367 
L 140.857505 268.43726 
L 141.599185 271.786736 
L 142.340864 276.81095 
L 143.082543 280.160427 
L 143.824223 264.250414 
L 144.565902 280.997796 
L 145.307581 281.835165 
L 146.049261 271.786736 
L 146.79094 274.298843 
L 147.532619 273.461474 
L 148.274299 297.745177 
L 149.015978 275.973581 
L 149.757657 293.558332 
L 150.499336 300.257284 
L 151.241016 303.606761 
L 151.982695 303.606761 
L 152.724374 302.769392 
L 153.466054 303.606761 
L 154.207733 301.932022 
L 154.949412 302.769392 
L 156.432771 302.769392 
L 157.17445 303.606761 
L 157.916129 302.769392 
L 158.657809 303.606761 
L 159.399488 302.769392 
L 160.882847 302.769392 
L 161.624526 301.094653 
L 162.366205 298.582546 
L 163.107885 313.655189 
L 163.849564 312.81782 
L 164.591243 300.257284 
L 165.332922 303.606761 
L 166.074602 304.44413 
L 166.816281 303.606761 
L 169.041319 303.606761 
L 169.782998 304.44413 
L 170.524678 304.44413 
L 171.266357 303.606761 
L 172.749716 303.606761 
L 173.491395 304.44413 
L 174.233074 303.606761 
L 177.199791 303.606761 
L 177.941471 304.44413 
L 178.68315 325.378356 
L 179.424829 301.094653 
L 180.166509 301.932022 
L 180.908188 303.606761 
L 188.324981 303.606761 
L 189.06666 302.769392 
L 189.808339 303.606761 
L 190.550019 303.606761 
L 191.291698 302.769392 
L 192.775057 302.769392 
L 193.516736 308.630975 
L 194.258415 316.167297 
L 195.000095 300.257284 
L 195.741774 303.606761 
L 198.708491 303.606761 
L 199.45017 302.769392 
L 200.933529 304.44413 
L 201.675208 303.606761 
L 202.416888 303.606761 
L 203.158567 304.44413 
L 203.900246 303.606761 
L 204.641926 304.44413 
L 205.383605 303.606761 
L 207.608643 303.606761 
L 208.350322 304.44413 
L 209.092001 324.540987 
L 209.833681 300.257284 
L 210.57536 300.257284 
L 211.317039 303.606761 
L 212.800398 303.606761 
L 213.542077 302.769392 
L 214.283756 303.606761 
L 215.767115 303.606761 
L 216.508794 302.769392 
L 217.250474 303.606761 
L 219.475512 303.606761 
L 220.217191 302.769392 
L 220.95887 303.606761 
L 222.442229 303.606761 
L 223.183908 302.769392 
L 223.925587 306.956237 
L 224.667267 315.329928 
L 225.408946 299.419915 
L 226.150625 302.769392 
L 226.892305 302.769392 
L 227.633984 303.606761 
L 232.08406 303.606761 
L 232.825739 302.769392 
L 235.050777 302.769392 
L 235.792456 303.606761 
L 236.534136 303.606761 
L 237.275815 302.769392 
L 238.017494 303.606761 
L 238.759174 303.606761 
L 239.500853 322.02888 
L 240.242532 304.44413 
L 240.984211 300.257284 
L 241.725891 303.606761 
L 245.434287 303.606761 
L 246.175967 302.769392 
L 246.917646 303.606761 
L 252.85108 303.606761 
L 253.59276 302.769392 
L 254.334439 306.956237 
L 255.076118 317.842035 
L 255.817797 299.419915 
L 256.559477 302.769392 
L 257.301156 303.606761 
L 266.201308 303.606761 
L 266.942987 302.769392 
L 267.684666 302.769392 
L 268.426346 303.606761 
L 269.168025 302.769392 
L 269.909704 320.354142 
L 270.651384 304.44413 
L 271.393063 299.419915 
L 272.134742 304.44413 
L 272.876421 303.606761 
L 278.068177 303.606761 
L 278.809856 302.769392 
L 279.551535 302.769392 
L 280.293214 303.606761 
L 281.034894 302.769392 
L 281.776573 303.606761 
L 282.518252 302.769392 
L 284.001611 302.769392 
L 284.74329 305.281499 
L 285.48497 322.02888 
L 286.226649 299.419915 
L 286.968328 301.932022 
L 287.710008 303.606761 
L 293.643442 303.606761 
L 294.385121 302.769392 
L 295.126801 303.606761 
L 296.610159 303.606761 
L 297.351838 302.769392 
L 298.093518 303.606761 
L 298.835197 302.769392 
L 299.576876 302.769392 
L 300.318556 317.842035 
L 301.801914 300.257284 
L 302.543594 304.44413 
L 303.285273 303.606761 
L 306.993669 303.606761 
L 307.735349 302.769392 
L 308.477028 303.606761 
L 312.927104 303.606761 
L 313.668783 302.769392 
L 314.410462 303.606761 
L 315.152142 305.281499 
L 315.893821 322.866249 
L 316.6355 299.419915 
L 317.37718 301.094653 
L 318.118859 303.606761 
L 321.085576 303.606761 
L 321.827255 302.769392 
L 322.568935 302.769392 
L 323.310614 303.606761 
L 328.502369 303.606761 
L 329.244049 302.769392 
L 329.985728 303.606761 
L 330.727407 313.655189 
L 331.469086 311.980451 
L 332.210766 299.419915 
L 332.952445 302.769392 
L 335.177483 302.769392 
L 335.919162 303.606761 
L 337.402521 303.606761 
L 338.1442 302.769392 
L 338.885879 303.606761 
L 344.077635 303.606761 
L 344.819314 302.769392 
L 345.560993 304.44413 
L 346.302672 323.703618 
L 347.044352 301.094653 
L 347.786031 301.094653 
L 348.52771 303.606761 
L 353.719466 303.606761 
L 354.461145 304.44413 
L 355.202824 304.44413 
L 355.944503 303.606761 
L 359.6529 303.606761 
L 360.394579 304.44413 
L 361.136259 308.630975 
L 361.877938 315.329928 
L 362.619617 298.582546 
L 363.361296 302.769392 
L 364.102976 303.606761 
L 370.778089 303.606761 
L 371.519769 302.769392 
L 372.261448 303.606761 
L 375.969845 303.606761 
L 376.711524 325.378356 
L 377.453203 304.44413 
L 378.194883 301.094653 
L 378.936562 303.606761 
L 381.1616 303.606761 
L 381.903279 302.769392 
L 383.386638 302.769392 
L 384.128317 303.606761 
L 384.869996 302.769392 
L 385.611676 303.606761 
L 390.803431 303.606761 
L 391.54511 307.793606 
L 392.286789 314.492559 
L 393.028469 298.582546 
L 393.770148 302.769392 
L 394.511827 303.606761 
L 395.995186 303.606761 
L 396.736865 302.769392 
L 397.478544 303.606761 
L 398.220224 302.769392 
L 398.961903 302.769392 
L 399.703582 303.606761 
L 400.445262 302.769392 
L 401.186941 303.606761 
L 401.92862 302.769392 
L 402.6703 303.606761 
L 403.411979 303.606761 
L 404.153658 302.769392 
L 405.637017 302.769392 
L 406.378696 303.606761 
L 407.120375 323.703618 
L 407.862055 307.793606 
L 408.603734 300.257284 
L 409.345413 303.606761 
L 411.570451 303.606761 
L 412.31213 302.769392 
L 413.05381 303.606761 
L 417.503886 303.606761 
L 418.245565 302.769392 
L 418.987244 303.606761 
L 419.728924 303.606761 
L 420.470603 302.769392 
L 421.212282 303.606761 
L 421.953961 307.793606 
L 422.695641 320.354142 
L 423.43732 299.419915 
L 424.178999 302.769392 
L 424.920679 303.606761 
L 427.145717 303.606761 
L 427.887396 302.769392 
L 428.629075 303.606761 
L 431.595792 303.606761 
L 432.337472 302.769392 
L 433.079151 303.606761 
L 435.304189 303.606761 
L 436.045868 302.769392 
L 436.787547 302.769392 
L 437.529227 319.516773 
L 438.270906 306.956237 
L 439.012585 299.419915 
L 439.754265 303.606761 
L 448.654416 303.606761 
L 449.396096 302.769392 
L 450.137775 303.606761 
L 450.879454 303.606761 
L 451.621134 304.44413 
L 452.362813 306.118868 
L 453.104492 321.191511 
L 453.846171 301.094653 
L 454.587851 301.932022 
L 455.32953 304.44413 
L 456.071209 304.44413 
L 456.812889 303.606761 
L 457.554568 304.44413 
L 459.779606 304.44413 
L 460.521285 303.606761 
L 462.004644 303.606761 
L 462.746323 302.769392 
L 463.488002 303.606761 
L 464.229682 302.769392 
L 464.971361 303.606761 
L 467.196399 303.606761 
L 467.938078 314.492559 
L 468.679758 309.468344 
L 469.421437 300.257284 
L 470.163116 303.606761 
L 470.904795 302.769392 
L 471.646475 303.606761 
L 473.129833 303.606761 
L 473.871513 302.769392 
L 476.096551 302.769392 
L 476.83823 303.606761 
L 477.579909 302.769392 
L 478.321588 303.606761 
L 479.804947 303.606761 
L 480.546626 302.769392 
L 481.288306 302.769392 
L 482.771664 304.44413 
L 483.513344 323.703618 
L 484.255023 299.419915 
L 484.996702 301.094653 
L 485.738382 303.606761 
L 489.446778 303.606761 
L 490.188457 302.769392 
L 490.930137 302.769392 
L 491.671816 303.606761 
L 492.413495 303.606761 
L 493.155175 302.769392 
L 493.896854 303.606761 
L 495.380212 303.606761 
L 496.121892 302.769392 
L 496.863571 303.606761 
L 497.60525 303.606761 
L 498.34693 311.980451 
L 499.088609 310.305713 
L 499.830288 300.257284 
L 500.571968 303.606761 
L 503.538685 303.606761 
L 504.280364 302.769392 
L 505.022043 303.606761 
L 513.180516 303.606761 
L 513.922195 325.378356 
L 514.663874 301.094653 
L 515.405554 301.094653 
L 516.147233 304.44413 
L 516.888912 303.606761 
L 518.372271 303.606761 
L 519.11395 304.44413 
L 522.080667 304.44413 
L 522.080667 304.44413 
" style="fill:none;stroke:#e377c2;stroke-linecap:square;stroke-width:1.5;"/>
   </g>
   <g id="line2d_22">
    <path clip-path="url(#p0169da0e51)" d="M 123.797398 258.388831 
L 124.539077 213.170901 
L 125.280757 131.108732 
L 126.022436 82.541326 
L 126.764115 140.319792 
L 127.505795 214.845639 
L 128.247474 212.333532 
L 128.989153 195.586151 
L 129.730833 196.42352 
L 130.472512 198.935627 
L 131.214191 184.700353 
L 131.95587 183.025615 
L 132.69755 286.859379 
L 133.439229 260.900938 
L 134.180908 165.440864 
L 134.922588 278.485689 
L 135.664267 244.153557 
L 136.405946 267.599891 
L 137.147626 260.900938 
L 137.889305 252.527247 
L 138.630984 255.039355 
L 139.372664 253.364616 
L 140.114343 262.575676 
L 140.856022 255.876724 
L 141.597701 266.762522 
L 142.339381 267.599891 
L 143.08106 280.997796 
L 143.822739 267.599891 
L 144.564419 273.461474 
L 145.306098 286.02201 
L 146.047777 255.039355 
L 146.789457 276.81095 
L 147.531136 262.575676 
L 148.272815 296.907808 
L 149.014494 276.81095 
L 149.756174 298.582546 
L 150.497853 300.257284 
L 151.239532 302.769392 
L 152.722891 302.769392 
L 153.46457 303.606761 
L 154.20625 301.932022 
L 154.947929 302.769392 
L 155.689608 302.769392 
L 156.431287 303.606761 
L 157.172967 303.606761 
L 157.914646 302.769392 
L 158.656325 303.606761 
L 159.398005 302.769392 
L 160.881363 302.769392 
L 162.364722 299.419915 
L 163.106401 316.167297 
L 163.848081 312.81782 
L 164.58976 300.257284 
L 165.331439 303.606761 
L 166.073118 304.44413 
L 166.814798 303.606761 
L 169.039836 303.606761 
L 169.781515 304.44413 
L 170.523194 304.44413 
L 171.264874 303.606761 
L 172.748232 303.606761 
L 173.489911 304.44413 
L 174.97327 302.769392 
L 175.714949 303.606761 
L 177.198308 303.606761 
L 177.939987 304.44413 
L 178.681667 325.378356 
L 179.423346 301.932022 
L 180.165025 301.932022 
L 180.906704 303.606761 
L 181.648384 303.606761 
L 182.390063 302.769392 
L 183.131742 303.606761 
L 185.35678 303.606761 
L 186.09846 302.769392 
L 186.840139 303.606761 
L 188.323498 303.606761 
L 189.065177 302.769392 
L 189.806856 303.606761 
L 190.548535 302.769392 
L 192.773573 302.769392 
L 193.515253 311.143082 
L 194.256932 315.329928 
L 194.998611 300.257284 
L 195.740291 302.769392 
L 196.48197 303.606761 
L 198.707008 303.606761 
L 199.448687 302.769392 
L 200.932046 304.44413 
L 201.673725 303.606761 
L 203.898763 303.606761 
L 204.640442 304.44413 
L 205.382122 303.606761 
L 208.348839 303.606761 
L 209.090518 327.053095 
L 209.832197 300.257284 
L 210.573877 300.257284 
L 211.315556 303.606761 
L 212.798915 303.606761 
L 213.540594 302.769392 
L 214.282273 303.606761 
L 215.765632 303.606761 
L 216.507311 302.769392 
L 217.24899 303.606761 
L 222.440745 303.606761 
L 223.182425 302.769392 
L 223.924104 307.793606 
L 224.665783 317.004666 
L 225.407463 298.582546 
L 226.149142 302.769392 
L 226.890821 303.606761 
L 232.082576 303.606761 
L 232.824256 302.769392 
L 235.049294 302.769392 
L 235.790973 303.606761 
L 236.532652 303.606761 
L 237.274332 302.769392 
L 238.016011 303.606761 
L 238.75769 303.606761 
L 239.499369 325.378356 
L 240.241049 304.44413 
L 240.982728 300.257284 
L 241.724407 303.606761 
L 245.432804 303.606761 
L 246.174483 302.769392 
L 246.916162 303.606761 
L 253.591276 303.606761 
L 254.332956 306.956237 
L 255.074635 319.516773 
L 255.816314 299.419915 
L 256.557993 302.769392 
L 257.299673 303.606761 
L 258.041352 302.769392 
L 258.783031 303.606761 
L 259.524711 302.769392 
L 260.26639 303.606761 
L 263.233107 303.606761 
L 263.974786 302.769392 
L 264.716466 303.606761 
L 265.458145 303.606761 
L 266.199824 302.769392 
L 267.683183 302.769392 
L 268.424862 303.606761 
L 269.166542 302.769392 
L 269.908221 322.866249 
L 270.6499 304.44413 
L 271.391579 299.419915 
L 272.133259 303.606761 
L 278.066693 303.606761 
L 278.808373 302.769392 
L 281.03341 302.769392 
L 281.77509 303.606761 
L 282.516769 302.769392 
L 283.258448 302.769392 
L 284.741807 304.44413 
L 285.483486 322.02888 
L 286.225166 299.419915 
L 286.966845 301.932022 
L 288.450203 303.606761 
L 294.383638 303.606761 
L 295.125317 302.769392 
L 295.866997 303.606761 
L 296.608676 302.769392 
L 299.575393 302.769392 
L 300.317072 320.354142 
L 301.058752 309.468344 
L 301.800431 300.257284 
L 302.54211 304.44413 
L 303.28379 303.606761 
L 305.508827 303.606761 
L 306.250507 304.44413 
L 306.992186 303.606761 
L 314.408979 303.606761 
L 315.150658 305.281499 
L 315.892338 323.703618 
L 316.634017 300.257284 
L 317.375696 301.094653 
L 318.117376 303.606761 
L 320.342414 303.606761 
L 321.084093 304.44413 
L 321.825772 302.769392 
L 322.567451 302.769392 
L 323.309131 303.606761 
L 329.984244 303.606761 
L 330.725924 316.167297 
L 331.467603 311.980451 
L 332.209282 299.419915 
L 332.950962 302.769392 
L 335.176 302.769392 
L 335.917679 303.606761 
L 344.817831 303.606761 
L 345.55951 304.44413 
L 346.301189 325.378356 
L 347.042868 301.094653 
L 347.784548 301.932022 
L 348.526227 303.606761 
L 350.009586 303.606761 
L 350.751265 302.769392 
L 351.492944 303.606761 
L 354.459661 303.606761 
L 355.201341 304.44413 
L 355.94302 303.606761 
L 360.393096 303.606761 
L 361.134775 312.81782 
L 361.876454 315.329928 
L 362.618134 298.582546 
L 363.359813 302.769392 
L 364.101492 303.606761 
L 370.034927 303.606761 
L 370.776606 302.769392 
L 371.518285 303.606761 
L 375.968361 303.606761 
L 376.710041 328.727833 
L 377.45172 304.44413 
L 378.193399 301.094653 
L 378.935078 303.606761 
L 379.676758 302.769392 
L 380.418437 303.606761 
L 381.160116 303.606761 
L 381.901796 302.769392 
L 382.643475 303.606761 
L 383.385154 302.769392 
L 384.868513 302.769392 
L 385.610192 303.606761 
L 390.801947 303.606761 
L 391.543627 307.793606 
L 392.285306 316.167297 
L 393.026985 298.582546 
L 393.768665 301.932022 
L 395.252023 303.606761 
L 395.993702 303.606761 
L 396.735382 302.769392 
L 401.927137 302.769392 
L 402.668816 303.606761 
L 403.410495 303.606761 
L 404.152175 302.769392 
L 404.893854 303.606761 
L 406.377213 303.606761 
L 407.118892 327.053095 
L 407.860571 307.793606 
L 408.602251 300.257284 
L 409.34393 303.606761 
L 417.502402 303.606761 
L 418.244082 302.769392 
L 418.985761 303.606761 
L 419.72744 303.606761 
L 420.469119 302.769392 
L 421.210799 303.606761 
L 421.952478 306.118868 
L 422.694157 320.354142 
L 423.435837 298.582546 
L 424.177516 302.769392 
L 427.885912 302.769392 
L 428.627592 303.606761 
L 431.594309 303.606761 
L 432.335988 302.769392 
L 433.077668 303.606761 
L 433.819347 303.606761 
L 434.561026 302.769392 
L 435.302706 303.606761 
L 436.044385 302.769392 
L 436.786064 302.769392 
L 437.527743 320.354142 
L 438.269423 306.956237 
L 439.011102 298.582546 
L 439.752781 304.44413 
L 440.494461 303.606761 
L 446.427895 303.606761 
L 447.169574 302.769392 
L 447.911254 303.606761 
L 448.652933 303.606761 
L 449.394612 302.769392 
L 450.136292 303.606761 
L 450.877971 303.606761 
L 451.61965 304.44413 
L 452.361329 306.118868 
L 453.103009 322.02888 
L 453.844688 301.094653 
L 454.586367 301.932022 
L 455.328047 304.44413 
L 456.069726 304.44413 
L 456.811405 303.606761 
L 457.553085 304.44413 
L 459.036443 304.44413 
L 459.778123 303.606761 
L 462.00316 303.606761 
L 462.74484 302.769392 
L 463.486519 303.606761 
L 467.194916 303.606761 
L 467.936595 316.167297 
L 468.678274 309.468344 
L 469.419953 299.419915 
L 470.161633 303.606761 
L 473.12835 303.606761 
L 473.870029 302.769392 
L 474.611709 303.606761 
L 475.353388 303.606761 
L 476.095067 302.769392 
L 476.836747 303.606761 
L 477.578426 302.769392 
L 478.320105 302.769392 
L 479.061784 303.606761 
L 479.803464 303.606761 
L 480.545143 302.769392 
L 481.286822 302.769392 
L 482.770181 304.44413 
L 483.51186 324.540987 
L 484.25354 299.419915 
L 484.995219 301.094653 
L 485.736898 303.606761 
L 489.445295 303.606761 
L 490.186974 302.769392 
L 490.928653 302.769392 
L 491.670333 303.606761 
L 495.378729 303.606761 
L 496.120408 302.769392 
L 496.862088 303.606761 
L 497.603767 303.606761 
L 498.345446 313.655189 
L 499.087126 310.305713 
L 499.828805 299.419915 
L 500.570484 303.606761 
L 513.179032 303.606761 
L 513.920712 327.053095 
L 514.662391 301.094653 
L 515.40407 301.094653 
L 516.14575 304.44413 
L 516.887429 303.606761 
L 517.629108 304.44413 
L 518.370787 303.606761 
L 519.112467 304.44413 
L 519.854146 304.44413 
L 520.595825 303.606761 
L 521.337505 304.44413 
L 522.079184 303.606761 
L 522.820863 304.44413 
L 523.562543 303.606761 
L 523.562543 303.606761 
" style="fill:none;stroke:#7f7f7f;stroke-linecap:square;stroke-width:1.5;"/>
   </g>
   <g id="patch_3">
    <path d="M 92.823906 352.174167 
L 92.823906 35.0625 
" style="fill:none;stroke:#000000;stroke-linecap:square;stroke-linejoin:miter;stroke-width:0.8;"/>
   </g>
   <g id="patch_4">
    <path d="M 544.073906 352.174167 
L 544.073906 35.0625 
" style="fill:none;stroke:#000000;stroke-linecap:square;stroke-linejoin:miter;stroke-width:0.8;"/>
   </g>
   <g id="patch_5">
    <path d="M 92.823906 352.174167 
L 544.073906 352.174167 
" style="fill:none;stroke:#000000;stroke-linecap:square;stroke-linejoin:miter;stroke-width:0.8;"/>
   </g>
   <g id="patch_6">
    <path d="M 92.823906 35.0625 
L 544.073906 35.0625 
" style="fill:none;stroke:#000000;stroke-linecap:square;stroke-linejoin:miter;stroke-width:0.8;"/>
   </g>
   <g id="legend_1">
    <g id="patch_7">
     <path d="M 568.636406 155.4875 
L 630.169219 155.4875 
Q 632.169219 155.4875 632.169219 153.4875 
L 632.169219 37.0625 
Q 632.169219 35.0625 630.169219 35.0625 
L 568.636406 35.0625 
Q 566.636406 35.0625 566.636406 37.0625 
L 566.636406 153.4875 
Q 566.636406 155.4875 568.636406 155.4875 
z
" style="fill:#ffffff;opacity:0.8;stroke:#cccccc;stroke-linejoin:miter;"/>
    </g>
    <g id="line2d_23">
     <path d="M 570.636406 43.160937 
L 590.636406 43.160937 
" style="fill:none;stroke:#1f77b4;stroke-linecap:square;stroke-width:1.5;"/>
    </g>
    <g id="line2d_24"/>
    <g id="text_16">
     <!-- bbr-pi -->
     <defs>
      <path d="M 48.6875 27.296875 
Q 48.6875 37.203125 44.609375 42.84375 
Q 40.53125 48.484375 33.40625 48.484375 
Q 26.265625 48.484375 22.1875 42.84375 
Q 18.109375 37.203125 18.109375 27.296875 
Q 18.109375 17.390625 22.1875 11.75 
Q 26.265625 6.109375 33.40625 6.109375 
Q 40.53125 6.109375 44.609375 11.75 
Q 48.6875 17.390625 48.6875 27.296875 
z
M 18.109375 46.390625 
Q 20.953125 51.265625 25.265625 53.625 
Q 29.59375 56 35.59375 56 
Q 45.5625 56 51.78125 48.09375 
Q 58.015625 40.1875 58.015625 27.296875 
Q 58.015625 14.40625 51.78125 6.484375 
Q 45.5625 -1.421875 35.59375 -1.421875 
Q 29.59375 -1.421875 25.265625 0.953125 
Q 20.953125 3.328125 18.109375 8.203125 
L 18.109375 0 
L 9.078125 0 
L 9.078125 75.984375 
L 18.109375 75.984375 
z
" id="DejaVuSans-98"/>
      <path d="M 4.890625 31.390625 
L 31.203125 31.390625 
L 31.203125 23.390625 
L 4.890625 23.390625 
z
" id="DejaVuSans-45"/>
      <path d="M 18.109375 8.203125 
L 18.109375 -20.796875 
L 9.078125 -20.796875 
L 9.078125 54.6875 
L 18.109375 54.6875 
L 18.109375 46.390625 
Q 20.953125 51.265625 25.265625 53.625 
Q 29.59375 56 35.59375 56 
Q 45.5625 56 51.78125 48.09375 
Q 58.015625 40.1875 58.015625 27.296875 
Q 58.015625 14.40625 51.78125 6.484375 
Q 45.5625 -1.421875 35.59375 -1.421875 
Q 29.59375 -1.421875 25.265625 0.953125 
Q 20.953125 3.328125 18.109375 8.203125 
z
M 48.6875 27.296875 
Q 48.6875 37.203125 44.609375 42.84375 
Q 40.53125 48.484375 33.40625 48.484375 
Q 26.265625 48.484375 22.1875 42.84375 
Q 18.109375 37.203125 18.109375 27.296875 
Q 18.109375 17.390625 22.1875 11.75 
Q 26.265625 6.109375 33.40625 6.109375 
Q 40.53125 6.109375 44.609375 11.75 
Q 48.6875 17.390625 48.6875 27.296875 
z
" id="DejaVuSans-112"/>
      <path d="M 9.421875 54.6875 
L 18.40625 54.6875 
L 18.40625 0 
L 9.421875 0 
z
M 9.421875 75.984375 
L 18.40625 75.984375 
L 18.40625 64.59375 
L 9.421875 64.59375 
z
" id="DejaVuSans-105"/>
     </defs>
     <g transform="translate(598.636406 46.660937)scale(0.1 -0.1)">
      <use xlink:href="#DejaVuSans-98"/>
      <use x="63.476562" xlink:href="#DejaVuSans-98"/>
      <use x="126.953125" xlink:href="#DejaVuSans-114"/>
      <use x="167.972656" xlink:href="#DejaVuSans-45"/>
      <use x="204.056641" xlink:href="#DejaVuSans-112"/>
      <use x="267.533203" xlink:href="#DejaVuSans-105"/>
     </g>
    </g>
    <g id="line2d_25">
     <path d="M 570.636406 57.839063 
L 590.636406 57.839063 
" style="fill:none;stroke:#ff7f0e;stroke-linecap:square;stroke-width:1.5;"/>
    </g>
    <g id="line2d_26"/>
    <g id="text_17">
     <!-- bbr-pi -->
     <g transform="translate(598.636406 61.339063)scale(0.1 -0.1)">
      <use xlink:href="#DejaVuSans-98"/>
      <use x="63.476562" xlink:href="#DejaVuSans-98"/>
      <use x="126.953125" xlink:href="#DejaVuSans-114"/>
      <use x="167.972656" xlink:href="#DejaVuSans-45"/>
      <use x="204.056641" xlink:href="#DejaVuSans-112"/>
      <use x="267.533203" xlink:href="#DejaVuSans-105"/>
     </g>
    </g>
    <g id="line2d_27">
     <path d="M 570.636406 72.517187 
L 590.636406 72.517187 
" style="fill:none;stroke:#2ca02c;stroke-linecap:square;stroke-width:1.5;"/>
    </g>
    <g id="line2d_28"/>
    <g id="text_18">
     <!-- bbr-pi -->
     <g transform="translate(598.636406 76.017187)scale(0.1 -0.1)">
      <use xlink:href="#DejaVuSans-98"/>
      <use x="63.476562" xlink:href="#DejaVuSans-98"/>
      <use x="126.953125" xlink:href="#DejaVuSans-114"/>
      <use x="167.972656" xlink:href="#DejaVuSans-45"/>
      <use x="204.056641" xlink:href="#DejaVuSans-112"/>
      <use x="267.533203" xlink:href="#DejaVuSans-105"/>
     </g>
    </g>
    <g id="line2d_29">
     <path d="M 570.636406 87.195312 
L 590.636406 87.195312 
" style="fill:none;stroke:#d62728;stroke-linecap:square;stroke-width:1.5;"/>
    </g>
    <g id="line2d_30"/>
    <g id="text_19">
     <!-- bbr-pi -->
     <g transform="translate(598.636406 90.695312)scale(0.1 -0.1)">
      <use xlink:href="#DejaVuSans-98"/>
      <use x="63.476562" xlink:href="#DejaVuSans-98"/>
      <use x="126.953125" xlink:href="#DejaVuSans-114"/>
      <use x="167.972656" xlink:href="#DejaVuSans-45"/>
      <use x="204.056641" xlink:href="#DejaVuSans-112"/>
      <use x="267.533203" xlink:href="#DejaVuSans-105"/>
     </g>
    </g>
    <g id="line2d_31">
     <path d="M 570.636406 101.873438 
L 590.636406 101.873438 
" style="fill:none;stroke:#9467bd;stroke-linecap:square;stroke-width:1.5;"/>
    </g>
    <g id="line2d_32"/>
    <g id="text_20">
     <!-- bbr-pi -->
     <g transform="translate(598.636406 105.373438)scale(0.1 -0.1)">
      <use xlink:href="#DejaVuSans-98"/>
      <use x="63.476562" xlink:href="#DejaVuSans-98"/>
      <use x="126.953125" xlink:href="#DejaVuSans-114"/>
      <use x="167.972656" xlink:href="#DejaVuSans-45"/>
      <use x="204.056641" xlink:href="#DejaVuSans-112"/>
      <use x="267.533203" xlink:href="#DejaVuSans-105"/>
     </g>
    </g>
    <g id="line2d_33">
     <path d="M 570.636406 116.551562 
L 590.636406 116.551562 
" style="fill:none;stroke:#8c564b;stroke-linecap:square;stroke-width:1.5;"/>
    </g>
    <g id="line2d_34"/>
    <g id="text_21">
     <!-- bbr-pi -->
     <g transform="translate(598.636406 120.051562)scale(0.1 -0.1)">
      <use xlink:href="#DejaVuSans-98"/>
      <use x="63.476562" xlink:href="#DejaVuSans-98"/>
      <use x="126.953125" xlink:href="#DejaVuSans-114"/>
      <use x="167.972656" xlink:href="#DejaVuSans-45"/>
      <use x="204.056641" xlink:href="#DejaVuSans-112"/>
      <use x="267.533203" xlink:href="#DejaVuSans-105"/>
     </g>
    </g>
    <g id="line2d_35">
     <path d="M 570.636406 131.229687 
L 590.636406 131.229687 
" style="fill:none;stroke:#e377c2;stroke-linecap:square;stroke-width:1.5;"/>
    </g>
    <g id="line2d_36"/>
    <g id="text_22">
     <!-- bbr-pi -->
     <g transform="translate(598.636406 134.729687)scale(0.1 -0.1)">
      <use xlink:href="#DejaVuSans-98"/>
      <use x="63.476562" xlink:href="#DejaVuSans-98"/>
      <use x="126.953125" xlink:href="#DejaVuSans-114"/>
      <use x="167.972656" xlink:href="#DejaVuSans-45"/>
      <use x="204.056641" xlink:href="#DejaVuSans-112"/>
      <use x="267.533203" xlink:href="#DejaVuSans-105"/>
     </g>
    </g>
    <g id="line2d_37">
     <path d="M 570.636406 145.907812 
L 590.636406 145.907812 
" style="fill:none;stroke:#7f7f7f;stroke-linecap:square;stroke-width:1.5;"/>
    </g>
    <g id="line2d_38"/>
    <g id="text_23">
     <!-- bbr-pi -->
     <g transform="translate(598.636406 149.407812)scale(0.1 -0.1)">
      <use xlink:href="#DejaVuSans-98"/>
      <use x="63.476562" xlink:href="#DejaVuSans-98"/>
      <use x="126.953125" xlink:href="#DejaVuSans-114"/>
      <use x="167.972656" xlink:href="#DejaVuSans-45"/>
      <use x="204.056641" xlink:href="#DejaVuSans-112"/>
      <use x="267.533203" xlink:href="#DejaVuSans-105"/>
     </g>
    </g>
   </g>
  </g>
  <g id="text_24">
   <!-- result rtt -->
   <defs>
    <path d="M 56.203125 29.59375 
L 56.203125 25.203125 
L 14.890625 25.203125 
Q 15.484375 15.921875 20.484375 11.0625 
Q 25.484375 6.203125 34.421875 6.203125 
Q 39.59375 6.203125 44.453125 7.46875 
Q 49.3125 8.734375 54.109375 11.28125 
L 54.109375 2.78125 
Q 49.265625 0.734375 44.1875 -0.34375 
Q 39.109375 -1.421875 33.890625 -1.421875 
Q 20.796875 -1.421875 13.15625 6.1875 
Q 5.515625 13.8125 5.515625 26.8125 
Q 5.515625 40.234375 12.765625 48.109375 
Q 20.015625 56 32.328125 56 
Q 43.359375 56 49.78125 48.890625 
Q 56.203125 41.796875 56.203125 29.59375 
z
M 47.21875 32.234375 
Q 47.125 39.59375 43.09375 43.984375 
Q 39.0625 48.390625 32.421875 48.390625 
Q 24.90625 48.390625 20.390625 44.140625 
Q 15.875 39.890625 15.1875 32.171875 
z
" id="DejaVuSans-101"/>
    <path d="M 8.5 21.578125 
L 8.5 54.6875 
L 17.484375 54.6875 
L 17.484375 21.921875 
Q 17.484375 14.15625 20.5 10.265625 
Q 23.53125 6.390625 29.59375 6.390625 
Q 36.859375 6.390625 41.078125 11.03125 
Q 45.3125 15.671875 45.3125 23.6875 
L 45.3125 54.6875 
L 54.296875 54.6875 
L 54.296875 0 
L 45.3125 0 
L 45.3125 8.40625 
Q 42.046875 3.421875 37.71875 1 
Q 33.40625 -1.421875 27.6875 -1.421875 
Q 18.265625 -1.421875 13.375 4.4375 
Q 8.5 10.296875 8.5 21.578125 
z
M 31.109375 56 
z
" id="DejaVuSans-117"/>
    <path d="M 9.421875 75.984375 
L 18.40625 75.984375 
L 18.40625 0 
L 9.421875 0 
z
" id="DejaVuSans-108"/>
    <path id="DejaVuSans-32"/>
   </defs>
   <g transform="translate(315.818438 17.038125)scale(0.12 -0.12)">
    <use xlink:href="#DejaVuSans-114"/>
    <use x="41.082031" xlink:href="#DejaVuSans-101"/>
    <use x="102.605469" xlink:href="#DejaVuSans-115"/>
    <use x="154.705078" xlink:href="#DejaVuSans-117"/>
    <use x="218.083984" xlink:href="#DejaVuSans-108"/>
    <use x="245.867188" xlink:href="#DejaVuSans-116"/>
    <use x="285.076172" xlink:href="#DejaVuSans-32"/>
    <use x="316.863281" xlink:href="#DejaVuSans-114"/>
    <use x="357.976562" xlink:href="#DejaVuSans-116"/>
    <use x="397.185547" xlink:href="#DejaVuSans-116"/>
   </g>
  </g>
 </g>
 <defs>
  <clipPath id="p0169da0e51">
   <rect height="317.111667" width="451.25" x="92.823906" y="35.0625"/>
  </clipPath>
 </defs>
</svg>
