<?xml version="1.0" encoding="utf-8" standalone="no"?>
<!DOCTYPE svg PUBLIC "-//W3C//DTD SVG 1.1//EN"
  "http://www.w3.org/Graphics/SVG/1.1/DTD/svg11.dtd">
<!-- Created with matplotlib (https://matplotlib.org/) -->
<svg height="396pt" version="1.1" viewBox="0 0 684 396" width="684pt" xmlns="http://www.w3.org/2000/svg" xmlns:xlink="http://www.w3.org/1999/xlink">
 <defs>
  <style type="text/css">
*{stroke-linecap:butt;stroke-linejoin:round;}
  </style>
 </defs>
 <g id="figure_1">
  <g id="patch_1">
   <path d="M 0 396 
L 684 396 
L 684 0 
L 0 0 
z
" style="fill:#ffffff;"/>
  </g>
  <g id="axes_1">
   <g id="patch_2">
    <path d="M 92.823906 352.174167 
L 544.073906 352.174167 
L 544.073906 35.0625 
L 92.823906 35.0625 
z
" style="fill:#ffffff;"/>
   </g>
   <g id="matplotlib.axis_1">
    <g id="xtick_1">
     <g id="line2d_1">
      <defs>
       <path d="M 0 0 
L 0 3.5 
" id="m25172a5093" style="stroke:#000000;stroke-width:0.8;"/>
      </defs>
      <g>
       <use style="stroke:#000000;stroke-width:0.8;" x="113.312932" xlink:href="#m25172a5093" y="352.174167"/>
      </g>
     </g>
     <g id="text_1">
      <!-- 0 -->
      <defs>
       <path d="M 31.78125 66.40625 
Q 24.171875 66.40625 20.328125 58.90625 
Q 16.5 51.421875 16.5 36.375 
Q 16.5 21.390625 20.328125 13.890625 
Q 24.171875 6.390625 31.78125 6.390625 
Q 39.453125 6.390625 43.28125 13.890625 
Q 47.125 21.390625 47.125 36.375 
Q 47.125 51.421875 43.28125 58.90625 
Q 39.453125 66.40625 31.78125 66.40625 
z
M 31.78125 74.21875 
Q 44.046875 74.21875 50.515625 64.515625 
Q 56.984375 54.828125 56.984375 36.375 
Q 56.984375 17.96875 50.515625 8.265625 
Q 44.046875 -1.421875 31.78125 -1.421875 
Q 19.53125 -1.421875 13.0625 8.265625 
Q 6.59375 17.96875 6.59375 36.375 
Q 6.59375 54.828125 13.0625 64.515625 
Q 19.53125 74.21875 31.78125 74.21875 
z
" id="DejaVuSans-48"/>
      </defs>
      <g transform="translate(110.131682 366.772604)scale(0.1 -0.1)">
       <use xlink:href="#DejaVuSans-48"/>
      </g>
     </g>
    </g>
    <g id="xtick_2">
     <g id="line2d_2">
      <g>
       <use style="stroke:#000000;stroke-width:0.8;" x="187.772451" xlink:href="#m25172a5093" y="352.174167"/>
      </g>
     </g>
     <g id="text_2">
      <!-- 50 -->
      <defs>
       <path d="M 10.796875 72.90625 
L 49.515625 72.90625 
L 49.515625 64.59375 
L 19.828125 64.59375 
L 19.828125 46.734375 
Q 21.96875 47.46875 24.109375 47.828125 
Q 26.265625 48.1875 28.421875 48.1875 
Q 40.625 48.1875 47.75 41.5 
Q 54.890625 34.8125 54.890625 23.390625 
Q 54.890625 11.625 47.5625 5.09375 
Q 40.234375 -1.421875 26.90625 -1.421875 
Q 22.3125 -1.421875 17.546875 -0.640625 
Q 12.796875 0.140625 7.71875 1.703125 
L 7.71875 11.625 
Q 12.109375 9.234375 16.796875 8.0625 
Q 21.484375 6.890625 26.703125 6.890625 
Q 35.15625 6.890625 40.078125 11.328125 
Q 45.015625 15.765625 45.015625 23.390625 
Q 45.015625 31 40.078125 35.4375 
Q 35.15625 39.890625 26.703125 39.890625 
Q 22.75 39.890625 18.8125 39.015625 
Q 14.890625 38.140625 10.796875 36.28125 
z
" id="DejaVuSans-53"/>
      </defs>
      <g transform="translate(181.409951 366.772604)scale(0.1 -0.1)">
       <use xlink:href="#DejaVuSans-53"/>
       <use x="63.623047" xlink:href="#DejaVuSans-48"/>
      </g>
     </g>
    </g>
    <g id="xtick_3">
     <g id="line2d_3">
      <g>
       <use style="stroke:#000000;stroke-width:0.8;" x="262.23197" xlink:href="#m25172a5093" y="352.174167"/>
      </g>
     </g>
     <g id="text_3">
      <!-- 100 -->
      <defs>
       <path d="M 12.40625 8.296875 
L 28.515625 8.296875 
L 28.515625 63.921875 
L 10.984375 60.40625 
L 10.984375 69.390625 
L 28.421875 72.90625 
L 38.28125 72.90625 
L 38.28125 8.296875 
L 54.390625 8.296875 
L 54.390625 0 
L 12.40625 0 
z
" id="DejaVuSans-49"/>
      </defs>
      <g transform="translate(252.68822 366.772604)scale(0.1 -0.1)">
       <use xlink:href="#DejaVuSans-49"/>
       <use x="63.623047" xlink:href="#DejaVuSans-48"/>
       <use x="127.246094" xlink:href="#DejaVuSans-48"/>
      </g>
     </g>
    </g>
    <g id="xtick_4">
     <g id="line2d_4">
      <g>
       <use style="stroke:#000000;stroke-width:0.8;" x="336.691488" xlink:href="#m25172a5093" y="352.174167"/>
      </g>
     </g>
     <g id="text_4">
      <!-- 150 -->
      <g transform="translate(327.147738 366.772604)scale(0.1 -0.1)">
       <use xlink:href="#DejaVuSans-49"/>
       <use x="63.623047" xlink:href="#DejaVuSans-53"/>
       <use x="127.246094" xlink:href="#DejaVuSans-48"/>
      </g>
     </g>
    </g>
    <g id="xtick_5">
     <g id="line2d_5">
      <g>
       <use style="stroke:#000000;stroke-width:0.8;" x="411.151007" xlink:href="#m25172a5093" y="352.174167"/>
      </g>
     </g>
     <g id="text_5">
      <!-- 200 -->
      <defs>
       <path d="M 19.1875 8.296875 
L 53.609375 8.296875 
L 53.609375 0 
L 7.328125 0 
L 7.328125 8.296875 
Q 12.9375 14.109375 22.625 23.890625 
Q 32.328125 33.6875 34.8125 36.53125 
Q 39.546875 41.84375 41.421875 45.53125 
Q 43.3125 49.21875 43.3125 52.78125 
Q 43.3125 58.59375 39.234375 62.25 
Q 35.15625 65.921875 28.609375 65.921875 
Q 23.96875 65.921875 18.8125 64.3125 
Q 13.671875 62.703125 7.8125 59.421875 
L 7.8125 69.390625 
Q 13.765625 71.78125 18.9375 73 
Q 24.125 74.21875 28.421875 74.21875 
Q 39.75 74.21875 46.484375 68.546875 
Q 53.21875 62.890625 53.21875 53.421875 
Q 53.21875 48.921875 51.53125 44.890625 
Q 49.859375 40.875 45.40625 35.40625 
Q 44.1875 33.984375 37.640625 27.21875 
Q 31.109375 20.453125 19.1875 8.296875 
z
" id="DejaVuSans-50"/>
      </defs>
      <g transform="translate(401.607257 366.772604)scale(0.1 -0.1)">
       <use xlink:href="#DejaVuSans-50"/>
       <use x="63.623047" xlink:href="#DejaVuSans-48"/>
       <use x="127.246094" xlink:href="#DejaVuSans-48"/>
      </g>
     </g>
    </g>
    <g id="xtick_6">
     <g id="line2d_6">
      <g>
       <use style="stroke:#000000;stroke-width:0.8;" x="485.610526" xlink:href="#m25172a5093" y="352.174167"/>
      </g>
     </g>
     <g id="text_6">
      <!-- 250 -->
      <g transform="translate(476.066776 366.772604)scale(0.1 -0.1)">
       <use xlink:href="#DejaVuSans-50"/>
       <use x="63.623047" xlink:href="#DejaVuSans-53"/>
       <use x="127.246094" xlink:href="#DejaVuSans-48"/>
      </g>
     </g>
    </g>
   </g>
   <g id="matplotlib.axis_2">
    <g id="ytick_1">
     <g id="line2d_7">
      <defs>
       <path d="M 0 0 
L -3.5 0 
" id="md0c8a3747b" style="stroke:#000000;stroke-width:0.8;"/>
      </defs>
      <g>
       <use style="stroke:#000000;stroke-width:0.8;" x="92.823906" xlink:href="#md0c8a3747b" y="352.174167"/>
      </g>
     </g>
     <g id="text_7">
      <!-- 0 -->
      <g transform="translate(79.461406 355.973385)scale(0.1 -0.1)">
       <use xlink:href="#DejaVuSans-48"/>
      </g>
     </g>
    </g>
    <g id="ytick_2">
     <g id="line2d_8">
      <g>
       <use style="stroke:#000000;stroke-width:0.8;" x="92.823906" xlink:href="#md0c8a3747b" y="293.961837"/>
      </g>
     </g>
     <g id="text_8">
      <!-- 20 -->
      <g transform="translate(73.098906 297.761056)scale(0.1 -0.1)">
       <use xlink:href="#DejaVuSans-50"/>
       <use x="63.623047" xlink:href="#DejaVuSans-48"/>
      </g>
     </g>
    </g>
    <g id="ytick_3">
     <g id="line2d_9">
      <g>
       <use style="stroke:#000000;stroke-width:0.8;" x="92.823906" xlink:href="#md0c8a3747b" y="235.749507"/>
      </g>
     </g>
     <g id="text_9">
      <!-- 40 -->
      <defs>
       <path d="M 37.796875 64.3125 
L 12.890625 25.390625 
L 37.796875 25.390625 
z
M 35.203125 72.90625 
L 47.609375 72.90625 
L 47.609375 25.390625 
L 58.015625 25.390625 
L 58.015625 17.1875 
L 47.609375 17.1875 
L 47.609375 0 
L 37.796875 0 
L 37.796875 17.1875 
L 4.890625 17.1875 
L 4.890625 26.703125 
z
" id="DejaVuSans-52"/>
      </defs>
      <g transform="translate(73.098906 239.548726)scale(0.1 -0.1)">
       <use xlink:href="#DejaVuSans-52"/>
       <use x="63.623047" xlink:href="#DejaVuSans-48"/>
      </g>
     </g>
    </g>
    <g id="ytick_4">
     <g id="line2d_10">
      <g>
       <use style="stroke:#000000;stroke-width:0.8;" x="92.823906" xlink:href="#md0c8a3747b" y="177.537177"/>
      </g>
     </g>
     <g id="text_10">
      <!-- 60 -->
      <defs>
       <path d="M 33.015625 40.375 
Q 26.375 40.375 22.484375 35.828125 
Q 18.609375 31.296875 18.609375 23.390625 
Q 18.609375 15.53125 22.484375 10.953125 
Q 26.375 6.390625 33.015625 6.390625 
Q 39.65625 6.390625 43.53125 10.953125 
Q 47.40625 15.53125 47.40625 23.390625 
Q 47.40625 31.296875 43.53125 35.828125 
Q 39.65625 40.375 33.015625 40.375 
z
M 52.59375 71.296875 
L 52.59375 62.3125 
Q 48.875 64.0625 45.09375 64.984375 
Q 41.3125 65.921875 37.59375 65.921875 
Q 27.828125 65.921875 22.671875 59.328125 
Q 17.53125 52.734375 16.796875 39.40625 
Q 19.671875 43.65625 24.015625 45.921875 
Q 28.375 48.1875 33.59375 48.1875 
Q 44.578125 48.1875 50.953125 41.515625 
Q 57.328125 34.859375 57.328125 23.390625 
Q 57.328125 12.15625 50.6875 5.359375 
Q 44.046875 -1.421875 33.015625 -1.421875 
Q 20.359375 -1.421875 13.671875 8.265625 
Q 6.984375 17.96875 6.984375 36.375 
Q 6.984375 53.65625 15.1875 63.9375 
Q 23.390625 74.21875 37.203125 74.21875 
Q 40.921875 74.21875 44.703125 73.484375 
Q 48.484375 72.75 52.59375 71.296875 
z
" id="DejaVuSans-54"/>
      </defs>
      <g transform="translate(73.098906 181.336396)scale(0.1 -0.1)">
       <use xlink:href="#DejaVuSans-54"/>
       <use x="63.623047" xlink:href="#DejaVuSans-48"/>
      </g>
     </g>
    </g>
    <g id="ytick_5">
     <g id="line2d_11">
      <g>
       <use style="stroke:#000000;stroke-width:0.8;" x="92.823906" xlink:href="#md0c8a3747b" y="119.324847"/>
      </g>
     </g>
     <g id="text_11">
      <!-- 80 -->
      <defs>
       <path d="M 31.78125 34.625 
Q 24.75 34.625 20.71875 30.859375 
Q 16.703125 27.09375 16.703125 20.515625 
Q 16.703125 13.921875 20.71875 10.15625 
Q 24.75 6.390625 31.78125 6.390625 
Q 38.8125 6.390625 42.859375 10.171875 
Q 46.921875 13.96875 46.921875 20.515625 
Q 46.921875 27.09375 42.890625 30.859375 
Q 38.875 34.625 31.78125 34.625 
z
M 21.921875 38.8125 
Q 15.578125 40.375 12.03125 44.71875 
Q 8.5 49.078125 8.5 55.328125 
Q 8.5 64.0625 14.71875 69.140625 
Q 20.953125 74.21875 31.78125 74.21875 
Q 42.671875 74.21875 48.875 69.140625 
Q 55.078125 64.0625 55.078125 55.328125 
Q 55.078125 49.078125 51.53125 44.71875 
Q 48 40.375 41.703125 38.8125 
Q 48.828125 37.15625 52.796875 32.3125 
Q 56.78125 27.484375 56.78125 20.515625 
Q 56.78125 9.90625 50.3125 4.234375 
Q 43.84375 -1.421875 31.78125 -1.421875 
Q 19.734375 -1.421875 13.25 4.234375 
Q 6.78125 9.90625 6.78125 20.515625 
Q 6.78125 27.484375 10.78125 32.3125 
Q 14.796875 37.15625 21.921875 38.8125 
z
M 18.3125 54.390625 
Q 18.3125 48.734375 21.84375 45.5625 
Q 25.390625 42.390625 31.78125 42.390625 
Q 38.140625 42.390625 41.71875 45.5625 
Q 45.3125 48.734375 45.3125 54.390625 
Q 45.3125 60.0625 41.71875 63.234375 
Q 38.140625 66.40625 31.78125 66.40625 
Q 25.390625 66.40625 21.84375 63.234375 
Q 18.3125 60.0625 18.3125 54.390625 
z
" id="DejaVuSans-56"/>
      </defs>
      <g transform="translate(73.098906 123.124066)scale(0.1 -0.1)">
       <use xlink:href="#DejaVuSans-56"/>
       <use x="63.623047" xlink:href="#DejaVuSans-48"/>
      </g>
     </g>
    </g>
    <g id="ytick_6">
     <g id="line2d_12">
      <g>
       <use style="stroke:#000000;stroke-width:0.8;" x="92.823906" xlink:href="#md0c8a3747b" y="61.112518"/>
      </g>
     </g>
     <g id="text_12">
      <!-- 100 -->
      <g transform="translate(66.736406 64.911736)scale(0.1 -0.1)">
       <use xlink:href="#DejaVuSans-49"/>
       <use x="63.623047" xlink:href="#DejaVuSans-48"/>
       <use x="127.246094" xlink:href="#DejaVuSans-48"/>
      </g>
     </g>
    </g>
    <g id="text_13">
     <!-- rtt -->
     <defs>
      <path d="M 41.109375 46.296875 
Q 39.59375 47.171875 37.8125 47.578125 
Q 36.03125 48 33.890625 48 
Q 26.265625 48 22.1875 43.046875 
Q 18.109375 38.09375 18.109375 28.8125 
L 18.109375 0 
L 9.078125 0 
L 9.078125 54.6875 
L 18.109375 54.6875 
L 18.109375 46.1875 
Q 20.953125 51.171875 25.484375 53.578125 
Q 30.03125 56 36.53125 56 
Q 37.453125 56 38.578125 55.875 
Q 39.703125 55.765625 41.0625 55.515625 
z
" id="DejaVuSans-114"/>
      <path d="M 18.3125 70.21875 
L 18.3125 54.6875 
L 36.8125 54.6875 
L 36.8125 47.703125 
L 18.3125 47.703125 
L 18.3125 18.015625 
Q 18.3125 11.328125 20.140625 9.421875 
Q 21.96875 7.515625 27.59375 7.515625 
L 36.8125 7.515625 
L 36.8125 0 
L 27.59375 0 
Q 17.1875 0 13.234375 3.875 
Q 9.28125 7.765625 9.28125 18.015625 
L 9.28125 47.703125 
L 2.6875 47.703125 
L 2.6875 54.6875 
L 9.28125 54.6875 
L 9.28125 70.21875 
z
" id="DejaVuSans-116"/>
     </defs>
     <g transform="translate(49.458906 199.594115)rotate(-90)scale(0.1 -0.1)">
      <use xlink:href="#DejaVuSans-114"/>
      <use x="41.113281" xlink:href="#DejaVuSans-116"/>
      <use x="80.322266" xlink:href="#DejaVuSans-116"/>
     </g>
     <!-- (ms) -->
     <defs>
      <path d="M 31 75.875 
Q 24.46875 64.65625 21.28125 53.65625 
Q 18.109375 42.671875 18.109375 31.390625 
Q 18.109375 20.125 21.3125 9.0625 
Q 24.515625 -2 31 -13.1875 
L 23.1875 -13.1875 
Q 15.875 -1.703125 12.234375 9.375 
Q 8.59375 20.453125 8.59375 31.390625 
Q 8.59375 42.28125 12.203125 53.3125 
Q 15.828125 64.359375 23.1875 75.875 
z
" id="DejaVuSans-40"/>
      <path d="M 52 44.1875 
Q 55.375 50.25 60.0625 53.125 
Q 64.75 56 71.09375 56 
Q 79.640625 56 84.28125 50.015625 
Q 88.921875 44.046875 88.921875 33.015625 
L 88.921875 0 
L 79.890625 0 
L 79.890625 32.71875 
Q 79.890625 40.578125 77.09375 44.375 
Q 74.3125 48.1875 68.609375 48.1875 
Q 61.625 48.1875 57.5625 43.546875 
Q 53.515625 38.921875 53.515625 30.90625 
L 53.515625 0 
L 44.484375 0 
L 44.484375 32.71875 
Q 44.484375 40.625 41.703125 44.40625 
Q 38.921875 48.1875 33.109375 48.1875 
Q 26.21875 48.1875 22.15625 43.53125 
Q 18.109375 38.875 18.109375 30.90625 
L 18.109375 0 
L 9.078125 0 
L 9.078125 54.6875 
L 18.109375 54.6875 
L 18.109375 46.1875 
Q 21.1875 51.21875 25.484375 53.609375 
Q 29.78125 56 35.6875 56 
Q 41.65625 56 45.828125 52.96875 
Q 50 49.953125 52 44.1875 
z
" id="DejaVuSans-109"/>
      <path d="M 44.28125 53.078125 
L 44.28125 44.578125 
Q 40.484375 46.53125 36.375 47.5 
Q 32.28125 48.484375 27.875 48.484375 
Q 21.1875 48.484375 17.84375 46.4375 
Q 14.5 44.390625 14.5 40.28125 
Q 14.5 37.15625 16.890625 35.375 
Q 19.28125 33.59375 26.515625 31.984375 
L 29.59375 31.296875 
Q 39.15625 29.25 43.1875 25.515625 
Q 47.21875 21.78125 47.21875 15.09375 
Q 47.21875 7.46875 41.1875 3.015625 
Q 35.15625 -1.421875 24.609375 -1.421875 
Q 20.21875 -1.421875 15.453125 -0.5625 
Q 10.6875 0.296875 5.421875 2 
L 5.421875 11.28125 
Q 10.40625 8.6875 15.234375 7.390625 
Q 20.0625 6.109375 24.8125 6.109375 
Q 31.15625 6.109375 34.5625 8.28125 
Q 37.984375 10.453125 37.984375 14.40625 
Q 37.984375 18.0625 35.515625 20.015625 
Q 33.0625 21.96875 24.703125 23.78125 
L 21.578125 24.515625 
Q 13.234375 26.265625 9.515625 29.90625 
Q 5.8125 33.546875 5.8125 39.890625 
Q 5.8125 47.609375 11.28125 51.796875 
Q 16.75 56 26.8125 56 
Q 31.78125 56 36.171875 55.265625 
Q 40.578125 54.546875 44.28125 53.078125 
z
" id="DejaVuSans-115"/>
      <path d="M 8.015625 75.875 
L 15.828125 75.875 
Q 23.140625 64.359375 26.78125 53.3125 
Q 30.421875 42.28125 30.421875 31.390625 
Q 30.421875 20.453125 26.78125 9.375 
Q 23.140625 -1.703125 15.828125 -13.1875 
L 8.015625 -13.1875 
Q 14.5 -2 17.703125 9.0625 
Q 20.90625 20.125 20.90625 31.390625 
Q 20.90625 42.671875 17.703125 53.65625 
Q 14.5 64.65625 8.015625 75.875 
z
" id="DejaVuSans-41"/>
     </defs>
     <g transform="translate(60.656719 204.994896)rotate(-90)scale(0.1 -0.1)">
      <use xlink:href="#DejaVuSans-40"/>
      <use x="39.013672" xlink:href="#DejaVuSans-109"/>
      <use x="136.425781" xlink:href="#DejaVuSans-115"/>
      <use x="188.525391" xlink:href="#DejaVuSans-41"/>
     </g>
    </g>
   </g>
   <g id="line2d_13">
    <path clip-path="url(#p7f4b272bef)" d="M 122.225736 98.950532 
L 122.970332 93.129299 
L 123.714927 171.715944 
L 124.459522 189.179643 
L 125.204117 189.179643 
L 125.948712 186.269027 
L 126.693308 192.09026 
L 127.437903 192.09026 
L 128.182498 238.660124 
L 128.927093 84.39745 
L 129.671688 151.341629 
L 130.416283 203.732726 
L 131.160879 192.09026 
L 131.905474 189.179643 
L 132.650069 189.179643 
L 133.394664 192.09026 
L 135.62845 192.09026 
L 137.11764 197.911493 
L 137.862235 197.911493 
L 138.606831 195.000876 
L 139.351426 197.911493 
L 140.096021 192.09026 
L 140.840616 195.000876 
L 141.585211 189.179643 
L 143.074402 195.000876 
L 143.818997 247.391973 
L 144.563592 189.179643 
L 145.308187 200.822109 
L 146.052782 195.000876 
L 146.797378 197.911493 
L 150.520354 197.911493 
L 151.264949 195.000876 
L 152.009544 200.822109 
L 152.754139 200.822109 
L 153.498734 197.911493 
L 154.24333 200.822109 
L 154.987925 200.822109 
L 155.73252 197.911493 
L 156.477115 197.911493 
L 157.22171 203.732726 
L 157.966305 197.911493 
L 158.710901 253.213206 
L 159.455496 215.375192 
L 160.200091 183.35841 
L 160.944686 200.822109 
L 161.689281 200.822109 
L 162.433877 197.911493 
L 163.178472 203.732726 
L 164.667662 197.911493 
L 165.412257 200.822109 
L 167.646043 200.822109 
L 168.390638 195.000876 
L 169.135233 200.822109 
L 169.879828 200.822109 
L 170.624424 195.000876 
L 171.369019 203.732726 
L 172.858209 197.911493 
L 173.602804 200.822109 
L 174.3474 267.766288 
L 175.091995 206.643342 
L 175.83659 195.000876 
L 176.581185 206.643342 
L 177.32578 203.732726 
L 178.070376 203.732726 
L 178.814971 206.643342 
L 179.559566 203.732726 
L 181.793351 203.732726 
L 182.537947 200.822109 
L 185.516327 200.822109 
L 186.260923 195.000876 
L 187.005518 200.822109 
L 187.750113 203.732726 
L 188.494708 200.822109 
L 189.239303 238.660124 
L 189.983899 227.017658 
L 190.728494 186.269027 
L 191.473089 200.822109 
L 192.217684 197.911493 
L 192.962279 200.822109 
L 197.42985 200.822109 
L 198.174446 203.732726 
L 198.919041 195.000876 
L 199.663636 200.822109 
L 201.152826 200.822109 
L 201.897422 197.911493 
L 202.642017 200.822109 
L 203.386612 197.911493 
L 204.131207 203.732726 
L 204.875802 253.213206 
L 205.620397 192.09026 
L 207.854183 200.822109 
L 208.598778 200.822109 
L 209.343373 197.911493 
L 210.087969 197.911493 
L 210.832564 200.822109 
L 211.577159 200.822109 
L 212.321754 197.911493 
L 213.066349 197.911493 
L 213.810945 200.822109 
L 214.55554 197.911493 
L 217.53392 197.911493 
L 218.278516 195.000876 
L 219.023111 195.000876 
L 219.767706 229.928274 
L 220.512301 221.196425 
L 221.256896 186.269027 
L 222.001492 200.822109 
L 222.746087 200.822109 
L 223.490682 197.911493 
L 224.979872 203.732726 
L 225.724468 200.822109 
L 226.469063 200.822109 
L 227.958253 195.000876 
L 228.702848 200.822109 
L 229.447443 203.732726 
L 230.192039 197.911493 
L 230.936634 203.732726 
L 231.681229 203.732726 
L 232.425824 200.822109 
L 234.65961 200.822109 
L 235.404205 250.302589 
L 236.1488 192.09026 
L 236.893395 203.732726 
L 237.637991 200.822109 
L 238.382586 203.732726 
L 239.871776 203.732726 
L 240.616371 206.643342 
L 241.360966 206.643342 
L 242.105562 200.822109 
L 242.850157 203.732726 
L 243.594752 200.822109 
L 248.062323 200.822109 
L 248.806918 197.911493 
L 250.296109 209.553959 
L 251.040704 241.57074 
L 251.785299 189.179643 
L 252.529894 197.911493 
L 255.508275 197.911493 
L 256.25287 195.000876 
L 256.997465 197.911493 
L 257.742061 197.911493 
L 258.486656 195.000876 
L 259.231251 197.911493 
L 262.209632 197.911493 
L 262.954227 195.000876 
L 263.698822 197.911493 
L 265.188012 197.911493 
L 265.932608 264.855672 
L 266.677203 209.553959 
L 267.421798 189.179643 
L 268.166393 197.911493 
L 270.400179 197.911493 
L 271.144774 200.822109 
L 271.889369 197.911493 
L 276.35694 197.911493 
L 277.101535 200.822109 
L 277.846131 197.911493 
L 278.590726 200.822109 
L 280.079916 200.822109 
L 280.824511 206.643342 
L 281.569107 244.481357 
L 282.313702 183.35841 
L 283.058297 197.911493 
L 283.802892 200.822109 
L 286.036678 200.822109 
L 286.781273 203.732726 
L 287.525868 200.822109 
L 288.270463 203.732726 
L 289.015058 197.911493 
L 290.504249 203.732726 
L 291.248844 200.822109 
L 291.993439 200.822109 
L 292.738034 203.732726 
L 293.48263 203.732726 
L 294.227225 200.822109 
L 294.97182 203.732726 
L 295.716415 200.822109 
L 296.46101 250.302589 
L 297.205606 195.000876 
L 297.950201 192.09026 
L 298.694796 200.822109 
L 299.439391 200.822109 
L 300.183986 197.911493 
L 300.928581 200.822109 
L 302.417772 200.822109 
L 303.162367 203.732726 
L 303.906962 197.911493 
L 305.396153 203.732726 
L 306.140748 203.732726 
L 306.885343 197.911493 
L 307.629938 200.822109 
L 308.374533 200.822109 
L 309.119129 203.732726 
L 309.863724 200.822109 
L 310.608319 200.822109 
L 311.352914 203.732726 
L 312.097509 253.213206 
L 312.842104 189.179643 
L 313.5867 195.000876 
L 314.331295 197.911493 
L 315.07589 195.000876 
L 315.820485 197.911493 
L 318.054271 197.911493 
L 318.798866 200.822109 
L 319.543461 197.911493 
L 320.288056 200.822109 
L 321.032652 200.822109 
L 321.777247 197.911493 
L 324.755627 197.911493 
L 325.500223 195.000876 
L 326.244818 195.000876 
L 326.989413 232.838891 
L 327.734008 259.034439 
L 328.478603 218.285808 
L 329.223199 203.732726 
L 333.69077 203.732726 
L 334.435365 200.822109 
L 335.17996 203.732726 
L 335.924555 200.822109 
L 338.902936 200.822109 
L 339.647531 197.911493 
L 340.392126 203.732726 
L 341.136722 200.822109 
L 341.881317 203.732726 
L 342.625912 256.123822 
L 343.370507 195.000876 
L 344.115102 192.09026 
L 344.859698 200.822109 
L 345.604293 195.000876 
L 346.348888 197.911493 
L 347.093483 197.911493 
L 347.838078 203.732726 
L 348.582673 200.822109 
L 350.071864 200.822109 
L 350.816459 203.732726 
L 351.561054 197.911493 
L 352.305649 200.822109 
L 356.028625 200.822109 
L 356.773221 197.911493 
L 357.517816 221.196425 
L 358.262411 221.196425 
L 359.007006 183.35841 
L 359.751601 195.000876 
L 360.496197 197.911493 
L 361.240792 197.911493 
L 361.985387 200.822109 
L 362.729982 197.911493 
L 363.474577 203.732726 
L 364.219172 195.000876 
L 364.963768 195.000876 
L 365.708363 197.911493 
L 367.197553 197.911493 
L 367.942148 195.000876 
L 368.686744 197.911493 
L 369.431339 195.000876 
L 370.175934 200.822109 
L 370.920529 197.911493 
L 371.665124 200.822109 
L 372.40972 200.822109 
L 373.154315 261.945055 
L 373.89891 189.179643 
L 374.643505 195.000876 
L 375.3881 203.732726 
L 376.132695 200.822109 
L 376.877291 203.732726 
L 377.621886 200.822109 
L 378.366481 195.000876 
L 379.855671 200.822109 
L 380.600267 197.911493 
L 381.344862 203.732726 
L 382.089457 197.911493 
L 382.834052 200.822109 
L 385.812433 200.822109 
L 386.557028 197.911493 
L 388.046218 209.553959 
L 388.790814 244.481357 
L 389.535409 192.09026 
L 390.280004 192.09026 
L 391.024599 197.911493 
L 392.51379 197.911493 
L 393.258385 200.822109 
L 394.00298 197.911493 
L 394.747575 197.911493 
L 395.49217 195.000876 
L 396.236766 197.911493 
L 396.981361 197.911493 
L 397.725956 200.822109 
L 398.470551 197.911493 
L 402.938122 197.911493 
L 403.682717 267.766288 
L 404.427313 229.928274 
L 405.171908 197.911493 
L 405.916503 203.732726 
L 406.661098 200.822109 
L 407.405693 203.732726 
L 408.150289 197.911493 
L 409.639479 203.732726 
L 410.384074 197.911493 
L 411.128669 200.822109 
L 411.873264 197.911493 
L 412.61786 197.911493 
L 414.10705 203.732726 
L 414.851645 192.09026 
L 415.59624 200.822109 
L 417.830026 200.822109 
L 418.574621 203.732726 
L 419.319216 267.766288 
L 420.063812 232.838891 
L 420.808407 206.643342 
L 421.553002 203.732726 
L 423.042192 203.732726 
L 423.786787 200.822109 
L 424.531383 203.732726 
L 425.275978 200.822109 
L 426.765168 200.822109 
L 427.509763 197.911493 
L 428.254359 200.822109 
L 428.998954 200.822109 
L 429.743549 197.911493 
L 430.488144 200.822109 
L 431.232739 195.000876 
L 431.977335 200.822109 
L 433.466525 200.822109 
L 434.21112 247.391973 
L 434.955715 212.464575 
L 435.70031 189.179643 
L 436.444906 200.822109 
L 437.189501 197.911493 
L 437.934096 197.911493 
L 438.678691 195.000876 
L 439.423286 197.911493 
L 440.167882 197.911493 
L 440.912477 200.822109 
L 441.657072 197.911493 
L 443.146262 197.911493 
L 443.890858 195.000876 
L 445.380048 200.822109 
L 446.124643 197.911493 
L 448.358429 197.911493 
L 449.103024 200.822109 
L 449.847619 253.213206 
L 450.592214 183.35841 
L 451.336809 195.000876 
L 452.081405 197.911493 
L 452.826 197.911493 
L 453.570595 203.732726 
L 454.31519 200.822109 
L 457.293571 200.822109 
L 458.038166 197.911493 
L 458.782761 200.822109 
L 460.271952 200.822109 
L 461.016547 195.000876 
L 461.761142 203.732726 
L 462.505737 200.822109 
L 463.994928 200.822109 
L 464.739523 232.838891 
L 465.484118 227.017658 
L 466.228713 189.179643 
L 466.973308 197.911493 
L 467.717904 197.911493 
L 468.462499 195.000876 
L 469.207094 197.911493 
L 470.696284 197.911493 
L 471.440879 200.822109 
L 472.185475 197.911493 
L 472.93007 197.911493 
L 473.674665 200.822109 
L 474.41926 197.911493 
L 475.163855 197.911493 
L 475.908451 200.822109 
L 479.631427 200.822109 
L 480.376022 253.213206 
L 481.120617 192.09026 
L 482.609807 197.911493 
L 485.588188 197.911493 
L 486.332783 195.000876 
L 487.077378 197.911493 
L 487.821974 195.000876 
L 488.566569 197.911493 
L 490.055759 197.911493 
L 490.800354 200.822109 
L 491.54495 197.911493 
L 492.289545 200.822109 
L 493.03414 197.911493 
L 493.778735 203.732726 
L 494.52333 200.822109 
L 495.267925 221.196425 
L 496.012521 209.553959 
L 496.757116 186.269027 
L 497.501711 200.822109 
L 498.246306 197.911493 
L 499.735497 203.732726 
L 500.480092 197.911493 
L 501.224687 200.822109 
L 501.969282 197.911493 
L 502.713877 200.822109 
L 503.458473 200.822109 
L 504.203068 197.911493 
L 504.947663 197.911493 
L 505.692258 200.822109 
L 506.436853 197.911493 
L 507.181448 200.822109 
L 507.926044 195.000876 
L 509.415234 200.822109 
L 510.159829 197.911493 
L 510.904424 264.855672 
L 511.64902 195.000876 
L 512.393615 192.09026 
L 513.13821 197.911493 
L 513.882805 197.911493 
L 514.6274 200.822109 
L 515.371996 197.911493 
L 516.116591 200.822109 
L 516.861186 192.09026 
L 517.605781 197.911493 
L 518.350376 197.911493 
L 519.094971 195.000876 
L 519.839567 197.911493 
L 520.584162 195.000876 
L 521.328757 195.000876 
L 522.073352 200.822109 
L 522.817947 197.911493 
L 523.562543 197.911493 
L 523.562543 197.911493 
" style="fill:none;stroke:#1f77b4;stroke-linecap:square;stroke-width:1.5;"/>
   </g>
   <g id="line2d_14">
    <path clip-path="url(#p7f4b272bef)" d="M 113.33527 113.503614 
L 114.079865 247.391973 
L 114.82446 273.587521 
L 115.569055 276.498138 
L 120.036627 276.498138 
L 120.781222 273.587521 
L 121.525817 276.498138 
L 122.270412 145.520396 
L 123.015007 46.559435 
L 123.759603 171.715944 
L 124.504198 192.09026 
L 125.993388 186.269027 
L 126.737983 192.09026 
L 127.482578 189.179643 
L 128.227174 209.553959 
L 128.971769 128.056697 
L 129.716364 171.715944 
L 130.460959 186.269027 
L 131.205554 192.09026 
L 134.183935 192.09026 
L 134.92853 195.000876 
L 135.673126 195.000876 
L 136.417721 197.911493 
L 139.396101 197.911493 
L 140.140697 195.000876 
L 140.885292 195.000876 
L 141.629887 192.09026 
L 142.374482 195.000876 
L 143.119077 212.464575 
L 143.863673 241.57074 
L 144.608268 189.179643 
L 145.352863 200.822109 
L 146.097458 195.000876 
L 146.842053 197.911493 
L 151.309624 197.911493 
L 152.05422 200.822109 
L 152.798815 200.822109 
L 153.54341 197.911493 
L 154.288005 200.822109 
L 155.0326 200.822109 
L 155.777196 197.911493 
L 156.521791 197.911493 
L 157.266386 203.732726 
L 158.010981 197.911493 
L 158.755576 256.123822 
L 159.500172 212.464575 
L 160.244767 183.35841 
L 160.989362 200.822109 
L 161.733957 200.822109 
L 162.478552 197.911493 
L 163.223147 203.732726 
L 164.712338 197.911493 
L 165.456933 200.822109 
L 166.201528 200.822109 
L 166.946123 197.911493 
L 167.690719 200.822109 
L 168.435314 195.000876 
L 169.179909 200.822109 
L 169.924504 200.822109 
L 170.669099 195.000876 
L 171.413695 203.732726 
L 172.902885 197.911493 
L 173.64748 206.643342 
L 174.392075 261.945055 
L 175.13667 203.732726 
L 175.881266 197.911493 
L 176.625861 206.643342 
L 177.370456 203.732726 
L 181.838027 203.732726 
L 182.582622 200.822109 
L 185.561003 200.822109 
L 186.305598 195.000876 
L 187.050193 200.822109 
L 187.794789 203.732726 
L 188.539384 200.822109 
L 189.283979 241.57074 
L 190.028574 224.107041 
L 190.773169 186.269027 
L 191.517765 200.822109 
L 192.26236 197.911493 
L 193.006955 200.822109 
L 198.219121 200.822109 
L 198.963716 195.000876 
L 199.708312 200.822109 
L 201.197502 200.822109 
L 201.942097 197.911493 
L 202.686692 200.822109 
L 203.431288 200.822109 
L 204.175883 203.732726 
L 204.920478 247.391973 
L 205.665073 192.09026 
L 207.898859 200.822109 
L 208.643454 200.822109 
L 209.388049 197.911493 
L 210.877239 197.911493 
L 211.621835 200.822109 
L 212.36643 197.911493 
L 213.111025 197.911493 
L 213.85562 200.822109 
L 214.600215 197.911493 
L 217.578596 197.911493 
L 218.323191 195.000876 
L 219.067787 195.000876 
L 219.812382 229.928274 
L 220.556977 215.375192 
L 221.301572 189.179643 
L 222.046167 200.822109 
L 222.790762 203.732726 
L 223.535358 197.911493 
L 225.024548 203.732726 
L 225.769143 200.822109 
L 226.513738 200.822109 
L 227.258334 197.911493 
L 228.002929 197.911493 
L 228.747524 203.732726 
L 229.492119 203.732726 
L 230.236714 197.911493 
L 230.98131 203.732726 
L 231.725905 203.732726 
L 232.4705 200.822109 
L 233.95969 200.822109 
L 234.704285 203.732726 
L 235.448881 244.481357 
L 236.193476 195.000876 
L 236.938071 203.732726 
L 237.682666 200.822109 
L 238.427261 203.732726 
L 239.916452 203.732726 
L 240.661047 206.643342 
L 242.150237 200.822109 
L 242.894833 203.732726 
L 243.639428 197.911493 
L 244.384023 200.822109 
L 245.128618 197.911493 
L 245.873213 200.822109 
L 246.617808 197.911493 
L 247.362404 200.822109 
L 248.106999 200.822109 
L 248.851594 197.911493 
L 249.596189 203.732726 
L 250.340784 212.464575 
L 251.08538 235.749507 
L 251.829975 189.179643 
L 252.57457 197.911493 
L 255.552951 197.911493 
L 256.297546 195.000876 
L 257.042141 197.911493 
L 257.786736 197.911493 
L 258.531331 195.000876 
L 259.275927 197.911493 
L 264.488093 197.911493 
L 265.232688 200.822109 
L 265.977283 264.855672 
L 266.721879 203.732726 
L 267.466474 192.09026 
L 268.211069 197.911493 
L 270.444854 197.911493 
L 271.18945 200.822109 
L 271.934045 197.911493 
L 276.401616 197.911493 
L 277.146211 200.822109 
L 277.890806 197.911493 
L 278.635402 200.822109 
L 280.124592 200.822109 
L 280.869187 206.643342 
L 281.613782 241.57074 
L 282.358378 183.35841 
L 283.102973 197.911493 
L 283.847568 200.822109 
L 286.081353 200.822109 
L 286.825949 203.732726 
L 287.570544 200.822109 
L 288.315139 203.732726 
L 289.059734 197.911493 
L 290.548925 203.732726 
L 291.29352 200.822109 
L 292.038115 200.822109 
L 292.78271 203.732726 
L 293.527305 200.822109 
L 294.271901 200.822109 
L 295.016496 203.732726 
L 295.761091 200.822109 
L 296.505686 250.302589 
L 297.250281 192.09026 
L 297.994876 192.09026 
L 298.739472 200.822109 
L 299.484067 203.732726 
L 300.228662 197.911493 
L 300.973257 203.732726 
L 301.717852 197.911493 
L 302.462448 200.822109 
L 303.207043 200.822109 
L 303.951638 197.911493 
L 305.440828 203.732726 
L 306.185424 203.732726 
L 306.930019 197.911493 
L 307.674614 200.822109 
L 308.419209 200.822109 
L 309.163804 203.732726 
L 309.908399 200.822109 
L 310.652995 200.822109 
L 311.39759 203.732726 
L 312.142185 250.302589 
L 312.88678 189.179643 
L 313.631375 195.000876 
L 314.375971 197.911493 
L 315.120566 195.000876 
L 315.865161 197.911493 
L 318.098947 197.911493 
L 318.843542 200.822109 
L 321.077327 200.822109 
L 321.821922 197.911493 
L 324.800303 197.911493 
L 325.544898 195.000876 
L 326.289494 195.000876 
L 327.034089 241.57074 
L 327.778684 256.123822 
L 328.523279 215.375192 
L 329.267874 203.732726 
L 333.735445 203.732726 
L 334.480041 200.822109 
L 335.224636 203.732726 
L 335.969231 200.822109 
L 338.203017 200.822109 
L 338.947612 197.911493 
L 339.692207 197.911493 
L 340.436802 203.732726 
L 341.181397 197.911493 
L 341.925993 203.732726 
L 342.670588 253.213206 
L 343.415183 195.000876 
L 344.159778 195.000876 
L 344.904373 197.911493 
L 347.138159 197.911493 
L 347.882754 203.732726 
L 348.627349 203.732726 
L 349.371944 200.822109 
L 350.11654 200.822109 
L 350.861135 203.732726 
L 351.60573 197.911493 
L 352.350325 203.732726 
L 353.09492 200.822109 
L 356.073301 200.822109 
L 356.817896 197.911493 
L 357.562491 229.928274 
L 358.307087 215.375192 
L 359.051682 183.35841 
L 359.796277 197.911493 
L 361.285467 197.911493 
L 362.030063 200.822109 
L 362.774658 197.911493 
L 363.519253 203.732726 
L 364.263848 195.000876 
L 365.008443 195.000876 
L 365.753039 197.911493 
L 366.497634 197.911493 
L 367.242229 195.000876 
L 367.986824 195.000876 
L 368.731419 197.911493 
L 369.476014 195.000876 
L 370.22061 200.822109 
L 370.965205 197.911493 
L 371.7098 200.822109 
L 372.454395 200.822109 
L 373.19899 256.123822 
L 373.943586 186.269027 
L 375.432776 203.732726 
L 376.177371 200.822109 
L 376.921966 203.732726 
L 377.666562 200.822109 
L 378.411157 195.000876 
L 379.900347 200.822109 
L 381.389537 200.822109 
L 382.134133 195.000876 
L 382.878728 200.822109 
L 386.601704 200.822109 
L 387.346299 203.732726 
L 388.090894 215.375192 
L 388.835489 241.57074 
L 389.580085 192.09026 
L 390.32468 192.09026 
L 391.069275 197.911493 
L 392.558465 197.911493 
L 393.30306 200.822109 
L 394.047656 197.911493 
L 397.026036 197.911493 
L 397.770632 200.822109 
L 398.515227 197.911493 
L 402.982798 197.911493 
L 403.727393 273.587521 
L 404.471988 224.107041 
L 405.216583 197.911493 
L 405.961179 203.732726 
L 406.705774 200.822109 
L 407.450369 203.732726 
L 408.194964 197.911493 
L 408.939559 200.822109 
L 409.684155 200.822109 
L 410.42875 197.911493 
L 411.173345 200.822109 
L 411.91794 197.911493 
L 412.662535 197.911493 
L 413.407131 200.822109 
L 414.151726 200.822109 
L 414.896321 192.09026 
L 415.640916 200.822109 
L 417.130106 200.822109 
L 417.874702 197.911493 
L 418.619297 206.643342 
L 419.363892 267.766288 
L 420.108487 229.928274 
L 420.853082 206.643342 
L 421.597678 203.732726 
L 423.086868 203.732726 
L 423.831463 200.822109 
L 424.576058 203.732726 
L 425.320654 200.822109 
L 426.809844 200.822109 
L 427.554439 197.911493 
L 428.299034 200.822109 
L 429.043629 200.822109 
L 429.788225 197.911493 
L 430.53282 197.911493 
L 431.277415 195.000876 
L 432.02201 200.822109 
L 433.511201 200.822109 
L 434.255796 253.213206 
L 435.000391 206.643342 
L 435.744986 192.09026 
L 436.489581 200.822109 
L 437.234177 197.911493 
L 437.978772 197.911493 
L 438.723367 195.000876 
L 439.467962 197.911493 
L 440.212557 197.911493 
L 440.957152 200.822109 
L 441.701748 197.911493 
L 443.190938 197.911493 
L 443.935533 195.000876 
L 445.424724 200.822109 
L 446.169319 200.822109 
L 446.913914 197.911493 
L 448.403104 197.911493 
L 449.1477 203.732726 
L 449.892295 247.391973 
L 450.63689 183.35841 
L 451.381485 197.911493 
L 452.870675 197.911493 
L 453.615271 203.732726 
L 454.359866 200.822109 
L 455.104461 200.822109 
L 455.849056 197.911493 
L 456.593651 200.822109 
L 457.338247 200.822109 
L 458.082842 197.911493 
L 458.827437 200.822109 
L 460.316627 200.822109 
L 461.061223 195.000876 
L 461.805818 203.732726 
L 462.550413 200.822109 
L 464.039603 200.822109 
L 464.784198 241.57074 
L 465.528794 221.196425 
L 466.273389 189.179643 
L 467.017984 197.911493 
L 467.762579 197.911493 
L 468.507174 195.000876 
L 469.25177 197.911493 
L 470.74096 197.911493 
L 471.485555 200.822109 
L 472.23015 197.911493 
L 472.974746 200.822109 
L 473.719341 200.822109 
L 474.463936 197.911493 
L 475.208531 197.911493 
L 475.953126 200.822109 
L 478.186912 200.822109 
L 478.931507 203.732726 
L 479.676102 203.732726 
L 480.420697 253.213206 
L 481.165293 189.179643 
L 481.909888 195.000876 
L 482.654483 195.000876 
L 483.399078 197.911493 
L 485.632864 197.911493 
L 486.377459 195.000876 
L 487.122054 197.911493 
L 487.866649 195.000876 
L 488.611245 197.911493 
L 489.35584 197.911493 
L 490.100435 200.822109 
L 490.84503 200.822109 
L 491.589625 197.911493 
L 492.33422 200.822109 
L 493.078816 197.911493 
L 493.823411 203.732726 
L 494.568006 197.911493 
L 495.312601 229.928274 
L 496.057196 206.643342 
L 496.801792 189.179643 
L 497.546387 203.732726 
L 498.290982 197.911493 
L 499.035577 200.822109 
L 499.780172 200.822109 
L 500.524768 197.911493 
L 501.269363 200.822109 
L 502.013958 197.911493 
L 502.758553 200.822109 
L 503.503148 200.822109 
L 504.247743 197.911493 
L 504.992339 197.911493 
L 505.736934 200.822109 
L 506.481529 197.911493 
L 507.226124 200.822109 
L 507.970719 195.000876 
L 509.45991 200.822109 
L 510.204505 200.822109 
L 510.9491 261.945055 
L 511.693695 195.000876 
L 512.438291 192.09026 
L 513.182886 197.911493 
L 513.927481 197.911493 
L 514.672076 200.822109 
L 514.672076 200.822109 
" style="fill:none;stroke:#ff7f0e;stroke-linecap:square;stroke-width:1.5;"/>
   </g>
   <g id="patch_3">
    <path d="M 92.823906 352.174167 
L 92.823906 35.0625 
" style="fill:none;stroke:#000000;stroke-linecap:square;stroke-linejoin:miter;stroke-width:0.8;"/>
   </g>
   <g id="patch_4">
    <path d="M 544.073906 352.174167 
L 544.073906 35.0625 
" style="fill:none;stroke:#000000;stroke-linecap:square;stroke-linejoin:miter;stroke-width:0.8;"/>
   </g>
   <g id="patch_5">
    <path d="M 92.823906 352.174167 
L 544.073906 352.174167 
" style="fill:none;stroke:#000000;stroke-linecap:square;stroke-linejoin:miter;stroke-width:0.8;"/>
   </g>
   <g id="patch_6">
    <path d="M 92.823906 35.0625 
L 544.073906 35.0625 
" style="fill:none;stroke:#000000;stroke-linecap:square;stroke-linejoin:miter;stroke-width:0.8;"/>
   </g>
   <g id="legend_1">
    <g id="patch_7">
     <path d="M 568.636406 67.41875 
L 630.169219 67.41875 
Q 632.169219 67.41875 632.169219 65.41875 
L 632.169219 37.0625 
Q 632.169219 35.0625 630.169219 35.0625 
L 568.636406 35.0625 
Q 566.636406 35.0625 566.636406 37.0625 
L 566.636406 65.41875 
Q 566.636406 67.41875 568.636406 67.41875 
z
" style="fill:#ffffff;opacity:0.8;stroke:#cccccc;stroke-linejoin:miter;"/>
    </g>
    <g id="line2d_15">
     <path d="M 570.636406 43.160937 
L 590.636406 43.160937 
" style="fill:none;stroke:#1f77b4;stroke-linecap:square;stroke-width:1.5;"/>
    </g>
    <g id="line2d_16"/>
    <g id="text_14">
     <!-- bbr-pi -->
     <defs>
      <path d="M 48.6875 27.296875 
Q 48.6875 37.203125 44.609375 42.84375 
Q 40.53125 48.484375 33.40625 48.484375 
Q 26.265625 48.484375 22.1875 42.84375 
Q 18.109375 37.203125 18.109375 27.296875 
Q 18.109375 17.390625 22.1875 11.75 
Q 26.265625 6.109375 33.40625 6.109375 
Q 40.53125 6.109375 44.609375 11.75 
Q 48.6875 17.390625 48.6875 27.296875 
z
M 18.109375 46.390625 
Q 20.953125 51.265625 25.265625 53.625 
Q 29.59375 56 35.59375 56 
Q 45.5625 56 51.78125 48.09375 
Q 58.015625 40.1875 58.015625 27.296875 
Q 58.015625 14.40625 51.78125 6.484375 
Q 45.5625 -1.421875 35.59375 -1.421875 
Q 29.59375 -1.421875 25.265625 0.953125 
Q 20.953125 3.328125 18.109375 8.203125 
L 18.109375 0 
L 9.078125 0 
L 9.078125 75.984375 
L 18.109375 75.984375 
z
" id="DejaVuSans-98"/>
      <path d="M 4.890625 31.390625 
L 31.203125 31.390625 
L 31.203125 23.390625 
L 4.890625 23.390625 
z
" id="DejaVuSans-45"/>
      <path d="M 18.109375 8.203125 
L 18.109375 -20.796875 
L 9.078125 -20.796875 
L 9.078125 54.6875 
L 18.109375 54.6875 
L 18.109375 46.390625 
Q 20.953125 51.265625 25.265625 53.625 
Q 29.59375 56 35.59375 56 
Q 45.5625 56 51.78125 48.09375 
Q 58.015625 40.1875 58.015625 27.296875 
Q 58.015625 14.40625 51.78125 6.484375 
Q 45.5625 -1.421875 35.59375 -1.421875 
Q 29.59375 -1.421875 25.265625 0.953125 
Q 20.953125 3.328125 18.109375 8.203125 
z
M 48.6875 27.296875 
Q 48.6875 37.203125 44.609375 42.84375 
Q 40.53125 48.484375 33.40625 48.484375 
Q 26.265625 48.484375 22.1875 42.84375 
Q 18.109375 37.203125 18.109375 27.296875 
Q 18.109375 17.390625 22.1875 11.75 
Q 26.265625 6.109375 33.40625 6.109375 
Q 40.53125 6.109375 44.609375 11.75 
Q 48.6875 17.390625 48.6875 27.296875 
z
" id="DejaVuSans-112"/>
      <path d="M 9.421875 54.6875 
L 18.40625 54.6875 
L 18.40625 0 
L 9.421875 0 
z
M 9.421875 75.984375 
L 18.40625 75.984375 
L 18.40625 64.59375 
L 9.421875 64.59375 
z
" id="DejaVuSans-105"/>
     </defs>
     <g transform="translate(598.636406 46.660937)scale(0.1 -0.1)">
      <use xlink:href="#DejaVuSans-98"/>
      <use x="63.476562" xlink:href="#DejaVuSans-98"/>
      <use x="126.953125" xlink:href="#DejaVuSans-114"/>
      <use x="167.972656" xlink:href="#DejaVuSans-45"/>
      <use x="204.056641" xlink:href="#DejaVuSans-112"/>
      <use x="267.533203" xlink:href="#DejaVuSans-105"/>
     </g>
    </g>
    <g id="line2d_17">
     <path d="M 570.636406 57.839063 
L 590.636406 57.839063 
" style="fill:none;stroke:#ff7f0e;stroke-linecap:square;stroke-width:1.5;"/>
    </g>
    <g id="line2d_18"/>
    <g id="text_15">
     <!-- bbr-pi -->
     <g transform="translate(598.636406 61.339063)scale(0.1 -0.1)">
      <use xlink:href="#DejaVuSans-98"/>
      <use x="63.476562" xlink:href="#DejaVuSans-98"/>
      <use x="126.953125" xlink:href="#DejaVuSans-114"/>
      <use x="167.972656" xlink:href="#DejaVuSans-45"/>
      <use x="204.056641" xlink:href="#DejaVuSans-112"/>
      <use x="267.533203" xlink:href="#DejaVuSans-105"/>
     </g>
    </g>
   </g>
  </g>
  <g id="text_16">
   <!-- result rtt -->
   <defs>
    <path d="M 56.203125 29.59375 
L 56.203125 25.203125 
L 14.890625 25.203125 
Q 15.484375 15.921875 20.484375 11.0625 
Q 25.484375 6.203125 34.421875 6.203125 
Q 39.59375 6.203125 44.453125 7.46875 
Q 49.3125 8.734375 54.109375 11.28125 
L 54.109375 2.78125 
Q 49.265625 0.734375 44.1875 -0.34375 
Q 39.109375 -1.421875 33.890625 -1.421875 
Q 20.796875 -1.421875 13.15625 6.1875 
Q 5.515625 13.8125 5.515625 26.8125 
Q 5.515625 40.234375 12.765625 48.109375 
Q 20.015625 56 32.328125 56 
Q 43.359375 56 49.78125 48.890625 
Q 56.203125 41.796875 56.203125 29.59375 
z
M 47.21875 32.234375 
Q 47.125 39.59375 43.09375 43.984375 
Q 39.0625 48.390625 32.421875 48.390625 
Q 24.90625 48.390625 20.390625 44.140625 
Q 15.875 39.890625 15.1875 32.171875 
z
" id="DejaVuSans-101"/>
    <path d="M 8.5 21.578125 
L 8.5 54.6875 
L 17.484375 54.6875 
L 17.484375 21.921875 
Q 17.484375 14.15625 20.5 10.265625 
Q 23.53125 6.390625 29.59375 6.390625 
Q 36.859375 6.390625 41.078125 11.03125 
Q 45.3125 15.671875 45.3125 23.6875 
L 45.3125 54.6875 
L 54.296875 54.6875 
L 54.296875 0 
L 45.3125 0 
L 45.3125 8.40625 
Q 42.046875 3.421875 37.71875 1 
Q 33.40625 -1.421875 27.6875 -1.421875 
Q 18.265625 -1.421875 13.375 4.4375 
Q 8.5 10.296875 8.5 21.578125 
z
M 31.109375 56 
z
" id="DejaVuSans-117"/>
    <path d="M 9.421875 75.984375 
L 18.40625 75.984375 
L 18.40625 0 
L 9.421875 0 
z
" id="DejaVuSans-108"/>
    <path id="DejaVuSans-32"/>
   </defs>
   <g transform="translate(315.818438 17.038125)scale(0.12 -0.12)">
    <use xlink:href="#DejaVuSans-114"/>
    <use x="41.082031" xlink:href="#DejaVuSans-101"/>
    <use x="102.605469" xlink:href="#DejaVuSans-115"/>
    <use x="154.705078" xlink:href="#DejaVuSans-117"/>
    <use x="218.083984" xlink:href="#DejaVuSans-108"/>
    <use x="245.867188" xlink:href="#DejaVuSans-116"/>
    <use x="285.076172" xlink:href="#DejaVuSans-32"/>
    <use x="316.863281" xlink:href="#DejaVuSans-114"/>
    <use x="357.976562" xlink:href="#DejaVuSans-116"/>
    <use x="397.185547" xlink:href="#DejaVuSans-116"/>
   </g>
  </g>
 </g>
 <defs>
  <clipPath id="p7f4b272bef">
   <rect height="317.111667" width="451.25" x="92.823906" y="35.0625"/>
  </clipPath>
 </defs>
</svg>
