<?xml version="1.0" encoding="utf-8" standalone="no"?>
<!DOCTYPE svg PUBLIC "-//W3C//DTD SVG 1.1//EN"
  "http://www.w3.org/Graphics/SVG/1.1/DTD/svg11.dtd">
<!-- Created with matplotlib (https://matplotlib.org/) -->
<svg height="396pt" version="1.1" viewBox="0 0 684 396" width="684pt" xmlns="http://www.w3.org/2000/svg" xmlns:xlink="http://www.w3.org/1999/xlink">
 <defs>
  <style type="text/css">
*{stroke-linecap:butt;stroke-linejoin:round;}
  </style>
 </defs>
 <g id="figure_1">
  <g id="patch_1">
   <path d="M 0 396 
L 684 396 
L 684 0 
L 0 0 
z
" style="fill:#ffffff;"/>
  </g>
  <g id="axes_1">
   <g id="patch_2">
    <path d="M 92.823906 352.174167 
L 529.912969 352.174167 
L 529.912969 35.0625 
L 92.823906 35.0625 
z
" style="fill:#ffffff;"/>
   </g>
   <g id="matplotlib.axis_1">
    <g id="xtick_1">
     <g id="line2d_1">
      <defs>
       <path d="M 0 0 
L 0 3.5 
" id="mcd0b49aad6" style="stroke:#000000;stroke-width:0.8;"/>
      </defs>
      <g>
       <use style="stroke:#000000;stroke-width:0.8;" x="112.667071" xlink:href="#mcd0b49aad6" y="352.174167"/>
      </g>
     </g>
     <g id="text_1">
      <!-- 0 -->
      <defs>
       <path d="M 31.78125 66.40625 
Q 24.171875 66.40625 20.328125 58.90625 
Q 16.5 51.421875 16.5 36.375 
Q 16.5 21.390625 20.328125 13.890625 
Q 24.171875 6.390625 31.78125 6.390625 
Q 39.453125 6.390625 43.28125 13.890625 
Q 47.125 21.390625 47.125 36.375 
Q 47.125 51.421875 43.28125 58.90625 
Q 39.453125 66.40625 31.78125 66.40625 
z
M 31.78125 74.21875 
Q 44.046875 74.21875 50.515625 64.515625 
Q 56.984375 54.828125 56.984375 36.375 
Q 56.984375 17.96875 50.515625 8.265625 
Q 44.046875 -1.421875 31.78125 -1.421875 
Q 19.53125 -1.421875 13.0625 8.265625 
Q 6.59375 17.96875 6.59375 36.375 
Q 6.59375 54.828125 13.0625 64.515625 
Q 19.53125 74.21875 31.78125 74.21875 
z
" id="DejaVuSans-48"/>
      </defs>
      <g transform="translate(109.485821 366.772604)scale(0.1 -0.1)">
       <use xlink:href="#DejaVuSans-48"/>
      </g>
     </g>
    </g>
    <g id="xtick_2">
     <g id="line2d_2">
      <g>
       <use style="stroke:#000000;stroke-width:0.8;" x="184.783388" xlink:href="#mcd0b49aad6" y="352.174167"/>
      </g>
     </g>
     <g id="text_2">
      <!-- 50 -->
      <defs>
       <path d="M 10.796875 72.90625 
L 49.515625 72.90625 
L 49.515625 64.59375 
L 19.828125 64.59375 
L 19.828125 46.734375 
Q 21.96875 47.46875 24.109375 47.828125 
Q 26.265625 48.1875 28.421875 48.1875 
Q 40.625 48.1875 47.75 41.5 
Q 54.890625 34.8125 54.890625 23.390625 
Q 54.890625 11.625 47.5625 5.09375 
Q 40.234375 -1.421875 26.90625 -1.421875 
Q 22.3125 -1.421875 17.546875 -0.640625 
Q 12.796875 0.140625 7.71875 1.703125 
L 7.71875 11.625 
Q 12.109375 9.234375 16.796875 8.0625 
Q 21.484375 6.890625 26.703125 6.890625 
Q 35.15625 6.890625 40.078125 11.328125 
Q 45.015625 15.765625 45.015625 23.390625 
Q 45.015625 31 40.078125 35.4375 
Q 35.15625 39.890625 26.703125 39.890625 
Q 22.75 39.890625 18.8125 39.015625 
Q 14.890625 38.140625 10.796875 36.28125 
z
" id="DejaVuSans-53"/>
      </defs>
      <g transform="translate(178.420888 366.772604)scale(0.1 -0.1)">
       <use xlink:href="#DejaVuSans-53"/>
       <use x="63.623047" xlink:href="#DejaVuSans-48"/>
      </g>
     </g>
    </g>
    <g id="xtick_3">
     <g id="line2d_3">
      <g>
       <use style="stroke:#000000;stroke-width:0.8;" x="256.899705" xlink:href="#mcd0b49aad6" y="352.174167"/>
      </g>
     </g>
     <g id="text_3">
      <!-- 100 -->
      <defs>
       <path d="M 12.40625 8.296875 
L 28.515625 8.296875 
L 28.515625 63.921875 
L 10.984375 60.40625 
L 10.984375 69.390625 
L 28.421875 72.90625 
L 38.28125 72.90625 
L 38.28125 8.296875 
L 54.390625 8.296875 
L 54.390625 0 
L 12.40625 0 
z
" id="DejaVuSans-49"/>
      </defs>
      <g transform="translate(247.355955 366.772604)scale(0.1 -0.1)">
       <use xlink:href="#DejaVuSans-49"/>
       <use x="63.623047" xlink:href="#DejaVuSans-48"/>
       <use x="127.246094" xlink:href="#DejaVuSans-48"/>
      </g>
     </g>
    </g>
    <g id="xtick_4">
     <g id="line2d_4">
      <g>
       <use style="stroke:#000000;stroke-width:0.8;" x="329.016021" xlink:href="#mcd0b49aad6" y="352.174167"/>
      </g>
     </g>
     <g id="text_4">
      <!-- 150 -->
      <g transform="translate(319.472271 366.772604)scale(0.1 -0.1)">
       <use xlink:href="#DejaVuSans-49"/>
       <use x="63.623047" xlink:href="#DejaVuSans-53"/>
       <use x="127.246094" xlink:href="#DejaVuSans-48"/>
      </g>
     </g>
    </g>
    <g id="xtick_5">
     <g id="line2d_5">
      <g>
       <use style="stroke:#000000;stroke-width:0.8;" x="401.132338" xlink:href="#mcd0b49aad6" y="352.174167"/>
      </g>
     </g>
     <g id="text_5">
      <!-- 200 -->
      <defs>
       <path d="M 19.1875 8.296875 
L 53.609375 8.296875 
L 53.609375 0 
L 7.328125 0 
L 7.328125 8.296875 
Q 12.9375 14.109375 22.625 23.890625 
Q 32.328125 33.6875 34.8125 36.53125 
Q 39.546875 41.84375 41.421875 45.53125 
Q 43.3125 49.21875 43.3125 52.78125 
Q 43.3125 58.59375 39.234375 62.25 
Q 35.15625 65.921875 28.609375 65.921875 
Q 23.96875 65.921875 18.8125 64.3125 
Q 13.671875 62.703125 7.8125 59.421875 
L 7.8125 69.390625 
Q 13.765625 71.78125 18.9375 73 
Q 24.125 74.21875 28.421875 74.21875 
Q 39.75 74.21875 46.484375 68.546875 
Q 53.21875 62.890625 53.21875 53.421875 
Q 53.21875 48.921875 51.53125 44.890625 
Q 49.859375 40.875 45.40625 35.40625 
Q 44.1875 33.984375 37.640625 27.21875 
Q 31.109375 20.453125 19.1875 8.296875 
z
" id="DejaVuSans-50"/>
      </defs>
      <g transform="translate(391.588588 366.772604)scale(0.1 -0.1)">
       <use xlink:href="#DejaVuSans-50"/>
       <use x="63.623047" xlink:href="#DejaVuSans-48"/>
       <use x="127.246094" xlink:href="#DejaVuSans-48"/>
      </g>
     </g>
    </g>
    <g id="xtick_6">
     <g id="line2d_6">
      <g>
       <use style="stroke:#000000;stroke-width:0.8;" x="473.248655" xlink:href="#mcd0b49aad6" y="352.174167"/>
      </g>
     </g>
     <g id="text_6">
      <!-- 250 -->
      <g transform="translate(463.704905 366.772604)scale(0.1 -0.1)">
       <use xlink:href="#DejaVuSans-50"/>
       <use x="63.623047" xlink:href="#DejaVuSans-53"/>
       <use x="127.246094" xlink:href="#DejaVuSans-48"/>
      </g>
     </g>
    </g>
   </g>
   <g id="matplotlib.axis_2">
    <g id="ytick_1">
     <g id="line2d_7">
      <defs>
       <path d="M 0 0 
L -3.5 0 
" id="m9dc9c6a256" style="stroke:#000000;stroke-width:0.8;"/>
      </defs>
      <g>
       <use style="stroke:#000000;stroke-width:0.8;" x="92.823906" xlink:href="#m9dc9c6a256" y="352.174167"/>
      </g>
     </g>
     <g id="text_7">
      <!-- 0 -->
      <g transform="translate(79.461406 355.973385)scale(0.1 -0.1)">
       <use xlink:href="#DejaVuSans-48"/>
      </g>
     </g>
    </g>
    <g id="ytick_2">
     <g id="line2d_8">
      <g>
       <use style="stroke:#000000;stroke-width:0.8;" x="92.823906" xlink:href="#m9dc9c6a256" y="311.829171"/>
      </g>
     </g>
     <g id="text_8">
      <!-- 20 -->
      <g transform="translate(73.098906 315.62839)scale(0.1 -0.1)">
       <use xlink:href="#DejaVuSans-50"/>
       <use x="63.623047" xlink:href="#DejaVuSans-48"/>
      </g>
     </g>
    </g>
    <g id="ytick_3">
     <g id="line2d_9">
      <g>
       <use style="stroke:#000000;stroke-width:0.8;" x="92.823906" xlink:href="#m9dc9c6a256" y="271.484175"/>
      </g>
     </g>
     <g id="text_9">
      <!-- 40 -->
      <defs>
       <path d="M 37.796875 64.3125 
L 12.890625 25.390625 
L 37.796875 25.390625 
z
M 35.203125 72.90625 
L 47.609375 72.90625 
L 47.609375 25.390625 
L 58.015625 25.390625 
L 58.015625 17.1875 
L 47.609375 17.1875 
L 47.609375 0 
L 37.796875 0 
L 37.796875 17.1875 
L 4.890625 17.1875 
L 4.890625 26.703125 
z
" id="DejaVuSans-52"/>
      </defs>
      <g transform="translate(73.098906 275.283394)scale(0.1 -0.1)">
       <use xlink:href="#DejaVuSans-52"/>
       <use x="63.623047" xlink:href="#DejaVuSans-48"/>
      </g>
     </g>
    </g>
    <g id="ytick_4">
     <g id="line2d_10">
      <g>
       <use style="stroke:#000000;stroke-width:0.8;" x="92.823906" xlink:href="#m9dc9c6a256" y="231.139179"/>
      </g>
     </g>
     <g id="text_10">
      <!-- 60 -->
      <defs>
       <path d="M 33.015625 40.375 
Q 26.375 40.375 22.484375 35.828125 
Q 18.609375 31.296875 18.609375 23.390625 
Q 18.609375 15.53125 22.484375 10.953125 
Q 26.375 6.390625 33.015625 6.390625 
Q 39.65625 6.390625 43.53125 10.953125 
Q 47.40625 15.53125 47.40625 23.390625 
Q 47.40625 31.296875 43.53125 35.828125 
Q 39.65625 40.375 33.015625 40.375 
z
M 52.59375 71.296875 
L 52.59375 62.3125 
Q 48.875 64.0625 45.09375 64.984375 
Q 41.3125 65.921875 37.59375 65.921875 
Q 27.828125 65.921875 22.671875 59.328125 
Q 17.53125 52.734375 16.796875 39.40625 
Q 19.671875 43.65625 24.015625 45.921875 
Q 28.375 48.1875 33.59375 48.1875 
Q 44.578125 48.1875 50.953125 41.515625 
Q 57.328125 34.859375 57.328125 23.390625 
Q 57.328125 12.15625 50.6875 5.359375 
Q 44.046875 -1.421875 33.015625 -1.421875 
Q 20.359375 -1.421875 13.671875 8.265625 
Q 6.984375 17.96875 6.984375 36.375 
Q 6.984375 53.65625 15.1875 63.9375 
Q 23.390625 74.21875 37.203125 74.21875 
Q 40.921875 74.21875 44.703125 73.484375 
Q 48.484375 72.75 52.59375 71.296875 
z
" id="DejaVuSans-54"/>
      </defs>
      <g transform="translate(73.098906 234.938398)scale(0.1 -0.1)">
       <use xlink:href="#DejaVuSans-54"/>
       <use x="63.623047" xlink:href="#DejaVuSans-48"/>
      </g>
     </g>
    </g>
    <g id="ytick_5">
     <g id="line2d_11">
      <g>
       <use style="stroke:#000000;stroke-width:0.8;" x="92.823906" xlink:href="#m9dc9c6a256" y="190.794184"/>
      </g>
     </g>
     <g id="text_11">
      <!-- 80 -->
      <defs>
       <path d="M 31.78125 34.625 
Q 24.75 34.625 20.71875 30.859375 
Q 16.703125 27.09375 16.703125 20.515625 
Q 16.703125 13.921875 20.71875 10.15625 
Q 24.75 6.390625 31.78125 6.390625 
Q 38.8125 6.390625 42.859375 10.171875 
Q 46.921875 13.96875 46.921875 20.515625 
Q 46.921875 27.09375 42.890625 30.859375 
Q 38.875 34.625 31.78125 34.625 
z
M 21.921875 38.8125 
Q 15.578125 40.375 12.03125 44.71875 
Q 8.5 49.078125 8.5 55.328125 
Q 8.5 64.0625 14.71875 69.140625 
Q 20.953125 74.21875 31.78125 74.21875 
Q 42.671875 74.21875 48.875 69.140625 
Q 55.078125 64.0625 55.078125 55.328125 
Q 55.078125 49.078125 51.53125 44.71875 
Q 48 40.375 41.703125 38.8125 
Q 48.828125 37.15625 52.796875 32.3125 
Q 56.78125 27.484375 56.78125 20.515625 
Q 56.78125 9.90625 50.3125 4.234375 
Q 43.84375 -1.421875 31.78125 -1.421875 
Q 19.734375 -1.421875 13.25 4.234375 
Q 6.78125 9.90625 6.78125 20.515625 
Q 6.78125 27.484375 10.78125 32.3125 
Q 14.796875 37.15625 21.921875 38.8125 
z
M 18.3125 54.390625 
Q 18.3125 48.734375 21.84375 45.5625 
Q 25.390625 42.390625 31.78125 42.390625 
Q 38.140625 42.390625 41.71875 45.5625 
Q 45.3125 48.734375 45.3125 54.390625 
Q 45.3125 60.0625 41.71875 63.234375 
Q 38.140625 66.40625 31.78125 66.40625 
Q 25.390625 66.40625 21.84375 63.234375 
Q 18.3125 60.0625 18.3125 54.390625 
z
" id="DejaVuSans-56"/>
      </defs>
      <g transform="translate(73.098906 194.593402)scale(0.1 -0.1)">
       <use xlink:href="#DejaVuSans-56"/>
       <use x="63.623047" xlink:href="#DejaVuSans-48"/>
      </g>
     </g>
    </g>
    <g id="ytick_6">
     <g id="line2d_12">
      <g>
       <use style="stroke:#000000;stroke-width:0.8;" x="92.823906" xlink:href="#m9dc9c6a256" y="150.449188"/>
      </g>
     </g>
     <g id="text_12">
      <!-- 100 -->
      <g transform="translate(66.736406 154.248407)scale(0.1 -0.1)">
       <use xlink:href="#DejaVuSans-49"/>
       <use x="63.623047" xlink:href="#DejaVuSans-48"/>
       <use x="127.246094" xlink:href="#DejaVuSans-48"/>
      </g>
     </g>
    </g>
    <g id="ytick_7">
     <g id="line2d_13">
      <g>
       <use style="stroke:#000000;stroke-width:0.8;" x="92.823906" xlink:href="#m9dc9c6a256" y="110.104192"/>
      </g>
     </g>
     <g id="text_13">
      <!-- 120 -->
      <g transform="translate(66.736406 113.903411)scale(0.1 -0.1)">
       <use xlink:href="#DejaVuSans-49"/>
       <use x="63.623047" xlink:href="#DejaVuSans-50"/>
       <use x="127.246094" xlink:href="#DejaVuSans-48"/>
      </g>
     </g>
    </g>
    <g id="ytick_8">
     <g id="line2d_14">
      <g>
       <use style="stroke:#000000;stroke-width:0.8;" x="92.823906" xlink:href="#m9dc9c6a256" y="69.759196"/>
      </g>
     </g>
     <g id="text_14">
      <!-- 140 -->
      <g transform="translate(66.736406 73.558415)scale(0.1 -0.1)">
       <use xlink:href="#DejaVuSans-49"/>
       <use x="63.623047" xlink:href="#DejaVuSans-52"/>
       <use x="127.246094" xlink:href="#DejaVuSans-48"/>
      </g>
     </g>
    </g>
    <g id="text_15">
     <!-- rtt -->
     <defs>
      <path d="M 41.109375 46.296875 
Q 39.59375 47.171875 37.8125 47.578125 
Q 36.03125 48 33.890625 48 
Q 26.265625 48 22.1875 43.046875 
Q 18.109375 38.09375 18.109375 28.8125 
L 18.109375 0 
L 9.078125 0 
L 9.078125 54.6875 
L 18.109375 54.6875 
L 18.109375 46.1875 
Q 20.953125 51.171875 25.484375 53.578125 
Q 30.03125 56 36.53125 56 
Q 37.453125 56 38.578125 55.875 
Q 39.703125 55.765625 41.0625 55.515625 
z
" id="DejaVuSans-114"/>
      <path d="M 18.3125 70.21875 
L 18.3125 54.6875 
L 36.8125 54.6875 
L 36.8125 47.703125 
L 18.3125 47.703125 
L 18.3125 18.015625 
Q 18.3125 11.328125 20.140625 9.421875 
Q 21.96875 7.515625 27.59375 7.515625 
L 36.8125 7.515625 
L 36.8125 0 
L 27.59375 0 
Q 17.1875 0 13.234375 3.875 
Q 9.28125 7.765625 9.28125 18.015625 
L 9.28125 47.703125 
L 2.6875 47.703125 
L 2.6875 54.6875 
L 9.28125 54.6875 
L 9.28125 70.21875 
z
" id="DejaVuSans-116"/>
     </defs>
     <g transform="translate(49.458906 199.594115)rotate(-90)scale(0.1 -0.1)">
      <use xlink:href="#DejaVuSans-114"/>
      <use x="41.113281" xlink:href="#DejaVuSans-116"/>
      <use x="80.322266" xlink:href="#DejaVuSans-116"/>
     </g>
     <!-- (ms) -->
     <defs>
      <path d="M 31 75.875 
Q 24.46875 64.65625 21.28125 53.65625 
Q 18.109375 42.671875 18.109375 31.390625 
Q 18.109375 20.125 21.3125 9.0625 
Q 24.515625 -2 31 -13.1875 
L 23.1875 -13.1875 
Q 15.875 -1.703125 12.234375 9.375 
Q 8.59375 20.453125 8.59375 31.390625 
Q 8.59375 42.28125 12.203125 53.3125 
Q 15.828125 64.359375 23.1875 75.875 
z
" id="DejaVuSans-40"/>
      <path d="M 52 44.1875 
Q 55.375 50.25 60.0625 53.125 
Q 64.75 56 71.09375 56 
Q 79.640625 56 84.28125 50.015625 
Q 88.921875 44.046875 88.921875 33.015625 
L 88.921875 0 
L 79.890625 0 
L 79.890625 32.71875 
Q 79.890625 40.578125 77.09375 44.375 
Q 74.3125 48.1875 68.609375 48.1875 
Q 61.625 48.1875 57.5625 43.546875 
Q 53.515625 38.921875 53.515625 30.90625 
L 53.515625 0 
L 44.484375 0 
L 44.484375 32.71875 
Q 44.484375 40.625 41.703125 44.40625 
Q 38.921875 48.1875 33.109375 48.1875 
Q 26.21875 48.1875 22.15625 43.53125 
Q 18.109375 38.875 18.109375 30.90625 
L 18.109375 0 
L 9.078125 0 
L 9.078125 54.6875 
L 18.109375 54.6875 
L 18.109375 46.1875 
Q 21.1875 51.21875 25.484375 53.609375 
Q 29.78125 56 35.6875 56 
Q 41.65625 56 45.828125 52.96875 
Q 50 49.953125 52 44.1875 
z
" id="DejaVuSans-109"/>
      <path d="M 44.28125 53.078125 
L 44.28125 44.578125 
Q 40.484375 46.53125 36.375 47.5 
Q 32.28125 48.484375 27.875 48.484375 
Q 21.1875 48.484375 17.84375 46.4375 
Q 14.5 44.390625 14.5 40.28125 
Q 14.5 37.15625 16.890625 35.375 
Q 19.28125 33.59375 26.515625 31.984375 
L 29.59375 31.296875 
Q 39.15625 29.25 43.1875 25.515625 
Q 47.21875 21.78125 47.21875 15.09375 
Q 47.21875 7.46875 41.1875 3.015625 
Q 35.15625 -1.421875 24.609375 -1.421875 
Q 20.21875 -1.421875 15.453125 -0.5625 
Q 10.6875 0.296875 5.421875 2 
L 5.421875 11.28125 
Q 10.40625 8.6875 15.234375 7.390625 
Q 20.0625 6.109375 24.8125 6.109375 
Q 31.15625 6.109375 34.5625 8.28125 
Q 37.984375 10.453125 37.984375 14.40625 
Q 37.984375 18.0625 35.515625 20.015625 
Q 33.0625 21.96875 24.703125 23.78125 
L 21.578125 24.515625 
Q 13.234375 26.265625 9.515625 29.90625 
Q 5.8125 33.546875 5.8125 39.890625 
Q 5.8125 47.609375 11.28125 51.796875 
Q 16.75 56 26.8125 56 
Q 31.78125 56 36.171875 55.265625 
Q 40.578125 54.546875 44.28125 53.078125 
z
" id="DejaVuSans-115"/>
      <path d="M 8.015625 75.875 
L 15.828125 75.875 
Q 23.140625 64.359375 26.78125 53.3125 
Q 30.421875 42.28125 30.421875 31.390625 
Q 30.421875 20.453125 26.78125 9.375 
Q 23.140625 -1.703125 15.828125 -13.1875 
L 8.015625 -13.1875 
Q 14.5 -2 17.703125 9.0625 
Q 20.90625 20.125 20.90625 31.390625 
Q 20.90625 42.671875 17.703125 53.65625 
Q 14.5 64.65625 8.015625 75.875 
z
" id="DejaVuSans-41"/>
     </defs>
     <g transform="translate(60.656719 204.994896)rotate(-90)scale(0.1 -0.1)">
      <use xlink:href="#DejaVuSans-40"/>
      <use x="39.013672" xlink:href="#DejaVuSans-109"/>
      <use x="136.425781" xlink:href="#DejaVuSans-115"/>
      <use x="188.525391" xlink:href="#DejaVuSans-41"/>
     </g>
    </g>
   </g>
   <g id="line2d_15">
    <path clip-path="url(#p5a0627f218)" d="M 121.338337 192.811433 
L 122.0595 208.949432 
L 122.780664 237.190929 
L 123.501827 237.190929 
L 124.22299 235.173679 
L 124.944153 237.190929 
L 125.665316 247.277178 
L 126.386479 227.10468 
L 127.107643 285.604924 
L 127.828806 178.690685 
L 128.549969 261.397926 
L 129.271132 245.259928 
L 129.992295 223.07018 
L 130.713458 237.190929 
L 131.434622 219.035681 
L 132.155785 239.208179 
L 133.598111 231.139179 
L 134.319274 247.277178 
L 135.040437 243.242678 
L 135.761601 235.173679 
L 136.482764 243.242678 
L 137.203927 229.12193 
L 137.92509 247.277178 
L 138.646253 237.190929 
L 139.367416 241.225428 
L 140.08858 227.10468 
L 140.809743 237.190929 
L 141.530906 281.570424 
L 142.252069 255.346177 
L 142.973232 221.05293 
L 143.694395 235.173679 
L 144.415559 245.259928 
L 145.136722 237.190929 
L 145.857885 235.173679 
L 146.579048 243.242678 
L 147.300211 227.10468 
L 148.021374 233.156429 
L 148.742538 233.156429 
L 149.463701 249.294427 
L 150.184864 229.12193 
L 150.906027 237.190929 
L 151.62719 241.225428 
L 152.348353 231.139179 
L 153.069517 241.225428 
L 153.79068 233.156429 
L 154.511843 243.242678 
L 155.233006 233.156429 
L 155.954169 229.12193 
L 156.675332 295.691173 
L 157.396496 263.415176 
L 158.117659 243.242678 
L 158.838822 239.208179 
L 159.559985 229.12193 
L 160.281148 231.139179 
L 161.002311 239.208179 
L 161.723475 229.12193 
L 162.444638 241.225428 
L 163.165801 233.156429 
L 163.886964 227.10468 
L 164.608127 229.12193 
L 165.32929 247.277178 
L 166.050454 229.12193 
L 166.771617 241.225428 
L 167.49278 227.10468 
L 168.213943 235.173679 
L 169.656269 239.208179 
L 170.377433 237.190929 
L 171.098596 275.518675 
L 171.819759 277.535925 
L 172.540922 241.225428 
L 173.262085 237.190929 
L 173.983248 231.139179 
L 174.704412 247.277178 
L 175.425575 235.173679 
L 176.146738 239.208179 
L 176.867901 235.173679 
L 177.589064 239.208179 
L 178.310227 237.190929 
L 179.031391 241.225428 
L 179.752554 241.225428 
L 181.19488 233.156429 
L 181.916043 233.156429 
L 182.637206 241.225428 
L 183.35837 233.156429 
L 184.079533 245.259928 
L 184.800696 243.242678 
L 185.521859 227.10468 
L 186.243022 291.656673 
L 186.964185 263.415176 
L 187.685349 241.225428 
L 188.406512 237.190929 
L 189.127675 231.139179 
L 189.848838 231.139179 
L 190.570001 235.173679 
L 191.291164 245.259928 
L 192.733491 237.190929 
L 193.454654 231.139179 
L 194.175817 241.225428 
L 194.89698 237.190929 
L 195.618143 237.190929 
L 196.339307 229.12193 
L 197.06047 245.259928 
L 197.781633 237.190929 
L 198.502796 233.156429 
L 199.223959 241.225428 
L 199.945122 233.156429 
L 200.666286 261.397926 
L 201.387449 281.570424 
L 202.108612 257.363427 
L 202.829775 255.346177 
L 203.550938 247.277178 
L 204.993265 239.208179 
L 205.714428 243.242678 
L 206.435591 249.294427 
L 207.156754 245.259928 
L 207.877917 243.242678 
L 208.59908 239.208179 
L 209.320244 231.139179 
L 210.041407 239.208179 
L 210.76257 239.208179 
L 211.483733 255.346177 
L 212.926059 243.242678 
L 213.647223 239.208179 
L 214.368386 245.259928 
L 215.089549 245.259928 
L 215.810712 285.604924 
L 216.531875 257.363427 
L 217.974202 227.10468 
L 218.695365 243.242678 
L 219.416528 235.173679 
L 220.137691 241.225428 
L 220.858854 225.08743 
L 221.580017 257.363427 
L 222.301181 245.259928 
L 223.022344 227.10468 
L 223.743507 249.294427 
L 224.46467 227.10468 
L 225.185833 251.311677 
L 225.906996 229.12193 
L 226.62816 227.10468 
L 227.349323 235.173679 
L 228.070486 233.156429 
L 228.791649 241.225428 
L 229.512812 231.139179 
L 230.233975 247.277178 
L 230.955139 287.622173 
L 231.676302 253.328927 
L 232.397465 239.208179 
L 233.118628 249.294427 
L 233.839791 245.259928 
L 234.560954 237.190929 
L 235.282118 241.225428 
L 236.003281 229.12193 
L 236.724444 249.294427 
L 237.445607 241.225428 
L 238.16677 235.173679 
L 239.609097 243.242678 
L 240.33026 229.12193 
L 241.051423 233.156429 
L 241.772586 249.294427 
L 242.493749 247.277178 
L 243.214912 241.225428 
L 243.936076 239.208179 
L 244.657239 241.225428 
L 245.378402 291.656673 
L 246.099565 273.501425 
L 247.541891 249.294427 
L 248.263055 241.225428 
L 248.984218 227.10468 
L 249.705381 237.190929 
L 250.426544 239.208179 
L 251.147707 249.294427 
L 251.86887 237.190929 
L 252.590034 239.208179 
L 253.311197 239.208179 
L 254.03236 233.156429 
L 254.753523 245.259928 
L 255.474686 235.173679 
L 256.195849 235.173679 
L 256.917013 239.208179 
L 257.638176 227.10468 
L 258.359339 239.208179 
L 259.080502 239.208179 
L 259.801665 251.311677 
L 260.522828 291.656673 
L 261.243992 261.397926 
L 261.965155 243.242678 
L 262.686318 231.139179 
L 263.407481 229.12193 
L 264.128644 247.277178 
L 264.849807 221.05293 
L 265.570971 229.12193 
L 266.292134 249.294427 
L 267.013297 227.10468 
L 267.73446 241.225428 
L 268.455623 235.173679 
L 269.176786 243.242678 
L 269.89795 241.225428 
L 270.619113 233.156429 
L 271.340276 229.12193 
L 272.061439 229.12193 
L 272.782602 239.208179 
L 273.503765 235.173679 
L 274.224929 227.10468 
L 274.946092 287.622173 
L 275.667255 275.518675 
L 276.388418 243.242678 
L 277.109581 237.190929 
L 277.830744 237.190929 
L 278.551908 233.156429 
L 279.273071 235.173679 
L 279.994234 233.156429 
L 280.715397 247.277178 
L 281.43656 241.225428 
L 282.157723 241.225428 
L 282.878887 243.242678 
L 283.60005 231.139179 
L 284.321213 251.311677 
L 285.042376 243.242678 
L 285.763539 239.208179 
L 286.484702 237.190929 
L 287.205866 243.242678 
L 287.927029 239.208179 
L 288.648192 229.12193 
L 289.369355 229.12193 
L 290.090518 295.691173 
L 290.811681 261.397926 
L 291.532845 237.190929 
L 292.254008 225.08743 
L 292.975171 237.190929 
L 293.696334 241.225428 
L 294.417497 239.208179 
L 295.13866 231.139179 
L 295.859824 241.225428 
L 296.580987 239.208179 
L 297.30215 231.139179 
L 298.023313 229.12193 
L 299.465639 229.12193 
L 300.186803 241.225428 
L 300.907966 241.225428 
L 301.629129 227.10468 
L 302.350292 225.08743 
L 303.071455 243.242678 
L 303.792618 241.225428 
L 304.513782 279.553174 
L 305.234945 275.518675 
L 305.956108 239.208179 
L 308.119597 233.156429 
L 308.840761 237.190929 
L 309.561924 229.12193 
L 310.283087 223.07018 
L 311.00425 241.225428 
L 311.725413 221.05293 
L 312.446576 245.259928 
L 313.16774 229.12193 
L 313.888903 239.208179 
L 314.610066 237.190929 
L 315.331229 227.10468 
L 316.052392 229.12193 
L 316.773555 245.259928 
L 317.494719 237.190929 
L 318.215882 227.10468 
L 318.937045 237.190929 
L 319.658208 293.673923 
L 320.379371 269.466925 
L 321.100534 233.156429 
L 321.821698 229.12193 
L 322.542861 231.139179 
L 323.264024 249.294427 
L 323.985187 239.208179 
L 324.70635 247.277178 
L 325.427513 237.190929 
L 326.148677 225.08743 
L 326.86984 243.242678 
L 327.591003 239.208179 
L 328.312166 237.190929 
L 329.033329 245.259928 
L 329.754492 225.08743 
L 330.475656 225.08743 
L 331.196819 241.225428 
L 331.917982 241.225428 
L 332.639145 217.018431 
L 333.360308 223.07018 
L 334.081471 243.242678 
L 334.802635 283.587674 
L 335.523798 233.156429 
L 336.244961 245.259928 
L 336.966124 237.190929 
L 337.687287 227.10468 
L 338.40845 235.173679 
L 339.129614 231.139179 
L 339.850777 235.173679 
L 340.57194 241.225428 
L 341.293103 239.208179 
L 342.014266 227.10468 
L 342.735429 239.208179 
L 343.456593 229.12193 
L 344.177756 231.139179 
L 345.620082 227.10468 
L 346.341245 247.277178 
L 347.062408 235.173679 
L 347.783572 247.277178 
L 348.504735 227.10468 
L 349.225898 289.639423 
L 350.668224 241.225428 
L 352.110551 237.190929 
L 352.831714 243.242678 
L 353.552877 225.08743 
L 354.27404 231.139179 
L 354.995203 249.294427 
L 355.716366 239.208179 
L 356.43753 227.10468 
L 357.158693 229.12193 
L 357.879856 243.242678 
L 358.601019 237.190929 
L 359.322182 239.208179 
L 360.043345 237.190929 
L 360.764509 229.12193 
L 361.485672 237.190929 
L 362.206835 227.10468 
L 362.927998 229.12193 
L 363.649161 255.346177 
L 364.370324 293.673923 
L 365.091488 267.449676 
L 366.533814 241.225428 
L 367.254977 233.156429 
L 367.97614 235.173679 
L 368.697303 255.346177 
L 369.418467 245.259928 
L 370.13963 239.208179 
L 370.860793 243.242678 
L 371.581956 239.208179 
L 372.303119 243.242678 
L 373.024282 229.12193 
L 373.745446 251.311677 
L 374.466609 239.208179 
L 375.187772 233.156429 
L 375.908935 241.225428 
L 376.630098 231.139179 
L 377.351261 247.277178 
L 378.072425 229.12193 
L 378.793588 285.604924 
L 379.514751 243.242678 
L 380.235914 245.259928 
L 380.957077 251.311677 
L 382.399404 239.208179 
L 383.120567 241.225428 
L 383.84173 239.208179 
L 384.562893 231.139179 
L 385.284056 239.208179 
L 386.005219 239.208179 
L 386.726383 231.139179 
L 387.447546 231.139179 
L 388.168709 247.277178 
L 388.889872 233.156429 
L 389.611035 241.225428 
L 390.332198 217.018431 
L 391.053362 251.311677 
L 391.774525 235.173679 
L 392.495688 243.242678 
L 393.216851 233.156429 
L 393.938014 297.708422 
L 394.659177 281.570424 
L 395.380341 259.380676 
L 396.101504 241.225428 
L 396.822667 235.173679 
L 397.54383 233.156429 
L 398.264993 233.156429 
L 398.986156 253.328927 
L 399.70732 227.10468 
L 400.428483 227.10468 
L 401.149646 251.311677 
L 401.870809 227.10468 
L 402.591972 243.242678 
L 403.313135 229.12193 
L 404.034299 245.259928 
L 404.755462 235.173679 
L 405.476625 251.311677 
L 406.197788 243.242678 
L 406.918951 241.225428 
L 407.640114 237.190929 
L 408.361278 283.587674 
L 409.082441 269.466925 
L 409.803604 251.311677 
L 410.524767 227.10468 
L 411.24593 243.242678 
L 411.967093 229.12193 
L 412.688257 253.328927 
L 413.40942 231.139179 
L 414.130583 237.190929 
L 415.572909 229.12193 
L 416.294072 251.311677 
L 417.015236 239.208179 
L 417.736399 231.139179 
L 418.457562 241.225428 
L 419.178725 235.173679 
L 419.899888 239.208179 
L 420.621051 235.173679 
L 421.342215 233.156429 
L 422.063378 241.225428 
L 422.784541 231.139179 
L 423.505704 293.673923 
L 424.94803 229.12193 
L 425.669194 215.001181 
L 426.390357 241.225428 
L 427.11152 243.242678 
L 427.832683 233.156429 
L 428.553846 225.08743 
L 429.275009 231.139179 
L 429.996173 245.259928 
L 430.717336 241.225428 
L 431.438499 243.242678 
L 432.880825 235.173679 
L 433.601988 243.242678 
L 434.323152 231.139179 
L 435.044315 227.10468 
L 435.765478 239.208179 
L 436.486641 243.242678 
L 437.207804 239.208179 
L 437.928967 275.518675 
L 438.650131 283.587674 
L 440.092457 227.10468 
L 440.81362 245.259928 
L 441.534783 241.225428 
L 442.255946 231.139179 
L 442.97711 247.277178 
L 443.698273 229.12193 
L 444.419436 237.190929 
L 445.140599 229.12193 
L 445.861762 239.208179 
L 446.582925 219.035681 
L 447.304089 239.208179 
L 448.025252 217.018431 
L 448.746415 245.259928 
L 449.467578 231.139179 
L 450.188741 245.259928 
L 450.909904 239.208179 
L 451.631068 231.139179 
L 452.352231 241.225428 
L 453.073394 293.673923 
L 455.236883 241.225428 
L 455.958047 239.208179 
L 456.67921 241.225428 
L 457.400373 247.277178 
L 458.121536 249.294427 
L 458.842699 245.259928 
L 459.563862 239.208179 
L 460.285026 245.259928 
L 461.006189 241.225428 
L 461.727352 231.139179 
L 462.448515 249.294427 
L 463.169678 239.208179 
L 463.890841 237.190929 
L 464.612005 241.225428 
L 465.333168 235.173679 
L 466.054331 239.208179 
L 466.775494 239.208179 
L 467.496657 249.294427 
L 468.21782 285.604924 
L 468.938984 255.346177 
L 469.660147 243.242678 
L 470.38131 227.10468 
L 471.102473 249.294427 
L 471.823636 227.10468 
L 472.544799 241.225428 
L 473.265963 227.10468 
L 473.987126 235.173679 
L 474.708289 247.277178 
L 475.429452 241.225428 
L 476.150615 237.190929 
L 476.871778 237.190929 
L 477.592942 241.225428 
L 478.314105 235.173679 
L 479.035268 249.294427 
L 479.756431 243.242678 
L 480.477594 229.12193 
L 481.198757 241.225428 
L 481.919921 239.208179 
L 482.641084 287.622173 
L 484.08341 243.242678 
L 484.804573 237.190929 
L 485.525736 235.173679 
L 486.2469 239.208179 
L 486.968063 239.208179 
L 487.689226 241.225428 
L 488.410389 239.208179 
L 489.131552 227.10468 
L 489.852715 229.12193 
L 490.573879 243.242678 
L 491.295042 231.139179 
L 492.016205 239.208179 
L 492.737368 229.12193 
L 493.458531 249.294427 
L 494.179694 239.208179 
L 494.900858 249.294427 
L 495.622021 241.225428 
L 497.064347 241.225428 
L 497.78551 289.639423 
L 498.506673 261.397926 
L 499.227837 253.328927 
L 499.949 247.277178 
L 500.670163 243.242678 
L 501.391326 237.190929 
L 502.112489 239.208179 
L 502.833652 249.294427 
L 503.554816 241.225428 
L 504.275979 237.190929 
L 504.997142 237.190929 
L 505.718305 251.311677 
L 507.160631 231.139179 
L 507.881795 227.10468 
L 508.602958 239.208179 
L 509.324121 237.190929 
L 510.045284 233.156429 
L 510.045284 233.156429 
" style="fill:none;stroke:#1f77b4;stroke-linecap:square;stroke-width:1.5;"/>
   </g>
   <g id="line2d_16">
    <path clip-path="url(#p5a0627f218)" d="M 118.401761 198.863183 
L 119.122924 241.225428 
L 119.844087 241.225428 
L 120.56525 229.12193 
L 121.286414 225.08743 
L 122.007577 235.173679 
L 122.72874 239.208179 
L 123.449903 239.208179 
L 124.171066 235.173679 
L 124.892229 249.294427 
L 125.613393 237.190929 
L 126.334556 241.225428 
L 127.055719 283.587674 
L 127.776882 158.518187 
L 129.219208 253.328927 
L 129.940372 229.12193 
L 130.661535 235.173679 
L 131.382698 229.12193 
L 132.103861 231.139179 
L 132.825024 229.12193 
L 133.546187 249.294427 
L 134.267351 247.277178 
L 134.988514 243.242678 
L 135.709677 233.156429 
L 136.43084 239.208179 
L 137.152003 243.242678 
L 137.873166 239.208179 
L 138.59433 233.156429 
L 139.315493 231.139179 
L 140.036656 243.242678 
L 140.757819 241.225428 
L 141.478982 273.501425 
L 142.200145 265.432426 
L 142.921309 229.12193 
L 143.642472 235.173679 
L 144.363635 243.242678 
L 145.084798 233.156429 
L 145.805961 249.294427 
L 146.527124 233.156429 
L 147.248288 233.156429 
L 147.969451 241.225428 
L 148.690614 233.156429 
L 149.411777 249.294427 
L 150.13294 241.225428 
L 150.854103 245.259928 
L 151.575267 243.242678 
L 152.29643 231.139179 
L 153.017593 239.208179 
L 153.738756 231.139179 
L 154.459919 243.242678 
L 155.181082 231.139179 
L 155.902246 237.190929 
L 156.623409 295.691173 
L 157.344572 265.432426 
L 158.065735 243.242678 
L 158.786898 239.208179 
L 159.508061 227.10468 
L 160.229225 229.12193 
L 160.950388 227.10468 
L 161.671551 239.208179 
L 162.392714 241.225428 
L 163.113877 231.139179 
L 163.83504 237.190929 
L 164.556204 227.10468 
L 165.277367 247.277178 
L 165.99853 229.12193 
L 166.719693 243.242678 
L 167.440856 235.173679 
L 168.162019 237.190929 
L 168.883183 225.08743 
L 169.604346 227.10468 
L 170.325509 227.10468 
L 171.046672 267.449676 
L 171.767835 283.587674 
L 172.488998 243.242678 
L 173.210162 249.294427 
L 173.931325 229.12193 
L 174.652488 247.277178 
L 175.373651 233.156429 
L 176.094814 241.225428 
L 176.815977 235.173679 
L 177.537141 239.208179 
L 178.258304 239.208179 
L 178.979467 229.12193 
L 179.70063 241.225428 
L 180.421793 239.208179 
L 181.142956 243.242678 
L 181.86412 241.225428 
L 182.585283 241.225428 
L 183.306446 233.156429 
L 184.027609 247.277178 
L 184.748772 241.225428 
L 185.469935 237.190929 
L 186.191099 289.639423 
L 187.633425 243.242678 
L 188.354588 235.173679 
L 189.075751 231.139179 
L 189.796914 241.225428 
L 190.518078 231.139179 
L 191.239241 233.156429 
L 191.960404 233.156429 
L 193.40273 241.225428 
L 194.123893 231.139179 
L 194.845057 229.12193 
L 195.56622 229.12193 
L 196.287383 231.139179 
L 197.008546 249.294427 
L 197.729709 239.208179 
L 198.450872 231.139179 
L 199.172036 243.242678 
L 199.893199 243.242678 
L 201.335525 285.604924 
L 202.056688 257.363427 
L 202.777851 253.328927 
L 204.220178 241.225428 
L 204.941341 239.208179 
L 205.662504 241.225428 
L 206.383667 249.294427 
L 207.10483 245.259928 
L 207.825994 243.242678 
L 208.547157 239.208179 
L 209.26832 241.225428 
L 210.710646 237.190929 
L 211.431809 255.346177 
L 212.152973 249.294427 
L 212.874136 245.259928 
L 214.316462 233.156429 
L 215.037625 245.259928 
L 215.758788 285.604924 
L 216.479952 257.363427 
L 217.201115 245.259928 
L 217.922278 235.173679 
L 218.643441 243.242678 
L 219.364604 225.08743 
L 220.085767 241.225428 
L 220.806931 235.173679 
L 221.528094 245.259928 
L 222.249257 247.277178 
L 222.97042 225.08743 
L 223.691583 249.294427 
L 224.412746 225.08743 
L 225.13391 253.328927 
L 226.576236 227.10468 
L 227.297399 241.225428 
L 228.018562 241.225428 
L 228.739725 229.12193 
L 229.460889 239.208179 
L 230.182052 253.328927 
L 230.903215 289.639423 
L 231.624378 253.328927 
L 232.345541 237.190929 
L 233.066704 247.277178 
L 233.787868 245.259928 
L 234.509031 237.190929 
L 235.230194 231.139179 
L 235.951357 231.139179 
L 236.67252 251.311677 
L 237.393683 239.208179 
L 238.114847 245.259928 
L 238.83601 239.208179 
L 239.557173 231.139179 
L 240.278336 239.208179 
L 240.999499 241.225428 
L 241.720662 247.277178 
L 242.441826 245.259928 
L 243.162989 241.225428 
L 243.884152 239.208179 
L 244.605315 239.208179 
L 245.326478 289.639423 
L 246.768805 261.397926 
L 248.211131 241.225428 
L 248.932294 235.173679 
L 249.653457 237.190929 
L 250.37462 237.190929 
L 251.095784 249.294427 
L 251.816947 239.208179 
L 252.53811 225.08743 
L 253.259273 239.208179 
L 253.980436 231.139179 
L 254.701599 247.277178 
L 255.422763 235.173679 
L 256.143926 235.173679 
L 256.865089 239.208179 
L 257.586252 239.208179 
L 258.307415 241.225428 
L 259.028578 233.156429 
L 259.749742 245.259928 
L 260.470905 289.639423 
L 261.192068 261.397926 
L 262.634394 229.12193 
L 263.355557 239.208179 
L 264.076721 235.173679 
L 264.797884 239.208179 
L 265.519047 233.156429 
L 266.24021 247.277178 
L 266.961373 223.07018 
L 267.682536 221.05293 
L 268.4037 227.10468 
L 269.124863 243.242678 
L 269.846026 241.225428 
L 270.567189 229.12193 
L 271.288352 241.225428 
L 272.009515 227.10468 
L 272.730679 241.225428 
L 273.451842 221.05293 
L 274.173005 245.259928 
L 274.894168 281.570424 
L 275.615331 279.553174 
L 276.336494 245.259928 
L 277.057658 231.139179 
L 277.778821 227.10468 
L 279.221147 235.173679 
L 279.94231 243.242678 
L 280.663473 245.259928 
L 281.384637 241.225428 
L 282.1058 241.225428 
L 282.826963 243.242678 
L 283.548126 231.139179 
L 284.269289 251.311677 
L 284.990452 243.242678 
L 285.711616 229.12193 
L 286.432779 239.208179 
L 287.153942 241.225428 
L 288.596268 241.225428 
L 289.317431 229.12193 
L 290.038595 295.691173 
L 291.480921 239.208179 
L 292.923247 235.173679 
L 293.64441 241.225428 
L 294.365574 227.10468 
L 295.086737 241.225428 
L 295.8079 225.08743 
L 296.529063 239.208179 
L 297.250226 243.242678 
L 297.971389 229.12193 
L 298.692553 239.208179 
L 299.413716 237.190929 
L 300.134879 237.190929 
L 300.856042 225.08743 
L 301.577205 237.190929 
L 302.298368 237.190929 
L 303.019532 229.12193 
L 303.740695 229.12193 
L 304.461858 273.501425 
L 305.183021 279.553174 
L 305.904184 243.242678 
L 306.625347 231.139179 
L 307.346511 233.156429 
L 308.067674 231.139179 
L 308.788837 227.10468 
L 309.51 239.208179 
L 310.231163 229.12193 
L 310.952326 239.208179 
L 311.67349 215.001181 
L 312.394653 249.294427 
L 313.115816 217.018431 
L 313.836979 235.173679 
L 314.558142 225.08743 
L 316.000469 245.259928 
L 316.721632 235.173679 
L 317.442795 237.190929 
L 318.163958 229.12193 
L 318.885121 233.156429 
L 319.606284 291.656673 
L 320.327448 271.484175 
L 321.048611 245.259928 
L 321.769774 229.12193 
L 322.490937 241.225428 
L 323.2121 235.173679 
L 324.654427 231.139179 
L 325.37559 227.10468 
L 326.096753 221.05293 
L 326.817916 239.208179 
L 327.539079 253.328927 
L 328.260242 239.208179 
L 328.981406 237.190929 
L 329.702569 241.225428 
L 330.423732 231.139179 
L 331.144895 229.12193 
L 331.866058 231.139179 
L 332.587221 241.225428 
L 333.308385 231.139179 
L 334.029548 249.294427 
L 334.750711 289.639423 
L 335.471874 247.277178 
L 336.193037 231.139179 
L 336.9142 225.08743 
L 337.635364 227.10468 
L 338.356527 241.225428 
L 339.07769 241.225428 
L 339.798853 229.12193 
L 340.520016 241.225428 
L 341.241179 227.10468 
L 341.962343 237.190929 
L 342.683506 229.12193 
L 343.404669 241.225428 
L 344.125832 233.156429 
L 344.846995 239.208179 
L 345.568158 219.035681 
L 346.289322 251.311677 
L 347.010485 227.10468 
L 347.731648 247.277178 
L 348.452811 241.225428 
L 349.173974 291.656673 
L 350.616301 243.242678 
L 351.337464 227.10468 
L 352.058627 239.208179 
L 352.77979 245.259928 
L 353.500953 237.190929 
L 354.222116 227.10468 
L 354.94328 239.208179 
L 355.664443 229.12193 
L 356.385606 239.208179 
L 357.106769 239.208179 
L 357.827932 243.242678 
L 358.549095 227.10468 
L 359.270259 223.07018 
L 359.991422 239.208179 
L 360.712585 229.12193 
L 361.433748 223.07018 
L 362.154911 241.225428 
L 362.876074 239.208179 
L 363.597238 235.173679 
L 364.318401 295.691173 
L 365.039564 269.466925 
L 366.48189 241.225428 
L 367.203053 241.225428 
L 367.924217 233.156429 
L 368.64538 257.363427 
L 369.366543 247.277178 
L 370.087706 229.12193 
L 370.808869 245.259928 
L 371.530032 229.12193 
L 372.251196 243.242678 
L 372.972359 229.12193 
L 373.693522 253.328927 
L 374.414685 241.225428 
L 375.135848 243.242678 
L 375.857011 241.225428 
L 376.578175 231.139179 
L 377.299338 249.294427 
L 378.020501 239.208179 
L 378.741664 283.587674 
L 379.462827 239.208179 
L 380.18399 243.242678 
L 380.905154 251.311677 
L 382.34748 239.208179 
L 383.068643 231.139179 
L 383.789806 241.225428 
L 384.510969 241.225428 
L 385.232133 227.10468 
L 385.953296 239.208179 
L 386.674459 241.225428 
L 387.395622 227.10468 
L 388.116785 249.294427 
L 388.837948 229.12193 
L 389.559112 243.242678 
L 390.280275 229.12193 
L 391.001438 251.311677 
L 391.722601 227.10468 
L 392.443764 235.173679 
L 393.164927 239.208179 
L 393.886091 289.639423 
L 394.607254 281.570424 
L 396.04958 243.242678 
L 396.770743 233.156429 
L 397.491906 235.173679 
L 398.21307 245.259928 
L 398.934233 235.173679 
L 399.655396 239.208179 
L 400.376559 225.08743 
L 401.097722 249.294427 
L 401.818885 239.208179 
L 402.540049 227.10468 
L 403.261212 239.208179 
L 403.982375 231.139179 
L 404.703538 235.173679 
L 405.424701 253.328927 
L 406.145864 243.242678 
L 406.867028 239.208179 
L 407.588191 237.190929 
L 408.309354 269.466925 
L 409.030517 273.501425 
L 409.75168 251.311677 
L 410.472843 239.208179 
L 411.194007 229.12193 
L 411.91517 229.12193 
L 412.636333 253.328927 
L 413.357496 241.225428 
L 414.078659 237.190929 
L 414.799822 229.12193 
L 415.520986 239.208179 
L 416.963312 239.208179 
L 417.684475 231.139179 
L 418.405638 241.225428 
L 419.126801 233.156429 
L 419.847965 237.190929 
L 420.569128 243.242678 
L 421.290291 229.12193 
L 422.011454 239.208179 
L 422.732617 227.10468 
L 423.45378 291.656673 
L 424.896107 239.208179 
L 425.61727 239.208179 
L 426.338433 229.12193 
L 427.059596 241.225428 
L 427.780759 229.12193 
L 428.501923 235.173679 
L 429.944249 231.139179 
L 430.665412 247.277178 
L 431.386575 233.156429 
L 432.107738 225.08743 
L 432.828902 239.208179 
L 433.550065 233.156429 
L 434.271228 243.242678 
L 434.992391 241.225428 
L 435.713554 229.12193 
L 436.434717 247.277178 
L 437.155881 251.311677 
L 438.598207 287.622173 
L 440.040533 227.10468 
L 440.761696 247.277178 
L 441.48286 239.208179 
L 442.204023 229.12193 
L 442.925186 249.294427 
L 443.646349 235.173679 
L 444.367512 241.225428 
L 445.088675 227.10468 
L 445.809839 229.12193 
L 446.531002 237.190929 
L 447.252165 237.190929 
L 447.973328 229.12193 
L 448.694491 243.242678 
L 449.415654 229.12193 
L 450.136818 225.08743 
L 450.857981 237.190929 
L 451.579144 241.225428 
L 452.300307 229.12193 
L 453.02147 291.656673 
L 455.906123 229.12193 
L 456.627286 243.242678 
L 457.348449 235.173679 
L 458.069612 251.311677 
L 460.233102 233.156429 
L 460.954265 241.225428 
L 461.675428 239.208179 
L 462.396591 249.294427 
L 463.117755 241.225428 
L 463.838918 227.10468 
L 464.560081 241.225428 
L 465.281244 235.173679 
L 466.002407 241.225428 
L 467.444734 241.225428 
L 468.165897 287.622173 
L 468.88706 257.363427 
L 470.329386 227.10468 
L 471.050549 249.294427 
L 471.771713 237.190929 
L 472.492876 241.225428 
L 473.935202 233.156429 
L 474.656365 249.294427 
L 475.377528 225.08743 
L 476.098692 227.10468 
L 476.819855 247.277178 
L 477.541018 241.225428 
L 478.262181 245.259928 
L 478.983344 247.277178 
L 480.425671 239.208179 
L 481.867997 239.208179 
L 482.58916 285.604924 
L 484.75265 227.10468 
L 485.473813 233.156429 
L 486.194976 241.225428 
L 486.916139 237.190929 
L 487.637302 231.139179 
L 488.358465 231.139179 
L 489.079629 237.190929 
L 489.800792 223.07018 
L 490.521955 245.259928 
L 491.243118 233.156429 
L 491.964281 241.225428 
L 492.685444 227.10468 
L 493.406608 251.311677 
L 494.127771 239.208179 
L 494.848934 239.208179 
L 495.570097 241.225428 
L 496.29126 231.139179 
L 497.012423 237.190929 
L 497.733587 289.639423 
L 498.45475 261.397926 
L 500.618239 243.242678 
L 501.339402 239.208179 
L 502.060566 237.190929 
L 502.781729 251.311677 
L 503.502892 243.242678 
L 504.224055 237.190929 
L 504.945218 235.173679 
L 505.666381 251.311677 
L 506.387545 241.225428 
L 507.108708 241.225428 
L 507.108708 241.225428 
" style="fill:none;stroke:#ff7f0e;stroke-linecap:square;stroke-width:1.5;"/>
   </g>
   <g id="line2d_17">
    <path clip-path="url(#p5a0627f218)" d="M 115.507012 154.483687 
L 116.228175 83.879945 
L 116.949338 47.569449 
L 117.670501 192.811433 
L 118.391665 186.759684 
L 119.112828 231.139179 
L 119.833991 223.07018 
L 120.555154 225.08743 
L 121.276317 215.001181 
L 121.99748 206.932182 
L 122.718644 223.07018 
L 123.439807 225.08743 
L 124.16097 212.983931 
L 124.882133 219.035681 
L 125.603296 206.932182 
L 126.324459 204.914932 
L 127.045623 277.535925 
L 127.766786 162.552687 
L 129.209112 186.759684 
L 129.930275 184.742434 
L 130.651438 215.001181 
L 131.372602 180.707935 
L 132.093765 168.604436 
L 132.814928 215.001181 
L 133.536091 210.966682 
L 134.978417 241.225428 
L 135.699581 219.035681 
L 136.420744 212.983931 
L 137.141907 210.966682 
L 137.86307 219.035681 
L 138.584233 208.949432 
L 139.305396 239.208179 
L 140.02656 196.845933 
L 140.747723 210.966682 
L 141.468886 210.966682 
L 142.190049 227.10468 
L 142.911212 204.914932 
L 143.632375 221.05293 
L 144.353539 229.12193 
L 145.074702 223.07018 
L 145.795865 233.156429 
L 146.517028 231.139179 
L 147.238191 221.05293 
L 147.959354 231.139179 
L 148.680518 229.12193 
L 149.401681 243.242678 
L 150.122844 204.914932 
L 150.844007 229.12193 
L 151.56517 241.225428 
L 152.286333 229.12193 
L 153.007497 227.10468 
L 153.72866 227.10468 
L 154.449823 239.208179 
L 155.170986 229.12193 
L 155.892149 225.08743 
L 156.613312 281.570424 
L 158.055639 243.242678 
L 158.776802 223.07018 
L 159.497965 237.190929 
L 160.219128 229.12193 
L 160.940291 210.966682 
L 162.382618 239.208179 
L 163.103781 231.139179 
L 163.824944 227.10468 
L 164.546107 225.08743 
L 165.26727 243.242678 
L 165.988434 225.08743 
L 166.709597 241.225428 
L 167.43076 215.001181 
L 168.151923 235.173679 
L 168.873086 227.10468 
L 169.594249 225.08743 
L 170.315413 225.08743 
L 171.036576 223.07018 
L 171.757739 275.518675 
L 172.478902 241.225428 
L 173.200065 233.156429 
L 173.921228 229.12193 
L 174.642392 247.277178 
L 175.363555 233.156429 
L 176.084718 239.208179 
L 176.805881 235.173679 
L 177.527044 227.10468 
L 178.248207 233.156429 
L 178.969371 227.10468 
L 179.690534 239.208179 
L 180.411697 237.190929 
L 181.13286 241.225428 
L 181.854023 223.07018 
L 182.575186 239.208179 
L 184.017513 243.242678 
L 184.738676 239.208179 
L 185.459839 237.190929 
L 186.181002 269.466925 
L 186.902165 263.415176 
L 187.623329 241.225428 
L 188.344492 233.156429 
L 189.065655 233.156429 
L 189.786818 231.139179 
L 190.507981 231.139179 
L 191.229144 233.156429 
L 191.950308 227.10468 
L 192.671471 229.12193 
L 193.392634 208.949432 
L 194.113797 227.10468 
L 194.83496 227.10468 
L 195.556123 235.173679 
L 196.277287 229.12193 
L 196.99845 243.242678 
L 198.440776 231.139179 
L 199.161939 241.225428 
L 199.883102 231.139179 
L 200.604266 239.208179 
L 201.325429 275.518675 
L 202.046592 257.363427 
L 202.767755 253.328927 
L 204.210081 241.225428 
L 204.931245 221.05293 
L 205.652408 243.242678 
L 206.373571 249.294427 
L 207.094734 245.259928 
L 207.815897 243.242678 
L 208.53706 239.208179 
L 209.258224 233.156429 
L 209.979387 239.208179 
L 210.70055 237.190929 
L 211.421713 255.346177 
L 212.864039 243.242678 
L 213.585203 239.208179 
L 214.306366 243.242678 
L 215.027529 245.259928 
L 215.748692 261.397926 
L 216.469855 257.363427 
L 217.191018 245.259928 
L 217.912182 227.10468 
L 218.633345 241.225428 
L 219.354508 233.156429 
L 220.075671 233.156429 
L 220.796834 223.07018 
L 221.517997 243.242678 
L 222.239161 245.259928 
L 222.960324 227.10468 
L 223.681487 249.294427 
L 224.40265 221.05293 
L 225.123813 251.311677 
L 225.844976 229.12193 
L 226.56614 229.12193 
L 227.287303 233.156429 
L 228.008466 229.12193 
L 228.729629 229.12193 
L 229.450792 237.190929 
L 230.171955 227.10468 
L 230.893119 279.553174 
L 231.614282 251.311677 
L 232.335445 237.190929 
L 233.056608 243.242678 
L 233.777771 245.259928 
L 234.498934 225.08743 
L 235.220098 231.139179 
L 235.941261 229.12193 
L 236.662424 249.294427 
L 237.383587 239.208179 
L 238.10475 235.173679 
L 238.825913 239.208179 
L 239.547077 231.139179 
L 240.26824 239.208179 
L 240.989403 233.156429 
L 241.710566 247.277178 
L 242.431729 245.259928 
L 243.874056 237.190929 
L 244.595219 249.294427 
L 245.316382 265.432426 
L 246.037545 273.501425 
L 246.758708 261.397926 
L 248.201035 241.225428 
L 248.922198 227.10468 
L 249.643361 229.12193 
L 251.085687 249.294427 
L 251.80685 237.190929 
L 252.528014 219.035681 
L 253.249177 239.208179 
L 253.97034 231.139179 
L 254.691503 245.259928 
L 255.412666 225.08743 
L 256.133829 227.10468 
L 256.854993 239.208179 
L 257.576156 206.932182 
L 258.297319 241.225428 
L 259.018482 233.156429 
L 259.739645 243.242678 
L 260.460808 279.553174 
L 261.903135 243.242678 
L 262.624298 233.156429 
L 263.345461 239.208179 
L 264.787787 227.10468 
L 265.508951 227.10468 
L 266.230114 245.259928 
L 266.951277 219.035681 
L 267.67244 217.018431 
L 268.393603 227.10468 
L 269.114766 235.173679 
L 269.83593 229.12193 
L 270.557093 210.966682 
L 271.278256 231.139179 
L 271.999419 215.001181 
L 272.720582 229.12193 
L 273.441745 206.932182 
L 274.162909 225.08743 
L 274.884072 217.018431 
L 275.605235 277.535925 
L 276.326398 243.242678 
L 277.047561 227.10468 
L 277.768724 225.08743 
L 278.489888 221.05293 
L 279.932214 241.225428 
L 280.653377 231.139179 
L 281.37454 227.10468 
L 282.095703 233.156429 
L 282.816867 241.225428 
L 283.53803 219.035681 
L 284.259193 249.294427 
L 284.980356 243.242678 
L 285.701519 229.12193 
L 286.422682 237.190929 
L 287.143846 241.225428 
L 287.865009 239.208179 
L 288.586172 229.12193 
L 289.307335 225.08743 
L 290.028498 281.570424 
L 290.749661 263.415176 
L 291.470825 237.190929 
L 292.191988 219.035681 
L 293.634314 239.208179 
L 294.355477 237.190929 
L 295.07664 225.08743 
L 296.518967 229.12193 
L 298.682456 229.12193 
L 299.403619 227.10468 
L 300.124783 235.173679 
L 300.845946 229.12193 
L 301.567109 227.10468 
L 302.288272 229.12193 
L 303.009435 237.190929 
L 303.730598 237.190929 
L 304.451762 241.225428 
L 305.172925 271.484175 
L 305.894088 241.225428 
L 306.615251 229.12193 
L 307.336414 233.156429 
L 308.057577 227.10468 
L 308.778741 204.914932 
L 309.499904 223.07018 
L 310.221067 202.897682 
L 310.94223 194.828683 
L 311.663393 206.932182 
L 312.384556 245.259928 
L 313.10572 208.949432 
L 313.826883 227.10468 
L 314.548046 223.07018 
L 315.269209 206.932182 
L 315.990372 237.190929 
L 316.711535 229.12193 
L 317.432699 223.07018 
L 318.153862 212.983931 
L 318.875025 227.10468 
L 319.596188 263.415176 
L 320.317351 271.484175 
L 321.038514 243.242678 
L 321.759678 198.863183 
L 322.480841 237.190929 
L 323.202004 231.139179 
L 324.64433 215.001181 
L 325.365493 217.018431 
L 326.086657 204.914932 
L 326.80782 225.08743 
L 327.528983 231.139179 
L 328.250146 223.07018 
L 328.971309 202.897682 
L 329.692472 200.880433 
L 330.413636 210.966682 
L 331.134799 176.673435 
L 331.855962 221.05293 
L 332.577125 184.742434 
L 333.298288 215.001181 
L 334.019451 194.828683 
L 334.740615 279.553174 
L 335.461778 245.259928 
L 336.182941 221.05293 
L 336.904104 227.10468 
L 337.625267 225.08743 
L 338.34643 239.208179 
L 339.067594 217.018431 
L 339.788757 217.018431 
L 340.50992 239.208179 
L 341.231083 223.07018 
L 341.952246 217.018431 
L 342.673409 219.035681 
L 343.394573 227.10468 
L 344.115736 221.05293 
L 344.836899 229.12193 
L 345.558062 206.932182 
L 346.279225 245.259928 
L 347.000388 215.001181 
L 347.721552 247.277178 
L 348.442715 184.742434 
L 349.163878 257.363427 
L 349.885041 265.432426 
L 350.606204 241.225428 
L 351.327367 227.10468 
L 352.048531 233.156429 
L 352.769694 243.242678 
L 353.490857 225.08743 
L 354.21202 227.10468 
L 354.933183 235.173679 
L 355.654346 225.08743 
L 356.37551 225.08743 
L 357.096673 235.173679 
L 357.817836 227.10468 
L 358.538999 215.001181 
L 359.260162 212.983931 
L 359.981325 227.10468 
L 360.702489 229.12193 
L 361.423652 215.001181 
L 362.144815 235.173679 
L 362.865978 227.10468 
L 363.587141 221.05293 
L 364.308304 287.622173 
L 365.750631 253.328927 
L 366.471794 241.225428 
L 367.192957 231.139179 
L 367.91412 219.035681 
L 368.635283 255.346177 
L 369.356447 245.259928 
L 370.07761 231.139179 
L 370.798773 243.242678 
L 371.519936 229.12193 
L 372.241099 241.225428 
L 372.962262 227.10468 
L 373.683426 251.311677 
L 374.404589 239.208179 
L 375.125752 233.156429 
L 375.846915 239.208179 
L 376.568078 221.05293 
L 377.289241 247.277178 
L 378.010405 229.12193 
L 378.731568 241.225428 
L 379.452731 235.173679 
L 380.173894 243.242678 
L 380.895057 249.294427 
L 381.61622 245.259928 
L 382.337384 239.208179 
L 383.058547 221.05293 
L 383.77971 239.208179 
L 384.500873 231.139179 
L 385.222036 225.08743 
L 385.943199 239.208179 
L 386.664363 229.12193 
L 387.385526 206.932182 
L 388.106689 247.277178 
L 388.827852 225.08743 
L 389.549015 241.225428 
L 390.270178 223.07018 
L 390.991342 249.294427 
L 391.712505 219.035681 
L 392.433668 241.225428 
L 393.154831 223.07018 
L 394.597157 281.570424 
L 396.039484 241.225428 
L 396.760647 217.018431 
L 398.202973 241.225428 
L 399.6453 225.08743 
L 400.366463 208.949432 
L 401.087626 235.173679 
L 401.808789 237.190929 
L 402.529952 217.018431 
L 403.251115 227.10468 
L 403.972279 231.139179 
L 404.693442 231.139179 
L 405.414605 251.311677 
L 406.135768 241.225428 
L 406.856931 239.208179 
L 407.578094 217.018431 
L 408.299258 221.05293 
L 409.020421 267.449676 
L 410.462747 237.190929 
L 411.18391 235.173679 
L 411.905073 217.018431 
L 412.626237 251.311677 
L 413.3474 239.208179 
L 414.068563 225.08743 
L 414.789726 229.12193 
L 415.510889 225.08743 
L 416.232052 233.156429 
L 416.953216 227.10468 
L 417.674379 231.139179 
L 418.395542 237.190929 
L 419.116705 233.156429 
L 419.837868 235.173679 
L 420.559031 227.10468 
L 421.280195 229.12193 
L 422.001358 239.208179 
L 422.722521 219.035681 
L 423.443684 271.484175 
L 424.164847 261.397926 
L 424.88601 229.12193 
L 425.607174 231.139179 
L 426.328337 231.139179 
L 427.0495 225.08743 
L 427.770663 223.07018 
L 428.491826 225.08743 
L 429.934153 225.08743 
L 430.655316 243.242678 
L 431.376479 233.156429 
L 432.097642 219.035681 
L 432.818805 233.156429 
L 433.539968 231.139179 
L 434.261132 231.139179 
L 434.982295 225.08743 
L 435.703458 233.156429 
L 436.424621 233.156429 
L 437.145784 241.225428 
L 437.866947 247.277178 
L 438.588111 277.535925 
L 439.309274 257.363427 
L 440.030437 225.08743 
L 440.7516 227.10468 
L 441.472763 237.190929 
L 442.193926 217.018431 
L 442.91509 247.277178 
L 443.636253 231.139179 
L 444.357416 239.208179 
L 445.078579 223.07018 
L 445.799742 225.08743 
L 446.520905 206.932182 
L 447.242069 223.07018 
L 447.963232 210.966682 
L 448.684395 229.12193 
L 449.405558 225.08743 
L 450.126721 206.932182 
L 450.847884 223.07018 
L 451.569048 229.12193 
L 452.290211 223.07018 
L 453.011374 215.001181 
L 453.732537 275.518675 
L 454.4537 255.346177 
L 455.174863 241.225428 
L 455.896027 217.018431 
L 456.61719 241.225428 
L 457.338353 235.173679 
L 458.059516 249.294427 
L 458.780679 245.259928 
L 459.501842 239.208179 
L 460.223006 235.173679 
L 460.944169 241.225428 
L 461.665332 229.12193 
L 462.386495 249.294427 
L 463.107658 239.208179 
L 463.828821 227.10468 
L 464.549985 239.208179 
L 465.271148 225.08743 
L 465.992311 237.190929 
L 466.713474 239.208179 
L 467.434637 229.12193 
L 468.1558 273.501425 
L 468.876964 255.346177 
L 469.598127 243.242678 
L 470.31929 227.10468 
L 471.040453 249.294427 
L 471.761616 227.10468 
L 472.482779 239.208179 
L 473.203943 227.10468 
L 473.925106 225.08743 
L 474.646269 247.277178 
L 475.367432 225.08743 
L 476.088595 206.932182 
L 476.809758 231.139179 
L 477.530922 241.225428 
L 478.252085 243.242678 
L 478.973248 247.277178 
L 479.694411 243.242678 
L 480.415574 237.190929 
L 481.136737 237.190929 
L 481.857901 239.208179 
L 482.579064 247.277178 
L 483.300227 265.432426 
L 484.02139 243.242678 
L 484.742553 237.190929 
L 485.463716 235.173679 
L 486.18488 239.208179 
L 486.906043 237.190929 
L 487.627206 219.035681 
L 488.348369 229.12193 
L 489.069532 227.10468 
L 489.790695 221.05293 
L 490.511859 245.259928 
L 491.233022 229.12193 
L 491.954185 239.208179 
L 492.675348 217.018431 
L 493.396511 249.294427 
L 494.117674 231.139179 
L 494.838838 233.156429 
L 495.560001 239.208179 
L 497.002327 227.10468 
L 497.72349 269.466925 
L 499.165817 253.328927 
L 499.88698 247.277178 
L 500.608143 243.242678 
L 501.329306 237.190929 
L 502.050469 247.277178 
L 502.771632 251.311677 
L 503.492796 241.225428 
L 504.213959 237.190929 
L 504.213959 237.190929 
" style="fill:none;stroke:#2ca02c;stroke-linecap:square;stroke-width:1.5;"/>
   </g>
   <g id="line2d_18">
    <path clip-path="url(#p5a0627f218)" d="M 112.691591 186.759684 
L 113.412754 289.639423 
L 114.133917 291.656673 
L 114.85508 291.656673 
L 116.297407 122.207691 
L 117.01857 124.224941 
L 117.739733 196.845933 
L 118.460896 194.828683 
L 119.182059 231.139179 
L 119.903223 217.018431 
L 120.624386 227.10468 
L 121.345549 198.863183 
L 122.066712 196.845933 
L 122.787875 217.018431 
L 123.509038 225.08743 
L 124.230202 202.897682 
L 124.951365 219.035681 
L 125.672528 217.018431 
L 126.393691 210.966682 
L 127.114854 231.139179 
L 127.836017 160.535437 
L 128.557181 178.690685 
L 129.278344 180.707935 
L 129.999507 237.190929 
L 130.72067 235.173679 
L 131.441833 200.880433 
L 132.162996 198.863183 
L 132.88416 219.035681 
L 133.605323 219.035681 
L 134.326486 243.242678 
L 135.047649 241.225428 
L 135.768812 223.07018 
L 136.489975 212.983931 
L 137.211139 198.863183 
L 137.932302 245.259928 
L 138.653465 229.12193 
L 139.374628 217.018431 
L 140.095791 225.08743 
L 140.816954 219.035681 
L 141.538118 247.277178 
L 142.259281 223.07018 
L 142.980444 182.725184 
L 143.701607 231.139179 
L 144.42277 227.10468 
L 145.143933 227.10468 
L 145.865097 231.139179 
L 146.58626 225.08743 
L 147.307423 225.08743 
L 148.028586 231.139179 
L 148.749749 227.10468 
L 149.470912 243.242678 
L 150.192076 200.880433 
L 150.913239 229.12193 
L 151.634402 239.208179 
L 152.355565 229.12193 
L 153.076728 225.08743 
L 153.797891 231.139179 
L 154.519055 239.208179 
L 155.240218 239.208179 
L 155.961381 225.08743 
L 156.682544 283.587674 
L 158.12487 241.225428 
L 158.846034 225.08743 
L 159.567197 229.12193 
L 160.28836 229.12193 
L 161.009523 215.001181 
L 162.451849 239.208179 
L 163.173013 231.139179 
L 163.894176 225.08743 
L 164.615339 215.001181 
L 165.336502 243.242678 
L 166.057665 237.190929 
L 166.778828 241.225428 
L 167.499992 210.966682 
L 168.221155 235.173679 
L 168.942318 227.10468 
L 169.663481 227.10468 
L 170.384644 212.983931 
L 171.105807 233.156429 
L 171.826971 269.466925 
L 172.548134 239.208179 
L 173.269297 235.173679 
L 173.99046 229.12193 
L 174.711623 245.259928 
L 175.432786 233.156429 
L 176.15395 237.190929 
L 176.875113 233.156429 
L 177.596276 225.08743 
L 178.317439 239.208179 
L 179.038602 227.10468 
L 179.759765 239.208179 
L 180.480929 235.173679 
L 181.202092 229.12193 
L 181.923255 229.12193 
L 182.644418 237.190929 
L 183.365581 241.225428 
L 184.086744 243.242678 
L 184.807908 239.208179 
L 185.529071 227.10468 
L 186.250234 267.449676 
L 186.971397 263.415176 
L 187.69256 241.225428 
L 188.413723 235.173679 
L 190.577213 223.07018 
L 191.298376 231.139179 
L 192.019539 231.139179 
L 192.740702 215.001181 
L 194.183029 227.10468 
L 194.904192 227.10468 
L 195.625355 235.173679 
L 196.346518 221.05293 
L 197.067681 243.242678 
L 197.788845 227.10468 
L 198.510008 231.139179 
L 199.231171 239.208179 
L 199.952334 231.139179 
L 200.673497 231.139179 
L 201.39466 271.484175 
L 202.115824 255.346177 
L 202.836987 253.328927 
L 203.55815 245.259928 
L 204.279313 241.225428 
L 205.000476 221.05293 
L 205.721639 251.311677 
L 206.442803 249.294427 
L 207.163966 245.259928 
L 207.885129 243.242678 
L 208.606292 239.208179 
L 209.327455 241.225428 
L 210.048618 239.208179 
L 210.769782 231.139179 
L 211.490945 253.328927 
L 212.212108 249.294427 
L 212.933271 243.242678 
L 213.654434 239.208179 
L 214.375597 245.259928 
L 215.096761 245.259928 
L 215.817924 259.380676 
L 216.539087 257.363427 
L 217.26025 243.242678 
L 217.981413 225.08743 
L 218.702576 243.242678 
L 219.42374 215.001181 
L 220.144903 241.225428 
L 220.866066 225.08743 
L 221.587229 257.363427 
L 222.308392 245.259928 
L 223.029555 225.08743 
L 223.750719 249.294427 
L 224.471882 227.10468 
L 225.193045 249.294427 
L 225.914208 229.12193 
L 226.635371 219.035681 
L 227.356534 229.12193 
L 228.077698 231.139179 
L 228.798861 227.10468 
L 230.241187 227.10468 
L 230.96235 275.518675 
L 231.683513 251.311677 
L 232.404677 237.190929 
L 233.12584 243.242678 
L 233.847003 243.242678 
L 234.568166 229.12193 
L 235.289329 241.225428 
L 236.010492 233.156429 
L 236.731656 247.277178 
L 237.452819 239.208179 
L 238.173982 243.242678 
L 238.895145 237.190929 
L 239.616308 233.156429 
L 240.337471 231.139179 
L 241.058635 233.156429 
L 241.779798 247.277178 
L 242.500961 245.259928 
L 243.943287 237.190929 
L 244.66445 241.225428 
L 245.385614 267.449676 
L 246.106777 273.501425 
L 247.549103 249.294427 
L 248.270266 241.225428 
L 248.991429 225.08743 
L 249.712593 227.10468 
L 250.433756 237.190929 
L 251.154919 249.294427 
L 251.876082 237.190929 
L 252.597245 217.018431 
L 253.318408 239.208179 
L 254.039572 231.139179 
L 254.760735 243.242678 
L 255.481898 217.018431 
L 256.203061 233.156429 
L 256.924224 227.10468 
L 257.645387 215.001181 
L 258.366551 239.208179 
L 259.087714 227.10468 
L 259.808877 241.225428 
L 260.53004 279.553174 
L 261.251203 259.380676 
L 262.69353 227.10468 
L 263.414693 225.08743 
L 264.135856 245.259928 
L 264.857019 212.983931 
L 265.578182 233.156429 
L 266.299345 245.259928 
L 267.020509 212.983931 
L 268.462835 225.08743 
L 269.183998 237.190929 
L 269.905161 227.10468 
L 270.626324 215.001181 
L 271.347488 237.190929 
L 272.068651 219.035681 
L 272.789814 221.05293 
L 273.510977 219.035681 
L 274.23214 223.07018 
L 274.953303 225.08743 
L 275.674467 273.501425 
L 276.39563 231.139179 
L 277.116793 235.173679 
L 277.837956 227.10468 
L 278.559119 227.10468 
L 279.280282 233.156429 
L 280.001446 231.139179 
L 280.722609 231.139179 
L 281.443772 229.12193 
L 282.886098 241.225428 
L 283.607261 221.05293 
L 284.328425 249.294427 
L 285.049588 241.225428 
L 285.770751 237.190929 
L 286.491914 227.10468 
L 287.213077 235.173679 
L 287.93424 237.190929 
L 288.655404 229.12193 
L 289.376567 227.10468 
L 290.09773 283.587674 
L 290.818893 259.380676 
L 291.540056 227.10468 
L 292.261219 219.035681 
L 292.982383 245.259928 
L 293.703546 239.208179 
L 294.424709 227.10468 
L 295.145872 229.12193 
L 295.867035 227.10468 
L 296.588198 237.190929 
L 297.309362 227.10468 
L 298.030525 229.12193 
L 299.472851 225.08743 
L 300.194014 235.173679 
L 300.915177 229.12193 
L 301.636341 225.08743 
L 302.357504 227.10468 
L 303.79983 227.10468 
L 304.520993 239.208179 
L 305.242156 269.466925 
L 305.96332 237.190929 
L 308.126809 231.139179 
L 308.847972 204.914932 
L 309.569135 210.966682 
L 310.290299 225.08743 
L 311.011462 206.932182 
L 311.732625 200.880433 
L 312.453788 243.242678 
L 313.174951 215.001181 
L 313.896114 225.08743 
L 314.617278 215.001181 
L 315.338441 217.018431 
L 316.059604 227.10468 
L 316.780767 241.225428 
L 317.50193 215.001181 
L 318.223093 208.949432 
L 318.944257 229.12193 
L 319.66542 271.484175 
L 320.386583 267.449676 
L 321.107746 231.139179 
L 321.828909 219.035681 
L 322.550072 223.07018 
L 323.271236 243.242678 
L 323.992399 227.10468 
L 324.713562 221.05293 
L 325.434725 225.08743 
L 326.155888 206.932182 
L 326.877051 227.10468 
L 327.598215 233.156429 
L 328.319378 229.12193 
L 329.040541 229.12193 
L 329.761704 206.932182 
L 330.482867 217.018431 
L 331.20403 221.05293 
L 331.925194 204.914932 
L 333.36752 217.018431 
L 334.088683 202.897682 
L 334.809846 277.535925 
L 335.531009 243.242678 
L 336.252173 227.10468 
L 336.973336 221.05293 
L 337.694499 221.05293 
L 338.415662 227.10468 
L 339.136825 206.932182 
L 339.857988 208.949432 
L 340.579152 239.208179 
L 341.300315 223.07018 
L 342.021478 215.001181 
L 342.742641 215.001181 
L 343.463804 227.10468 
L 344.184967 221.05293 
L 344.906131 225.08743 
L 345.627294 206.932182 
L 346.348457 235.173679 
L 347.06962 223.07018 
L 347.790783 247.277178 
L 348.511946 206.932182 
L 349.23311 265.432426 
L 349.954273 263.415176 
L 350.675436 239.208179 
L 351.396599 229.12193 
L 352.838925 241.225428 
L 353.560089 225.08743 
L 354.281252 227.10468 
L 355.002415 247.277178 
L 355.723578 219.035681 
L 356.444741 227.10468 
L 357.165904 227.10468 
L 357.887068 239.208179 
L 358.608231 219.035681 
L 360.050557 235.173679 
L 360.77172 229.12193 
L 361.492883 215.001181 
L 362.214047 229.12193 
L 362.93521 237.190929 
L 363.656373 212.983931 
L 364.377536 285.604924 
L 365.819862 251.311677 
L 366.541026 239.208179 
L 367.262189 239.208179 
L 367.983352 225.08743 
L 368.704515 255.346177 
L 369.425678 243.242678 
L 370.146841 229.12193 
L 370.868005 243.242678 
L 371.589168 229.12193 
L 372.310331 241.225428 
L 373.031494 229.12193 
L 373.752657 251.311677 
L 374.47382 239.208179 
L 375.194984 233.156429 
L 375.916147 239.208179 
L 376.63731 217.018431 
L 377.358473 245.259928 
L 378.079636 229.12193 
L 378.800799 253.328927 
L 379.521963 229.12193 
L 380.243126 243.242678 
L 380.964289 249.294427 
L 381.685452 243.242678 
L 382.406615 239.208179 
L 383.127778 233.156429 
L 383.848942 239.208179 
L 385.291268 227.10468 
L 386.012431 237.190929 
L 386.733594 231.139179 
L 387.454757 210.966682 
L 388.175921 245.259928 
L 388.897084 227.10468 
L 389.618247 239.208179 
L 390.33941 215.001181 
L 391.060573 247.277178 
L 391.781736 217.018431 
L 392.5029 227.10468 
L 393.224063 215.001181 
L 393.945226 291.656673 
L 394.666389 279.553174 
L 396.108715 239.208179 
L 396.829879 215.001181 
L 397.551042 223.07018 
L 398.272205 223.07018 
L 398.993368 249.294427 
L 399.714531 225.08743 
L 400.435694 204.914932 
L 401.156858 247.277178 
L 401.878021 223.07018 
L 402.599184 227.10468 
L 403.320347 221.05293 
L 404.762673 237.190929 
L 405.483837 249.294427 
L 406.205 241.225428 
L 406.926163 239.208179 
L 407.647326 204.914932 
L 409.089652 267.449676 
L 409.810816 249.294427 
L 410.531979 235.173679 
L 411.253142 235.173679 
L 411.974305 219.035681 
L 412.695468 251.311677 
L 413.416631 229.12193 
L 414.137795 235.173679 
L 414.858958 233.156429 
L 415.580121 225.08743 
L 416.301284 249.294427 
L 417.022447 237.190929 
L 417.74361 233.156429 
L 418.464774 237.190929 
L 419.185937 233.156429 
L 419.9071 225.08743 
L 420.628263 231.139179 
L 421.349426 231.139179 
L 422.070589 237.190929 
L 422.791753 221.05293 
L 423.512916 275.518675 
L 424.234079 257.363427 
L 424.955242 227.10468 
L 425.676405 237.190929 
L 426.397568 233.156429 
L 427.118732 225.08743 
L 428.561058 225.08743 
L 429.282221 221.05293 
L 430.003384 229.12193 
L 430.724547 241.225428 
L 431.445711 223.07018 
L 432.166874 221.05293 
L 432.888037 243.242678 
L 433.6092 223.07018 
L 434.330363 221.05293 
L 435.051526 227.10468 
L 436.493853 231.139179 
L 437.215016 237.190929 
L 437.936179 247.277178 
L 438.657342 277.535925 
L 439.378505 255.346177 
L 440.099669 223.07018 
L 440.820832 243.242678 
L 441.541995 237.190929 
L 442.263158 223.07018 
L 442.984321 245.259928 
L 443.705484 229.12193 
L 444.426648 227.10468 
L 445.147811 227.10468 
L 445.868974 229.12193 
L 446.590137 215.001181 
L 447.3113 225.08743 
L 448.032463 202.897682 
L 448.753627 231.139179 
L 449.47479 223.07018 
L 450.195953 208.949432 
L 450.917116 225.08743 
L 451.638279 229.12193 
L 452.359442 206.932182 
L 453.801769 273.501425 
L 454.522932 253.328927 
L 455.244095 239.208179 
L 455.965258 215.001181 
L 456.686421 241.225428 
L 457.407585 233.156429 
L 458.128748 249.294427 
L 458.849911 243.242678 
L 459.571074 229.12193 
L 460.292237 243.242678 
L 461.0134 239.208179 
L 461.734564 231.139179 
L 462.455727 247.277178 
L 463.17689 239.208179 
L 463.898053 221.05293 
L 464.619216 239.208179 
L 465.340379 235.173679 
L 466.061543 241.225428 
L 466.782706 239.208179 
L 467.503869 219.035681 
L 468.225032 273.501425 
L 468.946195 255.346177 
L 469.667358 241.225428 
L 470.388522 219.035681 
L 471.109685 247.277178 
L 471.830848 229.12193 
L 472.552011 239.208179 
L 473.273174 227.10468 
L 473.994337 227.10468 
L 474.715501 245.259928 
L 475.436664 223.07018 
L 476.157827 212.983931 
L 476.87899 229.12193 
L 477.600153 231.139179 
L 478.321316 243.242678 
L 479.04248 247.277178 
L 479.763643 241.225428 
L 480.484806 231.139179 
L 481.205969 237.190929 
L 481.927132 241.225428 
L 482.648295 253.328927 
L 483.369459 263.415176 
L 484.090622 241.225428 
L 484.811785 229.12193 
L 485.532948 229.12193 
L 486.254111 227.10468 
L 486.975274 247.277178 
L 487.696438 221.05293 
L 488.417601 229.12193 
L 489.138764 235.173679 
L 489.859927 221.05293 
L 490.58109 243.242678 
L 491.302253 229.12193 
L 492.023417 239.208179 
L 492.74458 212.983931 
L 493.465743 247.277178 
L 494.186906 229.12193 
L 494.908069 237.190929 
L 495.629232 239.208179 
L 496.350396 227.10468 
L 497.071559 221.05293 
L 497.792722 269.466925 
L 499.235048 253.328927 
L 499.956211 247.277178 
L 500.677375 243.242678 
L 501.398538 229.12193 
L 502.119701 239.208179 
L 502.119701 239.208179 
" style="fill:none;stroke:#d62728;stroke-linecap:square;stroke-width:1.5;"/>
   </g>
   <g id="patch_3">
    <path d="M 92.823906 352.174167 
L 92.823906 35.0625 
" style="fill:none;stroke:#000000;stroke-linecap:square;stroke-linejoin:miter;stroke-width:0.8;"/>
   </g>
   <g id="patch_4">
    <path d="M 529.912969 352.174167 
L 529.912969 35.0625 
" style="fill:none;stroke:#000000;stroke-linecap:square;stroke-linejoin:miter;stroke-width:0.8;"/>
   </g>
   <g id="patch_5">
    <path d="M 92.823906 352.174167 
L 529.912969 352.174167 
" style="fill:none;stroke:#000000;stroke-linecap:square;stroke-linejoin:miter;stroke-width:0.8;"/>
   </g>
   <g id="patch_6">
    <path d="M 92.823906 35.0625 
L 529.912969 35.0625 
" style="fill:none;stroke:#000000;stroke-linecap:square;stroke-linejoin:miter;stroke-width:0.8;"/>
   </g>
   <g id="legend_1">
    <g id="patch_7">
     <path d="M 553.767422 96.775 
L 624.962734 96.775 
Q 626.962734 96.775 626.962734 94.775 
L 626.962734 37.0625 
Q 626.962734 35.0625 624.962734 35.0625 
L 553.767422 35.0625 
Q 551.767422 35.0625 551.767422 37.0625 
L 551.767422 94.775 
Q 551.767422 96.775 553.767422 96.775 
z
" style="fill:#ffffff;opacity:0.8;stroke:#cccccc;stroke-linejoin:miter;"/>
    </g>
    <g id="line2d_19">
     <path d="M 555.767422 43.160937 
L 575.767422 43.160937 
" style="fill:none;stroke:#1f77b4;stroke-linecap:square;stroke-width:1.5;"/>
    </g>
    <g id="line2d_20"/>
    <g id="text_16">
     <!-- cubic-pi -->
     <defs>
      <path d="M 48.78125 52.59375 
L 48.78125 44.1875 
Q 44.96875 46.296875 41.140625 47.34375 
Q 37.3125 48.390625 33.40625 48.390625 
Q 24.65625 48.390625 19.8125 42.84375 
Q 14.984375 37.3125 14.984375 27.296875 
Q 14.984375 17.28125 19.8125 11.734375 
Q 24.65625 6.203125 33.40625 6.203125 
Q 37.3125 6.203125 41.140625 7.25 
Q 44.96875 8.296875 48.78125 10.40625 
L 48.78125 2.09375 
Q 45.015625 0.34375 40.984375 -0.53125 
Q 36.96875 -1.421875 32.421875 -1.421875 
Q 20.0625 -1.421875 12.78125 6.34375 
Q 5.515625 14.109375 5.515625 27.296875 
Q 5.515625 40.671875 12.859375 48.328125 
Q 20.21875 56 33.015625 56 
Q 37.15625 56 41.109375 55.140625 
Q 45.0625 54.296875 48.78125 52.59375 
z
" id="DejaVuSans-99"/>
      <path d="M 8.5 21.578125 
L 8.5 54.6875 
L 17.484375 54.6875 
L 17.484375 21.921875 
Q 17.484375 14.15625 20.5 10.265625 
Q 23.53125 6.390625 29.59375 6.390625 
Q 36.859375 6.390625 41.078125 11.03125 
Q 45.3125 15.671875 45.3125 23.6875 
L 45.3125 54.6875 
L 54.296875 54.6875 
L 54.296875 0 
L 45.3125 0 
L 45.3125 8.40625 
Q 42.046875 3.421875 37.71875 1 
Q 33.40625 -1.421875 27.6875 -1.421875 
Q 18.265625 -1.421875 13.375 4.4375 
Q 8.5 10.296875 8.5 21.578125 
z
M 31.109375 56 
z
" id="DejaVuSans-117"/>
      <path d="M 48.6875 27.296875 
Q 48.6875 37.203125 44.609375 42.84375 
Q 40.53125 48.484375 33.40625 48.484375 
Q 26.265625 48.484375 22.1875 42.84375 
Q 18.109375 37.203125 18.109375 27.296875 
Q 18.109375 17.390625 22.1875 11.75 
Q 26.265625 6.109375 33.40625 6.109375 
Q 40.53125 6.109375 44.609375 11.75 
Q 48.6875 17.390625 48.6875 27.296875 
z
M 18.109375 46.390625 
Q 20.953125 51.265625 25.265625 53.625 
Q 29.59375 56 35.59375 56 
Q 45.5625 56 51.78125 48.09375 
Q 58.015625 40.1875 58.015625 27.296875 
Q 58.015625 14.40625 51.78125 6.484375 
Q 45.5625 -1.421875 35.59375 -1.421875 
Q 29.59375 -1.421875 25.265625 0.953125 
Q 20.953125 3.328125 18.109375 8.203125 
L 18.109375 0 
L 9.078125 0 
L 9.078125 75.984375 
L 18.109375 75.984375 
z
" id="DejaVuSans-98"/>
      <path d="M 9.421875 54.6875 
L 18.40625 54.6875 
L 18.40625 0 
L 9.421875 0 
z
M 9.421875 75.984375 
L 18.40625 75.984375 
L 18.40625 64.59375 
L 9.421875 64.59375 
z
" id="DejaVuSans-105"/>
      <path d="M 4.890625 31.390625 
L 31.203125 31.390625 
L 31.203125 23.390625 
L 4.890625 23.390625 
z
" id="DejaVuSans-45"/>
      <path d="M 18.109375 8.203125 
L 18.109375 -20.796875 
L 9.078125 -20.796875 
L 9.078125 54.6875 
L 18.109375 54.6875 
L 18.109375 46.390625 
Q 20.953125 51.265625 25.265625 53.625 
Q 29.59375 56 35.59375 56 
Q 45.5625 56 51.78125 48.09375 
Q 58.015625 40.1875 58.015625 27.296875 
Q 58.015625 14.40625 51.78125 6.484375 
Q 45.5625 -1.421875 35.59375 -1.421875 
Q 29.59375 -1.421875 25.265625 0.953125 
Q 20.953125 3.328125 18.109375 8.203125 
z
M 48.6875 27.296875 
Q 48.6875 37.203125 44.609375 42.84375 
Q 40.53125 48.484375 33.40625 48.484375 
Q 26.265625 48.484375 22.1875 42.84375 
Q 18.109375 37.203125 18.109375 27.296875 
Q 18.109375 17.390625 22.1875 11.75 
Q 26.265625 6.109375 33.40625 6.109375 
Q 40.53125 6.109375 44.609375 11.75 
Q 48.6875 17.390625 48.6875 27.296875 
z
" id="DejaVuSans-112"/>
     </defs>
     <g transform="translate(583.767422 46.660937)scale(0.1 -0.1)">
      <use xlink:href="#DejaVuSans-99"/>
      <use x="54.980469" xlink:href="#DejaVuSans-117"/>
      <use x="118.359375" xlink:href="#DejaVuSans-98"/>
      <use x="181.835938" xlink:href="#DejaVuSans-105"/>
      <use x="209.619141" xlink:href="#DejaVuSans-99"/>
      <use x="264.599609" xlink:href="#DejaVuSans-45"/>
      <use x="300.683594" xlink:href="#DejaVuSans-112"/>
      <use x="364.160156" xlink:href="#DejaVuSans-105"/>
     </g>
    </g>
    <g id="line2d_21">
     <path d="M 555.767422 57.839063 
L 575.767422 57.839063 
" style="fill:none;stroke:#ff7f0e;stroke-linecap:square;stroke-width:1.5;"/>
    </g>
    <g id="line2d_22"/>
    <g id="text_17">
     <!-- cubic-pi -->
     <g transform="translate(583.767422 61.339063)scale(0.1 -0.1)">
      <use xlink:href="#DejaVuSans-99"/>
      <use x="54.980469" xlink:href="#DejaVuSans-117"/>
      <use x="118.359375" xlink:href="#DejaVuSans-98"/>
      <use x="181.835938" xlink:href="#DejaVuSans-105"/>
      <use x="209.619141" xlink:href="#DejaVuSans-99"/>
      <use x="264.599609" xlink:href="#DejaVuSans-45"/>
      <use x="300.683594" xlink:href="#DejaVuSans-112"/>
      <use x="364.160156" xlink:href="#DejaVuSans-105"/>
     </g>
    </g>
    <g id="line2d_23">
     <path d="M 555.767422 72.517187 
L 575.767422 72.517187 
" style="fill:none;stroke:#2ca02c;stroke-linecap:square;stroke-width:1.5;"/>
    </g>
    <g id="line2d_24"/>
    <g id="text_18">
     <!-- bbr2-pi -->
     <g transform="translate(583.767422 76.017187)scale(0.1 -0.1)">
      <use xlink:href="#DejaVuSans-98"/>
      <use x="63.476562" xlink:href="#DejaVuSans-98"/>
      <use x="126.953125" xlink:href="#DejaVuSans-114"/>
      <use x="168.066406" xlink:href="#DejaVuSans-50"/>
      <use x="231.689453" xlink:href="#DejaVuSans-45"/>
      <use x="267.773438" xlink:href="#DejaVuSans-112"/>
      <use x="331.25" xlink:href="#DejaVuSans-105"/>
     </g>
    </g>
    <g id="line2d_25">
     <path d="M 555.767422 87.195312 
L 575.767422 87.195312 
" style="fill:none;stroke:#d62728;stroke-linecap:square;stroke-width:1.5;"/>
    </g>
    <g id="line2d_26"/>
    <g id="text_19">
     <!-- bbr2-pi -->
     <g transform="translate(583.767422 90.695312)scale(0.1 -0.1)">
      <use xlink:href="#DejaVuSans-98"/>
      <use x="63.476562" xlink:href="#DejaVuSans-98"/>
      <use x="126.953125" xlink:href="#DejaVuSans-114"/>
      <use x="168.066406" xlink:href="#DejaVuSans-50"/>
      <use x="231.689453" xlink:href="#DejaVuSans-45"/>
      <use x="267.773438" xlink:href="#DejaVuSans-112"/>
      <use x="331.25" xlink:href="#DejaVuSans-105"/>
     </g>
    </g>
   </g>
  </g>
  <g id="text_20">
   <!-- result rtt -->
   <defs>
    <path d="M 56.203125 29.59375 
L 56.203125 25.203125 
L 14.890625 25.203125 
Q 15.484375 15.921875 20.484375 11.0625 
Q 25.484375 6.203125 34.421875 6.203125 
Q 39.59375 6.203125 44.453125 7.46875 
Q 49.3125 8.734375 54.109375 11.28125 
L 54.109375 2.78125 
Q 49.265625 0.734375 44.1875 -0.34375 
Q 39.109375 -1.421875 33.890625 -1.421875 
Q 20.796875 -1.421875 13.15625 6.1875 
Q 5.515625 13.8125 5.515625 26.8125 
Q 5.515625 40.234375 12.765625 48.109375 
Q 20.015625 56 32.328125 56 
Q 43.359375 56 49.78125 48.890625 
Q 56.203125 41.796875 56.203125 29.59375 
z
M 47.21875 32.234375 
Q 47.125 39.59375 43.09375 43.984375 
Q 39.0625 48.390625 32.421875 48.390625 
Q 24.90625 48.390625 20.390625 44.140625 
Q 15.875 39.890625 15.1875 32.171875 
z
" id="DejaVuSans-101"/>
    <path d="M 9.421875 75.984375 
L 18.40625 75.984375 
L 18.40625 0 
L 9.421875 0 
z
" id="DejaVuSans-108"/>
    <path id="DejaVuSans-32"/>
   </defs>
   <g transform="translate(315.818438 17.038125)scale(0.12 -0.12)">
    <use xlink:href="#DejaVuSans-114"/>
    <use x="41.082031" xlink:href="#DejaVuSans-101"/>
    <use x="102.605469" xlink:href="#DejaVuSans-115"/>
    <use x="154.705078" xlink:href="#DejaVuSans-117"/>
    <use x="218.083984" xlink:href="#DejaVuSans-108"/>
    <use x="245.867188" xlink:href="#DejaVuSans-116"/>
    <use x="285.076172" xlink:href="#DejaVuSans-32"/>
    <use x="316.863281" xlink:href="#DejaVuSans-114"/>
    <use x="357.976562" xlink:href="#DejaVuSans-116"/>
    <use x="397.185547" xlink:href="#DejaVuSans-116"/>
   </g>
  </g>
 </g>
 <defs>
  <clipPath id="p5a0627f218">
   <rect height="317.111667" width="437.089062" x="92.823906" y="35.0625"/>
  </clipPath>
 </defs>
</svg>
