<?xml version="1.0" encoding="utf-8" standalone="no"?>
<!DOCTYPE svg PUBLIC "-//W3C//DTD SVG 1.1//EN"
  "http://www.w3.org/Graphics/SVG/1.1/DTD/svg11.dtd">
<!-- Created with matplotlib (https://matplotlib.org/) -->
<svg height="396pt" version="1.1" viewBox="0 0 684 396" width="684pt" xmlns="http://www.w3.org/2000/svg" xmlns:xlink="http://www.w3.org/1999/xlink">
 <defs>
  <style type="text/css">
*{stroke-linecap:butt;stroke-linejoin:round;}
  </style>
 </defs>
 <g id="figure_1">
  <g id="patch_1">
   <path d="M 0 396 
L 684 396 
L 684 0 
L 0 0 
z
" style="fill:#ffffff;"/>
  </g>
  <g id="axes_1">
   <g id="patch_2">
    <path d="M 92.823906 352.174167 
L 529.912969 352.174167 
L 529.912969 35.0625 
L 92.823906 35.0625 
z
" style="fill:#ffffff;"/>
   </g>
   <g id="matplotlib.axis_1">
    <g id="xtick_1">
     <g id="line2d_1">
      <defs>
       <path d="M 0 0 
L 0 3.5 
" id="m0f8b4775cb" style="stroke:#000000;stroke-width:0.8;"/>
      </defs>
      <g>
       <use style="stroke:#000000;stroke-width:0.8;" x="112.671402" xlink:href="#m0f8b4775cb" y="352.174167"/>
      </g>
     </g>
     <g id="text_1">
      <!-- 0 -->
      <defs>
       <path d="M 31.78125 66.40625 
Q 24.171875 66.40625 20.328125 58.90625 
Q 16.5 51.421875 16.5 36.375 
Q 16.5 21.390625 20.328125 13.890625 
Q 24.171875 6.390625 31.78125 6.390625 
Q 39.453125 6.390625 43.28125 13.890625 
Q 47.125 21.390625 47.125 36.375 
Q 47.125 51.421875 43.28125 58.90625 
Q 39.453125 66.40625 31.78125 66.40625 
z
M 31.78125 74.21875 
Q 44.046875 74.21875 50.515625 64.515625 
Q 56.984375 54.828125 56.984375 36.375 
Q 56.984375 17.96875 50.515625 8.265625 
Q 44.046875 -1.421875 31.78125 -1.421875 
Q 19.53125 -1.421875 13.0625 8.265625 
Q 6.59375 17.96875 6.59375 36.375 
Q 6.59375 54.828125 13.0625 64.515625 
Q 19.53125 74.21875 31.78125 74.21875 
z
" id="DejaVuSans-48"/>
      </defs>
      <g transform="translate(109.490152 366.772604)scale(0.1 -0.1)">
       <use xlink:href="#DejaVuSans-48"/>
      </g>
     </g>
    </g>
    <g id="xtick_2">
     <g id="line2d_2">
      <g>
       <use style="stroke:#000000;stroke-width:0.8;" x="184.775417" xlink:href="#m0f8b4775cb" y="352.174167"/>
      </g>
     </g>
     <g id="text_2">
      <!-- 50 -->
      <defs>
       <path d="M 10.796875 72.90625 
L 49.515625 72.90625 
L 49.515625 64.59375 
L 19.828125 64.59375 
L 19.828125 46.734375 
Q 21.96875 47.46875 24.109375 47.828125 
Q 26.265625 48.1875 28.421875 48.1875 
Q 40.625 48.1875 47.75 41.5 
Q 54.890625 34.8125 54.890625 23.390625 
Q 54.890625 11.625 47.5625 5.09375 
Q 40.234375 -1.421875 26.90625 -1.421875 
Q 22.3125 -1.421875 17.546875 -0.640625 
Q 12.796875 0.140625 7.71875 1.703125 
L 7.71875 11.625 
Q 12.109375 9.234375 16.796875 8.0625 
Q 21.484375 6.890625 26.703125 6.890625 
Q 35.15625 6.890625 40.078125 11.328125 
Q 45.015625 15.765625 45.015625 23.390625 
Q 45.015625 31 40.078125 35.4375 
Q 35.15625 39.890625 26.703125 39.890625 
Q 22.75 39.890625 18.8125 39.015625 
Q 14.890625 38.140625 10.796875 36.28125 
z
" id="DejaVuSans-53"/>
      </defs>
      <g transform="translate(178.412917 366.772604)scale(0.1 -0.1)">
       <use xlink:href="#DejaVuSans-53"/>
       <use x="63.623047" xlink:href="#DejaVuSans-48"/>
      </g>
     </g>
    </g>
    <g id="xtick_3">
     <g id="line2d_3">
      <g>
       <use style="stroke:#000000;stroke-width:0.8;" x="256.879433" xlink:href="#m0f8b4775cb" y="352.174167"/>
      </g>
     </g>
     <g id="text_3">
      <!-- 100 -->
      <defs>
       <path d="M 12.40625 8.296875 
L 28.515625 8.296875 
L 28.515625 63.921875 
L 10.984375 60.40625 
L 10.984375 69.390625 
L 28.421875 72.90625 
L 38.28125 72.90625 
L 38.28125 8.296875 
L 54.390625 8.296875 
L 54.390625 0 
L 12.40625 0 
z
" id="DejaVuSans-49"/>
      </defs>
      <g transform="translate(247.335683 366.772604)scale(0.1 -0.1)">
       <use xlink:href="#DejaVuSans-49"/>
       <use x="63.623047" xlink:href="#DejaVuSans-48"/>
       <use x="127.246094" xlink:href="#DejaVuSans-48"/>
      </g>
     </g>
    </g>
    <g id="xtick_4">
     <g id="line2d_4">
      <g>
       <use style="stroke:#000000;stroke-width:0.8;" x="328.983449" xlink:href="#m0f8b4775cb" y="352.174167"/>
      </g>
     </g>
     <g id="text_4">
      <!-- 150 -->
      <g transform="translate(319.439699 366.772604)scale(0.1 -0.1)">
       <use xlink:href="#DejaVuSans-49"/>
       <use x="63.623047" xlink:href="#DejaVuSans-53"/>
       <use x="127.246094" xlink:href="#DejaVuSans-48"/>
      </g>
     </g>
    </g>
    <g id="xtick_5">
     <g id="line2d_5">
      <g>
       <use style="stroke:#000000;stroke-width:0.8;" x="401.087464" xlink:href="#m0f8b4775cb" y="352.174167"/>
      </g>
     </g>
     <g id="text_5">
      <!-- 200 -->
      <defs>
       <path d="M 19.1875 8.296875 
L 53.609375 8.296875 
L 53.609375 0 
L 7.328125 0 
L 7.328125 8.296875 
Q 12.9375 14.109375 22.625 23.890625 
Q 32.328125 33.6875 34.8125 36.53125 
Q 39.546875 41.84375 41.421875 45.53125 
Q 43.3125 49.21875 43.3125 52.78125 
Q 43.3125 58.59375 39.234375 62.25 
Q 35.15625 65.921875 28.609375 65.921875 
Q 23.96875 65.921875 18.8125 64.3125 
Q 13.671875 62.703125 7.8125 59.421875 
L 7.8125 69.390625 
Q 13.765625 71.78125 18.9375 73 
Q 24.125 74.21875 28.421875 74.21875 
Q 39.75 74.21875 46.484375 68.546875 
Q 53.21875 62.890625 53.21875 53.421875 
Q 53.21875 48.921875 51.53125 44.890625 
Q 49.859375 40.875 45.40625 35.40625 
Q 44.1875 33.984375 37.640625 27.21875 
Q 31.109375 20.453125 19.1875 8.296875 
z
" id="DejaVuSans-50"/>
      </defs>
      <g transform="translate(391.543714 366.772604)scale(0.1 -0.1)">
       <use xlink:href="#DejaVuSans-50"/>
       <use x="63.623047" xlink:href="#DejaVuSans-48"/>
       <use x="127.246094" xlink:href="#DejaVuSans-48"/>
      </g>
     </g>
    </g>
    <g id="xtick_6">
     <g id="line2d_6">
      <g>
       <use style="stroke:#000000;stroke-width:0.8;" x="473.19148" xlink:href="#m0f8b4775cb" y="352.174167"/>
      </g>
     </g>
     <g id="text_6">
      <!-- 250 -->
      <g transform="translate(463.64773 366.772604)scale(0.1 -0.1)">
       <use xlink:href="#DejaVuSans-50"/>
       <use x="63.623047" xlink:href="#DejaVuSans-53"/>
       <use x="127.246094" xlink:href="#DejaVuSans-48"/>
      </g>
     </g>
    </g>
   </g>
   <g id="matplotlib.axis_2">
    <g id="ytick_1">
     <g id="line2d_7">
      <defs>
       <path d="M 0 0 
L -3.5 0 
" id="mb9b41d42b4" style="stroke:#000000;stroke-width:0.8;"/>
      </defs>
      <g>
       <use style="stroke:#000000;stroke-width:0.8;" x="92.823906" xlink:href="#mb9b41d42b4" y="352.174167"/>
      </g>
     </g>
     <g id="text_7">
      <!-- 0 -->
      <g transform="translate(79.461406 355.973385)scale(0.1 -0.1)">
       <use xlink:href="#DejaVuSans-48"/>
      </g>
     </g>
    </g>
    <g id="ytick_2">
     <g id="line2d_8">
      <g>
       <use style="stroke:#000000;stroke-width:0.8;" x="92.823906" xlink:href="#mb9b41d42b4" y="300.985843"/>
      </g>
     </g>
     <g id="text_8">
      <!-- 20 -->
      <g transform="translate(73.098906 304.785061)scale(0.1 -0.1)">
       <use xlink:href="#DejaVuSans-50"/>
       <use x="63.623047" xlink:href="#DejaVuSans-48"/>
      </g>
     </g>
    </g>
    <g id="ytick_3">
     <g id="line2d_9">
      <g>
       <use style="stroke:#000000;stroke-width:0.8;" x="92.823906" xlink:href="#mb9b41d42b4" y="249.797519"/>
      </g>
     </g>
     <g id="text_9">
      <!-- 40 -->
      <defs>
       <path d="M 37.796875 64.3125 
L 12.890625 25.390625 
L 37.796875 25.390625 
z
M 35.203125 72.90625 
L 47.609375 72.90625 
L 47.609375 25.390625 
L 58.015625 25.390625 
L 58.015625 17.1875 
L 47.609375 17.1875 
L 47.609375 0 
L 37.796875 0 
L 37.796875 17.1875 
L 4.890625 17.1875 
L 4.890625 26.703125 
z
" id="DejaVuSans-52"/>
      </defs>
      <g transform="translate(73.098906 253.596738)scale(0.1 -0.1)">
       <use xlink:href="#DejaVuSans-52"/>
       <use x="63.623047" xlink:href="#DejaVuSans-48"/>
      </g>
     </g>
    </g>
    <g id="ytick_4">
     <g id="line2d_10">
      <g>
       <use style="stroke:#000000;stroke-width:0.8;" x="92.823906" xlink:href="#mb9b41d42b4" y="198.609195"/>
      </g>
     </g>
     <g id="text_10">
      <!-- 60 -->
      <defs>
       <path d="M 33.015625 40.375 
Q 26.375 40.375 22.484375 35.828125 
Q 18.609375 31.296875 18.609375 23.390625 
Q 18.609375 15.53125 22.484375 10.953125 
Q 26.375 6.390625 33.015625 6.390625 
Q 39.65625 6.390625 43.53125 10.953125 
Q 47.40625 15.53125 47.40625 23.390625 
Q 47.40625 31.296875 43.53125 35.828125 
Q 39.65625 40.375 33.015625 40.375 
z
M 52.59375 71.296875 
L 52.59375 62.3125 
Q 48.875 64.0625 45.09375 64.984375 
Q 41.3125 65.921875 37.59375 65.921875 
Q 27.828125 65.921875 22.671875 59.328125 
Q 17.53125 52.734375 16.796875 39.40625 
Q 19.671875 43.65625 24.015625 45.921875 
Q 28.375 48.1875 33.59375 48.1875 
Q 44.578125 48.1875 50.953125 41.515625 
Q 57.328125 34.859375 57.328125 23.390625 
Q 57.328125 12.15625 50.6875 5.359375 
Q 44.046875 -1.421875 33.015625 -1.421875 
Q 20.359375 -1.421875 13.671875 8.265625 
Q 6.984375 17.96875 6.984375 36.375 
Q 6.984375 53.65625 15.1875 63.9375 
Q 23.390625 74.21875 37.203125 74.21875 
Q 40.921875 74.21875 44.703125 73.484375 
Q 48.484375 72.75 52.59375 71.296875 
z
" id="DejaVuSans-54"/>
      </defs>
      <g transform="translate(73.098906 202.408414)scale(0.1 -0.1)">
       <use xlink:href="#DejaVuSans-54"/>
       <use x="63.623047" xlink:href="#DejaVuSans-48"/>
      </g>
     </g>
    </g>
    <g id="ytick_5">
     <g id="line2d_11">
      <g>
       <use style="stroke:#000000;stroke-width:0.8;" x="92.823906" xlink:href="#mb9b41d42b4" y="147.420871"/>
      </g>
     </g>
     <g id="text_11">
      <!-- 80 -->
      <defs>
       <path d="M 31.78125 34.625 
Q 24.75 34.625 20.71875 30.859375 
Q 16.703125 27.09375 16.703125 20.515625 
Q 16.703125 13.921875 20.71875 10.15625 
Q 24.75 6.390625 31.78125 6.390625 
Q 38.8125 6.390625 42.859375 10.171875 
Q 46.921875 13.96875 46.921875 20.515625 
Q 46.921875 27.09375 42.890625 30.859375 
Q 38.875 34.625 31.78125 34.625 
z
M 21.921875 38.8125 
Q 15.578125 40.375 12.03125 44.71875 
Q 8.5 49.078125 8.5 55.328125 
Q 8.5 64.0625 14.71875 69.140625 
Q 20.953125 74.21875 31.78125 74.21875 
Q 42.671875 74.21875 48.875 69.140625 
Q 55.078125 64.0625 55.078125 55.328125 
Q 55.078125 49.078125 51.53125 44.71875 
Q 48 40.375 41.703125 38.8125 
Q 48.828125 37.15625 52.796875 32.3125 
Q 56.78125 27.484375 56.78125 20.515625 
Q 56.78125 9.90625 50.3125 4.234375 
Q 43.84375 -1.421875 31.78125 -1.421875 
Q 19.734375 -1.421875 13.25 4.234375 
Q 6.78125 9.90625 6.78125 20.515625 
Q 6.78125 27.484375 10.78125 32.3125 
Q 14.796875 37.15625 21.921875 38.8125 
z
M 18.3125 54.390625 
Q 18.3125 48.734375 21.84375 45.5625 
Q 25.390625 42.390625 31.78125 42.390625 
Q 38.140625 42.390625 41.71875 45.5625 
Q 45.3125 48.734375 45.3125 54.390625 
Q 45.3125 60.0625 41.71875 63.234375 
Q 38.140625 66.40625 31.78125 66.40625 
Q 25.390625 66.40625 21.84375 63.234375 
Q 18.3125 60.0625 18.3125 54.390625 
z
" id="DejaVuSans-56"/>
      </defs>
      <g transform="translate(73.098906 151.22009)scale(0.1 -0.1)">
       <use xlink:href="#DejaVuSans-56"/>
       <use x="63.623047" xlink:href="#DejaVuSans-48"/>
      </g>
     </g>
    </g>
    <g id="ytick_6">
     <g id="line2d_12">
      <g>
       <use style="stroke:#000000;stroke-width:0.8;" x="92.823906" xlink:href="#mb9b41d42b4" y="96.232547"/>
      </g>
     </g>
     <g id="text_12">
      <!-- 100 -->
      <g transform="translate(66.736406 100.031766)scale(0.1 -0.1)">
       <use xlink:href="#DejaVuSans-49"/>
       <use x="63.623047" xlink:href="#DejaVuSans-48"/>
       <use x="127.246094" xlink:href="#DejaVuSans-48"/>
      </g>
     </g>
    </g>
    <g id="ytick_7">
     <g id="line2d_13">
      <g>
       <use style="stroke:#000000;stroke-width:0.8;" x="92.823906" xlink:href="#mb9b41d42b4" y="45.044223"/>
      </g>
     </g>
     <g id="text_13">
      <!-- 120 -->
      <g transform="translate(66.736406 48.843442)scale(0.1 -0.1)">
       <use xlink:href="#DejaVuSans-49"/>
       <use x="63.623047" xlink:href="#DejaVuSans-50"/>
       <use x="127.246094" xlink:href="#DejaVuSans-48"/>
      </g>
     </g>
    </g>
    <g id="text_14">
     <!-- throughput -->
     <defs>
      <path d="M 18.3125 70.21875 
L 18.3125 54.6875 
L 36.8125 54.6875 
L 36.8125 47.703125 
L 18.3125 47.703125 
L 18.3125 18.015625 
Q 18.3125 11.328125 20.140625 9.421875 
Q 21.96875 7.515625 27.59375 7.515625 
L 36.8125 7.515625 
L 36.8125 0 
L 27.59375 0 
Q 17.1875 0 13.234375 3.875 
Q 9.28125 7.765625 9.28125 18.015625 
L 9.28125 47.703125 
L 2.6875 47.703125 
L 2.6875 54.6875 
L 9.28125 54.6875 
L 9.28125 70.21875 
z
" id="DejaVuSans-116"/>
      <path d="M 54.890625 33.015625 
L 54.890625 0 
L 45.90625 0 
L 45.90625 32.71875 
Q 45.90625 40.484375 42.875 44.328125 
Q 39.84375 48.1875 33.796875 48.1875 
Q 26.515625 48.1875 22.3125 43.546875 
Q 18.109375 38.921875 18.109375 30.90625 
L 18.109375 0 
L 9.078125 0 
L 9.078125 75.984375 
L 18.109375 75.984375 
L 18.109375 46.1875 
Q 21.34375 51.125 25.703125 53.5625 
Q 30.078125 56 35.796875 56 
Q 45.21875 56 50.046875 50.171875 
Q 54.890625 44.34375 54.890625 33.015625 
z
" id="DejaVuSans-104"/>
      <path d="M 41.109375 46.296875 
Q 39.59375 47.171875 37.8125 47.578125 
Q 36.03125 48 33.890625 48 
Q 26.265625 48 22.1875 43.046875 
Q 18.109375 38.09375 18.109375 28.8125 
L 18.109375 0 
L 9.078125 0 
L 9.078125 54.6875 
L 18.109375 54.6875 
L 18.109375 46.1875 
Q 20.953125 51.171875 25.484375 53.578125 
Q 30.03125 56 36.53125 56 
Q 37.453125 56 38.578125 55.875 
Q 39.703125 55.765625 41.0625 55.515625 
z
" id="DejaVuSans-114"/>
      <path d="M 30.609375 48.390625 
Q 23.390625 48.390625 19.1875 42.75 
Q 14.984375 37.109375 14.984375 27.296875 
Q 14.984375 17.484375 19.15625 11.84375 
Q 23.34375 6.203125 30.609375 6.203125 
Q 37.796875 6.203125 41.984375 11.859375 
Q 46.1875 17.53125 46.1875 27.296875 
Q 46.1875 37.015625 41.984375 42.703125 
Q 37.796875 48.390625 30.609375 48.390625 
z
M 30.609375 56 
Q 42.328125 56 49.015625 48.375 
Q 55.71875 40.765625 55.71875 27.296875 
Q 55.71875 13.875 49.015625 6.21875 
Q 42.328125 -1.421875 30.609375 -1.421875 
Q 18.84375 -1.421875 12.171875 6.21875 
Q 5.515625 13.875 5.515625 27.296875 
Q 5.515625 40.765625 12.171875 48.375 
Q 18.84375 56 30.609375 56 
z
" id="DejaVuSans-111"/>
      <path d="M 8.5 21.578125 
L 8.5 54.6875 
L 17.484375 54.6875 
L 17.484375 21.921875 
Q 17.484375 14.15625 20.5 10.265625 
Q 23.53125 6.390625 29.59375 6.390625 
Q 36.859375 6.390625 41.078125 11.03125 
Q 45.3125 15.671875 45.3125 23.6875 
L 45.3125 54.6875 
L 54.296875 54.6875 
L 54.296875 0 
L 45.3125 0 
L 45.3125 8.40625 
Q 42.046875 3.421875 37.71875 1 
Q 33.40625 -1.421875 27.6875 -1.421875 
Q 18.265625 -1.421875 13.375 4.4375 
Q 8.5 10.296875 8.5 21.578125 
z
M 31.109375 56 
z
" id="DejaVuSans-117"/>
      <path d="M 45.40625 27.984375 
Q 45.40625 37.75 41.375 43.109375 
Q 37.359375 48.484375 30.078125 48.484375 
Q 22.859375 48.484375 18.828125 43.109375 
Q 14.796875 37.75 14.796875 27.984375 
Q 14.796875 18.265625 18.828125 12.890625 
Q 22.859375 7.515625 30.078125 7.515625 
Q 37.359375 7.515625 41.375 12.890625 
Q 45.40625 18.265625 45.40625 27.984375 
z
M 54.390625 6.78125 
Q 54.390625 -7.171875 48.1875 -13.984375 
Q 42 -20.796875 29.203125 -20.796875 
Q 24.46875 -20.796875 20.265625 -20.09375 
Q 16.0625 -19.390625 12.109375 -17.921875 
L 12.109375 -9.1875 
Q 16.0625 -11.328125 19.921875 -12.34375 
Q 23.78125 -13.375 27.78125 -13.375 
Q 36.625 -13.375 41.015625 -8.765625 
Q 45.40625 -4.15625 45.40625 5.171875 
L 45.40625 9.625 
Q 42.625 4.78125 38.28125 2.390625 
Q 33.9375 0 27.875 0 
Q 17.828125 0 11.671875 7.65625 
Q 5.515625 15.328125 5.515625 27.984375 
Q 5.515625 40.671875 11.671875 48.328125 
Q 17.828125 56 27.875 56 
Q 33.9375 56 38.28125 53.609375 
Q 42.625 51.21875 45.40625 46.390625 
L 45.40625 54.6875 
L 54.390625 54.6875 
z
" id="DejaVuSans-103"/>
      <path d="M 18.109375 8.203125 
L 18.109375 -20.796875 
L 9.078125 -20.796875 
L 9.078125 54.6875 
L 18.109375 54.6875 
L 18.109375 46.390625 
Q 20.953125 51.265625 25.265625 53.625 
Q 29.59375 56 35.59375 56 
Q 45.5625 56 51.78125 48.09375 
Q 58.015625 40.1875 58.015625 27.296875 
Q 58.015625 14.40625 51.78125 6.484375 
Q 45.5625 -1.421875 35.59375 -1.421875 
Q 29.59375 -1.421875 25.265625 0.953125 
Q 20.953125 3.328125 18.109375 8.203125 
z
M 48.6875 27.296875 
Q 48.6875 37.203125 44.609375 42.84375 
Q 40.53125 48.484375 33.40625 48.484375 
Q 26.265625 48.484375 22.1875 42.84375 
Q 18.109375 37.203125 18.109375 27.296875 
Q 18.109375 17.390625 22.1875 11.75 
Q 26.265625 6.109375 33.40625 6.109375 
Q 40.53125 6.109375 44.609375 11.75 
Q 48.6875 17.390625 48.6875 27.296875 
z
" id="DejaVuSans-112"/>
     </defs>
     <g transform="translate(49.458906 221.675365)rotate(-90)scale(0.1 -0.1)">
      <use xlink:href="#DejaVuSans-116"/>
      <use x="39.208984" xlink:href="#DejaVuSans-104"/>
      <use x="102.587891" xlink:href="#DejaVuSans-114"/>
      <use x="143.669922" xlink:href="#DejaVuSans-111"/>
      <use x="204.851562" xlink:href="#DejaVuSans-117"/>
      <use x="268.230469" xlink:href="#DejaVuSans-103"/>
      <use x="331.707031" xlink:href="#DejaVuSans-104"/>
      <use x="395.085938" xlink:href="#DejaVuSans-112"/>
      <use x="458.5625" xlink:href="#DejaVuSans-117"/>
      <use x="521.941406" xlink:href="#DejaVuSans-116"/>
     </g>
     <!-- (mbit / second) -->
     <defs>
      <path d="M 31 75.875 
Q 24.46875 64.65625 21.28125 53.65625 
Q 18.109375 42.671875 18.109375 31.390625 
Q 18.109375 20.125 21.3125 9.0625 
Q 24.515625 -2 31 -13.1875 
L 23.1875 -13.1875 
Q 15.875 -1.703125 12.234375 9.375 
Q 8.59375 20.453125 8.59375 31.390625 
Q 8.59375 42.28125 12.203125 53.3125 
Q 15.828125 64.359375 23.1875 75.875 
z
" id="DejaVuSans-40"/>
      <path d="M 52 44.1875 
Q 55.375 50.25 60.0625 53.125 
Q 64.75 56 71.09375 56 
Q 79.640625 56 84.28125 50.015625 
Q 88.921875 44.046875 88.921875 33.015625 
L 88.921875 0 
L 79.890625 0 
L 79.890625 32.71875 
Q 79.890625 40.578125 77.09375 44.375 
Q 74.3125 48.1875 68.609375 48.1875 
Q 61.625 48.1875 57.5625 43.546875 
Q 53.515625 38.921875 53.515625 30.90625 
L 53.515625 0 
L 44.484375 0 
L 44.484375 32.71875 
Q 44.484375 40.625 41.703125 44.40625 
Q 38.921875 48.1875 33.109375 48.1875 
Q 26.21875 48.1875 22.15625 43.53125 
Q 18.109375 38.875 18.109375 30.90625 
L 18.109375 0 
L 9.078125 0 
L 9.078125 54.6875 
L 18.109375 54.6875 
L 18.109375 46.1875 
Q 21.1875 51.21875 25.484375 53.609375 
Q 29.78125 56 35.6875 56 
Q 41.65625 56 45.828125 52.96875 
Q 50 49.953125 52 44.1875 
z
" id="DejaVuSans-109"/>
      <path d="M 48.6875 27.296875 
Q 48.6875 37.203125 44.609375 42.84375 
Q 40.53125 48.484375 33.40625 48.484375 
Q 26.265625 48.484375 22.1875 42.84375 
Q 18.109375 37.203125 18.109375 27.296875 
Q 18.109375 17.390625 22.1875 11.75 
Q 26.265625 6.109375 33.40625 6.109375 
Q 40.53125 6.109375 44.609375 11.75 
Q 48.6875 17.390625 48.6875 27.296875 
z
M 18.109375 46.390625 
Q 20.953125 51.265625 25.265625 53.625 
Q 29.59375 56 35.59375 56 
Q 45.5625 56 51.78125 48.09375 
Q 58.015625 40.1875 58.015625 27.296875 
Q 58.015625 14.40625 51.78125 6.484375 
Q 45.5625 -1.421875 35.59375 -1.421875 
Q 29.59375 -1.421875 25.265625 0.953125 
Q 20.953125 3.328125 18.109375 8.203125 
L 18.109375 0 
L 9.078125 0 
L 9.078125 75.984375 
L 18.109375 75.984375 
z
" id="DejaVuSans-98"/>
      <path d="M 9.421875 54.6875 
L 18.40625 54.6875 
L 18.40625 0 
L 9.421875 0 
z
M 9.421875 75.984375 
L 18.40625 75.984375 
L 18.40625 64.59375 
L 9.421875 64.59375 
z
" id="DejaVuSans-105"/>
      <path id="DejaVuSans-32"/>
      <path d="M 25.390625 72.90625 
L 33.6875 72.90625 
L 8.296875 -9.28125 
L 0 -9.28125 
z
" id="DejaVuSans-47"/>
      <path d="M 44.28125 53.078125 
L 44.28125 44.578125 
Q 40.484375 46.53125 36.375 47.5 
Q 32.28125 48.484375 27.875 48.484375 
Q 21.1875 48.484375 17.84375 46.4375 
Q 14.5 44.390625 14.5 40.28125 
Q 14.5 37.15625 16.890625 35.375 
Q 19.28125 33.59375 26.515625 31.984375 
L 29.59375 31.296875 
Q 39.15625 29.25 43.1875 25.515625 
Q 47.21875 21.78125 47.21875 15.09375 
Q 47.21875 7.46875 41.1875 3.015625 
Q 35.15625 -1.421875 24.609375 -1.421875 
Q 20.21875 -1.421875 15.453125 -0.5625 
Q 10.6875 0.296875 5.421875 2 
L 5.421875 11.28125 
Q 10.40625 8.6875 15.234375 7.390625 
Q 20.0625 6.109375 24.8125 6.109375 
Q 31.15625 6.109375 34.5625 8.28125 
Q 37.984375 10.453125 37.984375 14.40625 
Q 37.984375 18.0625 35.515625 20.015625 
Q 33.0625 21.96875 24.703125 23.78125 
L 21.578125 24.515625 
Q 13.234375 26.265625 9.515625 29.90625 
Q 5.8125 33.546875 5.8125 39.890625 
Q 5.8125 47.609375 11.28125 51.796875 
Q 16.75 56 26.8125 56 
Q 31.78125 56 36.171875 55.265625 
Q 40.578125 54.546875 44.28125 53.078125 
z
" id="DejaVuSans-115"/>
      <path d="M 56.203125 29.59375 
L 56.203125 25.203125 
L 14.890625 25.203125 
Q 15.484375 15.921875 20.484375 11.0625 
Q 25.484375 6.203125 34.421875 6.203125 
Q 39.59375 6.203125 44.453125 7.46875 
Q 49.3125 8.734375 54.109375 11.28125 
L 54.109375 2.78125 
Q 49.265625 0.734375 44.1875 -0.34375 
Q 39.109375 -1.421875 33.890625 -1.421875 
Q 20.796875 -1.421875 13.15625 6.1875 
Q 5.515625 13.8125 5.515625 26.8125 
Q 5.515625 40.234375 12.765625 48.109375 
Q 20.015625 56 32.328125 56 
Q 43.359375 56 49.78125 48.890625 
Q 56.203125 41.796875 56.203125 29.59375 
z
M 47.21875 32.234375 
Q 47.125 39.59375 43.09375 43.984375 
Q 39.0625 48.390625 32.421875 48.390625 
Q 24.90625 48.390625 20.390625 44.140625 
Q 15.875 39.890625 15.1875 32.171875 
z
" id="DejaVuSans-101"/>
      <path d="M 48.78125 52.59375 
L 48.78125 44.1875 
Q 44.96875 46.296875 41.140625 47.34375 
Q 37.3125 48.390625 33.40625 48.390625 
Q 24.65625 48.390625 19.8125 42.84375 
Q 14.984375 37.3125 14.984375 27.296875 
Q 14.984375 17.28125 19.8125 11.734375 
Q 24.65625 6.203125 33.40625 6.203125 
Q 37.3125 6.203125 41.140625 7.25 
Q 44.96875 8.296875 48.78125 10.40625 
L 48.78125 2.09375 
Q 45.015625 0.34375 40.984375 -0.53125 
Q 36.96875 -1.421875 32.421875 -1.421875 
Q 20.0625 -1.421875 12.78125 6.34375 
Q 5.515625 14.109375 5.515625 27.296875 
Q 5.515625 40.671875 12.859375 48.328125 
Q 20.21875 56 33.015625 56 
Q 37.15625 56 41.109375 55.140625 
Q 45.0625 54.296875 48.78125 52.59375 
z
" id="DejaVuSans-99"/>
      <path d="M 54.890625 33.015625 
L 54.890625 0 
L 45.90625 0 
L 45.90625 32.71875 
Q 45.90625 40.484375 42.875 44.328125 
Q 39.84375 48.1875 33.796875 48.1875 
Q 26.515625 48.1875 22.3125 43.546875 
Q 18.109375 38.921875 18.109375 30.90625 
L 18.109375 0 
L 9.078125 0 
L 9.078125 54.6875 
L 18.109375 54.6875 
L 18.109375 46.1875 
Q 21.34375 51.125 25.703125 53.5625 
Q 30.078125 56 35.796875 56 
Q 45.21875 56 50.046875 50.171875 
Q 54.890625 44.34375 54.890625 33.015625 
z
" id="DejaVuSans-110"/>
      <path d="M 45.40625 46.390625 
L 45.40625 75.984375 
L 54.390625 75.984375 
L 54.390625 0 
L 45.40625 0 
L 45.40625 8.203125 
Q 42.578125 3.328125 38.25 0.953125 
Q 33.9375 -1.421875 27.875 -1.421875 
Q 17.96875 -1.421875 11.734375 6.484375 
Q 5.515625 14.40625 5.515625 27.296875 
Q 5.515625 40.1875 11.734375 48.09375 
Q 17.96875 56 27.875 56 
Q 33.9375 56 38.25 53.625 
Q 42.578125 51.265625 45.40625 46.390625 
z
M 14.796875 27.296875 
Q 14.796875 17.390625 18.875 11.75 
Q 22.953125 6.109375 30.078125 6.109375 
Q 37.203125 6.109375 41.296875 11.75 
Q 45.40625 17.390625 45.40625 27.296875 
Q 45.40625 37.203125 41.296875 42.84375 
Q 37.203125 48.484375 30.078125 48.484375 
Q 22.953125 48.484375 18.875 42.84375 
Q 14.796875 37.203125 14.796875 27.296875 
z
" id="DejaVuSans-100"/>
      <path d="M 8.015625 75.875 
L 15.828125 75.875 
Q 23.140625 64.359375 26.78125 53.3125 
Q 30.421875 42.28125 30.421875 31.390625 
Q 30.421875 20.453125 26.78125 9.375 
Q 23.140625 -1.703125 15.828125 -13.1875 
L 8.015625 -13.1875 
Q 14.5 -2 17.703125 9.0625 
Q 20.90625 20.125 20.90625 31.390625 
Q 20.90625 42.671875 17.703125 53.65625 
Q 14.5 64.65625 8.015625 75.875 
z
" id="DejaVuSans-41"/>
     </defs>
     <g transform="translate(60.656719 231.608958)rotate(-90)scale(0.1 -0.1)">
      <use xlink:href="#DejaVuSans-40"/>
      <use x="39.013672" xlink:href="#DejaVuSans-109"/>
      <use x="136.425781" xlink:href="#DejaVuSans-98"/>
      <use x="199.902344" xlink:href="#DejaVuSans-105"/>
      <use x="227.685547" xlink:href="#DejaVuSans-116"/>
      <use x="266.894531" xlink:href="#DejaVuSans-32"/>
      <use x="298.681641" xlink:href="#DejaVuSans-47"/>
      <use x="332.373047" xlink:href="#DejaVuSans-32"/>
      <use x="364.160156" xlink:href="#DejaVuSans-115"/>
      <use x="416.259766" xlink:href="#DejaVuSans-101"/>
      <use x="477.783203" xlink:href="#DejaVuSans-99"/>
      <use x="532.763672" xlink:href="#DejaVuSans-111"/>
      <use x="593.945312" xlink:href="#DejaVuSans-110"/>
      <use x="657.324219" xlink:href="#DejaVuSans-100"/>
      <use x="720.800781" xlink:href="#DejaVuSans-41"/>
     </g>
    </g>
   </g>
   <g id="line2d_14">
    <path clip-path="url(#p921683ae84)" d="M 118.471449 331.698837 
L 119.192489 344.495918 
L 120.634569 344.495918 
L 121.355609 349.61475 
L 122.07665 352.174167 
L 125.68185 352.174167 
L 126.402891 349.61475 
L 127.123931 349.61475 
L 127.844971 352.174167 
L 129.287051 352.174167 
L 130.008091 349.61475 
L 131.450172 349.61475 
L 132.171212 352.174167 
L 133.613292 352.174167 
L 134.334332 349.61475 
L 135.776413 349.61475 
L 136.497453 352.174167 
L 144.428894 352.174167 
L 145.149935 349.61475 
L 145.870975 352.174167 
L 153.081376 352.174167 
L 153.802416 349.61475 
L 154.523457 352.174167 
L 156.686577 352.174167 
L 157.407617 349.61475 
L 158.128657 349.61475 
L 158.849698 347.055334 
L 159.570738 341.936502 
L 160.291778 339.377086 
L 161.012818 341.936502 
L 161.733858 341.936502 
L 163.175938 352.174167 
L 164.618019 352.174167 
L 165.339059 349.61475 
L 166.060099 349.61475 
L 166.781139 352.174167 
L 168.22322 352.174167 
L 168.94426 349.61475 
L 169.6653 352.174167 
L 171.10738 352.174167 
L 171.82842 349.61475 
L 172.54946 349.61475 
L 173.270501 352.174167 
L 173.991541 347.055334 
L 174.712581 334.258253 
L 175.433621 339.377086 
L 176.154661 341.936502 
L 176.875701 347.055334 
L 177.596742 347.055334 
L 179.038822 352.174167 
L 189.133384 352.174167 
L 189.854424 349.61475 
L 192.017545 349.61475 
L 192.738585 352.174167 
L 204.275227 352.174167 
L 204.996267 349.61475 
L 206.438348 349.61475 
L 207.159388 352.174167 
L 221.580191 352.174167 
L 222.301231 349.61475 
L 223.022271 352.174167 
L 232.395793 352.174167 
L 233.116834 349.61475 
L 233.837874 341.936502 
L 234.558914 341.936502 
L 235.279954 349.61475 
L 236.000994 349.61475 
L 236.722034 352.174167 
L 237.443074 352.174167 
L 238.164115 349.61475 
L 238.885155 349.61475 
L 239.606195 352.174167 
L 248.258677 352.174167 
L 248.979717 347.055334 
L 250.421797 352.174167 
L 251.142837 352.174167 
L 251.863878 349.61475 
L 252.584918 349.61475 
L 253.305958 352.174167 
L 254.748038 352.174167 
L 255.469078 349.61475 
L 258.353239 349.61475 
L 259.074279 352.174167 
L 259.795319 349.61475 
L 260.516359 352.174167 
L 261.95844 352.174167 
L 262.67948 349.61475 
L 263.40052 349.61475 
L 264.12156 344.495918 
L 264.8426 349.61475 
L 268.447801 349.61475 
L 269.168841 352.174167 
L 269.889882 352.174167 
L 270.610922 347.055334 
L 271.331962 349.61475 
L 277.100283 349.61475 
L 277.821323 352.174167 
L 278.542363 349.61475 
L 279.263404 349.61475 
L 279.984444 352.174167 
L 282.147564 352.174167 
L 282.868604 349.61475 
L 283.589644 352.174167 
L 285.752765 352.174167 
L 286.473805 349.61475 
L 287.194845 352.174167 
L 292.963166 352.174167 
L 293.684207 349.61475 
L 294.405247 352.174167 
L 307.38397 352.174167 
L 308.10501 349.61475 
L 308.82605 349.61475 
L 309.54709 352.174167 
L 315.315411 352.174167 
L 316.036451 349.61475 
L 316.757492 349.61475 
L 317.478532 352.174167 
L 322.525813 352.174167 
L 323.246853 349.61475 
L 323.967893 349.61475 
L 324.688933 352.174167 
L 325.409973 352.174167 
L 326.131014 349.61475 
L 326.852054 349.61475 
L 327.573094 352.174167 
L 328.294134 352.174167 
L 329.015174 349.61475 
L 331.899335 349.61475 
L 332.620375 347.055334 
L 333.341415 347.055334 
L 334.783496 352.174167 
L 337.667656 352.174167 
L 338.388696 349.61475 
L 339.109736 349.61475 
L 339.830777 352.174167 
L 340.551817 352.174167 
L 341.272857 349.61475 
L 341.993897 349.61475 
L 342.714937 352.174167 
L 343.435977 349.61475 
L 344.157018 352.174167 
L 367.230303 352.174167 
L 367.951343 349.61475 
L 368.672383 352.174167 
L 377.324865 352.174167 
L 378.045905 349.61475 
L 378.766945 352.174167 
L 381.651106 352.174167 
L 382.372146 349.61475 
L 383.093186 349.61475 
L 383.814226 352.174167 
L 385.977347 352.174167 
L 386.698387 349.61475 
L 387.419427 349.61475 
L 388.140467 352.174167 
L 396.792949 352.174167 
L 397.513989 349.61475 
L 398.235029 349.61475 
L 398.956069 352.174167 
L 411.934792 352.174167 
L 412.655832 349.61475 
L 413.376872 352.174167 
L 416.261033 352.174167 
L 416.982073 349.61475 
L 418.424154 349.61475 
L 419.145194 352.174167 
L 426.355595 352.174167 
L 427.076635 349.61475 
L 427.797676 349.61475 
L 428.518716 352.174167 
L 430.681836 352.174167 
L 431.402876 349.61475 
L 432.123917 352.174167 
L 441.497439 352.174167 
L 442.218479 349.61475 
L 442.939519 352.174167 
L 443.660559 352.174167 
L 444.381599 347.055334 
L 445.102639 349.61475 
L 445.82368 347.055334 
L 447.26576 352.174167 
L 449.42888 352.174167 
L 450.14992 349.61475 
L 450.870961 352.174167 
L 451.592001 352.174167 
L 452.313041 349.61475 
L 453.755121 349.61475 
L 454.476161 352.174167 
L 456.639282 352.174167 
L 457.360322 349.61475 
L 458.081362 352.174167 
L 459.523442 352.174167 
L 460.244483 349.61475 
L 460.965523 349.61475 
L 461.686563 352.174167 
L 471.060085 352.174167 
L 471.781125 349.61475 
L 472.502165 352.174167 
L 482.596727 352.174167 
L 483.317768 349.61475 
L 484.038808 349.61475 
L 484.759848 352.174167 
L 486.201928 352.174167 
L 486.922968 347.055334 
L 488.365049 352.174167 
L 491.970249 352.174167 
L 492.69129 349.61475 
L 493.41233 352.174167 
L 500.622731 352.174167 
L 502.064812 347.055334 
L 503.506892 352.174167 
L 504.227932 349.61475 
L 504.948972 349.61475 
L 505.670012 352.174167 
L 507.112093 352.174167 
L 507.112093 352.174167 
" style="fill:none;stroke:#1f77b4;stroke-linecap:square;stroke-width:1.5;"/>
   </g>
   <g id="line2d_15">
    <path clip-path="url(#p921683ae84)" d="M 115.634877 298.426427 
L 116.355917 283.069929 
L 117.076957 285.629346 
L 117.797997 285.629346 
L 118.519037 288.188762 
L 119.240078 275.391681 
L 120.682158 270.272848 
L 121.403198 265.154016 
L 122.124238 262.5946 
L 123.566319 262.5946 
L 124.287359 254.916351 
L 125.008399 249.797519 
L 125.729439 247.238103 
L 126.450479 247.238103 
L 127.171519 185.812114 
L 127.892559 152.539703 
L 128.6136 147.420871 
L 129.33464 149.980287 
L 130.05568 257.475767 
L 130.77672 160.217952 
L 131.49776 157.658536 
L 132.2188 147.420871 
L 132.939841 144.861455 
L 133.660881 144.861455 
L 134.381921 157.658536 
L 135.102961 157.658536 
L 137.266081 173.015033 
L 139.429202 180.693282 
L 140.150242 188.37153 
L 140.871282 193.490363 
L 141.592322 173.015033 
L 142.313363 126.945541 
L 143.034403 152.539703 
L 143.755443 149.980287 
L 144.476483 221.643941 
L 145.197523 277.951097 
L 145.918563 219.084524 
L 146.639604 221.643941 
L 147.360644 221.643941 
L 148.081684 226.762773 
L 148.802724 213.965692 
L 149.523764 203.728027 
L 150.244804 206.287444 
L 150.965844 203.728027 
L 151.686885 206.287444 
L 153.850005 198.609195 
L 154.571045 193.490363 
L 155.292085 196.049779 
L 156.013126 188.37153 
L 156.734166 160.217952 
L 157.455206 121.826709 
L 158.176246 142.302039 
L 158.897286 147.420871 
L 159.618326 244.678686 
L 160.339366 157.658536 
L 161.060407 147.420871 
L 162.502487 142.302039 
L 163.223527 134.62379 
L 163.944567 129.504958 
L 164.665607 129.504958 
L 165.386648 132.064374 
L 166.107688 132.064374 
L 166.828728 137.183206 
L 167.549768 139.742622 
L 168.270808 144.861455 
L 168.991848 147.420871 
L 169.712889 155.09912 
L 170.433929 157.658536 
L 171.154969 165.336784 
L 171.876009 139.742622 
L 172.597049 132.064374 
L 173.318089 144.861455 
L 174.039129 149.980287 
L 174.76017 254.916351 
L 175.48121 152.539703 
L 176.20225 147.420871 
L 176.92329 147.420871 
L 177.64433 157.658536 
L 178.36537 155.09912 
L 179.086411 157.658536 
L 179.807451 152.539703 
L 180.528491 157.658536 
L 181.249531 165.336784 
L 181.970571 165.336784 
L 182.691611 167.896201 
L 183.412651 167.896201 
L 184.854732 178.133865 
L 185.575772 185.812114 
L 186.296812 188.37153 
L 187.017852 183.252698 
L 187.738892 183.252698 
L 188.459933 190.930946 
L 189.180973 254.916351 
L 189.902013 211.406276 
L 190.623053 193.490363 
L 192.065133 193.490363 
L 192.786173 188.37153 
L 194.228254 198.609195 
L 194.949294 201.168611 
L 195.670334 201.168611 
L 196.391374 198.609195 
L 197.833455 198.609195 
L 198.554495 201.168611 
L 199.275535 198.609195 
L 199.996575 198.609195 
L 201.438655 193.490363 
L 202.159696 193.490363 
L 203.601776 203.728027 
L 204.322816 270.272848 
L 205.043856 208.84686 
L 205.764896 203.728027 
L 206.485936 206.287444 
L 207.206977 203.728027 
L 207.928017 203.728027 
L 208.649057 206.287444 
L 209.370097 203.728027 
L 210.091137 196.049779 
L 210.812177 183.252698 
L 211.533218 175.574449 
L 212.254258 175.574449 
L 212.975298 170.455617 
L 213.696338 167.896201 
L 214.417378 167.896201 
L 215.138418 160.217952 
L 215.859458 162.777368 
L 216.580499 162.777368 
L 217.301539 170.455617 
L 218.022579 165.336784 
L 218.743619 237.000438 
L 219.464659 190.930946 
L 220.185699 180.693282 
L 220.90674 178.133865 
L 223.06986 193.490363 
L 223.7909 193.490363 
L 225.23298 198.609195 
L 225.954021 196.049779 
L 227.396101 201.168611 
L 228.117141 198.609195 
L 229.559221 203.728027 
L 230.280262 213.965692 
L 231.001302 216.525108 
L 231.722342 211.406276 
L 233.164422 216.525108 
L 233.885462 283.069929 
L 234.606503 226.762773 
L 236.048583 231.881605 
L 236.769623 229.322189 
L 238.211703 229.322189 
L 238.932743 226.762773 
L 239.653784 226.762773 
L 240.374824 229.322189 
L 241.095864 229.322189 
L 241.816904 234.441022 
L 242.537944 229.322189 
L 243.258984 234.441022 
L 244.701065 229.322189 
L 245.422105 234.441022 
L 246.143145 234.441022 
L 247.585225 239.559854 
L 248.306265 272.832265 
L 249.027306 260.035184 
L 249.748346 208.84686 
L 250.469386 201.168611 
L 251.190426 201.168611 
L 251.911466 196.049779 
L 252.632506 196.049779 
L 253.353547 201.168611 
L 254.074587 201.168611 
L 254.795627 203.728027 
L 255.516667 203.728027 
L 256.237707 206.287444 
L 256.958747 203.728027 
L 257.679788 203.728027 
L 258.400828 208.84686 
L 259.121868 201.168611 
L 259.842908 206.287444 
L 261.284988 201.168611 
L 262.006028 196.049779 
L 262.727069 201.168611 
L 263.448109 290.748178 
L 264.169149 193.490363 
L 264.890189 167.896201 
L 265.611229 167.896201 
L 266.332269 165.336784 
L 267.05331 165.336784 
L 267.77435 170.455617 
L 268.49539 165.336784 
L 269.21643 162.777368 
L 270.65851 173.015033 
L 271.37955 175.574449 
L 272.821631 170.455617 
L 273.542671 175.574449 
L 274.263711 175.574449 
L 274.984751 173.015033 
L 275.705791 167.896201 
L 276.426832 167.896201 
L 277.868912 173.015033 
L 278.589952 249.797519 
L 279.310992 160.217952 
L 280.032032 167.896201 
L 280.753072 165.336784 
L 281.474113 165.336784 
L 282.195153 170.455617 
L 282.916193 173.015033 
L 285.079313 157.658536 
L 285.800354 157.658536 
L 287.242434 173.015033 
L 287.963474 175.574449 
L 288.684514 173.015033 
L 289.405554 173.015033 
L 290.126595 175.574449 
L 290.847635 170.455617 
L 291.568675 167.896201 
L 292.289715 167.896201 
L 293.010755 234.441022 
L 293.731795 188.37153 
L 294.452835 170.455617 
L 295.173876 178.133865 
L 295.894916 173.015033 
L 296.615956 170.455617 
L 298.058036 175.574449 
L 298.779076 173.015033 
L 299.500117 178.133865 
L 300.221157 188.37153 
L 300.942197 188.37153 
L 301.663237 193.490363 
L 302.384277 193.490363 
L 303.105317 198.609195 
L 303.826357 196.049779 
L 304.547398 190.930946 
L 305.268438 190.930946 
L 305.989478 180.693282 
L 307.431558 175.574449 
L 308.152598 260.035184 
L 308.873639 175.574449 
L 309.594679 165.336784 
L 310.315719 167.896201 
L 311.036759 167.896201 
L 311.757799 162.777368 
L 313.199879 167.896201 
L 313.92092 167.896201 
L 314.64196 165.336784 
L 315.363 173.015033 
L 316.08404 175.574449 
L 316.80508 175.574449 
L 318.247161 180.693282 
L 318.968201 185.812114 
L 319.689241 193.490363 
L 321.131321 203.728027 
L 321.852361 201.168611 
L 322.573402 237.000438 
L 323.294442 313.782924 
L 324.015482 237.000438 
L 324.736522 231.881605 
L 325.457562 231.881605 
L 326.178602 237.000438 
L 326.899642 239.559854 
L 327.620683 237.000438 
L 328.341723 231.881605 
L 329.783803 242.11927 
L 330.504843 242.11927 
L 331.946924 247.238103 
L 332.667964 247.238103 
L 333.389004 249.797519 
L 334.110044 244.678686 
L 335.552124 249.797519 
L 336.994205 249.797519 
L 337.715245 270.272848 
L 338.436285 267.713432 
L 339.157325 242.11927 
L 339.878365 239.559854 
L 341.320446 239.559854 
L 342.041486 242.11927 
L 342.762526 234.441022 
L 344.925646 226.762773 
L 345.646687 229.322189 
L 346.367727 226.762773 
L 347.088767 226.762773 
L 347.809807 216.525108 
L 348.530847 219.084524 
L 349.251887 219.084524 
L 349.972927 213.965692 
L 350.693968 219.084524 
L 351.415008 216.525108 
L 352.136048 221.643941 
L 352.857088 285.629346 
L 353.578128 247.238103 
L 354.299168 247.238103 
L 355.020209 244.678686 
L 355.741249 239.559854 
L 356.462289 229.322189 
L 357.183329 226.762773 
L 357.904369 216.525108 
L 358.625409 211.406276 
L 359.346449 213.965692 
L 360.06749 206.287444 
L 360.78853 203.728027 
L 361.50957 206.287444 
L 362.23061 201.168611 
L 362.95165 198.609195 
L 363.67269 203.728027 
L 364.393731 201.168611 
L 365.114771 193.490363 
L 365.835811 190.930946 
L 366.556851 193.490363 
L 367.277891 226.762773 
L 367.998931 224.203357 
L 368.719971 178.133865 
L 369.441012 178.133865 
L 370.162052 175.574449 
L 370.883092 178.133865 
L 371.604132 185.812114 
L 372.325172 185.812114 
L 373.046212 193.490363 
L 373.767253 196.049779 
L 374.488293 190.930946 
L 375.209333 193.490363 
L 375.930373 193.490363 
L 376.651413 188.37153 
L 377.372453 185.812114 
L 379.535574 201.168611 
L 381.698694 208.84686 
L 382.419734 311.223508 
L 383.140775 244.678686 
L 383.861815 237.000438 
L 384.582855 231.881605 
L 385.303895 219.084524 
L 386.024935 219.084524 
L 386.745975 213.965692 
L 387.467016 216.525108 
L 389.630136 201.168611 
L 390.351176 203.728027 
L 391.072216 208.84686 
L 391.793256 221.643941 
L 392.514297 224.203357 
L 393.235337 231.881605 
L 394.677417 231.881605 
L 395.398457 229.322189 
L 396.840538 229.322189 
L 397.561578 298.426427 
L 398.282618 260.035184 
L 399.003658 260.035184 
L 399.724698 257.475767 
L 400.445738 257.475767 
L 401.166778 247.238103 
L 401.887819 239.559854 
L 402.608859 234.441022 
L 403.329899 226.762773 
L 404.050939 221.643941 
L 406.21406 229.322189 
L 406.9351 226.762773 
L 407.65614 226.762773 
L 408.37718 219.084524 
L 409.09822 219.084524 
L 409.81926 221.643941 
L 410.540301 221.643941 
L 411.261341 229.322189 
L 411.982381 257.475767 
L 412.703421 211.406276 
L 413.424461 178.133865 
L 414.145501 173.015033 
L 414.866541 165.336784 
L 417.029662 173.015033 
L 417.750702 173.015033 
L 418.471742 170.455617 
L 419.192782 165.336784 
L 419.913823 162.777368 
L 421.355903 162.777368 
L 422.076943 167.896201 
L 422.797983 165.336784 
L 423.519023 170.455617 
L 424.240063 167.896201 
L 424.961104 170.455617 
L 425.682144 175.574449 
L 426.403184 178.133865 
L 427.124224 257.475767 
L 427.845264 162.777368 
L 430.008385 170.455617 
L 430.729425 170.455617 
L 431.450465 175.574449 
L 432.171505 178.133865 
L 432.892545 178.133865 
L 433.613586 173.015033 
L 434.334626 173.015033 
L 435.055666 178.133865 
L 435.776706 175.574449 
L 436.497746 180.693282 
L 437.218786 180.693282 
L 437.939826 185.812114 
L 438.660867 188.37153 
L 439.381907 193.490363 
L 440.102947 196.049779 
L 440.823987 201.168611 
L 441.545027 231.881605 
L 442.266067 321.461172 
L 442.987108 267.713432 
L 444.429188 272.832265 
L 445.150228 270.272848 
L 445.871268 272.832265 
L 446.592308 270.272848 
L 447.313348 257.475767 
L 448.034389 242.11927 
L 448.755429 237.000438 
L 449.476469 234.441022 
L 450.197509 229.322189 
L 450.918549 229.322189 
L 451.639589 231.881605 
L 452.36063 226.762773 
L 453.08167 226.762773 
L 453.80271 234.441022 
L 454.52375 237.000438 
L 455.24479 234.441022 
L 455.96583 239.559854 
L 456.68687 267.713432 
L 457.407911 270.272848 
L 458.128951 249.797519 
L 458.849991 249.797519 
L 459.571031 244.678686 
L 461.013111 229.322189 
L 461.734152 211.406276 
L 462.455192 206.287444 
L 463.176232 203.728027 
L 463.897272 206.287444 
L 464.618312 198.609195 
L 465.339352 198.609195 
L 466.060393 203.728027 
L 467.502473 198.609195 
L 468.223513 198.609195 
L 468.944553 201.168611 
L 469.665593 198.609195 
L 470.386633 193.490363 
L 471.107674 196.049779 
L 471.828714 242.11927 
L 472.549754 144.861455 
L 473.270794 155.09912 
L 473.991834 152.539703 
L 474.712874 152.539703 
L 476.154955 147.420871 
L 476.875995 142.302039 
L 478.318075 142.302039 
L 479.039115 144.861455 
L 479.760155 149.980287 
L 480.481196 152.539703 
L 481.202236 149.980287 
L 482.644316 160.217952 
L 483.365356 155.09912 
L 484.086396 152.539703 
L 484.807437 152.539703 
L 485.528477 149.980287 
L 486.249517 201.168611 
L 486.970557 201.168611 
L 487.691597 165.336784 
L 489.133677 165.336784 
L 489.854718 167.896201 
L 490.575758 167.896201 
L 491.296798 178.133865 
L 492.017838 183.252698 
L 492.738878 190.930946 
L 493.459918 196.049779 
L 494.180959 198.609195 
L 494.901999 198.609195 
L 495.623039 201.168611 
L 496.344079 201.168611 
L 499.94928 226.762773 
L 500.67032 229.322189 
L 501.39136 283.069929 
L 502.1124 226.762773 
L 502.83344 224.203357 
L 503.554481 224.203357 
L 504.275521 229.322189 
L 504.275521 229.322189 
" style="fill:none;stroke:#ff7f0e;stroke-linecap:square;stroke-width:1.5;"/>
   </g>
   <g id="line2d_16">
    <path clip-path="url(#p921683ae84)" d="M 112.691591 132.064374 
L 113.412631 50.163056 
L 114.854711 50.163056 
L 115.575752 98.791963 
L 116.296792 119.267293 
L 117.017832 116.707877 
L 117.738872 119.267293 
L 118.459912 134.62379 
L 119.180952 134.62379 
L 119.901992 139.742622 
L 120.623033 139.742622 
L 121.344073 147.420871 
L 122.065113 147.420871 
L 122.786153 142.302039 
L 123.507193 144.861455 
L 124.949274 155.09912 
L 126.391354 160.217952 
L 127.112394 288.188762 
L 127.833434 254.916351 
L 128.554474 257.475767 
L 129.275514 254.916351 
L 129.996555 244.678686 
L 130.717595 249.797519 
L 131.438635 252.356935 
L 132.159675 257.475767 
L 132.880715 265.154016 
L 133.601755 262.5946 
L 134.322796 252.356935 
L 135.043836 252.356935 
L 135.764876 247.238103 
L 137.206956 231.881605 
L 137.927996 231.881605 
L 138.649037 226.762773 
L 139.370077 229.322189 
L 140.091117 219.084524 
L 140.812157 213.965692 
L 141.533197 254.916351 
L 142.254237 303.545259 
L 142.975277 257.475767 
L 143.696318 254.916351 
L 144.417358 244.678686 
L 145.138398 183.252698 
L 145.859438 188.37153 
L 146.580478 185.812114 
L 147.301518 185.812114 
L 148.022559 180.693282 
L 149.464639 201.168611 
L 150.185679 198.609195 
L 150.906719 201.168611 
L 151.627759 198.609195 
L 152.348799 201.168611 
L 153.06984 208.84686 
L 153.79088 206.287444 
L 154.51192 211.406276 
L 155.23296 211.406276 
L 155.954 213.965692 
L 156.67504 277.951097 
L 157.396081 303.545259 
L 158.117121 267.713432 
L 158.838161 270.272848 
L 159.559201 267.713432 
L 160.280241 272.832265 
L 161.001281 275.391681 
L 162.443362 270.272848 
L 163.885442 275.391681 
L 164.606482 275.391681 
L 165.327522 277.951097 
L 166.048562 277.951097 
L 166.769603 270.272848 
L 167.490643 267.713432 
L 168.211683 262.5946 
L 168.932723 260.035184 
L 169.653763 254.916351 
L 170.374803 247.238103 
L 171.095844 242.11927 
L 171.816884 290.748178 
L 172.537924 288.188762 
L 173.258964 260.035184 
L 173.980004 265.154016 
L 174.701044 262.5946 
L 175.422084 270.272848 
L 176.143125 270.272848 
L 176.864165 265.154016 
L 177.585205 254.916351 
L 178.306245 249.797519 
L 179.027285 252.356935 
L 179.748325 252.356935 
L 180.469366 249.797519 
L 181.190406 242.11927 
L 181.911446 239.559854 
L 182.632486 239.559854 
L 183.353526 237.000438 
L 184.795606 226.762773 
L 185.516647 219.084524 
L 186.237687 216.525108 
L 186.958727 221.643941 
L 187.679767 221.643941 
L 188.400807 216.525108 
L 189.121847 272.832265 
L 189.842888 216.525108 
L 190.563928 211.406276 
L 191.284968 216.525108 
L 192.006008 216.525108 
L 192.727048 219.084524 
L 194.890169 203.728027 
L 195.611209 203.728027 
L 196.332249 206.287444 
L 197.053289 206.287444 
L 197.774329 208.84686 
L 198.495369 203.728027 
L 199.21641 208.84686 
L 199.93745 206.287444 
L 200.65849 208.84686 
L 201.37953 213.965692 
L 202.10057 211.406276 
L 202.82161 206.287444 
L 203.542651 203.728027 
L 204.263691 272.832265 
L 204.984731 198.609195 
L 205.705771 203.728027 
L 206.426811 201.168611 
L 207.868891 201.168611 
L 208.589932 198.609195 
L 209.310972 201.168611 
L 210.753052 216.525108 
L 211.474092 226.762773 
L 212.195132 229.322189 
L 212.916173 237.000438 
L 213.637213 234.441022 
L 214.358253 237.000438 
L 215.079293 242.11927 
L 216.521373 242.11927 
L 217.242413 237.000438 
L 217.963454 237.000438 
L 218.684494 280.510513 
L 219.405534 247.238103 
L 220.126574 229.322189 
L 220.847614 226.762773 
L 221.568654 221.643941 
L 222.289695 219.084524 
L 223.010735 211.406276 
L 223.731775 211.406276 
L 225.173855 206.287444 
L 225.894895 208.84686 
L 227.336976 203.728027 
L 228.779056 203.728027 
L 229.500096 201.168611 
L 230.221136 190.930946 
L 230.942176 188.37153 
L 231.663217 193.490363 
L 232.384257 190.930946 
L 233.105297 190.930946 
L 233.826337 270.272848 
L 234.547377 193.490363 
L 235.268417 180.693282 
L 235.989458 175.574449 
L 238.152578 175.574449 
L 238.873618 183.252698 
L 239.594658 178.133865 
L 240.315698 175.574449 
L 241.036739 175.574449 
L 241.757779 173.015033 
L 242.478819 175.574449 
L 243.199859 170.455617 
L 244.641939 175.574449 
L 247.5261 165.336784 
L 248.96818 275.391681 
L 249.68922 201.168611 
L 250.410261 206.287444 
L 251.131301 206.287444 
L 251.852341 211.406276 
L 252.573381 211.406276 
L 254.736502 203.728027 
L 255.457542 206.287444 
L 256.178582 203.728027 
L 257.620662 203.728027 
L 258.341702 201.168611 
L 259.062743 203.728027 
L 259.783783 203.728027 
L 260.504823 206.287444 
L 261.225863 203.728027 
L 261.946903 213.965692 
L 262.667943 208.84686 
L 263.388983 270.272848 
L 264.110024 285.629346 
L 264.831064 242.11927 
L 265.552104 244.678686 
L 266.994184 244.678686 
L 267.715224 242.11927 
L 269.157305 247.238103 
L 269.878345 242.11927 
L 271.320425 237.000438 
L 272.041465 237.000438 
L 272.762505 242.11927 
L 273.483546 237.000438 
L 274.204586 234.441022 
L 274.925626 237.000438 
L 275.646666 242.11927 
L 277.809787 234.441022 
L 278.530827 280.510513 
L 279.251867 247.238103 
L 279.972907 239.559854 
L 280.693947 237.000438 
L 281.414987 237.000438 
L 282.136028 234.441022 
L 282.857068 237.000438 
L 283.578108 237.000438 
L 284.299148 244.678686 
L 285.020188 244.678686 
L 285.741228 247.238103 
L 287.183309 237.000438 
L 287.904349 229.322189 
L 288.625389 234.441022 
L 289.346429 229.322189 
L 291.50955 237.000438 
L 292.23059 237.000438 
L 292.95163 234.441022 
L 293.67267 288.188762 
L 294.39371 237.000438 
L 295.11475 229.322189 
L 296.556831 234.441022 
L 297.277871 234.441022 
L 297.998911 229.322189 
L 298.719951 231.881605 
L 299.440991 226.762773 
L 300.162031 216.525108 
L 300.883072 216.525108 
L 301.604112 211.406276 
L 302.325152 211.406276 
L 303.046192 208.84686 
L 303.767232 208.84686 
L 304.488272 213.965692 
L 305.209312 213.965692 
L 305.930353 221.643941 
L 307.372433 231.881605 
L 308.093473 280.510513 
L 308.814513 237.000438 
L 309.535553 239.559854 
L 310.256594 239.559854 
L 310.977634 237.000438 
L 312.419714 242.11927 
L 313.140754 237.000438 
L 314.582835 242.11927 
L 315.303875 234.441022 
L 316.024915 234.441022 
L 316.745955 231.881605 
L 317.466995 226.762773 
L 318.909075 221.643941 
L 319.630116 211.406276 
L 320.351156 206.287444 
L 321.072196 203.728027 
L 321.793236 208.84686 
L 322.514276 198.609195 
L 323.235316 252.356935 
L 323.956357 170.455617 
L 324.677397 170.455617 
L 325.398437 175.574449 
L 326.119477 173.015033 
L 326.840517 165.336784 
L 327.561557 170.455617 
L 328.282597 173.015033 
L 329.003638 173.015033 
L 330.445718 167.896201 
L 331.166758 167.896201 
L 331.887798 162.777368 
L 332.608838 165.336784 
L 333.329879 160.217952 
L 334.050919 162.777368 
L 336.214039 155.09912 
L 336.935079 157.658536 
L 337.656119 249.797519 
L 338.37716 190.930946 
L 339.0982 165.336784 
L 340.54028 165.336784 
L 341.26132 167.896201 
L 341.98236 165.336784 
L 342.703401 167.896201 
L 343.424441 175.574449 
L 344.145481 175.574449 
L 344.866521 178.133865 
L 345.587561 178.133865 
L 346.308601 180.693282 
L 347.029642 178.133865 
L 347.750682 188.37153 
L 349.192762 188.37153 
L 349.913802 193.490363 
L 350.634842 185.812114 
L 351.355882 188.37153 
L 352.076923 183.252698 
L 352.797963 260.035184 
L 353.519003 157.658536 
L 354.961083 157.658536 
L 357.845244 188.37153 
L 358.566284 193.490363 
L 359.287324 190.930946 
L 360.008364 198.609195 
L 361.450445 198.609195 
L 362.171485 206.287444 
L 362.892525 208.84686 
L 363.613565 203.728027 
L 364.334605 203.728027 
L 365.055645 211.406276 
L 365.776686 216.525108 
L 366.497726 211.406276 
L 367.218766 252.356935 
L 367.939806 272.832265 
L 368.660846 226.762773 
L 369.381886 229.322189 
L 370.102927 226.762773 
L 370.823967 226.762773 
L 371.545007 219.084524 
L 372.266047 216.525108 
L 372.987087 211.406276 
L 373.708127 211.406276 
L 374.429167 213.965692 
L 375.150208 211.406276 
L 375.871248 211.406276 
L 377.313328 221.643941 
L 378.034368 219.084524 
L 378.755408 211.406276 
L 379.476449 201.168611 
L 380.197489 201.168611 
L 381.639569 196.049779 
L 382.360609 260.035184 
L 383.081649 173.015033 
L 383.802689 167.896201 
L 384.52373 175.574449 
L 385.24477 185.812114 
L 385.96581 188.37153 
L 386.68685 193.490363 
L 387.40789 190.930946 
L 388.849971 201.168611 
L 389.571011 203.728027 
L 390.292051 198.609195 
L 391.013091 198.609195 
L 391.734131 183.252698 
L 392.455171 180.693282 
L 393.176211 175.574449 
L 393.897252 173.015033 
L 394.618292 173.015033 
L 395.339332 178.133865 
L 396.060372 175.574449 
L 396.781412 185.812114 
L 397.502452 265.154016 
L 398.223493 147.420871 
L 398.944533 147.420871 
L 399.665573 144.861455 
L 400.386613 149.980287 
L 401.828693 165.336784 
L 402.549734 170.455617 
L 403.270774 178.133865 
L 403.991814 183.252698 
L 405.433894 178.133865 
L 407.597015 178.133865 
L 408.318055 183.252698 
L 409.039095 190.930946 
L 409.760135 185.812114 
L 410.481175 185.812114 
L 411.202215 178.133865 
L 411.923256 244.678686 
L 412.644296 295.86701 
L 413.365336 229.322189 
L 414.086376 231.881605 
L 414.807416 242.11927 
L 415.528456 239.559854 
L 416.249496 234.441022 
L 416.970537 237.000438 
L 417.691577 237.000438 
L 418.412617 239.559854 
L 419.133657 239.559854 
L 419.854697 247.238103 
L 420.575737 242.11927 
L 421.296778 242.11927 
L 422.017818 239.559854 
L 422.738858 239.559854 
L 423.459898 234.441022 
L 424.180938 237.000438 
L 424.901978 237.000438 
L 426.344059 226.762773 
L 427.065099 275.391681 
L 427.786139 249.797519 
L 428.507179 242.11927 
L 429.228219 242.11927 
L 429.949259 237.000438 
L 430.6703 237.000438 
L 431.39134 231.881605 
L 432.11238 231.881605 
L 432.83342 229.322189 
L 433.55446 229.322189 
L 434.2755 231.881605 
L 434.996541 229.322189 
L 435.717581 229.322189 
L 437.159661 224.203357 
L 437.880701 219.084524 
L 438.601741 216.525108 
L 439.322781 211.406276 
L 440.764862 206.287444 
L 441.485902 193.490363 
L 442.206942 226.762773 
L 442.927982 137.183206 
L 443.649022 139.742622 
L 444.370063 144.861455 
L 446.533183 144.861455 
L 447.254223 149.980287 
L 447.975263 165.336784 
L 448.696303 170.455617 
L 449.417344 170.455617 
L 450.138384 178.133865 
L 450.859424 180.693282 
L 452.301504 180.693282 
L 453.022544 183.252698 
L 454.464625 167.896201 
L 455.185665 173.015033 
L 455.906705 165.336784 
L 456.627745 239.559854 
L 457.348785 165.336784 
L 458.069826 155.09912 
L 458.790866 155.09912 
L 459.511906 160.217952 
L 460.953986 175.574449 
L 461.675026 193.490363 
L 462.396066 198.609195 
L 463.117107 201.168611 
L 463.838147 201.168611 
L 464.559187 206.287444 
L 465.280227 208.84686 
L 466.001267 206.287444 
L 467.443348 206.287444 
L 468.164388 203.728027 
L 469.606468 203.728027 
L 470.327508 211.406276 
L 471.048548 211.406276 
L 471.769588 331.698837 
L 472.490629 262.5946 
L 473.211669 249.797519 
L 473.932709 252.356935 
L 474.653749 252.356935 
L 476.095829 257.475767 
L 476.81687 265.154016 
L 477.53791 262.5946 
L 478.25895 262.5946 
L 479.70103 257.475767 
L 481.14311 257.475767 
L 481.864151 252.356935 
L 482.585191 249.797519 
L 483.306231 252.356935 
L 484.027271 257.475767 
L 484.748311 254.916351 
L 485.469351 254.916351 
L 486.190392 249.797519 
L 486.911432 298.426427 
L 487.632472 239.559854 
L 488.353512 242.11927 
L 489.074552 242.11927 
L 489.795592 237.000438 
L 490.516633 237.000438 
L 491.237673 229.322189 
L 491.958713 226.762773 
L 492.679753 216.525108 
L 494.121833 206.287444 
L 495.563914 206.287444 
L 496.284954 203.728027 
L 497.005994 198.609195 
L 497.727034 196.049779 
L 498.448074 188.37153 
L 499.890155 178.133865 
L 500.611195 175.574449 
L 501.332235 247.238103 
L 501.332235 247.238103 
" style="fill:none;stroke:#2ca02c;stroke-linecap:square;stroke-width:1.5;"/>
   </g>
   <g id="line2d_17">
    <path clip-path="url(#p921683ae84)" d="M 121.40464 347.055334 
L 122.84672 352.174167 
L 126.451921 352.174167 
L 127.172961 349.61475 
L 127.894002 352.174167 
L 129.336082 352.174167 
L 130.057122 349.61475 
L 131.499202 349.61475 
L 132.220242 352.174167 
L 132.941283 352.174167 
L 133.662323 349.61475 
L 134.383363 349.61475 
L 135.104403 352.174167 
L 136.546483 352.174167 
L 137.267524 349.61475 
L 137.988564 352.174167 
L 140.151684 352.174167 
L 140.872724 349.61475 
L 142.314805 349.61475 
L 143.035845 352.174167 
L 144.477925 352.174167 
L 145.198965 349.61475 
L 145.920005 352.174167 
L 146.641046 352.174167 
L 147.362086 349.61475 
L 148.083126 352.174167 
L 156.014568 352.174167 
L 157.456648 347.055334 
L 158.177688 349.61475 
L 158.898728 347.055334 
L 159.619768 341.936502 
L 160.340809 341.936502 
L 163.224969 352.174167 
L 165.38809 352.174167 
L 166.10913 349.61475 
L 166.83017 349.61475 
L 167.55121 352.174167 
L 168.27225 352.174167 
L 168.99329 349.61475 
L 169.714331 349.61475 
L 170.435371 352.174167 
L 171.156411 352.174167 
L 171.877451 349.61475 
L 172.598491 349.61475 
L 173.319531 352.174167 
L 174.040572 347.055334 
L 174.761612 344.495918 
L 176.203692 349.61475 
L 178.366812 349.61475 
L 179.087853 352.174167 
L 189.182415 352.174167 
L 189.903455 349.61475 
L 191.345535 349.61475 
L 192.066575 352.174167 
L 192.787616 349.61475 
L 193.508656 352.174167 
L 218.745061 352.174167 
L 219.466101 349.61475 
L 220.187141 352.174167 
L 233.165864 352.174167 
L 233.886904 349.61475 
L 235.328985 349.61475 
L 236.050025 352.174167 
L 239.655226 352.174167 
L 240.376266 349.61475 
L 241.097306 352.174167 
L 242.539386 352.174167 
L 243.260426 349.61475 
L 243.981467 349.61475 
L 244.702507 352.174167 
L 248.307708 352.174167 
L 249.028748 347.055334 
L 249.749788 349.61475 
L 250.470828 349.61475 
L 251.191868 352.174167 
L 251.912908 352.174167 
L 252.633948 349.61475 
L 253.354989 352.174167 
L 255.518109 352.174167 
L 256.239149 349.61475 
L 256.960189 349.61475 
L 257.68123 352.174167 
L 258.40227 349.61475 
L 259.12331 352.174167 
L 259.84435 349.61475 
L 262.728511 349.61475 
L 264.170591 344.495918 
L 264.891631 349.61475 
L 265.612671 349.61475 
L 266.333711 347.055334 
L 267.054752 349.61475 
L 270.659952 349.61475 
L 271.380993 347.055334 
L 272.823073 347.055334 
L 273.544113 349.61475 
L 277.149314 349.61475 
L 277.870354 352.174167 
L 278.591394 349.61475 
L 279.312434 349.61475 
L 280.033474 352.174167 
L 282.196595 352.174167 
L 282.917635 349.61475 
L 283.638675 349.61475 
L 284.359715 352.174167 
L 293.012197 352.174167 
L 293.733237 349.61475 
L 294.454278 349.61475 
L 295.175318 352.174167 
L 303.106759 352.174167 
L 303.8278 349.61475 
L 304.54884 352.174167 
L 307.433 352.174167 
L 308.875081 347.055334 
L 309.596121 352.174167 
L 310.317161 352.174167 
L 311.038201 349.61475 
L 311.759241 352.174167 
L 313.201322 352.174167 
L 313.922362 349.61475 
L 316.806522 349.61475 
L 317.527563 352.174167 
L 322.574844 352.174167 
L 323.295884 349.61475 
L 324.016924 352.174167 
L 326.901085 352.174167 
L 327.622125 349.61475 
L 328.343165 352.174167 
L 329.064205 349.61475 
L 330.506285 349.61475 
L 331.227325 347.055334 
L 331.948366 349.61475 
L 334.111486 349.61475 
L 334.832526 352.174167 
L 337.716687 352.174167 
L 338.437727 349.61475 
L 339.158767 352.174167 
L 347.811249 352.174167 
L 348.532289 349.61475 
L 349.97437 349.61475 
L 350.69541 352.174167 
L 352.13749 352.174167 
L 352.85853 349.61475 
L 353.57957 352.174167 
L 366.558293 352.174167 
L 367.279333 349.61475 
L 368.000373 349.61475 
L 368.721414 352.174167 
L 377.373895 352.174167 
L 378.094936 349.61475 
L 378.815976 352.174167 
L 381.700136 352.174167 
L 382.421177 349.61475 
L 383.863257 349.61475 
L 384.584297 352.174167 
L 385.305337 352.174167 
L 386.026377 349.61475 
L 386.747417 352.174167 
L 387.468458 352.174167 
L 388.189498 349.61475 
L 388.910538 352.174167 
L 396.84198 352.174167 
L 397.56302 349.61475 
L 398.28406 352.174167 
L 402.610301 352.174167 
L 403.331341 349.61475 
L 404.052381 352.174167 
L 409.099662 352.174167 
L 409.820702 349.61475 
L 410.541743 352.174167 
L 411.262783 349.61475 
L 411.983823 349.61475 
L 412.704863 347.055334 
L 414.146943 352.174167 
L 414.867984 349.61475 
L 415.589024 349.61475 
L 416.310064 352.174167 
L 417.031104 352.174167 
L 417.752144 349.61475 
L 419.194224 349.61475 
L 419.915265 352.174167 
L 423.520465 352.174167 
L 424.241506 349.61475 
L 424.962546 352.174167 
L 426.404626 352.174167 
L 427.125666 349.61475 
L 427.846706 349.61475 
L 428.567746 352.174167 
L 429.288787 352.174167 
L 430.009827 349.61475 
L 430.730867 352.174167 
L 431.451907 352.174167 
L 432.172947 349.61475 
L 432.893987 352.174167 
L 441.546469 352.174167 
L 442.267509 349.61475 
L 442.98855 352.174167 
L 443.70959 349.61475 
L 444.43063 344.495918 
L 445.15167 344.495918 
L 445.87271 341.936502 
L 446.59375 344.495918 
L 447.314791 349.61475 
L 448.035831 352.174167 
L 449.477911 352.174167 
L 450.198951 349.61475 
L 450.919991 349.61475 
L 451.641031 347.055334 
L 453.083112 352.174167 
L 453.804152 349.61475 
L 454.525192 349.61475 
L 455.246232 352.174167 
L 455.967272 352.174167 
L 456.688313 349.61475 
L 457.409353 349.61475 
L 458.130393 352.174167 
L 460.293513 352.174167 
L 461.014554 349.61475 
L 461.735594 352.174167 
L 465.340794 352.174167 
L 466.061835 349.61475 
L 466.782875 349.61475 
L 467.503915 352.174167 
L 471.109116 352.174167 
L 471.830156 349.61475 
L 472.551196 352.174167 
L 479.761598 352.174167 
L 480.482638 349.61475 
L 484.087838 349.61475 
L 484.808879 352.174167 
L 486.250959 352.174167 
L 486.971999 349.61475 
L 487.693039 352.174167 
L 500.671762 352.174167 
L 501.392802 349.61475 
L 502.113842 349.61475 
L 502.834883 352.174167 
L 504.276963 352.174167 
L 504.998003 349.61475 
L 505.719043 352.174167 
L 510.045284 352.174167 
L 510.045284 352.174167 
" style="fill:none;stroke:#d62728;stroke-linecap:square;stroke-width:1.5;"/>
   </g>
   <g id="patch_3">
    <path d="M 92.823906 352.174167 
L 92.823906 35.0625 
" style="fill:none;stroke:#000000;stroke-linecap:square;stroke-linejoin:miter;stroke-width:0.8;"/>
   </g>
   <g id="patch_4">
    <path d="M 529.912969 352.174167 
L 529.912969 35.0625 
" style="fill:none;stroke:#000000;stroke-linecap:square;stroke-linejoin:miter;stroke-width:0.8;"/>
   </g>
   <g id="patch_5">
    <path d="M 92.823906 352.174167 
L 529.912969 352.174167 
" style="fill:none;stroke:#000000;stroke-linecap:square;stroke-linejoin:miter;stroke-width:0.8;"/>
   </g>
   <g id="patch_6">
    <path d="M 92.823906 35.0625 
L 529.912969 35.0625 
" style="fill:none;stroke:#000000;stroke-linecap:square;stroke-linejoin:miter;stroke-width:0.8;"/>
   </g>
   <g id="legend_1">
    <g id="patch_7">
     <path d="M 553.767422 96.775 
L 624.962734 96.775 
Q 626.962734 96.775 626.962734 94.775 
L 626.962734 37.0625 
Q 626.962734 35.0625 624.962734 35.0625 
L 553.767422 35.0625 
Q 551.767422 35.0625 551.767422 37.0625 
L 551.767422 94.775 
Q 551.767422 96.775 553.767422 96.775 
z
" style="fill:#ffffff;opacity:0.8;stroke:#cccccc;stroke-linejoin:miter;"/>
    </g>
    <g id="line2d_18">
     <path d="M 555.767422 43.160937 
L 575.767422 43.160937 
" style="fill:none;stroke:#1f77b4;stroke-linecap:square;stroke-width:1.5;"/>
    </g>
    <g id="line2d_19"/>
    <g id="text_15">
     <!-- cubic-pi -->
     <defs>
      <path d="M 4.890625 31.390625 
L 31.203125 31.390625 
L 31.203125 23.390625 
L 4.890625 23.390625 
z
" id="DejaVuSans-45"/>
     </defs>
     <g transform="translate(583.767422 46.660937)scale(0.1 -0.1)">
      <use xlink:href="#DejaVuSans-99"/>
      <use x="54.980469" xlink:href="#DejaVuSans-117"/>
      <use x="118.359375" xlink:href="#DejaVuSans-98"/>
      <use x="181.835938" xlink:href="#DejaVuSans-105"/>
      <use x="209.619141" xlink:href="#DejaVuSans-99"/>
      <use x="264.599609" xlink:href="#DejaVuSans-45"/>
      <use x="300.683594" xlink:href="#DejaVuSans-112"/>
      <use x="364.160156" xlink:href="#DejaVuSans-105"/>
     </g>
    </g>
    <g id="line2d_20">
     <path d="M 555.767422 57.839063 
L 575.767422 57.839063 
" style="fill:none;stroke:#ff7f0e;stroke-linecap:square;stroke-width:1.5;"/>
    </g>
    <g id="line2d_21"/>
    <g id="text_16">
     <!-- bbr-pi -->
     <g transform="translate(583.767422 61.339063)scale(0.1 -0.1)">
      <use xlink:href="#DejaVuSans-98"/>
      <use x="63.476562" xlink:href="#DejaVuSans-98"/>
      <use x="126.953125" xlink:href="#DejaVuSans-114"/>
      <use x="167.972656" xlink:href="#DejaVuSans-45"/>
      <use x="204.056641" xlink:href="#DejaVuSans-112"/>
      <use x="267.533203" xlink:href="#DejaVuSans-105"/>
     </g>
    </g>
    <g id="line2d_22">
     <path d="M 555.767422 72.517187 
L 575.767422 72.517187 
" style="fill:none;stroke:#2ca02c;stroke-linecap:square;stroke-width:1.5;"/>
    </g>
    <g id="line2d_23"/>
    <g id="text_17">
     <!-- bbr-pi -->
     <g transform="translate(583.767422 76.017187)scale(0.1 -0.1)">
      <use xlink:href="#DejaVuSans-98"/>
      <use x="63.476562" xlink:href="#DejaVuSans-98"/>
      <use x="126.953125" xlink:href="#DejaVuSans-114"/>
      <use x="167.972656" xlink:href="#DejaVuSans-45"/>
      <use x="204.056641" xlink:href="#DejaVuSans-112"/>
      <use x="267.533203" xlink:href="#DejaVuSans-105"/>
     </g>
    </g>
    <g id="line2d_24">
     <path d="M 555.767422 87.195312 
L 575.767422 87.195312 
" style="fill:none;stroke:#d62728;stroke-linecap:square;stroke-width:1.5;"/>
    </g>
    <g id="line2d_25"/>
    <g id="text_18">
     <!-- cubic-pi -->
     <g transform="translate(583.767422 90.695312)scale(0.1 -0.1)">
      <use xlink:href="#DejaVuSans-99"/>
      <use x="54.980469" xlink:href="#DejaVuSans-117"/>
      <use x="118.359375" xlink:href="#DejaVuSans-98"/>
      <use x="181.835938" xlink:href="#DejaVuSans-105"/>
      <use x="209.619141" xlink:href="#DejaVuSans-99"/>
      <use x="264.599609" xlink:href="#DejaVuSans-45"/>
      <use x="300.683594" xlink:href="#DejaVuSans-112"/>
      <use x="364.160156" xlink:href="#DejaVuSans-105"/>
     </g>
    </g>
   </g>
  </g>
  <g id="text_19">
   <!-- result throughput -->
   <defs>
    <path d="M 9.421875 75.984375 
L 18.40625 75.984375 
L 18.40625 0 
L 9.421875 0 
z
" id="DejaVuSans-108"/>
   </defs>
   <g transform="translate(289.320938 17.038125)scale(0.12 -0.12)">
    <use xlink:href="#DejaVuSans-114"/>
    <use x="41.082031" xlink:href="#DejaVuSans-101"/>
    <use x="102.605469" xlink:href="#DejaVuSans-115"/>
    <use x="154.705078" xlink:href="#DejaVuSans-117"/>
    <use x="218.083984" xlink:href="#DejaVuSans-108"/>
    <use x="245.867188" xlink:href="#DejaVuSans-116"/>
    <use x="285.076172" xlink:href="#DejaVuSans-32"/>
    <use x="316.863281" xlink:href="#DejaVuSans-116"/>
    <use x="356.072266" xlink:href="#DejaVuSans-104"/>
    <use x="419.451172" xlink:href="#DejaVuSans-114"/>
    <use x="460.533203" xlink:href="#DejaVuSans-111"/>
    <use x="521.714844" xlink:href="#DejaVuSans-117"/>
    <use x="585.09375" xlink:href="#DejaVuSans-103"/>
    <use x="648.570312" xlink:href="#DejaVuSans-104"/>
    <use x="711.949219" xlink:href="#DejaVuSans-112"/>
    <use x="775.425781" xlink:href="#DejaVuSans-117"/>
    <use x="838.804688" xlink:href="#DejaVuSans-116"/>
   </g>
  </g>
 </g>
 <defs>
  <clipPath id="p921683ae84">
   <rect height="317.111667" width="437.089062" x="92.823906" y="35.0625"/>
  </clipPath>
 </defs>
</svg>
