<?xml version="1.0" encoding="utf-8" standalone="no"?>
<!DOCTYPE svg PUBLIC "-//W3C//DTD SVG 1.1//EN"
  "http://www.w3.org/Graphics/SVG/1.1/DTD/svg11.dtd">
<!-- Created with matplotlib (https://matplotlib.org/) -->
<svg height="396pt" version="1.1" viewBox="0 0 684 396" width="684pt" xmlns="http://www.w3.org/2000/svg" xmlns:xlink="http://www.w3.org/1999/xlink">
 <defs>
  <style type="text/css">
*{stroke-linecap:butt;stroke-linejoin:round;}
  </style>
 </defs>
 <g id="figure_1">
  <g id="patch_1">
   <path d="M 0 396 
L 684 396 
L 684 0 
L 0 0 
z
" style="fill:#ffffff;"/>
  </g>
  <g id="axes_1">
   <g id="patch_2">
    <path d="M 120.878594 352.174167 
L 540.734062 352.174167 
L 540.734062 35.0625 
L 120.878594 35.0625 
z
" style="fill:#ffffff;"/>
   </g>
   <g id="matplotlib.axis_1">
    <g id="xtick_1">
     <g id="line2d_1">
      <defs>
       <path d="M 0 0 
L 0 3.5 
" id="m07f2b0ff4a" style="stroke:#000000;stroke-width:0.8;"/>
      </defs>
      <g>
       <use style="stroke:#000000;stroke-width:0.8;" x="144.664213" xlink:href="#m07f2b0ff4a" y="352.174167"/>
      </g>
     </g>
     <g id="text_1">
      <!-- 0 -->
      <defs>
       <path d="M 31.78125 66.40625 
Q 24.171875 66.40625 20.328125 58.90625 
Q 16.5 51.421875 16.5 36.375 
Q 16.5 21.390625 20.328125 13.890625 
Q 24.171875 6.390625 31.78125 6.390625 
Q 39.453125 6.390625 43.28125 13.890625 
Q 47.125 21.390625 47.125 36.375 
Q 47.125 51.421875 43.28125 58.90625 
Q 39.453125 66.40625 31.78125 66.40625 
z
M 31.78125 74.21875 
Q 44.046875 74.21875 50.515625 64.515625 
Q 56.984375 54.828125 56.984375 36.375 
Q 56.984375 17.96875 50.515625 8.265625 
Q 44.046875 -1.421875 31.78125 -1.421875 
Q 19.53125 -1.421875 13.0625 8.265625 
Q 6.59375 17.96875 6.59375 36.375 
Q 6.59375 54.828125 13.0625 64.515625 
Q 19.53125 74.21875 31.78125 74.21875 
z
" id="DejaVuSans-48"/>
      </defs>
      <g transform="translate(141.482963 366.772604)scale(0.1 -0.1)">
       <use xlink:href="#DejaVuSans-48"/>
      </g>
     </g>
    </g>
    <g id="xtick_2">
     <g id="line2d_2">
      <g>
       <use style="stroke:#000000;stroke-width:0.8;" x="210.14242" xlink:href="#m07f2b0ff4a" y="352.174167"/>
      </g>
     </g>
     <g id="text_2">
      <!-- 50 -->
      <defs>
       <path d="M 10.796875 72.90625 
L 49.515625 72.90625 
L 49.515625 64.59375 
L 19.828125 64.59375 
L 19.828125 46.734375 
Q 21.96875 47.46875 24.109375 47.828125 
Q 26.265625 48.1875 28.421875 48.1875 
Q 40.625 48.1875 47.75 41.5 
Q 54.890625 34.8125 54.890625 23.390625 
Q 54.890625 11.625 47.5625 5.09375 
Q 40.234375 -1.421875 26.90625 -1.421875 
Q 22.3125 -1.421875 17.546875 -0.640625 
Q 12.796875 0.140625 7.71875 1.703125 
L 7.71875 11.625 
Q 12.109375 9.234375 16.796875 8.0625 
Q 21.484375 6.890625 26.703125 6.890625 
Q 35.15625 6.890625 40.078125 11.328125 
Q 45.015625 15.765625 45.015625 23.390625 
Q 45.015625 31 40.078125 35.4375 
Q 35.15625 39.890625 26.703125 39.890625 
Q 22.75 39.890625 18.8125 39.015625 
Q 14.890625 38.140625 10.796875 36.28125 
z
" id="DejaVuSans-53"/>
      </defs>
      <g transform="translate(203.77992 366.772604)scale(0.1 -0.1)">
       <use xlink:href="#DejaVuSans-53"/>
       <use x="63.623047" xlink:href="#DejaVuSans-48"/>
      </g>
     </g>
    </g>
    <g id="xtick_3">
     <g id="line2d_3">
      <g>
       <use style="stroke:#000000;stroke-width:0.8;" x="275.620626" xlink:href="#m07f2b0ff4a" y="352.174167"/>
      </g>
     </g>
     <g id="text_3">
      <!-- 100 -->
      <defs>
       <path d="M 12.40625 8.296875 
L 28.515625 8.296875 
L 28.515625 63.921875 
L 10.984375 60.40625 
L 10.984375 69.390625 
L 28.421875 72.90625 
L 38.28125 72.90625 
L 38.28125 8.296875 
L 54.390625 8.296875 
L 54.390625 0 
L 12.40625 0 
z
" id="DejaVuSans-49"/>
      </defs>
      <g transform="translate(266.076876 366.772604)scale(0.1 -0.1)">
       <use xlink:href="#DejaVuSans-49"/>
       <use x="63.623047" xlink:href="#DejaVuSans-48"/>
       <use x="127.246094" xlink:href="#DejaVuSans-48"/>
      </g>
     </g>
    </g>
    <g id="xtick_4">
     <g id="line2d_4">
      <g>
       <use style="stroke:#000000;stroke-width:0.8;" x="341.098833" xlink:href="#m07f2b0ff4a" y="352.174167"/>
      </g>
     </g>
     <g id="text_4">
      <!-- 150 -->
      <g transform="translate(331.555083 366.772604)scale(0.1 -0.1)">
       <use xlink:href="#DejaVuSans-49"/>
       <use x="63.623047" xlink:href="#DejaVuSans-53"/>
       <use x="127.246094" xlink:href="#DejaVuSans-48"/>
      </g>
     </g>
    </g>
    <g id="xtick_5">
     <g id="line2d_5">
      <g>
       <use style="stroke:#000000;stroke-width:0.8;" x="406.57704" xlink:href="#m07f2b0ff4a" y="352.174167"/>
      </g>
     </g>
     <g id="text_5">
      <!-- 200 -->
      <defs>
       <path d="M 19.1875 8.296875 
L 53.609375 8.296875 
L 53.609375 0 
L 7.328125 0 
L 7.328125 8.296875 
Q 12.9375 14.109375 22.625 23.890625 
Q 32.328125 33.6875 34.8125 36.53125 
Q 39.546875 41.84375 41.421875 45.53125 
Q 43.3125 49.21875 43.3125 52.78125 
Q 43.3125 58.59375 39.234375 62.25 
Q 35.15625 65.921875 28.609375 65.921875 
Q 23.96875 65.921875 18.8125 64.3125 
Q 13.671875 62.703125 7.8125 59.421875 
L 7.8125 69.390625 
Q 13.765625 71.78125 18.9375 73 
Q 24.125 74.21875 28.421875 74.21875 
Q 39.75 74.21875 46.484375 68.546875 
Q 53.21875 62.890625 53.21875 53.421875 
Q 53.21875 48.921875 51.53125 44.890625 
Q 49.859375 40.875 45.40625 35.40625 
Q 44.1875 33.984375 37.640625 27.21875 
Q 31.109375 20.453125 19.1875 8.296875 
z
" id="DejaVuSans-50"/>
      </defs>
      <g transform="translate(397.03329 366.772604)scale(0.1 -0.1)">
       <use xlink:href="#DejaVuSans-50"/>
       <use x="63.623047" xlink:href="#DejaVuSans-48"/>
       <use x="127.246094" xlink:href="#DejaVuSans-48"/>
      </g>
     </g>
    </g>
    <g id="xtick_6">
     <g id="line2d_6">
      <g>
       <use style="stroke:#000000;stroke-width:0.8;" x="472.055247" xlink:href="#m07f2b0ff4a" y="352.174167"/>
      </g>
     </g>
     <g id="text_6">
      <!-- 250 -->
      <g transform="translate(462.511497 366.772604)scale(0.1 -0.1)">
       <use xlink:href="#DejaVuSans-50"/>
       <use x="63.623047" xlink:href="#DejaVuSans-53"/>
       <use x="127.246094" xlink:href="#DejaVuSans-48"/>
      </g>
     </g>
    </g>
    <g id="xtick_7">
     <g id="line2d_7">
      <g>
       <use style="stroke:#000000;stroke-width:0.8;" x="537.533454" xlink:href="#m07f2b0ff4a" y="352.174167"/>
      </g>
     </g>
     <g id="text_7">
      <!-- 300 -->
      <defs>
       <path d="M 40.578125 39.3125 
Q 47.65625 37.796875 51.625 33 
Q 55.609375 28.21875 55.609375 21.1875 
Q 55.609375 10.40625 48.1875 4.484375 
Q 40.765625 -1.421875 27.09375 -1.421875 
Q 22.515625 -1.421875 17.65625 -0.515625 
Q 12.796875 0.390625 7.625 2.203125 
L 7.625 11.71875 
Q 11.71875 9.328125 16.59375 8.109375 
Q 21.484375 6.890625 26.8125 6.890625 
Q 36.078125 6.890625 40.9375 10.546875 
Q 45.796875 14.203125 45.796875 21.1875 
Q 45.796875 27.640625 41.28125 31.265625 
Q 36.765625 34.90625 28.71875 34.90625 
L 20.21875 34.90625 
L 20.21875 43.015625 
L 29.109375 43.015625 
Q 36.375 43.015625 40.234375 45.921875 
Q 44.09375 48.828125 44.09375 54.296875 
Q 44.09375 59.90625 40.109375 62.90625 
Q 36.140625 65.921875 28.71875 65.921875 
Q 24.65625 65.921875 20.015625 65.03125 
Q 15.375 64.15625 9.8125 62.3125 
L 9.8125 71.09375 
Q 15.4375 72.65625 20.34375 73.4375 
Q 25.25 74.21875 29.59375 74.21875 
Q 40.828125 74.21875 47.359375 69.109375 
Q 53.90625 64.015625 53.90625 55.328125 
Q 53.90625 49.265625 50.4375 45.09375 
Q 46.96875 40.921875 40.578125 39.3125 
z
" id="DejaVuSans-51"/>
      </defs>
      <g transform="translate(527.989704 366.772604)scale(0.1 -0.1)">
       <use xlink:href="#DejaVuSans-51"/>
       <use x="63.623047" xlink:href="#DejaVuSans-48"/>
       <use x="127.246094" xlink:href="#DejaVuSans-48"/>
      </g>
     </g>
    </g>
   </g>
   <g id="matplotlib.axis_2">
    <g id="ytick_1">
     <g id="line2d_8">
      <defs>
       <path d="M 0 0 
L -3.5 0 
" id="m9b991974c6" style="stroke:#000000;stroke-width:0.8;"/>
      </defs>
      <g>
       <use style="stroke:#000000;stroke-width:0.8;" x="120.878594" xlink:href="#m9b991974c6" y="352.174167"/>
      </g>
     </g>
     <g id="text_8">
      <!-- 0 -->
      <g transform="translate(107.516094 355.973385)scale(0.1 -0.1)">
       <use xlink:href="#DejaVuSans-48"/>
      </g>
     </g>
    </g>
    <g id="ytick_2">
     <g id="line2d_9">
      <g>
       <use style="stroke:#000000;stroke-width:0.8;" x="120.878594" xlink:href="#m9b991974c6" y="291.743421"/>
      </g>
     </g>
     <g id="text_9">
      <!-- 100000 -->
      <g transform="translate(75.703594 295.54264)scale(0.1 -0.1)">
       <use xlink:href="#DejaVuSans-49"/>
       <use x="63.623047" xlink:href="#DejaVuSans-48"/>
       <use x="127.246094" xlink:href="#DejaVuSans-48"/>
       <use x="190.869141" xlink:href="#DejaVuSans-48"/>
       <use x="254.492188" xlink:href="#DejaVuSans-48"/>
       <use x="318.115234" xlink:href="#DejaVuSans-48"/>
      </g>
     </g>
    </g>
    <g id="ytick_3">
     <g id="line2d_10">
      <g>
       <use style="stroke:#000000;stroke-width:0.8;" x="120.878594" xlink:href="#m9b991974c6" y="231.312676"/>
      </g>
     </g>
     <g id="text_10">
      <!-- 200000 -->
      <g transform="translate(75.703594 235.111894)scale(0.1 -0.1)">
       <use xlink:href="#DejaVuSans-50"/>
       <use x="63.623047" xlink:href="#DejaVuSans-48"/>
       <use x="127.246094" xlink:href="#DejaVuSans-48"/>
       <use x="190.869141" xlink:href="#DejaVuSans-48"/>
       <use x="254.492188" xlink:href="#DejaVuSans-48"/>
       <use x="318.115234" xlink:href="#DejaVuSans-48"/>
      </g>
     </g>
    </g>
    <g id="ytick_4">
     <g id="line2d_11">
      <g>
       <use style="stroke:#000000;stroke-width:0.8;" x="120.878594" xlink:href="#m9b991974c6" y="170.88193"/>
      </g>
     </g>
     <g id="text_11">
      <!-- 300000 -->
      <g transform="translate(75.703594 174.681149)scale(0.1 -0.1)">
       <use xlink:href="#DejaVuSans-51"/>
       <use x="63.623047" xlink:href="#DejaVuSans-48"/>
       <use x="127.246094" xlink:href="#DejaVuSans-48"/>
       <use x="190.869141" xlink:href="#DejaVuSans-48"/>
       <use x="254.492188" xlink:href="#DejaVuSans-48"/>
       <use x="318.115234" xlink:href="#DejaVuSans-48"/>
      </g>
     </g>
    </g>
    <g id="ytick_5">
     <g id="line2d_12">
      <g>
       <use style="stroke:#000000;stroke-width:0.8;" x="120.878594" xlink:href="#m9b991974c6" y="110.451185"/>
      </g>
     </g>
     <g id="text_12">
      <!-- 400000 -->
      <defs>
       <path d="M 37.796875 64.3125 
L 12.890625 25.390625 
L 37.796875 25.390625 
z
M 35.203125 72.90625 
L 47.609375 72.90625 
L 47.609375 25.390625 
L 58.015625 25.390625 
L 58.015625 17.1875 
L 47.609375 17.1875 
L 47.609375 0 
L 37.796875 0 
L 37.796875 17.1875 
L 4.890625 17.1875 
L 4.890625 26.703125 
z
" id="DejaVuSans-52"/>
      </defs>
      <g transform="translate(75.703594 114.250403)scale(0.1 -0.1)">
       <use xlink:href="#DejaVuSans-52"/>
       <use x="63.623047" xlink:href="#DejaVuSans-48"/>
       <use x="127.246094" xlink:href="#DejaVuSans-48"/>
       <use x="190.869141" xlink:href="#DejaVuSans-48"/>
       <use x="254.492188" xlink:href="#DejaVuSans-48"/>
       <use x="318.115234" xlink:href="#DejaVuSans-48"/>
      </g>
     </g>
    </g>
    <g id="ytick_6">
     <g id="line2d_13">
      <g>
       <use style="stroke:#000000;stroke-width:0.8;" x="120.878594" xlink:href="#m9b991974c6" y="50.020439"/>
      </g>
     </g>
     <g id="text_13">
      <!-- 500000 -->
      <g transform="translate(75.703594 53.819658)scale(0.1 -0.1)">
       <use xlink:href="#DejaVuSans-53"/>
       <use x="63.623047" xlink:href="#DejaVuSans-48"/>
       <use x="127.246094" xlink:href="#DejaVuSans-48"/>
       <use x="190.869141" xlink:href="#DejaVuSans-48"/>
       <use x="254.492188" xlink:href="#DejaVuSans-48"/>
       <use x="318.115234" xlink:href="#DejaVuSans-48"/>
      </g>
     </g>
    </g>
    <g id="text_14">
     <!-- queue -->
     <defs>
      <path d="M 14.796875 27.296875 
Q 14.796875 17.390625 18.875 11.75 
Q 22.953125 6.109375 30.078125 6.109375 
Q 37.203125 6.109375 41.296875 11.75 
Q 45.40625 17.390625 45.40625 27.296875 
Q 45.40625 37.203125 41.296875 42.84375 
Q 37.203125 48.484375 30.078125 48.484375 
Q 22.953125 48.484375 18.875 42.84375 
Q 14.796875 37.203125 14.796875 27.296875 
z
M 45.40625 8.203125 
Q 42.578125 3.328125 38.25 0.953125 
Q 33.9375 -1.421875 27.875 -1.421875 
Q 17.96875 -1.421875 11.734375 6.484375 
Q 5.515625 14.40625 5.515625 27.296875 
Q 5.515625 40.1875 11.734375 48.09375 
Q 17.96875 56 27.875 56 
Q 33.9375 56 38.25 53.625 
Q 42.578125 51.265625 45.40625 46.390625 
L 45.40625 54.6875 
L 54.390625 54.6875 
L 54.390625 -20.796875 
L 45.40625 -20.796875 
z
" id="DejaVuSans-113"/>
      <path d="M 8.5 21.578125 
L 8.5 54.6875 
L 17.484375 54.6875 
L 17.484375 21.921875 
Q 17.484375 14.15625 20.5 10.265625 
Q 23.53125 6.390625 29.59375 6.390625 
Q 36.859375 6.390625 41.078125 11.03125 
Q 45.3125 15.671875 45.3125 23.6875 
L 45.3125 54.6875 
L 54.296875 54.6875 
L 54.296875 0 
L 45.3125 0 
L 45.3125 8.40625 
Q 42.046875 3.421875 37.71875 1 
Q 33.40625 -1.421875 27.6875 -1.421875 
Q 18.265625 -1.421875 13.375 4.4375 
Q 8.5 10.296875 8.5 21.578125 
z
M 31.109375 56 
z
" id="DejaVuSans-117"/>
      <path d="M 56.203125 29.59375 
L 56.203125 25.203125 
L 14.890625 25.203125 
Q 15.484375 15.921875 20.484375 11.0625 
Q 25.484375 6.203125 34.421875 6.203125 
Q 39.59375 6.203125 44.453125 7.46875 
Q 49.3125 8.734375 54.109375 11.28125 
L 54.109375 2.78125 
Q 49.265625 0.734375 44.1875 -0.34375 
Q 39.109375 -1.421875 33.890625 -1.421875 
Q 20.796875 -1.421875 13.15625 6.1875 
Q 5.515625 13.8125 5.515625 26.8125 
Q 5.515625 40.234375 12.765625 48.109375 
Q 20.015625 56 32.328125 56 
Q 43.359375 56 49.78125 48.890625 
Q 56.203125 41.796875 56.203125 29.59375 
z
M 47.21875 32.234375 
Q 47.125 39.59375 43.09375 43.984375 
Q 39.0625 48.390625 32.421875 48.390625 
Q 24.90625 48.390625 20.390625 44.140625 
Q 15.875 39.890625 15.1875 32.171875 
z
" id="DejaVuSans-101"/>
     </defs>
     <g transform="translate(58.426094 209.283177)rotate(-90)scale(0.1 -0.1)">
      <use xlink:href="#DejaVuSans-113"/>
      <use x="63.476562" xlink:href="#DejaVuSans-117"/>
      <use x="126.855469" xlink:href="#DejaVuSans-101"/>
      <use x="188.378906" xlink:href="#DejaVuSans-117"/>
      <use x="251.757812" xlink:href="#DejaVuSans-101"/>
     </g>
     <!-- (bytes) -->
     <defs>
      <path d="M 31 75.875 
Q 24.46875 64.65625 21.28125 53.65625 
Q 18.109375 42.671875 18.109375 31.390625 
Q 18.109375 20.125 21.3125 9.0625 
Q 24.515625 -2 31 -13.1875 
L 23.1875 -13.1875 
Q 15.875 -1.703125 12.234375 9.375 
Q 8.59375 20.453125 8.59375 31.390625 
Q 8.59375 42.28125 12.203125 53.3125 
Q 15.828125 64.359375 23.1875 75.875 
z
" id="DejaVuSans-40"/>
      <path d="M 48.6875 27.296875 
Q 48.6875 37.203125 44.609375 42.84375 
Q 40.53125 48.484375 33.40625 48.484375 
Q 26.265625 48.484375 22.1875 42.84375 
Q 18.109375 37.203125 18.109375 27.296875 
Q 18.109375 17.390625 22.1875 11.75 
Q 26.265625 6.109375 33.40625 6.109375 
Q 40.53125 6.109375 44.609375 11.75 
Q 48.6875 17.390625 48.6875 27.296875 
z
M 18.109375 46.390625 
Q 20.953125 51.265625 25.265625 53.625 
Q 29.59375 56 35.59375 56 
Q 45.5625 56 51.78125 48.09375 
Q 58.015625 40.1875 58.015625 27.296875 
Q 58.015625 14.40625 51.78125 6.484375 
Q 45.5625 -1.421875 35.59375 -1.421875 
Q 29.59375 -1.421875 25.265625 0.953125 
Q 20.953125 3.328125 18.109375 8.203125 
L 18.109375 0 
L 9.078125 0 
L 9.078125 75.984375 
L 18.109375 75.984375 
z
" id="DejaVuSans-98"/>
      <path d="M 32.171875 -5.078125 
Q 28.375 -14.84375 24.75 -17.8125 
Q 21.140625 -20.796875 15.09375 -20.796875 
L 7.90625 -20.796875 
L 7.90625 -13.28125 
L 13.1875 -13.28125 
Q 16.890625 -13.28125 18.9375 -11.515625 
Q 21 -9.765625 23.484375 -3.21875 
L 25.09375 0.875 
L 2.984375 54.6875 
L 12.5 54.6875 
L 29.59375 11.921875 
L 46.6875 54.6875 
L 56.203125 54.6875 
z
" id="DejaVuSans-121"/>
      <path d="M 18.3125 70.21875 
L 18.3125 54.6875 
L 36.8125 54.6875 
L 36.8125 47.703125 
L 18.3125 47.703125 
L 18.3125 18.015625 
Q 18.3125 11.328125 20.140625 9.421875 
Q 21.96875 7.515625 27.59375 7.515625 
L 36.8125 7.515625 
L 36.8125 0 
L 27.59375 0 
Q 17.1875 0 13.234375 3.875 
Q 9.28125 7.765625 9.28125 18.015625 
L 9.28125 47.703125 
L 2.6875 47.703125 
L 2.6875 54.6875 
L 9.28125 54.6875 
L 9.28125 70.21875 
z
" id="DejaVuSans-116"/>
      <path d="M 44.28125 53.078125 
L 44.28125 44.578125 
Q 40.484375 46.53125 36.375 47.5 
Q 32.28125 48.484375 27.875 48.484375 
Q 21.1875 48.484375 17.84375 46.4375 
Q 14.5 44.390625 14.5 40.28125 
Q 14.5 37.15625 16.890625 35.375 
Q 19.28125 33.59375 26.515625 31.984375 
L 29.59375 31.296875 
Q 39.15625 29.25 43.1875 25.515625 
Q 47.21875 21.78125 47.21875 15.09375 
Q 47.21875 7.46875 41.1875 3.015625 
Q 35.15625 -1.421875 24.609375 -1.421875 
Q 20.21875 -1.421875 15.453125 -0.5625 
Q 10.6875 0.296875 5.421875 2 
L 5.421875 11.28125 
Q 10.40625 8.6875 15.234375 7.390625 
Q 20.0625 6.109375 24.8125 6.109375 
Q 31.15625 6.109375 34.5625 8.28125 
Q 37.984375 10.453125 37.984375 14.40625 
Q 37.984375 18.0625 35.515625 20.015625 
Q 33.0625 21.96875 24.703125 23.78125 
L 21.578125 24.515625 
Q 13.234375 26.265625 9.515625 29.90625 
Q 5.8125 33.546875 5.8125 39.890625 
Q 5.8125 47.609375 11.28125 51.796875 
Q 16.75 56 26.8125 56 
Q 31.78125 56 36.171875 55.265625 
Q 40.578125 54.546875 44.28125 53.078125 
z
" id="DejaVuSans-115"/>
      <path d="M 8.015625 75.875 
L 15.828125 75.875 
Q 23.140625 64.359375 26.78125 53.3125 
Q 30.421875 42.28125 30.421875 31.390625 
Q 30.421875 20.453125 26.78125 9.375 
Q 23.140625 -1.703125 15.828125 -13.1875 
L 8.015625 -13.1875 
Q 14.5 -2 17.703125 9.0625 
Q 20.90625 20.125 20.90625 31.390625 
Q 20.90625 42.671875 17.703125 53.65625 
Q 14.5 64.65625 8.015625 75.875 
z
" id="DejaVuSans-41"/>
     </defs>
     <g transform="translate(69.623906 211.294896)rotate(-90)scale(0.1 -0.1)">
      <use xlink:href="#DejaVuSans-40"/>
      <use x="39.013672" xlink:href="#DejaVuSans-98"/>
      <use x="102.490234" xlink:href="#DejaVuSans-121"/>
      <use x="161.669922" xlink:href="#DejaVuSans-116"/>
      <use x="200.878906" xlink:href="#DejaVuSans-101"/>
      <use x="262.402344" xlink:href="#DejaVuSans-115"/>
      <use x="314.501953" xlink:href="#DejaVuSans-41"/>
     </g>
    </g>
   </g>
   <g id="line2d_14">
    <path clip-path="url(#p17a6797769)" d="M 139.962933 352.174167 
L 144.16981 352.174167 
L 144.31479 185.658456 
L 144.461503 182.001187 
L 144.752226 341.195109 
L 145.178289 332.045894 
L 145.316427 340.280187 
L 145.454247 313.627811 
L 145.739626 184.743534 
L 146.029746 164.615262 
L 146.174742 159.125733 
L 146.319611 224.080324 
L 146.46412 196.637514 
L 146.608371 235.979138 
L 146.89321 225.915001 
L 147.036314 192.062906 
L 147.326405 52.079919 
L 147.466703 52.079919 
L 147.605914 66.718663 
L 147.746166 66.718663 
L 147.887129 50.250076 
L 148.027924 50.205357 
L 148.168047 79.051369 
L 148.306618 187.448415 
L 148.446455 50.210192 
L 148.58441 70.378349 
L 148.722243 160.040654 
L 149.009236 51.164997 
L 149.147103 64.88882 
L 149.289489 63.058977 
L 149.428549 51.164997 
L 149.570101 60.274328 
L 149.71362 51.085229 
L 149.854067 52.032783 
L 149.992496 56.654526 
L 150.269835 50.250076 
L 150.411838 51.164997 
L 150.550073 76.782799 
L 150.688502 51.120279 
L 150.826481 51.125113 
L 150.969453 50.210192 
L 151.255948 52.55853 
L 151.39388 51.164997 
L 151.67304 51.164997 
L 151.812166 52.99484 
L 151.956357 58.43965 
L 152.100031 51.125113 
L 152.383871 50.163056 
L 152.526218 52.684226 
L 152.664726 50.728687 
L 152.802643 52.128263 
L 152.942825 52.079919 
L 153.080959 53.907345 
L 153.219189 51.120279 
L 153.357062 51.164997 
L 153.495395 51.085229 
L 153.639771 54.625262 
L 153.785388 51.164997 
L 153.930597 59.877902 
L 154.075811 51.164997 
L 154.220868 55.414487 
L 154.360478 50.535309 
L 154.499585 52.079919 
L 154.638893 52.079919 
L 154.77865 51.164997 
L 155.201631 51.164997 
L 155.339879 50.250076 
L 155.477658 51.164997 
L 155.615429 50.250076 
L 155.754336 52.079919 
L 156.032256 52.079919 
L 156.175712 50.250076 
L 156.460831 50.250076 
L 156.60151 52.079919 
L 156.74204 50.250076 
L 156.885091 51.164997 
L 157.027566 51.164997 
L 157.311001 52.99484 
L 157.449192 50.250076 
L 157.588316 50.250076 
L 157.865158 52.99484 
L 158.002935 52.079919 
L 158.141002 52.079919 
L 158.2796 52.99484 
L 158.419889 51.164997 
L 158.700222 51.164997 
L 158.842101 52.99484 
L 158.984262 52.99484 
L 159.126406 51.72096 
L 159.268282 52.079919 
L 159.412007 51.164997 
L 159.550436 51.164997 
L 159.68863 52.079919 
L 159.826992 51.164997 
L 160.1061 67.952658 
L 160.243993 81.357406 
L 160.385903 82.272328 
L 160.525386 92.336464 
L 160.66367 52.079919 
L 160.803275 51.164997 
L 161.0793 52.99484 
L 161.217611 52.99484 
L 161.494844 50.250076 
L 161.776233 97.825993 
L 161.91686 98.740915 
L 162.059466 103.315522 
L 162.205087 92.336464 
L 162.350865 53.907345 
L 162.496661 52.99484 
L 162.641661 50.250076 
L 162.781858 52.079919 
L 162.920565 52.079919 
L 163.196229 50.250076 
L 163.334753 51.164997 
L 163.477126 51.164997 
L 163.758754 52.99484 
L 163.899773 52.99484 
L 164.041764 53.907345 
L 164.18676 51.164997 
L 164.328952 53.907345 
L 164.470387 51.164997 
L 164.611892 51.164997 
L 164.897105 52.99484 
L 165.039428 52.079919 
L 165.181754 52.079919 
L 165.321425 56.654526 
L 165.459659 51.164997 
L 165.738433 53.907345 
L 165.884024 52.99484 
L 166.021608 50.250076 
L 166.160189 52.079919 
L 166.299689 50.250076 
L 166.439084 52.079919 
L 166.578371 51.164997 
L 166.720383 52.079919 
L 166.863639 51.164997 
L 167.006192 53.907345 
L 167.150826 52.99484 
L 167.29184 52.99484 
L 167.432875 52.079919 
L 167.576231 55.739605 
L 167.858494 52.99484 
L 168.000682 53.907345 
L 168.142686 52.079919 
L 168.287036 54.824683 
L 168.428389 52.079919 
L 168.570182 52.079919 
L 168.711427 50.250076 
L 168.854226 50.250076 
L 168.996448 55.739605 
L 169.278708 51.164997 
L 169.421897 52.079919 
L 169.562874 50.250076 
L 169.841719 52.99484 
L 169.983263 51.164997 
L 170.124392 53.884381 
L 170.265218 52.99484 
L 170.545841 52.99484 
L 170.686504 53.907345 
L 170.826015 51.164997 
L 170.966362 52.079919 
L 171.106019 52.050912 
L 171.245946 53.907345 
L 171.384661 52.99484 
L 171.530982 52.99484 
L 171.67342 53.907345 
L 171.812611 52.050912 
L 171.957332 52.079919 
L 172.096959 51.164997 
L 172.376956 53.907345 
L 172.51446 51.164997 
L 172.653233 53.907345 
L 172.791632 53.907345 
L 173.073792 52.079919 
L 173.214272 53.907345 
L 173.355186 51.164997 
L 173.635727 51.164997 
L 173.775583 53.907345 
L 173.917447 53.907345 
L 174.195658 51.164997 
L 174.335535 56.654526 
L 174.474463 52.079919 
L 174.614749 52.99484 
L 174.893862 50.250076 
L 175.176589 91.421543 
L 175.464146 352.174167 
L 175.609279 352.174167 
L 176.03198 192.062906 
L 176.173345 185.658456 
L 176.314271 189.318142 
L 176.456413 182.913692 
L 176.598627 190.233063 
L 177.023297 225.915001 
L 177.166077 225.915001 
L 177.311339 217.680708 
L 177.453684 223.170237 
L 177.594548 214.935944 
L 177.736965 221.340394 
L 177.87679 218.59563 
L 178.016712 224.080324 
L 178.160011 222.255315 
L 178.301994 223.170237 
L 178.441552 228.659766 
L 178.580937 217.680708 
L 178.722935 220.425472 
L 179.011195 201.212121 
L 179.152265 209.446415 
L 179.296162 200.2972 
L 179.436439 199.382278 
L 179.578525 196.637514 
L 179.722185 196.637514 
L 179.864464 191.147985 
L 180.006197 195.722592 
L 180.149059 193.892749 
L 180.293163 190.233063 
L 180.436749 192.062906 
L 180.581734 183.828613 
L 180.721807 182.913692 
L 180.864878 164.615262 
L 181.007041 171.019712 
L 181.149345 159.105186 
L 181.292245 173.764477 
L 181.433548 157.29589 
L 181.576673 158.210811 
L 181.718996 147.231753 
L 181.861364 149.976518 
L 182.147186 136.252696 
L 182.429646 129.848245 
L 182.989284 99.655836 
L 183.133465 108.805051 
L 183.423444 80.442485 
L 183.568139 82.272328 
L 183.710271 72.208192 
L 183.849389 74.038035 
L 183.990041 63.973898 
L 184.134134 63.058977 
L 184.276381 52.079919 
L 184.419649 63.973898 
L 184.558944 63.973898 
L 184.69969 71.29327 
L 184.986666 60.314212 
L 185.132065 60.314212 
L 185.274802 73.123113 
L 185.4173 69.463427 
L 185.554985 51.164997 
L 185.837558 81.357406 
L 185.976526 74.946913 
L 186.114893 61.229134 
L 186.253204 63.973898 
L 186.395264 55.739605 
L 186.535722 60.314212 
L 186.675364 55.739605 
L 186.813069 58.484369 
L 187.095666 70.378349 
L 187.372655 52.079919 
L 187.651793 83.187249 
L 187.797297 85.017092 
L 187.935915 74.946913 
L 188.074154 56.654526 
L 188.351107 75.867877 
L 188.490761 66.718663 
L 188.629144 101.485679 
L 188.918883 352.174167 
L 189.063791 352.174167 
L 189.345181 223.170237 
L 189.485651 200.2972 
L 189.627034 196.637514 
L 189.766162 198.467357 
L 189.908103 190.233063 
L 190.187531 204.871807 
L 190.326203 214.021022 
L 190.468567 210.361336 
L 190.758124 230.489609 
L 190.899015 225.915001 
L 191.042391 225.00008 
L 191.18776 214.021022 
L 191.475613 225.915001 
L 191.617245 225.915001 
L 191.756583 222.255315 
L 191.899335 223.170237 
L 192.040797 220.425472 
L 192.181425 222.255315 
L 192.321204 220.425472 
L 192.750987 228.659766 
L 192.893024 217.680708 
L 193.178069 215.850865 
L 193.318599 210.361336 
L 193.604267 222.255315 
L 193.88986 213.106101 
L 194.031709 217.680708 
L 194.178967 215.850865 
L 194.31957 219.510551 
L 194.460159 217.680708 
L 194.602296 225.00008 
L 194.743253 217.680708 
L 194.885257 220.425472 
L 195.306883 214.021022 
L 195.449524 222.255315 
L 195.871406 216.765787 
L 196.009528 219.510551 
L 196.150783 214.021022 
L 196.288239 214.021022 
L 196.429282 214.935944 
L 196.574072 221.340394 
L 196.717713 211.276258 
L 196.865879 209.446415 
L 197.004292 212.191179 
L 197.142023 211.276258 
L 197.28599 213.106101 
L 197.569568 213.106101 
L 197.708548 218.59563 
L 197.850732 212.191179 
L 197.994913 223.170237 
L 198.279801 212.191179 
L 198.424172 209.446415 
L 198.569028 214.935944 
L 198.713796 210.361336 
L 198.852399 220.425472 
L 198.991351 210.361336 
L 199.136067 214.935944 
L 199.28278 211.276258 
L 199.429167 217.680708 
L 199.574056 211.276258 
L 199.718225 216.765787 
L 199.860833 212.191179 
L 200.001129 222.255315 
L 200.143104 214.935944 
L 200.282919 219.510551 
L 200.423834 210.361336 
L 200.562427 212.191179 
L 200.70378 205.786729 
L 200.848941 220.425472 
L 200.990742 212.191179 
L 201.135777 219.510551 
L 201.278289 213.106101 
L 201.420126 221.340394 
L 201.561541 216.765787 
L 201.701187 225.00008 
L 201.846393 215.850865 
L 201.987672 217.680708 
L 202.13549 239.638824 
L 202.281006 352.174167 
L 202.426499 352.174167 
L 202.571996 350.344324 
L 203.144453 201.212121 
L 203.576628 196.637514 
L 203.723336 205.786729 
L 203.867877 207.616572 
L 204.009768 207.616572 
L 204.298303 215.850865 
L 204.437036 214.021022 
L 204.575442 216.715025 
L 204.859489 213.106101 
L 205.140702 217.680708 
L 205.280283 209.446415 
L 205.421509 217.680708 
L 205.8429 213.106101 
L 205.988705 219.510551 
L 206.129749 213.106101 
L 206.272058 215.850865 
L 206.409808 210.361336 
L 206.551549 214.021022 
L 206.689089 209.446415 
L 206.826892 220.425472 
L 206.970852 212.191179 
L 207.108465 214.935944 
L 207.253403 208.531493 
L 207.395688 214.021022 
L 207.673474 215.850865 
L 207.957573 214.021022 
L 208.102559 214.021022 
L 208.24512 219.510551 
L 208.386326 216.765787 
L 208.666398 216.765787 
L 208.806489 213.106101 
L 208.951092 219.510551 
L 209.097275 214.935944 
L 209.239672 219.510551 
L 209.383307 215.850865 
L 209.522745 218.59563 
L 209.661598 217.655327 
L 209.800281 214.021022 
L 209.943949 215.850865 
L 210.084408 214.021022 
L 210.22406 214.021022 
L 210.50668 218.59563 
L 210.645321 217.680708 
L 210.78558 222.255315 
L 211.064038 213.106101 
L 211.207329 212.191179 
L 211.346758 210.361336 
L 211.490946 215.850865 
L 211.636214 215.850865 
L 211.920029 211.276258 
L 212.062363 219.510551 
L 212.200818 214.021022 
L 212.341673 217.680708 
L 212.482054 212.191179 
L 212.626789 221.340394 
L 212.767099 209.446415 
L 212.907108 216.765787 
L 213.05081 210.361336 
L 213.196058 217.680708 
L 213.3349 212.191179 
L 213.477677 215.850865 
L 213.61517 215.850865 
L 213.754205 219.510551 
L 213.89763 214.935944 
L 214.036729 217.680708 
L 214.181391 209.446415 
L 214.3213 216.765787 
L 214.465997 214.935944 
L 214.605214 218.59563 
L 214.744668 217.680708 
L 214.890183 218.59563 
L 215.034596 214.935944 
L 215.178531 218.59563 
L 215.323419 211.276258 
L 215.469157 214.935944 
L 215.903207 352.174167 
L 216.336796 243.29851 
L 216.625426 195.722592 
L 216.769547 192.977828 
L 216.911003 196.637514 
L 217.056559 192.977828 
L 217.200594 202.127043 
L 217.344182 202.127043 
L 217.48328 201.212121 
L 217.628228 211.276258 
L 217.772106 209.446415 
L 217.912275 216.765787 
L 218.193555 210.361336 
L 218.336167 210.361336 
L 218.481022 211.276258 
L 218.61992 213.106101 
L 218.758626 211.276258 
L 218.90502 213.106101 
L 219.050695 213.106101 
L 219.19668 216.765787 
L 219.336613 210.361336 
L 219.47724 214.021022 
L 219.616156 212.191179 
L 219.757001 221.340394 
L 219.898287 214.021022 
L 220.179858 214.021022 
L 220.320799 214.935944 
L 220.468137 214.935944 
L 220.615548 217.680708 
L 220.756234 214.935944 
L 220.89715 216.765787 
L 221.036005 214.021022 
L 221.18129 217.680708 
L 221.319678 211.276258 
L 221.461633 214.935944 
L 221.607696 213.106101 
L 221.753515 214.935944 
L 221.892225 212.191179 
L 222.032048 217.680708 
L 222.175183 213.106101 
L 222.316434 216.765787 
L 222.462233 215.850865 
L 222.603828 219.510551 
L 222.744992 214.021022 
L 222.888709 220.425472 
L 223.027739 213.106101 
L 223.165719 216.765787 
L 223.306191 211.276258 
L 223.444724 217.680708 
L 223.588074 210.361336 
L 223.727301 214.935944 
L 223.864608 207.616572 
L 224.00293 221.340394 
L 224.144626 214.935944 
L 224.290688 215.850865 
L 224.4299 210.361336 
L 224.573292 214.935944 
L 224.714786 214.021022 
L 224.857521 214.021022 
L 225.000516 210.361336 
L 225.281574 217.680708 
L 225.561164 214.021022 
L 225.700307 214.021022 
L 225.838929 218.59563 
L 225.977477 213.106101 
L 226.116476 215.850865 
L 226.254913 215.850865 
L 226.393952 214.021022 
L 226.533418 214.021022 
L 226.674409 214.935944 
L 226.812307 211.276258 
L 226.953962 216.765787 
L 227.092206 211.276258 
L 227.235962 214.935944 
L 227.374263 214.021022 
L 227.512973 214.021022 
L 227.65864 212.191179 
L 227.802927 214.935944 
L 227.948857 210.361336 
L 228.094591 216.765787 
L 228.238134 209.446415 
L 228.381082 214.935944 
L 228.519698 211.276258 
L 228.65851 217.680708 
L 228.797213 212.191179 
L 228.937036 214.935944 
L 229.075884 262.511861 
L 229.22049 352.174167 
L 229.366323 352.174167 
L 230.069234 197.552435 
L 230.208152 202.127043 
L 230.346597 196.637514 
L 230.485198 196.637514 
L 230.626571 195.722592 
L 231.062604 208.531493 
L 231.201815 209.446415 
L 231.340092 213.106101 
L 231.479066 208.531493 
L 231.620025 212.191179 
L 231.761854 209.446415 
L 231.905727 210.361336 
L 232.191315 214.935944 
L 232.329275 208.531493 
L 232.468409 213.106101 
L 232.606053 209.446415 
L 232.743583 214.021022 
L 232.881058 208.531493 
L 233.018503 215.850865 
L 233.157524 208.531493 
L 233.301735 215.850865 
L 233.443824 209.446415 
L 233.582784 214.021022 
L 233.72149 208.531493 
L 233.859852 214.935944 
L 234.002641 211.276258 
L 234.293465 214.021022 
L 234.579486 215.850865 
L 234.720472 217.680708 
L 234.85999 210.361336 
L 234.998079 214.021022 
L 235.136201 214.021022 
L 235.274226 214.935944 
L 235.412634 214.021022 
L 235.693747 211.276258 
L 235.832045 214.021022 
L 235.970794 212.191179 
L 236.110069 214.021022 
L 236.249362 213.106101 
L 236.387847 217.680708 
L 236.52645 214.021022 
L 236.664769 218.59563 
L 236.804762 214.885182 
L 236.943963 215.850865 
L 237.083206 212.191179 
L 237.222414 216.765787 
L 237.361284 211.276258 
L 237.505 215.850865 
L 237.650802 211.276258 
L 237.793568 217.680708 
L 237.932511 215.850865 
L 238.075496 219.510551 
L 238.220744 218.59563 
L 238.5111 213.106101 
L 238.656419 214.021022 
L 238.798211 213.08072 
L 238.941015 218.59563 
L 239.079728 214.935944 
L 239.222944 215.850865 
L 239.362647 214.935944 
L 239.643803 217.680708 
L 239.923985 211.276258 
L 240.068453 213.106101 
L 240.212889 211.276258 
L 240.357419 215.850865 
L 240.647592 215.850865 
L 240.785631 217.680708 
L 240.923637 212.191179 
L 241.06184 212.191179 
L 241.202511 215.850865 
L 241.348599 215.850865 
L 241.49195 213.106101 
L 241.633567 214.021022 
L 241.772658 217.680708 
L 241.916261 216.765787 
L 242.056894 219.510551 
L 242.338876 214.935944 
L 242.47914 237.808981 
L 242.62428 352.174167 
L 242.769699 352.174167 
L 242.915223 336.620501 
L 243.333161 209.446415 
L 243.470584 192.977828 
L 243.608182 196.637514 
L 243.749867 192.977828 
L 244.027619 199.382278 
L 244.165895 212.191179 
L 244.304029 209.446415 
L 244.442727 214.935944 
L 244.586121 214.935944 
L 244.7312 221.340394 
L 244.876647 213.106101 
L 245.021693 214.021022 
L 245.165791 208.531493 
L 245.309715 212.191179 
L 245.449805 212.191179 
L 245.595847 217.680708 
L 245.734265 214.935944 
L 245.877038 221.340394 
L 246.015313 218.59563 
L 246.154379 221.340394 
L 246.293177 215.850865 
L 246.431352 215.850865 
L 246.572617 209.446415 
L 246.711666 213.106101 
L 246.851895 211.276258 
L 246.993938 213.106101 
L 247.418527 213.106101 
L 247.559983 217.680708 
L 247.701812 212.191179 
L 247.845504 215.850865 
L 247.984688 214.021022 
L 248.1224 217.680708 
L 248.259978 211.276258 
L 248.39816 220.425472 
L 248.541795 213.106101 
L 248.681712 222.255315 
L 248.823703 212.191179 
L 248.969252 221.340394 
L 249.108467 213.106101 
L 249.254165 223.170237 
L 249.399874 214.021022 
L 249.538892 216.765787 
L 249.677061 210.361336 
L 249.81648 220.425472 
L 249.962109 212.191179 
L 250.107529 217.680708 
L 250.246319 214.021022 
L 250.384673 220.425472 
L 250.528403 214.021022 
L 250.673353 220.425472 
L 250.818657 218.59563 
L 250.958406 218.59563 
L 251.240454 216.765787 
L 251.521534 208.531493 
L 251.812256 215.850865 
L 251.957817 213.106101 
L 252.096499 214.935944 
L 252.235183 211.276258 
L 252.374618 215.850865 
L 252.513966 212.191179 
L 252.653409 214.935944 
L 252.79333 214.021022 
L 252.934405 214.935944 
L 253.075994 214.021022 
L 253.215802 215.850865 
L 253.494664 213.106101 
L 253.771245 211.276258 
L 253.909457 214.021022 
L 254.047644 210.361336 
L 254.188907 211.276258 
L 254.327302 209.446415 
L 254.465263 215.850865 
L 254.602791 212.191179 
L 254.740911 212.191179 
L 254.882169 210.361336 
L 255.025345 216.765787 
L 255.169749 213.106101 
L 255.309364 218.59563 
L 255.451568 209.446415 
L 255.591036 214.935944 
L 255.730759 209.446415 
L 255.875981 223.170237 
L 256.021911 333.875737 
L 256.167482 352.174167 
L 256.31298 352.174167 
L 256.741498 214.021022 
L 256.886461 198.467357 
L 257.031982 198.467357 
L 257.173417 195.722592 
L 257.313929 198.467357 
L 257.455676 193.892749 
L 257.742361 201.212121 
L 257.883314 214.935944 
L 258.025699 214.935944 
L 258.170824 220.425472 
L 258.314876 215.850865 
L 258.45737 217.680708 
L 258.600232 209.446415 
L 258.743293 214.021022 
L 258.881706 213.106101 
L 259.159297 216.765787 
L 259.297698 215.850865 
L 259.437917 214.021022 
L 259.577439 215.850865 
L 259.716612 214.935944 
L 259.854922 207.616572 
L 260.133744 214.021022 
L 260.274215 215.850865 
L 260.55928 213.106101 
L 260.704886 214.935944 
L 260.849211 213.106101 
L 260.993522 216.765787 
L 261.131086 216.765787 
L 261.275326 215.850865 
L 261.420379 215.850865 
L 261.562581 214.935944 
L 261.707218 215.850865 
L 261.845987 217.680708 
L 261.985534 212.191179 
L 262.123442 216.765787 
L 262.264659 212.191179 
L 262.40217 222.255315 
L 262.540451 213.106101 
L 262.680859 212.191179 
L 262.966179 216.765787 
L 263.10518 211.276258 
L 263.383571 214.935944 
L 263.521978 214.021022 
L 263.662784 214.021022 
L 263.808026 215.850865 
L 263.947139 210.361336 
L 264.086426 217.680708 
L 264.226539 211.276258 
L 264.371723 213.106101 
L 264.513389 211.276258 
L 264.656406 214.935944 
L 264.79748 213.106101 
L 264.94224 207.616572 
L 265.226609 215.850865 
L 265.369272 212.191179 
L 265.512649 217.680708 
L 265.6542 214.935944 
L 265.795884 215.850865 
L 265.940584 211.276258 
L 266.081779 212.191179 
L 266.225696 211.276258 
L 266.365694 214.021022 
L 266.505543 213.106101 
L 266.644788 214.021022 
L 266.783137 214.021022 
L 266.928984 219.510551 
L 267.074724 210.361336 
L 267.220646 214.935944 
L 267.366424 210.361336 
L 267.507652 219.510551 
L 267.650523 213.106101 
L 267.794523 217.680708 
L 267.941561 210.361336 
L 268.085149 215.850865 
L 268.231605 207.616572 
L 268.379034 208.531493 
L 268.666261 214.021022 
L 268.810011 213.106101 
L 268.955584 214.885182 
L 269.102181 210.361336 
L 269.244502 212.191179 
L 269.386394 236.894059 
L 269.527705 352.174167 
L 269.673136 352.174167 
L 269.819255 344.854795 
L 270.384921 197.552435 
L 270.524717 194.807671 
L 270.671193 197.552435 
L 270.815215 193.892749 
L 271.097996 203.040756 
L 271.245089 202.127043 
L 271.385473 202.127043 
L 271.530827 212.191179 
L 271.66873 212.191179 
L 271.811517 218.59563 
L 271.949388 214.935944 
L 272.088465 219.510551 
L 272.233187 215.850865 
L 272.371462 225.915001 
L 272.509886 217.680708 
L 272.648198 224.080324 
L 272.789849 217.680708 
L 272.930638 222.255315 
L 273.075079 215.850865 
L 273.213593 220.425472 
L 273.353817 213.106101 
L 273.636708 217.680708 
L 273.775611 220.425472 
L 273.922775 216.765787 
L 274.066832 219.510551 
L 274.209319 216.765787 
L 274.355747 221.340394 
L 274.496755 214.935944 
L 274.637237 219.510551 
L 274.782469 213.106101 
L 274.925388 218.59563 
L 275.065384 216.765787 
L 275.204035 218.59563 
L 275.485385 214.021022 
L 275.627312 214.021022 
L 275.766079 215.850865 
L 276.048244 213.106101 
L 276.188901 214.021022 
L 276.33406 213.106101 
L 276.481151 213.106101 
L 276.626143 216.765787 
L 276.769911 216.765787 
L 276.910698 214.935944 
L 277.050547 211.276258 
L 277.188555 215.850865 
L 277.471205 212.191179 
L 277.615383 213.106101 
L 277.892739 217.680708 
L 278.034045 217.680708 
L 278.181211 215.850865 
L 278.325846 221.340394 
L 278.468543 213.106101 
L 278.606999 217.680708 
L 278.745325 213.106101 
L 278.883663 214.021022 
L 279.023832 218.59563 
L 279.162167 217.680708 
L 279.442693 214.021022 
L 279.588842 218.59563 
L 280.008256 210.361336 
L 280.1504 221.340394 
L 280.291234 214.021022 
L 280.429277 221.340394 
L 280.571416 213.106101 
L 280.709483 219.510551 
L 280.849654 212.191179 
L 280.993794 224.080324 
L 281.132978 212.191179 
L 281.272627 222.255315 
L 281.418217 219.510551 
L 281.556496 222.255315 
L 281.69644 213.106101 
L 281.834039 222.255315 
L 281.978454 214.021022 
L 282.122788 215.850865 
L 282.268456 212.191179 
L 282.412075 216.765787 
L 282.555576 211.276258 
L 282.701367 215.850865 
L 282.839187 231.40453 
L 282.981285 352.174167 
L 283.126355 352.174167 
L 283.267478 341.195109 
L 283.689434 230.489609 
L 283.828036 203.040756 
L 284.110056 197.552435 
L 284.257274 203.956886 
L 284.396715 203.040756 
L 284.539688 209.446415 
L 284.684823 203.040756 
L 284.823002 215.850865 
L 284.961813 214.935944 
L 285.103495 223.170237 
L 285.245835 214.021022 
L 285.386386 220.425472 
L 285.66776 215.850865 
L 285.808638 217.680708 
L 285.952372 225.915001 
L 286.093171 215.850865 
L 286.238254 220.425472 
L 286.37718 214.935944 
L 286.51678 215.850865 
L 286.657397 215.850865 
L 286.7959 216.765787 
L 287.077887 220.425472 
L 287.220949 218.59563 
L 287.360128 218.59563 
L 287.500564 214.935944 
L 287.642355 217.680708 
L 287.784234 214.021022 
L 287.924778 219.510551 
L 288.066769 216.765787 
L 288.208542 218.59563 
L 288.351371 215.850865 
L 288.493681 218.59563 
L 288.634572 214.021022 
L 288.915733 217.680708 
L 289.197159 211.276258 
L 289.33685 220.425472 
L 289.477142 214.935944 
L 289.61962 214.935944 
L 289.75923 212.191179 
L 289.904716 217.680708 
L 290.045721 210.361336 
L 290.189499 219.510551 
L 290.331669 213.106101 
L 290.472435 215.850865 
L 290.613964 211.276258 
L 290.753162 214.021022 
L 290.895996 212.085425 
L 291.040771 214.935944 
L 291.186151 214.935944 
L 291.329742 215.850865 
L 291.467307 214.935944 
L 291.607091 220.425472 
L 291.746854 214.021022 
L 291.89081 218.59563 
L 292.028514 214.021022 
L 292.169008 218.59563 
L 292.306781 215.850865 
L 292.449593 220.425472 
L 292.59715 209.446415 
L 292.742176 214.021022 
L 292.882061 210.361336 
L 293.024752 217.680708 
L 293.163651 210.361336 
L 293.302735 220.425472 
L 293.443125 214.935944 
L 293.581155 218.59563 
L 293.727007 211.276258 
L 293.872712 219.510551 
L 294.013964 214.021022 
L 294.152307 220.425472 
L 294.289858 209.446415 
L 294.428149 215.850865 
L 294.707537 210.361336 
L 294.846925 211.276258 
L 294.989973 214.021022 
L 295.132543 211.276258 
L 295.271418 214.935944 
L 295.412189 212.191179 
L 295.550631 215.850865 
L 295.693929 210.361336 
L 295.833892 214.935944 
L 295.977101 214.021022 
L 296.121428 215.850865 
L 296.2631 222.255315 
L 296.408409 352.174167 
L 296.6986 352.174167 
L 297.113485 257.022332 
L 297.532766 200.2972 
L 297.821643 204.871807 
L 297.966254 202.127043 
L 298.24525 205.786729 
L 298.527463 221.340394 
L 298.671764 218.59563 
L 298.815163 221.340394 
L 298.958694 221.340394 
L 299.097214 219.510551 
L 299.235041 219.510551 
L 299.514339 215.850865 
L 299.653042 218.59563 
L 299.93617 216.765787 
L 300.074209 216.765787 
L 300.214864 214.021022 
L 300.35648 220.425472 
L 300.770316 210.361336 
L 300.910865 216.765787 
L 301.048436 209.446415 
L 301.186056 214.021022 
L 301.327075 209.446415 
L 301.464954 214.935944 
L 301.606787 210.361336 
L 301.752114 220.425472 
L 301.897389 215.850865 
L 302.037194 218.59563 
L 302.175814 210.361336 
L 302.318908 215.850865 
L 302.460766 216.765787 
L 302.601374 218.59563 
L 302.740026 212.191179 
L 302.882751 218.59563 
L 303.023381 216.765787 
L 303.164438 217.680708 
L 303.302791 213.106101 
L 303.44117 213.106101 
L 303.579165 209.446415 
L 303.717282 210.361336 
L 303.855785 213.106101 
L 303.994812 211.276258 
L 304.13729 212.191179 
L 304.27536 211.276258 
L 304.418869 215.850865 
L 304.55698 214.935944 
L 304.701763 214.935944 
L 304.844038 212.191179 
L 304.98207 212.191179 
L 305.122647 213.106101 
L 305.260716 212.191179 
L 305.401206 213.106101 
L 305.542682 215.850865 
L 305.682515 209.446415 
L 305.823376 210.361336 
L 305.970747 213.106101 
L 306.108508 211.276258 
L 306.246422 214.935944 
L 306.38451 209.446415 
L 306.523654 209.446415 
L 306.663831 210.361336 
L 306.804337 213.106101 
L 307.226749 210.361336 
L 307.367248 215.850865 
L 307.509162 211.276258 
L 307.653891 213.106101 
L 307.936802 207.616572 
L 308.074433 209.446415 
L 308.221559 214.935944 
L 308.366439 209.446415 
L 308.507061 215.850865 
L 308.649427 213.106101 
L 308.790636 215.850865 
L 308.931025 210.361336 
L 309.073383 212.191179 
L 309.212966 210.361336 
L 309.35252 214.021022 
L 309.496678 210.361336 
L 309.641718 214.935944 
L 310.076317 352.174167 
L 310.64774 214.021022 
L 310.789339 198.467357 
L 310.927106 200.2972 
L 311.064724 199.382278 
L 311.202353 201.212121 
L 311.339795 200.2972 
L 311.615837 203.956886 
L 311.754996 215.850865 
L 311.898479 214.021022 
L 312.334779 218.59563 
L 312.472529 214.021022 
L 312.610134 216.765787 
L 312.751017 213.106101 
L 312.890216 216.765787 
L 313.029437 211.276258 
L 313.171593 216.765787 
L 313.316458 212.191179 
L 313.454446 214.935944 
L 313.592127 208.531493 
L 313.72962 217.680708 
L 313.868063 216.765787 
L 314.009218 219.510551 
L 314.147516 218.59563 
L 314.285812 219.510551 
L 314.426405 214.935944 
L 314.569915 218.59563 
L 314.71499 214.021022 
L 314.852925 217.680708 
L 314.990955 211.276258 
L 315.134439 217.680708 
L 315.416553 213.106101 
L 315.555787 211.276258 
L 315.833699 217.680708 
L 316.118497 213.106101 
L 316.261624 213.106101 
L 316.401417 215.850865 
L 316.544251 207.616572 
L 316.686501 213.106101 
L 316.825259 208.531493 
L 316.970374 212.191179 
L 317.115151 211.276258 
L 317.255267 213.106101 
L 317.395193 206.70165 
L 317.534069 216.765787 
L 317.672885 211.276258 
L 317.811323 217.680708 
L 317.950071 211.276258 
L 318.090623 216.765787 
L 318.231146 211.276258 
L 318.372531 214.021022 
L 318.511654 206.70165 
L 318.652091 214.935944 
L 318.793475 212.191179 
L 318.934848 217.680708 
L 319.073308 210.361336 
L 319.211651 212.191179 
L 319.349794 208.531493 
L 319.487994 213.106101 
L 319.766829 209.446415 
L 319.910343 214.021022 
L 320.054977 211.276258 
L 320.199719 212.191179 
L 320.344416 212.191179 
L 320.482009 210.361336 
L 320.621494 214.935944 
L 320.760879 214.935944 
L 320.90177 213.106101 
L 321.041271 215.850865 
L 321.183768 210.361336 
L 321.321619 213.106101 
L 321.460026 209.446415 
L 321.598372 215.850865 
L 321.736797 213.106101 
L 321.875171 215.850865 
L 322.013426 213.106101 
L 322.151664 215.850865 
L 322.291858 210.361336 
L 322.432704 218.59563 
L 322.570999 211.276258 
L 322.708547 214.021022 
L 322.846905 211.276258 
L 322.985457 217.680708 
L 323.126765 213.106101 
L 323.416211 352.174167 
L 323.56155 352.174167 
L 324.284004 199.382278 
L 324.422356 202.127043 
L 324.561736 194.807671 
L 324.700825 198.467357 
L 324.839929 197.552435 
L 325.26351 213.106101 
L 325.403928 209.446415 
L 325.82172 217.680708 
L 325.959931 210.361336 
L 326.098332 213.106101 
L 326.236833 212.191179 
L 326.375141 213.106101 
L 326.665454 210.361336 
L 326.810701 214.021022 
L 326.958417 211.276258 
L 327.102781 216.765787 
L 327.250169 213.106101 
L 327.396995 214.935944 
L 327.542105 214.021022 
L 327.686492 212.191179 
L 327.832155 213.106101 
L 327.977737 214.935944 
L 328.115296 214.935944 
L 328.253547 213.106101 
L 328.529423 215.850865 
L 328.804811 211.276258 
L 328.946736 211.276258 
L 329.091669 215.850865 
L 329.237339 214.935944 
L 329.521712 212.191179 
L 329.667398 217.680708 
L 329.812516 214.021022 
L 329.952116 218.59563 
L 330.090385 214.935944 
L 330.230446 215.745111 
L 330.374294 213.106101 
L 330.512598 217.680708 
L 330.651085 213.055339 
L 330.790047 214.021022 
L 330.928347 211.276258 
L 331.066895 214.935944 
L 331.205336 209.446415 
L 331.344078 215.850865 
L 331.482722 213.106101 
L 331.621172 217.680708 
L 331.766281 212.191179 
L 331.912357 213.106101 
L 332.059635 213.106101 
L 332.201601 215.850865 
L 332.345633 213.106101 
L 332.487722 218.59563 
L 332.631411 215.850865 
L 332.772246 216.765787 
L 332.914319 213.106101 
L 333.059941 216.765787 
L 333.20523 214.021022 
L 333.345276 215.800103 
L 333.486037 214.021022 
L 333.623972 220.425472 
L 333.900499 214.935944 
L 334.038937 214.935944 
L 334.177082 217.680708 
L 334.316613 223.170237 
L 334.456265 219.510551 
L 334.595613 224.080324 
L 334.876196 214.021022 
L 335.019058 217.680708 
L 335.162424 214.935944 
L 335.307522 220.425472 
L 335.445882 221.340394 
L 335.587984 223.170237 
L 335.726499 222.255315 
L 335.868326 216.765787 
L 336.008955 220.425472 
L 336.152249 214.935944 
L 336.296943 218.59563 
L 336.439414 218.59563 
L 336.579421 222.255315 
L 336.868412 352.174167 
L 337.014513 352.174167 
L 337.706095 192.977828 
L 337.84505 194.807671 
L 337.987416 192.062906 
L 338.132232 195.722592 
L 338.277825 195.722592 
L 338.423181 203.040756 
L 338.570226 203.956886 
L 338.993304 214.935944 
L 339.134039 210.361336 
L 339.274351 211.276258 
L 339.415097 207.616572 
L 339.557548 213.106101 
L 339.699806 210.361336 
L 339.841751 216.765787 
L 340.129736 212.191179 
L 340.267877 211.276258 
L 340.54406 214.935944 
L 340.682709 215.850865 
L 340.825388 210.361336 
L 341.111364 216.765787 
L 341.533673 212.191179 
L 341.677635 214.021022 
L 341.96147 209.446415 
L 342.24843 214.021022 
L 342.387183 212.191179 
L 342.52738 213.106101 
L 342.668651 211.276258 
L 342.80736 213.106101 
L 342.946116 211.276258 
L 343.084745 211.276258 
L 343.223382 212.191179 
L 343.501263 212.191179 
L 343.639976 214.935944 
L 343.778297 214.935944 
L 343.916194 214.021022 
L 344.060491 211.276258 
L 344.198925 214.935944 
L 344.343271 210.361336 
L 344.632152 220.425472 
L 345.053162 214.935944 
L 345.190833 218.59563 
L 345.606033 212.191179 
L 345.743499 215.850865 
L 345.884371 213.106101 
L 346.172899 220.425472 
L 346.317889 218.59563 
L 346.458782 214.935944 
L 346.597493 220.425472 
L 346.7393 211.276258 
L 346.87865 214.935944 
L 347.017057 212.191179 
L 347.155328 216.765787 
L 347.292797 214.021022 
L 347.430921 216.765787 
L 347.56918 212.191179 
L 347.707838 218.59563 
L 347.847879 213.106101 
L 347.98686 214.021022 
L 348.125377 208.531493 
L 348.26362 218.59563 
L 348.404046 216.765787 
L 348.544586 216.765787 
L 348.685418 213.106101 
L 348.82387 214.935944 
L 348.972003 212.191179 
L 349.113107 220.425472 
L 349.254792 212.191179 
L 349.398183 219.510551 
L 349.538449 214.935944 
L 349.679634 217.680708 
L 349.821774 212.191179 
L 349.962232 215.850865 
L 350.103732 210.361336 
L 350.241866 352.174167 
L 350.530052 352.174167 
L 350.945313 250.617882 
L 351.228968 193.892749 
L 351.374504 195.722592 
L 351.519799 192.977828 
L 351.80998 201.212121 
L 351.952306 201.212121 
L 352.097401 206.70165 
L 352.235475 207.616572 
L 352.381566 212.191179 
L 352.526987 220.425472 
L 352.672652 211.276258 
L 352.81189 214.021022 
L 352.950796 211.276258 
L 353.08989 215.850865 
L 353.228529 213.106101 
L 353.368418 215.850865 
L 353.506889 208.531493 
L 353.646016 216.765787 
L 353.784849 210.361336 
L 353.924554 215.850865 
L 354.066121 214.021022 
L 354.209237 216.765787 
L 354.3469 213.106101 
L 354.48533 213.106101 
L 354.623538 207.616572 
L 354.764654 214.021022 
L 354.905665 210.361336 
L 355.046742 217.680708 
L 355.186068 212.191179 
L 355.327371 212.191179 
L 355.609508 208.531493 
L 356.031855 213.106101 
L 356.173701 209.446415 
L 356.315527 215.850865 
L 356.459101 211.276258 
L 356.602509 216.765787 
L 356.743645 214.021022 
L 356.882514 215.850865 
L 357.024469 214.935944 
L 357.168205 216.765787 
L 357.454041 209.446415 
L 357.597497 213.106101 
L 357.888416 209.446415 
L 358.028496 215.850865 
L 358.172906 214.935944 
L 358.317845 213.106101 
L 358.462911 215.850865 
L 358.604877 212.191179 
L 358.889511 217.680708 
L 359.174283 211.276258 
L 359.462156 217.680708 
L 359.604395 217.680708 
L 359.745624 215.850865 
L 359.889979 217.680708 
L 360.033519 214.021022 
L 360.171414 214.021022 
L 360.453251 215.850865 
L 360.591309 218.59563 
L 360.72962 213.106101 
L 360.867819 213.106101 
L 361.005806 219.510551 
L 361.143515 211.276258 
L 361.290297 212.191179 
L 361.585047 215.850865 
L 361.723431 213.106101 
L 361.861492 214.021022 
L 362.002302 208.531493 
L 362.144158 215.850865 
L 362.286351 205.786729 
L 362.424435 216.765787 
L 362.56254 210.361336 
L 362.700715 214.935944 
L 362.839345 206.70165 
L 362.9806 216.765787 
L 363.122303 206.70165 
L 363.262898 214.935944 
L 363.402479 211.276258 
L 363.541502 215.850865 
L 363.685896 352.174167 
L 363.978667 352.174167 
L 364.545869 220.425472 
L 364.687271 201.212121 
L 364.829568 201.212121 
L 364.97448 196.637514 
L 365.115389 201.212121 
L 365.25435 197.552435 
L 365.532245 206.70165 
L 365.671251 218.59563 
L 365.813343 211.276258 
L 365.953027 220.425472 
L 366.092981 210.361336 
L 366.236284 215.850865 
L 366.37534 210.361336 
L 366.51355 215.850865 
L 366.655696 212.191179 
L 366.799688 213.106101 
L 366.937914 213.106101 
L 367.077913 219.510551 
L 367.219513 214.021022 
L 367.363425 217.680708 
L 367.788853 212.191179 
L 368.064545 217.680708 
L 368.202576 214.935944 
L 368.343968 221.340394 
L 368.622042 215.850865 
L 368.763135 213.106101 
L 368.901506 216.765787 
L 369.042691 210.361336 
L 369.184928 216.765787 
L 369.323014 209.446415 
L 369.466158 219.510551 
L 369.607418 213.106101 
L 369.750415 215.850865 
L 369.894375 213.106101 
L 370.035266 214.021022 
L 370.176135 212.191179 
L 370.316245 221.340394 
L 370.460732 210.361336 
L 370.603626 218.59563 
L 370.743894 210.361336 
L 370.882814 217.680708 
L 371.080088 214.021022 
L 371.218302 215.850865 
L 371.36218 207.616572 
L 371.502763 218.59563 
L 371.783831 214.935944 
L 371.924766 214.935944 
L 372.062939 217.680708 
L 372.204374 212.191179 
L 372.349754 220.425472 
L 372.487753 213.106101 
L 372.633068 219.510551 
L 372.772134 212.191179 
L 372.911271 220.425472 
L 373.051436 211.276258 
L 373.191055 220.425472 
L 373.332625 216.765787 
L 373.472551 219.510551 
L 373.617695 216.765787 
L 373.759811 221.340394 
L 373.900146 215.850865 
L 374.039656 214.935944 
L 374.319454 216.765787 
L 374.463991 215.850865 
L 374.60338 221.340394 
L 374.744285 212.191179 
L 374.882673 218.59563 
L 375.025235 216.765787 
L 375.165787 216.765787 
L 375.309044 213.106101 
L 375.454232 214.935944 
L 375.59251 214.021022 
L 375.735061 218.59563 
L 375.873427 216.765787 
L 376.014894 218.59563 
L 376.154639 213.106101 
L 376.299597 217.680708 
L 376.43764 213.106101 
L 376.575764 214.021022 
L 376.713678 218.59563 
L 376.85471 212.191179 
L 376.995153 218.59563 
L 377.133255 352.174167 
L 377.423352 352.174167 
L 377.987086 196.637514 
L 378.132064 192.062906 
L 378.276805 196.637514 
L 378.418001 193.892749 
L 378.558745 195.722592 
L 378.846379 207.616572 
L 378.985328 206.70165 
L 379.13105 214.021022 
L 379.271729 210.361336 
L 379.415239 218.59563 
L 379.555614 214.935944 
L 379.697354 219.48517 
L 379.839263 212.191179 
L 379.98214 218.59563 
L 380.122279 212.191179 
L 380.26557 218.59563 
L 380.406544 211.276258 
L 380.547383 214.021022 
L 380.691535 212.191179 
L 380.971995 217.680708 
L 381.110849 223.170237 
L 381.252414 214.021022 
L 381.394943 224.080324 
L 381.535554 214.935944 
L 381.673788 222.255315 
L 381.816991 211.276258 
L 381.959861 214.021022 
L 382.098032 208.531493 
L 382.237535 214.021022 
L 382.383128 210.361336 
L 382.527966 210.361336 
L 382.666179 214.935944 
L 382.804565 214.935944 
L 383.083313 210.361336 
L 383.225222 211.276258 
L 383.365307 217.680708 
L 383.505888 215.850865 
L 383.644854 215.850865 
L 383.926689 210.361336 
L 384.069668 212.191179 
L 384.210583 212.191179 
L 384.351027 216.765787 
L 384.493028 212.191179 
L 384.635806 215.850865 
L 384.774835 208.531493 
L 384.917591 214.935944 
L 385.059777 208.531493 
L 385.199057 216.765787 
L 385.340318 210.361336 
L 385.478912 214.935944 
L 385.617425 213.106101 
L 385.757551 214.021022 
L 385.902374 210.361336 
L 386.045265 211.276258 
L 386.190426 210.361336 
L 386.328397 214.935944 
L 386.472496 212.191179 
L 386.610772 214.935944 
L 386.749959 214.021022 
L 386.890192 214.935944 
L 387.028341 211.276258 
L 387.166558 212.191179 
L 387.308629 216.765787 
L 387.591786 214.935944 
L 387.736955 215.850865 
L 388.017306 210.361336 
L 388.30037 213.106101 
L 388.438769 207.616572 
L 388.579021 211.276258 
L 388.716684 205.786729 
L 388.991774 215.850865 
L 389.129348 214.021022 
L 389.26707 215.850865 
L 389.406427 213.106101 
L 389.54416 214.021022 
L 389.681804 209.446415 
L 389.820462 210.361336 
L 389.959613 209.446415 
L 390.102338 210.361336 
L 390.245183 213.106101 
L 390.384682 213.106101 
L 390.524748 234.149295 
L 390.670645 352.174167 
L 390.815862 352.174167 
L 390.958595 332.960815 
L 391.528519 195.722592 
L 391.673262 199.382278 
L 391.818922 193.892749 
L 391.958716 196.637514 
L 392.097342 195.722592 
L 392.235938 199.382278 
L 392.373712 197.552435 
L 392.514412 218.59563 
L 392.656889 214.935944 
L 392.79976 219.510551 
L 392.939669 218.59563 
L 393.361882 214.021022 
L 393.499352 213.106101 
L 393.77427 215.850865 
L 393.911985 216.765787 
L 394.056515 219.510551 
L 394.200987 217.680708 
L 394.339541 219.510551 
L 394.482264 214.935944 
L 394.761706 218.59563 
L 395.038871 213.106101 
L 395.177129 214.021022 
L 395.314366 210.361336 
L 395.588905 216.765787 
L 395.864439 212.191179 
L 396.003521 213.106101 
L 396.14112 214.935944 
L 396.278418 214.935944 
L 396.418588 212.191179 
L 396.555991 216.765787 
L 396.696784 215.850865 
L 396.839541 222.255315 
L 396.981738 214.021022 
L 397.124 213.106101 
L 397.26307 211.276258 
L 397.401738 217.680708 
L 397.540671 214.935944 
L 397.821005 216.765787 
L 397.961598 214.935944 
L 398.100354 220.425472 
L 398.238987 214.021022 
L 398.381603 214.935944 
L 398.524374 216.765787 
L 398.807651 212.191179 
L 398.953229 214.935944 
L 399.100391 214.021022 
L 399.239717 215.850865 
L 399.517052 220.425472 
L 399.795535 212.191179 
L 399.941265 221.340394 
L 400.379452 214.935944 
L 400.517442 214.935944 
L 400.935429 217.680708 
L 401.079712 217.680708 
L 401.225891 214.935944 
L 401.37046 218.59563 
L 401.509159 217.680708 
L 401.649632 215.850865 
L 401.793515 218.59563 
L 401.932952 214.021022 
L 402.072687 221.340394 
L 402.211626 215.850865 
L 402.350393 216.765787 
L 402.492106 214.935944 
L 402.631791 214.935944 
L 402.771147 217.680708 
L 402.909854 213.106101 
L 403.192957 215.850865 
L 403.333923 214.935944 
L 403.614611 214.935944 
L 403.756412 217.680708 
L 403.896389 211.276258 
L 404.03592 339.365266 
L 404.178877 352.174167 
L 404.323334 352.174167 
L 404.894969 249.70296 
L 405.179764 203.040756 
L 405.322699 198.467357 
L 405.464813 200.2972 
L 405.602931 200.2972 
L 405.742428 209.446415 
L 405.881627 201.212121 
L 406.02133 214.935944 
L 406.160876 212.191179 
L 406.30411 217.680708 
L 406.44917 214.935944 
L 406.592527 218.59563 
L 406.735496 214.021022 
L 406.87755 220.425472 
L 407.022951 211.276258 
L 407.167257 216.765787 
L 407.312088 214.021022 
L 407.456947 220.425472 
L 407.602245 214.021022 
L 407.742441 217.680708 
L 407.881492 209.446415 
L 408.019425 221.340394 
L 408.15909 214.021022 
L 408.297319 219.510551 
L 408.435439 214.935944 
L 408.573748 216.765787 
L 408.713212 215.850865 
L 408.852521 213.915268 
L 408.991483 210.361336 
L 409.131962 217.680708 
L 409.273243 218.59563 
L 409.411628 215.850865 
L 409.692569 220.425472 
L 409.967941 214.021022 
L 410.107198 216.765787 
L 410.251916 209.446415 
L 410.3929 219.510551 
L 410.530832 213.106101 
L 410.676647 218.59563 
L 410.821186 212.191179 
L 410.958745 213.106101 
L 411.096187 210.361336 
L 411.371116 215.850865 
L 411.649822 215.825484 
L 411.788881 214.935944 
L 411.927258 214.935944 
L 412.06571 213.106101 
L 412.213291 214.021022 
L 412.357268 216.765787 
L 412.502338 214.935944 
L 412.647364 208.531493 
L 412.794593 215.850865 
L 412.941118 212.191179 
L 413.088317 215.850865 
L 413.226326 214.935944 
L 413.364449 214.935944 
L 413.503377 209.446415 
L 413.641799 214.935944 
L 413.779789 214.935944 
L 413.918085 211.276258 
L 414.055985 214.021022 
L 414.199176 211.276258 
L 414.341808 215.850865 
L 414.480234 210.361336 
L 414.619019 214.935944 
L 414.760475 212.191179 
L 414.902416 214.935944 
L 415.041118 210.361336 
L 415.179583 213.106101 
L 415.318767 209.446415 
L 415.457905 218.59563 
L 415.597807 210.361336 
L 415.736162 213.106101 
L 415.873718 212.191179 
L 416.148947 214.021022 
L 416.286778 210.361336 
L 416.425106 214.021022 
L 416.566893 213.106101 
L 416.707182 214.935944 
L 416.84552 212.191179 
L 416.991412 217.680708 
L 417.129178 212.191179 
L 417.266839 215.850865 
L 417.40661 208.531493 
L 417.551248 352.174167 
L 417.696247 352.174167 
L 417.841109 350.344324 
L 418.556245 197.552435 
L 418.696412 201.212121 
L 418.838051 198.467357 
L 418.983026 202.127043 
L 419.128934 198.467357 
L 419.418542 204.871807 
L 419.565875 215.850865 
L 419.713007 212.191179 
L 419.860242 217.680708 
L 420.00168 208.531493 
L 420.139912 213.106101 
L 420.279655 207.616572 
L 420.41937 219.510551 
L 420.56146 210.361336 
L 420.701207 218.59563 
L 420.847006 213.106101 
L 420.988407 221.340394 
L 421.129595 212.191179 
L 421.268831 214.935944 
L 421.409098 213.106101 
L 421.547391 220.425472 
L 421.685132 213.106101 
L 421.827873 220.425472 
L 421.973241 213.106101 
L 422.112322 215.850865 
L 422.251662 214.935944 
L 422.390795 219.510551 
L 422.533043 211.276258 
L 422.676548 221.340394 
L 422.818554 212.191179 
L 422.964321 219.510551 
L 423.111729 213.106101 
L 423.257552 215.850865 
L 423.401954 210.361336 
L 423.546033 217.680708 
L 423.689795 216.765787 
L 423.830818 218.59563 
L 423.974595 212.191179 
L 424.114358 220.425472 
L 424.258339 219.510551 
L 424.541573 214.021022 
L 424.685652 215.850865 
L 424.967224 212.191179 
L 425.389359 219.510551 
L 425.531649 215.850865 
L 425.673272 216.765787 
L 425.818312 212.191179 
L 425.964179 215.850865 
L 426.107324 213.106101 
L 426.388811 217.680708 
L 426.529007 214.021022 
L 426.669991 216.765787 
L 426.811889 215.850865 
L 427.094952 213.106101 
L 427.237145 213.106101 
L 427.382502 210.361336 
L 427.669411 214.021022 
L 427.811722 212.191179 
L 427.955468 215.850865 
L 428.097486 212.191179 
L 428.235992 213.106101 
L 428.378219 216.765787 
L 428.521329 215.850865 
L 428.663072 207.616572 
L 428.801476 214.021022 
L 428.94314 213.106101 
L 429.082139 215.850865 
L 429.224938 211.276258 
L 429.364301 216.765787 
L 429.506359 213.106101 
L 429.64605 216.765787 
L 429.785638 211.276258 
L 429.929583 215.850865 
L 430.07593 210.361336 
L 430.215638 222.255315 
L 430.360647 214.021022 
L 430.504583 217.680708 
L 430.643919 214.021022 
L 430.789268 216.765787 
L 430.928522 260.682018 
L 431.073019 352.174167 
L 431.219023 352.174167 
L 431.503612 307.343014 
L 431.647952 288.129663 
L 431.927941 213.106101 
L 432.072081 192.977828 
L 432.214525 196.637514 
L 432.359424 196.637514 
L 432.501643 195.722592 
L 432.641088 198.467357 
L 432.780839 198.467357 
L 433.205462 214.021022 
L 433.35064 213.106101 
L 433.495601 215.850865 
L 433.639406 213.106101 
L 433.78408 221.340394 
L 433.929051 221.340394 
L 434.213315 212.191179 
L 434.35262 218.59563 
L 434.497086 218.59563 
L 434.779187 214.935944 
L 434.920602 214.021022 
L 435.064868 216.765787 
L 435.205013 216.765787 
L 435.347013 214.935944 
L 435.492352 214.935944 
L 435.630617 212.191179 
L 435.916367 215.850865 
L 436.060355 214.935944 
L 436.200543 219.510551 
L 436.339586 215.850865 
L 436.480785 217.680708 
L 436.623423 217.680708 
L 436.761609 215.850865 
L 437.184993 215.850865 
L 437.464114 217.680708 
L 437.605929 214.935944 
L 437.746998 214.935944 
L 437.884981 215.850865 
L 438.023076 215.850865 
L 438.304392 211.276258 
L 438.449315 210.361336 
L 438.590439 214.021022 
L 438.733921 212.191179 
L 439.010486 214.935944 
L 439.150564 212.191179 
L 439.2922 215.850865 
L 439.432231 215.850865 
L 439.572039 213.106101 
L 439.716836 217.680708 
L 439.858511 215.850865 
L 439.998144 216.765787 
L 440.140496 214.021022 
L 440.280846 216.765787 
L 440.421365 213.106101 
L 440.563562 217.680708 
L 440.705978 212.191179 
L 440.84491 216.765787 
L 440.985662 214.021022 
L 441.127743 219.510551 
L 441.268865 214.935944 
L 441.411413 216.765787 
L 441.554247 215.850865 
L 441.697992 216.765787 
L 441.841502 218.59563 
L 441.984128 216.765787 
L 442.12792 216.765787 
L 442.271414 219.510551 
L 442.414051 214.935944 
L 442.552504 214.935944 
L 442.69453 217.680708 
L 442.837025 216.765787 
L 442.980218 216.765787 
L 443.119084 220.425472 
L 443.258535 216.765787 
L 443.396853 218.59563 
L 443.538737 211.276258 
L 443.682354 215.850865 
L 443.965504 209.446415 
L 444.247935 212.191179 
L 444.386264 256.10741 
L 444.531036 352.174167 
L 444.676061 352.174167 
L 445.516147 203.040756 
L 445.656406 201.212121 
L 445.796333 202.127043 
L 445.936149 202.127043 
L 446.07617 201.212121 
L 446.647005 223.170237 
L 446.788521 220.425472 
L 446.932468 222.255315 
L 447.077617 217.680708 
L 447.216775 217.680708 
L 447.499895 213.106101 
L 447.643511 210.361336 
L 447.924927 216.765787 
L 448.212121 213.106101 
L 448.351539 215.850865 
L 448.491521 214.021022 
L 448.632286 217.680708 
L 448.771305 217.680708 
L 448.913472 219.510551 
L 449.051603 215.850865 
L 449.192845 218.59563 
L 449.624165 211.276258 
L 449.770449 214.935944 
L 449.915501 210.361336 
L 450.058521 212.191179 
L 450.202998 211.276258 
L 450.486952 217.680708 
L 450.627053 212.191179 
L 450.767973 215.850865 
L 450.910721 214.021022 
L 451.052686 214.935944 
L 451.197711 214.021022 
L 451.487904 214.021022 
L 451.626779 210.361336 
L 451.76522 213.106101 
L 451.904536 208.531493 
L 452.047772 213.106101 
L 452.19253 210.361336 
L 452.338605 211.276258 
L 452.482961 213.106101 
L 452.625954 212.191179 
L 452.766853 208.531493 
L 452.913949 212.191179 
L 453.052951 212.191179 
L 453.193273 215.850865 
L 453.332288 206.70165 
L 453.473862 212.191179 
L 453.611754 204.871807 
L 453.751319 213.106101 
L 453.894875 208.531493 
L 454.04082 214.021022 
L 454.180186 209.446415 
L 454.321292 214.021022 
L 454.466342 210.361336 
L 454.606452 213.106101 
L 454.745707 208.531493 
L 455.029172 213.106101 
L 455.168665 212.191179 
L 455.308965 205.786729 
L 455.452808 212.191179 
L 455.596919 206.70165 
L 455.735847 212.191179 
L 455.874738 208.531493 
L 456.017406 220.425472 
L 456.298207 210.361336 
L 456.441812 210.361336 
L 456.588946 213.106101 
L 456.868354 210.361336 
L 457.15011 217.680708 
L 457.29097 214.021022 
L 457.430317 219.510551 
L 457.568862 214.021022 
L 457.7073 213.106101 
L 457.845577 257.937253 
L 457.98507 352.174167 
L 458.125951 352.174167 
L 458.266751 346.684638 
L 458.84484 212.191179 
L 458.99065 198.467357 
L 459.129034 202.127043 
L 459.267382 199.382278 
L 459.408637 199.382278 
L 459.548301 203.956886 
L 459.691703 203.040756 
L 459.834569 211.276258 
L 459.972424 208.531493 
L 460.110397 221.340394 
L 460.248278 212.191179 
L 460.386685 217.680708 
L 460.524937 212.191179 
L 460.662754 213.106101 
L 460.801069 210.361336 
L 461.077666 214.935944 
L 461.216031 213.106101 
L 461.354905 218.59563 
L 461.492647 214.935944 
L 461.631122 214.935944 
L 461.769563 213.106101 
L 461.908024 214.021022 
L 462.046699 210.361336 
L 462.185286 212.191179 
L 462.323815 209.446415 
L 462.46234 217.680708 
L 462.600895 210.361336 
L 462.739598 217.680708 
L 462.877966 214.021022 
L 463.01667 215.850865 
L 463.293499 215.850865 
L 463.431919 217.680708 
L 463.57025 216.765787 
L 463.710506 214.935944 
L 463.848344 218.59563 
L 463.987256 213.106101 
L 464.125727 214.935944 
L 464.264149 212.191179 
L 464.404858 216.765787 
L 464.542725 211.276258 
L 464.686261 218.59563 
L 464.831877 205.786729 
L 464.977493 215.850865 
L 465.11713 209.446415 
L 465.259438 217.680708 
L 465.402626 211.276258 
L 465.543987 212.191179 
L 465.689467 215.850865 
L 465.834566 212.191179 
L 465.981425 217.680708 
L 466.127361 217.680708 
L 466.268634 218.59563 
L 466.410806 218.59563 
L 466.555262 216.765787 
L 466.698505 219.510551 
L 466.842517 218.59563 
L 467.128614 211.276258 
L 467.276016 214.935944 
L 467.422502 214.935944 
L 467.561372 216.765787 
L 467.700465 216.765787 
L 467.840283 214.935944 
L 467.981968 218.59563 
L 468.126967 218.59563 
L 468.269404 217.680708 
L 468.412602 214.935944 
L 468.555791 218.59563 
L 468.840226 211.276258 
L 468.980415 215.850865 
L 469.269047 213.106101 
L 469.41453 217.680708 
L 469.560224 214.021022 
L 469.699042 216.765787 
L 469.97707 211.276258 
L 470.119856 215.850865 
L 470.265222 214.021022 
L 470.410265 215.850865 
L 470.551415 213.106101 
L 470.692453 214.935944 
L 470.83314 212.191179 
L 470.973747 213.106101 
L 471.118555 211.276258 
L 471.258414 216.765787 
L 471.403618 352.174167 
L 471.547988 352.174167 
L 471.689453 343.024952 
L 472.267147 205.786729 
L 472.559349 194.807671 
L 473.272071 213.106101 
L 473.415434 206.70165 
L 473.5603 214.935944 
L 473.704525 211.276258 
L 473.843559 213.106101 
L 473.982429 211.276258 
L 474.123038 214.021022 
L 474.261246 212.191179 
L 474.403454 218.59563 
L 474.541901 208.531493 
L 474.68813 214.935944 
L 474.833697 212.191179 
L 474.972375 214.021022 
L 475.115325 211.250877 
L 475.254973 217.680708 
L 475.395425 214.935944 
L 475.535767 215.850865 
L 475.676583 208.531493 
L 475.816447 214.021022 
L 475.955863 210.361336 
L 476.243461 210.361336 
L 476.389982 214.021022 
L 476.528189 207.616572 
L 476.666759 212.191179 
L 476.807059 209.446415 
L 476.945097 212.191179 
L 477.084721 208.531493 
L 477.506211 214.021022 
L 477.645689 213.106101 
L 477.92614 213.106101 
L 478.065047 214.935944 
L 478.203758 214.021022 
L 478.342807 214.021022 
L 478.490755 214.935944 
L 478.63645 210.361336 
L 478.781928 214.021022 
L 478.927216 211.276258 
L 479.073219 213.106101 
L 479.361747 209.446415 
L 479.504589 216.765787 
L 479.644345 211.276258 
L 479.782524 210.361336 
L 479.921398 210.361336 
L 480.060133 214.935944 
L 480.197658 209.446415 
L 480.336854 214.935944 
L 480.474372 214.021022 
L 480.615335 216.765787 
L 480.752985 216.765787 
L 480.890543 219.510551 
L 481.029691 213.106101 
L 481.168769 212.191179 
L 481.307067 207.616572 
L 481.589027 212.191179 
L 481.869157 210.361336 
L 482.010246 213.106101 
L 482.151277 208.531493 
L 482.296633 217.680708 
L 482.43992 208.531493 
L 482.585813 217.680708 
L 482.724324 208.531493 
L 482.863117 214.935944 
L 483.001938 208.531493 
L 483.141375 215.850865 
L 483.282006 212.191179 
L 483.4281 214.935944 
L 483.57046 211.276258 
L 483.709447 217.680708 
L 483.848224 213.106101 
L 483.987672 218.59563 
L 484.125844 217.680708 
L 484.269986 218.59563 
L 484.415672 214.935944 
L 484.561036 218.59563 
L 484.699361 211.276258 
L 484.838437 352.174167 
L 485.121308 352.174167 
L 485.819997 200.2972 
L 485.962459 200.2972 
L 486.251383 203.956886 
L 486.397617 200.2972 
L 486.535343 204.871807 
L 486.672844 203.040756 
L 486.948553 213.106101 
L 487.087063 216.765787 
L 487.510225 206.70165 
L 487.648467 217.680708 
L 487.789162 211.276258 
L 487.929165 219.510551 
L 488.066748 214.021022 
L 488.212507 217.680708 
L 488.358067 212.191179 
L 488.502742 224.080324 
L 488.640717 215.850865 
L 488.778929 221.340394 
L 488.917811 216.715025 
L 489.056614 216.765787 
L 489.201417 213.106101 
L 489.339882 218.59563 
L 489.622489 213.106101 
L 489.763694 211.276258 
L 490.197866 217.680708 
L 490.340279 214.935944 
L 490.483296 215.850865 
L 490.624189 218.59563 
L 490.768127 217.680708 
L 490.90981 214.935944 
L 491.0544 214.935944 
L 491.199067 213.106101 
L 491.337826 213.106101 
L 491.483796 212.191179 
L 491.628338 214.021022 
L 491.768316 214.021022 
L 491.908626 218.59563 
L 492.048061 214.935944 
L 492.333412 218.59563 
L 492.474964 216.765787 
L 492.61281 217.680708 
L 492.757217 215.850865 
L 492.895296 219.510551 
L 493.032888 213.106101 
L 493.175534 215.850865 
L 493.317415 213.106101 
L 493.46186 214.021022 
L 493.60157 210.361336 
L 493.746681 214.935944 
L 493.89059 209.446415 
L 494.033201 214.935944 
L 494.172356 212.191179 
L 494.317225 215.850865 
L 494.456531 213.106101 
L 494.595758 215.850865 
L 494.740881 207.616572 
L 494.8812 221.340394 
L 495.021634 209.446415 
L 495.162903 217.680708 
L 495.309727 209.421034 
L 495.455988 217.680708 
L 495.596851 214.021022 
L 495.740641 215.850865 
L 495.879008 214.021022 
L 496.017561 221.340394 
L 496.159012 211.276258 
L 496.302993 221.340394 
L 496.448964 210.361336 
L 496.589869 217.680708 
L 496.732883 208.531493 
L 496.878347 217.680708 
L 497.019187 213.106101 
L 497.163208 214.935944 
L 497.308339 209.446415 
L 497.449062 214.935944 
L 497.588918 209.446415 
L 497.72709 217.680708 
L 497.86565 212.191179 
L 498.008891 218.59563 
L 498.14756 210.361336 
L 498.294246 352.174167 
L 498.584992 352.174167 
L 499.148603 225.915001 
L 499.293521 196.637514 
L 499.439191 201.212121 
L 499.58504 196.637514 
L 499.723425 200.2972 
L 499.866447 193.892749 
L 500.012762 200.2972 
L 500.15531 197.552435 
L 500.293704 213.106101 
L 500.572614 219.510551 
L 500.710809 213.106101 
L 500.850048 215.850865 
L 500.988355 211.276258 
L 501.126701 214.021022 
L 501.268492 209.446415 
L 501.407676 217.680708 
L 501.54886 214.935944 
L 501.690485 216.765787 
L 501.981554 216.765787 
L 502.119306 215.850865 
L 502.257824 216.765787 
L 502.398732 215.850865 
L 502.543431 216.765787 
L 502.683295 215.850865 
L 502.823467 214.021022 
L 502.967438 210.361336 
L 503.112027 214.021022 
L 503.25625 213.106101 
L 503.401819 214.021022 
L 503.5419 212.191179 
L 503.68621 218.59563 
L 503.964944 215.850865 
L 504.108567 215.850865 
L 504.253627 212.191179 
L 504.3974 222.255315 
L 504.545082 214.935944 
L 504.684162 214.935944 
L 504.826403 212.191179 
L 504.973923 216.765787 
L 505.119624 213.106101 
L 505.259117 216.765787 
L 505.397875 213.106101 
L 505.536135 217.680708 
L 505.677146 209.446415 
L 505.818104 214.021022 
L 505.961596 210.361336 
L 506.101767 216.765787 
L 506.240299 210.361336 
L 506.378661 214.021022 
L 506.517126 212.191179 
L 506.655703 213.106101 
L 506.79754 211.276258 
L 506.935894 213.106101 
L 507.073562 210.361336 
L 507.214056 217.655327 
L 507.352824 218.59563 
L 507.491501 215.850865 
L 507.631497 215.850865 
L 507.771869 213.106101 
L 507.914917 219.510551 
L 508.06246 211.276258 
L 508.354561 218.59563 
L 508.501079 218.59563 
L 508.790843 209.446415 
L 508.930794 214.021022 
L 509.075854 214.021022 
L 509.216225 214.935944 
L 509.358972 214.021022 
L 509.499062 217.680708 
L 509.781625 214.935944 
L 510.33644 214.935944 
L 510.476016 220.425472 
L 510.614377 213.106101 
L 510.752704 221.340394 
L 510.893257 212.191179 
L 511.034024 214.935944 
L 511.180003 214.021022 
L 511.3229 212.191179 
L 511.461652 212.191179 
L 511.600104 218.59563 
L 511.741379 352.174167 
L 512.028532 352.174167 
L 512.306869 297.278877 
L 512.73633 205.786729 
L 513.020571 200.2972 
L 513.159799 200.2972 
L 513.30185 205.786729 
L 513.446253 204.871807 
L 513.874643 215.850865 
L 514.013256 214.935944 
L 514.152767 212.191179 
L 514.291527 219.510551 
L 514.43382 216.765787 
L 514.573472 217.680708 
L 514.711945 213.106101 
L 514.85305 215.850865 
L 514.996759 214.935944 
L 515.14288 216.765787 
L 515.286266 212.191179 
L 515.425603 221.340394 
L 515.707512 213.106101 
L 515.847281 216.765787 
L 516.127743 210.361336 
L 516.266592 214.021022 
L 516.408751 213.106101 
L 516.546578 221.340394 
L 516.690276 213.106101 
L 516.832032 218.59563 
L 516.979644 212.191179 
L 517.121156 212.191179 
L 517.264201 213.106101 
L 517.407863 216.765787 
L 517.546234 212.191179 
L 517.685289 219.510551 
L 517.831384 214.021022 
L 517.972005 217.680708 
L 518.11102 214.935944 
L 518.249828 217.680708 
L 518.391252 214.021022 
L 518.532587 214.935944 
L 518.673845 210.361336 
L 518.81221 216.765787 
L 518.955318 213.106101 
L 519.096717 218.59563 
L 519.236286 214.021022 
L 519.37463 217.680708 
L 519.512958 213.106101 
L 519.936664 219.510551 
L 520.075095 214.021022 
L 520.213579 223.170237 
L 520.35735 214.935944 
L 520.499016 214.935944 
L 520.63948 211.276258 
L 520.782622 215.850865 
L 520.927506 214.935944 
L 521.072373 217.680708 
L 521.210724 214.935944 
L 521.503591 219.510551 
L 521.649723 215.850865 
L 521.649723 215.850865 
" style="fill:none;stroke:#1f77b4;stroke-linecap:square;stroke-width:1.5;"/>
   </g>
   <g id="patch_3">
    <path d="M 120.878594 352.174167 
L 120.878594 35.0625 
" style="fill:none;stroke:#000000;stroke-linecap:square;stroke-linejoin:miter;stroke-width:0.8;"/>
   </g>
   <g id="patch_4">
    <path d="M 540.734062 352.174167 
L 540.734062 35.0625 
" style="fill:none;stroke:#000000;stroke-linecap:square;stroke-linejoin:miter;stroke-width:0.8;"/>
   </g>
   <g id="patch_5">
    <path d="M 120.878594 352.174167 
L 540.734062 352.174167 
" style="fill:none;stroke:#000000;stroke-linecap:square;stroke-linejoin:miter;stroke-width:0.8;"/>
   </g>
   <g id="patch_6">
    <path d="M 120.878594 35.0625 
L 540.734062 35.0625 
" style="fill:none;stroke:#000000;stroke-linecap:square;stroke-linejoin:miter;stroke-width:0.8;"/>
   </g>
   <g id="legend_1">
    <g id="patch_7">
     <path d="M 563.726836 63.938438 
L 627.601836 63.938438 
Q 629.601836 63.938438 629.601836 61.938438 
L 629.601836 37.0625 
Q 629.601836 35.0625 627.601836 35.0625 
L 563.726836 35.0625 
Q 561.726836 35.0625 561.726836 37.0625 
L 561.726836 61.938438 
Q 561.726836 63.938438 563.726836 63.938438 
z
" style="fill:#ffffff;opacity:0.8;stroke:#cccccc;stroke-linejoin:miter;"/>
    </g>
    <g id="line2d_15">
     <path d="M 565.726836 49.799688 
L 585.726836 49.799688 
" style="fill:none;stroke:#1f77b4;stroke-linecap:square;stroke-width:1.5;"/>
    </g>
    <g id="line2d_16"/>
    <g id="text_15">
     <!-- queue -->
     <g transform="translate(593.726836 46.660937)scale(0.1 -0.1)">
      <use xlink:href="#DejaVuSans-113"/>
      <use x="63.476562" xlink:href="#DejaVuSans-117"/>
      <use x="126.855469" xlink:href="#DejaVuSans-101"/>
      <use x="188.378906" xlink:href="#DejaVuSans-117"/>
      <use x="251.757812" xlink:href="#DejaVuSans-101"/>
     </g>
     <!-- length -->
     <defs>
      <path d="M 9.421875 75.984375 
L 18.40625 75.984375 
L 18.40625 0 
L 9.421875 0 
z
" id="DejaVuSans-108"/>
      <path d="M 54.890625 33.015625 
L 54.890625 0 
L 45.90625 0 
L 45.90625 32.71875 
Q 45.90625 40.484375 42.875 44.328125 
Q 39.84375 48.1875 33.796875 48.1875 
Q 26.515625 48.1875 22.3125 43.546875 
Q 18.109375 38.921875 18.109375 30.90625 
L 18.109375 0 
L 9.078125 0 
L 9.078125 54.6875 
L 18.109375 54.6875 
L 18.109375 46.1875 
Q 21.34375 51.125 25.703125 53.5625 
Q 30.078125 56 35.796875 56 
Q 45.21875 56 50.046875 50.171875 
Q 54.890625 44.34375 54.890625 33.015625 
z
" id="DejaVuSans-110"/>
      <path d="M 45.40625 27.984375 
Q 45.40625 37.75 41.375 43.109375 
Q 37.359375 48.484375 30.078125 48.484375 
Q 22.859375 48.484375 18.828125 43.109375 
Q 14.796875 37.75 14.796875 27.984375 
Q 14.796875 18.265625 18.828125 12.890625 
Q 22.859375 7.515625 30.078125 7.515625 
Q 37.359375 7.515625 41.375 12.890625 
Q 45.40625 18.265625 45.40625 27.984375 
z
M 54.390625 6.78125 
Q 54.390625 -7.171875 48.1875 -13.984375 
Q 42 -20.796875 29.203125 -20.796875 
Q 24.46875 -20.796875 20.265625 -20.09375 
Q 16.0625 -19.390625 12.109375 -17.921875 
L 12.109375 -9.1875 
Q 16.0625 -11.328125 19.921875 -12.34375 
Q 23.78125 -13.375 27.78125 -13.375 
Q 36.625 -13.375 41.015625 -8.765625 
Q 45.40625 -4.15625 45.40625 5.171875 
L 45.40625 9.625 
Q 42.625 4.78125 38.28125 2.390625 
Q 33.9375 0 27.875 0 
Q 17.828125 0 11.671875 7.65625 
Q 5.515625 15.328125 5.515625 27.984375 
Q 5.515625 40.671875 11.671875 48.328125 
Q 17.828125 56 27.875 56 
Q 33.9375 56 38.28125 53.609375 
Q 42.625 51.21875 45.40625 46.390625 
L 45.40625 54.6875 
L 54.390625 54.6875 
z
" id="DejaVuSans-103"/>
      <path d="M 54.890625 33.015625 
L 54.890625 0 
L 45.90625 0 
L 45.90625 32.71875 
Q 45.90625 40.484375 42.875 44.328125 
Q 39.84375 48.1875 33.796875 48.1875 
Q 26.515625 48.1875 22.3125 43.546875 
Q 18.109375 38.921875 18.109375 30.90625 
L 18.109375 0 
L 9.078125 0 
L 9.078125 75.984375 
L 18.109375 75.984375 
L 18.109375 46.1875 
Q 21.34375 51.125 25.703125 53.5625 
Q 30.078125 56 35.796875 56 
Q 45.21875 56 50.046875 50.171875 
Q 54.890625 44.34375 54.890625 33.015625 
z
" id="DejaVuSans-104"/>
     </defs>
     <g transform="translate(593.726836 57.85875)scale(0.1 -0.1)">
      <use xlink:href="#DejaVuSans-108"/>
      <use x="27.783203" xlink:href="#DejaVuSans-101"/>
      <use x="89.306641" xlink:href="#DejaVuSans-110"/>
      <use x="152.685547" xlink:href="#DejaVuSans-103"/>
      <use x="216.162109" xlink:href="#DejaVuSans-116"/>
      <use x="255.371094" xlink:href="#DejaVuSans-104"/>
     </g>
    </g>
   </g>
  </g>
  <g id="text_16">
   <!-- result queue (bytes) -->
   <defs>
    <path d="M 41.109375 46.296875 
Q 39.59375 47.171875 37.8125 47.578125 
Q 36.03125 48 33.890625 48 
Q 26.265625 48 22.1875 43.046875 
Q 18.109375 38.09375 18.109375 28.8125 
L 18.109375 0 
L 9.078125 0 
L 9.078125 54.6875 
L 18.109375 54.6875 
L 18.109375 46.1875 
Q 20.953125 51.171875 25.484375 53.578125 
Q 30.03125 56 36.53125 56 
Q 37.453125 56 38.578125 55.875 
Q 39.703125 55.765625 41.0625 55.515625 
z
" id="DejaVuSans-114"/>
    <path id="DejaVuSans-32"/>
   </defs>
   <g transform="translate(281.072812 17.038125)scale(0.12 -0.12)">
    <use xlink:href="#DejaVuSans-114"/>
    <use x="41.082031" xlink:href="#DejaVuSans-101"/>
    <use x="102.605469" xlink:href="#DejaVuSans-115"/>
    <use x="154.705078" xlink:href="#DejaVuSans-117"/>
    <use x="218.083984" xlink:href="#DejaVuSans-108"/>
    <use x="245.867188" xlink:href="#DejaVuSans-116"/>
    <use x="285.076172" xlink:href="#DejaVuSans-32"/>
    <use x="316.863281" xlink:href="#DejaVuSans-113"/>
    <use x="380.339844" xlink:href="#DejaVuSans-117"/>
    <use x="443.71875" xlink:href="#DejaVuSans-101"/>
    <use x="505.242188" xlink:href="#DejaVuSans-117"/>
    <use x="568.621094" xlink:href="#DejaVuSans-101"/>
    <use x="630.144531" xlink:href="#DejaVuSans-32"/>
    <use x="661.931641" xlink:href="#DejaVuSans-40"/>
    <use x="700.945312" xlink:href="#DejaVuSans-98"/>
    <use x="764.421875" xlink:href="#DejaVuSans-121"/>
    <use x="823.601562" xlink:href="#DejaVuSans-116"/>
    <use x="862.810547" xlink:href="#DejaVuSans-101"/>
    <use x="924.333984" xlink:href="#DejaVuSans-115"/>
    <use x="976.433594" xlink:href="#DejaVuSans-41"/>
   </g>
  </g>
 </g>
 <defs>
  <clipPath id="p17a6797769">
   <rect height="317.111667" width="419.855469" x="120.878594" y="35.0625"/>
  </clipPath>
 </defs>
</svg>
