<?xml version="1.0" encoding="utf-8" standalone="no"?>
<!DOCTYPE svg PUBLIC "-//W3C//DTD SVG 1.1//EN"
  "http://www.w3.org/Graphics/SVG/1.1/DTD/svg11.dtd">
<!-- Created with matplotlib (https://matplotlib.org/) -->
<svg height="396pt" version="1.1" viewBox="0 0 684 396" width="684pt" xmlns="http://www.w3.org/2000/svg" xmlns:xlink="http://www.w3.org/1999/xlink">
 <defs>
  <style type="text/css">
*{stroke-linecap:butt;stroke-linejoin:round;}
  </style>
 </defs>
 <g id="figure_1">
  <g id="patch_1">
   <path d="M 0 396 
L 684 396 
L 684 0 
L 0 0 
z
" style="fill:#ffffff;"/>
  </g>
  <g id="axes_1">
   <g id="patch_2">
    <path d="M 92.9575 352.174167 
L 529.912969 352.174167 
L 529.912969 35.0625 
L 92.9575 35.0625 
z
" style="fill:#ffffff;"/>
   </g>
   <g id="matplotlib.axis_1">
    <g id="xtick_1">
     <g id="line2d_1">
      <defs>
       <path d="M 0 0 
L 0 3.5 
" id="md19c7bc991" style="stroke:#000000;stroke-width:0.8;"/>
      </defs>
      <g>
       <use style="stroke:#000000;stroke-width:0.8;" x="112.814786" xlink:href="#md19c7bc991" y="352.174167"/>
      </g>
     </g>
     <g id="text_1">
      <!-- 0 -->
      <defs>
       <path d="M 31.78125 66.40625 
Q 24.171875 66.40625 20.328125 58.90625 
Q 16.5 51.421875 16.5 36.375 
Q 16.5 21.390625 20.328125 13.890625 
Q 24.171875 6.390625 31.78125 6.390625 
Q 39.453125 6.390625 43.28125 13.890625 
Q 47.125 21.390625 47.125 36.375 
Q 47.125 51.421875 43.28125 58.90625 
Q 39.453125 66.40625 31.78125 66.40625 
z
M 31.78125 74.21875 
Q 44.046875 74.21875 50.515625 64.515625 
Q 56.984375 54.828125 56.984375 36.375 
Q 56.984375 17.96875 50.515625 8.265625 
Q 44.046875 -1.421875 31.78125 -1.421875 
Q 19.53125 -1.421875 13.0625 8.265625 
Q 6.59375 17.96875 6.59375 36.375 
Q 6.59375 54.828125 13.0625 64.515625 
Q 19.53125 74.21875 31.78125 74.21875 
z
" id="DejaVuSans-48"/>
      </defs>
      <g transform="translate(109.633536 366.772604)scale(0.1 -0.1)">
       <use xlink:href="#DejaVuSans-48"/>
      </g>
     </g>
    </g>
    <g id="xtick_2">
     <g id="line2d_2">
      <g>
       <use style="stroke:#000000;stroke-width:0.8;" x="184.910108" xlink:href="#md19c7bc991" y="352.174167"/>
      </g>
     </g>
     <g id="text_2">
      <!-- 50 -->
      <defs>
       <path d="M 10.796875 72.90625 
L 49.515625 72.90625 
L 49.515625 64.59375 
L 19.828125 64.59375 
L 19.828125 46.734375 
Q 21.96875 47.46875 24.109375 47.828125 
Q 26.265625 48.1875 28.421875 48.1875 
Q 40.625 48.1875 47.75 41.5 
Q 54.890625 34.8125 54.890625 23.390625 
Q 54.890625 11.625 47.5625 5.09375 
Q 40.234375 -1.421875 26.90625 -1.421875 
Q 22.3125 -1.421875 17.546875 -0.640625 
Q 12.796875 0.140625 7.71875 1.703125 
L 7.71875 11.625 
Q 12.109375 9.234375 16.796875 8.0625 
Q 21.484375 6.890625 26.703125 6.890625 
Q 35.15625 6.890625 40.078125 11.328125 
Q 45.015625 15.765625 45.015625 23.390625 
Q 45.015625 31 40.078125 35.4375 
Q 35.15625 39.890625 26.703125 39.890625 
Q 22.75 39.890625 18.8125 39.015625 
Q 14.890625 38.140625 10.796875 36.28125 
z
" id="DejaVuSans-53"/>
      </defs>
      <g transform="translate(178.547608 366.772604)scale(0.1 -0.1)">
       <use xlink:href="#DejaVuSans-53"/>
       <use x="63.623047" xlink:href="#DejaVuSans-48"/>
      </g>
     </g>
    </g>
    <g id="xtick_3">
     <g id="line2d_3">
      <g>
       <use style="stroke:#000000;stroke-width:0.8;" x="257.00543" xlink:href="#md19c7bc991" y="352.174167"/>
      </g>
     </g>
     <g id="text_3">
      <!-- 100 -->
      <defs>
       <path d="M 12.40625 8.296875 
L 28.515625 8.296875 
L 28.515625 63.921875 
L 10.984375 60.40625 
L 10.984375 69.390625 
L 28.421875 72.90625 
L 38.28125 72.90625 
L 38.28125 8.296875 
L 54.390625 8.296875 
L 54.390625 0 
L 12.40625 0 
z
" id="DejaVuSans-49"/>
      </defs>
      <g transform="translate(247.46168 366.772604)scale(0.1 -0.1)">
       <use xlink:href="#DejaVuSans-49"/>
       <use x="63.623047" xlink:href="#DejaVuSans-48"/>
       <use x="127.246094" xlink:href="#DejaVuSans-48"/>
      </g>
     </g>
    </g>
    <g id="xtick_4">
     <g id="line2d_4">
      <g>
       <use style="stroke:#000000;stroke-width:0.8;" x="329.100751" xlink:href="#md19c7bc991" y="352.174167"/>
      </g>
     </g>
     <g id="text_4">
      <!-- 150 -->
      <g transform="translate(319.557001 366.772604)scale(0.1 -0.1)">
       <use xlink:href="#DejaVuSans-49"/>
       <use x="63.623047" xlink:href="#DejaVuSans-53"/>
       <use x="127.246094" xlink:href="#DejaVuSans-48"/>
      </g>
     </g>
    </g>
    <g id="xtick_5">
     <g id="line2d_5">
      <g>
       <use style="stroke:#000000;stroke-width:0.8;" x="401.196073" xlink:href="#md19c7bc991" y="352.174167"/>
      </g>
     </g>
     <g id="text_5">
      <!-- 200 -->
      <defs>
       <path d="M 19.1875 8.296875 
L 53.609375 8.296875 
L 53.609375 0 
L 7.328125 0 
L 7.328125 8.296875 
Q 12.9375 14.109375 22.625 23.890625 
Q 32.328125 33.6875 34.8125 36.53125 
Q 39.546875 41.84375 41.421875 45.53125 
Q 43.3125 49.21875 43.3125 52.78125 
Q 43.3125 58.59375 39.234375 62.25 
Q 35.15625 65.921875 28.609375 65.921875 
Q 23.96875 65.921875 18.8125 64.3125 
Q 13.671875 62.703125 7.8125 59.421875 
L 7.8125 69.390625 
Q 13.765625 71.78125 18.9375 73 
Q 24.125 74.21875 28.421875 74.21875 
Q 39.75 74.21875 46.484375 68.546875 
Q 53.21875 62.890625 53.21875 53.421875 
Q 53.21875 48.921875 51.53125 44.890625 
Q 49.859375 40.875 45.40625 35.40625 
Q 44.1875 33.984375 37.640625 27.21875 
Q 31.109375 20.453125 19.1875 8.296875 
z
" id="DejaVuSans-50"/>
      </defs>
      <g transform="translate(391.652323 366.772604)scale(0.1 -0.1)">
       <use xlink:href="#DejaVuSans-50"/>
       <use x="63.623047" xlink:href="#DejaVuSans-48"/>
       <use x="127.246094" xlink:href="#DejaVuSans-48"/>
      </g>
     </g>
    </g>
    <g id="xtick_6">
     <g id="line2d_6">
      <g>
       <use style="stroke:#000000;stroke-width:0.8;" x="473.291394" xlink:href="#md19c7bc991" y="352.174167"/>
      </g>
     </g>
     <g id="text_6">
      <!-- 250 -->
      <g transform="translate(463.747644 366.772604)scale(0.1 -0.1)">
       <use xlink:href="#DejaVuSans-50"/>
       <use x="63.623047" xlink:href="#DejaVuSans-53"/>
       <use x="127.246094" xlink:href="#DejaVuSans-48"/>
      </g>
     </g>
    </g>
   </g>
   <g id="matplotlib.axis_2">
    <g id="ytick_1">
     <g id="line2d_7">
      <defs>
       <path d="M 0 0 
L -3.5 0 
" id="m07e51e8918" style="stroke:#000000;stroke-width:0.8;"/>
      </defs>
      <g>
       <use style="stroke:#000000;stroke-width:0.8;" x="92.9575" xlink:href="#m07e51e8918" y="352.174167"/>
      </g>
     </g>
     <g id="text_7">
      <!-- 0 -->
      <g transform="translate(79.595 355.973385)scale(0.1 -0.1)">
       <use xlink:href="#DejaVuSans-48"/>
      </g>
     </g>
    </g>
    <g id="ytick_2">
     <g id="line2d_8">
      <g>
       <use style="stroke:#000000;stroke-width:0.8;" x="92.9575" xlink:href="#m07e51e8918" y="312.89121"/>
      </g>
     </g>
     <g id="text_8">
      <!-- 20 -->
      <g transform="translate(73.2325 316.690429)scale(0.1 -0.1)">
       <use xlink:href="#DejaVuSans-50"/>
       <use x="63.623047" xlink:href="#DejaVuSans-48"/>
      </g>
     </g>
    </g>
    <g id="ytick_3">
     <g id="line2d_9">
      <g>
       <use style="stroke:#000000;stroke-width:0.8;" x="92.9575" xlink:href="#m07e51e8918" y="273.608254"/>
      </g>
     </g>
     <g id="text_9">
      <!-- 40 -->
      <defs>
       <path d="M 37.796875 64.3125 
L 12.890625 25.390625 
L 37.796875 25.390625 
z
M 35.203125 72.90625 
L 47.609375 72.90625 
L 47.609375 25.390625 
L 58.015625 25.390625 
L 58.015625 17.1875 
L 47.609375 17.1875 
L 47.609375 0 
L 37.796875 0 
L 37.796875 17.1875 
L 4.890625 17.1875 
L 4.890625 26.703125 
z
" id="DejaVuSans-52"/>
      </defs>
      <g transform="translate(73.2325 277.407472)scale(0.1 -0.1)">
       <use xlink:href="#DejaVuSans-52"/>
       <use x="63.623047" xlink:href="#DejaVuSans-48"/>
      </g>
     </g>
    </g>
    <g id="ytick_4">
     <g id="line2d_10">
      <g>
       <use style="stroke:#000000;stroke-width:0.8;" x="92.9575" xlink:href="#m07e51e8918" y="234.325297"/>
      </g>
     </g>
     <g id="text_10">
      <!-- 60 -->
      <defs>
       <path d="M 33.015625 40.375 
Q 26.375 40.375 22.484375 35.828125 
Q 18.609375 31.296875 18.609375 23.390625 
Q 18.609375 15.53125 22.484375 10.953125 
Q 26.375 6.390625 33.015625 6.390625 
Q 39.65625 6.390625 43.53125 10.953125 
Q 47.40625 15.53125 47.40625 23.390625 
Q 47.40625 31.296875 43.53125 35.828125 
Q 39.65625 40.375 33.015625 40.375 
z
M 52.59375 71.296875 
L 52.59375 62.3125 
Q 48.875 64.0625 45.09375 64.984375 
Q 41.3125 65.921875 37.59375 65.921875 
Q 27.828125 65.921875 22.671875 59.328125 
Q 17.53125 52.734375 16.796875 39.40625 
Q 19.671875 43.65625 24.015625 45.921875 
Q 28.375 48.1875 33.59375 48.1875 
Q 44.578125 48.1875 50.953125 41.515625 
Q 57.328125 34.859375 57.328125 23.390625 
Q 57.328125 12.15625 50.6875 5.359375 
Q 44.046875 -1.421875 33.015625 -1.421875 
Q 20.359375 -1.421875 13.671875 8.265625 
Q 6.984375 17.96875 6.984375 36.375 
Q 6.984375 53.65625 15.1875 63.9375 
Q 23.390625 74.21875 37.203125 74.21875 
Q 40.921875 74.21875 44.703125 73.484375 
Q 48.484375 72.75 52.59375 71.296875 
z
" id="DejaVuSans-54"/>
      </defs>
      <g transform="translate(73.2325 238.124516)scale(0.1 -0.1)">
       <use xlink:href="#DejaVuSans-54"/>
       <use x="63.623047" xlink:href="#DejaVuSans-48"/>
      </g>
     </g>
    </g>
    <g id="ytick_5">
     <g id="line2d_11">
      <g>
       <use style="stroke:#000000;stroke-width:0.8;" x="92.9575" xlink:href="#m07e51e8918" y="195.042341"/>
      </g>
     </g>
     <g id="text_11">
      <!-- 80 -->
      <defs>
       <path d="M 31.78125 34.625 
Q 24.75 34.625 20.71875 30.859375 
Q 16.703125 27.09375 16.703125 20.515625 
Q 16.703125 13.921875 20.71875 10.15625 
Q 24.75 6.390625 31.78125 6.390625 
Q 38.8125 6.390625 42.859375 10.171875 
Q 46.921875 13.96875 46.921875 20.515625 
Q 46.921875 27.09375 42.890625 30.859375 
Q 38.875 34.625 31.78125 34.625 
z
M 21.921875 38.8125 
Q 15.578125 40.375 12.03125 44.71875 
Q 8.5 49.078125 8.5 55.328125 
Q 8.5 64.0625 14.71875 69.140625 
Q 20.953125 74.21875 31.78125 74.21875 
Q 42.671875 74.21875 48.875 69.140625 
Q 55.078125 64.0625 55.078125 55.328125 
Q 55.078125 49.078125 51.53125 44.71875 
Q 48 40.375 41.703125 38.8125 
Q 48.828125 37.15625 52.796875 32.3125 
Q 56.78125 27.484375 56.78125 20.515625 
Q 56.78125 9.90625 50.3125 4.234375 
Q 43.84375 -1.421875 31.78125 -1.421875 
Q 19.734375 -1.421875 13.25 4.234375 
Q 6.78125 9.90625 6.78125 20.515625 
Q 6.78125 27.484375 10.78125 32.3125 
Q 14.796875 37.15625 21.921875 38.8125 
z
M 18.3125 54.390625 
Q 18.3125 48.734375 21.84375 45.5625 
Q 25.390625 42.390625 31.78125 42.390625 
Q 38.140625 42.390625 41.71875 45.5625 
Q 45.3125 48.734375 45.3125 54.390625 
Q 45.3125 60.0625 41.71875 63.234375 
Q 38.140625 66.40625 31.78125 66.40625 
Q 25.390625 66.40625 21.84375 63.234375 
Q 18.3125 60.0625 18.3125 54.390625 
z
" id="DejaVuSans-56"/>
      </defs>
      <g transform="translate(73.2325 198.841559)scale(0.1 -0.1)">
       <use xlink:href="#DejaVuSans-56"/>
       <use x="63.623047" xlink:href="#DejaVuSans-48"/>
      </g>
     </g>
    </g>
    <g id="ytick_6">
     <g id="line2d_12">
      <g>
       <use style="stroke:#000000;stroke-width:0.8;" x="92.9575" xlink:href="#m07e51e8918" y="155.759384"/>
      </g>
     </g>
     <g id="text_12">
      <!-- 100 -->
      <g transform="translate(66.87 159.558603)scale(0.1 -0.1)">
       <use xlink:href="#DejaVuSans-49"/>
       <use x="63.623047" xlink:href="#DejaVuSans-48"/>
       <use x="127.246094" xlink:href="#DejaVuSans-48"/>
      </g>
     </g>
    </g>
    <g id="ytick_7">
     <g id="line2d_13">
      <g>
       <use style="stroke:#000000;stroke-width:0.8;" x="92.9575" xlink:href="#m07e51e8918" y="116.476427"/>
      </g>
     </g>
     <g id="text_13">
      <!-- 120 -->
      <g transform="translate(66.87 120.275646)scale(0.1 -0.1)">
       <use xlink:href="#DejaVuSans-49"/>
       <use x="63.623047" xlink:href="#DejaVuSans-50"/>
       <use x="127.246094" xlink:href="#DejaVuSans-48"/>
      </g>
     </g>
    </g>
    <g id="ytick_8">
     <g id="line2d_14">
      <g>
       <use style="stroke:#000000;stroke-width:0.8;" x="92.9575" xlink:href="#m07e51e8918" y="77.193471"/>
      </g>
     </g>
     <g id="text_14">
      <!-- 140 -->
      <g transform="translate(66.87 80.99269)scale(0.1 -0.1)">
       <use xlink:href="#DejaVuSans-49"/>
       <use x="63.623047" xlink:href="#DejaVuSans-52"/>
       <use x="127.246094" xlink:href="#DejaVuSans-48"/>
      </g>
     </g>
    </g>
    <g id="ytick_9">
     <g id="line2d_15">
      <g>
       <use style="stroke:#000000;stroke-width:0.8;" x="92.9575" xlink:href="#m07e51e8918" y="37.910514"/>
      </g>
     </g>
     <g id="text_15">
      <!-- 160 -->
      <g transform="translate(66.87 41.709733)scale(0.1 -0.1)">
       <use xlink:href="#DejaVuSans-49"/>
       <use x="63.623047" xlink:href="#DejaVuSans-54"/>
       <use x="127.246094" xlink:href="#DejaVuSans-48"/>
      </g>
     </g>
    </g>
    <g id="text_16">
     <!-- rtt -->
     <defs>
      <path d="M 41.109375 46.296875 
Q 39.59375 47.171875 37.8125 47.578125 
Q 36.03125 48 33.890625 48 
Q 26.265625 48 22.1875 43.046875 
Q 18.109375 38.09375 18.109375 28.8125 
L 18.109375 0 
L 9.078125 0 
L 9.078125 54.6875 
L 18.109375 54.6875 
L 18.109375 46.1875 
Q 20.953125 51.171875 25.484375 53.578125 
Q 30.03125 56 36.53125 56 
Q 37.453125 56 38.578125 55.875 
Q 39.703125 55.765625 41.0625 55.515625 
z
" id="DejaVuSans-114"/>
      <path d="M 18.3125 70.21875 
L 18.3125 54.6875 
L 36.8125 54.6875 
L 36.8125 47.703125 
L 18.3125 47.703125 
L 18.3125 18.015625 
Q 18.3125 11.328125 20.140625 9.421875 
Q 21.96875 7.515625 27.59375 7.515625 
L 36.8125 7.515625 
L 36.8125 0 
L 27.59375 0 
Q 17.1875 0 13.234375 3.875 
Q 9.28125 7.765625 9.28125 18.015625 
L 9.28125 47.703125 
L 2.6875 47.703125 
L 2.6875 54.6875 
L 9.28125 54.6875 
L 9.28125 70.21875 
z
" id="DejaVuSans-116"/>
     </defs>
     <g transform="translate(49.5925 199.594115)rotate(-90)scale(0.1 -0.1)">
      <use xlink:href="#DejaVuSans-114"/>
      <use x="41.113281" xlink:href="#DejaVuSans-116"/>
      <use x="80.322266" xlink:href="#DejaVuSans-116"/>
     </g>
     <!-- (ms) -->
     <defs>
      <path d="M 31 75.875 
Q 24.46875 64.65625 21.28125 53.65625 
Q 18.109375 42.671875 18.109375 31.390625 
Q 18.109375 20.125 21.3125 9.0625 
Q 24.515625 -2 31 -13.1875 
L 23.1875 -13.1875 
Q 15.875 -1.703125 12.234375 9.375 
Q 8.59375 20.453125 8.59375 31.390625 
Q 8.59375 42.28125 12.203125 53.3125 
Q 15.828125 64.359375 23.1875 75.875 
z
" id="DejaVuSans-40"/>
      <path d="M 52 44.1875 
Q 55.375 50.25 60.0625 53.125 
Q 64.75 56 71.09375 56 
Q 79.640625 56 84.28125 50.015625 
Q 88.921875 44.046875 88.921875 33.015625 
L 88.921875 0 
L 79.890625 0 
L 79.890625 32.71875 
Q 79.890625 40.578125 77.09375 44.375 
Q 74.3125 48.1875 68.609375 48.1875 
Q 61.625 48.1875 57.5625 43.546875 
Q 53.515625 38.921875 53.515625 30.90625 
L 53.515625 0 
L 44.484375 0 
L 44.484375 32.71875 
Q 44.484375 40.625 41.703125 44.40625 
Q 38.921875 48.1875 33.109375 48.1875 
Q 26.21875 48.1875 22.15625 43.53125 
Q 18.109375 38.875 18.109375 30.90625 
L 18.109375 0 
L 9.078125 0 
L 9.078125 54.6875 
L 18.109375 54.6875 
L 18.109375 46.1875 
Q 21.1875 51.21875 25.484375 53.609375 
Q 29.78125 56 35.6875 56 
Q 41.65625 56 45.828125 52.96875 
Q 50 49.953125 52 44.1875 
z
" id="DejaVuSans-109"/>
      <path d="M 44.28125 53.078125 
L 44.28125 44.578125 
Q 40.484375 46.53125 36.375 47.5 
Q 32.28125 48.484375 27.875 48.484375 
Q 21.1875 48.484375 17.84375 46.4375 
Q 14.5 44.390625 14.5 40.28125 
Q 14.5 37.15625 16.890625 35.375 
Q 19.28125 33.59375 26.515625 31.984375 
L 29.59375 31.296875 
Q 39.15625 29.25 43.1875 25.515625 
Q 47.21875 21.78125 47.21875 15.09375 
Q 47.21875 7.46875 41.1875 3.015625 
Q 35.15625 -1.421875 24.609375 -1.421875 
Q 20.21875 -1.421875 15.453125 -0.5625 
Q 10.6875 0.296875 5.421875 2 
L 5.421875 11.28125 
Q 10.40625 8.6875 15.234375 7.390625 
Q 20.0625 6.109375 24.8125 6.109375 
Q 31.15625 6.109375 34.5625 8.28125 
Q 37.984375 10.453125 37.984375 14.40625 
Q 37.984375 18.0625 35.515625 20.015625 
Q 33.0625 21.96875 24.703125 23.78125 
L 21.578125 24.515625 
Q 13.234375 26.265625 9.515625 29.90625 
Q 5.8125 33.546875 5.8125 39.890625 
Q 5.8125 47.609375 11.28125 51.796875 
Q 16.75 56 26.8125 56 
Q 31.78125 56 36.171875 55.265625 
Q 40.578125 54.546875 44.28125 53.078125 
z
" id="DejaVuSans-115"/>
      <path d="M 8.015625 75.875 
L 15.828125 75.875 
Q 23.140625 64.359375 26.78125 53.3125 
Q 30.421875 42.28125 30.421875 31.390625 
Q 30.421875 20.453125 26.78125 9.375 
Q 23.140625 -1.703125 15.828125 -13.1875 
L 8.015625 -13.1875 
Q 14.5 -2 17.703125 9.0625 
Q 20.90625 20.125 20.90625 31.390625 
Q 20.90625 42.671875 17.703125 53.65625 
Q 14.5 64.65625 8.015625 75.875 
z
" id="DejaVuSans-41"/>
     </defs>
     <g transform="translate(60.790313 204.994896)rotate(-90)scale(0.1 -0.1)">
      <use xlink:href="#DejaVuSans-40"/>
      <use x="39.013672" xlink:href="#DejaVuSans-109"/>
      <use x="136.425781" xlink:href="#DejaVuSans-115"/>
      <use x="188.525391" xlink:href="#DejaVuSans-41"/>
     </g>
    </g>
   </g>
   <g id="line2d_16">
    <path clip-path="url(#p126c1f67cd)" d="M 112.819112 228.432854 
L 113.540065 291.285584 
L 114.261019 291.285584 
L 114.981972 295.21388 
L 115.702925 297.178028 
L 116.423878 301.106323 
L 120.749598 301.106323 
L 121.470551 271.644106 
L 122.191504 252.002627 
L 124.354364 234.325297 
L 125.075317 224.504558 
L 126.517223 195.042341 
L 127.238177 179.329158 
L 127.95913 71.301027 
L 128.680083 147.902793 
L 129.401036 130.225462 
L 130.121989 118.440575 
L 130.842943 165.580123 
L 132.284849 128.261314 
L 133.005802 77.193471 
L 133.726755 165.580123 
L 135.168662 134.153758 
L 135.889615 126.297167 
L 136.610568 165.580123 
L 137.331522 143.974497 
L 138.052475 130.225462 
L 138.773428 90.942506 
L 139.494381 161.651827 
L 140.215334 143.974497 
L 140.936288 94.870801 
L 141.657241 157.723532 
L 142.378194 257.895071 
L 143.099147 248.074332 
L 144.541054 248.074332 
L 145.262007 250.03848 
L 146.703913 250.03848 
L 147.424867 252.002627 
L 148.14582 250.03848 
L 148.866773 250.03848 
L 149.587726 248.074332 
L 150.308679 250.03848 
L 153.913445 250.03848 
L 154.634399 248.074332 
L 156.076305 248.074332 
L 156.797258 252.002627 
L 157.518212 252.002627 
L 158.239165 244.146036 
L 158.960118 238.253593 
L 159.681071 234.325297 
L 161.843931 216.647967 
L 163.285837 200.934784 
L 164.00679 191.114045 
L 165.448697 167.544271 
L 166.16965 153.795236 
L 166.890603 136.117906 
L 167.611557 126.297167 
L 168.33251 147.902793 
L 169.053463 173.436714 
L 169.774416 165.580123 
L 170.495369 159.68768 
L 171.216323 151.831088 
L 171.937276 155.759384 
L 172.658229 138.082054 
L 173.379182 126.297167 
L 174.100135 120.404723 
L 174.821089 116.476427 
L 175.542042 147.902793 
L 176.262995 169.508419 
L 176.983948 159.68768 
L 179.867761 128.261314 
L 181.309668 116.476427 
L 182.030621 136.117906 
L 182.751574 169.508419 
L 183.472527 157.723532 
L 184.193481 143.974497 
L 184.914434 134.153758 
L 185.635387 120.404723 
L 186.35634 67.372732 
L 187.077293 169.508419 
L 188.5192 140.046201 
L 189.240153 92.906654 
L 189.961106 171.472567 
L 190.682059 159.68768 
L 191.403013 140.046201 
L 192.123966 102.727393 
L 192.844919 142.010349 
L 193.565872 157.723532 
L 195.007779 120.404723 
L 195.728732 104.69154 
L 196.449685 155.759384 
L 197.170638 234.325297 
L 197.891592 234.325297 
L 198.612545 240.217741 
L 199.333498 242.181888 
L 200.054451 246.110184 
L 200.775404 246.110184 
L 201.496358 248.074332 
L 202.217311 248.074332 
L 202.938264 250.03848 
L 205.822077 250.03848 
L 206.54303 248.074332 
L 207.984937 248.074332 
L 208.70589 246.110184 
L 209.426843 248.074332 
L 210.147796 246.110184 
L 210.868749 242.181888 
L 211.589703 242.181888 
L 214.473516 187.185749 
L 215.915422 171.472567 
L 217.357328 159.68768 
L 218.078282 149.86694 
L 218.799235 142.010349 
L 220.241141 122.368871 
L 220.962094 116.476427 
L 221.683048 171.472567 
L 222.404001 161.651827 
L 223.124954 155.759384 
L 223.845907 151.831088 
L 224.566861 145.938645 
L 226.008767 142.010349 
L 226.72972 138.082054 
L 227.450673 122.368871 
L 228.171627 116.476427 
L 228.89258 143.974497 
L 229.613533 155.759384 
L 230.334486 140.046201 
L 231.055439 128.261314 
L 231.776393 114.51228 
L 232.497346 171.472567 
L 233.939252 140.046201 
L 234.660206 104.69154 
L 235.381159 173.436714 
L 236.102112 157.723532 
L 236.823065 138.082054 
L 237.544018 98.799097 
L 238.264972 132.18961 
L 238.985925 153.795236 
L 239.706878 108.619836 
L 240.427831 167.544271 
L 241.148784 153.795236 
L 241.869738 112.548132 
L 242.590691 161.651827 
L 243.311644 155.759384 
L 244.032597 118.440575 
L 244.753551 161.651827 
L 245.474504 157.723532 
L 246.195457 112.548132 
L 246.91641 200.934784 
L 247.637363 250.03848 
L 248.358317 252.002627 
L 249.07927 252.002627 
L 249.800223 253.966775 
L 251.242129 253.966775 
L 251.963083 252.002627 
L 254.125942 252.002627 
L 254.846896 250.03848 
L 257.730708 250.03848 
L 259.893568 244.146036 
L 260.614521 240.217741 
L 261.335475 238.253593 
L 262.056428 232.361149 
L 262.777381 208.791375 
L 263.498334 200.934784 
L 264.219287 191.114045 
L 266.382147 167.544271 
L 267.824053 147.902793 
L 268.545007 136.117906 
L 269.26596 122.368871 
L 270.707866 173.436714 
L 271.42882 163.615975 
L 272.149773 157.723532 
L 272.870726 153.795236 
L 273.591679 147.902793 
L 274.312632 145.938645 
L 275.033586 142.010349 
L 275.754539 140.046201 
L 276.475492 143.974497 
L 277.196445 130.225462 
L 278.638352 118.440575 
L 279.359305 116.476427 
L 280.080258 177.36501 
L 281.522165 153.795236 
L 282.243118 143.974497 
L 282.964071 136.117906 
L 283.685024 124.333019 
L 284.405977 118.440575 
L 285.126931 94.870801 
L 285.847884 171.472567 
L 286.568837 149.86694 
L 287.28979 138.082054 
L 288.010743 124.333019 
L 288.731697 65.408584 
L 289.45265 163.615975 
L 292.336463 102.727393 
L 293.057416 153.795236 
L 293.778369 134.153758 
L 294.499322 165.580123 
L 295.220276 159.68768 
L 295.941229 140.046201 
L 296.662182 98.799097 
L 297.383135 143.974497 
L 298.104088 155.759384 
L 298.825042 142.010349 
L 299.545995 134.153758 
L 300.266948 236.289445 
L 300.987901 236.289445 
L 301.708855 242.181888 
L 302.429808 244.146036 
L 303.150761 248.074332 
L 303.871714 248.074332 
L 304.592667 250.03848 
L 308.197433 250.03848 
L 308.918387 248.074332 
L 309.63934 248.074332 
L 310.360293 246.110184 
L 311.8022 246.110184 
L 312.523153 242.181888 
L 313.965059 238.253593 
L 314.686012 238.253593 
L 316.127919 208.791375 
L 316.848872 189.149897 
L 317.569825 173.436714 
L 319.011732 149.86694 
L 320.453638 130.225462 
L 321.174591 118.440575 
L 321.895545 73.265175 
L 322.616498 167.544271 
L 323.337451 157.723532 
L 324.779357 145.938645 
L 325.500311 142.010349 
L 327.66317 136.117906 
L 328.384124 136.117906 
L 329.105077 134.153758 
L 329.82603 145.938645 
L 330.546983 126.297167 
L 331.267936 122.368871 
L 331.98889 116.476427 
L 333.430796 169.508419 
L 335.593656 130.225462 
L 336.314609 120.404723 
L 337.035562 102.727393 
L 337.756515 167.544271 
L 338.477469 147.902793 
L 339.198422 136.117906 
L 339.919375 120.404723 
L 340.640328 171.472567 
L 341.361281 145.938645 
L 342.082235 134.153758 
L 342.803188 96.834949 
L 343.524141 159.68768 
L 344.966047 126.297167 
L 345.687001 163.615975 
L 346.407954 142.010349 
L 347.128907 130.225462 
L 347.84986 96.834949 
L 348.570814 155.759384 
L 350.01272 124.333019 
L 350.733673 155.759384 
L 351.454626 116.476427 
L 352.17558 273.608254 
L 352.896533 257.895071 
L 353.617486 252.002627 
L 354.338439 253.966775 
L 355.059392 252.002627 
L 355.780346 253.966775 
L 356.501299 252.002627 
L 358.664159 252.002627 
L 359.385112 250.03848 
L 360.106065 252.002627 
L 360.827018 250.03848 
L 366.594644 250.03848 
L 367.315597 255.930923 
L 368.03655 246.110184 
L 368.757504 242.181888 
L 369.478457 236.289445 
L 370.19941 232.361149 
L 372.36227 214.683819 
L 373.083223 206.827227 
L 374.525129 187.185749 
L 375.246082 175.400862 
L 377.408942 126.297167 
L 378.129895 128.261314 
L 378.850849 177.36501 
L 379.571802 167.544271 
L 380.292755 161.651827 
L 381.013708 153.795236 
L 381.734661 155.759384 
L 382.455615 134.153758 
L 383.176568 124.333019 
L 383.897521 118.440575 
L 384.618474 155.759384 
L 385.339427 175.400862 
L 386.060381 159.68768 
L 386.781334 149.86694 
L 388.944194 126.297167 
L 389.665147 116.476427 
L 390.3861 118.440575 
L 391.107053 171.472567 
L 391.828006 155.759384 
L 392.54896 145.938645 
L 393.269913 134.153758 
L 393.990866 116.476427 
L 394.711819 149.86694 
L 395.432773 161.651827 
L 396.153726 147.902793 
L 396.874679 126.297167 
L 397.595632 126.297167 
L 398.316585 161.651827 
L 399.037539 142.010349 
L 399.758492 126.297167 
L 400.479445 98.799097 
L 401.200398 159.68768 
L 401.921351 138.082054 
L 402.642305 130.225462 
L 403.363258 161.651827 
L 404.084211 143.974497 
L 404.805164 114.51228 
L 405.526118 226.468706 
L 406.247071 234.325297 
L 406.968024 240.217741 
L 407.688977 244.146036 
L 409.851837 250.03848 
L 412.014696 250.03848 
L 412.73565 248.074332 
L 415.619463 248.074332 
L 416.340416 246.110184 
L 417.061369 246.110184 
L 418.503275 242.181888 
L 419.224229 238.253593 
L 419.945182 240.217741 
L 420.666135 228.432854 
L 422.828995 177.36501 
L 424.270901 151.831088 
L 425.712808 132.18961 
L 426.433761 120.404723 
L 427.154714 134.153758 
L 427.875667 169.508419 
L 428.59662 159.68768 
L 429.317574 151.831088 
L 430.038527 145.938645 
L 430.75948 143.974497 
L 431.480433 140.046201 
L 432.92234 136.117906 
L 434.364246 136.117906 
L 435.085199 142.010349 
L 435.806153 134.153758 
L 436.527106 124.333019 
L 437.248059 118.440575 
L 437.969012 114.51228 
L 438.689965 83.085914 
L 439.410919 169.508419 
L 440.852825 136.117906 
L 441.573778 81.121767 
L 442.294731 173.436714 
L 443.015685 155.759384 
L 443.736638 143.974497 
L 444.457591 130.225462 
L 445.178544 140.046201 
L 445.899498 165.580123 
L 446.620451 145.938645 
L 447.341404 130.225462 
L 448.062357 98.799097 
L 448.78331 163.615975 
L 449.504264 143.974497 
L 450.225217 128.261314 
L 450.94617 71.301027 
L 451.667123 157.723532 
L 452.388076 149.86694 
L 453.10903 114.51228 
L 453.829983 257.895071 
L 454.550936 244.146036 
L 455.271889 255.930923 
L 455.992843 248.074332 
L 456.713796 248.074332 
L 457.434749 250.03848 
L 458.155702 250.03848 
L 458.876655 252.002627 
L 459.597609 250.03848 
L 460.318562 252.002627 
L 461.039515 250.03848 
L 463.202375 250.03848 
L 463.923328 248.074332 
L 464.644281 248.074332 
L 465.365234 250.03848 
L 466.086188 248.074332 
L 468.249047 248.074332 
L 468.97 244.146036 
L 469.690954 230.397001 
L 470.411907 222.54041 
L 471.13286 216.647967 
L 471.853813 212.719671 
L 472.574767 206.827227 
L 473.29572 202.898932 
L 474.016673 195.042341 
L 474.737626 189.149897 
L 475.458579 181.293306 
L 476.900486 161.651827 
L 477.621439 149.86694 
L 479.063345 120.404723 
L 479.784299 167.544271 
L 480.505252 175.400862 
L 481.226205 165.580123 
L 481.947158 159.68768 
L 482.668112 151.831088 
L 483.389065 149.86694 
L 484.110018 138.082054 
L 484.830971 130.225462 
L 486.272878 118.440575 
L 486.993831 140.046201 
L 487.714784 177.36501 
L 488.435737 161.651827 
L 489.15669 153.795236 
L 489.877644 143.974497 
L 491.31955 128.261314 
L 492.040503 118.440575 
L 492.761457 132.18961 
L 493.48241 169.508419 
L 495.645269 130.225462 
L 496.366223 92.906654 
L 497.087176 173.436714 
L 497.808129 159.68768 
L 498.529082 142.010349 
L 499.250035 118.440575 
L 499.970989 142.010349 
L 500.691942 159.68768 
L 501.412895 140.046201 
L 501.412895 140.046201 
" style="fill:none;stroke:#1f77b4;stroke-linecap:square;stroke-width:1.5;"/>
   </g>
   <g id="line2d_17">
    <path clip-path="url(#p126c1f67cd)" d="M 121.457574 271.644106 
L 122.178527 253.966775 
L 122.89948 246.110184 
L 123.620433 242.181888 
L 124.341386 234.325297 
L 125.06234 224.504558 
L 125.783293 210.755523 
L 126.504246 193.078193 
L 127.225199 195.042341 
L 127.946153 69.33688 
L 128.667106 149.86694 
L 130.109012 110.583984 
L 130.829965 167.544271 
L 131.550919 145.938645 
L 132.271872 128.261314 
L 132.992825 75.229323 
L 133.713778 167.544271 
L 135.155685 134.153758 
L 135.876638 122.368871 
L 136.597591 165.580123 
L 137.318544 145.938645 
L 138.039498 130.225462 
L 138.760451 85.050062 
L 139.481404 161.651827 
L 140.202357 145.938645 
L 140.92331 90.942506 
L 142.365217 281.464845 
L 143.08617 248.074332 
L 144.528077 248.074332 
L 145.24903 250.03848 
L 146.690936 250.03848 
L 147.411889 252.002627 
L 148.132843 250.03848 
L 148.853796 250.03848 
L 149.574749 248.074332 
L 150.295702 250.03848 
L 152.458562 250.03848 
L 153.179515 248.074332 
L 156.063328 248.074332 
L 156.784281 271.644106 
L 157.505234 252.002627 
L 158.226188 244.146036 
L 158.947141 238.253593 
L 159.668094 234.325297 
L 161.830954 216.647967 
L 162.551907 208.791375 
L 163.993813 189.149897 
L 164.714767 177.36501 
L 166.156673 147.902793 
L 166.877626 132.18961 
L 167.598579 106.655688 
L 168.319533 114.51228 
L 169.040486 167.544271 
L 169.761439 157.723532 
L 170.482392 149.86694 
L 171.924299 138.082054 
L 173.366205 122.368871 
L 174.087158 116.476427 
L 174.808112 112.548132 
L 175.529065 134.153758 
L 176.250018 169.508419 
L 176.970971 157.723532 
L 177.691924 149.86694 
L 178.412878 143.974497 
L 179.854784 128.261314 
L 180.575737 122.368871 
L 181.29669 114.51228 
L 182.017644 130.225462 
L 182.738597 169.508419 
L 183.45955 157.723532 
L 184.180503 143.974497 
L 184.901457 134.153758 
L 185.62241 120.404723 
L 186.343363 67.372732 
L 187.064316 169.508419 
L 188.506223 140.046201 
L 189.227176 88.978358 
L 189.948129 171.472567 
L 190.669082 159.68768 
L 191.390035 140.046201 
L 192.110989 112.548132 
L 192.831942 132.18961 
L 193.552895 157.723532 
L 194.994802 120.404723 
L 195.715755 102.727393 
L 196.436708 250.03848 
L 197.157661 238.253593 
L 197.878614 234.325297 
L 198.599568 240.217741 
L 200.762427 246.110184 
L 201.483381 246.110184 
L 202.925287 250.03848 
L 205.8091 250.03848 
L 206.530053 248.074332 
L 207.971959 248.074332 
L 208.692913 246.110184 
L 209.413866 246.110184 
L 210.855772 242.181888 
L 211.576726 257.895071 
L 212.297679 228.432854 
L 213.739585 198.970636 
L 214.460538 187.185749 
L 215.902445 171.472567 
L 216.623398 165.580123 
L 218.065304 149.86694 
L 218.786258 140.046201 
L 219.507211 132.18961 
L 220.228164 122.368871 
L 220.949117 77.193471 
L 221.670071 169.508419 
L 223.111977 153.795236 
L 225.274837 142.010349 
L 225.99579 143.974497 
L 226.716743 147.902793 
L 227.437696 122.368871 
L 228.158649 114.51228 
L 228.879603 88.978358 
L 229.600556 155.759384 
L 230.321509 140.046201 
L 231.042462 128.261314 
L 231.763416 106.655688 
L 232.484369 171.472567 
L 233.926275 140.046201 
L 234.647228 98.799097 
L 235.368182 173.436714 
L 236.810088 140.046201 
L 237.531041 108.619836 
L 238.251994 124.333019 
L 238.972948 153.795236 
L 239.693901 104.69154 
L 240.414854 169.508419 
L 241.135807 155.759384 
L 241.856761 110.583984 
L 242.577714 163.615975 
L 243.298667 157.723532 
L 244.01962 116.476427 
L 244.740573 161.651827 
L 245.461527 157.723532 
L 246.18248 140.046201 
L 246.903433 275.572401 
L 247.624386 250.03848 
L 248.345339 252.002627 
L 249.066293 252.002627 
L 249.787246 253.966775 
L 251.229152 253.966775 
L 251.950106 252.002627 
L 254.112965 252.002627 
L 254.833918 250.03848 
L 257.717731 250.03848 
L 259.880591 244.146036 
L 260.601544 240.217741 
L 261.322497 248.074332 
L 262.043451 252.002627 
L 262.764404 208.791375 
L 263.485357 200.934784 
L 264.20631 191.114045 
L 266.36917 167.544271 
L 267.090123 157.723532 
L 268.53203 134.153758 
L 269.252983 120.404723 
L 269.973936 96.834949 
L 270.694889 171.472567 
L 271.415842 161.651827 
L 272.136796 155.759384 
L 272.857749 151.831088 
L 273.578702 145.938645 
L 275.020608 138.082054 
L 275.741562 136.117906 
L 276.462515 138.082054 
L 277.183468 128.261314 
L 278.625375 116.476427 
L 279.346328 81.121767 
L 280.067281 175.400862 
L 280.788234 165.580123 
L 281.509187 153.795236 
L 282.230141 143.974497 
L 282.951094 136.117906 
L 283.672047 124.333019 
L 284.393 116.476427 
L 285.113953 92.906654 
L 285.834907 171.472567 
L 286.55586 151.831088 
L 287.997766 124.333019 
L 288.71872 47.731253 
L 289.439673 163.615975 
L 290.160626 149.86694 
L 290.881579 130.225462 
L 292.323486 102.727393 
L 293.044439 155.759384 
L 293.765392 106.655688 
L 294.486345 165.580123 
L 295.207298 159.68768 
L 295.928252 140.046201 
L 296.649205 104.69154 
L 297.370158 140.046201 
L 298.091111 155.759384 
L 298.812065 142.010349 
L 299.533018 177.36501 
L 300.253971 269.679958 
L 300.974924 236.289445 
L 301.695877 242.181888 
L 302.416831 244.146036 
L 303.137784 248.074332 
L 303.858737 248.074332 
L 304.57969 250.03848 
L 308.184456 250.03848 
L 308.90541 248.074332 
L 309.626363 248.074332 
L 310.347316 246.110184 
L 311.068269 246.110184 
L 313.952082 238.253593 
L 314.673035 252.002627 
L 315.393988 226.468706 
L 317.556848 173.436714 
L 318.998755 149.86694 
L 320.440661 130.225462 
L 321.161614 118.440575 
L 321.882567 65.408584 
L 322.603521 167.544271 
L 323.324474 157.723532 
L 324.045427 149.86694 
L 325.487333 142.010349 
L 326.208287 140.046201 
L 326.92924 136.117906 
L 327.650193 136.117906 
L 328.371146 134.153758 
L 329.0921 134.153758 
L 329.813053 153.795236 
L 330.534006 126.297167 
L 331.254959 122.368871 
L 331.975912 114.51228 
L 332.696866 96.834949 
L 333.417819 169.508419 
L 335.580678 130.225462 
L 336.301632 120.404723 
L 337.022585 100.763245 
L 337.743538 167.544271 
L 338.464491 147.902793 
L 339.185445 136.117906 
L 339.906398 110.583984 
L 340.627351 171.472567 
L 341.348304 147.902793 
L 342.069257 134.153758 
L 342.790211 92.906654 
L 343.511164 159.68768 
L 344.232117 142.010349 
L 344.95307 118.440575 
L 345.674024 163.615975 
L 346.394977 142.010349 
L 347.11593 132.18961 
L 347.836883 92.906654 
L 348.557836 155.759384 
L 349.27879 142.010349 
L 349.999743 122.368871 
L 350.720696 155.759384 
L 351.441649 116.476427 
L 352.162602 289.321436 
L 352.883556 257.895071 
L 353.604509 252.002627 
L 354.325462 253.966775 
L 355.046415 252.002627 
L 355.767369 253.966775 
L 356.488322 252.002627 
L 360.093088 252.002627 
L 360.814041 250.03848 
L 362.255947 250.03848 
L 362.976901 252.002627 
L 363.697854 252.002627 
L 364.418807 250.03848 
L 365.13976 250.03848 
L 365.860714 252.002627 
L 366.581667 279.500697 
L 367.30262 259.859219 
L 368.023573 246.110184 
L 368.744526 240.217741 
L 370.186433 232.361149 
L 371.628339 220.576262 
L 372.349292 212.719671 
L 373.070246 206.827227 
L 373.791199 195.042341 
L 374.512152 185.221601 
L 375.954059 157.723532 
L 377.395965 120.404723 
L 378.116918 83.085914 
L 378.837871 171.472567 
L 379.558825 161.651827 
L 381.000731 145.938645 
L 381.721684 140.046201 
L 383.163591 120.404723 
L 383.884544 114.51228 
L 384.605497 110.583984 
L 385.32645 173.436714 
L 386.047404 157.723532 
L 386.768357 149.86694 
L 387.48931 140.046201 
L 389.65217 116.476427 
L 390.373123 106.655688 
L 391.094076 171.472567 
L 391.815029 155.759384 
L 392.535982 145.938645 
L 393.256936 134.153758 
L 393.977889 120.404723 
L 394.698842 138.082054 
L 395.419795 161.651827 
L 396.140749 147.902793 
L 396.861702 128.261314 
L 397.582655 122.368871 
L 398.303608 161.651827 
L 399.024561 142.010349 
L 399.745515 128.261314 
L 400.466468 92.906654 
L 401.187421 159.68768 
L 402.629327 122.368871 
L 403.350281 163.615975 
L 404.071234 142.010349 
L 404.792187 134.153758 
L 405.51314 263.787514 
L 406.234094 234.325297 
L 406.955047 240.217741 
L 408.396953 244.146036 
L 409.117906 248.074332 
L 410.559813 248.074332 
L 411.280766 250.03848 
L 412.001719 248.074332 
L 415.606485 248.074332 
L 416.327439 246.110184 
L 417.048392 246.110184 
L 418.490298 242.181888 
L 419.211251 238.253593 
L 419.932205 250.03848 
L 420.653158 234.325297 
L 421.374111 210.755523 
L 422.816018 177.36501 
L 424.257924 151.831088 
L 425.69983 132.18961 
L 426.420784 120.404723 
L 427.141737 83.085914 
L 427.86269 169.508419 
L 428.583643 159.68768 
L 429.304596 151.831088 
L 430.02555 145.938645 
L 431.467456 138.082054 
L 432.188409 136.117906 
L 432.909363 136.117906 
L 433.630316 134.153758 
L 434.351269 134.153758 
L 435.072222 155.759384 
L 435.793175 136.117906 
L 436.514129 124.333019 
L 437.235082 116.476427 
L 437.956035 114.51228 
L 438.676988 77.193471 
L 439.397941 169.508419 
L 440.839848 136.117906 
L 441.560801 79.157619 
L 442.281754 173.436714 
L 443.002708 155.759384 
L 443.723661 143.974497 
L 444.444614 130.225462 
L 445.165567 128.261314 
L 445.88652 165.580123 
L 446.607474 145.938645 
L 447.328427 132.18961 
L 448.04938 92.906654 
L 448.770333 163.615975 
L 450.21224 128.261314 
L 450.933193 75.229323 
L 451.654146 157.723532 
L 452.375099 149.86694 
L 453.096053 126.297167 
L 453.817006 285.393141 
L 454.537959 244.146036 
L 455.979865 248.074332 
L 456.700819 248.074332 
L 457.421772 250.03848 
L 458.142725 250.03848 
L 458.863678 252.002627 
L 459.584631 250.03848 
L 460.305585 252.002627 
L 461.026538 250.03848 
L 463.189398 250.03848 
L 463.910351 248.074332 
L 467.515117 248.074332 
L 468.23607 269.679958 
L 468.957023 246.110184 
L 469.677976 230.397001 
L 470.39893 222.54041 
L 471.119883 216.647967 
L 471.840836 212.719671 
L 472.561789 206.827227 
L 473.282743 202.898932 
L 474.003696 195.042341 
L 474.724649 189.149897 
L 475.445602 181.293306 
L 476.887509 161.651827 
L 479.050368 118.440575 
L 479.771322 96.834949 
L 480.492275 171.472567 
L 481.213228 161.651827 
L 481.934181 155.759384 
L 482.655134 147.902793 
L 483.376088 145.938645 
L 484.097041 134.153758 
L 486.2599 116.476427 
L 486.980854 98.799097 
L 487.701807 177.36501 
L 488.42276 161.651827 
L 489.143713 151.831088 
L 489.864667 143.974497 
L 490.58562 134.153758 
L 491.306573 128.261314 
L 492.027526 118.440575 
L 492.748479 120.404723 
L 493.469433 169.508419 
L 494.911339 143.974497 
L 495.632292 132.18961 
L 496.353245 88.978358 
L 497.074199 173.436714 
L 498.516105 143.974497 
L 499.237058 122.368871 
L 499.958012 132.18961 
L 500.678965 159.68768 
L 502.841824 106.655688 
L 503.562778 155.759384 
L 504.283731 136.117906 
L 505.004684 130.225462 
L 505.725637 163.615975 
L 506.44659 145.938645 
L 507.888497 259.859219 
L 508.60945 236.289445 
L 509.330403 238.253593 
L 510.051357 244.146036 
L 510.051357 244.146036 
" style="fill:none;stroke:#ff7f0e;stroke-linecap:square;stroke-width:1.5;"/>
   </g>
   <g id="patch_3">
    <path d="M 92.9575 352.174167 
L 92.9575 35.0625 
" style="fill:none;stroke:#000000;stroke-linecap:square;stroke-linejoin:miter;stroke-width:0.8;"/>
   </g>
   <g id="patch_4">
    <path d="M 529.912969 352.174167 
L 529.912969 35.0625 
" style="fill:none;stroke:#000000;stroke-linecap:square;stroke-linejoin:miter;stroke-width:0.8;"/>
   </g>
   <g id="patch_5">
    <path d="M 92.9575 352.174167 
L 529.912969 352.174167 
" style="fill:none;stroke:#000000;stroke-linecap:square;stroke-linejoin:miter;stroke-width:0.8;"/>
   </g>
   <g id="patch_6">
    <path d="M 92.9575 35.0625 
L 529.912969 35.0625 
" style="fill:none;stroke:#000000;stroke-linecap:square;stroke-linejoin:miter;stroke-width:0.8;"/>
   </g>
   <g id="legend_1">
    <g id="patch_7">
     <path d="M 553.760742 67.41875 
L 624.956055 67.41875 
Q 626.956055 67.41875 626.956055 65.41875 
L 626.956055 37.0625 
Q 626.956055 35.0625 624.956055 35.0625 
L 553.760742 35.0625 
Q 551.760742 35.0625 551.760742 37.0625 
L 551.760742 65.41875 
Q 551.760742 67.41875 553.760742 67.41875 
z
" style="fill:#ffffff;opacity:0.8;stroke:#cccccc;stroke-linejoin:miter;"/>
    </g>
    <g id="line2d_18">
     <path d="M 555.760742 43.160937 
L 575.760742 43.160937 
" style="fill:none;stroke:#1f77b4;stroke-linecap:square;stroke-width:1.5;"/>
    </g>
    <g id="line2d_19"/>
    <g id="text_17">
     <!-- bbr-pi -->
     <defs>
      <path d="M 48.6875 27.296875 
Q 48.6875 37.203125 44.609375 42.84375 
Q 40.53125 48.484375 33.40625 48.484375 
Q 26.265625 48.484375 22.1875 42.84375 
Q 18.109375 37.203125 18.109375 27.296875 
Q 18.109375 17.390625 22.1875 11.75 
Q 26.265625 6.109375 33.40625 6.109375 
Q 40.53125 6.109375 44.609375 11.75 
Q 48.6875 17.390625 48.6875 27.296875 
z
M 18.109375 46.390625 
Q 20.953125 51.265625 25.265625 53.625 
Q 29.59375 56 35.59375 56 
Q 45.5625 56 51.78125 48.09375 
Q 58.015625 40.1875 58.015625 27.296875 
Q 58.015625 14.40625 51.78125 6.484375 
Q 45.5625 -1.421875 35.59375 -1.421875 
Q 29.59375 -1.421875 25.265625 0.953125 
Q 20.953125 3.328125 18.109375 8.203125 
L 18.109375 0 
L 9.078125 0 
L 9.078125 75.984375 
L 18.109375 75.984375 
z
" id="DejaVuSans-98"/>
      <path d="M 4.890625 31.390625 
L 31.203125 31.390625 
L 31.203125 23.390625 
L 4.890625 23.390625 
z
" id="DejaVuSans-45"/>
      <path d="M 18.109375 8.203125 
L 18.109375 -20.796875 
L 9.078125 -20.796875 
L 9.078125 54.6875 
L 18.109375 54.6875 
L 18.109375 46.390625 
Q 20.953125 51.265625 25.265625 53.625 
Q 29.59375 56 35.59375 56 
Q 45.5625 56 51.78125 48.09375 
Q 58.015625 40.1875 58.015625 27.296875 
Q 58.015625 14.40625 51.78125 6.484375 
Q 45.5625 -1.421875 35.59375 -1.421875 
Q 29.59375 -1.421875 25.265625 0.953125 
Q 20.953125 3.328125 18.109375 8.203125 
z
M 48.6875 27.296875 
Q 48.6875 37.203125 44.609375 42.84375 
Q 40.53125 48.484375 33.40625 48.484375 
Q 26.265625 48.484375 22.1875 42.84375 
Q 18.109375 37.203125 18.109375 27.296875 
Q 18.109375 17.390625 22.1875 11.75 
Q 26.265625 6.109375 33.40625 6.109375 
Q 40.53125 6.109375 44.609375 11.75 
Q 48.6875 17.390625 48.6875 27.296875 
z
" id="DejaVuSans-112"/>
      <path d="M 9.421875 54.6875 
L 18.40625 54.6875 
L 18.40625 0 
L 9.421875 0 
z
M 9.421875 75.984375 
L 18.40625 75.984375 
L 18.40625 64.59375 
L 9.421875 64.59375 
z
" id="DejaVuSans-105"/>
     </defs>
     <g transform="translate(583.760742 46.660937)scale(0.1 -0.1)">
      <use xlink:href="#DejaVuSans-98"/>
      <use x="63.476562" xlink:href="#DejaVuSans-98"/>
      <use x="126.953125" xlink:href="#DejaVuSans-114"/>
      <use x="167.972656" xlink:href="#DejaVuSans-45"/>
      <use x="204.056641" xlink:href="#DejaVuSans-112"/>
      <use x="267.533203" xlink:href="#DejaVuSans-105"/>
     </g>
    </g>
    <g id="line2d_20">
     <path d="M 555.760742 57.839063 
L 575.760742 57.839063 
" style="fill:none;stroke:#ff7f0e;stroke-linecap:square;stroke-width:1.5;"/>
    </g>
    <g id="line2d_21"/>
    <g id="text_18">
     <!-- cubic-pi -->
     <defs>
      <path d="M 48.78125 52.59375 
L 48.78125 44.1875 
Q 44.96875 46.296875 41.140625 47.34375 
Q 37.3125 48.390625 33.40625 48.390625 
Q 24.65625 48.390625 19.8125 42.84375 
Q 14.984375 37.3125 14.984375 27.296875 
Q 14.984375 17.28125 19.8125 11.734375 
Q 24.65625 6.203125 33.40625 6.203125 
Q 37.3125 6.203125 41.140625 7.25 
Q 44.96875 8.296875 48.78125 10.40625 
L 48.78125 2.09375 
Q 45.015625 0.34375 40.984375 -0.53125 
Q 36.96875 -1.421875 32.421875 -1.421875 
Q 20.0625 -1.421875 12.78125 6.34375 
Q 5.515625 14.109375 5.515625 27.296875 
Q 5.515625 40.671875 12.859375 48.328125 
Q 20.21875 56 33.015625 56 
Q 37.15625 56 41.109375 55.140625 
Q 45.0625 54.296875 48.78125 52.59375 
z
" id="DejaVuSans-99"/>
      <path d="M 8.5 21.578125 
L 8.5 54.6875 
L 17.484375 54.6875 
L 17.484375 21.921875 
Q 17.484375 14.15625 20.5 10.265625 
Q 23.53125 6.390625 29.59375 6.390625 
Q 36.859375 6.390625 41.078125 11.03125 
Q 45.3125 15.671875 45.3125 23.6875 
L 45.3125 54.6875 
L 54.296875 54.6875 
L 54.296875 0 
L 45.3125 0 
L 45.3125 8.40625 
Q 42.046875 3.421875 37.71875 1 
Q 33.40625 -1.421875 27.6875 -1.421875 
Q 18.265625 -1.421875 13.375 4.4375 
Q 8.5 10.296875 8.5 21.578125 
z
M 31.109375 56 
z
" id="DejaVuSans-117"/>
     </defs>
     <g transform="translate(583.760742 61.339063)scale(0.1 -0.1)">
      <use xlink:href="#DejaVuSans-99"/>
      <use x="54.980469" xlink:href="#DejaVuSans-117"/>
      <use x="118.359375" xlink:href="#DejaVuSans-98"/>
      <use x="181.835938" xlink:href="#DejaVuSans-105"/>
      <use x="209.619141" xlink:href="#DejaVuSans-99"/>
      <use x="264.599609" xlink:href="#DejaVuSans-45"/>
      <use x="300.683594" xlink:href="#DejaVuSans-112"/>
      <use x="364.160156" xlink:href="#DejaVuSans-105"/>
     </g>
    </g>
   </g>
  </g>
  <g id="text_19">
   <!-- result rtt -->
   <defs>
    <path d="M 56.203125 29.59375 
L 56.203125 25.203125 
L 14.890625 25.203125 
Q 15.484375 15.921875 20.484375 11.0625 
Q 25.484375 6.203125 34.421875 6.203125 
Q 39.59375 6.203125 44.453125 7.46875 
Q 49.3125 8.734375 54.109375 11.28125 
L 54.109375 2.78125 
Q 49.265625 0.734375 44.1875 -0.34375 
Q 39.109375 -1.421875 33.890625 -1.421875 
Q 20.796875 -1.421875 13.15625 6.1875 
Q 5.515625 13.8125 5.515625 26.8125 
Q 5.515625 40.234375 12.765625 48.109375 
Q 20.015625 56 32.328125 56 
Q 43.359375 56 49.78125 48.890625 
Q 56.203125 41.796875 56.203125 29.59375 
z
M 47.21875 32.234375 
Q 47.125 39.59375 43.09375 43.984375 
Q 39.0625 48.390625 32.421875 48.390625 
Q 24.90625 48.390625 20.390625 44.140625 
Q 15.875 39.890625 15.1875 32.171875 
z
" id="DejaVuSans-101"/>
    <path d="M 9.421875 75.984375 
L 18.40625 75.984375 
L 18.40625 0 
L 9.421875 0 
z
" id="DejaVuSans-108"/>
    <path id="DejaVuSans-32"/>
   </defs>
   <g transform="translate(315.818438 17.038125)scale(0.12 -0.12)">
    <use xlink:href="#DejaVuSans-114"/>
    <use x="41.082031" xlink:href="#DejaVuSans-101"/>
    <use x="102.605469" xlink:href="#DejaVuSans-115"/>
    <use x="154.705078" xlink:href="#DejaVuSans-117"/>
    <use x="218.083984" xlink:href="#DejaVuSans-108"/>
    <use x="245.867188" xlink:href="#DejaVuSans-116"/>
    <use x="285.076172" xlink:href="#DejaVuSans-32"/>
    <use x="316.863281" xlink:href="#DejaVuSans-114"/>
    <use x="357.976562" xlink:href="#DejaVuSans-116"/>
    <use x="397.185547" xlink:href="#DejaVuSans-116"/>
   </g>
  </g>
 </g>
 <defs>
  <clipPath id="p126c1f67cd">
   <rect height="317.111667" width="436.955469" x="92.9575" y="35.0625"/>
  </clipPath>
 </defs>
</svg>
