<?xml version="1.0" encoding="utf-8" standalone="no"?>
<!DOCTYPE svg PUBLIC "-//W3C//DTD SVG 1.1//EN"
  "http://www.w3.org/Graphics/SVG/1.1/DTD/svg11.dtd">
<!-- Created with matplotlib (https://matplotlib.org/) -->
<svg height="396pt" version="1.1" viewBox="0 0 684 396" width="684pt" xmlns="http://www.w3.org/2000/svg" xmlns:xlink="http://www.w3.org/1999/xlink">
 <defs>
  <style type="text/css">
*{stroke-linecap:butt;stroke-linejoin:round;}
  </style>
 </defs>
 <g id="figure_1">
  <g id="patch_1">
   <path d="M 0 396 
L 684 396 
L 684 0 
L 0 0 
z
" style="fill:#ffffff;"/>
  </g>
  <g id="axes_1">
   <g id="patch_2">
    <path d="M 70.834375 352.174167 
L 516.019219 352.174167 
L 516.019219 35.0625 
L 70.834375 35.0625 
z
" style="fill:#ffffff;"/>
   </g>
   <g id="matplotlib.axis_1">
    <g id="xtick_1">
     <g id="line2d_1">
      <defs>
       <path d="M 0 0 
L 0 3.5 
" id="mbdaef33161" style="stroke:#000000;stroke-width:0.8;"/>
      </defs>
      <g>
       <use style="stroke:#000000;stroke-width:0.8;" x="95.297792" xlink:href="#mbdaef33161" y="352.174167"/>
      </g>
     </g>
     <g id="text_1">
      <!-- 0 -->
      <defs>
       <path d="M 31.78125 66.40625 
Q 24.171875 66.40625 20.328125 58.90625 
Q 16.5 51.421875 16.5 36.375 
Q 16.5 21.390625 20.328125 13.890625 
Q 24.171875 6.390625 31.78125 6.390625 
Q 39.453125 6.390625 43.28125 13.890625 
Q 47.125 21.390625 47.125 36.375 
Q 47.125 51.421875 43.28125 58.90625 
Q 39.453125 66.40625 31.78125 66.40625 
z
M 31.78125 74.21875 
Q 44.046875 74.21875 50.515625 64.515625 
Q 56.984375 54.828125 56.984375 36.375 
Q 56.984375 17.96875 50.515625 8.265625 
Q 44.046875 -1.421875 31.78125 -1.421875 
Q 19.53125 -1.421875 13.0625 8.265625 
Q 6.59375 17.96875 6.59375 36.375 
Q 6.59375 54.828125 13.0625 64.515625 
Q 19.53125 74.21875 31.78125 74.21875 
z
" id="DejaVuSans-48"/>
      </defs>
      <g transform="translate(92.116542 366.772604)scale(0.1 -0.1)">
       <use xlink:href="#DejaVuSans-48"/>
      </g>
     </g>
    </g>
    <g id="xtick_2">
     <g id="line2d_2">
      <g>
       <use style="stroke:#000000;stroke-width:0.8;" x="165.625265" xlink:href="#mbdaef33161" y="352.174167"/>
      </g>
     </g>
     <g id="text_2">
      <!-- 50 -->
      <defs>
       <path d="M 10.796875 72.90625 
L 49.515625 72.90625 
L 49.515625 64.59375 
L 19.828125 64.59375 
L 19.828125 46.734375 
Q 21.96875 47.46875 24.109375 47.828125 
Q 26.265625 48.1875 28.421875 48.1875 
Q 40.625 48.1875 47.75 41.5 
Q 54.890625 34.8125 54.890625 23.390625 
Q 54.890625 11.625 47.5625 5.09375 
Q 40.234375 -1.421875 26.90625 -1.421875 
Q 22.3125 -1.421875 17.546875 -0.640625 
Q 12.796875 0.140625 7.71875 1.703125 
L 7.71875 11.625 
Q 12.109375 9.234375 16.796875 8.0625 
Q 21.484375 6.890625 26.703125 6.890625 
Q 35.15625 6.890625 40.078125 11.328125 
Q 45.015625 15.765625 45.015625 23.390625 
Q 45.015625 31 40.078125 35.4375 
Q 35.15625 39.890625 26.703125 39.890625 
Q 22.75 39.890625 18.8125 39.015625 
Q 14.890625 38.140625 10.796875 36.28125 
z
" id="DejaVuSans-53"/>
      </defs>
      <g transform="translate(159.262765 366.772604)scale(0.1 -0.1)">
       <use xlink:href="#DejaVuSans-53"/>
       <use x="63.623047" xlink:href="#DejaVuSans-48"/>
      </g>
     </g>
    </g>
    <g id="xtick_3">
     <g id="line2d_3">
      <g>
       <use style="stroke:#000000;stroke-width:0.8;" x="235.952739" xlink:href="#mbdaef33161" y="352.174167"/>
      </g>
     </g>
     <g id="text_3">
      <!-- 100 -->
      <defs>
       <path d="M 12.40625 8.296875 
L 28.515625 8.296875 
L 28.515625 63.921875 
L 10.984375 60.40625 
L 10.984375 69.390625 
L 28.421875 72.90625 
L 38.28125 72.90625 
L 38.28125 8.296875 
L 54.390625 8.296875 
L 54.390625 0 
L 12.40625 0 
z
" id="DejaVuSans-49"/>
      </defs>
      <g transform="translate(226.408989 366.772604)scale(0.1 -0.1)">
       <use xlink:href="#DejaVuSans-49"/>
       <use x="63.623047" xlink:href="#DejaVuSans-48"/>
       <use x="127.246094" xlink:href="#DejaVuSans-48"/>
      </g>
     </g>
    </g>
    <g id="xtick_4">
     <g id="line2d_4">
      <g>
       <use style="stroke:#000000;stroke-width:0.8;" x="306.280212" xlink:href="#mbdaef33161" y="352.174167"/>
      </g>
     </g>
     <g id="text_4">
      <!-- 150 -->
      <g transform="translate(296.736462 366.772604)scale(0.1 -0.1)">
       <use xlink:href="#DejaVuSans-49"/>
       <use x="63.623047" xlink:href="#DejaVuSans-53"/>
       <use x="127.246094" xlink:href="#DejaVuSans-48"/>
      </g>
     </g>
    </g>
    <g id="xtick_5">
     <g id="line2d_5">
      <g>
       <use style="stroke:#000000;stroke-width:0.8;" x="376.607686" xlink:href="#mbdaef33161" y="352.174167"/>
      </g>
     </g>
     <g id="text_5">
      <!-- 200 -->
      <defs>
       <path d="M 19.1875 8.296875 
L 53.609375 8.296875 
L 53.609375 0 
L 7.328125 0 
L 7.328125 8.296875 
Q 12.9375 14.109375 22.625 23.890625 
Q 32.328125 33.6875 34.8125 36.53125 
Q 39.546875 41.84375 41.421875 45.53125 
Q 43.3125 49.21875 43.3125 52.78125 
Q 43.3125 58.59375 39.234375 62.25 
Q 35.15625 65.921875 28.609375 65.921875 
Q 23.96875 65.921875 18.8125 64.3125 
Q 13.671875 62.703125 7.8125 59.421875 
L 7.8125 69.390625 
Q 13.765625 71.78125 18.9375 73 
Q 24.125 74.21875 28.421875 74.21875 
Q 39.75 74.21875 46.484375 68.546875 
Q 53.21875 62.890625 53.21875 53.421875 
Q 53.21875 48.921875 51.53125 44.890625 
Q 49.859375 40.875 45.40625 35.40625 
Q 44.1875 33.984375 37.640625 27.21875 
Q 31.109375 20.453125 19.1875 8.296875 
z
" id="DejaVuSans-50"/>
      </defs>
      <g transform="translate(367.063936 366.772604)scale(0.1 -0.1)">
       <use xlink:href="#DejaVuSans-50"/>
       <use x="63.623047" xlink:href="#DejaVuSans-48"/>
       <use x="127.246094" xlink:href="#DejaVuSans-48"/>
      </g>
     </g>
    </g>
    <g id="xtick_6">
     <g id="line2d_6">
      <g>
       <use style="stroke:#000000;stroke-width:0.8;" x="446.935159" xlink:href="#mbdaef33161" y="352.174167"/>
      </g>
     </g>
     <g id="text_6">
      <!-- 250 -->
      <g transform="translate(437.391409 366.772604)scale(0.1 -0.1)">
       <use xlink:href="#DejaVuSans-50"/>
       <use x="63.623047" xlink:href="#DejaVuSans-53"/>
       <use x="127.246094" xlink:href="#DejaVuSans-48"/>
      </g>
     </g>
    </g>
   </g>
   <g id="matplotlib.axis_2">
    <g id="ytick_1">
     <g id="line2d_7">
      <defs>
       <path d="M 0 0 
L -3.5 0 
" id="m8488f96b66" style="stroke:#000000;stroke-width:0.8;"/>
      </defs>
      <g>
       <use style="stroke:#000000;stroke-width:0.8;" x="70.834375" xlink:href="#m8488f96b66" y="352.174167"/>
      </g>
     </g>
     <g id="text_7">
      <!-- 0.0 -->
      <defs>
       <path d="M 10.6875 12.40625 
L 21 12.40625 
L 21 0 
L 10.6875 0 
z
" id="DejaVuSans-46"/>
      </defs>
      <g transform="translate(47.93125 355.973385)scale(0.1 -0.1)">
       <use xlink:href="#DejaVuSans-48"/>
       <use x="63.623047" xlink:href="#DejaVuSans-46"/>
       <use x="95.410156" xlink:href="#DejaVuSans-48"/>
      </g>
     </g>
    </g>
    <g id="ytick_2">
     <g id="line2d_8">
      <g>
       <use style="stroke:#000000;stroke-width:0.8;" x="70.834375" xlink:href="#m8488f96b66" y="311.576904"/>
      </g>
     </g>
     <g id="text_8">
      <!-- 0.5 -->
      <g transform="translate(47.93125 315.376123)scale(0.1 -0.1)">
       <use xlink:href="#DejaVuSans-48"/>
       <use x="63.623047" xlink:href="#DejaVuSans-46"/>
       <use x="95.410156" xlink:href="#DejaVuSans-53"/>
      </g>
     </g>
    </g>
    <g id="ytick_3">
     <g id="line2d_9">
      <g>
       <use style="stroke:#000000;stroke-width:0.8;" x="70.834375" xlink:href="#m8488f96b66" y="270.979641"/>
      </g>
     </g>
     <g id="text_9">
      <!-- 1.0 -->
      <g transform="translate(47.93125 274.77886)scale(0.1 -0.1)">
       <use xlink:href="#DejaVuSans-49"/>
       <use x="63.623047" xlink:href="#DejaVuSans-46"/>
       <use x="95.410156" xlink:href="#DejaVuSans-48"/>
      </g>
     </g>
    </g>
    <g id="ytick_4">
     <g id="line2d_10">
      <g>
       <use style="stroke:#000000;stroke-width:0.8;" x="70.834375" xlink:href="#m8488f96b66" y="230.382378"/>
      </g>
     </g>
     <g id="text_10">
      <!-- 1.5 -->
      <g transform="translate(47.93125 234.181597)scale(0.1 -0.1)">
       <use xlink:href="#DejaVuSans-49"/>
       <use x="63.623047" xlink:href="#DejaVuSans-46"/>
       <use x="95.410156" xlink:href="#DejaVuSans-53"/>
      </g>
     </g>
    </g>
    <g id="ytick_5">
     <g id="line2d_11">
      <g>
       <use style="stroke:#000000;stroke-width:0.8;" x="70.834375" xlink:href="#m8488f96b66" y="189.785115"/>
      </g>
     </g>
     <g id="text_11">
      <!-- 2.0 -->
      <g transform="translate(47.93125 193.584334)scale(0.1 -0.1)">
       <use xlink:href="#DejaVuSans-50"/>
       <use x="63.623047" xlink:href="#DejaVuSans-46"/>
       <use x="95.410156" xlink:href="#DejaVuSans-48"/>
      </g>
     </g>
    </g>
    <g id="ytick_6">
     <g id="line2d_12">
      <g>
       <use style="stroke:#000000;stroke-width:0.8;" x="70.834375" xlink:href="#m8488f96b66" y="149.187853"/>
      </g>
     </g>
     <g id="text_12">
      <!-- 2.5 -->
      <g transform="translate(47.93125 152.987071)scale(0.1 -0.1)">
       <use xlink:href="#DejaVuSans-50"/>
       <use x="63.623047" xlink:href="#DejaVuSans-46"/>
       <use x="95.410156" xlink:href="#DejaVuSans-53"/>
      </g>
     </g>
    </g>
    <g id="ytick_7">
     <g id="line2d_13">
      <g>
       <use style="stroke:#000000;stroke-width:0.8;" x="70.834375" xlink:href="#m8488f96b66" y="108.59059"/>
      </g>
     </g>
     <g id="text_13">
      <!-- 3.0 -->
      <defs>
       <path d="M 40.578125 39.3125 
Q 47.65625 37.796875 51.625 33 
Q 55.609375 28.21875 55.609375 21.1875 
Q 55.609375 10.40625 48.1875 4.484375 
Q 40.765625 -1.421875 27.09375 -1.421875 
Q 22.515625 -1.421875 17.65625 -0.515625 
Q 12.796875 0.390625 7.625 2.203125 
L 7.625 11.71875 
Q 11.71875 9.328125 16.59375 8.109375 
Q 21.484375 6.890625 26.8125 6.890625 
Q 36.078125 6.890625 40.9375 10.546875 
Q 45.796875 14.203125 45.796875 21.1875 
Q 45.796875 27.640625 41.28125 31.265625 
Q 36.765625 34.90625 28.71875 34.90625 
L 20.21875 34.90625 
L 20.21875 43.015625 
L 29.109375 43.015625 
Q 36.375 43.015625 40.234375 45.921875 
Q 44.09375 48.828125 44.09375 54.296875 
Q 44.09375 59.90625 40.109375 62.90625 
Q 36.140625 65.921875 28.71875 65.921875 
Q 24.65625 65.921875 20.015625 65.03125 
Q 15.375 64.15625 9.8125 62.3125 
L 9.8125 71.09375 
Q 15.4375 72.65625 20.34375 73.4375 
Q 25.25 74.21875 29.59375 74.21875 
Q 40.828125 74.21875 47.359375 69.109375 
Q 53.90625 64.015625 53.90625 55.328125 
Q 53.90625 49.265625 50.4375 45.09375 
Q 46.96875 40.921875 40.578125 39.3125 
z
" id="DejaVuSans-51"/>
      </defs>
      <g transform="translate(47.93125 112.389808)scale(0.1 -0.1)">
       <use xlink:href="#DejaVuSans-51"/>
       <use x="63.623047" xlink:href="#DejaVuSans-46"/>
       <use x="95.410156" xlink:href="#DejaVuSans-48"/>
      </g>
     </g>
    </g>
    <g id="ytick_8">
     <g id="line2d_14">
      <g>
       <use style="stroke:#000000;stroke-width:0.8;" x="70.834375" xlink:href="#m8488f96b66" y="67.993327"/>
      </g>
     </g>
     <g id="text_14">
      <!-- 3.5 -->
      <g transform="translate(47.93125 71.792546)scale(0.1 -0.1)">
       <use xlink:href="#DejaVuSans-51"/>
       <use x="63.623047" xlink:href="#DejaVuSans-46"/>
       <use x="95.410156" xlink:href="#DejaVuSans-53"/>
      </g>
     </g>
    </g>
    <g id="text_15">
     <!-- droprate -->
     <defs>
      <path d="M 45.40625 46.390625 
L 45.40625 75.984375 
L 54.390625 75.984375 
L 54.390625 0 
L 45.40625 0 
L 45.40625 8.203125 
Q 42.578125 3.328125 38.25 0.953125 
Q 33.9375 -1.421875 27.875 -1.421875 
Q 17.96875 -1.421875 11.734375 6.484375 
Q 5.515625 14.40625 5.515625 27.296875 
Q 5.515625 40.1875 11.734375 48.09375 
Q 17.96875 56 27.875 56 
Q 33.9375 56 38.25 53.625 
Q 42.578125 51.265625 45.40625 46.390625 
z
M 14.796875 27.296875 
Q 14.796875 17.390625 18.875 11.75 
Q 22.953125 6.109375 30.078125 6.109375 
Q 37.203125 6.109375 41.296875 11.75 
Q 45.40625 17.390625 45.40625 27.296875 
Q 45.40625 37.203125 41.296875 42.84375 
Q 37.203125 48.484375 30.078125 48.484375 
Q 22.953125 48.484375 18.875 42.84375 
Q 14.796875 37.203125 14.796875 27.296875 
z
" id="DejaVuSans-100"/>
      <path d="M 41.109375 46.296875 
Q 39.59375 47.171875 37.8125 47.578125 
Q 36.03125 48 33.890625 48 
Q 26.265625 48 22.1875 43.046875 
Q 18.109375 38.09375 18.109375 28.8125 
L 18.109375 0 
L 9.078125 0 
L 9.078125 54.6875 
L 18.109375 54.6875 
L 18.109375 46.1875 
Q 20.953125 51.171875 25.484375 53.578125 
Q 30.03125 56 36.53125 56 
Q 37.453125 56 38.578125 55.875 
Q 39.703125 55.765625 41.0625 55.515625 
z
" id="DejaVuSans-114"/>
      <path d="M 30.609375 48.390625 
Q 23.390625 48.390625 19.1875 42.75 
Q 14.984375 37.109375 14.984375 27.296875 
Q 14.984375 17.484375 19.15625 11.84375 
Q 23.34375 6.203125 30.609375 6.203125 
Q 37.796875 6.203125 41.984375 11.859375 
Q 46.1875 17.53125 46.1875 27.296875 
Q 46.1875 37.015625 41.984375 42.703125 
Q 37.796875 48.390625 30.609375 48.390625 
z
M 30.609375 56 
Q 42.328125 56 49.015625 48.375 
Q 55.71875 40.765625 55.71875 27.296875 
Q 55.71875 13.875 49.015625 6.21875 
Q 42.328125 -1.421875 30.609375 -1.421875 
Q 18.84375 -1.421875 12.171875 6.21875 
Q 5.515625 13.875 5.515625 27.296875 
Q 5.515625 40.765625 12.171875 48.375 
Q 18.84375 56 30.609375 56 
z
" id="DejaVuSans-111"/>
      <path d="M 18.109375 8.203125 
L 18.109375 -20.796875 
L 9.078125 -20.796875 
L 9.078125 54.6875 
L 18.109375 54.6875 
L 18.109375 46.390625 
Q 20.953125 51.265625 25.265625 53.625 
Q 29.59375 56 35.59375 56 
Q 45.5625 56 51.78125 48.09375 
Q 58.015625 40.1875 58.015625 27.296875 
Q 58.015625 14.40625 51.78125 6.484375 
Q 45.5625 -1.421875 35.59375 -1.421875 
Q 29.59375 -1.421875 25.265625 0.953125 
Q 20.953125 3.328125 18.109375 8.203125 
z
M 48.6875 27.296875 
Q 48.6875 37.203125 44.609375 42.84375 
Q 40.53125 48.484375 33.40625 48.484375 
Q 26.265625 48.484375 22.1875 42.84375 
Q 18.109375 37.203125 18.109375 27.296875 
Q 18.109375 17.390625 22.1875 11.75 
Q 26.265625 6.109375 33.40625 6.109375 
Q 40.53125 6.109375 44.609375 11.75 
Q 48.6875 17.390625 48.6875 27.296875 
z
" id="DejaVuSans-112"/>
      <path d="M 34.28125 27.484375 
Q 23.390625 27.484375 19.1875 25 
Q 14.984375 22.515625 14.984375 16.5 
Q 14.984375 11.71875 18.140625 8.90625 
Q 21.296875 6.109375 26.703125 6.109375 
Q 34.1875 6.109375 38.703125 11.40625 
Q 43.21875 16.703125 43.21875 25.484375 
L 43.21875 27.484375 
z
M 52.203125 31.203125 
L 52.203125 0 
L 43.21875 0 
L 43.21875 8.296875 
Q 40.140625 3.328125 35.546875 0.953125 
Q 30.953125 -1.421875 24.3125 -1.421875 
Q 15.921875 -1.421875 10.953125 3.296875 
Q 6 8.015625 6 15.921875 
Q 6 25.140625 12.171875 29.828125 
Q 18.359375 34.515625 30.609375 34.515625 
L 43.21875 34.515625 
L 43.21875 35.40625 
Q 43.21875 41.609375 39.140625 45 
Q 35.0625 48.390625 27.6875 48.390625 
Q 23 48.390625 18.546875 47.265625 
Q 14.109375 46.140625 10.015625 43.890625 
L 10.015625 52.203125 
Q 14.9375 54.109375 19.578125 55.046875 
Q 24.21875 56 28.609375 56 
Q 40.484375 56 46.34375 49.84375 
Q 52.203125 43.703125 52.203125 31.203125 
z
" id="DejaVuSans-97"/>
      <path d="M 18.3125 70.21875 
L 18.3125 54.6875 
L 36.8125 54.6875 
L 36.8125 47.703125 
L 18.3125 47.703125 
L 18.3125 18.015625 
Q 18.3125 11.328125 20.140625 9.421875 
Q 21.96875 7.515625 27.59375 7.515625 
L 36.8125 7.515625 
L 36.8125 0 
L 27.59375 0 
Q 17.1875 0 13.234375 3.875 
Q 9.28125 7.765625 9.28125 18.015625 
L 9.28125 47.703125 
L 2.6875 47.703125 
L 2.6875 54.6875 
L 9.28125 54.6875 
L 9.28125 70.21875 
z
" id="DejaVuSans-116"/>
      <path d="M 56.203125 29.59375 
L 56.203125 25.203125 
L 14.890625 25.203125 
Q 15.484375 15.921875 20.484375 11.0625 
Q 25.484375 6.203125 34.421875 6.203125 
Q 39.59375 6.203125 44.453125 7.46875 
Q 49.3125 8.734375 54.109375 11.28125 
L 54.109375 2.78125 
Q 49.265625 0.734375 44.1875 -0.34375 
Q 39.109375 -1.421875 33.890625 -1.421875 
Q 20.796875 -1.421875 13.15625 6.1875 
Q 5.515625 13.8125 5.515625 26.8125 
Q 5.515625 40.234375 12.765625 48.109375 
Q 20.015625 56 32.328125 56 
Q 43.359375 56 49.78125 48.890625 
Q 56.203125 41.796875 56.203125 29.59375 
z
M 47.21875 32.234375 
Q 47.125 39.59375 43.09375 43.984375 
Q 39.0625 48.390625 32.421875 48.390625 
Q 24.90625 48.390625 20.390625 44.140625 
Q 15.875 39.890625 15.1875 32.171875 
z
" id="DejaVuSans-101"/>
     </defs>
     <g transform="translate(41.851562 215.236302)rotate(-90)scale(0.1 -0.1)">
      <use xlink:href="#DejaVuSans-100"/>
      <use x="63.476562" xlink:href="#DejaVuSans-114"/>
      <use x="104.558594" xlink:href="#DejaVuSans-111"/>
      <use x="165.740234" xlink:href="#DejaVuSans-112"/>
      <use x="229.216797" xlink:href="#DejaVuSans-114"/>
      <use x="270.330078" xlink:href="#DejaVuSans-97"/>
      <use x="331.609375" xlink:href="#DejaVuSans-116"/>
      <use x="370.818359" xlink:href="#DejaVuSans-101"/>
     </g>
    </g>
   </g>
   <g id="line2d_15">
    <path clip-path="url(#p3183de8354)" d="M 91.07005 352.174167 
L 96.000352 352.174167 
L 96.14806 129.883679 
L 96.296187 352.174167 
L 97.64777 352.174167 
L 97.796195 270.630167 
L 97.944526 352.174167 
L 98.833714 352.174167 
L 98.982802 258.981024 
L 99.13227 352.174167 
L 100.470214 352.174167 
L 100.618796 224.217178 
L 100.768412 352.174167 
L 103.154226 352.174167 
L 103.303109 294.425571 
L 103.451753 50.163056 
L 103.600475 352.174167 
L 105.543384 352.174167 
L 105.692668 305.97529 
L 105.841974 352.174167 
L 107.035989 352.174167 
L 107.184769 328.90926 
L 107.335458 352.174167 
L 108.378926 352.174167 
L 108.527964 317.376513 
L 108.828254 352.174167 
L 110.621847 352.174167 
L 110.771302 329.041823 
L 110.921956 352.174167 
L 111.220707 352.174167 
L 111.37449 307.066097 
L 111.52297 352.174167 
L 113.609414 352.174167 
L 113.758329 305.710919 
L 113.907399 352.174167 
L 116.749567 352.174167 
L 116.897901 305.510646 
L 117.04999 352.174167 
L 119.600894 352.174167 
L 119.751419 317.721044 
L 119.901365 352.174167 
L 121.251608 352.174167 
L 121.402409 329.27021 
L 121.551928 352.174167 
L 122.598088 352.174167 
L 122.748799 329.23786 
L 123.051855 352.174167 
L 124.104489 352.174167 
L 124.255737 329.366716 
L 124.404946 352.174167 
L 125.904185 352.174167 
L 126.052873 317.326731 
L 126.20466 352.174167 
L 127.40387 352.174167 
L 127.554139 340.657213 
L 127.703981 352.174167 
L 128.308577 352.174167 
L 128.458442 329.205418 
L 128.607882 352.174167 
L 129.210828 352.174167 
L 129.362514 318.010972 
L 129.512097 352.174167 
L 131.618389 352.174167 
L 131.76763 317.376513 
L 131.916618 352.174167 
L 133.864558 352.174167 
L 134.017778 329.525763 
L 134.169168 352.174167 
L 135.376718 352.174167 
L 135.678225 328.942543 
L 135.829394 352.174167 
L 137.027527 352.174167 
L 137.176651 305.777295 
L 137.3267 352.174167 
L 138.228369 352.174167 
L 138.378512 329.140259 
L 138.527408 352.174167 
L 139.881847 352.174167 
L 140.181282 317.376513 
L 140.330658 352.174167 
L 141.986932 352.174167 
L 142.138093 329.27021 
L 142.28927 352.174167 
L 142.594157 352.174167 
L 142.746094 318.05882 
L 142.897649 352.174167 
L 144.552288 352.174167 
L 144.702976 306.430772 
L 144.851827 352.174167 
L 146.666098 352.174167 
L 146.815121 340.591495 
L 146.963803 352.174167 
L 147.262089 352.174167 
L 147.409833 328.875881 
L 147.559001 352.174167 
L 148.761468 352.174167 
L 148.910134 317.276806 
L 149.061292 352.174167 
L 150.851706 352.174167 
L 151.000695 340.558355 
L 151.151263 352.174167 
L 151.899091 352.174167 
L 152.050069 317.818232 
L 152.198516 352.174167 
L 153.100182 352.174167 
L 153.248691 305.577595 
L 153.398333 352.174167 
L 155.039777 352.174167 
L 155.191678 329.398704 
L 155.340764 352.174167 
L 156.396478 352.174167 
L 156.550893 296.177942 
L 156.699401 352.174167 
L 158.351002 352.174167 
L 158.499833 340.541713 
L 158.651883 306.687037 
L 158.800284 352.174167 
L 161.188011 352.174167 
L 161.339242 306.495109 
L 161.492141 352.174167 
L 162.996897 352.174167 
L 163.146552 329.10754 
L 163.294817 352.174167 
L 164.34968 352.174167 
L 164.499151 329.041823 
L 164.649483 352.174167 
L 165.103798 352.174167 
L 165.255601 329.334638 
L 165.407923 352.174167 
L 166.613106 352.174167 
L 166.762701 317.475651 
L 166.911091 352.174167 
L 168.729717 352.174167 
L 169.028919 328.975731 
L 169.179119 352.174167 
L 171.285854 352.174167 
L 171.436358 329.23786 
L 171.584541 352.174167 
L 172.633367 352.174167 
L 172.781134 305.376169 
L 172.929837 352.174167 
L 174.28332 352.174167 
L 174.4317 328.90926 
L 174.579693 352.174167 
L 175.629804 352.174167 
L 175.786895 341.112242 
L 175.944262 341.201933 
L 176.094779 352.174167 
L 177.433484 352.174167 
L 177.732293 329.074728 
L 177.880774 352.174167 
L 179.226886 352.174167 
L 179.523899 328.942543 
L 179.672565 352.174167 
L 180.576541 352.174167 
L 180.724732 317.075669 
L 180.873244 352.174167 
L 182.520743 352.174167 
L 182.669261 340.541713 
L 182.817875 352.174167 
L 183.711051 352.174167 
L 183.859264 305.577595 
L 184.007626 352.174167 
L 186.107108 352.174167 
L 186.255035 305.443504 
L 186.403845 352.174167 
L 187.445221 352.174167 
L 187.594728 340.591495 
L 187.743111 340.525024 
L 187.891483 352.174167 
L 188.939596 352.174167 
L 189.096649 308.046707 
L 189.247427 352.174167 
L 190.293443 352.174167 
L 190.443825 329.23786 
L 190.594376 352.174167 
L 192.09639 352.174167 
L 192.244617 340.491501 
L 192.392865 340.508287 
L 192.541067 352.174167 
L 193.587035 352.174167 
L 193.738423 317.866621 
L 193.888381 352.174167 
L 195.231015 352.174167 
L 195.381791 294.914276 
L 195.531032 352.174167 
L 197.475223 352.174167 
L 197.624172 328.942543 
L 197.772983 352.174167 
L 198.97156 352.174167 
L 199.120657 340.574949 
L 199.270357 317.525009 
L 199.419309 352.174167 
L 200.626609 352.174167 
L 200.775615 329.008824 
L 200.924756 352.174167 
L 202.123318 352.174167 
L 202.421702 329.041823 
L 202.571534 352.174167 
L 203.466809 352.174167 
L 203.61829 306.430772 
L 203.767282 352.174167 
L 205.576302 352.174167 
L 205.727068 329.205418 
L 206.027422 352.174167 
L 207.233462 352.174167 
L 207.532204 329.041823 
L 207.687754 352.174167 
L 208.739217 352.174167 
L 209.040137 329.302469 
L 209.192703 352.174167 
L 210.404499 352.174167 
L 210.553252 328.975731 
L 210.702864 352.174167 
L 212.06027 352.174167 
L 212.209532 317.426153 
L 212.359028 352.174167 
L 214.000779 352.174167 
L 214.148976 328.90926 
L 214.297818 352.174167 
L 215.808458 352.174167 
L 215.959064 329.23786 
L 216.107547 328.942543 
L 216.257894 352.174167 
L 218.066215 352.174167 
L 218.221254 307.315313 
L 218.371734 352.174167 
L 219.42648 352.174167 
L 219.574583 340.491501 
L 219.724149 352.174167 
L 220.321751 352.174167 
L 220.472523 329.302469 
L 220.773231 352.174167 
L 221.970951 352.174167 
L 222.120309 329.041823 
L 222.269781 352.174167 
L 222.873534 352.174167 
L 223.02352 340.673526 
L 223.173172 340.624448 
L 223.32382 352.174167 
L 223.778622 352.174167 
L 223.929601 317.818232 
L 224.079722 352.174167 
L 224.683127 352.174167 
L 224.834422 318.010972 
L 224.984801 352.174167 
L 226.177833 352.174167 
L 226.329782 306.495109 
L 226.478427 352.174167 
L 229.172291 352.174167 
L 229.31974 328.741403 
L 229.467085 352.174167 
L 229.766026 352.174167 
L 229.920005 340.928387 
L 230.067618 317.176526 
L 230.216306 352.174167 
L 232.592925 352.174167 
L 232.740657 328.808836 
L 233.037691 352.174167 
L 235.014614 352.174167 
L 235.163774 340.624448 
L 235.314149 340.657213 
L 235.464191 352.174167 
L 236.363584 352.174167 
L 236.511945 340.525024 
L 236.664878 340.818289 
L 236.813003 352.174167 
L 237.707353 352.174167 
L 237.856953 222.168376 
L 238.012987 352.174167 
L 240.101331 352.174167 
L 240.249139 317.12617 
L 240.398109 352.174167 
L 242.644353 352.174167 
L 242.794608 329.074728 
L 242.949821 352.174167 
L 244.153429 352.174167 
L 244.304086 283.462297 
L 244.451698 352.174167 
L 246.391649 352.174167 
L 246.546675 307.315313 
L 246.696488 352.174167 
L 248.963095 352.174167 
L 249.116196 295.710658 
L 249.267006 352.174167 
L 251.064993 352.174167 
L 251.214225 317.426153 
L 251.363306 352.174167 
L 251.965272 352.174167 
L 252.1179 318.201562 
L 252.266711 352.174167 
L 254.071632 352.174167 
L 254.223211 317.914873 
L 254.371744 352.174167 
L 254.824835 352.174167 
L 254.974008 305.843482 
L 255.123438 352.174167 
L 257.23464 352.174167 
L 257.38654 329.525763 
L 257.536518 352.174167 
L 258.590715 352.174167 
L 258.739118 328.875881 
L 258.890993 352.174167 
L 260.410075 352.174167 
L 260.560288 317.623305 
L 260.710028 352.174167 
L 261.918583 352.174167 
L 262.071806 329.557307 
L 262.221221 352.174167 
L 263.732647 352.174167 
L 263.881054 305.644353 
L 264.031026 352.174167 
L 264.627872 352.174167 
L 264.779843 329.302469 
L 264.93261 352.174167 
L 266.294642 352.174167 
L 266.44481 340.640853 
L 266.594615 352.174167 
L 267.193917 352.174167 
L 267.342847 305.710919 
L 267.644963 352.174167 
L 270.202509 352.174167 
L 270.353638 329.334638 
L 270.502732 352.174167 
L 270.954593 352.174167 
L 271.107057 318.154114 
L 271.255064 328.808836 
L 271.403296 352.174167 
L 273.040157 352.174167 
L 273.188378 328.842406 
L 273.336217 352.174167 
L 274.821624 352.174167 
L 274.971935 306.171603 
L 275.120873 352.174167 
L 277.071037 352.174167 
L 277.221928 329.302469 
L 277.372046 352.174167 
L 278.723109 352.174167 
L 278.874242 295.075344 
L 279.024346 352.174167 
L 279.92024 352.174167 
L 280.06928 317.326731 
L 280.21841 352.174167 
L 281.729188 352.174167 
L 281.880096 317.721044 
L 282.028857 352.174167 
L 283.526937 352.174167 
L 283.677853 317.769707 
L 283.828488 352.174167 
L 285.176401 352.174167 
L 285.327236 317.769707 
L 285.630875 352.174167 
L 287.599536 352.174167 
L 287.756043 318.988393 
L 287.910962 352.174167 
L 289.899991 352.174167 
L 290.054804 329.806529 
L 290.202878 352.174167 
L 291.261079 352.174167 
L 291.409862 340.541713 
L 291.55822 340.525024 
L 291.707018 352.174167 
L 292.756332 352.174167 
L 292.91141 318.576432 
L 293.060322 352.174167 
L 293.364296 352.174167 
L 293.512831 317.376513 
L 293.810289 352.174167 
L 296.215324 352.174167 
L 296.364525 328.975731 
L 296.513352 352.174167 
L 298.014628 352.174167 
L 298.163483 317.326731 
L 298.314237 352.174167 
L 299.366796 352.174167 
L 299.515382 317.276806 
L 299.664266 352.174167 
L 301.461987 352.174167 
L 301.610246 305.577595 
L 301.761535 352.174167 
L 303.715331 352.174167 
L 303.863754 317.226738 
L 304.012277 352.174167 
L 305.064607 352.174167 
L 305.213503 328.975731 
L 305.365211 352.174167 
L 306.718602 352.174167 
L 306.866803 328.842406 
L 307.016291 352.174167 
L 308.363399 352.174167 
L 308.514788 306.687037 
L 308.663143 352.174167 
L 310.892427 352.174167 
L 311.040767 317.226738 
L 311.348901 352.174167 
L 313.005293 352.174167 
L 313.153592 317.226738 
L 313.302055 352.174167 
L 315.406734 352.174167 
L 315.558161 306.495109 
L 315.708298 352.174167 
L 316.744222 352.174167 
L 316.893204 340.591495 
L 317.041069 352.174167 
L 317.633047 352.174167 
L 317.781664 317.176526 
L 317.92998 352.174167 
L 319.129245 352.174167 
L 319.277497 317.226738 
L 319.426551 352.174167 
L 320.634945 352.174167 
L 320.784354 340.624448 
L 320.935472 352.174167 
L 321.844461 352.174167 
L 321.994043 305.90948 
L 322.143268 352.174167 
L 323.494302 352.174167 
L 323.642389 305.443504 
L 323.791395 352.174167 
L 325.732485 352.174167 
L 325.88033 340.491501 
L 326.031333 340.673526 
L 326.182149 352.174167 
L 327.541983 352.174167 
L 327.691301 329.008824 
L 327.839606 352.174167 
L 328.439627 352.174167 
L 328.588683 317.426153 
L 328.739848 352.174167 
L 329.781897 352.174167 
L 329.930506 328.875881 
L 330.078752 352.174167 
L 330.982101 352.174167 
L 331.130532 340.541713 
L 331.279047 317.276806 
L 331.427338 352.174167 
L 332.46518 352.174167 
L 332.613451 317.226738 
L 332.765782 352.174167 
L 333.818401 352.174167 
L 333.967289 340.591495 
L 334.11624 352.174167 
L 334.562478 352.174167 
L 334.715171 329.398704 
L 335.012592 352.174167 
L 336.212785 352.174167 
L 336.366747 318.436829 
L 336.521937 352.174167 
L 338.01767 352.174167 
L 338.165571 328.808836 
L 338.314064 352.174167 
L 339.68478 352.174167 
L 339.833425 329.041823 
L 339.981617 328.842406 
L 340.132862 352.174167 
L 342.69972 352.174167 
L 342.848658 340.558355 
L 343.000744 340.802384 
L 343.151265 352.174167 
L 344.212566 352.174167 
L 344.361071 317.326731 
L 344.509735 352.174167 
L 346.296867 352.174167 
L 346.446311 340.607995 
L 346.594731 340.541713 
L 346.744089 352.174167 
L 347.786135 352.174167 
L 347.938196 340.786435 
L 348.086314 317.226738 
L 348.234798 352.174167 
L 349.134241 352.174167 
L 349.431957 329.008824 
L 349.580833 352.174167 
L 350.627785 352.174167 
L 350.776891 317.326731 
L 350.925888 352.174167 
L 352.884924 352.174167 
L 353.035845 283.267921 
L 353.188731 352.174167 
L 354.686631 352.174167 
L 354.837423 329.205418 
L 354.988825 352.174167 
L 355.286892 352.174167 
L 355.438471 340.770441 
L 355.586494 340.508287 
L 355.734438 352.174167 
L 357.085234 352.174167 
L 357.234396 328.975731 
L 357.382882 352.174167 
L 358.731756 352.174167 
L 358.879583 340.474667 
L 359.027931 352.174167 
L 359.621164 352.174167 
L 359.76935 328.842406 
L 359.917683 352.174167 
L 360.970105 352.174167 
L 361.12111 340.706013 
L 361.270036 340.607995 
L 361.420503 352.174167 
L 362.024211 352.174167 
L 362.175106 340.722188 
L 362.323909 352.174167 
L 363.071652 352.174167 
L 363.368923 328.875881 
L 363.517794 352.174167 
L 364.555602 352.174167 
L 364.703929 328.875881 
L 364.999917 352.174167 
L 366.042051 352.174167 
L 366.192476 329.205418 
L 366.340696 352.174167 
L 367.675063 352.174167 
L 367.823431 328.90926 
L 368.123483 352.174167 
L 369.174018 352.174167 
L 369.322617 328.842406 
L 369.470832 352.174167 
L 370.064345 352.174167 
L 370.215852 329.334638 
L 370.364516 352.174167 
L 371.861419 352.174167 
L 372.009871 328.842406 
L 372.158526 352.174167 
L 373.504795 352.174167 
L 373.801833 328.875881 
L 373.950156 352.174167 
L 375.883969 352.174167 
L 376.036097 306.750656 
L 376.189247 352.174167 
L 377.380675 352.174167 
L 377.533562 340.865737 
L 377.686073 352.174167 
L 378.280872 352.174167 
L 378.428933 305.510646 
L 378.577372 352.174167 
L 380.380244 352.174167 
L 380.528398 317.226738 
L 380.676773 352.174167 
L 382.030048 352.174167 
L 382.178554 317.226738 
L 382.326658 352.174167 
L 383.813252 352.174167 
L 383.961128 328.808836 
L 384.109252 352.174167 
L 384.564894 352.174167 
L 384.713216 328.90926 
L 384.862652 352.174167 
L 386.202616 352.174167 
L 386.357444 318.62271 
L 386.505382 352.174167 
L 387.871188 352.174167 
L 388.166661 317.075669 
L 388.314851 352.174167 
L 389.945636 352.174167 
L 390.098905 329.620132 
L 390.25061 352.174167 
L 391.743748 352.174167 
L 391.89498 317.818232 
L 392.047886 352.174167 
L 393.988161 352.174167 
L 394.140924 318.248877 
L 394.289095 352.174167 
L 396.523785 352.174167 
L 396.671653 317.075669 
L 396.819786 352.174167 
L 398.009468 352.174167 
L 398.158201 328.90926 
L 398.307346 352.174167 
L 398.763455 352.174167 
L 398.914953 306.495109 
L 399.063567 352.174167 
L 400.263962 352.174167 
L 400.41236 328.942543 
L 400.708837 352.174167 
L 402.804236 352.174167 
L 402.954933 317.721044 
L 403.103483 352.174167 
L 404.304164 352.174167 
L 404.459764 318.714884 
L 404.758604 352.174167 
L 406.709118 352.174167 
L 406.858213 317.326731 
L 407.006798 352.174167 
L 408.360722 352.174167 
L 408.509286 328.875881 
L 408.663683 329.682608 
L 408.81373 352.174167 
L 409.865801 352.174167 
L 410.016942 317.866621 
L 410.168097 352.174167 
L 411.085271 352.174167 
L 411.23592 162.245452 
L 411.383772 352.174167 
L 414.225706 352.174167 
L 414.377732 318.010972 
L 414.526333 352.174167 
L 416.782484 352.174167 
L 416.931681 317.426153 
L 417.080502 352.174167 
L 418.131978 352.174167 
L 418.282665 329.23786 
L 418.431407 328.942543 
L 418.58192 352.174167 
L 420.230528 352.174167 
L 420.378467 328.808836 
L 420.676942 352.174167 
L 422.025738 352.174167 
L 422.173897 328.842406 
L 422.328322 329.620132 
L 422.478781 352.174167 
L 423.665753 352.174167 
L 423.820047 318.483492 
L 423.974258 352.174167 
L 425.15956 352.174167 
L 425.307504 317.12617 
L 425.457003 352.174167 
L 426.648912 352.174167 
L 426.796688 328.775168 
L 426.946303 352.174167 
L 428.286302 352.174167 
L 428.438347 318.010972 
L 428.589393 352.174167 
L 429.490984 352.174167 
L 429.647307 285.530233 
L 429.796017 352.174167 
L 431.591918 352.174167 
L 431.745501 318.436829 
L 431.895244 352.174167 
L 432.202919 352.174167 
L 432.356525 329.682608 
L 432.510113 329.620132 
L 432.65814 352.174167 
L 435.051471 352.174167 
L 435.209013 330.110437 
L 435.366069 352.174167 
L 436.701686 352.174167 
L 436.849952 328.842406 
L 437.149029 352.174167 
L 439.092025 352.174167 
L 439.240636 317.326731 
L 439.391862 352.174167 
L 441.472613 352.174167 
L 441.620422 340.474667 
L 441.768192 352.174167 
L 442.517431 352.174167 
L 442.668819 318.010972 
L 442.820097 352.174167 
L 444.765371 352.174167 
L 444.913496 317.326731 
L 445.061438 352.174167 
L 446.248306 352.174167 
L 446.399574 329.302469 
L 446.699326 352.174167 
L 447.892566 352.174167 
L 448.041208 317.276806 
L 448.189134 352.174167 
L 448.638137 352.174167 
L 448.796622 308.521196 
L 448.953203 352.174167 
L 450.739581 352.174167 
L 450.892363 318.05882 
L 451.043919 352.174167 
L 452.543473 352.174167 
L 452.692124 317.276806 
L 452.840741 352.174167 
L 454.328679 352.174167 
L 454.47796 340.591495 
L 454.628366 352.174167 
L 455.229343 352.174167 
L 455.378112 294.178077 
L 455.528988 352.174167 
L 457.470376 352.174167 
L 457.619103 328.975731 
L 457.767823 352.174167 
L 459.106579 352.174167 
L 459.254497 340.491501 
L 459.402479 340.474667 
L 459.550289 352.174167 
L 460.588734 352.174167 
L 460.743908 318.576432 
L 460.898482 352.174167 
L 462.249747 352.174167 
L 462.401585 318.05882 
L 462.549584 352.174167 
L 464.49187 352.174167 
L 464.641246 329.041823 
L 464.789983 352.174167 
L 465.239916 352.174167 
L 465.394323 329.713717 
L 465.692065 352.174167 
L 467.041292 352.174167 
L 467.347933 329.588763 
L 467.499234 352.174167 
L 467.949453 352.174167 
L 468.102688 329.620132 
L 468.251736 328.975731 
L 468.403869 352.174167 
L 470.208254 352.174167 
L 470.357006 328.975731 
L 470.505199 352.174167 
L 471.104967 352.174167 
L 471.253091 328.875881 
L 471.402812 352.174167 
L 472.759254 352.174167 
L 472.912053 329.525763 
L 473.062265 352.174167 
L 474.255201 352.174167 
L 474.40369 340.558355 
L 474.55213 352.174167 
L 474.849019 352.174167 
L 474.997544 340.558355 
L 475.145942 352.174167 
L 475.593304 352.174167 
L 475.742443 329.008824 
L 475.891388 352.174167 
L 477.374273 352.174167 
L 477.521842 340.457785 
L 477.669429 352.174167 
L 478.259861 352.174167 
L 478.40753 328.775168 
L 478.556048 328.875881 
L 478.70901 352.174167 
L 480.507309 352.174167 
L 480.656583 328.975731 
L 480.804527 352.174167 
L 482.293781 352.174167 
L 482.442962 305.777295 
L 482.591943 352.174167 
L 483.640675 352.174167 
L 483.79528 340.990348 
L 483.948678 340.881465 
L 484.101741 352.174167 
L 485.15458 352.174167 
L 485.31122 318.897722 
L 485.46014 352.174167 
L 486.80275 352.174167 
L 486.955076 317.96299 
L 487.103716 352.174167 
L 488.143509 352.174167 
L 488.291995 294.011899 
L 488.44048 352.174167 
L 491.150245 352.174167 
L 491.301471 306.430772 
L 491.450131 352.174167 
L 492.345388 352.174167 
L 492.644856 329.23786 
L 492.800851 352.174167 
L 493.849866 352.174167 
L 493.999245 340.591495 
L 494.147451 352.174167 
L 495.039228 352.174167 
L 495.18773 305.510646 
L 495.336388 352.174167 
L 495.783544 352.174167 
L 495.783544 352.174167 
" style="fill:none;stroke:#1f77b4;stroke-linecap:square;stroke-width:1.5;"/>
   </g>
   <g id="patch_3">
    <path d="M 70.834375 352.174167 
L 70.834375 35.0625 
" style="fill:none;stroke:#000000;stroke-linecap:square;stroke-linejoin:miter;stroke-width:0.8;"/>
   </g>
   <g id="patch_4">
    <path d="M 516.019219 352.174167 
L 516.019219 35.0625 
" style="fill:none;stroke:#000000;stroke-linecap:square;stroke-linejoin:miter;stroke-width:0.8;"/>
   </g>
   <g id="patch_5">
    <path d="M 70.834375 352.174167 
L 516.019219 352.174167 
" style="fill:none;stroke:#000000;stroke-linecap:square;stroke-linejoin:miter;stroke-width:0.8;"/>
   </g>
   <g id="patch_6">
    <path d="M 70.834375 35.0625 
L 516.019219 35.0625 
" style="fill:none;stroke:#000000;stroke-linecap:square;stroke-linejoin:miter;stroke-width:0.8;"/>
   </g>
   <g id="legend_1">
    <g id="patch_7">
     <path d="M 540.278461 53.01875 
L 620.514398 53.01875 
Q 622.514398 53.01875 622.514398 51.01875 
L 622.514398 37.0625 
Q 622.514398 35.0625 620.514398 35.0625 
L 540.278461 35.0625 
Q 538.278461 35.0625 538.278461 37.0625 
L 538.278461 51.01875 
Q 538.278461 53.01875 540.278461 53.01875 
z
" style="fill:#ffffff;opacity:0.8;stroke:#cccccc;stroke-linejoin:miter;"/>
    </g>
    <g id="line2d_16">
     <path d="M 542.278461 43.160937 
L 562.278461 43.160937 
" style="fill:none;stroke:#1f77b4;stroke-linecap:square;stroke-width:1.5;"/>
    </g>
    <g id="line2d_17"/>
    <g id="text_16">
     <!-- drop_rate -->
     <defs>
      <path d="M 50.984375 -16.609375 
L 50.984375 -23.578125 
L -0.984375 -23.578125 
L -0.984375 -16.609375 
z
" id="DejaVuSans-95"/>
     </defs>
     <g transform="translate(570.278461 46.660937)scale(0.1 -0.1)">
      <use xlink:href="#DejaVuSans-100"/>
      <use x="63.476562" xlink:href="#DejaVuSans-114"/>
      <use x="104.558594" xlink:href="#DejaVuSans-111"/>
      <use x="165.740234" xlink:href="#DejaVuSans-112"/>
      <use x="229.216797" xlink:href="#DejaVuSans-95"/>
      <use x="279.216797" xlink:href="#DejaVuSans-114"/>
      <use x="320.330078" xlink:href="#DejaVuSans-97"/>
      <use x="381.609375" xlink:href="#DejaVuSans-116"/>
      <use x="420.818359" xlink:href="#DejaVuSans-101"/>
     </g>
    </g>
   </g>
  </g>
  <g id="text_17">
   <!-- result droprate -->
   <defs>
    <path d="M 44.28125 53.078125 
L 44.28125 44.578125 
Q 40.484375 46.53125 36.375 47.5 
Q 32.28125 48.484375 27.875 48.484375 
Q 21.1875 48.484375 17.84375 46.4375 
Q 14.5 44.390625 14.5 40.28125 
Q 14.5 37.15625 16.890625 35.375 
Q 19.28125 33.59375 26.515625 31.984375 
L 29.59375 31.296875 
Q 39.15625 29.25 43.1875 25.515625 
Q 47.21875 21.78125 47.21875 15.09375 
Q 47.21875 7.46875 41.1875 3.015625 
Q 35.15625 -1.421875 24.609375 -1.421875 
Q 20.21875 -1.421875 15.453125 -0.5625 
Q 10.6875 0.296875 5.421875 2 
L 5.421875 11.28125 
Q 10.40625 8.6875 15.234375 7.390625 
Q 20.0625 6.109375 24.8125 6.109375 
Q 31.15625 6.109375 34.5625 8.28125 
Q 37.984375 10.453125 37.984375 14.40625 
Q 37.984375 18.0625 35.515625 20.015625 
Q 33.0625 21.96875 24.703125 23.78125 
L 21.578125 24.515625 
Q 13.234375 26.265625 9.515625 29.90625 
Q 5.8125 33.546875 5.8125 39.890625 
Q 5.8125 47.609375 11.28125 51.796875 
Q 16.75 56 26.8125 56 
Q 31.78125 56 36.171875 55.265625 
Q 40.578125 54.546875 44.28125 53.078125 
z
" id="DejaVuSans-115"/>
    <path d="M 8.5 21.578125 
L 8.5 54.6875 
L 17.484375 54.6875 
L 17.484375 21.921875 
Q 17.484375 14.15625 20.5 10.265625 
Q 23.53125 6.390625 29.59375 6.390625 
Q 36.859375 6.390625 41.078125 11.03125 
Q 45.3125 15.671875 45.3125 23.6875 
L 45.3125 54.6875 
L 54.296875 54.6875 
L 54.296875 0 
L 45.3125 0 
L 45.3125 8.40625 
Q 42.046875 3.421875 37.71875 1 
Q 33.40625 -1.421875 27.6875 -1.421875 
Q 18.265625 -1.421875 13.375 4.4375 
Q 8.5 10.296875 8.5 21.578125 
z
M 31.109375 56 
z
" id="DejaVuSans-117"/>
    <path d="M 9.421875 75.984375 
L 18.40625 75.984375 
L 18.40625 0 
L 9.421875 0 
z
" id="DejaVuSans-108"/>
    <path id="DejaVuSans-32"/>
   </defs>
   <g transform="translate(297.047813 17.038125)scale(0.12 -0.12)">
    <use xlink:href="#DejaVuSans-114"/>
    <use x="41.082031" xlink:href="#DejaVuSans-101"/>
    <use x="102.605469" xlink:href="#DejaVuSans-115"/>
    <use x="154.705078" xlink:href="#DejaVuSans-117"/>
    <use x="218.083984" xlink:href="#DejaVuSans-108"/>
    <use x="245.867188" xlink:href="#DejaVuSans-116"/>
    <use x="285.076172" xlink:href="#DejaVuSans-32"/>
    <use x="316.863281" xlink:href="#DejaVuSans-100"/>
    <use x="380.339844" xlink:href="#DejaVuSans-114"/>
    <use x="421.421875" xlink:href="#DejaVuSans-111"/>
    <use x="482.603516" xlink:href="#DejaVuSans-112"/>
    <use x="546.080078" xlink:href="#DejaVuSans-114"/>
    <use x="587.193359" xlink:href="#DejaVuSans-97"/>
    <use x="648.472656" xlink:href="#DejaVuSans-116"/>
    <use x="687.681641" xlink:href="#DejaVuSans-101"/>
   </g>
  </g>
 </g>
 <defs>
  <clipPath id="p3183de8354">
   <rect height="317.111667" width="445.184844" x="70.834375" y="35.0625"/>
  </clipPath>
 </defs>
</svg>
