<?xml version="1.0" encoding="utf-8" standalone="no"?>
<!DOCTYPE svg PUBLIC "-//W3C//DTD SVG 1.1//EN"
  "http://www.w3.org/Graphics/SVG/1.1/DTD/svg11.dtd">
<!-- Created with matplotlib (https://matplotlib.org/) -->
<svg height="396pt" version="1.1" viewBox="0 0 684 396" width="684pt" xmlns="http://www.w3.org/2000/svg" xmlns:xlink="http://www.w3.org/1999/xlink">
 <defs>
  <style type="text/css">
*{stroke-linecap:butt;stroke-linejoin:round;}
  </style>
 </defs>
 <g id="figure_1">
  <g id="patch_1">
   <path d="M 0 396 
L 684 396 
L 684 0 
L 0 0 
z
" style="fill:#ffffff;"/>
  </g>
  <g id="axes_1">
   <g id="patch_2">
    <path d="M 83.472344 352.174167 
L 529.912969 352.174167 
L 529.912969 35.0625 
L 83.472344 35.0625 
z
" style="fill:#ffffff;"/>
   </g>
   <g id="matplotlib.axis_1">
    <g id="xtick_1">
     <g id="line2d_1">
      <defs>
       <path d="M 0 0 
L 0 3.5 
" id="m2fc0d0ec0e" style="stroke:#000000;stroke-width:0.8;"/>
      </defs>
      <g>
       <use style="stroke:#000000;stroke-width:0.8;" x="103.748895" xlink:href="#m2fc0d0ec0e" y="352.174167"/>
      </g>
     </g>
     <g id="text_1">
      <!-- 0 -->
      <defs>
       <path d="M 31.78125 66.40625 
Q 24.171875 66.40625 20.328125 58.90625 
Q 16.5 51.421875 16.5 36.375 
Q 16.5 21.390625 20.328125 13.890625 
Q 24.171875 6.390625 31.78125 6.390625 
Q 39.453125 6.390625 43.28125 13.890625 
Q 47.125 21.390625 47.125 36.375 
Q 47.125 51.421875 43.28125 58.90625 
Q 39.453125 66.40625 31.78125 66.40625 
z
M 31.78125 74.21875 
Q 44.046875 74.21875 50.515625 64.515625 
Q 56.984375 54.828125 56.984375 36.375 
Q 56.984375 17.96875 50.515625 8.265625 
Q 44.046875 -1.421875 31.78125 -1.421875 
Q 19.53125 -1.421875 13.0625 8.265625 
Q 6.59375 17.96875 6.59375 36.375 
Q 6.59375 54.828125 13.0625 64.515625 
Q 19.53125 74.21875 31.78125 74.21875 
z
" id="DejaVuSans-48"/>
      </defs>
      <g transform="translate(100.567645 366.772604)scale(0.1 -0.1)">
       <use xlink:href="#DejaVuSans-48"/>
      </g>
     </g>
    </g>
    <g id="xtick_2">
     <g id="line2d_2">
      <g>
       <use style="stroke:#000000;stroke-width:0.8;" x="177.404137" xlink:href="#m2fc0d0ec0e" y="352.174167"/>
      </g>
     </g>
     <g id="text_2">
      <!-- 50 -->
      <defs>
       <path d="M 10.796875 72.90625 
L 49.515625 72.90625 
L 49.515625 64.59375 
L 19.828125 64.59375 
L 19.828125 46.734375 
Q 21.96875 47.46875 24.109375 47.828125 
Q 26.265625 48.1875 28.421875 48.1875 
Q 40.625 48.1875 47.75 41.5 
Q 54.890625 34.8125 54.890625 23.390625 
Q 54.890625 11.625 47.5625 5.09375 
Q 40.234375 -1.421875 26.90625 -1.421875 
Q 22.3125 -1.421875 17.546875 -0.640625 
Q 12.796875 0.140625 7.71875 1.703125 
L 7.71875 11.625 
Q 12.109375 9.234375 16.796875 8.0625 
Q 21.484375 6.890625 26.703125 6.890625 
Q 35.15625 6.890625 40.078125 11.328125 
Q 45.015625 15.765625 45.015625 23.390625 
Q 45.015625 31 40.078125 35.4375 
Q 35.15625 39.890625 26.703125 39.890625 
Q 22.75 39.890625 18.8125 39.015625 
Q 14.890625 38.140625 10.796875 36.28125 
z
" id="DejaVuSans-53"/>
      </defs>
      <g transform="translate(171.041637 366.772604)scale(0.1 -0.1)">
       <use xlink:href="#DejaVuSans-53"/>
       <use x="63.623047" xlink:href="#DejaVuSans-48"/>
      </g>
     </g>
    </g>
    <g id="xtick_3">
     <g id="line2d_3">
      <g>
       <use style="stroke:#000000;stroke-width:0.8;" x="251.059379" xlink:href="#m2fc0d0ec0e" y="352.174167"/>
      </g>
     </g>
     <g id="text_3">
      <!-- 100 -->
      <defs>
       <path d="M 12.40625 8.296875 
L 28.515625 8.296875 
L 28.515625 63.921875 
L 10.984375 60.40625 
L 10.984375 69.390625 
L 28.421875 72.90625 
L 38.28125 72.90625 
L 38.28125 8.296875 
L 54.390625 8.296875 
L 54.390625 0 
L 12.40625 0 
z
" id="DejaVuSans-49"/>
      </defs>
      <g transform="translate(241.515629 366.772604)scale(0.1 -0.1)">
       <use xlink:href="#DejaVuSans-49"/>
       <use x="63.623047" xlink:href="#DejaVuSans-48"/>
       <use x="127.246094" xlink:href="#DejaVuSans-48"/>
      </g>
     </g>
    </g>
    <g id="xtick_4">
     <g id="line2d_4">
      <g>
       <use style="stroke:#000000;stroke-width:0.8;" x="324.714621" xlink:href="#m2fc0d0ec0e" y="352.174167"/>
      </g>
     </g>
     <g id="text_4">
      <!-- 150 -->
      <g transform="translate(315.170871 366.772604)scale(0.1 -0.1)">
       <use xlink:href="#DejaVuSans-49"/>
       <use x="63.623047" xlink:href="#DejaVuSans-53"/>
       <use x="127.246094" xlink:href="#DejaVuSans-48"/>
      </g>
     </g>
    </g>
    <g id="xtick_5">
     <g id="line2d_5">
      <g>
       <use style="stroke:#000000;stroke-width:0.8;" x="398.369863" xlink:href="#m2fc0d0ec0e" y="352.174167"/>
      </g>
     </g>
     <g id="text_5">
      <!-- 200 -->
      <defs>
       <path d="M 19.1875 8.296875 
L 53.609375 8.296875 
L 53.609375 0 
L 7.328125 0 
L 7.328125 8.296875 
Q 12.9375 14.109375 22.625 23.890625 
Q 32.328125 33.6875 34.8125 36.53125 
Q 39.546875 41.84375 41.421875 45.53125 
Q 43.3125 49.21875 43.3125 52.78125 
Q 43.3125 58.59375 39.234375 62.25 
Q 35.15625 65.921875 28.609375 65.921875 
Q 23.96875 65.921875 18.8125 64.3125 
Q 13.671875 62.703125 7.8125 59.421875 
L 7.8125 69.390625 
Q 13.765625 71.78125 18.9375 73 
Q 24.125 74.21875 28.421875 74.21875 
Q 39.75 74.21875 46.484375 68.546875 
Q 53.21875 62.890625 53.21875 53.421875 
Q 53.21875 48.921875 51.53125 44.890625 
Q 49.859375 40.875 45.40625 35.40625 
Q 44.1875 33.984375 37.640625 27.21875 
Q 31.109375 20.453125 19.1875 8.296875 
z
" id="DejaVuSans-50"/>
      </defs>
      <g transform="translate(388.826113 366.772604)scale(0.1 -0.1)">
       <use xlink:href="#DejaVuSans-50"/>
       <use x="63.623047" xlink:href="#DejaVuSans-48"/>
       <use x="127.246094" xlink:href="#DejaVuSans-48"/>
      </g>
     </g>
    </g>
    <g id="xtick_6">
     <g id="line2d_6">
      <g>
       <use style="stroke:#000000;stroke-width:0.8;" x="472.025105" xlink:href="#m2fc0d0ec0e" y="352.174167"/>
      </g>
     </g>
     <g id="text_6">
      <!-- 250 -->
      <g transform="translate(462.481355 366.772604)scale(0.1 -0.1)">
       <use xlink:href="#DejaVuSans-50"/>
       <use x="63.623047" xlink:href="#DejaVuSans-53"/>
       <use x="127.246094" xlink:href="#DejaVuSans-48"/>
      </g>
     </g>
    </g>
   </g>
   <g id="matplotlib.axis_2">
    <g id="ytick_1">
     <g id="line2d_7">
      <defs>
       <path d="M 0 0 
L -3.5 0 
" id="mea618c82cb" style="stroke:#000000;stroke-width:0.8;"/>
      </defs>
      <g>
       <use style="stroke:#000000;stroke-width:0.8;" x="83.472344" xlink:href="#mea618c82cb" y="352.174167"/>
      </g>
     </g>
     <g id="text_7">
      <!-- 0 -->
      <g transform="translate(70.109844 355.973385)scale(0.1 -0.1)">
       <use xlink:href="#DejaVuSans-48"/>
      </g>
     </g>
    </g>
    <g id="ytick_2">
     <g id="line2d_8">
      <g>
       <use style="stroke:#000000;stroke-width:0.8;" x="83.472344" xlink:href="#mea618c82cb" y="300.358535"/>
      </g>
     </g>
     <g id="text_8">
      <!-- 10 -->
      <g transform="translate(63.747344 304.157754)scale(0.1 -0.1)">
       <use xlink:href="#DejaVuSans-49"/>
       <use x="63.623047" xlink:href="#DejaVuSans-48"/>
      </g>
     </g>
    </g>
    <g id="ytick_3">
     <g id="line2d_9">
      <g>
       <use style="stroke:#000000;stroke-width:0.8;" x="83.472344" xlink:href="#mea618c82cb" y="248.542903"/>
      </g>
     </g>
     <g id="text_9">
      <!-- 20 -->
      <g transform="translate(63.747344 252.342122)scale(0.1 -0.1)">
       <use xlink:href="#DejaVuSans-50"/>
       <use x="63.623047" xlink:href="#DejaVuSans-48"/>
      </g>
     </g>
    </g>
    <g id="ytick_4">
     <g id="line2d_10">
      <g>
       <use style="stroke:#000000;stroke-width:0.8;" x="83.472344" xlink:href="#mea618c82cb" y="196.727271"/>
      </g>
     </g>
     <g id="text_10">
      <!-- 30 -->
      <defs>
       <path d="M 40.578125 39.3125 
Q 47.65625 37.796875 51.625 33 
Q 55.609375 28.21875 55.609375 21.1875 
Q 55.609375 10.40625 48.1875 4.484375 
Q 40.765625 -1.421875 27.09375 -1.421875 
Q 22.515625 -1.421875 17.65625 -0.515625 
Q 12.796875 0.390625 7.625 2.203125 
L 7.625 11.71875 
Q 11.71875 9.328125 16.59375 8.109375 
Q 21.484375 6.890625 26.8125 6.890625 
Q 36.078125 6.890625 40.9375 10.546875 
Q 45.796875 14.203125 45.796875 21.1875 
Q 45.796875 27.640625 41.28125 31.265625 
Q 36.765625 34.90625 28.71875 34.90625 
L 20.21875 34.90625 
L 20.21875 43.015625 
L 29.109375 43.015625 
Q 36.375 43.015625 40.234375 45.921875 
Q 44.09375 48.828125 44.09375 54.296875 
Q 44.09375 59.90625 40.109375 62.90625 
Q 36.140625 65.921875 28.71875 65.921875 
Q 24.65625 65.921875 20.015625 65.03125 
Q 15.375 64.15625 9.8125 62.3125 
L 9.8125 71.09375 
Q 15.4375 72.65625 20.34375 73.4375 
Q 25.25 74.21875 29.59375 74.21875 
Q 40.828125 74.21875 47.359375 69.109375 
Q 53.90625 64.015625 53.90625 55.328125 
Q 53.90625 49.265625 50.4375 45.09375 
Q 46.96875 40.921875 40.578125 39.3125 
z
" id="DejaVuSans-51"/>
      </defs>
      <g transform="translate(63.747344 200.52649)scale(0.1 -0.1)">
       <use xlink:href="#DejaVuSans-51"/>
       <use x="63.623047" xlink:href="#DejaVuSans-48"/>
      </g>
     </g>
    </g>
    <g id="ytick_5">
     <g id="line2d_11">
      <g>
       <use style="stroke:#000000;stroke-width:0.8;" x="83.472344" xlink:href="#mea618c82cb" y="144.911639"/>
      </g>
     </g>
     <g id="text_11">
      <!-- 40 -->
      <defs>
       <path d="M 37.796875 64.3125 
L 12.890625 25.390625 
L 37.796875 25.390625 
z
M 35.203125 72.90625 
L 47.609375 72.90625 
L 47.609375 25.390625 
L 58.015625 25.390625 
L 58.015625 17.1875 
L 47.609375 17.1875 
L 47.609375 0 
L 37.796875 0 
L 37.796875 17.1875 
L 4.890625 17.1875 
L 4.890625 26.703125 
z
" id="DejaVuSans-52"/>
      </defs>
      <g transform="translate(63.747344 148.710858)scale(0.1 -0.1)">
       <use xlink:href="#DejaVuSans-52"/>
       <use x="63.623047" xlink:href="#DejaVuSans-48"/>
      </g>
     </g>
    </g>
    <g id="ytick_6">
     <g id="line2d_12">
      <g>
       <use style="stroke:#000000;stroke-width:0.8;" x="83.472344" xlink:href="#mea618c82cb" y="93.096008"/>
      </g>
     </g>
     <g id="text_12">
      <!-- 50 -->
      <g transform="translate(63.747344 96.895226)scale(0.1 -0.1)">
       <use xlink:href="#DejaVuSans-53"/>
       <use x="63.623047" xlink:href="#DejaVuSans-48"/>
      </g>
     </g>
    </g>
    <g id="ytick_7">
     <g id="line2d_13">
      <g>
       <use style="stroke:#000000;stroke-width:0.8;" x="83.472344" xlink:href="#mea618c82cb" y="41.280376"/>
      </g>
     </g>
     <g id="text_13">
      <!-- 60 -->
      <defs>
       <path d="M 33.015625 40.375 
Q 26.375 40.375 22.484375 35.828125 
Q 18.609375 31.296875 18.609375 23.390625 
Q 18.609375 15.53125 22.484375 10.953125 
Q 26.375 6.390625 33.015625 6.390625 
Q 39.65625 6.390625 43.53125 10.953125 
Q 47.40625 15.53125 47.40625 23.390625 
Q 47.40625 31.296875 43.53125 35.828125 
Q 39.65625 40.375 33.015625 40.375 
z
M 52.59375 71.296875 
L 52.59375 62.3125 
Q 48.875 64.0625 45.09375 64.984375 
Q 41.3125 65.921875 37.59375 65.921875 
Q 27.828125 65.921875 22.671875 59.328125 
Q 17.53125 52.734375 16.796875 39.40625 
Q 19.671875 43.65625 24.015625 45.921875 
Q 28.375 48.1875 33.59375 48.1875 
Q 44.578125 48.1875 50.953125 41.515625 
Q 57.328125 34.859375 57.328125 23.390625 
Q 57.328125 12.15625 50.6875 5.359375 
Q 44.046875 -1.421875 33.015625 -1.421875 
Q 20.359375 -1.421875 13.671875 8.265625 
Q 6.984375 17.96875 6.984375 36.375 
Q 6.984375 53.65625 15.1875 63.9375 
Q 23.390625 74.21875 37.203125 74.21875 
Q 40.921875 74.21875 44.703125 73.484375 
Q 48.484375 72.75 52.59375 71.296875 
z
" id="DejaVuSans-54"/>
      </defs>
      <g transform="translate(63.747344 45.079595)scale(0.1 -0.1)">
       <use xlink:href="#DejaVuSans-54"/>
       <use x="63.623047" xlink:href="#DejaVuSans-48"/>
      </g>
     </g>
    </g>
    <g id="text_14">
     <!-- rtt -->
     <defs>
      <path d="M 41.109375 46.296875 
Q 39.59375 47.171875 37.8125 47.578125 
Q 36.03125 48 33.890625 48 
Q 26.265625 48 22.1875 43.046875 
Q 18.109375 38.09375 18.109375 28.8125 
L 18.109375 0 
L 9.078125 0 
L 9.078125 54.6875 
L 18.109375 54.6875 
L 18.109375 46.1875 
Q 20.953125 51.171875 25.484375 53.578125 
Q 30.03125 56 36.53125 56 
Q 37.453125 56 38.578125 55.875 
Q 39.703125 55.765625 41.0625 55.515625 
z
" id="DejaVuSans-114"/>
      <path d="M 18.3125 70.21875 
L 18.3125 54.6875 
L 36.8125 54.6875 
L 36.8125 47.703125 
L 18.3125 47.703125 
L 18.3125 18.015625 
Q 18.3125 11.328125 20.140625 9.421875 
Q 21.96875 7.515625 27.59375 7.515625 
L 36.8125 7.515625 
L 36.8125 0 
L 27.59375 0 
Q 17.1875 0 13.234375 3.875 
Q 9.28125 7.765625 9.28125 18.015625 
L 9.28125 47.703125 
L 2.6875 47.703125 
L 2.6875 54.6875 
L 9.28125 54.6875 
L 9.28125 70.21875 
z
" id="DejaVuSans-116"/>
     </defs>
     <g transform="translate(46.469844 199.594115)rotate(-90)scale(0.1 -0.1)">
      <use xlink:href="#DejaVuSans-114"/>
      <use x="41.113281" xlink:href="#DejaVuSans-116"/>
      <use x="80.322266" xlink:href="#DejaVuSans-116"/>
     </g>
     <!-- (ms) -->
     <defs>
      <path d="M 31 75.875 
Q 24.46875 64.65625 21.28125 53.65625 
Q 18.109375 42.671875 18.109375 31.390625 
Q 18.109375 20.125 21.3125 9.0625 
Q 24.515625 -2 31 -13.1875 
L 23.1875 -13.1875 
Q 15.875 -1.703125 12.234375 9.375 
Q 8.59375 20.453125 8.59375 31.390625 
Q 8.59375 42.28125 12.203125 53.3125 
Q 15.828125 64.359375 23.1875 75.875 
z
" id="DejaVuSans-40"/>
      <path d="M 52 44.1875 
Q 55.375 50.25 60.0625 53.125 
Q 64.75 56 71.09375 56 
Q 79.640625 56 84.28125 50.015625 
Q 88.921875 44.046875 88.921875 33.015625 
L 88.921875 0 
L 79.890625 0 
L 79.890625 32.71875 
Q 79.890625 40.578125 77.09375 44.375 
Q 74.3125 48.1875 68.609375 48.1875 
Q 61.625 48.1875 57.5625 43.546875 
Q 53.515625 38.921875 53.515625 30.90625 
L 53.515625 0 
L 44.484375 0 
L 44.484375 32.71875 
Q 44.484375 40.625 41.703125 44.40625 
Q 38.921875 48.1875 33.109375 48.1875 
Q 26.21875 48.1875 22.15625 43.53125 
Q 18.109375 38.875 18.109375 30.90625 
L 18.109375 0 
L 9.078125 0 
L 9.078125 54.6875 
L 18.109375 54.6875 
L 18.109375 46.1875 
Q 21.1875 51.21875 25.484375 53.609375 
Q 29.78125 56 35.6875 56 
Q 41.65625 56 45.828125 52.96875 
Q 50 49.953125 52 44.1875 
z
" id="DejaVuSans-109"/>
      <path d="M 44.28125 53.078125 
L 44.28125 44.578125 
Q 40.484375 46.53125 36.375 47.5 
Q 32.28125 48.484375 27.875 48.484375 
Q 21.1875 48.484375 17.84375 46.4375 
Q 14.5 44.390625 14.5 40.28125 
Q 14.5 37.15625 16.890625 35.375 
Q 19.28125 33.59375 26.515625 31.984375 
L 29.59375 31.296875 
Q 39.15625 29.25 43.1875 25.515625 
Q 47.21875 21.78125 47.21875 15.09375 
Q 47.21875 7.46875 41.1875 3.015625 
Q 35.15625 -1.421875 24.609375 -1.421875 
Q 20.21875 -1.421875 15.453125 -0.5625 
Q 10.6875 0.296875 5.421875 2 
L 5.421875 11.28125 
Q 10.40625 8.6875 15.234375 7.390625 
Q 20.0625 6.109375 24.8125 6.109375 
Q 31.15625 6.109375 34.5625 8.28125 
Q 37.984375 10.453125 37.984375 14.40625 
Q 37.984375 18.0625 35.515625 20.015625 
Q 33.0625 21.96875 24.703125 23.78125 
L 21.578125 24.515625 
Q 13.234375 26.265625 9.515625 29.90625 
Q 5.8125 33.546875 5.8125 39.890625 
Q 5.8125 47.609375 11.28125 51.796875 
Q 16.75 56 26.8125 56 
Q 31.78125 56 36.171875 55.265625 
Q 40.578125 54.546875 44.28125 53.078125 
z
" id="DejaVuSans-115"/>
      <path d="M 8.015625 75.875 
L 15.828125 75.875 
Q 23.140625 64.359375 26.78125 53.3125 
Q 30.421875 42.28125 30.421875 31.390625 
Q 30.421875 20.453125 26.78125 9.375 
Q 23.140625 -1.703125 15.828125 -13.1875 
L 8.015625 -13.1875 
Q 14.5 -2 17.703125 9.0625 
Q 20.90625 20.125 20.90625 31.390625 
Q 20.90625 42.671875 17.703125 53.65625 
Q 14.5 64.65625 8.015625 75.875 
z
" id="DejaVuSans-41"/>
     </defs>
     <g transform="translate(57.667656 204.994896)rotate(-90)scale(0.1 -0.1)">
      <use xlink:href="#DejaVuSans-40"/>
      <use x="39.013672" xlink:href="#DejaVuSans-109"/>
      <use x="136.425781" xlink:href="#DejaVuSans-115"/>
      <use x="188.525391" xlink:href="#DejaVuSans-41"/>
     </g>
    </g>
   </g>
   <g id="line2d_14">
    <path clip-path="url(#p35cc1cc7af)" d="M 112.61846 103.459134 
L 113.355012 144.911639 
L 114.091564 119.003824 
L 114.828117 87.914444 
L 115.564669 124.185387 
L 116.301222 108.640697 
L 117.037774 124.185387 
L 117.774326 98.277571 
L 118.510879 150.093203 
L 119.983984 108.640697 
L 120.720536 113.82226 
L 121.457089 150.093203 
L 122.193641 129.36695 
L 122.930193 113.82226 
L 123.666746 129.36695 
L 124.403298 155.274766 
L 125.139851 134.548513 
L 125.876403 119.003824 
L 126.612955 108.640697 
L 127.349508 160.456329 
L 128.822613 119.003824 
L 129.559165 93.096008 
L 130.295718 129.36695 
L 131.03227 113.82226 
L 131.768822 103.459134 
L 132.505375 113.82226 
L 133.241927 103.459134 
L 133.97848 113.82226 
L 134.715032 129.36695 
L 135.451584 119.003824 
L 136.188137 93.096008 
L 136.924689 124.185387 
L 137.661242 108.640697 
L 139.134347 119.003824 
L 140.607451 139.730076 
L 141.344004 124.185387 
L 142.080556 93.096008 
L 142.817109 144.911639 
L 143.553661 124.185387 
L 144.290213 108.640697 
L 145.026766 129.36695 
L 145.763318 113.82226 
L 146.499871 103.459134 
L 147.236423 119.003824 
L 147.972976 113.82226 
L 148.709528 113.82226 
L 149.44608 98.277571 
L 150.182633 119.003824 
L 150.919185 103.459134 
L 151.655738 144.911639 
L 152.39229 124.185387 
L 153.128843 108.640697 
L 153.865395 129.36695 
L 154.601947 129.36695 
L 155.3385 113.82226 
L 156.075052 119.003824 
L 156.811605 129.36695 
L 157.548157 113.82226 
L 158.284709 108.640697 
L 159.021262 108.640697 
L 159.757814 113.82226 
L 160.494367 108.640697 
L 161.230919 129.36695 
L 161.967472 113.82226 
L 162.704024 119.003824 
L 163.440576 113.82226 
L 165.650234 129.36695 
L 166.386786 108.640697 
L 167.123338 103.459134 
L 167.859891 108.640697 
L 168.596443 108.640697 
L 169.332996 124.185387 
L 170.069548 108.640697 
L 170.806101 144.911639 
L 171.542653 144.911639 
L 172.279205 124.185387 
L 173.015758 113.82226 
L 173.75231 134.548513 
L 174.488863 113.82226 
L 175.225415 103.459134 
L 175.961967 119.003824 
L 177.435072 98.277571 
L 178.171625 119.003824 
L 178.908177 108.640697 
L 179.64473 144.911639 
L 180.381282 124.185387 
L 181.117834 98.277571 
L 181.854387 150.093203 
L 182.590939 129.36695 
L 183.327492 113.82226 
L 184.064044 103.459134 
L 184.800597 113.82226 
L 185.537149 134.548513 
L 186.273701 119.003824 
L 187.010254 98.277571 
L 187.746806 119.003824 
L 188.483359 98.277571 
L 189.219911 124.185387 
L 189.956463 108.640697 
L 190.693016 129.36695 
L 191.429568 119.003824 
L 192.166121 113.82226 
L 192.902673 119.003824 
L 193.639226 103.459134 
L 194.375778 134.548513 
L 195.11233 113.82226 
L 195.848883 119.003824 
L 196.585435 93.096008 
L 197.321988 150.093203 
L 198.05854 129.36695 
L 198.795092 113.82226 
L 199.531645 93.096008 
L 200.268197 113.82226 
L 201.00475 124.185387 
L 201.741302 113.82226 
L 202.477855 119.003824 
L 203.214407 113.82226 
L 203.950959 129.36695 
L 204.687512 124.185387 
L 205.424064 108.640697 
L 206.160617 124.185387 
L 206.897169 82.732881 
L 207.633721 134.548513 
L 208.370274 113.82226 
L 209.106826 119.003824 
L 209.843379 134.548513 
L 210.579931 119.003824 
L 211.316484 98.277571 
L 212.053036 119.003824 
L 212.789588 93.096008 
L 213.526141 124.185387 
L 214.262693 108.640697 
L 214.999246 134.548513 
L 215.735798 113.82226 
L 216.472351 119.003824 
L 217.208903 108.640697 
L 217.945455 113.82226 
L 218.682008 124.185387 
L 219.41856 108.640697 
L 220.155113 103.459134 
L 220.891665 119.003824 
L 221.628217 124.185387 
L 222.36477 119.003824 
L 223.101322 82.732881 
L 223.837875 124.185387 
L 224.574427 93.096008 
L 225.31098 129.36695 
L 226.047532 113.82226 
L 226.784084 113.82226 
L 227.520637 129.36695 
L 228.257189 108.640697 
L 228.993742 134.548513 
L 229.730294 119.003824 
L 230.466846 46.461939 
L 231.203399 139.730076 
L 231.939951 124.185387 
L 232.676504 113.82226 
L 233.413056 129.36695 
L 234.149609 113.82226 
L 234.886161 113.82226 
L 235.622713 103.459134 
L 236.359266 113.82226 
L 237.095818 108.640697 
L 237.832371 87.914444 
L 238.568923 108.640697 
L 240.042028 129.36695 
L 240.77858 113.82226 
L 242.251685 155.274766 
L 242.988238 134.548513 
L 243.72479 119.003824 
L 244.461342 87.914444 
L 245.197895 113.82226 
L 245.934447 155.274766 
L 246.671 134.548513 
L 247.407552 119.003824 
L 248.144105 108.640697 
L 248.880657 139.730076 
L 250.353762 108.640697 
L 251.090314 124.185387 
L 251.826867 93.096008 
L 252.563419 124.185387 
L 253.299971 129.36695 
L 254.036524 150.093203 
L 255.509629 108.640697 
L 256.246181 129.36695 
L 256.982734 134.548513 
L 257.719286 119.003824 
L 258.455838 119.003824 
L 259.192391 124.185387 
L 259.928943 93.096008 
L 260.665496 139.730076 
L 262.1386 108.640697 
L 262.875153 129.36695 
L 263.611705 139.730076 
L 264.348258 119.003824 
L 265.08481 103.459134 
L 265.821363 139.730076 
L 266.557915 119.003824 
L 268.03102 108.640697 
L 268.767572 129.36695 
L 269.504125 124.185387 
L 270.240677 93.096008 
L 270.977229 98.277571 
L 271.713782 129.36695 
L 272.450334 134.548513 
L 273.186887 119.003824 
L 273.923439 98.277571 
L 274.659992 119.003824 
L 275.396544 129.36695 
L 276.133096 124.185387 
L 276.869649 108.640697 
L 278.342754 108.640697 
L 279.079306 134.548513 
L 279.815858 124.185387 
L 280.552411 108.640697 
L 282.025516 108.640697 
L 282.762068 113.82226 
L 283.498621 113.82226 
L 284.235173 108.640697 
L 284.971725 160.456329 
L 285.708278 139.730076 
L 286.44483 124.185387 
L 287.181383 113.82226 
L 287.917935 87.914444 
L 288.654488 113.82226 
L 289.39104 129.36695 
L 290.127592 108.640697 
L 290.864145 134.548513 
L 291.600697 119.003824 
L 292.33725 108.640697 
L 293.073802 134.548513 
L 293.810354 113.82226 
L 294.546907 113.82226 
L 295.283459 124.185387 
L 296.020012 108.640697 
L 296.756564 87.914444 
L 297.493117 119.003824 
L 298.229669 134.548513 
L 298.966221 113.82226 
L 299.702774 124.185387 
L 300.439326 124.185387 
L 301.175879 108.640697 
L 301.912431 129.36695 
L 302.648983 113.82226 
L 303.385536 119.003824 
L 304.122088 134.548513 
L 304.858641 119.003824 
L 305.595193 98.277571 
L 306.331746 144.911639 
L 307.068298 124.185387 
L 307.80485 108.640697 
L 308.541403 124.185387 
L 309.277955 93.096008 
L 310.014508 124.185387 
L 310.75106 108.640697 
L 311.487612 87.914444 
L 312.224165 165.637892 
L 313.69727 124.185387 
L 314.433822 93.096008 
L 315.170375 134.548513 
L 315.906927 113.82226 
L 316.643479 98.277571 
L 317.380032 113.82226 
L 318.116584 103.459134 
L 318.853137 134.548513 
L 319.589689 113.82226 
L 320.326242 124.185387 
L 321.062794 139.730076 
L 321.799346 119.003824 
L 322.535899 93.096008 
L 323.272451 119.003824 
L 324.009004 98.277571 
L 324.745556 124.185387 
L 325.482108 113.82226 
L 326.218661 129.36695 
L 326.955213 113.82226 
L 327.691766 124.185387 
L 328.428318 139.730076 
L 329.164871 124.185387 
L 329.901423 98.277571 
L 330.637975 139.730076 
L 331.374528 119.003824 
L 332.11108 119.003824 
L 332.847633 150.093203 
L 334.320737 108.640697 
L 335.05729 103.459134 
L 335.793842 113.82226 
L 336.530395 87.914444 
L 337.266947 93.096008 
L 338.0035 119.003824 
L 338.740052 124.185387 
L 339.476604 124.185387 
L 340.213157 113.82226 
L 340.949709 108.640697 
L 341.686262 98.277571 
L 342.422814 119.003824 
L 343.159366 119.003824 
L 343.895919 144.911639 
L 344.632471 124.185387 
L 345.369024 108.640697 
L 346.105576 134.548513 
L 346.842129 119.003824 
L 347.578681 108.640697 
L 349.051786 119.003824 
L 349.788338 113.82226 
L 350.524891 113.82226 
L 351.261443 98.277571 
L 351.997996 119.003824 
L 352.734548 93.096008 
L 353.4711 113.82226 
L 354.207653 108.640697 
L 354.944205 119.003824 
L 355.680758 124.185387 
L 356.41731 87.914444 
L 357.153862 134.548513 
L 357.890415 113.82226 
L 358.626967 124.185387 
L 359.36352 119.003824 
L 360.100072 103.459134 
L 360.836625 165.637892 
L 362.309729 124.185387 
L 363.046282 108.640697 
L 363.782834 103.459134 
L 364.519387 108.640697 
L 365.255939 124.185387 
L 365.992491 129.36695 
L 366.729044 113.82226 
L 367.465596 124.185387 
L 368.202149 113.82226 
L 368.938701 119.003824 
L 369.675254 113.82226 
L 370.411806 93.096008 
L 371.148358 113.82226 
L 371.884911 124.185387 
L 372.621463 139.730076 
L 373.358016 119.003824 
L 374.094568 103.459134 
L 374.83112 124.185387 
L 375.567673 108.640697 
L 376.304225 108.640697 
L 377.040778 134.548513 
L 378.513883 103.459134 
L 379.250435 124.185387 
L 379.986987 93.096008 
L 380.72354 108.640697 
L 381.460092 129.36695 
L 382.196645 108.640697 
L 382.933197 119.003824 
L 384.406302 108.640697 
L 385.142854 129.36695 
L 385.879407 113.82226 
L 386.615959 124.185387 
L 387.352512 113.82226 
L 388.089064 108.640697 
L 388.825616 119.003824 
L 390.298721 119.003824 
L 391.035274 113.82226 
L 391.771826 93.096008 
L 392.508379 134.548513 
L 393.244931 119.003824 
L 393.981483 98.277571 
L 394.718036 124.185387 
L 395.454588 108.640697 
L 396.191141 150.093203 
L 397.664245 108.640697 
L 398.400798 108.640697 
L 399.13735 119.003824 
L 399.873903 108.640697 
L 400.610455 103.459134 
L 401.347008 139.730076 
L 402.820112 98.277571 
L 403.556665 124.185387 
L 404.293217 108.640697 
L 405.02977 134.548513 
L 405.766322 119.003824 
L 407.239427 98.277571 
L 407.975979 124.185387 
L 408.712532 108.640697 
L 409.449084 124.185387 
L 410.185637 113.82226 
L 410.922189 139.730076 
L 411.658741 129.36695 
L 412.395294 113.82226 
L 413.131846 124.185387 
L 413.868399 119.003824 
L 414.604951 103.459134 
L 415.341504 144.911639 
L 416.078056 124.185387 
L 416.814608 108.640697 
L 417.551161 129.36695 
L 418.287713 129.36695 
L 419.024266 113.82226 
L 419.760818 119.003824 
L 420.49737 119.003824 
L 421.233923 113.82226 
L 421.970475 93.096008 
L 422.707028 124.185387 
L 423.44358 87.914444 
L 424.180133 150.093203 
L 424.916685 134.548513 
L 425.653237 113.82226 
L 426.38979 119.003824 
L 427.126342 119.003824 
L 427.862895 98.277571 
L 428.599447 144.911639 
L 429.335999 124.185387 
L 430.072552 108.640697 
L 430.809104 129.36695 
L 431.545657 113.82226 
L 432.282209 119.003824 
L 433.018762 119.003824 
L 434.491866 129.36695 
L 435.228419 155.274766 
L 435.964971 160.456329 
L 436.701524 134.548513 
L 437.438076 119.003824 
L 438.174628 98.277571 
L 438.911181 144.911639 
L 440.384286 113.82226 
L 441.120838 119.003824 
L 442.593943 108.640697 
L 443.330495 134.548513 
L 444.067048 113.82226 
L 444.8036 108.640697 
L 445.540153 124.185387 
L 446.276705 108.640697 
L 447.013257 129.36695 
L 447.74981 108.640697 
L 448.486362 108.640697 
L 449.222915 113.82226 
L 449.959467 129.36695 
L 450.69602 113.82226 
L 451.432572 119.003824 
L 452.169124 119.003824 
L 452.905677 77.551318 
L 453.642229 108.640697 
L 454.378782 108.640697 
L 455.115334 129.36695 
L 455.851887 113.82226 
L 456.588439 108.640697 
L 458.061544 150.093203 
L 458.798096 129.36695 
L 459.534649 113.82226 
L 460.271201 124.185387 
L 461.007753 119.003824 
L 461.744306 103.459134 
L 462.480858 150.093203 
L 463.953963 108.640697 
L 464.690516 144.911639 
L 465.427068 134.548513 
L 466.900173 93.096008 
L 467.636725 93.096008 
L 468.373278 144.911639 
L 469.10983 124.185387 
L 469.846382 108.640697 
L 470.582935 129.36695 
L 472.05604 98.277571 
L 472.792592 119.003824 
L 473.529145 108.640697 
L 474.265697 129.36695 
L 475.002249 139.730076 
L 475.738802 119.003824 
L 476.475354 93.096008 
L 477.211907 124.185387 
L 477.948459 108.640697 
L 478.685011 108.640697 
L 479.421564 119.003824 
L 480.158116 108.640697 
L 480.894669 93.096008 
L 481.631221 144.911639 
L 482.367774 124.185387 
L 483.104326 108.640697 
L 483.840878 129.36695 
L 484.577431 119.003824 
L 485.313983 113.82226 
L 486.050536 119.003824 
L 486.787088 113.82226 
L 487.523641 124.185387 
L 488.260193 93.096008 
L 488.996745 150.093203 
L 489.733298 129.36695 
L 490.46985 113.82226 
L 491.942955 103.459134 
L 492.679507 124.185387 
L 493.41606 108.640697 
L 494.152612 113.82226 
L 494.889165 129.36695 
L 495.625717 129.36695 
L 496.36227 113.82226 
L 497.098822 113.82226 
L 498.571927 124.185387 
L 499.308479 108.640697 
L 500.045032 113.82226 
L 500.781584 108.640697 
L 502.254689 108.640697 
L 502.991241 119.003824 
L 503.727794 119.003824 
L 504.464346 108.640697 
L 505.200899 93.096008 
L 505.937451 144.911639 
L 506.674003 124.185387 
L 507.410556 87.914444 
L 508.147108 129.36695 
L 508.883661 113.82226 
L 509.620213 119.003824 
L 509.620213 119.003824 
" style="fill:none;stroke:#1f77b4;stroke-linecap:square;stroke-width:1.5;"/>
   </g>
   <g id="line2d_15">
    <path clip-path="url(#p35cc1cc7af)" d="M 103.765099 274.450719 
L 104.501652 165.637892 
L 105.238204 124.185387 
L 105.974757 144.911639 
L 106.711309 108.640697 
L 107.447862 129.36695 
L 108.184414 124.185387 
L 108.920966 155.274766 
L 109.657519 113.82226 
L 110.394071 155.274766 
L 111.130624 144.911639 
L 111.867176 129.36695 
L 112.603728 108.640697 
L 113.340281 139.730076 
L 114.076833 119.003824 
L 114.813386 108.640697 
L 115.549938 124.185387 
L 116.286491 108.640697 
L 117.023043 124.185387 
L 117.759595 87.914444 
L 118.496148 150.093203 
L 119.969253 108.640697 
L 120.705805 93.096008 
L 121.442357 150.093203 
L 122.17891 129.36695 
L 122.915462 113.82226 
L 124.388567 155.274766 
L 125.12512 134.548513 
L 125.861672 119.003824 
L 126.598224 113.82226 
L 127.334777 160.456329 
L 128.807882 119.003824 
L 129.544434 93.096008 
L 130.280986 129.36695 
L 131.017539 108.640697 
L 131.754091 124.185387 
L 132.490644 108.640697 
L 133.227196 124.185387 
L 133.963749 113.82226 
L 134.700301 113.82226 
L 135.436853 119.003824 
L 136.173406 98.277571 
L 136.909958 124.185387 
L 137.646511 108.640697 
L 139.119616 119.003824 
L 139.856168 113.82226 
L 140.59272 139.730076 
L 141.329273 124.185387 
L 142.065825 98.277571 
L 142.802378 150.093203 
L 143.53893 124.185387 
L 144.275482 108.640697 
L 145.012035 129.36695 
L 145.748587 113.82226 
L 146.48514 124.185387 
L 147.958245 113.82226 
L 148.694797 113.82226 
L 149.431349 119.003824 
L 150.167902 119.003824 
L 150.904454 93.096008 
L 151.641007 144.911639 
L 152.377559 124.185387 
L 153.114111 108.640697 
L 153.850664 108.640697 
L 154.587216 129.36695 
L 155.323769 113.82226 
L 156.060321 134.548513 
L 156.796874 129.36695 
L 157.533426 113.82226 
L 158.269978 103.459134 
L 159.006531 129.36695 
L 159.743083 113.82226 
L 160.479636 129.36695 
L 161.216188 129.36695 
L 161.95274 113.82226 
L 162.689293 103.459134 
L 163.425845 113.82226 
L 164.162398 113.82226 
L 164.89895 103.459134 
L 165.635503 129.36695 
L 166.372055 108.640697 
L 167.108607 124.185387 
L 167.84516 108.640697 
L 168.581712 139.730076 
L 170.054817 108.640697 
L 170.79137 144.911639 
L 171.527922 144.911639 
L 172.264474 124.185387 
L 173.001027 82.732881 
L 173.737579 134.548513 
L 174.474132 113.82226 
L 175.210684 119.003824 
L 175.947236 139.730076 
L 176.683789 108.640697 
L 178.156894 119.003824 
L 178.893446 108.640697 
L 179.629999 144.911639 
L 181.103103 103.459134 
L 181.839656 150.093203 
L 182.576208 129.36695 
L 183.312761 113.82226 
L 184.049313 119.003824 
L 184.785865 113.82226 
L 185.522418 103.459134 
L 186.25897 119.003824 
L 187.732075 119.003824 
L 188.468628 98.277571 
L 189.20518 124.185387 
L 189.941732 108.640697 
L 191.414837 119.003824 
L 192.15139 87.914444 
L 192.887942 119.003824 
L 193.624494 108.640697 
L 194.361047 134.548513 
L 195.097599 113.82226 
L 195.834152 119.003824 
L 196.570704 98.277571 
L 197.307257 150.093203 
L 198.043809 129.36695 
L 198.780361 113.82226 
L 199.516914 93.096008 
L 200.253466 113.82226 
L 200.990019 103.459134 
L 201.726571 119.003824 
L 202.463124 103.459134 
L 203.936228 134.548513 
L 204.672781 124.185387 
L 205.409333 93.096008 
L 206.145886 124.185387 
L 206.882438 108.640697 
L 207.61899 134.548513 
L 208.355543 113.82226 
L 209.092095 119.003824 
L 209.828648 139.730076 
L 210.5652 119.003824 
L 211.301753 103.459134 
L 212.038305 119.003824 
L 212.774857 113.82226 
L 213.51141 129.36695 
L 214.247962 108.640697 
L 214.984515 134.548513 
L 215.721067 113.82226 
L 216.457619 103.459134 
L 217.194172 113.82226 
L 217.930724 134.548513 
L 218.667277 124.185387 
L 219.403829 108.640697 
L 220.140382 124.185387 
L 220.876934 119.003824 
L 221.613486 93.096008 
L 222.350039 119.003824 
L 223.086591 113.82226 
L 223.823144 124.185387 
L 224.559696 108.640697 
L 225.296248 129.36695 
L 226.032801 113.82226 
L 226.769353 134.548513 
L 227.505906 124.185387 
L 228.242458 108.640697 
L 228.979011 119.003824 
L 229.715563 119.003824 
L 230.452115 103.459134 
L 231.188668 139.730076 
L 231.92522 124.185387 
L 232.661773 98.277571 
L 233.398325 129.36695 
L 234.134878 113.82226 
L 234.87143 113.82226 
L 235.607982 98.277571 
L 236.344535 113.82226 
L 237.081087 93.096008 
L 237.81764 108.640697 
L 238.554192 108.640697 
L 239.290744 119.003824 
L 240.027297 108.640697 
L 240.763849 113.82226 
L 241.500402 139.730076 
L 242.236954 155.274766 
L 242.973507 134.548513 
L 243.710059 119.003824 
L 244.446611 108.640697 
L 245.183164 119.003824 
L 245.919716 155.274766 
L 246.656269 134.548513 
L 247.392821 119.003824 
L 248.129373 108.640697 
L 248.865926 139.730076 
L 250.339031 108.640697 
L 251.812136 108.640697 
L 252.548688 124.185387 
L 253.28524 113.82226 
L 254.021793 150.093203 
L 255.494898 108.640697 
L 256.23145 134.548513 
L 256.968002 134.548513 
L 257.704555 119.003824 
L 258.441107 119.003824 
L 259.17766 124.185387 
L 259.914212 93.096008 
L 260.650765 139.730076 
L 262.123869 108.640697 
L 262.860422 129.36695 
L 263.596974 139.730076 
L 264.333527 119.003824 
L 265.070079 103.459134 
L 265.806631 139.730076 
L 266.543184 119.003824 
L 268.016289 108.640697 
L 268.752841 144.911639 
L 269.489394 129.36695 
L 270.225946 108.640697 
L 270.962498 108.640697 
L 271.699051 129.36695 
L 272.435603 134.548513 
L 273.172156 113.82226 
L 273.908708 119.003824 
L 275.381813 108.640697 
L 276.118365 124.185387 
L 276.854918 87.914444 
L 277.59147 124.185387 
L 278.328023 108.640697 
L 279.064575 134.548513 
L 279.801127 119.003824 
L 280.53768 108.640697 
L 281.274232 108.640697 
L 282.010785 129.36695 
L 282.747337 113.82226 
L 283.48389 93.096008 
L 284.220442 108.640697 
L 284.956994 165.637892 
L 285.693547 139.730076 
L 287.166652 108.640697 
L 287.903204 108.640697 
L 288.639756 144.911639 
L 289.376309 124.185387 
L 290.112861 93.096008 
L 290.849414 134.548513 
L 291.585966 119.003824 
L 292.322519 129.36695 
L 293.059071 134.548513 
L 293.795623 113.82226 
L 294.532176 113.82226 
L 295.268728 124.185387 
L 296.005281 108.640697 
L 296.741833 124.185387 
L 297.478385 98.277571 
L 298.214938 134.548513 
L 298.95149 113.82226 
L 299.688043 108.640697 
L 300.424595 124.185387 
L 301.161148 93.096008 
L 301.8977 129.36695 
L 302.634252 113.82226 
L 303.370805 119.003824 
L 304.107357 134.548513 
L 304.84391 119.003824 
L 305.580462 119.003824 
L 306.317015 144.911639 
L 307.053567 124.185387 
L 307.790119 108.640697 
L 309.263224 108.640697 
L 309.999777 124.185387 
L 311.472881 93.096008 
L 312.209434 165.637892 
L 313.682539 124.185387 
L 314.419091 108.640697 
L 315.155644 134.548513 
L 315.892196 113.82226 
L 316.628748 119.003824 
L 318.101853 108.640697 
L 318.838406 134.548513 
L 319.574958 113.82226 
L 320.31151 119.003824 
L 321.048063 139.730076 
L 321.784615 119.003824 
L 322.521168 113.82226 
L 323.25772 113.82226 
L 323.994273 98.277571 
L 324.730825 119.003824 
L 325.467377 113.82226 
L 326.20393 129.36695 
L 326.940482 113.82226 
L 327.677035 119.003824 
L 328.413587 139.730076 
L 329.150139 124.185387 
L 329.886692 113.82226 
L 330.623244 139.730076 
L 331.359797 119.003824 
L 332.096349 103.459134 
L 332.832902 150.093203 
L 333.569454 129.36695 
L 334.306006 113.82226 
L 335.042559 124.185387 
L 335.779111 113.82226 
L 337.252216 103.459134 
L 337.988769 119.003824 
L 338.725321 124.185387 
L 339.461873 124.185387 
L 340.198426 98.277571 
L 340.934978 108.640697 
L 341.671531 93.096008 
L 342.408083 119.003824 
L 343.144635 103.459134 
L 343.881188 144.911639 
L 344.61774 124.185387 
L 345.354293 108.640697 
L 346.090845 134.548513 
L 346.827398 119.003824 
L 347.56395 108.640697 
L 348.300502 87.914444 
L 349.037055 119.003824 
L 349.773607 82.732881 
L 350.51016 119.003824 
L 351.246712 103.459134 
L 351.983264 119.003824 
L 352.719817 103.459134 
L 353.456369 119.003824 
L 354.192922 113.82226 
L 354.929474 124.185387 
L 355.666027 124.185387 
L 356.402579 113.82226 
L 357.139131 134.548513 
L 357.875684 113.82226 
L 358.612236 103.459134 
L 359.348789 119.003824 
L 360.085341 103.459134 
L 360.821893 165.637892 
L 362.294998 124.185387 
L 363.031551 108.640697 
L 363.768103 124.185387 
L 364.504656 108.640697 
L 365.241208 144.911639 
L 365.97776 129.36695 
L 366.714313 108.640697 
L 367.450865 124.185387 
L 368.187418 113.82226 
L 368.92397 119.003824 
L 369.660523 113.82226 
L 370.397075 124.185387 
L 371.133627 113.82226 
L 371.87018 124.185387 
L 372.606732 139.730076 
L 373.343285 119.003824 
L 374.079837 93.096008 
L 374.816389 124.185387 
L 375.552942 108.640697 
L 376.289494 108.640697 
L 377.026047 119.003824 
L 377.762599 119.003824 
L 378.499152 103.459134 
L 379.235704 124.185387 
L 379.972256 108.640697 
L 382.181914 108.640697 
L 382.918466 119.003824 
L 384.391571 108.640697 
L 385.128123 129.36695 
L 385.864676 113.82226 
L 386.601228 103.459134 
L 387.337781 113.82226 
L 388.074333 108.640697 
L 388.810885 124.185387 
L 389.547438 87.914444 
L 390.28399 119.003824 
L 391.020543 113.82226 
L 391.757095 113.82226 
L 392.493647 134.548513 
L 393.2302 119.003824 
L 393.966752 119.003824 
L 394.703305 124.185387 
L 395.439857 98.277571 
L 396.17641 150.093203 
L 397.649514 108.640697 
L 398.386067 103.459134 
L 399.122619 119.003824 
L 399.859172 93.096008 
L 400.595724 108.640697 
L 401.332277 139.730076 
L 402.068829 119.003824 
L 402.805381 124.185387 
L 403.541934 124.185387 
L 404.278486 108.640697 
L 405.015039 134.548513 
L 405.751591 119.003824 
L 406.488143 93.096008 
L 407.224696 119.003824 
L 407.961248 124.185387 
L 408.697801 93.096008 
L 409.434353 129.36695 
L 410.170906 113.82226 
L 410.907458 108.640697 
L 411.64401 134.548513 
L 412.380563 113.82226 
L 413.117115 108.640697 
L 413.853668 119.003824 
L 414.59022 124.185387 
L 415.326772 144.911639 
L 416.063325 124.185387 
L 416.799877 108.640697 
L 417.53643 129.36695 
L 418.272982 129.36695 
L 419.009535 113.82226 
L 419.746087 119.003824 
L 420.482639 119.003824 
L 421.219192 82.732881 
L 421.955744 113.82226 
L 422.692297 129.36695 
L 423.428849 108.640697 
L 424.165401 134.548513 
L 424.901954 134.548513 
L 425.638506 113.82226 
L 426.375059 119.003824 
L 427.111611 119.003824 
L 427.848164 103.459134 
L 428.584716 144.911639 
L 429.321268 124.185387 
L 430.057821 108.640697 
L 430.794373 113.82226 
L 431.530926 113.82226 
L 432.267478 119.003824 
L 433.00403 119.003824 
L 433.740583 108.640697 
L 434.477135 134.548513 
L 435.213688 155.274766 
L 435.95024 160.456329 
L 436.686793 139.730076 
L 437.423345 124.185387 
L 438.159897 98.277571 
L 438.89645 150.093203 
L 439.633002 129.36695 
L 440.369555 113.82226 
L 441.106107 103.459134 
L 441.84266 119.003824 
L 442.579212 113.82226 
L 443.315764 134.548513 
L 444.052317 113.82226 
L 444.788869 124.185387 
L 445.525422 124.185387 
L 446.261974 108.640697 
L 446.998526 129.36695 
L 447.735079 108.640697 
L 448.471631 129.36695 
L 449.944736 98.277571 
L 450.681289 113.82226 
L 451.417841 119.003824 
L 452.154393 119.003824 
L 453.627498 108.640697 
L 454.364051 129.36695 
L 455.100603 129.36695 
L 455.837155 113.82226 
L 456.573708 108.640697 
L 457.31026 124.185387 
L 458.046813 150.093203 
L 458.783365 129.36695 
L 459.519918 113.82226 
L 460.25647 108.640697 
L 460.993022 119.003824 
L 461.729575 103.459134 
L 462.466127 150.093203 
L 463.939232 108.640697 
L 464.675784 124.185387 
L 465.412337 134.548513 
L 466.148889 113.82226 
L 466.885442 113.82226 
L 467.621994 108.640697 
L 468.358547 144.911639 
L 469.095099 124.185387 
L 469.831651 108.640697 
L 470.568204 113.82226 
L 471.304756 113.82226 
L 472.041309 108.640697 
L 472.777861 119.003824 
L 473.514414 108.640697 
L 474.250966 108.640697 
L 474.987518 139.730076 
L 475.724071 124.185387 
L 476.460623 98.277571 
L 477.197176 129.36695 
L 477.933728 108.640697 
L 478.67028 129.36695 
L 479.406833 124.185387 
L 480.143385 108.640697 
L 480.879938 87.914444 
L 481.61649 144.911639 
L 482.353043 124.185387 
L 483.089595 108.640697 
L 484.5627 119.003824 
L 485.299252 113.82226 
L 486.035805 124.185387 
L 486.772357 98.277571 
L 487.508909 124.185387 
L 488.245462 108.640697 
L 488.982014 150.093203 
L 489.718567 129.36695 
L 490.455119 113.82226 
L 491.191672 108.640697 
L 491.928224 108.640697 
L 492.664776 124.185387 
L 493.401329 93.096008 
L 494.137881 98.277571 
L 494.874434 144.911639 
L 495.610986 134.548513 
L 497.084091 93.096008 
L 497.820643 103.459134 
L 498.557196 124.185387 
L 499.293748 108.640697 
L 500.030301 134.548513 
L 500.766853 113.82226 
L 500.766853 113.82226 
" style="fill:none;stroke:#ff7f0e;stroke-linecap:square;stroke-width:1.5;"/>
   </g>
   <g id="line2d_16">
    <path clip-path="url(#p35cc1cc7af)" d="M 109.654573 124.185387 
L 110.391125 160.456329 
L 112.600782 113.82226 
L 113.337335 144.911639 
L 114.073887 119.003824 
L 114.810439 108.640697 
L 115.546992 124.185387 
L 116.283544 93.096008 
L 117.020097 124.185387 
L 117.756649 93.096008 
L 118.493202 155.274766 
L 119.229754 129.36695 
L 119.966306 108.640697 
L 120.702859 72.369755 
L 121.439411 150.093203 
L 122.175964 129.36695 
L 122.912516 113.82226 
L 123.649069 129.36695 
L 124.385621 155.274766 
L 125.122173 134.548513 
L 125.858726 119.003824 
L 126.595278 108.640697 
L 127.331831 160.456329 
L 128.804935 119.003824 
L 129.541488 108.640697 
L 130.27804 129.36695 
L 131.014593 108.640697 
L 131.751145 108.640697 
L 132.487698 113.82226 
L 133.22425 124.185387 
L 133.960802 113.82226 
L 134.697355 108.640697 
L 135.433907 119.003824 
L 136.17046 113.82226 
L 136.907012 124.185387 
L 138.380117 93.096008 
L 139.116669 119.003824 
L 139.853222 108.640697 
L 140.589774 139.730076 
L 141.326327 124.185387 
L 142.062879 113.82226 
L 142.799431 150.093203 
L 143.535984 124.185387 
L 144.272536 108.640697 
L 145.009089 108.640697 
L 145.745641 113.82226 
L 146.482193 93.096008 
L 147.218746 119.003824 
L 147.955298 98.277571 
L 148.691851 113.82226 
L 149.428403 103.459134 
L 150.164956 119.003824 
L 150.901508 103.459134 
L 151.63806 144.911639 
L 152.374613 124.185387 
L 153.111165 87.914444 
L 153.847718 129.36695 
L 154.58427 129.36695 
L 155.320823 113.82226 
L 156.057375 113.82226 
L 156.793927 129.36695 
L 157.53048 113.82226 
L 158.267032 87.914444 
L 159.003585 129.36695 
L 160.476689 108.640697 
L 161.213242 129.36695 
L 161.949794 113.82226 
L 162.686347 124.185387 
L 163.422899 93.096008 
L 164.159452 119.003824 
L 164.896004 129.36695 
L 165.632556 129.36695 
L 166.369109 108.640697 
L 167.105661 124.185387 
L 167.842214 108.640697 
L 168.578766 119.003824 
L 169.315318 124.185387 
L 170.051871 108.640697 
L 170.788423 150.093203 
L 171.524976 144.911639 
L 172.261528 124.185387 
L 172.998081 113.82226 
L 173.734633 134.548513 
L 174.471185 113.82226 
L 175.207738 98.277571 
L 175.94429 119.003824 
L 176.680843 87.914444 
L 177.417395 93.096008 
L 178.153947 119.003824 
L 178.8905 129.36695 
L 179.627052 144.911639 
L 180.363605 124.185387 
L 181.100157 119.003824 
L 181.83671 150.093203 
L 182.573262 129.36695 
L 184.046367 98.277571 
L 184.782919 113.82226 
L 185.519472 103.459134 
L 186.256024 119.003824 
L 187.729129 119.003824 
L 188.465681 113.82226 
L 189.202234 124.185387 
L 189.938786 108.640697 
L 190.675339 129.36695 
L 191.411891 119.003824 
L 192.148443 113.82226 
L 194.358101 129.36695 
L 196.567758 82.732881 
L 197.30431 150.093203 
L 198.040863 129.36695 
L 198.777415 113.82226 
L 199.513968 119.003824 
L 200.25052 113.82226 
L 200.987072 98.277571 
L 201.723625 113.82226 
L 202.460177 119.003824 
L 203.933282 108.640697 
L 204.669835 124.185387 
L 205.406387 108.640697 
L 206.142939 124.185387 
L 206.879492 108.640697 
L 207.616044 134.548513 
L 208.352597 113.82226 
L 209.089149 119.003824 
L 209.825701 134.548513 
L 210.562254 119.003824 
L 212.035359 119.003824 
L 212.771911 113.82226 
L 213.508464 124.185387 
L 214.245016 93.096008 
L 214.981568 134.548513 
L 215.718121 113.82226 
L 216.454673 119.003824 
L 217.191226 108.640697 
L 217.927778 108.640697 
L 218.664331 124.185387 
L 219.400883 108.640697 
L 220.137435 108.640697 
L 220.873988 119.003824 
L 221.61054 124.185387 
L 222.347093 119.003824 
L 223.083645 98.277571 
L 223.820197 124.185387 
L 224.55675 93.096008 
L 225.293302 129.36695 
L 226.029855 113.82226 
L 226.766407 113.82226 
L 227.50296 124.185387 
L 228.239512 108.640697 
L 228.976064 134.548513 
L 229.712617 119.003824 
L 230.449169 124.185387 
L 231.185722 139.730076 
L 231.922274 124.185387 
L 232.658826 82.732881 
L 233.395379 129.36695 
L 234.131931 113.82226 
L 234.868484 113.82226 
L 235.605036 124.185387 
L 236.341589 113.82226 
L 237.078141 108.640697 
L 238.551246 108.640697 
L 239.287798 113.82226 
L 240.024351 103.459134 
L 240.760903 113.82226 
L 242.234008 155.274766 
L 242.97056 134.548513 
L 243.707113 119.003824 
L 244.443665 108.640697 
L 245.180218 113.82226 
L 245.91677 155.274766 
L 247.389875 113.82226 
L 248.126427 103.459134 
L 248.86298 139.730076 
L 249.599532 124.185387 
L 250.336085 87.914444 
L 251.072637 124.185387 
L 251.809189 93.096008 
L 252.545742 124.185387 
L 253.282294 108.640697 
L 254.018847 150.093203 
L 255.491951 108.640697 
L 256.228504 150.093203 
L 257.701609 119.003824 
L 258.438161 93.096008 
L 259.174714 124.185387 
L 259.911266 93.096008 
L 260.647818 139.730076 
L 262.120923 108.640697 
L 262.857476 150.093203 
L 263.594028 139.730076 
L 264.33058 119.003824 
L 265.067133 87.914444 
L 265.803685 139.730076 
L 266.540238 119.003824 
L 267.27679 77.551318 
L 268.013343 108.640697 
L 268.749895 129.36695 
L 269.486447 129.36695 
L 270.223 108.640697 
L 270.959552 108.640697 
L 271.696105 144.911639 
L 272.432657 134.548513 
L 273.169209 119.003824 
L 273.905762 98.277571 
L 274.642314 113.82226 
L 275.378867 124.185387 
L 276.115419 124.185387 
L 276.851972 108.640697 
L 277.588524 124.185387 
L 278.325076 108.640697 
L 279.798181 119.003824 
L 280.534734 108.640697 
L 282.007838 108.640697 
L 282.744391 113.82226 
L 283.480943 113.82226 
L 284.217496 98.277571 
L 284.954048 165.637892 
L 285.690601 139.730076 
L 287.163705 108.640697 
L 287.900258 108.640697 
L 288.63681 124.185387 
L 289.373363 129.36695 
L 290.109915 108.640697 
L 290.846468 134.548513 
L 291.58302 119.003824 
L 292.319572 98.277571 
L 293.056125 134.548513 
L 294.52923 93.096008 
L 295.265782 124.185387 
L 296.002334 108.640697 
L 296.738887 124.185387 
L 297.475439 98.277571 
L 298.211992 134.548513 
L 298.948544 113.82226 
L 299.685097 124.185387 
L 300.421649 124.185387 
L 301.158201 87.914444 
L 301.894754 134.548513 
L 302.631306 113.82226 
L 303.367859 139.730076 
L 304.104411 134.548513 
L 304.840963 119.003824 
L 305.577516 98.277571 
L 306.314068 144.911639 
L 307.050621 124.185387 
L 307.787173 108.640697 
L 308.523726 124.185387 
L 309.260278 108.640697 
L 309.99683 124.185387 
L 310.733383 108.640697 
L 311.469935 103.459134 
L 312.206488 150.093203 
L 312.94304 144.911639 
L 313.679592 124.185387 
L 314.416145 93.096008 
L 315.152697 134.548513 
L 315.88925 113.82226 
L 316.625802 119.003824 
L 317.362355 113.82226 
L 318.098907 129.36695 
L 318.835459 134.548513 
L 319.572012 113.82226 
L 320.308564 113.82226 
L 321.045117 139.730076 
L 321.781669 119.003824 
L 322.518222 113.82226 
L 323.254774 113.82226 
L 323.991326 119.003824 
L 324.727879 119.003824 
L 325.464431 93.096008 
L 326.200984 129.36695 
L 326.937536 113.82226 
L 327.674088 124.185387 
L 328.410641 139.730076 
L 329.147193 124.185387 
L 329.883746 93.096008 
L 330.620298 144.911639 
L 331.356851 119.003824 
L 332.093403 98.277571 
L 332.829955 150.093203 
L 333.566508 129.36695 
L 335.039613 98.277571 
L 335.776165 113.82226 
L 336.512717 108.640697 
L 337.24927 124.185387 
L 337.985822 119.003824 
L 338.722375 98.277571 
L 339.458927 124.185387 
L 340.19548 113.82226 
L 340.932032 108.640697 
L 341.668584 119.003824 
L 342.405137 119.003824 
L 343.141689 98.277571 
L 343.878242 144.911639 
L 344.614794 124.185387 
L 345.351346 87.914444 
L 346.087899 134.548513 
L 346.824451 119.003824 
L 347.561004 108.640697 
L 348.297556 113.82226 
L 349.034109 124.185387 
L 349.770661 113.82226 
L 350.507213 113.82226 
L 351.243766 119.003824 
L 352.716871 119.003824 
L 354.189976 108.640697 
L 354.926528 98.277571 
L 355.66308 124.185387 
L 356.399633 98.277571 
L 357.136185 134.548513 
L 357.872738 113.82226 
L 358.60929 103.459134 
L 359.345842 119.003824 
L 360.082395 98.277571 
L 360.818947 165.637892 
L 362.292052 124.185387 
L 363.028605 108.640697 
L 363.765157 108.640697 
L 364.501709 113.82226 
L 365.238262 124.185387 
L 365.974814 129.36695 
L 366.711367 113.82226 
L 367.447919 103.459134 
L 368.184471 113.82226 
L 368.921024 87.914444 
L 369.657576 113.82226 
L 370.394129 129.36695 
L 371.130681 113.82226 
L 371.867234 139.730076 
L 372.603786 139.730076 
L 373.340338 119.003824 
L 374.076891 119.003824 
L 374.813443 129.36695 
L 375.549996 108.640697 
L 376.286548 108.640697 
L 378.496205 124.185387 
L 379.232758 124.185387 
L 379.96931 108.640697 
L 380.705863 108.640697 
L 381.442415 129.36695 
L 382.178967 113.82226 
L 382.91552 87.914444 
L 383.652072 93.096008 
L 384.388625 108.640697 
L 385.125177 108.640697 
L 385.86173 113.82226 
L 386.598282 124.185387 
L 387.334834 113.82226 
L 388.071387 129.36695 
L 388.807939 119.003824 
L 389.544492 98.277571 
L 390.281044 119.003824 
L 391.754149 108.640697 
L 392.490701 134.548513 
L 393.227254 119.003824 
L 393.963806 98.277571 
L 394.700359 124.185387 
L 395.436911 87.914444 
L 396.173463 150.093203 
L 397.646568 108.640697 
L 398.383121 129.36695 
L 399.856225 108.640697 
L 401.32933 139.730076 
L 402.802435 98.277571 
L 403.538988 124.185387 
L 404.27554 93.096008 
L 405.012092 134.548513 
L 405.748645 119.003824 
L 406.485197 108.640697 
L 407.22175 119.003824 
L 407.958302 124.185387 
L 408.694854 108.640697 
L 409.431407 124.185387 
L 410.167959 113.82226 
L 410.904512 113.82226 
L 411.641064 129.36695 
L 412.377617 113.82226 
L 413.114169 103.459134 
L 413.850721 119.003824 
L 414.587274 103.459134 
L 415.323826 150.093203 
L 416.060379 124.185387 
L 416.796931 108.640697 
L 417.533483 144.911639 
L 418.270036 134.548513 
L 419.006588 113.82226 
L 419.743141 98.277571 
L 420.479693 119.003824 
L 421.216246 113.82226 
L 421.952798 93.096008 
L 422.68935 129.36695 
L 423.425903 108.640697 
L 424.162455 150.093203 
L 425.63556 119.003824 
L 426.372113 98.277571 
L 427.108665 119.003824 
L 427.845217 124.185387 
L 428.58177 144.911639 
L 429.318322 124.185387 
L 430.054875 93.096008 
L 430.791427 129.36695 
L 431.527979 113.82226 
L 432.264532 87.914444 
L 433.001084 119.003824 
L 433.737637 103.459134 
L 434.474189 134.548513 
L 435.210742 155.274766 
L 435.947294 160.456329 
L 436.683846 139.730076 
L 437.420399 124.185387 
L 438.156951 119.003824 
L 438.893504 150.093203 
L 439.630056 129.36695 
L 441.103161 98.277571 
L 441.839713 119.003824 
L 442.576266 113.82226 
L 443.312818 134.548513 
L 444.049371 113.82226 
L 444.785923 124.185387 
L 445.522475 124.185387 
L 446.259028 93.096008 
L 446.99558 129.36695 
L 447.732133 108.640697 
L 448.468685 108.640697 
L 449.205237 113.82226 
L 449.94179 129.36695 
L 450.678342 119.003824 
L 451.414895 98.277571 
L 452.151447 119.003824 
L 452.888 113.82226 
L 453.624552 113.82226 
L 454.361104 98.277571 
L 455.097657 134.548513 
L 455.834209 113.82226 
L 456.570762 87.914444 
L 457.307314 129.36695 
L 458.043867 150.093203 
L 458.780419 129.36695 
L 459.516971 113.82226 
L 460.253524 103.459134 
L 460.990076 119.003824 
L 461.726629 119.003824 
L 462.463181 150.093203 
L 463.936286 108.640697 
L 464.672838 124.185387 
L 465.409391 134.548513 
L 466.145943 113.82226 
L 466.882496 113.82226 
L 467.619048 93.096008 
L 468.3556 144.911639 
L 469.092153 124.185387 
L 469.828705 108.640697 
L 470.565258 108.640697 
L 471.30181 119.003824 
L 472.038362 124.185387 
L 472.774915 119.003824 
L 473.511467 87.914444 
L 474.24802 93.096008 
L 474.984572 139.730076 
L 475.721125 124.185387 
L 476.457677 113.82226 
L 477.194229 129.36695 
L 477.930782 108.640697 
L 478.667334 129.36695 
L 479.403887 124.185387 
L 480.140439 93.096008 
L 480.876991 108.640697 
L 481.613544 144.911639 
L 482.350096 124.185387 
L 483.086649 108.640697 
L 483.823201 129.36695 
L 484.559754 119.003824 
L 485.296306 98.277571 
L 486.032858 124.185387 
L 486.769411 93.096008 
L 487.505963 124.185387 
L 488.242516 93.096008 
L 488.979068 150.093203 
L 489.715621 129.36695 
L 490.452173 113.82226 
L 491.188725 108.640697 
L 491.925278 129.36695 
L 492.66183 124.185387 
L 493.398383 108.640697 
L 494.134935 113.82226 
L 494.871487 113.82226 
L 495.60804 134.548513 
L 496.344592 113.82226 
L 497.081145 108.640697 
L 497.817697 98.277571 
L 498.55425 124.185387 
L 499.290802 108.640697 
L 500.027354 129.36695 
L 500.763907 113.82226 
L 501.500459 108.640697 
L 502.237012 87.914444 
L 502.973564 134.548513 
L 503.710116 119.003824 
L 504.446669 93.096008 
L 505.183221 108.640697 
L 505.919774 150.093203 
L 506.656326 124.185387 
L 506.656326 124.185387 
" style="fill:none;stroke:#2ca02c;stroke-linecap:square;stroke-width:1.5;"/>
   </g>
   <g id="line2d_17">
    <path clip-path="url(#p35cc1cc7af)" d="M 106.739298 144.911639 
L 107.475851 129.36695 
L 108.212403 129.36695 
L 108.948955 155.274766 
L 109.685508 129.36695 
L 110.42206 155.274766 
L 111.158613 144.911639 
L 111.895165 129.36695 
L 112.631717 108.640697 
L 113.36827 139.730076 
L 114.104822 119.003824 
L 114.841375 93.096008 
L 115.577927 124.185387 
L 116.31448 93.096008 
L 117.051032 124.185387 
L 117.787584 119.003824 
L 118.524137 150.093203 
L 119.997242 108.640697 
L 120.733794 98.277571 
L 121.470346 150.093203 
L 122.206899 129.36695 
L 122.943451 113.82226 
L 124.416556 155.274766 
L 125.153109 134.548513 
L 125.889661 119.003824 
L 126.626213 113.82226 
L 127.362766 155.274766 
L 128.099318 139.730076 
L 128.835871 119.003824 
L 129.572423 113.82226 
L 130.308975 129.36695 
L 131.045528 108.640697 
L 131.78208 124.185387 
L 132.518633 108.640697 
L 133.255185 103.459134 
L 133.991738 113.82226 
L 134.72829 129.36695 
L 135.464842 119.003824 
L 136.201395 113.82226 
L 136.937947 124.185387 
L 137.6745 108.640697 
L 138.411052 108.640697 
L 139.147605 93.096008 
L 139.884157 108.640697 
L 140.620709 139.730076 
L 142.093814 98.277571 
L 142.830367 144.911639 
L 143.566919 124.185387 
L 144.303471 108.640697 
L 145.040024 108.640697 
L 145.776576 113.82226 
L 146.513129 129.36695 
L 147.249681 119.003824 
L 147.986234 87.914444 
L 148.722786 113.82226 
L 149.459338 124.185387 
L 150.195891 119.003824 
L 150.932443 124.185387 
L 151.668996 144.911639 
L 152.405548 124.185387 
L 153.1421 108.640697 
L 153.878653 108.640697 
L 154.615205 129.36695 
L 155.351758 113.82226 
L 156.08831 113.82226 
L 156.824863 129.36695 
L 157.561415 113.82226 
L 158.297967 108.640697 
L 159.03452 108.640697 
L 159.771072 113.82226 
L 160.507625 108.640697 
L 161.244177 129.36695 
L 161.980729 113.82226 
L 162.717282 124.185387 
L 163.453834 93.096008 
L 164.190387 119.003824 
L 164.926939 108.640697 
L 165.663492 129.36695 
L 166.400044 108.640697 
L 167.136596 103.459134 
L 168.609701 124.185387 
L 169.346254 124.185387 
L 170.082806 93.096008 
L 170.819359 155.274766 
L 171.555911 144.911639 
L 172.292463 124.185387 
L 173.029016 98.277571 
L 173.765568 134.548513 
L 174.502121 113.82226 
L 175.238673 124.185387 
L 175.975225 119.003824 
L 176.711778 108.640697 
L 177.44833 119.003824 
L 178.184883 119.003824 
L 178.921435 108.640697 
L 179.657988 144.911639 
L 180.39454 124.185387 
L 181.131092 98.277571 
L 181.867645 144.911639 
L 183.34075 113.82226 
L 184.077302 119.003824 
L 184.813854 108.640697 
L 185.550407 134.548513 
L 186.286959 119.003824 
L 187.023512 98.277571 
L 187.760064 119.003824 
L 188.496617 119.003824 
L 189.233169 124.185387 
L 189.969721 108.640697 
L 190.706274 108.640697 
L 191.442826 119.003824 
L 192.179379 93.096008 
L 192.915931 119.003824 
L 193.652483 108.640697 
L 194.389036 129.36695 
L 195.125588 113.82226 
L 195.862141 119.003824 
L 196.598693 113.82226 
L 197.335246 144.911639 
L 198.80835 113.82226 
L 199.544903 119.003824 
L 200.281455 113.82226 
L 201.018008 119.003824 
L 201.75456 113.82226 
L 202.491113 93.096008 
L 203.227665 113.82226 
L 203.964217 108.640697 
L 204.70077 124.185387 
L 205.437322 93.096008 
L 206.173875 124.185387 
L 206.910427 93.096008 
L 207.646979 134.548513 
L 208.383532 113.82226 
L 209.120084 139.730076 
L 209.856637 134.548513 
L 210.593189 119.003824 
L 212.066294 119.003824 
L 212.802846 87.914444 
L 213.539399 124.185387 
L 214.275951 93.096008 
L 215.012504 134.548513 
L 216.485608 93.096008 
L 217.958713 134.548513 
L 218.695266 124.185387 
L 219.431818 108.640697 
L 220.168371 129.36695 
L 220.904923 113.82226 
L 221.641475 103.459134 
L 222.378028 119.003824 
L 223.11458 119.003824 
L 223.851133 124.185387 
L 224.587685 108.640697 
L 225.324237 129.36695 
L 226.06079 113.82226 
L 226.797342 113.82226 
L 227.533895 124.185387 
L 228.270447 108.640697 
L 230.480104 124.185387 
L 231.216657 139.730076 
L 231.953209 119.003824 
L 232.689762 113.82226 
L 233.426314 129.36695 
L 234.162866 93.096008 
L 235.635971 124.185387 
L 236.372524 113.82226 
L 237.109076 108.640697 
L 237.845629 108.640697 
L 238.582181 77.551318 
L 239.318733 113.82226 
L 240.055286 124.185387 
L 240.791838 113.82226 
L 242.264943 155.274766 
L 243.001496 134.548513 
L 243.738048 119.003824 
L 244.4746 108.640697 
L 245.211153 119.003824 
L 245.947705 155.274766 
L 247.42081 113.82226 
L 248.157362 129.36695 
L 248.893915 139.730076 
L 249.630467 119.003824 
L 250.36702 108.640697 
L 251.103572 124.185387 
L 251.840125 108.640697 
L 252.576677 124.185387 
L 253.313229 108.640697 
L 254.049782 144.911639 
L 254.786334 129.36695 
L 255.522887 108.640697 
L 256.259439 129.36695 
L 256.995991 134.548513 
L 257.732544 119.003824 
L 258.469096 98.277571 
L 259.205649 124.185387 
L 259.942201 108.640697 
L 260.678754 139.730076 
L 262.151858 108.640697 
L 262.888411 129.36695 
L 263.624963 134.548513 
L 264.361516 119.003824 
L 265.098068 124.185387 
L 265.83462 139.730076 
L 266.571173 119.003824 
L 267.307725 113.82226 
L 268.044278 93.096008 
L 268.78083 144.911639 
L 269.517383 124.185387 
L 270.253935 108.640697 
L 270.990487 108.640697 
L 271.72704 124.185387 
L 272.463592 134.548513 
L 273.200145 113.82226 
L 273.936697 119.003824 
L 274.67325 113.82226 
L 275.409802 103.459134 
L 276.146354 124.185387 
L 276.882907 108.640697 
L 277.619459 124.185387 
L 278.356012 108.640697 
L 279.829116 119.003824 
L 280.565669 87.914444 
L 282.038774 129.36695 
L 282.775326 113.82226 
L 283.511879 113.82226 
L 284.248431 108.640697 
L 284.984983 160.456329 
L 285.721536 139.730076 
L 287.194641 108.640697 
L 287.931193 129.36695 
L 288.667745 139.730076 
L 289.404298 124.185387 
L 290.14085 93.096008 
L 290.877403 134.548513 
L 291.613955 119.003824 
L 292.350508 108.640697 
L 293.08706 129.36695 
L 293.823612 113.82226 
L 294.560165 93.096008 
L 295.296717 129.36695 
L 296.03327 108.640697 
L 296.769822 103.459134 
L 298.242927 134.548513 
L 298.979479 113.82226 
L 299.716032 103.459134 
L 300.452584 124.185387 
L 301.189137 108.640697 
L 301.925689 134.548513 
L 302.662241 113.82226 
L 303.398794 113.82226 
L 304.135346 134.548513 
L 304.871899 119.003824 
L 305.608451 98.277571 
L 306.345004 144.911639 
L 307.081556 124.185387 
L 307.818108 108.640697 
L 308.554661 103.459134 
L 309.291213 93.096008 
L 310.027766 129.36695 
L 310.764318 87.914444 
L 311.50087 93.096008 
L 312.237423 165.637892 
L 313.710528 124.185387 
L 314.44708 108.640697 
L 315.183633 134.548513 
L 315.920185 113.82226 
L 316.656737 98.277571 
L 317.39329 113.82226 
L 318.129842 108.640697 
L 318.866395 134.548513 
L 319.602947 113.82226 
L 320.339499 139.730076 
L 321.076052 139.730076 
L 321.812604 119.003824 
L 322.549157 93.096008 
L 323.285709 113.82226 
L 324.022262 119.003824 
L 324.758814 119.003824 
L 325.495366 98.277571 
L 326.231919 129.36695 
L 326.968471 113.82226 
L 327.705024 144.911639 
L 328.441576 139.730076 
L 329.178128 119.003824 
L 329.914681 93.096008 
L 330.651233 139.730076 
L 331.387786 119.003824 
L 332.124338 103.459134 
L 332.860891 150.093203 
L 334.333995 108.640697 
L 335.070548 124.185387 
L 335.8071 113.82226 
L 336.543653 108.640697 
L 337.280205 124.185387 
L 338.016758 119.003824 
L 338.75331 103.459134 
L 339.489862 119.003824 
L 340.962967 108.640697 
L 341.69952 119.003824 
L 342.436072 119.003824 
L 343.172624 98.277571 
L 343.909177 144.911639 
L 344.645729 124.185387 
L 345.382282 108.640697 
L 346.855387 119.003824 
L 347.591939 82.732881 
L 348.328491 98.277571 
L 349.065044 124.185387 
L 349.801596 113.82226 
L 350.538149 113.82226 
L 351.274701 124.185387 
L 352.011253 119.003824 
L 352.747806 119.003824 
L 353.484358 113.82226 
L 354.220911 87.914444 
L 354.957463 103.459134 
L 355.694016 124.185387 
L 356.430568 119.003824 
L 357.16712 134.548513 
L 357.903673 113.82226 
L 358.640225 124.185387 
L 359.376778 119.003824 
L 360.11333 98.277571 
L 360.849882 165.637892 
L 362.322987 124.185387 
L 363.05954 108.640697 
L 363.796092 124.185387 
L 364.532645 108.640697 
L 365.269197 124.185387 
L 366.005749 129.36695 
L 366.742302 108.640697 
L 367.478854 103.459134 
L 368.215407 113.82226 
L 368.951959 98.277571 
L 369.688511 113.82226 
L 370.425064 108.640697 
L 371.161616 113.82226 
L 371.898169 124.185387 
L 372.634721 139.730076 
L 373.371274 119.003824 
L 374.107826 124.185387 
L 374.844378 124.185387 
L 375.580931 93.096008 
L 376.317483 108.640697 
L 377.054036 134.548513 
L 377.790588 113.82226 
L 378.527141 124.185387 
L 379.263693 119.003824 
L 380.000245 108.640697 
L 382.209903 108.640697 
L 382.946455 119.003824 
L 384.41956 108.640697 
L 385.156112 93.096008 
L 385.892665 113.82226 
L 386.629217 108.640697 
L 387.36577 113.82226 
L 388.102322 129.36695 
L 388.838874 119.003824 
L 390.311979 119.003824 
L 391.048532 87.914444 
L 391.785084 93.096008 
L 392.521636 134.548513 
L 393.258189 119.003824 
L 393.994741 124.185387 
L 394.731294 124.185387 
L 395.467846 93.096008 
L 396.204399 150.093203 
L 397.677503 108.640697 
L 398.414056 129.36695 
L 399.887161 108.640697 
L 400.623713 103.459134 
L 401.360265 134.548513 
L 402.096818 119.003824 
L 402.83337 124.185387 
L 403.569923 124.185387 
L 404.306475 93.096008 
L 405.043028 134.548513 
L 405.77958 119.003824 
L 407.252685 98.277571 
L 407.989237 124.185387 
L 408.72579 93.096008 
L 409.462342 124.185387 
L 410.198895 113.82226 
L 410.935447 119.003824 
L 411.671999 129.36695 
L 412.408552 113.82226 
L 413.145104 124.185387 
L 413.881657 119.003824 
L 414.618209 103.459134 
L 415.354761 144.911639 
L 416.091314 124.185387 
L 416.827866 108.640697 
L 417.564419 150.093203 
L 418.300971 129.36695 
L 419.774076 98.277571 
L 420.510628 119.003824 
L 421.247181 113.82226 
L 421.983733 113.82226 
L 422.720286 124.185387 
L 423.456838 93.096008 
L 424.19339 155.274766 
L 425.666495 113.82226 
L 426.403048 98.277571 
L 427.1396 119.003824 
L 427.876153 103.459134 
L 428.612705 144.911639 
L 429.349257 124.185387 
L 430.08581 108.640697 
L 430.822362 129.36695 
L 432.295467 98.277571 
L 433.032019 119.003824 
L 433.768572 108.640697 
L 434.505124 129.36695 
L 435.241677 160.456329 
L 435.978229 160.456329 
L 438.187886 98.277571 
L 438.924439 144.911639 
L 440.397544 113.82226 
L 441.134096 119.003824 
L 441.870649 113.82226 
L 442.607201 134.548513 
L 443.343753 134.548513 
L 444.080306 113.82226 
L 444.816858 103.459134 
L 445.553411 124.185387 
L 446.289963 82.732881 
L 447.026515 129.36695 
L 447.763068 108.640697 
L 448.49962 129.36695 
L 449.236173 113.82226 
L 449.972725 108.640697 
L 450.709278 113.82226 
L 451.44583 98.277571 
L 452.182382 119.003824 
L 453.655487 108.640697 
L 454.39204 113.82226 
L 455.128592 129.36695 
L 455.865144 113.82226 
L 456.601697 108.640697 
L 458.074802 150.093203 
L 458.811354 129.36695 
L 459.547907 113.82226 
L 460.284459 124.185387 
L 461.021011 119.003824 
L 461.757564 103.459134 
L 462.494116 150.093203 
L 463.967221 108.640697 
L 464.703773 124.185387 
L 465.440326 134.548513 
L 466.176878 113.82226 
L 466.913431 113.82226 
L 467.649983 93.096008 
L 468.386536 144.911639 
L 469.123088 124.185387 
L 469.85964 108.640697 
L 470.596193 129.36695 
L 471.332745 113.82226 
L 472.069298 124.185387 
L 472.80585 119.003824 
L 473.542403 108.640697 
L 474.278955 108.640697 
L 475.015507 139.730076 
L 475.75206 119.003824 
L 476.488612 113.82226 
L 477.225165 124.185387 
L 477.961717 108.640697 
L 478.698269 108.640697 
L 479.434822 119.003824 
L 480.171374 108.640697 
L 480.907927 93.096008 
L 481.644479 144.911639 
L 482.381032 124.185387 
L 483.117584 108.640697 
L 483.854136 108.640697 
L 484.590689 119.003824 
L 485.327241 98.277571 
L 486.063794 124.185387 
L 486.800346 119.003824 
L 487.536898 124.185387 
L 488.273451 93.096008 
L 489.010003 150.093203 
L 489.746556 129.36695 
L 490.483108 113.82226 
L 491.219661 87.914444 
L 491.956213 129.36695 
L 492.692765 124.185387 
L 493.429318 108.640697 
L 494.16587 113.82226 
L 494.902423 129.36695 
L 495.638975 129.36695 
L 496.375527 113.82226 
L 497.11208 113.82226 
L 498.585185 124.185387 
L 499.321737 93.096008 
L 500.05829 134.548513 
L 500.794842 108.640697 
L 502.267947 108.640697 
L 503.004499 134.548513 
L 503.741052 119.003824 
L 503.741052 119.003824 
" style="fill:none;stroke:#d62728;stroke-linecap:square;stroke-width:1.5;"/>
   </g>
   <g id="patch_3">
    <path d="M 83.472344 352.174167 
L 83.472344 35.0625 
" style="fill:none;stroke:#000000;stroke-linecap:square;stroke-linejoin:miter;stroke-width:0.8;"/>
   </g>
   <g id="patch_4">
    <path d="M 529.912969 352.174167 
L 529.912969 35.0625 
" style="fill:none;stroke:#000000;stroke-linecap:square;stroke-linejoin:miter;stroke-width:0.8;"/>
   </g>
   <g id="patch_5">
    <path d="M 83.472344 352.174167 
L 529.912969 352.174167 
" style="fill:none;stroke:#000000;stroke-linecap:square;stroke-linejoin:miter;stroke-width:0.8;"/>
   </g>
   <g id="patch_6">
    <path d="M 83.472344 35.0625 
L 529.912969 35.0625 
" style="fill:none;stroke:#000000;stroke-linecap:square;stroke-linejoin:miter;stroke-width:0.8;"/>
   </g>
   <g id="legend_1">
    <g id="patch_7">
     <path d="M 554.235 96.775 
L 625.430312 96.775 
Q 627.430312 96.775 627.430312 94.775 
L 627.430312 37.0625 
Q 627.430312 35.0625 625.430312 35.0625 
L 554.235 35.0625 
Q 552.235 35.0625 552.235 37.0625 
L 552.235 94.775 
Q 552.235 96.775 554.235 96.775 
z
" style="fill:#ffffff;opacity:0.8;stroke:#cccccc;stroke-linejoin:miter;"/>
    </g>
    <g id="line2d_18">
     <path d="M 556.235 43.160937 
L 576.235 43.160937 
" style="fill:none;stroke:#1f77b4;stroke-linecap:square;stroke-width:1.5;"/>
    </g>
    <g id="line2d_19"/>
    <g id="text_15">
     <!-- cubic-pi -->
     <defs>
      <path d="M 48.78125 52.59375 
L 48.78125 44.1875 
Q 44.96875 46.296875 41.140625 47.34375 
Q 37.3125 48.390625 33.40625 48.390625 
Q 24.65625 48.390625 19.8125 42.84375 
Q 14.984375 37.3125 14.984375 27.296875 
Q 14.984375 17.28125 19.8125 11.734375 
Q 24.65625 6.203125 33.40625 6.203125 
Q 37.3125 6.203125 41.140625 7.25 
Q 44.96875 8.296875 48.78125 10.40625 
L 48.78125 2.09375 
Q 45.015625 0.34375 40.984375 -0.53125 
Q 36.96875 -1.421875 32.421875 -1.421875 
Q 20.0625 -1.421875 12.78125 6.34375 
Q 5.515625 14.109375 5.515625 27.296875 
Q 5.515625 40.671875 12.859375 48.328125 
Q 20.21875 56 33.015625 56 
Q 37.15625 56 41.109375 55.140625 
Q 45.0625 54.296875 48.78125 52.59375 
z
" id="DejaVuSans-99"/>
      <path d="M 8.5 21.578125 
L 8.5 54.6875 
L 17.484375 54.6875 
L 17.484375 21.921875 
Q 17.484375 14.15625 20.5 10.265625 
Q 23.53125 6.390625 29.59375 6.390625 
Q 36.859375 6.390625 41.078125 11.03125 
Q 45.3125 15.671875 45.3125 23.6875 
L 45.3125 54.6875 
L 54.296875 54.6875 
L 54.296875 0 
L 45.3125 0 
L 45.3125 8.40625 
Q 42.046875 3.421875 37.71875 1 
Q 33.40625 -1.421875 27.6875 -1.421875 
Q 18.265625 -1.421875 13.375 4.4375 
Q 8.5 10.296875 8.5 21.578125 
z
M 31.109375 56 
z
" id="DejaVuSans-117"/>
      <path d="M 48.6875 27.296875 
Q 48.6875 37.203125 44.609375 42.84375 
Q 40.53125 48.484375 33.40625 48.484375 
Q 26.265625 48.484375 22.1875 42.84375 
Q 18.109375 37.203125 18.109375 27.296875 
Q 18.109375 17.390625 22.1875 11.75 
Q 26.265625 6.109375 33.40625 6.109375 
Q 40.53125 6.109375 44.609375 11.75 
Q 48.6875 17.390625 48.6875 27.296875 
z
M 18.109375 46.390625 
Q 20.953125 51.265625 25.265625 53.625 
Q 29.59375 56 35.59375 56 
Q 45.5625 56 51.78125 48.09375 
Q 58.015625 40.1875 58.015625 27.296875 
Q 58.015625 14.40625 51.78125 6.484375 
Q 45.5625 -1.421875 35.59375 -1.421875 
Q 29.59375 -1.421875 25.265625 0.953125 
Q 20.953125 3.328125 18.109375 8.203125 
L 18.109375 0 
L 9.078125 0 
L 9.078125 75.984375 
L 18.109375 75.984375 
z
" id="DejaVuSans-98"/>
      <path d="M 9.421875 54.6875 
L 18.40625 54.6875 
L 18.40625 0 
L 9.421875 0 
z
M 9.421875 75.984375 
L 18.40625 75.984375 
L 18.40625 64.59375 
L 9.421875 64.59375 
z
" id="DejaVuSans-105"/>
      <path d="M 4.890625 31.390625 
L 31.203125 31.390625 
L 31.203125 23.390625 
L 4.890625 23.390625 
z
" id="DejaVuSans-45"/>
      <path d="M 18.109375 8.203125 
L 18.109375 -20.796875 
L 9.078125 -20.796875 
L 9.078125 54.6875 
L 18.109375 54.6875 
L 18.109375 46.390625 
Q 20.953125 51.265625 25.265625 53.625 
Q 29.59375 56 35.59375 56 
Q 45.5625 56 51.78125 48.09375 
Q 58.015625 40.1875 58.015625 27.296875 
Q 58.015625 14.40625 51.78125 6.484375 
Q 45.5625 -1.421875 35.59375 -1.421875 
Q 29.59375 -1.421875 25.265625 0.953125 
Q 20.953125 3.328125 18.109375 8.203125 
z
M 48.6875 27.296875 
Q 48.6875 37.203125 44.609375 42.84375 
Q 40.53125 48.484375 33.40625 48.484375 
Q 26.265625 48.484375 22.1875 42.84375 
Q 18.109375 37.203125 18.109375 27.296875 
Q 18.109375 17.390625 22.1875 11.75 
Q 26.265625 6.109375 33.40625 6.109375 
Q 40.53125 6.109375 44.609375 11.75 
Q 48.6875 17.390625 48.6875 27.296875 
z
" id="DejaVuSans-112"/>
     </defs>
     <g transform="translate(584.235 46.660937)scale(0.1 -0.1)">
      <use xlink:href="#DejaVuSans-99"/>
      <use x="54.980469" xlink:href="#DejaVuSans-117"/>
      <use x="118.359375" xlink:href="#DejaVuSans-98"/>
      <use x="181.835938" xlink:href="#DejaVuSans-105"/>
      <use x="209.619141" xlink:href="#DejaVuSans-99"/>
      <use x="264.599609" xlink:href="#DejaVuSans-45"/>
      <use x="300.683594" xlink:href="#DejaVuSans-112"/>
      <use x="364.160156" xlink:href="#DejaVuSans-105"/>
     </g>
    </g>
    <g id="line2d_20">
     <path d="M 556.235 57.839063 
L 576.235 57.839063 
" style="fill:none;stroke:#ff7f0e;stroke-linecap:square;stroke-width:1.5;"/>
    </g>
    <g id="line2d_21"/>
    <g id="text_16">
     <!-- cubic-pi -->
     <g transform="translate(584.235 61.339063)scale(0.1 -0.1)">
      <use xlink:href="#DejaVuSans-99"/>
      <use x="54.980469" xlink:href="#DejaVuSans-117"/>
      <use x="118.359375" xlink:href="#DejaVuSans-98"/>
      <use x="181.835938" xlink:href="#DejaVuSans-105"/>
      <use x="209.619141" xlink:href="#DejaVuSans-99"/>
      <use x="264.599609" xlink:href="#DejaVuSans-45"/>
      <use x="300.683594" xlink:href="#DejaVuSans-112"/>
      <use x="364.160156" xlink:href="#DejaVuSans-105"/>
     </g>
    </g>
    <g id="line2d_22">
     <path d="M 556.235 72.517187 
L 576.235 72.517187 
" style="fill:none;stroke:#2ca02c;stroke-linecap:square;stroke-width:1.5;"/>
    </g>
    <g id="line2d_23"/>
    <g id="text_17">
     <!-- cubic-pi -->
     <g transform="translate(584.235 76.017187)scale(0.1 -0.1)">
      <use xlink:href="#DejaVuSans-99"/>
      <use x="54.980469" xlink:href="#DejaVuSans-117"/>
      <use x="118.359375" xlink:href="#DejaVuSans-98"/>
      <use x="181.835938" xlink:href="#DejaVuSans-105"/>
      <use x="209.619141" xlink:href="#DejaVuSans-99"/>
      <use x="264.599609" xlink:href="#DejaVuSans-45"/>
      <use x="300.683594" xlink:href="#DejaVuSans-112"/>
      <use x="364.160156" xlink:href="#DejaVuSans-105"/>
     </g>
    </g>
    <g id="line2d_24">
     <path d="M 556.235 87.195312 
L 576.235 87.195312 
" style="fill:none;stroke:#d62728;stroke-linecap:square;stroke-width:1.5;"/>
    </g>
    <g id="line2d_25"/>
    <g id="text_18">
     <!-- cubic-pi -->
     <g transform="translate(584.235 90.695312)scale(0.1 -0.1)">
      <use xlink:href="#DejaVuSans-99"/>
      <use x="54.980469" xlink:href="#DejaVuSans-117"/>
      <use x="118.359375" xlink:href="#DejaVuSans-98"/>
      <use x="181.835938" xlink:href="#DejaVuSans-105"/>
      <use x="209.619141" xlink:href="#DejaVuSans-99"/>
      <use x="264.599609" xlink:href="#DejaVuSans-45"/>
      <use x="300.683594" xlink:href="#DejaVuSans-112"/>
      <use x="364.160156" xlink:href="#DejaVuSans-105"/>
     </g>
    </g>
   </g>
  </g>
  <g id="text_19">
   <!-- result rtt -->
   <defs>
    <path d="M 56.203125 29.59375 
L 56.203125 25.203125 
L 14.890625 25.203125 
Q 15.484375 15.921875 20.484375 11.0625 
Q 25.484375 6.203125 34.421875 6.203125 
Q 39.59375 6.203125 44.453125 7.46875 
Q 49.3125 8.734375 54.109375 11.28125 
L 54.109375 2.78125 
Q 49.265625 0.734375 44.1875 -0.34375 
Q 39.109375 -1.421875 33.890625 -1.421875 
Q 20.796875 -1.421875 13.15625 6.1875 
Q 5.515625 13.8125 5.515625 26.8125 
Q 5.515625 40.234375 12.765625 48.109375 
Q 20.015625 56 32.328125 56 
Q 43.359375 56 49.78125 48.890625 
Q 56.203125 41.796875 56.203125 29.59375 
z
M 47.21875 32.234375 
Q 47.125 39.59375 43.09375 43.984375 
Q 39.0625 48.390625 32.421875 48.390625 
Q 24.90625 48.390625 20.390625 44.140625 
Q 15.875 39.890625 15.1875 32.171875 
z
" id="DejaVuSans-101"/>
    <path d="M 9.421875 75.984375 
L 18.40625 75.984375 
L 18.40625 0 
L 9.421875 0 
z
" id="DejaVuSans-108"/>
    <path id="DejaVuSans-32"/>
   </defs>
   <g transform="translate(315.818438 17.038125)scale(0.12 -0.12)">
    <use xlink:href="#DejaVuSans-114"/>
    <use x="41.082031" xlink:href="#DejaVuSans-101"/>
    <use x="102.605469" xlink:href="#DejaVuSans-115"/>
    <use x="154.705078" xlink:href="#DejaVuSans-117"/>
    <use x="218.083984" xlink:href="#DejaVuSans-108"/>
    <use x="245.867188" xlink:href="#DejaVuSans-116"/>
    <use x="285.076172" xlink:href="#DejaVuSans-32"/>
    <use x="316.863281" xlink:href="#DejaVuSans-114"/>
    <use x="357.976562" xlink:href="#DejaVuSans-116"/>
    <use x="397.185547" xlink:href="#DejaVuSans-116"/>
   </g>
  </g>
 </g>
 <defs>
  <clipPath id="p35cc1cc7af">
   <rect height="317.111667" width="446.440625" x="83.472344" y="35.0625"/>
  </clipPath>
 </defs>
</svg>
