<?xml version="1.0" encoding="utf-8" standalone="no"?>
<!DOCTYPE svg PUBLIC "-//W3C//DTD SVG 1.1//EN"
  "http://www.w3.org/Graphics/SVG/1.1/DTD/svg11.dtd">
<!-- Created with matplotlib (https://matplotlib.org/) -->
<svg height="396pt" version="1.1" viewBox="0 0 684 396" width="684pt" xmlns="http://www.w3.org/2000/svg" xmlns:xlink="http://www.w3.org/1999/xlink">
 <defs>
  <style type="text/css">
*{stroke-linecap:butt;stroke-linejoin:round;}
  </style>
 </defs>
 <g id="figure_1">
  <g id="patch_1">
   <path d="M 0 396 
L 684 396 
L 684 0 
L 0 0 
z
" style="fill:#ffffff;"/>
  </g>
  <g id="axes_1">
   <g id="patch_2">
    <path d="M 130.230156 352.174167 
L 540.734062 352.174167 
L 540.734062 35.0625 
L 130.230156 35.0625 
z
" style="fill:#ffffff;"/>
   </g>
   <g id="matplotlib.axis_1">
    <g id="xtick_1">
     <g id="line2d_1">
      <defs>
       <path d="M 0 0 
L 0 3.5 
" id="mc317c8bdd3" style="stroke:#000000;stroke-width:0.8;"/>
      </defs>
      <g>
       <use style="stroke:#000000;stroke-width:0.8;" x="153.690351" xlink:href="#mc317c8bdd3" y="352.174167"/>
      </g>
     </g>
     <g id="text_1">
      <!-- 0 -->
      <defs>
       <path d="M 31.78125 66.40625 
Q 24.171875 66.40625 20.328125 58.90625 
Q 16.5 51.421875 16.5 36.375 
Q 16.5 21.390625 20.328125 13.890625 
Q 24.171875 6.390625 31.78125 6.390625 
Q 39.453125 6.390625 43.28125 13.890625 
Q 47.125 21.390625 47.125 36.375 
Q 47.125 51.421875 43.28125 58.90625 
Q 39.453125 66.40625 31.78125 66.40625 
z
M 31.78125 74.21875 
Q 44.046875 74.21875 50.515625 64.515625 
Q 56.984375 54.828125 56.984375 36.375 
Q 56.984375 17.96875 50.515625 8.265625 
Q 44.046875 -1.421875 31.78125 -1.421875 
Q 19.53125 -1.421875 13.0625 8.265625 
Q 6.59375 17.96875 6.59375 36.375 
Q 6.59375 54.828125 13.0625 64.515625 
Q 19.53125 74.21875 31.78125 74.21875 
z
" id="DejaVuSans-48"/>
      </defs>
      <g transform="translate(150.509101 366.772604)scale(0.1 -0.1)">
       <use xlink:href="#DejaVuSans-48"/>
      </g>
     </g>
    </g>
    <g id="xtick_2">
     <g id="line2d_2">
      <g>
       <use style="stroke:#000000;stroke-width:0.8;" x="218.866765" xlink:href="#mc317c8bdd3" y="352.174167"/>
      </g>
     </g>
     <g id="text_2">
      <!-- 50 -->
      <defs>
       <path d="M 10.796875 72.90625 
L 49.515625 72.90625 
L 49.515625 64.59375 
L 19.828125 64.59375 
L 19.828125 46.734375 
Q 21.96875 47.46875 24.109375 47.828125 
Q 26.265625 48.1875 28.421875 48.1875 
Q 40.625 48.1875 47.75 41.5 
Q 54.890625 34.8125 54.890625 23.390625 
Q 54.890625 11.625 47.5625 5.09375 
Q 40.234375 -1.421875 26.90625 -1.421875 
Q 22.3125 -1.421875 17.546875 -0.640625 
Q 12.796875 0.140625 7.71875 1.703125 
L 7.71875 11.625 
Q 12.109375 9.234375 16.796875 8.0625 
Q 21.484375 6.890625 26.703125 6.890625 
Q 35.15625 6.890625 40.078125 11.328125 
Q 45.015625 15.765625 45.015625 23.390625 
Q 45.015625 31 40.078125 35.4375 
Q 35.15625 39.890625 26.703125 39.890625 
Q 22.75 39.890625 18.8125 39.015625 
Q 14.890625 38.140625 10.796875 36.28125 
z
" id="DejaVuSans-53"/>
      </defs>
      <g transform="translate(212.504265 366.772604)scale(0.1 -0.1)">
       <use xlink:href="#DejaVuSans-53"/>
       <use x="63.623047" xlink:href="#DejaVuSans-48"/>
      </g>
     </g>
    </g>
    <g id="xtick_3">
     <g id="line2d_3">
      <g>
       <use style="stroke:#000000;stroke-width:0.8;" x="284.04318" xlink:href="#mc317c8bdd3" y="352.174167"/>
      </g>
     </g>
     <g id="text_3">
      <!-- 100 -->
      <defs>
       <path d="M 12.40625 8.296875 
L 28.515625 8.296875 
L 28.515625 63.921875 
L 10.984375 60.40625 
L 10.984375 69.390625 
L 28.421875 72.90625 
L 38.28125 72.90625 
L 38.28125 8.296875 
L 54.390625 8.296875 
L 54.390625 0 
L 12.40625 0 
z
" id="DejaVuSans-49"/>
      </defs>
      <g transform="translate(274.49943 366.772604)scale(0.1 -0.1)">
       <use xlink:href="#DejaVuSans-49"/>
       <use x="63.623047" xlink:href="#DejaVuSans-48"/>
       <use x="127.246094" xlink:href="#DejaVuSans-48"/>
      </g>
     </g>
    </g>
    <g id="xtick_4">
     <g id="line2d_4">
      <g>
       <use style="stroke:#000000;stroke-width:0.8;" x="349.219595" xlink:href="#mc317c8bdd3" y="352.174167"/>
      </g>
     </g>
     <g id="text_4">
      <!-- 150 -->
      <g transform="translate(339.675845 366.772604)scale(0.1 -0.1)">
       <use xlink:href="#DejaVuSans-49"/>
       <use x="63.623047" xlink:href="#DejaVuSans-53"/>
       <use x="127.246094" xlink:href="#DejaVuSans-48"/>
      </g>
     </g>
    </g>
    <g id="xtick_5">
     <g id="line2d_5">
      <g>
       <use style="stroke:#000000;stroke-width:0.8;" x="414.39601" xlink:href="#mc317c8bdd3" y="352.174167"/>
      </g>
     </g>
     <g id="text_5">
      <!-- 200 -->
      <defs>
       <path d="M 19.1875 8.296875 
L 53.609375 8.296875 
L 53.609375 0 
L 7.328125 0 
L 7.328125 8.296875 
Q 12.9375 14.109375 22.625 23.890625 
Q 32.328125 33.6875 34.8125 36.53125 
Q 39.546875 41.84375 41.421875 45.53125 
Q 43.3125 49.21875 43.3125 52.78125 
Q 43.3125 58.59375 39.234375 62.25 
Q 35.15625 65.921875 28.609375 65.921875 
Q 23.96875 65.921875 18.8125 64.3125 
Q 13.671875 62.703125 7.8125 59.421875 
L 7.8125 69.390625 
Q 13.765625 71.78125 18.9375 73 
Q 24.125 74.21875 28.421875 74.21875 
Q 39.75 74.21875 46.484375 68.546875 
Q 53.21875 62.890625 53.21875 53.421875 
Q 53.21875 48.921875 51.53125 44.890625 
Q 49.859375 40.875 45.40625 35.40625 
Q 44.1875 33.984375 37.640625 27.21875 
Q 31.109375 20.453125 19.1875 8.296875 
z
" id="DejaVuSans-50"/>
      </defs>
      <g transform="translate(404.85226 366.772604)scale(0.1 -0.1)">
       <use xlink:href="#DejaVuSans-50"/>
       <use x="63.623047" xlink:href="#DejaVuSans-48"/>
       <use x="127.246094" xlink:href="#DejaVuSans-48"/>
      </g>
     </g>
    </g>
    <g id="xtick_6">
     <g id="line2d_6">
      <g>
       <use style="stroke:#000000;stroke-width:0.8;" x="479.572425" xlink:href="#mc317c8bdd3" y="352.174167"/>
      </g>
     </g>
     <g id="text_6">
      <!-- 250 -->
      <g transform="translate(470.028675 366.772604)scale(0.1 -0.1)">
       <use xlink:href="#DejaVuSans-50"/>
       <use x="63.623047" xlink:href="#DejaVuSans-53"/>
       <use x="127.246094" xlink:href="#DejaVuSans-48"/>
      </g>
     </g>
    </g>
   </g>
   <g id="matplotlib.axis_2">
    <g id="ytick_1">
     <g id="line2d_7">
      <defs>
       <path d="M 0 0 
L -3.5 0 
" id="m99199dd227" style="stroke:#000000;stroke-width:0.8;"/>
      </defs>
      <g>
       <use style="stroke:#000000;stroke-width:0.8;" x="130.230156" xlink:href="#m99199dd227" y="352.174167"/>
      </g>
     </g>
     <g id="text_7">
      <!-- 0 -->
      <g transform="translate(116.867656 355.973385)scale(0.1 -0.1)">
       <use xlink:href="#DejaVuSans-48"/>
      </g>
     </g>
    </g>
    <g id="ytick_2">
     <g id="line2d_8">
      <g>
       <use style="stroke:#000000;stroke-width:0.8;" x="130.230156" xlink:href="#m99199dd227" y="301.826126"/>
      </g>
     </g>
     <g id="text_8">
      <!-- 500000 -->
      <g transform="translate(85.055156 305.625345)scale(0.1 -0.1)">
       <use xlink:href="#DejaVuSans-53"/>
       <use x="63.623047" xlink:href="#DejaVuSans-48"/>
       <use x="127.246094" xlink:href="#DejaVuSans-48"/>
       <use x="190.869141" xlink:href="#DejaVuSans-48"/>
       <use x="254.492188" xlink:href="#DejaVuSans-48"/>
       <use x="318.115234" xlink:href="#DejaVuSans-48"/>
      </g>
     </g>
    </g>
    <g id="ytick_3">
     <g id="line2d_9">
      <g>
       <use style="stroke:#000000;stroke-width:0.8;" x="130.230156" xlink:href="#m99199dd227" y="251.478085"/>
      </g>
     </g>
     <g id="text_9">
      <!-- 1000000 -->
      <g transform="translate(78.692656 255.277304)scale(0.1 -0.1)">
       <use xlink:href="#DejaVuSans-49"/>
       <use x="63.623047" xlink:href="#DejaVuSans-48"/>
       <use x="127.246094" xlink:href="#DejaVuSans-48"/>
       <use x="190.869141" xlink:href="#DejaVuSans-48"/>
       <use x="254.492188" xlink:href="#DejaVuSans-48"/>
       <use x="318.115234" xlink:href="#DejaVuSans-48"/>
       <use x="381.738281" xlink:href="#DejaVuSans-48"/>
      </g>
     </g>
    </g>
    <g id="ytick_4">
     <g id="line2d_10">
      <g>
       <use style="stroke:#000000;stroke-width:0.8;" x="130.230156" xlink:href="#m99199dd227" y="201.130045"/>
      </g>
     </g>
     <g id="text_10">
      <!-- 1500000 -->
      <g transform="translate(78.692656 204.929263)scale(0.1 -0.1)">
       <use xlink:href="#DejaVuSans-49"/>
       <use x="63.623047" xlink:href="#DejaVuSans-53"/>
       <use x="127.246094" xlink:href="#DejaVuSans-48"/>
       <use x="190.869141" xlink:href="#DejaVuSans-48"/>
       <use x="254.492188" xlink:href="#DejaVuSans-48"/>
       <use x="318.115234" xlink:href="#DejaVuSans-48"/>
       <use x="381.738281" xlink:href="#DejaVuSans-48"/>
      </g>
     </g>
    </g>
    <g id="ytick_5">
     <g id="line2d_11">
      <g>
       <use style="stroke:#000000;stroke-width:0.8;" x="130.230156" xlink:href="#m99199dd227" y="150.782004"/>
      </g>
     </g>
     <g id="text_11">
      <!-- 2000000 -->
      <g transform="translate(78.692656 154.581223)scale(0.1 -0.1)">
       <use xlink:href="#DejaVuSans-50"/>
       <use x="63.623047" xlink:href="#DejaVuSans-48"/>
       <use x="127.246094" xlink:href="#DejaVuSans-48"/>
       <use x="190.869141" xlink:href="#DejaVuSans-48"/>
       <use x="254.492188" xlink:href="#DejaVuSans-48"/>
       <use x="318.115234" xlink:href="#DejaVuSans-48"/>
       <use x="381.738281" xlink:href="#DejaVuSans-48"/>
      </g>
     </g>
    </g>
    <g id="ytick_6">
     <g id="line2d_12">
      <g>
       <use style="stroke:#000000;stroke-width:0.8;" x="130.230156" xlink:href="#m99199dd227" y="100.433963"/>
      </g>
     </g>
     <g id="text_12">
      <!-- 2500000 -->
      <g transform="translate(78.692656 104.233182)scale(0.1 -0.1)">
       <use xlink:href="#DejaVuSans-50"/>
       <use x="63.623047" xlink:href="#DejaVuSans-53"/>
       <use x="127.246094" xlink:href="#DejaVuSans-48"/>
       <use x="190.869141" xlink:href="#DejaVuSans-48"/>
       <use x="254.492188" xlink:href="#DejaVuSans-48"/>
       <use x="318.115234" xlink:href="#DejaVuSans-48"/>
       <use x="381.738281" xlink:href="#DejaVuSans-48"/>
      </g>
     </g>
    </g>
    <g id="ytick_7">
     <g id="line2d_13">
      <g>
       <use style="stroke:#000000;stroke-width:0.8;" x="130.230156" xlink:href="#m99199dd227" y="50.085922"/>
      </g>
     </g>
     <g id="text_13">
      <!-- 3000000 -->
      <defs>
       <path d="M 40.578125 39.3125 
Q 47.65625 37.796875 51.625 33 
Q 55.609375 28.21875 55.609375 21.1875 
Q 55.609375 10.40625 48.1875 4.484375 
Q 40.765625 -1.421875 27.09375 -1.421875 
Q 22.515625 -1.421875 17.65625 -0.515625 
Q 12.796875 0.390625 7.625 2.203125 
L 7.625 11.71875 
Q 11.71875 9.328125 16.59375 8.109375 
Q 21.484375 6.890625 26.8125 6.890625 
Q 36.078125 6.890625 40.9375 10.546875 
Q 45.796875 14.203125 45.796875 21.1875 
Q 45.796875 27.640625 41.28125 31.265625 
Q 36.765625 34.90625 28.71875 34.90625 
L 20.21875 34.90625 
L 20.21875 43.015625 
L 29.109375 43.015625 
Q 36.375 43.015625 40.234375 45.921875 
Q 44.09375 48.828125 44.09375 54.296875 
Q 44.09375 59.90625 40.109375 62.90625 
Q 36.140625 65.921875 28.71875 65.921875 
Q 24.65625 65.921875 20.015625 65.03125 
Q 15.375 64.15625 9.8125 62.3125 
L 9.8125 71.09375 
Q 15.4375 72.65625 20.34375 73.4375 
Q 25.25 74.21875 29.59375 74.21875 
Q 40.828125 74.21875 47.359375 69.109375 
Q 53.90625 64.015625 53.90625 55.328125 
Q 53.90625 49.265625 50.4375 45.09375 
Q 46.96875 40.921875 40.578125 39.3125 
z
" id="DejaVuSans-51"/>
      </defs>
      <g transform="translate(78.692656 53.885141)scale(0.1 -0.1)">
       <use xlink:href="#DejaVuSans-51"/>
       <use x="63.623047" xlink:href="#DejaVuSans-48"/>
       <use x="127.246094" xlink:href="#DejaVuSans-48"/>
       <use x="190.869141" xlink:href="#DejaVuSans-48"/>
       <use x="254.492188" xlink:href="#DejaVuSans-48"/>
       <use x="318.115234" xlink:href="#DejaVuSans-48"/>
       <use x="381.738281" xlink:href="#DejaVuSans-48"/>
      </g>
     </g>
    </g>
    <g id="text_14">
     <!-- queue -->
     <defs>
      <path d="M 14.796875 27.296875 
Q 14.796875 17.390625 18.875 11.75 
Q 22.953125 6.109375 30.078125 6.109375 
Q 37.203125 6.109375 41.296875 11.75 
Q 45.40625 17.390625 45.40625 27.296875 
Q 45.40625 37.203125 41.296875 42.84375 
Q 37.203125 48.484375 30.078125 48.484375 
Q 22.953125 48.484375 18.875 42.84375 
Q 14.796875 37.203125 14.796875 27.296875 
z
M 45.40625 8.203125 
Q 42.578125 3.328125 38.25 0.953125 
Q 33.9375 -1.421875 27.875 -1.421875 
Q 17.96875 -1.421875 11.734375 6.484375 
Q 5.515625 14.40625 5.515625 27.296875 
Q 5.515625 40.1875 11.734375 48.09375 
Q 17.96875 56 27.875 56 
Q 33.9375 56 38.25 53.625 
Q 42.578125 51.265625 45.40625 46.390625 
L 45.40625 54.6875 
L 54.390625 54.6875 
L 54.390625 -20.796875 
L 45.40625 -20.796875 
z
" id="DejaVuSans-113"/>
      <path d="M 8.5 21.578125 
L 8.5 54.6875 
L 17.484375 54.6875 
L 17.484375 21.921875 
Q 17.484375 14.15625 20.5 10.265625 
Q 23.53125 6.390625 29.59375 6.390625 
Q 36.859375 6.390625 41.078125 11.03125 
Q 45.3125 15.671875 45.3125 23.6875 
L 45.3125 54.6875 
L 54.296875 54.6875 
L 54.296875 0 
L 45.3125 0 
L 45.3125 8.40625 
Q 42.046875 3.421875 37.71875 1 
Q 33.40625 -1.421875 27.6875 -1.421875 
Q 18.265625 -1.421875 13.375 4.4375 
Q 8.5 10.296875 8.5 21.578125 
z
M 31.109375 56 
z
" id="DejaVuSans-117"/>
      <path d="M 56.203125 29.59375 
L 56.203125 25.203125 
L 14.890625 25.203125 
Q 15.484375 15.921875 20.484375 11.0625 
Q 25.484375 6.203125 34.421875 6.203125 
Q 39.59375 6.203125 44.453125 7.46875 
Q 49.3125 8.734375 54.109375 11.28125 
L 54.109375 2.78125 
Q 49.265625 0.734375 44.1875 -0.34375 
Q 39.109375 -1.421875 33.890625 -1.421875 
Q 20.796875 -1.421875 13.15625 6.1875 
Q 5.515625 13.8125 5.515625 26.8125 
Q 5.515625 40.234375 12.765625 48.109375 
Q 20.015625 56 32.328125 56 
Q 43.359375 56 49.78125 48.890625 
Q 56.203125 41.796875 56.203125 29.59375 
z
M 47.21875 32.234375 
Q 47.125 39.59375 43.09375 43.984375 
Q 39.0625 48.390625 32.421875 48.390625 
Q 24.90625 48.390625 20.390625 44.140625 
Q 15.875 39.890625 15.1875 32.171875 
z
" id="DejaVuSans-101"/>
     </defs>
     <g transform="translate(61.415156 209.283177)rotate(-90)scale(0.1 -0.1)">
      <use xlink:href="#DejaVuSans-113"/>
      <use x="63.476562" xlink:href="#DejaVuSans-117"/>
      <use x="126.855469" xlink:href="#DejaVuSans-101"/>
      <use x="188.378906" xlink:href="#DejaVuSans-117"/>
      <use x="251.757812" xlink:href="#DejaVuSans-101"/>
     </g>
     <!-- (bytes) -->
     <defs>
      <path d="M 31 75.875 
Q 24.46875 64.65625 21.28125 53.65625 
Q 18.109375 42.671875 18.109375 31.390625 
Q 18.109375 20.125 21.3125 9.0625 
Q 24.515625 -2 31 -13.1875 
L 23.1875 -13.1875 
Q 15.875 -1.703125 12.234375 9.375 
Q 8.59375 20.453125 8.59375 31.390625 
Q 8.59375 42.28125 12.203125 53.3125 
Q 15.828125 64.359375 23.1875 75.875 
z
" id="DejaVuSans-40"/>
      <path d="M 48.6875 27.296875 
Q 48.6875 37.203125 44.609375 42.84375 
Q 40.53125 48.484375 33.40625 48.484375 
Q 26.265625 48.484375 22.1875 42.84375 
Q 18.109375 37.203125 18.109375 27.296875 
Q 18.109375 17.390625 22.1875 11.75 
Q 26.265625 6.109375 33.40625 6.109375 
Q 40.53125 6.109375 44.609375 11.75 
Q 48.6875 17.390625 48.6875 27.296875 
z
M 18.109375 46.390625 
Q 20.953125 51.265625 25.265625 53.625 
Q 29.59375 56 35.59375 56 
Q 45.5625 56 51.78125 48.09375 
Q 58.015625 40.1875 58.015625 27.296875 
Q 58.015625 14.40625 51.78125 6.484375 
Q 45.5625 -1.421875 35.59375 -1.421875 
Q 29.59375 -1.421875 25.265625 0.953125 
Q 20.953125 3.328125 18.109375 8.203125 
L 18.109375 0 
L 9.078125 0 
L 9.078125 75.984375 
L 18.109375 75.984375 
z
" id="DejaVuSans-98"/>
      <path d="M 32.171875 -5.078125 
Q 28.375 -14.84375 24.75 -17.8125 
Q 21.140625 -20.796875 15.09375 -20.796875 
L 7.90625 -20.796875 
L 7.90625 -13.28125 
L 13.1875 -13.28125 
Q 16.890625 -13.28125 18.9375 -11.515625 
Q 21 -9.765625 23.484375 -3.21875 
L 25.09375 0.875 
L 2.984375 54.6875 
L 12.5 54.6875 
L 29.59375 11.921875 
L 46.6875 54.6875 
L 56.203125 54.6875 
z
" id="DejaVuSans-121"/>
      <path d="M 18.3125 70.21875 
L 18.3125 54.6875 
L 36.8125 54.6875 
L 36.8125 47.703125 
L 18.3125 47.703125 
L 18.3125 18.015625 
Q 18.3125 11.328125 20.140625 9.421875 
Q 21.96875 7.515625 27.59375 7.515625 
L 36.8125 7.515625 
L 36.8125 0 
L 27.59375 0 
Q 17.1875 0 13.234375 3.875 
Q 9.28125 7.765625 9.28125 18.015625 
L 9.28125 47.703125 
L 2.6875 47.703125 
L 2.6875 54.6875 
L 9.28125 54.6875 
L 9.28125 70.21875 
z
" id="DejaVuSans-116"/>
      <path d="M 44.28125 53.078125 
L 44.28125 44.578125 
Q 40.484375 46.53125 36.375 47.5 
Q 32.28125 48.484375 27.875 48.484375 
Q 21.1875 48.484375 17.84375 46.4375 
Q 14.5 44.390625 14.5 40.28125 
Q 14.5 37.15625 16.890625 35.375 
Q 19.28125 33.59375 26.515625 31.984375 
L 29.59375 31.296875 
Q 39.15625 29.25 43.1875 25.515625 
Q 47.21875 21.78125 47.21875 15.09375 
Q 47.21875 7.46875 41.1875 3.015625 
Q 35.15625 -1.421875 24.609375 -1.421875 
Q 20.21875 -1.421875 15.453125 -0.5625 
Q 10.6875 0.296875 5.421875 2 
L 5.421875 11.28125 
Q 10.40625 8.6875 15.234375 7.390625 
Q 20.0625 6.109375 24.8125 6.109375 
Q 31.15625 6.109375 34.5625 8.28125 
Q 37.984375 10.453125 37.984375 14.40625 
Q 37.984375 18.0625 35.515625 20.015625 
Q 33.0625 21.96875 24.703125 23.78125 
L 21.578125 24.515625 
Q 13.234375 26.265625 9.515625 29.90625 
Q 5.8125 33.546875 5.8125 39.890625 
Q 5.8125 47.609375 11.28125 51.796875 
Q 16.75 56 26.8125 56 
Q 31.78125 56 36.171875 55.265625 
Q 40.578125 54.546875 44.28125 53.078125 
z
" id="DejaVuSans-115"/>
      <path d="M 8.015625 75.875 
L 15.828125 75.875 
Q 23.140625 64.359375 26.78125 53.3125 
Q 30.421875 42.28125 30.421875 31.390625 
Q 30.421875 20.453125 26.78125 9.375 
Q 23.140625 -1.703125 15.828125 -13.1875 
L 8.015625 -13.1875 
Q 14.5 -2 17.703125 9.0625 
Q 20.90625 20.125 20.90625 31.390625 
Q 20.90625 42.671875 17.703125 53.65625 
Q 14.5 64.65625 8.015625 75.875 
z
" id="DejaVuSans-41"/>
     </defs>
     <g transform="translate(72.612969 211.294896)rotate(-90)scale(0.1 -0.1)">
      <use xlink:href="#DejaVuSans-40"/>
      <use x="39.013672" xlink:href="#DejaVuSans-98"/>
      <use x="102.490234" xlink:href="#DejaVuSans-121"/>
      <use x="161.669922" xlink:href="#DejaVuSans-116"/>
      <use x="200.878906" xlink:href="#DejaVuSans-101"/>
      <use x="262.402344" xlink:href="#DejaVuSans-115"/>
      <use x="314.501953" xlink:href="#DejaVuSans-41"/>
     </g>
    </g>
   </g>
   <g id="line2d_14">
    <path clip-path="url(#pcdafadb3e8)" d="M 148.889425 352.174167 
L 153.223361 352.174167 
L 153.499103 267.257363 
L 153.639795 271.983432 
L 153.777713 349.887359 
L 154.052253 343.789204 
L 154.3275 344.399019 
L 154.464763 340.89258 
L 154.601968 344.399019 
L 154.738818 337.691049 
L 154.87666 346.990735 
L 155.013885 341.045034 
L 155.151218 346.685827 
L 155.288737 344.856381 
L 155.563393 346.076012 
L 156.122694 348.972635 
L 156.260892 348.972635 
L 156.399347 348.515274 
L 156.537492 344.703927 
L 156.67575 349.887359 
L 156.812773 341.807304 
L 156.950789 350.954536 
L 157.090602 347.143189 
L 157.228609 350.497174 
L 157.366808 350.649628 
L 157.643095 350.497174 
L 157.78125 351.259443 
L 157.920009 350.497174 
L 158.057419 351.716805 
L 158.333189 349.277543 
L 158.47147 348.210366 
L 158.610411 343.63675 
L 158.749613 349.734905 
L 158.886934 341.045034 
L 159.02407 350.954536 
L 159.16093 346.076012 
L 159.298534 350.802082 
L 159.575277 349.887359 
L 159.713548 350.039813 
L 159.989456 351.10699 
L 160.127974 351.411897 
L 160.265168 351.259443 
L 160.402198 350.802082 
L 160.67701 348.515274 
L 160.814216 349.429997 
L 161.088651 325.647194 
L 161.226514 301.711937 
L 161.364384 301.254575 
L 161.640304 303.236475 
L 161.777925 312.231253 
L 161.915987 305.065922 
L 162.053226 308.877268 
L 162.19024 301.254575 
L 162.327716 304.60856 
L 162.464858 301.102121 
L 162.602238 303.236475 
L 162.739556 302.473803 
L 163.013189 296.376051 
L 163.149918 296.376051 
L 163.286821 295.308874 
L 163.423594 292.564705 
L 163.560273 295.15642 
L 164.110691 281.892934 
L 164.247637 282.045388 
L 164.384509 277.471772 
L 164.521619 284.332196 
L 164.797896 271.526071 
L 165.210239 256.433138 
L 165.348793 255.975776 
L 165.625064 250.182529 
L 165.762113 250.792345 
L 166.0374 234.937143 
L 166.174412 234.327327 
L 166.312353 248.048175 
L 166.592295 231.888065 
L 167.006108 154.593955 
L 167.143709 151.087516 
L 167.419303 127.457166 
L 167.556736 129.134159 
L 167.971015 95.899216 
L 168.246342 80.806283 
L 168.386333 79.586652 
L 169.074112 50.925325 
L 169.215115 50.620417 
L 169.356287 109.54575 
L 169.637698 312.0788 
L 169.775611 166.63781 
L 170.05048 154.593955 
L 170.188447 152.916962 
L 170.325813 163.588733 
L 170.468322 148.629524 
L 170.745163 144.684453 
L 171.020517 141.940284 
L 171.432838 134.31759 
L 171.985447 127.304712 
L 172.123735 139.958383 
L 172.262028 140.568199 
L 172.537745 135.232314 
L 172.67642 134.31759 
L 172.813421 132.030782 
L 172.951597 131.725875 
L 173.09056 132.030782 
L 173.228888 127.60962 
L 173.507509 126.694897 
L 174.059993 121.359012 
L 174.197829 120.749196 
L 174.473755 118.309934 
L 174.755708 123.340912 
L 174.894042 123.188458 
L 175.032043 123.493366 
L 175.30855 120.444288 
L 175.584317 117.700119 
L 175.725884 118.309934 
L 176.003387 117.700119 
L 176.141752 118.309934 
L 176.280804 118.15748 
L 176.420111 116.937849 
L 176.559397 114.499192 
L 176.697228 116.480488 
L 176.835036 111.906872 
L 176.974094 111.44951 
L 177.113724 111.601964 
L 177.252267 112.364233 
L 177.391097 118.614842 
L 177.669074 114.041226 
L 177.806805 112.516687 
L 177.944473 112.516687 
L 178.082878 112.821595 
L 178.359194 110.993357 
L 178.496432 111.601964 
L 178.773712 109.315156 
L 178.910726 110.382333 
L 179.047966 109.924972 
L 179.186119 108.857794 
L 179.323672 109.315156 
L 179.462152 109.010248 
L 179.601264 107.790617 
L 179.740792 107.943071 
L 179.879891 107.028348 
L 180.018553 109.315156 
L 180.158993 108.857794 
L 180.297542 109.46761 
L 180.713075 108.552887 
L 180.852462 108.705341 
L 181.129678 107.790617 
L 181.408252 108.552887 
L 181.546679 108.095525 
L 181.68476 108.400433 
L 181.822788 107.790617 
L 181.959868 108.247979 
L 182.23712 107.790617 
L 182.377004 107.48571 
L 182.515016 107.790617 
L 182.653425 107.028348 
L 182.930278 111.754418 
L 183.207416 111.297056 
L 183.345222 111.754418 
L 183.62423 107.180802 
L 184.177195 106.418533 
L 184.314769 105.198902 
L 184.454928 105.351356 
L 184.731296 104.584857 
L 185.144849 101.844917 
L 185.282307 101.692463 
L 185.557241 99.558109 
L 185.694326 99.710562 
L 185.968471 96.509031 
L 186.381303 92.545231 
L 186.518811 95.136946 
L 186.656218 94.679585 
L 186.7938 92.392777 
L 186.931413 92.087869 
L 187.068447 91.478054 
L 187.205624 92.240323 
L 187.342698 92.08364 
L 187.618402 91.3256 
L 187.756575 90.868238 
L 187.89447 91.630507 
L 188.168909 86.294622 
L 188.306189 91.020692 
L 188.443415 90.258423 
L 188.580459 86.59953 
L 188.718722 86.59953 
L 188.856628 89.038792 
L 188.994326 85.379899 
L 189.131755 85.074991 
L 189.407335 84.160268 
L 189.545138 84.160268 
L 189.68219 83.397999 
L 189.956712 77.452298 
L 190.094867 81.721006 
L 190.232381 82.483275 
L 190.507714 76.537575 
L 190.783727 75.013036 
L 190.921164 74.708128 
L 191.195186 75.927759 
L 191.471292 72.268866 
L 191.747402 66.170712 
L 192.023347 70.744328 
L 192.297856 62.664273 
L 193.262486 56.413664 
L 193.538146 50.467963 
L 193.675317 52.602317 
L 193.812904 69.219789 
L 194.101591 350.649628 
L 194.243248 178.222894 
L 194.381299 166.790264 
L 194.796492 161.454379 
L 195.62687 147.276169 
L 195.902739 144.989361 
L 196.314435 139.80593 
L 196.451945 142.550099 
L 196.86658 136.604398 
L 197.142858 133.707775 
L 197.696075 126.840705 
L 197.835247 126.085081 
L 198.24923 121.816373 
L 198.801583 116.328034 
L 198.938986 117.090303 
L 199.216577 115.413311 
L 199.496222 112.821595 
L 199.909653 109.924972 
L 200.603855 105.503809 
L 200.741188 105.351356 
L 200.880636 104.74154 
L 201.018228 104.893994 
L 201.29309 101.540009 
L 201.56715 100.320378 
L 201.704197 100.472832 
L 201.841925 98.948293 
L 201.97932 98.795839 
L 202.254414 98.03357 
L 202.391781 96.966393 
L 202.529039 96.966393 
L 202.803655 95.2894 
L 202.941139 94.984493 
L 203.222546 93.612408 
L 203.360162 94.222223 
L 203.772271 92.392777 
L 203.909429 92.850138 
L 204.459648 90.868238 
L 204.59709 91.020692 
L 204.734591 91.782961 
L 204.871707 90.868238 
L 205.009112 90.715784 
L 205.146224 90.868238 
L 205.420333 90.410877 
L 205.557297 90.410877 
L 205.695107 89.64901 
L 205.832381 90.105969 
L 205.970397 89.953515 
L 206.108294 89.496153 
L 206.245624 91.630507 
L 206.384044 91.173146 
L 206.797637 88.733884 
L 206.936066 88.124069 
L 207.077544 89.038792 
L 207.492758 89.496153 
L 207.768567 88.733884 
L 207.906549 87.209345 
L 208.044566 87.209345 
L 208.182095 88.733884 
L 208.597169 86.904438 
L 208.736537 87.666707 
L 208.873699 87.209345 
L 209.011968 86.143175 
L 209.288041 86.904438 
L 209.426503 85.684807 
L 209.564557 85.684807 
L 209.703641 85.514731 
L 209.980473 84.61763 
L 210.118559 84.007814 
L 210.256976 84.61763 
L 210.534769 83.093091 
L 210.673615 82.788183 
L 210.811418 81.721006 
L 210.949594 82.025914 
L 211.087018 81.568552 
L 211.22464 80.196467 
L 211.366274 80.653829 
L 211.782459 76.994936 
L 211.921876 76.842482 
L 212.887557 66.780527 
L 213.162742 69.524697 
L 213.575741 65.103535 
L 213.713439 65.560896 
L 214.264732 64.036357 
L 214.40209 64.188811 
L 214.539448 64.036357 
L 214.67679 62.359365 
L 214.818258 59.157834 
L 214.956634 59.00538 
L 215.093849 62.664273 
L 215.506744 56.413664 
L 215.781579 56.108756 
L 215.919169 55.194033 
L 216.057202 53.510395 
L 216.195089 53.357941 
L 216.60962 51.230233 
L 216.747254 51.230233 
L 216.884921 51.53514 
L 217.026077 110.003112 
L 217.310614 329.45854 
L 217.448888 161.301925 
L 219.239004 133.097959 
L 219.376692 132.945505 
L 219.514017 134.622498 
L 220.341454 123.340912 
L 220.752503 118.614842 
L 220.889492 118.15748 
L 221.164084 114.499192 
L 221.440618 112.21178 
L 221.991608 106.266079 
L 222.130061 107.633934 
L 222.40434 104.436632 
L 222.816945 101.235101 
L 222.954088 100.472832 
L 223.230487 97.271301 
L 223.368951 97.728662 
L 223.506105 99.253201 
L 223.782179 95.441854 
L 223.92052 93.150817 
L 224.195909 93.154845 
L 224.472119 89.953515 
L 224.610871 90.105969 
L 224.887913 87.967385 
L 225.025674 88.276522 
L 225.164431 88.124069 
L 225.441262 85.837261 
L 225.580601 85.379899 
L 225.71919 85.837261 
L 225.857737 85.532353 
L 226.134889 83.702906 
L 226.274805 83.85536 
L 226.413206 82.330822 
L 226.553008 83.093091 
L 226.830788 81.568552 
L 226.969912 82.025914 
L 227.244687 80.958737 
L 227.38255 81.111191 
L 227.794791 79.434198 
L 227.933006 80.044014 
L 228.070955 79.89156 
L 228.2081 81.568552 
L 228.48729 79.12929 
L 228.627369 77.909659 
L 228.765579 78.214567 
L 228.904873 77.757206 
L 229.044153 77.909659 
L 229.322885 77.14739 
L 229.460565 77.604752 
L 229.874611 76.994936 
L 230.013516 77.452298 
L 230.151257 76.842482 
L 230.292007 77.452298 
L 230.429992 76.994936 
L 230.567784 77.909659 
L 230.705753 77.757206 
L 230.989022 76.385121 
L 231.127017 76.690028 
L 231.402923 76.080213 
L 231.541363 75.775305 
L 231.679308 76.232667 
L 231.954169 75.317944 
L 232.092638 75.775305 
L 232.230688 76.842482 
L 232.369114 76.232667 
L 232.506629 75.013036 
L 232.644001 75.622851 
L 232.782404 75.317944 
L 233.058834 74.098313 
L 233.19695 74.40322 
L 233.335089 74.098313 
L 233.473067 74.40322 
L 233.610914 73.18359 
L 233.748985 73.945859 
L 234.16323 72.42132 
L 234.300289 72.268866 
L 234.716386 69.982058 
L 234.855304 70.896782 
L 235.131417 68.45752 
L 235.269419 67.542796 
L 235.407329 67.390343 
L 235.961097 64.493719 
L 236.375089 59.462741 
L 236.512993 59.157834 
L 236.925156 54.584218 
L 237.200039 50.620417 
L 237.337308 51.230233 
L 237.475533 54.584218 
L 237.613472 135.45888 
L 237.889356 314.518061 
L 238.027297 161.91174 
L 239.133605 142.245191 
L 239.409464 138.433845 
L 239.9631 130.963605 
L 240.101486 132.33569 
L 241.070482 119.986927 
L 242.593153 103.826817 
L 242.731489 103.826817 
L 243.00688 101.235101 
L 243.145274 102.149824 
L 243.283708 99.100747 
L 243.421284 100.01547 
L 243.971465 93.459954 
L 244.1095 93.154845 
L 244.246847 92.087869 
L 244.384887 92.240323 
L 244.660874 89.343699 
L 244.798445 88.58143 
L 244.935638 88.58143 
L 245.34967 85.684807 
L 245.487783 85.989714 
L 245.624998 84.312722 
L 245.763611 84.312722 
L 246.039691 82.788183 
L 246.17751 82.483275 
L 246.453642 80.653829 
L 246.591755 81.263644 
L 246.729666 80.196467 
L 246.867978 80.044014 
L 247.005974 79.434198 
L 247.143926 78.214567 
L 247.281762 78.976836 
L 247.421284 78.824383 
L 247.558572 77.452298 
L 247.696769 78.214567 
L 247.97356 76.994936 
L 248.112097 77.299844 
L 248.388125 76.537575 
L 248.526073 78.976836 
L 248.665397 76.690028 
L 248.803792 77.434676 
L 249.077943 75.013036 
L 249.21485 74.708128 
L 249.353327 74.708128 
L 249.491747 74.555674 
L 249.630983 74.098313 
L 249.767988 74.860582 
L 249.905369 73.945859 
L 250.044235 70.286966 
L 250.18183 74.098313 
L 250.456712 73.640951 
L 250.593962 74.098313 
L 250.731493 73.336043 
L 250.869024 74.250767 
L 251.006057 73.793405 
L 251.143263 74.40322 
L 251.281326 74.40322 
L 251.831729 72.573774 
L 251.970578 72.878682 
L 252.108862 72.573774 
L 252.383878 73.031136 
L 252.521422 72.268866 
L 252.659821 73.336043 
L 252.797212 73.031136 
L 252.934882 73.488497 
L 253.072608 72.726228 
L 253.210301 72.878682 
L 253.34848 72.268866 
L 253.486983 73.336043 
L 253.76354 72.573774 
L 253.902664 71.506597 
L 254.042266 71.354143 
L 254.180006 71.963959 
L 254.31961 71.506597 
L 254.595737 70.286966 
L 254.872358 68.914881 
L 255.149649 69.829604 
L 255.575204 67.085435 
L 255.714738 67.69525 
L 255.856849 66.628073 
L 255.996605 66.475619 
L 256.134154 66.018258 
L 256.411192 64.188811 
L 256.832266 61.444642 
L 256.970823 61.749549 
L 257.38452 57.175933 
L 257.521704 56.566118 
L 257.797724 53.517041 
L 257.93634 52.449864 
L 258.073917 50.163056 
L 258.212664 51.53514 
L 258.351328 62.738385 
L 258.641968 351.716805 
L 258.779248 160.844563 
L 259.194849 152.916962 
L 259.336267 151.392423 
L 259.751097 144.531999 
L 260.579607 130.963605 
L 260.854916 127.914528 
L 260.996582 128.066982 
L 261.135585 127.152259 
L 261.411175 122.578643 
L 261.549762 121.663919 
L 261.826867 117.242757 
L 261.964376 116.632942 
L 262.517198 109.620064 
L 262.933228 105.808717 
L 263.488232 99.863016 
L 263.627582 100.01547 
L 263.765283 99.405655 
L 264.17859 95.441854 
L 264.59287 92.240323 
L 264.730191 91.782961 
L 264.868598 89.953515 
L 265.006791 89.801061 
L 265.559981 85.379899 
L 265.697469 85.532353 
L 265.973674 84.160268 
L 266.111503 83.702906 
L 266.387404 81.416098 
L 266.663429 80.958737 
L 267.078827 78.062113 
L 267.216196 78.519475 
L 267.628914 75.775305 
L 267.766842 76.690028 
L 268.041896 74.860582 
L 268.17936 75.622851 
L 268.456275 74.40322 
L 268.731289 73.336043 
L 268.868792 73.640951 
L 269.144007 73.031136 
L 269.281219 72.42132 
L 269.418575 72.878682 
L 269.831188 72.268866 
L 269.96834 71.810498 
L 270.105534 70.744328 
L 270.379613 71.506597 
L 270.516655 70.591874 
L 270.654634 70.591874 
L 270.792342 71.049235 
L 271.070633 70.134512 
L 271.208456 70.744328 
L 271.345736 69.524697 
L 271.483262 70.591874 
L 271.620999 69.829604 
L 271.896099 70.896782 
L 272.034447 70.744328 
L 272.309197 69.829604 
L 272.447544 68.914881 
L 272.584816 69.982058 
L 272.72204 69.982058 
L 272.997767 69.524697 
L 273.275113 69.067335 
L 273.412694 69.372243 
L 273.550655 69.372243 
L 273.827026 68.304663 
L 274.104913 68.304663 
L 274.244894 67.542796 
L 274.382622 67.542796 
L 274.520739 67.390343 
L 274.658465 67.847704 
L 274.798256 66.780527 
L 274.936689 66.932981 
L 275.074616 66.170712 
L 275.351303 66.475619 
L 275.627303 64.493719 
L 276.045174 63.883904 
L 276.595239 60.98728 
L 276.733069 61.139734 
L 277.288989 56.989042 
L 277.428367 57.141495 
L 277.566887 55.769411 
L 277.704612 53.212133 
L 277.842149 52.907225 
L 278.11692 50.925325 
L 278.255795 50.585979 
L 278.397796 124.905125 
L 278.542778 278.308153 
L 278.680481 296.680959 
L 278.818115 155.813586 
L 278.955527 154.289047 
L 279.643528 141.635376 
L 280.744907 124.983466 
L 280.882452 123.306474 
L 281.02025 124.560543 
L 281.157947 124.408089 
L 281.433249 118.91975 
L 281.571496 118.005027 
L 281.847434 114.19368 
L 282.122381 113.126503 
L 282.400458 107.790617 
L 283.646092 95.899216 
L 283.78486 96.05167 
L 283.923462 95.2894 
L 284.199564 92.689226 
L 284.336945 92.087869 
L 284.61226 89.64901 
L 286.270679 79.281744 
L 286.408244 79.739106 
L 286.546247 77.757206 
L 286.683749 78.214567 
L 286.821055 78.062113 
L 286.958473 77.14739 
L 287.09597 77.452298 
L 287.370866 75.470398 
L 287.509223 79.89156 
L 287.646861 75.013036 
L 288.062054 73.928237 
L 288.199427 73.031136 
L 288.336974 73.18359 
L 288.474453 72.268866 
L 288.611971 72.42132 
L 289.024292 70.435191 
L 289.162176 71.045006 
L 289.299944 70.43942 
L 289.437682 70.591874 
L 289.575284 69.982058 
L 289.712841 69.982058 
L 289.85023 69.677151 
L 289.987501 68.45752 
L 290.125014 69.219789 
L 290.26256 69.219789 
L 290.399866 68.914881 
L 290.537507 69.067335 
L 290.812316 68.304663 
L 290.949653 69.067335 
L 291.086979 68.304663 
L 291.361723 68.45752 
L 291.635861 68.152612 
L 291.774882 69.067335 
L 291.914098 69.067335 
L 292.054785 68.304663 
L 292.192379 68.304663 
L 292.329898 67.847704 
L 292.467488 69.524697 
L 292.606185 67.390343 
L 292.743881 67.237889 
L 292.881705 68.914881 
L 293.019493 67.085435 
L 293.294103 67.69525 
L 293.431256 66.780527 
L 293.568306 67.085435 
L 293.70528 66.932981 
L 293.98079 65.560896 
L 294.118368 65.71335 
L 294.255857 65.255988 
L 294.532198 65.255988 
L 294.669595 64.493719 
L 294.807047 65.255988 
L 295.082426 63.121634 
L 295.219902 63.883904 
L 295.49571 63.121634 
L 295.633925 61.902003 
L 296.047387 61.597096 
L 296.32376 59.920103 
L 296.461666 58.243111 
L 296.599371 58.395564 
L 296.737102 56.718572 
L 296.875074 56.714343 
L 297.287647 53.517041 
L 297.424961 51.230233 
L 297.83728 50.620417 
L 298.118894 330.451404 
L 298.397331 157.18567 
L 299.223164 143.159915 
L 300.185131 128.524343 
L 300.322319 129.59152 
L 301.701129 111.297056 
L 302.668503 101.082647 
L 302.807123 104.284178 
L 302.945011 99.253201 
L 303.083206 99.253201 
L 303.3602 94.984493 
L 303.912455 91.020692 
L 304.050682 90.410877 
L 304.603038 86.447076 
L 305.433181 80.653829 
L 306.124441 77.452298 
L 306.26202 76.232667 
L 306.400044 76.080213 
L 306.538114 75.317944 
L 306.67643 75.317944 
L 306.814436 75.927759 
L 306.95252 74.250767 
L 307.090451 74.860582 
L 307.228437 73.18359 
L 307.366897 72.878682 
L 307.505072 72.116412 
L 307.643176 72.268866 
L 307.781135 71.963959 
L 307.919361 74.555674 
L 308.057491 71.201689 
L 308.195817 70.896782 
L 308.334197 69.982058 
L 308.47166 69.829604 
L 308.60926 70.744328 
L 308.748144 69.067335 
L 308.886319 69.372243 
L 309.162808 69.372243 
L 309.301156 69.067335 
L 309.58266 67.69525 
L 309.720819 68.304663 
L 309.859073 68.000158 
L 309.997549 68.304663 
L 310.13594 67.237889 
L 310.274162 67.237889 
L 310.41238 67.085435 
L 310.6885 66.475619 
L 310.826816 66.628073 
L 310.965023 66.323165 
L 311.103279 67.085435 
L 311.240943 67.085435 
L 311.379725 66.780527 
L 311.655994 67.085435 
L 311.794089 66.323165 
L 311.932264 66.323165 
L 312.070869 68.762427 
L 312.487569 65.560896 
L 312.628738 65.560896 
L 312.769869 66.018258 
L 312.910577 65.560896 
L 313.051386 66.323165 
L 313.327631 65.865804 
L 313.465766 65.103535 
L 313.603898 65.560896 
L 313.741912 65.408442 
L 313.880086 64.646173 
L 314.017921 65.408442 
L 314.156446 64.798828 
L 314.506914 64.646173 
L 314.644709 64.188811 
L 314.781727 63.274088 
L 314.919114 63.274088 
L 315.056429 62.96918 
L 315.194795 62.206911 
L 315.332826 62.96918 
L 315.608547 61.444642 
L 315.883046 60.529919 
L 316.020825 60.682372 
L 316.158582 79.12929 
L 316.296209 59.462741 
L 316.710694 57.633295 
L 316.848052 57.175933 
L 317.123273 54.736672 
L 317.260888 53.974402 
L 317.398264 52.144956 
L 317.535685 51.992502 
L 317.672945 51.077779 
L 317.812977 51.53514 
L 317.950861 88.202209 
L 318.237766 343.484296 
L 318.374976 157.033217 
L 318.511945 155.508678 
L 319.200355 142.855208 
L 319.477664 138.891206 
L 319.891312 132.183236 
L 320.167912 129.134159 
L 320.305482 129.134159 
L 320.995954 118.91975 
L 322.243537 103.674363 
L 322.656654 100.166514 
L 323.20977 94.980263 
L 323.347571 94.527131 
L 323.485069 92.545231 
L 323.627092 94.832039 
L 323.765412 91.3256 
L 323.903285 92.240323 
L 324.179399 87.209345 
L 324.868379 82.178368 
L 325.006642 82.025914 
L 325.977906 76.994936 
L 326.116615 76.994936 
L 326.25461 76.080213 
L 326.392699 74.250767 
L 326.530946 75.470398 
L 326.946004 72.42132 
L 327.084615 72.556152 
L 327.499336 70.286966 
L 327.638291 70.896782 
L 327.7766 69.524697 
L 327.915216 69.677151 
L 328.329771 68.45752 
L 328.470076 68.762427 
L 328.746582 66.932981 
L 328.885353 67.085435 
L 329.024308 66.780527 
L 329.162463 67.390343 
L 329.576616 65.865804 
L 329.71437 66.628073 
L 329.851536 65.71335 
L 329.988679 66.018258 
L 330.127702 65.103535 
L 330.26502 65.560896 
L 330.402509 64.798828 
L 330.539685 65.408442 
L 330.953645 64.798828 
L 331.090793 64.951081 
L 331.227655 64.188811 
L 331.365128 65.71335 
L 331.777187 65.255988 
L 331.914507 64.036357 
L 332.0516 63.883904 
L 332.189454 63.274088 
L 332.32693 64.036357 
L 332.738702 62.96918 
L 332.875544 63.274088 
L 333.012519 63.274088 
L 333.150228 62.359365 
L 333.290789 64.951081 
L 333.70334 62.816727 
L 333.840164 61.902003 
L 333.977299 62.511819 
L 334.115513 60.834826 
L 334.253343 60.983655 
L 334.390449 60.373235 
L 334.527411 61.292993 
L 334.66596 59.767649 
L 335.079032 59.157834 
L 335.217463 58.852926 
L 335.492423 57.175933 
L 335.629305 57.328387 
L 336.042294 53.821948 
L 336.179425 53.974402 
L 336.590171 51.53514 
L 336.72696 50.925325 
L 336.864816 51.226003 
L 337.138334 325.49474 
L 337.428453 147.733531 
L 337.565711 151.544877 
L 338.667673 133.097959 
L 339.223177 123.950727 
L 339.497737 120.444288 
L 339.635205 120.749196 
L 340.461217 110.229879 
L 341.839093 95.441854 
L 341.977173 94.984493 
L 342.115351 96.05167 
L 342.253314 92.240323 
L 342.391221 91.782961 
L 342.944495 87.819161 
L 343.082704 87.361799 
L 343.359393 84.922537 
L 344.050921 79.586652 
L 344.189149 79.739106 
L 344.327137 78.062113 
L 344.465292 78.062113 
L 344.742255 75.622851 
L 344.880462 75.16549 
L 345.018612 74.098313 
L 345.157733 74.098313 
L 345.295722 74.708128 
L 345.98736 71.049235 
L 346.401914 70.286966 
L 346.542284 70.286966 
L 347.096113 67.390343 
L 347.234167 67.085435 
L 347.372022 68.152612 
L 347.509309 67.085435 
L 347.647679 69.982058 
L 347.925262 65.71335 
L 348.202677 66.628073 
L 348.340912 64.951081 
L 348.479001 66.018258 
L 348.618531 65.71335 
L 348.75794 65.71335 
L 348.895426 64.798828 
L 349.033019 65.103535 
L 349.171261 64.646173 
L 349.309037 64.798828 
L 349.446484 64.036357 
L 349.583931 64.646173 
L 349.859179 63.426542 
L 349.99647 64.188811 
L 350.271086 63.73145 
L 350.41016 64.951081 
L 350.548264 64.951081 
L 350.686203 64.493719 
L 350.823764 64.493719 
L 351.098911 62.206911 
L 351.236176 61.749549 
L 351.373795 61.902003 
L 351.511285 61.597096 
L 351.648696 61.902003 
L 351.786283 61.597096 
L 351.923866 61.597096 
L 352.061372 60.377465 
L 352.198666 60.682372 
L 352.336034 60.529919 
L 352.473458 60.072557 
L 352.610936 60.377465 
L 352.748044 59.767649 
L 352.885681 63.73145 
L 353.028867 59.462741 
L 353.167322 59.00538 
L 353.304867 57.938203 
L 353.442436 58.395564 
L 353.581014 58.243111 
L 353.857373 55.498941 
L 353.994594 56.26121 
L 354.131875 55.803849 
L 354.407871 53.517041 
L 354.820877 51.382686 
L 354.963655 51.382686 
L 355.101635 51.077779 
L 355.382876 297.748136 
L 355.520295 282.502749 
L 355.658051 156.270947 
L 355.932613 150.4777 
L 356.75859 135.689675 
L 357.312601 126.999805 
L 357.587574 123.493366 
L 357.725106 123.036004 
L 358.001002 119.834473 
L 358.69033 110.839695 
L 358.82718 109.924972 
L 359.23949 104.893994 
L 359.793443 98.643385 
L 360.070215 96.509031 
L 360.484215 93.459954 
L 361.174333 87.819161 
L 361.313469 88.886338 
L 361.726094 84.160268 
L 361.8635 83.550452 
L 362.00151 81.111191 
L 362.14071 81.263644 
L 362.41834 79.434198 
L 362.555357 77.604752 
L 362.693269 77.757206 
L 363.243446 73.945859 
L 363.381409 75.013036 
L 363.658114 72.726228 
L 363.796192 72.726228 
L 363.934144 71.659051 
L 364.07232 71.810498 
L 364.210602 70.896782 
L 364.348986 71.354143 
L 364.487268 70.134512 
L 364.625226 70.591874 
L 364.762795 69.067335 
L 364.900098 69.219789 
L 365.03826 68.914881 
L 365.176751 68.152612 
L 365.314345 68.304663 
L 365.452619 67.847704 
L 365.590107 66.932981 
L 365.728353 66.776298 
L 365.86609 62.50759 
L 366.004948 65.865804 
L 366.282265 65.695728 
L 366.420709 69.067335 
L 366.557995 67.085435 
L 366.695367 67.390343 
L 366.832501 67.237889 
L 367.24595 64.036357 
L 367.387052 64.951081 
L 367.525233 63.883904 
L 367.662687 64.798828 
L 367.800271 63.426542 
L 367.93713 63.73145 
L 368.213354 62.96918 
L 368.350379 63.578996 
L 368.487945 62.96918 
L 368.763636 64.646173 
L 368.901676 64.188811 
L 369.039529 64.341265 
L 369.313892 62.359365 
L 369.727642 63.121634 
L 369.865723 62.816727 
L 370.004648 63.274088 
L 370.281455 61.749549 
L 370.419159 62.054457 
L 370.55668 62.054457 
L 370.694806 61.292993 
L 370.833039 62.359365 
L 370.970851 62.206911 
L 371.10925 61.597096 
L 371.248181 63.121634 
L 371.387708 62.359365 
L 371.52602 62.816727 
L 371.664313 61.440412 
L 371.802943 61.902003 
L 372.078771 59.615195 
L 372.21714 59.462741 
L 372.768927 57.02348 
L 372.907673 58.090657 
L 373.045993 56.871026 
L 373.184098 57.02348 
L 373.460652 54.431764 
L 374.016029 52.144956 
L 374.154918 50.772871 
L 374.433307 51.530911 
L 374.719067 317.262231 
L 375.132544 151.697331 
L 376.515606 127.914528 
L 377.210677 121.206558 
L 377.76394 112.364233 
L 377.902298 111.601964 
L 378.592051 103.369455 
L 378.730426 103.217001 
L 379.006197 98.795839 
L 379.144248 98.643385 
L 379.282252 96.356577 
L 379.420729 96.509031 
L 379.974327 90.56333 
L 380.250779 87.971615 
L 380.389211 87.819161 
L 381.220248 81.111191 
L 381.357347 80.653829 
L 381.769671 77.299844 
L 381.907145 77.604752 
L 382.182418 75.317944 
L 382.320365 74.555674 
L 382.595379 74.860582 
L 382.73327 73.18359 
L 382.870544 73.031136 
L 383.008416 71.810498 
L 383.146115 71.659051 
L 383.695387 69.219789 
L 383.970505 68.45752 
L 384.245287 67.237889 
L 384.384428 67.69525 
L 384.52192 67.085435 
L 384.659409 67.237889 
L 384.797546 65.560896 
L 384.935401 66.170712 
L 385.348595 64.493719 
L 385.485953 65.103535 
L 385.62381 63.883904 
L 385.762038 64.646173 
L 386.590181 62.96918 
L 386.728094 62.96918 
L 386.866809 59.767649 
L 387.004497 63.121634 
L 387.28129 62.054457 
L 387.418517 62.816727 
L 387.556219 62.359365 
L 387.693567 62.664273 
L 387.831796 62.511819 
L 388.112615 63.121634 
L 388.253413 63.121634 
L 388.530278 61.749549 
L 388.668201 61.292993 
L 388.806351 61.444642 
L 388.944547 62.664273 
L 389.083018 61.139734 
L 389.221553 60.98728 
L 389.503673 61.902003 
L 389.641542 61.902003 
L 389.779701 60.682372 
L 390.054753 61.597096 
L 390.329635 60.072557 
L 390.467079 60.377465 
L 390.605227 59.920103 
L 390.74342 60.072557 
L 391.019246 59.310288 
L 391.1574 59.462741 
L 391.295591 58.852926 
L 391.433572 59.157834 
L 391.571526 57.938203 
L 391.709727 57.938203 
L 391.985268 57.02348 
L 392.123176 57.633295 
L 392.261406 57.02348 
L 392.39937 57.02348 
L 392.537689 56.26121 
L 392.81381 58.700472 
L 392.951834 55.498941 
L 393.089732 57.633295 
L 393.227655 54.736672 
L 393.36555 55.194033 
L 393.641707 52.29741 
L 393.780434 51.840048 
L 393.918766 59.46838 
L 394.207157 352.174167 
L 394.345063 167.095172 
L 394.620617 151.697331 
L 394.895957 147.885984 
L 395.863611 130.506244 
L 396.002096 129.59152 
L 396.278153 125.322812 
L 396.416279 125.170358 
L 396.830088 118.462388 
L 396.967625 117.395211 
L 397.658077 108.247979 
L 399.033219 93.612408 
L 399.309055 91.173146 
L 401.099932 77.909659 
L 401.788366 73.945859 
L 401.926379 72.573774 
L 402.064463 72.726228 
L 402.202496 72.42132 
L 403.306154 67.69525 
L 403.443669 67.542796 
L 403.580931 66.780527 
L 403.718076 66.932981 
L 403.857053 65.71335 
L 403.998425 66.628073 
L 404.136115 66.628073 
L 404.412049 64.188811 
L 404.54997 64.341265 
L 404.68805 63.883904 
L 404.825981 64.188811 
L 405.239959 62.646651 
L 405.378136 63.104012 
L 405.653992 62.054457 
L 405.791897 62.664273 
L 405.929773 62.511819 
L 406.06777 62.816727 
L 406.343668 61.902003 
L 406.482016 61.749549 
L 406.76058 60.834826 
L 407.03855 60.98728 
L 407.17658 60.834826 
L 407.314701 60.225011 
L 407.589612 62.054457 
L 407.728822 61.139734 
L 407.866178 61.444642 
L 408.27971 59.458512 
L 408.417857 60.072557 
L 408.557213 62.206911 
L 408.833243 60.682372 
L 408.971256 60.678143 
L 409.108928 60.220782 
L 409.246388 60.98728 
L 409.660486 59.615195 
L 409.798643 60.072557 
L 409.936868 60.072557 
L 410.074902 59.310288 
L 410.213036 59.767649 
L 410.492603 58.852926 
L 410.629836 58.548018 
L 410.767881 58.852926 
L 410.905797 58.243111 
L 411.043739 58.395564 
L 411.181329 57.328387 
L 411.456727 57.938203 
L 412.008511 55.956303 
L 412.146399 55.803849 
L 412.284345 54.889125 
L 412.42226 55.498941 
L 412.698186 52.754771 
L 412.836207 53.212133 
L 412.975463 51.840048 
L 413.113913 51.840048 
L 413.389942 51.077779 
L 413.529789 111.001815 
L 413.819964 314.518061 
L 413.965598 155.356224 
L 414.251136 145.904084 
L 414.389982 147.276169 
L 415.088783 134.774952 
L 416.058095 119.377111 
L 416.196988 120.291835 
L 416.88655 110.687241 
L 417.023788 109.924972 
L 417.437948 104.589086 
L 418.825859 90.258423 
L 418.963758 89.801061 
L 419.241485 87.514253 
L 419.379305 88.733884 
L 419.66863 83.702906 
L 420.35641 78.207921 
L 420.494173 78.360375 
L 420.768917 76.232667 
L 421.04414 74.555674 
L 421.181995 73.18359 
L 421.319003 73.031136 
L 422.005639 69.372243 
L 422.143598 69.524697 
L 422.2807 69.219789 
L 422.828357 66.628073 
L 422.965373 66.323165 
L 423.23959 64.951081 
L 423.378425 65.408442 
L 423.790258 62.96918 
L 424.064921 63.274088 
L 424.339117 61.902003 
L 424.476273 62.511819 
L 424.752398 60.98728 
L 424.889487 63.121634 
L 425.026393 62.511819 
L 425.163348 62.664273 
L 425.438673 60.98728 
L 425.576357 62.664273 
L 425.714464 60.529919 
L 426.128034 59.920103 
L 426.265484 60.072557 
L 426.403976 60.072557 
L 426.541541 59.310288 
L 426.67911 60.529919 
L 426.815934 59.00538 
L 427.089964 60.225011 
L 427.227015 60.225011 
L 427.364995 59.615195 
L 427.639931 57.480841 
L 427.776889 58.243111 
L 428.052698 57.480841 
L 428.189817 56.871026 
L 428.465799 57.480841 
L 428.606119 56.566118 
L 428.743543 57.175933 
L 429.017658 56.108756 
L 429.154532 56.26121 
L 429.291415 54.889125 
L 429.428315 55.194033 
L 429.702118 54.126856 
L 429.83893 54.736672 
L 429.976259 54.126856 
L 430.250438 52.449864 
L 430.38735 52.144956 
L 430.525753 52.449864 
L 430.664253 50.925325 
L 430.801457 50.925325 
L 430.939396 51.687594 
L 431.216432 340.740127 
L 431.491099 153.984139 
L 432.177166 142.550099 
L 432.451055 137.214214 
L 432.589629 136.147037 
L 433.142287 125.62772 
L 433.416517 123.950727 
L 433.830407 117.852573 
L 434.106535 114.346134 
L 434.243481 129.134159 
L 434.3803 110.534787 
L 435.615496 96.356577 
L 435.752758 95.441854 
L 436.027443 92.697685 
L 436.301579 90.410877 
L 436.579453 87.514253 
L 436.720299 87.209345 
L 437.824591 78.214567 
L 437.961997 77.909659 
L 438.51108 73.793405 
L 438.650952 75.927759 
L 439.066601 71.506597 
L 439.756654 69.219789 
L 439.895187 67.69525 
L 440.032234 68.152612 
L 440.169457 66.932981 
L 440.306813 66.932981 
L 440.445584 66.628073 
L 440.720191 64.798828 
L 440.857887 64.798828 
L 441.411918 62.816727 
L 441.549286 63.274088 
L 441.687936 62.816727 
L 441.826447 61.902003 
L 441.963935 62.206911 
L 442.101299 61.292993 
L 442.516091 60.98728 
L 442.653578 61.749549 
L 442.92918 60.529919 
L 443.067289 60.98728 
L 443.204734 59.920103 
L 443.342133 60.834826 
L 443.619351 61.292993 
L 443.89483 60.377465 
L 444.032254 59.310288 
L 444.169535 60.072557 
L 444.446778 59.44512 
L 444.722159 60.682372 
L 445.13644 58.090657 
L 445.412087 59.00538 
L 445.552572 59.157834 
L 445.690222 58.700472 
L 445.827884 59.615195 
L 446.102309 58.700472 
L 446.377397 58.391335 
L 446.65369 59.00538 
L 446.793305 58.852926 
L 447.072773 57.938203 
L 447.211634 58.852926 
L 447.488483 58.243111 
L 447.627956 57.480841 
L 447.905813 57.480841 
L 448.044411 59.00538 
L 448.18343 58.852926 
L 448.736098 55.346487 
L 449.013408 56.714343 
L 449.289332 55.346487 
L 449.426774 55.498941 
L 449.56552 54.736672 
L 449.70357 55.041579 
L 449.8421 55.651395 
L 449.979972 55.194033 
L 450.118815 55.194033 
L 450.256579 54.126856 
L 450.394029 54.88248 
L 450.531904 54.88248 
L 450.670147 53.974402 
L 450.80806 53.967756 
L 450.946293 54.126856 
L 451.361181 51.680948 
L 451.499855 52.290764 
L 451.915098 50.535631 
L 452.054088 50.992993 
L 452.34109 335.939743 
L 452.615705 153.069416 
L 454.553167 120.749196 
L 456.627025 96.813939 
L 456.902607 94.069769 
L 457.454859 88.58143 
L 457.593643 87.819161 
L 457.731675 86.143175 
L 457.87046 85.989714 
L 458.147649 83.245545 
L 458.428264 80.348921 
L 458.566878 79.89156 
L 459.258543 75.317944 
L 459.397353 74.708128 
L 459.674656 72.878682 
L 459.952054 71.506597 
L 460.228411 69.372243 
L 460.3667 69.829604 
L 460.504969 68.152612 
L 460.643469 68.45752 
L 460.920801 67.085435 
L 461.058287 67.390343 
L 461.333563 65.408442 
L 461.471242 65.103535 
L 461.609512 63.883904 
L 461.7477 64.341265 
L 461.887157 64.341265 
L 462.025507 62.96918 
L 462.164425 62.816727 
L 462.304251 61.902003 
L 462.441827 62.359365 
L 462.579765 62.206911 
L 462.718007 60.682372 
L 462.855457 61.292993 
L 462.993924 60.225011 
L 463.133115 60.98728 
L 463.270747 59.767649 
L 463.410162 59.767649 
L 463.549021 59.920103 
L 463.686575 59.00538 
L 463.963988 59.767649 
L 464.102127 59.767649 
L 464.377294 58.395564 
L 464.514782 59.00538 
L 464.790555 58.243111 
L 464.928002 57.787159 
L 465.065189 57.787159 
L 465.202578 58.243111 
L 465.341814 58.243111 
L 465.480334 57.480841 
L 465.755851 58.395564 
L 465.893842 58.227402 
L 466.031121 58.379856 
L 466.168523 57.626649 
L 466.308701 57.626649 
L 466.447658 58.084011 
L 466.58483 57.165058 
L 466.7229 57.165058 
L 466.86048 57.321741 
L 466.998489 57.02348 
L 467.136021 57.168482 
L 467.549105 57.016834 
L 467.825026 56.10211 
L 467.96254 56.711926 
L 468.373861 55.187387 
L 468.511312 55.651395 
L 468.650651 54.730026 
L 468.787797 54.889125 
L 468.925156 53.815302 
L 469.063295 53.967756 
L 469.2019 53.815302 
L 469.340847 54.12021 
L 469.478644 53.357941 
L 469.616732 53.815302 
L 469.754509 52.595671 
L 469.892704 52.748125 
L 470.031397 52.13831 
L 470.169506 50.766225 
L 470.308363 51.382686 
L 470.446431 50.766225 
L 470.588805 131.414321 
L 470.730431 289.515627 
L 470.868887 310.706715 
L 471.006476 153.069416 
L 471.559757 144.379546 
L 473.763395 111.601964 
L 474.038515 108.400433 
L 474.45625 102.607186 
L 474.868989 98.03357 
L 475.560998 91.935415 
L 475.836106 89.64901 
L 475.974768 87.819161 
L 476.111949 88.124069 
L 476.386676 84.312722 
L 476.524529 83.702906 
L 477.078603 78.671929 
L 477.355005 78.214567 
L 477.767394 74.40322 
L 478.042319 72.878682 
L 478.180089 72.573774 
L 478.319867 72.726228 
L 478.457169 71.049235 
L 478.595302 71.201689 
L 478.732727 71.810498 
L 478.869881 71.354143 
L 479.006976 73.031136 
L 479.281472 69.067335 
L 479.419151 69.524697 
L 479.556453 66.018258 
L 479.69449 66.018258 
L 479.970851 65.103535 
L 480.108666 65.103535 
L 480.383282 62.816727 
L 480.520776 63.121634 
L 480.65826 62.206911 
L 480.795926 62.816727 
L 480.933339 61.749549 
L 481.210002 61.292993 
L 481.347506 60.682372 
L 481.48457 60.682372 
L 481.621736 60.834826 
L 481.758956 59.157834 
L 481.896076 60.225011 
L 482.176361 58.700472 
L 482.313648 59.615195 
L 482.450803 59.767649 
L 482.588026 58.848697 
L 482.725674 58.848697 
L 482.86279 58.700472 
L 483.002729 58.090657 
L 483.142734 58.548018 
L 483.418333 57.787159 
L 483.555917 58.530396 
L 483.693468 58.373713 
L 483.831411 57.629066 
L 483.968985 58.090657 
L 484.107309 59.310288 
L 484.245984 58.243111 
L 484.385323 58.236465 
L 484.661836 57.779103 
L 484.799355 58.388918 
L 484.937987 57.168482 
L 485.076099 57.168482 
L 485.214555 57.474195 
L 485.352839 56.86438 
L 485.629308 57.931557 
L 485.767182 57.328387 
L 485.905489 57.931557 
L 486.043957 57.02348 
L 486.182947 57.474195 
L 486.321354 57.474195 
L 486.459907 57.317512 
L 486.736214 56.559472 
L 486.874477 56.711926 
L 487.012638 55.797203 
L 487.149881 55.644749 
L 487.287865 55.956303 
L 487.425392 59.303642 
L 487.56403 58.852926 
L 487.701594 56.10211 
L 487.977209 55.644749 
L 488.114774 54.425118 
L 488.252385 55.187387 
L 488.390241 54.577572 
L 488.665292 53.053033 
L 488.803013 51.992502 
L 488.940909 52.290764 
L 489.216547 51.376041 
L 489.3543 51.376041 
L 489.49212 50.535631 
L 489.76724 325.725334 
L 490.179436 151.23997 
L 490.729605 141.635376 
L 492.102921 119.072204 
L 492.239922 119.072204 
L 492.790157 111.144602 
L 492.927528 110.382333 
L 493.20331 105.808717 
L 493.340938 105.198902 
L 493.894262 97.728662 
L 494.721943 89.801061 
L 494.86071 91.935415 
L 495.000306 90.715784 
L 495.415596 85.227445 
L 495.692464 82.328002 
L 496.107778 79.586652 
L 496.245705 78.519475 
L 496.385129 76.385121 
L 496.524015 76.842482 
L 497.501431 70.134512 
L 497.639256 70.286966 
L 497.916903 68.762427 
L 498.054315 68.762427 
L 498.32941 67.542796 
L 498.467257 66.780527 
L 498.605591 67.085435 
L 499.156543 63.578996 
L 499.294662 63.73145 
L 499.432664 63.426542 
L 499.709085 64.036357 
L 499.847082 62.359365 
L 499.985125 62.054457 
L 500.261108 60.529919 
L 500.399251 61.139734 
L 500.675256 60.377465 
L 500.813251 60.682372 
L 501.090302 59.310288 
L 501.231006 59.615195 
L 501.371678 59.462741 
L 501.509677 59.00538 
L 501.650627 50.315509 
L 501.787979 62.206911 
L 501.925327 61.139734 
L 502.211695 352.174167 
L 502.486658 158.405301 
L 502.903691 153.22187 
L 503.179199 153.069416 
L 503.594047 145.75163 
L 503.870557 143.007461 
L 504.976291 133.860229 
L 505.114248 132.945505 
L 505.252355 131.116059 
L 505.39042 130.811151 
L 505.667489 128.981705 
L 505.942018 127.152259 
L 506.217041 125.62772 
L 506.493057 123.950727 
L 506.906862 121.816373 
L 507.044771 121.663919 
L 507.322157 119.377111 
L 507.598172 118.614842 
L 507.737136 117.547665 
L 507.875577 117.852573 
L 508.152011 116.023126 
L 508.290552 116.17558 
L 508.566618 114.499192 
L 508.704641 114.803495 
L 508.842631 113.888772 
L 509.395071 113.126503 
L 509.534269 112.669141 
L 509.672582 111.754418 
L 509.810535 111.754418 
L 510.085192 111.297056 
L 510.222376 110.993357 
L 510.359762 111.297056 
L 510.772699 109.924972 
L 510.910314 110.382333 
L 511.047645 110.229879 
L 511.184877 109.315156 
L 511.321926 109.315156 
L 511.458931 109.772518 
L 511.595868 109.772518 
L 511.733045 113.126503 
L 512.145588 109.162702 
L 512.28356 109.315156 
L 512.421028 108.857794 
L 512.558249 109.158473 
L 512.695586 107.938842 
L 512.970118 108.857794 
L 513.107568 108.247979 
L 513.244907 109.162702 
L 513.382935 108.247979 
L 513.520225 108.247979 
L 513.658428 113.278957 
L 513.796423 108.705341 
L 513.933695 108.400433 
L 514.070777 108.857794 
L 514.208074 108.247979 
L 514.482715 108.705341 
L 514.621104 109.46761 
L 514.765814 108.552887 
L 514.903345 108.857794 
L 515.040616 108.552887 
L 515.17803 109.010248 
L 515.315236 108.552887 
L 515.452486 109.162702 
L 515.589886 108.552887 
L 515.727094 109.46761 
L 515.86455 108.705341 
L 516.006898 111.144602 
L 516.146179 110.077425 
L 516.284225 111.144602 
L 516.42134 108.095525 
L 516.55835 108.095525 
L 516.697549 109.46761 
L 516.834622 107.790617 
L 516.97182 107.638164 
L 517.109128 107.790617 
L 517.385494 107.180802 
L 517.524628 107.333256 
L 517.799349 106.113625 
L 517.936486 106.72344 
L 518.073788 105.656263 
L 518.211817 105.808717 
L 518.486525 104.893994 
L 518.623961 104.893994 
L 518.761441 103.674363 
L 518.899069 103.674363 
L 519.036414 103.521909 
L 519.311427 101.540009 
L 519.449677 101.692463 
L 519.587535 100.320378 
L 519.725065 100.320378 
L 519.862937 99.253201 
L 520.001825 99.405655 
L 520.279195 96.05167 
L 520.418152 95.746762 
L 520.695583 93.612408 
L 521.387476 86.904438 
L 521.937789 78.824383 
L 522.074794 81.111191 
L 522.074794 81.111191 
" style="fill:none;stroke:#1f77b4;stroke-linecap:square;stroke-width:1.5;"/>
   </g>
   <g id="patch_3">
    <path d="M 130.230156 352.174167 
L 130.230156 35.0625 
" style="fill:none;stroke:#000000;stroke-linecap:square;stroke-linejoin:miter;stroke-width:0.8;"/>
   </g>
   <g id="patch_4">
    <path d="M 540.734062 352.174167 
L 540.734062 35.0625 
" style="fill:none;stroke:#000000;stroke-linecap:square;stroke-linejoin:miter;stroke-width:0.8;"/>
   </g>
   <g id="patch_5">
    <path d="M 130.230156 352.174167 
L 540.734062 352.174167 
" style="fill:none;stroke:#000000;stroke-linecap:square;stroke-linejoin:miter;stroke-width:0.8;"/>
   </g>
   <g id="patch_6">
    <path d="M 130.230156 35.0625 
L 540.734062 35.0625 
" style="fill:none;stroke:#000000;stroke-linecap:square;stroke-linejoin:miter;stroke-width:0.8;"/>
   </g>
   <g id="legend_1">
    <g id="patch_7">
     <path d="M 563.259258 63.938438 
L 627.134258 63.938438 
Q 629.134258 63.938438 629.134258 61.938438 
L 629.134258 37.0625 
Q 629.134258 35.0625 627.134258 35.0625 
L 563.259258 35.0625 
Q 561.259258 35.0625 561.259258 37.0625 
L 561.259258 61.938438 
Q 561.259258 63.938438 563.259258 63.938438 
z
" style="fill:#ffffff;opacity:0.8;stroke:#cccccc;stroke-linejoin:miter;"/>
    </g>
    <g id="line2d_15">
     <path d="M 565.259258 49.799688 
L 585.259258 49.799688 
" style="fill:none;stroke:#1f77b4;stroke-linecap:square;stroke-width:1.5;"/>
    </g>
    <g id="line2d_16"/>
    <g id="text_15">
     <!-- queue -->
     <g transform="translate(593.259258 46.660937)scale(0.1 -0.1)">
      <use xlink:href="#DejaVuSans-113"/>
      <use x="63.476562" xlink:href="#DejaVuSans-117"/>
      <use x="126.855469" xlink:href="#DejaVuSans-101"/>
      <use x="188.378906" xlink:href="#DejaVuSans-117"/>
      <use x="251.757812" xlink:href="#DejaVuSans-101"/>
     </g>
     <!-- length -->
     <defs>
      <path d="M 9.421875 75.984375 
L 18.40625 75.984375 
L 18.40625 0 
L 9.421875 0 
z
" id="DejaVuSans-108"/>
      <path d="M 54.890625 33.015625 
L 54.890625 0 
L 45.90625 0 
L 45.90625 32.71875 
Q 45.90625 40.484375 42.875 44.328125 
Q 39.84375 48.1875 33.796875 48.1875 
Q 26.515625 48.1875 22.3125 43.546875 
Q 18.109375 38.921875 18.109375 30.90625 
L 18.109375 0 
L 9.078125 0 
L 9.078125 54.6875 
L 18.109375 54.6875 
L 18.109375 46.1875 
Q 21.34375 51.125 25.703125 53.5625 
Q 30.078125 56 35.796875 56 
Q 45.21875 56 50.046875 50.171875 
Q 54.890625 44.34375 54.890625 33.015625 
z
" id="DejaVuSans-110"/>
      <path d="M 45.40625 27.984375 
Q 45.40625 37.75 41.375 43.109375 
Q 37.359375 48.484375 30.078125 48.484375 
Q 22.859375 48.484375 18.828125 43.109375 
Q 14.796875 37.75 14.796875 27.984375 
Q 14.796875 18.265625 18.828125 12.890625 
Q 22.859375 7.515625 30.078125 7.515625 
Q 37.359375 7.515625 41.375 12.890625 
Q 45.40625 18.265625 45.40625 27.984375 
z
M 54.390625 6.78125 
Q 54.390625 -7.171875 48.1875 -13.984375 
Q 42 -20.796875 29.203125 -20.796875 
Q 24.46875 -20.796875 20.265625 -20.09375 
Q 16.0625 -19.390625 12.109375 -17.921875 
L 12.109375 -9.1875 
Q 16.0625 -11.328125 19.921875 -12.34375 
Q 23.78125 -13.375 27.78125 -13.375 
Q 36.625 -13.375 41.015625 -8.765625 
Q 45.40625 -4.15625 45.40625 5.171875 
L 45.40625 9.625 
Q 42.625 4.78125 38.28125 2.390625 
Q 33.9375 0 27.875 0 
Q 17.828125 0 11.671875 7.65625 
Q 5.515625 15.328125 5.515625 27.984375 
Q 5.515625 40.671875 11.671875 48.328125 
Q 17.828125 56 27.875 56 
Q 33.9375 56 38.28125 53.609375 
Q 42.625 51.21875 45.40625 46.390625 
L 45.40625 54.6875 
L 54.390625 54.6875 
z
" id="DejaVuSans-103"/>
      <path d="M 54.890625 33.015625 
L 54.890625 0 
L 45.90625 0 
L 45.90625 32.71875 
Q 45.90625 40.484375 42.875 44.328125 
Q 39.84375 48.1875 33.796875 48.1875 
Q 26.515625 48.1875 22.3125 43.546875 
Q 18.109375 38.921875 18.109375 30.90625 
L 18.109375 0 
L 9.078125 0 
L 9.078125 75.984375 
L 18.109375 75.984375 
L 18.109375 46.1875 
Q 21.34375 51.125 25.703125 53.5625 
Q 30.078125 56 35.796875 56 
Q 45.21875 56 50.046875 50.171875 
Q 54.890625 44.34375 54.890625 33.015625 
z
" id="DejaVuSans-104"/>
     </defs>
     <g transform="translate(593.259258 57.85875)scale(0.1 -0.1)">
      <use xlink:href="#DejaVuSans-108"/>
      <use x="27.783203" xlink:href="#DejaVuSans-101"/>
      <use x="89.306641" xlink:href="#DejaVuSans-110"/>
      <use x="152.685547" xlink:href="#DejaVuSans-103"/>
      <use x="216.162109" xlink:href="#DejaVuSans-116"/>
      <use x="255.371094" xlink:href="#DejaVuSans-104"/>
     </g>
    </g>
   </g>
  </g>
  <g id="text_16">
   <!-- result queue (bytes) -->
   <defs>
    <path d="M 41.109375 46.296875 
Q 39.59375 47.171875 37.8125 47.578125 
Q 36.03125 48 33.890625 48 
Q 26.265625 48 22.1875 43.046875 
Q 18.109375 38.09375 18.109375 28.8125 
L 18.109375 0 
L 9.078125 0 
L 9.078125 54.6875 
L 18.109375 54.6875 
L 18.109375 46.1875 
Q 20.953125 51.171875 25.484375 53.578125 
Q 30.03125 56 36.53125 56 
Q 37.453125 56 38.578125 55.875 
Q 39.703125 55.765625 41.0625 55.515625 
z
" id="DejaVuSans-114"/>
    <path id="DejaVuSans-32"/>
   </defs>
   <g transform="translate(281.072812 17.038125)scale(0.12 -0.12)">
    <use xlink:href="#DejaVuSans-114"/>
    <use x="41.082031" xlink:href="#DejaVuSans-101"/>
    <use x="102.605469" xlink:href="#DejaVuSans-115"/>
    <use x="154.705078" xlink:href="#DejaVuSans-117"/>
    <use x="218.083984" xlink:href="#DejaVuSans-108"/>
    <use x="245.867188" xlink:href="#DejaVuSans-116"/>
    <use x="285.076172" xlink:href="#DejaVuSans-32"/>
    <use x="316.863281" xlink:href="#DejaVuSans-113"/>
    <use x="380.339844" xlink:href="#DejaVuSans-117"/>
    <use x="443.71875" xlink:href="#DejaVuSans-101"/>
    <use x="505.242188" xlink:href="#DejaVuSans-117"/>
    <use x="568.621094" xlink:href="#DejaVuSans-101"/>
    <use x="630.144531" xlink:href="#DejaVuSans-32"/>
    <use x="661.931641" xlink:href="#DejaVuSans-40"/>
    <use x="700.945312" xlink:href="#DejaVuSans-98"/>
    <use x="764.421875" xlink:href="#DejaVuSans-121"/>
    <use x="823.601562" xlink:href="#DejaVuSans-116"/>
    <use x="862.810547" xlink:href="#DejaVuSans-101"/>
    <use x="924.333984" xlink:href="#DejaVuSans-115"/>
    <use x="976.433594" xlink:href="#DejaVuSans-41"/>
   </g>
  </g>
 </g>
 <defs>
  <clipPath id="pcdafadb3e8">
   <rect height="317.111667" width="410.503906" x="130.230156" y="35.0625"/>
  </clipPath>
 </defs>
</svg>
