<?xml version="1.0" encoding="utf-8" standalone="no"?>
<!DOCTYPE svg PUBLIC "-//W3C//DTD SVG 1.1//EN"
  "http://www.w3.org/Graphics/SVG/1.1/DTD/svg11.dtd">
<!-- Created with matplotlib (https://matplotlib.org/) -->
<svg height="396pt" version="1.1" viewBox="0 0 684 396" width="684pt" xmlns="http://www.w3.org/2000/svg" xmlns:xlink="http://www.w3.org/1999/xlink">
 <defs>
  <style type="text/css">
*{stroke-linecap:butt;stroke-linejoin:round;}
  </style>
 </defs>
 <g id="figure_1">
  <g id="patch_1">
   <path d="M 0 396 
L 684 396 
L 684 0 
L 0 0 
z
" style="fill:#ffffff;"/>
  </g>
  <g id="axes_1">
   <g id="patch_2">
    <path d="M 70.834375 352.174167 
L 516.019219 352.174167 
L 516.019219 35.0625 
L 70.834375 35.0625 
z
" style="fill:#ffffff;"/>
   </g>
   <g id="matplotlib.axis_1">
    <g id="xtick_1">
     <g id="line2d_1">
      <defs>
       <path d="M 0 0 
L 0 3.5 
" id="m504d0833b9" style="stroke:#000000;stroke-width:0.8;"/>
      </defs>
      <g>
       <use style="stroke:#000000;stroke-width:0.8;" x="95.207008" xlink:href="#m504d0833b9" y="352.174167"/>
      </g>
     </g>
     <g id="text_1">
      <!-- 0 -->
      <defs>
       <path d="M 31.78125 66.40625 
Q 24.171875 66.40625 20.328125 58.90625 
Q 16.5 51.421875 16.5 36.375 
Q 16.5 21.390625 20.328125 13.890625 
Q 24.171875 6.390625 31.78125 6.390625 
Q 39.453125 6.390625 43.28125 13.890625 
Q 47.125 21.390625 47.125 36.375 
Q 47.125 51.421875 43.28125 58.90625 
Q 39.453125 66.40625 31.78125 66.40625 
z
M 31.78125 74.21875 
Q 44.046875 74.21875 50.515625 64.515625 
Q 56.984375 54.828125 56.984375 36.375 
Q 56.984375 17.96875 50.515625 8.265625 
Q 44.046875 -1.421875 31.78125 -1.421875 
Q 19.53125 -1.421875 13.0625 8.265625 
Q 6.59375 17.96875 6.59375 36.375 
Q 6.59375 54.828125 13.0625 64.515625 
Q 19.53125 74.21875 31.78125 74.21875 
z
" id="DejaVuSans-48"/>
      </defs>
      <g transform="translate(92.025758 366.772604)scale(0.1 -0.1)">
       <use xlink:href="#DejaVuSans-48"/>
      </g>
     </g>
    </g>
    <g id="xtick_2">
     <g id="line2d_2">
      <g>
       <use style="stroke:#000000;stroke-width:0.8;" x="165.442143" xlink:href="#m504d0833b9" y="352.174167"/>
      </g>
     </g>
     <g id="text_2">
      <!-- 50 -->
      <defs>
       <path d="M 10.796875 72.90625 
L 49.515625 72.90625 
L 49.515625 64.59375 
L 19.828125 64.59375 
L 19.828125 46.734375 
Q 21.96875 47.46875 24.109375 47.828125 
Q 26.265625 48.1875 28.421875 48.1875 
Q 40.625 48.1875 47.75 41.5 
Q 54.890625 34.8125 54.890625 23.390625 
Q 54.890625 11.625 47.5625 5.09375 
Q 40.234375 -1.421875 26.90625 -1.421875 
Q 22.3125 -1.421875 17.546875 -0.640625 
Q 12.796875 0.140625 7.71875 1.703125 
L 7.71875 11.625 
Q 12.109375 9.234375 16.796875 8.0625 
Q 21.484375 6.890625 26.703125 6.890625 
Q 35.15625 6.890625 40.078125 11.328125 
Q 45.015625 15.765625 45.015625 23.390625 
Q 45.015625 31 40.078125 35.4375 
Q 35.15625 39.890625 26.703125 39.890625 
Q 22.75 39.890625 18.8125 39.015625 
Q 14.890625 38.140625 10.796875 36.28125 
z
" id="DejaVuSans-53"/>
      </defs>
      <g transform="translate(159.079643 366.772604)scale(0.1 -0.1)">
       <use xlink:href="#DejaVuSans-53"/>
       <use x="63.623047" xlink:href="#DejaVuSans-48"/>
      </g>
     </g>
    </g>
    <g id="xtick_3">
     <g id="line2d_3">
      <g>
       <use style="stroke:#000000;stroke-width:0.8;" x="235.677279" xlink:href="#m504d0833b9" y="352.174167"/>
      </g>
     </g>
     <g id="text_3">
      <!-- 100 -->
      <defs>
       <path d="M 12.40625 8.296875 
L 28.515625 8.296875 
L 28.515625 63.921875 
L 10.984375 60.40625 
L 10.984375 69.390625 
L 28.421875 72.90625 
L 38.28125 72.90625 
L 38.28125 8.296875 
L 54.390625 8.296875 
L 54.390625 0 
L 12.40625 0 
z
" id="DejaVuSans-49"/>
      </defs>
      <g transform="translate(226.133529 366.772604)scale(0.1 -0.1)">
       <use xlink:href="#DejaVuSans-49"/>
       <use x="63.623047" xlink:href="#DejaVuSans-48"/>
       <use x="127.246094" xlink:href="#DejaVuSans-48"/>
      </g>
     </g>
    </g>
    <g id="xtick_4">
     <g id="line2d_4">
      <g>
       <use style="stroke:#000000;stroke-width:0.8;" x="305.912415" xlink:href="#m504d0833b9" y="352.174167"/>
      </g>
     </g>
     <g id="text_4">
      <!-- 150 -->
      <g transform="translate(296.368665 366.772604)scale(0.1 -0.1)">
       <use xlink:href="#DejaVuSans-49"/>
       <use x="63.623047" xlink:href="#DejaVuSans-53"/>
       <use x="127.246094" xlink:href="#DejaVuSans-48"/>
      </g>
     </g>
    </g>
    <g id="xtick_5">
     <g id="line2d_5">
      <g>
       <use style="stroke:#000000;stroke-width:0.8;" x="376.147551" xlink:href="#m504d0833b9" y="352.174167"/>
      </g>
     </g>
     <g id="text_5">
      <!-- 200 -->
      <defs>
       <path d="M 19.1875 8.296875 
L 53.609375 8.296875 
L 53.609375 0 
L 7.328125 0 
L 7.328125 8.296875 
Q 12.9375 14.109375 22.625 23.890625 
Q 32.328125 33.6875 34.8125 36.53125 
Q 39.546875 41.84375 41.421875 45.53125 
Q 43.3125 49.21875 43.3125 52.78125 
Q 43.3125 58.59375 39.234375 62.25 
Q 35.15625 65.921875 28.609375 65.921875 
Q 23.96875 65.921875 18.8125 64.3125 
Q 13.671875 62.703125 7.8125 59.421875 
L 7.8125 69.390625 
Q 13.765625 71.78125 18.9375 73 
Q 24.125 74.21875 28.421875 74.21875 
Q 39.75 74.21875 46.484375 68.546875 
Q 53.21875 62.890625 53.21875 53.421875 
Q 53.21875 48.921875 51.53125 44.890625 
Q 49.859375 40.875 45.40625 35.40625 
Q 44.1875 33.984375 37.640625 27.21875 
Q 31.109375 20.453125 19.1875 8.296875 
z
" id="DejaVuSans-50"/>
      </defs>
      <g transform="translate(366.603801 366.772604)scale(0.1 -0.1)">
       <use xlink:href="#DejaVuSans-50"/>
       <use x="63.623047" xlink:href="#DejaVuSans-48"/>
       <use x="127.246094" xlink:href="#DejaVuSans-48"/>
      </g>
     </g>
    </g>
    <g id="xtick_6">
     <g id="line2d_6">
      <g>
       <use style="stroke:#000000;stroke-width:0.8;" x="446.382686" xlink:href="#m504d0833b9" y="352.174167"/>
      </g>
     </g>
     <g id="text_6">
      <!-- 250 -->
      <g transform="translate(436.838936 366.772604)scale(0.1 -0.1)">
       <use xlink:href="#DejaVuSans-50"/>
       <use x="63.623047" xlink:href="#DejaVuSans-53"/>
       <use x="127.246094" xlink:href="#DejaVuSans-48"/>
      </g>
     </g>
    </g>
   </g>
   <g id="matplotlib.axis_2">
    <g id="ytick_1">
     <g id="line2d_7">
      <defs>
       <path d="M 0 0 
L -3.5 0 
" id="m4a7453b89e" style="stroke:#000000;stroke-width:0.8;"/>
      </defs>
      <g>
       <use style="stroke:#000000;stroke-width:0.8;" x="70.834375" xlink:href="#m4a7453b89e" y="352.174167"/>
      </g>
     </g>
     <g id="text_7">
      <!-- 0.0 -->
      <defs>
       <path d="M 10.6875 12.40625 
L 21 12.40625 
L 21 0 
L 10.6875 0 
z
" id="DejaVuSans-46"/>
      </defs>
      <g transform="translate(47.93125 355.973385)scale(0.1 -0.1)">
       <use xlink:href="#DejaVuSans-48"/>
       <use x="63.623047" xlink:href="#DejaVuSans-46"/>
       <use x="95.410156" xlink:href="#DejaVuSans-48"/>
      </g>
     </g>
    </g>
    <g id="ytick_2">
     <g id="line2d_8">
      <g>
       <use style="stroke:#000000;stroke-width:0.8;" x="70.834375" xlink:href="#m4a7453b89e" y="315.932833"/>
      </g>
     </g>
     <g id="text_8">
      <!-- 0.5 -->
      <g transform="translate(47.93125 319.732052)scale(0.1 -0.1)">
       <use xlink:href="#DejaVuSans-48"/>
       <use x="63.623047" xlink:href="#DejaVuSans-46"/>
       <use x="95.410156" xlink:href="#DejaVuSans-53"/>
      </g>
     </g>
    </g>
    <g id="ytick_3">
     <g id="line2d_9">
      <g>
       <use style="stroke:#000000;stroke-width:0.8;" x="70.834375" xlink:href="#m4a7453b89e" y="279.6915"/>
      </g>
     </g>
     <g id="text_9">
      <!-- 1.0 -->
      <g transform="translate(47.93125 283.490719)scale(0.1 -0.1)">
       <use xlink:href="#DejaVuSans-49"/>
       <use x="63.623047" xlink:href="#DejaVuSans-46"/>
       <use x="95.410156" xlink:href="#DejaVuSans-48"/>
      </g>
     </g>
    </g>
    <g id="ytick_4">
     <g id="line2d_10">
      <g>
       <use style="stroke:#000000;stroke-width:0.8;" x="70.834375" xlink:href="#m4a7453b89e" y="243.450167"/>
      </g>
     </g>
     <g id="text_10">
      <!-- 1.5 -->
      <g transform="translate(47.93125 247.249385)scale(0.1 -0.1)">
       <use xlink:href="#DejaVuSans-49"/>
       <use x="63.623047" xlink:href="#DejaVuSans-46"/>
       <use x="95.410156" xlink:href="#DejaVuSans-53"/>
      </g>
     </g>
    </g>
    <g id="ytick_5">
     <g id="line2d_11">
      <g>
       <use style="stroke:#000000;stroke-width:0.8;" x="70.834375" xlink:href="#m4a7453b89e" y="207.208833"/>
      </g>
     </g>
     <g id="text_11">
      <!-- 2.0 -->
      <g transform="translate(47.93125 211.008052)scale(0.1 -0.1)">
       <use xlink:href="#DejaVuSans-50"/>
       <use x="63.623047" xlink:href="#DejaVuSans-46"/>
       <use x="95.410156" xlink:href="#DejaVuSans-48"/>
      </g>
     </g>
    </g>
    <g id="ytick_6">
     <g id="line2d_12">
      <g>
       <use style="stroke:#000000;stroke-width:0.8;" x="70.834375" xlink:href="#m4a7453b89e" y="170.9675"/>
      </g>
     </g>
     <g id="text_12">
      <!-- 2.5 -->
      <g transform="translate(47.93125 174.766719)scale(0.1 -0.1)">
       <use xlink:href="#DejaVuSans-50"/>
       <use x="63.623047" xlink:href="#DejaVuSans-46"/>
       <use x="95.410156" xlink:href="#DejaVuSans-53"/>
      </g>
     </g>
    </g>
    <g id="ytick_7">
     <g id="line2d_13">
      <g>
       <use style="stroke:#000000;stroke-width:0.8;" x="70.834375" xlink:href="#m4a7453b89e" y="134.726167"/>
      </g>
     </g>
     <g id="text_13">
      <!-- 3.0 -->
      <defs>
       <path d="M 40.578125 39.3125 
Q 47.65625 37.796875 51.625 33 
Q 55.609375 28.21875 55.609375 21.1875 
Q 55.609375 10.40625 48.1875 4.484375 
Q 40.765625 -1.421875 27.09375 -1.421875 
Q 22.515625 -1.421875 17.65625 -0.515625 
Q 12.796875 0.390625 7.625 2.203125 
L 7.625 11.71875 
Q 11.71875 9.328125 16.59375 8.109375 
Q 21.484375 6.890625 26.8125 6.890625 
Q 36.078125 6.890625 40.9375 10.546875 
Q 45.796875 14.203125 45.796875 21.1875 
Q 45.796875 27.640625 41.28125 31.265625 
Q 36.765625 34.90625 28.71875 34.90625 
L 20.21875 34.90625 
L 20.21875 43.015625 
L 29.109375 43.015625 
Q 36.375 43.015625 40.234375 45.921875 
Q 44.09375 48.828125 44.09375 54.296875 
Q 44.09375 59.90625 40.109375 62.90625 
Q 36.140625 65.921875 28.71875 65.921875 
Q 24.65625 65.921875 20.015625 65.03125 
Q 15.375 64.15625 9.8125 62.3125 
L 9.8125 71.09375 
Q 15.4375 72.65625 20.34375 73.4375 
Q 25.25 74.21875 29.59375 74.21875 
Q 40.828125 74.21875 47.359375 69.109375 
Q 53.90625 64.015625 53.90625 55.328125 
Q 53.90625 49.265625 50.4375 45.09375 
Q 46.96875 40.921875 40.578125 39.3125 
z
" id="DejaVuSans-51"/>
      </defs>
      <g transform="translate(47.93125 138.525385)scale(0.1 -0.1)">
       <use xlink:href="#DejaVuSans-51"/>
       <use x="63.623047" xlink:href="#DejaVuSans-46"/>
       <use x="95.410156" xlink:href="#DejaVuSans-48"/>
      </g>
     </g>
    </g>
    <g id="ytick_8">
     <g id="line2d_14">
      <g>
       <use style="stroke:#000000;stroke-width:0.8;" x="70.834375" xlink:href="#m4a7453b89e" y="98.484833"/>
      </g>
     </g>
     <g id="text_14">
      <!-- 3.5 -->
      <g transform="translate(47.93125 102.284052)scale(0.1 -0.1)">
       <use xlink:href="#DejaVuSans-51"/>
       <use x="63.623047" xlink:href="#DejaVuSans-46"/>
       <use x="95.410156" xlink:href="#DejaVuSans-53"/>
      </g>
     </g>
    </g>
    <g id="ytick_9">
     <g id="line2d_15">
      <g>
       <use style="stroke:#000000;stroke-width:0.8;" x="70.834375" xlink:href="#m4a7453b89e" y="62.2435"/>
      </g>
     </g>
     <g id="text_15">
      <!-- 4.0 -->
      <defs>
       <path d="M 37.796875 64.3125 
L 12.890625 25.390625 
L 37.796875 25.390625 
z
M 35.203125 72.90625 
L 47.609375 72.90625 
L 47.609375 25.390625 
L 58.015625 25.390625 
L 58.015625 17.1875 
L 47.609375 17.1875 
L 47.609375 0 
L 37.796875 0 
L 37.796875 17.1875 
L 4.890625 17.1875 
L 4.890625 26.703125 
z
" id="DejaVuSans-52"/>
      </defs>
      <g transform="translate(47.93125 66.042719)scale(0.1 -0.1)">
       <use xlink:href="#DejaVuSans-52"/>
       <use x="63.623047" xlink:href="#DejaVuSans-46"/>
       <use x="95.410156" xlink:href="#DejaVuSans-48"/>
      </g>
     </g>
    </g>
    <g id="text_16">
     <!-- droprate -->
     <defs>
      <path d="M 45.40625 46.390625 
L 45.40625 75.984375 
L 54.390625 75.984375 
L 54.390625 0 
L 45.40625 0 
L 45.40625 8.203125 
Q 42.578125 3.328125 38.25 0.953125 
Q 33.9375 -1.421875 27.875 -1.421875 
Q 17.96875 -1.421875 11.734375 6.484375 
Q 5.515625 14.40625 5.515625 27.296875 
Q 5.515625 40.1875 11.734375 48.09375 
Q 17.96875 56 27.875 56 
Q 33.9375 56 38.25 53.625 
Q 42.578125 51.265625 45.40625 46.390625 
z
M 14.796875 27.296875 
Q 14.796875 17.390625 18.875 11.75 
Q 22.953125 6.109375 30.078125 6.109375 
Q 37.203125 6.109375 41.296875 11.75 
Q 45.40625 17.390625 45.40625 27.296875 
Q 45.40625 37.203125 41.296875 42.84375 
Q 37.203125 48.484375 30.078125 48.484375 
Q 22.953125 48.484375 18.875 42.84375 
Q 14.796875 37.203125 14.796875 27.296875 
z
" id="DejaVuSans-100"/>
      <path d="M 41.109375 46.296875 
Q 39.59375 47.171875 37.8125 47.578125 
Q 36.03125 48 33.890625 48 
Q 26.265625 48 22.1875 43.046875 
Q 18.109375 38.09375 18.109375 28.8125 
L 18.109375 0 
L 9.078125 0 
L 9.078125 54.6875 
L 18.109375 54.6875 
L 18.109375 46.1875 
Q 20.953125 51.171875 25.484375 53.578125 
Q 30.03125 56 36.53125 56 
Q 37.453125 56 38.578125 55.875 
Q 39.703125 55.765625 41.0625 55.515625 
z
" id="DejaVuSans-114"/>
      <path d="M 30.609375 48.390625 
Q 23.390625 48.390625 19.1875 42.75 
Q 14.984375 37.109375 14.984375 27.296875 
Q 14.984375 17.484375 19.15625 11.84375 
Q 23.34375 6.203125 30.609375 6.203125 
Q 37.796875 6.203125 41.984375 11.859375 
Q 46.1875 17.53125 46.1875 27.296875 
Q 46.1875 37.015625 41.984375 42.703125 
Q 37.796875 48.390625 30.609375 48.390625 
z
M 30.609375 56 
Q 42.328125 56 49.015625 48.375 
Q 55.71875 40.765625 55.71875 27.296875 
Q 55.71875 13.875 49.015625 6.21875 
Q 42.328125 -1.421875 30.609375 -1.421875 
Q 18.84375 -1.421875 12.171875 6.21875 
Q 5.515625 13.875 5.515625 27.296875 
Q 5.515625 40.765625 12.171875 48.375 
Q 18.84375 56 30.609375 56 
z
" id="DejaVuSans-111"/>
      <path d="M 18.109375 8.203125 
L 18.109375 -20.796875 
L 9.078125 -20.796875 
L 9.078125 54.6875 
L 18.109375 54.6875 
L 18.109375 46.390625 
Q 20.953125 51.265625 25.265625 53.625 
Q 29.59375 56 35.59375 56 
Q 45.5625 56 51.78125 48.09375 
Q 58.015625 40.1875 58.015625 27.296875 
Q 58.015625 14.40625 51.78125 6.484375 
Q 45.5625 -1.421875 35.59375 -1.421875 
Q 29.59375 -1.421875 25.265625 0.953125 
Q 20.953125 3.328125 18.109375 8.203125 
z
M 48.6875 27.296875 
Q 48.6875 37.203125 44.609375 42.84375 
Q 40.53125 48.484375 33.40625 48.484375 
Q 26.265625 48.484375 22.1875 42.84375 
Q 18.109375 37.203125 18.109375 27.296875 
Q 18.109375 17.390625 22.1875 11.75 
Q 26.265625 6.109375 33.40625 6.109375 
Q 40.53125 6.109375 44.609375 11.75 
Q 48.6875 17.390625 48.6875 27.296875 
z
" id="DejaVuSans-112"/>
      <path d="M 34.28125 27.484375 
Q 23.390625 27.484375 19.1875 25 
Q 14.984375 22.515625 14.984375 16.5 
Q 14.984375 11.71875 18.140625 8.90625 
Q 21.296875 6.109375 26.703125 6.109375 
Q 34.1875 6.109375 38.703125 11.40625 
Q 43.21875 16.703125 43.21875 25.484375 
L 43.21875 27.484375 
z
M 52.203125 31.203125 
L 52.203125 0 
L 43.21875 0 
L 43.21875 8.296875 
Q 40.140625 3.328125 35.546875 0.953125 
Q 30.953125 -1.421875 24.3125 -1.421875 
Q 15.921875 -1.421875 10.953125 3.296875 
Q 6 8.015625 6 15.921875 
Q 6 25.140625 12.171875 29.828125 
Q 18.359375 34.515625 30.609375 34.515625 
L 43.21875 34.515625 
L 43.21875 35.40625 
Q 43.21875 41.609375 39.140625 45 
Q 35.0625 48.390625 27.6875 48.390625 
Q 23 48.390625 18.546875 47.265625 
Q 14.109375 46.140625 10.015625 43.890625 
L 10.015625 52.203125 
Q 14.9375 54.109375 19.578125 55.046875 
Q 24.21875 56 28.609375 56 
Q 40.484375 56 46.34375 49.84375 
Q 52.203125 43.703125 52.203125 31.203125 
z
" id="DejaVuSans-97"/>
      <path d="M 18.3125 70.21875 
L 18.3125 54.6875 
L 36.8125 54.6875 
L 36.8125 47.703125 
L 18.3125 47.703125 
L 18.3125 18.015625 
Q 18.3125 11.328125 20.140625 9.421875 
Q 21.96875 7.515625 27.59375 7.515625 
L 36.8125 7.515625 
L 36.8125 0 
L 27.59375 0 
Q 17.1875 0 13.234375 3.875 
Q 9.28125 7.765625 9.28125 18.015625 
L 9.28125 47.703125 
L 2.6875 47.703125 
L 2.6875 54.6875 
L 9.28125 54.6875 
L 9.28125 70.21875 
z
" id="DejaVuSans-116"/>
      <path d="M 56.203125 29.59375 
L 56.203125 25.203125 
L 14.890625 25.203125 
Q 15.484375 15.921875 20.484375 11.0625 
Q 25.484375 6.203125 34.421875 6.203125 
Q 39.59375 6.203125 44.453125 7.46875 
Q 49.3125 8.734375 54.109375 11.28125 
L 54.109375 2.78125 
Q 49.265625 0.734375 44.1875 -0.34375 
Q 39.109375 -1.421875 33.890625 -1.421875 
Q 20.796875 -1.421875 13.15625 6.1875 
Q 5.515625 13.8125 5.515625 26.8125 
Q 5.515625 40.234375 12.765625 48.109375 
Q 20.015625 56 32.328125 56 
Q 43.359375 56 49.78125 48.890625 
Q 56.203125 41.796875 56.203125 29.59375 
z
M 47.21875 32.234375 
Q 47.125 39.59375 43.09375 43.984375 
Q 39.0625 48.390625 32.421875 48.390625 
Q 24.90625 48.390625 20.390625 44.140625 
Q 15.875 39.890625 15.1875 32.171875 
z
" id="DejaVuSans-101"/>
     </defs>
     <g transform="translate(41.851562 215.236302)rotate(-90)scale(0.1 -0.1)">
      <use xlink:href="#DejaVuSans-100"/>
      <use x="63.476562" xlink:href="#DejaVuSans-114"/>
      <use x="104.558594" xlink:href="#DejaVuSans-111"/>
      <use x="165.740234" xlink:href="#DejaVuSans-112"/>
      <use x="229.216797" xlink:href="#DejaVuSans-114"/>
      <use x="270.330078" xlink:href="#DejaVuSans-97"/>
      <use x="331.609375" xlink:href="#DejaVuSans-116"/>
      <use x="370.818359" xlink:href="#DejaVuSans-101"/>
     </g>
    </g>
   </g>
   <g id="line2d_16">
    <path clip-path="url(#p8586bb75fb)" d="M 91.07005 352.174167 
L 96.003755 352.174167 
L 96.155919 331.842423 
L 96.304389 176.144833 
L 96.453701 352.174167 
L 97.651627 352.174167 
L 97.80295 321.547688 
L 97.952334 331.523834 
L 98.100223 352.174167 
L 100.487508 352.174167 
L 100.635113 143.290401 
L 100.782644 352.174167 
L 103.163793 352.174167 
L 103.311598 50.163056 
L 103.459182 352.174167 
L 104.651521 352.174167 
L 104.802332 311.223508 
L 104.954599 352.174167 
L 106.151829 352.174167 
L 106.300092 341.774932 
L 106.44781 341.745006 
L 106.596306 352.174167 
L 108.550993 352.174167 
L 108.700837 341.878333 
L 108.849048 352.174167 
L 109.897923 352.174167 
L 110.051495 311.906019 
L 110.199994 352.174167 
L 111.693493 352.174167 
L 111.842904 331.553209 
L 111.990881 352.174167 
L 112.589291 352.174167 
L 112.738128 331.494376 
L 112.888906 352.174167 
L 114.229586 352.174167 
L 114.379786 321.286667 
L 114.529795 352.174167 
L 116.920452 352.174167 
L 117.068257 341.774932 
L 117.220443 352.174167 
L 117.816255 352.174167 
L 118.113173 331.435206 
L 118.262472 352.174167 
L 120.21775 352.174167 
L 120.365855 331.405494 
L 120.664351 352.174167 
L 122.74844 352.174167 
L 122.896317 300.028363 
L 123.044031 352.174167 
L 124.239432 352.174167 
L 124.387242 331.345814 
L 124.536682 331.523834 
L 124.684176 352.174167 
L 126.317804 352.174167 
L 126.61632 331.494376 
L 126.764166 352.174167 
L 128.397655 352.174167 
L 128.549326 331.813867 
L 128.697431 352.174167 
L 130.344807 352.174167 
L 130.501135 322.629601 
L 130.653878 352.174167 
L 133.211145 352.174167 
L 133.359565 310.636822 
L 133.507341 352.174167 
L 135.752059 352.174167 
L 135.900678 331.435206 
L 136.049412 352.174167 
L 137.699587 352.174167 
L 137.850036 341.950941 
L 137.998956 341.834271 
L 138.147753 352.174167 
L 139.343673 352.174167 
L 139.492837 341.8195 
L 139.64332 341.922021 
L 139.794736 352.174167 
L 141.430605 352.174167 
L 141.58175 321.590763 
L 141.731055 352.174167 
L 144.266329 352.174167 
L 144.415336 321.065726 
L 144.563073 352.174167 
L 146.232694 352.174167 
L 146.384771 342.036731 
L 146.535289 352.174167 
L 147.438426 352.174167 
L 147.588557 331.669876 
L 147.739459 352.174167 
L 148.193449 352.174167 
L 148.342064 331.405494 
L 148.490981 352.174167 
L 149.38613 352.174167 
L 149.536654 341.936502 
L 149.686315 352.174167 
L 150.436539 352.174167 
L 150.587112 341.979699 
L 150.736886 321.330479 
L 150.886509 352.174167 
L 154.049652 352.174167 
L 154.199299 331.553209 
L 154.496107 352.174167 
L 156.891425 352.174167 
L 157.04041 331.464833 
L 157.188922 352.174167 
L 158.680273 352.174167 
L 158.8318 331.842423 
L 158.983783 352.174167 
L 160.635871 352.174167 
L 160.788465 331.984009 
L 160.937845 352.174167 
L 161.68582 352.174167 
L 161.834098 320.976462 
L 161.985286 352.174167 
L 164.526913 352.174167 
L 164.676691 331.5825 
L 164.826485 352.174167 
L 166.476449 352.174167 
L 166.62556 300.400833 
L 166.775639 352.174167 
L 168.563682 352.174167 
L 168.711798 341.78983 
L 168.860202 352.174167 
L 170.066417 352.174167 
L 170.214254 341.75999 
L 170.367614 301.557779 
L 170.519837 352.174167 
L 173.233149 352.174167 
L 173.381449 331.405494 
L 173.529433 352.174167 
L 174.871557 352.174167 
L 175.020909 321.286667 
L 175.325862 352.174167 
L 176.971282 352.174167 
L 177.118774 341.714907 
L 177.269746 352.174167 
L 178.010535 352.174167 
L 178.159832 331.611708 
L 178.308245 352.174167 
L 179.941521 352.174167 
L 180.089017 331.345814 
L 180.236273 352.174167 
L 181.129945 352.174167 
L 181.277216 320.796389 
L 181.424446 352.174167 
L 182.609613 352.174167 
L 182.757282 331.28579 
L 182.904688 352.174167 
L 183.650147 352.174167 
L 183.797884 310.517462 
L 183.945855 352.174167 
L 186.03612 352.174167 
L 186.185187 341.849 
L 186.333258 352.174167 
L 187.221441 352.174167 
L 187.375079 342.079088 
L 187.522641 341.78983 
L 187.671602 352.174167 
L 189.018346 352.174167 
L 189.167019 331.405494 
L 189.316703 352.174167 
L 190.971261 352.174167 
L 191.120729 341.863688 
L 191.270332 352.174167 
L 192.024452 352.174167 
L 192.174451 341.9075 
L 192.323136 352.174167 
L 192.924381 352.174167 
L 193.075131 341.950941 
L 193.227024 311.510679 
L 193.375469 352.174167 
L 196.217915 352.174167 
L 196.365581 341.745006 
L 196.517981 352.174167 
L 197.718633 352.174167 
L 197.871147 321.804334 
L 198.019834 352.174167 
L 200.280399 352.174167 
L 200.429264 310.814585 
L 200.578365 352.174167 
L 202.238009 352.174167 
L 202.536691 331.553209 
L 202.686604 352.174167 
L 204.931037 352.174167 
L 205.081469 341.950941 
L 205.230352 341.804686 
L 205.379997 352.174167 
L 207.029183 352.174167 
L 207.177365 331.345814 
L 207.32521 352.174167 
L 208.816068 352.174167 
L 208.965085 321.198668 
L 209.114303 352.174167 
L 210.602305 352.174167 
L 210.750984 321.065726 
L 210.89885 352.174167 
L 213.171583 352.174167 
L 213.327812 332.370159 
L 213.476732 352.174167 
L 214.225504 352.174167 
L 214.373151 320.886685 
L 214.525014 352.174167 
L 216.176529 352.174167 
L 216.324877 341.8195 
L 216.472804 341.75999 
L 216.621149 352.174167 
L 218.443733 352.174167 
L 218.597261 311.961869 
L 218.746433 352.174167 
L 220.265852 352.174167 
L 220.414101 321.065726 
L 220.56731 352.174167 
L 222.081944 352.174167 
L 222.232952 321.547688 
L 222.384029 352.174167 
L 223.8881 352.174167 
L 224.036607 341.804686 
L 224.186864 321.330479 
L 224.34237 352.174167 
L 226.600388 352.174167 
L 226.754442 322.098371 
L 227.059623 352.174167 
L 229.337764 352.174167 
L 229.493952 312.674076 
L 229.642114 352.174167 
L 232.206712 352.174167 
L 232.360216 301.838981 
L 232.512762 352.174167 
L 234.932997 352.174167 
L 235.081496 341.804686 
L 235.233639 352.174167 
L 235.9851 352.174167 
L 236.134632 321.198668 
L 236.287378 352.174167 
L 237.945501 352.174167 
L 238.096555 331.727716 
L 238.246635 352.174167 
L 239.76001 352.174167 
L 239.910979 341.950941 
L 240.060672 352.174167 
L 240.513988 352.174167 
L 240.665745 321.547688 
L 240.816349 352.174167 
L 243.074818 352.174167 
L 243.231615 322.589405 
L 243.379467 352.174167 
L 245.04286 352.174167 
L 245.192986 341.9075 
L 245.341075 352.174167 
L 246.239339 352.174167 
L 246.391076 321.633717 
L 246.542275 352.174167 
L 247.900324 352.174167 
L 248.051722 341.96534 
L 248.200643 352.174167 
L 248.950506 352.174167 
L 249.101218 311.165586 
L 249.250226 352.174167 
L 249.707242 352.174167 
L 249.863269 322.549099 
L 250.015292 352.174167 
L 251.674406 352.174167 
L 251.822927 341.8195 
L 251.976781 321.973056 
L 252.128472 352.174167 
L 254.241998 352.174167 
L 254.393591 341.994017 
L 254.541791 352.174167 
L 255.446665 352.174167 
L 255.594249 320.886685 
L 255.741685 352.174167 
L 256.498035 352.174167 
L 256.793174 331.28579 
L 256.940877 352.174167 
L 258.292713 352.174167 
L 258.44503 331.813867 
L 258.59707 352.174167 
L 260.246954 352.174167 
L 260.396159 341.863688 
L 260.547066 352.174167 
L 260.995621 352.174167 
L 261.147516 342.022533 
L 261.294723 352.174167 
L 262.191854 352.174167 
L 262.340679 321.154481 
L 262.637227 352.174167 
L 263.84182 352.174167 
L 263.990857 331.553209 
L 264.293059 352.174167 
L 266.406798 352.174167 
L 266.554093 331.345814 
L 266.709595 352.174167 
L 268.674243 352.174167 
L 268.823827 321.374167 
L 269.121715 352.174167 
L 271.703559 352.174167 
L 271.851115 341.8195 
L 272.003728 342.008295 
L 272.154665 352.174167 
L 273.506288 352.174167 
L 273.654282 341.75999 
L 273.803993 321.24273 
L 273.952531 352.174167 
L 275.313705 352.174167 
L 275.462139 331.405494 
L 275.610754 352.174167 
L 277.097144 352.174167 
L 277.248543 341.994017 
L 277.397404 352.174167 
L 277.991264 352.174167 
L 278.14054 341.849 
L 278.290102 352.174167 
L 278.901759 352.174167 
L 279.059252 332.63706 
L 279.360129 352.174167 
L 281.159542 352.174167 
L 281.315506 322.386769 
L 281.625955 352.174167 
L 284.35179 352.174167 
L 284.500598 331.494376 
L 284.649612 352.174167 
L 285.246979 352.174167 
L 285.396168 341.834271 
L 285.545234 341.849 
L 285.693814 352.174167 
L 286.143277 352.174167 
L 286.293299 341.863688 
L 286.441807 341.8195 
L 286.590304 352.174167 
L 287.190571 352.174167 
L 287.339135 331.464833 
L 287.637521 352.174167 
L 289.722066 352.174167 
L 290.020162 331.5825 
L 290.167983 352.174167 
L 291.809142 352.174167 
L 291.966529 342.352667 
L 292.117431 341.950941 
L 292.266851 352.174167 
L 293.915065 352.174167 
L 294.064411 321.154481 
L 294.213032 352.174167 
L 295.112204 352.174167 
L 295.26173 321.286667 
L 295.410879 352.174167 
L 297.816235 352.174167 
L 297.966468 341.922021 
L 298.115583 321.198668 
L 298.264977 352.174167 
L 300.37233 352.174167 
L 300.523246 311.165586 
L 300.672634 352.174167 
L 302.922965 352.174167 
L 303.071346 310.636822 
L 303.220295 352.174167 
L 304.718905 352.174167 
L 305.01928 331.435206 
L 305.170104 352.174167 
L 306.81831 352.174167 
L 306.968581 311.223508 
L 307.117424 352.174167 
L 309.064555 352.174167 
L 309.21398 341.863688 
L 309.362439 352.174167 
L 310.113419 352.174167 
L 310.265987 321.761859 
L 310.565954 352.174167 
L 312.835787 352.174167 
L 312.98496 310.814585 
L 313.134311 352.174167 
L 314.482317 352.174167 
L 314.635329 331.984009 
L 314.785842 352.174167 
L 316.436113 352.174167 
L 316.585066 300.47469 
L 316.733735 352.174167 
L 319.294473 352.174167 
L 319.444253 321.286667 
L 319.594132 352.174167 
L 321.851989 352.174167 
L 322.001306 310.873502 
L 322.149088 352.174167 
L 323.515653 352.174167 
L 323.664246 341.834271 
L 323.812116 352.174167 
L 324.55501 352.174167 
L 324.853375 331.494376 
L 325.00346 352.174167 
L 327.394477 352.174167 
L 327.542911 331.375697 
L 327.694198 352.174167 
L 328.144033 352.174167 
L 328.292575 331.405494 
L 328.44028 352.174167 
L 330.374283 352.174167 
L 330.526084 341.979699 
L 330.674923 352.174167 
L 331.2695 352.174167 
L 331.417973 310.636822 
L 331.566501 352.174167 
L 334.405863 352.174167 
L 334.554957 341.878333 
L 334.703716 352.174167 
L 335.305343 352.174167 
L 335.454802 341.863688 
L 335.604341 321.24273 
L 335.75333 352.174167 
L 337.690139 352.174167 
L 337.840035 331.5825 
L 337.988614 352.174167 
L 340.074007 352.174167 
L 340.223021 331.523834 
L 340.372255 352.174167 
L 340.978366 352.174167 
L 341.127601 331.5825 
L 341.276806 352.174167 
L 342.767202 352.174167 
L 342.916198 310.7555 
L 343.065507 352.174167 
L 344.997417 352.174167 
L 345.144945 320.841602 
L 345.292411 352.174167 
L 346.630211 352.174167 
L 346.780966 331.727716 
L 347.082494 352.174167 
L 348.898857 352.174167 
L 349.048611 331.611708 
L 349.34757 352.174167 
L 350.100241 352.174167 
L 350.249773 321.198668 
L 350.551815 352.174167 
L 352.657447 352.174167 
L 352.808516 321.547688 
L 352.956158 352.174167 
L 355.188221 352.174167 
L 355.338782 341.922021 
L 355.486972 320.976462 
L 355.639861 352.174167 
L 358.188022 352.174167 
L 358.341162 342.079088 
L 358.490906 352.174167 
L 359.249694 352.174167 
L 359.398785 310.814585 
L 359.548801 352.174167 
L 361.803059 352.174167 
L 361.953607 311.165586 
L 362.10548 352.174167 
L 364.664382 352.174167 
L 364.811999 331.315845 
L 364.959672 352.174167 
L 366.596783 352.174167 
L 366.746874 300.985843 
L 366.894575 352.174167 
L 369.137516 352.174167 
L 369.287364 331.5825 
L 369.435809 352.174167 
L 370.478027 352.174167 
L 370.625597 299.953225 
L 370.921005 352.174167 
L 373.155057 352.174167 
L 373.305369 341.9075 
L 373.457014 352.174167 
L 374.360201 352.174167 
L 374.511707 331.756514 
L 374.65935 352.174167 
L 375.406718 352.174167 
L 375.559376 301.486987 
L 375.710117 352.174167 
L 377.964026 352.174167 
L 378.113705 341.878333 
L 378.263215 352.174167 
L 379.010742 352.174167 
L 379.16062 341.878333 
L 379.309827 341.863688 
L 379.458736 352.174167 
L 380.651179 352.174167 
L 380.799096 320.886685 
L 380.946943 352.174167 
L 382.142805 352.174167 
L 382.295141 332.01209 
L 382.593704 352.174167 
L 383.494735 352.174167 
L 383.643552 331.553209 
L 383.945211 352.174167 
L 385.89798 352.174167 
L 386.048683 331.698837 
L 386.346344 352.174167 
L 387.538993 352.174167 
L 387.691387 342.036731 
L 387.841267 352.174167 
L 388.585762 352.174167 
L 388.736921 301.130035 
L 388.885058 352.174167 
L 391.414731 352.174167 
L 391.563218 331.435206 
L 391.711743 352.174167 
L 393.660931 352.174167 
L 393.809367 310.636822 
L 393.959065 352.174167 
L 395.146826 352.174167 
L 395.296392 321.198668 
L 395.445218 352.174167 
L 397.097135 352.174167 
L 397.245634 331.435206 
L 397.542814 352.174167 
L 399.481306 352.174167 
L 399.636852 342.231414 
L 399.785419 352.174167 
L 400.543831 352.174167 
L 400.693173 311.1075 
L 400.842851 352.174167 
L 402.029882 352.174167 
L 402.177603 289.599203 
L 402.326869 352.174167 
L 404.887416 352.174167 
L 405.035852 331.405494 
L 405.336188 352.174167 
L 406.541663 352.174167 
L 406.692986 331.870899 
L 406.990292 352.174167 
L 409.07798 352.174167 
L 409.226956 321.110167 
L 409.375176 352.174167 
L 410.723805 352.174167 
L 410.875826 342.050889 
L 411.032155 352.174167 
L 412.241412 352.174167 
L 412.393091 342.008295 
L 412.544634 352.174167 
L 413.445878 352.174167 
L 413.59452 331.375697 
L 413.745129 352.174167 
L 415.549329 352.174167 
L 415.69955 331.669876 
L 415.997949 352.174167 
L 417.657822 352.174167 
L 417.809841 311.510679 
L 417.95928 352.174167 
L 420.0597 352.174167 
L 420.360977 331.611708 
L 420.511344 352.174167 
L 422.306432 352.174167 
L 422.455275 310.7555 
L 422.752134 352.174167 
L 425.012446 352.174167 
L 425.161141 310.696246 
L 425.309448 352.174167 
L 426.814219 352.174167 
L 426.964376 321.330479 
L 427.112887 352.174167 
L 428.917071 352.174167 
L 429.065569 341.8195 
L 429.213591 352.174167 
L 429.9593 352.174167 
L 430.110435 341.994017 
L 430.259087 352.174167 
L 431.015912 352.174167 
L 431.166035 331.698837 
L 431.313977 352.174167 
L 432.509002 352.174167 
L 432.657215 331.435206 
L 432.805769 352.174167 
L 433.410472 352.174167 
L 433.558372 320.976462 
L 433.706413 352.174167 
L 434.605021 352.174167 
L 434.75583 311.223508 
L 434.906216 352.174167 
L 436.554469 352.174167 
L 436.703166 310.932251 
L 436.854368 352.174167 
L 438.045747 352.174167 
L 438.193174 310.457524 
L 438.340903 352.174167 
L 440.564591 352.174167 
L 440.712017 331.28579 
L 440.859314 352.174167 
L 441.303816 352.174167 
L 441.602564 331.698837 
L 441.750489 352.174167 
L 443.987461 352.174167 
L 444.1362 341.834271 
L 444.283881 320.886685 
L 444.433303 352.174167 
L 446.234925 352.174167 
L 446.387895 331.984009 
L 446.537165 352.174167 
L 447.737962 352.174167 
L 447.886436 341.78983 
L 448.035427 352.174167 
L 448.638733 352.174167 
L 448.941258 331.813867 
L 449.091968 352.174167 
L 450.616752 352.174167 
L 450.917457 331.842423 
L 451.067101 352.174167 
L 452.263092 352.174167 
L 452.411319 331.375697 
L 452.559404 352.174167 
L 454.195119 352.174167 
L 454.343886 331.494376 
L 454.492375 352.174167 
L 456.27866 352.174167 
L 456.426905 320.976462 
L 456.574554 352.174167 
L 457.784559 352.174167 
L 457.936953 331.95585 
L 458.085473 352.174167 
L 460.021745 352.174167 
L 460.171839 341.9075 
L 460.322006 352.174167 
L 461.223549 352.174167 
L 461.375055 331.842423 
L 461.524184 352.174167 
L 463.173343 352.174167 
L 463.321987 341.8195 
L 463.471243 341.8195 
L 463.620022 352.174167 
L 464.961789 352.174167 
L 465.110826 331.494376 
L 465.409179 352.174167 
L 466.76003 352.174167 
L 467.058591 331.5825 
L 467.209436 352.174167 
L 468.548615 352.174167 
L 468.700262 321.633717 
L 468.851628 352.174167 
L 470.353542 352.174167 
L 470.501261 310.397414 
L 470.64977 352.174167 
L 472.591044 352.174167 
L 472.74122 331.640833 
L 473.040443 352.174167 
L 473.934567 352.174167 
L 474.090846 322.427518 
L 474.241386 352.174167 
L 476.664737 352.174167 
L 476.812856 321.065726 
L 476.961821 352.174167 
L 479.043825 352.174167 
L 479.193139 321.24273 
L 479.342268 352.174167 
L 481.735864 352.174167 
L 481.888364 342.121092 
L 482.038812 341.892937 
L 482.187216 352.174167 
L 483.077773 352.174167 
L 483.226388 321.065726 
L 483.374984 352.174167 
L 484.716306 352.174167 
L 484.867361 174.366759 
L 485.015904 352.174167 
L 488.459093 352.174167 
L 488.607769 310.696246 
L 488.756902 352.174167 
L 490.566767 352.174167 
L 490.862879 331.405494 
L 491.013982 352.174167 
L 491.909325 352.174167 
L 492.057028 299.034382 
L 492.205203 352.174167 
L 495.187056 352.174167 
L 495.485611 331.494376 
L 495.634609 352.174167 
L 495.783544 352.174167 
L 495.783544 352.174167 
" style="fill:none;stroke:#1f77b4;stroke-linecap:square;stroke-width:1.5;"/>
   </g>
   <g id="patch_3">
    <path d="M 70.834375 352.174167 
L 70.834375 35.0625 
" style="fill:none;stroke:#000000;stroke-linecap:square;stroke-linejoin:miter;stroke-width:0.8;"/>
   </g>
   <g id="patch_4">
    <path d="M 516.019219 352.174167 
L 516.019219 35.0625 
" style="fill:none;stroke:#000000;stroke-linecap:square;stroke-linejoin:miter;stroke-width:0.8;"/>
   </g>
   <g id="patch_5">
    <path d="M 70.834375 352.174167 
L 516.019219 352.174167 
" style="fill:none;stroke:#000000;stroke-linecap:square;stroke-linejoin:miter;stroke-width:0.8;"/>
   </g>
   <g id="patch_6">
    <path d="M 70.834375 35.0625 
L 516.019219 35.0625 
" style="fill:none;stroke:#000000;stroke-linecap:square;stroke-linejoin:miter;stroke-width:0.8;"/>
   </g>
   <g id="legend_1">
    <g id="patch_7">
     <path d="M 540.278461 53.01875 
L 620.514398 53.01875 
Q 622.514398 53.01875 622.514398 51.01875 
L 622.514398 37.0625 
Q 622.514398 35.0625 620.514398 35.0625 
L 540.278461 35.0625 
Q 538.278461 35.0625 538.278461 37.0625 
L 538.278461 51.01875 
Q 538.278461 53.01875 540.278461 53.01875 
z
" style="fill:#ffffff;opacity:0.8;stroke:#cccccc;stroke-linejoin:miter;"/>
    </g>
    <g id="line2d_17">
     <path d="M 542.278461 43.160937 
L 562.278461 43.160937 
" style="fill:none;stroke:#1f77b4;stroke-linecap:square;stroke-width:1.5;"/>
    </g>
    <g id="line2d_18"/>
    <g id="text_17">
     <!-- drop_rate -->
     <defs>
      <path d="M 50.984375 -16.609375 
L 50.984375 -23.578125 
L -0.984375 -23.578125 
L -0.984375 -16.609375 
z
" id="DejaVuSans-95"/>
     </defs>
     <g transform="translate(570.278461 46.660937)scale(0.1 -0.1)">
      <use xlink:href="#DejaVuSans-100"/>
      <use x="63.476562" xlink:href="#DejaVuSans-114"/>
      <use x="104.558594" xlink:href="#DejaVuSans-111"/>
      <use x="165.740234" xlink:href="#DejaVuSans-112"/>
      <use x="229.216797" xlink:href="#DejaVuSans-95"/>
      <use x="279.216797" xlink:href="#DejaVuSans-114"/>
      <use x="320.330078" xlink:href="#DejaVuSans-97"/>
      <use x="381.609375" xlink:href="#DejaVuSans-116"/>
      <use x="420.818359" xlink:href="#DejaVuSans-101"/>
     </g>
    </g>
   </g>
  </g>
  <g id="text_18">
   <!-- result droprate -->
   <defs>
    <path d="M 44.28125 53.078125 
L 44.28125 44.578125 
Q 40.484375 46.53125 36.375 47.5 
Q 32.28125 48.484375 27.875 48.484375 
Q 21.1875 48.484375 17.84375 46.4375 
Q 14.5 44.390625 14.5 40.28125 
Q 14.5 37.15625 16.890625 35.375 
Q 19.28125 33.59375 26.515625 31.984375 
L 29.59375 31.296875 
Q 39.15625 29.25 43.1875 25.515625 
Q 47.21875 21.78125 47.21875 15.09375 
Q 47.21875 7.46875 41.1875 3.015625 
Q 35.15625 -1.421875 24.609375 -1.421875 
Q 20.21875 -1.421875 15.453125 -0.5625 
Q 10.6875 0.296875 5.421875 2 
L 5.421875 11.28125 
Q 10.40625 8.6875 15.234375 7.390625 
Q 20.0625 6.109375 24.8125 6.109375 
Q 31.15625 6.109375 34.5625 8.28125 
Q 37.984375 10.453125 37.984375 14.40625 
Q 37.984375 18.0625 35.515625 20.015625 
Q 33.0625 21.96875 24.703125 23.78125 
L 21.578125 24.515625 
Q 13.234375 26.265625 9.515625 29.90625 
Q 5.8125 33.546875 5.8125 39.890625 
Q 5.8125 47.609375 11.28125 51.796875 
Q 16.75 56 26.8125 56 
Q 31.78125 56 36.171875 55.265625 
Q 40.578125 54.546875 44.28125 53.078125 
z
" id="DejaVuSans-115"/>
    <path d="M 8.5 21.578125 
L 8.5 54.6875 
L 17.484375 54.6875 
L 17.484375 21.921875 
Q 17.484375 14.15625 20.5 10.265625 
Q 23.53125 6.390625 29.59375 6.390625 
Q 36.859375 6.390625 41.078125 11.03125 
Q 45.3125 15.671875 45.3125 23.6875 
L 45.3125 54.6875 
L 54.296875 54.6875 
L 54.296875 0 
L 45.3125 0 
L 45.3125 8.40625 
Q 42.046875 3.421875 37.71875 1 
Q 33.40625 -1.421875 27.6875 -1.421875 
Q 18.265625 -1.421875 13.375 4.4375 
Q 8.5 10.296875 8.5 21.578125 
z
M 31.109375 56 
z
" id="DejaVuSans-117"/>
    <path d="M 9.421875 75.984375 
L 18.40625 75.984375 
L 18.40625 0 
L 9.421875 0 
z
" id="DejaVuSans-108"/>
    <path id="DejaVuSans-32"/>
   </defs>
   <g transform="translate(297.047813 17.038125)scale(0.12 -0.12)">
    <use xlink:href="#DejaVuSans-114"/>
    <use x="41.082031" xlink:href="#DejaVuSans-101"/>
    <use x="102.605469" xlink:href="#DejaVuSans-115"/>
    <use x="154.705078" xlink:href="#DejaVuSans-117"/>
    <use x="218.083984" xlink:href="#DejaVuSans-108"/>
    <use x="245.867188" xlink:href="#DejaVuSans-116"/>
    <use x="285.076172" xlink:href="#DejaVuSans-32"/>
    <use x="316.863281" xlink:href="#DejaVuSans-100"/>
    <use x="380.339844" xlink:href="#DejaVuSans-114"/>
    <use x="421.421875" xlink:href="#DejaVuSans-111"/>
    <use x="482.603516" xlink:href="#DejaVuSans-112"/>
    <use x="546.080078" xlink:href="#DejaVuSans-114"/>
    <use x="587.193359" xlink:href="#DejaVuSans-97"/>
    <use x="648.472656" xlink:href="#DejaVuSans-116"/>
    <use x="687.681641" xlink:href="#DejaVuSans-101"/>
   </g>
  </g>
 </g>
 <defs>
  <clipPath id="p8586bb75fb">
   <rect height="317.111667" width="445.184844" x="70.834375" y="35.0625"/>
  </clipPath>
 </defs>
</svg>
