<?xml version="1.0" encoding="utf-8" standalone="no"?>
<!DOCTYPE svg PUBLIC "-//W3C//DTD SVG 1.1//EN"
  "http://www.w3.org/Graphics/SVG/1.1/DTD/svg11.dtd">
<!-- Created with matplotlib (https://matplotlib.org/) -->
<svg height="396pt" version="1.1" viewBox="0 0 684 396" width="684pt" xmlns="http://www.w3.org/2000/svg" xmlns:xlink="http://www.w3.org/1999/xlink">
 <defs>
  <style type="text/css">
*{stroke-linecap:butt;stroke-linejoin:round;}
  </style>
 </defs>
 <g id="figure_1">
  <g id="patch_1">
   <path d="M 0 396 
L 684 396 
L 684 0 
L 0 0 
z
" style="fill:#ffffff;"/>
  </g>
  <g id="axes_1">
   <g id="patch_2">
    <path d="M 92.823906 352.174167 
L 544.073906 352.174167 
L 544.073906 35.0625 
L 92.823906 35.0625 
z
" style="fill:#ffffff;"/>
   </g>
   <g id="matplotlib.axis_1">
    <g id="xtick_1">
     <g id="line2d_1">
      <defs>
       <path d="M 0 0 
L 0 3.5 
" id="m956ffeb79a" style="stroke:#000000;stroke-width:0.8;"/>
      </defs>
      <g>
       <use style="stroke:#000000;stroke-width:0.8;" x="113.324846" xlink:href="#m956ffeb79a" y="352.174167"/>
      </g>
     </g>
     <g id="text_1">
      <!-- 0 -->
      <defs>
       <path d="M 31.78125 66.40625 
Q 24.171875 66.40625 20.328125 58.90625 
Q 16.5 51.421875 16.5 36.375 
Q 16.5 21.390625 20.328125 13.890625 
Q 24.171875 6.390625 31.78125 6.390625 
Q 39.453125 6.390625 43.28125 13.890625 
Q 47.125 21.390625 47.125 36.375 
Q 47.125 51.421875 43.28125 58.90625 
Q 39.453125 66.40625 31.78125 66.40625 
z
M 31.78125 74.21875 
Q 44.046875 74.21875 50.515625 64.515625 
Q 56.984375 54.828125 56.984375 36.375 
Q 56.984375 17.96875 50.515625 8.265625 
Q 44.046875 -1.421875 31.78125 -1.421875 
Q 19.53125 -1.421875 13.0625 8.265625 
Q 6.59375 17.96875 6.59375 36.375 
Q 6.59375 54.828125 13.0625 64.515625 
Q 19.53125 74.21875 31.78125 74.21875 
z
" id="DejaVuSans-48"/>
      </defs>
      <g transform="translate(110.143596 366.772604)scale(0.1 -0.1)">
       <use xlink:href="#DejaVuSans-48"/>
      </g>
     </g>
    </g>
    <g id="xtick_2">
     <g id="line2d_2">
      <g>
       <use style="stroke:#000000;stroke-width:0.8;" x="187.783283" xlink:href="#m956ffeb79a" y="352.174167"/>
      </g>
     </g>
     <g id="text_2">
      <!-- 50 -->
      <defs>
       <path d="M 10.796875 72.90625 
L 49.515625 72.90625 
L 49.515625 64.59375 
L 19.828125 64.59375 
L 19.828125 46.734375 
Q 21.96875 47.46875 24.109375 47.828125 
Q 26.265625 48.1875 28.421875 48.1875 
Q 40.625 48.1875 47.75 41.5 
Q 54.890625 34.8125 54.890625 23.390625 
Q 54.890625 11.625 47.5625 5.09375 
Q 40.234375 -1.421875 26.90625 -1.421875 
Q 22.3125 -1.421875 17.546875 -0.640625 
Q 12.796875 0.140625 7.71875 1.703125 
L 7.71875 11.625 
Q 12.109375 9.234375 16.796875 8.0625 
Q 21.484375 6.890625 26.703125 6.890625 
Q 35.15625 6.890625 40.078125 11.328125 
Q 45.015625 15.765625 45.015625 23.390625 
Q 45.015625 31 40.078125 35.4375 
Q 35.15625 39.890625 26.703125 39.890625 
Q 22.75 39.890625 18.8125 39.015625 
Q 14.890625 38.140625 10.796875 36.28125 
z
" id="DejaVuSans-53"/>
      </defs>
      <g transform="translate(181.420783 366.772604)scale(0.1 -0.1)">
       <use xlink:href="#DejaVuSans-53"/>
       <use x="63.623047" xlink:href="#DejaVuSans-48"/>
      </g>
     </g>
    </g>
    <g id="xtick_3">
     <g id="line2d_3">
      <g>
       <use style="stroke:#000000;stroke-width:0.8;" x="262.241721" xlink:href="#m956ffeb79a" y="352.174167"/>
      </g>
     </g>
     <g id="text_3">
      <!-- 100 -->
      <defs>
       <path d="M 12.40625 8.296875 
L 28.515625 8.296875 
L 28.515625 63.921875 
L 10.984375 60.40625 
L 10.984375 69.390625 
L 28.421875 72.90625 
L 38.28125 72.90625 
L 38.28125 8.296875 
L 54.390625 8.296875 
L 54.390625 0 
L 12.40625 0 
z
" id="DejaVuSans-49"/>
      </defs>
      <g transform="translate(252.697971 366.772604)scale(0.1 -0.1)">
       <use xlink:href="#DejaVuSans-49"/>
       <use x="63.623047" xlink:href="#DejaVuSans-48"/>
       <use x="127.246094" xlink:href="#DejaVuSans-48"/>
      </g>
     </g>
    </g>
    <g id="xtick_4">
     <g id="line2d_4">
      <g>
       <use style="stroke:#000000;stroke-width:0.8;" x="336.700158" xlink:href="#m956ffeb79a" y="352.174167"/>
      </g>
     </g>
     <g id="text_4">
      <!-- 150 -->
      <g transform="translate(327.156408 366.772604)scale(0.1 -0.1)">
       <use xlink:href="#DejaVuSans-49"/>
       <use x="63.623047" xlink:href="#DejaVuSans-53"/>
       <use x="127.246094" xlink:href="#DejaVuSans-48"/>
      </g>
     </g>
    </g>
    <g id="xtick_5">
     <g id="line2d_5">
      <g>
       <use style="stroke:#000000;stroke-width:0.8;" x="411.158596" xlink:href="#m956ffeb79a" y="352.174167"/>
      </g>
     </g>
     <g id="text_5">
      <!-- 200 -->
      <defs>
       <path d="M 19.1875 8.296875 
L 53.609375 8.296875 
L 53.609375 0 
L 7.328125 0 
L 7.328125 8.296875 
Q 12.9375 14.109375 22.625 23.890625 
Q 32.328125 33.6875 34.8125 36.53125 
Q 39.546875 41.84375 41.421875 45.53125 
Q 43.3125 49.21875 43.3125 52.78125 
Q 43.3125 58.59375 39.234375 62.25 
Q 35.15625 65.921875 28.609375 65.921875 
Q 23.96875 65.921875 18.8125 64.3125 
Q 13.671875 62.703125 7.8125 59.421875 
L 7.8125 69.390625 
Q 13.765625 71.78125 18.9375 73 
Q 24.125 74.21875 28.421875 74.21875 
Q 39.75 74.21875 46.484375 68.546875 
Q 53.21875 62.890625 53.21875 53.421875 
Q 53.21875 48.921875 51.53125 44.890625 
Q 49.859375 40.875 45.40625 35.40625 
Q 44.1875 33.984375 37.640625 27.21875 
Q 31.109375 20.453125 19.1875 8.296875 
z
" id="DejaVuSans-50"/>
      </defs>
      <g transform="translate(401.614846 366.772604)scale(0.1 -0.1)">
       <use xlink:href="#DejaVuSans-50"/>
       <use x="63.623047" xlink:href="#DejaVuSans-48"/>
       <use x="127.246094" xlink:href="#DejaVuSans-48"/>
      </g>
     </g>
    </g>
    <g id="xtick_6">
     <g id="line2d_6">
      <g>
       <use style="stroke:#000000;stroke-width:0.8;" x="485.617034" xlink:href="#m956ffeb79a" y="352.174167"/>
      </g>
     </g>
     <g id="text_6">
      <!-- 250 -->
      <g transform="translate(476.073284 366.772604)scale(0.1 -0.1)">
       <use xlink:href="#DejaVuSans-50"/>
       <use x="63.623047" xlink:href="#DejaVuSans-53"/>
       <use x="127.246094" xlink:href="#DejaVuSans-48"/>
      </g>
     </g>
    </g>
   </g>
   <g id="matplotlib.axis_2">
    <g id="ytick_1">
     <g id="line2d_7">
      <defs>
       <path d="M 0 0 
L -3.5 0 
" id="m8138f28c34" style="stroke:#000000;stroke-width:0.8;"/>
      </defs>
      <g>
       <use style="stroke:#000000;stroke-width:0.8;" x="92.823906" xlink:href="#m8138f28c34" y="352.174167"/>
      </g>
     </g>
     <g id="text_7">
      <!-- 0 -->
      <g transform="translate(79.461406 355.973385)scale(0.1 -0.1)">
       <use xlink:href="#DejaVuSans-48"/>
      </g>
     </g>
    </g>
    <g id="ytick_2">
     <g id="line2d_8">
      <g>
       <use style="stroke:#000000;stroke-width:0.8;" x="92.823906" xlink:href="#m8138f28c34" y="302.069621"/>
      </g>
     </g>
     <g id="text_8">
      <!-- 50 -->
      <g transform="translate(73.098906 305.86884)scale(0.1 -0.1)">
       <use xlink:href="#DejaVuSans-53"/>
       <use x="63.623047" xlink:href="#DejaVuSans-48"/>
      </g>
     </g>
    </g>
    <g id="ytick_3">
     <g id="line2d_9">
      <g>
       <use style="stroke:#000000;stroke-width:0.8;" x="92.823906" xlink:href="#m8138f28c34" y="251.965076"/>
      </g>
     </g>
     <g id="text_9">
      <!-- 100 -->
      <g transform="translate(66.736406 255.764295)scale(0.1 -0.1)">
       <use xlink:href="#DejaVuSans-49"/>
       <use x="63.623047" xlink:href="#DejaVuSans-48"/>
       <use x="127.246094" xlink:href="#DejaVuSans-48"/>
      </g>
     </g>
    </g>
    <g id="ytick_4">
     <g id="line2d_10">
      <g>
       <use style="stroke:#000000;stroke-width:0.8;" x="92.823906" xlink:href="#m8138f28c34" y="201.860531"/>
      </g>
     </g>
     <g id="text_10">
      <!-- 150 -->
      <g transform="translate(66.736406 205.65975)scale(0.1 -0.1)">
       <use xlink:href="#DejaVuSans-49"/>
       <use x="63.623047" xlink:href="#DejaVuSans-53"/>
       <use x="127.246094" xlink:href="#DejaVuSans-48"/>
      </g>
     </g>
    </g>
    <g id="ytick_5">
     <g id="line2d_11">
      <g>
       <use style="stroke:#000000;stroke-width:0.8;" x="92.823906" xlink:href="#m8138f28c34" y="151.755986"/>
      </g>
     </g>
     <g id="text_11">
      <!-- 200 -->
      <g transform="translate(66.736406 155.555205)scale(0.1 -0.1)">
       <use xlink:href="#DejaVuSans-50"/>
       <use x="63.623047" xlink:href="#DejaVuSans-48"/>
       <use x="127.246094" xlink:href="#DejaVuSans-48"/>
      </g>
     </g>
    </g>
    <g id="ytick_6">
     <g id="line2d_12">
      <g>
       <use style="stroke:#000000;stroke-width:0.8;" x="92.823906" xlink:href="#m8138f28c34" y="101.651441"/>
      </g>
     </g>
     <g id="text_12">
      <!-- 250 -->
      <g transform="translate(66.736406 105.450659)scale(0.1 -0.1)">
       <use xlink:href="#DejaVuSans-50"/>
       <use x="63.623047" xlink:href="#DejaVuSans-53"/>
       <use x="127.246094" xlink:href="#DejaVuSans-48"/>
      </g>
     </g>
    </g>
    <g id="ytick_7">
     <g id="line2d_13">
      <g>
       <use style="stroke:#000000;stroke-width:0.8;" x="92.823906" xlink:href="#m8138f28c34" y="51.546895"/>
      </g>
     </g>
     <g id="text_13">
      <!-- 300 -->
      <defs>
       <path d="M 40.578125 39.3125 
Q 47.65625 37.796875 51.625 33 
Q 55.609375 28.21875 55.609375 21.1875 
Q 55.609375 10.40625 48.1875 4.484375 
Q 40.765625 -1.421875 27.09375 -1.421875 
Q 22.515625 -1.421875 17.65625 -0.515625 
Q 12.796875 0.390625 7.625 2.203125 
L 7.625 11.71875 
Q 11.71875 9.328125 16.59375 8.109375 
Q 21.484375 6.890625 26.8125 6.890625 
Q 36.078125 6.890625 40.9375 10.546875 
Q 45.796875 14.203125 45.796875 21.1875 
Q 45.796875 27.640625 41.28125 31.265625 
Q 36.765625 34.90625 28.71875 34.90625 
L 20.21875 34.90625 
L 20.21875 43.015625 
L 29.109375 43.015625 
Q 36.375 43.015625 40.234375 45.921875 
Q 44.09375 48.828125 44.09375 54.296875 
Q 44.09375 59.90625 40.109375 62.90625 
Q 36.140625 65.921875 28.71875 65.921875 
Q 24.65625 65.921875 20.015625 65.03125 
Q 15.375 64.15625 9.8125 62.3125 
L 9.8125 71.09375 
Q 15.4375 72.65625 20.34375 73.4375 
Q 25.25 74.21875 29.59375 74.21875 
Q 40.828125 74.21875 47.359375 69.109375 
Q 53.90625 64.015625 53.90625 55.328125 
Q 53.90625 49.265625 50.4375 45.09375 
Q 46.96875 40.921875 40.578125 39.3125 
z
" id="DejaVuSans-51"/>
      </defs>
      <g transform="translate(66.736406 55.346114)scale(0.1 -0.1)">
       <use xlink:href="#DejaVuSans-51"/>
       <use x="63.623047" xlink:href="#DejaVuSans-48"/>
       <use x="127.246094" xlink:href="#DejaVuSans-48"/>
      </g>
     </g>
    </g>
    <g id="text_14">
     <!-- rtt -->
     <defs>
      <path d="M 41.109375 46.296875 
Q 39.59375 47.171875 37.8125 47.578125 
Q 36.03125 48 33.890625 48 
Q 26.265625 48 22.1875 43.046875 
Q 18.109375 38.09375 18.109375 28.8125 
L 18.109375 0 
L 9.078125 0 
L 9.078125 54.6875 
L 18.109375 54.6875 
L 18.109375 46.1875 
Q 20.953125 51.171875 25.484375 53.578125 
Q 30.03125 56 36.53125 56 
Q 37.453125 56 38.578125 55.875 
Q 39.703125 55.765625 41.0625 55.515625 
z
" id="DejaVuSans-114"/>
      <path d="M 18.3125 70.21875 
L 18.3125 54.6875 
L 36.8125 54.6875 
L 36.8125 47.703125 
L 18.3125 47.703125 
L 18.3125 18.015625 
Q 18.3125 11.328125 20.140625 9.421875 
Q 21.96875 7.515625 27.59375 7.515625 
L 36.8125 7.515625 
L 36.8125 0 
L 27.59375 0 
Q 17.1875 0 13.234375 3.875 
Q 9.28125 7.765625 9.28125 18.015625 
L 9.28125 47.703125 
L 2.6875 47.703125 
L 2.6875 54.6875 
L 9.28125 54.6875 
L 9.28125 70.21875 
z
" id="DejaVuSans-116"/>
     </defs>
     <g transform="translate(49.458906 199.594115)rotate(-90)scale(0.1 -0.1)">
      <use xlink:href="#DejaVuSans-114"/>
      <use x="41.113281" xlink:href="#DejaVuSans-116"/>
      <use x="80.322266" xlink:href="#DejaVuSans-116"/>
     </g>
     <!-- (ms) -->
     <defs>
      <path d="M 31 75.875 
Q 24.46875 64.65625 21.28125 53.65625 
Q 18.109375 42.671875 18.109375 31.390625 
Q 18.109375 20.125 21.3125 9.0625 
Q 24.515625 -2 31 -13.1875 
L 23.1875 -13.1875 
Q 15.875 -1.703125 12.234375 9.375 
Q 8.59375 20.453125 8.59375 31.390625 
Q 8.59375 42.28125 12.203125 53.3125 
Q 15.828125 64.359375 23.1875 75.875 
z
" id="DejaVuSans-40"/>
      <path d="M 52 44.1875 
Q 55.375 50.25 60.0625 53.125 
Q 64.75 56 71.09375 56 
Q 79.640625 56 84.28125 50.015625 
Q 88.921875 44.046875 88.921875 33.015625 
L 88.921875 0 
L 79.890625 0 
L 79.890625 32.71875 
Q 79.890625 40.578125 77.09375 44.375 
Q 74.3125 48.1875 68.609375 48.1875 
Q 61.625 48.1875 57.5625 43.546875 
Q 53.515625 38.921875 53.515625 30.90625 
L 53.515625 0 
L 44.484375 0 
L 44.484375 32.71875 
Q 44.484375 40.625 41.703125 44.40625 
Q 38.921875 48.1875 33.109375 48.1875 
Q 26.21875 48.1875 22.15625 43.53125 
Q 18.109375 38.875 18.109375 30.90625 
L 18.109375 0 
L 9.078125 0 
L 9.078125 54.6875 
L 18.109375 54.6875 
L 18.109375 46.1875 
Q 21.1875 51.21875 25.484375 53.609375 
Q 29.78125 56 35.6875 56 
Q 41.65625 56 45.828125 52.96875 
Q 50 49.953125 52 44.1875 
z
" id="DejaVuSans-109"/>
      <path d="M 44.28125 53.078125 
L 44.28125 44.578125 
Q 40.484375 46.53125 36.375 47.5 
Q 32.28125 48.484375 27.875 48.484375 
Q 21.1875 48.484375 17.84375 46.4375 
Q 14.5 44.390625 14.5 40.28125 
Q 14.5 37.15625 16.890625 35.375 
Q 19.28125 33.59375 26.515625 31.984375 
L 29.59375 31.296875 
Q 39.15625 29.25 43.1875 25.515625 
Q 47.21875 21.78125 47.21875 15.09375 
Q 47.21875 7.46875 41.1875 3.015625 
Q 35.15625 -1.421875 24.609375 -1.421875 
Q 20.21875 -1.421875 15.453125 -0.5625 
Q 10.6875 0.296875 5.421875 2 
L 5.421875 11.28125 
Q 10.40625 8.6875 15.234375 7.390625 
Q 20.0625 6.109375 24.8125 6.109375 
Q 31.15625 6.109375 34.5625 8.28125 
Q 37.984375 10.453125 37.984375 14.40625 
Q 37.984375 18.0625 35.515625 20.015625 
Q 33.0625 21.96875 24.703125 23.78125 
L 21.578125 24.515625 
Q 13.234375 26.265625 9.515625 29.90625 
Q 5.8125 33.546875 5.8125 39.890625 
Q 5.8125 47.609375 11.28125 51.796875 
Q 16.75 56 26.8125 56 
Q 31.78125 56 36.171875 55.265625 
Q 40.578125 54.546875 44.28125 53.078125 
z
" id="DejaVuSans-115"/>
      <path d="M 8.015625 75.875 
L 15.828125 75.875 
Q 23.140625 64.359375 26.78125 53.3125 
Q 30.421875 42.28125 30.421875 31.390625 
Q 30.421875 20.453125 26.78125 9.375 
Q 23.140625 -1.703125 15.828125 -13.1875 
L 8.015625 -13.1875 
Q 14.5 -2 17.703125 9.0625 
Q 20.90625 20.125 20.90625 31.390625 
Q 20.90625 42.671875 17.703125 53.65625 
Q 14.5 64.65625 8.015625 75.875 
z
" id="DejaVuSans-41"/>
     </defs>
     <g transform="translate(60.656719 204.994896)rotate(-90)scale(0.1 -0.1)">
      <use xlink:href="#DejaVuSans-40"/>
      <use x="39.013672" xlink:href="#DejaVuSans-109"/>
      <use x="136.425781" xlink:href="#DejaVuSans-115"/>
      <use x="188.525391" xlink:href="#DejaVuSans-41"/>
     </g>
    </g>
   </g>
   <g id="line2d_14">
    <path clip-path="url(#p4e74f31eac)" d="M 116.298716 304.073803 
L 117.0433 323.11353 
L 117.787884 325.117712 
L 118.532469 324.115621 
L 119.277053 294.052894 
L 120.021638 278.01944 
L 120.766222 282.027803 
L 121.510806 292.048712 
L 122.255391 276.015258 
L 122.999975 245.952531 
L 124.489144 290.044531 
L 125.233728 287.038258 
L 125.978313 294.052894 
L 126.722897 306.077985 
L 127.467481 300.06544 
L 128.212066 287.038258 
L 128.95665 257.977622 
L 129.701234 166.787349 
L 130.445819 273.008985 
L 131.190403 108.666077 
L 131.934988 239.939985 
L 132.679572 265.994349 
L 133.424156 214.887713 
L 134.168741 317.100985 
L 134.913325 298.061258 
L 135.657909 308.082167 
L 136.402494 301.067531 
L 137.147078 300.06544 
L 138.636247 308.082167 
L 139.380831 298.061258 
L 140.125416 304.073803 
L 140.87 308.082167 
L 141.614584 295.054985 
L 142.359169 274.011076 
L 143.103753 305.075894 
L 143.848338 305.075894 
L 144.592922 303.071712 
L 145.337506 288.040349 
L 146.082091 277.017349 
L 146.826675 285.034076 
L 147.571259 287.038258 
L 148.315844 281.025712 
L 149.060428 293.050803 
L 149.805013 318.103076 
L 150.549597 324.115621 
L 151.294181 325.117712 
L 152.038766 324.115621 
L 152.78335 324.115621 
L 153.527934 322.11144 
L 154.272519 323.11353 
L 155.017103 322.11144 
L 162.462947 322.11144 
L 163.207531 321.109349 
L 163.952116 325.117712 
L 164.6967 298.061258 
L 165.441285 312.09053 
L 166.185869 320.107258 
L 166.930453 321.109349 
L 167.675038 321.109349 
L 168.419622 320.107258 
L 169.164206 321.109349 
L 169.908791 320.107258 
L 170.653375 320.107258 
L 171.39796 321.109349 
L 178.843803 321.109349 
L 179.588388 328.123985 
L 180.332972 321.109349 
L 181.077556 325.117712 
L 182.566725 325.117712 
L 183.31131 324.115621 
L 184.055894 325.117712 
L 186.289647 325.117712 
L 187.034231 326.119803 
L 187.778816 325.117712 
L 193.735491 325.117712 
L 194.480075 334.13653 
L 195.22466 315.096803 
L 195.969244 326.119803 
L 196.713828 327.121894 
L 197.458413 326.119803 
L 198.202997 326.119803 
L 198.947581 327.121894 
L 199.692166 326.119803 
L 204.904256 326.119803 
L 205.648841 327.121894 
L 206.393425 326.119803 
L 208.627178 326.119803 
L 209.371763 328.123985 
L 210.116347 317.100985 
L 210.860931 317.100985 
L 211.605516 326.119803 
L 217.562191 326.119803 
L 218.306775 327.121894 
L 219.05136 326.119803 
L 224.26345 326.119803 
L 225.008035 335.138621 
L 225.752619 312.09053 
L 226.497203 325.117712 
L 227.241788 327.121894 
L 230.220125 327.121894 
L 230.96471 326.119803 
L 231.709294 326.119803 
L 232.453878 327.121894 
L 239.155138 327.121894 
L 239.899722 329.126076 
L 240.644306 320.107258 
L 241.388891 322.11144 
L 242.133475 326.119803 
L 242.87806 327.121894 
L 244.367228 327.121894 
L 245.111813 326.119803 
L 247.345566 326.119803 
L 248.09015 327.121894 
L 248.834735 326.119803 
L 249.579319 327.121894 
L 252.557656 327.121894 
L 253.302241 326.119803 
L 254.046825 327.121894 
L 254.79141 327.121894 
L 255.535994 335.138621 
L 256.280578 315.096803 
L 257.025163 326.119803 
L 257.769747 327.121894 
L 258.514331 327.121894 
L 259.258916 326.119803 
L 260.0035 327.121894 
L 260.748085 326.119803 
L 261.492669 326.119803 
L 262.237253 327.121894 
L 262.981838 326.119803 
L 263.726422 326.119803 
L 264.471007 327.121894 
L 265.215591 326.119803 
L 267.449344 326.119803 
L 268.193928 327.121894 
L 268.938513 327.121894 
L 269.683097 326.119803 
L 270.427682 328.123985 
L 271.172266 325.117712 
L 271.91685 324.115621 
L 272.661435 326.119803 
L 273.406019 326.119803 
L 274.150603 327.121894 
L 274.895188 326.119803 
L 275.639772 327.121894 
L 276.384357 326.119803 
L 277.128941 326.119803 
L 277.873525 327.121894 
L 278.61811 326.119803 
L 279.362694 327.121894 
L 280.107278 326.119803 
L 285.319369 326.119803 
L 286.063953 334.13653 
L 286.808538 314.094712 
L 287.553122 326.119803 
L 300.211057 326.119803 
L 300.955641 329.126076 
L 301.700225 326.119803 
L 302.44481 325.117712 
L 303.189394 327.121894 
L 305.423147 327.121894 
L 306.167732 326.119803 
L 306.912316 327.121894 
L 307.6569 326.119803 
L 308.401485 327.121894 
L 309.146069 326.119803 
L 309.890653 326.119803 
L 310.635238 327.121894 
L 311.379822 327.121894 
L 312.124407 326.119803 
L 314.35816 326.119803 
L 315.102744 327.121894 
L 315.847328 327.121894 
L 316.591913 331.130258 
L 317.336497 320.107258 
L 318.081082 326.119803 
L 326.27151 326.119803 
L 327.016094 327.121894 
L 327.760678 326.119803 
L 328.505263 327.121894 
L 329.249847 326.119803 
L 329.994432 327.121894 
L 330.739016 326.119803 
L 331.4836 328.123985 
L 332.228185 324.115621 
L 334.461938 327.121894 
L 335.951107 327.121894 
L 336.695691 326.119803 
L 337.440275 326.119803 
L 338.18486 327.121894 
L 340.418613 327.121894 
L 341.163197 326.119803 
L 341.907782 327.121894 
L 342.652366 326.119803 
L 346.375288 326.119803 
L 347.119872 328.123985 
L 347.864457 320.107258 
L 348.609041 326.119803 
L 361.266975 326.119803 
L 362.01156 330.128167 
L 362.756144 326.119803 
L 364.245313 326.119803 
L 364.989897 327.121894 
L 365.734482 327.121894 
L 366.479066 326.119803 
L 367.22365 327.121894 
L 367.968235 326.119803 
L 368.712819 326.119803 
L 369.457404 327.121894 
L 370.201988 326.119803 
L 375.414079 326.119803 
L 376.158663 327.121894 
L 376.903247 327.121894 
L 377.647832 330.128167 
L 378.392416 323.11353 
L 379.137 327.121894 
L 387.327429 327.121894 
L 388.072013 326.119803 
L 388.816597 326.119803 
L 389.561182 327.121894 
L 391.794935 327.121894 
L 392.539519 331.130258 
L 393.284104 322.11144 
L 394.028688 326.119803 
L 394.773272 327.121894 
L 395.517857 327.121894 
L 396.262441 326.119803 
L 397.007025 327.121894 
L 397.75161 326.119803 
L 399.985363 326.119803 
L 400.729947 327.121894 
L 403.708285 327.121894 
L 404.452869 326.119803 
L 405.942038 326.119803 
L 406.686622 327.121894 
L 407.431207 327.121894 
L 408.175791 330.128167 
L 408.920375 325.117712 
L 410.409544 327.121894 
L 411.154129 326.119803 
L 411.898713 327.121894 
L 412.643297 327.121894 
L 413.387882 326.119803 
L 416.366219 326.119803 
L 417.110804 327.121894 
L 417.855388 327.121894 
L 418.599972 326.119803 
L 422.322894 326.119803 
L 423.067479 331.130258 
L 423.812063 324.115621 
L 424.556647 327.121894 
L 428.279569 327.121894 
L 429.024154 326.119803 
L 429.768738 327.121894 
L 430.513322 326.119803 
L 431.257907 327.121894 
L 432.002491 326.119803 
L 432.747075 327.121894 
L 433.49166 326.119803 
L 436.469997 326.119803 
L 437.214582 327.121894 
L 437.959166 327.121894 
L 438.70375 330.128167 
L 439.448335 326.119803 
L 452.106269 326.119803 
L 452.850854 327.121894 
L 453.595438 332.132349 
L 454.340022 326.119803 
L 455.084607 327.121894 
L 459.552113 327.121894 
L 460.296697 326.119803 
L 462.53045 326.119803 
L 463.275035 327.121894 
L 466.997957 327.121894 
L 467.742541 326.119803 
L 468.487125 327.121894 
L 469.23171 332.132349 
L 469.976294 326.119803 
L 470.720879 327.121894 
L 472.210047 327.121894 
L 472.954632 326.119803 
L 473.699216 327.121894 
L 474.443801 327.121894 
L 475.188385 326.119803 
L 483.378813 326.119803 
L 484.123397 332.132349 
L 484.867982 327.121894 
L 491.569241 327.121894 
L 492.313826 326.119803 
L 493.05841 327.121894 
L 496.781332 327.121894 
L 497.525916 326.119803 
L 498.270501 326.119803 
L 499.015085 327.121894 
L 499.759669 330.128167 
L 500.504254 326.119803 
L 501.248838 327.121894 
L 503.482591 327.121894 
L 504.227176 326.119803 
L 504.97176 327.121894 
L 506.460929 327.121894 
L 507.205513 326.119803 
L 507.950097 326.119803 
L 508.694682 327.121894 
L 512.417604 327.121894 
L 513.162188 326.119803 
L 513.906772 326.119803 
L 514.651357 333.134439 
L 515.395941 325.117712 
L 516.140526 327.121894 
L 516.88511 327.121894 
L 517.629694 326.119803 
L 517.629694 326.119803 
" style="fill:none;stroke:#1f77b4;stroke-linecap:square;stroke-width:1.5;"/>
   </g>
   <g id="line2d_15">
    <path clip-path="url(#p4e74f31eac)" d="M 122.231564 261.985985 
L 122.976148 252.967167 
L 123.720733 265.994349 
L 124.465317 297.059167 
L 125.209902 288.040349 
L 125.954486 299.063349 
L 126.69907 287.038258 
L 127.443655 289.04244 
L 128.188239 290.044531 
L 128.932823 253.969258 
L 129.677408 251.965076 
L 130.421992 286.036167 
L 131.911161 266.99644 
L 132.655745 253.969258 
L 133.40033 260.983894 
L 134.144914 318.103076 
L 134.889498 285.034076 
L 135.634083 308.082167 
L 136.378667 301.067531 
L 137.123252 303.071712 
L 137.867836 307.080076 
L 138.61242 302.069621 
L 139.357005 284.031985 
L 140.101589 306.077985 
L 140.846173 49.542714 
L 141.590758 198.854258 
L 142.335342 265.994349 
L 143.079927 260.983894 
L 143.824511 218.896076 
L 144.569095 235.931622 
L 145.31368 303.071712 
L 146.058264 289.04244 
L 146.802848 266.99644 
L 147.547433 279.021531 
L 148.292017 245.952531 
L 149.036602 230.921167 
L 149.781186 320.107258 
L 150.52577 325.117712 
L 151.270355 325.117712 
L 153.504108 322.11144 
L 157.22703 322.11144 
L 157.971614 321.109349 
L 163.183705 321.109349 
L 163.928289 326.119803 
L 164.672873 313.092621 
L 165.417458 314.094712 
L 166.162042 319.105167 
L 166.906627 320.107258 
L 175.097055 320.107258 
L 175.841639 321.109349 
L 178.075392 321.109349 
L 178.819977 320.107258 
L 179.564561 323.11353 
L 180.309145 320.107258 
L 181.05373 325.117712 
L 186.26582 325.117712 
L 187.010405 326.119803 
L 187.754989 325.117712 
L 193.711664 325.117712 
L 194.456248 335.138621 
L 195.200833 315.096803 
L 195.945417 326.119803 
L 196.690002 327.121894 
L 197.434586 326.119803 
L 198.17917 326.119803 
L 198.923755 327.121894 
L 199.668339 326.119803 
L 203.391261 326.119803 
L 204.135845 327.121894 
L 204.88043 326.119803 
L 205.625014 327.121894 
L 206.369598 326.119803 
L 208.603352 326.119803 
L 209.347936 330.128167 
L 210.09252 316.098894 
L 210.837105 316.098894 
L 211.581689 326.119803 
L 213.070858 326.119803 
L 213.815442 327.121894 
L 214.560027 326.119803 
L 217.538364 326.119803 
L 218.282948 327.121894 
L 219.027533 326.119803 
L 224.239624 326.119803 
L 224.984208 335.138621 
L 225.728792 313.092621 
L 226.473377 325.117712 
L 227.217961 327.121894 
L 230.196299 327.121894 
L 230.940883 326.119803 
L 232.430052 326.119803 
L 233.174636 327.121894 
L 233.91922 326.119803 
L 234.663805 327.121894 
L 239.131311 327.121894 
L 239.875895 330.128167 
L 240.62048 319.105167 
L 241.365064 322.11144 
L 242.109649 327.121894 
L 244.343402 327.121894 
L 245.087986 326.119803 
L 247.321739 326.119803 
L 248.066324 327.121894 
L 248.810908 326.119803 
L 249.555492 326.119803 
L 250.300077 327.121894 
L 252.53383 327.121894 
L 253.278414 326.119803 
L 254.022999 327.121894 
L 254.767583 327.121894 
L 255.512167 335.138621 
L 256.256752 314.094712 
L 257.001336 326.119803 
L 257.74592 327.121894 
L 258.490505 327.121894 
L 259.235089 326.119803 
L 259.979674 327.121894 
L 260.724258 326.119803 
L 263.702595 326.119803 
L 264.44718 327.121894 
L 265.191764 326.119803 
L 268.170102 326.119803 
L 268.914686 327.121894 
L 269.65927 326.119803 
L 270.403855 329.126076 
L 271.148439 323.11353 
L 271.893024 323.11353 
L 272.637608 326.119803 
L 273.382192 326.119803 
L 274.126777 327.121894 
L 274.871361 326.119803 
L 275.615945 327.121894 
L 276.36053 326.119803 
L 277.105114 326.119803 
L 277.849699 327.121894 
L 280.083452 327.121894 
L 280.828036 326.119803 
L 283.061789 326.119803 
L 283.806374 327.121894 
L 285.295542 327.121894 
L 286.040127 333.134439 
L 286.784711 314.094712 
L 287.529295 326.119803 
L 288.27388 327.121894 
L 289.018464 326.119803 
L 300.18723 326.119803 
L 300.931814 329.126076 
L 301.676399 324.115621 
L 302.420983 325.117712 
L 303.165567 327.121894 
L 305.39932 327.121894 
L 306.143905 326.119803 
L 306.888489 327.121894 
L 307.633074 326.119803 
L 308.377658 327.121894 
L 309.122242 327.121894 
L 309.866827 326.119803 
L 310.611411 326.119803 
L 311.355995 327.121894 
L 312.10058 326.119803 
L 312.845164 327.121894 
L 313.589749 326.119803 
L 314.334333 326.119803 
L 315.078917 327.121894 
L 315.823502 327.121894 
L 316.568086 335.138621 
L 317.31267 317.100985 
L 318.057255 326.119803 
L 319.546424 326.119803 
L 320.291008 327.121894 
L 321.035592 326.119803 
L 327.736852 326.119803 
L 328.481436 327.121894 
L 329.226021 326.119803 
L 329.970605 327.121894 
L 330.715189 326.119803 
L 331.459774 328.123985 
L 332.204358 324.115621 
L 332.948942 324.115621 
L 333.693527 326.119803 
L 334.438111 327.121894 
L 340.394786 327.121894 
L 341.139371 326.119803 
L 346.351461 326.119803 
L 347.096046 329.126076 
L 347.84063 321.109349 
L 348.585214 326.119803 
L 356.775642 326.119803 
L 357.520227 327.121894 
L 358.264811 326.119803 
L 361.243149 326.119803 
L 361.987733 329.126076 
L 362.732317 326.119803 
L 366.455239 326.119803 
L 367.199824 327.121894 
L 367.944408 326.119803 
L 368.688992 326.119803 
L 369.433577 327.121894 
L 370.178161 326.119803 
L 372.411914 326.119803 
L 373.156499 327.121894 
L 373.901083 326.119803 
L 376.134836 326.119803 
L 376.879421 327.121894 
L 377.624005 331.130258 
L 378.368589 323.11353 
L 379.113174 327.121894 
L 387.303602 327.121894 
L 388.048186 326.119803 
L 388.792771 326.119803 
L 389.537355 327.121894 
L 391.771108 327.121894 
L 392.515692 330.128167 
L 393.260277 323.11353 
L 394.004861 326.119803 
L 396.238614 326.119803 
L 396.983199 327.121894 
L 397.727783 326.119803 
L 399.961536 326.119803 
L 400.706121 327.121894 
L 404.429042 327.121894 
L 405.173627 326.119803 
L 405.918211 327.121894 
L 407.40738 327.121894 
L 408.151964 330.128167 
L 408.896549 325.117712 
L 410.385717 327.121894 
L 411.130302 326.119803 
L 411.874886 327.121894 
L 412.619471 327.121894 
L 413.364055 326.119803 
L 416.342392 326.119803 
L 417.086977 327.121894 
L 417.831561 327.121894 
L 418.576146 326.119803 
L 420.065314 326.119803 
L 420.809899 327.121894 
L 421.554483 326.119803 
L 422.299067 327.121894 
L 423.043652 330.128167 
L 423.788236 325.117712 
L 424.532821 327.121894 
L 427.511158 327.121894 
L 428.255742 326.119803 
L 430.489496 326.119803 
L 431.23408 327.121894 
L 431.978664 326.119803 
L 432.723249 327.121894 
L 433.467833 326.119803 
L 436.446171 326.119803 
L 437.190755 327.121894 
L 437.935339 326.119803 
L 438.679924 331.130258 
L 439.424508 326.119803 
L 452.082443 326.119803 
L 452.827027 327.121894 
L 453.571611 331.130258 
L 454.316196 326.119803 
L 455.06078 327.121894 
L 459.528286 327.121894 
L 460.272871 326.119803 
L 461.017455 327.121894 
L 461.762039 326.119803 
L 462.506624 326.119803 
L 463.251208 327.121894 
L 468.463299 327.121894 
L 469.207883 333.134439 
L 469.952468 326.119803 
L 470.697052 327.121894 
L 472.186221 327.121894 
L 472.930805 326.119803 
L 473.675389 327.121894 
L 474.419974 327.121894 
L 475.164558 326.119803 
L 483.354986 326.119803 
L 484.099571 332.132349 
L 484.844155 328.123985 
L 485.588739 327.121894 
L 491.545414 327.121894 
L 492.289999 326.119803 
L 493.034583 327.121894 
L 497.502089 327.121894 
L 498.246674 326.119803 
L 498.991258 327.121894 
L 499.735843 331.130258 
L 500.480427 326.119803 
L 501.225011 327.121894 
L 503.458764 327.121894 
L 504.203349 326.119803 
L 504.947933 327.121894 
L 507.181686 327.121894 
L 507.926271 326.119803 
L 508.670855 327.121894 
L 510.160024 327.121894 
L 510.904608 326.119803 
L 511.649193 327.121894 
L 512.393777 327.121894 
L 513.138361 326.119803 
L 513.882946 326.119803 
L 514.62753 332.132349 
L 515.372114 325.117712 
L 516.116699 327.121894 
L 516.861283 326.119803 
L 519.095036 326.119803 
L 519.839621 327.121894 
L 521.328789 327.121894 
L 522.073374 326.119803 
L 522.817958 327.121894 
L 523.562543 327.121894 
L 523.562543 327.121894 
" style="fill:none;stroke:#ff7f0e;stroke-linecap:square;stroke-width:1.5;"/>
   </g>
   <g id="line2d_16">
    <path clip-path="url(#p4e74f31eac)" d="M 119.277053 278.01944 
L 120.021638 289.04244 
L 120.766222 287.038258 
L 121.510806 287.038258 
L 122.999975 239.939985 
L 123.744559 255.97344 
L 124.489144 291.046622 
L 125.233728 284.031985 
L 125.978313 293.050803 
L 126.722897 288.040349 
L 127.467481 292.048712 
L 128.212066 292.048712 
L 128.95665 271.004803 
L 129.701234 260.983894 
L 130.445819 281.025712 
L 131.190403 277.017349 
L 131.934988 266.99644 
L 132.679572 271.004803 
L 133.424156 272.006894 
L 134.168741 221.902349 
L 134.913325 288.040349 
L 135.657909 304.073803 
L 136.402494 297.059167 
L 137.147078 292.048712 
L 137.891663 292.048712 
L 138.636247 291.046622 
L 139.380831 276.015258 
L 140.125416 293.050803 
L 140.87 291.046622 
L 141.614584 278.01944 
L 143.848338 300.06544 
L 144.592922 296.057076 
L 145.337506 278.01944 
L 146.082091 280.023622 
L 146.826675 287.038258 
L 147.571259 287.038258 
L 148.315844 280.023622 
L 149.060428 316.098894 
L 149.805013 317.100985 
L 150.549597 324.115621 
L 152.038766 324.115621 
L 153.527934 322.11144 
L 157.250856 322.11144 
L 157.995441 321.109349 
L 160.229194 321.109349 
L 160.973778 322.11144 
L 161.718363 322.11144 
L 162.462947 321.109349 
L 163.207531 321.109349 
L 163.952116 323.11353 
L 164.6967 314.094712 
L 165.441285 315.096803 
L 166.185869 320.107258 
L 166.930453 320.107258 
L 167.675038 321.109349 
L 168.419622 320.107258 
L 170.653375 320.107258 
L 171.39796 321.109349 
L 178.843803 321.109349 
L 179.588388 326.119803 
L 180.332972 321.109349 
L 181.077556 325.117712 
L 183.31131 325.117712 
L 184.055894 326.119803 
L 184.800478 325.117712 
L 186.289647 325.117712 
L 187.034231 326.119803 
L 187.778816 325.117712 
L 193.735491 325.117712 
L 194.480075 337.142803 
L 195.22466 311.08844 
L 195.969244 326.119803 
L 196.713828 327.121894 
L 197.458413 326.119803 
L 204.904256 326.119803 
L 205.648841 327.121894 
L 206.393425 326.119803 
L 208.627178 326.119803 
L 209.371763 332.132349 
L 210.116347 309.084258 
L 210.860931 320.107258 
L 211.605516 326.119803 
L 217.562191 326.119803 
L 218.306775 327.121894 
L 219.05136 326.119803 
L 224.26345 326.119803 
L 225.008035 338.144894 
L 225.752619 309.084258 
L 226.497203 325.117712 
L 227.241788 327.121894 
L 230.220125 327.121894 
L 230.96471 326.119803 
L 231.709294 326.119803 
L 232.453878 327.121894 
L 233.198463 327.121894 
L 233.943047 326.119803 
L 234.687631 327.121894 
L 239.155138 327.121894 
L 239.899722 334.13653 
L 240.644306 304.073803 
L 241.388891 322.11144 
L 242.133475 327.121894 
L 244.367228 327.121894 
L 245.111813 326.119803 
L 247.345566 326.119803 
L 248.09015 327.121894 
L 248.834735 326.119803 
L 249.579319 327.121894 
L 252.557656 327.121894 
L 253.302241 326.119803 
L 254.046825 327.121894 
L 254.79141 327.121894 
L 255.535994 335.138621 
L 256.280578 313.092621 
L 257.025163 326.119803 
L 257.769747 327.121894 
L 258.514331 327.121894 
L 259.258916 326.119803 
L 260.0035 327.121894 
L 260.748085 326.119803 
L 263.726422 326.119803 
L 264.471007 327.121894 
L 265.215591 326.119803 
L 269.683097 326.119803 
L 270.427682 333.134439 
L 271.172266 316.098894 
L 271.91685 323.11353 
L 272.661435 326.119803 
L 274.895188 326.119803 
L 275.639772 327.121894 
L 276.384357 326.119803 
L 277.128941 326.119803 
L 277.873525 327.121894 
L 278.61811 326.119803 
L 279.362694 327.121894 
L 280.107278 326.119803 
L 284.574785 326.119803 
L 285.319369 327.121894 
L 286.063953 335.138621 
L 286.808538 313.092621 
L 287.553122 326.119803 
L 300.211057 326.119803 
L 300.955641 332.132349 
L 301.700225 321.109349 
L 302.44481 325.117712 
L 303.933978 327.121894 
L 304.678563 326.119803 
L 305.423147 327.121894 
L 306.167732 326.119803 
L 306.912316 327.121894 
L 307.6569 326.119803 
L 308.401485 327.121894 
L 309.146069 326.119803 
L 310.635238 326.119803 
L 311.379822 327.121894 
L 312.124407 326.119803 
L 315.102744 326.119803 
L 315.847328 327.121894 
L 316.591913 330.128167 
L 317.336497 320.107258 
L 318.081082 326.119803 
L 327.760678 326.119803 
L 328.505263 327.121894 
L 329.249847 326.119803 
L 329.994432 327.121894 
L 330.739016 326.119803 
L 331.4836 332.132349 
L 332.228185 320.107258 
L 332.972769 324.115621 
L 333.717353 326.119803 
L 334.461938 327.121894 
L 335.951107 327.121894 
L 336.695691 326.119803 
L 337.440275 327.121894 
L 340.418613 327.121894 
L 341.163197 326.119803 
L 341.907782 327.121894 
L 342.652366 326.119803 
L 346.375288 326.119803 
L 347.119872 330.128167 
L 347.864457 321.109349 
L 348.609041 326.119803 
L 361.266975 326.119803 
L 362.01156 331.130258 
L 362.756144 324.115621 
L 363.500728 326.119803 
L 364.245313 326.119803 
L 364.989897 327.121894 
L 365.734482 327.121894 
L 366.479066 326.119803 
L 367.22365 327.121894 
L 367.968235 326.119803 
L 368.712819 326.119803 
L 369.457404 327.121894 
L 370.201988 326.119803 
L 376.903247 326.119803 
L 377.647832 332.132349 
L 378.392416 324.115621 
L 379.137 327.121894 
L 382.115338 327.121894 
L 382.859922 326.119803 
L 383.604507 327.121894 
L 387.327429 327.121894 
L 388.072013 326.119803 
L 388.816597 327.121894 
L 389.561182 327.121894 
L 390.305766 326.119803 
L 391.05035 327.121894 
L 391.794935 327.121894 
L 392.539519 332.132349 
L 393.284104 321.109349 
L 394.028688 326.119803 
L 396.262441 326.119803 
L 397.007025 327.121894 
L 397.75161 326.119803 
L 399.985363 326.119803 
L 400.729947 327.121894 
L 401.474532 326.119803 
L 402.219116 327.121894 
L 404.452869 327.121894 
L 405.197454 326.119803 
L 405.942038 327.121894 
L 407.431207 327.121894 
L 408.175791 331.130258 
L 408.920375 325.117712 
L 409.66496 326.119803 
L 411.154129 326.119803 
L 411.898713 327.121894 
L 412.643297 327.121894 
L 413.387882 326.119803 
L 416.366219 326.119803 
L 417.110804 327.121894 
L 417.855388 327.121894 
L 418.599972 326.119803 
L 420.089141 326.119803 
L 420.833725 327.121894 
L 421.57831 327.121894 
L 422.322894 326.119803 
L 423.067479 331.130258 
L 423.812063 324.115621 
L 424.556647 327.121894 
L 427.534985 327.121894 
L 428.279569 326.119803 
L 430.513322 326.119803 
L 431.257907 327.121894 
L 432.002491 326.119803 
L 432.747075 327.121894 
L 433.49166 326.119803 
L 436.469997 326.119803 
L 437.214582 327.121894 
L 437.959166 327.121894 
L 438.70375 330.128167 
L 439.448335 326.119803 
L 452.106269 326.119803 
L 452.850854 327.121894 
L 453.595438 332.132349 
L 454.340022 326.119803 
L 455.084607 327.121894 
L 455.829191 326.119803 
L 456.573775 327.121894 
L 459.552113 327.121894 
L 460.296697 326.119803 
L 462.53045 326.119803 
L 463.275035 327.121894 
L 465.508788 327.121894 
L 466.253372 326.119803 
L 466.997957 327.121894 
L 467.742541 326.119803 
L 468.487125 327.121894 
L 469.23171 332.132349 
L 469.976294 326.119803 
L 470.720879 327.121894 
L 472.210047 327.121894 
L 472.954632 326.119803 
L 473.699216 327.121894 
L 474.443801 327.121894 
L 475.188385 326.119803 
L 483.378813 326.119803 
L 484.123397 332.132349 
L 484.867982 327.121894 
L 486.357151 327.121894 
L 487.101735 326.119803 
L 487.846319 327.121894 
L 491.569241 327.121894 
L 492.313826 326.119803 
L 493.05841 327.121894 
L 496.781332 327.121894 
L 497.525916 326.119803 
L 498.270501 326.119803 
L 499.015085 327.121894 
L 499.759669 330.128167 
L 500.504254 326.119803 
L 501.248838 327.121894 
L 503.482591 327.121894 
L 504.227176 326.119803 
L 504.97176 327.121894 
L 507.205513 327.121894 
L 507.950097 326.119803 
L 508.694682 327.121894 
L 510.183851 327.121894 
L 510.928435 326.119803 
L 511.673019 327.121894 
L 512.417604 327.121894 
L 513.162188 326.119803 
L 513.906772 326.119803 
L 514.651357 332.132349 
L 515.395941 325.117712 
L 516.140526 327.121894 
L 516.88511 327.121894 
L 517.629694 326.119803 
L 518.374279 327.121894 
L 520.608032 327.121894 
L 520.608032 327.121894 
" style="fill:none;stroke:#2ca02c;stroke-linecap:square;stroke-width:1.5;"/>
   </g>
   <g id="line2d_17">
    <path clip-path="url(#p4e74f31eac)" d="M 113.33527 331.130258 
L 114.079854 337.142803 
L 114.824439 339.146985 
L 115.569023 339.146985 
L 116.313607 305.075894 
L 117.058192 323.11353 
L 117.802776 325.117712 
L 118.547361 325.117712 
L 119.291945 293.050803 
L 120.036529 286.036167 
L 120.781114 287.038258 
L 121.525698 274.011076 
L 122.270282 289.04244 
L 123.014867 254.971349 
L 123.759451 260.983894 
L 124.504036 309.084258 
L 125.24862 304.073803 
L 125.993204 314.094712 
L 126.737789 308.082167 
L 127.482373 307.080076 
L 128.226957 293.050803 
L 128.971542 267.998531 
L 129.716126 216.891895 
L 130.460711 179.814531 
L 131.205295 242.946258 
L 131.949879 253.969258 
L 132.694464 198.854258 
L 133.439048 208.875167 
L 134.183632 308.082167 
L 134.928217 280.023622 
L 135.672801 303.071712 
L 136.417386 303.071712 
L 137.906554 293.050803 
L 138.651139 299.063349 
L 139.395723 296.057076 
L 140.884892 304.073803 
L 141.629476 286.036167 
L 142.374061 295.054985 
L 143.863229 301.067531 
L 144.607814 300.06544 
L 145.352398 287.038258 
L 146.096982 263.990167 
L 146.841567 289.04244 
L 147.586151 284.031985 
L 148.330736 278.01944 
L 149.07532 302.069621 
L 149.819904 318.103076 
L 150.564489 324.115621 
L 151.309073 325.117712 
L 152.053657 324.115621 
L 152.798242 324.115621 
L 153.542826 323.11353 
L 154.287411 323.11353 
L 155.031995 322.11144 
L 162.477839 322.11144 
L 163.222423 321.109349 
L 163.967007 326.119803 
L 164.711592 294.052894 
L 165.456176 316.098894 
L 166.200761 320.107258 
L 166.945345 320.107258 
L 167.689929 321.109349 
L 168.434514 320.107258 
L 169.179098 321.109349 
L 169.923682 320.107258 
L 170.668267 320.107258 
L 171.412851 321.109349 
L 178.858695 321.109349 
L 179.603279 328.123985 
L 180.347864 320.107258 
L 181.092448 325.117712 
L 182.581617 325.117712 
L 183.326201 324.115621 
L 184.070786 325.117712 
L 186.304539 325.117712 
L 187.049123 326.119803 
L 187.793707 325.117712 
L 193.750382 325.117712 
L 194.494967 336.140712 
L 195.239551 313.092621 
L 195.984136 326.119803 
L 196.72872 327.121894 
L 197.473304 326.119803 
L 198.217889 326.119803 
L 198.962473 327.121894 
L 199.707057 326.119803 
L 203.429979 326.119803 
L 204.174564 327.121894 
L 204.919148 326.119803 
L 205.663732 327.121894 
L 206.408317 326.119803 
L 208.64207 326.119803 
L 209.386654 328.123985 
L 210.131239 321.109349 
L 210.875823 320.107258 
L 211.620408 326.119803 
L 217.577083 326.119803 
L 218.321667 327.121894 
L 219.066251 326.119803 
L 224.278342 326.119803 
L 225.022926 335.138621 
L 225.767511 313.092621 
L 226.512095 326.119803 
L 227.256679 327.121894 
L 230.235017 327.121894 
L 230.979601 326.119803 
L 231.724186 326.119803 
L 232.46877 327.121894 
L 233.213354 327.121894 
L 233.957939 326.119803 
L 234.702523 327.121894 
L 239.170029 327.121894 
L 239.914614 329.126076 
L 240.659198 321.109349 
L 241.403783 322.11144 
L 242.148367 327.121894 
L 244.38212 327.121894 
L 245.126704 326.119803 
L 247.360458 326.119803 
L 248.105042 327.121894 
L 252.572548 327.121894 
L 253.317133 326.119803 
L 254.061717 327.121894 
L 254.806301 327.121894 
L 255.550886 336.140712 
L 256.29547 314.094712 
L 257.040054 326.119803 
L 257.784639 327.121894 
L 258.529223 327.121894 
L 259.273808 326.119803 
L 260.018392 327.121894 
L 260.762976 326.119803 
L 263.741314 326.119803 
L 264.485898 327.121894 
L 265.230483 326.119803 
L 267.464236 326.119803 
L 268.20882 327.121894 
L 268.953404 327.121894 
L 269.697989 326.119803 
L 270.442573 328.123985 
L 271.187158 323.11353 
L 271.931742 324.115621 
L 272.676326 326.119803 
L 274.910079 326.119803 
L 275.654664 327.121894 
L 276.399248 326.119803 
L 277.143833 326.119803 
L 277.888417 327.121894 
L 278.633001 326.119803 
L 279.377586 327.121894 
L 280.12217 326.119803 
L 283.100508 326.119803 
L 283.845092 327.121894 
L 285.334261 327.121894 
L 286.078845 334.13653 
L 286.823429 313.092621 
L 287.568014 326.119803 
L 297.992195 326.119803 
L 298.736779 327.121894 
L 299.481364 326.119803 
L 300.225948 326.119803 
L 300.970533 329.126076 
L 301.715117 325.117712 
L 302.459701 325.117712 
L 303.204286 327.121894 
L 303.94887 327.121894 
L 304.693454 326.119803 
L 305.438039 327.121894 
L 306.182623 326.119803 
L 306.927208 327.121894 
L 307.671792 326.119803 
L 308.416376 327.121894 
L 309.160961 326.119803 
L 310.650129 326.119803 
L 311.394714 327.121894 
L 312.139298 326.119803 
L 314.373051 326.119803 
L 315.117636 327.121894 
L 315.86222 327.121894 
L 316.606805 329.126076 
L 317.351389 320.107258 
L 318.095973 326.119803 
L 327.77557 326.119803 
L 328.520155 327.121894 
L 329.264739 326.119803 
L 330.009323 327.121894 
L 330.753908 326.119803 
L 331.498492 329.126076 
L 332.243076 323.11353 
L 332.987661 325.117712 
L 334.47683 327.121894 
L 335.965998 327.121894 
L 336.710583 326.119803 
L 337.455167 327.121894 
L 340.433505 327.121894 
L 341.178089 326.119803 
L 346.39018 326.119803 
L 347.134764 332.132349 
L 347.879348 321.109349 
L 348.623933 326.119803 
L 349.368517 327.121894 
L 350.113101 326.119803 
L 350.857686 327.121894 
L 351.60227 326.119803 
L 361.281867 326.119803 
L 362.026451 331.130258 
L 362.771036 326.119803 
L 364.260205 326.119803 
L 365.004789 327.121894 
L 365.749373 326.119803 
L 366.493958 326.119803 
L 367.983126 328.123985 
L 368.727711 326.119803 
L 369.472295 327.121894 
L 370.21688 326.119803 
L 376.173555 326.119803 
L 376.918139 327.121894 
L 377.662723 330.128167 
L 378.407308 323.11353 
L 379.151892 327.121894 
L 386.597736 327.121894 
L 387.34232 326.119803 
L 388.086905 326.119803 
L 388.831489 327.121894 
L 391.065242 327.121894 
L 391.809826 326.119803 
L 392.554411 332.132349 
L 393.298995 322.11144 
L 394.04358 326.119803 
L 394.788164 327.121894 
L 395.532748 327.121894 
L 396.277333 326.119803 
L 397.021917 327.121894 
L 397.766501 326.119803 
L 399.25567 326.119803 
L 400.000255 327.121894 
L 400.744839 327.121894 
L 401.489423 326.119803 
L 402.234008 327.121894 
L 404.467761 327.121894 
L 405.212345 326.119803 
L 405.95693 326.119803 
L 406.701514 327.121894 
L 407.446098 327.121894 
L 408.190683 330.128167 
L 408.935267 325.117712 
L 409.679851 326.119803 
L 411.16902 326.119803 
L 411.913605 327.121894 
L 412.658189 327.121894 
L 413.402773 326.119803 
L 416.381111 326.119803 
L 417.125695 327.121894 
L 417.87028 327.121894 
L 418.614864 326.119803 
L 420.848617 326.119803 
L 421.593202 327.121894 
L 422.337786 326.119803 
L 423.08237 332.132349 
L 423.826955 324.115621 
L 424.571539 327.121894 
L 428.294461 327.121894 
L 429.039045 326.119803 
L 430.528214 326.119803 
L 431.272798 327.121894 
L 432.017383 326.119803 
L 432.761967 327.121894 
L 433.506552 326.119803 
L 435.740305 326.119803 
L 436.484889 327.121894 
L 437.974058 327.121894 
L 438.718642 331.130258 
L 439.463227 326.119803 
L 452.865745 326.119803 
L 453.61033 333.134439 
L 454.354914 326.119803 
L 455.099498 327.121894 
L 459.567005 327.121894 
L 460.311589 326.119803 
L 462.545342 326.119803 
L 463.289927 327.121894 
L 468.502017 327.121894 
L 469.246602 332.132349 
L 469.991186 326.119803 
L 470.73577 327.121894 
L 472.224939 327.121894 
L 472.969523 326.119803 
L 473.714108 327.121894 
L 474.458692 327.121894 
L 475.203277 326.119803 
L 483.393705 326.119803 
L 484.138289 333.134439 
L 484.882873 327.121894 
L 485.627458 327.121894 
L 486.372042 326.119803 
L 487.116627 326.119803 
L 487.861211 327.121894 
L 491.584133 327.121894 
L 492.328717 326.119803 
L 493.073302 327.121894 
L 496.796223 327.121894 
L 497.540808 326.119803 
L 498.285392 326.119803 
L 499.029977 327.121894 
L 499.774561 330.128167 
L 500.519145 326.119803 
L 501.26373 327.121894 
L 503.497483 327.121894 
L 504.242067 326.119803 
L 504.986652 327.121894 
L 506.47582 327.121894 
L 507.220405 326.119803 
L 507.964989 326.119803 
L 508.709573 327.121894 
L 509.454158 326.119803 
L 510.198742 327.121894 
L 512.432495 327.121894 
L 513.17708 326.119803 
L 513.921664 326.119803 
L 514.666248 333.134439 
L 514.666248 333.134439 
" style="fill:none;stroke:#d62728;stroke-linecap:square;stroke-width:1.5;"/>
   </g>
   <g id="patch_3">
    <path d="M 92.823906 352.174167 
L 92.823906 35.0625 
" style="fill:none;stroke:#000000;stroke-linecap:square;stroke-linejoin:miter;stroke-width:0.8;"/>
   </g>
   <g id="patch_4">
    <path d="M 544.073906 352.174167 
L 544.073906 35.0625 
" style="fill:none;stroke:#000000;stroke-linecap:square;stroke-linejoin:miter;stroke-width:0.8;"/>
   </g>
   <g id="patch_5">
    <path d="M 92.823906 352.174167 
L 544.073906 352.174167 
" style="fill:none;stroke:#000000;stroke-linecap:square;stroke-linejoin:miter;stroke-width:0.8;"/>
   </g>
   <g id="patch_6">
    <path d="M 92.823906 35.0625 
L 544.073906 35.0625 
" style="fill:none;stroke:#000000;stroke-linecap:square;stroke-linejoin:miter;stroke-width:0.8;"/>
   </g>
   <g id="legend_1">
    <g id="patch_7">
     <path d="M 568.636406 96.775 
L 630.169219 96.775 
Q 632.169219 96.775 632.169219 94.775 
L 632.169219 37.0625 
Q 632.169219 35.0625 630.169219 35.0625 
L 568.636406 35.0625 
Q 566.636406 35.0625 566.636406 37.0625 
L 566.636406 94.775 
Q 566.636406 96.775 568.636406 96.775 
z
" style="fill:#ffffff;opacity:0.8;stroke:#cccccc;stroke-linejoin:miter;"/>
    </g>
    <g id="line2d_18">
     <path d="M 570.636406 43.160937 
L 590.636406 43.160937 
" style="fill:none;stroke:#1f77b4;stroke-linecap:square;stroke-width:1.5;"/>
    </g>
    <g id="line2d_19"/>
    <g id="text_15">
     <!-- bbr-pi -->
     <defs>
      <path d="M 48.6875 27.296875 
Q 48.6875 37.203125 44.609375 42.84375 
Q 40.53125 48.484375 33.40625 48.484375 
Q 26.265625 48.484375 22.1875 42.84375 
Q 18.109375 37.203125 18.109375 27.296875 
Q 18.109375 17.390625 22.1875 11.75 
Q 26.265625 6.109375 33.40625 6.109375 
Q 40.53125 6.109375 44.609375 11.75 
Q 48.6875 17.390625 48.6875 27.296875 
z
M 18.109375 46.390625 
Q 20.953125 51.265625 25.265625 53.625 
Q 29.59375 56 35.59375 56 
Q 45.5625 56 51.78125 48.09375 
Q 58.015625 40.1875 58.015625 27.296875 
Q 58.015625 14.40625 51.78125 6.484375 
Q 45.5625 -1.421875 35.59375 -1.421875 
Q 29.59375 -1.421875 25.265625 0.953125 
Q 20.953125 3.328125 18.109375 8.203125 
L 18.109375 0 
L 9.078125 0 
L 9.078125 75.984375 
L 18.109375 75.984375 
z
" id="DejaVuSans-98"/>
      <path d="M 4.890625 31.390625 
L 31.203125 31.390625 
L 31.203125 23.390625 
L 4.890625 23.390625 
z
" id="DejaVuSans-45"/>
      <path d="M 18.109375 8.203125 
L 18.109375 -20.796875 
L 9.078125 -20.796875 
L 9.078125 54.6875 
L 18.109375 54.6875 
L 18.109375 46.390625 
Q 20.953125 51.265625 25.265625 53.625 
Q 29.59375 56 35.59375 56 
Q 45.5625 56 51.78125 48.09375 
Q 58.015625 40.1875 58.015625 27.296875 
Q 58.015625 14.40625 51.78125 6.484375 
Q 45.5625 -1.421875 35.59375 -1.421875 
Q 29.59375 -1.421875 25.265625 0.953125 
Q 20.953125 3.328125 18.109375 8.203125 
z
M 48.6875 27.296875 
Q 48.6875 37.203125 44.609375 42.84375 
Q 40.53125 48.484375 33.40625 48.484375 
Q 26.265625 48.484375 22.1875 42.84375 
Q 18.109375 37.203125 18.109375 27.296875 
Q 18.109375 17.390625 22.1875 11.75 
Q 26.265625 6.109375 33.40625 6.109375 
Q 40.53125 6.109375 44.609375 11.75 
Q 48.6875 17.390625 48.6875 27.296875 
z
" id="DejaVuSans-112"/>
      <path d="M 9.421875 54.6875 
L 18.40625 54.6875 
L 18.40625 0 
L 9.421875 0 
z
M 9.421875 75.984375 
L 18.40625 75.984375 
L 18.40625 64.59375 
L 9.421875 64.59375 
z
" id="DejaVuSans-105"/>
     </defs>
     <g transform="translate(598.636406 46.660937)scale(0.1 -0.1)">
      <use xlink:href="#DejaVuSans-98"/>
      <use x="63.476562" xlink:href="#DejaVuSans-98"/>
      <use x="126.953125" xlink:href="#DejaVuSans-114"/>
      <use x="167.972656" xlink:href="#DejaVuSans-45"/>
      <use x="204.056641" xlink:href="#DejaVuSans-112"/>
      <use x="267.533203" xlink:href="#DejaVuSans-105"/>
     </g>
    </g>
    <g id="line2d_20">
     <path d="M 570.636406 57.839063 
L 590.636406 57.839063 
" style="fill:none;stroke:#ff7f0e;stroke-linecap:square;stroke-width:1.5;"/>
    </g>
    <g id="line2d_21"/>
    <g id="text_16">
     <!-- bbr-pi -->
     <g transform="translate(598.636406 61.339063)scale(0.1 -0.1)">
      <use xlink:href="#DejaVuSans-98"/>
      <use x="63.476562" xlink:href="#DejaVuSans-98"/>
      <use x="126.953125" xlink:href="#DejaVuSans-114"/>
      <use x="167.972656" xlink:href="#DejaVuSans-45"/>
      <use x="204.056641" xlink:href="#DejaVuSans-112"/>
      <use x="267.533203" xlink:href="#DejaVuSans-105"/>
     </g>
    </g>
    <g id="line2d_22">
     <path d="M 570.636406 72.517187 
L 590.636406 72.517187 
" style="fill:none;stroke:#2ca02c;stroke-linecap:square;stroke-width:1.5;"/>
    </g>
    <g id="line2d_23"/>
    <g id="text_17">
     <!-- bbr-pi -->
     <g transform="translate(598.636406 76.017187)scale(0.1 -0.1)">
      <use xlink:href="#DejaVuSans-98"/>
      <use x="63.476562" xlink:href="#DejaVuSans-98"/>
      <use x="126.953125" xlink:href="#DejaVuSans-114"/>
      <use x="167.972656" xlink:href="#DejaVuSans-45"/>
      <use x="204.056641" xlink:href="#DejaVuSans-112"/>
      <use x="267.533203" xlink:href="#DejaVuSans-105"/>
     </g>
    </g>
    <g id="line2d_24">
     <path d="M 570.636406 87.195312 
L 590.636406 87.195312 
" style="fill:none;stroke:#d62728;stroke-linecap:square;stroke-width:1.5;"/>
    </g>
    <g id="line2d_25"/>
    <g id="text_18">
     <!-- bbr-pi -->
     <g transform="translate(598.636406 90.695312)scale(0.1 -0.1)">
      <use xlink:href="#DejaVuSans-98"/>
      <use x="63.476562" xlink:href="#DejaVuSans-98"/>
      <use x="126.953125" xlink:href="#DejaVuSans-114"/>
      <use x="167.972656" xlink:href="#DejaVuSans-45"/>
      <use x="204.056641" xlink:href="#DejaVuSans-112"/>
      <use x="267.533203" xlink:href="#DejaVuSans-105"/>
     </g>
    </g>
   </g>
  </g>
  <g id="text_19">
   <!-- result rtt -->
   <defs>
    <path d="M 56.203125 29.59375 
L 56.203125 25.203125 
L 14.890625 25.203125 
Q 15.484375 15.921875 20.484375 11.0625 
Q 25.484375 6.203125 34.421875 6.203125 
Q 39.59375 6.203125 44.453125 7.46875 
Q 49.3125 8.734375 54.109375 11.28125 
L 54.109375 2.78125 
Q 49.265625 0.734375 44.1875 -0.34375 
Q 39.109375 -1.421875 33.890625 -1.421875 
Q 20.796875 -1.421875 13.15625 6.1875 
Q 5.515625 13.8125 5.515625 26.8125 
Q 5.515625 40.234375 12.765625 48.109375 
Q 20.015625 56 32.328125 56 
Q 43.359375 56 49.78125 48.890625 
Q 56.203125 41.796875 56.203125 29.59375 
z
M 47.21875 32.234375 
Q 47.125 39.59375 43.09375 43.984375 
Q 39.0625 48.390625 32.421875 48.390625 
Q 24.90625 48.390625 20.390625 44.140625 
Q 15.875 39.890625 15.1875 32.171875 
z
" id="DejaVuSans-101"/>
    <path d="M 8.5 21.578125 
L 8.5 54.6875 
L 17.484375 54.6875 
L 17.484375 21.921875 
Q 17.484375 14.15625 20.5 10.265625 
Q 23.53125 6.390625 29.59375 6.390625 
Q 36.859375 6.390625 41.078125 11.03125 
Q 45.3125 15.671875 45.3125 23.6875 
L 45.3125 54.6875 
L 54.296875 54.6875 
L 54.296875 0 
L 45.3125 0 
L 45.3125 8.40625 
Q 42.046875 3.421875 37.71875 1 
Q 33.40625 -1.421875 27.6875 -1.421875 
Q 18.265625 -1.421875 13.375 4.4375 
Q 8.5 10.296875 8.5 21.578125 
z
M 31.109375 56 
z
" id="DejaVuSans-117"/>
    <path d="M 9.421875 75.984375 
L 18.40625 75.984375 
L 18.40625 0 
L 9.421875 0 
z
" id="DejaVuSans-108"/>
    <path id="DejaVuSans-32"/>
   </defs>
   <g transform="translate(315.818438 17.038125)scale(0.12 -0.12)">
    <use xlink:href="#DejaVuSans-114"/>
    <use x="41.082031" xlink:href="#DejaVuSans-101"/>
    <use x="102.605469" xlink:href="#DejaVuSans-115"/>
    <use x="154.705078" xlink:href="#DejaVuSans-117"/>
    <use x="218.083984" xlink:href="#DejaVuSans-108"/>
    <use x="245.867188" xlink:href="#DejaVuSans-116"/>
    <use x="285.076172" xlink:href="#DejaVuSans-32"/>
    <use x="316.863281" xlink:href="#DejaVuSans-114"/>
    <use x="357.976562" xlink:href="#DejaVuSans-116"/>
    <use x="397.185547" xlink:href="#DejaVuSans-116"/>
   </g>
  </g>
 </g>
 <defs>
  <clipPath id="p4e74f31eac">
   <rect height="317.111667" width="451.25" x="92.823906" y="35.0625"/>
  </clipPath>
 </defs>
</svg>
