<?xml version="1.0" encoding="utf-8" standalone="no"?>
<!DOCTYPE svg PUBLIC "-//W3C//DTD SVG 1.1//EN"
  "http://www.w3.org/Graphics/SVG/1.1/DTD/svg11.dtd">
<!-- Created with matplotlib (https://matplotlib.org/) -->
<svg height="396pt" version="1.1" viewBox="0 0 684 396" width="684pt" xmlns="http://www.w3.org/2000/svg" xmlns:xlink="http://www.w3.org/1999/xlink">
 <defs>
  <style type="text/css">
*{stroke-linecap:butt;stroke-linejoin:round;}
  </style>
 </defs>
 <g id="figure_1">
  <g id="patch_1">
   <path d="M 0 396 
L 684 396 
L 684 0 
L 0 0 
z
" style="fill:#ffffff;"/>
  </g>
  <g id="axes_1">
   <g id="patch_2">
    <path d="M 83.472344 352.174167 
L 529.912969 352.174167 
L 529.912969 35.0625 
L 83.472344 35.0625 
z
" style="fill:#ffffff;"/>
   </g>
   <g id="matplotlib.axis_1">
    <g id="xtick_1">
     <g id="line2d_1">
      <defs>
       <path d="M 0 0 
L 0 3.5 
" id="mc6f2d86016" style="stroke:#000000;stroke-width:0.8;"/>
      </defs>
      <g>
       <use style="stroke:#000000;stroke-width:0.8;" x="103.765099" xlink:href="#mc6f2d86016" y="352.174167"/>
      </g>
     </g>
     <g id="text_1">
      <!-- 0 -->
      <defs>
       <path d="M 31.78125 66.40625 
Q 24.171875 66.40625 20.328125 58.90625 
Q 16.5 51.421875 16.5 36.375 
Q 16.5 21.390625 20.328125 13.890625 
Q 24.171875 6.390625 31.78125 6.390625 
Q 39.453125 6.390625 43.28125 13.890625 
Q 47.125 21.390625 47.125 36.375 
Q 47.125 51.421875 43.28125 58.90625 
Q 39.453125 66.40625 31.78125 66.40625 
z
M 31.78125 74.21875 
Q 44.046875 74.21875 50.515625 64.515625 
Q 56.984375 54.828125 56.984375 36.375 
Q 56.984375 17.96875 50.515625 8.265625 
Q 44.046875 -1.421875 31.78125 -1.421875 
Q 19.53125 -1.421875 13.0625 8.265625 
Q 6.59375 17.96875 6.59375 36.375 
Q 6.59375 54.828125 13.0625 64.515625 
Q 19.53125 74.21875 31.78125 74.21875 
z
" id="DejaVuSans-48"/>
      </defs>
      <g transform="translate(100.583849 366.772604)scale(0.1 -0.1)">
       <use xlink:href="#DejaVuSans-48"/>
      </g>
     </g>
    </g>
    <g id="xtick_2">
     <g id="line2d_2">
      <g>
       <use style="stroke:#000000;stroke-width:0.8;" x="177.408847" xlink:href="#mc6f2d86016" y="352.174167"/>
      </g>
     </g>
     <g id="text_2">
      <!-- 50 -->
      <defs>
       <path d="M 10.796875 72.90625 
L 49.515625 72.90625 
L 49.515625 64.59375 
L 19.828125 64.59375 
L 19.828125 46.734375 
Q 21.96875 47.46875 24.109375 47.828125 
Q 26.265625 48.1875 28.421875 48.1875 
Q 40.625 48.1875 47.75 41.5 
Q 54.890625 34.8125 54.890625 23.390625 
Q 54.890625 11.625 47.5625 5.09375 
Q 40.234375 -1.421875 26.90625 -1.421875 
Q 22.3125 -1.421875 17.546875 -0.640625 
Q 12.796875 0.140625 7.71875 1.703125 
L 7.71875 11.625 
Q 12.109375 9.234375 16.796875 8.0625 
Q 21.484375 6.890625 26.703125 6.890625 
Q 35.15625 6.890625 40.078125 11.328125 
Q 45.015625 15.765625 45.015625 23.390625 
Q 45.015625 31 40.078125 35.4375 
Q 35.15625 39.890625 26.703125 39.890625 
Q 22.75 39.890625 18.8125 39.015625 
Q 14.890625 38.140625 10.796875 36.28125 
z
" id="DejaVuSans-53"/>
      </defs>
      <g transform="translate(171.046347 366.772604)scale(0.1 -0.1)">
       <use xlink:href="#DejaVuSans-53"/>
       <use x="63.623047" xlink:href="#DejaVuSans-48"/>
      </g>
     </g>
    </g>
    <g id="xtick_3">
     <g id="line2d_3">
      <g>
       <use style="stroke:#000000;stroke-width:0.8;" x="251.052595" xlink:href="#mc6f2d86016" y="352.174167"/>
      </g>
     </g>
     <g id="text_3">
      <!-- 100 -->
      <defs>
       <path d="M 12.40625 8.296875 
L 28.515625 8.296875 
L 28.515625 63.921875 
L 10.984375 60.40625 
L 10.984375 69.390625 
L 28.421875 72.90625 
L 38.28125 72.90625 
L 38.28125 8.296875 
L 54.390625 8.296875 
L 54.390625 0 
L 12.40625 0 
z
" id="DejaVuSans-49"/>
      </defs>
      <g transform="translate(241.508845 366.772604)scale(0.1 -0.1)">
       <use xlink:href="#DejaVuSans-49"/>
       <use x="63.623047" xlink:href="#DejaVuSans-48"/>
       <use x="127.246094" xlink:href="#DejaVuSans-48"/>
      </g>
     </g>
    </g>
    <g id="xtick_4">
     <g id="line2d_4">
      <g>
       <use style="stroke:#000000;stroke-width:0.8;" x="324.696343" xlink:href="#mc6f2d86016" y="352.174167"/>
      </g>
     </g>
     <g id="text_4">
      <!-- 150 -->
      <g transform="translate(315.152593 366.772604)scale(0.1 -0.1)">
       <use xlink:href="#DejaVuSans-49"/>
       <use x="63.623047" xlink:href="#DejaVuSans-53"/>
       <use x="127.246094" xlink:href="#DejaVuSans-48"/>
      </g>
     </g>
    </g>
    <g id="xtick_5">
     <g id="line2d_5">
      <g>
       <use style="stroke:#000000;stroke-width:0.8;" x="398.340091" xlink:href="#mc6f2d86016" y="352.174167"/>
      </g>
     </g>
     <g id="text_5">
      <!-- 200 -->
      <defs>
       <path d="M 19.1875 8.296875 
L 53.609375 8.296875 
L 53.609375 0 
L 7.328125 0 
L 7.328125 8.296875 
Q 12.9375 14.109375 22.625 23.890625 
Q 32.328125 33.6875 34.8125 36.53125 
Q 39.546875 41.84375 41.421875 45.53125 
Q 43.3125 49.21875 43.3125 52.78125 
Q 43.3125 58.59375 39.234375 62.25 
Q 35.15625 65.921875 28.609375 65.921875 
Q 23.96875 65.921875 18.8125 64.3125 
Q 13.671875 62.703125 7.8125 59.421875 
L 7.8125 69.390625 
Q 13.765625 71.78125 18.9375 73 
Q 24.125 74.21875 28.421875 74.21875 
Q 39.75 74.21875 46.484375 68.546875 
Q 53.21875 62.890625 53.21875 53.421875 
Q 53.21875 48.921875 51.53125 44.890625 
Q 49.859375 40.875 45.40625 35.40625 
Q 44.1875 33.984375 37.640625 27.21875 
Q 31.109375 20.453125 19.1875 8.296875 
z
" id="DejaVuSans-50"/>
      </defs>
      <g transform="translate(388.796341 366.772604)scale(0.1 -0.1)">
       <use xlink:href="#DejaVuSans-50"/>
       <use x="63.623047" xlink:href="#DejaVuSans-48"/>
       <use x="127.246094" xlink:href="#DejaVuSans-48"/>
      </g>
     </g>
    </g>
    <g id="xtick_6">
     <g id="line2d_6">
      <g>
       <use style="stroke:#000000;stroke-width:0.8;" x="471.983839" xlink:href="#mc6f2d86016" y="352.174167"/>
      </g>
     </g>
     <g id="text_6">
      <!-- 250 -->
      <g transform="translate(462.440089 366.772604)scale(0.1 -0.1)">
       <use xlink:href="#DejaVuSans-50"/>
       <use x="63.623047" xlink:href="#DejaVuSans-53"/>
       <use x="127.246094" xlink:href="#DejaVuSans-48"/>
      </g>
     </g>
    </g>
   </g>
   <g id="matplotlib.axis_2">
    <g id="ytick_1">
     <g id="line2d_7">
      <defs>
       <path d="M 0 0 
L -3.5 0 
" id="m927957c216" style="stroke:#000000;stroke-width:0.8;"/>
      </defs>
      <g>
       <use style="stroke:#000000;stroke-width:0.8;" x="83.472344" xlink:href="#m927957c216" y="352.174167"/>
      </g>
     </g>
     <g id="text_7">
      <!-- 0 -->
      <g transform="translate(70.109844 355.973385)scale(0.1 -0.1)">
       <use xlink:href="#DejaVuSans-48"/>
      </g>
     </g>
    </g>
    <g id="ytick_2">
     <g id="line2d_8">
      <g>
       <use style="stroke:#000000;stroke-width:0.8;" x="83.472344" xlink:href="#m927957c216" y="313.782924"/>
      </g>
     </g>
     <g id="text_8">
      <!-- 10 -->
      <g transform="translate(63.747344 317.582142)scale(0.1 -0.1)">
       <use xlink:href="#DejaVuSans-49"/>
       <use x="63.623047" xlink:href="#DejaVuSans-48"/>
      </g>
     </g>
    </g>
    <g id="ytick_3">
     <g id="line2d_9">
      <g>
       <use style="stroke:#000000;stroke-width:0.8;" x="83.472344" xlink:href="#m927957c216" y="275.391681"/>
      </g>
     </g>
     <g id="text_9">
      <!-- 20 -->
      <g transform="translate(63.747344 279.1909)scale(0.1 -0.1)">
       <use xlink:href="#DejaVuSans-50"/>
       <use x="63.623047" xlink:href="#DejaVuSans-48"/>
      </g>
     </g>
    </g>
    <g id="ytick_4">
     <g id="line2d_10">
      <g>
       <use style="stroke:#000000;stroke-width:0.8;" x="83.472344" xlink:href="#m927957c216" y="237.000438"/>
      </g>
     </g>
     <g id="text_10">
      <!-- 30 -->
      <defs>
       <path d="M 40.578125 39.3125 
Q 47.65625 37.796875 51.625 33 
Q 55.609375 28.21875 55.609375 21.1875 
Q 55.609375 10.40625 48.1875 4.484375 
Q 40.765625 -1.421875 27.09375 -1.421875 
Q 22.515625 -1.421875 17.65625 -0.515625 
Q 12.796875 0.390625 7.625 2.203125 
L 7.625 11.71875 
Q 11.71875 9.328125 16.59375 8.109375 
Q 21.484375 6.890625 26.8125 6.890625 
Q 36.078125 6.890625 40.9375 10.546875 
Q 45.796875 14.203125 45.796875 21.1875 
Q 45.796875 27.640625 41.28125 31.265625 
Q 36.765625 34.90625 28.71875 34.90625 
L 20.21875 34.90625 
L 20.21875 43.015625 
L 29.109375 43.015625 
Q 36.375 43.015625 40.234375 45.921875 
Q 44.09375 48.828125 44.09375 54.296875 
Q 44.09375 59.90625 40.109375 62.90625 
Q 36.140625 65.921875 28.71875 65.921875 
Q 24.65625 65.921875 20.015625 65.03125 
Q 15.375 64.15625 9.8125 62.3125 
L 9.8125 71.09375 
Q 15.4375 72.65625 20.34375 73.4375 
Q 25.25 74.21875 29.59375 74.21875 
Q 40.828125 74.21875 47.359375 69.109375 
Q 53.90625 64.015625 53.90625 55.328125 
Q 53.90625 49.265625 50.4375 45.09375 
Q 46.96875 40.921875 40.578125 39.3125 
z
" id="DejaVuSans-51"/>
      </defs>
      <g transform="translate(63.747344 240.799657)scale(0.1 -0.1)">
       <use xlink:href="#DejaVuSans-51"/>
       <use x="63.623047" xlink:href="#DejaVuSans-48"/>
      </g>
     </g>
    </g>
    <g id="ytick_5">
     <g id="line2d_11">
      <g>
       <use style="stroke:#000000;stroke-width:0.8;" x="83.472344" xlink:href="#m927957c216" y="198.609195"/>
      </g>
     </g>
     <g id="text_11">
      <!-- 40 -->
      <defs>
       <path d="M 37.796875 64.3125 
L 12.890625 25.390625 
L 37.796875 25.390625 
z
M 35.203125 72.90625 
L 47.609375 72.90625 
L 47.609375 25.390625 
L 58.015625 25.390625 
L 58.015625 17.1875 
L 47.609375 17.1875 
L 47.609375 0 
L 37.796875 0 
L 37.796875 17.1875 
L 4.890625 17.1875 
L 4.890625 26.703125 
z
" id="DejaVuSans-52"/>
      </defs>
      <g transform="translate(63.747344 202.408414)scale(0.1 -0.1)">
       <use xlink:href="#DejaVuSans-52"/>
       <use x="63.623047" xlink:href="#DejaVuSans-48"/>
      </g>
     </g>
    </g>
    <g id="ytick_6">
     <g id="line2d_12">
      <g>
       <use style="stroke:#000000;stroke-width:0.8;" x="83.472344" xlink:href="#m927957c216" y="160.217952"/>
      </g>
     </g>
     <g id="text_12">
      <!-- 50 -->
      <g transform="translate(63.747344 164.017171)scale(0.1 -0.1)">
       <use xlink:href="#DejaVuSans-53"/>
       <use x="63.623047" xlink:href="#DejaVuSans-48"/>
      </g>
     </g>
    </g>
    <g id="ytick_7">
     <g id="line2d_13">
      <g>
       <use style="stroke:#000000;stroke-width:0.8;" x="83.472344" xlink:href="#m927957c216" y="121.826709"/>
      </g>
     </g>
     <g id="text_13">
      <!-- 60 -->
      <defs>
       <path d="M 33.015625 40.375 
Q 26.375 40.375 22.484375 35.828125 
Q 18.609375 31.296875 18.609375 23.390625 
Q 18.609375 15.53125 22.484375 10.953125 
Q 26.375 6.390625 33.015625 6.390625 
Q 39.65625 6.390625 43.53125 10.953125 
Q 47.40625 15.53125 47.40625 23.390625 
Q 47.40625 31.296875 43.53125 35.828125 
Q 39.65625 40.375 33.015625 40.375 
z
M 52.59375 71.296875 
L 52.59375 62.3125 
Q 48.875 64.0625 45.09375 64.984375 
Q 41.3125 65.921875 37.59375 65.921875 
Q 27.828125 65.921875 22.671875 59.328125 
Q 17.53125 52.734375 16.796875 39.40625 
Q 19.671875 43.65625 24.015625 45.921875 
Q 28.375 48.1875 33.59375 48.1875 
Q 44.578125 48.1875 50.953125 41.515625 
Q 57.328125 34.859375 57.328125 23.390625 
Q 57.328125 12.15625 50.6875 5.359375 
Q 44.046875 -1.421875 33.015625 -1.421875 
Q 20.359375 -1.421875 13.671875 8.265625 
Q 6.984375 17.96875 6.984375 36.375 
Q 6.984375 53.65625 15.1875 63.9375 
Q 23.390625 74.21875 37.203125 74.21875 
Q 40.921875 74.21875 44.703125 73.484375 
Q 48.484375 72.75 52.59375 71.296875 
z
" id="DejaVuSans-54"/>
      </defs>
      <g transform="translate(63.747344 125.625928)scale(0.1 -0.1)">
       <use xlink:href="#DejaVuSans-54"/>
       <use x="63.623047" xlink:href="#DejaVuSans-48"/>
      </g>
     </g>
    </g>
    <g id="ytick_8">
     <g id="line2d_14">
      <g>
       <use style="stroke:#000000;stroke-width:0.8;" x="83.472344" xlink:href="#m927957c216" y="83.435466"/>
      </g>
     </g>
     <g id="text_14">
      <!-- 70 -->
      <defs>
       <path d="M 8.203125 72.90625 
L 55.078125 72.90625 
L 55.078125 68.703125 
L 28.609375 0 
L 18.3125 0 
L 43.21875 64.59375 
L 8.203125 64.59375 
z
" id="DejaVuSans-55"/>
      </defs>
      <g transform="translate(63.747344 87.234685)scale(0.1 -0.1)">
       <use xlink:href="#DejaVuSans-55"/>
       <use x="63.623047" xlink:href="#DejaVuSans-48"/>
      </g>
     </g>
    </g>
    <g id="ytick_9">
     <g id="line2d_15">
      <g>
       <use style="stroke:#000000;stroke-width:0.8;" x="83.472344" xlink:href="#m927957c216" y="45.044223"/>
      </g>
     </g>
     <g id="text_15">
      <!-- 80 -->
      <defs>
       <path d="M 31.78125 34.625 
Q 24.75 34.625 20.71875 30.859375 
Q 16.703125 27.09375 16.703125 20.515625 
Q 16.703125 13.921875 20.71875 10.15625 
Q 24.75 6.390625 31.78125 6.390625 
Q 38.8125 6.390625 42.859375 10.171875 
Q 46.921875 13.96875 46.921875 20.515625 
Q 46.921875 27.09375 42.890625 30.859375 
Q 38.875 34.625 31.78125 34.625 
z
M 21.921875 38.8125 
Q 15.578125 40.375 12.03125 44.71875 
Q 8.5 49.078125 8.5 55.328125 
Q 8.5 64.0625 14.71875 69.140625 
Q 20.953125 74.21875 31.78125 74.21875 
Q 42.671875 74.21875 48.875 69.140625 
Q 55.078125 64.0625 55.078125 55.328125 
Q 55.078125 49.078125 51.53125 44.71875 
Q 48 40.375 41.703125 38.8125 
Q 48.828125 37.15625 52.796875 32.3125 
Q 56.78125 27.484375 56.78125 20.515625 
Q 56.78125 9.90625 50.3125 4.234375 
Q 43.84375 -1.421875 31.78125 -1.421875 
Q 19.734375 -1.421875 13.25 4.234375 
Q 6.78125 9.90625 6.78125 20.515625 
Q 6.78125 27.484375 10.78125 32.3125 
Q 14.796875 37.15625 21.921875 38.8125 
z
M 18.3125 54.390625 
Q 18.3125 48.734375 21.84375 45.5625 
Q 25.390625 42.390625 31.78125 42.390625 
Q 38.140625 42.390625 41.71875 45.5625 
Q 45.3125 48.734375 45.3125 54.390625 
Q 45.3125 60.0625 41.71875 63.234375 
Q 38.140625 66.40625 31.78125 66.40625 
Q 25.390625 66.40625 21.84375 63.234375 
Q 18.3125 60.0625 18.3125 54.390625 
z
" id="DejaVuSans-56"/>
      </defs>
      <g transform="translate(63.747344 48.843442)scale(0.1 -0.1)">
       <use xlink:href="#DejaVuSans-56"/>
       <use x="63.623047" xlink:href="#DejaVuSans-48"/>
      </g>
     </g>
    </g>
    <g id="text_16">
     <!-- throughput -->
     <defs>
      <path d="M 18.3125 70.21875 
L 18.3125 54.6875 
L 36.8125 54.6875 
L 36.8125 47.703125 
L 18.3125 47.703125 
L 18.3125 18.015625 
Q 18.3125 11.328125 20.140625 9.421875 
Q 21.96875 7.515625 27.59375 7.515625 
L 36.8125 7.515625 
L 36.8125 0 
L 27.59375 0 
Q 17.1875 0 13.234375 3.875 
Q 9.28125 7.765625 9.28125 18.015625 
L 9.28125 47.703125 
L 2.6875 47.703125 
L 2.6875 54.6875 
L 9.28125 54.6875 
L 9.28125 70.21875 
z
" id="DejaVuSans-116"/>
      <path d="M 54.890625 33.015625 
L 54.890625 0 
L 45.90625 0 
L 45.90625 32.71875 
Q 45.90625 40.484375 42.875 44.328125 
Q 39.84375 48.1875 33.796875 48.1875 
Q 26.515625 48.1875 22.3125 43.546875 
Q 18.109375 38.921875 18.109375 30.90625 
L 18.109375 0 
L 9.078125 0 
L 9.078125 75.984375 
L 18.109375 75.984375 
L 18.109375 46.1875 
Q 21.34375 51.125 25.703125 53.5625 
Q 30.078125 56 35.796875 56 
Q 45.21875 56 50.046875 50.171875 
Q 54.890625 44.34375 54.890625 33.015625 
z
" id="DejaVuSans-104"/>
      <path d="M 41.109375 46.296875 
Q 39.59375 47.171875 37.8125 47.578125 
Q 36.03125 48 33.890625 48 
Q 26.265625 48 22.1875 43.046875 
Q 18.109375 38.09375 18.109375 28.8125 
L 18.109375 0 
L 9.078125 0 
L 9.078125 54.6875 
L 18.109375 54.6875 
L 18.109375 46.1875 
Q 20.953125 51.171875 25.484375 53.578125 
Q 30.03125 56 36.53125 56 
Q 37.453125 56 38.578125 55.875 
Q 39.703125 55.765625 41.0625 55.515625 
z
" id="DejaVuSans-114"/>
      <path d="M 30.609375 48.390625 
Q 23.390625 48.390625 19.1875 42.75 
Q 14.984375 37.109375 14.984375 27.296875 
Q 14.984375 17.484375 19.15625 11.84375 
Q 23.34375 6.203125 30.609375 6.203125 
Q 37.796875 6.203125 41.984375 11.859375 
Q 46.1875 17.53125 46.1875 27.296875 
Q 46.1875 37.015625 41.984375 42.703125 
Q 37.796875 48.390625 30.609375 48.390625 
z
M 30.609375 56 
Q 42.328125 56 49.015625 48.375 
Q 55.71875 40.765625 55.71875 27.296875 
Q 55.71875 13.875 49.015625 6.21875 
Q 42.328125 -1.421875 30.609375 -1.421875 
Q 18.84375 -1.421875 12.171875 6.21875 
Q 5.515625 13.875 5.515625 27.296875 
Q 5.515625 40.765625 12.171875 48.375 
Q 18.84375 56 30.609375 56 
z
" id="DejaVuSans-111"/>
      <path d="M 8.5 21.578125 
L 8.5 54.6875 
L 17.484375 54.6875 
L 17.484375 21.921875 
Q 17.484375 14.15625 20.5 10.265625 
Q 23.53125 6.390625 29.59375 6.390625 
Q 36.859375 6.390625 41.078125 11.03125 
Q 45.3125 15.671875 45.3125 23.6875 
L 45.3125 54.6875 
L 54.296875 54.6875 
L 54.296875 0 
L 45.3125 0 
L 45.3125 8.40625 
Q 42.046875 3.421875 37.71875 1 
Q 33.40625 -1.421875 27.6875 -1.421875 
Q 18.265625 -1.421875 13.375 4.4375 
Q 8.5 10.296875 8.5 21.578125 
z
M 31.109375 56 
z
" id="DejaVuSans-117"/>
      <path d="M 45.40625 27.984375 
Q 45.40625 37.75 41.375 43.109375 
Q 37.359375 48.484375 30.078125 48.484375 
Q 22.859375 48.484375 18.828125 43.109375 
Q 14.796875 37.75 14.796875 27.984375 
Q 14.796875 18.265625 18.828125 12.890625 
Q 22.859375 7.515625 30.078125 7.515625 
Q 37.359375 7.515625 41.375 12.890625 
Q 45.40625 18.265625 45.40625 27.984375 
z
M 54.390625 6.78125 
Q 54.390625 -7.171875 48.1875 -13.984375 
Q 42 -20.796875 29.203125 -20.796875 
Q 24.46875 -20.796875 20.265625 -20.09375 
Q 16.0625 -19.390625 12.109375 -17.921875 
L 12.109375 -9.1875 
Q 16.0625 -11.328125 19.921875 -12.34375 
Q 23.78125 -13.375 27.78125 -13.375 
Q 36.625 -13.375 41.015625 -8.765625 
Q 45.40625 -4.15625 45.40625 5.171875 
L 45.40625 9.625 
Q 42.625 4.78125 38.28125 2.390625 
Q 33.9375 0 27.875 0 
Q 17.828125 0 11.671875 7.65625 
Q 5.515625 15.328125 5.515625 27.984375 
Q 5.515625 40.671875 11.671875 48.328125 
Q 17.828125 56 27.875 56 
Q 33.9375 56 38.28125 53.609375 
Q 42.625 51.21875 45.40625 46.390625 
L 45.40625 54.6875 
L 54.390625 54.6875 
z
" id="DejaVuSans-103"/>
      <path d="M 18.109375 8.203125 
L 18.109375 -20.796875 
L 9.078125 -20.796875 
L 9.078125 54.6875 
L 18.109375 54.6875 
L 18.109375 46.390625 
Q 20.953125 51.265625 25.265625 53.625 
Q 29.59375 56 35.59375 56 
Q 45.5625 56 51.78125 48.09375 
Q 58.015625 40.1875 58.015625 27.296875 
Q 58.015625 14.40625 51.78125 6.484375 
Q 45.5625 -1.421875 35.59375 -1.421875 
Q 29.59375 -1.421875 25.265625 0.953125 
Q 20.953125 3.328125 18.109375 8.203125 
z
M 48.6875 27.296875 
Q 48.6875 37.203125 44.609375 42.84375 
Q 40.53125 48.484375 33.40625 48.484375 
Q 26.265625 48.484375 22.1875 42.84375 
Q 18.109375 37.203125 18.109375 27.296875 
Q 18.109375 17.390625 22.1875 11.75 
Q 26.265625 6.109375 33.40625 6.109375 
Q 40.53125 6.109375 44.609375 11.75 
Q 48.6875 17.390625 48.6875 27.296875 
z
" id="DejaVuSans-112"/>
     </defs>
     <g transform="translate(46.469844 221.675365)rotate(-90)scale(0.1 -0.1)">
      <use xlink:href="#DejaVuSans-116"/>
      <use x="39.208984" xlink:href="#DejaVuSans-104"/>
      <use x="102.587891" xlink:href="#DejaVuSans-114"/>
      <use x="143.669922" xlink:href="#DejaVuSans-111"/>
      <use x="204.851562" xlink:href="#DejaVuSans-117"/>
      <use x="268.230469" xlink:href="#DejaVuSans-103"/>
      <use x="331.707031" xlink:href="#DejaVuSans-104"/>
      <use x="395.085938" xlink:href="#DejaVuSans-112"/>
      <use x="458.5625" xlink:href="#DejaVuSans-117"/>
      <use x="521.941406" xlink:href="#DejaVuSans-116"/>
     </g>
     <!-- (mbit / second) -->
     <defs>
      <path d="M 31 75.875 
Q 24.46875 64.65625 21.28125 53.65625 
Q 18.109375 42.671875 18.109375 31.390625 
Q 18.109375 20.125 21.3125 9.0625 
Q 24.515625 -2 31 -13.1875 
L 23.1875 -13.1875 
Q 15.875 -1.703125 12.234375 9.375 
Q 8.59375 20.453125 8.59375 31.390625 
Q 8.59375 42.28125 12.203125 53.3125 
Q 15.828125 64.359375 23.1875 75.875 
z
" id="DejaVuSans-40"/>
      <path d="M 52 44.1875 
Q 55.375 50.25 60.0625 53.125 
Q 64.75 56 71.09375 56 
Q 79.640625 56 84.28125 50.015625 
Q 88.921875 44.046875 88.921875 33.015625 
L 88.921875 0 
L 79.890625 0 
L 79.890625 32.71875 
Q 79.890625 40.578125 77.09375 44.375 
Q 74.3125 48.1875 68.609375 48.1875 
Q 61.625 48.1875 57.5625 43.546875 
Q 53.515625 38.921875 53.515625 30.90625 
L 53.515625 0 
L 44.484375 0 
L 44.484375 32.71875 
Q 44.484375 40.625 41.703125 44.40625 
Q 38.921875 48.1875 33.109375 48.1875 
Q 26.21875 48.1875 22.15625 43.53125 
Q 18.109375 38.875 18.109375 30.90625 
L 18.109375 0 
L 9.078125 0 
L 9.078125 54.6875 
L 18.109375 54.6875 
L 18.109375 46.1875 
Q 21.1875 51.21875 25.484375 53.609375 
Q 29.78125 56 35.6875 56 
Q 41.65625 56 45.828125 52.96875 
Q 50 49.953125 52 44.1875 
z
" id="DejaVuSans-109"/>
      <path d="M 48.6875 27.296875 
Q 48.6875 37.203125 44.609375 42.84375 
Q 40.53125 48.484375 33.40625 48.484375 
Q 26.265625 48.484375 22.1875 42.84375 
Q 18.109375 37.203125 18.109375 27.296875 
Q 18.109375 17.390625 22.1875 11.75 
Q 26.265625 6.109375 33.40625 6.109375 
Q 40.53125 6.109375 44.609375 11.75 
Q 48.6875 17.390625 48.6875 27.296875 
z
M 18.109375 46.390625 
Q 20.953125 51.265625 25.265625 53.625 
Q 29.59375 56 35.59375 56 
Q 45.5625 56 51.78125 48.09375 
Q 58.015625 40.1875 58.015625 27.296875 
Q 58.015625 14.40625 51.78125 6.484375 
Q 45.5625 -1.421875 35.59375 -1.421875 
Q 29.59375 -1.421875 25.265625 0.953125 
Q 20.953125 3.328125 18.109375 8.203125 
L 18.109375 0 
L 9.078125 0 
L 9.078125 75.984375 
L 18.109375 75.984375 
z
" id="DejaVuSans-98"/>
      <path d="M 9.421875 54.6875 
L 18.40625 54.6875 
L 18.40625 0 
L 9.421875 0 
z
M 9.421875 75.984375 
L 18.40625 75.984375 
L 18.40625 64.59375 
L 9.421875 64.59375 
z
" id="DejaVuSans-105"/>
      <path id="DejaVuSans-32"/>
      <path d="M 25.390625 72.90625 
L 33.6875 72.90625 
L 8.296875 -9.28125 
L 0 -9.28125 
z
" id="DejaVuSans-47"/>
      <path d="M 44.28125 53.078125 
L 44.28125 44.578125 
Q 40.484375 46.53125 36.375 47.5 
Q 32.28125 48.484375 27.875 48.484375 
Q 21.1875 48.484375 17.84375 46.4375 
Q 14.5 44.390625 14.5 40.28125 
Q 14.5 37.15625 16.890625 35.375 
Q 19.28125 33.59375 26.515625 31.984375 
L 29.59375 31.296875 
Q 39.15625 29.25 43.1875 25.515625 
Q 47.21875 21.78125 47.21875 15.09375 
Q 47.21875 7.46875 41.1875 3.015625 
Q 35.15625 -1.421875 24.609375 -1.421875 
Q 20.21875 -1.421875 15.453125 -0.5625 
Q 10.6875 0.296875 5.421875 2 
L 5.421875 11.28125 
Q 10.40625 8.6875 15.234375 7.390625 
Q 20.0625 6.109375 24.8125 6.109375 
Q 31.15625 6.109375 34.5625 8.28125 
Q 37.984375 10.453125 37.984375 14.40625 
Q 37.984375 18.0625 35.515625 20.015625 
Q 33.0625 21.96875 24.703125 23.78125 
L 21.578125 24.515625 
Q 13.234375 26.265625 9.515625 29.90625 
Q 5.8125 33.546875 5.8125 39.890625 
Q 5.8125 47.609375 11.28125 51.796875 
Q 16.75 56 26.8125 56 
Q 31.78125 56 36.171875 55.265625 
Q 40.578125 54.546875 44.28125 53.078125 
z
" id="DejaVuSans-115"/>
      <path d="M 56.203125 29.59375 
L 56.203125 25.203125 
L 14.890625 25.203125 
Q 15.484375 15.921875 20.484375 11.0625 
Q 25.484375 6.203125 34.421875 6.203125 
Q 39.59375 6.203125 44.453125 7.46875 
Q 49.3125 8.734375 54.109375 11.28125 
L 54.109375 2.78125 
Q 49.265625 0.734375 44.1875 -0.34375 
Q 39.109375 -1.421875 33.890625 -1.421875 
Q 20.796875 -1.421875 13.15625 6.1875 
Q 5.515625 13.8125 5.515625 26.8125 
Q 5.515625 40.234375 12.765625 48.109375 
Q 20.015625 56 32.328125 56 
Q 43.359375 56 49.78125 48.890625 
Q 56.203125 41.796875 56.203125 29.59375 
z
M 47.21875 32.234375 
Q 47.125 39.59375 43.09375 43.984375 
Q 39.0625 48.390625 32.421875 48.390625 
Q 24.90625 48.390625 20.390625 44.140625 
Q 15.875 39.890625 15.1875 32.171875 
z
" id="DejaVuSans-101"/>
      <path d="M 48.78125 52.59375 
L 48.78125 44.1875 
Q 44.96875 46.296875 41.140625 47.34375 
Q 37.3125 48.390625 33.40625 48.390625 
Q 24.65625 48.390625 19.8125 42.84375 
Q 14.984375 37.3125 14.984375 27.296875 
Q 14.984375 17.28125 19.8125 11.734375 
Q 24.65625 6.203125 33.40625 6.203125 
Q 37.3125 6.203125 41.140625 7.25 
Q 44.96875 8.296875 48.78125 10.40625 
L 48.78125 2.09375 
Q 45.015625 0.34375 40.984375 -0.53125 
Q 36.96875 -1.421875 32.421875 -1.421875 
Q 20.0625 -1.421875 12.78125 6.34375 
Q 5.515625 14.109375 5.515625 27.296875 
Q 5.515625 40.671875 12.859375 48.328125 
Q 20.21875 56 33.015625 56 
Q 37.15625 56 41.109375 55.140625 
Q 45.0625 54.296875 48.78125 52.59375 
z
" id="DejaVuSans-99"/>
      <path d="M 54.890625 33.015625 
L 54.890625 0 
L 45.90625 0 
L 45.90625 32.71875 
Q 45.90625 40.484375 42.875 44.328125 
Q 39.84375 48.1875 33.796875 48.1875 
Q 26.515625 48.1875 22.3125 43.546875 
Q 18.109375 38.921875 18.109375 30.90625 
L 18.109375 0 
L 9.078125 0 
L 9.078125 54.6875 
L 18.109375 54.6875 
L 18.109375 46.1875 
Q 21.34375 51.125 25.703125 53.5625 
Q 30.078125 56 35.796875 56 
Q 45.21875 56 50.046875 50.171875 
Q 54.890625 44.34375 54.890625 33.015625 
z
" id="DejaVuSans-110"/>
      <path d="M 45.40625 46.390625 
L 45.40625 75.984375 
L 54.390625 75.984375 
L 54.390625 0 
L 45.40625 0 
L 45.40625 8.203125 
Q 42.578125 3.328125 38.25 0.953125 
Q 33.9375 -1.421875 27.875 -1.421875 
Q 17.96875 -1.421875 11.734375 6.484375 
Q 5.515625 14.40625 5.515625 27.296875 
Q 5.515625 40.1875 11.734375 48.09375 
Q 17.96875 56 27.875 56 
Q 33.9375 56 38.25 53.625 
Q 42.578125 51.265625 45.40625 46.390625 
z
M 14.796875 27.296875 
Q 14.796875 17.390625 18.875 11.75 
Q 22.953125 6.109375 30.078125 6.109375 
Q 37.203125 6.109375 41.296875 11.75 
Q 45.40625 17.390625 45.40625 27.296875 
Q 45.40625 37.203125 41.296875 42.84375 
Q 37.203125 48.484375 30.078125 48.484375 
Q 22.953125 48.484375 18.875 42.84375 
Q 14.796875 37.203125 14.796875 27.296875 
z
" id="DejaVuSans-100"/>
      <path d="M 8.015625 75.875 
L 15.828125 75.875 
Q 23.140625 64.359375 26.78125 53.3125 
Q 30.421875 42.28125 30.421875 31.390625 
Q 30.421875 20.453125 26.78125 9.375 
Q 23.140625 -1.703125 15.828125 -13.1875 
L 8.015625 -13.1875 
Q 14.5 -2 17.703125 9.0625 
Q 20.90625 20.125 20.90625 31.390625 
Q 20.90625 42.671875 17.703125 53.65625 
Q 14.5 64.65625 8.015625 75.875 
z
" id="DejaVuSans-41"/>
     </defs>
     <g transform="translate(57.667656 231.608958)rotate(-90)scale(0.1 -0.1)">
      <use xlink:href="#DejaVuSans-40"/>
      <use x="39.013672" xlink:href="#DejaVuSans-109"/>
      <use x="136.425781" xlink:href="#DejaVuSans-98"/>
      <use x="199.902344" xlink:href="#DejaVuSans-105"/>
      <use x="227.685547" xlink:href="#DejaVuSans-116"/>
      <use x="266.894531" xlink:href="#DejaVuSans-32"/>
      <use x="298.681641" xlink:href="#DejaVuSans-47"/>
      <use x="332.373047" xlink:href="#DejaVuSans-32"/>
      <use x="364.160156" xlink:href="#DejaVuSans-115"/>
      <use x="416.259766" xlink:href="#DejaVuSans-101"/>
      <use x="477.783203" xlink:href="#DejaVuSans-99"/>
      <use x="532.763672" xlink:href="#DejaVuSans-111"/>
      <use x="593.945312" xlink:href="#DejaVuSans-110"/>
      <use x="657.324219" xlink:href="#DejaVuSans-100"/>
      <use x="720.800781" xlink:href="#DejaVuSans-41"/>
     </g>
    </g>
   </g>
   <g id="line2d_16">
    <path clip-path="url(#p1f81eaa23f)" d="M 109.721406 302.265551 
L 110.457843 286.909054 
L 111.930718 279.230805 
L 114.140031 290.748178 
L 115.612906 290.748178 
L 116.349343 294.587302 
L 117.822218 286.909054 
L 118.558656 279.230805 
L 119.295093 294.587302 
L 120.03153 286.909054 
L 120.767968 275.391681 
L 121.504405 271.552556 
L 122.240843 286.909054 
L 123.713718 271.552556 
L 124.450155 267.713432 
L 125.186593 260.035184 
L 125.92303 271.552556 
L 126.659468 275.391681 
L 127.395905 263.874308 
L 128.132343 260.035184 
L 129.605218 244.678686 
L 130.341655 240.839562 
L 131.078093 233.161314 
L 131.81453 252.356935 
L 132.550968 256.196059 
L 133.287405 263.874308 
L 134.023843 263.874308 
L 134.76028 260.035184 
L 135.496718 271.552556 
L 136.233155 271.552556 
L 136.969593 267.713432 
L 137.70603 275.391681 
L 138.442467 275.391681 
L 139.178905 271.552556 
L 139.915342 286.909054 
L 141.388217 294.587302 
L 142.124655 279.230805 
L 143.59753 271.552556 
L 144.333967 271.552556 
L 145.070405 275.391681 
L 145.806842 275.391681 
L 146.54328 256.196059 
L 147.279717 256.196059 
L 148.016155 263.874308 
L 148.752592 267.713432 
L 149.48903 267.713432 
L 150.225467 260.035184 
L 150.961905 248.517811 
L 151.698342 248.517811 
L 152.43478 240.839562 
L 153.171217 248.517811 
L 153.907655 252.356935 
L 154.644092 252.356935 
L 156.116967 260.035184 
L 157.589842 283.069929 
L 158.326279 286.909054 
L 159.062717 286.909054 
L 159.799154 290.748178 
L 160.535592 290.748178 
L 161.272029 275.391681 
L 162.008467 271.552556 
L 162.744904 275.391681 
L 163.481342 286.909054 
L 164.217779 286.909054 
L 164.954217 294.587302 
L 166.427092 279.230805 
L 167.163529 263.874308 
L 168.636404 256.196059 
L 170.109279 271.552556 
L 170.845717 283.069929 
L 171.582154 283.069929 
L 172.318592 271.552556 
L 173.791466 256.196059 
L 174.527904 267.713432 
L 176.000779 267.713432 
L 176.737216 260.035184 
L 177.473654 256.196059 
L 179.682966 221.643941 
L 180.419404 233.161314 
L 181.155841 240.839562 
L 181.892279 244.678686 
L 182.628716 263.874308 
L 183.365154 267.713432 
L 184.101591 275.391681 
L 184.838029 275.391681 
L 185.574466 283.069929 
L 186.310904 286.909054 
L 187.047341 294.587302 
L 187.783779 294.587302 
L 188.520216 283.069929 
L 189.256654 290.748178 
L 189.993091 290.748178 
L 190.729529 302.265551 
L 191.465966 294.587302 
L 192.202403 290.748178 
L 192.938841 271.552556 
L 193.675278 271.552556 
L 194.411716 260.035184 
L 195.148153 252.356935 
L 195.884591 252.356935 
L 196.621028 248.517811 
L 197.357466 256.196059 
L 198.093903 256.196059 
L 198.830341 275.391681 
L 199.566778 275.391681 
L 200.303216 260.035184 
L 201.039653 267.713432 
L 201.776091 271.552556 
L 202.512528 271.552556 
L 203.248966 283.069929 
L 204.721841 275.391681 
L 205.458278 267.713432 
L 206.194716 286.909054 
L 206.931153 275.391681 
L 207.667591 279.230805 
L 208.404028 290.748178 
L 209.140466 298.426427 
L 209.876903 298.426427 
L 210.61334 283.069929 
L 212.086215 290.748178 
L 212.822653 290.748178 
L 213.55909 271.552556 
L 215.031965 263.874308 
L 215.768403 256.196059 
L 216.50484 263.874308 
L 217.241278 263.874308 
L 217.977715 271.552556 
L 218.714153 283.069929 
L 219.45059 290.748178 
L 220.187028 294.587302 
L 220.923465 302.265551 
L 221.659903 298.426427 
L 222.39634 286.909054 
L 223.132778 286.909054 
L 223.869215 275.391681 
L 224.605653 271.552556 
L 225.34209 279.230805 
L 226.078528 279.230805 
L 226.814965 267.713432 
L 227.551403 263.874308 
L 228.28784 271.552556 
L 229.024277 271.552556 
L 229.760715 275.391681 
L 230.497152 286.909054 
L 231.23359 286.909054 
L 231.970027 290.748178 
L 232.706465 290.748178 
L 233.442902 283.069929 
L 235.652215 306.104675 
L 236.388652 290.748178 
L 237.12509 286.909054 
L 238.597965 271.552556 
L 239.334402 271.552556 
L 240.07084 279.230805 
L 241.543715 286.909054 
L 242.280152 286.909054 
L 243.01659 275.391681 
L 243.753027 271.552556 
L 244.489465 256.196059 
L 245.225902 263.874308 
L 245.962339 267.713432 
L 246.698777 267.713432 
L 247.435214 279.230805 
L 248.171652 283.069929 
L 248.908089 260.035184 
L 249.644527 260.035184 
L 250.380964 256.196059 
L 251.117402 248.517811 
L 251.853839 271.552556 
L 252.590277 263.874308 
L 253.326714 244.678686 
L 254.799589 244.678686 
L 255.536027 256.196059 
L 256.272464 263.874308 
L 257.008902 279.230805 
L 257.745339 286.909054 
L 258.481777 290.748178 
L 259.218214 283.069929 
L 259.954652 290.748178 
L 260.691089 294.587302 
L 261.427527 286.909054 
L 262.163964 283.069929 
L 262.900402 290.748178 
L 263.636839 294.587302 
L 264.373276 302.265551 
L 265.846151 302.265551 
L 267.319026 286.909054 
L 268.791901 294.587302 
L 269.528339 302.265551 
L 270.264776 302.265551 
L 271.001214 283.069929 
L 271.737651 279.230805 
L 272.474089 271.552556 
L 273.210526 260.035184 
L 273.946964 260.035184 
L 274.683401 271.552556 
L 275.419839 279.230805 
L 276.156276 290.748178 
L 276.892714 290.748178 
L 278.365589 306.104675 
L 279.102026 306.104675 
L 279.838464 309.943799 
L 280.574901 306.104675 
L 281.311339 290.748178 
L 282.047776 283.069929 
L 282.784213 283.069929 
L 283.520651 263.874308 
L 284.257088 263.874308 
L 285.729963 279.230805 
L 286.466401 271.552556 
L 287.202838 271.552556 
L 287.939276 283.069929 
L 289.412151 275.391681 
L 291.621463 275.391681 
L 292.357901 267.713432 
L 293.094338 252.356935 
L 293.830776 256.196059 
L 294.567213 267.713432 
L 297.512963 267.713432 
L 298.249401 256.196059 
L 298.985838 256.196059 
L 299.722276 260.035184 
L 300.458713 256.196059 
L 301.19515 260.035184 
L 301.931588 283.069929 
L 302.668025 271.552556 
L 304.877338 294.587302 
L 305.613775 290.748178 
L 306.350213 290.748178 
L 307.08665 294.587302 
L 307.823088 294.587302 
L 308.559525 298.426427 
L 309.295963 294.587302 
L 310.0324 294.587302 
L 310.768838 290.748178 
L 311.505275 290.748178 
L 312.241713 286.909054 
L 313.714588 286.909054 
L 314.451025 294.587302 
L 315.187463 290.748178 
L 315.9239 309.943799 
L 316.660338 313.782924 
L 318.133212 306.104675 
L 318.86965 309.943799 
L 321.8154 279.230805 
L 322.551837 267.713432 
L 323.288275 263.874308 
L 324.024712 283.069929 
L 324.76115 263.874308 
L 325.497587 263.874308 
L 326.234025 260.035184 
L 326.970462 252.356935 
L 327.7069 252.356935 
L 328.443337 256.196059 
L 329.179775 256.196059 
L 329.916212 267.713432 
L 330.65265 275.391681 
L 331.389087 286.909054 
L 332.125525 286.909054 
L 332.861962 275.391681 
L 333.5984 267.713432 
L 334.334837 256.196059 
L 335.071275 256.196059 
L 335.807712 244.678686 
L 336.544149 256.196059 
L 337.280587 263.874308 
L 338.017024 252.356935 
L 338.753462 252.356935 
L 339.489899 263.874308 
L 340.226337 263.874308 
L 341.699212 279.230805 
L 342.435649 267.713432 
L 343.172087 267.713432 
L 343.908524 256.196059 
L 344.644962 252.356935 
L 345.381399 252.356935 
L 346.117837 260.035184 
L 346.854274 260.035184 
L 349.800024 229.322189 
L 350.536462 244.678686 
L 351.272899 244.678686 
L 352.009337 256.196059 
L 352.745774 260.035184 
L 353.482212 260.035184 
L 354.218649 271.552556 
L 354.955086 271.552556 
L 355.691524 267.713432 
L 356.427961 256.196059 
L 357.164399 260.035184 
L 357.900836 275.391681 
L 358.637274 275.391681 
L 359.373711 283.069929 
L 360.110149 294.587302 
L 360.846586 294.587302 
L 361.583024 302.265551 
L 362.319461 298.426427 
L 363.055899 279.230805 
L 363.792336 283.069929 
L 364.528774 290.748178 
L 365.265211 286.909054 
L 366.001649 275.391681 
L 366.738086 267.713432 
L 367.474524 271.552556 
L 368.210961 283.069929 
L 368.947399 275.391681 
L 369.683836 271.552556 
L 370.420274 263.874308 
L 371.156711 260.035184 
L 371.893149 263.874308 
L 372.629586 263.874308 
L 373.366023 271.552556 
L 374.102461 275.391681 
L 374.838898 275.391681 
L 376.311773 283.069929 
L 377.048211 275.391681 
L 377.784648 271.552556 
L 378.521086 252.356935 
L 379.257523 248.517811 
L 379.993961 252.356935 
L 380.730398 252.356935 
L 381.466836 256.196059 
L 382.203273 267.713432 
L 383.676148 283.069929 
L 385.149023 283.069929 
L 385.885461 271.552556 
L 386.621898 263.874308 
L 387.358336 275.391681 
L 388.094773 279.230805 
L 388.831211 263.874308 
L 389.567648 267.713432 
L 390.304085 275.391681 
L 391.040523 275.391681 
L 391.77696 263.874308 
L 392.513398 263.874308 
L 393.249835 279.230805 
L 393.986273 279.230805 
L 394.72271 290.748178 
L 395.459148 286.909054 
L 396.195585 275.391681 
L 396.932023 271.552556 
L 398.404898 279.230805 
L 399.141335 267.713432 
L 399.877773 263.874308 
L 400.61421 263.874308 
L 401.350648 267.713432 
L 402.823523 267.713432 
L 403.55996 271.552556 
L 404.296398 271.552556 
L 405.769273 279.230805 
L 406.50571 279.230805 
L 407.242148 275.391681 
L 407.978585 286.909054 
L 408.715022 279.230805 
L 409.45146 267.713432 
L 410.187897 267.713432 
L 411.660772 244.678686 
L 412.39721 237.000438 
L 413.133647 244.678686 
L 413.870085 240.839562 
L 416.815835 256.196059 
L 417.552272 252.356935 
L 418.28871 244.678686 
L 419.025147 244.678686 
L 419.761585 260.035184 
L 420.498022 263.874308 
L 421.23446 279.230805 
L 421.970897 275.391681 
L 422.707335 283.069929 
L 423.443772 283.069929 
L 424.18021 275.391681 
L 424.916647 263.874308 
L 425.653085 260.035184 
L 426.389522 248.517811 
L 427.125959 244.678686 
L 428.598834 221.643941 
L 430.071709 244.678686 
L 430.808147 260.035184 
L 431.544584 267.713432 
L 432.281022 256.196059 
L 433.017459 256.196059 
L 433.753897 263.874308 
L 434.490334 263.874308 
L 435.226772 275.391681 
L 435.963209 283.069929 
L 436.699647 267.713432 
L 437.436084 267.713432 
L 438.172522 256.196059 
L 438.908959 248.517811 
L 439.645397 260.035184 
L 440.381834 263.874308 
L 441.118272 271.552556 
L 442.591147 279.230805 
L 443.327584 286.909054 
L 444.064022 290.748178 
L 444.800459 290.748178 
L 445.536896 286.909054 
L 446.273334 279.230805 
L 447.009771 283.069929 
L 447.746209 283.069929 
L 448.482646 279.230805 
L 449.955521 263.874308 
L 450.691959 267.713432 
L 451.428396 279.230805 
L 452.164834 267.713432 
L 452.901271 263.874308 
L 453.637709 256.196059 
L 454.374146 271.552556 
L 455.110584 271.552556 
L 456.583459 279.230805 
L 457.319896 275.391681 
L 458.056334 263.874308 
L 459.529209 271.552556 
L 460.265646 271.552556 
L 461.002084 267.713432 
L 461.738521 283.069929 
L 462.474958 286.909054 
L 463.211396 298.426427 
L 463.947833 290.748178 
L 464.684271 279.230805 
L 466.157146 309.943799 
L 466.893583 298.426427 
L 467.630021 298.426427 
L 468.366458 302.265551 
L 469.102896 298.426427 
L 469.839333 306.104675 
L 470.575771 298.426427 
L 471.312208 286.909054 
L 472.048646 283.069929 
L 472.785083 271.552556 
L 473.521521 267.713432 
L 474.257958 256.196059 
L 474.994396 256.196059 
L 475.730833 240.839562 
L 476.467271 237.000438 
L 477.203708 225.483065 
L 479.413021 237.000438 
L 480.149458 252.356935 
L 480.885895 260.035184 
L 481.622333 260.035184 
L 483.095208 267.713432 
L 483.831645 275.391681 
L 484.568083 279.230805 
L 485.30452 286.909054 
L 486.040958 286.909054 
L 486.777395 294.587302 
L 487.513833 294.587302 
L 488.986708 279.230805 
L 489.723145 279.230805 
L 490.459583 283.069929 
L 491.19602 283.069929 
L 491.932458 290.748178 
L 492.668895 290.748178 
L 494.14177 275.391681 
L 494.878208 294.587302 
L 495.614645 302.265551 
L 496.351083 298.426427 
L 497.08752 298.426427 
L 497.823958 294.587302 
L 498.560395 294.587302 
L 499.296832 286.909054 
L 500.03327 298.426427 
L 500.769707 298.426427 
L 501.506145 306.104675 
L 502.242582 294.587302 
L 502.97902 290.748178 
L 503.715457 294.587302 
L 504.451895 294.587302 
L 505.188332 283.069929 
L 505.92477 279.230805 
L 506.661207 290.748178 
L 506.661207 290.748178 
" style="fill:none;stroke:#1f77b4;stroke-linecap:square;stroke-width:1.5;"/>
   </g>
   <g id="line2d_17">
    <path clip-path="url(#p1f81eaa23f)" d="M 106.836044 298.426427 
L 107.572481 252.356935 
L 108.308919 244.678686 
L 109.045356 240.839562 
L 109.781794 260.035184 
L 110.518231 263.874308 
L 111.254669 260.035184 
L 111.991106 267.713432 
L 112.727544 294.587302 
L 113.463981 294.587302 
L 114.200419 275.391681 
L 114.936856 271.552556 
L 116.409731 279.230805 
L 117.146168 279.230805 
L 117.882606 275.391681 
L 118.619043 267.713432 
L 119.355481 256.196059 
L 120.091918 279.230805 
L 120.828356 286.909054 
L 121.564793 290.748178 
L 122.301231 298.426427 
L 123.774106 283.069929 
L 124.510543 290.748178 
L 125.246981 294.587302 
L 125.983418 283.069929 
L 126.719856 283.069929 
L 127.456293 267.713432 
L 128.192731 275.391681 
L 128.929168 290.748178 
L 129.665606 298.426427 
L 131.138481 283.069929 
L 131.874918 271.552556 
L 133.347793 279.230805 
L 134.08423 279.230805 
L 134.820668 275.391681 
L 135.557105 286.909054 
L 136.293543 283.069929 
L 137.02998 271.552556 
L 137.766418 256.196059 
L 138.502855 260.035184 
L 139.239293 252.356935 
L 139.97573 240.839562 
L 140.712168 252.356935 
L 142.185043 267.713432 
L 143.657918 275.391681 
L 144.394355 290.748178 
L 145.130793 294.587302 
L 147.340105 294.587302 
L 148.076543 298.426427 
L 148.81298 298.426427 
L 149.549418 294.587302 
L 150.285855 286.909054 
L 151.022292 275.391681 
L 151.75873 286.909054 
L 152.495167 306.104675 
L 153.231605 290.748178 
L 154.70448 290.748178 
L 155.440917 286.909054 
L 156.177355 286.909054 
L 156.913792 283.069929 
L 159.123105 283.069929 
L 159.859542 290.748178 
L 162.805292 290.748178 
L 163.54173 283.069929 
L 164.278167 271.552556 
L 165.014605 263.874308 
L 165.751042 271.552556 
L 166.48748 275.391681 
L 167.223917 283.069929 
L 167.960355 283.069929 
L 168.696792 294.587302 
L 169.433229 290.748178 
L 170.169667 290.748178 
L 170.906104 275.391681 
L 171.642542 279.230805 
L 172.378979 286.909054 
L 173.115417 279.230805 
L 173.851854 275.391681 
L 175.324729 283.069929 
L 176.061167 279.230805 
L 176.797604 286.909054 
L 177.534042 290.748178 
L 178.270479 283.069929 
L 179.006917 283.069929 
L 179.743354 286.909054 
L 180.479792 279.230805 
L 181.216229 267.713432 
L 181.952667 267.713432 
L 182.689104 256.196059 
L 184.161979 263.874308 
L 184.898417 263.874308 
L 185.634854 256.196059 
L 186.371292 252.356935 
L 187.107729 233.161314 
L 187.844166 237.000438 
L 188.580604 225.483065 
L 190.053479 248.517811 
L 190.789916 244.678686 
L 191.526354 260.035184 
L 192.262791 263.874308 
L 192.999229 271.552556 
L 193.735666 271.552556 
L 194.472104 279.230805 
L 195.208541 283.069929 
L 195.944979 279.230805 
L 196.681416 283.069929 
L 198.154291 283.069929 
L 198.890729 271.552556 
L 199.627166 271.552556 
L 200.363604 283.069929 
L 201.100041 283.069929 
L 201.836479 286.909054 
L 202.572916 286.909054 
L 203.309354 290.748178 
L 204.045791 290.748178 
L 204.782229 298.426427 
L 205.518666 298.426427 
L 206.255103 294.587302 
L 206.991541 302.265551 
L 207.727978 302.265551 
L 208.464416 309.943799 
L 209.200853 298.426427 
L 209.937291 294.587302 
L 210.673728 279.230805 
L 211.410166 271.552556 
L 212.146603 260.035184 
L 212.883041 260.035184 
L 213.619478 267.713432 
L 214.355916 271.552556 
L 215.092353 263.874308 
L 215.828791 260.035184 
L 216.565228 267.713432 
L 217.301666 267.713432 
L 218.774541 260.035184 
L 219.510978 248.517811 
L 220.247416 244.678686 
L 220.983853 260.035184 
L 221.720291 267.713432 
L 222.456728 279.230805 
L 223.193165 275.391681 
L 223.929603 263.874308 
L 224.66604 260.035184 
L 225.402478 271.552556 
L 226.138915 271.552556 
L 226.875353 279.230805 
L 228.348228 286.909054 
L 229.084665 286.909054 
L 229.821103 290.748178 
L 232.030415 313.782924 
L 233.50329 306.104675 
L 234.239728 294.587302 
L 235.712603 279.230805 
L 236.44904 267.713432 
L 237.185478 263.874308 
L 237.921915 252.356935 
L 238.658353 267.713432 
L 239.39479 275.391681 
L 240.131228 286.909054 
L 240.867665 275.391681 
L 241.604102 267.713432 
L 242.34054 267.713432 
L 243.076977 275.391681 
L 243.813415 275.391681 
L 244.549852 267.713432 
L 245.28629 271.552556 
L 246.022727 279.230805 
L 246.759165 279.230805 
L 247.495602 286.909054 
L 248.23204 286.909054 
L 248.968477 294.587302 
L 249.704915 294.587302 
L 250.441352 286.909054 
L 251.17779 294.587302 
L 252.650665 286.909054 
L 253.387102 294.587302 
L 254.859977 286.909054 
L 255.596415 275.391681 
L 256.332852 275.391681 
L 257.06929 283.069929 
L 258.542165 283.069929 
L 259.278602 290.748178 
L 260.015039 283.069929 
L 260.751477 279.230805 
L 261.487914 294.587302 
L 262.224352 283.069929 
L 262.960789 275.391681 
L 263.697227 271.552556 
L 264.433664 263.874308 
L 265.906539 271.552556 
L 266.642977 267.713432 
L 268.115852 252.356935 
L 268.852289 248.517811 
L 269.588727 225.483065 
L 270.325164 229.322189 
L 271.061602 240.839562 
L 271.798039 244.678686 
L 273.270914 260.035184 
L 274.007352 263.874308 
L 274.743789 275.391681 
L 275.480227 271.552556 
L 276.216664 263.874308 
L 276.953102 275.391681 
L 277.689539 283.069929 
L 278.425976 275.391681 
L 279.162414 271.552556 
L 281.371726 283.069929 
L 282.844601 283.069929 
L 283.581039 290.748178 
L 284.317476 286.909054 
L 285.053914 279.230805 
L 285.790351 275.391681 
L 286.526789 267.713432 
L 287.263226 267.713432 
L 288.736101 283.069929 
L 289.472539 294.587302 
L 290.208976 290.748178 
L 290.945414 290.748178 
L 291.681851 286.909054 
L 292.418289 279.230805 
L 293.154726 267.713432 
L 294.627601 252.356935 
L 295.364039 248.517811 
L 296.100476 248.517811 
L 297.573351 256.196059 
L 298.309788 271.552556 
L 299.046226 271.552556 
L 299.782663 275.391681 
L 301.255538 275.391681 
L 301.991976 267.713432 
L 302.728413 256.196059 
L 303.464851 248.517811 
L 304.201288 244.678686 
L 304.937726 256.196059 
L 306.410601 256.196059 
L 307.147038 271.552556 
L 307.883476 279.230805 
L 313.038538 279.230805 
L 314.511413 286.909054 
L 315.24785 286.909054 
L 316.720725 271.552556 
L 317.457163 286.909054 
L 318.1936 275.391681 
L 318.930038 271.552556 
L 319.666475 279.230805 
L 320.402913 283.069929 
L 321.875788 267.713432 
L 322.612225 279.230805 
L 323.348663 283.069929 
L 324.0851 275.391681 
L 324.821538 283.069929 
L 325.557975 283.069929 
L 326.294413 275.391681 
L 327.03085 271.552556 
L 327.767288 263.874308 
L 328.503725 271.552556 
L 329.240163 271.552556 
L 329.9766 263.874308 
L 330.713038 260.035184 
L 331.449475 248.517811 
L 332.185912 252.356935 
L 332.92235 263.874308 
L 333.658787 271.552556 
L 334.395225 275.391681 
L 335.131662 275.391681 
L 335.8681 263.874308 
L 337.340975 279.230805 
L 338.077412 267.713432 
L 338.81385 267.713432 
L 339.550287 275.391681 
L 340.286725 275.391681 
L 341.7596 260.035184 
L 342.496037 279.230805 
L 343.232475 275.391681 
L 343.968912 263.874308 
L 345.441787 263.874308 
L 346.178225 267.713432 
L 346.914662 267.713432 
L 347.6511 271.552556 
L 348.387537 283.069929 
L 349.123975 290.748178 
L 350.596849 298.426427 
L 352.806162 298.426427 
L 353.542599 294.587302 
L 354.279037 275.391681 
L 355.015474 275.391681 
L 355.751912 271.552556 
L 356.488349 283.069929 
L 357.961224 283.069929 
L 358.697662 290.748178 
L 359.434099 283.069929 
L 360.170537 279.230805 
L 360.906974 271.552556 
L 361.643412 283.069929 
L 362.379849 283.069929 
L 363.116287 286.909054 
L 363.852724 286.909054 
L 364.589162 294.587302 
L 366.798474 294.587302 
L 367.534912 290.748178 
L 368.271349 283.069929 
L 369.744224 290.748178 
L 370.480661 286.909054 
L 371.217099 279.230805 
L 371.953536 283.069929 
L 372.689974 283.069929 
L 374.162849 290.748178 
L 374.899286 290.748178 
L 375.635724 294.587302 
L 376.372161 294.587302 
L 378.581474 306.104675 
L 380.054349 298.426427 
L 380.790786 298.426427 
L 381.527224 294.587302 
L 383.000099 279.230805 
L 383.736536 286.909054 
L 384.472974 286.909054 
L 385.209411 283.069929 
L 385.945848 283.069929 
L 386.682286 290.748178 
L 387.418723 279.230805 
L 388.155161 279.230805 
L 388.891598 286.909054 
L 389.628036 286.909054 
L 390.364473 294.587302 
L 391.100911 290.748178 
L 391.837348 283.069929 
L 392.573786 279.230805 
L 393.310223 263.874308 
L 394.783098 279.230805 
L 395.519536 275.391681 
L 396.255973 286.909054 
L 397.728848 294.587302 
L 398.465286 290.748178 
L 399.201723 283.069929 
L 399.938161 279.230805 
L 403.620348 279.230805 
L 404.356785 275.391681 
L 405.093223 283.069929 
L 405.82966 283.069929 
L 406.566098 279.230805 
L 408.038973 263.874308 
L 410.248285 275.391681 
L 410.984723 286.909054 
L 412.457598 294.587302 
L 413.194035 290.748178 
L 414.66691 290.748178 
L 415.403348 286.909054 
L 416.876223 286.909054 
L 417.61266 279.230805 
L 418.349098 275.391681 
L 419.085535 267.713432 
L 419.821973 252.356935 
L 420.55841 248.517811 
L 421.294848 240.839562 
L 422.031285 240.839562 
L 422.767722 248.517811 
L 423.50416 252.356935 
L 424.240597 275.391681 
L 424.977035 286.909054 
L 425.713472 290.748178 
L 426.44991 302.265551 
L 427.186347 298.426427 
L 428.659222 298.426427 
L 430.132097 306.104675 
L 430.868535 294.587302 
L 431.604972 290.748178 
L 432.34141 298.426427 
L 433.077847 298.426427 
L 433.814285 302.265551 
L 434.550722 302.265551 
L 435.28716 290.748178 
L 436.023597 286.909054 
L 436.760035 294.587302 
L 438.23291 294.587302 
L 438.969347 298.426427 
L 439.705785 286.909054 
L 440.442222 283.069929 
L 441.178659 290.748178 
L 441.915097 290.748178 
L 443.387972 275.391681 
L 444.124409 283.069929 
L 444.860847 283.069929 
L 445.597284 286.909054 
L 446.333722 294.587302 
L 447.070159 298.426427 
L 448.543034 298.426427 
L 449.279472 306.104675 
L 450.015909 298.426427 
L 451.488784 306.104675 
L 452.225222 313.782924 
L 452.961659 313.782924 
L 453.698097 317.622048 
L 454.434534 317.622048 
L 455.170972 313.782924 
L 455.907409 298.426427 
L 456.643847 294.587302 
L 457.380284 294.587302 
L 458.116721 302.265551 
L 459.589596 302.265551 
L 460.326034 298.426427 
L 461.062471 290.748178 
L 461.798909 279.230805 
L 462.535346 275.391681 
L 463.271784 267.713432 
L 464.008221 271.552556 
L 464.744659 279.230805 
L 465.481096 275.391681 
L 466.217534 263.874308 
L 466.953971 256.196059 
L 467.690409 263.874308 
L 468.426846 267.713432 
L 469.163284 263.874308 
L 469.899721 256.196059 
L 471.372596 263.874308 
L 472.109034 263.874308 
L 472.845471 256.196059 
L 473.581909 260.035184 
L 474.318346 271.552556 
L 475.054784 267.713432 
L 475.791221 279.230805 
L 476.527658 283.069929 
L 477.264096 294.587302 
L 478.736971 294.587302 
L 479.473408 290.748178 
L 480.209846 279.230805 
L 480.946283 275.391681 
L 483.155596 275.391681 
L 483.892033 267.713432 
L 484.628471 263.874308 
L 485.364908 271.552556 
L 486.101346 271.552556 
L 486.837783 283.069929 
L 488.310658 298.426427 
L 489.783533 290.748178 
L 490.519971 294.587302 
L 491.256408 294.587302 
L 491.992846 298.426427 
L 492.729283 298.426427 
L 493.465721 302.265551 
L 494.202158 302.265551 
L 494.938595 298.426427 
L 495.675033 302.265551 
L 496.41147 302.265551 
L 497.884345 294.587302 
L 498.620783 294.587302 
L 499.35722 306.104675 
L 500.093658 298.426427 
L 501.566533 306.104675 
L 502.30297 290.748178 
L 503.039408 290.748178 
L 503.775845 294.587302 
L 504.512283 294.587302 
L 504.512283 294.587302 
" style="fill:none;stroke:#ff7f0e;stroke-linecap:square;stroke-width:1.5;"/>
   </g>
   <g id="line2d_18">
    <path clip-path="url(#p1f81eaa23f)" d="M 112.680412 309.943799 
L 113.416849 302.265551 
L 114.889724 302.265551 
L 115.626161 294.587302 
L 116.362599 279.230805 
L 117.099036 279.230805 
L 117.835474 294.587302 
L 118.571911 313.782924 
L 119.308349 317.622048 
L 120.044786 309.943799 
L 120.781224 298.426427 
L 121.517661 294.587302 
L 122.254099 283.069929 
L 123.726974 290.748178 
L 124.463411 286.909054 
L 125.199849 279.230805 
L 125.936286 267.713432 
L 126.672724 263.874308 
L 127.409161 279.230805 
L 128.145599 275.391681 
L 128.882036 267.713432 
L 129.618474 263.874308 
L 130.354911 279.230805 
L 131.091349 298.426427 
L 131.827786 286.909054 
L 132.564224 279.230805 
L 133.300661 267.713432 
L 134.037098 267.713432 
L 134.773536 286.909054 
L 135.509973 275.391681 
L 136.246411 271.552556 
L 137.719286 279.230805 
L 138.455723 279.230805 
L 139.192161 294.587302 
L 141.401473 271.552556 
L 142.874348 279.230805 
L 143.610786 279.230805 
L 144.347223 263.874308 
L 145.083661 252.356935 
L 145.820098 256.196059 
L 146.556536 267.713432 
L 147.292973 263.874308 
L 148.029411 252.356935 
L 148.765848 248.517811 
L 149.502286 256.196059 
L 150.238723 275.391681 
L 150.97516 286.909054 
L 151.711598 283.069929 
L 152.448035 275.391681 
L 153.92091 283.069929 
L 156.130223 283.069929 
L 156.86666 275.391681 
L 157.603098 279.230805 
L 159.075973 279.230805 
L 159.81241 260.035184 
L 160.548848 260.035184 
L 161.285285 267.713432 
L 162.021723 271.552556 
L 162.75816 267.713432 
L 163.494598 271.552556 
L 164.231035 283.069929 
L 164.967473 275.391681 
L 165.70391 283.069929 
L 167.176785 290.748178 
L 167.913223 290.748178 
L 168.64966 286.909054 
L 169.386097 275.391681 
L 170.122535 271.552556 
L 170.858972 283.069929 
L 171.59541 279.230805 
L 172.331847 271.552556 
L 173.804722 286.909054 
L 174.54116 271.552556 
L 175.277597 263.874308 
L 176.014035 263.874308 
L 177.48691 248.517811 
L 178.223347 260.035184 
L 178.959785 275.391681 
L 181.169097 286.909054 
L 181.905535 286.909054 
L 182.641972 275.391681 
L 183.37841 275.391681 
L 184.114847 279.230805 
L 184.851285 279.230805 
L 185.587722 271.552556 
L 186.32416 267.713432 
L 187.060597 275.391681 
L 187.797034 279.230805 
L 188.533472 294.587302 
L 189.269909 283.069929 
L 190.006347 275.391681 
L 190.742784 271.552556 
L 191.479222 256.196059 
L 194.424972 271.552556 
L 195.161409 279.230805 
L 196.634284 286.909054 
L 197.370722 275.391681 
L 198.107159 275.391681 
L 198.843597 263.874308 
L 199.580034 263.874308 
L 200.316472 275.391681 
L 201.789347 283.069929 
L 202.525784 283.069929 
L 203.262222 260.035184 
L 203.998659 263.874308 
L 205.471534 279.230805 
L 206.207971 271.552556 
L 206.944409 260.035184 
L 207.680846 256.196059 
L 208.417284 248.517811 
L 209.153721 237.000438 
L 209.890159 237.000438 
L 210.626596 256.196059 
L 211.363034 256.196059 
L 212.099471 267.713432 
L 212.835909 267.713432 
L 213.572346 279.230805 
L 214.308784 275.391681 
L 215.781659 290.748178 
L 216.518096 294.587302 
L 217.990971 294.587302 
L 218.727409 302.265551 
L 219.463846 294.587302 
L 220.200284 290.748178 
L 220.936721 275.391681 
L 221.673159 271.552556 
L 222.409596 260.035184 
L 223.146034 256.196059 
L 223.882471 267.713432 
L 224.618908 271.552556 
L 225.355346 252.356935 
L 226.091783 256.196059 
L 226.828221 267.713432 
L 227.564658 275.391681 
L 228.301096 279.230805 
L 229.773971 279.230805 
L 230.510408 267.713432 
L 231.246846 267.713432 
L 231.983283 244.678686 
L 232.719721 244.678686 
L 233.456158 240.839562 
L 234.192596 229.322189 
L 234.929033 225.483065 
L 235.665471 217.804816 
L 236.401908 240.839562 
L 237.138346 248.517811 
L 237.874783 263.874308 
L 239.347658 248.517811 
L 240.084096 237.000438 
L 241.55697 252.356935 
L 242.293408 252.356935 
L 243.029845 240.839562 
L 243.766283 244.678686 
L 244.50272 263.874308 
L 245.239158 256.196059 
L 245.975595 244.678686 
L 246.712033 244.678686 
L 247.44847 225.483065 
L 248.184908 229.322189 
L 248.921345 244.678686 
L 249.657783 244.678686 
L 250.39422 267.713432 
L 251.130658 267.713432 
L 251.867095 260.035184 
L 252.603533 279.230805 
L 253.33997 286.909054 
L 254.076408 286.909054 
L 254.812845 294.587302 
L 255.549283 306.104675 
L 256.28572 306.104675 
L 257.022158 294.587302 
L 257.758595 290.748178 
L 258.495033 279.230805 
L 259.23147 271.552556 
L 259.967907 283.069929 
L 261.440782 283.069929 
L 262.17722 294.587302 
L 262.913657 283.069929 
L 264.386532 298.426427 
L 265.12297 279.230805 
L 265.859407 275.391681 
L 266.595845 279.230805 
L 267.332282 286.909054 
L 268.805157 279.230805 
L 269.541595 286.909054 
L 271.01447 286.909054 
L 271.750907 290.748178 
L 272.487345 290.748178 
L 273.223782 294.587302 
L 273.96022 290.748178 
L 274.696657 279.230805 
L 275.433095 279.230805 
L 276.169532 290.748178 
L 277.642407 275.391681 
L 278.378844 286.909054 
L 279.115282 286.909054 
L 279.851719 271.552556 
L 280.588157 271.552556 
L 281.324594 275.391681 
L 282.061032 275.391681 
L 282.797469 279.230805 
L 283.533907 286.909054 
L 284.270344 283.069929 
L 285.006782 294.587302 
L 285.743219 294.587302 
L 286.479657 306.104675 
L 287.216094 298.426427 
L 287.952532 286.909054 
L 288.688969 283.069929 
L 289.425407 283.069929 
L 290.161844 279.230805 
L 290.898282 279.230805 
L 291.634719 275.391681 
L 292.371157 283.069929 
L 293.107594 302.265551 
L 293.844032 298.426427 
L 294.580469 286.909054 
L 295.316907 298.426427 
L 296.053344 302.265551 
L 296.789781 298.426427 
L 297.526219 298.426427 
L 298.262656 286.909054 
L 298.999094 283.069929 
L 300.471969 283.069929 
L 301.944844 275.391681 
L 302.681281 286.909054 
L 303.417719 279.230805 
L 304.154156 275.391681 
L 304.890594 256.196059 
L 305.627031 260.035184 
L 306.363469 252.356935 
L 307.099906 237.000438 
L 307.836344 244.678686 
L 310.782094 260.035184 
L 311.518531 260.035184 
L 312.254969 263.874308 
L 312.991406 263.874308 
L 313.727843 260.035184 
L 314.464281 244.678686 
L 315.200718 248.517811 
L 315.937156 237.000438 
L 316.673593 229.322189 
L 317.410031 225.483065 
L 318.146468 229.322189 
L 318.882906 240.839562 
L 319.619343 248.517811 
L 320.355781 260.035184 
L 321.092218 267.713432 
L 321.828656 279.230805 
L 322.565093 286.909054 
L 323.301531 290.748178 
L 324.037968 283.069929 
L 324.774406 290.748178 
L 325.510843 286.909054 
L 326.247281 290.748178 
L 327.720156 306.104675 
L 328.456593 294.587302 
L 329.193031 290.748178 
L 330.665906 298.426427 
L 331.402343 290.748178 
L 332.13878 290.748178 
L 332.875218 298.426427 
L 333.611655 298.426427 
L 334.348093 302.265551 
L 335.08453 298.426427 
L 335.820968 306.104675 
L 337.293843 290.748178 
L 338.03028 298.426427 
L 338.766718 302.265551 
L 339.503155 302.265551 
L 340.239593 298.426427 
L 340.97603 290.748178 
L 341.712468 286.909054 
L 343.185343 294.587302 
L 343.92178 306.104675 
L 344.658218 302.265551 
L 345.394655 286.909054 
L 346.131093 279.230805 
L 346.86753 283.069929 
L 347.603968 290.748178 
L 348.340405 283.069929 
L 349.076843 290.748178 
L 350.549717 298.426427 
L 351.286155 298.426427 
L 352.022592 283.069929 
L 352.75903 275.391681 
L 353.495467 275.391681 
L 354.231905 279.230805 
L 355.70478 279.230805 
L 356.441217 267.713432 
L 357.177655 263.874308 
L 357.914092 256.196059 
L 358.65053 256.196059 
L 359.386967 267.713432 
L 360.123405 263.874308 
L 360.859842 256.196059 
L 361.59628 244.678686 
L 362.332717 260.035184 
L 363.069155 286.909054 
L 363.805592 279.230805 
L 364.54203 260.035184 
L 365.278467 256.196059 
L 366.014905 263.874308 
L 367.48778 271.552556 
L 368.224217 283.069929 
L 368.960654 286.909054 
L 369.697092 294.587302 
L 370.433529 286.909054 
L 371.169967 283.069929 
L 371.906404 286.909054 
L 372.642842 286.909054 
L 374.115717 263.874308 
L 374.852154 267.713432 
L 375.588592 275.391681 
L 376.325029 275.391681 
L 377.061467 267.713432 
L 377.797904 263.874308 
L 378.534342 271.552556 
L 379.270779 271.552556 
L 380.007217 275.391681 
L 381.480092 275.391681 
L 382.952967 260.035184 
L 383.689404 267.713432 
L 384.425842 267.713432 
L 385.162279 275.391681 
L 385.898716 294.587302 
L 386.635154 302.265551 
L 387.371591 290.748178 
L 388.108029 286.909054 
L 388.844466 275.391681 
L 389.580904 271.552556 
L 390.317341 248.517811 
L 391.053779 252.356935 
L 391.790216 267.713432 
L 392.526654 271.552556 
L 393.263091 283.069929 
L 393.999529 279.230805 
L 394.735966 271.552556 
L 395.472404 283.069929 
L 396.208841 298.426427 
L 396.945279 298.426427 
L 397.681716 279.230805 
L 398.418154 279.230805 
L 399.154591 286.909054 
L 399.891029 290.748178 
L 400.627466 290.748178 
L 401.363904 286.909054 
L 402.100341 286.909054 
L 402.836779 283.069929 
L 404.309653 283.069929 
L 405.046091 267.713432 
L 405.782528 263.874308 
L 406.518966 267.713432 
L 407.255403 286.909054 
L 407.991841 294.587302 
L 408.728278 298.426427 
L 410.201153 298.426427 
L 410.937591 306.104675 
L 412.410466 306.104675 
L 413.146903 302.265551 
L 413.883341 302.265551 
L 415.356216 294.587302 
L 416.092653 294.587302 
L 416.829091 290.748178 
L 418.301966 298.426427 
L 419.038403 309.943799 
L 419.774841 302.265551 
L 420.511278 298.426427 
L 421.984153 283.069929 
L 422.72059 263.874308 
L 423.457028 263.874308 
L 424.193465 260.035184 
L 424.929903 267.713432 
L 425.66634 271.552556 
L 426.402778 286.909054 
L 427.139215 283.069929 
L 428.61209 290.748178 
L 430.084965 275.391681 
L 430.821403 263.874308 
L 431.55784 260.035184 
L 432.294278 275.391681 
L 433.030715 271.552556 
L 433.767153 256.196059 
L 434.50359 260.035184 
L 435.240028 248.517811 
L 435.976465 248.517811 
L 436.712903 263.874308 
L 437.44934 263.874308 
L 438.185778 267.713432 
L 438.922215 275.391681 
L 439.658653 286.909054 
L 441.131527 294.587302 
L 441.867965 294.587302 
L 442.604402 283.069929 
L 443.34084 279.230805 
L 444.077277 283.069929 
L 444.813715 283.069929 
L 445.550152 286.909054 
L 446.28659 298.426427 
L 447.023027 283.069929 
L 447.759465 275.391681 
L 449.23234 290.748178 
L 453.650965 244.678686 
L 454.387402 229.322189 
L 455.12384 229.322189 
L 455.860277 240.839562 
L 456.596715 240.839562 
L 457.333152 248.517811 
L 458.069589 263.874308 
L 458.806027 267.713432 
L 459.542464 275.391681 
L 460.278902 275.391681 
L 461.015339 271.552556 
L 461.751777 283.069929 
L 462.488214 279.230805 
L 464.697527 256.196059 
L 466.170402 248.517811 
L 466.906839 263.874308 
L 467.643277 252.356935 
L 468.379714 244.678686 
L 469.116152 252.356935 
L 469.852589 267.713432 
L 470.589027 267.713432 
L 471.325464 275.391681 
L 472.061902 275.391681 
L 472.798339 286.909054 
L 473.534777 290.748178 
L 474.271214 298.426427 
L 475.007652 294.587302 
L 475.744089 302.265551 
L 476.480526 298.426427 
L 477.216964 290.748178 
L 477.953401 290.748178 
L 478.689839 286.909054 
L 479.426276 286.909054 
L 480.899151 294.587302 
L 481.635589 294.587302 
L 482.372026 290.748178 
L 483.108464 290.748178 
L 483.844901 283.069929 
L 484.581339 279.230805 
L 485.317776 256.196059 
L 486.054214 260.035184 
L 486.790651 248.517811 
L 487.527089 244.678686 
L 488.263526 233.161314 
L 488.999964 248.517811 
L 490.472839 271.552556 
L 491.209276 271.552556 
L 492.682151 279.230805 
L 493.418589 271.552556 
L 494.891463 263.874308 
L 495.627901 271.552556 
L 499.310088 271.552556 
L 500.046526 283.069929 
L 500.782963 279.230805 
L 501.519401 271.552556 
L 502.255838 286.909054 
L 502.992276 286.909054 
L 503.728713 263.874308 
L 504.465151 263.874308 
L 505.938026 279.230805 
L 506.674463 290.748178 
L 507.410901 290.748178 
L 508.147338 279.230805 
L 508.883776 275.391681 
L 509.620213 286.909054 
L 509.620213 286.909054 
" style="fill:none;stroke:#2ca02c;stroke-linecap:square;stroke-width:1.5;"/>
   </g>
   <g id="line2d_19">
    <path clip-path="url(#p1f81eaa23f)" d="M 103.765099 98.791963 
L 104.501537 48.883347 
L 105.974412 48.883347 
L 107.447287 144.861455 
L 108.183724 160.217952 
L 108.920162 164.057076 
L 109.656599 194.770071 
L 110.393037 206.287444 
L 111.129474 213.965692 
L 111.865912 213.965692 
L 112.602349 221.643941 
L 113.338787 233.161314 
L 114.811662 248.517811 
L 115.548099 252.356935 
L 116.284537 260.035184 
L 117.757412 260.035184 
L 119.966724 237.000438 
L 120.703161 252.356935 
L 121.439599 256.196059 
L 122.176036 240.839562 
L 123.648911 263.874308 
L 124.385349 267.713432 
L 125.121786 283.069929 
L 125.858224 286.909054 
L 127.331099 302.265551 
L 128.803974 302.265551 
L 129.540411 306.104675 
L 131.013286 290.748178 
L 131.749724 302.265551 
L 133.959036 302.265551 
L 134.695474 294.587302 
L 135.431911 279.230805 
L 136.168349 283.069929 
L 136.904786 298.426427 
L 138.377661 298.426427 
L 139.114098 290.748178 
L 139.850536 302.265551 
L 141.323411 286.909054 
L 142.059848 286.909054 
L 142.796286 290.748178 
L 144.269161 283.069929 
L 145.005598 286.909054 
L 145.742036 286.909054 
L 146.478473 294.587302 
L 147.214911 294.587302 
L 147.951348 298.426427 
L 148.687786 298.426427 
L 149.424223 294.587302 
L 150.160661 286.909054 
L 150.897098 298.426427 
L 151.633536 294.587302 
L 152.369973 286.909054 
L 153.106411 290.748178 
L 153.842848 290.748178 
L 154.579286 286.909054 
L 156.05216 286.909054 
L 156.788598 283.069929 
L 158.261473 260.035184 
L 158.99791 260.035184 
L 159.734348 267.713432 
L 160.470785 267.713432 
L 161.207223 275.391681 
L 161.94366 279.230805 
L 164.152973 267.713432 
L 164.88941 279.230805 
L 165.625848 271.552556 
L 166.362285 267.713432 
L 167.098723 275.391681 
L 168.571598 275.391681 
L 170.044473 283.069929 
L 170.78091 271.552556 
L 171.517348 271.552556 
L 172.253785 283.069929 
L 172.990223 286.909054 
L 173.72666 294.587302 
L 174.463097 294.587302 
L 175.199535 298.426427 
L 175.935972 298.426427 
L 176.67241 313.782924 
L 178.145285 321.461172 
L 178.881722 321.461172 
L 179.61816 317.622048 
L 181.091035 317.622048 
L 181.827472 313.782924 
L 182.56391 317.622048 
L 183.300347 309.943799 
L 184.036785 294.587302 
L 184.773222 294.587302 
L 185.50966 302.265551 
L 186.246097 302.265551 
L 186.982535 306.104675 
L 187.718972 302.265551 
L 188.45541 309.943799 
L 189.191847 306.104675 
L 189.928285 294.587302 
L 190.664722 294.587302 
L 191.40116 298.426427 
L 192.137597 298.426427 
L 192.874034 302.265551 
L 193.610472 302.265551 
L 194.346909 298.426427 
L 195.083347 302.265551 
L 196.556222 294.587302 
L 197.292659 298.426427 
L 198.029097 294.587302 
L 198.765534 302.265551 
L 199.501972 302.265551 
L 200.238409 290.748178 
L 200.974847 283.069929 
L 201.711284 267.713432 
L 202.447722 267.713432 
L 203.184159 275.391681 
L 203.920597 279.230805 
L 205.393472 263.874308 
L 206.129909 260.035184 
L 206.866347 275.391681 
L 207.602784 271.552556 
L 208.339222 263.874308 
L 209.075659 275.391681 
L 209.812096 283.069929 
L 210.548534 294.587302 
L 211.284971 294.587302 
L 212.021409 298.426427 
L 212.757846 294.587302 
L 213.494284 294.587302 
L 214.230721 298.426427 
L 214.967159 298.426427 
L 215.703596 302.265551 
L 216.440034 290.748178 
L 217.176471 283.069929 
L 217.912909 279.230805 
L 218.649346 271.552556 
L 219.385784 279.230805 
L 220.122221 283.069929 
L 220.858659 271.552556 
L 221.595096 271.552556 
L 222.331534 286.909054 
L 223.067971 290.748178 
L 223.804409 306.104675 
L 224.540846 309.943799 
L 226.013721 309.943799 
L 226.750159 298.426427 
L 227.486596 290.748178 
L 228.223033 279.230805 
L 228.959471 271.552556 
L 229.695908 267.713432 
L 230.432346 256.196059 
L 231.168783 256.196059 
L 231.905221 263.874308 
L 232.641658 263.874308 
L 233.378096 279.230805 
L 234.114533 298.426427 
L 234.850971 302.265551 
L 235.587408 309.943799 
L 236.323846 313.782924 
L 237.060283 313.782924 
L 237.796721 317.622048 
L 239.269596 317.622048 
L 240.006033 306.104675 
L 242.215346 306.104675 
L 242.951783 321.461172 
L 243.688221 321.461172 
L 244.424658 325.300297 
L 245.161096 321.461172 
L 245.897533 321.461172 
L 246.63397 317.622048 
L 247.370408 317.622048 
L 248.106845 313.782924 
L 248.843283 317.622048 
L 249.57972 313.782924 
L 252.52547 283.069929 
L 253.261908 286.909054 
L 253.998345 286.909054 
L 254.734783 283.069929 
L 255.47122 271.552556 
L 256.207658 267.713432 
L 256.944095 252.356935 
L 257.680533 252.356935 
L 258.41697 256.196059 
L 259.153408 263.874308 
L 259.889845 256.196059 
L 260.626283 252.356935 
L 261.36272 252.356935 
L 262.099158 244.678686 
L 262.835595 260.035184 
L 263.572033 256.196059 
L 264.30847 248.517811 
L 265.781345 263.874308 
L 266.517782 267.713432 
L 267.25422 279.230805 
L 267.990657 283.069929 
L 269.463532 298.426427 
L 272.409282 298.426427 
L 273.14572 302.265551 
L 273.882157 298.426427 
L 274.618595 286.909054 
L 275.355032 283.069929 
L 276.09147 271.552556 
L 278.300782 248.517811 
L 279.03722 244.678686 
L 279.773657 256.196059 
L 280.510095 256.196059 
L 281.246532 260.035184 
L 281.982969 267.713432 
L 282.719407 267.713432 
L 283.455844 275.391681 
L 284.192282 275.391681 
L 284.928719 267.713432 
L 285.665157 263.874308 
L 286.401594 267.713432 
L 287.138032 275.391681 
L 287.874469 263.874308 
L 288.610907 263.874308 
L 289.347344 260.035184 
L 290.083782 263.874308 
L 290.820219 263.874308 
L 291.556657 271.552556 
L 292.293094 283.069929 
L 293.029532 286.909054 
L 294.502407 302.265551 
L 295.975282 294.587302 
L 296.711719 294.587302 
L 297.448157 290.748178 
L 298.184594 298.426427 
L 300.393906 298.426427 
L 301.130344 294.587302 
L 301.866781 286.909054 
L 302.603219 298.426427 
L 304.076094 306.104675 
L 305.548969 306.104675 
L 306.285406 313.782924 
L 307.758281 298.426427 
L 308.494719 283.069929 
L 311.440469 283.069929 
L 312.176906 279.230805 
L 312.913344 279.230805 
L 314.386219 286.909054 
L 315.122656 286.909054 
L 315.859094 283.069929 
L 316.595531 294.587302 
L 317.331969 290.748178 
L 318.068406 302.265551 
L 318.804843 290.748178 
L 319.541281 286.909054 
L 320.277718 275.391681 
L 321.014156 283.069929 
L 321.750593 286.909054 
L 322.487031 279.230805 
L 323.223468 275.391681 
L 323.959906 267.713432 
L 324.696343 275.391681 
L 325.432781 275.391681 
L 326.905656 290.748178 
L 327.642093 286.909054 
L 328.378531 290.748178 
L 329.114968 290.748178 
L 330.587843 275.391681 
L 331.324281 283.069929 
L 332.060718 283.069929 
L 332.797156 275.391681 
L 333.533593 275.391681 
L 334.270031 283.069929 
L 335.006468 283.069929 
L 335.742906 294.587302 
L 337.21578 279.230805 
L 337.952218 290.748178 
L 338.688655 290.748178 
L 339.425093 275.391681 
L 340.16153 271.552556 
L 341.634405 286.909054 
L 342.370843 275.391681 
L 343.10728 275.391681 
L 343.843718 286.909054 
L 344.580155 294.587302 
L 345.316593 309.943799 
L 347.525905 298.426427 
L 348.262343 306.104675 
L 349.735218 290.748178 
L 350.471655 275.391681 
L 351.208093 271.552556 
L 351.94453 271.552556 
L 352.680968 279.230805 
L 353.417405 279.230805 
L 354.153842 283.069929 
L 354.89028 283.069929 
L 355.626717 290.748178 
L 356.363155 306.104675 
L 357.099592 306.104675 
L 358.572467 290.748178 
L 359.308905 279.230805 
L 360.045342 275.391681 
L 360.78178 290.748178 
L 362.254655 275.391681 
L 362.991092 256.196059 
L 363.72753 260.035184 
L 364.463967 271.552556 
L 365.200405 271.552556 
L 365.936842 279.230805 
L 367.409717 279.230805 
L 368.146155 267.713432 
L 368.882592 263.874308 
L 369.61903 252.356935 
L 371.091905 290.748178 
L 371.828342 279.230805 
L 372.564779 275.391681 
L 374.037654 283.069929 
L 374.774092 283.069929 
L 375.510529 263.874308 
L 376.246967 260.035184 
L 376.983404 271.552556 
L 377.719842 275.391681 
L 378.456279 283.069929 
L 379.192717 286.909054 
L 379.929154 286.909054 
L 380.665592 283.069929 
L 381.402029 283.069929 
L 382.138467 286.909054 
L 382.874904 294.587302 
L 383.611342 283.069929 
L 384.347779 275.391681 
L 385.084217 271.552556 
L 385.820654 263.874308 
L 386.557092 252.356935 
L 387.293529 267.713432 
L 388.029967 267.713432 
L 388.766404 283.069929 
L 389.502842 283.069929 
L 390.239279 290.748178 
L 390.975716 290.748178 
L 391.712154 298.426427 
L 392.448591 298.426427 
L 393.185029 286.909054 
L 393.921466 283.069929 
L 394.657904 271.552556 
L 395.394341 267.713432 
L 396.130779 256.196059 
L 396.867216 252.356935 
L 397.603654 260.035184 
L 398.340091 263.874308 
L 399.812966 279.230805 
L 400.549404 279.230805 
L 401.285841 283.069929 
L 402.022279 279.230805 
L 404.231591 279.230805 
L 404.968029 286.909054 
L 405.704466 286.909054 
L 406.440904 283.069929 
L 407.177341 275.391681 
L 407.913779 263.874308 
L 408.650216 271.552556 
L 409.386653 275.391681 
L 410.123091 275.391681 
L 410.859528 263.874308 
L 411.595966 267.713432 
L 412.332403 275.391681 
L 413.068841 271.552556 
L 413.805278 275.391681 
L 416.751028 275.391681 
L 417.487466 279.230805 
L 418.223903 290.748178 
L 418.960341 286.909054 
L 419.696778 294.587302 
L 420.433216 298.426427 
L 421.169653 306.104675 
L 421.906091 309.943799 
L 422.642528 317.622048 
L 423.378966 313.782924 
L 425.588278 290.748178 
L 426.324715 279.230805 
L 427.061153 283.069929 
L 427.79759 298.426427 
L 428.534028 298.426427 
L 429.270465 294.587302 
L 430.006903 283.069929 
L 430.74334 290.748178 
L 431.479778 294.587302 
L 432.216215 286.909054 
L 432.952653 283.069929 
L 433.68909 286.909054 
L 434.425528 286.909054 
L 435.161965 294.587302 
L 435.898403 298.426427 
L 436.63484 286.909054 
L 437.371278 286.909054 
L 438.107715 294.587302 
L 438.844153 290.748178 
L 439.58059 279.230805 
L 440.317028 275.391681 
L 441.053465 256.196059 
L 441.789903 252.356935 
L 442.52634 260.035184 
L 443.262778 271.552556 
L 443.999215 256.196059 
L 444.735652 252.356935 
L 445.47209 252.356935 
L 446.208527 240.839562 
L 446.944965 244.678686 
L 447.681402 252.356935 
L 448.41784 252.356935 
L 449.154277 244.678686 
L 449.890715 263.874308 
L 450.627152 267.713432 
L 451.36359 260.035184 
L 452.100027 271.552556 
L 452.836465 279.230805 
L 453.572902 290.748178 
L 455.045777 298.426427 
L 456.518652 298.426427 
L 457.25509 294.587302 
L 457.991527 283.069929 
L 458.727965 275.391681 
L 459.464402 260.035184 
L 460.20084 263.874308 
L 460.937277 283.069929 
L 461.673715 267.713432 
L 462.410152 267.713432 
L 463.146589 271.552556 
L 463.883027 286.909054 
L 464.619464 298.426427 
L 466.092339 290.748178 
L 468.301652 302.265551 
L 469.038089 298.426427 
L 469.774527 283.069929 
L 470.510964 283.069929 
L 471.247402 286.909054 
L 471.983839 286.909054 
L 472.720277 294.587302 
L 473.456714 298.426427 
L 474.193152 283.069929 
L 474.929589 294.587302 
L 475.666027 294.587302 
L 476.402464 290.748178 
L 477.138902 302.265551 
L 477.875339 298.426427 
L 478.611777 298.426427 
L 479.348214 294.587302 
L 480.821089 279.230805 
L 483.030401 279.230805 
L 483.766839 286.909054 
L 484.503276 290.748178 
L 485.239714 298.426427 
L 485.976151 294.587302 
L 486.712589 286.909054 
L 487.449026 283.069929 
L 488.185464 294.587302 
L 488.921901 290.748178 
L 489.658339 283.069929 
L 490.394776 263.874308 
L 491.131214 267.713432 
L 491.867651 248.517811 
L 492.604089 244.678686 
L 493.340526 256.196059 
L 494.076964 263.874308 
L 494.813401 260.035184 
L 495.549839 240.839562 
L 497.022714 248.517811 
L 497.759151 248.517811 
L 498.495589 252.356935 
L 499.232026 248.517811 
L 499.968463 233.161314 
L 500.704901 233.161314 
L 501.441338 225.483065 
L 501.441338 225.483065 
" style="fill:none;stroke:#d62728;stroke-linecap:square;stroke-width:1.5;"/>
   </g>
   <g id="patch_3">
    <path d="M 83.472344 352.174167 
L 83.472344 35.0625 
" style="fill:none;stroke:#000000;stroke-linecap:square;stroke-linejoin:miter;stroke-width:0.8;"/>
   </g>
   <g id="patch_4">
    <path d="M 529.912969 352.174167 
L 529.912969 35.0625 
" style="fill:none;stroke:#000000;stroke-linecap:square;stroke-linejoin:miter;stroke-width:0.8;"/>
   </g>
   <g id="patch_5">
    <path d="M 83.472344 352.174167 
L 529.912969 352.174167 
" style="fill:none;stroke:#000000;stroke-linecap:square;stroke-linejoin:miter;stroke-width:0.8;"/>
   </g>
   <g id="patch_6">
    <path d="M 83.472344 35.0625 
L 529.912969 35.0625 
" style="fill:none;stroke:#000000;stroke-linecap:square;stroke-linejoin:miter;stroke-width:0.8;"/>
   </g>
   <g id="legend_1">
    <g id="patch_7">
     <path d="M 554.235 96.775 
L 625.430312 96.775 
Q 627.430312 96.775 627.430312 94.775 
L 627.430312 37.0625 
Q 627.430312 35.0625 625.430312 35.0625 
L 554.235 35.0625 
Q 552.235 35.0625 552.235 37.0625 
L 552.235 94.775 
Q 552.235 96.775 554.235 96.775 
z
" style="fill:#ffffff;opacity:0.8;stroke:#cccccc;stroke-linejoin:miter;"/>
    </g>
    <g id="line2d_20">
     <path d="M 556.235 43.160937 
L 576.235 43.160937 
" style="fill:none;stroke:#1f77b4;stroke-linecap:square;stroke-width:1.5;"/>
    </g>
    <g id="line2d_21"/>
    <g id="text_17">
     <!-- cubic-pi -->
     <defs>
      <path d="M 4.890625 31.390625 
L 31.203125 31.390625 
L 31.203125 23.390625 
L 4.890625 23.390625 
z
" id="DejaVuSans-45"/>
     </defs>
     <g transform="translate(584.235 46.660937)scale(0.1 -0.1)">
      <use xlink:href="#DejaVuSans-99"/>
      <use x="54.980469" xlink:href="#DejaVuSans-117"/>
      <use x="118.359375" xlink:href="#DejaVuSans-98"/>
      <use x="181.835938" xlink:href="#DejaVuSans-105"/>
      <use x="209.619141" xlink:href="#DejaVuSans-99"/>
      <use x="264.599609" xlink:href="#DejaVuSans-45"/>
      <use x="300.683594" xlink:href="#DejaVuSans-112"/>
      <use x="364.160156" xlink:href="#DejaVuSans-105"/>
     </g>
    </g>
    <g id="line2d_22">
     <path d="M 556.235 57.839063 
L 576.235 57.839063 
" style="fill:none;stroke:#ff7f0e;stroke-linecap:square;stroke-width:1.5;"/>
    </g>
    <g id="line2d_23"/>
    <g id="text_18">
     <!-- cubic-pi -->
     <g transform="translate(584.235 61.339063)scale(0.1 -0.1)">
      <use xlink:href="#DejaVuSans-99"/>
      <use x="54.980469" xlink:href="#DejaVuSans-117"/>
      <use x="118.359375" xlink:href="#DejaVuSans-98"/>
      <use x="181.835938" xlink:href="#DejaVuSans-105"/>
      <use x="209.619141" xlink:href="#DejaVuSans-99"/>
      <use x="264.599609" xlink:href="#DejaVuSans-45"/>
      <use x="300.683594" xlink:href="#DejaVuSans-112"/>
      <use x="364.160156" xlink:href="#DejaVuSans-105"/>
     </g>
    </g>
    <g id="line2d_24">
     <path d="M 556.235 72.517187 
L 576.235 72.517187 
" style="fill:none;stroke:#2ca02c;stroke-linecap:square;stroke-width:1.5;"/>
    </g>
    <g id="line2d_25"/>
    <g id="text_19">
     <!-- cubic-pi -->
     <g transform="translate(584.235 76.017187)scale(0.1 -0.1)">
      <use xlink:href="#DejaVuSans-99"/>
      <use x="54.980469" xlink:href="#DejaVuSans-117"/>
      <use x="118.359375" xlink:href="#DejaVuSans-98"/>
      <use x="181.835938" xlink:href="#DejaVuSans-105"/>
      <use x="209.619141" xlink:href="#DejaVuSans-99"/>
      <use x="264.599609" xlink:href="#DejaVuSans-45"/>
      <use x="300.683594" xlink:href="#DejaVuSans-112"/>
      <use x="364.160156" xlink:href="#DejaVuSans-105"/>
     </g>
    </g>
    <g id="line2d_26">
     <path d="M 556.235 87.195312 
L 576.235 87.195312 
" style="fill:none;stroke:#d62728;stroke-linecap:square;stroke-width:1.5;"/>
    </g>
    <g id="line2d_27"/>
    <g id="text_20">
     <!-- cubic-pi -->
     <g transform="translate(584.235 90.695312)scale(0.1 -0.1)">
      <use xlink:href="#DejaVuSans-99"/>
      <use x="54.980469" xlink:href="#DejaVuSans-117"/>
      <use x="118.359375" xlink:href="#DejaVuSans-98"/>
      <use x="181.835938" xlink:href="#DejaVuSans-105"/>
      <use x="209.619141" xlink:href="#DejaVuSans-99"/>
      <use x="264.599609" xlink:href="#DejaVuSans-45"/>
      <use x="300.683594" xlink:href="#DejaVuSans-112"/>
      <use x="364.160156" xlink:href="#DejaVuSans-105"/>
     </g>
    </g>
   </g>
  </g>
  <g id="text_21">
   <!-- result throughput -->
   <defs>
    <path d="M 9.421875 75.984375 
L 18.40625 75.984375 
L 18.40625 0 
L 9.421875 0 
z
" id="DejaVuSans-108"/>
   </defs>
   <g transform="translate(289.320938 17.038125)scale(0.12 -0.12)">
    <use xlink:href="#DejaVuSans-114"/>
    <use x="41.082031" xlink:href="#DejaVuSans-101"/>
    <use x="102.605469" xlink:href="#DejaVuSans-115"/>
    <use x="154.705078" xlink:href="#DejaVuSans-117"/>
    <use x="218.083984" xlink:href="#DejaVuSans-108"/>
    <use x="245.867188" xlink:href="#DejaVuSans-116"/>
    <use x="285.076172" xlink:href="#DejaVuSans-32"/>
    <use x="316.863281" xlink:href="#DejaVuSans-116"/>
    <use x="356.072266" xlink:href="#DejaVuSans-104"/>
    <use x="419.451172" xlink:href="#DejaVuSans-114"/>
    <use x="460.533203" xlink:href="#DejaVuSans-111"/>
    <use x="521.714844" xlink:href="#DejaVuSans-117"/>
    <use x="585.09375" xlink:href="#DejaVuSans-103"/>
    <use x="648.570312" xlink:href="#DejaVuSans-104"/>
    <use x="711.949219" xlink:href="#DejaVuSans-112"/>
    <use x="775.425781" xlink:href="#DejaVuSans-117"/>
    <use x="838.804688" xlink:href="#DejaVuSans-116"/>
   </g>
  </g>
 </g>
 <defs>
  <clipPath id="p1f81eaa23f">
   <rect height="317.111667" width="446.440625" x="83.472344" y="35.0625"/>
  </clipPath>
 </defs>
</svg>
