<?xml version="1.0" encoding="utf-8" standalone="no"?>
<!DOCTYPE svg PUBLIC "-//W3C//DTD SVG 1.1//EN"
  "http://www.w3.org/Graphics/SVG/1.1/DTD/svg11.dtd">
<!-- Created with matplotlib (https://matplotlib.org/) -->
<svg height="396pt" version="1.1" viewBox="0 0 684 396" width="684pt" xmlns="http://www.w3.org/2000/svg" xmlns:xlink="http://www.w3.org/1999/xlink">
 <defs>
  <style type="text/css">
*{stroke-linecap:butt;stroke-linejoin:round;}
  </style>
 </defs>
 <g id="figure_1">
  <g id="patch_1">
   <path d="M 0 396 
L 684 396 
L 684 0 
L 0 0 
z
" style="fill:#ffffff;"/>
  </g>
  <g id="axes_1">
   <g id="patch_2">
    <path d="M 130.230156 352.174167 
L 540.734062 352.174167 
L 540.734062 35.0625 
L 130.230156 35.0625 
z
" style="fill:#ffffff;"/>
   </g>
   <g id="matplotlib.axis_1">
    <g id="xtick_1">
     <g id="line2d_1">
      <defs>
       <path d="M 0 0 
L 0 3.5 
" id="m151e2ff929" style="stroke:#000000;stroke-width:0.8;"/>
      </defs>
      <g>
       <use style="stroke:#000000;stroke-width:0.8;" x="153.743184" xlink:href="#m151e2ff929" y="352.174167"/>
      </g>
     </g>
     <g id="text_1">
      <!-- 0 -->
      <defs>
       <path d="M 31.78125 66.40625 
Q 24.171875 66.40625 20.328125 58.90625 
Q 16.5 51.421875 16.5 36.375 
Q 16.5 21.390625 20.328125 13.890625 
Q 24.171875 6.390625 31.78125 6.390625 
Q 39.453125 6.390625 43.28125 13.890625 
Q 47.125 21.390625 47.125 36.375 
Q 47.125 51.421875 43.28125 58.90625 
Q 39.453125 66.40625 31.78125 66.40625 
z
M 31.78125 74.21875 
Q 44.046875 74.21875 50.515625 64.515625 
Q 56.984375 54.828125 56.984375 36.375 
Q 56.984375 17.96875 50.515625 8.265625 
Q 44.046875 -1.421875 31.78125 -1.421875 
Q 19.53125 -1.421875 13.0625 8.265625 
Q 6.59375 17.96875 6.59375 36.375 
Q 6.59375 54.828125 13.0625 64.515625 
Q 19.53125 74.21875 31.78125 74.21875 
z
" id="DejaVuSans-48"/>
      </defs>
      <g transform="translate(150.561934 366.772604)scale(0.1 -0.1)">
       <use xlink:href="#DejaVuSans-48"/>
      </g>
     </g>
    </g>
    <g id="xtick_2">
     <g id="line2d_2">
      <g>
       <use style="stroke:#000000;stroke-width:0.8;" x="218.678829" xlink:href="#m151e2ff929" y="352.174167"/>
      </g>
     </g>
     <g id="text_2">
      <!-- 50 -->
      <defs>
       <path d="M 10.796875 72.90625 
L 49.515625 72.90625 
L 49.515625 64.59375 
L 19.828125 64.59375 
L 19.828125 46.734375 
Q 21.96875 47.46875 24.109375 47.828125 
Q 26.265625 48.1875 28.421875 48.1875 
Q 40.625 48.1875 47.75 41.5 
Q 54.890625 34.8125 54.890625 23.390625 
Q 54.890625 11.625 47.5625 5.09375 
Q 40.234375 -1.421875 26.90625 -1.421875 
Q 22.3125 -1.421875 17.546875 -0.640625 
Q 12.796875 0.140625 7.71875 1.703125 
L 7.71875 11.625 
Q 12.109375 9.234375 16.796875 8.0625 
Q 21.484375 6.890625 26.703125 6.890625 
Q 35.15625 6.890625 40.078125 11.328125 
Q 45.015625 15.765625 45.015625 23.390625 
Q 45.015625 31 40.078125 35.4375 
Q 35.15625 39.890625 26.703125 39.890625 
Q 22.75 39.890625 18.8125 39.015625 
Q 14.890625 38.140625 10.796875 36.28125 
z
" id="DejaVuSans-53"/>
      </defs>
      <g transform="translate(212.316329 366.772604)scale(0.1 -0.1)">
       <use xlink:href="#DejaVuSans-53"/>
       <use x="63.623047" xlink:href="#DejaVuSans-48"/>
      </g>
     </g>
    </g>
    <g id="xtick_3">
     <g id="line2d_3">
      <g>
       <use style="stroke:#000000;stroke-width:0.8;" x="283.614473" xlink:href="#m151e2ff929" y="352.174167"/>
      </g>
     </g>
     <g id="text_3">
      <!-- 100 -->
      <defs>
       <path d="M 12.40625 8.296875 
L 28.515625 8.296875 
L 28.515625 63.921875 
L 10.984375 60.40625 
L 10.984375 69.390625 
L 28.421875 72.90625 
L 38.28125 72.90625 
L 38.28125 8.296875 
L 54.390625 8.296875 
L 54.390625 0 
L 12.40625 0 
z
" id="DejaVuSans-49"/>
      </defs>
      <g transform="translate(274.070723 366.772604)scale(0.1 -0.1)">
       <use xlink:href="#DejaVuSans-49"/>
       <use x="63.623047" xlink:href="#DejaVuSans-48"/>
       <use x="127.246094" xlink:href="#DejaVuSans-48"/>
      </g>
     </g>
    </g>
    <g id="xtick_4">
     <g id="line2d_4">
      <g>
       <use style="stroke:#000000;stroke-width:0.8;" x="348.550117" xlink:href="#m151e2ff929" y="352.174167"/>
      </g>
     </g>
     <g id="text_4">
      <!-- 150 -->
      <g transform="translate(339.006367 366.772604)scale(0.1 -0.1)">
       <use xlink:href="#DejaVuSans-49"/>
       <use x="63.623047" xlink:href="#DejaVuSans-53"/>
       <use x="127.246094" xlink:href="#DejaVuSans-48"/>
      </g>
     </g>
    </g>
    <g id="xtick_5">
     <g id="line2d_5">
      <g>
       <use style="stroke:#000000;stroke-width:0.8;" x="413.485762" xlink:href="#m151e2ff929" y="352.174167"/>
      </g>
     </g>
     <g id="text_5">
      <!-- 200 -->
      <defs>
       <path d="M 19.1875 8.296875 
L 53.609375 8.296875 
L 53.609375 0 
L 7.328125 0 
L 7.328125 8.296875 
Q 12.9375 14.109375 22.625 23.890625 
Q 32.328125 33.6875 34.8125 36.53125 
Q 39.546875 41.84375 41.421875 45.53125 
Q 43.3125 49.21875 43.3125 52.78125 
Q 43.3125 58.59375 39.234375 62.25 
Q 35.15625 65.921875 28.609375 65.921875 
Q 23.96875 65.921875 18.8125 64.3125 
Q 13.671875 62.703125 7.8125 59.421875 
L 7.8125 69.390625 
Q 13.765625 71.78125 18.9375 73 
Q 24.125 74.21875 28.421875 74.21875 
Q 39.75 74.21875 46.484375 68.546875 
Q 53.21875 62.890625 53.21875 53.421875 
Q 53.21875 48.921875 51.53125 44.890625 
Q 49.859375 40.875 45.40625 35.40625 
Q 44.1875 33.984375 37.640625 27.21875 
Q 31.109375 20.453125 19.1875 8.296875 
z
" id="DejaVuSans-50"/>
      </defs>
      <g transform="translate(403.942012 366.772604)scale(0.1 -0.1)">
       <use xlink:href="#DejaVuSans-50"/>
       <use x="63.623047" xlink:href="#DejaVuSans-48"/>
       <use x="127.246094" xlink:href="#DejaVuSans-48"/>
      </g>
     </g>
    </g>
    <g id="xtick_6">
     <g id="line2d_6">
      <g>
       <use style="stroke:#000000;stroke-width:0.8;" x="478.421406" xlink:href="#m151e2ff929" y="352.174167"/>
      </g>
     </g>
     <g id="text_6">
      <!-- 250 -->
      <g transform="translate(468.877656 366.772604)scale(0.1 -0.1)">
       <use xlink:href="#DejaVuSans-50"/>
       <use x="63.623047" xlink:href="#DejaVuSans-53"/>
       <use x="127.246094" xlink:href="#DejaVuSans-48"/>
      </g>
     </g>
    </g>
   </g>
   <g id="matplotlib.axis_2">
    <g id="ytick_1">
     <g id="line2d_7">
      <defs>
       <path d="M 0 0 
L -3.5 0 
" id="md3345cfab8" style="stroke:#000000;stroke-width:0.8;"/>
      </defs>
      <g>
       <use style="stroke:#000000;stroke-width:0.8;" x="130.230156" xlink:href="#md3345cfab8" y="352.174167"/>
      </g>
     </g>
     <g id="text_7">
      <!-- 0 -->
      <g transform="translate(116.867656 355.973385)scale(0.1 -0.1)">
       <use xlink:href="#DejaVuSans-48"/>
      </g>
     </g>
    </g>
    <g id="ytick_2">
     <g id="line2d_8">
      <g>
       <use style="stroke:#000000;stroke-width:0.8;" x="130.230156" xlink:href="#md3345cfab8" y="314.422665"/>
      </g>
     </g>
     <g id="text_8">
      <!-- 250000 -->
      <g transform="translate(85.055156 318.221883)scale(0.1 -0.1)">
       <use xlink:href="#DejaVuSans-50"/>
       <use x="63.623047" xlink:href="#DejaVuSans-53"/>
       <use x="127.246094" xlink:href="#DejaVuSans-48"/>
       <use x="190.869141" xlink:href="#DejaVuSans-48"/>
       <use x="254.492188" xlink:href="#DejaVuSans-48"/>
       <use x="318.115234" xlink:href="#DejaVuSans-48"/>
      </g>
     </g>
    </g>
    <g id="ytick_3">
     <g id="line2d_9">
      <g>
       <use style="stroke:#000000;stroke-width:0.8;" x="130.230156" xlink:href="#md3345cfab8" y="276.671162"/>
      </g>
     </g>
     <g id="text_9">
      <!-- 500000 -->
      <g transform="translate(85.055156 280.470381)scale(0.1 -0.1)">
       <use xlink:href="#DejaVuSans-53"/>
       <use x="63.623047" xlink:href="#DejaVuSans-48"/>
       <use x="127.246094" xlink:href="#DejaVuSans-48"/>
       <use x="190.869141" xlink:href="#DejaVuSans-48"/>
       <use x="254.492188" xlink:href="#DejaVuSans-48"/>
       <use x="318.115234" xlink:href="#DejaVuSans-48"/>
      </g>
     </g>
    </g>
    <g id="ytick_4">
     <g id="line2d_10">
      <g>
       <use style="stroke:#000000;stroke-width:0.8;" x="130.230156" xlink:href="#md3345cfab8" y="238.91966"/>
      </g>
     </g>
     <g id="text_10">
      <!-- 750000 -->
      <defs>
       <path d="M 8.203125 72.90625 
L 55.078125 72.90625 
L 55.078125 68.703125 
L 28.609375 0 
L 18.3125 0 
L 43.21875 64.59375 
L 8.203125 64.59375 
z
" id="DejaVuSans-55"/>
      </defs>
      <g transform="translate(85.055156 242.718879)scale(0.1 -0.1)">
       <use xlink:href="#DejaVuSans-55"/>
       <use x="63.623047" xlink:href="#DejaVuSans-53"/>
       <use x="127.246094" xlink:href="#DejaVuSans-48"/>
       <use x="190.869141" xlink:href="#DejaVuSans-48"/>
       <use x="254.492188" xlink:href="#DejaVuSans-48"/>
       <use x="318.115234" xlink:href="#DejaVuSans-48"/>
      </g>
     </g>
    </g>
    <g id="ytick_5">
     <g id="line2d_11">
      <g>
       <use style="stroke:#000000;stroke-width:0.8;" x="130.230156" xlink:href="#md3345cfab8" y="201.168158"/>
      </g>
     </g>
     <g id="text_11">
      <!-- 1000000 -->
      <g transform="translate(78.692656 204.967377)scale(0.1 -0.1)">
       <use xlink:href="#DejaVuSans-49"/>
       <use x="63.623047" xlink:href="#DejaVuSans-48"/>
       <use x="127.246094" xlink:href="#DejaVuSans-48"/>
       <use x="190.869141" xlink:href="#DejaVuSans-48"/>
       <use x="254.492188" xlink:href="#DejaVuSans-48"/>
       <use x="318.115234" xlink:href="#DejaVuSans-48"/>
       <use x="381.738281" xlink:href="#DejaVuSans-48"/>
      </g>
     </g>
    </g>
    <g id="ytick_6">
     <g id="line2d_12">
      <g>
       <use style="stroke:#000000;stroke-width:0.8;" x="130.230156" xlink:href="#md3345cfab8" y="163.416656"/>
      </g>
     </g>
     <g id="text_12">
      <!-- 1250000 -->
      <g transform="translate(78.692656 167.215875)scale(0.1 -0.1)">
       <use xlink:href="#DejaVuSans-49"/>
       <use x="63.623047" xlink:href="#DejaVuSans-50"/>
       <use x="127.246094" xlink:href="#DejaVuSans-53"/>
       <use x="190.869141" xlink:href="#DejaVuSans-48"/>
       <use x="254.492188" xlink:href="#DejaVuSans-48"/>
       <use x="318.115234" xlink:href="#DejaVuSans-48"/>
       <use x="381.738281" xlink:href="#DejaVuSans-48"/>
      </g>
     </g>
    </g>
    <g id="ytick_7">
     <g id="line2d_13">
      <g>
       <use style="stroke:#000000;stroke-width:0.8;" x="130.230156" xlink:href="#md3345cfab8" y="125.665154"/>
      </g>
     </g>
     <g id="text_13">
      <!-- 1500000 -->
      <g transform="translate(78.692656 129.464373)scale(0.1 -0.1)">
       <use xlink:href="#DejaVuSans-49"/>
       <use x="63.623047" xlink:href="#DejaVuSans-53"/>
       <use x="127.246094" xlink:href="#DejaVuSans-48"/>
       <use x="190.869141" xlink:href="#DejaVuSans-48"/>
       <use x="254.492188" xlink:href="#DejaVuSans-48"/>
       <use x="318.115234" xlink:href="#DejaVuSans-48"/>
       <use x="381.738281" xlink:href="#DejaVuSans-48"/>
      </g>
     </g>
    </g>
    <g id="ytick_8">
     <g id="line2d_14">
      <g>
       <use style="stroke:#000000;stroke-width:0.8;" x="130.230156" xlink:href="#md3345cfab8" y="87.913652"/>
      </g>
     </g>
     <g id="text_14">
      <!-- 1750000 -->
      <g transform="translate(78.692656 91.71287)scale(0.1 -0.1)">
       <use xlink:href="#DejaVuSans-49"/>
       <use x="63.623047" xlink:href="#DejaVuSans-55"/>
       <use x="127.246094" xlink:href="#DejaVuSans-53"/>
       <use x="190.869141" xlink:href="#DejaVuSans-48"/>
       <use x="254.492188" xlink:href="#DejaVuSans-48"/>
       <use x="318.115234" xlink:href="#DejaVuSans-48"/>
       <use x="381.738281" xlink:href="#DejaVuSans-48"/>
      </g>
     </g>
    </g>
    <g id="ytick_9">
     <g id="line2d_15">
      <g>
       <use style="stroke:#000000;stroke-width:0.8;" x="130.230156" xlink:href="#md3345cfab8" y="50.16215"/>
      </g>
     </g>
     <g id="text_15">
      <!-- 2000000 -->
      <g transform="translate(78.692656 53.961368)scale(0.1 -0.1)">
       <use xlink:href="#DejaVuSans-50"/>
       <use x="63.623047" xlink:href="#DejaVuSans-48"/>
       <use x="127.246094" xlink:href="#DejaVuSans-48"/>
       <use x="190.869141" xlink:href="#DejaVuSans-48"/>
       <use x="254.492188" xlink:href="#DejaVuSans-48"/>
       <use x="318.115234" xlink:href="#DejaVuSans-48"/>
       <use x="381.738281" xlink:href="#DejaVuSans-48"/>
      </g>
     </g>
    </g>
    <g id="text_16">
     <!-- queue -->
     <defs>
      <path d="M 14.796875 27.296875 
Q 14.796875 17.390625 18.875 11.75 
Q 22.953125 6.109375 30.078125 6.109375 
Q 37.203125 6.109375 41.296875 11.75 
Q 45.40625 17.390625 45.40625 27.296875 
Q 45.40625 37.203125 41.296875 42.84375 
Q 37.203125 48.484375 30.078125 48.484375 
Q 22.953125 48.484375 18.875 42.84375 
Q 14.796875 37.203125 14.796875 27.296875 
z
M 45.40625 8.203125 
Q 42.578125 3.328125 38.25 0.953125 
Q 33.9375 -1.421875 27.875 -1.421875 
Q 17.96875 -1.421875 11.734375 6.484375 
Q 5.515625 14.40625 5.515625 27.296875 
Q 5.515625 40.1875 11.734375 48.09375 
Q 17.96875 56 27.875 56 
Q 33.9375 56 38.25 53.625 
Q 42.578125 51.265625 45.40625 46.390625 
L 45.40625 54.6875 
L 54.390625 54.6875 
L 54.390625 -20.796875 
L 45.40625 -20.796875 
z
" id="DejaVuSans-113"/>
      <path d="M 8.5 21.578125 
L 8.5 54.6875 
L 17.484375 54.6875 
L 17.484375 21.921875 
Q 17.484375 14.15625 20.5 10.265625 
Q 23.53125 6.390625 29.59375 6.390625 
Q 36.859375 6.390625 41.078125 11.03125 
Q 45.3125 15.671875 45.3125 23.6875 
L 45.3125 54.6875 
L 54.296875 54.6875 
L 54.296875 0 
L 45.3125 0 
L 45.3125 8.40625 
Q 42.046875 3.421875 37.71875 1 
Q 33.40625 -1.421875 27.6875 -1.421875 
Q 18.265625 -1.421875 13.375 4.4375 
Q 8.5 10.296875 8.5 21.578125 
z
M 31.109375 56 
z
" id="DejaVuSans-117"/>
      <path d="M 56.203125 29.59375 
L 56.203125 25.203125 
L 14.890625 25.203125 
Q 15.484375 15.921875 20.484375 11.0625 
Q 25.484375 6.203125 34.421875 6.203125 
Q 39.59375 6.203125 44.453125 7.46875 
Q 49.3125 8.734375 54.109375 11.28125 
L 54.109375 2.78125 
Q 49.265625 0.734375 44.1875 -0.34375 
Q 39.109375 -1.421875 33.890625 -1.421875 
Q 20.796875 -1.421875 13.15625 6.1875 
Q 5.515625 13.8125 5.515625 26.8125 
Q 5.515625 40.234375 12.765625 48.109375 
Q 20.015625 56 32.328125 56 
Q 43.359375 56 49.78125 48.890625 
Q 56.203125 41.796875 56.203125 29.59375 
z
M 47.21875 32.234375 
Q 47.125 39.59375 43.09375 43.984375 
Q 39.0625 48.390625 32.421875 48.390625 
Q 24.90625 48.390625 20.390625 44.140625 
Q 15.875 39.890625 15.1875 32.171875 
z
" id="DejaVuSans-101"/>
     </defs>
     <g transform="translate(61.415156 209.283177)rotate(-90)scale(0.1 -0.1)">
      <use xlink:href="#DejaVuSans-113"/>
      <use x="63.476562" xlink:href="#DejaVuSans-117"/>
      <use x="126.855469" xlink:href="#DejaVuSans-101"/>
      <use x="188.378906" xlink:href="#DejaVuSans-117"/>
      <use x="251.757812" xlink:href="#DejaVuSans-101"/>
     </g>
     <!-- (bytes) -->
     <defs>
      <path d="M 31 75.875 
Q 24.46875 64.65625 21.28125 53.65625 
Q 18.109375 42.671875 18.109375 31.390625 
Q 18.109375 20.125 21.3125 9.0625 
Q 24.515625 -2 31 -13.1875 
L 23.1875 -13.1875 
Q 15.875 -1.703125 12.234375 9.375 
Q 8.59375 20.453125 8.59375 31.390625 
Q 8.59375 42.28125 12.203125 53.3125 
Q 15.828125 64.359375 23.1875 75.875 
z
" id="DejaVuSans-40"/>
      <path d="M 48.6875 27.296875 
Q 48.6875 37.203125 44.609375 42.84375 
Q 40.53125 48.484375 33.40625 48.484375 
Q 26.265625 48.484375 22.1875 42.84375 
Q 18.109375 37.203125 18.109375 27.296875 
Q 18.109375 17.390625 22.1875 11.75 
Q 26.265625 6.109375 33.40625 6.109375 
Q 40.53125 6.109375 44.609375 11.75 
Q 48.6875 17.390625 48.6875 27.296875 
z
M 18.109375 46.390625 
Q 20.953125 51.265625 25.265625 53.625 
Q 29.59375 56 35.59375 56 
Q 45.5625 56 51.78125 48.09375 
Q 58.015625 40.1875 58.015625 27.296875 
Q 58.015625 14.40625 51.78125 6.484375 
Q 45.5625 -1.421875 35.59375 -1.421875 
Q 29.59375 -1.421875 25.265625 0.953125 
Q 20.953125 3.328125 18.109375 8.203125 
L 18.109375 0 
L 9.078125 0 
L 9.078125 75.984375 
L 18.109375 75.984375 
z
" id="DejaVuSans-98"/>
      <path d="M 32.171875 -5.078125 
Q 28.375 -14.84375 24.75 -17.8125 
Q 21.140625 -20.796875 15.09375 -20.796875 
L 7.90625 -20.796875 
L 7.90625 -13.28125 
L 13.1875 -13.28125 
Q 16.890625 -13.28125 18.9375 -11.515625 
Q 21 -9.765625 23.484375 -3.21875 
L 25.09375 0.875 
L 2.984375 54.6875 
L 12.5 54.6875 
L 29.59375 11.921875 
L 46.6875 54.6875 
L 56.203125 54.6875 
z
" id="DejaVuSans-121"/>
      <path d="M 18.3125 70.21875 
L 18.3125 54.6875 
L 36.8125 54.6875 
L 36.8125 47.703125 
L 18.3125 47.703125 
L 18.3125 18.015625 
Q 18.3125 11.328125 20.140625 9.421875 
Q 21.96875 7.515625 27.59375 7.515625 
L 36.8125 7.515625 
L 36.8125 0 
L 27.59375 0 
Q 17.1875 0 13.234375 3.875 
Q 9.28125 7.765625 9.28125 18.015625 
L 9.28125 47.703125 
L 2.6875 47.703125 
L 2.6875 54.6875 
L 9.28125 54.6875 
L 9.28125 70.21875 
z
" id="DejaVuSans-116"/>
      <path d="M 44.28125 53.078125 
L 44.28125 44.578125 
Q 40.484375 46.53125 36.375 47.5 
Q 32.28125 48.484375 27.875 48.484375 
Q 21.1875 48.484375 17.84375 46.4375 
Q 14.5 44.390625 14.5 40.28125 
Q 14.5 37.15625 16.890625 35.375 
Q 19.28125 33.59375 26.515625 31.984375 
L 29.59375 31.296875 
Q 39.15625 29.25 43.1875 25.515625 
Q 47.21875 21.78125 47.21875 15.09375 
Q 47.21875 7.46875 41.1875 3.015625 
Q 35.15625 -1.421875 24.609375 -1.421875 
Q 20.21875 -1.421875 15.453125 -0.5625 
Q 10.6875 0.296875 5.421875 2 
L 5.421875 11.28125 
Q 10.40625 8.6875 15.234375 7.390625 
Q 20.0625 6.109375 24.8125 6.109375 
Q 31.15625 6.109375 34.5625 8.28125 
Q 37.984375 10.453125 37.984375 14.40625 
Q 37.984375 18.0625 35.515625 20.015625 
Q 33.0625 21.96875 24.703125 23.78125 
L 21.578125 24.515625 
Q 13.234375 26.265625 9.515625 29.90625 
Q 5.8125 33.546875 5.8125 39.890625 
Q 5.8125 47.609375 11.28125 51.796875 
Q 16.75 56 26.8125 56 
Q 31.78125 56 36.171875 55.265625 
Q 40.578125 54.546875 44.28125 53.078125 
z
" id="DejaVuSans-115"/>
      <path d="M 8.015625 75.875 
L 15.828125 75.875 
Q 23.140625 64.359375 26.78125 53.3125 
Q 30.421875 42.28125 30.421875 31.390625 
Q 30.421875 20.453125 26.78125 9.375 
Q 23.140625 -1.703125 15.828125 -13.1875 
L 8.015625 -13.1875 
Q 14.5 -2 17.703125 9.0625 
Q 20.90625 20.125 20.90625 31.390625 
Q 20.90625 42.671875 17.703125 53.65625 
Q 14.5 64.65625 8.015625 75.875 
z
" id="DejaVuSans-41"/>
     </defs>
     <g transform="translate(72.612969 211.294896)rotate(-90)scale(0.1 -0.1)">
      <use xlink:href="#DejaVuSans-40"/>
      <use x="39.013672" xlink:href="#DejaVuSans-98"/>
      <use x="102.490234" xlink:href="#DejaVuSans-121"/>
      <use x="161.669922" xlink:href="#DejaVuSans-116"/>
      <use x="200.878906" xlink:href="#DejaVuSans-101"/>
      <use x="262.402344" xlink:href="#DejaVuSans-115"/>
      <use x="314.501953" xlink:href="#DejaVuSans-41"/>
     </g>
    </g>
   </g>
   <g id="line2d_16">
    <path clip-path="url(#p893b9c481d)" d="M 148.889425 352.174167 
L 153.210525 352.174167 
L 153.354797 333.655696 
L 153.49128 250.436889 
L 153.627766 250.894135 
L 153.764355 263.468405 
L 153.902354 348.973443 
L 154.039416 335.027434 
L 154.178953 345.77272 
L 154.315282 341.200258 
L 154.595371 347.144459 
L 154.73561 343.486489 
L 154.871988 351.259674 
L 155.009992 341.886127 
L 155.146568 350.116559 
L 155.283049 332.741203 
L 155.419541 346.458589 
L 155.556006 340.514389 
L 155.695996 344.629604 
L 155.832548 343.943735 
L 155.968924 322.681787 
L 156.241665 239.005734 
L 156.378312 231.918418 
L 156.515232 230.775302 
L 156.65877 224.604291 
L 156.796245 228.717694 
L 156.932899 245.178557 
L 157.070638 297.533246 
L 157.207654 276.728545 
L 157.344192 284.273107 
L 157.480725 278.100283 
L 157.618367 284.730353 
L 157.756099 284.958976 
L 157.893784 285.873469 
L 158.031424 291.1318 
L 158.168991 290.44593 
L 158.308565 299.133608 
L 158.447144 299.471862 
L 158.584588 295.237049 
L 158.721432 281.072384 
L 158.995796 209.513354 
L 159.271557 123.779693 
L 159.547781 94.973183 
L 159.960031 86.971374 
L 160.236683 211.570962 
L 160.374067 195.338722 
L 160.511372 187.79416 
L 160.64872 169.732935 
L 160.786127 206.9985 
L 160.925445 212.256831 
L 161.202076 237.515002 
L 161.4761 236.49088 
L 161.613 217.743786 
L 161.749911 218.886901 
L 162.023834 138.411571 
L 162.29866 50.163056 
L 162.435607 50.848925 
L 162.575572 53.592402 
L 162.862036 64.337688 
L 163.004361 62.737326 
L 163.148522 52.830124 
L 163.292538 66.623919 
L 163.719603 50.381712 
L 163.996706 177.963367 
L 164.27432 246.778919 
L 164.686727 126.065924 
L 164.829187 118.064115 
L 164.966804 91.772459 
L 165.103648 88.343113 
L 165.378604 77.369204 
L 165.654505 100.231514 
L 165.930114 88.800359 
L 166.068465 85.599636 
L 166.205783 85.599636 
L 166.481244 129.723893 
L 166.619776 124.465562 
L 166.897785 104.34673 
L 167.034563 121.493462 
L 167.171704 113.034407 
L 167.44743 144.815132 
L 167.867092 133.15324 
L 168.004632 136.811209 
L 168.143355 113.491653 
L 168.419389 129.038024 
L 168.696157 122.8652 
L 168.834198 124.465562 
L 168.972013 114.177523 
L 169.110008 114.406146 
L 169.248334 129.723893 
L 169.386738 122.8652 
L 169.524784 140.011933 
L 169.662099 137.039832 
L 169.798605 142.298164 
L 169.937138 126.980416 
L 170.07736 144.127148 
L 170.216556 142.069541 
L 170.907948 104.34673 
L 171.184182 113.9489 
L 171.321949 111.434046 
L 171.462077 119.664477 
L 172.019948 231.461171 
L 172.844527 101.831875 
L 173.255729 50.391679 
L 173.393112 51.306171 
L 173.530516 57.936241 
L 173.667921 94.515936 
L 173.805701 92.686952 
L 174.356466 50.848925 
L 174.631194 97.03079 
L 174.768692 116.463754 
L 175.043502 99.088398 
L 175.318579 72.568119 
L 175.455534 86.971374 
L 175.592116 74.168481 
L 175.865473 78.283696 
L 176.003507 74.168481 
L 176.416514 84.913766 
L 176.692349 72.110873 
L 176.831089 72.339496 
L 176.968951 78.51232 
L 177.10798 76.683335 
L 177.38536 110.519553 
L 177.802848 323.139033 
L 177.940381 337.999535 
L 178.216555 263.468405 
L 178.354821 263.697028 
L 178.634626 275.356806 
L 178.772575 272.385008 
L 178.911572 274.213691 
L 179.188678 292.274915 
L 179.327039 289.988684 
L 179.463913 294.332523 
L 179.600867 290.674554 
L 179.74105 294.789769 
L 179.879185 290.44593 
L 180.017086 297.76187 
L 180.15437 295.018392 
L 180.291331 298.219116 
L 180.430249 295.704262 
L 180.569683 298.904985 
L 180.707872 295.247016 
L 180.845614 295.475639 
L 180.983944 288.1597 
L 181.123174 291.589046 
L 181.260957 287.016584 
L 181.401708 292.274915 
L 181.539939 288.616946 
L 181.678568 289.074192 
L 181.817676 290.44593 
L 181.955093 290.44593 
L 182.092605 291.589046 
L 182.23042 287.931076 
L 182.369802 292.732161 
L 182.506686 288.845569 
L 182.643849 291.817669 
L 182.781225 289.302815 
L 182.919692 293.189408 
L 183.058439 290.217307 
L 183.198627 293.875277 
L 183.337108 290.903177 
L 183.475548 293.875277 
L 183.61343 289.531438 
L 183.752209 293.418031 
L 183.890246 291.1318 
L 184.02799 294.1039 
L 184.166508 293.189408 
L 184.304278 296.847377 
L 184.582545 294.561146 
L 184.72005 295.247016 
L 184.857339 294.332523 
L 184.995015 295.475639 
L 185.406971 290.44593 
L 185.544663 290.903177 
L 185.68347 289.760061 
L 185.82251 292.503538 
L 185.960643 290.674554 
L 186.099963 294.332523 
L 186.238409 290.217307 
L 186.376396 291.1318 
L 186.514078 287.931076 
L 186.652451 289.760061 
L 186.929459 286.787961 
L 187.205329 287.931076 
L 187.620561 290.903177 
L 187.758231 289.302815 
L 187.896825 291.589046 
L 188.03478 291.589046 
L 188.174479 292.503538 
L 188.315659 290.674554 
L 188.454301 290.674554 
L 188.59238 289.760061 
L 188.730918 287.702453 
L 188.8715 290.217307 
L 189.009373 286.559338 
L 189.14759 286.787961 
L 189.285732 285.873469 
L 189.423772 286.559338 
L 189.561692 285.416222 
L 189.699852 282.672745 
L 189.838622 285.644845 
L 189.977614 285.416222 
L 190.255462 288.388323 
L 190.393316 287.931076 
L 190.530998 288.616946 
L 190.668741 288.388323 
L 190.807195 288.388323 
L 190.947884 299.133608 
L 191.091603 352.174167 
L 191.235941 352.174167 
L 191.511504 338.685404 
L 191.649436 336.856419 
L 192.476962 305.992301 
L 192.614719 307.592663 
L 192.756109 299.590854 
L 192.895376 302.562955 
L 193.0337 297.76187 
L 193.171573 299.133608 
L 193.309702 298.904985 
L 193.453348 297.076 
L 193.592253 297.990493 
L 193.730097 295.475639 
L 193.867766 295.932885 
L 194.006148 294.1039 
L 194.144864 296.618754 
L 194.283182 294.789769 
L 194.420308 295.932885 
L 194.558014 291.817669 
L 194.698428 295.704262 
L 194.836575 293.418031 
L 194.976519 295.475639 
L 195.114533 292.046292 
L 195.252599 294.1039 
L 195.390143 292.960785 
L 195.663872 295.018392 
L 195.800553 295.247016 
L 195.939763 295.932885 
L 196.077841 295.475639 
L 196.355307 294.1039 
L 196.495051 293.875277 
L 196.63218 293.418031 
L 196.770218 294.561146 
L 196.907353 292.960785 
L 197.045159 294.332523 
L 197.184556 291.817669 
L 197.321991 295.704262 
L 197.45896 293.875277 
L 197.596524 296.161508 
L 197.73402 294.332523 
L 197.871414 294.1039 
L 198.008847 294.332523 
L 198.146735 296.161508 
L 198.283562 293.646654 
L 198.421962 294.561146 
L 198.558828 293.418031 
L 198.836139 295.247016 
L 198.97394 294.332523 
L 199.111347 295.018392 
L 199.25212 292.503538 
L 199.389737 295.475639 
L 199.527547 292.503538 
L 199.665606 297.076 
L 199.803679 293.646654 
L 199.94201 297.76187 
L 200.080213 295.704262 
L 200.217885 296.618754 
L 200.492978 293.418031 
L 200.630133 295.018392 
L 200.767118 292.503538 
L 200.904574 294.561146 
L 201.041466 292.274915 
L 201.458922 297.76187 
L 201.596627 294.1039 
L 201.73352 295.932885 
L 201.870989 293.170381 
L 202.008632 297.304623 
L 202.145906 293.875277 
L 202.282767 296.161508 
L 202.420727 291.817669 
L 202.557796 297.076 
L 202.694573 295.018392 
L 202.832137 298.447739 
L 202.970028 296.847377 
L 203.107692 298.447739 
L 203.382457 296.847377 
L 203.520178 297.076 
L 203.658525 295.475639 
L 203.795663 295.475639 
L 203.93269 295.247016 
L 204.071511 294.561146 
L 204.208364 292.960785 
L 204.345506 345.544097 
L 204.4895 352.174167 
L 204.633461 352.174167 
L 204.909085 334.570188 
L 205.462106 297.076 
L 205.599073 285.644845 
L 205.736492 292.732161 
L 205.873686 287.702453 
L 206.011271 295.247016 
L 206.149118 291.589046 
L 206.287301 298.676362 
L 206.425895 296.618754 
L 206.563545 301.419839 
L 206.700733 298.676362 
L 206.837522 300.276724 
L 207.113778 298.447739 
L 207.250381 298.676362 
L 207.387444 296.618754 
L 207.525044 297.990493 
L 207.667217 296.161508 
L 207.806115 297.076 
L 207.944553 295.018392 
L 208.081354 296.847377 
L 208.218439 296.161508 
L 208.355549 297.533246 
L 208.492688 294.561146 
L 208.629612 299.362231 
L 208.766584 295.018392 
L 208.904554 298.219116 
L 209.042039 293.875277 
L 209.180132 297.304623 
L 209.318443 295.247016 
L 209.45846 296.618754 
L 209.597341 296.161508 
L 209.735785 295.018392 
L 209.872987 297.304623 
L 210.010149 294.561146 
L 210.147073 298.219116 
L 210.28613 295.247016 
L 210.423353 298.676362 
L 210.560891 295.704262 
L 210.698088 298.904985 
L 210.834867 296.390131 
L 210.971797 298.447739 
L 211.109482 293.418031 
L 211.247244 296.390131 
L 211.384846 290.674554 
L 211.524208 294.561146 
L 211.662866 291.1318 
L 211.801796 297.304623 
L 211.940135 292.503538 
L 212.078207 297.304623 
L 212.216201 293.646654 
L 212.491357 296.161508 
L 212.628759 295.018392 
L 212.766331 297.990493 
L 212.904504 294.561146 
L 213.041613 299.133608 
L 213.178158 294.332523 
L 213.315434 298.676362 
L 213.45261 294.561146 
L 213.59052 298.219116 
L 213.727978 295.475639 
L 213.865764 297.76187 
L 214.002601 293.646654 
L 214.141976 297.533246 
L 214.280107 291.589046 
L 214.41994 297.069658 
L 214.558142 292.960785 
L 214.695661 296.390131 
L 214.833631 292.274915 
L 214.970481 296.618754 
L 215.107346 294.561146 
L 215.244011 297.076 
L 215.383647 297.076 
L 215.521433 296.847377 
L 215.662601 297.533246 
L 215.799435 296.161508 
L 215.938533 299.362231 
L 216.075704 294.789769 
L 216.212816 297.76187 
L 216.349639 293.875277 
L 216.488992 300.505347 
L 216.626151 294.789769 
L 216.764179 300.048101 
L 216.902056 294.789769 
L 217.040655 297.990493 
L 217.178383 292.046292 
L 217.315269 297.990493 
L 217.454198 293.189408 
L 217.591957 297.990493 
L 217.734954 352.174167 
L 218.023936 352.174167 
L 218.437818 316.051717 
L 218.575919 312.165125 
L 218.714573 295.932885 
L 218.852761 294.789769 
L 218.99063 290.903177 
L 219.129133 297.533246 
L 219.267431 293.646654 
L 219.543274 297.990493 
L 219.817967 299.133608 
L 219.955012 298.219116 
L 220.092141 300.73397 
L 220.228589 298.904985 
L 220.365137 300.962593 
L 220.501785 298.904985 
L 220.641047 301.191216 
L 220.778796 299.819477 
L 220.917102 300.73397 
L 221.055014 300.505347 
L 221.191854 302.334332 
L 221.330525 300.048101 
L 221.4681 302.791578 
L 221.605612 298.676362 
L 221.744654 301.648462 
L 221.883653 296.161508 
L 222.022927 301.877085 
L 222.16186 296.161508 
L 222.299575 301.877085 
L 222.43808 298.904985 
L 222.578939 301.877085 
L 222.717469 298.219116 
L 222.854347 297.990493 
L 222.992835 298.447739 
L 223.135403 296.390131 
L 223.275766 297.76187 
L 223.414471 294.332523 
L 223.552297 299.590854 
L 223.69056 296.390131 
L 223.827311 303.020201 
L 223.965721 299.819477 
L 224.103184 300.962593 
L 224.243332 297.533246 
L 224.379878 299.590854 
L 224.517839 292.732161 
L 224.656217 297.990493 
L 224.793684 292.046292 
L 224.931352 297.533246 
L 225.069151 289.531438 
L 225.207427 297.076 
L 225.345214 294.561146 
L 225.482606 297.304623 
L 225.621008 296.161508 
L 225.760732 296.390131 
L 225.902119 297.076 
L 226.039383 296.618754 
L 226.179586 297.76187 
L 226.318453 296.161508 
L 226.457152 297.533246 
L 226.594669 294.561146 
L 226.732981 299.590854 
L 226.871331 295.247016 
L 227.008314 299.819477 
L 227.146582 295.932885 
L 227.288223 298.447739 
L 227.427028 294.789769 
L 227.564371 298.676362 
L 227.702013 293.418031 
L 227.84125 298.904985 
L 227.97841 293.189408 
L 228.115845 296.847377 
L 228.254254 296.161508 
L 229.086973 298.904985 
L 229.226201 296.390131 
L 229.363444 298.676362 
L 229.502553 293.646654 
L 229.641088 298.904985 
L 229.780988 294.1039 
L 229.923025 298.904985 
L 230.06156 293.189408 
L 230.201596 298.676362 
L 230.339997 292.960785 
L 230.480712 297.990493 
L 230.620364 293.418031 
L 230.893994 296.618754 
L 231.033735 315.137225 
L 231.17642 352.174167 
L 231.31994 352.174167 
L 231.45791 335.941927 
L 231.595852 339.371273 
L 231.734297 333.655696 
L 231.871015 335.256057 
L 232.008142 325.196641 
L 232.146014 326.797003 
L 232.283699 318.109325 
L 232.421035 317.423456 
L 232.557659 314.451356 
L 232.694527 314.222733 
L 232.835782 315.365848 
L 232.974265 312.622371 
L 233.111558 313.994109 
L 233.385933 310.564763 
L 233.52364 310.33614 
L 233.798289 309.193024 
L 234.485165 303.934693 
L 234.621948 300.73397 
L 234.759074 301.191216 
L 234.897397 294.561146 
L 235.035487 299.133608 
L 235.173934 292.960785 
L 235.311442 295.704262 
L 235.588219 293.875277 
L 235.725161 296.618754 
L 235.861917 295.018392 
L 235.999709 296.847377 
L 236.137413 295.247016 
L 236.277528 297.533246 
L 236.4211 296.618754 
L 236.56443 297.76187 
L 236.703222 295.475639 
L 236.842596 298.219116 
L 236.980168 293.646654 
L 237.117612 297.304623 
L 237.255422 294.332523 
L 237.392275 294.1039 
L 237.531081 293.418031 
L 237.668616 295.018392 
L 237.805883 293.646654 
L 237.942835 296.847377 
L 238.079421 294.789769 
L 238.216785 295.475639 
L 238.354877 292.960785 
L 238.630948 296.390131 
L 238.769626 295.018392 
L 238.908089 298.447739 
L 239.046259 296.161508 
L 239.184149 299.362231 
L 239.32209 296.390131 
L 239.460446 299.133608 
L 239.59863 295.475639 
L 239.737731 300.048101 
L 239.876633 294.789769 
L 240.0146 298.447739 
L 240.152205 295.247016 
L 240.29174 296.618754 
L 240.429275 296.847377 
L 240.5673 297.304623 
L 240.705208 296.618754 
L 240.843318 292.274915 
L 240.981657 292.732161 
L 241.119593 291.360423 
L 241.257436 291.1318 
L 241.397393 291.817669 
L 241.53527 291.589046 
L 241.810363 295.704262 
L 241.948039 295.932885 
L 242.08578 297.533246 
L 242.223489 294.1039 
L 242.36119 295.475639 
L 242.637853 293.418031 
L 242.775458 293.646654 
L 242.914352 291.817669 
L 243.328558 298.676362 
L 243.467234 296.390131 
L 243.605303 298.219116 
L 243.742907 293.189408 
L 243.879796 295.932885 
L 244.017254 296.161508 
L 244.155418 295.475639 
L 244.293758 293.875277 
L 244.431315 352.174167 
L 244.710646 352.174167 
L 244.985714 332.969827 
L 245.399118 295.932885 
L 245.536381 291.360423 
L 245.673751 292.274915 
L 245.811384 295.475639 
L 245.950892 293.418031 
L 246.227171 297.304623 
L 246.364926 296.618754 
L 246.502661 299.590854 
L 246.64126 297.990493 
L 246.77932 302.105708 
L 246.91722 298.676362 
L 247.055304 299.819477 
L 247.193095 297.533246 
L 247.331219 298.676362 
L 247.468939 294.789769 
L 247.606349 300.505347 
L 247.744325 294.332523 
L 247.883515 298.447739 
L 248.020748 292.503538 
L 248.157739 300.048101 
L 248.295045 293.646654 
L 248.431938 298.904985 
L 248.56903 294.789769 
L 248.706223 300.276724 
L 248.844328 298.219116 
L 248.981397 300.276724 
L 249.118691 297.76187 
L 249.257076 298.676362 
L 249.393855 298.219116 
L 249.530666 299.133608 
L 249.803768 298.676362 
L 249.941844 300.505347 
L 250.078377 300.048101 
L 250.214965 300.505347 
L 250.352057 297.76187 
L 250.493988 301.191216 
L 250.630846 296.847377 
L 250.767711 300.73397 
L 250.904315 294.789769 
L 251.04406 300.048101 
L 251.188202 292.960785 
L 251.325506 300.962593 
L 251.46244 294.332523 
L 251.600116 299.590854 
L 251.739404 297.76187 
L 251.876857 300.276724 
L 252.01407 298.904985 
L 252.287381 299.819477 
L 252.424357 299.819477 
L 252.835634 297.533246 
L 253.110371 298.676362 
L 253.248063 300.048101 
L 253.384793 300.276724 
L 253.523961 301.191216 
L 253.661878 300.962593 
L 253.799405 297.076 
L 253.936008 299.819477 
L 254.073902 295.475639 
L 254.211793 300.73397 
L 254.350191 295.704262 
L 254.489655 302.334332 
L 254.629931 299.362231 
L 254.769444 300.73397 
L 255.045322 297.056974 
L 255.183532 299.590854 
L 255.322244 297.533246 
L 255.460226 298.219116 
L 255.598979 297.076 
L 255.73866 300.048101 
L 256.156399 296.161508 
L 256.294223 297.76187 
L 256.430847 293.418031 
L 256.570031 296.390131 
L 256.711422 292.732161 
L 256.848623 296.161508 
L 256.985991 295.704262 
L 257.125985 297.990493 
L 257.267072 297.990493 
L 257.682592 299.362231 
L 257.824013 352.174167 
L 257.969951 352.174167 
L 258.109845 349.659313 
L 258.247972 332.969827 
L 258.385352 331.598088 
L 258.800079 302.105708 
L 258.938819 295.247016 
L 259.079004 296.161508 
L 259.216494 290.44593 
L 259.353846 295.932885 
L 259.490427 292.274915 
L 259.627873 301.191216 
L 259.765221 295.932885 
L 259.902048 302.791578 
L 260.0391 296.161508 
L 260.175898 301.648462 
L 260.313392 294.789769 
L 260.450508 300.73397 
L 260.588821 297.533246 
L 260.72643 299.590854 
L 260.864395 298.447739 
L 261.002461 299.133608 
L 261.140262 297.76187 
L 261.277892 299.819477 
L 261.415378 297.076 
L 261.552802 299.362231 
L 261.691053 297.076 
L 261.829034 300.73397 
L 261.966523 298.219116 
L 262.103982 301.419839 
L 262.241462 299.590854 
L 262.38062 299.362231 
L 262.517186 299.819477 
L 262.654919 294.332523 
L 262.7929 300.276724 
L 262.930771 291.589046 
L 263.068344 299.362231 
L 263.20649 297.990493 
L 263.344946 297.990493 
L 263.495007 299.819477 
L 263.637159 296.390131 
L 263.914757 300.962593 
L 264.051763 299.590854 
L 264.188563 300.048101 
L 264.325882 298.676362 
L 264.463064 300.276724 
L 264.599746 297.76187 
L 264.737345 298.447739 
L 264.87522 286.330715 
L 265.013909 289.988684 
L 265.151744 297.304623 
L 265.289247 292.732161 
L 265.427507 298.904985 
L 265.564432 295.018392 
L 265.701302 299.133608 
L 265.83815 297.533246 
L 265.975034 299.133608 
L 266.114459 297.533246 
L 266.252264 297.304623 
L 266.389557 298.676362 
L 266.526996 298.447739 
L 266.663866 297.76187 
L 266.800997 297.990493 
L 267.075197 295.475639 
L 267.212337 294.1039 
L 267.349898 295.475639 
L 267.48715 292.732161 
L 267.624148 293.189408 
L 267.89848 291.360423 
L 268.035465 293.418031 
L 268.172633 293.646654 
L 268.30945 294.332523 
L 268.446272 292.960785 
L 268.583191 295.475639 
L 268.721004 294.1039 
L 268.859593 296.847377 
L 268.998226 295.704262 
L 269.135432 298.447739 
L 269.27244 296.847377 
L 269.409604 297.304623 
L 269.546784 297.076 
L 269.683879 294.561146 
L 269.821057 296.847377 
L 269.961947 297.304623 
L 270.391502 292.046292 
L 270.534345 292.503538 
L 270.67752 294.561146 
L 270.81452 294.1039 
L 270.951691 295.932885 
L 271.093383 309.650875 
L 271.237814 352.174167 
L 271.379913 352.174167 
L 272.211834 301.648462 
L 272.622742 286.559338 
L 272.759557 294.332523 
L 272.896074 287.702453 
L 273.032593 295.704262 
L 273.169047 292.274915 
L 273.305556 297.533246 
L 273.4422 296.618754 
L 273.578749 299.819477 
L 273.715364 299.362231 
L 273.854159 300.276724 
L 274.134052 298.447739 
L 274.272222 298.904985 
L 274.409152 298.676362 
L 274.682516 294.332523 
L 274.81905 292.732161 
L 274.955597 293.646654 
L 275.092152 292.503538 
L 275.36605 294.789769 
L 275.503599 295.475639 
L 275.640501 297.533246 
L 275.777194 295.018392 
L 275.913698 296.847377 
L 276.050506 291.589046 
L 276.187104 294.789769 
L 276.323827 291.360423 
L 276.598519 295.018392 
L 276.735093 293.418031 
L 276.871852 298.904985 
L 277.008515 295.475639 
L 277.145152 298.219116 
L 277.281937 295.475639 
L 277.418659 295.704262 
L 277.555269 294.1039 
L 277.691976 295.932885 
L 277.829332 294.789769 
L 277.966771 295.018392 
L 278.24078 294.1039 
L 278.377652 296.390131 
L 278.514456 293.875277 
L 278.651427 295.704262 
L 278.925262 292.960785 
L 279.064767 293.875277 
L 279.202594 292.503538 
L 279.341652 294.332523 
L 279.480278 292.960785 
L 279.617612 295.475639 
L 279.754638 291.817669 
L 279.891779 292.046292 
L 280.028796 293.646654 
L 280.166078 292.732161 
L 280.302799 294.332523 
L 280.441349 291.817669 
L 280.578566 294.789769 
L 280.716059 293.875277 
L 281.12715 296.390131 
L 281.537179 293.875277 
L 281.678609 293.646654 
L 281.815409 294.1039 
L 281.951879 292.503538 
L 282.088406 292.732161 
L 282.363307 290.44593 
L 282.638497 293.646654 
L 282.77608 293.418031 
L 283.05162 292.732161 
L 283.188462 291.360423 
L 283.463169 294.1039 
L 283.599492 293.189408 
L 283.735895 294.789769 
L 283.872496 292.503538 
L 284.008889 294.789769 
L 284.145445 290.674554 
L 284.287449 294.561146 
L 284.428534 293.646654 
L 284.572248 352.174167 
L 284.716354 352.174167 
L 284.853003 347.601705 
L 285.128157 329.083234 
L 285.960392 297.533246 
L 286.097346 300.276724 
L 286.233786 296.618754 
L 286.371537 300.276724 
L 286.508115 294.561146 
L 286.644959 300.73397 
L 286.782923 295.475639 
L 286.921019 301.648462 
L 287.058168 295.247016 
L 287.19549 300.276724 
L 287.333431 295.704262 
L 287.47007 299.590854 
L 287.606575 295.247016 
L 287.743247 299.362231 
L 287.880317 297.990493 
L 288.159177 300.505347 
L 288.29915 298.676362 
L 288.439109 298.904985 
L 288.576314 297.990493 
L 288.713413 300.962593 
L 288.852 297.076 
L 288.988491 298.904985 
L 289.125279 294.789769 
L 289.263387 300.048101 
L 289.399928 294.332523 
L 289.536893 300.276724 
L 289.674615 297.990493 
L 289.812107 300.048101 
L 289.949815 296.161508 
L 290.087868 299.590854 
L 290.227434 294.561146 
L 290.364894 299.819477 
L 290.502105 294.332523 
L 290.639229 297.076 
L 290.776042 295.018392 
L 290.916416 300.276724 
L 291.058307 299.819477 
L 291.194875 299.819477 
L 291.331405 301.648462 
L 291.468268 299.590854 
L 291.60512 301.419839 
L 291.742866 298.219116 
L 291.879245 301.648462 
L 292.016796 296.847377 
L 292.154516 301.877085 
L 292.29106 295.704262 
L 292.427429 300.505347 
L 292.563787 297.304623 
L 292.702693 300.048101 
L 292.843522 296.847377 
L 292.984276 298.219116 
L 293.123824 296.161508 
L 293.26094 298.447739 
L 293.402501 293.875277 
L 293.538975 297.990493 
L 293.675319 294.561146 
L 293.818551 298.904985 
L 293.962133 296.847377 
L 294.234882 298.676362 
L 294.371298 297.76187 
L 294.508745 298.904985 
L 294.650539 294.789769 
L 294.791327 298.904985 
L 294.9307 293.646654 
L 295.067697 299.362231 
L 295.2046 294.1039 
L 295.344912 298.904985 
L 295.481324 295.018392 
L 295.621604 297.990493 
L 295.757921 294.332523 
L 295.894607 297.76187 
L 296.031707 293.646654 
L 296.168493 297.76187 
L 296.305744 294.1039 
L 296.442598 297.533246 
L 296.579564 296.390131 
L 296.716096 298.219116 
L 296.991121 293.875277 
L 297.26717 296.161508 
L 297.406272 296.618754 
L 297.545545 294.332523 
L 297.682459 297.304623 
L 298.104068 352.174167 
L 298.655963 315.594471 
L 298.929785 291.817669 
L 299.066722 286.330715 
L 299.203112 293.418031 
L 299.339647 286.787961 
L 299.4791 293.189408 
L 299.61634 289.760061 
L 299.753225 295.932885 
L 299.891565 295.932885 
L 300.028127 301.648462 
L 300.164513 300.021675 
L 300.304324 302.105708 
L 300.716722 295.704262 
L 300.859105 295.018392 
L 300.998521 297.304623 
L 301.135295 294.1039 
L 301.274583 297.076 
L 301.411052 293.418031 
L 301.549286 299.362231 
L 301.687538 292.732161 
L 301.823813 299.362231 
L 301.961079 293.875277 
L 302.097443 297.990493 
L 302.234176 292.274915 
L 302.370546 296.847377 
L 302.50738 291.1318 
L 302.643895 297.76187 
L 302.780361 294.1039 
L 302.917304 298.447739 
L 303.054176 294.561146 
L 303.190663 299.819477 
L 303.32746 297.304623 
L 303.463941 297.76187 
L 303.737648 295.475639 
L 304.022251 295.932885 
L 304.159721 299.362231 
L 304.297273 296.847377 
L 304.433571 299.133608 
L 304.570049 297.076 
L 304.706387 300.276724 
L 304.842677 294.1039 
L 304.980039 299.819477 
L 305.123498 292.046292 
L 305.261628 298.219116 
L 305.401659 293.875277 
L 305.539308 297.533246 
L 305.68158 295.247016 
L 305.818839 297.990493 
L 305.95802 295.475639 
L 306.095106 297.304623 
L 306.233274 297.533246 
L 306.370575 297.533246 
L 306.510975 296.161508 
L 306.650634 296.847377 
L 306.787309 296.618754 
L 306.924133 295.932885 
L 307.0611 297.076 
L 307.197958 294.561146 
L 307.334841 298.219116 
L 307.47188 292.732161 
L 307.609169 299.133608 
L 307.746568 292.732161 
L 307.887754 299.362231 
L 308.025123 295.247016 
L 308.164666 298.447739 
L 308.301919 295.704262 
L 308.438607 298.676362 
L 308.576003 296.390131 
L 308.713327 297.533246 
L 308.85058 295.247016 
L 308.987908 297.304623 
L 309.124486 293.646654 
L 309.260921 296.847377 
L 309.397315 296.161508 
L 309.669825 296.847377 
L 309.806278 297.990493 
L 309.943013 297.990493 
L 310.079321 298.904985 
L 310.355604 293.189408 
L 310.494071 297.990493 
L 310.630727 294.1039 
L 310.7672 297.990493 
L 310.907127 293.418031 
L 311.04831 297.304623 
L 311.332603 352.174167 
L 311.477023 352.174167 
L 311.622179 346.916741 
L 312.033461 313.079617 
L 312.447395 284.958976 
L 312.586912 297.533246 
L 312.726202 291.1318 
L 312.86809 296.618754 
L 313.004953 291.1318 
L 313.141845 301.419839 
L 313.278835 295.704262 
L 313.41804 301.648462 
L 313.555769 294.789769 
L 313.692702 299.362231 
L 313.829238 297.076 
L 313.965862 301.419839 
L 314.104113 296.618754 
L 314.242357 298.676362 
L 314.379188 294.789769 
L 314.518183 297.990493 
L 314.654583 294.332523 
L 314.79391 297.076 
L 314.930337 297.076 
L 315.0668 296.847377 
L 315.203255 298.219116 
L 315.341223 297.076 
L 315.478766 299.362231 
L 315.620219 297.76187 
L 315.764279 301.648462 
L 315.900972 298.676362 
L 316.037689 300.962593 
L 316.17543 294.561146 
L 316.313467 298.904985 
L 316.450664 292.046292 
L 316.587826 295.018392 
L 316.724516 291.589046 
L 316.862706 298.447739 
L 317.001305 295.932885 
L 317.138884 300.048101 
L 317.276291 295.932885 
L 317.413702 298.676362 
L 317.551587 297.076 
L 317.689925 297.990493 
L 317.828923 297.076 
L 317.96573 297.533246 
L 318.240548 296.161508 
L 318.378172 297.990493 
L 318.518775 297.533246 
L 318.658871 298.219116 
L 318.798031 295.247016 
L 318.935316 299.133608 
L 319.074267 293.646654 
L 319.214963 299.590854 
L 319.353041 292.960785 
L 319.493221 298.904985 
L 319.629978 293.418031 
L 319.766551 301.648462 
L 319.903097 295.475639 
L 320.040966 299.819477 
L 320.17763 297.533246 
L 320.315215 298.219116 
L 320.451764 297.533246 
L 320.590368 297.76187 
L 320.727519 299.133608 
L 320.864355 296.847377 
L 321.001104 298.219116 
L 321.137669 297.304623 
L 321.278256 299.819477 
L 321.414885 299.133608 
L 321.552041 300.048101 
L 321.690287 298.447739 
L 321.967466 297.990493 
L 322.107184 301.648462 
L 322.247185 297.076 
L 322.383729 300.962593 
L 322.52027 298.219116 
L 322.660318 303.934693 
L 322.79696 299.590854 
L 322.933558 303.70607 
L 323.070988 300.962593 
L 323.209916 301.877085 
L 323.350382 301.648462 
L 323.628313 304.163316 
L 323.764872 302.562955 
L 323.903415 303.477447 
L 324.320678 301.191216 
L 324.45794 301.191216 
L 324.595462 352.174167 
L 324.875795 352.174167 
L 325.012411 333.427073 
L 325.149604 332.283957 
L 325.701561 318.337948 
L 325.839799 318.337948 
L 325.976917 317.194833 
L 326.660324 326.339757 
L 326.797427 326.56838 
L 326.934621 327.711495 
L 327.071413 325.882511 
L 327.211521 329.311857 
L 327.349003 324.282149 
L 327.487401 328.854611 
L 327.625521 320.852802 
L 327.763123 325.882511 
L 327.900569 318.337948 
L 328.038831 321.081425 
L 328.177489 318.109325 
L 328.314324 318.337948 
L 328.725895 312.393748 
L 328.863528 312.850994 
L 329.138331 314.679979 
L 329.413824 313.30824 
L 329.550614 310.33614 
L 329.824518 313.30824 
L 329.961211 311.479255 
L 330.098103 312.165125 
L 330.235435 306.220924 
L 330.375322 306.906793 
L 330.514476 299.819477 
L 330.654357 302.334332 
L 330.792745 296.383789 
L 330.92985 301.191216 
L 331.067103 296.847377 
L 331.204164 300.73397 
L 331.341305 298.447739 
L 331.479964 300.505347 
L 331.753423 297.990493 
L 331.890522 300.505347 
L 332.027586 297.990493 
L 332.165196 299.819477 
L 332.304632 295.932885 
L 332.445369 299.133608 
L 332.584593 294.789769 
L 332.721755 299.133608 
L 332.861753 293.418031 
L 332.99948 299.362231 
L 333.136826 292.960785 
L 333.274059 298.676362 
L 333.411246 293.646654 
L 333.549455 298.676362 
L 333.687254 293.875277 
L 333.825249 298.447739 
L 333.962031 294.789769 
L 334.099232 298.676362 
L 334.236475 294.789769 
L 334.373198 299.133608 
L 334.510362 297.76187 
L 334.649525 298.219116 
L 334.786245 299.133608 
L 334.924117 297.533246 
L 335.062021 300.73397 
L 335.199205 298.219116 
L 335.339656 300.276724 
L 335.477607 296.847377 
L 335.615229 300.276724 
L 335.753093 295.018392 
L 335.889684 299.590854 
L 336.027213 295.018392 
L 336.164759 297.76187 
L 336.30225 296.847377 
L 336.439862 299.819477 
L 336.578603 294.561146 
L 336.717337 296.390131 
L 336.857197 289.531438 
L 336.994105 296.161508 
L 337.132099 292.274915 
L 337.271208 296.847377 
L 337.408317 294.332523 
L 337.685806 298.904985 
L 337.8235 298.447739 
L 337.967192 352.174167 
L 338.110935 352.174167 
L 338.255437 351.945544 
L 338.395014 329.997726 
L 338.531897 329.997726 
L 338.806427 311.936502 
L 338.945677 298.904985 
L 339.08451 296.847377 
L 339.225255 298.447739 
L 339.364241 296.618754 
L 339.501656 298.904985 
L 339.639092 296.390131 
L 339.781175 300.505347 
L 339.923573 296.390131 
L 340.061849 300.73397 
L 340.199801 296.390131 
L 340.339086 299.590854 
L 340.476083 293.418031 
L 340.612846 298.676362 
L 340.750996 292.274915 
L 340.893512 298.904985 
L 341.031218 295.247016 
L 341.167803 299.819477 
L 341.304384 295.475639 
L 341.442449 300.505347 
L 341.580149 295.704262 
L 341.717887 299.362231 
L 341.85617 297.304623 
L 341.995581 298.676362 
L 342.272413 295.475639 
L 342.410356 297.076 
L 342.54809 291.360423 
L 342.687641 297.076 
L 342.825834 293.875277 
L 342.963712 298.447739 
L 343.10249 292.503538 
L 343.242661 297.76187 
L 343.38202 292.046292 
L 343.519736 297.990493 
L 343.657538 293.875277 
L 343.794475 297.304623 
L 343.931657 292.503538 
L 344.071437 297.533246 
L 344.209387 293.189408 
L 344.347343 296.390131 
L 344.484893 293.418031 
L 344.625 296.390131 
L 344.762095 296.161508 
L 344.90011 296.618754 
L 345.036763 297.990493 
L 345.174291 296.847377 
L 345.318578 298.219116 
L 345.456976 295.018392 
L 345.594019 299.362231 
L 345.732079 295.247016 
L 345.868572 297.990493 
L 346.005886 293.189408 
L 346.143607 296.161508 
L 346.280551 294.561146 
L 346.417103 294.561146 
L 346.55521 292.732161 
L 346.695559 295.018392 
L 346.832496 291.589046 
L 346.971738 295.018392 
L 347.113729 291.817669 
L 347.390942 296.390131 
L 347.532348 296.390131 
L 347.670092 298.904985 
L 347.810696 295.932885 
L 347.950276 298.447739 
L 348.088466 294.332523 
L 348.226293 297.533246 
L 348.363798 291.360423 
L 348.501227 298.447739 
L 348.638764 292.046292 
L 348.776296 297.076 
L 348.913864 293.646654 
L 349.051333 296.161508 
L 349.188482 293.189408 
L 349.326946 296.161508 
L 349.465879 293.875277 
L 349.604649 295.475639 
L 349.744259 292.274915 
L 350.01982 295.704262 
L 350.157813 293.875277 
L 350.294788 297.076 
L 350.433242 294.326181 
L 350.571058 297.304623 
L 350.709466 293.646654 
L 350.848274 296.390131 
L 350.986389 292.732161 
L 351.124829 296.847377 
L 351.411227 352.174167 
L 351.555729 352.174167 
L 351.69338 349.43069 
L 351.970458 330.683596 
L 352.391555 321.081425 
L 352.529028 320.165725 
L 352.666404 323.139033 
L 352.804345 323.59628 
L 353.218677 328.625988 
L 353.356074 324.510772 
L 353.496769 328.397365 
L 353.641883 318.795195 
L 353.780086 324.282149 
L 353.91785 317.652079 
L 354.054669 324.053526 
L 354.19335 319.481064 
L 354.331945 325.42315 
L 354.471216 322.453164 
L 354.608549 322.681787 
L 354.882768 319.93831 
L 355.020971 319.709687 
L 355.301924 317.194833 
L 355.43873 312.393748 
L 355.578959 311.707879 
L 355.715968 309.878894 
L 355.856146 310.107517 
L 355.993365 307.135417 
L 356.133903 310.107517 
L 356.275283 303.70607 
L 356.414065 310.564763 
L 356.550998 303.934693 
L 356.687956 310.107517 
L 356.825172 303.934693 
L 356.963085 308.507155 
L 357.100739 305.306432 
L 357.237894 307.135417 
L 357.375626 304.163316 
L 357.51212 305.535055 
L 357.789058 300.73397 
L 358.06304 298.447739 
L 358.206849 300.048101 
L 358.344205 296.618754 
L 358.482903 300.048101 
L 358.61981 295.018392 
L 358.756863 299.590854 
L 358.893488 295.018392 
L 359.030642 300.276724 
L 359.168158 295.018392 
L 359.306086 300.048101 
L 359.44489 293.189408 
L 359.582102 300.048101 
L 359.722086 294.561146 
L 359.858761 299.133608 
L 359.998826 298.447739 
L 360.135788 300.276724 
L 360.273471 298.676362 
L 360.410807 299.362231 
L 360.549848 299.362231 
L 360.686999 300.048101 
L 361.101948 297.990493 
L 361.23921 294.332523 
L 361.376369 297.533246 
L 361.515114 293.189408 
L 361.654739 297.76187 
L 361.794102 294.789769 
L 361.931373 300.73397 
L 362.071827 293.411688 
L 362.209373 297.304623 
L 362.348508 293.189408 
L 362.485511 297.304623 
L 362.626636 292.960785 
L 362.763626 298.219116 
L 362.900693 297.304623 
L 363.037879 299.362231 
L 363.175156 297.990493 
L 363.589347 299.133608 
L 363.728854 298.447739 
L 363.86733 295.932885 
L 364.003947 297.533246 
L 364.14376 295.018392 
L 364.281529 296.161508 
L 364.41892 294.332523 
L 364.556649 297.304623 
L 364.696194 352.174167 
L 364.840166 352.174167 
L 364.984368 351.031051 
L 365.12279 330.912219 
L 365.260692 333.19845 
L 365.673015 313.765486 
L 365.812055 311.936502 
L 366.087705 305.077809 
L 366.364001 302.334332 
L 366.639371 300.276724 
L 366.777498 303.020201 
L 366.914965 301.419839 
L 367.052685 302.105708 
L 367.189934 298.219116 
L 367.330815 301.877085 
L 367.469023 294.332523 
L 367.607614 300.048101 
L 367.745315 297.533246 
L 367.882786 300.505347 
L 368.0204 294.789769 
L 368.157035 297.990493 
L 368.295577 294.1039 
L 368.434266 294.789769 
L 368.571748 294.332523 
L 368.85073 299.133608 
L 368.988233 297.304623 
L 369.126124 299.362231 
L 369.262611 295.704262 
L 369.399634 300.048101 
L 369.536705 296.618754 
L 369.673851 298.904985 
L 369.810633 295.247016 
L 369.948228 300.276724 
L 370.086686 294.789769 
L 370.223567 299.819477 
L 370.361098 294.332523 
L 370.498189 300.276724 
L 370.635461 294.789769 
L 370.776108 300.048101 
L 370.914971 297.304623 
L 371.051794 299.590854 
L 371.189507 296.847377 
L 371.328575 299.819477 
L 371.466959 294.1039 
L 371.603837 297.990493 
L 371.742903 294.789769 
L 372.018699 299.819477 
L 372.157772 298.676362 
L 372.294863 300.048101 
L 372.436312 297.304623 
L 372.578827 298.904985 
L 372.718192 292.274915 
L 372.855553 298.219116 
L 372.996533 292.503538 
L 373.135592 297.533246 
L 373.273248 295.247016 
L 373.409976 299.819477 
L 373.546815 296.618754 
L 373.68567 300.962593 
L 373.82323 296.847377 
L 373.960719 300.048101 
L 374.23773 295.247016 
L 374.374639 294.561146 
L 374.648775 295.247016 
L 374.78655 295.018392 
L 374.923656 295.932885 
L 375.0613 291.360423 
L 375.199509 297.076 
L 375.337948 293.875277 
L 375.477315 298.447739 
L 375.61474 294.789769 
L 375.752125 298.676362 
L 375.890756 293.189408 
L 376.028171 297.076 
L 376.165594 292.960785 
L 376.304073 296.847377 
L 376.441872 292.274915 
L 376.581878 295.704262 
L 376.719835 295.932885 
L 376.856786 295.475639 
L 376.996536 297.990493 
L 377.135736 295.704262 
L 377.273047 296.618754 
L 377.409958 292.732161 
L 377.547653 296.618754 
L 377.684849 292.732161 
L 377.822586 295.247016 
L 378.103817 352.174167 
L 378.247456 352.174167 
L 378.386173 349.43069 
L 378.664193 327.254249 
L 379.077958 305.077809 
L 379.216651 302.791578 
L 379.493564 304.393449 
L 379.632467 304.849186 
L 379.769347 304.393449 
L 379.90596 305.535055 
L 380.04424 304.163316 
L 380.186415 305.306432 
L 380.325825 299.590854 
L 380.464106 304.163316 
L 380.602176 297.533246 
L 380.73991 303.020201 
L 380.877171 297.990493 
L 381.014942 305.306432 
L 381.152077 300.73397 
L 381.289365 304.620562 
L 381.426228 297.304623 
L 381.564285 300.73397 
L 381.702456 299.819477 
L 381.839438 300.048101 
L 381.977023 300.73397 
L 382.114528 300.505347 
L 382.251917 301.648462 
L 382.388727 300.962593 
L 382.526121 301.648462 
L 382.663771 300.048101 
L 382.800539 301.191216 
L 382.938321 297.76187 
L 383.075699 299.819477 
L 383.213602 294.332523 
L 383.351799 299.362231 
L 383.489886 295.018392 
L 383.631594 298.676362 
L 383.769189 293.189408 
L 383.907143 298.676362 
L 384.044979 292.960785 
L 384.182081 298.904985 
L 384.31951 293.875277 
L 384.456727 297.533246 
L 384.594718 293.875277 
L 384.734126 297.533246 
L 384.872358 297.533246 
L 385.011907 296.390131 
L 385.150415 300.962593 
L 385.288412 299.590854 
L 385.425879 299.819477 
L 385.564929 296.618754 
L 385.701683 300.276724 
L 385.839395 296.390131 
L 385.977002 301.191216 
L 386.114425 295.475639 
L 386.2519 301.648462 
L 386.389331 297.990493 
L 386.527008 301.877085 
L 386.66466 299.133608 
L 386.80189 301.191216 
L 386.939317 298.676362 
L 387.077121 300.962593 
L 387.216043 296.390131 
L 387.355023 300.962593 
L 387.49427 294.561146 
L 387.63235 299.819477 
L 387.770699 295.018392 
L 387.908182 298.904985 
L 388.045141 294.332523 
L 388.182483 297.990493 
L 388.319541 298.219116 
L 388.457496 296.847377 
L 388.596907 299.590854 
L 388.73442 295.932885 
L 388.872072 301.877085 
L 389.010393 296.390131 
L 389.152278 300.048101 
L 389.289313 295.932885 
L 389.426603 299.362231 
L 389.564452 295.475639 
L 389.704267 298.219116 
L 389.844495 295.018392 
L 389.983293 299.133608 
L 390.121811 293.646654 
L 390.259964 297.76187 
L 390.397584 294.561146 
L 390.534462 298.219116 
L 390.671326 295.932885 
L 390.80958 297.990493 
L 390.950798 296.618754 
L 391.088038 297.304623 
L 391.225123 295.247016 
L 391.363482 352.174167 
L 391.652665 352.174167 
L 391.795291 336.399173 
L 391.935851 336.627796 
L 392.769063 297.76187 
L 392.90635 297.76187 
L 393.044353 295.932885 
L 393.187103 297.304623 
L 393.325852 292.503538 
L 393.46317 296.618754 
L 393.601268 289.531438 
L 393.739708 296.161508 
L 393.877377 295.704262 
L 394.015171 299.362231 
L 394.153253 299.133608 
L 394.428781 297.304623 
L 394.566624 297.076 
L 394.703991 299.362231 
L 395.119832 295.932885 
L 395.258104 298.676362 
L 395.39672 295.932885 
L 395.534564 298.447739 
L 395.674161 295.018392 
L 395.812214 298.447739 
L 395.950058 293.646654 
L 396.08714 296.618754 
L 396.224609 292.046292 
L 396.362629 298.904985 
L 396.50032 293.189408 
L 396.638086 299.133608 
L 396.775773 294.1039 
L 396.912785 298.447739 
L 397.19039 296.161508 
L 397.329414 296.390131 
L 397.466881 295.475639 
L 397.603769 296.618754 
L 397.741391 295.475639 
L 397.879514 296.161508 
L 398.017813 294.1039 
L 398.155248 299.362231 
L 398.29285 295.704262 
L 398.430705 299.819477 
L 398.5685 297.076 
L 398.705861 300.73397 
L 398.843884 295.475639 
L 398.982106 299.133608 
L 399.119558 293.189408 
L 399.261941 297.76187 
L 399.399744 291.1318 
L 399.538207 297.990493 
L 399.676706 294.789769 
L 399.816927 298.676362 
L 399.955449 297.533246 
L 400.232545 300.048101 
L 400.646227 295.475639 
L 400.783932 296.847377 
L 401.199479 293.189408 
L 401.339952 299.590854 
L 401.47791 295.018392 
L 401.615609 299.362231 
L 401.75322 294.561146 
L 401.890674 301.648462 
L 402.028553 294.561146 
L 402.166915 301.419839 
L 402.305035 295.247016 
L 402.444205 300.962593 
L 402.581711 297.304623 
L 402.71942 300.048101 
L 402.857362 299.362231 
L 403.13258 302.791578 
L 403.270285 303.020201 
L 403.407264 302.334332 
L 403.546072 302.791578 
L 403.684704 299.362231 
L 403.822378 300.962593 
L 403.960079 300.73397 
L 404.098076 302.334332 
L 404.236321 302.105708 
L 404.374437 301.191216 
L 404.513234 301.877085 
L 404.652444 299.819477 
L 404.796716 352.174167 
L 404.940696 352.174167 
L 405.081027 346.458589 
L 405.355943 330.226349 
L 405.76857 317.880702 
L 406.044639 322.681787 
L 406.600681 335.713304 
L 406.740773 337.085042 
L 406.878743 341.200258 
L 407.155502 340.057143 
L 407.293652 342.343373 
L 407.431533 340.285766 
L 407.56955 342.343373 
L 407.707013 341.428881 
L 407.844241 342.80062 
L 408.119023 336.17055 
L 408.256479 335.941927 
L 408.670178 322.224541 
L 408.808001 327.482872 
L 408.948624 317.652079 
L 409.085799 326.111134 
L 409.2238 320.395556 
L 409.361692 327.940118 
L 409.499279 323.59628 
L 409.636788 327.254249 
L 409.774743 325.653887 
L 409.91222 326.111134 
L 410.051718 327.254249 
L 410.327606 325.653887 
L 410.465628 325.42315 
L 410.604158 324.968018 
L 410.742048 324.053526 
L 411.018046 325.196641 
L 411.155818 325.882511 
L 411.293862 324.053526 
L 411.434118 324.510772 
L 411.57178 320.395556 
L 411.709573 324.510772 
L 411.847567 318.337948 
L 411.98555 324.739395 
L 412.1239 317.423456 
L 412.261784 322.91041 
L 412.39986 315.137225 
L 412.541398 316.737587 
L 412.679663 309.421648 
L 412.820239 308.507155 
L 413.23154 301.877085 
L 413.643929 298.904985 
L 413.780924 300.962593 
L 413.917944 299.590854 
L 414.054696 301.191216 
L 414.19282 298.219116 
L 414.329757 300.962593 
L 414.467829 296.618754 
L 414.604772 300.048101 
L 414.742345 296.847377 
L 414.879614 299.590854 
L 415.016759 296.161508 
L 415.154233 299.590854 
L 415.295693 294.789769 
L 415.433539 299.362231 
L 415.570681 292.960785 
L 415.710585 296.847377 
L 415.848901 295.247016 
L 415.98833 298.676362 
L 416.262362 297.076 
L 416.400059 300.962593 
L 416.541056 297.76187 
L 416.678861 299.590854 
L 416.816226 293.646654 
L 416.952746 298.219116 
L 417.089351 291.105374 
L 417.225823 298.219116 
L 417.362387 292.960785 
L 417.498902 298.676362 
L 417.636304 295.018392 
L 417.772975 299.590854 
L 417.911006 297.533246 
L 418.197256 352.174167 
L 418.485979 352.174167 
L 418.630517 330.912219 
L 418.767115 329.083234 
L 419.040079 318.566571 
L 419.176604 315.594471 
L 419.454249 318.109325 
L 420.56271 338.228158 
L 420.701007 332.741203 
L 420.839859 337.313665 
L 420.977688 329.083234 
L 421.116964 335.484681 
L 421.25529 326.56838 
L 421.391938 331.826711 
L 421.530533 327.940118 
L 421.668649 329.769103 
L 421.94614 326.797003 
L 422.493664 319.93831 
L 422.631571 319.481064 
L 422.768208 317.880702 
L 422.905101 318.337948 
L 423.041775 317.652079 
L 423.178579 318.109325 
L 423.319032 316.051717 
L 423.459349 318.109325 
L 423.596158 314.9083 
L 423.732721 318.566571 
L 423.869389 313.994109 
L 424.006126 318.795195 
L 424.142877 310.793386 
L 424.279774 314.679979 
L 424.41703 306.67817 
L 424.55754 308.507155 
L 424.694695 302.562955 
L 424.831699 303.020201 
L 425.10829 300.73397 
L 425.245726 301.648462 
L 425.382892 299.362231 
L 425.520918 300.962593 
L 425.657442 298.676362 
L 425.795069 300.048101 
L 425.932682 296.390131 
L 426.070033 299.133608 
L 426.209223 293.875277 
L 426.348792 298.904985 
L 426.486529 293.646654 
L 426.624243 298.904985 
L 426.762292 295.932885 
L 426.900155 299.590854 
L 427.177033 294.1039 
L 427.314149 294.1039 
L 427.451325 300.276724 
L 427.588656 295.018392 
L 427.725812 299.133608 
L 427.862886 296.390131 
L 428.000595 298.219116 
L 428.277399 296.161508 
L 428.41598 298.676362 
L 428.554463 295.247016 
L 428.692137 298.676362 
L 428.829421 296.618754 
L 428.966469 300.962593 
L 429.104615 295.704262 
L 429.242387 300.505347 
L 429.379641 294.789769 
L 429.516776 299.590854 
L 429.654093 294.789769 
L 429.794287 299.133608 
L 429.932631 294.789769 
L 430.070651 298.447739 
L 430.208498 295.018392 
L 430.346589 298.219116 
L 430.484409 295.475639 
L 430.62131 297.76187 
L 430.760289 295.704262 
L 431.035445 298.447739 
L 431.173348 299.133608 
L 431.310671 298.676362 
L 431.455005 352.174167 
L 431.744307 352.174167 
L 431.88361 333.427073 
L 432.020979 334.341565 
L 432.442515 302.791578 
L 432.998296 291.817669 
L 433.411883 295.932885 
L 433.549613 294.332523 
L 433.824333 299.362231 
L 434.100108 300.276724 
L 434.238245 297.533246 
L 434.376289 299.819477 
L 434.515163 295.018392 
L 434.652975 299.362231 
L 434.791706 292.503538 
L 434.930217 299.590854 
L 435.069425 292.046292 
L 435.206766 298.219116 
L 435.345788 293.418031 
L 435.484373 299.819477 
L 435.622479 294.332523 
L 435.760247 297.304623 
L 435.900731 293.875277 
L 436.038489 295.247016 
L 436.177971 292.732161 
L 436.314945 297.533246 
L 436.452813 297.076 
L 436.593757 295.475639 
L 436.730764 299.133608 
L 436.870079 296.847377 
L 437.007952 299.590854 
L 437.145778 295.932885 
L 437.283158 298.904985 
L 437.421306 295.018392 
L 437.560206 299.362231 
L 437.697475 295.247016 
L 437.835123 300.276724 
L 437.973077 295.704262 
L 438.111347 299.133608 
L 438.249457 292.960785 
L 438.387829 300.276724 
L 438.527295 292.274915 
L 438.665321 301.191216 
L 438.802813 295.475639 
L 438.941856 301.648462 
L 439.079002 300.276724 
L 439.216958 304.620562 
L 439.354769 305.077809 
L 439.769631 313.079617 
L 440.04708 317.652079 
L 440.599557 326.111134 
L 440.740545 327.711495 
L 440.878212 322.681787 
L 441.019577 323.59628 
L 441.158521 316.28034 
L 441.300441 319.93831 
L 441.439605 312.622371 
L 441.57726 318.109325 
L 441.714525 313.079617 
L 441.85507 317.423456 
L 441.992838 313.536863 
L 442.136871 314.451356 
L 442.275969 313.765486 
L 442.552518 310.107517 
L 442.830744 306.449547 
L 442.968901 306.220924 
L 443.109775 305.077809 
L 443.247611 302.334332 
L 443.385382 303.248824 
L 443.523107 298.447739 
L 443.659986 301.191216 
L 443.79787 296.161508 
L 443.937754 301.648462 
L 444.075455 296.390131 
L 444.213541 300.505347 
L 444.352103 295.475639 
L 444.492926 297.990493 
L 444.633263 293.418031 
L 444.777151 352.174167 
L 445.065017 352.174167 
L 445.205558 337.313665 
L 445.343287 336.627796 
L 445.483321 329.997726 
L 445.621001 331.369465 
L 445.759153 320.395556 
L 445.89736 328.168741 
L 446.036521 318.795195 
L 446.174195 325.647545 
L 446.312403 321.538672 
L 446.59222 327.025626 
L 446.733428 327.711495 
L 447.151426 331.363123 
L 447.291907 332.51258 
L 447.709504 341.659316 
L 447.8481 345.544097 
L 447.985577 340.743012 
L 448.124568 341.886127 
L 448.263001 338.228158 
L 448.401027 337.542288 
L 448.541688 337.999535 
L 448.821179 337.542288 
L 448.959425 334.570188 
L 449.097134 335.027434 
L 449.235302 330.226349 
L 449.373095 335.256057 
L 449.510127 328.625988 
L 449.652589 336.627796 
L 449.789485 329.083234 
L 449.926803 338.685404 
L 450.06416 329.997726 
L 450.202473 338.228158 
L 450.339991 331.598088 
L 450.477419 336.399173 
L 450.614536 330.683596 
L 450.75124 332.055334 
L 450.891312 328.854611 
L 451.030268 329.54048 
L 451.171589 328.397365 
L 451.312766 328.168741 
L 451.58795 326.111134 
L 452.275156 329.997726 
L 452.412003 327.711495 
L 452.54883 328.397365 
L 452.686287 324.510772 
L 452.823922 327.254249 
L 452.962896 322.681787 
L 453.100434 329.311857 
L 453.238141 323.59628 
L 453.376069 329.311857 
L 453.514601 323.824903 
L 453.652991 325.42315 
L 453.790885 319.93831 
L 453.928797 319.93831 
L 454.066368 316.96621 
L 454.203865 316.737587 
L 454.616201 310.33614 
L 454.891401 310.33614 
L 455.165522 307.821286 
L 455.303842 305.763678 
L 455.441453 305.763678 
L 455.580773 301.191216 
L 455.718749 301.191216 
L 455.856045 295.475639 
L 455.994092 299.362231 
L 456.131784 293.189408 
L 456.269294 299.590854 
L 456.406745 294.561146 
L 456.544244 297.76187 
L 456.682065 294.332523 
L 456.819649 296.618754 
L 456.957416 294.789769 
L 457.095065 294.789769 
L 457.23778 296.161508 
L 457.378653 295.932885 
L 457.518716 298.904985 
L 457.662163 295.932885 
L 457.799195 300.276724 
L 457.936761 296.161508 
L 458.07472 303.477447 
L 458.218722 352.174167 
L 458.505293 352.174167 
L 458.643091 329.311857 
L 458.780664 331.826711 
L 458.918557 318.109325 
L 459.057964 316.508964 
L 459.336336 304.393449 
L 459.478167 302.562955 
L 459.615446 302.334332 
L 459.752147 303.70607 
L 459.889812 303.020201 
L 460.027909 303.248824 
L 460.306853 304.163316 
L 460.585482 308.049909 
L 460.722923 308.049909 
L 460.860199 310.564763 
L 460.997492 307.821286 
L 461.135627 311.707879 
L 461.273096 306.220924 
L 461.409777 310.793386 
L 461.549441 303.934693 
L 461.693025 309.878894 
L 461.830869 303.70607 
L 461.969476 306.906793 
L 462.106119 303.70607 
L 462.243595 304.620562 
L 462.385861 303.934693 
L 462.527278 301.191216 
L 462.663929 301.191216 
L 462.800567 300.048101 
L 462.937263 300.962593 
L 463.074165 299.362231 
L 463.210904 300.73397 
L 463.347974 297.533246 
L 463.487091 299.362231 
L 463.626668 293.875277 
L 463.763905 299.819477 
L 463.900872 293.646654 
L 464.039124 296.390131 
L 464.177085 290.903177 
L 464.316029 297.304623 
L 464.457518 292.046292 
L 464.596429 297.076 
L 464.733889 296.390131 
L 465.009066 298.904985 
L 465.14844 297.526904 
L 465.285452 300.048101 
L 465.422384 297.076 
L 465.559265 300.73397 
L 465.695709 297.076 
L 465.832483 299.819477 
L 465.975465 295.932885 
L 466.112561 300.048101 
L 466.250019 295.704262 
L 466.386503 300.276724 
L 466.525254 294.561146 
L 466.663767 300.048101 
L 466.800258 295.018392 
L 466.936757 298.676362 
L 467.07444 293.646654 
L 467.213915 298.219116 
L 467.351902 292.960785 
L 467.490065 299.362231 
L 467.627478 296.841035 
L 467.764158 299.133608 
L 467.900614 298.447739 
L 468.040957 299.362231 
L 468.177777 299.133608 
L 468.319757 299.362231 
L 468.46297 298.676362 
L 468.601098 296.847377 
L 468.738542 298.219116 
L 468.875366 294.1039 
L 469.012135 298.676362 
L 469.149257 294.1039 
L 469.28635 298.219116 
L 469.423175 295.247016 
L 469.559614 300.048101 
L 469.696299 296.618754 
L 469.833866 302.105708 
L 469.972465 296.161508 
L 470.109793 299.133608 
L 470.24629 295.475639 
L 470.384496 299.133608 
L 470.522517 294.789769 
L 470.659299 297.076 
L 470.798587 296.161508 
L 470.938175 294.332523 
L 471.076597 295.704262 
L 471.219367 294.332523 
L 471.358641 297.533246 
L 471.497421 352.174167 
L 471.783327 352.174167 
L 472.199439 319.481064 
L 472.755395 289.531438 
L 472.891764 300.276724 
L 473.031182 297.076 
L 473.170398 302.562955 
L 473.308897 299.590854 
L 473.447214 300.962593 
L 473.587041 300.276724 
L 473.724602 303.248824 
L 474.271491 298.219116 
L 474.407932 300.73397 
L 474.547323 298.676362 
L 474.686954 301.648462 
L 474.824386 298.904985 
L 474.961235 301.419839 
L 475.097933 294.789769 
L 475.24052 300.048101 
L 475.378125 290.674554 
L 475.515038 298.219116 
L 475.652638 293.418031 
L 475.790149 297.990493 
L 475.929378 296.390131 
L 476.066006 300.962593 
L 476.202537 298.447739 
L 476.342842 301.877085 
L 476.480441 297.76187 
L 476.620682 300.276724 
L 476.902537 295.475639 
L 477.045465 299.362231 
L 477.181937 295.475639 
L 477.318323 298.904985 
L 477.455457 294.561146 
L 477.592128 299.819477 
L 477.731111 295.247016 
L 477.868593 299.590854 
L 478.005205 291.817669 
L 478.14311 297.990493 
L 478.279546 291.817669 
L 478.419835 297.304623 
L 478.559579 294.332523 
L 478.698883 297.76187 
L 478.837898 295.247016 
L 478.976065 298.447739 
L 479.11281 296.618754 
L 479.249242 299.590854 
L 479.385629 296.618754 
L 479.522115 298.676362 
L 479.794813 296.847377 
L 479.931145 296.847377 
L 480.067629 295.247016 
L 480.204964 297.990493 
L 480.343616 294.332523 
L 480.482495 296.847377 
L 480.623176 292.274915 
L 480.765292 297.990493 
L 480.902312 291.589046 
L 481.039564 299.362231 
L 481.179512 293.646654 
L 481.319115 298.447739 
L 481.458395 294.561146 
L 481.595535 298.447739 
L 481.732633 292.960785 
L 481.869887 296.618754 
L 482.008013 296.161508 
L 482.146026 296.618754 
L 482.283599 296.390131 
L 482.420734 295.704262 
L 482.558368 298.904985 
L 482.697804 297.304623 
L 482.835563 298.447739 
L 482.974651 298.447739 
L 483.112758 299.133608 
L 483.250461 297.076 
L 483.392854 296.612412 
L 483.53056 293.875277 
L 483.668535 297.76187 
L 483.805563 294.1039 
L 483.944958 296.390131 
L 484.085743 293.189408 
L 484.22368 297.533246 
L 484.360638 293.189408 
L 484.500308 296.847377 
L 484.63733 294.1039 
L 484.774875 303.477447 
L 484.915768 352.174167 
L 485.059231 352.174167 
L 485.199124 346.916741 
L 486.028588 291.817669 
L 486.165423 287.931076 
L 486.30359 288.616946 
L 486.444528 290.44593 
L 486.582835 289.302815 
L 486.721024 295.475639 
L 486.858713 292.960785 
L 487.000827 300.048101 
L 487.138333 295.475639 
L 487.276509 302.791578 
L 487.416243 298.904985 
L 487.554555 303.934693 
L 487.692203 300.276724 
L 487.830203 299.819477 
L 488.106252 296.847377 
L 488.244772 297.076 
L 488.382782 296.618754 
L 488.520705 296.618754 
L 488.658523 298.447739 
L 488.796873 296.161508 
L 489.075916 299.362231 
L 489.21798 297.990493 
L 489.356218 298.904985 
L 489.496232 296.161508 
L 489.635875 299.133608 
L 489.774952 297.076 
L 489.913195 300.73397 
L 490.051447 298.904985 
L 490.188887 301.419839 
L 490.326799 300.048101 
L 490.465796 301.191216 
L 490.605794 300.276724 
L 490.743374 300.505347 
L 490.880416 298.676362 
L 491.018003 298.447739 
L 491.155616 296.618754 
L 491.293129 297.304623 
L 491.430633 295.475639 
L 491.568083 297.533246 
L 491.70488 296.847377 
L 491.84242 294.789769 
L 491.982261 296.847377 
L 492.120611 292.503538 
L 492.25844 295.475639 
L 492.396812 291.360423 
L 492.538141 294.1039 
L 492.675801 292.274915 
L 492.814994 296.161508 
L 492.953216 295.932885 
L 493.376123 297.304623 
L 493.516594 295.704262 
L 493.653426 296.161508 
L 493.795243 294.561146 
L 493.937077 296.161508 
L 494.212851 292.503538 
L 494.350231 294.789769 
L 494.48904 291.589046 
L 494.626157 295.475639 
L 495.040548 293.162982 
L 495.177994 292.046292 
L 495.455319 294.1039 
L 495.594661 294.561146 
L 495.87004 294.561146 
L 496.007528 295.247016 
L 496.145317 296.847377 
L 496.282582 297.076 
L 496.557845 294.1039 
L 496.833634 294.1039 
L 496.970879 292.046292 
L 497.108724 291.817669 
L 497.246212 293.875277 
L 497.385768 292.046292 
L 497.667198 296.161508 
L 497.944785 294.332523 
L 498.082243 293.875277 
L 498.223192 352.174167 
L 498.36732 352.174167 
L 498.513025 351.945544 
L 498.787388 331.598088 
L 499.338519 293.646654 
L 499.476608 297.076 
L 499.614763 294.789769 
L 499.752721 296.390131 
L 499.893182 295.247016 
L 500.034705 301.191216 
L 500.171277 300.505347 
L 500.309216 303.020201 
L 500.447295 297.76187 
L 500.584854 302.791578 
L 500.72209 293.189408 
L 500.860584 300.048101 
L 501.000993 295.475639 
L 501.139698 298.676362 
L 501.277755 297.76187 
L 501.415619 300.505347 
L 501.552372 299.362231 
L 501.689776 300.276724 
L 501.826565 297.304623 
L 501.964066 299.362231 
L 502.241808 297.990493 
L 502.379347 300.048101 
L 502.517897 296.618754 
L 502.654632 300.73397 
L 502.791176 295.932885 
L 502.929002 297.76187 
L 503.066571 292.274915 
L 503.204965 296.618754 
L 503.341733 290.44593 
L 503.479528 297.990493 
L 503.620396 289.988684 
L 503.757412 299.133608 
L 503.894177 294.1039 
L 504.030837 300.73397 
L 504.168527 293.189408 
L 504.306126 298.676362 
L 504.442874 292.732161 
L 504.579645 296.847377 
L 504.716786 294.1039 
L 504.854522 296.847377 
L 504.993955 297.076 
L 505.133165 295.704262 
L 505.270329 300.048101 
L 505.407466 297.76187 
L 505.544575 300.505347 
L 505.683639 297.990493 
L 505.821773 300.048101 
L 505.958572 297.990493 
L 506.095862 300.048101 
L 506.233848 298.219116 
L 506.371862 300.962593 
L 506.509118 295.247016 
L 506.646724 300.276724 
L 506.784563 292.274915 
L 506.922954 298.219116 
L 507.060483 289.760061 
L 507.197856 296.847377 
L 507.335297 293.418031 
L 507.47235 299.590854 
L 507.610381 296.847377 
L 507.749246 300.276724 
L 507.887027 298.219116 
L 508.025846 299.590854 
L 508.163333 298.447739 
L 508.301118 298.904985 
L 508.440674 300.276724 
L 508.578727 299.590854 
L 508.717711 299.819477 
L 508.85511 298.219116 
L 508.992727 300.505347 
L 509.131564 298.447739 
L 509.269711 300.276724 
L 509.408386 297.304623 
L 509.547625 300.962593 
L 509.685352 297.304623 
L 509.825372 300.048101 
L 509.963065 292.274915 
L 510.10143 300.276724 
L 510.239783 294.789769 
L 510.378701 299.133608 
L 510.51764 297.76187 
L 510.654928 301.419839 
L 510.792312 300.505347 
L 510.92923 302.791578 
L 511.066312 302.562955 
L 511.203148 302.791578 
L 511.34028 300.048101 
L 511.477586 309.193024 
L 511.619069 352.174167 
L 511.762407 352.174167 
L 511.907741 348.74482 
L 512.325514 315.823094 
L 512.462255 308.964401 
L 512.737376 291.1318 
L 512.874358 291.817669 
L 513.011356 291.360423 
L 513.148427 294.1039 
L 513.285659 291.589046 
L 513.422939 296.847377 
L 513.559947 292.732161 
L 513.696704 300.962593 
L 513.833321 297.76187 
L 513.97013 303.934693 
L 514.107778 299.362231 
L 514.244616 302.334332 
L 514.381163 295.475639 
L 514.517963 297.076 
L 514.654505 291.360423 
L 514.79164 295.018392 
L 514.928205 291.817669 
L 515.064781 295.932885 
L 515.204487 293.189408 
L 515.615481 297.990493 
L 515.752551 296.390131 
L 515.889795 297.076 
L 516.026541 294.332523 
L 516.163576 296.390131 
L 516.300819 293.189408 
L 516.437529 294.332523 
L 516.575207 293.646654 
L 516.713018 293.646654 
L 516.850337 295.932885 
L 516.987271 293.875277 
L 517.12395 298.219116 
L 517.260684 295.018392 
L 517.401544 296.390131 
L 517.543027 295.932885 
L 517.684332 296.618754 
L 517.821432 293.875277 
L 517.958053 296.847377 
L 518.095218 295.247016 
L 518.23202 296.618754 
L 518.369757 294.554804 
L 518.5067 297.304623 
L 518.64428 294.332523 
L 518.78089 297.76187 
L 518.917476 294.561146 
L 519.056606 295.247016 
L 519.193219 291.589046 
L 519.330364 293.646654 
L 519.467282 291.360423 
L 519.603903 293.418031 
L 519.740649 293.189408 
L 520.150481 297.990493 
L 520.287017 297.76187 
L 520.425651 298.219116 
L 520.564209 298.219116 
L 520.703973 297.990493 
L 520.841246 298.441397 
L 520.977836 297.304623 
L 521.114675 297.76187 
L 521.25366 296.390131 
L 521.390438 296.618754 
L 521.527206 295.247016 
L 521.664178 297.76187 
L 521.800754 296.390131 
L 521.937979 296.390131 
L 522.074794 295.247016 
L 522.074794 295.247016 
" style="fill:none;stroke:#1f77b4;stroke-linecap:square;stroke-width:1.5;"/>
   </g>
   <g id="patch_3">
    <path d="M 130.230156 352.174167 
L 130.230156 35.0625 
" style="fill:none;stroke:#000000;stroke-linecap:square;stroke-linejoin:miter;stroke-width:0.8;"/>
   </g>
   <g id="patch_4">
    <path d="M 540.734062 352.174167 
L 540.734062 35.0625 
" style="fill:none;stroke:#000000;stroke-linecap:square;stroke-linejoin:miter;stroke-width:0.8;"/>
   </g>
   <g id="patch_5">
    <path d="M 130.230156 352.174167 
L 540.734062 352.174167 
" style="fill:none;stroke:#000000;stroke-linecap:square;stroke-linejoin:miter;stroke-width:0.8;"/>
   </g>
   <g id="patch_6">
    <path d="M 130.230156 35.0625 
L 540.734062 35.0625 
" style="fill:none;stroke:#000000;stroke-linecap:square;stroke-linejoin:miter;stroke-width:0.8;"/>
   </g>
   <g id="legend_1">
    <g id="patch_7">
     <path d="M 563.259258 63.938438 
L 627.134258 63.938438 
Q 629.134258 63.938438 629.134258 61.938438 
L 629.134258 37.0625 
Q 629.134258 35.0625 627.134258 35.0625 
L 563.259258 35.0625 
Q 561.259258 35.0625 561.259258 37.0625 
L 561.259258 61.938438 
Q 561.259258 63.938438 563.259258 63.938438 
z
" style="fill:#ffffff;opacity:0.8;stroke:#cccccc;stroke-linejoin:miter;"/>
    </g>
    <g id="line2d_17">
     <path d="M 565.259258 49.799688 
L 585.259258 49.799688 
" style="fill:none;stroke:#1f77b4;stroke-linecap:square;stroke-width:1.5;"/>
    </g>
    <g id="line2d_18"/>
    <g id="text_17">
     <!-- queue -->
     <g transform="translate(593.259258 46.660937)scale(0.1 -0.1)">
      <use xlink:href="#DejaVuSans-113"/>
      <use x="63.476562" xlink:href="#DejaVuSans-117"/>
      <use x="126.855469" xlink:href="#DejaVuSans-101"/>
      <use x="188.378906" xlink:href="#DejaVuSans-117"/>
      <use x="251.757812" xlink:href="#DejaVuSans-101"/>
     </g>
     <!-- length -->
     <defs>
      <path d="M 9.421875 75.984375 
L 18.40625 75.984375 
L 18.40625 0 
L 9.421875 0 
z
" id="DejaVuSans-108"/>
      <path d="M 54.890625 33.015625 
L 54.890625 0 
L 45.90625 0 
L 45.90625 32.71875 
Q 45.90625 40.484375 42.875 44.328125 
Q 39.84375 48.1875 33.796875 48.1875 
Q 26.515625 48.1875 22.3125 43.546875 
Q 18.109375 38.921875 18.109375 30.90625 
L 18.109375 0 
L 9.078125 0 
L 9.078125 54.6875 
L 18.109375 54.6875 
L 18.109375 46.1875 
Q 21.34375 51.125 25.703125 53.5625 
Q 30.078125 56 35.796875 56 
Q 45.21875 56 50.046875 50.171875 
Q 54.890625 44.34375 54.890625 33.015625 
z
" id="DejaVuSans-110"/>
      <path d="M 45.40625 27.984375 
Q 45.40625 37.75 41.375 43.109375 
Q 37.359375 48.484375 30.078125 48.484375 
Q 22.859375 48.484375 18.828125 43.109375 
Q 14.796875 37.75 14.796875 27.984375 
Q 14.796875 18.265625 18.828125 12.890625 
Q 22.859375 7.515625 30.078125 7.515625 
Q 37.359375 7.515625 41.375 12.890625 
Q 45.40625 18.265625 45.40625 27.984375 
z
M 54.390625 6.78125 
Q 54.390625 -7.171875 48.1875 -13.984375 
Q 42 -20.796875 29.203125 -20.796875 
Q 24.46875 -20.796875 20.265625 -20.09375 
Q 16.0625 -19.390625 12.109375 -17.921875 
L 12.109375 -9.1875 
Q 16.0625 -11.328125 19.921875 -12.34375 
Q 23.78125 -13.375 27.78125 -13.375 
Q 36.625 -13.375 41.015625 -8.765625 
Q 45.40625 -4.15625 45.40625 5.171875 
L 45.40625 9.625 
Q 42.625 4.78125 38.28125 2.390625 
Q 33.9375 0 27.875 0 
Q 17.828125 0 11.671875 7.65625 
Q 5.515625 15.328125 5.515625 27.984375 
Q 5.515625 40.671875 11.671875 48.328125 
Q 17.828125 56 27.875 56 
Q 33.9375 56 38.28125 53.609375 
Q 42.625 51.21875 45.40625 46.390625 
L 45.40625 54.6875 
L 54.390625 54.6875 
z
" id="DejaVuSans-103"/>
      <path d="M 54.890625 33.015625 
L 54.890625 0 
L 45.90625 0 
L 45.90625 32.71875 
Q 45.90625 40.484375 42.875 44.328125 
Q 39.84375 48.1875 33.796875 48.1875 
Q 26.515625 48.1875 22.3125 43.546875 
Q 18.109375 38.921875 18.109375 30.90625 
L 18.109375 0 
L 9.078125 0 
L 9.078125 75.984375 
L 18.109375 75.984375 
L 18.109375 46.1875 
Q 21.34375 51.125 25.703125 53.5625 
Q 30.078125 56 35.796875 56 
Q 45.21875 56 50.046875 50.171875 
Q 54.890625 44.34375 54.890625 33.015625 
z
" id="DejaVuSans-104"/>
     </defs>
     <g transform="translate(593.259258 57.85875)scale(0.1 -0.1)">
      <use xlink:href="#DejaVuSans-108"/>
      <use x="27.783203" xlink:href="#DejaVuSans-101"/>
      <use x="89.306641" xlink:href="#DejaVuSans-110"/>
      <use x="152.685547" xlink:href="#DejaVuSans-103"/>
      <use x="216.162109" xlink:href="#DejaVuSans-116"/>
      <use x="255.371094" xlink:href="#DejaVuSans-104"/>
     </g>
    </g>
   </g>
  </g>
  <g id="text_18">
   <!-- result queue (bytes) -->
   <defs>
    <path d="M 41.109375 46.296875 
Q 39.59375 47.171875 37.8125 47.578125 
Q 36.03125 48 33.890625 48 
Q 26.265625 48 22.1875 43.046875 
Q 18.109375 38.09375 18.109375 28.8125 
L 18.109375 0 
L 9.078125 0 
L 9.078125 54.6875 
L 18.109375 54.6875 
L 18.109375 46.1875 
Q 20.953125 51.171875 25.484375 53.578125 
Q 30.03125 56 36.53125 56 
Q 37.453125 56 38.578125 55.875 
Q 39.703125 55.765625 41.0625 55.515625 
z
" id="DejaVuSans-114"/>
    <path id="DejaVuSans-32"/>
   </defs>
   <g transform="translate(281.072812 17.038125)scale(0.12 -0.12)">
    <use xlink:href="#DejaVuSans-114"/>
    <use x="41.082031" xlink:href="#DejaVuSans-101"/>
    <use x="102.605469" xlink:href="#DejaVuSans-115"/>
    <use x="154.705078" xlink:href="#DejaVuSans-117"/>
    <use x="218.083984" xlink:href="#DejaVuSans-108"/>
    <use x="245.867188" xlink:href="#DejaVuSans-116"/>
    <use x="285.076172" xlink:href="#DejaVuSans-32"/>
    <use x="316.863281" xlink:href="#DejaVuSans-113"/>
    <use x="380.339844" xlink:href="#DejaVuSans-117"/>
    <use x="443.71875" xlink:href="#DejaVuSans-101"/>
    <use x="505.242188" xlink:href="#DejaVuSans-117"/>
    <use x="568.621094" xlink:href="#DejaVuSans-101"/>
    <use x="630.144531" xlink:href="#DejaVuSans-32"/>
    <use x="661.931641" xlink:href="#DejaVuSans-40"/>
    <use x="700.945312" xlink:href="#DejaVuSans-98"/>
    <use x="764.421875" xlink:href="#DejaVuSans-121"/>
    <use x="823.601562" xlink:href="#DejaVuSans-116"/>
    <use x="862.810547" xlink:href="#DejaVuSans-101"/>
    <use x="924.333984" xlink:href="#DejaVuSans-115"/>
    <use x="976.433594" xlink:href="#DejaVuSans-41"/>
   </g>
  </g>
 </g>
 <defs>
  <clipPath id="p893b9c481d">
   <rect height="317.111667" width="410.503906" x="130.230156" y="35.0625"/>
  </clipPath>
 </defs>
</svg>
