<?xml version="1.0" encoding="utf-8" standalone="no"?>
<!DOCTYPE svg PUBLIC "-//W3C//DTD SVG 1.1//EN"
  "http://www.w3.org/Graphics/SVG/1.1/DTD/svg11.dtd">
<!-- Created with matplotlib (https://matplotlib.org/) -->
<svg height="396pt" version="1.1" viewBox="0 0 684 396" width="684pt" xmlns="http://www.w3.org/2000/svg" xmlns:xlink="http://www.w3.org/1999/xlink">
 <defs>
  <style type="text/css">
*{stroke-linecap:butt;stroke-linejoin:round;}
  </style>
 </defs>
 <g id="figure_1">
  <g id="patch_1">
   <path d="M 0 396 
L 684 396 
L 684 0 
L 0 0 
z
" style="fill:#ffffff;"/>
  </g>
  <g id="axes_1">
   <g id="patch_2">
    <path d="M 120.878594 352.174167 
L 540.734062 352.174167 
L 540.734062 35.0625 
L 120.878594 35.0625 
z
" style="fill:#ffffff;"/>
   </g>
   <g id="matplotlib.axis_1">
    <g id="xtick_1">
     <g id="line2d_1">
      <defs>
       <path d="M 0 0 
L 0 3.5 
" id="mac35b73635" style="stroke:#000000;stroke-width:0.8;"/>
      </defs>
      <g>
       <use style="stroke:#000000;stroke-width:0.8;" x="137.691303" xlink:href="#mac35b73635" y="352.174167"/>
      </g>
     </g>
     <g id="text_1">
      <!-- 0 -->
      <defs>
       <path d="M 31.78125 66.40625 
Q 24.171875 66.40625 20.328125 58.90625 
Q 16.5 51.421875 16.5 36.375 
Q 16.5 21.390625 20.328125 13.890625 
Q 24.171875 6.390625 31.78125 6.390625 
Q 39.453125 6.390625 43.28125 13.890625 
Q 47.125 21.390625 47.125 36.375 
Q 47.125 51.421875 43.28125 58.90625 
Q 39.453125 66.40625 31.78125 66.40625 
z
M 31.78125 74.21875 
Q 44.046875 74.21875 50.515625 64.515625 
Q 56.984375 54.828125 56.984375 36.375 
Q 56.984375 17.96875 50.515625 8.265625 
Q 44.046875 -1.421875 31.78125 -1.421875 
Q 19.53125 -1.421875 13.0625 8.265625 
Q 6.59375 17.96875 6.59375 36.375 
Q 6.59375 54.828125 13.0625 64.515625 
Q 19.53125 74.21875 31.78125 74.21875 
z
" id="DejaVuSans-48"/>
      </defs>
      <g transform="translate(134.510053 366.772604)scale(0.1 -0.1)">
       <use xlink:href="#DejaVuSans-48"/>
      </g>
     </g>
    </g>
    <g id="xtick_2">
     <g id="line2d_2">
      <g>
       <use style="stroke:#000000;stroke-width:0.8;" x="204.46611" xlink:href="#mac35b73635" y="352.174167"/>
      </g>
     </g>
     <g id="text_2">
      <!-- 50 -->
      <defs>
       <path d="M 10.796875 72.90625 
L 49.515625 72.90625 
L 49.515625 64.59375 
L 19.828125 64.59375 
L 19.828125 46.734375 
Q 21.96875 47.46875 24.109375 47.828125 
Q 26.265625 48.1875 28.421875 48.1875 
Q 40.625 48.1875 47.75 41.5 
Q 54.890625 34.8125 54.890625 23.390625 
Q 54.890625 11.625 47.5625 5.09375 
Q 40.234375 -1.421875 26.90625 -1.421875 
Q 22.3125 -1.421875 17.546875 -0.640625 
Q 12.796875 0.140625 7.71875 1.703125 
L 7.71875 11.625 
Q 12.109375 9.234375 16.796875 8.0625 
Q 21.484375 6.890625 26.703125 6.890625 
Q 35.15625 6.890625 40.078125 11.328125 
Q 45.015625 15.765625 45.015625 23.390625 
Q 45.015625 31 40.078125 35.4375 
Q 35.15625 39.890625 26.703125 39.890625 
Q 22.75 39.890625 18.8125 39.015625 
Q 14.890625 38.140625 10.796875 36.28125 
z
" id="DejaVuSans-53"/>
      </defs>
      <g transform="translate(198.10361 366.772604)scale(0.1 -0.1)">
       <use xlink:href="#DejaVuSans-53"/>
       <use x="63.623047" xlink:href="#DejaVuSans-48"/>
      </g>
     </g>
    </g>
    <g id="xtick_3">
     <g id="line2d_3">
      <g>
       <use style="stroke:#000000;stroke-width:0.8;" x="271.240918" xlink:href="#mac35b73635" y="352.174167"/>
      </g>
     </g>
     <g id="text_3">
      <!-- 100 -->
      <defs>
       <path d="M 12.40625 8.296875 
L 28.515625 8.296875 
L 28.515625 63.921875 
L 10.984375 60.40625 
L 10.984375 69.390625 
L 28.421875 72.90625 
L 38.28125 72.90625 
L 38.28125 8.296875 
L 54.390625 8.296875 
L 54.390625 0 
L 12.40625 0 
z
" id="DejaVuSans-49"/>
      </defs>
      <g transform="translate(261.697168 366.772604)scale(0.1 -0.1)">
       <use xlink:href="#DejaVuSans-49"/>
       <use x="63.623047" xlink:href="#DejaVuSans-48"/>
       <use x="127.246094" xlink:href="#DejaVuSans-48"/>
      </g>
     </g>
    </g>
    <g id="xtick_4">
     <g id="line2d_4">
      <g>
       <use style="stroke:#000000;stroke-width:0.8;" x="338.015725" xlink:href="#mac35b73635" y="352.174167"/>
      </g>
     </g>
     <g id="text_4">
      <!-- 150 -->
      <g transform="translate(328.471975 366.772604)scale(0.1 -0.1)">
       <use xlink:href="#DejaVuSans-49"/>
       <use x="63.623047" xlink:href="#DejaVuSans-53"/>
       <use x="127.246094" xlink:href="#DejaVuSans-48"/>
      </g>
     </g>
    </g>
    <g id="xtick_5">
     <g id="line2d_5">
      <g>
       <use style="stroke:#000000;stroke-width:0.8;" x="404.790532" xlink:href="#mac35b73635" y="352.174167"/>
      </g>
     </g>
     <g id="text_5">
      <!-- 200 -->
      <defs>
       <path d="M 19.1875 8.296875 
L 53.609375 8.296875 
L 53.609375 0 
L 7.328125 0 
L 7.328125 8.296875 
Q 12.9375 14.109375 22.625 23.890625 
Q 32.328125 33.6875 34.8125 36.53125 
Q 39.546875 41.84375 41.421875 45.53125 
Q 43.3125 49.21875 43.3125 52.78125 
Q 43.3125 58.59375 39.234375 62.25 
Q 35.15625 65.921875 28.609375 65.921875 
Q 23.96875 65.921875 18.8125 64.3125 
Q 13.671875 62.703125 7.8125 59.421875 
L 7.8125 69.390625 
Q 13.765625 71.78125 18.9375 73 
Q 24.125 74.21875 28.421875 74.21875 
Q 39.75 74.21875 46.484375 68.546875 
Q 53.21875 62.890625 53.21875 53.421875 
Q 53.21875 48.921875 51.53125 44.890625 
Q 49.859375 40.875 45.40625 35.40625 
Q 44.1875 33.984375 37.640625 27.21875 
Q 31.109375 20.453125 19.1875 8.296875 
z
" id="DejaVuSans-50"/>
      </defs>
      <g transform="translate(395.246782 366.772604)scale(0.1 -0.1)">
       <use xlink:href="#DejaVuSans-50"/>
       <use x="63.623047" xlink:href="#DejaVuSans-48"/>
       <use x="127.246094" xlink:href="#DejaVuSans-48"/>
      </g>
     </g>
    </g>
    <g id="xtick_6">
     <g id="line2d_6">
      <g>
       <use style="stroke:#000000;stroke-width:0.8;" x="471.565339" xlink:href="#mac35b73635" y="352.174167"/>
      </g>
     </g>
     <g id="text_6">
      <!-- 250 -->
      <g transform="translate(462.021589 366.772604)scale(0.1 -0.1)">
       <use xlink:href="#DejaVuSans-50"/>
       <use x="63.623047" xlink:href="#DejaVuSans-53"/>
       <use x="127.246094" xlink:href="#DejaVuSans-48"/>
      </g>
     </g>
    </g>
    <g id="xtick_7">
     <g id="line2d_7">
      <g>
       <use style="stroke:#000000;stroke-width:0.8;" x="538.340146" xlink:href="#mac35b73635" y="352.174167"/>
      </g>
     </g>
     <g id="text_7">
      <!-- 300 -->
      <defs>
       <path d="M 40.578125 39.3125 
Q 47.65625 37.796875 51.625 33 
Q 55.609375 28.21875 55.609375 21.1875 
Q 55.609375 10.40625 48.1875 4.484375 
Q 40.765625 -1.421875 27.09375 -1.421875 
Q 22.515625 -1.421875 17.65625 -0.515625 
Q 12.796875 0.390625 7.625 2.203125 
L 7.625 11.71875 
Q 11.71875 9.328125 16.59375 8.109375 
Q 21.484375 6.890625 26.8125 6.890625 
Q 36.078125 6.890625 40.9375 10.546875 
Q 45.796875 14.203125 45.796875 21.1875 
Q 45.796875 27.640625 41.28125 31.265625 
Q 36.765625 34.90625 28.71875 34.90625 
L 20.21875 34.90625 
L 20.21875 43.015625 
L 29.109375 43.015625 
Q 36.375 43.015625 40.234375 45.921875 
Q 44.09375 48.828125 44.09375 54.296875 
Q 44.09375 59.90625 40.109375 62.90625 
Q 36.140625 65.921875 28.71875 65.921875 
Q 24.65625 65.921875 20.015625 65.03125 
Q 15.375 64.15625 9.8125 62.3125 
L 9.8125 71.09375 
Q 15.4375 72.65625 20.34375 73.4375 
Q 25.25 74.21875 29.59375 74.21875 
Q 40.828125 74.21875 47.359375 69.109375 
Q 53.90625 64.015625 53.90625 55.328125 
Q 53.90625 49.265625 50.4375 45.09375 
Q 46.96875 40.921875 40.578125 39.3125 
z
" id="DejaVuSans-51"/>
      </defs>
      <g transform="translate(528.796396 366.772604)scale(0.1 -0.1)">
       <use xlink:href="#DejaVuSans-51"/>
       <use x="63.623047" xlink:href="#DejaVuSans-48"/>
       <use x="127.246094" xlink:href="#DejaVuSans-48"/>
      </g>
     </g>
    </g>
   </g>
   <g id="matplotlib.axis_2">
    <g id="ytick_1">
     <g id="line2d_8">
      <defs>
       <path d="M 0 0 
L -3.5 0 
" id="m4193e9f5f8" style="stroke:#000000;stroke-width:0.8;"/>
      </defs>
      <g>
       <use style="stroke:#000000;stroke-width:0.8;" x="120.878594" xlink:href="#m4193e9f5f8" y="352.174167"/>
      </g>
     </g>
     <g id="text_8">
      <!-- 0 -->
      <g transform="translate(107.516094 355.973385)scale(0.1 -0.1)">
       <use xlink:href="#DejaVuSans-48"/>
      </g>
     </g>
    </g>
    <g id="ytick_2">
     <g id="line2d_9">
      <g>
       <use style="stroke:#000000;stroke-width:0.8;" x="120.878594" xlink:href="#m4193e9f5f8" y="291.533749"/>
      </g>
     </g>
     <g id="text_9">
      <!-- 50000 -->
      <g transform="translate(82.066094 295.332968)scale(0.1 -0.1)">
       <use xlink:href="#DejaVuSans-53"/>
       <use x="63.623047" xlink:href="#DejaVuSans-48"/>
       <use x="127.246094" xlink:href="#DejaVuSans-48"/>
       <use x="190.869141" xlink:href="#DejaVuSans-48"/>
       <use x="254.492188" xlink:href="#DejaVuSans-48"/>
      </g>
     </g>
    </g>
    <g id="ytick_3">
     <g id="line2d_10">
      <g>
       <use style="stroke:#000000;stroke-width:0.8;" x="120.878594" xlink:href="#m4193e9f5f8" y="230.893331"/>
      </g>
     </g>
     <g id="text_10">
      <!-- 100000 -->
      <g transform="translate(75.703594 234.69255)scale(0.1 -0.1)">
       <use xlink:href="#DejaVuSans-49"/>
       <use x="63.623047" xlink:href="#DejaVuSans-48"/>
       <use x="127.246094" xlink:href="#DejaVuSans-48"/>
       <use x="190.869141" xlink:href="#DejaVuSans-48"/>
       <use x="254.492188" xlink:href="#DejaVuSans-48"/>
       <use x="318.115234" xlink:href="#DejaVuSans-48"/>
      </g>
     </g>
    </g>
    <g id="ytick_4">
     <g id="line2d_11">
      <g>
       <use style="stroke:#000000;stroke-width:0.8;" x="120.878594" xlink:href="#m4193e9f5f8" y="170.252913"/>
      </g>
     </g>
     <g id="text_11">
      <!-- 150000 -->
      <g transform="translate(75.703594 174.052132)scale(0.1 -0.1)">
       <use xlink:href="#DejaVuSans-49"/>
       <use x="63.623047" xlink:href="#DejaVuSans-53"/>
       <use x="127.246094" xlink:href="#DejaVuSans-48"/>
       <use x="190.869141" xlink:href="#DejaVuSans-48"/>
       <use x="254.492188" xlink:href="#DejaVuSans-48"/>
       <use x="318.115234" xlink:href="#DejaVuSans-48"/>
      </g>
     </g>
    </g>
    <g id="ytick_5">
     <g id="line2d_12">
      <g>
       <use style="stroke:#000000;stroke-width:0.8;" x="120.878594" xlink:href="#m4193e9f5f8" y="109.612496"/>
      </g>
     </g>
     <g id="text_12">
      <!-- 200000 -->
      <g transform="translate(75.703594 113.411714)scale(0.1 -0.1)">
       <use xlink:href="#DejaVuSans-50"/>
       <use x="63.623047" xlink:href="#DejaVuSans-48"/>
       <use x="127.246094" xlink:href="#DejaVuSans-48"/>
       <use x="190.869141" xlink:href="#DejaVuSans-48"/>
       <use x="254.492188" xlink:href="#DejaVuSans-48"/>
       <use x="318.115234" xlink:href="#DejaVuSans-48"/>
      </g>
     </g>
    </g>
    <g id="ytick_6">
     <g id="line2d_13">
      <g>
       <use style="stroke:#000000;stroke-width:0.8;" x="120.878594" xlink:href="#m4193e9f5f8" y="48.972078"/>
      </g>
     </g>
     <g id="text_13">
      <!-- 250000 -->
      <g transform="translate(75.703594 52.771297)scale(0.1 -0.1)">
       <use xlink:href="#DejaVuSans-50"/>
       <use x="63.623047" xlink:href="#DejaVuSans-53"/>
       <use x="127.246094" xlink:href="#DejaVuSans-48"/>
       <use x="190.869141" xlink:href="#DejaVuSans-48"/>
       <use x="254.492188" xlink:href="#DejaVuSans-48"/>
       <use x="318.115234" xlink:href="#DejaVuSans-48"/>
      </g>
     </g>
    </g>
    <g id="text_14">
     <!-- queue -->
     <defs>
      <path d="M 14.796875 27.296875 
Q 14.796875 17.390625 18.875 11.75 
Q 22.953125 6.109375 30.078125 6.109375 
Q 37.203125 6.109375 41.296875 11.75 
Q 45.40625 17.390625 45.40625 27.296875 
Q 45.40625 37.203125 41.296875 42.84375 
Q 37.203125 48.484375 30.078125 48.484375 
Q 22.953125 48.484375 18.875 42.84375 
Q 14.796875 37.203125 14.796875 27.296875 
z
M 45.40625 8.203125 
Q 42.578125 3.328125 38.25 0.953125 
Q 33.9375 -1.421875 27.875 -1.421875 
Q 17.96875 -1.421875 11.734375 6.484375 
Q 5.515625 14.40625 5.515625 27.296875 
Q 5.515625 40.1875 11.734375 48.09375 
Q 17.96875 56 27.875 56 
Q 33.9375 56 38.25 53.625 
Q 42.578125 51.265625 45.40625 46.390625 
L 45.40625 54.6875 
L 54.390625 54.6875 
L 54.390625 -20.796875 
L 45.40625 -20.796875 
z
" id="DejaVuSans-113"/>
      <path d="M 8.5 21.578125 
L 8.5 54.6875 
L 17.484375 54.6875 
L 17.484375 21.921875 
Q 17.484375 14.15625 20.5 10.265625 
Q 23.53125 6.390625 29.59375 6.390625 
Q 36.859375 6.390625 41.078125 11.03125 
Q 45.3125 15.671875 45.3125 23.6875 
L 45.3125 54.6875 
L 54.296875 54.6875 
L 54.296875 0 
L 45.3125 0 
L 45.3125 8.40625 
Q 42.046875 3.421875 37.71875 1 
Q 33.40625 -1.421875 27.6875 -1.421875 
Q 18.265625 -1.421875 13.375 4.4375 
Q 8.5 10.296875 8.5 21.578125 
z
M 31.109375 56 
z
" id="DejaVuSans-117"/>
      <path d="M 56.203125 29.59375 
L 56.203125 25.203125 
L 14.890625 25.203125 
Q 15.484375 15.921875 20.484375 11.0625 
Q 25.484375 6.203125 34.421875 6.203125 
Q 39.59375 6.203125 44.453125 7.46875 
Q 49.3125 8.734375 54.109375 11.28125 
L 54.109375 2.78125 
Q 49.265625 0.734375 44.1875 -0.34375 
Q 39.109375 -1.421875 33.890625 -1.421875 
Q 20.796875 -1.421875 13.15625 6.1875 
Q 5.515625 13.8125 5.515625 26.8125 
Q 5.515625 40.234375 12.765625 48.109375 
Q 20.015625 56 32.328125 56 
Q 43.359375 56 49.78125 48.890625 
Q 56.203125 41.796875 56.203125 29.59375 
z
M 47.21875 32.234375 
Q 47.125 39.59375 43.09375 43.984375 
Q 39.0625 48.390625 32.421875 48.390625 
Q 24.90625 48.390625 20.390625 44.140625 
Q 15.875 39.890625 15.1875 32.171875 
z
" id="DejaVuSans-101"/>
     </defs>
     <g transform="translate(58.426094 209.283177)rotate(-90)scale(0.1 -0.1)">
      <use xlink:href="#DejaVuSans-113"/>
      <use x="63.476562" xlink:href="#DejaVuSans-117"/>
      <use x="126.855469" xlink:href="#DejaVuSans-101"/>
      <use x="188.378906" xlink:href="#DejaVuSans-117"/>
      <use x="251.757812" xlink:href="#DejaVuSans-101"/>
     </g>
     <!-- (bytes) -->
     <defs>
      <path d="M 31 75.875 
Q 24.46875 64.65625 21.28125 53.65625 
Q 18.109375 42.671875 18.109375 31.390625 
Q 18.109375 20.125 21.3125 9.0625 
Q 24.515625 -2 31 -13.1875 
L 23.1875 -13.1875 
Q 15.875 -1.703125 12.234375 9.375 
Q 8.59375 20.453125 8.59375 31.390625 
Q 8.59375 42.28125 12.203125 53.3125 
Q 15.828125 64.359375 23.1875 75.875 
z
" id="DejaVuSans-40"/>
      <path d="M 48.6875 27.296875 
Q 48.6875 37.203125 44.609375 42.84375 
Q 40.53125 48.484375 33.40625 48.484375 
Q 26.265625 48.484375 22.1875 42.84375 
Q 18.109375 37.203125 18.109375 27.296875 
Q 18.109375 17.390625 22.1875 11.75 
Q 26.265625 6.109375 33.40625 6.109375 
Q 40.53125 6.109375 44.609375 11.75 
Q 48.6875 17.390625 48.6875 27.296875 
z
M 18.109375 46.390625 
Q 20.953125 51.265625 25.265625 53.625 
Q 29.59375 56 35.59375 56 
Q 45.5625 56 51.78125 48.09375 
Q 58.015625 40.1875 58.015625 27.296875 
Q 58.015625 14.40625 51.78125 6.484375 
Q 45.5625 -1.421875 35.59375 -1.421875 
Q 29.59375 -1.421875 25.265625 0.953125 
Q 20.953125 3.328125 18.109375 8.203125 
L 18.109375 0 
L 9.078125 0 
L 9.078125 75.984375 
L 18.109375 75.984375 
z
" id="DejaVuSans-98"/>
      <path d="M 32.171875 -5.078125 
Q 28.375 -14.84375 24.75 -17.8125 
Q 21.140625 -20.796875 15.09375 -20.796875 
L 7.90625 -20.796875 
L 7.90625 -13.28125 
L 13.1875 -13.28125 
Q 16.890625 -13.28125 18.9375 -11.515625 
Q 21 -9.765625 23.484375 -3.21875 
L 25.09375 0.875 
L 2.984375 54.6875 
L 12.5 54.6875 
L 29.59375 11.921875 
L 46.6875 54.6875 
L 56.203125 54.6875 
z
" id="DejaVuSans-121"/>
      <path d="M 18.3125 70.21875 
L 18.3125 54.6875 
L 36.8125 54.6875 
L 36.8125 47.703125 
L 18.3125 47.703125 
L 18.3125 18.015625 
Q 18.3125 11.328125 20.140625 9.421875 
Q 21.96875 7.515625 27.59375 7.515625 
L 36.8125 7.515625 
L 36.8125 0 
L 27.59375 0 
Q 17.1875 0 13.234375 3.875 
Q 9.28125 7.765625 9.28125 18.015625 
L 9.28125 47.703125 
L 2.6875 47.703125 
L 2.6875 54.6875 
L 9.28125 54.6875 
L 9.28125 70.21875 
z
" id="DejaVuSans-116"/>
      <path d="M 44.28125 53.078125 
L 44.28125 44.578125 
Q 40.484375 46.53125 36.375 47.5 
Q 32.28125 48.484375 27.875 48.484375 
Q 21.1875 48.484375 17.84375 46.4375 
Q 14.5 44.390625 14.5 40.28125 
Q 14.5 37.15625 16.890625 35.375 
Q 19.28125 33.59375 26.515625 31.984375 
L 29.59375 31.296875 
Q 39.15625 29.25 43.1875 25.515625 
Q 47.21875 21.78125 47.21875 15.09375 
Q 47.21875 7.46875 41.1875 3.015625 
Q 35.15625 -1.421875 24.609375 -1.421875 
Q 20.21875 -1.421875 15.453125 -0.5625 
Q 10.6875 0.296875 5.421875 2 
L 5.421875 11.28125 
Q 10.40625 8.6875 15.234375 7.390625 
Q 20.0625 6.109375 24.8125 6.109375 
Q 31.15625 6.109375 34.5625 8.28125 
Q 37.984375 10.453125 37.984375 14.40625 
Q 37.984375 18.0625 35.515625 20.015625 
Q 33.0625 21.96875 24.703125 23.78125 
L 21.578125 24.515625 
Q 13.234375 26.265625 9.515625 29.90625 
Q 5.8125 33.546875 5.8125 39.890625 
Q 5.8125 47.609375 11.28125 51.796875 
Q 16.75 56 26.8125 56 
Q 31.78125 56 36.171875 55.265625 
Q 40.578125 54.546875 44.28125 53.078125 
z
" id="DejaVuSans-115"/>
      <path d="M 8.015625 75.875 
L 15.828125 75.875 
Q 23.140625 64.359375 26.78125 53.3125 
Q 30.421875 42.28125 30.421875 31.390625 
Q 30.421875 20.453125 26.78125 9.375 
Q 23.140625 -1.703125 15.828125 -13.1875 
L 8.015625 -13.1875 
Q 14.5 -2 17.703125 9.0625 
Q 20.90625 20.125 20.90625 31.390625 
Q 20.90625 42.671875 17.703125 53.65625 
Q 14.5 64.65625 8.015625 75.875 
z
" id="DejaVuSans-41"/>
     </defs>
     <g transform="translate(69.623906 211.294896)rotate(-90)scale(0.1 -0.1)">
      <use xlink:href="#DejaVuSans-40"/>
      <use x="39.013672" xlink:href="#DejaVuSans-98"/>
      <use x="102.490234" xlink:href="#DejaVuSans-121"/>
      <use x="161.669922" xlink:href="#DejaVuSans-116"/>
      <use x="200.878906" xlink:href="#DejaVuSans-101"/>
      <use x="262.402344" xlink:href="#DejaVuSans-115"/>
      <use x="314.501953" xlink:href="#DejaVuSans-41"/>
     </g>
    </g>
   </g>
   <g id="line2d_14">
    <path clip-path="url(#p32256d40b5)" d="M 139.962933 352.174167 
L 146.75328 352.174167 
L 146.898996 284.235068 
L 147.03937 287.907452 
L 147.183053 346.665591 
L 147.323261 245.675039 
L 147.46336 232.821696 
L 147.603689 269.545533 
L 147.743906 236.49408 
L 147.884084 350.337975 
L 148.024232 275.054109 
L 148.164401 273.217917 
L 148.304832 232.821696 
L 148.445016 318.247066 
L 148.591538 264.036958 
L 148.733931 269.545533 
L 148.875556 219.968353 
L 149.016508 265.87315 
L 149.158165 253.019807 
L 149.298371 352.174167 
L 149.439532 203.442627 
L 149.580448 204.386192 
L 149.721402 284.235068 
L 149.866956 300.760795 
L 150.011692 101.576427 
L 150.154569 300.760795 
L 150.295983 59.344015 
L 150.44157 156.662183 
L 150.58391 51.999247 
L 150.727334 51.999247 
L 150.872215 188.753092 
L 151.019132 205.278819 
L 151.161613 74.03355 
L 151.306404 147.481224 
L 151.45246 125.446921 
L 151.597467 51.999247 
L 151.737939 107.085003 
L 151.87852 64.85259 
L 152.023707 152.989799 
L 152.166506 108.921195 
L 152.594342 352.174167 
L 152.73509 183.244516 
L 152.878929 182.368869 
L 153.162205 68.524974 
L 153.44585 180.532677 
L 153.587487 161.210214 
L 153.728955 229.149313 
L 153.871965 125.446921 
L 154.013488 215.420322 
L 154.16111 167.679334 
L 154.442797 352.174167 
L 154.583042 186.041252 
L 154.723994 234.56814 
L 154.864898 51.999247 
L 155.005973 328.303673 
L 155.287575 183.244516 
L 155.427976 186.9169 
L 155.570063 284.235068 
L 155.710247 99.740236 
L 155.850335 224.601281 
L 155.991144 118.102154 
L 156.131348 125.446921 
L 156.276083 258.528382 
L 156.41643 193.38602 
L 156.559583 251.183615 
L 156.699748 240.166464 
L 156.84016 101.576427 
L 156.981248 168.554982 
L 157.122554 157.537831 
L 157.262856 51.999247 
L 157.404165 125.446921 
L 157.546515 130.955497 
L 157.688534 333.812248 
L 157.970734 147.481224 
L 158.253936 169.515526 
L 158.393934 161.210214 
L 158.533818 352.174167 
L 158.673795 99.740236 
L 158.813893 92.395468 
L 158.954303 227.313121 
L 159.095218 143.80884 
L 159.236094 214.459778 
L 159.377283 190.589284 
L 159.518125 104.288267 
L 159.660304 115.305418 
L 159.80155 196.097859 
L 159.944532 163.046406 
L 160.225721 203.442627 
L 160.366158 153.865447 
L 160.507444 194.261668 
L 160.653226 124.486377 
L 160.79752 217.256514 
L 161.222081 103.412619 
L 161.362868 185.080708 
L 161.648443 204.386192 
L 161.789739 291.579836 
L 161.930863 94.23166 
L 162.071644 96.943499 
L 162.353479 142.848296 
L 162.4943 197.934051 
L 162.634454 192.425476 
L 162.916465 50.163056 
L 163.198698 194.261668 
L 163.339759 131.831145 
L 163.481138 218.132162 
L 163.62267 150.193063 
L 163.763411 162.161056 
L 163.90435 119.93592 
L 164.187348 302.596987 
L 164.328831 103.412619 
L 164.469124 181.493221 
L 164.611751 352.174167 
L 164.752287 105.248811 
L 164.892813 154.825991 
L 165.033714 69.400622 
L 165.174826 146.520679 
L 165.314917 151.153607 
L 165.454974 171.351718 
L 165.595113 153.865447 
L 165.735173 163.046406 
L 165.877832 145.645032 
L 166.158396 297.088411 
L 166.300764 239.290816 
L 166.440956 104.288267 
L 166.581133 115.390315 
L 166.861341 167.679334 
L 167.001559 164.882598 
L 167.141638 129.994953 
L 167.282259 143.80884 
L 167.563531 125.446921 
L 167.705365 102.452075 
L 167.846309 103.412619 
L 167.986621 134.627881 
L 168.126769 128.158761 
L 168.267466 154.825991 
L 168.550222 128.158761 
L 168.833459 164.882598 
L 168.973987 155.786535 
L 169.121743 135.588425 
L 169.261837 132.791689 
L 169.402361 156.662183 
L 169.684161 149.317415 
L 169.825046 189.713636 
L 169.965746 141.972648 
L 170.106095 155.701639 
L 170.247378 135.588425 
L 170.388785 167.679334 
L 170.529636 149.317415 
L 170.670432 193.38602 
L 170.812124 152.029255 
L 170.952554 175.024101 
L 171.093641 162.161056 
L 171.23432 132.791689 
L 171.374634 138.300264 
L 171.515857 128.158761 
L 171.798058 168.554982 
L 171.93897 165.843142 
L 172.079958 178.696485 
L 172.220864 152.989799 
L 172.50454 166.803686 
L 172.645464 149.317415 
L 172.786041 159.374022 
L 172.927283 155.701639 
L 173.068121 173.18791 
L 173.20953 165.843142 
L 173.350857 144.684488 
L 173.49219 146.520679 
L 173.632648 137.424617 
L 173.914581 181.408325 
L 174.054892 167.679334 
L 174.195179 170.391173 
L 174.33636 151.153607 
L 174.47739 150.193063 
L 174.618401 163.131303 
L 174.758691 146.520679 
L 174.90007 148.356871 
L 175.041291 160.334567 
L 175.181937 162.161056 
L 175.323371 153.950343 
L 175.464074 160.334567 
L 175.605416 141.972648 
L 175.746049 175.024101 
L 175.886721 140.136456 
L 176.027156 175.024101 
L 176.167892 172.312262 
L 176.308817 285.195612 
L 176.449142 263.16131 
L 176.874835 107.085003 
L 177.157387 130.955497 
L 177.297972 124.486377 
L 177.438183 105.248811 
L 177.578592 175.984646 
L 177.719076 111.633034 
L 178.000797 207.11501 
L 178.141044 352.174167 
L 178.281874 295.252219 
L 178.423563 127.283113 
L 178.566629 140.136456 
L 178.707467 137.424617 
L 178.848655 140.136456 
L 178.990398 148.356871 
L 179.130941 118.102154 
L 179.271575 150.193063 
L 179.41273 131.831145 
L 179.553898 94.23166 
L 179.695866 185.080708 
L 179.837116 117.14161 
L 179.978456 192.510372 
L 180.119829 135.503528 
L 180.260776 189.713636 
L 180.541549 133.667336 
L 180.682088 137.322741 
L 180.82227 154.825991 
L 180.963107 129.994953 
L 181.104165 166.71879 
L 181.244912 139.260809 
L 181.386204 176.860293 
L 181.52667 160.334567 
L 181.668127 157.537831 
L 181.80821 167.679334 
L 181.949791 167.679334 
L 182.091558 154.825991 
L 182.232777 159.374022 
L 182.37352 171.351718 
L 182.513854 144.684488 
L 182.657016 156.662183 
L 182.797437 187.877444 
L 182.937761 190.589284 
L 183.078432 154.825991 
L 183.219082 172.227365 
L 183.64261 134.627881 
L 183.924285 181.408325 
L 184.064859 173.18791 
L 184.205519 131.916041 
L 184.346173 168.554982 
L 184.48704 135.503528 
L 184.628119 164.00695 
L 184.768783 137.322741 
L 185.049736 194.346564 
L 185.190388 150.193063 
L 185.471076 177.820837 
L 185.754425 171.351718 
L 185.898799 145.645032 
L 186.040062 154.825991 
L 186.180607 156.662183 
L 186.46334 173.18791 
L 186.604236 152.989799 
L 186.744643 165.843142 
L 186.885284 162.161056 
L 187.166423 133.667336 
L 187.30795 164.882598 
L 187.448774 154.825991 
L 187.589698 159.374022 
L 187.730216 148.356871 
L 187.871504 179.572133 
L 188.154351 140.136456 
L 188.295749 153.865447 
L 188.437061 141.972648 
L 188.578912 148.441768 
L 188.719305 137.322741 
L 188.85962 174.063557 
L 189.000172 168.639878 
L 189.140963 186.9169 
L 189.281654 163.046406 
L 189.422284 177.820837 
L 189.562985 176.860293 
L 189.704306 172.312262 
L 189.986953 142.933192 
L 190.127747 152.989799 
L 190.268541 143.757902 
L 190.409782 150.193063 
L 190.550856 146.520679 
L 190.691903 164.882598 
L 190.974551 151.153607 
L 191.115147 152.114152 
L 191.257246 150.193063 
L 191.39797 150.193063 
L 191.538784 176.860293 
L 191.679352 352.174167 
L 191.826733 352.174167 
L 192.119089 85.050701 
L 192.259888 119.93592 
L 192.401527 76.745389 
L 192.542655 146.520679 
L 192.683871 152.989799 
L 192.824642 181.408325 
L 192.965117 145.645032 
L 193.109264 154.825991 
L 193.250082 198.894595 
L 193.391221 144.684488 
L 193.532647 166.71879 
L 193.677475 151.153607 
L 193.821884 155.701639 
L 193.963262 188.753092 
L 194.245765 155.701639 
L 194.528099 167.679334 
L 194.668877 168.554982 
L 194.809624 140.136456 
L 194.950433 176.860293 
L 195.090801 174.063557 
L 195.231782 154.825991 
L 195.375441 166.71879 
L 195.519051 161.210214 
L 195.66296 150.193063 
L 195.80668 196.097859 
L 196.090857 170.391173 
L 196.232743 183.244516 
L 196.373007 163.046406 
L 196.793493 187.877444 
L 197.074698 159.374022 
L 197.21572 157.537831 
L 197.497786 172.227365 
L 197.63951 164.00695 
L 197.779639 185.080708 
L 198.062015 170.391173 
L 198.202767 177.735941 
L 198.344991 175.024101 
L 198.486387 176.860293 
L 198.627104 169.515526 
L 198.767979 175.899749 
L 198.908491 168.554982 
L 199.049589 172.227365 
L 199.191252 181.408325 
L 199.332996 175.899749 
L 199.474596 183.244516 
L 199.615593 158.498375 
L 199.757359 159.374022 
L 199.903767 155.701639 
L 200.044448 192.425476 
L 200.327102 153.865447 
L 200.611864 188.753092 
L 200.894972 174.063557 
L 201.036775 175.899749 
L 201.177193 172.227365 
L 201.317437 177.735941 
L 201.460781 174.063557 
L 201.602149 174.063557 
L 201.746598 197.934051 
L 201.887595 153.865447 
L 202.029586 168.554982 
L 202.172155 162.161056 
L 202.312912 196.097859 
L 202.594808 164.882598 
L 202.736568 161.210214 
L 203.01995 177.735941 
L 203.161592 172.227365 
L 203.303591 172.227365 
L 203.444014 194.261668 
L 203.728612 170.391173 
L 203.869187 174.063557 
L 204.151778 198.894595 
L 204.293297 159.374022 
L 204.435679 172.227365 
L 204.57829 172.227365 
L 204.720213 186.9169 
L 205.005895 161.210214 
L 205.149965 164.882598 
L 205.293864 352.174167 
L 205.584938 352.174167 
L 205.726798 118.977802 
L 205.869195 143.80884 
L 206.012942 145.645032 
L 206.156148 153.865447 
L 206.440461 137.322741 
L 206.583852 169.515526 
L 206.724378 174.063557 
L 206.865748 166.71879 
L 207.0081 175.899749 
L 207.149528 168.554982 
L 207.716313 205.278819 
L 207.999321 165.843142 
L 208.141925 170.391173 
L 208.282397 194.261668 
L 208.423793 186.9169 
L 208.564472 170.391173 
L 208.710276 174.063557 
L 208.853126 172.227365 
L 208.994607 199.770243 
L 209.136585 189.713636 
L 209.277418 201.606435 
L 209.418851 172.227365 
L 209.559546 170.391173 
L 209.701448 177.735941 
L 209.843435 192.425476 
L 210.126493 184.205061 
L 210.266665 176.860293 
L 210.407981 175.899749 
L 210.548814 163.046406 
L 210.689797 183.244516 
L 210.830302 168.554982 
L 210.970695 192.425476 
L 211.252816 175.899749 
L 211.673965 181.408325 
L 211.814296 173.18791 
L 211.954547 172.227365 
L 212.094721 179.572133 
L 212.235684 196.097859 
L 212.376128 191.549828 
L 212.51632 201.606435 
L 212.797284 161.210214 
L 213.077842 186.9169 
L 213.217836 179.572133 
L 213.358812 180.532677 
L 213.499499 171.351718 
L 213.639937 188.753092 
L 213.780918 168.554982 
L 213.921138 168.554982 
L 214.062569 185.080708 
L 214.203421 185.080708 
L 214.343704 184.205061 
L 214.483933 162.161056 
L 214.624068 181.408325 
L 214.76419 185.080708 
L 214.904436 164.882598 
L 215.047937 175.899749 
L 215.332359 179.572133 
L 215.473455 186.9169 
L 215.614039 168.554982 
L 215.895827 187.877444 
L 216.1786 179.572133 
L 216.318797 185.080708 
L 216.460286 164.00695 
L 216.742423 183.244516 
L 217.024414 171.351718 
L 217.1652 164.882598 
L 217.30677 170.391173 
L 217.448041 203.442627 
L 217.588792 169.515526 
L 217.729407 168.554982 
L 217.869828 169.515526 
L 218.010407 199.770243 
L 218.150911 174.063557 
L 218.291381 174.063557 
L 218.432142 169.515526 
L 218.573404 183.244516 
L 218.713951 185.080708 
L 218.85434 163.046406 
L 218.99967 352.174167 
L 219.145847 352.174167 
L 219.296258 276.890301 
L 219.440077 122.650185 
L 219.582454 107.960651 
L 219.727808 119.062698 
L 220.012853 184.205061 
L 220.156537 160.334567 
L 220.298952 181.408325 
L 220.440102 172.227365 
L 220.581001 180.532677 
L 220.863292 165.843142 
L 221.003417 165.843142 
L 221.143787 182.368869 
L 221.424248 176.860293 
L 221.705583 155.701639 
L 221.987511 177.735941 
L 222.128739 192.425476 
L 222.268819 181.408325 
L 222.409133 161.210214 
L 222.549537 162.161056 
L 222.831002 183.244516 
L 222.97207 179.572133 
L 223.112432 164.882598 
L 223.393974 188.753092 
L 223.534833 169.515526 
L 223.674941 168.554982 
L 223.955417 188.753092 
L 224.237198 157.537831 
L 224.51839 188.837989 
L 224.662541 177.735941 
L 224.805427 175.899749 
L 224.945754 171.351718 
L 225.088181 181.408325 
L 225.230233 175.024101 
L 225.372257 174.063557 
L 225.514601 197.058404 
L 225.654963 170.391173 
L 225.795536 166.71879 
L 225.936303 153.865447 
L 226.077545 194.261668 
L 226.217936 188.753092 
L 226.499201 168.554982 
L 226.640632 183.244516 
L 226.781848 166.71879 
L 226.92278 196.097859 
L 227.06355 170.391173 
L 227.204867 170.391173 
L 227.346476 157.537831 
L 227.486955 181.408325 
L 227.628123 165.843142 
L 227.769405 181.408325 
L 228.051556 181.408325 
L 228.192497 200.730787 
L 228.333697 164.882598 
L 228.758489 185.080708 
L 228.899184 185.080708 
L 229.181841 161.210214 
L 229.322891 174.063557 
L 229.463774 214.459778 
L 229.604221 168.554982 
L 229.746163 168.554982 
L 229.888235 170.391173 
L 230.17141 193.38602 
L 230.453676 166.71879 
L 230.595142 174.063557 
L 230.735854 196.097859 
L 230.877495 164.00695 
L 231.159807 192.425476 
L 231.300872 181.408325 
L 231.441987 190.589284 
L 231.582204 170.391173 
L 231.724259 166.71879 
L 231.865311 194.261668 
L 232.148072 179.572133 
L 232.28845 188.753092 
L 232.431098 163.046406 
L 232.869035 352.174167 
L 233.159177 112.593578 
L 233.443812 124.486377 
L 233.865681 183.244516 
L 234.006404 148.356871 
L 234.147046 162.161056 
L 234.288237 150.193063 
L 234.571035 167.679334 
L 234.712169 164.00695 
L 234.853475 175.899749 
L 235.135128 165.843142 
L 235.275334 183.244516 
L 235.416386 180.532677 
L 235.69792 166.71879 
L 235.843261 175.899749 
L 236.124715 172.227365 
L 236.264894 183.244516 
L 236.545607 167.679334 
L 236.69035 179.572133 
L 236.971178 163.046406 
L 237.113253 166.71879 
L 237.254348 157.537831 
L 237.39493 194.261668 
L 237.53818 166.71879 
L 237.678559 166.71879 
L 237.819742 164.882598 
L 237.961566 190.589284 
L 238.102196 161.210214 
L 238.242435 181.408325 
L 238.523022 173.18791 
L 238.663207 181.408325 
L 238.80339 164.882598 
L 238.943477 162.161056 
L 239.083607 179.572133 
L 239.223901 174.063557 
L 239.364687 179.572133 
L 239.505025 179.572133 
L 239.64678 185.080708 
L 239.788781 164.882598 
L 239.930322 175.899749 
L 240.071857 177.735941 
L 240.213552 197.934051 
L 240.494632 162.161056 
L 240.781182 192.425476 
L 240.92314 163.046406 
L 241.065501 168.554982 
L 241.206198 163.046406 
L 241.347294 181.408325 
L 241.489772 163.046406 
L 241.632299 161.210214 
L 242.058715 192.425476 
L 242.341723 144.684488 
L 242.623825 203.442627 
L 242.764543 162.161056 
L 243.045496 168.554982 
L 243.18641 185.080708 
L 243.46805 164.882598 
L 243.608411 167.679334 
L 243.748826 199.770243 
L 243.890121 185.080708 
L 244.031338 157.537831 
L 244.313337 188.753092 
L 244.455854 197.934051 
L 244.737665 156.662183 
L 245.02194 179.572133 
L 245.163601 174.063557 
L 245.305075 179.572133 
L 245.445758 172.227365 
L 245.586018 172.227365 
L 245.726497 177.735941 
L 245.87165 175.899749 
L 246.153134 168.554982 
L 246.297646 352.174167 
L 246.589059 352.174167 
L 246.875183 161.210214 
L 247.016348 170.391173 
L 247.157084 160.334567 
L 247.297348 173.18791 
L 247.444139 150.193063 
L 247.728174 181.408325 
L 247.869262 172.227365 
L 248.151419 174.063557 
L 248.291415 157.537831 
L 248.431555 172.227365 
L 248.57215 175.024101 
L 248.71285 161.210214 
L 248.85425 177.735941 
L 248.999931 172.227365 
L 249.141897 176.860293 
L 249.282727 175.899749 
L 249.426687 171.351718 
L 249.566892 185.080708 
L 249.707194 187.877444 
L 249.847575 181.408325 
L 249.987843 164.882598 
L 250.268858 177.735941 
L 250.409146 179.572133 
L 250.691278 155.701639 
L 250.831528 174.063557 
L 250.972576 174.063557 
L 251.112852 169.515526 
L 251.257655 174.063557 
L 251.538937 155.701639 
L 251.679641 169.515526 
L 251.82209 164.882598 
L 251.965975 178.696485 
L 252.107204 170.391173 
L 252.248839 188.753092 
L 252.530837 164.882598 
L 252.812792 174.063557 
L 252.952922 196.097859 
L 253.094092 164.00695 
L 253.235306 164.882598 
L 253.515826 182.368869 
L 253.655968 166.71879 
L 253.796855 170.391173 
L 253.938758 164.882598 
L 254.07951 171.351718 
L 254.220119 189.713636 
L 254.360625 175.899749 
L 254.501293 174.063557 
L 254.641807 174.063557 
L 254.782331 186.041252 
L 254.922846 175.899749 
L 255.205173 179.572133 
L 255.347253 207.11501 
L 255.489089 171.351718 
L 255.629818 166.71879 
L 255.77084 180.532677 
L 255.911868 183.244516 
L 256.193103 174.063557 
L 256.334177 162.161056 
L 256.474674 185.080708 
L 256.615049 167.679334 
L 256.755679 164.882598 
L 257.036914 180.532677 
L 257.460101 164.882598 
L 257.741331 181.408325 
L 257.887738 177.735941 
L 258.177477 161.210214 
L 258.318526 188.753092 
L 258.460092 170.391173 
L 258.600611 166.71879 
L 258.742157 170.391173 
L 258.882723 183.244516 
L 259.166883 174.063557 
L 259.308208 169.515526 
L 259.448946 170.391173 
L 259.589549 185.080708 
L 259.730843 166.71879 
L 259.874067 179.572133 
L 260.017377 352.174167 
L 260.164683 352.174167 
L 260.593568 144.684488 
L 260.734802 157.537831 
L 260.875613 157.537831 
L 261.016497 180.532677 
L 261.157348 177.735941 
L 261.298675 185.080708 
L 261.721987 157.537831 
L 261.863233 164.882598 
L 262.004398 188.702154 
L 262.145624 186.9169 
L 262.426789 168.554982 
L 262.567889 185.080708 
L 262.708856 174.063557 
L 262.848969 179.572133 
L 262.989965 175.024101 
L 263.271564 197.058404 
L 263.412414 160.334567 
L 263.695591 181.408325 
L 263.835963 183.244516 
L 264.116177 175.899749 
L 264.256232 181.408325 
L 264.537145 157.537831 
L 264.677703 168.554982 
L 264.818658 197.934051 
L 264.959084 179.572133 
L 265.099821 177.735941 
L 265.241534 167.679334 
L 265.382585 175.899749 
L 265.523274 168.554982 
L 265.804317 179.572133 
L 265.94676 183.244516 
L 266.087433 181.408325 
L 266.227858 192.425476 
L 266.368786 188.753092 
L 266.790921 168.554982 
L 266.931793 192.425476 
L 267.353611 161.210214 
L 267.49417 157.537831 
L 267.638936 179.572133 
L 267.780295 170.391173 
L 267.921755 168.554982 
L 268.063244 186.9169 
L 268.204635 185.080708 
L 268.346227 166.71879 
L 268.486991 174.063557 
L 268.627755 192.425476 
L 268.768618 181.408325 
L 268.909023 186.041252 
L 269.04937 175.024101 
L 269.192235 185.080708 
L 269.332728 183.244516 
L 269.473178 196.097859 
L 269.894921 157.537831 
L 270.32088 205.278819 
L 270.602275 175.024101 
L 270.743965 170.391173 
L 270.886427 197.934051 
L 271.169615 168.554982 
L 271.312178 169.515526 
L 271.453419 181.408325 
L 271.593862 172.227365 
L 271.874614 172.227365 
L 272.015287 197.934051 
L 272.296144 161.210214 
L 272.436451 164.882598 
L 272.718499 188.753092 
L 272.861384 178.696485 
L 273.001687 176.860293 
L 273.141884 179.572133 
L 273.282614 188.753092 
L 273.422751 186.9169 
L 273.563389 192.425476 
L 273.706838 352.174167 
L 273.851153 352.174167 
L 274.27508 142.848296 
L 274.415828 152.029255 
L 274.558188 152.029255 
L 274.698874 165.843142 
L 274.839545 159.374022 
L 274.979756 190.589284 
L 275.120115 186.9169 
L 275.403202 150.193063 
L 275.687009 178.696485 
L 275.827687 164.882598 
L 275.968595 194.261668 
L 276.109428 186.9169 
L 276.249755 163.046406 
L 276.531394 201.606435 
L 276.672046 168.554982 
L 276.813704 171.351718 
L 276.954044 164.882598 
L 277.23711 192.425476 
L 277.522708 179.572133 
L 277.665956 207.11501 
L 277.808646 163.046406 
L 277.951128 175.024101 
L 278.091617 172.227365 
L 278.232455 196.097859 
L 278.513055 159.374022 
L 278.653291 161.210214 
L 278.934089 203.442627 
L 279.215366 183.244516 
L 279.355845 186.9169 
L 279.496891 171.351718 
L 279.778679 190.589284 
L 279.919161 185.080708 
L 280.059716 185.080708 
L 280.200303 186.9169 
L 280.340176 171.351718 
L 280.620656 186.041252 
L 280.761151 183.244516 
L 280.90112 172.227365 
L 281.041105 170.391173 
L 281.181017 156.662183 
L 281.46105 214.459778 
L 281.601 197.934051 
L 281.740918 160.334567 
L 281.880896 155.701639 
L 282.162362 189.713636 
L 282.442415 179.572133 
L 282.58268 179.572133 
L 282.723541 185.080708 
L 282.863489 172.227365 
L 283.143397 177.735941 
L 283.284464 191.549828 
L 283.42496 191.549828 
L 283.567484 179.572133 
L 283.707405 180.532677 
L 283.847294 178.696485 
L 284.127264 197.934051 
L 284.547006 152.989799 
L 284.827457 204.386192 
L 285.108261 164.00695 
L 285.249247 164.882598 
L 285.390213 187.877444 
L 285.531202 162.161056 
L 285.672051 172.227365 
L 285.812939 170.391173 
L 285.953108 190.589284 
L 286.093786 191.549828 
L 286.234059 163.046406 
L 286.654127 196.097859 
L 286.79391 185.080708 
L 286.933669 183.244516 
L 287.073395 161.210214 
L 287.213141 157.537831 
L 287.353354 352.174167 
L 287.499361 352.174167 
L 287.647892 309.949031 
L 287.789512 172.227365 
L 287.93261 146.520679 
L 288.215274 153.865447 
L 288.3559 183.244516 
L 288.637659 164.882598 
L 288.779339 183.244516 
L 288.920525 186.9169 
L 289.061055 182.368869 
L 289.202009 168.554982 
L 289.343036 186.9169 
L 289.48452 168.554982 
L 289.766938 188.753092 
L 289.910046 174.063557 
L 290.050512 179.572133 
L 290.191183 168.554982 
L 290.331337 166.71879 
L 290.471838 186.9169 
L 290.614337 185.080708 
L 290.898421 163.046406 
L 291.325468 179.572133 
L 291.467753 163.046406 
L 291.608074 185.080708 
L 291.748202 164.882598 
L 291.888283 186.041252 
L 292.029241 159.374022 
L 292.309528 182.368869 
L 292.449764 179.572133 
L 292.732063 161.210214 
L 292.875002 167.679334 
L 293.1555 190.589284 
L 293.436187 157.537831 
L 293.576604 153.865447 
L 293.863906 187.877444 
L 294.146189 172.227365 
L 294.427128 181.408325 
L 294.56757 166.71879 
L 294.848476 181.408325 
L 295.131068 157.537831 
L 295.554344 183.244516 
L 295.834758 164.882598 
L 295.975728 163.046406 
L 296.118837 179.572133 
L 296.26363 168.554982 
L 296.405055 177.735941 
L 296.546554 170.391173 
L 296.687862 175.899749 
L 296.972608 164.882598 
L 297.253744 199.770243 
L 297.395171 159.374022 
L 297.677668 152.989799 
L 297.818245 194.261668 
L 298.241889 164.00695 
L 298.384627 185.080708 
L 298.667442 172.227365 
L 298.81167 177.735941 
L 298.953172 195.222212 
L 299.093868 151.153607 
L 299.237402 153.865447 
L 299.37987 153.865447 
L 299.522012 183.244516 
L 299.664379 179.572133 
L 299.80474 155.701639 
L 300.228141 183.244516 
L 300.369286 166.71879 
L 300.510819 174.063557 
L 300.652786 169.515526 
L 300.793887 194.261668 
L 300.934927 181.408325 
L 301.081391 352.174167 
L 301.226118 352.174167 
L 301.507636 146.520679 
L 301.648662 152.029255 
L 301.790365 175.899749 
L 301.932029 168.554982 
L 302.21748 186.9169 
L 302.357937 163.046406 
L 302.499714 168.554982 
L 302.642404 183.244516 
L 303.207187 157.537831 
L 303.488068 194.261668 
L 303.769061 168.554982 
L 304.050307 183.244516 
L 304.4716 170.391173 
L 304.612797 181.408325 
L 304.753725 181.408325 
L 304.897721 172.227365 
L 305.038967 177.735941 
L 305.179494 191.549828 
L 305.319833 166.71879 
L 305.460066 168.554982 
L 305.600308 157.537831 
L 305.880843 194.261668 
L 306.162593 165.843142 
L 306.303278 181.408325 
L 306.584388 164.882598 
L 306.865254 185.080708 
L 307.145874 164.882598 
L 307.287629 164.882598 
L 307.428095 186.9169 
L 307.569465 166.71879 
L 307.714402 164.00695 
L 307.859409 157.537831 
L 307.999783 175.899749 
L 308.140012 179.572133 
L 308.280293 179.572133 
L 308.420535 163.046406 
L 308.701776 178.696485 
L 308.982988 164.882598 
L 309.123335 181.408325 
L 309.26446 180.532677 
L 309.404824 197.934051 
L 309.686289 166.71879 
L 309.827512 169.515526 
L 309.9705 179.572133 
L 310.112915 173.18791 
L 310.256175 160.334567 
L 310.820442 207.11501 
L 310.962688 175.024101 
L 311.103776 168.554982 
L 311.244764 170.391173 
L 311.385894 203.442627 
L 311.526548 172.227365 
L 311.667332 168.554982 
L 311.80791 171.351718 
L 312.090317 195.222212 
L 312.232313 172.227365 
L 312.656168 180.532677 
L 312.797441 161.210214 
L 312.938021 166.71879 
L 313.2199 184.205061 
L 313.501243 172.227365 
L 313.784095 177.735941 
L 314.066678 186.9169 
L 314.350131 168.554982 
L 314.491894 175.899749 
L 314.635758 334.787346 
L 314.783952 352.174167 
L 314.932978 352.174167 
L 315.215191 140.136456 
L 315.49659 161.210214 
L 315.645937 163.046406 
L 315.787199 172.227365 
L 315.927895 164.882598 
L 316.069187 190.589284 
L 316.351042 153.865447 
L 316.491374 159.374022 
L 316.632466 179.572133 
L 316.913577 161.210214 
L 317.194269 168.554982 
L 317.335858 172.227365 
L 317.477227 179.572133 
L 317.618524 166.71879 
L 317.760089 178.696485 
L 318.044725 157.537831 
L 318.333103 174.063557 
L 318.473325 178.696485 
L 318.615154 190.589284 
L 318.899277 163.046406 
L 319.180785 190.589284 
L 319.464705 170.391173 
L 319.605024 177.735941 
L 319.745211 163.046406 
L 320.02578 179.572133 
L 320.166043 169.515526 
L 320.306306 174.063557 
L 320.446626 172.227365 
L 320.586913 172.227365 
L 320.728094 190.589284 
L 320.870012 164.882598 
L 321.010452 165.843142 
L 321.151035 168.554982 
L 321.291962 179.572133 
L 321.432576 163.046406 
L 321.574131 166.71879 
L 321.715603 166.71879 
L 321.857862 188.753092 
L 321.998962 190.589284 
L 322.142487 163.046406 
L 322.282787 181.408325 
L 322.423228 179.572133 
L 322.5638 166.71879 
L 322.704121 176.860293 
L 322.984568 161.210214 
L 323.266273 175.899749 
L 323.407578 163.046406 
L 323.553139 163.046406 
L 323.695372 164.882598 
L 323.836908 157.537831 
L 324.264307 191.549828 
L 324.550673 168.554982 
L 324.833755 186.9169 
L 324.974235 172.227365 
L 325.115006 186.9169 
L 325.396487 168.554982 
L 325.53771 168.554982 
L 325.678295 170.391173 
L 326.101219 183.244516 
L 326.241971 163.046406 
L 326.387021 172.227365 
L 326.527239 168.554982 
L 326.670732 169.515526 
L 326.811242 184.205061 
L 326.951997 164.882598 
L 327.092864 163.046406 
L 327.236656 171.351718 
L 327.377911 161.210214 
L 327.51903 164.882598 
L 327.659261 164.882598 
L 327.799863 158.498375 
L 327.941525 164.882598 
L 328.084623 195.222212 
L 328.226762 170.391173 
L 328.368598 352.174167 
L 328.510456 352.174167 
L 328.651252 330.139864 
L 328.937362 159.374022 
L 329.077575 163.046406 
L 329.217763 177.735941 
L 329.358065 166.71879 
L 329.498141 169.515526 
L 329.6384 164.882598 
L 329.918967 197.934051 
L 330.059249 180.532677 
L 330.20007 177.735941 
L 330.34044 155.701639 
L 330.622382 190.589284 
L 330.763139 183.244516 
L 331.045963 163.046406 
L 331.195032 177.735941 
L 331.336544 210.787394 
L 331.478661 172.227365 
L 331.62059 169.515526 
L 331.761433 161.210214 
L 332.047243 189.713636 
L 332.188246 179.572133 
L 332.329506 181.408325 
L 332.470667 179.572133 
L 332.611276 174.063557 
L 332.752472 161.210214 
L 332.893088 190.589284 
L 333.033997 190.589284 
L 333.455985 159.374022 
L 333.596782 158.498375 
L 333.878364 201.606435 
L 334.302049 157.537831 
L 334.582763 197.934051 
L 334.864108 170.391173 
L 335.004581 164.882598 
L 335.145927 182.368869 
L 335.287084 170.391173 
L 335.428627 178.696485 
L 335.56956 172.227365 
L 335.85196 196.097859 
L 335.993077 158.498375 
L 336.133768 169.515526 
L 336.274828 166.71879 
L 336.415493 199.770243 
L 336.841092 166.71879 
L 336.982655 188.753092 
L 337.123954 181.408325 
L 337.265838 201.606435 
L 337.551186 159.374022 
L 337.835452 190.589284 
L 338.115896 174.063557 
L 338.256534 186.9169 
L 338.396841 174.063557 
L 338.537125 190.589284 
L 338.677385 186.9169 
L 338.817747 179.572133 
L 338.957923 197.934051 
L 339.238403 160.334567 
L 339.519515 184.205061 
L 339.660021 179.572133 
L 339.801271 164.882598 
L 339.942871 179.572133 
L 340.084578 182.368869 
L 340.227125 192.510372 
L 340.507605 175.024101 
L 340.648626 173.18791 
L 340.789335 156.662183 
L 341.070493 186.9169 
L 341.215747 186.9169 
L 341.356816 188.753092 
L 341.497631 188.753092 
L 341.638509 164.882598 
L 341.780032 192.425476 
L 341.920682 187.877444 
L 342.065679 352.174167 
L 342.213823 352.174167 
L 342.786715 137.322741 
L 342.927912 196.097859 
L 343.209729 163.046406 
L 343.632164 203.442627 
L 343.772454 176.860293 
L 343.917938 172.227365 
L 344.058561 183.244516 
L 344.199442 181.408325 
L 344.340818 190.589284 
L 344.763456 163.046406 
L 344.904605 181.408325 
L 345.045536 177.735941 
L 345.186394 177.735941 
L 345.328287 168.554982 
L 345.468896 179.572133 
L 345.609552 172.227365 
L 345.749826 180.532677 
L 345.89015 173.18791 
L 346.030901 175.899749 
L 346.172139 207.11501 
L 346.453511 161.210214 
L 346.595205 175.899749 
L 346.736436 175.024101 
L 346.877572 197.934051 
L 347.15981 169.515526 
L 347.30097 175.899749 
L 347.442297 174.063557 
L 347.583253 194.261668 
L 347.723785 172.227365 
L 347.864188 170.391173 
L 348.004933 163.046406 
L 348.145892 188.753092 
L 348.568289 174.063557 
L 348.708882 164.00695 
L 348.990271 179.572133 
L 349.130623 174.063557 
L 349.411813 183.244516 
L 349.69365 160.334567 
L 349.834368 170.391173 
L 349.975176 188.753092 
L 350.258078 172.227365 
L 350.398443 169.515526 
L 350.53892 183.244516 
L 350.679148 179.572133 
L 350.819421 171.351718 
L 351.099823 185.080708 
L 351.239849 164.882598 
L 351.379882 168.554982 
L 351.520548 168.554982 
L 351.660889 181.408325 
L 351.801335 181.408325 
L 351.941523 183.244516 
L 352.222214 166.71879 
L 352.502412 176.860293 
L 352.642622 190.589284 
L 353.06387 166.71879 
L 353.204166 186.9169 
L 353.485645 175.024101 
L 353.6267 175.899749 
L 353.767281 183.244516 
L 354.048559 161.210214 
L 354.189866 174.063557 
L 354.330254 205.278819 
L 354.611473 161.210214 
L 354.753214 164.00695 
L 354.893504 177.735941 
L 355.033665 169.515526 
L 355.174025 172.227365 
L 355.314261 168.554982 
L 355.454547 172.227365 
L 355.597363 168.554982 
L 355.744145 352.174167 
L 355.884293 352.174167 
L 356.024673 289.743644 
L 356.165578 166.71879 
L 356.446136 141.012104 
L 356.586318 166.71879 
L 356.726414 168.554982 
L 356.867003 183.244516 
L 357.007455 161.210214 
L 357.147905 185.080708 
L 357.429728 166.803686 
L 357.570519 174.063557 
L 357.711041 190.589284 
L 357.851764 164.882598 
L 357.992337 174.063557 
L 358.273632 164.882598 
L 358.414521 170.391173 
L 358.554649 186.9169 
L 358.837097 166.71879 
L 358.982742 173.18791 
L 359.126337 163.046406 
L 359.267099 190.589284 
L 359.547806 167.679334 
L 359.687893 170.391173 
L 359.828047 175.899749 
L 359.968899 153.865447 
L 360.108963 179.572133 
L 360.248815 157.537831 
L 360.38871 172.227365 
L 360.52874 166.71879 
L 360.668624 186.041252 
L 360.809444 171.351718 
L 361.09076 194.261668 
L 361.373218 179.572133 
L 361.51414 168.554982 
L 361.794482 188.753092 
L 361.936494 175.899749 
L 362.076484 175.024101 
L 362.217069 164.882598 
L 362.357276 178.696485 
L 362.497229 179.572133 
L 362.63718 182.368869 
L 362.779092 178.696485 
L 362.918976 190.589284 
L 363.058839 166.71879 
L 363.19862 168.554982 
L 363.338502 188.753092 
L 363.759065 176.860293 
L 363.899018 170.391173 
L 364.03956 170.391173 
L 364.179841 185.080708 
L 364.321493 184.205061 
L 364.466648 179.572133 
L 364.606589 164.882598 
L 364.746441 179.572133 
L 365.027273 157.537831 
L 365.167333 161.210214 
L 365.307246 175.899749 
L 365.588188 172.227365 
L 365.728175 175.899749 
L 365.868141 175.899749 
L 366.008721 186.9169 
L 366.148786 179.572133 
L 366.289068 159.374022 
L 366.428989 160.334567 
L 366.708859 188.753092 
L 366.989263 168.554982 
L 367.129136 163.046406 
L 367.40886 199.770243 
L 367.549464 166.71879 
L 367.689721 168.554982 
L 367.829758 166.71879 
L 367.969766 179.572133 
L 368.109898 170.391173 
L 368.249928 183.244516 
L 368.389825 181.408325 
L 368.529741 201.606435 
L 368.809709 157.537831 
L 369.234503 196.097859 
L 369.374545 352.174167 
L 369.520509 352.174167 
L 369.661405 306.26937 
L 369.942874 154.825991 
L 370.083162 174.063557 
L 370.224068 148.356871 
L 370.36449 174.063557 
L 370.505062 157.537831 
L 370.786868 185.080708 
L 370.927524 168.554982 
L 371.068103 168.554982 
L 371.20882 166.71879 
L 371.34933 175.024101 
L 371.489648 173.18791 
L 371.633807 177.735941 
L 371.920512 168.554982 
L 372.067504 171.351718 
L 372.356296 180.532677 
L 372.500256 168.554982 
L 372.640554 203.442627 
L 372.781566 166.71879 
L 373.063792 170.391173 
L 373.204753 177.735941 
L 373.345393 198.894595 
L 373.626513 166.71879 
L 373.908118 181.408325 
L 374.050087 175.899749 
L 374.190437 164.00695 
L 374.475004 174.063557 
L 374.755639 192.425476 
L 375.179113 161.210214 
L 375.461305 186.9169 
L 375.602426 192.425476 
L 375.743041 172.227365 
L 375.883955 201.606435 
L 376.024474 162.161056 
L 376.165511 165.843142 
L 376.447141 197.934051 
L 376.728471 166.71879 
L 376.869152 159.374022 
L 377.1507 185.080708 
L 377.290742 203.442627 
L 377.430815 175.899749 
L 377.571874 181.408325 
L 377.71277 167.679334 
L 377.85363 186.9169 
L 378.27674 175.899749 
L 378.558411 194.261668 
L 378.701414 180.532677 
L 378.842368 188.753092 
L 378.983807 179.572133 
L 379.267927 203.442627 
L 379.410051 153.865447 
L 379.555302 183.244516 
L 379.836363 197.934051 
L 380.1193 167.679334 
L 380.260256 175.899749 
L 380.406537 197.934051 
L 380.554037 197.934051 
L 380.695206 179.572133 
L 380.836507 175.899749 
L 380.977832 166.71879 
L 381.118543 190.589284 
L 381.259113 181.408325 
L 381.399365 193.38602 
L 381.539888 179.572133 
L 381.679989 191.549828 
L 381.820115 172.227365 
L 381.960476 189.713636 
L 382.101456 188.753092 
L 382.242563 178.696485 
L 382.523638 188.753092 
L 382.665098 172.227365 
L 382.805521 190.589284 
L 382.945851 177.735941 
L 383.086036 352.174167 
L 383.232323 352.174167 
L 383.379879 308.105562 
L 383.664724 146.520679 
L 383.805404 162.161056 
L 383.946144 155.701639 
L 384.086668 186.9169 
L 384.367819 164.00695 
L 384.789889 187.877444 
L 384.932736 163.046406 
L 385.075085 161.159276 
L 385.218828 155.701639 
L 385.35905 161.210214 
L 385.499865 188.753092 
L 385.780413 174.063557 
L 385.920864 164.882598 
L 386.061579 170.391173 
L 386.202281 205.278819 
L 386.343018 173.18791 
L 386.483217 168.554982 
L 386.623421 157.537831 
L 386.76363 177.735941 
L 386.903906 174.063557 
L 387.043918 175.024101 
L 387.183873 190.589284 
L 387.323791 177.735941 
L 387.464696 182.368869 
L 387.605477 169.515526 
L 387.745753 172.227365 
L 387.886101 172.227365 
L 388.171564 181.408325 
L 388.312481 205.278819 
L 388.453319 155.701639 
L 388.594483 159.374022 
L 388.735228 168.554982 
L 388.875359 186.9169 
L 389.01669 172.227365 
L 389.298512 186.9169 
L 389.439253 172.227365 
L 389.579915 173.18791 
L 389.720164 185.080708 
L 389.860922 185.080708 
L 390.282941 159.374022 
L 390.563509 190.589284 
L 390.986835 165.843142 
L 391.128086 167.679334 
L 391.410682 190.589284 
L 391.552193 178.696485 
L 391.693479 193.38602 
L 391.835734 170.391173 
L 391.976878 167.679334 
L 392.117182 197.934051 
L 392.68188 177.735941 
L 392.822031 177.735941 
L 392.963805 190.589284 
L 393.104328 184.205061 
L 393.245293 188.753092 
L 393.528266 168.554982 
L 393.808695 190.589284 
L 394.089483 169.515526 
L 394.23018 173.18791 
L 394.371568 181.408325 
L 394.512418 168.554982 
L 394.653033 175.024101 
L 394.793656 166.71879 
L 394.933989 203.442627 
L 395.074089 164.882598 
L 395.214572 168.554982 
L 395.35556 177.735941 
L 395.496236 179.572133 
L 395.780178 161.210214 
L 395.920465 168.554982 
L 396.202449 188.753092 
L 396.483768 161.210214 
L 396.6245 170.391173 
L 396.764975 352.174167 
L 396.908155 352.174167 
L 397.053758 302.596987 
L 397.334624 141.012104 
L 397.476039 144.684488 
L 397.756445 190.589284 
L 397.898021 177.735941 
L 398.039299 175.899749 
L 398.180662 159.374022 
L 398.461486 183.244516 
L 398.601668 190.589284 
L 398.742559 185.080708 
L 398.884343 184.205061 
L 399.026012 172.227365 
L 399.167913 185.080708 
L 399.308157 183.244516 
L 399.449111 175.899749 
L 399.590075 175.899749 
L 399.730541 174.063557 
L 399.874103 174.063557 
L 400.014481 170.391173 
L 400.154729 183.244516 
L 400.295673 166.71879 
L 400.435836 166.71879 
L 400.575877 161.210214 
L 400.715989 186.9169 
L 400.856816 161.210214 
L 401.138957 178.696485 
L 401.426942 185.080708 
L 401.569085 155.701639 
L 401.710447 163.046406 
L 401.993725 183.244516 
L 402.288711 157.537831 
L 402.569675 201.606435 
L 402.710119 168.554982 
L 402.851122 168.554982 
L 402.991639 158.498375 
L 403.273106 169.515526 
L 403.413757 172.227365 
L 403.555025 179.572133 
L 403.839419 175.899749 
L 403.982944 168.554982 
L 404.123386 186.999371 
L 404.264743 177.735941 
L 404.405736 177.735941 
L 404.546267 183.244516 
L 404.82881 164.882598 
L 405.11103 194.261668 
L 405.53575 164.00695 
L 405.676511 174.063557 
L 405.817293 199.770243 
L 405.959014 182.368869 
L 406.099483 179.572133 
L 406.241121 166.71879 
L 406.531552 199.770243 
L 406.824696 163.046406 
L 406.965294 192.425476 
L 407.106227 148.356871 
L 407.246595 172.227365 
L 407.387421 159.374022 
L 407.528619 188.753092 
L 407.813498 171.351718 
L 408.095634 183.244516 
L 408.236285 186.9169 
L 408.658307 167.679334 
L 409.080295 194.261668 
L 409.361776 156.662183 
L 409.501981 164.882598 
L 409.642312 192.425476 
L 410.06447 155.701639 
L 410.205272 174.063557 
L 410.494613 352.174167 
L 410.642787 352.174167 
L 410.932182 145.645032 
L 411.212509 174.063557 
L 411.353352 183.244516 
L 411.635299 169.515526 
L 411.776439 172.227365 
L 412.05759 179.572133 
L 412.197944 175.899749 
L 412.339633 188.753092 
L 412.481256 183.244516 
L 412.622707 169.515526 
L 412.763557 179.572133 
L 413.044582 183.244516 
L 413.184742 183.244516 
L 413.324953 170.391173 
L 413.465147 170.391173 
L 413.745751 188.753092 
L 413.885956 190.589284 
L 414.16678 164.882598 
L 414.448672 190.589284 
L 414.86972 174.063557 
L 415.012428 186.9169 
L 415.152654 161.210214 
L 415.293404 186.041252 
L 415.574642 196.097859 
L 415.857597 176.860293 
L 415.999798 174.063557 
L 416.141967 177.735941 
L 416.282232 188.753092 
L 416.422466 179.572133 
L 416.562747 187.877444 
L 416.843732 167.679334 
L 417.267603 182.368869 
L 417.408034 168.554982 
L 417.549679 178.696485 
L 417.690474 170.391173 
L 417.971899 186.9169 
L 418.254276 182.368869 
L 418.395158 163.046406 
L 418.678463 188.753092 
L 418.819782 186.041252 
L 419.102301 160.334567 
L 419.38773 186.9169 
L 419.957707 176.860293 
L 420.099592 170.391173 
L 420.523648 190.589284 
L 420.663824 184.205061 
L 420.803854 183.244516 
L 420.945003 186.9169 
L 421.085627 176.860293 
L 421.225805 179.572133 
L 421.507626 196.097859 
L 421.64873 175.024101 
L 421.79066 179.572133 
L 421.932251 179.572133 
L 422.072767 191.549828 
L 422.354626 163.046406 
L 422.638588 194.261668 
L 422.779185 168.554982 
L 422.920233 167.679334 
L 423.060866 160.334567 
L 423.201759 161.210214 
L 423.342538 175.899749 
L 423.484523 177.735941 
L 423.627298 170.391173 
L 423.773513 190.589284 
L 423.916158 160.334567 
L 424.059253 352.174167 
L 424.203993 352.174167 
L 424.352546 322.795097 
L 424.634397 161.210214 
L 424.775431 152.029255 
L 424.917055 161.210214 
L 425.058696 190.589284 
L 425.19995 161.210214 
L 425.622417 183.244516 
L 425.90592 175.899749 
L 426.046948 159.374022 
L 426.189154 178.696485 
L 426.331583 179.572133 
L 426.617703 161.210214 
L 426.757912 164.882598 
L 426.899516 181.408325 
L 427.180548 177.735941 
L 427.322346 179.572133 
L 427.46293 179.572133 
L 427.604829 176.860293 
L 427.747024 161.210214 
L 428.030319 183.244516 
L 428.171424 181.408325 
L 428.312669 169.515526 
L 428.453395 181.408325 
L 428.593668 166.71879 
L 428.735066 172.227365 
L 428.876622 172.227365 
L 429.017881 157.537831 
L 429.299178 190.589284 
L 429.441328 172.227365 
L 429.582679 168.554982 
L 429.723023 170.391173 
L 429.864545 169.515526 
L 430.005528 175.024101 
L 430.290394 157.537831 
L 430.715357 183.244516 
L 430.997891 164.882598 
L 431.138594 166.71879 
L 431.279838 175.024101 
L 431.563672 170.391173 
L 431.70449 179.572133 
L 431.846227 163.046406 
L 432.130165 183.244516 
L 432.414692 176.860293 
L 432.555834 177.735941 
L 432.697679 159.374022 
L 432.981408 177.735941 
L 433.121556 191.549828 
L 433.404561 162.161056 
L 433.686215 165.843142 
L 433.967069 188.753092 
L 434.251188 165.843142 
L 434.391961 192.425476 
L 434.674592 168.554982 
L 434.959536 192.425476 
L 435.102122 164.882598 
L 435.384929 175.899749 
L 435.524879 172.227365 
L 435.669472 183.244516 
L 435.809894 161.210214 
L 435.95415 182.368869 
L 436.096537 186.9169 
L 436.238003 170.391173 
L 436.378451 174.063557 
L 436.661463 171.351718 
L 437.089004 178.696485 
L 437.230459 194.261668 
L 437.512286 159.374022 
L 437.655037 166.71879 
L 437.798702 352.174167 
L 437.945191 352.174167 
L 438.370836 144.684488 
L 438.653335 179.572133 
L 438.936594 168.554982 
L 439.080442 168.554982 
L 439.221742 181.408325 
L 439.3634 159.374022 
L 439.504249 164.882598 
L 439.786759 183.244516 
L 439.927577 166.71879 
L 440.068432 185.080708 
L 440.208884 175.899749 
L 440.349943 186.041252 
L 440.490781 174.063557 
L 440.631748 179.572133 
L 440.772664 179.572133 
L 440.913894 191.549828 
L 441.058996 186.9169 
L 441.20393 186.9169 
L 441.348781 184.205061 
L 441.493638 189.713636 
L 441.637151 172.227365 
L 442.057971 198.894595 
L 442.338911 172.227365 
L 442.479148 174.063557 
L 442.619486 201.606435 
L 443.040125 155.701639 
L 443.322005 187.877444 
L 443.463036 183.244516 
L 443.603177 174.063557 
L 443.744818 186.9169 
L 443.885069 171.351718 
L 444.026086 181.408325 
L 444.16701 170.391173 
L 444.307973 186.9169 
L 444.589186 161.210214 
L 444.729512 163.046406 
L 444.8697 185.080708 
L 445.01032 170.391173 
L 445.151203 174.063557 
L 445.292215 166.71879 
L 445.434206 168.554982 
L 445.714991 194.261668 
L 445.85518 161.210214 
L 445.995946 168.554982 
L 446.136215 183.244516 
L 446.276418 174.063557 
L 446.418925 181.408325 
L 446.55995 175.899749 
L 446.700177 175.899749 
L 446.840464 178.696485 
L 446.980676 166.71879 
L 447.262019 189.713636 
L 447.402941 190.589284 
L 447.543277 168.554982 
L 447.685317 170.391173 
L 447.825514 161.210214 
L 447.965626 185.080708 
L 448.105846 183.244516 
L 448.245996 178.696485 
L 448.386328 169.515526 
L 448.526456 179.572133 
L 448.666497 169.515526 
L 448.946825 190.589284 
L 449.087651 175.899749 
L 449.368372 186.9169 
L 449.508601 168.554982 
L 449.930155 191.549828 
L 450.07077 167.679334 
L 450.211652 185.080708 
L 450.352341 174.063557 
L 450.493185 177.735941 
L 450.63442 174.063557 
L 450.775084 177.735941 
L 450.915844 163.046406 
L 451.198248 174.063557 
L 451.338939 196.097859 
L 451.479821 352.174167 
L 451.629731 352.174167 
L 452.059516 153.865447 
L 452.201343 170.391173 
L 452.342989 164.882598 
L 452.483524 187.877444 
L 452.625162 163.046406 
L 452.765459 175.899749 
L 452.907104 170.391173 
L 453.048879 186.041252 
L 453.189745 163.046406 
L 453.331163 163.046406 
L 453.613189 188.753092 
L 453.754289 173.18791 
L 453.895186 174.063557 
L 454.03615 170.391173 
L 454.176144 188.753092 
L 454.457984 157.537831 
L 454.741271 192.425476 
L 455.023298 172.227365 
L 455.164315 177.735941 
L 455.305178 175.899749 
L 455.587073 186.9169 
L 455.730802 165.843142 
L 456.012217 175.899749 
L 456.152668 169.515526 
L 456.293014 186.9169 
L 456.433499 186.9169 
L 456.575968 153.865447 
L 456.717324 164.882598 
L 456.858026 157.537831 
L 457.141177 181.408325 
L 457.282527 176.860293 
L 457.423108 166.71879 
L 457.563739 175.024101 
L 457.704879 174.063557 
L 457.845842 183.244516 
L 457.986691 177.735941 
L 458.126689 179.572133 
L 458.267786 188.753092 
L 458.409315 157.537831 
L 458.549703 159.374022 
L 458.831055 177.735941 
L 458.971705 176.860293 
L 459.112345 156.662183 
L 459.395559 186.041252 
L 459.536289 203.442627 
L 459.677179 179.572133 
L 459.818908 179.572133 
L 459.959149 164.882598 
L 460.240497 172.227365 
L 460.381638 199.770243 
L 460.663442 164.882598 
L 460.945287 186.9169 
L 461.08649 167.679334 
L 461.227898 168.554982 
L 461.368233 168.554982 
L 461.509226 183.244516 
L 461.791229 166.71879 
L 461.93215 161.210214 
L 462.073068 203.442627 
L 462.354666 166.71879 
L 462.495388 170.391173 
L 462.637457 181.408325 
L 462.777989 174.063557 
L 462.919101 174.063557 
L 463.060437 162.161056 
L 463.201935 183.244516 
L 463.344729 174.063557 
L 463.630329 170.391173 
L 463.914941 188.753092 
L 464.196346 159.374022 
L 464.336942 185.080708 
L 464.477663 161.210214 
L 464.61834 163.046406 
L 464.900266 177.735941 
L 465.046057 230.985505 
L 465.192885 352.174167 
L 465.342829 352.174167 
L 465.493322 282.398876 
L 465.63485 146.520679 
L 465.776828 152.029255 
L 465.917643 150.193063 
L 466.199192 185.080708 
L 466.340447 185.080708 
L 466.484864 157.537831 
L 466.768482 183.244516 
L 466.908725 188.753092 
L 467.049847 186.9169 
L 467.190242 168.554982 
L 467.472324 173.18791 
L 467.753803 163.046406 
L 468.035619 175.024101 
L 468.175897 166.71879 
L 468.316129 172.227365 
L 468.457143 173.18791 
L 468.598658 197.934051 
L 468.739346 168.554982 
L 468.880621 168.554982 
L 469.023545 181.408325 
L 469.164667 164.00695 
L 469.304837 185.080708 
L 469.586008 168.554982 
L 469.72787 186.9169 
L 469.868425 166.71879 
L 470.010679 167.679334 
L 470.157797 174.063557 
L 470.298819 170.391173 
L 470.444634 194.261668 
L 470.584894 159.374022 
L 471.007246 188.753092 
L 471.148409 157.537831 
L 471.289371 163.046406 
L 471.430372 163.046406 
L 471.711984 196.097859 
L 471.854476 167.679334 
L 471.995699 164.882598 
L 472.13613 177.735941 
L 472.276412 167.679334 
L 472.416842 172.227365 
L 472.55687 181.408325 
L 472.69752 163.046406 
L 472.838708 186.041252 
L 473.124901 166.71879 
L 473.26572 168.554982 
L 473.405988 172.227365 
L 473.546579 167.679334 
L 473.687552 196.097859 
L 473.828962 163.046406 
L 473.970433 159.374022 
L 474.253377 186.9169 
L 474.396771 168.554982 
L 474.682948 161.210214 
L 474.827555 175.899749 
L 474.972327 175.899749 
L 475.114508 166.71879 
L 475.25633 168.554982 
L 475.396741 161.210214 
L 475.677576 174.063557 
L 475.823906 165.843142 
L 475.965715 182.368869 
L 476.108785 163.046406 
L 476.252671 172.227365 
L 476.395124 170.391173 
L 476.53632 173.18791 
L 476.678252 172.227365 
L 476.819407 166.71879 
L 476.960021 180.532677 
L 477.102417 161.210214 
L 477.243378 168.554982 
L 477.384864 164.882598 
L 477.525468 196.097859 
L 477.667345 168.554982 
L 477.809866 204.386192 
L 477.95202 153.865447 
L 478.233851 175.899749 
L 478.520297 170.391173 
L 478.660326 188.753092 
L 478.804801 352.174167 
L 478.951161 352.174167 
L 479.094963 311.777946 
L 479.380373 153.865447 
L 479.522127 168.554982 
L 479.662679 155.701639 
L 479.805184 185.080708 
L 480.089986 164.00695 
L 480.376337 174.063557 
L 480.518544 177.735941 
L 480.658694 166.71879 
L 480.800613 179.572133 
L 480.942052 168.554982 
L 481.083983 181.408325 
L 481.224865 166.71879 
L 481.648699 194.261668 
L 481.789904 174.063557 
L 481.93155 175.899749 
L 482.072352 175.899749 
L 482.212601 181.408325 
L 482.352706 179.572133 
L 482.49495 164.882598 
L 482.636191 177.735941 
L 482.778892 168.554982 
L 482.918997 177.735941 
L 483.060719 177.735941 
L 483.202098 175.899749 
L 483.624465 163.046406 
L 483.767073 169.515526 
L 484.049077 188.753092 
L 484.191222 163.046406 
L 484.474051 177.735941 
L 484.61454 177.735941 
L 484.896986 167.679334 
L 485.037936 168.554982 
L 485.322501 174.063557 
L 485.464712 183.244516 
L 485.604882 181.408325 
L 485.747124 171.351718 
L 485.888137 181.408325 
L 486.028563 166.71879 
L 486.169971 186.041252 
L 486.310569 179.572133 
L 486.454477 179.572133 
L 486.595566 166.71879 
L 487.021111 196.097859 
L 487.161757 192.425476 
L 487.447648 166.803686 
L 487.731854 174.063557 
L 487.874245 185.080708 
L 488.015406 170.391173 
L 488.155943 177.735941 
L 488.296621 175.024101 
L 488.438541 180.532677 
L 488.57901 175.899749 
L 488.720476 188.753092 
L 488.861937 190.589284 
L 489.003238 158.498375 
L 489.56895 183.244516 
L 489.850933 171.351718 
L 489.991918 189.713636 
L 490.134213 164.882598 
L 490.276635 181.408325 
L 490.418711 175.899749 
L 490.560208 193.38602 
L 490.701315 163.046406 
L 490.982503 168.554982 
L 491.125063 208.951202 
L 491.266281 166.71879 
L 491.40719 162.161056 
L 491.549423 163.046406 
L 491.689777 185.080708 
L 491.83344 175.024101 
L 491.977299 178.696485 
L 492.117802 172.227365 
L 492.25844 190.589284 
L 492.548413 352.174167 
L 492.695359 352.174167 
L 492.982645 134.627881 
L 493.412999 179.572133 
L 493.554777 175.899749 
L 493.697986 186.9169 
L 493.840629 161.210214 
L 494.126756 180.532677 
L 494.268392 181.408325 
L 494.551022 161.210214 
L 494.835513 175.899749 
L 494.975988 197.058404 
L 495.25909 163.046406 
L 495.400368 179.572133 
L 495.542485 169.515526 
L 495.685446 185.080708 
L 495.826774 185.080708 
L 495.969054 184.205061 
L 496.110921 166.71879 
L 496.25269 167.679334 
L 496.685214 198.894595 
L 496.826065 169.515526 
L 496.966573 186.9169 
L 497.108477 186.041252 
L 497.249151 194.261668 
L 497.390691 179.572133 
L 497.531999 183.244516 
L 497.672868 172.227365 
L 497.815777 190.589284 
L 497.956407 177.735941 
L 498.097444 186.9169 
L 498.238453 159.374022 
L 498.379685 153.865447 
L 498.522787 175.024101 
L 498.665127 178.696485 
L 498.805595 190.589284 
L 498.946059 186.041252 
L 499.086394 199.770243 
L 499.227149 175.899749 
L 499.367582 172.227365 
L 499.507872 172.227365 
L 499.790049 192.425476 
L 499.930482 177.735941 
L 500.070989 176.860293 
L 500.211766 181.408325 
L 500.352313 192.425476 
L 500.634197 163.046406 
L 500.775353 185.080708 
L 500.916383 166.71879 
L 501.057111 179.572133 
L 501.198422 179.572133 
L 501.339264 203.442627 
L 501.762326 162.161056 
L 502.044611 183.244516 
L 502.185734 180.532677 
L 502.326779 180.532677 
L 502.470082 155.701639 
L 502.611098 152.029255 
L 502.892026 191.549828 
L 503.032155 188.753092 
L 503.172457 172.227365 
L 503.312685 175.899749 
L 503.452974 164.00695 
L 503.874878 185.080708 
L 504.015429 183.244516 
L 504.157123 179.572133 
L 504.299161 179.572133 
L 504.441188 180.532677 
L 504.583564 182.368869 
L 504.725866 174.063557 
L 504.867979 179.572133 
L 505.009849 168.554982 
L 505.156839 180.532677 
L 505.298397 203.442627 
L 505.579731 166.71879 
L 505.720349 166.71879 
L 505.861648 194.261668 
L 506.003357 169.515526 
L 506.14345 352.174167 
L 506.285375 352.174167 
L 506.853783 148.356871 
L 507.134733 174.063557 
L 507.275767 172.227365 
L 507.416507 188.753092 
L 507.557246 183.244516 
L 507.698534 170.391173 
L 507.839753 177.735941 
L 508.120967 170.391173 
L 508.401624 192.425476 
L 508.542344 168.554982 
L 508.825761 166.71879 
L 508.966768 174.063557 
L 509.108193 194.261668 
L 509.389841 154.825991 
L 509.671182 196.097859 
L 509.811681 168.554982 
L 509.951952 168.554982 
L 510.092241 170.391173 
L 510.232308 175.024101 
L 510.372433 174.063557 
L 510.513048 164.882598 
L 510.653271 177.735941 
L 510.933587 177.735941 
L 511.073882 176.860293 
L 511.2147 172.227365 
L 511.355244 163.046406 
L 511.495738 199.770243 
L 511.777314 175.899749 
L 511.917841 175.899749 
L 512.058532 172.227365 
L 512.199294 174.063557 
L 512.343111 191.549828 
L 512.624243 159.374022 
L 512.764753 175.899749 
L 512.905447 165.843142 
L 513.046129 177.735941 
L 513.608978 165.843142 
L 513.749607 166.71879 
L 514.031092 188.753092 
L 514.171699 186.9169 
L 514.312371 170.391173 
L 514.453438 170.391173 
L 514.594309 164.882598 
L 514.734722 177.735941 
L 514.875319 179.572133 
L 515.015614 191.549828 
L 515.156375 173.18791 
L 515.297012 192.425476 
L 515.4376 168.554982 
L 515.578176 177.735941 
L 515.718753 163.046406 
L 515.85982 192.425476 
L 516.000473 163.046406 
L 516.14404 164.882598 
L 516.425131 207.11501 
L 516.706872 168.554982 
L 516.847429 174.063557 
L 516.987746 192.425476 
L 517.128444 172.227365 
L 517.410018 175.899749 
L 517.550577 181.408325 
L 517.690856 197.934051 
L 517.831673 166.71879 
L 518.113334 199.770243 
L 518.394618 161.210214 
L 518.676712 192.425476 
L 519.239134 166.71879 
L 519.379503 168.554982 
L 519.66123 204.386192 
L 519.802186 352.174167 
L 519.950448 352.174167 
L 520.238853 232.821696 
L 520.379249 162.161056 
L 520.521677 155.701639 
L 520.662027 172.227365 
L 520.802981 162.161056 
L 521.083711 185.080708 
L 521.226057 164.00695 
L 521.367535 164.882598 
L 521.508281 164.882598 
L 521.649723 192.425476 
L 521.649723 192.425476 
" style="fill:none;stroke:#1f77b4;stroke-linecap:square;stroke-width:1.5;"/>
   </g>
   <g id="patch_3">
    <path d="M 120.878594 352.174167 
L 120.878594 35.0625 
" style="fill:none;stroke:#000000;stroke-linecap:square;stroke-linejoin:miter;stroke-width:0.8;"/>
   </g>
   <g id="patch_4">
    <path d="M 540.734062 352.174167 
L 540.734062 35.0625 
" style="fill:none;stroke:#000000;stroke-linecap:square;stroke-linejoin:miter;stroke-width:0.8;"/>
   </g>
   <g id="patch_5">
    <path d="M 120.878594 352.174167 
L 540.734062 352.174167 
" style="fill:none;stroke:#000000;stroke-linecap:square;stroke-linejoin:miter;stroke-width:0.8;"/>
   </g>
   <g id="patch_6">
    <path d="M 120.878594 35.0625 
L 540.734062 35.0625 
" style="fill:none;stroke:#000000;stroke-linecap:square;stroke-linejoin:miter;stroke-width:0.8;"/>
   </g>
   <g id="legend_1">
    <g id="patch_7">
     <path d="M 563.726836 63.938438 
L 627.601836 63.938438 
Q 629.601836 63.938438 629.601836 61.938438 
L 629.601836 37.0625 
Q 629.601836 35.0625 627.601836 35.0625 
L 563.726836 35.0625 
Q 561.726836 35.0625 561.726836 37.0625 
L 561.726836 61.938438 
Q 561.726836 63.938438 563.726836 63.938438 
z
" style="fill:#ffffff;opacity:0.8;stroke:#cccccc;stroke-linejoin:miter;"/>
    </g>
    <g id="line2d_15">
     <path d="M 565.726836 49.799688 
L 585.726836 49.799688 
" style="fill:none;stroke:#1f77b4;stroke-linecap:square;stroke-width:1.5;"/>
    </g>
    <g id="line2d_16"/>
    <g id="text_15">
     <!-- queue -->
     <g transform="translate(593.726836 46.660937)scale(0.1 -0.1)">
      <use xlink:href="#DejaVuSans-113"/>
      <use x="63.476562" xlink:href="#DejaVuSans-117"/>
      <use x="126.855469" xlink:href="#DejaVuSans-101"/>
      <use x="188.378906" xlink:href="#DejaVuSans-117"/>
      <use x="251.757812" xlink:href="#DejaVuSans-101"/>
     </g>
     <!-- length -->
     <defs>
      <path d="M 9.421875 75.984375 
L 18.40625 75.984375 
L 18.40625 0 
L 9.421875 0 
z
" id="DejaVuSans-108"/>
      <path d="M 54.890625 33.015625 
L 54.890625 0 
L 45.90625 0 
L 45.90625 32.71875 
Q 45.90625 40.484375 42.875 44.328125 
Q 39.84375 48.1875 33.796875 48.1875 
Q 26.515625 48.1875 22.3125 43.546875 
Q 18.109375 38.921875 18.109375 30.90625 
L 18.109375 0 
L 9.078125 0 
L 9.078125 54.6875 
L 18.109375 54.6875 
L 18.109375 46.1875 
Q 21.34375 51.125 25.703125 53.5625 
Q 30.078125 56 35.796875 56 
Q 45.21875 56 50.046875 50.171875 
Q 54.890625 44.34375 54.890625 33.015625 
z
" id="DejaVuSans-110"/>
      <path d="M 45.40625 27.984375 
Q 45.40625 37.75 41.375 43.109375 
Q 37.359375 48.484375 30.078125 48.484375 
Q 22.859375 48.484375 18.828125 43.109375 
Q 14.796875 37.75 14.796875 27.984375 
Q 14.796875 18.265625 18.828125 12.890625 
Q 22.859375 7.515625 30.078125 7.515625 
Q 37.359375 7.515625 41.375 12.890625 
Q 45.40625 18.265625 45.40625 27.984375 
z
M 54.390625 6.78125 
Q 54.390625 -7.171875 48.1875 -13.984375 
Q 42 -20.796875 29.203125 -20.796875 
Q 24.46875 -20.796875 20.265625 -20.09375 
Q 16.0625 -19.390625 12.109375 -17.921875 
L 12.109375 -9.1875 
Q 16.0625 -11.328125 19.921875 -12.34375 
Q 23.78125 -13.375 27.78125 -13.375 
Q 36.625 -13.375 41.015625 -8.765625 
Q 45.40625 -4.15625 45.40625 5.171875 
L 45.40625 9.625 
Q 42.625 4.78125 38.28125 2.390625 
Q 33.9375 0 27.875 0 
Q 17.828125 0 11.671875 7.65625 
Q 5.515625 15.328125 5.515625 27.984375 
Q 5.515625 40.671875 11.671875 48.328125 
Q 17.828125 56 27.875 56 
Q 33.9375 56 38.28125 53.609375 
Q 42.625 51.21875 45.40625 46.390625 
L 45.40625 54.6875 
L 54.390625 54.6875 
z
" id="DejaVuSans-103"/>
      <path d="M 54.890625 33.015625 
L 54.890625 0 
L 45.90625 0 
L 45.90625 32.71875 
Q 45.90625 40.484375 42.875 44.328125 
Q 39.84375 48.1875 33.796875 48.1875 
Q 26.515625 48.1875 22.3125 43.546875 
Q 18.109375 38.921875 18.109375 30.90625 
L 18.109375 0 
L 9.078125 0 
L 9.078125 75.984375 
L 18.109375 75.984375 
L 18.109375 46.1875 
Q 21.34375 51.125 25.703125 53.5625 
Q 30.078125 56 35.796875 56 
Q 45.21875 56 50.046875 50.171875 
Q 54.890625 44.34375 54.890625 33.015625 
z
" id="DejaVuSans-104"/>
     </defs>
     <g transform="translate(593.726836 57.85875)scale(0.1 -0.1)">
      <use xlink:href="#DejaVuSans-108"/>
      <use x="27.783203" xlink:href="#DejaVuSans-101"/>
      <use x="89.306641" xlink:href="#DejaVuSans-110"/>
      <use x="152.685547" xlink:href="#DejaVuSans-103"/>
      <use x="216.162109" xlink:href="#DejaVuSans-116"/>
      <use x="255.371094" xlink:href="#DejaVuSans-104"/>
     </g>
    </g>
   </g>
  </g>
  <g id="text_16">
   <!-- result queue (bytes) -->
   <defs>
    <path d="M 41.109375 46.296875 
Q 39.59375 47.171875 37.8125 47.578125 
Q 36.03125 48 33.890625 48 
Q 26.265625 48 22.1875 43.046875 
Q 18.109375 38.09375 18.109375 28.8125 
L 18.109375 0 
L 9.078125 0 
L 9.078125 54.6875 
L 18.109375 54.6875 
L 18.109375 46.1875 
Q 20.953125 51.171875 25.484375 53.578125 
Q 30.03125 56 36.53125 56 
Q 37.453125 56 38.578125 55.875 
Q 39.703125 55.765625 41.0625 55.515625 
z
" id="DejaVuSans-114"/>
    <path id="DejaVuSans-32"/>
   </defs>
   <g transform="translate(281.072812 17.038125)scale(0.12 -0.12)">
    <use xlink:href="#DejaVuSans-114"/>
    <use x="41.082031" xlink:href="#DejaVuSans-101"/>
    <use x="102.605469" xlink:href="#DejaVuSans-115"/>
    <use x="154.705078" xlink:href="#DejaVuSans-117"/>
    <use x="218.083984" xlink:href="#DejaVuSans-108"/>
    <use x="245.867188" xlink:href="#DejaVuSans-116"/>
    <use x="285.076172" xlink:href="#DejaVuSans-32"/>
    <use x="316.863281" xlink:href="#DejaVuSans-113"/>
    <use x="380.339844" xlink:href="#DejaVuSans-117"/>
    <use x="443.71875" xlink:href="#DejaVuSans-101"/>
    <use x="505.242188" xlink:href="#DejaVuSans-117"/>
    <use x="568.621094" xlink:href="#DejaVuSans-101"/>
    <use x="630.144531" xlink:href="#DejaVuSans-32"/>
    <use x="661.931641" xlink:href="#DejaVuSans-40"/>
    <use x="700.945312" xlink:href="#DejaVuSans-98"/>
    <use x="764.421875" xlink:href="#DejaVuSans-121"/>
    <use x="823.601562" xlink:href="#DejaVuSans-116"/>
    <use x="862.810547" xlink:href="#DejaVuSans-101"/>
    <use x="924.333984" xlink:href="#DejaVuSans-115"/>
    <use x="976.433594" xlink:href="#DejaVuSans-41"/>
   </g>
  </g>
 </g>
 <defs>
  <clipPath id="p32256d40b5">
   <rect height="317.111667" width="419.855469" x="120.878594" y="35.0625"/>
  </clipPath>
 </defs>
</svg>
