<?xml version="1.0" encoding="utf-8" standalone="no"?>
<!DOCTYPE svg PUBLIC "-//W3C//DTD SVG 1.1//EN"
  "http://www.w3.org/Graphics/SVG/1.1/DTD/svg11.dtd">
<!-- Created with matplotlib (https://matplotlib.org/) -->
<svg height="396pt" version="1.1" viewBox="0 0 684 396" width="684pt" xmlns="http://www.w3.org/2000/svg" xmlns:xlink="http://www.w3.org/1999/xlink">
 <defs>
  <style type="text/css">
*{stroke-linecap:butt;stroke-linejoin:round;}
  </style>
 </defs>
 <g id="figure_1">
  <g id="patch_1">
   <path d="M 0 396 
L 684 396 
L 684 0 
L 0 0 
z
" style="fill:#ffffff;"/>
  </g>
  <g id="axes_1">
   <g id="patch_2">
    <path d="M 111.527031 352.174167 
L 540.734062 352.174167 
L 540.734062 35.0625 
L 111.527031 35.0625 
z
" style="fill:#ffffff;"/>
   </g>
   <g id="matplotlib.axis_1">
    <g id="xtick_1">
     <g id="line2d_1">
      <defs>
       <path d="M 0 0 
L 0 3.5 
" id="m88ada3b954" style="stroke:#000000;stroke-width:0.8;"/>
      </defs>
      <g>
       <use style="stroke:#000000;stroke-width:0.8;" x="135.919354" xlink:href="#m88ada3b954" y="352.174167"/>
      </g>
     </g>
     <g id="text_1">
      <!-- 0 -->
      <defs>
       <path d="M 31.78125 66.40625 
Q 24.171875 66.40625 20.328125 58.90625 
Q 16.5 51.421875 16.5 36.375 
Q 16.5 21.390625 20.328125 13.890625 
Q 24.171875 6.390625 31.78125 6.390625 
Q 39.453125 6.390625 43.28125 13.890625 
Q 47.125 21.390625 47.125 36.375 
Q 47.125 51.421875 43.28125 58.90625 
Q 39.453125 66.40625 31.78125 66.40625 
z
M 31.78125 74.21875 
Q 44.046875 74.21875 50.515625 64.515625 
Q 56.984375 54.828125 56.984375 36.375 
Q 56.984375 17.96875 50.515625 8.265625 
Q 44.046875 -1.421875 31.78125 -1.421875 
Q 19.53125 -1.421875 13.0625 8.265625 
Q 6.59375 17.96875 6.59375 36.375 
Q 6.59375 54.828125 13.0625 64.515625 
Q 19.53125 74.21875 31.78125 74.21875 
z
" id="DejaVuSans-48"/>
      </defs>
      <g transform="translate(132.738104 366.772604)scale(0.1 -0.1)">
       <use xlink:href="#DejaVuSans-48"/>
      </g>
     </g>
    </g>
    <g id="xtick_2">
     <g id="line2d_2">
      <g>
       <use style="stroke:#000000;stroke-width:0.8;" x="203.044522" xlink:href="#m88ada3b954" y="352.174167"/>
      </g>
     </g>
     <g id="text_2">
      <!-- 50 -->
      <defs>
       <path d="M 10.796875 72.90625 
L 49.515625 72.90625 
L 49.515625 64.59375 
L 19.828125 64.59375 
L 19.828125 46.734375 
Q 21.96875 47.46875 24.109375 47.828125 
Q 26.265625 48.1875 28.421875 48.1875 
Q 40.625 48.1875 47.75 41.5 
Q 54.890625 34.8125 54.890625 23.390625 
Q 54.890625 11.625 47.5625 5.09375 
Q 40.234375 -1.421875 26.90625 -1.421875 
Q 22.3125 -1.421875 17.546875 -0.640625 
Q 12.796875 0.140625 7.71875 1.703125 
L 7.71875 11.625 
Q 12.109375 9.234375 16.796875 8.0625 
Q 21.484375 6.890625 26.703125 6.890625 
Q 35.15625 6.890625 40.078125 11.328125 
Q 45.015625 15.765625 45.015625 23.390625 
Q 45.015625 31 40.078125 35.4375 
Q 35.15625 39.890625 26.703125 39.890625 
Q 22.75 39.890625 18.8125 39.015625 
Q 14.890625 38.140625 10.796875 36.28125 
z
" id="DejaVuSans-53"/>
      </defs>
      <g transform="translate(196.682022 366.772604)scale(0.1 -0.1)">
       <use xlink:href="#DejaVuSans-53"/>
       <use x="63.623047" xlink:href="#DejaVuSans-48"/>
      </g>
     </g>
    </g>
    <g id="xtick_3">
     <g id="line2d_3">
      <g>
       <use style="stroke:#000000;stroke-width:0.8;" x="270.169689" xlink:href="#m88ada3b954" y="352.174167"/>
      </g>
     </g>
     <g id="text_3">
      <!-- 100 -->
      <defs>
       <path d="M 12.40625 8.296875 
L 28.515625 8.296875 
L 28.515625 63.921875 
L 10.984375 60.40625 
L 10.984375 69.390625 
L 28.421875 72.90625 
L 38.28125 72.90625 
L 38.28125 8.296875 
L 54.390625 8.296875 
L 54.390625 0 
L 12.40625 0 
z
" id="DejaVuSans-49"/>
      </defs>
      <g transform="translate(260.625939 366.772604)scale(0.1 -0.1)">
       <use xlink:href="#DejaVuSans-49"/>
       <use x="63.623047" xlink:href="#DejaVuSans-48"/>
       <use x="127.246094" xlink:href="#DejaVuSans-48"/>
      </g>
     </g>
    </g>
    <g id="xtick_4">
     <g id="line2d_4">
      <g>
       <use style="stroke:#000000;stroke-width:0.8;" x="337.294856" xlink:href="#m88ada3b954" y="352.174167"/>
      </g>
     </g>
     <g id="text_4">
      <!-- 150 -->
      <g transform="translate(327.751106 366.772604)scale(0.1 -0.1)">
       <use xlink:href="#DejaVuSans-49"/>
       <use x="63.623047" xlink:href="#DejaVuSans-53"/>
       <use x="127.246094" xlink:href="#DejaVuSans-48"/>
      </g>
     </g>
    </g>
    <g id="xtick_5">
     <g id="line2d_5">
      <g>
       <use style="stroke:#000000;stroke-width:0.8;" x="404.420024" xlink:href="#m88ada3b954" y="352.174167"/>
      </g>
     </g>
     <g id="text_5">
      <!-- 200 -->
      <defs>
       <path d="M 19.1875 8.296875 
L 53.609375 8.296875 
L 53.609375 0 
L 7.328125 0 
L 7.328125 8.296875 
Q 12.9375 14.109375 22.625 23.890625 
Q 32.328125 33.6875 34.8125 36.53125 
Q 39.546875 41.84375 41.421875 45.53125 
Q 43.3125 49.21875 43.3125 52.78125 
Q 43.3125 58.59375 39.234375 62.25 
Q 35.15625 65.921875 28.609375 65.921875 
Q 23.96875 65.921875 18.8125 64.3125 
Q 13.671875 62.703125 7.8125 59.421875 
L 7.8125 69.390625 
Q 13.765625 71.78125 18.9375 73 
Q 24.125 74.21875 28.421875 74.21875 
Q 39.75 74.21875 46.484375 68.546875 
Q 53.21875 62.890625 53.21875 53.421875 
Q 53.21875 48.921875 51.53125 44.890625 
Q 49.859375 40.875 45.40625 35.40625 
Q 44.1875 33.984375 37.640625 27.21875 
Q 31.109375 20.453125 19.1875 8.296875 
z
" id="DejaVuSans-50"/>
      </defs>
      <g transform="translate(394.876274 366.772604)scale(0.1 -0.1)">
       <use xlink:href="#DejaVuSans-50"/>
       <use x="63.623047" xlink:href="#DejaVuSans-48"/>
       <use x="127.246094" xlink:href="#DejaVuSans-48"/>
      </g>
     </g>
    </g>
    <g id="xtick_6">
     <g id="line2d_6">
      <g>
       <use style="stroke:#000000;stroke-width:0.8;" x="471.545191" xlink:href="#m88ada3b954" y="352.174167"/>
      </g>
     </g>
     <g id="text_6">
      <!-- 250 -->
      <g transform="translate(462.001441 366.772604)scale(0.1 -0.1)">
       <use xlink:href="#DejaVuSans-50"/>
       <use x="63.623047" xlink:href="#DejaVuSans-53"/>
       <use x="127.246094" xlink:href="#DejaVuSans-48"/>
      </g>
     </g>
    </g>
    <g id="xtick_7">
     <g id="line2d_7">
      <g>
       <use style="stroke:#000000;stroke-width:0.8;" x="538.670358" xlink:href="#m88ada3b954" y="352.174167"/>
      </g>
     </g>
     <g id="text_7">
      <!-- 300 -->
      <defs>
       <path d="M 40.578125 39.3125 
Q 47.65625 37.796875 51.625 33 
Q 55.609375 28.21875 55.609375 21.1875 
Q 55.609375 10.40625 48.1875 4.484375 
Q 40.765625 -1.421875 27.09375 -1.421875 
Q 22.515625 -1.421875 17.65625 -0.515625 
Q 12.796875 0.390625 7.625 2.203125 
L 7.625 11.71875 
Q 11.71875 9.328125 16.59375 8.109375 
Q 21.484375 6.890625 26.8125 6.890625 
Q 36.078125 6.890625 40.9375 10.546875 
Q 45.796875 14.203125 45.796875 21.1875 
Q 45.796875 27.640625 41.28125 31.265625 
Q 36.765625 34.90625 28.71875 34.90625 
L 20.21875 34.90625 
L 20.21875 43.015625 
L 29.109375 43.015625 
Q 36.375 43.015625 40.234375 45.921875 
Q 44.09375 48.828125 44.09375 54.296875 
Q 44.09375 59.90625 40.109375 62.90625 
Q 36.140625 65.921875 28.71875 65.921875 
Q 24.65625 65.921875 20.015625 65.03125 
Q 15.375 64.15625 9.8125 62.3125 
L 9.8125 71.09375 
Q 15.4375 72.65625 20.34375 73.4375 
Q 25.25 74.21875 29.59375 74.21875 
Q 40.828125 74.21875 47.359375 69.109375 
Q 53.90625 64.015625 53.90625 55.328125 
Q 53.90625 49.265625 50.4375 45.09375 
Q 46.96875 40.921875 40.578125 39.3125 
z
" id="DejaVuSans-51"/>
      </defs>
      <g transform="translate(529.126608 366.772604)scale(0.1 -0.1)">
       <use xlink:href="#DejaVuSans-51"/>
       <use x="63.623047" xlink:href="#DejaVuSans-48"/>
       <use x="127.246094" xlink:href="#DejaVuSans-48"/>
      </g>
     </g>
    </g>
   </g>
   <g id="matplotlib.axis_2">
    <g id="ytick_1">
     <g id="line2d_8">
      <defs>
       <path d="M 0 0 
L -3.5 0 
" id="m4419ec26dd" style="stroke:#000000;stroke-width:0.8;"/>
      </defs>
      <g>
       <use style="stroke:#000000;stroke-width:0.8;" x="111.527031" xlink:href="#m4419ec26dd" y="352.174167"/>
      </g>
     </g>
     <g id="text_8">
      <!-- 0 -->
      <g transform="translate(98.164531 355.973385)scale(0.1 -0.1)">
       <use xlink:href="#DejaVuSans-48"/>
      </g>
     </g>
    </g>
    <g id="ytick_2">
     <g id="line2d_9">
      <g>
       <use style="stroke:#000000;stroke-width:0.8;" x="111.527031" xlink:href="#m4419ec26dd" y="286.771236"/>
      </g>
     </g>
     <g id="text_9">
      <!-- 20000 -->
      <g transform="translate(72.714531 290.570455)scale(0.1 -0.1)">
       <use xlink:href="#DejaVuSans-50"/>
       <use x="63.623047" xlink:href="#DejaVuSans-48"/>
       <use x="127.246094" xlink:href="#DejaVuSans-48"/>
       <use x="190.869141" xlink:href="#DejaVuSans-48"/>
       <use x="254.492188" xlink:href="#DejaVuSans-48"/>
      </g>
     </g>
    </g>
    <g id="ytick_3">
     <g id="line2d_10">
      <g>
       <use style="stroke:#000000;stroke-width:0.8;" x="111.527031" xlink:href="#m4419ec26dd" y="221.368306"/>
      </g>
     </g>
     <g id="text_10">
      <!-- 40000 -->
      <defs>
       <path d="M 37.796875 64.3125 
L 12.890625 25.390625 
L 37.796875 25.390625 
z
M 35.203125 72.90625 
L 47.609375 72.90625 
L 47.609375 25.390625 
L 58.015625 25.390625 
L 58.015625 17.1875 
L 47.609375 17.1875 
L 47.609375 0 
L 37.796875 0 
L 37.796875 17.1875 
L 4.890625 17.1875 
L 4.890625 26.703125 
z
" id="DejaVuSans-52"/>
      </defs>
      <g transform="translate(72.714531 225.167525)scale(0.1 -0.1)">
       <use xlink:href="#DejaVuSans-52"/>
       <use x="63.623047" xlink:href="#DejaVuSans-48"/>
       <use x="127.246094" xlink:href="#DejaVuSans-48"/>
       <use x="190.869141" xlink:href="#DejaVuSans-48"/>
       <use x="254.492188" xlink:href="#DejaVuSans-48"/>
      </g>
     </g>
    </g>
    <g id="ytick_4">
     <g id="line2d_11">
      <g>
       <use style="stroke:#000000;stroke-width:0.8;" x="111.527031" xlink:href="#m4419ec26dd" y="155.965376"/>
      </g>
     </g>
     <g id="text_11">
      <!-- 60000 -->
      <defs>
       <path d="M 33.015625 40.375 
Q 26.375 40.375 22.484375 35.828125 
Q 18.609375 31.296875 18.609375 23.390625 
Q 18.609375 15.53125 22.484375 10.953125 
Q 26.375 6.390625 33.015625 6.390625 
Q 39.65625 6.390625 43.53125 10.953125 
Q 47.40625 15.53125 47.40625 23.390625 
Q 47.40625 31.296875 43.53125 35.828125 
Q 39.65625 40.375 33.015625 40.375 
z
M 52.59375 71.296875 
L 52.59375 62.3125 
Q 48.875 64.0625 45.09375 64.984375 
Q 41.3125 65.921875 37.59375 65.921875 
Q 27.828125 65.921875 22.671875 59.328125 
Q 17.53125 52.734375 16.796875 39.40625 
Q 19.671875 43.65625 24.015625 45.921875 
Q 28.375 48.1875 33.59375 48.1875 
Q 44.578125 48.1875 50.953125 41.515625 
Q 57.328125 34.859375 57.328125 23.390625 
Q 57.328125 12.15625 50.6875 5.359375 
Q 44.046875 -1.421875 33.015625 -1.421875 
Q 20.359375 -1.421875 13.671875 8.265625 
Q 6.984375 17.96875 6.984375 36.375 
Q 6.984375 53.65625 15.1875 63.9375 
Q 23.390625 74.21875 37.203125 74.21875 
Q 40.921875 74.21875 44.703125 73.484375 
Q 48.484375 72.75 52.59375 71.296875 
z
" id="DejaVuSans-54"/>
      </defs>
      <g transform="translate(72.714531 159.764595)scale(0.1 -0.1)">
       <use xlink:href="#DejaVuSans-54"/>
       <use x="63.623047" xlink:href="#DejaVuSans-48"/>
       <use x="127.246094" xlink:href="#DejaVuSans-48"/>
       <use x="190.869141" xlink:href="#DejaVuSans-48"/>
       <use x="254.492188" xlink:href="#DejaVuSans-48"/>
      </g>
     </g>
    </g>
    <g id="ytick_5">
     <g id="line2d_12">
      <g>
       <use style="stroke:#000000;stroke-width:0.8;" x="111.527031" xlink:href="#m4419ec26dd" y="90.562446"/>
      </g>
     </g>
     <g id="text_12">
      <!-- 80000 -->
      <defs>
       <path d="M 31.78125 34.625 
Q 24.75 34.625 20.71875 30.859375 
Q 16.703125 27.09375 16.703125 20.515625 
Q 16.703125 13.921875 20.71875 10.15625 
Q 24.75 6.390625 31.78125 6.390625 
Q 38.8125 6.390625 42.859375 10.171875 
Q 46.921875 13.96875 46.921875 20.515625 
Q 46.921875 27.09375 42.890625 30.859375 
Q 38.875 34.625 31.78125 34.625 
z
M 21.921875 38.8125 
Q 15.578125 40.375 12.03125 44.71875 
Q 8.5 49.078125 8.5 55.328125 
Q 8.5 64.0625 14.71875 69.140625 
Q 20.953125 74.21875 31.78125 74.21875 
Q 42.671875 74.21875 48.875 69.140625 
Q 55.078125 64.0625 55.078125 55.328125 
Q 55.078125 49.078125 51.53125 44.71875 
Q 48 40.375 41.703125 38.8125 
Q 48.828125 37.15625 52.796875 32.3125 
Q 56.78125 27.484375 56.78125 20.515625 
Q 56.78125 9.90625 50.3125 4.234375 
Q 43.84375 -1.421875 31.78125 -1.421875 
Q 19.734375 -1.421875 13.25 4.234375 
Q 6.78125 9.90625 6.78125 20.515625 
Q 6.78125 27.484375 10.78125 32.3125 
Q 14.796875 37.15625 21.921875 38.8125 
z
M 18.3125 54.390625 
Q 18.3125 48.734375 21.84375 45.5625 
Q 25.390625 42.390625 31.78125 42.390625 
Q 38.140625 42.390625 41.71875 45.5625 
Q 45.3125 48.734375 45.3125 54.390625 
Q 45.3125 60.0625 41.71875 63.234375 
Q 38.140625 66.40625 31.78125 66.40625 
Q 25.390625 66.40625 21.84375 63.234375 
Q 18.3125 60.0625 18.3125 54.390625 
z
" id="DejaVuSans-56"/>
      </defs>
      <g transform="translate(72.714531 94.361664)scale(0.1 -0.1)">
       <use xlink:href="#DejaVuSans-56"/>
       <use x="63.623047" xlink:href="#DejaVuSans-48"/>
       <use x="127.246094" xlink:href="#DejaVuSans-48"/>
       <use x="190.869141" xlink:href="#DejaVuSans-48"/>
       <use x="254.492188" xlink:href="#DejaVuSans-48"/>
      </g>
     </g>
    </g>
    <g id="text_13">
     <!-- queue -->
     <defs>
      <path d="M 14.796875 27.296875 
Q 14.796875 17.390625 18.875 11.75 
Q 22.953125 6.109375 30.078125 6.109375 
Q 37.203125 6.109375 41.296875 11.75 
Q 45.40625 17.390625 45.40625 27.296875 
Q 45.40625 37.203125 41.296875 42.84375 
Q 37.203125 48.484375 30.078125 48.484375 
Q 22.953125 48.484375 18.875 42.84375 
Q 14.796875 37.203125 14.796875 27.296875 
z
M 45.40625 8.203125 
Q 42.578125 3.328125 38.25 0.953125 
Q 33.9375 -1.421875 27.875 -1.421875 
Q 17.96875 -1.421875 11.734375 6.484375 
Q 5.515625 14.40625 5.515625 27.296875 
Q 5.515625 40.1875 11.734375 48.09375 
Q 17.96875 56 27.875 56 
Q 33.9375 56 38.25 53.625 
Q 42.578125 51.265625 45.40625 46.390625 
L 45.40625 54.6875 
L 54.390625 54.6875 
L 54.390625 -20.796875 
L 45.40625 -20.796875 
z
" id="DejaVuSans-113"/>
      <path d="M 8.5 21.578125 
L 8.5 54.6875 
L 17.484375 54.6875 
L 17.484375 21.921875 
Q 17.484375 14.15625 20.5 10.265625 
Q 23.53125 6.390625 29.59375 6.390625 
Q 36.859375 6.390625 41.078125 11.03125 
Q 45.3125 15.671875 45.3125 23.6875 
L 45.3125 54.6875 
L 54.296875 54.6875 
L 54.296875 0 
L 45.3125 0 
L 45.3125 8.40625 
Q 42.046875 3.421875 37.71875 1 
Q 33.40625 -1.421875 27.6875 -1.421875 
Q 18.265625 -1.421875 13.375 4.4375 
Q 8.5 10.296875 8.5 21.578125 
z
M 31.109375 56 
z
" id="DejaVuSans-117"/>
      <path d="M 56.203125 29.59375 
L 56.203125 25.203125 
L 14.890625 25.203125 
Q 15.484375 15.921875 20.484375 11.0625 
Q 25.484375 6.203125 34.421875 6.203125 
Q 39.59375 6.203125 44.453125 7.46875 
Q 49.3125 8.734375 54.109375 11.28125 
L 54.109375 2.78125 
Q 49.265625 0.734375 44.1875 -0.34375 
Q 39.109375 -1.421875 33.890625 -1.421875 
Q 20.796875 -1.421875 13.15625 6.1875 
Q 5.515625 13.8125 5.515625 26.8125 
Q 5.515625 40.234375 12.765625 48.109375 
Q 20.015625 56 32.328125 56 
Q 43.359375 56 49.78125 48.890625 
Q 56.203125 41.796875 56.203125 29.59375 
z
M 47.21875 32.234375 
Q 47.125 39.59375 43.09375 43.984375 
Q 39.0625 48.390625 32.421875 48.390625 
Q 24.90625 48.390625 20.390625 44.140625 
Q 15.875 39.890625 15.1875 32.171875 
z
" id="DejaVuSans-101"/>
     </defs>
     <g transform="translate(55.437031 209.283177)rotate(-90)scale(0.1 -0.1)">
      <use xlink:href="#DejaVuSans-113"/>
      <use x="63.476562" xlink:href="#DejaVuSans-117"/>
      <use x="126.855469" xlink:href="#DejaVuSans-101"/>
      <use x="188.378906" xlink:href="#DejaVuSans-117"/>
      <use x="251.757812" xlink:href="#DejaVuSans-101"/>
     </g>
     <!-- (bytes) -->
     <defs>
      <path d="M 31 75.875 
Q 24.46875 64.65625 21.28125 53.65625 
Q 18.109375 42.671875 18.109375 31.390625 
Q 18.109375 20.125 21.3125 9.0625 
Q 24.515625 -2 31 -13.1875 
L 23.1875 -13.1875 
Q 15.875 -1.703125 12.234375 9.375 
Q 8.59375 20.453125 8.59375 31.390625 
Q 8.59375 42.28125 12.203125 53.3125 
Q 15.828125 64.359375 23.1875 75.875 
z
" id="DejaVuSans-40"/>
      <path d="M 48.6875 27.296875 
Q 48.6875 37.203125 44.609375 42.84375 
Q 40.53125 48.484375 33.40625 48.484375 
Q 26.265625 48.484375 22.1875 42.84375 
Q 18.109375 37.203125 18.109375 27.296875 
Q 18.109375 17.390625 22.1875 11.75 
Q 26.265625 6.109375 33.40625 6.109375 
Q 40.53125 6.109375 44.609375 11.75 
Q 48.6875 17.390625 48.6875 27.296875 
z
M 18.109375 46.390625 
Q 20.953125 51.265625 25.265625 53.625 
Q 29.59375 56 35.59375 56 
Q 45.5625 56 51.78125 48.09375 
Q 58.015625 40.1875 58.015625 27.296875 
Q 58.015625 14.40625 51.78125 6.484375 
Q 45.5625 -1.421875 35.59375 -1.421875 
Q 29.59375 -1.421875 25.265625 0.953125 
Q 20.953125 3.328125 18.109375 8.203125 
L 18.109375 0 
L 9.078125 0 
L 9.078125 75.984375 
L 18.109375 75.984375 
z
" id="DejaVuSans-98"/>
      <path d="M 32.171875 -5.078125 
Q 28.375 -14.84375 24.75 -17.8125 
Q 21.140625 -20.796875 15.09375 -20.796875 
L 7.90625 -20.796875 
L 7.90625 -13.28125 
L 13.1875 -13.28125 
Q 16.890625 -13.28125 18.9375 -11.515625 
Q 21 -9.765625 23.484375 -3.21875 
L 25.09375 0.875 
L 2.984375 54.6875 
L 12.5 54.6875 
L 29.59375 11.921875 
L 46.6875 54.6875 
L 56.203125 54.6875 
z
" id="DejaVuSans-121"/>
      <path d="M 18.3125 70.21875 
L 18.3125 54.6875 
L 36.8125 54.6875 
L 36.8125 47.703125 
L 18.3125 47.703125 
L 18.3125 18.015625 
Q 18.3125 11.328125 20.140625 9.421875 
Q 21.96875 7.515625 27.59375 7.515625 
L 36.8125 7.515625 
L 36.8125 0 
L 27.59375 0 
Q 17.1875 0 13.234375 3.875 
Q 9.28125 7.765625 9.28125 18.015625 
L 9.28125 47.703125 
L 2.6875 47.703125 
L 2.6875 54.6875 
L 9.28125 54.6875 
L 9.28125 70.21875 
z
" id="DejaVuSans-116"/>
      <path d="M 44.28125 53.078125 
L 44.28125 44.578125 
Q 40.484375 46.53125 36.375 47.5 
Q 32.28125 48.484375 27.875 48.484375 
Q 21.1875 48.484375 17.84375 46.4375 
Q 14.5 44.390625 14.5 40.28125 
Q 14.5 37.15625 16.890625 35.375 
Q 19.28125 33.59375 26.515625 31.984375 
L 29.59375 31.296875 
Q 39.15625 29.25 43.1875 25.515625 
Q 47.21875 21.78125 47.21875 15.09375 
Q 47.21875 7.46875 41.1875 3.015625 
Q 35.15625 -1.421875 24.609375 -1.421875 
Q 20.21875 -1.421875 15.453125 -0.5625 
Q 10.6875 0.296875 5.421875 2 
L 5.421875 11.28125 
Q 10.40625 8.6875 15.234375 7.390625 
Q 20.0625 6.109375 24.8125 6.109375 
Q 31.15625 6.109375 34.5625 8.28125 
Q 37.984375 10.453125 37.984375 14.40625 
Q 37.984375 18.0625 35.515625 20.015625 
Q 33.0625 21.96875 24.703125 23.78125 
L 21.578125 24.515625 
Q 13.234375 26.265625 9.515625 29.90625 
Q 5.8125 33.546875 5.8125 39.890625 
Q 5.8125 47.609375 11.28125 51.796875 
Q 16.75 56 26.8125 56 
Q 31.78125 56 36.171875 55.265625 
Q 40.578125 54.546875 44.28125 53.078125 
z
" id="DejaVuSans-115"/>
      <path d="M 8.015625 75.875 
L 15.828125 75.875 
Q 23.140625 64.359375 26.78125 53.3125 
Q 30.421875 42.28125 30.421875 31.390625 
Q 30.421875 20.453125 26.78125 9.375 
Q 23.140625 -1.703125 15.828125 -13.1875 
L 8.015625 -13.1875 
Q 14.5 -2 17.703125 9.0625 
Q 20.90625 20.125 20.90625 31.390625 
Q 20.90625 42.671875 17.703125 53.65625 
Q 14.5 64.65625 8.015625 75.875 
z
" id="DejaVuSans-41"/>
     </defs>
     <g transform="translate(66.634844 211.294896)rotate(-90)scale(0.1 -0.1)">
      <use xlink:href="#DejaVuSans-40"/>
      <use x="39.013672" xlink:href="#DejaVuSans-98"/>
      <use x="102.490234" xlink:href="#DejaVuSans-121"/>
      <use x="161.669922" xlink:href="#DejaVuSans-116"/>
      <use x="200.878906" xlink:href="#DejaVuSans-101"/>
      <use x="262.402344" xlink:href="#DejaVuSans-115"/>
      <use x="314.501953" xlink:href="#DejaVuSans-41"/>
     </g>
    </g>
   </g>
   <g id="line2d_13">
    <path clip-path="url(#p8d7b67b142)" d="M 131.036442 352.174167 
L 135.350642 352.174167 
L 135.499452 50.163056 
L 135.648454 60.065059 
L 135.799439 352.174167 
L 136.096677 173.938101 
L 136.389712 84.820068 
L 136.539746 342.272163 
L 136.688346 277.909139 
L 136.987933 55.114057 
L 137.136315 50.163056 
L 137.285574 69.967063 
L 137.429983 50.163056 
L 137.573781 55.114057 
L 137.71804 55.114057 
L 137.862137 60.065059 
L 138.009575 60.065059 
L 138.309236 55.114057 
L 138.606422 55.114057 
L 138.754232 60.065059 
L 139.038318 60.065059 
L 139.181099 55.114057 
L 139.323685 54.872067 
L 139.4663 60.065059 
L 139.608742 50.163056 
L 139.751444 55.114057 
L 139.895782 55.114057 
L 140.040728 65.016061 
L 140.186059 65.016061 
L 140.327935 60.065059 
L 140.471696 60.065059 
L 140.616913 55.114057 
L 140.760937 55.114057 
L 140.903395 60.065059 
L 141.046845 55.114057 
L 141.189101 60.065059 
L 141.618675 60.065059 
L 141.762569 69.967063 
L 141.910323 65.016061 
L 142.052693 54.898228 
L 142.195438 55.114057 
L 142.33876 69.967063 
L 142.481128 50.163056 
L 142.62324 55.114057 
L 142.765141 50.163056 
L 142.907583 60.065059 
L 143.056308 60.065059 
L 143.207349 65.016061 
L 143.350766 54.872067 
L 143.493349 55.114057 
L 143.636082 60.065059 
L 143.779627 60.065059 
L 143.922467 50.163056 
L 144.064516 50.163056 
L 144.208 60.065059 
L 144.351462 55.114057 
L 144.494431 60.065059 
L 144.635453 55.114057 
L 144.92323 65.016061 
L 145.067262 55.114057 
L 145.210273 183.840105 
L 145.352859 60.065059 
L 145.500297 60.065059 
L 145.650185 50.163056 
L 145.798119 114.526079 
L 145.947119 65.016061 
L 146.09799 69.967063 
L 146.247513 65.016061 
L 146.398268 65.016061 
L 146.545312 60.065059 
L 146.68773 114.526079 
L 146.830075 65.016061 
L 146.973075 55.114057 
L 147.115958 60.065059 
L 147.258338 55.114057 
L 147.404798 60.065059 
L 147.551437 60.065059 
L 147.697966 55.114057 
L 147.844181 55.114057 
L 148.140319 109.575077 
L 148.289225 60.065059 
L 148.438106 65.016061 
L 148.587457 60.065059 
L 148.736663 74.918065 
L 148.880159 352.174167 
L 149.022985 342.272163 
L 149.16531 50.163056 
L 149.310337 65.016061 
L 149.455288 99.673074 
L 149.597783 89.77107 
L 149.740873 50.163056 
L 150.026654 69.967063 
L 150.313553 277.909139 
L 150.60455 55.114057 
L 150.752622 65.016061 
L 150.903473 50.163056 
L 151.054188 60.065059 
L 151.347163 50.163056 
L 151.495728 94.722072 
L 151.644994 65.016061 
L 151.794708 74.918065 
L 151.944439 69.967063 
L 152.237664 50.163056 
L 152.382156 60.065059 
L 152.527251 55.114057 
L 152.672546 65.016061 
L 152.81441 89.77107 
L 152.956146 55.114057 
L 153.098383 69.967063 
L 153.239826 69.967063 
L 153.383934 50.163056 
L 153.532372 55.114057 
L 153.674774 65.016061 
L 153.816512 65.016061 
L 153.961911 129.379085 
L 154.106345 50.163056 
L 154.393763 65.016061 
L 154.535166 65.016061 
L 154.676736 74.918065 
L 154.821014 65.016061 
L 154.970819 65.016061 
L 155.119978 55.114057 
L 155.268982 149.183092 
L 155.410118 60.065059 
L 155.551609 65.016061 
L 155.693315 50.163056 
L 155.841177 65.016061 
L 155.990325 60.065059 
L 156.139827 50.163056 
L 156.288654 243.252127 
L 156.437879 69.967063 
L 156.579595 55.114057 
L 156.722797 60.065059 
L 156.86526 50.163056 
L 157.008428 74.918065 
L 157.294461 65.016061 
L 157.435753 55.114057 
L 157.584505 65.016061 
L 157.726511 60.065059 
L 157.86787 65.016061 
L 158.014215 55.114057 
L 158.163235 74.918065 
L 158.312186 60.065059 
L 158.461104 129.379085 
L 158.610456 50.163056 
L 158.902969 69.967063 
L 159.194668 55.114057 
L 159.489735 69.967063 
L 159.638719 50.163056 
L 159.787657 65.016061 
L 159.936943 50.163056 
L 160.078707 69.967063 
L 160.224653 55.114057 
L 160.366669 69.967063 
L 160.508334 55.114057 
L 161.100304 55.114057 
L 161.242873 65.016061 
L 161.384405 65.016061 
L 161.531695 55.114057 
L 161.955063 129.379085 
L 162.096288 55.114057 
L 162.379571 55.114057 
L 162.520506 65.016061 
L 162.661364 149.183092 
L 162.802939 119.477081 
L 162.945272 65.016061 
L 163.086888 99.673074 
L 163.37125 55.114057 
L 163.513889 50.163056 
L 163.656128 65.016061 
L 163.798132 65.016061 
L 163.94059 69.967063 
L 164.08304 55.114057 
L 164.225997 55.114057 
L 164.370552 60.065059 
L 164.511908 69.967063 
L 164.654125 50.163056 
L 164.796268 55.114057 
L 164.937521 65.016061 
L 165.078577 109.575077 
L 165.362133 55.114057 
L 165.507074 65.016061 
L 165.655502 65.016061 
L 165.797964 50.163056 
L 165.942766 65.016061 
L 166.086964 50.163056 
L 166.22885 50.163056 
L 166.370272 238.320746 
L 166.512156 69.967063 
L 166.653689 55.114057 
L 166.797199 60.065059 
L 166.938837 69.967063 
L 167.232665 50.163056 
L 167.380809 50.163056 
L 167.522393 65.016061 
L 167.66403 60.065059 
L 167.812266 183.840105 
L 167.954281 65.016061 
L 168.096335 65.016061 
L 168.240364 50.163056 
L 168.529208 69.967063 
L 168.67178 65.016061 
L 168.961427 50.163056 
L 169.107588 60.065059 
L 169.253865 50.163056 
L 169.547616 60.065059 
L 169.691933 60.065059 
L 169.836792 168.987099 
L 169.97948 79.869066 
L 170.122896 89.77107 
L 170.266354 55.114057 
L 170.409825 79.869066 
L 170.55409 55.114057 
L 170.698518 60.065059 
L 170.841237 55.114057 
L 171.277688 55.114057 
L 171.42034 74.918065 
L 171.567495 60.065059 
L 171.710152 65.016061 
L 171.854398 50.163056 
L 171.996625 60.065059 
L 172.286732 50.163056 
L 172.431003 55.114057 
L 172.574158 55.114057 
L 172.72366 74.918065 
L 172.872297 50.163056 
L 173.164202 60.065059 
L 173.455994 60.065059 
L 173.601394 55.114057 
L 173.745921 65.016061 
L 173.892809 65.016061 
L 174.037549 69.967063 
L 174.180637 50.163056 
L 174.474475 65.016061 
L 174.765196 65.016061 
L 175.05715 55.114057 
L 175.201303 60.065059 
L 175.640389 352.174167 
L 175.785477 292.762145 
L 175.931466 109.575077 
L 176.079386 134.330087 
L 176.227565 50.163056 
L 176.375696 50.163056 
L 176.814391 65.016061 
L 177.108167 65.016061 
L 177.253811 60.065059 
L 177.397899 50.163056 
L 177.686949 60.065059 
L 177.835063 55.114057 
L 178.132037 154.134094 
L 178.282444 65.016061 
L 178.431111 55.114057 
L 178.572224 69.967063 
L 178.713202 69.967063 
L 178.854251 89.77107 
L 179.000336 60.065059 
L 179.14595 60.065059 
L 179.290248 50.163056 
L 179.434149 60.065059 
L 179.577043 60.065059 
L 179.724119 50.163056 
L 179.871588 60.065059 
L 180.019293 50.163056 
L 180.166486 60.065059 
L 180.31505 55.114057 
L 180.461609 60.065059 
L 180.606644 60.065059 
L 180.757072 94.722072 
L 180.901376 60.065059 
L 181.042629 89.77107 
L 181.185744 60.065059 
L 181.469056 60.065059 
L 181.61288 79.869066 
L 181.75462 60.065059 
L 181.89587 65.016061 
L 182.179062 50.163056 
L 182.32642 69.967063 
L 182.477454 55.114057 
L 182.626326 60.065059 
L 182.774939 60.065059 
L 183.065357 109.575077 
L 183.207231 55.114057 
L 183.350409 50.163056 
L 183.495545 50.163056 
L 183.637546 65.016061 
L 183.779425 129.379085 
L 183.921176 60.065059 
L 184.348153 60.065059 
L 184.491086 65.016061 
L 184.633079 65.016061 
L 184.774947 60.065059 
L 184.917354 99.673074 
L 185.219006 65.016061 
L 185.369139 65.016061 
L 185.520308 60.065059 
L 185.667421 50.163056 
L 185.951463 65.016061 
L 186.100726 60.065059 
L 186.243868 50.163056 
L 186.389609 69.967063 
L 186.532035 50.163056 
L 186.674479 74.918065 
L 186.816138 69.967063 
L 186.962469 69.967063 
L 187.247539 55.114057 
L 187.391257 60.065059 
L 187.686076 60.065059 
L 187.829569 55.114057 
L 187.971899 65.016061 
L 188.113129 50.163056 
L 188.25508 55.114057 
L 188.399495 65.016061 
L 188.540934 55.114057 
L 188.688321 65.016061 
L 188.829519 119.477081 
L 188.975894 119.477081 
L 189.120627 352.174167 
L 189.267124 352.174167 
L 189.556755 55.114057 
L 189.702874 60.065059 
L 189.847173 65.016061 
L 189.989184 55.114057 
L 190.135719 94.722072 
L 190.281594 55.114057 
L 190.424825 55.114057 
L 190.572125 74.918065 
L 190.720766 55.114057 
L 190.864321 69.967063 
L 191.013465 60.065059 
L 191.16256 69.967063 
L 191.452648 55.114057 
L 191.595976 69.967063 
L 191.739848 65.016061 
L 191.887485 89.77107 
L 192.031416 139.281088 
L 192.177675 74.918065 
L 192.323825 89.77107 
L 192.616413 50.163056 
L 192.761537 213.546116 
L 193.057405 55.114057 
L 193.200861 104.624076 
L 193.343899 50.163056 
L 193.490815 50.163056 
L 193.636647 74.918065 
L 193.785151 60.065059 
L 194.074025 139.281088 
L 194.220392 55.114057 
L 194.516124 65.016061 
L 194.808029 50.163056 
L 194.951161 55.114057 
L 195.532199 55.114057 
L 195.817483 124.467325 
L 196.104118 50.163056 
L 196.248238 65.016061 
L 196.393275 50.163056 
L 196.535248 50.163056 
L 196.681701 65.016061 
L 196.831028 55.114057 
L 196.977249 139.281088 
L 197.267859 60.065059 
L 197.412174 60.065059 
L 197.556117 65.016061 
L 197.699152 60.065059 
L 197.843859 65.016061 
L 197.98872 60.065059 
L 198.130885 65.016061 
L 198.417875 55.114057 
L 198.560033 55.114057 
L 198.702179 60.065059 
L 198.84538 69.967063 
L 198.987039 60.065059 
L 199.129347 60.065059 
L 199.271215 69.967063 
L 199.412599 65.016061 
L 199.554547 65.016061 
L 199.703519 55.114057 
L 199.851657 69.967063 
L 199.999942 69.967063 
L 200.148184 55.114057 
L 200.29197 79.869066 
L 200.437061 60.065059 
L 200.725111 60.065059 
L 200.867576 69.967063 
L 201.014414 69.967063 
L 201.163414 55.114057 
L 201.746031 55.114057 
L 201.89284 65.016061 
L 202.034499 60.065059 
L 202.17634 50.163056 
L 202.465508 69.967063 
L 202.607214 55.114057 
L 202.897623 352.174167 
L 203.045633 352.174167 
L 203.195545 332.370159 
L 203.336818 55.114057 
L 203.478774 55.114057 
L 203.621656 60.065059 
L 203.76843 60.065059 
L 203.912491 65.016061 
L 204.49169 65.016061 
L 204.634123 79.869066 
L 204.77587 65.016061 
L 204.91769 74.918065 
L 205.061148 60.065059 
L 205.2035 124.467325 
L 205.34838 69.967063 
L 205.489751 84.820068 
L 205.631096 74.918065 
L 205.777321 79.869066 
L 205.927455 60.065059 
L 206.078508 65.016061 
L 206.221037 55.114057 
L 206.365865 79.869066 
L 206.507726 74.918065 
L 206.796536 55.114057 
L 206.941909 94.722072 
L 207.083528 164.036097 
L 207.230837 65.016061 
L 207.373267 65.016061 
L 207.518411 79.869066 
L 207.660105 60.065059 
L 207.809857 65.016061 
L 208.102607 55.114057 
L 208.391543 74.918065 
L 208.540849 60.065059 
L 208.684671 65.016061 
L 208.831763 119.477081 
L 208.978883 65.016061 
L 209.127701 55.114057 
L 209.27264 55.114057 
L 209.416492 69.967063 
L 209.562624 55.114057 
L 209.707877 65.016061 
L 209.852872 50.163056 
L 210.000076 65.016061 
L 210.147787 94.722072 
L 210.436277 55.114057 
L 210.72365 74.918065 
L 210.867552 79.869066 
L 211.308111 50.163056 
L 211.455275 55.114057 
L 211.597644 55.114057 
L 211.743303 60.065059 
L 211.886097 79.869066 
L 212.037116 50.163056 
L 212.188131 65.016061 
L 212.486662 65.016061 
L 212.634931 60.065059 
L 212.777928 60.065059 
L 212.92553 74.918065 
L 213.074458 183.840105 
L 213.222027 55.114057 
L 213.363701 55.114057 
L 213.505415 50.163056 
L 213.651057 55.114057 
L 213.792085 69.967063 
L 214.083023 50.163056 
L 214.371085 79.869066 
L 214.807873 55.114057 
L 214.953903 178.889103 
L 215.097501 65.016061 
L 215.242008 114.526079 
L 215.387146 55.114057 
L 215.532716 109.575077 
L 215.676879 55.114057 
L 215.82132 60.065059 
L 216.113466 129.379085 
L 216.25636 60.065059 
L 216.403992 79.869066 
L 216.551174 352.174167 
L 216.845418 352.174167 
L 216.990727 287.811143 
L 217.136645 60.065059 
L 217.285248 50.163056 
L 217.42971 65.016061 
L 217.572403 60.065059 
L 217.721717 65.016061 
L 217.86472 55.114057 
L 218.011418 55.114057 
L 218.156238 60.065059 
L 218.300323 50.163056 
L 218.449499 55.114057 
L 218.595048 65.016061 
L 218.739735 50.163056 
L 218.885396 65.016061 
L 219.030869 50.163056 
L 219.318217 60.065059 
L 219.465281 60.065059 
L 219.613171 55.114057 
L 219.756428 60.065059 
L 219.90097 60.065059 
L 220.045862 65.016061 
L 220.189847 50.163056 
L 220.332905 65.016061 
L 220.475946 65.016061 
L 220.619879 55.114057 
L 220.905901 65.016061 
L 221.051747 50.163056 
L 221.198058 65.016061 
L 221.344999 65.016061 
L 221.491424 124.467325 
L 221.634775 55.114057 
L 221.780018 60.065059 
L 221.927969 69.967063 
L 222.367574 55.114057 
L 222.513492 99.673074 
L 222.657295 60.065059 
L 223.09194 60.065059 
L 223.237302 104.624076 
L 223.38143 55.114057 
L 223.666532 65.016061 
L 223.809603 94.722072 
L 223.957603 60.065059 
L 224.100595 65.016061 
L 224.245256 55.114057 
L 224.390426 65.016061 
L 224.533555 65.016061 
L 224.679092 55.114057 
L 224.822482 139.281088 
L 224.968678 65.016061 
L 225.114669 60.065059 
L 225.257438 99.673074 
L 225.544659 50.163056 
L 225.834194 65.016061 
L 225.980943 134.330087 
L 226.124593 55.114057 
L 226.268239 65.016061 
L 226.414264 55.114057 
L 226.558436 65.016061 
L 226.70302 55.114057 
L 226.844519 60.065059 
L 226.986659 55.114057 
L 227.134215 55.114057 
L 227.280693 94.722072 
L 227.707863 50.163056 
L 227.849261 55.114057 
L 227.990361 55.114057 
L 228.131442 60.065059 
L 228.276104 124.467325 
L 228.417371 55.114057 
L 228.558395 94.722072 
L 228.700274 50.163056 
L 228.844952 65.016061 
L 228.994283 60.065059 
L 229.285654 60.065059 
L 229.430503 55.114057 
L 229.57224 79.869066 
L 229.721434 60.065059 
L 229.870373 60.065059 
L 230.016789 55.114057 
L 230.157821 60.065059 
L 230.298997 114.526079 
L 230.4478 352.174167 
L 230.741503 352.174167 
L 230.884834 55.114057 
L 231.028042 65.016061 
L 231.171204 60.065059 
L 231.316407 65.016061 
L 231.457559 55.114057 
L 231.73995 74.918065 
L 231.884327 50.163056 
L 232.025611 74.918065 
L 232.308476 60.065059 
L 232.449341 65.016061 
L 232.590351 60.065059 
L 232.733484 74.918065 
L 232.875402 119.477081 
L 233.017496 60.065059 
L 233.158549 65.016061 
L 233.299718 55.114057 
L 233.440796 60.065059 
L 233.58166 69.967063 
L 233.722486 55.114057 
L 233.863286 60.065059 
L 234.011618 55.114057 
L 234.294022 55.114057 
L 234.435904 84.820068 
L 234.580077 55.114057 
L 234.72769 50.163056 
L 234.869251 60.065059 
L 235.019396 55.114057 
L 235.160602 60.065059 
L 235.302551 55.114057 
L 235.444586 65.016061 
L 235.592373 65.016061 
L 235.734468 55.114057 
L 235.878488 55.114057 
L 236.024134 79.869066 
L 236.168099 55.114057 
L 236.459387 65.016061 
L 236.603281 60.065059 
L 236.751549 50.163056 
L 237.041389 65.016061 
L 237.184774 99.673074 
L 237.330923 84.820068 
L 237.472725 55.114057 
L 237.757995 55.114057 
L 237.900181 65.016061 
L 238.043239 65.016061 
L 238.184852 55.114057 
L 238.325991 65.016061 
L 238.467308 55.114057 
L 238.609802 60.065059 
L 238.75121 55.114057 
L 239.035469 65.016061 
L 239.17807 50.163056 
L 239.321293 65.016061 
L 239.463713 55.114057 
L 239.606067 65.016061 
L 239.749837 55.114057 
L 239.895826 65.016061 
L 240.037708 168.987099 
L 240.182841 55.114057 
L 240.32635 74.918065 
L 240.469878 55.114057 
L 240.613173 55.114057 
L 240.758246 65.016061 
L 240.899962 50.163056 
L 241.041664 55.114057 
L 241.183786 65.016061 
L 241.329904 50.163056 
L 241.471602 55.114057 
L 241.616303 55.114057 
L 241.761564 69.967063 
L 241.905955 55.114057 
L 242.052902 74.918065 
L 242.195549 60.065059 
L 242.480004 109.575077 
L 242.621506 55.114057 
L 242.911777 69.967063 
L 243.053849 55.114057 
L 243.195396 65.016061 
L 243.488323 65.016061 
L 243.634671 84.820068 
L 243.782723 60.065059 
L 244.070609 60.065059 
L 244.211755 352.174167 
L 244.503548 352.174167 
L 244.652576 55.114057 
L 244.800673 65.016061 
L 244.94717 55.114057 
L 245.093378 65.016061 
L 245.239547 60.065059 
L 245.381103 60.065059 
L 245.523086 65.016061 
L 245.667298 55.114057 
L 245.816224 65.016061 
L 245.965335 55.114057 
L 246.112646 69.967063 
L 246.254556 60.065059 
L 246.400218 65.016061 
L 246.543874 50.163056 
L 246.687601 60.065059 
L 246.83003 55.114057 
L 246.974197 69.967063 
L 247.118124 55.114057 
L 247.266595 65.016061 
L 247.414545 50.163056 
L 247.710173 65.016061 
L 247.853293 55.114057 
L 247.996135 60.065059 
L 248.13881 50.163056 
L 248.284431 50.163056 
L 248.426707 55.114057 
L 248.569253 55.114057 
L 248.857999 65.016061 
L 248.999517 119.477081 
L 249.141493 65.016061 
L 249.290846 84.820068 
L 249.43629 69.967063 
L 249.57809 104.624076 
L 249.71991 65.016061 
L 249.860922 89.77107 
L 250.001932 55.114057 
L 250.143957 69.967063 
L 250.289218 60.065059 
L 250.431066 69.967063 
L 250.715181 55.114057 
L 250.857179 55.114057 
L 250.999258 50.163056 
L 251.141162 79.869066 
L 251.282952 55.114057 
L 251.425148 60.065059 
L 251.573406 55.114057 
L 251.721827 65.016061 
L 251.863088 55.114057 
L 252.00738 248.203128 
L 252.155433 55.114057 
L 252.603475 55.114057 
L 252.752424 79.73172 
L 253.039525 55.114057 
L 253.187131 60.065059 
L 253.33328 60.065059 
L 253.480535 55.114057 
L 253.623706 65.016061 
L 253.772288 55.114057 
L 253.915016 55.114057 
L 254.061282 50.163056 
L 254.207536 60.065059 
L 254.493595 50.163056 
L 254.637954 60.065059 
L 254.781009 60.065059 
L 255.069423 50.163056 
L 255.215453 55.114057 
L 255.357488 109.575077 
L 255.505509 263.056134 
L 255.65447 65.016061 
L 255.803958 55.114057 
L 255.944986 69.967063 
L 256.086056 55.114057 
L 256.229482 55.114057 
L 256.526179 65.016061 
L 256.667685 65.016061 
L 256.812298 50.163056 
L 257.097227 60.065059 
L 257.238596 60.065059 
L 257.529248 69.967063 
L 257.675425 65.016061 
L 257.821993 69.967063 
L 258.11218 352.174167 
L 258.262022 352.174167 
L 258.550824 60.065059 
L 258.693053 55.114057 
L 258.835545 60.065059 
L 258.977807 60.065059 
L 259.126938 65.016061 
L 259.268589 60.065059 
L 259.554684 60.065059 
L 259.702269 55.114057 
L 259.84746 65.016061 
L 259.989628 55.114057 
L 260.130944 74.918065 
L 260.272197 50.163056 
L 260.413288 60.065059 
L 260.697262 60.065059 
L 260.839311 55.114057 
L 261.122245 55.114057 
L 261.263592 60.065059 
L 261.404687 60.065059 
L 261.5488 55.114057 
L 261.689929 65.016061 
L 261.83156 55.114057 
L 261.972578 55.114057 
L 262.113638 89.77107 
L 262.260389 55.114057 
L 262.404113 65.016061 
L 262.548939 65.016061 
L 262.696718 60.065059 
L 262.840045 60.065059 
L 262.984156 55.114057 
L 263.129611 65.016061 
L 263.272286 55.114057 
L 263.413765 168.987099 
L 263.55921 60.065059 
L 263.704651 55.114057 
L 263.845762 69.967063 
L 263.986866 60.065059 
L 264.269941 60.065059 
L 264.410886 55.114057 
L 264.552857 60.065059 
L 264.694918 60.065059 
L 264.837654 55.114057 
L 264.978886 74.918065 
L 265.119867 69.967063 
L 265.260806 79.869066 
L 265.4018 69.967063 
L 265.683801 69.967063 
L 265.82467 74.918065 
L 265.965593 60.065059 
L 266.106529 65.016061 
L 266.393741 55.114057 
L 266.535436 55.114057 
L 266.677398 60.065059 
L 266.82386 69.967063 
L 267.114555 50.163056 
L 267.396515 60.065059 
L 267.539798 79.869066 
L 267.683292 74.918065 
L 267.826669 65.016061 
L 267.969955 79.869066 
L 268.25257 55.114057 
L 268.393334 99.673074 
L 268.5343 74.918065 
L 268.67525 69.967063 
L 268.81629 69.967063 
L 268.960029 55.114057 
L 269.101243 65.016061 
L 269.383829 55.114057 
L 269.525156 69.967063 
L 269.666192 55.114057 
L 269.808861 65.016061 
L 269.949972 55.114057 
L 270.090932 178.889103 
L 270.233821 99.673074 
L 270.374898 104.624076 
L 270.517933 60.065059 
L 270.664607 65.016061 
L 270.813378 50.163056 
L 270.959669 139.281088 
L 271.10552 65.016061 
L 271.248516 84.820068 
L 271.389538 55.114057 
L 271.533793 139.281088 
L 271.677435 74.918065 
L 271.825169 352.174167 
L 272.122719 352.174167 
L 272.269358 65.016061 
L 272.415611 55.114057 
L 272.558273 55.114057 
L 272.702771 119.477081 
L 272.844334 94.722072 
L 272.992928 104.624076 
L 273.286951 50.163056 
L 273.433466 74.918065 
L 273.580755 55.114057 
L 273.727019 109.575077 
L 273.872675 55.114057 
L 274.019347 149.183092 
L 274.164417 50.163056 
L 274.454331 69.967063 
L 274.601365 159.085096 
L 274.744761 69.967063 
L 274.889647 60.065059 
L 275.177548 60.065059 
L 275.322226 55.114057 
L 275.470408 124.467325 
L 275.614074 65.016061 
L 275.758505 79.869066 
L 275.905071 60.065059 
L 276.04895 65.016061 
L 276.193805 60.065059 
L 276.340461 89.633724 
L 276.628205 60.065059 
L 276.771616 50.163056 
L 276.914605 60.065059 
L 277.061035 55.114057 
L 277.204294 129.379085 
L 277.347614 55.114057 
L 277.637282 55.114057 
L 277.781149 60.065059 
L 277.92416 79.869066 
L 278.069612 74.918065 
L 278.362721 55.114057 
L 278.505984 55.114057 
L 278.796873 65.016061 
L 278.943345 60.065059 
L 279.227669 60.065059 
L 279.370327 79.869066 
L 279.512997 50.163056 
L 279.658549 55.114057 
L 279.802367 114.526079 
L 279.949166 50.163056 
L 280.093697 50.163056 
L 280.2367 104.624076 
L 280.382755 50.163056 
L 280.526541 65.016061 
L 280.671206 55.114057 
L 281.106979 55.114057 
L 281.254046 114.526079 
L 281.39915 65.016061 
L 281.54374 74.918065 
L 281.837004 55.114057 
L 281.979694 65.016061 
L 282.12247 65.016061 
L 282.263597 84.820068 
L 282.409486 60.065059 
L 282.551024 65.016061 
L 282.696211 173.938101 
L 282.841337 55.114057 
L 283.267322 69.967063 
L 283.408384 60.065059 
L 283.551035 114.526079 
L 283.694085 69.967063 
L 283.839829 218.497117 
L 283.981109 69.967063 
L 284.265315 55.114057 
L 284.408661 69.967063 
L 284.550493 69.967063 
L 284.692437 55.114057 
L 284.834387 188.791107 
L 284.97874 65.016061 
L 285.261607 50.163056 
L 285.402704 60.065059 
L 285.547353 129.379085 
L 285.689146 352.174167 
L 285.833465 352.174167 
L 286.119769 50.163056 
L 286.264707 55.114057 
L 286.408748 69.967063 
L 286.69308 60.065059 
L 286.834785 50.163056 
L 287.119595 208.595114 
L 287.268337 55.114057 
L 287.838374 74.918065 
L 287.98028 55.114057 
L 288.121711 79.869066 
L 288.263755 60.065059 
L 288.405571 129.379085 
L 288.548309 55.114057 
L 288.69084 50.163056 
L 288.835398 74.918065 
L 288.977774 65.016061 
L 289.120369 65.016061 
L 289.262116 50.163056 
L 289.55084 69.967063 
L 289.692762 114.526079 
L 289.836903 60.065059 
L 289.97903 144.23209 
L 290.267425 50.163056 
L 290.414062 60.065059 
L 290.556386 60.065059 
L 290.698383 50.163056 
L 290.839979 74.780719 
L 290.982932 139.281088 
L 291.128456 65.016061 
L 291.272513 50.163056 
L 291.415612 84.820068 
L 291.558628 154.134094 
L 291.702721 65.016061 
L 291.848044 65.016061 
L 291.993524 99.673074 
L 292.277586 55.114057 
L 292.421605 55.114057 
L 292.706222 69.967063 
L 292.847867 65.016061 
L 292.990475 55.114057 
L 293.133124 60.065059 
L 293.275007 50.163056 
L 293.416751 60.065059 
L 293.562681 139.281088 
L 293.859934 65.016061 
L 294.157188 55.114057 
L 294.299688 84.820068 
L 294.446152 55.114057 
L 294.593677 69.967063 
L 294.74104 69.967063 
L 294.888329 74.918065 
L 295.178517 55.114057 
L 295.321796 89.77107 
L 295.463456 65.016061 
L 295.605184 94.722072 
L 295.752244 69.967063 
L 295.901167 69.967063 
L 296.052387 79.869066 
L 296.194468 55.114057 
L 296.336696 50.163056 
L 296.480212 55.114057 
L 296.622448 55.114057 
L 296.76433 65.016061 
L 296.906256 50.163056 
L 297.048506 50.163056 
L 297.190314 69.967063 
L 297.476739 60.065059 
L 297.6196 60.065059 
L 297.766972 74.918065 
L 297.914766 114.526079 
L 298.209221 50.163056 
L 298.356375 65.016061 
L 298.502364 50.163056 
L 298.791797 65.016061 
L 298.937364 60.065059 
L 299.080014 60.065059 
L 299.222379 84.820068 
L 299.366556 352.174167 
L 299.664666 352.174167 
L 299.81053 74.918065 
L 299.959997 124.467325 
L 300.102198 69.967063 
L 300.247874 65.016061 
L 300.389544 69.967063 
L 300.536732 50.163056 
L 300.678558 60.065059 
L 300.825778 164.036097 
L 300.973725 65.016061 
L 301.115792 65.016061 
L 301.257522 69.967063 
L 301.54546 60.065059 
L 301.692386 60.065059 
L 301.841208 65.016061 
L 301.990187 60.065059 
L 302.132995 69.967063 
L 302.279408 55.114057 
L 302.421677 60.065059 
L 302.56757 60.065059 
L 302.708819 55.114057 
L 302.851949 55.114057 
L 303.000669 69.967063 
L 303.145972 55.114057 
L 303.294656 69.967063 
L 303.579381 50.163056 
L 303.722083 55.114057 
L 304.01022 55.114057 
L 304.152783 50.163056 
L 304.294994 69.967063 
L 304.442615 124.467325 
L 304.585884 65.016061 
L 304.72758 60.065059 
L 304.873715 69.967063 
L 305.162479 55.114057 
L 305.304949 60.065059 
L 305.447556 60.065059 
L 305.590554 65.016061 
L 305.736414 55.114057 
L 305.878382 55.114057 
L 306.020935 114.526079 
L 306.163311 55.114057 
L 306.304919 55.114057 
L 306.591856 65.016061 
L 306.734719 50.163056 
L 306.879549 69.967063 
L 307.025479 50.163056 
L 307.31638 69.967063 
L 307.608778 55.114057 
L 307.751393 55.114057 
L 307.8945 60.065059 
L 308.040087 74.918065 
L 308.331333 50.163056 
L 308.479361 129.379085 
L 308.624491 60.065059 
L 308.913505 69.967063 
L 309.062324 55.114057 
L 309.204578 60.065059 
L 309.347499 60.065059 
L 309.491436 55.114057 
L 309.640091 65.016061 
L 309.783615 55.114057 
L 309.928191 124.467325 
L 310.07424 124.467325 
L 310.220845 55.114057 
L 310.362792 60.065059 
L 310.504995 60.065059 
L 310.648279 69.967063 
L 310.793907 65.016061 
L 310.938567 55.114057 
L 311.226287 55.114057 
L 311.36761 79.869066 
L 311.652463 55.114057 
L 311.793457 65.016061 
L 311.938927 60.065059 
L 312.086318 65.016061 
L 312.228466 60.065059 
L 312.369944 60.065059 
L 312.511261 55.114057 
L 312.653284 79.869066 
L 312.798121 50.163056 
L 312.945475 65.016061 
L 313.095506 50.163056 
L 313.245069 352.174167 
L 313.39392 352.174167 
L 313.680722 50.163056 
L 313.970483 65.016061 
L 314.113187 69.967063 
L 314.254461 60.065059 
L 314.39577 119.477081 
L 314.540369 50.163056 
L 314.681889 99.673074 
L 314.823488 60.065059 
L 314.966295 55.114057 
L 315.110772 69.967063 
L 315.25942 104.624076 
L 315.406582 65.016061 
L 315.552563 60.065059 
L 315.699638 94.722072 
L 315.843209 60.065059 
L 315.991378 65.016061 
L 316.41546 65.016061 
L 316.559972 60.065059 
L 316.708059 114.526079 
L 316.857374 55.114057 
L 317.006481 60.065059 
L 317.304776 60.065059 
L 317.446931 55.114057 
L 317.595718 65.016061 
L 317.741574 65.016061 
L 317.884039 60.065059 
L 318.026854 65.016061 
L 318.170597 55.114057 
L 318.313203 60.065059 
L 318.455213 69.967063 
L 318.601281 89.77107 
L 318.750545 55.114057 
L 318.896507 79.869066 
L 319.045318 129.379085 
L 319.190872 65.016061 
L 319.33897 55.114057 
L 319.632045 79.869066 
L 319.77851 74.918065 
L 320.073099 55.114057 
L 320.368763 55.114057 
L 320.510518 50.163056 
L 320.653472 74.918065 
L 320.795961 55.114057 
L 320.937461 74.918065 
L 321.083019 69.967063 
L 321.228283 55.114057 
L 321.375819 99.673074 
L 321.517138 50.163056 
L 321.65858 65.016061 
L 321.799733 55.114057 
L 321.943789 65.016061 
L 322.092235 55.114057 
L 322.241144 60.065059 
L 322.389843 50.163056 
L 322.538509 79.869066 
L 322.827942 55.114057 
L 322.968975 55.114057 
L 323.110532 65.016061 
L 323.252614 65.016061 
L 323.401622 60.065059 
L 323.550416 69.967063 
L 323.699252 60.065059 
L 323.840736 89.633724 
L 323.982477 297.713147 
L 324.123996 74.918065 
L 324.265374 124.467325 
L 324.406632 60.065059 
L 324.547952 55.114057 
L 324.689229 65.016061 
L 324.83087 60.065059 
L 324.974671 65.016061 
L 325.269043 129.379085 
L 325.41378 65.016061 
L 325.55604 65.016061 
L 325.701716 55.114057 
L 325.844542 65.016061 
L 325.990456 60.065059 
L 326.138461 65.016061 
L 326.288395 50.163056 
L 326.438005 74.918065 
L 326.584678 59.653021 
L 326.72829 60.065059 
L 326.871927 60.065059 
L 327.020353 352.174167 
L 327.169318 352.174167 
L 327.452871 65.016061 
L 327.594803 60.065059 
L 327.737089 94.722072 
L 327.882808 65.016061 
L 328.026102 65.016061 
L 328.464942 50.163056 
L 328.611026 65.016061 
L 328.754116 60.065059 
L 328.899472 65.016061 
L 329.048142 94.722072 
L 329.194293 193.742108 
L 329.337998 55.114057 
L 329.632461 55.114057 
L 329.921042 65.016061 
L 330.211886 50.163056 
L 330.497621 65.016061 
L 330.646371 69.967063 
L 330.790697 84.820068 
L 330.934719 50.163056 
L 331.224293 60.065059 
L 331.366577 79.869066 
L 331.511712 55.114057 
L 331.654647 69.967063 
L 331.946278 55.114057 
L 332.095872 60.065059 
L 332.244041 69.967063 
L 332.387695 60.065059 
L 332.534292 69.967063 
L 332.677052 69.967063 
L 332.964653 50.163056 
L 333.106652 55.114057 
L 333.251687 149.183092 
L 333.39617 69.967063 
L 333.539701 65.016061 
L 333.6867 94.722072 
L 333.836296 55.114057 
L 333.984661 60.065059 
L 334.132231 55.114057 
L 334.277043 65.016061 
L 334.42614 55.114057 
L 334.572217 79.869066 
L 334.717426 65.016061 
L 334.866079 65.016061 
L 335.012039 60.065059 
L 335.155008 65.016061 
L 335.30391 55.114057 
L 335.449735 104.624076 
L 335.741473 60.065059 
L 335.88393 99.673074 
L 336.033047 79.869066 
L 336.320312 109.575077 
L 336.464425 55.114057 
L 336.610113 144.23209 
L 336.751663 65.016061 
L 336.899953 65.016061 
L 337.043133 79.869066 
L 337.190191 60.065059 
L 337.339452 84.820068 
L 337.488018 60.065059 
L 337.634906 65.016061 
L 337.780491 55.114057 
L 337.926625 55.114057 
L 338.075063 69.967063 
L 338.221626 55.114057 
L 338.36799 60.065059 
L 338.516386 60.065059 
L 338.659433 69.967063 
L 338.806718 55.114057 
L 338.952684 69.967063 
L 339.099211 55.114057 
L 339.246904 60.065059 
L 339.391918 60.065059 
L 339.536251 69.967063 
L 339.682067 55.114057 
L 339.975893 65.016061 
L 340.122036 55.114057 
L 340.268011 60.065059 
L 340.416229 55.114057 
L 340.564527 60.065059 
L 340.713569 154.134094 
L 340.862329 352.174167 
L 341.010813 352.174167 
L 341.303738 50.163056 
L 341.450844 94.722072 
L 341.600437 94.722072 
L 341.746315 60.065059 
L 341.892434 65.016061 
L 342.035266 65.016061 
L 342.325531 55.114057 
L 342.473016 114.526079 
L 342.614647 55.114057 
L 342.761398 65.016061 
L 342.907805 50.163056 
L 343.201713 69.967063 
L 343.346557 65.016061 
L 343.491816 69.967063 
L 343.635831 55.114057 
L 343.781163 69.967063 
L 343.926718 104.624076 
L 344.074446 60.065059 
L 344.363731 50.163056 
L 344.508151 60.065059 
L 344.801942 60.065059 
L 344.947663 50.163056 
L 345.236451 50.163056 
L 345.526303 60.065059 
L 345.672996 60.065059 
L 345.819272 55.114057 
L 345.961114 65.016061 
L 346.102357 55.114057 
L 346.243471 55.114057 
L 346.387003 60.065059 
L 346.528637 50.163056 
L 346.671831 65.016061 
L 346.957084 55.114057 
L 347.099158 55.114057 
L 347.392384 65.016061 
L 347.535779 213.546116 
L 347.677393 50.163056 
L 347.823617 69.967063 
L 348.107671 55.114057 
L 348.254495 99.673074 
L 348.396334 50.163056 
L 348.543134 60.065059 
L 348.68825 60.065059 
L 348.835362 55.114057 
L 348.976862 55.114057 
L 349.11808 50.163056 
L 349.264149 65.016061 
L 349.406328 168.987099 
L 349.548757 139.281088 
L 349.694404 55.114057 
L 349.84015 60.065059 
L 350.271231 60.065059 
L 350.41607 55.114057 
L 350.557423 65.016061 
L 350.698626 55.114057 
L 350.840307 65.016061 
L 351.130792 50.163056 
L 351.274672 65.016061 
L 351.420818 65.016061 
L 351.567427 119.477081 
L 351.711755 60.065059 
L 351.856019 69.967063 
L 352.00254 139.281088 
L 352.149249 65.016061 
L 352.295515 114.526079 
L 352.436645 74.918065 
L 352.577827 89.77107 
L 352.719101 55.114057 
L 352.861097 74.918065 
L 353.003095 60.065059 
L 353.145019 60.065059 
L 353.287287 55.114057 
L 353.429719 60.065059 
L 353.580155 50.163056 
L 353.865397 60.065059 
L 354.00736 74.918065 
L 354.303399 60.065059 
L 354.445213 60.065059 
L 354.593118 352.174167 
L 354.740214 352.174167 
L 354.889694 109.575077 
L 355.031836 65.016061 
L 355.173787 65.016061 
L 355.317446 89.77107 
L 355.463364 89.77107 
L 355.605418 55.114057 
L 355.893996 84.820068 
L 356.038056 50.163056 
L 356.180728 79.869066 
L 356.323898 65.016061 
L 356.465111 79.869066 
L 356.606502 74.918065 
L 356.898965 50.163056 
L 357.04073 109.575077 
L 357.185056 55.114057 
L 357.329306 60.065059 
L 357.770946 89.77107 
L 357.919602 55.114057 
L 358.061393 65.016061 
L 358.20467 65.016061 
L 358.346637 69.967063 
L 358.487722 69.967063 
L 358.636552 55.114057 
L 358.78284 60.065059 
L 358.927439 55.114057 
L 359.071752 65.016061 
L 359.218238 65.016061 
L 359.359984 60.065059 
L 359.645014 60.065059 
L 359.786246 69.967063 
L 359.929463 50.163056 
L 360.071016 50.163056 
L 360.357705 114.526079 
L 360.503247 60.065059 
L 360.644355 60.065059 
L 360.785364 173.938101 
L 360.926692 50.163056 
L 361.068092 65.016061 
L 361.210605 60.065059 
L 361.35883 104.624076 
L 361.503665 60.065059 
L 361.644708 99.673074 
L 361.785945 50.163056 
L 361.931177 55.114057 
L 362.073327 50.163056 
L 362.215312 60.065059 
L 362.359628 55.114057 
L 362.502657 55.114057 
L 362.644545 60.065059 
L 362.786577 55.114057 
L 362.931569 65.016061 
L 363.217755 55.114057 
L 363.361359 55.114057 
L 363.503931 60.065059 
L 363.652562 69.967063 
L 363.795992 50.163056 
L 364.081185 65.016061 
L 364.225705 50.163056 
L 364.371216 50.163056 
L 364.512422 69.967063 
L 364.654429 65.016061 
L 364.796731 89.77107 
L 365.084412 60.065059 
L 365.22836 60.065059 
L 365.371734 55.114057 
L 365.516465 55.114057 
L 365.665571 65.016061 
L 365.813978 65.016061 
L 365.963402 60.065059 
L 366.11056 65.016061 
L 366.254452 50.163056 
L 366.397604 55.114057 
L 366.68251 55.114057 
L 366.824428 65.016061 
L 366.967161 55.114057 
L 367.109822 55.114057 
L 367.25276 60.065059 
L 367.395831 69.967063 
L 367.539849 65.016061 
L 367.684905 55.114057 
L 367.829045 55.114057 
L 367.974007 65.016061 
L 368.118775 55.114057 
L 368.263309 114.526079 
L 368.410214 352.174167 
L 368.552775 352.174167 
L 368.846723 79.869066 
L 368.995853 114.526079 
L 369.141343 99.673074 
L 369.284762 139.281088 
L 369.434387 89.77107 
L 369.584176 134.330087 
L 369.875754 69.967063 
L 370.018779 65.016061 
L 370.166385 104.624076 
L 370.311452 65.016061 
L 370.456333 65.016061 
L 370.599066 69.967063 
L 370.740719 69.967063 
L 370.883112 84.820068 
L 371.173086 60.065059 
L 371.316707 74.918065 
L 371.458455 203.644112 
L 371.600886 60.065059 
L 371.743702 55.114057 
L 371.885513 119.477081 
L 372.027802 60.065059 
L 372.169878 50.163056 
L 372.318406 69.967063 
L 372.467181 50.163056 
L 372.616388 223.448119 
L 372.757411 69.967063 
L 372.902832 54.541782 
L 373.049938 55.114057 
L 373.19961 50.163056 
L 373.348341 50.163056 
L 373.496701 154.134094 
L 373.64082 69.967063 
L 373.787219 55.114057 
L 373.92893 65.016061 
L 374.070208 50.163056 
L 374.212437 134.330087 
L 374.356561 60.065059 
L 374.502018 60.065059 
L 374.64359 50.163056 
L 374.786362 55.114057 
L 374.930803 84.820068 
L 375.073232 60.065059 
L 375.21533 55.114057 
L 375.357508 60.065059 
L 375.499125 50.163056 
L 375.646761 60.065059 
L 375.939017 60.065059 
L 376.080907 55.114057 
L 376.22272 60.065059 
L 376.365363 60.065059 
L 376.510459 188.791107 
L 376.651583 69.967063 
L 376.793209 55.114057 
L 376.940507 65.016061 
L 377.224292 65.016061 
L 377.366283 60.065059 
L 377.508532 50.163056 
L 377.655258 65.016061 
L 377.80403 50.163056 
L 378.097698 60.065059 
L 378.534334 60.065059 
L 378.829136 50.163056 
L 378.977328 193.742108 
L 379.122733 60.065059 
L 379.264086 55.114057 
L 379.405164 55.114057 
L 379.550269 60.065059 
L 379.694659 60.065059 
L 379.835795 65.016061 
L 379.976912 65.016061 
L 380.117968 119.477081 
L 380.259188 50.163056 
L 380.407111 50.163056 
L 380.553095 74.918065 
L 380.696423 55.114057 
L 380.839657 65.016061 
L 380.980722 50.163056 
L 381.121797 60.065059 
L 381.262991 60.065059 
L 381.405008 55.114057 
L 381.545969 55.114057 
L 381.687498 74.918065 
L 381.828725 69.967063 
L 381.96986 60.065059 
L 382.111163 352.174167 
L 382.553421 352.174167 
L 382.695441 55.114057 
L 382.836609 134.330087 
L 382.980894 50.163056 
L 383.263366 60.065059 
L 383.40454 60.065059 
L 383.545615 84.820068 
L 383.689461 144.23209 
L 383.830572 60.065059 
L 383.971806 65.016061 
L 384.112858 60.065059 
L 384.399931 99.673074 
L 384.549426 69.967063 
L 384.698423 109.575077 
L 384.840346 50.163056 
L 384.981417 55.114057 
L 385.123139 109.575077 
L 385.26554 84.820068 
L 385.411183 129.379085 
L 385.843742 50.163056 
L 385.985009 55.114057 
L 386.126422 55.114057 
L 386.268484 60.065059 
L 386.414108 159.085096 
L 386.556736 55.114057 
L 386.702944 60.065059 
L 386.849343 69.967063 
L 386.99671 164.036097 
L 387.1434 60.065059 
L 387.285821 50.163056 
L 387.572304 65.016061 
L 387.713701 55.114057 
L 387.854975 55.114057 
L 388.14969 79.869066 
L 388.294817 124.467325 
L 388.444033 55.114057 
L 388.586551 55.114057 
L 388.729802 60.065059 
L 388.873939 55.114057 
L 389.01977 60.065059 
L 389.166364 60.065059 
L 389.311982 55.114057 
L 389.45474 55.114057 
L 389.596909 60.065059 
L 389.745387 74.918065 
L 389.889499 65.016061 
L 390.039975 69.967063 
L 390.181997 50.163056 
L 390.323976 109.575077 
L 390.608995 55.114057 
L 390.750939 55.114057 
L 390.892745 60.065059 
L 391.037115 74.918065 
L 391.179376 74.918065 
L 391.467271 50.163056 
L 391.609157 60.065059 
L 391.7547 55.114057 
L 391.90425 60.065059 
L 392.188306 60.065059 
L 392.33163 55.114057 
L 392.623565 69.967063 
L 392.907489 50.163056 
L 393.054182 50.163056 
L 393.197531 55.114057 
L 393.340985 89.77107 
L 393.626113 50.163056 
L 393.913238 134.330087 
L 394.055253 60.065059 
L 394.197097 213.546116 
L 394.338902 60.065059 
L 394.488853 60.065059 
L 394.634731 55.114057 
L 394.780377 60.065059 
L 394.926082 55.114057 
L 395.06856 65.016061 
L 395.218173 50.163056 
L 395.360344 50.163056 
L 395.645544 60.065059 
L 395.787551 55.114057 
L 395.929333 352.174167 
L 396.22273 352.174167 
L 396.370063 307.61515 
L 396.518071 60.065059 
L 396.819856 50.163056 
L 396.97098 60.065059 
L 397.261107 60.065059 
L 397.403232 50.163056 
L 397.547793 65.016061 
L 397.689989 60.065059 
L 397.838127 60.065059 
L 397.989714 65.016061 
L 398.140298 65.016061 
L 398.282179 50.163056 
L 398.572893 65.016061 
L 398.722298 89.77107 
L 399.022823 55.114057 
L 399.173081 55.114057 
L 399.316097 50.163056 
L 399.458215 55.114057 
L 399.600111 65.016061 
L 399.744433 60.065059 
L 399.892833 50.163056 
L 400.03607 60.065059 
L 400.179065 60.065059 
L 400.321148 74.918065 
L 400.464676 60.065059 
L 400.747328 60.065059 
L 400.889853 69.967063 
L 401.032037 55.114057 
L 401.600133 55.114057 
L 401.742064 65.016061 
L 401.890614 99.673074 
L 402.033974 55.114057 
L 402.17829 55.114057 
L 402.321522 60.065059 
L 402.464227 55.114057 
L 402.606968 69.967063 
L 402.75632 65.016061 
L 402.902857 134.330087 
L 403.047406 60.065059 
L 403.342405 60.065059 
L 403.4884 94.722072 
L 403.637646 312.566152 
L 403.786491 134.330087 
L 404.078777 65.016061 
L 404.224751 60.065059 
L 404.369076 154.134094 
L 404.517411 50.163056 
L 404.813417 74.918065 
L 404.957681 69.967063 
L 405.104018 60.065059 
L 405.246309 69.967063 
L 405.391051 55.114057 
L 405.540354 69.967063 
L 405.689112 69.967063 
L 405.836395 60.065059 
L 406.126266 60.065059 
L 406.271618 65.016061 
L 406.415963 55.114057 
L 406.560465 60.065059 
L 406.70521 60.065059 
L 406.850168 50.163056 
L 407.140197 60.065059 
L 407.289321 55.114057 
L 407.438344 69.967063 
L 407.877327 55.114057 
L 408.021419 84.820068 
L 408.165784 55.114057 
L 408.454861 69.967063 
L 408.602588 50.163056 
L 408.749705 124.467325 
L 408.896945 60.065059 
L 409.039666 60.065059 
L 409.18098 114.526079 
L 409.321934 50.163056 
L 409.465303 55.114057 
L 409.607711 65.016061 
L 409.749942 352.174167 
L 410.047343 352.174167 
L 410.196042 94.722072 
L 410.344753 50.163056 
L 410.493013 50.163056 
L 410.641641 65.016061 
L 410.927951 50.163056 
L 411.075878 74.918065 
L 411.224463 193.742108 
L 411.36717 84.820068 
L 411.514045 65.016061 
L 411.662253 149.183092 
L 411.804596 69.967063 
L 411.945888 60.065059 
L 412.091897 65.016061 
L 412.235258 119.477081 
L 412.381145 69.967063 
L 412.530087 129.379085 
L 412.672184 60.065059 
L 412.817421 79.869066 
L 412.963524 124.467325 
L 413.110212 55.114057 
L 413.252743 65.016061 
L 413.397349 60.065059 
L 413.542145 69.967063 
L 413.689011 65.016061 
L 413.83391 55.114057 
L 413.98175 60.065059 
L 414.128768 69.967063 
L 414.276304 139.281088 
L 414.41956 65.016061 
L 414.707844 65.016061 
L 414.855344 79.869066 
L 414.999506 69.967063 
L 415.148027 89.77107 
L 415.292112 164.036097 
L 415.580144 60.065059 
L 415.723858 50.163056 
L 415.869852 55.114057 
L 416.016003 164.036097 
L 416.162523 69.967063 
L 416.311128 84.820068 
L 416.452889 60.065059 
L 416.602197 119.477081 
L 416.748398 55.114057 
L 416.895875 149.183092 
L 417.040336 50.163056 
L 417.18845 114.526079 
L 417.481008 65.016061 
L 417.625551 60.065059 
L 417.772658 65.016061 
L 417.922524 129.379085 
L 418.06824 55.114057 
L 418.350514 149.183092 
L 418.491435 69.967063 
L 418.636798 74.918065 
L 418.782302 55.114057 
L 419.064351 65.016061 
L 419.350286 89.77107 
L 419.498241 50.163056 
L 419.645448 60.065059 
L 419.78945 79.869066 
L 419.930353 50.163056 
L 420.07376 65.016061 
L 420.22135 55.114057 
L 420.369065 134.330087 
L 420.510282 94.722072 
L 420.658616 94.722072 
L 420.802464 124.467325 
L 421.089753 60.065059 
L 421.234794 65.016061 
L 421.378983 99.673074 
L 421.526139 65.016061 
L 421.667944 60.065059 
L 421.81101 74.918065 
L 421.952456 55.114057 
L 422.093535 183.840105 
L 422.234394 55.114057 
L 422.37665 55.114057 
L 422.520658 74.918065 
L 422.663043 60.065059 
L 422.808297 79.73172 
L 422.957156 65.016061 
L 423.103724 65.016061 
L 423.389175 50.163056 
L 423.533649 352.174167 
L 423.826839 352.174167 
L 423.973962 74.918065 
L 424.117156 60.065059 
L 424.26503 129.379085 
L 424.556226 55.114057 
L 424.845267 104.624076 
L 424.991665 154.134094 
L 425.136431 74.918065 
L 425.280289 60.065059 
L 425.423592 65.016061 
L 425.712903 50.163056 
L 425.859516 50.163056 
L 426.006523 65.016061 
L 426.153055 55.114057 
L 426.29698 55.114057 
L 426.583359 74.918065 
L 426.72482 60.065059 
L 427.010034 60.065059 
L 427.15654 55.114057 
L 427.2983 55.114057 
L 427.439765 50.163056 
L 427.727469 69.967063 
L 427.872885 60.065059 
L 428.015127 65.016061 
L 428.156787 74.918065 
L 428.300035 60.065059 
L 428.441296 60.065059 
L 428.582575 55.114057 
L 428.724103 79.869066 
L 428.865344 55.114057 
L 429.006623 84.820068 
L 429.147845 55.114057 
L 429.291969 99.673074 
L 429.579425 55.114057 
L 429.721902 119.477081 
L 429.864355 50.163056 
L 430.008195 60.065059 
L 430.156527 50.163056 
L 430.305242 50.163056 
L 430.446367 69.967063 
L 430.588967 65.016061 
L 430.733455 55.114057 
L 430.878586 60.065059 
L 431.029023 55.114057 
L 431.17485 65.016061 
L 431.466859 55.114057 
L 431.609558 55.114057 
L 431.751517 65.016061 
L 431.897427 55.114057 
L 432.039105 69.967063 
L 432.180835 55.114057 
L 432.322345 60.065059 
L 432.472414 55.114057 
L 433.190715 55.114057 
L 433.341721 60.065059 
L 433.493021 69.967063 
L 433.638997 55.114057 
L 433.7807 55.114057 
L 433.92273 84.820068 
L 434.069491 65.016061 
L 434.213138 79.869066 
L 434.356161 55.114057 
L 434.498181 55.114057 
L 434.639555 50.163056 
L 434.780641 50.163056 
L 434.92167 60.065059 
L 435.063586 60.065059 
L 435.205474 55.114057 
L 435.347916 65.016061 
L 435.635949 50.163056 
L 435.778176 50.163056 
L 435.923933 55.114057 
L 436.068413 55.114057 
L 436.212471 60.065059 
L 436.355253 60.065059 
L 436.500057 50.163056 
L 436.641895 119.477081 
L 436.78732 55.114057 
L 436.936769 55.114057 
L 437.087784 60.065059 
L 437.239144 55.114057 
L 437.388165 352.174167 
L 437.684655 352.174167 
L 437.83592 60.065059 
L 437.977857 50.163056 
L 438.119517 69.967063 
L 438.261525 60.065059 
L 438.403466 60.065059 
L 438.545839 55.114057 
L 438.691186 119.477081 
L 438.836316 60.065059 
L 438.98255 60.065059 
L 439.127779 74.918065 
L 439.274471 50.163056 
L 439.416261 60.065059 
L 439.558315 119.477081 
L 439.700252 74.918065 
L 439.842025 109.575077 
L 439.983813 69.967063 
L 440.125663 65.016061 
L 440.267481 79.869066 
L 440.409208 60.065059 
L 440.555057 69.967063 
L 440.701009 60.065059 
L 440.84668 60.065059 
L 440.994558 69.967063 
L 441.13935 65.016061 
L 441.287556 65.016061 
L 441.428962 55.114057 
L 441.570647 84.820068 
L 441.712725 154.134094 
L 441.854948 60.065059 
L 442.143336 84.820068 
L 442.428109 55.114057 
L 442.570483 193.742108 
L 442.714728 55.114057 
L 442.860601 60.065059 
L 443.007598 55.114057 
L 443.149334 55.114057 
L 443.43573 79.869066 
L 443.578266 60.065059 
L 443.723184 79.869066 
L 443.864949 60.065059 
L 444.007403 69.967063 
L 444.150881 55.114057 
L 444.293755 69.967063 
L 444.437152 65.016061 
L 444.580518 193.742108 
L 444.723006 69.967063 
L 444.866066 129.379085 
L 445.007842 50.163056 
L 445.153728 84.820068 
L 445.302564 228.399121 
L 445.447691 55.114057 
L 445.593054 79.869066 
L 445.883565 55.114057 
L 446.16829 65.016061 
L 446.314741 74.918065 
L 446.461066 55.114057 
L 446.602038 74.918065 
L 446.7429 55.114057 
L 447.028646 65.016061 
L 447.170352 74.918065 
L 447.457284 124.467325 
L 447.605677 139.281088 
L 447.755451 50.163056 
L 447.903212 60.065059 
L 448.045398 60.065059 
L 448.186817 74.780719 
L 448.469377 55.114057 
L 448.611345 65.016061 
L 448.753157 55.114057 
L 448.895852 55.114057 
L 449.038667 74.918065 
L 449.180972 55.114057 
L 449.325083 60.065059 
L 449.466557 60.065059 
L 449.60973 64.878715 
L 449.751837 55.114057 
L 449.895114 60.065059 
L 450.040764 60.065059 
L 450.186113 65.016061 
L 450.327218 50.163056 
L 450.75311 65.016061 
L 450.894991 74.918065 
L 451.037078 55.114057 
L 451.179562 352.174167 
L 451.477325 352.174167 
L 451.618769 55.114057 
L 451.761427 65.016061 
L 451.903194 60.065059 
L 452.044164 168.987099 
L 452.185951 69.967063 
L 452.328289 65.016061 
L 452.469703 55.114057 
L 452.612785 144.23209 
L 452.755501 60.065059 
L 452.898666 144.23209 
L 453.045321 69.967063 
L 453.188225 233.350123 
L 453.334866 65.016061 
L 453.48178 89.198794 
L 453.628233 139.281088 
L 453.774331 119.477081 
L 453.918068 60.065059 
L 454.059086 124.467325 
L 454.200947 65.016061 
L 454.343458 193.742108 
L 454.490521 69.967063 
L 454.63726 154.134094 
L 454.78409 65.016061 
L 454.929692 119.477081 
L 455.071769 60.065059 
L 455.216053 173.938101 
L 455.363526 60.065059 
L 455.804535 74.918065 
L 455.946802 60.065059 
L 456.090685 60.065059 
L 456.235453 55.114057 
L 456.379923 65.016061 
L 456.668598 119.477081 
L 456.812888 60.065059 
L 457.104963 60.065059 
L 457.247422 55.114057 
L 457.393653 69.967063 
L 457.542895 60.065059 
L 457.688573 104.624076 
L 457.833379 253.15413 
L 457.975862 60.065059 
L 458.119792 74.918065 
L 458.26281 60.065059 
L 458.40755 65.016061 
L 458.552632 65.016061 
L 458.70061 74.918065 
L 458.846681 55.114057 
L 459.282385 55.114057 
L 459.424873 94.722072 
L 459.568406 89.77107 
L 459.71384 65.016061 
L 460.010527 65.016061 
L 460.152254 55.114057 
L 460.294962 60.065059 
L 460.437587 154.134094 
L 460.580427 60.065059 
L 460.86742 60.065059 
L 461.008706 65.016061 
L 461.152514 55.114057 
L 461.435478 65.016061 
L 461.576728 60.065059 
L 461.717671 60.065059 
L 461.85973 65.016061 
L 462.001674 55.114057 
L 462.142774 79.869066 
L 462.430134 55.114057 
L 462.571381 50.163056 
L 462.713277 74.918065 
L 462.855232 69.967063 
L 462.996836 99.673074 
L 463.138885 60.065059 
L 463.280206 55.114057 
L 463.421614 60.065059 
L 463.567536 60.065059 
L 463.714457 65.016061 
L 463.860738 55.114057 
L 464.008657 60.065059 
L 464.153509 69.967063 
L 464.301465 55.114057 
L 464.447388 84.820068 
L 464.595147 55.114057 
L 464.740357 60.065059 
L 464.886064 154.134094 
L 465.036968 352.174167 
L 465.185768 352.174167 
L 465.335136 55.114057 
L 465.482743 144.23209 
L 465.629423 69.967063 
L 465.774214 55.114057 
L 465.921231 65.016061 
L 466.067829 60.065059 
L 466.215957 65.016061 
L 466.357464 84.820068 
L 466.498813 50.163056 
L 466.782569 60.065059 
L 466.924581 50.163056 
L 467.06641 134.330087 
L 467.208357 60.065059 
L 467.352566 60.065059 
L 467.494533 55.114057 
L 467.638218 60.065059 
L 467.779718 55.114057 
L 467.922066 65.016061 
L 468.063883 55.114057 
L 468.205683 65.016061 
L 468.489366 55.114057 
L 468.791496 119.477081 
L 468.936141 60.065059 
L 469.078028 60.065059 
L 469.22242 65.016061 
L 469.51263 55.114057 
L 469.655265 55.114057 
L 469.804256 50.163056 
L 470.091977 65.016061 
L 470.375067 50.163056 
L 470.51639 55.114057 
L 470.659177 154.134094 
L 470.803392 79.869066 
L 470.945038 84.820068 
L 471.08633 50.163056 
L 471.230227 65.016061 
L 471.372547 55.114057 
L 471.515781 60.065059 
L 471.658879 69.967063 
L 471.80198 65.016061 
L 471.944114 55.114057 
L 472.08897 60.065059 
L 472.233921 99.673074 
L 472.377849 60.065059 
L 472.521743 74.918065 
L 472.80508 55.114057 
L 472.947427 164.036097 
L 473.237302 69.967063 
L 473.381484 69.967063 
L 473.528409 65.016061 
L 473.669518 109.575077 
L 473.810667 55.114057 
L 473.954856 69.967063 
L 474.096483 65.016061 
L 474.238351 69.967063 
L 474.384634 69.967063 
L 474.52934 84.820068 
L 474.674182 55.114057 
L 474.960251 55.114057 
L 475.101356 50.163056 
L 475.244655 144.23209 
L 475.385863 55.114057 
L 475.668447 89.77107 
L 475.809624 69.967063 
L 475.955303 89.77107 
L 476.244025 65.016061 
L 476.387022 74.780719 
L 476.52908 168.987099 
L 476.671132 60.065059 
L 476.812391 60.065059 
L 476.956559 69.967063 
L 477.241685 69.967063 
L 477.383161 55.114057 
L 477.524398 99.673074 
L 477.666239 65.016061 
L 477.80793 65.016061 
L 477.950757 50.163056 
L 478.092913 213.546116 
L 478.234739 50.163056 
L 478.376311 50.163056 
L 478.518705 60.065059 
L 478.661195 149.183092 
L 478.805567 352.174167 
L 478.954505 352.174167 
L 479.251945 55.114057 
L 479.400723 50.163056 
L 479.548797 60.065059 
L 479.697927 55.114057 
L 479.84691 55.114057 
L 480.13855 69.967063 
L 480.567312 55.114057 
L 480.710095 65.016061 
L 480.853376 55.114057 
L 480.999223 55.114057 
L 481.143174 89.77107 
L 481.285563 79.869066 
L 481.427256 55.114057 
L 481.568878 228.399121 
L 481.710455 50.163056 
L 481.852437 60.065059 
L 481.995057 99.673074 
L 482.136415 60.065059 
L 482.57008 60.065059 
L 482.714269 50.163056 
L 482.857928 60.065059 
L 483.000288 50.163056 
L 483.142506 60.065059 
L 483.284484 55.114057 
L 483.427838 60.065059 
L 483.570363 74.918065 
L 483.719085 55.114057 
L 483.867664 60.065059 
L 484.010683 60.065059 
L 484.155392 69.967063 
L 484.297942 55.114057 
L 484.439805 60.065059 
L 484.58192 69.967063 
L 484.723886 65.016061 
L 484.865967 69.967063 
L 485.008668 55.114057 
L 485.152478 69.967063 
L 485.303236 65.016061 
L 485.448585 55.114057 
L 485.592558 69.967063 
L 485.734403 109.575077 
L 485.879598 60.065059 
L 486.023419 55.114057 
L 486.164956 89.77107 
L 486.306857 263.056134 
L 486.453466 69.967063 
L 486.597943 60.065059 
L 486.740344 74.918065 
L 486.881599 55.114057 
L 487.024698 60.065059 
L 487.167271 60.065059 
L 487.310035 99.673074 
L 487.451792 65.016061 
L 487.59661 60.065059 
L 487.755062 60.065059 
L 487.899784 74.918065 
L 488.045854 55.114057 
L 488.188483 55.114057 
L 488.33547 173.938101 
L 488.48425 74.918065 
L 488.628813 84.820068 
L 488.777542 65.016061 
L 488.928173 60.065059 
L 489.070765 50.163056 
L 489.363336 65.016061 
L 489.508949 50.163056 
L 489.6503 65.016061 
L 489.791378 65.016061 
L 489.93327 50.163056 
L 490.075447 55.114057 
L 490.217275 104.624076 
L 490.360065 79.869066 
L 490.501569 74.918065 
L 490.64585 164.036097 
L 490.795111 60.065059 
L 490.943391 60.065059 
L 491.087519 50.163056 
L 491.228792 79.869066 
L 491.371018 79.869066 
L 491.514636 55.114057 
L 491.663521 79.869066 
L 491.962176 55.114057 
L 492.25849 55.114057 
L 492.401131 60.065059 
L 492.542726 352.174167 
L 492.989503 352.174167 
L 493.138126 60.065059 
L 493.286169 129.379085 
L 493.430839 129.379085 
L 493.716382 55.114057 
L 493.864826 65.016061 
L 494.00866 60.065059 
L 494.156508 65.016061 
L 494.2977 74.918065 
L 494.442953 55.114057 
L 494.586918 60.065059 
L 494.731512 60.065059 
L 495.023099 69.967063 
L 495.167915 89.77107 
L 495.309495 89.77107 
L 495.595179 50.163056 
L 495.739983 69.967063 
L 495.881962 55.114057 
L 496.023589 69.967063 
L 496.170689 124.467325 
L 496.314613 104.624076 
L 496.462737 65.016061 
L 496.607085 69.967063 
L 496.753639 114.526079 
L 497.051442 55.114057 
L 497.200108 55.114057 
L 497.349817 60.065059 
L 497.493027 69.967063 
L 497.637606 55.114057 
L 497.783689 65.016061 
L 497.929364 60.065059 
L 498.073603 164.036097 
L 498.216712 69.967063 
L 498.359347 60.065059 
L 498.653683 69.967063 
L 498.798205 60.065059 
L 498.939304 65.016061 
L 499.080405 119.477081 
L 499.22925 69.967063 
L 499.370518 60.065059 
L 499.512437 65.016061 
L 499.654186 55.114057 
L 499.800338 69.967063 
L 499.94882 65.016061 
L 500.090584 99.673074 
L 500.380473 55.114057 
L 500.527231 69.967063 
L 500.670739 60.065059 
L 500.812818 129.379085 
L 501.239743 55.114057 
L 501.381346 55.114057 
L 501.52217 65.016061 
L 501.663752 60.065059 
L 501.953892 159.085096 
L 502.101138 50.163056 
L 502.250573 55.114057 
L 502.543808 84.820068 
L 502.689075 144.23209 
L 502.835311 60.065059 
L 502.981044 168.987099 
L 503.12214 69.967063 
L 503.263298 55.114057 
L 503.404488 65.016061 
L 503.5516 55.114057 
L 503.694192 69.967063 
L 503.838393 55.114057 
L 504.126327 84.820068 
L 504.274312 60.065059 
L 504.421199 55.114057 
L 504.566857 55.114057 
L 504.715403 79.869066 
L 504.859093 50.163056 
L 505.003285 65.016061 
L 505.152641 55.114057 
L 505.298933 55.114057 
L 505.444297 50.163056 
L 505.738822 65.016061 
L 506.033856 124.467325 
L 506.179338 69.967063 
L 506.472207 352.174167 
L 506.767618 352.174167 
L 506.91032 50.163056 
L 507.055258 104.624076 
L 507.200809 50.163056 
L 507.350273 60.065059 
L 507.498264 60.065059 
L 507.64882 50.163056 
L 507.93579 94.722072 
L 508.077098 50.163056 
L 508.366113 65.016061 
L 508.797278 65.016061 
L 508.940229 55.114057 
L 509.230123 65.016061 
L 509.374279 74.918065 
L 509.518333 55.114057 
L 509.661756 69.967063 
L 509.803681 50.163056 
L 509.948269 55.114057 
L 510.09019 65.016061 
L 510.23287 65.016061 
L 510.531088 50.163056 
L 510.676394 79.869066 
L 510.823854 74.918065 
L 510.972347 60.065059 
L 511.119741 69.967063 
L 511.264672 60.065059 
L 511.411916 65.016061 
L 511.559343 119.477081 
L 511.701163 60.065059 
L 511.844372 129.379085 
L 511.990389 104.624076 
L 512.133703 55.114057 
L 512.276505 60.065059 
L 512.421859 55.114057 
L 512.568913 65.016061 
L 512.71683 84.820068 
L 513.004268 55.114057 
L 513.147653 60.065059 
L 513.292287 55.114057 
L 513.585325 55.114057 
L 513.731745 60.065059 
L 513.879617 50.163056 
L 514.021501 55.114057 
L 514.163251 139.281088 
L 514.306218 60.065059 
L 514.454481 60.065059 
L 514.602869 84.820068 
L 514.886331 50.163056 
L 515.030992 193.742108 
L 515.318975 60.065059 
L 515.460166 50.163056 
L 515.607878 60.065059 
L 515.751891 55.114057 
L 516.040392 55.114057 
L 516.187541 50.163056 
L 516.334685 55.114057 
L 516.479222 55.114057 
L 516.62377 69.967063 
L 516.766812 55.114057 
L 516.913902 64.878715 
L 517.05866 60.065059 
L 517.201494 60.065059 
L 517.347571 65.016061 
L 517.489408 50.163056 
L 517.636348 65.016061 
L 517.78615 50.163056 
L 517.929094 60.065059 
L 518.073599 60.065059 
L 518.218559 55.114057 
L 518.364059 60.065059 
L 518.508019 69.967063 
L 518.652035 213.546116 
L 518.795635 55.114057 
L 519.226754 55.114057 
L 519.511334 65.016061 
L 519.654446 65.016061 
L 519.795915 60.065059 
L 519.941602 60.065059 
L 520.087646 119.477081 
L 520.228816 352.174167 
L 520.519417 352.174167 
L 520.660491 65.016061 
L 520.801611 55.114057 
L 520.942533 55.114057 
L 521.083596 89.77107 
L 521.224652 65.016061 
L 521.224652 65.016061 
" style="fill:none;stroke:#1f77b4;stroke-linecap:square;stroke-width:1.5;"/>
   </g>
   <g id="patch_3">
    <path d="M 111.527031 352.174167 
L 111.527031 35.0625 
" style="fill:none;stroke:#000000;stroke-linecap:square;stroke-linejoin:miter;stroke-width:0.8;"/>
   </g>
   <g id="patch_4">
    <path d="M 540.734062 352.174167 
L 540.734062 35.0625 
" style="fill:none;stroke:#000000;stroke-linecap:square;stroke-linejoin:miter;stroke-width:0.8;"/>
   </g>
   <g id="patch_5">
    <path d="M 111.527031 352.174167 
L 540.734062 352.174167 
" style="fill:none;stroke:#000000;stroke-linecap:square;stroke-linejoin:miter;stroke-width:0.8;"/>
   </g>
   <g id="patch_6">
    <path d="M 111.527031 35.0625 
L 540.734062 35.0625 
" style="fill:none;stroke:#000000;stroke-linecap:square;stroke-linejoin:miter;stroke-width:0.8;"/>
   </g>
   <g id="legend_1">
    <g id="patch_7">
     <path d="M 564.194414 63.938438 
L 628.069414 63.938438 
Q 630.069414 63.938438 630.069414 61.938438 
L 630.069414 37.0625 
Q 630.069414 35.0625 628.069414 35.0625 
L 564.194414 35.0625 
Q 562.194414 35.0625 562.194414 37.0625 
L 562.194414 61.938438 
Q 562.194414 63.938438 564.194414 63.938438 
z
" style="fill:#ffffff;opacity:0.8;stroke:#cccccc;stroke-linejoin:miter;"/>
    </g>
    <g id="line2d_14">
     <path d="M 566.194414 49.799688 
L 586.194414 49.799688 
" style="fill:none;stroke:#1f77b4;stroke-linecap:square;stroke-width:1.5;"/>
    </g>
    <g id="line2d_15"/>
    <g id="text_14">
     <!-- queue -->
     <g transform="translate(594.194414 46.660937)scale(0.1 -0.1)">
      <use xlink:href="#DejaVuSans-113"/>
      <use x="63.476562" xlink:href="#DejaVuSans-117"/>
      <use x="126.855469" xlink:href="#DejaVuSans-101"/>
      <use x="188.378906" xlink:href="#DejaVuSans-117"/>
      <use x="251.757812" xlink:href="#DejaVuSans-101"/>
     </g>
     <!-- length -->
     <defs>
      <path d="M 9.421875 75.984375 
L 18.40625 75.984375 
L 18.40625 0 
L 9.421875 0 
z
" id="DejaVuSans-108"/>
      <path d="M 54.890625 33.015625 
L 54.890625 0 
L 45.90625 0 
L 45.90625 32.71875 
Q 45.90625 40.484375 42.875 44.328125 
Q 39.84375 48.1875 33.796875 48.1875 
Q 26.515625 48.1875 22.3125 43.546875 
Q 18.109375 38.921875 18.109375 30.90625 
L 18.109375 0 
L 9.078125 0 
L 9.078125 54.6875 
L 18.109375 54.6875 
L 18.109375 46.1875 
Q 21.34375 51.125 25.703125 53.5625 
Q 30.078125 56 35.796875 56 
Q 45.21875 56 50.046875 50.171875 
Q 54.890625 44.34375 54.890625 33.015625 
z
" id="DejaVuSans-110"/>
      <path d="M 45.40625 27.984375 
Q 45.40625 37.75 41.375 43.109375 
Q 37.359375 48.484375 30.078125 48.484375 
Q 22.859375 48.484375 18.828125 43.109375 
Q 14.796875 37.75 14.796875 27.984375 
Q 14.796875 18.265625 18.828125 12.890625 
Q 22.859375 7.515625 30.078125 7.515625 
Q 37.359375 7.515625 41.375 12.890625 
Q 45.40625 18.265625 45.40625 27.984375 
z
M 54.390625 6.78125 
Q 54.390625 -7.171875 48.1875 -13.984375 
Q 42 -20.796875 29.203125 -20.796875 
Q 24.46875 -20.796875 20.265625 -20.09375 
Q 16.0625 -19.390625 12.109375 -17.921875 
L 12.109375 -9.1875 
Q 16.0625 -11.328125 19.921875 -12.34375 
Q 23.78125 -13.375 27.78125 -13.375 
Q 36.625 -13.375 41.015625 -8.765625 
Q 45.40625 -4.15625 45.40625 5.171875 
L 45.40625 9.625 
Q 42.625 4.78125 38.28125 2.390625 
Q 33.9375 0 27.875 0 
Q 17.828125 0 11.671875 7.65625 
Q 5.515625 15.328125 5.515625 27.984375 
Q 5.515625 40.671875 11.671875 48.328125 
Q 17.828125 56 27.875 56 
Q 33.9375 56 38.28125 53.609375 
Q 42.625 51.21875 45.40625 46.390625 
L 45.40625 54.6875 
L 54.390625 54.6875 
z
" id="DejaVuSans-103"/>
      <path d="M 54.890625 33.015625 
L 54.890625 0 
L 45.90625 0 
L 45.90625 32.71875 
Q 45.90625 40.484375 42.875 44.328125 
Q 39.84375 48.1875 33.796875 48.1875 
Q 26.515625 48.1875 22.3125 43.546875 
Q 18.109375 38.921875 18.109375 30.90625 
L 18.109375 0 
L 9.078125 0 
L 9.078125 75.984375 
L 18.109375 75.984375 
L 18.109375 46.1875 
Q 21.34375 51.125 25.703125 53.5625 
Q 30.078125 56 35.796875 56 
Q 45.21875 56 50.046875 50.171875 
Q 54.890625 44.34375 54.890625 33.015625 
z
" id="DejaVuSans-104"/>
     </defs>
     <g transform="translate(594.194414 57.85875)scale(0.1 -0.1)">
      <use xlink:href="#DejaVuSans-108"/>
      <use x="27.783203" xlink:href="#DejaVuSans-101"/>
      <use x="89.306641" xlink:href="#DejaVuSans-110"/>
      <use x="152.685547" xlink:href="#DejaVuSans-103"/>
      <use x="216.162109" xlink:href="#DejaVuSans-116"/>
      <use x="255.371094" xlink:href="#DejaVuSans-104"/>
     </g>
    </g>
   </g>
  </g>
  <g id="text_15">
   <!-- result queue (bytes) -->
   <defs>
    <path d="M 41.109375 46.296875 
Q 39.59375 47.171875 37.8125 47.578125 
Q 36.03125 48 33.890625 48 
Q 26.265625 48 22.1875 43.046875 
Q 18.109375 38.09375 18.109375 28.8125 
L 18.109375 0 
L 9.078125 0 
L 9.078125 54.6875 
L 18.109375 54.6875 
L 18.109375 46.1875 
Q 20.953125 51.171875 25.484375 53.578125 
Q 30.03125 56 36.53125 56 
Q 37.453125 56 38.578125 55.875 
Q 39.703125 55.765625 41.0625 55.515625 
z
" id="DejaVuSans-114"/>
    <path id="DejaVuSans-32"/>
   </defs>
   <g transform="translate(281.072812 17.038125)scale(0.12 -0.12)">
    <use xlink:href="#DejaVuSans-114"/>
    <use x="41.082031" xlink:href="#DejaVuSans-101"/>
    <use x="102.605469" xlink:href="#DejaVuSans-115"/>
    <use x="154.705078" xlink:href="#DejaVuSans-117"/>
    <use x="218.083984" xlink:href="#DejaVuSans-108"/>
    <use x="245.867188" xlink:href="#DejaVuSans-116"/>
    <use x="285.076172" xlink:href="#DejaVuSans-32"/>
    <use x="316.863281" xlink:href="#DejaVuSans-113"/>
    <use x="380.339844" xlink:href="#DejaVuSans-117"/>
    <use x="443.71875" xlink:href="#DejaVuSans-101"/>
    <use x="505.242188" xlink:href="#DejaVuSans-117"/>
    <use x="568.621094" xlink:href="#DejaVuSans-101"/>
    <use x="630.144531" xlink:href="#DejaVuSans-32"/>
    <use x="661.931641" xlink:href="#DejaVuSans-40"/>
    <use x="700.945312" xlink:href="#DejaVuSans-98"/>
    <use x="764.421875" xlink:href="#DejaVuSans-121"/>
    <use x="823.601562" xlink:href="#DejaVuSans-116"/>
    <use x="862.810547" xlink:href="#DejaVuSans-101"/>
    <use x="924.333984" xlink:href="#DejaVuSans-115"/>
    <use x="976.433594" xlink:href="#DejaVuSans-41"/>
   </g>
  </g>
 </g>
 <defs>
  <clipPath id="p8d7b67b142">
   <rect height="317.111667" width="429.207031" x="111.527031" y="35.0625"/>
  </clipPath>
 </defs>
</svg>
