<?xml version="1.0" encoding="utf-8" standalone="no"?>
<!DOCTYPE svg PUBLIC "-//W3C//DTD SVG 1.1//EN"
  "http://www.w3.org/Graphics/SVG/1.1/DTD/svg11.dtd">
<!-- Created with matplotlib (https://matplotlib.org/) -->
<svg height="396pt" version="1.1" viewBox="0 0 684 396" width="684pt" xmlns="http://www.w3.org/2000/svg" xmlns:xlink="http://www.w3.org/1999/xlink">
 <defs>
  <style type="text/css">
*{stroke-linecap:butt;stroke-linejoin:round;}
  </style>
 </defs>
 <g id="figure_1">
  <g id="patch_1">
   <path d="M 0 396 
L 684 396 
L 684 0 
L 0 0 
z
" style="fill:#ffffff;"/>
  </g>
  <g id="axes_1">
   <g id="patch_2">
    <path d="M 130.230156 352.174167 
L 544.073906 352.174167 
L 544.073906 35.0625 
L 130.230156 35.0625 
z
" style="fill:#ffffff;"/>
   </g>
   <g id="matplotlib.axis_1">
    <g id="xtick_1">
     <g id="line2d_1">
      <defs>
       <path d="M 0 0 
L 0 3.5 
" id="m3f94f6d9f5" style="stroke:#000000;stroke-width:0.8;"/>
      </defs>
      <g>
       <use style="stroke:#000000;stroke-width:0.8;" x="149.033042" xlink:href="#m3f94f6d9f5" y="352.174167"/>
      </g>
     </g>
     <g id="text_1">
      <!-- 0 -->
      <defs>
       <path d="M 31.78125 66.40625 
Q 24.171875 66.40625 20.328125 58.90625 
Q 16.5 51.421875 16.5 36.375 
Q 16.5 21.390625 20.328125 13.890625 
Q 24.171875 6.390625 31.78125 6.390625 
Q 39.453125 6.390625 43.28125 13.890625 
Q 47.125 21.390625 47.125 36.375 
Q 47.125 51.421875 43.28125 58.90625 
Q 39.453125 66.40625 31.78125 66.40625 
z
M 31.78125 74.21875 
Q 44.046875 74.21875 50.515625 64.515625 
Q 56.984375 54.828125 56.984375 36.375 
Q 56.984375 17.96875 50.515625 8.265625 
Q 44.046875 -1.421875 31.78125 -1.421875 
Q 19.53125 -1.421875 13.0625 8.265625 
Q 6.59375 17.96875 6.59375 36.375 
Q 6.59375 54.828125 13.0625 64.515625 
Q 19.53125 74.21875 31.78125 74.21875 
z
" id="DejaVuSans-48"/>
      </defs>
      <g transform="translate(145.851792 366.772604)scale(0.1 -0.1)">
       <use xlink:href="#DejaVuSans-48"/>
      </g>
     </g>
    </g>
    <g id="xtick_2">
     <g id="line2d_2">
      <g>
       <use style="stroke:#000000;stroke-width:0.8;" x="217.311584" xlink:href="#m3f94f6d9f5" y="352.174167"/>
      </g>
     </g>
     <g id="text_2">
      <!-- 50 -->
      <defs>
       <path d="M 10.796875 72.90625 
L 49.515625 72.90625 
L 49.515625 64.59375 
L 19.828125 64.59375 
L 19.828125 46.734375 
Q 21.96875 47.46875 24.109375 47.828125 
Q 26.265625 48.1875 28.421875 48.1875 
Q 40.625 48.1875 47.75 41.5 
Q 54.890625 34.8125 54.890625 23.390625 
Q 54.890625 11.625 47.5625 5.09375 
Q 40.234375 -1.421875 26.90625 -1.421875 
Q 22.3125 -1.421875 17.546875 -0.640625 
Q 12.796875 0.140625 7.71875 1.703125 
L 7.71875 11.625 
Q 12.109375 9.234375 16.796875 8.0625 
Q 21.484375 6.890625 26.703125 6.890625 
Q 35.15625 6.890625 40.078125 11.328125 
Q 45.015625 15.765625 45.015625 23.390625 
Q 45.015625 31 40.078125 35.4375 
Q 35.15625 39.890625 26.703125 39.890625 
Q 22.75 39.890625 18.8125 39.015625 
Q 14.890625 38.140625 10.796875 36.28125 
z
" id="DejaVuSans-53"/>
      </defs>
      <g transform="translate(210.949084 366.772604)scale(0.1 -0.1)">
       <use xlink:href="#DejaVuSans-53"/>
       <use x="63.623047" xlink:href="#DejaVuSans-48"/>
      </g>
     </g>
    </g>
    <g id="xtick_3">
     <g id="line2d_3">
      <g>
       <use style="stroke:#000000;stroke-width:0.8;" x="285.590125" xlink:href="#m3f94f6d9f5" y="352.174167"/>
      </g>
     </g>
     <g id="text_3">
      <!-- 100 -->
      <defs>
       <path d="M 12.40625 8.296875 
L 28.515625 8.296875 
L 28.515625 63.921875 
L 10.984375 60.40625 
L 10.984375 69.390625 
L 28.421875 72.90625 
L 38.28125 72.90625 
L 38.28125 8.296875 
L 54.390625 8.296875 
L 54.390625 0 
L 12.40625 0 
z
" id="DejaVuSans-49"/>
      </defs>
      <g transform="translate(276.046375 366.772604)scale(0.1 -0.1)">
       <use xlink:href="#DejaVuSans-49"/>
       <use x="63.623047" xlink:href="#DejaVuSans-48"/>
       <use x="127.246094" xlink:href="#DejaVuSans-48"/>
      </g>
     </g>
    </g>
    <g id="xtick_4">
     <g id="line2d_4">
      <g>
       <use style="stroke:#000000;stroke-width:0.8;" x="353.868667" xlink:href="#m3f94f6d9f5" y="352.174167"/>
      </g>
     </g>
     <g id="text_4">
      <!-- 150 -->
      <g transform="translate(344.324917 366.772604)scale(0.1 -0.1)">
       <use xlink:href="#DejaVuSans-49"/>
       <use x="63.623047" xlink:href="#DejaVuSans-53"/>
       <use x="127.246094" xlink:href="#DejaVuSans-48"/>
      </g>
     </g>
    </g>
    <g id="xtick_5">
     <g id="line2d_5">
      <g>
       <use style="stroke:#000000;stroke-width:0.8;" x="422.147208" xlink:href="#m3f94f6d9f5" y="352.174167"/>
      </g>
     </g>
     <g id="text_5">
      <!-- 200 -->
      <defs>
       <path d="M 19.1875 8.296875 
L 53.609375 8.296875 
L 53.609375 0 
L 7.328125 0 
L 7.328125 8.296875 
Q 12.9375 14.109375 22.625 23.890625 
Q 32.328125 33.6875 34.8125 36.53125 
Q 39.546875 41.84375 41.421875 45.53125 
Q 43.3125 49.21875 43.3125 52.78125 
Q 43.3125 58.59375 39.234375 62.25 
Q 35.15625 65.921875 28.609375 65.921875 
Q 23.96875 65.921875 18.8125 64.3125 
Q 13.671875 62.703125 7.8125 59.421875 
L 7.8125 69.390625 
Q 13.765625 71.78125 18.9375 73 
Q 24.125 74.21875 28.421875 74.21875 
Q 39.75 74.21875 46.484375 68.546875 
Q 53.21875 62.890625 53.21875 53.421875 
Q 53.21875 48.921875 51.53125 44.890625 
Q 49.859375 40.875 45.40625 35.40625 
Q 44.1875 33.984375 37.640625 27.21875 
Q 31.109375 20.453125 19.1875 8.296875 
z
" id="DejaVuSans-50"/>
      </defs>
      <g transform="translate(412.603458 366.772604)scale(0.1 -0.1)">
       <use xlink:href="#DejaVuSans-50"/>
       <use x="63.623047" xlink:href="#DejaVuSans-48"/>
       <use x="127.246094" xlink:href="#DejaVuSans-48"/>
      </g>
     </g>
    </g>
    <g id="xtick_6">
     <g id="line2d_6">
      <g>
       <use style="stroke:#000000;stroke-width:0.8;" x="490.425749" xlink:href="#m3f94f6d9f5" y="352.174167"/>
      </g>
     </g>
     <g id="text_6">
      <!-- 250 -->
      <g transform="translate(480.881999 366.772604)scale(0.1 -0.1)">
       <use xlink:href="#DejaVuSans-50"/>
       <use x="63.623047" xlink:href="#DejaVuSans-53"/>
       <use x="127.246094" xlink:href="#DejaVuSans-48"/>
      </g>
     </g>
    </g>
   </g>
   <g id="matplotlib.axis_2">
    <g id="ytick_1">
     <g id="line2d_7">
      <defs>
       <path d="M 0 0 
L -3.5 0 
" id="md90655cd45" style="stroke:#000000;stroke-width:0.8;"/>
      </defs>
      <g>
       <use style="stroke:#000000;stroke-width:0.8;" x="130.230156" xlink:href="#md90655cd45" y="352.174167"/>
      </g>
     </g>
     <g id="text_7">
      <!-- 0 -->
      <g transform="translate(116.867656 355.973385)scale(0.1 -0.1)">
       <use xlink:href="#DejaVuSans-48"/>
      </g>
     </g>
    </g>
    <g id="ytick_2">
     <g id="line2d_8">
      <g>
       <use style="stroke:#000000;stroke-width:0.8;" x="130.230156" xlink:href="#md90655cd45" y="303.736821"/>
      </g>
     </g>
     <g id="text_8">
      <!-- 500000 -->
      <g transform="translate(85.055156 307.53604)scale(0.1 -0.1)">
       <use xlink:href="#DejaVuSans-53"/>
       <use x="63.623047" xlink:href="#DejaVuSans-48"/>
       <use x="127.246094" xlink:href="#DejaVuSans-48"/>
       <use x="190.869141" xlink:href="#DejaVuSans-48"/>
       <use x="254.492188" xlink:href="#DejaVuSans-48"/>
       <use x="318.115234" xlink:href="#DejaVuSans-48"/>
      </g>
     </g>
    </g>
    <g id="ytick_3">
     <g id="line2d_9">
      <g>
       <use style="stroke:#000000;stroke-width:0.8;" x="130.230156" xlink:href="#md90655cd45" y="255.299476"/>
      </g>
     </g>
     <g id="text_9">
      <!-- 1000000 -->
      <g transform="translate(78.692656 259.098695)scale(0.1 -0.1)">
       <use xlink:href="#DejaVuSans-49"/>
       <use x="63.623047" xlink:href="#DejaVuSans-48"/>
       <use x="127.246094" xlink:href="#DejaVuSans-48"/>
       <use x="190.869141" xlink:href="#DejaVuSans-48"/>
       <use x="254.492188" xlink:href="#DejaVuSans-48"/>
       <use x="318.115234" xlink:href="#DejaVuSans-48"/>
       <use x="381.738281" xlink:href="#DejaVuSans-48"/>
      </g>
     </g>
    </g>
    <g id="ytick_4">
     <g id="line2d_10">
      <g>
       <use style="stroke:#000000;stroke-width:0.8;" x="130.230156" xlink:href="#md90655cd45" y="206.86213"/>
      </g>
     </g>
     <g id="text_10">
      <!-- 1500000 -->
      <g transform="translate(78.692656 210.661349)scale(0.1 -0.1)">
       <use xlink:href="#DejaVuSans-49"/>
       <use x="63.623047" xlink:href="#DejaVuSans-53"/>
       <use x="127.246094" xlink:href="#DejaVuSans-48"/>
       <use x="190.869141" xlink:href="#DejaVuSans-48"/>
       <use x="254.492188" xlink:href="#DejaVuSans-48"/>
       <use x="318.115234" xlink:href="#DejaVuSans-48"/>
       <use x="381.738281" xlink:href="#DejaVuSans-48"/>
      </g>
     </g>
    </g>
    <g id="ytick_5">
     <g id="line2d_11">
      <g>
       <use style="stroke:#000000;stroke-width:0.8;" x="130.230156" xlink:href="#md90655cd45" y="158.424785"/>
      </g>
     </g>
     <g id="text_11">
      <!-- 2000000 -->
      <g transform="translate(78.692656 162.224004)scale(0.1 -0.1)">
       <use xlink:href="#DejaVuSans-50"/>
       <use x="63.623047" xlink:href="#DejaVuSans-48"/>
       <use x="127.246094" xlink:href="#DejaVuSans-48"/>
       <use x="190.869141" xlink:href="#DejaVuSans-48"/>
       <use x="254.492188" xlink:href="#DejaVuSans-48"/>
       <use x="318.115234" xlink:href="#DejaVuSans-48"/>
       <use x="381.738281" xlink:href="#DejaVuSans-48"/>
      </g>
     </g>
    </g>
    <g id="ytick_6">
     <g id="line2d_12">
      <g>
       <use style="stroke:#000000;stroke-width:0.8;" x="130.230156" xlink:href="#md90655cd45" y="109.98744"/>
      </g>
     </g>
     <g id="text_12">
      <!-- 2500000 -->
      <g transform="translate(78.692656 113.786658)scale(0.1 -0.1)">
       <use xlink:href="#DejaVuSans-50"/>
       <use x="63.623047" xlink:href="#DejaVuSans-53"/>
       <use x="127.246094" xlink:href="#DejaVuSans-48"/>
       <use x="190.869141" xlink:href="#DejaVuSans-48"/>
       <use x="254.492188" xlink:href="#DejaVuSans-48"/>
       <use x="318.115234" xlink:href="#DejaVuSans-48"/>
       <use x="381.738281" xlink:href="#DejaVuSans-48"/>
      </g>
     </g>
    </g>
    <g id="ytick_7">
     <g id="line2d_13">
      <g>
       <use style="stroke:#000000;stroke-width:0.8;" x="130.230156" xlink:href="#md90655cd45" y="61.550094"/>
      </g>
     </g>
     <g id="text_13">
      <!-- 3000000 -->
      <defs>
       <path d="M 40.578125 39.3125 
Q 47.65625 37.796875 51.625 33 
Q 55.609375 28.21875 55.609375 21.1875 
Q 55.609375 10.40625 48.1875 4.484375 
Q 40.765625 -1.421875 27.09375 -1.421875 
Q 22.515625 -1.421875 17.65625 -0.515625 
Q 12.796875 0.390625 7.625 2.203125 
L 7.625 11.71875 
Q 11.71875 9.328125 16.59375 8.109375 
Q 21.484375 6.890625 26.8125 6.890625 
Q 36.078125 6.890625 40.9375 10.546875 
Q 45.796875 14.203125 45.796875 21.1875 
Q 45.796875 27.640625 41.28125 31.265625 
Q 36.765625 34.90625 28.71875 34.90625 
L 20.21875 34.90625 
L 20.21875 43.015625 
L 29.109375 43.015625 
Q 36.375 43.015625 40.234375 45.921875 
Q 44.09375 48.828125 44.09375 54.296875 
Q 44.09375 59.90625 40.109375 62.90625 
Q 36.140625 65.921875 28.71875 65.921875 
Q 24.65625 65.921875 20.015625 65.03125 
Q 15.375 64.15625 9.8125 62.3125 
L 9.8125 71.09375 
Q 15.4375 72.65625 20.34375 73.4375 
Q 25.25 74.21875 29.59375 74.21875 
Q 40.828125 74.21875 47.359375 69.109375 
Q 53.90625 64.015625 53.90625 55.328125 
Q 53.90625 49.265625 50.4375 45.09375 
Q 46.96875 40.921875 40.578125 39.3125 
z
" id="DejaVuSans-51"/>
      </defs>
      <g transform="translate(78.692656 65.349313)scale(0.1 -0.1)">
       <use xlink:href="#DejaVuSans-51"/>
       <use x="63.623047" xlink:href="#DejaVuSans-48"/>
       <use x="127.246094" xlink:href="#DejaVuSans-48"/>
       <use x="190.869141" xlink:href="#DejaVuSans-48"/>
       <use x="254.492188" xlink:href="#DejaVuSans-48"/>
       <use x="318.115234" xlink:href="#DejaVuSans-48"/>
       <use x="381.738281" xlink:href="#DejaVuSans-48"/>
      </g>
     </g>
    </g>
    <g id="text_14">
     <!-- inflight -->
     <defs>
      <path d="M 9.421875 54.6875 
L 18.40625 54.6875 
L 18.40625 0 
L 9.421875 0 
z
M 9.421875 75.984375 
L 18.40625 75.984375 
L 18.40625 64.59375 
L 9.421875 64.59375 
z
" id="DejaVuSans-105"/>
      <path d="M 54.890625 33.015625 
L 54.890625 0 
L 45.90625 0 
L 45.90625 32.71875 
Q 45.90625 40.484375 42.875 44.328125 
Q 39.84375 48.1875 33.796875 48.1875 
Q 26.515625 48.1875 22.3125 43.546875 
Q 18.109375 38.921875 18.109375 30.90625 
L 18.109375 0 
L 9.078125 0 
L 9.078125 54.6875 
L 18.109375 54.6875 
L 18.109375 46.1875 
Q 21.34375 51.125 25.703125 53.5625 
Q 30.078125 56 35.796875 56 
Q 45.21875 56 50.046875 50.171875 
Q 54.890625 44.34375 54.890625 33.015625 
z
" id="DejaVuSans-110"/>
      <path d="M 37.109375 75.984375 
L 37.109375 68.5 
L 28.515625 68.5 
Q 23.6875 68.5 21.796875 66.546875 
Q 19.921875 64.59375 19.921875 59.515625 
L 19.921875 54.6875 
L 34.71875 54.6875 
L 34.71875 47.703125 
L 19.921875 47.703125 
L 19.921875 0 
L 10.890625 0 
L 10.890625 47.703125 
L 2.296875 47.703125 
L 2.296875 54.6875 
L 10.890625 54.6875 
L 10.890625 58.5 
Q 10.890625 67.625 15.140625 71.796875 
Q 19.390625 75.984375 28.609375 75.984375 
z
" id="DejaVuSans-102"/>
      <path d="M 9.421875 75.984375 
L 18.40625 75.984375 
L 18.40625 0 
L 9.421875 0 
z
" id="DejaVuSans-108"/>
      <path d="M 45.40625 27.984375 
Q 45.40625 37.75 41.375 43.109375 
Q 37.359375 48.484375 30.078125 48.484375 
Q 22.859375 48.484375 18.828125 43.109375 
Q 14.796875 37.75 14.796875 27.984375 
Q 14.796875 18.265625 18.828125 12.890625 
Q 22.859375 7.515625 30.078125 7.515625 
Q 37.359375 7.515625 41.375 12.890625 
Q 45.40625 18.265625 45.40625 27.984375 
z
M 54.390625 6.78125 
Q 54.390625 -7.171875 48.1875 -13.984375 
Q 42 -20.796875 29.203125 -20.796875 
Q 24.46875 -20.796875 20.265625 -20.09375 
Q 16.0625 -19.390625 12.109375 -17.921875 
L 12.109375 -9.1875 
Q 16.0625 -11.328125 19.921875 -12.34375 
Q 23.78125 -13.375 27.78125 -13.375 
Q 36.625 -13.375 41.015625 -8.765625 
Q 45.40625 -4.15625 45.40625 5.171875 
L 45.40625 9.625 
Q 42.625 4.78125 38.28125 2.390625 
Q 33.9375 0 27.875 0 
Q 17.828125 0 11.671875 7.65625 
Q 5.515625 15.328125 5.515625 27.984375 
Q 5.515625 40.671875 11.671875 48.328125 
Q 17.828125 56 27.875 56 
Q 33.9375 56 38.28125 53.609375 
Q 42.625 51.21875 45.40625 46.390625 
L 45.40625 54.6875 
L 54.390625 54.6875 
z
" id="DejaVuSans-103"/>
      <path d="M 54.890625 33.015625 
L 54.890625 0 
L 45.90625 0 
L 45.90625 32.71875 
Q 45.90625 40.484375 42.875 44.328125 
Q 39.84375 48.1875 33.796875 48.1875 
Q 26.515625 48.1875 22.3125 43.546875 
Q 18.109375 38.921875 18.109375 30.90625 
L 18.109375 0 
L 9.078125 0 
L 9.078125 75.984375 
L 18.109375 75.984375 
L 18.109375 46.1875 
Q 21.34375 51.125 25.703125 53.5625 
Q 30.078125 56 35.796875 56 
Q 45.21875 56 50.046875 50.171875 
Q 54.890625 44.34375 54.890625 33.015625 
z
" id="DejaVuSans-104"/>
      <path d="M 18.3125 70.21875 
L 18.3125 54.6875 
L 36.8125 54.6875 
L 36.8125 47.703125 
L 18.3125 47.703125 
L 18.3125 18.015625 
Q 18.3125 11.328125 20.140625 9.421875 
Q 21.96875 7.515625 27.59375 7.515625 
L 36.8125 7.515625 
L 36.8125 0 
L 27.59375 0 
Q 17.1875 0 13.234375 3.875 
Q 9.28125 7.765625 9.28125 18.015625 
L 9.28125 47.703125 
L 2.6875 47.703125 
L 2.6875 54.6875 
L 9.28125 54.6875 
L 9.28125 70.21875 
z
" id="DejaVuSans-116"/>
     </defs>
     <g transform="translate(61.415156 211.017552)rotate(-90)scale(0.1 -0.1)">
      <use xlink:href="#DejaVuSans-105"/>
      <use x="27.783203" xlink:href="#DejaVuSans-110"/>
      <use x="91.162109" xlink:href="#DejaVuSans-102"/>
      <use x="126.367188" xlink:href="#DejaVuSans-108"/>
      <use x="154.150391" xlink:href="#DejaVuSans-105"/>
      <use x="181.933594" xlink:href="#DejaVuSans-103"/>
      <use x="245.410156" xlink:href="#DejaVuSans-104"/>
      <use x="308.789062" xlink:href="#DejaVuSans-116"/>
     </g>
     <!-- (bytes) -->
     <defs>
      <path d="M 31 75.875 
Q 24.46875 64.65625 21.28125 53.65625 
Q 18.109375 42.671875 18.109375 31.390625 
Q 18.109375 20.125 21.3125 9.0625 
Q 24.515625 -2 31 -13.1875 
L 23.1875 -13.1875 
Q 15.875 -1.703125 12.234375 9.375 
Q 8.59375 20.453125 8.59375 31.390625 
Q 8.59375 42.28125 12.203125 53.3125 
Q 15.828125 64.359375 23.1875 75.875 
z
" id="DejaVuSans-40"/>
      <path d="M 48.6875 27.296875 
Q 48.6875 37.203125 44.609375 42.84375 
Q 40.53125 48.484375 33.40625 48.484375 
Q 26.265625 48.484375 22.1875 42.84375 
Q 18.109375 37.203125 18.109375 27.296875 
Q 18.109375 17.390625 22.1875 11.75 
Q 26.265625 6.109375 33.40625 6.109375 
Q 40.53125 6.109375 44.609375 11.75 
Q 48.6875 17.390625 48.6875 27.296875 
z
M 18.109375 46.390625 
Q 20.953125 51.265625 25.265625 53.625 
Q 29.59375 56 35.59375 56 
Q 45.5625 56 51.78125 48.09375 
Q 58.015625 40.1875 58.015625 27.296875 
Q 58.015625 14.40625 51.78125 6.484375 
Q 45.5625 -1.421875 35.59375 -1.421875 
Q 29.59375 -1.421875 25.265625 0.953125 
Q 20.953125 3.328125 18.109375 8.203125 
L 18.109375 0 
L 9.078125 0 
L 9.078125 75.984375 
L 18.109375 75.984375 
z
" id="DejaVuSans-98"/>
      <path d="M 32.171875 -5.078125 
Q 28.375 -14.84375 24.75 -17.8125 
Q 21.140625 -20.796875 15.09375 -20.796875 
L 7.90625 -20.796875 
L 7.90625 -13.28125 
L 13.1875 -13.28125 
Q 16.890625 -13.28125 18.9375 -11.515625 
Q 21 -9.765625 23.484375 -3.21875 
L 25.09375 0.875 
L 2.984375 54.6875 
L 12.5 54.6875 
L 29.59375 11.921875 
L 46.6875 54.6875 
L 56.203125 54.6875 
z
" id="DejaVuSans-121"/>
      <path d="M 56.203125 29.59375 
L 56.203125 25.203125 
L 14.890625 25.203125 
Q 15.484375 15.921875 20.484375 11.0625 
Q 25.484375 6.203125 34.421875 6.203125 
Q 39.59375 6.203125 44.453125 7.46875 
Q 49.3125 8.734375 54.109375 11.28125 
L 54.109375 2.78125 
Q 49.265625 0.734375 44.1875 -0.34375 
Q 39.109375 -1.421875 33.890625 -1.421875 
Q 20.796875 -1.421875 13.15625 6.1875 
Q 5.515625 13.8125 5.515625 26.8125 
Q 5.515625 40.234375 12.765625 48.109375 
Q 20.015625 56 32.328125 56 
Q 43.359375 56 49.78125 48.890625 
Q 56.203125 41.796875 56.203125 29.59375 
z
M 47.21875 32.234375 
Q 47.125 39.59375 43.09375 43.984375 
Q 39.0625 48.390625 32.421875 48.390625 
Q 24.90625 48.390625 20.390625 44.140625 
Q 15.875 39.890625 15.1875 32.171875 
z
" id="DejaVuSans-101"/>
      <path d="M 44.28125 53.078125 
L 44.28125 44.578125 
Q 40.484375 46.53125 36.375 47.5 
Q 32.28125 48.484375 27.875 48.484375 
Q 21.1875 48.484375 17.84375 46.4375 
Q 14.5 44.390625 14.5 40.28125 
Q 14.5 37.15625 16.890625 35.375 
Q 19.28125 33.59375 26.515625 31.984375 
L 29.59375 31.296875 
Q 39.15625 29.25 43.1875 25.515625 
Q 47.21875 21.78125 47.21875 15.09375 
Q 47.21875 7.46875 41.1875 3.015625 
Q 35.15625 -1.421875 24.609375 -1.421875 
Q 20.21875 -1.421875 15.453125 -0.5625 
Q 10.6875 0.296875 5.421875 2 
L 5.421875 11.28125 
Q 10.40625 8.6875 15.234375 7.390625 
Q 20.0625 6.109375 24.8125 6.109375 
Q 31.15625 6.109375 34.5625 8.28125 
Q 37.984375 10.453125 37.984375 14.40625 
Q 37.984375 18.0625 35.515625 20.015625 
Q 33.0625 21.96875 24.703125 23.78125 
L 21.578125 24.515625 
Q 13.234375 26.265625 9.515625 29.90625 
Q 5.8125 33.546875 5.8125 39.890625 
Q 5.8125 47.609375 11.28125 51.796875 
Q 16.75 56 26.8125 56 
Q 31.78125 56 36.171875 55.265625 
Q 40.578125 54.546875 44.28125 53.078125 
z
" id="DejaVuSans-115"/>
      <path d="M 8.015625 75.875 
L 15.828125 75.875 
Q 23.140625 64.359375 26.78125 53.3125 
Q 30.421875 42.28125 30.421875 31.390625 
Q 30.421875 20.453125 26.78125 9.375 
Q 23.140625 -1.703125 15.828125 -13.1875 
L 8.015625 -13.1875 
Q 14.5 -2 17.703125 9.0625 
Q 20.90625 20.125 20.90625 31.390625 
Q 20.90625 42.671875 17.703125 53.65625 
Q 14.5 64.65625 8.015625 75.875 
z
" id="DejaVuSans-41"/>
     </defs>
     <g transform="translate(72.612969 211.294896)rotate(-90)scale(0.1 -0.1)">
      <use xlink:href="#DejaVuSans-40"/>
      <use x="39.013672" xlink:href="#DejaVuSans-98"/>
      <use x="102.490234" xlink:href="#DejaVuSans-121"/>
      <use x="161.669922" xlink:href="#DejaVuSans-116"/>
      <use x="200.878906" xlink:href="#DejaVuSans-101"/>
      <use x="262.402344" xlink:href="#DejaVuSans-115"/>
      <use x="314.501953" xlink:href="#DejaVuSans-41"/>
     </g>
    </g>
   </g>
   <g id="line2d_14">
    <path clip-path="url(#pb397e8e94a)" d="M 157.241489 340.952202 
L 157.924274 214.985655 
L 158.607059 50.163056 
L 159.289845 217.230047 
L 159.97263 210.356594 
L 160.655416 217.230047 
L 161.338201 202.781768 
L 162.020987 211.75934 
L 162.703772 226.067344 
L 163.386557 232.660248 
L 164.752128 214.424556 
L 165.434914 218.211969 
L 166.117699 184.265528 
L 166.800484 196.469414 
L 167.48327 194.786119 
L 168.166055 211.198242 
L 168.848841 156.070343 
L 169.531626 145.549751 
L 170.214411 145.549751 
L 170.897197 153.82595 
L 171.579982 246.968252 
L 172.262768 204.465063 
L 172.945553 298.028189 
L 173.628339 311.634821 
L 174.311124 309.109879 
L 174.993909 311.91537 
L 175.676695 317.666627 
L 176.35948 314.159763 
L 177.042266 317.105529 
L 177.725051 318.929098 
L 178.407836 321.734589 
L 179.090622 322.015138 
L 179.773407 325.241453 
L 180.456193 326.503924 
L 181.138978 329.589964 
L 181.821764 331.132984 
L 183.187334 338.006437 
L 183.87012 337.725888 
L 184.552905 339.689732 
L 186.601261 343.196595 
L 187.284047 352.033892 
L 187.966832 342.916046 
L 188.649618 342.354948 
L 189.332403 341.373026 
L 190.015188 340.811928 
L 190.697974 341.513301 
L 191.380759 340.531379 
L 192.063545 342.214673 
L 192.74633 340.952202 
L 193.429116 341.653575 
L 194.111901 340.952202 
L 194.794686 340.671653 
L 195.477472 341.092477 
L 196.843043 340.531379 
L 197.525828 340.671653 
L 198.208613 341.232752 
L 198.891399 339.128633 
L 199.574184 340.391104 
L 200.25697 337.585613 
L 201.622541 341.513301 
L 202.305326 337.445339 
L 202.988111 338.848084 
L 203.670897 338.146711 
L 204.353682 338.988359 
L 205.036468 338.286986 
L 205.719253 339.689732 
L 206.402038 337.866162 
L 207.084824 339.689732 
L 207.767609 337.585613 
L 208.450395 338.988359 
L 209.13318 337.16479 
L 209.815965 338.146711 
L 210.498751 337.585613 
L 211.181536 337.445339 
L 211.864322 338.006437 
L 212.547107 337.445339 
L 213.229893 338.006437 
L 213.912678 337.445339 
L 214.595463 338.146711 
L 215.278249 352.033892 
L 215.961034 336.463417 
L 216.64382 337.866162 
L 218.00939 339.128633 
L 218.692176 338.848084 
L 220.057747 338.567535 
L 220.740532 339.128633 
L 221.423318 338.70781 
L 222.106103 338.848084 
L 222.788888 338.567535 
L 223.471674 337.725888 
L 224.154459 338.427261 
L 224.837245 337.305064 
L 225.52003 338.146711 
L 226.202815 337.445339 
L 226.885601 338.286986 
L 227.568386 338.286986 
L 228.251172 338.427261 
L 228.933957 338.006437 
L 229.616742 344.038243 
L 230.299528 337.585613 
L 230.982313 341.092477 
L 231.665099 338.848084 
L 232.347884 338.286986 
L 233.03067 338.006437 
L 233.713455 337.445339 
L 234.39624 337.585613 
L 235.079026 337.16479 
L 235.761811 337.585613 
L 236.444597 337.024515 
L 237.127382 338.146711 
L 237.810167 336.463417 
L 238.492953 337.585613 
L 239.175738 334.920397 
L 239.858524 336.88424 
L 240.541309 334.078749 
L 241.224095 336.88424 
L 241.90688 333.377377 
L 242.589665 334.219024 
L 243.272451 352.033892 
L 243.955236 331.553807 
L 244.638022 333.237102 
L 245.320807 333.517651 
L 246.003592 332.956553 
L 246.686378 334.078749 
L 247.369163 332.816278 
L 248.051949 333.7982 
L 248.734734 333.237102 
L 249.417519 334.920397 
L 250.100305 333.377377 
L 250.78309 336.182868 
L 251.465876 333.657926 
L 252.148661 336.463417 
L 252.831447 334.359299 
L 253.514232 336.88424 
L 254.197017 333.938475 
L 254.879803 335.200946 
L 255.562588 333.657926 
L 256.245374 334.219024 
L 256.928159 332.816278 
L 257.610944 341.79385 
L 258.29373 331.974631 
L 258.976515 333.237102 
L 259.659301 333.237102 
L 260.342086 332.535729 
L 261.024872 333.517651 
L 261.707657 332.395455 
L 262.390442 333.377377 
L 263.073228 333.237102 
L 263.756013 334.499573 
L 264.438799 333.377377 
L 265.121584 334.920397 
L 265.804369 333.517651 
L 266.487155 335.200946 
L 267.16994 333.7982 
L 267.852726 333.517651 
L 268.535511 333.938475 
L 269.218296 333.657926 
L 269.901082 334.078749 
L 270.583867 333.377377 
L 271.266653 352.033892 
L 271.949438 333.657926 
L 272.632224 333.096828 
L 273.315009 334.219024 
L 273.997794 334.780122 
L 274.68058 334.499573 
L 275.363365 334.639848 
L 276.046151 333.938475 
L 276.728936 335.902319 
L 277.411721 333.657926 
L 278.094507 335.060671 
L 278.777292 333.938475 
L 279.460078 333.7982 
L 280.142863 333.517651 
L 280.825649 333.377377 
L 281.508434 334.078749 
L 282.191219 332.395455 
L 282.874005 333.377377 
L 283.55679 332.114906 
L 284.239576 333.237102 
L 284.922361 332.676004 
L 285.605146 342.074399 
L 286.287932 331.553807 
L 286.970717 333.237102 
L 287.653503 332.535729 
L 288.336288 333.517651 
L 289.019073 332.956553 
L 289.701859 334.780122 
L 290.384644 332.816278 
L 291.06743 334.639848 
L 291.750215 333.7982 
L 292.433001 333.7982 
L 293.115786 333.377377 
L 293.798571 333.096828 
L 294.481357 333.096828 
L 295.164142 332.535729 
L 295.846928 333.096828 
L 296.529713 332.956553 
L 297.212498 334.499573 
L 297.895284 334.359299 
L 298.578069 335.200946 
L 299.260855 345.300714 
L 299.94364 334.359299 
L 300.626426 331.694082 
L 301.309211 334.359299 
L 301.991996 333.096828 
L 302.674782 334.780122 
L 303.357567 333.938475 
L 304.040353 333.517651 
L 304.723138 334.499573 
L 305.405923 333.7982 
L 306.088709 334.078749 
L 306.771494 333.7982 
L 307.45428 334.920397 
L 308.137065 334.219024 
L 308.819851 335.621769 
L 309.502636 334.359299 
L 310.185421 336.042593 
L 310.868207 335.200946 
L 311.550992 336.463417 
L 312.233778 334.639848 
L 312.916563 335.481495 
L 313.599348 352.033892 
L 314.282134 332.816278 
L 314.964919 335.060671 
L 315.647705 334.219024 
L 316.33049 335.060671 
L 317.013275 334.780122 
L 317.696061 336.603691 
L 318.378846 334.920397 
L 319.061632 337.16479 
L 319.744417 335.762044 
L 320.427203 337.866162 
L 321.109988 336.182868 
L 321.792773 337.725888 
L 322.475559 336.042593 
L 323.158344 337.024515 
L 323.84113 336.88424 
L 324.523915 336.323142 
L 325.2067 336.743966 
L 325.889486 336.743966 
L 326.572271 336.603691 
L 327.255057 336.603691 
L 327.937842 341.513301 
L 328.620628 336.463417 
L 329.303413 337.585613 
L 329.986198 337.585613 
L 330.668984 339.268908 
L 331.351769 337.305064 
L 332.034555 338.848084 
L 332.71734 337.585613 
L 333.400125 338.848084 
L 334.082911 338.006437 
L 334.765696 339.268908 
L 335.448482 337.305064 
L 336.814052 338.146711 
L 337.496838 337.585613 
L 338.179623 338.286986 
L 338.862409 337.725888 
L 339.545194 338.006437 
L 340.22798 338.146711 
L 340.910765 338.427261 
L 341.59355 352.033892 
L 342.276336 335.762044 
L 342.959121 336.182868 
L 343.641907 338.848084 
L 344.324692 336.463417 
L 345.007477 338.286986 
L 345.690263 336.182868 
L 346.373048 338.146711 
L 347.055834 336.323142 
L 347.738619 336.463417 
L 349.10419 335.621769 
L 349.786975 336.603691 
L 350.469761 335.902319 
L 351.152546 335.481495 
L 351.835332 335.902319 
L 352.518117 335.902319 
L 353.200902 335.481495 
L 353.883688 336.042593 
L 354.566473 335.060671 
L 355.249259 336.743966 
L 355.932044 341.79385 
L 356.614829 335.481495 
L 357.297615 336.743966 
L 357.9804 336.603691 
L 358.663186 336.323142 
L 359.345971 336.463417 
L 360.028757 336.323142 
L 360.711542 336.463417 
L 361.394327 336.323142 
L 362.077113 336.463417 
L 362.759898 336.743966 
L 364.125469 336.182868 
L 364.808254 337.024515 
L 365.49104 336.323142 
L 366.173825 336.323142 
L 366.856611 335.34122 
L 367.539396 336.603691 
L 368.222182 335.060671 
L 368.904967 336.323142 
L 369.587752 352.033892 
L 370.270538 333.517651 
L 370.953323 334.499573 
L 371.636109 334.780122 
L 372.318894 335.621769 
L 373.001679 335.060671 
L 373.684465 335.762044 
L 374.36725 335.200946 
L 375.050036 336.743966 
L 375.732821 335.34122 
L 376.415606 337.445339 
L 377.098392 335.481495 
L 377.781177 337.024515 
L 378.463963 335.060671 
L 379.146748 337.16479 
L 379.829534 335.902319 
L 380.512319 335.902319 
L 381.195104 334.219024 
L 382.560675 333.657926 
L 383.243461 332.535729 
L 383.926246 342.214673 
L 384.609031 332.676004 
L 385.291817 334.078749 
L 385.974602 334.078749 
L 386.657388 333.7982 
L 387.340173 333.938475 
L 388.022959 333.938475 
L 388.705744 334.359299 
L 389.388529 334.078749 
L 390.071315 333.377377 
L 390.7541 334.780122 
L 391.436886 333.7982 
L 392.119671 334.078749 
L 392.802456 333.7982 
L 393.485242 334.639848 
L 394.168027 333.7982 
L 394.850813 334.920397 
L 395.533598 333.657926 
L 396.216383 335.902319 
L 396.899169 333.657926 
L 397.581954 352.033892 
L 398.26474 335.060671 
L 398.947525 332.816278 
L 399.630311 336.182868 
L 400.313096 334.219024 
L 400.995881 334.499573 
L 401.678667 334.920397 
L 402.361452 335.060671 
L 403.044238 333.7982 
L 403.727023 334.639848 
L 404.409808 333.938475 
L 405.092594 333.517651 
L 405.775379 334.219024 
L 406.458165 333.237102 
L 407.14095 333.938475 
L 407.823736 333.7982 
L 408.506521 333.7982 
L 409.872092 335.34122 
L 410.554877 334.219024 
L 411.237663 335.34122 
L 411.920448 344.038243 
L 412.603233 333.237102 
L 413.286019 334.920397 
L 413.968804 334.078749 
L 414.65159 336.182868 
L 415.334375 333.7982 
L 416.01716 336.743966 
L 416.699946 333.7982 
L 417.382731 334.499573 
L 418.065517 333.096828 
L 418.748302 333.517651 
L 419.431088 332.535729 
L 420.113873 332.816278 
L 420.796658 332.956553 
L 421.479444 332.676004 
L 422.162229 333.237102 
L 422.845015 332.956553 
L 423.5278 333.657926 
L 424.210585 333.377377 
L 424.893371 334.780122 
L 425.576156 348.106205 
L 426.258942 337.024515 
L 426.941727 335.481495 
L 427.624513 334.219024 
L 428.307298 334.780122 
L 428.990083 333.096828 
L 429.672869 333.237102 
L 430.355654 332.114906 
L 431.03844 331.694082 
L 431.721225 331.553807 
L 433.086796 331.553807 
L 433.769581 330.571886 
L 434.452367 330.852435 
L 435.135152 330.291337 
L 435.817937 332.25518 
L 436.500723 330.852435 
L 437.183508 332.956553 
L 437.866294 330.852435 
L 438.549079 332.676004 
L 439.231865 331.132984 
L 439.91465 352.033892 
L 440.597435 329.449689 
L 441.280221 330.71216 
L 441.963006 332.25518 
L 442.645792 331.132984 
L 443.328577 331.834357 
L 444.011362 331.132984 
L 444.694148 332.114906 
L 445.376933 331.413533 
L 446.059719 332.535729 
L 446.742504 331.132984 
L 447.42529 332.816278 
L 448.108075 331.834357 
L 448.79086 333.657926 
L 449.473646 330.71216 
L 450.156431 333.7982 
L 450.839217 331.694082 
L 451.522002 332.395455 
L 452.204787 331.974631 
L 452.887573 332.25518 
L 453.570358 332.114906 
L 454.253144 337.866162 
L 454.935929 329.870513 
L 455.618714 332.816278 
L 456.3015 331.694082 
L 456.984285 333.7982 
L 457.667071 332.395455 
L 458.349856 335.621769 
L 459.032642 332.676004 
L 459.715427 334.639848 
L 460.398212 333.096828 
L 461.080998 334.780122 
L 461.763783 333.938475 
L 462.446569 333.377377 
L 463.129354 333.657926 
L 463.812139 332.816278 
L 464.494925 333.237102 
L 465.860496 333.237102 
L 466.543281 333.096828 
L 467.226067 334.359299 
L 467.908852 352.174167 
L 468.591637 330.431611 
L 469.274423 332.114906 
L 469.957208 331.974631 
L 471.322779 332.535729 
L 472.005564 333.096828 
L 472.68835 331.974631 
L 473.371135 332.816278 
L 474.053921 331.974631 
L 474.736706 334.499573 
L 475.419491 332.114906 
L 476.102277 334.499573 
L 476.785062 331.974631 
L 477.467848 333.657926 
L 478.150633 332.956553 
L 478.833419 334.078749 
L 479.516204 332.25518 
L 480.198989 333.237102 
L 480.881775 332.114906 
L 481.56456 333.7982 
L 482.247346 338.567535 
L 482.930131 331.413533 
L 483.612916 331.834357 
L 484.295702 332.676004 
L 484.978487 331.834357 
L 485.661273 332.676004 
L 486.344058 333.237102 
L 487.709629 331.413533 
L 488.392414 333.096828 
L 489.0752 331.273258 
L 489.757985 332.956553 
L 490.440771 332.395455 
L 491.123556 333.377377 
L 491.806341 331.834357 
L 492.489127 334.639848 
L 493.171912 331.413533 
L 493.854698 333.377377 
L 494.537483 331.834357 
L 495.220268 331.974631 
L 495.903054 352.033892 
L 496.585839 333.096828 
L 497.268625 331.694082 
L 497.95141 334.078749 
L 498.634196 332.676004 
L 499.316981 333.517651 
L 500.682552 333.237102 
L 501.365337 333.657926 
L 502.048123 333.517651 
L 502.730908 333.657926 
L 503.413693 334.639848 
L 504.096479 333.657926 
L 504.779264 333.657926 
L 505.46205 334.219024 
L 506.144835 333.377377 
L 506.827621 335.481495 
L 507.510406 334.078749 
L 508.193191 335.481495 
L 508.875977 334.639848 
L 509.558762 336.463417 
L 510.241548 343.477144 
L 510.924333 332.816278 
L 511.607118 335.762044 
L 512.289904 334.078749 
L 512.972689 334.219024 
L 513.655475 335.060671 
L 514.33826 334.920397 
L 515.021045 335.481495 
L 515.703831 334.499573 
L 516.386616 335.34122 
L 517.069402 334.359299 
L 517.752187 335.200946 
L 518.434973 334.499573 
L 519.117758 334.780122 
L 519.800543 334.359299 
L 520.483329 336.182868 
L 521.166114 335.060671 
L 521.8489 335.060671 
L 522.531685 336.042593 
L 523.21447 335.902319 
L 523.897256 352.033892 
L 524.580041 336.182868 
L 525.262827 336.042593 
L 525.262827 336.042593 
" style="fill:none;stroke:#1f77b4;stroke-linecap:square;stroke-width:1.5;"/>
   </g>
   <g id="line2d_15">
    <path clip-path="url(#pb397e8e94a)" d="M 151.798323 307.987683 
L 152.481109 323.698433 
L 153.163894 323.137334 
L 153.84668 323.277609 
L 154.529465 318.508274 
L 155.21225 318.648549 
L 155.895036 320.191569 
L 156.577821 330.71216 
L 157.943392 338.427261 
L 158.626177 334.219024 
L 159.308963 340.952202 
L 159.991748 344.459066 
L 160.674534 344.459066 
L 161.357319 346.843734 
L 162.040105 346.984008 
L 162.72289 348.807577 
L 163.405675 349.50895 
L 164.088461 349.50895 
L 164.771246 349.789499 
L 165.454032 350.911696 
L 166.136817 348.527028 
L 167.502388 347.264557 
L 168.185173 347.685381 
L 168.867959 346.002086 
L 169.550744 342.354948 
L 170.233529 342.214673 
L 170.916315 340.671653 
L 171.5991 346.703459 
L 172.281886 344.739615 
L 172.964671 341.934124 
L 173.647457 349.088127 
L 174.330242 346.843734 
L 175.013027 347.124283 
L 175.695813 345.160439 
L 176.378598 343.897968 
L 177.061384 341.373026 
L 177.744169 339.689732 
L 178.426954 336.603691 
L 179.10974 332.114906 
L 179.792525 328.888591 
L 180.475311 324.680354 
L 181.158096 315.843058 
L 181.840882 313.598665 
L 182.523667 307.426584 
L 183.206452 304.480819 
L 183.889238 307.146035 
L 184.572023 293.399129 
L 185.254809 294.521326 
L 185.937594 290.172815 
L 186.620379 291.295011 
L 187.303165 352.174167 
L 187.98595 304.340544 
L 188.668736 304.480819 
L 189.351521 310.512625 
L 190.034306 307.005761 
L 190.717092 313.45839 
L 191.399877 309.811252 
L 192.082663 314.861136 
L 192.765448 312.336194 
L 193.448234 317.386078 
L 194.131019 314.300038 
L 194.813804 317.105529 
L 195.49659 315.281959 
L 196.179375 319.630471 
L 196.862161 315.983332 
L 197.544946 320.612392 
L 198.227731 316.824979 
L 198.910517 320.472118 
L 199.593302 320.051294 
L 200.276088 322.435962 
L 200.958873 319.209647 
L 201.641659 323.978982 
L 202.324444 324.259531 
L 203.007229 321.173491 
L 203.690015 324.119256 
L 204.3728 321.594314 
L 205.055586 323.417883 
L 205.738371 322.856785 
L 206.421156 323.698433 
L 207.103942 321.45404 
L 207.786727 323.838707 
L 208.469513 324.680354 
L 209.152298 324.119256 
L 209.835083 322.155412 
L 210.517869 324.820629 
L 211.200654 322.155412 
L 211.88344 325.662276 
L 212.566225 322.155412 
L 213.249011 324.960904 
L 213.931796 322.295687 
L 214.614581 326.223374 
L 215.297367 352.033892 
L 215.980152 320.051294 
L 216.662938 324.399805 
L 217.345723 323.277609 
L 218.028508 326.0831 
L 218.711294 324.54008 
L 219.394079 325.802551 
L 220.076865 324.680354 
L 220.75965 326.503924 
L 221.442436 325.241453 
L 222.125221 327.065022 
L 222.808006 325.381727 
L 223.490792 326.503924 
L 224.173577 324.820629 
L 224.856363 326.784473 
L 225.539148 325.101178 
L 226.221933 327.62612 
L 226.904719 324.820629 
L 227.587504 328.187218 
L 228.27029 324.54008 
L 228.953075 326.924747 
L 229.63586 335.34122 
L 230.318646 324.820629 
L 231.001431 330.010787 
L 231.684217 327.205296 
L 232.367002 330.571886 
L 233.049788 327.62612 
L 233.732573 331.834357 
L 234.415358 328.327493 
L 235.098144 331.273258 
L 235.780929 329.028866 
L 236.463715 330.852435 
L 237.1465 329.028866 
L 237.829285 330.992709 
L 238.512071 329.028866 
L 239.194856 331.694082 
L 239.877642 329.589964 
L 240.560427 331.834357 
L 241.243213 331.413533 
L 241.925998 331.974631 
L 242.608783 331.834357 
L 243.291569 352.033892 
L 243.974354 328.888591 
L 244.65714 331.694082 
L 245.339925 331.834357 
L 246.02271 332.816278 
L 246.705496 332.114906 
L 247.388281 333.237102 
L 248.071067 332.114906 
L 248.753852 333.517651 
L 249.436637 332.816278 
L 250.119423 333.517651 
L 250.802208 332.535729 
L 251.484994 332.956553 
L 252.167779 332.395455 
L 252.850565 333.096828 
L 253.53335 332.114906 
L 254.216135 333.096828 
L 254.898921 332.25518 
L 255.581706 331.834357 
L 256.264492 332.816278 
L 256.947277 331.834357 
L 257.630062 339.970281 
L 258.312848 332.395455 
L 259.678419 333.377377 
L 260.361204 333.237102 
L 261.04399 333.7982 
L 261.726775 333.096828 
L 262.40956 333.657926 
L 263.092346 333.377377 
L 263.775131 335.060671 
L 264.457917 334.219024 
L 265.140702 335.481495 
L 265.823487 334.219024 
L 266.506273 336.042593 
L 267.189058 334.639848 
L 267.871844 335.621769 
L 268.554629 334.920397 
L 269.237414 335.762044 
L 269.9202 335.200946 
L 270.602985 335.481495 
L 271.285771 352.033892 
L 271.968556 334.078749 
L 272.651342 334.078749 
L 274.016912 336.182868 
L 274.699698 335.200946 
L 275.382483 336.603691 
L 276.065269 335.060671 
L 276.748054 337.445339 
L 277.430839 334.920397 
L 278.113625 336.603691 
L 278.79641 335.200946 
L 279.479196 336.323142 
L 280.161981 335.060671 
L 280.844767 336.323142 
L 281.527552 334.780122 
L 282.210337 334.078749 
L 282.893123 334.780122 
L 283.575908 333.938475 
L 284.258694 335.060671 
L 284.941479 333.657926 
L 285.624264 340.671653 
L 286.30705 331.974631 
L 286.989835 333.096828 
L 287.672621 333.377377 
L 288.355406 333.237102 
L 289.038191 333.938475 
L 289.720977 333.517651 
L 290.403762 334.359299 
L 291.086548 333.237102 
L 291.769333 335.481495 
L 292.452119 333.237102 
L 293.134904 335.481495 
L 293.817689 334.078749 
L 294.500475 334.920397 
L 295.18326 333.657926 
L 295.866046 333.938475 
L 296.548831 333.657926 
L 297.231616 333.517651 
L 297.914402 334.359299 
L 298.597187 333.657926 
L 299.279973 352.033892 
L 299.962758 335.200946 
L 300.645544 335.34122 
L 301.328329 335.200946 
L 302.011114 336.182868 
L 302.6939 333.237102 
L 303.376685 335.34122 
L 304.059471 332.535729 
L 304.742256 333.517651 
L 305.425041 331.413533 
L 306.107827 333.517651 
L 306.790612 330.992709 
L 307.473398 331.834357 
L 308.156183 330.151062 
L 308.838968 330.852435 
L 309.521754 330.431611 
L 310.204539 330.291337 
L 310.887325 330.431611 
L 311.57011 329.589964 
L 312.252896 329.449689 
L 312.935681 329.870513 
L 313.618466 342.214673 
L 314.301252 328.046944 
L 314.984037 329.589964 
L 315.666823 330.010787 
L 316.349608 332.395455 
L 317.032393 331.273258 
L 317.715179 333.237102 
L 318.397964 331.553807 
L 319.08075 333.237102 
L 319.763535 331.553807 
L 320.446321 331.974631 
L 321.129106 332.114906 
L 321.811891 331.553807 
L 322.494677 331.273258 
L 323.177462 331.273258 
L 323.860248 332.535729 
L 324.543033 331.694082 
L 325.225818 332.25518 
L 325.908604 331.413533 
L 326.591389 332.816278 
L 327.274175 343.477144 
L 327.95696 335.200946 
L 328.639745 328.888591 
L 329.322531 330.431611 
L 330.005316 330.71216 
L 330.688102 332.395455 
L 331.370887 332.114906 
L 332.053673 330.431611 
L 332.736458 333.938475 
L 333.419243 330.431611 
L 334.102029 332.816278 
L 334.784814 330.571886 
L 335.4676 332.395455 
L 336.150385 330.010787 
L 336.83317 332.956553 
L 337.515956 330.151062 
L 338.198741 331.974631 
L 338.881527 330.571886 
L 339.564312 331.834357 
L 340.247098 330.71216 
L 340.929883 331.132984 
L 341.612668 352.174167 
L 342.295454 330.010787 
L 342.978239 330.71216 
L 343.661025 333.657926 
L 344.34381 331.974631 
L 345.026595 332.956553 
L 345.709381 332.25518 
L 346.392166 332.956553 
L 347.074952 332.535729 
L 347.757737 333.657926 
L 348.440522 332.956553 
L 349.123308 334.780122 
L 349.806093 333.237102 
L 350.488879 334.920397 
L 351.171664 333.096828 
L 351.85445 335.34122 
L 352.537235 333.377377 
L 353.22002 335.34122 
L 353.902806 333.096828 
L 354.585591 334.780122 
L 355.268377 333.938475 
L 355.951162 338.70781 
L 356.633947 331.694082 
L 357.316733 332.816278 
L 357.999518 333.517651 
L 358.682304 333.096828 
L 359.365089 334.359299 
L 360.047875 334.078749 
L 360.73066 335.621769 
L 361.413445 333.7982 
L 362.096231 335.902319 
L 362.779016 334.499573 
L 363.461802 334.359299 
L 364.144587 335.34122 
L 364.827372 336.743966 
L 365.510158 335.762044 
L 366.192943 336.323142 
L 366.875729 336.042593 
L 367.558514 336.323142 
L 368.2413 336.463417 
L 368.924085 336.042593 
L 369.60687 352.033892 
L 370.289656 334.920397 
L 370.972441 335.34122 
L 371.655227 337.16479 
L 372.338012 335.902319 
L 373.020797 337.16479 
L 373.703583 336.743966 
L 374.386368 337.585613 
L 375.069154 336.743966 
L 375.751939 338.286986 
L 376.434724 336.463417 
L 377.11751 337.024515 
L 377.800295 336.603691 
L 378.483081 336.603691 
L 379.165866 336.323142 
L 379.848652 336.323142 
L 380.531437 335.762044 
L 381.214222 336.042593 
L 381.897008 336.603691 
L 382.579793 336.323142 
L 383.262579 337.866162 
L 383.945364 344.038243 
L 384.628149 335.902319 
L 385.310935 337.16479 
L 385.99372 338.146711 
L 386.676506 336.88424 
L 387.359291 338.427261 
L 388.042077 336.463417 
L 388.724862 338.70781 
L 389.407647 337.305064 
L 390.090433 337.725888 
L 390.773218 337.585613 
L 391.456004 337.16479 
L 392.138789 337.16479 
L 392.821574 337.024515 
L 393.50436 338.006437 
L 394.187145 336.88424 
L 394.869931 338.006437 
L 395.552716 336.743966 
L 396.235501 338.848084 
L 396.918287 336.463417 
L 397.601072 352.033892 
L 398.283858 334.780122 
L 398.966643 335.060671 
L 399.649429 335.621769 
L 400.332214 335.34122 
L 401.014999 335.34122 
L 401.697785 335.762044 
L 402.38057 336.323142 
L 403.063356 335.481495 
L 403.746141 336.88424 
L 404.428926 335.481495 
L 405.111712 336.182868 
L 405.794497 334.920397 
L 406.477283 336.463417 
L 407.160068 335.34122 
L 407.842854 335.34122 
L 408.525639 334.920397 
L 409.208424 334.639848 
L 409.89121 335.481495 
L 410.573995 335.060671 
L 411.256781 335.34122 
L 411.939566 343.617419 
L 412.622351 335.762044 
L 413.305137 335.902319 
L 413.987922 336.182868 
L 414.670708 335.200946 
L 415.353493 335.621769 
L 416.036278 335.34122 
L 417.401849 335.060671 
L 418.084635 335.060671 
L 418.76742 335.621769 
L 419.450206 334.780122 
L 420.132991 335.902319 
L 420.815776 334.780122 
L 421.498562 336.463417 
L 422.181347 334.359299 
L 422.864133 335.902319 
L 423.546918 334.780122 
L 424.229703 335.060671 
L 424.912489 334.219024 
L 425.595274 352.033892 
L 426.27806 336.042593 
L 426.960845 332.25518 
L 427.643631 335.34122 
L 428.326416 334.920397 
L 429.009201 335.060671 
L 429.691987 334.078749 
L 431.057558 335.060671 
L 431.740343 334.359299 
L 433.105914 334.078749 
L 433.788699 334.219024 
L 434.471485 333.657926 
L 435.15427 334.078749 
L 435.837055 334.219024 
L 436.519841 334.219024 
L 437.202626 334.499573 
L 437.885412 333.657926 
L 438.568197 333.517651 
L 439.250983 334.499573 
L 439.933768 345.020164 
L 440.616553 331.273258 
L 441.299339 333.938475 
L 441.982124 333.377377 
L 442.66491 334.639848 
L 443.347695 332.956553 
L 444.03048 335.200946 
L 444.713266 333.938475 
L 445.396051 335.621769 
L 446.078837 333.657926 
L 446.761622 335.762044 
L 447.444408 334.078749 
L 448.127193 335.200946 
L 448.809978 333.657926 
L 449.492764 334.920397 
L 450.175549 333.657926 
L 450.858335 334.359299 
L 451.54112 333.657926 
L 452.223905 333.7982 
L 452.906691 333.7982 
L 453.589476 336.743966 
L 454.272262 338.988359 
L 454.955047 332.816278 
L 455.637832 335.621769 
L 456.320618 332.676004 
L 457.003403 334.780122 
L 457.686189 332.395455 
L 458.368974 334.219024 
L 459.05176 332.816278 
L 460.41733 330.71216 
L 461.100116 330.852435 
L 461.782901 331.273258 
L 462.465687 330.431611 
L 463.148472 331.273258 
L 464.514043 330.151062 
L 465.196828 330.852435 
L 465.879614 332.114906 
L 466.562399 331.132984 
L 467.245185 332.956553 
L 467.92797 352.174167 
L 468.610755 330.010787 
L 469.293541 330.71216 
L 469.976326 331.834357 
L 470.659112 331.413533 
L 471.341897 331.694082 
L 472.024682 332.114906 
L 472.707468 331.694082 
L 473.390253 331.694082 
L 474.073039 332.676004 
L 474.755824 332.956553 
L 475.438609 333.517651 
L 476.121395 331.974631 
L 476.80418 333.517651 
L 477.486966 332.114906 
L 478.169751 334.078749 
L 478.852537 332.25518 
L 479.535322 333.657926 
L 480.218107 332.114906 
L 480.900893 333.657926 
L 481.583678 332.676004 
L 482.266464 338.848084 
L 482.949249 331.553807 
L 483.632034 332.395455 
L 484.31482 332.535729 
L 484.997605 333.657926 
L 485.680391 332.676004 
L 486.363176 335.060671 
L 487.045962 333.096828 
L 487.728747 335.621769 
L 488.411532 333.377377 
L 489.094318 336.182868 
L 489.777103 333.096828 
L 490.459889 334.780122 
L 491.142674 332.816278 
L 491.825459 333.657926 
L 492.508245 332.816278 
L 493.19103 333.096828 
L 493.873816 333.096828 
L 494.556601 332.956553 
L 495.239386 333.096828 
L 495.922172 352.033892 
L 496.604957 332.535729 
L 497.287743 332.535729 
L 497.970528 333.096828 
L 498.653314 332.816278 
L 499.336099 332.676004 
L 500.018884 333.096828 
L 500.70167 332.676004 
L 501.384455 333.657926 
L 502.067241 333.237102 
L 502.750026 334.499573 
L 503.432811 333.938475 
L 504.115597 335.902319 
L 504.798382 333.237102 
L 505.481168 335.762044 
L 506.163953 333.096828 
L 506.846739 336.743966 
L 507.529524 333.517651 
L 508.212309 335.621769 
L 508.895095 334.639848 
L 509.57788 335.481495 
L 510.260666 343.056321 
L 510.943451 332.25518 
L 511.626236 335.481495 
L 512.309022 333.377377 
L 512.991807 334.639848 
L 513.674593 333.7982 
L 514.357378 333.377377 
L 515.040163 334.219024 
L 515.722949 332.395455 
L 516.405734 332.956553 
L 517.08852 331.834357 
L 517.771305 332.816278 
L 518.454091 332.25518 
L 519.136876 333.517651 
L 519.819661 332.816278 
L 519.819661 332.816278 
" style="fill:none;stroke:#ff7f0e;stroke-linecap:square;stroke-width:1.5;"/>
   </g>
   <g id="line2d_16">
    <path clip-path="url(#pb397e8e94a)" d="M 149.041236 306.865486 
L 149.724021 308.548781 
L 150.406807 311.91537 
L 151.089592 313.879214 
L 151.772377 279.511949 
L 152.455163 300.272582 
L 153.820734 309.951526 
L 154.503519 306.584937 
L 155.186305 308.127957 
L 155.86909 313.318116 
L 156.551875 332.395455 
L 157.234661 333.096828 
L 157.917446 337.16479 
L 158.600232 338.427261 
L 159.283017 340.531379 
L 159.965802 344.739615 
L 160.648588 345.020164 
L 162.014159 348.246479 
L 162.696944 351.332519 
L 163.379729 346.282635 
L 164.062515 343.757694 
L 164.7453 341.79385 
L 165.428086 341.79385 
L 166.110871 336.042593 
L 166.793657 337.585613 
L 167.476442 335.481495 
L 168.159227 334.780122 
L 168.842013 332.25518 
L 169.524798 327.205296 
L 170.207584 323.698433 
L 170.890369 323.838707 
L 171.573154 336.88424 
L 172.25594 330.151062 
L 172.938725 325.381727 
L 173.621511 342.074399 
L 174.304296 339.549457 
L 174.987082 338.146711 
L 175.669867 337.305064 
L 176.352652 335.902319 
L 177.035438 337.024515 
L 177.718223 335.200946 
L 178.401009 335.200946 
L 179.083794 337.16479 
L 179.766579 335.200946 
L 180.449365 335.762044 
L 181.814936 337.305064 
L 182.497721 338.006437 
L 183.180506 339.689732 
L 183.863292 339.409182 
L 184.546077 339.970281 
L 185.228863 340.811928 
L 185.911648 342.354948 
L 186.594434 342.074399 
L 187.277219 349.368676 
L 187.960004 342.635497 
L 188.64279 342.214673 
L 189.325575 341.513301 
L 190.008361 343.056321 
L 190.691146 341.373026 
L 191.373931 341.653575 
L 192.056717 339.830006 
L 192.739502 339.970281 
L 193.422288 339.409182 
L 194.105073 338.567535 
L 194.787859 338.146711 
L 196.153429 338.70781 
L 196.836215 337.305064 
L 197.519 339.830006 
L 198.201786 337.725888 
L 198.884571 338.848084 
L 199.567356 337.445339 
L 200.250142 338.427261 
L 200.932927 339.970281 
L 201.615713 338.286986 
L 202.298498 334.639848 
L 202.981283 335.762044 
L 203.664069 335.34122 
L 204.346854 336.182868 
L 205.02964 335.200946 
L 205.712425 335.481495 
L 206.395211 335.34122 
L 207.077996 336.603691 
L 207.760781 335.762044 
L 208.443567 337.585613 
L 209.126352 335.621769 
L 209.809138 337.445339 
L 210.491923 335.621769 
L 211.174708 336.463417 
L 211.857494 336.042593 
L 212.540279 336.323142 
L 213.223065 335.621769 
L 214.588636 335.34122 
L 215.271421 352.033892 
L 215.954206 335.621769 
L 216.636992 337.305064 
L 217.319777 337.445339 
L 218.002563 338.427261 
L 218.685348 338.006437 
L 219.368133 338.848084 
L 220.050919 338.286986 
L 220.733704 338.427261 
L 221.41649 338.146711 
L 222.099275 336.743966 
L 222.78206 337.585613 
L 223.464846 336.182868 
L 224.147631 337.305064 
L 224.830417 336.042593 
L 225.513202 337.305064 
L 226.195988 336.323142 
L 226.878773 337.445339 
L 227.561558 337.725888 
L 228.244344 338.146711 
L 228.927129 336.88424 
L 229.609915 339.970281 
L 230.2927 332.535729 
L 230.975485 333.7982 
L 231.658271 332.956553 
L 232.341056 333.096828 
L 233.023842 333.7982 
L 233.706627 333.377377 
L 235.072198 334.639848 
L 235.754983 333.938475 
L 236.437769 334.639848 
L 237.120554 333.517651 
L 237.80334 334.920397 
L 238.486125 333.938475 
L 239.16891 335.481495 
L 239.851696 333.7982 
L 240.534481 335.200946 
L 241.217267 336.323142 
L 241.900052 335.060671 
L 242.582837 334.639848 
L 243.265623 352.033892 
L 243.948408 333.657926 
L 244.631194 337.305064 
L 245.313979 336.182868 
L 245.996765 336.743966 
L 246.67955 336.042593 
L 248.045121 335.762044 
L 248.727906 335.200946 
L 249.410692 336.042593 
L 250.093477 334.639848 
L 250.776262 335.200946 
L 251.459048 335.060671 
L 252.141833 335.34122 
L 252.824619 334.219024 
L 253.507404 336.042593 
L 254.19019 334.359299 
L 254.872975 336.323142 
L 255.55576 335.060671 
L 256.238546 337.725888 
L 256.921331 334.780122 
L 257.604117 340.952202 
L 258.286902 331.273258 
L 258.969687 332.816278 
L 259.652473 333.237102 
L 260.335258 332.956553 
L 261.018044 333.7982 
L 261.700829 333.517651 
L 262.383615 332.676004 
L 263.0664 334.078749 
L 263.749185 332.535729 
L 264.431971 334.639848 
L 265.114756 331.694082 
L 265.797542 332.816278 
L 266.480327 330.992709 
L 267.163112 332.676004 
L 267.845898 330.852435 
L 268.528683 332.395455 
L 269.211469 330.291337 
L 269.894254 330.71216 
L 270.577039 329.870513 
L 271.259825 352.033892 
L 271.94261 330.71216 
L 272.625396 329.16914 
L 273.308181 330.151062 
L 273.990967 329.870513 
L 274.673752 330.571886 
L 275.356537 329.589964 
L 276.039323 330.71216 
L 276.722108 331.132984 
L 277.404894 330.571886 
L 278.087679 331.974631 
L 278.770464 330.992709 
L 279.45325 332.25518 
L 280.136035 331.413533 
L 280.818821 332.676004 
L 281.501606 331.694082 
L 282.184392 332.395455 
L 282.867177 331.694082 
L 283.549962 333.657926 
L 284.232748 331.974631 
L 284.915533 332.535729 
L 285.598319 341.373026 
L 286.281104 331.694082 
L 286.963889 332.816278 
L 287.646675 332.25518 
L 288.32946 331.974631 
L 289.012246 331.413533 
L 289.695031 331.974631 
L 290.377816 331.974631 
L 291.060602 332.395455 
L 291.743387 333.237102 
L 292.426173 333.096828 
L 293.108958 332.25518 
L 293.791744 333.377377 
L 294.474529 332.25518 
L 295.157314 334.359299 
L 295.8401 331.974631 
L 296.522885 333.938475 
L 297.205671 332.25518 
L 297.888456 333.7982 
L 298.571241 331.553807 
L 299.254027 350.911696 
L 299.936812 332.535729 
L 300.619598 331.694082 
L 301.302383 333.096828 
L 301.985169 333.237102 
L 302.667954 333.517651 
L 303.350739 334.219024 
L 304.033525 333.517651 
L 304.71631 334.920397 
L 305.399096 333.938475 
L 306.081881 334.780122 
L 306.764666 334.359299 
L 307.447452 334.920397 
L 308.130237 334.219024 
L 308.813023 334.780122 
L 309.495808 333.657926 
L 310.178593 335.481495 
L 310.861379 334.359299 
L 311.544164 336.323142 
L 312.22695 333.938475 
L 312.909735 335.902319 
L 313.592521 352.033892 
L 314.275306 333.517651 
L 314.958091 334.920397 
L 315.640877 333.377377 
L 316.323662 333.657926 
L 317.006448 333.7982 
L 317.689233 332.676004 
L 318.372018 332.956553 
L 319.054804 332.535729 
L 319.737589 333.377377 
L 320.420375 332.956553 
L 321.10316 333.237102 
L 321.785946 332.395455 
L 322.468731 333.657926 
L 323.151516 332.816278 
L 323.834302 334.780122 
L 324.517087 332.816278 
L 325.199873 335.060671 
L 325.882658 332.816278 
L 326.565443 335.200946 
L 327.248229 332.676004 
L 327.931014 339.689732 
L 328.6138 331.132984 
L 329.296585 335.902319 
L 329.97937 332.25518 
L 330.662156 333.657926 
L 331.344941 331.834357 
L 332.027727 333.377377 
L 332.710512 332.25518 
L 333.393298 331.553807 
L 334.076083 331.834357 
L 335.441654 330.852435 
L 336.124439 330.71216 
L 336.807225 331.974631 
L 337.49001 331.834357 
L 338.172795 333.096828 
L 338.855581 333.7982 
L 339.538366 334.219024 
L 340.221152 332.114906 
L 340.903937 334.359299 
L 341.586723 352.033892 
L 342.269508 331.132984 
L 342.952293 331.553807 
L 344.317864 333.938475 
L 345.00065 333.517651 
L 345.683435 333.517651 
L 346.36622 331.553807 
L 347.049006 333.377377 
L 347.731791 331.694082 
L 349.097362 332.535729 
L 349.780147 330.71216 
L 351.145718 331.974631 
L 352.511289 330.71216 
L 353.194075 331.413533 
L 353.87686 331.694082 
L 354.559645 332.25518 
L 355.242431 333.237102 
L 355.925216 338.286986 
L 356.608002 328.608042 
L 357.290787 328.748316 
L 357.973572 328.327493 
L 358.656358 327.485845 
L 359.339143 326.924747 
L 360.021929 327.766395 
L 360.704714 326.784473 
L 361.3875 326.644198 
L 362.070285 326.924747 
L 362.75307 327.766395 
L 363.435856 325.522002 
L 364.118641 329.449689 
L 364.801427 325.942825 
L 365.484212 330.010787 
L 366.166997 326.363649 
L 366.849783 329.449689 
L 367.532568 325.662276 
L 368.215354 329.16914 
L 368.898139 325.381727 
L 369.580924 352.033892 
L 370.26371 325.101178 
L 370.946495 325.662276 
L 371.629281 326.924747 
L 372.312066 327.345571 
L 373.677637 329.589964 
L 374.360422 328.327493 
L 375.043208 329.449689 
L 375.725993 327.906669 
L 376.408779 328.467767 
L 377.091564 328.467767 
L 377.774349 328.888591 
L 378.457135 328.327493 
L 379.13992 329.309415 
L 379.822706 328.608042 
L 381.188277 329.449689 
L 381.871062 329.449689 
L 382.553847 329.309415 
L 383.236633 330.852435 
L 383.919418 340.811928 
L 384.602204 330.71216 
L 385.967774 332.25518 
L 386.65056 332.535729 
L 387.333345 331.834357 
L 388.016131 332.816278 
L 388.698916 332.114906 
L 389.381701 333.096828 
L 390.064487 332.395455 
L 390.747272 333.237102 
L 391.430058 333.237102 
L 392.112843 332.816278 
L 392.795629 332.816278 
L 393.478414 333.938475 
L 394.161199 333.096828 
L 394.843985 334.780122 
L 395.52677 332.816278 
L 396.209556 334.920397 
L 396.892341 334.359299 
L 397.575126 352.033892 
L 398.257912 332.535729 
L 398.940697 333.657926 
L 399.623483 334.219024 
L 400.306268 334.078749 
L 400.989054 333.237102 
L 401.671839 334.219024 
L 402.354624 333.377377 
L 403.03741 333.517651 
L 403.720195 334.078749 
L 404.402981 333.938475 
L 405.085766 333.237102 
L 405.768551 334.078749 
L 406.451337 333.377377 
L 407.134122 334.780122 
L 407.816908 333.657926 
L 408.499693 336.042593 
L 409.182478 334.780122 
L 409.865264 336.182868 
L 410.548049 333.517651 
L 411.230835 334.499573 
L 411.91362 341.653575 
L 412.596406 331.974631 
L 413.279191 332.956553 
L 413.961976 333.237102 
L 414.644762 332.956553 
L 415.327547 333.237102 
L 416.010333 333.237102 
L 416.693118 334.078749 
L 417.375903 333.517651 
L 418.058689 334.920397 
L 418.741474 333.096828 
L 419.42426 334.078749 
L 420.107045 332.676004 
L 420.789831 334.078749 
L 421.472616 332.956553 
L 422.155401 333.7982 
L 422.838187 333.377377 
L 423.520972 333.237102 
L 424.203758 333.237102 
L 424.886543 332.676004 
L 425.569328 347.685381 
L 426.252114 334.359299 
L 426.934899 332.535729 
L 427.617685 333.517651 
L 428.30047 335.060671 
L 428.983255 333.657926 
L 429.666041 334.219024 
L 430.348826 333.7982 
L 431.031612 334.359299 
L 431.714397 334.359299 
L 432.397183 335.060671 
L 433.079968 334.920397 
L 433.762753 335.902319 
L 434.445539 334.639848 
L 435.128324 336.463417 
L 435.81111 335.060671 
L 436.493895 335.762044 
L 437.17668 335.481495 
L 438.542251 334.219024 
L 439.225037 334.359299 
L 439.907822 352.033892 
L 440.590608 332.395455 
L 441.273393 333.096828 
L 441.956178 334.920397 
L 442.638964 334.499573 
L 443.321749 334.219024 
L 444.004535 335.060671 
L 444.68732 333.517651 
L 445.370105 335.200946 
L 446.052891 333.657926 
L 446.735676 335.481495 
L 447.418462 333.377377 
L 448.101247 335.200946 
L 448.784032 333.237102 
L 449.466818 334.920397 
L 450.832389 334.078749 
L 451.515174 332.956553 
L 452.19796 332.676004 
L 452.880745 333.377377 
L 453.56353 332.395455 
L 454.246316 337.725888 
L 454.929101 331.413533 
L 455.611887 331.974631 
L 456.294672 331.834357 
L 456.977457 332.395455 
L 457.660243 332.395455 
L 458.343028 333.237102 
L 459.025814 333.517651 
L 459.708599 334.219024 
L 460.391385 333.938475 
L 461.07417 335.902319 
L 461.756955 334.639848 
L 462.439741 336.323142 
L 463.122526 334.639848 
L 463.805312 336.463417 
L 464.488097 333.938475 
L 465.170882 335.200946 
L 465.853668 334.219024 
L 466.536453 334.359299 
L 467.219239 333.657926 
L 467.902024 352.033892 
L 468.584809 332.535729 
L 469.267595 334.078749 
L 469.95038 334.219024 
L 470.633166 336.042593 
L 471.315951 334.219024 
L 471.998737 335.34122 
L 472.681522 333.7982 
L 473.364307 334.499573 
L 474.047093 333.938475 
L 474.729878 334.780122 
L 475.412664 333.377377 
L 476.095449 333.096828 
L 476.778234 333.377377 
L 477.46102 332.956553 
L 478.143805 333.517651 
L 478.826591 332.676004 
L 479.509376 333.377377 
L 480.192162 332.816278 
L 480.874947 333.237102 
L 481.557732 332.395455 
L 482.240518 341.934124 
L 482.923303 332.676004 
L 483.606089 333.237102 
L 484.288874 333.237102 
L 484.971659 332.956553 
L 486.33723 334.639848 
L 487.020016 332.816278 
L 487.702801 333.377377 
L 488.385587 334.499573 
L 489.068372 333.237102 
L 489.751157 335.34122 
L 490.433943 333.096828 
L 491.116728 334.920397 
L 491.799514 333.096828 
L 492.482299 333.237102 
L 493.165084 332.816278 
L 493.84787 332.816278 
L 494.530655 333.377377 
L 495.213441 332.395455 
L 495.896226 352.033892 
L 496.579011 330.992709 
L 497.261797 331.974631 
L 497.944582 330.992709 
L 498.627368 332.956553 
L 499.310153 331.132984 
L 499.992939 333.657926 
L 500.675724 331.413533 
L 501.358509 332.395455 
L 502.041295 330.71216 
L 502.72408 332.676004 
L 503.406866 331.834357 
L 504.089651 332.395455 
L 504.772436 332.535729 
L 505.455222 331.413533 
L 506.138007 331.553807 
L 506.820793 332.395455 
L 507.503578 331.553807 
L 508.186364 331.132984 
L 508.869149 331.694082 
L 509.551934 331.694082 
L 510.23472 340.25083 
L 510.917505 330.291337 
L 511.600291 333.938475 
L 512.283076 332.956553 
L 512.965861 334.780122 
L 513.648647 333.517651 
L 515.014218 333.7982 
L 515.697003 333.096828 
L 516.379788 333.938475 
L 517.062574 332.395455 
L 517.745359 333.237102 
L 517.745359 333.237102 
" style="fill:none;stroke:#2ca02c;stroke-linecap:square;stroke-width:1.5;"/>
   </g>
   <g id="line2d_17">
    <path clip-path="url(#pb397e8e94a)" d="M 154.581357 280.213321 
L 155.264142 209.234398 
L 155.946927 271.23575 
L 156.629713 263.099826 
L 157.312498 257.06802 
L 157.995284 244.303036 
L 158.678069 186.089097 
L 159.360855 244.864134 
L 160.04364 253.420882 
L 160.726425 269.412181 
L 161.409211 268.430259 
L 162.091996 279.091125 
L 162.774782 296.625444 
L 163.457567 296.344895 
L 164.140352 299.711484 
L 164.823138 305.74329 
L 165.505923 307.566859 
L 166.188709 307.426584 
L 167.55428 320.612392 
L 168.237065 352.033892 
L 168.91985 306.023839 
L 169.602636 290.03254 
L 170.285421 286.385402 
L 170.968207 273.760692 
L 171.650992 318.788823 
L 172.333777 308.408506 
L 173.016563 295.783797 
L 173.699348 336.182868 
L 174.382134 334.639848 
L 175.064919 335.200946 
L 175.747704 335.481495 
L 176.43049 335.902319 
L 177.113275 337.725888 
L 177.796061 336.042593 
L 178.478846 336.323142 
L 179.844417 337.445339 
L 180.527202 339.409182 
L 181.209988 339.128633 
L 181.892773 340.25083 
L 182.575559 340.811928 
L 183.258344 342.214673 
L 183.941129 342.354948 
L 185.989486 344.459066 
L 186.672271 344.318792 
L 187.355057 349.228401 
L 188.037842 343.33687 
L 189.403413 343.056321 
L 190.086198 342.775772 
L 190.768984 341.934124 
L 191.451769 342.074399 
L 192.134554 340.671653 
L 192.81734 341.373026 
L 193.500125 340.811928 
L 194.182911 340.811928 
L 194.865696 340.531379 
L 195.548481 339.409182 
L 196.231267 340.25083 
L 196.914052 339.268908 
L 197.596838 340.391104 
L 198.279623 339.409182 
L 198.962409 341.092477 
L 199.645194 340.25083 
L 200.327979 341.653575 
L 201.010765 347.685381 
L 201.69355 341.232752 
L 202.376336 341.232752 
L 203.059121 340.671653 
L 203.741906 341.934124 
L 204.424692 339.830006 
L 205.107477 340.671653 
L 205.790263 340.110555 
L 206.473048 338.988359 
L 207.155834 338.70781 
L 207.838619 338.146711 
L 208.521404 339.128633 
L 209.20419 338.146711 
L 209.886975 338.988359 
L 210.569761 337.866162 
L 211.252546 339.268908 
L 211.935331 339.128633 
L 212.618117 339.268908 
L 213.300902 338.146711 
L 213.983688 338.286986 
L 214.666473 338.848084 
L 215.349258 347.124283 
L 216.032044 335.060671 
L 216.714829 336.182868 
L 217.397615 336.743966 
L 218.0804 337.585613 
L 218.763186 336.323142 
L 219.445971 337.305064 
L 220.128756 336.323142 
L 220.811542 337.16479 
L 221.494327 335.902319 
L 222.177113 336.88424 
L 222.859898 336.603691 
L 223.542683 337.585613 
L 224.225469 336.743966 
L 224.908254 338.286986 
L 225.59104 336.603691 
L 226.273825 338.567535 
L 226.956611 336.182868 
L 227.639396 338.848084 
L 228.322181 336.323142 
L 229.004967 339.970281 
L 229.687752 340.110555 
L 230.370538 335.060671 
L 231.053323 335.762044 
L 231.736108 335.762044 
L 232.418894 335.060671 
L 233.101679 334.639848 
L 233.784465 334.780122 
L 234.46725 334.078749 
L 235.150035 335.200946 
L 235.832821 333.7982 
L 236.515606 335.34122 
L 237.198392 334.078749 
L 237.881177 334.920397 
L 238.563963 334.499573 
L 239.246748 335.621769 
L 239.929533 334.780122 
L 240.612319 336.323142 
L 241.295104 335.481495 
L 241.97789 336.182868 
L 242.660675 334.780122 
L 243.34346 352.033892 
L 244.026246 332.25518 
L 244.709031 334.780122 
L 245.391817 334.078749 
L 246.074602 334.499573 
L 246.757388 333.7982 
L 247.440173 333.657926 
L 248.122958 333.237102 
L 248.805744 333.938475 
L 250.171315 334.219024 
L 250.8541 334.078749 
L 251.536885 334.219024 
L 252.219671 333.7982 
L 252.902456 334.078749 
L 253.585242 333.377377 
L 254.268027 334.780122 
L 254.950812 334.078749 
L 255.633598 335.200946 
L 256.316383 333.657926 
L 256.999169 334.920397 
L 257.681954 341.232752 
L 258.36474 333.096828 
L 259.047525 336.042593 
L 259.73031 334.499573 
L 260.413096 335.060671 
L 261.095881 334.499573 
L 261.778667 335.621769 
L 262.461452 334.078749 
L 263.144237 335.200946 
L 263.827023 334.780122 
L 264.509808 334.780122 
L 265.192594 336.042593 
L 265.875379 334.359299 
L 266.558165 335.34122 
L 267.24095 334.639848 
L 267.923735 334.359299 
L 268.606521 335.060671 
L 269.289306 335.060671 
L 269.972092 334.920397 
L 270.654877 335.762044 
L 271.337662 352.033892 
L 272.020448 334.219024 
L 272.703233 334.499573 
L 273.386019 335.060671 
L 274.068804 336.743966 
L 274.751589 335.902319 
L 275.434375 335.902319 
L 276.11716 335.481495 
L 276.799946 336.743966 
L 277.482731 335.621769 
L 278.165517 336.463417 
L 278.848302 335.902319 
L 279.531087 336.042593 
L 280.213873 336.042593 
L 280.896658 336.463417 
L 281.579444 336.042593 
L 282.262229 337.445339 
L 282.945014 337.024515 
L 283.6278 338.146711 
L 284.310585 336.743966 
L 284.993371 337.866162 
L 285.676156 341.653575 
L 286.358942 333.237102 
L 287.041727 335.200946 
L 287.724512 334.499573 
L 288.407298 336.042593 
L 289.090083 334.780122 
L 289.772869 336.042593 
L 290.455654 334.499573 
L 291.138439 336.323142 
L 291.821225 334.780122 
L 292.50401 334.780122 
L 293.186796 334.359299 
L 293.869581 333.7982 
L 294.552366 334.499573 
L 295.235152 333.517651 
L 295.917937 333.938475 
L 296.600723 334.639848 
L 297.283508 334.359299 
L 297.966294 334.499573 
L 298.649079 335.621769 
L 299.331864 352.033892 
L 300.01465 333.377377 
L 300.697435 332.395455 
L 301.380221 335.762044 
L 302.063006 333.237102 
L 302.745791 335.481495 
L 303.428577 333.096828 
L 304.111362 335.060671 
L 304.794148 333.517651 
L 305.476933 334.219024 
L 306.159719 333.377377 
L 306.842504 334.359299 
L 307.525289 334.219024 
L 308.208075 334.219024 
L 308.89086 334.359299 
L 309.573646 334.078749 
L 310.256431 335.481495 
L 310.939216 334.359299 
L 311.622002 335.200946 
L 312.304787 334.639848 
L 312.987573 336.463417 
L 313.670358 343.33687 
L 314.353143 332.25518 
L 315.035929 333.657926 
L 315.718714 334.219024 
L 316.4015 334.359299 
L 317.084285 335.34122 
L 317.767071 333.657926 
L 318.449856 335.200946 
L 319.132641 333.7982 
L 319.815427 335.762044 
L 320.498212 334.219024 
L 321.180998 335.34122 
L 321.863783 333.377377 
L 322.546568 334.078749 
L 323.229354 333.237102 
L 323.912139 333.377377 
L 324.594925 332.816278 
L 325.27771 332.676004 
L 325.960496 332.676004 
L 326.643281 332.535729 
L 327.326066 352.033892 
L 328.008852 336.182868 
L 328.691637 334.499573 
L 329.374423 333.517651 
L 330.057208 334.780122 
L 330.739993 333.7982 
L 331.422779 334.078749 
L 332.105564 333.657926 
L 332.78835 333.517651 
L 334.15392 333.517651 
L 334.836706 333.7982 
L 335.519491 333.657926 
L 336.202277 334.078749 
L 336.885062 333.7982 
L 337.567848 335.200946 
L 338.250633 333.7982 
L 338.933418 335.762044 
L 339.616204 333.517651 
L 340.298989 335.060671 
L 340.981775 333.096828 
L 341.66456 351.613068 
L 342.347345 331.273258 
L 343.030131 333.517651 
L 343.712916 333.237102 
L 344.395702 334.920397 
L 345.078487 334.219024 
L 345.761273 334.920397 
L 346.444058 333.938475 
L 347.126843 334.359299 
L 348.492414 333.377377 
L 349.1752 333.7982 
L 349.857985 333.517651 
L 350.54077 333.517651 
L 351.223556 332.956553 
L 351.906341 334.219024 
L 352.589127 334.078749 
L 353.271912 334.359299 
L 353.954698 333.657926 
L 354.637483 334.499573 
L 355.320268 334.359299 
L 356.003054 340.811928 
L 356.685839 334.499573 
L 357.368625 336.463417 
L 358.05141 335.902319 
L 358.734195 337.024515 
L 359.416981 335.481495 
L 360.099766 337.305064 
L 360.782552 336.042593 
L 361.465337 336.743966 
L 362.148122 335.902319 
L 363.513693 337.16479 
L 364.196479 336.182868 
L 364.879264 336.042593 
L 365.56205 336.182868 
L 366.92762 336.743966 
L 367.610406 337.16479 
L 368.293191 336.88424 
L 368.975977 338.286986 
L 369.658762 352.033892 
L 370.341547 334.499573 
L 371.024333 335.34122 
L 371.707118 335.200946 
L 372.389904 336.042593 
L 373.072689 334.499573 
L 373.755475 336.182868 
L 374.43826 334.499573 
L 375.121045 335.481495 
L 375.803831 333.377377 
L 376.486616 336.603691 
L 377.169402 332.676004 
L 377.852187 333.657926 
L 378.534972 332.816278 
L 379.217758 333.657926 
L 379.900543 333.377377 
L 380.583329 332.676004 
L 381.266114 333.517651 
L 381.948899 333.237102 
L 382.631685 333.377377 
L 383.31447 333.657926 
L 383.997256 340.671653 
L 384.680041 331.132984 
L 385.362827 332.816278 
L 386.045612 332.816278 
L 386.728397 333.377377 
L 387.411183 332.114906 
L 388.093968 333.517651 
L 388.776754 332.114906 
L 389.459539 332.676004 
L 390.142324 330.151062 
L 390.82511 332.535729 
L 391.507895 329.870513 
L 392.190681 330.852435 
L 392.873466 330.010787 
L 393.556252 329.449689 
L 394.239037 329.589964 
L 394.921822 329.309415 
L 395.604608 329.589964 
L 396.287393 331.834357 
L 396.970179 330.431611 
L 397.652964 352.033892 
L 398.335749 329.028866 
L 399.018535 329.309415 
L 399.70132 333.096828 
L 400.384106 330.431611 
L 401.066891 334.499573 
L 401.749676 331.132984 
L 402.432462 332.535729 
L 403.115247 331.834357 
L 403.798033 331.974631 
L 404.480818 331.974631 
L 405.163604 331.273258 
L 405.846389 332.535729 
L 406.529174 331.834357 
L 407.21196 332.395455 
L 407.894745 331.132984 
L 408.577531 332.956553 
L 409.260316 331.974631 
L 409.943101 332.25518 
L 410.625887 329.870513 
L 411.308672 331.132984 
L 411.991458 340.671653 
L 412.674243 328.748316 
L 413.357029 331.974631 
L 414.039814 330.291337 
L 414.722599 331.132984 
L 415.405385 330.992709 
L 416.08817 333.096828 
L 416.770956 331.413533 
L 417.453741 331.273258 
L 418.136526 332.395455 
L 418.819312 331.694082 
L 419.502097 332.25518 
L 420.184883 333.096828 
L 420.867668 333.517651 
L 421.550453 333.096828 
L 422.233239 334.219024 
L 422.916024 332.956553 
L 423.59881 334.780122 
L 424.281595 332.816278 
L 424.964381 334.499573 
L 425.647166 352.033892 
L 426.329951 334.219024 
L 427.012737 331.132984 
L 427.695522 334.078749 
L 428.378308 333.377377 
L 429.061093 333.7982 
L 429.743878 332.816278 
L 430.426664 334.078749 
L 431.109449 333.237102 
L 431.792235 332.816278 
L 432.47502 333.237102 
L 433.157806 333.938475 
L 433.840591 334.920397 
L 434.523376 333.7982 
L 435.206162 336.182868 
L 435.888947 334.078749 
L 436.571733 335.762044 
L 437.254518 334.499573 
L 437.937303 337.585613 
L 438.620089 334.219024 
L 439.302874 334.359299 
L 439.98566 343.897968 
L 440.668445 332.535729 
L 441.35123 333.938475 
L 442.034016 334.639848 
L 442.716801 335.902319 
L 443.399587 334.639848 
L 444.082372 336.88424 
L 444.765158 335.060671 
L 445.447943 337.866162 
L 446.130728 335.34122 
L 446.813514 338.006437 
L 447.496299 335.621769 
L 448.179085 335.902319 
L 448.86187 335.762044 
L 449.544655 335.762044 
L 450.227441 336.603691 
L 450.910226 335.200946 
L 451.593012 336.603691 
L 452.275797 335.481495 
L 452.958583 337.305064 
L 453.641368 344.599341 
L 454.324153 337.024515 
L 455.006939 334.639848 
L 455.689724 335.34122 
L 456.37251 335.060671 
L 457.055295 335.200946 
L 457.73808 336.182868 
L 458.420866 335.621769 
L 459.103651 336.743966 
L 459.786437 336.743966 
L 460.469222 336.603691 
L 461.152007 335.060671 
L 461.834793 336.743966 
L 462.517578 335.060671 
L 463.200364 337.16479 
L 463.883149 335.34122 
L 464.565935 336.042593 
L 465.24872 335.060671 
L 465.931505 335.762044 
L 466.614291 336.182868 
L 467.297076 335.060671 
L 467.979862 352.033892 
L 468.662647 334.499573 
L 469.345432 336.463417 
L 470.028218 335.621769 
L 470.711003 337.585613 
L 471.393789 336.603691 
L 472.076574 336.603691 
L 472.75936 335.621769 
L 473.442145 336.88424 
L 474.12493 336.042593 
L 474.807716 335.902319 
L 475.490501 335.621769 
L 476.856072 336.182868 
L 477.538857 336.182868 
L 478.221643 337.585613 
L 478.904428 335.902319 
L 479.587214 336.463417 
L 480.269999 335.762044 
L 480.952784 337.725888 
L 481.63557 335.902319 
L 482.318355 339.409182 
L 483.001141 335.621769 
L 483.683926 335.200946 
L 484.366712 337.024515 
L 485.049497 335.34122 
L 485.732282 337.445339 
L 486.415068 336.323142 
L 487.097853 336.603691 
L 487.780639 335.762044 
L 488.463424 336.323142 
L 489.146209 336.182868 
L 489.828995 335.902319 
L 490.51178 335.481495 
L 491.194566 335.481495 
L 491.877351 335.621769 
L 492.560137 335.481495 
L 493.242922 335.621769 
L 493.925707 335.34122 
L 494.608493 335.621769 
L 495.291278 336.603691 
L 495.974064 352.033892 
L 496.656849 334.920397 
L 497.339634 335.902319 
L 498.02242 335.902319 
L 498.705205 335.762044 
L 499.387991 335.762044 
L 500.070776 335.902319 
L 500.753561 335.762044 
L 501.436347 336.463417 
L 502.119132 336.463417 
L 502.801918 336.323142 
L 503.484703 337.16479 
L 504.167489 335.902319 
L 504.850274 336.88424 
L 505.533059 335.481495 
L 506.215845 336.88424 
L 506.89863 335.200946 
L 507.581416 336.042593 
L 508.264201 334.219024 
L 508.946986 335.34122 
L 509.629772 333.517651 
L 510.312557 340.25083 
L 510.995343 332.956553 
L 511.678128 334.920397 
L 512.360914 332.956553 
L 513.043699 334.499573 
L 513.726484 334.499573 
L 514.40927 334.780122 
L 515.092055 334.078749 
L 515.774841 335.200946 
L 516.457626 334.639848 
L 517.140411 335.902319 
L 517.823197 334.639848 
L 518.505982 335.060671 
L 519.188768 334.078749 
L 520.554338 334.078749 
L 521.237124 333.237102 
L 521.919909 333.657926 
L 522.602695 333.237102 
L 522.602695 333.237102 
" style="fill:none;stroke:#d62728;stroke-linecap:square;stroke-width:1.5;"/>
   </g>
   <g id="patch_3">
    <path d="M 130.230156 352.174167 
L 130.230156 35.0625 
" style="fill:none;stroke:#000000;stroke-linecap:square;stroke-linejoin:miter;stroke-width:0.8;"/>
   </g>
   <g id="patch_4">
    <path d="M 544.073906 352.174167 
L 544.073906 35.0625 
" style="fill:none;stroke:#000000;stroke-linecap:square;stroke-linejoin:miter;stroke-width:0.8;"/>
   </g>
   <g id="patch_5">
    <path d="M 130.230156 352.174167 
L 544.073906 352.174167 
" style="fill:none;stroke:#000000;stroke-linecap:square;stroke-linejoin:miter;stroke-width:0.8;"/>
   </g>
   <g id="patch_6">
    <path d="M 130.230156 35.0625 
L 544.073906 35.0625 
" style="fill:none;stroke:#000000;stroke-linecap:square;stroke-linejoin:miter;stroke-width:0.8;"/>
   </g>
   <g id="legend_1">
    <g id="patch_7">
     <path d="M 566.766094 96.775 
L 628.298906 96.775 
Q 630.298906 96.775 630.298906 94.775 
L 630.298906 37.0625 
Q 630.298906 35.0625 628.298906 35.0625 
L 566.766094 35.0625 
Q 564.766094 35.0625 564.766094 37.0625 
L 564.766094 94.775 
Q 564.766094 96.775 566.766094 96.775 
z
" style="fill:#ffffff;opacity:0.8;stroke:#cccccc;stroke-linejoin:miter;"/>
    </g>
    <g id="line2d_18">
     <path d="M 568.766094 43.160937 
L 588.766094 43.160937 
" style="fill:none;stroke:#1f77b4;stroke-linecap:square;stroke-width:1.5;"/>
    </g>
    <g id="line2d_19"/>
    <g id="text_15">
     <!-- bbr-pi -->
     <defs>
      <path d="M 41.109375 46.296875 
Q 39.59375 47.171875 37.8125 47.578125 
Q 36.03125 48 33.890625 48 
Q 26.265625 48 22.1875 43.046875 
Q 18.109375 38.09375 18.109375 28.8125 
L 18.109375 0 
L 9.078125 0 
L 9.078125 54.6875 
L 18.109375 54.6875 
L 18.109375 46.1875 
Q 20.953125 51.171875 25.484375 53.578125 
Q 30.03125 56 36.53125 56 
Q 37.453125 56 38.578125 55.875 
Q 39.703125 55.765625 41.0625 55.515625 
z
" id="DejaVuSans-114"/>
      <path d="M 4.890625 31.390625 
L 31.203125 31.390625 
L 31.203125 23.390625 
L 4.890625 23.390625 
z
" id="DejaVuSans-45"/>
      <path d="M 18.109375 8.203125 
L 18.109375 -20.796875 
L 9.078125 -20.796875 
L 9.078125 54.6875 
L 18.109375 54.6875 
L 18.109375 46.390625 
Q 20.953125 51.265625 25.265625 53.625 
Q 29.59375 56 35.59375 56 
Q 45.5625 56 51.78125 48.09375 
Q 58.015625 40.1875 58.015625 27.296875 
Q 58.015625 14.40625 51.78125 6.484375 
Q 45.5625 -1.421875 35.59375 -1.421875 
Q 29.59375 -1.421875 25.265625 0.953125 
Q 20.953125 3.328125 18.109375 8.203125 
z
M 48.6875 27.296875 
Q 48.6875 37.203125 44.609375 42.84375 
Q 40.53125 48.484375 33.40625 48.484375 
Q 26.265625 48.484375 22.1875 42.84375 
Q 18.109375 37.203125 18.109375 27.296875 
Q 18.109375 17.390625 22.1875 11.75 
Q 26.265625 6.109375 33.40625 6.109375 
Q 40.53125 6.109375 44.609375 11.75 
Q 48.6875 17.390625 48.6875 27.296875 
z
" id="DejaVuSans-112"/>
     </defs>
     <g transform="translate(596.766094 46.660937)scale(0.1 -0.1)">
      <use xlink:href="#DejaVuSans-98"/>
      <use x="63.476562" xlink:href="#DejaVuSans-98"/>
      <use x="126.953125" xlink:href="#DejaVuSans-114"/>
      <use x="167.972656" xlink:href="#DejaVuSans-45"/>
      <use x="204.056641" xlink:href="#DejaVuSans-112"/>
      <use x="267.533203" xlink:href="#DejaVuSans-105"/>
     </g>
    </g>
    <g id="line2d_20">
     <path d="M 568.766094 57.839063 
L 588.766094 57.839063 
" style="fill:none;stroke:#ff7f0e;stroke-linecap:square;stroke-width:1.5;"/>
    </g>
    <g id="line2d_21"/>
    <g id="text_16">
     <!-- bbr-pi -->
     <g transform="translate(596.766094 61.339063)scale(0.1 -0.1)">
      <use xlink:href="#DejaVuSans-98"/>
      <use x="63.476562" xlink:href="#DejaVuSans-98"/>
      <use x="126.953125" xlink:href="#DejaVuSans-114"/>
      <use x="167.972656" xlink:href="#DejaVuSans-45"/>
      <use x="204.056641" xlink:href="#DejaVuSans-112"/>
      <use x="267.533203" xlink:href="#DejaVuSans-105"/>
     </g>
    </g>
    <g id="line2d_22">
     <path d="M 568.766094 72.517187 
L 588.766094 72.517187 
" style="fill:none;stroke:#2ca02c;stroke-linecap:square;stroke-width:1.5;"/>
    </g>
    <g id="line2d_23"/>
    <g id="text_17">
     <!-- bbr-pi -->
     <g transform="translate(596.766094 76.017187)scale(0.1 -0.1)">
      <use xlink:href="#DejaVuSans-98"/>
      <use x="63.476562" xlink:href="#DejaVuSans-98"/>
      <use x="126.953125" xlink:href="#DejaVuSans-114"/>
      <use x="167.972656" xlink:href="#DejaVuSans-45"/>
      <use x="204.056641" xlink:href="#DejaVuSans-112"/>
      <use x="267.533203" xlink:href="#DejaVuSans-105"/>
     </g>
    </g>
    <g id="line2d_24">
     <path d="M 568.766094 87.195312 
L 588.766094 87.195312 
" style="fill:none;stroke:#d62728;stroke-linecap:square;stroke-width:1.5;"/>
    </g>
    <g id="line2d_25"/>
    <g id="text_18">
     <!-- bbr-pi -->
     <g transform="translate(596.766094 90.695312)scale(0.1 -0.1)">
      <use xlink:href="#DejaVuSans-98"/>
      <use x="63.476562" xlink:href="#DejaVuSans-98"/>
      <use x="126.953125" xlink:href="#DejaVuSans-114"/>
      <use x="167.972656" xlink:href="#DejaVuSans-45"/>
      <use x="204.056641" xlink:href="#DejaVuSans-112"/>
      <use x="267.533203" xlink:href="#DejaVuSans-105"/>
     </g>
    </g>
   </g>
  </g>
  <g id="text_19">
   <!-- result inflight -->
   <defs>
    <path d="M 8.5 21.578125 
L 8.5 54.6875 
L 17.484375 54.6875 
L 17.484375 21.921875 
Q 17.484375 14.15625 20.5 10.265625 
Q 23.53125 6.390625 29.59375 6.390625 
Q 36.859375 6.390625 41.078125 11.03125 
Q 45.3125 15.671875 45.3125 23.6875 
L 45.3125 54.6875 
L 54.296875 54.6875 
L 54.296875 0 
L 45.3125 0 
L 45.3125 8.40625 
Q 42.046875 3.421875 37.71875 1 
Q 33.40625 -1.421875 27.6875 -1.421875 
Q 18.265625 -1.421875 13.375 4.4375 
Q 8.5 10.296875 8.5 21.578125 
z
M 31.109375 56 
z
" id="DejaVuSans-117"/>
    <path id="DejaVuSans-32"/>
   </defs>
   <g transform="translate(302.110313 17.038125)scale(0.12 -0.12)">
    <use xlink:href="#DejaVuSans-114"/>
    <use x="41.082031" xlink:href="#DejaVuSans-101"/>
    <use x="102.605469" xlink:href="#DejaVuSans-115"/>
    <use x="154.705078" xlink:href="#DejaVuSans-117"/>
    <use x="218.083984" xlink:href="#DejaVuSans-108"/>
    <use x="245.867188" xlink:href="#DejaVuSans-116"/>
    <use x="285.076172" xlink:href="#DejaVuSans-32"/>
    <use x="316.863281" xlink:href="#DejaVuSans-105"/>
    <use x="344.646484" xlink:href="#DejaVuSans-110"/>
    <use x="408.025391" xlink:href="#DejaVuSans-102"/>
    <use x="443.230469" xlink:href="#DejaVuSans-108"/>
    <use x="471.013672" xlink:href="#DejaVuSans-105"/>
    <use x="498.796875" xlink:href="#DejaVuSans-103"/>
    <use x="562.273438" xlink:href="#DejaVuSans-104"/>
    <use x="625.652344" xlink:href="#DejaVuSans-116"/>
   </g>
  </g>
 </g>
 <defs>
  <clipPath id="pb397e8e94a">
   <rect height="317.111667" width="413.84375" x="130.230156" y="35.0625"/>
  </clipPath>
 </defs>
</svg>
