<?xml version="1.0" encoding="utf-8" standalone="no"?>
<!DOCTYPE svg PUBLIC "-//W3C//DTD SVG 1.1//EN"
  "http://www.w3.org/Graphics/SVG/1.1/DTD/svg11.dtd">
<!-- Created with matplotlib (https://matplotlib.org/) -->
<svg height="396pt" version="1.1" viewBox="0 0 684 396" width="684pt" xmlns="http://www.w3.org/2000/svg" xmlns:xlink="http://www.w3.org/1999/xlink">
 <defs>
  <style type="text/css">
*{stroke-linecap:butt;stroke-linejoin:round;}
  </style>
 </defs>
 <g id="figure_1">
  <g id="patch_1">
   <path d="M 0 396 
L 684 396 
L 684 0 
L 0 0 
z
" style="fill:#ffffff;"/>
  </g>
  <g id="axes_1">
   <g id="patch_2">
    <path d="M 92.823906 352.174167 
L 488.365312 352.174167 
L 488.365312 35.0625 
L 92.823906 35.0625 
z
" style="fill:#ffffff;"/>
   </g>
   <g id="matplotlib.axis_1">
    <g id="xtick_1">
     <g id="line2d_1">
      <defs>
       <path d="M 0 0 
L 0 3.5 
" id="m6cfe38b7fd" style="stroke:#000000;stroke-width:0.8;"/>
      </defs>
      <g>
       <use style="stroke:#000000;stroke-width:0.8;" x="110.801756" xlink:href="#m6cfe38b7fd" y="352.174167"/>
      </g>
     </g>
     <g id="text_1">
      <!-- 0 -->
      <defs>
       <path d="M 31.78125 66.40625 
Q 24.171875 66.40625 20.328125 58.90625 
Q 16.5 51.421875 16.5 36.375 
Q 16.5 21.390625 20.328125 13.890625 
Q 24.171875 6.390625 31.78125 6.390625 
Q 39.453125 6.390625 43.28125 13.890625 
Q 47.125 21.390625 47.125 36.375 
Q 47.125 51.421875 43.28125 58.90625 
Q 39.453125 66.40625 31.78125 66.40625 
z
M 31.78125 74.21875 
Q 44.046875 74.21875 50.515625 64.515625 
Q 56.984375 54.828125 56.984375 36.375 
Q 56.984375 17.96875 50.515625 8.265625 
Q 44.046875 -1.421875 31.78125 -1.421875 
Q 19.53125 -1.421875 13.0625 8.265625 
Q 6.59375 17.96875 6.59375 36.375 
Q 6.59375 54.828125 13.0625 64.515625 
Q 19.53125 74.21875 31.78125 74.21875 
z
" id="DejaVuSans-48"/>
      </defs>
      <g transform="translate(107.620506 366.772604)scale(0.1 -0.1)">
       <use xlink:href="#DejaVuSans-48"/>
      </g>
     </g>
    </g>
    <g id="xtick_2">
     <g id="line2d_2">
      <g>
       <use style="stroke:#000000;stroke-width:0.8;" x="176.050952" xlink:href="#m6cfe38b7fd" y="352.174167"/>
      </g>
     </g>
     <g id="text_2">
      <!-- 50 -->
      <defs>
       <path d="M 10.796875 72.90625 
L 49.515625 72.90625 
L 49.515625 64.59375 
L 19.828125 64.59375 
L 19.828125 46.734375 
Q 21.96875 47.46875 24.109375 47.828125 
Q 26.265625 48.1875 28.421875 48.1875 
Q 40.625 48.1875 47.75 41.5 
Q 54.890625 34.8125 54.890625 23.390625 
Q 54.890625 11.625 47.5625 5.09375 
Q 40.234375 -1.421875 26.90625 -1.421875 
Q 22.3125 -1.421875 17.546875 -0.640625 
Q 12.796875 0.140625 7.71875 1.703125 
L 7.71875 11.625 
Q 12.109375 9.234375 16.796875 8.0625 
Q 21.484375 6.890625 26.703125 6.890625 
Q 35.15625 6.890625 40.078125 11.328125 
Q 45.015625 15.765625 45.015625 23.390625 
Q 45.015625 31 40.078125 35.4375 
Q 35.15625 39.890625 26.703125 39.890625 
Q 22.75 39.890625 18.8125 39.015625 
Q 14.890625 38.140625 10.796875 36.28125 
z
" id="DejaVuSans-53"/>
      </defs>
      <g transform="translate(169.688452 366.772604)scale(0.1 -0.1)">
       <use xlink:href="#DejaVuSans-53"/>
       <use x="63.623047" xlink:href="#DejaVuSans-48"/>
      </g>
     </g>
    </g>
    <g id="xtick_3">
     <g id="line2d_3">
      <g>
       <use style="stroke:#000000;stroke-width:0.8;" x="241.300147" xlink:href="#m6cfe38b7fd" y="352.174167"/>
      </g>
     </g>
     <g id="text_3">
      <!-- 100 -->
      <defs>
       <path d="M 12.40625 8.296875 
L 28.515625 8.296875 
L 28.515625 63.921875 
L 10.984375 60.40625 
L 10.984375 69.390625 
L 28.421875 72.90625 
L 38.28125 72.90625 
L 38.28125 8.296875 
L 54.390625 8.296875 
L 54.390625 0 
L 12.40625 0 
z
" id="DejaVuSans-49"/>
      </defs>
      <g transform="translate(231.756397 366.772604)scale(0.1 -0.1)">
       <use xlink:href="#DejaVuSans-49"/>
       <use x="63.623047" xlink:href="#DejaVuSans-48"/>
       <use x="127.246094" xlink:href="#DejaVuSans-48"/>
      </g>
     </g>
    </g>
    <g id="xtick_4">
     <g id="line2d_4">
      <g>
       <use style="stroke:#000000;stroke-width:0.8;" x="306.549343" xlink:href="#m6cfe38b7fd" y="352.174167"/>
      </g>
     </g>
     <g id="text_4">
      <!-- 150 -->
      <g transform="translate(297.005593 366.772604)scale(0.1 -0.1)">
       <use xlink:href="#DejaVuSans-49"/>
       <use x="63.623047" xlink:href="#DejaVuSans-53"/>
       <use x="127.246094" xlink:href="#DejaVuSans-48"/>
      </g>
     </g>
    </g>
    <g id="xtick_5">
     <g id="line2d_5">
      <g>
       <use style="stroke:#000000;stroke-width:0.8;" x="371.798538" xlink:href="#m6cfe38b7fd" y="352.174167"/>
      </g>
     </g>
     <g id="text_5">
      <!-- 200 -->
      <defs>
       <path d="M 19.1875 8.296875 
L 53.609375 8.296875 
L 53.609375 0 
L 7.328125 0 
L 7.328125 8.296875 
Q 12.9375 14.109375 22.625 23.890625 
Q 32.328125 33.6875 34.8125 36.53125 
Q 39.546875 41.84375 41.421875 45.53125 
Q 43.3125 49.21875 43.3125 52.78125 
Q 43.3125 58.59375 39.234375 62.25 
Q 35.15625 65.921875 28.609375 65.921875 
Q 23.96875 65.921875 18.8125 64.3125 
Q 13.671875 62.703125 7.8125 59.421875 
L 7.8125 69.390625 
Q 13.765625 71.78125 18.9375 73 
Q 24.125 74.21875 28.421875 74.21875 
Q 39.75 74.21875 46.484375 68.546875 
Q 53.21875 62.890625 53.21875 53.421875 
Q 53.21875 48.921875 51.53125 44.890625 
Q 49.859375 40.875 45.40625 35.40625 
Q 44.1875 33.984375 37.640625 27.21875 
Q 31.109375 20.453125 19.1875 8.296875 
z
" id="DejaVuSans-50"/>
      </defs>
      <g transform="translate(362.254788 366.772604)scale(0.1 -0.1)">
       <use xlink:href="#DejaVuSans-50"/>
       <use x="63.623047" xlink:href="#DejaVuSans-48"/>
       <use x="127.246094" xlink:href="#DejaVuSans-48"/>
      </g>
     </g>
    </g>
    <g id="xtick_6">
     <g id="line2d_6">
      <g>
       <use style="stroke:#000000;stroke-width:0.8;" x="437.047734" xlink:href="#m6cfe38b7fd" y="352.174167"/>
      </g>
     </g>
     <g id="text_6">
      <!-- 250 -->
      <g transform="translate(427.503984 366.772604)scale(0.1 -0.1)">
       <use xlink:href="#DejaVuSans-50"/>
       <use x="63.623047" xlink:href="#DejaVuSans-53"/>
       <use x="127.246094" xlink:href="#DejaVuSans-48"/>
      </g>
     </g>
    </g>
   </g>
   <g id="matplotlib.axis_2">
    <g id="ytick_1">
     <g id="line2d_7">
      <defs>
       <path d="M 0 0 
L -3.5 0 
" id="mfff3a99b67" style="stroke:#000000;stroke-width:0.8;"/>
      </defs>
      <g>
       <use style="stroke:#000000;stroke-width:0.8;" x="92.823906" xlink:href="#mfff3a99b67" y="352.174167"/>
      </g>
     </g>
     <g id="text_7">
      <!-- 0 -->
      <g transform="translate(79.461406 355.973385)scale(0.1 -0.1)">
       <use xlink:href="#DejaVuSans-48"/>
      </g>
     </g>
    </g>
    <g id="ytick_2">
     <g id="line2d_8">
      <g>
       <use style="stroke:#000000;stroke-width:0.8;" x="92.823906" xlink:href="#mfff3a99b67" y="314.337194"/>
      </g>
     </g>
     <g id="text_8">
      <!-- 50 -->
      <g transform="translate(73.098906 318.136413)scale(0.1 -0.1)">
       <use xlink:href="#DejaVuSans-53"/>
       <use x="63.623047" xlink:href="#DejaVuSans-48"/>
      </g>
     </g>
    </g>
    <g id="ytick_3">
     <g id="line2d_9">
      <g>
       <use style="stroke:#000000;stroke-width:0.8;" x="92.823906" xlink:href="#mfff3a99b67" y="276.500222"/>
      </g>
     </g>
     <g id="text_9">
      <!-- 100 -->
      <g transform="translate(66.736406 280.29944)scale(0.1 -0.1)">
       <use xlink:href="#DejaVuSans-49"/>
       <use x="63.623047" xlink:href="#DejaVuSans-48"/>
       <use x="127.246094" xlink:href="#DejaVuSans-48"/>
      </g>
     </g>
    </g>
    <g id="ytick_4">
     <g id="line2d_10">
      <g>
       <use style="stroke:#000000;stroke-width:0.8;" x="92.823906" xlink:href="#mfff3a99b67" y="238.663249"/>
      </g>
     </g>
     <g id="text_10">
      <!-- 150 -->
      <g transform="translate(66.736406 242.462468)scale(0.1 -0.1)">
       <use xlink:href="#DejaVuSans-49"/>
       <use x="63.623047" xlink:href="#DejaVuSans-53"/>
       <use x="127.246094" xlink:href="#DejaVuSans-48"/>
      </g>
     </g>
    </g>
    <g id="ytick_5">
     <g id="line2d_11">
      <g>
       <use style="stroke:#000000;stroke-width:0.8;" x="92.823906" xlink:href="#mfff3a99b67" y="200.826277"/>
      </g>
     </g>
     <g id="text_11">
      <!-- 200 -->
      <g transform="translate(66.736406 204.625495)scale(0.1 -0.1)">
       <use xlink:href="#DejaVuSans-50"/>
       <use x="63.623047" xlink:href="#DejaVuSans-48"/>
       <use x="127.246094" xlink:href="#DejaVuSans-48"/>
      </g>
     </g>
    </g>
    <g id="ytick_6">
     <g id="line2d_12">
      <g>
       <use style="stroke:#000000;stroke-width:0.8;" x="92.823906" xlink:href="#mfff3a99b67" y="162.989304"/>
      </g>
     </g>
     <g id="text_12">
      <!-- 250 -->
      <g transform="translate(66.736406 166.788523)scale(0.1 -0.1)">
       <use xlink:href="#DejaVuSans-50"/>
       <use x="63.623047" xlink:href="#DejaVuSans-53"/>
       <use x="127.246094" xlink:href="#DejaVuSans-48"/>
      </g>
     </g>
    </g>
    <g id="ytick_7">
     <g id="line2d_13">
      <g>
       <use style="stroke:#000000;stroke-width:0.8;" x="92.823906" xlink:href="#mfff3a99b67" y="125.152332"/>
      </g>
     </g>
     <g id="text_13">
      <!-- 300 -->
      <defs>
       <path d="M 40.578125 39.3125 
Q 47.65625 37.796875 51.625 33 
Q 55.609375 28.21875 55.609375 21.1875 
Q 55.609375 10.40625 48.1875 4.484375 
Q 40.765625 -1.421875 27.09375 -1.421875 
Q 22.515625 -1.421875 17.65625 -0.515625 
Q 12.796875 0.390625 7.625 2.203125 
L 7.625 11.71875 
Q 11.71875 9.328125 16.59375 8.109375 
Q 21.484375 6.890625 26.8125 6.890625 
Q 36.078125 6.890625 40.9375 10.546875 
Q 45.796875 14.203125 45.796875 21.1875 
Q 45.796875 27.640625 41.28125 31.265625 
Q 36.765625 34.90625 28.71875 34.90625 
L 20.21875 34.90625 
L 20.21875 43.015625 
L 29.109375 43.015625 
Q 36.375 43.015625 40.234375 45.921875 
Q 44.09375 48.828125 44.09375 54.296875 
Q 44.09375 59.90625 40.109375 62.90625 
Q 36.140625 65.921875 28.71875 65.921875 
Q 24.65625 65.921875 20.015625 65.03125 
Q 15.375 64.15625 9.8125 62.3125 
L 9.8125 71.09375 
Q 15.4375 72.65625 20.34375 73.4375 
Q 25.25 74.21875 29.59375 74.21875 
Q 40.828125 74.21875 47.359375 69.109375 
Q 53.90625 64.015625 53.90625 55.328125 
Q 53.90625 49.265625 50.4375 45.09375 
Q 46.96875 40.921875 40.578125 39.3125 
z
" id="DejaVuSans-51"/>
      </defs>
      <g transform="translate(66.736406 128.95155)scale(0.1 -0.1)">
       <use xlink:href="#DejaVuSans-51"/>
       <use x="63.623047" xlink:href="#DejaVuSans-48"/>
       <use x="127.246094" xlink:href="#DejaVuSans-48"/>
      </g>
     </g>
    </g>
    <g id="ytick_8">
     <g id="line2d_14">
      <g>
       <use style="stroke:#000000;stroke-width:0.8;" x="92.823906" xlink:href="#mfff3a99b67" y="87.315359"/>
      </g>
     </g>
     <g id="text_14">
      <!-- 350 -->
      <g transform="translate(66.736406 91.114578)scale(0.1 -0.1)">
       <use xlink:href="#DejaVuSans-51"/>
       <use x="63.623047" xlink:href="#DejaVuSans-53"/>
       <use x="127.246094" xlink:href="#DejaVuSans-48"/>
      </g>
     </g>
    </g>
    <g id="ytick_9">
     <g id="line2d_15">
      <g>
       <use style="stroke:#000000;stroke-width:0.8;" x="92.823906" xlink:href="#mfff3a99b67" y="49.478387"/>
      </g>
     </g>
     <g id="text_15">
      <!-- 400 -->
      <defs>
       <path d="M 37.796875 64.3125 
L 12.890625 25.390625 
L 37.796875 25.390625 
z
M 35.203125 72.90625 
L 47.609375 72.90625 
L 47.609375 25.390625 
L 58.015625 25.390625 
L 58.015625 17.1875 
L 47.609375 17.1875 
L 47.609375 0 
L 37.796875 0 
L 37.796875 17.1875 
L 4.890625 17.1875 
L 4.890625 26.703125 
z
" id="DejaVuSans-52"/>
      </defs>
      <g transform="translate(66.736406 53.277605)scale(0.1 -0.1)">
       <use xlink:href="#DejaVuSans-52"/>
       <use x="63.623047" xlink:href="#DejaVuSans-48"/>
       <use x="127.246094" xlink:href="#DejaVuSans-48"/>
      </g>
     </g>
    </g>
    <g id="text_16">
     <!-- rtt -->
     <defs>
      <path d="M 41.109375 46.296875 
Q 39.59375 47.171875 37.8125 47.578125 
Q 36.03125 48 33.890625 48 
Q 26.265625 48 22.1875 43.046875 
Q 18.109375 38.09375 18.109375 28.8125 
L 18.109375 0 
L 9.078125 0 
L 9.078125 54.6875 
L 18.109375 54.6875 
L 18.109375 46.1875 
Q 20.953125 51.171875 25.484375 53.578125 
Q 30.03125 56 36.53125 56 
Q 37.453125 56 38.578125 55.875 
Q 39.703125 55.765625 41.0625 55.515625 
z
" id="DejaVuSans-114"/>
      <path d="M 18.3125 70.21875 
L 18.3125 54.6875 
L 36.8125 54.6875 
L 36.8125 47.703125 
L 18.3125 47.703125 
L 18.3125 18.015625 
Q 18.3125 11.328125 20.140625 9.421875 
Q 21.96875 7.515625 27.59375 7.515625 
L 36.8125 7.515625 
L 36.8125 0 
L 27.59375 0 
Q 17.1875 0 13.234375 3.875 
Q 9.28125 7.765625 9.28125 18.015625 
L 9.28125 47.703125 
L 2.6875 47.703125 
L 2.6875 54.6875 
L 9.28125 54.6875 
L 9.28125 70.21875 
z
" id="DejaVuSans-116"/>
     </defs>
     <g transform="translate(49.458906 199.594115)rotate(-90)scale(0.1 -0.1)">
      <use xlink:href="#DejaVuSans-114"/>
      <use x="41.113281" xlink:href="#DejaVuSans-116"/>
      <use x="80.322266" xlink:href="#DejaVuSans-116"/>
     </g>
     <!-- (ms) -->
     <defs>
      <path d="M 31 75.875 
Q 24.46875 64.65625 21.28125 53.65625 
Q 18.109375 42.671875 18.109375 31.390625 
Q 18.109375 20.125 21.3125 9.0625 
Q 24.515625 -2 31 -13.1875 
L 23.1875 -13.1875 
Q 15.875 -1.703125 12.234375 9.375 
Q 8.59375 20.453125 8.59375 31.390625 
Q 8.59375 42.28125 12.203125 53.3125 
Q 15.828125 64.359375 23.1875 75.875 
z
" id="DejaVuSans-40"/>
      <path d="M 52 44.1875 
Q 55.375 50.25 60.0625 53.125 
Q 64.75 56 71.09375 56 
Q 79.640625 56 84.28125 50.015625 
Q 88.921875 44.046875 88.921875 33.015625 
L 88.921875 0 
L 79.890625 0 
L 79.890625 32.71875 
Q 79.890625 40.578125 77.09375 44.375 
Q 74.3125 48.1875 68.609375 48.1875 
Q 61.625 48.1875 57.5625 43.546875 
Q 53.515625 38.921875 53.515625 30.90625 
L 53.515625 0 
L 44.484375 0 
L 44.484375 32.71875 
Q 44.484375 40.625 41.703125 44.40625 
Q 38.921875 48.1875 33.109375 48.1875 
Q 26.21875 48.1875 22.15625 43.53125 
Q 18.109375 38.875 18.109375 30.90625 
L 18.109375 0 
L 9.078125 0 
L 9.078125 54.6875 
L 18.109375 54.6875 
L 18.109375 46.1875 
Q 21.1875 51.21875 25.484375 53.609375 
Q 29.78125 56 35.6875 56 
Q 41.65625 56 45.828125 52.96875 
Q 50 49.953125 52 44.1875 
z
" id="DejaVuSans-109"/>
      <path d="M 44.28125 53.078125 
L 44.28125 44.578125 
Q 40.484375 46.53125 36.375 47.5 
Q 32.28125 48.484375 27.875 48.484375 
Q 21.1875 48.484375 17.84375 46.4375 
Q 14.5 44.390625 14.5 40.28125 
Q 14.5 37.15625 16.890625 35.375 
Q 19.28125 33.59375 26.515625 31.984375 
L 29.59375 31.296875 
Q 39.15625 29.25 43.1875 25.515625 
Q 47.21875 21.78125 47.21875 15.09375 
Q 47.21875 7.46875 41.1875 3.015625 
Q 35.15625 -1.421875 24.609375 -1.421875 
Q 20.21875 -1.421875 15.453125 -0.5625 
Q 10.6875 0.296875 5.421875 2 
L 5.421875 11.28125 
Q 10.40625 8.6875 15.234375 7.390625 
Q 20.0625 6.109375 24.8125 6.109375 
Q 31.15625 6.109375 34.5625 8.28125 
Q 37.984375 10.453125 37.984375 14.40625 
Q 37.984375 18.0625 35.515625 20.015625 
Q 33.0625 21.96875 24.703125 23.78125 
L 21.578125 24.515625 
Q 13.234375 26.265625 9.515625 29.90625 
Q 5.8125 33.546875 5.8125 39.890625 
Q 5.8125 47.609375 11.28125 51.796875 
Q 16.75 56 26.8125 56 
Q 31.78125 56 36.171875 55.265625 
Q 40.578125 54.546875 44.28125 53.078125 
z
" id="DejaVuSans-115"/>
      <path d="M 8.015625 75.875 
L 15.828125 75.875 
Q 23.140625 64.359375 26.78125 53.3125 
Q 30.421875 42.28125 30.421875 31.390625 
Q 30.421875 20.453125 26.78125 9.375 
Q 23.140625 -1.703125 15.828125 -13.1875 
L 8.015625 -13.1875 
Q 14.5 -2 17.703125 9.0625 
Q 20.90625 20.125 20.90625 31.390625 
Q 20.90625 42.671875 17.703125 53.65625 
Q 14.5 64.65625 8.015625 75.875 
z
" id="DejaVuSans-41"/>
     </defs>
     <g transform="translate(60.656719 204.994896)rotate(-90)scale(0.1 -0.1)">
      <use xlink:href="#DejaVuSans-40"/>
      <use x="39.013672" xlink:href="#DejaVuSans-109"/>
      <use x="136.425781" xlink:href="#DejaVuSans-115"/>
      <use x="188.525391" xlink:href="#DejaVuSans-41"/>
     </g>
    </g>
   </g>
   <g id="line2d_16">
    <path clip-path="url(#pb9eca892ee)" d="M 113.396064 281.797398 
L 114.048556 266.662609 
L 114.701048 312.823715 
L 115.35354 319.63437 
L 116.006032 316.607413 
L 116.658524 314.337194 
L 117.311016 313.580455 
L 117.963508 309.796757 
L 118.616 304.499581 
L 119.268492 313.580455 
L 119.920984 313.580455 
L 120.573476 312.823715 
L 123.183443 312.823715 
L 123.835935 313.580455 
L 124.488427 311.310236 
L 125.140919 310.553497 
L 125.793411 309.040018 
L 126.445903 309.796757 
L 127.098395 311.310236 
L 127.750887 308.283279 
L 128.403379 311.310236 
L 129.055871 309.040018 
L 129.708363 296.175447 
L 130.360855 288.608053 
L 131.013347 301.472623 
L 131.665839 295.418708 
L 132.318331 277.256961 
L 132.970823 287.094574 
L 133.623315 253.798038 
L 134.275807 248.500862 
L 134.928299 259.851954 
L 135.580791 257.581735 
L 136.233283 267.419348 
L 136.885774 264.39239 
L 137.538266 274.230003 
L 138.190758 261.365433 
L 138.84325 264.39239 
L 139.495742 264.39239 
L 140.148234 211.420629 
L 140.800726 319.63437 
L 141.453218 321.147849 
L 142.10571 321.904589 
L 146.020662 321.904589 
L 146.673154 321.147849 
L 147.325646 321.147849 
L 148.63063 318.120891 
L 149.283122 315.850673 
L 149.935614 312.823715 
L 150.588106 310.553497 
L 151.240598 310.553497 
L 151.893089 315.850673 
L 152.545581 314.337194 
L 153.198073 313.580455 
L 153.850565 314.337194 
L 154.503057 308.283279 
L 155.155549 310.553497 
L 155.808041 306.7698 
L 156.460533 315.093934 
L 157.113025 306.7698 
L 157.765517 315.093934 
L 158.418009 300.715884 
L 159.070501 304.499581 
L 159.722993 302.986102 
L 160.375485 303.742842 
L 161.027977 302.229363 
L 161.680469 291.635011 
L 162.332961 286.337834 
L 162.985453 292.39175 
L 163.637945 287.094574 
L 164.942929 250.77108 
L 165.595421 256.824996 
L 166.247912 250.014341 
L 166.900404 264.39239 
L 167.552896 288.608053 
L 168.205388 284.067616 
L 168.85788 275.743482 
L 169.510372 210.663889 
L 170.162864 314.337194 
L 170.815356 321.147849 
L 171.467848 322.661328 
L 172.12034 322.661328 
L 172.772832 321.904589 
L 173.425324 321.904589 
L 174.077816 322.661328 
L 175.3828 322.661328 
L 177.340276 320.39111 
L 177.992768 320.39111 
L 179.297752 317.364152 
L 180.602735 311.310236 
L 181.255227 311.310236 
L 181.907719 317.364152 
L 182.560211 315.850673 
L 183.212703 312.066976 
L 183.865195 309.796757 
L 184.517687 311.310236 
L 185.170179 300.715884 
L 185.822671 309.040018 
L 186.475163 299.959145 
L 187.127655 302.986102 
L 187.780147 309.040018 
L 188.432639 301.472623 
L 189.085131 303.742842 
L 189.737623 287.851313 
L 190.390115 298.445666 
L 191.042607 281.797398 
L 191.695099 282.554137 
L 192.347591 290.878271 
L 193.000083 284.824356 
L 193.652575 287.094574 
L 194.305067 286.337834 
L 194.957559 274.986743 
L 195.61005 278.013701 
L 196.262542 314.337194 
L 196.915034 311.310236 
L 197.567526 320.39111 
L 198.220018 321.904589 
L 199.525002 320.39111 
L 200.177494 320.39111 
L 200.829986 321.147849 
L 201.482478 320.39111 
L 206.049922 320.39111 
L 206.702414 318.877631 
L 207.354906 316.607413 
L 208.007398 313.580455 
L 208.65989 311.310236 
L 209.312382 308.283279 
L 209.964873 315.850673 
L 210.617365 310.553497 
L 211.269857 308.283279 
L 211.922349 307.526539 
L 212.574841 312.823715 
L 213.227333 315.093934 
L 213.879825 312.066976 
L 214.532317 310.553497 
L 215.184809 310.553497 
L 215.837301 309.796757 
L 218.447269 309.796757 
L 219.099761 309.040018 
L 219.752253 309.040018 
L 221.057237 307.526539 
L 222.362221 307.526539 
L 223.014713 308.283279 
L 223.667205 307.526539 
L 224.319696 311.310236 
L 224.972188 306.7698 
L 225.62468 317.364152 
L 226.277172 309.796757 
L 226.929664 312.066976 
L 227.582156 307.526539 
L 228.234648 306.7698 
L 228.88714 305.256321 
L 229.539632 309.040018 
L 230.192124 311.310236 
L 230.844616 309.040018 
L 231.497108 307.526539 
L 232.1496 309.796757 
L 232.802092 306.7698 
L 233.454584 299.202405 
L 234.107076 307.526539 
L 234.759568 298.445666 
L 235.41206 308.283279 
L 236.064552 298.445666 
L 236.717044 293.905229 
L 237.369536 296.175447 
L 238.022028 280.283919 
L 238.67452 325.688286 
L 239.327011 321.147849 
L 239.979503 322.661328 
L 240.631995 321.904589 
L 241.936979 321.904589 
L 242.589471 322.661328 
L 243.241963 321.904589 
L 243.894455 322.661328 
L 244.546947 322.661328 
L 245.199439 321.904589 
L 247.809407 321.904589 
L 248.461899 321.147849 
L 249.114391 318.877631 
L 250.419375 312.823715 
L 251.071867 309.040018 
L 251.724359 239.419989 
L 252.376851 313.580455 
L 253.029343 308.283279 
L 253.681834 310.553497 
L 254.334326 312.066976 
L 254.986818 308.283279 
L 255.63931 309.040018 
L 256.291802 305.256321 
L 256.944294 315.093934 
L 257.596786 302.229363 
L 258.249278 312.066976 
L 258.90177 306.7698 
L 259.554262 305.256321 
L 260.206754 306.7698 
L 260.859246 293.905229 
L 261.511738 303.742842 
L 262.16423 301.472623 
L 262.816722 304.499581 
L 263.469214 281.040658 
L 264.121706 288.608053 
L 264.774198 293.14849 
L 265.42669 321.904589 
L 266.079182 316.607413 
L 266.731674 320.39111 
L 271.951609 320.39111 
L 272.604101 319.63437 
L 273.909085 319.63437 
L 274.561577 318.877631 
L 275.214069 317.364152 
L 276.519053 312.823715 
L 277.171545 309.796757 
L 277.824037 312.066976 
L 278.476529 318.877631 
L 279.129021 312.066976 
L 279.781513 302.229363 
L 280.434005 310.553497 
L 281.086497 308.283279 
L 281.738989 309.040018 
L 282.391481 309.040018 
L 283.043972 311.310236 
L 283.696464 296.932187 
L 284.348956 310.553497 
L 285.001448 298.445666 
L 285.65394 312.066976 
L 286.306432 302.986102 
L 286.958924 299.202405 
L 287.611416 298.445666 
L 288.263908 310.553497 
L 288.9164 289.364792 
L 289.568892 302.986102 
L 290.221384 302.986102 
L 290.873876 295.418708 
L 292.17886 325.688286 
L 292.831352 320.39111 
L 293.483844 321.147849 
L 294.136336 321.147849 
L 294.788828 320.39111 
L 295.44132 321.147849 
L 296.746304 321.147849 
L 297.398795 320.39111 
L 298.051287 321.147849 
L 298.703779 320.39111 
L 301.966239 320.39111 
L 303.271223 317.364152 
L 304.576207 311.310236 
L 305.228699 309.040018 
L 305.881191 304.499581 
L 306.533683 308.283279 
L 307.186175 314.337194 
L 307.838667 299.959145 
L 308.491159 319.63437 
L 309.143651 309.040018 
L 309.796143 315.093934 
L 310.448635 301.472623 
L 311.101127 314.337194 
L 311.753618 309.796757 
L 312.40611 306.7698 
L 313.058602 300.715884 
L 313.711094 301.472623 
L 314.363586 291.635011 
L 315.016078 300.715884 
L 315.66857 299.202405 
L 316.321062 294.661968 
L 316.973554 288.608053 
L 317.626046 275.743482 
L 318.278538 282.554137 
L 318.93103 275.743482 
L 319.583522 274.986743 
L 320.236014 271.959785 
L 320.888506 285.581095 
L 321.540998 107.747324 
L 322.19349 253.041299 
L 322.845982 319.63437 
L 323.498474 321.904589 
L 324.150966 322.661328 
L 325.45595 322.661328 
L 326.108442 321.904589 
L 326.760933 321.904589 
L 327.413425 321.147849 
L 328.065917 321.904589 
L 330.023393 321.904589 
L 330.675885 321.147849 
L 331.328377 321.147849 
L 331.980869 319.63437 
L 332.633361 317.364152 
L 333.938345 311.310236 
L 334.590837 312.823715 
L 335.243329 319.63437 
L 335.895821 310.553497 
L 336.548313 314.337194 
L 337.200805 312.823715 
L 337.853297 309.040018 
L 338.505789 308.283279 
L 339.158281 304.499581 
L 339.810773 306.01306 
L 340.463265 296.932187 
L 341.115756 305.256321 
L 341.768248 298.445666 
L 342.42074 302.229363 
L 343.073232 301.472623 
L 343.725724 299.959145 
L 344.378216 300.715884 
L 345.030708 306.01306 
L 345.6832 297.688926 
L 346.335692 301.472623 
L 346.988184 290.878271 
L 347.640676 311.310236 
L 348.293168 314.337194 
L 348.94566 309.796757 
L 349.598152 318.120891 
L 350.250644 319.63437 
L 350.903136 320.39111 
L 351.555628 320.39111 
L 352.20812 319.63437 
L 352.860612 319.63437 
L 353.513104 320.39111 
L 354.165596 320.39111 
L 354.818088 319.63437 
L 358.080547 319.63437 
L 358.733039 318.877631 
L 359.385531 317.364152 
L 360.038023 315.093934 
L 360.690515 312.066976 
L 361.343007 309.796757 
L 361.995499 296.175447 
L 362.647991 309.040018 
L 363.300483 311.310236 
L 363.952975 300.715884 
L 364.605467 308.283279 
L 365.257959 309.040018 
L 365.910451 306.01306 
L 366.562943 305.256321 
L 367.215435 313.580455 
L 367.867927 300.715884 
L 368.520419 297.688926 
L 369.172911 308.283279 
L 370.477894 302.229363 
L 371.130386 306.01306 
L 371.782878 302.986102 
L 372.43537 300.715884 
L 373.087862 305.256321 
L 373.740354 298.445666 
L 374.392846 302.986102 
L 375.045338 299.202405 
L 375.69783 274.986743 
L 376.350322 292.39175 
L 377.002814 300.715884 
L 377.655306 282.554137 
L 378.307798 320.39111 
L 378.96029 322.661328 
L 379.612782 321.904589 
L 383.527734 321.904589 
L 384.180226 321.147849 
L 384.832717 321.904589 
L 385.485209 321.147849 
L 388.095177 321.147849 
L 388.747669 320.39111 
L 390.705145 311.310236 
L 391.357637 297.688926 
L 392.010129 309.796757 
L 392.662621 312.823715 
L 393.315113 302.229363 
L 393.967605 302.229363 
L 394.620097 296.932187 
L 395.272589 286.337834 
L 395.925081 272.716524 
L 396.577573 249.257601 
L 397.230065 248.500862 
L 397.882557 243.203686 
L 398.535049 231.095855 
L 399.18754 231.852594 
L 399.840032 210.663889 
L 400.492524 214.447587 
L 401.145016 241.690207 
L 401.797508 259.095214 
L 402.45 253.041299 
L 403.102492 242.446946 
L 403.754984 256.824996 
L 404.407476 259.095214 
L 405.059968 262.122172 
L 405.71246 306.7698 
L 406.364952 310.553497 
L 407.017444 318.120891 
L 407.669936 320.39111 
L 409.627412 320.39111 
L 410.279904 321.147849 
L 410.932396 320.39111 
L 412.23738 320.39111 
L 412.889872 319.63437 
L 413.542364 320.39111 
L 414.847347 320.39111 
L 415.499839 318.877631 
L 417.457315 312.066976 
L 418.109807 309.040018 
L 418.762299 314.337194 
L 419.414791 314.337194 
L 420.067283 308.283279 
L 420.719775 315.093934 
L 421.372267 312.066976 
L 422.024759 307.526539 
L 422.677251 299.959145 
L 423.329743 308.283279 
L 423.982235 296.175447 
L 424.634727 311.310236 
L 425.287219 307.526539 
L 425.939711 309.796757 
L 426.592203 307.526539 
L 427.244695 309.040018 
L 427.897187 309.796757 
L 428.549678 306.01306 
L 429.20217 302.986102 
L 429.854662 310.553497 
L 430.507154 308.283279 
L 431.159646 296.175447 
L 431.812138 312.823715 
L 432.46463 286.337834 
L 433.117122 315.850673 
L 433.769614 320.39111 
L 434.422106 321.147849 
L 435.074598 321.147849 
L 435.72709 320.39111 
L 439.642042 320.39111 
L 440.294534 319.63437 
L 442.904502 319.63437 
L 443.556993 318.877631 
L 444.209485 318.877631 
L 444.861977 317.364152 
L 445.514469 316.607413 
L 446.166961 309.796757 
L 446.819453 316.607413 
L 447.471945 309.796757 
L 448.124437 314.337194 
L 448.776929 312.066976 
L 449.429421 299.202405 
L 450.081913 313.580455 
L 450.734405 308.283279 
L 451.386897 306.7698 
L 452.039389 302.986102 
L 452.691881 299.959145 
L 453.344373 297.688926 
L 453.996865 286.337834 
L 454.649357 302.229363 
L 455.301849 296.932187 
L 455.954341 299.959145 
L 456.606833 301.472623 
L 457.259325 301.472623 
L 457.911816 299.202405 
L 458.564308 299.202405 
L 459.2168 317.364152 
L 459.869292 321.147849 
L 460.521784 320.39111 
L 461.174276 321.904589 
L 461.826768 321.147849 
L 462.47926 321.904589 
L 463.131752 321.147849 
L 465.089228 321.147849 
L 465.089228 321.147849 
" style="fill:none;stroke:#1f77b4;stroke-linecap:square;stroke-width:1.5;"/>
   </g>
   <g id="line2d_17">
    <path clip-path="url(#pb9eca892ee)" d="M 110.803061 290.121532 
L 111.455553 329.471983 
L 112.108045 328.715244 
L 112.760537 329.471983 
L 113.413029 311.310236 
L 114.065521 270.446306 
L 114.718013 312.823715 
L 115.370505 319.63437 
L 116.022997 316.607413 
L 116.675489 314.337194 
L 117.327981 313.580455 
L 117.980473 309.796757 
L 118.632965 305.256321 
L 119.285456 313.580455 
L 123.200408 313.580455 
L 123.8529 314.337194 
L 124.505392 311.310236 
L 125.157884 310.553497 
L 125.810376 309.040018 
L 126.462868 310.553497 
L 127.11536 308.283279 
L 127.767852 311.310236 
L 128.420344 310.553497 
L 129.072836 308.283279 
L 129.725328 293.14849 
L 130.37782 287.094574 
L 131.030312 300.715884 
L 131.682804 296.932187 
L 132.335296 276.500222 
L 132.987788 279.527179 
L 133.64028 246.230644 
L 134.292771 242.446946 
L 134.945263 241.690207 
L 135.597755 243.203686 
L 136.250247 260.608693 
L 136.902739 262.122172 
L 137.555231 271.203045 
L 138.207723 252.284559 
L 138.860215 253.041299 
L 139.512707 252.284559 
L 140.165199 279.527179 
L 140.817691 321.147849 
L 141.470183 321.147849 
L 142.122675 321.904589 
L 142.775167 321.904589 
L 143.427659 321.147849 
L 144.080151 321.904589 
L 146.037627 321.904589 
L 146.690119 321.147849 
L 147.342611 321.147849 
L 147.995103 319.63437 
L 148.647594 317.364152 
L 149.300086 315.850673 
L 150.60507 309.796757 
L 151.910054 315.850673 
L 152.562546 314.337194 
L 153.215038 313.580455 
L 153.86753 313.580455 
L 154.520022 308.283279 
L 155.172514 310.553497 
L 155.825006 302.986102 
L 156.477498 315.093934 
L 157.12999 302.986102 
L 157.782482 315.093934 
L 158.434974 299.959145 
L 159.087466 302.229363 
L 159.739958 300.715884 
L 160.39245 298.445666 
L 161.044942 298.445666 
L 161.697434 284.067616 
L 162.349926 280.283919 
L 163.002417 291.635011 
L 163.654909 288.608053 
L 164.307401 277.256961 
L 164.959893 259.095214 
L 165.612385 256.824996 
L 166.264877 250.014341 
L 166.917369 262.878912 
L 167.569861 287.094574 
L 168.222353 288.608053 
L 168.874845 286.337834 
L 169.527337 281.797398 
L 170.179829 313.580455 
L 170.832321 321.147849 
L 172.137305 322.661328 
L 172.789797 321.904589 
L 176.052257 321.904589 
L 178.662224 318.877631 
L 179.314716 317.364152 
L 179.967208 314.337194 
L 181.272192 306.7698 
L 181.924684 316.607413 
L 182.577176 315.850673 
L 183.229668 312.066976 
L 183.88216 309.040018 
L 184.534652 311.310236 
L 185.187144 309.040018 
L 185.839636 309.040018 
L 186.492128 305.256321 
L 187.14462 305.256321 
L 187.797112 308.283279 
L 188.449604 303.742842 
L 189.102096 305.256321 
L 189.754588 296.175447 
L 190.40708 301.472623 
L 191.059572 284.067616 
L 191.712064 295.418708 
L 192.364555 293.14849 
L 193.017047 290.121532 
L 193.669539 291.635011 
L 194.322031 290.121532 
L 194.974523 284.824356 
L 195.627015 286.337834 
L 196.279507 293.905229 
L 196.931999 311.310236 
L 197.584491 320.39111 
L 198.236983 321.904589 
L 198.889475 321.147849 
L 200.846951 321.147849 
L 201.499443 320.39111 
L 202.151935 321.147849 
L 202.804427 321.147849 
L 203.456919 320.39111 
L 204.109411 321.147849 
L 204.761903 321.147849 
L 205.414395 320.39111 
L 206.066887 320.39111 
L 206.719378 319.63437 
L 207.37187 316.607413 
L 208.024362 314.337194 
L 208.676854 311.310236 
L 209.329346 305.256321 
L 209.981838 316.607413 
L 210.63433 311.310236 
L 211.286822 309.040018 
L 211.939314 307.526539 
L 212.591806 312.823715 
L 213.244298 315.850673 
L 213.89679 312.066976 
L 215.201774 310.553497 
L 217.15925 310.553497 
L 217.811742 309.796757 
L 218.464234 309.796757 
L 219.116726 309.040018 
L 219.769218 309.040018 
L 220.42171 308.283279 
L 221.074202 308.283279 
L 221.726693 307.526539 
L 222.379185 307.526539 
L 223.031677 309.796757 
L 224.336661 311.310236 
L 224.989153 308.283279 
L 225.641645 317.364152 
L 226.294137 309.796757 
L 226.946629 312.823715 
L 227.599121 306.01306 
L 228.251613 308.283279 
L 228.904105 308.283279 
L 229.556597 309.040018 
L 230.209089 311.310236 
L 230.861581 308.283279 
L 231.514073 306.7698 
L 232.166565 309.040018 
L 232.819057 306.7698 
L 233.471549 297.688926 
L 234.124041 307.526539 
L 234.776533 298.445666 
L 235.429025 307.526539 
L 236.081516 294.661968 
L 236.734008 278.77044 
L 237.3865 290.878271 
L 238.038992 281.040658 
L 238.691484 318.120891 
L 239.343976 321.147849 
L 239.996468 322.661328 
L 240.64896 321.904589 
L 241.953944 321.904589 
L 242.606436 322.661328 
L 243.258928 321.904589 
L 243.91142 322.661328 
L 244.563912 322.661328 
L 245.216404 321.904589 
L 247.826372 321.904589 
L 248.478864 321.147849 
L 249.131356 318.877631 
L 250.436339 312.823715 
L 251.088831 309.040018 
L 251.741323 307.526539 
L 252.393815 315.093934 
L 253.046307 308.283279 
L 253.698799 315.093934 
L 254.351291 312.066976 
L 255.003783 308.283279 
L 255.656275 305.256321 
L 256.308767 304.499581 
L 256.961259 315.850673 
L 257.613751 302.986102 
L 258.266243 312.066976 
L 258.918735 305.256321 
L 259.571227 303.742842 
L 260.223719 310.553497 
L 260.876211 291.635011 
L 261.528703 301.472623 
L 262.181195 297.688926 
L 262.833687 307.526539 
L 263.486179 292.39175 
L 264.138671 297.688926 
L 264.791163 299.202405 
L 265.443654 317.364152 
L 266.096146 317.364152 
L 266.748638 320.39111 
L 269.358606 320.39111 
L 270.011098 321.147849 
L 271.316082 321.147849 
L 271.968574 320.39111 
L 273.273558 320.39111 
L 275.231034 318.120891 
L 276.536018 313.580455 
L 277.18851 310.553497 
L 277.841002 312.823715 
L 278.493494 320.39111 
L 279.145986 312.066976 
L 279.798477 308.283279 
L 280.450969 310.553497 
L 281.103461 308.283279 
L 281.755953 309.040018 
L 282.408445 314.337194 
L 283.060937 311.310236 
L 283.713429 305.256321 
L 284.365921 309.796757 
L 285.018413 306.7698 
L 285.670905 312.066976 
L 286.323397 305.256321 
L 286.975889 306.7698 
L 287.628381 302.986102 
L 288.280873 309.796757 
L 288.933365 299.959145 
L 289.585857 306.01306 
L 290.238349 304.499581 
L 290.890841 300.715884 
L 291.543333 310.553497 
L 292.195825 324.174807 
L 292.848317 321.147849 
L 294.1533 321.147849 
L 294.805792 320.39111 
L 295.458284 321.147849 
L 296.763268 321.147849 
L 297.41576 320.39111 
L 298.068252 321.147849 
L 298.720744 320.39111 
L 299.373236 321.147849 
L 300.025728 320.39111 
L 301.983204 320.39111 
L 303.288188 317.364152 
L 304.593172 311.310236 
L 305.898156 306.7698 
L 306.550648 307.526539 
L 307.20314 314.337194 
L 307.855632 306.01306 
L 308.508124 318.877631 
L 309.160615 308.283279 
L 309.813107 315.093934 
L 310.465599 304.499581 
L 311.118091 314.337194 
L 311.770583 310.553497 
L 312.423075 307.526539 
L 313.075567 302.986102 
L 313.728059 299.959145 
L 314.380551 295.418708 
L 315.033043 301.472623 
L 315.685535 302.229363 
L 316.338027 298.445666 
L 316.990519 293.905229 
L 317.643011 280.283919 
L 318.295503 284.067616 
L 318.947995 278.77044 
L 319.600487 282.554137 
L 320.252979 278.77044 
L 320.905471 286.337834 
L 321.557963 274.986743 
L 322.210455 320.39111 
L 322.862947 319.63437 
L 323.515438 321.904589 
L 324.16793 322.661328 
L 325.472914 322.661328 
L 326.125406 321.904589 
L 326.777898 321.904589 
L 327.43039 321.147849 
L 328.082882 321.904589 
L 329.387866 321.904589 
L 330.040358 321.147849 
L 331.345342 321.147849 
L 331.997834 319.63437 
L 332.650326 317.364152 
L 333.302818 314.337194 
L 333.95531 310.553497 
L 334.607802 309.040018 
L 335.260294 318.877631 
L 335.912786 310.553497 
L 336.565278 315.093934 
L 337.21777 312.823715 
L 337.870261 309.040018 
L 338.522753 308.283279 
L 339.175245 302.986102 
L 339.827737 305.256321 
L 340.480229 293.14849 
L 341.132721 302.229363 
L 341.785213 293.14849 
L 342.437705 299.959145 
L 343.090197 293.905229 
L 343.742689 296.175447 
L 344.395181 295.418708 
L 345.047673 301.472623 
L 345.700165 295.418708 
L 346.352657 302.229363 
L 347.005149 297.688926 
L 347.657641 311.310236 
L 348.310133 291.635011 
L 348.962625 309.796757 
L 349.615117 318.120891 
L 350.267609 319.63437 
L 350.920101 320.39111 
L 352.225085 320.39111 
L 352.877576 319.63437 
L 353.530068 321.147849 
L 354.835052 319.63437 
L 356.140036 319.63437 
L 356.792528 320.39111 
L 357.44502 319.63437 
L 358.750004 319.63437 
L 361.359972 310.553497 
L 362.012464 300.715884 
L 362.664956 309.040018 
L 363.317448 308.283279 
L 363.96994 296.932187 
L 364.622432 312.066976 
L 365.274924 307.526539 
L 365.927416 308.283279 
L 366.579908 307.526539 
L 367.232399 312.823715 
L 367.884891 301.472623 
L 368.537383 301.472623 
L 369.189875 308.283279 
L 369.842367 306.01306 
L 370.494859 302.986102 
L 371.147351 306.7698 
L 371.799843 302.229363 
L 372.452335 304.499581 
L 373.104827 306.01306 
L 373.757319 300.715884 
L 374.409811 304.499581 
L 375.062303 302.229363 
L 375.714795 283.310877 
L 376.367287 298.445666 
L 377.019779 303.742842 
L 377.672271 293.905229 
L 378.324763 320.39111 
L 378.977255 322.661328 
L 379.629747 321.904589 
L 383.544698 321.904589 
L 384.19719 321.147849 
L 384.849682 321.904589 
L 385.502174 321.147849 
L 386.154666 321.904589 
L 386.807158 321.147849 
L 388.112142 321.147849 
L 388.764634 320.39111 
L 390.72211 311.310236 
L 391.374602 304.499581 
L 392.027094 309.796757 
L 392.679586 305.256321 
L 393.332078 304.499581 
L 393.98457 304.499581 
L 394.637062 300.715884 
L 395.289554 292.39175 
L 395.942046 287.851313 
L 396.594537 264.39239 
L 397.247029 261.365433 
L 397.899521 269.689567 
L 398.552013 256.824996 
L 399.204505 254.554778 
L 399.856997 254.554778 
L 400.509489 252.284559 
L 401.161981 268.176088 
L 401.814473 248.500862 
L 402.466965 256.068256 
L 403.119457 259.095214 
L 403.771949 269.689567 
L 404.424441 261.365433 
L 405.076933 260.608693 
L 405.729425 254.554778 
L 406.381917 311.310236 
L 407.034409 318.877631 
L 407.686901 321.147849 
L 408.339393 320.39111 
L 408.991885 321.147849 
L 409.644377 320.39111 
L 410.296869 321.147849 
L 410.94936 320.39111 
L 411.601852 320.39111 
L 412.254344 321.147849 
L 412.906836 320.39111 
L 413.559328 321.147849 
L 414.21182 320.39111 
L 414.864312 320.39111 
L 416.169296 317.364152 
L 417.47428 312.823715 
L 418.126772 309.040018 
L 419.431756 313.580455 
L 420.084248 308.283279 
L 420.73674 315.093934 
L 421.389232 312.066976 
L 422.041724 308.283279 
L 422.694216 302.229363 
L 423.346708 309.040018 
L 423.9992 299.959145 
L 424.651692 311.310236 
L 425.304183 308.283279 
L 425.956675 310.553497 
L 426.609167 308.283279 
L 427.261659 306.7698 
L 428.566643 311.310236 
L 429.219135 308.283279 
L 429.871627 310.553497 
L 430.524119 308.283279 
L 431.176611 299.959145 
L 431.829103 312.823715 
L 432.481595 320.39111 
L 433.134087 315.850673 
L 433.786579 320.39111 
L 434.439071 321.147849 
L 435.091563 320.39111 
L 439.006515 320.39111 
L 439.659007 319.63437 
L 442.268974 319.63437 
L 442.921466 318.877631 
L 444.22645 318.877631 
L 444.878942 316.607413 
L 445.531434 315.850673 
L 446.183926 309.796757 
L 446.836418 315.850673 
L 447.48891 309.796757 
L 448.141402 314.337194 
L 448.793894 312.066976 
L 449.446386 294.661968 
L 450.098878 313.580455 
L 450.75137 307.526539 
L 451.403862 306.01306 
L 452.056354 300.715884 
L 452.708846 301.472623 
L 453.361338 297.688926 
L 454.01383 290.878271 
L 454.666321 303.742842 
L 455.318813 297.688926 
L 455.971305 301.472623 
L 456.623797 302.986102 
L 457.276289 301.472623 
L 457.928781 303.742842 
L 458.581273 302.986102 
L 459.233765 318.877631 
L 459.886257 321.147849 
L 460.538749 320.39111 
L 461.191241 321.904589 
L 461.843733 321.147849 
L 463.148717 321.147849 
L 463.148717 321.147849 
" style="fill:none;stroke:#ff7f0e;stroke-linecap:square;stroke-width:1.5;"/>
   </g>
   <g id="line2d_18">
    <path clip-path="url(#pb9eca892ee)" d="M 116.015167 315.093934 
L 117.320151 313.580455 
L 117.972643 309.796757 
L 118.625135 302.986102 
L 119.277627 313.580455 
L 119.930119 312.823715 
L 121.887594 312.823715 
L 122.540086 312.066976 
L 123.84507 313.580455 
L 124.497562 311.310236 
L 125.150054 310.553497 
L 125.802546 308.283279 
L 126.455038 309.796757 
L 127.10753 309.040018 
L 127.760022 306.7698 
L 128.412514 311.310236 
L 129.065006 306.7698 
L 129.717498 296.175447 
L 130.36999 294.661968 
L 131.022482 306.7698 
L 131.674974 299.959145 
L 132.327466 290.121532 
L 132.979958 288.608053 
L 133.63245 197.042579 
L 134.284942 309.040018 
L 134.937434 246.230644 
L 135.589925 306.01306 
L 136.242417 228.825636 
L 136.894909 293.14849 
L 137.547401 256.824996 
L 138.199893 316.607413 
L 138.852385 281.797398 
L 139.504877 278.77044 
L 140.157369 336.282638 
L 140.809861 323.418068 
L 141.462353 323.418068 
L 142.114845 322.661328 
L 142.767337 322.661328 
L 143.419829 321.904589 
L 144.072321 322.661328 
L 144.724813 321.904589 
L 146.682289 321.904589 
L 147.334781 321.147849 
L 147.987273 319.63437 
L 149.944748 312.823715 
L 151.249732 306.7698 
L 151.902224 315.850673 
L 152.554716 313.580455 
L 153.207208 312.823715 
L 153.8597 313.580455 
L 154.512192 307.526539 
L 155.164684 306.01306 
L 155.817176 305.256321 
L 156.469668 315.093934 
L 157.12216 306.7698 
L 157.774652 315.093934 
L 158.427144 306.7698 
L 159.079636 306.01306 
L 159.732128 306.7698 
L 160.38462 302.986102 
L 161.037112 304.499581 
L 161.689604 296.175447 
L 162.342096 292.39175 
L 162.994588 314.337194 
L 163.64708 312.066976 
L 164.299572 291.635011 
L 164.952063 296.175447 
L 165.604555 280.283919 
L 166.257047 296.932187 
L 166.909539 308.283279 
L 167.562031 302.229363 
L 168.214523 309.040018 
L 168.867015 309.040018 
L 169.519507 335.525899 
L 170.171999 317.364152 
L 170.824491 322.661328 
L 171.476983 323.418068 
L 172.129475 323.418068 
L 172.781967 322.661328 
L 175.391935 322.661328 
L 178.654395 318.877631 
L 179.959378 314.337194 
L 180.61187 310.553497 
L 181.264362 304.499581 
L 181.916854 316.607413 
L 183.221838 313.580455 
L 183.87433 309.040018 
L 184.526822 310.553497 
L 185.179314 308.283279 
L 185.831806 309.040018 
L 186.484298 306.01306 
L 187.13679 306.7698 
L 187.789282 309.040018 
L 188.441774 302.986102 
L 189.094266 306.7698 
L 189.746758 298.445666 
L 190.39925 303.742842 
L 191.051742 290.878271 
L 191.704234 308.283279 
L 192.356726 300.715884 
L 193.009218 302.986102 
L 193.661709 308.283279 
L 194.314201 295.418708 
L 194.966693 294.661968 
L 195.619185 315.093934 
L 196.271677 324.931546 
L 196.924169 312.066976 
L 197.576661 322.661328 
L 198.229153 323.418068 
L 198.881645 321.904589 
L 200.839121 321.904589 
L 201.491613 321.147849 
L 204.101581 321.147849 
L 204.754073 320.39111 
L 206.059057 320.39111 
L 206.711549 318.877631 
L 207.364041 316.607413 
L 208.669024 310.553497 
L 209.321516 303.742842 
L 209.974008 319.63437 
L 210.6265 310.553497 
L 211.278992 308.283279 
L 211.931484 306.7698 
L 212.583976 309.040018 
L 213.236468 315.093934 
L 213.88896 312.066976 
L 214.541452 310.553497 
L 215.193944 309.796757 
L 217.803912 309.796757 
L 219.108896 308.283279 
L 219.761388 308.283279 
L 220.41388 307.526539 
L 222.371356 307.526539 
L 223.023847 312.823715 
L 223.676339 307.526539 
L 224.328831 311.310236 
L 224.981323 306.01306 
L 225.633815 317.364152 
L 226.286307 309.796757 
L 226.938799 312.066976 
L 227.591291 309.796757 
L 228.243783 311.310236 
L 228.896275 308.283279 
L 229.548767 312.066976 
L 230.201259 307.526539 
L 231.506243 312.066976 
L 232.158735 309.796757 
L 233.463719 306.7698 
L 234.116211 312.823715 
L 234.768703 302.229363 
L 235.421195 314.337194 
L 236.073687 306.01306 
L 237.37867 304.499581 
L 238.031162 308.283279 
L 238.683654 328.715244 
L 239.336146 323.418068 
L 239.988638 323.418068 
L 240.64113 322.661328 
L 241.946114 322.661328 
L 242.598606 323.418068 
L 243.251098 322.661328 
L 245.861066 322.661328 
L 246.513558 321.904589 
L 247.818542 321.904589 
L 248.471034 321.147849 
L 249.123526 318.120891 
L 249.776018 315.850673 
L 251.081002 308.283279 
L 251.733494 314.337194 
L 252.385985 315.093934 
L 253.038477 308.283279 
L 253.690969 308.283279 
L 254.343461 312.066976 
L 254.995953 307.526539 
L 255.648445 305.256321 
L 256.300937 306.7698 
L 256.953429 315.850673 
L 257.605921 304.499581 
L 258.258413 312.823715 
L 258.910905 307.526539 
L 259.563397 306.01306 
L 260.215889 310.553497 
L 260.868381 306.01306 
L 261.520873 306.7698 
L 262.173365 309.796757 
L 262.825857 309.040018 
L 263.478349 309.796757 
L 264.130841 302.986102 
L 264.783333 305.256321 
L 265.435825 324.174807 
L 266.088317 318.877631 
L 266.740808 321.147849 
L 268.698284 321.147849 
L 269.350776 320.39111 
L 270.003268 321.147849 
L 271.308252 321.147849 
L 271.960744 320.39111 
L 272.613236 320.39111 
L 273.265728 319.63437 
L 273.91822 319.63437 
L 274.570712 318.877631 
L 275.223204 317.364152 
L 276.528188 312.823715 
L 277.18068 309.040018 
L 277.833172 308.283279 
L 278.485664 320.39111 
L 279.138156 311.310236 
L 279.790648 307.526539 
L 280.44314 310.553497 
L 281.095631 308.283279 
L 282.400615 309.796757 
L 283.053107 311.310236 
L 283.705599 304.499581 
L 284.358091 309.796757 
L 285.010583 307.526539 
L 285.663075 312.823715 
L 286.315567 305.256321 
L 286.968059 306.01306 
L 287.620551 305.256321 
L 288.273043 311.310236 
L 288.925535 302.986102 
L 290.230519 311.310236 
L 290.883011 305.256321 
L 291.535503 315.093934 
L 292.187995 330.228723 
L 292.840487 321.904589 
L 293.492979 321.904589 
L 294.145471 321.147849 
L 294.797963 321.147849 
L 295.450455 321.904589 
L 296.102946 321.147849 
L 299.365406 321.147849 
L 300.017898 320.39111 
L 301.322882 320.39111 
L 302.627866 318.877631 
L 303.280358 316.607413 
L 304.585342 310.553497 
L 305.237834 309.796757 
L 305.890326 304.499581 
L 306.542818 305.256321 
L 307.19531 314.337194 
L 307.847802 302.229363 
L 308.500294 319.63437 
L 309.152786 309.040018 
L 309.805278 315.850673 
L 310.457769 306.7698 
L 311.110261 315.093934 
L 311.762753 309.796757 
L 312.415245 309.796757 
L 313.067737 307.526539 
L 313.720229 307.526539 
L 314.372721 297.688926 
L 315.677705 312.066976 
L 316.330197 307.526539 
L 316.982689 304.499581 
L 317.635181 302.229363 
L 318.287673 306.7698 
L 318.940165 303.742842 
L 319.592657 308.283279 
L 320.245149 303.742842 
L 320.897641 309.796757 
L 321.550133 331.742202 
L 322.202625 323.418068 
L 322.855117 321.904589 
L 323.507609 323.418068 
L 325.465084 323.418068 
L 326.117576 322.661328 
L 326.770068 322.661328 
L 327.42256 321.904589 
L 330.68502 321.904589 
L 331.337512 321.147849 
L 331.990004 319.63437 
L 333.94748 310.553497 
L 334.599972 305.256321 
L 335.252464 318.877631 
L 335.904956 309.796757 
L 336.557448 310.553497 
L 337.20994 312.823715 
L 337.862432 309.040018 
L 338.514924 308.283279 
L 339.167416 305.256321 
L 339.819907 308.283279 
L 340.472399 309.040018 
L 341.124891 305.256321 
L 341.777383 306.01306 
L 342.429875 304.499581 
L 343.082367 311.310236 
L 343.734859 306.7698 
L 344.387351 305.256321 
L 345.039843 307.526539 
L 345.692335 308.283279 
L 346.344827 307.526539 
L 346.997319 307.526539 
L 347.649811 314.337194 
L 348.302303 323.418068 
L 348.954795 312.823715 
L 349.607287 319.63437 
L 350.259779 323.418068 
L 350.912271 321.147849 
L 351.564763 321.147849 
L 352.217255 320.39111 
L 352.869747 320.39111 
L 353.522239 321.147849 
L 354.827222 319.63437 
L 355.479714 320.39111 
L 356.132206 319.63437 
L 356.784698 320.39111 
L 357.43719 319.63437 
L 358.742174 319.63437 
L 360.047158 315.093934 
L 360.69965 312.066976 
L 361.352142 311.310236 
L 362.004634 305.256321 
L 362.657126 308.283279 
L 363.309618 308.283279 
L 363.96211 301.472623 
L 364.614602 309.040018 
L 365.267094 312.823715 
L 365.919586 307.526539 
L 366.572078 308.283279 
L 367.22457 313.580455 
L 367.877062 306.01306 
L 368.529553 303.742842 
L 369.182045 309.796757 
L 369.834537 309.040018 
L 370.487029 304.499581 
L 371.139521 312.823715 
L 371.792013 301.472623 
L 372.444505 309.040018 
L 373.096997 312.823715 
L 373.749489 309.796757 
L 374.401981 304.499581 
L 375.054473 308.283279 
L 375.706965 296.175447 
L 376.359457 311.310236 
L 377.011949 314.337194 
L 377.664441 328.715244 
L 378.316933 321.904589 
L 378.969425 323.418068 
L 379.621917 322.661328 
L 382.231885 322.661328 
L 382.884377 321.904589 
L 386.146836 321.904589 
L 386.799328 321.147849 
L 388.104312 321.147849 
L 388.756804 319.63437 
L 390.061788 313.580455 
L 390.71428 312.066976 
L 391.366772 306.01306 
L 392.019264 309.796757 
L 392.671756 306.01306 
L 393.324248 302.986102 
L 393.97674 304.499581 
L 394.629232 304.499581 
L 395.281724 293.14849 
L 395.934216 297.688926 
L 396.586708 299.202405 
L 397.2392 287.094574 
L 397.891691 290.878271 
L 398.544183 300.715884 
L 399.196675 298.445666 
L 399.849167 284.824356 
L 400.501659 311.310236 
L 401.154151 301.472623 
L 401.806643 141.800599 
L 402.459135 307.526539 
L 403.111627 285.581095 
L 403.764119 315.850673 
L 405.069103 298.445666 
L 405.721595 329.471983 
L 406.374087 314.337194 
L 407.026579 321.904589 
L 407.679071 322.661328 
L 408.331563 321.904589 
L 408.984055 321.904589 
L 409.636547 321.147849 
L 410.289039 321.904589 
L 410.941531 321.147849 
L 412.246514 321.147849 
L 412.899006 320.39111 
L 414.856482 320.39111 
L 415.508974 318.877631 
L 417.46645 312.066976 
L 418.118942 308.283279 
L 418.771434 311.310236 
L 419.423926 315.850673 
L 420.076418 308.283279 
L 420.72891 310.553497 
L 421.381402 312.066976 
L 422.033894 307.526539 
L 422.686386 309.040018 
L 423.338878 308.283279 
L 423.99137 303.742842 
L 424.643862 311.310236 
L 425.296354 308.283279 
L 425.948846 310.553497 
L 426.601338 307.526539 
L 427.253829 309.796757 
L 427.906321 309.796757 
L 428.558813 307.526539 
L 429.211305 308.283279 
L 429.863797 310.553497 
L 430.516289 308.283279 
L 431.168781 302.229363 
L 432.473765 321.904589 
L 433.126257 315.850673 
L 433.778749 320.39111 
L 434.431241 321.147849 
L 435.083733 321.147849 
L 435.736225 320.39111 
L 438.998685 320.39111 
L 439.651177 319.63437 
L 441.608652 319.63437 
L 442.261144 318.877631 
L 443.566128 318.877631 
L 444.21862 318.120891 
L 444.871112 316.607413 
L 445.523604 317.364152 
L 446.176096 309.040018 
L 446.828588 315.850673 
L 447.48108 309.796757 
L 448.133572 308.283279 
L 448.786064 312.066976 
L 449.438556 303.742842 
L 450.091048 314.337194 
L 450.74354 309.796757 
L 452.048524 305.256321 
L 452.701016 305.256321 
L 453.353508 302.986102 
L 454.006 296.932187 
L 454.658492 311.310236 
L 455.310984 305.256321 
L 455.963475 312.823715 
L 457.268459 305.256321 
L 457.920951 309.040018 
L 458.573443 309.796757 
L 459.225935 330.228723 
L 459.878427 322.661328 
L 460.530919 321.904589 
L 461.183411 322.661328 
L 461.835903 321.904589 
L 463.793379 321.904589 
L 464.445871 321.147849 
L 465.098363 321.904589 
L 465.750855 321.147849 
L 467.708331 321.147849 
L 467.708331 321.147849 
" style="fill:none;stroke:#2ca02c;stroke-linecap:square;stroke-width:1.5;"/>
   </g>
   <g id="line2d_19">
    <path clip-path="url(#pb9eca892ee)" d="M 118.692994 307.526539 
L 119.345486 315.093934 
L 119.997978 314.337194 
L 121.302962 314.337194 
L 121.955454 313.580455 
L 122.607946 313.580455 
L 123.260437 312.823715 
L 123.912929 314.337194 
L 124.565421 311.310236 
L 125.217913 310.553497 
L 125.870405 309.040018 
L 126.522897 306.7698 
L 127.175389 313.580455 
L 127.827881 312.066976 
L 128.480373 307.526539 
L 129.132865 312.823715 
L 129.785357 302.986102 
L 130.437849 299.202405 
L 131.090341 306.7698 
L 131.742833 296.175447 
L 132.395325 306.7698 
L 133.047817 299.959145 
L 133.700309 296.175447 
L 134.352801 288.608053 
L 135.005293 232.609334 
L 135.657785 302.229363 
L 136.310277 301.472623 
L 136.962769 299.959145 
L 137.615261 301.472623 
L 138.267752 287.094574 
L 138.920244 315.093934 
L 139.572736 262.122172 
L 140.225228 337.796117 
L 140.87772 321.904589 
L 141.530212 323.418068 
L 142.182704 323.418068 
L 142.835196 322.661328 
L 144.792672 322.661328 
L 145.445164 321.904589 
L 146.750148 321.904589 
L 147.40264 321.147849 
L 148.055132 318.877631 
L 148.707624 317.364152 
L 150.012608 312.823715 
L 150.6651 309.040018 
L 151.317592 309.796757 
L 151.970084 315.093934 
L 152.622575 313.580455 
L 153.927559 313.580455 
L 154.580051 307.526539 
L 155.232543 310.553497 
L 155.885035 305.256321 
L 156.537527 314.337194 
L 157.190019 306.01306 
L 157.842511 314.337194 
L 158.495003 302.986102 
L 159.147495 299.959145 
L 159.799987 303.742842 
L 160.452479 302.229363 
L 161.104971 301.472623 
L 161.757463 296.175447 
L 162.409955 306.7698 
L 163.062447 299.202405 
L 163.714939 299.959145 
L 164.367431 304.499581 
L 165.019923 283.310877 
L 165.672415 289.364792 
L 166.324907 274.986743 
L 166.977398 318.120891 
L 167.62989 293.905229 
L 168.282382 274.986743 
L 168.934874 318.877631 
L 169.587366 333.25568 
L 170.239858 318.120891 
L 170.89235 323.418068 
L 172.197334 323.418068 
L 172.849826 322.661328 
L 175.459794 322.661328 
L 178.069762 319.63437 
L 179.374746 316.607413 
L 180.027238 313.580455 
L 180.67973 309.796757 
L 181.332222 304.499581 
L 181.984713 315.850673 
L 182.637205 315.850673 
L 183.289697 312.066976 
L 183.942189 304.499581 
L 184.594681 310.553497 
L 185.247173 301.472623 
L 185.899665 308.283279 
L 187.204649 309.796757 
L 187.857141 304.499581 
L 188.509633 306.01306 
L 189.162125 306.01306 
L 189.814617 305.256321 
L 190.467109 300.715884 
L 191.119601 289.364792 
L 191.772093 300.715884 
L 192.424585 303.742842 
L 193.077077 298.445666 
L 193.729569 312.823715 
L 194.382061 301.472623 
L 195.034553 293.905229 
L 195.687045 292.39175 
L 196.339536 321.147849 
L 196.992028 316.607413 
L 197.64452 324.174807 
L 198.949504 322.661328 
L 199.601996 321.147849 
L 200.254488 321.904589 
L 200.90698 321.147849 
L 204.821932 321.147849 
L 205.474424 320.39111 
L 206.126916 320.39111 
L 206.779408 318.877631 
L 207.4319 315.850673 
L 208.084392 313.580455 
L 209.389376 307.526539 
L 210.041868 318.120891 
L 210.694359 310.553497 
L 211.346851 308.283279 
L 211.999343 306.7698 
L 212.651835 309.796757 
L 213.304327 314.337194 
L 213.956819 311.310236 
L 215.261803 309.796757 
L 217.871771 309.796757 
L 219.176755 308.283279 
L 219.829247 308.283279 
L 220.481739 307.526539 
L 221.786723 307.526539 
L 222.439215 306.7698 
L 223.091707 312.823715 
L 223.744199 307.526539 
L 224.396691 310.553497 
L 225.049183 312.823715 
L 225.701674 316.607413 
L 226.354166 308.283279 
L 227.006658 311.310236 
L 227.65915 303.742842 
L 228.311642 310.553497 
L 228.964134 309.040018 
L 229.616626 308.283279 
L 230.269118 311.310236 
L 230.92161 309.040018 
L 231.574102 309.040018 
L 232.226594 309.796757 
L 233.531578 306.7698 
L 234.18407 312.066976 
L 234.836562 302.986102 
L 235.489054 312.066976 
L 236.141546 311.310236 
L 236.794038 296.175447 
L 237.44653 303.742842 
L 238.099022 312.823715 
L 238.751514 328.715244 
L 239.404006 323.418068 
L 240.708989 323.418068 
L 241.361481 322.661328 
L 244.623941 322.661328 
L 245.276433 321.904589 
L 245.928925 322.661328 
L 246.581417 321.904589 
L 247.886401 321.904589 
L 248.538893 320.39111 
L 249.191385 318.120891 
L 250.496369 312.066976 
L 251.148861 308.283279 
L 251.801353 314.337194 
L 252.453845 314.337194 
L 253.106337 307.526539 
L 253.758829 311.310236 
L 254.41132 311.310236 
L 255.063812 307.526539 
L 255.716304 309.796757 
L 256.368796 307.526539 
L 257.021288 315.093934 
L 257.67378 306.01306 
L 258.326272 312.066976 
L 258.978764 309.040018 
L 259.631256 306.7698 
L 260.283748 306.7698 
L 260.93624 298.445666 
L 261.588732 311.310236 
L 262.241224 309.040018 
L 262.893716 309.040018 
L 263.546208 301.472623 
L 264.1987 301.472623 
L 264.851192 318.120891 
L 265.503684 321.904589 
L 266.156176 319.63437 
L 266.808668 321.147849 
L 270.071127 321.147849 
L 270.723619 320.39111 
L 271.376111 321.147849 
L 272.028603 320.39111 
L 272.681095 320.39111 
L 273.333587 319.63437 
L 273.986079 319.63437 
L 274.638571 318.877631 
L 275.291063 317.364152 
L 275.943555 315.093934 
L 277.248539 309.040018 
L 277.901031 306.7698 
L 278.553523 320.39111 
L 279.206015 310.553497 
L 279.858507 303.742842 
L 280.510999 309.796757 
L 281.163491 303.742842 
L 281.815983 308.283279 
L 282.468475 311.310236 
L 283.120967 310.553497 
L 283.773458 309.040018 
L 284.42595 309.796757 
L 285.078442 307.526539 
L 285.730934 312.066976 
L 286.383426 306.7698 
L 287.035918 307.526539 
L 287.68841 307.526539 
L 288.340902 310.553497 
L 288.993394 306.7698 
L 290.298378 305.256321 
L 290.95087 302.229363 
L 291.603362 319.63437 
L 292.255854 328.715244 
L 292.908346 321.904589 
L 293.560838 321.904589 
L 294.21333 321.147849 
L 298.780773 321.147849 
L 299.433265 320.39111 
L 301.390741 320.39111 
L 302.043233 319.63437 
L 303.348217 316.607413 
L 304.000709 313.580455 
L 304.653201 309.796757 
L 305.305693 309.796757 
L 305.958185 304.499581 
L 306.610677 306.01306 
L 307.263169 313.580455 
L 307.915661 305.256321 
L 308.568153 318.120891 
L 309.220645 308.283279 
L 309.873137 314.337194 
L 310.525629 306.7698 
L 311.178121 314.337194 
L 311.830613 309.796757 
L 312.483105 308.283279 
L 313.788088 302.229363 
L 314.44058 299.959145 
L 315.745564 310.553497 
L 316.398056 311.310236 
L 317.050548 301.472623 
L 317.70304 303.742842 
L 318.355532 293.14849 
L 319.008024 303.742842 
L 319.660516 306.01306 
L 320.313008 294.661968 
L 321.617992 335.525899 
L 322.270484 321.147849 
L 324.22796 323.418068 
L 324.880452 322.661328 
L 325.532944 323.418068 
L 326.185436 322.661328 
L 326.837928 322.661328 
L 327.490419 321.904589 
L 330.100387 321.904589 
L 330.752879 321.147849 
L 331.405371 321.147849 
L 332.057863 319.63437 
L 333.362847 313.580455 
L 334.015339 309.796757 
L 334.667831 306.7698 
L 335.320323 318.120891 
L 335.972815 309.796757 
L 336.625307 310.553497 
L 337.277799 312.066976 
L 337.930291 305.256321 
L 338.582783 304.499581 
L 339.235275 309.796757 
L 339.887767 309.040018 
L 340.540259 304.499581 
L 341.192751 306.01306 
L 341.845242 301.472623 
L 342.497734 298.445666 
L 343.150226 307.526539 
L 343.802718 301.472623 
L 344.45521 315.850673 
L 345.107702 312.823715 
L 345.760194 309.040018 
L 346.412686 307.526539 
L 347.065178 310.553497 
L 347.71767 309.040018 
L 348.370162 324.931546 
L 349.022654 313.580455 
L 349.675146 320.39111 
L 350.327638 321.147849 
L 351.632622 321.147849 
L 352.285114 320.39111 
L 352.937606 320.39111 
L 353.590098 321.147849 
L 354.895082 319.63437 
L 356.200066 319.63437 
L 356.852557 320.39111 
L 357.505049 319.63437 
L 358.810033 319.63437 
L 359.462525 317.364152 
L 360.115017 314.337194 
L 360.767509 312.066976 
L 361.420001 312.066976 
L 362.072493 304.499581 
L 362.724985 302.986102 
L 363.377477 315.093934 
L 364.029969 300.715884 
L 364.682461 306.7698 
L 365.334953 315.850673 
L 365.987445 307.526539 
L 366.639937 308.283279 
L 367.292429 313.580455 
L 367.944921 306.7698 
L 368.597413 292.39175 
L 369.249905 311.310236 
L 369.902397 309.040018 
L 370.554889 309.796757 
L 371.20738 312.823715 
L 371.859872 308.283279 
L 372.512364 310.553497 
L 373.164856 313.580455 
L 373.817348 306.7698 
L 374.46984 305.256321 
L 375.122332 310.553497 
L 375.774824 265.14913 
L 376.427316 295.418708 
L 377.7323 330.228723 
L 378.384792 322.661328 
L 379.037284 323.418068 
L 379.689776 322.661328 
L 380.99476 322.661328 
L 381.647252 321.904589 
L 382.299744 322.661328 
L 382.952236 321.904589 
L 386.214695 321.904589 
L 386.867187 321.147849 
L 388.172171 321.147849 
L 388.824663 319.63437 
L 390.129647 313.580455 
L 390.782139 312.823715 
L 391.434631 306.01306 
L 392.087123 309.040018 
L 392.739615 304.499581 
L 393.392107 303.742842 
L 394.044599 305.256321 
L 394.697091 301.472623 
L 395.349583 300.715884 
L 396.002075 288.608053 
L 396.654567 299.959145 
L 397.307059 306.7698 
L 397.959551 302.229363 
L 398.612043 209.90715 
L 399.264535 316.607413 
L 399.917027 241.690207 
L 400.569518 290.878271 
L 401.22201 305.256321 
L 401.874502 278.77044 
L 402.526994 49.478387 
L 403.179486 312.066976 
L 403.831978 245.473904 
L 404.48447 315.093934 
L 405.136962 296.175447 
L 406.441946 318.120891 
L 407.094438 321.904589 
L 407.74693 322.661328 
L 408.399422 321.904589 
L 409.051914 321.904589 
L 409.704406 321.147849 
L 412.314374 321.147849 
L 412.966866 320.39111 
L 414.924341 320.39111 
L 415.576833 318.120891 
L 416.229325 316.607413 
L 416.881817 314.337194 
L 418.186801 308.283279 
L 418.839293 314.337194 
L 419.491785 314.337194 
L 420.144277 307.526539 
L 420.796769 311.310236 
L 421.449261 311.310236 
L 422.101753 307.526539 
L 422.754245 305.256321 
L 423.406737 308.283279 
L 424.059229 307.526539 
L 424.711721 310.553497 
L 425.364213 305.256321 
L 426.016705 310.553497 
L 426.669197 307.526539 
L 427.321689 310.553497 
L 427.974181 309.040018 
L 428.626673 311.310236 
L 429.279164 304.499581 
L 429.931656 309.796757 
L 430.584148 308.283279 
L 431.23664 305.256321 
L 431.889132 312.823715 
L 432.541624 324.931546 
L 433.194116 316.607413 
L 433.846608 320.39111 
L 434.4991 321.147849 
L 435.151592 321.147849 
L 435.804084 320.39111 
L 439.066544 320.39111 
L 439.719036 319.63437 
L 441.676512 319.63437 
L 442.329004 318.877631 
L 443.633988 318.877631 
L 444.286479 318.120891 
L 444.938971 316.607413 
L 445.591463 318.120891 
L 446.243955 307.526539 
L 446.896447 315.850673 
L 447.548939 309.040018 
L 448.201431 308.283279 
L 448.853923 311.310236 
L 449.506415 306.01306 
L 450.158907 312.823715 
L 450.811399 310.553497 
L 451.463891 309.040018 
L 452.116383 302.229363 
L 452.768875 302.986102 
L 453.421367 296.175447 
L 454.073859 297.688926 
L 455.378843 313.580455 
L 456.031335 305.256321 
L 456.683827 313.580455 
L 457.336319 307.526539 
L 457.988811 312.823715 
L 458.641302 309.040018 
L 459.293794 330.228723 
L 459.946286 321.904589 
L 460.598778 321.904589 
L 461.25127 322.661328 
L 461.903762 321.904589 
L 463.861238 321.904589 
L 464.51373 321.147849 
L 465.166222 321.904589 
L 465.818714 321.904589 
L 466.471206 321.147849 
L 467.77619 321.147849 
L 468.428682 320.39111 
L 469.733666 320.39111 
L 470.386158 318.877631 
L 470.386158 318.877631 
" style="fill:none;stroke:#d62728;stroke-linecap:square;stroke-width:1.5;"/>
   </g>
   <g id="patch_3">
    <path d="M 92.823906 352.174167 
L 92.823906 35.0625 
" style="fill:none;stroke:#000000;stroke-linecap:square;stroke-linejoin:miter;stroke-width:0.8;"/>
   </g>
   <g id="patch_4">
    <path d="M 488.365312 352.174167 
L 488.365312 35.0625 
" style="fill:none;stroke:#000000;stroke-linecap:square;stroke-linejoin:miter;stroke-width:0.8;"/>
   </g>
   <g id="patch_5">
    <path d="M 92.823906 352.174167 
L 488.365312 352.174167 
" style="fill:none;stroke:#000000;stroke-linecap:square;stroke-linejoin:miter;stroke-width:0.8;"/>
   </g>
   <g id="patch_6">
    <path d="M 92.823906 35.0625 
L 488.365312 35.0625 
" style="fill:none;stroke:#000000;stroke-linecap:square;stroke-linejoin:miter;stroke-width:0.8;"/>
   </g>
   <g id="legend_1">
    <g id="patch_7">
     <path d="M 510.142383 96.775 
L 609.212695 96.775 
Q 611.212695 96.775 611.212695 94.775 
L 611.212695 37.0625 
Q 611.212695 35.0625 609.212695 35.0625 
L 510.142383 35.0625 
Q 508.142383 35.0625 508.142383 37.0625 
L 508.142383 94.775 
Q 508.142383 96.775 510.142383 96.775 
z
" style="fill:#ffffff;opacity:0.8;stroke:#cccccc;stroke-linejoin:miter;"/>
    </g>
    <g id="line2d_20">
     <path d="M 512.142383 43.160937 
L 532.142383 43.160937 
" style="fill:none;stroke:#1f77b4;stroke-linecap:square;stroke-width:1.5;"/>
    </g>
    <g id="line2d_21"/>
    <g id="text_17">
     <!-- bbrshallow-pi -->
     <defs>
      <path d="M 48.6875 27.296875 
Q 48.6875 37.203125 44.609375 42.84375 
Q 40.53125 48.484375 33.40625 48.484375 
Q 26.265625 48.484375 22.1875 42.84375 
Q 18.109375 37.203125 18.109375 27.296875 
Q 18.109375 17.390625 22.1875 11.75 
Q 26.265625 6.109375 33.40625 6.109375 
Q 40.53125 6.109375 44.609375 11.75 
Q 48.6875 17.390625 48.6875 27.296875 
z
M 18.109375 46.390625 
Q 20.953125 51.265625 25.265625 53.625 
Q 29.59375 56 35.59375 56 
Q 45.5625 56 51.78125 48.09375 
Q 58.015625 40.1875 58.015625 27.296875 
Q 58.015625 14.40625 51.78125 6.484375 
Q 45.5625 -1.421875 35.59375 -1.421875 
Q 29.59375 -1.421875 25.265625 0.953125 
Q 20.953125 3.328125 18.109375 8.203125 
L 18.109375 0 
L 9.078125 0 
L 9.078125 75.984375 
L 18.109375 75.984375 
z
" id="DejaVuSans-98"/>
      <path d="M 54.890625 33.015625 
L 54.890625 0 
L 45.90625 0 
L 45.90625 32.71875 
Q 45.90625 40.484375 42.875 44.328125 
Q 39.84375 48.1875 33.796875 48.1875 
Q 26.515625 48.1875 22.3125 43.546875 
Q 18.109375 38.921875 18.109375 30.90625 
L 18.109375 0 
L 9.078125 0 
L 9.078125 75.984375 
L 18.109375 75.984375 
L 18.109375 46.1875 
Q 21.34375 51.125 25.703125 53.5625 
Q 30.078125 56 35.796875 56 
Q 45.21875 56 50.046875 50.171875 
Q 54.890625 44.34375 54.890625 33.015625 
z
" id="DejaVuSans-104"/>
      <path d="M 34.28125 27.484375 
Q 23.390625 27.484375 19.1875 25 
Q 14.984375 22.515625 14.984375 16.5 
Q 14.984375 11.71875 18.140625 8.90625 
Q 21.296875 6.109375 26.703125 6.109375 
Q 34.1875 6.109375 38.703125 11.40625 
Q 43.21875 16.703125 43.21875 25.484375 
L 43.21875 27.484375 
z
M 52.203125 31.203125 
L 52.203125 0 
L 43.21875 0 
L 43.21875 8.296875 
Q 40.140625 3.328125 35.546875 0.953125 
Q 30.953125 -1.421875 24.3125 -1.421875 
Q 15.921875 -1.421875 10.953125 3.296875 
Q 6 8.015625 6 15.921875 
Q 6 25.140625 12.171875 29.828125 
Q 18.359375 34.515625 30.609375 34.515625 
L 43.21875 34.515625 
L 43.21875 35.40625 
Q 43.21875 41.609375 39.140625 45 
Q 35.0625 48.390625 27.6875 48.390625 
Q 23 48.390625 18.546875 47.265625 
Q 14.109375 46.140625 10.015625 43.890625 
L 10.015625 52.203125 
Q 14.9375 54.109375 19.578125 55.046875 
Q 24.21875 56 28.609375 56 
Q 40.484375 56 46.34375 49.84375 
Q 52.203125 43.703125 52.203125 31.203125 
z
" id="DejaVuSans-97"/>
      <path d="M 9.421875 75.984375 
L 18.40625 75.984375 
L 18.40625 0 
L 9.421875 0 
z
" id="DejaVuSans-108"/>
      <path d="M 30.609375 48.390625 
Q 23.390625 48.390625 19.1875 42.75 
Q 14.984375 37.109375 14.984375 27.296875 
Q 14.984375 17.484375 19.15625 11.84375 
Q 23.34375 6.203125 30.609375 6.203125 
Q 37.796875 6.203125 41.984375 11.859375 
Q 46.1875 17.53125 46.1875 27.296875 
Q 46.1875 37.015625 41.984375 42.703125 
Q 37.796875 48.390625 30.609375 48.390625 
z
M 30.609375 56 
Q 42.328125 56 49.015625 48.375 
Q 55.71875 40.765625 55.71875 27.296875 
Q 55.71875 13.875 49.015625 6.21875 
Q 42.328125 -1.421875 30.609375 -1.421875 
Q 18.84375 -1.421875 12.171875 6.21875 
Q 5.515625 13.875 5.515625 27.296875 
Q 5.515625 40.765625 12.171875 48.375 
Q 18.84375 56 30.609375 56 
z
" id="DejaVuSans-111"/>
      <path d="M 4.203125 54.6875 
L 13.1875 54.6875 
L 24.421875 12.015625 
L 35.59375 54.6875 
L 46.1875 54.6875 
L 57.421875 12.015625 
L 68.609375 54.6875 
L 77.59375 54.6875 
L 63.28125 0 
L 52.6875 0 
L 40.921875 44.828125 
L 29.109375 0 
L 18.5 0 
z
" id="DejaVuSans-119"/>
      <path d="M 4.890625 31.390625 
L 31.203125 31.390625 
L 31.203125 23.390625 
L 4.890625 23.390625 
z
" id="DejaVuSans-45"/>
      <path d="M 18.109375 8.203125 
L 18.109375 -20.796875 
L 9.078125 -20.796875 
L 9.078125 54.6875 
L 18.109375 54.6875 
L 18.109375 46.390625 
Q 20.953125 51.265625 25.265625 53.625 
Q 29.59375 56 35.59375 56 
Q 45.5625 56 51.78125 48.09375 
Q 58.015625 40.1875 58.015625 27.296875 
Q 58.015625 14.40625 51.78125 6.484375 
Q 45.5625 -1.421875 35.59375 -1.421875 
Q 29.59375 -1.421875 25.265625 0.953125 
Q 20.953125 3.328125 18.109375 8.203125 
z
M 48.6875 27.296875 
Q 48.6875 37.203125 44.609375 42.84375 
Q 40.53125 48.484375 33.40625 48.484375 
Q 26.265625 48.484375 22.1875 42.84375 
Q 18.109375 37.203125 18.109375 27.296875 
Q 18.109375 17.390625 22.1875 11.75 
Q 26.265625 6.109375 33.40625 6.109375 
Q 40.53125 6.109375 44.609375 11.75 
Q 48.6875 17.390625 48.6875 27.296875 
z
" id="DejaVuSans-112"/>
      <path d="M 9.421875 54.6875 
L 18.40625 54.6875 
L 18.40625 0 
L 9.421875 0 
z
M 9.421875 75.984375 
L 18.40625 75.984375 
L 18.40625 64.59375 
L 9.421875 64.59375 
z
" id="DejaVuSans-105"/>
     </defs>
     <g transform="translate(540.142383 46.660937)scale(0.1 -0.1)">
      <use xlink:href="#DejaVuSans-98"/>
      <use x="63.476562" xlink:href="#DejaVuSans-98"/>
      <use x="126.953125" xlink:href="#DejaVuSans-114"/>
      <use x="168.066406" xlink:href="#DejaVuSans-115"/>
      <use x="220.166016" xlink:href="#DejaVuSans-104"/>
      <use x="283.544922" xlink:href="#DejaVuSans-97"/>
      <use x="344.824219" xlink:href="#DejaVuSans-108"/>
      <use x="372.607422" xlink:href="#DejaVuSans-108"/>
      <use x="400.390625" xlink:href="#DejaVuSans-111"/>
      <use x="461.572266" xlink:href="#DejaVuSans-119"/>
      <use x="543.359375" xlink:href="#DejaVuSans-45"/>
      <use x="579.443359" xlink:href="#DejaVuSans-112"/>
      <use x="642.919922" xlink:href="#DejaVuSans-105"/>
     </g>
    </g>
    <g id="line2d_22">
     <path d="M 512.142383 57.839063 
L 532.142383 57.839063 
" style="fill:none;stroke:#ff7f0e;stroke-linecap:square;stroke-width:1.5;"/>
    </g>
    <g id="line2d_23"/>
    <g id="text_18">
     <!-- bbrshallow-pi -->
     <g transform="translate(540.142383 61.339063)scale(0.1 -0.1)">
      <use xlink:href="#DejaVuSans-98"/>
      <use x="63.476562" xlink:href="#DejaVuSans-98"/>
      <use x="126.953125" xlink:href="#DejaVuSans-114"/>
      <use x="168.066406" xlink:href="#DejaVuSans-115"/>
      <use x="220.166016" xlink:href="#DejaVuSans-104"/>
      <use x="283.544922" xlink:href="#DejaVuSans-97"/>
      <use x="344.824219" xlink:href="#DejaVuSans-108"/>
      <use x="372.607422" xlink:href="#DejaVuSans-108"/>
      <use x="400.390625" xlink:href="#DejaVuSans-111"/>
      <use x="461.572266" xlink:href="#DejaVuSans-119"/>
      <use x="543.359375" xlink:href="#DejaVuSans-45"/>
      <use x="579.443359" xlink:href="#DejaVuSans-112"/>
      <use x="642.919922" xlink:href="#DejaVuSans-105"/>
     </g>
    </g>
    <g id="line2d_24">
     <path d="M 512.142383 72.517187 
L 532.142383 72.517187 
" style="fill:none;stroke:#2ca02c;stroke-linecap:square;stroke-width:1.5;"/>
    </g>
    <g id="line2d_25"/>
    <g id="text_19">
     <!-- cubic-pi -->
     <defs>
      <path d="M 48.78125 52.59375 
L 48.78125 44.1875 
Q 44.96875 46.296875 41.140625 47.34375 
Q 37.3125 48.390625 33.40625 48.390625 
Q 24.65625 48.390625 19.8125 42.84375 
Q 14.984375 37.3125 14.984375 27.296875 
Q 14.984375 17.28125 19.8125 11.734375 
Q 24.65625 6.203125 33.40625 6.203125 
Q 37.3125 6.203125 41.140625 7.25 
Q 44.96875 8.296875 48.78125 10.40625 
L 48.78125 2.09375 
Q 45.015625 0.34375 40.984375 -0.53125 
Q 36.96875 -1.421875 32.421875 -1.421875 
Q 20.0625 -1.421875 12.78125 6.34375 
Q 5.515625 14.109375 5.515625 27.296875 
Q 5.515625 40.671875 12.859375 48.328125 
Q 20.21875 56 33.015625 56 
Q 37.15625 56 41.109375 55.140625 
Q 45.0625 54.296875 48.78125 52.59375 
z
" id="DejaVuSans-99"/>
      <path d="M 8.5 21.578125 
L 8.5 54.6875 
L 17.484375 54.6875 
L 17.484375 21.921875 
Q 17.484375 14.15625 20.5 10.265625 
Q 23.53125 6.390625 29.59375 6.390625 
Q 36.859375 6.390625 41.078125 11.03125 
Q 45.3125 15.671875 45.3125 23.6875 
L 45.3125 54.6875 
L 54.296875 54.6875 
L 54.296875 0 
L 45.3125 0 
L 45.3125 8.40625 
Q 42.046875 3.421875 37.71875 1 
Q 33.40625 -1.421875 27.6875 -1.421875 
Q 18.265625 -1.421875 13.375 4.4375 
Q 8.5 10.296875 8.5 21.578125 
z
M 31.109375 56 
z
" id="DejaVuSans-117"/>
     </defs>
     <g transform="translate(540.142383 76.017187)scale(0.1 -0.1)">
      <use xlink:href="#DejaVuSans-99"/>
      <use x="54.980469" xlink:href="#DejaVuSans-117"/>
      <use x="118.359375" xlink:href="#DejaVuSans-98"/>
      <use x="181.835938" xlink:href="#DejaVuSans-105"/>
      <use x="209.619141" xlink:href="#DejaVuSans-99"/>
      <use x="264.599609" xlink:href="#DejaVuSans-45"/>
      <use x="300.683594" xlink:href="#DejaVuSans-112"/>
      <use x="364.160156" xlink:href="#DejaVuSans-105"/>
     </g>
    </g>
    <g id="line2d_26">
     <path d="M 512.142383 87.195312 
L 532.142383 87.195312 
" style="fill:none;stroke:#d62728;stroke-linecap:square;stroke-width:1.5;"/>
    </g>
    <g id="line2d_27"/>
    <g id="text_20">
     <!-- cubic-pi -->
     <g transform="translate(540.142383 90.695312)scale(0.1 -0.1)">
      <use xlink:href="#DejaVuSans-99"/>
      <use x="54.980469" xlink:href="#DejaVuSans-117"/>
      <use x="118.359375" xlink:href="#DejaVuSans-98"/>
      <use x="181.835938" xlink:href="#DejaVuSans-105"/>
      <use x="209.619141" xlink:href="#DejaVuSans-99"/>
      <use x="264.599609" xlink:href="#DejaVuSans-45"/>
      <use x="300.683594" xlink:href="#DejaVuSans-112"/>
      <use x="364.160156" xlink:href="#DejaVuSans-105"/>
     </g>
    </g>
   </g>
  </g>
  <g id="text_21">
   <!-- result rtt -->
   <defs>
    <path d="M 56.203125 29.59375 
L 56.203125 25.203125 
L 14.890625 25.203125 
Q 15.484375 15.921875 20.484375 11.0625 
Q 25.484375 6.203125 34.421875 6.203125 
Q 39.59375 6.203125 44.453125 7.46875 
Q 49.3125 8.734375 54.109375 11.28125 
L 54.109375 2.78125 
Q 49.265625 0.734375 44.1875 -0.34375 
Q 39.109375 -1.421875 33.890625 -1.421875 
Q 20.796875 -1.421875 13.15625 6.1875 
Q 5.515625 13.8125 5.515625 26.8125 
Q 5.515625 40.234375 12.765625 48.109375 
Q 20.015625 56 32.328125 56 
Q 43.359375 56 49.78125 48.890625 
Q 56.203125 41.796875 56.203125 29.59375 
z
M 47.21875 32.234375 
Q 47.125 39.59375 43.09375 43.984375 
Q 39.0625 48.390625 32.421875 48.390625 
Q 24.90625 48.390625 20.390625 44.140625 
Q 15.875 39.890625 15.1875 32.171875 
z
" id="DejaVuSans-101"/>
    <path id="DejaVuSans-32"/>
   </defs>
   <g transform="translate(315.818438 17.038125)scale(0.12 -0.12)">
    <use xlink:href="#DejaVuSans-114"/>
    <use x="41.082031" xlink:href="#DejaVuSans-101"/>
    <use x="102.605469" xlink:href="#DejaVuSans-115"/>
    <use x="154.705078" xlink:href="#DejaVuSans-117"/>
    <use x="218.083984" xlink:href="#DejaVuSans-108"/>
    <use x="245.867188" xlink:href="#DejaVuSans-116"/>
    <use x="285.076172" xlink:href="#DejaVuSans-32"/>
    <use x="316.863281" xlink:href="#DejaVuSans-114"/>
    <use x="357.976562" xlink:href="#DejaVuSans-116"/>
    <use x="397.185547" xlink:href="#DejaVuSans-116"/>
   </g>
  </g>
 </g>
 <defs>
  <clipPath id="pb9eca892ee">
   <rect height="317.111667" width="395.541406" x="92.823906" y="35.0625"/>
  </clipPath>
 </defs>
</svg>
