<?xml version="1.0" encoding="utf-8" standalone="no"?>
<!DOCTYPE svg PUBLIC "-//W3C//DTD SVG 1.1//EN"
  "http://www.w3.org/Graphics/SVG/1.1/DTD/svg11.dtd">
<!-- Created with matplotlib (https://matplotlib.org/) -->
<svg height="396pt" version="1.1" viewBox="0 0 684 396" width="684pt" xmlns="http://www.w3.org/2000/svg" xmlns:xlink="http://www.w3.org/1999/xlink">
 <defs>
  <style type="text/css">
*{stroke-linecap:butt;stroke-linejoin:round;}
  </style>
 </defs>
 <g id="figure_1">
  <g id="patch_1">
   <path d="M 0 396 
L 684 396 
L 684 0 
L 0 0 
z
" style="fill:#ffffff;"/>
  </g>
  <g id="axes_1">
   <g id="patch_2">
    <path d="M 83.472344 352.174167 
L 544.073906 352.174167 
L 544.073906 35.0625 
L 83.472344 35.0625 
z
" style="fill:#ffffff;"/>
   </g>
   <g id="matplotlib.axis_1">
    <g id="xtick_1">
     <g id="line2d_1">
      <defs>
       <path d="M 0 0 
L 0 3.5 
" id="m9100d9a03c" style="stroke:#000000;stroke-width:0.8;"/>
      </defs>
      <g>
       <use style="stroke:#000000;stroke-width:0.8;" x="104.396619" xlink:href="#m9100d9a03c" y="352.174167"/>
      </g>
     </g>
     <g id="text_1">
      <!-- 0 -->
      <defs>
       <path d="M 31.78125 66.40625 
Q 24.171875 66.40625 20.328125 58.90625 
Q 16.5 51.421875 16.5 36.375 
Q 16.5 21.390625 20.328125 13.890625 
Q 24.171875 6.390625 31.78125 6.390625 
Q 39.453125 6.390625 43.28125 13.890625 
Q 47.125 21.390625 47.125 36.375 
Q 47.125 51.421875 43.28125 58.90625 
Q 39.453125 66.40625 31.78125 66.40625 
z
M 31.78125 74.21875 
Q 44.046875 74.21875 50.515625 64.515625 
Q 56.984375 54.828125 56.984375 36.375 
Q 56.984375 17.96875 50.515625 8.265625 
Q 44.046875 -1.421875 31.78125 -1.421875 
Q 19.53125 -1.421875 13.0625 8.265625 
Q 6.59375 17.96875 6.59375 36.375 
Q 6.59375 54.828125 13.0625 64.515625 
Q 19.53125 74.21875 31.78125 74.21875 
z
" id="DejaVuSans-48"/>
      </defs>
      <g transform="translate(101.215369 366.772604)scale(0.1 -0.1)">
       <use xlink:href="#DejaVuSans-48"/>
      </g>
     </g>
    </g>
    <g id="xtick_2">
     <g id="line2d_2">
      <g>
       <use style="stroke:#000000;stroke-width:0.8;" x="180.390662" xlink:href="#m9100d9a03c" y="352.174167"/>
      </g>
     </g>
     <g id="text_2">
      <!-- 50 -->
      <defs>
       <path d="M 10.796875 72.90625 
L 49.515625 72.90625 
L 49.515625 64.59375 
L 19.828125 64.59375 
L 19.828125 46.734375 
Q 21.96875 47.46875 24.109375 47.828125 
Q 26.265625 48.1875 28.421875 48.1875 
Q 40.625 48.1875 47.75 41.5 
Q 54.890625 34.8125 54.890625 23.390625 
Q 54.890625 11.625 47.5625 5.09375 
Q 40.234375 -1.421875 26.90625 -1.421875 
Q 22.3125 -1.421875 17.546875 -0.640625 
Q 12.796875 0.140625 7.71875 1.703125 
L 7.71875 11.625 
Q 12.109375 9.234375 16.796875 8.0625 
Q 21.484375 6.890625 26.703125 6.890625 
Q 35.15625 6.890625 40.078125 11.328125 
Q 45.015625 15.765625 45.015625 23.390625 
Q 45.015625 31 40.078125 35.4375 
Q 35.15625 39.890625 26.703125 39.890625 
Q 22.75 39.890625 18.8125 39.015625 
Q 14.890625 38.140625 10.796875 36.28125 
z
" id="DejaVuSans-53"/>
      </defs>
      <g transform="translate(174.028162 366.772604)scale(0.1 -0.1)">
       <use xlink:href="#DejaVuSans-53"/>
       <use x="63.623047" xlink:href="#DejaVuSans-48"/>
      </g>
     </g>
    </g>
    <g id="xtick_3">
     <g id="line2d_3">
      <g>
       <use style="stroke:#000000;stroke-width:0.8;" x="256.384704" xlink:href="#m9100d9a03c" y="352.174167"/>
      </g>
     </g>
     <g id="text_3">
      <!-- 100 -->
      <defs>
       <path d="M 12.40625 8.296875 
L 28.515625 8.296875 
L 28.515625 63.921875 
L 10.984375 60.40625 
L 10.984375 69.390625 
L 28.421875 72.90625 
L 38.28125 72.90625 
L 38.28125 8.296875 
L 54.390625 8.296875 
L 54.390625 0 
L 12.40625 0 
z
" id="DejaVuSans-49"/>
      </defs>
      <g transform="translate(246.840954 366.772604)scale(0.1 -0.1)">
       <use xlink:href="#DejaVuSans-49"/>
       <use x="63.623047" xlink:href="#DejaVuSans-48"/>
       <use x="127.246094" xlink:href="#DejaVuSans-48"/>
      </g>
     </g>
    </g>
    <g id="xtick_4">
     <g id="line2d_4">
      <g>
       <use style="stroke:#000000;stroke-width:0.8;" x="332.378746" xlink:href="#m9100d9a03c" y="352.174167"/>
      </g>
     </g>
     <g id="text_4">
      <!-- 150 -->
      <g transform="translate(322.834996 366.772604)scale(0.1 -0.1)">
       <use xlink:href="#DejaVuSans-49"/>
       <use x="63.623047" xlink:href="#DejaVuSans-53"/>
       <use x="127.246094" xlink:href="#DejaVuSans-48"/>
      </g>
     </g>
    </g>
    <g id="xtick_5">
     <g id="line2d_5">
      <g>
       <use style="stroke:#000000;stroke-width:0.8;" x="408.372789" xlink:href="#m9100d9a03c" y="352.174167"/>
      </g>
     </g>
     <g id="text_5">
      <!-- 200 -->
      <defs>
       <path d="M 19.1875 8.296875 
L 53.609375 8.296875 
L 53.609375 0 
L 7.328125 0 
L 7.328125 8.296875 
Q 12.9375 14.109375 22.625 23.890625 
Q 32.328125 33.6875 34.8125 36.53125 
Q 39.546875 41.84375 41.421875 45.53125 
Q 43.3125 49.21875 43.3125 52.78125 
Q 43.3125 58.59375 39.234375 62.25 
Q 35.15625 65.921875 28.609375 65.921875 
Q 23.96875 65.921875 18.8125 64.3125 
Q 13.671875 62.703125 7.8125 59.421875 
L 7.8125 69.390625 
Q 13.765625 71.78125 18.9375 73 
Q 24.125 74.21875 28.421875 74.21875 
Q 39.75 74.21875 46.484375 68.546875 
Q 53.21875 62.890625 53.21875 53.421875 
Q 53.21875 48.921875 51.53125 44.890625 
Q 49.859375 40.875 45.40625 35.40625 
Q 44.1875 33.984375 37.640625 27.21875 
Q 31.109375 20.453125 19.1875 8.296875 
z
" id="DejaVuSans-50"/>
      </defs>
      <g transform="translate(398.829039 366.772604)scale(0.1 -0.1)">
       <use xlink:href="#DejaVuSans-50"/>
       <use x="63.623047" xlink:href="#DejaVuSans-48"/>
       <use x="127.246094" xlink:href="#DejaVuSans-48"/>
      </g>
     </g>
    </g>
    <g id="xtick_6">
     <g id="line2d_6">
      <g>
       <use style="stroke:#000000;stroke-width:0.8;" x="484.366831" xlink:href="#m9100d9a03c" y="352.174167"/>
      </g>
     </g>
     <g id="text_6">
      <!-- 250 -->
      <g transform="translate(474.823081 366.772604)scale(0.1 -0.1)">
       <use xlink:href="#DejaVuSans-50"/>
       <use x="63.623047" xlink:href="#DejaVuSans-53"/>
       <use x="127.246094" xlink:href="#DejaVuSans-48"/>
      </g>
     </g>
    </g>
   </g>
   <g id="matplotlib.axis_2">
    <g id="ytick_1">
     <g id="line2d_7">
      <defs>
       <path d="M 0 0 
L -3.5 0 
" id="m44ea734973" style="stroke:#000000;stroke-width:0.8;"/>
      </defs>
      <g>
       <use style="stroke:#000000;stroke-width:0.8;" x="83.472344" xlink:href="#m44ea734973" y="352.174167"/>
      </g>
     </g>
     <g id="text_7">
      <!-- 0 -->
      <g transform="translate(70.109844 355.973385)scale(0.1 -0.1)">
       <use xlink:href="#DejaVuSans-48"/>
      </g>
     </g>
    </g>
    <g id="ytick_2">
     <g id="line2d_8">
      <g>
       <use style="stroke:#000000;stroke-width:0.8;" x="83.472344" xlink:href="#m44ea734973" y="313.944912"/>
      </g>
     </g>
     <g id="text_8">
      <!-- 10 -->
      <g transform="translate(63.747344 317.744131)scale(0.1 -0.1)">
       <use xlink:href="#DejaVuSans-49"/>
       <use x="63.623047" xlink:href="#DejaVuSans-48"/>
      </g>
     </g>
    </g>
    <g id="ytick_3">
     <g id="line2d_9">
      <g>
       <use style="stroke:#000000;stroke-width:0.8;" x="83.472344" xlink:href="#m44ea734973" y="275.715658"/>
      </g>
     </g>
     <g id="text_9">
      <!-- 20 -->
      <g transform="translate(63.747344 279.514876)scale(0.1 -0.1)">
       <use xlink:href="#DejaVuSans-50"/>
       <use x="63.623047" xlink:href="#DejaVuSans-48"/>
      </g>
     </g>
    </g>
    <g id="ytick_4">
     <g id="line2d_10">
      <g>
       <use style="stroke:#000000;stroke-width:0.8;" x="83.472344" xlink:href="#m44ea734973" y="237.486403"/>
      </g>
     </g>
     <g id="text_10">
      <!-- 30 -->
      <defs>
       <path d="M 40.578125 39.3125 
Q 47.65625 37.796875 51.625 33 
Q 55.609375 28.21875 55.609375 21.1875 
Q 55.609375 10.40625 48.1875 4.484375 
Q 40.765625 -1.421875 27.09375 -1.421875 
Q 22.515625 -1.421875 17.65625 -0.515625 
Q 12.796875 0.390625 7.625 2.203125 
L 7.625 11.71875 
Q 11.71875 9.328125 16.59375 8.109375 
Q 21.484375 6.890625 26.8125 6.890625 
Q 36.078125 6.890625 40.9375 10.546875 
Q 45.796875 14.203125 45.796875 21.1875 
Q 45.796875 27.640625 41.28125 31.265625 
Q 36.765625 34.90625 28.71875 34.90625 
L 20.21875 34.90625 
L 20.21875 43.015625 
L 29.109375 43.015625 
Q 36.375 43.015625 40.234375 45.921875 
Q 44.09375 48.828125 44.09375 54.296875 
Q 44.09375 59.90625 40.109375 62.90625 
Q 36.140625 65.921875 28.71875 65.921875 
Q 24.65625 65.921875 20.015625 65.03125 
Q 15.375 64.15625 9.8125 62.3125 
L 9.8125 71.09375 
Q 15.4375 72.65625 20.34375 73.4375 
Q 25.25 74.21875 29.59375 74.21875 
Q 40.828125 74.21875 47.359375 69.109375 
Q 53.90625 64.015625 53.90625 55.328125 
Q 53.90625 49.265625 50.4375 45.09375 
Q 46.96875 40.921875 40.578125 39.3125 
z
" id="DejaVuSans-51"/>
      </defs>
      <g transform="translate(63.747344 241.285622)scale(0.1 -0.1)">
       <use xlink:href="#DejaVuSans-51"/>
       <use x="63.623047" xlink:href="#DejaVuSans-48"/>
      </g>
     </g>
    </g>
    <g id="ytick_5">
     <g id="line2d_11">
      <g>
       <use style="stroke:#000000;stroke-width:0.8;" x="83.472344" xlink:href="#m44ea734973" y="199.257148"/>
      </g>
     </g>
     <g id="text_11">
      <!-- 40 -->
      <defs>
       <path d="M 37.796875 64.3125 
L 12.890625 25.390625 
L 37.796875 25.390625 
z
M 35.203125 72.90625 
L 47.609375 72.90625 
L 47.609375 25.390625 
L 58.015625 25.390625 
L 58.015625 17.1875 
L 47.609375 17.1875 
L 47.609375 0 
L 37.796875 0 
L 37.796875 17.1875 
L 4.890625 17.1875 
L 4.890625 26.703125 
z
" id="DejaVuSans-52"/>
      </defs>
      <g transform="translate(63.747344 203.056367)scale(0.1 -0.1)">
       <use xlink:href="#DejaVuSans-52"/>
       <use x="63.623047" xlink:href="#DejaVuSans-48"/>
      </g>
     </g>
    </g>
    <g id="ytick_6">
     <g id="line2d_12">
      <g>
       <use style="stroke:#000000;stroke-width:0.8;" x="83.472344" xlink:href="#m44ea734973" y="161.027894"/>
      </g>
     </g>
     <g id="text_12">
      <!-- 50 -->
      <g transform="translate(63.747344 164.827113)scale(0.1 -0.1)">
       <use xlink:href="#DejaVuSans-53"/>
       <use x="63.623047" xlink:href="#DejaVuSans-48"/>
      </g>
     </g>
    </g>
    <g id="ytick_7">
     <g id="line2d_13">
      <g>
       <use style="stroke:#000000;stroke-width:0.8;" x="83.472344" xlink:href="#m44ea734973" y="122.798639"/>
      </g>
     </g>
     <g id="text_13">
      <!-- 60 -->
      <defs>
       <path d="M 33.015625 40.375 
Q 26.375 40.375 22.484375 35.828125 
Q 18.609375 31.296875 18.609375 23.390625 
Q 18.609375 15.53125 22.484375 10.953125 
Q 26.375 6.390625 33.015625 6.390625 
Q 39.65625 6.390625 43.53125 10.953125 
Q 47.40625 15.53125 47.40625 23.390625 
Q 47.40625 31.296875 43.53125 35.828125 
Q 39.65625 40.375 33.015625 40.375 
z
M 52.59375 71.296875 
L 52.59375 62.3125 
Q 48.875 64.0625 45.09375 64.984375 
Q 41.3125 65.921875 37.59375 65.921875 
Q 27.828125 65.921875 22.671875 59.328125 
Q 17.53125 52.734375 16.796875 39.40625 
Q 19.671875 43.65625 24.015625 45.921875 
Q 28.375 48.1875 33.59375 48.1875 
Q 44.578125 48.1875 50.953125 41.515625 
Q 57.328125 34.859375 57.328125 23.390625 
Q 57.328125 12.15625 50.6875 5.359375 
Q 44.046875 -1.421875 33.015625 -1.421875 
Q 20.359375 -1.421875 13.671875 8.265625 
Q 6.984375 17.96875 6.984375 36.375 
Q 6.984375 53.65625 15.1875 63.9375 
Q 23.390625 74.21875 37.203125 74.21875 
Q 40.921875 74.21875 44.703125 73.484375 
Q 48.484375 72.75 52.59375 71.296875 
z
" id="DejaVuSans-54"/>
      </defs>
      <g transform="translate(63.747344 126.597858)scale(0.1 -0.1)">
       <use xlink:href="#DejaVuSans-54"/>
       <use x="63.623047" xlink:href="#DejaVuSans-48"/>
      </g>
     </g>
    </g>
    <g id="ytick_8">
     <g id="line2d_14">
      <g>
       <use style="stroke:#000000;stroke-width:0.8;" x="83.472344" xlink:href="#m44ea734973" y="84.569385"/>
      </g>
     </g>
     <g id="text_14">
      <!-- 70 -->
      <defs>
       <path d="M 8.203125 72.90625 
L 55.078125 72.90625 
L 55.078125 68.703125 
L 28.609375 0 
L 18.3125 0 
L 43.21875 64.59375 
L 8.203125 64.59375 
z
" id="DejaVuSans-55"/>
      </defs>
      <g transform="translate(63.747344 88.368603)scale(0.1 -0.1)">
       <use xlink:href="#DejaVuSans-55"/>
       <use x="63.623047" xlink:href="#DejaVuSans-48"/>
      </g>
     </g>
    </g>
    <g id="ytick_9">
     <g id="line2d_15">
      <g>
       <use style="stroke:#000000;stroke-width:0.8;" x="83.472344" xlink:href="#m44ea734973" y="46.34013"/>
      </g>
     </g>
     <g id="text_15">
      <!-- 80 -->
      <defs>
       <path d="M 31.78125 34.625 
Q 24.75 34.625 20.71875 30.859375 
Q 16.703125 27.09375 16.703125 20.515625 
Q 16.703125 13.921875 20.71875 10.15625 
Q 24.75 6.390625 31.78125 6.390625 
Q 38.8125 6.390625 42.859375 10.171875 
Q 46.921875 13.96875 46.921875 20.515625 
Q 46.921875 27.09375 42.890625 30.859375 
Q 38.875 34.625 31.78125 34.625 
z
M 21.921875 38.8125 
Q 15.578125 40.375 12.03125 44.71875 
Q 8.5 49.078125 8.5 55.328125 
Q 8.5 64.0625 14.71875 69.140625 
Q 20.953125 74.21875 31.78125 74.21875 
Q 42.671875 74.21875 48.875 69.140625 
Q 55.078125 64.0625 55.078125 55.328125 
Q 55.078125 49.078125 51.53125 44.71875 
Q 48 40.375 41.703125 38.8125 
Q 48.828125 37.15625 52.796875 32.3125 
Q 56.78125 27.484375 56.78125 20.515625 
Q 56.78125 9.90625 50.3125 4.234375 
Q 43.84375 -1.421875 31.78125 -1.421875 
Q 19.734375 -1.421875 13.25 4.234375 
Q 6.78125 9.90625 6.78125 20.515625 
Q 6.78125 27.484375 10.78125 32.3125 
Q 14.796875 37.15625 21.921875 38.8125 
z
M 18.3125 54.390625 
Q 18.3125 48.734375 21.84375 45.5625 
Q 25.390625 42.390625 31.78125 42.390625 
Q 38.140625 42.390625 41.71875 45.5625 
Q 45.3125 48.734375 45.3125 54.390625 
Q 45.3125 60.0625 41.71875 63.234375 
Q 38.140625 66.40625 31.78125 66.40625 
Q 25.390625 66.40625 21.84375 63.234375 
Q 18.3125 60.0625 18.3125 54.390625 
z
" id="DejaVuSans-56"/>
      </defs>
      <g transform="translate(63.747344 50.139349)scale(0.1 -0.1)">
       <use xlink:href="#DejaVuSans-56"/>
       <use x="63.623047" xlink:href="#DejaVuSans-48"/>
      </g>
     </g>
    </g>
    <g id="text_16">
     <!-- throughput -->
     <defs>
      <path d="M 18.3125 70.21875 
L 18.3125 54.6875 
L 36.8125 54.6875 
L 36.8125 47.703125 
L 18.3125 47.703125 
L 18.3125 18.015625 
Q 18.3125 11.328125 20.140625 9.421875 
Q 21.96875 7.515625 27.59375 7.515625 
L 36.8125 7.515625 
L 36.8125 0 
L 27.59375 0 
Q 17.1875 0 13.234375 3.875 
Q 9.28125 7.765625 9.28125 18.015625 
L 9.28125 47.703125 
L 2.6875 47.703125 
L 2.6875 54.6875 
L 9.28125 54.6875 
L 9.28125 70.21875 
z
" id="DejaVuSans-116"/>
      <path d="M 54.890625 33.015625 
L 54.890625 0 
L 45.90625 0 
L 45.90625 32.71875 
Q 45.90625 40.484375 42.875 44.328125 
Q 39.84375 48.1875 33.796875 48.1875 
Q 26.515625 48.1875 22.3125 43.546875 
Q 18.109375 38.921875 18.109375 30.90625 
L 18.109375 0 
L 9.078125 0 
L 9.078125 75.984375 
L 18.109375 75.984375 
L 18.109375 46.1875 
Q 21.34375 51.125 25.703125 53.5625 
Q 30.078125 56 35.796875 56 
Q 45.21875 56 50.046875 50.171875 
Q 54.890625 44.34375 54.890625 33.015625 
z
" id="DejaVuSans-104"/>
      <path d="M 41.109375 46.296875 
Q 39.59375 47.171875 37.8125 47.578125 
Q 36.03125 48 33.890625 48 
Q 26.265625 48 22.1875 43.046875 
Q 18.109375 38.09375 18.109375 28.8125 
L 18.109375 0 
L 9.078125 0 
L 9.078125 54.6875 
L 18.109375 54.6875 
L 18.109375 46.1875 
Q 20.953125 51.171875 25.484375 53.578125 
Q 30.03125 56 36.53125 56 
Q 37.453125 56 38.578125 55.875 
Q 39.703125 55.765625 41.0625 55.515625 
z
" id="DejaVuSans-114"/>
      <path d="M 30.609375 48.390625 
Q 23.390625 48.390625 19.1875 42.75 
Q 14.984375 37.109375 14.984375 27.296875 
Q 14.984375 17.484375 19.15625 11.84375 
Q 23.34375 6.203125 30.609375 6.203125 
Q 37.796875 6.203125 41.984375 11.859375 
Q 46.1875 17.53125 46.1875 27.296875 
Q 46.1875 37.015625 41.984375 42.703125 
Q 37.796875 48.390625 30.609375 48.390625 
z
M 30.609375 56 
Q 42.328125 56 49.015625 48.375 
Q 55.71875 40.765625 55.71875 27.296875 
Q 55.71875 13.875 49.015625 6.21875 
Q 42.328125 -1.421875 30.609375 -1.421875 
Q 18.84375 -1.421875 12.171875 6.21875 
Q 5.515625 13.875 5.515625 27.296875 
Q 5.515625 40.765625 12.171875 48.375 
Q 18.84375 56 30.609375 56 
z
" id="DejaVuSans-111"/>
      <path d="M 8.5 21.578125 
L 8.5 54.6875 
L 17.484375 54.6875 
L 17.484375 21.921875 
Q 17.484375 14.15625 20.5 10.265625 
Q 23.53125 6.390625 29.59375 6.390625 
Q 36.859375 6.390625 41.078125 11.03125 
Q 45.3125 15.671875 45.3125 23.6875 
L 45.3125 54.6875 
L 54.296875 54.6875 
L 54.296875 0 
L 45.3125 0 
L 45.3125 8.40625 
Q 42.046875 3.421875 37.71875 1 
Q 33.40625 -1.421875 27.6875 -1.421875 
Q 18.265625 -1.421875 13.375 4.4375 
Q 8.5 10.296875 8.5 21.578125 
z
M 31.109375 56 
z
" id="DejaVuSans-117"/>
      <path d="M 45.40625 27.984375 
Q 45.40625 37.75 41.375 43.109375 
Q 37.359375 48.484375 30.078125 48.484375 
Q 22.859375 48.484375 18.828125 43.109375 
Q 14.796875 37.75 14.796875 27.984375 
Q 14.796875 18.265625 18.828125 12.890625 
Q 22.859375 7.515625 30.078125 7.515625 
Q 37.359375 7.515625 41.375 12.890625 
Q 45.40625 18.265625 45.40625 27.984375 
z
M 54.390625 6.78125 
Q 54.390625 -7.171875 48.1875 -13.984375 
Q 42 -20.796875 29.203125 -20.796875 
Q 24.46875 -20.796875 20.265625 -20.09375 
Q 16.0625 -19.390625 12.109375 -17.921875 
L 12.109375 -9.1875 
Q 16.0625 -11.328125 19.921875 -12.34375 
Q 23.78125 -13.375 27.78125 -13.375 
Q 36.625 -13.375 41.015625 -8.765625 
Q 45.40625 -4.15625 45.40625 5.171875 
L 45.40625 9.625 
Q 42.625 4.78125 38.28125 2.390625 
Q 33.9375 0 27.875 0 
Q 17.828125 0 11.671875 7.65625 
Q 5.515625 15.328125 5.515625 27.984375 
Q 5.515625 40.671875 11.671875 48.328125 
Q 17.828125 56 27.875 56 
Q 33.9375 56 38.28125 53.609375 
Q 42.625 51.21875 45.40625 46.390625 
L 45.40625 54.6875 
L 54.390625 54.6875 
z
" id="DejaVuSans-103"/>
      <path d="M 18.109375 8.203125 
L 18.109375 -20.796875 
L 9.078125 -20.796875 
L 9.078125 54.6875 
L 18.109375 54.6875 
L 18.109375 46.390625 
Q 20.953125 51.265625 25.265625 53.625 
Q 29.59375 56 35.59375 56 
Q 45.5625 56 51.78125 48.09375 
Q 58.015625 40.1875 58.015625 27.296875 
Q 58.015625 14.40625 51.78125 6.484375 
Q 45.5625 -1.421875 35.59375 -1.421875 
Q 29.59375 -1.421875 25.265625 0.953125 
Q 20.953125 3.328125 18.109375 8.203125 
z
M 48.6875 27.296875 
Q 48.6875 37.203125 44.609375 42.84375 
Q 40.53125 48.484375 33.40625 48.484375 
Q 26.265625 48.484375 22.1875 42.84375 
Q 18.109375 37.203125 18.109375 27.296875 
Q 18.109375 17.390625 22.1875 11.75 
Q 26.265625 6.109375 33.40625 6.109375 
Q 40.53125 6.109375 44.609375 11.75 
Q 48.6875 17.390625 48.6875 27.296875 
z
" id="DejaVuSans-112"/>
     </defs>
     <g transform="translate(46.469844 221.675365)rotate(-90)scale(0.1 -0.1)">
      <use xlink:href="#DejaVuSans-116"/>
      <use x="39.208984" xlink:href="#DejaVuSans-104"/>
      <use x="102.587891" xlink:href="#DejaVuSans-114"/>
      <use x="143.669922" xlink:href="#DejaVuSans-111"/>
      <use x="204.851562" xlink:href="#DejaVuSans-117"/>
      <use x="268.230469" xlink:href="#DejaVuSans-103"/>
      <use x="331.707031" xlink:href="#DejaVuSans-104"/>
      <use x="395.085938" xlink:href="#DejaVuSans-112"/>
      <use x="458.5625" xlink:href="#DejaVuSans-117"/>
      <use x="521.941406" xlink:href="#DejaVuSans-116"/>
     </g>
     <!-- (mbit / second) -->
     <defs>
      <path d="M 31 75.875 
Q 24.46875 64.65625 21.28125 53.65625 
Q 18.109375 42.671875 18.109375 31.390625 
Q 18.109375 20.125 21.3125 9.0625 
Q 24.515625 -2 31 -13.1875 
L 23.1875 -13.1875 
Q 15.875 -1.703125 12.234375 9.375 
Q 8.59375 20.453125 8.59375 31.390625 
Q 8.59375 42.28125 12.203125 53.3125 
Q 15.828125 64.359375 23.1875 75.875 
z
" id="DejaVuSans-40"/>
      <path d="M 52 44.1875 
Q 55.375 50.25 60.0625 53.125 
Q 64.75 56 71.09375 56 
Q 79.640625 56 84.28125 50.015625 
Q 88.921875 44.046875 88.921875 33.015625 
L 88.921875 0 
L 79.890625 0 
L 79.890625 32.71875 
Q 79.890625 40.578125 77.09375 44.375 
Q 74.3125 48.1875 68.609375 48.1875 
Q 61.625 48.1875 57.5625 43.546875 
Q 53.515625 38.921875 53.515625 30.90625 
L 53.515625 0 
L 44.484375 0 
L 44.484375 32.71875 
Q 44.484375 40.625 41.703125 44.40625 
Q 38.921875 48.1875 33.109375 48.1875 
Q 26.21875 48.1875 22.15625 43.53125 
Q 18.109375 38.875 18.109375 30.90625 
L 18.109375 0 
L 9.078125 0 
L 9.078125 54.6875 
L 18.109375 54.6875 
L 18.109375 46.1875 
Q 21.1875 51.21875 25.484375 53.609375 
Q 29.78125 56 35.6875 56 
Q 41.65625 56 45.828125 52.96875 
Q 50 49.953125 52 44.1875 
z
" id="DejaVuSans-109"/>
      <path d="M 48.6875 27.296875 
Q 48.6875 37.203125 44.609375 42.84375 
Q 40.53125 48.484375 33.40625 48.484375 
Q 26.265625 48.484375 22.1875 42.84375 
Q 18.109375 37.203125 18.109375 27.296875 
Q 18.109375 17.390625 22.1875 11.75 
Q 26.265625 6.109375 33.40625 6.109375 
Q 40.53125 6.109375 44.609375 11.75 
Q 48.6875 17.390625 48.6875 27.296875 
z
M 18.109375 46.390625 
Q 20.953125 51.265625 25.265625 53.625 
Q 29.59375 56 35.59375 56 
Q 45.5625 56 51.78125 48.09375 
Q 58.015625 40.1875 58.015625 27.296875 
Q 58.015625 14.40625 51.78125 6.484375 
Q 45.5625 -1.421875 35.59375 -1.421875 
Q 29.59375 -1.421875 25.265625 0.953125 
Q 20.953125 3.328125 18.109375 8.203125 
L 18.109375 0 
L 9.078125 0 
L 9.078125 75.984375 
L 18.109375 75.984375 
z
" id="DejaVuSans-98"/>
      <path d="M 9.421875 54.6875 
L 18.40625 54.6875 
L 18.40625 0 
L 9.421875 0 
z
M 9.421875 75.984375 
L 18.40625 75.984375 
L 18.40625 64.59375 
L 9.421875 64.59375 
z
" id="DejaVuSans-105"/>
      <path id="DejaVuSans-32"/>
      <path d="M 25.390625 72.90625 
L 33.6875 72.90625 
L 8.296875 -9.28125 
L 0 -9.28125 
z
" id="DejaVuSans-47"/>
      <path d="M 44.28125 53.078125 
L 44.28125 44.578125 
Q 40.484375 46.53125 36.375 47.5 
Q 32.28125 48.484375 27.875 48.484375 
Q 21.1875 48.484375 17.84375 46.4375 
Q 14.5 44.390625 14.5 40.28125 
Q 14.5 37.15625 16.890625 35.375 
Q 19.28125 33.59375 26.515625 31.984375 
L 29.59375 31.296875 
Q 39.15625 29.25 43.1875 25.515625 
Q 47.21875 21.78125 47.21875 15.09375 
Q 47.21875 7.46875 41.1875 3.015625 
Q 35.15625 -1.421875 24.609375 -1.421875 
Q 20.21875 -1.421875 15.453125 -0.5625 
Q 10.6875 0.296875 5.421875 2 
L 5.421875 11.28125 
Q 10.40625 8.6875 15.234375 7.390625 
Q 20.0625 6.109375 24.8125 6.109375 
Q 31.15625 6.109375 34.5625 8.28125 
Q 37.984375 10.453125 37.984375 14.40625 
Q 37.984375 18.0625 35.515625 20.015625 
Q 33.0625 21.96875 24.703125 23.78125 
L 21.578125 24.515625 
Q 13.234375 26.265625 9.515625 29.90625 
Q 5.8125 33.546875 5.8125 39.890625 
Q 5.8125 47.609375 11.28125 51.796875 
Q 16.75 56 26.8125 56 
Q 31.78125 56 36.171875 55.265625 
Q 40.578125 54.546875 44.28125 53.078125 
z
" id="DejaVuSans-115"/>
      <path d="M 56.203125 29.59375 
L 56.203125 25.203125 
L 14.890625 25.203125 
Q 15.484375 15.921875 20.484375 11.0625 
Q 25.484375 6.203125 34.421875 6.203125 
Q 39.59375 6.203125 44.453125 7.46875 
Q 49.3125 8.734375 54.109375 11.28125 
L 54.109375 2.78125 
Q 49.265625 0.734375 44.1875 -0.34375 
Q 39.109375 -1.421875 33.890625 -1.421875 
Q 20.796875 -1.421875 13.15625 6.1875 
Q 5.515625 13.8125 5.515625 26.8125 
Q 5.515625 40.234375 12.765625 48.109375 
Q 20.015625 56 32.328125 56 
Q 43.359375 56 49.78125 48.890625 
Q 56.203125 41.796875 56.203125 29.59375 
z
M 47.21875 32.234375 
Q 47.125 39.59375 43.09375 43.984375 
Q 39.0625 48.390625 32.421875 48.390625 
Q 24.90625 48.390625 20.390625 44.140625 
Q 15.875 39.890625 15.1875 32.171875 
z
" id="DejaVuSans-101"/>
      <path d="M 48.78125 52.59375 
L 48.78125 44.1875 
Q 44.96875 46.296875 41.140625 47.34375 
Q 37.3125 48.390625 33.40625 48.390625 
Q 24.65625 48.390625 19.8125 42.84375 
Q 14.984375 37.3125 14.984375 27.296875 
Q 14.984375 17.28125 19.8125 11.734375 
Q 24.65625 6.203125 33.40625 6.203125 
Q 37.3125 6.203125 41.140625 7.25 
Q 44.96875 8.296875 48.78125 10.40625 
L 48.78125 2.09375 
Q 45.015625 0.34375 40.984375 -0.53125 
Q 36.96875 -1.421875 32.421875 -1.421875 
Q 20.0625 -1.421875 12.78125 6.34375 
Q 5.515625 14.109375 5.515625 27.296875 
Q 5.515625 40.671875 12.859375 48.328125 
Q 20.21875 56 33.015625 56 
Q 37.15625 56 41.109375 55.140625 
Q 45.0625 54.296875 48.78125 52.59375 
z
" id="DejaVuSans-99"/>
      <path d="M 54.890625 33.015625 
L 54.890625 0 
L 45.90625 0 
L 45.90625 32.71875 
Q 45.90625 40.484375 42.875 44.328125 
Q 39.84375 48.1875 33.796875 48.1875 
Q 26.515625 48.1875 22.3125 43.546875 
Q 18.109375 38.921875 18.109375 30.90625 
L 18.109375 0 
L 9.078125 0 
L 9.078125 54.6875 
L 18.109375 54.6875 
L 18.109375 46.1875 
Q 21.34375 51.125 25.703125 53.5625 
Q 30.078125 56 35.796875 56 
Q 45.21875 56 50.046875 50.171875 
Q 54.890625 44.34375 54.890625 33.015625 
z
" id="DejaVuSans-110"/>
      <path d="M 45.40625 46.390625 
L 45.40625 75.984375 
L 54.390625 75.984375 
L 54.390625 0 
L 45.40625 0 
L 45.40625 8.203125 
Q 42.578125 3.328125 38.25 0.953125 
Q 33.9375 -1.421875 27.875 -1.421875 
Q 17.96875 -1.421875 11.734375 6.484375 
Q 5.515625 14.40625 5.515625 27.296875 
Q 5.515625 40.1875 11.734375 48.09375 
Q 17.96875 56 27.875 56 
Q 33.9375 56 38.25 53.625 
Q 42.578125 51.265625 45.40625 46.390625 
z
M 14.796875 27.296875 
Q 14.796875 17.390625 18.875 11.75 
Q 22.953125 6.109375 30.078125 6.109375 
Q 37.203125 6.109375 41.296875 11.75 
Q 45.40625 17.390625 45.40625 27.296875 
Q 45.40625 37.203125 41.296875 42.84375 
Q 37.203125 48.484375 30.078125 48.484375 
Q 22.953125 48.484375 18.875 42.84375 
Q 14.796875 37.203125 14.796875 27.296875 
z
" id="DejaVuSans-100"/>
      <path d="M 8.015625 75.875 
L 15.828125 75.875 
Q 23.140625 64.359375 26.78125 53.3125 
Q 30.421875 42.28125 30.421875 31.390625 
Q 30.421875 20.453125 26.78125 9.375 
Q 23.140625 -1.703125 15.828125 -13.1875 
L 8.015625 -13.1875 
Q 14.5 -2 17.703125 9.0625 
Q 20.90625 20.125 20.90625 31.390625 
Q 20.90625 42.671875 17.703125 53.65625 
Q 14.5 64.65625 8.015625 75.875 
z
" id="DejaVuSans-41"/>
     </defs>
     <g transform="translate(57.667656 231.608958)rotate(-90)scale(0.1 -0.1)">
      <use xlink:href="#DejaVuSans-40"/>
      <use x="39.013672" xlink:href="#DejaVuSans-109"/>
      <use x="136.425781" xlink:href="#DejaVuSans-98"/>
      <use x="199.902344" xlink:href="#DejaVuSans-105"/>
      <use x="227.685547" xlink:href="#DejaVuSans-116"/>
      <use x="266.894531" xlink:href="#DejaVuSans-32"/>
      <use x="298.681641" xlink:href="#DejaVuSans-47"/>
      <use x="332.373047" xlink:href="#DejaVuSans-32"/>
      <use x="364.160156" xlink:href="#DejaVuSans-115"/>
      <use x="416.259766" xlink:href="#DejaVuSans-101"/>
      <use x="477.783203" xlink:href="#DejaVuSans-99"/>
      <use x="532.763672" xlink:href="#DejaVuSans-111"/>
      <use x="593.945312" xlink:href="#DejaVuSans-110"/>
      <use x="657.324219" xlink:href="#DejaVuSans-100"/>
      <use x="720.800781" xlink:href="#DejaVuSans-41"/>
     </g>
    </g>
   </g>
   <g id="line2d_16">
    <path clip-path="url(#pb5b4a54a8e)" d="M 107.459179 256.60103 
L 108.21912 214.54885 
L 108.97906 218.371776 
L 109.739001 214.54885 
L 110.498941 226.017627 
L 111.258881 233.663477 
L 112.018822 233.663477 
L 112.778762 229.840552 
L 113.538703 264.246881 
L 114.298643 279.538583 
L 115.058584 283.361508 
L 115.818524 275.715658 
L 116.578464 271.892732 
L 117.338405 279.538583 
L 118.098345 294.830285 
L 118.858286 302.476136 
L 119.618226 287.184434 
L 120.378166 283.361508 
L 121.138107 287.184434 
L 121.898047 302.476136 
L 123.417928 287.184434 
L 124.177869 287.184434 
L 124.937809 283.361508 
L 125.697749 283.361508 
L 126.45769 298.65321 
L 127.21763 294.830285 
L 127.977571 283.361508 
L 128.737511 268.069807 
L 129.497452 271.892732 
L 130.257392 268.069807 
L 131.017332 271.892732 
L 131.777273 268.069807 
L 133.297154 283.361508 
L 134.057094 287.184434 
L 134.817035 310.121987 
L 135.576975 340.70539 
L 137.096856 291.007359 
L 137.856796 294.830285 
L 138.616737 302.476136 
L 139.376677 287.184434 
L 140.136617 279.538583 
L 140.896558 275.715658 
L 141.656498 291.007359 
L 142.416439 275.715658 
L 143.176379 271.892732 
L 144.69626 271.892732 
L 145.4562 279.538583 
L 146.216141 298.65321 
L 146.976081 294.830285 
L 147.736022 287.184434 
L 148.495962 294.830285 
L 149.255903 287.184434 
L 150.015843 271.892732 
L 150.775783 279.538583 
L 151.535724 275.715658 
L 152.295664 294.830285 
L 153.055605 291.007359 
L 153.815545 302.476136 
L 154.575486 298.65321 
L 155.335426 275.715658 
L 156.855307 283.361508 
L 157.615247 302.476136 
L 158.375188 302.476136 
L 159.135128 275.715658 
L 159.895068 287.184434 
L 160.655009 264.246881 
L 161.414949 260.423956 
L 162.17489 264.246881 
L 162.93483 283.361508 
L 163.694771 283.361508 
L 164.454711 294.830285 
L 165.214651 294.830285 
L 165.974592 302.476136 
L 166.734532 298.65321 
L 168.254413 275.715658 
L 169.014354 260.423956 
L 169.774294 271.892732 
L 171.294175 279.538583 
L 173.573996 279.538583 
L 174.333937 248.955179 
L 175.093877 256.60103 
L 175.853817 283.361508 
L 176.613758 294.830285 
L 177.373698 291.007359 
L 178.133639 283.361508 
L 178.893579 291.007359 
L 179.653519 291.007359 
L 180.41346 294.830285 
L 181.1734 291.007359 
L 182.693281 306.299061 
L 183.453222 298.65321 
L 184.213162 306.299061 
L 184.973102 291.007359 
L 185.733043 302.476136 
L 186.492983 306.299061 
L 187.252924 291.007359 
L 188.012864 298.65321 
L 188.772805 279.538583 
L 189.532745 298.65321 
L 190.292685 291.007359 
L 191.052626 287.184434 
L 191.812566 287.184434 
L 193.332447 279.538583 
L 194.092388 287.184434 
L 195.612268 279.538583 
L 196.372209 291.007359 
L 197.132149 264.246881 
L 200.171911 279.538583 
L 200.931851 260.423956 
L 201.691792 275.715658 
L 202.451732 268.069807 
L 203.211673 279.538583 
L 203.971613 271.892732 
L 204.731553 279.538583 
L 205.491494 264.246881 
L 206.251434 264.246881 
L 207.011375 271.892732 
L 207.771315 271.892732 
L 208.531256 268.069807 
L 209.291196 283.361508 
L 210.051136 268.069807 
L 210.811077 275.715658 
L 212.330958 252.778105 
L 213.090898 256.60103 
L 213.850839 268.069807 
L 214.610779 268.069807 
L 215.370719 233.663477 
L 216.13066 252.778105 
L 216.8906 248.955179 
L 217.650541 222.194701 
L 218.410481 237.486403 
L 219.170422 248.955179 
L 219.930362 271.892732 
L 220.690302 271.892732 
L 221.450243 283.361508 
L 222.210183 287.184434 
L 222.970124 302.476136 
L 224.490004 287.184434 
L 225.249945 291.007359 
L 226.009885 287.184434 
L 227.529766 264.246881 
L 228.289707 287.184434 
L 229.049647 279.538583 
L 229.809587 283.361508 
L 230.569528 291.007359 
L 231.329468 313.944912 
L 232.089409 287.184434 
L 232.849349 287.184434 
L 233.60929 275.715658 
L 234.36923 271.892732 
L 235.12917 279.538583 
L 236.649051 264.246881 
L 237.408992 268.069807 
L 238.168932 275.715658 
L 238.928873 279.538583 
L 239.688813 268.069807 
L 240.448753 283.361508 
L 241.208694 294.830285 
L 241.968634 298.65321 
L 242.728575 294.830285 
L 243.488515 279.538583 
L 244.248455 291.007359 
L 245.008396 287.184434 
L 245.768336 275.715658 
L 246.528277 302.476136 
L 247.288217 271.892732 
L 248.048158 271.892732 
L 248.808098 260.423956 
L 251.087919 260.423956 
L 251.84786 271.892732 
L 252.6078 275.715658 
L 254.127681 268.069807 
L 254.887621 275.715658 
L 256.407502 275.715658 
L 257.167443 268.069807 
L 257.927383 283.361508 
L 258.687324 260.423956 
L 259.447264 260.423956 
L 260.207204 275.715658 
L 260.967145 283.361508 
L 261.727085 275.715658 
L 262.487026 275.715658 
L 263.246966 321.590763 
L 264.006906 298.65321 
L 264.766847 287.184434 
L 265.526787 298.65321 
L 266.286728 298.65321 
L 267.046668 291.007359 
L 267.806609 287.184434 
L 268.566549 291.007359 
L 269.326489 287.184434 
L 270.08643 275.715658 
L 270.84637 275.715658 
L 271.606311 298.65321 
L 272.366251 287.184434 
L 273.126192 279.538583 
L 273.886132 283.361508 
L 275.406013 283.361508 
L 276.165953 294.830285 
L 276.925894 291.007359 
L 277.685834 291.007359 
L 278.445775 306.299061 
L 279.205715 310.121987 
L 279.965655 264.246881 
L 280.725596 279.538583 
L 281.485536 283.361508 
L 282.245477 302.476136 
L 283.765358 294.830285 
L 284.525298 310.121987 
L 285.285238 298.65321 
L 286.045179 333.059539 
L 286.805119 283.361508 
L 287.56506 271.892732 
L 288.325 256.60103 
L 289.08494 245.132254 
L 289.844881 271.892732 
L 290.604821 291.007359 
L 291.364762 294.830285 
L 292.124702 279.538583 
L 292.884643 271.892732 
L 293.644583 271.892732 
L 294.404523 275.715658 
L 295.164464 275.715658 
L 295.924404 271.892732 
L 296.684345 283.361508 
L 297.444285 275.715658 
L 298.204226 271.892732 
L 298.964166 287.184434 
L 299.724106 291.007359 
L 300.484047 298.65321 
L 301.243987 302.476136 
L 302.003928 302.476136 
L 302.763868 298.65321 
L 303.523809 287.184434 
L 305.043689 287.184434 
L 305.80363 283.361508 
L 306.56357 291.007359 
L 307.323511 291.007359 
L 308.083451 279.538583 
L 308.843391 283.361508 
L 309.603332 298.65321 
L 310.363272 294.830285 
L 311.123213 294.830285 
L 311.883153 287.184434 
L 312.643094 275.715658 
L 313.403034 294.830285 
L 314.162974 294.830285 
L 314.922915 279.538583 
L 316.442796 271.892732 
L 317.202736 271.892732 
L 317.962677 260.423956 
L 318.722617 268.069807 
L 319.482557 291.007359 
L 320.242498 294.830285 
L 321.002438 291.007359 
L 321.762379 291.007359 
L 322.522319 283.361508 
L 323.28226 310.121987 
L 324.0422 317.767838 
L 325.562081 302.476136 
L 326.322021 291.007359 
L 327.081962 291.007359 
L 327.841902 302.476136 
L 328.601842 321.590763 
L 329.361783 329.236614 
L 330.121723 302.476136 
L 330.881664 291.007359 
L 331.641604 271.892732 
L 332.401545 271.892732 
L 333.161485 252.778105 
L 333.921425 245.132254 
L 334.681366 252.778105 
L 335.441306 264.246881 
L 336.961187 233.663477 
L 337.721128 248.955179 
L 338.481068 248.955179 
L 340.000949 287.184434 
L 340.760889 294.830285 
L 341.52083 287.184434 
L 342.28077 275.715658 
L 343.040711 268.069807 
L 343.800651 256.60103 
L 344.560591 264.246881 
L 345.320532 264.246881 
L 346.080472 275.715658 
L 346.840413 268.069807 
L 347.600353 268.069807 
L 348.360293 279.538583 
L 349.880174 264.246881 
L 350.640115 264.246881 
L 351.400055 268.069807 
L 352.159996 252.778105 
L 352.919936 264.246881 
L 353.679876 271.892732 
L 354.439817 268.069807 
L 355.199757 275.715658 
L 355.959698 268.069807 
L 356.719638 287.184434 
L 357.479579 283.361508 
L 358.239519 294.830285 
L 358.999459 298.65321 
L 359.7594 287.184434 
L 360.51934 310.121987 
L 361.279281 294.830285 
L 363.559102 306.299061 
L 364.319042 302.476136 
L 365.078983 287.184434 
L 365.838923 302.476136 
L 366.598864 306.299061 
L 367.358804 291.007359 
L 368.118744 287.184434 
L 368.878685 279.538583 
L 369.638625 275.715658 
L 370.398566 279.538583 
L 371.158506 279.538583 
L 371.918447 275.715658 
L 372.678387 268.069807 
L 373.438327 271.892732 
L 374.958208 264.246881 
L 376.478089 279.538583 
L 377.23803 275.715658 
L 377.99797 283.361508 
L 378.75791 287.184434 
L 379.517851 294.830285 
L 380.277791 310.121987 
L 381.037732 313.944912 
L 381.797672 298.65321 
L 382.557613 310.121987 
L 384.077493 302.476136 
L 384.837434 279.538583 
L 385.597374 279.538583 
L 386.357315 287.184434 
L 387.117255 275.715658 
L 388.637136 275.715658 
L 389.397076 287.184434 
L 390.157017 279.538583 
L 390.916957 268.069807 
L 391.676898 260.423956 
L 392.436838 268.069807 
L 393.196778 248.955179 
L 393.956719 206.902999 
L 394.716659 218.371776 
L 395.4766 233.663477 
L 396.23654 241.309328 
L 396.996481 252.778105 
L 397.756421 283.361508 
L 398.516361 279.538583 
L 399.276302 268.069807 
L 400.036242 275.715658 
L 401.556123 275.715658 
L 402.316064 271.892732 
L 403.076004 260.423956 
L 403.835944 271.892732 
L 405.355825 287.184434 
L 406.115766 291.007359 
L 406.875706 275.715658 
L 407.635647 291.007359 
L 408.395587 291.007359 
L 409.155527 268.069807 
L 409.915468 260.423956 
L 410.675408 260.423956 
L 411.435349 264.246881 
L 412.195289 260.423956 
L 412.955229 268.069807 
L 413.71517 264.246881 
L 414.47511 271.892732 
L 415.235051 275.715658 
L 415.994991 283.361508 
L 416.754932 279.538583 
L 417.514872 271.892732 
L 418.274812 287.184434 
L 419.034753 268.069807 
L 419.794693 279.538583 
L 420.554634 283.361508 
L 421.314574 275.715658 
L 422.074515 271.892732 
L 422.834455 279.538583 
L 423.594395 294.830285 
L 424.354336 287.184434 
L 425.114276 294.830285 
L 425.874217 321.590763 
L 426.634157 287.184434 
L 427.394098 271.892732 
L 428.154038 279.538583 
L 428.913978 268.069807 
L 429.673919 271.892732 
L 430.433859 268.069807 
L 431.1938 283.361508 
L 431.95374 287.184434 
L 432.71368 279.538583 
L 433.473621 291.007359 
L 434.233561 287.184434 
L 434.993502 298.65321 
L 435.753442 294.830285 
L 436.513383 302.476136 
L 437.273323 291.007359 
L 438.033263 302.476136 
L 438.793204 287.184434 
L 439.553144 279.538583 
L 440.313085 279.538583 
L 441.073025 252.778105 
L 442.592906 275.715658 
L 443.352846 268.069807 
L 444.112787 256.60103 
L 444.872727 252.778105 
L 445.632668 245.132254 
L 446.392608 268.069807 
L 447.152549 268.069807 
L 447.912489 264.246881 
L 448.672429 275.715658 
L 449.43237 268.069807 
L 450.952251 298.65321 
L 451.712191 283.361508 
L 453.232072 283.361508 
L 453.992012 268.069807 
L 454.751953 264.246881 
L 455.511893 271.892732 
L 456.271834 298.65321 
L 457.031774 294.830285 
L 457.791714 310.121987 
L 458.551655 317.767838 
L 459.311595 317.767838 
L 460.831476 310.121987 
L 461.591417 298.65321 
L 462.351357 271.892732 
L 463.111297 268.069807 
L 463.871238 268.069807 
L 464.631178 287.184434 
L 465.391119 287.184434 
L 466.151059 275.715658 
L 466.911 294.830285 
L 467.67094 294.830285 
L 468.43088 306.299061 
L 469.190821 275.715658 
L 469.950761 313.944912 
L 470.710702 275.715658 
L 471.470642 271.892732 
L 472.230583 279.538583 
L 472.990523 283.361508 
L 473.750463 264.246881 
L 475.270344 287.184434 
L 476.790225 279.538583 
L 477.550165 268.069807 
L 478.310106 248.955179 
L 479.070046 252.778105 
L 479.829987 252.778105 
L 480.589927 260.423956 
L 481.349868 302.476136 
L 482.109808 302.476136 
L 482.869748 310.121987 
L 483.629689 294.830285 
L 485.14957 279.538583 
L 485.90951 298.65321 
L 486.669451 310.121987 
L 487.429391 313.944912 
L 488.949272 298.65321 
L 489.709212 287.184434 
L 490.469153 310.121987 
L 491.229093 310.121987 
L 491.989034 317.767838 
L 492.748974 321.590763 
L 494.268855 344.528316 
L 495.028795 352.174167 
L 496.548676 352.174167 
L 497.308616 344.528316 
L 498.828497 336.882465 
L 500.348378 306.299061 
L 501.108319 321.590763 
L 501.868259 283.361508 
L 502.628199 260.423956 
L 503.38814 256.60103 
L 504.14808 260.423956 
L 504.908021 245.132254 
L 505.667961 241.309328 
L 506.427902 256.60103 
L 507.187842 256.60103 
L 507.947782 271.892732 
L 508.707723 271.892732 
L 509.467663 260.423956 
L 510.227604 256.60103 
L 510.987544 264.246881 
L 511.747485 256.60103 
L 512.507425 241.309328 
L 513.267365 256.60103 
L 514.787246 256.60103 
L 515.547187 260.423956 
L 516.307127 271.892732 
L 517.067067 260.423956 
L 517.067067 260.423956 
" style="fill:none;stroke:#1f77b4;stroke-linecap:square;stroke-width:1.5;"/>
   </g>
   <g id="line2d_17">
    <path clip-path="url(#pb5b4a54a8e)" d="M 110.50958 283.361508 
L 111.269521 256.60103 
L 112.029461 241.309328 
L 112.789401 248.955179 
L 113.549342 283.361508 
L 114.309282 294.830285 
L 115.069223 302.476136 
L 115.829163 291.007359 
L 116.589104 283.361508 
L 117.349044 283.361508 
L 118.108984 275.715658 
L 118.868925 279.538583 
L 119.628865 264.246881 
L 120.388806 275.715658 
L 121.148746 298.65321 
L 121.908686 313.944912 
L 122.668627 294.830285 
L 124.188508 294.830285 
L 124.948448 298.65321 
L 125.708389 294.830285 
L 126.468329 287.184434 
L 127.228269 283.361508 
L 127.98821 291.007359 
L 128.74815 287.184434 
L 129.508091 294.830285 
L 130.268031 313.944912 
L 131.027972 310.121987 
L 131.787912 302.476136 
L 132.547852 298.65321 
L 133.307793 291.007359 
L 134.067733 291.007359 
L 134.827674 302.476136 
L 135.587614 298.65321 
L 136.347555 298.65321 
L 137.107495 302.476136 
L 137.867435 310.121987 
L 138.627376 306.299061 
L 139.387316 336.882465 
L 140.147257 344.528316 
L 140.907197 340.70539 
L 141.667137 302.476136 
L 143.946959 302.476136 
L 144.706899 298.65321 
L 146.22678 275.715658 
L 146.98672 302.476136 
L 147.746661 306.299061 
L 148.506601 302.476136 
L 149.266542 306.299061 
L 150.026482 302.476136 
L 150.786423 302.476136 
L 151.546363 287.184434 
L 152.306303 291.007359 
L 153.066244 279.538583 
L 153.826184 271.892732 
L 155.346065 294.830285 
L 156.106006 302.476136 
L 158.385827 291.007359 
L 159.145767 302.476136 
L 159.905708 294.830285 
L 160.665648 298.65321 
L 161.425588 313.944912 
L 162.185529 306.299061 
L 162.945469 294.830285 
L 163.70541 279.538583 
L 164.46535 291.007359 
L 165.225291 298.65321 
L 165.985231 287.184434 
L 166.745171 283.361508 
L 167.505112 271.892732 
L 168.265052 264.246881 
L 169.024993 271.892732 
L 169.784933 268.069807 
L 170.544874 268.069807 
L 171.304814 279.538583 
L 172.064754 279.538583 
L 173.584635 287.184434 
L 174.344576 302.476136 
L 175.104516 294.830285 
L 175.864457 279.538583 
L 176.624397 275.715658 
L 177.384337 268.069807 
L 178.144278 248.955179 
L 178.904218 294.830285 
L 179.664159 275.715658 
L 180.424099 287.184434 
L 181.18404 313.944912 
L 181.94398 310.121987 
L 182.70392 283.361508 
L 183.463861 279.538583 
L 184.983742 287.184434 
L 185.743682 294.830285 
L 186.503622 294.830285 
L 187.263563 298.65321 
L 188.023503 313.944912 
L 188.783444 313.944912 
L 189.543384 321.590763 
L 190.303325 310.121987 
L 191.063265 313.944912 
L 191.823205 313.944912 
L 192.583146 310.121987 
L 193.343086 313.944912 
L 194.103027 279.538583 
L 194.862967 275.715658 
L 195.622908 264.246881 
L 196.382848 256.60103 
L 197.142788 275.715658 
L 197.902729 279.538583 
L 198.662669 279.538583 
L 199.42261 287.184434 
L 200.18255 291.007359 
L 200.942491 302.476136 
L 201.702431 287.184434 
L 202.462371 291.007359 
L 203.222312 279.538583 
L 207.022014 298.65321 
L 207.781954 310.121987 
L 208.541895 294.830285 
L 210.061776 279.538583 
L 210.821716 287.184434 
L 211.581656 287.184434 
L 212.341597 283.361508 
L 213.861478 306.299061 
L 214.621418 294.830285 
L 215.381359 291.007359 
L 216.141299 298.65321 
L 216.901239 298.65321 
L 217.66118 302.476136 
L 218.42112 291.007359 
L 219.181061 283.361508 
L 219.941001 287.184434 
L 220.700942 298.65321 
L 221.460882 306.299061 
L 222.220822 317.767838 
L 222.980763 298.65321 
L 223.740703 306.299061 
L 224.500644 298.65321 
L 225.260584 302.476136 
L 226.020524 279.538583 
L 226.780465 279.538583 
L 227.540405 317.767838 
L 228.300346 283.361508 
L 229.060286 291.007359 
L 229.820227 287.184434 
L 230.580167 291.007359 
L 231.340107 287.184434 
L 232.859988 294.830285 
L 233.619929 291.007359 
L 234.379869 291.007359 
L 235.13981 287.184434 
L 235.89975 294.830285 
L 236.65969 306.299061 
L 237.419631 287.184434 
L 238.179571 271.892732 
L 238.939512 275.715658 
L 239.699452 283.361508 
L 240.459393 283.361508 
L 241.219333 279.538583 
L 241.979273 271.892732 
L 242.739214 275.715658 
L 244.259095 275.715658 
L 245.019035 268.069807 
L 245.778975 271.892732 
L 246.538916 271.892732 
L 247.298856 287.184434 
L 248.058797 298.65321 
L 248.818737 287.184434 
L 251.098558 298.65321 
L 251.858499 287.184434 
L 252.618439 287.184434 
L 253.37838 279.538583 
L 254.13832 287.184434 
L 254.898261 291.007359 
L 255.658201 302.476136 
L 256.418141 287.184434 
L 257.178082 294.830285 
L 257.938022 275.715658 
L 258.697963 279.538583 
L 259.457903 271.892732 
L 260.217844 268.069807 
L 260.977784 260.423956 
L 261.737724 287.184434 
L 262.497665 287.184434 
L 264.017546 279.538583 
L 264.777486 268.069807 
L 266.297367 229.840552 
L 267.057307 218.371776 
L 267.817248 229.840552 
L 268.577188 237.486403 
L 270.097069 268.069807 
L 270.857009 271.892732 
L 271.61695 264.246881 
L 272.37689 264.246881 
L 273.136831 268.069807 
L 273.896771 283.361508 
L 274.656712 291.007359 
L 275.416652 302.476136 
L 276.176592 287.184434 
L 276.936533 287.184434 
L 277.696473 298.65321 
L 278.456414 313.944912 
L 279.216354 313.944912 
L 279.976295 317.767838 
L 280.736235 317.767838 
L 281.496175 313.944912 
L 282.256116 325.413688 
L 283.016056 317.767838 
L 284.535937 287.184434 
L 285.295878 329.236614 
L 286.055818 302.476136 
L 286.815758 317.767838 
L 287.575699 313.944912 
L 289.09558 321.590763 
L 289.85552 317.767838 
L 290.61546 306.299061 
L 291.375401 302.476136 
L 292.135341 306.299061 
L 292.895282 302.476136 
L 293.655222 287.184434 
L 294.415163 279.538583 
L 295.175103 294.830285 
L 295.935043 279.538583 
L 296.694984 279.538583 
L 297.454924 264.246881 
L 298.214865 260.423956 
L 298.974805 241.309328 
L 299.734746 226.017627 
L 300.494686 214.54885 
L 301.254626 222.194701 
L 302.774507 206.902999 
L 303.534448 237.486403 
L 304.294388 237.486403 
L 305.054329 229.840552 
L 305.814269 237.486403 
L 306.574209 264.246881 
L 307.33415 275.715658 
L 308.09409 283.361508 
L 308.854031 260.423956 
L 309.613971 275.715658 
L 310.373911 302.476136 
L 311.133852 321.590763 
L 311.893792 294.830285 
L 313.413673 271.892732 
L 314.173614 268.069807 
L 314.933554 279.538583 
L 315.693494 283.361508 
L 316.453435 283.361508 
L 317.973316 298.65321 
L 318.733256 283.361508 
L 319.493197 279.538583 
L 320.253137 279.538583 
L 321.013077 283.361508 
L 321.773018 291.007359 
L 322.532958 287.184434 
L 324.052839 317.767838 
L 324.81278 313.944912 
L 325.57272 306.299061 
L 326.33266 317.767838 
L 327.092601 306.299061 
L 327.852541 313.944912 
L 328.612482 333.059539 
L 329.372422 310.121987 
L 330.132362 333.059539 
L 330.892303 306.299061 
L 331.652243 291.007359 
L 333.932065 268.069807 
L 334.692005 252.778105 
L 335.451945 256.60103 
L 336.211886 291.007359 
L 336.971826 317.767838 
L 337.731767 313.944912 
L 338.491707 313.944912 
L 339.251648 294.830285 
L 340.011588 310.121987 
L 340.771528 298.65321 
L 341.531469 279.538583 
L 342.291409 283.361508 
L 343.05135 291.007359 
L 344.571231 298.65321 
L 345.331171 291.007359 
L 346.091111 275.715658 
L 346.851052 275.715658 
L 347.610992 264.246881 
L 348.370933 268.069807 
L 349.130873 287.184434 
L 349.890814 302.476136 
L 350.650754 291.007359 
L 351.410694 287.184434 
L 352.170635 321.590763 
L 352.930575 325.413688 
L 353.690516 287.184434 
L 354.450456 275.715658 
L 355.970337 306.299061 
L 356.730277 298.65321 
L 357.490218 294.830285 
L 358.250158 294.830285 
L 359.010099 317.767838 
L 359.770039 306.299061 
L 360.529979 313.944912 
L 361.28992 294.830285 
L 362.04986 298.65321 
L 362.809801 294.830285 
L 363.569741 294.830285 
L 364.329682 298.65321 
L 365.089622 283.361508 
L 365.849562 260.423956 
L 367.369443 268.069807 
L 368.129384 245.132254 
L 368.889324 241.309328 
L 369.649265 248.955179 
L 370.409205 271.892732 
L 371.169145 271.892732 
L 371.929086 275.715658 
L 372.689026 256.60103 
L 373.448967 260.423956 
L 374.208907 260.423956 
L 374.968847 279.538583 
L 375.728788 294.830285 
L 376.488728 302.476136 
L 377.248669 298.65321 
L 378.008609 298.65321 
L 378.76855 294.830285 
L 379.52849 313.944912 
L 380.28843 313.944912 
L 381.048371 333.059539 
L 381.808311 310.121987 
L 382.568252 298.65321 
L 383.328192 310.121987 
L 384.088133 298.65321 
L 384.848073 313.944912 
L 385.608013 279.538583 
L 386.367954 279.538583 
L 387.127894 283.361508 
L 387.887835 279.538583 
L 388.647775 264.246881 
L 389.407716 271.892732 
L 390.167656 294.830285 
L 390.927596 302.476136 
L 391.687537 287.184434 
L 392.447477 264.246881 
L 393.207418 287.184434 
L 393.967358 283.361508 
L 394.727298 287.184434 
L 395.487239 294.830285 
L 396.247179 298.65321 
L 397.00712 294.830285 
L 397.76706 287.184434 
L 398.527001 275.715658 
L 400.046881 291.007359 
L 400.806822 275.715658 
L 401.566762 291.007359 
L 402.326703 291.007359 
L 403.086643 283.361508 
L 403.846584 279.538583 
L 404.606524 291.007359 
L 405.366464 275.715658 
L 406.126405 271.892732 
L 406.886345 279.538583 
L 408.406226 264.246881 
L 409.166167 283.361508 
L 411.445988 306.299061 
L 412.205928 302.476136 
L 412.965869 306.299061 
L 413.725809 306.299061 
L 414.485749 275.715658 
L 416.00563 291.007359 
L 417.525511 298.65321 
L 418.285452 283.361508 
L 419.045392 298.65321 
L 419.805332 294.830285 
L 420.565273 283.361508 
L 421.325213 291.007359 
L 422.085154 291.007359 
L 422.845094 298.65321 
L 423.605035 287.184434 
L 424.364975 271.892732 
L 425.124915 252.778105 
L 425.884856 248.955179 
L 426.644796 256.60103 
L 427.404737 268.069807 
L 428.164677 271.892732 
L 428.924618 268.069807 
L 429.684558 271.892732 
L 431.204439 271.892732 
L 431.964379 275.715658 
L 432.72432 271.892732 
L 433.48426 264.246881 
L 434.244201 268.069807 
L 435.764081 317.767838 
L 436.524022 336.882465 
L 437.283962 336.882465 
L 438.043903 306.299061 
L 438.803843 302.476136 
L 439.563783 302.476136 
L 441.083664 279.538583 
L 441.843605 294.830285 
L 442.603545 298.65321 
L 443.363486 279.538583 
L 444.123426 271.892732 
L 444.883366 271.892732 
L 445.643307 283.361508 
L 446.403247 291.007359 
L 447.163188 287.184434 
L 447.923128 306.299061 
L 448.683069 291.007359 
L 449.443009 298.65321 
L 450.202949 291.007359 
L 450.96289 275.715658 
L 451.72283 291.007359 
L 452.482771 294.830285 
L 453.242711 294.830285 
L 454.002652 298.65321 
L 454.762592 310.121987 
L 455.522532 298.65321 
L 457.042413 306.299061 
L 459.322234 306.299061 
L 460.082175 298.65321 
L 460.842115 294.830285 
L 461.602056 302.476136 
L 463.881877 302.476136 
L 464.641817 291.007359 
L 465.401758 287.184434 
L 466.161698 298.65321 
L 466.921639 283.361508 
L 467.681579 271.892732 
L 469.20146 287.184434 
L 469.9614 268.069807 
L 470.721341 291.007359 
L 471.481281 298.65321 
L 472.241222 279.538583 
L 473.001162 283.361508 
L 473.761103 279.538583 
L 474.521043 287.184434 
L 475.280983 310.121987 
L 476.040924 294.830285 
L 476.800864 291.007359 
L 477.560805 298.65321 
L 479.080685 291.007359 
L 479.840626 313.944912 
L 480.600566 348.351241 
L 481.360507 283.361508 
L 482.120447 271.892732 
L 482.880388 275.715658 
L 483.640328 310.121987 
L 484.400268 252.778105 
L 485.160209 241.309328 
L 485.920149 233.663477 
L 486.68009 233.663477 
L 488.199971 210.725925 
L 488.959911 191.611297 
L 489.719851 176.319596 
L 490.479792 203.080074 
L 491.239732 195.434223 
L 491.999673 203.080074 
L 492.759613 222.194701 
L 493.519554 210.725925 
L 494.279494 206.902999 
L 495.039434 214.54885 
L 495.799375 203.080074 
L 496.559315 214.54885 
L 498.079196 222.194701 
L 498.839136 237.486403 
L 499.599077 264.246881 
L 500.359017 279.538583 
L 501.118958 279.538583 
L 501.878898 298.65321 
L 502.638839 294.830285 
L 503.398779 294.830285 
L 504.158719 302.476136 
L 504.91866 306.299061 
L 505.6786 325.413688 
L 506.438541 306.299061 
L 507.198481 298.65321 
L 507.958422 275.715658 
L 508.718362 260.423956 
L 509.478302 275.715658 
L 510.238243 268.069807 
L 510.998183 271.892732 
L 511.758124 268.069807 
L 512.518064 287.184434 
L 513.278005 287.184434 
L 514.037945 298.65321 
L 514.797885 287.184434 
L 515.557826 302.476136 
L 516.317766 306.299061 
L 517.077707 302.476136 
L 517.837647 302.476136 
L 518.597588 298.65321 
L 519.357528 268.069807 
L 520.117468 264.246881 
L 520.117468 264.246881 
" style="fill:none;stroke:#ff7f0e;stroke-linecap:square;stroke-width:1.5;"/>
   </g>
   <g id="line2d_18">
    <path clip-path="url(#pb5b4a54a8e)" d="M 113.529583 260.423956 
L 114.289524 218.371776 
L 115.049464 203.080074 
L 115.809405 218.371776 
L 116.569345 229.840552 
L 117.329285 233.663477 
L 118.089226 229.840552 
L 118.849166 241.309328 
L 119.609107 237.486403 
L 120.369047 245.132254 
L 121.128988 241.309328 
L 121.888928 210.725925 
L 122.648868 237.486403 
L 123.408809 245.132254 
L 124.92869 268.069807 
L 125.68863 294.830285 
L 126.448571 271.892732 
L 127.208511 271.892732 
L 129.488332 283.361508 
L 130.248273 283.361508 
L 131.008213 287.184434 
L 131.768154 302.476136 
L 132.528094 310.121987 
L 133.288034 321.590763 
L 134.047975 317.767838 
L 134.807915 306.299061 
L 135.567856 306.299061 
L 136.327796 321.590763 
L 137.087736 333.059539 
L 137.847677 317.767838 
L 138.607617 325.413688 
L 139.367558 313.944912 
L 140.127498 294.830285 
L 140.887439 283.361508 
L 142.407319 275.715658 
L 143.16726 279.538583 
L 144.687141 294.830285 
L 146.207022 287.184434 
L 146.966962 287.184434 
L 147.726902 275.715658 
L 148.486843 283.361508 
L 149.246783 287.184434 
L 150.006724 283.361508 
L 150.766664 291.007359 
L 151.526605 287.184434 
L 152.286545 268.069807 
L 153.046485 283.361508 
L 153.806426 287.184434 
L 155.326307 287.184434 
L 156.086247 283.361508 
L 156.846188 275.715658 
L 157.606128 264.246881 
L 158.366068 268.069807 
L 159.126009 268.069807 
L 159.885949 283.361508 
L 160.64589 283.361508 
L 161.40583 279.538583 
L 162.16577 283.361508 
L 162.925711 268.069807 
L 163.685651 256.60103 
L 164.445592 260.423956 
L 165.205532 268.069807 
L 165.965473 279.538583 
L 166.725413 275.715658 
L 167.485353 283.361508 
L 168.245294 294.830285 
L 169.005234 310.121987 
L 169.765175 283.361508 
L 170.525115 291.007359 
L 171.285056 279.538583 
L 172.044996 283.361508 
L 173.564877 283.361508 
L 174.324817 279.538583 
L 175.084758 294.830285 
L 176.604639 287.184434 
L 177.364579 275.715658 
L 178.124519 287.184434 
L 178.88446 310.121987 
L 179.6444 340.70539 
L 180.404341 329.236614 
L 181.164281 325.413688 
L 181.924221 329.236614 
L 182.684162 321.590763 
L 183.444102 325.413688 
L 184.204043 313.944912 
L 184.963983 306.299061 
L 185.723924 294.830285 
L 186.483864 302.476136 
L 187.243804 306.299061 
L 188.003745 291.007359 
L 188.763685 302.476136 
L 190.283566 310.121987 
L 191.043507 306.299061 
L 191.803447 294.830285 
L 192.563387 287.184434 
L 193.323328 248.955179 
L 194.083268 252.778105 
L 194.843209 271.892732 
L 196.36309 271.892732 
L 197.12303 294.830285 
L 197.88297 287.184434 
L 198.642911 294.830285 
L 199.402851 291.007359 
L 200.162792 298.65321 
L 200.922732 287.184434 
L 201.682672 294.830285 
L 202.442613 287.184434 
L 203.202553 287.184434 
L 203.962494 298.65321 
L 204.722434 317.767838 
L 205.482375 321.590763 
L 206.242315 321.590763 
L 207.762196 291.007359 
L 208.522136 298.65321 
L 209.282077 283.361508 
L 210.042017 302.476136 
L 210.801958 294.830285 
L 211.561898 283.361508 
L 212.321838 291.007359 
L 213.081779 275.715658 
L 213.841719 279.538583 
L 214.60166 287.184434 
L 215.3616 321.590763 
L 216.121541 287.184434 
L 216.881481 283.361508 
L 217.641421 298.65321 
L 219.161302 291.007359 
L 219.921243 275.715658 
L 220.681183 271.892732 
L 221.441123 252.778105 
L 222.201064 248.955179 
L 222.961004 248.955179 
L 223.720945 252.778105 
L 224.480885 264.246881 
L 225.240826 256.60103 
L 226.000766 264.246881 
L 226.760706 275.715658 
L 227.520647 256.60103 
L 228.280587 260.423956 
L 229.040528 287.184434 
L 229.800468 294.830285 
L 230.560409 279.538583 
L 231.320349 271.892732 
L 232.080289 279.538583 
L 232.84023 275.715658 
L 233.60017 279.538583 
L 234.360111 268.069807 
L 235.120051 271.892732 
L 235.879992 264.246881 
L 236.639932 271.892732 
L 237.399872 283.361508 
L 238.159813 291.007359 
L 238.919753 279.538583 
L 239.679694 287.184434 
L 240.439634 287.184434 
L 241.199575 279.538583 
L 241.959515 264.246881 
L 243.479396 287.184434 
L 244.239336 275.715658 
L 244.999277 283.361508 
L 245.759217 279.538583 
L 246.519157 279.538583 
L 247.279098 283.361508 
L 248.039038 275.715658 
L 248.798979 279.538583 
L 249.558919 294.830285 
L 250.31886 291.007359 
L 251.0788 302.476136 
L 252.598681 287.184434 
L 253.358621 287.184434 
L 254.118562 268.069807 
L 256.398383 279.538583 
L 257.918264 294.830285 
L 258.678204 306.299061 
L 259.438145 294.830285 
L 260.198085 302.476136 
L 260.958026 306.299061 
L 261.717966 279.538583 
L 262.477906 294.830285 
L 263.237847 283.361508 
L 263.997787 279.538583 
L 264.757728 298.65321 
L 265.517668 302.476136 
L 266.277608 310.121987 
L 267.037549 321.590763 
L 267.797489 302.476136 
L 268.55743 306.299061 
L 269.31737 291.007359 
L 270.077311 294.830285 
L 270.837251 283.361508 
L 271.597191 275.715658 
L 272.357132 287.184434 
L 273.117072 291.007359 
L 273.877013 287.184434 
L 274.636953 294.830285 
L 275.396894 279.538583 
L 276.156834 298.65321 
L 276.916774 298.65321 
L 277.676715 287.184434 
L 278.436655 260.423956 
L 279.196596 248.955179 
L 279.956536 287.184434 
L 280.716477 291.007359 
L 281.476417 317.767838 
L 282.236357 298.65321 
L 282.996298 294.830285 
L 283.756238 306.299061 
L 284.516179 298.65321 
L 285.276119 298.65321 
L 286.036059 325.413688 
L 286.796 325.413688 
L 287.55594 329.236614 
L 288.315881 336.882465 
L 289.075821 333.059539 
L 289.835762 313.944912 
L 290.595702 287.184434 
L 291.355642 287.184434 
L 292.115583 294.830285 
L 292.875523 306.299061 
L 293.635464 302.476136 
L 294.395404 287.184434 
L 295.155345 291.007359 
L 295.915285 291.007359 
L 296.675225 294.830285 
L 297.435166 317.767838 
L 298.195106 310.121987 
L 298.955047 287.184434 
L 299.714987 291.007359 
L 300.474928 302.476136 
L 301.234868 294.830285 
L 301.994808 294.830285 
L 302.754749 302.476136 
L 303.514689 283.361508 
L 304.27463 294.830285 
L 305.79451 302.476136 
L 306.554451 279.538583 
L 307.314391 275.715658 
L 308.074332 287.184434 
L 309.594213 294.830285 
L 310.354153 279.538583 
L 311.114093 291.007359 
L 311.874034 291.007359 
L 312.633974 287.184434 
L 313.393915 271.892732 
L 314.153855 287.184434 
L 315.673736 287.184434 
L 316.433676 294.830285 
L 317.193617 283.361508 
L 317.953557 291.007359 
L 318.713498 287.184434 
L 319.473438 275.715658 
L 320.233379 268.069807 
L 320.993319 275.715658 
L 321.753259 264.246881 
L 322.5132 268.069807 
L 323.27314 226.017627 
L 324.033081 176.319596 
L 324.793021 187.788372 
L 325.552962 203.080074 
L 326.312902 210.725925 
L 327.072842 206.902999 
L 328.592723 138.090341 
L 330.112604 153.382043 
L 330.872544 203.080074 
L 331.632485 237.486403 
L 332.392425 245.132254 
L 333.152366 260.423956 
L 333.912306 291.007359 
L 334.672247 294.830285 
L 335.432187 294.830285 
L 336.192127 298.65321 
L 336.952068 298.65321 
L 337.712008 291.007359 
L 338.471949 291.007359 
L 339.231889 287.184434 
L 339.99183 271.892732 
L 341.51171 279.538583 
L 342.271651 291.007359 
L 343.031591 287.184434 
L 343.791532 287.184434 
L 344.551472 294.830285 
L 345.311413 283.361508 
L 346.071353 291.007359 
L 346.831293 302.476136 
L 347.591234 325.413688 
L 348.351174 298.65321 
L 349.111115 287.184434 
L 349.871055 287.184434 
L 350.630995 275.715658 
L 351.390936 287.184434 
L 352.150876 275.715658 
L 353.670757 291.007359 
L 354.430698 283.361508 
L 355.190638 287.184434 
L 355.950578 283.361508 
L 356.710519 268.069807 
L 357.470459 283.361508 
L 358.2304 294.830285 
L 358.99034 294.830285 
L 359.750281 329.236614 
L 360.510221 302.476136 
L 361.270161 313.944912 
L 362.030102 310.121987 
L 362.790042 298.65321 
L 363.549983 298.65321 
L 364.309923 291.007359 
L 365.829804 306.299061 
L 366.589744 287.184434 
L 367.349685 294.830285 
L 368.109625 321.590763 
L 368.869566 325.413688 
L 369.629506 306.299061 
L 370.389446 306.299061 
L 371.149387 302.476136 
L 371.909327 294.830285 
L 372.669268 313.944912 
L 373.429208 329.236614 
L 374.189149 325.413688 
L 374.949089 317.767838 
L 375.709029 306.299061 
L 376.46897 291.007359 
L 377.22891 291.007359 
L 377.988851 275.715658 
L 378.748791 287.184434 
L 379.508732 302.476136 
L 380.268672 336.882465 
L 381.028612 291.007359 
L 381.788553 317.767838 
L 382.548493 294.830285 
L 384.068374 279.538583 
L 384.828315 264.246881 
L 385.588255 283.361508 
L 386.348195 294.830285 
L 387.108136 294.830285 
L 388.628017 302.476136 
L 389.387957 298.65321 
L 390.147897 291.007359 
L 390.907838 287.184434 
L 391.667778 294.830285 
L 393.187659 294.830285 
L 393.9476 333.059539 
L 394.70754 306.299061 
L 395.46748 298.65321 
L 396.987361 268.069807 
L 397.747302 271.892732 
L 398.507242 283.361508 
L 399.267183 291.007359 
L 400.027123 283.361508 
L 400.787063 294.830285 
L 401.547004 283.361508 
L 402.306944 291.007359 
L 403.066885 313.944912 
L 403.826825 291.007359 
L 404.586766 283.361508 
L 405.346706 271.892732 
L 406.866587 271.892732 
L 407.626527 260.423956 
L 408.386468 245.132254 
L 409.146408 264.246881 
L 409.906349 275.715658 
L 410.666289 279.538583 
L 411.426229 291.007359 
L 412.18617 287.184434 
L 414.465991 298.65321 
L 415.985872 291.007359 
L 416.745812 291.007359 
L 417.505753 287.184434 
L 419.025634 271.892732 
L 419.785574 279.538583 
L 422.065395 291.007359 
L 423.585276 283.361508 
L 424.345217 313.944912 
L 425.105157 321.590763 
L 425.865097 306.299061 
L 426.625038 298.65321 
L 427.384978 306.299061 
L 428.144919 298.65321 
L 428.904859 306.299061 
L 429.6648 302.476136 
L 430.42474 294.830285 
L 431.18468 310.121987 
L 431.944621 287.184434 
L 432.704561 275.715658 
L 434.224442 268.069807 
L 434.984382 245.132254 
L 435.744323 214.54885 
L 436.504263 172.49667 
L 437.264204 191.611297 
L 438.024144 233.663477 
L 439.544025 248.955179 
L 440.303965 271.892732 
L 441.063906 268.069807 
L 441.823846 256.60103 
L 442.583787 264.246881 
L 443.343727 283.361508 
L 444.103668 321.590763 
L 444.863608 321.590763 
L 445.623548 317.767838 
L 446.383489 321.590763 
L 447.143429 310.121987 
L 447.90337 287.184434 
L 448.66331 271.892732 
L 449.423251 283.361508 
L 450.183191 291.007359 
L 450.943131 279.538583 
L 451.703072 275.715658 
L 452.463012 260.423956 
L 453.222953 271.892732 
L 453.982893 279.538583 
L 454.742833 279.538583 
L 455.502774 283.361508 
L 456.262714 275.715658 
L 457.022655 310.121987 
L 457.782595 313.944912 
L 458.542536 294.830285 
L 459.302476 310.121987 
L 460.062416 313.944912 
L 460.822357 310.121987 
L 461.582297 298.65321 
L 462.342238 310.121987 
L 463.102178 306.299061 
L 464.622059 283.361508 
L 465.381999 275.715658 
L 466.14194 283.361508 
L 466.90188 279.538583 
L 467.661821 271.892732 
L 468.421761 268.069807 
L 469.181702 306.299061 
L 469.941642 271.892732 
L 470.701582 275.715658 
L 472.221463 291.007359 
L 472.981404 287.184434 
L 473.741344 298.65321 
L 474.501284 275.715658 
L 475.261225 256.60103 
L 476.021165 260.423956 
L 476.781106 283.361508 
L 477.541046 271.892732 
L 478.300987 287.184434 
L 479.060927 275.715658 
L 479.820867 260.423956 
L 480.580808 229.840552 
L 481.340748 226.017627 
L 482.100689 237.486403 
L 482.860629 256.60103 
L 483.62057 252.778105 
L 484.38051 279.538583 
L 485.14045 279.538583 
L 485.900391 268.069807 
L 486.660331 260.423956 
L 487.420272 256.60103 
L 488.180212 268.069807 
L 488.940153 275.715658 
L 489.700093 317.767838 
L 490.460033 283.361508 
L 491.219974 279.538583 
L 491.979914 260.423956 
L 492.739855 252.778105 
L 493.499795 271.892732 
L 494.259736 279.538583 
L 495.019676 275.715658 
L 495.779616 294.830285 
L 496.539557 302.476136 
L 497.299497 306.299061 
L 498.059438 306.299061 
L 498.819378 302.476136 
L 499.579318 317.767838 
L 501.099199 317.767838 
L 501.85914 333.059539 
L 502.61908 340.70539 
L 503.379021 317.767838 
L 504.138961 302.476136 
L 504.898901 306.299061 
L 505.658842 302.476136 
L 506.418782 302.476136 
L 507.178723 310.121987 
L 507.938663 298.65321 
L 508.698604 306.299061 
L 509.458544 298.65321 
L 512.498306 313.944912 
L 513.258246 291.007359 
L 514.018187 283.361508 
L 514.778127 298.65321 
L 515.538067 291.007359 
L 517.057948 291.007359 
L 517.817889 287.184434 
L 518.577829 287.184434 
L 519.337769 268.069807 
L 520.09771 275.715658 
L 520.85765 279.538583 
L 522.377531 279.538583 
L 523.137472 291.007359 
L 523.137472 291.007359 
" style="fill:none;stroke:#2ca02c;stroke-linecap:square;stroke-width:1.5;"/>
   </g>
   <g id="line2d_19">
    <path clip-path="url(#pb5b4a54a8e)" d="M 104.408778 73.100608 
L 105.168719 50.163056 
L 106.6886 50.163056 
L 107.44854 149.559117 
L 108.208481 191.611297 
L 108.968421 183.965447 
L 109.728361 187.788372 
L 110.488302 248.955179 
L 111.248242 271.892732 
L 112.008183 279.538583 
L 112.768123 283.361508 
L 113.528063 306.299061 
L 114.288004 321.590763 
L 115.047944 325.413688 
L 115.807885 325.413688 
L 116.567825 329.236614 
L 117.327766 317.767838 
L 118.087706 317.767838 
L 118.847646 298.65321 
L 119.607587 333.059539 
L 120.367527 313.944912 
L 121.127468 291.007359 
L 121.887408 287.184434 
L 122.647349 291.007359 
L 124.167229 283.361508 
L 124.92717 271.892732 
L 125.68711 256.60103 
L 126.447051 256.60103 
L 127.966932 271.892732 
L 128.726872 283.361508 
L 129.486812 268.069807 
L 130.246753 256.60103 
L 131.766634 248.955179 
L 132.526574 233.663477 
L 133.286514 222.194701 
L 134.046455 218.371776 
L 134.806395 199.257148 
L 135.566336 168.673745 
L 136.326276 176.319596 
L 137.086217 187.788372 
L 137.846157 191.611297 
L 138.606097 180.142521 
L 139.366038 176.319596 
L 140.125978 191.611297 
L 141.645859 245.132254 
L 142.4058 260.423956 
L 143.16574 260.423956 
L 143.92568 264.246881 
L 144.685621 256.60103 
L 146.205502 256.60103 
L 146.965442 241.309328 
L 147.725383 241.309328 
L 148.485323 245.132254 
L 149.245263 241.309328 
L 150.005204 256.60103 
L 150.765144 252.778105 
L 151.525085 264.246881 
L 152.285025 268.069807 
L 153.044966 268.069807 
L 153.804906 256.60103 
L 154.564846 256.60103 
L 155.324787 264.246881 
L 156.844668 256.60103 
L 157.604608 268.069807 
L 158.364548 264.246881 
L 159.124489 268.069807 
L 159.884429 252.778105 
L 160.64437 275.715658 
L 161.40431 268.069807 
L 162.164251 264.246881 
L 162.924191 275.715658 
L 163.684131 294.830285 
L 165.204012 264.246881 
L 165.963953 245.132254 
L 166.723893 260.423956 
L 167.483834 279.538583 
L 168.243774 279.538583 
L 169.003714 275.715658 
L 169.763655 294.830285 
L 170.523595 291.007359 
L 171.283536 271.892732 
L 172.043476 275.715658 
L 173.563357 275.715658 
L 174.323297 291.007359 
L 175.843178 260.423956 
L 176.603119 256.60103 
L 177.363059 283.361508 
L 178.122999 298.65321 
L 178.88294 218.371776 
L 179.64288 203.080074 
L 180.402821 206.902999 
L 181.162761 180.142521 
L 181.922702 176.319596 
L 182.682642 199.257148 
L 183.442582 214.54885 
L 184.202523 218.371776 
L 184.962463 229.840552 
L 185.722404 229.840552 
L 186.482344 218.371776 
L 188.002225 210.725925 
L 188.762165 218.371776 
L 189.522106 191.611297 
L 190.282046 203.080074 
L 191.041987 206.902999 
L 191.801927 222.194701 
L 192.561868 241.309328 
L 193.321808 275.715658 
L 194.081748 298.65321 
L 194.841689 291.007359 
L 195.601629 302.476136 
L 196.36157 302.476136 
L 197.12151 287.184434 
L 197.88145 283.361508 
L 198.641391 275.715658 
L 199.401331 279.538583 
L 200.161272 256.60103 
L 200.921212 271.892732 
L 201.681153 264.246881 
L 202.441093 271.892732 
L 203.201033 271.892732 
L 203.960974 260.423956 
L 204.720914 245.132254 
L 206.240795 237.486403 
L 207.000736 237.486403 
L 207.760676 256.60103 
L 208.520616 264.246881 
L 209.280557 268.069807 
L 210.040497 268.069807 
L 210.800438 271.892732 
L 212.320319 294.830285 
L 213.080259 291.007359 
L 213.840199 271.892732 
L 214.60014 264.246881 
L 215.36008 268.069807 
L 216.120021 291.007359 
L 216.879961 287.184434 
L 217.639901 294.830285 
L 219.159782 294.830285 
L 219.919723 283.361508 
L 220.679663 275.715658 
L 221.439604 283.361508 
L 222.199544 271.892732 
L 222.959484 264.246881 
L 223.719425 264.246881 
L 224.479365 275.715658 
L 225.239306 275.715658 
L 225.999246 283.361508 
L 226.759187 283.361508 
L 227.519127 271.892732 
L 228.279067 283.361508 
L 229.039008 264.246881 
L 229.798948 268.069807 
L 231.318829 245.132254 
L 232.07877 264.246881 
L 232.83871 271.892732 
L 233.59865 268.069807 
L 234.358591 279.538583 
L 235.118531 279.538583 
L 235.878472 287.184434 
L 236.638412 271.892732 
L 238.158293 279.538583 
L 238.918233 287.184434 
L 239.678174 275.715658 
L 240.438114 279.538583 
L 241.198055 271.892732 
L 241.957995 279.538583 
L 242.717935 283.361508 
L 244.237816 275.715658 
L 244.997757 279.538583 
L 245.757697 291.007359 
L 246.517638 260.423956 
L 247.277578 275.715658 
L 248.037518 283.361508 
L 248.797459 294.830285 
L 249.557399 279.538583 
L 250.31734 271.892732 
L 251.07728 256.60103 
L 251.837221 268.069807 
L 252.597161 264.246881 
L 253.357101 271.892732 
L 254.117042 287.184434 
L 254.876982 275.715658 
L 255.636923 268.069807 
L 256.396863 279.538583 
L 257.156804 264.246881 
L 257.916744 264.246881 
L 258.676684 275.715658 
L 259.436625 291.007359 
L 260.196565 271.892732 
L 260.956506 275.715658 
L 261.716446 271.892732 
L 262.476386 256.60103 
L 263.236327 245.132254 
L 263.996267 260.423956 
L 264.756208 256.60103 
L 266.276089 271.892732 
L 267.036029 291.007359 
L 267.795969 298.65321 
L 268.55591 279.538583 
L 269.31585 287.184434 
L 270.075791 283.361508 
L 270.835731 283.361508 
L 271.595672 287.184434 
L 272.355612 275.715658 
L 273.115552 283.361508 
L 274.635433 245.132254 
L 275.395374 252.778105 
L 276.155314 237.486403 
L 276.915255 241.309328 
L 279.195076 241.309328 
L 279.955016 245.132254 
L 280.714957 226.017627 
L 281.474897 199.257148 
L 282.234837 191.611297 
L 283.754718 214.54885 
L 284.514659 218.371776 
L 286.03454 153.382043 
L 286.79448 187.788372 
L 287.55442 199.257148 
L 288.314361 203.080074 
L 289.074301 214.54885 
L 289.834242 218.371776 
L 290.594182 233.663477 
L 291.354123 229.840552 
L 292.114063 233.663477 
L 293.633944 256.60103 
L 294.393884 271.892732 
L 295.153825 260.423956 
L 295.913765 279.538583 
L 296.673706 268.069807 
L 297.433646 268.069807 
L 298.193586 271.892732 
L 298.953527 306.299061 
L 299.713467 313.944912 
L 300.473408 302.476136 
L 301.233348 298.65321 
L 302.753229 306.299061 
L 303.513169 306.299061 
L 305.792991 294.830285 
L 306.552931 283.361508 
L 307.312871 275.715658 
L 308.072812 264.246881 
L 308.832752 279.538583 
L 309.592693 264.246881 
L 310.352633 241.309328 
L 311.112574 210.725925 
L 311.872514 245.132254 
L 312.632454 264.246881 
L 313.392395 275.715658 
L 314.152335 268.069807 
L 314.912276 271.892732 
L 315.672216 268.069807 
L 317.192097 268.069807 
L 318.711978 283.361508 
L 319.471918 271.892732 
L 320.231859 275.715658 
L 320.991799 268.069807 
L 321.75174 283.361508 
L 322.51168 275.715658 
L 323.27162 275.715658 
L 324.031561 302.476136 
L 324.791501 298.65321 
L 325.551442 302.476136 
L 326.311382 294.830285 
L 327.071322 310.121987 
L 327.831263 321.590763 
L 328.591203 325.413688 
L 330.111084 325.413688 
L 330.871025 317.767838 
L 332.390905 317.767838 
L 333.150846 325.413688 
L 333.910786 306.299061 
L 334.670727 313.944912 
L 335.430667 302.476136 
L 336.950548 264.246881 
L 337.710488 268.069807 
L 338.470429 264.246881 
L 339.230369 264.246881 
L 339.99031 245.132254 
L 340.75025 252.778105 
L 341.510191 271.892732 
L 342.270131 264.246881 
L 343.790012 279.538583 
L 344.549952 271.892732 
L 345.309893 275.715658 
L 346.069833 275.715658 
L 346.829773 279.538583 
L 347.589714 256.60103 
L 348.349654 268.069807 
L 349.109595 283.361508 
L 349.869535 271.892732 
L 350.629476 283.361508 
L 351.389416 268.069807 
L 352.149356 271.892732 
L 352.909297 245.132254 
L 353.669237 264.246881 
L 354.429178 287.184434 
L 355.189118 264.246881 
L 355.949059 252.778105 
L 356.708999 264.246881 
L 357.468939 260.423956 
L 358.98882 206.902999 
L 359.748761 191.611297 
L 360.508701 187.788372 
L 361.268642 206.902999 
L 362.028582 210.725925 
L 362.788522 226.017627 
L 363.548463 218.371776 
L 364.308403 222.194701 
L 365.068344 245.132254 
L 365.828284 256.60103 
L 366.588224 256.60103 
L 367.348165 271.892732 
L 368.108105 264.246881 
L 368.868046 268.069807 
L 369.627986 287.184434 
L 370.387927 268.069807 
L 371.147867 271.892732 
L 371.907807 279.538583 
L 372.667748 271.892732 
L 373.427688 256.60103 
L 374.187629 271.892732 
L 374.947569 260.423956 
L 375.70751 245.132254 
L 376.46745 241.309328 
L 377.22739 252.778105 
L 377.987331 260.423956 
L 378.747271 252.778105 
L 379.507212 206.902999 
L 380.267152 153.382043 
L 381.027093 172.49667 
L 381.787033 187.788372 
L 382.546973 214.54885 
L 383.306914 210.725925 
L 384.826795 256.60103 
L 385.586735 268.069807 
L 386.346675 264.246881 
L 387.866556 279.538583 
L 388.626497 271.892732 
L 389.386437 260.423956 
L 390.146378 264.246881 
L 390.906318 264.246881 
L 391.666258 275.715658 
L 392.426199 283.361508 
L 393.186139 287.184434 
L 393.94608 287.184434 
L 394.70602 306.299061 
L 395.465961 287.184434 
L 396.225901 287.184434 
L 396.985841 298.65321 
L 397.745782 279.538583 
L 398.505722 283.361508 
L 400.025603 268.069807 
L 400.785544 268.069807 
L 401.545484 260.423956 
L 402.305424 260.423956 
L 404.585246 271.892732 
L 405.345186 287.184434 
L 406.105127 291.007359 
L 406.865067 287.184434 
L 407.625007 294.830285 
L 408.384948 317.767838 
L 409.144888 306.299061 
L 409.904829 298.65321 
L 410.664769 287.184434 
L 411.424709 260.423956 
L 412.18465 264.246881 
L 412.94459 252.778105 
L 413.704531 260.423956 
L 414.464471 271.892732 
L 415.984352 248.955179 
L 416.744292 245.132254 
L 418.264173 268.069807 
L 419.024114 283.361508 
L 419.784054 268.069807 
L 420.543995 268.069807 
L 421.303935 283.361508 
L 422.823816 252.778105 
L 423.583756 256.60103 
L 424.343697 245.132254 
L 425.863578 245.132254 
L 426.623518 275.715658 
L 427.383458 268.069807 
L 428.143399 271.892732 
L 428.903339 279.538583 
L 429.66328 279.538583 
L 430.42322 283.361508 
L 431.18316 260.423956 
L 431.943101 268.069807 
L 432.703041 291.007359 
L 433.462982 291.007359 
L 434.222922 287.184434 
L 434.982863 275.715658 
L 435.742803 287.184434 
L 436.502743 302.476136 
L 437.262684 291.007359 
L 438.022624 268.069807 
L 438.782565 294.830285 
L 439.542505 283.361508 
L 440.302446 283.361508 
L 441.062386 313.944912 
L 441.822326 306.299061 
L 442.582267 283.361508 
L 443.342207 291.007359 
L 444.102148 275.715658 
L 444.862088 268.069807 
L 445.622029 271.892732 
L 446.381969 241.309328 
L 447.90185 256.60103 
L 448.66179 275.715658 
L 449.421731 268.069807 
L 450.181671 256.60103 
L 450.941611 264.246881 
L 451.701552 268.069807 
L 452.461492 279.538583 
L 454.741314 268.069807 
L 455.501254 260.423956 
L 456.261194 237.486403 
L 457.021135 203.080074 
L 457.781075 183.965447 
L 458.541016 195.434223 
L 459.300956 187.788372 
L 460.060897 199.257148 
L 460.820837 199.257148 
L 463.100658 245.132254 
L 463.860599 248.955179 
L 464.620539 264.246881 
L 465.38048 264.246881 
L 466.14042 268.069807 
L 466.90036 279.538583 
L 468.420241 271.892732 
L 469.180182 248.955179 
L 469.940122 268.069807 
L 470.700062 275.715658 
L 471.460003 260.423956 
L 472.219943 279.538583 
L 472.979884 268.069807 
L 473.739824 271.892732 
L 474.499765 279.538583 
L 475.259705 264.246881 
L 476.019645 275.715658 
L 477.539526 283.361508 
L 478.299467 283.361508 
L 479.059407 298.65321 
L 480.579288 275.715658 
L 481.339228 306.299061 
L 482.099169 302.476136 
L 482.859109 271.892732 
L 483.61905 256.60103 
L 484.37899 294.830285 
L 485.138931 313.944912 
L 485.898871 310.121987 
L 486.658811 313.944912 
L 488.178692 329.236614 
L 488.938633 344.528316 
L 489.698573 329.236614 
L 490.458514 317.767838 
L 491.218454 329.236614 
L 491.978394 333.059539 
L 492.738335 317.767838 
L 493.498275 298.65321 
L 494.258216 283.361508 
L 495.018156 271.892732 
L 495.778096 264.246881 
L 496.538037 245.132254 
L 498.057918 245.132254 
L 498.817858 241.309328 
L 499.577799 206.902999 
L 500.337739 210.725925 
L 501.097679 191.611297 
L 502.61756 214.54885 
L 503.377501 245.132254 
L 504.137441 248.955179 
L 504.897382 256.60103 
L 505.657322 248.955179 
L 506.417262 256.60103 
L 507.177203 256.60103 
L 507.937143 264.246881 
L 508.697084 279.538583 
L 509.457024 287.184434 
L 510.216965 283.361508 
L 510.976905 271.892732 
L 511.736845 283.361508 
L 512.496786 275.715658 
L 513.256726 279.538583 
L 514.016667 275.715658 
L 514.016667 275.715658 
" style="fill:none;stroke:#d62728;stroke-linecap:square;stroke-width:1.5;"/>
   </g>
   <g id="patch_3">
    <path d="M 83.472344 352.174167 
L 83.472344 35.0625 
" style="fill:none;stroke:#000000;stroke-linecap:square;stroke-linejoin:miter;stroke-width:0.8;"/>
   </g>
   <g id="patch_4">
    <path d="M 544.073906 352.174167 
L 544.073906 35.0625 
" style="fill:none;stroke:#000000;stroke-linecap:square;stroke-linejoin:miter;stroke-width:0.8;"/>
   </g>
   <g id="patch_5">
    <path d="M 83.472344 352.174167 
L 544.073906 352.174167 
" style="fill:none;stroke:#000000;stroke-linecap:square;stroke-linejoin:miter;stroke-width:0.8;"/>
   </g>
   <g id="patch_6">
    <path d="M 83.472344 35.0625 
L 544.073906 35.0625 
" style="fill:none;stroke:#000000;stroke-linecap:square;stroke-linejoin:miter;stroke-width:0.8;"/>
   </g>
   <g id="legend_1">
    <g id="patch_7">
     <path d="M 569.103984 96.775 
L 630.636797 96.775 
Q 632.636797 96.775 632.636797 94.775 
L 632.636797 37.0625 
Q 632.636797 35.0625 630.636797 35.0625 
L 569.103984 35.0625 
Q 567.103984 35.0625 567.103984 37.0625 
L 567.103984 94.775 
Q 567.103984 96.775 569.103984 96.775 
z
" style="fill:#ffffff;opacity:0.8;stroke:#cccccc;stroke-linejoin:miter;"/>
    </g>
    <g id="line2d_20">
     <path d="M 571.103984 43.160937 
L 591.103984 43.160937 
" style="fill:none;stroke:#1f77b4;stroke-linecap:square;stroke-width:1.5;"/>
    </g>
    <g id="line2d_21"/>
    <g id="text_17">
     <!-- bbr-pi -->
     <defs>
      <path d="M 4.890625 31.390625 
L 31.203125 31.390625 
L 31.203125 23.390625 
L 4.890625 23.390625 
z
" id="DejaVuSans-45"/>
     </defs>
     <g transform="translate(599.103984 46.660937)scale(0.1 -0.1)">
      <use xlink:href="#DejaVuSans-98"/>
      <use x="63.476562" xlink:href="#DejaVuSans-98"/>
      <use x="126.953125" xlink:href="#DejaVuSans-114"/>
      <use x="167.972656" xlink:href="#DejaVuSans-45"/>
      <use x="204.056641" xlink:href="#DejaVuSans-112"/>
      <use x="267.533203" xlink:href="#DejaVuSans-105"/>
     </g>
    </g>
    <g id="line2d_22">
     <path d="M 571.103984 57.839063 
L 591.103984 57.839063 
" style="fill:none;stroke:#ff7f0e;stroke-linecap:square;stroke-width:1.5;"/>
    </g>
    <g id="line2d_23"/>
    <g id="text_18">
     <!-- bbr-pi -->
     <g transform="translate(599.103984 61.339063)scale(0.1 -0.1)">
      <use xlink:href="#DejaVuSans-98"/>
      <use x="63.476562" xlink:href="#DejaVuSans-98"/>
      <use x="126.953125" xlink:href="#DejaVuSans-114"/>
      <use x="167.972656" xlink:href="#DejaVuSans-45"/>
      <use x="204.056641" xlink:href="#DejaVuSans-112"/>
      <use x="267.533203" xlink:href="#DejaVuSans-105"/>
     </g>
    </g>
    <g id="line2d_24">
     <path d="M 571.103984 72.517187 
L 591.103984 72.517187 
" style="fill:none;stroke:#2ca02c;stroke-linecap:square;stroke-width:1.5;"/>
    </g>
    <g id="line2d_25"/>
    <g id="text_19">
     <!-- bbr-pi -->
     <g transform="translate(599.103984 76.017187)scale(0.1 -0.1)">
      <use xlink:href="#DejaVuSans-98"/>
      <use x="63.476562" xlink:href="#DejaVuSans-98"/>
      <use x="126.953125" xlink:href="#DejaVuSans-114"/>
      <use x="167.972656" xlink:href="#DejaVuSans-45"/>
      <use x="204.056641" xlink:href="#DejaVuSans-112"/>
      <use x="267.533203" xlink:href="#DejaVuSans-105"/>
     </g>
    </g>
    <g id="line2d_26">
     <path d="M 571.103984 87.195312 
L 591.103984 87.195312 
" style="fill:none;stroke:#d62728;stroke-linecap:square;stroke-width:1.5;"/>
    </g>
    <g id="line2d_27"/>
    <g id="text_20">
     <!-- bbr-pi -->
     <g transform="translate(599.103984 90.695312)scale(0.1 -0.1)">
      <use xlink:href="#DejaVuSans-98"/>
      <use x="63.476562" xlink:href="#DejaVuSans-98"/>
      <use x="126.953125" xlink:href="#DejaVuSans-114"/>
      <use x="167.972656" xlink:href="#DejaVuSans-45"/>
      <use x="204.056641" xlink:href="#DejaVuSans-112"/>
      <use x="267.533203" xlink:href="#DejaVuSans-105"/>
     </g>
    </g>
   </g>
  </g>
  <g id="text_21">
   <!-- result throughput -->
   <defs>
    <path d="M 9.421875 75.984375 
L 18.40625 75.984375 
L 18.40625 0 
L 9.421875 0 
z
" id="DejaVuSans-108"/>
   </defs>
   <g transform="translate(289.320938 17.038125)scale(0.12 -0.12)">
    <use xlink:href="#DejaVuSans-114"/>
    <use x="41.082031" xlink:href="#DejaVuSans-101"/>
    <use x="102.605469" xlink:href="#DejaVuSans-115"/>
    <use x="154.705078" xlink:href="#DejaVuSans-117"/>
    <use x="218.083984" xlink:href="#DejaVuSans-108"/>
    <use x="245.867188" xlink:href="#DejaVuSans-116"/>
    <use x="285.076172" xlink:href="#DejaVuSans-32"/>
    <use x="316.863281" xlink:href="#DejaVuSans-116"/>
    <use x="356.072266" xlink:href="#DejaVuSans-104"/>
    <use x="419.451172" xlink:href="#DejaVuSans-114"/>
    <use x="460.533203" xlink:href="#DejaVuSans-111"/>
    <use x="521.714844" xlink:href="#DejaVuSans-117"/>
    <use x="585.09375" xlink:href="#DejaVuSans-103"/>
    <use x="648.570312" xlink:href="#DejaVuSans-104"/>
    <use x="711.949219" xlink:href="#DejaVuSans-112"/>
    <use x="775.425781" xlink:href="#DejaVuSans-117"/>
    <use x="838.804688" xlink:href="#DejaVuSans-116"/>
   </g>
  </g>
 </g>
 <defs>
  <clipPath id="pb5b4a54a8e">
   <rect height="317.111667" width="460.601562" x="83.472344" y="35.0625"/>
  </clipPath>
 </defs>
</svg>
