<?xml version="1.0" encoding="utf-8" standalone="no"?>
<!DOCTYPE svg PUBLIC "-//W3C//DTD SVG 1.1//EN"
  "http://www.w3.org/Graphics/SVG/1.1/DTD/svg11.dtd">
<!-- Created with matplotlib (https://matplotlib.org/) -->
<svg height="396pt" version="1.1" viewBox="0 0 684 396" width="684pt" xmlns="http://www.w3.org/2000/svg" xmlns:xlink="http://www.w3.org/1999/xlink">
 <defs>
  <style type="text/css">
*{stroke-linecap:butt;stroke-linejoin:round;}
  </style>
 </defs>
 <g id="figure_1">
  <g id="patch_1">
   <path d="M 0 396 
L 684 396 
L 684 0 
L 0 0 
z
" style="fill:#ffffff;"/>
  </g>
  <g id="axes_1">
   <g id="patch_2">
    <path d="M 83.472344 352.174167 
L 529.912969 352.174167 
L 529.912969 35.0625 
L 83.472344 35.0625 
z
" style="fill:#ffffff;"/>
   </g>
   <g id="matplotlib.axis_1">
    <g id="xtick_1">
     <g id="line2d_1">
      <defs>
       <path d="M 0 0 
L 0 3.5 
" id="m7961253374" style="stroke:#000000;stroke-width:0.8;"/>
      </defs>
      <g>
       <use style="stroke:#000000;stroke-width:0.8;" x="103.765099" xlink:href="#m7961253374" y="352.174167"/>
      </g>
     </g>
     <g id="text_1">
      <!-- 0 -->
      <defs>
       <path d="M 31.78125 66.40625 
Q 24.171875 66.40625 20.328125 58.90625 
Q 16.5 51.421875 16.5 36.375 
Q 16.5 21.390625 20.328125 13.890625 
Q 24.171875 6.390625 31.78125 6.390625 
Q 39.453125 6.390625 43.28125 13.890625 
Q 47.125 21.390625 47.125 36.375 
Q 47.125 51.421875 43.28125 58.90625 
Q 39.453125 66.40625 31.78125 66.40625 
z
M 31.78125 74.21875 
Q 44.046875 74.21875 50.515625 64.515625 
Q 56.984375 54.828125 56.984375 36.375 
Q 56.984375 17.96875 50.515625 8.265625 
Q 44.046875 -1.421875 31.78125 -1.421875 
Q 19.53125 -1.421875 13.0625 8.265625 
Q 6.59375 17.96875 6.59375 36.375 
Q 6.59375 54.828125 13.0625 64.515625 
Q 19.53125 74.21875 31.78125 74.21875 
z
" id="DejaVuSans-48"/>
      </defs>
      <g transform="translate(100.583849 366.772604)scale(0.1 -0.1)">
       <use xlink:href="#DejaVuSans-48"/>
      </g>
     </g>
    </g>
    <g id="xtick_2">
     <g id="line2d_2">
      <g>
       <use style="stroke:#000000;stroke-width:0.8;" x="177.427025" xlink:href="#m7961253374" y="352.174167"/>
      </g>
     </g>
     <g id="text_2">
      <!-- 50 -->
      <defs>
       <path d="M 10.796875 72.90625 
L 49.515625 72.90625 
L 49.515625 64.59375 
L 19.828125 64.59375 
L 19.828125 46.734375 
Q 21.96875 47.46875 24.109375 47.828125 
Q 26.265625 48.1875 28.421875 48.1875 
Q 40.625 48.1875 47.75 41.5 
Q 54.890625 34.8125 54.890625 23.390625 
Q 54.890625 11.625 47.5625 5.09375 
Q 40.234375 -1.421875 26.90625 -1.421875 
Q 22.3125 -1.421875 17.546875 -0.640625 
Q 12.796875 0.140625 7.71875 1.703125 
L 7.71875 11.625 
Q 12.109375 9.234375 16.796875 8.0625 
Q 21.484375 6.890625 26.703125 6.890625 
Q 35.15625 6.890625 40.078125 11.328125 
Q 45.015625 15.765625 45.015625 23.390625 
Q 45.015625 31 40.078125 35.4375 
Q 35.15625 39.890625 26.703125 39.890625 
Q 22.75 39.890625 18.8125 39.015625 
Q 14.890625 38.140625 10.796875 36.28125 
z
" id="DejaVuSans-53"/>
      </defs>
      <g transform="translate(171.064525 366.772604)scale(0.1 -0.1)">
       <use xlink:href="#DejaVuSans-53"/>
       <use x="63.623047" xlink:href="#DejaVuSans-48"/>
      </g>
     </g>
    </g>
    <g id="xtick_3">
     <g id="line2d_3">
      <g>
       <use style="stroke:#000000;stroke-width:0.8;" x="251.088951" xlink:href="#m7961253374" y="352.174167"/>
      </g>
     </g>
     <g id="text_3">
      <!-- 100 -->
      <defs>
       <path d="M 12.40625 8.296875 
L 28.515625 8.296875 
L 28.515625 63.921875 
L 10.984375 60.40625 
L 10.984375 69.390625 
L 28.421875 72.90625 
L 38.28125 72.90625 
L 38.28125 8.296875 
L 54.390625 8.296875 
L 54.390625 0 
L 12.40625 0 
z
" id="DejaVuSans-49"/>
      </defs>
      <g transform="translate(241.545201 366.772604)scale(0.1 -0.1)">
       <use xlink:href="#DejaVuSans-49"/>
       <use x="63.623047" xlink:href="#DejaVuSans-48"/>
       <use x="127.246094" xlink:href="#DejaVuSans-48"/>
      </g>
     </g>
    </g>
    <g id="xtick_4">
     <g id="line2d_4">
      <g>
       <use style="stroke:#000000;stroke-width:0.8;" x="324.750877" xlink:href="#m7961253374" y="352.174167"/>
      </g>
     </g>
     <g id="text_4">
      <!-- 150 -->
      <g transform="translate(315.207127 366.772604)scale(0.1 -0.1)">
       <use xlink:href="#DejaVuSans-49"/>
       <use x="63.623047" xlink:href="#DejaVuSans-53"/>
       <use x="127.246094" xlink:href="#DejaVuSans-48"/>
      </g>
     </g>
    </g>
    <g id="xtick_5">
     <g id="line2d_5">
      <g>
       <use style="stroke:#000000;stroke-width:0.8;" x="398.412803" xlink:href="#m7961253374" y="352.174167"/>
      </g>
     </g>
     <g id="text_5">
      <!-- 200 -->
      <defs>
       <path d="M 19.1875 8.296875 
L 53.609375 8.296875 
L 53.609375 0 
L 7.328125 0 
L 7.328125 8.296875 
Q 12.9375 14.109375 22.625 23.890625 
Q 32.328125 33.6875 34.8125 36.53125 
Q 39.546875 41.84375 41.421875 45.53125 
Q 43.3125 49.21875 43.3125 52.78125 
Q 43.3125 58.59375 39.234375 62.25 
Q 35.15625 65.921875 28.609375 65.921875 
Q 23.96875 65.921875 18.8125 64.3125 
Q 13.671875 62.703125 7.8125 59.421875 
L 7.8125 69.390625 
Q 13.765625 71.78125 18.9375 73 
Q 24.125 74.21875 28.421875 74.21875 
Q 39.75 74.21875 46.484375 68.546875 
Q 53.21875 62.890625 53.21875 53.421875 
Q 53.21875 48.921875 51.53125 44.890625 
Q 49.859375 40.875 45.40625 35.40625 
Q 44.1875 33.984375 37.640625 27.21875 
Q 31.109375 20.453125 19.1875 8.296875 
z
" id="DejaVuSans-50"/>
      </defs>
      <g transform="translate(388.869053 366.772604)scale(0.1 -0.1)">
       <use xlink:href="#DejaVuSans-50"/>
       <use x="63.623047" xlink:href="#DejaVuSans-48"/>
       <use x="127.246094" xlink:href="#DejaVuSans-48"/>
      </g>
     </g>
    </g>
    <g id="xtick_6">
     <g id="line2d_6">
      <g>
       <use style="stroke:#000000;stroke-width:0.8;" x="472.074729" xlink:href="#m7961253374" y="352.174167"/>
      </g>
     </g>
     <g id="text_6">
      <!-- 250 -->
      <g transform="translate(462.530979 366.772604)scale(0.1 -0.1)">
       <use xlink:href="#DejaVuSans-50"/>
       <use x="63.623047" xlink:href="#DejaVuSans-53"/>
       <use x="127.246094" xlink:href="#DejaVuSans-48"/>
      </g>
     </g>
    </g>
   </g>
   <g id="matplotlib.axis_2">
    <g id="ytick_1">
     <g id="line2d_7">
      <defs>
       <path d="M 0 0 
L -3.5 0 
" id="m8a09f33aff" style="stroke:#000000;stroke-width:0.8;"/>
      </defs>
      <g>
       <use style="stroke:#000000;stroke-width:0.8;" x="83.472344" xlink:href="#m8a09f33aff" y="352.174167"/>
      </g>
     </g>
     <g id="text_7">
      <!-- 0 -->
      <g transform="translate(70.109844 355.973385)scale(0.1 -0.1)">
       <use xlink:href="#DejaVuSans-48"/>
      </g>
     </g>
    </g>
    <g id="ytick_2">
     <g id="line2d_8">
      <g>
       <use style="stroke:#000000;stroke-width:0.8;" x="83.472344" xlink:href="#m8a09f33aff" y="312.781413"/>
      </g>
     </g>
     <g id="text_8">
      <!-- 5 -->
      <g transform="translate(70.109844 316.580632)scale(0.1 -0.1)">
       <use xlink:href="#DejaVuSans-53"/>
      </g>
     </g>
    </g>
    <g id="ytick_3">
     <g id="line2d_9">
      <g>
       <use style="stroke:#000000;stroke-width:0.8;" x="83.472344" xlink:href="#m8a09f33aff" y="273.388659"/>
      </g>
     </g>
     <g id="text_9">
      <!-- 10 -->
      <g transform="translate(63.747344 277.187878)scale(0.1 -0.1)">
       <use xlink:href="#DejaVuSans-49"/>
       <use x="63.623047" xlink:href="#DejaVuSans-48"/>
      </g>
     </g>
    </g>
    <g id="ytick_4">
     <g id="line2d_10">
      <g>
       <use style="stroke:#000000;stroke-width:0.8;" x="83.472344" xlink:href="#m8a09f33aff" y="233.995906"/>
      </g>
     </g>
     <g id="text_10">
      <!-- 15 -->
      <g transform="translate(63.747344 237.795125)scale(0.1 -0.1)">
       <use xlink:href="#DejaVuSans-49"/>
       <use x="63.623047" xlink:href="#DejaVuSans-53"/>
      </g>
     </g>
    </g>
    <g id="ytick_5">
     <g id="line2d_11">
      <g>
       <use style="stroke:#000000;stroke-width:0.8;" x="83.472344" xlink:href="#m8a09f33aff" y="194.603152"/>
      </g>
     </g>
     <g id="text_11">
      <!-- 20 -->
      <g transform="translate(63.747344 198.402371)scale(0.1 -0.1)">
       <use xlink:href="#DejaVuSans-50"/>
       <use x="63.623047" xlink:href="#DejaVuSans-48"/>
      </g>
     </g>
    </g>
    <g id="ytick_6">
     <g id="line2d_12">
      <g>
       <use style="stroke:#000000;stroke-width:0.8;" x="83.472344" xlink:href="#m8a09f33aff" y="155.210399"/>
      </g>
     </g>
     <g id="text_12">
      <!-- 25 -->
      <g transform="translate(63.747344 159.009617)scale(0.1 -0.1)">
       <use xlink:href="#DejaVuSans-50"/>
       <use x="63.623047" xlink:href="#DejaVuSans-53"/>
      </g>
     </g>
    </g>
    <g id="ytick_7">
     <g id="line2d_13">
      <g>
       <use style="stroke:#000000;stroke-width:0.8;" x="83.472344" xlink:href="#m8a09f33aff" y="115.817645"/>
      </g>
     </g>
     <g id="text_13">
      <!-- 30 -->
      <defs>
       <path d="M 40.578125 39.3125 
Q 47.65625 37.796875 51.625 33 
Q 55.609375 28.21875 55.609375 21.1875 
Q 55.609375 10.40625 48.1875 4.484375 
Q 40.765625 -1.421875 27.09375 -1.421875 
Q 22.515625 -1.421875 17.65625 -0.515625 
Q 12.796875 0.390625 7.625 2.203125 
L 7.625 11.71875 
Q 11.71875 9.328125 16.59375 8.109375 
Q 21.484375 6.890625 26.8125 6.890625 
Q 36.078125 6.890625 40.9375 10.546875 
Q 45.796875 14.203125 45.796875 21.1875 
Q 45.796875 27.640625 41.28125 31.265625 
Q 36.765625 34.90625 28.71875 34.90625 
L 20.21875 34.90625 
L 20.21875 43.015625 
L 29.109375 43.015625 
Q 36.375 43.015625 40.234375 45.921875 
Q 44.09375 48.828125 44.09375 54.296875 
Q 44.09375 59.90625 40.109375 62.90625 
Q 36.140625 65.921875 28.71875 65.921875 
Q 24.65625 65.921875 20.015625 65.03125 
Q 15.375 64.15625 9.8125 62.3125 
L 9.8125 71.09375 
Q 15.4375 72.65625 20.34375 73.4375 
Q 25.25 74.21875 29.59375 74.21875 
Q 40.828125 74.21875 47.359375 69.109375 
Q 53.90625 64.015625 53.90625 55.328125 
Q 53.90625 49.265625 50.4375 45.09375 
Q 46.96875 40.921875 40.578125 39.3125 
z
" id="DejaVuSans-51"/>
      </defs>
      <g transform="translate(63.747344 119.616864)scale(0.1 -0.1)">
       <use xlink:href="#DejaVuSans-51"/>
       <use x="63.623047" xlink:href="#DejaVuSans-48"/>
      </g>
     </g>
    </g>
    <g id="ytick_8">
     <g id="line2d_14">
      <g>
       <use style="stroke:#000000;stroke-width:0.8;" x="83.472344" xlink:href="#m8a09f33aff" y="76.424891"/>
      </g>
     </g>
     <g id="text_14">
      <!-- 35 -->
      <g transform="translate(63.747344 80.22411)scale(0.1 -0.1)">
       <use xlink:href="#DejaVuSans-51"/>
       <use x="63.623047" xlink:href="#DejaVuSans-53"/>
      </g>
     </g>
    </g>
    <g id="ytick_9">
     <g id="line2d_15">
      <g>
       <use style="stroke:#000000;stroke-width:0.8;" x="83.472344" xlink:href="#m8a09f33aff" y="37.032138"/>
      </g>
     </g>
     <g id="text_15">
      <!-- 40 -->
      <defs>
       <path d="M 37.796875 64.3125 
L 12.890625 25.390625 
L 37.796875 25.390625 
z
M 35.203125 72.90625 
L 47.609375 72.90625 
L 47.609375 25.390625 
L 58.015625 25.390625 
L 58.015625 17.1875 
L 47.609375 17.1875 
L 47.609375 0 
L 37.796875 0 
L 37.796875 17.1875 
L 4.890625 17.1875 
L 4.890625 26.703125 
z
" id="DejaVuSans-52"/>
      </defs>
      <g transform="translate(63.747344 40.831356)scale(0.1 -0.1)">
       <use xlink:href="#DejaVuSans-52"/>
       <use x="63.623047" xlink:href="#DejaVuSans-48"/>
      </g>
     </g>
    </g>
    <g id="text_16">
     <!-- rtt -->
     <defs>
      <path d="M 41.109375 46.296875 
Q 39.59375 47.171875 37.8125 47.578125 
Q 36.03125 48 33.890625 48 
Q 26.265625 48 22.1875 43.046875 
Q 18.109375 38.09375 18.109375 28.8125 
L 18.109375 0 
L 9.078125 0 
L 9.078125 54.6875 
L 18.109375 54.6875 
L 18.109375 46.1875 
Q 20.953125 51.171875 25.484375 53.578125 
Q 30.03125 56 36.53125 56 
Q 37.453125 56 38.578125 55.875 
Q 39.703125 55.765625 41.0625 55.515625 
z
" id="DejaVuSans-114"/>
      <path d="M 18.3125 70.21875 
L 18.3125 54.6875 
L 36.8125 54.6875 
L 36.8125 47.703125 
L 18.3125 47.703125 
L 18.3125 18.015625 
Q 18.3125 11.328125 20.140625 9.421875 
Q 21.96875 7.515625 27.59375 7.515625 
L 36.8125 7.515625 
L 36.8125 0 
L 27.59375 0 
Q 17.1875 0 13.234375 3.875 
Q 9.28125 7.765625 9.28125 18.015625 
L 9.28125 47.703125 
L 2.6875 47.703125 
L 2.6875 54.6875 
L 9.28125 54.6875 
L 9.28125 70.21875 
z
" id="DejaVuSans-116"/>
     </defs>
     <g transform="translate(46.469844 199.594115)rotate(-90)scale(0.1 -0.1)">
      <use xlink:href="#DejaVuSans-114"/>
      <use x="41.113281" xlink:href="#DejaVuSans-116"/>
      <use x="80.322266" xlink:href="#DejaVuSans-116"/>
     </g>
     <!-- (ms) -->
     <defs>
      <path d="M 31 75.875 
Q 24.46875 64.65625 21.28125 53.65625 
Q 18.109375 42.671875 18.109375 31.390625 
Q 18.109375 20.125 21.3125 9.0625 
Q 24.515625 -2 31 -13.1875 
L 23.1875 -13.1875 
Q 15.875 -1.703125 12.234375 9.375 
Q 8.59375 20.453125 8.59375 31.390625 
Q 8.59375 42.28125 12.203125 53.3125 
Q 15.828125 64.359375 23.1875 75.875 
z
" id="DejaVuSans-40"/>
      <path d="M 52 44.1875 
Q 55.375 50.25 60.0625 53.125 
Q 64.75 56 71.09375 56 
Q 79.640625 56 84.28125 50.015625 
Q 88.921875 44.046875 88.921875 33.015625 
L 88.921875 0 
L 79.890625 0 
L 79.890625 32.71875 
Q 79.890625 40.578125 77.09375 44.375 
Q 74.3125 48.1875 68.609375 48.1875 
Q 61.625 48.1875 57.5625 43.546875 
Q 53.515625 38.921875 53.515625 30.90625 
L 53.515625 0 
L 44.484375 0 
L 44.484375 32.71875 
Q 44.484375 40.625 41.703125 44.40625 
Q 38.921875 48.1875 33.109375 48.1875 
Q 26.21875 48.1875 22.15625 43.53125 
Q 18.109375 38.875 18.109375 30.90625 
L 18.109375 0 
L 9.078125 0 
L 9.078125 54.6875 
L 18.109375 54.6875 
L 18.109375 46.1875 
Q 21.1875 51.21875 25.484375 53.609375 
Q 29.78125 56 35.6875 56 
Q 41.65625 56 45.828125 52.96875 
Q 50 49.953125 52 44.1875 
z
" id="DejaVuSans-109"/>
      <path d="M 44.28125 53.078125 
L 44.28125 44.578125 
Q 40.484375 46.53125 36.375 47.5 
Q 32.28125 48.484375 27.875 48.484375 
Q 21.1875 48.484375 17.84375 46.4375 
Q 14.5 44.390625 14.5 40.28125 
Q 14.5 37.15625 16.890625 35.375 
Q 19.28125 33.59375 26.515625 31.984375 
L 29.59375 31.296875 
Q 39.15625 29.25 43.1875 25.515625 
Q 47.21875 21.78125 47.21875 15.09375 
Q 47.21875 7.46875 41.1875 3.015625 
Q 35.15625 -1.421875 24.609375 -1.421875 
Q 20.21875 -1.421875 15.453125 -0.5625 
Q 10.6875 0.296875 5.421875 2 
L 5.421875 11.28125 
Q 10.40625 8.6875 15.234375 7.390625 
Q 20.0625 6.109375 24.8125 6.109375 
Q 31.15625 6.109375 34.5625 8.28125 
Q 37.984375 10.453125 37.984375 14.40625 
Q 37.984375 18.0625 35.515625 20.015625 
Q 33.0625 21.96875 24.703125 23.78125 
L 21.578125 24.515625 
Q 13.234375 26.265625 9.515625 29.90625 
Q 5.8125 33.546875 5.8125 39.890625 
Q 5.8125 47.609375 11.28125 51.796875 
Q 16.75 56 26.8125 56 
Q 31.78125 56 36.171875 55.265625 
Q 40.578125 54.546875 44.28125 53.078125 
z
" id="DejaVuSans-115"/>
      <path d="M 8.015625 75.875 
L 15.828125 75.875 
Q 23.140625 64.359375 26.78125 53.3125 
Q 30.421875 42.28125 30.421875 31.390625 
Q 30.421875 20.453125 26.78125 9.375 
Q 23.140625 -1.703125 15.828125 -13.1875 
L 8.015625 -13.1875 
Q 14.5 -2 17.703125 9.0625 
Q 20.90625 20.125 20.90625 31.390625 
Q 20.90625 42.671875 17.703125 53.65625 
Q 14.5 64.65625 8.015625 75.875 
z
" id="DejaVuSans-41"/>
     </defs>
     <g transform="translate(57.667656 204.994896)rotate(-90)scale(0.1 -0.1)">
      <use xlink:href="#DejaVuSans-40"/>
      <use x="39.013672" xlink:href="#DejaVuSans-109"/>
      <use x="136.425781" xlink:href="#DejaVuSans-115"/>
      <use x="188.525391" xlink:href="#DejaVuSans-41"/>
     </g>
    </g>
   </g>
   <g id="line2d_16">
    <path clip-path="url(#p7195e31830)" d="M 109.724349 147.331848 
L 110.460969 139.453297 
L 111.197588 115.817645 
L 111.934207 155.210399 
L 113.407446 123.696196 
L 115.617303 123.696196 
L 116.353923 107.939094 
L 117.090542 123.696196 
L 117.827161 131.574746 
L 118.56378 123.696196 
L 119.3004 123.696196 
L 120.037019 115.817645 
L 120.773638 115.817645 
L 121.510257 123.696196 
L 122.246877 107.939094 
L 122.983496 107.939094 
L 123.720115 123.696196 
L 124.456734 123.696196 
L 125.193354 147.331848 
L 125.929973 115.817645 
L 126.666592 131.574746 
L 127.403211 115.817645 
L 128.139831 131.574746 
L 128.87645 123.696196 
L 129.613069 123.696196 
L 130.349689 139.453297 
L 131.086308 115.817645 
L 131.822927 107.939094 
L 132.559546 123.696196 
L 133.296166 107.939094 
L 134.032785 131.574746 
L 134.769404 139.453297 
L 135.506023 131.574746 
L 136.242643 107.939094 
L 136.979262 139.453297 
L 137.715881 107.939094 
L 139.925739 131.574746 
L 140.662358 107.939094 
L 141.398977 107.939094 
L 142.135597 123.696196 
L 144.345454 123.696196 
L 145.082074 115.817645 
L 145.818693 131.574746 
L 146.555312 107.939094 
L 147.291932 139.453297 
L 148.028551 139.453297 
L 148.76517 115.817645 
L 149.501789 123.696196 
L 150.238409 123.696196 
L 151.711647 139.453297 
L 152.448266 107.939094 
L 153.184886 123.696196 
L 153.921505 123.696196 
L 154.658124 131.574746 
L 155.394743 107.939094 
L 156.867982 123.696196 
L 157.604601 107.939094 
L 158.34122 107.939094 
L 159.07784 123.696196 
L 159.814459 107.939094 
L 160.551078 123.696196 
L 162.024317 123.696196 
L 163.497555 107.939094 
L 164.970794 123.696196 
L 165.707413 115.817645 
L 166.444032 131.574746 
L 167.180652 131.574746 
L 167.917271 107.939094 
L 168.65389 139.453297 
L 169.390509 107.939094 
L 170.127129 115.817645 
L 170.863748 139.453297 
L 171.600367 115.817645 
L 172.336986 123.696196 
L 173.073606 115.817645 
L 173.810225 115.817645 
L 174.546844 123.696196 
L 175.283463 107.939094 
L 176.020083 107.939094 
L 176.756702 123.696196 
L 177.493321 123.696196 
L 178.22994 115.817645 
L 178.96656 115.817645 
L 179.703179 131.574746 
L 180.439798 107.939094 
L 181.176417 131.574746 
L 181.913037 107.939094 
L 182.649656 123.696196 
L 183.386275 107.939094 
L 184.122894 115.817645 
L 184.859514 155.210399 
L 185.596133 115.817645 
L 186.332752 100.060543 
L 187.069372 115.817645 
L 187.805991 107.939094 
L 188.54261 123.696196 
L 189.279229 123.696196 
L 190.015849 107.939094 
L 190.752468 139.453297 
L 191.489087 115.817645 
L 192.225706 123.696196 
L 192.962326 115.817645 
L 193.698945 123.696196 
L 194.435564 107.939094 
L 195.172183 131.574746 
L 195.908803 131.574746 
L 196.645422 107.939094 
L 197.382041 131.574746 
L 198.11866 123.696196 
L 198.85528 123.696196 
L 200.328518 107.939094 
L 201.065137 115.817645 
L 201.801757 115.817645 
L 202.538376 107.939094 
L 203.274995 123.696196 
L 204.011615 107.939094 
L 204.748234 107.939094 
L 205.484853 123.696196 
L 206.221472 107.939094 
L 206.958092 123.696196 
L 207.694711 115.817645 
L 208.43133 84.303442 
L 209.167949 123.696196 
L 210.641188 123.696196 
L 211.377807 100.060543 
L 212.114426 131.574746 
L 212.851046 115.817645 
L 213.587665 123.696196 
L 214.324284 115.817645 
L 215.060903 139.453297 
L 215.797523 131.574746 
L 216.534142 107.939094 
L 217.270761 107.939094 
L 218.00738 139.453297 
L 219.480619 123.696196 
L 220.217238 123.696196 
L 220.953857 147.331848 
L 221.690477 123.696196 
L 222.427096 107.939094 
L 223.163715 107.939094 
L 223.900335 115.817645 
L 224.636954 131.574746 
L 225.373573 115.817645 
L 226.110192 139.453297 
L 226.846812 107.939094 
L 227.583431 123.696196 
L 228.32005 115.817645 
L 229.056669 123.696196 
L 229.793289 123.696196 
L 230.529908 107.939094 
L 231.266527 107.939094 
L 232.003146 131.574746 
L 232.739766 123.696196 
L 233.476385 123.696196 
L 234.213004 107.939094 
L 234.949623 107.939094 
L 235.686243 131.574746 
L 236.422862 115.817645 
L 237.159481 115.817645 
L 237.8961 123.696196 
L 239.369339 107.939094 
L 240.105958 123.696196 
L 240.842578 115.817645 
L 241.579197 131.574746 
L 242.315816 139.453297 
L 243.789055 92.181993 
L 244.525674 139.453297 
L 245.262293 123.696196 
L 248.20877 123.696196 
L 248.945389 115.817645 
L 249.682009 123.696196 
L 250.418628 139.453297 
L 251.155247 123.696196 
L 251.891866 100.060543 
L 252.628486 131.574746 
L 253.365105 115.817645 
L 254.101724 131.574746 
L 254.838343 115.817645 
L 255.574963 131.574746 
L 256.311582 107.939094 
L 257.048201 115.817645 
L 258.52144 100.060543 
L 259.258059 100.060543 
L 259.994678 123.696196 
L 260.731298 115.817645 
L 262.204536 131.574746 
L 262.941155 131.574746 
L 263.677775 115.817645 
L 264.414394 123.696196 
L 265.151013 123.696196 
L 265.887632 147.331848 
L 266.624252 123.696196 
L 267.360871 131.574746 
L 268.09749 100.060543 
L 269.570729 115.817645 
L 270.307348 115.817645 
L 271.043967 107.939094 
L 271.780586 115.817645 
L 272.517206 107.939094 
L 273.253825 107.939094 
L 273.990444 123.696196 
L 274.727063 123.696196 
L 275.463683 107.939094 
L 276.200302 131.574746 
L 276.936921 107.939094 
L 277.673541 123.696196 
L 278.41016 123.696196 
L 279.146779 107.939094 
L 279.883398 123.696196 
L 280.620018 123.696196 
L 281.356637 131.574746 
L 282.093256 123.696196 
L 282.829875 107.939094 
L 283.566495 115.817645 
L 284.303114 131.574746 
L 285.039733 123.696196 
L 285.776352 123.696196 
L 286.512972 107.939094 
L 287.249591 139.453297 
L 287.98621 123.696196 
L 288.722829 115.817645 
L 289.459449 131.574746 
L 290.196068 123.696196 
L 290.932687 107.939094 
L 291.669306 123.696196 
L 292.405926 107.939094 
L 293.142545 123.696196 
L 293.879164 131.574746 
L 294.615783 115.817645 
L 295.352403 131.574746 
L 296.089022 123.696196 
L 296.825641 107.939094 
L 297.562261 123.696196 
L 299.035499 123.696196 
L 299.772118 115.817645 
L 300.508738 131.574746 
L 301.245357 123.696196 
L 302.718595 123.696196 
L 303.455215 139.453297 
L 304.191834 107.939094 
L 304.928453 123.696196 
L 305.665072 131.574746 
L 306.401692 123.696196 
L 307.87493 123.696196 
L 308.611549 84.303442 
L 309.348169 131.574746 
L 310.084788 107.939094 
L 310.821407 123.696196 
L 311.558026 115.817645 
L 312.294646 60.66779 
L 313.031265 115.817645 
L 313.767884 123.696196 
L 314.504504 115.817645 
L 315.241123 123.696196 
L 316.714361 123.696196 
L 317.450981 84.303442 
L 318.1876 123.696196 
L 318.924219 147.331848 
L 319.660838 123.696196 
L 320.397458 123.696196 
L 321.134077 115.817645 
L 321.870696 123.696196 
L 322.607315 123.696196 
L 323.343935 115.817645 
L 324.080554 123.696196 
L 324.817173 100.060543 
L 325.553792 131.574746 
L 326.290412 131.574746 
L 327.027031 123.696196 
L 327.76365 139.453297 
L 328.500269 107.939094 
L 329.236889 123.696196 
L 329.973508 115.817645 
L 330.710127 131.574746 
L 331.446746 115.817645 
L 332.183366 115.817645 
L 332.919985 123.696196 
L 333.656604 115.817645 
L 334.393224 100.060543 
L 335.866462 115.817645 
L 336.603081 131.574746 
L 337.339701 107.939094 
L 338.07632 123.696196 
L 338.812939 107.939094 
L 339.549558 139.453297 
L 341.022797 107.939094 
L 342.496035 107.939094 
L 343.969274 123.696196 
L 344.705893 139.453297 
L 345.442512 107.939094 
L 346.179132 123.696196 
L 347.65237 139.453297 
L 349.125609 123.696196 
L 349.862228 123.696196 
L 350.598847 131.574746 
L 351.335466 115.817645 
L 352.072086 123.696196 
L 353.545324 107.939094 
L 354.281944 123.696196 
L 355.018563 100.060543 
L 355.755182 139.453297 
L 356.491801 123.696196 
L 357.228421 123.696196 
L 357.96504 115.817645 
L 359.438278 131.574746 
L 360.174898 115.817645 
L 360.911517 139.453297 
L 361.648136 100.060543 
L 362.384755 147.331848 
L 363.121375 100.060543 
L 363.857994 131.574746 
L 364.594613 131.574746 
L 365.331232 107.939094 
L 366.067852 123.696196 
L 366.804471 107.939094 
L 367.54109 123.696196 
L 368.277709 131.574746 
L 369.014329 123.696196 
L 369.750948 107.939094 
L 370.487567 107.939094 
L 371.224187 123.696196 
L 371.960806 107.939094 
L 372.697425 139.453297 
L 373.434044 139.453297 
L 374.170664 115.817645 
L 374.907283 115.817645 
L 375.643902 131.574746 
L 376.380521 123.696196 
L 377.85376 123.696196 
L 378.590379 107.939094 
L 379.326998 107.939094 
L 380.063618 115.817645 
L 380.800237 155.210399 
L 381.536856 123.696196 
L 382.273475 131.574746 
L 383.010095 123.696196 
L 383.746714 123.696196 
L 384.483333 107.939094 
L 385.219952 139.453297 
L 385.956572 115.817645 
L 386.693191 123.696196 
L 387.42981 100.060543 
L 388.903049 131.574746 
L 389.639668 123.696196 
L 390.376287 107.939094 
L 391.112907 123.696196 
L 391.849526 44.910688 
L 392.586145 123.696196 
L 393.322764 131.574746 
L 394.059384 131.574746 
L 395.532622 115.817645 
L 396.269241 123.696196 
L 397.005861 123.696196 
L 397.74248 131.574746 
L 398.479099 123.696196 
L 399.215718 123.696196 
L 399.952338 115.817645 
L 400.688957 131.574746 
L 401.425576 107.939094 
L 402.162195 107.939094 
L 402.898815 139.453297 
L 403.635434 115.817645 
L 404.372053 123.696196 
L 405.108672 123.696196 
L 405.845292 107.939094 
L 406.581911 123.696196 
L 407.31853 115.817645 
L 408.05515 115.817645 
L 408.791769 100.060543 
L 409.528388 123.696196 
L 410.265007 115.817645 
L 411.001627 139.453297 
L 411.738246 131.574746 
L 412.474865 131.574746 
L 413.211484 123.696196 
L 413.948104 107.939094 
L 414.684723 107.939094 
L 415.421342 163.088949 
L 416.157961 123.696196 
L 416.894581 123.696196 
L 417.6312 107.939094 
L 418.367819 139.453297 
L 419.104438 115.817645 
L 419.841058 123.696196 
L 420.577677 123.696196 
L 422.050915 107.939094 
L 422.787535 115.817645 
L 423.524154 107.939094 
L 424.997392 123.696196 
L 425.734012 139.453297 
L 426.470631 115.817645 
L 427.20725 100.060543 
L 427.94387 131.574746 
L 428.680489 123.696196 
L 429.417108 100.060543 
L 430.153727 107.939094 
L 430.890347 139.453297 
L 431.626966 100.060543 
L 432.363585 115.817645 
L 433.100204 139.453297 
L 433.836824 107.939094 
L 434.573443 115.817645 
L 435.310062 115.817645 
L 436.046681 131.574746 
L 436.783301 100.060543 
L 438.256539 131.574746 
L 438.993158 123.696196 
L 439.729778 123.696196 
L 440.466397 139.453297 
L 441.939635 107.939094 
L 442.676255 123.696196 
L 443.412874 123.696196 
L 444.149493 131.574746 
L 444.886113 107.939094 
L 445.622732 123.696196 
L 446.359351 123.696196 
L 447.09597 107.939094 
L 447.83259 115.817645 
L 448.569209 100.060543 
L 449.305828 139.453297 
L 451.515686 115.817645 
L 452.988924 131.574746 
L 453.725544 107.939094 
L 454.462163 123.696196 
L 455.198782 131.574746 
L 456.672021 115.817645 
L 457.40864 123.696196 
L 461.091736 123.696196 
L 461.828355 107.939094 
L 463.301594 123.696196 
L 464.038213 123.696196 
L 464.774833 115.817645 
L 465.511452 115.817645 
L 466.248071 92.181993 
L 466.98469 131.574746 
L 467.72131 123.696196 
L 468.457929 147.331848 
L 469.194548 115.817645 
L 469.931167 115.817645 
L 470.667787 107.939094 
L 472.141025 123.696196 
L 472.877644 100.060543 
L 473.614264 131.574746 
L 474.350883 107.939094 
L 475.087502 123.696196 
L 475.824121 123.696196 
L 476.560741 92.181993 
L 477.29736 123.696196 
L 478.033979 123.696196 
L 478.770598 139.453297 
L 479.507218 115.817645 
L 480.243837 147.331848 
L 480.980456 115.817645 
L 481.717076 107.939094 
L 482.453695 107.939094 
L 483.190314 123.696196 
L 483.926933 131.574746 
L 485.400172 115.817645 
L 486.87341 131.574746 
L 487.61003 123.696196 
L 488.346649 107.939094 
L 489.083268 115.817645 
L 489.819887 100.060543 
L 490.556507 115.817645 
L 491.293126 123.696196 
L 492.029745 123.696196 
L 492.766364 115.817645 
L 493.502984 131.574746 
L 494.239603 107.939094 
L 494.976222 131.574746 
L 495.712841 115.817645 
L 497.18608 115.817645 
L 497.922699 139.453297 
L 498.659318 100.060543 
L 499.395938 107.939094 
L 500.132557 123.696196 
L 500.869176 123.696196 
L 502.342415 107.939094 
L 503.079034 131.574746 
L 504.552273 115.817645 
L 505.288892 147.331848 
L 506.025511 107.939094 
L 506.76213 123.696196 
L 506.76213 123.696196 
" style="fill:none;stroke:#1f77b4;stroke-linecap:square;stroke-width:1.5;"/>
   </g>
   <g id="line2d_17">
    <path clip-path="url(#p7195e31830)" d="M 103.765099 241.874457 
L 104.501719 139.453297 
L 105.238338 147.331848 
L 105.974957 131.574746 
L 106.711576 123.696196 
L 107.448196 139.453297 
L 108.184815 123.696196 
L 108.921434 123.696196 
L 109.658054 139.453297 
L 110.394673 147.331848 
L 111.131292 115.817645 
L 111.867911 163.088949 
L 112.604531 139.453297 
L 113.34115 123.696196 
L 114.077769 115.817645 
L 114.814388 115.817645 
L 115.551008 131.574746 
L 117.024246 115.817645 
L 117.760865 131.574746 
L 118.497485 107.939094 
L 121.443962 107.939094 
L 122.180581 123.696196 
L 122.9172 131.574746 
L 124.390439 115.817645 
L 125.127058 147.331848 
L 125.863677 100.060543 
L 126.600296 139.453297 
L 127.336916 107.939094 
L 128.073535 139.453297 
L 128.810154 123.696196 
L 129.546774 115.817645 
L 130.283393 147.331848 
L 131.020012 107.939094 
L 131.756631 123.696196 
L 132.493251 107.939094 
L 133.22987 115.817645 
L 133.966489 139.453297 
L 134.703108 131.574746 
L 135.439728 139.453297 
L 136.176347 100.060543 
L 136.912966 147.331848 
L 137.649585 123.696196 
L 138.386205 115.817645 
L 139.122824 123.696196 
L 139.859443 139.453297 
L 140.596062 107.939094 
L 141.332682 123.696196 
L 142.069301 107.939094 
L 142.80592 123.696196 
L 144.279159 123.696196 
L 145.015778 115.817645 
L 145.752397 131.574746 
L 146.489017 100.060543 
L 147.225636 139.453297 
L 147.962255 123.696196 
L 149.435494 123.696196 
L 150.172113 139.453297 
L 150.908732 123.696196 
L 151.645351 147.331848 
L 152.381971 115.817645 
L 153.11859 107.939094 
L 153.855209 107.939094 
L 154.591828 131.574746 
L 156.065067 115.817645 
L 156.801686 123.696196 
L 157.538305 123.696196 
L 158.274925 100.060543 
L 159.011544 123.696196 
L 159.748163 115.817645 
L 160.484782 139.453297 
L 161.221402 107.939094 
L 161.958021 123.696196 
L 162.69464 100.060543 
L 164.167879 115.817645 
L 164.904498 107.939094 
L 165.641117 115.817645 
L 166.377737 139.453297 
L 167.114356 131.574746 
L 167.850975 115.817645 
L 168.587594 123.696196 
L 169.324214 123.696196 
L 170.060833 115.817645 
L 170.797452 139.453297 
L 171.534071 107.939094 
L 172.270691 107.939094 
L 173.00731 100.060543 
L 173.743929 107.939094 
L 174.480548 123.696196 
L 176.690406 123.696196 
L 177.427025 107.939094 
L 178.163645 139.453297 
L 178.900264 115.817645 
L 179.636883 139.453297 
L 180.373502 100.060543 
L 181.110122 139.453297 
L 182.58336 107.939094 
L 183.31998 123.696196 
L 184.056599 107.939094 
L 184.793218 155.210399 
L 185.529837 115.817645 
L 186.266457 115.817645 
L 187.003076 92.181993 
L 187.739695 123.696196 
L 188.476314 131.574746 
L 189.212934 107.939094 
L 189.949553 123.696196 
L 190.686172 131.574746 
L 191.422791 115.817645 
L 192.159411 131.574746 
L 192.89603 107.939094 
L 193.632649 107.939094 
L 194.369268 115.817645 
L 195.105888 139.453297 
L 195.842507 115.817645 
L 196.579126 115.817645 
L 197.315745 139.453297 
L 198.052365 107.939094 
L 198.788984 123.696196 
L 199.525603 107.939094 
L 200.262222 123.696196 
L 200.998842 131.574746 
L 201.735461 115.817645 
L 202.47208 123.696196 
L 203.2087 123.696196 
L 203.945319 107.939094 
L 204.681938 115.817645 
L 205.418557 107.939094 
L 206.155177 123.696196 
L 206.891796 123.696196 
L 207.628415 84.303442 
L 208.365034 115.817645 
L 209.101654 107.939094 
L 209.838273 131.574746 
L 210.574892 107.939094 
L 212.048131 139.453297 
L 212.78475 115.817645 
L 213.521369 107.939094 
L 214.994608 139.453297 
L 215.731227 131.574746 
L 216.467846 92.181993 
L 217.204465 123.696196 
L 217.941085 147.331848 
L 218.677704 115.817645 
L 219.414323 131.574746 
L 220.150942 107.939094 
L 220.887562 139.453297 
L 221.624181 131.574746 
L 222.3608 107.939094 
L 223.09742 123.696196 
L 223.834039 123.696196 
L 224.570658 115.817645 
L 225.307277 115.817645 
L 226.043897 123.696196 
L 227.517135 107.939094 
L 228.253754 131.574746 
L 228.990374 123.696196 
L 229.726993 107.939094 
L 230.463612 115.817645 
L 231.200231 115.817645 
L 231.936851 139.453297 
L 232.67347 107.939094 
L 233.410089 107.939094 
L 234.146708 123.696196 
L 234.883328 115.817645 
L 235.619947 139.453297 
L 236.356566 100.060543 
L 237.093185 92.181993 
L 237.829805 139.453297 
L 238.566424 107.939094 
L 239.303043 115.817645 
L 240.039663 107.939094 
L 240.776282 131.574746 
L 241.512901 131.574746 
L 242.98614 115.817645 
L 243.722759 100.060543 
L 244.459378 139.453297 
L 245.932617 123.696196 
L 246.669236 123.696196 
L 247.405855 107.939094 
L 248.142474 139.453297 
L 248.879094 115.817645 
L 249.615713 131.574746 
L 250.352332 139.453297 
L 251.088951 123.696196 
L 251.825571 115.817645 
L 252.56219 123.696196 
L 253.298809 115.817645 
L 254.035428 131.574746 
L 254.772048 123.696196 
L 255.508667 131.574746 
L 256.981905 115.817645 
L 257.718525 115.817645 
L 258.455144 100.060543 
L 259.191763 107.939094 
L 259.928383 107.939094 
L 260.665002 115.817645 
L 261.401621 115.817645 
L 262.13824 131.574746 
L 263.611479 115.817645 
L 264.348098 123.696196 
L 265.084717 115.817645 
L 265.821337 147.331848 
L 266.557956 123.696196 
L 268.767814 123.696196 
L 269.504433 100.060543 
L 270.241052 123.696196 
L 270.977671 107.939094 
L 271.714291 123.696196 
L 272.45091 100.060543 
L 273.187529 123.696196 
L 273.924148 107.939094 
L 274.660768 131.574746 
L 275.397387 107.939094 
L 276.134006 139.453297 
L 276.870626 115.817645 
L 277.607245 123.696196 
L 278.343864 100.060543 
L 279.080483 123.696196 
L 280.553722 123.696196 
L 281.290341 131.574746 
L 282.02696 100.060543 
L 282.76358 123.696196 
L 283.500199 123.696196 
L 284.236818 107.939094 
L 284.973437 123.696196 
L 285.710057 107.939094 
L 286.446676 107.939094 
L 287.183295 139.453297 
L 287.919914 107.939094 
L 288.656534 139.453297 
L 289.393153 131.574746 
L 290.129772 100.060543 
L 290.866391 123.696196 
L 291.603011 131.574746 
L 292.33963 123.696196 
L 293.812868 123.696196 
L 294.549488 115.817645 
L 295.286107 131.574746 
L 296.022726 107.939094 
L 296.759346 123.696196 
L 298.232584 123.696196 
L 298.969203 131.574746 
L 299.705823 115.817645 
L 300.442442 131.574746 
L 301.179061 115.817645 
L 301.91568 115.817645 
L 302.6523 123.696196 
L 303.388919 139.453297 
L 304.125538 123.696196 
L 304.862157 123.696196 
L 305.598777 107.939094 
L 306.335396 131.574746 
L 307.072015 123.696196 
L 307.808634 100.060543 
L 309.281873 131.574746 
L 310.018492 123.696196 
L 310.755111 107.939094 
L 311.491731 123.696196 
L 312.22835 107.939094 
L 312.964969 115.817645 
L 313.701589 139.453297 
L 314.438208 107.939094 
L 315.174827 107.939094 
L 315.911446 131.574746 
L 316.648066 131.574746 
L 317.384685 115.817645 
L 318.121304 115.817645 
L 318.857923 155.210399 
L 319.594543 115.817645 
L 320.331162 123.696196 
L 321.067781 115.817645 
L 321.8044 123.696196 
L 322.54102 123.696196 
L 323.277639 115.817645 
L 324.014258 123.696196 
L 324.750877 123.696196 
L 325.487497 131.574746 
L 326.224116 123.696196 
L 326.960735 107.939094 
L 327.697354 139.453297 
L 329.170593 107.939094 
L 329.907212 123.696196 
L 330.643831 131.574746 
L 331.380451 115.817645 
L 332.11707 107.939094 
L 332.853689 115.817645 
L 335.063547 115.817645 
L 335.800166 107.939094 
L 336.536786 115.817645 
L 337.273405 107.939094 
L 338.010024 107.939094 
L 339.483263 139.453297 
L 340.219882 107.939094 
L 340.956501 100.060543 
L 341.69312 123.696196 
L 342.42974 123.696196 
L 343.166359 100.060543 
L 343.902978 123.696196 
L 344.639597 115.817645 
L 345.376217 123.696196 
L 346.112836 107.939094 
L 346.849455 139.453297 
L 347.586074 131.574746 
L 348.322694 139.453297 
L 349.059313 115.817645 
L 349.795932 107.939094 
L 350.532552 139.453297 
L 351.269171 115.817645 
L 352.00579 107.939094 
L 352.742409 123.696196 
L 353.479029 107.939094 
L 355.688886 131.574746 
L 357.162125 115.817645 
L 357.898744 115.817645 
L 358.635363 131.574746 
L 359.371983 123.696196 
L 360.108602 123.696196 
L 360.845221 139.453297 
L 361.58184 92.181993 
L 362.31846 139.453297 
L 363.055079 123.696196 
L 363.791698 115.817645 
L 364.528317 131.574746 
L 365.264937 123.696196 
L 366.738175 123.696196 
L 367.474794 100.060543 
L 368.211414 139.453297 
L 368.948033 107.939094 
L 369.684652 115.817645 
L 371.157891 115.817645 
L 371.89451 123.696196 
L 372.631129 115.817645 
L 373.367749 139.453297 
L 374.104368 107.939094 
L 374.840987 115.817645 
L 375.577606 131.574746 
L 376.314226 139.453297 
L 377.050845 115.817645 
L 377.787464 123.696196 
L 378.524083 115.817645 
L 379.997322 115.817645 
L 380.733941 139.453297 
L 381.47056 123.696196 
L 382.20718 131.574746 
L 382.943799 100.060543 
L 383.680418 115.817645 
L 384.417037 115.817645 
L 385.153657 147.331848 
L 385.890276 100.060543 
L 386.626895 131.574746 
L 387.363514 123.696196 
L 388.100134 123.696196 
L 388.836753 131.574746 
L 389.573372 131.574746 
L 390.309992 123.696196 
L 391.046611 123.696196 
L 392.519849 107.939094 
L 393.256469 139.453297 
L 393.993088 107.939094 
L 394.729707 107.939094 
L 395.466326 115.817645 
L 396.202946 131.574746 
L 396.939565 115.817645 
L 397.676184 139.453297 
L 398.412803 123.696196 
L 399.149423 123.696196 
L 399.886042 100.060543 
L 400.622661 139.453297 
L 401.35928 107.939094 
L 402.0959 107.939094 
L 402.832519 139.453297 
L 403.569138 107.939094 
L 404.305757 123.696196 
L 405.042377 131.574746 
L 405.778996 107.939094 
L 406.515615 107.939094 
L 407.252235 100.060543 
L 407.988854 131.574746 
L 408.725473 123.696196 
L 409.462092 107.939094 
L 410.198712 107.939094 
L 410.935331 139.453297 
L 411.67195 131.574746 
L 412.408569 139.453297 
L 414.618427 115.817645 
L 415.355046 147.331848 
L 416.091666 107.939094 
L 416.828285 123.696196 
L 417.564904 107.939094 
L 418.301523 131.574746 
L 419.038143 115.817645 
L 419.774762 139.453297 
L 421.248 107.939094 
L 421.98462 115.817645 
L 424.194477 115.817645 
L 424.931097 123.696196 
L 425.667716 107.939094 
L 426.404335 107.939094 
L 427.140955 123.696196 
L 427.877574 107.939094 
L 428.614193 131.574746 
L 429.350812 107.939094 
L 430.087432 107.939094 
L 430.824051 139.453297 
L 431.56067 123.696196 
L 432.297289 115.817645 
L 433.033909 123.696196 
L 434.507147 123.696196 
L 435.243766 107.939094 
L 435.980386 131.574746 
L 436.717005 123.696196 
L 437.453624 107.939094 
L 438.190243 139.453297 
L 438.926863 115.817645 
L 439.663482 123.696196 
L 440.400101 147.331848 
L 441.13672 123.696196 
L 441.87334 107.939094 
L 442.609959 123.696196 
L 443.346578 131.574746 
L 444.083198 131.574746 
L 444.819817 123.696196 
L 447.029675 123.696196 
L 447.766294 100.060543 
L 448.502913 123.696196 
L 449.239532 131.574746 
L 449.976152 131.574746 
L 450.712771 139.453297 
L 451.44939 123.696196 
L 452.186009 123.696196 
L 452.922629 131.574746 
L 453.659248 107.939094 
L 454.395867 123.696196 
L 455.132486 131.574746 
L 455.869106 115.817645 
L 456.605725 131.574746 
L 457.342344 123.696196 
L 458.078963 131.574746 
L 458.815583 123.696196 
L 459.552202 123.696196 
L 460.288821 115.817645 
L 461.02544 123.696196 
L 462.498679 123.696196 
L 463.235298 107.939094 
L 463.971918 115.817645 
L 466.918395 115.817645 
L 467.655014 123.696196 
L 468.391633 139.453297 
L 469.864872 107.939094 
L 470.601491 123.696196 
L 471.33811 123.696196 
L 472.074729 131.574746 
L 472.811349 123.696196 
L 473.547968 107.939094 
L 474.284587 107.939094 
L 475.021206 123.696196 
L 475.757826 115.817645 
L 476.494445 115.817645 
L 477.231064 123.696196 
L 477.967683 115.817645 
L 478.704303 123.696196 
L 479.440922 115.817645 
L 480.177541 155.210399 
L 480.914161 115.817645 
L 481.65078 100.060543 
L 482.387399 123.696196 
L 483.124018 123.696196 
L 483.860638 139.453297 
L 484.597257 123.696196 
L 485.333876 131.574746 
L 486.070495 107.939094 
L 487.543734 123.696196 
L 488.280353 123.696196 
L 489.016972 115.817645 
L 489.753592 115.817645 
L 490.490211 123.696196 
L 491.22683 123.696196 
L 491.963449 100.060543 
L 492.700069 123.696196 
L 493.436688 131.574746 
L 494.173307 107.939094 
L 494.909926 107.939094 
L 495.646546 115.817645 
L 496.383165 115.817645 
L 497.119784 107.939094 
L 497.856403 139.453297 
L 499.329642 107.939094 
L 500.066261 115.817645 
L 500.802881 131.574746 
L 500.802881 131.574746 
" style="fill:none;stroke:#ff7f0e;stroke-linecap:square;stroke-width:1.5;"/>
   </g>
   <g id="line2d_18">
    <path clip-path="url(#p7195e31830)" d="M 112.582432 139.453297 
L 113.319051 131.574746 
L 114.05567 107.939094 
L 114.79229 123.696196 
L 116.265528 107.939094 
L 117.002148 131.574746 
L 117.738767 139.453297 
L 118.475386 107.939094 
L 119.212005 123.696196 
L 119.948625 107.939094 
L 120.685244 107.939094 
L 121.421863 123.696196 
L 122.158482 115.817645 
L 122.895102 131.574746 
L 123.631721 107.939094 
L 124.36834 115.817645 
L 125.104959 147.331848 
L 125.841579 115.817645 
L 126.578198 123.696196 
L 127.314817 123.696196 
L 128.051436 139.453297 
L 128.788056 107.939094 
L 129.524675 123.696196 
L 130.261294 131.574746 
L 130.997913 107.939094 
L 131.734533 107.939094 
L 132.471152 123.696196 
L 133.207771 123.696196 
L 133.944391 139.453297 
L 134.68101 131.574746 
L 135.417629 139.453297 
L 136.154248 100.060543 
L 136.890868 147.331848 
L 137.627487 107.939094 
L 138.364106 115.817645 
L 139.100725 131.574746 
L 139.837345 123.696196 
L 142.783822 123.696196 
L 143.520441 131.574746 
L 144.25706 107.939094 
L 144.993679 115.817645 
L 145.730299 139.453297 
L 146.466918 100.060543 
L 147.203537 131.574746 
L 147.940156 123.696196 
L 148.676776 123.696196 
L 149.413395 100.060543 
L 150.150014 131.574746 
L 150.886633 131.574746 
L 151.623253 147.331848 
L 153.096491 100.060543 
L 153.833111 107.939094 
L 154.56973 131.574746 
L 156.042968 115.817645 
L 156.779588 131.574746 
L 157.516207 107.939094 
L 158.252826 107.939094 
L 158.989445 131.574746 
L 159.726065 115.817645 
L 160.462684 123.696196 
L 161.935922 123.696196 
L 162.672542 92.181993 
L 163.409161 123.696196 
L 164.882399 107.939094 
L 165.619019 123.696196 
L 166.355638 131.574746 
L 167.828876 100.060543 
L 168.565496 131.574746 
L 169.302115 123.696196 
L 170.038734 123.696196 
L 170.775354 139.453297 
L 171.511973 115.817645 
L 172.248592 107.939094 
L 172.985211 107.939094 
L 173.721831 123.696196 
L 174.45845 107.939094 
L 175.195069 123.696196 
L 175.931688 123.696196 
L 176.668308 107.939094 
L 177.404927 107.939094 
L 178.141546 123.696196 
L 178.878165 123.696196 
L 179.614785 139.453297 
L 180.351404 115.817645 
L 181.088023 139.453297 
L 181.824642 107.939094 
L 182.561262 123.696196 
L 183.297881 107.939094 
L 184.0345 107.939094 
L 184.771119 163.088949 
L 185.507739 115.817645 
L 186.980977 115.817645 
L 187.717596 107.939094 
L 188.454216 131.574746 
L 189.190835 92.181993 
L 189.927454 123.696196 
L 190.664074 147.331848 
L 191.400693 115.817645 
L 192.137312 131.574746 
L 192.873931 107.939094 
L 193.610551 115.817645 
L 194.34717 107.939094 
L 195.083789 139.453297 
L 195.820408 115.817645 
L 196.557028 107.939094 
L 197.293647 139.453297 
L 198.030266 123.696196 
L 198.766885 100.060543 
L 199.503505 107.939094 
L 200.240124 123.696196 
L 200.976743 131.574746 
L 201.713362 115.817645 
L 202.449982 123.696196 
L 203.186601 107.939094 
L 203.92322 123.696196 
L 204.659839 115.817645 
L 205.396459 123.696196 
L 206.133078 123.696196 
L 207.606317 107.939094 
L 209.079555 123.696196 
L 210.552794 107.939094 
L 211.289413 107.939094 
L 212.026032 139.453297 
L 212.762651 115.817645 
L 213.499271 123.696196 
L 214.23589 115.817645 
L 214.972509 139.453297 
L 215.709128 139.453297 
L 216.445748 115.817645 
L 217.182367 107.939094 
L 217.918986 139.453297 
L 218.655605 115.817645 
L 219.392225 131.574746 
L 220.128844 107.939094 
L 220.865463 139.453297 
L 222.338702 123.696196 
L 223.075321 107.939094 
L 223.81194 123.696196 
L 224.548559 123.696196 
L 225.285179 100.060543 
L 226.021798 123.696196 
L 227.495037 123.696196 
L 228.231656 115.817645 
L 228.968275 131.574746 
L 229.704894 123.696196 
L 230.441514 76.424891 
L 231.178133 123.696196 
L 231.914752 131.574746 
L 232.651371 123.696196 
L 233.387991 107.939094 
L 234.12461 123.696196 
L 235.597848 123.696196 
L 236.334468 115.817645 
L 237.071087 100.060543 
L 237.807706 131.574746 
L 238.544325 123.696196 
L 239.280945 123.696196 
L 240.017564 107.939094 
L 240.754183 107.939094 
L 241.490802 131.574746 
L 242.227422 123.696196 
L 242.964041 107.939094 
L 243.70066 115.817645 
L 244.437279 131.574746 
L 245.173899 115.817645 
L 245.910518 123.696196 
L 246.647137 107.939094 
L 247.383757 107.939094 
L 248.120376 115.817645 
L 248.856995 115.817645 
L 249.593614 131.574746 
L 250.330234 139.453297 
L 251.066853 131.574746 
L 251.803472 100.060543 
L 252.540091 131.574746 
L 253.276711 115.817645 
L 254.01333 139.453297 
L 254.749949 107.939094 
L 255.486568 131.574746 
L 256.223188 100.060543 
L 256.959807 123.696196 
L 257.696426 107.939094 
L 258.433045 115.817645 
L 259.169665 115.817645 
L 259.906284 107.939094 
L 260.642903 115.817645 
L 261.379522 131.574746 
L 262.116142 131.574746 
L 262.852761 139.453297 
L 263.58938 107.939094 
L 264.326 123.696196 
L 265.062619 107.939094 
L 265.799238 139.453297 
L 266.535857 131.574746 
L 267.272477 131.574746 
L 268.009096 107.939094 
L 268.745715 123.696196 
L 270.218954 107.939094 
L 271.692192 123.696196 
L 272.428811 100.060543 
L 273.165431 123.696196 
L 273.90205 123.696196 
L 274.638669 107.939094 
L 275.375288 115.817645 
L 276.111908 139.453297 
L 276.848527 115.817645 
L 277.585146 123.696196 
L 279.058385 123.696196 
L 280.531623 107.939094 
L 281.268242 131.574746 
L 282.004862 107.939094 
L 282.741481 123.696196 
L 283.4781 107.939094 
L 284.21472 131.574746 
L 284.951339 131.574746 
L 285.687958 123.696196 
L 286.424577 107.939094 
L 287.161197 139.453297 
L 287.897816 107.939094 
L 288.634435 115.817645 
L 289.371054 131.574746 
L 290.107674 123.696196 
L 290.844293 123.696196 
L 291.580912 115.817645 
L 292.317531 123.696196 
L 293.054151 107.939094 
L 293.79077 139.453297 
L 294.527389 115.817645 
L 295.264008 131.574746 
L 296.000628 107.939094 
L 296.737247 123.696196 
L 297.473866 107.939094 
L 298.210485 107.939094 
L 298.947105 123.696196 
L 300.420343 139.453297 
L 301.156963 107.939094 
L 301.893582 131.574746 
L 302.630201 123.696196 
L 303.36682 139.453297 
L 304.840059 107.939094 
L 305.576678 131.574746 
L 306.313297 107.939094 
L 307.049917 123.696196 
L 307.786536 123.696196 
L 308.523155 107.939094 
L 309.259774 131.574746 
L 309.996394 123.696196 
L 310.733013 123.696196 
L 311.469632 100.060543 
L 312.206251 123.696196 
L 312.942871 100.060543 
L 313.67949 123.696196 
L 314.416109 123.696196 
L 315.152728 107.939094 
L 315.889348 115.817645 
L 316.625967 131.574746 
L 317.362586 115.817645 
L 318.099205 115.817645 
L 318.835825 155.210399 
L 319.572444 107.939094 
L 320.309063 123.696196 
L 321.045683 131.574746 
L 321.782302 123.696196 
L 322.518921 107.939094 
L 323.25554 107.939094 
L 323.99216 139.453297 
L 324.728779 107.939094 
L 325.465398 139.453297 
L 326.202017 123.696196 
L 326.938637 123.696196 
L 327.675256 131.574746 
L 328.411875 123.696196 
L 329.148494 123.696196 
L 329.885114 115.817645 
L 330.621733 131.574746 
L 331.358352 107.939094 
L 332.094971 131.574746 
L 332.831591 107.939094 
L 333.56821 107.939094 
L 334.304829 115.817645 
L 335.041448 107.939094 
L 335.778068 131.574746 
L 336.514687 123.696196 
L 337.251306 123.696196 
L 337.987926 107.939094 
L 338.724545 107.939094 
L 339.461164 139.453297 
L 340.197783 123.696196 
L 340.934403 115.817645 
L 341.671022 123.696196 
L 343.14426 92.181993 
L 343.88088 123.696196 
L 345.354118 123.696196 
L 346.090737 107.939094 
L 346.827357 139.453297 
L 347.563976 123.696196 
L 348.300595 139.453297 
L 349.037214 131.574746 
L 349.773834 107.939094 
L 350.510453 139.453297 
L 351.247072 100.060543 
L 353.45693 123.696196 
L 354.930168 123.696196 
L 355.666788 139.453297 
L 356.403407 100.060543 
L 357.876646 115.817645 
L 358.613265 131.574746 
L 359.349884 139.453297 
L 360.086503 107.939094 
L 360.823123 139.453297 
L 361.559742 107.939094 
L 362.296361 131.574746 
L 363.7696 115.817645 
L 364.506219 139.453297 
L 365.242838 123.696196 
L 368.189315 123.696196 
L 368.925934 100.060543 
L 371.135792 123.696196 
L 371.872411 123.696196 
L 372.609031 115.817645 
L 373.34565 139.453297 
L 374.082269 115.817645 
L 374.818889 107.939094 
L 375.555508 139.453297 
L 376.292127 123.696196 
L 377.028746 100.060543 
L 377.765366 123.696196 
L 378.501985 123.696196 
L 379.238604 115.817645 
L 379.975223 100.060543 
L 380.711843 147.331848 
L 381.448462 123.696196 
L 382.185081 139.453297 
L 383.65832 107.939094 
L 384.394939 107.939094 
L 385.131558 147.331848 
L 385.868177 115.817645 
L 386.604797 123.696196 
L 387.341416 107.939094 
L 388.078035 115.817645 
L 388.814654 131.574746 
L 389.551274 115.817645 
L 390.287893 115.817645 
L 391.024512 123.696196 
L 391.761131 100.060543 
L 392.497751 107.939094 
L 393.23437 139.453297 
L 393.970989 107.939094 
L 395.444228 123.696196 
L 396.180847 123.696196 
L 396.917466 107.939094 
L 397.654086 139.453297 
L 398.390705 139.453297 
L 399.127324 123.696196 
L 399.863943 115.817645 
L 400.600563 131.574746 
L 401.337182 123.696196 
L 402.073801 107.939094 
L 402.81042 139.453297 
L 403.54704 115.817645 
L 404.283659 123.696196 
L 405.020278 92.181993 
L 405.756897 123.696196 
L 406.493517 107.939094 
L 407.966755 123.696196 
L 408.703374 107.939094 
L 409.439994 107.939094 
L 410.913232 139.453297 
L 411.649851 131.574746 
L 412.386471 139.453297 
L 413.12309 115.817645 
L 413.859709 123.696196 
L 414.596329 107.939094 
L 415.332948 147.331848 
L 416.069567 123.696196 
L 416.806186 107.939094 
L 417.542806 107.939094 
L 418.279425 147.331848 
L 419.016044 115.817645 
L 419.752663 123.696196 
L 420.489283 123.696196 
L 421.225902 107.939094 
L 421.962521 107.939094 
L 422.69914 115.817645 
L 423.43576 131.574746 
L 424.172379 131.574746 
L 424.908998 123.696196 
L 425.645617 123.696196 
L 426.382237 107.939094 
L 427.118856 107.939094 
L 427.855475 115.817645 
L 428.592094 131.574746 
L 429.328714 115.817645 
L 430.065333 123.696196 
L 430.801952 139.453297 
L 431.538572 123.696196 
L 432.275191 100.060543 
L 433.01181 123.696196 
L 434.485049 123.696196 
L 435.221668 115.817645 
L 435.958287 131.574746 
L 437.431526 115.817645 
L 438.168145 123.696196 
L 438.904764 107.939094 
L 439.641383 131.574746 
L 440.378003 139.453297 
L 441.851241 123.696196 
L 442.58786 131.574746 
L 443.32448 115.817645 
L 444.061099 131.574746 
L 444.797718 107.939094 
L 445.534337 131.574746 
L 446.270957 107.939094 
L 447.007576 123.696196 
L 447.744195 115.817645 
L 449.217434 131.574746 
L 449.954053 131.574746 
L 450.690672 123.696196 
L 451.427292 107.939094 
L 452.163911 131.574746 
L 452.90053 123.696196 
L 453.637149 123.696196 
L 454.373769 100.060543 
L 455.110388 139.453297 
L 455.847007 131.574746 
L 456.583626 115.817645 
L 457.320246 123.696196 
L 458.056865 115.817645 
L 458.793484 131.574746 
L 459.530103 131.574746 
L 460.266723 115.817645 
L 461.003342 123.696196 
L 462.47658 123.696196 
L 463.2132 107.939094 
L 463.949819 123.696196 
L 464.686438 100.060543 
L 465.423057 115.817645 
L 466.159677 100.060543 
L 466.896296 115.817645 
L 467.632915 123.696196 
L 468.369535 147.331848 
L 469.106154 123.696196 
L 469.842773 107.939094 
L 470.579392 107.939094 
L 471.316012 115.817645 
L 472.052631 131.574746 
L 473.525869 115.817645 
L 474.262489 100.060543 
L 474.999108 131.574746 
L 476.472346 115.817645 
L 477.208966 123.696196 
L 477.945585 115.817645 
L 478.682204 123.696196 
L 479.418823 115.817645 
L 480.155443 155.210399 
L 480.892062 107.939094 
L 482.3653 92.181993 
L 483.10192 139.453297 
L 483.838539 139.453297 
L 484.575158 115.817645 
L 485.311777 115.817645 
L 486.048397 123.696196 
L 486.785016 115.817645 
L 487.521635 123.696196 
L 488.258255 107.939094 
L 488.994874 123.696196 
L 489.731493 100.060543 
L 490.468112 123.696196 
L 491.204732 107.939094 
L 491.941351 107.939094 
L 492.67797 115.817645 
L 493.414589 131.574746 
L 494.151209 115.817645 
L 494.887828 115.817645 
L 495.624447 123.696196 
L 496.361066 107.939094 
L 497.097686 107.939094 
L 497.834305 139.453297 
L 498.570924 123.696196 
L 499.307543 115.817645 
L 500.044163 100.060543 
L 500.780782 131.574746 
L 501.517401 100.060543 
L 502.25402 100.060543 
L 502.99064 131.574746 
L 503.727259 123.696196 
L 504.463878 100.060543 
L 505.200498 139.453297 
L 505.937117 123.696196 
L 506.673736 123.696196 
L 507.410355 139.453297 
L 508.146975 107.939094 
L 508.883594 107.939094 
L 509.620213 123.696196 
L 509.620213 123.696196 
" style="fill:none;stroke:#2ca02c;stroke-linecap:square;stroke-width:1.5;"/>
   </g>
   <g id="line2d_19">
    <path clip-path="url(#p7195e31830)" d="M 106.738095 139.453297 
L 107.474714 139.453297 
L 108.211333 123.696196 
L 108.947953 139.453297 
L 109.684572 139.453297 
L 110.421191 147.331848 
L 111.15781 115.817645 
L 111.89443 155.210399 
L 114.104287 107.939094 
L 115.577526 123.696196 
L 116.314145 123.696196 
L 117.050764 115.817645 
L 117.787384 131.574746 
L 118.524003 123.696196 
L 119.260622 107.939094 
L 119.997241 123.696196 
L 121.47048 107.939094 
L 122.207099 115.817645 
L 122.943718 115.817645 
L 123.680338 107.939094 
L 124.416957 123.696196 
L 125.153576 147.331848 
L 125.890196 115.817645 
L 126.626815 131.574746 
L 127.363434 115.817645 
L 128.100053 131.574746 
L 128.836673 139.453297 
L 129.573292 107.939094 
L 130.309911 139.453297 
L 131.04653 115.817645 
L 131.78315 123.696196 
L 132.519769 107.939094 
L 133.256388 107.939094 
L 133.993007 139.453297 
L 134.729627 131.574746 
L 135.466246 131.574746 
L 136.202865 100.060543 
L 136.939484 139.453297 
L 137.676104 123.696196 
L 139.149342 123.696196 
L 139.885961 131.574746 
L 140.622581 123.696196 
L 141.3592 100.060543 
L 142.095819 107.939094 
L 142.832439 123.696196 
L 143.569058 123.696196 
L 144.305677 107.939094 
L 145.042296 131.574746 
L 145.778916 131.574746 
L 146.515535 115.817645 
L 147.252154 139.453297 
L 147.988773 123.696196 
L 148.725393 123.696196 
L 149.462012 107.939094 
L 150.198631 131.574746 
L 150.93525 131.574746 
L 151.67187 147.331848 
L 152.408489 123.696196 
L 153.881727 107.939094 
L 154.618347 131.574746 
L 155.354966 107.939094 
L 156.091585 131.574746 
L 157.564824 115.817645 
L 158.301443 123.696196 
L 159.038062 123.696196 
L 159.774681 100.060543 
L 160.511301 123.696196 
L 161.24792 107.939094 
L 161.984539 123.696196 
L 162.721159 115.817645 
L 164.194397 131.574746 
L 164.931016 115.817645 
L 165.667636 107.939094 
L 166.404255 131.574746 
L 167.140874 115.817645 
L 167.877493 107.939094 
L 168.614113 123.696196 
L 170.087351 107.939094 
L 170.82397 139.453297 
L 171.56059 107.939094 
L 172.297209 123.696196 
L 173.033828 115.817645 
L 173.770447 123.696196 
L 174.507067 107.939094 
L 175.243686 107.939094 
L 175.980305 123.696196 
L 178.190163 123.696196 
L 178.926782 107.939094 
L 179.663401 139.453297 
L 180.400021 84.303442 
L 181.13664 139.453297 
L 182.609879 107.939094 
L 183.346498 123.696196 
L 184.083117 115.817645 
L 184.819736 155.210399 
L 185.556356 100.060543 
L 186.292975 100.060543 
L 187.029594 107.939094 
L 187.766213 123.696196 
L 188.502833 131.574746 
L 189.239452 115.817645 
L 189.976071 107.939094 
L 190.71269 147.331848 
L 191.44931 131.574746 
L 192.922548 115.817645 
L 193.659167 92.181993 
L 194.395787 123.696196 
L 195.132406 139.453297 
L 195.869025 107.939094 
L 197.342264 139.453297 
L 198.078883 107.939094 
L 198.815502 107.939094 
L 199.552122 115.817645 
L 201.02536 115.817645 
L 201.761979 131.574746 
L 202.498599 123.696196 
L 203.235218 123.696196 
L 203.971837 115.817645 
L 204.708456 84.303442 
L 205.445076 107.939094 
L 206.181695 123.696196 
L 206.918314 123.696196 
L 207.654933 115.817645 
L 208.391553 100.060543 
L 209.128172 123.696196 
L 210.60141 123.696196 
L 211.33803 115.817645 
L 212.074649 131.574746 
L 212.811268 100.060543 
L 213.547887 107.939094 
L 215.021126 139.453297 
L 215.757745 131.574746 
L 216.494364 115.817645 
L 217.230984 107.939094 
L 217.967603 139.453297 
L 218.704222 115.817645 
L 219.440842 123.696196 
L 220.177461 123.696196 
L 220.91408 139.453297 
L 222.387319 123.696196 
L 223.123938 123.696196 
L 223.860557 107.939094 
L 224.597176 107.939094 
L 226.070415 123.696196 
L 227.543653 107.939094 
L 229.016892 123.696196 
L 229.753511 107.939094 
L 230.49013 115.817645 
L 231.22675 107.939094 
L 231.963369 139.453297 
L 232.699988 107.939094 
L 233.436607 123.696196 
L 234.173227 107.939094 
L 234.909846 107.939094 
L 235.646465 139.453297 
L 236.383085 115.817645 
L 237.119704 115.817645 
L 237.856323 123.696196 
L 238.592942 115.817645 
L 239.329562 123.696196 
L 240.066181 123.696196 
L 240.8028 115.817645 
L 241.539419 131.574746 
L 243.012658 115.817645 
L 243.749277 115.817645 
L 244.485896 139.453297 
L 245.222516 123.696196 
L 245.959135 123.696196 
L 246.695754 107.939094 
L 247.432373 123.696196 
L 248.168993 123.696196 
L 248.905612 131.574746 
L 249.642231 131.574746 
L 250.37885 139.453297 
L 251.852089 107.939094 
L 252.588708 123.696196 
L 253.325327 100.060543 
L 254.061947 131.574746 
L 254.798566 107.939094 
L 255.535185 131.574746 
L 256.271805 123.696196 
L 257.008424 123.696196 
L 257.745043 115.817645 
L 259.954901 115.817645 
L 260.69152 123.696196 
L 261.428139 115.817645 
L 262.164759 131.574746 
L 262.901378 123.696196 
L 265.111236 123.696196 
L 265.847855 139.453297 
L 266.584474 123.696196 
L 268.057713 107.939094 
L 268.794332 123.696196 
L 269.530951 115.817645 
L 270.26757 123.696196 
L 271.740809 107.939094 
L 272.477428 115.817645 
L 273.214048 107.939094 
L 274.687286 123.696196 
L 275.423905 92.181993 
L 276.160525 131.574746 
L 276.897144 100.060543 
L 277.633763 139.453297 
L 278.370382 107.939094 
L 279.107002 123.696196 
L 279.843621 107.939094 
L 280.58024 107.939094 
L 281.316859 147.331848 
L 282.053479 123.696196 
L 283.526717 123.696196 
L 284.263336 107.939094 
L 284.999956 115.817645 
L 285.736575 107.939094 
L 287.209813 139.453297 
L 287.946433 123.696196 
L 288.683052 123.696196 
L 289.419671 131.574746 
L 290.15629 107.939094 
L 290.89291 107.939094 
L 291.629529 123.696196 
L 293.102768 123.696196 
L 293.839387 131.574746 
L 295.312625 131.574746 
L 296.049245 107.939094 
L 296.785864 123.696196 
L 297.522483 123.696196 
L 298.259102 100.060543 
L 298.995722 123.696196 
L 299.732341 123.696196 
L 300.46896 131.574746 
L 301.942199 115.817645 
L 302.678818 123.696196 
L 303.415437 147.331848 
L 304.152056 123.696196 
L 304.888676 123.696196 
L 305.625295 115.817645 
L 306.361914 123.696196 
L 307.098533 107.939094 
L 307.835153 123.696196 
L 308.571772 123.696196 
L 309.308391 131.574746 
L 310.045011 107.939094 
L 310.78163 107.939094 
L 311.518249 123.696196 
L 312.254868 123.696196 
L 312.991488 115.817645 
L 313.728107 123.696196 
L 314.464726 115.817645 
L 315.201345 123.696196 
L 315.937965 123.696196 
L 316.674584 131.574746 
L 317.411203 107.939094 
L 318.147822 115.817645 
L 318.884442 155.210399 
L 319.621061 123.696196 
L 320.35768 107.939094 
L 321.830919 123.696196 
L 322.567538 107.939094 
L 323.304157 100.060543 
L 324.040776 131.574746 
L 324.777396 107.939094 
L 325.514015 131.574746 
L 326.250634 139.453297 
L 326.987253 107.939094 
L 327.723873 139.453297 
L 328.460492 107.939094 
L 329.197111 100.060543 
L 330.67035 131.574746 
L 331.406969 107.939094 
L 332.143588 131.574746 
L 332.880208 100.060543 
L 335.826685 131.574746 
L 336.563304 107.939094 
L 337.299923 123.696196 
L 338.036542 123.696196 
L 338.773162 115.817645 
L 339.509781 139.453297 
L 340.2464 107.939094 
L 340.983019 115.817645 
L 341.719639 115.817645 
L 342.456258 123.696196 
L 343.192877 100.060543 
L 343.929496 123.696196 
L 344.666116 123.696196 
L 346.139354 107.939094 
L 346.875973 131.574746 
L 348.349212 131.574746 
L 349.822451 115.817645 
L 350.55907 139.453297 
L 351.295689 100.060543 
L 352.032308 123.696196 
L 353.505547 123.696196 
L 354.242166 107.939094 
L 354.978785 107.939094 
L 355.715405 139.453297 
L 356.452024 107.939094 
L 357.188643 123.696196 
L 357.925262 131.574746 
L 359.398501 131.574746 
L 360.13512 107.939094 
L 360.871739 139.453297 
L 361.608359 107.939094 
L 362.344978 131.574746 
L 363.081597 107.939094 
L 363.818216 115.817645 
L 364.554836 131.574746 
L 365.291455 107.939094 
L 366.028074 139.453297 
L 366.764694 123.696196 
L 368.974551 123.696196 
L 369.711171 115.817645 
L 370.44779 115.817645 
L 371.184409 131.574746 
L 371.921028 107.939094 
L 372.657648 115.817645 
L 373.394267 139.453297 
L 374.867505 123.696196 
L 375.604125 131.574746 
L 376.340744 123.696196 
L 377.077363 107.939094 
L 377.813982 107.939094 
L 378.550602 100.060543 
L 380.02384 115.817645 
L 380.760459 147.331848 
L 381.497079 123.696196 
L 382.233698 131.574746 
L 382.970317 107.939094 
L 383.706936 107.939094 
L 384.443556 131.574746 
L 385.180175 139.453297 
L 385.916794 115.817645 
L 386.653414 139.453297 
L 387.390033 123.696196 
L 388.126652 115.817645 
L 388.863271 131.574746 
L 390.33651 115.817645 
L 391.073129 123.696196 
L 391.809748 107.939094 
L 392.546368 131.574746 
L 393.282987 139.453297 
L 394.019606 123.696196 
L 394.756225 123.696196 
L 395.492845 92.181993 
L 396.229464 123.696196 
L 396.966083 107.939094 
L 397.702702 139.453297 
L 399.175941 107.939094 
L 399.91256 115.817645 
L 400.649179 131.574746 
L 401.385799 123.696196 
L 402.122418 123.696196 
L 402.859037 139.453297 
L 403.595657 131.574746 
L 404.332276 115.817645 
L 405.068895 123.696196 
L 405.805514 123.696196 
L 406.542134 115.817645 
L 407.278753 92.181993 
L 408.015372 115.817645 
L 408.751991 123.696196 
L 409.488611 123.696196 
L 410.22523 115.817645 
L 410.961849 139.453297 
L 411.698468 131.574746 
L 412.435088 139.453297 
L 413.171707 123.696196 
L 414.644945 123.696196 
L 415.381565 139.453297 
L 416.118184 123.696196 
L 417.591422 123.696196 
L 418.328042 131.574746 
L 419.064661 107.939094 
L 419.80128 123.696196 
L 420.537899 107.939094 
L 421.274519 123.696196 
L 422.011138 123.696196 
L 422.747757 107.939094 
L 423.484377 131.574746 
L 424.220996 115.817645 
L 424.957615 123.696196 
L 425.694234 139.453297 
L 426.430854 123.696196 
L 427.167473 123.696196 
L 427.904092 115.817645 
L 428.640711 123.696196 
L 429.377331 107.939094 
L 430.11395 107.939094 
L 430.850569 139.453297 
L 431.587188 107.939094 
L 433.060427 123.696196 
L 433.797046 107.939094 
L 434.533665 100.060543 
L 436.006904 147.331848 
L 436.743523 107.939094 
L 438.216762 123.696196 
L 439.69 123.696196 
L 440.42662 147.331848 
L 441.163239 123.696196 
L 443.373097 123.696196 
L 444.109716 131.574746 
L 444.846335 123.696196 
L 445.582954 123.696196 
L 446.319574 107.939094 
L 447.056193 123.696196 
L 448.529431 107.939094 
L 449.266051 139.453297 
L 450.739289 123.696196 
L 451.475908 107.939094 
L 452.949147 139.453297 
L 453.685766 123.696196 
L 454.422385 115.817645 
L 455.159005 131.574746 
L 455.895624 107.939094 
L 457.368862 123.696196 
L 460.31534 123.696196 
L 461.051959 139.453297 
L 461.788578 107.939094 
L 462.525197 123.696196 
L 463.261817 123.696196 
L 463.998436 107.939094 
L 464.735055 84.303442 
L 465.471674 107.939094 
L 466.208294 115.817645 
L 466.944913 115.817645 
L 467.681532 123.696196 
L 468.418151 147.331848 
L 469.154771 107.939094 
L 469.89139 123.696196 
L 470.628009 123.696196 
L 471.364628 115.817645 
L 472.101248 131.574746 
L 472.837867 107.939094 
L 473.574486 123.696196 
L 474.311105 115.817645 
L 475.047725 123.696196 
L 476.520963 92.181993 
L 477.257583 123.696196 
L 478.730821 123.696196 
L 479.46744 115.817645 
L 480.20406 155.210399 
L 480.940679 115.817645 
L 481.677298 107.939094 
L 482.413917 115.817645 
L 483.150537 115.817645 
L 483.887156 131.574746 
L 484.623775 107.939094 
L 486.097014 123.696196 
L 486.833633 115.817645 
L 487.570252 123.696196 
L 489.043491 123.696196 
L 490.516729 107.939094 
L 491.253348 107.939094 
L 491.989968 123.696196 
L 492.726587 107.939094 
L 493.463206 131.574746 
L 494.199825 76.424891 
L 494.936445 131.574746 
L 495.673064 131.574746 
L 496.409683 115.817645 
L 497.146303 107.939094 
L 497.882922 139.453297 
L 498.619541 107.939094 
L 499.35616 100.060543 
L 500.09278 139.453297 
L 500.829399 131.574746 
L 501.566018 100.060543 
L 502.302637 123.696196 
L 503.039257 107.939094 
L 503.775876 107.939094 
L 503.775876 107.939094 
" style="fill:none;stroke:#d62728;stroke-linecap:square;stroke-width:1.5;"/>
   </g>
   <g id="patch_3">
    <path d="M 83.472344 352.174167 
L 83.472344 35.0625 
" style="fill:none;stroke:#000000;stroke-linecap:square;stroke-linejoin:miter;stroke-width:0.8;"/>
   </g>
   <g id="patch_4">
    <path d="M 529.912969 352.174167 
L 529.912969 35.0625 
" style="fill:none;stroke:#000000;stroke-linecap:square;stroke-linejoin:miter;stroke-width:0.8;"/>
   </g>
   <g id="patch_5">
    <path d="M 83.472344 352.174167 
L 529.912969 352.174167 
" style="fill:none;stroke:#000000;stroke-linecap:square;stroke-linejoin:miter;stroke-width:0.8;"/>
   </g>
   <g id="patch_6">
    <path d="M 83.472344 35.0625 
L 529.912969 35.0625 
" style="fill:none;stroke:#000000;stroke-linecap:square;stroke-linejoin:miter;stroke-width:0.8;"/>
   </g>
   <g id="legend_1">
    <g id="patch_7">
     <path d="M 554.235 96.775 
L 625.430312 96.775 
Q 627.430312 96.775 627.430312 94.775 
L 627.430312 37.0625 
Q 627.430312 35.0625 625.430312 35.0625 
L 554.235 35.0625 
Q 552.235 35.0625 552.235 37.0625 
L 552.235 94.775 
Q 552.235 96.775 554.235 96.775 
z
" style="fill:#ffffff;opacity:0.8;stroke:#cccccc;stroke-linejoin:miter;"/>
    </g>
    <g id="line2d_20">
     <path d="M 556.235 43.160937 
L 576.235 43.160937 
" style="fill:none;stroke:#1f77b4;stroke-linecap:square;stroke-width:1.5;"/>
    </g>
    <g id="line2d_21"/>
    <g id="text_17">
     <!-- cubic-pi -->
     <defs>
      <path d="M 48.78125 52.59375 
L 48.78125 44.1875 
Q 44.96875 46.296875 41.140625 47.34375 
Q 37.3125 48.390625 33.40625 48.390625 
Q 24.65625 48.390625 19.8125 42.84375 
Q 14.984375 37.3125 14.984375 27.296875 
Q 14.984375 17.28125 19.8125 11.734375 
Q 24.65625 6.203125 33.40625 6.203125 
Q 37.3125 6.203125 41.140625 7.25 
Q 44.96875 8.296875 48.78125 10.40625 
L 48.78125 2.09375 
Q 45.015625 0.34375 40.984375 -0.53125 
Q 36.96875 -1.421875 32.421875 -1.421875 
Q 20.0625 -1.421875 12.78125 6.34375 
Q 5.515625 14.109375 5.515625 27.296875 
Q 5.515625 40.671875 12.859375 48.328125 
Q 20.21875 56 33.015625 56 
Q 37.15625 56 41.109375 55.140625 
Q 45.0625 54.296875 48.78125 52.59375 
z
" id="DejaVuSans-99"/>
      <path d="M 8.5 21.578125 
L 8.5 54.6875 
L 17.484375 54.6875 
L 17.484375 21.921875 
Q 17.484375 14.15625 20.5 10.265625 
Q 23.53125 6.390625 29.59375 6.390625 
Q 36.859375 6.390625 41.078125 11.03125 
Q 45.3125 15.671875 45.3125 23.6875 
L 45.3125 54.6875 
L 54.296875 54.6875 
L 54.296875 0 
L 45.3125 0 
L 45.3125 8.40625 
Q 42.046875 3.421875 37.71875 1 
Q 33.40625 -1.421875 27.6875 -1.421875 
Q 18.265625 -1.421875 13.375 4.4375 
Q 8.5 10.296875 8.5 21.578125 
z
M 31.109375 56 
z
" id="DejaVuSans-117"/>
      <path d="M 48.6875 27.296875 
Q 48.6875 37.203125 44.609375 42.84375 
Q 40.53125 48.484375 33.40625 48.484375 
Q 26.265625 48.484375 22.1875 42.84375 
Q 18.109375 37.203125 18.109375 27.296875 
Q 18.109375 17.390625 22.1875 11.75 
Q 26.265625 6.109375 33.40625 6.109375 
Q 40.53125 6.109375 44.609375 11.75 
Q 48.6875 17.390625 48.6875 27.296875 
z
M 18.109375 46.390625 
Q 20.953125 51.265625 25.265625 53.625 
Q 29.59375 56 35.59375 56 
Q 45.5625 56 51.78125 48.09375 
Q 58.015625 40.1875 58.015625 27.296875 
Q 58.015625 14.40625 51.78125 6.484375 
Q 45.5625 -1.421875 35.59375 -1.421875 
Q 29.59375 -1.421875 25.265625 0.953125 
Q 20.953125 3.328125 18.109375 8.203125 
L 18.109375 0 
L 9.078125 0 
L 9.078125 75.984375 
L 18.109375 75.984375 
z
" id="DejaVuSans-98"/>
      <path d="M 9.421875 54.6875 
L 18.40625 54.6875 
L 18.40625 0 
L 9.421875 0 
z
M 9.421875 75.984375 
L 18.40625 75.984375 
L 18.40625 64.59375 
L 9.421875 64.59375 
z
" id="DejaVuSans-105"/>
      <path d="M 4.890625 31.390625 
L 31.203125 31.390625 
L 31.203125 23.390625 
L 4.890625 23.390625 
z
" id="DejaVuSans-45"/>
      <path d="M 18.109375 8.203125 
L 18.109375 -20.796875 
L 9.078125 -20.796875 
L 9.078125 54.6875 
L 18.109375 54.6875 
L 18.109375 46.390625 
Q 20.953125 51.265625 25.265625 53.625 
Q 29.59375 56 35.59375 56 
Q 45.5625 56 51.78125 48.09375 
Q 58.015625 40.1875 58.015625 27.296875 
Q 58.015625 14.40625 51.78125 6.484375 
Q 45.5625 -1.421875 35.59375 -1.421875 
Q 29.59375 -1.421875 25.265625 0.953125 
Q 20.953125 3.328125 18.109375 8.203125 
z
M 48.6875 27.296875 
Q 48.6875 37.203125 44.609375 42.84375 
Q 40.53125 48.484375 33.40625 48.484375 
Q 26.265625 48.484375 22.1875 42.84375 
Q 18.109375 37.203125 18.109375 27.296875 
Q 18.109375 17.390625 22.1875 11.75 
Q 26.265625 6.109375 33.40625 6.109375 
Q 40.53125 6.109375 44.609375 11.75 
Q 48.6875 17.390625 48.6875 27.296875 
z
" id="DejaVuSans-112"/>
     </defs>
     <g transform="translate(584.235 46.660937)scale(0.1 -0.1)">
      <use xlink:href="#DejaVuSans-99"/>
      <use x="54.980469" xlink:href="#DejaVuSans-117"/>
      <use x="118.359375" xlink:href="#DejaVuSans-98"/>
      <use x="181.835938" xlink:href="#DejaVuSans-105"/>
      <use x="209.619141" xlink:href="#DejaVuSans-99"/>
      <use x="264.599609" xlink:href="#DejaVuSans-45"/>
      <use x="300.683594" xlink:href="#DejaVuSans-112"/>
      <use x="364.160156" xlink:href="#DejaVuSans-105"/>
     </g>
    </g>
    <g id="line2d_22">
     <path d="M 556.235 57.839063 
L 576.235 57.839063 
" style="fill:none;stroke:#ff7f0e;stroke-linecap:square;stroke-width:1.5;"/>
    </g>
    <g id="line2d_23"/>
    <g id="text_18">
     <!-- cubic-pi -->
     <g transform="translate(584.235 61.339063)scale(0.1 -0.1)">
      <use xlink:href="#DejaVuSans-99"/>
      <use x="54.980469" xlink:href="#DejaVuSans-117"/>
      <use x="118.359375" xlink:href="#DejaVuSans-98"/>
      <use x="181.835938" xlink:href="#DejaVuSans-105"/>
      <use x="209.619141" xlink:href="#DejaVuSans-99"/>
      <use x="264.599609" xlink:href="#DejaVuSans-45"/>
      <use x="300.683594" xlink:href="#DejaVuSans-112"/>
      <use x="364.160156" xlink:href="#DejaVuSans-105"/>
     </g>
    </g>
    <g id="line2d_24">
     <path d="M 556.235 72.517187 
L 576.235 72.517187 
" style="fill:none;stroke:#2ca02c;stroke-linecap:square;stroke-width:1.5;"/>
    </g>
    <g id="line2d_25"/>
    <g id="text_19">
     <!-- cubic-pi -->
     <g transform="translate(584.235 76.017187)scale(0.1 -0.1)">
      <use xlink:href="#DejaVuSans-99"/>
      <use x="54.980469" xlink:href="#DejaVuSans-117"/>
      <use x="118.359375" xlink:href="#DejaVuSans-98"/>
      <use x="181.835938" xlink:href="#DejaVuSans-105"/>
      <use x="209.619141" xlink:href="#DejaVuSans-99"/>
      <use x="264.599609" xlink:href="#DejaVuSans-45"/>
      <use x="300.683594" xlink:href="#DejaVuSans-112"/>
      <use x="364.160156" xlink:href="#DejaVuSans-105"/>
     </g>
    </g>
    <g id="line2d_26">
     <path d="M 556.235 87.195312 
L 576.235 87.195312 
" style="fill:none;stroke:#d62728;stroke-linecap:square;stroke-width:1.5;"/>
    </g>
    <g id="line2d_27"/>
    <g id="text_20">
     <!-- cubic-pi -->
     <g transform="translate(584.235 90.695312)scale(0.1 -0.1)">
      <use xlink:href="#DejaVuSans-99"/>
      <use x="54.980469" xlink:href="#DejaVuSans-117"/>
      <use x="118.359375" xlink:href="#DejaVuSans-98"/>
      <use x="181.835938" xlink:href="#DejaVuSans-105"/>
      <use x="209.619141" xlink:href="#DejaVuSans-99"/>
      <use x="264.599609" xlink:href="#DejaVuSans-45"/>
      <use x="300.683594" xlink:href="#DejaVuSans-112"/>
      <use x="364.160156" xlink:href="#DejaVuSans-105"/>
     </g>
    </g>
   </g>
  </g>
  <g id="text_21">
   <!-- result rtt -->
   <defs>
    <path d="M 56.203125 29.59375 
L 56.203125 25.203125 
L 14.890625 25.203125 
Q 15.484375 15.921875 20.484375 11.0625 
Q 25.484375 6.203125 34.421875 6.203125 
Q 39.59375 6.203125 44.453125 7.46875 
Q 49.3125 8.734375 54.109375 11.28125 
L 54.109375 2.78125 
Q 49.265625 0.734375 44.1875 -0.34375 
Q 39.109375 -1.421875 33.890625 -1.421875 
Q 20.796875 -1.421875 13.15625 6.1875 
Q 5.515625 13.8125 5.515625 26.8125 
Q 5.515625 40.234375 12.765625 48.109375 
Q 20.015625 56 32.328125 56 
Q 43.359375 56 49.78125 48.890625 
Q 56.203125 41.796875 56.203125 29.59375 
z
M 47.21875 32.234375 
Q 47.125 39.59375 43.09375 43.984375 
Q 39.0625 48.390625 32.421875 48.390625 
Q 24.90625 48.390625 20.390625 44.140625 
Q 15.875 39.890625 15.1875 32.171875 
z
" id="DejaVuSans-101"/>
    <path d="M 9.421875 75.984375 
L 18.40625 75.984375 
L 18.40625 0 
L 9.421875 0 
z
" id="DejaVuSans-108"/>
    <path id="DejaVuSans-32"/>
   </defs>
   <g transform="translate(315.818438 17.038125)scale(0.12 -0.12)">
    <use xlink:href="#DejaVuSans-114"/>
    <use x="41.082031" xlink:href="#DejaVuSans-101"/>
    <use x="102.605469" xlink:href="#DejaVuSans-115"/>
    <use x="154.705078" xlink:href="#DejaVuSans-117"/>
    <use x="218.083984" xlink:href="#DejaVuSans-108"/>
    <use x="245.867188" xlink:href="#DejaVuSans-116"/>
    <use x="285.076172" xlink:href="#DejaVuSans-32"/>
    <use x="316.863281" xlink:href="#DejaVuSans-114"/>
    <use x="357.976562" xlink:href="#DejaVuSans-116"/>
    <use x="397.185547" xlink:href="#DejaVuSans-116"/>
   </g>
  </g>
 </g>
 <defs>
  <clipPath id="p7195e31830">
   <rect height="317.111667" width="446.440625" x="83.472344" y="35.0625"/>
  </clipPath>
 </defs>
</svg>
