<?xml version="1.0" encoding="utf-8" standalone="no"?>
<!DOCTYPE svg PUBLIC "-//W3C//DTD SVG 1.1//EN"
  "http://www.w3.org/Graphics/SVG/1.1/DTD/svg11.dtd">
<!-- Created with matplotlib (https://matplotlib.org/) -->
<svg height="396pt" version="1.1" viewBox="0 0 684 396" width="684pt" xmlns="http://www.w3.org/2000/svg" xmlns:xlink="http://www.w3.org/1999/xlink">
 <defs>
  <style type="text/css">
*{stroke-linecap:butt;stroke-linejoin:round;}
  </style>
 </defs>
 <g id="figure_1">
  <g id="patch_1">
   <path d="M 0 396 
L 684 396 
L 684 0 
L 0 0 
z
" style="fill:#ffffff;"/>
  </g>
  <g id="axes_1">
   <g id="patch_2">
    <path d="M 83.472344 352.174167 
L 529.912969 352.174167 
L 529.912969 35.0625 
L 83.472344 35.0625 
z
" style="fill:#ffffff;"/>
   </g>
   <g id="matplotlib.axis_1">
    <g id="xtick_1">
     <g id="line2d_1">
      <defs>
       <path d="M 0 0 
L 0 3.5 
" id="m8a734c5b19" style="stroke:#000000;stroke-width:0.8;"/>
      </defs>
      <g>
       <use style="stroke:#000000;stroke-width:0.8;" x="103.765099" xlink:href="#m8a734c5b19" y="352.174167"/>
      </g>
     </g>
     <g id="text_1">
      <!-- 0 -->
      <defs>
       <path d="M 31.78125 66.40625 
Q 24.171875 66.40625 20.328125 58.90625 
Q 16.5 51.421875 16.5 36.375 
Q 16.5 21.390625 20.328125 13.890625 
Q 24.171875 6.390625 31.78125 6.390625 
Q 39.453125 6.390625 43.28125 13.890625 
Q 47.125 21.390625 47.125 36.375 
Q 47.125 51.421875 43.28125 58.90625 
Q 39.453125 66.40625 31.78125 66.40625 
z
M 31.78125 74.21875 
Q 44.046875 74.21875 50.515625 64.515625 
Q 56.984375 54.828125 56.984375 36.375 
Q 56.984375 17.96875 50.515625 8.265625 
Q 44.046875 -1.421875 31.78125 -1.421875 
Q 19.53125 -1.421875 13.0625 8.265625 
Q 6.59375 17.96875 6.59375 36.375 
Q 6.59375 54.828125 13.0625 64.515625 
Q 19.53125 74.21875 31.78125 74.21875 
z
" id="DejaVuSans-48"/>
      </defs>
      <g transform="translate(100.583849 366.772604)scale(0.1 -0.1)">
       <use xlink:href="#DejaVuSans-48"/>
      </g>
     </g>
    </g>
    <g id="xtick_2">
     <g id="line2d_2">
      <g>
       <use style="stroke:#000000;stroke-width:0.8;" x="177.275194" xlink:href="#m8a734c5b19" y="352.174167"/>
      </g>
     </g>
     <g id="text_2">
      <!-- 50 -->
      <defs>
       <path d="M 10.796875 72.90625 
L 49.515625 72.90625 
L 49.515625 64.59375 
L 19.828125 64.59375 
L 19.828125 46.734375 
Q 21.96875 47.46875 24.109375 47.828125 
Q 26.265625 48.1875 28.421875 48.1875 
Q 40.625 48.1875 47.75 41.5 
Q 54.890625 34.8125 54.890625 23.390625 
Q 54.890625 11.625 47.5625 5.09375 
Q 40.234375 -1.421875 26.90625 -1.421875 
Q 22.3125 -1.421875 17.546875 -0.640625 
Q 12.796875 0.140625 7.71875 1.703125 
L 7.71875 11.625 
Q 12.109375 9.234375 16.796875 8.0625 
Q 21.484375 6.890625 26.703125 6.890625 
Q 35.15625 6.890625 40.078125 11.328125 
Q 45.015625 15.765625 45.015625 23.390625 
Q 45.015625 31 40.078125 35.4375 
Q 35.15625 39.890625 26.703125 39.890625 
Q 22.75 39.890625 18.8125 39.015625 
Q 14.890625 38.140625 10.796875 36.28125 
z
" id="DejaVuSans-53"/>
      </defs>
      <g transform="translate(170.912694 366.772604)scale(0.1 -0.1)">
       <use xlink:href="#DejaVuSans-53"/>
       <use x="63.623047" xlink:href="#DejaVuSans-48"/>
      </g>
     </g>
    </g>
    <g id="xtick_3">
     <g id="line2d_3">
      <g>
       <use style="stroke:#000000;stroke-width:0.8;" x="250.785289" xlink:href="#m8a734c5b19" y="352.174167"/>
      </g>
     </g>
     <g id="text_3">
      <!-- 100 -->
      <defs>
       <path d="M 12.40625 8.296875 
L 28.515625 8.296875 
L 28.515625 63.921875 
L 10.984375 60.40625 
L 10.984375 69.390625 
L 28.421875 72.90625 
L 38.28125 72.90625 
L 38.28125 8.296875 
L 54.390625 8.296875 
L 54.390625 0 
L 12.40625 0 
z
" id="DejaVuSans-49"/>
      </defs>
      <g transform="translate(241.241539 366.772604)scale(0.1 -0.1)">
       <use xlink:href="#DejaVuSans-49"/>
       <use x="63.623047" xlink:href="#DejaVuSans-48"/>
       <use x="127.246094" xlink:href="#DejaVuSans-48"/>
      </g>
     </g>
    </g>
    <g id="xtick_4">
     <g id="line2d_4">
      <g>
       <use style="stroke:#000000;stroke-width:0.8;" x="324.295384" xlink:href="#m8a734c5b19" y="352.174167"/>
      </g>
     </g>
     <g id="text_4">
      <!-- 150 -->
      <g transform="translate(314.751634 366.772604)scale(0.1 -0.1)">
       <use xlink:href="#DejaVuSans-49"/>
       <use x="63.623047" xlink:href="#DejaVuSans-53"/>
       <use x="127.246094" xlink:href="#DejaVuSans-48"/>
      </g>
     </g>
    </g>
    <g id="xtick_5">
     <g id="line2d_5">
      <g>
       <use style="stroke:#000000;stroke-width:0.8;" x="397.805478" xlink:href="#m8a734c5b19" y="352.174167"/>
      </g>
     </g>
     <g id="text_5">
      <!-- 200 -->
      <defs>
       <path d="M 19.1875 8.296875 
L 53.609375 8.296875 
L 53.609375 0 
L 7.328125 0 
L 7.328125 8.296875 
Q 12.9375 14.109375 22.625 23.890625 
Q 32.328125 33.6875 34.8125 36.53125 
Q 39.546875 41.84375 41.421875 45.53125 
Q 43.3125 49.21875 43.3125 52.78125 
Q 43.3125 58.59375 39.234375 62.25 
Q 35.15625 65.921875 28.609375 65.921875 
Q 23.96875 65.921875 18.8125 64.3125 
Q 13.671875 62.703125 7.8125 59.421875 
L 7.8125 69.390625 
Q 13.765625 71.78125 18.9375 73 
Q 24.125 74.21875 28.421875 74.21875 
Q 39.75 74.21875 46.484375 68.546875 
Q 53.21875 62.890625 53.21875 53.421875 
Q 53.21875 48.921875 51.53125 44.890625 
Q 49.859375 40.875 45.40625 35.40625 
Q 44.1875 33.984375 37.640625 27.21875 
Q 31.109375 20.453125 19.1875 8.296875 
z
" id="DejaVuSans-50"/>
      </defs>
      <g transform="translate(388.261728 366.772604)scale(0.1 -0.1)">
       <use xlink:href="#DejaVuSans-50"/>
       <use x="63.623047" xlink:href="#DejaVuSans-48"/>
       <use x="127.246094" xlink:href="#DejaVuSans-48"/>
      </g>
     </g>
    </g>
    <g id="xtick_6">
     <g id="line2d_6">
      <g>
       <use style="stroke:#000000;stroke-width:0.8;" x="471.315573" xlink:href="#m8a734c5b19" y="352.174167"/>
      </g>
     </g>
     <g id="text_6">
      <!-- 250 -->
      <g transform="translate(461.771823 366.772604)scale(0.1 -0.1)">
       <use xlink:href="#DejaVuSans-50"/>
       <use x="63.623047" xlink:href="#DejaVuSans-53"/>
       <use x="127.246094" xlink:href="#DejaVuSans-48"/>
      </g>
     </g>
    </g>
   </g>
   <g id="matplotlib.axis_2">
    <g id="ytick_1">
     <g id="line2d_7">
      <defs>
       <path d="M 0 0 
L -3.5 0 
" id="m76f7687214" style="stroke:#000000;stroke-width:0.8;"/>
      </defs>
      <g>
       <use style="stroke:#000000;stroke-width:0.8;" x="83.472344" xlink:href="#m76f7687214" y="352.174167"/>
      </g>
     </g>
     <g id="text_7">
      <!-- 0 -->
      <g transform="translate(70.109844 355.973385)scale(0.1 -0.1)">
       <use xlink:href="#DejaVuSans-48"/>
      </g>
     </g>
    </g>
    <g id="ytick_2">
     <g id="line2d_8">
      <g>
       <use style="stroke:#000000;stroke-width:0.8;" x="83.472344" xlink:href="#m76f7687214" y="313.782924"/>
      </g>
     </g>
     <g id="text_8">
      <!-- 10 -->
      <g transform="translate(63.747344 317.582142)scale(0.1 -0.1)">
       <use xlink:href="#DejaVuSans-49"/>
       <use x="63.623047" xlink:href="#DejaVuSans-48"/>
      </g>
     </g>
    </g>
    <g id="ytick_3">
     <g id="line2d_9">
      <g>
       <use style="stroke:#000000;stroke-width:0.8;" x="83.472344" xlink:href="#m76f7687214" y="275.391681"/>
      </g>
     </g>
     <g id="text_9">
      <!-- 20 -->
      <g transform="translate(63.747344 279.1909)scale(0.1 -0.1)">
       <use xlink:href="#DejaVuSans-50"/>
       <use x="63.623047" xlink:href="#DejaVuSans-48"/>
      </g>
     </g>
    </g>
    <g id="ytick_4">
     <g id="line2d_10">
      <g>
       <use style="stroke:#000000;stroke-width:0.8;" x="83.472344" xlink:href="#m76f7687214" y="237.000438"/>
      </g>
     </g>
     <g id="text_10">
      <!-- 30 -->
      <defs>
       <path d="M 40.578125 39.3125 
Q 47.65625 37.796875 51.625 33 
Q 55.609375 28.21875 55.609375 21.1875 
Q 55.609375 10.40625 48.1875 4.484375 
Q 40.765625 -1.421875 27.09375 -1.421875 
Q 22.515625 -1.421875 17.65625 -0.515625 
Q 12.796875 0.390625 7.625 2.203125 
L 7.625 11.71875 
Q 11.71875 9.328125 16.59375 8.109375 
Q 21.484375 6.890625 26.8125 6.890625 
Q 36.078125 6.890625 40.9375 10.546875 
Q 45.796875 14.203125 45.796875 21.1875 
Q 45.796875 27.640625 41.28125 31.265625 
Q 36.765625 34.90625 28.71875 34.90625 
L 20.21875 34.90625 
L 20.21875 43.015625 
L 29.109375 43.015625 
Q 36.375 43.015625 40.234375 45.921875 
Q 44.09375 48.828125 44.09375 54.296875 
Q 44.09375 59.90625 40.109375 62.90625 
Q 36.140625 65.921875 28.71875 65.921875 
Q 24.65625 65.921875 20.015625 65.03125 
Q 15.375 64.15625 9.8125 62.3125 
L 9.8125 71.09375 
Q 15.4375 72.65625 20.34375 73.4375 
Q 25.25 74.21875 29.59375 74.21875 
Q 40.828125 74.21875 47.359375 69.109375 
Q 53.90625 64.015625 53.90625 55.328125 
Q 53.90625 49.265625 50.4375 45.09375 
Q 46.96875 40.921875 40.578125 39.3125 
z
" id="DejaVuSans-51"/>
      </defs>
      <g transform="translate(63.747344 240.799657)scale(0.1 -0.1)">
       <use xlink:href="#DejaVuSans-51"/>
       <use x="63.623047" xlink:href="#DejaVuSans-48"/>
      </g>
     </g>
    </g>
    <g id="ytick_5">
     <g id="line2d_11">
      <g>
       <use style="stroke:#000000;stroke-width:0.8;" x="83.472344" xlink:href="#m76f7687214" y="198.609195"/>
      </g>
     </g>
     <g id="text_11">
      <!-- 40 -->
      <defs>
       <path d="M 37.796875 64.3125 
L 12.890625 25.390625 
L 37.796875 25.390625 
z
M 35.203125 72.90625 
L 47.609375 72.90625 
L 47.609375 25.390625 
L 58.015625 25.390625 
L 58.015625 17.1875 
L 47.609375 17.1875 
L 47.609375 0 
L 37.796875 0 
L 37.796875 17.1875 
L 4.890625 17.1875 
L 4.890625 26.703125 
z
" id="DejaVuSans-52"/>
      </defs>
      <g transform="translate(63.747344 202.408414)scale(0.1 -0.1)">
       <use xlink:href="#DejaVuSans-52"/>
       <use x="63.623047" xlink:href="#DejaVuSans-48"/>
      </g>
     </g>
    </g>
    <g id="ytick_6">
     <g id="line2d_12">
      <g>
       <use style="stroke:#000000;stroke-width:0.8;" x="83.472344" xlink:href="#m76f7687214" y="160.217952"/>
      </g>
     </g>
     <g id="text_12">
      <!-- 50 -->
      <g transform="translate(63.747344 164.017171)scale(0.1 -0.1)">
       <use xlink:href="#DejaVuSans-53"/>
       <use x="63.623047" xlink:href="#DejaVuSans-48"/>
      </g>
     </g>
    </g>
    <g id="ytick_7">
     <g id="line2d_13">
      <g>
       <use style="stroke:#000000;stroke-width:0.8;" x="83.472344" xlink:href="#m76f7687214" y="121.826709"/>
      </g>
     </g>
     <g id="text_13">
      <!-- 60 -->
      <defs>
       <path d="M 33.015625 40.375 
Q 26.375 40.375 22.484375 35.828125 
Q 18.609375 31.296875 18.609375 23.390625 
Q 18.609375 15.53125 22.484375 10.953125 
Q 26.375 6.390625 33.015625 6.390625 
Q 39.65625 6.390625 43.53125 10.953125 
Q 47.40625 15.53125 47.40625 23.390625 
Q 47.40625 31.296875 43.53125 35.828125 
Q 39.65625 40.375 33.015625 40.375 
z
M 52.59375 71.296875 
L 52.59375 62.3125 
Q 48.875 64.0625 45.09375 64.984375 
Q 41.3125 65.921875 37.59375 65.921875 
Q 27.828125 65.921875 22.671875 59.328125 
Q 17.53125 52.734375 16.796875 39.40625 
Q 19.671875 43.65625 24.015625 45.921875 
Q 28.375 48.1875 33.59375 48.1875 
Q 44.578125 48.1875 50.953125 41.515625 
Q 57.328125 34.859375 57.328125 23.390625 
Q 57.328125 12.15625 50.6875 5.359375 
Q 44.046875 -1.421875 33.015625 -1.421875 
Q 20.359375 -1.421875 13.671875 8.265625 
Q 6.984375 17.96875 6.984375 36.375 
Q 6.984375 53.65625 15.1875 63.9375 
Q 23.390625 74.21875 37.203125 74.21875 
Q 40.921875 74.21875 44.703125 73.484375 
Q 48.484375 72.75 52.59375 71.296875 
z
" id="DejaVuSans-54"/>
      </defs>
      <g transform="translate(63.747344 125.625928)scale(0.1 -0.1)">
       <use xlink:href="#DejaVuSans-54"/>
       <use x="63.623047" xlink:href="#DejaVuSans-48"/>
      </g>
     </g>
    </g>
    <g id="ytick_8">
     <g id="line2d_14">
      <g>
       <use style="stroke:#000000;stroke-width:0.8;" x="83.472344" xlink:href="#m76f7687214" y="83.435466"/>
      </g>
     </g>
     <g id="text_14">
      <!-- 70 -->
      <defs>
       <path d="M 8.203125 72.90625 
L 55.078125 72.90625 
L 55.078125 68.703125 
L 28.609375 0 
L 18.3125 0 
L 43.21875 64.59375 
L 8.203125 64.59375 
z
" id="DejaVuSans-55"/>
      </defs>
      <g transform="translate(63.747344 87.234685)scale(0.1 -0.1)">
       <use xlink:href="#DejaVuSans-55"/>
       <use x="63.623047" xlink:href="#DejaVuSans-48"/>
      </g>
     </g>
    </g>
    <g id="ytick_9">
     <g id="line2d_15">
      <g>
       <use style="stroke:#000000;stroke-width:0.8;" x="83.472344" xlink:href="#m76f7687214" y="45.044223"/>
      </g>
     </g>
     <g id="text_15">
      <!-- 80 -->
      <defs>
       <path d="M 31.78125 34.625 
Q 24.75 34.625 20.71875 30.859375 
Q 16.703125 27.09375 16.703125 20.515625 
Q 16.703125 13.921875 20.71875 10.15625 
Q 24.75 6.390625 31.78125 6.390625 
Q 38.8125 6.390625 42.859375 10.171875 
Q 46.921875 13.96875 46.921875 20.515625 
Q 46.921875 27.09375 42.890625 30.859375 
Q 38.875 34.625 31.78125 34.625 
z
M 21.921875 38.8125 
Q 15.578125 40.375 12.03125 44.71875 
Q 8.5 49.078125 8.5 55.328125 
Q 8.5 64.0625 14.71875 69.140625 
Q 20.953125 74.21875 31.78125 74.21875 
Q 42.671875 74.21875 48.875 69.140625 
Q 55.078125 64.0625 55.078125 55.328125 
Q 55.078125 49.078125 51.53125 44.71875 
Q 48 40.375 41.703125 38.8125 
Q 48.828125 37.15625 52.796875 32.3125 
Q 56.78125 27.484375 56.78125 20.515625 
Q 56.78125 9.90625 50.3125 4.234375 
Q 43.84375 -1.421875 31.78125 -1.421875 
Q 19.734375 -1.421875 13.25 4.234375 
Q 6.78125 9.90625 6.78125 20.515625 
Q 6.78125 27.484375 10.78125 32.3125 
Q 14.796875 37.15625 21.921875 38.8125 
z
M 18.3125 54.390625 
Q 18.3125 48.734375 21.84375 45.5625 
Q 25.390625 42.390625 31.78125 42.390625 
Q 38.140625 42.390625 41.71875 45.5625 
Q 45.3125 48.734375 45.3125 54.390625 
Q 45.3125 60.0625 41.71875 63.234375 
Q 38.140625 66.40625 31.78125 66.40625 
Q 25.390625 66.40625 21.84375 63.234375 
Q 18.3125 60.0625 18.3125 54.390625 
z
" id="DejaVuSans-56"/>
      </defs>
      <g transform="translate(63.747344 48.843442)scale(0.1 -0.1)">
       <use xlink:href="#DejaVuSans-56"/>
       <use x="63.623047" xlink:href="#DejaVuSans-48"/>
      </g>
     </g>
    </g>
    <g id="text_16">
     <!-- throughput -->
     <defs>
      <path d="M 18.3125 70.21875 
L 18.3125 54.6875 
L 36.8125 54.6875 
L 36.8125 47.703125 
L 18.3125 47.703125 
L 18.3125 18.015625 
Q 18.3125 11.328125 20.140625 9.421875 
Q 21.96875 7.515625 27.59375 7.515625 
L 36.8125 7.515625 
L 36.8125 0 
L 27.59375 0 
Q 17.1875 0 13.234375 3.875 
Q 9.28125 7.765625 9.28125 18.015625 
L 9.28125 47.703125 
L 2.6875 47.703125 
L 2.6875 54.6875 
L 9.28125 54.6875 
L 9.28125 70.21875 
z
" id="DejaVuSans-116"/>
      <path d="M 54.890625 33.015625 
L 54.890625 0 
L 45.90625 0 
L 45.90625 32.71875 
Q 45.90625 40.484375 42.875 44.328125 
Q 39.84375 48.1875 33.796875 48.1875 
Q 26.515625 48.1875 22.3125 43.546875 
Q 18.109375 38.921875 18.109375 30.90625 
L 18.109375 0 
L 9.078125 0 
L 9.078125 75.984375 
L 18.109375 75.984375 
L 18.109375 46.1875 
Q 21.34375 51.125 25.703125 53.5625 
Q 30.078125 56 35.796875 56 
Q 45.21875 56 50.046875 50.171875 
Q 54.890625 44.34375 54.890625 33.015625 
z
" id="DejaVuSans-104"/>
      <path d="M 41.109375 46.296875 
Q 39.59375 47.171875 37.8125 47.578125 
Q 36.03125 48 33.890625 48 
Q 26.265625 48 22.1875 43.046875 
Q 18.109375 38.09375 18.109375 28.8125 
L 18.109375 0 
L 9.078125 0 
L 9.078125 54.6875 
L 18.109375 54.6875 
L 18.109375 46.1875 
Q 20.953125 51.171875 25.484375 53.578125 
Q 30.03125 56 36.53125 56 
Q 37.453125 56 38.578125 55.875 
Q 39.703125 55.765625 41.0625 55.515625 
z
" id="DejaVuSans-114"/>
      <path d="M 30.609375 48.390625 
Q 23.390625 48.390625 19.1875 42.75 
Q 14.984375 37.109375 14.984375 27.296875 
Q 14.984375 17.484375 19.15625 11.84375 
Q 23.34375 6.203125 30.609375 6.203125 
Q 37.796875 6.203125 41.984375 11.859375 
Q 46.1875 17.53125 46.1875 27.296875 
Q 46.1875 37.015625 41.984375 42.703125 
Q 37.796875 48.390625 30.609375 48.390625 
z
M 30.609375 56 
Q 42.328125 56 49.015625 48.375 
Q 55.71875 40.765625 55.71875 27.296875 
Q 55.71875 13.875 49.015625 6.21875 
Q 42.328125 -1.421875 30.609375 -1.421875 
Q 18.84375 -1.421875 12.171875 6.21875 
Q 5.515625 13.875 5.515625 27.296875 
Q 5.515625 40.765625 12.171875 48.375 
Q 18.84375 56 30.609375 56 
z
" id="DejaVuSans-111"/>
      <path d="M 8.5 21.578125 
L 8.5 54.6875 
L 17.484375 54.6875 
L 17.484375 21.921875 
Q 17.484375 14.15625 20.5 10.265625 
Q 23.53125 6.390625 29.59375 6.390625 
Q 36.859375 6.390625 41.078125 11.03125 
Q 45.3125 15.671875 45.3125 23.6875 
L 45.3125 54.6875 
L 54.296875 54.6875 
L 54.296875 0 
L 45.3125 0 
L 45.3125 8.40625 
Q 42.046875 3.421875 37.71875 1 
Q 33.40625 -1.421875 27.6875 -1.421875 
Q 18.265625 -1.421875 13.375 4.4375 
Q 8.5 10.296875 8.5 21.578125 
z
M 31.109375 56 
z
" id="DejaVuSans-117"/>
      <path d="M 45.40625 27.984375 
Q 45.40625 37.75 41.375 43.109375 
Q 37.359375 48.484375 30.078125 48.484375 
Q 22.859375 48.484375 18.828125 43.109375 
Q 14.796875 37.75 14.796875 27.984375 
Q 14.796875 18.265625 18.828125 12.890625 
Q 22.859375 7.515625 30.078125 7.515625 
Q 37.359375 7.515625 41.375 12.890625 
Q 45.40625 18.265625 45.40625 27.984375 
z
M 54.390625 6.78125 
Q 54.390625 -7.171875 48.1875 -13.984375 
Q 42 -20.796875 29.203125 -20.796875 
Q 24.46875 -20.796875 20.265625 -20.09375 
Q 16.0625 -19.390625 12.109375 -17.921875 
L 12.109375 -9.1875 
Q 16.0625 -11.328125 19.921875 -12.34375 
Q 23.78125 -13.375 27.78125 -13.375 
Q 36.625 -13.375 41.015625 -8.765625 
Q 45.40625 -4.15625 45.40625 5.171875 
L 45.40625 9.625 
Q 42.625 4.78125 38.28125 2.390625 
Q 33.9375 0 27.875 0 
Q 17.828125 0 11.671875 7.65625 
Q 5.515625 15.328125 5.515625 27.984375 
Q 5.515625 40.671875 11.671875 48.328125 
Q 17.828125 56 27.875 56 
Q 33.9375 56 38.28125 53.609375 
Q 42.625 51.21875 45.40625 46.390625 
L 45.40625 54.6875 
L 54.390625 54.6875 
z
" id="DejaVuSans-103"/>
      <path d="M 18.109375 8.203125 
L 18.109375 -20.796875 
L 9.078125 -20.796875 
L 9.078125 54.6875 
L 18.109375 54.6875 
L 18.109375 46.390625 
Q 20.953125 51.265625 25.265625 53.625 
Q 29.59375 56 35.59375 56 
Q 45.5625 56 51.78125 48.09375 
Q 58.015625 40.1875 58.015625 27.296875 
Q 58.015625 14.40625 51.78125 6.484375 
Q 45.5625 -1.421875 35.59375 -1.421875 
Q 29.59375 -1.421875 25.265625 0.953125 
Q 20.953125 3.328125 18.109375 8.203125 
z
M 48.6875 27.296875 
Q 48.6875 37.203125 44.609375 42.84375 
Q 40.53125 48.484375 33.40625 48.484375 
Q 26.265625 48.484375 22.1875 42.84375 
Q 18.109375 37.203125 18.109375 27.296875 
Q 18.109375 17.390625 22.1875 11.75 
Q 26.265625 6.109375 33.40625 6.109375 
Q 40.53125 6.109375 44.609375 11.75 
Q 48.6875 17.390625 48.6875 27.296875 
z
" id="DejaVuSans-112"/>
     </defs>
     <g transform="translate(46.469844 221.675365)rotate(-90)scale(0.1 -0.1)">
      <use xlink:href="#DejaVuSans-116"/>
      <use x="39.208984" xlink:href="#DejaVuSans-104"/>
      <use x="102.587891" xlink:href="#DejaVuSans-114"/>
      <use x="143.669922" xlink:href="#DejaVuSans-111"/>
      <use x="204.851562" xlink:href="#DejaVuSans-117"/>
      <use x="268.230469" xlink:href="#DejaVuSans-103"/>
      <use x="331.707031" xlink:href="#DejaVuSans-104"/>
      <use x="395.085938" xlink:href="#DejaVuSans-112"/>
      <use x="458.5625" xlink:href="#DejaVuSans-117"/>
      <use x="521.941406" xlink:href="#DejaVuSans-116"/>
     </g>
     <!-- (mbit / second) -->
     <defs>
      <path d="M 31 75.875 
Q 24.46875 64.65625 21.28125 53.65625 
Q 18.109375 42.671875 18.109375 31.390625 
Q 18.109375 20.125 21.3125 9.0625 
Q 24.515625 -2 31 -13.1875 
L 23.1875 -13.1875 
Q 15.875 -1.703125 12.234375 9.375 
Q 8.59375 20.453125 8.59375 31.390625 
Q 8.59375 42.28125 12.203125 53.3125 
Q 15.828125 64.359375 23.1875 75.875 
z
" id="DejaVuSans-40"/>
      <path d="M 52 44.1875 
Q 55.375 50.25 60.0625 53.125 
Q 64.75 56 71.09375 56 
Q 79.640625 56 84.28125 50.015625 
Q 88.921875 44.046875 88.921875 33.015625 
L 88.921875 0 
L 79.890625 0 
L 79.890625 32.71875 
Q 79.890625 40.578125 77.09375 44.375 
Q 74.3125 48.1875 68.609375 48.1875 
Q 61.625 48.1875 57.5625 43.546875 
Q 53.515625 38.921875 53.515625 30.90625 
L 53.515625 0 
L 44.484375 0 
L 44.484375 32.71875 
Q 44.484375 40.625 41.703125 44.40625 
Q 38.921875 48.1875 33.109375 48.1875 
Q 26.21875 48.1875 22.15625 43.53125 
Q 18.109375 38.875 18.109375 30.90625 
L 18.109375 0 
L 9.078125 0 
L 9.078125 54.6875 
L 18.109375 54.6875 
L 18.109375 46.1875 
Q 21.1875 51.21875 25.484375 53.609375 
Q 29.78125 56 35.6875 56 
Q 41.65625 56 45.828125 52.96875 
Q 50 49.953125 52 44.1875 
z
" id="DejaVuSans-109"/>
      <path d="M 48.6875 27.296875 
Q 48.6875 37.203125 44.609375 42.84375 
Q 40.53125 48.484375 33.40625 48.484375 
Q 26.265625 48.484375 22.1875 42.84375 
Q 18.109375 37.203125 18.109375 27.296875 
Q 18.109375 17.390625 22.1875 11.75 
Q 26.265625 6.109375 33.40625 6.109375 
Q 40.53125 6.109375 44.609375 11.75 
Q 48.6875 17.390625 48.6875 27.296875 
z
M 18.109375 46.390625 
Q 20.953125 51.265625 25.265625 53.625 
Q 29.59375 56 35.59375 56 
Q 45.5625 56 51.78125 48.09375 
Q 58.015625 40.1875 58.015625 27.296875 
Q 58.015625 14.40625 51.78125 6.484375 
Q 45.5625 -1.421875 35.59375 -1.421875 
Q 29.59375 -1.421875 25.265625 0.953125 
Q 20.953125 3.328125 18.109375 8.203125 
L 18.109375 0 
L 9.078125 0 
L 9.078125 75.984375 
L 18.109375 75.984375 
z
" id="DejaVuSans-98"/>
      <path d="M 9.421875 54.6875 
L 18.40625 54.6875 
L 18.40625 0 
L 9.421875 0 
z
M 9.421875 75.984375 
L 18.40625 75.984375 
L 18.40625 64.59375 
L 9.421875 64.59375 
z
" id="DejaVuSans-105"/>
      <path id="DejaVuSans-32"/>
      <path d="M 25.390625 72.90625 
L 33.6875 72.90625 
L 8.296875 -9.28125 
L 0 -9.28125 
z
" id="DejaVuSans-47"/>
      <path d="M 44.28125 53.078125 
L 44.28125 44.578125 
Q 40.484375 46.53125 36.375 47.5 
Q 32.28125 48.484375 27.875 48.484375 
Q 21.1875 48.484375 17.84375 46.4375 
Q 14.5 44.390625 14.5 40.28125 
Q 14.5 37.15625 16.890625 35.375 
Q 19.28125 33.59375 26.515625 31.984375 
L 29.59375 31.296875 
Q 39.15625 29.25 43.1875 25.515625 
Q 47.21875 21.78125 47.21875 15.09375 
Q 47.21875 7.46875 41.1875 3.015625 
Q 35.15625 -1.421875 24.609375 -1.421875 
Q 20.21875 -1.421875 15.453125 -0.5625 
Q 10.6875 0.296875 5.421875 2 
L 5.421875 11.28125 
Q 10.40625 8.6875 15.234375 7.390625 
Q 20.0625 6.109375 24.8125 6.109375 
Q 31.15625 6.109375 34.5625 8.28125 
Q 37.984375 10.453125 37.984375 14.40625 
Q 37.984375 18.0625 35.515625 20.015625 
Q 33.0625 21.96875 24.703125 23.78125 
L 21.578125 24.515625 
Q 13.234375 26.265625 9.515625 29.90625 
Q 5.8125 33.546875 5.8125 39.890625 
Q 5.8125 47.609375 11.28125 51.796875 
Q 16.75 56 26.8125 56 
Q 31.78125 56 36.171875 55.265625 
Q 40.578125 54.546875 44.28125 53.078125 
z
" id="DejaVuSans-115"/>
      <path d="M 56.203125 29.59375 
L 56.203125 25.203125 
L 14.890625 25.203125 
Q 15.484375 15.921875 20.484375 11.0625 
Q 25.484375 6.203125 34.421875 6.203125 
Q 39.59375 6.203125 44.453125 7.46875 
Q 49.3125 8.734375 54.109375 11.28125 
L 54.109375 2.78125 
Q 49.265625 0.734375 44.1875 -0.34375 
Q 39.109375 -1.421875 33.890625 -1.421875 
Q 20.796875 -1.421875 13.15625 6.1875 
Q 5.515625 13.8125 5.515625 26.8125 
Q 5.515625 40.234375 12.765625 48.109375 
Q 20.015625 56 32.328125 56 
Q 43.359375 56 49.78125 48.890625 
Q 56.203125 41.796875 56.203125 29.59375 
z
M 47.21875 32.234375 
Q 47.125 39.59375 43.09375 43.984375 
Q 39.0625 48.390625 32.421875 48.390625 
Q 24.90625 48.390625 20.390625 44.140625 
Q 15.875 39.890625 15.1875 32.171875 
z
" id="DejaVuSans-101"/>
      <path d="M 48.78125 52.59375 
L 48.78125 44.1875 
Q 44.96875 46.296875 41.140625 47.34375 
Q 37.3125 48.390625 33.40625 48.390625 
Q 24.65625 48.390625 19.8125 42.84375 
Q 14.984375 37.3125 14.984375 27.296875 
Q 14.984375 17.28125 19.8125 11.734375 
Q 24.65625 6.203125 33.40625 6.203125 
Q 37.3125 6.203125 41.140625 7.25 
Q 44.96875 8.296875 48.78125 10.40625 
L 48.78125 2.09375 
Q 45.015625 0.34375 40.984375 -0.53125 
Q 36.96875 -1.421875 32.421875 -1.421875 
Q 20.0625 -1.421875 12.78125 6.34375 
Q 5.515625 14.109375 5.515625 27.296875 
Q 5.515625 40.671875 12.859375 48.328125 
Q 20.21875 56 33.015625 56 
Q 37.15625 56 41.109375 55.140625 
Q 45.0625 54.296875 48.78125 52.59375 
z
" id="DejaVuSans-99"/>
      <path d="M 54.890625 33.015625 
L 54.890625 0 
L 45.90625 0 
L 45.90625 32.71875 
Q 45.90625 40.484375 42.875 44.328125 
Q 39.84375 48.1875 33.796875 48.1875 
Q 26.515625 48.1875 22.3125 43.546875 
Q 18.109375 38.921875 18.109375 30.90625 
L 18.109375 0 
L 9.078125 0 
L 9.078125 54.6875 
L 18.109375 54.6875 
L 18.109375 46.1875 
Q 21.34375 51.125 25.703125 53.5625 
Q 30.078125 56 35.796875 56 
Q 45.21875 56 50.046875 50.171875 
Q 54.890625 44.34375 54.890625 33.015625 
z
" id="DejaVuSans-110"/>
      <path d="M 45.40625 46.390625 
L 45.40625 75.984375 
L 54.390625 75.984375 
L 54.390625 0 
L 45.40625 0 
L 45.40625 8.203125 
Q 42.578125 3.328125 38.25 0.953125 
Q 33.9375 -1.421875 27.875 -1.421875 
Q 17.96875 -1.421875 11.734375 6.484375 
Q 5.515625 14.40625 5.515625 27.296875 
Q 5.515625 40.1875 11.734375 48.09375 
Q 17.96875 56 27.875 56 
Q 33.9375 56 38.25 53.625 
Q 42.578125 51.265625 45.40625 46.390625 
z
M 14.796875 27.296875 
Q 14.796875 17.390625 18.875 11.75 
Q 22.953125 6.109375 30.078125 6.109375 
Q 37.203125 6.109375 41.296875 11.75 
Q 45.40625 17.390625 45.40625 27.296875 
Q 45.40625 37.203125 41.296875 42.84375 
Q 37.203125 48.484375 30.078125 48.484375 
Q 22.953125 48.484375 18.875 42.84375 
Q 14.796875 37.203125 14.796875 27.296875 
z
" id="DejaVuSans-100"/>
      <path d="M 8.015625 75.875 
L 15.828125 75.875 
Q 23.140625 64.359375 26.78125 53.3125 
Q 30.421875 42.28125 30.421875 31.390625 
Q 30.421875 20.453125 26.78125 9.375 
Q 23.140625 -1.703125 15.828125 -13.1875 
L 8.015625 -13.1875 
Q 14.5 -2 17.703125 9.0625 
Q 20.90625 20.125 20.90625 31.390625 
Q 20.90625 42.671875 17.703125 53.65625 
Q 14.5 64.65625 8.015625 75.875 
z
" id="DejaVuSans-41"/>
     </defs>
     <g transform="translate(57.667656 231.608958)rotate(-90)scale(0.1 -0.1)">
      <use xlink:href="#DejaVuSans-40"/>
      <use x="39.013672" xlink:href="#DejaVuSans-109"/>
      <use x="136.425781" xlink:href="#DejaVuSans-98"/>
      <use x="199.902344" xlink:href="#DejaVuSans-105"/>
      <use x="227.685547" xlink:href="#DejaVuSans-116"/>
      <use x="266.894531" xlink:href="#DejaVuSans-32"/>
      <use x="298.681641" xlink:href="#DejaVuSans-47"/>
      <use x="332.373047" xlink:href="#DejaVuSans-32"/>
      <use x="364.160156" xlink:href="#DejaVuSans-115"/>
      <use x="416.259766" xlink:href="#DejaVuSans-101"/>
      <use x="477.783203" xlink:href="#DejaVuSans-99"/>
      <use x="532.763672" xlink:href="#DejaVuSans-111"/>
      <use x="593.945312" xlink:href="#DejaVuSans-110"/>
      <use x="657.324219" xlink:href="#DejaVuSans-100"/>
      <use x="720.800781" xlink:href="#DejaVuSans-41"/>
     </g>
    </g>
   </g>
   <g id="line2d_16">
    <path clip-path="url(#p8c00fe9e35)" d="M 103.765099 102.631088 
L 104.5002 48.883347 
L 105.970402 48.883347 
L 106.705503 91.113715 
L 107.440604 110.309336 
L 108.175705 110.309336 
L 108.910806 106.470212 
L 109.645907 187.091822 
L 110.381008 233.161314 
L 111.116109 248.517811 
L 112.586311 294.587302 
L 113.321412 294.587302 
L 114.056513 290.748178 
L 114.791614 290.748178 
L 115.526715 271.552556 
L 116.261816 271.552556 
L 116.996916 283.069929 
L 117.732017 290.748178 
L 118.467118 290.748178 
L 119.202219 271.552556 
L 119.93732 283.069929 
L 120.672421 267.713432 
L 121.407522 267.713432 
L 122.142623 279.230805 
L 122.877724 294.587302 
L 123.612825 290.748178 
L 125.818128 290.748178 
L 126.553229 294.587302 
L 127.28833 286.909054 
L 128.023431 283.069929 
L 130.228734 294.587302 
L 130.963834 279.230805 
L 131.698935 267.713432 
L 132.434036 267.713432 
L 133.169137 275.391681 
L 133.904238 275.391681 
L 134.639339 256.196059 
L 135.37444 256.196059 
L 136.109541 286.909054 
L 136.844642 275.391681 
L 137.579743 256.196059 
L 139.049945 294.587302 
L 139.785046 294.587302 
L 140.520147 275.391681 
L 141.255248 263.874308 
L 141.990349 275.391681 
L 142.72545 275.391681 
L 143.460551 267.713432 
L 144.195652 252.356935 
L 144.930752 248.517811 
L 146.400954 286.909054 
L 147.136055 290.748178 
L 147.871156 290.748178 
L 148.606257 294.587302 
L 149.341358 279.230805 
L 150.076459 260.035184 
L 150.81156 256.196059 
L 152.281762 279.230805 
L 153.016863 263.874308 
L 153.751964 244.678686 
L 154.487065 263.874308 
L 155.222166 260.035184 
L 155.957267 267.713432 
L 156.692368 279.230805 
L 157.427469 260.035184 
L 158.16257 275.391681 
L 158.89767 260.035184 
L 159.632771 248.517811 
L 160.367872 244.678686 
L 161.102973 256.196059 
L 161.838074 271.552556 
L 162.573175 271.552556 
L 163.308276 279.230805 
L 164.043377 283.069929 
L 164.778478 267.713432 
L 165.513579 275.391681 
L 166.24868 279.230805 
L 166.983781 286.909054 
L 167.718882 286.909054 
L 168.453983 279.230805 
L 169.924185 302.265551 
L 170.659286 302.265551 
L 171.394387 298.426427 
L 172.129488 306.104675 
L 172.864588 309.943799 
L 174.33479 294.587302 
L 175.069891 275.391681 
L 175.804992 275.391681 
L 176.540093 294.587302 
L 177.275194 283.069929 
L 178.010295 279.230805 
L 178.745396 294.587302 
L 179.480497 286.909054 
L 180.950699 256.196059 
L 181.6858 271.552556 
L 182.420901 275.391681 
L 183.156002 275.391681 
L 183.891103 279.230805 
L 184.626204 271.552556 
L 185.361305 252.356935 
L 186.096405 256.196059 
L 187.566607 279.230805 
L 188.301708 283.069929 
L 189.77191 283.069929 
L 190.507011 286.909054 
L 191.242112 294.587302 
L 191.977213 279.230805 
L 192.712314 267.713432 
L 193.447415 286.909054 
L 194.182516 294.587302 
L 194.917617 286.909054 
L 195.652718 271.552556 
L 196.387819 263.874308 
L 197.12292 271.552556 
L 197.858021 256.196059 
L 198.593122 271.552556 
L 199.328223 252.356935 
L 200.063323 240.839562 
L 200.798424 221.643941 
L 202.268626 260.035184 
L 203.003727 252.356935 
L 203.738828 233.161314 
L 204.473929 229.322189 
L 205.944131 252.356935 
L 206.679232 256.196059 
L 207.414333 275.391681 
L 208.149434 290.748178 
L 208.884535 294.587302 
L 209.619636 290.748178 
L 210.354737 275.391681 
L 211.089838 279.230805 
L 211.824939 275.391681 
L 212.56004 275.391681 
L 213.295141 271.552556 
L 214.030241 279.230805 
L 214.765342 290.748178 
L 215.500443 279.230805 
L 216.235544 260.035184 
L 216.970645 271.552556 
L 217.705746 260.035184 
L 218.440847 275.391681 
L 219.175948 286.909054 
L 219.911049 263.874308 
L 221.381251 279.230805 
L 222.116352 275.391681 
L 222.851453 260.035184 
L 223.586554 260.035184 
L 224.321655 267.713432 
L 225.056756 279.230805 
L 225.791857 294.587302 
L 226.526958 294.587302 
L 227.262059 290.748178 
L 227.997159 298.426427 
L 228.73226 294.587302 
L 229.467361 275.391681 
L 230.202462 279.230805 
L 230.937563 279.230805 
L 231.672664 271.552556 
L 232.407765 279.230805 
L 233.877967 286.909054 
L 234.613068 298.426427 
L 235.348169 286.909054 
L 236.08327 290.748178 
L 236.818371 290.748178 
L 237.553472 283.069929 
L 238.288573 260.035184 
L 239.023674 240.839562 
L 239.758775 256.196059 
L 240.493876 267.713432 
L 241.228977 267.713432 
L 241.964077 279.230805 
L 242.699178 275.391681 
L 243.434279 283.069929 
L 244.16938 286.909054 
L 245.639582 256.196059 
L 246.374683 256.196059 
L 247.109784 260.035184 
L 247.844885 252.356935 
L 248.579986 263.874308 
L 249.315087 240.839562 
L 251.52039 252.356935 
L 252.255491 260.035184 
L 253.725693 283.069929 
L 254.460794 283.069929 
L 255.195895 294.587302 
L 255.930995 302.265551 
L 256.666096 290.748178 
L 257.401197 283.069929 
L 258.136298 283.069929 
L 258.871399 263.874308 
L 259.6065 275.391681 
L 260.341601 263.874308 
L 261.076702 271.552556 
L 261.811803 263.874308 
L 262.546904 267.713432 
L 263.282005 275.391681 
L 264.017106 275.391681 
L 264.752207 271.552556 
L 265.487308 275.391681 
L 266.222409 260.035184 
L 266.95751 267.713432 
L 268.427712 275.391681 
L 269.162813 294.587302 
L 269.897913 290.748178 
L 270.633014 283.069929 
L 271.368115 283.069929 
L 272.103216 279.230805 
L 272.838317 279.230805 
L 274.308519 248.517811 
L 275.04362 244.678686 
L 276.513822 275.391681 
L 277.248923 275.391681 
L 277.984024 263.874308 
L 278.719125 248.517811 
L 279.454226 237.000438 
L 280.189327 252.356935 
L 280.924428 271.552556 
L 282.39463 279.230805 
L 283.12973 286.909054 
L 283.864831 290.748178 
L 285.335033 313.782924 
L 286.070134 313.782924 
L 287.540336 306.104675 
L 288.275437 290.748178 
L 289.010538 290.748178 
L 289.745639 306.104675 
L 290.48074 306.104675 
L 291.215841 290.748178 
L 291.950942 279.230805 
L 292.686043 283.069929 
L 293.421144 294.587302 
L 294.156245 286.909054 
L 294.891346 286.909054 
L 295.626447 298.426427 
L 296.361548 298.426427 
L 297.831749 306.104675 
L 298.56685 302.265551 
L 299.301951 306.104675 
L 300.037052 302.265551 
L 300.772153 286.909054 
L 301.507254 267.713432 
L 302.242355 267.713432 
L 302.977456 275.391681 
L 303.712557 279.230805 
L 304.447658 286.909054 
L 305.182759 275.391681 
L 305.91786 256.196059 
L 306.652961 260.035184 
L 307.388062 271.552556 
L 308.123163 271.552556 
L 308.858264 267.713432 
L 309.593365 275.391681 
L 310.328466 286.909054 
L 311.063566 290.748178 
L 311.798667 283.069929 
L 313.268869 290.748178 
L 314.00397 298.426427 
L 314.739071 279.230805 
L 315.474172 286.909054 
L 316.209273 302.265551 
L 316.944374 313.782924 
L 317.679475 306.104675 
L 318.414576 302.265551 
L 319.149677 294.587302 
L 319.884778 279.230805 
L 320.619879 271.552556 
L 321.35498 275.391681 
L 322.090081 286.909054 
L 322.825182 279.230805 
L 323.560283 294.587302 
L 324.295384 306.104675 
L 325.030484 290.748178 
L 325.765585 271.552556 
L 326.500686 263.874308 
L 327.235787 275.391681 
L 327.970888 283.069929 
L 328.705989 286.909054 
L 329.44109 279.230805 
L 330.176191 275.391681 
L 330.911292 283.069929 
L 331.646393 286.909054 
L 332.381494 286.909054 
L 333.116595 294.587302 
L 333.851696 286.909054 
L 334.586797 271.552556 
L 335.321898 267.713432 
L 336.056999 267.713432 
L 336.7921 244.678686 
L 337.527201 256.196059 
L 338.997402 256.196059 
L 339.732503 263.874308 
L 340.467604 275.391681 
L 341.202705 275.391681 
L 341.937806 271.552556 
L 342.672907 260.035184 
L 343.408008 267.713432 
L 344.143109 256.196059 
L 344.87821 256.196059 
L 345.613311 275.391681 
L 346.348412 275.391681 
L 347.083513 260.035184 
L 347.818614 233.161314 
L 348.553715 240.839562 
L 350.023917 263.874308 
L 350.759018 252.356935 
L 351.494119 275.391681 
L 352.22922 290.748178 
L 352.96432 290.748178 
L 353.699421 271.552556 
L 354.434522 279.230805 
L 355.169623 290.748178 
L 356.639825 298.426427 
L 357.374926 290.748178 
L 358.110027 286.909054 
L 358.845128 286.909054 
L 361.050431 298.426427 
L 361.785532 286.909054 
L 362.520633 286.909054 
L 363.255734 290.748178 
L 363.990835 286.909054 
L 364.725936 267.713432 
L 365.461037 290.748178 
L 366.196138 294.587302 
L 367.666339 286.909054 
L 368.40144 267.713432 
L 369.136541 256.196059 
L 369.871642 267.713432 
L 370.606743 271.552556 
L 371.341844 283.069929 
L 372.076945 275.391681 
L 372.812046 260.035184 
L 373.547147 240.839562 
L 375.017349 217.804816 
L 375.75245 240.839562 
L 376.487551 229.322189 
L 377.222652 213.965692 
L 377.957753 217.804816 
L 378.692854 237.000438 
L 379.427955 260.035184 
L 380.898156 275.391681 
L 381.633257 263.874308 
L 382.368358 260.035184 
L 383.103459 263.874308 
L 383.83856 244.678686 
L 384.573661 233.161314 
L 385.308762 229.322189 
L 386.043863 233.161314 
L 386.778964 225.483065 
L 387.514065 256.196059 
L 388.249166 267.713432 
L 388.984267 248.517811 
L 389.719368 260.035184 
L 390.454469 260.035184 
L 391.18957 267.713432 
L 391.924671 279.230805 
L 392.659772 286.909054 
L 393.394873 279.230805 
L 394.865074 286.909054 
L 395.600175 286.909054 
L 396.335276 271.552556 
L 397.070377 267.713432 
L 397.805478 279.230805 
L 400.010781 290.748178 
L 400.745882 298.426427 
L 401.480983 283.069929 
L 402.216084 286.909054 
L 402.951185 275.391681 
L 403.686286 271.552556 
L 404.421387 271.552556 
L 405.156488 279.230805 
L 406.62669 302.265551 
L 407.361791 309.943799 
L 408.096891 309.943799 
L 408.831992 294.587302 
L 409.567093 290.748178 
L 411.037295 298.426427 
L 411.772396 294.587302 
L 412.507497 286.909054 
L 413.242598 286.909054 
L 413.977699 302.265551 
L 414.7128 298.426427 
L 415.447901 279.230805 
L 416.183002 298.426427 
L 416.918103 298.426427 
L 417.653204 279.230805 
L 418.388305 271.552556 
L 419.858507 286.909054 
L 421.328709 294.587302 
L 422.063809 309.943799 
L 422.79891 313.782924 
L 423.534011 306.104675 
L 424.269112 309.943799 
L 425.004213 298.426427 
L 425.739314 294.587302 
L 426.474415 302.265551 
L 427.209516 294.587302 
L 427.944617 283.069929 
L 428.679718 263.874308 
L 429.414819 252.356935 
L 430.14992 260.035184 
L 430.885021 279.230805 
L 431.620122 279.230805 
L 432.355223 283.069929 
L 433.090324 298.426427 
L 433.825425 298.426427 
L 434.560526 279.230805 
L 435.295627 283.069929 
L 436.765828 306.104675 
L 438.23603 275.391681 
L 438.971131 256.196059 
L 439.706232 240.839562 
L 440.441333 248.517811 
L 441.176434 263.874308 
L 441.911535 283.069929 
L 442.646636 294.587302 
L 444.116838 302.265551 
L 444.851939 298.426427 
L 445.58704 298.426427 
L 446.322141 283.069929 
L 447.057242 263.874308 
L 447.792343 271.552556 
L 448.527444 267.713432 
L 449.262545 244.678686 
L 449.997645 248.517811 
L 450.732746 248.517811 
L 451.467847 237.000438 
L 452.202948 244.678686 
L 452.938049 248.517811 
L 454.408251 263.874308 
L 455.143352 260.035184 
L 455.878453 244.678686 
L 458.083756 279.230805 
L 458.818857 283.069929 
L 459.553958 294.587302 
L 460.289059 294.587302 
L 461.02416 298.426427 
L 461.759261 290.748178 
L 462.494362 309.943799 
L 463.229463 298.426427 
L 463.964563 279.230805 
L 464.699664 286.909054 
L 465.434765 267.713432 
L 466.169866 275.391681 
L 466.904967 271.552556 
L 467.640068 256.196059 
L 468.375169 260.035184 
L 469.11027 256.196059 
L 469.845371 267.713432 
L 470.580472 286.909054 
L 472.050674 263.874308 
L 472.785775 271.552556 
L 473.520876 260.035184 
L 474.255977 263.874308 
L 474.991078 271.552556 
L 475.726179 286.909054 
L 477.19638 271.552556 
L 477.931481 279.230805 
L 478.666582 290.748178 
L 479.401683 275.391681 
L 480.136784 263.874308 
L 480.871885 271.552556 
L 481.606986 275.391681 
L 482.342087 275.391681 
L 483.077188 294.587302 
L 483.812289 306.104675 
L 484.54739 302.265551 
L 485.282491 306.104675 
L 486.017592 294.587302 
L 486.752693 290.748178 
L 487.487794 294.587302 
L 488.222895 294.587302 
L 488.957996 271.552556 
L 489.693097 275.391681 
L 490.428198 286.909054 
L 491.163298 286.909054 
L 491.898399 275.391681 
L 492.6335 267.713432 
L 493.368601 271.552556 
L 494.103702 279.230805 
L 494.838803 275.391681 
L 495.573904 275.391681 
L 496.309005 279.230805 
L 497.044106 263.874308 
L 497.779207 252.356935 
L 498.514308 263.874308 
L 499.98451 294.587302 
L 500.719611 306.104675 
L 500.719611 306.104675 
" style="fill:none;stroke:#1f77b4;stroke-linecap:square;stroke-width:1.5;"/>
   </g>
   <g id="line2d_17">
    <path clip-path="url(#p8c00fe9e35)" d="M 109.685602 275.391681 
L 110.420703 256.196059 
L 111.155804 248.517811 
L 111.890905 252.356935 
L 112.626006 267.713432 
L 113.361107 263.874308 
L 114.096208 252.356935 
L 114.831309 233.161314 
L 115.56641 237.000438 
L 116.301511 237.000438 
L 117.036612 240.839562 
L 117.771713 252.356935 
L 118.506814 256.196059 
L 119.241915 279.230805 
L 119.977016 279.230805 
L 120.712117 298.426427 
L 121.447218 298.426427 
L 122.182319 294.587302 
L 122.91742 279.230805 
L 123.65252 279.230805 
L 124.387621 271.552556 
L 125.122722 260.035184 
L 125.857823 267.713432 
L 126.592924 256.196059 
L 127.328025 271.552556 
L 128.063126 263.874308 
L 128.798227 248.517811 
L 129.533328 263.874308 
L 130.268429 248.517811 
L 131.00353 260.035184 
L 131.738631 252.356935 
L 132.473732 252.356935 
L 133.208833 263.874308 
L 133.943934 279.230805 
L 134.679035 290.748178 
L 135.414136 290.748178 
L 136.149237 271.552556 
L 136.884337 283.069929 
L 137.619438 286.909054 
L 138.354539 286.909054 
L 139.08964 298.426427 
L 139.824741 298.426427 
L 140.559842 306.104675 
L 142.030044 306.104675 
L 142.765145 298.426427 
L 143.500246 302.265551 
L 144.235347 298.426427 
L 144.970448 290.748178 
L 145.705549 286.909054 
L 146.44065 271.552556 
L 147.175751 267.713432 
L 148.645953 275.391681 
L 149.381054 263.874308 
L 150.116155 283.069929 
L 150.851255 283.069929 
L 151.586356 275.391681 
L 153.056558 290.748178 
L 153.791659 302.265551 
L 154.52676 286.909054 
L 155.261861 279.230805 
L 155.996962 283.069929 
L 156.732063 294.587302 
L 157.467164 294.587302 
L 158.202265 298.426427 
L 158.937366 286.909054 
L 159.672467 302.265551 
L 160.407568 313.782924 
L 161.142669 317.622048 
L 161.87777 302.265551 
L 162.612871 298.426427 
L 164.083073 298.426427 
L 164.818173 283.069929 
L 165.553274 260.035184 
L 166.288375 267.713432 
L 167.023476 279.230805 
L 167.758577 294.587302 
L 168.493678 283.069929 
L 169.228779 267.713432 
L 169.96388 271.552556 
L 170.698981 267.713432 
L 171.434082 248.517811 
L 172.169183 248.517811 
L 172.904284 271.552556 
L 173.639385 271.552556 
L 174.374486 275.391681 
L 175.109587 286.909054 
L 176.579789 271.552556 
L 177.31489 290.748178 
L 178.049991 283.069929 
L 178.785091 271.552556 
L 179.520192 271.552556 
L 180.255293 279.230805 
L 180.990394 283.069929 
L 181.725495 267.713432 
L 182.460596 279.230805 
L 183.930798 294.587302 
L 184.665899 283.069929 
L 185.401 267.713432 
L 186.136101 271.552556 
L 186.871202 279.230805 
L 187.606303 283.069929 
L 188.341404 294.587302 
L 189.076505 298.426427 
L 189.811606 306.104675 
L 190.546707 302.265551 
L 191.281808 286.909054 
L 192.016909 294.587302 
L 192.752009 279.230805 
L 194.222211 240.839562 
L 194.957312 240.839562 
L 196.427514 263.874308 
L 197.162615 263.874308 
L 197.897716 271.552556 
L 198.632817 286.909054 
L 199.367918 290.748178 
L 200.103019 302.265551 
L 200.83812 306.104675 
L 201.573221 306.104675 
L 202.308322 290.748178 
L 203.043423 298.426427 
L 203.778524 294.587302 
L 204.513625 294.587302 
L 205.248726 290.748178 
L 205.983827 294.587302 
L 206.718927 283.069929 
L 207.454028 263.874308 
L 208.189129 240.839562 
L 208.92423 240.839562 
L 209.659331 256.196059 
L 210.394432 286.909054 
L 211.864634 279.230805 
L 212.599735 294.587302 
L 214.069937 309.943799 
L 214.805038 309.943799 
L 215.540139 298.426427 
L 216.27524 279.230805 
L 217.010341 286.909054 
L 217.745442 298.426427 
L 218.480543 286.909054 
L 219.950745 294.587302 
L 220.685845 275.391681 
L 221.420946 263.874308 
L 222.156047 263.874308 
L 222.891148 275.391681 
L 224.36135 267.713432 
L 225.096451 279.230805 
L 225.831552 283.069929 
L 226.566653 267.713432 
L 227.301754 283.069929 
L 228.036855 283.069929 
L 228.771956 290.748178 
L 229.507057 286.909054 
L 230.242158 267.713432 
L 230.977259 267.713432 
L 232.447461 260.035184 
L 233.182562 267.713432 
L 233.917662 244.678686 
L 234.652763 237.000438 
L 235.387864 237.000438 
L 236.122965 248.517811 
L 236.858066 252.356935 
L 237.593167 252.356935 
L 239.063369 275.391681 
L 239.79847 260.035184 
L 240.533571 263.874308 
L 241.268672 283.069929 
L 242.003773 279.230805 
L 242.738874 256.196059 
L 243.473975 240.839562 
L 244.209076 229.322189 
L 244.944177 256.196059 
L 246.414379 294.587302 
L 247.14948 302.265551 
L 247.88458 294.587302 
L 248.619681 279.230805 
L 250.089883 294.587302 
L 250.824984 298.426427 
L 252.295186 275.391681 
L 253.030287 279.230805 
L 253.765388 263.874308 
L 254.500489 263.874308 
L 255.23559 283.069929 
L 255.970691 275.391681 
L 256.705792 260.035184 
L 257.440893 256.196059 
L 258.175994 263.874308 
L 258.911095 275.391681 
L 259.646196 283.069929 
L 260.381297 271.552556 
L 261.116398 275.391681 
L 261.851498 286.909054 
L 262.586599 294.587302 
L 263.3217 298.426427 
L 264.056801 290.748178 
L 264.791902 275.391681 
L 265.527003 283.069929 
L 266.262104 267.713432 
L 266.997205 244.678686 
L 267.732306 260.035184 
L 268.467407 260.035184 
L 269.202508 252.356935 
L 269.937609 275.391681 
L 270.67271 286.909054 
L 271.407811 290.748178 
L 272.142912 290.748178 
L 272.878013 275.391681 
L 274.348215 275.391681 
L 275.083316 271.552556 
L 275.818416 271.552556 
L 276.553517 256.196059 
L 277.288618 263.874308 
L 278.023719 275.391681 
L 279.493921 306.104675 
L 280.229022 302.265551 
L 280.964123 309.943799 
L 282.434325 302.265551 
L 283.169426 306.104675 
L 283.904527 298.426427 
L 284.639628 283.069929 
L 285.374729 283.069929 
L 286.10983 271.552556 
L 286.844931 275.391681 
L 287.580032 283.069929 
L 288.315133 298.426427 
L 289.050234 286.909054 
L 289.785334 279.230805 
L 290.520435 302.265551 
L 291.255536 309.943799 
L 291.990637 294.587302 
L 292.725738 275.391681 
L 293.460839 260.035184 
L 294.931041 260.035184 
L 295.666142 252.356935 
L 297.136344 275.391681 
L 297.871445 260.035184 
L 298.606546 260.035184 
L 299.341647 271.552556 
L 300.076748 294.587302 
L 300.811849 290.748178 
L 301.54695 302.265551 
L 302.282051 309.943799 
L 303.017152 309.943799 
L 303.752252 306.104675 
L 304.487353 306.104675 
L 305.222454 309.943799 
L 305.957555 306.104675 
L 306.692656 309.943799 
L 307.427757 306.104675 
L 308.162858 306.104675 
L 308.897959 313.782924 
L 310.368161 306.104675 
L 311.103262 290.748178 
L 311.838363 302.265551 
L 312.573464 298.426427 
L 313.308565 283.069929 
L 314.043666 294.587302 
L 314.778767 298.426427 
L 315.513868 283.069929 
L 316.248969 294.587302 
L 316.98407 309.943799 
L 317.71917 309.943799 
L 318.454271 313.782924 
L 319.189372 306.104675 
L 319.924473 290.748178 
L 320.659574 283.069929 
L 321.394675 279.230805 
L 322.129776 263.874308 
L 322.864877 263.874308 
L 323.599978 267.713432 
L 324.335079 252.356935 
L 325.07018 252.356935 
L 325.805281 267.713432 
L 326.540382 267.713432 
L 327.275483 252.356935 
L 328.745685 275.391681 
L 329.480786 267.713432 
L 330.215887 267.713432 
L 330.950988 279.230805 
L 331.686088 294.587302 
L 332.421189 286.909054 
L 333.15629 263.874308 
L 333.891391 271.552556 
L 334.626492 283.069929 
L 335.361593 279.230805 
L 336.096694 263.874308 
L 336.831795 267.713432 
L 337.566896 263.874308 
L 338.301997 271.552556 
L 339.037098 275.391681 
L 339.772199 271.552556 
L 340.5073 260.035184 
L 341.242401 240.839562 
L 341.977502 237.000438 
L 342.712603 248.517811 
L 343.447704 248.517811 
L 344.182805 267.713432 
L 344.917905 290.748178 
L 347.123208 244.678686 
L 347.858309 256.196059 
L 349.328511 263.874308 
L 350.063612 271.552556 
L 350.798713 290.748178 
L 351.533814 294.587302 
L 352.268915 279.230805 
L 353.004016 260.035184 
L 353.739117 267.713432 
L 354.474218 263.874308 
L 356.679521 286.909054 
L 357.414622 279.230805 
L 358.149723 279.230805 
L 359.619924 286.909054 
L 360.355025 263.874308 
L 361.090126 263.874308 
L 362.560328 271.552556 
L 363.295429 263.874308 
L 364.03053 263.874308 
L 364.765631 267.713432 
L 365.500732 248.517811 
L 366.235833 263.874308 
L 366.970934 267.713432 
L 367.706035 267.713432 
L 368.441136 263.874308 
L 369.176237 263.874308 
L 369.911338 248.517811 
L 370.646439 229.322189 
L 371.38154 244.678686 
L 372.116641 267.713432 
L 373.586842 275.391681 
L 375.057044 298.426427 
L 375.792145 286.909054 
L 376.527246 306.104675 
L 377.262347 313.782924 
L 377.997448 309.943799 
L 378.732549 298.426427 
L 379.46765 290.748178 
L 380.202751 294.587302 
L 380.937852 294.587302 
L 381.672953 309.943799 
L 382.408054 317.622048 
L 383.878256 309.943799 
L 384.613357 317.622048 
L 385.348458 321.461172 
L 386.083559 313.782924 
L 387.55376 306.104675 
L 388.288861 298.426427 
L 389.023962 298.426427 
L 389.759063 286.909054 
L 390.494164 294.587302 
L 391.229265 275.391681 
L 391.964366 283.069929 
L 392.699467 286.909054 
L 394.169669 302.265551 
L 394.90477 294.587302 
L 395.639871 279.230805 
L 396.374972 286.909054 
L 397.110073 309.943799 
L 397.845174 309.943799 
L 398.580275 302.265551 
L 399.315376 283.069929 
L 400.050477 286.909054 
L 400.785577 279.230805 
L 401.520678 279.230805 
L 402.255779 271.552556 
L 402.99088 271.552556 
L 403.725981 275.391681 
L 404.461082 275.391681 
L 405.196183 252.356935 
L 405.931284 244.678686 
L 406.666385 260.035184 
L 407.401486 256.196059 
L 408.136587 263.874308 
L 408.871688 252.356935 
L 409.606789 256.196059 
L 410.34189 248.517811 
L 411.076991 229.322189 
L 411.812092 233.161314 
L 412.547193 256.196059 
L 413.282294 260.035184 
L 414.017395 248.517811 
L 414.752495 260.035184 
L 415.487596 279.230805 
L 416.222697 267.713432 
L 416.957798 248.517811 
L 417.692899 260.035184 
L 419.163101 267.713432 
L 419.898202 248.517811 
L 420.633303 260.035184 
L 421.368404 256.196059 
L 422.103505 237.000438 
L 422.838606 237.000438 
L 423.573707 240.839562 
L 424.308808 225.483065 
L 425.77901 240.839562 
L 426.514111 229.322189 
L 427.249212 237.000438 
L 427.984313 240.839562 
L 428.719413 252.356935 
L 429.454514 283.069929 
L 430.189615 286.909054 
L 430.924716 271.552556 
L 431.659817 267.713432 
L 432.394918 271.552556 
L 433.130019 271.552556 
L 433.86512 275.391681 
L 434.600221 286.909054 
L 435.335322 267.713432 
L 436.805524 237.000438 
L 437.540625 256.196059 
L 438.275726 298.426427 
L 439.010827 313.782924 
L 439.745928 321.461172 
L 440.481029 302.265551 
L 441.21613 302.265551 
L 441.95123 313.782924 
L 442.686331 294.587302 
L 443.421432 283.069929 
L 444.156533 283.069929 
L 444.891634 275.391681 
L 445.626735 252.356935 
L 446.361836 263.874308 
L 447.096937 279.230805 
L 448.567139 302.265551 
L 449.30224 306.104675 
L 450.772442 298.426427 
L 451.507543 298.426427 
L 452.242644 294.587302 
L 453.712846 263.874308 
L 455.183048 286.909054 
L 455.918148 279.230805 
L 457.38835 286.909054 
L 458.123451 275.391681 
L 458.858552 286.909054 
L 459.593653 271.552556 
L 460.328754 260.035184 
L 461.063855 275.391681 
L 461.798956 260.035184 
L 462.534057 267.713432 
L 463.269158 263.874308 
L 464.004259 271.552556 
L 464.73936 260.035184 
L 465.474461 271.552556 
L 466.944663 286.909054 
L 467.679764 298.426427 
L 468.414865 306.104675 
L 469.149966 294.587302 
L 469.885066 275.391681 
L 471.355268 298.426427 
L 472.090369 283.069929 
L 472.82547 271.552556 
L 473.560571 283.069929 
L 474.295672 283.069929 
L 475.030773 286.909054 
L 475.765874 283.069929 
L 476.500975 294.587302 
L 477.236076 302.265551 
L 477.971177 302.265551 
L 479.441379 309.943799 
L 480.17648 302.265551 
L 480.911581 302.265551 
L 481.646682 298.426427 
L 482.381783 302.265551 
L 483.116884 290.748178 
L 483.851984 290.748178 
L 485.322186 298.426427 
L 486.057287 290.748178 
L 486.792388 286.909054 
L 487.527489 279.230805 
L 488.26259 267.713432 
L 488.997691 275.391681 
L 489.732792 263.874308 
L 490.467893 275.391681 
L 491.202994 260.035184 
L 491.938095 248.517811 
L 492.673196 244.678686 
L 494.143398 267.713432 
L 494.878499 263.874308 
L 495.6136 267.713432 
L 497.818902 290.748178 
L 498.554003 286.909054 
L 499.289104 260.035184 
L 500.024205 263.874308 
L 500.759306 279.230805 
L 501.494407 279.230805 
L 502.229508 263.874308 
L 502.964609 275.391681 
L 503.69971 263.874308 
L 504.434811 279.230805 
L 505.169912 279.230805 
L 505.905013 271.552556 
L 506.640114 248.517811 
L 506.640114 248.517811 
" style="fill:none;stroke:#ff7f0e;stroke-linecap:square;stroke-width:1.5;"/>
   </g>
   <g id="line2d_18">
    <path clip-path="url(#p8c00fe9e35)" d="M 106.740788 309.943799 
L 107.475889 294.587302 
L 108.946091 294.587302 
L 109.681192 290.748178 
L 110.416293 267.713432 
L 111.151394 256.196059 
L 111.886495 233.161314 
L 114.091798 267.713432 
L 114.826898 283.069929 
L 115.561999 290.748178 
L 117.767302 279.230805 
L 119.972605 279.230805 
L 120.707706 275.391681 
L 121.442807 267.713432 
L 122.913009 237.000438 
L 123.64811 248.517811 
L 124.383211 267.713432 
L 125.118312 267.713432 
L 125.853413 240.839562 
L 126.588514 260.035184 
L 127.323615 263.874308 
L 128.058716 271.552556 
L 128.793816 283.069929 
L 129.528917 275.391681 
L 130.264018 298.426427 
L 131.73422 306.104675 
L 132.469321 306.104675 
L 133.204422 294.587302 
L 133.939523 275.391681 
L 135.409725 275.391681 
L 136.144826 283.069929 
L 136.879927 294.587302 
L 138.350129 263.874308 
L 139.08523 256.196059 
L 139.820331 263.874308 
L 140.555432 256.196059 
L 141.290533 263.874308 
L 142.025634 248.517811 
L 142.760734 252.356935 
L 143.495835 248.517811 
L 144.230936 275.391681 
L 144.966037 283.069929 
L 145.701138 267.713432 
L 146.436239 248.517811 
L 147.906441 256.196059 
L 148.641542 267.713432 
L 149.376643 283.069929 
L 150.111744 267.713432 
L 150.846845 263.874308 
L 152.317047 263.874308 
L 153.052148 290.748178 
L 154.52235 267.713432 
L 155.257451 286.909054 
L 155.992552 283.069929 
L 156.727652 271.552556 
L 157.462753 279.230805 
L 158.197854 267.713432 
L 159.668056 290.748178 
L 160.403157 298.426427 
L 161.138258 298.426427 
L 161.873359 313.782924 
L 162.60846 294.587302 
L 163.343561 290.748178 
L 164.078662 283.069929 
L 164.813763 294.587302 
L 165.548864 298.426427 
L 166.283965 279.230805 
L 167.019066 263.874308 
L 167.754167 271.552556 
L 168.489268 286.909054 
L 169.95947 286.909054 
L 170.69457 271.552556 
L 171.429671 271.552556 
L 172.164772 267.713432 
L 172.899873 248.517811 
L 173.634974 256.196059 
L 174.370075 256.196059 
L 175.105176 260.035184 
L 175.840277 275.391681 
L 176.575378 275.391681 
L 177.310479 271.552556 
L 178.04558 283.069929 
L 178.780681 290.748178 
L 179.515782 302.265551 
L 180.250883 294.587302 
L 180.985984 283.069929 
L 181.721085 290.748178 
L 182.456186 275.391681 
L 183.191287 263.874308 
L 183.926387 244.678686 
L 184.661488 240.839562 
L 185.396589 267.713432 
L 186.13169 263.874308 
L 188.336993 217.804816 
L 189.072094 206.287444 
L 189.807195 198.609195 
L 190.542296 217.804816 
L 191.277397 244.678686 
L 192.012498 237.000438 
L 192.747599 252.356935 
L 193.4827 256.196059 
L 194.217801 275.391681 
L 194.952902 283.069929 
L 195.688003 286.909054 
L 196.423104 298.426427 
L 197.158205 306.104675 
L 197.893305 302.265551 
L 198.628406 286.909054 
L 199.363507 290.748178 
L 200.098608 279.230805 
L 200.833709 283.069929 
L 201.56881 263.874308 
L 202.303911 275.391681 
L 203.039012 267.713432 
L 203.774113 267.713432 
L 204.509214 275.391681 
L 205.244315 275.391681 
L 206.714517 290.748178 
L 207.449618 290.748178 
L 208.184719 302.265551 
L 208.91982 290.748178 
L 209.654921 275.391681 
L 210.390022 279.230805 
L 211.125123 294.587302 
L 211.860223 286.909054 
L 212.595324 290.748178 
L 214.065526 306.104675 
L 214.800627 309.943799 
L 215.535728 321.461172 
L 216.270829 321.461172 
L 217.00593 309.943799 
L 217.741031 290.748178 
L 218.476132 302.265551 
L 219.211233 306.104675 
L 219.946334 306.104675 
L 220.681435 302.265551 
L 221.416536 290.748178 
L 224.35694 275.391681 
L 225.092041 256.196059 
L 225.827141 248.517811 
L 226.562242 260.035184 
L 227.297343 263.874308 
L 228.032444 260.035184 
L 228.767545 260.035184 
L 229.502646 283.069929 
L 230.237747 275.391681 
L 230.972848 263.874308 
L 231.707949 260.035184 
L 233.913252 283.069929 
L 234.648353 275.391681 
L 235.383454 283.069929 
L 236.118555 267.713432 
L 237.588757 267.713432 
L 239.794059 290.748178 
L 240.52916 279.230805 
L 241.264261 263.874308 
L 241.999362 252.356935 
L 242.734463 275.391681 
L 244.204665 290.748178 
L 244.939766 294.587302 
L 246.409968 263.874308 
L 247.145069 260.035184 
L 249.350372 306.104675 
L 250.085473 294.587302 
L 250.820574 290.748178 
L 251.555675 294.587302 
L 252.290776 286.909054 
L 253.025877 271.552556 
L 254.496078 309.943799 
L 255.231179 294.587302 
L 255.96628 275.391681 
L 256.701381 271.552556 
L 257.436482 286.909054 
L 258.171583 286.909054 
L 259.641785 294.587302 
L 260.376886 302.265551 
L 261.111987 306.104675 
L 261.847088 294.587302 
L 262.582189 271.552556 
L 263.31729 256.196059 
L 264.052391 252.356935 
L 264.787492 260.035184 
L 265.522593 252.356935 
L 266.992795 298.426427 
L 267.727895 279.230805 
L 268.462996 267.713432 
L 269.198097 248.517811 
L 269.933198 252.356935 
L 271.4034 275.391681 
L 272.138501 279.230805 
L 273.608703 279.230805 
L 274.343804 286.909054 
L 275.078905 306.104675 
L 275.814006 302.265551 
L 276.549107 286.909054 
L 277.284208 286.909054 
L 278.019309 294.587302 
L 279.489511 271.552556 
L 280.224612 279.230805 
L 280.959712 263.874308 
L 282.429914 271.552556 
L 283.165015 283.069929 
L 283.900116 283.069929 
L 284.635217 275.391681 
L 285.370318 279.230805 
L 286.105419 279.230805 
L 288.310722 244.678686 
L 289.045823 252.356935 
L 289.780924 248.517811 
L 290.516025 229.322189 
L 291.251126 244.678686 
L 291.986227 248.517811 
L 293.456429 271.552556 
L 294.19153 271.552556 
L 295.661731 279.230805 
L 296.396832 263.874308 
L 297.131933 240.839562 
L 298.602135 294.587302 
L 299.337236 290.748178 
L 300.072337 279.230805 
L 301.542539 294.587302 
L 302.27764 279.230805 
L 303.012741 283.069929 
L 303.747842 271.552556 
L 304.482943 279.230805 
L 305.218044 290.748178 
L 305.953145 279.230805 
L 306.688246 275.391681 
L 307.423347 267.713432 
L 308.158448 256.196059 
L 309.628649 256.196059 
L 310.36375 244.678686 
L 311.098851 260.035184 
L 311.833952 244.678686 
L 312.569053 233.161314 
L 313.304154 248.517811 
L 314.039255 237.000438 
L 314.774356 252.356935 
L 315.509457 271.552556 
L 316.244558 260.035184 
L 316.979659 240.839562 
L 317.71476 240.839562 
L 318.449861 252.356935 
L 319.184962 260.035184 
L 319.920063 275.391681 
L 320.655164 279.230805 
L 322.125366 271.552556 
L 322.860466 275.391681 
L 323.595567 260.035184 
L 324.330668 248.517811 
L 325.065769 275.391681 
L 326.535971 290.748178 
L 327.271072 294.587302 
L 328.006173 294.587302 
L 328.741274 271.552556 
L 329.476375 279.230805 
L 330.211476 290.748178 
L 330.946577 283.069929 
L 331.681678 267.713432 
L 333.886981 290.748178 
L 334.622082 309.943799 
L 335.357183 309.943799 
L 336.092284 306.104675 
L 336.827384 309.943799 
L 337.562485 298.426427 
L 338.297586 283.069929 
L 339.032687 275.391681 
L 340.502889 290.748178 
L 341.23799 306.104675 
L 341.973091 306.104675 
L 344.913495 290.748178 
L 345.648596 283.069929 
L 346.383697 286.909054 
L 347.118798 302.265551 
L 347.853899 302.265551 
L 348.589 298.426427 
L 349.324101 290.748178 
L 350.059202 271.552556 
L 350.794302 283.069929 
L 351.529403 275.391681 
L 352.264504 290.748178 
L 352.999605 302.265551 
L 353.734706 294.587302 
L 354.469807 294.587302 
L 355.204908 302.265551 
L 355.940009 302.265551 
L 357.410211 309.943799 
L 359.615514 263.874308 
L 360.350615 275.391681 
L 361.085716 271.552556 
L 361.820817 275.391681 
L 362.555918 275.391681 
L 363.291019 286.909054 
L 364.02612 279.230805 
L 364.76122 286.909054 
L 365.496321 286.909054 
L 366.231422 290.748178 
L 366.966523 286.909054 
L 367.701624 286.909054 
L 368.436725 294.587302 
L 369.906927 302.265551 
L 370.642028 317.622048 
L 372.11223 286.909054 
L 372.847331 298.426427 
L 373.582432 302.265551 
L 374.317533 286.909054 
L 375.052634 298.426427 
L 375.787735 306.104675 
L 376.522836 306.104675 
L 377.257937 290.748178 
L 377.993038 286.909054 
L 378.728138 275.391681 
L 379.463239 271.552556 
L 380.19834 275.391681 
L 380.933441 283.069929 
L 381.668542 298.426427 
L 382.403643 294.587302 
L 383.138744 283.069929 
L 383.873845 302.265551 
L 385.344047 309.943799 
L 386.814249 302.265551 
L 388.284451 271.552556 
L 389.019552 279.230805 
L 389.754653 267.713432 
L 390.489754 252.356935 
L 391.224855 263.874308 
L 391.959955 248.517811 
L 392.695056 229.322189 
L 393.430157 244.678686 
L 394.900359 244.678686 
L 395.63546 271.552556 
L 396.370561 267.713432 
L 397.105662 248.517811 
L 397.840763 248.517811 
L 399.310965 271.552556 
L 400.046066 279.230805 
L 400.781167 290.748178 
L 401.516268 298.426427 
L 402.251369 286.909054 
L 402.98647 283.069929 
L 404.456672 283.069929 
L 405.191773 290.748178 
L 405.926873 279.230805 
L 406.661974 260.035184 
L 407.397075 252.356935 
L 408.132176 263.874308 
L 408.867277 279.230805 
L 409.602378 279.230805 
L 410.337479 286.909054 
L 411.07258 309.943799 
L 411.807681 309.943799 
L 412.542782 298.426427 
L 413.277883 290.748178 
L 414.012984 306.104675 
L 414.748085 313.782924 
L 416.218287 283.069929 
L 416.953388 283.069929 
L 417.688489 298.426427 
L 418.42359 294.587302 
L 419.893791 294.587302 
L 420.628892 275.391681 
L 421.363993 263.874308 
L 422.099094 256.196059 
L 422.834195 271.552556 
L 423.569296 271.552556 
L 424.304397 279.230805 
L 425.039498 290.748178 
L 425.774599 286.909054 
L 427.244801 294.587302 
L 427.979902 302.265551 
L 429.450104 279.230805 
L 430.185205 286.909054 
L 430.920306 271.552556 
L 431.655407 283.069929 
L 433.125609 252.356935 
L 433.860709 260.035184 
L 434.59581 256.196059 
L 435.330911 263.874308 
L 436.066012 283.069929 
L 436.801113 290.748178 
L 437.536214 283.069929 
L 438.271315 267.713432 
L 439.006416 263.874308 
L 439.741517 286.909054 
L 440.476618 294.587302 
L 441.211719 286.909054 
L 441.94682 271.552556 
L 442.681921 271.552556 
L 443.417022 263.874308 
L 444.152123 267.713432 
L 444.887224 267.713432 
L 445.622325 275.391681 
L 446.357426 260.035184 
L 447.092527 267.713432 
L 447.827627 260.035184 
L 448.562728 275.391681 
L 449.297829 286.909054 
L 450.768031 286.909054 
L 451.503132 290.748178 
L 452.238233 286.909054 
L 452.973334 298.426427 
L 453.708435 306.104675 
L 454.443536 306.104675 
L 455.178637 286.909054 
L 455.913738 294.587302 
L 457.38394 256.196059 
L 458.119041 267.713432 
L 458.854142 263.874308 
L 459.589243 256.196059 
L 460.324344 263.874308 
L 461.059445 256.196059 
L 461.794545 267.713432 
L 462.529646 244.678686 
L 463.264747 267.713432 
L 463.999848 275.391681 
L 464.734949 267.713432 
L 465.47005 275.391681 
L 466.205151 260.035184 
L 466.940252 263.874308 
L 467.675353 283.069929 
L 468.410454 294.587302 
L 469.145555 298.426427 
L 469.880656 309.943799 
L 470.615757 294.587302 
L 471.350858 302.265551 
L 472.085959 290.748178 
L 472.82106 294.587302 
L 473.556161 283.069929 
L 474.291262 279.230805 
L 475.026363 286.909054 
L 475.761463 279.230805 
L 476.496564 260.035184 
L 477.231665 256.196059 
L 477.966766 263.874308 
L 478.701867 248.517811 
L 479.436968 237.000438 
L 480.172069 267.713432 
L 480.90717 275.391681 
L 481.642271 275.391681 
L 483.112473 283.069929 
L 483.847574 260.035184 
L 484.582675 267.713432 
L 486.052877 290.748178 
L 487.523079 298.426427 
L 488.99328 298.426427 
L 489.728381 286.909054 
L 490.463482 279.230805 
L 491.198583 294.587302 
L 491.933684 290.748178 
L 492.668785 302.265551 
L 494.138987 302.265551 
L 494.874088 313.782924 
L 495.609189 302.265551 
L 496.34429 283.069929 
L 497.079391 286.909054 
L 497.814492 294.587302 
L 498.549593 306.104675 
L 499.284694 306.104675 
L 500.019795 294.587302 
L 500.754896 275.391681 
L 501.489997 263.874308 
L 502.225098 275.391681 
L 502.960198 260.035184 
L 502.960198 260.035184 
" style="fill:none;stroke:#2ca02c;stroke-linecap:square;stroke-width:1.5;"/>
   </g>
   <g id="line2d_19">
    <path clip-path="url(#p8c00fe9e35)" d="M 112.665702 302.265551 
L 113.400803 294.587302 
L 114.135904 298.426427 
L 115.606105 313.782924 
L 116.341206 313.782924 
L 117.076307 306.104675 
L 117.811408 290.748178 
L 118.546509 290.748178 
L 119.28161 283.069929 
L 120.016711 271.552556 
L 120.751812 271.552556 
L 122.222014 286.909054 
L 122.957115 302.265551 
L 123.692216 294.587302 
L 124.427317 279.230805 
L 125.162418 298.426427 
L 125.897519 313.782924 
L 126.63262 298.426427 
L 127.367721 290.748178 
L 128.102822 290.748178 
L 128.837923 294.587302 
L 130.308124 263.874308 
L 131.043225 271.552556 
L 131.778326 286.909054 
L 132.513427 290.748178 
L 133.248528 279.230805 
L 133.983629 279.230805 
L 134.71873 290.748178 
L 135.453831 286.909054 
L 136.188932 267.713432 
L 136.924033 260.035184 
L 137.659134 290.748178 
L 138.394235 283.069929 
L 139.129336 260.035184 
L 139.864437 256.196059 
L 140.599538 275.391681 
L 142.06974 290.748178 
L 142.804841 286.909054 
L 143.539941 294.587302 
L 144.275042 286.909054 
L 145.010143 290.748178 
L 145.745244 290.748178 
L 146.480345 302.265551 
L 147.215446 302.265551 
L 147.950547 290.748178 
L 148.685648 275.391681 
L 149.420749 290.748178 
L 150.15585 302.265551 
L 150.890951 309.943799 
L 151.626052 302.265551 
L 153.096254 271.552556 
L 153.831355 286.909054 
L 154.566456 294.587302 
L 156.771759 271.552556 
L 157.506859 275.391681 
L 158.24196 271.552556 
L 158.977061 283.069929 
L 161.182364 237.000438 
L 161.917465 229.322189 
L 162.652566 244.678686 
L 163.387667 240.839562 
L 164.122768 252.356935 
L 164.857869 271.552556 
L 166.328071 286.909054 
L 167.063172 279.230805 
L 167.798273 260.035184 
L 168.533374 260.035184 
L 169.268475 263.874308 
L 170.003576 248.517811 
L 170.738677 275.391681 
L 171.473777 294.587302 
L 172.208878 286.909054 
L 173.67908 279.230805 
L 174.414181 283.069929 
L 175.149282 290.748178 
L 175.884383 283.069929 
L 176.619484 267.713432 
L 178.089686 267.713432 
L 178.824787 252.356935 
L 179.559888 256.196059 
L 180.294989 267.713432 
L 181.03009 286.909054 
L 181.765191 283.069929 
L 182.500292 283.069929 
L 183.970494 290.748178 
L 184.705595 317.622048 
L 185.440695 325.300297 
L 186.910897 317.622048 
L 188.381099 317.622048 
L 189.1162 325.300297 
L 189.851301 321.461172 
L 191.321503 290.748178 
L 192.056604 302.265551 
L 192.791705 309.943799 
L 194.261907 302.265551 
L 194.997008 302.265551 
L 195.732109 298.426427 
L 196.46721 283.069929 
L 197.202311 271.552556 
L 197.937412 275.391681 
L 198.672512 267.713432 
L 199.407613 275.391681 
L 200.142714 294.587302 
L 200.877815 298.426427 
L 201.612916 298.426427 
L 202.348017 283.069929 
L 203.083118 298.426427 
L 203.818219 317.622048 
L 205.288421 302.265551 
L 206.023522 283.069929 
L 206.758623 283.069929 
L 207.493724 279.230805 
L 208.228825 279.230805 
L 208.963926 286.909054 
L 209.699027 286.909054 
L 210.434128 267.713432 
L 211.169229 252.356935 
L 211.90433 271.552556 
L 212.63943 248.517811 
L 213.374531 240.839562 
L 214.109632 217.804816 
L 214.844733 198.609195 
L 215.579834 217.804816 
L 216.314935 252.356935 
L 217.050036 244.678686 
L 217.785137 263.874308 
L 218.520238 244.678686 
L 219.255339 233.161314 
L 219.99044 248.517811 
L 220.725541 260.035184 
L 221.460642 275.391681 
L 222.195743 286.909054 
L 222.930844 290.748178 
L 223.665945 302.265551 
L 224.401046 302.265551 
L 225.136147 298.426427 
L 225.871248 286.909054 
L 226.606348 286.909054 
L 227.341449 271.552556 
L 228.07655 271.552556 
L 228.811651 267.713432 
L 229.546752 271.552556 
L 231.016954 302.265551 
L 231.752055 313.782924 
L 233.222257 290.748178 
L 233.957358 294.587302 
L 234.692459 306.104675 
L 235.42756 306.104675 
L 236.162661 309.943799 
L 236.897762 302.265551 
L 237.632863 309.943799 
L 238.367964 313.782924 
L 239.103065 309.943799 
L 239.838166 309.943799 
L 240.573266 298.426427 
L 241.308367 298.426427 
L 242.043468 302.265551 
L 244.248771 302.265551 
L 244.983872 290.748178 
L 245.718973 302.265551 
L 246.454074 298.426427 
L 247.189175 290.748178 
L 247.924276 290.748178 
L 248.659377 275.391681 
L 249.394478 283.069929 
L 250.129579 275.391681 
L 250.86468 275.391681 
L 251.599781 283.069929 
L 252.334882 286.909054 
L 253.069983 286.909054 
L 253.805084 271.552556 
L 254.540184 252.356935 
L 255.275285 237.000438 
L 256.010386 256.196059 
L 256.745487 290.748178 
L 258.215689 275.391681 
L 258.95079 283.069929 
L 259.685891 260.035184 
L 260.420992 275.391681 
L 261.156093 260.035184 
L 261.891194 271.552556 
L 264.831598 302.265551 
L 265.566699 302.265551 
L 266.3018 306.104675 
L 267.036901 302.265551 
L 267.772002 302.265551 
L 268.507102 309.943799 
L 269.242203 313.782924 
L 270.712405 275.391681 
L 271.447506 260.035184 
L 272.182607 260.035184 
L 272.917708 279.230805 
L 273.652809 294.587302 
L 274.38791 306.104675 
L 275.123011 290.748178 
L 275.858112 283.069929 
L 276.593213 290.748178 
L 277.328314 290.748178 
L 278.063415 275.391681 
L 278.798516 290.748178 
L 279.533617 294.587302 
L 281.003819 263.874308 
L 281.73892 267.713432 
L 282.47402 256.196059 
L 283.209121 237.000438 
L 283.944222 237.000438 
L 284.679323 248.517811 
L 285.414424 233.161314 
L 286.149525 244.678686 
L 287.619727 275.391681 
L 289.089929 283.069929 
L 289.82503 271.552556 
L 290.560131 275.391681 
L 291.295232 267.713432 
L 292.030333 290.748178 
L 292.765434 290.748178 
L 293.500535 283.069929 
L 294.235636 294.587302 
L 294.970737 290.748178 
L 295.705837 283.069929 
L 297.176039 290.748178 
L 297.91114 275.391681 
L 298.646241 252.356935 
L 299.381342 240.839562 
L 300.116443 237.000438 
L 300.851544 248.517811 
L 302.321746 256.196059 
L 303.056847 248.517811 
L 303.791948 260.035184 
L 304.527049 237.000438 
L 305.26215 237.000438 
L 305.997251 271.552556 
L 306.732352 263.874308 
L 307.467453 267.713432 
L 308.202554 279.230805 
L 309.672755 271.552556 
L 310.407856 275.391681 
L 311.142957 271.552556 
L 311.878058 286.909054 
L 312.613159 290.748178 
L 313.34826 290.748178 
L 314.083361 279.230805 
L 314.818462 283.069929 
L 316.288664 252.356935 
L 317.758866 252.356935 
L 318.493967 240.839562 
L 319.229068 252.356935 
L 319.964169 267.713432 
L 320.69927 275.391681 
L 321.434371 279.230805 
L 322.169472 294.587302 
L 322.904573 290.748178 
L 323.639673 294.587302 
L 324.374774 302.265551 
L 325.109875 294.587302 
L 325.844976 290.748178 
L 327.315178 290.748178 
L 328.050279 271.552556 
L 328.78538 279.230805 
L 329.520481 290.748178 
L 330.255582 275.391681 
L 330.990683 263.874308 
L 331.725784 267.713432 
L 332.460885 263.874308 
L 333.195986 271.552556 
L 333.931087 263.874308 
L 334.666188 248.517811 
L 335.401289 252.356935 
L 336.13639 275.391681 
L 336.871491 290.748178 
L 337.606591 294.587302 
L 338.341692 306.104675 
L 339.076793 302.265551 
L 339.811894 290.748178 
L 340.546995 290.748178 
L 341.282096 286.909054 
L 342.017197 302.265551 
L 342.752298 302.265551 
L 343.487399 298.426427 
L 344.2225 290.748178 
L 344.957601 271.552556 
L 345.692702 279.230805 
L 346.427803 290.748178 
L 347.162904 309.943799 
L 347.898005 321.461172 
L 349.368207 306.104675 
L 350.103308 302.265551 
L 350.838409 283.069929 
L 352.30861 252.356935 
L 353.043711 256.196059 
L 353.778812 279.230805 
L 354.513913 271.552556 
L 355.249014 248.517811 
L 356.719216 217.804816 
L 357.454317 233.161314 
L 358.189418 252.356935 
L 358.924519 260.035184 
L 359.65962 271.552556 
L 360.394721 279.230805 
L 361.129822 275.391681 
L 361.864923 279.230805 
L 362.600024 279.230805 
L 363.335125 271.552556 
L 364.070226 283.069929 
L 364.805327 290.748178 
L 365.540427 279.230805 
L 366.275528 263.874308 
L 367.010629 263.874308 
L 368.480831 286.909054 
L 369.215932 290.748178 
L 369.951033 290.748178 
L 370.686134 294.587302 
L 371.421235 279.230805 
L 372.891437 286.909054 
L 373.626538 294.587302 
L 374.361639 309.943799 
L 375.831841 279.230805 
L 376.566942 271.552556 
L 377.302043 294.587302 
L 378.037144 298.426427 
L 378.772245 298.426427 
L 379.507345 290.748178 
L 380.242446 275.391681 
L 380.977547 256.196059 
L 381.712648 240.839562 
L 382.447749 240.839562 
L 383.917951 256.196059 
L 384.653052 256.196059 
L 385.388153 252.356935 
L 386.123254 260.035184 
L 386.858355 271.552556 
L 387.593456 263.874308 
L 388.328557 275.391681 
L 389.063658 283.069929 
L 390.53386 306.104675 
L 391.268961 302.265551 
L 392.004062 302.265551 
L 392.739162 306.104675 
L 393.474263 294.587302 
L 394.209364 279.230805 
L 394.944465 286.909054 
L 395.679566 275.391681 
L 396.414667 283.069929 
L 397.149768 286.909054 
L 397.884869 275.391681 
L 398.61997 267.713432 
L 399.355071 275.391681 
L 400.090172 252.356935 
L 400.825273 244.678686 
L 401.560374 252.356935 
L 402.295475 271.552556 
L 403.030576 283.069929 
L 404.500778 283.069929 
L 405.235879 286.909054 
L 405.97098 298.426427 
L 406.70608 286.909054 
L 407.441181 290.748178 
L 408.176282 275.391681 
L 408.911383 286.909054 
L 409.646484 286.909054 
L 410.381585 275.391681 
L 411.116686 275.391681 
L 412.586888 267.713432 
L 413.321989 267.713432 
L 414.05709 256.196059 
L 414.792191 237.000438 
L 415.527292 256.196059 
L 416.262393 260.035184 
L 416.997494 279.230805 
L 417.732595 275.391681 
L 418.467696 283.069929 
L 419.202797 271.552556 
L 421.408099 294.587302 
L 422.1432 306.104675 
L 422.878301 290.748178 
L 423.613402 290.748178 
L 424.348503 298.426427 
L 425.083604 286.909054 
L 425.818705 290.748178 
L 426.553806 286.909054 
L 428.024008 286.909054 
L 428.759109 306.104675 
L 429.49421 294.587302 
L 430.229311 275.391681 
L 430.964412 286.909054 
L 431.699513 283.069929 
L 432.434614 290.748178 
L 433.169715 294.587302 
L 433.904816 279.230805 
L 434.639916 294.587302 
L 435.375017 294.587302 
L 436.110118 279.230805 
L 436.845219 283.069929 
L 437.58032 279.230805 
L 438.315421 267.713432 
L 439.050522 275.391681 
L 439.785623 260.035184 
L 440.520724 263.874308 
L 441.255825 260.035184 
L 441.990926 244.678686 
L 442.726027 252.356935 
L 443.461128 267.713432 
L 444.196229 256.196059 
L 445.666431 286.909054 
L 446.401532 306.104675 
L 447.136633 298.426427 
L 448.606834 267.713432 
L 449.341935 275.391681 
L 450.077036 279.230805 
L 450.812137 279.230805 
L 451.547238 286.909054 
L 452.282339 283.069929 
L 453.752541 283.069929 
L 454.487642 263.874308 
L 455.222743 279.230805 
L 455.957844 298.426427 
L 456.692945 298.426427 
L 457.428046 302.265551 
L 458.163147 286.909054 
L 458.898248 279.230805 
L 459.633349 290.748178 
L 460.36845 290.748178 
L 461.103551 283.069929 
L 462.573752 290.748178 
L 463.308853 286.909054 
L 464.043954 286.909054 
L 464.779055 294.587302 
L 465.514156 298.426427 
L 466.249257 298.426427 
L 466.984358 290.748178 
L 467.719459 275.391681 
L 468.45456 248.517811 
L 469.189661 263.874308 
L 469.924762 260.035184 
L 470.659863 240.839562 
L 471.394964 240.839562 
L 472.130065 275.391681 
L 472.865166 275.391681 
L 473.600267 286.909054 
L 474.335368 286.909054 
L 475.070469 267.713432 
L 475.80557 263.874308 
L 476.54067 279.230805 
L 477.275771 279.230805 
L 478.010872 263.874308 
L 478.745973 267.713432 
L 479.481074 290.748178 
L 480.216175 271.552556 
L 480.951276 263.874308 
L 481.686377 267.713432 
L 483.156579 244.678686 
L 483.89168 256.196059 
L 485.361882 225.483065 
L 486.096983 240.839562 
L 486.832084 237.000438 
L 487.567185 237.000438 
L 488.302286 252.356935 
L 489.037387 263.874308 
L 489.772487 286.909054 
L 490.507588 267.713432 
L 491.242689 271.552556 
L 491.97779 298.426427 
L 492.712891 298.426427 
L 493.447992 283.069929 
L 494.183093 263.874308 
L 494.918194 260.035184 
L 495.653295 263.874308 
L 496.388396 271.552556 
L 497.123497 283.069929 
L 497.858598 271.552556 
L 498.593699 256.196059 
L 499.3288 267.713432 
L 500.063901 256.196059 
L 500.799002 252.356935 
L 501.534103 267.713432 
L 502.269204 286.909054 
L 503.004305 286.909054 
L 503.739405 267.713432 
L 504.474506 256.196059 
L 505.209607 260.035184 
L 505.944708 252.356935 
L 506.679809 260.035184 
L 507.41491 275.391681 
L 508.150011 267.713432 
L 508.885112 267.713432 
L 509.620213 279.230805 
L 509.620213 279.230805 
" style="fill:none;stroke:#d62728;stroke-linecap:square;stroke-width:1.5;"/>
   </g>
   <g id="patch_3">
    <path d="M 83.472344 352.174167 
L 83.472344 35.0625 
" style="fill:none;stroke:#000000;stroke-linecap:square;stroke-linejoin:miter;stroke-width:0.8;"/>
   </g>
   <g id="patch_4">
    <path d="M 529.912969 352.174167 
L 529.912969 35.0625 
" style="fill:none;stroke:#000000;stroke-linecap:square;stroke-linejoin:miter;stroke-width:0.8;"/>
   </g>
   <g id="patch_5">
    <path d="M 83.472344 352.174167 
L 529.912969 352.174167 
" style="fill:none;stroke:#000000;stroke-linecap:square;stroke-linejoin:miter;stroke-width:0.8;"/>
   </g>
   <g id="patch_6">
    <path d="M 83.472344 35.0625 
L 529.912969 35.0625 
" style="fill:none;stroke:#000000;stroke-linecap:square;stroke-linejoin:miter;stroke-width:0.8;"/>
   </g>
   <g id="legend_1">
    <g id="patch_7">
     <path d="M 554.235 96.775 
L 625.430312 96.775 
Q 627.430312 96.775 627.430312 94.775 
L 627.430312 37.0625 
Q 627.430312 35.0625 625.430312 35.0625 
L 554.235 35.0625 
Q 552.235 35.0625 552.235 37.0625 
L 552.235 94.775 
Q 552.235 96.775 554.235 96.775 
z
" style="fill:#ffffff;opacity:0.8;stroke:#cccccc;stroke-linejoin:miter;"/>
    </g>
    <g id="line2d_20">
     <path d="M 556.235 43.160937 
L 576.235 43.160937 
" style="fill:none;stroke:#1f77b4;stroke-linecap:square;stroke-width:1.5;"/>
    </g>
    <g id="line2d_21"/>
    <g id="text_17">
     <!-- cubic-pi -->
     <defs>
      <path d="M 4.890625 31.390625 
L 31.203125 31.390625 
L 31.203125 23.390625 
L 4.890625 23.390625 
z
" id="DejaVuSans-45"/>
     </defs>
     <g transform="translate(584.235 46.660937)scale(0.1 -0.1)">
      <use xlink:href="#DejaVuSans-99"/>
      <use x="54.980469" xlink:href="#DejaVuSans-117"/>
      <use x="118.359375" xlink:href="#DejaVuSans-98"/>
      <use x="181.835938" xlink:href="#DejaVuSans-105"/>
      <use x="209.619141" xlink:href="#DejaVuSans-99"/>
      <use x="264.599609" xlink:href="#DejaVuSans-45"/>
      <use x="300.683594" xlink:href="#DejaVuSans-112"/>
      <use x="364.160156" xlink:href="#DejaVuSans-105"/>
     </g>
    </g>
    <g id="line2d_22">
     <path d="M 556.235 57.839063 
L 576.235 57.839063 
" style="fill:none;stroke:#ff7f0e;stroke-linecap:square;stroke-width:1.5;"/>
    </g>
    <g id="line2d_23"/>
    <g id="text_18">
     <!-- cubic-pi -->
     <g transform="translate(584.235 61.339063)scale(0.1 -0.1)">
      <use xlink:href="#DejaVuSans-99"/>
      <use x="54.980469" xlink:href="#DejaVuSans-117"/>
      <use x="118.359375" xlink:href="#DejaVuSans-98"/>
      <use x="181.835938" xlink:href="#DejaVuSans-105"/>
      <use x="209.619141" xlink:href="#DejaVuSans-99"/>
      <use x="264.599609" xlink:href="#DejaVuSans-45"/>
      <use x="300.683594" xlink:href="#DejaVuSans-112"/>
      <use x="364.160156" xlink:href="#DejaVuSans-105"/>
     </g>
    </g>
    <g id="line2d_24">
     <path d="M 556.235 72.517187 
L 576.235 72.517187 
" style="fill:none;stroke:#2ca02c;stroke-linecap:square;stroke-width:1.5;"/>
    </g>
    <g id="line2d_25"/>
    <g id="text_19">
     <!-- cubic-pi -->
     <g transform="translate(584.235 76.017187)scale(0.1 -0.1)">
      <use xlink:href="#DejaVuSans-99"/>
      <use x="54.980469" xlink:href="#DejaVuSans-117"/>
      <use x="118.359375" xlink:href="#DejaVuSans-98"/>
      <use x="181.835938" xlink:href="#DejaVuSans-105"/>
      <use x="209.619141" xlink:href="#DejaVuSans-99"/>
      <use x="264.599609" xlink:href="#DejaVuSans-45"/>
      <use x="300.683594" xlink:href="#DejaVuSans-112"/>
      <use x="364.160156" xlink:href="#DejaVuSans-105"/>
     </g>
    </g>
    <g id="line2d_26">
     <path d="M 556.235 87.195312 
L 576.235 87.195312 
" style="fill:none;stroke:#d62728;stroke-linecap:square;stroke-width:1.5;"/>
    </g>
    <g id="line2d_27"/>
    <g id="text_20">
     <!-- cubic-pi -->
     <g transform="translate(584.235 90.695312)scale(0.1 -0.1)">
      <use xlink:href="#DejaVuSans-99"/>
      <use x="54.980469" xlink:href="#DejaVuSans-117"/>
      <use x="118.359375" xlink:href="#DejaVuSans-98"/>
      <use x="181.835938" xlink:href="#DejaVuSans-105"/>
      <use x="209.619141" xlink:href="#DejaVuSans-99"/>
      <use x="264.599609" xlink:href="#DejaVuSans-45"/>
      <use x="300.683594" xlink:href="#DejaVuSans-112"/>
      <use x="364.160156" xlink:href="#DejaVuSans-105"/>
     </g>
    </g>
   </g>
  </g>
  <g id="text_21">
   <!-- result throughput -->
   <defs>
    <path d="M 9.421875 75.984375 
L 18.40625 75.984375 
L 18.40625 0 
L 9.421875 0 
z
" id="DejaVuSans-108"/>
   </defs>
   <g transform="translate(289.320938 17.038125)scale(0.12 -0.12)">
    <use xlink:href="#DejaVuSans-114"/>
    <use x="41.082031" xlink:href="#DejaVuSans-101"/>
    <use x="102.605469" xlink:href="#DejaVuSans-115"/>
    <use x="154.705078" xlink:href="#DejaVuSans-117"/>
    <use x="218.083984" xlink:href="#DejaVuSans-108"/>
    <use x="245.867188" xlink:href="#DejaVuSans-116"/>
    <use x="285.076172" xlink:href="#DejaVuSans-32"/>
    <use x="316.863281" xlink:href="#DejaVuSans-116"/>
    <use x="356.072266" xlink:href="#DejaVuSans-104"/>
    <use x="419.451172" xlink:href="#DejaVuSans-114"/>
    <use x="460.533203" xlink:href="#DejaVuSans-111"/>
    <use x="521.714844" xlink:href="#DejaVuSans-117"/>
    <use x="585.09375" xlink:href="#DejaVuSans-103"/>
    <use x="648.570312" xlink:href="#DejaVuSans-104"/>
    <use x="711.949219" xlink:href="#DejaVuSans-112"/>
    <use x="775.425781" xlink:href="#DejaVuSans-117"/>
    <use x="838.804688" xlink:href="#DejaVuSans-116"/>
   </g>
  </g>
 </g>
 <defs>
  <clipPath id="p8c00fe9e35">
   <rect height="317.111667" width="446.440625" x="83.472344" y="35.0625"/>
  </clipPath>
 </defs>
</svg>
