<?xml version="1.0" encoding="utf-8" standalone="no"?>
<!DOCTYPE svg PUBLIC "-//W3C//DTD SVG 1.1//EN"
  "http://www.w3.org/Graphics/SVG/1.1/DTD/svg11.dtd">
<!-- Created with matplotlib (https://matplotlib.org/) -->
<svg height="396pt" version="1.1" viewBox="0 0 684 396" width="684pt" xmlns="http://www.w3.org/2000/svg" xmlns:xlink="http://www.w3.org/1999/xlink">
 <defs>
  <style type="text/css">
*{stroke-linecap:butt;stroke-linejoin:round;}
  </style>
 </defs>
 <g id="figure_1">
  <g id="patch_1">
   <path d="M 0 396 
L 684 396 
L 684 0 
L 0 0 
z
" style="fill:#ffffff;"/>
  </g>
  <g id="axes_1">
   <g id="patch_2">
    <path d="M 83.472344 352.174167 
L 529.912969 352.174167 
L 529.912969 35.0625 
L 83.472344 35.0625 
z
" style="fill:#ffffff;"/>
   </g>
   <g id="matplotlib.axis_1">
    <g id="xtick_1">
     <g id="line2d_1">
      <defs>
       <path d="M 0 0 
L 0 3.5 
" id="m09dae9f3b0" style="stroke:#000000;stroke-width:0.8;"/>
      </defs>
      <g>
       <use style="stroke:#000000;stroke-width:0.8;" x="103.765099" xlink:href="#m09dae9f3b0" y="352.174167"/>
      </g>
     </g>
     <g id="text_1">
      <!-- 0 -->
      <defs>
       <path d="M 31.78125 66.40625 
Q 24.171875 66.40625 20.328125 58.90625 
Q 16.5 51.421875 16.5 36.375 
Q 16.5 21.390625 20.328125 13.890625 
Q 24.171875 6.390625 31.78125 6.390625 
Q 39.453125 6.390625 43.28125 13.890625 
Q 47.125 21.390625 47.125 36.375 
Q 47.125 51.421875 43.28125 58.90625 
Q 39.453125 66.40625 31.78125 66.40625 
z
M 31.78125 74.21875 
Q 44.046875 74.21875 50.515625 64.515625 
Q 56.984375 54.828125 56.984375 36.375 
Q 56.984375 17.96875 50.515625 8.265625 
Q 44.046875 -1.421875 31.78125 -1.421875 
Q 19.53125 -1.421875 13.0625 8.265625 
Q 6.59375 17.96875 6.59375 36.375 
Q 6.59375 54.828125 13.0625 64.515625 
Q 19.53125 74.21875 31.78125 74.21875 
z
" id="DejaVuSans-48"/>
      </defs>
      <g transform="translate(100.583849 366.772604)scale(0.1 -0.1)">
       <use xlink:href="#DejaVuSans-48"/>
      </g>
     </g>
    </g>
    <g id="xtick_2">
     <g id="line2d_2">
      <g>
       <use style="stroke:#000000;stroke-width:0.8;" x="177.275727" xlink:href="#m09dae9f3b0" y="352.174167"/>
      </g>
     </g>
     <g id="text_2">
      <!-- 50 -->
      <defs>
       <path d="M 10.796875 72.90625 
L 49.515625 72.90625 
L 49.515625 64.59375 
L 19.828125 64.59375 
L 19.828125 46.734375 
Q 21.96875 47.46875 24.109375 47.828125 
Q 26.265625 48.1875 28.421875 48.1875 
Q 40.625 48.1875 47.75 41.5 
Q 54.890625 34.8125 54.890625 23.390625 
Q 54.890625 11.625 47.5625 5.09375 
Q 40.234375 -1.421875 26.90625 -1.421875 
Q 22.3125 -1.421875 17.546875 -0.640625 
Q 12.796875 0.140625 7.71875 1.703125 
L 7.71875 11.625 
Q 12.109375 9.234375 16.796875 8.0625 
Q 21.484375 6.890625 26.703125 6.890625 
Q 35.15625 6.890625 40.078125 11.328125 
Q 45.015625 15.765625 45.015625 23.390625 
Q 45.015625 31 40.078125 35.4375 
Q 35.15625 39.890625 26.703125 39.890625 
Q 22.75 39.890625 18.8125 39.015625 
Q 14.890625 38.140625 10.796875 36.28125 
z
" id="DejaVuSans-53"/>
      </defs>
      <g transform="translate(170.913227 366.772604)scale(0.1 -0.1)">
       <use xlink:href="#DejaVuSans-53"/>
       <use x="63.623047" xlink:href="#DejaVuSans-48"/>
      </g>
     </g>
    </g>
    <g id="xtick_3">
     <g id="line2d_3">
      <g>
       <use style="stroke:#000000;stroke-width:0.8;" x="250.786354" xlink:href="#m09dae9f3b0" y="352.174167"/>
      </g>
     </g>
     <g id="text_3">
      <!-- 100 -->
      <defs>
       <path d="M 12.40625 8.296875 
L 28.515625 8.296875 
L 28.515625 63.921875 
L 10.984375 60.40625 
L 10.984375 69.390625 
L 28.421875 72.90625 
L 38.28125 72.90625 
L 38.28125 8.296875 
L 54.390625 8.296875 
L 54.390625 0 
L 12.40625 0 
z
" id="DejaVuSans-49"/>
      </defs>
      <g transform="translate(241.242604 366.772604)scale(0.1 -0.1)">
       <use xlink:href="#DejaVuSans-49"/>
       <use x="63.623047" xlink:href="#DejaVuSans-48"/>
       <use x="127.246094" xlink:href="#DejaVuSans-48"/>
      </g>
     </g>
    </g>
    <g id="xtick_4">
     <g id="line2d_4">
      <g>
       <use style="stroke:#000000;stroke-width:0.8;" x="324.296981" xlink:href="#m09dae9f3b0" y="352.174167"/>
      </g>
     </g>
     <g id="text_4">
      <!-- 150 -->
      <g transform="translate(314.753231 366.772604)scale(0.1 -0.1)">
       <use xlink:href="#DejaVuSans-49"/>
       <use x="63.623047" xlink:href="#DejaVuSans-53"/>
       <use x="127.246094" xlink:href="#DejaVuSans-48"/>
      </g>
     </g>
    </g>
    <g id="xtick_5">
     <g id="line2d_5">
      <g>
       <use style="stroke:#000000;stroke-width:0.8;" x="397.807609" xlink:href="#m09dae9f3b0" y="352.174167"/>
      </g>
     </g>
     <g id="text_5">
      <!-- 200 -->
      <defs>
       <path d="M 19.1875 8.296875 
L 53.609375 8.296875 
L 53.609375 0 
L 7.328125 0 
L 7.328125 8.296875 
Q 12.9375 14.109375 22.625 23.890625 
Q 32.328125 33.6875 34.8125 36.53125 
Q 39.546875 41.84375 41.421875 45.53125 
Q 43.3125 49.21875 43.3125 52.78125 
Q 43.3125 58.59375 39.234375 62.25 
Q 35.15625 65.921875 28.609375 65.921875 
Q 23.96875 65.921875 18.8125 64.3125 
Q 13.671875 62.703125 7.8125 59.421875 
L 7.8125 69.390625 
Q 13.765625 71.78125 18.9375 73 
Q 24.125 74.21875 28.421875 74.21875 
Q 39.75 74.21875 46.484375 68.546875 
Q 53.21875 62.890625 53.21875 53.421875 
Q 53.21875 48.921875 51.53125 44.890625 
Q 49.859375 40.875 45.40625 35.40625 
Q 44.1875 33.984375 37.640625 27.21875 
Q 31.109375 20.453125 19.1875 8.296875 
z
" id="DejaVuSans-50"/>
      </defs>
      <g transform="translate(388.263859 366.772604)scale(0.1 -0.1)">
       <use xlink:href="#DejaVuSans-50"/>
       <use x="63.623047" xlink:href="#DejaVuSans-48"/>
       <use x="127.246094" xlink:href="#DejaVuSans-48"/>
      </g>
     </g>
    </g>
    <g id="xtick_6">
     <g id="line2d_6">
      <g>
       <use style="stroke:#000000;stroke-width:0.8;" x="471.318236" xlink:href="#m09dae9f3b0" y="352.174167"/>
      </g>
     </g>
     <g id="text_6">
      <!-- 250 -->
      <g transform="translate(461.774486 366.772604)scale(0.1 -0.1)">
       <use xlink:href="#DejaVuSans-50"/>
       <use x="63.623047" xlink:href="#DejaVuSans-53"/>
       <use x="127.246094" xlink:href="#DejaVuSans-48"/>
      </g>
     </g>
    </g>
   </g>
   <g id="matplotlib.axis_2">
    <g id="ytick_1">
     <g id="line2d_7">
      <defs>
       <path d="M 0 0 
L -3.5 0 
" id="ma99c3ecaa7" style="stroke:#000000;stroke-width:0.8;"/>
      </defs>
      <g>
       <use style="stroke:#000000;stroke-width:0.8;" x="83.472344" xlink:href="#ma99c3ecaa7" y="352.174167"/>
      </g>
     </g>
     <g id="text_7">
      <!-- 0 -->
      <g transform="translate(70.109844 355.973385)scale(0.1 -0.1)">
       <use xlink:href="#DejaVuSans-48"/>
      </g>
     </g>
    </g>
    <g id="ytick_2">
     <g id="line2d_8">
      <g>
       <use style="stroke:#000000;stroke-width:0.8;" x="83.472344" xlink:href="#ma99c3ecaa7" y="313.75967"/>
      </g>
     </g>
     <g id="text_8">
      <!-- 10 -->
      <g transform="translate(63.747344 317.558889)scale(0.1 -0.1)">
       <use xlink:href="#DejaVuSans-49"/>
       <use x="63.623047" xlink:href="#DejaVuSans-48"/>
      </g>
     </g>
    </g>
    <g id="ytick_3">
     <g id="line2d_9">
      <g>
       <use style="stroke:#000000;stroke-width:0.8;" x="83.472344" xlink:href="#ma99c3ecaa7" y="275.345174"/>
      </g>
     </g>
     <g id="text_9">
      <!-- 20 -->
      <g transform="translate(63.747344 279.144393)scale(0.1 -0.1)">
       <use xlink:href="#DejaVuSans-50"/>
       <use x="63.623047" xlink:href="#DejaVuSans-48"/>
      </g>
     </g>
    </g>
    <g id="ytick_4">
     <g id="line2d_10">
      <g>
       <use style="stroke:#000000;stroke-width:0.8;" x="83.472344" xlink:href="#ma99c3ecaa7" y="236.930678"/>
      </g>
     </g>
     <g id="text_10">
      <!-- 30 -->
      <defs>
       <path d="M 40.578125 39.3125 
Q 47.65625 37.796875 51.625 33 
Q 55.609375 28.21875 55.609375 21.1875 
Q 55.609375 10.40625 48.1875 4.484375 
Q 40.765625 -1.421875 27.09375 -1.421875 
Q 22.515625 -1.421875 17.65625 -0.515625 
Q 12.796875 0.390625 7.625 2.203125 
L 7.625 11.71875 
Q 11.71875 9.328125 16.59375 8.109375 
Q 21.484375 6.890625 26.8125 6.890625 
Q 36.078125 6.890625 40.9375 10.546875 
Q 45.796875 14.203125 45.796875 21.1875 
Q 45.796875 27.640625 41.28125 31.265625 
Q 36.765625 34.90625 28.71875 34.90625 
L 20.21875 34.90625 
L 20.21875 43.015625 
L 29.109375 43.015625 
Q 36.375 43.015625 40.234375 45.921875 
Q 44.09375 48.828125 44.09375 54.296875 
Q 44.09375 59.90625 40.109375 62.90625 
Q 36.140625 65.921875 28.71875 65.921875 
Q 24.65625 65.921875 20.015625 65.03125 
Q 15.375 64.15625 9.8125 62.3125 
L 9.8125 71.09375 
Q 15.4375 72.65625 20.34375 73.4375 
Q 25.25 74.21875 29.59375 74.21875 
Q 40.828125 74.21875 47.359375 69.109375 
Q 53.90625 64.015625 53.90625 55.328125 
Q 53.90625 49.265625 50.4375 45.09375 
Q 46.96875 40.921875 40.578125 39.3125 
z
" id="DejaVuSans-51"/>
      </defs>
      <g transform="translate(63.747344 240.729897)scale(0.1 -0.1)">
       <use xlink:href="#DejaVuSans-51"/>
       <use x="63.623047" xlink:href="#DejaVuSans-48"/>
      </g>
     </g>
    </g>
    <g id="ytick_5">
     <g id="line2d_11">
      <g>
       <use style="stroke:#000000;stroke-width:0.8;" x="83.472344" xlink:href="#ma99c3ecaa7" y="198.516182"/>
      </g>
     </g>
     <g id="text_11">
      <!-- 40 -->
      <defs>
       <path d="M 37.796875 64.3125 
L 12.890625 25.390625 
L 37.796875 25.390625 
z
M 35.203125 72.90625 
L 47.609375 72.90625 
L 47.609375 25.390625 
L 58.015625 25.390625 
L 58.015625 17.1875 
L 47.609375 17.1875 
L 47.609375 0 
L 37.796875 0 
L 37.796875 17.1875 
L 4.890625 17.1875 
L 4.890625 26.703125 
z
" id="DejaVuSans-52"/>
      </defs>
      <g transform="translate(63.747344 202.3154)scale(0.1 -0.1)">
       <use xlink:href="#DejaVuSans-52"/>
       <use x="63.623047" xlink:href="#DejaVuSans-48"/>
      </g>
     </g>
    </g>
    <g id="ytick_6">
     <g id="line2d_12">
      <g>
       <use style="stroke:#000000;stroke-width:0.8;" x="83.472344" xlink:href="#ma99c3ecaa7" y="160.101685"/>
      </g>
     </g>
     <g id="text_12">
      <!-- 50 -->
      <g transform="translate(63.747344 163.900904)scale(0.1 -0.1)">
       <use xlink:href="#DejaVuSans-53"/>
       <use x="63.623047" xlink:href="#DejaVuSans-48"/>
      </g>
     </g>
    </g>
    <g id="ytick_7">
     <g id="line2d_13">
      <g>
       <use style="stroke:#000000;stroke-width:0.8;" x="83.472344" xlink:href="#ma99c3ecaa7" y="121.687189"/>
      </g>
     </g>
     <g id="text_13">
      <!-- 60 -->
      <defs>
       <path d="M 33.015625 40.375 
Q 26.375 40.375 22.484375 35.828125 
Q 18.609375 31.296875 18.609375 23.390625 
Q 18.609375 15.53125 22.484375 10.953125 
Q 26.375 6.390625 33.015625 6.390625 
Q 39.65625 6.390625 43.53125 10.953125 
Q 47.40625 15.53125 47.40625 23.390625 
Q 47.40625 31.296875 43.53125 35.828125 
Q 39.65625 40.375 33.015625 40.375 
z
M 52.59375 71.296875 
L 52.59375 62.3125 
Q 48.875 64.0625 45.09375 64.984375 
Q 41.3125 65.921875 37.59375 65.921875 
Q 27.828125 65.921875 22.671875 59.328125 
Q 17.53125 52.734375 16.796875 39.40625 
Q 19.671875 43.65625 24.015625 45.921875 
Q 28.375 48.1875 33.59375 48.1875 
Q 44.578125 48.1875 50.953125 41.515625 
Q 57.328125 34.859375 57.328125 23.390625 
Q 57.328125 12.15625 50.6875 5.359375 
Q 44.046875 -1.421875 33.015625 -1.421875 
Q 20.359375 -1.421875 13.671875 8.265625 
Q 6.984375 17.96875 6.984375 36.375 
Q 6.984375 53.65625 15.1875 63.9375 
Q 23.390625 74.21875 37.203125 74.21875 
Q 40.921875 74.21875 44.703125 73.484375 
Q 48.484375 72.75 52.59375 71.296875 
z
" id="DejaVuSans-54"/>
      </defs>
      <g transform="translate(63.747344 125.486408)scale(0.1 -0.1)">
       <use xlink:href="#DejaVuSans-54"/>
       <use x="63.623047" xlink:href="#DejaVuSans-48"/>
      </g>
     </g>
    </g>
    <g id="ytick_8">
     <g id="line2d_14">
      <g>
       <use style="stroke:#000000;stroke-width:0.8;" x="83.472344" xlink:href="#ma99c3ecaa7" y="83.272693"/>
      </g>
     </g>
     <g id="text_14">
      <!-- 70 -->
      <defs>
       <path d="M 8.203125 72.90625 
L 55.078125 72.90625 
L 55.078125 68.703125 
L 28.609375 0 
L 18.3125 0 
L 43.21875 64.59375 
L 8.203125 64.59375 
z
" id="DejaVuSans-55"/>
      </defs>
      <g transform="translate(63.747344 87.071912)scale(0.1 -0.1)">
       <use xlink:href="#DejaVuSans-55"/>
       <use x="63.623047" xlink:href="#DejaVuSans-48"/>
      </g>
     </g>
    </g>
    <g id="ytick_9">
     <g id="line2d_15">
      <g>
       <use style="stroke:#000000;stroke-width:0.8;" x="83.472344" xlink:href="#ma99c3ecaa7" y="44.858197"/>
      </g>
     </g>
     <g id="text_15">
      <!-- 80 -->
      <defs>
       <path d="M 31.78125 34.625 
Q 24.75 34.625 20.71875 30.859375 
Q 16.703125 27.09375 16.703125 20.515625 
Q 16.703125 13.921875 20.71875 10.15625 
Q 24.75 6.390625 31.78125 6.390625 
Q 38.8125 6.390625 42.859375 10.171875 
Q 46.921875 13.96875 46.921875 20.515625 
Q 46.921875 27.09375 42.890625 30.859375 
Q 38.875 34.625 31.78125 34.625 
z
M 21.921875 38.8125 
Q 15.578125 40.375 12.03125 44.71875 
Q 8.5 49.078125 8.5 55.328125 
Q 8.5 64.0625 14.71875 69.140625 
Q 20.953125 74.21875 31.78125 74.21875 
Q 42.671875 74.21875 48.875 69.140625 
Q 55.078125 64.0625 55.078125 55.328125 
Q 55.078125 49.078125 51.53125 44.71875 
Q 48 40.375 41.703125 38.8125 
Q 48.828125 37.15625 52.796875 32.3125 
Q 56.78125 27.484375 56.78125 20.515625 
Q 56.78125 9.90625 50.3125 4.234375 
Q 43.84375 -1.421875 31.78125 -1.421875 
Q 19.734375 -1.421875 13.25 4.234375 
Q 6.78125 9.90625 6.78125 20.515625 
Q 6.78125 27.484375 10.78125 32.3125 
Q 14.796875 37.15625 21.921875 38.8125 
z
M 18.3125 54.390625 
Q 18.3125 48.734375 21.84375 45.5625 
Q 25.390625 42.390625 31.78125 42.390625 
Q 38.140625 42.390625 41.71875 45.5625 
Q 45.3125 48.734375 45.3125 54.390625 
Q 45.3125 60.0625 41.71875 63.234375 
Q 38.140625 66.40625 31.78125 66.40625 
Q 25.390625 66.40625 21.84375 63.234375 
Q 18.3125 60.0625 18.3125 54.390625 
z
" id="DejaVuSans-56"/>
      </defs>
      <g transform="translate(63.747344 48.657415)scale(0.1 -0.1)">
       <use xlink:href="#DejaVuSans-56"/>
       <use x="63.623047" xlink:href="#DejaVuSans-48"/>
      </g>
     </g>
    </g>
    <g id="text_16">
     <!-- throughput -->
     <defs>
      <path d="M 18.3125 70.21875 
L 18.3125 54.6875 
L 36.8125 54.6875 
L 36.8125 47.703125 
L 18.3125 47.703125 
L 18.3125 18.015625 
Q 18.3125 11.328125 20.140625 9.421875 
Q 21.96875 7.515625 27.59375 7.515625 
L 36.8125 7.515625 
L 36.8125 0 
L 27.59375 0 
Q 17.1875 0 13.234375 3.875 
Q 9.28125 7.765625 9.28125 18.015625 
L 9.28125 47.703125 
L 2.6875 47.703125 
L 2.6875 54.6875 
L 9.28125 54.6875 
L 9.28125 70.21875 
z
" id="DejaVuSans-116"/>
      <path d="M 54.890625 33.015625 
L 54.890625 0 
L 45.90625 0 
L 45.90625 32.71875 
Q 45.90625 40.484375 42.875 44.328125 
Q 39.84375 48.1875 33.796875 48.1875 
Q 26.515625 48.1875 22.3125 43.546875 
Q 18.109375 38.921875 18.109375 30.90625 
L 18.109375 0 
L 9.078125 0 
L 9.078125 75.984375 
L 18.109375 75.984375 
L 18.109375 46.1875 
Q 21.34375 51.125 25.703125 53.5625 
Q 30.078125 56 35.796875 56 
Q 45.21875 56 50.046875 50.171875 
Q 54.890625 44.34375 54.890625 33.015625 
z
" id="DejaVuSans-104"/>
      <path d="M 41.109375 46.296875 
Q 39.59375 47.171875 37.8125 47.578125 
Q 36.03125 48 33.890625 48 
Q 26.265625 48 22.1875 43.046875 
Q 18.109375 38.09375 18.109375 28.8125 
L 18.109375 0 
L 9.078125 0 
L 9.078125 54.6875 
L 18.109375 54.6875 
L 18.109375 46.1875 
Q 20.953125 51.171875 25.484375 53.578125 
Q 30.03125 56 36.53125 56 
Q 37.453125 56 38.578125 55.875 
Q 39.703125 55.765625 41.0625 55.515625 
z
" id="DejaVuSans-114"/>
      <path d="M 30.609375 48.390625 
Q 23.390625 48.390625 19.1875 42.75 
Q 14.984375 37.109375 14.984375 27.296875 
Q 14.984375 17.484375 19.15625 11.84375 
Q 23.34375 6.203125 30.609375 6.203125 
Q 37.796875 6.203125 41.984375 11.859375 
Q 46.1875 17.53125 46.1875 27.296875 
Q 46.1875 37.015625 41.984375 42.703125 
Q 37.796875 48.390625 30.609375 48.390625 
z
M 30.609375 56 
Q 42.328125 56 49.015625 48.375 
Q 55.71875 40.765625 55.71875 27.296875 
Q 55.71875 13.875 49.015625 6.21875 
Q 42.328125 -1.421875 30.609375 -1.421875 
Q 18.84375 -1.421875 12.171875 6.21875 
Q 5.515625 13.875 5.515625 27.296875 
Q 5.515625 40.765625 12.171875 48.375 
Q 18.84375 56 30.609375 56 
z
" id="DejaVuSans-111"/>
      <path d="M 8.5 21.578125 
L 8.5 54.6875 
L 17.484375 54.6875 
L 17.484375 21.921875 
Q 17.484375 14.15625 20.5 10.265625 
Q 23.53125 6.390625 29.59375 6.390625 
Q 36.859375 6.390625 41.078125 11.03125 
Q 45.3125 15.671875 45.3125 23.6875 
L 45.3125 54.6875 
L 54.296875 54.6875 
L 54.296875 0 
L 45.3125 0 
L 45.3125 8.40625 
Q 42.046875 3.421875 37.71875 1 
Q 33.40625 -1.421875 27.6875 -1.421875 
Q 18.265625 -1.421875 13.375 4.4375 
Q 8.5 10.296875 8.5 21.578125 
z
M 31.109375 56 
z
" id="DejaVuSans-117"/>
      <path d="M 45.40625 27.984375 
Q 45.40625 37.75 41.375 43.109375 
Q 37.359375 48.484375 30.078125 48.484375 
Q 22.859375 48.484375 18.828125 43.109375 
Q 14.796875 37.75 14.796875 27.984375 
Q 14.796875 18.265625 18.828125 12.890625 
Q 22.859375 7.515625 30.078125 7.515625 
Q 37.359375 7.515625 41.375 12.890625 
Q 45.40625 18.265625 45.40625 27.984375 
z
M 54.390625 6.78125 
Q 54.390625 -7.171875 48.1875 -13.984375 
Q 42 -20.796875 29.203125 -20.796875 
Q 24.46875 -20.796875 20.265625 -20.09375 
Q 16.0625 -19.390625 12.109375 -17.921875 
L 12.109375 -9.1875 
Q 16.0625 -11.328125 19.921875 -12.34375 
Q 23.78125 -13.375 27.78125 -13.375 
Q 36.625 -13.375 41.015625 -8.765625 
Q 45.40625 -4.15625 45.40625 5.171875 
L 45.40625 9.625 
Q 42.625 4.78125 38.28125 2.390625 
Q 33.9375 0 27.875 0 
Q 17.828125 0 11.671875 7.65625 
Q 5.515625 15.328125 5.515625 27.984375 
Q 5.515625 40.671875 11.671875 48.328125 
Q 17.828125 56 27.875 56 
Q 33.9375 56 38.28125 53.609375 
Q 42.625 51.21875 45.40625 46.390625 
L 45.40625 54.6875 
L 54.390625 54.6875 
z
" id="DejaVuSans-103"/>
      <path d="M 18.109375 8.203125 
L 18.109375 -20.796875 
L 9.078125 -20.796875 
L 9.078125 54.6875 
L 18.109375 54.6875 
L 18.109375 46.390625 
Q 20.953125 51.265625 25.265625 53.625 
Q 29.59375 56 35.59375 56 
Q 45.5625 56 51.78125 48.09375 
Q 58.015625 40.1875 58.015625 27.296875 
Q 58.015625 14.40625 51.78125 6.484375 
Q 45.5625 -1.421875 35.59375 -1.421875 
Q 29.59375 -1.421875 25.265625 0.953125 
Q 20.953125 3.328125 18.109375 8.203125 
z
M 48.6875 27.296875 
Q 48.6875 37.203125 44.609375 42.84375 
Q 40.53125 48.484375 33.40625 48.484375 
Q 26.265625 48.484375 22.1875 42.84375 
Q 18.109375 37.203125 18.109375 27.296875 
Q 18.109375 17.390625 22.1875 11.75 
Q 26.265625 6.109375 33.40625 6.109375 
Q 40.53125 6.109375 44.609375 11.75 
Q 48.6875 17.390625 48.6875 27.296875 
z
" id="DejaVuSans-112"/>
     </defs>
     <g transform="translate(46.469844 221.675365)rotate(-90)scale(0.1 -0.1)">
      <use xlink:href="#DejaVuSans-116"/>
      <use x="39.208984" xlink:href="#DejaVuSans-104"/>
      <use x="102.587891" xlink:href="#DejaVuSans-114"/>
      <use x="143.669922" xlink:href="#DejaVuSans-111"/>
      <use x="204.851562" xlink:href="#DejaVuSans-117"/>
      <use x="268.230469" xlink:href="#DejaVuSans-103"/>
      <use x="331.707031" xlink:href="#DejaVuSans-104"/>
      <use x="395.085938" xlink:href="#DejaVuSans-112"/>
      <use x="458.5625" xlink:href="#DejaVuSans-117"/>
      <use x="521.941406" xlink:href="#DejaVuSans-116"/>
     </g>
     <!-- (mbit / second) -->
     <defs>
      <path d="M 31 75.875 
Q 24.46875 64.65625 21.28125 53.65625 
Q 18.109375 42.671875 18.109375 31.390625 
Q 18.109375 20.125 21.3125 9.0625 
Q 24.515625 -2 31 -13.1875 
L 23.1875 -13.1875 
Q 15.875 -1.703125 12.234375 9.375 
Q 8.59375 20.453125 8.59375 31.390625 
Q 8.59375 42.28125 12.203125 53.3125 
Q 15.828125 64.359375 23.1875 75.875 
z
" id="DejaVuSans-40"/>
      <path d="M 52 44.1875 
Q 55.375 50.25 60.0625 53.125 
Q 64.75 56 71.09375 56 
Q 79.640625 56 84.28125 50.015625 
Q 88.921875 44.046875 88.921875 33.015625 
L 88.921875 0 
L 79.890625 0 
L 79.890625 32.71875 
Q 79.890625 40.578125 77.09375 44.375 
Q 74.3125 48.1875 68.609375 48.1875 
Q 61.625 48.1875 57.5625 43.546875 
Q 53.515625 38.921875 53.515625 30.90625 
L 53.515625 0 
L 44.484375 0 
L 44.484375 32.71875 
Q 44.484375 40.625 41.703125 44.40625 
Q 38.921875 48.1875 33.109375 48.1875 
Q 26.21875 48.1875 22.15625 43.53125 
Q 18.109375 38.875 18.109375 30.90625 
L 18.109375 0 
L 9.078125 0 
L 9.078125 54.6875 
L 18.109375 54.6875 
L 18.109375 46.1875 
Q 21.1875 51.21875 25.484375 53.609375 
Q 29.78125 56 35.6875 56 
Q 41.65625 56 45.828125 52.96875 
Q 50 49.953125 52 44.1875 
z
" id="DejaVuSans-109"/>
      <path d="M 48.6875 27.296875 
Q 48.6875 37.203125 44.609375 42.84375 
Q 40.53125 48.484375 33.40625 48.484375 
Q 26.265625 48.484375 22.1875 42.84375 
Q 18.109375 37.203125 18.109375 27.296875 
Q 18.109375 17.390625 22.1875 11.75 
Q 26.265625 6.109375 33.40625 6.109375 
Q 40.53125 6.109375 44.609375 11.75 
Q 48.6875 17.390625 48.6875 27.296875 
z
M 18.109375 46.390625 
Q 20.953125 51.265625 25.265625 53.625 
Q 29.59375 56 35.59375 56 
Q 45.5625 56 51.78125 48.09375 
Q 58.015625 40.1875 58.015625 27.296875 
Q 58.015625 14.40625 51.78125 6.484375 
Q 45.5625 -1.421875 35.59375 -1.421875 
Q 29.59375 -1.421875 25.265625 0.953125 
Q 20.953125 3.328125 18.109375 8.203125 
L 18.109375 0 
L 9.078125 0 
L 9.078125 75.984375 
L 18.109375 75.984375 
z
" id="DejaVuSans-98"/>
      <path d="M 9.421875 54.6875 
L 18.40625 54.6875 
L 18.40625 0 
L 9.421875 0 
z
M 9.421875 75.984375 
L 18.40625 75.984375 
L 18.40625 64.59375 
L 9.421875 64.59375 
z
" id="DejaVuSans-105"/>
      <path id="DejaVuSans-32"/>
      <path d="M 25.390625 72.90625 
L 33.6875 72.90625 
L 8.296875 -9.28125 
L 0 -9.28125 
z
" id="DejaVuSans-47"/>
      <path d="M 44.28125 53.078125 
L 44.28125 44.578125 
Q 40.484375 46.53125 36.375 47.5 
Q 32.28125 48.484375 27.875 48.484375 
Q 21.1875 48.484375 17.84375 46.4375 
Q 14.5 44.390625 14.5 40.28125 
Q 14.5 37.15625 16.890625 35.375 
Q 19.28125 33.59375 26.515625 31.984375 
L 29.59375 31.296875 
Q 39.15625 29.25 43.1875 25.515625 
Q 47.21875 21.78125 47.21875 15.09375 
Q 47.21875 7.46875 41.1875 3.015625 
Q 35.15625 -1.421875 24.609375 -1.421875 
Q 20.21875 -1.421875 15.453125 -0.5625 
Q 10.6875 0.296875 5.421875 2 
L 5.421875 11.28125 
Q 10.40625 8.6875 15.234375 7.390625 
Q 20.0625 6.109375 24.8125 6.109375 
Q 31.15625 6.109375 34.5625 8.28125 
Q 37.984375 10.453125 37.984375 14.40625 
Q 37.984375 18.0625 35.515625 20.015625 
Q 33.0625 21.96875 24.703125 23.78125 
L 21.578125 24.515625 
Q 13.234375 26.265625 9.515625 29.90625 
Q 5.8125 33.546875 5.8125 39.890625 
Q 5.8125 47.609375 11.28125 51.796875 
Q 16.75 56 26.8125 56 
Q 31.78125 56 36.171875 55.265625 
Q 40.578125 54.546875 44.28125 53.078125 
z
" id="DejaVuSans-115"/>
      <path d="M 56.203125 29.59375 
L 56.203125 25.203125 
L 14.890625 25.203125 
Q 15.484375 15.921875 20.484375 11.0625 
Q 25.484375 6.203125 34.421875 6.203125 
Q 39.59375 6.203125 44.453125 7.46875 
Q 49.3125 8.734375 54.109375 11.28125 
L 54.109375 2.78125 
Q 49.265625 0.734375 44.1875 -0.34375 
Q 39.109375 -1.421875 33.890625 -1.421875 
Q 20.796875 -1.421875 13.15625 6.1875 
Q 5.515625 13.8125 5.515625 26.8125 
Q 5.515625 40.234375 12.765625 48.109375 
Q 20.015625 56 32.328125 56 
Q 43.359375 56 49.78125 48.890625 
Q 56.203125 41.796875 56.203125 29.59375 
z
M 47.21875 32.234375 
Q 47.125 39.59375 43.09375 43.984375 
Q 39.0625 48.390625 32.421875 48.390625 
Q 24.90625 48.390625 20.390625 44.140625 
Q 15.875 39.890625 15.1875 32.171875 
z
" id="DejaVuSans-101"/>
      <path d="M 48.78125 52.59375 
L 48.78125 44.1875 
Q 44.96875 46.296875 41.140625 47.34375 
Q 37.3125 48.390625 33.40625 48.390625 
Q 24.65625 48.390625 19.8125 42.84375 
Q 14.984375 37.3125 14.984375 27.296875 
Q 14.984375 17.28125 19.8125 11.734375 
Q 24.65625 6.203125 33.40625 6.203125 
Q 37.3125 6.203125 41.140625 7.25 
Q 44.96875 8.296875 48.78125 10.40625 
L 48.78125 2.09375 
Q 45.015625 0.34375 40.984375 -0.53125 
Q 36.96875 -1.421875 32.421875 -1.421875 
Q 20.0625 -1.421875 12.78125 6.34375 
Q 5.515625 14.109375 5.515625 27.296875 
Q 5.515625 40.671875 12.859375 48.328125 
Q 20.21875 56 33.015625 56 
Q 37.15625 56 41.109375 55.140625 
Q 45.0625 54.296875 48.78125 52.59375 
z
" id="DejaVuSans-99"/>
      <path d="M 54.890625 33.015625 
L 54.890625 0 
L 45.90625 0 
L 45.90625 32.71875 
Q 45.90625 40.484375 42.875 44.328125 
Q 39.84375 48.1875 33.796875 48.1875 
Q 26.515625 48.1875 22.3125 43.546875 
Q 18.109375 38.921875 18.109375 30.90625 
L 18.109375 0 
L 9.078125 0 
L 9.078125 54.6875 
L 18.109375 54.6875 
L 18.109375 46.1875 
Q 21.34375 51.125 25.703125 53.5625 
Q 30.078125 56 35.796875 56 
Q 45.21875 56 50.046875 50.171875 
Q 54.890625 44.34375 54.890625 33.015625 
z
" id="DejaVuSans-110"/>
      <path d="M 45.40625 46.390625 
L 45.40625 75.984375 
L 54.390625 75.984375 
L 54.390625 0 
L 45.40625 0 
L 45.40625 8.203125 
Q 42.578125 3.328125 38.25 0.953125 
Q 33.9375 -1.421875 27.875 -1.421875 
Q 17.96875 -1.421875 11.734375 6.484375 
Q 5.515625 14.40625 5.515625 27.296875 
Q 5.515625 40.1875 11.734375 48.09375 
Q 17.96875 56 27.875 56 
Q 33.9375 56 38.25 53.625 
Q 42.578125 51.265625 45.40625 46.390625 
z
M 14.796875 27.296875 
Q 14.796875 17.390625 18.875 11.75 
Q 22.953125 6.109375 30.078125 6.109375 
Q 37.203125 6.109375 41.296875 11.75 
Q 45.40625 17.390625 45.40625 27.296875 
Q 45.40625 37.203125 41.296875 42.84375 
Q 37.203125 48.484375 30.078125 48.484375 
Q 22.953125 48.484375 18.875 42.84375 
Q 14.796875 37.203125 14.796875 27.296875 
z
" id="DejaVuSans-100"/>
      <path d="M 8.015625 75.875 
L 15.828125 75.875 
Q 23.140625 64.359375 26.78125 53.3125 
Q 30.421875 42.28125 30.421875 31.390625 
Q 30.421875 20.453125 26.78125 9.375 
Q 23.140625 -1.703125 15.828125 -13.1875 
L 8.015625 -13.1875 
Q 14.5 -2 17.703125 9.0625 
Q 20.90625 20.125 20.90625 31.390625 
Q 20.90625 42.671875 17.703125 53.65625 
Q 14.5 64.65625 8.015625 75.875 
z
" id="DejaVuSans-41"/>
     </defs>
     <g transform="translate(57.667656 231.608958)rotate(-90)scale(0.1 -0.1)">
      <use xlink:href="#DejaVuSans-40"/>
      <use x="39.013672" xlink:href="#DejaVuSans-109"/>
      <use x="136.425781" xlink:href="#DejaVuSans-98"/>
      <use x="199.902344" xlink:href="#DejaVuSans-105"/>
      <use x="227.685547" xlink:href="#DejaVuSans-116"/>
      <use x="266.894531" xlink:href="#DejaVuSans-32"/>
      <use x="298.681641" xlink:href="#DejaVuSans-47"/>
      <use x="332.373047" xlink:href="#DejaVuSans-32"/>
      <use x="364.160156" xlink:href="#DejaVuSans-115"/>
      <use x="416.259766" xlink:href="#DejaVuSans-101"/>
      <use x="477.783203" xlink:href="#DejaVuSans-99"/>
      <use x="532.763672" xlink:href="#DejaVuSans-111"/>
      <use x="593.945312" xlink:href="#DejaVuSans-110"/>
      <use x="657.324219" xlink:href="#DejaVuSans-100"/>
      <use x="720.800781" xlink:href="#DejaVuSans-41"/>
     </g>
    </g>
   </g>
   <g id="line2d_16">
    <path clip-path="url(#pf446fd4dc3)" d="M 112.662826 313.75967 
L 113.397932 294.552422 
L 115.603251 294.552422 
L 116.338357 275.345174 
L 117.073463 275.345174 
L 117.80857 279.186624 
L 118.543676 279.186624 
L 119.278782 275.345174 
L 121.484101 275.345174 
L 122.219207 290.710973 
L 122.954314 286.869523 
L 123.68942 279.186624 
L 124.424526 283.028073 
L 125.159632 294.552422 
L 125.894739 290.710973 
L 126.629845 279.186624 
L 128.100057 279.186624 
L 128.835164 271.503725 
L 130.305376 263.820825 
L 131.040483 263.820825 
L 131.775589 271.503725 
L 132.510695 267.662275 
L 133.980908 267.662275 
L 134.716014 283.028073 
L 135.45112 283.028073 
L 136.186226 279.186624 
L 136.921333 283.028073 
L 137.656439 290.710973 
L 138.391545 286.869523 
L 139.126652 271.503725 
L 139.861758 267.662275 
L 140.596864 275.345174 
L 141.33197 271.503725 
L 142.067077 252.296476 
L 143.537289 252.296476 
L 144.272395 259.979376 
L 145.007502 275.345174 
L 145.742608 286.869523 
L 146.477714 286.869523 
L 147.947927 302.235322 
L 148.683033 298.393872 
L 149.418139 290.710973 
L 150.888352 283.028073 
L 151.623458 267.662275 
L 153.093671 267.662275 
L 154.563883 283.028073 
L 155.29899 279.186624 
L 156.034096 286.869523 
L 158.239415 286.869523 
L 158.974521 290.710973 
L 160.444733 290.710973 
L 161.17984 279.186624 
L 161.914946 283.028073 
L 162.650052 271.503725 
L 163.385159 267.662275 
L 164.855371 267.662275 
L 165.590477 271.503725 
L 167.06069 271.503725 
L 167.795796 279.186624 
L 170.001115 290.710973 
L 171.471328 290.710973 
L 172.206434 286.869523 
L 172.94154 271.503725 
L 174.411753 271.503725 
L 175.881965 279.186624 
L 176.617071 275.345174 
L 177.352178 275.345174 
L 178.087284 267.662275 
L 178.82239 267.662275 
L 180.292603 275.345174 
L 181.762815 275.345174 
L 182.497922 263.820825 
L 183.233028 256.137926 
L 183.968134 259.979376 
L 184.70324 259.979376 
L 185.438347 267.662275 
L 187.643666 267.662275 
L 188.378772 259.979376 
L 189.113878 256.137926 
L 189.848984 256.137926 
L 190.584091 263.820825 
L 191.319197 275.345174 
L 192.054303 267.662275 
L 192.789409 248.455027 
L 194.259622 256.137926 
L 194.994728 252.296476 
L 195.729835 252.296476 
L 196.464941 259.979376 
L 197.935153 259.979376 
L 198.67026 256.137926 
L 199.405366 248.455027 
L 200.140472 252.296476 
L 200.875578 244.613577 
L 201.610685 244.613577 
L 202.345791 248.455027 
L 205.286216 248.455027 
L 206.021322 271.503725 
L 206.756429 271.503725 
L 207.491535 267.662275 
L 208.226641 275.345174 
L 208.961747 279.186624 
L 210.43196 279.186624 
L 211.167066 286.869523 
L 211.902173 286.869523 
L 212.637279 290.710973 
L 213.372385 298.393872 
L 214.107491 298.393872 
L 214.842598 286.869523 
L 216.31281 286.869523 
L 217.047916 294.552422 
L 217.783023 290.710973 
L 219.988342 290.710973 
L 220.723448 286.869523 
L 221.458554 286.869523 
L 222.19366 283.028073 
L 222.928767 275.345174 
L 224.398979 267.662275 
L 225.134085 259.979376 
L 225.869192 263.820825 
L 226.604298 259.979376 
L 228.074511 259.979376 
L 229.544723 267.662275 
L 230.279829 279.186624 
L 231.014936 279.186624 
L 232.485148 286.869523 
L 233.955361 286.869523 
L 234.690467 298.393872 
L 235.425573 290.710973 
L 236.16068 286.869523 
L 236.895786 290.710973 
L 237.630892 302.235322 
L 239.836211 290.710973 
L 241.306423 275.345174 
L 242.04153 275.345174 
L 242.776636 271.503725 
L 244.246849 248.455027 
L 244.981955 252.296476 
L 245.717061 252.296476 
L 247.187274 275.345174 
L 250.127699 275.345174 
L 251.597911 283.028073 
L 252.333018 283.028073 
L 253.068124 275.345174 
L 253.80323 263.820825 
L 254.538336 267.662275 
L 255.273443 267.662275 
L 256.008549 275.345174 
L 256.743655 279.186624 
L 257.478761 279.186624 
L 258.213868 290.710973 
L 258.948974 290.710973 
L 260.419187 283.028073 
L 261.154293 286.869523 
L 262.624505 286.869523 
L 263.359612 283.028073 
L 264.094718 283.028073 
L 264.829824 275.345174 
L 265.56493 275.345174 
L 266.300037 259.979376 
L 267.035143 256.137926 
L 267.770249 256.137926 
L 268.505356 267.662275 
L 269.240462 275.345174 
L 269.975568 267.662275 
L 270.710674 256.137926 
L 271.445781 259.979376 
L 272.180887 256.137926 
L 272.915993 256.137926 
L 273.6511 275.345174 
L 275.121312 275.345174 
L 275.856418 279.186624 
L 277.326631 279.186624 
L 278.061737 271.503725 
L 278.796843 271.503725 
L 279.53195 252.296476 
L 281.002162 252.296476 
L 281.737269 263.820825 
L 282.472375 267.662275 
L 283.207481 263.820825 
L 283.942587 283.028073 
L 284.677694 283.028073 
L 285.4128 279.186624 
L 286.147906 286.869523 
L 286.883012 290.710973 
L 287.618119 290.710973 
L 289.088331 275.345174 
L 289.823438 275.345174 
L 291.29365 267.662275 
L 292.028756 256.137926 
L 292.763863 256.137926 
L 293.498969 271.503725 
L 294.234075 271.503725 
L 294.969181 275.345174 
L 295.704288 283.028073 
L 296.439394 283.028073 
L 297.1745 286.869523 
L 297.909607 294.552422 
L 298.644713 294.552422 
L 299.379819 283.028073 
L 300.114925 283.028073 
L 300.850032 290.710973 
L 301.585138 294.552422 
L 304.525563 294.552422 
L 305.260669 290.710973 
L 305.995776 283.028073 
L 306.730882 283.028073 
L 307.465988 271.503725 
L 308.201094 271.503725 
L 308.936201 279.186624 
L 309.671307 283.028073 
L 311.141519 275.345174 
L 311.876626 267.662275 
L 312.611732 263.820825 
L 313.346838 267.662275 
L 314.081945 279.186624 
L 314.817051 275.345174 
L 315.552157 275.345174 
L 317.02237 267.662275 
L 317.757476 259.979376 
L 319.227688 259.979376 
L 319.962795 267.662275 
L 320.697901 267.662275 
L 322.90322 256.137926 
L 324.373432 271.503725 
L 325.843645 271.503725 
L 327.313857 263.820825 
L 328.048964 252.296476 
L 328.78407 252.296476 
L 329.519176 256.137926 
L 330.254283 263.820825 
L 330.989389 259.979376 
L 331.724495 259.979376 
L 332.459601 248.455027 
L 333.194708 248.455027 
L 333.929814 252.296476 
L 334.66492 267.662275 
L 336.870239 267.662275 
L 337.605345 252.296476 
L 338.340452 252.296476 
L 339.075558 263.820825 
L 339.810664 279.186624 
L 342.751089 279.186624 
L 343.486195 283.028073 
L 344.221302 290.710973 
L 344.956408 283.028073 
L 345.691514 271.503725 
L 346.426621 271.503725 
L 347.161727 275.345174 
L 347.896833 283.028073 
L 349.367046 283.028073 
L 350.102152 267.662275 
L 350.837258 263.820825 
L 351.572364 267.662275 
L 352.307471 267.662275 
L 353.042577 256.137926 
L 353.777683 256.137926 
L 354.51279 252.296476 
L 355.247896 244.613577 
L 355.983002 244.613577 
L 356.718108 240.772127 
L 357.453215 229.247779 
L 358.188321 229.247779 
L 358.923427 236.930678 
L 359.658533 240.772127 
L 360.39364 236.930678 
L 361.128746 240.772127 
L 361.863852 256.137926 
L 362.598959 259.979376 
L 363.334065 259.979376 
L 364.069171 248.455027 
L 364.804277 252.296476 
L 365.539384 244.613577 
L 367.009596 236.930678 
L 367.744702 229.247779 
L 368.479809 233.089228 
L 369.214915 217.72343 
L 369.950021 221.564879 
L 370.685128 233.089228 
L 372.15534 233.089228 
L 372.890446 240.772127 
L 373.625553 252.296476 
L 374.360659 252.296476 
L 375.095765 259.979376 
L 375.830871 271.503725 
L 376.565978 271.503725 
L 378.03619 279.186624 
L 379.506403 279.186624 
L 380.241509 275.345174 
L 380.976615 267.662275 
L 381.711722 267.662275 
L 382.446828 256.137926 
L 383.181934 256.137926 
L 383.91704 259.979376 
L 384.652147 279.186624 
L 385.387253 279.186624 
L 386.122359 283.028073 
L 387.592572 283.028073 
L 388.327678 271.503725 
L 389.062784 271.503725 
L 389.797891 275.345174 
L 390.532997 283.028073 
L 391.268103 283.028073 
L 392.003209 259.979376 
L 392.738316 263.820825 
L 393.473422 263.820825 
L 394.208528 267.662275 
L 397.88406 267.662275 
L 398.619166 263.820825 
L 400.089378 279.186624 
L 400.824485 279.186624 
L 401.559591 290.710973 
L 402.294697 290.710973 
L 403.029804 283.028073 
L 403.76491 279.186624 
L 404.500016 283.028073 
L 405.235122 290.710973 
L 406.705335 283.028073 
L 407.440441 283.028073 
L 408.910654 290.710973 
L 410.380866 283.028073 
L 411.115973 275.345174 
L 411.851079 275.345174 
L 412.586185 263.820825 
L 413.321291 263.820825 
L 414.056398 279.186624 
L 414.791504 279.186624 
L 415.52661 267.662275 
L 416.261716 267.662275 
L 416.996823 271.503725 
L 419.937248 271.503725 
L 420.672354 259.979376 
L 421.40746 252.296476 
L 422.142567 256.137926 
L 422.877673 252.296476 
L 423.612779 244.613577 
L 424.347885 244.613577 
L 425.082992 256.137926 
L 426.553204 263.820825 
L 427.288311 271.503725 
L 428.758523 279.186624 
L 429.493629 286.869523 
L 430.963842 294.552422 
L 432.434054 294.552422 
L 433.169161 290.710973 
L 433.904267 275.345174 
L 435.37448 275.345174 
L 436.844692 283.028073 
L 437.579798 279.186624 
L 438.314905 279.186624 
L 439.050011 271.503725 
L 439.785117 275.345174 
L 440.520223 283.028073 
L 441.25533 279.186624 
L 441.990436 279.186624 
L 442.725542 275.345174 
L 443.460649 267.662275 
L 444.195755 271.503725 
L 444.930861 267.662275 
L 445.665967 271.503725 
L 446.401074 279.186624 
L 447.871286 271.503725 
L 448.606392 263.820825 
L 449.341499 259.979376 
L 450.076605 263.820825 
L 450.811711 271.503725 
L 453.01703 271.503725 
L 453.752136 283.028073 
L 455.222349 283.028073 
L 455.957455 290.710973 
L 458.162774 290.710973 
L 458.89788 294.552422 
L 459.632987 290.710973 
L 460.368093 290.710973 
L 461.103199 298.393872 
L 462.573412 298.393872 
L 464.043624 283.028073 
L 464.77873 283.028073 
L 465.513837 294.552422 
L 466.248943 294.552422 
L 466.984049 283.028073 
L 468.454262 283.028073 
L 469.189368 271.503725 
L 470.659581 271.503725 
L 471.394687 275.345174 
L 472.129793 271.503725 
L 473.600006 271.503725 
L 474.335112 283.028073 
L 475.070218 290.710973 
L 477.275537 279.186624 
L 478.010643 283.028073 
L 479.480856 283.028073 
L 480.215962 286.869523 
L 480.951068 294.552422 
L 482.421281 294.552422 
L 483.156387 298.393872 
L 483.891494 298.393872 
L 484.6266 290.710973 
L 487.567025 275.345174 
L 488.302131 259.979376 
L 489.037237 263.820825 
L 489.772344 263.820825 
L 490.50745 240.772127 
L 491.977663 248.455027 
L 492.712769 240.772127 
L 493.447875 236.930678 
L 494.182981 236.930678 
L 494.918088 221.564879 
L 495.653194 225.406329 
L 496.3883 233.089228 
L 497.858513 233.089228 
L 498.593619 252.296476 
L 500.063832 259.979376 
L 500.798938 271.503725 
L 502.26915 271.503725 
L 503.004257 267.662275 
L 503.739363 279.186624 
L 504.474469 279.186624 
L 505.209575 267.662275 
L 506.679788 267.662275 
L 507.414894 279.186624 
L 509.620213 279.186624 
L 509.620213 279.186624 
" style="fill:none;stroke:#1f77b4;stroke-linecap:square;stroke-width:1.5;"/>
   </g>
   <g id="line2d_17">
    <path clip-path="url(#pf446fd4dc3)" d="M 109.666533 306.076771 
L 110.401639 263.820825 
L 111.136745 244.613577 
L 111.871851 244.613577 
L 112.606958 259.979376 
L 113.342064 263.820825 
L 114.07717 263.820825 
L 114.812276 267.662275 
L 115.547383 267.662275 
L 116.282489 271.503725 
L 119.222914 271.503725 
L 119.95802 275.345174 
L 121.428233 275.345174 
L 122.163339 267.662275 
L 122.898446 275.345174 
L 123.633552 279.186624 
L 124.368658 275.345174 
L 125.103764 267.662275 
L 125.838871 275.345174 
L 127.309083 283.028073 
L 128.044189 279.186624 
L 128.779296 286.869523 
L 129.514402 290.710973 
L 130.984615 283.028073 
L 132.454827 290.710973 
L 133.189933 290.710973 
L 133.92504 286.869523 
L 134.660146 275.345174 
L 135.395252 275.345174 
L 136.865465 267.662275 
L 137.600571 256.137926 
L 139.070784 263.820825 
L 141.276102 263.820825 
L 142.011209 275.345174 
L 143.481421 275.345174 
L 144.951634 267.662275 
L 145.68674 279.186624 
L 146.421846 279.186624 
L 147.156953 283.028073 
L 147.892059 290.710973 
L 148.627165 290.710973 
L 149.362271 279.186624 
L 150.097378 279.186624 
L 150.832484 283.028073 
L 153.037803 283.028073 
L 153.772909 279.186624 
L 154.508015 271.503725 
L 155.243122 275.345174 
L 155.978228 286.869523 
L 156.713334 279.186624 
L 157.44844 279.186624 
L 158.918653 286.869523 
L 160.388865 286.869523 
L 161.123972 298.393872 
L 161.859078 294.552422 
L 162.594184 302.235322 
L 164.064397 302.235322 
L 164.799503 290.710973 
L 165.534609 283.028073 
L 167.004822 283.028073 
L 167.739928 294.552422 
L 169.210141 286.869523 
L 169.945247 271.503725 
L 170.680353 271.503725 
L 172.150566 279.186624 
L 173.620778 279.186624 
L 174.355885 275.345174 
L 175.090991 279.186624 
L 175.826097 286.869523 
L 177.29631 286.869523 
L 178.031416 275.345174 
L 179.501629 275.345174 
L 180.236735 279.186624 
L 182.442054 279.186624 
L 183.17716 286.869523 
L 183.912266 283.028073 
L 184.647372 286.869523 
L 187.587798 286.869523 
L 188.322904 302.235322 
L 189.05801 309.918221 
L 189.793116 309.918221 
L 190.528223 313.75967 
L 191.998435 313.75967 
L 192.733541 317.60112 
L 193.468648 313.75967 
L 194.203754 313.75967 
L 194.93886 306.076771 
L 195.673967 302.235322 
L 196.409073 306.076771 
L 197.879285 306.076771 
L 199.349498 313.75967 
L 200.084604 309.918221 
L 200.81971 317.60112 
L 201.554817 313.75967 
L 203.025029 313.75967 
L 203.760136 309.918221 
L 204.495242 309.918221 
L 205.230348 306.076771 
L 205.965454 298.393872 
L 206.700561 298.393872 
L 207.435667 290.710973 
L 208.170773 279.186624 
L 208.905879 271.503725 
L 209.640986 271.503725 
L 210.376092 275.345174 
L 211.111198 286.869523 
L 211.846305 283.028073 
L 212.581411 275.345174 
L 213.316517 271.503725 
L 214.051623 275.345174 
L 214.78673 286.869523 
L 216.256942 286.869523 
L 216.992048 275.345174 
L 218.462261 275.345174 
L 219.197367 271.503725 
L 222.137792 271.503725 
L 223.608005 256.137926 
L 224.343111 259.979376 
L 225.078217 275.345174 
L 225.813324 271.503725 
L 226.54843 275.345174 
L 228.753749 275.345174 
L 229.488855 271.503725 
L 230.223961 259.979376 
L 231.694174 267.662275 
L 233.899493 267.662275 
L 234.634599 263.820825 
L 235.369705 256.137926 
L 236.839918 256.137926 
L 237.575024 244.613577 
L 238.31013 244.613577 
L 239.045237 240.772127 
L 239.780343 233.089228 
L 240.515449 240.772127 
L 241.250555 252.296476 
L 241.985662 248.455027 
L 242.720768 240.772127 
L 243.455874 252.296476 
L 244.926087 259.979376 
L 245.661193 259.979376 
L 246.396299 271.503725 
L 247.131406 279.186624 
L 250.071831 279.186624 
L 250.806937 263.820825 
L 251.542043 259.979376 
L 252.27715 263.820825 
L 253.012256 263.820825 
L 253.747362 267.662275 
L 255.217575 267.662275 
L 255.952681 259.979376 
L 256.687787 256.137926 
L 257.422893 259.979376 
L 258.158 248.455027 
L 258.893106 248.455027 
L 261.098425 283.028073 
L 261.833531 279.186624 
L 263.303744 279.186624 
L 264.03885 275.345174 
L 264.773956 286.869523 
L 265.509062 286.869523 
L 266.244169 290.710973 
L 267.714381 290.710973 
L 269.9197 279.186624 
L 270.654806 267.662275 
L 271.389913 267.662275 
L 272.860125 259.979376 
L 273.595231 252.296476 
L 274.330338 252.296476 
L 275.065444 256.137926 
L 277.270763 256.137926 
L 278.005869 271.503725 
L 278.740975 279.186624 
L 280.211188 286.869523 
L 280.946294 286.869523 
L 281.6814 279.186624 
L 282.416507 275.345174 
L 283.151613 275.345174 
L 283.886719 267.662275 
L 285.356932 259.979376 
L 286.092038 267.662275 
L 286.827144 271.503725 
L 288.297357 263.820825 
L 289.032463 256.137926 
L 289.767569 256.137926 
L 290.502676 259.979376 
L 291.237782 256.137926 
L 291.972888 271.503725 
L 292.707995 271.503725 
L 293.443101 256.137926 
L 294.178207 256.137926 
L 294.913313 252.296476 
L 295.64842 244.613577 
L 296.383526 248.455027 
L 297.118632 248.455027 
L 297.853738 236.930678 
L 298.588845 240.772127 
L 299.323951 252.296476 
L 300.059057 256.137926 
L 301.52927 240.772127 
L 302.264376 244.613577 
L 302.999482 256.137926 
L 303.734589 256.137926 
L 304.469695 259.979376 
L 305.204801 259.979376 
L 305.939907 275.345174 
L 306.675014 275.345174 
L 307.41012 259.979376 
L 308.145226 259.979376 
L 309.615439 252.296476 
L 310.350545 256.137926 
L 311.085651 252.296476 
L 312.555864 267.662275 
L 313.29097 263.820825 
L 314.026076 244.613577 
L 314.761183 248.455027 
L 316.966502 248.455027 
L 317.701608 259.979376 
L 318.436714 263.820825 
L 319.17182 263.820825 
L 319.906927 271.503725 
L 321.377139 271.503725 
L 322.847352 263.820825 
L 323.582458 267.662275 
L 325.787777 267.662275 
L 326.522883 275.345174 
L 327.257989 286.869523 
L 327.993096 294.552422 
L 328.728202 298.393872 
L 329.463308 298.393872 
L 330.198414 302.235322 
L 330.933521 298.393872 
L 331.668627 298.393872 
L 332.403733 309.918221 
L 333.13884 306.076771 
L 333.873946 306.076771 
L 334.609052 309.918221 
L 335.344158 306.076771 
L 336.079265 306.076771 
L 336.814371 302.235322 
L 337.549477 294.552422 
L 338.284583 290.710973 
L 339.01969 290.710973 
L 339.754796 283.028073 
L 342.695221 283.028073 
L 343.430327 275.345174 
L 344.165434 271.503725 
L 345.635646 279.186624 
L 346.370752 275.345174 
L 347.105859 275.345174 
L 347.840965 267.662275 
L 348.576071 263.820825 
L 350.046284 271.503725 
L 352.251603 271.503725 
L 352.986709 283.028073 
L 354.456921 290.710973 
L 355.192028 298.393872 
L 355.927134 298.393872 
L 356.66224 309.918221 
L 358.132453 302.235322 
L 358.867559 306.076771 
L 359.602665 302.235322 
L 361.072878 302.235322 
L 361.807984 290.710973 
L 362.54309 290.710973 
L 363.278197 286.869523 
L 364.013303 279.186624 
L 364.748409 275.345174 
L 365.483516 286.869523 
L 366.218622 286.869523 
L 366.953728 283.028073 
L 367.688834 275.345174 
L 368.423941 279.186624 
L 369.159047 294.552422 
L 369.894153 294.552422 
L 370.629259 279.186624 
L 372.099472 279.186624 
L 373.569685 286.869523 
L 375.039897 279.186624 
L 375.775003 271.503725 
L 376.51011 275.345174 
L 377.245216 275.345174 
L 377.980322 279.186624 
L 378.715428 279.186624 
L 379.450535 275.345174 
L 380.185641 275.345174 
L 380.920747 267.662275 
L 381.655854 271.503725 
L 382.39096 279.186624 
L 383.126066 279.186624 
L 384.596279 271.503725 
L 385.331385 259.979376 
L 386.066491 256.137926 
L 386.801597 259.979376 
L 387.536704 259.979376 
L 388.27181 271.503725 
L 389.006916 271.503725 
L 390.477129 256.137926 
L 391.212235 259.979376 
L 391.947341 271.503725 
L 397.828192 271.503725 
L 398.563298 267.662275 
L 399.298404 259.979376 
L 400.03351 256.137926 
L 400.768617 256.137926 
L 401.503723 244.613577 
L 402.238829 244.613577 
L 402.973935 256.137926 
L 403.709042 263.820825 
L 404.444148 263.820825 
L 405.179254 275.345174 
L 405.914361 275.345174 
L 406.649467 286.869523 
L 407.384573 294.552422 
L 408.119679 298.393872 
L 409.589892 298.393872 
L 411.060104 306.076771 
L 411.795211 302.235322 
L 412.530317 309.918221 
L 413.265423 309.918221 
L 414.735636 302.235322 
L 415.470742 290.710973 
L 416.940955 290.710973 
L 417.676061 286.869523 
L 419.88138 286.869523 
L 420.616486 290.710973 
L 422.086699 290.710973 
L 422.821805 294.552422 
L 423.556911 302.235322 
L 424.292017 298.393872 
L 425.027124 290.710973 
L 425.76223 286.869523 
L 426.497336 286.869523 
L 427.232442 275.345174 
L 427.967549 275.345174 
L 428.702655 279.186624 
L 429.437761 286.869523 
L 430.172868 283.028073 
L 430.907974 290.710973 
L 435.318611 290.710973 
L 436.788824 298.393872 
L 437.52393 298.393872 
L 439.729249 286.869523 
L 440.464355 267.662275 
L 441.934568 267.662275 
L 442.669674 271.503725 
L 443.40478 283.028073 
L 444.139887 279.186624 
L 444.874993 271.503725 
L 445.610099 267.662275 
L 446.345206 259.979376 
L 447.080312 263.820825 
L 447.815418 259.979376 
L 448.550524 267.662275 
L 449.285631 271.503725 
L 450.020737 271.503725 
L 450.755843 256.137926 
L 451.490949 252.296476 
L 452.961162 259.979376 
L 453.696268 271.503725 
L 454.431375 267.662275 
L 456.636693 279.186624 
L 458.106906 279.186624 
L 458.842012 283.028073 
L 460.312225 283.028073 
L 461.047331 290.710973 
L 462.517544 290.710973 
L 463.987756 275.345174 
L 464.722862 275.345174 
L 465.457969 290.710973 
L 466.193075 286.869523 
L 466.928181 298.393872 
L 467.663287 298.393872 
L 468.398394 294.552422 
L 469.1335 283.028073 
L 469.868606 283.028073 
L 470.603713 286.869523 
L 471.338819 283.028073 
L 473.544138 283.028073 
L 474.279244 279.186624 
L 475.01435 271.503725 
L 475.749456 279.186624 
L 476.484563 290.710973 
L 477.219669 286.869523 
L 477.954775 290.710973 
L 478.689882 290.710973 
L 479.424988 286.869523 
L 480.160094 290.710973 
L 480.8952 298.393872 
L 481.630307 294.552422 
L 482.365413 298.393872 
L 483.835625 298.393872 
L 485.305838 306.076771 
L 487.511157 294.552422 
L 488.246263 286.869523 
L 488.981369 283.028073 
L 489.716476 283.028073 
L 490.451582 290.710973 
L 491.921794 290.710973 
L 492.656901 306.076771 
L 494.127113 298.393872 
L 494.86222 306.076771 
L 495.597326 309.918221 
L 496.332432 309.918221 
L 497.067538 306.076771 
L 497.802645 306.076771 
L 498.537751 313.75967 
L 500.007963 306.076771 
L 500.74307 298.393872 
L 501.478176 298.393872 
L 502.948389 290.710973 
L 503.683495 298.393872 
L 504.418601 298.393872 
L 505.153707 290.710973 
L 505.888814 286.869523 
L 506.62392 290.710973 
L 506.62392 290.710973 
" style="fill:none;stroke:#ff7f0e;stroke-linecap:square;stroke-width:1.5;"/>
   </g>
   <g id="line2d_18">
    <path clip-path="url(#pf446fd4dc3)" d="M 106.737869 321.44257 
L 107.472975 306.076771 
L 108.943188 298.393872 
L 109.678294 306.076771 
L 110.413401 309.918221 
L 111.883613 309.918221 
L 112.618719 313.75967 
L 113.353826 313.75967 
L 114.088932 309.918221 
L 114.824038 309.918221 
L 115.559144 306.076771 
L 116.294251 309.918221 
L 117.029357 306.076771 
L 119.234676 306.076771 
L 119.969782 302.235322 
L 120.704888 302.235322 
L 122.175101 294.552422 
L 122.910207 286.869523 
L 123.645313 283.028073 
L 124.38042 286.869523 
L 125.115526 294.552422 
L 125.850632 283.028073 
L 126.585739 279.186624 
L 128.055951 279.186624 
L 128.791057 286.869523 
L 129.526164 290.710973 
L 130.996376 283.028073 
L 131.731482 263.820825 
L 133.201695 271.503725 
L 133.936801 271.503725 
L 134.671908 283.028073 
L 136.877226 271.503725 
L 137.612333 263.820825 
L 138.347439 267.662275 
L 139.082545 275.345174 
L 139.817651 275.345174 
L 140.552758 271.503725 
L 141.287864 271.503725 
L 142.02297 283.028073 
L 143.493183 283.028073 
L 144.963395 275.345174 
L 145.698502 263.820825 
L 146.433608 263.820825 
L 147.168714 259.979376 
L 147.90382 248.455027 
L 148.638927 252.296476 
L 149.374033 259.979376 
L 152.314458 275.345174 
L 153.049564 275.345174 
L 153.784671 267.662275 
L 154.519777 263.820825 
L 155.254883 263.820825 
L 155.989989 240.772127 
L 157.460202 248.455027 
L 158.195308 256.137926 
L 159.665521 256.137926 
L 160.400627 252.296476 
L 161.135733 240.772127 
L 161.87084 244.613577 
L 162.605946 259.979376 
L 166.281477 279.186624 
L 167.016584 279.186624 
L 167.75169 267.662275 
L 168.486796 263.820825 
L 169.221902 263.820825 
L 169.957009 271.503725 
L 170.692115 267.662275 
L 172.162327 267.662275 
L 172.897434 275.345174 
L 173.63254 279.186624 
L 175.102753 279.186624 
L 175.837859 283.028073 
L 177.308071 283.028073 
L 178.043178 290.710973 
L 178.778284 294.552422 
L 179.51339 290.710973 
L 180.248496 298.393872 
L 180.983603 294.552422 
L 181.718709 294.552422 
L 182.453815 298.393872 
L 184.659134 298.393872 
L 185.39424 283.028073 
L 186.129347 279.186624 
L 187.599559 279.186624 
L 188.334665 271.503725 
L 189.069772 283.028073 
L 189.804878 283.028073 
L 190.539984 279.186624 
L 191.275091 271.503725 
L 192.010197 275.345174 
L 192.745303 283.028073 
L 194.215516 283.028073 
L 195.685728 275.345174 
L 196.420834 279.186624 
L 197.891047 279.186624 
L 199.36126 294.552422 
L 200.096366 294.552422 
L 200.831472 283.028073 
L 201.566578 283.028073 
L 202.301685 279.186624 
L 203.036791 283.028073 
L 203.771897 279.186624 
L 204.507003 283.028073 
L 205.24211 283.028073 
L 205.977216 275.345174 
L 206.712322 275.345174 
L 207.447429 267.662275 
L 208.182535 271.503725 
L 210.387854 271.503725 
L 211.12296 263.820825 
L 211.858066 263.820825 
L 212.593172 275.345174 
L 213.328279 279.186624 
L 214.063385 275.345174 
L 214.798491 263.820825 
L 215.533598 263.820825 
L 216.268704 267.662275 
L 217.00381 283.028073 
L 221.414448 283.028073 
L 222.149554 290.710973 
L 222.88466 302.235322 
L 223.619767 306.076771 
L 224.354873 306.076771 
L 225.089979 313.75967 
L 225.825085 309.918221 
L 226.560192 309.918221 
L 227.295298 306.076771 
L 228.030404 306.076771 
L 229.500617 298.393872 
L 230.235723 290.710973 
L 230.970829 290.710973 
L 231.705936 275.345174 
L 232.441042 271.503725 
L 233.911254 271.503725 
L 234.646361 267.662275 
L 235.381467 275.345174 
L 236.116573 279.186624 
L 236.851679 279.186624 
L 237.586786 290.710973 
L 238.321892 286.869523 
L 239.056998 294.552422 
L 239.792105 298.393872 
L 241.262317 283.028073 
L 241.997423 290.710973 
L 242.73253 302.235322 
L 243.467636 306.076771 
L 244.937848 306.076771 
L 245.672955 302.235322 
L 246.408061 290.710973 
L 247.143167 267.662275 
L 247.878274 271.503725 
L 250.083592 271.503725 
L 251.553805 279.186624 
L 253.024017 279.186624 
L 253.759124 283.028073 
L 255.229336 283.028073 
L 255.964443 290.710973 
L 256.699549 294.552422 
L 257.434655 290.710973 
L 258.169761 279.186624 
L 258.904868 283.028073 
L 260.37508 275.345174 
L 261.110186 256.137926 
L 263.315505 256.137926 
L 264.050612 252.296476 
L 264.785718 240.772127 
L 265.520824 240.772127 
L 266.25593 248.455027 
L 266.991037 252.296476 
L 267.726143 252.296476 
L 268.461249 244.613577 
L 269.196355 240.772127 
L 269.931462 248.455027 
L 270.666568 263.820825 
L 271.401674 263.820825 
L 272.871887 286.869523 
L 273.606993 279.186624 
L 277.282524 279.186624 
L 278.752737 271.503725 
L 279.487843 279.186624 
L 280.958056 279.186624 
L 281.693162 271.503725 
L 282.428268 267.662275 
L 283.163375 271.503725 
L 283.898481 263.820825 
L 284.633587 271.503725 
L 285.368693 283.028073 
L 286.1038 263.820825 
L 287.574012 263.820825 
L 288.309119 271.503725 
L 289.044225 283.028073 
L 290.514437 283.028073 
L 291.249544 294.552422 
L 291.98465 283.028073 
L 292.719756 283.028073 
L 293.454862 275.345174 
L 294.189969 275.345174 
L 294.925075 279.186624 
L 295.660181 286.869523 
L 296.395288 283.028073 
L 297.130394 286.869523 
L 297.8655 298.393872 
L 298.600606 294.552422 
L 299.335713 306.076771 
L 300.070819 302.235322 
L 300.805925 302.235322 
L 301.541031 294.552422 
L 302.276138 290.710973 
L 303.011244 275.345174 
L 303.74635 271.503725 
L 304.481457 275.345174 
L 305.216563 271.503725 
L 305.951669 259.979376 
L 306.686775 263.820825 
L 307.421882 275.345174 
L 308.156988 275.345174 
L 308.892094 283.028073 
L 309.6272 286.869523 
L 310.362307 286.869523 
L 311.097413 298.393872 
L 311.832519 306.076771 
L 312.567626 309.918221 
L 313.302732 306.076771 
L 314.037838 309.918221 
L 314.772944 309.918221 
L 316.243157 302.235322 
L 316.978263 302.235322 
L 317.713369 290.710973 
L 319.183582 283.028073 
L 319.918688 267.662275 
L 320.653795 271.503725 
L 321.388901 271.503725 
L 322.124007 279.186624 
L 322.859113 283.028073 
L 323.59422 275.345174 
L 324.329326 259.979376 
L 325.799538 267.662275 
L 327.269751 259.979376 
L 328.004857 275.345174 
L 328.739964 275.345174 
L 330.210176 252.296476 
L 330.945282 259.979376 
L 331.680389 259.979376 
L 332.415495 271.503725 
L 333.150601 275.345174 
L 333.885707 271.503725 
L 334.620814 252.296476 
L 335.35592 252.296476 
L 336.826133 259.979376 
L 337.561239 275.345174 
L 338.296345 275.345174 
L 339.031451 271.503725 
L 339.766558 263.820825 
L 340.501664 267.662275 
L 341.23677 263.820825 
L 341.971876 267.662275 
L 342.706983 267.662275 
L 343.442089 263.820825 
L 344.177195 256.137926 
L 345.647408 263.820825 
L 347.11762 263.820825 
L 348.587833 279.186624 
L 349.322939 279.186624 
L 350.793152 286.869523 
L 352.263364 286.869523 
L 352.998471 294.552422 
L 354.468683 294.552422 
L 355.203789 302.235322 
L 355.938896 302.235322 
L 356.674002 298.393872 
L 357.409108 306.076771 
L 358.144214 306.076771 
L 358.879321 294.552422 
L 359.614427 290.710973 
L 361.08464 290.710973 
L 361.819746 275.345174 
L 363.289958 275.345174 
L 364.025065 286.869523 
L 364.760171 286.869523 
L 365.495277 279.186624 
L 366.230383 275.345174 
L 367.700596 290.710973 
L 368.435702 290.710973 
L 369.170809 283.028073 
L 370.641021 283.028073 
L 371.376127 286.869523 
L 372.84634 279.186624 
L 373.581446 271.503725 
L 375.786765 283.028073 
L 376.521871 283.028073 
L 377.256978 275.345174 
L 377.992084 259.979376 
L 380.197403 271.503725 
L 380.932509 279.186624 
L 381.667615 275.345174 
L 382.402721 286.869523 
L 383.137828 290.710973 
L 383.872934 290.710973 
L 384.60804 283.028073 
L 385.343147 286.869523 
L 387.548465 286.869523 
L 388.283572 294.552422 
L 389.018678 298.393872 
L 389.753784 294.552422 
L 390.48889 286.869523 
L 391.223997 286.869523 
L 391.959103 290.710973 
L 392.694209 286.869523 
L 394.899528 286.869523 
L 395.634634 290.710973 
L 396.369741 290.710973 
L 397.104847 286.869523 
L 397.839953 286.869523 
L 398.575059 298.393872 
L 399.310166 290.710973 
L 400.045272 286.869523 
L 400.780378 286.869523 
L 401.515485 279.186624 
L 402.250591 279.186624 
L 402.985697 271.503725 
L 404.45591 263.820825 
L 405.191016 252.296476 
L 405.926122 256.137926 
L 407.396335 248.455027 
L 408.131441 256.137926 
L 409.601654 256.137926 
L 410.33676 263.820825 
L 411.071866 275.345174 
L 411.806972 275.345174 
L 412.542079 263.820825 
L 413.277185 263.820825 
L 414.012291 259.979376 
L 414.747398 263.820825 
L 415.482504 271.503725 
L 419.893141 271.503725 
L 420.628248 279.186624 
L 422.09846 279.186624 
L 422.833567 271.503725 
L 423.568673 267.662275 
L 424.303779 271.503725 
L 425.038885 279.186624 
L 425.773992 283.028073 
L 426.509098 283.028073 
L 427.244204 290.710973 
L 427.97931 290.710973 
L 428.714417 286.869523 
L 429.449523 279.186624 
L 430.184629 279.186624 
L 430.919736 259.979376 
L 431.654842 259.979376 
L 432.389948 263.820825 
L 433.125054 263.820825 
L 433.860161 267.662275 
L 435.330373 267.662275 
L 436.065479 256.137926 
L 436.800586 248.455027 
L 437.535692 256.137926 
L 438.270798 256.137926 
L 439.005905 275.345174 
L 439.741011 271.503725 
L 440.476117 279.186624 
L 441.211223 283.028073 
L 441.94633 283.028073 
L 443.416542 290.710973 
L 446.356967 275.345174 
L 447.092074 275.345174 
L 447.82718 286.869523 
L 448.562286 294.552422 
L 449.297392 298.393872 
L 450.032499 298.393872 
L 450.767605 302.235322 
L 451.502711 302.235322 
L 452.237817 298.393872 
L 452.972924 298.393872 
L 453.70803 286.869523 
L 454.443136 286.869523 
L 455.178243 283.028073 
L 455.913349 267.662275 
L 457.383561 267.662275 
L 458.118668 259.979376 
L 458.853774 248.455027 
L 459.58888 252.296476 
L 460.323986 252.296476 
L 461.059093 229.247779 
L 461.794199 233.089228 
L 462.529305 233.089228 
L 463.264412 244.613577 
L 463.999518 252.296476 
L 464.734624 252.296476 
L 465.46973 236.930678 
L 466.204837 240.772127 
L 466.939943 229.247779 
L 468.410155 236.930678 
L 469.145262 252.296476 
L 469.880368 252.296476 
L 470.615474 248.455027 
L 471.350581 256.137926 
L 472.085687 256.137926 
L 472.820793 259.979376 
L 473.555899 259.979376 
L 475.026112 244.613577 
L 475.761218 244.613577 
L 476.496324 240.772127 
L 477.966537 240.772127 
L 478.701643 244.613577 
L 480.171856 244.613577 
L 480.906962 233.089228 
L 481.642068 240.772127 
L 482.377175 252.296476 
L 483.112281 248.455027 
L 483.847387 248.455027 
L 484.582493 244.613577 
L 485.3176 236.930678 
L 486.052706 248.455027 
L 486.787812 267.662275 
L 487.522919 267.662275 
L 488.258025 279.186624 
L 488.993131 279.186624 
L 490.463344 286.869523 
L 491.933556 286.869523 
L 493.403769 279.186624 
L 494.138875 279.186624 
L 494.873981 290.710973 
L 495.609088 286.869523 
L 496.344194 294.552422 
L 497.814406 294.552422 
L 498.549513 283.028073 
L 499.284619 283.028073 
L 500.019725 279.186624 
L 500.754831 267.662275 
L 501.489938 267.662275 
L 502.96015 259.979376 
L 503.695257 248.455027 
L 503.695257 248.455027 
" style="fill:none;stroke:#2ca02c;stroke-linecap:square;stroke-width:1.5;"/>
   </g>
   <g id="line2d_19">
    <path clip-path="url(#pf446fd4dc3)" d="M 103.765099 94.797042 
L 104.500206 48.699646 
L 105.970418 48.699646 
L 106.705525 83.272693 
L 107.440631 98.638491 
L 108.910843 106.321391 
L 110.381056 186.991833 
L 111.116162 202.357631 
L 111.851268 206.199081 
L 112.586375 225.406329 
L 113.321481 236.930678 
L 114.056587 240.772127 
L 114.791694 240.772127 
L 115.5268 244.613577 
L 116.261906 252.296476 
L 116.997012 256.137926 
L 117.732119 252.296476 
L 118.467225 256.137926 
L 119.202331 256.137926 
L 119.937437 259.979376 
L 121.40765 259.979376 
L 122.142756 256.137926 
L 123.612969 271.503725 
L 124.348075 267.662275 
L 125.083181 256.137926 
L 126.553394 271.503725 
L 128.023606 271.503725 
L 128.758713 263.820825 
L 129.493819 259.979376 
L 130.964032 283.028073 
L 131.699138 286.869523 
L 133.16935 286.869523 
L 133.904457 283.028073 
L 134.639563 271.503725 
L 135.374669 271.503725 
L 136.109775 283.028073 
L 136.844882 290.710973 
L 137.579988 302.235322 
L 141.255519 302.235322 
L 141.990626 306.076771 
L 142.725732 302.235322 
L 143.460838 302.235322 
L 144.931051 294.552422 
L 145.666157 283.028073 
L 146.401263 283.028073 
L 147.13637 279.186624 
L 147.871476 271.503725 
L 148.606582 271.503725 
L 149.341688 279.186624 
L 150.076795 279.186624 
L 151.547007 286.869523 
L 153.01722 286.869523 
L 154.487432 294.552422 
L 155.222539 294.552422 
L 155.957645 298.393872 
L 157.427857 298.393872 
L 158.162964 283.028073 
L 158.89807 279.186624 
L 159.633176 279.186624 
L 160.368282 283.028073 
L 161.103389 294.552422 
L 161.838495 290.710973 
L 162.573601 279.186624 
L 163.308708 275.345174 
L 164.77892 283.028073 
L 166.984239 283.028073 
L 167.719345 275.345174 
L 168.454451 271.503725 
L 169.189558 271.503725 
L 169.924664 279.186624 
L 170.65977 279.186624 
L 171.394877 275.345174 
L 172.865089 283.028073 
L 174.335302 283.028073 
L 175.070408 275.345174 
L 175.805514 263.820825 
L 176.54062 267.662275 
L 177.275727 267.662275 
L 178.010833 279.186624 
L 178.745939 279.186624 
L 179.481046 275.345174 
L 180.216152 256.137926 
L 181.686364 263.820825 
L 182.421471 271.503725 
L 183.156577 271.503725 
L 183.891683 267.662275 
L 186.097002 279.186624 
L 187.567215 279.186624 
L 188.302321 275.345174 
L 189.037427 263.820825 
L 189.772533 263.820825 
L 190.50764 259.979376 
L 191.242746 252.296476 
L 191.977852 252.296476 
L 192.712958 263.820825 
L 193.448065 263.820825 
L 194.183171 259.979376 
L 194.918277 275.345174 
L 195.653384 279.186624 
L 196.38849 267.662275 
L 197.123596 263.820825 
L 197.858702 267.662275 
L 198.593809 259.979376 
L 199.328915 256.137926 
L 200.064021 256.137926 
L 200.799127 267.662275 
L 201.534234 271.503725 
L 202.26934 267.662275 
L 203.004446 271.503725 
L 203.739553 271.503725 
L 204.474659 275.345174 
L 205.209765 271.503725 
L 205.944871 263.820825 
L 206.679978 267.662275 
L 207.415084 283.028073 
L 208.15019 283.028073 
L 208.885296 286.869523 
L 210.355509 286.869523 
L 211.090615 275.345174 
L 211.825722 275.345174 
L 212.560828 271.503725 
L 213.295934 263.820825 
L 214.03104 263.820825 
L 214.766147 275.345174 
L 215.501253 275.345174 
L 216.236359 271.503725 
L 216.971465 259.979376 
L 218.441678 267.662275 
L 222.117209 267.662275 
L 222.852316 271.503725 
L 223.587422 279.186624 
L 224.322528 275.345174 
L 225.057634 263.820825 
L 225.792741 267.662275 
L 227.262953 267.662275 
L 227.99806 271.503725 
L 228.733166 271.503725 
L 229.468272 275.345174 
L 230.203378 283.028073 
L 230.938485 279.186624 
L 232.408697 286.869523 
L 233.87891 286.869523 
L 234.614016 283.028073 
L 235.349122 290.710973 
L 236.084229 290.710973 
L 236.819335 286.869523 
L 237.554441 279.186624 
L 238.289547 279.186624 
L 239.024654 286.869523 
L 241.229972 298.393872 
L 241.965079 298.393872 
L 242.700185 294.552422 
L 243.435291 294.552422 
L 244.170398 298.393872 
L 244.905504 294.552422 
L 245.64061 294.552422 
L 247.110823 286.869523 
L 250.051248 286.869523 
L 250.786354 290.710973 
L 252.256567 290.710973 
L 252.991673 294.552422 
L 255.196992 294.552422 
L 255.932098 286.869523 
L 256.667204 283.028073 
L 257.40231 283.028073 
L 258.137417 290.710973 
L 258.872523 290.710973 
L 259.607629 283.028073 
L 260.342736 283.028073 
L 261.812948 290.710973 
L 263.283161 290.710973 
L 264.018267 302.235322 
L 264.753373 309.918221 
L 265.488479 309.918221 
L 266.223586 313.75967 
L 266.958692 309.918221 
L 267.693798 309.918221 
L 268.428905 313.75967 
L 269.164011 313.75967 
L 270.634223 321.44257 
L 272.839542 309.918221 
L 273.574648 302.235322 
L 275.044861 302.235322 
L 275.779967 298.393872 
L 277.25018 298.393872 
L 278.720392 290.710973 
L 279.455499 294.552422 
L 280.190605 294.552422 
L 280.925711 290.710973 
L 281.660817 298.393872 
L 282.395924 302.235322 
L 283.13103 302.235322 
L 283.866136 294.552422 
L 285.336349 286.869523 
L 286.071455 290.710973 
L 288.276774 290.710973 
L 289.01188 302.235322 
L 291.217199 290.710973 
L 291.952305 302.235322 
L 292.687412 298.393872 
L 293.422518 306.076771 
L 294.157624 306.076771 
L 294.89273 302.235322 
L 295.627837 294.552422 
L 296.362943 294.552422 
L 297.098049 290.710973 
L 297.833155 283.028073 
L 298.568262 279.186624 
L 299.303368 267.662275 
L 300.038474 267.662275 
L 300.773581 271.503725 
L 301.508687 283.028073 
L 302.243793 283.028073 
L 302.978899 286.869523 
L 305.184218 286.869523 
L 305.919324 294.552422 
L 306.654431 294.552422 
L 307.389537 302.235322 
L 308.124643 302.235322 
L 308.85975 298.393872 
L 309.594856 290.710973 
L 310.329962 290.710973 
L 311.065068 286.869523 
L 312.535281 271.503725 
L 313.270387 271.503725 
L 314.005493 279.186624 
L 315.475706 279.186624 
L 316.210812 290.710973 
L 316.945919 294.552422 
L 317.681025 302.235322 
L 318.416131 302.235322 
L 319.151237 306.076771 
L 320.62145 306.076771 
L 321.356556 302.235322 
L 322.091662 309.918221 
L 323.561875 309.918221 
L 324.296981 313.75967 
L 327.237406 298.393872 
L 327.972513 290.710973 
L 328.707619 286.869523 
L 330.177831 294.552422 
L 330.912938 290.710973 
L 331.648044 290.710973 
L 332.38315 283.028073 
L 333.118257 283.028073 
L 333.853363 279.186624 
L 334.588469 286.869523 
L 335.323575 283.028073 
L 336.793788 283.028073 
L 337.528894 290.710973 
L 338.264 294.552422 
L 338.999107 294.552422 
L 339.734213 286.869523 
L 341.204426 286.869523 
L 341.939532 283.028073 
L 342.674638 283.028073 
L 343.409744 290.710973 
L 344.144851 294.552422 
L 344.879957 294.552422 
L 345.615063 298.393872 
L 347.085276 298.393872 
L 348.555488 283.028073 
L 349.290595 283.028073 
L 350.025701 286.869523 
L 350.760807 286.869523 
L 351.495913 283.028073 
L 352.23102 283.028073 
L 352.966126 275.345174 
L 354.436338 275.345174 
L 355.171445 263.820825 
L 355.906551 263.820825 
L 356.641657 259.979376 
L 357.376764 275.345174 
L 358.11187 275.345174 
L 358.846976 279.186624 
L 361.052295 279.186624 
L 361.787401 290.710973 
L 362.522507 286.869523 
L 363.257614 286.869523 
L 363.99272 298.393872 
L 364.727826 298.393872 
L 365.462933 302.235322 
L 366.198039 309.918221 
L 366.933145 309.918221 
L 367.668251 313.75967 
L 368.403358 309.918221 
L 369.138464 317.60112 
L 371.343783 317.60112 
L 372.813995 309.918221 
L 373.549102 302.235322 
L 375.019314 294.552422 
L 375.75442 286.869523 
L 377.224633 286.869523 
L 377.959739 290.710973 
L 378.694845 286.869523 
L 379.429952 286.869523 
L 380.165058 290.710973 
L 380.900164 298.393872 
L 381.635271 298.393872 
L 382.370377 290.710973 
L 384.575696 279.186624 
L 385.310802 286.869523 
L 386.045908 283.028073 
L 387.516121 283.028073 
L 388.251227 271.503725 
L 389.72144 279.186624 
L 390.456546 286.869523 
L 391.191652 283.028073 
L 391.926758 290.710973 
L 392.661865 290.710973 
L 393.396971 286.869523 
L 397.807609 286.869523 
L 398.542715 279.186624 
L 399.277821 286.869523 
L 400.012927 290.710973 
L 400.748034 290.710973 
L 401.48314 298.393872 
L 402.953352 298.393872 
L 403.688459 306.076771 
L 404.423565 302.235322 
L 405.158671 294.552422 
L 405.893778 294.552422 
L 407.36399 286.869523 
L 408.099096 267.662275 
L 408.834203 267.662275 
L 409.569309 271.503725 
L 411.039521 256.137926 
L 411.774628 259.979376 
L 412.509734 275.345174 
L 413.24484 271.503725 
L 413.979947 263.820825 
L 414.715053 267.662275 
L 415.450159 279.186624 
L 416.185265 279.186624 
L 416.920372 283.028073 
L 418.390584 283.028073 
L 419.12569 279.186624 
L 419.860797 279.186624 
L 421.331009 286.869523 
L 422.066116 286.869523 
L 422.801222 290.710973 
L 423.536328 298.393872 
L 424.271434 294.552422 
L 425.006541 286.869523 
L 425.741647 283.028073 
L 426.476753 283.028073 
L 427.211859 271.503725 
L 427.946966 271.503725 
L 428.682072 267.662275 
L 429.417178 256.137926 
L 430.152285 259.979376 
L 430.887391 267.662275 
L 431.622497 267.662275 
L 432.357603 263.820825 
L 433.09271 267.662275 
L 433.827816 275.345174 
L 435.298028 275.345174 
L 436.768241 283.028073 
L 437.503347 279.186624 
L 438.238454 279.186624 
L 438.97356 275.345174 
L 439.708666 275.345174 
L 440.443772 283.028073 
L 441.178879 283.028073 
L 441.913985 279.186624 
L 442.649091 279.186624 
L 443.384197 271.503725 
L 444.119304 271.503725 
L 444.85441 286.869523 
L 445.589516 294.552422 
L 446.324623 298.393872 
L 447.059729 298.393872 
L 447.794835 294.552422 
L 449.265048 279.186624 
L 450.000154 279.186624 
L 451.470366 286.869523 
L 452.205473 283.028073 
L 452.940579 283.028073 
L 453.675685 271.503725 
L 454.410792 271.503725 
L 455.881004 279.186624 
L 456.61611 279.186624 
L 457.351217 275.345174 
L 458.086323 279.186624 
L 458.821429 286.869523 
L 460.291642 286.869523 
L 461.026748 294.552422 
L 461.761854 290.710973 
L 462.496961 290.710973 
L 463.967173 298.393872 
L 464.702279 298.393872 
L 465.437386 290.710973 
L 466.172492 290.710973 
L 466.907598 298.393872 
L 468.377811 298.393872 
L 469.112917 302.235322 
L 471.318236 302.235322 
L 472.053342 298.393872 
L 472.788448 298.393872 
L 473.523555 294.552422 
L 474.258661 302.235322 
L 474.993767 302.235322 
L 476.46398 294.552422 
L 477.199086 302.235322 
L 477.934192 298.393872 
L 478.669299 298.393872 
L 479.404405 294.552422 
L 480.139511 294.552422 
L 480.874617 283.028073 
L 481.609724 283.028073 
L 482.34483 267.662275 
L 483.079936 263.820825 
L 484.550149 271.503725 
L 485.285255 283.028073 
L 486.020361 275.345174 
L 486.755468 271.503725 
L 487.490574 271.503725 
L 488.22568 283.028073 
L 489.695893 283.028073 
L 490.430999 290.710973 
L 491.901211 290.710973 
L 492.636318 283.028073 
L 493.371424 294.552422 
L 494.10653 302.235322 
L 495.576743 286.869523 
L 496.311849 275.345174 
L 497.782062 275.345174 
L 498.517168 263.820825 
L 499.252274 263.820825 
L 499.98738 267.662275 
L 500.722487 275.345174 
L 500.722487 275.345174 
" style="fill:none;stroke:#d62728;stroke-linecap:square;stroke-width:1.5;"/>
   </g>
   <g id="patch_3">
    <path d="M 83.472344 352.174167 
L 83.472344 35.0625 
" style="fill:none;stroke:#000000;stroke-linecap:square;stroke-linejoin:miter;stroke-width:0.8;"/>
   </g>
   <g id="patch_4">
    <path d="M 529.912969 352.174167 
L 529.912969 35.0625 
" style="fill:none;stroke:#000000;stroke-linecap:square;stroke-linejoin:miter;stroke-width:0.8;"/>
   </g>
   <g id="patch_5">
    <path d="M 83.472344 352.174167 
L 529.912969 352.174167 
" style="fill:none;stroke:#000000;stroke-linecap:square;stroke-linejoin:miter;stroke-width:0.8;"/>
   </g>
   <g id="patch_6">
    <path d="M 83.472344 35.0625 
L 529.912969 35.0625 
" style="fill:none;stroke:#000000;stroke-linecap:square;stroke-linejoin:miter;stroke-width:0.8;"/>
   </g>
   <g id="legend_1">
    <g id="patch_7">
     <path d="M 554.235 96.775 
L 625.430312 96.775 
Q 627.430312 96.775 627.430312 94.775 
L 627.430312 37.0625 
Q 627.430312 35.0625 625.430312 35.0625 
L 554.235 35.0625 
Q 552.235 35.0625 552.235 37.0625 
L 552.235 94.775 
Q 552.235 96.775 554.235 96.775 
z
" style="fill:#ffffff;opacity:0.8;stroke:#cccccc;stroke-linejoin:miter;"/>
    </g>
    <g id="line2d_20">
     <path d="M 556.235 43.160937 
L 576.235 43.160937 
" style="fill:none;stroke:#1f77b4;stroke-linecap:square;stroke-width:1.5;"/>
    </g>
    <g id="line2d_21"/>
    <g id="text_17">
     <!-- cubic-pi -->
     <defs>
      <path d="M 4.890625 31.390625 
L 31.203125 31.390625 
L 31.203125 23.390625 
L 4.890625 23.390625 
z
" id="DejaVuSans-45"/>
     </defs>
     <g transform="translate(584.235 46.660937)scale(0.1 -0.1)">
      <use xlink:href="#DejaVuSans-99"/>
      <use x="54.980469" xlink:href="#DejaVuSans-117"/>
      <use x="118.359375" xlink:href="#DejaVuSans-98"/>
      <use x="181.835938" xlink:href="#DejaVuSans-105"/>
      <use x="209.619141" xlink:href="#DejaVuSans-99"/>
      <use x="264.599609" xlink:href="#DejaVuSans-45"/>
      <use x="300.683594" xlink:href="#DejaVuSans-112"/>
      <use x="364.160156" xlink:href="#DejaVuSans-105"/>
     </g>
    </g>
    <g id="line2d_22">
     <path d="M 556.235 57.839063 
L 576.235 57.839063 
" style="fill:none;stroke:#ff7f0e;stroke-linecap:square;stroke-width:1.5;"/>
    </g>
    <g id="line2d_23"/>
    <g id="text_18">
     <!-- cubic-pi -->
     <g transform="translate(584.235 61.339063)scale(0.1 -0.1)">
      <use xlink:href="#DejaVuSans-99"/>
      <use x="54.980469" xlink:href="#DejaVuSans-117"/>
      <use x="118.359375" xlink:href="#DejaVuSans-98"/>
      <use x="181.835938" xlink:href="#DejaVuSans-105"/>
      <use x="209.619141" xlink:href="#DejaVuSans-99"/>
      <use x="264.599609" xlink:href="#DejaVuSans-45"/>
      <use x="300.683594" xlink:href="#DejaVuSans-112"/>
      <use x="364.160156" xlink:href="#DejaVuSans-105"/>
     </g>
    </g>
    <g id="line2d_24">
     <path d="M 556.235 72.517187 
L 576.235 72.517187 
" style="fill:none;stroke:#2ca02c;stroke-linecap:square;stroke-width:1.5;"/>
    </g>
    <g id="line2d_25"/>
    <g id="text_19">
     <!-- cubic-pi -->
     <g transform="translate(584.235 76.017187)scale(0.1 -0.1)">
      <use xlink:href="#DejaVuSans-99"/>
      <use x="54.980469" xlink:href="#DejaVuSans-117"/>
      <use x="118.359375" xlink:href="#DejaVuSans-98"/>
      <use x="181.835938" xlink:href="#DejaVuSans-105"/>
      <use x="209.619141" xlink:href="#DejaVuSans-99"/>
      <use x="264.599609" xlink:href="#DejaVuSans-45"/>
      <use x="300.683594" xlink:href="#DejaVuSans-112"/>
      <use x="364.160156" xlink:href="#DejaVuSans-105"/>
     </g>
    </g>
    <g id="line2d_26">
     <path d="M 556.235 87.195312 
L 576.235 87.195312 
" style="fill:none;stroke:#d62728;stroke-linecap:square;stroke-width:1.5;"/>
    </g>
    <g id="line2d_27"/>
    <g id="text_20">
     <!-- cubic-pi -->
     <g transform="translate(584.235 90.695312)scale(0.1 -0.1)">
      <use xlink:href="#DejaVuSans-99"/>
      <use x="54.980469" xlink:href="#DejaVuSans-117"/>
      <use x="118.359375" xlink:href="#DejaVuSans-98"/>
      <use x="181.835938" xlink:href="#DejaVuSans-105"/>
      <use x="209.619141" xlink:href="#DejaVuSans-99"/>
      <use x="264.599609" xlink:href="#DejaVuSans-45"/>
      <use x="300.683594" xlink:href="#DejaVuSans-112"/>
      <use x="364.160156" xlink:href="#DejaVuSans-105"/>
     </g>
    </g>
   </g>
  </g>
  <g id="text_21">
   <!-- result throughput -->
   <defs>
    <path d="M 9.421875 75.984375 
L 18.40625 75.984375 
L 18.40625 0 
L 9.421875 0 
z
" id="DejaVuSans-108"/>
   </defs>
   <g transform="translate(289.320938 17.038125)scale(0.12 -0.12)">
    <use xlink:href="#DejaVuSans-114"/>
    <use x="41.082031" xlink:href="#DejaVuSans-101"/>
    <use x="102.605469" xlink:href="#DejaVuSans-115"/>
    <use x="154.705078" xlink:href="#DejaVuSans-117"/>
    <use x="218.083984" xlink:href="#DejaVuSans-108"/>
    <use x="245.867188" xlink:href="#DejaVuSans-116"/>
    <use x="285.076172" xlink:href="#DejaVuSans-32"/>
    <use x="316.863281" xlink:href="#DejaVuSans-116"/>
    <use x="356.072266" xlink:href="#DejaVuSans-104"/>
    <use x="419.451172" xlink:href="#DejaVuSans-114"/>
    <use x="460.533203" xlink:href="#DejaVuSans-111"/>
    <use x="521.714844" xlink:href="#DejaVuSans-117"/>
    <use x="585.09375" xlink:href="#DejaVuSans-103"/>
    <use x="648.570312" xlink:href="#DejaVuSans-104"/>
    <use x="711.949219" xlink:href="#DejaVuSans-112"/>
    <use x="775.425781" xlink:href="#DejaVuSans-117"/>
    <use x="838.804688" xlink:href="#DejaVuSans-116"/>
   </g>
  </g>
 </g>
 <defs>
  <clipPath id="pf446fd4dc3">
   <rect height="317.111667" width="446.440625" x="83.472344" y="35.0625"/>
  </clipPath>
 </defs>
</svg>
