<?xml version="1.0" encoding="utf-8" standalone="no"?>
<!DOCTYPE svg PUBLIC "-//W3C//DTD SVG 1.1//EN"
  "http://www.w3.org/Graphics/SVG/1.1/DTD/svg11.dtd">
<!-- Created with matplotlib (https://matplotlib.org/) -->
<svg height="396pt" version="1.1" viewBox="0 0 684 396" width="684pt" xmlns="http://www.w3.org/2000/svg" xmlns:xlink="http://www.w3.org/1999/xlink">
 <defs>
  <style type="text/css">
*{stroke-linecap:butt;stroke-linejoin:round;}
  </style>
 </defs>
 <g id="figure_1">
  <g id="patch_1">
   <path d="M 0 396 
L 684 396 
L 684 0 
L 0 0 
z
" style="fill:#ffffff;"/>
  </g>
  <g id="axes_1">
   <g id="patch_2">
    <path d="M 130.36375 352.174167 
L 529.912969 352.174167 
L 529.912969 35.0625 
L 130.36375 35.0625 
z
" style="fill:#ffffff;"/>
   </g>
   <g id="matplotlib.axis_1">
    <g id="xtick_1">
     <g id="line2d_1">
      <defs>
       <path d="M 0 0 
L 0 3.5 
" id="m687d1010e9" style="stroke:#000000;stroke-width:0.8;"/>
      </defs>
      <g>
       <use style="stroke:#000000;stroke-width:0.8;" x="148.525078" xlink:href="#m687d1010e9" y="352.174167"/>
      </g>
     </g>
     <g id="text_1">
      <!-- 0 -->
      <defs>
       <path d="M 31.78125 66.40625 
Q 24.171875 66.40625 20.328125 58.90625 
Q 16.5 51.421875 16.5 36.375 
Q 16.5 21.390625 20.328125 13.890625 
Q 24.171875 6.390625 31.78125 6.390625 
Q 39.453125 6.390625 43.28125 13.890625 
Q 47.125 21.390625 47.125 36.375 
Q 47.125 51.421875 43.28125 58.90625 
Q 39.453125 66.40625 31.78125 66.40625 
z
M 31.78125 74.21875 
Q 44.046875 74.21875 50.515625 64.515625 
Q 56.984375 54.828125 56.984375 36.375 
Q 56.984375 17.96875 50.515625 8.265625 
Q 44.046875 -1.421875 31.78125 -1.421875 
Q 19.53125 -1.421875 13.0625 8.265625 
Q 6.59375 17.96875 6.59375 36.375 
Q 6.59375 54.828125 13.0625 64.515625 
Q 19.53125 74.21875 31.78125 74.21875 
z
" id="DejaVuSans-48"/>
      </defs>
      <g transform="translate(145.343828 366.772604)scale(0.1 -0.1)">
       <use xlink:href="#DejaVuSans-48"/>
      </g>
     </g>
    </g>
    <g id="xtick_2">
     <g id="line2d_2">
      <g>
       <use style="stroke:#000000;stroke-width:0.8;" x="214.436127" xlink:href="#m687d1010e9" y="352.174167"/>
      </g>
     </g>
     <g id="text_2">
      <!-- 50 -->
      <defs>
       <path d="M 10.796875 72.90625 
L 49.515625 72.90625 
L 49.515625 64.59375 
L 19.828125 64.59375 
L 19.828125 46.734375 
Q 21.96875 47.46875 24.109375 47.828125 
Q 26.265625 48.1875 28.421875 48.1875 
Q 40.625 48.1875 47.75 41.5 
Q 54.890625 34.8125 54.890625 23.390625 
Q 54.890625 11.625 47.5625 5.09375 
Q 40.234375 -1.421875 26.90625 -1.421875 
Q 22.3125 -1.421875 17.546875 -0.640625 
Q 12.796875 0.140625 7.71875 1.703125 
L 7.71875 11.625 
Q 12.109375 9.234375 16.796875 8.0625 
Q 21.484375 6.890625 26.703125 6.890625 
Q 35.15625 6.890625 40.078125 11.328125 
Q 45.015625 15.765625 45.015625 23.390625 
Q 45.015625 31 40.078125 35.4375 
Q 35.15625 39.890625 26.703125 39.890625 
Q 22.75 39.890625 18.8125 39.015625 
Q 14.890625 38.140625 10.796875 36.28125 
z
" id="DejaVuSans-53"/>
      </defs>
      <g transform="translate(208.073627 366.772604)scale(0.1 -0.1)">
       <use xlink:href="#DejaVuSans-53"/>
       <use x="63.623047" xlink:href="#DejaVuSans-48"/>
      </g>
     </g>
    </g>
    <g id="xtick_3">
     <g id="line2d_3">
      <g>
       <use style="stroke:#000000;stroke-width:0.8;" x="280.347176" xlink:href="#m687d1010e9" y="352.174167"/>
      </g>
     </g>
     <g id="text_3">
      <!-- 100 -->
      <defs>
       <path d="M 12.40625 8.296875 
L 28.515625 8.296875 
L 28.515625 63.921875 
L 10.984375 60.40625 
L 10.984375 69.390625 
L 28.421875 72.90625 
L 38.28125 72.90625 
L 38.28125 8.296875 
L 54.390625 8.296875 
L 54.390625 0 
L 12.40625 0 
z
" id="DejaVuSans-49"/>
      </defs>
      <g transform="translate(270.803426 366.772604)scale(0.1 -0.1)">
       <use xlink:href="#DejaVuSans-49"/>
       <use x="63.623047" xlink:href="#DejaVuSans-48"/>
       <use x="127.246094" xlink:href="#DejaVuSans-48"/>
      </g>
     </g>
    </g>
    <g id="xtick_4">
     <g id="line2d_4">
      <g>
       <use style="stroke:#000000;stroke-width:0.8;" x="346.258225" xlink:href="#m687d1010e9" y="352.174167"/>
      </g>
     </g>
     <g id="text_4">
      <!-- 150 -->
      <g transform="translate(336.714475 366.772604)scale(0.1 -0.1)">
       <use xlink:href="#DejaVuSans-49"/>
       <use x="63.623047" xlink:href="#DejaVuSans-53"/>
       <use x="127.246094" xlink:href="#DejaVuSans-48"/>
      </g>
     </g>
    </g>
    <g id="xtick_5">
     <g id="line2d_5">
      <g>
       <use style="stroke:#000000;stroke-width:0.8;" x="412.169273" xlink:href="#m687d1010e9" y="352.174167"/>
      </g>
     </g>
     <g id="text_5">
      <!-- 200 -->
      <defs>
       <path d="M 19.1875 8.296875 
L 53.609375 8.296875 
L 53.609375 0 
L 7.328125 0 
L 7.328125 8.296875 
Q 12.9375 14.109375 22.625 23.890625 
Q 32.328125 33.6875 34.8125 36.53125 
Q 39.546875 41.84375 41.421875 45.53125 
Q 43.3125 49.21875 43.3125 52.78125 
Q 43.3125 58.59375 39.234375 62.25 
Q 35.15625 65.921875 28.609375 65.921875 
Q 23.96875 65.921875 18.8125 64.3125 
Q 13.671875 62.703125 7.8125 59.421875 
L 7.8125 69.390625 
Q 13.765625 71.78125 18.9375 73 
Q 24.125 74.21875 28.421875 74.21875 
Q 39.75 74.21875 46.484375 68.546875 
Q 53.21875 62.890625 53.21875 53.421875 
Q 53.21875 48.921875 51.53125 44.890625 
Q 49.859375 40.875 45.40625 35.40625 
Q 44.1875 33.984375 37.640625 27.21875 
Q 31.109375 20.453125 19.1875 8.296875 
z
" id="DejaVuSans-50"/>
      </defs>
      <g transform="translate(402.625523 366.772604)scale(0.1 -0.1)">
       <use xlink:href="#DejaVuSans-50"/>
       <use x="63.623047" xlink:href="#DejaVuSans-48"/>
       <use x="127.246094" xlink:href="#DejaVuSans-48"/>
      </g>
     </g>
    </g>
    <g id="xtick_6">
     <g id="line2d_6">
      <g>
       <use style="stroke:#000000;stroke-width:0.8;" x="478.080322" xlink:href="#m687d1010e9" y="352.174167"/>
      </g>
     </g>
     <g id="text_6">
      <!-- 250 -->
      <g transform="translate(468.536572 366.772604)scale(0.1 -0.1)">
       <use xlink:href="#DejaVuSans-50"/>
       <use x="63.623047" xlink:href="#DejaVuSans-53"/>
       <use x="127.246094" xlink:href="#DejaVuSans-48"/>
      </g>
     </g>
    </g>
   </g>
   <g id="matplotlib.axis_2">
    <g id="ytick_1">
     <g id="line2d_7">
      <defs>
       <path d="M 0 0 
L -3.5 0 
" id="m86c3f7201a" style="stroke:#000000;stroke-width:0.8;"/>
      </defs>
      <g>
       <use style="stroke:#000000;stroke-width:0.8;" x="130.36375" xlink:href="#m86c3f7201a" y="352.174167"/>
      </g>
     </g>
     <g id="text_7">
      <!-- 0 -->
      <g transform="translate(117.00125 355.973385)scale(0.1 -0.1)">
       <use xlink:href="#DejaVuSans-48"/>
      </g>
     </g>
    </g>
    <g id="ytick_2">
     <g id="line2d_8">
      <g>
       <use style="stroke:#000000;stroke-width:0.8;" x="130.36375" xlink:href="#m86c3f7201a" y="315.5506"/>
      </g>
     </g>
     <g id="text_8">
      <!-- 200000 -->
      <g transform="translate(85.18875 319.349819)scale(0.1 -0.1)">
       <use xlink:href="#DejaVuSans-50"/>
       <use x="63.623047" xlink:href="#DejaVuSans-48"/>
       <use x="127.246094" xlink:href="#DejaVuSans-48"/>
       <use x="190.869141" xlink:href="#DejaVuSans-48"/>
       <use x="254.492188" xlink:href="#DejaVuSans-48"/>
       <use x="318.115234" xlink:href="#DejaVuSans-48"/>
      </g>
     </g>
    </g>
    <g id="ytick_3">
     <g id="line2d_9">
      <g>
       <use style="stroke:#000000;stroke-width:0.8;" x="130.36375" xlink:href="#m86c3f7201a" y="278.927034"/>
      </g>
     </g>
     <g id="text_9">
      <!-- 400000 -->
      <defs>
       <path d="M 37.796875 64.3125 
L 12.890625 25.390625 
L 37.796875 25.390625 
z
M 35.203125 72.90625 
L 47.609375 72.90625 
L 47.609375 25.390625 
L 58.015625 25.390625 
L 58.015625 17.1875 
L 47.609375 17.1875 
L 47.609375 0 
L 37.796875 0 
L 37.796875 17.1875 
L 4.890625 17.1875 
L 4.890625 26.703125 
z
" id="DejaVuSans-52"/>
      </defs>
      <g transform="translate(85.18875 282.726253)scale(0.1 -0.1)">
       <use xlink:href="#DejaVuSans-52"/>
       <use x="63.623047" xlink:href="#DejaVuSans-48"/>
       <use x="127.246094" xlink:href="#DejaVuSans-48"/>
       <use x="190.869141" xlink:href="#DejaVuSans-48"/>
       <use x="254.492188" xlink:href="#DejaVuSans-48"/>
       <use x="318.115234" xlink:href="#DejaVuSans-48"/>
      </g>
     </g>
    </g>
    <g id="ytick_4">
     <g id="line2d_10">
      <g>
       <use style="stroke:#000000;stroke-width:0.8;" x="130.36375" xlink:href="#m86c3f7201a" y="242.303468"/>
      </g>
     </g>
     <g id="text_10">
      <!-- 600000 -->
      <defs>
       <path d="M 33.015625 40.375 
Q 26.375 40.375 22.484375 35.828125 
Q 18.609375 31.296875 18.609375 23.390625 
Q 18.609375 15.53125 22.484375 10.953125 
Q 26.375 6.390625 33.015625 6.390625 
Q 39.65625 6.390625 43.53125 10.953125 
Q 47.40625 15.53125 47.40625 23.390625 
Q 47.40625 31.296875 43.53125 35.828125 
Q 39.65625 40.375 33.015625 40.375 
z
M 52.59375 71.296875 
L 52.59375 62.3125 
Q 48.875 64.0625 45.09375 64.984375 
Q 41.3125 65.921875 37.59375 65.921875 
Q 27.828125 65.921875 22.671875 59.328125 
Q 17.53125 52.734375 16.796875 39.40625 
Q 19.671875 43.65625 24.015625 45.921875 
Q 28.375 48.1875 33.59375 48.1875 
Q 44.578125 48.1875 50.953125 41.515625 
Q 57.328125 34.859375 57.328125 23.390625 
Q 57.328125 12.15625 50.6875 5.359375 
Q 44.046875 -1.421875 33.015625 -1.421875 
Q 20.359375 -1.421875 13.671875 8.265625 
Q 6.984375 17.96875 6.984375 36.375 
Q 6.984375 53.65625 15.1875 63.9375 
Q 23.390625 74.21875 37.203125 74.21875 
Q 40.921875 74.21875 44.703125 73.484375 
Q 48.484375 72.75 52.59375 71.296875 
z
" id="DejaVuSans-54"/>
      </defs>
      <g transform="translate(85.18875 246.102687)scale(0.1 -0.1)">
       <use xlink:href="#DejaVuSans-54"/>
       <use x="63.623047" xlink:href="#DejaVuSans-48"/>
       <use x="127.246094" xlink:href="#DejaVuSans-48"/>
       <use x="190.869141" xlink:href="#DejaVuSans-48"/>
       <use x="254.492188" xlink:href="#DejaVuSans-48"/>
       <use x="318.115234" xlink:href="#DejaVuSans-48"/>
      </g>
     </g>
    </g>
    <g id="ytick_5">
     <g id="line2d_11">
      <g>
       <use style="stroke:#000000;stroke-width:0.8;" x="130.36375" xlink:href="#m86c3f7201a" y="205.679902"/>
      </g>
     </g>
     <g id="text_11">
      <!-- 800000 -->
      <defs>
       <path d="M 31.78125 34.625 
Q 24.75 34.625 20.71875 30.859375 
Q 16.703125 27.09375 16.703125 20.515625 
Q 16.703125 13.921875 20.71875 10.15625 
Q 24.75 6.390625 31.78125 6.390625 
Q 38.8125 6.390625 42.859375 10.171875 
Q 46.921875 13.96875 46.921875 20.515625 
Q 46.921875 27.09375 42.890625 30.859375 
Q 38.875 34.625 31.78125 34.625 
z
M 21.921875 38.8125 
Q 15.578125 40.375 12.03125 44.71875 
Q 8.5 49.078125 8.5 55.328125 
Q 8.5 64.0625 14.71875 69.140625 
Q 20.953125 74.21875 31.78125 74.21875 
Q 42.671875 74.21875 48.875 69.140625 
Q 55.078125 64.0625 55.078125 55.328125 
Q 55.078125 49.078125 51.53125 44.71875 
Q 48 40.375 41.703125 38.8125 
Q 48.828125 37.15625 52.796875 32.3125 
Q 56.78125 27.484375 56.78125 20.515625 
Q 56.78125 9.90625 50.3125 4.234375 
Q 43.84375 -1.421875 31.78125 -1.421875 
Q 19.734375 -1.421875 13.25 4.234375 
Q 6.78125 9.90625 6.78125 20.515625 
Q 6.78125 27.484375 10.78125 32.3125 
Q 14.796875 37.15625 21.921875 38.8125 
z
M 18.3125 54.390625 
Q 18.3125 48.734375 21.84375 45.5625 
Q 25.390625 42.390625 31.78125 42.390625 
Q 38.140625 42.390625 41.71875 45.5625 
Q 45.3125 48.734375 45.3125 54.390625 
Q 45.3125 60.0625 41.71875 63.234375 
Q 38.140625 66.40625 31.78125 66.40625 
Q 25.390625 66.40625 21.84375 63.234375 
Q 18.3125 60.0625 18.3125 54.390625 
z
" id="DejaVuSans-56"/>
      </defs>
      <g transform="translate(85.18875 209.479121)scale(0.1 -0.1)">
       <use xlink:href="#DejaVuSans-56"/>
       <use x="63.623047" xlink:href="#DejaVuSans-48"/>
       <use x="127.246094" xlink:href="#DejaVuSans-48"/>
       <use x="190.869141" xlink:href="#DejaVuSans-48"/>
       <use x="254.492188" xlink:href="#DejaVuSans-48"/>
       <use x="318.115234" xlink:href="#DejaVuSans-48"/>
      </g>
     </g>
    </g>
    <g id="ytick_6">
     <g id="line2d_12">
      <g>
       <use style="stroke:#000000;stroke-width:0.8;" x="130.36375" xlink:href="#m86c3f7201a" y="169.056336"/>
      </g>
     </g>
     <g id="text_12">
      <!-- 1000000 -->
      <g transform="translate(78.82625 172.855555)scale(0.1 -0.1)">
       <use xlink:href="#DejaVuSans-49"/>
       <use x="63.623047" xlink:href="#DejaVuSans-48"/>
       <use x="127.246094" xlink:href="#DejaVuSans-48"/>
       <use x="190.869141" xlink:href="#DejaVuSans-48"/>
       <use x="254.492188" xlink:href="#DejaVuSans-48"/>
       <use x="318.115234" xlink:href="#DejaVuSans-48"/>
       <use x="381.738281" xlink:href="#DejaVuSans-48"/>
      </g>
     </g>
    </g>
    <g id="ytick_7">
     <g id="line2d_13">
      <g>
       <use style="stroke:#000000;stroke-width:0.8;" x="130.36375" xlink:href="#m86c3f7201a" y="132.43277"/>
      </g>
     </g>
     <g id="text_13">
      <!-- 1200000 -->
      <g transform="translate(78.82625 136.231988)scale(0.1 -0.1)">
       <use xlink:href="#DejaVuSans-49"/>
       <use x="63.623047" xlink:href="#DejaVuSans-50"/>
       <use x="127.246094" xlink:href="#DejaVuSans-48"/>
       <use x="190.869141" xlink:href="#DejaVuSans-48"/>
       <use x="254.492188" xlink:href="#DejaVuSans-48"/>
       <use x="318.115234" xlink:href="#DejaVuSans-48"/>
       <use x="381.738281" xlink:href="#DejaVuSans-48"/>
      </g>
     </g>
    </g>
    <g id="ytick_8">
     <g id="line2d_14">
      <g>
       <use style="stroke:#000000;stroke-width:0.8;" x="130.36375" xlink:href="#m86c3f7201a" y="95.809203"/>
      </g>
     </g>
     <g id="text_14">
      <!-- 1400000 -->
      <g transform="translate(78.82625 99.608422)scale(0.1 -0.1)">
       <use xlink:href="#DejaVuSans-49"/>
       <use x="63.623047" xlink:href="#DejaVuSans-52"/>
       <use x="127.246094" xlink:href="#DejaVuSans-48"/>
       <use x="190.869141" xlink:href="#DejaVuSans-48"/>
       <use x="254.492188" xlink:href="#DejaVuSans-48"/>
       <use x="318.115234" xlink:href="#DejaVuSans-48"/>
       <use x="381.738281" xlink:href="#DejaVuSans-48"/>
      </g>
     </g>
    </g>
    <g id="ytick_9">
     <g id="line2d_15">
      <g>
       <use style="stroke:#000000;stroke-width:0.8;" x="130.36375" xlink:href="#m86c3f7201a" y="59.185637"/>
      </g>
     </g>
     <g id="text_15">
      <!-- 1600000 -->
      <g transform="translate(78.82625 62.984856)scale(0.1 -0.1)">
       <use xlink:href="#DejaVuSans-49"/>
       <use x="63.623047" xlink:href="#DejaVuSans-54"/>
       <use x="127.246094" xlink:href="#DejaVuSans-48"/>
       <use x="190.869141" xlink:href="#DejaVuSans-48"/>
       <use x="254.492188" xlink:href="#DejaVuSans-48"/>
       <use x="318.115234" xlink:href="#DejaVuSans-48"/>
       <use x="381.738281" xlink:href="#DejaVuSans-48"/>
      </g>
     </g>
    </g>
    <g id="text_16">
     <!-- inflight -->
     <defs>
      <path d="M 9.421875 54.6875 
L 18.40625 54.6875 
L 18.40625 0 
L 9.421875 0 
z
M 9.421875 75.984375 
L 18.40625 75.984375 
L 18.40625 64.59375 
L 9.421875 64.59375 
z
" id="DejaVuSans-105"/>
      <path d="M 54.890625 33.015625 
L 54.890625 0 
L 45.90625 0 
L 45.90625 32.71875 
Q 45.90625 40.484375 42.875 44.328125 
Q 39.84375 48.1875 33.796875 48.1875 
Q 26.515625 48.1875 22.3125 43.546875 
Q 18.109375 38.921875 18.109375 30.90625 
L 18.109375 0 
L 9.078125 0 
L 9.078125 54.6875 
L 18.109375 54.6875 
L 18.109375 46.1875 
Q 21.34375 51.125 25.703125 53.5625 
Q 30.078125 56 35.796875 56 
Q 45.21875 56 50.046875 50.171875 
Q 54.890625 44.34375 54.890625 33.015625 
z
" id="DejaVuSans-110"/>
      <path d="M 37.109375 75.984375 
L 37.109375 68.5 
L 28.515625 68.5 
Q 23.6875 68.5 21.796875 66.546875 
Q 19.921875 64.59375 19.921875 59.515625 
L 19.921875 54.6875 
L 34.71875 54.6875 
L 34.71875 47.703125 
L 19.921875 47.703125 
L 19.921875 0 
L 10.890625 0 
L 10.890625 47.703125 
L 2.296875 47.703125 
L 2.296875 54.6875 
L 10.890625 54.6875 
L 10.890625 58.5 
Q 10.890625 67.625 15.140625 71.796875 
Q 19.390625 75.984375 28.609375 75.984375 
z
" id="DejaVuSans-102"/>
      <path d="M 9.421875 75.984375 
L 18.40625 75.984375 
L 18.40625 0 
L 9.421875 0 
z
" id="DejaVuSans-108"/>
      <path d="M 45.40625 27.984375 
Q 45.40625 37.75 41.375 43.109375 
Q 37.359375 48.484375 30.078125 48.484375 
Q 22.859375 48.484375 18.828125 43.109375 
Q 14.796875 37.75 14.796875 27.984375 
Q 14.796875 18.265625 18.828125 12.890625 
Q 22.859375 7.515625 30.078125 7.515625 
Q 37.359375 7.515625 41.375 12.890625 
Q 45.40625 18.265625 45.40625 27.984375 
z
M 54.390625 6.78125 
Q 54.390625 -7.171875 48.1875 -13.984375 
Q 42 -20.796875 29.203125 -20.796875 
Q 24.46875 -20.796875 20.265625 -20.09375 
Q 16.0625 -19.390625 12.109375 -17.921875 
L 12.109375 -9.1875 
Q 16.0625 -11.328125 19.921875 -12.34375 
Q 23.78125 -13.375 27.78125 -13.375 
Q 36.625 -13.375 41.015625 -8.765625 
Q 45.40625 -4.15625 45.40625 5.171875 
L 45.40625 9.625 
Q 42.625 4.78125 38.28125 2.390625 
Q 33.9375 0 27.875 0 
Q 17.828125 0 11.671875 7.65625 
Q 5.515625 15.328125 5.515625 27.984375 
Q 5.515625 40.671875 11.671875 48.328125 
Q 17.828125 56 27.875 56 
Q 33.9375 56 38.28125 53.609375 
Q 42.625 51.21875 45.40625 46.390625 
L 45.40625 54.6875 
L 54.390625 54.6875 
z
" id="DejaVuSans-103"/>
      <path d="M 54.890625 33.015625 
L 54.890625 0 
L 45.90625 0 
L 45.90625 32.71875 
Q 45.90625 40.484375 42.875 44.328125 
Q 39.84375 48.1875 33.796875 48.1875 
Q 26.515625 48.1875 22.3125 43.546875 
Q 18.109375 38.921875 18.109375 30.90625 
L 18.109375 0 
L 9.078125 0 
L 9.078125 75.984375 
L 18.109375 75.984375 
L 18.109375 46.1875 
Q 21.34375 51.125 25.703125 53.5625 
Q 30.078125 56 35.796875 56 
Q 45.21875 56 50.046875 50.171875 
Q 54.890625 44.34375 54.890625 33.015625 
z
" id="DejaVuSans-104"/>
      <path d="M 18.3125 70.21875 
L 18.3125 54.6875 
L 36.8125 54.6875 
L 36.8125 47.703125 
L 18.3125 47.703125 
L 18.3125 18.015625 
Q 18.3125 11.328125 20.140625 9.421875 
Q 21.96875 7.515625 27.59375 7.515625 
L 36.8125 7.515625 
L 36.8125 0 
L 27.59375 0 
Q 17.1875 0 13.234375 3.875 
Q 9.28125 7.765625 9.28125 18.015625 
L 9.28125 47.703125 
L 2.6875 47.703125 
L 2.6875 54.6875 
L 9.28125 54.6875 
L 9.28125 70.21875 
z
" id="DejaVuSans-116"/>
     </defs>
     <g transform="translate(61.54875 211.017552)rotate(-90)scale(0.1 -0.1)">
      <use xlink:href="#DejaVuSans-105"/>
      <use x="27.783203" xlink:href="#DejaVuSans-110"/>
      <use x="91.162109" xlink:href="#DejaVuSans-102"/>
      <use x="126.367188" xlink:href="#DejaVuSans-108"/>
      <use x="154.150391" xlink:href="#DejaVuSans-105"/>
      <use x="181.933594" xlink:href="#DejaVuSans-103"/>
      <use x="245.410156" xlink:href="#DejaVuSans-104"/>
      <use x="308.789062" xlink:href="#DejaVuSans-116"/>
     </g>
     <!-- (bytes) -->
     <defs>
      <path d="M 31 75.875 
Q 24.46875 64.65625 21.28125 53.65625 
Q 18.109375 42.671875 18.109375 31.390625 
Q 18.109375 20.125 21.3125 9.0625 
Q 24.515625 -2 31 -13.1875 
L 23.1875 -13.1875 
Q 15.875 -1.703125 12.234375 9.375 
Q 8.59375 20.453125 8.59375 31.390625 
Q 8.59375 42.28125 12.203125 53.3125 
Q 15.828125 64.359375 23.1875 75.875 
z
" id="DejaVuSans-40"/>
      <path d="M 48.6875 27.296875 
Q 48.6875 37.203125 44.609375 42.84375 
Q 40.53125 48.484375 33.40625 48.484375 
Q 26.265625 48.484375 22.1875 42.84375 
Q 18.109375 37.203125 18.109375 27.296875 
Q 18.109375 17.390625 22.1875 11.75 
Q 26.265625 6.109375 33.40625 6.109375 
Q 40.53125 6.109375 44.609375 11.75 
Q 48.6875 17.390625 48.6875 27.296875 
z
M 18.109375 46.390625 
Q 20.953125 51.265625 25.265625 53.625 
Q 29.59375 56 35.59375 56 
Q 45.5625 56 51.78125 48.09375 
Q 58.015625 40.1875 58.015625 27.296875 
Q 58.015625 14.40625 51.78125 6.484375 
Q 45.5625 -1.421875 35.59375 -1.421875 
Q 29.59375 -1.421875 25.265625 0.953125 
Q 20.953125 3.328125 18.109375 8.203125 
L 18.109375 0 
L 9.078125 0 
L 9.078125 75.984375 
L 18.109375 75.984375 
z
" id="DejaVuSans-98"/>
      <path d="M 32.171875 -5.078125 
Q 28.375 -14.84375 24.75 -17.8125 
Q 21.140625 -20.796875 15.09375 -20.796875 
L 7.90625 -20.796875 
L 7.90625 -13.28125 
L 13.1875 -13.28125 
Q 16.890625 -13.28125 18.9375 -11.515625 
Q 21 -9.765625 23.484375 -3.21875 
L 25.09375 0.875 
L 2.984375 54.6875 
L 12.5 54.6875 
L 29.59375 11.921875 
L 46.6875 54.6875 
L 56.203125 54.6875 
z
" id="DejaVuSans-121"/>
      <path d="M 56.203125 29.59375 
L 56.203125 25.203125 
L 14.890625 25.203125 
Q 15.484375 15.921875 20.484375 11.0625 
Q 25.484375 6.203125 34.421875 6.203125 
Q 39.59375 6.203125 44.453125 7.46875 
Q 49.3125 8.734375 54.109375 11.28125 
L 54.109375 2.78125 
Q 49.265625 0.734375 44.1875 -0.34375 
Q 39.109375 -1.421875 33.890625 -1.421875 
Q 20.796875 -1.421875 13.15625 6.1875 
Q 5.515625 13.8125 5.515625 26.8125 
Q 5.515625 40.234375 12.765625 48.109375 
Q 20.015625 56 32.328125 56 
Q 43.359375 56 49.78125 48.890625 
Q 56.203125 41.796875 56.203125 29.59375 
z
M 47.21875 32.234375 
Q 47.125 39.59375 43.09375 43.984375 
Q 39.0625 48.390625 32.421875 48.390625 
Q 24.90625 48.390625 20.390625 44.140625 
Q 15.875 39.890625 15.1875 32.171875 
z
" id="DejaVuSans-101"/>
      <path d="M 44.28125 53.078125 
L 44.28125 44.578125 
Q 40.484375 46.53125 36.375 47.5 
Q 32.28125 48.484375 27.875 48.484375 
Q 21.1875 48.484375 17.84375 46.4375 
Q 14.5 44.390625 14.5 40.28125 
Q 14.5 37.15625 16.890625 35.375 
Q 19.28125 33.59375 26.515625 31.984375 
L 29.59375 31.296875 
Q 39.15625 29.25 43.1875 25.515625 
Q 47.21875 21.78125 47.21875 15.09375 
Q 47.21875 7.46875 41.1875 3.015625 
Q 35.15625 -1.421875 24.609375 -1.421875 
Q 20.21875 -1.421875 15.453125 -0.5625 
Q 10.6875 0.296875 5.421875 2 
L 5.421875 11.28125 
Q 10.40625 8.6875 15.234375 7.390625 
Q 20.0625 6.109375 24.8125 6.109375 
Q 31.15625 6.109375 34.5625 8.28125 
Q 37.984375 10.453125 37.984375 14.40625 
Q 37.984375 18.0625 35.515625 20.015625 
Q 33.0625 21.96875 24.703125 23.78125 
L 21.578125 24.515625 
Q 13.234375 26.265625 9.515625 29.90625 
Q 5.8125 33.546875 5.8125 39.890625 
Q 5.8125 47.609375 11.28125 51.796875 
Q 16.75 56 26.8125 56 
Q 31.78125 56 36.171875 55.265625 
Q 40.578125 54.546875 44.28125 53.078125 
z
" id="DejaVuSans-115"/>
      <path d="M 8.015625 75.875 
L 15.828125 75.875 
Q 23.140625 64.359375 26.78125 53.3125 
Q 30.421875 42.28125 30.421875 31.390625 
Q 30.421875 20.453125 26.78125 9.375 
Q 23.140625 -1.703125 15.828125 -13.1875 
L 8.015625 -13.1875 
Q 14.5 -2 17.703125 9.0625 
Q 20.90625 20.125 20.90625 31.390625 
Q 20.90625 42.671875 17.703125 53.65625 
Q 14.5 64.65625 8.015625 75.875 
z
" id="DejaVuSans-41"/>
     </defs>
     <g transform="translate(72.746563 211.294896)rotate(-90)scale(0.1 -0.1)">
      <use xlink:href="#DejaVuSans-40"/>
      <use x="39.013672" xlink:href="#DejaVuSans-98"/>
      <use x="102.490234" xlink:href="#DejaVuSans-121"/>
      <use x="161.669922" xlink:href="#DejaVuSans-116"/>
      <use x="200.878906" xlink:href="#DejaVuSans-101"/>
      <use x="262.402344" xlink:href="#DejaVuSans-115"/>
      <use x="314.501953" xlink:href="#DejaVuSans-41"/>
     </g>
    </g>
   </g>
   <g id="line2d_16">
    <path clip-path="url(#p812f4abf1e)" d="M 153.796644 338.916436 
L 154.455754 331.492106 
L 155.114865 320.355612 
L 155.773975 321.681385 
L 156.433086 337.060353 
L 157.092196 326.984478 
L 157.751307 325.923859 
L 158.410417 325.128396 
L 159.069528 324.863241 
L 159.728638 323.537468 
L 160.387749 321.94654 
L 161.046859 320.885922 
L 161.70597 319.294994 
L 163.024191 333.083034 
L 163.683301 331.757261 
L 165.001522 341.037673 
L 166.319743 337.590663 
L 166.978854 336.795199 
L 167.637964 335.469426 
L 168.956185 333.348189 
L 169.615296 331.757261 
L 170.274406 330.696643 
L 170.933517 328.84056 
L 171.592627 328.045096 
L 172.251737 326.984478 
L 174.888179 321.681385 
L 175.54729 320.620767 
L 176.2064 318.49953 
L 176.865511 325.39355 
L 178.183732 320.355612 
L 179.501953 316.908602 
L 180.161063 316.113138 
L 180.820174 316.113138 
L 181.479284 315.582829 
L 182.138395 317.173757 
L 182.797505 315.05252 
L 183.456616 314.522211 
L 184.115726 312.666128 
L 184.774837 312.400974 
L 185.433947 310.544891 
L 186.093058 309.219118 
L 186.752168 308.688809 
L 187.411279 307.363036 
L 188.7295 304.446335 
L 189.38861 303.120562 
L 190.047721 315.582829 
L 190.706831 313.196438 
L 191.365942 309.219118 
L 192.025052 307.363036 
L 192.684163 319.029839 
L 193.343273 307.628191 
L 194.002384 325.658705 
L 194.661494 332.817879 
L 195.320605 331.226952 
L 195.979715 342.893755 
L 196.638826 348.727157 
L 197.297936 350.583239 
L 197.957047 349.257466 
L 198.616157 351.909012 
L 199.934378 351.909012 
L 200.593488 351.643857 
L 201.252599 352.174167 
L 201.911709 351.643857 
L 202.57082 351.909012 
L 203.22993 351.909012 
L 203.889041 350.848394 
L 204.548151 351.378703 
L 205.207262 352.174167 
L 205.866372 351.643857 
L 206.525483 350.848394 
L 207.184593 349.257466 
L 207.843704 348.196847 
L 209.161925 345.545301 
L 209.821035 344.749837 
L 211.139256 341.833137 
L 213.116588 337.855817 
L 213.775698 336.795199 
L 214.434809 333.348189 
L 215.75303 321.151076 
L 216.41214 327.514787 
L 217.071251 323.802622 
L 218.389472 320.355612 
L 219.048582 319.560149 
L 219.707693 318.234375 
L 220.366803 318.234375 
L 221.025914 317.704066 
L 221.685024 316.643448 
L 222.344135 316.113138 
L 223.003245 315.05252 
L 223.662356 323.802622 
L 224.321466 320.885922 
L 224.980577 318.49953 
L 225.639687 316.908602 
L 226.298798 315.847984 
L 226.957908 315.317675 
L 227.617018 315.317675 
L 228.276129 314.787365 
L 228.935239 315.05252 
L 229.59435 314.522211 
L 230.25346 312.666128 
L 230.912571 311.60551 
L 231.571681 310.810046 
L 232.230792 308.953964 
L 232.889902 307.628191 
L 233.549013 278.726337 
L 234.208123 317.438912 
L 235.526344 332.552725 
L 236.185455 316.113138 
L 236.844565 336.795199 
L 237.503676 340.507363 
L 238.162786 347.666538 
L 238.821897 348.196847 
L 239.481007 350.848394 
L 240.140118 351.113548 
L 240.799228 351.909012 
L 241.458339 351.378703 
L 242.117449 351.113548 
L 242.77656 351.378703 
L 243.43567 351.113548 
L 244.094781 351.643857 
L 244.753891 351.113548 
L 245.413002 351.643857 
L 246.072112 351.643857 
L 246.731223 350.318084 
L 247.390333 348.727157 
L 248.049444 347.666538 
L 248.708554 345.810456 
L 249.367665 345.280147 
L 250.685886 342.6286 
L 251.344996 341.567982 
L 252.004107 339.977054 
L 252.663217 338.916436 
L 253.322328 337.325508 
L 253.981438 336.26489 
L 254.640549 335.999735 
L 255.958769 331.226952 
L 256.61788 325.923859 
L 257.27699 319.029839 
L 257.936101 326.454169 
L 258.595211 323.537468 
L 259.254322 321.416231 
L 259.913432 320.355612 
L 260.572543 318.234375 
L 261.890764 318.234375 
L 262.549874 317.704066 
L 263.208985 316.643448 
L 263.868095 315.847984 
L 264.527206 316.378293 
L 265.186316 312.666128 
L 265.845427 311.870665 
L 266.504537 311.340355 
L 267.163648 309.484273 
L 267.822758 308.423655 
L 268.481869 306.567572 
L 269.140979 305.241799 
L 270.4592 303.120562 
L 271.118311 299.408397 
L 271.777421 293.84015 
L 272.436532 307.893345 
L 273.095642 306.567572 
L 273.754753 300.734171 
L 274.413863 316.908602 
L 275.072974 312.135819 
L 275.732084 322.211695 
L 276.391195 330.431488 
L 277.050305 310.810046 
L 277.709416 340.507363 
L 278.368526 343.15891 
L 279.027637 343.424064 
L 279.686747 346.871074 
L 280.345858 351.643857 
L 281.004968 351.378703 
L 281.664079 352.174167 
L 282.323189 351.909012 
L 282.982299 351.909012 
L 283.64141 350.848394 
L 284.30052 351.909012 
L 284.959631 351.643857 
L 285.618741 351.909012 
L 286.277852 351.378703 
L 286.936962 352.174167 
L 287.596073 349.52262 
L 288.255183 351.643857 
L 289.573404 349.52262 
L 292.209846 344.219528 
L 292.868957 343.424064 
L 293.528067 341.567982 
L 294.187178 340.507363 
L 294.846288 339.7119 
L 295.505399 337.855817 
L 296.164509 336.530044 
L 296.82362 334.939116 
L 297.48273 330.166333 
L 298.141841 324.332932 
L 299.460062 309.219118 
L 300.119172 319.029839 
L 301.437393 313.991902 
L 302.096504 312.135819 
L 302.755614 310.810046 
L 303.414725 309.219118 
L 304.073835 309.219118 
L 304.732946 308.688809 
L 305.392056 308.423655 
L 306.051167 308.688809 
L 306.710277 308.423655 
L 307.369388 307.628191 
L 308.028498 305.506954 
L 308.687609 305.772108 
L 309.346719 302.590253 
L 310.00583 302.059944 
L 310.66494 300.469016 
L 311.32405 299.938707 
L 311.983161 297.81747 
L 312.642271 296.756851 
L 313.960492 288.802213 
L 314.619603 269.71108 
L 315.278713 299.143243 
L 315.937824 266.529225 
L 316.596934 310.544891 
L 317.256045 288.537058 
L 317.915155 319.825303 
L 318.574266 328.575406 
L 319.892487 339.446745 
L 321.210708 345.280147 
L 321.869818 343.954373 
L 322.528929 348.462002 
L 323.188039 349.257466 
L 323.84715 350.848394 
L 324.50626 351.643857 
L 325.165371 352.174167 
L 325.824481 351.909012 
L 327.801813 351.909012 
L 329.120034 349.787775 
L 331.097365 345.280147 
L 331.756476 344.484683 
L 332.415586 342.893755 
L 333.733807 340.772518 
L 334.392918 338.651281 
L 335.052028 334.143653 
L 335.711139 328.575406 
L 337.02936 314.787365 
L 338.347581 296.491697 
L 339.006691 285.355203 
L 339.665801 305.772108 
L 340.324912 295.696233 
L 340.984022 291.718914 
L 341.643133 288.537058 
L 342.302243 286.150667 
L 342.961354 284.559739 
L 343.620464 283.764275 
L 344.279575 282.703656 
L 344.938685 281.908193 
L 345.597796 281.377883 
L 346.256906 281.908193 
L 346.916017 302.059944 
L 348.234238 293.309841 
L 348.893348 290.127986 
L 349.552459 306.302418 
L 351.52979 300.734171 
L 352.188901 300.734171 
L 352.848011 299.673552 
L 353.507122 314.257056 
L 354.825343 310.810046 
L 355.484453 309.484273 
L 356.143564 308.953964 
L 356.802674 307.628191 
L 357.461785 306.832727 
L 358.120895 304.976644 
L 358.780006 304.71149 
L 359.439116 303.385717 
L 360.098227 302.855408 
L 360.757337 300.203861 
L 361.416448 299.673552 
L 362.075558 298.347779 
L 362.734669 297.287161 
L 363.393779 295.961387 
L 364.712 293.044687 
L 366.030221 290.39314 
L 366.689331 285.355203 
L 367.348442 302.325098 
L 368.007552 297.81747 
L 368.666663 294.37046 
L 369.325773 246.112319 
L 369.984884 307.363036 
L 370.643994 319.560149 
L 371.303105 318.49953 
L 371.962215 326.454169 
L 372.621326 324.598086 
L 373.280436 332.022416 
L 373.939547 337.590663 
L 374.598657 344.749837 
L 375.257768 346.340765 
L 375.916878 349.52262 
L 376.575989 350.848394 
L 377.235099 351.643857 
L 377.89421 351.643857 
L 378.55332 352.174167 
L 379.212431 351.909012 
L 379.871541 352.174167 
L 380.530652 351.643857 
L 381.189762 351.643857 
L 381.848873 351.113548 
L 382.507983 350.848394 
L 383.167094 350.318084 
L 384.485315 345.810456 
L 385.144425 341.567982 
L 385.803536 335.469426 
L 386.462646 326.454169 
L 387.121757 329.105715 
L 387.780867 322.476849 
L 388.439978 332.817879 
L 389.099088 332.022416 
L 394.371972 321.416231 
L 395.031082 320.355612 
L 395.690193 319.560149 
L 396.349303 316.908602 
L 397.008414 315.847984 
L 397.667524 324.598086 
L 398.326635 331.492106 
L 398.985745 330.696643 
L 399.644856 335.73458 
L 400.303966 334.673962 
L 400.963077 339.18159 
L 401.622187 338.386126 
L 402.281298 337.060353 
L 402.940408 340.507363 
L 403.599519 339.18159 
L 404.258629 342.363446 
L 404.91774 341.302827 
L 405.57685 344.219528 
L 406.235961 345.810456 
L 406.895071 344.749837 
L 407.554182 346.871074 
L 408.213292 345.014992 
L 408.872403 346.871074 
L 409.531513 344.749837 
L 410.190624 344.219528 
L 412.167955 339.7119 
L 412.827066 338.651281 
L 413.486176 337.855817 
L 414.804397 334.939116 
L 415.463508 333.613343 
L 416.122618 332.552725 
L 418.09995 328.575406 
L 418.75906 326.984478 
L 420.077281 314.787365 
L 420.736392 323.537468 
L 421.395502 318.764685 
L 422.054613 315.847984 
L 422.713723 313.461592 
L 423.372833 311.870665 
L 424.031944 310.810046 
L 425.350165 309.749428 
L 426.009275 308.953964 
L 426.668386 309.749428 
L 427.327496 309.484273 
L 427.986607 308.423655 
L 428.645717 307.628191 
L 429.963938 305.506954 
L 430.623049 304.181181 
L 431.282159 302.325098 
L 431.94127 301.794789 
L 432.60038 300.469016 
L 433.259491 299.408397 
L 433.918601 295.961387 
L 434.577712 311.60551 
L 435.895933 303.385717 
L 436.555043 266.26407 
L 437.214154 316.908602 
L 437.873264 333.878498 
L 438.532375 343.15891 
L 439.191485 345.545301 
L 439.850596 349.257466 
L 440.509706 349.52262 
L 441.168817 351.378703 
L 441.827927 351.113548 
L 442.487038 351.909012 
L 443.146148 351.113548 
L 443.805259 351.113548 
L 444.464369 350.848394 
L 445.12348 350.318084 
L 445.78259 350.848394 
L 446.441701 350.318084 
L 447.100811 351.643857 
L 447.759922 351.113548 
L 448.419032 351.113548 
L 449.078143 348.462002 
L 449.737253 349.787775 
L 450.396363 349.257466 
L 451.055474 351.378703 
L 451.714584 350.05293 
L 452.373695 349.257466 
L 453.032805 347.931693 
L 453.691916 346.871074 
L 454.351026 345.545301 
L 455.010137 343.954373 
L 455.669247 342.893755 
L 457.646579 338.916436 
L 458.305689 337.855817 
L 458.9648 336.530044 
L 459.62391 334.939116 
L 460.942131 324.332932 
L 461.601242 317.704066 
L 462.919463 302.059944 
L 464.237684 321.416231 
L 464.896794 299.673552 
L 465.555905 311.340355 
L 466.215015 333.613343 
L 466.874126 342.893755 
L 467.533236 345.545301 
L 468.192347 349.257466 
L 468.851457 347.931693 
L 469.510568 351.643857 
L 470.169678 351.643857 
L 470.828789 351.378703 
L 471.487899 350.848394 
L 472.14701 351.909012 
L 472.80612 351.378703 
L 473.465231 351.643857 
L 474.124341 350.583239 
L 474.783452 350.848394 
L 475.442562 351.643857 
L 476.101673 350.318084 
L 476.760783 348.727157 
L 477.419894 348.992311 
L 478.079004 351.113548 
L 478.738114 349.787775 
L 479.397225 348.727157 
L 480.715446 346.07561 
L 482.033667 342.893755 
L 482.692777 342.098291 
L 483.351888 341.037673 
L 484.670109 338.386126 
L 485.329219 337.325508 
L 485.98833 335.999735 
L 486.64744 334.408807 
L 487.306551 329.636024 
L 487.965661 323.537468 
L 489.283882 308.423655 
L 489.942993 318.234375 
L 490.602103 313.196438 
L 491.261214 310.014582 
L 491.920324 307.893345 
L 492.579435 305.241799 
L 493.238545 304.181181 
L 493.897656 307.628191 
L 494.556766 303.120562 
L 495.874987 303.120562 
L 496.534098 302.590253 
L 497.852319 302.059944 
L 498.511429 300.734171 
L 499.17054 299.938707 
L 500.488761 296.756851 
L 501.147871 295.961387 
L 502.466092 293.84015 
L 503.784313 286.94613 
L 504.443424 281.377883 
L 505.102534 299.938707 
L 505.761645 312.931283 
L 506.420755 294.37046 
L 507.079865 321.94654 
L 507.738976 336.795199 
L 508.398086 341.302827 
L 509.057197 347.136229 
L 509.057197 347.136229 
" style="fill:none;stroke:#1f77b4;stroke-linecap:square;stroke-width:1.5;"/>
   </g>
   <g id="line2d_17">
    <path clip-path="url(#p812f4abf1e)" d="M 151.144383 192.020777 
L 151.803494 292.514377 
L 152.462604 295.696233 
L 153.121715 295.165924 
L 153.780825 293.044687 
L 154.439936 297.022006 
L 155.099046 297.552315 
L 156.417267 312.931283 
L 157.076378 300.469016 
L 157.735488 309.484273 
L 158.394599 306.302418 
L 159.053709 303.916026 
L 159.71282 306.302418 
L 160.37193 304.446335 
L 161.031041 306.567572 
L 161.690151 297.287161 
L 162.349262 297.81747 
L 163.008372 304.976644 
L 163.667482 297.81747 
L 164.326593 298.082624 
L 164.985703 351.909012 
L 165.644814 314.522211 
L 166.303924 318.234375 
L 166.963035 319.029839 
L 167.622145 316.378293 
L 168.281256 319.560149 
L 168.940366 319.294994 
L 169.599477 319.560149 
L 170.258587 322.211695 
L 170.917698 322.742004 
L 171.576808 324.332932 
L 172.235919 324.863241 
L 172.895029 326.454169 
L 173.55414 326.984478 
L 174.21325 328.575406 
L 174.872361 328.575406 
L 175.531471 330.166333 
L 176.190582 330.431488 
L 176.849692 334.408807 
L 177.508803 329.901179 
L 178.167913 329.901179 
L 178.827024 330.431488 
L 179.486134 328.84056 
L 180.145245 328.575406 
L 180.804355 330.431488 
L 181.463466 328.045096 
L 182.122576 328.045096 
L 182.781687 330.166333 
L 183.440797 327.249632 
L 184.099908 326.984478 
L 184.759018 330.431488 
L 185.418129 327.249632 
L 186.077239 328.310251 
L 186.73635 330.696643 
L 187.39546 328.045096 
L 188.054571 329.105715 
L 188.713681 329.636024 
L 189.372792 330.696643 
L 190.031902 335.204271 
L 190.691012 326.454169 
L 191.350123 326.984478 
L 192.009233 351.909012 
L 193.327454 302.059944 
L 193.986565 306.567572 
L 194.645675 296.491697 
L 195.304786 237.627371 
L 195.963896 235.506134 
L 196.623007 273.953554 
L 197.282117 284.294584 
L 197.941228 191.755622 
L 198.600338 225.960568 
L 199.259449 232.589433 
L 199.918559 164.975006 
L 200.57767 253.536648 
L 201.23678 229.937887 
L 201.895891 132.891297 
L 202.555001 238.15768 
L 203.873222 116.186556 
L 204.532333 216.415002 
L 205.191443 205.013353 
L 205.850554 296.756851 
L 206.509664 282.173347 
L 207.168775 286.94613 
L 207.827885 284.824893 
L 208.486996 290.92345 
L 209.146106 286.415821 
L 209.805217 291.984068 
L 210.464327 289.862831 
L 211.123438 296.226542 
L 211.782548 292.779532 
L 212.441659 298.612934 
L 213.100769 295.961387 
L 213.75988 301.794789 
L 214.41899 298.878088 
L 215.078101 300.203861 
L 216.396322 311.60551 
L 217.055432 304.446335 
L 217.714543 313.461592 
L 218.373653 309.749428 
L 219.032763 352.174167 
L 219.691874 311.60551 
L 220.350984 314.787365 
L 221.010095 312.135819 
L 221.669205 312.931283 
L 222.328316 312.666128 
L 222.987426 313.726747 
L 223.646537 312.135819 
L 224.305647 306.832727 
L 224.964758 307.893345 
L 225.623868 310.279737 
L 226.282979 313.726747 
L 226.942089 314.522211 
L 227.6012 317.704066 
L 228.26031 317.438912 
L 228.919421 320.885922 
L 229.578531 316.643448 
L 230.237642 320.620767 
L 230.896752 318.764685 
L 231.555863 321.151076 
L 232.214973 320.620767 
L 232.874084 324.598086 
L 233.533194 285.355203 
L 234.192305 313.726747 
L 234.851415 303.385717 
L 235.510526 305.772108 
L 236.169636 247.703247 
L 236.828747 288.537058 
L 237.487857 291.453759 
L 238.146968 288.802213 
L 238.806078 277.135409 
L 239.465189 280.317265 
L 240.124299 271.567162 
L 240.78341 272.627781 
L 241.44252 276.339946 
L 242.101631 268.650462 
L 242.760741 273.423245 
L 243.419852 272.627781 
L 244.078962 267.324689 
L 244.738073 190.960158 
L 245.397183 186.45253 
L 246.056294 352.174167 
L 246.715404 288.271903 
L 247.374514 282.173347 
L 248.033625 279.786956 
L 248.692735 290.658295 
L 249.351846 283.233966 
L 250.010956 290.92345 
L 250.670067 286.415821 
L 251.329177 296.491697 
L 251.988288 287.741594 
L 252.647398 293.84015 
L 253.306509 292.249223 
L 253.965619 298.082624 
L 254.62473 294.635614 
L 255.28384 296.756851 
L 255.942951 295.165924 
L 257.261172 301.26448 
L 257.920282 301.26448 
L 258.579393 303.120562 
L 259.238503 306.037263 
L 259.897614 317.969221 
L 260.556724 317.704066 
L 261.215835 311.60551 
L 261.874945 317.438912 
L 262.534056 311.870665 
L 263.193166 315.847984 
L 263.852277 313.461592 
L 264.511387 313.991902 
L 265.170498 315.582829 
L 265.829608 315.317675 
L 266.488719 317.969221 
L 267.147829 317.969221 
L 267.80694 320.355612 
L 268.46605 322.211695 
L 269.125161 323.272313 
L 269.784271 324.067777 
L 270.443382 328.045096 
L 271.102492 325.923859 
L 271.761603 327.249632 
L 272.420713 328.045096 
L 273.079824 351.378703 
L 273.738934 322.211695 
L 274.398044 322.211695 
L 275.057155 312.666128 
L 275.716265 311.340355 
L 276.375376 317.438912 
L 277.034486 240.278917 
L 277.693597 288.802213 
L 278.352707 283.49912 
L 279.011818 250.089638 
L 279.670928 245.58201 
L 280.330039 248.498711 
L 280.989149 196.528405 
L 281.64826 163.914387 
L 282.30737 271.302008 
L 282.966481 187.513148 
L 283.625591 189.89954 
L 284.284702 222.248403 
L 284.943812 229.937887 
L 285.602923 218.271084 
L 286.262033 197.854178 
L 286.921144 107.701608 
L 287.580254 259.900359 
L 288.239365 265.998915 
L 288.898475 308.953964 
L 289.557586 311.340355 
L 290.216696 310.810046 
L 290.875807 312.135819 
L 291.534917 312.931283 
L 292.194028 313.991902 
L 292.853138 316.378293 
L 293.512249 318.234375 
L 294.171359 319.294994 
L 294.83047 321.94654 
L 295.48958 320.620767 
L 296.148691 322.742004 
L 296.807801 324.332932 
L 297.466912 324.598086 
L 298.126022 325.658705 
L 299.444243 329.105715 
L 300.103354 328.84056 
L 300.762464 352.174167 
L 301.421575 328.310251 
L 302.080685 328.310251 
L 302.739795 329.370869 
L 303.398906 329.370869 
L 304.058016 331.492106 
L 304.717127 330.431488 
L 305.376237 333.878498 
L 306.035348 330.431488 
L 306.694458 331.226952 
L 307.353569 330.696643 
L 308.012679 330.696643 
L 308.67179 331.492106 
L 309.3309 331.492106 
L 309.990011 333.878498 
L 310.649121 331.757261 
L 311.308232 334.673962 
L 311.967342 333.348189 
L 312.626453 334.408807 
L 313.285563 333.348189 
L 313.944674 334.408807 
L 314.603784 334.408807 
L 315.262895 330.166333 
L 315.922005 303.916026 
L 316.581116 319.825303 
L 317.240226 288.006749 
L 317.899337 306.037263 
L 318.558447 308.688809 
L 319.217558 301.529634 
L 319.876668 301.26448 
L 320.535779 297.287161 
L 321.194889 302.590253 
L 321.854 278.991492 
L 322.51311 289.067367 
L 323.172221 281.377883 
L 323.831331 249.824484 
L 324.490442 267.854998 
L 325.149552 215.619538 
L 325.808663 188.573767 
L 326.467773 145.883873 
L 327.126884 169.482634 
L 327.785994 351.909012 
L 328.445105 276.870255 
L 329.104215 290.92345 
L 329.763326 291.984068 
L 330.422436 289.067367 
L 331.081546 291.984068 
L 331.740657 289.862831 
L 332.399767 290.127986 
L 333.058878 293.84015 
L 333.717988 294.105305 
L 334.377099 300.469016 
L 335.036209 297.81747 
L 335.69532 300.734171 
L 336.35443 305.506954 
L 337.013541 305.506954 
L 338.331762 312.135819 
L 338.990872 317.969221 
L 339.649983 319.029839 
L 340.309093 321.681385 
L 340.968204 319.560149 
L 341.627314 319.560149 
L 342.286425 316.378293 
L 342.945535 316.908602 
L 343.604646 321.151076 
L 344.263756 318.49953 
L 344.922867 319.029839 
L 345.581977 319.029839 
L 346.241088 320.620767 
L 346.900198 329.901179 
L 347.559309 318.234375 
L 348.218419 313.461592 
L 348.87753 313.726747 
L 349.53664 314.787365 
L 350.195751 309.484273 
L 350.854861 305.506954 
L 351.513972 306.832727 
L 352.173082 307.097881 
L 352.832193 312.135819 
L 353.491303 313.991902 
L 354.150414 303.650871 
L 354.809524 351.909012 
L 355.468635 317.704066 
L 356.127745 314.522211 
L 356.786856 318.49953 
L 357.445966 316.113138 
L 358.105076 317.173757 
L 359.423297 318.234375 
L 360.082408 319.825303 
L 360.741518 320.090458 
L 362.059739 323.007159 
L 362.71885 325.658705 
L 363.37796 325.128396 
L 364.037071 328.045096 
L 364.696181 326.984478 
L 365.355292 329.636024 
L 366.014402 327.779942 
L 366.673513 330.696643 
L 367.332623 330.431488 
L 367.991734 326.719323 
L 368.650844 330.166333 
L 369.309955 291.718914 
L 369.969065 321.681385 
L 370.628176 322.742004 
L 371.287286 307.893345 
L 371.946397 311.870665 
L 373.264618 285.885512 
L 373.923728 284.824893 
L 374.582839 217.210466 
L 375.241949 270.771699 
L 375.90106 273.688399 
L 376.56017 211.377064 
L 377.219281 235.771289 
L 377.878391 145.883873 
L 378.537502 227.81665 
L 379.196612 267.854998 
L 379.855723 203.422425 
L 380.514833 257.779122 
L 381.173944 253.801803 
L 381.833054 279.521801 
L 382.492165 299.673552 
L 383.151275 269.445926 
L 383.810386 274.218709 
L 384.469496 275.014173 
L 385.128607 284.559739 
L 385.787717 280.317265 
L 386.446827 290.127986 
L 387.105938 293.84015 
L 387.765048 292.779532 
L 388.424159 291.453759 
L 389.083269 292.779532 
L 389.74238 297.552315 
L 390.40149 293.044687 
L 391.060601 300.999325 
L 391.719711 297.552315 
L 392.378822 298.347779 
L 393.037932 299.938707 
L 393.697043 302.590253 
L 394.356153 306.567572 
L 395.015264 305.772108 
L 395.674374 340.507363 
L 396.333485 300.469016 
L 396.992595 296.226542 
L 397.651706 294.635614 
L 398.310816 296.491697 
L 398.969927 292.514377 
L 399.629037 287.741594 
L 400.288148 286.415821 
L 400.947258 285.620357 
L 401.606369 281.112729 
L 402.265479 280.317265 
L 402.92459 284.294584 
L 403.5837 278.726337 
L 404.242811 275.279327 
L 404.901921 271.036853 
L 405.561032 274.218709 
L 406.220142 273.423245 
L 406.879253 265.998915 
L 407.538363 274.218709 
L 408.197474 265.468606 
L 408.856584 273.15809 
L 409.515695 285.885512 
L 410.174805 289.067367 
L 410.833916 291.188604 
L 411.493026 296.756851 
L 412.152137 295.431078 
L 412.811247 295.696233 
L 413.470358 299.408397 
L 414.129468 300.203861 
L 414.788578 304.71149 
L 415.447689 305.772108 
L 416.106799 307.893345 
L 416.76591 307.628191 
L 417.42502 310.810046 
L 418.084131 310.544891 
L 418.743241 313.461592 
L 419.402352 314.787365 
L 420.061462 315.847984 
L 420.720573 320.885922 
L 422.038794 316.908602 
L 422.697904 351.909012 
L 423.357015 313.196438 
L 424.016125 317.438912 
L 424.675236 315.582829 
L 425.334346 315.317675 
L 425.993457 319.825303 
L 426.652567 317.704066 
L 427.311678 317.173757 
L 427.970788 321.151076 
L 428.629899 318.234375 
L 429.289009 319.825303 
L 429.94812 322.476849 
L 430.60723 321.94654 
L 431.266341 322.476849 
L 431.925451 324.863241 
L 432.584562 325.39355 
L 433.243672 325.128396 
L 433.902783 327.514787 
L 434.561893 327.249632 
L 435.221004 324.863241 
L 435.880114 331.226952 
L 436.539225 298.347779 
L 437.198335 321.94654 
L 437.857446 309.484273 
L 438.516556 302.325098 
L 439.175667 285.090048 
L 439.834777 282.438502 
L 440.493888 263.082215 
L 441.152998 279.256646 
L 441.812109 257.513968 
L 442.471219 284.294584 
L 443.130329 240.278917 
L 443.78944 282.703656 
L 444.44855 241.869845 
L 445.107661 288.271903 
L 445.766771 293.84015 
L 446.425882 278.196028 
L 447.084992 291.718914 
L 447.744103 284.294584 
L 448.403213 283.49912 
L 449.062324 216.149847 
L 449.721434 254.332112 
L 450.380545 227.81665 
L 451.039655 248.233556 
L 451.698766 251.945721 
L 452.357876 265.998915 
L 453.016987 258.044277 
L 453.676097 259.104895 
L 454.335208 261.756442 
L 454.994318 260.695823 
L 455.653429 269.180771 
L 456.312539 264.673142 
L 456.97165 272.892936 
L 457.63076 268.385307 
L 458.289871 268.385307 
L 458.948981 270.771699 
L 459.608092 271.832317 
L 460.267202 279.256646 
L 460.926313 278.726337 
L 461.585423 286.94613 
L 462.244534 285.620357 
L 462.903644 351.909012 
L 463.562755 297.552315 
L 464.221865 296.226542 
L 464.880976 226.756032 
L 465.540086 213.233146 
L 466.199197 205.543662 
L 466.858307 271.302008 
L 467.517418 184.596447 
L 468.176528 262.551905 
L 468.835639 170.808407 
L 469.494749 172.66449 
L 470.153859 160.467377 
L 470.81297 191.755622 
L 471.47208 150.656656 
L 472.131191 183.535829 
L 472.790301 168.156861 
L 473.449412 205.278508 
L 474.108522 233.915207 
L 474.767633 249.824484 
L 475.426743 250.354793 
L 476.085854 254.066958 
L 476.744964 264.142833 
L 477.404075 251.150257 
L 478.063185 296.226542 
L 478.722296 297.552315 
L 479.381406 299.938707 
L 480.040517 304.181181 
L 480.699627 304.446335 
L 481.358738 310.810046 
L 482.017848 307.628191 
L 482.676959 310.279737 
L 483.336069 310.279737 
L 483.99518 311.340355 
L 485.313401 314.787365 
L 485.972511 315.582829 
L 486.631622 318.49953 
L 487.290732 318.49953 
L 487.949843 323.537468 
L 488.608953 324.067777 
L 489.268064 324.332932 
L 489.927174 351.909012 
L 490.586285 330.696643 
L 491.245395 328.045096 
L 491.904506 330.961797 
L 492.563616 329.105715 
L 493.222727 330.431488 
L 493.881837 328.84056 
L 494.540948 329.105715 
L 495.859169 329.105715 
L 496.518279 330.431488 
L 497.17739 328.84056 
L 497.8365 330.961797 
L 498.49561 329.636024 
L 499.154721 330.961797 
L 499.813831 329.901179 
L 500.472942 330.696643 
L 501.132052 331.226952 
L 502.450273 332.817879 
L 503.109384 332.552725 
L 503.768494 333.613343 
L 504.427605 330.961797 
L 505.086715 326.984478 
L 505.745826 329.636024 
L 506.404936 286.150667 
L 506.404936 286.150667 
" style="fill:none;stroke:#ff7f0e;stroke-linecap:square;stroke-width:1.5;"/>
   </g>
   <g id="line2d_18">
    <path clip-path="url(#p812f4abf1e)" d="M 148.525078 279.256646 
L 149.184189 279.256646 
L 149.843299 282.968811 
L 150.50241 283.49912 
L 151.16152 50.163056 
L 151.820631 259.104895 
L 152.479741 268.650462 
L 153.138852 268.385307 
L 154.457073 280.05211 
L 155.116183 289.332522 
L 155.775293 288.006749 
L 156.434404 294.105305 
L 157.093514 289.862831 
L 157.752625 299.673552 
L 158.411735 300.734171 
L 159.070846 304.71149 
L 160.389067 307.628191 
L 161.048177 307.628191 
L 161.707288 304.976644 
L 162.366398 304.446335 
L 163.025509 299.673552 
L 163.684619 276.870255 
L 164.34373 284.02943 
L 165.00284 316.643448 
L 165.661951 270.241389 
L 166.321061 277.665719 
L 166.980172 273.15809 
L 167.639282 280.05211 
L 168.298393 282.173347 
L 168.957503 274.749018 
L 169.616614 281.908193 
L 170.275724 278.461183 
L 170.934835 284.294584 
L 172.253056 284.824893 
L 172.912166 292.249223 
L 173.571277 286.415821 
L 174.230387 285.620357 
L 174.889498 292.514377 
L 175.548608 290.39314 
L 176.207719 292.514377 
L 176.866829 297.81747 
L 177.52594 290.92345 
L 178.18505 342.098291 
L 178.844161 301.26448 
L 179.503271 304.71149 
L 180.162382 301.794789 
L 180.821492 304.976644 
L 181.480603 311.340355 
L 182.139713 307.363036 
L 182.798824 308.423655 
L 183.457934 317.173757 
L 184.117044 311.340355 
L 184.776155 311.870665 
L 185.435265 315.317675 
L 186.094376 314.257056 
L 186.753486 314.787365 
L 187.412597 319.825303 
L 188.071707 317.438912 
L 188.730818 318.49953 
L 189.389928 321.94654 
L 190.049039 327.249632 
L 190.708149 316.643448 
L 191.36726 319.029839 
L 192.02637 348.462002 
L 193.344591 288.006749 
L 194.003702 297.022006 
L 194.662812 292.514377 
L 195.321923 252.741185 
L 195.981033 251.945721 
L 196.640144 285.355203 
L 197.299254 283.49912 
L 197.958365 194.937478 
L 198.617475 241.339536 
L 199.276586 209.255827 
L 199.935696 183.00552 
L 200.594807 256.188195 
L 201.253917 243.725927 
L 201.913028 216.415002 
L 202.572138 225.430259 
L 203.231249 212.967992 
L 203.890359 156.224903 
L 204.54947 246.907783 
L 205.20858 227.021186 
L 205.867691 295.961387 
L 206.526801 282.703656 
L 207.185912 284.559739 
L 207.845022 290.658295 
L 208.504133 289.597677 
L 209.163243 294.900769 
L 209.822354 291.188604 
L 210.481464 298.082624 
L 211.140575 293.84015 
L 211.799685 299.143243 
L 212.458795 294.37046 
L 213.117906 300.999325 
L 213.777016 298.082624 
L 214.436127 302.059944 
L 215.095237 298.347779 
L 215.754348 306.302418 
L 217.731679 309.484273 
L 218.39079 312.666128 
L 219.0499 351.909012 
L 219.709011 319.029839 
L 220.368121 321.151076 
L 221.027232 320.355612 
L 221.686342 318.234375 
L 222.345453 321.681385 
L 223.004563 319.560149 
L 223.663674 320.620767 
L 224.322784 315.582829 
L 224.981895 315.582829 
L 225.641005 316.113138 
L 226.959226 319.029839 
L 227.618337 317.438912 
L 228.277447 318.49953 
L 228.936558 317.969221 
L 229.595668 318.234375 
L 230.913889 321.416231 
L 231.573 321.681385 
L 232.23211 325.39355 
L 232.891221 324.067777 
L 233.550331 316.643448 
L 234.209442 320.885922 
L 234.868552 312.666128 
L 235.527663 310.014582 
L 236.186773 239.483454 
L 236.845884 291.453759 
L 237.504994 297.022006 
L 238.164105 295.696233 
L 238.823215 281.112729 
L 239.482325 285.885512 
L 240.141436 279.256646 
L 240.800546 274.749018 
L 242.118767 271.567162 
L 242.777878 280.05211 
L 243.436988 281.377883 
L 244.096099 267.589843 
L 244.755209 272.892936 
L 245.41432 209.786136 
L 246.07343 351.909012 
L 246.732541 297.81747 
L 247.391651 288.006749 
L 248.050762 292.779532 
L 248.709872 293.044687 
L 249.368983 295.431078 
L 250.028093 295.165924 
L 250.687204 302.590253 
L 251.346314 296.756851 
L 252.005425 303.916026 
L 252.664535 298.082624 
L 253.323646 307.363036 
L 253.982756 302.855408 
L 254.641867 309.219118 
L 255.300977 305.241799 
L 255.960088 311.075201 
L 256.619198 306.832727 
L 257.278309 313.461592 
L 257.937419 312.931283 
L 258.59653 316.908602 
L 259.25564 315.317675 
L 259.914751 325.39355 
L 260.573861 322.211695 
L 261.232972 322.211695 
L 261.892082 321.151076 
L 262.551193 321.681385 
L 263.210303 321.681385 
L 263.869414 321.94654 
L 264.528524 322.742004 
L 265.187635 325.39355 
L 265.846745 322.742004 
L 266.505856 327.249632 
L 267.164966 324.863241 
L 267.824076 328.310251 
L 268.483187 326.454169 
L 269.142297 328.045096 
L 269.801408 328.575406 
L 270.460518 328.575406 
L 271.778739 330.696643 
L 272.43785 331.226952 
L 273.09696 351.909012 
L 273.756071 323.802622 
L 274.415181 324.067777 
L 275.074292 307.893345 
L 275.733402 310.544891 
L 276.392513 309.484273 
L 277.051623 256.188195 
L 277.710734 300.734171 
L 278.369844 282.703656 
L 279.028955 244.521391 
L 279.688065 229.142423 
L 280.347176 248.233556 
L 281.006286 175.58119 
L 281.665397 176.906963 
L 282.324507 271.302008 
L 282.983618 192.816241 
L 283.642728 100.542433 
L 284.301839 193.081395 
L 284.960949 168.156861 
L 285.62006 213.763456 
L 286.27917 187.513148 
L 286.938281 271.302008 
L 287.597391 112.474391 
L 288.256502 150.656656 
L 288.915612 247.438092 
L 289.574723 261.226132 
L 290.233833 259.635205 
L 290.892944 273.423245 
L 291.552054 260.960978 
L 292.211165 275.809636 
L 292.870275 262.81706 
L 293.529386 275.544482 
L 294.188496 268.650462 
L 294.847607 280.58242 
L 295.506717 272.892936 
L 296.165827 277.665719 
L 296.824938 274.483863 
L 297.484048 275.544482 
L 298.143159 277.665719 
L 298.802269 281.377883 
L 299.46138 287.211285 
L 300.12049 291.453759 
L 300.779601 321.681385 
L 301.438711 304.181181 
L 302.097822 301.26448 
L 302.756932 307.097881 
L 303.416043 304.71149 
L 304.075153 309.484273 
L 304.734264 306.832727 
L 305.393374 309.484273 
L 306.052485 309.749428 
L 306.711595 309.484273 
L 307.370706 311.870665 
L 308.029816 311.60551 
L 308.688927 315.05252 
L 309.348037 315.847984 
L 310.007148 317.969221 
L 310.666258 318.764685 
L 311.984479 323.272313 
L 312.64359 324.067777 
L 313.3027 325.923859 
L 313.961811 337.855817 
L 314.620921 326.189014 
L 315.280032 319.825303 
L 315.939142 253.536648 
L 316.598253 303.385717 
L 317.257363 226.225723 
L 317.916474 285.090048 
L 318.575584 285.885512 
L 319.234695 280.317265 
L 319.893805 280.05211 
L 320.552916 271.832317 
L 321.212026 283.233966 
L 321.871137 236.036444 
L 322.530247 268.385307 
L 323.189357 277.400564 
L 323.848468 218.271084 
L 324.507578 276.074791 
L 325.166689 133.686761 
L 325.825799 161.262841 
L 326.48491 206.073972 
L 327.14402 197.589024 
L 327.803131 321.151076 
L 328.462241 278.726337 
L 329.121352 289.862831 
L 329.780462 286.150667 
L 330.439573 290.92345 
L 331.098683 298.082624 
L 331.757794 291.984068 
L 332.416904 299.938707 
L 333.076015 294.37046 
L 333.735125 297.022006 
L 334.394236 296.226542 
L 335.053346 298.347779 
L 335.712457 304.71149 
L 336.371567 304.71149 
L 337.030678 312.666128 
L 337.689788 308.953964 
L 338.348899 315.317675 
L 339.008009 319.294994 
L 339.66712 321.94654 
L 340.32623 320.355612 
L 340.985341 319.825303 
L 341.644451 322.476849 
L 342.303562 320.620767 
L 342.962672 324.067777 
L 343.621783 321.681385 
L 344.280893 322.211695 
L 344.940004 323.802622 
L 345.599114 328.575406 
L 346.258225 326.189014 
L 346.917335 330.431488 
L 347.576446 320.090458 
L 348.235556 320.620767 
L 348.894667 318.764685 
L 349.553777 321.151076 
L 350.212888 313.461592 
L 350.871998 317.969221 
L 351.531108 313.991902 
L 352.190219 315.317675 
L 352.849329 315.317675 
L 353.50844 325.658705 
L 354.16755 311.340355 
L 354.826661 351.909012 
L 355.485771 313.726747 
L 356.144882 313.991902 
L 356.803992 317.173757 
L 357.463103 316.378293 
L 358.122213 320.620767 
L 358.781324 318.234375 
L 359.440434 320.620767 
L 360.099545 321.151076 
L 360.758655 323.802622 
L 361.417766 323.537468 
L 362.076876 326.189014 
L 362.735987 327.779942 
L 363.395097 325.923859 
L 364.054208 327.249632 
L 364.713318 327.779942 
L 365.372429 329.105715 
L 366.031539 329.901179 
L 366.69065 332.28757 
L 367.34976 332.817879 
L 368.008871 330.431488 
L 368.667981 330.166333 
L 369.327092 296.226542 
L 369.986202 318.49953 
L 370.645313 322.476849 
L 371.304423 309.484273 
L 371.963534 309.484273 
L 372.622644 291.453759 
L 373.281755 288.006749 
L 373.940865 287.741594 
L 374.599976 284.294584 
L 375.259086 284.294584 
L 375.918197 280.58242 
L 376.577307 278.461183 
L 377.236418 247.438092 
L 377.895528 184.861602 
L 378.554639 211.642219 
L 379.213749 269.976235 
L 379.872859 209.255827 
L 380.53197 271.302008 
L 381.850191 214.293765 
L 382.509301 309.219118 
L 383.168412 298.612934 
L 383.827522 298.347779 
L 384.486633 303.120562 
L 385.145743 302.590253 
L 385.804854 305.241799 
L 386.463964 310.544891 
L 387.123075 314.522211 
L 387.782185 308.953964 
L 388.441296 315.05252 
L 389.100406 316.908602 
L 389.759517 315.847984 
L 390.418627 318.49953 
L 391.077738 317.438912 
L 391.736848 320.090458 
L 392.395959 319.029839 
L 393.055069 318.49953 
L 393.71418 318.234375 
L 395.032401 322.476849 
L 395.691511 351.909012 
L 396.350622 317.438912 
L 397.009732 314.787365 
L 397.668843 313.726747 
L 398.327953 314.787365 
L 398.987064 309.219118 
L 399.646174 311.340355 
L 400.305285 307.628191 
L 400.964395 305.772108 
L 401.623506 302.059944 
L 402.282616 292.249223 
L 402.941727 310.544891 
L 403.600837 299.408397 
L 404.259948 295.431078 
L 404.919058 297.022006 
L 405.578169 291.984068 
L 406.237279 295.961387 
L 406.896389 298.347779 
L 407.5555 297.022006 
L 408.21461 292.514377 
L 408.873721 290.92345 
L 409.532831 280.05211 
L 410.191942 283.233966 
L 411.510163 293.84015 
L 412.169273 289.862831 
L 412.828384 295.165924 
L 413.487494 291.188604 
L 414.146605 290.92345 
L 414.805715 293.574996 
L 415.464826 290.92345 
L 416.123936 297.022006 
L 416.783047 292.514377 
L 417.442157 300.999325 
L 418.101268 295.696233 
L 418.760378 300.469016 
L 419.419489 298.082624 
L 420.078599 299.143243 
L 420.73771 310.544891 
L 421.39682 304.181181 
L 422.055931 308.688809 
L 422.715041 323.802622 
L 423.374152 308.423655 
L 424.033262 304.181181 
L 424.692373 305.241799 
L 425.351483 305.772108 
L 426.010594 310.544891 
L 426.669704 308.1585 
L 427.328815 308.688809 
L 427.987925 314.257056 
L 428.647036 311.075201 
L 429.306146 311.075201 
L 429.965257 315.847984 
L 430.624367 312.931283 
L 431.283478 314.257056 
L 431.942588 315.847984 
L 432.601699 315.317675 
L 433.91992 318.764685 
L 434.57903 322.742004 
L 435.23814 318.49953 
L 435.897251 352.174167 
L 436.556361 279.786956 
L 437.215472 300.999325 
L 437.874582 285.090048 
L 438.533693 291.453759 
L 439.192803 270.241389 
L 439.851914 277.135409 
L 440.511024 253.801803 
L 441.170135 268.120152 
L 441.829245 223.839331 
L 442.488356 275.014173 
L 443.147466 202.096652 
L 443.806577 269.976235 
L 444.465687 283.49912 
L 445.124798 270.771699 
L 445.783908 281.377883 
L 446.443019 260.165514 
L 447.102129 273.688399 
L 447.76124 261.756442 
L 448.42035 264.673142 
L 449.079461 183.535829 
L 449.738571 292.514377 
L 450.397682 303.650871 
L 451.056792 310.279737 
L 451.715903 309.749428 
L 452.375013 312.135819 
L 453.034124 312.135819 
L 453.693234 314.522211 
L 454.352345 314.257056 
L 455.011455 316.378293 
L 455.670566 315.582829 
L 456.329676 316.908602 
L 456.988787 316.908602 
L 457.647897 319.029839 
L 458.966118 322.211695 
L 459.625229 321.94654 
L 460.284339 324.067777 
L 460.94345 324.863241 
L 461.60256 327.779942 
L 462.261671 328.575406 
L 462.920781 351.909012 
L 463.579891 326.454169 
L 464.239002 323.007159 
L 464.898112 285.885512 
L 465.557223 270.771699 
L 466.216333 264.673142 
L 466.875444 298.612934 
L 467.534554 235.506134 
L 468.193665 290.39314 
L 468.852775 223.839331 
L 469.511886 241.339536 
L 470.170996 236.566753 
L 470.830107 254.066958 
L 471.489217 222.513558 
L 472.148328 240.278917 
L 472.807438 220.127166 
L 473.466549 254.597267 
L 474.125659 261.226132 
L 474.78477 283.233966 
L 475.44388 287.47644 
L 476.102991 286.94613 
L 476.762101 193.34655 
L 477.421212 137.929234 
L 478.080322 277.930873 
L 478.739433 260.960978 
L 479.398543 271.302008 
L 480.057654 264.407988 
L 480.716764 272.097472 
L 481.375875 272.627781 
L 482.034985 267.059534 
L 482.694096 273.953554 
L 483.353206 270.241389 
L 484.012317 280.847574 
L 484.671427 271.302008 
L 485.330538 269.71108 
L 485.989648 276.339946 
L 486.648759 276.339946 
L 487.307869 280.317265 
L 487.96698 281.908193 
L 488.62609 290.658295 
L 489.285201 288.802213 
L 489.944311 351.909012 
L 490.603422 299.408397 
L 491.262532 303.385717 
L 491.921642 303.120562 
L 492.580753 311.60551 
L 493.239863 307.628191 
L 493.898974 312.666128 
L 494.558084 311.075201 
L 495.217195 316.908602 
L 495.876305 315.317675 
L 496.535416 317.969221 
L 497.194526 317.438912 
L 497.853637 320.620767 
L 498.512747 318.764685 
L 499.171858 321.416231 
L 499.830968 322.211695 
L 502.46741 328.310251 
L 503.126521 328.84056 
L 503.785631 327.779942 
L 504.444742 321.681385 
L 505.103852 314.522211 
L 505.762963 314.257056 
L 505.762963 314.257056 
" style="fill:none;stroke:#2ca02c;stroke-linecap:square;stroke-width:1.5;"/>
   </g>
   <g id="line2d_19">
    <path clip-path="url(#p812f4abf1e)" d="M 156.491087 335.999735 
L 157.150198 333.878498 
L 157.809308 332.28757 
L 158.468419 331.226952 
L 159.78664 329.636024 
L 160.44575 329.370869 
L 161.104861 328.310251 
L 161.763971 326.454169 
L 162.423082 332.28757 
L 163.082192 337.060353 
L 163.741303 336.530044 
L 164.400413 340.242209 
L 165.718634 337.590663 
L 166.377745 335.999735 
L 167.036855 335.204271 
L 167.695966 333.613343 
L 169.014187 331.492106 
L 169.673297 329.901179 
L 170.332408 329.105715 
L 170.991518 327.249632 
L 171.650629 326.454169 
L 172.309739 325.128396 
L 172.96885 323.537468 
L 173.62796 322.476849 
L 174.287071 321.681385 
L 174.946181 320.090458 
L 175.605292 315.847984 
L 176.264402 309.219118 
L 176.923513 319.029839 
L 177.582623 315.317675 
L 178.241734 318.49953 
L 178.900844 310.810046 
L 179.559955 309.484273 
L 180.219065 310.014582 
L 180.878176 307.097881 
L 181.537286 306.832727 
L 182.196397 307.097881 
L 182.855507 306.567572 
L 183.514618 311.075201 
L 184.173728 306.302418 
L 184.832838 305.506954 
L 186.151059 302.855408 
L 186.81017 301.26448 
L 187.46928 300.999325 
L 188.787501 298.347779 
L 189.446612 296.491697 
L 190.105722 311.075201 
L 190.764833 306.832727 
L 192.083054 300.734171 
L 192.742164 319.560149 
L 193.401275 298.082624 
L 194.060385 325.658705 
L 194.719496 332.552725 
L 195.378606 342.893755 
L 196.037717 336.795199 
L 196.696827 348.727157 
L 198.015048 350.848394 
L 198.674159 351.378703 
L 199.333269 351.113548 
L 199.99238 352.174167 
L 200.65149 351.378703 
L 201.310601 351.909012 
L 201.969711 352.174167 
L 202.628822 352.174167 
L 203.287932 351.909012 
L 203.947043 352.174167 
L 204.606153 351.643857 
L 205.265264 352.174167 
L 205.924374 350.583239 
L 206.583485 349.787775 
L 207.242595 348.727157 
L 209.219927 344.749837 
L 209.879037 343.689219 
L 211.197258 340.772518 
L 211.856368 339.977054 
L 212.515479 338.120972 
L 213.174589 337.325508 
L 213.8337 335.999735 
L 214.49281 333.613343 
L 215.151921 328.575406 
L 215.811031 322.211695 
L 216.470142 328.575406 
L 217.129252 326.454169 
L 217.788363 323.802622 
L 219.106584 322.211695 
L 219.765694 320.885922 
L 220.424805 320.355612 
L 221.083915 320.355612 
L 222.402136 317.173757 
L 223.061247 316.378293 
L 223.720357 324.332932 
L 225.697689 318.234375 
L 226.356799 317.173757 
L 227.01591 316.378293 
L 227.67502 316.113138 
L 228.334131 316.378293 
L 228.993241 315.847984 
L 229.652352 314.787365 
L 230.311462 313.461592 
L 230.970573 312.666128 
L 231.629683 311.340355 
L 232.288794 309.749428 
L 232.947904 308.688809 
L 233.607015 284.559739 
L 234.266125 317.438912 
L 234.925236 314.522211 
L 236.243457 336.795199 
L 236.902567 330.166333 
L 237.561678 341.833137 
L 238.879899 346.07561 
L 239.539009 349.52262 
L 241.51634 351.909012 
L 242.175451 351.378703 
L 242.834561 351.643857 
L 244.152782 351.643857 
L 244.811893 350.848394 
L 245.471003 350.848394 
L 246.130114 351.378703 
L 246.789224 348.727157 
L 247.448335 347.666538 
L 249.425666 343.689219 
L 250.084777 342.098291 
L 250.743887 341.037673 
L 252.062108 338.386126 
L 252.721219 337.325508 
L 253.380329 335.73458 
L 254.03944 335.469426 
L 254.69855 333.348189 
L 255.357661 332.022416 
L 256.016771 329.636024 
L 256.675882 324.067777 
L 257.334992 317.173757 
L 257.994103 325.39355 
L 259.312324 320.355612 
L 259.971434 319.294994 
L 260.630545 317.704066 
L 261.289655 316.643448 
L 262.607876 316.643448 
L 263.266987 316.378293 
L 264.585208 313.726747 
L 265.244318 312.666128 
L 265.903429 313.726747 
L 266.562539 309.749428 
L 267.22165 309.219118 
L 267.88076 310.810046 
L 268.53987 306.302418 
L 269.198981 304.976644 
L 269.858091 304.71149 
L 270.517202 302.590253 
L 271.176312 298.612934 
L 271.835423 281.643038 
L 272.494533 306.832727 
L 273.153644 304.181181 
L 273.812754 287.211285 
L 274.471865 313.461592 
L 275.130975 306.037263 
L 275.790086 322.476849 
L 276.449196 330.431488 
L 277.108307 336.530044 
L 277.767417 340.242209 
L 278.426528 343.15891 
L 279.085638 341.037673 
L 279.744749 346.60592 
L 280.403859 351.113548 
L 281.06297 352.174167 
L 281.72208 351.643857 
L 282.381191 351.909012 
L 283.040301 351.378703 
L 283.699412 352.174167 
L 284.358522 350.583239 
L 285.017633 351.909012 
L 285.676743 351.909012 
L 286.335854 352.174167 
L 286.994964 351.909012 
L 287.654075 349.257466 
L 288.313185 349.787775 
L 288.972296 349.257466 
L 289.631406 348.196847 
L 290.290517 346.871074 
L 290.949627 345.810456 
L 291.608738 344.219528 
L 292.267848 343.424064 
L 293.586069 340.507363 
L 294.24518 339.446745 
L 294.90429 337.590663 
L 295.5634 336.530044 
L 296.222511 334.939116 
L 296.881621 333.878498 
L 297.540732 332.552725 
L 298.199842 331.492106 
L 298.858953 326.719323 
L 299.518063 320.885922 
L 300.177174 328.045096 
L 300.836284 325.128396 
L 302.154505 321.94654 
L 302.813616 321.681385 
L 303.472726 320.885922 
L 304.131837 320.885922 
L 304.790947 320.355612 
L 305.450058 319.029839 
L 306.768279 315.847984 
L 307.427389 315.317675 
L 308.0865 313.726747 
L 308.74561 312.666128 
L 309.404721 311.870665 
L 310.063831 309.749428 
L 310.722942 309.484273 
L 311.382052 307.363036 
L 312.041163 307.097881 
L 312.700273 304.446335 
L 313.359384 299.673552 
L 314.018494 312.400974 
L 314.677605 277.930873 
L 315.336715 319.560149 
L 315.995826 328.84056 
L 316.654936 326.719323 
L 317.314047 339.446745 
L 317.973157 338.120972 
L 318.632268 341.833137 
L 319.291378 344.219528 
L 320.609599 347.666538 
L 321.26871 346.07561 
L 321.92782 343.424064 
L 322.586931 348.727157 
L 323.246041 349.257466 
L 323.905151 349.52262 
L 324.564262 351.378703 
L 325.223372 350.05293 
L 325.882483 351.909012 
L 326.541593 351.643857 
L 327.859814 351.643857 
L 330.496256 346.340765 
L 331.155367 345.545301 
L 333.132698 341.037673 
L 333.791809 339.977054 
L 334.450919 338.120972 
L 335.11003 337.855817 
L 337.087361 333.348189 
L 337.746472 328.575406 
L 338.405582 321.681385 
L 339.064693 329.105715 
L 339.723803 334.408807 
L 340.382914 333.348189 
L 341.042024 332.817879 
L 341.701135 331.757261 
L 342.360245 329.636024 
L 343.019356 328.575406 
L 343.678466 328.310251 
L 344.337577 326.454169 
L 344.996687 325.39355 
L 345.655798 324.067777 
L 346.314908 323.007159 
L 346.974019 330.961797 
L 348.29224 325.923859 
L 348.95135 326.719323 
L 349.610461 331.757261 
L 350.269571 330.431488 
L 350.928682 329.370869 
L 351.587792 328.575406 
L 352.246902 327.249632 
L 352.906013 326.189014 
L 353.565123 332.552725 
L 354.224234 331.492106 
L 354.883344 329.105715 
L 355.542455 327.779942 
L 356.201565 326.189014 
L 356.860676 326.189014 
L 357.519786 325.923859 
L 358.178897 323.802622 
L 358.838007 323.007159 
L 359.497118 321.94654 
L 360.156228 320.355612 
L 361.474449 318.234375 
L 362.13356 316.908602 
L 363.451781 313.726747 
L 364.110891 313.461592 
L 365.429112 310.544891 
L 366.088223 309.484273 
L 366.747333 303.650871 
L 367.406444 315.05252 
L 368.065554 312.135819 
L 368.724665 308.423655 
L 369.383775 320.885922 
L 370.042886 318.49953 
L 370.701996 327.249632 
L 371.361107 325.923859 
L 372.020217 339.18159 
L 372.679328 337.855817 
L 373.338438 333.083034 
L 374.656659 346.60592 
L 375.31577 347.666538 
L 375.97488 350.318084 
L 376.633991 350.583239 
L 377.293101 350.583239 
L 377.952212 350.848394 
L 378.611322 351.643857 
L 379.270432 351.643857 
L 380.588653 351.113548 
L 381.247764 351.643857 
L 381.906874 351.113548 
L 382.565985 351.643857 
L 383.225095 350.318084 
L 383.884206 348.727157 
L 384.543316 345.810456 
L 385.202427 341.833137 
L 385.861537 336.530044 
L 386.520648 327.514787 
L 387.179758 330.961797 
L 387.838869 309.749428 
L 388.497979 333.348189 
L 389.15709 332.28757 
L 389.8162 330.961797 
L 390.475311 329.901179 
L 391.793532 326.719323 
L 392.452642 326.189014 
L 393.111753 324.332932 
L 393.770863 323.007159 
L 394.429974 322.211695 
L 395.089084 320.620767 
L 395.748195 319.560149 
L 396.407305 328.310251 
L 397.066416 325.128396 
L 397.725526 323.272313 
L 398.384637 330.431488 
L 399.043747 328.84056 
L 399.702858 327.779942 
L 401.021079 326.189014 
L 401.680189 313.991902 
L 402.3393 331.226952 
L 402.99841 336.530044 
L 403.657521 340.507363 
L 404.316631 343.424064 
L 404.975742 345.280147 
L 405.634852 342.363446 
L 406.293963 346.871074 
L 406.953073 345.280147 
L 407.612183 344.219528 
L 408.271294 342.893755 
L 408.930404 341.037673 
L 409.589515 346.07561 
L 410.248625 344.749837 
L 410.907736 343.689219 
L 411.566846 342.098291 
L 412.225957 341.037673 
L 414.203288 337.060353 
L 414.862399 335.999735 
L 417.498841 330.696643 
L 418.157951 329.105715 
L 419.476172 326.984478 
L 420.135283 322.211695 
L 420.794393 327.779942 
L 422.112614 322.742004 
L 422.771725 320.620767 
L 423.430835 329.105715 
L 424.749056 325.923859 
L 425.408167 325.39355 
L 426.067277 324.598086 
L 427.385498 322.476849 
L 428.044609 321.151076 
L 428.703719 319.560149 
L 429.36283 318.49953 
L 430.02194 317.173757 
L 430.681051 316.378293 
L 431.340161 317.704066 
L 432.658382 312.666128 
L 433.317493 312.400974 
L 433.976603 310.544891 
L 434.635714 309.219118 
L 435.294824 306.302418 
L 435.953934 302.590253 
L 436.613045 287.211285 
L 437.272155 311.340355 
L 437.931266 322.742004 
L 438.590376 337.590663 
L 439.249487 339.446745 
L 439.908597 346.60592 
L 440.567708 346.871074 
L 441.226818 350.05293 
L 441.885929 350.583239 
L 443.86326 351.378703 
L 444.522371 350.848394 
L 445.181481 351.113548 
L 445.840592 349.787775 
L 446.499702 350.05293 
L 447.158813 348.992311 
L 447.817923 349.52262 
L 448.477034 348.727157 
L 449.136144 348.196847 
L 450.454365 351.378703 
L 451.113476 350.05293 
L 451.772586 349.787775 
L 452.431697 348.196847 
L 453.749918 346.07561 
L 454.409028 344.484683 
L 455.068139 343.689219 
L 455.727249 342.098291 
L 456.38636 341.037673 
L 457.04547 339.18159 
L 457.704581 338.386126 
L 458.363691 336.795199 
L 459.022802 336.26489 
L 459.681912 334.143653 
L 460.341023 332.817879 
L 461.000133 327.249632 
L 461.659244 331.757261 
L 462.318354 329.105715 
L 462.977464 327.249632 
L 463.636575 333.878498 
L 464.295685 338.386126 
L 464.954796 337.325508 
L 465.613906 341.567982 
L 466.273017 340.242209 
L 466.932127 343.15891 
L 467.591238 345.545301 
L 468.909459 348.196847 
L 469.568569 347.136229 
L 470.22768 351.643857 
L 470.88679 352.174167 
L 471.545901 351.378703 
L 472.205011 350.318084 
L 472.864122 351.378703 
L 473.523232 349.257466 
L 474.182343 351.909012 
L 474.841453 349.52262 
L 475.500564 351.113548 
L 476.159674 348.727157 
L 476.818785 349.52262 
L 477.477895 351.643857 
L 478.137006 351.113548 
L 478.796116 350.848394 
L 479.455227 349.787775 
L 480.114337 348.196847 
L 481.432558 346.07561 
L 482.091669 344.484683 
L 482.750779 343.424064 
L 483.40989 341.833137 
L 484.728111 339.7119 
L 486.705442 335.204271 
L 487.364553 329.901179 
L 488.023663 323.537468 
L 488.682774 329.901179 
L 489.341884 327.514787 
L 490.660105 324.067777 
L 491.319215 323.272313 
L 491.978326 323.272313 
L 492.637436 322.476849 
L 493.296547 321.416231 
L 493.955657 320.620767 
L 495.273878 317.969221 
L 495.932989 316.908602 
L 496.592099 316.643448 
L 497.25121 314.787365 
L 497.91032 313.991902 
L 498.569431 312.400974 
L 499.228541 313.461592 
L 499.887652 310.014582 
L 500.546762 308.688809 
L 501.205873 308.688809 
L 502.524094 296.226542 
L 503.183204 308.688809 
L 503.842315 304.976644 
L 504.501425 317.438912 
L 505.160536 315.317675 
L 505.819646 314.257056 
L 506.478757 330.696643 
L 507.137867 323.007159 
L 507.796978 331.226952 
L 508.456088 336.530044 
L 509.115199 348.727157 
L 509.774309 350.848394 
L 510.43342 350.583239 
L 511.09253 351.909012 
L 511.751641 350.848394 
L 511.751641 350.848394 
" style="fill:none;stroke:#d62728;stroke-linecap:square;stroke-width:1.5;"/>
   </g>
   <g id="patch_3">
    <path d="M 130.36375 352.174167 
L 130.36375 35.0625 
" style="fill:none;stroke:#000000;stroke-linecap:square;stroke-linejoin:miter;stroke-width:0.8;"/>
   </g>
   <g id="patch_4">
    <path d="M 529.912969 352.174167 
L 529.912969 35.0625 
" style="fill:none;stroke:#000000;stroke-linecap:square;stroke-linejoin:miter;stroke-width:0.8;"/>
   </g>
   <g id="patch_5">
    <path d="M 130.36375 352.174167 
L 529.912969 352.174167 
" style="fill:none;stroke:#000000;stroke-linecap:square;stroke-linejoin:miter;stroke-width:0.8;"/>
   </g>
   <g id="patch_6">
    <path d="M 130.36375 35.0625 
L 529.912969 35.0625 
" style="fill:none;stroke:#000000;stroke-linecap:square;stroke-linejoin:miter;stroke-width:0.8;"/>
   </g>
   <g id="legend_1">
    <g id="patch_7">
     <path d="M 551.89043 96.775 
L 623.085742 96.775 
Q 625.085742 96.775 625.085742 94.775 
L 625.085742 37.0625 
Q 625.085742 35.0625 623.085742 35.0625 
L 551.89043 35.0625 
Q 549.89043 35.0625 549.89043 37.0625 
L 549.89043 94.775 
Q 549.89043 96.775 551.89043 96.775 
z
" style="fill:#ffffff;opacity:0.8;stroke:#cccccc;stroke-linejoin:miter;"/>
    </g>
    <g id="line2d_20">
     <path d="M 553.89043 43.160937 
L 573.89043 43.160937 
" style="fill:none;stroke:#1f77b4;stroke-linecap:square;stroke-width:1.5;"/>
    </g>
    <g id="line2d_21"/>
    <g id="text_17">
     <!-- cubic-pi -->
     <defs>
      <path d="M 48.78125 52.59375 
L 48.78125 44.1875 
Q 44.96875 46.296875 41.140625 47.34375 
Q 37.3125 48.390625 33.40625 48.390625 
Q 24.65625 48.390625 19.8125 42.84375 
Q 14.984375 37.3125 14.984375 27.296875 
Q 14.984375 17.28125 19.8125 11.734375 
Q 24.65625 6.203125 33.40625 6.203125 
Q 37.3125 6.203125 41.140625 7.25 
Q 44.96875 8.296875 48.78125 10.40625 
L 48.78125 2.09375 
Q 45.015625 0.34375 40.984375 -0.53125 
Q 36.96875 -1.421875 32.421875 -1.421875 
Q 20.0625 -1.421875 12.78125 6.34375 
Q 5.515625 14.109375 5.515625 27.296875 
Q 5.515625 40.671875 12.859375 48.328125 
Q 20.21875 56 33.015625 56 
Q 37.15625 56 41.109375 55.140625 
Q 45.0625 54.296875 48.78125 52.59375 
z
" id="DejaVuSans-99"/>
      <path d="M 8.5 21.578125 
L 8.5 54.6875 
L 17.484375 54.6875 
L 17.484375 21.921875 
Q 17.484375 14.15625 20.5 10.265625 
Q 23.53125 6.390625 29.59375 6.390625 
Q 36.859375 6.390625 41.078125 11.03125 
Q 45.3125 15.671875 45.3125 23.6875 
L 45.3125 54.6875 
L 54.296875 54.6875 
L 54.296875 0 
L 45.3125 0 
L 45.3125 8.40625 
Q 42.046875 3.421875 37.71875 1 
Q 33.40625 -1.421875 27.6875 -1.421875 
Q 18.265625 -1.421875 13.375 4.4375 
Q 8.5 10.296875 8.5 21.578125 
z
M 31.109375 56 
z
" id="DejaVuSans-117"/>
      <path d="M 4.890625 31.390625 
L 31.203125 31.390625 
L 31.203125 23.390625 
L 4.890625 23.390625 
z
" id="DejaVuSans-45"/>
      <path d="M 18.109375 8.203125 
L 18.109375 -20.796875 
L 9.078125 -20.796875 
L 9.078125 54.6875 
L 18.109375 54.6875 
L 18.109375 46.390625 
Q 20.953125 51.265625 25.265625 53.625 
Q 29.59375 56 35.59375 56 
Q 45.5625 56 51.78125 48.09375 
Q 58.015625 40.1875 58.015625 27.296875 
Q 58.015625 14.40625 51.78125 6.484375 
Q 45.5625 -1.421875 35.59375 -1.421875 
Q 29.59375 -1.421875 25.265625 0.953125 
Q 20.953125 3.328125 18.109375 8.203125 
z
M 48.6875 27.296875 
Q 48.6875 37.203125 44.609375 42.84375 
Q 40.53125 48.484375 33.40625 48.484375 
Q 26.265625 48.484375 22.1875 42.84375 
Q 18.109375 37.203125 18.109375 27.296875 
Q 18.109375 17.390625 22.1875 11.75 
Q 26.265625 6.109375 33.40625 6.109375 
Q 40.53125 6.109375 44.609375 11.75 
Q 48.6875 17.390625 48.6875 27.296875 
z
" id="DejaVuSans-112"/>
     </defs>
     <g transform="translate(581.89043 46.660937)scale(0.1 -0.1)">
      <use xlink:href="#DejaVuSans-99"/>
      <use x="54.980469" xlink:href="#DejaVuSans-117"/>
      <use x="118.359375" xlink:href="#DejaVuSans-98"/>
      <use x="181.835938" xlink:href="#DejaVuSans-105"/>
      <use x="209.619141" xlink:href="#DejaVuSans-99"/>
      <use x="264.599609" xlink:href="#DejaVuSans-45"/>
      <use x="300.683594" xlink:href="#DejaVuSans-112"/>
      <use x="364.160156" xlink:href="#DejaVuSans-105"/>
     </g>
    </g>
    <g id="line2d_22">
     <path d="M 553.89043 57.839063 
L 573.89043 57.839063 
" style="fill:none;stroke:#ff7f0e;stroke-linecap:square;stroke-width:1.5;"/>
    </g>
    <g id="line2d_23"/>
    <g id="text_18">
     <!-- bbr-pi -->
     <defs>
      <path d="M 41.109375 46.296875 
Q 39.59375 47.171875 37.8125 47.578125 
Q 36.03125 48 33.890625 48 
Q 26.265625 48 22.1875 43.046875 
Q 18.109375 38.09375 18.109375 28.8125 
L 18.109375 0 
L 9.078125 0 
L 9.078125 54.6875 
L 18.109375 54.6875 
L 18.109375 46.1875 
Q 20.953125 51.171875 25.484375 53.578125 
Q 30.03125 56 36.53125 56 
Q 37.453125 56 38.578125 55.875 
Q 39.703125 55.765625 41.0625 55.515625 
z
" id="DejaVuSans-114"/>
     </defs>
     <g transform="translate(581.89043 61.339063)scale(0.1 -0.1)">
      <use xlink:href="#DejaVuSans-98"/>
      <use x="63.476562" xlink:href="#DejaVuSans-98"/>
      <use x="126.953125" xlink:href="#DejaVuSans-114"/>
      <use x="167.972656" xlink:href="#DejaVuSans-45"/>
      <use x="204.056641" xlink:href="#DejaVuSans-112"/>
      <use x="267.533203" xlink:href="#DejaVuSans-105"/>
     </g>
    </g>
    <g id="line2d_24">
     <path d="M 553.89043 72.517187 
L 573.89043 72.517187 
" style="fill:none;stroke:#2ca02c;stroke-linecap:square;stroke-width:1.5;"/>
    </g>
    <g id="line2d_25"/>
    <g id="text_19">
     <!-- bbr-pi -->
     <g transform="translate(581.89043 76.017187)scale(0.1 -0.1)">
      <use xlink:href="#DejaVuSans-98"/>
      <use x="63.476562" xlink:href="#DejaVuSans-98"/>
      <use x="126.953125" xlink:href="#DejaVuSans-114"/>
      <use x="167.972656" xlink:href="#DejaVuSans-45"/>
      <use x="204.056641" xlink:href="#DejaVuSans-112"/>
      <use x="267.533203" xlink:href="#DejaVuSans-105"/>
     </g>
    </g>
    <g id="line2d_26">
     <path d="M 553.89043 87.195312 
L 573.89043 87.195312 
" style="fill:none;stroke:#d62728;stroke-linecap:square;stroke-width:1.5;"/>
    </g>
    <g id="line2d_27"/>
    <g id="text_20">
     <!-- cubic-pi -->
     <g transform="translate(581.89043 90.695312)scale(0.1 -0.1)">
      <use xlink:href="#DejaVuSans-99"/>
      <use x="54.980469" xlink:href="#DejaVuSans-117"/>
      <use x="118.359375" xlink:href="#DejaVuSans-98"/>
      <use x="181.835938" xlink:href="#DejaVuSans-105"/>
      <use x="209.619141" xlink:href="#DejaVuSans-99"/>
      <use x="264.599609" xlink:href="#DejaVuSans-45"/>
      <use x="300.683594" xlink:href="#DejaVuSans-112"/>
      <use x="364.160156" xlink:href="#DejaVuSans-105"/>
     </g>
    </g>
   </g>
  </g>
  <g id="text_21">
   <!-- result inflight -->
   <defs>
    <path id="DejaVuSans-32"/>
   </defs>
   <g transform="translate(302.110313 17.038125)scale(0.12 -0.12)">
    <use xlink:href="#DejaVuSans-114"/>
    <use x="41.082031" xlink:href="#DejaVuSans-101"/>
    <use x="102.605469" xlink:href="#DejaVuSans-115"/>
    <use x="154.705078" xlink:href="#DejaVuSans-117"/>
    <use x="218.083984" xlink:href="#DejaVuSans-108"/>
    <use x="245.867188" xlink:href="#DejaVuSans-116"/>
    <use x="285.076172" xlink:href="#DejaVuSans-32"/>
    <use x="316.863281" xlink:href="#DejaVuSans-105"/>
    <use x="344.646484" xlink:href="#DejaVuSans-110"/>
    <use x="408.025391" xlink:href="#DejaVuSans-102"/>
    <use x="443.230469" xlink:href="#DejaVuSans-108"/>
    <use x="471.013672" xlink:href="#DejaVuSans-105"/>
    <use x="498.796875" xlink:href="#DejaVuSans-103"/>
    <use x="562.273438" xlink:href="#DejaVuSans-104"/>
    <use x="625.652344" xlink:href="#DejaVuSans-116"/>
   </g>
  </g>
 </g>
 <defs>
  <clipPath id="p812f4abf1e">
   <rect height="317.111667" width="399.549219" x="130.36375" y="35.0625"/>
  </clipPath>
 </defs>
</svg>
