<?xml version="1.0" encoding="utf-8" standalone="no"?>
<!DOCTYPE svg PUBLIC "-//W3C//DTD SVG 1.1//EN"
  "http://www.w3.org/Graphics/SVG/1.1/DTD/svg11.dtd">
<!-- Created with matplotlib (https://matplotlib.org/) -->
<svg height="396pt" version="1.1" viewBox="0 0 684 396" width="684pt" xmlns="http://www.w3.org/2000/svg" xmlns:xlink="http://www.w3.org/1999/xlink">
 <defs>
  <style type="text/css">
*{stroke-linecap:butt;stroke-linejoin:round;}
  </style>
 </defs>
 <g id="figure_1">
  <g id="patch_1">
   <path d="M 0 396 
L 684 396 
L 684 0 
L 0 0 
z
" style="fill:#ffffff;"/>
  </g>
  <g id="axes_1">
   <g id="patch_2">
    <path d="M 92.823906 352.174167 
L 544.073906 352.174167 
L 544.073906 35.0625 
L 92.823906 35.0625 
z
" style="fill:#ffffff;"/>
   </g>
   <g id="matplotlib.axis_1">
    <g id="xtick_1">
     <g id="line2d_1">
      <defs>
       <path d="M 0 0 
L 0 3.5 
" id="mf2ad3ddeaf" style="stroke:#000000;stroke-width:0.8;"/>
      </defs>
      <g>
       <use style="stroke:#000000;stroke-width:0.8;" x="113.326336" xlink:href="#mf2ad3ddeaf" y="352.174167"/>
      </g>
     </g>
     <g id="text_1">
      <!-- 0 -->
      <defs>
       <path d="M 31.78125 66.40625 
Q 24.171875 66.40625 20.328125 58.90625 
Q 16.5 51.421875 16.5 36.375 
Q 16.5 21.390625 20.328125 13.890625 
Q 24.171875 6.390625 31.78125 6.390625 
Q 39.453125 6.390625 43.28125 13.890625 
Q 47.125 21.390625 47.125 36.375 
Q 47.125 51.421875 43.28125 58.90625 
Q 39.453125 66.40625 31.78125 66.40625 
z
M 31.78125 74.21875 
Q 44.046875 74.21875 50.515625 64.515625 
Q 56.984375 54.828125 56.984375 36.375 
Q 56.984375 17.96875 50.515625 8.265625 
Q 44.046875 -1.421875 31.78125 -1.421875 
Q 19.53125 -1.421875 13.0625 8.265625 
Q 6.59375 17.96875 6.59375 36.375 
Q 6.59375 54.828125 13.0625 64.515625 
Q 19.53125 74.21875 31.78125 74.21875 
z
" id="DejaVuSans-48"/>
      </defs>
      <g transform="translate(110.145086 366.772604)scale(0.1 -0.1)">
       <use xlink:href="#DejaVuSans-48"/>
      </g>
     </g>
    </g>
    <g id="xtick_2">
     <g id="line2d_2">
      <g>
       <use style="stroke:#000000;stroke-width:0.8;" x="187.772883" xlink:href="#mf2ad3ddeaf" y="352.174167"/>
      </g>
     </g>
     <g id="text_2">
      <!-- 50 -->
      <defs>
       <path d="M 10.796875 72.90625 
L 49.515625 72.90625 
L 49.515625 64.59375 
L 19.828125 64.59375 
L 19.828125 46.734375 
Q 21.96875 47.46875 24.109375 47.828125 
Q 26.265625 48.1875 28.421875 48.1875 
Q 40.625 48.1875 47.75 41.5 
Q 54.890625 34.8125 54.890625 23.390625 
Q 54.890625 11.625 47.5625 5.09375 
Q 40.234375 -1.421875 26.90625 -1.421875 
Q 22.3125 -1.421875 17.546875 -0.640625 
Q 12.796875 0.140625 7.71875 1.703125 
L 7.71875 11.625 
Q 12.109375 9.234375 16.796875 8.0625 
Q 21.484375 6.890625 26.703125 6.890625 
Q 35.15625 6.890625 40.078125 11.328125 
Q 45.015625 15.765625 45.015625 23.390625 
Q 45.015625 31 40.078125 35.4375 
Q 35.15625 39.890625 26.703125 39.890625 
Q 22.75 39.890625 18.8125 39.015625 
Q 14.890625 38.140625 10.796875 36.28125 
z
" id="DejaVuSans-53"/>
      </defs>
      <g transform="translate(181.410383 366.772604)scale(0.1 -0.1)">
       <use xlink:href="#DejaVuSans-53"/>
       <use x="63.623047" xlink:href="#DejaVuSans-48"/>
      </g>
     </g>
    </g>
    <g id="xtick_3">
     <g id="line2d_3">
      <g>
       <use style="stroke:#000000;stroke-width:0.8;" x="262.21943" xlink:href="#mf2ad3ddeaf" y="352.174167"/>
      </g>
     </g>
     <g id="text_3">
      <!-- 100 -->
      <defs>
       <path d="M 12.40625 8.296875 
L 28.515625 8.296875 
L 28.515625 63.921875 
L 10.984375 60.40625 
L 10.984375 69.390625 
L 28.421875 72.90625 
L 38.28125 72.90625 
L 38.28125 8.296875 
L 54.390625 8.296875 
L 54.390625 0 
L 12.40625 0 
z
" id="DejaVuSans-49"/>
      </defs>
      <g transform="translate(252.67568 366.772604)scale(0.1 -0.1)">
       <use xlink:href="#DejaVuSans-49"/>
       <use x="63.623047" xlink:href="#DejaVuSans-48"/>
       <use x="127.246094" xlink:href="#DejaVuSans-48"/>
      </g>
     </g>
    </g>
    <g id="xtick_4">
     <g id="line2d_4">
      <g>
       <use style="stroke:#000000;stroke-width:0.8;" x="336.665976" xlink:href="#mf2ad3ddeaf" y="352.174167"/>
      </g>
     </g>
     <g id="text_4">
      <!-- 150 -->
      <g transform="translate(327.122226 366.772604)scale(0.1 -0.1)">
       <use xlink:href="#DejaVuSans-49"/>
       <use x="63.623047" xlink:href="#DejaVuSans-53"/>
       <use x="127.246094" xlink:href="#DejaVuSans-48"/>
      </g>
     </g>
    </g>
    <g id="xtick_5">
     <g id="line2d_5">
      <g>
       <use style="stroke:#000000;stroke-width:0.8;" x="411.112523" xlink:href="#mf2ad3ddeaf" y="352.174167"/>
      </g>
     </g>
     <g id="text_5">
      <!-- 200 -->
      <defs>
       <path d="M 19.1875 8.296875 
L 53.609375 8.296875 
L 53.609375 0 
L 7.328125 0 
L 7.328125 8.296875 
Q 12.9375 14.109375 22.625 23.890625 
Q 32.328125 33.6875 34.8125 36.53125 
Q 39.546875 41.84375 41.421875 45.53125 
Q 43.3125 49.21875 43.3125 52.78125 
Q 43.3125 58.59375 39.234375 62.25 
Q 35.15625 65.921875 28.609375 65.921875 
Q 23.96875 65.921875 18.8125 64.3125 
Q 13.671875 62.703125 7.8125 59.421875 
L 7.8125 69.390625 
Q 13.765625 71.78125 18.9375 73 
Q 24.125 74.21875 28.421875 74.21875 
Q 39.75 74.21875 46.484375 68.546875 
Q 53.21875 62.890625 53.21875 53.421875 
Q 53.21875 48.921875 51.53125 44.890625 
Q 49.859375 40.875 45.40625 35.40625 
Q 44.1875 33.984375 37.640625 27.21875 
Q 31.109375 20.453125 19.1875 8.296875 
z
" id="DejaVuSans-50"/>
      </defs>
      <g transform="translate(401.568773 366.772604)scale(0.1 -0.1)">
       <use xlink:href="#DejaVuSans-50"/>
       <use x="63.623047" xlink:href="#DejaVuSans-48"/>
       <use x="127.246094" xlink:href="#DejaVuSans-48"/>
      </g>
     </g>
    </g>
    <g id="xtick_6">
     <g id="line2d_6">
      <g>
       <use style="stroke:#000000;stroke-width:0.8;" x="485.559069" xlink:href="#mf2ad3ddeaf" y="352.174167"/>
      </g>
     </g>
     <g id="text_6">
      <!-- 250 -->
      <g transform="translate(476.015319 366.772604)scale(0.1 -0.1)">
       <use xlink:href="#DejaVuSans-50"/>
       <use x="63.623047" xlink:href="#DejaVuSans-53"/>
       <use x="127.246094" xlink:href="#DejaVuSans-48"/>
      </g>
     </g>
    </g>
   </g>
   <g id="matplotlib.axis_2">
    <g id="ytick_1">
     <g id="line2d_7">
      <defs>
       <path d="M 0 0 
L -3.5 0 
" id="m128b321464" style="stroke:#000000;stroke-width:0.8;"/>
      </defs>
      <g>
       <use style="stroke:#000000;stroke-width:0.8;" x="92.823906" xlink:href="#m128b321464" y="352.174167"/>
      </g>
     </g>
     <g id="text_7">
      <!-- 0 -->
      <g transform="translate(79.461406 355.973385)scale(0.1 -0.1)">
       <use xlink:href="#DejaVuSans-48"/>
      </g>
     </g>
    </g>
    <g id="ytick_2">
     <g id="line2d_8">
      <g>
       <use style="stroke:#000000;stroke-width:0.8;" x="92.823906" xlink:href="#m128b321464" y="294.18008"/>
      </g>
     </g>
     <g id="text_8">
      <!-- 50 -->
      <g transform="translate(73.098906 297.979299)scale(0.1 -0.1)">
       <use xlink:href="#DejaVuSans-53"/>
       <use x="63.623047" xlink:href="#DejaVuSans-48"/>
      </g>
     </g>
    </g>
    <g id="ytick_3">
     <g id="line2d_9">
      <g>
       <use style="stroke:#000000;stroke-width:0.8;" x="92.823906" xlink:href="#m128b321464" y="236.185993"/>
      </g>
     </g>
     <g id="text_9">
      <!-- 100 -->
      <g transform="translate(66.736406 239.985212)scale(0.1 -0.1)">
       <use xlink:href="#DejaVuSans-49"/>
       <use x="63.623047" xlink:href="#DejaVuSans-48"/>
       <use x="127.246094" xlink:href="#DejaVuSans-48"/>
      </g>
     </g>
    </g>
    <g id="ytick_4">
     <g id="line2d_10">
      <g>
       <use style="stroke:#000000;stroke-width:0.8;" x="92.823906" xlink:href="#m128b321464" y="178.191906"/>
      </g>
     </g>
     <g id="text_10">
      <!-- 150 -->
      <g transform="translate(66.736406 181.991125)scale(0.1 -0.1)">
       <use xlink:href="#DejaVuSans-49"/>
       <use x="63.623047" xlink:href="#DejaVuSans-53"/>
       <use x="127.246094" xlink:href="#DejaVuSans-48"/>
      </g>
     </g>
    </g>
    <g id="ytick_5">
     <g id="line2d_11">
      <g>
       <use style="stroke:#000000;stroke-width:0.8;" x="92.823906" xlink:href="#m128b321464" y="120.197819"/>
      </g>
     </g>
     <g id="text_11">
      <!-- 200 -->
      <g transform="translate(66.736406 123.997038)scale(0.1 -0.1)">
       <use xlink:href="#DejaVuSans-50"/>
       <use x="63.623047" xlink:href="#DejaVuSans-48"/>
       <use x="127.246094" xlink:href="#DejaVuSans-48"/>
      </g>
     </g>
    </g>
    <g id="ytick_6">
     <g id="line2d_12">
      <g>
       <use style="stroke:#000000;stroke-width:0.8;" x="92.823906" xlink:href="#m128b321464" y="62.203733"/>
      </g>
     </g>
     <g id="text_12">
      <!-- 250 -->
      <g transform="translate(66.736406 66.002951)scale(0.1 -0.1)">
       <use xlink:href="#DejaVuSans-50"/>
       <use x="63.623047" xlink:href="#DejaVuSans-53"/>
       <use x="127.246094" xlink:href="#DejaVuSans-48"/>
      </g>
     </g>
    </g>
    <g id="text_13">
     <!-- rtt -->
     <defs>
      <path d="M 41.109375 46.296875 
Q 39.59375 47.171875 37.8125 47.578125 
Q 36.03125 48 33.890625 48 
Q 26.265625 48 22.1875 43.046875 
Q 18.109375 38.09375 18.109375 28.8125 
L 18.109375 0 
L 9.078125 0 
L 9.078125 54.6875 
L 18.109375 54.6875 
L 18.109375 46.1875 
Q 20.953125 51.171875 25.484375 53.578125 
Q 30.03125 56 36.53125 56 
Q 37.453125 56 38.578125 55.875 
Q 39.703125 55.765625 41.0625 55.515625 
z
" id="DejaVuSans-114"/>
      <path d="M 18.3125 70.21875 
L 18.3125 54.6875 
L 36.8125 54.6875 
L 36.8125 47.703125 
L 18.3125 47.703125 
L 18.3125 18.015625 
Q 18.3125 11.328125 20.140625 9.421875 
Q 21.96875 7.515625 27.59375 7.515625 
L 36.8125 7.515625 
L 36.8125 0 
L 27.59375 0 
Q 17.1875 0 13.234375 3.875 
Q 9.28125 7.765625 9.28125 18.015625 
L 9.28125 47.703125 
L 2.6875 47.703125 
L 2.6875 54.6875 
L 9.28125 54.6875 
L 9.28125 70.21875 
z
" id="DejaVuSans-116"/>
     </defs>
     <g transform="translate(49.458906 199.594115)rotate(-90)scale(0.1 -0.1)">
      <use xlink:href="#DejaVuSans-114"/>
      <use x="41.113281" xlink:href="#DejaVuSans-116"/>
      <use x="80.322266" xlink:href="#DejaVuSans-116"/>
     </g>
     <!-- (ms) -->
     <defs>
      <path d="M 31 75.875 
Q 24.46875 64.65625 21.28125 53.65625 
Q 18.109375 42.671875 18.109375 31.390625 
Q 18.109375 20.125 21.3125 9.0625 
Q 24.515625 -2 31 -13.1875 
L 23.1875 -13.1875 
Q 15.875 -1.703125 12.234375 9.375 
Q 8.59375 20.453125 8.59375 31.390625 
Q 8.59375 42.28125 12.203125 53.3125 
Q 15.828125 64.359375 23.1875 75.875 
z
" id="DejaVuSans-40"/>
      <path d="M 52 44.1875 
Q 55.375 50.25 60.0625 53.125 
Q 64.75 56 71.09375 56 
Q 79.640625 56 84.28125 50.015625 
Q 88.921875 44.046875 88.921875 33.015625 
L 88.921875 0 
L 79.890625 0 
L 79.890625 32.71875 
Q 79.890625 40.578125 77.09375 44.375 
Q 74.3125 48.1875 68.609375 48.1875 
Q 61.625 48.1875 57.5625 43.546875 
Q 53.515625 38.921875 53.515625 30.90625 
L 53.515625 0 
L 44.484375 0 
L 44.484375 32.71875 
Q 44.484375 40.625 41.703125 44.40625 
Q 38.921875 48.1875 33.109375 48.1875 
Q 26.21875 48.1875 22.15625 43.53125 
Q 18.109375 38.875 18.109375 30.90625 
L 18.109375 0 
L 9.078125 0 
L 9.078125 54.6875 
L 18.109375 54.6875 
L 18.109375 46.1875 
Q 21.1875 51.21875 25.484375 53.609375 
Q 29.78125 56 35.6875 56 
Q 41.65625 56 45.828125 52.96875 
Q 50 49.953125 52 44.1875 
z
" id="DejaVuSans-109"/>
      <path d="M 44.28125 53.078125 
L 44.28125 44.578125 
Q 40.484375 46.53125 36.375 47.5 
Q 32.28125 48.484375 27.875 48.484375 
Q 21.1875 48.484375 17.84375 46.4375 
Q 14.5 44.390625 14.5 40.28125 
Q 14.5 37.15625 16.890625 35.375 
Q 19.28125 33.59375 26.515625 31.984375 
L 29.59375 31.296875 
Q 39.15625 29.25 43.1875 25.515625 
Q 47.21875 21.78125 47.21875 15.09375 
Q 47.21875 7.46875 41.1875 3.015625 
Q 35.15625 -1.421875 24.609375 -1.421875 
Q 20.21875 -1.421875 15.453125 -0.5625 
Q 10.6875 0.296875 5.421875 2 
L 5.421875 11.28125 
Q 10.40625 8.6875 15.234375 7.390625 
Q 20.0625 6.109375 24.8125 6.109375 
Q 31.15625 6.109375 34.5625 8.28125 
Q 37.984375 10.453125 37.984375 14.40625 
Q 37.984375 18.0625 35.515625 20.015625 
Q 33.0625 21.96875 24.703125 23.78125 
L 21.578125 24.515625 
Q 13.234375 26.265625 9.515625 29.90625 
Q 5.8125 33.546875 5.8125 39.890625 
Q 5.8125 47.609375 11.28125 51.796875 
Q 16.75 56 26.8125 56 
Q 31.78125 56 36.171875 55.265625 
Q 40.578125 54.546875 44.28125 53.078125 
z
" id="DejaVuSans-115"/>
      <path d="M 8.015625 75.875 
L 15.828125 75.875 
Q 23.140625 64.359375 26.78125 53.3125 
Q 30.421875 42.28125 30.421875 31.390625 
Q 30.421875 20.453125 26.78125 9.375 
Q 23.140625 -1.703125 15.828125 -13.1875 
L 8.015625 -13.1875 
Q 14.5 -2 17.703125 9.0625 
Q 20.90625 20.125 20.90625 31.390625 
Q 20.90625 42.671875 17.703125 53.65625 
Q 14.5 64.65625 8.015625 75.875 
z
" id="DejaVuSans-41"/>
     </defs>
     <g transform="translate(60.656719 204.994896)rotate(-90)scale(0.1 -0.1)">
      <use xlink:href="#DejaVuSans-40"/>
      <use x="39.013672" xlink:href="#DejaVuSans-109"/>
      <use x="136.425781" xlink:href="#DejaVuSans-115"/>
      <use x="188.525391" xlink:href="#DejaVuSans-41"/>
     </g>
    </g>
   </g>
   <g id="line2d_13">
    <path clip-path="url(#pe98532a1c4)" d="M 122.295656 239.665638 
L 123.040122 193.270369 
L 123.784587 288.380671 
L 124.529053 276.781854 
L 125.273518 255.903983 
L 126.017984 264.023155 
L 126.762449 283.741144 
L 127.506915 286.060908 
L 128.25138 243.145283 
L 128.995845 251.264456 
L 129.740311 276.781854 
L 130.484776 258.223746 
L 131.229242 255.903983 
L 131.973707 241.985402 
L 132.718173 277.941736 
L 133.462638 270.982445 
L 134.207104 265.183036 
L 134.951569 262.863273 
L 135.696035 257.063864 
L 136.4405 274.46209 
L 137.184966 274.46209 
L 137.929431 317.377715 
L 138.673896 323.177123 
L 139.418362 322.017242 
L 140.162827 322.017242 
L 140.907293 320.85736 
L 141.651758 318.537596 
L 142.396224 317.377715 
L 143.140689 317.377715 
L 143.885155 316.217833 
L 148.351948 316.217833 
L 149.096413 315.057951 
L 149.840878 315.057951 
L 150.585344 316.217833 
L 151.329809 316.217833 
L 152.074275 335.935822 
L 152.81874 304.619015 
L 153.563206 320.85736 
L 154.307671 322.017242 
L 155.052137 322.017242 
L 155.796602 323.177123 
L 158.029999 323.177123 
L 158.774464 322.017242 
L 159.51893 323.177123 
L 160.263395 322.017242 
L 163.985722 322.017242 
L 164.730188 323.177123 
L 166.219119 323.177123 
L 166.963584 328.976532 
L 167.70805 319.697478 
L 168.452515 312.738188 
L 169.196981 322.017242 
L 169.941446 323.177123 
L 172.174842 323.177123 
L 172.919308 322.017242 
L 176.641635 322.017242 
L 177.386101 323.177123 
L 178.130566 322.017242 
L 181.852894 322.017242 
L 182.597359 334.775941 
L 183.341824 301.13937 
L 184.08629 319.697478 
L 184.830755 322.017242 
L 195.253272 322.017242 
L 195.997737 323.177123 
L 196.742203 322.017242 
L 197.486668 330.136414 
L 198.231134 305.778897 
L 198.975599 311.578306 
L 199.720065 322.017242 
L 200.46453 322.017242 
L 201.208996 323.177123 
L 201.953461 322.017242 
L 203.442392 322.017242 
L 204.186858 323.177123 
L 206.420254 323.177123 
L 207.164719 322.017242 
L 210.142581 322.017242 
L 210.887047 323.177123 
L 212.375978 323.177123 
L 213.120443 335.935822 
L 213.864909 304.619015 
L 214.609374 319.697478 
L 215.35384 322.017242 
L 216.098305 322.017242 
L 216.84277 323.177123 
L 217.587236 322.017242 
L 218.331701 323.177123 
L 225.776356 323.177123 
L 226.520822 322.017242 
L 227.265287 323.177123 
L 228.009752 331.296295 
L 228.754218 305.778897 
L 229.498683 318.537596 
L 230.243149 322.017242 
L 230.987614 322.017242 
L 231.73208 323.177123 
L 232.476545 323.177123 
L 233.221011 322.017242 
L 236.198873 322.017242 
L 236.943338 323.177123 
L 237.687804 322.017242 
L 239.9212 322.017242 
L 240.665665 323.177123 
L 241.410131 323.177123 
L 242.154596 322.017242 
L 242.899062 322.017242 
L 243.643527 334.775941 
L 244.387993 305.778897 
L 245.132458 320.85736 
L 246.621389 323.177123 
L 247.365855 323.177123 
L 248.11032 322.017242 
L 249.599251 322.017242 
L 250.343716 323.177123 
L 251.832647 323.177123 
L 252.577113 322.017242 
L 257.788371 322.017242 
L 258.532837 330.136414 
L 259.277302 306.938779 
L 260.021768 317.377715 
L 260.766233 322.017242 
L 261.510698 322.017242 
L 262.255164 323.177123 
L 262.999629 322.017242 
L 264.48856 322.017242 
L 265.233026 323.177123 
L 265.977491 322.017242 
L 266.721957 323.177123 
L 267.466422 323.177123 
L 268.210888 322.017242 
L 270.444284 322.017242 
L 271.18875 323.177123 
L 271.933215 322.017242 
L 272.67768 322.017242 
L 273.422146 323.177123 
L 274.166611 335.935822 
L 274.911077 304.619015 
L 275.655542 320.85736 
L 277.144473 323.177123 
L 277.888939 322.017242 
L 281.611266 322.017242 
L 282.355732 323.177123 
L 283.100197 322.017242 
L 288.311455 322.017242 
L 289.055921 331.296295 
L 289.800386 301.13937 
L 290.544852 317.377715 
L 291.289317 322.017242 
L 292.778248 322.017242 
L 293.522714 323.177123 
L 295.011644 323.177123 
L 295.75611 322.017242 
L 297.245041 322.017242 
L 297.989506 323.177123 
L 298.733972 322.017242 
L 299.478437 323.177123 
L 300.967368 323.177123 
L 301.711834 322.017242 
L 302.456299 322.017242 
L 303.200765 323.177123 
L 303.94523 322.017242 
L 304.689696 335.935822 
L 305.434161 305.778897 
L 306.178626 320.85736 
L 306.923092 323.177123 
L 307.667557 322.017242 
L 308.412023 323.177123 
L 310.645419 323.177123 
L 311.389885 322.017242 
L 312.13435 323.177123 
L 318.834539 323.177123 
L 319.579005 332.456177 
L 320.32347 303.459134 
L 321.067936 318.537596 
L 321.812401 322.017242 
L 323.301332 322.017242 
L 324.045798 323.177123 
L 324.790263 323.177123 
L 325.534729 322.017242 
L 327.023659 322.017242 
L 327.768125 323.177123 
L 328.51259 322.017242 
L 330.745987 322.017242 
L 331.490452 323.177123 
L 332.979383 323.177123 
L 333.723849 322.017242 
L 334.468314 322.017242 
L 335.21278 337.095704 
L 335.957245 310.418424 
L 336.701711 323.177123 
L 338.190641 323.177123 
L 338.935107 322.017242 
L 344.890831 322.017242 
L 345.635296 323.177123 
L 346.379762 322.017242 
L 347.124227 323.177123 
L 347.868693 322.017242 
L 349.357623 322.017242 
L 350.102089 333.616059 
L 350.846554 302.299252 
L 351.59102 319.697478 
L 352.335485 322.017242 
L 353.079951 323.177123 
L 356.057813 323.177123 
L 356.802278 322.017242 
L 357.546744 322.017242 
L 358.291209 323.177123 
L 359.035675 322.017242 
L 360.524605 322.017242 
L 361.269071 323.177123 
L 362.758002 323.177123 
L 363.502467 322.017242 
L 364.246933 322.017242 
L 364.991398 323.177123 
L 365.735864 330.136414 
L 366.480329 312.738188 
L 367.224795 322.017242 
L 367.96926 322.017242 
L 368.713726 323.177123 
L 375.413915 323.177123 
L 376.15838 322.017242 
L 376.902846 323.177123 
L 378.391777 323.177123 
L 379.136242 322.017242 
L 379.880708 322.017242 
L 380.625173 333.616059 
L 381.369639 306.938779 
L 382.114104 319.697478 
L 382.858569 322.017242 
L 386.580897 322.017242 
L 387.325362 323.177123 
L 388.069828 322.017242 
L 394.770017 322.017242 
L 395.514482 324.337005 
L 396.258948 324.337005 
L 397.003413 315.057951 
L 397.747879 322.017242 
L 398.492344 323.177123 
L 399.23681 322.017242 
L 408.914861 322.017242 
L 409.659326 323.177123 
L 410.403792 322.017242 
L 411.148257 333.616059 
L 411.892723 308.098661 
L 412.637188 319.697478 
L 413.381654 322.017242 
L 415.61505 322.017242 
L 416.359515 323.177123 
L 417.103981 322.017242 
L 417.848446 323.177123 
L 418.592912 322.017242 
L 425.293101 322.017242 
L 426.037567 325.496887 
L 426.782032 320.85736 
L 427.526497 313.898069 
L 428.270963 322.017242 
L 429.015428 323.177123 
L 431.99329 323.177123 
L 432.737756 322.017242 
L 433.482221 323.177123 
L 435.715618 323.177123 
L 436.460083 322.017242 
L 437.949014 322.017242 
L 438.693479 323.177123 
L 439.437945 322.017242 
L 440.926876 322.017242 
L 441.671341 333.616059 
L 442.415807 305.778897 
L 443.160272 320.85736 
L 444.649203 323.177123 
L 445.393669 322.017242 
L 453.582789 322.017242 
L 454.327254 323.177123 
L 455.07172 322.017242 
L 455.816185 322.017242 
L 456.560651 327.81665 
L 457.305116 322.017242 
L 458.049582 313.898069 
L 458.794047 322.017242 
L 459.538513 323.177123 
L 460.282978 323.177123 
L 461.027443 322.017242 
L 463.26084 322.017242 
L 464.005305 323.177123 
L 464.749771 322.017242 
L 467.727633 322.017242 
L 468.472098 323.177123 
L 471.44996 323.177123 
L 472.194425 334.775941 
L 472.938891 306.938779 
L 473.683356 322.017242 
L 480.383546 322.017242 
L 481.128011 323.177123 
L 481.872476 322.017242 
L 486.339269 322.017242 
L 487.083735 327.81665 
L 487.8282 312.738188 
L 488.572666 313.898069 
L 489.317131 322.017242 
L 490.061597 323.177123 
L 490.806062 322.017242 
L 494.528389 322.017242 
L 495.272855 323.177123 
L 496.01732 323.177123 
L 496.761786 322.017242 
L 497.506251 323.177123 
L 501.973044 323.177123 
L 502.71751 333.616059 
L 503.461975 316.217833 
L 504.20644 322.017242 
L 505.695371 322.017242 
L 506.439837 323.177123 
L 507.184302 322.017242 
L 516.862353 322.017242 
L 517.606819 327.81665 
L 518.351284 318.537596 
L 519.09575 320.85736 
L 520.584681 323.177123 
L 523.562543 323.177123 
L 523.562543 323.177123 
" style="fill:none;stroke:#1f77b4;stroke-linecap:square;stroke-width:1.5;"/>
   </g>
   <g id="line2d_14">
    <path clip-path="url(#pe98532a1c4)" d="M 116.328021 273.302209 
L 117.072487 310.418424 
L 117.816952 317.377715 
L 118.561417 315.057951 
L 119.305883 238.505757 
L 120.050348 247.78481 
L 120.794814 277.941736 
L 121.539279 280.261499 
L 122.283745 250.104574 
L 123.02821 129.476873 
L 123.772676 239.665638 
L 124.517141 222.267412 
L 125.261607 200.229659 
L 126.006072 232.706348 
L 126.750538 244.305165 
L 127.495003 281.421381 
L 128.239469 236.185993 
L 128.983934 260.54351 
L 129.728399 260.54351 
L 130.472865 239.665638 
L 131.21733 49.445034 
L 131.961796 194.430251 
L 132.706261 273.302209 
L 133.450727 230.386584 
L 134.195192 224.587176 
L 134.939658 243.145283 
L 136.428589 254.744101 
L 137.173054 320.85736 
L 137.91752 312.738188 
L 138.661985 322.017242 
L 139.406451 322.017242 
L 142.384312 317.377715 
L 143.128778 317.377715 
L 143.873243 315.057951 
L 144.617709 316.217833 
L 148.340036 316.217833 
L 149.084502 315.057951 
L 149.828967 315.057951 
L 150.573433 316.217833 
L 151.317898 316.217833 
L 152.062363 333.616059 
L 152.806829 313.898069 
L 153.551294 320.85736 
L 154.29576 322.017242 
L 155.040225 322.017242 
L 155.784691 323.177123 
L 157.273622 323.177123 
L 158.018087 322.017242 
L 158.762553 322.017242 
L 159.507018 323.177123 
L 160.251484 322.017242 
L 163.229345 322.017242 
L 163.973811 323.177123 
L 164.718276 323.177123 
L 165.462742 322.017242 
L 167.696138 325.496887 
L 168.440604 316.217833 
L 169.185069 322.017242 
L 169.929535 322.017242 
L 170.674 323.177123 
L 171.418466 322.017242 
L 172.162931 323.177123 
L 172.907397 322.017242 
L 176.629724 322.017242 
L 177.374189 323.177123 
L 178.118655 322.017242 
L 181.840982 322.017242 
L 182.585448 334.775941 
L 183.329913 298.819607 
L 184.074379 318.537596 
L 184.818844 322.017242 
L 196.730291 322.017242 
L 197.474757 324.337005 
L 198.963688 306.938779 
L 199.708153 322.017242 
L 203.430481 322.017242 
L 204.174946 323.177123 
L 206.408342 323.177123 
L 207.152808 322.017242 
L 207.897273 323.177123 
L 208.641739 322.017242 
L 209.386204 322.017242 
L 210.13067 323.177123 
L 212.364066 323.177123 
L 213.108532 335.935822 
L 213.852997 295.339962 
L 214.597463 319.697478 
L 215.341928 322.017242 
L 216.086394 322.017242 
L 216.830859 323.177123 
L 217.575324 322.017242 
L 218.31979 323.177123 
L 227.253376 323.177123 
L 227.997841 325.496887 
L 228.742306 319.697478 
L 229.486772 310.418424 
L 230.231237 322.017242 
L 240.653754 322.017242 
L 241.398219 323.177123 
L 242.142685 322.017242 
L 242.88715 322.017242 
L 243.631616 334.775941 
L 244.376081 302.299252 
L 245.120547 320.85736 
L 246.609478 323.177123 
L 247.353943 323.177123 
L 248.098409 322.017242 
L 249.58734 322.017242 
L 250.331805 323.177123 
L 251.820736 323.177123 
L 252.565201 322.017242 
L 257.77646 322.017242 
L 258.520925 325.496887 
L 259.265391 311.578306 
L 260.009856 316.217833 
L 260.754322 322.017242 
L 264.476649 322.017242 
L 265.221114 323.177123 
L 268.198976 323.177123 
L 268.943442 322.017242 
L 270.432373 322.017242 
L 271.176838 323.177123 
L 271.921304 322.017242 
L 273.410234 322.017242 
L 274.1547 332.456177 
L 274.899165 302.299252 
L 275.643631 320.85736 
L 276.388096 322.017242 
L 288.299544 322.017242 
L 289.044009 326.656768 
L 289.788475 312.738188 
L 291.277406 322.017242 
L 292.766337 322.017242 
L 293.510802 323.177123 
L 294.255268 323.177123 
L 294.999733 322.017242 
L 298.72206 322.017242 
L 299.466526 323.177123 
L 300.955457 323.177123 
L 301.699922 322.017242 
L 302.444388 322.017242 
L 303.188853 323.177123 
L 303.933319 322.017242 
L 304.677784 331.296295 
L 305.42225 304.619015 
L 306.166715 320.85736 
L 306.91118 323.177123 
L 310.633508 323.177123 
L 311.377973 322.017242 
L 312.122439 323.177123 
L 318.822628 323.177123 
L 319.567093 326.656768 
L 320.311559 311.578306 
L 321.056024 316.217833 
L 321.80049 322.017242 
L 323.289421 322.017242 
L 324.033886 323.177123 
L 324.778352 323.177123 
L 325.522817 322.017242 
L 327.011748 322.017242 
L 327.756214 323.177123 
L 328.500679 322.017242 
L 330.734075 322.017242 
L 331.478541 323.177123 
L 332.967472 323.177123 
L 333.711937 322.017242 
L 334.456403 322.017242 
L 335.200868 331.296295 
L 335.945334 311.578306 
L 336.689799 322.017242 
L 344.878919 322.017242 
L 345.623385 323.177123 
L 346.36785 322.017242 
L 347.112316 323.177123 
L 347.856781 322.017242 
L 349.345712 322.017242 
L 350.090178 327.81665 
L 350.834643 306.938779 
L 351.579108 319.697478 
L 352.323574 323.177123 
L 356.045901 323.177123 
L 356.790367 322.017242 
L 357.534832 322.017242 
L 358.279298 323.177123 
L 359.023763 322.017242 
L 360.512694 322.017242 
L 361.257159 323.177123 
L 362.74609 323.177123 
L 363.490556 322.017242 
L 364.979487 322.017242 
L 365.723952 324.337005 
L 366.468418 312.738188 
L 367.212883 322.017242 
L 367.957349 322.017242 
L 368.701814 323.177123 
L 375.402003 323.177123 
L 376.146469 322.017242 
L 376.890934 323.177123 
L 378.379865 323.177123 
L 379.124331 322.017242 
L 379.868796 322.017242 
L 380.613262 330.136414 
L 381.357727 316.217833 
L 382.102193 320.85736 
L 382.846658 322.017242 
L 386.568985 322.017242 
L 387.313451 323.177123 
L 388.057916 322.017242 
L 394.758105 322.017242 
L 395.502571 323.177123 
L 396.247036 325.496887 
L 396.991502 315.057951 
L 397.735967 322.017242 
L 408.902949 322.017242 
L 409.647415 323.177123 
L 410.39188 322.017242 
L 411.136346 330.136414 
L 411.880811 315.057951 
L 412.625277 319.697478 
L 413.369742 322.017242 
L 414.114208 323.177123 
L 414.858673 322.017242 
L 415.603139 322.017242 
L 416.347604 323.177123 
L 417.092069 322.017242 
L 417.836535 323.177123 
L 418.581 323.177123 
L 419.325466 322.017242 
L 425.28119 322.017242 
L 426.025655 323.177123 
L 426.770121 326.656768 
L 427.514586 313.898069 
L 428.259051 322.017242 
L 429.003517 323.177123 
L 436.448172 323.177123 
L 437.192637 322.017242 
L 437.937103 322.017242 
L 438.681568 323.177123 
L 439.426033 322.017242 
L 440.914964 322.017242 
L 441.65943 331.296295 
L 442.403895 312.738188 
L 443.148361 320.85736 
L 444.637292 323.177123 
L 445.381757 322.017242 
L 453.570877 322.017242 
L 454.315343 323.177123 
L 455.059808 322.017242 
L 455.804274 322.017242 
L 456.548739 323.177123 
L 457.293205 326.656768 
L 458.03767 315.057951 
L 458.782136 322.017242 
L 459.526601 323.177123 
L 460.271067 323.177123 
L 461.015532 322.017242 
L 461.759997 323.177123 
L 462.504463 322.017242 
L 463.248928 322.017242 
L 463.993394 323.177123 
L 464.737859 322.017242 
L 467.715721 322.017242 
L 468.460187 323.177123 
L 471.438049 323.177123 
L 472.182514 332.456177 
L 472.926979 310.418424 
L 473.671445 322.017242 
L 474.41591 323.177123 
L 475.160376 322.017242 
L 477.393772 322.017242 
L 478.138238 323.177123 
L 478.882703 322.017242 
L 480.371634 322.017242 
L 481.1161 323.177123 
L 481.860565 322.017242 
L 486.327358 322.017242 
L 487.071823 324.337005 
L 488.560754 317.377715 
L 489.30522 322.017242 
L 490.049685 323.177123 
L 490.794151 322.017242 
L 494.516478 322.017242 
L 495.260943 323.177123 
L 496.005409 323.177123 
L 496.749874 322.017242 
L 497.49434 323.177123 
L 498.238805 323.177123 
L 498.983271 322.017242 
L 499.727736 322.017242 
L 500.472202 323.177123 
L 501.216667 322.017242 
L 501.961133 323.177123 
L 502.705598 332.456177 
L 503.450064 316.217833 
L 504.194529 322.017242 
L 504.938995 322.017242 
L 505.68346 323.177123 
L 506.427925 323.177123 
L 507.172391 322.017242 
L 516.850442 322.017242 
L 517.594907 324.337005 
L 517.594907 324.337005 
" style="fill:none;stroke:#ff7f0e;stroke-linecap:square;stroke-width:1.5;"/>
   </g>
   <g id="line2d_15">
    <path clip-path="url(#pe98532a1c4)" d="M 113.33527 319.697478 
L 114.079735 328.976532 
L 115.568666 331.296295 
L 116.313132 301.13937 
L 117.057597 308.098661 
L 117.802063 317.377715 
L 118.546528 315.057951 
L 119.290994 264.023155 
L 120.035459 252.424337 
L 120.779925 290.700435 
L 121.52439 296.499843 
L 122.268855 291.860316 
L 123.013321 201.389541 
L 123.757786 275.621972 
L 124.502252 255.903983 
L 125.246717 269.822563 
L 125.991183 226.906939 
L 126.735648 281.421381 
L 127.480114 275.621972 
L 128.224579 223.427294 
L 128.969045 257.063864 
L 129.71351 274.46209 
L 130.457976 230.386584 
L 131.202441 197.909896 
L 131.946907 224.587176 
L 132.691372 296.499843 
L 133.435837 277.941736 
L 134.180303 95.840303 
L 134.924768 105.119357 
L 135.669234 247.78481 
L 136.413699 261.703391 
L 137.158165 186.311078 
L 137.90263 318.537596 
L 138.647096 323.177123 
L 139.391561 322.017242 
L 140.136027 322.017242 
L 140.880492 319.697478 
L 141.624958 318.537596 
L 142.369423 316.217833 
L 143.113889 316.217833 
L 143.858354 315.057951 
L 148.325147 315.057951 
L 149.069612 313.898069 
L 149.814078 313.898069 
L 150.558543 315.057951 
L 151.303009 315.057951 
L 152.047474 325.496887 
L 152.79194 305.778897 
L 153.536405 319.697478 
L 154.280871 322.017242 
L 156.514267 322.017242 
L 157.258732 323.177123 
L 158.003198 323.177123 
L 158.747663 322.017242 
L 159.492129 323.177123 
L 160.236594 322.017242 
L 163.958922 322.017242 
L 164.703387 323.177123 
L 165.447853 322.017242 
L 167.681249 325.496887 
L 168.425714 316.217833 
L 169.17018 322.017242 
L 169.914645 323.177123 
L 170.659111 323.177123 
L 171.403576 322.017242 
L 172.148042 323.177123 
L 172.892507 323.177123 
L 173.636973 322.017242 
L 175.870369 322.017242 
L 176.614835 323.177123 
L 178.103765 323.177123 
L 178.848231 322.017242 
L 179.592696 322.017242 
L 180.337162 323.177123 
L 181.081627 322.017242 
L 181.826093 322.017242 
L 182.570558 333.616059 
L 183.315024 309.258542 
L 184.059489 318.537596 
L 184.803955 322.017242 
L 196.715402 322.017242 
L 197.459868 324.337005 
L 198.204333 319.697478 
L 198.948799 308.098661 
L 199.693264 322.017242 
L 200.437729 322.017242 
L 201.182195 323.177123 
L 201.92666 322.017242 
L 203.415591 322.017242 
L 204.160057 323.177123 
L 206.393453 323.177123 
L 207.137919 322.017242 
L 210.115781 322.017242 
L 210.860246 323.177123 
L 212.349177 323.177123 
L 213.093642 334.775941 
L 213.838108 296.499843 
L 214.582573 319.697478 
L 215.327039 322.017242 
L 216.071504 322.017242 
L 216.81597 323.177123 
L 217.560435 322.017242 
L 218.304901 323.177123 
L 227.238486 323.177123 
L 227.982952 325.496887 
L 228.727417 319.697478 
L 229.471883 318.537596 
L 230.216348 322.017242 
L 239.894399 322.017242 
L 240.638865 323.177123 
L 241.38333 323.177123 
L 242.127796 322.017242 
L 242.872261 322.017242 
L 243.616727 333.616059 
L 244.361192 305.778897 
L 245.105657 320.85736 
L 246.594588 323.177123 
L 247.339054 323.177123 
L 248.083519 322.017242 
L 249.57245 322.017242 
L 250.316916 323.177123 
L 251.805847 323.177123 
L 252.550312 322.017242 
L 257.017105 322.017242 
L 257.76157 323.177123 
L 258.506036 325.496887 
L 259.250501 311.578306 
L 259.994967 316.217833 
L 260.739432 322.017242 
L 261.483898 322.017242 
L 262.228363 323.177123 
L 262.972829 322.017242 
L 264.46176 322.017242 
L 265.206225 323.177123 
L 268.928552 323.177123 
L 269.673018 322.017242 
L 270.417483 322.017242 
L 271.161949 323.177123 
L 271.906414 322.017242 
L 272.65088 322.017242 
L 273.395345 323.177123 
L 274.139811 332.456177 
L 274.884276 305.778897 
L 275.628742 320.85736 
L 276.373207 323.177123 
L 277.117672 323.177123 
L 277.862138 322.017242 
L 288.284654 322.017242 
L 289.02912 325.496887 
L 289.773585 313.898069 
L 290.518051 310.418424 
L 291.262516 322.017242 
L 293.495913 322.017242 
L 294.240378 323.177123 
L 294.984844 322.017242 
L 297.21824 322.017242 
L 297.962706 323.177123 
L 298.707171 322.017242 
L 299.451636 323.177123 
L 300.940567 323.177123 
L 301.685033 322.017242 
L 303.918429 322.017242 
L 304.662895 331.296295 
L 305.40736 303.459134 
L 306.151826 319.697478 
L 306.896291 323.177123 
L 318.807739 323.177123 
L 319.552204 325.496887 
L 320.29667 315.057951 
L 321.041135 313.898069 
L 321.7856 322.017242 
L 324.018997 322.017242 
L 324.763462 323.177123 
L 325.507928 322.017242 
L 326.996859 322.017242 
L 327.741324 323.177123 
L 328.48579 322.017242 
L 330.719186 322.017242 
L 331.463652 323.177123 
L 332.208117 322.017242 
L 334.441513 322.017242 
L 335.185979 331.296295 
L 335.930444 311.578306 
L 336.67491 323.177123 
L 337.419375 322.017242 
L 346.352961 322.017242 
L 347.097426 323.177123 
L 347.841892 322.017242 
L 349.330823 322.017242 
L 350.075288 327.81665 
L 350.819754 308.098661 
L 351.564219 318.537596 
L 352.308685 322.017242 
L 353.05315 322.017242 
L 353.797616 323.177123 
L 355.286546 323.177123 
L 356.031012 322.017242 
L 357.519943 322.017242 
L 358.264408 323.177123 
L 359.008874 322.017242 
L 360.497805 322.017242 
L 361.24227 323.177123 
L 362.731201 323.177123 
L 363.475667 322.017242 
L 364.964598 322.017242 
L 365.709063 330.136414 
L 366.453528 308.098661 
L 367.197994 322.017242 
L 367.942459 322.017242 
L 368.686925 323.177123 
L 375.387114 323.177123 
L 376.13158 322.017242 
L 376.876045 323.177123 
L 377.62051 323.177123 
L 378.364976 322.017242 
L 379.853907 322.017242 
L 380.598372 327.81665 
L 381.342838 318.537596 
L 382.087303 319.697478 
L 382.831769 322.017242 
L 385.065165 322.017242 
L 385.809631 323.177123 
L 386.554096 322.017242 
L 387.298562 323.177123 
L 388.043027 322.017242 
L 394.743216 322.017242 
L 395.487682 323.177123 
L 396.232147 325.496887 
L 396.976613 315.057951 
L 397.721078 323.177123 
L 399.210009 323.177123 
L 399.954474 322.017242 
L 401.443405 322.017242 
L 402.187871 323.177123 
L 402.932336 322.017242 
L 408.88806 322.017242 
L 409.632526 323.177123 
L 410.376991 322.017242 
L 411.121456 330.136414 
L 411.865922 312.738188 
L 412.610387 319.697478 
L 413.354853 322.017242 
L 415.588249 322.017242 
L 416.332715 323.177123 
L 417.07718 322.017242 
L 417.821646 323.177123 
L 418.566111 323.177123 
L 419.310577 322.017242 
L 425.2663 322.017242 
L 426.010766 323.177123 
L 426.755231 326.656768 
L 427.499697 311.578306 
L 428.244162 322.017242 
L 428.988628 323.177123 
L 436.433282 323.177123 
L 437.177748 322.017242 
L 437.922213 322.017242 
L 438.666679 323.177123 
L 439.411144 322.017242 
L 440.900075 322.017242 
L 441.644541 330.136414 
L 442.389006 313.898069 
L 443.133471 320.85736 
L 444.622402 323.177123 
L 445.366868 322.017242 
L 453.555988 322.017242 
L 454.300453 323.177123 
L 455.044919 322.017242 
L 455.789384 322.017242 
L 456.53385 323.177123 
L 457.278315 326.656768 
L 458.022781 313.898069 
L 458.767246 322.017242 
L 459.511712 323.177123 
L 460.256177 323.177123 
L 461.000643 322.017242 
L 461.745108 323.177123 
L 462.489574 322.017242 
L 463.234039 322.017242 
L 463.978505 323.177123 
L 464.72297 322.017242 
L 467.700832 322.017242 
L 468.445297 323.177123 
L 471.423159 323.177123 
L 472.167625 332.456177 
L 472.91209 312.738188 
L 473.656556 322.017242 
L 480.356745 322.017242 
L 481.10121 323.177123 
L 481.845676 322.017242 
L 486.312469 322.017242 
L 487.056934 324.337005 
L 488.545865 317.377715 
L 489.29033 322.017242 
L 490.034796 323.177123 
L 490.779261 322.017242 
L 491.523727 323.177123 
L 492.268192 322.017242 
L 493.012658 323.177123 
L 493.757123 322.017242 
L 494.501589 322.017242 
L 495.246054 323.177123 
L 495.99052 323.177123 
L 496.734985 322.017242 
L 497.479451 323.177123 
L 501.946243 323.177123 
L 502.690709 332.456177 
L 503.435174 316.217833 
L 504.17964 322.017242 
L 504.924105 322.017242 
L 505.668571 323.177123 
L 506.413036 323.177123 
L 507.157502 322.017242 
L 514.602156 322.017242 
L 514.602156 322.017242 
" style="fill:none;stroke:#2ca02c;stroke-linecap:square;stroke-width:1.5;"/>
   </g>
   <g id="line2d_16">
    <path clip-path="url(#pe98532a1c4)" d="M 119.293971 228.066821 
L 120.038437 254.744101 
L 120.782902 276.781854 
L 121.527368 284.901026 
L 122.271833 261.703391 
L 123.016299 215.308122 
L 123.760764 281.421381 
L 124.50523 262.863273 
L 125.249695 264.023155 
L 125.994161 253.584219 
L 126.738626 281.421381 
L 127.483092 282.581262 
L 128.227557 239.665638 
L 128.972023 255.903983 
L 129.716488 277.941736 
L 130.460953 250.104574 
L 131.205419 258.223746 
L 131.949884 238.505757 
L 132.69435 269.822563 
L 133.438815 273.302209 
L 134.183281 265.183036 
L 134.927746 267.5028 
L 135.672212 259.383628 
L 136.416677 279.101617 
L 137.161143 282.581262 
L 137.905608 315.057951 
L 138.650074 323.177123 
L 139.394539 322.017242 
L 140.139005 322.017242 
L 140.88347 320.85736 
L 141.627935 318.537596 
L 142.372401 317.377715 
L 143.116866 317.377715 
L 143.861332 316.217833 
L 149.07259 316.217833 
L 149.817056 315.057951 
L 150.561521 316.217833 
L 151.305987 316.217833 
L 152.050452 333.616059 
L 152.794917 309.258542 
L 153.539383 320.85736 
L 154.283848 322.017242 
L 155.028314 322.017242 
L 155.772779 323.177123 
L 158.006176 323.177123 
L 158.750641 322.017242 
L 159.495107 323.177123 
L 160.239572 322.017242 
L 165.45083 322.017242 
L 166.195296 323.177123 
L 166.939761 327.81665 
L 167.684227 324.337005 
L 168.428692 306.938779 
L 169.173158 322.017242 
L 169.917623 323.177123 
L 170.662089 323.177123 
L 171.406554 322.017242 
L 172.15102 323.177123 
L 172.895485 322.017242 
L 173.639951 322.017242 
L 174.384416 323.177123 
L 175.128881 322.017242 
L 175.873347 322.017242 
L 176.617812 323.177123 
L 177.362278 323.177123 
L 178.106743 322.017242 
L 181.829071 322.017242 
L 182.573536 334.775941 
L 183.318002 302.299252 
L 184.062467 318.537596 
L 184.806933 322.017242 
L 195.229449 322.017242 
L 195.973915 323.177123 
L 196.71838 322.017242 
L 197.462845 328.976532 
L 198.207311 315.057951 
L 198.951776 315.057951 
L 199.696242 322.017242 
L 200.440707 322.017242 
L 201.185173 323.177123 
L 201.929638 322.017242 
L 203.418569 322.017242 
L 204.163035 323.177123 
L 206.396431 323.177123 
L 207.140897 322.017242 
L 209.374293 322.017242 
L 210.118758 323.177123 
L 212.352155 323.177123 
L 213.09662 334.775941 
L 213.841086 306.938779 
L 214.585551 319.697478 
L 215.330017 323.177123 
L 216.074482 322.017242 
L 216.818948 323.177123 
L 217.563413 322.017242 
L 218.307879 323.177123 
L 227.241464 323.177123 
L 227.98593 328.976532 
L 228.730395 312.738188 
L 229.474861 316.217833 
L 230.219326 322.017242 
L 230.963791 322.017242 
L 231.708257 323.177123 
L 233.197188 323.177123 
L 233.941653 322.017242 
L 234.686119 323.177123 
L 235.430584 322.017242 
L 236.17505 322.017242 
L 236.919515 323.177123 
L 237.663981 322.017242 
L 238.408446 323.177123 
L 239.152912 322.017242 
L 239.897377 323.177123 
L 241.386308 323.177123 
L 242.130773 322.017242 
L 242.875239 323.177123 
L 243.619704 333.616059 
L 244.36417 310.418424 
L 245.108635 322.017242 
L 245.853101 322.017242 
L 246.597566 323.177123 
L 247.342032 323.177123 
L 248.086497 322.017242 
L 249.575428 322.017242 
L 250.319894 323.177123 
L 251.808824 323.177123 
L 252.55329 322.017242 
L 257.764548 322.017242 
L 258.509014 330.136414 
L 259.253479 309.258542 
L 259.997945 308.098661 
L 260.74241 322.017242 
L 264.464737 322.017242 
L 265.209203 323.177123 
L 265.953668 322.017242 
L 266.698134 323.177123 
L 267.442599 323.177123 
L 268.187065 322.017242 
L 270.420461 322.017242 
L 271.164927 323.177123 
L 271.909392 322.017242 
L 273.398323 322.017242 
L 274.142788 332.456177 
L 274.887254 303.459134 
L 275.631719 320.85736 
L 276.376185 322.017242 
L 288.287632 322.017242 
L 289.032098 328.976532 
L 289.776563 310.418424 
L 290.521029 317.377715 
L 291.265494 322.017242 
L 292.754425 322.017242 
L 293.498891 323.177123 
L 294.987822 323.177123 
L 295.732287 322.017242 
L 297.221218 322.017242 
L 297.965683 323.177123 
L 298.710149 322.017242 
L 299.454614 323.177123 
L 300.943545 323.177123 
L 301.688011 322.017242 
L 303.921407 322.017242 
L 304.665873 332.456177 
L 305.410338 303.459134 
L 306.154804 320.85736 
L 306.899269 323.177123 
L 318.810716 323.177123 
L 319.555182 328.976532 
L 320.299647 305.778897 
L 321.044113 316.217833 
L 321.788578 322.017242 
L 324.021975 322.017242 
L 324.76644 323.177123 
L 325.510906 322.017242 
L 326.999837 322.017242 
L 327.744302 323.177123 
L 328.488768 322.017242 
L 330.722164 322.017242 
L 331.466629 323.177123 
L 332.95556 323.177123 
L 333.700026 322.017242 
L 334.444491 322.017242 
L 335.188957 331.296295 
L 335.933422 316.217833 
L 336.677888 323.177123 
L 338.166819 323.177123 
L 338.911284 322.017242 
L 346.355939 322.017242 
L 347.100404 323.177123 
L 347.84487 322.017242 
L 349.333801 322.017242 
L 350.078266 328.976532 
L 350.822732 311.578306 
L 351.567197 319.697478 
L 352.311662 323.177123 
L 355.289524 323.177123 
L 356.03399 322.017242 
L 357.522921 322.017242 
L 358.267386 323.177123 
L 359.011852 322.017242 
L 360.500783 322.017242 
L 361.245248 323.177123 
L 361.989714 322.017242 
L 362.734179 323.177123 
L 363.478644 322.017242 
L 364.967575 322.017242 
L 365.712041 330.136414 
L 366.456506 309.258542 
L 367.200972 322.017242 
L 367.945437 323.177123 
L 373.156696 323.177123 
L 373.901161 322.017242 
L 374.645626 323.177123 
L 375.390092 323.177123 
L 376.134557 322.017242 
L 376.879023 323.177123 
L 377.623488 322.017242 
L 379.856885 322.017242 
L 380.60135 327.81665 
L 381.345816 318.537596 
L 382.090281 319.697478 
L 382.834747 322.017242 
L 386.557074 322.017242 
L 387.301539 323.177123 
L 388.046005 322.017242 
L 394.746194 322.017242 
L 395.49066 324.337005 
L 396.235125 324.337005 
L 396.97959 315.057951 
L 397.724056 323.177123 
L 399.212987 323.177123 
L 399.957452 322.017242 
L 401.446383 322.017242 
L 402.190849 323.177123 
L 402.935314 322.017242 
L 403.67978 323.177123 
L 404.424245 322.017242 
L 408.146572 322.017242 
L 408.891038 323.177123 
L 410.379969 323.177123 
L 411.124434 328.976532 
L 411.8689 310.418424 
L 412.613365 319.697478 
L 413.357831 322.017242 
L 414.102296 323.177123 
L 414.846762 323.177123 
L 415.591227 322.017242 
L 416.335693 323.177123 
L 417.080158 322.017242 
L 417.824623 323.177123 
L 418.569089 323.177123 
L 419.313554 322.017242 
L 425.269278 322.017242 
L 426.013744 324.337005 
L 426.758209 325.496887 
L 427.502675 313.898069 
L 428.24714 322.017242 
L 428.991605 323.177123 
L 436.43626 323.177123 
L 437.180726 322.017242 
L 437.925191 322.017242 
L 438.669657 323.177123 
L 439.414122 322.017242 
L 440.903053 322.017242 
L 441.647518 330.136414 
L 442.391984 313.898069 
L 443.136449 320.85736 
L 444.62538 323.177123 
L 445.369846 322.017242 
L 452.070035 322.017242 
L 452.8145 323.177123 
L 454.303431 323.177123 
L 455.047897 322.017242 
L 455.792362 322.017242 
L 456.536828 323.177123 
L 457.281293 326.656768 
L 458.025759 308.098661 
L 458.770224 322.017242 
L 459.51469 323.177123 
L 460.259155 323.177123 
L 461.003621 322.017242 
L 461.748086 323.177123 
L 462.492551 322.017242 
L 463.237017 322.017242 
L 463.981482 323.177123 
L 464.725948 322.017242 
L 467.70381 322.017242 
L 468.448275 323.177123 
L 471.426137 323.177123 
L 472.170603 331.296295 
L 472.915068 312.738188 
L 473.659533 322.017242 
L 486.315446 322.017242 
L 487.059912 323.177123 
L 487.804377 320.85736 
L 488.548843 317.377715 
L 489.293308 322.017242 
L 490.037774 323.177123 
L 490.782239 322.017242 
L 491.526705 323.177123 
L 492.27117 322.017242 
L 493.015636 323.177123 
L 493.760101 322.017242 
L 494.504567 322.017242 
L 495.249032 323.177123 
L 495.993497 323.177123 
L 496.737963 322.017242 
L 497.482428 323.177123 
L 501.949221 323.177123 
L 502.693687 331.296295 
L 503.438152 316.217833 
L 504.182618 322.017242 
L 504.927083 323.177123 
L 506.416014 323.177123 
L 507.160479 322.017242 
L 516.838531 322.017242 
L 517.582996 324.337005 
L 518.327461 324.337005 
L 519.071927 319.697478 
L 519.816392 323.177123 
L 520.560858 323.177123 
L 520.560858 323.177123 
" style="fill:none;stroke:#d62728;stroke-linecap:square;stroke-width:1.5;"/>
   </g>
   <g id="patch_3">
    <path d="M 92.823906 352.174167 
L 92.823906 35.0625 
" style="fill:none;stroke:#000000;stroke-linecap:square;stroke-linejoin:miter;stroke-width:0.8;"/>
   </g>
   <g id="patch_4">
    <path d="M 544.073906 352.174167 
L 544.073906 35.0625 
" style="fill:none;stroke:#000000;stroke-linecap:square;stroke-linejoin:miter;stroke-width:0.8;"/>
   </g>
   <g id="patch_5">
    <path d="M 92.823906 352.174167 
L 544.073906 352.174167 
" style="fill:none;stroke:#000000;stroke-linecap:square;stroke-linejoin:miter;stroke-width:0.8;"/>
   </g>
   <g id="patch_6">
    <path d="M 92.823906 35.0625 
L 544.073906 35.0625 
" style="fill:none;stroke:#000000;stroke-linecap:square;stroke-linejoin:miter;stroke-width:0.8;"/>
   </g>
   <g id="legend_1">
    <g id="patch_7">
     <path d="M 568.636406 96.775 
L 630.169219 96.775 
Q 632.169219 96.775 632.169219 94.775 
L 632.169219 37.0625 
Q 632.169219 35.0625 630.169219 35.0625 
L 568.636406 35.0625 
Q 566.636406 35.0625 566.636406 37.0625 
L 566.636406 94.775 
Q 566.636406 96.775 568.636406 96.775 
z
" style="fill:#ffffff;opacity:0.8;stroke:#cccccc;stroke-linejoin:miter;"/>
    </g>
    <g id="line2d_17">
     <path d="M 570.636406 43.160937 
L 590.636406 43.160937 
" style="fill:none;stroke:#1f77b4;stroke-linecap:square;stroke-width:1.5;"/>
    </g>
    <g id="line2d_18"/>
    <g id="text_14">
     <!-- bbr-pi -->
     <defs>
      <path d="M 48.6875 27.296875 
Q 48.6875 37.203125 44.609375 42.84375 
Q 40.53125 48.484375 33.40625 48.484375 
Q 26.265625 48.484375 22.1875 42.84375 
Q 18.109375 37.203125 18.109375 27.296875 
Q 18.109375 17.390625 22.1875 11.75 
Q 26.265625 6.109375 33.40625 6.109375 
Q 40.53125 6.109375 44.609375 11.75 
Q 48.6875 17.390625 48.6875 27.296875 
z
M 18.109375 46.390625 
Q 20.953125 51.265625 25.265625 53.625 
Q 29.59375 56 35.59375 56 
Q 45.5625 56 51.78125 48.09375 
Q 58.015625 40.1875 58.015625 27.296875 
Q 58.015625 14.40625 51.78125 6.484375 
Q 45.5625 -1.421875 35.59375 -1.421875 
Q 29.59375 -1.421875 25.265625 0.953125 
Q 20.953125 3.328125 18.109375 8.203125 
L 18.109375 0 
L 9.078125 0 
L 9.078125 75.984375 
L 18.109375 75.984375 
z
" id="DejaVuSans-98"/>
      <path d="M 4.890625 31.390625 
L 31.203125 31.390625 
L 31.203125 23.390625 
L 4.890625 23.390625 
z
" id="DejaVuSans-45"/>
      <path d="M 18.109375 8.203125 
L 18.109375 -20.796875 
L 9.078125 -20.796875 
L 9.078125 54.6875 
L 18.109375 54.6875 
L 18.109375 46.390625 
Q 20.953125 51.265625 25.265625 53.625 
Q 29.59375 56 35.59375 56 
Q 45.5625 56 51.78125 48.09375 
Q 58.015625 40.1875 58.015625 27.296875 
Q 58.015625 14.40625 51.78125 6.484375 
Q 45.5625 -1.421875 35.59375 -1.421875 
Q 29.59375 -1.421875 25.265625 0.953125 
Q 20.953125 3.328125 18.109375 8.203125 
z
M 48.6875 27.296875 
Q 48.6875 37.203125 44.609375 42.84375 
Q 40.53125 48.484375 33.40625 48.484375 
Q 26.265625 48.484375 22.1875 42.84375 
Q 18.109375 37.203125 18.109375 27.296875 
Q 18.109375 17.390625 22.1875 11.75 
Q 26.265625 6.109375 33.40625 6.109375 
Q 40.53125 6.109375 44.609375 11.75 
Q 48.6875 17.390625 48.6875 27.296875 
z
" id="DejaVuSans-112"/>
      <path d="M 9.421875 54.6875 
L 18.40625 54.6875 
L 18.40625 0 
L 9.421875 0 
z
M 9.421875 75.984375 
L 18.40625 75.984375 
L 18.40625 64.59375 
L 9.421875 64.59375 
z
" id="DejaVuSans-105"/>
     </defs>
     <g transform="translate(598.636406 46.660937)scale(0.1 -0.1)">
      <use xlink:href="#DejaVuSans-98"/>
      <use x="63.476562" xlink:href="#DejaVuSans-98"/>
      <use x="126.953125" xlink:href="#DejaVuSans-114"/>
      <use x="167.972656" xlink:href="#DejaVuSans-45"/>
      <use x="204.056641" xlink:href="#DejaVuSans-112"/>
      <use x="267.533203" xlink:href="#DejaVuSans-105"/>
     </g>
    </g>
    <g id="line2d_19">
     <path d="M 570.636406 57.839063 
L 590.636406 57.839063 
" style="fill:none;stroke:#ff7f0e;stroke-linecap:square;stroke-width:1.5;"/>
    </g>
    <g id="line2d_20"/>
    <g id="text_15">
     <!-- bbr-pi -->
     <g transform="translate(598.636406 61.339063)scale(0.1 -0.1)">
      <use xlink:href="#DejaVuSans-98"/>
      <use x="63.476562" xlink:href="#DejaVuSans-98"/>
      <use x="126.953125" xlink:href="#DejaVuSans-114"/>
      <use x="167.972656" xlink:href="#DejaVuSans-45"/>
      <use x="204.056641" xlink:href="#DejaVuSans-112"/>
      <use x="267.533203" xlink:href="#DejaVuSans-105"/>
     </g>
    </g>
    <g id="line2d_21">
     <path d="M 570.636406 72.517187 
L 590.636406 72.517187 
" style="fill:none;stroke:#2ca02c;stroke-linecap:square;stroke-width:1.5;"/>
    </g>
    <g id="line2d_22"/>
    <g id="text_16">
     <!-- bbr-pi -->
     <g transform="translate(598.636406 76.017187)scale(0.1 -0.1)">
      <use xlink:href="#DejaVuSans-98"/>
      <use x="63.476562" xlink:href="#DejaVuSans-98"/>
      <use x="126.953125" xlink:href="#DejaVuSans-114"/>
      <use x="167.972656" xlink:href="#DejaVuSans-45"/>
      <use x="204.056641" xlink:href="#DejaVuSans-112"/>
      <use x="267.533203" xlink:href="#DejaVuSans-105"/>
     </g>
    </g>
    <g id="line2d_23">
     <path d="M 570.636406 87.195312 
L 590.636406 87.195312 
" style="fill:none;stroke:#d62728;stroke-linecap:square;stroke-width:1.5;"/>
    </g>
    <g id="line2d_24"/>
    <g id="text_17">
     <!-- bbr-pi -->
     <g transform="translate(598.636406 90.695312)scale(0.1 -0.1)">
      <use xlink:href="#DejaVuSans-98"/>
      <use x="63.476562" xlink:href="#DejaVuSans-98"/>
      <use x="126.953125" xlink:href="#DejaVuSans-114"/>
      <use x="167.972656" xlink:href="#DejaVuSans-45"/>
      <use x="204.056641" xlink:href="#DejaVuSans-112"/>
      <use x="267.533203" xlink:href="#DejaVuSans-105"/>
     </g>
    </g>
   </g>
  </g>
  <g id="text_18">
   <!-- result rtt -->
   <defs>
    <path d="M 56.203125 29.59375 
L 56.203125 25.203125 
L 14.890625 25.203125 
Q 15.484375 15.921875 20.484375 11.0625 
Q 25.484375 6.203125 34.421875 6.203125 
Q 39.59375 6.203125 44.453125 7.46875 
Q 49.3125 8.734375 54.109375 11.28125 
L 54.109375 2.78125 
Q 49.265625 0.734375 44.1875 -0.34375 
Q 39.109375 -1.421875 33.890625 -1.421875 
Q 20.796875 -1.421875 13.15625 6.1875 
Q 5.515625 13.8125 5.515625 26.8125 
Q 5.515625 40.234375 12.765625 48.109375 
Q 20.015625 56 32.328125 56 
Q 43.359375 56 49.78125 48.890625 
Q 56.203125 41.796875 56.203125 29.59375 
z
M 47.21875 32.234375 
Q 47.125 39.59375 43.09375 43.984375 
Q 39.0625 48.390625 32.421875 48.390625 
Q 24.90625 48.390625 20.390625 44.140625 
Q 15.875 39.890625 15.1875 32.171875 
z
" id="DejaVuSans-101"/>
    <path d="M 8.5 21.578125 
L 8.5 54.6875 
L 17.484375 54.6875 
L 17.484375 21.921875 
Q 17.484375 14.15625 20.5 10.265625 
Q 23.53125 6.390625 29.59375 6.390625 
Q 36.859375 6.390625 41.078125 11.03125 
Q 45.3125 15.671875 45.3125 23.6875 
L 45.3125 54.6875 
L 54.296875 54.6875 
L 54.296875 0 
L 45.3125 0 
L 45.3125 8.40625 
Q 42.046875 3.421875 37.71875 1 
Q 33.40625 -1.421875 27.6875 -1.421875 
Q 18.265625 -1.421875 13.375 4.4375 
Q 8.5 10.296875 8.5 21.578125 
z
M 31.109375 56 
z
" id="DejaVuSans-117"/>
    <path d="M 9.421875 75.984375 
L 18.40625 75.984375 
L 18.40625 0 
L 9.421875 0 
z
" id="DejaVuSans-108"/>
    <path id="DejaVuSans-32"/>
   </defs>
   <g transform="translate(315.818438 17.038125)scale(0.12 -0.12)">
    <use xlink:href="#DejaVuSans-114"/>
    <use x="41.082031" xlink:href="#DejaVuSans-101"/>
    <use x="102.605469" xlink:href="#DejaVuSans-115"/>
    <use x="154.705078" xlink:href="#DejaVuSans-117"/>
    <use x="218.083984" xlink:href="#DejaVuSans-108"/>
    <use x="245.867188" xlink:href="#DejaVuSans-116"/>
    <use x="285.076172" xlink:href="#DejaVuSans-32"/>
    <use x="316.863281" xlink:href="#DejaVuSans-114"/>
    <use x="357.976562" xlink:href="#DejaVuSans-116"/>
    <use x="397.185547" xlink:href="#DejaVuSans-116"/>
   </g>
  </g>
 </g>
 <defs>
  <clipPath id="pe98532a1c4">
   <rect height="317.111667" width="451.25" x="92.823906" y="35.0625"/>
  </clipPath>
 </defs>
</svg>
