<?xml version="1.0" encoding="utf-8" standalone="no"?>
<!DOCTYPE svg PUBLIC "-//W3C//DTD SVG 1.1//EN"
  "http://www.w3.org/Graphics/SVG/1.1/DTD/svg11.dtd">
<!-- Created with matplotlib (https://matplotlib.org/) -->
<svg height="396pt" version="1.1" viewBox="0 0 684 396" width="684pt" xmlns="http://www.w3.org/2000/svg" xmlns:xlink="http://www.w3.org/1999/xlink">
 <defs>
  <style type="text/css">
*{stroke-linecap:butt;stroke-linejoin:round;}
  </style>
 </defs>
 <g id="figure_1">
  <g id="patch_1">
   <path d="M 0 396 
L 684 396 
L 684 0 
L 0 0 
z
" style="fill:#ffffff;"/>
  </g>
  <g id="axes_1">
   <g id="patch_2">
    <path d="M 66.158594 352.174167 
L 516.019219 352.174167 
L 516.019219 35.0625 
L 66.158594 35.0625 
z
" style="fill:#ffffff;"/>
   </g>
   <g id="matplotlib.axis_1">
    <g id="xtick_1">
     <g id="line2d_1">
      <defs>
       <path d="M 0 0 
L 0 3.5 
" id="m42bfbc1e00" style="stroke:#000000;stroke-width:0.8;"/>
      </defs>
      <g>
       <use style="stroke:#000000;stroke-width:0.8;" x="91.826015" xlink:href="#m42bfbc1e00" y="352.174167"/>
      </g>
     </g>
     <g id="text_1">
      <!-- 0 -->
      <defs>
       <path d="M 31.78125 66.40625 
Q 24.171875 66.40625 20.328125 58.90625 
Q 16.5 51.421875 16.5 36.375 
Q 16.5 21.390625 20.328125 13.890625 
Q 24.171875 6.390625 31.78125 6.390625 
Q 39.453125 6.390625 43.28125 13.890625 
Q 47.125 21.390625 47.125 36.375 
Q 47.125 51.421875 43.28125 58.90625 
Q 39.453125 66.40625 31.78125 66.40625 
z
M 31.78125 74.21875 
Q 44.046875 74.21875 50.515625 64.515625 
Q 56.984375 54.828125 56.984375 36.375 
Q 56.984375 17.96875 50.515625 8.265625 
Q 44.046875 -1.421875 31.78125 -1.421875 
Q 19.53125 -1.421875 13.0625 8.265625 
Q 6.59375 17.96875 6.59375 36.375 
Q 6.59375 54.828125 13.0625 64.515625 
Q 19.53125 74.21875 31.78125 74.21875 
z
" id="DejaVuSans-48"/>
      </defs>
      <g transform="translate(88.644765 366.772604)scale(0.1 -0.1)">
       <use xlink:href="#DejaVuSans-48"/>
      </g>
     </g>
    </g>
    <g id="xtick_2">
     <g id="line2d_2">
      <g>
       <use style="stroke:#000000;stroke-width:0.8;" x="163.171597" xlink:href="#m42bfbc1e00" y="352.174167"/>
      </g>
     </g>
     <g id="text_2">
      <!-- 50 -->
      <defs>
       <path d="M 10.796875 72.90625 
L 49.515625 72.90625 
L 49.515625 64.59375 
L 19.828125 64.59375 
L 19.828125 46.734375 
Q 21.96875 47.46875 24.109375 47.828125 
Q 26.265625 48.1875 28.421875 48.1875 
Q 40.625 48.1875 47.75 41.5 
Q 54.890625 34.8125 54.890625 23.390625 
Q 54.890625 11.625 47.5625 5.09375 
Q 40.234375 -1.421875 26.90625 -1.421875 
Q 22.3125 -1.421875 17.546875 -0.640625 
Q 12.796875 0.140625 7.71875 1.703125 
L 7.71875 11.625 
Q 12.109375 9.234375 16.796875 8.0625 
Q 21.484375 6.890625 26.703125 6.890625 
Q 35.15625 6.890625 40.078125 11.328125 
Q 45.015625 15.765625 45.015625 23.390625 
Q 45.015625 31 40.078125 35.4375 
Q 35.15625 39.890625 26.703125 39.890625 
Q 22.75 39.890625 18.8125 39.015625 
Q 14.890625 38.140625 10.796875 36.28125 
z
" id="DejaVuSans-53"/>
      </defs>
      <g transform="translate(156.809097 366.772604)scale(0.1 -0.1)">
       <use xlink:href="#DejaVuSans-53"/>
       <use x="63.623047" xlink:href="#DejaVuSans-48"/>
      </g>
     </g>
    </g>
    <g id="xtick_3">
     <g id="line2d_3">
      <g>
       <use style="stroke:#000000;stroke-width:0.8;" x="234.517179" xlink:href="#m42bfbc1e00" y="352.174167"/>
      </g>
     </g>
     <g id="text_3">
      <!-- 100 -->
      <defs>
       <path d="M 12.40625 8.296875 
L 28.515625 8.296875 
L 28.515625 63.921875 
L 10.984375 60.40625 
L 10.984375 69.390625 
L 28.421875 72.90625 
L 38.28125 72.90625 
L 38.28125 8.296875 
L 54.390625 8.296875 
L 54.390625 0 
L 12.40625 0 
z
" id="DejaVuSans-49"/>
      </defs>
      <g transform="translate(224.973429 366.772604)scale(0.1 -0.1)">
       <use xlink:href="#DejaVuSans-49"/>
       <use x="63.623047" xlink:href="#DejaVuSans-48"/>
       <use x="127.246094" xlink:href="#DejaVuSans-48"/>
      </g>
     </g>
    </g>
    <g id="xtick_4">
     <g id="line2d_4">
      <g>
       <use style="stroke:#000000;stroke-width:0.8;" x="305.862762" xlink:href="#m42bfbc1e00" y="352.174167"/>
      </g>
     </g>
     <g id="text_4">
      <!-- 150 -->
      <g transform="translate(296.319012 366.772604)scale(0.1 -0.1)">
       <use xlink:href="#DejaVuSans-49"/>
       <use x="63.623047" xlink:href="#DejaVuSans-53"/>
       <use x="127.246094" xlink:href="#DejaVuSans-48"/>
      </g>
     </g>
    </g>
    <g id="xtick_5">
     <g id="line2d_5">
      <g>
       <use style="stroke:#000000;stroke-width:0.8;" x="377.208344" xlink:href="#m42bfbc1e00" y="352.174167"/>
      </g>
     </g>
     <g id="text_5">
      <!-- 200 -->
      <defs>
       <path d="M 19.1875 8.296875 
L 53.609375 8.296875 
L 53.609375 0 
L 7.328125 0 
L 7.328125 8.296875 
Q 12.9375 14.109375 22.625 23.890625 
Q 32.328125 33.6875 34.8125 36.53125 
Q 39.546875 41.84375 41.421875 45.53125 
Q 43.3125 49.21875 43.3125 52.78125 
Q 43.3125 58.59375 39.234375 62.25 
Q 35.15625 65.921875 28.609375 65.921875 
Q 23.96875 65.921875 18.8125 64.3125 
Q 13.671875 62.703125 7.8125 59.421875 
L 7.8125 69.390625 
Q 13.765625 71.78125 18.9375 73 
Q 24.125 74.21875 28.421875 74.21875 
Q 39.75 74.21875 46.484375 68.546875 
Q 53.21875 62.890625 53.21875 53.421875 
Q 53.21875 48.921875 51.53125 44.890625 
Q 49.859375 40.875 45.40625 35.40625 
Q 44.1875 33.984375 37.640625 27.21875 
Q 31.109375 20.453125 19.1875 8.296875 
z
" id="DejaVuSans-50"/>
      </defs>
      <g transform="translate(367.664594 366.772604)scale(0.1 -0.1)">
       <use xlink:href="#DejaVuSans-50"/>
       <use x="63.623047" xlink:href="#DejaVuSans-48"/>
       <use x="127.246094" xlink:href="#DejaVuSans-48"/>
      </g>
     </g>
    </g>
    <g id="xtick_6">
     <g id="line2d_6">
      <g>
       <use style="stroke:#000000;stroke-width:0.8;" x="448.553926" xlink:href="#m42bfbc1e00" y="352.174167"/>
      </g>
     </g>
     <g id="text_6">
      <!-- 250 -->
      <g transform="translate(439.010176 366.772604)scale(0.1 -0.1)">
       <use xlink:href="#DejaVuSans-50"/>
       <use x="63.623047" xlink:href="#DejaVuSans-53"/>
       <use x="127.246094" xlink:href="#DejaVuSans-48"/>
      </g>
     </g>
    </g>
   </g>
   <g id="matplotlib.axis_2">
    <g id="ytick_1">
     <g id="line2d_7">
      <defs>
       <path d="M 0 0 
L -3.5 0 
" id="m9171308986" style="stroke:#000000;stroke-width:0.8;"/>
      </defs>
      <g>
       <use style="stroke:#000000;stroke-width:0.8;" x="66.158594" xlink:href="#m9171308986" y="352.174167"/>
      </g>
     </g>
     <g id="text_7">
      <!-- 0 -->
      <g transform="translate(52.796094 355.973385)scale(0.1 -0.1)">
       <use xlink:href="#DejaVuSans-48"/>
      </g>
     </g>
    </g>
    <g id="ytick_2">
     <g id="line2d_8">
      <g>
       <use style="stroke:#000000;stroke-width:0.8;" x="66.158594" xlink:href="#m9171308986" y="316.537881"/>
      </g>
     </g>
     <g id="text_8">
      <!-- 10 -->
      <g transform="translate(46.433594 320.3371)scale(0.1 -0.1)">
       <use xlink:href="#DejaVuSans-49"/>
       <use x="63.623047" xlink:href="#DejaVuSans-48"/>
      </g>
     </g>
    </g>
    <g id="ytick_3">
     <g id="line2d_9">
      <g>
       <use style="stroke:#000000;stroke-width:0.8;" x="66.158594" xlink:href="#m9171308986" y="280.901595"/>
      </g>
     </g>
     <g id="text_9">
      <!-- 20 -->
      <g transform="translate(46.433594 284.700814)scale(0.1 -0.1)">
       <use xlink:href="#DejaVuSans-50"/>
       <use x="63.623047" xlink:href="#DejaVuSans-48"/>
      </g>
     </g>
    </g>
    <g id="ytick_4">
     <g id="line2d_10">
      <g>
       <use style="stroke:#000000;stroke-width:0.8;" x="66.158594" xlink:href="#m9171308986" y="245.26531"/>
      </g>
     </g>
     <g id="text_10">
      <!-- 30 -->
      <defs>
       <path d="M 40.578125 39.3125 
Q 47.65625 37.796875 51.625 33 
Q 55.609375 28.21875 55.609375 21.1875 
Q 55.609375 10.40625 48.1875 4.484375 
Q 40.765625 -1.421875 27.09375 -1.421875 
Q 22.515625 -1.421875 17.65625 -0.515625 
Q 12.796875 0.390625 7.625 2.203125 
L 7.625 11.71875 
Q 11.71875 9.328125 16.59375 8.109375 
Q 21.484375 6.890625 26.8125 6.890625 
Q 36.078125 6.890625 40.9375 10.546875 
Q 45.796875 14.203125 45.796875 21.1875 
Q 45.796875 27.640625 41.28125 31.265625 
Q 36.765625 34.90625 28.71875 34.90625 
L 20.21875 34.90625 
L 20.21875 43.015625 
L 29.109375 43.015625 
Q 36.375 43.015625 40.234375 45.921875 
Q 44.09375 48.828125 44.09375 54.296875 
Q 44.09375 59.90625 40.109375 62.90625 
Q 36.140625 65.921875 28.71875 65.921875 
Q 24.65625 65.921875 20.015625 65.03125 
Q 15.375 64.15625 9.8125 62.3125 
L 9.8125 71.09375 
Q 15.4375 72.65625 20.34375 73.4375 
Q 25.25 74.21875 29.59375 74.21875 
Q 40.828125 74.21875 47.359375 69.109375 
Q 53.90625 64.015625 53.90625 55.328125 
Q 53.90625 49.265625 50.4375 45.09375 
Q 46.96875 40.921875 40.578125 39.3125 
z
" id="DejaVuSans-51"/>
      </defs>
      <g transform="translate(46.433594 249.064529)scale(0.1 -0.1)">
       <use xlink:href="#DejaVuSans-51"/>
       <use x="63.623047" xlink:href="#DejaVuSans-48"/>
      </g>
     </g>
    </g>
    <g id="ytick_5">
     <g id="line2d_11">
      <g>
       <use style="stroke:#000000;stroke-width:0.8;" x="66.158594" xlink:href="#m9171308986" y="209.629024"/>
      </g>
     </g>
     <g id="text_11">
      <!-- 40 -->
      <defs>
       <path d="M 37.796875 64.3125 
L 12.890625 25.390625 
L 37.796875 25.390625 
z
M 35.203125 72.90625 
L 47.609375 72.90625 
L 47.609375 25.390625 
L 58.015625 25.390625 
L 58.015625 17.1875 
L 47.609375 17.1875 
L 47.609375 0 
L 37.796875 0 
L 37.796875 17.1875 
L 4.890625 17.1875 
L 4.890625 26.703125 
z
" id="DejaVuSans-52"/>
      </defs>
      <g transform="translate(46.433594 213.428243)scale(0.1 -0.1)">
       <use xlink:href="#DejaVuSans-52"/>
       <use x="63.623047" xlink:href="#DejaVuSans-48"/>
      </g>
     </g>
    </g>
    <g id="ytick_6">
     <g id="line2d_12">
      <g>
       <use style="stroke:#000000;stroke-width:0.8;" x="66.158594" xlink:href="#m9171308986" y="173.992739"/>
      </g>
     </g>
     <g id="text_12">
      <!-- 50 -->
      <g transform="translate(46.433594 177.791957)scale(0.1 -0.1)">
       <use xlink:href="#DejaVuSans-53"/>
       <use x="63.623047" xlink:href="#DejaVuSans-48"/>
      </g>
     </g>
    </g>
    <g id="ytick_7">
     <g id="line2d_13">
      <g>
       <use style="stroke:#000000;stroke-width:0.8;" x="66.158594" xlink:href="#m9171308986" y="138.356453"/>
      </g>
     </g>
     <g id="text_13">
      <!-- 60 -->
      <defs>
       <path d="M 33.015625 40.375 
Q 26.375 40.375 22.484375 35.828125 
Q 18.609375 31.296875 18.609375 23.390625 
Q 18.609375 15.53125 22.484375 10.953125 
Q 26.375 6.390625 33.015625 6.390625 
Q 39.65625 6.390625 43.53125 10.953125 
Q 47.40625 15.53125 47.40625 23.390625 
Q 47.40625 31.296875 43.53125 35.828125 
Q 39.65625 40.375 33.015625 40.375 
z
M 52.59375 71.296875 
L 52.59375 62.3125 
Q 48.875 64.0625 45.09375 64.984375 
Q 41.3125 65.921875 37.59375 65.921875 
Q 27.828125 65.921875 22.671875 59.328125 
Q 17.53125 52.734375 16.796875 39.40625 
Q 19.671875 43.65625 24.015625 45.921875 
Q 28.375 48.1875 33.59375 48.1875 
Q 44.578125 48.1875 50.953125 41.515625 
Q 57.328125 34.859375 57.328125 23.390625 
Q 57.328125 12.15625 50.6875 5.359375 
Q 44.046875 -1.421875 33.015625 -1.421875 
Q 20.359375 -1.421875 13.671875 8.265625 
Q 6.984375 17.96875 6.984375 36.375 
Q 6.984375 53.65625 15.1875 63.9375 
Q 23.390625 74.21875 37.203125 74.21875 
Q 40.921875 74.21875 44.703125 73.484375 
Q 48.484375 72.75 52.59375 71.296875 
z
" id="DejaVuSans-54"/>
      </defs>
      <g transform="translate(46.433594 142.155672)scale(0.1 -0.1)">
       <use xlink:href="#DejaVuSans-54"/>
       <use x="63.623047" xlink:href="#DejaVuSans-48"/>
      </g>
     </g>
    </g>
    <g id="ytick_8">
     <g id="line2d_14">
      <g>
       <use style="stroke:#000000;stroke-width:0.8;" x="66.158594" xlink:href="#m9171308986" y="102.720167"/>
      </g>
     </g>
     <g id="text_14">
      <!-- 70 -->
      <defs>
       <path d="M 8.203125 72.90625 
L 55.078125 72.90625 
L 55.078125 68.703125 
L 28.609375 0 
L 18.3125 0 
L 43.21875 64.59375 
L 8.203125 64.59375 
z
" id="DejaVuSans-55"/>
      </defs>
      <g transform="translate(46.433594 106.519386)scale(0.1 -0.1)">
       <use xlink:href="#DejaVuSans-55"/>
       <use x="63.623047" xlink:href="#DejaVuSans-48"/>
      </g>
     </g>
    </g>
    <g id="ytick_9">
     <g id="line2d_15">
      <g>
       <use style="stroke:#000000;stroke-width:0.8;" x="66.158594" xlink:href="#m9171308986" y="67.083882"/>
      </g>
     </g>
     <g id="text_15">
      <!-- 80 -->
      <defs>
       <path d="M 31.78125 34.625 
Q 24.75 34.625 20.71875 30.859375 
Q 16.703125 27.09375 16.703125 20.515625 
Q 16.703125 13.921875 20.71875 10.15625 
Q 24.75 6.390625 31.78125 6.390625 
Q 38.8125 6.390625 42.859375 10.171875 
Q 46.921875 13.96875 46.921875 20.515625 
Q 46.921875 27.09375 42.890625 30.859375 
Q 38.875 34.625 31.78125 34.625 
z
M 21.921875 38.8125 
Q 15.578125 40.375 12.03125 44.71875 
Q 8.5 49.078125 8.5 55.328125 
Q 8.5 64.0625 14.71875 69.140625 
Q 20.953125 74.21875 31.78125 74.21875 
Q 42.671875 74.21875 48.875 69.140625 
Q 55.078125 64.0625 55.078125 55.328125 
Q 55.078125 49.078125 51.53125 44.71875 
Q 48 40.375 41.703125 38.8125 
Q 48.828125 37.15625 52.796875 32.3125 
Q 56.78125 27.484375 56.78125 20.515625 
Q 56.78125 9.90625 50.3125 4.234375 
Q 43.84375 -1.421875 31.78125 -1.421875 
Q 19.734375 -1.421875 13.25 4.234375 
Q 6.78125 9.90625 6.78125 20.515625 
Q 6.78125 27.484375 10.78125 32.3125 
Q 14.796875 37.15625 21.921875 38.8125 
z
M 18.3125 54.390625 
Q 18.3125 48.734375 21.84375 45.5625 
Q 25.390625 42.390625 31.78125 42.390625 
Q 38.140625 42.390625 41.71875 45.5625 
Q 45.3125 48.734375 45.3125 54.390625 
Q 45.3125 60.0625 41.71875 63.234375 
Q 38.140625 66.40625 31.78125 66.40625 
Q 25.390625 66.40625 21.84375 63.234375 
Q 18.3125 60.0625 18.3125 54.390625 
z
" id="DejaVuSans-56"/>
      </defs>
      <g transform="translate(46.433594 70.883101)scale(0.1 -0.1)">
       <use xlink:href="#DejaVuSans-56"/>
       <use x="63.623047" xlink:href="#DejaVuSans-48"/>
      </g>
     </g>
    </g>
    <g id="text_16">
     <!-- droprate -->
     <defs>
      <path d="M 45.40625 46.390625 
L 45.40625 75.984375 
L 54.390625 75.984375 
L 54.390625 0 
L 45.40625 0 
L 45.40625 8.203125 
Q 42.578125 3.328125 38.25 0.953125 
Q 33.9375 -1.421875 27.875 -1.421875 
Q 17.96875 -1.421875 11.734375 6.484375 
Q 5.515625 14.40625 5.515625 27.296875 
Q 5.515625 40.1875 11.734375 48.09375 
Q 17.96875 56 27.875 56 
Q 33.9375 56 38.25 53.625 
Q 42.578125 51.265625 45.40625 46.390625 
z
M 14.796875 27.296875 
Q 14.796875 17.390625 18.875 11.75 
Q 22.953125 6.109375 30.078125 6.109375 
Q 37.203125 6.109375 41.296875 11.75 
Q 45.40625 17.390625 45.40625 27.296875 
Q 45.40625 37.203125 41.296875 42.84375 
Q 37.203125 48.484375 30.078125 48.484375 
Q 22.953125 48.484375 18.875 42.84375 
Q 14.796875 37.203125 14.796875 27.296875 
z
" id="DejaVuSans-100"/>
      <path d="M 41.109375 46.296875 
Q 39.59375 47.171875 37.8125 47.578125 
Q 36.03125 48 33.890625 48 
Q 26.265625 48 22.1875 43.046875 
Q 18.109375 38.09375 18.109375 28.8125 
L 18.109375 0 
L 9.078125 0 
L 9.078125 54.6875 
L 18.109375 54.6875 
L 18.109375 46.1875 
Q 20.953125 51.171875 25.484375 53.578125 
Q 30.03125 56 36.53125 56 
Q 37.453125 56 38.578125 55.875 
Q 39.703125 55.765625 41.0625 55.515625 
z
" id="DejaVuSans-114"/>
      <path d="M 30.609375 48.390625 
Q 23.390625 48.390625 19.1875 42.75 
Q 14.984375 37.109375 14.984375 27.296875 
Q 14.984375 17.484375 19.15625 11.84375 
Q 23.34375 6.203125 30.609375 6.203125 
Q 37.796875 6.203125 41.984375 11.859375 
Q 46.1875 17.53125 46.1875 27.296875 
Q 46.1875 37.015625 41.984375 42.703125 
Q 37.796875 48.390625 30.609375 48.390625 
z
M 30.609375 56 
Q 42.328125 56 49.015625 48.375 
Q 55.71875 40.765625 55.71875 27.296875 
Q 55.71875 13.875 49.015625 6.21875 
Q 42.328125 -1.421875 30.609375 -1.421875 
Q 18.84375 -1.421875 12.171875 6.21875 
Q 5.515625 13.875 5.515625 27.296875 
Q 5.515625 40.765625 12.171875 48.375 
Q 18.84375 56 30.609375 56 
z
" id="DejaVuSans-111"/>
      <path d="M 18.109375 8.203125 
L 18.109375 -20.796875 
L 9.078125 -20.796875 
L 9.078125 54.6875 
L 18.109375 54.6875 
L 18.109375 46.390625 
Q 20.953125 51.265625 25.265625 53.625 
Q 29.59375 56 35.59375 56 
Q 45.5625 56 51.78125 48.09375 
Q 58.015625 40.1875 58.015625 27.296875 
Q 58.015625 14.40625 51.78125 6.484375 
Q 45.5625 -1.421875 35.59375 -1.421875 
Q 29.59375 -1.421875 25.265625 0.953125 
Q 20.953125 3.328125 18.109375 8.203125 
z
M 48.6875 27.296875 
Q 48.6875 37.203125 44.609375 42.84375 
Q 40.53125 48.484375 33.40625 48.484375 
Q 26.265625 48.484375 22.1875 42.84375 
Q 18.109375 37.203125 18.109375 27.296875 
Q 18.109375 17.390625 22.1875 11.75 
Q 26.265625 6.109375 33.40625 6.109375 
Q 40.53125 6.109375 44.609375 11.75 
Q 48.6875 17.390625 48.6875 27.296875 
z
" id="DejaVuSans-112"/>
      <path d="M 34.28125 27.484375 
Q 23.390625 27.484375 19.1875 25 
Q 14.984375 22.515625 14.984375 16.5 
Q 14.984375 11.71875 18.140625 8.90625 
Q 21.296875 6.109375 26.703125 6.109375 
Q 34.1875 6.109375 38.703125 11.40625 
Q 43.21875 16.703125 43.21875 25.484375 
L 43.21875 27.484375 
z
M 52.203125 31.203125 
L 52.203125 0 
L 43.21875 0 
L 43.21875 8.296875 
Q 40.140625 3.328125 35.546875 0.953125 
Q 30.953125 -1.421875 24.3125 -1.421875 
Q 15.921875 -1.421875 10.953125 3.296875 
Q 6 8.015625 6 15.921875 
Q 6 25.140625 12.171875 29.828125 
Q 18.359375 34.515625 30.609375 34.515625 
L 43.21875 34.515625 
L 43.21875 35.40625 
Q 43.21875 41.609375 39.140625 45 
Q 35.0625 48.390625 27.6875 48.390625 
Q 23 48.390625 18.546875 47.265625 
Q 14.109375 46.140625 10.015625 43.890625 
L 10.015625 52.203125 
Q 14.9375 54.109375 19.578125 55.046875 
Q 24.21875 56 28.609375 56 
Q 40.484375 56 46.34375 49.84375 
Q 52.203125 43.703125 52.203125 31.203125 
z
" id="DejaVuSans-97"/>
      <path d="M 18.3125 70.21875 
L 18.3125 54.6875 
L 36.8125 54.6875 
L 36.8125 47.703125 
L 18.3125 47.703125 
L 18.3125 18.015625 
Q 18.3125 11.328125 20.140625 9.421875 
Q 21.96875 7.515625 27.59375 7.515625 
L 36.8125 7.515625 
L 36.8125 0 
L 27.59375 0 
Q 17.1875 0 13.234375 3.875 
Q 9.28125 7.765625 9.28125 18.015625 
L 9.28125 47.703125 
L 2.6875 47.703125 
L 2.6875 54.6875 
L 9.28125 54.6875 
L 9.28125 70.21875 
z
" id="DejaVuSans-116"/>
      <path d="M 56.203125 29.59375 
L 56.203125 25.203125 
L 14.890625 25.203125 
Q 15.484375 15.921875 20.484375 11.0625 
Q 25.484375 6.203125 34.421875 6.203125 
Q 39.59375 6.203125 44.453125 7.46875 
Q 49.3125 8.734375 54.109375 11.28125 
L 54.109375 2.78125 
Q 49.265625 0.734375 44.1875 -0.34375 
Q 39.109375 -1.421875 33.890625 -1.421875 
Q 20.796875 -1.421875 13.15625 6.1875 
Q 5.515625 13.8125 5.515625 26.8125 
Q 5.515625 40.234375 12.765625 48.109375 
Q 20.015625 56 32.328125 56 
Q 43.359375 56 49.78125 48.890625 
Q 56.203125 41.796875 56.203125 29.59375 
z
M 47.21875 32.234375 
Q 47.125 39.59375 43.09375 43.984375 
Q 39.0625 48.390625 32.421875 48.390625 
Q 24.90625 48.390625 20.390625 44.140625 
Q 15.875 39.890625 15.1875 32.171875 
z
" id="DejaVuSans-101"/>
     </defs>
     <g transform="translate(40.353906 215.236302)rotate(-90)scale(0.1 -0.1)">
      <use xlink:href="#DejaVuSans-100"/>
      <use x="63.476562" xlink:href="#DejaVuSans-114"/>
      <use x="104.558594" xlink:href="#DejaVuSans-111"/>
      <use x="165.740234" xlink:href="#DejaVuSans-112"/>
      <use x="229.216797" xlink:href="#DejaVuSans-114"/>
      <use x="270.330078" xlink:href="#DejaVuSans-97"/>
      <use x="331.609375" xlink:href="#DejaVuSans-116"/>
      <use x="370.818359" xlink:href="#DejaVuSans-101"/>
     </g>
    </g>
   </g>
   <g id="line2d_16">
    <path clip-path="url(#pe7196bd0e7)" d="M 86.606804 352.174167 
L 91.357492 352.174167 
L 91.507425 266.014907 
L 91.657142 264.880672 
L 91.809342 352.174167 
L 92.725051 352.174167 
L 92.878551 304.558876 
L 93.030244 335.929706 
L 93.185519 234.048317 
L 93.335908 275.482017 
L 93.489099 241.78737 
L 93.791079 323.58345 
L 93.943901 352.174167 
L 94.250888 352.174167 
L 94.551646 249.406686 
L 94.704669 299.82708 
L 94.854809 229.626364 
L 95.005038 50.163056 
L 95.154947 212.192786 
L 95.304875 179.12765 
L 95.455078 177.316065 
L 95.605038 160.168317 
L 95.754769 181.917594 
L 95.90525 250.795078 
L 96.057052 245.569893 
L 96.207146 235.946626 
L 96.357062 248.448955 
L 96.506934 242.128494 
L 96.808135 253.779272 
L 96.957988 245.162907 
L 97.107708 246.034438 
L 97.257308 237.500405 
L 97.407185 253.583866 
L 97.560812 257.17758 
L 97.867597 322.519148 
L 98.020651 332.069069 
L 98.173751 351.168912 
L 98.323438 333.715083 
L 98.473026 331.664074 
L 98.772972 352.174167 
L 98.9233 336.301683 
L 99.073245 350.120202 
L 99.223703 337.347018 
L 99.373446 350.117238 
L 99.524576 352.174167 
L 99.674627 337.282923 
L 99.824184 347.039255 
L 99.973726 319.358019 
L 100.123284 344.964514 
L 100.272989 331.604882 
L 100.574398 352.174167 
L 100.728394 336.112742 
L 100.882888 336.22506 
L 101.034791 348.130333 
L 101.186694 331.926277 
L 101.339792 333.681284 
L 101.64198 320.941215 
L 101.793207 342.501461 
L 102.098102 327.193079 
L 102.549649 335.859987 
L 102.699739 349.610405 
L 103.00524 341.22447 
L 103.157192 320.92311 
L 103.308828 328.281079 
L 103.459193 352.174167 
L 103.60946 316.281505 
L 103.7597 333.741605 
L 104.071542 329.230257 
L 104.221745 339.938532 
L 104.372152 332.205558 
L 104.522336 338.861761 
L 104.67343 331.211646 
L 104.826626 334.582206 
L 104.978806 348.635812 
L 105.130559 310.100031 
L 105.281475 304.761083 
L 105.43531 336.636546 
L 105.742652 352.174167 
L 105.896377 340.630018 
L 106.051376 293.607569 
L 106.208966 280.117303 
L 106.359847 308.641204 
L 106.511115 297.034928 
L 106.662363 273.886178 
L 106.813711 326.719677 
L 106.965162 326.247625 
L 107.268318 349.123985 
L 107.41946 297.779266 
L 107.574517 283.08848 
L 107.727583 293.869383 
L 108.030151 277.953087 
L 108.182022 284.754167 
L 108.484226 321.075262 
L 108.635797 312.070654 
L 108.938432 320.055626 
L 109.090292 311.17219 
L 109.393063 337.960264 
L 109.544116 302.792457 
L 109.69513 333.283872 
L 109.846443 314.0469 
L 110.001272 312.854801 
L 110.151509 327.085402 
L 110.457309 293.203994 
L 110.607989 318.381137 
L 110.908059 300.386183 
L 111.215426 316.288676 
L 111.369451 313.18917 
L 111.519904 293.461089 
L 111.670156 340.909824 
L 111.82529 329.808297 
L 111.975833 308.266995 
L 112.126461 327.597418 
L 112.427179 298.412529 
L 112.58282 324.495498 
L 112.733243 321.92178 
L 112.887423 299.120146 
L 113.041757 318.282315 
L 113.196146 298.19494 
L 113.351479 316.042933 
L 113.502127 309.919714 
L 113.652912 298.489662 
L 113.803604 323.624353 
L 114.103855 293.207651 
L 114.256089 308.135007 
L 114.406412 304.0447 
L 114.556675 303.462697 
L 114.71216 291.04079 
L 114.863109 292.272718 
L 115.015861 320.878845 
L 115.166623 311.840835 
L 115.318848 279.385158 
L 115.471835 323.987274 
L 115.622379 327.085402 
L 115.77574 352.174167 
L 115.926138 352.174167 
L 116.077403 295.237448 
L 116.228058 347.061357 
L 116.382253 297.618617 
L 116.533368 297.349112 
L 116.683478 342.944625 
L 116.83547 302.566837 
L 117.290433 346.582167 
L 117.443517 320.463913 
L 117.594965 329.265126 
L 117.747231 347.631297 
L 117.896939 340.877361 
L 118.047169 326.536551 
L 118.2008 346.134118 
L 118.353977 340.145041 
L 118.503868 341.91912 
L 118.656635 341.069375 
L 118.807989 352.174167 
L 118.962021 333.65531 
L 119.266158 348.630786 
L 119.567525 332.828754 
L 119.71774 352.174167 
L 119.869249 338.467903 
L 120.020207 352.174167 
L 120.170273 343.469902 
L 120.473763 352.174167 
L 120.625415 324.254 
L 120.778633 352.174167 
L 120.92895 327.15729 
L 121.080514 344.53782 
L 121.231057 347.068682 
L 121.381463 326.573387 
L 121.532641 347.585804 
L 121.683574 333.846934 
L 121.835351 352.174167 
L 121.986695 332.37623 
L 122.139075 347.624854 
L 122.292309 332.571696 
L 122.444868 341.069375 
L 122.595473 342.515259 
L 122.746312 352.174167 
L 122.897676 346.065089 
L 123.048265 347.061357 
L 123.204755 340.361033 
L 123.354968 352.174167 
L 123.506215 334.865114 
L 123.657325 352.174167 
L 123.809166 329.869806 
L 123.960018 352.174167 
L 124.112025 334.507453 
L 124.265457 336.067371 
L 124.417335 339.519236 
L 124.57213 352.174167 
L 124.723201 336.459731 
L 124.873739 352.174167 
L 125.025279 339.990821 
L 125.175109 352.174167 
L 125.326561 336.901473 
L 125.479924 346.653052 
L 125.632447 342.093181 
L 125.783614 352.174167 
L 125.934631 330.220581 
L 126.087487 352.174167 
L 126.240099 331.004096 
L 126.390503 352.174167 
L 126.540248 334.715468 
L 126.690496 347.046644 
L 126.841454 330.761806 
L 126.992515 330.731129 
L 127.293062 352.174167 
L 127.444746 322.223442 
L 127.595192 351.662151 
L 127.745672 318.381137 
L 127.89793 325.889247 
L 128.049392 347.090531 
L 128.202074 325.421714 
L 128.354514 337.577383 
L 128.504167 337.239885 
L 128.654242 351.150135 
L 128.804463 329.515257 
L 128.955421 351.665077 
L 129.107391 326.358107 
L 129.258285 345.036713 
L 129.561587 332.432474 
L 129.715044 350.163657 
L 129.865885 352.174167 
L 130.01838 321.888372 
L 130.170369 352.174167 
L 130.638338 352.174167 
L 130.788155 311.54983 
L 130.941088 341.589131 
L 131.247222 318.450563 
L 131.398946 342.021379 
L 131.551673 329.427601 
L 131.706961 352.174167 
L 131.85818 328.822754 
L 132.011717 352.174167 
L 132.163249 324.254 
L 132.313601 352.174167 
L 132.467751 332.125623 
L 132.618741 352.174167 
L 132.770198 338.956714 
L 132.921552 348.113051 
L 133.072259 341.437266 
L 133.226021 352.174167 
L 133.378104 337.431623 
L 133.529268 338.428742 
L 133.683171 351.673657 
L 133.833588 337.347018 
L 133.98554 350.149378 
L 134.13924 352.174167 
L 134.290751 330.822897 
L 134.441575 341.977805 
L 134.592058 343.993671 
L 134.742935 332.801079 
L 134.894696 350.653415 
L 135.047423 335.998831 
L 135.197688 352.174167 
L 135.349131 341.498532 
L 135.500192 352.174167 
L 135.651915 343.544297 
L 135.802435 352.174167 
L 135.955323 352.174167 
L 136.258447 343.469902 
L 136.411503 352.174167 
L 136.568417 340.821887 
L 136.718641 351.15453 
L 136.872088 348.147468 
L 137.02288 350.649076 
L 137.174982 345.574855 
L 137.481544 350.177736 
L 137.633886 343.101279 
L 137.784448 351.150135 
L 137.937689 346.653052 
L 138.092698 351.676453 
L 138.244147 344.581208 
L 138.394655 352.174167 
L 138.546245 344.02873 
L 138.696955 352.174167 
L 138.85172 340.694691 
L 139.002369 352.174167 
L 139.153085 348.5952 
L 139.304147 352.174167 
L 139.455378 350.646897 
L 139.610016 351.175951 
L 139.764003 345.676667 
L 139.914492 352.174167 
L 140.065365 347.068682 
L 140.216112 350.129043 
L 140.37079 347.190071 
L 140.524356 352.174167 
L 140.674753 343.993671 
L 140.825664 342.473745 
L 140.977019 352.174167 
L 141.433329 344.493933 
L 141.583059 352.174167 
L 141.73493 342.542738 
L 141.884929 352.174167 
L 142.036705 342.515259 
L 142.188627 352.174167 
L 142.341294 348.136061 
L 142.49255 350.649076 
L 142.643427 347.585804 
L 142.79334 352.174167 
L 142.944063 349.106481 
L 143.0947 352.174167 
L 143.245914 348.60544 
L 143.395957 350.123157 
L 143.545938 350.120202 
L 143.695914 346.525764 
L 143.845906 351.148662 
L 143.995842 341.904344 
L 144.145756 350.63147 
L 144.296341 342.473745 
L 144.446097 350.63147 
L 144.601864 350.683109 
L 144.753062 349.136983 
L 145.064073 352.174167 
L 145.369802 352.174167 
L 145.520526 333.283872 
L 145.822668 347.592359 
L 145.974879 352.174167 
L 146.125769 335.836615 
L 146.430491 349.628718 
L 146.581514 348.60544 
L 146.736187 344.687552 
L 147.037732 352.174167 
L 147.188389 338.880861 
L 147.339127 350.131973 
L 147.495276 339.783247 
L 147.646255 352.174167 
L 147.797086 334.815518 
L 147.947921 352.174167 
L 148.100725 347.119374 
L 148.252299 338.000644 
L 148.554621 351.15453 
L 148.70607 336.944985 
L 149.008249 348.107258 
L 149.163599 352.174167 
L 149.318355 335.27551 
L 149.47175 351.173147 
L 149.62928 337.919652 
L 149.780859 352.174167 
L 149.932464 336.459731 
L 150.088402 352.174167 
L 150.241367 336.592716 
L 150.391655 352.174167 
L 150.543044 337.89926 
L 150.697611 345.685767 
L 150.849205 344.075011 
L 151.002537 338.08072 
L 151.154438 349.136983 
L 151.306997 339.537186 
L 151.458412 345.584242 
L 151.609794 345.057077 
L 151.760783 341.992371 
L 152.068413 352.174167 
L 152.220073 334.457263 
L 152.371401 345.555999 
L 152.530347 347.299162 
L 152.837245 340.161936 
L 152.990923 343.689337 
L 153.141711 352.174167 
L 153.444681 331.301485 
L 153.595581 348.095622 
L 153.74662 341.977805 
L 153.897507 340.414704 
L 154.049112 352.174167 
L 154.200784 329.838033 
L 154.353976 327.9798 
L 154.506432 351.166068 
L 154.66359 352.174167 
L 154.814948 334.889806 
L 154.966798 333.951066 
L 155.117744 351.155987 
L 155.268572 341.452648 
L 155.421157 352.174167 
L 155.573757 339.050322 
L 155.724828 351.665077 
L 155.877313 337.536032 
L 156.483483 349.628718 
L 156.637184 343.164993 
L 156.788176 350.646897 
L 156.939434 338.409078 
L 157.091515 351.161772 
L 157.245336 341.147468 
L 157.398224 351.671539 
L 157.549069 339.938532 
L 157.700348 345.56544 
L 157.851383 346.047585 
L 158.002866 340.481805 
L 158.305666 352.174167 
L 158.457076 339.465078 
L 158.609916 351.166068 
L 158.76125 346.082494 
L 158.912637 345.04691 
L 159.064157 351.158888 
L 159.217824 352.174167 
L 159.369116 330.792395 
L 159.520422 352.174167 
L 160.146089 352.174167 
L 160.296771 344.53782 
L 160.448508 346.574179 
L 160.599729 346.590133 
L 160.750709 352.174167 
L 160.901869 337.878809 
L 161.054919 352.174167 
L 161.206398 349.123985 
L 161.357566 340.974191 
L 161.509166 352.174167 
L 161.661573 343.593191 
L 161.817427 345.730888 
L 161.969636 342.570061 
L 162.121921 351.668687 
L 162.273225 344.051936 
L 162.424351 351.665077 
L 162.575696 344.53782 
L 162.728476 352.174167 
L 162.879708 342.501461 
L 163.030561 352.174167 
L 163.184915 338.67936 
L 163.335148 352.174167 
L 163.486119 341.977805 
L 163.636914 352.174167 
L 163.787757 338.899906 
L 163.938661 352.174167 
L 164.089473 344.017077 
L 164.240899 352.174167 
L 164.391619 345.026488 
L 164.543063 352.174167 
L 164.698642 344.221857 
L 164.849289 350.137807 
L 165.001955 345.097457 
L 165.153913 352.174167 
L 165.305838 348.107258 
L 165.456851 352.174167 
L 165.761315 345.574855 
L 165.91486 350.155114 
L 166.072609 343.362997 
L 166.223765 352.174167 
L 166.380225 342.302619 
L 166.538374 352.174167 
L 166.688716 345.036713 
L 166.841801 352.174167 
L 166.994237 344.602718 
L 167.145684 352.174167 
L 167.297732 344.570407 
L 167.450463 352.174167 
L 167.606246 349.204476 
L 167.765924 349.272977 
L 167.924653 349.759784 
L 168.076952 349.65035 
L 168.233043 349.699425 
L 168.38948 352.174167 
L 168.694383 338.975542 
L 168.845177 348.089779 
L 168.997081 340.025433 
L 169.150392 352.174167 
L 169.309423 343.435023 
L 169.461316 352.174167 
L 169.613671 343.593191 
L 169.767726 352.174167 
L 169.922301 346.184875 
L 170.073107 352.174167 
L 170.226885 352.174167 
L 170.377798 339.446922 
L 170.527734 342.944625 
L 170.67887 341.977805 
L 170.830697 343.023623 
L 170.982483 352.174167 
L 171.286634 346.637456 
L 171.591184 348.625746 
L 171.745915 348.6853 
L 171.904433 352.174167 
L 172.054765 352.174167 
L 172.204904 335.789668 
L 172.506838 352.174167 
L 172.657996 343.01055 
L 172.808901 341.963197 
L 172.959972 352.174167 
L 173.123451 333.343897 
L 173.273846 351.662151 
L 173.424932 327.667838 
L 173.575237 345.537036 
L 173.726189 333.741605 
L 173.876673 330.700365 
L 174.035498 352.174167 
L 174.810565 352.174167 
L 174.961216 335.301894 
L 175.111643 334.279332 
L 175.261779 351.661414 
L 175.563285 345.546531 
L 175.716996 352.174167 
L 175.866923 352.174167 
L 176.017382 342.44587 
L 176.167507 351.148662 
L 176.317837 345.508387 
L 176.471209 351.168912 
L 176.621007 343.981917 
L 176.771366 351.148662 
L 176.921059 352.174167 
L 177.073616 352.174167 
L 177.223494 340.893616 
L 177.37999 352.174167 
L 177.530117 341.483281 
L 177.679776 352.174167 
L 177.831027 346.056349 
L 177.980709 352.174167 
L 178.130783 349.097653 
L 178.284132 352.174167 
L 178.435965 344.581208 
L 178.586095 352.174167 
L 178.740137 346.645265 
L 178.890696 352.174167 
L 179.040644 348.066237 
L 179.190486 352.174167 
L 179.342857 346.091159 
L 179.492766 351.150135 
L 179.646586 344.634755 
L 179.797378 352.174167 
L 179.951347 351.674359 
L 180.101182 348.066237 
L 180.255999 350.674744 
L 180.406129 345.026488 
L 180.556308 352.174167 
L 180.858363 352.174167 
L 181.008357 343.981917 
L 181.1616 352.174167 
L 181.315686 342.704384 
L 181.466434 352.174167 
L 181.616287 352.174167 
L 181.922775 344.504952 
L 182.074422 352.174167 
L 182.22472 343.469902 
L 182.374645 352.174167 
L 182.525092 348.5849 
L 182.675277 352.174167 
L 182.825195 348.579729 
L 182.97515 352.174167 
L 183.125366 352.174167 
L 183.275952 347.572638 
L 183.426916 347.585804 
L 183.576742 352.174167 
L 183.726952 352.174167 
L 183.877815 349.119628 
L 184.326984 352.174167 
L 184.476564 343.934563 
L 184.630641 352.174167 
L 184.780567 347.054011 
L 184.930157 352.174167 
L 185.07971 351.659191 
L 185.229826 352.174167 
L 185.385006 345.703891 
L 185.534686 352.174167 
L 185.68439 346.517613 
L 185.834755 352.174167 
L 185.98493 352.174167 
L 186.135045 351.148662 
L 186.28945 345.676667 
L 186.439956 352.174167 
L 186.590203 352.174167 
L 186.891154 349.110876 
L 187.042547 352.174167 
L 187.194115 349.132663 
L 187.345036 352.174167 
L 187.496035 346.574179 
L 187.648057 350.146497 
L 187.799109 348.095622 
L 187.95011 352.174167 
L 188.254665 348.158811 
L 188.405579 352.174167 
L 188.555634 350.120202 
L 188.706722 352.174167 
L 189.62919 352.174167 
L 189.780621 340.974191 
L 189.931901 352.174167 
L 190.082423 343.981917 
L 190.239038 352.174167 
L 190.540387 352.174167 
L 190.690243 344.471799 
L 190.840067 352.174167 
L 190.991879 345.56544 
L 191.143165 352.174167 
L 191.442821 352.174167 
L 191.592628 348.066237 
L 191.745908 352.174167 
L 191.896657 349.617762 
L 192.046769 352.174167 
L 192.197017 352.174167 
L 192.348097 347.57923 
L 192.498646 349.106481 
L 192.649228 352.174167 
L 192.800327 347.090531 
L 192.956679 352.174167 
L 193.114235 348.756989 
L 193.26535 352.174167 
L 193.416787 352.174167 
L 193.571168 345.685767 
L 193.722012 351.15307 
L 193.87583 341.648681 
L 194.026686 352.174167 
L 194.176623 352.174167 
L 194.326613 351.660676 
L 194.478732 350.143609 
L 194.629287 352.174167 
L 194.779402 346.541995 
L 194.929268 352.174167 
L 195.232114 352.174167 
L 195.386498 346.184875 
L 195.536913 352.174167 
L 195.687633 347.572638 
L 195.838804 352.174167 
L 195.990838 343.556573 
L 196.146586 352.174167 
L 196.297136 347.075986 
L 196.447242 352.174167 
L 196.749572 352.174167 
L 196.904581 348.192459 
L 197.056009 352.174167 
L 197.206281 352.174167 
L 197.357002 349.110876 
L 197.658385 351.15307 
L 197.959166 346.541995 
L 198.109461 352.174167 
L 198.259791 352.174167 
L 198.563288 345.621526 
L 198.714367 352.174167 
L 198.865557 346.558133 
L 199.016671 352.174167 
L 199.16726 345.517964 
L 199.3189 352.174167 
L 199.469645 348.600327 
L 199.620426 350.131973 
L 199.770771 348.5849 
L 199.920929 352.174167 
L 200.070979 351.148662 
L 200.225695 346.176475 
L 200.535092 350.155114 
L 200.685311 343.981917 
L 200.835634 352.174167 
L 200.98646 352.174167 
L 201.137513 343.507259 
L 201.28806 352.174167 
L 201.438411 346.541995 
L 201.588913 350.123157 
L 201.739826 346.065089 
L 201.891123 352.174167 
L 202.1923 352.174167 
L 202.343337 343.494842 
L 202.494012 352.174167 
L 202.647174 344.655963 
L 202.798058 349.614089 
L 202.948793 345.537036 
L 203.10264 351.17174 
L 203.256481 346.176475 
L 203.411187 352.174167 
L 204.176367 352.174167 
L 204.326525 344.482882 
L 204.481057 352.174167 
L 204.633011 347.618392 
L 204.783212 351.662886 
L 204.934453 350.644712 
L 205.085569 352.174167 
L 205.23589 346.533891 
L 205.387591 352.174167 
L 205.539168 348.625746 
L 205.692788 352.174167 
L 205.84696 349.183709 
L 205.997911 352.174167 
L 206.152665 350.180528 
L 206.303806 350.137807 
L 206.454192 351.662886 
L 206.604939 344.504952 
L 206.755564 350.642521 
L 206.906296 348.083919 
L 207.058841 352.174167 
L 207.365738 352.174167 
L 207.516255 346.541995 
L 207.667057 352.174167 
L 207.818137 350.137807 
L 207.97095 352.174167 
L 208.121359 351.663618 
L 208.271976 352.174167 
L 208.422343 346.021139 
L 208.575026 349.65035 
L 208.726858 347.112194 
L 208.880828 352.174167 
L 209.031199 352.174167 
L 209.181191 349.097653 
L 209.331694 348.5952 
L 209.481077 350.114266 
L 209.63153 349.610405 
L 209.78252 343.507259 
L 209.934907 351.163208 
L 210.087389 352.174167 
L 210.238105 350.131973 
L 210.389002 346.065089 
L 210.538961 352.174167 
L 210.690342 352.174167 
L 210.840334 344.504952 
L 210.992348 347.104994 
L 211.14363 352.174167 
L 211.295103 350.140712 
L 211.447622 352.174167 
L 211.600902 344.132128 
L 211.751767 352.174167 
L 211.901952 352.174167 
L 212.203615 345.036713 
L 212.354715 345.555999 
L 212.505405 347.57923 
L 212.655939 351.151605 
L 212.807271 346.582167 
L 212.958385 348.089779 
L 213.111708 348.158811 
L 213.264777 352.174167 
L 213.41512 349.106481 
L 213.717528 348.113051 
L 213.867596 343.97013 
L 214.01974 351.161772 
L 214.169694 352.174167 
L 214.320331 345.005948 
L 214.471517 352.174167 
L 214.622449 346.056349 
L 214.772341 352.174167 
L 214.922302 335.228959 
L 215.074251 340.008152 
L 215.22614 352.174167 
L 215.37884 342.59723 
L 215.530736 352.174167 
L 215.68137 340.958168 
L 215.834038 344.086499 
L 215.988772 335.772529 
L 216.141847 342.610757 
L 216.291772 343.457377 
L 216.442552 341.452648 
L 216.59333 351.15307 
L 216.744731 340.974191 
L 216.895243 350.129043 
L 217.200069 346.082494 
L 217.351923 347.618392 
L 217.503119 346.065089 
L 217.654022 336.879623 
L 217.806965 352.174167 
L 217.958189 337.410563 
L 218.111089 352.174167 
L 218.584979 352.174167 
L 218.746581 349.788873 
L 218.907946 333.091818 
L 219.068201 336.388966 
L 219.229162 352.174167 
L 219.386097 340.003304 
L 219.536526 350.63812 
L 219.686628 352.174167 
L 219.836492 343.958308 
L 219.986502 344.471799 
L 220.136385 343.444817 
L 220.287678 350.646897 
L 220.438594 342.997441 
L 220.589186 349.610405 
L 220.739844 350.131973 
L 220.890061 348.072148 
L 221.040909 343.494842 
L 221.191184 352.174167 
L 221.342495 352.174167 
L 221.492821 341.437266 
L 221.648133 352.174167 
L 221.799005 339.446922 
L 221.951408 339.519236 
L 222.107885 352.174167 
L 222.258272 340.465101 
L 222.408631 351.148662 
L 222.559032 344.493933 
L 222.709192 344.482882 
L 222.859723 351.151605 
L 223.01125 351.15744 
L 223.162823 330.853312 
L 223.313218 346.038795 
L 223.613711 332.176827 
L 223.764874 349.625076 
L 223.915332 342.984294 
L 224.065455 344.482882 
L 224.216266 335.326066 
L 224.367595 349.123985 
L 224.519074 336.369805 
L 224.670793 352.174167 
L 224.82152 334.790613 
L 224.97177 349.614089 
L 225.122185 331.181527 
L 225.273638 352.174167 
L 225.425789 329.395291 
L 225.576536 351.15307 
L 225.727261 352.174167 
L 225.880015 330.97411 
L 226.189997 341.193799 
L 226.342584 338.060786 
L 226.494241 352.174167 
L 226.64588 328.822754 
L 226.797189 352.174167 
L 226.949764 328.855971 
L 227.10141 345.593603 
L 227.252266 333.820715 
L 227.704852 346.047585 
L 227.855739 337.878809 
L 228.007373 339.973441 
L 228.309964 352.174167 
L 228.461507 336.944985 
L 228.61282 351.665077 
L 228.763714 339.410454 
L 228.914686 345.555999 
L 229.067551 344.613427 
L 229.218832 352.174167 
L 229.370347 349.123985 
L 229.521905 342.035821 
L 229.672976 341.452648 
L 229.823108 342.459828 
L 229.97429 352.174167 
L 230.125752 345.057077 
L 230.28664 343.517579 
L 230.439962 335.180706 
L 230.590582 349.621424 
L 230.741534 336.369805 
L 230.892357 346.056349 
L 231.194087 351.15307 
L 231.3441 344.482882 
L 231.494048 350.117238 
L 231.645373 344.548713 
L 231.798119 350.657729 
L 231.948528 350.642521 
L 232.098863 349.614089 
L 232.249306 350.126104 
L 232.400186 352.174167 
L 232.550845 344.005391 
L 232.701384 352.174167 
L 233.312894 352.174167 
L 233.463263 333.715083 
L 233.614644 349.632349 
L 233.766403 343.531986 
L 233.917867 350.146497 
L 234.068421 347.572638 
L 234.21897 351.150135 
L 234.369563 350.129043 
L 234.52075 350.646897 
L 234.670932 347.054011 
L 234.821056 352.174167 
L 235.122743 343.469902 
L 235.273206 346.029979 
L 235.428645 352.174167 
L 235.581403 344.132128 
L 235.732329 352.174167 
L 235.886371 349.675128 
L 236.037006 344.515939 
L 236.187328 350.129043 
L 236.337879 345.005948 
L 236.488316 352.174167 
L 236.63875 344.995634 
L 236.788981 350.129043 
L 236.939478 348.590057 
L 237.090144 352.174167 
L 237.240682 348.5952 
L 237.392394 352.174167 
L 237.542753 346.029979 
L 237.693562 352.174167 
L 237.845934 352.174167 
L 237.999392 347.154972 
L 238.1505 348.615622 
L 238.301556 347.585804 
L 238.452543 352.174167 
L 238.603421 346.558133 
L 238.75466 334.815518 
L 238.906689 352.174167 
L 239.056888 336.813699 
L 239.207492 350.126104 
L 239.357804 352.174167 
L 239.508615 340.414704 
L 239.658677 339.373777 
L 239.809166 351.150135 
L 239.959066 352.174167 
L 240.109536 339.868111 
L 240.262016 350.655575 
L 240.415108 338.603226 
L 240.56562 350.642521 
L 240.715793 347.572638 
L 240.866242 337.817102 
L 241.016416 352.174167 
L 241.167001 324.013309 
L 241.317641 347.061357 
L 241.468 342.957886 
L 241.621697 335.610823 
L 241.772678 351.155987 
L 241.923289 339.903423 
L 242.225425 352.174167 
L 242.376444 332.347988 
L 242.679476 345.026488 
L 242.830028 342.971109 
L 243.131119 332.717574 
L 243.281022 346.541995 
L 243.430927 341.904344 
L 243.5805 342.891198 
L 243.73007 352.174167 
L 244.031203 343.457377 
L 244.180853 352.174167 
L 244.330473 338.2899 
L 244.482086 345.04691 
L 244.635141 341.116363 
L 244.786075 352.174167 
L 244.935858 334.715468 
L 245.085534 352.174167 
L 245.235161 336.747203 
L 245.384852 349.088774 
L 245.535411 352.174167 
L 245.685403 328.553574 
L 245.835971 333.25677 
L 245.986206 350.126104 
L 246.136172 336.791597 
L 246.286115 352.174167 
L 246.435998 340.380864 
L 246.586768 352.174167 
L 246.739464 341.528904 
L 246.889338 352.174167 
L 247.03907 337.261435 
L 247.188803 352.174167 
L 247.339089 344.493933 
L 247.491393 352.174167 
L 247.95877 352.174167 
L 248.116861 349.25316 
L 248.432801 339.499154 
L 248.582344 350.129043 
L 248.733538 337.878809 
L 248.883666 352.174167 
L 249.033418 349.088774 
L 249.18307 338.804132 
L 249.332743 352.174167 
L 249.482378 333.661811 
L 249.781854 352.174167 
L 249.931532 333.147578 
L 250.08167 352.174167 
L 250.232922 326.755989 
L 250.382841 352.174167 
L 250.532836 336.255941 
L 250.682765 352.174167 
L 250.832576 339.318364 
L 250.982429 351.660676 
L 251.132317 340.877361 
L 251.282024 347.031846 
L 251.431858 344.460685 
L 251.582453 352.174167 
L 251.739011 345.244889 
L 251.889142 352.174167 
L 252.039052 344.985291 
L 252.188938 346.525764 
L 252.338818 344.985291 
L 252.488814 352.174167 
L 252.638699 342.931326 
L 252.788626 350.120202 
L 252.939315 344.504952 
L 253.090407 346.056349 
L 253.390427 352.174167 
L 253.540306 352.174167 
L 253.69019 338.309906 
L 253.990012 348.066237 
L 254.139874 348.06031 
L 254.289724 342.417835 
L 254.440915 352.174167 
L 254.592283 349.123985 
L 254.743222 352.174167 
L 254.893993 348.089779 
L 255.044824 351.663618 
L 255.195577 352.174167 
L 255.346448 337.36826 
L 255.497261 336.369805 
L 255.647925 351.662886 
L 255.798564 337.347018 
L 255.949891 352.174167 
L 256.101659 331.360951 
L 256.253036 348.610538 
L 256.40416 332.828754 
L 256.556045 352.174167 
L 256.707482 334.356024 
L 256.859216 352.174167 
L 257.010534 332.828754 
L 257.162012 352.174167 
L 257.312979 327.702898 
L 257.467795 351.675757 
L 257.61816 333.283872 
L 257.769832 350.140712 
L 257.920992 333.873078 
L 258.072019 352.174167 
L 258.223049 341.483281 
L 258.374499 352.174167 
L 258.525602 338.937832 
L 258.676989 344.559576 
L 258.827752 331.271624 
L 258.979598 352.174167 
L 259.130788 334.381442 
L 259.281524 349.621424 
L 259.432711 341.992371 
L 259.583196 346.550076 
L 259.733516 338.880861 
L 259.889174 348.198012 
L 260.041706 338.08072 
L 260.192632 351.664349 
L 260.343046 339.868111 
L 260.493045 351.662151 
L 260.642906 340.893616 
L 260.792857 352.174167 
L 260.942906 339.355359 
L 261.093586 352.174167 
L 261.243657 341.91912 
L 261.393574 352.174167 
L 261.544867 352.174167 
L 261.696878 345.107481 
L 261.847575 344.493933 
L 261.997914 339.903423 
L 262.151 352.174167 
L 262.617352 352.174167 
L 262.76806 327.597418 
L 262.918666 352.174167 
L 263.069197 331.722927 
L 263.219368 343.981917 
L 263.369521 343.97013 
L 263.519467 352.174167 
L 263.669336 335.74245 
L 263.81928 352.174167 
L 263.969207 337.796415 
L 264.119499 352.174167 
L 264.27136 338.975542 
L 264.425179 352.174167 
L 264.576371 351.15744 
L 264.731596 345.206178 
L 264.88188 347.57923 
L 265.034614 352.174167 
L 265.184661 340.909824 
L 265.484782 348.579729 
L 265.634573 349.09322 
L 265.935866 347.090531 
L 266.237434 352.174167 
L 266.389846 347.112194 
L 266.540416 346.558133 
L 266.69685 352.174167 
L 266.853952 343.84106 
L 267.004993 352.174167 
L 267.15551 352.174167 
L 267.460001 341.513739 
L 267.614106 352.174167 
L 267.764437 342.473745 
L 267.917092 352.174167 
L 268.069803 343.114094 
L 268.220559 352.174167 
L 268.371064 352.174167 
L 268.674916 348.675513 
L 268.827637 352.174167 
L 268.978063 352.174167 
L 269.127891 343.958308 
L 269.280521 349.65392 
L 269.430381 347.546078 
L 269.732328 352.174167 
L 269.882255 344.482882 
L 270.032255 344.471799 
L 270.183059 350.129043 
L 270.333198 343.469902 
L 270.489835 352.174167 
L 270.640451 343.01055 
L 270.791173 351.662886 
L 270.941548 350.642521 
L 271.092168 351.151605 
L 271.243477 349.628718 
L 271.395688 352.174167 
L 271.548046 351.671539 
L 271.700326 351.667969 
L 271.850397 344.504952 
L 272.000335 352.174167 
L 272.150167 348.066237 
L 272.300341 351.148662 
L 272.451362 342.971109 
L 272.602431 352.174167 
L 272.753539 351.665803 
L 272.904197 352.174167 
L 273.055001 346.047585 
L 273.205976 352.174167 
L 273.506652 343.97013 
L 273.657125 351.662151 
L 273.807283 352.174167 
L 273.957808 349.614089 
L 274.108267 342.459828 
L 274.259155 352.174167 
L 274.410365 345.057077 
L 274.561432 352.174167 
L 274.712762 347.083269 
L 274.863209 352.174167 
L 275.013191 343.97013 
L 275.163432 352.174167 
L 275.314112 351.661414 
L 275.46464 352.174167 
L 275.614911 347.054011 
L 275.765271 352.174167 
L 275.916778 350.140712 
L 276.067427 352.174167 
L 276.217935 351.151605 
L 276.37277 352.174167 
L 276.525805 352.174167 
L 276.676104 351.662151 
L 276.83447 352.174167 
L 277.295769 352.174167 
L 277.446468 344.526895 
L 277.597789 348.610538 
L 277.748391 342.971109 
L 277.900747 351.669403 
L 278.051237 346.533891 
L 278.206808 351.187012 
L 278.359641 352.174167 
L 278.510068 352.174167 
L 278.662365 345.593603 
L 278.812889 352.174167 
L 279.114811 348.101448 
L 279.421514 352.174167 
L 279.574927 350.172128 
L 279.72545 352.174167 
L 280.026041 352.174167 
L 280.177086 348.600327 
L 280.329778 352.174167 
L 280.482017 352.174167 
L 280.784011 347.090531 
L 280.934747 351.151605 
L 281.236145 343.469902 
L 281.387157 351.665077 
L 281.538182 352.174167 
L 281.688996 352.174167 
L 281.841004 344.559576 
L 281.994567 352.174167 
L 282.147531 347.154972 
L 282.300739 352.174167 
L 282.452655 350.149378 
L 282.755219 352.174167 
L 282.905171 352.174167 
L 283.058169 345.630781 
L 283.212183 350.672638 
L 283.363619 349.632349 
L 283.514952 352.174167 
L 283.664952 348.5849 
L 283.815434 352.174167 
L 283.967299 351.665803 
L 284.117717 347.075986 
L 284.26833 352.174167 
L 284.42022 352.174167 
L 284.721761 343.981917 
L 284.874453 352.174167 
L 285.024058 352.174167 
L 285.175832 351.15744 
L 285.325767 343.97013 
L 285.477415 352.174167 
L 285.932792 348.101448 
L 286.083198 352.174167 
L 286.234495 348.60544 
L 286.388527 352.174167 
L 286.541052 349.154142 
L 286.691958 352.174167 
L 286.842424 352.174167 
L 286.994984 340.042665 
L 287.145125 342.957886 
L 287.449192 352.174167 
L 287.599941 352.174167 
L 287.752363 341.037827 
L 287.904193 344.075011 
L 288.055426 352.174167 
L 288.206523 349.628718 
L 288.356633 350.63591 
L 288.508364 347.090531 
L 288.658915 352.174167 
L 288.81029 338.937832 
L 288.962922 346.134118 
L 289.117581 346.184875 
L 289.268019 352.174167 
L 289.419682 350.649076 
L 289.571635 342.021379 
L 289.723643 350.15225 
L 289.873548 352.174167 
L 290.174567 337.83773 
L 290.47633 349.628718 
L 290.627258 347.068682 
L 290.778943 348.113051 
L 290.930459 350.146497 
L 291.08021 345.489149 
L 291.23267 351.667969 
L 291.385712 352.174167 
L 292.002425 352.174167 
L 292.152595 333.174994 
L 292.303581 343.51964 
L 292.457024 346.142637 
L 292.607174 342.44587 
L 292.759359 352.174167 
L 292.910322 341.483281 
L 293.060584 350.63812 
L 293.211412 346.056349 
L 293.361404 351.147184 
L 293.511434 350.63591 
L 293.661761 348.078042 
L 293.811744 352.174167 
L 294.113204 338.937832 
L 294.415507 349.63958 
L 294.718637 338.994317 
L 294.870432 347.611911 
L 295.022349 349.136983 
L 295.324998 343.062616 
L 295.476072 345.04691 
L 295.626871 343.993671 
L 295.776742 346.533891 
L 295.928203 345.555999 
L 296.080197 352.174167 
L 296.23302 349.65392 
L 296.536267 338.349746 
L 296.688052 351.158888 
L 296.840012 340.025433 
L 296.991751 352.174167 
L 297.143864 336.482052 
L 297.29468 352.174167 
L 297.445369 340.397808 
L 297.596205 346.566168 
L 297.749056 339.050322 
L 297.898792 346.550076 
L 298.050287 346.082494 
L 298.201279 352.174167 
L 298.653714 339.483182 
L 298.804973 352.174167 
L 298.956025 342.487623 
L 299.106203 348.078042 
L 299.25743 343.51964 
L 299.407798 352.174167 
L 299.558734 335.326066 
L 299.709227 345.508387 
L 299.86362 347.18309 
L 300.013691 352.174167 
L 300.165837 327.911164 
L 300.317652 349.12833 
L 300.469097 335.398169 
L 300.620045 338.918896 
L 300.771614 350.149378 
L 300.923406 349.12833 
L 301.075481 338.000644 
L 301.2268 352.174167 
L 301.376938 331.664074 
L 301.534856 352.174167 
L 301.685239 335.350169 
L 301.836983 352.174167 
L 301.988443 333.899148 
L 302.139605 351.15453 
L 302.293279 331.62441 
L 302.59489 343.01055 
L 302.74489 338.309906 
L 302.896226 345.067215 
L 303.046717 337.83773 
L 303.198314 350.143609 
L 303.349407 333.794421 
L 303.500408 348.60544 
L 303.650824 337.325714 
L 303.801319 346.566168 
L 303.951531 333.174994 
L 304.102785 349.123985 
L 304.253163 331.181527 
L 304.557171 344.602718 
L 304.709036 339.031707 
L 304.859866 352.174167 
L 305.010376 330.157496 
L 305.160623 335.277652 
L 305.311128 350.129043 
L 305.463112 333.899148 
L 305.763903 347.046644 
L 305.917428 339.608481 
L 306.075773 352.174167 
L 306.539756 352.174167 
L 306.691853 340.025433 
L 306.843104 342.006895 
L 306.993804 339.903423 
L 307.144581 352.174167 
L 307.298578 331.152762 
L 307.449306 351.15453 
L 307.601159 329.362889 
L 307.75209 342.971109 
L 307.904307 343.58102 
L 308.05482 343.48239 
L 308.206233 340.498461 
L 308.513586 352.174167 
L 308.668602 337.221879 
L 308.81913 352.174167 
L 308.970642 346.082494 
L 309.121022 345.527514 
L 309.273847 338.526227 
L 309.426095 337.00979 
L 309.576426 352.174167 
L 309.728206 343.049655 
L 309.878804 352.174167 
L 310.028187 352.174167 
L 310.333494 339.105853 
L 310.484128 352.174167 
L 310.635845 336.92326 
L 310.787412 349.63597 
L 310.937449 342.944625 
L 311.239381 347.598895 
L 311.390951 346.065089 
L 311.542891 348.118828 
L 311.693595 346.574179 
L 311.844324 351.150135 
L 311.99493 345.546531 
L 312.145127 352.174167 
L 312.298389 342.59723 
L 312.449863 352.174167 
L 312.600795 340.958168 
L 312.751634 348.083919 
L 312.902469 346.550076 
L 313.055728 346.653052 
L 313.21012 344.677052 
L 313.361947 352.174167 
L 313.514067 345.602937 
L 313.664863 352.174167 
L 313.816328 352.174167 
L 313.969116 344.097955 
L 314.271237 349.123985 
L 314.424075 345.621526 
L 314.576417 346.613895 
L 314.726594 346.541995 
L 314.88004 341.648681 
L 315.031195 350.131973 
L 315.182237 346.056349 
L 315.334466 348.635812 
L 315.485288 345.036713 
L 315.637187 350.140712 
L 316.090478 345.546531 
L 316.393399 351.163208 
L 316.695858 346.073804 
L 316.846958 350.134894 
L 317.150157 345.04691 
L 317.300836 352.174167 
L 317.453007 335.975855 
L 317.60422 351.664349 
L 317.755716 331.839624 
L 318.056551 342.487623 
L 318.209193 341.544025 
L 318.360172 352.174167 
L 318.510599 338.880861 
L 318.663655 348.136061 
L 318.963962 351.662151 
L 319.113857 343.946453 
L 319.263838 352.174167 
L 319.563733 347.552746 
L 319.713818 348.066237 
L 319.863796 351.661414 
L 320.014058 344.985291 
L 320.164437 352.174167 
L 320.315725 347.097773 
L 320.466161 352.174167 
L 320.619046 343.605329 
L 320.773242 352.174167 
L 321.243057 352.174167 
L 321.544264 344.005391 
L 321.69584 352.174167 
L 321.848696 336.548638 
L 322.150645 351.15453 
L 322.302146 342.501461 
L 322.453646 352.174167 
L 322.605361 352.174167 
L 322.756847 342.006895 
L 322.90975 352.174167 
L 323.060934 346.056349 
L 323.212869 351.667249 
L 323.516079 343.036658 
L 323.667555 352.174167 
L 323.819336 349.63597 
L 323.969587 340.397808 
L 324.119948 342.459828 
L 324.270178 347.566026 
L 324.420867 343.981917 
L 324.57107 349.614089 
L 324.721313 343.981917 
L 324.871347 349.097653 
L 325.021384 350.120202 
L 325.171372 344.985291 
L 325.32142 352.174167 
L 325.471318 350.633693 
L 325.621188 340.877361 
L 326.075137 350.146497 
L 326.226656 341.513739 
L 326.37839 352.174167 
L 326.529976 350.137807 
L 326.682951 352.174167 
L 326.833006 342.431873 
L 326.982914 352.174167 
L 327.132878 343.981917 
L 327.437173 349.16265 
L 327.587478 345.036713 
L 327.737794 349.614089 
L 327.889355 344.548713 
L 328.043002 350.668408 
L 328.196682 347.162031 
L 328.350199 350.670526 
L 328.499998 347.559396 
L 328.651053 352.174167 
L 328.802636 352.174167 
L 329.117439 341.522016 
L 329.276637 348.300657 
L 329.435646 350.237412 
L 329.588359 344.109378 
L 329.739 344.051936 
L 329.888978 342.931326 
L 330.040775 345.087405 
L 330.191883 351.665077 
L 330.342828 350.134894 
L 330.493479 340.414704 
L 330.793202 348.579729 
L 330.943168 346.525764 
L 331.093065 346.525764 
L 331.393077 352.174167 
L 331.543448 346.038795 
L 331.693402 344.471799 
L 331.843309 346.525764 
L 331.994276 345.527514 
L 332.144091 352.174167 
L 332.294346 343.97013 
L 332.444796 350.129043 
L 332.594673 347.552746 
L 332.744503 350.63147 
L 333.045035 346.021139 
L 333.195463 346.550076 
L 333.49593 352.174167 
L 333.64589 340.877361 
L 333.795772 342.417835 
L 333.945699 351.660676 
L 334.095489 344.460685 
L 334.246278 352.174167 
L 334.396523 342.431873 
L 334.546525 351.661414 
L 334.696427 352.174167 
L 334.846625 344.995634 
L 335.147532 352.174167 
L 335.299282 340.515069 
L 335.451636 352.174167 
L 336.055612 352.174167 
L 336.356276 340.397808 
L 336.656728 350.126104 
L 336.807198 340.414704 
L 336.957575 348.590057 
L 337.108057 348.072148 
L 337.258863 348.101448 
L 337.409712 351.15307 
L 337.712548 352.174167 
L 337.863512 345.537036 
L 338.013337 352.174167 
L 338.166184 344.109378 
L 338.316415 352.174167 
L 338.466446 344.995634 
L 338.616993 352.174167 
L 338.766984 352.174167 
L 338.917129 349.610405 
L 339.066943 342.417835 
L 339.216885 352.174167 
L 339.366699 340.36387 
L 339.516625 352.174167 
L 339.667583 349.625076 
L 339.817453 349.09322 
L 339.967292 346.525764 
L 340.117635 346.012273 
L 340.417991 348.5849 
L 340.567831 345.489149 
L 340.718242 352.174167 
L 340.868188 343.981917 
L 341.018234 344.471799 
L 341.168111 348.579729 
L 341.317912 348.066237 
L 341.468454 343.469902 
L 341.619356 352.174167 
L 341.770304 352.174167 
L 341.920155 340.877361 
L 342.071961 342.529018 
L 342.221777 342.931326 
L 342.371578 352.174167 
L 342.521587 351.147184 
L 342.671349 339.318364 
L 342.821148 352.174167 
L 342.97143 337.30435 
L 343.27395 352.174167 
L 343.423809 339.832596 
L 343.573748 350.633693 
L 343.724724 344.02873 
L 343.875807 347.075986 
L 344.028798 346.125575 
L 344.181922 352.174167 
L 344.332922 342.006895 
L 344.482837 348.5849 
L 344.632839 340.877361 
L 344.78264 341.889524 
L 344.932523 351.660676 
L 345.082383 341.390853 
L 345.232237 348.06031 
L 345.382163 344.995634 
L 345.532838 346.541995 
L 345.682622 340.36387 
L 345.832734 352.174167 
L 345.986496 347.140793 
L 346.136878 346.056349 
L 346.287841 351.664349 
L 346.588033 343.48239 
L 346.738045 346.003381 
L 346.889018 341.467986 
L 347.040377 352.174167 
L 347.195001 342.691121 
L 347.345606 352.174167 
L 347.496881 342.021379 
L 347.647289 347.572638 
L 347.797682 348.590057 
L 347.949641 350.653415 
L 348.101197 342.006895 
L 348.254819 352.174167 
L 348.408479 341.633857 
L 348.561567 352.174167 
L 348.71224 342.984294 
L 348.862936 352.174167 
L 349.013702 345.026488 
L 349.164563 352.174167 
L 349.315355 344.526895 
L 349.465524 352.174167 
L 349.615849 343.981917 
L 349.766038 352.174167 
L 349.916196 344.482882 
L 350.067017 352.174167 
L 350.67454 352.174167 
L 350.824653 342.417835 
L 350.9747 345.508387 
L 351.125032 340.380864 
L 351.275537 351.661414 
L 351.427307 346.590133 
L 351.578957 351.667249 
L 351.729837 352.174167 
L 351.879981 346.038795 
L 352.03023 348.5849 
L 352.180631 341.933855 
L 352.330897 350.126104 
L 352.631539 347.054011 
L 352.781629 348.078042 
L 352.934382 342.246169 
L 353.08568 352.174167 
L 353.236705 352.174167 
L 353.387292 343.97013 
L 353.538229 352.174167 
L 353.688947 342.473745 
L 353.839618 352.174167 
L 353.990986 352.174167 
L 354.292965 347.061357 
L 354.443915 352.174167 
L 354.594386 352.174167 
L 354.745567 343.51964 
L 354.896132 341.406368 
L 355.046622 347.57923 
L 355.197859 345.555999 
L 355.348285 349.102073 
L 355.498469 347.559396 
L 355.649435 351.15453 
L 355.800066 344.005391 
L 355.950369 344.995634 
L 356.250363 352.174167 
L 356.550163 347.031846 
L 356.700063 350.120202 
L 356.850018 343.444817 
L 357.000137 352.174167 
L 357.150434 347.572638 
L 357.30787 352.174167 
L 357.458956 346.091159 
L 357.609915 352.174167 
L 357.76091 351.15307 
L 357.911872 352.174167 
L 358.062676 350.131973 
L 358.21361 351.664349 
L 358.515204 348.089779 
L 358.669146 347.656891 
L 358.81956 349.625076 
L 358.970175 346.029979 
L 359.121533 351.665803 
L 359.274826 345.157177 
L 359.426167 349.123985 
L 359.577747 350.143609 
L 359.728573 343.469902 
L 360.030108 351.151605 
L 360.330656 352.174167 
L 360.483203 346.613895 
L 360.635697 352.174167 
L 360.788274 352.174167 
L 360.938805 343.993671 
L 361.239839 351.662886 
L 361.390333 344.504952 
L 361.541798 352.174167 
L 361.692167 351.151605 
L 361.842617 347.559396 
L 361.993 351.151605 
L 362.14387 351.662886 
L 362.294388 351.662886 
L 362.745056 347.054011 
L 362.895798 351.151605 
L 363.045914 350.126104 
L 363.196524 351.150135 
L 363.351599 345.703891 
L 363.506304 352.174167 
L 363.660824 345.196432 
L 363.815797 352.174167 
L 363.969366 345.676667 
L 364.119806 350.129043 
L 364.270318 342.971109 
L 364.420546 347.054011 
L 364.570754 348.083919 
L 364.720802 352.174167 
L 365.327338 352.174167 
L 365.48152 344.698023 
L 365.631612 352.174167 
L 365.782693 347.068682 
L 365.933438 350.134894 
L 366.085767 346.605997 
L 366.236094 349.617762 
L 366.388614 347.112194 
L 366.539234 351.15307 
L 366.689488 347.054011 
L 366.840135 351.663618 
L 366.99228 349.132663 
L 367.144645 352.174167 
L 367.295482 352.174167 
L 367.446393 348.60544 
L 367.600627 351.173147 
L 367.751215 345.026488 
L 367.901195 351.660676 
L 368.051927 340.44835 
L 368.357635 352.174167 
L 368.509615 351.666527 
L 368.661369 345.584242 
L 368.817181 352.174167 
L 368.968631 343.062616 
L 369.119532 352.174167 
L 369.271086 346.082494 
L 369.423462 352.174167 
L 369.575397 351.160332 
L 369.726106 352.174167 
L 369.876933 345.527514 
L 370.029408 352.174167 
L 370.18094 345.067215 
L 370.33295 352.174167 
L 370.4844 345.555999 
L 370.635264 352.174167 
L 370.787001 350.655575 
L 370.938033 352.174167 
L 371.092203 346.676282 
L 371.24299 352.174167 
L 371.393107 346.012273 
L 371.544404 346.082494 
L 371.695239 347.57923 
L 371.845268 352.174167 
L 371.995121 343.444817 
L 372.145384 344.482882 
L 372.295628 348.5849 
L 372.446318 341.421839 
L 372.597047 352.174167 
L 372.747315 352.174167 
L 373.051968 338.526227 
L 373.202455 352.174167 
L 373.35292 338.880861 
L 373.506226 352.174167 
L 373.656745 346.550076 
L 373.808651 346.605997 
L 373.958535 341.406368 
L 374.109237 352.174167 
L 374.260089 342.487623 
L 374.410524 352.174167 
L 374.560637 352.174167 
L 374.862989 343.981917 
L 375.013389 341.452648 
L 375.314997 348.615622 
L 375.467833 340.564612 
L 375.618627 348.60544 
L 375.770833 345.593603 
L 375.922181 348.113051 
L 376.072213 346.012273 
L 376.222503 347.572638 
L 376.374868 347.624854 
L 376.525516 345.005948 
L 376.678731 352.174167 
L 376.831851 352.174167 
L 377.134888 344.06349 
L 377.284995 351.151605 
L 377.436489 344.04035 
L 377.587298 352.174167 
L 377.737519 340.397808 
L 377.888155 352.174167 
L 378.038307 342.431873 
L 378.188575 352.174167 
L 378.33847 348.579729 
L 378.4882 351.659935 
L 378.639197 343.48239 
L 378.793731 348.181306 
L 378.94408 343.494842 
L 379.096296 352.174167 
L 379.246644 351.151605 
L 379.402242 352.174167 
L 379.866664 352.174167 
L 380.019213 348.620691 
L 380.170611 342.035821 
L 380.323151 352.174167 
L 380.473044 337.282923 
L 380.622944 352.174167 
L 380.772751 343.432221 
L 380.922969 351.150135 
L 381.073937 345.026488 
L 381.223974 352.174167 
L 381.374605 347.061357 
L 381.526725 352.174167 
L 381.677281 345.537036 
L 381.827433 351.150135 
L 381.978705 345.555999 
L 382.130672 352.174167 
L 382.587519 346.590133 
L 382.738259 341.437266 
L 382.889943 351.665803 
L 383.042306 342.583665 
L 383.194174 351.163208 
L 383.344175 352.174167 
L 383.495388 347.075986 
L 383.798043 349.617762 
L 383.948377 347.559396 
L 384.09983 349.63597 
L 384.251051 346.065089 
L 384.401294 352.174167 
L 384.860481 348.113051 
L 385.014549 352.174167 
L 385.316212 352.174167 
L 385.467455 342.515259 
L 385.61859 352.174167 
L 385.774755 346.226525 
L 385.926308 352.174167 
L 386.077034 345.537036 
L 386.227129 352.174167 
L 386.37981 346.629624 
L 386.530079 351.662151 
L 386.682353 344.570407 
L 386.832877 352.174167 
L 386.983667 342.984294 
L 387.137533 352.174167 
L 387.288282 347.585804 
L 387.439023 352.174167 
L 387.591027 347.104994 
L 387.741476 352.174167 
L 388.044495 348.147468 
L 388.195286 350.134894 
L 388.345309 343.457377 
L 388.497308 352.174167 
L 388.649025 349.12833 
L 388.799418 350.63812 
L 388.950158 346.047585 
L 389.101264 352.174167 
L 389.253892 345.107481 
L 389.40411 352.174167 
L 389.554311 343.457377 
L 389.70514 352.174167 
L 389.855698 349.106481 
L 390.01215 352.174167 
L 390.164528 348.650805 
L 390.314678 352.174167 
L 390.464947 344.471799 
L 390.61477 352.174167 
L 390.765365 350.642521 
L 390.916081 352.174167 
L 391.067336 348.101448 
L 391.219062 352.174167 
L 391.371379 348.635812 
L 391.52254 349.625076 
L 391.676663 349.675128 
L 391.829562 352.174167 
L 391.980595 350.646897 
L 392.133715 346.134118 
L 392.283538 352.174167 
L 392.58757 352.174167 
L 392.742097 344.188444 
L 392.893098 352.174167 
L 393.044842 345.067215 
L 393.198047 352.174167 
L 393.349397 345.56544 
L 393.501342 352.174167 
L 393.651099 348.579729 
L 393.803336 352.174167 
L 394.565835 352.174167 
L 394.716788 341.992371 
L 394.867897 342.473745 
L 395.019753 351.667969 
L 395.173156 350.670526 
L 395.324375 351.664349 
L 395.475695 346.056349 
L 395.626451 349.034406 
L 395.776871 347.075986 
L 395.926887 352.174167 
L 396.077834 346.566168 
L 396.22864 352.174167 
L 396.379365 342.971109 
L 396.530141 352.174167 
L 396.680909 342.984294 
L 396.831785 352.174167 
L 396.982554 348.5952 
L 397.132846 348.078042 
L 397.282969 350.123157 
L 397.434875 348.118828 
L 397.587152 351.667969 
L 397.739512 345.612244 
L 398.043933 352.174167 
L 398.348216 344.581208 
L 398.502181 350.177736 
L 398.652877 346.047585 
L 398.803325 352.174167 
L 398.954192 343.993671 
L 399.108116 352.174167 
L 399.413288 345.621526 
L 399.567044 344.666522 
L 399.720393 346.653052 
L 399.871277 352.174167 
L 400.021691 352.174167 
L 400.172503 334.840351 
L 400.322491 338.823397 
L 400.472326 348.066237 
L 400.623423 343.494842 
L 400.774408 352.174167 
L 400.924511 338.842607 
L 401.075465 350.644712 
L 401.225723 342.957886 
L 401.376281 352.174167 
L 401.528483 345.077325 
L 401.830569 349.119628 
L 401.981387 345.537036 
L 402.132217 352.174167 
L 402.283043 352.174167 
L 402.584016 338.024465 
L 402.733853 347.031846 
L 402.884812 345.546531 
L 403.035204 352.174167 
L 403.186364 340.974191 
L 403.337368 347.075986 
L 403.488279 344.526895 
L 403.638914 348.5952 
L 403.788996 349.097653 
L 404.091841 347.611911 
L 404.244254 348.124589 
L 404.394605 352.174167 
L 404.545002 348.590057 
L 404.696218 348.101448 
L 404.84711 340.958168 
L 404.997907 352.174167 
L 405.148652 345.026488 
L 405.299665 352.174167 
L 405.450561 343.494842 
L 405.601638 351.15453 
L 405.754298 344.591978 
L 405.904804 352.174167 
L 406.056528 345.067215 
L 406.207351 352.174167 
L 406.358652 343.51964 
L 406.508822 352.174167 
L 406.81133 343.494842 
L 406.962357 350.642521 
L 407.113046 339.410454 
L 407.264005 351.155987 
L 407.415087 344.53782 
L 407.566135 352.174167 
L 407.717068 342.487623 
L 407.867838 352.174167 
L 408.01865 345.016233 
L 408.169636 352.174167 
L 408.320499 345.026488 
L 408.471315 352.174167 
L 409.102369 352.174167 
L 409.256283 329.745735 
L 409.557962 347.57923 
L 409.70883 350.134894 
L 409.859753 338.389357 
L 410.164152 349.141291 
L 410.316516 342.583665 
L 410.617425 352.174167 
L 410.768018 342.473745 
L 410.918532 346.533891 
L 411.071687 344.634755 
L 411.224675 345.630781 
L 411.37503 345.016233 
L 411.528239 349.65748 
L 411.679701 340.515069 
L 411.830336 347.572638 
L 411.98091 347.572638 
L 412.131498 352.174167 
L 412.282064 337.858299 
L 412.432769 352.174167 
L 412.583293 341.948547 
L 412.885258 349.123985 
L 413.035443 352.174167 
L 413.185652 346.029979 
L 413.33578 351.661414 
L 413.485695 347.552746 
L 413.635895 351.661414 
L 413.785913 342.931326 
L 414.087292 348.610538 
L 414.238335 344.515939 
L 414.389301 352.174167 
L 414.539391 344.504952 
L 414.840721 351.15453 
L 414.991231 347.061357 
L 415.14173 352.174167 
L 415.443653 347.054011 
L 415.593634 351.147184 
L 415.744165 350.63812 
L 415.894401 347.566026 
L 416.04499 347.054011 
L 416.195608 349.617762 
L 416.345802 348.078042 
L 416.646251 348.078042 
L 416.796915 347.572638 
L 416.947025 348.590057 
L 417.247716 344.482882 
L 417.397919 348.078042 
L 417.548449 348.078042 
L 417.698542 352.174167 
L 417.848292 337.30435 
L 418.004056 351.676453 
L 418.155643 343.075541 
L 418.30595 352.174167 
L 418.456532 334.253621 
L 418.60712 352.174167 
L 418.757393 333.741605 
L 418.907888 352.174167 
L 419.058271 336.813699 
L 419.208662 352.174167 
L 419.508967 345.508387 
L 419.659456 340.909824 
L 419.809409 352.174167 
L 419.960361 341.437266 
L 420.111861 352.174167 
L 420.26232 343.981917 
L 420.413113 344.504952 
L 420.562949 346.541995 
L 420.713476 352.174167 
L 420.864189 346.558133 
L 421.014865 347.068682 
L 421.165243 349.102073 
L 421.317616 343.062616 
L 421.46924 352.174167 
L 421.619265 346.541995 
L 421.770003 352.174167 
L 421.920958 349.115258 
L 422.072018 350.140712 
L 422.223123 348.095622 
L 422.374503 349.115258 
L 422.526095 342.529018 
L 422.677053 352.174167 
L 422.978266 348.089779 
L 423.129284 352.174167 
L 423.900948 352.174167 
L 424.0531 345.097457 
L 424.20492 352.174167 
L 424.356119 341.498532 
L 424.50671 352.174167 
L 424.657272 332.234208 
L 424.807858 352.174167 
L 424.958177 337.83773 
L 425.109837 350.651248 
L 425.260373 341.452648 
L 425.41072 352.174167 
L 425.561179 346.533891 
L 425.71171 350.642521 
L 425.863155 351.155987 
L 426.014011 350.131973 
L 426.16448 345.527514 
L 426.316775 352.174167 
L 426.46697 349.102073 
L 426.61762 351.151605 
L 426.767894 343.469902 
L 426.91834 351.150135 
L 427.068872 343.48239 
L 427.219906 348.5952 
L 427.370811 346.574179 
L 427.521271 350.129043 
L 427.67163 350.63812 
L 427.822 352.174167 
L 427.97218 345.508387 
L 428.125447 352.174167 
L 428.276185 345.04691 
L 428.426561 352.174167 
L 428.727216 348.078042 
L 428.87798 351.662886 
L 429.02839 345.517964 
L 429.178643 352.174167 
L 429.329864 349.628718 
L 429.481047 350.646897 
L 429.631749 347.061357 
L 429.782295 351.662886 
L 429.935775 343.114094 
L 430.086701 352.174167 
L 430.23853 352.174167 
L 430.540869 348.095622 
L 430.690994 349.617762 
L 430.841485 348.072148 
L 431.142726 341.963197 
L 431.293635 350.129043 
L 431.44481 344.559576 
L 431.598072 352.174167 
L 431.751048 351.168912 
L 431.901927 341.977805 
L 432.204407 351.158888 
L 432.3548 347.566026 
L 432.505286 352.174167 
L 432.656067 344.515939 
L 432.807703 347.097773 
L 432.958516 346.038795 
L 433.108745 352.174167 
L 433.258843 352.174167 
L 433.409358 338.36958 
L 433.559306 351.147184 
L 433.709979 341.452648 
L 434.010613 350.123157 
L 434.160353 345.489149 
L 434.310932 352.174167 
L 434.762624 349.614089 
L 434.913178 343.48239 
L 435.063348 351.662151 
L 435.213871 338.329854 
L 435.367517 352.174167 
L 435.518063 343.993671 
L 435.66842 352.174167 
L 435.822793 344.177244 
L 435.973479 352.174167 
L 436.124483 342.473745 
L 436.27533 352.174167 
L 436.425565 347.061357 
L 436.576033 352.174167 
L 436.726952 348.089779 
L 436.878327 351.665803 
L 437.028804 341.933855 
L 437.181011 349.145587 
L 437.331982 346.558133 
L 437.48375 352.174167 
L 437.634165 350.63812 
L 437.784503 351.662151 
L 437.936158 348.355993 
L 438.093336 352.174167 
L 438.554272 352.174167 
L 438.707725 344.154749 
L 438.862303 347.190071 
L 439.012298 345.016233 
L 439.16228 352.174167 
L 439.313373 336.901473 
L 439.465059 352.174167 
L 439.775461 344.790958 
L 440.078833 352.174167 
L 440.228955 334.740588 
L 440.37906 352.174167 
L 440.529675 341.91912 
L 440.681212 348.118828 
L 440.831087 346.525764 
L 440.9811 352.174167 
L 441.131201 352.174167 
L 441.281074 339.850379 
L 441.431883 352.174167 
L 441.581982 352.174167 
L 441.732855 341.437266 
L 441.884068 338.956714 
L 442.035317 351.155987 
L 442.185791 337.347018 
L 442.336651 352.174167 
L 442.487773 352.174167 
L 442.638657 335.836615 
L 442.793488 346.676282 
L 442.945407 346.115447 
L 443.096791 352.174167 
L 443.24821 333.820715 
L 443.549109 351.150135 
L 443.699073 342.431873 
L 443.849483 351.661414 
L 444.001374 343.58102 
L 444.154959 352.174167 
L 444.310953 352.174167 
L 444.46285 349.115258 
L 444.613463 340.958168 
L 444.763717 352.174167 
L 444.915789 339.990821 
L 445.068197 351.16464 
L 445.219495 340.990168 
L 445.370992 349.632349 
L 445.522291 346.574179 
L 445.672898 352.174167 
L 445.823841 345.537036 
L 445.984404 352.174167 
L 446.135344 348.630786 
L 446.286566 352.174167 
L 446.437854 352.174167 
L 446.592015 344.177244 
L 446.743145 352.174167 
L 446.893318 340.414704 
L 447.044554 347.585804 
L 447.197787 341.116363 
L 447.348561 343.494842 
L 447.500378 335.975855 
L 447.65209 347.605412 
L 447.803569 344.548713 
L 447.955408 347.104994 
L 448.106634 352.174167 
L 448.257805 346.056349 
L 448.408683 346.574179 
L 448.560017 352.174167 
L 448.86808 344.086499 
L 449.171878 349.141291 
L 449.476123 343.062616 
L 449.62714 350.644712 
L 449.777352 344.995634 
L 449.933857 349.70628 
L 450.085703 346.613895 
L 450.237432 346.590133 
L 450.388927 347.104994 
L 450.540132 351.665077 
L 450.69132 346.566168 
L 450.842759 350.646897 
L 450.994237 346.082494 
L 451.145377 352.174167 
L 451.298065 345.612244 
L 451.448789 352.174167 
L 451.600472 350.649076 
L 451.751548 351.665077 
L 451.90229 348.600327 
L 452.05304 352.174167 
L 452.209031 343.240279 
L 452.365389 350.205311 
L 452.516354 346.590133 
L 452.666935 352.174167 
L 453.126635 352.174167 
L 453.276761 348.590057 
L 453.427579 340.925985 
L 453.73233 352.174167 
L 453.883389 342.997441 
L 454.034226 352.174167 
L 454.185483 352.174167 
L 454.33992 344.210751 
L 454.490395 346.533891 
L 454.641265 338.428742 
L 454.791568 352.174167 
L 454.941668 348.5952 
L 455.091548 339.832596 
L 455.241874 338.842607 
L 455.400274 352.174167 
L 455.551686 346.117008 
L 455.703725 344.570407 
L 455.854556 352.174167 
L 456.004814 341.933855 
L 456.157685 342.583665 
L 456.310227 352.174167 
L 456.465785 342.23378 
L 456.61816 352.174167 
L 456.770049 352.174167 
L 456.92052 345.016233 
L 457.073154 345.107481 
L 457.22935 344.739615 
L 457.383137 352.174167 
L 457.536909 342.149895 
L 457.690592 347.66958 
L 457.844228 344.154749 
L 457.995059 347.083269 
L 458.145956 346.047585 
L 458.29596 346.021139 
L 458.446654 346.550076 
L 458.59754 352.174167 
L 458.747747 351.150135 
L 458.897833 348.590057 
L 459.047736 352.174167 
L 459.347498 343.444817 
L 459.497352 350.633693 
L 459.647487 352.174167 
L 459.797637 343.444817 
L 459.949512 344.04035 
L 460.100839 350.653415 
L 460.250891 343.457377 
L 460.550831 348.06031 
L 460.700798 349.610405 
L 460.850698 343.946453 
L 461.000676 352.174167 
L 461.150578 344.471799 
L 461.301383 352.174167 
L 461.451647 343.981917 
L 461.601837 352.174167 
L 461.751975 341.91912 
L 461.902155 350.63812 
L 462.052182 346.012273 
L 462.202164 352.174167 
L 462.352134 347.039255 
L 462.502178 351.660676 
L 462.65211 342.417835 
L 462.8027 348.083919 
L 462.952767 347.559396 
L 463.102712 343.958308 
L 463.252736 351.147184 
L 463.402779 352.174167 
L 463.552974 343.457377 
L 463.704059 346.056349 
L 463.85495 344.017077 
L 464.004824 352.174167 
L 464.155448 338.349746 
L 464.457951 347.112194 
L 464.60807 342.957886 
L 464.758079 351.660676 
L 464.908024 351.147184 
L 465.05789 343.444817 
L 465.207756 352.174167 
L 465.35779 346.525764 
L 465.507718 347.552746 
L 465.660935 349.661029 
L 465.813709 345.097457 
L 465.964044 352.174167 
L 466.114703 344.504952 
L 466.265104 352.174167 
L 466.415364 346.541995 
L 466.565785 352.174167 
L 466.718247 348.635812 
L 466.868696 352.174167 
L 467.020265 346.582167 
L 467.170959 352.174167 
L 467.951579 352.174167 
L 468.253735 337.389442 
L 468.40392 352.174167 
L 468.55467 339.921003 
L 468.704985 352.174167 
L 468.855828 345.537036 
L 469.006357 352.174167 
L 469.156517 346.029979 
L 469.307166 352.174167 
L 469.458847 345.067215 
L 469.609338 352.174167 
L 469.76062 349.115258 
L 469.911612 352.174167 
L 470.062136 347.572638 
L 470.212712 352.174167 
L 470.363082 350.63812 
L 470.513394 352.174167 
L 470.664314 344.493933 
L 470.814952 352.174167 
L 470.965225 350.63812 
L 471.115896 347.572638 
L 471.417749 351.667249 
L 471.56824 342.459828 
L 471.719059 349.106481 
L 471.869591 347.57923 
L 472.020013 352.174167 
L 472.170537 345.527514 
L 472.320803 352.174167 
L 472.471215 349.102073 
L 472.621683 352.174167 
L 472.772878 348.610538 
L 472.922923 350.63591 
L 473.073095 351.148662 
L 473.223886 352.174167 
L 473.374499 342.459828 
L 473.524458 344.995634 
L 473.674978 351.150135 
L 473.824929 342.417835 
L 473.975262 352.174167 
L 474.125493 342.944625 
L 474.276772 352.174167 
L 474.428255 338.956714 
L 474.586666 352.174167 
L 474.738957 341.589131 
L 474.889654 350.642521 
L 475.041818 347.624854 
L 475.193954 348.124589 
L 475.343897 346.533891 
L 475.493596 352.174167 
L 475.645154 340.958168 
L 475.794982 352.174167 
L 475.946261 341.467986 
L 476.250487 349.646771 
L 476.550135 344.471799 
L 476.70119 352.174167 
L 476.851252 347.552746 
L 477.004118 352.174167 
L 477.154213 349.097653 
L 477.304277 351.661414 
L 477.454158 346.525764 
L 477.603875 351.145702 
L 477.753734 348.06031 
L 477.903672 347.552746 
L 478.053411 350.63147 
L 478.205531 345.077325 
L 478.364097 351.19783 
L 478.51508 346.598076 
L 478.664923 352.174167 
L 478.814812 343.946453 
L 478.965665 352.174167 
L 479.115349 347.031846 
L 479.265038 352.174167 
L 479.414643 345.489149 
L 479.566183 352.174167 
L 479.716598 339.903423 
L 479.867496 352.174167 
L 480.017466 342.944625 
L 480.167509 348.066237 
L 480.317471 343.958308 
L 480.467425 352.174167 
L 480.617304 342.917989 
L 480.770697 352.174167 
L 480.924076 344.154749 
L 481.074252 348.5952 
L 481.224974 347.566026 
L 481.375487 343.48239 
L 481.52651 348.60544 
L 481.678263 349.123985 
L 481.829728 348.113051 
L 481.988169 352.174167 
L 482.606589 352.174167 
L 482.908092 341.992371 
L 483.059006 351.664349 
L 483.209942 342.473745 
L 483.361755 352.174167 
L 483.512621 345.546531 
L 483.663464 352.174167 
L 483.814335 348.600327 
L 483.965431 352.174167 
L 484.115395 349.097653 
L 484.265891 352.174167 
L 484.416105 346.029979 
L 484.566647 352.174167 
L 484.716974 352.174167 
L 484.867034 343.97013 
L 485.018291 349.115258 
L 485.168746 348.072148 
L 485.469686 348.083919 
L 485.620347 346.047585 
L 485.770352 352.174167 
L 485.92068 351.662151 
L 486.07077 344.995634 
L 486.220817 350.633693 
L 486.520665 348.579729 
L 486.670517 343.946453 
L 486.820478 347.552746 
L 486.970347 344.471799 
L 487.121051 347.068682 
L 487.271972 347.57923 
L 487.426914 351.177347 
L 487.577924 347.592359 
L 487.730376 351.669403 
L 487.880718 352.174167 
L 488.031002 352.174167 
L 488.181149 345.527514 
L 488.331454 352.174167 
L 488.482118 348.600327 
L 488.639388 352.174167 
L 488.789494 350.134894 
L 488.939554 352.174167 
L 489.08958 346.021139 
L 489.239905 352.174167 
L 489.390996 345.036713 
L 489.540852 352.174167 
L 489.69094 351.660676 
L 489.842359 352.174167 
L 489.992513 346.541995 
L 490.14253 352.174167 
L 490.293402 348.600327 
L 490.44349 352.174167 
L 490.593348 349.606711 
L 490.743286 352.174167 
L 490.893231 350.120202 
L 491.043166 352.174167 
L 491.1929 346.003381 
L 491.344028 345.546531 
L 491.494223 348.5849 
L 491.794201 346.525764 
L 491.944124 351.147184 
L 492.094078 347.039255 
L 492.24383 352.174167 
L 492.394157 346.012273 
L 492.545476 352.174167 
L 492.848325 342.487623 
L 493.149663 352.174167 
L 493.299759 352.174167 
L 493.452268 341.544025 
L 493.602295 352.174167 
L 493.752453 341.91912 
L 493.902598 352.174167 
L 494.054629 348.625746 
L 494.209223 352.174167 
L 494.361184 348.124589 
L 494.511576 352.174167 
L 494.662181 346.550076 
L 494.812385 352.174167 
L 494.962371 344.985291 
L 495.112785 352.174167 
L 495.263186 347.054011 
L 495.417109 352.174167 
L 495.571009 341.678206 
L 495.571009 341.678206 
" style="fill:none;stroke:#1f77b4;stroke-linecap:square;stroke-width:1.5;"/>
   </g>
   <g id="patch_3">
    <path d="M 66.158594 352.174167 
L 66.158594 35.0625 
" style="fill:none;stroke:#000000;stroke-linecap:square;stroke-linejoin:miter;stroke-width:0.8;"/>
   </g>
   <g id="patch_4">
    <path d="M 516.019219 352.174167 
L 516.019219 35.0625 
" style="fill:none;stroke:#000000;stroke-linecap:square;stroke-linejoin:miter;stroke-width:0.8;"/>
   </g>
   <g id="patch_5">
    <path d="M 66.158594 352.174167 
L 516.019219 352.174167 
" style="fill:none;stroke:#000000;stroke-linecap:square;stroke-linejoin:miter;stroke-width:0.8;"/>
   </g>
   <g id="patch_6">
    <path d="M 66.158594 35.0625 
L 516.019219 35.0625 
" style="fill:none;stroke:#000000;stroke-linecap:square;stroke-linejoin:miter;stroke-width:0.8;"/>
   </g>
   <g id="legend_1">
    <g id="patch_7">
     <path d="M 540.51225 53.01875 
L 620.748187 53.01875 
Q 622.748187 53.01875 622.748187 51.01875 
L 622.748187 37.0625 
Q 622.748187 35.0625 620.748187 35.0625 
L 540.51225 35.0625 
Q 538.51225 35.0625 538.51225 37.0625 
L 538.51225 51.01875 
Q 538.51225 53.01875 540.51225 53.01875 
z
" style="fill:#ffffff;opacity:0.8;stroke:#cccccc;stroke-linejoin:miter;"/>
    </g>
    <g id="line2d_17">
     <path d="M 542.51225 43.160937 
L 562.51225 43.160937 
" style="fill:none;stroke:#1f77b4;stroke-linecap:square;stroke-width:1.5;"/>
    </g>
    <g id="line2d_18"/>
    <g id="text_17">
     <!-- drop_rate -->
     <defs>
      <path d="M 50.984375 -16.609375 
L 50.984375 -23.578125 
L -0.984375 -23.578125 
L -0.984375 -16.609375 
z
" id="DejaVuSans-95"/>
     </defs>
     <g transform="translate(570.51225 46.660937)scale(0.1 -0.1)">
      <use xlink:href="#DejaVuSans-100"/>
      <use x="63.476562" xlink:href="#DejaVuSans-114"/>
      <use x="104.558594" xlink:href="#DejaVuSans-111"/>
      <use x="165.740234" xlink:href="#DejaVuSans-112"/>
      <use x="229.216797" xlink:href="#DejaVuSans-95"/>
      <use x="279.216797" xlink:href="#DejaVuSans-114"/>
      <use x="320.330078" xlink:href="#DejaVuSans-97"/>
      <use x="381.609375" xlink:href="#DejaVuSans-116"/>
      <use x="420.818359" xlink:href="#DejaVuSans-101"/>
     </g>
    </g>
   </g>
  </g>
  <g id="text_18">
   <!-- result droprate -->
   <defs>
    <path d="M 44.28125 53.078125 
L 44.28125 44.578125 
Q 40.484375 46.53125 36.375 47.5 
Q 32.28125 48.484375 27.875 48.484375 
Q 21.1875 48.484375 17.84375 46.4375 
Q 14.5 44.390625 14.5 40.28125 
Q 14.5 37.15625 16.890625 35.375 
Q 19.28125 33.59375 26.515625 31.984375 
L 29.59375 31.296875 
Q 39.15625 29.25 43.1875 25.515625 
Q 47.21875 21.78125 47.21875 15.09375 
Q 47.21875 7.46875 41.1875 3.015625 
Q 35.15625 -1.421875 24.609375 -1.421875 
Q 20.21875 -1.421875 15.453125 -0.5625 
Q 10.6875 0.296875 5.421875 2 
L 5.421875 11.28125 
Q 10.40625 8.6875 15.234375 7.390625 
Q 20.0625 6.109375 24.8125 6.109375 
Q 31.15625 6.109375 34.5625 8.28125 
Q 37.984375 10.453125 37.984375 14.40625 
Q 37.984375 18.0625 35.515625 20.015625 
Q 33.0625 21.96875 24.703125 23.78125 
L 21.578125 24.515625 
Q 13.234375 26.265625 9.515625 29.90625 
Q 5.8125 33.546875 5.8125 39.890625 
Q 5.8125 47.609375 11.28125 51.796875 
Q 16.75 56 26.8125 56 
Q 31.78125 56 36.171875 55.265625 
Q 40.578125 54.546875 44.28125 53.078125 
z
" id="DejaVuSans-115"/>
    <path d="M 8.5 21.578125 
L 8.5 54.6875 
L 17.484375 54.6875 
L 17.484375 21.921875 
Q 17.484375 14.15625 20.5 10.265625 
Q 23.53125 6.390625 29.59375 6.390625 
Q 36.859375 6.390625 41.078125 11.03125 
Q 45.3125 15.671875 45.3125 23.6875 
L 45.3125 54.6875 
L 54.296875 54.6875 
L 54.296875 0 
L 45.3125 0 
L 45.3125 8.40625 
Q 42.046875 3.421875 37.71875 1 
Q 33.40625 -1.421875 27.6875 -1.421875 
Q 18.265625 -1.421875 13.375 4.4375 
Q 8.5 10.296875 8.5 21.578125 
z
M 31.109375 56 
z
" id="DejaVuSans-117"/>
    <path d="M 9.421875 75.984375 
L 18.40625 75.984375 
L 18.40625 0 
L 9.421875 0 
z
" id="DejaVuSans-108"/>
    <path id="DejaVuSans-32"/>
   </defs>
   <g transform="translate(297.047813 17.038125)scale(0.12 -0.12)">
    <use xlink:href="#DejaVuSans-114"/>
    <use x="41.082031" xlink:href="#DejaVuSans-101"/>
    <use x="102.605469" xlink:href="#DejaVuSans-115"/>
    <use x="154.705078" xlink:href="#DejaVuSans-117"/>
    <use x="218.083984" xlink:href="#DejaVuSans-108"/>
    <use x="245.867188" xlink:href="#DejaVuSans-116"/>
    <use x="285.076172" xlink:href="#DejaVuSans-32"/>
    <use x="316.863281" xlink:href="#DejaVuSans-100"/>
    <use x="380.339844" xlink:href="#DejaVuSans-114"/>
    <use x="421.421875" xlink:href="#DejaVuSans-111"/>
    <use x="482.603516" xlink:href="#DejaVuSans-112"/>
    <use x="546.080078" xlink:href="#DejaVuSans-114"/>
    <use x="587.193359" xlink:href="#DejaVuSans-97"/>
    <use x="648.472656" xlink:href="#DejaVuSans-116"/>
    <use x="687.681641" xlink:href="#DejaVuSans-101"/>
   </g>
  </g>
 </g>
 <defs>
  <clipPath id="pe7196bd0e7">
   <rect height="317.111667" width="449.860625" x="66.158594" y="35.0625"/>
  </clipPath>
 </defs>
</svg>
