<?xml version="1.0" encoding="utf-8" standalone="no"?>
<!DOCTYPE svg PUBLIC "-//W3C//DTD SVG 1.1//EN"
  "http://www.w3.org/Graphics/SVG/1.1/DTD/svg11.dtd">
<!-- Created with matplotlib (https://matplotlib.org/) -->
<svg height="396pt" version="1.1" viewBox="0 0 684 396" width="684pt" xmlns="http://www.w3.org/2000/svg" xmlns:xlink="http://www.w3.org/1999/xlink">
 <defs>
  <style type="text/css">
*{stroke-linecap:butt;stroke-linejoin:round;}
  </style>
 </defs>
 <g id="figure_1">
  <g id="patch_1">
   <path d="M 0 396 
L 684 396 
L 684 0 
L 0 0 
z
" style="fill:#ffffff;"/>
  </g>
  <g id="axes_1">
   <g id="patch_2">
    <path d="M 56.807031 352.174167 
L 516.019219 352.174167 
L 516.019219 35.0625 
L 56.807031 35.0625 
z
" style="fill:#ffffff;"/>
   </g>
   <g id="matplotlib.axis_1">
    <g id="xtick_1">
     <g id="line2d_1">
      <defs>
       <path d="M 0 0 
L 0 3.5 
" id="m01fc2b8f54" style="stroke:#000000;stroke-width:0.8;"/>
      </defs>
      <g>
       <use style="stroke:#000000;stroke-width:0.8;" x="81.831496" xlink:href="#m01fc2b8f54" y="352.174167"/>
      </g>
     </g>
     <g id="text_1">
      <!-- 0 -->
      <defs>
       <path d="M 31.78125 66.40625 
Q 24.171875 66.40625 20.328125 58.90625 
Q 16.5 51.421875 16.5 36.375 
Q 16.5 21.390625 20.328125 13.890625 
Q 24.171875 6.390625 31.78125 6.390625 
Q 39.453125 6.390625 43.28125 13.890625 
Q 47.125 21.390625 47.125 36.375 
Q 47.125 51.421875 43.28125 58.90625 
Q 39.453125 66.40625 31.78125 66.40625 
z
M 31.78125 74.21875 
Q 44.046875 74.21875 50.515625 64.515625 
Q 56.984375 54.828125 56.984375 36.375 
Q 56.984375 17.96875 50.515625 8.265625 
Q 44.046875 -1.421875 31.78125 -1.421875 
Q 19.53125 -1.421875 13.0625 8.265625 
Q 6.59375 17.96875 6.59375 36.375 
Q 6.59375 54.828125 13.0625 64.515625 
Q 19.53125 74.21875 31.78125 74.21875 
z
" id="DejaVuSans-48"/>
      </defs>
      <g transform="translate(78.650246 366.772604)scale(0.1 -0.1)">
       <use xlink:href="#DejaVuSans-48"/>
      </g>
     </g>
    </g>
    <g id="xtick_2">
     <g id="line2d_2">
      <g>
       <use style="stroke:#000000;stroke-width:0.8;" x="154.436762" xlink:href="#m01fc2b8f54" y="352.174167"/>
      </g>
     </g>
     <g id="text_2">
      <!-- 50 -->
      <defs>
       <path d="M 10.796875 72.90625 
L 49.515625 72.90625 
L 49.515625 64.59375 
L 19.828125 64.59375 
L 19.828125 46.734375 
Q 21.96875 47.46875 24.109375 47.828125 
Q 26.265625 48.1875 28.421875 48.1875 
Q 40.625 48.1875 47.75 41.5 
Q 54.890625 34.8125 54.890625 23.390625 
Q 54.890625 11.625 47.5625 5.09375 
Q 40.234375 -1.421875 26.90625 -1.421875 
Q 22.3125 -1.421875 17.546875 -0.640625 
Q 12.796875 0.140625 7.71875 1.703125 
L 7.71875 11.625 
Q 12.109375 9.234375 16.796875 8.0625 
Q 21.484375 6.890625 26.703125 6.890625 
Q 35.15625 6.890625 40.078125 11.328125 
Q 45.015625 15.765625 45.015625 23.390625 
Q 45.015625 31 40.078125 35.4375 
Q 35.15625 39.890625 26.703125 39.890625 
Q 22.75 39.890625 18.8125 39.015625 
Q 14.890625 38.140625 10.796875 36.28125 
z
" id="DejaVuSans-53"/>
      </defs>
      <g transform="translate(148.074262 366.772604)scale(0.1 -0.1)">
       <use xlink:href="#DejaVuSans-53"/>
       <use x="63.623047" xlink:href="#DejaVuSans-48"/>
      </g>
     </g>
    </g>
    <g id="xtick_3">
     <g id="line2d_3">
      <g>
       <use style="stroke:#000000;stroke-width:0.8;" x="227.042028" xlink:href="#m01fc2b8f54" y="352.174167"/>
      </g>
     </g>
     <g id="text_3">
      <!-- 100 -->
      <defs>
       <path d="M 12.40625 8.296875 
L 28.515625 8.296875 
L 28.515625 63.921875 
L 10.984375 60.40625 
L 10.984375 69.390625 
L 28.421875 72.90625 
L 38.28125 72.90625 
L 38.28125 8.296875 
L 54.390625 8.296875 
L 54.390625 0 
L 12.40625 0 
z
" id="DejaVuSans-49"/>
      </defs>
      <g transform="translate(217.498278 366.772604)scale(0.1 -0.1)">
       <use xlink:href="#DejaVuSans-49"/>
       <use x="63.623047" xlink:href="#DejaVuSans-48"/>
       <use x="127.246094" xlink:href="#DejaVuSans-48"/>
      </g>
     </g>
    </g>
    <g id="xtick_4">
     <g id="line2d_4">
      <g>
       <use style="stroke:#000000;stroke-width:0.8;" x="299.647294" xlink:href="#m01fc2b8f54" y="352.174167"/>
      </g>
     </g>
     <g id="text_4">
      <!-- 150 -->
      <g transform="translate(290.103544 366.772604)scale(0.1 -0.1)">
       <use xlink:href="#DejaVuSans-49"/>
       <use x="63.623047" xlink:href="#DejaVuSans-53"/>
       <use x="127.246094" xlink:href="#DejaVuSans-48"/>
      </g>
     </g>
    </g>
    <g id="xtick_5">
     <g id="line2d_5">
      <g>
       <use style="stroke:#000000;stroke-width:0.8;" x="372.25256" xlink:href="#m01fc2b8f54" y="352.174167"/>
      </g>
     </g>
     <g id="text_5">
      <!-- 200 -->
      <defs>
       <path d="M 19.1875 8.296875 
L 53.609375 8.296875 
L 53.609375 0 
L 7.328125 0 
L 7.328125 8.296875 
Q 12.9375 14.109375 22.625 23.890625 
Q 32.328125 33.6875 34.8125 36.53125 
Q 39.546875 41.84375 41.421875 45.53125 
Q 43.3125 49.21875 43.3125 52.78125 
Q 43.3125 58.59375 39.234375 62.25 
Q 35.15625 65.921875 28.609375 65.921875 
Q 23.96875 65.921875 18.8125 64.3125 
Q 13.671875 62.703125 7.8125 59.421875 
L 7.8125 69.390625 
Q 13.765625 71.78125 18.9375 73 
Q 24.125 74.21875 28.421875 74.21875 
Q 39.75 74.21875 46.484375 68.546875 
Q 53.21875 62.890625 53.21875 53.421875 
Q 53.21875 48.921875 51.53125 44.890625 
Q 49.859375 40.875 45.40625 35.40625 
Q 44.1875 33.984375 37.640625 27.21875 
Q 31.109375 20.453125 19.1875 8.296875 
z
" id="DejaVuSans-50"/>
      </defs>
      <g transform="translate(362.70881 366.772604)scale(0.1 -0.1)">
       <use xlink:href="#DejaVuSans-50"/>
       <use x="63.623047" xlink:href="#DejaVuSans-48"/>
       <use x="127.246094" xlink:href="#DejaVuSans-48"/>
      </g>
     </g>
    </g>
    <g id="xtick_6">
     <g id="line2d_6">
      <g>
       <use style="stroke:#000000;stroke-width:0.8;" x="444.857826" xlink:href="#m01fc2b8f54" y="352.174167"/>
      </g>
     </g>
     <g id="text_6">
      <!-- 250 -->
      <g transform="translate(435.314076 366.772604)scale(0.1 -0.1)">
       <use xlink:href="#DejaVuSans-50"/>
       <use x="63.623047" xlink:href="#DejaVuSans-53"/>
       <use x="127.246094" xlink:href="#DejaVuSans-48"/>
      </g>
     </g>
    </g>
   </g>
   <g id="matplotlib.axis_2">
    <g id="ytick_1">
     <g id="line2d_7">
      <defs>
       <path d="M 0 0 
L -3.5 0 
" id="me3f9819fe9" style="stroke:#000000;stroke-width:0.8;"/>
      </defs>
      <g>
       <use style="stroke:#000000;stroke-width:0.8;" x="56.807031" xlink:href="#me3f9819fe9" y="352.174167"/>
      </g>
     </g>
     <g id="text_7">
      <!-- 0 -->
      <g transform="translate(43.444531 355.973385)scale(0.1 -0.1)">
       <use xlink:href="#DejaVuSans-48"/>
      </g>
     </g>
    </g>
    <g id="ytick_2">
     <g id="line2d_8">
      <g>
       <use style="stroke:#000000;stroke-width:0.8;" x="56.807031" xlink:href="#me3f9819fe9" y="285.201878"/>
      </g>
     </g>
     <g id="text_8">
      <!-- 2 -->
      <g transform="translate(43.444531 289.001097)scale(0.1 -0.1)">
       <use xlink:href="#DejaVuSans-50"/>
      </g>
     </g>
    </g>
    <g id="ytick_3">
     <g id="line2d_9">
      <g>
       <use style="stroke:#000000;stroke-width:0.8;" x="56.807031" xlink:href="#me3f9819fe9" y="218.22959"/>
      </g>
     </g>
     <g id="text_9">
      <!-- 4 -->
      <defs>
       <path d="M 37.796875 64.3125 
L 12.890625 25.390625 
L 37.796875 25.390625 
z
M 35.203125 72.90625 
L 47.609375 72.90625 
L 47.609375 25.390625 
L 58.015625 25.390625 
L 58.015625 17.1875 
L 47.609375 17.1875 
L 47.609375 0 
L 37.796875 0 
L 37.796875 17.1875 
L 4.890625 17.1875 
L 4.890625 26.703125 
z
" id="DejaVuSans-52"/>
      </defs>
      <g transform="translate(43.444531 222.028808)scale(0.1 -0.1)">
       <use xlink:href="#DejaVuSans-52"/>
      </g>
     </g>
    </g>
    <g id="ytick_4">
     <g id="line2d_10">
      <g>
       <use style="stroke:#000000;stroke-width:0.8;" x="56.807031" xlink:href="#me3f9819fe9" y="151.257301"/>
      </g>
     </g>
     <g id="text_10">
      <!-- 6 -->
      <defs>
       <path d="M 33.015625 40.375 
Q 26.375 40.375 22.484375 35.828125 
Q 18.609375 31.296875 18.609375 23.390625 
Q 18.609375 15.53125 22.484375 10.953125 
Q 26.375 6.390625 33.015625 6.390625 
Q 39.65625 6.390625 43.53125 10.953125 
Q 47.40625 15.53125 47.40625 23.390625 
Q 47.40625 31.296875 43.53125 35.828125 
Q 39.65625 40.375 33.015625 40.375 
z
M 52.59375 71.296875 
L 52.59375 62.3125 
Q 48.875 64.0625 45.09375 64.984375 
Q 41.3125 65.921875 37.59375 65.921875 
Q 27.828125 65.921875 22.671875 59.328125 
Q 17.53125 52.734375 16.796875 39.40625 
Q 19.671875 43.65625 24.015625 45.921875 
Q 28.375 48.1875 33.59375 48.1875 
Q 44.578125 48.1875 50.953125 41.515625 
Q 57.328125 34.859375 57.328125 23.390625 
Q 57.328125 12.15625 50.6875 5.359375 
Q 44.046875 -1.421875 33.015625 -1.421875 
Q 20.359375 -1.421875 13.671875 8.265625 
Q 6.984375 17.96875 6.984375 36.375 
Q 6.984375 53.65625 15.1875 63.9375 
Q 23.390625 74.21875 37.203125 74.21875 
Q 40.921875 74.21875 44.703125 73.484375 
Q 48.484375 72.75 52.59375 71.296875 
z
" id="DejaVuSans-54"/>
      </defs>
      <g transform="translate(43.444531 155.05652)scale(0.1 -0.1)">
       <use xlink:href="#DejaVuSans-54"/>
      </g>
     </g>
    </g>
    <g id="ytick_5">
     <g id="line2d_11">
      <g>
       <use style="stroke:#000000;stroke-width:0.8;" x="56.807031" xlink:href="#me3f9819fe9" y="84.285013"/>
      </g>
     </g>
     <g id="text_11">
      <!-- 8 -->
      <defs>
       <path d="M 31.78125 34.625 
Q 24.75 34.625 20.71875 30.859375 
Q 16.703125 27.09375 16.703125 20.515625 
Q 16.703125 13.921875 20.71875 10.15625 
Q 24.75 6.390625 31.78125 6.390625 
Q 38.8125 6.390625 42.859375 10.171875 
Q 46.921875 13.96875 46.921875 20.515625 
Q 46.921875 27.09375 42.890625 30.859375 
Q 38.875 34.625 31.78125 34.625 
z
M 21.921875 38.8125 
Q 15.578125 40.375 12.03125 44.71875 
Q 8.5 49.078125 8.5 55.328125 
Q 8.5 64.0625 14.71875 69.140625 
Q 20.953125 74.21875 31.78125 74.21875 
Q 42.671875 74.21875 48.875 69.140625 
Q 55.078125 64.0625 55.078125 55.328125 
Q 55.078125 49.078125 51.53125 44.71875 
Q 48 40.375 41.703125 38.8125 
Q 48.828125 37.15625 52.796875 32.3125 
Q 56.78125 27.484375 56.78125 20.515625 
Q 56.78125 9.90625 50.3125 4.234375 
Q 43.84375 -1.421875 31.78125 -1.421875 
Q 19.734375 -1.421875 13.25 4.234375 
Q 6.78125 9.90625 6.78125 20.515625 
Q 6.78125 27.484375 10.78125 32.3125 
Q 14.796875 37.15625 21.921875 38.8125 
z
M 18.3125 54.390625 
Q 18.3125 48.734375 21.84375 45.5625 
Q 25.390625 42.390625 31.78125 42.390625 
Q 38.140625 42.390625 41.71875 45.5625 
Q 45.3125 48.734375 45.3125 54.390625 
Q 45.3125 60.0625 41.71875 63.234375 
Q 38.140625 66.40625 31.78125 66.40625 
Q 25.390625 66.40625 21.84375 63.234375 
Q 18.3125 60.0625 18.3125 54.390625 
z
" id="DejaVuSans-56"/>
      </defs>
      <g transform="translate(43.444531 88.084231)scale(0.1 -0.1)">
       <use xlink:href="#DejaVuSans-56"/>
      </g>
     </g>
    </g>
    <g id="text_12">
     <!-- droprate -->
     <defs>
      <path d="M 45.40625 46.390625 
L 45.40625 75.984375 
L 54.390625 75.984375 
L 54.390625 0 
L 45.40625 0 
L 45.40625 8.203125 
Q 42.578125 3.328125 38.25 0.953125 
Q 33.9375 -1.421875 27.875 -1.421875 
Q 17.96875 -1.421875 11.734375 6.484375 
Q 5.515625 14.40625 5.515625 27.296875 
Q 5.515625 40.1875 11.734375 48.09375 
Q 17.96875 56 27.875 56 
Q 33.9375 56 38.25 53.625 
Q 42.578125 51.265625 45.40625 46.390625 
z
M 14.796875 27.296875 
Q 14.796875 17.390625 18.875 11.75 
Q 22.953125 6.109375 30.078125 6.109375 
Q 37.203125 6.109375 41.296875 11.75 
Q 45.40625 17.390625 45.40625 27.296875 
Q 45.40625 37.203125 41.296875 42.84375 
Q 37.203125 48.484375 30.078125 48.484375 
Q 22.953125 48.484375 18.875 42.84375 
Q 14.796875 37.203125 14.796875 27.296875 
z
" id="DejaVuSans-100"/>
      <path d="M 41.109375 46.296875 
Q 39.59375 47.171875 37.8125 47.578125 
Q 36.03125 48 33.890625 48 
Q 26.265625 48 22.1875 43.046875 
Q 18.109375 38.09375 18.109375 28.8125 
L 18.109375 0 
L 9.078125 0 
L 9.078125 54.6875 
L 18.109375 54.6875 
L 18.109375 46.1875 
Q 20.953125 51.171875 25.484375 53.578125 
Q 30.03125 56 36.53125 56 
Q 37.453125 56 38.578125 55.875 
Q 39.703125 55.765625 41.0625 55.515625 
z
" id="DejaVuSans-114"/>
      <path d="M 30.609375 48.390625 
Q 23.390625 48.390625 19.1875 42.75 
Q 14.984375 37.109375 14.984375 27.296875 
Q 14.984375 17.484375 19.15625 11.84375 
Q 23.34375 6.203125 30.609375 6.203125 
Q 37.796875 6.203125 41.984375 11.859375 
Q 46.1875 17.53125 46.1875 27.296875 
Q 46.1875 37.015625 41.984375 42.703125 
Q 37.796875 48.390625 30.609375 48.390625 
z
M 30.609375 56 
Q 42.328125 56 49.015625 48.375 
Q 55.71875 40.765625 55.71875 27.296875 
Q 55.71875 13.875 49.015625 6.21875 
Q 42.328125 -1.421875 30.609375 -1.421875 
Q 18.84375 -1.421875 12.171875 6.21875 
Q 5.515625 13.875 5.515625 27.296875 
Q 5.515625 40.765625 12.171875 48.375 
Q 18.84375 56 30.609375 56 
z
" id="DejaVuSans-111"/>
      <path d="M 18.109375 8.203125 
L 18.109375 -20.796875 
L 9.078125 -20.796875 
L 9.078125 54.6875 
L 18.109375 54.6875 
L 18.109375 46.390625 
Q 20.953125 51.265625 25.265625 53.625 
Q 29.59375 56 35.59375 56 
Q 45.5625 56 51.78125 48.09375 
Q 58.015625 40.1875 58.015625 27.296875 
Q 58.015625 14.40625 51.78125 6.484375 
Q 45.5625 -1.421875 35.59375 -1.421875 
Q 29.59375 -1.421875 25.265625 0.953125 
Q 20.953125 3.328125 18.109375 8.203125 
z
M 48.6875 27.296875 
Q 48.6875 37.203125 44.609375 42.84375 
Q 40.53125 48.484375 33.40625 48.484375 
Q 26.265625 48.484375 22.1875 42.84375 
Q 18.109375 37.203125 18.109375 27.296875 
Q 18.109375 17.390625 22.1875 11.75 
Q 26.265625 6.109375 33.40625 6.109375 
Q 40.53125 6.109375 44.609375 11.75 
Q 48.6875 17.390625 48.6875 27.296875 
z
" id="DejaVuSans-112"/>
      <path d="M 34.28125 27.484375 
Q 23.390625 27.484375 19.1875 25 
Q 14.984375 22.515625 14.984375 16.5 
Q 14.984375 11.71875 18.140625 8.90625 
Q 21.296875 6.109375 26.703125 6.109375 
Q 34.1875 6.109375 38.703125 11.40625 
Q 43.21875 16.703125 43.21875 25.484375 
L 43.21875 27.484375 
z
M 52.203125 31.203125 
L 52.203125 0 
L 43.21875 0 
L 43.21875 8.296875 
Q 40.140625 3.328125 35.546875 0.953125 
Q 30.953125 -1.421875 24.3125 -1.421875 
Q 15.921875 -1.421875 10.953125 3.296875 
Q 6 8.015625 6 15.921875 
Q 6 25.140625 12.171875 29.828125 
Q 18.359375 34.515625 30.609375 34.515625 
L 43.21875 34.515625 
L 43.21875 35.40625 
Q 43.21875 41.609375 39.140625 45 
Q 35.0625 48.390625 27.6875 48.390625 
Q 23 48.390625 18.546875 47.265625 
Q 14.109375 46.140625 10.015625 43.890625 
L 10.015625 52.203125 
Q 14.9375 54.109375 19.578125 55.046875 
Q 24.21875 56 28.609375 56 
Q 40.484375 56 46.34375 49.84375 
Q 52.203125 43.703125 52.203125 31.203125 
z
" id="DejaVuSans-97"/>
      <path d="M 18.3125 70.21875 
L 18.3125 54.6875 
L 36.8125 54.6875 
L 36.8125 47.703125 
L 18.3125 47.703125 
L 18.3125 18.015625 
Q 18.3125 11.328125 20.140625 9.421875 
Q 21.96875 7.515625 27.59375 7.515625 
L 36.8125 7.515625 
L 36.8125 0 
L 27.59375 0 
Q 17.1875 0 13.234375 3.875 
Q 9.28125 7.765625 9.28125 18.015625 
L 9.28125 47.703125 
L 2.6875 47.703125 
L 2.6875 54.6875 
L 9.28125 54.6875 
L 9.28125 70.21875 
z
" id="DejaVuSans-116"/>
      <path d="M 56.203125 29.59375 
L 56.203125 25.203125 
L 14.890625 25.203125 
Q 15.484375 15.921875 20.484375 11.0625 
Q 25.484375 6.203125 34.421875 6.203125 
Q 39.59375 6.203125 44.453125 7.46875 
Q 49.3125 8.734375 54.109375 11.28125 
L 54.109375 2.78125 
Q 49.265625 0.734375 44.1875 -0.34375 
Q 39.109375 -1.421875 33.890625 -1.421875 
Q 20.796875 -1.421875 13.15625 6.1875 
Q 5.515625 13.8125 5.515625 26.8125 
Q 5.515625 40.234375 12.765625 48.109375 
Q 20.015625 56 32.328125 56 
Q 43.359375 56 49.78125 48.890625 
Q 56.203125 41.796875 56.203125 29.59375 
z
M 47.21875 32.234375 
Q 47.125 39.59375 43.09375 43.984375 
Q 39.0625 48.390625 32.421875 48.390625 
Q 24.90625 48.390625 20.390625 44.140625 
Q 15.875 39.890625 15.1875 32.171875 
z
" id="DejaVuSans-101"/>
     </defs>
     <g transform="translate(37.364844 215.236302)rotate(-90)scale(0.1 -0.1)">
      <use xlink:href="#DejaVuSans-100"/>
      <use x="63.476562" xlink:href="#DejaVuSans-114"/>
      <use x="104.558594" xlink:href="#DejaVuSans-111"/>
      <use x="165.740234" xlink:href="#DejaVuSans-112"/>
      <use x="229.216797" xlink:href="#DejaVuSans-114"/>
      <use x="270.330078" xlink:href="#DejaVuSans-97"/>
      <use x="331.609375" xlink:href="#DejaVuSans-116"/>
      <use x="370.818359" xlink:href="#DejaVuSans-101"/>
     </g>
    </g>
   </g>
   <g id="line2d_12">
    <path clip-path="url(#pa8a4499f08)" d="M 77.680312 352.174167 
L 82.010653 352.174167 
L 82.169708 315.172902 
L 82.487075 352.174167 
L 84.186065 352.174167 
L 84.339843 271.082364 
L 84.493866 352.174167 
L 86.525694 352.174167 
L 86.678616 342.537866 
L 86.83239 352.174167 
L 87.44703 352.174167 
L 87.605087 333.466824 
L 87.758278 352.174167 
L 89.615391 352.174167 
L 89.770626 337.944927 
L 89.926917 352.174167 
L 90.083261 253.685507 
L 90.239567 333.361726 
L 90.393408 352.174167 
L 91.317847 352.174167 
L 91.630542 342.807413 
L 91.784214 352.174167 
L 92.404949 352.174167 
L 92.557925 332.956867 
L 92.714149 352.174167 
L 93.647752 352.174167 
L 93.80178 342.606697 
L 93.955585 352.174167 
L 94.10924 352.174167 
L 94.435895 343.172515 
L 94.599772 352.174167 
L 95.06652 352.174167 
L 95.220574 342.620345 
L 95.373922 352.174167 
L 95.835725 352.174167 
L 95.989807 333.039227 
L 96.143646 352.174167 
L 97.231972 352.174167 
L 97.385357 328.186957 
L 97.539467 352.174167 
L 98.309144 352.174167 
L 98.46423 347.424359 
L 98.619525 347.431087 
L 98.773933 352.174167 
L 99.404051 352.174167 
L 99.557611 337.822962 
L 99.71074 352.174167 
L 100.326536 352.174167 
L 100.480212 342.59301 
L 100.637786 352.174167 
L 101.102128 352.174167 
L 101.255299 347.369842 
L 101.411239 352.174167 
L 101.567077 352.174167 
L 101.721647 342.661058 
L 101.883878 352.174167 
L 102.35043 352.174167 
L 102.505509 342.714804 
L 102.65922 352.174167 
L 103.119883 352.174167 
L 103.273291 342.565517 
L 103.426734 352.174167 
L 103.745038 352.174167 
L 104.057181 342.84655 
L 104.2107 352.174167 
L 105.298006 352.174167 
L 105.452133 328.289613 
L 105.606262 352.174167 
L 106.2234 352.174167 
L 106.377712 347.397256 
L 106.535819 347.510358 
L 106.689544 352.174167 
L 107.153177 352.174167 
L 107.310854 342.807413 
L 107.468108 352.174167 
L 107.776406 352.174167 
L 107.932863 333.308733 
L 108.08672 352.174167 
L 109.172109 352.174167 
L 109.326723 333.120884 
L 109.482337 352.174167 
L 110.571342 352.174167 
L 110.727647 338.025092 
L 110.88118 352.174167 
L 111.65091 352.174167 
L 111.961949 342.701424 
L 112.115431 352.174167 
L 112.734188 352.174167 
L 112.887738 328.186957 
L 113.041392 352.174167 
L 114.294969 352.174167 
L 114.604128 342.674551 
L 114.760435 352.174167 
L 115.228512 352.174167 
L 115.384234 342.728146 
L 115.538958 352.174167 
L 116.155561 352.174167 
L 116.309181 337.802431 
L 116.462792 352.174167 
L 117.241757 352.174167 
L 117.395703 342.59301 
L 117.550882 352.174167 
L 118.168827 352.174167 
L 118.326069 338.182741 
L 118.481682 352.174167 
L 119.263482 352.174167 
L 119.572782 342.620345 
L 119.728626 352.174167 
L 120.349494 352.174167 
L 120.502831 337.802431 
L 120.658188 352.174167 
L 121.281602 352.174167 
L 121.437782 328.592375 
L 121.592332 352.174167 
L 122.528472 352.174167 
L 122.682354 337.863849 
L 122.835837 352.174167 
L 123.621083 352.174167 
L 123.775982 342.661058 
L 123.929529 352.174167 
L 124.551372 352.174167 
L 124.705701 333.093743 
L 124.861935 352.174167 
L 125.954387 352.174167 
L 126.108442 333.093743 
L 126.263485 352.174167 
L 126.727128 352.174167 
L 126.883449 342.74145 
L 127.039154 352.174167 
L 127.813689 352.174167 
L 127.967228 332.984399 
L 128.121528 352.174167 
L 129.209123 352.174167 
L 129.363552 342.647525 
L 129.517423 352.174167 
L 129.671146 352.174167 
L 129.980477 337.843434 
L 130.13758 352.174167 
L 131.374417 352.174167 
L 131.52737 342.551711 
L 131.680013 352.174167 
L 131.832491 352.174167 
L 131.987326 347.404061 
L 132.142195 352.174167 
L 132.298106 352.174167 
L 132.45074 347.369842 
L 132.604596 352.174167 
L 132.759169 352.174167 
L 132.911787 342.537866 
L 133.064222 352.174167 
L 133.371546 352.174167 
L 133.529946 333.414422 
L 133.682541 352.174167 
L 134.610543 352.174167 
L 134.763159 342.551711 
L 134.915946 342.523981 
L 135.068556 352.174167 
L 135.994397 352.174167 
L 136.147194 328.083415 
L 136.300901 352.174167 
L 137.376192 352.174167 
L 137.529752 333.011852 
L 137.688353 352.174167 
L 138.300955 352.174167 
L 138.453982 342.565517 
L 138.60702 352.174167 
L 138.76222 352.174167 
L 138.914887 347.362939 
L 139.06752 352.174167 
L 139.221238 352.174167 
L 139.530618 342.674551 
L 139.684124 352.174167 
L 140.299926 352.174167 
L 140.452678 332.901566 
L 140.605206 352.174167 
L 141.528322 352.174167 
L 141.681025 328.221274 
L 141.833734 347.349074 
L 141.986345 352.174167 
L 142.907538 352.174167 
L 143.060195 342.551711 
L 143.212781 342.523981 
L 143.365439 352.174167 
L 143.823422 352.174167 
L 143.975988 342.510056 
L 144.128742 352.174167 
L 144.741323 352.174167 
L 144.893942 347.349074 
L 145.047384 352.174167 
L 145.200904 352.174167 
L 145.354963 342.620345 
L 145.508979 352.174167 
L 146.280969 352.174167 
L 146.434521 342.579283 
L 146.588167 352.174167 
L 147.206532 352.174167 
L 147.36102 337.863849 
L 147.515287 352.174167 
L 148.598559 352.174167 
L 148.753597 347.444485 
L 148.907165 352.174167 
L 149.060863 352.174167 
L 149.213517 342.537866 
L 149.367576 352.174167 
L 149.991395 352.174167 
L 150.146764 333.255441 
L 150.303513 352.174167 
L 150.769197 352.174167 
L 150.925969 342.767946 
L 151.078635 352.174167 
L 151.383808 352.174167 
L 151.539452 347.431087 
L 151.6922 352.174167 
L 151.844884 352.174167 
L 151.997525 347.349074 
L 152.149985 337.698888 
L 152.30256 352.174167 
L 152.917274 352.174167 
L 153.070541 337.822962 
L 153.223117 352.174167 
L 153.989389 352.174167 
L 154.146527 338.084625 
L 154.299213 352.174167 
L 154.914376 352.174167 
L 155.066899 337.698888 
L 155.220706 352.174167 
L 155.846698 352.174167 
L 156.000162 323.430695 
L 156.153883 352.174167 
L 157.237674 352.174167 
L 157.393642 328.559114 
L 157.548768 352.174167 
L 158.635247 352.174167 
L 158.788326 323.348218 
L 158.944723 352.174167 
L 160.188136 352.174167 
L 160.343452 347.437795 
L 160.498877 352.174167 
L 160.652401 352.174167 
L 160.805827 347.376725 
L 160.961844 352.174167 
L 161.11612 352.174167 
L 161.269566 342.59301 
L 161.423 352.174167 
L 161.730445 352.174167 
L 161.885747 337.985122 
L 162.044177 352.174167 
L 162.351268 352.174167 
L 162.506156 347.417612 
L 162.661024 352.174167 
L 162.814037 352.174167 
L 162.967695 347.376725 
L 163.12289 333.201847 
L 163.276839 352.174167 
L 164.046213 352.174167 
L 164.199657 337.781841 
L 164.353121 352.174167 
L 164.813889 352.174167 
L 164.967443 337.781841 
L 165.121738 352.174167 
L 165.735427 352.174167 
L 165.88892 342.579283 
L 166.042534 352.174167 
L 166.503229 352.174167 
L 166.656691 347.369842 
L 166.81106 352.174167 
L 167.270538 352.174167 
L 167.423771 337.761192 
L 167.577478 352.174167 
L 168.349879 352.174167 
L 168.502872 328.118029 
L 168.658625 352.174167 
L 170.042758 352.174167 
L 170.195385 323.22361 
L 170.350338 352.174167 
L 171.435275 352.174167 
L 171.588379 328.152542 
L 171.741062 352.174167 
L 172.658117 352.174167 
L 172.814222 337.985122 
L 172.971694 352.174167 
L 173.595513 352.174167 
L 173.748947 332.984399 
L 173.903573 352.174167 
L 174.992215 352.174167 
L 175.145393 337.802431 
L 175.300069 352.174167 
L 175.456659 347.444485 
L 175.614664 352.174167 
L 175.928407 352.174167 
L 176.083646 337.944927 
L 176.240212 352.174167 
L 176.396534 347.477653 
L 176.550024 347.369842 
L 176.709921 352.174167 
L 177.174134 352.174167 
L 177.329009 337.863849 
L 177.484553 352.174167 
L 177.955511 352.174167 
L 178.109197 337.802431 
L 178.263313 352.174167 
L 179.037326 352.174167 
L 179.192254 337.904503 
L 179.345887 352.174167 
L 180.115555 352.174167 
L 180.270047 328.357563 
L 180.424316 352.174167 
L 181.349522 352.174167 
L 181.502117 328.118029 
L 181.655471 352.174167 
L 182.738398 352.174167 
L 182.89242 337.843434 
L 183.045454 352.174167 
L 183.816785 352.174167 
L 183.969395 332.873795 
L 184.122808 352.174167 
L 184.735474 352.174167 
L 184.888625 342.579283 
L 185.041572 352.174167 
L 185.655002 352.174167 
L 185.812078 338.044992 
L 186.121042 352.174167 
L 187.05207 352.174167 
L 187.206843 347.410846 
L 187.362441 352.174167 
L 187.515468 342.565517 
L 187.671603 352.174167 
L 188.453353 352.174167 
L 188.60665 342.565517 
L 188.760246 352.174167 
L 189.376968 352.174167 
L 189.682559 342.551711 
L 189.837996 352.174167 
L 190.608702 352.174167 
L 190.766406 347.516845 
L 190.919362 347.376725 
L 191.073915 352.174167 
L 191.685822 352.174167 
L 191.838366 337.698888 
L 191.991138 352.174167 
L 192.454734 352.174167 
L 192.610995 342.714804 
L 192.764591 352.174167 
L 193.071709 352.174167 
L 193.224606 342.537866 
L 193.379181 352.174167 
L 193.5325 322.670956 
L 193.686987 352.174167 
L 194.929679 352.174167 
L 195.084646 333.228682 
L 195.23862 352.174167 
L 196.16685 352.174167 
L 196.321412 333.120884 
L 196.47607 352.174167 
L 197.39704 352.174167 
L 197.55086 347.383588 
L 197.705057 347.397256 
L 197.86029 352.174167 
L 198.478404 352.174167 
L 198.631644 332.956867 
L 198.785134 352.174167 
L 198.938249 352.174167 
L 199.092595 337.843434 
L 199.246614 352.174167 
L 200.012506 352.174167 
L 200.167045 333.093743 
L 200.320538 352.174167 
L 201.247874 352.174167 
L 201.401777 342.606697 
L 201.710529 352.174167 
L 201.864886 352.174167 
L 202.018825 337.843434 
L 202.173265 352.174167 
L 202.63686 352.174167 
L 202.790266 332.984399 
L 202.943878 352.174167 
L 203.710128 352.174167 
L 203.863979 347.390432 
L 204.017455 337.802431 
L 204.171336 352.174167 
L 205.094267 352.174167 
L 205.247603 342.579283 
L 205.560712 352.174167 
L 206.331381 352.174167 
L 206.484908 347.376725 
L 206.639444 352.174167 
L 206.947977 352.174167 
L 207.101639 342.59301 
L 207.255202 352.174167 
L 207.866187 352.174167 
L 208.018667 278.307672 
L 208.171981 352.174167 
L 209.561215 352.174167 
L 209.715002 337.904503 
L 209.86808 352.174167 
L 210.325443 352.174167 
L 210.481124 342.688007 
L 210.633389 352.174167 
L 210.937917 352.174167 
L 211.09063 337.698888 
L 211.395484 352.174167 
L 212.004917 352.174167 
L 212.157202 347.335128 
L 212.309394 352.174167 
L 212.464996 352.174167 
L 212.620582 347.464442 
L 212.773169 352.174167 
L 212.925485 352.174167 
L 213.077778 337.657052 
L 213.230064 352.174167 
L 213.856256 352.174167 
L 214.008967 337.761192 
L 214.161501 352.174167 
L 214.770572 352.174167 
L 214.923479 332.929256 
L 215.076763 352.174167 
L 216.150359 352.174167 
L 216.303238 347.369842 
L 216.456529 337.781841 
L 216.609321 352.174167 
L 217.833051 352.174167 
L 217.985647 347.362939 
L 218.138528 332.929256 
L 218.29156 352.174167 
L 219.207149 352.174167 
L 219.359865 332.873795 
L 219.512125 352.174167 
L 220.444632 352.174167 
L 220.6069 347.605798 
L 220.760675 352.174167 
L 221.069482 352.174167 
L 221.225914 338.025092 
L 221.380815 352.174167 
L 221.993285 352.174167 
L 222.147606 342.606697 
L 222.30047 352.174167 
L 222.916903 352.174167 
L 223.070613 342.606697 
L 223.378469 352.174167 
L 224.300304 352.174167 
L 224.454464 333.066524 
L 224.607648 352.174167 
L 225.680525 352.174167 
L 225.833644 328.118029 
L 225.987217 352.174167 
L 226.753232 352.174167 
L 226.906872 342.579283 
L 227.061724 352.174167 
L 227.52185 352.174167 
L 227.675322 342.579283 
L 227.829087 352.174167 
L 228.749368 352.174167 
L 228.902673 332.984399 
L 229.05608 352.174167 
L 229.518724 352.174167 
L 229.671925 317.753754 
L 229.824678 352.174167 
L 230.747651 352.174167 
L 230.900587 342.579283 
L 231.053573 352.174167 
L 231.821292 352.174167 
L 231.974445 337.740484 
L 232.129679 352.174167 
L 232.442142 352.174167 
L 232.59511 337.761192 
L 232.748298 352.174167 
L 233.677653 352.174167 
L 233.830593 337.740484 
L 233.983134 352.174167 
L 235.053554 352.174167 
L 235.209105 337.944927 
L 235.365035 352.174167 
L 235.988176 352.174167 
L 236.142198 347.404061 
L 236.295742 352.174167 
L 236.602504 352.174167 
L 236.755458 332.956867 
L 236.910931 352.174167 
L 237.69567 352.174167 
L 237.848773 347.369842 
L 238.001578 347.362939 
L 238.159813 352.174167 
L 238.774188 352.174167 
L 238.929512 333.201847 
L 239.082247 352.174167 
L 239.698177 352.174167 
L 239.851547 342.59301 
L 240.004623 352.174167 
L 240.47031 352.174167 
L 240.62386 347.383588 
L 240.777416 352.174167 
L 240.932618 352.174167 
L 241.087211 333.174936 
L 241.241671 352.174167 
L 242.329012 352.174167 
L 242.486694 342.807413 
L 242.643296 352.174167 
L 243.413507 352.174167 
L 243.569546 328.592375 
L 243.723348 352.174167 
L 244.029755 352.174167 
L 244.18302 327.588158 
L 244.342001 352.174167 
L 245.588471 352.174167 
L 245.742604 342.620345 
L 245.898279 352.174167 
L 246.364411 352.174167 
L 246.519589 347.437795 
L 246.674182 352.174167 
L 246.83137 342.807413 
L 246.985098 352.174167 
L 247.76341 352.174167 
L 247.916371 347.362939 
L 248.069761 337.761192 
L 248.226328 352.174167 
L 249.154616 352.174167 
L 249.3106 342.714804 
L 249.466603 352.174167 
L 249.625727 347.549009 
L 249.782026 352.174167 
L 250.092312 352.174167 
L 250.248892 342.754717 
L 250.405973 352.174167 
L 251.026861 352.174167 
L 251.181479 342.674551 
L 251.335157 352.174167 
L 251.489503 342.606697 
L 251.802234 352.174167 
L 252.884963 352.174167 
L 253.037762 347.362939 
L 253.194331 352.174167 
L 253.351308 347.49079 
L 253.504449 352.174167 
L 253.810613 352.174167 
L 253.963967 337.781841 
L 254.116609 352.174167 
L 255.198057 352.174167 
L 255.350942 347.349074 
L 255.503824 352.174167 
L 255.661469 352.174167 
L 255.821114 342.923851 
L 256.127779 352.174167 
L 256.597219 352.174167 
L 256.751932 328.391394 
L 256.907344 352.174167 
L 257.682013 352.174167 
L 257.837136 333.147948 
L 257.989685 352.174167 
L 258.448213 352.174167 
L 258.601779 342.579283 
L 258.756691 352.174167 
L 259.380835 352.174167 
L 259.534529 333.066524 
L 259.688754 352.174167 
L 260.777261 352.174167 
L 260.930118 337.740484 
L 261.08693 352.174167 
L 261.713535 352.174167 
L 262.023867 337.781841 
L 262.178317 352.174167 
L 262.794526 352.174167 
L 262.947911 328.186957 
L 263.101426 352.174167 
L 264.026508 352.174167 
L 264.179957 347.369842 
L 264.336429 347.457808 
L 264.490007 352.174167 
L 264.950784 352.174167 
L 265.103585 347.362939 
L 265.256418 352.174167 
L 265.409922 352.174167 
L 265.563354 337.781841 
L 265.872655 352.174167 
L 266.803632 352.174167 
L 266.957068 347.376725 
L 267.110533 352.174167 
L 267.421654 342.781139 
L 267.57449 352.174167 
L 268.195802 352.174167 
L 268.35117 333.147948 
L 268.506687 352.174167 
L 269.275757 352.174167 
L 269.430897 333.147948 
L 269.586822 352.174167 
L 270.36343 352.174167 
L 270.516627 342.551711 
L 270.67561 352.174167 
L 271.29607 352.174167 
L 271.450937 333.174936 
L 271.608726 352.174167 
L 272.38734 352.174167 
L 272.544739 342.807413 
L 272.699532 352.174167 
L 273.012768 352.174167 
L 273.166806 337.904503 
L 273.320436 352.174167 
L 273.78766 352.174167 
L 273.943875 338.044992 
L 274.249142 352.174167 
L 274.707038 352.174167 
L 274.859537 347.342111 
L 275.012786 352.174167 
L 275.165645 352.174167 
L 275.318266 332.873795 
L 275.473753 352.174167 
L 276.392763 352.174167 
L 276.545298 342.523981 
L 276.698672 352.174167 
L 277.320143 352.174167 
L 277.476502 347.471057 
L 277.630918 347.404061 
L 277.788553 352.174167 
L 278.262322 352.174167 
L 278.415941 342.59301 
L 278.568752 352.174167 
L 279.036106 352.174167 
L 279.189733 332.984399 
L 279.343763 352.174167 
L 280.111709 352.174167 
L 280.265678 342.59301 
L 280.421261 352.174167 
L 280.729284 352.174167 
L 280.882575 337.761192 
L 281.036918 352.174167 
L 281.806726 352.174167 
L 281.962469 333.201847 
L 282.116096 352.174167 
L 282.58939 352.174167 
L 282.746416 338.104358 
L 282.899139 352.174167 
L 283.981425 352.174167 
L 284.136415 337.944927 
L 284.291727 352.174167 
L 285.074909 352.174167 
L 285.22905 328.357563 
L 285.387955 352.174167 
L 286.628589 352.174167 
L 286.785023 333.308733 
L 286.940773 352.174167 
L 287.557869 352.174167 
L 287.711106 332.984399 
L 287.864696 352.174167 
L 288.97034 352.174167 
L 289.123616 337.761192 
L 289.277871 352.174167 
L 289.748183 352.174167 
L 289.902148 337.863849 
L 290.055588 352.174167 
L 290.994722 352.174167 
L 291.151154 342.794294 
L 291.309069 352.174167 
L 291.92913 352.174167 
L 292.082507 337.781841 
L 292.236373 352.174167 
L 293.006265 352.174167 
L 293.159907 347.383588 
L 293.314295 352.174167 
L 293.472117 342.794294 
L 293.786798 352.174167 
L 294.402164 352.174167 
L 294.555747 347.369842 
L 294.709129 352.174167 
L 294.862897 352.174167 
L 295.018984 347.444485 
L 295.178793 352.174167 
L 295.336455 352.174167 
L 295.490281 342.633955 
L 295.651172 352.174167 
L 296.272644 352.174167 
L 296.427366 333.201847 
L 296.581765 352.174167 
L 297.973443 352.174167 
L 298.128452 347.417612 
L 298.28322 352.174167 
L 298.440878 352.174167 
L 298.597841 323.915817 
L 298.753629 352.174167 
L 300.00293 352.174167 
L 300.317303 342.781139 
L 300.474689 352.174167 
L 300.93808 352.174167 
L 301.093717 333.228682 
L 301.250262 352.174167 
L 302.338658 352.174167 
L 302.496352 328.691597 
L 302.65365 352.174167 
L 303.278487 352.174167 
L 303.431172 347.356016 
L 303.584234 337.740484 
L 303.739498 352.174167 
L 304.358097 352.174167 
L 304.511255 333.011852 
L 304.665003 352.174167 
L 304.820858 347.424359 
L 304.974068 352.174167 
L 305.280463 352.174167 
L 305.435103 337.884205 
L 305.589772 352.174167 
L 306.516647 352.174167 
L 306.670226 328.186957 
L 306.824402 352.174167 
L 307.602494 352.174167 
L 307.757586 342.674551 
L 307.914218 352.174167 
L 308.221434 352.174167 
L 308.376572 347.431087 
L 308.531478 347.424359 
L 308.686609 352.174167 
L 309.304523 352.174167 
L 309.460031 337.944927 
L 309.614133 352.174167 
L 309.924777 352.174167 
L 310.077822 347.356016 
L 310.232877 347.424359 
L 310.386634 352.174167 
L 311.164586 352.174167 
L 311.320445 50.163056 
L 311.475619 352.174167 
L 312.885298 352.174167 
L 313.040893 342.701424 
L 313.197109 352.174167 
L 313.350908 333.011852 
L 313.50641 352.174167 
L 314.445932 352.174167 
L 314.598593 347.362939 
L 314.751928 347.369842 
L 314.909002 352.174167 
L 315.521354 352.174167 
L 315.67808 342.754717 
L 315.830731 352.174167 
L 315.983384 347.349074 
L 316.135808 337.698888 
L 316.288844 352.174167 
L 317.211017 352.174167 
L 317.363771 342.523981 
L 317.516918 352.174167 
L 318.147106 352.174167 
L 318.304746 333.414422 
L 318.460901 352.174167 
L 319.845911 352.174167 
L 320.001016 342.661058 
L 320.155504 352.174167 
L 320.777423 352.174167 
L 321.087344 342.674551 
L 321.243603 352.174167 
L 321.706744 352.174167 
L 321.862148 342.674551 
L 322.015943 352.174167 
L 322.641168 352.174167 
L 322.795965 337.924744 
L 323.104469 352.174167 
L 324.360115 352.174167 
L 324.513972 333.093743 
L 324.669079 352.174167 
L 325.750839 352.174167 
L 325.908744 342.833541 
L 326.067154 352.174167 
L 326.531351 352.174167 
L 326.687225 337.985122 
L 326.840076 352.174167 
L 327.452841 352.174167 
L 327.605564 347.362939 
L 327.758115 352.174167 
L 327.911128 337.698888 
L 328.0639 352.174167 
L 329.145647 352.174167 
L 329.299022 332.984399 
L 329.454073 352.174167 
L 329.912858 352.174167 
L 330.06588 347.362939 
L 330.219149 352.174167 
L 330.524633 352.174167 
L 330.678714 333.066524 
L 330.83306 352.174167 
L 331.297936 352.174167 
L 331.451302 337.761192 
L 331.757032 352.174167 
L 332.688132 352.174167 
L 332.843476 328.458767 
L 332.99722 352.174167 
L 333.919029 352.174167 
L 334.072904 347.390432 
L 334.226497 352.174167 
L 334.379975 352.174167 
L 334.533881 342.606697 
L 334.842471 352.174167 
L 335.303093 352.174167 
L 335.456423 337.822962 
L 335.613222 352.174167 
L 336.387649 352.174167 
L 336.541193 328.186957 
L 336.69463 352.174167 
L 337.155405 352.174167 
L 337.308841 342.579283 
L 337.462448 352.174167 
L 338.07848 352.174167 
L 338.232158 337.802431 
L 338.387618 352.174167 
L 339.461965 352.174167 
L 339.622161 338.317831 
L 339.783548 352.174167 
L 340.399612 352.174167 
L 340.554209 347.410846 
L 340.707918 337.802431 
L 340.861491 352.174167 
L 341.781041 352.174167 
L 341.936047 337.985122 
L 342.089211 352.174167 
L 343.163588 352.174167 
L 343.316305 332.929256 
L 343.472192 352.174167 
L 344.554324 352.174167 
L 344.708359 337.863849 
L 344.861934 352.174167 
L 345.481637 352.174167 
L 345.634151 328.048703 
L 345.787226 352.174167 
L 346.709117 352.174167 
L 346.864707 342.714804 
L 347.01813 352.174167 
L 347.636677 352.174167 
L 347.949949 342.949334 
L 348.105384 352.174167 
L 348.72804 352.174167 
L 348.888249 333.749878 
L 349.045151 352.174167 
L 350.133717 352.174167 
L 350.290826 342.807413 
L 350.447777 352.174167 
L 350.602259 337.863849 
L 350.755655 352.174167 
L 351.521804 352.174167 
L 351.675082 328.152542 
L 351.827916 352.174167 
L 352.908655 352.174167 
L 353.062909 328.357563 
L 353.216886 352.174167 
L 354.611041 352.174167 
L 354.766451 342.74145 
L 354.920025 352.174167 
L 355.538736 352.174167 
L 355.692138 337.761192 
L 355.846498 352.174167 
L 356.466808 352.174167 
L 356.622439 342.728146 
L 356.77652 352.174167 
L 357.393658 352.174167 
L 357.54653 337.761192 
L 357.700472 352.174167 
L 358.163554 352.174167 
L 358.317203 342.59301 
L 358.624107 352.174167 
L 359.092897 352.174167 
L 359.249956 342.794294 
L 359.403527 352.174167 
L 359.710064 352.174167 
L 359.862989 337.761192 
L 360.016288 352.174167 
L 361.101363 352.174167 
L 361.254672 347.362939 
L 361.407915 352.174167 
L 361.561343 352.174167 
L 361.715205 342.606697 
L 361.868997 352.174167 
L 362.484374 352.174167 
L 362.637261 342.523981 
L 362.944609 352.174167 
L 363.870614 352.174167 
L 364.023749 337.761192 
L 364.177891 352.174167 
L 364.639288 352.174167 
L 364.792891 337.822962 
L 364.947076 352.174167 
L 365.724044 352.174167 
L 365.879945 347.451156 
L 366.036718 352.174167 
L 366.195653 347.536197 
L 366.351955 338.064836 
L 366.505696 352.174167 
L 366.967748 352.174167 
L 367.121241 337.802431 
L 367.274278 352.174167 
L 368.040847 352.174167 
L 368.194115 342.551711 
L 368.347122 352.174167 
L 368.808593 352.174167 
L 368.963025 337.863849 
L 369.116678 352.174167 
L 370.035965 352.174167 
L 370.189519 342.59301 
L 370.343515 352.174167 
L 370.650823 352.174167 
L 370.805641 347.404061 
L 370.962175 352.174167 
L 371.274487 352.174167 
L 371.580819 342.565517 
L 371.734184 352.174167 
L 372.504503 352.174167 
L 372.657925 342.59301 
L 372.811026 342.551711 
L 372.964788 352.174167 
L 373.578217 352.174167 
L 373.731858 337.781841 
L 373.885443 352.174167 
L 374.652488 352.174167 
L 374.805943 347.376725 
L 374.959163 352.174167 
L 375.267621 352.174167 
L 375.42057 342.551711 
L 375.575267 352.174167 
L 376.044788 352.174167 
L 376.198761 333.120884 
L 376.353478 352.174167 
L 376.969512 352.174167 
L 377.122542 332.984399 
L 377.275992 352.174167 
L 378.360056 352.174167 
L 378.517597 333.388111 
L 378.671688 352.174167 
L 379.60822 352.174167 
L 379.76444 342.74145 
L 379.917366 352.174167 
L 380.539418 352.174167 
L 380.694721 337.944927 
L 381.008084 352.174167 
L 381.477767 352.174167 
L 381.63188 337.802431 
L 381.789773 352.174167 
L 382.415571 352.174167 
L 382.57135 338.044992 
L 382.726279 352.174167 
L 383.502054 352.174167 
L 383.658782 342.754717 
L 383.814386 352.174167 
L 384.433433 352.174167 
L 384.588622 337.924744 
L 384.744172 352.174167 
L 385.825444 352.174167 
L 385.979793 337.863849 
L 386.136181 352.174167 
L 387.076305 352.174167 
L 387.23047 347.397256 
L 387.383589 347.369842 
L 387.537664 352.174167 
L 388.004807 352.174167 
L 388.159696 342.647525 
L 388.312839 352.174167 
L 388.925516 352.174167 
L 389.07813 337.698888 
L 389.230753 352.174167 
L 389.38552 352.174167 
L 389.538158 323.22361 
L 389.691965 352.174167 
L 391.078036 352.174167 
L 391.230848 347.369842 
L 391.383816 352.174167 
L 391.691033 352.174167 
L 391.843932 337.740484 
L 391.996644 352.174167 
L 392.149576 352.174167 
L 392.304821 342.701424 
L 392.457495 352.174167 
L 393.075518 352.174167 
L 393.228131 332.873795 
L 393.38069 352.174167 
L 393.838842 352.174167 
L 394.145354 337.761192 
L 394.299494 352.174167 
L 395.536467 352.174167 
L 395.690236 332.984399 
L 395.843486 352.174167 
L 396.619814 352.174167 
L 396.773879 333.066524 
L 396.928257 352.174167 
L 398.316132 352.174167 
L 398.470522 328.391394 
L 398.624105 352.174167 
L 399.242314 352.174167 
L 399.397004 342.661058 
L 399.551948 352.174167 
L 400.171412 352.174167 
L 400.324569 337.761192 
L 400.477411 352.174167 
L 401.101445 352.174167 
L 401.257472 347.451156 
L 401.412463 347.431087 
L 401.567525 352.174167 
L 402.18774 352.174167 
L 402.342697 337.924744 
L 402.495589 352.174167 
L 402.64866 352.174167 
L 402.803705 138.985981 
L 402.956928 352.174167 
L 404.502708 352.174167 
L 404.657091 333.093743 
L 404.967869 352.174167 
L 406.216488 352.174167 
L 406.370109 342.606697 
L 406.524309 352.174167 
L 407.293729 352.174167 
L 407.447667 328.255492 
L 407.601899 352.174167 
L 407.910403 352.174167 
L 408.064394 347.404061 
L 408.218507 352.174167 
L 408.373814 352.174167 
L 408.528459 347.417612 
L 408.684206 352.174167 
L 408.8385 342.620345 
L 408.994679 352.174167 
L 409.611622 352.174167 
L 409.765446 342.606697 
L 409.919628 352.174167 
L 410.545875 352.174167 
L 410.699879 328.391394 
L 410.854493 352.174167 
L 411.781095 352.174167 
L 411.938218 338.084625 
L 412.091702 352.174167 
L 413.329842 352.174167 
L 413.483315 328.186957 
L 413.636703 352.174167 
L 414.250573 352.174167 
L 414.404219 347.383588 
L 414.557526 352.174167 
L 414.710443 352.174167 
L 414.864544 342.606697 
L 415.174976 352.174167 
L 415.328768 352.174167 
L 415.482784 342.606697 
L 415.636888 352.174167 
L 415.790738 352.174167 
L 415.945953 342.661058 
L 416.101472 352.174167 
L 416.411035 342.565517 
L 416.567019 352.174167 
L 417.498325 352.174167 
L 417.653271 342.647525 
L 417.809495 352.174167 
L 418.434562 352.174167 
L 418.59291 333.699053 
L 418.74973 352.174167 
L 419.993823 352.174167 
L 420.148369 342.688007 
L 420.45888 352.174167 
L 420.612731 347.404061 
L 420.766343 352.174167 
L 421.075849 352.174167 
L 421.230509 337.863849 
L 421.384372 352.174167 
L 422.463 352.174167 
L 422.617181 333.093743 
L 422.771198 352.174167 
L 422.925177 352.174167 
L 423.080618 337.944927 
L 423.237916 352.174167 
L 424.181412 352.174167 
L 424.334945 342.59301 
L 424.493759 352.174167 
L 424.95935 352.174167 
L 425.265615 342.59301 
L 425.419062 352.174167 
L 425.879493 352.174167 
L 426.03247 347.362939 
L 426.185862 337.740484 
L 426.340773 352.174167 
L 426.954499 352.174167 
L 427.107356 342.537866 
L 427.26042 352.174167 
L 427.41759 352.174167 
L 427.570473 347.376725 
L 427.723697 347.369842 
L 427.877436 352.174167 
L 428.031074 352.174167 
L 428.184675 337.781841 
L 428.338153 352.174167 
L 429.268163 352.174167 
L 429.421722 342.579283 
L 429.574836 352.174167 
L 430.040892 352.174167 
L 430.194158 347.362939 
L 430.347857 352.174167 
L 430.502189 342.620345 
L 430.657722 352.174167 
L 431.279828 352.174167 
L 431.436145 338.005135 
L 431.589825 352.174167 
L 432.362901 352.174167 
L 432.515513 342.523981 
L 432.668045 352.174167 
L 433.280082 352.174167 
L 433.432814 342.537866 
L 433.586082 352.174167 
L 433.891239 352.174167 
L 434.043746 347.349074 
L 434.196331 337.698888 
L 434.349098 352.174167 
L 434.807136 352.174167 
L 434.959599 347.349074 
L 435.112072 352.174167 
L 435.264308 352.174167 
L 435.41662 332.845945 
L 435.569092 352.174167 
L 436.64181 352.174167 
L 436.794135 342.49609 
L 437.099239 352.174167 
L 437.251701 352.174167 
L 437.404103 337.678 
L 437.558661 352.174167 
L 438.633619 352.174167 
L 438.786628 332.901566 
L 438.942104 352.174167 
L 439.560741 352.174167 
L 439.714654 337.822962 
L 439.868528 352.174167 
L 440.943946 352.174167 
L 441.09626 347.335128 
L 441.248989 352.174167 
L 441.401194 352.174167 
L 441.553359 342.49609 
L 441.708312 352.174167 
L 442.318609 352.174167 
L 442.471148 337.698888 
L 442.623546 352.174167 
L 443.69099 352.174167 
L 443.843484 328.048703 
L 443.995905 352.174167 
L 445.080143 352.174167 
L 445.232966 347.356016 
L 445.390123 352.174167 
L 445.547435 352.174167 
L 445.704645 338.124036 
L 445.861867 352.174167 
L 446.325628 352.174167 
L 446.478082 347.356016 
L 446.633008 333.120884 
L 446.786619 352.174167 
L 447.866625 352.174167 
L 448.019266 337.698888 
L 448.171996 352.174167 
L 448.781985 352.174167 
L 448.934651 337.698888 
L 449.087167 352.174167 
L 449.240267 352.174167 
L 449.392778 332.901566 
L 449.54632 352.174167 
L 450.628456 352.174167 
L 450.78136 328.221274 
L 450.93399 352.174167 
L 451.544387 352.174167 
L 451.699875 337.944927 
L 451.856346 352.174167 
L 452.471556 352.174167 
L 452.624285 337.719716 
L 452.776882 352.174167 
L 453.390526 352.174167 
L 453.547967 347.49079 
L 453.701759 352.174167 
L 454.168983 352.174167 
L 454.321798 337.719716 
L 454.474592 352.174167 
L 455.091506 352.174167 
L 455.250896 342.93661 
L 455.407419 352.174167 
L 456.016646 352.174167 
L 456.321148 342.49609 
L 456.483703 352.174167 
L 457.411612 352.174167 
L 457.563938 337.678 
L 457.716367 352.174167 
L 458.491869 352.174167 
L 458.644766 342.551711 
L 458.798987 352.174167 
L 459.421167 352.174167 
L 459.576454 333.282125 
L 459.733171 352.174167 
L 460.663603 352.174167 
L 460.818078 347.410846 
L 460.972422 352.174167 
L 461.282331 352.174167 
L 461.437826 333.255441 
L 461.592198 352.174167 
L 462.214109 352.174167 
L 462.369909 328.625542 
L 462.525586 352.174167 
L 463.612635 352.174167 
L 463.769267 338.064836 
L 463.923468 352.174167 
L 464.077885 337.843434 
L 464.235749 352.174167 
L 465.005053 352.174167 
L 465.1666 338.46906 
L 465.319836 352.174167 
L 465.940013 352.174167 
L 466.095284 347.431087 
L 466.2481 352.174167 
L 466.40198 352.174167 
L 466.555629 342.620345 
L 466.712249 352.174167 
L 467.329628 352.174167 
L 467.48224 347.356016 
L 467.634796 352.174167 
L 467.787647 352.174167 
L 467.940246 342.523981 
L 468.098216 352.174167 
L 468.25925 352.174167 
L 468.418139 342.911056 
L 468.577073 352.174167 
L 469.206626 352.174167 
L 469.360841 337.863849 
L 469.518142 352.174167 
L 470.296647 352.174167 
L 470.45012 337.781841 
L 470.603306 352.174167 
L 471.543063 352.174167 
L 471.69858 337.965053 
L 471.851387 352.174167 
L 472.469988 352.174167 
L 472.624243 342.647525 
L 472.77746 352.174167 
L 473.242829 352.174167 
L 473.396161 347.404061 
L 473.548742 352.174167 
L 473.701947 352.174167 
L 473.858941 342.781139 
L 474.016397 342.833541 
L 474.171493 352.174167 
L 475.114496 352.174167 
L 475.426461 342.647525 
L 475.587225 352.174167 
L 476.51065 352.174167 
L 476.823169 342.794294 
L 476.980898 352.174167 
L 477.293597 342.688007 
L 477.4471 352.174167 
L 478.063151 352.174167 
L 478.220736 342.781139 
L 478.382013 352.174167 
L 478.542993 352.174167 
L 478.696615 342.661058 
L 478.849404 352.174167 
L 479.311515 352.174167 
L 479.616926 342.537866 
L 479.770319 352.174167 
L 480.383183 352.174167 
L 480.536624 337.781841 
L 480.690096 352.174167 
L 481.157315 352.174167 
L 481.309944 347.376725 
L 481.463102 352.174167 
L 481.617003 352.174167 
L 481.770868 337.802431 
L 481.925313 352.174167 
L 482.548551 352.174167 
L 482.701399 332.984399 
L 482.856934 352.174167 
L 483.946313 352.174167 
L 484.100772 347.404061 
L 484.254669 352.174167 
L 484.566298 352.174167 
L 484.721454 337.965053 
L 484.879228 352.174167 
L 485.341134 352.174167 
L 485.494263 347.362939 
L 485.646922 352.174167 
L 485.800653 342.59301 
L 485.954281 352.174167 
L 486.723096 352.174167 
L 486.876511 342.579283 
L 487.031749 342.674551 
L 487.186861 352.174167 
L 488.126695 352.174167 
L 488.283685 347.503854 
L 488.43767 352.174167 
L 488.591436 352.174167 
L 488.745918 342.647525 
L 488.899546 352.174167 
L 489.513452 352.174167 
L 489.822276 342.661058 
L 489.9762 352.174167 
L 490.603289 352.174167 
L 490.762073 338.260256 
L 490.920804 352.174167 
L 491.545088 352.174167 
L 491.698514 342.579283 
L 491.852044 352.174167 
L 492.005544 352.174167 
L 492.159009 342.579283 
L 492.31239 352.174167 
L 492.46572 342.565517 
L 492.618349 352.174167 
L 492.776667 352.174167 
L 492.935622 333.622286 
L 493.094954 352.174167 
L 494.050676 352.174167 
L 494.208512 66.316838 
L 494.36716 352.174167 
L 495.145937 352.174167 
L 495.145937 352.174167 
" style="fill:none;stroke:#1f77b4;stroke-linecap:square;stroke-width:1.5;"/>
   </g>
   <g id="patch_3">
    <path d="M 56.807031 352.174167 
L 56.807031 35.0625 
" style="fill:none;stroke:#000000;stroke-linecap:square;stroke-linejoin:miter;stroke-width:0.8;"/>
   </g>
   <g id="patch_4">
    <path d="M 516.019219 352.174167 
L 516.019219 35.0625 
" style="fill:none;stroke:#000000;stroke-linecap:square;stroke-linejoin:miter;stroke-width:0.8;"/>
   </g>
   <g id="patch_5">
    <path d="M 56.807031 352.174167 
L 516.019219 352.174167 
" style="fill:none;stroke:#000000;stroke-linecap:square;stroke-linejoin:miter;stroke-width:0.8;"/>
   </g>
   <g id="patch_6">
    <path d="M 56.807031 35.0625 
L 516.019219 35.0625 
" style="fill:none;stroke:#000000;stroke-linecap:square;stroke-linejoin:miter;stroke-width:0.8;"/>
   </g>
   <g id="legend_1">
    <g id="patch_7">
     <path d="M 540.979828 53.01875 
L 621.215766 53.01875 
Q 623.215766 53.01875 623.215766 51.01875 
L 623.215766 37.0625 
Q 623.215766 35.0625 621.215766 35.0625 
L 540.979828 35.0625 
Q 538.979828 35.0625 538.979828 37.0625 
L 538.979828 51.01875 
Q 538.979828 53.01875 540.979828 53.01875 
z
" style="fill:#ffffff;opacity:0.8;stroke:#cccccc;stroke-linejoin:miter;"/>
    </g>
    <g id="line2d_13">
     <path d="M 542.979828 43.160937 
L 562.979828 43.160937 
" style="fill:none;stroke:#1f77b4;stroke-linecap:square;stroke-width:1.5;"/>
    </g>
    <g id="line2d_14"/>
    <g id="text_13">
     <!-- drop_rate -->
     <defs>
      <path d="M 50.984375 -16.609375 
L 50.984375 -23.578125 
L -0.984375 -23.578125 
L -0.984375 -16.609375 
z
" id="DejaVuSans-95"/>
     </defs>
     <g transform="translate(570.979828 46.660937)scale(0.1 -0.1)">
      <use xlink:href="#DejaVuSans-100"/>
      <use x="63.476562" xlink:href="#DejaVuSans-114"/>
      <use x="104.558594" xlink:href="#DejaVuSans-111"/>
      <use x="165.740234" xlink:href="#DejaVuSans-112"/>
      <use x="229.216797" xlink:href="#DejaVuSans-95"/>
      <use x="279.216797" xlink:href="#DejaVuSans-114"/>
      <use x="320.330078" xlink:href="#DejaVuSans-97"/>
      <use x="381.609375" xlink:href="#DejaVuSans-116"/>
      <use x="420.818359" xlink:href="#DejaVuSans-101"/>
     </g>
    </g>
   </g>
  </g>
  <g id="text_14">
   <!-- result droprate -->
   <defs>
    <path d="M 44.28125 53.078125 
L 44.28125 44.578125 
Q 40.484375 46.53125 36.375 47.5 
Q 32.28125 48.484375 27.875 48.484375 
Q 21.1875 48.484375 17.84375 46.4375 
Q 14.5 44.390625 14.5 40.28125 
Q 14.5 37.15625 16.890625 35.375 
Q 19.28125 33.59375 26.515625 31.984375 
L 29.59375 31.296875 
Q 39.15625 29.25 43.1875 25.515625 
Q 47.21875 21.78125 47.21875 15.09375 
Q 47.21875 7.46875 41.1875 3.015625 
Q 35.15625 -1.421875 24.609375 -1.421875 
Q 20.21875 -1.421875 15.453125 -0.5625 
Q 10.6875 0.296875 5.421875 2 
L 5.421875 11.28125 
Q 10.40625 8.6875 15.234375 7.390625 
Q 20.0625 6.109375 24.8125 6.109375 
Q 31.15625 6.109375 34.5625 8.28125 
Q 37.984375 10.453125 37.984375 14.40625 
Q 37.984375 18.0625 35.515625 20.015625 
Q 33.0625 21.96875 24.703125 23.78125 
L 21.578125 24.515625 
Q 13.234375 26.265625 9.515625 29.90625 
Q 5.8125 33.546875 5.8125 39.890625 
Q 5.8125 47.609375 11.28125 51.796875 
Q 16.75 56 26.8125 56 
Q 31.78125 56 36.171875 55.265625 
Q 40.578125 54.546875 44.28125 53.078125 
z
" id="DejaVuSans-115"/>
    <path d="M 8.5 21.578125 
L 8.5 54.6875 
L 17.484375 54.6875 
L 17.484375 21.921875 
Q 17.484375 14.15625 20.5 10.265625 
Q 23.53125 6.390625 29.59375 6.390625 
Q 36.859375 6.390625 41.078125 11.03125 
Q 45.3125 15.671875 45.3125 23.6875 
L 45.3125 54.6875 
L 54.296875 54.6875 
L 54.296875 0 
L 45.3125 0 
L 45.3125 8.40625 
Q 42.046875 3.421875 37.71875 1 
Q 33.40625 -1.421875 27.6875 -1.421875 
Q 18.265625 -1.421875 13.375 4.4375 
Q 8.5 10.296875 8.5 21.578125 
z
M 31.109375 56 
z
" id="DejaVuSans-117"/>
    <path d="M 9.421875 75.984375 
L 18.40625 75.984375 
L 18.40625 0 
L 9.421875 0 
z
" id="DejaVuSans-108"/>
    <path id="DejaVuSans-32"/>
   </defs>
   <g transform="translate(297.047813 17.038125)scale(0.12 -0.12)">
    <use xlink:href="#DejaVuSans-114"/>
    <use x="41.082031" xlink:href="#DejaVuSans-101"/>
    <use x="102.605469" xlink:href="#DejaVuSans-115"/>
    <use x="154.705078" xlink:href="#DejaVuSans-117"/>
    <use x="218.083984" xlink:href="#DejaVuSans-108"/>
    <use x="245.867188" xlink:href="#DejaVuSans-116"/>
    <use x="285.076172" xlink:href="#DejaVuSans-32"/>
    <use x="316.863281" xlink:href="#DejaVuSans-100"/>
    <use x="380.339844" xlink:href="#DejaVuSans-114"/>
    <use x="421.421875" xlink:href="#DejaVuSans-111"/>
    <use x="482.603516" xlink:href="#DejaVuSans-112"/>
    <use x="546.080078" xlink:href="#DejaVuSans-114"/>
    <use x="587.193359" xlink:href="#DejaVuSans-97"/>
    <use x="648.472656" xlink:href="#DejaVuSans-116"/>
    <use x="687.681641" xlink:href="#DejaVuSans-101"/>
   </g>
  </g>
 </g>
 <defs>
  <clipPath id="pa8a4499f08">
   <rect height="317.111667" width="459.212187" x="56.807031" y="35.0625"/>
  </clipPath>
 </defs>
</svg>
