<?xml version="1.0" encoding="utf-8" standalone="no"?>
<!DOCTYPE svg PUBLIC "-//W3C//DTD SVG 1.1//EN"
  "http://www.w3.org/Graphics/SVG/1.1/DTD/svg11.dtd">
<!-- Created with matplotlib (https://matplotlib.org/) -->
<svg height="396pt" version="1.1" viewBox="0 0 684 396" width="684pt" xmlns="http://www.w3.org/2000/svg" xmlns:xlink="http://www.w3.org/1999/xlink">
 <defs>
  <style type="text/css">
*{stroke-linecap:butt;stroke-linejoin:round;}
  </style>
 </defs>
 <g id="figure_1">
  <g id="patch_1">
   <path d="M 0 396 
L 684 396 
L 684 0 
L 0 0 
z
" style="fill:#ffffff;"/>
  </g>
  <g id="axes_1">
   <g id="patch_2">
    <path d="M 66.158594 352.174167 
L 516.019219 352.174167 
L 516.019219 35.0625 
L 66.158594 35.0625 
z
" style="fill:#ffffff;"/>
   </g>
   <g id="matplotlib.axis_1">
    <g id="xtick_1">
     <g id="line2d_1">
      <defs>
       <path d="M 0 0 
L 0 3.5 
" id="mf9bdf35ce7" style="stroke:#000000;stroke-width:0.8;"/>
      </defs>
      <g>
       <use style="stroke:#000000;stroke-width:0.8;" x="91.675928" xlink:href="#mf9bdf35ce7" y="352.174167"/>
      </g>
     </g>
     <g id="text_1">
      <!-- 0 -->
      <defs>
       <path d="M 31.78125 66.40625 
Q 24.171875 66.40625 20.328125 58.90625 
Q 16.5 51.421875 16.5 36.375 
Q 16.5 21.390625 20.328125 13.890625 
Q 24.171875 6.390625 31.78125 6.390625 
Q 39.453125 6.390625 43.28125 13.890625 
Q 47.125 21.390625 47.125 36.375 
Q 47.125 51.421875 43.28125 58.90625 
Q 39.453125 66.40625 31.78125 66.40625 
z
M 31.78125 74.21875 
Q 44.046875 74.21875 50.515625 64.515625 
Q 56.984375 54.828125 56.984375 36.375 
Q 56.984375 17.96875 50.515625 8.265625 
Q 44.046875 -1.421875 31.78125 -1.421875 
Q 19.53125 -1.421875 13.0625 8.265625 
Q 6.59375 17.96875 6.59375 36.375 
Q 6.59375 54.828125 13.0625 64.515625 
Q 19.53125 74.21875 31.78125 74.21875 
z
" id="DejaVuSans-48"/>
      </defs>
      <g transform="translate(88.494678 366.772604)scale(0.1 -0.1)">
       <use xlink:href="#DejaVuSans-48"/>
      </g>
     </g>
    </g>
    <g id="xtick_2">
     <g id="line2d_2">
      <g>
       <use style="stroke:#000000;stroke-width:0.8;" x="161.547694" xlink:href="#mf9bdf35ce7" y="352.174167"/>
      </g>
     </g>
     <g id="text_2">
      <!-- 50 -->
      <defs>
       <path d="M 10.796875 72.90625 
L 49.515625 72.90625 
L 49.515625 64.59375 
L 19.828125 64.59375 
L 19.828125 46.734375 
Q 21.96875 47.46875 24.109375 47.828125 
Q 26.265625 48.1875 28.421875 48.1875 
Q 40.625 48.1875 47.75 41.5 
Q 54.890625 34.8125 54.890625 23.390625 
Q 54.890625 11.625 47.5625 5.09375 
Q 40.234375 -1.421875 26.90625 -1.421875 
Q 22.3125 -1.421875 17.546875 -0.640625 
Q 12.796875 0.140625 7.71875 1.703125 
L 7.71875 11.625 
Q 12.109375 9.234375 16.796875 8.0625 
Q 21.484375 6.890625 26.703125 6.890625 
Q 35.15625 6.890625 40.078125 11.328125 
Q 45.015625 15.765625 45.015625 23.390625 
Q 45.015625 31 40.078125 35.4375 
Q 35.15625 39.890625 26.703125 39.890625 
Q 22.75 39.890625 18.8125 39.015625 
Q 14.890625 38.140625 10.796875 36.28125 
z
" id="DejaVuSans-53"/>
      </defs>
      <g transform="translate(155.185194 366.772604)scale(0.1 -0.1)">
       <use xlink:href="#DejaVuSans-53"/>
       <use x="63.623047" xlink:href="#DejaVuSans-48"/>
      </g>
     </g>
    </g>
    <g id="xtick_3">
     <g id="line2d_3">
      <g>
       <use style="stroke:#000000;stroke-width:0.8;" x="231.41946" xlink:href="#mf9bdf35ce7" y="352.174167"/>
      </g>
     </g>
     <g id="text_3">
      <!-- 100 -->
      <defs>
       <path d="M 12.40625 8.296875 
L 28.515625 8.296875 
L 28.515625 63.921875 
L 10.984375 60.40625 
L 10.984375 69.390625 
L 28.421875 72.90625 
L 38.28125 72.90625 
L 38.28125 8.296875 
L 54.390625 8.296875 
L 54.390625 0 
L 12.40625 0 
z
" id="DejaVuSans-49"/>
      </defs>
      <g transform="translate(221.87571 366.772604)scale(0.1 -0.1)">
       <use xlink:href="#DejaVuSans-49"/>
       <use x="63.623047" xlink:href="#DejaVuSans-48"/>
       <use x="127.246094" xlink:href="#DejaVuSans-48"/>
      </g>
     </g>
    </g>
    <g id="xtick_4">
     <g id="line2d_4">
      <g>
       <use style="stroke:#000000;stroke-width:0.8;" x="301.291225" xlink:href="#mf9bdf35ce7" y="352.174167"/>
      </g>
     </g>
     <g id="text_4">
      <!-- 150 -->
      <g transform="translate(291.747475 366.772604)scale(0.1 -0.1)">
       <use xlink:href="#DejaVuSans-49"/>
       <use x="63.623047" xlink:href="#DejaVuSans-53"/>
       <use x="127.246094" xlink:href="#DejaVuSans-48"/>
      </g>
     </g>
    </g>
    <g id="xtick_5">
     <g id="line2d_5">
      <g>
       <use style="stroke:#000000;stroke-width:0.8;" x="371.162991" xlink:href="#mf9bdf35ce7" y="352.174167"/>
      </g>
     </g>
     <g id="text_5">
      <!-- 200 -->
      <defs>
       <path d="M 19.1875 8.296875 
L 53.609375 8.296875 
L 53.609375 0 
L 7.328125 0 
L 7.328125 8.296875 
Q 12.9375 14.109375 22.625 23.890625 
Q 32.328125 33.6875 34.8125 36.53125 
Q 39.546875 41.84375 41.421875 45.53125 
Q 43.3125 49.21875 43.3125 52.78125 
Q 43.3125 58.59375 39.234375 62.25 
Q 35.15625 65.921875 28.609375 65.921875 
Q 23.96875 65.921875 18.8125 64.3125 
Q 13.671875 62.703125 7.8125 59.421875 
L 7.8125 69.390625 
Q 13.765625 71.78125 18.9375 73 
Q 24.125 74.21875 28.421875 74.21875 
Q 39.75 74.21875 46.484375 68.546875 
Q 53.21875 62.890625 53.21875 53.421875 
Q 53.21875 48.921875 51.53125 44.890625 
Q 49.859375 40.875 45.40625 35.40625 
Q 44.1875 33.984375 37.640625 27.21875 
Q 31.109375 20.453125 19.1875 8.296875 
z
" id="DejaVuSans-50"/>
      </defs>
      <g transform="translate(361.619241 366.772604)scale(0.1 -0.1)">
       <use xlink:href="#DejaVuSans-50"/>
       <use x="63.623047" xlink:href="#DejaVuSans-48"/>
       <use x="127.246094" xlink:href="#DejaVuSans-48"/>
      </g>
     </g>
    </g>
    <g id="xtick_6">
     <g id="line2d_6">
      <g>
       <use style="stroke:#000000;stroke-width:0.8;" x="441.034757" xlink:href="#mf9bdf35ce7" y="352.174167"/>
      </g>
     </g>
     <g id="text_6">
      <!-- 250 -->
      <g transform="translate(431.491007 366.772604)scale(0.1 -0.1)">
       <use xlink:href="#DejaVuSans-50"/>
       <use x="63.623047" xlink:href="#DejaVuSans-53"/>
       <use x="127.246094" xlink:href="#DejaVuSans-48"/>
      </g>
     </g>
    </g>
    <g id="xtick_7">
     <g id="line2d_7">
      <g>
       <use style="stroke:#000000;stroke-width:0.8;" x="510.906522" xlink:href="#mf9bdf35ce7" y="352.174167"/>
      </g>
     </g>
     <g id="text_7">
      <!-- 300 -->
      <defs>
       <path d="M 40.578125 39.3125 
Q 47.65625 37.796875 51.625 33 
Q 55.609375 28.21875 55.609375 21.1875 
Q 55.609375 10.40625 48.1875 4.484375 
Q 40.765625 -1.421875 27.09375 -1.421875 
Q 22.515625 -1.421875 17.65625 -0.515625 
Q 12.796875 0.390625 7.625 2.203125 
L 7.625 11.71875 
Q 11.71875 9.328125 16.59375 8.109375 
Q 21.484375 6.890625 26.8125 6.890625 
Q 36.078125 6.890625 40.9375 10.546875 
Q 45.796875 14.203125 45.796875 21.1875 
Q 45.796875 27.640625 41.28125 31.265625 
Q 36.765625 34.90625 28.71875 34.90625 
L 20.21875 34.90625 
L 20.21875 43.015625 
L 29.109375 43.015625 
Q 36.375 43.015625 40.234375 45.921875 
Q 44.09375 48.828125 44.09375 54.296875 
Q 44.09375 59.90625 40.109375 62.90625 
Q 36.140625 65.921875 28.71875 65.921875 
Q 24.65625 65.921875 20.015625 65.03125 
Q 15.375 64.15625 9.8125 62.3125 
L 9.8125 71.09375 
Q 15.4375 72.65625 20.34375 73.4375 
Q 25.25 74.21875 29.59375 74.21875 
Q 40.828125 74.21875 47.359375 69.109375 
Q 53.90625 64.015625 53.90625 55.328125 
Q 53.90625 49.265625 50.4375 45.09375 
Q 46.96875 40.921875 40.578125 39.3125 
z
" id="DejaVuSans-51"/>
      </defs>
      <g transform="translate(501.362772 366.772604)scale(0.1 -0.1)">
       <use xlink:href="#DejaVuSans-51"/>
       <use x="63.623047" xlink:href="#DejaVuSans-48"/>
       <use x="127.246094" xlink:href="#DejaVuSans-48"/>
      </g>
     </g>
    </g>
   </g>
   <g id="matplotlib.axis_2">
    <g id="ytick_1">
     <g id="line2d_8">
      <defs>
       <path d="M 0 0 
L -3.5 0 
" id="m0fae85d4f5" style="stroke:#000000;stroke-width:0.8;"/>
      </defs>
      <g>
       <use style="stroke:#000000;stroke-width:0.8;" x="66.158594" xlink:href="#m0fae85d4f5" y="352.174167"/>
      </g>
     </g>
     <g id="text_8">
      <!-- 0 -->
      <g transform="translate(52.796094 355.973385)scale(0.1 -0.1)">
       <use xlink:href="#DejaVuSans-48"/>
      </g>
     </g>
    </g>
    <g id="ytick_2">
     <g id="line2d_9">
      <g>
       <use style="stroke:#000000;stroke-width:0.8;" x="66.158594" xlink:href="#m0fae85d4f5" y="306.17163"/>
      </g>
     </g>
     <g id="text_9">
      <!-- 10 -->
      <g transform="translate(46.433594 309.970849)scale(0.1 -0.1)">
       <use xlink:href="#DejaVuSans-49"/>
       <use x="63.623047" xlink:href="#DejaVuSans-48"/>
      </g>
     </g>
    </g>
    <g id="ytick_3">
     <g id="line2d_10">
      <g>
       <use style="stroke:#000000;stroke-width:0.8;" x="66.158594" xlink:href="#m0fae85d4f5" y="260.169094"/>
      </g>
     </g>
     <g id="text_10">
      <!-- 20 -->
      <g transform="translate(46.433594 263.968313)scale(0.1 -0.1)">
       <use xlink:href="#DejaVuSans-50"/>
       <use x="63.623047" xlink:href="#DejaVuSans-48"/>
      </g>
     </g>
    </g>
    <g id="ytick_4">
     <g id="line2d_11">
      <g>
       <use style="stroke:#000000;stroke-width:0.8;" x="66.158594" xlink:href="#m0fae85d4f5" y="214.166558"/>
      </g>
     </g>
     <g id="text_11">
      <!-- 30 -->
      <g transform="translate(46.433594 217.965776)scale(0.1 -0.1)">
       <use xlink:href="#DejaVuSans-51"/>
       <use x="63.623047" xlink:href="#DejaVuSans-48"/>
      </g>
     </g>
    </g>
    <g id="ytick_5">
     <g id="line2d_12">
      <g>
       <use style="stroke:#000000;stroke-width:0.8;" x="66.158594" xlink:href="#m0fae85d4f5" y="168.164021"/>
      </g>
     </g>
     <g id="text_12">
      <!-- 40 -->
      <defs>
       <path d="M 37.796875 64.3125 
L 12.890625 25.390625 
L 37.796875 25.390625 
z
M 35.203125 72.90625 
L 47.609375 72.90625 
L 47.609375 25.390625 
L 58.015625 25.390625 
L 58.015625 17.1875 
L 47.609375 17.1875 
L 47.609375 0 
L 37.796875 0 
L 37.796875 17.1875 
L 4.890625 17.1875 
L 4.890625 26.703125 
z
" id="DejaVuSans-52"/>
      </defs>
      <g transform="translate(46.433594 171.96324)scale(0.1 -0.1)">
       <use xlink:href="#DejaVuSans-52"/>
       <use x="63.623047" xlink:href="#DejaVuSans-48"/>
      </g>
     </g>
    </g>
    <g id="ytick_6">
     <g id="line2d_13">
      <g>
       <use style="stroke:#000000;stroke-width:0.8;" x="66.158594" xlink:href="#m0fae85d4f5" y="122.161485"/>
      </g>
     </g>
     <g id="text_13">
      <!-- 50 -->
      <g transform="translate(46.433594 125.960704)scale(0.1 -0.1)">
       <use xlink:href="#DejaVuSans-53"/>
       <use x="63.623047" xlink:href="#DejaVuSans-48"/>
      </g>
     </g>
    </g>
    <g id="ytick_7">
     <g id="line2d_14">
      <g>
       <use style="stroke:#000000;stroke-width:0.8;" x="66.158594" xlink:href="#m0fae85d4f5" y="76.158949"/>
      </g>
     </g>
     <g id="text_14">
      <!-- 60 -->
      <defs>
       <path d="M 33.015625 40.375 
Q 26.375 40.375 22.484375 35.828125 
Q 18.609375 31.296875 18.609375 23.390625 
Q 18.609375 15.53125 22.484375 10.953125 
Q 26.375 6.390625 33.015625 6.390625 
Q 39.65625 6.390625 43.53125 10.953125 
Q 47.40625 15.53125 47.40625 23.390625 
Q 47.40625 31.296875 43.53125 35.828125 
Q 39.65625 40.375 33.015625 40.375 
z
M 52.59375 71.296875 
L 52.59375 62.3125 
Q 48.875 64.0625 45.09375 64.984375 
Q 41.3125 65.921875 37.59375 65.921875 
Q 27.828125 65.921875 22.671875 59.328125 
Q 17.53125 52.734375 16.796875 39.40625 
Q 19.671875 43.65625 24.015625 45.921875 
Q 28.375 48.1875 33.59375 48.1875 
Q 44.578125 48.1875 50.953125 41.515625 
Q 57.328125 34.859375 57.328125 23.390625 
Q 57.328125 12.15625 50.6875 5.359375 
Q 44.046875 -1.421875 33.015625 -1.421875 
Q 20.359375 -1.421875 13.671875 8.265625 
Q 6.984375 17.96875 6.984375 36.375 
Q 6.984375 53.65625 15.1875 63.9375 
Q 23.390625 74.21875 37.203125 74.21875 
Q 40.921875 74.21875 44.703125 73.484375 
Q 48.484375 72.75 52.59375 71.296875 
z
" id="DejaVuSans-54"/>
      </defs>
      <g transform="translate(46.433594 79.958167)scale(0.1 -0.1)">
       <use xlink:href="#DejaVuSans-54"/>
       <use x="63.623047" xlink:href="#DejaVuSans-48"/>
      </g>
     </g>
    </g>
    <g id="text_15">
     <!-- droprate -->
     <defs>
      <path d="M 45.40625 46.390625 
L 45.40625 75.984375 
L 54.390625 75.984375 
L 54.390625 0 
L 45.40625 0 
L 45.40625 8.203125 
Q 42.578125 3.328125 38.25 0.953125 
Q 33.9375 -1.421875 27.875 -1.421875 
Q 17.96875 -1.421875 11.734375 6.484375 
Q 5.515625 14.40625 5.515625 27.296875 
Q 5.515625 40.1875 11.734375 48.09375 
Q 17.96875 56 27.875 56 
Q 33.9375 56 38.25 53.625 
Q 42.578125 51.265625 45.40625 46.390625 
z
M 14.796875 27.296875 
Q 14.796875 17.390625 18.875 11.75 
Q 22.953125 6.109375 30.078125 6.109375 
Q 37.203125 6.109375 41.296875 11.75 
Q 45.40625 17.390625 45.40625 27.296875 
Q 45.40625 37.203125 41.296875 42.84375 
Q 37.203125 48.484375 30.078125 48.484375 
Q 22.953125 48.484375 18.875 42.84375 
Q 14.796875 37.203125 14.796875 27.296875 
z
" id="DejaVuSans-100"/>
      <path d="M 41.109375 46.296875 
Q 39.59375 47.171875 37.8125 47.578125 
Q 36.03125 48 33.890625 48 
Q 26.265625 48 22.1875 43.046875 
Q 18.109375 38.09375 18.109375 28.8125 
L 18.109375 0 
L 9.078125 0 
L 9.078125 54.6875 
L 18.109375 54.6875 
L 18.109375 46.1875 
Q 20.953125 51.171875 25.484375 53.578125 
Q 30.03125 56 36.53125 56 
Q 37.453125 56 38.578125 55.875 
Q 39.703125 55.765625 41.0625 55.515625 
z
" id="DejaVuSans-114"/>
      <path d="M 30.609375 48.390625 
Q 23.390625 48.390625 19.1875 42.75 
Q 14.984375 37.109375 14.984375 27.296875 
Q 14.984375 17.484375 19.15625 11.84375 
Q 23.34375 6.203125 30.609375 6.203125 
Q 37.796875 6.203125 41.984375 11.859375 
Q 46.1875 17.53125 46.1875 27.296875 
Q 46.1875 37.015625 41.984375 42.703125 
Q 37.796875 48.390625 30.609375 48.390625 
z
M 30.609375 56 
Q 42.328125 56 49.015625 48.375 
Q 55.71875 40.765625 55.71875 27.296875 
Q 55.71875 13.875 49.015625 6.21875 
Q 42.328125 -1.421875 30.609375 -1.421875 
Q 18.84375 -1.421875 12.171875 6.21875 
Q 5.515625 13.875 5.515625 27.296875 
Q 5.515625 40.765625 12.171875 48.375 
Q 18.84375 56 30.609375 56 
z
" id="DejaVuSans-111"/>
      <path d="M 18.109375 8.203125 
L 18.109375 -20.796875 
L 9.078125 -20.796875 
L 9.078125 54.6875 
L 18.109375 54.6875 
L 18.109375 46.390625 
Q 20.953125 51.265625 25.265625 53.625 
Q 29.59375 56 35.59375 56 
Q 45.5625 56 51.78125 48.09375 
Q 58.015625 40.1875 58.015625 27.296875 
Q 58.015625 14.40625 51.78125 6.484375 
Q 45.5625 -1.421875 35.59375 -1.421875 
Q 29.59375 -1.421875 25.265625 0.953125 
Q 20.953125 3.328125 18.109375 8.203125 
z
M 48.6875 27.296875 
Q 48.6875 37.203125 44.609375 42.84375 
Q 40.53125 48.484375 33.40625 48.484375 
Q 26.265625 48.484375 22.1875 42.84375 
Q 18.109375 37.203125 18.109375 27.296875 
Q 18.109375 17.390625 22.1875 11.75 
Q 26.265625 6.109375 33.40625 6.109375 
Q 40.53125 6.109375 44.609375 11.75 
Q 48.6875 17.390625 48.6875 27.296875 
z
" id="DejaVuSans-112"/>
      <path d="M 34.28125 27.484375 
Q 23.390625 27.484375 19.1875 25 
Q 14.984375 22.515625 14.984375 16.5 
Q 14.984375 11.71875 18.140625 8.90625 
Q 21.296875 6.109375 26.703125 6.109375 
Q 34.1875 6.109375 38.703125 11.40625 
Q 43.21875 16.703125 43.21875 25.484375 
L 43.21875 27.484375 
z
M 52.203125 31.203125 
L 52.203125 0 
L 43.21875 0 
L 43.21875 8.296875 
Q 40.140625 3.328125 35.546875 0.953125 
Q 30.953125 -1.421875 24.3125 -1.421875 
Q 15.921875 -1.421875 10.953125 3.296875 
Q 6 8.015625 6 15.921875 
Q 6 25.140625 12.171875 29.828125 
Q 18.359375 34.515625 30.609375 34.515625 
L 43.21875 34.515625 
L 43.21875 35.40625 
Q 43.21875 41.609375 39.140625 45 
Q 35.0625 48.390625 27.6875 48.390625 
Q 23 48.390625 18.546875 47.265625 
Q 14.109375 46.140625 10.015625 43.890625 
L 10.015625 52.203125 
Q 14.9375 54.109375 19.578125 55.046875 
Q 24.21875 56 28.609375 56 
Q 40.484375 56 46.34375 49.84375 
Q 52.203125 43.703125 52.203125 31.203125 
z
" id="DejaVuSans-97"/>
      <path d="M 18.3125 70.21875 
L 18.3125 54.6875 
L 36.8125 54.6875 
L 36.8125 47.703125 
L 18.3125 47.703125 
L 18.3125 18.015625 
Q 18.3125 11.328125 20.140625 9.421875 
Q 21.96875 7.515625 27.59375 7.515625 
L 36.8125 7.515625 
L 36.8125 0 
L 27.59375 0 
Q 17.1875 0 13.234375 3.875 
Q 9.28125 7.765625 9.28125 18.015625 
L 9.28125 47.703125 
L 2.6875 47.703125 
L 2.6875 54.6875 
L 9.28125 54.6875 
L 9.28125 70.21875 
z
" id="DejaVuSans-116"/>
      <path d="M 56.203125 29.59375 
L 56.203125 25.203125 
L 14.890625 25.203125 
Q 15.484375 15.921875 20.484375 11.0625 
Q 25.484375 6.203125 34.421875 6.203125 
Q 39.59375 6.203125 44.453125 7.46875 
Q 49.3125 8.734375 54.109375 11.28125 
L 54.109375 2.78125 
Q 49.265625 0.734375 44.1875 -0.34375 
Q 39.109375 -1.421875 33.890625 -1.421875 
Q 20.796875 -1.421875 13.15625 6.1875 
Q 5.515625 13.8125 5.515625 26.8125 
Q 5.515625 40.234375 12.765625 48.109375 
Q 20.015625 56 32.328125 56 
Q 43.359375 56 49.78125 48.890625 
Q 56.203125 41.796875 56.203125 29.59375 
z
M 47.21875 32.234375 
Q 47.125 39.59375 43.09375 43.984375 
Q 39.0625 48.390625 32.421875 48.390625 
Q 24.90625 48.390625 20.390625 44.140625 
Q 15.875 39.890625 15.1875 32.171875 
z
" id="DejaVuSans-101"/>
     </defs>
     <g transform="translate(40.353906 215.236302)rotate(-90)scale(0.1 -0.1)">
      <use xlink:href="#DejaVuSans-100"/>
      <use x="63.476562" xlink:href="#DejaVuSans-114"/>
      <use x="104.558594" xlink:href="#DejaVuSans-111"/>
      <use x="165.740234" xlink:href="#DejaVuSans-112"/>
      <use x="229.216797" xlink:href="#DejaVuSans-114"/>
      <use x="270.330078" xlink:href="#DejaVuSans-97"/>
      <use x="331.609375" xlink:href="#DejaVuSans-116"/>
      <use x="370.818359" xlink:href="#DejaVuSans-101"/>
     </g>
    </g>
   </g>
   <g id="line2d_15">
    <path clip-path="url(#p611271fb2c)" d="M 86.606804 352.174167 
L 91.096823 352.174167 
L 91.404917 50.163056 
L 91.559725 298.212247 
L 91.715635 352.174167 
L 91.864121 352.174167 
L 92.019395 345.621099 
L 92.174675 352.174167 
L 92.479701 352.174167 
L 92.783274 343.278649 
L 92.932712 352.174167 
L 99.501341 352.174167 
L 99.797168 282.513183 
L 99.9495 313.731936 
L 100.103658 319.224692 
L 100.255394 329.172898 
L 100.41061 352.174167 
L 100.562231 345.602376 
L 100.711598 352.174167 
L 100.858963 349.537918 
L 101.007168 319.22106 
L 101.156561 352.174167 
L 101.463047 352.174167 
L 101.617142 338.272301 
L 101.769361 352.174167 
L 102.070951 352.174167 
L 102.228472 348.444231 
L 102.376901 350.867276 
L 102.526174 323.504031 
L 102.678518 352.174167 
L 102.833201 352.174167 
L 102.980799 340.445475 
L 103.13385 352.174167 
L 103.439843 352.174167 
L 103.594505 339.536107 
L 103.751566 352.174167 
L 104.055499 352.174167 
L 104.20377 345.583545 
L 104.358481 352.174167 
L 104.513743 352.174167 
L 104.668769 332.118565 
L 104.823741 352.174167 
L 105.129295 352.174167 
L 105.278643 336.580087 
L 105.427238 352.174167 
L 105.727294 352.174167 
L 105.878068 341.089218 
L 106.029914 352.174167 
L 106.336431 352.174167 
L 106.491372 340.412155 
L 106.648121 352.174167 
L 106.796257 352.174167 
L 106.945168 341.719045 
L 107.098734 352.174167 
L 107.400211 352.174167 
L 107.55162 340.208189 
L 107.701499 352.174167 
L 107.997467 352.174167 
L 108.146019 335.841905 
L 108.296319 352.174167 
L 108.591271 352.174167 
L 108.739123 344.265421 
L 108.886696 342.947297 
L 109.034436 352.174167 
L 109.187004 335.515867 
L 109.334499 352.174167 
L 109.629768 352.174167 
L 109.777495 342.947297 
L 109.924672 352.174167 
L 110.072584 323.175433 
L 110.220457 352.174167 
L 110.517936 352.174167 
L 110.664663 339.852059 
L 110.811505 352.174167 
L 111.107001 352.174167 
L 111.254567 334.428381 
L 111.4014 352.174167 
L 111.549129 352.174167 
L 111.696684 346.90167 
L 111.84444 352.174167 
L 111.994703 339.1791 
L 112.142299 352.174167 
L 112.734772 352.174167 
L 112.881601 329.105048 
L 113.029355 352.174167 
L 113.333456 352.174167 
L 113.637187 347.062774 
L 113.79087 352.174167 
L 113.940664 350.878321 
L 114.093525 352.174167 
L 114.247769 335.038551 
L 114.396792 352.174167 
L 114.546785 352.174167 
L 114.704175 350.930855 
L 114.852285 342.758443 
L 115.000301 352.174167 
L 115.148454 352.174167 
L 115.299027 344.39909 
L 115.447001 352.174167 
L 115.594417 328.44793 
L 115.749195 352.174167 
L 116.064999 352.174167 
L 116.215039 334.839878 
L 116.370088 352.174167 
L 116.527375 352.174167 
L 116.675341 339.142287 
L 116.823106 352.174167 
L 117.118201 352.174167 
L 117.269841 341.748663 
L 117.420768 352.174167 
L 117.71784 352.174167 
L 117.866354 345.621099 
L 118.014814 352.174167 
L 118.163432 348.242326 
L 118.311251 335.038551 
L 118.467995 352.174167 
L 118.782555 352.174167 
L 118.935149 333.773152 
L 119.090625 352.174167 
L 119.238289 352.174167 
L 119.385924 349.537918 
L 119.533579 327.129806 
L 119.686132 324.545016 
L 119.833922 349.55294 
L 119.981797 335.038551 
L 120.13731 352.174167 
L 120.437527 352.174167 
L 120.585466 341.659301 
L 120.733472 352.174167 
L 120.886107 327.343252 
L 121.041825 352.174167 
L 121.192 328.379751 
L 121.344119 349.646555 
L 121.499624 352.174167 
L 121.655134 332.118565 
L 121.807692 352.174167 
L 122.111637 352.174167 
L 122.269175 348.464285 
L 122.420875 341.979699 
L 122.729678 352.174167 
L 122.886972 352.174167 
L 123.042273 344.653316 
L 123.190757 352.174167 
L 123.487514 352.174167 
L 123.636079 323.67702 
L 123.788792 352.174167 
L 123.939145 352.174167 
L 124.086113 331.023575 
L 124.381726 352.174167 
L 124.529526 352.174167 
L 124.678934 328.650142 
L 124.830318 352.174167 
L 125.13586 352.174167 
L 125.287449 348.329944 
L 125.442059 352.174167 
L 125.753041 348.393136 
L 125.900059 352.174167 
L 126.055929 338.348268 
L 126.205537 352.174167 
L 126.507361 352.174167 
L 126.662458 345.889667 
L 126.816589 352.174167 
L 126.963448 350.856042 
L 127.110182 341.568395 
L 127.263 350.852255 
L 127.417899 345.889667 
L 127.571355 352.174167 
L 127.726704 345.889667 
L 127.882056 352.174167 
L 128.038115 339.324296 
L 128.188218 352.174167 
L 128.34358 352.174167 
L 128.490902 349.537918 
L 128.63838 352.174167 
L 128.79364 325.706954 
L 128.943853 352.174167 
L 129.246575 352.174167 
L 129.40114 349.65348 
L 129.556706 338.385941 
L 129.867161 352.174167 
L 130.020758 352.174167 
L 130.168846 348.242326 
L 130.316775 352.174167 
L 130.464718 328.44793 
L 130.612689 352.174167 
L 130.914258 352.174167 
L 131.060944 339.778274 
L 131.207782 352.174167 
L 131.506829 352.174167 
L 131.653892 341.188486 
L 131.80089 352.174167 
L 131.948024 352.174167 
L 132.096329 342.947297 
L 132.24894 352.174167 
L 132.549019 352.174167 
L 132.696941 345.602376 
L 132.847283 352.174167 
L 133.002088 350.917267 
L 133.151833 352.174167 
L 133.304093 332.230871 
L 133.458343 352.174167 
L 133.606048 352.174167 
L 133.753215 340.276959 
L 133.899987 352.174167 
L 134.194837 352.174167 
L 134.3424 338.992924 
L 134.49336 352.174167 
L 134.79279 352.174167 
L 134.944539 338.992924 
L 135.0978 352.174167 
L 135.250648 352.174167 
L 135.40293 336.754322 
L 135.551877 352.174167 
L 135.70301 322.453427 
L 135.858352 352.174167 
L 136.013056 347.146567 
L 136.167777 352.174167 
L 136.322756 352.174167 
L 136.477546 339.570732 
L 136.779825 352.174167 
L 136.931801 352.174167 
L 137.086568 338.310389 
L 137.241224 352.174167 
L 137.536796 352.174167 
L 137.688133 344.42093 
L 137.843491 352.174167 
L 137.997909 352.174167 
L 138.151323 333.164854 
L 138.300582 352.174167 
L 138.605882 352.174167 
L 138.758112 334.939787 
L 138.912494 352.174167 
L 139.064252 352.174167 
L 139.218849 335.789702 
L 139.365694 349.43592 
L 139.512632 352.174167 
L 139.659167 352.174167 
L 139.805658 348.185507 
L 139.953112 352.174167 
L 140.247818 352.174167 
L 140.395337 336.032926 
L 140.549375 352.174167 
L 140.845338 352.174167 
L 140.992675 342.590305 
L 141.14007 348.208431 
L 141.290092 330.372017 
L 141.443827 352.174167 
L 141.896561 352.174167 
L 142.044458 346.946606 
L 142.192317 334.428381 
L 142.347098 352.174167 
L 142.493791 352.174167 
L 142.640598 340.242673 
L 142.794715 352.174167 
L 143.101481 352.174167 
L 143.256646 348.413741 
L 143.403661 352.174167 
L 143.550585 352.174167 
L 143.697761 349.530343 
L 143.84531 339.997025 
L 143.992912 352.174167 
L 144.140061 352.174167 
L 144.294528 343.303154 
L 144.441217 352.174167 
L 144.591921 349.582474 
L 144.746999 352.174167 
L 144.899901 332.230871 
L 145.051853 352.174167 
L 145.207465 352.174167 
L 145.36229 343.399841 
L 145.82904 352.174167 
L 145.981648 341.979699 
L 146.137408 352.174167 
L 146.291316 340.544312 
L 146.441721 352.174167 
L 146.591716 326.839437 
L 146.746547 352.174167 
L 146.902317 352.174167 
L 147.052949 340.609283 
L 147.202816 352.174167 
L 147.354364 334.284291 
L 147.509311 352.174167 
L 147.815346 352.174167 
L 147.967077 343.154062 
L 148.123443 352.174167 
L 148.278687 352.174167 
L 148.433707 334.625515 
L 148.59113 352.174167 
L 148.895074 352.174167 
L 149.048075 341.598871 
L 149.203617 352.174167 
L 149.360633 352.174167 
L 149.669778 347.019821 
L 149.818509 337.798374 
L 149.97607 352.174167 
L 150.283724 352.174167 
L 150.437614 339.501292 
L 150.589224 352.174167 
L 150.737896 340.378645 
L 150.886455 352.174167 
L 151.039848 352.174167 
L 151.189447 341.807398 
L 151.344566 352.174167 
L 151.497258 339.466284 
L 151.652763 352.174167 
L 151.964993 352.174167 
L 152.112966 344.332825 
L 152.264487 352.174167 
L 152.416171 348.329944 
L 152.566775 332.791076 
L 152.717641 352.174167 
L 153.023149 352.174167 
L 153.178516 339.215706 
L 153.333585 352.174167 
L 153.482404 341.748663 
L 153.633529 352.174167 
L 153.786049 352.174167 
L 153.937252 335.375488 
L 154.087966 352.174167 
L 154.240203 349.611351 
L 154.392345 352.174167 
L 154.541691 332.114921 
L 154.693363 352.174167 
L 154.988939 352.174167 
L 155.141322 338.762348 
L 155.296248 352.174167 
L 155.450723 352.174167 
L 155.60122 348.297548 
L 155.751447 352.174167 
L 155.903359 347.048536 
L 156.057665 352.174167 
L 156.213378 327.89505 
L 156.36742 352.174167 
L 156.516574 352.174167 
L 156.66458 336.446804 
L 157.111928 352.174167 
L 157.260322 335.08751 
L 157.417695 352.174167 
L 157.730448 352.174167 
L 157.884038 350.906879 
L 158.188005 338.955047 
L 158.339234 352.174167 
L 158.493135 352.174167 
L 158.644909 343.204313 
L 158.799278 352.174167 
L 158.953194 327.44162 
L 159.108144 352.174167 
L 159.559232 352.174167 
L 159.707288 340.311048 
L 159.854834 352.174167 
L 160.159672 352.174167 
L 160.316554 344.734403 
L 160.473623 352.174167 
L 160.630547 350.934206 
L 160.786774 339.741049 
L 160.935464 352.174167 
L 161.083763 339.030585 
L 161.232146 352.174167 
L 161.545337 352.174167 
L 161.700533 348.413741 
L 161.857677 352.174167 
L 162.012976 352.174167 
L 162.168441 342.146366 
L 162.325219 352.174167 
L 162.475717 349.589755 
L 162.625495 352.174167 
L 162.774224 333.877703 
L 162.929279 352.174167 
L 163.237203 352.174167 
L 163.394174 344.570442 
L 163.549492 345.906791 
L 163.697748 352.174167 
L 163.846693 324.729472 
L 163.998184 352.174167 
L 164.152645 345.872449 
L 164.305352 352.174167 
L 164.458597 349.639592 
L 164.614422 349.674029 
L 164.768334 338.955047 
L 164.92156 352.174167 
L 165.073176 352.174167 
L 165.220891 342.947297 
L 165.369118 352.174167 
L 165.51734 344.288018 
L 165.669864 352.174167 
L 165.825055 349.65348 
L 165.982081 352.174167 
L 166.139068 338.078682 
L 166.295893 352.174167 
L 166.75159 352.174167 
L 166.904659 328.848937 
L 167.054681 352.174167 
L 167.210222 349.667216 
L 167.362062 332.953051 
L 167.511029 332.626347 
L 167.659972 332.570813 
L 167.810765 352.174167 
L 168.113435 352.174167 
L 168.264217 341.865475 
L 168.415149 352.174167 
L 168.568173 345.802624 
L 168.725434 344.734403 
L 168.882642 325.993861 
L 169.039895 352.174167 
L 169.195334 352.174167 
L 169.350407 320.837289 
L 169.506299 352.174167 
L 169.659079 333.929535 
L 169.812462 352.174167 
L 169.969936 352.174167 
L 170.127198 332.38813 
L 170.282072 352.174167 
L 170.430838 345.658227 
L 170.579224 352.174167 
L 170.727979 333.877703 
L 170.876643 352.174167 
L 171.173638 352.174167 
L 171.329492 341.748663 
L 171.486289 352.174167 
L 171.642046 352.174167 
L 171.790231 346.931712 
L 171.939326 350.825119 
L 172.087677 340.378645 
L 172.236064 352.174167 
L 172.386983 335.375488 
L 172.53611 352.174167 
L 172.843522 352.174167 
L 172.997976 344.632767 
L 173.145487 352.174167 
L 173.298121 350.899858 
L 173.446008 338.992924 
L 173.599041 344.310485 
L 173.748533 339.142287 
L 173.89927 352.174167 
L 174.209778 352.174167 
L 174.365274 331.785231 
L 174.520776 352.174167 
L 174.676251 352.174167 
L 174.984888 338.310389 
L 175.138948 342.063719 
L 175.29258 352.174167 
L 175.598335 352.174167 
L 175.746138 342.947297 
L 175.893814 352.174167 
L 176.04415 350.878321 
L 176.194765 337.9599 
L 176.344623 337.91986 
L 176.493357 352.174167 
L 176.641763 352.174167 
L 176.790803 336.491484 
L 176.939035 352.174167 
L 177.233874 352.174167 
L 177.53078 345.639715 
L 177.680584 339.215706 
L 177.834136 352.174167 
L 178.142648 348.403467 
L 178.294077 352.174167 
L 178.44876 335.87899 
L 178.60292 352.174167 
L 178.757526 341.865475 
L 178.90852 352.174167 
L 179.055381 349.537918 
L 179.209298 335.608156 
L 179.363316 332.008671 
L 179.51879 352.174167 
L 179.672973 352.174167 
L 179.828183 342.118967 
L 179.983562 352.174167 
L 180.293604 352.174167 
L 180.448754 339.068031 
L 180.60388 352.174167 
L 180.759245 352.174167 
L 180.914191 340.862068 
L 181.067781 352.174167 
L 181.378943 352.174167 
L 181.531395 347.048536 
L 181.682396 352.174167 
L 181.837144 352.174167 
L 181.985055 345.621099 
L 182.136955 344.008036 
L 182.290695 352.174167 
L 182.444438 352.174167 
L 182.594184 341.807398 
L 182.742923 352.174167 
L 183.042769 352.174167 
L 183.195573 341.598871 
L 183.347929 352.174167 
L 183.500628 352.174167 
L 183.651862 340.673533 
L 183.805319 352.174167 
L 184.107983 352.174167 
L 184.260961 341.951381 
L 184.414189 352.174167 
L 184.872416 352.174167 
L 185.026369 339.570732 
L 185.181179 339.501292 
L 185.332026 352.174167 
L 185.486861 352.174167 
L 185.639767 333.217078 
L 185.791975 352.174167 
L 186.095583 352.174167 
L 186.25057 342.091419 
L 186.406482 352.174167 
L 186.557177 352.174167 
L 186.711749 331.953272 
L 186.862127 352.174167 
L 187.016071 345.837729 
L 187.165764 352.174167 
L 187.320415 337.839099 
L 187.474421 352.174167 
L 187.775573 352.174167 
L 187.925523 345.694936 
L 188.080383 326.898048 
L 188.232524 352.174167 
L 188.530573 352.174167 
L 188.67842 342.947297 
L 188.826248 352.174167 
L 188.974044 337.023631 
L 189.120985 352.174167 
L 189.41764 352.174167 
L 189.572599 333.506471 
L 189.727057 352.174167 
L 189.881783 352.174167 
L 190.029163 336.401868 
L 190.182062 352.174167 
L 190.476651 352.174167 
L 190.624356 344.265421 
L 190.772396 352.174167 
L 190.928094 336.446804 
L 191.082358 352.174167 
L 191.237694 352.174167 
L 191.393094 340.923546 
L 191.703381 352.174167 
L 191.858472 352.174167 
L 192.013497 337.132465 
L 192.162487 352.174167 
L 192.468211 352.174167 
L 192.767709 339.215706 
L 193.220036 352.174167 
L 193.371788 332.899361 
L 193.526124 352.174167 
L 193.834856 352.174167 
L 193.988836 349.646555 
L 194.142853 338.310389 
L 194.298397 340.799913 
L 194.452884 352.174167 
L 194.603041 352.174167 
L 194.758612 332.118565 
L 194.913911 352.174167 
L 195.22038 352.174167 
L 195.369858 343.051851 
L 195.518953 352.174167 
L 195.668492 352.174167 
L 195.823937 329.611615 
L 195.975054 352.174167 
L 196.276539 352.174167 
L 196.431583 344.355039 
L 196.581343 352.174167 
L 196.730144 335.841905 
L 196.881458 352.174167 
L 197.028905 352.174167 
L 197.325498 339.55152 
L 197.473815 352.174167 
L 197.62211 352.174167 
L 197.77013 349.54545 
L 197.925719 352.174167 
L 198.080484 323.265469 
L 198.235106 352.174167 
L 198.382577 339.888623 
L 198.534075 352.174167 
L 198.681659 352.174167 
L 198.829575 348.219794 
L 198.976828 350.856042 
L 199.124287 317.804456 
L 199.275756 352.174167 
L 199.423673 349.54545 
L 199.574831 352.174167 
L 199.721867 337.290993 
L 199.869538 352.174167 
L 200.177094 352.174167 
L 200.332213 340.544312 
L 200.483424 352.174167 
L 200.635973 352.174167 
L 200.7896 339.501292 
L 200.943241 352.174167 
L 201.096709 342.035867 
L 201.250069 352.174167 
L 201.402972 347.091013 
L 201.558578 352.174167 
L 201.71361 350.920692 
L 201.868516 330.806868 
L 202.022716 352.174167 
L 202.32116 352.174167 
L 202.469708 345.621099 
L 202.622036 352.174167 
L 202.773944 347.019821 
L 202.924076 352.174167 
L 203.071667 348.231092 
L 203.223767 352.174167 
L 203.378605 352.174167 
L 203.526075 342.999872 
L 203.67311 352.174167 
L 203.819919 333.614066 
L 203.966913 352.174167 
L 204.268554 352.174167 
L 204.418316 341.475902 
L 204.569219 352.174167 
L 204.722967 352.174167 
L 204.874317 347.034218 
L 205.029065 332.906089 
L 205.184011 352.174167 
L 205.649136 352.174167 
L 205.797988 336.032926 
L 205.94676 352.174167 
L 206.247531 352.174167 
L 206.394463 326.391034 
L 206.542035 352.174167 
L 206.689592 352.174167 
L 206.837125 350.852255 
L 206.987371 338.644009 
L 207.134941 352.174167 
L 207.282547 352.174167 
L 207.430113 333.720427 
L 207.577738 352.174167 
L 207.884078 352.174167 
L 208.040495 343.470984 
L 208.197238 352.174167 
L 208.497335 352.174167 
L 208.79411 349.54545 
L 208.943172 324.729472 
L 209.098183 352.174167 
L 209.252816 348.403467 
L 209.402234 352.174167 
L 209.550252 352.174167 
L 209.7056 337.008495 
L 209.863059 352.174167 
L 210.177457 352.174167 
L 210.332492 340.412155 
L 210.483734 352.174167 
L 210.779122 352.174167 
L 210.926472 336.886315 
L 211.073832 352.174167 
L 211.372021 352.174167 
L 211.519161 334.161125 
L 211.666964 352.174167 
L 211.818732 352.174167 
L 211.97301 348.382749 
L 212.127429 352.174167 
L 212.435907 352.174167 
L 212.585229 334.032321 
L 212.73457 352.174167 
L 212.883969 352.174167 
L 213.036443 350.899858 
L 213.186787 326.257245 
L 213.337244 352.174167 
L 213.491299 344.196848 
L 213.64125 352.174167 
L 213.94381 340.70539 
L 214.252251 350.917267 
L 214.407142 352.174167 
L 214.5617 321.925924 
L 214.714101 352.174167 
L 214.862772 349.55294 
L 215.011283 352.174167 
L 215.163532 320.04949 
L 215.310499 352.174167 
L 215.458096 340.311048 
L 215.605627 352.174167 
L 215.900514 352.174167 
L 216.048809 337.202927 
L 216.203608 352.174167 
L 216.355676 352.174167 
L 216.503673 339.068031 
L 216.650983 352.174167 
L 216.949263 352.174167 
L 217.103728 343.327525 
L 217.252858 352.174167 
L 217.552168 352.174167 
L 217.699042 335.744689 
L 217.845952 352.174167 
L 218.141044 352.174167 
L 218.436703 340.311048 
L 218.584283 328.44793 
L 218.731792 352.174167 
L 218.885319 347.062774 
L 219.039139 311.843176 
L 219.186845 352.174167 
L 219.336828 313.188966 
L 219.492585 352.174167 
L 219.647676 337.091368 
L 219.802969 352.174167 
L 219.958509 352.174167 
L 220.264024 339.570732 
L 220.415257 352.174167 
L 220.562197 335.744689 
L 220.710799 352.174167 
L 220.859424 352.174167 
L 221.007971 342.999872 
L 221.156748 352.174167 
L 221.309159 338.078682 
L 221.46312 352.174167 
L 221.769166 352.174167 
L 221.923972 331.440629 
L 222.079752 352.174167 
L 222.235159 352.174167 
L 222.390783 345.923822 
L 222.540729 352.174167 
L 222.693388 348.340622 
L 222.843388 352.174167 
L 222.993032 332.626347 
L 223.141032 352.174167 
L 223.448998 352.174167 
L 223.603799 340.412155 
L 223.750832 352.174167 
L 224.044394 352.174167 
L 224.191051 342.894116 
L 224.338475 344.242695 
L 224.494426 352.174167 
L 224.650022 348.42396 
L 224.805587 352.174167 
L 224.961048 336.711129 
L 225.116596 352.174167 
L 225.420347 352.174167 
L 225.56881 344.310485 
L 225.718238 350.870979 
L 225.871903 352.174167 
L 226.025675 328.161854 
L 226.179677 352.174167 
L 226.486213 352.174167 
L 226.633532 337.334639 
L 226.7878 352.174167 
L 226.939151 352.174167 
L 227.091196 340.609283 
L 227.247119 352.174167 
L 227.552317 352.174167 
L 227.704088 345.767128 
L 227.85097 352.174167 
L 227.999574 346.931712 
L 228.149799 352.174167 
L 228.301443 335.232723 
L 228.453046 352.174167 
L 228.601543 352.174167 
L 228.753752 334.234459 
L 228.903493 352.174167 
L 229.202585 352.174167 
L 229.354183 344.442648 
L 229.501802 352.174167 
L 229.648554 346.871281 
L 229.79537 352.174167 
L 229.942161 319.031129 
L 230.090372 352.174167 
L 230.385057 336.265509 
L 230.83042 352.174167 
L 230.977326 345.545559 
L 231.123994 350.848445 
L 231.275322 327.622251 
L 231.42337 352.174167 
L 231.728663 352.174167 
L 231.876277 325.193207 
L 232.023328 352.174167 
L 232.177214 352.174167 
L 232.327491 330.206663 
L 232.4774 350.844614 
L 232.624363 352.174167 
L 232.772711 352.174167 
L 232.922692 337.879593 
L 233.072698 352.174167 
L 233.37621 352.174167 
L 233.533465 344.549437 
L 233.688293 352.174167 
L 233.843504 338.348268 
L 234.000771 352.174167 
L 234.156079 352.174167 
L 234.304965 335.28058 
L 234.459356 352.174167 
L 234.607411 332.458794 
L 234.760045 352.174167 
L 235.062159 352.174167 
L 235.216507 333.667399 
L 235.367857 352.174167 
L 235.97694 352.174167 
L 236.12474 333.720427 
L 236.276467 352.174167 
L 236.581806 352.174167 
L 236.735978 334.584962 
L 236.888105 352.174167 
L 237.19759 352.174167 
L 237.352929 345.923822 
L 237.500654 321.943929 
L 237.655113 352.174167 
L 237.810196 348.403467 
L 237.959627 352.174167 
L 238.112093 335.56214 
L 238.260137 352.174167 
L 238.56096 352.174167 
L 238.717932 343.447398 
L 238.873737 352.174167 
L 239.029259 352.174167 
L 239.182978 336.966717 
L 239.337953 350.867276 
L 239.492069 352.174167 
L 239.644375 352.174167 
L 239.797621 330.510922 
L 239.950382 352.174167 
L 240.254034 352.174167 
L 240.40936 340.378645 
L 240.563435 352.174167 
L 240.714469 352.174167 
L 240.862871 341.659301 
L 241.017933 344.219838 
L 241.169694 352.174167 
L 241.324923 352.174167 
L 241.480071 323.265469 
L 241.635667 352.174167 
L 241.790726 345.694936 
L 241.937574 352.174167 
L 242.084229 346.855954 
L 242.230981 352.174167 
L 242.377649 337.59123 
L 242.526745 352.174167 
L 242.834512 352.174167 
L 242.989688 339.105264 
L 243.14477 352.174167 
L 243.297788 352.174167 
L 243.453006 332.118565 
L 243.608159 352.174167 
L 243.918014 352.174167 
L 244.072944 326.967297 
L 244.220832 352.174167 
L 244.520368 352.174167 
L 244.672339 336.265509 
L 244.825947 352.174167 
L 244.97739 352.174167 
L 245.129309 344.48572 
L 245.277639 346.713925 
L 245.432082 352.174167 
L 245.581654 352.174167 
L 245.734406 343.254007 
L 245.882023 352.174167 
L 246.177862 352.174167 
L 246.326855 341.689258 
L 246.4747 350.863553 
L 246.623118 321.943929 
L 246.774501 352.174167 
L 246.924115 346.97614 
L 247.074549 331.440629 
L 247.223969 352.174167 
L 247.526821 352.174167 
L 247.677425 345.731234 
L 247.826055 352.174167 
L 247.974046 329.440355 
L 248.128407 352.174167 
L 248.283783 352.174167 
L 248.438673 333.320668 
L 248.592324 352.174167 
L 248.899872 352.174167 
L 249.046857 337.6748 
L 249.193756 352.174167 
L 249.4875 352.174167 
L 249.639609 344.464244 
L 249.786271 352.174167 
L 249.933088 336.793379 
L 250.080127 352.174167 
L 250.234291 352.174167 
L 250.38397 349.582474 
L 250.536353 352.174167 
L 250.835667 352.174167 
L 250.988543 331.671644 
L 251.143256 352.174167 
L 251.43666 352.174167 
L 251.5834 338.442066 
L 251.730066 352.174167 
L 251.876652 352.174167 
L 252.023168 342.894116 
L 252.169781 352.174167 
L 252.317124 342.894116 
L 252.47198 352.174167 
L 252.626084 345.855137 
L 252.780852 352.174167 
L 252.935557 316.980969 
L 253.086331 352.174167 
L 253.241082 337.839099 
L 253.391474 352.174167 
L 253.541736 352.174167 
L 253.692132 318.482168 
L 253.847005 352.174167 
L 254.001164 349.646555 
L 254.154096 352.174167 
L 254.46401 352.174167 
L 254.618751 340.478607 
L 254.773461 352.174167 
L 254.928262 352.174167 
L 255.083093 332.063768 
L 255.23636 352.174167 
L 255.389972 352.174167 
L 255.69493 339.395684 
L 255.847308 352.174167 
L 256.154173 321.759267 
L 256.300936 352.174167 
L 256.447618 320.35685 
L 256.595604 352.174167 
L 256.743161 340.311048 
L 256.890536 352.174167 
L 257.185596 352.174167 
L 257.338525 341.598871 
L 257.492189 352.174167 
L 257.646938 352.174167 
L 257.801729 334.529358 
L 257.955254 352.174167 
L 258.110048 344.632767 
L 258.264216 352.174167 
L 258.41898 348.403467 
L 258.573779 340.831076 
L 258.72445 326.474426 
L 258.878638 352.174167 
L 259.030159 336.265509 
L 259.1835 352.174167 
L 259.339573 352.174167 
L 259.493356 334.480883 
L 259.647035 352.174167 
L 259.956903 352.174167 
L 260.111069 320.404459 
L 260.261643 352.174167 
L 260.557588 352.174167 
L 260.706077 342.973659 
L 260.854021 352.174167 
L 261.003035 352.174167 
L 261.159816 338.497737 
L 261.314812 352.174167 
L 261.622003 352.174167 
L 261.771932 331.819062 
L 261.921745 352.174167 
L 262.071553 352.174167 
L 262.223046 347.019821 
L 262.373921 352.174167 
L 262.528963 324.446611 
L 262.682033 352.174167 
L 262.835515 349.639592 
L 262.983654 352.174167 
L 263.27909 352.174167 
L 263.425883 344.219838 
L 263.578475 352.174167 
L 263.731829 349.62555 
L 263.879046 337.716227 
L 264.026936 352.174167 
L 264.331184 352.174167 
L 264.483249 332.514963 
L 264.63873 352.174167 
L 264.950461 352.174167 
L 265.097541 348.208431 
L 265.244281 324.493557 
L 265.39117 352.174167 
L 265.695128 352.174167 
L 265.850313 345.906791 
L 266.005333 352.174167 
L 266.160577 326.546013 
L 266.315972 352.174167 
L 266.469448 352.174167 
L 266.624441 344.632767 
L 266.771209 352.174167 
L 266.917894 349.522724 
L 267.068245 352.174167 
L 267.216555 349.560386 
L 267.371527 352.174167 
L 267.523972 338.955047 
L 267.671694 352.174167 
L 267.821953 352.174167 
L 267.976759 337.050045 
L 268.286365 352.174167 
L 268.441491 352.174167 
L 268.596678 327.104665 
L 268.749385 352.174167 
L 269.042954 352.174167 
L 269.194105 342.894116 
L 269.341906 352.174167 
L 269.489565 341.598871 
L 269.63715 338.992924 
L 269.786794 352.174167 
L 270.094862 352.174167 
L 270.249933 338.348268 
L 270.401421 352.174167 
L 270.709082 352.174167 
L 270.864128 342.091419 
L 271.018781 352.174167 
L 271.172406 352.174167 
L 271.327479 338.348268 
L 271.48051 352.174167 
L 271.788698 352.174167 
L 271.940399 342.840319 
L 272.093417 352.174167 
L 272.248969 352.174167 
L 272.403999 340.892891 
L 272.559308 352.174167 
L 272.714624 333.37204 
L 272.870211 352.174167 
L 273.176667 352.174167 
L 273.331881 340.311048 
L 273.483452 352.174167 
L 273.640881 352.174167 
L 273.796229 340.923546 
L 273.944531 352.174167 
L 274.24917 352.174167 
L 274.403532 343.278649 
L 274.555066 352.174167 
L 274.708573 343.327525 
L 274.861777 352.174167 
L 275.008672 346.886519 
L 275.160689 352.174167 
L 275.315257 352.174167 
L 275.46556 339.252106 
L 275.614692 352.174167 
L 275.915836 352.174167 
L 276.068761 340.70539 
L 276.219789 352.174167 
L 276.368105 341.221182 
L 276.523353 352.174167 
L 276.977216 352.174167 
L 277.129751 323.983197 
L 277.285353 352.174167 
L 277.440345 350.917267 
L 277.590405 352.174167 
L 277.744282 337.633135 
L 277.899786 352.174167 
L 278.046742 352.174167 
L 278.19654 339.142287 
L 278.351838 352.174167 
L 278.657183 352.174167 
L 278.806279 344.355039 
L 278.955965 352.174167 
L 279.252062 352.174167 
L 279.403359 340.138619 
L 279.553643 352.174167 
L 279.703581 352.174167 
L 279.855757 344.507077 
L 280.004317 352.174167 
L 280.308621 352.174167 
L 280.458277 338.878636 
L 280.610058 352.174167 
L 280.909287 352.174167 
L 281.064506 349.65348 
L 281.217348 325.487612 
L 281.373409 352.174167 
L 281.526353 345.820225 
L 281.680212 352.174167 
L 281.97901 352.174167 
L 282.12647 341.122506 
L 282.274729 352.174167 
L 282.575086 352.174167 
L 282.883954 342.173615 
L 283.03897 352.174167 
L 283.34972 352.174167 
L 283.503663 344.591331 
L 283.656925 352.174167 
L 283.808463 334.738803 
L 283.962914 352.174167 
L 284.114762 352.174167 
L 284.267014 349.611351 
L 284.41988 352.174167 
L 284.574296 335.744689 
L 284.724586 352.174167 
L 285.035043 352.174167 
L 285.18782 349.63259 
L 285.334719 349.537918 
L 285.482316 329.307409 
L 285.629093 352.174167 
L 285.775925 352.174167 
L 285.923473 332.345487 
L 286.073547 352.174167 
L 286.220408 346.886519 
L 286.367244 352.174167 
L 286.662577 352.174167 
L 286.809397 334.161125 
L 286.960544 352.174167 
L 287.266268 352.174167 
L 287.422003 341.865475 
L 287.577307 352.174167 
L 287.730492 352.174167 
L 287.87735 341.568395 
L 288.029535 352.174167 
L 288.186752 345.731234 
L 288.341806 352.174167 
L 288.497035 352.174167 
L 288.65262 333.37204 
L 288.800331 352.174167 
L 289.103756 352.174167 
L 289.250533 336.356676 
L 289.397364 352.174167 
L 289.706872 352.174167 
L 289.861844 343.375867 
L 290.015861 347.118943 
L 290.169876 325.851189 
L 290.324814 334.529358 
L 290.478936 352.174167 
L 290.784929 352.174167 
L 290.940656 343.303154 
L 291.092912 352.174167 
L 291.388376 352.174167 
L 291.538762 349.575153 
L 291.686089 336.356676 
L 291.979913 352.174167 
L 292.126722 352.174167 
L 292.278834 341.89427 
L 292.433996 352.174167 
L 292.588839 341.89427 
L 292.735657 352.174167 
L 293.029781 352.174167 
L 293.176643 349.522724 
L 293.325152 352.174167 
L 293.479437 344.570442 
L 293.634652 352.174167 
L 293.789656 352.174167 
L 293.946871 342.281148 
L 294.104164 352.174167 
L 294.412989 352.174167 
L 294.723544 335.87899 
L 294.877916 352.174167 
L 295.175964 352.174167 
L 295.327825 341.89427 
L 295.479739 352.174167 
L 295.629341 324.961399 
L 295.784663 352.174167 
L 295.939846 352.174167 
L 296.086734 339.030585 
L 296.240876 352.174167 
L 296.535178 352.174167 
L 296.682439 341.598871 
L 296.83132 352.174167 
L 296.984186 336.032926 
L 297.136739 352.174167 
L 297.443811 352.174167 
L 297.594472 345.749231 
L 297.741434 346.886519 
L 297.897152 352.174167 
L 298.199721 352.174167 
L 298.35031 336.667694 
L 298.505368 352.174167 
L 298.806858 352.174167 
L 298.953854 332.775507 
L 299.100704 352.174167 
L 299.249271 352.174167 
L 299.396289 332.288344 
L 299.546967 352.174167 
L 299.843397 352.174167 
L 299.993848 332.736475 
L 300.14778 352.174167 
L 300.460377 352.174167 
L 300.60975 341.444712 
L 300.76346 352.174167 
L 300.916381 352.174167 
L 301.067432 345.731234 
L 301.214118 352.174167 
L 301.369996 347.132793 
L 301.524135 352.174167 
L 301.678934 337.879593 
L 301.834336 352.174167 
L 301.989018 352.174167 
L 302.143207 342.091419 
L 302.297626 350.87466 
L 302.444582 346.886519 
L 302.592448 352.174167 
L 302.747663 319.405237 
L 302.90322 352.174167 
L 303.060416 344.734403 
L 303.209162 350.870979 
L 303.359567 324.961399 
L 303.50916 348.275647 
L 303.660675 340.576889 
L 303.816522 352.174167 
L 303.968585 352.174167 
L 304.124209 348.403467 
L 304.279908 352.174167 
L 304.437232 327.374956 
L 304.58491 346.946606 
L 304.73232 345.564607 
L 305.041346 349.667216 
L 305.198588 329.854877 
L 305.355762 352.174167 
L 305.66457 352.174167 
L 305.811513 328.547486 
L 305.959163 352.174167 
L 306.106852 352.174167 
L 306.260039 348.329944 
L 306.414543 333.825577 
L 306.571738 352.174167 
L 306.724772 352.174167 
L 306.880587 327.172788 
L 307.029279 352.174167 
L 307.184387 340.737072 
L 307.339578 352.174167 
L 307.651166 352.174167 
L 307.802131 341.568395 
L 307.949554 352.174167 
L 308.098091 352.174167 
L 308.246813 337.757417 
L 308.393741 352.174167 
L 308.540715 350.848445 
L 308.687814 352.174167 
L 308.835194 334.989311 
L 308.984216 352.174167 
L 309.292344 352.174167 
L 309.442861 339.288302 
L 309.902646 352.174167 
L 310.060223 352.174167 
L 310.207721 343.025935 
L 310.358069 352.174167 
L 310.652585 352.174167 
L 310.800286 332.357689 
L 310.947891 352.174167 
L 311.095103 352.174167 
L 311.244123 345.621099 
L 311.392073 352.174167 
L 311.539765 319.22106 
L 311.687314 352.174167 
L 311.835812 344.310485 
L 311.987544 347.034218 
L 312.14283 324.446611 
L 312.29447 352.174167 
L 312.448325 352.174167 
L 312.605644 348.464285 
L 312.757806 334.989311 
L 312.909038 352.174167 
L 313.060496 352.174167 
L 313.213576 327.89505 
L 313.369401 352.174167 
L 313.676236 352.174167 
L 313.825981 341.285992 
L 313.973717 352.174167 
L 314.122383 352.174167 
L 314.270986 344.310485 
L 314.419069 343.934906 
L 314.571139 352.174167 
L 314.726614 352.174167 
L 314.874524 349.55294 
L 315.02231 350.856042 
L 315.169858 318.644621 
L 315.324245 352.174167 
L 315.632722 352.174167 
L 315.788819 337.999716 
L 315.9413 352.174167 
L 316.097095 352.174167 
L 316.250783 347.118943 
L 316.404885 352.174167 
L 316.559986 344.612106 
L 316.711587 352.174167 
L 316.85944 349.54545 
L 317.011639 344.48572 
L 317.160179 328.716783 
L 317.310252 352.174167 
L 317.465763 352.174167 
L 317.619062 347.105017 
L 317.774554 352.174167 
L 317.929444 325.851189 
L 318.083338 352.174167 
L 318.23191 341.629173 
L 318.389658 352.174167 
L 318.546917 352.174167 
L 318.704088 350.934206 
L 318.851885 341.475902 
L 318.999327 349.530343 
L 319.153863 348.382749 
L 319.309041 334.625515 
L 319.464765 352.174167 
L 319.620054 343.399841 
L 319.770458 352.174167 
L 320.235726 352.174167 
L 320.390321 345.872449 
L 320.538604 352.174167 
L 320.693983 324.522369 
L 320.847266 352.174167 
L 320.994503 350.859808 
L 321.147169 352.174167 
L 321.301642 329.299977 
L 321.456899 352.174167 
L 321.61246 352.174167 
L 321.762468 349.582474 
L 321.91763 341.475902 
L 322.073678 352.174167 
L 322.227872 352.174167 
L 322.382131 343.351762 
L 322.536103 352.174167 
L 322.843535 352.174167 
L 322.989931 342.947297 
L 323.136938 352.174167 
L 323.430011 349.530343 
L 323.576434 352.174167 
L 323.729332 336.797274 
L 323.883349 352.174167 
L 324.191525 352.174167 
L 324.345776 337.9599 
L 324.499758 352.174167 
L 324.653438 352.174167 
L 324.804836 345.749231 
L 324.958877 352.174167 
L 325.106054 320.62957 
L 325.252945 352.174167 
L 325.399673 341.568395 
L 325.546343 352.174167 
L 325.69295 352.174167 
L 325.986299 341.537742 
L 326.139098 352.174167 
L 326.285723 352.174167 
L 326.433465 331.084179 
L 326.731051 352.174167 
L 326.880428 352.174167 
L 327.027357 341.568395 
L 327.174203 352.174167 
L 327.321219 338.916952 
L 327.468193 352.174167 
L 327.617977 352.174167 
L 327.764611 349.522724 
L 327.912179 323.175433 
L 328.063211 352.174167 
L 328.209898 331.75884 
L 328.356432 352.174167 
L 328.502984 352.174167 
L 328.65287 331.323159 
L 328.801292 352.174167 
L 328.948029 342.867295 
L 329.098043 352.174167 
L 329.253546 340.862068 
L 329.408441 352.174167 
L 329.718193 352.174167 
L 329.870075 337.91986 
L 330.018268 352.174167 
L 330.165013 352.174167 
L 330.311627 342.867295 
L 330.458517 352.174167 
L 330.605778 334.989311 
L 330.755476 352.174167 
L 330.902173 349.530343 
L 331.049023 352.174167 
L 331.19568 334.215219 
L 331.342659 352.174167 
L 331.635767 352.174167 
L 331.78558 342.703056 
L 331.932059 352.174167 
L 332.079852 352.174167 
L 332.228524 345.639715 
L 332.376923 352.174167 
L 332.523303 346.871281 
L 332.670488 352.174167 
L 332.97232 352.174167 
L 333.122807 341.568395 
L 333.277216 352.174167 
L 333.579685 352.174167 
L 333.726397 342.618744 
L 333.876149 352.174167 
L 334.022885 352.174167 
L 334.177705 335.744689 
L 334.328947 352.174167 
L 334.637103 352.174167 
L 334.792854 344.42093 
L 334.940794 352.174167 
L 335.087436 338.442066 
L 335.234048 352.174167 
L 335.380617 352.174167 
L 335.527145 344.219838 
L 335.677347 352.174167 
L 335.824047 350.852255 
L 335.972915 352.174167 
L 336.122783 337.839099 
L 336.278215 352.174167 
L 336.571866 352.174167 
L 336.718505 341.537742 
L 336.865273 352.174167 
L 337.012855 343.983804 
L 337.159719 352.174167 
L 337.31108 352.174167 
L 337.457947 323.092103 
L 337.611515 352.174167 
L 337.921144 352.174167 
L 338.073012 343.229229 
L 338.2248 352.174167 
L 338.376614 350.892759 
L 338.528552 345.767128 
L 338.680219 345.784926 
L 338.827565 344.242695 
L 338.974687 352.174167 
L 339.267974 352.174167 
L 339.414746 346.871281 
L 339.561422 352.174167 
L 339.866674 352.174167 
L 340.019334 329.766054 
L 340.16645 352.174167 
L 340.313239 352.174167 
L 340.460355 323.092103 
L 340.607216 352.174167 
L 340.753996 346.871281 
L 340.900632 352.174167 
L 341.198223 352.174167 
L 341.352025 344.570442 
L 341.506737 344.612106 
L 341.661819 339.605168 
L 341.816028 338.385941 
L 342.256539 352.174167 
L 342.403136 342.894116 
L 342.554947 352.174167 
L 342.706706 344.464244 
L 342.861089 352.174167 
L 343.011964 329.571764 
L 343.164417 352.174167 
L 343.461237 352.174167 
L 343.60804 344.242695 
L 343.754791 349.515061 
L 344.057251 343.179257 
L 344.207624 352.174167 
L 344.507693 352.174167 
L 344.658914 342.840319 
L 344.805975 352.174167 
L 345.099618 352.174167 
L 345.246378 334.268988 
L 345.393157 352.174167 
L 345.543999 352.174167 
L 345.693683 333.981073 
L 345.84325 352.174167 
L 346.151388 352.174167 
L 346.3064 333.320668 
L 346.461221 352.174167 
L 346.615889 352.174167 
L 346.762568 348.219794 
L 346.909305 324.334015 
L 347.056038 352.174167 
L 347.202629 342.532917 
L 347.350769 352.174167 
L 347.503995 352.174167 
L 347.651255 348.242326 
L 347.798766 352.174167 
L 347.945922 324.414015 
L 348.097774 352.174167 
L 348.405909 352.174167 
L 348.560789 333.773152 
L 348.714677 352.174167 
L 348.866234 352.174167 
L 349.017472 343.154062 
L 349.164401 345.583545 
L 349.311626 328.379751 
L 349.464501 352.174167 
L 349.619519 343.351762 
L 349.772162 352.174167 
L 349.925178 344.42093 
L 350.078706 352.174167 
L 350.2295 336.21953 
L 350.376521 352.174167 
L 350.523236 352.174167 
L 350.670078 349.522724 
L 350.816699 349.522724 
L 350.967039 339.1791 
L 351.117537 352.174167 
L 351.41516 352.174167 
L 351.567475 347.034218 
L 351.722929 352.174167 
L 351.877859 334.083282 
L 352.032957 352.174167 
L 352.186378 348.382749 
L 352.340608 314.155542 
L 352.494957 347.132793 
L 352.649958 352.174167 
L 352.804992 352.174167 
L 352.954533 340.478607 
L 353.110476 352.174167 
L 353.265238 327.622251 
L 353.422575 352.174167 
L 353.577196 332.736475 
L 353.731978 352.174167 
L 353.886734 352.174167 
L 354.034131 329.830078 
L 354.182229 352.174167 
L 354.485112 352.174167 
L 354.64186 334.133956 
L 354.799242 352.174167 
L 355.100662 352.174167 
L 355.252529 342.947297 
L 355.403611 340.544312 
L 355.553756 352.174167 
L 355.703838 336.624014 
L 355.85995 352.174167 
L 356.170825 352.174167 
L 356.327467 347.200919 
L 356.484402 350.934206 
L 356.632012 350.859808 
L 356.780194 321.943929 
L 356.929021 352.174167 
L 357.078046 334.939787 
L 357.233568 352.174167 
L 357.384969 343.204313 
L 357.536131 352.174167 
L 357.68682 333.287495 
L 357.840563 352.174167 
L 357.989758 352.174167 
L 358.141804 350.892759 
L 358.293839 352.174167 
L 358.445773 335.515867 
L 358.59864 352.174167 
L 358.747045 348.242326 
L 358.894319 352.174167 
L 359.041568 324.334015 
L 359.193362 352.174167 
L 359.348425 344.632767 
L 359.503182 352.174167 
L 359.814274 324.446611 
L 359.970467 352.174167 
L 360.280239 352.174167 
L 360.427248 329.701663 
L 360.580859 352.174167 
L 360.885792 352.174167 
L 361.03584 346.990782 
L 361.183337 352.174167 
L 361.795557 352.174167 
L 361.950751 337.132465 
L 362.097549 352.174167 
L 362.39702 352.174167 
L 362.54648 331.997616 
L 362.693521 352.174167 
L 362.990892 352.174167 
L 363.137766 335.646309 
L 363.284537 352.174167 
L 363.578412 352.174167 
L 363.725469 338.234004 
L 363.872183 352.174167 
L 364.018955 352.174167 
L 364.167998 334.939787 
L 364.315822 352.174167 
L 364.611015 352.174167 
L 364.758564 338.955047 
L 364.905392 352.174167 
L 365.203338 352.174167 
L 365.350585 344.265421 
L 365.4975 352.174167 
L 365.653299 350.917267 
L 365.80813 334.577568 
L 365.962789 352.174167 
L 366.268795 352.174167 
L 366.421639 345.802624 
L 366.574312 352.174167 
L 366.726872 343.254007 
L 366.881057 350.910361 
L 367.034635 333.164854 
L 367.342643 352.174167 
L 367.651938 352.174167 
L 367.807093 337.91986 
L 367.962441 352.174167 
L 368.117293 352.174167 
L 368.26539 349.560386 
L 368.419717 344.355039 
L 368.575627 352.174167 
L 368.731213 352.174167 
L 368.885958 342.118967 
L 369.040869 352.174167 
L 369.351079 352.174167 
L 369.501914 332.345487 
L 369.651952 352.174167 
L 369.804351 352.174167 
L 369.958601 342.035867 
L 370.108968 352.174167 
L 370.257586 340.412155 
L 370.410698 352.174167 
L 370.717911 352.174167 
L 370.869966 341.659301 
L 371.022122 352.174167 
L 371.177035 352.174167 
L 371.33082 345.872449 
L 371.485634 352.174167 
L 371.792272 352.174167 
L 371.946494 334.432142 
L 372.10161 352.174167 
L 372.402715 342.999872 
L 372.557954 352.174167 
L 372.70928 334.284291 
L 372.861516 352.174167 
L 373.164823 352.174167 
L 373.318511 338.992924 
L 373.474268 352.174167 
L 373.630418 352.174167 
L 373.785613 337.132465 
L 373.939445 352.174167 
L 374.24158 352.174167 
L 374.393505 330.839657 
L 374.54318 352.174167 
L 374.697331 352.174167 
L 374.852953 349.667216 
L 375.156807 340.641497 
L 375.312226 352.174167 
L 375.460055 328.650142 
L 375.614455 352.174167 
L 375.913922 352.174167 
L 376.065907 329.766054 
L 376.217794 352.174167 
L 376.51437 352.174167 
L 376.662574 349.54545 
L 376.819992 352.174167 
L 376.972448 352.174167 
L 377.124779 335.56214 
L 377.274516 352.174167 
L 377.575897 352.174167 
L 377.723493 322.581892 
L 377.871247 352.174167 
L 378.01855 352.174167 
L 378.169256 337.91986 
L 378.323172 352.174167 
L 378.623394 352.174167 
L 378.773115 343.07762 
L 378.926533 352.174167 
L 379.237211 352.174167 
L 379.392652 340.511552 
L 379.548546 352.174167 
L 379.703964 352.174167 
L 379.854794 348.319206 
L 380.004971 352.174167 
L 380.157885 329.236614 
L 380.313954 352.174167 
L 380.615247 352.174167 
L 380.763646 337.202927 
L 380.919005 352.174167 
L 381.074613 352.174167 
L 381.227102 343.254007 
L 381.378116 352.174167 
L 381.683359 352.174167 
L 381.838135 333.981073 
L 381.989604 352.174167 
L 382.146636 352.174167 
L 382.302056 348.413741 
L 382.456276 352.174167 
L 382.611764 327.036169 
L 382.76751 352.174167 
L 382.918547 347.019821 
L 383.070972 352.174167 
L 383.22644 352.174167 
L 383.530109 336.667694 
L 383.684403 352.174167 
L 383.83403 352.174167 
L 383.988301 338.234004 
L 384.138074 352.174167 
L 384.44802 352.174167 
L 384.598594 326.110407 
L 384.755273 352.174167 
L 384.908624 352.174167 
L 385.063425 343.375867 
L 385.218695 352.174167 
L 385.528501 352.174167 
L 385.68095 347.076933 
L 385.833665 345.802624 
L 385.989422 332.118565 
L 386.137602 352.174167 
L 386.292644 352.174167 
L 386.441254 337.999716 
L 386.596678 352.174167 
L 386.897286 352.174167 
L 387.044878 346.886519 
L 387.194501 352.174167 
L 387.349998 327.036169 
L 387.507416 352.174167 
L 387.664061 348.444231 
L 387.819611 334.673202 
L 387.966891 352.174167 
L 388.116512 346.961415 
L 388.264308 352.174167 
L 388.41194 317.902936 
L 388.55953 352.174167 
L 388.707005 331.938447 
L 388.8589 352.174167 
L 389.154249 352.174167 
L 389.305402 341.689258 
L 389.461025 339.605168 
L 389.615104 352.174167 
L 389.910866 352.174167 
L 390.063945 347.062774 
L 390.216488 352.174167 
L 390.367981 344.442648 
L 390.524068 352.174167 
L 390.679137 352.174167 
L 390.826423 333.825577 
L 390.973733 352.174167 
L 391.129117 340.831076 
L 391.286331 352.174167 
L 391.582617 352.174167 
L 391.730221 344.242695 
L 391.877846 352.174167 
L 392.02551 335.985591 
L 392.180494 352.174167 
L 392.336365 344.442648 
L 392.491754 352.174167 
L 392.649125 352.174167 
L 392.801573 343.303154 
L 392.949495 352.174167 
L 393.098485 341.719045 
L 393.249271 352.174167 
L 393.553026 352.174167 
L 393.702897 340.208189 
L 393.850888 352.174167 
L 393.998552 352.174167 
L 394.146099 333.720427 
L 394.293705 352.174167 
L 394.589011 352.174167 
L 394.736529 349.537918 
L 394.888672 352.174167 
L 395.043253 323.186267 
L 395.199718 352.174167 
L 395.356064 349.687543 
L 395.512215 330.980586 
L 395.664191 350.859808 
L 395.815812 352.174167 
L 395.96737 352.174167 
L 396.120401 340.70539 
L 396.274544 352.174167 
L 396.422179 346.916734 
L 396.571313 348.253496 
L 396.721002 344.377127 
L 396.872941 352.174167 
L 397.023314 349.589755 
L 397.170782 325.811682 
L 397.317659 352.174167 
L 397.612176 352.174167 
L 397.765084 340.641497 
L 397.920241 352.174167 
L 398.22989 352.174167 
L 398.382647 336.311223 
L 398.532257 352.174167 
L 398.681911 352.174167 
L 398.831865 344.377127 
L 398.981786 352.174167 
L 399.289926 352.174167 
L 399.437475 330.525914 
L 399.584499 352.174167 
L 399.8858 352.174167 
L 400.032597 339.7036 
L 400.18391 352.174167 
L 400.33773 352.174167 
L 400.490347 343.254007 
L 400.640154 352.174167 
L 400.795396 342.091419 
L 400.948806 352.174167 
L 401.251934 352.174167 
L 401.405417 347.118943 
L 401.557051 352.174167 
L 401.71205 352.174167 
L 401.86382 329.172898 
L 402.017107 352.174167 
L 402.311506 352.174167 
L 402.458085 333.006443 
L 402.60846 352.174167 
L 402.91657 352.174167 
L 403.069151 344.528316 
L 403.222113 352.174167 
L 403.377709 352.174167 
L 403.531841 332.008671 
L 403.683094 352.174167 
L 403.979922 352.174167 
L 404.13497 348.393136 
L 404.287995 338.272301 
L 404.44283 340.799913 
L 404.75209 352.174167 
L 404.906903 347.146567 
L 405.060675 352.174167 
L 405.207521 333.667399 
L 405.35518 352.174167 
L 405.501917 328.829596 
L 405.648908 352.174167 
L 405.796297 352.174167 
L 406.100247 335.422543 
L 406.255274 337.091368 
L 406.40569 352.174167 
L 406.709143 352.174167 
L 406.863976 333.720427 
L 407.014005 352.174167 
L 407.320681 352.174167 
L 407.475269 339.105264 
L 407.626283 352.174167 
L 407.777689 352.174167 
L 407.929185 345.749231 
L 408.07924 352.174167 
L 408.374028 352.174167 
L 408.524894 330.715258 
L 408.67216 352.174167 
L 408.82109 352.174167 
L 408.97608 350.910361 
L 409.131097 337.839099 
L 409.281119 352.174167 
L 409.427803 352.174167 
L 409.578921 341.807398 
L 409.732168 352.174167 
L 410.039033 352.174167 
L 410.192813 331.38206 
L 410.34736 352.174167 
L 410.501801 352.174167 
L 410.655975 342.063719 
L 410.810591 352.174167 
L 411.119901 352.174167 
L 411.274879 331.20435 
L 411.429618 352.174167 
L 411.738273 352.174167 
L 411.893242 343.07762 
L 412.049691 352.174167 
L 412.198305 352.174167 
L 412.34516 346.886519 
L 412.491939 352.174167 
L 412.638847 325.659737 
L 412.79133 352.174167 
L 413.099644 352.174167 
L 413.249191 340.138619 
L 413.396111 352.174167 
L 413.542817 352.174167 
L 413.689538 336.265509 
L 413.837341 352.174167 
L 413.990178 341.922905 
L 414.136999 352.174167 
L 414.283642 337.549083 
L 414.43316 352.174167 
L 414.730805 352.174167 
L 414.881978 331.997616 
L 415.033222 352.174167 
L 415.187334 352.174167 
L 415.336217 344.377127 
L 415.491257 345.369058 
L 415.646111 352.174167 
L 415.801014 352.174167 
L 415.95609 344.632767 
L 416.103833 352.174167 
L 416.413103 352.174167 
L 416.567684 349.65348 
L 416.722501 335.834468 
L 416.876143 352.174167 
L 417.173525 352.174167 
L 417.320509 338.955047 
L 417.468586 352.174167 
L 417.762029 352.174167 
L 417.908589 335.744689 
L 418.060333 352.174167 
L 418.368673 352.174167 
L 418.515508 342.647014 
L 418.667901 352.174167 
L 418.814803 352.174167 
L 418.962066 336.265509 
L 419.108889 352.174167 
L 419.403359 352.174167 
L 419.557677 341.748663 
L 419.712494 352.174167 
L 420.022327 352.174167 
L 420.170638 345.658227 
L 420.324289 328.029189 
L 420.477385 352.174167 
L 420.624124 348.208431 
L 420.770889 352.174167 
L 420.917668 349.522724 
L 421.064456 352.174167 
L 421.218055 329.236614 
L 421.368867 352.174167 
L 421.523291 350.910361 
L 421.677512 340.799913 
L 421.828987 340.276959 
L 421.976083 352.174167 
L 422.123004 352.174167 
L 422.271301 340.311048 
L 422.425995 352.174167 
L 422.733574 352.174167 
L 422.883951 346.990782 
L 423.034543 352.174167 
L 423.187428 350.896318 
L 423.338164 334.083282 
L 423.644279 352.174167 
L 423.792109 352.174167 
L 423.939404 323.092103 
L 424.095605 352.174167 
L 424.398349 352.174167 
L 424.545359 337.023631 
L 424.692165 352.174167 
L 424.986871 352.174167 
L 425.281865 340.311048 
L 425.429051 352.174167 
L 425.725728 352.174167 
L 425.87578 340.511552 
L 426.023025 352.174167 
L 426.320658 352.174167 
L 426.476132 333.981073 
L 426.628143 352.174167 
L 426.783352 352.174167 
L 426.9388 325.851189 
L 427.08744 352.174167 
L 427.396258 352.174167 
L 427.543883 337.202927 
L 427.691738 352.174167 
L 427.838871 352.174167 
L 427.988712 348.275647 
L 428.14422 325.779269 
L 428.454971 352.174167 
L 428.602211 335.08751 
L 428.749828 352.174167 
L 429.04493 352.174167 
L 429.196388 347.034218 
L 429.348367 352.174167 
L 429.498051 318.386993 
L 429.651861 352.174167 
L 429.806343 352.174167 
L 429.959961 335.699429 
L 430.115049 352.174167 
L 430.422141 352.174167 
L 430.571475 335.841905 
L 430.725828 352.174167 
L 430.880698 352.174167 
L 431.034043 349.639592 
L 431.18943 341.659301 
L 431.338021 352.174167 
L 431.491777 352.174167 
L 431.641458 344.39909 
L 431.790717 352.174167 
L 432.089415 352.174167 
L 432.394091 344.42093 
L 432.702545 352.174167 
L 432.857635 352.174167 
L 433.00661 328.716783 
L 433.159384 352.174167 
L 433.459357 352.174167 
L 433.612297 337.506691 
L 433.76465 352.174167 
L 433.913795 352.174167 
L 434.06833 344.612106 
L 434.37114 352.174167 
L 434.519908 352.174167 
L 434.666759 342.920783 
L 434.818319 352.174167 
L 435.121324 352.174167 
L 435.269887 339.924971 
L 435.424456 352.174167 
L 435.576078 352.174167 
L 435.72583 344.377127 
L 435.873668 346.746139 
L 436.021329 352.174167 
L 436.169083 352.174167 
L 436.31721 342.947297 
L 436.465082 352.174167 
L 436.614908 343.07762 
L 436.767134 352.174167 
L 437.06491 352.174167 
L 437.211752 327.307931 
L 437.36004 352.174167 
L 437.509544 352.174167 
L 437.664663 347.132793 
L 437.812812 348.253496 
L 437.967398 336.966717 
L 438.12237 352.174167 
L 438.432444 352.174167 
L 438.581084 339.924971 
L 438.729121 352.174167 
L 438.877131 352.174167 
L 439.023869 349.522724 
L 439.173316 339.997025 
L 439.320051 352.174167 
L 439.466808 352.174167 
L 439.618376 335.422543 
L 439.765327 352.174167 
L 440.059816 352.174167 
L 440.206697 340.068236 
L 440.35724 352.174167 
L 440.663374 352.174167 
L 440.817965 335.13619 
L 440.972493 352.174167 
L 441.1271 352.174167 
L 441.281364 340.831076 
L 441.434763 352.174167 
L 441.73109 352.174167 
L 441.879844 349.560386 
L 442.029144 352.174167 
L 442.182553 345.802624 
L 442.336208 344.570442 
L 442.48681 341.506912 
L 442.64233 352.174167 
L 443.255287 352.174167 
L 443.40241 346.90167 
L 443.556857 332.953051 
L 443.704726 352.174167 
L 443.857531 352.174167 
L 444.011169 338.234004 
L 444.164454 352.174167 
L 444.464577 352.174167 
L 444.613933 340.445475 
L 444.765168 352.174167 
L 445.065451 352.174167 
L 445.218583 328.716783 
L 445.373495 352.174167 
L 445.523643 352.174167 
L 445.833257 341.689258 
L 445.988795 352.174167 
L 446.140329 352.174167 
L 446.289488 336.535911 
L 446.443502 352.174167 
L 446.597594 345.855137 
L 446.748111 352.174167 
L 446.894961 350.852255 
L 447.041954 352.174167 
L 447.18882 333.614066 
L 447.339048 352.174167 
L 447.632729 352.174167 
L 447.779471 340.208189 
L 447.926307 352.174167 
L 448.073496 349.530343 
L 448.220336 352.174167 
L 448.368105 330.397818 
L 448.515595 352.174167 
L 448.663267 352.174167 
L 448.810943 335.038551 
L 448.96068 352.174167 
L 449.270096 352.174167 
L 449.426749 347.200919 
L 449.581334 352.174167 
L 449.729733 337.202927 
L 449.877324 352.174167 
L 450.172586 352.174167 
L 450.320115 340.068236 
L 450.467831 340.311048 
L 450.615502 352.174167 
L 450.921852 352.174167 
L 451.071699 341.778113 
L 451.219337 352.174167 
L 451.366952 340.311048 
L 451.514835 352.174167 
L 451.671887 344.673753 
L 451.826585 352.174167 
L 451.983148 350.927485 
L 452.139184 339.741049 
L 452.292887 352.174167 
L 452.446051 352.174167 
L 452.593844 350.863553 
L 452.741479 324.493557 
L 452.890927 352.174167 
L 453.038553 345.602376 
L 453.187904 346.961415 
L 453.33543 331.997616 
L 453.483018 352.174167 
L 453.637539 352.174167 
L 453.791675 340.831076 
L 453.946368 352.174167 
L 454.247694 352.174167 
L 454.399538 344.442648 
L 454.553953 352.174167 
L 454.709354 340.412155 
L 454.856854 352.174167 
L 455.011561 352.174167 
L 455.167209 337.17334 
L 455.321227 352.174167 
L 455.627636 352.174167 
L 455.776584 334.322436 
L 455.926454 352.174167 
L 456.238752 352.174167 
L 456.394424 337.9599 
L 456.542792 352.174167 
L 456.698237 352.174167 
L 456.855092 329.854877 
L 457.004232 352.174167 
L 457.30442 352.174167 
L 457.453623 344.377127 
L 457.605375 352.174167 
L 457.758392 333.452204 
L 457.914231 352.174167 
L 458.36602 352.174167 
L 458.516302 323.665553 
L 458.667267 352.174167 
L 458.815758 345.621099 
L 458.971942 352.174167 
L 459.127473 340.892891 
L 459.275883 341.748663 
L 459.424042 345.369058 
L 459.57333 352.174167 
L 459.722472 352.174167 
L 459.873155 335.328167 
L 460.025723 352.174167 
L 460.326953 352.174167 
L 460.479678 345.802624 
L 460.63465 352.174167 
L 460.781706 349.55294 
L 460.929495 352.174167 
L 461.077009 350.856042 
L 461.224582 336.311223 
L 461.37223 352.174167 
L 461.667417 352.174167 
L 461.815022 341.629173 
L 461.96542 352.174167 
L 462.267509 352.174167 
L 462.415182 335.646309 
L 462.563004 352.174167 
L 462.713507 352.174167 
L 462.869126 348.403467 
L 463.019009 352.174167 
L 463.331943 352.174167 
L 463.489822 332.493937 
L 463.644968 352.174167 
L 463.79524 344.42093 
L 463.942335 352.174167 
L 464.089056 352.174167 
L 464.239087 346.961415 
L 464.39447 352.174167 
L 464.546577 348.340622 
L 464.696105 352.174167 
L 464.851807 336.924707 
L 464.999386 352.174167 
L 465.15321 339.431082 
L 465.301844 352.174167 
L 465.452931 352.174167 
L 465.600275 337.6748 
L 465.751085 352.174167 
L 466.057772 352.174167 
L 466.213643 342.118967 
L 466.366419 352.174167 
L 466.674084 352.174167 
L 466.828013 340.412155 
L 466.975956 352.174167 
L 467.125397 352.174167 
L 467.275838 343.128724 
L 467.425896 352.174167 
L 467.579608 344.549437 
L 467.727689 352.174167 
L 468.03346 352.174167 
L 468.187605 347.118943 
L 468.339898 352.174167 
L 468.486918 352.174167 
L 468.641354 334.383131 
L 468.795601 352.174167 
L 469.093959 352.174167 
L 469.245151 337.798374 
L 469.397948 352.174167 
L 469.694715 352.174167 
L 469.843758 342.973659 
L 469.995043 352.174167 
L 470.152425 352.174167 
L 470.309654 345.974364 
L 470.457375 352.174167 
L 470.605013 342.947297 
L 470.752897 352.174167 
L 470.900425 352.174167 
L 471.050455 346.961415 
L 471.204242 336.966717 
L 471.357352 352.174167 
L 471.655311 344.265421 
L 471.802884 352.174167 
L 471.950392 329.766054 
L 472.105466 352.174167 
L 472.252469 320.539185 
L 472.39929 352.174167 
L 472.693009 352.174167 
L 472.839966 345.545559 
L 472.986801 352.174167 
L 473.139454 352.174167 
L 473.29521 339.639416 
L 473.442966 350.825119 
L 473.593184 352.174167 
L 473.740995 352.174167 
L 473.895879 345.855137 
L 474.051008 352.174167 
L 474.203052 333.614066 
L 474.357896 352.174167 
L 474.513212 352.174167 
L 474.66524 345.784926 
L 474.816785 344.173726 
L 474.967585 352.174167 
L 475.120947 352.174167 
L 475.274064 343.254007 
L 475.428281 352.174167 
L 475.733827 352.174167 
L 475.884035 336.12677 
L 476.031643 352.174167 
L 476.17922 352.174167 
L 476.326656 337.633135 
L 476.474239 352.174167 
L 476.777324 352.174167 
L 476.932016 331.953272 
L 477.086487 352.174167 
L 477.397623 352.174167 
L 477.552983 340.445475 
L 477.706145 352.174167 
L 477.853417 352.174167 
L 478.002075 345.621099 
L 478.156 352.174167 
L 478.307086 341.89427 
L 478.460342 352.174167 
L 478.615177 344.612106 
L 478.766188 352.174167 
L 478.921246 331.263923 
L 479.072436 352.174167 
L 479.226512 352.174167 
L 479.381596 342.118967 
L 479.535893 352.174167 
L 479.688017 344.507077 
L 479.839543 352.174167 
L 479.992995 342.920783 
L 480.147029 352.174167 
L 480.300213 350.903378 
L 480.449758 323.665553 
L 480.603609 352.174167 
L 480.914766 352.174167 
L 481.067372 340.737072 
L 481.221444 352.174167 
L 481.374384 341.629173 
L 481.530057 352.174167 
L 481.685352 350.920692 
L 481.840162 324.522369 
L 481.992139 352.174167 
L 482.147351 350.917267 
L 482.30008 352.174167 
L 482.450618 347.005342 
L 482.601647 352.174167 
L 482.74856 326.691712 
L 482.900968 352.174167 
L 483.056763 352.174167 
L 483.211885 344.653316 
L 483.366816 352.174167 
L 483.52142 319.494769 
L 483.673303 352.174167 
L 483.826726 341.719045 
L 483.98173 352.174167 
L 484.134553 352.174167 
L 484.442641 344.48572 
L 484.59434 352.174167 
L 484.749532 352.174167 
L 484.903868 337.050045 
L 485.055609 352.174167 
L 485.210186 349.65348 
L 485.365335 352.174167 
L 485.520358 334.673202 
L 485.667976 352.174167 
L 485.82267 352.174167 
L 485.972861 339.215706 
L 486.125743 352.174167 
L 486.430451 352.174167 
L 486.578403 342.947297 
L 486.728195 352.174167 
L 486.880024 352.174167 
L 487.186557 338.992924 
L 487.340667 352.174167 
L 487.493814 352.174167 
L 487.645547 331.671644 
L 487.800899 352.174167 
L 488.107951 352.174167 
L 488.263937 345.923822 
L 488.417407 352.174167 
L 488.572644 350.917267 
L 488.725376 331.785231 
L 488.880001 352.174167 
L 489.184203 352.174167 
L 489.336374 343.204313 
L 489.48546 352.174167 
L 489.638184 352.174167 
L 489.79189 348.382749 
L 489.947125 352.174167 
L 490.099352 344.528316 
L 490.253907 352.174167 
L 490.405475 341.922905 
L 490.560437 352.174167 
L 490.715007 348.393136 
L 490.863458 352.174167 
L 491.01817 330.019971 
L 491.172889 352.174167 
L 491.327216 352.174167 
L 491.476194 343.051851 
L 491.626044 352.174167 
L 491.778249 341.922905 
L 491.933184 352.174167 
L 492.234203 352.174167 
L 492.38553 332.288344 
L 492.533706 352.174167 
L 492.686609 352.174167 
L 492.8419 330.86509 
L 492.992401 352.174167 
L 493.297492 352.174167 
L 493.451876 348.393136 
L 493.600894 352.174167 
L 493.750495 346.961415 
L 493.902529 352.174167 
L 494.056044 331.323159 
L 494.209565 352.174167 
L 494.364907 352.174167 
L 494.516733 338.117836 
L 494.667308 352.174167 
L 494.969013 352.174167 
L 495.118205 342.703056 
L 495.270148 352.174167 
L 495.571009 352.174167 
L 495.571009 352.174167 
" style="fill:none;stroke:#1f77b4;stroke-linecap:square;stroke-width:1.5;"/>
   </g>
   <g id="patch_3">
    <path d="M 66.158594 352.174167 
L 66.158594 35.0625 
" style="fill:none;stroke:#000000;stroke-linecap:square;stroke-linejoin:miter;stroke-width:0.8;"/>
   </g>
   <g id="patch_4">
    <path d="M 516.019219 352.174167 
L 516.019219 35.0625 
" style="fill:none;stroke:#000000;stroke-linecap:square;stroke-linejoin:miter;stroke-width:0.8;"/>
   </g>
   <g id="patch_5">
    <path d="M 66.158594 352.174167 
L 516.019219 352.174167 
" style="fill:none;stroke:#000000;stroke-linecap:square;stroke-linejoin:miter;stroke-width:0.8;"/>
   </g>
   <g id="patch_6">
    <path d="M 66.158594 35.0625 
L 516.019219 35.0625 
" style="fill:none;stroke:#000000;stroke-linecap:square;stroke-linejoin:miter;stroke-width:0.8;"/>
   </g>
   <g id="legend_1">
    <g id="patch_7">
     <path d="M 540.51225 53.01875 
L 620.748187 53.01875 
Q 622.748187 53.01875 622.748187 51.01875 
L 622.748187 37.0625 
Q 622.748187 35.0625 620.748187 35.0625 
L 540.51225 35.0625 
Q 538.51225 35.0625 538.51225 37.0625 
L 538.51225 51.01875 
Q 538.51225 53.01875 540.51225 53.01875 
z
" style="fill:#ffffff;opacity:0.8;stroke:#cccccc;stroke-linejoin:miter;"/>
    </g>
    <g id="line2d_16">
     <path d="M 542.51225 43.160937 
L 562.51225 43.160937 
" style="fill:none;stroke:#1f77b4;stroke-linecap:square;stroke-width:1.5;"/>
    </g>
    <g id="line2d_17"/>
    <g id="text_16">
     <!-- drop_rate -->
     <defs>
      <path d="M 50.984375 -16.609375 
L 50.984375 -23.578125 
L -0.984375 -23.578125 
L -0.984375 -16.609375 
z
" id="DejaVuSans-95"/>
     </defs>
     <g transform="translate(570.51225 46.660937)scale(0.1 -0.1)">
      <use xlink:href="#DejaVuSans-100"/>
      <use x="63.476562" xlink:href="#DejaVuSans-114"/>
      <use x="104.558594" xlink:href="#DejaVuSans-111"/>
      <use x="165.740234" xlink:href="#DejaVuSans-112"/>
      <use x="229.216797" xlink:href="#DejaVuSans-95"/>
      <use x="279.216797" xlink:href="#DejaVuSans-114"/>
      <use x="320.330078" xlink:href="#DejaVuSans-97"/>
      <use x="381.609375" xlink:href="#DejaVuSans-116"/>
      <use x="420.818359" xlink:href="#DejaVuSans-101"/>
     </g>
    </g>
   </g>
  </g>
  <g id="text_17">
   <!-- result droprate -->
   <defs>
    <path d="M 44.28125 53.078125 
L 44.28125 44.578125 
Q 40.484375 46.53125 36.375 47.5 
Q 32.28125 48.484375 27.875 48.484375 
Q 21.1875 48.484375 17.84375 46.4375 
Q 14.5 44.390625 14.5 40.28125 
Q 14.5 37.15625 16.890625 35.375 
Q 19.28125 33.59375 26.515625 31.984375 
L 29.59375 31.296875 
Q 39.15625 29.25 43.1875 25.515625 
Q 47.21875 21.78125 47.21875 15.09375 
Q 47.21875 7.46875 41.1875 3.015625 
Q 35.15625 -1.421875 24.609375 -1.421875 
Q 20.21875 -1.421875 15.453125 -0.5625 
Q 10.6875 0.296875 5.421875 2 
L 5.421875 11.28125 
Q 10.40625 8.6875 15.234375 7.390625 
Q 20.0625 6.109375 24.8125 6.109375 
Q 31.15625 6.109375 34.5625 8.28125 
Q 37.984375 10.453125 37.984375 14.40625 
Q 37.984375 18.0625 35.515625 20.015625 
Q 33.0625 21.96875 24.703125 23.78125 
L 21.578125 24.515625 
Q 13.234375 26.265625 9.515625 29.90625 
Q 5.8125 33.546875 5.8125 39.890625 
Q 5.8125 47.609375 11.28125 51.796875 
Q 16.75 56 26.8125 56 
Q 31.78125 56 36.171875 55.265625 
Q 40.578125 54.546875 44.28125 53.078125 
z
" id="DejaVuSans-115"/>
    <path d="M 8.5 21.578125 
L 8.5 54.6875 
L 17.484375 54.6875 
L 17.484375 21.921875 
Q 17.484375 14.15625 20.5 10.265625 
Q 23.53125 6.390625 29.59375 6.390625 
Q 36.859375 6.390625 41.078125 11.03125 
Q 45.3125 15.671875 45.3125 23.6875 
L 45.3125 54.6875 
L 54.296875 54.6875 
L 54.296875 0 
L 45.3125 0 
L 45.3125 8.40625 
Q 42.046875 3.421875 37.71875 1 
Q 33.40625 -1.421875 27.6875 -1.421875 
Q 18.265625 -1.421875 13.375 4.4375 
Q 8.5 10.296875 8.5 21.578125 
z
M 31.109375 56 
z
" id="DejaVuSans-117"/>
    <path d="M 9.421875 75.984375 
L 18.40625 75.984375 
L 18.40625 0 
L 9.421875 0 
z
" id="DejaVuSans-108"/>
    <path id="DejaVuSans-32"/>
   </defs>
   <g transform="translate(297.047813 17.038125)scale(0.12 -0.12)">
    <use xlink:href="#DejaVuSans-114"/>
    <use x="41.082031" xlink:href="#DejaVuSans-101"/>
    <use x="102.605469" xlink:href="#DejaVuSans-115"/>
    <use x="154.705078" xlink:href="#DejaVuSans-117"/>
    <use x="218.083984" xlink:href="#DejaVuSans-108"/>
    <use x="245.867188" xlink:href="#DejaVuSans-116"/>
    <use x="285.076172" xlink:href="#DejaVuSans-32"/>
    <use x="316.863281" xlink:href="#DejaVuSans-100"/>
    <use x="380.339844" xlink:href="#DejaVuSans-114"/>
    <use x="421.421875" xlink:href="#DejaVuSans-111"/>
    <use x="482.603516" xlink:href="#DejaVuSans-112"/>
    <use x="546.080078" xlink:href="#DejaVuSans-114"/>
    <use x="587.193359" xlink:href="#DejaVuSans-97"/>
    <use x="648.472656" xlink:href="#DejaVuSans-116"/>
    <use x="687.681641" xlink:href="#DejaVuSans-101"/>
   </g>
  </g>
 </g>
 <defs>
  <clipPath id="p611271fb2c">
   <rect height="317.111667" width="449.860625" x="66.158594" y="35.0625"/>
  </clipPath>
 </defs>
</svg>
