<?xml version="1.0" encoding="utf-8" standalone="no"?>
<!DOCTYPE svg PUBLIC "-//W3C//DTD SVG 1.1//EN"
  "http://www.w3.org/Graphics/SVG/1.1/DTD/svg11.dtd">
<!-- Created with matplotlib (https://matplotlib.org/) -->
<svg height="396pt" version="1.1" viewBox="0 0 684 396" width="684pt" xmlns="http://www.w3.org/2000/svg" xmlns:xlink="http://www.w3.org/1999/xlink">
 <defs>
  <style type="text/css">
*{stroke-linecap:butt;stroke-linejoin:round;}
  </style>
 </defs>
 <g id="figure_1">
  <g id="patch_1">
   <path d="M 0 396 
L 684 396 
L 684 0 
L 0 0 
z
" style="fill:#ffffff;"/>
  </g>
  <g id="axes_1">
   <g id="patch_2">
    <path d="M 66.158594 352.174167 
L 516.019219 352.174167 
L 516.019219 35.0625 
L 66.158594 35.0625 
z
" style="fill:#ffffff;"/>
   </g>
   <g id="matplotlib.axis_1">
    <g id="xtick_1">
     <g id="line2d_1">
      <defs>
       <path d="M 0 0 
L 0 3.5 
" id="m8af45b29eb" style="stroke:#000000;stroke-width:0.8;"/>
      </defs>
      <g>
       <use style="stroke:#000000;stroke-width:0.8;" x="91.895643" xlink:href="#m8af45b29eb" y="352.174167"/>
      </g>
     </g>
     <g id="text_1">
      <!-- 0 -->
      <defs>
       <path d="M 31.78125 66.40625 
Q 24.171875 66.40625 20.328125 58.90625 
Q 16.5 51.421875 16.5 36.375 
Q 16.5 21.390625 20.328125 13.890625 
Q 24.171875 6.390625 31.78125 6.390625 
Q 39.453125 6.390625 43.28125 13.890625 
Q 47.125 21.390625 47.125 36.375 
Q 47.125 51.421875 43.28125 58.90625 
Q 39.453125 66.40625 31.78125 66.40625 
z
M 31.78125 74.21875 
Q 44.046875 74.21875 50.515625 64.515625 
Q 56.984375 54.828125 56.984375 36.375 
Q 56.984375 17.96875 50.515625 8.265625 
Q 44.046875 -1.421875 31.78125 -1.421875 
Q 19.53125 -1.421875 13.0625 8.265625 
Q 6.59375 17.96875 6.59375 36.375 
Q 6.59375 54.828125 13.0625 64.515625 
Q 19.53125 74.21875 31.78125 74.21875 
z
" id="DejaVuSans-48"/>
      </defs>
      <g transform="translate(88.714393 366.772604)scale(0.1 -0.1)">
       <use xlink:href="#DejaVuSans-48"/>
      </g>
     </g>
    </g>
    <g id="xtick_2">
     <g id="line2d_2">
      <g>
       <use style="stroke:#000000;stroke-width:0.8;" x="163.219641" xlink:href="#m8af45b29eb" y="352.174167"/>
      </g>
     </g>
     <g id="text_2">
      <!-- 50 -->
      <defs>
       <path d="M 10.796875 72.90625 
L 49.515625 72.90625 
L 49.515625 64.59375 
L 19.828125 64.59375 
L 19.828125 46.734375 
Q 21.96875 47.46875 24.109375 47.828125 
Q 26.265625 48.1875 28.421875 48.1875 
Q 40.625 48.1875 47.75 41.5 
Q 54.890625 34.8125 54.890625 23.390625 
Q 54.890625 11.625 47.5625 5.09375 
Q 40.234375 -1.421875 26.90625 -1.421875 
Q 22.3125 -1.421875 17.546875 -0.640625 
Q 12.796875 0.140625 7.71875 1.703125 
L 7.71875 11.625 
Q 12.109375 9.234375 16.796875 8.0625 
Q 21.484375 6.890625 26.703125 6.890625 
Q 35.15625 6.890625 40.078125 11.328125 
Q 45.015625 15.765625 45.015625 23.390625 
Q 45.015625 31 40.078125 35.4375 
Q 35.15625 39.890625 26.703125 39.890625 
Q 22.75 39.890625 18.8125 39.015625 
Q 14.890625 38.140625 10.796875 36.28125 
z
" id="DejaVuSans-53"/>
      </defs>
      <g transform="translate(156.857141 366.772604)scale(0.1 -0.1)">
       <use xlink:href="#DejaVuSans-53"/>
       <use x="63.623047" xlink:href="#DejaVuSans-48"/>
      </g>
     </g>
    </g>
    <g id="xtick_3">
     <g id="line2d_3">
      <g>
       <use style="stroke:#000000;stroke-width:0.8;" x="234.543638" xlink:href="#m8af45b29eb" y="352.174167"/>
      </g>
     </g>
     <g id="text_3">
      <!-- 100 -->
      <defs>
       <path d="M 12.40625 8.296875 
L 28.515625 8.296875 
L 28.515625 63.921875 
L 10.984375 60.40625 
L 10.984375 69.390625 
L 28.421875 72.90625 
L 38.28125 72.90625 
L 38.28125 8.296875 
L 54.390625 8.296875 
L 54.390625 0 
L 12.40625 0 
z
" id="DejaVuSans-49"/>
      </defs>
      <g transform="translate(224.999888 366.772604)scale(0.1 -0.1)">
       <use xlink:href="#DejaVuSans-49"/>
       <use x="63.623047" xlink:href="#DejaVuSans-48"/>
       <use x="127.246094" xlink:href="#DejaVuSans-48"/>
      </g>
     </g>
    </g>
    <g id="xtick_4">
     <g id="line2d_4">
      <g>
       <use style="stroke:#000000;stroke-width:0.8;" x="305.867635" xlink:href="#m8af45b29eb" y="352.174167"/>
      </g>
     </g>
     <g id="text_4">
      <!-- 150 -->
      <g transform="translate(296.323885 366.772604)scale(0.1 -0.1)">
       <use xlink:href="#DejaVuSans-49"/>
       <use x="63.623047" xlink:href="#DejaVuSans-53"/>
       <use x="127.246094" xlink:href="#DejaVuSans-48"/>
      </g>
     </g>
    </g>
    <g id="xtick_5">
     <g id="line2d_5">
      <g>
       <use style="stroke:#000000;stroke-width:0.8;" x="377.191633" xlink:href="#m8af45b29eb" y="352.174167"/>
      </g>
     </g>
     <g id="text_5">
      <!-- 200 -->
      <defs>
       <path d="M 19.1875 8.296875 
L 53.609375 8.296875 
L 53.609375 0 
L 7.328125 0 
L 7.328125 8.296875 
Q 12.9375 14.109375 22.625 23.890625 
Q 32.328125 33.6875 34.8125 36.53125 
Q 39.546875 41.84375 41.421875 45.53125 
Q 43.3125 49.21875 43.3125 52.78125 
Q 43.3125 58.59375 39.234375 62.25 
Q 35.15625 65.921875 28.609375 65.921875 
Q 23.96875 65.921875 18.8125 64.3125 
Q 13.671875 62.703125 7.8125 59.421875 
L 7.8125 69.390625 
Q 13.765625 71.78125 18.9375 73 
Q 24.125 74.21875 28.421875 74.21875 
Q 39.75 74.21875 46.484375 68.546875 
Q 53.21875 62.890625 53.21875 53.421875 
Q 53.21875 48.921875 51.53125 44.890625 
Q 49.859375 40.875 45.40625 35.40625 
Q 44.1875 33.984375 37.640625 27.21875 
Q 31.109375 20.453125 19.1875 8.296875 
z
" id="DejaVuSans-50"/>
      </defs>
      <g transform="translate(367.647883 366.772604)scale(0.1 -0.1)">
       <use xlink:href="#DejaVuSans-50"/>
       <use x="63.623047" xlink:href="#DejaVuSans-48"/>
       <use x="127.246094" xlink:href="#DejaVuSans-48"/>
      </g>
     </g>
    </g>
    <g id="xtick_6">
     <g id="line2d_6">
      <g>
       <use style="stroke:#000000;stroke-width:0.8;" x="448.51563" xlink:href="#m8af45b29eb" y="352.174167"/>
      </g>
     </g>
     <g id="text_6">
      <!-- 250 -->
      <g transform="translate(438.97188 366.772604)scale(0.1 -0.1)">
       <use xlink:href="#DejaVuSans-50"/>
       <use x="63.623047" xlink:href="#DejaVuSans-53"/>
       <use x="127.246094" xlink:href="#DejaVuSans-48"/>
      </g>
     </g>
    </g>
   </g>
   <g id="matplotlib.axis_2">
    <g id="ytick_1">
     <g id="line2d_7">
      <defs>
       <path d="M 0 0 
L -3.5 0 
" id="m51c1a965a0" style="stroke:#000000;stroke-width:0.8;"/>
      </defs>
      <g>
       <use style="stroke:#000000;stroke-width:0.8;" x="66.158594" xlink:href="#m51c1a965a0" y="352.174167"/>
      </g>
     </g>
     <g id="text_7">
      <!-- 0 -->
      <g transform="translate(52.796094 355.973385)scale(0.1 -0.1)">
       <use xlink:href="#DejaVuSans-48"/>
      </g>
     </g>
    </g>
    <g id="ytick_2">
     <g id="line2d_8">
      <g>
       <use style="stroke:#000000;stroke-width:0.8;" x="66.158594" xlink:href="#m51c1a965a0" y="296.108124"/>
      </g>
     </g>
     <g id="text_8">
      <!-- 10 -->
      <g transform="translate(46.433594 299.907343)scale(0.1 -0.1)">
       <use xlink:href="#DejaVuSans-49"/>
       <use x="63.623047" xlink:href="#DejaVuSans-48"/>
      </g>
     </g>
    </g>
    <g id="ytick_3">
     <g id="line2d_9">
      <g>
       <use style="stroke:#000000;stroke-width:0.8;" x="66.158594" xlink:href="#m51c1a965a0" y="240.042082"/>
      </g>
     </g>
     <g id="text_9">
      <!-- 20 -->
      <g transform="translate(46.433594 243.8413)scale(0.1 -0.1)">
       <use xlink:href="#DejaVuSans-50"/>
       <use x="63.623047" xlink:href="#DejaVuSans-48"/>
      </g>
     </g>
    </g>
    <g id="ytick_4">
     <g id="line2d_10">
      <g>
       <use style="stroke:#000000;stroke-width:0.8;" x="66.158594" xlink:href="#m51c1a965a0" y="183.976039"/>
      </g>
     </g>
     <g id="text_10">
      <!-- 30 -->
      <defs>
       <path d="M 40.578125 39.3125 
Q 47.65625 37.796875 51.625 33 
Q 55.609375 28.21875 55.609375 21.1875 
Q 55.609375 10.40625 48.1875 4.484375 
Q 40.765625 -1.421875 27.09375 -1.421875 
Q 22.515625 -1.421875 17.65625 -0.515625 
Q 12.796875 0.390625 7.625 2.203125 
L 7.625 11.71875 
Q 11.71875 9.328125 16.59375 8.109375 
Q 21.484375 6.890625 26.8125 6.890625 
Q 36.078125 6.890625 40.9375 10.546875 
Q 45.796875 14.203125 45.796875 21.1875 
Q 45.796875 27.640625 41.28125 31.265625 
Q 36.765625 34.90625 28.71875 34.90625 
L 20.21875 34.90625 
L 20.21875 43.015625 
L 29.109375 43.015625 
Q 36.375 43.015625 40.234375 45.921875 
Q 44.09375 48.828125 44.09375 54.296875 
Q 44.09375 59.90625 40.109375 62.90625 
Q 36.140625 65.921875 28.71875 65.921875 
Q 24.65625 65.921875 20.015625 65.03125 
Q 15.375 64.15625 9.8125 62.3125 
L 9.8125 71.09375 
Q 15.4375 72.65625 20.34375 73.4375 
Q 25.25 74.21875 29.59375 74.21875 
Q 40.828125 74.21875 47.359375 69.109375 
Q 53.90625 64.015625 53.90625 55.328125 
Q 53.90625 49.265625 50.4375 45.09375 
Q 46.96875 40.921875 40.578125 39.3125 
z
" id="DejaVuSans-51"/>
      </defs>
      <g transform="translate(46.433594 187.775258)scale(0.1 -0.1)">
       <use xlink:href="#DejaVuSans-51"/>
       <use x="63.623047" xlink:href="#DejaVuSans-48"/>
      </g>
     </g>
    </g>
    <g id="ytick_5">
     <g id="line2d_11">
      <g>
       <use style="stroke:#000000;stroke-width:0.8;" x="66.158594" xlink:href="#m51c1a965a0" y="127.909997"/>
      </g>
     </g>
     <g id="text_11">
      <!-- 40 -->
      <defs>
       <path d="M 37.796875 64.3125 
L 12.890625 25.390625 
L 37.796875 25.390625 
z
M 35.203125 72.90625 
L 47.609375 72.90625 
L 47.609375 25.390625 
L 58.015625 25.390625 
L 58.015625 17.1875 
L 47.609375 17.1875 
L 47.609375 0 
L 37.796875 0 
L 37.796875 17.1875 
L 4.890625 17.1875 
L 4.890625 26.703125 
z
" id="DejaVuSans-52"/>
      </defs>
      <g transform="translate(46.433594 131.709215)scale(0.1 -0.1)">
       <use xlink:href="#DejaVuSans-52"/>
       <use x="63.623047" xlink:href="#DejaVuSans-48"/>
      </g>
     </g>
    </g>
    <g id="ytick_6">
     <g id="line2d_12">
      <g>
       <use style="stroke:#000000;stroke-width:0.8;" x="66.158594" xlink:href="#m51c1a965a0" y="71.843954"/>
      </g>
     </g>
     <g id="text_12">
      <!-- 50 -->
      <g transform="translate(46.433594 75.643173)scale(0.1 -0.1)">
       <use xlink:href="#DejaVuSans-53"/>
       <use x="63.623047" xlink:href="#DejaVuSans-48"/>
      </g>
     </g>
    </g>
    <g id="text_13">
     <!-- droprate -->
     <defs>
      <path d="M 45.40625 46.390625 
L 45.40625 75.984375 
L 54.390625 75.984375 
L 54.390625 0 
L 45.40625 0 
L 45.40625 8.203125 
Q 42.578125 3.328125 38.25 0.953125 
Q 33.9375 -1.421875 27.875 -1.421875 
Q 17.96875 -1.421875 11.734375 6.484375 
Q 5.515625 14.40625 5.515625 27.296875 
Q 5.515625 40.1875 11.734375 48.09375 
Q 17.96875 56 27.875 56 
Q 33.9375 56 38.25 53.625 
Q 42.578125 51.265625 45.40625 46.390625 
z
M 14.796875 27.296875 
Q 14.796875 17.390625 18.875 11.75 
Q 22.953125 6.109375 30.078125 6.109375 
Q 37.203125 6.109375 41.296875 11.75 
Q 45.40625 17.390625 45.40625 27.296875 
Q 45.40625 37.203125 41.296875 42.84375 
Q 37.203125 48.484375 30.078125 48.484375 
Q 22.953125 48.484375 18.875 42.84375 
Q 14.796875 37.203125 14.796875 27.296875 
z
" id="DejaVuSans-100"/>
      <path d="M 41.109375 46.296875 
Q 39.59375 47.171875 37.8125 47.578125 
Q 36.03125 48 33.890625 48 
Q 26.265625 48 22.1875 43.046875 
Q 18.109375 38.09375 18.109375 28.8125 
L 18.109375 0 
L 9.078125 0 
L 9.078125 54.6875 
L 18.109375 54.6875 
L 18.109375 46.1875 
Q 20.953125 51.171875 25.484375 53.578125 
Q 30.03125 56 36.53125 56 
Q 37.453125 56 38.578125 55.875 
Q 39.703125 55.765625 41.0625 55.515625 
z
" id="DejaVuSans-114"/>
      <path d="M 30.609375 48.390625 
Q 23.390625 48.390625 19.1875 42.75 
Q 14.984375 37.109375 14.984375 27.296875 
Q 14.984375 17.484375 19.15625 11.84375 
Q 23.34375 6.203125 30.609375 6.203125 
Q 37.796875 6.203125 41.984375 11.859375 
Q 46.1875 17.53125 46.1875 27.296875 
Q 46.1875 37.015625 41.984375 42.703125 
Q 37.796875 48.390625 30.609375 48.390625 
z
M 30.609375 56 
Q 42.328125 56 49.015625 48.375 
Q 55.71875 40.765625 55.71875 27.296875 
Q 55.71875 13.875 49.015625 6.21875 
Q 42.328125 -1.421875 30.609375 -1.421875 
Q 18.84375 -1.421875 12.171875 6.21875 
Q 5.515625 13.875 5.515625 27.296875 
Q 5.515625 40.765625 12.171875 48.375 
Q 18.84375 56 30.609375 56 
z
" id="DejaVuSans-111"/>
      <path d="M 18.109375 8.203125 
L 18.109375 -20.796875 
L 9.078125 -20.796875 
L 9.078125 54.6875 
L 18.109375 54.6875 
L 18.109375 46.390625 
Q 20.953125 51.265625 25.265625 53.625 
Q 29.59375 56 35.59375 56 
Q 45.5625 56 51.78125 48.09375 
Q 58.015625 40.1875 58.015625 27.296875 
Q 58.015625 14.40625 51.78125 6.484375 
Q 45.5625 -1.421875 35.59375 -1.421875 
Q 29.59375 -1.421875 25.265625 0.953125 
Q 20.953125 3.328125 18.109375 8.203125 
z
M 48.6875 27.296875 
Q 48.6875 37.203125 44.609375 42.84375 
Q 40.53125 48.484375 33.40625 48.484375 
Q 26.265625 48.484375 22.1875 42.84375 
Q 18.109375 37.203125 18.109375 27.296875 
Q 18.109375 17.390625 22.1875 11.75 
Q 26.265625 6.109375 33.40625 6.109375 
Q 40.53125 6.109375 44.609375 11.75 
Q 48.6875 17.390625 48.6875 27.296875 
z
" id="DejaVuSans-112"/>
      <path d="M 34.28125 27.484375 
Q 23.390625 27.484375 19.1875 25 
Q 14.984375 22.515625 14.984375 16.5 
Q 14.984375 11.71875 18.140625 8.90625 
Q 21.296875 6.109375 26.703125 6.109375 
Q 34.1875 6.109375 38.703125 11.40625 
Q 43.21875 16.703125 43.21875 25.484375 
L 43.21875 27.484375 
z
M 52.203125 31.203125 
L 52.203125 0 
L 43.21875 0 
L 43.21875 8.296875 
Q 40.140625 3.328125 35.546875 0.953125 
Q 30.953125 -1.421875 24.3125 -1.421875 
Q 15.921875 -1.421875 10.953125 3.296875 
Q 6 8.015625 6 15.921875 
Q 6 25.140625 12.171875 29.828125 
Q 18.359375 34.515625 30.609375 34.515625 
L 43.21875 34.515625 
L 43.21875 35.40625 
Q 43.21875 41.609375 39.140625 45 
Q 35.0625 48.390625 27.6875 48.390625 
Q 23 48.390625 18.546875 47.265625 
Q 14.109375 46.140625 10.015625 43.890625 
L 10.015625 52.203125 
Q 14.9375 54.109375 19.578125 55.046875 
Q 24.21875 56 28.609375 56 
Q 40.484375 56 46.34375 49.84375 
Q 52.203125 43.703125 52.203125 31.203125 
z
" id="DejaVuSans-97"/>
      <path d="M 18.3125 70.21875 
L 18.3125 54.6875 
L 36.8125 54.6875 
L 36.8125 47.703125 
L 18.3125 47.703125 
L 18.3125 18.015625 
Q 18.3125 11.328125 20.140625 9.421875 
Q 21.96875 7.515625 27.59375 7.515625 
L 36.8125 7.515625 
L 36.8125 0 
L 27.59375 0 
Q 17.1875 0 13.234375 3.875 
Q 9.28125 7.765625 9.28125 18.015625 
L 9.28125 47.703125 
L 2.6875 47.703125 
L 2.6875 54.6875 
L 9.28125 54.6875 
L 9.28125 70.21875 
z
" id="DejaVuSans-116"/>
      <path d="M 56.203125 29.59375 
L 56.203125 25.203125 
L 14.890625 25.203125 
Q 15.484375 15.921875 20.484375 11.0625 
Q 25.484375 6.203125 34.421875 6.203125 
Q 39.59375 6.203125 44.453125 7.46875 
Q 49.3125 8.734375 54.109375 11.28125 
L 54.109375 2.78125 
Q 49.265625 0.734375 44.1875 -0.34375 
Q 39.109375 -1.421875 33.890625 -1.421875 
Q 20.796875 -1.421875 13.15625 6.1875 
Q 5.515625 13.8125 5.515625 26.8125 
Q 5.515625 40.234375 12.765625 48.109375 
Q 20.015625 56 32.328125 56 
Q 43.359375 56 49.78125 48.890625 
Q 56.203125 41.796875 56.203125 29.59375 
z
M 47.21875 32.234375 
Q 47.125 39.59375 43.09375 43.984375 
Q 39.0625 48.390625 32.421875 48.390625 
Q 24.90625 48.390625 20.390625 44.140625 
Q 15.875 39.890625 15.1875 32.171875 
z
" id="DejaVuSans-101"/>
     </defs>
     <g transform="translate(40.353906 215.236302)rotate(-90)scale(0.1 -0.1)">
      <use xlink:href="#DejaVuSans-100"/>
      <use x="63.476562" xlink:href="#DejaVuSans-114"/>
      <use x="104.558594" xlink:href="#DejaVuSans-111"/>
      <use x="165.740234" xlink:href="#DejaVuSans-112"/>
      <use x="229.216797" xlink:href="#DejaVuSans-114"/>
      <use x="270.330078" xlink:href="#DejaVuSans-97"/>
      <use x="331.609375" xlink:href="#DejaVuSans-116"/>
      <use x="370.818359" xlink:href="#DejaVuSans-101"/>
     </g>
    </g>
   </g>
   <g id="line2d_13">
    <path clip-path="url(#p1255ca9cce)" d="M 86.606804 352.174167 
L 91.349421 352.174167 
L 91.658661 76.050819 
L 91.810787 352.174167 
L 94.239286 352.174167 
L 94.389306 253.091936 
L 94.547286 267.108447 
L 94.706036 50.163056 
L 95.157233 302.230278 
L 95.3082 294.588502 
L 95.608182 329.553861 
L 95.758246 338.460171 
L 95.909328 330.517755 
L 96.059174 337.653465 
L 96.210359 336.155297 
L 96.360404 323.132763 
L 96.512232 296.267856 
L 96.662638 304.646918 
L 96.81243 290.776195 
L 96.962225 304.509952 
L 97.26259 271.850323 
L 97.413195 282.091613 
L 97.566198 272.872834 
L 97.716194 293.537761 
L 97.865969 288.260496 
L 98.017707 316.183127 
L 98.168938 287.297746 
L 98.318651 312.64559 
L 98.468776 306.933556 
L 98.620779 333.857136 
L 98.772377 316.932654 
L 98.923635 352.174167 
L 99.074002 303.106325 
L 99.224422 340.912695 
L 99.378071 311.111713 
L 99.532216 350.601487 
L 99.682604 317.684326 
L 99.832714 333.646595 
L 99.983109 294.423737 
L 100.133502 326.433659 
L 100.284735 308.861344 
L 100.435672 352.174167 
L 100.585787 322.368943 
L 100.736136 343.313154 
L 100.886213 307.063558 
L 101.036726 352.174167 
L 101.188414 324.980936 
L 101.340288 352.174167 
L 101.492328 306.779786 
L 101.643197 352.174167 
L 101.794296 320.182131 
L 101.944246 352.174167 
L 102.094236 324.706653 
L 102.24413 352.174167 
L 102.394161 315.065707 
L 102.544215 340.073582 
L 102.694204 328.745993 
L 102.844052 352.174167 
L 102.996442 309.229964 
L 103.146967 352.174167 
L 103.300777 322.956652 
L 103.452111 341.791566 
L 103.602261 302.230278 
L 103.753902 352.174167 
L 103.90646 321.996977 
L 104.057118 341.717086 
L 104.208656 319.38233 
L 104.358944 331.260004 
L 104.512897 315.060026 
L 104.663774 352.174167 
L 104.813838 302.158416 
L 104.963831 352.174167 
L 105.114077 312.64559 
L 105.264165 352.174167 
L 105.414119 326.322389 
L 105.563974 352.174167 
L 105.872915 352.174167 
L 106.023295 186.943769 
L 106.173445 237.786551 
L 106.325456 231.747816 
L 106.475391 166.631868 
L 106.775275 352.174167 
L 107.527341 352.174167 
L 107.677275 347.326958 
L 107.827134 333.593202 
L 108.127438 346.51909 
L 108.277224 344.892862 
L 108.428421 334.502921 
L 108.586414 352.174167 
L 109.211643 352.174167 
L 109.36155 319.051577 
L 109.51198 352.174167 
L 109.661798 327.130257 
L 109.961623 352.174167 
L 110.113215 321.825027 
L 110.263752 352.174167 
L 110.413813 352.174167 
L 110.567388 326.904964 
L 110.717486 348.95198 
L 110.868415 335.354354 
L 111.019228 306.389576 
L 111.169153 348.947344 
L 111.319923 307.192814 
L 111.470101 352.174167 
L 111.621265 339.359071 
L 111.771438 342.507608 
L 111.921342 338.420592 
L 112.071489 352.174167 
L 112.221532 306.99865 
L 112.374503 352.174167 
L 112.525308 325.743032 
L 112.678432 352.174167 
L 112.83038 345.793963 
L 112.983892 331.613982 
L 113.135374 352.174167 
L 113.286406 324.141145 
L 113.437146 322.496862 
L 113.587022 299.662744 
L 113.736972 327.972997 
L 113.887294 284.508253 
L 114.037021 315.767646 
L 114.186848 260.885077 
L 114.336583 294.732767 
L 114.486871 267.591775 
L 114.636747 306.125688 
L 114.78654 297.968902 
L 115.235934 337.632542 
L 115.385785 300.470612 
L 115.689476 321.781733 
L 115.843051 352.174167 
L 115.994273 300.261164 
L 116.295218 352.174167 
L 116.445721 303.979861 
L 116.596268 319.194142 
L 116.746052 310.225473 
L 116.896206 312.588632 
L 117.046299 302.230278 
L 117.196564 330.361729 
L 117.497362 285.217598 
L 117.797628 294.980359 
L 117.950388 294.119967 
L 118.100612 319.952303 
L 118.251573 319.335485 
L 118.402986 346.567562 
L 118.55351 301.570145 
L 118.704498 329.715666 
L 118.856421 329.843453 
L 119.006285 337.674328 
L 119.156512 315.820105 
L 119.306905 324.824878 
L 119.457271 317.535663 
L 119.607236 342.507608 
L 120.058168 273.117013 
L 120.360467 352.174167 
L 120.663057 352.174167 
L 120.813485 337.695131 
L 121.113493 93.656391 
L 121.263786 104.871364 
L 121.41473 177.068189 
L 121.568739 352.174167 
L 122.620175 352.174167 
L 122.770324 343.300405 
L 122.920076 345.711222 
L 123.071688 352.174167 
L 123.222113 341.702061 
L 123.377619 352.174167 
L 123.994597 352.174167 
L 124.146578 329.875172 
L 124.296992 352.174167 
L 124.447407 352.174167 
L 124.597807 329.618862 
L 124.749867 352.174167 
L 124.900003 308.612062 
L 125.051151 348.970393 
L 125.202001 312.012245 
L 125.352687 316.080148 
L 125.50288 299.662744 
L 125.653253 330.424409 
L 125.804115 321.694773 
L 125.956575 321.996977 
L 126.107875 282.492085 
L 126.257837 322.368943 
L 126.407883 296.431271 
L 126.558159 337.674328 
L 126.708424 278.869427 
L 126.858511 294.09136 
L 127.008859 270.696896 
L 127.158817 326.359586 
L 127.314474 283.838824 
L 127.465666 320.090594 
L 127.615611 254.562783 
L 127.765504 294.815535 
L 127.915792 279.466042 
L 128.071709 323.36245 
L 128.221973 284.798665 
L 128.372049 323.132763 
L 128.522322 306.258011 
L 128.675463 340.278967 
L 128.979303 313.261474 
L 129.129441 342.507608 
L 129.429769 301.27848 
L 129.732327 274.814193 
L 130.186824 337.170578 
L 130.339303 327.590753 
L 130.490569 348.16372 
L 130.642466 309.905315 
L 130.79395 335.402274 
L 131.097659 317.535663 
L 131.248033 267.591775 
L 131.401415 310.203824 
L 131.556122 286.581582 
L 131.706685 320.847868 
L 131.856881 311.032179 
L 132.009099 345.006633 
L 132.159963 299.08437 
L 132.310683 352.174167 
L 132.462447 307.512739 
L 132.614875 331.497328 
L 132.767149 308.372571 
L 132.919231 350.583641 
L 133.071357 321.158909 
L 133.222657 336.97795 
L 133.374691 329.875172 
L 133.677338 326.507309 
L 133.827141 322.326058 
L 133.9786 323.298952 
L 134.128563 318.34121 
L 134.278599 336.016806 
L 134.581162 276.992883 
L 134.731707 344.130258 
L 134.883034 314.529824 
L 135.034562 313.03975 
L 135.337562 325.096817 
L 135.488594 316.932654 
L 135.640969 331.497328 
L 135.792777 297.787706 
L 135.944138 340.177153 
L 136.095883 309.965356 
L 136.246597 328.846832 
L 136.397151 323.257583 
L 136.547305 352.174167 
L 136.697348 313.50793 
L 136.848475 348.956603 
L 136.998864 320.892684 
L 137.149574 336.08635 
L 137.302031 310.937473 
L 137.452489 351.369776 
L 137.604991 317.083045 
L 137.758565 352.174167 
L 138.381669 352.174167 
L 138.5382 268.271138 
L 138.692616 310.007505 
L 138.845521 216.951412 
L 139.299814 323.340202 
L 139.600483 341.717086 
L 139.750569 319.952303 
L 139.901847 334.55341 
L 140.052845 296.830005 
L 140.206353 296.186979 
L 140.35751 318.438153 
L 140.660298 303.246719 
L 140.812978 301.277334 
L 141.113186 295.785905 
L 141.264476 308.92322 
L 141.416399 309.10779 
L 141.56756 305.719446 
L 141.718963 291.734178 
L 141.869247 319.051577 
L 142.021122 300.261164 
L 142.171174 315.225199 
L 142.321074 317.385713 
L 142.62074 329.553861 
L 142.770478 315.767646 
L 142.920271 352.174167 
L 143.074859 301.133652 
L 143.224884 305.452465 
L 143.37465 302.894216 
L 143.524517 323.898785 
L 143.826618 291.128046 
L 143.976533 291.584063 
L 144.126387 304.578533 
L 144.279545 292.1891 
L 144.430907 339.359071 
L 144.581811 308.984918 
L 144.731945 327.202222 
L 144.881909 267.348022 
L 145.0319 295.623403 
L 145.182983 283.293029 
L 145.332963 281.18407 
L 145.482864 274.618834 
L 145.632796 280.377364 
L 145.782551 263.989482 
L 145.932995 290.236071 
L 146.083022 288.44442 
L 146.383086 324.706653 
L 146.534436 322.581534 
L 146.685167 342.535305 
L 146.835919 326.470537 
L 146.986771 334.502921 
L 147.136552 335.208938 
L 147.28787 326.543976 
L 147.438063 345.729794 
L 147.588069 315.012236 
L 147.738129 352.174167 
L 147.888296 321.519352 
L 148.038259 348.942694 
L 148.188138 327.130257 
L 148.338223 348.947344 
L 148.488109 294.815535 
L 148.638153 310.225473 
L 148.788848 296.671198 
L 148.939738 326.507309 
L 149.089705 309.418767 
L 149.239763 318.243709 
L 149.389783 319.051577 
L 149.539953 330.424409 
L 149.689877 288.44442 
L 149.839937 313.452296 
L 149.989927 308.549292 
L 150.142698 327.521013 
L 150.293123 312.815484 
L 150.443329 332.035502 
L 150.593562 323.980036 
L 150.743349 337.611558 
L 150.893374 302.158416 
L 151.043356 351.367461 
L 151.193183 306.868274 
L 151.343232 352.174167 
L 151.493107 312.588632 
L 151.643738 352.174167 
L 151.793828 294.898066 
L 151.948249 338.806387 
L 152.098261 316.028437 
L 152.24832 352.174167 
L 152.398305 316.627973 
L 152.548085 344.903354 
L 152.697884 329.509171 
L 152.850608 352.174167 
L 153.159875 352.174167 
L 153.309662 347.319964 
L 153.459477 306.125688 
L 153.609312 352.174167 
L 153.761215 304.254472 
L 153.911937 352.174167 
L 154.062501 322.454345 
L 154.213083 341.717086 
L 154.363432 317.535663 
L 154.664326 343.300405 
L 154.814275 329.553861 
L 154.964095 345.711222 
L 155.11398 340.864014 
L 155.413702 313.3965 
L 155.563413 347.319964 
L 155.713275 328.745993 
L 155.86915 335.798827 
L 156.022926 323.038723 
L 156.176652 343.512278 
L 156.330328 315.164279 
L 156.484013 352.174167 
L 156.634471 308.799291 
L 156.78424 352.174167 
L 156.934543 304.646918 
L 157.084242 352.174167 
L 157.237081 293.241111 
L 157.387216 352.174167 
L 157.537104 341.686993 
L 157.686893 352.174167 
L 157.836548 314.204368 
L 157.986406 352.174167 
L 158.136724 313.3965 
L 158.286517 352.174167 
L 158.436319 305.250206 
L 158.586482 352.174167 
L 158.738641 352.174167 
L 158.888442 321.519352 
L 159.038168 341.656727 
L 159.18944 336.956241 
L 159.339018 309.295375 
L 159.489955 352.174167 
L 159.643721 326.975945 
L 159.794389 334.477568 
L 159.947129 318.026294 
L 160.10287 352.174167 
L 160.255116 332.348833 
L 160.405472 336.89074 
L 160.556665 322.539258 
L 160.708014 352.174167 
L 160.858129 316.679118 
L 161.008933 352.174167 
L 161.159655 328.111487 
L 161.31037 352.174167 
L 161.460037 324.706653 
L 161.762905 334.426642 
L 161.912578 305.31782 
L 162.062177 352.174167 
L 162.362982 336.016806 
L 162.51257 323.857984 
L 162.662205 352.174167 
L 162.81177 298.700773 
L 162.970763 347.572303 
L 163.129816 306.53017 
L 163.288799 349.888866 
L 163.442945 312.967144 
L 163.594311 352.174167 
L 163.748057 318.218676 
L 163.90234 319.240268 
L 164.056953 333.38108 
L 164.208881 310.025227 
L 164.360072 338.577551 
L 164.511247 331.349637 
L 164.662481 289.700576 
L 164.813617 348.970393 
L 164.964316 279.18404 
L 165.116124 298.587507 
L 165.267383 301.714728 
L 165.417471 272.425054 
L 165.718749 332.006525 
L 166.170962 303.841371 
L 166.472964 253.234092 
L 166.625342 309.290791 
L 166.777692 275.033654 
L 166.929825 298.815859 
L 167.082685 280.009953 
L 167.235373 340.295768 
L 167.386665 306.317681 
L 167.544618 352.174167 
L 168.178409 352.174167 
L 168.48128 325.780737 
L 168.632947 339.431884 
L 168.783405 315.872413 
L 168.933647 322.368943 
L 169.233786 312.702384 
L 169.38419 257.653605 
L 169.534209 335.257688 
L 169.684395 260.209723 
L 169.834809 317.58536 
L 169.985973 313.67388 
L 170.139383 285.75747 
L 170.291992 341.056255 
L 170.441982 301.424732 
L 170.591845 311.838884 
L 170.742095 301.27848 
L 170.892893 349.764451 
L 171.043266 316.730117 
L 171.193314 344.130258 
L 171.343678 309.418767 
L 171.495201 328.18014 
L 171.646822 308.310264 
L 171.947792 336.824674 
L 172.252911 319.888946 
L 172.406147 321.377326 
L 172.55851 317.13289 
L 172.709574 339.395581 
L 172.860041 305.385239 
L 173.167174 325.780737 
L 173.470543 310.702841 
L 173.621608 333.752467 
L 173.775695 329.338279 
L 173.926647 344.975959 
L 174.078429 305.053134 
L 174.229833 340.992905 
L 174.381159 335.354354 
L 174.532695 274.703994 
L 174.68383 307.321333 
L 174.835849 253.281005 
L 174.988063 265.613279 
L 175.293976 336.999597 
L 175.445036 352.174167 
L 175.596329 326.543976 
L 175.746471 338.479875 
L 175.898099 325.780737 
L 176.048207 352.174167 
L 176.198574 348.140638 
L 176.349861 313.67388 
L 176.500912 352.174167 
L 176.651788 301.64254 
L 176.802809 350.569988 
L 176.953827 320.090594 
L 177.105052 352.174167 
L 177.256274 310.525106 
L 177.408591 352.174167 
L 177.558982 320.75785 
L 177.710452 352.174167 
L 178.017433 334.037472 
L 178.168875 336.246314 
L 178.319884 352.174167 
L 178.471365 322.539258 
L 178.62522 352.174167 
L 179.077394 320.090594 
L 179.229655 330.702065 
L 179.380561 330.548693 
L 179.532185 304.254472 
L 179.683128 340.142827 
L 179.835509 292.359754 
L 179.986911 344.996437 
L 180.138562 337.757184 
L 180.289901 340.194243 
L 180.441957 316.387331 
L 180.593248 320.892684 
L 180.744606 288.190095 
L 181.048248 337.736559 
L 181.199092 352.174167 
L 181.350734 309.784719 
L 181.501994 352.174167 
L 181.659157 318.100881 
L 181.810787 345.026937 
L 181.960894 323.174489 
L 182.11087 323.090917 
L 182.419705 352.174167 
L 182.876597 352.174167 
L 183.029671 345.839021 
L 183.181298 308.185118 
L 183.638598 332.348833 
L 183.789581 310.525106 
L 183.940223 331.260004 
L 184.093205 299.192152 
L 184.244971 309.905315 
L 184.398103 309.351447 
L 184.702887 285.147252 
L 185.007656 335.544408 
L 185.158463 333.726113 
L 185.309552 289.611201 
L 185.460474 307.321333 
L 185.611385 279.079469 
L 185.764715 293.574066 
L 186.068993 279.288311 
L 186.221522 324.339961 
L 186.373876 306.048912 
L 186.676991 344.198912 
L 186.828641 322.539258 
L 186.97977 347.382197 
L 187.28254 295.388303 
L 187.433626 301.78671 
L 187.588525 298.068475 
L 187.739325 304.918502 
L 187.890446 283.293029 
L 188.047235 306.421794 
L 188.198786 302.072597 
L 188.349796 303.246719 
L 188.501016 300.840451 
L 188.651957 323.298952 
L 188.804597 318.122757 
L 188.96263 321.536985 
L 189.267703 303.352613 
L 189.419374 307.512739 
L 189.570549 282.591489 
L 189.722207 285.086594 
L 189.875935 275.576897 
L 190.184861 321.158909 
L 190.335203 334.477568 
L 190.487282 318.725675 
L 190.639647 318.026294 
L 190.791237 319.38233 
L 190.94198 312.126993 
L 191.092612 292.734523 
L 191.243278 333.673177 
L 191.394832 304.254472 
L 191.546343 352.174167 
L 191.699302 310.937473 
L 191.850304 348.974963 
L 192.001865 314.529824 
L 192.153028 352.174167 
L 192.304463 316.183127 
L 192.456082 352.174167 
L 192.607843 340.976954 
L 192.758548 351.373223 
L 192.910165 317.782728 
L 193.062732 349.002113 
L 193.213098 301.424732 
L 193.364226 352.174167 
L 193.514348 302.301934 
L 193.66655 352.174167 
L 193.821181 326.297532 
L 193.975549 352.174167 
L 194.126053 323.257583 
L 194.277175 352.174167 
L 194.579761 336.109398 
L 194.880405 352.174167 
L 195.032169 327.380339 
L 195.184795 352.174167 
L 195.336066 318.630381 
L 195.486783 352.174167 
L 195.638127 352.174167 
L 195.792141 334.037472 
L 195.944753 345.05718 
L 196.100547 320.203266 
L 196.25209 352.174167 
L 196.402665 346.535341 
L 196.553052 352.174167 
L 196.707187 304.140057 
L 196.85928 352.174167 
L 197.47756 352.174167 
L 197.628224 348.16372 
L 197.782359 323.826168 
L 197.934454 352.174167 
L 198.085978 296.188104 
L 198.236696 352.174167 
L 198.386738 298.931594 
L 198.537337 352.174167 
L 198.691307 328.550834 
L 198.842071 352.174167 
L 198.992595 301.497543 
L 199.143019 352.174167 
L 199.293339 316.780969 
L 199.444439 352.174167 
L 199.594728 336.08635 
L 199.744751 350.560755 
L 199.897102 323.463249 
L 200.048016 339.340738 
L 200.198266 310.405768 
L 200.34992 352.174167 
L 200.50344 313.480701 
L 200.654398 352.174167 
L 200.80506 305.586338 
L 200.956348 346.57556 
L 201.106893 318.389751 
L 201.257075 336.063235 
L 201.407825 326.470537 
L 201.559391 352.174167 
L 201.709352 313.452296 
L 201.859339 347.326958 
L 202.009316 317.485824 
L 202.314365 335.449921 
L 202.61764 331.260004 
L 202.919227 336.93447 
L 203.070387 352.174167 
L 203.223658 344.277541 
L 203.377 311.901376 
L 203.528025 349.774764 
L 203.680791 317.28158 
L 203.834907 352.174167 
L 203.98529 352.174167 
L 204.136675 351.374366 
L 204.289642 311.730487 
L 204.440602 352.174167 
L 204.590725 323.980036 
L 204.743364 352.174167 
L 204.894 332.868786 
L 205.045399 352.174167 
L 205.198657 312.63535 
L 205.349569 347.368506 
L 205.500821 313.67388 
L 205.651747 345.766619 
L 205.80251 313.67388 
L 205.956535 337.980232 
L 206.110745 338.03987 
L 206.262094 343.363789 
L 206.41535 323.038723 
L 206.569274 352.174167 
L 206.72548 316.453419 
L 206.875611 352.174167 
L 207.177319 338.577551 
L 207.327777 340.090968 
L 207.479699 352.174167 
L 207.635764 352.174167 
L 207.786597 313.838411 
L 207.937536 352.174167 
L 208.088821 327.344919 
L 208.241723 350.58814 
L 208.393696 302.727586 
L 208.544891 352.174167 
L 208.70312 304.425614 
L 208.856797 344.310767 
L 209.011133 342.764481 
L 209.162445 352.174167 
L 209.314667 308.434701 
L 209.467563 352.174167 
L 209.618896 315.435734 
L 209.770684 344.198912 
L 209.923274 307.639438 
L 210.225589 351.374366 
L 210.37805 348.988596 
L 210.530493 312.467338 
L 210.688927 352.174167 
L 210.839995 319.522068 
L 210.99103 352.174167 
L 211.142553 352.174167 
L 211.293371 334.528202 
L 211.600679 352.174167 
L 211.911813 352.174167 
L 212.062266 342.744098 
L 212.217885 352.174167 
L 212.368865 300.187109 
L 212.5196 351.370928 
L 212.670658 323.340202 
L 212.824663 352.174167 
L 212.976967 319.706543 
L 213.130214 352.174167 
L 213.280898 352.174167 
L 213.432155 327.309398 
L 213.582768 352.174167 
L 213.734519 311.500366 
L 213.886659 306.779786 
L 214.187901 322.368943 
L 214.340719 315.643884 
L 214.4954 316.103706 
L 214.647346 293.324704 
L 214.799113 298.739958 
L 215.102689 285.372073 
L 215.25377 308.861344 
L 215.406186 291.819787 
L 216.315964 311.838884 
L 216.615763 313.50793 
L 216.76701 301.64254 
L 216.917736 323.298952 
L 217.068402 310.225473 
L 217.372932 336.93447 
L 217.675397 264.243251 
L 217.979652 267.51604 
L 218.129641 303.702084 
L 218.28046 292.734523 
L 218.430789 305.452465 
L 218.581273 299.16043 
L 218.73264 303.246719 
L 218.883349 299.236272 
L 219.036099 306.179393 
L 219.337742 286.402844 
L 219.48799 291.844853 
L 219.637846 311.838884 
L 219.78786 310.972896 
L 219.938208 296.591452 
L 220.090981 315.592068 
L 220.243112 310.084928 
L 220.547052 281.104535 
L 220.697084 324.060822 
L 220.847201 334.426642 
L 220.997243 323.132763 
L 221.148885 345.77576 
L 221.299661 340.142827 
L 221.453802 316.68933 
L 221.605327 348.192203 
L 221.755971 303.106325 
L 221.906915 337.757184 
L 222.216249 352.174167 
L 222.366537 352.174167 
L 222.518585 328.214319 
L 222.819367 349.760994 
L 222.974069 336.469393 
L 223.126341 336.291435 
L 223.427871 349.767899 
L 223.581805 351.385615 
L 223.735953 308.2008 
L 223.886608 352.174167 
L 224.037687 332.896444 
L 224.192805 352.174167 
L 224.346174 314.323674 
L 224.502666 352.174167 
L 224.661145 341.465782 
L 224.818112 352.174167 
L 224.96882 318.630381 
L 225.120479 352.174167 
L 225.277541 349.854192 
L 225.429087 345.006633 
L 225.582126 316.589231 
L 225.735834 352.174167 
L 225.88685 352.174167 
L 226.0382 318.486416 
L 226.354856 352.174167 
L 226.663451 352.174167 
L 226.816664 347.422807 
L 226.967137 332.093206 
L 227.120101 331.55582 
L 227.272463 352.174167 
L 227.423686 316.234396 
L 227.574352 345.748259 
L 227.727259 334.727873 
L 227.877999 352.174167 
L 228.030598 334.752515 
L 228.180893 352.174167 
L 228.331385 316.679118 
L 228.483961 352.174167 
L 228.636325 306.179393 
L 228.940887 339.413759 
L 229.091468 322.411705 
L 229.242403 328.111487 
L 229.39476 343.413848 
L 229.546638 317.13289 
L 229.696833 337.674328 
L 229.848212 333.752467 
L 230.001311 352.174167 
L 230.152955 314.583525 
L 230.30427 316.982927 
L 230.456626 302.072597 
L 230.608215 329.012981 
L 230.760006 309.965356 
L 230.911743 347.382197 
L 231.062509 312.927937 
L 231.217999 352.174167 
L 231.370062 321.996977 
L 231.520938 352.174167 
L 231.671383 310.285744 
L 231.821668 352.174167 
L 231.971993 302.230278 
L 232.130255 352.174167 
L 232.281354 301.93006 
L 232.431538 352.174167 
L 232.582724 311.267612 
L 232.73309 352.174167 
L 232.884343 295.225826 
L 233.03637 329.906802 
L 233.186561 322.368943 
L 233.486972 280.583381 
L 233.641993 297.992697 
L 233.792713 276.777772 
L 233.943962 336.200935 
L 234.094378 327.23805 
L 234.248893 349.818451 
L 234.400827 309.905315 
L 234.551365 348.157975 
L 234.703006 311.442426 
L 234.853461 352.174167 
L 235.003988 341.717086 
L 235.156219 348.984065 
L 235.308068 323.504031 
L 235.459124 322.539258 
L 235.609763 336.109398 
L 235.91407 327.6601 
L 236.064857 352.174167 
L 236.367195 330.455614 
L 236.668064 352.174167 
L 236.81868 323.257583 
L 236.969161 336.08635 
L 237.120518 321.738315 
L 237.27136 352.174167 
L 237.57397 323.340202 
L 237.879636 316.739168 
L 238.031198 321.070672 
L 238.181463 344.945021 
L 238.3317 311.838884 
L 238.482233 352.174167 
L 238.633567 352.174167 
L 238.783954 324.020487 
L 238.93417 328.813316 
L 239.085885 347.382197 
L 239.236539 313.67388 
L 239.38729 344.141782 
L 239.542617 318.55018 
L 239.693129 333.699683 
L 239.843604 331.289967 
L 239.994463 346.543431 
L 240.147289 337.106913 
L 240.448361 347.347822 
L 240.598643 332.035502 
L 240.748916 349.75405 
L 240.901221 352.174167 
L 241.356815 352.174167 
L 241.507721 344.945021 
L 241.658339 307.192814 
L 241.808512 328.813316 
L 241.959396 316.028437 
L 242.109563 317.485824 
L 242.260302 328.880252 
L 242.41041 323.939469 
L 242.56242 305.983393 
L 242.712692 304.578533 
L 242.867391 317.671987 
L 243.018557 300.98691 
L 243.16928 309.663433 
L 243.319613 336.063235 
L 243.469878 321.563396 
L 243.77142 338.519113 
L 243.924001 352.174167 
L 244.075032 315.330767 
L 244.231362 334.289021 
L 244.383121 309.229964 
L 244.532922 310.225473 
L 244.682736 329.553861 
L 244.832645 309.35716 
L 244.982511 311.780764 
L 245.132629 337.653465 
L 245.282474 323.090917 
L 245.4324 341.671882 
L 245.58433 309.10779 
L 245.73476 341.702061 
L 245.88883 304.072499 
L 246.040546 352.174167 
L 246.190411 320.667313 
L 246.340314 341.671882 
L 246.490693 312.588632 
L 246.640609 324.785583 
L 246.792233 326.616996 
L 246.941805 323.006861 
L 247.09297 324.101041 
L 247.24689 342.724834 
L 247.397572 308.92322 
L 247.548268 346.551498 
L 247.699436 305.719446 
L 247.849595 348.942694 
L 248.00116 306.650457 
L 248.152925 340.194243 
L 248.457902 321.996977 
L 248.609091 320.182131 
L 248.760706 332.207627 
L 248.911938 309.724163 
L 249.063087 344.164732 
L 249.215721 307.702518 
L 249.369228 352.174167 
L 249.521591 309.411931 
L 249.671822 352.174167 
L 249.824005 316.336497 
L 249.974724 352.174167 
L 250.128373 319.843537 
L 250.280224 352.174167 
L 250.433295 313.316513 
L 250.583931 352.174167 
L 250.734931 298.279979 
L 250.888297 352.174167 
L 251.038424 302.158416 
L 251.188037 328.745993 
L 251.338783 324.020487 
L 251.490512 327.415658 
L 251.642196 338.616233 
L 251.792845 308.737061 
L 251.943199 314.313477 
L 252.3957 285.695859 
L 252.69855 283.39129 
L 252.854541 290.742581 
L 253.006359 324.339961 
L 253.157637 324.942089 
L 253.308955 316.131711 
L 253.460408 349.78159 
L 253.610996 317.485824 
L 253.762909 341.056255 
L 253.912834 325.476051 
L 254.06605 340.278967 
L 254.520225 303.525111 
L 254.672365 311.615753 
L 254.823179 325.70522 
L 254.977184 300.202835 
L 255.128464 351.374366 
L 255.279601 309.784719 
L 255.429606 352.174167 
L 256.049341 352.174167 
L 256.199305 334.426642 
L 256.349329 349.75405 
L 256.502291 318.122757 
L 256.652271 327.972997 
L 256.803245 311.150233 
L 257.109508 322.623688 
L 257.259596 311.896837 
L 257.562644 343.363789 
L 257.713319 315.225199 
L 257.864023 326.433659 
L 258.165603 300.766907 
L 258.315795 297.239139 
L 258.467101 271.394277 
L 258.619447 299.612252 
L 258.769286 299.888761 
L 259.071845 313.72888 
L 259.373611 276.561426 
L 259.526038 282.191021 
L 259.829268 298.663841 
L 259.980369 240.569348 
L 260.13481 309.889721 
L 260.291479 296.886819 
L 260.59515 307.128279 
L 260.90027 340.177153 
L 261.050203 319.146757 
L 261.201094 328.077014 
L 261.50426 291.870574 
L 261.655974 325.0583 
L 261.955958 319.099235 
L 262.105938 329.553861 
L 262.256916 290.41329 
L 262.406609 295.623403 
L 262.557247 311.954624 
L 262.712609 297.360997 
L 262.866274 302.634746 
L 263.017474 348.97952 
L 263.169652 274.814193 
L 263.321679 290.851933 
L 263.473634 272.534902 
L 263.625738 274.238391 
L 263.777651 272.421617 
L 264.085752 313.021902 
L 264.238584 314.16329 
L 264.389718 308.185118 
L 264.540515 330.517755 
L 264.691285 270.93069 
L 264.842071 288.007022 
L 264.992894 275.063277 
L 265.143864 291.215379 
L 265.293763 343.287618 
L 265.444537 323.216096 
L 265.594716 348.152212 
L 265.745782 328.846832 
L 265.896441 352.174167 
L 266.047814 320.981932 
L 266.200529 322.832673 
L 266.503101 315.383326 
L 266.805652 334.55341 
L 266.958396 317.232157 
L 267.111241 352.174167 
L 267.263056 321.911246 
L 267.415147 333.857136 
L 267.565945 326.470537 
L 267.716814 332.924023 
L 267.867663 310.405768 
L 268.017912 352.174167 
L 268.168808 329.715666 
L 268.319598 340.12559 
L 268.470044 326.359586 
L 268.62108 325.70522 
L 268.772595 349.78159 
L 268.923301 320.847868 
L 269.075396 336.223657 
L 269.225997 322.496862 
L 269.376761 349.764451 
L 269.527496 339.322352 
L 269.678415 350.56769 
L 269.829217 316.080148 
L 269.982778 352.174167 
L 270.735888 352.174167 
L 270.88681 346.559542 
L 271.037562 310.405768 
L 271.188333 352.174167 
L 271.33892 350.565385 
L 271.490023 344.164732 
L 271.640919 316.080148 
L 271.791734 352.174167 
L 271.942933 352.174167 
L 272.094126 348.970393 
L 272.245421 316.131711 
L 272.396605 352.174167 
L 272.547451 321.651106 
L 272.698277 352.174167 
L 272.848798 340.928829 
L 272.99884 344.913816 
L 273.149725 317.634914 
L 273.300578 352.174167 
L 273.602407 320.892684 
L 273.753611 348.970393 
L 273.904509 303.246719 
L 274.055441 341.732067 
L 274.20608 308.861344 
L 274.357293 314.529824 
L 274.508177 300.840451 
L 274.659567 352.174167 
L 274.81035 312.126993 
L 274.961703 340.160015 
L 275.112762 310.465523 
L 275.264113 343.388889 
L 275.414346 278.869427 
L 275.564777 333.673177 
L 275.720685 281.798381 
L 275.871473 339.395581 
L 276.022512 318.486416 
L 276.173456 324.942089 
L 276.32416 317.58536 
L 276.625606 342.493699 
L 276.926859 318.438153 
L 277.229939 275.757036 
L 277.381268 320.136428 
L 277.68505 322.749435 
L 277.835854 312.126993 
L 277.987761 311.500366 
L 278.141759 319.843537 
L 278.300908 285.047476 
L 278.905418 333.752467 
L 279.056614 329.74775 
L 279.207766 335.378348 
L 279.358729 331.349637 
L 279.51015 352.174167 
L 279.661139 297.787706 
L 279.812714 352.174167 
L 279.964324 298.663841 
L 280.269518 335.520887 
L 280.573211 311.384321 
L 280.724326 310.525106 
L 280.875567 352.174167 
L 281.027484 315.435734 
L 281.181106 345.067204 
L 281.334938 302.634746 
L 281.486155 321.825027 
L 281.637619 305.719446 
L 281.788572 327.344919 
L 282.242415 301.714728 
L 282.392982 327.273775 
L 282.543873 305.652987 
L 282.694075 309.418767 
L 282.844715 291.040462 
L 282.99509 312.759015 
L 283.146214 293.537761 
L 283.447987 322.496862 
L 283.59879 305.586338 
L 283.749579 303.176622 
L 283.900395 319.288505 
L 284.051103 296.750715 
L 284.20196 328.042441 
L 284.352957 316.131711 
L 284.503687 340.928829 
L 284.654711 316.882237 
L 284.807815 352.174167 
L 285.270763 352.174167 
L 285.422032 348.180859 
L 285.575055 352.174167 
L 285.725392 316.780969 
L 285.878834 352.174167 
L 286.029972 326.580538 
L 286.180749 343.338544 
L 286.33156 329.683491 
L 286.482406 348.965809 
L 286.633179 312.012245 
L 286.783998 352.174167 
L 286.934784 348.157975 
L 287.085426 336.109398 
L 287.237884 337.064169 
L 287.388672 348.965809 
L 287.539527 327.273775 
L 287.690302 352.174167 
L 287.841242 343.338544 
L 287.99462 324.496995 
L 288.146283 334.628606 
L 288.29746 336.97795 
L 288.448126 344.945021 
L 288.598968 327.273775 
L 288.749997 343.351184 
L 288.901147 326.543976 
L 289.051976 352.174167 
L 289.202798 320.044629 
L 289.352949 351.367461 
L 289.503751 322.454345 
L 289.653632 347.333933 
L 289.80439 319.194142 
L 289.955201 352.174167 
L 290.108928 336.380915 
L 290.263884 352.174167 
L 290.416077 292.529441 
L 290.566892 337.757184 
L 290.719207 334.628606 
L 290.870207 344.198912 
L 291.020239 325.514521 
L 291.171536 352.174167 
L 291.325269 326.078547 
L 291.478053 352.174167 
L 291.628342 332.064395 
L 291.786089 339.081822 
L 291.946261 328.687041 
L 292.097272 326.689602 
L 292.249764 322.749435 
L 292.401247 337.777751 
L 292.551564 337.695131 
L 292.702018 352.174167 
L 292.854338 329.111539 
L 293.004378 352.174167 
L 293.155908 324.980936 
L 293.306971 352.174167 
L 293.458328 320.981932 
L 293.61158 352.174167 
L 293.762097 330.517755 
L 293.916439 345.097107 
L 294.067552 329.779742 
L 294.218055 352.174167 
L 294.368559 318.34121 
L 294.518758 352.174167 
L 294.673472 352.174167 
L 294.824265 332.179144 
L 295.276804 352.174167 
L 295.42859 308.24778 
L 295.579777 347.368506 
L 295.729911 319.952303 
L 296.031851 352.174167 
L 296.182619 350.56769 
L 296.334491 305.917688 
L 296.484755 352.174167 
L 296.635692 336.132381 
L 296.785634 352.174167 
L 296.935867 315.872413 
L 297.086411 352.174167 
L 297.238463 334.628606 
L 297.392059 352.174167 
L 297.548138 318.736721 
L 297.700921 352.174167 
L 297.852826 338.635492 
L 298.00555 352.174167 
L 298.157279 308.24778 
L 298.313701 349.072311 
L 298.475207 308.525436 
L 298.631097 349.850988 
L 298.782606 313.206279 
L 298.934325 333.006289 
L 299.086033 334.628606 
L 299.237606 340.177153 
L 299.391146 319.008339 
L 299.549101 352.174167 
L 299.860362 352.174167 
L 300.315361 310.405768 
L 300.465293 352.174167 
L 300.617202 312.184122 
L 300.768681 352.174167 
L 300.919982 318.630381 
L 301.071345 352.174167 
L 301.225876 352.174167 
L 301.529264 330.732479 
L 301.680236 352.174167 
L 301.831531 314.475969 
L 301.982187 352.174167 
L 302.133339 317.634914 
L 302.286274 352.174167 
L 302.437611 316.982927 
L 302.588421 341.761902 
L 302.743028 317.526612 
L 302.893577 312.069701 
L 303.044208 287.915092 
L 303.195085 316.080148 
L 303.347807 280.701874 
L 303.499535 308.24778 
L 303.654071 287.090509 
L 303.80525 314.637073 
L 303.957164 280.498828 
L 304.108254 308.861344 
L 304.258758 282.996553 
L 304.409927 312.871791 
L 304.560641 283.194486 
L 304.71618 325.587759 
L 304.867606 277.419443 
L 305.018258 293.537761 
L 305.170345 280.294625 
L 305.324513 314.482709 
L 305.475373 305.719446 
L 305.627847 314.743712 
L 305.778391 306.389576 
L 305.929449 352.174167 
L 306.080461 293.621647 
L 306.232427 342.617455 
L 306.383399 314.529824 
L 306.534254 341.747006 
L 306.684923 324.060822 
L 306.835015 341.671882 
L 306.986356 324.181135 
L 307.136826 352.174167 
L 307.28935 320.363646 
L 307.440381 351.372077 
L 307.591474 304.117559 
L 307.741858 345.729794 
L 307.897306 309.226641 
L 308.048523 352.174167 
L 308.199314 311.150233 
L 308.350934 352.174167 
L 308.502189 323.381335 
L 308.652574 352.174167 
L 308.806108 325.287771 
L 308.964645 330.728139 
L 309.123088 330.786576 
L 309.273939 300.98691 
L 309.424563 349.767899 
L 309.884031 281.004296 
L 310.035249 348.175162 
L 310.185527 301.424732 
L 310.490149 323.746314 
L 310.640138 310.345842 
L 310.791236 279.18404 
L 310.941892 295.866807 
L 311.093208 276.084538 
L 311.244059 309.663433 
L 311.39468 288.007022 
L 311.545469 305.519497 
L 311.695646 291.040462 
L 311.85084 319.97938 
L 312.001269 286.496803 
L 312.151929 311.209007 
L 312.304789 259.260187 
L 312.458048 319.008339 
L 312.610393 314.16329 
L 312.761236 318.389751 
L 312.911007 328.779703 
L 313.06053 328.678282 
L 313.210767 282.797481 
L 313.360614 292.391931 
L 313.51029 287.451462 
L 313.65997 298.777936 
L 313.809705 272.19523 
L 313.959537 281.081778 
L 314.27612 352.174167 
L 314.584335 352.174167 
L 314.740008 348.811885 
L 314.889851 290.324807 
L 315.039814 302.894216 
L 315.189743 293.199799 
L 315.339448 243.11198 
L 315.489014 305.9926 
L 315.639936 320.847868 
L 315.789758 347.326958 
L 315.93937 304.441172 
L 316.088978 352.174167 
L 316.238678 312.53151 
L 316.388361 345.701896 
L 316.538122 324.706653 
L 316.687791 352.174167 
L 316.837359 299.510976 
L 316.988674 336.178149 
L 317.138501 310.165028 
L 317.288286 337.632542 
L 317.587978 281.788226 
L 317.737786 279.466042 
L 317.887746 290.057832 
L 318.037215 320.576253 
L 318.186711 310.853817 
L 318.336148 320.576253 
L 318.487165 318.438153 
L 318.638269 336.956241 
L 318.939515 314.259001 
L 319.089875 316.679118 
L 319.24027 335.281959 
L 319.390227 302.230278 
L 319.54022 352.174167 
L 319.690174 294.007667 
L 319.84349 338.749903 
L 319.995625 274.92408 
L 320.145756 336.063235 
L 320.295887 307.805356 
L 320.446484 336.08635 
L 320.750994 330.455614 
L 320.901429 333.619937 
L 321.051891 329.651223 
L 321.202153 334.452142 
L 321.353507 324.181135 
L 321.504085 333.673177 
L 321.654376 327.202222 
L 321.804277 326.359586 
L 321.954424 352.174167 
L 322.104275 310.225473 
L 322.254369 316.679118 
L 322.404116 328.745993 
L 322.55388 308.486341 
L 322.704011 338.460171 
L 322.853926 309.35716 
L 323.003902 344.10711 
L 323.154731 290.324807 
L 323.30549 352.174167 
L 323.45636 317.634914 
L 323.607333 352.174167 
L 323.758083 311.209007 
L 323.90889 352.174167 
L 324.059649 303.176622 
L 324.210209 352.174167 
L 324.511954 329.683491 
L 324.662814 344.955363 
L 324.812761 335.208938 
L 324.962823 340.880288 
L 325.114157 352.174167 
L 325.265221 352.174167 
L 325.415683 319.194142 
L 325.566719 337.736559 
L 325.717487 320.892684 
L 325.872177 346.677496 
L 326.023126 316.234396 
L 326.173634 352.174167 
L 326.325765 316.336497 
L 326.476647 352.174167 
L 326.631811 330.248899 
L 326.783244 352.174167 
L 326.933412 310.972896 
L 327.084579 352.174167 
L 327.235518 302.44463 
L 327.386512 347.361631 
L 327.537964 305.053134 
L 327.6903 340.228277 
L 327.840349 314.259001 
L 327.991257 316.882237 
L 328.141506 352.174167 
L 328.293602 308.24778 
L 328.444552 352.174167 
L 328.59616 320.981932 
L 328.746943 352.174167 
L 329.212569 352.174167 
L 329.363764 332.207627 
L 329.513656 262.758495 
L 329.664771 266.350611 
L 329.817322 233.05368 
L 329.968612 287.482579 
L 330.119652 281.590308 
L 330.270152 328.813316 
L 330.420266 313.452296 
L 330.570218 341.686993 
L 330.871649 320.892684 
L 331.022673 319.335485 
L 331.173123 320.75785 
L 331.324902 338.59692 
L 331.475143 310.405768 
L 331.776155 340.142827 
L 331.928623 311.558142 
L 332.078722 336.063235 
L 332.229552 304.715106 
L 332.379867 331.260004 
L 332.680437 316.780969 
L 332.831013 324.824878 
L 332.981764 303.979861 
L 333.131637 316.730117 
L 333.281458 310.913443 
L 333.434226 352.174167 
L 333.585878 306.715213 
L 333.739088 337.980232 
L 334.042009 293.324704 
L 334.192708 303.246719 
L 334.343219 289.43168 
L 334.493089 316.780969 
L 334.643312 309.35716 
L 334.793333 312.702384 
L 334.943451 324.706653 
L 335.093824 313.563406 
L 335.244289 261.952949 
L 335.394131 261.823134 
L 335.545003 270.243847 
L 335.694795 249.574925 
L 336.14866 349.795127 
L 336.29859 315.172187 
L 336.454242 329.592011 
L 336.604485 286.119346 
L 336.754338 340.864014 
L 336.904869 289.341533 
L 337.055462 345.748259 
L 337.207388 317.88057 
L 337.35791 311.954624 
L 337.509636 320.273147 
L 337.659923 298.202545 
L 337.812843 246.06047 
L 337.964783 290.05554 
L 338.116232 248.999852 
L 338.267159 309.663433 
L 338.419404 309.290791 
L 338.87446 328.383767 
L 339.026849 321.954172 
L 339.179322 351.381153 
L 339.33048 315.383326 
L 339.480382 352.174167 
L 339.631482 312.871791 
L 339.78209 314.367797 
L 339.932998 292.819558 
L 340.084145 300.913785 
L 340.387652 335.330291 
L 340.69332 344.198912 
L 340.843524 320.712646 
L 340.993303 352.174167 
L 341.145941 329.111539 
L 341.297368 343.388889 
L 341.447534 309.541451 
L 341.599909 352.174167 
L 341.751786 313.150927 
L 341.901476 349.747065 
L 342.053089 307.449118 
L 342.203604 349.764451 
L 342.355158 293.788702 
L 342.505407 352.174167 
L 342.656516 294.506237 
L 342.806868 352.174167 
L 342.958612 319.475621 
L 343.109973 340.160015 
L 343.260426 322.454345 
L 343.410882 330.424409 
L 343.565563 352.174167 
L 344.033858 352.174167 
L 344.185511 311.384321 
L 344.337289 341.791566 
L 344.488952 320.318461 
L 344.638723 352.174167 
L 344.942687 333.141847 
L 345.096841 329.370306 
L 345.24785 336.155297 
L 345.399492 333.006289 
L 345.551932 346.599418 
L 345.701772 307.063558 
L 345.85168 348.947344 
L 346.001395 310.043614 
L 346.150953 352.174167 
L 346.300869 319.051577 
L 346.451162 352.174167 
L 346.600996 294.815535 
L 346.75092 352.174167 
L 346.901524 311.896837 
L 347.053367 352.174167 
L 347.203317 328.042441 
L 347.354009 352.174167 
L 347.503792 313.452296 
L 347.653549 352.174167 
L 347.803237 302.086348 
L 347.954065 352.174167 
L 348.103958 323.898785 
L 348.253701 348.938031 
L 348.407425 310.380914 
L 348.557494 326.396676 
L 348.707361 315.820105 
L 348.857758 294.980359 
L 349.007661 318.243709 
L 349.157372 322.283049 
L 349.308447 323.298952 
L 349.608764 333.619937 
L 349.759065 317.485824 
L 349.909561 280.993141 
L 350.060632 352.174167 
L 350.210584 295.704771 
L 350.360589 337.611558 
L 350.510627 291.671243 
L 350.660436 341.686993 
L 350.810415 297.159868 
L 350.9605 345.720521 
L 351.113072 282.986284 
L 351.265311 290.231513 
L 351.418168 316.488567 
L 351.568122 295.866807 
L 351.719187 305.652987 
L 351.869117 330.361729 
L 352.018895 319.859445 
L 352.168742 335.993491 
L 352.318433 314.204368 
L 352.468072 309.295375 
L 352.617844 352.174167 
L 352.768267 291.758173 
L 352.918158 352.174167 
L 353.068077 344.903354 
L 353.217675 352.174167 
L 353.367456 322.196658 
L 353.518742 352.174167 
L 353.670184 346.567562 
L 353.821577 345.77576 
L 353.972994 335.378348 
L 354.123936 343.338544 
L 354.275345 333.778746 
L 354.425298 334.452142 
L 354.575138 343.287618 
L 354.724952 330.361729 
L 354.87492 352.174167 
L 355.02493 306.99865 
L 355.174935 341.671882 
L 355.324764 321.475181 
L 355.474315 318.194747 
L 355.624526 333.619937 
L 355.778225 323.666009 
L 355.93476 345.204631 
L 356.091148 335.161023 
L 356.24754 309.58256 
L 356.403928 352.174167 
L 356.560228 320.42406 
L 356.716572 352.174167 
L 356.87281 304.936203 
L 357.022874 352.174167 
L 357.17314 315.872413 
L 357.323242 348.947344 
L 357.472936 309.35716 
L 357.622562 352.174167 
L 357.775296 333.087854 
L 357.925025 335.257688 
L 358.074996 331.948322 
L 358.224556 352.174167 
L 358.828078 352.174167 
L 358.977489 310.043614 
L 359.127684 352.174167 
L 359.277268 322.239916 
L 359.426976 352.174167 
L 359.576578 331.919093 
L 359.726145 352.174167 
L 359.876117 317.435841 
L 360.026314 352.174167 
L 360.176441 323.898785 
L 360.326152 352.174167 
L 360.475862 312.53151 
L 360.625479 352.174167 
L 360.775091 318.194747 
L 360.92467 352.174167 
L 361.074274 338.420592 
L 361.224662 352.174167 
L 361.37489 322.283049 
L 361.528944 352.174167 
L 361.679006 321.651106 
L 361.828921 352.174167 
L 361.978537 309.295375 
L 362.128129 352.174167 
L 362.277832 348.128998 
L 362.42754 352.174167 
L 362.577141 315.767646 
L 362.728942 352.174167 
L 362.880286 330.610304 
L 363.031268 352.174167 
L 363.180922 331.948322 
L 363.330719 352.174167 
L 363.482803 340.992905 
L 363.635352 352.174167 
L 363.787886 329.111539 
L 363.9379 352.174167 
L 364.088118 352.174167 
L 364.237842 345.711222 
L 364.387489 309.295375 
L 364.536997 341.656727 
L 364.686425 331.919093 
L 364.835865 352.174167 
L 364.985402 316.525238 
L 365.135195 352.174167 
L 365.284854 349.747065 
L 365.587568 340.108304 
L 365.73804 352.174167 
L 365.887847 352.174167 
L 366.037504 322.239916 
L 366.187042 350.556099 
L 366.337012 346.51093 
L 366.487793 350.569988 
L 366.638475 316.780969 
L 366.789046 352.174167 
L 366.942274 348.203484 
L 367.094826 351.382273 
L 367.2474 322.03966 
L 367.399759 352.174167 
L 367.701751 352.174167 
L 367.851881 317.435841 
L 368.001658 352.174167 
L 368.151538 344.892862 
L 368.301524 352.174167 
L 368.454558 336.3139 
L 368.608239 352.174167 
L 368.758798 315.225199 
L 368.90855 352.174167 
L 369.058215 323.857984 
L 369.207768 338.420592 
L 369.357371 327.057876 
L 369.508186 347.354736 
L 369.659587 315.383326 
L 369.810993 333.778746 
L 369.96239 324.141145 
L 370.11336 326.543976 
L 370.264055 345.748259 
L 370.414187 344.903354 
L 370.56392 332.813231 
L 370.713702 351.365133 
L 370.86341 314.204368 
L 371.01297 322.196658 
L 371.162536 337.611558 
L 371.462444 325.514521 
L 371.612045 352.174167 
L 371.761645 352.174167 
L 371.910993 308.359893 
L 372.060378 338.400717 
L 372.359645 264.798516 
L 372.510493 225.262494 
L 372.810519 312.588632 
L 372.965108 352.174167 
L 373.430666 352.174167 
L 373.580493 318.273769 
L 373.880132 229.378223 
L 374.030229 212.00906 
L 374.180445 227.941497 
L 374.330592 352.174167 
L 375.23199 352.174167 
L 375.382702 343.300405 
L 375.534088 341.835747 
L 375.68528 352.174167 
L 375.835351 335.257688 
L 375.985208 352.174167 
L 376.139558 337.980232 
L 376.290586 338.558128 
L 376.440778 352.174167 
L 376.591196 339.285421 
L 376.742789 352.174167 
L 376.894817 352.174167 
L 377.045681 347.368506 
L 377.347103 313.72888 
L 377.499781 352.174167 
L 377.650112 323.298952 
L 377.801236 352.174167 
L 377.951302 336.063235 
L 378.101096 340.864014 
L 378.250963 317.435841 
L 378.40227 328.18014 
L 378.552208 327.938125 
L 378.702226 319.099235 
L 378.852118 352.174167 
L 379.0019 327.938125 
L 379.151864 348.942694 
L 379.301891 306.99865 
L 379.453623 352.174167 
L 379.606332 300.555289 
L 379.756791 349.767899 
L 379.909387 325.173523 
L 380.060494 352.174167 
L 380.210703 312.64559 
L 380.361278 352.174167 
L 380.513678 321.954172 
L 380.66379 352.174167 
L 380.814064 342.507608 
L 380.964076 352.174167 
L 381.118275 315.900778 
L 381.26865 352.174167 
L 381.426174 325.84481 
L 381.578735 352.174167 
L 381.728721 314.313477 
L 381.879452 348.95198 
L 382.030943 307.449118 
L 382.182772 334.603612 
L 382.4833 342.507608 
L 382.63409 306.389576 
L 382.93594 330.517755 
L 383.087142 289.878564 
L 383.240055 316.488567 
L 383.392031 307.576178 
L 383.542024 351.36862 
L 383.692482 309.541451 
L 383.843581 351.373223 
L 383.994802 308.122276 
L 384.148797 352.174167 
L 384.29947 309.784719 
L 384.449925 352.174167 
L 384.601081 315.278059 
L 385.053632 348.961213 
L 385.204132 316.028437 
L 385.354662 345.729794 
L 385.508335 307.226706 
L 385.658825 326.507309 
L 385.809848 324.101041 
L 385.95977 338.460171 
L 386.259771 294.815535 
L 386.409835 314.204368 
L 386.560233 293.453634 
L 386.710262 316.679118 
L 386.860227 283.505383 
L 387.010518 331.229955 
L 387.160467 287.544723 
L 387.310965 338.499522 
L 387.460841 303.702084 
L 387.614273 352.174167 
L 388.084326 352.174167 
L 388.234426 302.914864 
L 388.384746 339.285421 
L 388.534928 276.343836 
L 388.685081 334.452142 
L 388.843468 309.874683 
L 388.994536 352.174167 
L 389.1444 296.431271 
L 389.294763 352.174167 
L 389.444765 300.545005 
L 389.595039 352.174167 
L 389.746235 318.534541 
L 389.896535 346.535341 
L 390.046707 321.563396 
L 390.196785 352.174167 
L 390.346789 311.838884 
L 390.496662 352.174167 
L 390.646736 302.158416 
L 390.796906 345.720521 
L 390.946943 297.318183 
L 391.097657 347.354736 
L 391.248849 352.174167 
L 391.398849 333.593202 
L 391.549862 345.766619 
L 391.700051 340.880288 
L 392.001305 315.065707 
L 392.152284 348.16372 
L 392.302886 315.225199 
L 392.452873 352.174167 
L 392.60317 324.020487 
L 392.754432 348.16372 
L 392.904774 352.174167 
L 393.055477 329.618862 
L 393.205694 351.36862 
L 393.355986 325.591129 
L 393.50742 352.174167 
L 393.657839 329.651223 
L 393.807774 352.174167 
L 393.958161 306.99865 
L 394.109644 345.77576 
L 394.260828 334.55341 
L 394.411939 304.186113 
L 394.562483 352.174167 
L 394.712882 308.674651 
L 394.863566 349.760994 
L 395.013532 308.737061 
L 395.16372 350.560755 
L 395.315118 312.126993 
L 395.465951 352.174167 
L 395.617211 327.309398 
L 395.767629 352.174167 
L 395.918245 330.455614 
L 396.068632 333.646595 
L 396.219232 328.880252 
L 396.672175 262.053785 
L 396.82223 265.175135 
L 396.972671 278.063881 
L 397.123395 274.952645 
L 397.277309 319.147886 
L 397.428828 302.586511 
L 397.730852 297.710011 
L 397.881186 311.954624 
L 398.03224 271.278877 
L 398.18326 299.236272 
L 398.33448 278.487368 
L 398.485541 317.684326 
L 398.636184 301.424732 
L 398.786511 314.42196 
L 398.936885 315.119024 
L 399.238042 249.359647 
L 399.388857 281.387771 
L 399.54143 264.025006 
L 399.692952 313.838411 
L 399.844713 291.562229 
L 399.994766 305.519497 
L 400.14491 286.736855 
L 400.296125 301.64254 
L 400.449545 296.897787 
L 400.601007 329.811643 
L 400.758555 335.231132 
L 401.064727 307.953063 
L 401.377504 352.174167 
L 401.528911 310.702841 
L 401.680026 321.781733 
L 401.830406 315.119024 
L 401.980918 334.477568 
L 402.131993 313.783724 
L 402.281919 347.926739 
L 402.434548 352.174167 
L 402.902562 352.174167 
L 403.054139 312.983923 
L 403.204996 330.517755 
L 403.355294 328.007769 
L 403.50543 347.347822 
L 403.656267 320.802923 
L 403.806419 332.813231 
L 403.956997 293.537761 
L 404.108154 328.145863 
L 404.258321 294.980359 
L 404.415926 309.58256 
L 404.565874 266.473216 
L 404.716022 306.191945 
L 404.865981 290.864537 
L 405.015866 333.593202 
L 405.165665 293.923733 
L 405.316499 307.996053 
L 405.467226 275.063277 
L 405.61732 316.730117 
L 405.767425 262.500813 
L 405.91746 277.957247 
L 406.068301 265.424416 
L 406.21825 275.53713 
L 406.518223 318.292529 
L 406.668167 317.435841 
L 406.818361 340.073582 
L 406.968789 305.519497 
L 407.120262 300.112841 
L 407.420487 342.493699 
L 407.570355 303.702084 
L 407.720358 322.239916 
L 407.871999 317.88057 
L 408.174807 324.260774 
L 408.325077 343.338544 
L 408.629008 309.965356 
L 408.780715 343.376357 
L 408.932577 322.707639 
L 409.083059 337.695131 
L 409.235006 305.053134 
L 409.388163 340.329228 
L 409.539344 318.582529 
L 409.691967 345.0168 
L 409.844368 322.082223 
L 409.996571 324.260774 
L 410.147915 317.782728 
L 410.300352 352.174167 
L 410.451402 306.520389 
L 410.602148 339.322352 
L 410.753168 324.90313 
L 410.904797 339.413759 
L 411.057066 308.372571 
L 411.210766 349.019959 
L 411.3614 316.831676 
L 411.512248 336.132381 
L 411.814151 339.303913 
L 411.965521 333.726113 
L 412.117169 343.401386 
L 412.269604 283.107303 
L 412.574023 346.57556 
L 412.726917 296.819823 
L 412.880588 312.63535 
L 413.03087 316.028437 
L 413.181762 316.080148 
L 413.332496 303.979861 
L 413.483218 326.470537 
L 413.634172 296.027915 
L 413.93697 343.338544 
L 414.087455 327.202222 
L 414.238418 325.70522 
L 414.389311 319.288505 
L 414.540229 340.944916 
L 414.691017 312.815484 
L 414.841077 332.813231 
L 414.994136 321.246647 
L 415.145313 330.610304 
L 415.599737 318.96156 
L 415.755855 306.294881 
L 415.912268 321.198453 
L 416.069193 285.759846 
L 416.219607 313.783724 
L 416.369608 301.497543 
L 416.520523 322.411705 
L 416.670849 288.627289 
L 416.971657 343.338544 
L 417.12895 352.174167 
L 417.287379 352.174167 
L 417.596986 318.534541 
L 417.747662 304.048808 
L 417.898195 342.493699 
L 418.049725 302.727586 
L 418.201121 352.174167 
L 418.352 304.117559 
L 418.503476 352.174167 
L 418.655075 313.892943 
L 418.805867 352.174167 
L 418.956887 329.683491 
L 419.107987 346.567562 
L 419.259015 314.583525 
L 419.409951 349.764451 
L 419.559823 292.810122 
L 419.71321 345.047127 
L 419.865333 303.731835 
L 420.015928 342.521476 
L 420.166359 316.780969 
L 420.316607 352.174167 
L 420.470132 287.147073 
L 420.621837 352.174167 
L 420.773532 311.500366 
L 420.924014 352.174167 
L 421.075412 320.937372 
L 421.227102 343.401386 
L 421.379732 299.042273 
L 421.531745 351.377774 
L 421.683734 292.529441 
L 421.833477 352.174167 
L 421.989245 306.820883 
L 422.142812 352.174167 
L 422.295311 320.453633 
L 422.448887 349.019959 
L 422.601843 303.868678 
L 423.05286 352.174167 
L 423.203058 323.939469 
L 423.353183 320.712646 
L 423.503407 323.980036 
L 423.653772 352.174167 
L 423.955342 319.288505 
L 424.273095 345.308937 
L 424.431628 352.174167 
L 424.589927 311.579901 
L 424.74525 352.174167 
L 425.05476 352.174167 
L 425.205268 318.389751 
L 425.35556 352.174167 
L 425.506315 338.519113 
L 425.65674 341.717086 
L 425.807174 325.70522 
L 425.957787 352.174167 
L 426.107852 352.174167 
L 426.409806 331.289967 
L 426.561448 338.380784 
L 426.861974 333.699683 
L 427.011866 339.248278 
L 427.162781 332.868786 
L 427.314856 352.174167 
L 427.466165 320.227704 
L 427.616865 352.174167 
L 427.770398 314.270363 
L 427.923385 352.174167 
L 428.073903 326.543976 
L 428.224517 348.140638 
L 428.37613 317.033057 
L 428.526302 352.174167 
L 428.676366 303.771828 
L 428.826436 352.174167 
L 428.976572 327.972997 
L 429.127344 352.174167 
L 429.278101 318.438153 
L 429.429828 348.175162 
L 429.58026 315.225199 
L 429.730829 325.70522 
L 429.881711 320.847868 
L 430.031785 338.460171 
L 430.181689 313.3965 
L 430.331759 352.174167 
L 430.481582 328.745993 
L 430.631748 345.711222 
L 430.782001 295.866807 
L 430.931977 352.174167 
L 431.082737 352.174167 
L 431.384805 326.470537 
L 431.535698 352.174167 
L 431.686355 323.274145 
L 431.844013 352.174167 
L 432.307359 352.174167 
L 432.458576 293.705294 
L 432.609367 352.174167 
L 432.760688 306.585516 
L 433.061876 352.174167 
L 433.364038 316.932654 
L 433.514981 323.257583 
L 433.666101 312.871791 
L 433.82233 352.174167 
L 433.977331 320.291951 
L 434.128288 352.174167 
L 434.28029 315.487994 
L 434.430558 352.174167 
L 434.581375 311.209007 
L 434.885651 338.538648 
L 435.035837 325.591129 
L 435.185831 352.174167 
L 435.338172 312.354534 
L 435.490835 352.174167 
L 435.641506 300.038362 
L 435.794882 352.174167 
L 435.949304 297.207458 
L 436.103728 350.608076 
L 436.255196 293.871872 
L 436.409056 352.174167 
L 436.716085 341.13444 
L 436.868328 348.99762 
L 437.019002 343.325867 
L 437.16956 305.519497 
L 437.32144 352.174167 
L 437.472922 319.475621 
L 437.628623 352.174167 
L 437.779911 320.227704 
L 437.932546 341.850391 
L 438.085425 319.66062 
L 438.240523 323.282195 
L 438.391259 316.131711 
L 438.541612 315.976578 
L 438.692592 320.892684 
L 438.843428 317.634914 
L 438.999246 336.600266 
L 439.151225 330.671565 
L 439.301793 348.961213 
L 439.452813 326.543976 
L 439.60408 352.174167 
L 439.756566 307.639438 
L 439.910481 341.149945 
L 440.061401 336.155297 
L 440.212319 352.174167 
L 440.36586 321.333889 
L 440.516373 333.699683 
L 440.667688 325.780737 
L 440.818611 330.517755 
L 440.968851 322.368943 
L 441.11979 352.174167 
L 441.271229 323.42235 
L 441.42184 346.551498 
L 441.725834 320.892684 
L 441.877518 352.174167 
L 442.029882 311.615753 
L 442.180595 352.174167 
L 442.331208 292.734523 
L 442.481846 338.519113 
L 442.633667 297.942433 
L 442.784727 309.724163 
L 442.936271 350.576844 
L 443.09112 320.764619 
L 443.243985 348.220285 
L 443.394623 300.038362 
L 443.546093 308.185118 
L 443.696692 348.956603 
L 443.84894 292.444718 
L 444.001511 352.174167 
L 444.152777 304.186113 
L 444.455753 338.616233 
L 444.608127 318.82043 
L 444.759377 333.778746 
L 444.912252 300.555289 
L 445.063756 352.174167 
L 445.216773 298.172879 
L 445.370126 352.174167 
L 445.520601 312.126993 
L 445.671611 331.319845 
L 445.823311 335.402274 
L 446.131777 320.024408 
L 446.595146 352.174167 
L 446.909854 352.174167 
L 447.059782 321.934464 
L 447.21212 329.111539 
L 447.36262 344.141782 
L 447.51611 314.955184 
L 447.670139 352.174167 
L 447.823798 330.125723 
L 447.976419 349.788378 
L 448.128442 310.937473 
L 448.281959 339.521745 
L 448.435166 329.241653 
L 448.588667 296.108124 
L 448.739761 349.774764 
L 448.890333 291.040462 
L 449.041002 352.174167 
L 449.195582 297.130366 
L 449.348093 352.174167 
L 449.498705 322.411705 
L 449.652021 352.174167 
L 449.803807 308.24778 
L 449.954921 332.924023 
L 450.1066 327.450876 
L 450.257283 329.683491 
L 450.409001 345.784874 
L 450.560101 327.380339 
L 450.71251 333.087854 
L 450.863026 303.106325 
L 451.16956 319.008339 
L 451.320415 316.080148 
L 451.622697 330.548693 
L 451.773838 314.475969 
L 451.926191 329.144206 
L 452.078575 325.096817 
L 452.230964 302.143562 
L 452.383442 297.456247 
L 452.535675 303.663123 
L 452.686753 283.194486 
L 452.837967 281.691142 
L 452.989643 299.537484 
L 453.140407 341.732067 
L 453.291868 333.80495 
L 453.443296 352.174167 
L 453.595793 328.383767 
L 453.74773 352.174167 
L 453.898446 322.411705 
L 454.05089 339.467981 
L 454.203441 330.762807 
L 454.353884 328.846832 
L 454.50418 333.593202 
L 454.655266 311.384321 
L 454.806347 344.164732 
L 454.956929 318.34121 
L 455.110546 325.401056 
L 455.262063 342.590228 
L 455.412921 324.264277 
L 455.564505 328.214319 
L 455.716205 352.174167 
L 455.869032 326.004727 
L 456.019099 352.174167 
L 456.171392 317.977857 
L 456.321358 352.174167 
L 456.472329 319.288505 
L 456.626707 323.826168 
L 456.930168 340.912695 
L 457.080767 316.831676 
L 457.233356 340.312522 
L 457.383133 312.53151 
L 457.535214 341.821062 
L 457.687108 306.779786 
L 457.840689 352.174167 
L 458.145596 333.222265 
L 458.297093 333.060743 
L 458.447222 321.563396 
L 458.597962 345.73904 
L 458.750848 329.17678 
L 458.902326 352.174167 
L 459.054815 309.965356 
L 459.206902 345.0168 
L 459.359246 321.996977 
L 459.509651 352.174167 
L 459.661675 324.221012 
L 459.813064 347.382197 
L 459.96483 322.707639 
L 460.117121 352.174167 
L 460.267862 299.963669 
L 460.420222 327.485995 
L 460.57107 315.225199 
L 460.723125 341.056255 
L 460.875008 305.851795 
L 461.182031 346.884917 
L 461.340221 352.174167 
L 461.801562 352.174167 
L 461.954424 316.53897 
L 462.105282 352.174167 
L 462.41015 329.651223 
L 462.561871 352.174167 
L 462.7127 336.93447 
L 462.863136 351.36862 
L 463.017791 336.491358 
L 463.32061 349.788378 
L 463.471283 333.726113 
L 463.621811 338.499522 
L 463.773191 326.580538 
L 463.923801 336.08635 
L 464.074343 328.042441 
L 464.223996 352.174167 
L 464.37379 322.283049 
L 464.524066 323.898785 
L 464.674016 323.132763 
L 464.824378 352.174167 
L 464.974392 332.813231 
L 465.127042 329.906802 
L 465.279647 337.899927 
L 465.430065 319.288505 
L 465.580321 324.706653 
L 465.730386 335.257688 
L 466.03036 263.308681 
L 466.180679 307.869104 
L 466.330862 265.175135 
L 466.631633 316.679118 
L 466.783747 330.671565 
L 466.934916 298.510955 
L 467.084745 315.119024 
L 467.234842 285.024361 
L 467.537085 328.007769 
L 467.687928 283.095662 
L 467.989684 308.24778 
L 468.14002 307.869104 
L 468.290308 352.174167 
L 468.440812 276.452787 
L 468.591153 333.673177 
L 468.741178 256.9829 
L 468.894281 308.558433 
L 469.044407 308.674651 
L 469.194659 307.063558 
L 469.34474 324.746175 
L 469.650685 302.797822 
L 469.803229 352.174167 
L 469.955871 301.421313 
L 470.107304 340.194243 
L 470.257084 305.385239 
L 470.559397 336.08635 
L 470.712169 331.55582 
L 470.863314 320.227704 
L 471.01465 341.761902 
L 471.167323 303.800353 
L 471.318948 348.970393 
L 471.47226 311.111713 
L 471.625964 352.174167 
L 471.777595 313.892943 
L 471.929144 352.174167 
L 472.080051 340.142827 
L 472.231949 338.635492 
L 472.386181 340.3625 
L 472.539602 352.174167 
L 472.690373 312.012245 
L 472.840944 352.174167 
L 472.992235 352.174167 
L 473.293504 327.23805 
L 473.444556 347.368506 
L 473.597986 300.6283 
L 473.750041 352.174167 
L 473.901988 325.096817 
L 474.052424 335.281959 
L 474.202521 323.939469 
L 474.353592 348.175162 
L 474.503647 309.35716 
L 474.653482 352.174167 
L 474.805472 329.012981 
L 474.957359 352.174167 
L 475.108606 302.44463 
L 475.258718 352.174167 
L 475.41713 300.645705 
L 475.568042 324.260774 
L 475.71822 328.779703 
L 475.87334 328.887951 
L 476.031118 352.174167 
L 476.495296 352.174167 
L 476.647133 351.377774 
L 476.798534 314.583525 
L 476.948674 352.174167 
L 477.10071 352.174167 
L 477.250906 336.040054 
L 477.554864 352.174167 
L 477.705668 312.012245 
L 477.85592 352.174167 
L 478.007847 321.911246 
L 478.158171 352.174167 
L 478.308972 330.486729 
L 478.459864 352.174167 
L 478.609998 334.452142 
L 478.759963 345.711222 
L 478.910469 316.730117 
L 479.06022 344.10711 
L 479.210306 319.051577 
L 479.36699 352.174167 
L 479.517227 352.174167 
L 479.673368 314.900343 
L 479.823635 352.174167 
L 479.975574 319.475621 
L 480.125638 352.174167 
L 480.277102 312.126993 
L 480.431353 352.174167 
L 480.582069 332.121934 
L 480.735272 346.623073 
L 480.886057 319.335485 
L 481.036899 352.174167 
L 481.187114 334.452142 
L 481.337136 352.174167 
L 481.488136 316.882237 
L 481.638291 348.140638 
L 481.790102 315.435734 
L 481.940537 340.090968 
L 482.092566 313.206279 
L 482.243105 352.174167 
L 482.393216 309.418767 
L 482.544407 352.174167 
L 482.697605 311.111713 
L 482.847886 352.174167 
L 482.998867 319.241391 
L 483.148893 352.174167 
L 483.298974 321.519352 
L 483.455831 350.631772 
L 483.605761 315.872413 
L 483.756412 317.535663 
L 483.907993 311.428496 
L 484.061185 310.32205 
L 484.213747 310.702841 
L 484.364477 292.017469 
L 484.514569 315.065707 
L 484.665653 284.093972 
L 484.815953 291.671243 
L 484.966956 276.992883 
L 485.117011 325.55288 
L 485.270006 303.00734 
L 485.421099 312.871791 
L 485.57314 276.731192 
L 485.723648 307.805356 
L 485.873856 278.869427 
L 486.023937 314.313477 
L 486.174466 278.170208 
L 486.324428 297.318183 
L 486.474996 257.119669 
L 486.631329 314.900343 
L 486.782271 325.780737 
L 487.084551 323.42235 
L 487.234922 343.325867 
L 487.3858 319.998532 
L 487.536134 340.108304 
L 487.686494 317.535663 
L 487.838698 327.521013 
L 487.991943 329.241653 
L 488.149713 332.947129 
L 488.603531 302.797822 
L 488.753722 314.259001 
L 488.90604 315.592068 
L 489.210023 332.236029 
L 489.362182 305.983393 
L 489.664547 329.07878 
L 489.816997 296.584606 
L 489.967652 334.477568 
L 490.118958 291.389299 
L 490.2709 324.260774 
L 490.422595 322.623688 
L 490.577123 327.712543 
L 490.733145 352.174167 
L 491.044126 352.174167 
L 491.195993 254.495367 
L 491.348188 270.02904 
L 491.498413 235.537493 
L 491.649727 283.293029 
L 491.800683 290.236071 
L 491.953492 332.432602 
L 492.10428 324.90313 
L 492.255112 324.824878 
L 492.706494 299.963669 
L 492.856515 321.519352 
L 493.006349 301.27848 
L 493.156169 327.094119 
L 493.305949 313.3965 
L 493.455697 329.553861 
L 493.605669 314.204368 
L 493.760037 352.174167 
L 493.911708 327.521013 
L 494.064084 332.292591 
L 494.365253 307.063558 
L 494.515107 329.586409 
L 494.665016 315.012236 
L 494.814996 338.44041 
L 494.967905 299.909212 
L 495.117955 330.393114 
L 495.268711 313.618722 
L 495.420219 351.374366 
L 495.571009 315.278059 
L 495.571009 315.278059 
" style="fill:none;stroke:#1f77b4;stroke-linecap:square;stroke-width:1.5;"/>
   </g>
   <g id="patch_3">
    <path d="M 66.158594 352.174167 
L 66.158594 35.0625 
" style="fill:none;stroke:#000000;stroke-linecap:square;stroke-linejoin:miter;stroke-width:0.8;"/>
   </g>
   <g id="patch_4">
    <path d="M 516.019219 352.174167 
L 516.019219 35.0625 
" style="fill:none;stroke:#000000;stroke-linecap:square;stroke-linejoin:miter;stroke-width:0.8;"/>
   </g>
   <g id="patch_5">
    <path d="M 66.158594 352.174167 
L 516.019219 352.174167 
" style="fill:none;stroke:#000000;stroke-linecap:square;stroke-linejoin:miter;stroke-width:0.8;"/>
   </g>
   <g id="patch_6">
    <path d="M 66.158594 35.0625 
L 516.019219 35.0625 
" style="fill:none;stroke:#000000;stroke-linecap:square;stroke-linejoin:miter;stroke-width:0.8;"/>
   </g>
   <g id="legend_1">
    <g id="patch_7">
     <path d="M 540.51225 53.01875 
L 620.748187 53.01875 
Q 622.748187 53.01875 622.748187 51.01875 
L 622.748187 37.0625 
Q 622.748187 35.0625 620.748187 35.0625 
L 540.51225 35.0625 
Q 538.51225 35.0625 538.51225 37.0625 
L 538.51225 51.01875 
Q 538.51225 53.01875 540.51225 53.01875 
z
" style="fill:#ffffff;opacity:0.8;stroke:#cccccc;stroke-linejoin:miter;"/>
    </g>
    <g id="line2d_14">
     <path d="M 542.51225 43.160937 
L 562.51225 43.160937 
" style="fill:none;stroke:#1f77b4;stroke-linecap:square;stroke-width:1.5;"/>
    </g>
    <g id="line2d_15"/>
    <g id="text_14">
     <!-- drop_rate -->
     <defs>
      <path d="M 50.984375 -16.609375 
L 50.984375 -23.578125 
L -0.984375 -23.578125 
L -0.984375 -16.609375 
z
" id="DejaVuSans-95"/>
     </defs>
     <g transform="translate(570.51225 46.660937)scale(0.1 -0.1)">
      <use xlink:href="#DejaVuSans-100"/>
      <use x="63.476562" xlink:href="#DejaVuSans-114"/>
      <use x="104.558594" xlink:href="#DejaVuSans-111"/>
      <use x="165.740234" xlink:href="#DejaVuSans-112"/>
      <use x="229.216797" xlink:href="#DejaVuSans-95"/>
      <use x="279.216797" xlink:href="#DejaVuSans-114"/>
      <use x="320.330078" xlink:href="#DejaVuSans-97"/>
      <use x="381.609375" xlink:href="#DejaVuSans-116"/>
      <use x="420.818359" xlink:href="#DejaVuSans-101"/>
     </g>
    </g>
   </g>
  </g>
  <g id="text_15">
   <!-- result droprate -->
   <defs>
    <path d="M 44.28125 53.078125 
L 44.28125 44.578125 
Q 40.484375 46.53125 36.375 47.5 
Q 32.28125 48.484375 27.875 48.484375 
Q 21.1875 48.484375 17.84375 46.4375 
Q 14.5 44.390625 14.5 40.28125 
Q 14.5 37.15625 16.890625 35.375 
Q 19.28125 33.59375 26.515625 31.984375 
L 29.59375 31.296875 
Q 39.15625 29.25 43.1875 25.515625 
Q 47.21875 21.78125 47.21875 15.09375 
Q 47.21875 7.46875 41.1875 3.015625 
Q 35.15625 -1.421875 24.609375 -1.421875 
Q 20.21875 -1.421875 15.453125 -0.5625 
Q 10.6875 0.296875 5.421875 2 
L 5.421875 11.28125 
Q 10.40625 8.6875 15.234375 7.390625 
Q 20.0625 6.109375 24.8125 6.109375 
Q 31.15625 6.109375 34.5625 8.28125 
Q 37.984375 10.453125 37.984375 14.40625 
Q 37.984375 18.0625 35.515625 20.015625 
Q 33.0625 21.96875 24.703125 23.78125 
L 21.578125 24.515625 
Q 13.234375 26.265625 9.515625 29.90625 
Q 5.8125 33.546875 5.8125 39.890625 
Q 5.8125 47.609375 11.28125 51.796875 
Q 16.75 56 26.8125 56 
Q 31.78125 56 36.171875 55.265625 
Q 40.578125 54.546875 44.28125 53.078125 
z
" id="DejaVuSans-115"/>
    <path d="M 8.5 21.578125 
L 8.5 54.6875 
L 17.484375 54.6875 
L 17.484375 21.921875 
Q 17.484375 14.15625 20.5 10.265625 
Q 23.53125 6.390625 29.59375 6.390625 
Q 36.859375 6.390625 41.078125 11.03125 
Q 45.3125 15.671875 45.3125 23.6875 
L 45.3125 54.6875 
L 54.296875 54.6875 
L 54.296875 0 
L 45.3125 0 
L 45.3125 8.40625 
Q 42.046875 3.421875 37.71875 1 
Q 33.40625 -1.421875 27.6875 -1.421875 
Q 18.265625 -1.421875 13.375 4.4375 
Q 8.5 10.296875 8.5 21.578125 
z
M 31.109375 56 
z
" id="DejaVuSans-117"/>
    <path d="M 9.421875 75.984375 
L 18.40625 75.984375 
L 18.40625 0 
L 9.421875 0 
z
" id="DejaVuSans-108"/>
    <path id="DejaVuSans-32"/>
   </defs>
   <g transform="translate(297.047813 17.038125)scale(0.12 -0.12)">
    <use xlink:href="#DejaVuSans-114"/>
    <use x="41.082031" xlink:href="#DejaVuSans-101"/>
    <use x="102.605469" xlink:href="#DejaVuSans-115"/>
    <use x="154.705078" xlink:href="#DejaVuSans-117"/>
    <use x="218.083984" xlink:href="#DejaVuSans-108"/>
    <use x="245.867188" xlink:href="#DejaVuSans-116"/>
    <use x="285.076172" xlink:href="#DejaVuSans-32"/>
    <use x="316.863281" xlink:href="#DejaVuSans-100"/>
    <use x="380.339844" xlink:href="#DejaVuSans-114"/>
    <use x="421.421875" xlink:href="#DejaVuSans-111"/>
    <use x="482.603516" xlink:href="#DejaVuSans-112"/>
    <use x="546.080078" xlink:href="#DejaVuSans-114"/>
    <use x="587.193359" xlink:href="#DejaVuSans-97"/>
    <use x="648.472656" xlink:href="#DejaVuSans-116"/>
    <use x="687.681641" xlink:href="#DejaVuSans-101"/>
   </g>
  </g>
 </g>
 <defs>
  <clipPath id="p1255ca9cce">
   <rect height="317.111667" width="449.860625" x="66.158594" y="35.0625"/>
  </clipPath>
 </defs>
</svg>
