<?xml version="1.0" encoding="utf-8" standalone="no"?>
<!DOCTYPE svg PUBLIC "-//W3C//DTD SVG 1.1//EN"
  "http://www.w3.org/Graphics/SVG/1.1/DTD/svg11.dtd">
<!-- Created with matplotlib (https://matplotlib.org/) -->
<svg height="396pt" version="1.1" viewBox="0 0 684 396" width="684pt" xmlns="http://www.w3.org/2000/svg" xmlns:xlink="http://www.w3.org/1999/xlink">
 <defs>
  <style type="text/css">
*{stroke-linecap:butt;stroke-linejoin:round;}
  </style>
 </defs>
 <g id="figure_1">
  <g id="patch_1">
   <path d="M 0 396 
L 684 396 
L 684 0 
L 0 0 
z
" style="fill:#ffffff;"/>
  </g>
  <g id="axes_1">
   <g id="patch_2">
    <path d="M 83.472344 352.174167 
L 544.073906 352.174167 
L 544.073906 35.0625 
L 83.472344 35.0625 
z
" style="fill:#ffffff;"/>
   </g>
   <g id="matplotlib.axis_1">
    <g id="xtick_1">
     <g id="line2d_1">
      <defs>
       <path d="M 0 0 
L 0 3.5 
" id="m785abc1c03" style="stroke:#000000;stroke-width:0.8;"/>
      </defs>
      <g>
       <use style="stroke:#000000;stroke-width:0.8;" x="104.395097" xlink:href="#m785abc1c03" y="352.174167"/>
      </g>
     </g>
     <g id="text_1">
      <!-- 0 -->
      <defs>
       <path d="M 31.78125 66.40625 
Q 24.171875 66.40625 20.328125 58.90625 
Q 16.5 51.421875 16.5 36.375 
Q 16.5 21.390625 20.328125 13.890625 
Q 24.171875 6.390625 31.78125 6.390625 
Q 39.453125 6.390625 43.28125 13.890625 
Q 47.125 21.390625 47.125 36.375 
Q 47.125 51.421875 43.28125 58.90625 
Q 39.453125 66.40625 31.78125 66.40625 
z
M 31.78125 74.21875 
Q 44.046875 74.21875 50.515625 64.515625 
Q 56.984375 54.828125 56.984375 36.375 
Q 56.984375 17.96875 50.515625 8.265625 
Q 44.046875 -1.421875 31.78125 -1.421875 
Q 19.53125 -1.421875 13.0625 8.265625 
Q 6.59375 17.96875 6.59375 36.375 
Q 6.59375 54.828125 13.0625 64.515625 
Q 19.53125 74.21875 31.78125 74.21875 
z
" id="DejaVuSans-48"/>
      </defs>
      <g transform="translate(101.213847 366.772604)scale(0.1 -0.1)">
       <use xlink:href="#DejaVuSans-48"/>
      </g>
     </g>
    </g>
    <g id="xtick_2">
     <g id="line2d_2">
      <g>
       <use style="stroke:#000000;stroke-width:0.8;" x="180.404589" xlink:href="#m785abc1c03" y="352.174167"/>
      </g>
     </g>
     <g id="text_2">
      <!-- 50 -->
      <defs>
       <path d="M 10.796875 72.90625 
L 49.515625 72.90625 
L 49.515625 64.59375 
L 19.828125 64.59375 
L 19.828125 46.734375 
Q 21.96875 47.46875 24.109375 47.828125 
Q 26.265625 48.1875 28.421875 48.1875 
Q 40.625 48.1875 47.75 41.5 
Q 54.890625 34.8125 54.890625 23.390625 
Q 54.890625 11.625 47.5625 5.09375 
Q 40.234375 -1.421875 26.90625 -1.421875 
Q 22.3125 -1.421875 17.546875 -0.640625 
Q 12.796875 0.140625 7.71875 1.703125 
L 7.71875 11.625 
Q 12.109375 9.234375 16.796875 8.0625 
Q 21.484375 6.890625 26.703125 6.890625 
Q 35.15625 6.890625 40.078125 11.328125 
Q 45.015625 15.765625 45.015625 23.390625 
Q 45.015625 31 40.078125 35.4375 
Q 35.15625 39.890625 26.703125 39.890625 
Q 22.75 39.890625 18.8125 39.015625 
Q 14.890625 38.140625 10.796875 36.28125 
z
" id="DejaVuSans-53"/>
      </defs>
      <g transform="translate(174.042089 366.772604)scale(0.1 -0.1)">
       <use xlink:href="#DejaVuSans-53"/>
       <use x="63.623047" xlink:href="#DejaVuSans-48"/>
      </g>
     </g>
    </g>
    <g id="xtick_3">
     <g id="line2d_3">
      <g>
       <use style="stroke:#000000;stroke-width:0.8;" x="256.414082" xlink:href="#m785abc1c03" y="352.174167"/>
      </g>
     </g>
     <g id="text_3">
      <!-- 100 -->
      <defs>
       <path d="M 12.40625 8.296875 
L 28.515625 8.296875 
L 28.515625 63.921875 
L 10.984375 60.40625 
L 10.984375 69.390625 
L 28.421875 72.90625 
L 38.28125 72.90625 
L 38.28125 8.296875 
L 54.390625 8.296875 
L 54.390625 0 
L 12.40625 0 
z
" id="DejaVuSans-49"/>
      </defs>
      <g transform="translate(246.870332 366.772604)scale(0.1 -0.1)">
       <use xlink:href="#DejaVuSans-49"/>
       <use x="63.623047" xlink:href="#DejaVuSans-48"/>
       <use x="127.246094" xlink:href="#DejaVuSans-48"/>
      </g>
     </g>
    </g>
    <g id="xtick_4">
     <g id="line2d_4">
      <g>
       <use style="stroke:#000000;stroke-width:0.8;" x="332.423574" xlink:href="#m785abc1c03" y="352.174167"/>
      </g>
     </g>
     <g id="text_4">
      <!-- 150 -->
      <g transform="translate(322.879824 366.772604)scale(0.1 -0.1)">
       <use xlink:href="#DejaVuSans-49"/>
       <use x="63.623047" xlink:href="#DejaVuSans-53"/>
       <use x="127.246094" xlink:href="#DejaVuSans-48"/>
      </g>
     </g>
    </g>
    <g id="xtick_5">
     <g id="line2d_5">
      <g>
       <use style="stroke:#000000;stroke-width:0.8;" x="408.433067" xlink:href="#m785abc1c03" y="352.174167"/>
      </g>
     </g>
     <g id="text_5">
      <!-- 200 -->
      <defs>
       <path d="M 19.1875 8.296875 
L 53.609375 8.296875 
L 53.609375 0 
L 7.328125 0 
L 7.328125 8.296875 
Q 12.9375 14.109375 22.625 23.890625 
Q 32.328125 33.6875 34.8125 36.53125 
Q 39.546875 41.84375 41.421875 45.53125 
Q 43.3125 49.21875 43.3125 52.78125 
Q 43.3125 58.59375 39.234375 62.25 
Q 35.15625 65.921875 28.609375 65.921875 
Q 23.96875 65.921875 18.8125 64.3125 
Q 13.671875 62.703125 7.8125 59.421875 
L 7.8125 69.390625 
Q 13.765625 71.78125 18.9375 73 
Q 24.125 74.21875 28.421875 74.21875 
Q 39.75 74.21875 46.484375 68.546875 
Q 53.21875 62.890625 53.21875 53.421875 
Q 53.21875 48.921875 51.53125 44.890625 
Q 49.859375 40.875 45.40625 35.40625 
Q 44.1875 33.984375 37.640625 27.21875 
Q 31.109375 20.453125 19.1875 8.296875 
z
" id="DejaVuSans-50"/>
      </defs>
      <g transform="translate(398.889317 366.772604)scale(0.1 -0.1)">
       <use xlink:href="#DejaVuSans-50"/>
       <use x="63.623047" xlink:href="#DejaVuSans-48"/>
       <use x="127.246094" xlink:href="#DejaVuSans-48"/>
      </g>
     </g>
    </g>
    <g id="xtick_6">
     <g id="line2d_6">
      <g>
       <use style="stroke:#000000;stroke-width:0.8;" x="484.442559" xlink:href="#m785abc1c03" y="352.174167"/>
      </g>
     </g>
     <g id="text_6">
      <!-- 250 -->
      <g transform="translate(474.898809 366.772604)scale(0.1 -0.1)">
       <use xlink:href="#DejaVuSans-50"/>
       <use x="63.623047" xlink:href="#DejaVuSans-53"/>
       <use x="127.246094" xlink:href="#DejaVuSans-48"/>
      </g>
     </g>
    </g>
   </g>
   <g id="matplotlib.axis_2">
    <g id="ytick_1">
     <g id="line2d_7">
      <defs>
       <path d="M 0 0 
L -3.5 0 
" id="mc70394aa55" style="stroke:#000000;stroke-width:0.8;"/>
      </defs>
      <g>
       <use style="stroke:#000000;stroke-width:0.8;" x="83.472344" xlink:href="#mc70394aa55" y="352.174167"/>
      </g>
     </g>
     <g id="text_7">
      <!-- 0 -->
      <g transform="translate(70.109844 355.973385)scale(0.1 -0.1)">
       <use xlink:href="#DejaVuSans-48"/>
      </g>
     </g>
    </g>
    <g id="ytick_2">
     <g id="line2d_8">
      <g>
       <use style="stroke:#000000;stroke-width:0.8;" x="83.472344" xlink:href="#mc70394aa55" y="313.689741"/>
      </g>
     </g>
     <g id="text_8">
      <!-- 10 -->
      <g transform="translate(63.747344 317.48896)scale(0.1 -0.1)">
       <use xlink:href="#DejaVuSans-49"/>
       <use x="63.623047" xlink:href="#DejaVuSans-48"/>
      </g>
     </g>
    </g>
    <g id="ytick_3">
     <g id="line2d_9">
      <g>
       <use style="stroke:#000000;stroke-width:0.8;" x="83.472344" xlink:href="#mc70394aa55" y="275.205316"/>
      </g>
     </g>
     <g id="text_9">
      <!-- 20 -->
      <g transform="translate(63.747344 279.004534)scale(0.1 -0.1)">
       <use xlink:href="#DejaVuSans-50"/>
       <use x="63.623047" xlink:href="#DejaVuSans-48"/>
      </g>
     </g>
    </g>
    <g id="ytick_4">
     <g id="line2d_10">
      <g>
       <use style="stroke:#000000;stroke-width:0.8;" x="83.472344" xlink:href="#mc70394aa55" y="236.72089"/>
      </g>
     </g>
     <g id="text_10">
      <!-- 30 -->
      <defs>
       <path d="M 40.578125 39.3125 
Q 47.65625 37.796875 51.625 33 
Q 55.609375 28.21875 55.609375 21.1875 
Q 55.609375 10.40625 48.1875 4.484375 
Q 40.765625 -1.421875 27.09375 -1.421875 
Q 22.515625 -1.421875 17.65625 -0.515625 
Q 12.796875 0.390625 7.625 2.203125 
L 7.625 11.71875 
Q 11.71875 9.328125 16.59375 8.109375 
Q 21.484375 6.890625 26.8125 6.890625 
Q 36.078125 6.890625 40.9375 10.546875 
Q 45.796875 14.203125 45.796875 21.1875 
Q 45.796875 27.640625 41.28125 31.265625 
Q 36.765625 34.90625 28.71875 34.90625 
L 20.21875 34.90625 
L 20.21875 43.015625 
L 29.109375 43.015625 
Q 36.375 43.015625 40.234375 45.921875 
Q 44.09375 48.828125 44.09375 54.296875 
Q 44.09375 59.90625 40.109375 62.90625 
Q 36.140625 65.921875 28.71875 65.921875 
Q 24.65625 65.921875 20.015625 65.03125 
Q 15.375 64.15625 9.8125 62.3125 
L 9.8125 71.09375 
Q 15.4375 72.65625 20.34375 73.4375 
Q 25.25 74.21875 29.59375 74.21875 
Q 40.828125 74.21875 47.359375 69.109375 
Q 53.90625 64.015625 53.90625 55.328125 
Q 53.90625 49.265625 50.4375 45.09375 
Q 46.96875 40.921875 40.578125 39.3125 
z
" id="DejaVuSans-51"/>
      </defs>
      <g transform="translate(63.747344 240.520109)scale(0.1 -0.1)">
       <use xlink:href="#DejaVuSans-51"/>
       <use x="63.623047" xlink:href="#DejaVuSans-48"/>
      </g>
     </g>
    </g>
    <g id="ytick_5">
     <g id="line2d_11">
      <g>
       <use style="stroke:#000000;stroke-width:0.8;" x="83.472344" xlink:href="#mc70394aa55" y="198.236464"/>
      </g>
     </g>
     <g id="text_11">
      <!-- 40 -->
      <defs>
       <path d="M 37.796875 64.3125 
L 12.890625 25.390625 
L 37.796875 25.390625 
z
M 35.203125 72.90625 
L 47.609375 72.90625 
L 47.609375 25.390625 
L 58.015625 25.390625 
L 58.015625 17.1875 
L 47.609375 17.1875 
L 47.609375 0 
L 37.796875 0 
L 37.796875 17.1875 
L 4.890625 17.1875 
L 4.890625 26.703125 
z
" id="DejaVuSans-52"/>
      </defs>
      <g transform="translate(63.747344 202.035683)scale(0.1 -0.1)">
       <use xlink:href="#DejaVuSans-52"/>
       <use x="63.623047" xlink:href="#DejaVuSans-48"/>
      </g>
     </g>
    </g>
    <g id="ytick_6">
     <g id="line2d_12">
      <g>
       <use style="stroke:#000000;stroke-width:0.8;" x="83.472344" xlink:href="#mc70394aa55" y="159.752039"/>
      </g>
     </g>
     <g id="text_12">
      <!-- 50 -->
      <g transform="translate(63.747344 163.551258)scale(0.1 -0.1)">
       <use xlink:href="#DejaVuSans-53"/>
       <use x="63.623047" xlink:href="#DejaVuSans-48"/>
      </g>
     </g>
    </g>
    <g id="ytick_7">
     <g id="line2d_13">
      <g>
       <use style="stroke:#000000;stroke-width:0.8;" x="83.472344" xlink:href="#mc70394aa55" y="121.267613"/>
      </g>
     </g>
     <g id="text_13">
      <!-- 60 -->
      <defs>
       <path d="M 33.015625 40.375 
Q 26.375 40.375 22.484375 35.828125 
Q 18.609375 31.296875 18.609375 23.390625 
Q 18.609375 15.53125 22.484375 10.953125 
Q 26.375 6.390625 33.015625 6.390625 
Q 39.65625 6.390625 43.53125 10.953125 
Q 47.40625 15.53125 47.40625 23.390625 
Q 47.40625 31.296875 43.53125 35.828125 
Q 39.65625 40.375 33.015625 40.375 
z
M 52.59375 71.296875 
L 52.59375 62.3125 
Q 48.875 64.0625 45.09375 64.984375 
Q 41.3125 65.921875 37.59375 65.921875 
Q 27.828125 65.921875 22.671875 59.328125 
Q 17.53125 52.734375 16.796875 39.40625 
Q 19.671875 43.65625 24.015625 45.921875 
Q 28.375 48.1875 33.59375 48.1875 
Q 44.578125 48.1875 50.953125 41.515625 
Q 57.328125 34.859375 57.328125 23.390625 
Q 57.328125 12.15625 50.6875 5.359375 
Q 44.046875 -1.421875 33.015625 -1.421875 
Q 20.359375 -1.421875 13.671875 8.265625 
Q 6.984375 17.96875 6.984375 36.375 
Q 6.984375 53.65625 15.1875 63.9375 
Q 23.390625 74.21875 37.203125 74.21875 
Q 40.921875 74.21875 44.703125 73.484375 
Q 48.484375 72.75 52.59375 71.296875 
z
" id="DejaVuSans-54"/>
      </defs>
      <g transform="translate(63.747344 125.066832)scale(0.1 -0.1)">
       <use xlink:href="#DejaVuSans-54"/>
       <use x="63.623047" xlink:href="#DejaVuSans-48"/>
      </g>
     </g>
    </g>
    <g id="ytick_8">
     <g id="line2d_14">
      <g>
       <use style="stroke:#000000;stroke-width:0.8;" x="83.472344" xlink:href="#mc70394aa55" y="82.783188"/>
      </g>
     </g>
     <g id="text_14">
      <!-- 70 -->
      <defs>
       <path d="M 8.203125 72.90625 
L 55.078125 72.90625 
L 55.078125 68.703125 
L 28.609375 0 
L 18.3125 0 
L 43.21875 64.59375 
L 8.203125 64.59375 
z
" id="DejaVuSans-55"/>
      </defs>
      <g transform="translate(63.747344 86.582406)scale(0.1 -0.1)">
       <use xlink:href="#DejaVuSans-55"/>
       <use x="63.623047" xlink:href="#DejaVuSans-48"/>
      </g>
     </g>
    </g>
    <g id="ytick_9">
     <g id="line2d_15">
      <g>
       <use style="stroke:#000000;stroke-width:0.8;" x="83.472344" xlink:href="#mc70394aa55" y="44.298762"/>
      </g>
     </g>
     <g id="text_15">
      <!-- 80 -->
      <defs>
       <path d="M 31.78125 34.625 
Q 24.75 34.625 20.71875 30.859375 
Q 16.703125 27.09375 16.703125 20.515625 
Q 16.703125 13.921875 20.71875 10.15625 
Q 24.75 6.390625 31.78125 6.390625 
Q 38.8125 6.390625 42.859375 10.171875 
Q 46.921875 13.96875 46.921875 20.515625 
Q 46.921875 27.09375 42.890625 30.859375 
Q 38.875 34.625 31.78125 34.625 
z
M 21.921875 38.8125 
Q 15.578125 40.375 12.03125 44.71875 
Q 8.5 49.078125 8.5 55.328125 
Q 8.5 64.0625 14.71875 69.140625 
Q 20.953125 74.21875 31.78125 74.21875 
Q 42.671875 74.21875 48.875 69.140625 
Q 55.078125 64.0625 55.078125 55.328125 
Q 55.078125 49.078125 51.53125 44.71875 
Q 48 40.375 41.703125 38.8125 
Q 48.828125 37.15625 52.796875 32.3125 
Q 56.78125 27.484375 56.78125 20.515625 
Q 56.78125 9.90625 50.3125 4.234375 
Q 43.84375 -1.421875 31.78125 -1.421875 
Q 19.734375 -1.421875 13.25 4.234375 
Q 6.78125 9.90625 6.78125 20.515625 
Q 6.78125 27.484375 10.78125 32.3125 
Q 14.796875 37.15625 21.921875 38.8125 
z
M 18.3125 54.390625 
Q 18.3125 48.734375 21.84375 45.5625 
Q 25.390625 42.390625 31.78125 42.390625 
Q 38.140625 42.390625 41.71875 45.5625 
Q 45.3125 48.734375 45.3125 54.390625 
Q 45.3125 60.0625 41.71875 63.234375 
Q 38.140625 66.40625 31.78125 66.40625 
Q 25.390625 66.40625 21.84375 63.234375 
Q 18.3125 60.0625 18.3125 54.390625 
z
" id="DejaVuSans-56"/>
      </defs>
      <g transform="translate(63.747344 48.097981)scale(0.1 -0.1)">
       <use xlink:href="#DejaVuSans-56"/>
       <use x="63.623047" xlink:href="#DejaVuSans-48"/>
      </g>
     </g>
    </g>
    <g id="text_16">
     <!-- throughput -->
     <defs>
      <path d="M 18.3125 70.21875 
L 18.3125 54.6875 
L 36.8125 54.6875 
L 36.8125 47.703125 
L 18.3125 47.703125 
L 18.3125 18.015625 
Q 18.3125 11.328125 20.140625 9.421875 
Q 21.96875 7.515625 27.59375 7.515625 
L 36.8125 7.515625 
L 36.8125 0 
L 27.59375 0 
Q 17.1875 0 13.234375 3.875 
Q 9.28125 7.765625 9.28125 18.015625 
L 9.28125 47.703125 
L 2.6875 47.703125 
L 2.6875 54.6875 
L 9.28125 54.6875 
L 9.28125 70.21875 
z
" id="DejaVuSans-116"/>
      <path d="M 54.890625 33.015625 
L 54.890625 0 
L 45.90625 0 
L 45.90625 32.71875 
Q 45.90625 40.484375 42.875 44.328125 
Q 39.84375 48.1875 33.796875 48.1875 
Q 26.515625 48.1875 22.3125 43.546875 
Q 18.109375 38.921875 18.109375 30.90625 
L 18.109375 0 
L 9.078125 0 
L 9.078125 75.984375 
L 18.109375 75.984375 
L 18.109375 46.1875 
Q 21.34375 51.125 25.703125 53.5625 
Q 30.078125 56 35.796875 56 
Q 45.21875 56 50.046875 50.171875 
Q 54.890625 44.34375 54.890625 33.015625 
z
" id="DejaVuSans-104"/>
      <path d="M 41.109375 46.296875 
Q 39.59375 47.171875 37.8125 47.578125 
Q 36.03125 48 33.890625 48 
Q 26.265625 48 22.1875 43.046875 
Q 18.109375 38.09375 18.109375 28.8125 
L 18.109375 0 
L 9.078125 0 
L 9.078125 54.6875 
L 18.109375 54.6875 
L 18.109375 46.1875 
Q 20.953125 51.171875 25.484375 53.578125 
Q 30.03125 56 36.53125 56 
Q 37.453125 56 38.578125 55.875 
Q 39.703125 55.765625 41.0625 55.515625 
z
" id="DejaVuSans-114"/>
      <path d="M 30.609375 48.390625 
Q 23.390625 48.390625 19.1875 42.75 
Q 14.984375 37.109375 14.984375 27.296875 
Q 14.984375 17.484375 19.15625 11.84375 
Q 23.34375 6.203125 30.609375 6.203125 
Q 37.796875 6.203125 41.984375 11.859375 
Q 46.1875 17.53125 46.1875 27.296875 
Q 46.1875 37.015625 41.984375 42.703125 
Q 37.796875 48.390625 30.609375 48.390625 
z
M 30.609375 56 
Q 42.328125 56 49.015625 48.375 
Q 55.71875 40.765625 55.71875 27.296875 
Q 55.71875 13.875 49.015625 6.21875 
Q 42.328125 -1.421875 30.609375 -1.421875 
Q 18.84375 -1.421875 12.171875 6.21875 
Q 5.515625 13.875 5.515625 27.296875 
Q 5.515625 40.765625 12.171875 48.375 
Q 18.84375 56 30.609375 56 
z
" id="DejaVuSans-111"/>
      <path d="M 8.5 21.578125 
L 8.5 54.6875 
L 17.484375 54.6875 
L 17.484375 21.921875 
Q 17.484375 14.15625 20.5 10.265625 
Q 23.53125 6.390625 29.59375 6.390625 
Q 36.859375 6.390625 41.078125 11.03125 
Q 45.3125 15.671875 45.3125 23.6875 
L 45.3125 54.6875 
L 54.296875 54.6875 
L 54.296875 0 
L 45.3125 0 
L 45.3125 8.40625 
Q 42.046875 3.421875 37.71875 1 
Q 33.40625 -1.421875 27.6875 -1.421875 
Q 18.265625 -1.421875 13.375 4.4375 
Q 8.5 10.296875 8.5 21.578125 
z
M 31.109375 56 
z
" id="DejaVuSans-117"/>
      <path d="M 45.40625 27.984375 
Q 45.40625 37.75 41.375 43.109375 
Q 37.359375 48.484375 30.078125 48.484375 
Q 22.859375 48.484375 18.828125 43.109375 
Q 14.796875 37.75 14.796875 27.984375 
Q 14.796875 18.265625 18.828125 12.890625 
Q 22.859375 7.515625 30.078125 7.515625 
Q 37.359375 7.515625 41.375 12.890625 
Q 45.40625 18.265625 45.40625 27.984375 
z
M 54.390625 6.78125 
Q 54.390625 -7.171875 48.1875 -13.984375 
Q 42 -20.796875 29.203125 -20.796875 
Q 24.46875 -20.796875 20.265625 -20.09375 
Q 16.0625 -19.390625 12.109375 -17.921875 
L 12.109375 -9.1875 
Q 16.0625 -11.328125 19.921875 -12.34375 
Q 23.78125 -13.375 27.78125 -13.375 
Q 36.625 -13.375 41.015625 -8.765625 
Q 45.40625 -4.15625 45.40625 5.171875 
L 45.40625 9.625 
Q 42.625 4.78125 38.28125 2.390625 
Q 33.9375 0 27.875 0 
Q 17.828125 0 11.671875 7.65625 
Q 5.515625 15.328125 5.515625 27.984375 
Q 5.515625 40.671875 11.671875 48.328125 
Q 17.828125 56 27.875 56 
Q 33.9375 56 38.28125 53.609375 
Q 42.625 51.21875 45.40625 46.390625 
L 45.40625 54.6875 
L 54.390625 54.6875 
z
" id="DejaVuSans-103"/>
      <path d="M 18.109375 8.203125 
L 18.109375 -20.796875 
L 9.078125 -20.796875 
L 9.078125 54.6875 
L 18.109375 54.6875 
L 18.109375 46.390625 
Q 20.953125 51.265625 25.265625 53.625 
Q 29.59375 56 35.59375 56 
Q 45.5625 56 51.78125 48.09375 
Q 58.015625 40.1875 58.015625 27.296875 
Q 58.015625 14.40625 51.78125 6.484375 
Q 45.5625 -1.421875 35.59375 -1.421875 
Q 29.59375 -1.421875 25.265625 0.953125 
Q 20.953125 3.328125 18.109375 8.203125 
z
M 48.6875 27.296875 
Q 48.6875 37.203125 44.609375 42.84375 
Q 40.53125 48.484375 33.40625 48.484375 
Q 26.265625 48.484375 22.1875 42.84375 
Q 18.109375 37.203125 18.109375 27.296875 
Q 18.109375 17.390625 22.1875 11.75 
Q 26.265625 6.109375 33.40625 6.109375 
Q 40.53125 6.109375 44.609375 11.75 
Q 48.6875 17.390625 48.6875 27.296875 
z
" id="DejaVuSans-112"/>
     </defs>
     <g transform="translate(46.469844 221.675365)rotate(-90)scale(0.1 -0.1)">
      <use xlink:href="#DejaVuSans-116"/>
      <use x="39.208984" xlink:href="#DejaVuSans-104"/>
      <use x="102.587891" xlink:href="#DejaVuSans-114"/>
      <use x="143.669922" xlink:href="#DejaVuSans-111"/>
      <use x="204.851562" xlink:href="#DejaVuSans-117"/>
      <use x="268.230469" xlink:href="#DejaVuSans-103"/>
      <use x="331.707031" xlink:href="#DejaVuSans-104"/>
      <use x="395.085938" xlink:href="#DejaVuSans-112"/>
      <use x="458.5625" xlink:href="#DejaVuSans-117"/>
      <use x="521.941406" xlink:href="#DejaVuSans-116"/>
     </g>
     <!-- (mbit / second) -->
     <defs>
      <path d="M 31 75.875 
Q 24.46875 64.65625 21.28125 53.65625 
Q 18.109375 42.671875 18.109375 31.390625 
Q 18.109375 20.125 21.3125 9.0625 
Q 24.515625 -2 31 -13.1875 
L 23.1875 -13.1875 
Q 15.875 -1.703125 12.234375 9.375 
Q 8.59375 20.453125 8.59375 31.390625 
Q 8.59375 42.28125 12.203125 53.3125 
Q 15.828125 64.359375 23.1875 75.875 
z
" id="DejaVuSans-40"/>
      <path d="M 52 44.1875 
Q 55.375 50.25 60.0625 53.125 
Q 64.75 56 71.09375 56 
Q 79.640625 56 84.28125 50.015625 
Q 88.921875 44.046875 88.921875 33.015625 
L 88.921875 0 
L 79.890625 0 
L 79.890625 32.71875 
Q 79.890625 40.578125 77.09375 44.375 
Q 74.3125 48.1875 68.609375 48.1875 
Q 61.625 48.1875 57.5625 43.546875 
Q 53.515625 38.921875 53.515625 30.90625 
L 53.515625 0 
L 44.484375 0 
L 44.484375 32.71875 
Q 44.484375 40.625 41.703125 44.40625 
Q 38.921875 48.1875 33.109375 48.1875 
Q 26.21875 48.1875 22.15625 43.53125 
Q 18.109375 38.875 18.109375 30.90625 
L 18.109375 0 
L 9.078125 0 
L 9.078125 54.6875 
L 18.109375 54.6875 
L 18.109375 46.1875 
Q 21.1875 51.21875 25.484375 53.609375 
Q 29.78125 56 35.6875 56 
Q 41.65625 56 45.828125 52.96875 
Q 50 49.953125 52 44.1875 
z
" id="DejaVuSans-109"/>
      <path d="M 48.6875 27.296875 
Q 48.6875 37.203125 44.609375 42.84375 
Q 40.53125 48.484375 33.40625 48.484375 
Q 26.265625 48.484375 22.1875 42.84375 
Q 18.109375 37.203125 18.109375 27.296875 
Q 18.109375 17.390625 22.1875 11.75 
Q 26.265625 6.109375 33.40625 6.109375 
Q 40.53125 6.109375 44.609375 11.75 
Q 48.6875 17.390625 48.6875 27.296875 
z
M 18.109375 46.390625 
Q 20.953125 51.265625 25.265625 53.625 
Q 29.59375 56 35.59375 56 
Q 45.5625 56 51.78125 48.09375 
Q 58.015625 40.1875 58.015625 27.296875 
Q 58.015625 14.40625 51.78125 6.484375 
Q 45.5625 -1.421875 35.59375 -1.421875 
Q 29.59375 -1.421875 25.265625 0.953125 
Q 20.953125 3.328125 18.109375 8.203125 
L 18.109375 0 
L 9.078125 0 
L 9.078125 75.984375 
L 18.109375 75.984375 
z
" id="DejaVuSans-98"/>
      <path d="M 9.421875 54.6875 
L 18.40625 54.6875 
L 18.40625 0 
L 9.421875 0 
z
M 9.421875 75.984375 
L 18.40625 75.984375 
L 18.40625 64.59375 
L 9.421875 64.59375 
z
" id="DejaVuSans-105"/>
      <path id="DejaVuSans-32"/>
      <path d="M 25.390625 72.90625 
L 33.6875 72.90625 
L 8.296875 -9.28125 
L 0 -9.28125 
z
" id="DejaVuSans-47"/>
      <path d="M 44.28125 53.078125 
L 44.28125 44.578125 
Q 40.484375 46.53125 36.375 47.5 
Q 32.28125 48.484375 27.875 48.484375 
Q 21.1875 48.484375 17.84375 46.4375 
Q 14.5 44.390625 14.5 40.28125 
Q 14.5 37.15625 16.890625 35.375 
Q 19.28125 33.59375 26.515625 31.984375 
L 29.59375 31.296875 
Q 39.15625 29.25 43.1875 25.515625 
Q 47.21875 21.78125 47.21875 15.09375 
Q 47.21875 7.46875 41.1875 3.015625 
Q 35.15625 -1.421875 24.609375 -1.421875 
Q 20.21875 -1.421875 15.453125 -0.5625 
Q 10.6875 0.296875 5.421875 2 
L 5.421875 11.28125 
Q 10.40625 8.6875 15.234375 7.390625 
Q 20.0625 6.109375 24.8125 6.109375 
Q 31.15625 6.109375 34.5625 8.28125 
Q 37.984375 10.453125 37.984375 14.40625 
Q 37.984375 18.0625 35.515625 20.015625 
Q 33.0625 21.96875 24.703125 23.78125 
L 21.578125 24.515625 
Q 13.234375 26.265625 9.515625 29.90625 
Q 5.8125 33.546875 5.8125 39.890625 
Q 5.8125 47.609375 11.28125 51.796875 
Q 16.75 56 26.8125 56 
Q 31.78125 56 36.171875 55.265625 
Q 40.578125 54.546875 44.28125 53.078125 
z
" id="DejaVuSans-115"/>
      <path d="M 56.203125 29.59375 
L 56.203125 25.203125 
L 14.890625 25.203125 
Q 15.484375 15.921875 20.484375 11.0625 
Q 25.484375 6.203125 34.421875 6.203125 
Q 39.59375 6.203125 44.453125 7.46875 
Q 49.3125 8.734375 54.109375 11.28125 
L 54.109375 2.78125 
Q 49.265625 0.734375 44.1875 -0.34375 
Q 39.109375 -1.421875 33.890625 -1.421875 
Q 20.796875 -1.421875 13.15625 6.1875 
Q 5.515625 13.8125 5.515625 26.8125 
Q 5.515625 40.234375 12.765625 48.109375 
Q 20.015625 56 32.328125 56 
Q 43.359375 56 49.78125 48.890625 
Q 56.203125 41.796875 56.203125 29.59375 
z
M 47.21875 32.234375 
Q 47.125 39.59375 43.09375 43.984375 
Q 39.0625 48.390625 32.421875 48.390625 
Q 24.90625 48.390625 20.390625 44.140625 
Q 15.875 39.890625 15.1875 32.171875 
z
" id="DejaVuSans-101"/>
      <path d="M 48.78125 52.59375 
L 48.78125 44.1875 
Q 44.96875 46.296875 41.140625 47.34375 
Q 37.3125 48.390625 33.40625 48.390625 
Q 24.65625 48.390625 19.8125 42.84375 
Q 14.984375 37.3125 14.984375 27.296875 
Q 14.984375 17.28125 19.8125 11.734375 
Q 24.65625 6.203125 33.40625 6.203125 
Q 37.3125 6.203125 41.140625 7.25 
Q 44.96875 8.296875 48.78125 10.40625 
L 48.78125 2.09375 
Q 45.015625 0.34375 40.984375 -0.53125 
Q 36.96875 -1.421875 32.421875 -1.421875 
Q 20.0625 -1.421875 12.78125 6.34375 
Q 5.515625 14.109375 5.515625 27.296875 
Q 5.515625 40.671875 12.859375 48.328125 
Q 20.21875 56 33.015625 56 
Q 37.15625 56 41.109375 55.140625 
Q 45.0625 54.296875 48.78125 52.59375 
z
" id="DejaVuSans-99"/>
      <path d="M 54.890625 33.015625 
L 54.890625 0 
L 45.90625 0 
L 45.90625 32.71875 
Q 45.90625 40.484375 42.875 44.328125 
Q 39.84375 48.1875 33.796875 48.1875 
Q 26.515625 48.1875 22.3125 43.546875 
Q 18.109375 38.921875 18.109375 30.90625 
L 18.109375 0 
L 9.078125 0 
L 9.078125 54.6875 
L 18.109375 54.6875 
L 18.109375 46.1875 
Q 21.34375 51.125 25.703125 53.5625 
Q 30.078125 56 35.796875 56 
Q 45.21875 56 50.046875 50.171875 
Q 54.890625 44.34375 54.890625 33.015625 
z
" id="DejaVuSans-110"/>
      <path d="M 45.40625 46.390625 
L 45.40625 75.984375 
L 54.390625 75.984375 
L 54.390625 0 
L 45.40625 0 
L 45.40625 8.203125 
Q 42.578125 3.328125 38.25 0.953125 
Q 33.9375 -1.421875 27.875 -1.421875 
Q 17.96875 -1.421875 11.734375 6.484375 
Q 5.515625 14.40625 5.515625 27.296875 
Q 5.515625 40.1875 11.734375 48.09375 
Q 17.96875 56 27.875 56 
Q 33.9375 56 38.25 53.625 
Q 42.578125 51.265625 45.40625 46.390625 
z
M 14.796875 27.296875 
Q 14.796875 17.390625 18.875 11.75 
Q 22.953125 6.109375 30.078125 6.109375 
Q 37.203125 6.109375 41.296875 11.75 
Q 45.40625 17.390625 45.40625 27.296875 
Q 45.40625 37.203125 41.296875 42.84375 
Q 37.203125 48.484375 30.078125 48.484375 
Q 22.953125 48.484375 18.875 42.84375 
Q 14.796875 37.203125 14.796875 27.296875 
z
" id="DejaVuSans-100"/>
      <path d="M 8.015625 75.875 
L 15.828125 75.875 
Q 23.140625 64.359375 26.78125 53.3125 
Q 30.421875 42.28125 30.421875 31.390625 
Q 30.421875 20.453125 26.78125 9.375 
Q 23.140625 -1.703125 15.828125 -13.1875 
L 8.015625 -13.1875 
Q 14.5 -2 17.703125 9.0625 
Q 20.90625 20.125 20.90625 31.390625 
Q 20.90625 42.671875 17.703125 53.65625 
Q 14.5 64.65625 8.015625 75.875 
z
" id="DejaVuSans-41"/>
     </defs>
     <g transform="translate(57.667656 231.608958)rotate(-90)scale(0.1 -0.1)">
      <use xlink:href="#DejaVuSans-40"/>
      <use x="39.013672" xlink:href="#DejaVuSans-109"/>
      <use x="136.425781" xlink:href="#DejaVuSans-98"/>
      <use x="199.902344" xlink:href="#DejaVuSans-105"/>
      <use x="227.685547" xlink:href="#DejaVuSans-116"/>
      <use x="266.894531" xlink:href="#DejaVuSans-32"/>
      <use x="298.681641" xlink:href="#DejaVuSans-47"/>
      <use x="332.373047" xlink:href="#DejaVuSans-32"/>
      <use x="364.160156" xlink:href="#DejaVuSans-115"/>
      <use x="416.259766" xlink:href="#DejaVuSans-101"/>
      <use x="477.783203" xlink:href="#DejaVuSans-99"/>
      <use x="532.763672" xlink:href="#DejaVuSans-111"/>
      <use x="593.945312" xlink:href="#DejaVuSans-110"/>
      <use x="657.324219" xlink:href="#DejaVuSans-100"/>
      <use x="720.800781" xlink:href="#DejaVuSans-41"/>
     </g>
    </g>
   </g>
   <g id="line2d_16">
    <path clip-path="url(#pd9e5650bfd)" d="M 104.408778 125.116056 
L 105.168873 48.147205 
L 112.769823 48.147205 
L 113.529918 125.116056 
L 114.290012 152.055154 
L 115.050107 163.600481 
L 115.810202 171.297367 
L 118.090487 182.842694 
L 118.850582 190.539579 
L 119.610677 209.781792 
L 120.370772 294.447528 
L 121.130867 271.356873 
L 121.890962 267.50843 
L 122.651057 267.50843 
L 123.411152 263.659988 
L 124.171246 267.50843 
L 124.931341 263.659988 
L 125.691436 267.50843 
L 129.491911 267.50843 
L 130.252006 271.356873 
L 134.812575 271.356873 
L 135.57267 309.841299 
L 136.332765 271.356873 
L 137.09286 267.50843 
L 137.852955 267.50843 
L 138.61305 259.811545 
L 139.373145 259.811545 
L 140.13324 255.963103 
L 141.65343 255.963103 
L 142.413525 259.811545 
L 143.17362 255.963103 
L 143.933715 255.963103 
L 144.693809 252.11466 
L 145.453904 252.11466 
L 146.213999 248.266218 
L 146.974094 248.266218 
L 147.734189 244.417775 
L 148.494284 244.417775 
L 149.254379 240.569333 
L 150.774569 240.569333 
L 151.534664 286.750643 
L 152.294759 232.872447 
L 156.095233 232.872447 
L 156.855328 229.024005 
L 158.375518 229.024005 
L 159.135613 232.872447 
L 159.895708 229.024005 
L 160.655803 232.872447 
L 161.415898 229.024005 
L 162.175993 232.872447 
L 164.456277 232.872447 
L 165.216372 236.72089 
L 165.976467 236.72089 
L 166.736562 290.599086 
L 167.496657 232.872447 
L 168.256752 229.024005 
L 170.537037 229.024005 
L 171.297132 225.175562 
L 174.337512 225.175562 
L 175.097606 229.024005 
L 176.617796 229.024005 
L 177.377891 232.872447 
L 180.418271 232.872447 
L 181.178366 229.024005 
L 181.938461 229.024005 
L 182.698556 286.750643 
L 183.458651 229.024005 
L 186.49903 229.024005 
L 187.259125 225.175562 
L 188.01922 225.175562 
L 188.779315 221.32712 
L 189.53941 225.175562 
L 190.299505 225.175562 
L 191.0596 221.32712 
L 191.819695 221.32712 
L 192.57979 225.175562 
L 193.339885 221.32712 
L 194.09998 225.175562 
L 195.620169 217.478677 
L 197.140359 217.478677 
L 197.900454 259.811545 
L 199.420644 209.781792 
L 200.180739 209.781792 
L 200.940834 205.93335 
L 201.700929 209.781792 
L 202.461024 205.93335 
L 203.221119 209.781792 
L 203.981214 205.93335 
L 204.741308 205.93335 
L 205.501403 202.084907 
L 207.781688 202.084907 
L 208.541783 198.236464 
L 213.102353 198.236464 
L 213.862448 271.356873 
L 214.622543 194.388022 
L 215.382637 198.236464 
L 216.142732 194.388022 
L 216.902827 198.236464 
L 217.662922 194.388022 
L 218.423017 198.236464 
L 219.183112 194.388022 
L 219.943207 198.236464 
L 222.223492 198.236464 
L 222.983587 202.084907 
L 223.743682 202.084907 
L 224.503777 205.93335 
L 225.263871 202.084907 
L 226.023966 205.93335 
L 226.784061 202.084907 
L 227.544156 205.93335 
L 228.304251 202.084907 
L 229.064346 236.72089 
L 229.824441 244.417775 
L 230.584536 205.93335 
L 238.94558 205.93335 
L 239.705675 209.781792 
L 244.266245 209.781792 
L 245.02634 279.053758 
L 245.786434 209.781792 
L 246.546529 213.630235 
L 247.306624 209.781792 
L 250.347004 209.781792 
L 251.107099 205.93335 
L 251.867194 205.93335 
L 252.627289 202.084907 
L 254.907574 202.084907 
L 255.667668 205.93335 
L 256.427763 202.084907 
L 259.468143 202.084907 
L 260.228238 217.478677 
L 260.988333 259.811545 
L 261.748428 198.236464 
L 264.028713 198.236464 
L 264.788808 194.388022 
L 265.548902 194.388022 
L 266.308997 198.236464 
L 270.869567 198.236464 
L 271.629662 202.084907 
L 272.389757 198.236464 
L 275.430137 198.236464 
L 276.190231 271.356873 
L 276.950326 194.388022 
L 277.710421 198.236464 
L 278.470516 198.236464 
L 279.230611 194.388022 
L 279.990706 198.236464 
L 280.750801 198.236464 
L 281.510896 194.388022 
L 283.031086 194.388022 
L 283.791181 190.539579 
L 287.591655 190.539579 
L 288.35175 186.691137 
L 289.111845 186.691137 
L 289.87194 182.842694 
L 291.39213 182.842694 
L 292.152225 267.50843 
L 292.91232 182.842694 
L 293.672415 182.842694 
L 294.43251 186.691137 
L 300.513269 186.691137 
L 301.273364 190.539579 
L 303.553649 190.539579 
L 304.313744 194.388022 
L 305.073839 190.539579 
L 305.833934 194.388022 
L 306.594028 194.388022 
L 307.354123 259.811545 
L 308.114218 209.781792 
L 308.874313 194.388022 
L 312.674788 194.388022 
L 313.434883 198.236464 
L 314.194978 198.236464 
L 314.955073 202.084907 
L 319.515642 202.084907 
L 320.275737 198.236464 
L 321.795927 198.236464 
L 322.556022 202.084907 
L 323.316117 267.50843 
L 324.076212 194.388022 
L 324.836307 194.388022 
L 325.596402 198.236464 
L 326.356496 194.388022 
L 327.116591 198.236464 
L 330.917066 198.236464 
L 331.677161 202.084907 
L 332.437256 202.084907 
L 333.197351 205.93335 
L 336.997825 205.93335 
L 337.75792 209.781792 
L 338.518015 248.266218 
L 339.27811 229.024005 
L 340.038205 202.084907 
L 340.7983 205.93335 
L 341.558395 202.084907 
L 342.31849 205.93335 
L 343.078585 202.084907 
L 343.83868 205.93335 
L 344.598775 202.084907 
L 345.35887 205.93335 
L 346.118965 202.084907 
L 346.879059 202.084907 
L 347.639154 198.236464 
L 348.399249 202.084907 
L 353.719914 202.084907 
L 354.480009 271.356873 
L 355.240104 202.084907 
L 362.080958 202.084907 
L 362.841053 205.93335 
L 363.601148 202.084907 
L 364.361243 205.93335 
L 365.121338 202.084907 
L 365.881433 205.93335 
L 366.641528 202.084907 
L 368.921812 202.084907 
L 369.681907 232.872447 
L 370.442002 252.11466 
L 371.202097 213.630235 
L 373.482382 213.630235 
L 374.242477 217.478677 
L 378.803046 217.478677 
L 379.563141 213.630235 
L 380.323236 217.478677 
L 381.083331 213.630235 
L 381.843426 217.478677 
L 383.363616 217.478677 
L 384.123711 213.630235 
L 384.883806 213.630235 
L 385.643901 275.205316 
L 386.403996 205.93335 
L 388.68428 205.93335 
L 389.444375 202.084907 
L 391.72466 202.084907 
L 392.484755 198.236464 
L 400.085704 198.236464 
L 400.845799 209.781792 
L 401.605894 255.963103 
L 402.365989 198.236464 
L 403.126084 202.084907 
L 403.886179 198.236464 
L 405.406369 198.236464 
L 406.166464 194.388022 
L 410.727033 194.388022 
L 411.487128 198.236464 
L 413.767413 198.236464 
L 414.527508 202.084907 
L 415.287603 198.236464 
L 416.047698 202.084907 
L 416.807793 275.205316 
L 417.567887 202.084907 
L 418.327982 198.236464 
L 419.088077 202.084907 
L 422.888552 202.084907 
L 423.648647 205.93335 
L 432.009691 205.93335 
L 432.769786 275.205316 
L 433.529881 205.93335 
L 441.13083 205.93335 
L 441.890925 202.084907 
L 444.17121 202.084907 
L 444.931305 205.93335 
L 447.21159 205.93335 
L 447.971684 263.659988 
L 448.731779 217.478677 
L 449.491874 205.93335 
L 460.133203 205.93335 
L 460.893298 209.781792 
L 461.653393 205.93335 
L 462.413488 209.781792 
L 463.173583 205.93335 
L 463.933678 279.053758 
L 464.693773 205.93335 
L 465.453868 209.781792 
L 466.213963 205.93335 
L 466.974058 205.93335 
L 467.734153 202.084907 
L 468.494247 205.93335 
L 469.254342 202.084907 
L 470.014437 205.93335 
L 470.774532 202.084907 
L 471.534627 205.93335 
L 473.054817 205.93335 
L 473.814912 202.084907 
L 476.095197 202.084907 
L 476.855292 198.236464 
L 478.375481 198.236464 
L 479.135576 244.417775 
L 479.895671 225.175562 
L 480.655766 198.236464 
L 489.776905 198.236464 
L 490.537 194.388022 
L 493.57738 194.388022 
L 494.337475 198.236464 
L 495.09757 271.356873 
L 495.857665 194.388022 
L 496.61776 198.236464 
L 498.13795 198.236464 
L 498.898044 194.388022 
L 501.178329 194.388022 
L 501.938424 190.539579 
L 505.738899 190.539579 
L 506.498994 194.388022 
L 507.259089 190.539579 
L 509.539373 190.539579 
L 511.059563 240.569333 
L 511.819658 190.539579 
L 514.099943 190.539579 
L 514.099943 190.539579 
" style="fill:none;stroke:#1f77b4;stroke-linecap:square;stroke-width:1.5;"/>
   </g>
   <g id="line2d_17">
    <path clip-path="url(#pd9e5650bfd)" d="M 113.446307 282.902201 
L 114.206402 255.963103 
L 114.966497 240.569333 
L 115.726592 232.872447 
L 118.006877 221.32712 
L 119.527066 205.93335 
L 120.287161 144.358269 
L 121.047256 132.812941 
L 121.807351 136.661383 
L 129.4083 136.661383 
L 130.168395 132.812941 
L 134.728965 132.812941 
L 135.48906 229.024005 
L 136.249155 144.358269 
L 137.00925 136.661383 
L 137.769345 136.661383 
L 139.289535 144.358269 
L 140.049629 144.358269 
L 140.809724 148.206711 
L 141.569819 144.358269 
L 143.090009 144.358269 
L 143.850104 148.206711 
L 144.610199 148.206711 
L 145.370294 152.055154 
L 146.130389 152.055154 
L 147.650579 159.752039 
L 149.170769 159.752039 
L 149.930863 163.600481 
L 150.690958 163.600481 
L 151.451053 252.11466 
L 152.211148 167.448924 
L 153.731338 167.448924 
L 154.491433 171.297367 
L 164.372667 171.297367 
L 165.132762 167.448924 
L 165.892857 167.448924 
L 166.652952 229.024005 
L 167.413047 194.388022 
L 168.173142 171.297367 
L 168.933237 175.145809 
L 171.213521 175.145809 
L 171.973616 178.994252 
L 172.733711 175.145809 
L 176.534186 175.145809 
L 177.294281 171.297367 
L 181.094755 171.297367 
L 181.85485 175.145809 
L 182.614945 255.963103 
L 183.37504 175.145809 
L 186.41542 175.145809 
L 187.175515 178.994252 
L 187.93561 178.994252 
L 188.695705 182.842694 
L 189.4558 178.994252 
L 190.975989 178.994252 
L 191.736084 182.842694 
L 192.496179 178.994252 
L 194.016369 178.994252 
L 195.536559 186.691137 
L 197.056749 186.691137 
L 197.816844 225.175562 
L 198.576939 225.175562 
L 199.337034 190.539579 
L 200.097129 194.388022 
L 201.617318 194.388022 
L 202.377413 198.236464 
L 203.137508 194.388022 
L 203.897603 198.236464 
L 206.177888 198.236464 
L 206.937983 202.084907 
L 209.978363 202.084907 
L 210.738457 205.93335 
L 212.258647 205.93335 
L 213.018742 202.084907 
L 213.778837 275.205316 
L 214.538932 209.781792 
L 215.299027 205.93335 
L 220.619691 205.93335 
L 221.379786 202.084907 
L 222.899976 202.084907 
L 223.660071 198.236464 
L 228.220641 198.236464 
L 228.980736 221.32712 
L 229.740831 248.266218 
L 230.500926 198.236464 
L 238.86197 198.236464 
L 239.622065 194.388022 
L 241.142254 194.388022 
L 241.902349 190.539579 
L 242.662444 194.388022 
L 243.422539 194.388022 
L 244.182634 190.539579 
L 244.942729 271.356873 
L 245.702824 190.539579 
L 246.462919 194.388022 
L 247.223014 190.539579 
L 247.983109 194.388022 
L 250.263394 194.388022 
L 251.023488 198.236464 
L 252.543678 198.236464 
L 253.303773 202.084907 
L 254.063868 198.236464 
L 255.584058 198.236464 
L 256.344153 202.084907 
L 260.144628 202.084907 
L 260.904722 271.356873 
L 261.664817 205.93335 
L 270.025862 205.93335 
L 270.785957 202.084907 
L 273.826336 202.084907 
L 274.586431 205.93335 
L 275.346526 205.93335 
L 276.106621 271.356873 
L 276.866716 209.781792 
L 277.626811 205.93335 
L 281.427285 205.93335 
L 282.18738 209.781792 
L 283.70757 209.781792 
L 284.467665 213.630235 
L 288.26814 213.630235 
L 289.028235 217.478677 
L 289.78833 217.478677 
L 290.548425 221.32712 
L 291.308519 221.32712 
L 292.068614 282.902201 
L 292.828709 221.32712 
L 293.588804 217.478677 
L 297.389279 217.478677 
L 298.149374 213.630235 
L 298.909469 217.478677 
L 299.669564 213.630235 
L 303.470038 213.630235 
L 304.230133 209.781792 
L 304.990228 213.630235 
L 305.750323 209.781792 
L 306.510418 209.781792 
L 307.270513 255.963103 
L 308.030608 225.175562 
L 308.790703 209.781792 
L 309.550798 205.93335 
L 310.310893 209.781792 
L 311.831082 209.781792 
L 312.591177 205.93335 
L 314.111367 205.93335 
L 314.871462 202.084907 
L 320.192127 202.084907 
L 320.952222 205.93335 
L 321.712316 205.93335 
L 322.472411 202.084907 
L 323.232506 275.205316 
L 323.992601 209.781792 
L 324.752696 205.93335 
L 330.833456 205.93335 
L 331.593551 202.084907 
L 332.353645 202.084907 
L 333.11374 198.236464 
L 336.15412 198.236464 
L 336.914215 194.388022 
L 337.67431 198.236464 
L 338.434405 229.024005 
L 339.1945 236.72089 
L 339.954595 198.236464 
L 343.755069 198.236464 
L 344.515164 202.084907 
L 345.275259 198.236464 
L 346.035354 202.084907 
L 353.636303 202.084907 
L 354.396398 271.356873 
L 355.156493 202.084907 
L 361.997348 202.084907 
L 362.757442 198.236464 
L 365.797822 198.236464 
L 366.557917 202.084907 
L 367.318012 198.236464 
L 368.078107 202.084907 
L 368.838202 198.236464 
L 369.598297 213.630235 
L 370.358392 248.266218 
L 371.118487 190.539579 
L 371.878582 190.539579 
L 372.638676 186.691137 
L 383.280005 186.691137 
L 384.0401 190.539579 
L 384.800195 190.539579 
L 385.56029 267.50843 
L 386.320385 198.236464 
L 387.08048 194.388022 
L 387.840575 198.236464 
L 390.12086 198.236464 
L 390.880955 202.084907 
L 392.401145 202.084907 
L 393.161239 205.93335 
L 393.921334 202.084907 
L 394.681429 205.93335 
L 395.441524 202.084907 
L 396.201619 205.93335 
L 396.961714 202.084907 
L 397.721809 205.93335 
L 398.481904 205.93335 
L 399.241999 209.781792 
L 400.002094 205.93335 
L 400.762189 205.93335 
L 401.522284 275.205316 
L 402.282379 202.084907 
L 403.802568 202.084907 
L 404.562663 205.93335 
L 405.322758 205.93335 
L 406.082853 209.781792 
L 406.842948 205.93335 
L 407.603043 209.781792 
L 410.643423 209.781792 
L 411.403518 205.93335 
L 412.923707 205.93335 
L 413.683802 202.084907 
L 415.964087 202.084907 
L 416.724182 263.659988 
L 417.484277 209.781792 
L 418.244372 202.084907 
L 422.044847 202.084907 
L 422.804942 198.236464 
L 427.365511 198.236464 
L 428.125606 194.388022 
L 428.885701 194.388022 
L 429.645796 198.236464 
L 431.926081 198.236464 
L 432.686176 271.356873 
L 433.44627 198.236464 
L 447.127979 198.236464 
L 447.888074 252.11466 
L 448.648169 217.478677 
L 449.408264 198.236464 
L 454.728928 198.236464 
L 455.489023 194.388022 
L 456.249118 194.388022 
L 457.009213 198.236464 
L 458.529403 198.236464 
L 459.289498 194.388022 
L 463.089973 194.388022 
L 463.850067 271.356873 
L 464.610162 198.236464 
L 465.370257 194.388022 
L 466.130352 198.236464 
L 473.731301 198.236464 
L 474.491396 202.084907 
L 478.291871 202.084907 
L 479.051966 236.72089 
L 479.812061 244.417775 
L 480.572156 205.93335 
L 490.45339 205.93335 
L 491.213485 209.781792 
L 491.97358 209.781792 
L 492.733675 205.93335 
L 493.49377 209.781792 
L 494.253864 205.93335 
L 495.013959 275.205316 
L 495.774054 205.93335 
L 498.814434 205.93335 
L 499.574529 209.781792 
L 501.854814 209.781792 
L 502.614909 213.630235 
L 503.375004 209.781792 
L 504.135098 213.630235 
L 504.895193 209.781792 
L 505.655288 213.630235 
L 506.415383 209.781792 
L 507.175478 213.630235 
L 509.455763 213.630235 
L 510.215858 229.024005 
L 510.975953 267.50843 
L 511.736048 213.630235 
L 512.496143 209.781792 
L 513.256238 213.630235 
L 514.016332 209.781792 
L 523.137472 209.781792 
L 523.137472 209.781792 
" style="fill:none;stroke:#ff7f0e;stroke-linecap:square;stroke-width:1.5;"/>
   </g>
   <g id="patch_3">
    <path d="M 83.472344 352.174167 
L 83.472344 35.0625 
" style="fill:none;stroke:#000000;stroke-linecap:square;stroke-linejoin:miter;stroke-width:0.8;"/>
   </g>
   <g id="patch_4">
    <path d="M 544.073906 352.174167 
L 544.073906 35.0625 
" style="fill:none;stroke:#000000;stroke-linecap:square;stroke-linejoin:miter;stroke-width:0.8;"/>
   </g>
   <g id="patch_5">
    <path d="M 83.472344 352.174167 
L 544.073906 352.174167 
" style="fill:none;stroke:#000000;stroke-linecap:square;stroke-linejoin:miter;stroke-width:0.8;"/>
   </g>
   <g id="patch_6">
    <path d="M 83.472344 35.0625 
L 544.073906 35.0625 
" style="fill:none;stroke:#000000;stroke-linecap:square;stroke-linejoin:miter;stroke-width:0.8;"/>
   </g>
   <g id="legend_1">
    <g id="patch_7">
     <path d="M 569.103984 67.41875 
L 630.636797 67.41875 
Q 632.636797 67.41875 632.636797 65.41875 
L 632.636797 37.0625 
Q 632.636797 35.0625 630.636797 35.0625 
L 569.103984 35.0625 
Q 567.103984 35.0625 567.103984 37.0625 
L 567.103984 65.41875 
Q 567.103984 67.41875 569.103984 67.41875 
z
" style="fill:#ffffff;opacity:0.8;stroke:#cccccc;stroke-linejoin:miter;"/>
    </g>
    <g id="line2d_18">
     <path d="M 571.103984 43.160937 
L 591.103984 43.160937 
" style="fill:none;stroke:#1f77b4;stroke-linecap:square;stroke-width:1.5;"/>
    </g>
    <g id="line2d_19"/>
    <g id="text_17">
     <!-- bbr-pi -->
     <defs>
      <path d="M 4.890625 31.390625 
L 31.203125 31.390625 
L 31.203125 23.390625 
L 4.890625 23.390625 
z
" id="DejaVuSans-45"/>
     </defs>
     <g transform="translate(599.103984 46.660937)scale(0.1 -0.1)">
      <use xlink:href="#DejaVuSans-98"/>
      <use x="63.476562" xlink:href="#DejaVuSans-98"/>
      <use x="126.953125" xlink:href="#DejaVuSans-114"/>
      <use x="167.972656" xlink:href="#DejaVuSans-45"/>
      <use x="204.056641" xlink:href="#DejaVuSans-112"/>
      <use x="267.533203" xlink:href="#DejaVuSans-105"/>
     </g>
    </g>
    <g id="line2d_20">
     <path d="M 571.103984 57.839063 
L 591.103984 57.839063 
" style="fill:none;stroke:#ff7f0e;stroke-linecap:square;stroke-width:1.5;"/>
    </g>
    <g id="line2d_21"/>
    <g id="text_18">
     <!-- bbr-pi -->
     <g transform="translate(599.103984 61.339063)scale(0.1 -0.1)">
      <use xlink:href="#DejaVuSans-98"/>
      <use x="63.476562" xlink:href="#DejaVuSans-98"/>
      <use x="126.953125" xlink:href="#DejaVuSans-114"/>
      <use x="167.972656" xlink:href="#DejaVuSans-45"/>
      <use x="204.056641" xlink:href="#DejaVuSans-112"/>
      <use x="267.533203" xlink:href="#DejaVuSans-105"/>
     </g>
    </g>
   </g>
  </g>
  <g id="text_19">
   <!-- result throughput -->
   <defs>
    <path d="M 9.421875 75.984375 
L 18.40625 75.984375 
L 18.40625 0 
L 9.421875 0 
z
" id="DejaVuSans-108"/>
   </defs>
   <g transform="translate(289.320938 17.038125)scale(0.12 -0.12)">
    <use xlink:href="#DejaVuSans-114"/>
    <use x="41.082031" xlink:href="#DejaVuSans-101"/>
    <use x="102.605469" xlink:href="#DejaVuSans-115"/>
    <use x="154.705078" xlink:href="#DejaVuSans-117"/>
    <use x="218.083984" xlink:href="#DejaVuSans-108"/>
    <use x="245.867188" xlink:href="#DejaVuSans-116"/>
    <use x="285.076172" xlink:href="#DejaVuSans-32"/>
    <use x="316.863281" xlink:href="#DejaVuSans-116"/>
    <use x="356.072266" xlink:href="#DejaVuSans-104"/>
    <use x="419.451172" xlink:href="#DejaVuSans-114"/>
    <use x="460.533203" xlink:href="#DejaVuSans-111"/>
    <use x="521.714844" xlink:href="#DejaVuSans-117"/>
    <use x="585.09375" xlink:href="#DejaVuSans-103"/>
    <use x="648.570312" xlink:href="#DejaVuSans-104"/>
    <use x="711.949219" xlink:href="#DejaVuSans-112"/>
    <use x="775.425781" xlink:href="#DejaVuSans-117"/>
    <use x="838.804688" xlink:href="#DejaVuSans-116"/>
   </g>
  </g>
 </g>
 <defs>
  <clipPath id="pd9e5650bfd">
   <rect height="317.111667" width="460.601562" x="83.472344" y="35.0625"/>
  </clipPath>
 </defs>
</svg>
