<?xml version="1.0" encoding="utf-8" standalone="no"?>
<!DOCTYPE svg PUBLIC "-//W3C//DTD SVG 1.1//EN"
  "http://www.w3.org/Graphics/SVG/1.1/DTD/svg11.dtd">
<!-- Created with matplotlib (https://matplotlib.org/) -->
<svg height="396pt" version="1.1" viewBox="0 0 684 396" width="684pt" xmlns="http://www.w3.org/2000/svg" xmlns:xlink="http://www.w3.org/1999/xlink">
 <defs>
  <style type="text/css">
*{stroke-linecap:butt;stroke-linejoin:round;}
  </style>
 </defs>
 <g id="figure_1">
  <g id="patch_1">
   <path d="M 0 396 
L 684 396 
L 684 0 
L 0 0 
z
" style="fill:#ffffff;"/>
  </g>
  <g id="axes_1">
   <g id="patch_2">
    <path d="M 130.230156 352.174167 
L 529.912969 352.174167 
L 529.912969 35.0625 
L 130.230156 35.0625 
z
" style="fill:#ffffff;"/>
   </g>
   <g id="matplotlib.axis_1">
    <g id="xtick_1">
     <g id="line2d_1">
      <defs>
       <path d="M 0 0 
L 0 3.5 
" id="m751e00d67a" style="stroke:#000000;stroke-width:0.8;"/>
      </defs>
      <g>
       <use style="stroke:#000000;stroke-width:0.8;" x="148.397557" xlink:href="#m751e00d67a" y="352.174167"/>
      </g>
     </g>
     <g id="text_1">
      <!-- 0 -->
      <defs>
       <path d="M 31.78125 66.40625 
Q 24.171875 66.40625 20.328125 58.90625 
Q 16.5 51.421875 16.5 36.375 
Q 16.5 21.390625 20.328125 13.890625 
Q 24.171875 6.390625 31.78125 6.390625 
Q 39.453125 6.390625 43.28125 13.890625 
Q 47.125 21.390625 47.125 36.375 
Q 47.125 51.421875 43.28125 58.90625 
Q 39.453125 66.40625 31.78125 66.40625 
z
M 31.78125 74.21875 
Q 44.046875 74.21875 50.515625 64.515625 
Q 56.984375 54.828125 56.984375 36.375 
Q 56.984375 17.96875 50.515625 8.265625 
Q 44.046875 -1.421875 31.78125 -1.421875 
Q 19.53125 -1.421875 13.0625 8.265625 
Q 6.59375 17.96875 6.59375 36.375 
Q 6.59375 54.828125 13.0625 64.515625 
Q 19.53125 74.21875 31.78125 74.21875 
z
" id="DejaVuSans-48"/>
      </defs>
      <g transform="translate(145.216307 366.772604)scale(0.1 -0.1)">
       <use xlink:href="#DejaVuSans-48"/>
      </g>
     </g>
    </g>
    <g id="xtick_2">
     <g id="line2d_2">
      <g>
       <use style="stroke:#000000;stroke-width:0.8;" x="214.330883" xlink:href="#m751e00d67a" y="352.174167"/>
      </g>
     </g>
     <g id="text_2">
      <!-- 50 -->
      <defs>
       <path d="M 10.796875 72.90625 
L 49.515625 72.90625 
L 49.515625 64.59375 
L 19.828125 64.59375 
L 19.828125 46.734375 
Q 21.96875 47.46875 24.109375 47.828125 
Q 26.265625 48.1875 28.421875 48.1875 
Q 40.625 48.1875 47.75 41.5 
Q 54.890625 34.8125 54.890625 23.390625 
Q 54.890625 11.625 47.5625 5.09375 
Q 40.234375 -1.421875 26.90625 -1.421875 
Q 22.3125 -1.421875 17.546875 -0.640625 
Q 12.796875 0.140625 7.71875 1.703125 
L 7.71875 11.625 
Q 12.109375 9.234375 16.796875 8.0625 
Q 21.484375 6.890625 26.703125 6.890625 
Q 35.15625 6.890625 40.078125 11.328125 
Q 45.015625 15.765625 45.015625 23.390625 
Q 45.015625 31 40.078125 35.4375 
Q 35.15625 39.890625 26.703125 39.890625 
Q 22.75 39.890625 18.8125 39.015625 
Q 14.890625 38.140625 10.796875 36.28125 
z
" id="DejaVuSans-53"/>
      </defs>
      <g transform="translate(207.968383 366.772604)scale(0.1 -0.1)">
       <use xlink:href="#DejaVuSans-53"/>
       <use x="63.623047" xlink:href="#DejaVuSans-48"/>
      </g>
     </g>
    </g>
    <g id="xtick_3">
     <g id="line2d_3">
      <g>
       <use style="stroke:#000000;stroke-width:0.8;" x="280.264209" xlink:href="#m751e00d67a" y="352.174167"/>
      </g>
     </g>
     <g id="text_3">
      <!-- 100 -->
      <defs>
       <path d="M 12.40625 8.296875 
L 28.515625 8.296875 
L 28.515625 63.921875 
L 10.984375 60.40625 
L 10.984375 69.390625 
L 28.421875 72.90625 
L 38.28125 72.90625 
L 38.28125 8.296875 
L 54.390625 8.296875 
L 54.390625 0 
L 12.40625 0 
z
" id="DejaVuSans-49"/>
      </defs>
      <g transform="translate(270.720459 366.772604)scale(0.1 -0.1)">
       <use xlink:href="#DejaVuSans-49"/>
       <use x="63.623047" xlink:href="#DejaVuSans-48"/>
       <use x="127.246094" xlink:href="#DejaVuSans-48"/>
      </g>
     </g>
    </g>
    <g id="xtick_4">
     <g id="line2d_4">
      <g>
       <use style="stroke:#000000;stroke-width:0.8;" x="346.197535" xlink:href="#m751e00d67a" y="352.174167"/>
      </g>
     </g>
     <g id="text_4">
      <!-- 150 -->
      <g transform="translate(336.653785 366.772604)scale(0.1 -0.1)">
       <use xlink:href="#DejaVuSans-49"/>
       <use x="63.623047" xlink:href="#DejaVuSans-53"/>
       <use x="127.246094" xlink:href="#DejaVuSans-48"/>
      </g>
     </g>
    </g>
    <g id="xtick_5">
     <g id="line2d_5">
      <g>
       <use style="stroke:#000000;stroke-width:0.8;" x="412.130862" xlink:href="#m751e00d67a" y="352.174167"/>
      </g>
     </g>
     <g id="text_5">
      <!-- 200 -->
      <defs>
       <path d="M 19.1875 8.296875 
L 53.609375 8.296875 
L 53.609375 0 
L 7.328125 0 
L 7.328125 8.296875 
Q 12.9375 14.109375 22.625 23.890625 
Q 32.328125 33.6875 34.8125 36.53125 
Q 39.546875 41.84375 41.421875 45.53125 
Q 43.3125 49.21875 43.3125 52.78125 
Q 43.3125 58.59375 39.234375 62.25 
Q 35.15625 65.921875 28.609375 65.921875 
Q 23.96875 65.921875 18.8125 64.3125 
Q 13.671875 62.703125 7.8125 59.421875 
L 7.8125 69.390625 
Q 13.765625 71.78125 18.9375 73 
Q 24.125 74.21875 28.421875 74.21875 
Q 39.75 74.21875 46.484375 68.546875 
Q 53.21875 62.890625 53.21875 53.421875 
Q 53.21875 48.921875 51.53125 44.890625 
Q 49.859375 40.875 45.40625 35.40625 
Q 44.1875 33.984375 37.640625 27.21875 
Q 31.109375 20.453125 19.1875 8.296875 
z
" id="DejaVuSans-50"/>
      </defs>
      <g transform="translate(402.587112 366.772604)scale(0.1 -0.1)">
       <use xlink:href="#DejaVuSans-50"/>
       <use x="63.623047" xlink:href="#DejaVuSans-48"/>
       <use x="127.246094" xlink:href="#DejaVuSans-48"/>
      </g>
     </g>
    </g>
    <g id="xtick_6">
     <g id="line2d_6">
      <g>
       <use style="stroke:#000000;stroke-width:0.8;" x="478.064188" xlink:href="#m751e00d67a" y="352.174167"/>
      </g>
     </g>
     <g id="text_6">
      <!-- 250 -->
      <g transform="translate(468.520438 366.772604)scale(0.1 -0.1)">
       <use xlink:href="#DejaVuSans-50"/>
       <use x="63.623047" xlink:href="#DejaVuSans-53"/>
       <use x="127.246094" xlink:href="#DejaVuSans-48"/>
      </g>
     </g>
    </g>
   </g>
   <g id="matplotlib.axis_2">
    <g id="ytick_1">
     <g id="line2d_7">
      <defs>
       <path d="M 0 0 
L -3.5 0 
" id="m17247650fb" style="stroke:#000000;stroke-width:0.8;"/>
      </defs>
      <g>
       <use style="stroke:#000000;stroke-width:0.8;" x="130.230156" xlink:href="#m17247650fb" y="352.174167"/>
      </g>
     </g>
     <g id="text_7">
      <!-- 0 -->
      <g transform="translate(116.867656 355.973385)scale(0.1 -0.1)">
       <use xlink:href="#DejaVuSans-48"/>
      </g>
     </g>
    </g>
    <g id="ytick_2">
     <g id="line2d_8">
      <g>
       <use style="stroke:#000000;stroke-width:0.8;" x="130.230156" xlink:href="#m17247650fb" y="310.626117"/>
      </g>
     </g>
     <g id="text_8">
      <!-- 200000 -->
      <g transform="translate(85.055156 314.425336)scale(0.1 -0.1)">
       <use xlink:href="#DejaVuSans-50"/>
       <use x="63.623047" xlink:href="#DejaVuSans-48"/>
       <use x="127.246094" xlink:href="#DejaVuSans-48"/>
       <use x="190.869141" xlink:href="#DejaVuSans-48"/>
       <use x="254.492188" xlink:href="#DejaVuSans-48"/>
       <use x="318.115234" xlink:href="#DejaVuSans-48"/>
      </g>
     </g>
    </g>
    <g id="ytick_3">
     <g id="line2d_9">
      <g>
       <use style="stroke:#000000;stroke-width:0.8;" x="130.230156" xlink:href="#m17247650fb" y="269.078067"/>
      </g>
     </g>
     <g id="text_9">
      <!-- 400000 -->
      <defs>
       <path d="M 37.796875 64.3125 
L 12.890625 25.390625 
L 37.796875 25.390625 
z
M 35.203125 72.90625 
L 47.609375 72.90625 
L 47.609375 25.390625 
L 58.015625 25.390625 
L 58.015625 17.1875 
L 47.609375 17.1875 
L 47.609375 0 
L 37.796875 0 
L 37.796875 17.1875 
L 4.890625 17.1875 
L 4.890625 26.703125 
z
" id="DejaVuSans-52"/>
      </defs>
      <g transform="translate(85.055156 272.877286)scale(0.1 -0.1)">
       <use xlink:href="#DejaVuSans-52"/>
       <use x="63.623047" xlink:href="#DejaVuSans-48"/>
       <use x="127.246094" xlink:href="#DejaVuSans-48"/>
       <use x="190.869141" xlink:href="#DejaVuSans-48"/>
       <use x="254.492188" xlink:href="#DejaVuSans-48"/>
       <use x="318.115234" xlink:href="#DejaVuSans-48"/>
      </g>
     </g>
    </g>
    <g id="ytick_4">
     <g id="line2d_10">
      <g>
       <use style="stroke:#000000;stroke-width:0.8;" x="130.230156" xlink:href="#m17247650fb" y="227.530018"/>
      </g>
     </g>
     <g id="text_10">
      <!-- 600000 -->
      <defs>
       <path d="M 33.015625 40.375 
Q 26.375 40.375 22.484375 35.828125 
Q 18.609375 31.296875 18.609375 23.390625 
Q 18.609375 15.53125 22.484375 10.953125 
Q 26.375 6.390625 33.015625 6.390625 
Q 39.65625 6.390625 43.53125 10.953125 
Q 47.40625 15.53125 47.40625 23.390625 
Q 47.40625 31.296875 43.53125 35.828125 
Q 39.65625 40.375 33.015625 40.375 
z
M 52.59375 71.296875 
L 52.59375 62.3125 
Q 48.875 64.0625 45.09375 64.984375 
Q 41.3125 65.921875 37.59375 65.921875 
Q 27.828125 65.921875 22.671875 59.328125 
Q 17.53125 52.734375 16.796875 39.40625 
Q 19.671875 43.65625 24.015625 45.921875 
Q 28.375 48.1875 33.59375 48.1875 
Q 44.578125 48.1875 50.953125 41.515625 
Q 57.328125 34.859375 57.328125 23.390625 
Q 57.328125 12.15625 50.6875 5.359375 
Q 44.046875 -1.421875 33.015625 -1.421875 
Q 20.359375 -1.421875 13.671875 8.265625 
Q 6.984375 17.96875 6.984375 36.375 
Q 6.984375 53.65625 15.1875 63.9375 
Q 23.390625 74.21875 37.203125 74.21875 
Q 40.921875 74.21875 44.703125 73.484375 
Q 48.484375 72.75 52.59375 71.296875 
z
" id="DejaVuSans-54"/>
      </defs>
      <g transform="translate(85.055156 231.329236)scale(0.1 -0.1)">
       <use xlink:href="#DejaVuSans-54"/>
       <use x="63.623047" xlink:href="#DejaVuSans-48"/>
       <use x="127.246094" xlink:href="#DejaVuSans-48"/>
       <use x="190.869141" xlink:href="#DejaVuSans-48"/>
       <use x="254.492188" xlink:href="#DejaVuSans-48"/>
       <use x="318.115234" xlink:href="#DejaVuSans-48"/>
      </g>
     </g>
    </g>
    <g id="ytick_5">
     <g id="line2d_11">
      <g>
       <use style="stroke:#000000;stroke-width:0.8;" x="130.230156" xlink:href="#m17247650fb" y="185.981968"/>
      </g>
     </g>
     <g id="text_11">
      <!-- 800000 -->
      <defs>
       <path d="M 31.78125 34.625 
Q 24.75 34.625 20.71875 30.859375 
Q 16.703125 27.09375 16.703125 20.515625 
Q 16.703125 13.921875 20.71875 10.15625 
Q 24.75 6.390625 31.78125 6.390625 
Q 38.8125 6.390625 42.859375 10.171875 
Q 46.921875 13.96875 46.921875 20.515625 
Q 46.921875 27.09375 42.890625 30.859375 
Q 38.875 34.625 31.78125 34.625 
z
M 21.921875 38.8125 
Q 15.578125 40.375 12.03125 44.71875 
Q 8.5 49.078125 8.5 55.328125 
Q 8.5 64.0625 14.71875 69.140625 
Q 20.953125 74.21875 31.78125 74.21875 
Q 42.671875 74.21875 48.875 69.140625 
Q 55.078125 64.0625 55.078125 55.328125 
Q 55.078125 49.078125 51.53125 44.71875 
Q 48 40.375 41.703125 38.8125 
Q 48.828125 37.15625 52.796875 32.3125 
Q 56.78125 27.484375 56.78125 20.515625 
Q 56.78125 9.90625 50.3125 4.234375 
Q 43.84375 -1.421875 31.78125 -1.421875 
Q 19.734375 -1.421875 13.25 4.234375 
Q 6.78125 9.90625 6.78125 20.515625 
Q 6.78125 27.484375 10.78125 32.3125 
Q 14.796875 37.15625 21.921875 38.8125 
z
M 18.3125 54.390625 
Q 18.3125 48.734375 21.84375 45.5625 
Q 25.390625 42.390625 31.78125 42.390625 
Q 38.140625 42.390625 41.71875 45.5625 
Q 45.3125 48.734375 45.3125 54.390625 
Q 45.3125 60.0625 41.71875 63.234375 
Q 38.140625 66.40625 31.78125 66.40625 
Q 25.390625 66.40625 21.84375 63.234375 
Q 18.3125 60.0625 18.3125 54.390625 
z
" id="DejaVuSans-56"/>
      </defs>
      <g transform="translate(85.055156 189.781187)scale(0.1 -0.1)">
       <use xlink:href="#DejaVuSans-56"/>
       <use x="63.623047" xlink:href="#DejaVuSans-48"/>
       <use x="127.246094" xlink:href="#DejaVuSans-48"/>
       <use x="190.869141" xlink:href="#DejaVuSans-48"/>
       <use x="254.492188" xlink:href="#DejaVuSans-48"/>
       <use x="318.115234" xlink:href="#DejaVuSans-48"/>
      </g>
     </g>
    </g>
    <g id="ytick_6">
     <g id="line2d_12">
      <g>
       <use style="stroke:#000000;stroke-width:0.8;" x="130.230156" xlink:href="#m17247650fb" y="144.433918"/>
      </g>
     </g>
     <g id="text_12">
      <!-- 1000000 -->
      <g transform="translate(78.692656 148.233137)scale(0.1 -0.1)">
       <use xlink:href="#DejaVuSans-49"/>
       <use x="63.623047" xlink:href="#DejaVuSans-48"/>
       <use x="127.246094" xlink:href="#DejaVuSans-48"/>
       <use x="190.869141" xlink:href="#DejaVuSans-48"/>
       <use x="254.492188" xlink:href="#DejaVuSans-48"/>
       <use x="318.115234" xlink:href="#DejaVuSans-48"/>
       <use x="381.738281" xlink:href="#DejaVuSans-48"/>
      </g>
     </g>
    </g>
    <g id="ytick_7">
     <g id="line2d_13">
      <g>
       <use style="stroke:#000000;stroke-width:0.8;" x="130.230156" xlink:href="#m17247650fb" y="102.885869"/>
      </g>
     </g>
     <g id="text_13">
      <!-- 1200000 -->
      <g transform="translate(78.692656 106.685087)scale(0.1 -0.1)">
       <use xlink:href="#DejaVuSans-49"/>
       <use x="63.623047" xlink:href="#DejaVuSans-50"/>
       <use x="127.246094" xlink:href="#DejaVuSans-48"/>
       <use x="190.869141" xlink:href="#DejaVuSans-48"/>
       <use x="254.492188" xlink:href="#DejaVuSans-48"/>
       <use x="318.115234" xlink:href="#DejaVuSans-48"/>
       <use x="381.738281" xlink:href="#DejaVuSans-48"/>
      </g>
     </g>
    </g>
    <g id="ytick_8">
     <g id="line2d_14">
      <g>
       <use style="stroke:#000000;stroke-width:0.8;" x="130.230156" xlink:href="#m17247650fb" y="61.337819"/>
      </g>
     </g>
     <g id="text_14">
      <!-- 1400000 -->
      <g transform="translate(78.692656 65.137038)scale(0.1 -0.1)">
       <use xlink:href="#DejaVuSans-49"/>
       <use x="63.623047" xlink:href="#DejaVuSans-52"/>
       <use x="127.246094" xlink:href="#DejaVuSans-48"/>
       <use x="190.869141" xlink:href="#DejaVuSans-48"/>
       <use x="254.492188" xlink:href="#DejaVuSans-48"/>
       <use x="318.115234" xlink:href="#DejaVuSans-48"/>
       <use x="381.738281" xlink:href="#DejaVuSans-48"/>
      </g>
     </g>
    </g>
    <g id="text_15">
     <!-- inflight -->
     <defs>
      <path d="M 9.421875 54.6875 
L 18.40625 54.6875 
L 18.40625 0 
L 9.421875 0 
z
M 9.421875 75.984375 
L 18.40625 75.984375 
L 18.40625 64.59375 
L 9.421875 64.59375 
z
" id="DejaVuSans-105"/>
      <path d="M 54.890625 33.015625 
L 54.890625 0 
L 45.90625 0 
L 45.90625 32.71875 
Q 45.90625 40.484375 42.875 44.328125 
Q 39.84375 48.1875 33.796875 48.1875 
Q 26.515625 48.1875 22.3125 43.546875 
Q 18.109375 38.921875 18.109375 30.90625 
L 18.109375 0 
L 9.078125 0 
L 9.078125 54.6875 
L 18.109375 54.6875 
L 18.109375 46.1875 
Q 21.34375 51.125 25.703125 53.5625 
Q 30.078125 56 35.796875 56 
Q 45.21875 56 50.046875 50.171875 
Q 54.890625 44.34375 54.890625 33.015625 
z
" id="DejaVuSans-110"/>
      <path d="M 37.109375 75.984375 
L 37.109375 68.5 
L 28.515625 68.5 
Q 23.6875 68.5 21.796875 66.546875 
Q 19.921875 64.59375 19.921875 59.515625 
L 19.921875 54.6875 
L 34.71875 54.6875 
L 34.71875 47.703125 
L 19.921875 47.703125 
L 19.921875 0 
L 10.890625 0 
L 10.890625 47.703125 
L 2.296875 47.703125 
L 2.296875 54.6875 
L 10.890625 54.6875 
L 10.890625 58.5 
Q 10.890625 67.625 15.140625 71.796875 
Q 19.390625 75.984375 28.609375 75.984375 
z
" id="DejaVuSans-102"/>
      <path d="M 9.421875 75.984375 
L 18.40625 75.984375 
L 18.40625 0 
L 9.421875 0 
z
" id="DejaVuSans-108"/>
      <path d="M 45.40625 27.984375 
Q 45.40625 37.75 41.375 43.109375 
Q 37.359375 48.484375 30.078125 48.484375 
Q 22.859375 48.484375 18.828125 43.109375 
Q 14.796875 37.75 14.796875 27.984375 
Q 14.796875 18.265625 18.828125 12.890625 
Q 22.859375 7.515625 30.078125 7.515625 
Q 37.359375 7.515625 41.375 12.890625 
Q 45.40625 18.265625 45.40625 27.984375 
z
M 54.390625 6.78125 
Q 54.390625 -7.171875 48.1875 -13.984375 
Q 42 -20.796875 29.203125 -20.796875 
Q 24.46875 -20.796875 20.265625 -20.09375 
Q 16.0625 -19.390625 12.109375 -17.921875 
L 12.109375 -9.1875 
Q 16.0625 -11.328125 19.921875 -12.34375 
Q 23.78125 -13.375 27.78125 -13.375 
Q 36.625 -13.375 41.015625 -8.765625 
Q 45.40625 -4.15625 45.40625 5.171875 
L 45.40625 9.625 
Q 42.625 4.78125 38.28125 2.390625 
Q 33.9375 0 27.875 0 
Q 17.828125 0 11.671875 7.65625 
Q 5.515625 15.328125 5.515625 27.984375 
Q 5.515625 40.671875 11.671875 48.328125 
Q 17.828125 56 27.875 56 
Q 33.9375 56 38.28125 53.609375 
Q 42.625 51.21875 45.40625 46.390625 
L 45.40625 54.6875 
L 54.390625 54.6875 
z
" id="DejaVuSans-103"/>
      <path d="M 54.890625 33.015625 
L 54.890625 0 
L 45.90625 0 
L 45.90625 32.71875 
Q 45.90625 40.484375 42.875 44.328125 
Q 39.84375 48.1875 33.796875 48.1875 
Q 26.515625 48.1875 22.3125 43.546875 
Q 18.109375 38.921875 18.109375 30.90625 
L 18.109375 0 
L 9.078125 0 
L 9.078125 75.984375 
L 18.109375 75.984375 
L 18.109375 46.1875 
Q 21.34375 51.125 25.703125 53.5625 
Q 30.078125 56 35.796875 56 
Q 45.21875 56 50.046875 50.171875 
Q 54.890625 44.34375 54.890625 33.015625 
z
" id="DejaVuSans-104"/>
      <path d="M 18.3125 70.21875 
L 18.3125 54.6875 
L 36.8125 54.6875 
L 36.8125 47.703125 
L 18.3125 47.703125 
L 18.3125 18.015625 
Q 18.3125 11.328125 20.140625 9.421875 
Q 21.96875 7.515625 27.59375 7.515625 
L 36.8125 7.515625 
L 36.8125 0 
L 27.59375 0 
Q 17.1875 0 13.234375 3.875 
Q 9.28125 7.765625 9.28125 18.015625 
L 9.28125 47.703125 
L 2.6875 47.703125 
L 2.6875 54.6875 
L 9.28125 54.6875 
L 9.28125 70.21875 
z
" id="DejaVuSans-116"/>
     </defs>
     <g transform="translate(61.415156 211.017552)rotate(-90)scale(0.1 -0.1)">
      <use xlink:href="#DejaVuSans-105"/>
      <use x="27.783203" xlink:href="#DejaVuSans-110"/>
      <use x="91.162109" xlink:href="#DejaVuSans-102"/>
      <use x="126.367188" xlink:href="#DejaVuSans-108"/>
      <use x="154.150391" xlink:href="#DejaVuSans-105"/>
      <use x="181.933594" xlink:href="#DejaVuSans-103"/>
      <use x="245.410156" xlink:href="#DejaVuSans-104"/>
      <use x="308.789062" xlink:href="#DejaVuSans-116"/>
     </g>
     <!-- (bytes) -->
     <defs>
      <path d="M 31 75.875 
Q 24.46875 64.65625 21.28125 53.65625 
Q 18.109375 42.671875 18.109375 31.390625 
Q 18.109375 20.125 21.3125 9.0625 
Q 24.515625 -2 31 -13.1875 
L 23.1875 -13.1875 
Q 15.875 -1.703125 12.234375 9.375 
Q 8.59375 20.453125 8.59375 31.390625 
Q 8.59375 42.28125 12.203125 53.3125 
Q 15.828125 64.359375 23.1875 75.875 
z
" id="DejaVuSans-40"/>
      <path d="M 48.6875 27.296875 
Q 48.6875 37.203125 44.609375 42.84375 
Q 40.53125 48.484375 33.40625 48.484375 
Q 26.265625 48.484375 22.1875 42.84375 
Q 18.109375 37.203125 18.109375 27.296875 
Q 18.109375 17.390625 22.1875 11.75 
Q 26.265625 6.109375 33.40625 6.109375 
Q 40.53125 6.109375 44.609375 11.75 
Q 48.6875 17.390625 48.6875 27.296875 
z
M 18.109375 46.390625 
Q 20.953125 51.265625 25.265625 53.625 
Q 29.59375 56 35.59375 56 
Q 45.5625 56 51.78125 48.09375 
Q 58.015625 40.1875 58.015625 27.296875 
Q 58.015625 14.40625 51.78125 6.484375 
Q 45.5625 -1.421875 35.59375 -1.421875 
Q 29.59375 -1.421875 25.265625 0.953125 
Q 20.953125 3.328125 18.109375 8.203125 
L 18.109375 0 
L 9.078125 0 
L 9.078125 75.984375 
L 18.109375 75.984375 
z
" id="DejaVuSans-98"/>
      <path d="M 32.171875 -5.078125 
Q 28.375 -14.84375 24.75 -17.8125 
Q 21.140625 -20.796875 15.09375 -20.796875 
L 7.90625 -20.796875 
L 7.90625 -13.28125 
L 13.1875 -13.28125 
Q 16.890625 -13.28125 18.9375 -11.515625 
Q 21 -9.765625 23.484375 -3.21875 
L 25.09375 0.875 
L 2.984375 54.6875 
L 12.5 54.6875 
L 29.59375 11.921875 
L 46.6875 54.6875 
L 56.203125 54.6875 
z
" id="DejaVuSans-121"/>
      <path d="M 56.203125 29.59375 
L 56.203125 25.203125 
L 14.890625 25.203125 
Q 15.484375 15.921875 20.484375 11.0625 
Q 25.484375 6.203125 34.421875 6.203125 
Q 39.59375 6.203125 44.453125 7.46875 
Q 49.3125 8.734375 54.109375 11.28125 
L 54.109375 2.78125 
Q 49.265625 0.734375 44.1875 -0.34375 
Q 39.109375 -1.421875 33.890625 -1.421875 
Q 20.796875 -1.421875 13.15625 6.1875 
Q 5.515625 13.8125 5.515625 26.8125 
Q 5.515625 40.234375 12.765625 48.109375 
Q 20.015625 56 32.328125 56 
Q 43.359375 56 49.78125 48.890625 
Q 56.203125 41.796875 56.203125 29.59375 
z
M 47.21875 32.234375 
Q 47.125 39.59375 43.09375 43.984375 
Q 39.0625 48.390625 32.421875 48.390625 
Q 24.90625 48.390625 20.390625 44.140625 
Q 15.875 39.890625 15.1875 32.171875 
z
" id="DejaVuSans-101"/>
      <path d="M 44.28125 53.078125 
L 44.28125 44.578125 
Q 40.484375 46.53125 36.375 47.5 
Q 32.28125 48.484375 27.875 48.484375 
Q 21.1875 48.484375 17.84375 46.4375 
Q 14.5 44.390625 14.5 40.28125 
Q 14.5 37.15625 16.890625 35.375 
Q 19.28125 33.59375 26.515625 31.984375 
L 29.59375 31.296875 
Q 39.15625 29.25 43.1875 25.515625 
Q 47.21875 21.78125 47.21875 15.09375 
Q 47.21875 7.46875 41.1875 3.015625 
Q 35.15625 -1.421875 24.609375 -1.421875 
Q 20.21875 -1.421875 15.453125 -0.5625 
Q 10.6875 0.296875 5.421875 2 
L 5.421875 11.28125 
Q 10.40625 8.6875 15.234375 7.390625 
Q 20.0625 6.109375 24.8125 6.109375 
Q 31.15625 6.109375 34.5625 8.28125 
Q 37.984375 10.453125 37.984375 14.40625 
Q 37.984375 18.0625 35.515625 20.015625 
Q 33.0625 21.96875 24.703125 23.78125 
L 21.578125 24.515625 
Q 13.234375 26.265625 9.515625 29.90625 
Q 5.8125 33.546875 5.8125 39.890625 
Q 5.8125 47.609375 11.28125 51.796875 
Q 16.75 56 26.8125 56 
Q 31.78125 56 36.171875 55.265625 
Q 40.578125 54.546875 44.28125 53.078125 
z
" id="DejaVuSans-115"/>
      <path d="M 8.015625 75.875 
L 15.828125 75.875 
Q 23.140625 64.359375 26.78125 53.3125 
Q 30.421875 42.28125 30.421875 31.390625 
Q 30.421875 20.453125 26.78125 9.375 
Q 23.140625 -1.703125 15.828125 -13.1875 
L 8.015625 -13.1875 
Q 14.5 -2 17.703125 9.0625 
Q 20.90625 20.125 20.90625 31.390625 
Q 20.90625 42.671875 17.703125 53.65625 
Q 14.5 64.65625 8.015625 75.875 
z
" id="DejaVuSans-41"/>
     </defs>
     <g transform="translate(72.612969 211.294896)rotate(-90)scale(0.1 -0.1)">
      <use xlink:href="#DejaVuSans-40"/>
      <use x="39.013672" xlink:href="#DejaVuSans-98"/>
      <use x="102.490234" xlink:href="#DejaVuSans-121"/>
      <use x="161.669922" xlink:href="#DejaVuSans-116"/>
      <use x="200.878906" xlink:href="#DejaVuSans-101"/>
      <use x="262.402344" xlink:href="#DejaVuSans-115"/>
      <use x="314.501953" xlink:href="#DejaVuSans-41"/>
     </g>
    </g>
   </g>
   <g id="line2d_15">
    <path clip-path="url(#p2e9a15b2b3)" d="M 148.397557 288.402896 
L 149.05689 282.687546 
L 149.716223 246.590601 
L 150.375557 296.524709 
L 151.03489 50.163056 
L 151.694223 252.305951 
L 152.353556 251.102719 
L 153.01289 263.135034 
L 153.672223 308.256216 
L 154.331556 320.288531 
L 154.990889 310.361871 
L 155.650223 302.540867 
L 156.968889 274.565734 
L 157.628222 297.72794 
L 158.287556 288.102088 
L 158.946889 275.468157 
L 159.606222 320.288531 
L 160.265556 273.061694 
L 160.924889 266.744729 
L 161.584222 224.330818 
L 162.243555 338.637812 
L 162.902889 336.231349 
L 163.562222 332.020039 
L 164.221555 333.22327 
L 164.880888 322.995802 
L 165.540222 319.0853 
L 166.199555 316.678837 
L 166.858888 307.955408 
L 167.518221 306.451369 
L 168.177555 257.419685 
L 168.836888 297.427133 
L 169.496221 329.01196 
L 170.155554 294.719862 
L 170.814888 316.979645 
L 171.474221 288.703704 
L 172.133554 317.581261 
L 172.792888 279.980276 
L 173.452221 272.159271 
L 174.111554 325.101458 
L 174.770887 351.873359 
L 175.430221 290.207743 
L 176.089554 336.231349 
L 176.748887 309.15864 
L 177.40822 332.020039 
L 178.067554 337.434581 
L 178.726887 298.329556 
L 179.38622 327.507921 
L 180.045553 318.784492 
L 180.704887 291.110167 
L 181.36422 299.532788 
L 182.023553 283.58997 
L 182.682886 273.362502 
L 183.34222 306.451369 
L 184.001553 279.980276 
L 184.660886 310.361871 
L 185.320219 319.686916 
L 185.979553 319.386108 
L 186.638886 315.475605 
L 187.298219 303.142482 
L 187.957553 322.394187 
L 189.276219 190.339527 
L 189.935552 307.353793 
L 190.594886 241.476867 
L 191.254219 132.283607 
L 191.913552 351.873359 
L 192.572885 272.159271 
L 193.232219 252.907566 
L 193.891552 240.273635 
L 194.550885 244.184138 
L 195.210218 276.370581 
L 195.869552 233.655862 
L 196.528885 258.0213 
L 197.188218 252.305951 
L 197.847551 243.88333 
L 198.506885 312.166719 
L 199.166218 280.581891 
L 199.825551 300.134403 
L 200.484885 326.605497 
L 201.144218 329.01196 
L 201.803551 327.507921 
L 202.462884 317.882068 
L 203.122218 332.020039 
L 203.781551 332.320847 
L 204.440884 333.524078 
L 205.100217 326.906305 
L 205.759551 328.711152 
L 206.418884 307.353793 
L 207.078217 332.020039 
L 207.73755 315.776413 
L 208.396884 332.020039 
L 209.056217 332.922462 
L 209.71555 325.101458 
L 210.374883 308.557024 
L 211.034217 331.719231 
L 211.69355 331.117615 
L 212.352883 333.824886 
L 213.012216 328.109536 
L 213.67155 310.963487 
L 214.330883 335.629733 
L 214.990216 272.460079 
L 215.64955 297.72794 
L 216.308883 308.857832 
L 216.968216 323.898226 
L 217.627549 317.280453 
L 218.286883 287.80128 
L 218.946216 285.695625 
L 219.605549 174.998326 
L 220.264882 337.133773 
L 220.924216 328.711152 
L 221.583549 328.109536 
L 222.242882 294.118246 
L 222.902215 321.792571 
L 223.561549 277.87462 
L 224.220882 322.995802 
L 224.880215 299.23198 
L 225.539548 331.719231 
L 226.198882 321.792571 
L 226.858215 326.304689 
L 227.517548 331.719231 
L 228.176882 279.077852 
L 228.836215 300.435211 
L 229.495548 273.362502 
L 230.154881 305.248137 
L 230.814215 226.737281 
L 231.473548 237.867172 
L 232.132881 309.760256 
L 232.792214 252.005143 
L 233.451548 309.760256 
L 234.770214 313.069142 
L 235.429547 232.151823 
L 236.088881 317.581261 
L 236.748214 313.670758 
L 237.407547 324.199034 
L 238.06688 308.256216 
L 238.726214 334.426502 
L 239.385547 261.931803 
L 240.04488 324.499842 
L 240.704214 289.606128 
L 241.363547 332.020039 
L 242.02288 153.03935 
L 242.682213 279.37866 
L 244.00088 257.118877 
L 244.660213 285.09401 
L 245.319546 319.0853 
L 245.97888 277.273005 
L 246.638213 278.777044 
L 247.297546 276.069773 
L 247.956879 265.240689 
L 248.616213 276.069773 
L 249.275546 274.264926 
L 249.934879 329.01196 
L 250.594212 330.816807 
L 251.253546 329.01196 
L 251.912879 324.80065 
L 252.572212 351.873359 
L 253.231545 306.150561 
L 253.890879 304.646522 
L 254.550212 324.80065 
L 255.209545 325.402265 
L 255.868879 129.576336 
L 256.528212 316.979645 
L 257.187545 311.565103 
L 257.846878 313.36995 
L 258.506212 264.037458 
L 259.165545 272.460079 
L 259.824878 273.362502 
L 260.484211 271.557655 
L 261.143545 315.174797 
L 261.802878 312.166719 
L 262.462211 298.630364 
L 263.121544 249.899488 
L 263.780878 243.582522 
L 264.440211 321.190955 
L 265.099544 317.280453 
L 265.758877 316.678837 
L 266.418211 292.012591 
L 267.077544 326.304689 
L 267.736877 327.207113 
L 268.396211 324.199034 
L 269.055544 325.703073 
L 269.714877 317.280453 
L 270.37421 284.191586 
L 271.033544 257.419685 
L 271.692877 304.044906 
L 272.35221 273.362502 
L 273.011543 316.678837 
L 273.670877 316.378029 
L 274.33021 322.694994 
L 274.989543 324.80065 
L 275.648876 316.979645 
L 276.30821 269.452 
L 276.967543 315.776413 
L 277.626876 278.175428 
L 278.286209 265.240689 
L 278.945543 273.362502 
L 279.604876 277.273005 
L 280.264209 208.087192 
L 280.923542 289.30532 
L 281.582876 295.622285 
L 282.242209 321.491763 
L 282.901542 316.678837 
L 283.560876 327.808728 
L 284.220209 317.280453 
L 284.879542 299.833596 
L 285.538875 330.515999 
L 286.198209 329.312768 
L 286.857542 316.678837 
L 287.516875 328.410344 
L 288.176208 329.01196 
L 288.835542 322.093379 
L 289.494875 319.386108 
L 290.154208 321.190955 
L 290.813541 308.857832 
L 291.472875 310.963487 
L 292.132208 274.866542 
L 292.791541 330.215191 
L 294.110208 174.697518 
L 294.769541 335.629733 
L 295.428874 331.719231 
L 296.088208 331.117615 
L 296.747541 323.29661 
L 297.406874 296.825517 
L 298.066207 210.192847 
L 298.725541 265.541497 
L 299.384874 261.931803 
L 300.044207 269.752808 
L 300.70354 286.297241 
L 301.362874 295.622285 
L 302.022207 295.321477 
L 302.68154 277.273005 
L 303.340873 298.931172 
L 304.000207 279.679468 
L 304.65954 289.30532 
L 305.318873 330.515999 
L 305.978206 324.199034 
L 307.296873 258.322108 
L 307.956206 319.0853 
L 308.615539 312.166719 
L 309.274873 269.752808 
L 309.934206 286.297241 
L 310.593539 311.565103 
L 311.252873 275.468157 
L 311.912206 324.80065 
L 312.571539 324.199034 
L 313.230872 321.190955 
L 313.890206 319.686916 
L 314.549539 320.890147 
L 315.208872 280.882699 
L 315.868205 291.410975 
L 316.527539 275.768965 
L 317.186872 263.73665 
L 317.846205 287.500473 
L 318.505538 275.768965 
L 319.164872 307.955408 
L 319.824205 316.979645 
L 320.483538 144.917538 
L 321.142871 287.80128 
L 321.802205 265.240689 
L 322.461538 307.353793 
L 323.120871 320.890147 
L 323.780205 310.662679 
L 324.439538 259.224532 
L 325.098871 319.686916 
L 325.758204 314.272374 
L 326.417538 284.492394 
L 327.076871 335.930541 
L 327.736204 334.72731 
L 328.395537 331.418423 
L 329.054871 335.328925 
L 329.714204 331.719231 
L 330.373537 326.003881 
L 331.03287 329.613576 
L 331.692204 329.312768 
L 332.351537 323.898226 
L 333.01087 322.394187 
L 333.670203 319.386108 
L 334.329537 310.662679 
L 334.98887 279.37866 
L 335.648203 318.483684 
L 336.307536 320.288531 
L 336.96687 313.971566 
L 337.626203 309.760256 
L 338.285536 278.777044 
L 338.94487 277.573813 
L 339.604203 351.873359 
L 340.263536 255.915645 
L 340.922869 321.491763 
L 341.582203 317.581261 
L 342.241536 285.695625 
L 342.900869 317.882068 
L 343.560202 281.484315 
L 344.219536 287.500473 
L 344.878869 325.703073 
L 345.538202 319.0853 
L 346.197535 303.744098 
L 346.856869 330.515999 
L 347.516202 181.014483 
L 348.175535 308.857832 
L 348.834868 269.452 
L 349.494202 251.403527 
L 350.153535 239.67202 
L 350.812868 316.077221 
L 351.472202 294.118246 
L 352.131535 264.639074 
L 352.790868 317.581261 
L 353.450201 351.873359 
L 354.109535 264.338266 
L 354.768868 338.036196 
L 355.428201 300.736019 
L 356.087534 332.621654 
L 356.746868 331.117615 
L 357.406201 297.72794 
L 358.065534 329.01196 
L 358.724867 312.768334 
L 359.384201 286.898857 
L 360.043534 271.557655 
L 360.702867 320.589339 
L 361.3622 151.234503 
L 362.021534 309.760256 
L 362.680867 309.459448 
L 363.3402 258.923724 
L 363.999533 267.94796 
L 364.658867 253.208374 
L 365.3182 322.394187 
L 365.977533 279.679468 
L 366.636867 193.046798 
L 367.2962 302.240059 
L 367.955533 328.109536 
L 368.614866 329.312768 
L 369.2742 330.816807 
L 369.933533 329.312768 
L 370.592866 312.768334 
L 371.252199 277.87462 
L 371.911533 274.866542 
L 372.570866 299.532788 
L 373.230199 317.882068 
L 373.889532 221.623547 
L 374.548866 294.419054 
L 375.208199 163.266818 
L 375.867532 316.378029 
L 376.526865 295.02067 
L 377.186199 306.752177 
L 377.845532 275.768965 
L 378.504865 310.061064 
L 379.164199 306.451369 
L 379.823532 256.818069 
L 380.482865 245.086562 
L 381.142198 253.208374 
L 381.801532 247.192217 
L 382.460865 314.272374 
L 383.120198 289.30532 
L 383.779531 247.793832 
L 384.438865 220.420315 
L 385.098198 138.90138 
L 385.757531 261.931803 
L 386.416864 229.444552 
L 387.076198 280.882699 
L 387.735531 351.873359 
L 388.394864 97.089085 
L 389.054197 317.581261 
L 389.713531 308.557024 
L 390.372864 319.0853 
L 391.032197 290.809359 
L 391.691531 317.882068 
L 392.350864 315.174797 
L 393.010197 298.931172 
L 393.66953 316.378029 
L 394.328864 313.670758 
L 394.988197 300.134403 
L 395.64753 329.01196 
L 396.306863 326.906305 
L 397.62553 315.475605 
L 398.284863 318.182876 
L 398.944196 301.337635 
L 399.60353 316.678837 
L 400.262863 305.548945 
L 400.922196 320.288531 
L 401.581529 317.280453 
L 402.240863 267.045537 
L 402.900196 257.118877 
L 404.218862 270.956039 
L 404.878196 311.264295 
L 405.537529 256.818069 
L 406.196862 322.995802 
L 406.856196 311.865911 
L 407.515529 263.135034 
L 408.174862 289.004512 
L 408.834195 273.362502 
L 409.493529 311.264295 
L 410.152862 305.849753 
L 410.812195 265.240689 
L 411.471528 326.906305 
L 412.130862 318.483684 
L 412.790195 316.077221 
L 413.449528 249.899488 
L 414.108861 306.451369 
L 414.768195 282.687546 
L 415.427528 97.389893 
L 416.086861 240.875251 
L 416.746194 238.468788 
L 417.405528 266.744729 
L 418.064861 267.346345 
L 418.724194 312.768334 
L 419.383528 292.313399 
L 420.042861 321.190955 
L 420.702194 255.013222 
L 421.361527 309.760256 
L 422.020861 276.671389 
L 422.680194 319.386108 
L 423.339527 326.605497 
L 423.99886 326.605497 
L 424.658194 315.174797 
L 425.317527 351.873359 
L 425.97686 272.760886 
L 426.636193 287.80128 
L 427.295527 317.581261 
L 427.95486 316.678837 
L 428.614193 316.077221 
L 429.273526 105.812513 
L 429.93286 313.36995 
L 430.592193 258.322108 
L 431.251526 312.768334 
L 431.910859 310.061064 
L 432.570193 313.971566 
L 433.229526 258.322108 
L 433.888859 320.288531 
L 434.548193 288.703704 
L 435.207526 267.647153 
L 435.866859 220.420315 
L 436.526192 190.941143 
L 437.185526 250.801911 
L 437.844859 169.583784 
L 438.504192 234.859094 
L 439.822859 325.402265 
L 440.482192 268.850384 
L 441.141525 326.906305 
L 441.800858 316.979645 
L 442.460192 326.906305 
L 443.119525 325.101458 
L 443.778858 314.87399 
L 444.438191 307.052985 
L 445.097525 285.09401 
L 445.756858 317.581261 
L 446.416191 292.614207 
L 447.075525 291.410975 
L 447.734858 305.849753 
L 448.394191 262.834226 
L 449.053524 275.167349 
L 449.712858 276.069773 
L 450.372191 274.264926 
L 451.031524 318.784492 
L 451.690857 240.574443 
L 452.350191 351.873359 
L 453.009524 290.809359 
L 453.668857 320.589339 
L 454.32819 314.573182 
L 454.987524 332.020039 
L 455.646857 331.719231 
L 456.30619 330.215191 
L 456.965523 330.515999 
L 457.624857 331.117615 
L 458.28419 330.515999 
L 458.943523 329.613576 
L 459.602856 326.605497 
L 460.26219 322.694994 
L 460.921523 320.589339 
L 461.580856 320.589339 
L 462.24019 327.808728 
L 462.899523 319.0853 
L 463.558856 328.410344 
L 464.218189 328.410344 
L 464.877523 321.190955 
L 465.536856 303.142482 
L 466.196189 326.906305 
L 466.855522 321.491763 
L 467.514856 326.906305 
L 468.174189 326.003881 
L 468.833522 321.792571 
L 469.492855 321.190955 
L 470.152189 282.085931 
L 470.811522 317.581261 
L 471.470855 319.0853 
L 472.130188 320.288531 
L 472.789522 317.280453 
L 473.448855 313.36995 
L 474.108188 351.873359 
L 474.767522 285.394817 
L 475.426855 322.694994 
L 476.086188 324.499842 
L 476.745521 294.719862 
L 477.404855 329.01196 
L 478.064188 266.744729 
L 478.723521 318.483684 
L 479.382854 306.150561 
L 480.042188 279.37866 
L 480.701521 318.182876 
L 481.360854 318.784492 
L 482.020187 320.589339 
L 482.679521 312.768334 
L 483.338854 279.37866 
L 483.998187 322.995802 
L 484.65752 326.906305 
L 485.316854 317.882068 
L 485.976187 251.704335 
L 486.63552 317.280453 
L 487.294853 312.166719 
L 487.954187 288.402896 
L 488.61352 195.152454 
L 489.272853 249.59868 
L 489.932187 285.695625 
L 490.59152 279.077852 
L 491.250853 313.069142 
L 491.910186 96.487469 
L 492.56952 238.769596 
L 493.228853 243.88333 
L 493.888186 220.721123 
L 494.547519 262.834226 
L 495.206853 271.557655 
L 495.866186 274.866542 
L 496.525519 312.166719 
L 497.184852 295.321477 
L 497.844186 317.581261 
L 498.503519 222.826778 
L 499.162852 291.110167 
L 499.822185 294.118246 
L 500.481519 290.508551 
L 501.140852 351.873359 
L 501.800185 241.777675 
L 502.459519 335.028118 
L 503.118852 326.304689 
L 503.778185 334.426502 
L 504.437518 334.72731 
L 504.437518 334.72731 
" style="fill:none;stroke:#1f77b4;stroke-linecap:square;stroke-width:1.5;"/>
   </g>
   <g id="line2d_16">
    <path clip-path="url(#p2e9a15b2b3)" d="M 151.019066 243.582522 
L 151.678399 266.443921 
L 152.337732 272.460079 
L 152.997066 275.167349 
L 153.656399 315.776413 
L 154.315732 320.589339 
L 154.975065 311.565103 
L 155.634399 270.354423 
L 156.293732 240.273635 
L 156.953065 266.744729 
L 157.612398 227.038089 
L 158.271732 293.51663 
L 158.931065 247.493025 
L 159.590398 318.784492 
L 160.249732 274.866542 
L 160.909065 270.655231 
L 161.568398 95.885853 
L 162.227731 319.987724 
L 162.887065 314.272374 
L 163.546398 305.849753 
L 164.205731 304.345714 
L 164.865064 307.353793 
L 165.524398 309.760256 
L 166.183731 238.468788 
L 166.843064 299.532788 
L 167.502397 246.289793 
L 168.161731 234.257478 
L 168.821064 257.118877 
L 169.480397 227.639705 
L 170.13973 250.501103 
L 170.799064 288.102088 
L 171.458397 258.0213 
L 172.11773 305.849753 
L 172.777064 247.493025 
L 173.436397 242.078483 
L 174.09573 315.776413 
L 174.755063 307.955408 
L 175.414397 154.844198 
L 176.07373 316.678837 
L 176.733063 253.208374 
L 177.392396 243.281714 
L 178.05173 329.312768 
L 178.711063 298.028748 
L 179.370396 322.694994 
L 180.029729 302.540867 
L 180.689063 242.680098 
L 181.348396 280.281083 
L 182.007729 290.508551 
L 182.667062 261.630995 
L 183.326396 261.931803 
L 183.985729 254.110798 
L 184.645062 307.955408 
L 185.304395 316.378029 
L 185.963729 253.509182 
L 186.623062 233.054246 
L 187.282395 303.744098 
L 187.941729 239.070404 
L 188.601062 278.175428 
L 189.260395 283.890778 
L 189.919728 318.483684 
L 190.579062 177.705597 
L 191.238395 178.006404 
L 191.897728 351.873359 
L 192.557061 300.134403 
L 193.216395 276.972197 
L 193.875728 284.492394 
L 194.535061 271.858463 
L 195.194394 278.476236 
L 195.853728 234.257478 
L 196.513061 251.704335 
L 197.172394 260.126956 
L 197.831727 233.054246 
L 198.491061 224.932434 
L 199.150394 227.338897 
L 200.469061 316.077221 
L 201.128394 319.987724 
L 201.787727 308.557024 
L 203.106394 326.906305 
L 203.765727 323.898226 
L 204.42506 325.101458 
L 205.084393 317.581261 
L 205.743727 289.004512 
L 206.40306 235.761517 
L 207.062393 306.150561 
L 207.721726 257.118877 
L 208.38106 229.444552 
L 209.040393 315.174797 
L 209.699726 304.646522 
L 210.359059 270.053616 
L 211.018393 319.386108 
L 211.677726 319.0853 
L 212.337059 318.483684 
L 212.996392 305.248137 
L 213.655726 279.37866 
L 214.315059 288.102088 
L 214.974392 265.240689 
L 215.633726 316.979645 
L 216.293059 313.670758 
L 216.952392 326.906305 
L 217.611725 321.792571 
L 218.271059 306.451369 
L 218.930392 332.020039 
L 219.589725 171.689439 
L 220.249058 322.694994 
L 220.908392 310.061064 
L 221.567725 309.760256 
L 222.227058 319.686916 
L 222.886391 307.955408 
L 223.545725 286.898857 
L 224.205058 318.483684 
L 224.864391 296.524709 
L 225.523724 328.410344 
L 226.183058 319.386108 
L 226.842391 321.792571 
L 227.501724 329.312768 
L 228.161058 314.87399 
L 228.820391 327.207113 
L 229.479724 329.01196 
L 230.139057 327.207113 
L 230.798391 289.606128 
L 231.457724 296.223901 
L 232.117057 331.418423 
L 232.77639 309.760256 
L 233.435724 326.906305 
L 234.095057 325.101458 
L 234.75439 326.605497 
L 235.413723 300.435211 
L 236.073057 327.507921 
L 236.73239 315.776413 
L 237.391723 327.808728 
L 238.71039 312.467527 
L 239.369723 248.09464 
L 240.029056 313.36995 
L 240.68839 268.850384 
L 241.347723 278.777044 
L 242.007056 145.218346 
L 242.666389 253.80999 
L 243.325723 255.314029 
L 243.985056 241.777675 
L 244.644389 225.233241 
L 245.303722 313.069142 
L 245.963056 295.02067 
L 246.622389 230.346975 
L 247.941055 214.404158 
L 248.600389 209.89204 
L 249.259722 261.330187 
L 249.919055 325.402265 
L 250.578388 329.312768 
L 251.237722 326.605497 
L 251.897055 325.101458 
L 252.556388 323.29661 
L 253.215721 225.233241 
L 254.534388 304.044906 
L 255.193721 313.36995 
L 255.853055 161.762779 
L 256.512388 331.117615 
L 257.171721 327.507921 
L 257.831054 276.972197 
L 258.490388 318.483684 
L 259.149721 289.906936 
L 259.809054 312.166719 
L 260.468387 292.313399 
L 261.127721 316.077221 
L 261.787054 254.110798 
L 262.446387 249.59868 
L 263.10572 306.451369 
L 263.765054 241.777675 
L 264.424387 324.80065 
L 265.08372 316.077221 
L 265.743053 320.288531 
L 266.402387 277.273005 
L 267.06172 310.061064 
L 267.721053 287.80128 
L 268.380387 309.760256 
L 269.03972 309.459448 
L 269.699053 312.166719 
L 270.358386 274.264926 
L 271.01772 282.988354 
L 271.677053 295.321477 
L 272.336386 256.517261 
L 272.995719 313.971566 
L 273.655053 313.670758 
L 274.314386 257.720492 
L 274.973719 324.199034 
L 275.633052 321.491763 
L 276.292386 216.209005 
L 276.951719 319.0853 
L 277.611052 304.345714 
L 278.270385 285.09401 
L 278.929719 275.468157 
L 279.589052 289.906936 
L 280.248385 169.583784 
L 280.907718 213.802542 
L 281.567052 241.777675 
L 282.226385 315.174797 
L 282.885718 304.94733 
L 283.545052 320.890147 
L 284.204385 312.768334 
L 284.863718 266.744729 
L 285.523051 325.101458 
L 286.182385 322.394187 
L 286.841718 304.044906 
L 287.501051 320.589339 
L 288.160384 326.304689 
L 288.819718 317.882068 
L 289.479051 316.678837 
L 290.138384 318.784492 
L 290.797717 261.029379 
L 291.457051 310.061064 
L 292.116384 264.639074 
L 292.775717 295.02067 
L 293.43505 311.865911 
L 294.094384 186.128217 
L 294.753717 325.402265 
L 295.41305 319.386108 
L 296.072384 317.581261 
L 296.731717 317.581261 
L 297.39105 276.370581 
L 298.050383 264.338266 
L 298.709717 256.818069 
L 299.36905 254.712414 
L 300.028383 316.979645 
L 300.687716 273.362502 
L 301.34705 219.217084 
L 302.006383 205.981537 
L 302.665716 218.31466 
L 303.325049 286.598049 
L 304.643716 196.054877 
L 305.303049 322.394187 
L 305.962382 319.386108 
L 306.621716 321.792571 
L 307.281049 279.679468 
L 307.940382 335.328925 
L 308.599715 329.914384 
L 309.259049 306.150561 
L 309.918382 326.605497 
L 310.577715 324.499842 
L 311.237049 302.240059 
L 311.896382 333.22327 
L 312.555715 333.22327 
L 313.215048 329.914384 
L 313.874382 324.499842 
L 314.533715 326.304689 
L 315.193048 300.435211 
L 315.852381 302.540867 
L 316.511715 309.15864 
L 317.171048 244.785754 
L 317.830381 297.427133 
L 318.489714 320.890147 
L 319.149048 317.581261 
L 319.808381 337.133773 
L 320.467714 260.126956 
L 321.127047 326.605497 
L 321.786381 332.020039 
L 322.445714 331.418423 
L 323.105047 336.231349 
L 323.764381 322.093379 
L 324.423714 328.410344 
L 325.083047 331.117615 
L 325.74238 322.093379 
L 326.401714 270.956039 
L 327.061047 325.101458 
L 327.72038 322.394187 
L 328.379713 316.378029 
L 329.039047 322.093379 
L 329.69838 324.199034 
L 330.357713 311.565103 
L 331.017046 275.768965 
L 331.67638 321.491763 
L 332.335713 318.182876 
L 332.995046 317.581261 
L 333.654379 351.873359 
L 334.313713 331.117615 
L 334.973046 314.87399 
L 335.632379 332.922462 
L 336.291712 333.524078 
L 336.951046 329.613576 
L 337.610379 324.80065 
L 338.269712 310.963487 
L 338.929046 304.646522 
L 339.588379 332.320847 
L 340.247712 198.762148 
L 340.907045 315.174797 
L 341.566379 318.784492 
L 342.225712 269.752808 
L 342.885045 313.069142 
L 343.544378 270.053616 
L 344.203712 289.906936 
L 344.863045 325.101458 
L 345.522378 316.678837 
L 346.181711 299.23198 
L 346.841045 327.808728 
L 347.500378 226.737281 
L 348.159711 327.507921 
L 348.819044 312.768334 
L 349.478378 279.980276 
L 350.137711 289.906936 
L 350.797044 326.906305 
L 351.456378 293.51663 
L 352.115711 284.492394 
L 352.775044 322.394187 
L 353.434377 306.150561 
L 354.093711 177.705597 
L 354.753044 321.190955 
L 355.412377 243.281714 
L 356.07171 309.15864 
L 356.731044 310.361871 
L 357.390377 260.427763 
L 358.04971 225.534049 
L 358.709043 269.151192 
L 359.368377 243.88333 
L 360.02771 274.866542 
L 360.687043 320.288531 
L 361.346376 267.045537 
L 362.00571 325.101458 
L 362.665043 326.304689 
L 363.324376 300.435211 
L 363.983709 300.134403 
L 364.643043 294.118246 
L 365.302376 330.816807 
L 365.961709 301.036827 
L 366.621043 239.972828 
L 367.280376 288.102088 
L 367.939709 305.548945 
L 368.599042 307.6546 
L 369.258376 244.785754 
L 369.917709 307.353793 
L 370.577042 284.793202 
L 371.236375 252.907566 
L 371.895709 252.305951 
L 373.214375 312.768334 
L 373.873708 280.581891 
L 374.533042 351.873359 
L 375.192375 256.517261 
L 375.851708 334.125694 
L 376.511041 315.174797 
L 377.170375 330.515999 
L 377.829708 314.272374 
L 378.489041 324.199034 
L 379.148375 328.109536 
L 379.807708 291.711783 
L 380.467041 272.159271 
L 381.126374 268.549576 
L 382.445041 320.288531 
L 383.104374 303.744098 
L 383.763707 325.101458 
L 384.423041 297.427133 
L 385.741707 233.355054 
L 387.060374 315.475605 
L 387.719707 315.776413 
L 388.37904 247.192217 
L 389.038373 332.320847 
L 389.697707 328.109536 
L 390.35704 332.922462 
L 391.016373 316.678837 
L 391.675707 326.304689 
L 392.994373 308.256216 
L 393.653706 322.995802 
L 394.31304 316.077221 
L 394.972373 315.174797 
L 395.631706 331.719231 
L 396.291039 327.808728 
L 396.950373 324.80065 
L 397.609706 320.288531 
L 398.269039 320.890147 
L 398.928372 283.289162 
L 399.587706 317.581261 
L 400.247039 304.94733 
L 400.906372 313.971566 
L 401.565705 352.174167 
L 402.225039 266.143113 
L 402.884372 295.321477 
L 403.543705 296.223901 
L 404.203038 306.752177 
L 404.862372 324.199034 
L 405.521705 259.826148 
L 406.181038 329.01196 
L 406.840372 317.882068 
L 407.499705 292.313399 
L 408.159038 319.386108 
L 408.818371 294.419054 
L 409.477705 319.386108 
L 410.137038 321.190955 
L 410.796371 325.703073 
L 411.455704 329.01196 
L 412.115038 300.435211 
L 412.774371 282.687546 
L 413.433704 147.624809 
L 414.093037 301.638443 
L 414.752371 242.379291 
L 415.411704 262.232611 
L 416.071037 253.208374 
L 416.73037 282.085931 
L 417.389704 301.337635 
L 418.049037 292.614207 
L 418.70837 326.906305 
L 419.367704 319.987724 
L 420.027037 327.507921 
L 420.68637 289.906936 
L 421.345703 319.686916 
L 422.005037 298.329556 
L 422.66437 288.102088 
L 423.323703 330.215191 
L 423.983036 329.613576 
L 424.64237 319.686916 
L 425.301703 319.0853 
L 425.961036 198.762148 
L 426.620369 272.159271 
L 427.279703 308.256216 
L 427.939036 311.565103 
L 428.598369 280.581891 
L 429.257702 229.444552 
L 429.917036 333.22327 
L 430.576369 310.963487 
L 431.235702 332.621654 
L 432.554369 332.621654 
L 433.213702 304.94733 
L 433.873035 331.719231 
L 434.532369 288.402896 
L 435.191702 287.500473 
L 435.851035 231.249399 
L 436.510368 258.322108 
L 437.169702 272.159271 
L 437.829035 202.371843 
L 438.488368 320.288531 
L 439.147701 192.445183 
L 439.807035 244.184138 
L 440.466368 219.517892 
L 441.125701 317.581261 
L 441.785034 312.166719 
L 442.444368 243.88333 
L 443.103701 313.971566 
L 443.763034 300.435211 
L 444.422367 300.736019 
L 445.081701 139.502996 
L 445.741034 310.662679 
L 446.400367 304.345714 
L 447.059701 264.338266 
L 447.719034 254.411606 
L 448.378367 238.16798 
L 449.0377 248.09464 
L 449.697034 278.175428 
L 450.356367 226.135665 
L 451.0157 316.979645 
L 451.675033 244.785754 
L 452.334367 351.873359 
L 452.9937 279.37866 
L 453.653033 320.589339 
L 454.312366 315.776413 
L 454.9717 295.02067 
L 455.631033 329.914384 
L 456.290366 329.312768 
L 456.949699 330.816807 
L 457.609033 330.215191 
L 458.268366 330.515999 
L 458.927699 331.117615 
L 459.587032 329.613576 
L 460.246366 326.304689 
L 460.905699 323.597418 
L 461.565032 319.386108 
L 462.224366 327.207113 
L 462.883699 313.069142 
L 463.543032 322.394187 
L 464.202365 324.199034 
L 464.861699 315.475605 
L 465.521032 293.817438 
L 466.180365 323.29661 
L 466.839698 319.686916 
L 467.499032 321.491763 
L 468.158365 325.101458 
L 468.817698 322.093379 
L 469.477031 320.890147 
L 470.136365 285.695625 
L 470.795698 319.386108 
L 471.455031 317.581261 
L 472.114364 321.190955 
L 472.773698 313.971566 
L 473.433031 315.776413 
L 474.092364 308.557024 
L 474.751698 259.826148 
L 475.411031 309.15864 
L 476.070364 307.6546 
L 476.729697 276.370581 
L 477.389031 351.572551 
L 478.048364 302.540867 
L 478.707697 332.020039 
L 479.36703 324.499842 
L 480.026364 319.386108 
L 480.685697 331.719231 
L 481.34503 328.410344 
L 482.004363 329.613576 
L 482.663697 325.402265 
L 483.32303 305.849753 
L 483.982363 328.711152 
L 484.641696 333.524078 
L 485.30103 328.410344 
L 485.960363 304.646522 
L 486.619696 326.605497 
L 487.279029 323.597418 
L 487.938363 311.865911 
L 488.597696 245.387369 
L 489.257029 240.273635 
L 489.916363 232.452631 
L 490.575696 246.289793 
L 491.235029 298.028748 
L 491.894362 268.248768 
L 492.553696 307.052985 
L 493.213029 279.077852 
L 493.872362 283.890778 
L 494.531695 265.541497 
L 495.191029 269.752808 
L 495.850362 263.135034 
L 496.509695 320.890147 
L 497.169028 264.338266 
L 497.828362 241.777675 
L 498.487695 233.655862 
L 499.147028 270.053616 
L 499.806361 290.207743 
L 500.465695 285.09401 
L 501.125028 316.979645 
L 501.784361 170.486207 
L 502.443695 311.865911 
L 503.103028 249.899488 
L 503.762361 267.647153 
L 504.421694 303.44329 
L 505.081028 273.964118 
L 505.740361 289.906936 
L 506.399694 270.655231 
L 506.399694 270.655231 
" style="fill:none;stroke:#ff7f0e;stroke-linecap:square;stroke-width:1.5;"/>
   </g>
   <g id="line2d_17">
    <path clip-path="url(#p2e9a15b2b3)" d="M 153.728926 349.166088 
L 154.388259 351.873359 
L 155.047592 350.369319 
L 156.366259 351.572551 
L 157.025592 351.271743 
L 157.684925 350.670127 
L 158.344258 350.369319 
L 159.003592 351.873359 
L 159.662925 352.174167 
L 160.322258 351.873359 
L 160.981591 350.068512 
L 161.640925 350.369319 
L 162.300258 351.873359 
L 162.959591 350.068512 
L 163.618925 348.86528 
L 164.278258 348.86528 
L 164.937591 350.670127 
L 165.596924 351.271743 
L 166.256258 350.970935 
L 166.915591 351.572551 
L 168.893591 350.670127 
L 169.552924 351.271743 
L 170.212257 351.271743 
L 170.87159 350.369319 
L 171.530924 352.174167 
L 172.190257 350.970935 
L 172.84959 350.970935 
L 173.508923 351.873359 
L 174.168257 351.271743 
L 174.82759 351.873359 
L 175.486923 352.174167 
L 176.146256 351.271743 
L 176.80559 348.263664 
L 177.464923 346.458817 
L 178.124256 347.060433 
L 178.78359 347.060433 
L 179.442923 347.662048 
L 180.102256 349.166088 
L 180.761589 351.873359 
L 181.420923 352.174167 
L 182.080256 350.970935 
L 182.739589 352.174167 
L 183.398922 351.271743 
L 184.058256 352.174167 
L 184.717589 352.174167 
L 185.376922 351.873359 
L 186.036255 350.670127 
L 186.695589 352.174167 
L 187.354922 351.873359 
L 188.014255 352.174167 
L 189.992255 352.174167 
L 191.310922 351.572551 
L 191.970255 351.873359 
L 192.629588 348.564472 
L 193.288921 351.271743 
L 193.948255 351.873359 
L 194.607588 351.873359 
L 195.266921 352.174167 
L 195.926254 352.174167 
L 196.585588 351.572551 
L 197.244921 352.174167 
L 197.904254 352.174167 
L 198.563587 351.271743 
L 199.222921 350.670127 
L 199.882254 352.174167 
L 200.541587 350.670127 
L 201.20092 351.271743 
L 201.860254 349.767704 
L 202.519587 350.970935 
L 203.17892 350.369319 
L 203.838253 347.962856 
L 204.497587 349.767704 
L 205.15692 349.166088 
L 205.816253 348.86528 
L 206.475587 352.174167 
L 207.13492 350.670127 
L 207.794253 352.174167 
L 208.453586 351.572551 
L 209.11292 352.174167 
L 209.772253 349.767704 
L 210.431586 350.970935 
L 211.090919 350.970935 
L 212.409586 349.166088 
L 213.068919 349.767704 
L 213.728252 349.466896 
L 214.387586 350.670127 
L 215.046919 350.670127 
L 215.706252 349.466896 
L 216.365585 351.572551 
L 217.024919 351.572551 
L 217.684252 349.466896 
L 218.343585 351.271743 
L 219.002919 350.970935 
L 219.662252 350.068512 
L 220.321585 350.670127 
L 220.980918 348.263664 
L 221.640252 350.369319 
L 222.299585 349.466896 
L 222.958918 347.962856 
L 223.618251 350.369319 
L 224.277585 350.670127 
L 224.936918 351.271743 
L 225.596251 350.369319 
L 226.255584 346.759625 
L 226.914918 349.767704 
L 227.574251 349.166088 
L 228.233584 348.263664 
L 228.892917 352.174167 
L 230.211584 350.970935 
L 230.870917 352.174167 
L 231.53025 351.873359 
L 232.189584 352.174167 
L 232.848917 350.970935 
L 233.50825 350.068512 
L 234.167584 347.962856 
L 234.826917 350.670127 
L 235.48625 351.572551 
L 236.145583 351.271743 
L 236.804917 351.271743 
L 237.46425 351.572551 
L 238.123583 351.271743 
L 238.782916 350.670127 
L 239.44225 351.271743 
L 240.101583 352.174167 
L 240.760916 348.86528 
L 241.420249 350.369319 
L 242.079583 350.068512 
L 242.738916 351.572551 
L 243.398249 352.174167 
L 244.057582 352.174167 
L 244.716916 350.970935 
L 245.376249 351.572551 
L 246.035582 350.670127 
L 246.694916 351.873359 
L 247.354249 351.271743 
L 248.013582 351.873359 
L 248.672915 352.174167 
L 249.332249 351.271743 
L 249.991582 350.970935 
L 250.650915 350.970935 
L 251.310248 351.572551 
L 251.969582 350.970935 
L 252.628915 350.670127 
L 253.288248 352.174167 
L 253.947581 350.670127 
L 255.266248 351.271743 
L 255.925581 351.271743 
L 256.584914 351.572551 
L 257.244248 349.466896 
L 257.903581 350.670127 
L 258.562914 349.166088 
L 259.222247 350.970935 
L 259.881581 351.873359 
L 260.540914 352.174167 
L 261.200247 351.271743 
L 261.859581 352.174167 
L 262.518914 352.174167 
L 263.178247 351.873359 
L 263.83758 350.970935 
L 264.496914 351.572551 
L 265.81558 351.572551 
L 266.474913 350.369319 
L 267.134247 352.174167 
L 267.79358 351.572551 
L 269.112246 351.572551 
L 269.77158 352.174167 
L 271.090246 351.572551 
L 271.749579 351.572551 
L 273.068246 352.174167 
L 273.727579 351.873359 
L 274.386913 350.670127 
L 275.046246 350.369319 
L 275.705579 351.271743 
L 276.364912 350.369319 
L 277.024246 351.873359 
L 278.342912 351.271743 
L 279.002245 352.174167 
L 279.661579 351.873359 
L 280.320912 349.767704 
L 280.980245 349.767704 
L 282.298912 352.174167 
L 282.958245 350.970935 
L 283.617578 351.572551 
L 284.276911 351.572551 
L 284.936245 350.970935 
L 285.595578 350.068512 
L 286.254911 350.970935 
L 286.914245 350.068512 
L 287.573578 350.670127 
L 288.232911 350.369319 
L 288.892244 349.466896 
L 289.551578 349.166088 
L 290.210911 350.670127 
L 290.870244 350.068512 
L 291.529577 350.068512 
L 292.188911 351.271743 
L 292.848244 351.873359 
L 293.507577 351.572551 
L 294.16691 352.174167 
L 294.826244 351.572551 
L 295.485577 349.166088 
L 296.14491 349.166088 
L 296.804243 350.369319 
L 297.463577 351.873359 
L 298.12291 351.271743 
L 298.782243 351.873359 
L 299.441576 352.174167 
L 300.10091 351.572551 
L 300.760243 351.271743 
L 301.419576 351.271743 
L 302.07891 352.174167 
L 302.738243 349.767704 
L 303.397576 351.572551 
L 304.716243 352.174167 
L 306.034909 351.572551 
L 306.694242 348.564472 
L 307.353576 351.572551 
L 308.012909 350.670127 
L 308.672242 348.86528 
L 309.331575 348.263664 
L 309.990909 350.970935 
L 310.650242 348.564472 
L 311.309575 350.670127 
L 311.968908 350.068512 
L 312.628242 350.068512 
L 313.287575 347.060433 
L 313.946908 346.458817 
L 314.606242 344.954778 
L 315.265575 349.767704 
L 315.924908 351.873359 
L 316.584241 351.873359 
L 317.243575 351.271743 
L 317.902908 352.174167 
L 318.562241 351.572551 
L 319.221574 350.068512 
L 319.880908 351.572551 
L 320.540241 350.670127 
L 321.199574 352.174167 
L 321.858907 351.271743 
L 323.177574 350.068512 
L 323.836907 349.166088 
L 324.49624 350.970935 
L 325.155574 351.873359 
L 325.814907 347.962856 
L 326.47424 347.361241 
L 327.133573 351.271743 
L 327.792907 349.166088 
L 328.45224 350.369319 
L 329.111573 350.369319 
L 330.43024 349.166088 
L 331.089573 348.86528 
L 331.748906 348.86528 
L 332.40824 349.466896 
L 333.067573 348.263664 
L 333.726906 349.767704 
L 334.386239 350.970935 
L 335.045573 350.670127 
L 335.704906 350.670127 
L 336.364239 351.572551 
L 337.023572 350.068512 
L 337.682906 350.369319 
L 338.342239 350.369319 
L 339.001572 350.670127 
L 339.660905 348.86528 
L 340.320239 348.263664 
L 340.979572 351.572551 
L 342.298239 351.572551 
L 342.957572 351.271743 
L 343.616905 351.873359 
L 344.276238 350.970935 
L 344.935572 350.970935 
L 345.594905 351.572551 
L 346.254238 349.767704 
L 346.913571 350.670127 
L 347.572905 350.670127 
L 348.232238 351.873359 
L 348.891571 350.369319 
L 349.550904 351.572551 
L 350.210238 352.174167 
L 350.869571 351.873359 
L 351.528904 350.970935 
L 352.188237 351.873359 
L 352.847571 351.572551 
L 353.506904 350.970935 
L 354.166237 350.670127 
L 354.82557 351.572551 
L 355.484904 350.369319 
L 356.144237 348.263664 
L 356.80357 347.662048 
L 357.462904 350.670127 
L 358.122237 350.670127 
L 358.78157 351.572551 
L 359.440903 352.174167 
L 360.100237 352.174167 
L 360.75957 351.572551 
L 361.418903 351.572551 
L 362.078236 352.174167 
L 362.73757 351.572551 
L 363.396903 352.174167 
L 364.056236 351.572551 
L 364.715569 351.271743 
L 366.034236 351.271743 
L 366.693569 351.572551 
L 367.352902 350.970935 
L 368.012236 351.873359 
L 368.671569 350.670127 
L 369.330902 350.970935 
L 369.990236 351.572551 
L 370.649569 351.873359 
L 371.308902 351.572551 
L 371.968235 351.572551 
L 372.627569 352.174167 
L 373.286902 350.970935 
L 373.946235 351.572551 
L 375.264902 351.572551 
L 377.242901 350.670127 
L 377.902235 350.068512 
L 378.561568 349.767704 
L 379.220901 350.068512 
L 379.880234 351.271743 
L 380.539568 351.873359 
L 381.198901 351.572551 
L 381.858234 351.572551 
L 382.517567 351.271743 
L 383.176901 350.670127 
L 383.836234 351.271743 
L 384.495567 352.174167 
L 385.154901 352.174167 
L 385.814234 351.873359 
L 386.473567 351.271743 
L 387.1329 350.970935 
L 387.792234 351.271743 
L 389.1109 350.670127 
L 389.770233 345.857201 
L 390.429567 348.263664 
L 391.0889 349.767704 
L 391.748233 349.767704 
L 392.407566 349.166088 
L 393.0669 350.369319 
L 393.726233 349.767704 
L 394.385566 350.970935 
L 395.044899 351.271743 
L 395.704233 350.970935 
L 396.363566 350.369319 
L 397.022899 350.970935 
L 397.682233 347.361241 
L 398.341566 344.954778 
L 399.000899 349.767704 
L 399.660232 349.767704 
L 400.319566 347.361241 
L 400.978899 350.068512 
L 401.638232 351.271743 
L 402.297565 352.174167 
L 402.956899 352.174167 
L 404.934898 350.369319 
L 405.594232 352.174167 
L 406.253565 351.572551 
L 406.912898 350.670127 
L 407.572231 351.873359 
L 408.231565 350.369319 
L 408.890898 351.271743 
L 409.550231 349.466896 
L 410.209564 350.970935 
L 410.868898 350.970935 
L 411.528231 350.670127 
L 412.187564 349.166088 
L 412.846898 352.174167 
L 413.506231 351.572551 
L 414.165564 352.174167 
L 414.824897 351.271743 
L 415.484231 351.572551 
L 416.143564 351.271743 
L 416.802897 352.174167 
L 418.121564 352.174167 
L 418.780897 350.970935 
L 420.099563 351.572551 
L 420.758897 352.174167 
L 422.077563 352.174167 
L 422.736896 351.572551 
L 423.39623 351.572551 
L 424.055563 350.068512 
L 424.714896 348.263664 
L 425.37423 347.962856 
L 426.033563 351.271743 
L 426.692896 349.767704 
L 427.352229 352.174167 
L 428.011563 350.670127 
L 428.670896 352.174167 
L 429.330229 352.174167 
L 429.989562 351.873359 
L 430.648896 350.970935 
L 431.308229 350.670127 
L 431.967562 350.068512 
L 432.626895 350.670127 
L 433.286229 349.767704 
L 433.945562 351.271743 
L 434.604895 351.271743 
L 435.264228 352.174167 
L 435.923562 351.572551 
L 436.582895 351.271743 
L 437.242228 352.174167 
L 437.901562 351.873359 
L 438.560895 352.174167 
L 439.220228 351.873359 
L 439.879561 352.174167 
L 440.538895 352.174167 
L 441.198228 350.970935 
L 441.857561 348.86528 
L 442.516894 350.369319 
L 443.176228 350.068512 
L 443.835561 351.873359 
L 444.494894 349.166088 
L 445.813561 352.174167 
L 446.472894 350.670127 
L 447.132227 351.271743 
L 447.79156 352.174167 
L 448.450894 350.970935 
L 449.110227 351.271743 
L 449.76956 350.369319 
L 450.428893 352.174167 
L 451.088227 352.174167 
L 451.74756 351.572551 
L 452.406893 350.369319 
L 453.72556 349.767704 
L 454.384893 348.86528 
L 455.044226 350.670127 
L 455.70356 348.86528 
L 456.362893 348.263664 
L 457.022226 349.767704 
L 457.681559 350.369319 
L 458.340893 351.271743 
L 459.000226 351.572551 
L 459.659559 350.970935 
L 460.318892 349.767704 
L 460.978226 350.369319 
L 461.637559 346.759625 
L 462.296892 348.564472 
L 462.956225 349.767704 
L 463.615559 350.670127 
L 464.274892 350.068512 
L 464.934225 349.767704 
L 465.593559 350.670127 
L 467.571558 348.86528 
L 468.230892 350.369319 
L 468.890225 350.670127 
L 469.549558 350.068512 
L 470.208891 350.970935 
L 470.868225 351.271743 
L 471.527558 349.767704 
L 472.186891 351.271743 
L 472.846224 350.068512 
L 473.505558 351.271743 
L 474.164891 350.369319 
L 474.824224 351.873359 
L 475.483557 350.369319 
L 476.142891 350.970935 
L 476.802224 352.174167 
L 477.461557 351.572551 
L 478.12089 351.873359 
L 478.780224 350.369319 
L 479.439557 351.271743 
L 480.09889 349.767704 
L 480.758224 349.466896 
L 481.417557 350.670127 
L 482.07689 349.767704 
L 482.736223 349.466896 
L 483.395557 350.970935 
L 484.05489 350.068512 
L 485.373556 348.86528 
L 486.03289 350.369319 
L 486.692223 350.068512 
L 487.351556 350.970935 
L 488.010889 350.068512 
L 488.670223 351.873359 
L 489.329556 352.174167 
L 489.988889 351.572551 
L 490.648222 352.174167 
L 491.307556 351.873359 
L 491.966889 350.369319 
L 492.626222 351.873359 
L 493.285556 351.572551 
L 493.944889 351.873359 
L 494.604222 351.271743 
L 495.263555 352.174167 
L 495.922889 351.572551 
L 496.582222 352.174167 
L 497.241555 350.670127 
L 497.900888 350.670127 
L 498.560222 352.174167 
L 499.219555 352.174167 
L 499.878888 351.271743 
L 500.538221 351.572551 
L 501.197555 352.174167 
L 502.516221 351.572551 
L 503.175554 349.466896 
L 503.834888 350.970935 
L 504.494221 349.166088 
L 505.153554 349.166088 
L 505.812887 351.271743 
L 506.472221 352.174167 
L 507.131554 350.670127 
L 507.790887 351.572551 
L 508.450221 350.970935 
L 509.109554 352.174167 
L 509.109554 352.174167 
" style="fill:none;stroke:#2ca02c;stroke-linecap:square;stroke-width:1.5;"/>
   </g>
   <g id="line2d_18">
    <path clip-path="url(#p2e9a15b2b3)" d="M 156.36494 348.86528 
L 157.024273 352.174167 
L 157.683606 352.174167 
L 158.34294 351.873359 
L 159.002273 352.174167 
L 159.661606 351.271743 
L 160.32094 352.174167 
L 160.980273 351.271743 
L 161.639606 350.068512 
L 162.298939 351.572551 
L 162.958273 348.86528 
L 163.617606 347.060433 
L 164.276939 350.068512 
L 164.936272 350.369319 
L 165.595606 352.174167 
L 167.573605 352.174167 
L 168.232939 350.670127 
L 168.892272 351.572551 
L 169.551605 350.970935 
L 170.210938 351.873359 
L 170.870272 351.572551 
L 171.529605 352.174167 
L 172.188938 350.970935 
L 172.848272 352.174167 
L 173.507605 351.572551 
L 174.166938 351.572551 
L 174.826271 349.466896 
L 175.485605 350.970935 
L 176.144938 348.86528 
L 176.804271 350.369319 
L 177.463604 350.369319 
L 178.122938 351.873359 
L 178.782271 350.970935 
L 179.441604 350.970935 
L 180.760271 352.174167 
L 181.419604 351.873359 
L 182.078937 351.873359 
L 182.73827 350.970935 
L 184.056937 351.572551 
L 184.71627 352.174167 
L 185.375603 351.271743 
L 186.034937 351.271743 
L 186.69427 350.970935 
L 187.353603 351.572551 
L 188.012937 350.970935 
L 188.67227 350.970935 
L 189.331603 351.873359 
L 189.990936 352.174167 
L 191.309603 350.970935 
L 191.968936 350.970935 
L 192.628269 352.174167 
L 193.287603 352.174167 
L 193.946936 351.873359 
L 194.606269 351.271743 
L 195.265602 352.174167 
L 195.924936 350.970935 
L 196.584269 352.174167 
L 197.243602 351.572551 
L 197.902935 351.572551 
L 198.562269 349.767704 
L 199.221602 351.873359 
L 199.880935 351.271743 
L 200.540269 349.767704 
L 201.199602 349.466896 
L 201.858935 347.060433 
L 202.518268 349.767704 
L 203.177602 349.166088 
L 203.836935 350.670127 
L 204.496268 348.263664 
L 205.155601 349.767704 
L 205.814935 349.767704 
L 206.474268 350.068512 
L 207.133601 350.970935 
L 207.792934 351.572551 
L 208.452268 350.970935 
L 209.111601 350.970935 
L 209.770934 348.263664 
L 210.430267 350.970935 
L 211.089601 351.271743 
L 211.748934 350.369319 
L 212.408267 350.068512 
L 213.0676 350.369319 
L 213.726934 350.970935 
L 214.386267 350.670127 
L 215.0456 350.068512 
L 215.704934 350.369319 
L 216.364267 350.369319 
L 217.0236 351.271743 
L 217.682933 350.670127 
L 218.342267 351.271743 
L 219.0016 352.174167 
L 219.660933 352.174167 
L 220.320266 350.970935 
L 220.9796 348.564472 
L 221.638933 347.361241 
L 222.298266 348.263664 
L 222.957599 348.564472 
L 223.616933 350.970935 
L 225.594932 349.166088 
L 226.254266 349.466896 
L 226.913599 348.86528 
L 227.572932 348.564472 
L 228.232266 344.954778 
L 228.891599 351.572551 
L 230.210265 351.572551 
L 230.869599 352.174167 
L 231.528932 351.873359 
L 232.188265 350.369319 
L 232.847598 351.572551 
L 233.506932 350.970935 
L 234.166265 351.271743 
L 234.825598 350.970935 
L 235.484931 352.174167 
L 236.144265 351.271743 
L 236.803598 352.174167 
L 238.122264 349.166088 
L 238.781598 350.670127 
L 239.440931 348.263664 
L 240.100264 351.572551 
L 242.078264 351.572551 
L 242.737597 352.174167 
L 243.396931 352.174167 
L 244.715597 351.572551 
L 245.37493 350.970935 
L 246.693597 352.174167 
L 248.012263 352.174167 
L 248.671597 351.271743 
L 249.33093 352.174167 
L 249.990263 350.970935 
L 250.649596 350.369319 
L 251.30893 349.466896 
L 251.968263 350.369319 
L 252.627596 350.670127 
L 253.286929 352.174167 
L 253.946263 352.174167 
L 254.605596 351.873359 
L 255.264929 351.271743 
L 255.924263 351.572551 
L 256.583596 350.670127 
L 257.242929 349.166088 
L 257.902262 350.369319 
L 258.561596 350.068512 
L 259.220929 350.068512 
L 259.880262 351.572551 
L 260.539595 352.174167 
L 261.198929 350.970935 
L 261.858262 352.174167 
L 262.517595 352.174167 
L 263.176928 351.572551 
L 264.495595 350.970935 
L 265.154928 351.271743 
L 265.814261 350.670127 
L 266.473595 349.466896 
L 267.132928 351.572551 
L 267.792261 350.068512 
L 268.451594 352.174167 
L 269.110928 351.271743 
L 269.770261 350.970935 
L 270.429594 349.767704 
L 271.088928 352.174167 
L 273.066927 352.174167 
L 273.726261 351.572551 
L 274.385594 351.572551 
L 275.044927 350.369319 
L 275.70426 348.564472 
L 276.363594 350.068512 
L 277.022927 350.970935 
L 277.68226 351.271743 
L 278.341593 351.271743 
L 279.000927 352.174167 
L 279.66026 351.572551 
L 280.319593 348.86528 
L 280.978926 351.873359 
L 281.63826 351.572551 
L 282.297593 352.174167 
L 282.956926 349.466896 
L 283.61626 351.572551 
L 284.275593 350.670127 
L 284.934926 350.970935 
L 285.594259 350.670127 
L 286.253593 350.670127 
L 286.912926 350.369319 
L 287.572259 349.466896 
L 288.231592 350.068512 
L 288.890926 347.962856 
L 289.550259 350.670127 
L 290.209592 350.068512 
L 291.528259 350.670127 
L 292.187592 352.174167 
L 292.846925 351.572551 
L 293.506258 351.271743 
L 294.165592 351.271743 
L 294.824925 350.970935 
L 295.484258 348.263664 
L 296.143592 350.970935 
L 296.802925 349.166088 
L 297.462258 351.572551 
L 298.121591 351.873359 
L 298.780925 351.271743 
L 299.440258 351.572551 
L 300.099591 351.572551 
L 301.418258 350.970935 
L 302.077591 352.174167 
L 302.736924 350.970935 
L 303.396257 351.572551 
L 304.055591 351.572551 
L 304.714924 350.670127 
L 305.374257 348.86528 
L 306.03359 350.369319 
L 306.692924 347.060433 
L 307.352257 350.670127 
L 308.01159 349.166088 
L 308.670923 342.548315 
L 309.330257 349.466896 
L 309.98959 350.670127 
L 310.648923 351.572551 
L 311.308257 350.369319 
L 311.96759 351.271743 
L 312.626923 350.970935 
L 313.286256 349.767704 
L 313.94559 347.060433 
L 314.604923 350.068512 
L 315.264256 349.767704 
L 315.923589 350.670127 
L 316.582923 351.271743 
L 317.242256 352.174167 
L 317.901589 351.873359 
L 318.560922 352.174167 
L 319.220256 350.970935 
L 319.879589 351.271743 
L 320.538922 350.670127 
L 321.198255 351.873359 
L 321.857589 351.572551 
L 322.516922 349.166088 
L 323.176255 350.068512 
L 323.835589 351.271743 
L 324.494922 351.572551 
L 325.154255 350.670127 
L 325.813588 347.962856 
L 326.472922 350.068512 
L 327.132255 351.572551 
L 327.791588 349.767704 
L 328.450921 349.466896 
L 329.110255 349.466896 
L 329.769588 350.970935 
L 330.428921 349.767704 
L 331.088254 349.466896 
L 331.747588 347.361241 
L 333.066254 349.767704 
L 334.384921 347.962856 
L 335.044254 351.271743 
L 335.703587 349.767704 
L 336.36292 350.369319 
L 337.022254 349.767704 
L 337.681587 348.564472 
L 338.34092 349.767704 
L 339.000254 349.767704 
L 339.659587 349.166088 
L 340.31892 351.572551 
L 340.978253 352.174167 
L 341.637587 351.572551 
L 342.29692 351.572551 
L 342.956253 350.670127 
L 343.615586 351.873359 
L 344.27492 352.174167 
L 344.934253 351.873359 
L 346.252919 350.068512 
L 346.912253 350.970935 
L 348.230919 350.970935 
L 349.549586 352.174167 
L 350.208919 351.572551 
L 350.868252 351.271743 
L 351.527586 349.466896 
L 352.186919 350.670127 
L 352.846252 350.970935 
L 353.505585 350.670127 
L 354.164919 352.174167 
L 354.824252 349.767704 
L 355.483585 345.857201 
L 356.802252 349.767704 
L 357.461585 347.060433 
L 358.120918 351.572551 
L 358.780251 351.271743 
L 359.439585 351.572551 
L 360.098918 352.174167 
L 360.758251 352.174167 
L 361.417584 350.670127 
L 362.076918 350.369319 
L 362.736251 350.670127 
L 363.395584 350.670127 
L 364.054917 351.271743 
L 364.714251 352.174167 
L 365.373584 351.873359 
L 366.032917 349.767704 
L 366.692251 351.873359 
L 367.351584 350.970935 
L 368.010917 352.174167 
L 368.67025 352.174167 
L 369.329584 351.873359 
L 369.988917 350.970935 
L 370.64825 350.670127 
L 371.307583 351.572551 
L 372.62625 352.174167 
L 373.285583 352.174167 
L 373.944916 350.970935 
L 374.60425 350.670127 
L 375.263583 351.873359 
L 375.922916 350.068512 
L 376.582249 349.767704 
L 377.241583 348.263664 
L 377.900916 350.970935 
L 378.560249 349.767704 
L 379.219583 350.970935 
L 379.878916 351.572551 
L 380.538249 351.572551 
L 381.197582 350.970935 
L 381.856916 350.970935 
L 382.516249 351.572551 
L 383.834915 350.369319 
L 385.153582 352.174167 
L 387.131582 352.174167 
L 387.790915 351.873359 
L 388.450248 349.466896 
L 389.109581 350.670127 
L 389.768915 347.662048 
L 390.428248 350.970935 
L 391.087581 349.767704 
L 391.746914 349.466896 
L 392.406248 346.759625 
L 393.065581 350.068512 
L 393.724914 349.466896 
L 394.384248 350.670127 
L 395.043581 351.271743 
L 395.702914 350.369319 
L 396.362247 350.068512 
L 397.021581 348.86528 
L 397.680914 347.060433 
L 398.340247 348.86528 
L 398.99958 349.466896 
L 399.658914 345.556393 
L 400.318247 350.068512 
L 400.97758 350.068512 
L 401.636913 350.670127 
L 402.296247 351.873359 
L 402.95558 351.572551 
L 403.614913 350.670127 
L 404.274246 351.572551 
L 404.93358 352.174167 
L 405.592913 352.174167 
L 406.252246 351.572551 
L 407.570913 351.572551 
L 408.230246 350.068512 
L 408.889579 349.466896 
L 409.548913 349.166088 
L 410.208246 350.369319 
L 410.867579 350.369319 
L 411.526912 350.068512 
L 412.186246 343.14993 
L 412.845579 350.369319 
L 413.504912 351.271743 
L 414.164245 351.572551 
L 414.823579 351.271743 
L 415.482912 349.466896 
L 416.142245 351.271743 
L 416.801578 352.174167 
L 417.460912 350.670127 
L 418.120245 352.174167 
L 418.779578 350.970935 
L 420.098245 352.174167 
L 420.757578 351.271743 
L 421.416911 351.572551 
L 422.076245 352.174167 
L 422.735578 352.174167 
L 423.394911 350.670127 
L 425.372911 348.86528 
L 426.032244 351.873359 
L 427.350911 351.271743 
L 428.010244 351.572551 
L 428.669577 350.670127 
L 429.32891 351.873359 
L 429.988244 351.572551 
L 430.647577 350.970935 
L 431.30691 351.572551 
L 431.966243 349.767704 
L 432.625577 349.166088 
L 433.28491 350.369319 
L 433.944243 351.271743 
L 434.603577 350.670127 
L 435.26291 351.572551 
L 435.922243 352.174167 
L 436.581576 351.271743 
L 437.24091 352.174167 
L 437.900243 351.271743 
L 438.559576 352.174167 
L 439.218909 351.271743 
L 439.878243 351.873359 
L 440.537576 351.572551 
L 441.196909 350.670127 
L 441.856242 351.873359 
L 442.515576 351.873359 
L 443.174909 350.369319 
L 443.834242 347.962856 
L 444.493575 350.670127 
L 445.152909 352.174167 
L 445.812242 352.174167 
L 446.471575 351.572551 
L 447.130909 351.271743 
L 447.790242 352.174167 
L 448.449575 350.970935 
L 449.108908 351.873359 
L 449.768242 352.174167 
L 450.427575 351.572551 
L 451.086908 351.873359 
L 451.746241 351.873359 
L 452.405575 350.970935 
L 453.064908 350.670127 
L 454.383574 349.466896 
L 455.042908 349.166088 
L 455.702241 350.068512 
L 456.361574 350.670127 
L 457.020907 350.068512 
L 458.339574 348.263664 
L 458.998907 350.068512 
L 459.65824 347.662048 
L 460.317574 349.166088 
L 461.63624 348.564472 
L 462.295574 350.068512 
L 462.954907 349.166088 
L 463.61424 349.767704 
L 464.273573 348.564472 
L 464.932907 350.068512 
L 465.59224 349.466896 
L 466.251573 348.263664 
L 466.910906 347.662048 
L 467.57024 349.466896 
L 468.229573 349.166088 
L 468.888906 348.564472 
L 469.548239 349.466896 
L 470.207573 346.158009 
L 470.866906 349.166088 
L 471.526239 350.369319 
L 472.185572 350.068512 
L 472.844906 348.564472 
L 473.504239 350.670127 
L 474.163572 349.166088 
L 474.822906 352.174167 
L 475.482239 351.572551 
L 476.141572 349.767704 
L 477.460239 350.970935 
L 478.778905 351.572551 
L 479.438238 350.068512 
L 480.097572 352.174167 
L 480.756905 350.970935 
L 481.416238 350.369319 
L 482.075571 349.466896 
L 482.734905 343.450738 
L 483.394238 341.044275 
L 484.053571 349.767704 
L 484.712904 348.86528 
L 485.372238 349.466896 
L 486.031571 351.271743 
L 486.690904 350.670127 
L 487.350237 350.369319 
L 488.009571 349.767704 
L 488.668904 351.572551 
L 489.987571 351.572551 
L 490.646904 352.174167 
L 491.306237 351.873359 
L 491.96557 351.271743 
L 492.624904 351.271743 
L 493.284237 351.873359 
L 493.94357 351.873359 
L 494.602903 352.174167 
L 495.262237 352.174167 
L 495.92157 350.970935 
L 496.580903 352.174167 
L 497.240236 352.174167 
L 497.89957 351.271743 
L 498.558903 351.271743 
L 499.218236 351.572551 
L 500.536903 351.572551 
L 501.196236 352.174167 
L 501.855569 351.271743 
L 502.514903 351.572551 
L 503.174236 350.670127 
L 503.833569 351.271743 
L 504.492902 351.572551 
L 505.152236 350.670127 
L 505.811569 350.670127 
L 506.470902 351.271743 
L 507.130235 351.572551 
L 507.789569 351.572551 
L 508.448902 352.174167 
L 509.108235 352.174167 
L 509.767568 351.572551 
L 510.426902 351.572551 
L 511.745568 350.970935 
L 511.745568 350.970935 
" style="fill:none;stroke:#d62728;stroke-linecap:square;stroke-width:1.5;"/>
   </g>
   <g id="patch_3">
    <path d="M 130.230156 352.174167 
L 130.230156 35.0625 
" style="fill:none;stroke:#000000;stroke-linecap:square;stroke-linejoin:miter;stroke-width:0.8;"/>
   </g>
   <g id="patch_4">
    <path d="M 529.912969 352.174167 
L 529.912969 35.0625 
" style="fill:none;stroke:#000000;stroke-linecap:square;stroke-linejoin:miter;stroke-width:0.8;"/>
   </g>
   <g id="patch_5">
    <path d="M 130.230156 352.174167 
L 529.912969 352.174167 
" style="fill:none;stroke:#000000;stroke-linecap:square;stroke-linejoin:miter;stroke-width:0.8;"/>
   </g>
   <g id="patch_6">
    <path d="M 130.230156 35.0625 
L 529.912969 35.0625 
" style="fill:none;stroke:#000000;stroke-linecap:square;stroke-linejoin:miter;stroke-width:0.8;"/>
   </g>
   <g id="legend_1">
    <g id="patch_7">
     <path d="M 551.897109 96.775 
L 623.092422 96.775 
Q 625.092422 96.775 625.092422 94.775 
L 625.092422 37.0625 
Q 625.092422 35.0625 623.092422 35.0625 
L 551.897109 35.0625 
Q 549.897109 35.0625 549.897109 37.0625 
L 549.897109 94.775 
Q 549.897109 96.775 551.897109 96.775 
z
" style="fill:#ffffff;opacity:0.8;stroke:#cccccc;stroke-linejoin:miter;"/>
    </g>
    <g id="line2d_19">
     <path d="M 553.897109 43.160937 
L 573.897109 43.160937 
" style="fill:none;stroke:#1f77b4;stroke-linecap:square;stroke-width:1.5;"/>
    </g>
    <g id="line2d_20"/>
    <g id="text_16">
     <!-- bbr2-pi -->
     <defs>
      <path d="M 41.109375 46.296875 
Q 39.59375 47.171875 37.8125 47.578125 
Q 36.03125 48 33.890625 48 
Q 26.265625 48 22.1875 43.046875 
Q 18.109375 38.09375 18.109375 28.8125 
L 18.109375 0 
L 9.078125 0 
L 9.078125 54.6875 
L 18.109375 54.6875 
L 18.109375 46.1875 
Q 20.953125 51.171875 25.484375 53.578125 
Q 30.03125 56 36.53125 56 
Q 37.453125 56 38.578125 55.875 
Q 39.703125 55.765625 41.0625 55.515625 
z
" id="DejaVuSans-114"/>
      <path d="M 4.890625 31.390625 
L 31.203125 31.390625 
L 31.203125 23.390625 
L 4.890625 23.390625 
z
" id="DejaVuSans-45"/>
      <path d="M 18.109375 8.203125 
L 18.109375 -20.796875 
L 9.078125 -20.796875 
L 9.078125 54.6875 
L 18.109375 54.6875 
L 18.109375 46.390625 
Q 20.953125 51.265625 25.265625 53.625 
Q 29.59375 56 35.59375 56 
Q 45.5625 56 51.78125 48.09375 
Q 58.015625 40.1875 58.015625 27.296875 
Q 58.015625 14.40625 51.78125 6.484375 
Q 45.5625 -1.421875 35.59375 -1.421875 
Q 29.59375 -1.421875 25.265625 0.953125 
Q 20.953125 3.328125 18.109375 8.203125 
z
M 48.6875 27.296875 
Q 48.6875 37.203125 44.609375 42.84375 
Q 40.53125 48.484375 33.40625 48.484375 
Q 26.265625 48.484375 22.1875 42.84375 
Q 18.109375 37.203125 18.109375 27.296875 
Q 18.109375 17.390625 22.1875 11.75 
Q 26.265625 6.109375 33.40625 6.109375 
Q 40.53125 6.109375 44.609375 11.75 
Q 48.6875 17.390625 48.6875 27.296875 
z
" id="DejaVuSans-112"/>
     </defs>
     <g transform="translate(581.897109 46.660937)scale(0.1 -0.1)">
      <use xlink:href="#DejaVuSans-98"/>
      <use x="63.476562" xlink:href="#DejaVuSans-98"/>
      <use x="126.953125" xlink:href="#DejaVuSans-114"/>
      <use x="168.066406" xlink:href="#DejaVuSans-50"/>
      <use x="231.689453" xlink:href="#DejaVuSans-45"/>
      <use x="267.773438" xlink:href="#DejaVuSans-112"/>
      <use x="331.25" xlink:href="#DejaVuSans-105"/>
     </g>
    </g>
    <g id="line2d_21">
     <path d="M 553.897109 57.839063 
L 573.897109 57.839063 
" style="fill:none;stroke:#ff7f0e;stroke-linecap:square;stroke-width:1.5;"/>
    </g>
    <g id="line2d_22"/>
    <g id="text_17">
     <!-- bbr2-pi -->
     <g transform="translate(581.897109 61.339063)scale(0.1 -0.1)">
      <use xlink:href="#DejaVuSans-98"/>
      <use x="63.476562" xlink:href="#DejaVuSans-98"/>
      <use x="126.953125" xlink:href="#DejaVuSans-114"/>
      <use x="168.066406" xlink:href="#DejaVuSans-50"/>
      <use x="231.689453" xlink:href="#DejaVuSans-45"/>
      <use x="267.773438" xlink:href="#DejaVuSans-112"/>
      <use x="331.25" xlink:href="#DejaVuSans-105"/>
     </g>
    </g>
    <g id="line2d_23">
     <path d="M 553.897109 72.517187 
L 573.897109 72.517187 
" style="fill:none;stroke:#2ca02c;stroke-linecap:square;stroke-width:1.5;"/>
    </g>
    <g id="line2d_24"/>
    <g id="text_18">
     <!-- cubic-pi -->
     <defs>
      <path d="M 48.78125 52.59375 
L 48.78125 44.1875 
Q 44.96875 46.296875 41.140625 47.34375 
Q 37.3125 48.390625 33.40625 48.390625 
Q 24.65625 48.390625 19.8125 42.84375 
Q 14.984375 37.3125 14.984375 27.296875 
Q 14.984375 17.28125 19.8125 11.734375 
Q 24.65625 6.203125 33.40625 6.203125 
Q 37.3125 6.203125 41.140625 7.25 
Q 44.96875 8.296875 48.78125 10.40625 
L 48.78125 2.09375 
Q 45.015625 0.34375 40.984375 -0.53125 
Q 36.96875 -1.421875 32.421875 -1.421875 
Q 20.0625 -1.421875 12.78125 6.34375 
Q 5.515625 14.109375 5.515625 27.296875 
Q 5.515625 40.671875 12.859375 48.328125 
Q 20.21875 56 33.015625 56 
Q 37.15625 56 41.109375 55.140625 
Q 45.0625 54.296875 48.78125 52.59375 
z
" id="DejaVuSans-99"/>
      <path d="M 8.5 21.578125 
L 8.5 54.6875 
L 17.484375 54.6875 
L 17.484375 21.921875 
Q 17.484375 14.15625 20.5 10.265625 
Q 23.53125 6.390625 29.59375 6.390625 
Q 36.859375 6.390625 41.078125 11.03125 
Q 45.3125 15.671875 45.3125 23.6875 
L 45.3125 54.6875 
L 54.296875 54.6875 
L 54.296875 0 
L 45.3125 0 
L 45.3125 8.40625 
Q 42.046875 3.421875 37.71875 1 
Q 33.40625 -1.421875 27.6875 -1.421875 
Q 18.265625 -1.421875 13.375 4.4375 
Q 8.5 10.296875 8.5 21.578125 
z
M 31.109375 56 
z
" id="DejaVuSans-117"/>
     </defs>
     <g transform="translate(581.897109 76.017187)scale(0.1 -0.1)">
      <use xlink:href="#DejaVuSans-99"/>
      <use x="54.980469" xlink:href="#DejaVuSans-117"/>
      <use x="118.359375" xlink:href="#DejaVuSans-98"/>
      <use x="181.835938" xlink:href="#DejaVuSans-105"/>
      <use x="209.619141" xlink:href="#DejaVuSans-99"/>
      <use x="264.599609" xlink:href="#DejaVuSans-45"/>
      <use x="300.683594" xlink:href="#DejaVuSans-112"/>
      <use x="364.160156" xlink:href="#DejaVuSans-105"/>
     </g>
    </g>
    <g id="line2d_25">
     <path d="M 553.897109 87.195312 
L 573.897109 87.195312 
" style="fill:none;stroke:#d62728;stroke-linecap:square;stroke-width:1.5;"/>
    </g>
    <g id="line2d_26"/>
    <g id="text_19">
     <!-- cubic-pi -->
     <g transform="translate(581.897109 90.695312)scale(0.1 -0.1)">
      <use xlink:href="#DejaVuSans-99"/>
      <use x="54.980469" xlink:href="#DejaVuSans-117"/>
      <use x="118.359375" xlink:href="#DejaVuSans-98"/>
      <use x="181.835938" xlink:href="#DejaVuSans-105"/>
      <use x="209.619141" xlink:href="#DejaVuSans-99"/>
      <use x="264.599609" xlink:href="#DejaVuSans-45"/>
      <use x="300.683594" xlink:href="#DejaVuSans-112"/>
      <use x="364.160156" xlink:href="#DejaVuSans-105"/>
     </g>
    </g>
   </g>
  </g>
  <g id="text_20">
   <!-- result inflight -->
   <defs>
    <path id="DejaVuSans-32"/>
   </defs>
   <g transform="translate(302.110313 17.038125)scale(0.12 -0.12)">
    <use xlink:href="#DejaVuSans-114"/>
    <use x="41.082031" xlink:href="#DejaVuSans-101"/>
    <use x="102.605469" xlink:href="#DejaVuSans-115"/>
    <use x="154.705078" xlink:href="#DejaVuSans-117"/>
    <use x="218.083984" xlink:href="#DejaVuSans-108"/>
    <use x="245.867188" xlink:href="#DejaVuSans-116"/>
    <use x="285.076172" xlink:href="#DejaVuSans-32"/>
    <use x="316.863281" xlink:href="#DejaVuSans-105"/>
    <use x="344.646484" xlink:href="#DejaVuSans-110"/>
    <use x="408.025391" xlink:href="#DejaVuSans-102"/>
    <use x="443.230469" xlink:href="#DejaVuSans-108"/>
    <use x="471.013672" xlink:href="#DejaVuSans-105"/>
    <use x="498.796875" xlink:href="#DejaVuSans-103"/>
    <use x="562.273438" xlink:href="#DejaVuSans-104"/>
    <use x="625.652344" xlink:href="#DejaVuSans-116"/>
   </g>
  </g>
 </g>
 <defs>
  <clipPath id="p2e9a15b2b3">
   <rect height="317.111667" width="399.682812" x="130.230156" y="35.0625"/>
  </clipPath>
 </defs>
</svg>
