<?xml version="1.0" encoding="utf-8" standalone="no"?>
<!DOCTYPE svg PUBLIC "-//W3C//DTD SVG 1.1//EN"
  "http://www.w3.org/Graphics/SVG/1.1/DTD/svg11.dtd">
<!-- Created with matplotlib (https://matplotlib.org/) -->
<svg height="396pt" version="1.1" viewBox="0 0 684 396" width="684pt" xmlns="http://www.w3.org/2000/svg" xmlns:xlink="http://www.w3.org/1999/xlink">
 <defs>
  <style type="text/css">
*{stroke-linecap:butt;stroke-linejoin:round;}
  </style>
 </defs>
 <g id="figure_1">
  <g id="patch_1">
   <path d="M 0 396 
L 684 396 
L 684 0 
L 0 0 
z
" style="fill:#ffffff;"/>
  </g>
  <g id="axes_1">
   <g id="patch_2">
    <path d="M 83.472344 352.174167 
L 529.912969 352.174167 
L 529.912969 35.843782 
L 83.472344 35.843782 
z
" style="fill:#ffffff;"/>
   </g>
   <g id="matplotlib.axis_1">
    <g id="xtick_1">
     <g id="line2d_1">
      <defs>
       <path d="M 0 0 
L 0 3.5 
" id="m2085d99d11" style="stroke:#000000;stroke-width:0.8;"/>
      </defs>
      <g>
       <use style="stroke:#000000;stroke-width:0.8;" x="103.765099" xlink:href="#m2085d99d11" y="352.174167"/>
      </g>
     </g>
     <g id="text_1">
      <!-- 0 -->
      <defs>
       <path d="M 31.78125 66.40625 
Q 24.171875 66.40625 20.328125 58.90625 
Q 16.5 51.421875 16.5 36.375 
Q 16.5 21.390625 20.328125 13.890625 
Q 24.171875 6.390625 31.78125 6.390625 
Q 39.453125 6.390625 43.28125 13.890625 
Q 47.125 21.390625 47.125 36.375 
Q 47.125 51.421875 43.28125 58.90625 
Q 39.453125 66.40625 31.78125 66.40625 
z
M 31.78125 74.21875 
Q 44.046875 74.21875 50.515625 64.515625 
Q 56.984375 54.828125 56.984375 36.375 
Q 56.984375 17.96875 50.515625 8.265625 
Q 44.046875 -1.421875 31.78125 -1.421875 
Q 19.53125 -1.421875 13.0625 8.265625 
Q 6.59375 17.96875 6.59375 36.375 
Q 6.59375 54.828125 13.0625 64.515625 
Q 19.53125 74.21875 31.78125 74.21875 
z
" id="DejaVuSans-48"/>
      </defs>
      <g transform="translate(100.583849 366.772604)scale(0.1 -0.1)">
       <use xlink:href="#DejaVuSans-48"/>
      </g>
     </g>
    </g>
    <g id="xtick_2">
     <g id="line2d_2">
      <g>
       <use style="stroke:#000000;stroke-width:0.8;" x="177.425421" xlink:href="#m2085d99d11" y="352.174167"/>
      </g>
     </g>
     <g id="text_2">
      <!-- 50 -->
      <defs>
       <path d="M 10.796875 72.90625 
L 49.515625 72.90625 
L 49.515625 64.59375 
L 19.828125 64.59375 
L 19.828125 46.734375 
Q 21.96875 47.46875 24.109375 47.828125 
Q 26.265625 48.1875 28.421875 48.1875 
Q 40.625 48.1875 47.75 41.5 
Q 54.890625 34.8125 54.890625 23.390625 
Q 54.890625 11.625 47.5625 5.09375 
Q 40.234375 -1.421875 26.90625 -1.421875 
Q 22.3125 -1.421875 17.546875 -0.640625 
Q 12.796875 0.140625 7.71875 1.703125 
L 7.71875 11.625 
Q 12.109375 9.234375 16.796875 8.0625 
Q 21.484375 6.890625 26.703125 6.890625 
Q 35.15625 6.890625 40.078125 11.328125 
Q 45.015625 15.765625 45.015625 23.390625 
Q 45.015625 31 40.078125 35.4375 
Q 35.15625 39.890625 26.703125 39.890625 
Q 22.75 39.890625 18.8125 39.015625 
Q 14.890625 38.140625 10.796875 36.28125 
z
" id="DejaVuSans-53"/>
      </defs>
      <g transform="translate(171.062921 366.772604)scale(0.1 -0.1)">
       <use xlink:href="#DejaVuSans-53"/>
       <use x="63.623047" xlink:href="#DejaVuSans-48"/>
      </g>
     </g>
    </g>
    <g id="xtick_3">
     <g id="line2d_3">
      <g>
       <use style="stroke:#000000;stroke-width:0.8;" x="251.085743" xlink:href="#m2085d99d11" y="352.174167"/>
      </g>
     </g>
     <g id="text_3">
      <!-- 100 -->
      <defs>
       <path d="M 12.40625 8.296875 
L 28.515625 8.296875 
L 28.515625 63.921875 
L 10.984375 60.40625 
L 10.984375 69.390625 
L 28.421875 72.90625 
L 38.28125 72.90625 
L 38.28125 8.296875 
L 54.390625 8.296875 
L 54.390625 0 
L 12.40625 0 
z
" id="DejaVuSans-49"/>
      </defs>
      <g transform="translate(241.541993 366.772604)scale(0.1 -0.1)">
       <use xlink:href="#DejaVuSans-49"/>
       <use x="63.623047" xlink:href="#DejaVuSans-48"/>
       <use x="127.246094" xlink:href="#DejaVuSans-48"/>
      </g>
     </g>
    </g>
    <g id="xtick_4">
     <g id="line2d_4">
      <g>
       <use style="stroke:#000000;stroke-width:0.8;" x="324.746064" xlink:href="#m2085d99d11" y="352.174167"/>
      </g>
     </g>
     <g id="text_4">
      <!-- 150 -->
      <g transform="translate(315.202314 366.772604)scale(0.1 -0.1)">
       <use xlink:href="#DejaVuSans-49"/>
       <use x="63.623047" xlink:href="#DejaVuSans-53"/>
       <use x="127.246094" xlink:href="#DejaVuSans-48"/>
      </g>
     </g>
    </g>
    <g id="xtick_5">
     <g id="line2d_5">
      <g>
       <use style="stroke:#000000;stroke-width:0.8;" x="398.406386" xlink:href="#m2085d99d11" y="352.174167"/>
      </g>
     </g>
     <g id="text_5">
      <!-- 200 -->
      <defs>
       <path d="M 19.1875 8.296875 
L 53.609375 8.296875 
L 53.609375 0 
L 7.328125 0 
L 7.328125 8.296875 
Q 12.9375 14.109375 22.625 23.890625 
Q 32.328125 33.6875 34.8125 36.53125 
Q 39.546875 41.84375 41.421875 45.53125 
Q 43.3125 49.21875 43.3125 52.78125 
Q 43.3125 58.59375 39.234375 62.25 
Q 35.15625 65.921875 28.609375 65.921875 
Q 23.96875 65.921875 18.8125 64.3125 
Q 13.671875 62.703125 7.8125 59.421875 
L 7.8125 69.390625 
Q 13.765625 71.78125 18.9375 73 
Q 24.125 74.21875 28.421875 74.21875 
Q 39.75 74.21875 46.484375 68.546875 
Q 53.21875 62.890625 53.21875 53.421875 
Q 53.21875 48.921875 51.53125 44.890625 
Q 49.859375 40.875 45.40625 35.40625 
Q 44.1875 33.984375 37.640625 27.21875 
Q 31.109375 20.453125 19.1875 8.296875 
z
" id="DejaVuSans-50"/>
      </defs>
      <g transform="translate(388.862636 366.772604)scale(0.1 -0.1)">
       <use xlink:href="#DejaVuSans-50"/>
       <use x="63.623047" xlink:href="#DejaVuSans-48"/>
       <use x="127.246094" xlink:href="#DejaVuSans-48"/>
      </g>
     </g>
    </g>
    <g id="xtick_6">
     <g id="line2d_6">
      <g>
       <use style="stroke:#000000;stroke-width:0.8;" x="472.066708" xlink:href="#m2085d99d11" y="352.174167"/>
      </g>
     </g>
     <g id="text_6">
      <!-- 250 -->
      <g transform="translate(462.522958 366.772604)scale(0.1 -0.1)">
       <use xlink:href="#DejaVuSans-50"/>
       <use x="63.623047" xlink:href="#DejaVuSans-53"/>
       <use x="127.246094" xlink:href="#DejaVuSans-48"/>
      </g>
     </g>
    </g>
   </g>
   <g id="matplotlib.axis_2">
    <g id="ytick_1">
     <g id="line2d_7">
      <defs>
       <path d="M 0 0 
L -3.5 0 
" id="mb39de3a3d0" style="stroke:#000000;stroke-width:0.8;"/>
      </defs>
      <g>
       <use style="stroke:#000000;stroke-width:0.8;" x="83.472344" xlink:href="#mb39de3a3d0" y="352.174167"/>
      </g>
     </g>
     <g id="text_7">
      <!-- 0 -->
      <g transform="translate(70.109844 355.973385)scale(0.1 -0.1)">
       <use xlink:href="#DejaVuSans-48"/>
      </g>
     </g>
    </g>
    <g id="ytick_2">
     <g id="line2d_8">
      <g>
       <use style="stroke:#000000;stroke-width:0.8;" x="83.472344" xlink:href="#mb39de3a3d0" y="307.112858"/>
      </g>
     </g>
     <g id="text_8">
      <!-- 10 -->
      <g transform="translate(63.747344 310.912077)scale(0.1 -0.1)">
       <use xlink:href="#DejaVuSans-49"/>
       <use x="63.623047" xlink:href="#DejaVuSans-48"/>
      </g>
     </g>
    </g>
    <g id="ytick_3">
     <g id="line2d_9">
      <g>
       <use style="stroke:#000000;stroke-width:0.8;" x="83.472344" xlink:href="#mb39de3a3d0" y="262.05155"/>
      </g>
     </g>
     <g id="text_9">
      <!-- 20 -->
      <g transform="translate(63.747344 265.850769)scale(0.1 -0.1)">
       <use xlink:href="#DejaVuSans-50"/>
       <use x="63.623047" xlink:href="#DejaVuSans-48"/>
      </g>
     </g>
    </g>
    <g id="ytick_4">
     <g id="line2d_10">
      <g>
       <use style="stroke:#000000;stroke-width:0.8;" x="83.472344" xlink:href="#mb39de3a3d0" y="216.990242"/>
      </g>
     </g>
     <g id="text_10">
      <!-- 30 -->
      <defs>
       <path d="M 40.578125 39.3125 
Q 47.65625 37.796875 51.625 33 
Q 55.609375 28.21875 55.609375 21.1875 
Q 55.609375 10.40625 48.1875 4.484375 
Q 40.765625 -1.421875 27.09375 -1.421875 
Q 22.515625 -1.421875 17.65625 -0.515625 
Q 12.796875 0.390625 7.625 2.203125 
L 7.625 11.71875 
Q 11.71875 9.328125 16.59375 8.109375 
Q 21.484375 6.890625 26.8125 6.890625 
Q 36.078125 6.890625 40.9375 10.546875 
Q 45.796875 14.203125 45.796875 21.1875 
Q 45.796875 27.640625 41.28125 31.265625 
Q 36.765625 34.90625 28.71875 34.90625 
L 20.21875 34.90625 
L 20.21875 43.015625 
L 29.109375 43.015625 
Q 36.375 43.015625 40.234375 45.921875 
Q 44.09375 48.828125 44.09375 54.296875 
Q 44.09375 59.90625 40.109375 62.90625 
Q 36.140625 65.921875 28.71875 65.921875 
Q 24.65625 65.921875 20.015625 65.03125 
Q 15.375 64.15625 9.8125 62.3125 
L 9.8125 71.09375 
Q 15.4375 72.65625 20.34375 73.4375 
Q 25.25 74.21875 29.59375 74.21875 
Q 40.828125 74.21875 47.359375 69.109375 
Q 53.90625 64.015625 53.90625 55.328125 
Q 53.90625 49.265625 50.4375 45.09375 
Q 46.96875 40.921875 40.578125 39.3125 
z
" id="DejaVuSans-51"/>
      </defs>
      <g transform="translate(63.747344 220.78946)scale(0.1 -0.1)">
       <use xlink:href="#DejaVuSans-51"/>
       <use x="63.623047" xlink:href="#DejaVuSans-48"/>
      </g>
     </g>
    </g>
    <g id="ytick_5">
     <g id="line2d_11">
      <g>
       <use style="stroke:#000000;stroke-width:0.8;" x="83.472344" xlink:href="#mb39de3a3d0" y="171.928933"/>
      </g>
     </g>
     <g id="text_11">
      <!-- 40 -->
      <defs>
       <path d="M 37.796875 64.3125 
L 12.890625 25.390625 
L 37.796875 25.390625 
z
M 35.203125 72.90625 
L 47.609375 72.90625 
L 47.609375 25.390625 
L 58.015625 25.390625 
L 58.015625 17.1875 
L 47.609375 17.1875 
L 47.609375 0 
L 37.796875 0 
L 37.796875 17.1875 
L 4.890625 17.1875 
L 4.890625 26.703125 
z
" id="DejaVuSans-52"/>
      </defs>
      <g transform="translate(63.747344 175.728152)scale(0.1 -0.1)">
       <use xlink:href="#DejaVuSans-52"/>
       <use x="63.623047" xlink:href="#DejaVuSans-48"/>
      </g>
     </g>
    </g>
    <g id="ytick_6">
     <g id="line2d_12">
      <g>
       <use style="stroke:#000000;stroke-width:0.8;" x="83.472344" xlink:href="#mb39de3a3d0" y="126.867625"/>
      </g>
     </g>
     <g id="text_12">
      <!-- 50 -->
      <g transform="translate(63.747344 130.666844)scale(0.1 -0.1)">
       <use xlink:href="#DejaVuSans-53"/>
       <use x="63.623047" xlink:href="#DejaVuSans-48"/>
      </g>
     </g>
    </g>
    <g id="ytick_7">
     <g id="line2d_13">
      <g>
       <use style="stroke:#000000;stroke-width:0.8;" x="83.472344" xlink:href="#mb39de3a3d0" y="81.806317"/>
      </g>
     </g>
     <g id="text_13">
      <!-- 60 -->
      <defs>
       <path d="M 33.015625 40.375 
Q 26.375 40.375 22.484375 35.828125 
Q 18.609375 31.296875 18.609375 23.390625 
Q 18.609375 15.53125 22.484375 10.953125 
Q 26.375 6.390625 33.015625 6.390625 
Q 39.65625 6.390625 43.53125 10.953125 
Q 47.40625 15.53125 47.40625 23.390625 
Q 47.40625 31.296875 43.53125 35.828125 
Q 39.65625 40.375 33.015625 40.375 
z
M 52.59375 71.296875 
L 52.59375 62.3125 
Q 48.875 64.0625 45.09375 64.984375 
Q 41.3125 65.921875 37.59375 65.921875 
Q 27.828125 65.921875 22.671875 59.328125 
Q 17.53125 52.734375 16.796875 39.40625 
Q 19.671875 43.65625 24.015625 45.921875 
Q 28.375 48.1875 33.59375 48.1875 
Q 44.578125 48.1875 50.953125 41.515625 
Q 57.328125 34.859375 57.328125 23.390625 
Q 57.328125 12.15625 50.6875 5.359375 
Q 44.046875 -1.421875 33.015625 -1.421875 
Q 20.359375 -1.421875 13.671875 8.265625 
Q 6.984375 17.96875 6.984375 36.375 
Q 6.984375 53.65625 15.1875 63.9375 
Q 23.390625 74.21875 37.203125 74.21875 
Q 40.921875 74.21875 44.703125 73.484375 
Q 48.484375 72.75 52.59375 71.296875 
z
" id="DejaVuSans-54"/>
      </defs>
      <g transform="translate(63.747344 85.605535)scale(0.1 -0.1)">
       <use xlink:href="#DejaVuSans-54"/>
       <use x="63.623047" xlink:href="#DejaVuSans-48"/>
      </g>
     </g>
    </g>
    <g id="ytick_8">
     <g id="line2d_14">
      <g>
       <use style="stroke:#000000;stroke-width:0.8;" x="83.472344" xlink:href="#mb39de3a3d0" y="36.745008"/>
      </g>
     </g>
     <g id="text_14">
      <!-- 70 -->
      <defs>
       <path d="M 8.203125 72.90625 
L 55.078125 72.90625 
L 55.078125 68.703125 
L 28.609375 0 
L 18.3125 0 
L 43.21875 64.59375 
L 8.203125 64.59375 
z
" id="DejaVuSans-55"/>
      </defs>
      <g transform="translate(63.747344 40.544227)scale(0.1 -0.1)">
       <use xlink:href="#DejaVuSans-55"/>
       <use x="63.623047" xlink:href="#DejaVuSans-48"/>
      </g>
     </g>
    </g>
    <g id="text_15">
     <!-- rtt -->
     <defs>
      <path d="M 41.109375 46.296875 
Q 39.59375 47.171875 37.8125 47.578125 
Q 36.03125 48 33.890625 48 
Q 26.265625 48 22.1875 43.046875 
Q 18.109375 38.09375 18.109375 28.8125 
L 18.109375 0 
L 9.078125 0 
L 9.078125 54.6875 
L 18.109375 54.6875 
L 18.109375 46.1875 
Q 20.953125 51.171875 25.484375 53.578125 
Q 30.03125 56 36.53125 56 
Q 37.453125 56 38.578125 55.875 
Q 39.703125 55.765625 41.0625 55.515625 
z
" id="DejaVuSans-114"/>
      <path d="M 18.3125 70.21875 
L 18.3125 54.6875 
L 36.8125 54.6875 
L 36.8125 47.703125 
L 18.3125 47.703125 
L 18.3125 18.015625 
Q 18.3125 11.328125 20.140625 9.421875 
Q 21.96875 7.515625 27.59375 7.515625 
L 36.8125 7.515625 
L 36.8125 0 
L 27.59375 0 
Q 17.1875 0 13.234375 3.875 
Q 9.28125 7.765625 9.28125 18.015625 
L 9.28125 47.703125 
L 2.6875 47.703125 
L 2.6875 54.6875 
L 9.28125 54.6875 
L 9.28125 70.21875 
z
" id="DejaVuSans-116"/>
     </defs>
     <g transform="translate(46.469844 199.984756)rotate(-90)scale(0.1 -0.1)">
      <use xlink:href="#DejaVuSans-114"/>
      <use x="41.113281" xlink:href="#DejaVuSans-116"/>
      <use x="80.322266" xlink:href="#DejaVuSans-116"/>
     </g>
     <!-- (ms) -->
     <defs>
      <path d="M 31 75.875 
Q 24.46875 64.65625 21.28125 53.65625 
Q 18.109375 42.671875 18.109375 31.390625 
Q 18.109375 20.125 21.3125 9.0625 
Q 24.515625 -2 31 -13.1875 
L 23.1875 -13.1875 
Q 15.875 -1.703125 12.234375 9.375 
Q 8.59375 20.453125 8.59375 31.390625 
Q 8.59375 42.28125 12.203125 53.3125 
Q 15.828125 64.359375 23.1875 75.875 
z
" id="DejaVuSans-40"/>
      <path d="M 52 44.1875 
Q 55.375 50.25 60.0625 53.125 
Q 64.75 56 71.09375 56 
Q 79.640625 56 84.28125 50.015625 
Q 88.921875 44.046875 88.921875 33.015625 
L 88.921875 0 
L 79.890625 0 
L 79.890625 32.71875 
Q 79.890625 40.578125 77.09375 44.375 
Q 74.3125 48.1875 68.609375 48.1875 
Q 61.625 48.1875 57.5625 43.546875 
Q 53.515625 38.921875 53.515625 30.90625 
L 53.515625 0 
L 44.484375 0 
L 44.484375 32.71875 
Q 44.484375 40.625 41.703125 44.40625 
Q 38.921875 48.1875 33.109375 48.1875 
Q 26.21875 48.1875 22.15625 43.53125 
Q 18.109375 38.875 18.109375 30.90625 
L 18.109375 0 
L 9.078125 0 
L 9.078125 54.6875 
L 18.109375 54.6875 
L 18.109375 46.1875 
Q 21.1875 51.21875 25.484375 53.609375 
Q 29.78125 56 35.6875 56 
Q 41.65625 56 45.828125 52.96875 
Q 50 49.953125 52 44.1875 
z
" id="DejaVuSans-109"/>
      <path d="M 44.28125 53.078125 
L 44.28125 44.578125 
Q 40.484375 46.53125 36.375 47.5 
Q 32.28125 48.484375 27.875 48.484375 
Q 21.1875 48.484375 17.84375 46.4375 
Q 14.5 44.390625 14.5 40.28125 
Q 14.5 37.15625 16.890625 35.375 
Q 19.28125 33.59375 26.515625 31.984375 
L 29.59375 31.296875 
Q 39.15625 29.25 43.1875 25.515625 
Q 47.21875 21.78125 47.21875 15.09375 
Q 47.21875 7.46875 41.1875 3.015625 
Q 35.15625 -1.421875 24.609375 -1.421875 
Q 20.21875 -1.421875 15.453125 -0.5625 
Q 10.6875 0.296875 5.421875 2 
L 5.421875 11.28125 
Q 10.40625 8.6875 15.234375 7.390625 
Q 20.0625 6.109375 24.8125 6.109375 
Q 31.15625 6.109375 34.5625 8.28125 
Q 37.984375 10.453125 37.984375 14.40625 
Q 37.984375 18.0625 35.515625 20.015625 
Q 33.0625 21.96875 24.703125 23.78125 
L 21.578125 24.515625 
Q 13.234375 26.265625 9.515625 29.90625 
Q 5.8125 33.546875 5.8125 39.890625 
Q 5.8125 47.609375 11.28125 51.796875 
Q 16.75 56 26.8125 56 
Q 31.78125 56 36.171875 55.265625 
Q 40.578125 54.546875 44.28125 53.078125 
z
" id="DejaVuSans-115"/>
      <path d="M 8.015625 75.875 
L 15.828125 75.875 
Q 23.140625 64.359375 26.78125 53.3125 
Q 30.421875 42.28125 30.421875 31.390625 
Q 30.421875 20.453125 26.78125 9.375 
Q 23.140625 -1.703125 15.828125 -13.1875 
L 8.015625 -13.1875 
Q 14.5 -2 17.703125 9.0625 
Q 20.90625 20.125 20.90625 31.390625 
Q 20.90625 42.671875 17.703125 53.65625 
Q 14.5 64.65625 8.015625 75.875 
z
" id="DejaVuSans-41"/>
     </defs>
     <g transform="translate(57.667656 205.385537)rotate(-90)scale(0.1 -0.1)">
      <use xlink:href="#DejaVuSans-40"/>
      <use x="39.013672" xlink:href="#DejaVuSans-109"/>
      <use x="136.425781" xlink:href="#DejaVuSans-115"/>
      <use x="188.525391" xlink:href="#DejaVuSans-41"/>
     </g>
    </g>
   </g>
   <g id="line2d_15">
    <path clip-path="url(#p7194f7d834)" d="M 112.591079 90.818578 
L 113.327682 144.892148 
L 114.064286 126.867625 
L 114.800889 117.855363 
L 116.274095 90.818578 
L 117.010698 95.324709 
L 117.747302 104.336971 
L 118.483905 86.312447 
L 119.220508 140.386017 
L 120.693715 104.336971 
L 121.430318 90.818578 
L 122.166921 81.806317 
L 123.640127 99.83084 
L 124.376731 86.312447 
L 125.113334 104.336971 
L 125.849937 108.843102 
L 127.323144 81.806317 
L 128.059747 104.336971 
L 128.79635 113.349232 
L 129.532953 99.83084 
L 130.269556 90.818578 
L 131.00616 72.794055 
L 131.742763 113.349232 
L 132.479366 95.324709 
L 133.215969 90.818578 
L 133.952572 108.843102 
L 135.425779 72.794055 
L 136.162382 99.83084 
L 137.635589 81.806317 
L 138.372192 81.806317 
L 139.108795 95.324709 
L 139.845398 86.312447 
L 140.582001 68.287924 
L 141.318605 99.83084 
L 142.055208 86.312447 
L 142.791811 117.855363 
L 143.528414 135.879887 
L 144.265018 117.855363 
L 145.001621 104.336971 
L 146.474827 86.312447 
L 147.21143 81.806317 
L 147.948034 99.83084 
L 148.684637 86.312447 
L 149.42124 108.843102 
L 150.157843 108.843102 
L 150.894446 95.324709 
L 151.63105 86.312447 
L 152.367653 113.349232 
L 153.104256 95.324709 
L 153.840859 86.312447 
L 154.577463 95.324709 
L 155.314066 86.312447 
L 156.050669 63.781793 
L 156.787272 81.806317 
L 157.523875 108.843102 
L 158.260479 95.324709 
L 158.997082 86.312447 
L 159.733685 86.312447 
L 160.470288 77.300186 
L 161.206891 104.336971 
L 161.943495 90.818578 
L 162.680098 81.806317 
L 163.416701 126.867625 
L 164.889908 99.83084 
L 165.626511 90.818578 
L 166.363114 63.781793 
L 167.099717 104.336971 
L 167.83632 86.312447 
L 168.572924 99.83084 
L 169.309527 104.336971 
L 170.04613 90.818578 
L 170.782733 81.806317 
L 171.519337 131.373756 
L 172.992543 95.324709 
L 173.729146 86.312447 
L 174.465749 95.324709 
L 175.202353 122.361494 
L 177.412162 81.806317 
L 178.148765 95.324709 
L 178.885369 81.806317 
L 179.621972 86.312447 
L 180.358575 117.855363 
L 181.095178 117.855363 
L 182.568385 90.818578 
L 183.304988 90.818578 
L 184.041591 99.83084 
L 184.778194 81.806317 
L 185.514798 86.312447 
L 186.251401 99.83084 
L 186.988004 86.312447 
L 187.724607 108.843102 
L 188.461211 113.349232 
L 189.197814 95.324709 
L 189.934417 86.312447 
L 190.67102 86.312447 
L 191.407623 104.336971 
L 192.144227 90.818578 
L 193.617433 81.806317 
L 194.354036 108.843102 
L 195.090639 95.324709 
L 196.563846 77.300186 
L 197.300449 104.336971 
L 198.037052 90.818578 
L 198.773656 81.806317 
L 199.510259 122.361494 
L 200.246862 104.336971 
L 200.983465 90.818578 
L 201.720068 54.769532 
L 202.456672 95.324709 
L 203.193275 81.806317 
L 203.929878 86.312447 
L 204.666481 108.843102 
L 205.403085 95.324709 
L 206.139688 86.312447 
L 206.876291 63.781793 
L 207.612894 99.83084 
L 208.349497 86.312447 
L 209.086101 108.843102 
L 209.822704 95.324709 
L 210.559307 86.312447 
L 211.29591 95.324709 
L 212.769117 77.300186 
L 213.50572 99.83084 
L 214.242323 90.818578 
L 214.978926 68.287924 
L 215.71553 108.843102 
L 216.452133 95.324709 
L 217.188736 72.794055 
L 217.925339 149.398279 
L 218.661942 126.867625 
L 220.135149 99.83084 
L 221.608355 81.806317 
L 222.344958 68.287924 
L 223.081562 90.818578 
L 223.818165 108.843102 
L 224.554768 90.818578 
L 225.291371 104.336971 
L 226.027975 108.843102 
L 226.764578 95.324709 
L 227.501181 86.312447 
L 228.237784 81.806317 
L 228.974387 95.324709 
L 229.710991 81.806317 
L 230.447594 113.349232 
L 231.184197 99.83084 
L 232.657404 81.806317 
L 233.394007 90.818578 
L 234.13061 90.818578 
L 234.867213 126.867625 
L 236.34042 90.818578 
L 237.077023 90.818578 
L 237.813626 144.892148 
L 239.286832 117.855363 
L 240.023436 108.843102 
L 240.760039 95.324709 
L 241.496642 86.312447 
L 242.233245 113.349232 
L 242.969849 131.373756 
L 243.706452 113.349232 
L 245.179658 86.312447 
L 245.916261 86.312447 
L 246.652865 90.818578 
L 247.389468 86.312447 
L 248.126071 90.818578 
L 248.862674 108.843102 
L 249.599278 90.818578 
L 250.335881 90.818578 
L 251.072484 122.361494 
L 253.282294 81.806317 
L 254.018897 99.83084 
L 254.7555 113.349232 
L 255.492103 99.83084 
L 256.228706 90.818578 
L 257.701913 108.843102 
L 258.438516 95.324709 
L 259.175119 68.287924 
L 259.911723 113.349232 
L 260.648326 117.855363 
L 261.384929 99.83084 
L 262.858135 72.794055 
L 263.594739 108.843102 
L 264.331342 95.324709 
L 265.067945 86.312447 
L 265.804548 68.287924 
L 266.541152 86.312447 
L 267.277755 90.818578 
L 268.014358 77.300186 
L 268.750961 122.361494 
L 270.224168 86.312447 
L 270.960771 126.867625 
L 271.697374 131.373756 
L 273.907184 90.818578 
L 274.643787 90.818578 
L 275.38039 113.349232 
L 276.116993 95.324709 
L 276.853597 86.312447 
L 277.5902 68.287924 
L 278.326803 86.312447 
L 279.063406 108.843102 
L 280.536613 81.806317 
L 281.273216 95.324709 
L 282.009819 86.312447 
L 282.746422 72.794055 
L 283.483025 99.83084 
L 284.219629 72.794055 
L 284.956232 135.879887 
L 285.692835 113.349232 
L 286.429438 95.324709 
L 287.166042 86.312447 
L 287.902645 117.855363 
L 289.375851 90.818578 
L 290.112454 90.818578 
L 290.849058 113.349232 
L 292.322264 86.312447 
L 293.058867 86.312447 
L 293.795471 104.336971 
L 294.532074 90.818578 
L 295.268677 81.806317 
L 296.00528 104.336971 
L 296.741883 108.843102 
L 297.478487 95.324709 
L 298.21509 86.312447 
L 298.951693 68.287924 
L 299.688296 95.324709 
L 300.424899 86.312447 
L 301.161503 117.855363 
L 301.898106 99.83084 
L 302.634709 86.312447 
L 303.371312 104.336971 
L 304.107916 113.349232 
L 306.317725 86.312447 
L 307.054328 90.818578 
L 307.790932 108.843102 
L 308.527535 90.818578 
L 309.264138 99.83084 
L 310.000741 140.386017 
L 310.737345 122.361494 
L 312.210551 95.324709 
L 312.947154 86.312447 
L 313.683757 72.794055 
L 314.420361 99.83084 
L 315.156964 86.312447 
L 315.893567 108.843102 
L 316.63017 108.843102 
L 317.366773 90.818578 
L 318.103377 81.806317 
L 318.83998 95.324709 
L 319.576583 86.312447 
L 320.313186 68.287924 
L 321.04979 81.806317 
L 321.786393 90.818578 
L 322.522996 95.324709 
L 323.259599 104.336971 
L 323.996202 86.312447 
L 324.732806 90.818578 
L 325.469409 86.312447 
L 326.942615 86.312447 
L 327.679219 90.818578 
L 328.415822 86.312447 
L 329.152425 95.324709 
L 329.889028 117.855363 
L 330.625631 99.83084 
L 331.362235 86.312447 
L 332.098838 54.769532 
L 332.835441 90.818578 
L 333.572044 59.275662 
L 334.308647 99.83084 
L 335.045251 86.312447 
L 335.781854 90.818578 
L 336.518457 90.818578 
L 337.25506 113.349232 
L 337.991664 95.324709 
L 338.728267 72.794055 
L 339.46487 104.336971 
L 340.201473 90.818578 
L 340.938076 86.312447 
L 341.67468 117.855363 
L 342.411283 104.336971 
L 343.147886 95.324709 
L 343.884489 90.818578 
L 344.621092 81.806317 
L 345.357696 90.818578 
L 346.094299 54.769532 
L 346.830902 95.324709 
L 347.567505 90.818578 
L 348.304109 95.324709 
L 349.040712 86.312447 
L 349.777315 90.818578 
L 350.513918 113.349232 
L 351.987125 77.300186 
L 352.723728 131.373756 
L 353.460331 113.349232 
L 354.196934 99.83084 
L 355.670141 81.806317 
L 357.143347 108.843102 
L 357.87995 90.818578 
L 358.616554 81.806317 
L 359.353157 135.879887 
L 360.08976 117.855363 
L 361.562966 90.818578 
L 362.29957 95.324709 
L 363.036173 95.324709 
L 363.772776 86.312447 
L 364.509379 113.349232 
L 365.245983 95.324709 
L 365.982586 81.806317 
L 366.719189 99.83084 
L 367.455792 113.349232 
L 368.192395 99.83084 
L 368.928999 90.818578 
L 369.665602 95.324709 
L 370.402205 108.843102 
L 371.138808 90.818578 
L 371.875412 95.324709 
L 372.612015 108.843102 
L 373.348618 95.324709 
L 374.085221 86.312447 
L 374.821824 72.794055 
L 375.558428 99.83084 
L 376.295031 86.312447 
L 377.031634 108.843102 
L 377.768237 99.83084 
L 378.50484 86.312447 
L 379.241444 104.336971 
L 379.978047 108.843102 
L 380.71465 99.83084 
L 381.451253 86.312447 
L 382.187857 81.806317 
L 382.92446 122.361494 
L 384.397666 86.312447 
L 385.134269 104.336971 
L 385.870873 99.83084 
L 386.607476 86.312447 
L 387.344079 81.806317 
L 388.080682 90.818578 
L 388.817286 86.312447 
L 389.553889 95.324709 
L 390.290492 113.349232 
L 391.027095 95.324709 
L 392.500302 77.300186 
L 393.236905 90.818578 
L 393.973508 86.312447 
L 394.710111 90.818578 
L 395.446714 86.312447 
L 396.183318 104.336971 
L 396.919921 95.324709 
L 397.656524 63.781793 
L 398.393127 117.855363 
L 399.129731 99.83084 
L 399.866334 95.324709 
L 400.602937 131.373756 
L 401.33954 122.361494 
L 402.812747 95.324709 
L 403.54935 86.312447 
L 404.285953 90.818578 
L 405.022556 77.300186 
L 405.759159 99.83084 
L 406.495763 86.312447 
L 407.232366 99.83084 
L 407.968969 108.843102 
L 408.705572 99.83084 
L 409.442176 86.312447 
L 410.178779 126.867625 
L 410.915382 113.349232 
L 411.651985 95.324709 
L 412.388588 63.781793 
L 413.125192 126.867625 
L 414.598398 90.818578 
L 415.335001 63.781793 
L 416.071605 131.373756 
L 417.544811 104.336971 
L 419.754621 77.300186 
L 420.491224 95.324709 
L 421.227827 77.300186 
L 421.96443 104.336971 
L 423.437637 86.312447 
L 424.17424 95.324709 
L 424.910843 90.818578 
L 425.647446 104.336971 
L 426.38405 90.818578 
L 427.857256 90.818578 
L 428.593859 81.806317 
L 429.330462 126.867625 
L 430.067066 131.373756 
L 431.540272 104.336971 
L 433.013479 86.312447 
L 433.750082 90.818578 
L 435.223288 81.806317 
L 435.959891 99.83084 
L 436.696495 68.287924 
L 437.433098 90.818578 
L 438.169701 86.312447 
L 438.906304 144.892148 
L 439.642907 126.867625 
L 441.116114 99.83084 
L 441.852717 90.818578 
L 442.58932 86.312447 
L 443.325924 108.843102 
L 444.062527 95.324709 
L 444.79913 90.818578 
L 445.535733 90.818578 
L 446.272336 72.794055 
L 447.00894 131.373756 
L 448.482146 104.336971 
L 449.218749 95.324709 
L 449.955353 81.806317 
L 450.691956 95.324709 
L 451.428559 77.300186 
L 452.165162 122.361494 
L 452.901765 104.336971 
L 453.638369 90.818578 
L 454.374972 63.781793 
L 455.111575 86.312447 
L 455.848178 72.794055 
L 456.584781 99.83084 
L 457.321385 68.287924 
L 458.057988 113.349232 
L 458.794591 95.324709 
L 459.531194 63.781793 
L 460.267798 99.83084 
L 461.004401 86.312447 
L 462.477607 113.349232 
L 463.950814 86.312447 
L 464.687417 122.361494 
L 465.42402 126.867625 
L 466.160623 108.843102 
L 466.897226 95.324709 
L 467.63383 90.818578 
L 468.370433 135.879887 
L 469.107036 117.855363 
L 469.843639 104.336971 
L 471.316846 86.312447 
L 472.053449 90.818578 
L 472.790052 90.818578 
L 473.526655 99.83084 
L 474.263259 104.336971 
L 474.999862 90.818578 
L 475.736465 135.879887 
L 476.473068 117.855363 
L 477.946275 90.818578 
L 478.682878 68.287924 
L 479.419481 108.843102 
L 480.156084 95.324709 
L 480.892688 59.275662 
L 481.629291 113.349232 
L 482.365894 95.324709 
L 483.102497 86.312447 
L 483.8391 81.806317 
L 484.575704 144.892148 
L 486.04891 108.843102 
L 486.785513 99.83084 
L 487.522117 86.312447 
L 488.25872 68.287924 
L 488.995323 104.336971 
L 489.731926 77.300186 
L 490.468529 135.879887 
L 491.205133 122.361494 
L 491.941736 104.336971 
L 492.678339 95.324709 
L 493.414942 81.806317 
L 494.151546 104.336971 
L 494.888149 117.855363 
L 495.624752 104.336971 
L 496.361355 95.324709 
L 497.097958 104.336971 
L 497.834562 149.398279 
L 499.307768 113.349232 
L 500.044371 99.83084 
L 501.517578 81.806317 
L 502.254181 108.843102 
L 502.990784 99.83084 
L 503.727387 68.287924 
L 504.463991 108.843102 
L 505.937197 81.806317 
L 506.6738 113.349232 
L 508.147007 95.324709 
L 508.88361 90.818578 
L 509.620213 72.794055 
L 509.620213 72.794055 
" style="fill:none;stroke:#1f77b4;stroke-linecap:square;stroke-width:1.5;"/>
   </g>
   <g id="line2d_16">
    <path clip-path="url(#p7194f7d834)" d="M 106.729191 104.336971 
L 107.465794 117.855363 
L 108.202397 99.83084 
L 108.939 113.349232 
L 109.675604 95.324709 
L 111.14881 95.324709 
L 111.885413 86.312447 
L 112.622017 108.843102 
L 113.35862 140.386017 
L 114.095223 122.361494 
L 114.831826 113.349232 
L 115.568429 99.83084 
L 116.305033 90.818578 
L 117.041636 90.818578 
L 117.778239 99.83084 
L 118.514842 68.287924 
L 119.251445 140.386017 
L 119.988049 117.855363 
L 121.461255 90.818578 
L 122.197858 81.806317 
L 122.934462 108.843102 
L 123.671065 99.83084 
L 124.407668 86.312447 
L 125.144271 77.300186 
L 125.880874 108.843102 
L 126.617478 95.324709 
L 127.354081 63.781793 
L 128.090684 126.867625 
L 129.56389 99.83084 
L 130.300494 90.818578 
L 131.037097 95.324709 
L 131.7737 108.843102 
L 132.510303 95.324709 
L 133.246907 68.287924 
L 133.98351 108.843102 
L 134.720113 90.818578 
L 135.456716 99.83084 
L 136.193319 95.324709 
L 136.929923 86.312447 
L 137.666526 81.806317 
L 138.403129 104.336971 
L 139.139732 95.324709 
L 139.876336 81.806317 
L 140.612939 104.336971 
L 141.349542 99.83084 
L 142.086145 86.312447 
L 142.822748 122.361494 
L 143.559352 131.373756 
L 145.032558 104.336971 
L 145.769161 95.324709 
L 146.505764 81.806317 
L 147.242368 86.312447 
L 147.978971 95.324709 
L 148.715574 86.312447 
L 149.452177 81.806317 
L 150.188781 108.843102 
L 150.925384 95.324709 
L 151.661987 54.769532 
L 152.39859 113.349232 
L 153.135193 95.324709 
L 153.871797 86.312447 
L 154.6084 99.83084 
L 155.345003 81.806317 
L 156.081606 90.818578 
L 156.81821 63.781793 
L 157.554813 108.843102 
L 158.291416 95.324709 
L 159.028019 59.275662 
L 160.501226 113.349232 
L 161.237829 104.336971 
L 161.974432 90.818578 
L 163.447638 126.867625 
L 165.657448 86.312447 
L 166.394051 99.83084 
L 167.130655 104.336971 
L 167.867258 86.312447 
L 168.603861 77.300186 
L 169.340464 104.336971 
L 170.077067 90.818578 
L 170.813671 68.287924 
L 171.550274 131.373756 
L 173.02348 95.324709 
L 173.760084 86.312447 
L 174.496687 117.855363 
L 175.23329 122.361494 
L 176.706496 95.324709 
L 177.4431 63.781793 
L 178.179703 95.324709 
L 178.916306 81.806317 
L 179.652909 86.312447 
L 180.389512 95.324709 
L 181.126116 117.855363 
L 182.599322 90.818578 
L 183.335925 68.287924 
L 184.072529 99.83084 
L 184.809132 81.806317 
L 185.545735 108.843102 
L 186.282338 99.83084 
L 187.018941 86.312447 
L 187.755545 68.287924 
L 188.492148 113.349232 
L 189.228751 95.324709 
L 189.965354 86.312447 
L 190.701957 90.818578 
L 191.438561 104.336971 
L 192.175164 90.818578 
L 193.64837 81.806317 
L 195.121577 99.83084 
L 195.85818 86.312447 
L 196.594783 104.336971 
L 197.331386 104.336971 
L 198.06799 90.818578 
L 198.804593 68.287924 
L 199.541196 122.361494 
L 200.277799 104.336971 
L 201.014403 90.818578 
L 201.751006 90.818578 
L 202.487609 95.324709 
L 203.224212 81.806317 
L 203.960815 122.361494 
L 205.434022 95.324709 
L 206.907228 77.300186 
L 207.643831 99.83084 
L 208.380435 63.781793 
L 209.117038 95.324709 
L 209.853641 95.324709 
L 210.590244 86.312447 
L 211.326848 95.324709 
L 212.063451 81.806317 
L 212.800054 108.843102 
L 213.536657 99.83084 
L 214.27326 86.312447 
L 215.009864 90.818578 
L 215.746467 108.843102 
L 217.219673 72.794055 
L 217.956277 144.892148 
L 218.69288 126.867625 
L 220.166086 99.83084 
L 221.639293 81.806317 
L 222.375896 90.818578 
L 223.112499 68.287924 
L 223.849102 108.843102 
L 224.585705 90.818578 
L 225.322309 81.806317 
L 226.058912 108.843102 
L 226.795515 95.324709 
L 227.532118 86.312447 
L 228.268722 104.336971 
L 229.005325 95.324709 
L 229.741928 54.769532 
L 230.478531 113.349232 
L 231.215134 99.83084 
L 231.951738 90.818578 
L 232.688341 63.781793 
L 233.424944 90.818578 
L 234.161547 113.349232 
L 234.898151 126.867625 
L 236.371357 90.818578 
L 237.10796 90.818578 
L 237.844563 144.892148 
L 240.054373 104.336971 
L 241.527579 86.312447 
L 242.264183 113.349232 
L 243.000786 131.373756 
L 243.737389 113.349232 
L 245.210596 86.312447 
L 245.947199 86.312447 
L 246.683802 90.818578 
L 247.420405 86.312447 
L 248.157008 72.794055 
L 248.893612 108.843102 
L 249.630215 90.818578 
L 250.366818 81.806317 
L 251.103421 122.361494 
L 252.576628 95.324709 
L 253.313231 86.312447 
L 254.049834 90.818578 
L 254.786437 113.349232 
L 256.259644 86.312447 
L 256.996247 99.83084 
L 257.73285 108.843102 
L 259.206057 81.806317 
L 259.94266 108.843102 
L 260.679263 113.349232 
L 262.15247 86.312447 
L 262.889073 99.83084 
L 263.625676 108.843102 
L 265.098882 81.806317 
L 265.835486 90.818578 
L 266.572089 86.312447 
L 267.308692 90.818578 
L 268.045295 77.300186 
L 268.781898 117.855363 
L 269.518502 99.83084 
L 270.255105 86.312447 
L 270.991708 126.867625 
L 271.728311 131.373756 
L 273.938121 90.818578 
L 274.674724 95.324709 
L 275.411327 108.843102 
L 276.884534 81.806317 
L 277.621137 90.818578 
L 278.35774 86.312447 
L 279.094344 108.843102 
L 279.830947 90.818578 
L 280.56755 81.806317 
L 281.304153 95.324709 
L 282.040756 86.312447 
L 282.77736 95.324709 
L 283.513963 99.83084 
L 284.250566 77.300186 
L 284.987169 131.373756 
L 286.460376 95.324709 
L 287.196979 68.287924 
L 287.933582 117.855363 
L 289.406789 90.818578 
L 290.143392 68.287924 
L 290.879995 113.349232 
L 291.616598 95.324709 
L 292.353201 86.312447 
L 293.089805 86.312447 
L 293.826408 99.83084 
L 294.563011 90.818578 
L 295.299614 45.75727 
L 296.036218 131.373756 
L 296.772821 108.843102 
L 297.509424 95.324709 
L 298.246027 86.312447 
L 298.98263 81.806317 
L 299.719234 95.324709 
L 300.455837 86.312447 
L 301.19244 117.855363 
L 301.929043 99.83084 
L 302.665646 63.781793 
L 303.40225 126.867625 
L 304.138853 113.349232 
L 306.348663 86.312447 
L 307.085266 68.287924 
L 307.821869 108.843102 
L 308.558472 90.818578 
L 309.295075 99.83084 
L 310.031679 140.386017 
L 310.768282 122.361494 
L 312.241488 95.324709 
L 312.978091 86.312447 
L 313.714695 72.794055 
L 314.451298 99.83084 
L 315.187901 86.312447 
L 315.924504 108.843102 
L 316.661108 108.843102 
L 317.397711 90.818578 
L 318.134314 86.312447 
L 318.870917 95.324709 
L 319.60752 81.806317 
L 320.344124 90.818578 
L 321.080727 63.781793 
L 321.81733 90.818578 
L 322.553933 99.83084 
L 323.290537 104.336971 
L 324.763743 68.287924 
L 325.500346 86.312447 
L 326.236949 63.781793 
L 326.973553 86.312447 
L 327.710156 95.324709 
L 328.446759 86.312447 
L 329.183362 81.806317 
L 329.919965 117.855363 
L 330.656569 99.83084 
L 331.393172 86.312447 
L 332.129775 95.324709 
L 332.866378 90.818578 
L 333.602982 77.300186 
L 334.339585 99.83084 
L 335.076188 86.312447 
L 335.812791 90.818578 
L 336.549394 72.794055 
L 337.285998 113.349232 
L 338.022601 95.324709 
L 338.759204 95.324709 
L 339.495807 104.336971 
L 340.232411 86.312447 
L 340.969014 86.312447 
L 341.705617 113.349232 
L 343.178823 95.324709 
L 343.915427 90.818578 
L 344.65203 81.806317 
L 345.388633 90.818578 
L 346.125236 77.300186 
L 346.861839 90.818578 
L 347.598443 68.287924 
L 348.335046 95.324709 
L 349.071649 86.312447 
L 349.808252 113.349232 
L 350.544856 113.349232 
L 352.018062 77.300186 
L 352.754665 131.373756 
L 353.491268 113.349232 
L 354.227872 99.83084 
L 355.701078 81.806317 
L 357.174285 108.843102 
L 357.910888 90.818578 
L 358.647491 104.336971 
L 359.384094 131.373756 
L 361.593904 90.818578 
L 362.330507 95.324709 
L 363.06711 95.324709 
L 363.803713 68.287924 
L 364.540317 113.349232 
L 365.27692 95.324709 
L 366.013523 81.806317 
L 366.750126 104.336971 
L 367.48673 113.349232 
L 368.223333 99.83084 
L 368.959936 90.818578 
L 369.696539 77.300186 
L 370.433142 108.843102 
L 371.169746 90.818578 
L 372.642952 108.843102 
L 373.379555 95.324709 
L 374.116158 86.312447 
L 374.852762 86.312447 
L 375.589365 99.83084 
L 376.325968 86.312447 
L 377.062571 108.843102 
L 377.799175 99.83084 
L 378.535778 86.312447 
L 379.272381 104.336971 
L 380.008984 108.843102 
L 380.745587 99.83084 
L 382.218794 72.794055 
L 382.955397 122.361494 
L 384.428604 86.312447 
L 385.165207 104.336971 
L 385.90181 99.83084 
L 387.375016 81.806317 
L 388.11162 68.287924 
L 388.848223 86.312447 
L 389.584826 117.855363 
L 390.321429 113.349232 
L 391.058032 95.324709 
L 391.794636 81.806317 
L 392.531239 99.83084 
L 393.267842 90.818578 
L 394.004445 86.312447 
L 394.741049 54.769532 
L 395.477652 86.312447 
L 396.214255 77.300186 
L 396.950858 95.324709 
L 397.687461 81.806317 
L 398.424065 117.855363 
L 399.160668 99.83084 
L 399.897271 122.361494 
L 400.633874 131.373756 
L 401.370478 117.855363 
L 402.107081 108.843102 
L 403.580287 81.806317 
L 405.053494 99.83084 
L 405.790097 99.83084 
L 406.5267 86.312447 
L 407.263303 99.83084 
L 407.999906 108.843102 
L 408.73651 99.83084 
L 409.473113 86.312447 
L 410.209716 108.843102 
L 410.946319 108.843102 
L 411.682923 95.324709 
L 412.419526 68.287924 
L 413.156129 122.361494 
L 413.892732 108.843102 
L 414.629335 90.818578 
L 415.365939 68.287924 
L 416.102542 131.373756 
L 416.839145 113.349232 
L 419.048955 86.312447 
L 419.785558 99.83084 
L 420.522161 90.818578 
L 421.258764 99.83084 
L 421.995368 104.336971 
L 422.731971 90.818578 
L 423.468574 63.781793 
L 424.205177 95.324709 
L 424.94178 90.818578 
L 425.678384 104.336971 
L 426.414987 86.312447 
L 427.15159 72.794055 
L 427.888193 90.818578 
L 428.624797 63.781793 
L 429.3614 149.398279 
L 430.098003 131.373756 
L 432.307813 90.818578 
L 433.044416 86.312447 
L 433.781019 90.818578 
L 435.254225 81.806317 
L 435.990829 99.83084 
L 436.727432 86.312447 
L 437.464035 90.818578 
L 438.200638 86.312447 
L 438.937242 144.892148 
L 439.673845 126.867625 
L 441.147051 99.83084 
L 441.883654 90.818578 
L 442.620258 68.287924 
L 443.356861 108.843102 
L 444.093464 95.324709 
L 444.830067 90.818578 
L 445.566671 90.818578 
L 446.303274 77.300186 
L 447.039877 131.373756 
L 449.249687 90.818578 
L 449.98629 81.806317 
L 450.722893 95.324709 
L 451.459496 77.300186 
L 452.196099 122.361494 
L 452.932703 104.336971 
L 453.669306 90.818578 
L 454.405909 86.312447 
L 455.142512 86.312447 
L 455.879116 95.324709 
L 456.615719 99.83084 
L 457.352322 90.818578 
L 458.088925 108.843102 
L 458.825528 90.818578 
L 459.562132 81.806317 
L 460.298735 95.324709 
L 461.035338 68.287924 
L 461.771941 99.83084 
L 462.508545 108.843102 
L 463.245148 95.324709 
L 463.981751 86.312447 
L 464.718354 99.83084 
L 465.454957 126.867625 
L 466.191561 108.843102 
L 466.928164 95.324709 
L 467.664767 90.818578 
L 468.40137 135.879887 
L 469.137973 117.855363 
L 469.874577 104.336971 
L 471.347783 86.312447 
L 472.084386 90.818578 
L 472.82099 90.818578 
L 473.557593 99.83084 
L 474.294196 104.336971 
L 475.030799 72.794055 
L 475.767402 135.879887 
L 476.504006 117.855363 
L 477.977212 90.818578 
L 478.713815 86.312447 
L 479.450419 108.843102 
L 480.187022 90.818578 
L 480.923625 86.312447 
L 481.660228 113.349232 
L 482.396831 95.324709 
L 483.133435 86.312447 
L 483.870038 90.818578 
L 484.606641 140.386017 
L 485.343244 126.867625 
L 486.079847 108.843102 
L 486.816451 95.324709 
L 487.553054 86.312447 
L 488.289657 90.818578 
L 489.02626 104.336971 
L 489.762864 81.806317 
L 490.499467 135.879887 
L 491.23607 117.855363 
L 492.709276 90.818578 
L 493.44588 81.806317 
L 494.182483 90.818578 
L 494.919086 117.855363 
L 496.392292 90.818578 
L 497.128896 104.336971 
L 497.865499 144.892148 
L 498.602102 126.867625 
L 500.075309 99.83084 
L 501.548515 81.806317 
L 502.285118 86.312447 
L 503.021721 99.83084 
L 503.758325 86.312447 
L 503.758325 86.312447 
" style="fill:none;stroke:#ff7f0e;stroke-linecap:square;stroke-width:1.5;"/>
   </g>
   <g id="line2d_17">
    <path clip-path="url(#p7194f7d834)" d="M 103.765099 244.027027 
L 104.501703 239.520896 
L 105.238306 167.422802 
L 105.974909 81.806317 
L 106.711512 117.855363 
L 107.448116 72.794055 
L 108.184719 104.336971 
L 109.657925 113.349232 
L 110.394528 108.843102 
L 111.131132 95.324709 
L 111.867735 86.312447 
L 112.604338 104.336971 
L 113.340941 140.386017 
L 114.077544 122.361494 
L 114.814148 108.843102 
L 115.550751 99.83084 
L 116.287354 86.312447 
L 117.023957 54.769532 
L 117.760561 99.83084 
L 118.497164 63.781793 
L 119.233767 140.386017 
L 119.97037 117.855363 
L 121.443577 90.818578 
L 122.18018 81.806317 
L 122.916783 86.312447 
L 123.653386 99.83084 
L 124.38999 86.312447 
L 125.126593 81.806317 
L 125.863196 108.843102 
L 126.599799 95.324709 
L 127.336402 63.781793 
L 128.073006 126.867625 
L 129.546212 99.83084 
L 130.282815 90.818578 
L 131.019418 95.324709 
L 131.756022 108.843102 
L 132.492625 95.324709 
L 133.229228 59.275662 
L 133.965831 108.843102 
L 135.439038 72.794055 
L 136.175641 99.83084 
L 137.648847 81.806317 
L 138.385451 81.806317 
L 139.122054 95.324709 
L 139.858657 86.312447 
L 140.59526 108.843102 
L 141.331863 99.83084 
L 142.068467 86.312447 
L 142.80507 117.855363 
L 143.541673 135.879887 
L 144.278276 117.855363 
L 145.01488 104.336971 
L 146.488086 86.312447 
L 147.224689 104.336971 
L 147.961292 99.83084 
L 148.697896 86.312447 
L 149.434499 108.843102 
L 150.171102 108.843102 
L 150.907705 95.324709 
L 151.644309 63.781793 
L 152.380912 113.349232 
L 153.117515 95.324709 
L 153.854118 86.312447 
L 154.590721 95.324709 
L 155.327325 86.312447 
L 156.063928 90.818578 
L 156.800531 81.806317 
L 157.537134 86.312447 
L 158.273737 95.324709 
L 159.010341 86.312447 
L 159.746944 86.312447 
L 160.483547 108.843102 
L 161.22015 104.336971 
L 161.956754 90.818578 
L 162.693357 86.312447 
L 163.42996 126.867625 
L 165.63977 86.312447 
L 166.376373 99.83084 
L 167.112976 104.336971 
L 167.849579 86.312447 
L 168.586183 99.83084 
L 169.322786 104.336971 
L 170.059389 90.818578 
L 170.795992 63.781793 
L 171.532595 131.373756 
L 173.005802 95.324709 
L 173.742405 86.312447 
L 174.479008 95.324709 
L 175.215611 122.361494 
L 177.425421 81.806317 
L 178.162024 95.324709 
L 178.898628 81.806317 
L 179.635231 86.312447 
L 180.371834 95.324709 
L 181.108437 117.855363 
L 182.581644 90.818578 
L 183.318247 90.818578 
L 184.05485 95.324709 
L 184.791453 81.806317 
L 185.528057 108.843102 
L 186.26466 99.83084 
L 187.001263 86.312447 
L 187.737866 90.818578 
L 188.474469 113.349232 
L 189.211073 95.324709 
L 189.947676 81.806317 
L 190.684279 108.843102 
L 191.420882 104.336971 
L 192.157485 90.818578 
L 193.630692 81.806317 
L 194.367295 81.806317 
L 195.103898 95.324709 
L 195.840502 86.312447 
L 196.577105 99.83084 
L 197.313708 104.336971 
L 198.050311 90.818578 
L 198.786914 54.769532 
L 199.523518 122.361494 
L 200.260121 104.336971 
L 200.996724 90.818578 
L 201.733327 90.818578 
L 202.46993 95.324709 
L 203.206534 81.806317 
L 203.943137 86.312447 
L 204.67974 108.843102 
L 205.416343 95.324709 
L 206.152947 86.312447 
L 206.88955 99.83084 
L 207.626153 99.83084 
L 208.362756 86.312447 
L 209.835963 95.324709 
L 210.572566 86.312447 
L 211.309169 95.324709 
L 212.045772 81.806317 
L 212.782376 108.843102 
L 213.518979 99.83084 
L 214.255582 86.312447 
L 214.992185 68.287924 
L 215.728788 108.843102 
L 216.465392 95.324709 
L 217.201995 72.794055 
L 217.938598 149.398279 
L 218.675201 126.867625 
L 220.148408 99.83084 
L 221.621614 81.806317 
L 222.358217 90.818578 
L 223.094821 90.818578 
L 223.831424 108.843102 
L 224.568027 90.818578 
L 225.30463 81.806317 
L 226.041233 108.843102 
L 227.51444 81.806317 
L 228.251043 104.336971 
L 228.987646 95.324709 
L 229.72425 81.806317 
L 230.460853 113.349232 
L 231.197456 99.83084 
L 232.670662 81.806317 
L 233.407266 90.818578 
L 234.143869 72.794055 
L 234.880472 126.867625 
L 236.353678 90.818578 
L 237.090282 90.818578 
L 237.826885 144.892148 
L 240.036695 104.336971 
L 241.509901 86.312447 
L 242.246504 99.83084 
L 242.983107 131.373756 
L 244.456314 95.324709 
L 245.192917 86.312447 
L 245.92952 86.312447 
L 246.666124 90.818578 
L 247.402727 86.312447 
L 248.13933 68.287924 
L 248.875933 108.843102 
L 249.612536 90.818578 
L 250.34914 90.818578 
L 251.085743 122.361494 
L 253.295552 81.806317 
L 254.032156 99.83084 
L 254.768759 113.349232 
L 256.241965 86.312447 
L 256.978569 54.769532 
L 257.715172 108.843102 
L 258.451775 95.324709 
L 259.188378 86.312447 
L 259.924981 131.373756 
L 260.661585 113.349232 
L 262.134791 86.312447 
L 262.871394 95.324709 
L 263.607997 108.843102 
L 265.081204 81.806317 
L 265.817807 86.312447 
L 266.55441 86.312447 
L 267.291014 90.818578 
L 268.027617 99.83084 
L 268.76422 117.855363 
L 269.500823 99.83084 
L 270.237426 86.312447 
L 270.97403 122.361494 
L 271.710633 131.373756 
L 273.920443 90.818578 
L 274.657046 72.794055 
L 275.393649 108.843102 
L 276.866855 81.806317 
L 277.603459 90.818578 
L 278.340062 63.781793 
L 279.076665 108.843102 
L 280.549871 81.806317 
L 281.286475 59.275662 
L 282.023078 86.312447 
L 282.759681 59.275662 
L 283.496284 99.83084 
L 284.232888 95.324709 
L 284.969491 131.373756 
L 286.442697 95.324709 
L 287.1793 86.312447 
L 287.915904 117.855363 
L 289.38911 90.818578 
L 290.125713 68.287924 
L 290.862317 113.349232 
L 292.335523 86.312447 
L 293.072126 108.843102 
L 295.281936 81.806317 
L 296.018539 108.843102 
L 296.755142 108.843102 
L 297.491745 95.324709 
L 298.228349 86.312447 
L 298.964952 99.83084 
L 299.701555 95.324709 
L 300.438158 86.312447 
L 301.174762 86.312447 
L 301.911365 99.83084 
L 302.647968 86.312447 
L 303.384571 126.867625 
L 304.121174 113.349232 
L 306.330984 86.312447 
L 307.067587 68.287924 
L 307.804191 108.843102 
L 308.540794 90.818578 
L 309.277397 86.312447 
L 310.014 140.386017 
L 310.750603 122.361494 
L 312.22381 95.324709 
L 312.960413 86.312447 
L 313.697016 95.324709 
L 314.433619 99.83084 
L 315.170223 86.312447 
L 315.906826 86.312447 
L 316.643429 108.843102 
L 317.380032 90.818578 
L 318.116636 86.312447 
L 318.853239 95.324709 
L 319.589842 81.806317 
L 320.326445 90.818578 
L 321.063048 81.806317 
L 321.799652 90.818578 
L 322.536255 72.794055 
L 323.272858 104.336971 
L 324.009461 86.312447 
L 324.746064 90.818578 
L 325.482668 86.312447 
L 326.219271 86.312447 
L 326.955874 81.806317 
L 327.692477 72.794055 
L 328.429081 86.312447 
L 329.165684 95.324709 
L 329.902287 117.855363 
L 330.63889 99.83084 
L 331.375493 86.312447 
L 332.112097 95.324709 
L 332.8487 90.818578 
L 333.585303 99.83084 
L 334.321906 99.83084 
L 335.05851 86.312447 
L 335.795113 68.287924 
L 336.531716 95.324709 
L 337.268319 113.349232 
L 338.004922 95.324709 
L 338.741526 72.794055 
L 339.478129 104.336971 
L 340.214732 90.818578 
L 340.951335 81.806317 
L 341.687938 113.349232 
L 343.161145 95.324709 
L 343.897748 90.818578 
L 344.634351 50.263401 
L 345.370955 90.818578 
L 346.107558 95.324709 
L 346.844161 95.324709 
L 347.580764 68.287924 
L 348.317367 95.324709 
L 349.053971 86.312447 
L 349.790574 113.349232 
L 350.527177 113.349232 
L 351.26378 95.324709 
L 352.000384 99.83084 
L 352.736987 131.373756 
L 353.47359 113.349232 
L 354.210193 99.83084 
L 355.6834 81.806317 
L 356.420003 90.818578 
L 357.156606 108.843102 
L 357.893209 90.818578 
L 358.629812 81.806317 
L 359.366416 131.373756 
L 361.576225 90.818578 
L 362.312829 95.324709 
L 363.049432 95.324709 
L 363.786035 86.312447 
L 364.522638 113.349232 
L 365.259241 95.324709 
L 365.995845 81.806317 
L 366.732448 122.361494 
L 367.469051 113.349232 
L 368.205654 99.83084 
L 368.942258 90.818578 
L 369.678861 77.300186 
L 370.415464 108.843102 
L 371.88867 72.794055 
L 372.625274 108.843102 
L 373.361877 95.324709 
L 374.09848 86.312447 
L 374.835083 104.336971 
L 375.571686 99.83084 
L 376.30829 86.312447 
L 377.044893 86.312447 
L 377.781496 99.83084 
L 378.518099 86.312447 
L 379.254703 77.300186 
L 379.991306 108.843102 
L 382.201115 81.806317 
L 382.937719 122.361494 
L 384.410925 86.312447 
L 385.147528 81.806317 
L 385.884131 99.83084 
L 387.357338 81.806317 
L 388.093941 90.818578 
L 388.830544 86.312447 
L 389.567148 95.324709 
L 390.303751 113.349232 
L 391.040354 95.324709 
L 391.776957 81.806317 
L 392.51356 99.83084 
L 393.250164 90.818578 
L 393.986767 86.312447 
L 394.72337 90.818578 
L 396.196577 81.806317 
L 396.93318 95.324709 
L 397.669783 81.806317 
L 398.406386 117.855363 
L 399.142989 99.83084 
L 399.879593 95.324709 
L 400.616196 131.373756 
L 401.352799 122.361494 
L 402.826005 95.324709 
L 403.562609 86.312447 
L 404.299212 68.287924 
L 405.035815 99.83084 
L 405.772418 99.83084 
L 406.509022 86.312447 
L 407.245625 81.806317 
L 407.982228 108.843102 
L 409.455434 90.818578 
L 410.192038 95.324709 
L 410.928641 113.349232 
L 411.665244 95.324709 
L 412.401847 86.312447 
L 413.138451 126.867625 
L 414.611657 90.818578 
L 415.34826 86.312447 
L 416.084863 131.373756 
L 417.55807 104.336971 
L 419.031276 86.312447 
L 419.767879 99.83084 
L 420.504483 90.818578 
L 421.241086 77.300186 
L 421.977689 104.336971 
L 422.714292 90.818578 
L 423.450896 86.312447 
L 424.187499 95.324709 
L 424.924102 68.287924 
L 425.660705 104.336971 
L 426.397308 90.818578 
L 427.133912 95.324709 
L 427.870515 90.818578 
L 428.607118 81.806317 
L 429.343721 126.867625 
L 430.080325 131.373756 
L 431.553531 104.336971 
L 433.026737 86.312447 
L 433.763341 90.818578 
L 434.499944 86.312447 
L 435.236547 104.336971 
L 435.97315 99.83084 
L 436.709753 86.312447 
L 437.446357 90.818578 
L 438.18296 86.312447 
L 438.919563 144.892148 
L 439.656166 126.867625 
L 441.129373 99.83084 
L 441.865976 90.818578 
L 442.602579 86.312447 
L 443.339182 108.843102 
L 444.075786 90.818578 
L 444.812389 68.287924 
L 445.548992 90.818578 
L 446.285595 77.300186 
L 447.022198 131.373756 
L 449.232008 90.818578 
L 449.968611 54.769532 
L 450.705215 95.324709 
L 451.441818 77.300186 
L 452.178421 122.361494 
L 452.915024 104.336971 
L 453.651627 90.818578 
L 454.388231 90.818578 
L 455.124834 86.312447 
L 455.861437 68.287924 
L 456.59804 99.83084 
L 457.334644 90.818578 
L 458.071247 108.843102 
L 458.80785 95.324709 
L 459.544453 59.275662 
L 460.281056 95.324709 
L 461.01766 86.312447 
L 461.754263 95.324709 
L 462.490866 108.843102 
L 463.227469 95.324709 
L 463.964072 86.312447 
L 464.700676 99.83084 
L 465.437279 126.867625 
L 466.173882 108.843102 
L 466.910485 95.324709 
L 467.647089 117.855363 
L 468.383692 135.879887 
L 469.120295 117.855363 
L 469.856898 104.336971 
L 471.330105 86.312447 
L 472.066708 90.818578 
L 472.803311 90.818578 
L 473.539914 77.300186 
L 474.276518 104.336971 
L 475.013121 68.287924 
L 475.749724 135.879887 
L 476.486327 117.855363 
L 477.22293 108.843102 
L 477.959534 90.818578 
L 478.696137 86.312447 
L 479.43274 108.843102 
L 480.169343 90.818578 
L 480.905946 54.769532 
L 481.64255 113.349232 
L 482.379153 95.324709 
L 483.115756 86.312447 
L 483.852359 86.312447 
L 484.588963 144.892148 
L 485.325566 126.867625 
L 487.535375 86.312447 
L 488.271979 90.818578 
L 489.008582 104.336971 
L 489.745185 81.806317 
L 490.481788 135.879887 
L 491.218392 117.855363 
L 492.691598 90.818578 
L 493.428201 81.806317 
L 494.164804 122.361494 
L 494.901408 117.855363 
L 496.374614 90.818578 
L 497.111217 99.83084 
L 497.84782 149.398279 
L 498.584424 126.867625 
L 500.05763 99.83084 
L 500.794233 90.818578 
L 500.794233 90.818578 
" style="fill:none;stroke:#2ca02c;stroke-linecap:square;stroke-width:1.5;"/>
   </g>
   <g id="line2d_18">
    <path clip-path="url(#p7194f7d834)" d="M 109.702121 95.324709 
L 110.438725 90.818578 
L 111.175328 95.324709 
L 111.911931 86.312447 
L 113.385137 140.386017 
L 116.33155 86.312447 
L 117.068154 90.818578 
L 117.804757 99.83084 
L 118.54136 68.287924 
L 119.277963 140.386017 
L 120.014566 117.855363 
L 121.487773 90.818578 
L 122.224376 81.806317 
L 122.960979 108.843102 
L 123.697582 99.83084 
L 124.434186 86.312447 
L 125.170789 108.843102 
L 125.907392 108.843102 
L 127.380599 81.806317 
L 128.117202 126.867625 
L 129.590408 99.83084 
L 130.327011 90.818578 
L 131.063615 72.794055 
L 131.800218 108.843102 
L 132.536821 90.818578 
L 133.273424 90.818578 
L 134.010028 108.843102 
L 134.746631 90.818578 
L 135.483234 99.83084 
L 136.219837 95.324709 
L 136.95644 86.312447 
L 137.693044 81.806317 
L 138.429647 104.336971 
L 139.16625 95.324709 
L 139.902853 81.806317 
L 140.639456 86.312447 
L 141.37606 95.324709 
L 142.112663 81.806317 
L 142.849266 122.361494 
L 143.585869 131.373756 
L 145.795679 90.818578 
L 146.532282 81.806317 
L 147.268885 104.336971 
L 148.742092 86.312447 
L 149.478695 90.818578 
L 150.215298 108.843102 
L 150.951902 90.818578 
L 151.688505 90.818578 
L 152.425108 108.843102 
L 153.161711 90.818578 
L 153.898314 68.287924 
L 154.634918 95.324709 
L 155.371521 81.806317 
L 156.108124 90.818578 
L 156.844727 81.806317 
L 157.58133 108.843102 
L 158.317934 90.818578 
L 159.79114 81.806317 
L 160.527743 90.818578 
L 161.264347 104.336971 
L 162.00095 86.312447 
L 162.737553 90.818578 
L 163.474156 126.867625 
L 165.683966 86.312447 
L 166.420569 77.300186 
L 167.157172 99.83084 
L 167.893775 86.312447 
L 168.630379 77.300186 
L 169.366982 104.336971 
L 170.103585 90.818578 
L 170.840188 68.287924 
L 171.576792 131.373756 
L 173.049998 95.324709 
L 173.786601 86.312447 
L 174.523204 95.324709 
L 175.259808 122.361494 
L 175.996411 104.336971 
L 176.733014 95.324709 
L 177.469617 81.806317 
L 178.206221 95.324709 
L 178.942824 59.275662 
L 179.679427 86.312447 
L 180.41603 86.312447 
L 181.152633 117.855363 
L 182.62584 90.818578 
L 183.362443 68.287924 
L 184.099046 95.324709 
L 184.835649 63.781793 
L 185.572253 113.349232 
L 187.045459 86.312447 
L 187.782062 90.818578 
L 188.518666 113.349232 
L 189.991872 86.312447 
L 190.728475 113.349232 
L 191.465078 104.336971 
L 192.201682 90.818578 
L 192.938285 63.781793 
L 193.674888 86.312447 
L 194.411491 113.349232 
L 195.884698 86.312447 
L 196.621301 81.806317 
L 197.357904 104.336971 
L 198.094507 90.818578 
L 198.831111 68.287924 
L 199.567714 122.361494 
L 200.304317 104.336971 
L 201.04092 90.818578 
L 201.777523 90.818578 
L 202.514127 95.324709 
L 203.25073 81.806317 
L 203.987333 122.361494 
L 205.46054 95.324709 
L 206.197143 86.312447 
L 206.933746 99.83084 
L 207.670349 99.83084 
L 208.406952 81.806317 
L 209.143556 108.843102 
L 209.880159 95.324709 
L 210.616762 68.287924 
L 211.353365 95.324709 
L 212.089969 86.312447 
L 212.826572 86.312447 
L 213.563175 99.83084 
L 214.299778 86.312447 
L 215.036381 95.324709 
L 215.772985 108.843102 
L 217.246191 72.794055 
L 217.982794 144.892148 
L 218.719397 126.867625 
L 220.192604 99.83084 
L 221.66581 81.806317 
L 222.402414 90.818578 
L 223.139017 72.794055 
L 223.87562 108.843102 
L 224.612223 90.818578 
L 225.348826 108.843102 
L 226.08543 108.843102 
L 227.558636 81.806317 
L 228.295239 81.806317 
L 229.031842 95.324709 
L 229.768446 63.781793 
L 230.505049 113.349232 
L 231.241652 99.83084 
L 232.714859 81.806317 
L 233.451462 90.818578 
L 234.188065 90.818578 
L 234.924668 126.867625 
L 236.397875 90.818578 
L 237.134478 95.324709 
L 237.871081 144.892148 
L 240.080891 104.336971 
L 241.554097 86.312447 
L 242.2907 113.349232 
L 243.027304 131.373756 
L 244.50051 95.324709 
L 245.237113 86.312447 
L 245.973716 63.781793 
L 246.71032 90.818578 
L 247.446923 86.312447 
L 248.183526 95.324709 
L 248.920129 108.843102 
L 249.656733 90.818578 
L 250.393336 117.855363 
L 251.129939 122.361494 
L 253.339749 81.806317 
L 254.076352 122.361494 
L 254.812955 113.349232 
L 255.549558 95.324709 
L 256.286162 86.312447 
L 257.022765 81.806317 
L 257.759368 108.843102 
L 259.232574 81.806317 
L 259.969178 113.349232 
L 260.705781 113.349232 
L 262.178987 86.312447 
L 262.91559 77.300186 
L 263.652194 108.843102 
L 265.1254 81.806317 
L 265.862003 90.818578 
L 266.598607 63.781793 
L 267.33521 90.818578 
L 268.071813 81.806317 
L 268.808416 117.855363 
L 269.545019 99.83084 
L 270.281623 86.312447 
L 271.018226 113.349232 
L 271.754829 131.373756 
L 273.964639 90.818578 
L 274.701242 72.794055 
L 275.437845 108.843102 
L 276.174448 95.324709 
L 276.911052 86.312447 
L 277.647655 90.818578 
L 278.384258 54.769532 
L 279.120861 108.843102 
L 280.594068 81.806317 
L 281.330671 95.324709 
L 282.067274 86.312447 
L 282.803877 99.83084 
L 283.540481 99.83084 
L 284.277084 72.794055 
L 285.013687 131.373756 
L 286.486893 95.324709 
L 287.223497 68.287924 
L 287.9601 117.855363 
L 289.433306 90.818578 
L 290.169909 95.324709 
L 290.906513 113.349232 
L 291.643116 99.83084 
L 292.379719 81.806317 
L 293.116322 108.843102 
L 295.326132 81.806317 
L 296.062735 131.373756 
L 296.799338 108.843102 
L 298.272545 81.806317 
L 299.009148 104.336971 
L 299.745751 95.324709 
L 300.482355 81.806317 
L 301.218958 99.83084 
L 301.955561 99.83084 
L 302.692164 81.806317 
L 303.428767 108.843102 
L 304.165371 113.349232 
L 304.901974 99.83084 
L 305.638577 95.324709 
L 306.37518 86.312447 
L 307.111783 90.818578 
L 307.848387 104.336971 
L 308.58499 86.312447 
L 309.321593 104.336971 
L 310.058196 140.386017 
L 311.531403 104.336971 
L 312.268006 95.324709 
L 313.004609 81.806317 
L 313.741212 95.324709 
L 314.477816 99.83084 
L 315.214419 86.312447 
L 315.951022 86.312447 
L 316.687625 104.336971 
L 317.424229 90.818578 
L 318.160832 50.263401 
L 318.897435 95.324709 
L 319.634038 81.806317 
L 320.370641 90.818578 
L 321.107245 81.806317 
L 321.843848 90.818578 
L 322.580451 77.300186 
L 323.317054 104.336971 
L 324.053657 86.312447 
L 324.790261 90.818578 
L 325.526864 86.312447 
L 326.263467 86.312447 
L 327.00007 81.806317 
L 327.736674 95.324709 
L 328.473277 86.312447 
L 329.20988 122.361494 
L 329.946483 113.349232 
L 331.41969 86.312447 
L 332.156293 95.324709 
L 332.892896 86.312447 
L 333.629499 99.83084 
L 334.366103 95.324709 
L 335.102706 81.806317 
L 335.839309 90.818578 
L 336.575912 72.794055 
L 337.312515 108.843102 
L 338.049119 90.818578 
L 339.522325 99.83084 
L 340.258928 86.312447 
L 340.995531 108.843102 
L 341.732135 113.349232 
L 343.941944 86.312447 
L 344.678548 81.806317 
L 345.415151 86.312447 
L 346.151754 95.324709 
L 346.888357 90.818578 
L 347.62496 90.818578 
L 348.361564 95.324709 
L 349.098167 86.312447 
L 349.83477 90.818578 
L 350.571373 113.349232 
L 352.04458 77.300186 
L 352.781183 126.867625 
L 353.517786 108.843102 
L 354.254389 99.83084 
L 354.990993 86.312447 
L 355.727596 81.806317 
L 356.464199 117.855363 
L 357.937405 90.818578 
L 358.674009 81.806317 
L 359.410612 131.373756 
L 360.147215 117.855363 
L 360.883818 99.83084 
L 361.620422 86.312447 
L 362.357025 54.769532 
L 363.093628 95.324709 
L 363.830231 68.287924 
L 364.566834 113.349232 
L 365.303438 95.324709 
L 366.040041 81.806317 
L 366.776644 95.324709 
L 367.513247 113.349232 
L 368.24985 99.83084 
L 368.986454 90.818578 
L 369.723057 99.83084 
L 370.45966 104.336971 
L 371.932867 77.300186 
L 372.66947 108.843102 
L 373.406073 95.324709 
L 374.142676 86.312447 
L 374.879279 108.843102 
L 375.615883 99.83084 
L 376.352486 86.312447 
L 377.089089 77.300186 
L 377.825692 99.83084 
L 378.562296 86.312447 
L 379.298899 81.806317 
L 380.035502 108.843102 
L 380.772105 99.83084 
L 381.508708 86.312447 
L 382.245312 108.843102 
L 382.981915 122.361494 
L 383.718518 99.83084 
L 384.455121 86.312447 
L 385.191724 63.781793 
L 385.928328 99.83084 
L 387.401534 81.806317 
L 388.138137 90.818578 
L 388.874741 86.312447 
L 389.611344 95.324709 
L 390.347947 113.349232 
L 391.08455 95.324709 
L 391.821153 81.806317 
L 392.557757 99.83084 
L 393.29436 90.818578 
L 394.030963 86.312447 
L 394.767566 90.818578 
L 395.50417 86.312447 
L 396.240773 104.336971 
L 396.977376 95.324709 
L 397.713979 68.287924 
L 398.450582 117.855363 
L 399.187186 99.83084 
L 399.923789 99.83084 
L 400.660392 131.373756 
L 401.396995 117.855363 
L 402.133598 108.843102 
L 403.606805 81.806317 
L 404.343408 90.818578 
L 405.080011 77.300186 
L 405.816615 99.83084 
L 406.553218 63.781793 
L 407.289821 77.300186 
L 408.026424 108.843102 
L 409.499631 90.818578 
L 410.236234 108.843102 
L 410.972837 113.349232 
L 411.70944 95.324709 
L 412.446043 95.324709 
L 413.182647 122.361494 
L 413.91925 108.843102 
L 414.655853 90.818578 
L 415.392456 68.287924 
L 416.12906 131.373756 
L 416.865663 113.349232 
L 419.075472 86.312447 
L 419.812076 81.806317 
L 421.285282 99.83084 
L 422.021885 104.336971 
L 422.758489 90.818578 
L 423.495092 86.312447 
L 424.231695 95.324709 
L 424.968298 72.794055 
L 425.704901 104.336971 
L 426.441505 86.312447 
L 427.178108 95.324709 
L 427.914711 90.818578 
L 428.651314 68.287924 
L 429.387917 149.398279 
L 430.124521 131.373756 
L 432.33433 90.818578 
L 433.070934 81.806317 
L 433.807537 50.263401 
L 434.54414 86.312447 
L 435.280743 108.843102 
L 436.017346 95.324709 
L 436.75395 86.312447 
L 437.490553 90.818578 
L 438.227156 90.818578 
L 438.963759 144.892148 
L 439.700363 126.867625 
L 441.173569 99.83084 
L 441.910172 90.818578 
L 442.646775 63.781793 
L 443.383379 108.843102 
L 444.119982 90.818578 
L 445.593188 90.818578 
L 446.329791 99.83084 
L 447.066395 131.373756 
L 449.276204 90.818578 
L 450.012808 86.312447 
L 450.749411 90.818578 
L 451.486014 99.83084 
L 452.222617 122.361494 
L 452.95922 99.83084 
L 453.695824 90.818578 
L 454.432427 86.312447 
L 455.16903 86.312447 
L 455.905633 95.324709 
L 456.642237 99.83084 
L 457.37884 72.794055 
L 458.115443 108.843102 
L 458.852046 90.818578 
L 459.588649 86.312447 
L 460.325253 95.324709 
L 461.061856 81.806317 
L 461.798459 117.855363 
L 462.535062 108.843102 
L 463.271665 95.324709 
L 464.008269 86.312447 
L 464.744872 104.336971 
L 465.481475 126.867625 
L 466.218078 108.843102 
L 466.954682 95.324709 
L 467.691285 95.324709 
L 468.427888 131.373756 
L 469.164491 113.349232 
L 469.901094 104.336971 
L 470.637698 90.818578 
L 471.374301 86.312447 
L 472.110904 59.275662 
L 472.847507 90.818578 
L 473.58411 81.806317 
L 474.320714 104.336971 
L 475.057317 72.794055 
L 475.79392 135.879887 
L 476.530523 117.855363 
L 478.00373 90.818578 
L 478.740333 68.287924 
L 479.476936 108.843102 
L 480.213539 90.818578 
L 480.950143 90.818578 
L 481.686746 113.349232 
L 482.423349 95.324709 
L 483.159952 86.312447 
L 483.896556 90.818578 
L 484.633159 140.386017 
L 485.369762 126.867625 
L 486.106365 108.843102 
L 486.842968 95.324709 
L 487.579572 86.312447 
L 488.316175 72.794055 
L 489.052778 104.336971 
L 489.789381 104.336971 
L 490.525984 135.879887 
L 491.262588 117.855363 
L 492.735794 90.818578 
L 493.472397 81.806317 
L 494.209001 108.843102 
L 494.945604 117.855363 
L 496.41881 90.818578 
L 497.155413 99.83084 
L 497.892017 144.892148 
L 498.62862 126.867625 
L 500.101826 99.83084 
L 501.575033 81.806317 
L 502.311636 90.818578 
L 503.048239 95.324709 
L 503.784842 86.312447 
L 504.521446 108.843102 
L 505.994652 81.806317 
L 506.731255 117.855363 
L 506.731255 117.855363 
" style="fill:none;stroke:#d62728;stroke-linecap:square;stroke-width:1.5;"/>
   </g>
   <g id="patch_3">
    <path d="M 83.472344 352.174167 
L 83.472344 35.843782 
" style="fill:none;stroke:#000000;stroke-linecap:square;stroke-linejoin:miter;stroke-width:0.8;"/>
   </g>
   <g id="patch_4">
    <path d="M 529.912969 352.174167 
L 529.912969 35.843782 
" style="fill:none;stroke:#000000;stroke-linecap:square;stroke-linejoin:miter;stroke-width:0.8;"/>
   </g>
   <g id="patch_5">
    <path d="M 83.472344 352.174167 
L 529.912969 352.174167 
" style="fill:none;stroke:#000000;stroke-linecap:square;stroke-linejoin:miter;stroke-width:0.8;"/>
   </g>
   <g id="patch_6">
    <path d="M 83.472344 35.843782 
L 529.912969 35.843782 
" style="fill:none;stroke:#000000;stroke-linecap:square;stroke-linejoin:miter;stroke-width:0.8;"/>
   </g>
   <g id="legend_1">
    <g id="patch_7">
     <path d="M 554.235 97.556282 
L 625.430312 97.556282 
Q 627.430312 97.556282 627.430312 95.556282 
L 627.430312 37.843782 
Q 627.430312 35.843782 625.430312 35.843782 
L 554.235 35.843782 
Q 552.235 35.843782 552.235 37.843782 
L 552.235 95.556282 
Q 552.235 97.556282 554.235 97.556282 
z
" style="fill:#ffffff;opacity:0.8;stroke:#cccccc;stroke-linejoin:miter;"/>
    </g>
    <g id="line2d_19">
     <path d="M 556.235 43.94222 
L 576.235 43.94222 
" style="fill:none;stroke:#1f77b4;stroke-linecap:square;stroke-width:1.5;"/>
    </g>
    <g id="line2d_20"/>
    <g id="text_16">
     <!-- cubic-pi -->
     <defs>
      <path d="M 48.78125 52.59375 
L 48.78125 44.1875 
Q 44.96875 46.296875 41.140625 47.34375 
Q 37.3125 48.390625 33.40625 48.390625 
Q 24.65625 48.390625 19.8125 42.84375 
Q 14.984375 37.3125 14.984375 27.296875 
Q 14.984375 17.28125 19.8125 11.734375 
Q 24.65625 6.203125 33.40625 6.203125 
Q 37.3125 6.203125 41.140625 7.25 
Q 44.96875 8.296875 48.78125 10.40625 
L 48.78125 2.09375 
Q 45.015625 0.34375 40.984375 -0.53125 
Q 36.96875 -1.421875 32.421875 -1.421875 
Q 20.0625 -1.421875 12.78125 6.34375 
Q 5.515625 14.109375 5.515625 27.296875 
Q 5.515625 40.671875 12.859375 48.328125 
Q 20.21875 56 33.015625 56 
Q 37.15625 56 41.109375 55.140625 
Q 45.0625 54.296875 48.78125 52.59375 
z
" id="DejaVuSans-99"/>
      <path d="M 8.5 21.578125 
L 8.5 54.6875 
L 17.484375 54.6875 
L 17.484375 21.921875 
Q 17.484375 14.15625 20.5 10.265625 
Q 23.53125 6.390625 29.59375 6.390625 
Q 36.859375 6.390625 41.078125 11.03125 
Q 45.3125 15.671875 45.3125 23.6875 
L 45.3125 54.6875 
L 54.296875 54.6875 
L 54.296875 0 
L 45.3125 0 
L 45.3125 8.40625 
Q 42.046875 3.421875 37.71875 1 
Q 33.40625 -1.421875 27.6875 -1.421875 
Q 18.265625 -1.421875 13.375 4.4375 
Q 8.5 10.296875 8.5 21.578125 
z
M 31.109375 56 
z
" id="DejaVuSans-117"/>
      <path d="M 48.6875 27.296875 
Q 48.6875 37.203125 44.609375 42.84375 
Q 40.53125 48.484375 33.40625 48.484375 
Q 26.265625 48.484375 22.1875 42.84375 
Q 18.109375 37.203125 18.109375 27.296875 
Q 18.109375 17.390625 22.1875 11.75 
Q 26.265625 6.109375 33.40625 6.109375 
Q 40.53125 6.109375 44.609375 11.75 
Q 48.6875 17.390625 48.6875 27.296875 
z
M 18.109375 46.390625 
Q 20.953125 51.265625 25.265625 53.625 
Q 29.59375 56 35.59375 56 
Q 45.5625 56 51.78125 48.09375 
Q 58.015625 40.1875 58.015625 27.296875 
Q 58.015625 14.40625 51.78125 6.484375 
Q 45.5625 -1.421875 35.59375 -1.421875 
Q 29.59375 -1.421875 25.265625 0.953125 
Q 20.953125 3.328125 18.109375 8.203125 
L 18.109375 0 
L 9.078125 0 
L 9.078125 75.984375 
L 18.109375 75.984375 
z
" id="DejaVuSans-98"/>
      <path d="M 9.421875 54.6875 
L 18.40625 54.6875 
L 18.40625 0 
L 9.421875 0 
z
M 9.421875 75.984375 
L 18.40625 75.984375 
L 18.40625 64.59375 
L 9.421875 64.59375 
z
" id="DejaVuSans-105"/>
      <path d="M 4.890625 31.390625 
L 31.203125 31.390625 
L 31.203125 23.390625 
L 4.890625 23.390625 
z
" id="DejaVuSans-45"/>
      <path d="M 18.109375 8.203125 
L 18.109375 -20.796875 
L 9.078125 -20.796875 
L 9.078125 54.6875 
L 18.109375 54.6875 
L 18.109375 46.390625 
Q 20.953125 51.265625 25.265625 53.625 
Q 29.59375 56 35.59375 56 
Q 45.5625 56 51.78125 48.09375 
Q 58.015625 40.1875 58.015625 27.296875 
Q 58.015625 14.40625 51.78125 6.484375 
Q 45.5625 -1.421875 35.59375 -1.421875 
Q 29.59375 -1.421875 25.265625 0.953125 
Q 20.953125 3.328125 18.109375 8.203125 
z
M 48.6875 27.296875 
Q 48.6875 37.203125 44.609375 42.84375 
Q 40.53125 48.484375 33.40625 48.484375 
Q 26.265625 48.484375 22.1875 42.84375 
Q 18.109375 37.203125 18.109375 27.296875 
Q 18.109375 17.390625 22.1875 11.75 
Q 26.265625 6.109375 33.40625 6.109375 
Q 40.53125 6.109375 44.609375 11.75 
Q 48.6875 17.390625 48.6875 27.296875 
z
" id="DejaVuSans-112"/>
     </defs>
     <g transform="translate(584.235 47.44222)scale(0.1 -0.1)">
      <use xlink:href="#DejaVuSans-99"/>
      <use x="54.980469" xlink:href="#DejaVuSans-117"/>
      <use x="118.359375" xlink:href="#DejaVuSans-98"/>
      <use x="181.835938" xlink:href="#DejaVuSans-105"/>
      <use x="209.619141" xlink:href="#DejaVuSans-99"/>
      <use x="264.599609" xlink:href="#DejaVuSans-45"/>
      <use x="300.683594" xlink:href="#DejaVuSans-112"/>
      <use x="364.160156" xlink:href="#DejaVuSans-105"/>
     </g>
    </g>
    <g id="line2d_21">
     <path d="M 556.235 58.620345 
L 576.235 58.620345 
" style="fill:none;stroke:#ff7f0e;stroke-linecap:square;stroke-width:1.5;"/>
    </g>
    <g id="line2d_22"/>
    <g id="text_17">
     <!-- cubic-pi -->
     <g transform="translate(584.235 62.120345)scale(0.1 -0.1)">
      <use xlink:href="#DejaVuSans-99"/>
      <use x="54.980469" xlink:href="#DejaVuSans-117"/>
      <use x="118.359375" xlink:href="#DejaVuSans-98"/>
      <use x="181.835938" xlink:href="#DejaVuSans-105"/>
      <use x="209.619141" xlink:href="#DejaVuSans-99"/>
      <use x="264.599609" xlink:href="#DejaVuSans-45"/>
      <use x="300.683594" xlink:href="#DejaVuSans-112"/>
      <use x="364.160156" xlink:href="#DejaVuSans-105"/>
     </g>
    </g>
    <g id="line2d_23">
     <path d="M 556.235 73.29847 
L 576.235 73.29847 
" style="fill:none;stroke:#2ca02c;stroke-linecap:square;stroke-width:1.5;"/>
    </g>
    <g id="line2d_24"/>
    <g id="text_18">
     <!-- cubic-pi -->
     <g transform="translate(584.235 76.79847)scale(0.1 -0.1)">
      <use xlink:href="#DejaVuSans-99"/>
      <use x="54.980469" xlink:href="#DejaVuSans-117"/>
      <use x="118.359375" xlink:href="#DejaVuSans-98"/>
      <use x="181.835938" xlink:href="#DejaVuSans-105"/>
      <use x="209.619141" xlink:href="#DejaVuSans-99"/>
      <use x="264.599609" xlink:href="#DejaVuSans-45"/>
      <use x="300.683594" xlink:href="#DejaVuSans-112"/>
      <use x="364.160156" xlink:href="#DejaVuSans-105"/>
     </g>
    </g>
    <g id="line2d_25">
     <path d="M 556.235 87.976595 
L 576.235 87.976595 
" style="fill:none;stroke:#d62728;stroke-linecap:square;stroke-width:1.5;"/>
    </g>
    <g id="line2d_26"/>
    <g id="text_19">
     <!-- cubic-pi -->
     <g transform="translate(584.235 91.476595)scale(0.1 -0.1)">
      <use xlink:href="#DejaVuSans-99"/>
      <use x="54.980469" xlink:href="#DejaVuSans-117"/>
      <use x="118.359375" xlink:href="#DejaVuSans-98"/>
      <use x="181.835938" xlink:href="#DejaVuSans-105"/>
      <use x="209.619141" xlink:href="#DejaVuSans-99"/>
      <use x="264.599609" xlink:href="#DejaVuSans-45"/>
      <use x="300.683594" xlink:href="#DejaVuSans-112"/>
      <use x="364.160156" xlink:href="#DejaVuSans-105"/>
     </g>
    </g>
   </g>
  </g>
  <g id="text_20">
   <!-- result rtt -->
   <defs>
    <path d="M 56.203125 29.59375 
L 56.203125 25.203125 
L 14.890625 25.203125 
Q 15.484375 15.921875 20.484375 11.0625 
Q 25.484375 6.203125 34.421875 6.203125 
Q 39.59375 6.203125 44.453125 7.46875 
Q 49.3125 8.734375 54.109375 11.28125 
L 54.109375 2.78125 
Q 49.265625 0.734375 44.1875 -0.34375 
Q 39.109375 -1.421875 33.890625 -1.421875 
Q 20.796875 -1.421875 13.15625 6.1875 
Q 5.515625 13.8125 5.515625 26.8125 
Q 5.515625 40.234375 12.765625 48.109375 
Q 20.015625 56 32.328125 56 
Q 43.359375 56 49.78125 48.890625 
Q 56.203125 41.796875 56.203125 29.59375 
z
M 47.21875 32.234375 
Q 47.125 39.59375 43.09375 43.984375 
Q 39.0625 48.390625 32.421875 48.390625 
Q 24.90625 48.390625 20.390625 44.140625 
Q 15.875 39.890625 15.1875 32.171875 
z
" id="DejaVuSans-101"/>
    <path d="M 9.421875 75.984375 
L 18.40625 75.984375 
L 18.40625 0 
L 9.421875 0 
z
" id="DejaVuSans-108"/>
    <path id="DejaVuSans-32"/>
   </defs>
   <g transform="translate(315.818438 17.038125)scale(0.12 -0.12)">
    <use xlink:href="#DejaVuSans-114"/>
    <use x="41.082031" xlink:href="#DejaVuSans-101"/>
    <use x="102.605469" xlink:href="#DejaVuSans-115"/>
    <use x="154.705078" xlink:href="#DejaVuSans-117"/>
    <use x="218.083984" xlink:href="#DejaVuSans-108"/>
    <use x="245.867188" xlink:href="#DejaVuSans-116"/>
    <use x="285.076172" xlink:href="#DejaVuSans-32"/>
    <use x="316.863281" xlink:href="#DejaVuSans-114"/>
    <use x="357.976562" xlink:href="#DejaVuSans-116"/>
    <use x="397.185547" xlink:href="#DejaVuSans-116"/>
   </g>
  </g>
 </g>
 <defs>
  <clipPath id="p7194f7d834">
   <rect height="316.330385" width="446.440625" x="83.472344" y="35.843782"/>
  </clipPath>
 </defs>
</svg>
